<svg width="1200" height="800" version="1.1" xmlns:xlink="http://www.w3.org/1999/xlink" xmlns="http://www.w3.org/2000/svg"><g class="geojson-features"><g class="geojson-feature" stroke="#555555" stroke-opacity="0.0" stroke-width="0.0" fill="#111" fill-opacity="1.0" data-properties="{&amp;quot;N03_002&amp;quot;:&amp;quot;石狩振興局&amp;quot;,&amp;quot;fill-opacity&amp;quot;:1,&amp;quot;description&amp;quot;:&amp;quot;札幌市白石区&amp;quot;,&amp;quot;N03_001&amp;quot;:&amp;quot;北海道&amp;quot;,&amp;quot;stroke-opacity&amp;quot;:0,&amp;quot;N03_007&amp;quot;:&amp;quot;01104&amp;quot;,&amp;quot;fill&amp;quot;:&amp;quot;#111&amp;quot;,&amp;quot;N03_004&amp;quot;:&amp;quot;白石区&amp;quot;,&amp;quot;title&amp;quot;:&amp;quot;札幌市白石区&amp;quot;,&amp;quot;stroke-width&amp;quot;:0,&amp;quot;N03_003&amp;quot;:&amp;quot;札幌市&amp;quot;}"><title>
      札幌市白石区
    </title><desc>
      札幌市白石区
    </desc><polygon points="288.2333835377358,426.063910920755 289.41629377403297,423.9865174110746 289.52150089945644,423.7693377517862 289.81842267047614,423.1560677966336 289.86776399658993,423.05417497607414 290.90177644090727,420.9148194822483 291.04094577766955,420.6999505915446 292.6931520283688,418.1730215699645 294.3306782152504,415.55965263792314 294.90512310084887,413.81668135302607 295.57341553783044,411.8655284122797 296.33240979909897,410.03834858420305 297.7887653550133,406.9642508138204 298.15605822601356,406.3331000158796 299.911723975325,403.3120801736368 302.4911626810208,398.87595496850554 302.85688268812373,398.2447937274119 304.9329466596246,397.26575865386985 305.67731911106966,396.91589207341895 307.22268711868674,396.2913461169228 308.89266090653837,395.46738754736725 310.9234613478184,394.46402834297623 313.80698709352873,392.346633866895 315.1371640036814,391.3987627850147 316.575693767285,390.3755415434716 317.7521377848461,389.71112033876125 322.69401821889915,386.8760975468904 324.69895378500223,385.72664723941125 326.9126142298337,384.6457660020096 334.7785070936661,381.0045118065318 335.2559004446957,380.7830870829057 338.06666666665114,379.63880525087006 339.7446795378346,378.95571133552585 341.2625515521504,378.251406781259 354.1561915737111,373.18370107142255 364.2924262401648,369.21240935183596 364.86518175317906,368.98866690846626 367.4979813264217,367.9099813050125 373.2684115630109,365.5444875251269 385.19275958044454,360.9750158007955 386.6118324340787,360.4563167417655 391.89514086418785,358.5252842142945 396.56945965532213,356.71122143638786 402.27091689244844,354.4984544280451 408.24844088894315,352.17268596065696 410.2194142434746,351.2180388069246 411.40389734413475,350.5934344603447 412.9362746598199,349.45043753890786 413.2049431325868,349.2267657897901 414.4525155557785,348.1835211259313 417.4995026490651,345.79568415367976 420.54981023282744,343.19971057004295 423.32492487109266,341.3103147688089 424.76188177079894,340.4840307442937 426.38164041982964,339.5537618044764 426.75382664543577,339.33885714726057 434.15706447628327,335.55994864937384 435.1570564552676,335.2574050484691 435.7751920071896,335.07040844869334 438.97917422954924,334.10464363428764 439.0293311146088,334.1001780341612 440.8918933616951,333.89651472726837 443.34660977800377,333.8145390263526 445.95674845878966,333.60625050985254 447.71567644458264,333.89651472726837 449.08301954879425,334.3128521954641 450.3565733546857,334.6030362506863 452.1462595697958,335.2653793155914 453.966645759996,336.0538741995115 455.6965048890561,336.59444858762436 456.9716315595433,336.76055208942853 459.15453377435915,336.76055208942853 461.21609244449064,336.59444858762436 463.12881157710217,336.5124733390985 464.20808755233884,336.1801863684086 464.61423598928377,336.0561069906689 466.13210800359957,335.5156914924737 467.92185247293673,335.14129970560316 476.3556657494046,330.7399618490599 477.781321329996,329.6988308025757 479.1454604517203,328.779625713476 483.6374435273465,325.7537405855255 483.70222222222947,325.7056548174005 485.4271879964508,324.42464183457196 486.73144177813083,323.4278353356058 487.5955849105958,322.88517302286346 487.8544666741509,322.72121791308746 489.61182179581374,321.3102128620958 490.97747552744113,320.1073386052158 492.4031311075669,318.98643958964385 492.9193217707798,318.44600521738175 494.8303515308071,317.07478089863434 496.1653635415714,315.6637595463544 497.6832355556544,313.0874827435473 498.83538756286725,309.3084510189947 499.35157822584733,307.8553007557057 499.775552455103,305.1548955688486 500.4422137744259,303.3694236773299 502.68663244810887,297.2244126080768 503.65749731566757,294.484153770376 505.2627506633289,290.2574213234475 506.3113266634755,287.49718580557965 507.23850086401217,285.0558585008839 508.9959142401349,282.8539322273573 511.3633075770922,280.4458381520817 514.5802222364582,277.37092521914747 520.76810222934,271.92789270321373 522.1629413261544,270.97308879648335 527.8362617744133,267.5702488431707 528.4737959823105,267.19580500316806 530.6583875699434,266.1988817724632 532.2473879894242,265.6539227978792 532.3574302149937,265.6162788949441 535.2103142400738,264.28924970701337 539.6052457815968,262.23334028804675 541.3981359787285,261.39591640711296 542.7623333546799,260.7578782016644 544.5212030862458,260.1330784811871 546.8271382187959,258.97009071183857 549.073188010836,257.6829211420845 550.8935742008034,256.353637255379 553.137992874952,254.90032952453475 555.1397244585678,253.8635032356251 556.6866653298493,253.4469377156347 557.8404484551866,253.15670546912588 559.7822364442982,253.15670546912588 561.1674053405877,253.11682743323036 561.2726124657784,253.11236109293532 562.6334310970269,253.07248305378016 564.4069808926433,253.20990276394878 565.8196457817685,253.32068391807843 567.30349732982,253.32068391807843 570.0365524196532,253.32291708723642 571.9185133227147,253.23869470052887 573.3732960144989,253.15670546912588 575.5577710934449,252.4499864364043 578.0756350862794,251.32901198917534 579.441405326128,250.37193465221208 580.7764173368923,249.50123191683087 580.7926120110787,249.48177129006945 581.807167544961,248.25391584145837 582.9609506702982,246.71644026844297 583.6891284480225,245.1810335495975 584.598535111174,241.6074915175559 584.9933822294697,239.57142624317203 584.8719804303255,236.66470663633663 584.9011657957453,234.7947589281248 585.0225093404297,232.76089853071608 585.2927506770939,230.8799290447496 585.3073142331559,230.7801496447064 585.355840000324,230.43678392691072 585.6908017778769,228.89925229444634 585.9238186667208,228.34316506574396 586.2976360109169,227.4457831500331 586.7216102401726,226.24052430153824 587.0549408996012,225.82401499385014 587.9044622222427,224.57887178089004 588.3469030400738,223.79458386590704 588.4206528856885,223.66385579761118 588.9967871434055,222.542735552066 590.2896230970509,220.86551699554548 591.3058680037502,219.54506624594796 592.1165920146741,218.4949244915042 592.750863985857,217.67066612071358 593.6392991291359,216.5185046888655 596.490493781399,214.06812865263782 601.040789333405,210.1618268864695 602.6687035732903,208.91010317218024 607.4940173085779,205.201096087927 608.4504351292271,204.2971310194116 611.1478968893643,201.1286536458647 612.1237133655231,199.49571082973853 613.3178666664753,197.4948858045973 615.2612857744098,195.00229815102648 617.2629591042642,192.6336540800985 618.9021746632643,191.80273149779532 620.5705755876843,191.01400383084547 624.6645075627603,190.0169251637999 626.4622911149636,189.7420501591405 629.3377777778078,189.3016595580848 630.3685279861093,189.14380164595786 634.4350804765709,188.35506968654227 640.4999275519513,187.1696561217541 648.435492465971,186.7131502854172 654.6541306879371,187.1696561217541 656.6088511149865,187.04553890356328 658.3079520142637,187.4621610349277 660.4326000076253,187.72802367969416 661.9941626880318,187.6881403037114 663.4051382045727,187.10544381150976 665.6059244659264,186.50272512075026 669.1238386917394,185.02703434613068 671.3682573656552,183.84376642631833 673.1741382542532,182.4722441259073 676.3893635412678,180.02377131092362 677.268070229562,178.99572016543243 677.8829435447697,178.27533325459808 679.2422475663479,176.68020412279293 679.9866200180259,175.35069985652808 680.6824084480759,173.52048178948462 681.8798239862081,168.61904682428576 682.0464893155731,167.77707514015492 682.7455399825703,164.25824797921814 683.078928896226,162.5542656442849 683.4882813156582,161.5771514228545 684.2018955377862,160.5179506985005 685.5515293586068,159.25046460248996 687.250572003657,157.77692511992063 688.006304028444,157.32262542808894 689.1858937740326,156.6135341601912 690.7069697706029,155.7006245031953 692.329990656348,154.7654567171121 694.0905497600324,153.3539666077122 696.4580013514496,151.58564949024003 697.5664044374134,150.50656367104966 698.5518911150284,149.32105827261694 699.8383191043977,147.4108895965619 702.3562413514592,143.17402984260116 704.9371946665924,138.04190067725722 705.961478655925,136.453022189904 707.1055915807374,134.6757888274733 708.6072106666397,134.24149129993748 710.0117782189045,133.83152492891531 714.3096582260914,132.57952586887404 719.559004444629,130.50088443164714 722.440957326442,129.77404391439632 723.6190324625932,129.68756649421994 725.8213333336171,129.5236263241386 726.4281675664242,129.7067127879709 727.8845231218729,130.1485930813942 729.4477169208694,130.64711398701183 730.3295693371911,131.0969710291829 731.5577431039419,131.71970204846002 732.844171093544,132.37561900203582 733.7730346666649,132.84765210060868 735.0465302190278,133.51242263102904 738.8216950900387,135.23645009088796 740.5127569066826,136.9560838395264 742.1891386595089,138.66230937594082 742.7895066738129,139.4357250573812 743.9497560176533,140.9270297746407 746.1698244267609,144.547975905356 746.7410653301049,145.4786161519587 748.6974168748129,147.28460839705076 750.3511959894095,148.30387144733686 751.2331066594925,148.66285064874683 751.6716444445774,148.84241992374882 751.8270084552933,148.8535083841998 752.8934102470521,148.93774876534007 753.2801017742604,148.96646707423497 753.6587542190682,148.91549207514618 756.4938124518376,148.5277149536414 757.365994666703,148.62073043605778 758.2689351113513,148.7160593214212 759.4146208995953,149.0529410816962 759.7479515592568,149.15042375505436 759.7560488958843,149.15257762756664 760.150837759953,149.47390335332602 761.4697133512236,150.54421644320246 763.2771671041846,152.05766402813606 763.5328448852524,152.27041743206792 766.8549666702747,155.25964481313713 768.4941822295077,156.29668035521172 771.4068933408707,156.877179981675 773.3131462540478,157.2273779938696 773.8306185104884,157.32262542808894 774.5769133511931,157.46007206942886 774.9733333333861,157.4992399676703 776.4831080106087,157.64833322179038 777.080213788664,157.70824173418805 777.7145440143067,157.84560849587433 780.9330897920299,158.53914253041148 782.4946524729021,158.71862840396352 784.2098315379117,158.91358987335116 786.6533631430939,158.68759729538579 786.9106137885246,158.66326699056663 787.332956899656,158.54807694011834 789.5045577958226,157.95856510673184 791.0514986668713,157.6882190500619 793.342811989598,157.5419975882396 796.5581537850667,157.46007206942886 798.3950841745827,157.32262542808894 799.6520937813912,157.22961160202976 801.7768000285141,156.77307779085822 803.0130128781311,156.33879990607966 803.4305791431107,156.19034442747943 803.6894026524387,156.0440427456051 805.2040124305058,155.1931946913246 806.2510155665223,154.28028238052502 807.1312368642539,153.11464946717024 808.1766671361402,152.05543039611075 809.9679262151476,151.0384088093415 812.4874795805663,149.54258789645974 813.4583444483578,148.75371223152615 814.8985053298529,147.23802075744607 816.519953351235,144.47474355297163 816.7027551005594,144.16234921151772 817.2513351114467,143.36899751529563 819.4924915486481,140.11380896903574 821.4197742363904,137.45467757352162 822.6252871109173,135.5999063088093 822.8567311360966,135.24315121781547 823.5184991005808,134.22553620347753 823.8324311038014,133.74281451106071 824.3632435773034,132.92519408336375 824.9085613512434,131.40498604846653 825.2580866848584,130.43211743538268 825.5768537886906,128.91636911802925 826.1383662363514,126.4013334029587 826.7290057959035,122.43457737739664 826.8357857849915,120.64843769173604 826.65292578144,119.0683579875622 826.154560910305,116.57537018030416 826.0995106704067,116.04125372588169 825.8809990831651,113.95807430602144 826.2597097815014,111.73543205682654 826.665858218912,110.55422043474391 826.7305786598008,110.36370731086936 827.428056462435,109.0340225630207 828.2645870933775,107.57572911691386 828.3682213549037,107.39407039619982 828.4377768961713,107.08380639995448 828.5542853404768,106.55414724827278 828.6869884587359,105.96249838871881 828.6659004304092,105.08491650619544 828.6416666740552,104.13417442736682 828.4879337814637,102.61611065396573 827.8066506525502,98.72902255447116 827.6092270934023,97.6276407308178 827.6998706632294,96.23585116607137 827.8519724376965,95.63310014095623 828.5493919861037,94.51168606348801 829.7307293580379,93.38803551124875 829.9459204552695,93.18419206736144 831.5835048961453,92.20685930585023 833.994588899659,91.27164975041524 835.1709746632259,91.00573460955638 835.9025894401129,90.84170167532284 836.8458418066148,90.62892151717097 840.502808860736,90.04610924923327 846.0548440178391,89.9219673537882 847.4496831146535,90.06374122540001 848.6794879999943,90.19011699955445 850.1520382296294,90.15022566029802 854.2006484197918,90.0659751406638 855.4450751147233,90.05719904426951 856.8253506561741,90.04610924923327 862.3320057743695,89.95962479594164 864.9712715663482,90.45834628073499 866.2830983963795,90.84170167532284 866.3968688924797,90.87489122292027 867.5506520178169,91.78800180961844 868.278771541547,92.78528097213712 868.4859235559124,93.2063715144759 868.9762493439484,94.19917998870369 869.1882364589255,95.61084102210589 869.0668346597813,96.85854684386868 868.9746182255913,99.47593433444854 869.3095800036099,100.76344097941183 869.7643124624155,102.05325787211768 869.940647993004,102.31246542080771 870.5523173264228,103.21669898787513 872.0637231217697,105.20235300948843 873.6171302117873,107.2433662066469 876.0153400322888,110.06445476191584 876.196510663256,110.27722645434551 876.4506155806594,110.51879840204492 879.3066453330684,113.2489998730598 880.534819100285,114.49666064570192 881.6125804660842,115.16145614814013 884.0398008890916,116.46902560663875 886.5738595558796,117.71659837721381 887.3991471219342,118.32378972740844 888.5448329104111,119.16816020419355 890.4995533369947,119.98580365662929 891.2746840179898,120.31161612144206 892.3215706455521,120.62179193890188 893.6712044661399,120.93436088890303 895.9625177886337,121.05833534838166 901.7118599964306,121.34872585034464 902.6228977779392,121.12048212136142 905.3673124411143,120.81022684276104 905.9207275521476,120.91880424611736 907.9078955803998,121.3088370555779 908.9386457887013,121.51266876375303 909.9014715736266,121.70102354651317 910.7736537887249,121.75200138508808 911.3642933475785,121.78750238067005 911.6506711039692,121.80521298851818 901.2782155664172,141.10436821100302 900.5710093087982,142.4272646442987 899.8719586420339,143.73691502318252 892.615812721895,157.32262542808894 891.3587448603939,159.67588528210763 891.3134813299403,159.75789020082448 881.4070595698431,178.07838530291338 872.0637231217697,195.72281993122306 870.0457968639676,199.53335982677527 867.6331399965566,204.2815770303132 865.7851413052995,207.8421513090143 861.2203404516913,216.25712438602932 861.123230663361,216.44767598470207 859.1264506883454,220.34706801758148 857.3014041604474,223.79458386590704 856.3819777707104,225.5315330446465 855.2136310900096,227.7404972393997 851.9125973335467,233.83764920732938 850.8445644234307,235.80721945432015 849.5112417850178,238.27096566557884 844.368675555801,248.07446285430342 839.787621774245,256.4843565786723 835.6920586812776,264.2316671338631 834.692008448299,266.1257474042941 829.444293347653,276.04839408013504 823.5184991005808,287.1261067548767 823.2240240070969,287.67662431660574 821.8367579593323,290.2574213234475 814.5943017813843,303.7305219179252 809.1087346919812,314.0134957670234 802.3673813336063,326.6552481809631 801.6974577778019,327.92676579765975 790.8702115272172,348.50025053694844 786.428035811754,356.71122143638786 780.8068528925069,367.1016034402419 779.1547048960347,370.15593792230356 778.4928204233292,371.37854347610846 778.0689044483006,372.1914592569228 778.0867302401457,372.1981571352808 778.6336791324429,372.38418269203976 779.2825729139149,372.6056909568142 774.9733333333861,380.54627334943507 773.3664488678332,383.5073138527805 771.3340755628888,387.9901432262268 770.788757788483,390.191755376989 770.3939106704202,393.0576954386197 769.8194657850545,399.8659898516489 768.3615373654757,416.7689095637761 767.8602015289944,423.1560677966336 766.9665817599744,434.53930751106236 766.8469275878742,439.77029312658124 766.8193150865845,441.06798538321164 766.8161693583243,441.1831088650506 767.2724164268002,444.9169536824338 768.5750973441172,451.68466407526284 768.8177844339516,453.1794010841986 769.0314026668202,454.6742929695174 770.7612035414204,460.5693092448637 773.1884822186548,466.5063472716138 774.3697613372933,469.3719197118189 774.9733333333861,470.6423486797139 780.1061711076181,481.4538557974156 783.0706702223979,487.6785810525762 783.9815332409926,489.59180479694624 787.5384195414372,497.06311097275466 792.1437653338071,506.59788249246776 795.3509515379556,513.2430164517136 796.397954673972,515.4107444866095 797.7993182437494,518.4154480377911 802.2848933548667,528.0296738706529 803.9531777705997,531.9332768261665 804.8027573477011,534.4662339180941 805.3189480106812,536.4168976618676 805.6522786703426,538.4517269000644 805.6636382439174,539.4503269327106 805.6895031183958,541.6180185006233 805.7153679928742,543.8277069242904 805.7250964483246,544.7421237999806 805.744495104067,546.3783773445757 808.5666208995972,550.3216876309598 813.0247000178788,555.5115016358905 813.3743418594822,556.0185160358669 814.0554502259474,557.0060009916779 815.451920441119,559.7447887295857 816.1186400142033,561.4053023438901 817.1509630866349,564.4761975121219 817.7594284375664,566.8430404586252 818.092817351222,569.5419208739186 818.2529582083225,570.5736144103575 818.3662044161465,571.3020314578898 818.8516951038036,574.4392576417886 819.1559569067322,578.7144640638726 819.7934911148623,587.1805999155622 819.9148346597794,593.9065710668219 820.3388088890351,600.4219635571353 820.308050659718,603.2889032211388 820.1268800285179,605.0710485877935 819.5199875414837,607.6436354209436 818.8225679928437,609.7201691231458 818.1866066490766,611.6285320834722 816.7286782294977,615.9874139650492 816.1218439964578,617.3976485473104 814.8207941977307,616.7113800535444 813.3774293335155,615.9520285411272 812.4211280213203,615.4473077872535 811.6185013477225,614.017222974333 811.2090324198361,613.2888695446309 808.6895955628715,612.841607878916 806.6895533513743,612.4852009275928 805.1409231077414,612.2107227676315 800.1763817814644,612.4985104049556 796.0225062118843,612.7398342748638 795.826772024855,612.7509122170741 795.3412813371979,612.7907609281829 792.124308423372,621.964644812746 791.9380696748849,622.4362850653706 790.6987110970076,625.5731832579477 789.5174902330618,629.0176832603756 789.031999544939,630.4278802726185 787.909032903146,632.5464754765853 783.2131017956417,629.2812338107033 782.2955395414028,628.6436755378963 781.6596364518628,628.1455028642667 780.6580133547541,630.4699589906959 778.8375106560998,634.2465888927691 775.7144435485825,638.0651880051009 774.9733333333861,638.6954819158418 772.8324906667694,640.5158305616351 772.5428506738972,640.7194458832964 771.3453768817708,641.5540685821325 768.7061110900249,642.9640700654127 762.3046711185016,646.2846063051838 760.7577302469872,647.322832080652 758.1782915415242,649.3970456592506 756.3449146596249,651.068331990391 755.7607995735016,651.5996328141773 754.8740538028069,652.4075404757168 753.9694822402671,653.2355288923718 753.5017590899952,653.6605199001497 752.6263728924096,654.4596581885125 750.7153431326151,656.6599912188249 749.3932635593228,658.4286339030368 748.1375355450436,660.1043519990053 746.4676200104877,663.466847761767 745.5501160104759,665.7445977864554 744.6795649137348,667.9071874237852 743.5872399930377,672.265727174934 742.8590622153133,675.6236768577946 742.3121133227833,678.8200786543312 741.9205284409691,680.232203938649 741.776524003828,683.4949539798545 741.7069102083333,685.086438178434 741.6761519787833,687.8268196748104 741.6481899521314,688.8449563382892 741.3121213442646,701.0233066458022 741.1308924590703,703.0153786983574 740.4932999964803,706.7096150080906 740.0676946488675,708.4935350159649 739.2489315557759,710.5674892271636 738.0401564445347,709.9234233215684 737.609715996543,709.6954542262247 737.1355848815292,709.4431024333462 735.6307035591453,708.6440539651085 726.4281675664242,703.7544353668345 712.3597728994209,696.282142531476 704.7235764339566,692.2248648141976 702.6895720108878,691.1380470178556 702.0859417601023,690.8149256367469 701.628005319275,690.569257622934 700.3739084231202,689.8986303301062 698.4068963555619,688.8449563382892 697.1052640143316,688.1476321605733 693.5468631042168,686.2441097917035 693.0404008962214,685.9718245272525 692.478888448095,685.670852315845 690.7765835663304,684.761001914856 688.2748559929896,683.4218820044771 688.019178211689,683.2825113252038 684.8038946702145,681.5625670972513 683.3232471041847,680.7723979569273 682.166259996593,680.1525175011484 677.8829435447697,677.8981031154981 676.5690195627976,677.2063414170407 675.400672881864,676.588847052888 669.9247759929858,673.6978729426628 668.4571191186551,672.8545394496759 664.541153792059,670.6078211652348 663.0734969172627,669.7666339243297 658.5652026594616,667.1767626466462 657.877511566272,666.7827822574181 657.3046395448036,666.4529509394197 656.5344022188801,666.012431740528 652.9048146491405,663.9272118363297 650.5018862367142,662.7917207123246 649.6878999895416,662.408654230414 649.1814377815463,662.1675142437452 648.0600440038834,661.6383765139617 647.3917515662033,661.3240811818978 645.517888000235,660.4386502187699 642.3753639825154,658.7230883023003 639.8591311078053,657.3483552981634 636.3282844445202,655.398173835245 633.6162591292523,653.9018234618707 631.4689502438996,652.7175382282585 630.8621160106268,652.3832347311545 630.3879266420845,652.1198560106568 629.7569169069175,651.7722436970798 629.3377777778078,651.5403426353587 629.093401315622,651.4048677374376 627.1175928607117,650.3157278854633 624.1127235698514,648.7506678437348 622.7113600003067,648.0224458272569 622.1773435450159,647.7455968572758 621.6109959967434,647.451295233448 620.695123114856,646.9775274215499 620.0720942080952,646.6521454943577 619.3536448855884,646.2779918725137 617.8520257994533,645.4988429313526 617.2629591042642,645.1911516762339 616.3600186596159,644.7217647471698 615.466748416191,644.2569198282436 613.4036168821622,643.1367636882933 610.6753968929406,641.5606830790639 609.3759782116394,640.9186780137243 607.4115293298382,639.9512857210357 606.786869305186,639.6414392638253 602.5133395625744,637.5339521726128 601.5909422079567,636.9827923941193 600.4177604268771,636.2831628569402 599.1782853405457,635.5438448521309 597.5067386878654,634.5476724412292 593.5356648678426,632.5464754765853 590.3463044550736,630.9370484573301 585.1891746704932,628.1145015406655 584.2505826421548,627.5987157318741 583.8460653226357,627.3774026492611 583.0111075558234,626.9169244779041 580.7926120110787,625.6975876620272 577.5255404659547,623.9018098087981 574.8535940551665,622.4362850653706 574.6920550968498,622.3477429708 569.6256271363236,619.6912335919915 568.7274635378271,619.1885888024699 568.4313573262189,619.0203497228213 557.33882134757,612.7995276444126 556.2222044162918,612.1752573727863 555.8630088819191,611.9738616995746 553.8500342329498,610.849168548244 547.0553200072609,607.2251396896318 546.7948071255814,607.0857472976204 543.5050746882334,605.3301489184378 542.4111186491791,604.7479500436457 536.0290773333982,601.351815978298 535.4044755627401,601.0197089526337 534.0694635522086,600.3091091444949 532.2473879894242,599.274529449176 529.671328028664,597.8118798037758 529.4544475593138,597.6900984023232 526.2423680000938,595.8679963529576 523.0335506773554,594.1722127496032 518.7777302186005,591.9250533081358 512.3762319930829,588.7193164422642 511.98470536549576,588.522294685361 511.71766801085323,588.3894324769499 510.4053168927785,587.7319752228213 504.8840982185211,584.824933970347 500.2706550897565,582.8744633112801 495.24308269517496,580.264285906218 494.3546475521289,579.8036836715182 488.62150001805276,576.9809213423869 486.239484871272,575.4598620601464 484.5258786706254,574.3662490751594 484.0469124552328,574.1160591566004 483.70222222222947,573.9364866385004 481.33972224011086,572.7057794692228 476.6518884692341,570.201634304598 475.84599955938756,569.7699553010752 475.36050887126476,569.5109158349223 471.4154164341744,567.4009744905634 471.2067498099059,567.2901847835165 468.6888275630772,565.9441276893485 463.9249720321968,563.209838178358 458.919944021618,560.3382000167621 456.9780977780465,559.093828870682 456.374467527261,558.7064567300258 455.8113822150044,558.3455467722379 454.04272577445954,557.2141146463109 452.89546712185256,556.4812927512685 452.69961642706767,556.3551171934232 452.31240061158314,556.0185160358669 451.5199684270192,555.3300093229627 445.9162617744878,550.4567919943947 445.429198222002,550.0317112964112 443.96148309344426,548.7563872770406 441.6879955630284,546.9761887999484 440.3853146454785,545.9576770586427 438.75099244131707,544.6757266069762 438.1862760107033,544.235097708297 435.1570564552676,541.8652758143144 433.8900271218736,540.8740139541915 433.1909764551092,540.2872746227076 432.75243867048994,539.917503339122 432.2734724553302,539.5167248349171 431.532362239901,538.892361010192 430.53231200715527,538.0509471948026 429.78304620087147,537.4221974649699 429.12285110075027,536.8686132667353 428.9028249033727,536.6848024496576 427.5160831431858,535.5180086710025 426.71176709700376,534.8427049745806 425.62118980288506,533.926037699799 423.7440639999695,532.3495253882138 421.2391324448399,530.2438077962724 419.60154800349846,528.8754093289608 418.2762061941903,527.9920501670567 417.1128111218568,527.2147852499038 414.7178635378368,526.39559084957 414.05440620100126,526.169688406284 413.53506980999373,525.9903374152491 412.43627867032774,525.6160914690699 410.5608422399964,524.9740138908383 410.8035293298308,522.3169755158015 410.14496534783393,521.5973335612798 408.0073266632389,519.2635915041901 407.34550044476055,518.5417130980641 407.0396657779347,518.2073178702267 405.2872040106449,516.6905396955553 404.1447804586496,515.7030530367047 399.69806091394275,511.85679421480745 398.9342315522954,512.667244461365 398.7108848642092,512.9019216495799 396.3937066667713,515.3597279778915 395.11694887815975,516.7148521847557 394.1800462224055,515.9354967982508 386.6118324340787,509.6342070355313 385.57945110765286,508.7745679967338 385.0487551430706,508.3316747418139 384.0454426740762,507.49690436257515 380.74435066315345,504.58954552328214 380.3042400141712,504.19973874965217 380.01780400355347,503.9473606192041 379.52747821528465,503.5178551506251 378.9562955664005,503.01293862529565 378.42391022946686,502.5457269590115 377.39962624013424,501.6445436659269 376.41250844462775,500.8694689043332 375.9205515377689,500.48197092092596 374.75063199270517,499.5630071843043 374.1664586525876,499.10464069177397 373.4723013408948,498.55770925886463 372.6971706596669,497.9487580631394 371.7085382542573,496.8725890215719 370.9074844447896,495.9979408531217 367.758494208334,493.4758651253069 365.17270579212345,491.72416355635505 362.5746839893982,489.59180479694624 361.53344802139327,488.73699329665396 356.58824709733017,484.3768972856924 355.21123379212804,483.2431415929459 350.7920102402568,479.6004692782881 348.90352486423217,477.73583529377356 347.8501137634739,476.69517670664936 342.1752204517834,471.754609082127 341.0101360073313,470.7625673143193 340.4388951039873,470.2754743883852 339.9518315522,469.86132543860003 338.95987865608186,469.0154081782093 338.06666666665114,468.26914068521 336.0763529103715,466.6060785629088 335.44039156637155,466.07904110930394 335.2106369137764,465.89081900415476 333.09239688515663,464.14125080930535 332.8027568922844,463.9043180086883 329.7378857531585,461.3754597917432 329.229850681033,460.9613033030182 328.6780666881241,460.513902290375 328.15535155218095,460.08659089077264 328.0728635736741,460.01794997625984 325.00478845182806,457.5155396043556 323.88182181003504,456.26875423814636 320.96911069890484,454.06967189651914 320.6340906666592,453.80841859895736 319.6340986881405,453.0311154683586 318.78451911127195,452.28259131649975 318.7651204552967,452.2648129571462 316.57738313940354,450.2075414834544 315.9656555519905,449.4323851771187 314.38469421537593,448.00404704303946 311.47367247682996,445.8670330164023 310.16772932279855,444.87047413073014 309.82630132650957,444.58035552629735 309.5334573513828,444.33233148767613 308.4427635485772,443.40664503118023 308.25023334426805,443.2427303401055 307.87158089946024,442.9194451251533 307.08835288183764,442.2550953296013 305.45723465946503,440.72030273708515 305.0186968748458,440.30612875078805 304.57048888877034,439.8854169136612 303.7371039860882,439.10147441073786 301.91671779565513,437.64639789424837 300.13507066317834,436.13606678217184 297.12204578123055,433.57820388756227 296.4828804554418,432.7388411683496 296.27572844107635,432.464182366617 295.48440308636054,431.4211153294891 294.62358044460416,430.82093021518085 292.5716919754632,429.3858406097861 292.07006486761384,429.00275069999043 289.79657733719796,427.2598273436306 289.52150089945644,427.0494259929983 288.2333835377358,426.063910920755"/></g></g></svg>