<svg width="1200" height="800" version="1.1" xmlns:xlink="http://www.w3.org/1999/xlink" xmlns="http://www.w3.org/2000/svg"><g class="geojson-features"><g class="geojson-feature" stroke="#555555" stroke-opacity="0.0" stroke-width="0.0" fill="#111" fill-opacity="1.0" data-properties="{&amp;quot;N03_002&amp;quot;:&amp;quot;石狩振興局&amp;quot;,&amp;quot;fill-opacity&amp;quot;:1,&amp;quot;description&amp;quot;:&amp;quot;札幌市厚別区&amp;quot;,&amp;quot;N03_001&amp;quot;:&amp;quot;北海道&amp;quot;,&amp;quot;stroke-opacity&amp;quot;:0,&amp;quot;N03_007&amp;quot;:&amp;quot;01108&amp;quot;,&amp;quot;fill&amp;quot;:&amp;quot;#111&amp;quot;,&amp;quot;N03_004&amp;quot;:&amp;quot;厚別区&amp;quot;,&amp;quot;title&amp;quot;:&amp;quot;札幌市厚別区&amp;quot;,&amp;quot;stroke-width&amp;quot;:0,&amp;quot;N03_003&amp;quot;:&amp;quot;札幌市&amp;quot;}"><title>
      札幌市厚別区
    </title><desc>
      札幌市厚別区
    </desc><polygon points="441.35309641971253,645.1920039721299 439.5456426667515,644.1893149036914 435.8448684376199,642.0313432123512 428.01614176714793,637.963178541977 424.8607435664162,636.0552983742673 420.2489315557759,633.5674892271636 421.0676946488675,631.4935350159649 421.49329999648035,629.7096150080906 422.1308924590703,626.0153786983574 422.3121213442646,624.0233066458022 422.64818995213136,611.8449563382892 422.6761519787833,610.8268196748104 422.7069102083333,608.086438178434 422.77652400382794,606.4949539798545 422.92052844096906,603.232203938649 423.31211332278326,601.8200786543312 423.8590622153133,598.6236768577946 424.58723999303766,595.265727174934 425.6795649137348,590.9071874237852 426.5501160104759,588.7445977864554 427.46762001048774,586.466847761767 429.13753554504365,583.1043519990053 430.3932635593228,581.4286339030368 431.7153431326151,579.6599912188249 433.62637289240956,577.4596581885125 434.5017590899952,576.6605199001497 434.9694822402671,576.2355288923718 435.8740538028069,575.4075404757168 436.7607995735016,574.5996328141773 437.3449146596249,574.068331990391 439.17829154152423,572.3970456592506 441.7577302469872,570.322832080652 443.3046711185016,569.2846063051838 449.70611109002493,565.9640700654127 452.3453768817708,564.5540685821325 453.5428506738972,563.7194458832964 453.83249066676944,563.5158305616351 455.9733333333861,561.6954819158418 456.7144435485825,561.0651880051009 459.83751065609977,557.2465888927691 461.6580133547541,553.4699589906959 462.65963645186275,551.1455028642667 463.29553954140283,551.6436755378963 464.2131017956417,552.2812338107033 468.909032903146,555.5464754765853 470.031999544939,553.4278802726185 470.51749023306184,552.0176832603756 471.6987110970076,548.5731832579477 472.9380696748849,545.4362850653706 473.124308423372,544.964644812746 476.34128133719787,535.7907609281829 476.826772024855,535.7509122170741 477.0225062118843,535.7398342748638 481.17638178146444,535.4985104049556 486.1409231077414,535.2107227676315 487.68955335137434,535.4852009275928 489.68959556287155,535.841607878916 492.20903241983615,536.2888695446309 492.6185013477225,537.017222974333 493.4211280213203,538.4473077872535 494.37742933351547,538.9520285411272 495.8207941977307,539.7113800535444 497.12184399645776,540.3976485473104 497.72867822949775,538.9874139650492 499.18660664907657,534.6285320834722 499.8225679928437,532.7201691231458 500.5199875414837,530.6436354209436 501.1268800285179,528.0710485877935 501.308050659718,526.2889032211388 501.33880888903514,523.4219635571353 500.91483465977944,516.9065710668219 500.79349111486226,510.1805999155622 500.1559569067322,501.7144640638726 499.85169510380365,497.4392576417886 499.3662044161465,494.3020314578898 499.2529582083225,493.57361441035755 499.09281735122204,492.54192087391857 498.7594284375664,489.8430404586252 498.1509630866349,487.47619751212187 497.11864001420327,484.40530234389007 496.451920441119,482.7447887295857 495.0554502259474,480.00600099167787 494.37434185948223,479.0185160358669 494.0247000178788,478.51150163589045 489.5666208995972,473.3216876309598 486.744495104067,469.3783773445757 486.7250964483246,467.7421237999806 486.71536799287423,466.8277069242904 486.6895031183958,464.6180185006233 486.6636382439174,462.4503269327106 486.65227867034264,461.4517269000644 486.3189480106812,459.41689766186755 485.8027573477011,457.4662339180941 484.9531777705997,454.93327682616655 483.28489335486665,451.0296738706529 478.79931824374944,441.41544803779107 477.397954673972,438.4107444866095 476.35095153795555,436.24301645171363 473.1437653338071,429.59788249246776 468.5384195414372,420.06311097275466 464.9815332409926,412.59180479694624 464.0706702223979,410.6785810525762 461.10617110761814,404.4538557974156 455.9733333333861,393.6423486797139 455.3697613372933,392.3719197118189 454.1884822186548,389.5063472716138 451.7612035414204,383.5693092448637 450.0314026668202,377.6742929695174 449.8177844339516,376.1794010841986 449.57509734411724,374.68466407526284 448.2724164268002,367.9169536824338 447.81616935832426,364.1831088650506 447.81931508658454,364.06798538321164 447.84692758787423,362.77029312658124 447.96658175997436,357.53930751106236 448.86020152899437,346.1560677966336 449.36153736547567,339.7689095637761 450.8194657850545,322.8659898516489 451.39391067042015,316.0576954386197 451.78875778848305,313.191755376989 452.33407556288876,310.9901432262268 454.36644886783324,306.5073138527805 455.9733333333861,303.54627334943507 460.2825729139149,295.6056909568142 459.6336791324429,295.38418269203976 459.0867302401457,295.1981571352808 459.0689044483006,295.1914592569228 459.49282042332925,294.37854347610846 460.1547048960347,293.15593792230356 461.80685289250687,290.1016034402419 467.42803581175394,279.71122143638786 471.8702115272172,271.50025053694844 482.6974577778019,250.92676579765975 483.3673813336063,249.6552481809631 490.1087346919812,237.01349576702341 495.5943017813843,226.73052191792522 502.8367579593323,213.2574213234475 504.2240240070969,210.67662431660574 504.5184991005808,210.12610675487667 510.444293347653,199.04839408013504 515.692008448299,189.1257474042941 516.6920586812776,187.23166713386308 520.787621774245,179.4843565786723 525.368675555801,171.07446285430342 530.5112417850178,161.27096566557884 531.8445644234307,158.80721945432015 532.9125973335467,156.83764920732938 536.2136310900096,150.7404972393997 537.3819777707104,148.5315330446465 538.3014041604474,146.79458386590704 540.1264506883454,143.34706801758148 542.123230663361,139.44767598470207 542.2203404516913,139.25712438602932 546.7851413052995,130.8421513090143 548.6331399965566,127.2815770303132 551.0457968639676,122.53335982677527 553.0637231217697,118.72281993122306 562.4070595698431,101.07838530291338 572.3134813299403,82.75789020082448 572.3587448603939,82.67588528210763 573.615812721895,80.32262542808894 580.8719586420339,66.73691502318252 581.5710093087982,65.4272646442987 582.2782155664172,64.10436821100302 592.6506711039692,44.80521298851818 593.2477768820245,44.84071398025844 595.1798946706112,44.95144514669664 595.8709062542766,45.57410804636311 596.8191102293786,46.42732645187061 597.2430844586343,47.77691628120374 597.1977626741864,48.80731527437456 596.8789373156615,49.831170405843295 595.3466182544362,52.304241582751274 592.980797781609,55.19165600463748 592.2979417887982,56.93124435422942 592.571387107484,58.763844439876266 593.2526119821705,59.716758666560054 594.048772437498,60.299515257938765 595.027734641917,60.69615630782209 595.9517048604321,60.49017742800061 596.1945084584877,59.69896882388275 596.4356226846576,58.267482688999735 596.5165377994999,56.91568812530022 596.6330462435726,55.14953437191434 596.7997115736362,54.23657900013495 597.2851440072991,53.6538151766872 597.8094320073724,53.6116934112506 598.1961235345807,53.715801177197136 598.4696853619535,54.14132648019586 598.6751480037346,55.38886178249959 598.9728853332344,56.00273605401162 599.6104195415974,56.709627875941806 600.2787702330388,57.248112665023655 600.4745626740623,60.40593507245649 600.6428008675575,61.82185886870138 600.8839150932617,63.856110337073915 601.3241422509309,65.9657398245763 601.3694057816174,66.18073086056393 601.6088888891973,67.06797672447283 601.8855964445975,68.0930699664168 602.1121471147053,69.06798349681776 602.2043635484297,69.8990636364324 602.5231306527276,71.74485741613898 602.5992106667254,74.01615221460816 602.7027866742574,77.0873931403039 602.2723462258,77.64149081113283 602.201159566408,77.70124014804605 601.937384448247,77.92500095127616 601.6088888891973,78.20292688254267 601.1881768961903,78.55886967887636 600.8669048608281,80.32262542808894 600.2917026705109,83.48245251725893 598.6233600000851,92.8931294977665 598.9566906597465,93.47377250913996 599.4211515735369,93.65764132281765 601.6088888891973,94.52114577987231 602.9406386634801,95.04690557497088 604.1607150933705,95.52998826885596 604.30314666708,97.76128806592897 604.5248622365762,101.24230918078683 605.2837399893906,109.09503607731313 605.1931546742562,109.84388824005146 604.6462057817262,110.71693610143848 603.1607231148519,112.3787937493762 601.6088888891973,114.62461380183231 599.7188306490425,117.3597063702764 597.489033785183,120.43290827597957 594.4533480107784,124.38126794435084 592.3901582222898,127.27934363717213 589.3949008784257,132.02528135001194 588.4256088747643,133.18846775614657 587.211998663377,134.85016921395436 585.3300377600826,140.16768757032696 582.6600719930138,146.7302966080606 582.6327507628594,146.79458386590704 580.9609710932709,150.71832389885094 579.8687044270337,150.46803626324981 576.988382663345,157.81916520162486 576.7763955483679,158.36200507171452 581.8720671290066,160.35597532102838 582.1147542186081,161.43494910968002 577.5660897851922,172.3173927696189 577.5660897851922,175.05790488014463 580.9027168711182,184.61300871672574 581.3283222184982,185.44373284338508 581.6276906670537,186.1682226624107 582.1212204373442,187.35783835826442 582.6018177708611,188.5142734737601 585.211956451647,192.5861793643562 585.5145288819913,193.83120790310204 584.0581733263098,195.3266575646121 583.2394102329854,196.53172299882863 582.9352066845167,197.48652190656867 582.8752630897798,198.3173836544156 583.1180666880682,199.14808448543772 585.7572742258199,204.13257882429752 587.0324008963071,206.9571296336362 589.932936874684,213.2574213234475 590.3399008712731,214.1412899256684 592.3124470897019,218.25285689893644 594.1927768748719,222.44637076254003 594.3627044409513,222.84064725786448 594.5876239929348,223.36124486138579 593.5633400036022,226.16790075798053 592.0988871110603,230.1707508082036 590.1037382544018,235.12829344545025 587.6424391111359,241.24887451389804 586.85117201088,243.21371861430816 582.270059975097,254.59273711277638 581.4804239929654,256.8321622082731 581.5354159786366,256.93845948728267 581.8526102185715,257.5610118051991 582.391520028701,258.61975561233703 584.1229520216584,260.3408373785205 584.9400839966256,261.15157698839903 589.4304942081217,265.63928786234464 594.3400435484946,270.6408065572614 595.1345728854649,271.451449342072 601.6088888891973,278.28548297670204 602.9595130311791,279.71122143638786 607.3307351039257,284.3250675832387 615.581804885529,292.90349058504216 619.1935666634236,296.6577342392411 624.0173657885753,301.4751449844334 625.2795017673634,302.82626321341377 628.9010502544697,306.70665081229527 631.8460924585816,309.86054936796427 632.9059697780758,310.69114037649706 641.3415306811221,319.57694861793425 643.1020897852723,321.3643125749659 643.5891533368267,321.8980408132775 643.8706959930714,322.2058870868059 644.6360982186161,323.04084238549694 649.623300437117,328.49369051656686 649.7009533154778,328.5778866712935 650.154054656392,329.07285771123134 650.927554218797,329.91776765394025 650.7770253086928,331.16244642378297 650.154054656392,332.9804642579984 648.9275120072998,336.5597119582817 649.7462751006242,336.68377166450955 650.154054656392,336.75489071023185 653.0975239966065,337.2685102407122 653.2771217639092,337.2994453954743 661.4263049105648,338.7191117563052 665.9457839787938,340.5040935775032 669.5575457566883,342.20726695738267 673.2275617567357,344.3666418095818 674.89596268069,345.1970944632776 675.3813951148186,345.50269366882276 676.4106889672112,346.1560677966336 676.9898524445016,346.523615275044 680.8119702187832,349.80354570946656 682.358969344059,350.9241975166369 683.8153248997405,351.87869488145225 687.3056848784909,354.49637759826146 689.3381746914238,355.6591143911937 690.8543573333882,356.32355695357546 693.3123942401726,357.1539892961737 695.163596913917,357.3600026315544 698.699278677348,357.4346266356297 699.0455417742487,357.44196147320326 700.6232408748474,357.3600026315544 701.306096867891,357.27804377651773 703.7171808714047,356.98568654211704 706.0538742330391,356.1530215657549 707.631573333405,355.03238174458966 709.0281018025707,354.3680171543965 710.0588520106394,353.703571934253 711.2417622474022,352.54083049017936 711.8485382259823,351.6284305086592 713.4279266986996,350.50570739782415 714.6399057919625,349.9253696788801 715.8826431150082,349.5510478966171 716.9457244162913,349.34295834763907 718.6739524265286,349.1370213619666 719.1290344106965,349.0493207221152 720.6157404161058,348.762698976323 722.0720959717873,348.84465925896075 723.2258790971246,348.970868500066 725.6903822224122,349.5091110827634 732.0967738025356,350.38165119907353 732.1581737531815,365.99247332056984 732.1924854901154,369.72518817684613 732.4155409068335,394.37155236990657 732.4640666737687,399.7061780116055 732.6452955591958,412.4920781943947 732.6709856712259,412.59180479694624 733.0093844481744,413.90490969468374 733.5562750862446,414.31904082000256 737.2363690668717,412.59180479694624 747.2444444445428,407.89458797848783 754.4291124336887,404.52249370270874 755.0916377031244,412.59180479694624 756.1880986737087,425.944303737022 756.7172217743937,430.72719973279163 758.3127466666047,445.12207923375536 759.2804075519089,453.88819006702397 760.3758782010991,463.803152523702 761.2675173263997,474.6080868956633 761.8342144000344,479.0185160358669 762.4391262438148,483.7256505705882 764.1009444410447,502.1085951034911 764.3226600107737,504.5638370256638 766.1430462009739,525.1510397377424 767.6641804517712,540.3888022173196 767.6949386808556,542.2240536889294 767.7110751008149,543.271183185163 767.7208618097939,543.8268247776432 767.9004595770966,545.4362850653706 770.0283115520142,564.4964507333934 770.8163746702485,572.0384339820594 771.0008075376973,573.5327272607246 772.4555902297143,585.328964889166 773.6546368855052,595.3233413995476 774.5187800179701,605.166906974162 775.2662981974427,611.8449563382892 776.674186240416,624.4217217052355 777.6159239965491,633.3040621512337 778.6838986526709,643.4588900016388 778.8279613442719,644.837907717796 775.0057853155304,642.9299746811157 773.3067426702473,642.4319746475667 769.7257391219027,642.5138857279671 766.1479978098068,642.2659214036539 764.2660369065125,642.9299746811157 762.6283942116424,643.1800103468122 757.6525515662506,642.3500635535456 755.8935653262306,642.434205688769 754.3158662260976,642.434205688769 752.1912182332017,641.686089169234 748.5519604624715,640.1102519603446 747.2444444445428,638.9826929800911 746.9143177671358,638.6980737663107 744.0614919967484,635.04605671647 743.3333142187912,633.9703586735995 742.954661774449,632.1752922574524 742.1811622118112,631.0642091407208 738.9044204659294,628.9902443167521 736.1728799859993,628.1601140847197 732.5109613228124,627.62010636169 731.5869911042973,627.8260057911975 730.4688013084233,628.0761288594222 729.0124457532074,628.492150409962 727.9202373404987,628.7401217160514 726.5626226915047,628.717890360509 725.7001106773969,628.2840998376487 722.7501751184464,626.7901331702014 721.6287813405506,626.4160232497379 720.8698453335091,626.3341094743228 719.049400888849,626.4602471211692 712.2984355841763,627.0224875581916 710.6138982402626,627.1640834393911 707.6930897922721,627.5891098846914 706.6104933263268,627.7463233598974 700.1491097602993,628.4103166642599 698.699278677348,628.4731063361978 692.5033013476059,628.7423528196523 690.1374808750115,628.8264176134253 688.8025271184742,628.6183671829058 686.2846048714127,628.2863309434615 680.9139151077252,627.2903005548287 675.0286075449549,625.9224686383968 673.0269924693275,625.4243716081837 672.1158964340575,625.2583922742633 670.9006551040802,626.0043824828463 670.078163740458,626.6506089287577 669.5721675660461,627.0467907369602 669.5090782437474,627.0955564564792 668.8375235698186,627.6223374705296 668.1789013333619,628.1380420676433 667.7775879965629,628.4523092502495 666.1691306668799,629.9065891643986 665.196576426737,630.9910611532396 665.0169786596671,631.1924969789106 664.0460555378813,632.1885194219649 663.3486942437012,633.5962542442139 663.2353315274231,634.6210367502645 663.1739315767772,635.1700407243334 663.1367071291897,635.5063750750851 663.1059488996398,637.3744966312079 662.4699875556398,638.2863636537222 661.5282497992739,638.6183931059204 659.5864035557024,639.7803748936858 659.0427168996539,640.3204488741467 658.8598568963353,640.8605222580954 659.1025439859368,641.2323104053503 660.0718942438252,641.7723827828886 661.4375479752198,642.1043301890604 662.165784007404,642.4363570502028 663.8648266529199,642.4385880912887 664.2289155414328,642.5625702254474 664.3502590861171,644.5966376655269 664.4717191399541,646.4646448303247 664.5623044550885,647.5425464183791 665.5930546631571,649.3684718682198 666.3827488995157,650.9466696148738 666.1998888964299,651.7345315617276 665.8050417779014,652.7725823593792 665.5331693226472,653.766329877777 665.3487364551984,654.2200173373567 665.0784951185342,654.8862853731262 663.6528977921698,656.920301574748 663.4716106527485,657.5001157536171 663.5315542472526,657.9162716385908 663.8955848820042,658.2880468243966 664.5024191148113,658.5802239953773 665.2613551220857,658.4960846370086 666.0801182151772,657.9162716385908 667.3827408785,656.5882845438318 667.71776091028,656.3801662418991 668.2031933441758,656.5882845438318 668.960498233093,657.9162716385908 669.5980906949844,659.2441754512256 670.2954519893974,660.1980712494114 670.9023444766644,661.4020712173078 671.0851462259889,662.1058572661132 670.9945026563946,662.6879759250442 670.4783119931817,662.7698836136842 669.2662746456917,663.1438860581256 667.7193337741774,667.251679345849 667.4167613440659,668.1634906817926 667.7500920037273,669.1594378568698 668.2970408962574,670.5294594787993 668.9637022151146,671.4412647053832 669.903867107816,672.72937392944 671.9978151256219,671.7334340215893 673.0285653334577,671.2354633071227 674.2098444516305,671.1114884393755 675.4542128928006,671.1513261253713 676.1516324407421,671.7732716567116 676.6695124765392,673.5947245509597 677.0012120180763,674.7610850555357 677.3361155414023,675.4670827776426 677.3749711078126,675.4870811183937 677.7600897706579,675.6751132857753 677.810246656416,675.6707311809296 678.3976822330151,675.6331247530179 681.0676480003167,675.5489883272676 682.0385711221024,676.0889431482647 681.9172275769524,677.5829186248593 681.8455166295171,678.2446134143975 681.6744239788968,679.8248692108318 681.4624951183796,681.1106458239956 680.9770626844838,682.0644989889115 680.1889995662495,682.8126334395492 679.6420506739523,683.682348259259 679.4543555697892,684.0696401528548 679.2310088821687,684.5366049350705 679.0093515662011,684.9948052291293 677.616085333284,687.8828674191609 676.5189835662022,690.1557633229531 676.1548946772236,691.1937326039188 676.7309124269523,691.7337498314446 678.187267982401,691.1095988539746 678.4607715557795,691.2756355206948 678.9155040145852,692.1453352968674 679.0368475592695,693.1412336546928 678.703458645381,694.3451525553828 678.3685551220551,695.6730371690355 679.5967288892716,695.7748571761185 679.8556689068209,695.7970058132196 682.4349911040626,695.6310503527056 683.1017106771469,695.923205223633 683.2845706806984,696.7530611405382 683.5272577707656,697.8308519390412 683.6179013405927,699.4906355647836 683.7392448857427,700.4046175967669 684.0126902044285,701.4824003516696 684.1340920038056,702.4782797045773 683.770003114827,703.6401098313509 682.9803671326954,704.3881316214101 681.6453551219311,704.8020168686053 681.069220864214,704.6780505059287 680.6291102152318,704.4324281150475 680.402617799351,704.304000140517 679.824910677271,703.5981236980297 678.5206568962894,702.0621617224533 676.8652466633357,702.5203456038143 675.515671096975,702.8921665675007 671.9961840074975,704.759951165528 670.50423512212,705.2048276604619 670.4783119931817,705.2113605859922 669.6319946527947,705.4636748475023 669.4669604408555,705.4238399553578 668.9345751041546,705.2977226653602 668.023537322646,704.5098672992317 667.5995630933903,704.3859008623986 666.0833804514259,705.2977226653602 664.9004702151287,705.2578877599444 664.0201906631701,704.4279665978393 660.9246195484884,706.6255775545724 657.465017799288,709.9892958294367 650.154054656392,716.7921882154187 646.634567566216,720.029723106767 646.3918222223874,720.7357351784594 646.5132240217645,722.0634685052792 646.4532804267947,723.0172418355942 645.8465044479817,723.5572239413159 644.8141231220216,723.8472111347364 644.3917217566632,724.3450486379443 644.9370977852959,727.1267631292576 645.0293142187875,728.288534729043 644.8156959859189,729.4083196526626 644.2089200073387,731.4796282091411 643.6037168926559,733.5973728119861 643.4516151184216,736.5848087033955 643.4516151184216,737.704574641306 643.663602232933,738.3684187331237 644.3917217566632,739.4461178680649 645.909593770979,740.7340480718995 645.4289964372292,742.8340672819177 645.1426186810713,744.082156823366 645.0162070188671,744.6353398083011 644.3626528999303,747.4943713356042 643.6943604622502,749.9018590567866 643.6651750968304,750.9397016037256 643.8157040074002,751.31148577563 644.7267417884432,752.1413274215301 645.2428741976619,752.5152615577681 644.846454215236,754.7967793678399 642.3593484514859,753.7191140407231 640.4790186667815,753.1790855569998 638.2345999930985,752.2674326385604 635.4432324268855,751.0215945204254 632.1244311325718,749.1739021713147 623.9803161032032,744.6353398083011 621.5156382150017,743.2632950905245 616.1335888784379,740.2869732839754 607.0378911290318,735.2526535439538 603.7723924482707,733.4136648251442 602.536121343961,732.716673229821 601.6088888891973,732.1956616045209 592.6458360035904,727.1511410023086 592.0892169105355,726.8367778795073 586.6667391434312,723.833906780812 585.1537022292614,722.9974047716241 583.0176946634892,721.8157038294012 574.1582177851815,716.6704555936158 571.9445573405828,715.4688223336125 564.753364878241,711.5672183731804 562.8990164764691,710.3412735399324 561.9830853405874,709.7370635706466 559.170746254269,707.8758308620891 556.7854688712396,706.6542586067226 556.7094471110031,706.6166545603191 555.5023031183518,705.9970637407387 554.2255453299731,705.3441701615229 553.0637231217697,704.9216810268117 552.2837573406287,704.6382155499887 550.5700928855222,703.88581228978 547.1865128960926,702.3986094311113 545.8175386739895,701.7147192686098 544.0035604480654,700.8096627843333 543.9453062259126,700.778670943575 541.8222310971469,699.718573537888 534.8268893298227,696.2218929654919 534.3872447146568,696.0026375377784 533.8996568745933,695.7594009322347 532.8980920321774,695.0533528198721 532.4126013438217,693.5595900322078 532.0792706848588,691.2777866671095 531.8979835452046,689.9498901242623 531.9028186453506,689.8303816489642 531.988627114566,687.916170583223 532.6860466634389,685.0987786318874 532.9287337528076,683.2308393019484 532.8673338030931,681.944988587522 532.415805326309,680.594997063512 531.8964106813073,679.0391240253812 531.4319497672841,678.2446134143975 530.6358475661837,676.8813857245259 530.2167084373068,676.1663868187461 529.7118190934416,675.303271637531 529.0937417957466,674.3029548521154 523.4009644377511,665.0959606427932 522.216481337091,664.9078447328648 520.7908840107266,664.6798905414762 517.3344279893208,659.6182602680055 514.9670346525963,656.3004884613911 514.544749795692,655.2669071145356 513.9654698101804,653.8504700495396 511.47824753797613,651.8186720828526 509.4749430899974,650.5748091714922 505.92638714332134,649.1228217083262 504.5184991005808,648.6974952555029 503.5896937814541,648.4167859683512 501.8291346775368,647.5447774362983 499.584716003621,645.5948638458503 498.0377168781124,644.3088345287833 496.4907760070637,644.5988686971832 494.5036079788115,645.6612368903589 493.6994084410835,646.0905499556102 493.30461957724765,646.3008239788469 492.7009893262293,646.754598041065 492.08768887468614,647.2149850617861 492.0294346525334,647.2592070532264 491.7576204519719,647.4628671983955 490.81745555927046,648.1689043150982 489.20899822958745,649.4548438057536 488.08760445192456,650.9487412601011 487.44197290670127,652.0310949634295 487.10374889243394,652.5999193195021 486.775253333617,653.1488234387944 486.08430000348017,654.3085397273535 481.47411911119707,664.0203286717879 480.351094215177,666.3840865730308 480.0890084693674,666.2335783122107 479.1310177850537,665.6869994845474 478.10836491384543,665.1026534562698 477.9545737670269,665.0140533429803 475.96105602849275,663.925194885931 473.6858791252598,662.6835937037831 470.55791866313666,660.9816157382447 469.57732534082606,660.4459468076238 468.4251733336132,659.815222382429 467.8895257599652,659.5252769122599 466.89605825417675,658.9808418783359 465.5918044729624,658.2703584270785 464.8781319963746,657.8807354617165 458.32616311474703,654.4369808263145 455.9733333333861,653.1216531377286 455.25808799266815,652.7216678839177 454.78721911483444,652.4583307998255 454.3437879756093,652.2082201981684 453.13670223671943,651.5331041943282 449.25790310418233,649.4769148611231 447.72389467037283,648.6646674956428 447.10412800032645,648.3371068905108 445.0668613407761,647.2569760339102 442.6525151007809,645.9135818649083 441.35309641971253,645.1920039721299"/></g></g></svg>