<svg width="1200" height="800" version="1.1" xmlns:xlink="http://www.w3.org/1999/xlink" xmlns="http://www.w3.org/2000/svg"><g class="geojson-features"><g class="geojson-feature" stroke="#555555" stroke-opacity="0.0" stroke-width="0.0" fill="#111" fill-opacity="1.0" data-properties="{&amp;quot;N03_002&amp;quot;:&amp;quot;石狩振興局&amp;quot;,&amp;quot;fill-opacity&amp;quot;:1,&amp;quot;description&amp;quot;:&amp;quot;札幌市清田区&amp;quot;,&amp;quot;N03_001&amp;quot;:&amp;quot;北海道&amp;quot;,&amp;quot;stroke-opacity&amp;quot;:0,&amp;quot;N03_007&amp;quot;:&amp;quot;01110&amp;quot;,&amp;quot;fill&amp;quot;:&amp;quot;#111&amp;quot;,&amp;quot;N03_004&amp;quot;:&amp;quot;清田区&amp;quot;,&amp;quot;title&amp;quot;:&amp;quot;札幌市清田区&amp;quot;,&amp;quot;stroke-width&amp;quot;:0,&amp;quot;N03_003&amp;quot;:&amp;quot;札幌市&amp;quot;}"><title>
      札幌市清田区
    </title><desc>
      札幌市清田区
    </desc><polygon points="538.9785749049624,645.5564703615382 539.6007299983175,646.8906099661835 540.3208395664115,647.9055626624031 541.6113162239781,648.7338465091889 543.8937457778957,650.0690422900952 544.6356715520378,650.5373510553618 544.993294222164,650.7626192198368 545.8735737743555,651.6229381437297 545.9957328783348,651.7852688817075 546.5410797796212,652.5130324786878 547.3898146701977,653.6825784441317 547.8963060055394,654.321876460861 547.9060053334106,654.3342012197827 549.3922744321171,656.1155199267087 550.2272613263922,656.9537152549601 550.2628837830853,656.9945853044046 550.8114346666262,657.6262811463093 551.1682417776901,658.14423156064 551.4336480143247,658.4545321558835 551.8357477830723,658.8686367334449 552.2605375717394,659.2828201245284 552.7993600001791,659.6240100252908 553.2386842169799,659.8007670397055 553.8074784427881,659.9663921425818 554.3536117759068,660.0282132936991 555.5753484516172,659.8526491349912 556.1667744428851,659.8426702808356 556.9629057707498,659.8935187011957 557.8504671003902,659.9973225982394 558.4411066595931,660.1618343908922 559.4120006543817,660.5660367726232 559.4336129707517,660.5803887874354 560.2696484409971,661.135862800933 560.6410191076575,661.311505553138 560.7971986774355,661.3368699782295 561.2640188871883,661.4108959185542 560.9598153386032,661.9972584980424 560.730847118306,662.4379140827805 560.3667291022139,662.9977967910818 560.1515088783344,663.5510787597741 559.6345317830564,665.0264514840674 559.3667079965817,665.7928180600284 559.0633200072916,666.4554208769696 558.7364555663662,666.9313711083378 558.3966295609716,667.2306483951979 557.83188400371,667.4017944479128 556.6408764303196,667.6160349479178 555.6530304569751,668.1295912056812 554.8528504605638,668.4718819365953 554.0380777814426,668.4928725720383 553.3754360036692,668.6916474408354 553.2864235520829,669.1134869335801 552.8786439965479,669.8621896197437 552.251624675584,670.6749347469304 550.8340955591993,671.6732511364389 550.0104391111527,672.4517617697129 549.0848377742805,673.0712927468703 548.482081337017,673.3064787628246 548.0977782328846,673.4567098744446 547.8963060055394,673.5259219009313 547.7215433386154,673.5858711877954 547.0637366613373,673.6709053301602 546.4529120142106,673.6499151378521 545.747336874716,673.5428174242261 544.916427776101,673.3716359034297 541.9535597796785,672.23756524903 540.7933104356052,671.788062031148 540.103988223942,671.6600128961145 539.5554373405175,672.0023384534288 538.1128297814867,672.7510323190363 537.4704022186343,672.9862583964714 536.7486906595295,673.0072088913876 536.0180953316158,673.0072088913876 535.5585277725477,673.0072088913876 534.3044308765093,673.1143465931527 533.7720746666892,673.2545995139517 532.6587782257702,673.863037063682 532.2825433316175,674.0452698784648 531.8124608854996,674.2804549603024 531.3650684587192,674.2804549603024 530.769564672024,674.1954210293479 529.7193575538695,674.034178487258 529.3236948765116,673.9767735725036 528.9830824391684,673.9281940563815 528.2459917655215,673.8210964642931 527.6739935573423,673.6709053301602 527.4547246647999,673.5317657643463 527.1877164373873,673.2324961678241 526.6318837760482,672.1425920102047 526.1213437726256,671.1266265062732 525.8940066702198,670.7522972566076 525.5962693404872,670.3767747950042 525.2515791076003,670.0885929181823 524.4287673457293,669.7672154608299 523.6236939947121,669.6360246409895 523.575168227544,669.62807368004 522.7911537778564,669.5430381356273 521.9521182151511,669.521013964666 520.9253875483992,669.5750805180869 519.6090460161213,669.7672154608299 518.9035000036238,669.9063571627485 517.9867824355606,670.2376333599677 517.0070046719629,670.7732876969967 515.8313762133475,671.4788914347882 514.8289375574095,671.8422075937851 514.2172682241071,671.9062917537522 513.550606905017,671.8002666487009 512.4850206719711,671.3287386206212 511.9841799965361,671.0614687691559 510.02459534222726,669.3939972716616 509.61681578680873,669.0406162107829 509.146733340458,668.8904221485718 508.79397489794064,668.8694315470639 508.3861953422893,668.8804834170151 507.72675754665397,669.0516283180332 507.35055177961476,669.190770426183 506.95975332986563,669.2151004093466 506.83351643022615,669.2228526095278 506.5123317759717,669.1687064684229 506.24613910750486,669.0516283180332 506.02608378313016,668.837428827188 505.61102244991343,668.291871260968 505.3132559929509,667.7574041567859 504.84317354660016,667.2438868746976 504.3415464392165,666.7403073359746 503.8245693440549,666.3239897530875 503.26710556447506,666.1749469325878 502.6635044409195,666.2069499999052 502.06802978157066,666.3891487491783 501.38674665265717,666.7955671606469 500.58012956450693,667.6503038693918 500.0315495537361,668.5491656314116 499.71764667727984,669.0295643479913 499.35111111111473,669.3752329846611 498.73052888188977,669.9604633862036 498.2208335645264,670.3138828761294 497.7895775573561,670.6451585226459 496.8251497815363,671.4590141811059 495.72073710931,672.3579017361626 495.24255732633173,672.5821162423235 494.80401954136323,672.7212563469657 494.4901166650234,672.7852607686655 494.23202133353334,672.7753221949097 493.7457442134619,672.7322682889644 493.0321591182146,672.668224099325 492.20928910234943,672.6461207003449 491.2529877902707,672.6351087542716 490.72057332633995,672.7631573801627 489.99889089434873,673.2347224041587 489.5522848997498,673.5450039036805 489.00452044804115,674.0585079901502 488.77718334586825,674.218637402344 488.53443800180685,674.3047844386892 488.1420375609305,674.3798400691594 487.5934575503925,674.3688282010262 487.0772668871796,674.2296890313155 486.64601088000927,674.0044026710093 486.3320788764395,673.6731315625366 485.99551510752644,673.180577149149 485.69696221873164,672.5611259567086 485.50035421864595,671.9184168565553 485.27301711647306,670.9775468503358 485.1718877867097,670.3999915296445 484.97527978674043,668.249889953644 484.88868488545995,667.3720178261283 484.84985844627954,667.0738538579899 484.7479135573376,666.7325948126381 484.5836657778127,666.4962893427 484.1677888854174,666.0258245106088 483.8611677867593,665.7585886343732 484.12331178667955,665.3831380361808 484.4380302223144,664.9314356966643 485.4995677866973,663.9165534749045 485.9170466703363,663.5852687378647 488.42681332631037,662.2700245574233 489.4503108835779,661.6173494567047 489.6857744498411,661.3689134330489 489.90582977433223,661.0066949294996 490.11257400899194,660.5803887874354 490.32249309890904,660.1474823515746 490.46006044454407,659.7952011437155 490.5652384427376,659.3810981310671 490.65669757162686,658.9879063552362 491.12756644992623,657.6516857092502 491.23356000718195,657.1856169141829 491.2181808925234,656.8035137890256 491.2036173370434,656.5229890471091 491.2489391218405,656.2126860072603 491.7796933406498,654.4015102948761 491.81770422053523,654.0912045701989 491.81688866135664,653.8117899314966 491.7715960035566,653.3866242456716 491.6947295573773,652.7969014413538 491.42207067029085,651.328054919024 491.4140024606604,650.9139376060921 491.42207067029085,650.6135271821404 491.6348442171002,649.526782640547 491.70279776724055,648.6565168103552 491.65022333164234,647.6416069812258 491.6040859876666,647.2384567704285 491.4528288997244,646.9281419801991 491.25540534057654,646.6377060647937 491.0434182258323,646.3372904013959 490.7926046719076,645.5808026900631 490.4131366685033,644.018002295401 489.96571511460934,642.567909278674 489.51101178315,641.1089810918202 489.31358822400216,640.4154166125809 489.24723666498903,640.2442119626212 488.9414019982796,639.4523193217465 488.8046793388203,638.8725029494381 488.7140357689932,638.3865582806757 488.64529578667134,638.0342060456751 488.4786013298435,637.5990729996702 487.91062266321387,636.4913171572844 487.7593073209282,636.1478287309292 487.6598091092892,635.922547138005 487.6217982294038,635.5293177407584 487.6670908872038,634.7628565661144 487.6282644481398,634.0471672553103 487.5829717903398,633.6031605087337 487.4389090988552,632.8465937444125 487.1808428943623,631.9365475514205 486.76415044267196,630.6210938244476 486.5133368889801,629.7607409635675 486.3393897814676,629.2637245787191 486.3393897814676,629.0372835796443 486.52950243558735,628.3535855630762 486.7321106205927,627.4479362345301 486.8329195519909,626.9973170909798 486.88549398770556,626.614053585392 486.82482221524697,626.1799738397822 486.7034786703298,625.8386976332986 486.37011888367124,625.3096648954088 485.9073473424651,624.5232111868099 485.68644733168185,623.8395005810889 485.68644733168185,623.6429160332191 485.78515911102295,623.280681552249 486.058633557288,622.7317223275895 486.8839211235754,621.2096920539043 487.10397644806653,620.6916636064416 487.33131355035584,620.1636933578993 487.5748453263659,619.1906155239558 487.55221356090624,618.5489196346607 487.4761626737891,617.90606893308 487.4672497777501,617.6796174432966 487.4607835591305,617.523864822113 487.60478799650446,617.2852851749049 488.2876731164288,616.7672881981125 488.83380644989666,616.2625313592725 489.2739170988789,615.8593693089788 489.6679486577632,615.4142162405187 489.88806223636493,615.113762314606 490.25293755729217,614.3063601506874 490.61702644627076,613.0636992035434 490.76589511102065,612.7776767382747 491.05556423123926,612.226506967505 491.3516704427311,611.718360822415 491.52561755036004,611.3980600074865 491.5862893227022,611.0148118776269 491.5563757797936,610.5696500117774 491.4957040072186,610.3000871099066 491.3443886649329,609.9157238578773 491.07901155552827,609.4087260953966 490.2019359859405,608.0379579535802 490.0919228872517,607.8656570411404 489.8564593209885,607.5243155730423 489.72055222047493,607.1929546272731 489.65988044813275,606.767668322078 489.58461599284783,605.5570596749312 489.57646040187683,605.4388774829567 489.5004677689867,604.3353505040868 489.41713510407135,603.8791614740039 489.2051771164406,603.3202969426638 488.77228999102954,602.4089481637347 488.19621398765594,601.632402207586 487.7642006755341,601.156325192831 486.959972010809,600.3698735252838 486.1476168818772,599.7269751493586 486.0715659946436,599.4994331789203 486.0715659946436,599.1371232543024 486.0796633316204,598.8466307153576 486.0335551147582,598.5052766882 485.65490267029963,597.4702361982781 485.0634475519182,596.5379484076984 484.93482222943567,596.3203451507143 484.8967822222039,595.9370336806751 484.88868488545995,595.3161942853476 485.02785422222223,594.3110053639975 485.1540911217453,593.3996230892371 485.2301420089789,592.686039977707 485.3426017849706,591.3704551471747 485.35066999460105,590.863379258546 485.31262998771854,590.47011734423 485.19859734759666,590.1276779238251 484.78187576902565,589.5885863980511 484.3530664391583,589.285913585336 484.18721666850615,589.1699505482684 484.1669733263552,589.1555943522253 483.73493088723626,588.730276751623 483.4015711004613,588.2121796626598 483.14347576897126,588.0155665416387 482.6200324551901,587.5195790191065 482.28585710946936,587.0942983478308 481.9670900054043,586.8457072565216 481.4832304355223,586.5773113127216 480.3303211235907,586.1939846062451 480.09567311638966,586.0802073657978 479.9815822222736,585.7487776623457 479.8982495573582,585.3753917780705 479.7315551005304,585.0130609762855 479.52606333163567,584.795447487908 479.3294553316664,584.6606717856484 478.9872117761988,584.5369516822393 478.1223113387823,584.47395820159 477.3568799858913,584.47395820159 476.99282022425905,584.4430579845211 476.8407184499083,584.2254439899698 476.8407184499083,583.8940515472204 476.8941084444523,583.5835770256817 476.8941084444523,583.3560598375625 476.80267844267655,582.9727280934458 476.3172460088972,582.030403138604 476.05183977261186,581.2427765679313 475.98388622235507,581.0361757936771 475.9766335716704,580.7589049525559 476.1642995484872,580.3600988956168 476.4693186561344,579.7138471762883 477.0146655573044,579.0057124128216 477.56076976365875,578.4069420305896 478.56973289255984,577.4635655084276 479.42006977437995,576.9299741365248 480.36751644453034,576.3345393582131 481.0956942222547,575.6617901753634 482.1499500089558,574.605654545594 482.26159422588535,574.4432329220581 482.36921890149824,574.2874925963697 482.6273142329883,573.9107883143006 482.80932955036405,573.4346574539086 482.83930134761613,573.1241696830839 482.8012322135037,572.8137610601261 482.69526778312866,572.586194104224 482.505126001779,572.3995110923424 482.2017088853754,572.2127881676424 481.69440199108794,572.1100208998541 480.84488066856284,572.0581202317262 480.63289355370216,572.006179781747 480.1846855680924,571.7885547449696 480.05600199103355,571.6648679147474 480.1094211130403,571.4262436283752 480.4581308872439,571.0527961540502 480.73078977433033,570.7015004757559 480.82221977610607,570.4219907729421 480.82953068090137,569.9867376930779 480.7873546240153,569.7427029158571 480.67739977966994,569.1062466655858 480.43031449604314,568.4398410368594 480.3090000782395,567.6810050160275 480.2590179556282,566.8156586402911 480.239036757499,566.0004214484361 480.08929427934345,565.3765631140559 479.5463066736702,563.8464609016082 479.200830008951,562.6687704539509 479.04223288898356,562.1207493196125 478.7849531164393,561.2347414435353 478.75241813331377,561.1695544917602 478.33103621704504,560.3255032049492 478.1821675519459,559.9189480138593 478.1117673245026,559.4483183731209 478.04867800185457,558.43077208061 478.1667884372873,557.3182436025236 478.15869110042695,556.8254951233394 478.09560177789535,556.3868769498076 477.9232566615101,555.4566601841943 477.79058267036453,554.5462470780476 477.8059617849067,554.2258317701635 477.88443022221327,553.8943987622042 478.02523067744914,553.4867590140202 478.3941837939201,552.4913022065302 478.612608000054,552.052676276071 478.7695740017807,551.8493919027387 478.95729823294096,551.6029924020986 479.05356333521195,551.3765194223379 478.17328378313687,549.3413953577401 477.2784406756982,547.0930224120966 476.8228926579468,545.5606184233329 476.5348837830825,544.338649936195 476.56479732634034,543.2205287152319 476.56479732634034,540.2373622221057 476.81159133883193,539.1545433531865 477.21692421706393,537.5436112289899 477.4329891271191,536.7525004625204 477.7371635485906,535.5294140866026 478.1109808925539,534.2709202886908 478.26308266678825,533.0698579630116 478.70727111119777,531.531837249815 478.9912604445126,530.9572150236345 479.1781399892643,529.9572911741561 479.57217154849786,528.3418832600582 479.5918614754919,528.0236612437875 479.61830889259,527.5949757567141 479.73965243739076,526.8082084491616 480.1183048818493,525.3364189481363 480.2695910970215,524.5707269090926 480.3610210989136,523.5552633829648 480.4408002560958,521.8198006989551 480.680545507581,521.0648777553579 481.2798358188011,519.9577089214581 481.8072986738989,519.304097867338 482.20680612989236,518.8612357077072 481.8190077726031,518.3862310412223 481.37400376901496,517.7928020933177 481.0382555591641,517.3463968258002 478.28169489081483,514.3573859062162 476.24416608712636,512.0541132887593 475.0785282276338,510.73196933272993 474.4587615573546,510.02908516832395 470.4238411093829,505.6564710478415 468.71017665439285,503.730366995791 467.057242225972,501.8860396518139 465.11059000890236,499.9245792446309 461.6517164373072,495.9883238073089 460.9534813298378,495.13847833988257 460.7835828907555,494.8732839396107 460.10393087996636,493.8123841182096 461.14443867024966,492.88960799138295 461.50852755922824,492.3304107306176 461.68329022591934,491.656316946086 461.72858288360294,491.2839016136131 461.81922645343,491.03529287921265 461.9939891200047,490.8175959213986 462.3200380017515,490.4959833222092 462.5773177742958,490.2163821195718 462.8354131060187,489.77100077457726 462.92521198943723,488.9642995140166 462.833811114775,486.7882974415552 462.55387044977397,485.2654624462011 461.98507622419856,484.0542534359847 461.75042821699753,482.94464959629113 461.56841289962176,481.82517398224445 461.28684111637995,480.98745372187113 461.1136804409325,480.3343354832032 461.0740384426899,479.88893617287977 461.1897604551632,479.3595882844529 461.37177577253897,478.84237391036004 461.7051355591975,478.15714275452774 461.8628879929893,477.5471051831846 461.8111291163368,476.6983097555931 461.79656556085683,475.7556158211082 461.93978356628213,474.93776800553314 462.1606544498354,474.24261908745393 462.3038433280308,473.5087955961935 462.50126688717864,472.97828010708326 462.6914086685283,472.5848289623391 462.92442555725574,471.8510005053249 463.0085737814661,471.1547287919093 463.1226646756986,470.5954819188919 463.26666911295615,470.3468521896284 463.7674806615105,469.62181001348654 463.7739468800137,468.9078663698165 463.5474253370194,468.2127003413043 463.4859380053822,467.80925486650085 463.60081533167977,467.37270542490296 463.9341751182219,466.56481635023374 464.244029326248,465.92379495775094 464.472211114713,465.1567235814873 464.6081473423401,464.4118515678565 464.60168112348765,463.55087521352107 464.76913288538344,463.0943842352717 464.9875862188637,462.71309246111196 465.29988710407633,462.07977995625697 465.51277715933975,461.71838087571086 466.03616221877746,460.8297817064449 466.2400519964285,460.483818815439 466.44315534236375,459.66592001344543 466.34604555368423,458.88788706588093 466.3306664391421,458.0489742702339 466.2546155519085,457.4886231678538 466.1089799964102,456.8685470035998 465.86626377969515,456.22638613387244 465.4730477797566,455.62405290734023 465.048287118203,455.0249809495872 464.8807771021966,454.6524701373419 464.96495445340406,453.9672508947551 465.22223422594834,453.16922530176817 465.4269395626616,452.47624285146594 465.5571960036177,451.9666512099793 465.57825490506366,451.6030487488024 465.5944204516709,451.3134555949946 465.5935757653788,451.0470996220247 465.66237400181126,450.58839687303407 465.89052666316275,449.08630647760583 465.9431010988774,448.25734758749604 465.8606131200213,447.4073763140477 465.85167109710164,446.52863319177413 465.65590778330807,444.6518033609027 465.60248866153415,444.13785817910684 465.5329039930366,443.46251760888845 465.45041601429693,442.6832394452649 465.3743651271798,442.2377716729534 465.36623866308946,441.82552922540344 465.396996892523,441.40878960560076 465.4985922562191,441.1816576591227 465.5636622222373,441.0363376698224 465.8961773227202,440.3333330976311 465.8807982080616,439.67015842878027 465.73032755195163,439.10972548957216 465.5927893334301,438.3636202897178 465.62433399481233,437.90708237106446 465.6922875449527,437.2438613406848 466.1097955554724,436.5563650105032 466.4730688853888,435.9594748101663 466.6551133298781,435.23433084524004 467.09528223297093,433.6382345792954 467.69480556086637,432.0110890858341 468.0507971129846,431.42194753489457 468.1171486721141,431.0306580744218 468.18751977256034,430.6139398814412 467.91084134415723,430.1419077794417 467.5200428942917,429.47428840684006 467.4373510258738,428.55902970809257 467.4132629050873,428.2926091963309 467.3307166721206,427.53540828672703 467.13652622222435,426.7483991633053 466.8824795590481,425.7226212777896 466.60897598590236,424.99856125126826 466.48763244086877,424.16952083603246 466.7991177671356,422.51915180002106 467.032979342388,421.76408197311684 467.2991720107384,420.9660310446634 467.54267465975136,420.2198307784274 467.8226153245196,419.7223892015754 467.90679267561063,419.29677738639293 467.95855155191384,418.55176590109477 467.95208533341065,418.0532066585147 467.94398799643386,417.37003399193054 468.398691328126,415.1735375841963 469.40034355188254,414.303513576393 470.24261222418863,414.033814261551 470.82597000536043,413.70330584287876 471.4635042134905,413.2887071739533 472.50238088541664,412.2816568990238 472.9789586775005,411.7753245442873 473.4797702259384,411.21602167602396 473.84144156449474,410.9805044037057 474.11407132446766,410.8036474182154 474.404556003632,410.61461247043917 474.5720368925249,410.2000881667482 474.32850511639845,409.83085212187143 474.16183978668414,409.57881775684655 474.10116801434197,408.83258279558504 474.43531423294917,408.19033577182563 475.0113611094421,407.81667919660686 475.0785282276338,407.77421547245467 475.6343608889729,407.42312336945906 475.695061788545,406.4281872212887 475.86169799102936,405.68198245746316 476.25572955037933,405.0805994598195 477.27276088902727,404.64501274516806 477.77197044622153,404.376377336157 477.92083911120426,403.64787642192096 478.10611666494515,402.7380531435483 478.73639822227415,402.5810892826994 479.20648066850845,402.4671869452577 479.63127045705914,402.30138771107886 479.972669326351,402.04158494080184 480.07866288360674,401.85696083767107 480.1231691094581,401.18480693973834 479.96541667554993,400.55133532424225 479.8351602345938,399.65145019924967 479.8505393493688,399.0290386645356 479.90066710766405,398.94056607363746 480.275270883576,398.2828511543339 480.79067511484027,397.49566842621425 481.52773666149005,396.529466722277 481.98972177074756,395.9811136208591 482.1382117831381,395.3951887365547 482.1499500089558,395.34874292608583 482.23328267375473,394.9960808331962 482.39991887647193,394.6433784328401 482.7332786631305,394.2708155736327 483.03666665265337,394.0630222831969 483.70338622585405,393.9292162057245 484.43235043552704,393.85514921712456 484.79646845161915,393.65838006400736 485.02383468090557,393.32672975584865 485.1678391181631,393.0160534447641 485.43403178674635,392.7053767396719 485.7212542294292,392.14710491360165 485.972067783121,391.492595544958 486.46396643552,390.4887590481667 486.71480911644176,390.0222216307302 486.9648071110714,389.4937540984247 487.2010571092833,388.78952695190674 487.34506154677365,388.353871459316 487.39848066854756,387.80442543601384 487.40576244634576,387.1930483719334 487.2221160107292,385.5977136102738 486.88229000533465,384.41470824345015 486.7511888782028,383.73148153320653 486.73580976366065,382.425759380043 486.61528177792206,379.9392719702446 486.97208888898604,378.55949778313516 487.11609332636,377.7214242572081 487.11609332636,377.03702460508794 487.19214421347715,376.27747606951743 487.2366504390957,375.8352707065642 487.49474577081855,375.64839790330734 488.1161435591057,375.6893148998497 488.9810731236357,375.8142549863551 490.38887378491927,375.9745794129558 491.18098557170015,375.8551719552488 491.5305109049659,375.3255195734673 491.5296662186738,375.15086578275077 491.500539107481,374.88000887131784 491.39294355909806,374.6942498140852 490.6582704355242,374.0916364322766 490.3775433388073,373.8539341011783 490.19628532626666,373.4912903314689 490.15827444626484,373.1695236394298 490.2569862258388,372.8997790196445 490.5595877831802,372.5681005960796 490.81363444635645,372.4299044372747 490.93824022763874,372.3613237685058 491.32577644090634,372.2573979476001 491.7198080000235,372.22647095203865 492.3573713352671,372.21648037736304 493.0014008890139,372.34030774992425 493.85095133888535,372.4232573273475 494.64789822581224,372.3613237685058 495.0799406649312,372.23638192011276 495.2547033317387,372.1125942982035 495.46669044625014,371.76980972703313 495.58075221348554,371.44919506600127 495.62688955734484,370.86870433721924 495.5492075519869,370.0925386372255 495.2611986773554,369.243410543364 495.0273371023359,368.6728655012557 494.7765235484112,367.96750377188437 494.64789822581224,367.45996527565876 494.6252373334719,367.1072630159906 494.723949112813,366.78552773874253 494.9124597761547,366.5699095390155 495.17865244450513,366.3919059642358 495.5500522381626,366.37088943331037 496.56623889075126,366.48699778254377 496.87047156633344,366.4228336965316 497.044389546616,366.15308164438466 496.88421956275124,365.49189529998694 496.5969971200684,364.92026680137496 496.339688220527,364.4227128819912 496.1422937884927,364.03903841320425 496.0282028943766,363.6664289882174 495.9756284587784,363.37565711163916 496.0807773298584,363.0538771264255 496.36802889977116,362.7962617719313 496.68758243555203,362.7431624052115 496.99102867906913,362.75422809115844 497.6738555448828,362.8261152339401 498.54606688721105,363.1478557137307 499.1747173262993,363.3767716382281 499.35111111111473,363.38138896302553 499.88836067554075,363.39555937296245 500.30583955917973,362.9709641796653 500.81661257962696,362.2268162390683 500.8818864355562,362.1317227659747 501.40538800368086,361.6960994526162 502.02597023302224,361.34450342616765 502.6489408854395,360.9176756005618 502.8844044517027,360.6169492166373 503.08179888362065,360.2233175255242 503.28653334768023,359.57095191063127 503.498491335311,358.88650152506307 503.741207552026,358.32703804108314 503.999332010746,357.9533053722698 504.40143177961,357.5386919154553 504.90142776898574,357.1052497352357 505.4848146773875,356.7635587108671 506.16764154320117,356.55569378408836 506.9977933370974,356.271521205781 507.75993332639337,355.8934067679802 508.26887133868877,355.66448384686373 508.7090111146681,355.3327820758568 508.9970491164131,354.9490933632478 509.2478626703378,354.4094840681646 509.2891357867047,354.27350679662777 509.4371888926253,353.78695752698695 509.68718688725494,353.1655837823055 509.8311913245125,352.7508826056146 510.07393666845746,352.4092651171959 510.41536466486286,352.1494094071095 510.8021144462982,352.03548360901186 511.5003786808811,351.9835362934391 511.78029021876864,351.9956772379228 512.1832055466948,352.066452961124 512.5546053404687,352.0874707198236 512.9866477795877,352.0565013701562 513.472080213367,351.9945626594126 513.9656391111203,351.83868084754795 514.4341195663437,351.33226330572506 515.0708382151788,350.4200562622282 516.1938631110825,348.5955523655284 517.376744220499,346.85399311280344 518.1316315592267,345.8411363612395 519.4868577850284,344.19903683295706 520.0176120036049,343.6185213032877 520.5596966684097,343.0335857278551 521.1090631111292,342.5613847768982 521.7312473317143,342.37452638475224 522.4060351146618,342.19761984195793 522.9974902329268,342.0947560328641 523.6236939947121,342.0879090594826 524.0136768855155,342.08368941309163 524.3963779982878,342.07931053458015 524.6286084552994,342.0427668002667 525.3300766720204,341.95542804925935 525.7774982259143,341.74755055014975 526.3009706666926,341.4578274602536 526.6909535573795,341.1526186624542 527.2597477830714,340.55107716226485 527.7605593316257,339.87768013286404 528.5113980019232,338.74867307115346 528.707976874779,338.58279087842675 529.3002475519897,338.8415463495767 529.9151499947766,339.1312725355965 530.225848888862,339.214233364386 531.0219802169595,339.3380376200075 531.5834926648531,339.627763218421 532.144189553801,339.93958210077835 532.9022808747832,340.13643423531903 533.44116155745,340.55107716226485 533.8804857742507,340.56214385136263 534.1928157866932,340.4570899013779 534.4727273245808,340.25028595374897 534.5382924517617,339.959486267122 534.6313244445482,339.5459569733357 534.7988053333247,338.65468511835206 534.8303499947069,337.94915728789056 534.7995917655062,337.181764583569 534.5407100018347,336.2606274242862 534.3206546773436,335.5650847651996 534.1240466773743,334.7987196264439 534.146678442834,334.4924276782549 534.359481116524,334.2436199259828 534.8141844482161,334.0832681717002 535.5269831111655,333.98040095338365 536.1952755484963,333.8123658259283 536.649978880072,333.6066709276638 537.3854384355946,333.2439277325175 537.8263937707525,332.97302445804235 538.54650333873,332.765179141541 539.3199737742543,332.5893007029081 540.1840586524922,332.37146285997005 541.0417064392241,332.10167328914395 541.8669940055115,331.98889264120953 542.5433546524728,332.0087974539492 542.9365997796413,331.9059293640312 543.5288413298549,331.6460518913809 544.1890655574389,331.16833522939123 544.7578597831307,330.7127519044443 545.471444878378,330.3710240445216 546.0248599894112,330.1841563479975 546.4723106703022,330.0702601384255 546.897071331623,330.0702601384255 547.2384993281448,330.1122596206842 547.8963060055394,330.49200627137907 547.9585797688924,330.52807401138125 548.5435395413078,330.9206387732993 548.9837084444007,331.2524134296109 549.5217444410082,331.63609947025543 549.9999242239865,331.9368614529376 550.7192182329018,332.11270055070054 551.5072522240225,332.17571915045846 553.3203857637709,332.28849971242016 553.9878917689202,332.53734926116886 554.7233804515563,332.64017727650935 555.0049231075682,332.4013200319023 555.3148064428242,332.1746442914009 555.7177508978639,331.9346719228197 556.2565733263036,331.73781319340924 556.6659840000793,331.7068810793571 557.0365391075611,331.74892009055475 558.0762313386658,331.81189897458535 558.5155555556994,331.62503237777855 559.2437333334237,330.9715156935854 559.5277226667386,330.79014221095713 559.6167351183249,330.7326568210847 559.9419684410095,330.62978819484124 560.3376019912539,330.5667691968265 560.7842371129664,330.5667691968265 561.7939575467026,330.7326568210847 562.4606479930226,330.5977014550008 563.0812302222475,330.2460607668618 563.7503673457541,329.8822377232718 563.9081197795458,329.7484363781987 564.213138887193,329.30172805534676 564.3110351075884,329.0539899005089 564.4097468871623,328.80410174722783 564.6443948943634,328.3175018597394 565.0610873458209,327.71592882217374 565.3086386631476,327.2769001966808 565.5465197794838,326.8555466296966 556.9831491130171,321.24774091731524 550.7645108907018,317.14383066113805 547.8963060055394,315.2733343775617 547.6792216463946,315.13180144841317 544.3799937707372,312.9800927218166 535.9048491236754,307.45163620699896 535.2518775466597,307.0269837931846 526.5987079965416,306.1245252934168 523.6236939947121,305.8284694486647 519.3088620089693,305.3989967308007 520.5451331129298,303.9789882187615 523.1900495645823,300.7716959270765 523.6236939947121,300.2457033060491 527.2254069192568,295.8766680021072 529.161107342341,293.52865705633303 533.2105622185627,288.57264438958373 537.7018171164673,283.05797092075227 542.1914117689012,277.45796163217165 544.8152984463377,274.1187597347889 545.5188055608887,273.22271024243673 547.1138935467461,271.0200224427972 547.8963060055394,269.95592245744774 548.2326367574278,269.49859257991193 551.2467102152295,265.7410885748104 550.2362616036553,262.6948088022764 547.8963060055394,255.64067390694981 546.5281182151521,251.5159512422979 547.8963060055394,250.2859040554613 553.3244344320847,245.40531790221576 555.7808402203955,243.1973220652435 556.0090220090933,242.99155100324424 561.4234024392208,235.25444147805683 563.5464775679866,231.93565193755785 564.9481906631263,229.5084900156362 566.6719622258097,226.52372966858093 569.9026540089399,221.19241836771835 570.7214462293778,219.73535919369897 572.1688888889039,217.31644019193482 575.0120153315365,212.56511883309577 575.8324386703316,211.19435817823978 581.0356475450099,202.37974080169806 574.8008437759709,197.23602789349388 574.4909604409477,196.9881560190115 573.6516918613343,196.31766990415053 572.1688888889039,195.13299256615574 570.077416675631,193.4619193893741 567.4308691058541,191.3485748328967 567.3135742293671,191.25457008986268 567.1404135539196,191.11623168818187 567.4349177741678,190.27644062787294 567.6865760142682,189.56056656240253 568.6679557689931,187.5899502589018 569.3694239858305,186.17917648900766 569.8548855467234,185.328254937951 570.3557262222748,184.72748549183598 572.1688888889039,182.93106371618342 572.7223040000536,182.38278956216527 575.6949004516937,179.72720367874717 576.6196571022738,178.98026765178656 577.1051186631666,178.50336826080456 577.4546439965488,177.65357521898113 577.8939682133496,176.61675439804094 578.3794297742425,176.0767916070181 579.1084231112618,175.3707949333475 579.9118653440382,174.87285552482354 580.457153991214,174.45793180039618 580.9426155521069,174.2299943320686 581.2460326685105,173.95999053382548 581.5057299912442,172.24483404215425 581.5073611093685,172.23599053401267 581.6298697387101,171.42864063876914 581.7201637831749,170.83397177944425 581.7776024462655,170.45445533352904 581.9442677759798,169.66546397440834 582.398971107672,168.9395705552888 582.8237317688763,168.33756577409804 583.2485215575434,167.36269094015006 583.5373751183506,166.61579683347372 583.5074324480956,166.45645063038683 583.3852442168863,165.80579916964052 582.6416873245034,163.94008146657143 582.4143502222141,163.31711008149432 582.3827181796078,163.12230670719873 582.2930066774134,162.57012394821504 582.3844075520756,161.63729437382426 582.5348782080691,160.86926892580232 582.6416873245034,160.64135863317642 583.0203397688456,160.16438365227077 583.627174002002,159.6243845456047 584.1587437795242,159.0024379521492 584.4014891235856,158.29647167614894 584.7955206828192,156.55351782788057 584.9880508872448,155.78113404347096 585.6142837760272,153.27573022374418 585.9031373368343,151.24283206870314 585.6871306810062,151.0071441863547 585.3715675593121,150.6618586385739 584.5373962240992,149.7698985969182 584.1126355628949,149.23095220635878 584.0066128782928,148.85686024517054 584.0219919930678,148.02688399259932 584.2793008926092,146.7608988552238 584.7040615539299,144.78882222471293 584.9298257920891,143.96656117285602 585.6442264462821,141.3669327418902 586.67582134041,137.44482835987583 586.7971648854436,137.0298411443364 587.1159611166222,136.32377160846954 587.6467153350823,135.51474935369333 588.5108293404337,134.51870724762557 589.0164759894833,133.99741703411564 589.7997040072223,133.1906580775394 590.3765955698909,132.8796912128455 590.9226997760125,132.6306385419448 591.6508775539696,132.4236588855274 592.0230637795758,132.31524848926347 592.8645168925868,132.07061772380257 594.3815442204941,131.65562139009126 595.230279111187,131.3856104366714 595.8063551147934,131.1166350855492 596.1558804480592,130.82558676798362 596.4414717723848,130.4932215171866 596.4592684375821,130.47250345733482 596.88857292803,129.9224781691446 596.9447299982421,129.85056242073188 597.220621994813,129.27611220959807 597.3363440071698,129.03378927876474 597.6122360036243,128.45937699190108 598.0976975645171,126.96522937074769 598.3751915520988,126.1717149792239 598.5831299982965,125.5762587505742 599.1616235520924,125.88619897846365 599.9019473351073,126.28128354862565 601.5095891058445,127.1412556626019 601.6374279964948,127.21094100223854 602.8882917831652,127.88050095742801 603.7394442240475,128.33542615792248 604.0202004481107,128.48591226362623 604.2734315521084,128.62205489585176 606.0526320071658,129.57381608028663 606.703448177781,129.9224781691446 607.6869542115601,130.44931516505312 608.3140026596375,130.78462881146697 608.5429708800511,130.90746281837346 608.8447860054439,131.06902350892778 609.8617882169783,131.61243240709882 613.6798864497105,133.641071265738 620.7140837832121,137.37721768341726 625.3153517795727,139.82202698255423 626.0677924407646,140.2215512166731 626.3048579982715,140.34772711311234 626.5200782222673,140.4617116607842 627.124465777888,140.7837446135818 629.4303717832081,142.02764918713365 631.008070883574,142.98158927098848 634.9224342188099,145.0156716061756 636.7728213333758,146.0946574518457 637.6765482098563,146.59600198606495 638.3262575503904,146.95679093245417 639.533430670388,147.6284880169551 640.5520640001632,148.16855344525538 640.8619473351864,148.3323337478214 641.6289515520912,148.73845743056154 643.5683511183597,149.7665520971641 644.1718939878047,150.1041100990842 644.3936095574172,150.22916539991274 644.6290439963341,150.36083394195884 644.986666666693,150.5608265688643 646.1630815573735,151.21849041315727 649.4390659981873,152.94036773085827 649.7959022364812,153.13517921353923 650.4480291270884,153.49042093916796 650.9447628799826,153.76263845612993 651.2125866668066,153.90761119121453 651.788662670413,154.22297340381192 652.2789593315683,154.49080786912236 653.8429395626299,155.34179685189156 654.9805280142464,155.9625974429655 655.9772868835134,156.50702667149017 656.0541824569227,156.55132672813488 656.5655088925269,156.8434997422737 657.0445042346837,157.11678915610537 657.1755471075885,157.1920432865154 657.7370595555985,156.01016433589393 660.0421500017401,151.15426986367675 660.3876266668085,150.57441171939718 660.551874446217,150.29995965975104 660.7209864533506,150.01554748171475 661.0438022259623,149.47437063005054 661.6044991147937,148.7274219028768 662.4087277796352,148.0844521575491 662.878810225986,147.73143359919777 663.0147173262667,147.6296035266132 663.0438444373431,147.60749253089307 663.3504946631147,147.37729902053252 663.6523097886238,147.15041198942345 663.8497042205418,147.0452749778051 664.2518039894057,146.83061844517943 665.2453880035318,146.2994343485916 666.0188584390562,146.15441726439167 666.7923580018105,146.79743192292517 667.9145673387684,147.77238871814916 668.7948468907271,148.2083929841756 669.2592495502904,148.34874762775144 669.9631935716607,148.5614108541631 671.7374715449987,149.28740458574612 672.7391237689881,149.9093360414263 673.9827349050902,150.9252350247698 674.272374897846,151.63345355726779 674.4835173262982,152.15024423069553 675.6672139946604,153.80913013400277 677.3954420053633,156.3399452707381 678.1082406685455,156.45392236643238 678.7004822188755,156.5479803213966 681.5468708978733,161.15147742605768 681.8559095467208,161.6516358187655 682.1083542186534,162.08319340937305 682.3179237830918,162.44069286226295 682.715974883642,163.12230670719873 682.9482053406537,163.51956201269059 683.2079026631545,164.297498531756 683.4336669015465,164.97249429376097 683.4643668764038,165.61541965097422 683.3430233317195,166.5493893159437 682.994313557283,167.9580852916115 682.9514093226753,168.91519082448212 682.9489917726023,168.97494506213116 683.0396353424294,169.63889333355473 683.2063006719109,170.7797950161039 683.4490460160887,171.52667640993604 683.9498284372967,171.87970046611736 684.1936223573284,172.00131876888918 684.4134446649114,172.11094648274593 687.9111155485734,173.859286768944 688.9726531129563,174.3893354717875 689.0017802240327,174.40483139216667 689.9087693369947,174.85735963430488 690.5932564480463,175.19930471555563 692.2850464427611,175.94290614489 693.1418786703143,176.31910777499434 693.5318615608849,176.46084051340586 694.1127726649866,176.67208508076146 694.7511515591759,176.99853187036933 695.3547235555016,177.30832728015957 695.3927344356198,177.3271293033613 696.5853731271345,177.93791543104453 697.9915426702937,178.86853178532328 698.4495082382346,179.17063676996622 699.3766824391205,179.78360918659018 702.9722786702914,181.73441116680624 704.0791088925907,182.33522779680789 708.5088473317446,184.9078519147006 709.5768511146307,185.49870238581207 710.3333695717156,185.91695339040598 713.0446084552677,187.41838893975364 713.3229180017952,187.5755705011543 717.8044444445986,190.09783080226043 718.2680606719805,190.3583366149105 718.8861962241353,190.7068324125721 720.5189455645159,191.6263267719769 725.0667944392189,194.1434866419877 727.7578191075008,195.63164754526224 728.9901580516016,196.31766990415053 733.0622155662859,198.58695108565735 734.7216162134428,199.5107972602127 736.1172999965493,200.1337163192802 737.2395093333907,200.5895427784999 738.1796742257429,200.85955702036154 739.423227107618,201.39838968391996 739.3625553351594,201.85421378695173 739.180481763673,202.76697470393265 738.9086384356488,203.8036847099429 738.5445786737837,205.13246584299486 738.3471551147522,205.90027268783888 738.1197888854658,206.29419247136684 737.6189773369115,206.83301316667348 737.3309393351665,207.55986957077403 737.1036022328772,208.11971760360757 736.7848060019314,208.40955874341307 736.0266855538357,208.8654494442162 735.7386475520907,209.25928479491267 735.6472466774285,209.75715422374196 735.61727488006,210.669925488648 735.5412239929428,211.04388311266666 735.3745586631121,211.72870721295476 735.101113344077,212.26751594047528 735.0557915591635,212.6204413867672 735.0711415467085,212.99328081816202 735.0557915591635,213.42916886380408 734.9352344463114,214.01003308588406 734.7685399893671,214.42488973896252 734.4343937708763,214.98472206445877 734.3583428836428,215.73043298249831 734.3583428836428,216.06232399342116 734.6010882275878,216.768163429806 734.707868217025,217.05803415359696 734.707868217025,217.45297150913393 734.479744682787,218.05374026176287 734.1310057814699,218.82154638896463 733.8243555555819,219.7298231170862 733.3316122170072,221.26207692199387 733.2628431075718,221.748889694456 733.1528008818859,222.33742086804705 732.9626591004198,222.94920980907045 732.8186546630459,223.45704803202534 732.6131337672705,223.97587750817183 732.333193102153,224.37972497654846 731.877703338745,224.846538364538 731.309724671999,225.1573883521487 730.7708731164457,225.5723057598807 730.3088880071882,225.95615750190336 729.9067882382078,226.30910303187557 729.6106237726053,226.73389552091248 729.1704839965096,227.62561483931495 728.8897568995599,228.19752422353486 728.6470115556149,228.96529852226377 728.3670708908467,229.4719692968065 728.3253026134335,229.5084900156362 727.7983057920355,229.9697976007592 727.5628130987752,230.24969614163274 727.3565057708183,230.87249712448101 727.2214142293669,231.17230764776468 726.9624742115848,231.6192747526802 726.4794884553412,232.4169076863909 726.1897902081255,232.893702005269 725.7966033353005,233.71343400189653 725.6145588908112,234.2521943220636 725.349152654293,235.23787412629463 725.2804126719711,235.84967064054217 725.2423726648558,236.4304019928095 725.3791244516615,238.34865355066722 725.279597112909,239.14957000274444 725.6736286720261,239.75028549012495 726.2432093298994,240.12196849886095 726.8128191146534,240.4228827766492 727.3168928995728,240.79344967886573 727.3209124410059,240.79564002418192 727.9349993246142,241.45939343125792 729.1413568854332,242.91190278111026 729.6721402311232,243.6065937016392 729.9447699910961,243.96942993759876 730.3549670969369,244.8411347270012 730.61958690139,245.53693523420952 730.9165086720604,246.65534119895892 731.0144048925722,246.9473668114515 731.8639262152137,248.34118397173006 732.228044231073,248.82125258719316 732.5314322205959,249.36109469324583 732.7369531164877,249.84888696775306 733.0703129031463,250.20068299694685 733.351040000096,250.584575755056 733.6471753387013,251.19625425792765 733.843783338787,251.82899742363952 734.0711204409599,252.523663031694 734.3745375573635,253.21836649050238 734.3979848818853,253.72721710480982 734.4740648959996,254.34884331730427 734.5193575537996,254.87764248944586 734.4586857814575,256.0811053419602 734.2458831075346,257.90522373333806 734.1245395627338,258.4958979668445 734.01123510045,258.9527307251119 733.7758006614167,259.4504990603309 733.4950444374699,259.9383110466879 733.1075082240859,260.5500059927581 732.8736757760635,261.25464195170207 732.6309304320021,261.9382105622208 732.3882142151706,262.6848535774043 732.3872821476543,262.6948088022764 732.333193102153,263.24680547392927 732.3728642275091,263.7843858001288 732.4861395627959,264.37504584441194 732.5848513422534,264.9557493306929 732.6835631218273,265.55751644913107 733.1220717796823,266.4810700013186 733.5322980126366,267.62152023235103 733.5783771021524,267.9533408745774 733.5322980126366,268.34819610096747 733.2450755699538,268.50198081013514 732.9861355520552,268.55506080255145 732.2903179947753,268.50198081013514 731.6600364374463,268.53403587068897 731.3348031146452,268.63693059573416 731.0993686756119,268.8338002585806 730.6899580018362,269.09262946923263 730.2651682134019,269.2585587592912 729.5888075663242,269.2806985839852 729.130841998267,269.32489858788904 728.9358651165385,269.34369354194496 728.5199590970296,269.528417601774 728.086314666667,269.67555166903185 727.6251451164717,270.1400885794428 727.3297962099314,270.4409659500816 726.874306446407,270.85572694963776 726.3508048782824,271.1665583207505 725.7747580019059,271.51939883379964 725.258567338693,271.8623238062137 725.1833028836409,272.1211498140474 725.2059929032112,272.5148833763087 725.1145629014354,273.05467322160257 724.8799148942344,273.5114788056817 724.598343111109,273.80124250554945 723.9462162205018,274.46490640280535 723.7795508907875,275.14959286584053 723.9163026773604,275.7192011679872 723.8636699875351,277.69910232839175 723.7269473281922,278.44569726416375 723.4308411164675,279.14028732903535 723.1654640071793,279.6579236786347 722.8927759928629,280.10480224050116 722.7479559965432,280.47861395805376 722.7714324481785,280.88232837908436 722.8992713387124,281.37121255131206 722.96885600721,281.7948343962198 722.9599431110546,282.4075896149152 722.5359980090288,283.0701152840629 722.1945408855099,283.49596396955894 721.6484366791556,284.0865764459013 721.0270388908684,284.82319757388905 720.7924200107809,285.2269048287999 720.6087444481673,285.8296573549742 720.4420499911066,287.1768265806022 720.2082466701977,287.60151343257166 719.8295942258555,288.06828587775817 719.4808553245384,288.4520794272539 719.2608000000473,288.74182544014184 719.0479973263573,289.38442568678875 718.9646937885555,290.03697835915955 718.9574120107573,290.6485980869038 718.7818046578905,291.1883081260021 718.6151684552897,291.53009068837855 718.2737113317708,291.92383284593234 717.8044444445986,292.3826736510964 717.6369635555893,292.54651671869215 717.1134911146946,293.116084536945 716.7874131059507,293.58284646604443 716.4241397760343,294.132503981411 716.1741126544075,294.77509007632034 716.0908091164893,295.32474491460016 716.0851584569318,295.8766680021072 716.083527338691,296.0303956005373 715.9071335537592,296.73596462147543 715.3319022364449,298.05098281695973 715.119915121817,298.61504334938945 715.0049795414088,298.92030518490355 714.6028797726613,299.992003334919 713.9038291058969,301.3468186521204 713.4046195484698,302.3133960443665 713.0874835627619,302.85419516672846 712.9426344392123,303.10084503580583 712.5550982258283,303.5575945492601 712.115744881914,304.07629406132037 711.2443782258779,305.20546103606466 710.9102320071543,305.8889467273257 710.5695904426975,307.20614531764295 710.2055015538353,307.9216753253713 709.765361777856,308.512228869251 709.2572393245064,309.1238024358172 708.741864220472,309.62146875070175 708.3316671146313,310.1921514220303 708.0816691200016,310.58582374913385 707.6714720143937,311.17637086607283 707.4740193281323,311.67291824595304 707.141504227533,312.24355632194784 706.5937689031707,313.59280969249085 705.5718442099169,315.883139314421 704.7433817884885,317.5319977561594 704.2125984426821,318.8380660287803 703.0758255502442,320.600845047913 702.5830822116695,321.05644719093107 702.1518553317292,321.45014185854234 701.8484673422063,321.9787164625013 701.4617175608873,322.475241931912 701.0733657885576,322.8600962513592 700.0045464462601,323.7923512792913 699.6250784427393,324.5078328087111 699.2836504463339,325.05746070074383 698.8823371093022,325.57499996060506 698.5255591253517,326.12458564614644 698.3208246614086,326.5293394869659 698.1614411092596,327.2448528278619 698.0546319928253,328.02334393624915 697.8709855573252,328.6868210314424 697.8418584462488,328.79080515832175 697.6735037439503,329.0539899005089 697.4648079929175,329.3802334894426 696.9712782222778,329.8568389611901 696.5926257779356,330.3654904696741 696.4106104605598,330.7691226240713 696.0982804481173,331.4038894700934 695.8644479999784,332.05521547124954 695.5076700161444,332.65566317975754 695.1743102293694,333.008415071934 694.7794922381872,333.27712878928287 694.316662442754,333.51598517928505 694.1119862330379,333.75484133628197 694.0359353458043,334.0036495854147 694.0625866525806,334.6306452516583 694.0593826703262,335.2167155581992 693.7899568926077,335.7298543500365 693.5593575537205,336.31480737554375 693.5318615608849,336.3776258493308 693.2316775537329,337.0623382059275 693.1418786703143,337.7036571704084 693.1710057815071,338.43020463950234 693.2405904498883,339.7250947006978 693.2705039929133,340.1298260571202 693.5213466737187,340.7412808352383 693.5318615608849,340.7580002803006 693.998681770754,341.49763554451056 694.3846159928944,342.0992145270575 694.5456306631677,342.70958957407856 694.5974186667008,343.40511193621205 694.6580904391594,346.1219374226639 694.628963328083,347.49974482518155 694.4768906808458,348.8166797455051 694.3644017779734,349.49009199620923 694.0456346737919,350.34044298843946 693.7875393424183,351.41625496855704 693.5318615608849,352.10968266718555 693.2632513424614,352.83825731207617 692.7866735503776,353.4275879455963 692.3012119892519,354.11205359135056 692.2793957832037,354.75448226969456 692.1725866665365,355.39686945662834 691.7461948872078,356.48714847455267 691.5050806613872,357.2113712914288 691.0940971235977,357.95883832359686 690.5722266737139,358.32043035369134 690.1393686755328,358.7670857339981 689.8359515591292,359.181736915838 689.7226470970782,359.59634759032633 689.487212657812,360.51851149945287 689.4775133299408,360.63462262396934 689.3401498738676,362.2268162390683 689.3140811092453,362.52865517610917 689.0713648925303,364.3519805347896 688.5309113458497,368.55130508414004 688.3496533334255,369.77411097160075 688.0705282276031,370.4563019350171 687.7671111111995,371.08873691473855 687.4329648925923,371.586277289025 687.0389333334751,372.08381665230263 686.5380926579237,372.59134556440404 686.1287402381422,373.16184167336905 685.7880695468048,373.72127126320265 685.4992159858812,374.1668238763814 685.3479297708254,374.5604729556362 685.2492471182486,374.97505759075284 685.1812935681082,375.58646515989676 685.0979317761958,376.3438267062302 685.0672026737593,377.0381390695111 684.9838700089604,377.7125881704269 684.9765591040486,378.42679769237293 684.7945146597922,379.58770213788375 684.5137875627261,380.57172226015246 684.3317139911233,381.17312564636813 684.1270377815235,381.8055727496976 683.7321906631114,382.8006089385017 683.2467291022185,383.6706652684952 682.9595066597685,384.3450961020426 682.8381631147349,384.86251005891245 682.7402668943396,385.46394270821474 682.4142180124763,387.5468361187959 682.1860362242442,388.3660902015399 681.9797288961709,388.9686286562355 681.7078564409167,389.5368577965419 681.1471595519688,390.6667451073881 680.8364606579999,391.2880634961766 680.6237162381876,391.95140898477985 680.5792100125691,392.5936985964072 680.4044473457616,393.29906899342313 680.3356491094455,393.85849238099763 680.3906993493438,394.299590612296 680.3963208817877,394.3459968221723 680.7304962276248,394.8744538835017 680.9578624570277,395.319968010881 680.9271042275941,395.3951887365547 680.7377488781931,395.85837278177496 680.4788671147544,396.32605325669283 680.2595982222119,397.0191945937113 680.1754499982344,397.2591031845077 680.1697993387934,398.25296221574536 680.2830455467338,399.21477926318767 680.2377528889338,399.98197758197784 680.2822591147851,400.61545067006955 680.2450637938455,401.2986700750189 680.3057355663041,401.9830019250512 680.3121726579266,402.68826568237273 680.2603846543934,403.09181843406986 680.131759331678,403.50635476910975 679.897111324477,404.2216034089797 679.827555783093,405.42441194399726 680.0484266667627,406.14960437529953 680.5120428943774,407.4762130485615 680.9198224497959,408.4501320194686 681.0346997760935,409.35993407759815 681.148790670326,410.2000881667482 681.1326251236023,411.06232658412773 681.1714515626663,411.44369876978453 681.2475024498999,412.01410437515005 681.3688459945843,412.6464718358475 681.4367995449575,413.26769466744736 681.7628775537014,414.13772235490615 682.043633777881,415.08288203860866 682.0136911076261,415.47535106376745 681.8923475627089,415.87880315375514 681.7402457884746,416.4901484058355 681.5816486685071,417.11136148829246 681.5662695537321,419.09119407914113 681.4360131130088,419.7666416451684 681.172237994615,421.07101066596806 681.0718950970331,421.29983265680494 680.9829408996738,421.73427549022017 680.9505515519995,422.29470839264104 680.9829408996738,422.9258952594246 680.8688500053249,423.8268091221689 680.5807828764664,424.4071743347449 680.1633039928274,424.97754974954296 679.6778424321674,425.5059009248507 679.2458291199291,425.8685074740788 678.6082657849183,426.35598799644504 678.0160242345883,426.62567374284845 677.4698617743561,427.154100951273 677.3355566649698,427.25247209268855 676.863056668546,427.5995563628385 676.0903726649703,428.0770849377732 675.5288893441902,428.314734644955 675.218190449872,428.5424356383737 675.2051706310594,428.55902970809257 674.770739768981,429.11172698956216 674.5053917868063,429.692039885791 674.155021767132,430.29336245462764 673.5644113352755,430.9146201155381 672.8896526790923,431.73253533779643 671.6606342259329,433.4746450674138 670.6144757760921,435.11168926220853 670.1589568853378,435.7328551164828 669.8709188835928,436.344150814577 669.6969717760803,436.8625691186753 669.3563593388535,437.5777203547186 669.2592495502904,437.82562728994526 669.1209248997038,438.1789837721153 668.9768913352164,438.8930965659674 668.878179555526,439.5783579776762 669.2592495502904,440.1370389944059 670.1071980089182,441.38009968498955 669.929173105862,441.7470200397074 669.2592495502904,443.1255230822717 666.4363373226952,448.93378907529404 667.071483107633,449.4731503468938 669.2592495502904,451.3286156738759 672.9050317938672,454.4203767544823 673.375085112988,454.8193878380116 673.4964286579052,455.1509548902977 672.2229331057752,456.3413775775698 670.3345351112075,458.0821186217945 669.7956835555378,458.49660168855917 669.2592495502904,458.8679925632314 669.196975786821,458.9110442651436 668.4000288996613,459.58530773426173 667.4372031147359,460.2892915652483 666.9298962205648,460.6054131890414 666.4403859912418,460.9425030350685 665.7882882276317,461.2431460428634 664.883745792089,461.71838087571086 663.8950260053389,462.23785955802305 662.0664842241677,463.26352432835847 661.0357048889855,463.97859849070664 660.2994297742844,464.60080521396594 659.6925955414772,464.68372355028987 659.0024868978653,464.6417073526536 658.3746228907257,464.86941436788766 656.1884875661926,467.22131346177775 653.8242982116062,469.82074623549124 651.5928411023924,472.17482585815014 649.5903813405894,474.3188898153021 648.9576531059574,475.7069572149776 648.7869391075801,476.08051024063025 648.2262422187487,477.30174496228574 647.5134435556829,479.1661502363859 647.1865791147575,479.70655894605443 646.3758551041828,480.9487822956289 645.6549591041403,481.8704496251303 645.040872220532,482.58435549394926 644.986666666693,482.64848915603943 644.1468446720392,483.6408878027578 643.6767330988077,484.26308437477564 643.2285251129651,484.90517175680725 642.9477688889019,485.3505221628584 642.546455552103,485.8268242024351 642.0537413405254,486.27221271774033 641.6289515520912,486.7176004232024 641.1208582259715,487.225926250685 640.3845831111539,487.68125830445206 639.5204691059189,488.1575558130862 638.7324351149146,488.4482193739386 637.6094102187781,489.1731660516816 637.0633060124237,489.79534857417457 636.2655435663182,490.4605756747769 635.7129148871172,490.8728158552549 635.2274533262243,491.30824926291825 634.7873426773585,491.8873008961091 632.675277596456,494.8732839396107 632.3673457778059,495.30867045448394 631.3600428942591,496.86020601994824 628.8858404408675,500.39420931448694 628.4311371095246,500.97439315757947 627.7636311041424,501.9435246657231 626.8696035556495,503.24196631106315 626.6041973192478,503.8209897413035 626.2312246614601,504.36138385382947 625.8307268837234,504.94044442026643 624.4722675485536,506.27861171390396 624.1154895644868,506.8167726579122 623.4795282204868,508.1218319069012 622.9398611058714,509.2610777875525 622.5701215573354,509.83018159196945 622.0312700018985,510.193697645911 621.5150793386856,510.58712817990454 620.8920795591548,511.6755629921099 620.7140837832121,512.0637799184187 620.0287811130984,513.558482935885 619.3912177778548,514.6977433191496 618.9971862187376,515.651346212835 618.405731100589,516.4380697844317 617.8903559964383,516.9983258559369 617.4203026775504,517.4126694824663 616.9502202311996,517.91989736713 616.0011424428085,518.4281584643177 615.3935217778198,519.0403616736294 613.6572255574865,520.4469912059722 613.1491031041369,520.747521425772 611.9354928924004,521.3696635549422 611.261520668515,521.6083365869708 610.6619682133896,521.7530518886051 610.0624740123749,521.9386994583183 609.706453333376,522.0215586130507 609.3803753243992,522.1673874752014 609.0543264427688,522.404945926799 608.7039855503244,522.7695969062624 608.5688648818759,523.0790346796857 608.400597560918,523.722094368597 608.1740468906937,524.2701616000268 607.7800153315766,524.8811966433423 606.8997357796179,526.7054619176779 606.5574922240339,527.2314059615019 606.2395115521504,527.7197986102547 605.9907951502828,528.0236612437875 605.6634355485439,528.4236662514741 605.1941977884853,528.847974747885 604.6407826774521,529.2512401714921 603.9578975575278,529.6445605529007 602.8575335539645,530.1318744015298 602.2742048995569,530.3605547722545 599.8922188800061,531.457772076712 599.2935111112893,531.6334282190073 598.5798968888121,532.0898312938516 598.0103162311716,532.4533143268782 597.4738822258078,532.7947205849341 597.0790351076284,533.2499679658795 596.947147548548,533.4996874021599 596.5013571130112,534.339376089687 596.4414717723848,534.5001934480388 596.3055646721041,534.8653435257729 595.5531240107957,537.2497044703923 595.1364315593382,537.818703499157 594.6436882205307,538.2529795339797 594.4236328960396,538.6672872228664 594.2496566614136,539.2164347564685 593.9988431076054,540.0451257277746 593.7779722240521,540.6892148406478 593.429262449732,541.3311941527645 592.973743559327,541.6626441517728 592.7399111111881,541.785272184934 592.1638351076981,541.879182226432 591.9801886720816,541.8714657737873 591.4510364445159,541.8471629236592 591.1330557723995,541.8062736712163 591.0036148907384,541.8217463560868 590.9089517795946,541.9244865496876 590.8069777636556,543.3077559570665 590.7600831148447,543.9408983166213 590.6403415609384,544.4314452960971 590.3959942258662,544.8733861959772 590.287583118421,545.1407538884669 590.2697864534566,545.3849324886105 590.2608735575341,545.5142408490065 590.2738351220032,545.5529020865215 590.3668671147898,545.8235703533865 590.6694686721312,546.2190915270476 591.2309811201412,546.882017629745 591.2309811201412,547.6277924364549 591.0044304496842,548.0100657788571 590.6176806684816,548.2896010429831 590.0925771094626,548.5724372668192 589.9647673458094,548.6420425314573 589.4720240072347,548.9005761981243 589.0399524408858,549.4596046016086 588.9015986631857,549.8153854436241 588.5609862258425,550.6937184290728 588.6823297706433,551.37210450985 588.4865373297362,552.4117545805639 588.3878546775086,553.0437199824955 588.2664820053615,553.7784189789672 588.1596728888107,554.1209091887577 588.0156684516696,554.3794370756368 586.4160948907956,555.3638292254764 584.6797986703459,556.52389549691 584.208900664933,556.9282688001986 583.4200511147501,557.7767465842771 582.4798862222815,558.9787219205173 582.0017355664168,559.7863858985365 581.3616381725296,561.1695544917602 580.894905344001,562.1782599773724 580.3188002132811,563.2542556461412 580.0081304463092,563.5967723860522 579.3786644480424,564.1038649156108 578.6731475628912,564.5700709416415 576.5565677795094,565.637306341785 573.8258719858713,566.9939143573865 572.1688888889039,567.6396825887496 570.9285399893997,568.1230233067763 569.6170335575007,568.6400492682587 568.1833388941595,569.3968142246013 567.2132313316688,569.91495108651 566.6517480107723,570.1634798081359 565.9915237830719,570.371203332732 565.1193415679736,570.5048733078875 563.6969482239801,570.6462587569258 563.3376944357296,570.6816150492523 562.624109340366,570.6705985222361 562.1467451165663,570.7136305850581 561.319855559268,570.9301429934567 560.9937775502913,571.1577512577642 560.7356822186848,571.4372601213981 560.5916777813109,571.7156550870277 560.4856842240551,572.0371213374892 560.106216220418,573.529629169614 560.0156017777044,574.0367011487251 560.0301653334172,574.481929366535 560.0301653334172,574.8751771636307 559.9541144464165,575.2386365155107 559.749409109354,575.7247063808027 558.7785151147982,577.2779599956702 557.9136146773817,578.5726619021152 557.4127740019467,579.2564987760852 557.2995277937734,579.474117182137 557.3102465707343,579.81008907879 557.4500567041105,580.4742367145373 558.0992708835984,582.2150108279893 558.129271807964,582.7382110124454 557.9894908018177,583.1507732161554 557.6598592854571,583.5029657334671 555.7978213262977,584.9633503097575 554.3730104321148,586.2978197137127 553.8414697814733,586.9495818561991 553.6748044516426,587.240088494611 553.5534026524983,587.5925137450104 553.4927308801562,587.8410245428095 553.401330005494,588.3370114147547 553.3786691129208,588.9070053515607 553.4320591075812,589.4869796815328 553.51542089961,589.994018649857 553.7500397796975,591.0412198119448 553.7807688819012,591.3825842337101 553.7055335538462,591.8067837441922 553.023463992984,593.6504344929126 552.69077412982,594.3110053639975 552.5906351219164,594.5098403869197 552.4393197796308,594.7064482989954 552.1658453333657,594.9450499222148 551.9385082311928,595.0798199696583 551.6884811093332,595.1626544000464 549.3316026595421,595.2388875020551 549.0888864428271,595.2864089072682 548.9036088889698,595.3593015552615 548.7523226737976,595.5360253758263 548.4715373228537,595.9392208521022 548.304871993023,596.2705970105599 548.256317098625,596.4031393951736 548.1681493334472,596.6439662988414 548.114759338554,596.9024493370089 548.1236431075959,597.2747439662344 548.1762466703076,597.7508285195217 548.3129984569969,598.7869415144669 548.4044284587726,600.775287945231 548.3510093369987,602.390178749396 548.3056875520851,602.700589685468 548.2296366648516,603.0010588258738 548.1163613297977,603.2694367871736 547.8963060055394,603.5579755745712 547.3655517866137,604.2536723702215 545.6357217848999,605.8597123970976 545.2190293334424,606.3347066204296 544.9690313388128,606.8737215538858 544.9455548872938,607.1321938053588 545.0823066738667,608.0014936348889 545.2869828836992,608.9768427037052 545.3015755664092,609.2452936519985 545.2942646612646,609.6186034139828 545.1729211164638,610.1046051091398 545.0596457814099,610.7054851072608 545.0216349012917,611.326285527728 545.0523348766146,612.1348109025275 545.1583575609839,612.900269196718 545.3865393493325,614.4223112972104 545.4617455502739,615.6130341468961 545.3937920001335,616.048206217296 545.2570693405578,616.4933581346413 544.8630377814407,617.3107336816611 543.9853214151226,618.5709483848768 543.1493733264506,619.7649514042423 542.2391802311176,621.1632890282199 541.413077105768,622.4986747289659 541.0635517725023,622.8819446683628 540.8434964481276,623.0685892378679 540.5627110969508,623.3789739913191 540.3426557724597,623.710313059215 540.1840586524922,624.0725866674911 540.09265777783,624.5795541042462 540.1460768996039,625.5736048587714 540.3661322239786,626.1225577199366 540.638820238295,626.4649071001913 541.1015917796176,626.8470972719952 541.3904453405412,627.1684912301716 541.5692566756625,627.4479362345301 541.6024324552855,627.4998251765501 541.7083968855441,627.7582756818738 541.7480680109002,627.9880180715118 541.8451486720005,628.5557329390431 541.9737739947159,629.8192695465987 541.875062215142,631.1546080989065 541.7083968855441,631.8062112290063 541.1477291237097,632.8941078601056 540.8588755627861,633.4739781316603 540.722939335159,633.7843099511229 540.6088484410429,634.2813171715243 540.5028840107843,634.9428918595659 540.4956022328697,635.4200165556977 540.6396066702437,635.9479141896591 541.0271720108576,637.6973596983007 541.0570855538826,637.9359194820863 540.9891320037423,638.3092650781618 540.7609502151608,638.9189026232343 540.3135286612669,639.8510292564752 539.4793573264033,641.3839969155379 539.2738655573921,641.8599958164268 539.1371137707029,642.4298653198057 538.9858275556471,643.3509653438232 538.8345122133614,644.7182360696606 538.8725522203604,645.194228497392 538.9785749049624,645.5564703615382"/></g></g></svg>