<svg width="1200" height="800" version="1.1" xmlns:xlink="http://www.w3.org/1999/xlink" xmlns="http://www.w3.org/2000/svg"><g class="geojson-features"><g class="geojson-feature" stroke="#555555" stroke-opacity="0.0" stroke-width="0.0" fill="#111" fill-opacity="1.0" data-properties="{&amp;quot;N03_002&amp;quot;:&amp;quot;石狩振興局&amp;quot;,&amp;quot;fill-opacity&amp;quot;:1,&amp;quot;description&amp;quot;:&amp;quot;江別市&amp;quot;,&amp;quot;N03_001&amp;quot;:&amp;quot;北海道&amp;quot;,&amp;quot;stroke-opacity&amp;quot;:0,&amp;quot;N03_007&amp;quot;:&amp;quot;01217&amp;quot;,&amp;quot;fill&amp;quot;:&amp;quot;#111&amp;quot;,&amp;quot;N03_004&amp;quot;:&amp;quot;江別市&amp;quot;,&amp;quot;title&amp;quot;:&amp;quot;江別市&amp;quot;,&amp;quot;stroke-width&amp;quot;:0,&amp;quot;N03_003&amp;quot;:&amp;quot;&amp;quot;}"><title>
      江別市
    </title><desc>
      江別市
    </desc><polygon points="429.61818453343585,577.2959023984731 427.7781375431223,578.1595204100013 427.5046922240872,577.9524548473419 427.33549283561297,577.2959023984731 427.3226477795979,577.2460390971974 427.23203333688434,570.8530890058028 427.20777045341674,568.1857761849533 427.0962427450577,555.8625940884231 427.07908687659074,553.9962366602849 427.0483869012678,546.1908255995368 423.8451911112061,545.7545555413817 422.6129395485623,545.485434250033 422.0360479858937,545.4223296294804 421.3078702080529,545.3813494881615 420.56451720534824,545.5246603610576 420.3369762132643,545.5685106809833 419.47286220814567,545.6714791738195 418.9413215575041,545.7755239483085 418.31995289598126,545.96268483944 417.7139633493498,546.2528536989121 416.92426911299117,546.8142152543296 416.6208811237011,547.2704152450897 416.0294260053197,547.8517859671265 415.5140509012854,548.1840085771983 414.8157866667025,548.5161908722948 414.02693711651955,549.0765107828774 412.85859043570235,549.4928432710585 411.6530484339455,549.6390218882589 411.3116204374237,549.6800013157772 410.52277088712435,549.7209807366016 410.349639338674,549.7173133178148 408.5817984569585,549.6800013157772 407.6561971200863,549.5769946480868 406.4271786666941,549.1617784767877 405.6690873457119,548.8295571955969 404.65284243924543,548.2481887991307 402.90766244987026,546.9393474407261 402.1794846720295,546.4620987583185 401.4059851093916,545.9017728547333 399.4949262222508,544.261807637522 399.2053444836056,544.0780338983168 398.6906975574093,543.7513468344114 398.447981340345,543.5985472316388 397.61378087836783,543.1833209047909 395.77877287834417,542.1036334786913 393.9728919893969,541.2520467887516 391.7131524552824,540.3595558781526 387.6385608819546,539.6497226977372 387.54876199830323,539.6342551203561 386.077027328196,539.3774453551159 385.8731375503121,539.3418858322548 385.4637560036499,539.2798559791408 386.077027328196,537.4902321289992 386.3885126543464,536.5812232118915 386.4637771093985,535.9588838269701 386.077027328196,535.5364288556157 385.8504766577389,535.2889433356468 385.8116502185585,535.2468452582834 383.31804910930805,532.5204211927485 382.9353479965357,532.102943543403 382.79457666841336,531.9490204066387 382.5510448926361,531.6821562874829 381.67076534056105,530.7884743089671 377.4529848890379,526.3455701882485 376.9230462292908,525.9302746839821 375.45052512723487,524.3533254061476 373.6397508836817,522.4131316067069 373.00868289428763,521.7375724922167 370.5967833317118,519.3288671196206 368.7909024427645,517.4517452925211 364.66536755196285,513.1625337916194 362.47975651558954,510.85561071819393 361.80444444459863,510.142741488351 358.56728644273244,506.725724671036 358.1700217742473,506.3204032786307 355.71524710406084,503.8196439311723 353.4700419983128,501.5757884941995 353.0614760108292,501.17041868926026 352.1957600143505,500.3098778061685 351.92630510928575,499.78050590259954 351.7677079893183,499.46922974364134 351.7402119964827,499.41608110413654 352.1350299875485,498.2963685563882 354.42558600544,492.6068593071541 354.82121955556795,491.624437256949 356.0518691272009,488.5641467227251 357.04944355553016,486.0853754041018 357.7816700018011,484.08395037899027 358.2938119964674,482.6806224306929 358.1813522204757,482.42032362893224 358.09638843743596,482.22318538127 357.15622354485095,480.1264284494682 356.16995043563657,478.0706449628342 355.966468437342,477.62871066172374 354.51620044815354,474.4785648168181 353.8786371129099,473.06628941214876 352.5590333440341,470.57404224271886 352.4376315448899,470.1586918272078 352.46760334225837,469.74326095328433 352.6197051164927,469.2658614994143 353.0290866631549,468.66332878230605 353.75726444099564,467.915603951551 353.6059782258235,467.2930896821781 352.30090888543054,465.25713673688006 352.0606102186721,464.6789191791322 351.81384533352684,464.08411133120535 351.6641611092491,463.72186642169254 351.4513584355591,463.3065043583629 349.7830448925961,458.5289524400723 349.7830448925961,457.15869638480945 352.05737710930407,451.71747455484 351.9360335645033,451.1779876605142 349.38819777418394,450.18100253585726 349.4941913316725,449.9095826008124 350.93435221351683,446.2340181316249 351.48048554663546,446.35916194942547 352.3163753814297,444.3972919329535 352.3300359965069,444.3651483040303 353.6650188800413,441.0838437851635 354.6059993316885,438.4250846069772 355.21280443738215,437.5942338780733 355.69745043921284,437.01264067500597 357.1950791111449,434.63967181858607 358.2266740053892,433.1906339721754 359.7445168925915,431.2164541379898 360.85941532452125,429.6798531851382 361.80444444459863,428.31230690091616 362.58036155742593,427.1893968746881 363.3231028908631,426.35846805071924 363.5965773371281,425.9219441200257 363.6418699946953,425.54751803865656 363.2624311182881,421.6211545903934 363.15157333354,419.8806440329645 363.08035754668526,418.764994134428 362.47031933174003,418.52345278748544 361.80444444459863,418.26057288993616 360.71057578676846,417.8288206614088 360.47834532987326,417.73688625457 360.31168000004254,417.44656474888325 361.14585133525543,412.74122625862947 361.43345243041404,411.16131271404447 361.59408844809514,410.2794348394382 361.80444444459863,410.10146344127133 361.9686922241235,409.9625004756381 362.100579783204,409.850620074023 362.1361731129,409.8207454055664 362.3513933371287,409.54369657015195 362.2996053333627,408.0080761073041 362.2615653263638,406.8724287080695 362.10218177421484,405.9495318182162 362.05607355735265,405.5339917484089 361.94279822229873,405.0465349832084 361.80444444459863,404.5339883622364 361.6847028908087,404.09036543028196 361.66207112546545,403.98286991228815 361.4419575466309,402.92805516853696 361.32140043377876,401.9109294343507 361.23728133703116,401.20296753622824 361.1393851165194,399.6240563325118 360.8052097707987,399.3548139379709 360.4864426666172,399.0013680270058 360.3375740018673,398.6944308912498 360.2348426809767,398.07066324009793 360.09806176729035,397.85790058859857 359.9047160036862,397.8058467056253 359.64257200364955,397.8269075883436 359.3998557868181,398.1182895000675 359.3165231217863,398.57476718595717 359.25826889974996,399.4578440626501 359.2178113423288,400.13374134449987 359.09725422924384,400.8494844119414 358.97585243021604,401.2450887140003 358.5138673209585,401.34807815391105 358.024386218749,401.1497576289694 357.62630599108525,400.85837933328 357.285693553742,400.38192221993813 357.1489708943991,399.4656221771147 357.4903988908045,398.59582800231874 358.6733091272181,397.15212079137564 359.43946865783073,395.91558520292165 359.5988813370932,395.4036576371873 359.62154222931713,394.88845814060187 359.4095551146893,394.2136632259353 358.9354531271383,393.78705402318155 358.5899473353056,393.4757225733483 357.62388844101224,393.4203569901292 357.3253355519846,393.4026064942591 357.18214667378925,393.393751190335 356.88682689436246,393.37600069254404 356.4507357868133,393.3505117732566 355.9693228943506,393.2563343818765 355.4539477901999,393.15441852778895 354.4603637760738,392.9594021230587 354.18365622055717,392.9051134213805 352.8114488889696,393.0602410606807 352.3559299982153,393.1743629251723 349.48125889431685,393.02916767419083 348.33560223306995,392.9671804444515 347.66078532277606,392.81089596945094 347.1373420089949,392.65580806072103 346.74977666849736,392.49290182831464 345.77241645520553,392.0840801020968 345.1995735609671,391.6618948637042 344.7869297779398,391.3582991886069 343.5199004445458,390.7345128033194 342.3062902330421,390.08072807407007 341.7674095501425,389.74833032285096 341.1533226665342,389.1244999365299 339.7253077903297,387.75939920102246 339.598255331628,387.63861322717275 339.5076700161444,387.5322273809579 338.30856510589365,386.12168310332345 337.53186156088486,385.1011765047442 336.7761586632114,384.10834949393757 336.470323996502,383.65623271040386 336.3821562312078,383.52662893605884 336.15479000180494,382.8817204897059 335.98730911279563,382.23796716722427 336.03341732989065,380.92927342193434 336.09411822946277,380.30542051105294 335.9881246719742,379.59958999435185 335.7429617779562,379.10318575723795 335.6393857707735,378.89264048606856 335.27532600890845,378.3940009048092 334.69843444623984,377.93744561146013 334.64154919818975,377.9208508376614 333.9856357831741,377.7291731403675 332.66600288718473,377.4798123979708 329.91267532808706,377.52305462461663 329.22253755736165,377.52859952213475 328.6003242098959,377.5329875703319 326.5760191148147,377.575112830149 325.83974399999715,377.5950584997772 325.2248415573267,377.5318706127 324.52742200891953,377.4609836768941 321.751404430368,377.52305462461663 319.9229209033074,377.8144607585855 319.45129472005647,377.9208508376614 319.08548733161297,378.0028673047782 318.4972944498295,378.1358248752076 317.29175244807266,378.6034296529251 316.47296022763476,379.0920960336807 316.36536467901897,379.1940177556244 315.77469599305186,379.755843031744 315.42598621884827,380.3165500704781 315.3499353316147,380.6179255830357 315.30461354670115,381.3138203654089 315.4033253262751,381.8645112772356 315.7439668907318,383.80805532698287 315.8208333370276,384.5670872136834 315.8329502152046,385.0424582530977 315.84349422936793,385.4812491943594 315.7771426702384,385.7770736241364 315.71888844808564,386.04190319997724 315.6841106774518,386.1970351980999 315.63229354668874,386.28786455845693 315.2140282312175,387.01701128151035 314.8652893299004,387.6818536554347 314.832929109456,387.77711021737196 314.6298548907507,388.36771602841327 314.44049954158254,389.4790371530107 314.5497553352034,390.52062686294084 314.5772804551525,390.7876850901521 314.82646289072,392.0341789937811 314.91789289249573,392.824218845868 314.86450289795175,393.7172886886983 314.5691831181757,395.70066670147935 314.2884268943453,396.9581845590146 314.1290433424292,397.71605871769134 313.9542806756217,398.20249302423326 313.6816217886517,398.9625970416819 313.4162155519007,399.37140725553036 313.2592495502904,399.61276810173877 312.9283655680483,400.12157560890773 312.81264355545864,400.29995315440465 312.2098871181952,401.2273387867608 311.24624577432405,402.5569044845179 310.12566755572334,404.1844987576478 309.98973132809624,404.05047841608757 308.9662337707123,403.0344343095785 308.1871126756305,402.38291618897347 301.01132845517714,396.38981728517683 299.9643253190443,395.5155845443951 295.58719044260215,391.85910619969945 288.98666666669305,386.6188708737027 282.08680356980767,381.140973769594 277.9773468445055,377.9208508376614 277.58421822590753,377.6127702529775 276.4951846685726,376.7584559324896 273.7159631077666,374.58212696155533 272.6512215610128,373.746631048969 278.20235377782956,363.52410076232627 278.6780868835049,362.5677686477429 280.31730244262144,359.2765086130239 281.1531048960751,357.59870691405376 281.2453213297995,357.4125187265454 281.3270228765905,357.2496288801776 283.0868246755563,352.8445403755177 283.12000045517925,352.75038725929335 284.72519554861356,348.23103488772176 285.90096964279655,344.6758644891088 287.0416164408671,341.22700850106776 287.4866495715687,339.879314612248 288.98666666669305,334.56662559119286 289.8216535608517,331.6093407460721 291.7327124479925,325.6244399236166 292.3217500160681,323.65162486967165 294.18990466860123,317.3960391021101 294.68020132987294,315.5639299993636 295.3121140053263,313.19859919988085 295.8481111039873,311.42631183099 298.7361515520606,301.87734160822583 299.81790333159734,298.2981522442424 300.98540532623883,293.372156953963 301.80422667379025,289.2885143531021 301.8349849032238,289.13332077965606 302.62383445340674,284.6860192596214 303.2298239999218,280.03127859014785 303.4009749048855,278.1722707259469 304.04864534770604,271.136262901593 304.5542919964064,263.475820995518 304.62469222419895,262.40714897133876 304.68539312353823,258.789705145231 304.6077111181803,253.519194012566 304.59474955382757,252.64001940720482 304.5639913245104,250.51806169870542 304.2597877761582,245.94588778249454 304.15070674486924,244.91369934001705 303.5615526686888,239.33575106895296 303.04614843730815,236.00958065432496 302.64891289605293,234.00830050819786 301.89239443908446,230.1897410970996 301.25564666325226,227.57087579509243 299.03793755033985,218.19821320776828 298.09861734416336,214.22528293117648 297.40163470234256,211.650555816188 295.7465739947511,205.5363283205661 293.56288534775376,197.38707351393532 292.34033311298117,192.1817856520065 291.5134435556829,188.6553215776221 290.9325033244677,186.72243962431094 290.00853310595267,183.6528162799077 288.98666666669305,180.25258716510143 288.81269043206703,179.67377417423995 288.4192414152203,178.3829180469038 286.88628155738115,173.35357236431446 286.18720176350325,170.5056053046137 285.68639021518175,169.02836875029607 285.35224399657454,167.1163322662469 284.8975406649988,165.3895775678684 283.82065311295446,163.47643455828074 282.6523355592508,161.83389926335076 281.7267342223786,160.73256115755066 280.54306668101344,158.94475270604016 280.1797642240999,157.90552837308496 280.08673223131336,157.18128685263218 279.99771977961063,156.49146067671245 280.0737706668442,154.9531297008507 280.45320954325143,153.78743665426737 280.83186198771,152.35338101052912 281.2712444587378,151.20875771233113 281.56816622952465,150.6009676255053 282.4088037832407,148.8818022881169 283.7899240106344,146.07343883713474 284.07292302220594,145.11074417899363 284.5480153316166,143.49471829325194 284.7454388906481,142.12265312392265 284.9719895608723,139.4196278268355 285.41212933696806,136.73649801063584 286.47363777423743,131.62088021321688 287.08044287993107,128.41858808195684 287.2171946668532,127.94052076287335 288.93167468102183,127.89835240121465 288.98666666669305,127.89280183031224 297.4396747092251,127.0380523383501 303.7363153351471,126.39977353980066 313.2592495502904,125.33601176360389 319.3621948871296,124.65384248358896 323.36557067383546,124.2068354827934 327.5525928961579,123.73870318883564 334.7712230971083,122.95006815629313 337.53186156088486,122.64801495254505 351.48939844279084,121.12089148309315 352.45790401438717,121.01546761801 353.2491711146431,120.92897209472721 361.80444444459863,119.99600850546267 367.1743477759883,119.41042357828701 375.0653773371596,118.55740144843003 381.0089099947363,117.91291072184686 383.62143709883094,117.63557033182587 386.077027328196,117.375441132579 394.75125577964354,116.45640093227848 395.2828255573986,116.40209063584916 408.52511709870305,115.04097481269855 410.349639338674,114.83287724887487 415.3028502186062,114.26776627334766 415.75676711834967,114.21565188170644 423.82739444624167,113.29604069353081 425.2570404409198,113.12524054403184 433.10682601248845,112.18453970516566 433.5688111219788,111.97707866085693 434.6222222222714,111.83890431601321 434.6595049245516,111.83399233646924 435.43856776540633,111.7319189819973 441.20253178314306,111.14068339474034 441.71548933687154,111.08745015738532 445.5133442276856,110.57053205597913 447.04575067036785,110.3541641261545 455.9117228941759,109.55218741233693 457.61562976706773,109.39795774704544 458.2661546667805,109.28146676224424 458.8948051058687,109.22747434990015 461.52192489244044,109.00192011985928 465.64827534230426,108.47832839662442 469.5917657886166,108.10896612762008 471.0181495468132,107.86488081817515 473.5821800106205,107.6396847475553 475.1331986775622,107.54096421966096 475.824122879887,107.43337796785636 476.2036200106377,107.3734746890841 478.38005600706674,107.11724823183613 483.1674171164632,106.63322869123658 484.6237726720283,106.48598592262715 485.8916175646009,106.32959779107478 488.0340622223448,106.06666103354655 489.02196644979995,105.9446573232417 494.49055243388284,105.35005309747066 496.039969109348,105.40105117944768 496.3644159999676,105.4121932805283 497.01575645874254,105.3401090693078 499.36855711298995,105.14258624066133 507.4399999999441,104.29897905566031 512.9223631075583,103.72597626101924 520.1863442206522,103.00600680458592 520.7357106631389,102.9516535770963 521.5860766720725,102.7530904711457 522.9072824320756,102.69873718725285 524.2083031040384,102.58116472297115 525.7107960035792,102.31602742546238 526.9729611093644,102.09414095239481 528.3427508907625,101.90224653057521 530.4544664463028,101.66702090442413 531.7125828836579,101.52740300598089 535.0986386772711,101.15120106301038 536.0185602275888,101.04800501459977 536.3907173263142,101.00703010091092 543.3691071146168,100.24599770444911 548.9890084409853,99.66467853751965 550.2851940125693,99.50049835437676 552.2658375680912,99.24869661824778 552.5740606578765,99.21758580679307 554.7836724338122,98.99349998589605 555.9851948943688,98.87161254871171 557.7036944498541,98.6973277850193 560.8817826703889,98.37447731150314 566.0583402382908,97.7798546323902 573.0156419982668,96.98003312421497 576.3450455609709,96.59176310681505 580.2577777778497,96.13635777198942 585.923816448194,95.4767913162359 586.9020213475451,95.3625701200217 588.3680762310978,95.1917174756527 595.6458053404931,94.3219566468033 599.8651877830271,93.81834222271573 604.5303606613306,93.31676358776167 612.2579580019228,92.48593558889115 615.8146986666834,92.07992593396921 619.0186808889266,91.71381375641795 625.363556010765,90.98825743322959 628.8029726720415,90.62138479016721 638.8194366578246,89.55267436662689 651.1531662222696,88.2724442545441 651.4541366613703,88.24137198162498 653.0755555555224,88.07119330676505 656.0635311219376,87.75767443270888 656.8086900054477,87.68003351823427 658.2755604480626,102.0885897941771 658.9106771058869,107.36680545652052 659.2246382365702,109.9726244926569 659.4440527644474,111.83399233646924 659.7238186667673,114.20786467276048 660.172055779607,118.03379030065844 660.184201785014,118.13697916374076 660.7626953386934,122.98552863491932 661.2368264533579,126.87896198319504 661.4762804338243,127.61104031041032 661.684218880022,128.24887668679003 662.1567480036756,132.80884107964812 662.9593455503928,140.52210032433504 663.4455935432343,144.86449977161828 663.466157283634,145.11074417899363 663.6697266631527,147.54969636490569 663.800798663171,147.8924462130526 667.3761806791881,147.4964710715576 668.9943373369751,147.3323230757378 669.4644197832095,147.28352985304082 669.8373924409971,147.24583688226994 671.4531315485947,147.08168871782254 673.6441602277337,146.84990062040742 675.1984120036941,146.6845942461514 677.3481384392362,146.44713583524572 679.2745764408028,146.23427355923923 682.8879693369381,145.84831796278013 683.2617575537879,145.8072707146639 683.8362024391536,145.74625883891713 687.5830848852638,145.29593642044347 689.1888625209685,145.11074417899363 691.4869333333336,144.84565309988102 695.4579197724815,144.34098501229892 699.4807233423926,143.94388607988367 701.6207504498307,143.64996457344387 703.4775746561354,143.3948942440329 703.8052837832365,143.34941439371323 703.9144813226303,143.33715599536663 705.7543826773763,143.1397437885753 707.8288446578663,142.91685627104016 712.0223622259218,142.50086823827587 713.1655722098658,142.39217936852947 715.8088866703911,142.14038197055925 719.9489851164399,141.76216629747069 723.3835666774539,141.29746173589956 724.3965202205582,141.16098105639685 724.7484631040134,141.1133445695159 725.893333333428,140.98253385041608 728.5342011164175,140.68078248237725 732.6362886826973,140.3202935254667 736.632324437378,139.88657205633353 737.8912855609087,139.74458021647297 740.7862000071909,139.4185097788577 743.3841926826863,139.12015055434313 745.5063939982792,138.87725425127428 749.3843775716377,138.51676262944238 750.1659162170254,138.42424381437013 753.4872224427527,138.03092864970677 756.8788997690426,137.77804862573976 757.8862317797029,137.5573124611983 758.3643824355677,137.4530536859529 759.341771775973,137.35322716482915 762.4130508800736,137.0382143263123 766.6858815717278,136.67771998728858 770.012809329899,136.27617626375286 770.8663793209707,136.17303500359412 772.8543337814044,135.98671777383424 774.4385282275034,135.8388538272702 774.910212664865,135.79481007962022 778.7542048996547,135.4343139032717 782.7381237760419,134.9828943135799 786.8304828872206,134.41607304435456 787.8847386738053,134.26968559727538 788.9276348872809,134.12437620345736 790.9309102081461,133.9945600159699 791.0215537777403,133.98904951487202 793.0014109014301,133.75944519496989 794.8509533298202,135.47536289674463 796.2013444553595,136.7531491194386 798.1884542293847,138.8128864907776 798.7111111111008,139.31732643174473 799.0606364445994,139.65477712341817 799.5541662152391,140.20601346355397 800.0088695466984,140.56981678691227 800.3503266702173,140.9136944815982 801.6780277760699,142.29570897226222 802.6788644409971,143.2318215893465 803.089090673835,143.74092415370978 803.4531504357001,144.02154901903123 804.3164780091029,144.79130919353338 804.6562166330405,145.11074417899363 805.5761964374688,145.97585187846562 806.0082680037012,146.2886570735136 806.7291640037438,146.6835161606432 807.7154371129582,147.01624503772473 809.839298673789,147.75493107084185 812.0003555556759,148.55350804998307 814.404157781275,149.43748978915391 816.983509105863,150.37357500515645 818.0547751254635,150.75065933330916 819.4034768784186,151.22648589877645 820.5038700090954,151.6014127812814 821.2619613298448,151.88194874912733 822.8388739983784,152.52638967416715 822.9836939948145,152.5792545172153 825.2580262115225,153.40923903585644 827.7233448959887,154.29208520276006 829.1190286792116,154.80228266643826 830.3706497707171,155.24923361383844 832.6231657813769,156.10212746373145 833.4201126685366,156.51805237983353 834.701705557527,157.0792324693175 835.8700231112307,157.6094276838121 836.7487006720621,158.160623460426 837.7875773439882,159.03347066859715 838.2811071147444,159.5004172893823 838.934020437533,160.20796249224804 840.4890877725556,162.17327521537663 841.3904262258438,163.54518770897994 842.0352422115393,164.99031695601298 842.5967546595493,166.59178725152742 842.8621317688376,167.7362984624342 842.9916017777286,168.63023200636962 843.006165333325,169.54404509975575 842.9535617706133,170.16735884838272 842.7650511076208,171.92406338261208 842.6266973296879,172.53176043200074 842.370233116555,173.66079293302028 841.8313524338882,175.29322759096976 841.5660044515971,175.81336222495884 841.3766491023125,176.22925354307517 840.85399222048,177.65322778874543 840.4872527646367,178.3829180469038 840.4615917796036,178.43394078902202 840.2844115628395,178.78658829192864 840.0699777705595,179.3643653699546 839.8450582186924,179.97208381368546 839.6484502187232,180.33363205299247 839.5796811094042,180.46007000887766 839.5416411022888,180.77055535867112 839.7156173369149,181.18647815141594 839.9971891201567,181.4403911223053 840.1970302293776,181.62004636676284 840.2471579876728,181.6655590076698 841.4980509013403,182.48614248231752 842.1048268800369,183.00626178469975 842.6364257849054,183.52637997834245 842.8556946774479,184.01435906573897 843.0458364586812,185.08561006950913 843.060370887164,185.70884419744834 843.0611864463426,185.76094332057983 843.0474384498084,185.89955487998668 843.0239619984059,186.12915006326512 842.9697855716804,186.66586938110413 842.7577693297062,187.32127696217503 842.2262286792975,187.82030695443973 841.7844286578475,188.1097438824945 841.7181062258314,188.1530196640524 841.5813835663721,188.25170757982414 841.2132460089633,188.51671158376848 840.634723328054,188.93254132953007 839.5716128995409,189.59792333992664 838.9882259912556,190.0248894810793 838.4186453332659,190.33648047584575 838.0399928889237,190.73350391513668 837.9032411022345,190.87766178837046 837.6791371094296,191.28905619238503 837.663757994771,191.31791964563308 837.615232227603,191.4066657606163 837.1904424392851,192.6952173889731 837.1807431111811,192.74180584627902 836.9250944568776,193.9848800112377 836.7729635556461,194.94075494562276 836.7956244481029,195.58508216158953 836.9477262222208,195.7935499958694 836.9889993387042,195.82013741642004 837.2268513280433,195.9709990172414 837.273775104084,196.00089986331295 837.7293231219519,196.00089986331295 838.2900200107833,195.81574610091047 838.3587891201023,195.7935499958694 838.866882446222,195.53406300541246 839.4130157795735,195.20136035908945 839.4664057742339,195.1603214123752 839.8296791040339,194.87871740286937 840.5732359966496,194.46281794650713 841.0967375646578,194.17119288095273 841.1412146631628,194.1590168782859 841.7270191219868,194.00484068557853 842.2577733404469,194.01486094325082 842.781216654228,194.2432508522761 843.5927270968677,195.01289253204595 844.1008495503338,195.61614076641854 844.5329211165663,196.38458048761822 844.8743199858582,197.1020788026508 845.5337577813771,198.20433063077508 846.467456455226,200.0539675540058 847.0248911076924,201.2848687460646 847.0888251166325,201.42682477942435 847.1543611165835,201.5199584310758 847.256306005409,201.66642529820092 847.5742866775254,202.12319058086723 847.8622955521569,202.40374831156805 848.3696024463279,202.99699830793543 848.8162084409269,203.56693371012807 849.0297975467984,203.838627599529 849.5306382222334,204.2022961435723 850.3348668871913,204.5771416387288 851.2523708872031,205.01294371270342 851.4198517759796,205.10272275540046 852.671531121945,205.7724917345913 853.1763913386967,206.0963178697857 853.6415804303251,206.39571295300266 854.2791728925658,206.98895324545447 854.4045651059132,207.12755274790106 854.6732044514501,207.42471109348116 854.931299783173,208.05786793580046 855.0073506702902,208.68104339926504 854.9992824604269,209.23212382831844 854.7945479964837,209.7211692428682 854.513820899534,210.07488926051883 853.8390331165865,210.5738727270509 853.360853333259,210.85442074330058 852.8527308800258,211.4055361833307 852.7882434560452,211.650555816188 852.7241055575432,211.89449740573764 852.7394846720854,212.37240026827203 852.8689255539794,212.70400171272922 853.1569635557244,213.09871342632687 853.8924522383604,213.58771117485594 854.8786962204613,214.19091349683004 854.910270008957,214.21087251848076 855.6967020089505,214.69655484781833 855.7355284481309,214.7209048034856 855.762208881788,214.7442168900743 856.4329479964217,215.31304707744857 857.2064475592924,215.98945430089952 857.9046826667618,216.80996228812728 858.5268668869976,217.71473330754088 858.8836739982944,218.23365984699922 859.2251311219297,218.9100988935097 859.6272308906773,219.32587685546605 860.1199742294848,219.61639410094358 860.4080122312298,219.71059857454384 860.7494402276352,219.60641481133644 861.0374491022667,219.4301405728329 861.3562453333288,219.04533857718343 861.5585039930884,218.62732476735255 861.6976733297342,218.33792403095867 862.023751338711,217.40205957600847 862.1677557759685,216.77890638046665 862.4638911148068,215.44944637164008 862.8878362169489,214.06561072164914 863.1686215681257,213.11979024746688 863.6006348800147,212.1639865137986 863.8611768888077,211.650555816188 863.9647528959904,211.4465723981848 864.5108862294583,210.88547740492504 865.1476340054069,210.46960522630252 865.6330955662997,210.39643432333833 866.2552506596548,210.51064159855014 866.8305111040827,210.89653485279996 866.892843122012,210.93757115345215 867.3928391112713,211.39439892122755 867.5557761708042,211.650555816188 867.8556106524775,212.1218327046954 868.4932031148346,212.90247536060633 868.8621562311891,213.33490944077494 869.0166755557293,213.51565891504288 869.4713788870722,213.72295380779542 869.8435651130276,213.77512678690255 870.0175122205401,213.86825572658563 870.0263959894655,213.8848616546602 870.1615457850276,214.12772322358796 870.836304440978,215.08351926651085 871.1518675627885,215.60245140065672 871.2918233314995,215.831978723465 871.5288888888899,216.12505486252485 871.754624000052,216.40411954338197 872.9528550970135,218.12947545340285 873.9763526542811,219.61639410094358 874.9545575537486,221.09220678725978 876.3809995662887,223.20228568819584 876.8583637903212,223.877513470361 877.3292326686205,224.65700086887227 878.0574104463449,225.64045750378864 879.2686031076591,227.27925037243403 879.4377151149092,227.506571341597 879.4676286578178,227.54756493371679 879.6326919965213,227.78151167952456 880.0971237831982,228.4412394965184 880.506505329744,229.1564083013218 880.5906826809514,229.30385647335788 881.455553991138,230.4991253860062 882.4790515486384,232.06799426546786 884.2088815503521,234.42628797632642 885.7105588907143,236.70253489894094 886.548778894241,237.82791777694365 887.5916751077166,239.22714523394825 888.4792364374734,240.50550589099294 889.7155366685474,242.2826986705768 890.2374071183149,243.08986705116695 890.7770742330467,243.92581016861368 891.0958413369954,244.46575509908143 891.4094529424328,244.91369934001705 891.4599302258575,244.98574233142426 891.9526735645486,245.5888670621789 893.0675719964784,247.1687745854142 893.2609468870796,247.45478848082712 893.4697008924559,247.76303333532996 893.968881322653,248.499179383507 894.0603113244288,248.6344425859279 894.2172773262719,248.86617394088535 894.4324975503841,249.18435518146725 894.8224804408383,249.74975248385454 895.8014717724873,251.1702246100176 896.1016557796393,251.60566411510808 896.9738671218511,252.9050333314226 897.8233884443762,254.06913551536854 898.3241999929305,254.79085452924483 898.846856874763,255.54473990492988 900.1365762277273,257.4249930845108 901.7142753279768,259.6699750990374 902.2231842133915,260.44930829451187 902.5791757653933,261.0934625986847 904.6269864392234,263.94145035371184 905.4611869014334,265.0833500135341 906.6626511075301,266.8914533093921 907.3123604480643,267.86923231801484 908.8900595484301,270.13519018376246 910.2857433316531,272.2137963217683 910.7404466632288,272.6915810999926 911.195179121918,273.29348003841005 912.878871779656,275.9330060625798 914.4368518257979,278.1722707259469 915.6548311042134,279.92376835638424 918.0974597689928,283.4145144619979 920.0740837833146,286.2952842132654 921.4203971129609,288.25762652326375 924.2262991076568,292.2780764156487 925.5920402206248,294.36643036454916 925.788648220594,294.66132766369265 926.1195613298332,295.16013825207483 926.2999746561982,295.43169030791614 925.8161442134297,295.7708805486327 925.2109410988633,296.19430902198656 920.0740837833146,299.78538073046366 915.8458175716223,302.74193372851005 909.9904235521099,306.866371496988 909.3204999964219,307.3329555802047 903.4417751610745,311.42631183099 901.5872811235022,312.7176217265078 901.0273706668522,313.10331354360096 897.8516999965068,315.2924003333319 895.8014717724873,316.70554833847564 892.1978073315695,319.1893907075864 881.4434371130774,326.57760504900943 876.4837600141764,330.05878671963 875.9287137850188,330.4478425650741 871.5288888888899,333.53576931532007 871.052340224036,333.8702385062934 870.4422728818608,334.29471807094524 870.2885399895022,334.4011271101772 870.1178259912413,334.5208222620422 863.5974017706467,339.0547516149818 862.8692239930388,339.5601344142342 861.4711226596264,340.5331938425079 855.5108419130556,344.6758644891088 853.8366155662807,345.8394893074874 852.7200568889966,346.6197045028093 848.6236491093878,349.4800200719037 847.256306005409,350.4350070853834 843.4382368995575,353.10166596766794 843.4293240037514,353.10721141967224 842.0766900907038,354.0579553603311 836.2187328854343,358.17051560251275 834.130464654183,359.6588555708877 833.6191382186953,360.022292076319 833.0762671219418,360.40906611684477 829.8172346595675,362.7317320787115 823.9076933404431,366.86528960370924 822.9836939948145,367.49859159020707 819.5119171129772,369.8781966603128 815.34432267386,372.7083207439282 811.5852942222264,375.2591701586498 809.8409006649163,376.4792154522729 807.7811187484767,377.9208508376614 806.7615242239553,378.63446498371195 804.5171055502724,380.20457630761666 798.7111111111008,384.2856616974459 793.7012480001431,387.80702747171745 793.0596651236992,388.10731672210386 792.4123733333545,388.4097995298798 787.8952535609715,391.59875050449045 784.510042453534,393.80923213565256 781.1312975645997,396.3133514628862 780.2121333192335,396.9959187700879 774.4385282275034,400.9957519774907 771.3502388908528,403.1352690879721 770.4739788800944,403.75240255350946 761.938162460574,409.76091628550785 759.9340133263031,411.16131271404447 753.7995233280817,415.4478878522641 752.354498218745,416.45833631505957 750.1659162170254,418.0092991683632 743.9343455573544,422.42545700544724 743.2126339982497,422.92073622893076 742.677831111243,423.2885456130025 739.5442491164431,425.4411487010075 739.0490882275626,425.7901292943279 734.7318095645169,428.83453507971717 732.9210644480772,430.09196214959957 732.3207255608868,430.5084973986959 730.7478615608998,431.62521037930856 729.8351926614996,432.2722235683468 728.0495259875897,433.5285162431537 726.490468238364,434.6241577109904 725.893333333428,435.05432486202335 723.0655860053375,437.09128724824404 714.9520544427214,442.93722513277316 712.9144673849223,444.3972919329535 705.0666624569567,450.0203679119586 704.8231015538331,450.1942824043217 704.4565659877844,450.45680890773656 701.6207504498307,452.46616617630934 699.4928402205696,453.9739110423834 694.2022500124294,457.72472899314016 684.3119355450617,464.7453943293076 680.0342988799093,467.8967821993865 677.817434453289,469.28914929932216 677.3481384392362,469.5832373343874 677.2130177706713,469.6679744992289 677.3481384392362,469.75789555261144 678.9517606685404,470.82550116610946 679.4582520036492,471.16333139606286 680.5780146631878,471.687262411695 681.7180206649937,472.2211612763931 681.7908384426264,472.23551659617806 683.0182257778943,472.48478063824587 683.766617770656,472.63650818611495 685.3896386560518,472.5955158381839 685.7942142294487,472.5091447790037 686.0725237760926,472.4504475320573 686.6324051059783,472.1801688589039 686.8459942116169,472.00515348877525 688.437499562744,470.70475625398103 689.2263491130434,470.24837344285334 690.1211922205985,470.0822092141607 690.8955073422985,470.0822092141607 691.6988913208479,470.331475452811 693.9595046686009,471.224262011121 696.3406460018596,472.55348671163665 698.0243677868275,473.902602114249 698.7379528817255,474.815273483051 699.1174208853627,475.70916016818956 699.2339293297846,476.74479978653835 699.2387935573934,476.7891010752646 699.1934717724798,477.53679875365924 699.1686554738553,477.62871066172374 698.9806690987898,478.3254057879676 697.8738388766069,480.4642458210583 695.5833411129424,485.0132509719697 693.6059597940184,489.5754092981224 693.4594795519952,489.91321360727306 692.0209206615109,493.64689302275656 691.5637997796293,494.8341703891638 690.9424311183393,498.59205641929293 690.790329344105,499.9421843451564 690.9262655714992,502.0398876516847 691.1996817635372,503.7642634761287 691.205361550441,503.82406958250795 691.2749462188222,504.59488924237667 691.33646267734,507.0856731070671 691.4424271075986,508.87101429881295 691.6413361493032,510.85561071819393 691.7919524408644,512.3596064675949 691.9893759998959,514.4571633253363 692.0654268871294,515.4948714038474 692.0249693298247,516.6233559969696 692.0047551149037,517.1981017031358 691.9545691023814,517.8283030752209 691.6560162133537,521.5991115474026 691.6689777778229,522.2546973145218 691.6762595556211,522.6423309079255 691.6859880107222,523.1152007997152 691.7684759893455,523.7819055264117 691.8073315556394,524.0908384103095 691.955413788557,524.8527436123113 692.3081431041937,526.6656227268395 693.5371615574695,531.6478314968408 694.8260362241417,536.3807799521601 696.2370991219068,541.1557338296552 697.1995753814699,544.0780338983168 697.2079931164626,544.1034672352835 697.8147982223891,546.2007516910671 697.9054126651026,547.5085605503409 697.7387473351555,548.7121594786877 697.4353593458654,549.8959005990182 696.7686397725483,552.1171487318934 695.5558451201068,554.5465385324787 694.9013006791938,555.7080879785353 694.8859215644188,555.7346761111985 694.5849219983211,556.2695075449883 694.365682233125,556.5341524045216 693.6892633315874,557.3490925407386 692.8599270969862,558.1441388863605 692.3704459947767,558.6147078417125 691.156806656043,559.6942824803991 690.9157215574523,559.8659664175357 690.2644102259073,560.330991307681 689.3816839965293,560.9599255009671 686.605724671972,562.2886223905371 685.0870370988268,563.0769560118788 684.4753677652916,563.3947282428271 683.4049755592132,563.9495132424636 682.6314759964589,564.509797778388 681.7819255468203,565.4442934029503 680.7204171095509,566.8349887959193 679.4768351005623,568.2688449015259 678.2632248888258,569.2653484168695 677.3481384392362,569.7968020107946 677.1555791076971,569.908649068675 676.2299777707085,570.1577337972703 675.3351346632699,570.2197558153421 672.9693724444369,570.136727621837 669.9660468907095,569.970671149902 668.555013120058,569.9916374797467 667.3721320107579,570.2828938947059 664.6115226739785,571.1963215068681 664.2433559894562,571.3424871463794 663.3072688924149,571.7144976366544 662.5030402276898,572.2958102275152 661.6988115627319,573.0852276429068 660.1065197796561,574.4548737649457 658.8629377706675,575.2021930116462 657.2852386703016,576.0325760521227 656.2229146739701,576.4478263031924 655.1007053368958,576.6969043693389 653.7810724409064,576.8840415874729 653.0755555555224,577.1768841419835 652.7888865281129,577.2959023984731 652.431496874895,577.4442964798072 651.0657848888077,578.544793423207 649.882903779624,579.74831926974 649.8311157759745,579.8202635812922 649.7348506739363,579.9509191797697 649.504251335049,580.2675933046266 649.2153977742419,580.9108650056296 648.9427388871554,581.8663429658627 648.6449724304257,584.0131255411543 648.5179782258347,584.9365060882992 648.4241306738695,586.9846949423081 648.3367493404076,588.881251184328 648.2752620090032,593.530031570408 648.2752620090032,595.2947737482609 648.5276775539387,596.9499004617101 648.6296224427642,597.620787945867 648.7307808995247,598.2839416555362 649.3683151076548,600.5878079182003 650.2178364304127,603.119660403172 650.308480000007,603.9079420831986 650.1110564409755,605.2164784817724 649.7785122133791,606.6689205753501 649.1102197760483,608.3505527055822 648.2307557831518,609.6380226933397 647.4324981761165,610.5092580179335 645.5308473458281,612.584930492274 643.4684731166344,614.5764962212415 642.5274926649872,615.6137395365513 641.9813884586329,616.6310921360855 641.5113060123986,618.021496401343 641.0412235663971,620.2421655174694 640.60187022225,621.9867493277416 639.9796860020142,623.5431831945316 639.2361291093985,624.6634380327887 637.8558244409505,626.2198548623128 636.6421851022169,627.1109165722155 636.6122715593083,627.1330735216034 635.1559160037432,627.7762219347642 633.3015093476279,628.3562854387565 633.0320544426795,628.4403698252863 632.0312469048658,628.5654602407594 628.8029726720415,628.5654602407594 628.1022908871528,628.5654602407594 627.2770324480953,628.590964490897 626.1305602275534,628.627467444283 625.2211244375212,628.8356059051584 624.3408448853297,629.2296458379715 623.5374317795504,629.9557966477005 622.884489329881,630.9310079743154 622.5511295431061,631.719200001331 622.3254235592904,632.5792784272926 622.1255533227231,633.3386538713821 621.9588879930088,634.9779818420648 622.0495024357224,636.2022702945396 622.1368837689515,636.647265330248 622.3011606757063,637.4907094168011 622.3537351111881,637.7585738346097 622.7631457848474,639.3149073188542 622.878023111145,639.7200082700001 623.1781779911835,640.7726459675469 623.4306226631161,641.6593111907132 623.8707624393282,643.0086093734135 624.0345441850368,643.7181425326853 624.2348804551875,644.585909228248 624.4015166577883,646.68237176619 624.5075393421575,649.0897828961606 624.6110862222267,649.9354553437443 624.8424719930626,651.8292919818196 625.2219399965834,653.592457922874 626.2980411165627,656.1658787805936 627.5869157831185,658.4071602895856 628.8029726720415,659.6632077186368 629.2382482204121,660.1127821158734 629.5181888854131,660.4016600260511 629.6953982294071,660.5853861992946 631.5158135467209,662.1614968832582 634.7627000038046,664.9849313719897 636.8444728889735,666.7635416988633 637.5087166577578,667.3301649697823 637.5281444409629,667.3523182753706 638.540340679232,668.5332539060037 638.8437286685221,669.1541801544372 638.9496930986643,669.9012100361288 638.9044004408643,670.7313113947166 638.7069768818328,671.624482010142 638.38902533683,672.4545376767637 637.9901295503369,673.1473309855792 637.7870844586287,673.500420540222 637.6600320001598,673.7206729402533 637.5095613440499,673.921003641386 636.4771508907434,675.2978145775851 635.2375592960743,676.9224781691446 634.6413564586546,677.7038284643786 633.8047384462552,677.6960591988754 632.4123168995138,677.6839072701405 631.7844237653771,677.5809943550848 630.3790697813965,677.3518605662975 629.1047295432072,677.6839072701405 629.0562037759228,677.7204427389661 628.8029726720415,677.9072237642831 627.5877022150671,678.8039539739257 626.434763776022,679.5509543830412 625.2526982257841,679.7590495091281 624.2211033316562,679.7590495091281 623.0681648924947,680.0489799496718 622.1709042347502,679.9084173164447 622.0058408961631,679.8829582594335 620.7622588871745,679.5099967151764 619.4272760037566,679.2610233522137 618.5170537813101,679.5930276222061 615.3017411129549,681.3360725270468 613.0257777777733,682.4561025068979 608.263524238253,684.4061026241397 605.6242293192772,685.316952615336 604.5303606613306,685.6940886189695 603.3450620019576,686.1026586069493 601.4072935538134,686.7722656914266 593.0332491094014,688.5573311335756 590.9708748800913,688.9302788824425 590.8365988978185,688.6989644925925 589.6658346666954,686.6903527675895 580.2577777778497,687.9682071927818 576.8328955448233,688.4333470961428 576.3555313210236,688.5440642071771 575.4072982186917,688.7653389162733 574.4064906809945,689.3463733176468 573.7389846756123,689.6784037388279 573.6483411057852,689.9273664983921 573.4412473457633,690.731941966631 573.2535231147194,691.4623324485146 572.8594915556023,692.168418331712 571.7364957868122,692.9984042833094 569.8861086720135,693.8693426888203 567.2169293371262,694.7413536626846 564.3948326683603,696.1944593415246 562.8478626703145,697.0244316324242 561.6034651022637,697.4803514677333 558.9650731235743,698.061325328832 558.32748066145,698.3523894078098 557.6907328853849,698.5183985625044 555.9851948943688,698.1406847453327 555.6267566649476,698.061325328832 554.8379071146483,698.061325328832 553.8977422222961,698.3512739152065 552.0465686755488,699.4723016343196 550.5610860090237,700.8412002237746 549.5594337849179,701.9622165320325 548.9226860089693,702.2111667892896 547.4056295537157,702.3351438434329 544.3836917761946,702.3351438434329 544.2202595554991,702.3351438434329 543.4920817780076,702.5011502951384 543.0365628872532,702.3351438434329 542.2792871253332,701.7962097143754 541.7023955626646,701.8791932179593 541.1869913316332,701.8371636505472 540.3067117797909,701.422166102624 539.6699640036095,701.3812120970106 538.9716997690266,701.5881731740665 537.2427144534886,701.3812120970106 535.7863588979235,701.3812120970106 535.0880946631078,701.7076886345167 533.5710673352005,702.2886922938633 531.8266737778904,702.6206653094268 531.7125828836579,702.587121434568 531.5896373476135,702.5509083865327 531.1446333441418,702.4192426383379 530.416455566301,702.0042859162786 529.1421153281117,701.7962097143754 527.5037444551708,701.424397060182 526.1986459876643,701.8393547656597 524.591033344157,702.2123221027432 522.0431975537213,702.2953054653481 520.6475428978447,702.1702925926074 519.7979924480896,701.7552557714516 518.2202642206103,700.9673690950149 517.4313855433138,700.7183378943591 516.1571035592351,700.4273164693732 514.7913624462672,700.3443324731779 513.8204684515949,700.759292011091 513.3730177707039,701.2650429153 513.3058797797421,701.3402979230741 512.9417908907635,701.9633320081048 512.729017344187,702.7102616935736 512.668345571612,703.8301938068471 512.7896891164128,705.0341788507067 513.184507107595,706.4030463158269 508.5198293903377,710.1223067071987 507.4399999999441,710.9832249050378 506.05486023111735,712.0876226341934 505.59607910423074,712.2447388703004 505.2514179982245,712.3620581034338 504.84122089250013,712.5025622519897 496.5627133724047,710.1223067071987 496.04320221883245,709.9729175115936 494.92102200887166,709.5989262397052 492.8578322206158,709.1839020222542 491.21946134767495,708.685935771442 490.1878373262007,708.0651895425981 489.4289304461563,707.2761678998359 488.5793799965177,706.8611795791076 488.3916557653574,706.8191110300831 487.4571706596762,706.6122340540751 486.72983756801113,706.4041617717012 486.5777066667797,705.7822544560768 484.97003576892894,705.4911992176203 483.69572465785313,704.9932254496962 483.1674171164632,704.7172678699135 482.6641588907223,704.4543370151077 481.3898477796465,704.0802974678227 480.29758111306,703.9972748727887 479.26598621869925,704.1223664879217 478.6591519858921,703.915407554945 476.1421035520034,702.7954758318374 475.110537784989,702.5055723517435 471.53032066859305,700.7205688580871 467.8586735504214,699.3095997530036 466.34164622228127,698.8547988174832 464.2186002205126,697.8997778429766 463.15709178324323,697.5268437694758 462.21611133159604,697.6097888823133 461.15460289421026,697.7757985409698 460.4870968888281,697.7757985409698 459.1521140054101,697.2778090661159 458.8948051058687,697.1841072533862 458.061449329718,696.8805322559201 455.96671488007996,696.1158164028311 453.5702235592762,695.120945187984 450.41398067213595,693.418953858898 450.34194932633545,692.7294450008194 449.80796199827455,687.6520310756168 449.337093120208,683.2108608526178 448.63314909872133,676.9224781691446 448.25939000898506,673.583453487081 447.8273184427526,668.6616706997738 447.22779511485714,663.664482444583 446.5004037688486,657.7663636303623 446.40818733512424,657.0192169910297 446.0141557760071,653.2482253666967 444.9502297885483,643.7181425326853 444.86043090489693,642.9134123888216 444.85553755040746,642.6355915925815 444.8474693404278,642.1120268444647 444.8320902258856,641.1944011086598 444.07152310048696,633.5755198688712 443.16133000538684,623.2819185128319 443.05047222052235,622.0542975517455 442.2195631219074,612.8628252852941 441.9171072000172,610.5092580179335 441.63375866319984,608.3040434478316 441.18793910054956,602.901576261851 440.64020377595443,597.944095033512 440.1563733333023,593.5610396168777 439.35861088719685,586.3635998663958 439.09404933685437,583.972151868511 438.5458188515622,577.2959023984731 438.21455621684436,573.2612468513544 434.6222222222714,574.9472939892439 429.61818453343585,577.2959023984731"/></g></g></svg>