<svg width="1200" height="800" version="1.1" xmlns:xlink="http://www.w3.org/1999/xlink" xmlns="http://www.w3.org/2000/svg"><g class="geojson-features"><g class="geojson-feature" stroke="#555555" stroke-opacity="0.0" stroke-width="0.0" fill="#111" fill-opacity="1.0" data-properties="{&amp;quot;N03_002&amp;quot;:&amp;quot;胆振総合振興局&amp;quot;,&amp;quot;fill-opacity&amp;quot;:1,&amp;quot;description&amp;quot;:&amp;quot;勇払郡安平町&amp;quot;,&amp;quot;N03_001&amp;quot;:&amp;quot;北海道&amp;quot;,&amp;quot;stroke-opacity&amp;quot;:0,&amp;quot;N03_007&amp;quot;:&amp;quot;01585&amp;quot;,&amp;quot;fill&amp;quot;:&amp;quot;#111&amp;quot;,&amp;quot;N03_004&amp;quot;:&amp;quot;安平町&amp;quot;,&amp;quot;title&amp;quot;:&amp;quot;勇払郡安平町&amp;quot;,&amp;quot;stroke-width&amp;quot;:0,&amp;quot;N03_003&amp;quot;:&amp;quot;勇払郡&amp;quot;}"><title>
      勇払郡安平町
    </title><desc>
      勇払郡安平町
    </desc><polygon points="460.4000000000233,562.2093509672268 459.92103378492175,561.8835973450041 459.49624399642926,561.5322479697061 459.2078127786517,561.2227496153791 459.0714833351667,560.9027824945515 458.87405977596063,560.6962576396181 458.8016497778008,560.6632080794661 458.6009931093431,560.5723663511744 458.418963228527,560.2215485274501 458.0852102258359,559.7671988023503 457.963837553747,559.3134223523375 457.81214355910197,559.0859783705964 457.55444144358626,558.838152772194 457.37241156271193,558.5181596207258 457.03865856002085,557.6298273045104 456.8412350009312,557.155106355116 456.696007224964,556.8946276348433 456.5074819982401,556.55591327211 456.23442989517935,555.926422324148 456.06735678581754,555.5342924443248 455.8852977777715,555.2038420495519 455.59725977596827,554.8117296923301 455.5365880035679,554.4812773558369 455.4455512177665,554.1298870038008 455.30881399463397,553.9029885868076 455.1417408853886,553.7118971275631 455.003401671187,553.077434871695 454.4730261049699,551.7121006490488 454.2250961351674,551.1244601937651 454.20764899556525,551.0831400695315 453.9952686649631,550.8352983421937 453.8435601067613,550.6491589628567 453.5705080035841,550.2773750450579 453.2820622222498,549.4512219885946 453.1607041138341,549.1108612561657 453.02396689075977,548.9968522950658 452.92120644269744,548.9654452861578 452.8572869973141,548.9456176248495 452.79498410673114,548.9368141421874 452.6610867768759,548.9180968257133 452.56157400179654,548.9043364238169 452.4705517795519,548.852546540118 452.3495868871687,548.6664041593322 451.3402596694068,545.6205925718532 450.422755669395,542.7498720597068 450.08091989334207,541.5728172219242 449.82888300088234,540.9069030885876 449.70953466312494,540.5912851400499 449.51981522492133,540.2200656817004 448.617267996422,538.6298631327227 448.2637085582246,538.0561795515532 446.91778844449436,535.87244539737 446.1066275271587,534.6005771272758 445.5698439964908,533.7589107331005 445.31741388805676,533.362843267445 443.7700361103052,531.1534245350049 442.29870921955444,529.0463925933 441.29746477515437,527.6422596717312 440.9107295573922,526.9195329879585 440.84235366404755,526.6407851106196 440.82739689253503,526.278883910476 440.82981444266625,526.1995586105331 440.9333758862922,522.9433100303868 440.94875500089256,521.0113348679442 440.9637117724633,520.6394811491191 441.0547485582065,520.3502475907444 441.2444679964683,520.0610530165432 441.51712688361295,519.7305072670861 442.16197199648013,519.1217510097194 443.4351180231315,518.0744928017084 444.0961141191656,517.5307400491438 446.78833299910184,515.424049763591 448.2637085582246,514.231977324438 448.2972921173787,514.2048652521626 449.68809710943606,513.1294611724734 450.18244243913796,512.7730140719214 450.6950067768921,512.266703504516 450.92560611560475,511.9774502450309 451.0235023360583,511.7763569477247 451.0898393315729,511.51302518392913 451.2112120036036,510.8100374818314 451.27390811033547,510.634270094306 451.42197577957995,510.3918606308871 451.6723815537989,510.1852707451326 451.7642047716072,510.1191444545402 451.9462637795368,509.9891131686163 452.16511032899143,509.82383677951293 452.3410963342758,509.62218460673466 452.5170677760034,509.36378690594574 452.57572977774544,509.13129197989474 452.58706022403203,508.9924533055746 452.58706022403203,508.8943934387935 452.5247573333909,508.85307895290316 452.44263344357023,508.8216616869613 452.1764407751616,508.79577813792275 451.4373548942385,508.775943997025 451.33175455289893,508.75004060420906 451.2103964444832,508.6723502272216 451.1792449991335,508.58970125814085 451.1359475485515,508.41450588728185 451.12827255472075,508.22332387720235 451.1909832249512,507.8872521966696 451.59794722136576,506.5341100974474 451.6367882240447,506.32253525877604 451.61736044089776,506.19858916592784 451.55871300271247,505.9501015674323 451.46889955562074,505.728053037019 451.29777777777053,505.4922388434934 451.0384736711858,505.1341233124258 450.6788412302849,504.8035374204919 450.5497790009249,504.67461126015405 450.43246956088115,504.4580745108251 450.3855312213418,504.23108440093347 450.3778562276275,503.8949819697009 450.3620693333796,503.40406646899646 450.33455877687084,503.05806407905766 450.25649811909534,502.79469380146475 450.18204922316363,502.54179591842694 450.01416055468144,502.27017309490475 449.9550907733501,502.17484512363444 449.83778133336455,501.84427110734396 449.82240221864777,501.71534184284974 449.7991150934249,501.5461864427198 449.7868088889518,501.4569275190297 449.8183535502176,501.2971340485674 449.9122156658559,501.1373602055828 449.99838822404854,501.0387188454624 450.22492433077423,500.88388368525193 450.5457303324947,500.7444803022372 450.7374886685284,500.70318291222793 450.8705850027036,500.6464138549636 451.0267354453681,500.5174833338824 451.12422388629057,500.3879972836585 451.2221201067441,500.1813905829331 451.2532715520356,500.05741846145247 451.2229356658063,499.55490362492856 451.2027068871539,499.21607091717306 451.07326600537635,498.36862801614916 450.9171009990969,497.6352558177023 450.80746655294206,497.36635951625067 450.64929177594604,496.95640855655074 450.60035822942154,496.8291403943731 450.5493712213356,496.60211635837913 450.5182197759859,496.32827859491226 450.5182197759859,496.17343750045984 450.5380553387222,496.1249578760762 450.5728331094142,496.03900766026345 450.6824675556272,495.98775091403513 451.27916555380216,495.91338495429954 451.34752688359004,495.9050934148254 451.44138899911195,495.89959878183436 451.5271537777735,495.8637943986687 451.6133263359661,495.7860760396288 451.6562014435767,495.6880056358641 451.66792510583764,495.5590699131135 451.64446321775904,495.4345575491607 451.6133263359661,495.33150795067195 451.2103964444832,494.63394221739145 451.1752108942601,494.4945317451493 451.186934556521,494.27795722312294 451.2573202204658,494.1077204149042 451.3511823360459,494.00909324915847 451.77755955205066,493.6321986847033 451.8908348871628,493.50326080515515 451.94949688896304,493.3891804239538 451.9693324516411,493.2811897863576 451.96122055110754,493.0073446233291 451.972958776867,492.70261305524036 451.9887456711731,492.56320039217826 451.9575942258234,492.38248738492257 451.8006282240385,492.03641429153504 451.741980785795,491.92292765452294 451.72255300270626,491.8402674214158 451.6756146631669,491.58679156255675 451.62828310765326,490.8015843848407 451.5971316622454,490.65169559407514 451.4838708907482,490.3105967446172 451.2803743289551,489.9127824443567 450.95958289073315,489.32921069764416 450.79938377952203,489.0046525147045 450.73263900447637,488.80245040910086 450.6428109938279,488.4409535563318 450.541288448032,488.1929855014605 450.47088822047226,488.08443484824966 450.38066699384945,488.0486281881749 450.2706393315457,487.99681265931576 449.7669878898305,487.759317926917 449.6262019982096,487.6970478905714 449.3523197724717,487.4386040896061 449.270210446266,487.32013396779075 449.21558254939737,486.942663434369 448.9892212053528,485.01563726499444 448.924733781314,484.46679855903494 448.83168722491246,483.673828829953 448.8045698844944,483.44624485846725 448.8163081103121,483.23463026975514 448.8082253369503,482.80038972373586 448.7968948907219,482.2063293483807 448.7536120035802,481.87072215558146 448.6637985564885,481.5604875353747 448.56185366760474,481.23477803444257 448.53839177952614,481.0435735775973 448.53839177952614,480.9195821491594 448.5816892302828,480.76474147764384 448.6674394453876,480.5944462715415 448.67917767120525,480.4649392281717 448.5934128925437,479.876938237343 448.6403366685263,479.5876285757986 448.7734330027015,479.30879317206563 449.21154844446573,478.56483222177485 449.4069476693985,478.15094991595834 449.69617988268146,477.3865872505121 449.84060666314326,476.75395292660687 449.891593671171,476.52911380823934 449.94620700448286,476.1053247775999 449.8887537777773,475.9344676096516 449.85234488896094,475.8264616323286 449.69578666670714,475.464390938374 449.7034762240364,475.1855263385514 449.8834963342524,473.79125336551806 449.99311621685047,473.37793033669004 450.0869783324888,473.09906100164517 450.37622510944493,472.4062893779774 450.60318355908385,472.04478396789636 450.8681674525142,471.7400202524441 450.9082026667311,471.69371340211364 451.06436767289415,471.455631633813 451.2366836622823,471.2390363443992 451.3463181084953,471.0219049867883 451.3851591111161,470.80477324544336 451.47051611030474,470.39582488517044 451.5186632249388,470.1638315973687 451.61251077684574,469.8744792252546 451.8232745529385,469.4715989579272 452.08664189156843,469.0257427263132 452.40747702051885,468.482883994031 452.4644933404634,468.38643857307034 452.57411322311964,468.16985771391774 452.61334744183114,467.98410896683345 452.615371775988,467.9091506768309 452.6210369991022,467.71514777542325 452.57734633248765,467.3684893428872 452.5271748835803,466.97167217111564 452.4410314525594,466.5169776392868 452.4017681067344,466.2276365197904 452.0700394382002,465.5943693468871 451.8386536675971,465.1529236297356 451.76057844626484,464.9049085752922 451.73711655818624,464.59461127538816 451.744791552017,464.1090546466876 451.76826800359413,463.8918908472406 451.97942499554483,463.60254354579956 452.39409311302006,463.292778676725 452.57370544358855,463.12743947329 452.6756503324723,462.9516435562691 452.8552626631572,462.7036240583111 453.2230070044752,462.4346513071796 453.38724022044335,462.3007004352403 453.5199433386442,462.1971071633161 453.66840422403766,461.87688216840615 453.80150055821287,461.6079076072783 453.80919011560036,461.59854229769553 453.9345968924463,461.4431217063975 454.0753682204522,461.4221687812824 454.14859377779067,461.4596499108593 454.31081722315867,461.54340203892207 454.4455301120179,461.6431664041593 454.6235841422458,461.7848959506664 454.9664539307705,461.3677625898272 455.1487896462204,461.1621815735125 455.2578124231659,461.1015052460716 455.65462562139146,461.09598921475117 455.83189321955433,461.0881516880181 456.09364400361665,460.9950140520523 456.3400011093472,460.69573897655937 456.55610971024726,460.04393069670186 456.6547486720956,459.5173424806271 456.7235032177996,459.1480607058911 456.76113544538384,458.70161142767756 456.6697054436081,458.3190725533059 456.4646068907459,457.78170253516873 456.23725522495806,457.1511499318003 456.1725202204543,456.7895797909878 456.07423078402644,456.46934070126736 455.5661083307932,455.1470434484654 455.4047004444874,454.87144648612593 454.99894522316754,453.9316659186443 454.05793564452324,451.94790584620205 452.24966633250006,448.1357272217574 452.1412552249385,447.8198709372955 451.78039944538614,447.35022247434244 451.6007725511445,447.14130403628224 451.25611144537106,446.74110755196307 450.7399062186596,446.2141646479722 450.5287492267089,445.90435593234724 450.176777216082,445.28422020276776 449.9502411094145,444.6017894613615 449.73908411728917,443.6404385633941 449.6136627768865,443.2479304263252 449.6909370026551,443.1840105588781 450.3361898951698,442.64875726183527 450.7358575502294,442.3174475587439 452.11252132989466,440.9950178125582 452.92605610674946,440.2921425330569 453.41110988805303,439.8991077200335 454.0834655573708,439.589302922308 454.99853744357824,439.24752645834815 460.4000000000233,437.71208068708074 460.90164167119656,437.56947000228683 465.18290466140024,436.3065068387659 468.4705836374196,435.4106820268207 468.77809311292367,435.3268922343559 469.98969355376903,434.9415616527549 470.3776521102409,434.81805953203 470.3339760071831,434.5446397237538 470.08922089246335,433.0092939339229 469.44478355912725,430.4358667082852 468.7469416676322,428.11982343159616 467.9046875591157,425.65049352150527 467.4164006685605,424.1773388180882 467.34884033421986,423.97389866109006 467.08588077512104,423.17998262957553 466.6914560000296,422.01172585695167 467.90508077509,421.5882846151362 468.46579222765286,421.34018158740946 468.8905528889154,421.10200220922707 470.550798222248,420.10019483900396 470.6883510045009,420.01697020680876 471.10542210849235,419.72749969005235 471.5075364409131,419.42756829425343 471.86435811553383,419.1673135505698 472.1817125547677,418.8712512757338 472.25027777423384,418.8072790237493 472.53629144182196,418.4438890059828 472.6143666631542,418.3447048604139 472.84981566586066,417.92843624571105 473.024185116461,417.6312594479532 473.1532182187075,417.27729418722447 473.7600378880161,416.2539590607048 474.41985433601076,415.1892694127746 475.13265299913473,414.38261283331667 475.7770903324126,413.5764868922415 476.23220144363586,413.02844050328713 476.52064722497016,412.64633500014315 476.7403093333123,412.12968677005847 476.9984046649188,411.1989482722711 477.2253631146741,410.09284723730525 477.6197878898238,408.4590755221725 478.0676172231906,406.1646917486796 478.31802299735136,405.130226924055 478.32409600005485,405.1230806061358 479.62227677868214,403.52783339322195 480.59270473959623,402.329592800088 480.7525834525004,402.1321909649414 481.7910232178401,400.8396219511051 481.9350422187126,400.6537713558937 482.7469750044984,401.22285602791817 483.14139977958985,401.4809254393622 483.3764410027652,401.69819961179746 483.8695775573724,402.0500062778301 484.6725974471192,402.27686764267855 484.85928766580764,402.329592800088 485.51525933510857,402.51486517098965 486.07190755556803,402.722747862892 486.622482773324,402.9278708806669 488.29892278049374,403.41366942590685 488.78436977782985,403.56918331384077 489.7933037796174,403.9000218795554 490.7714941155864,403.11371803391376 491.1958615609328,402.81374605797464 491.68251733336365,402.5281059908739 492.02071222051745,402.329592800088 492.12873011198826,402.2661677679571 493.1150032214355,401.81125349455397 493.6611365546705,401.3149670184939 493.93381000543013,399.83655742157134 494.0021713351598,398.9377071306226 494.24488755199127,397.56242049564025 494.58633011201164,395.5126536054013 494.6239623395959,395.2876657277229 494.7756563342409,394.2845558421395 494.86667855648557,394.0154530685104 495.109409336932,393.8191297655285 495.9585374435992,393.1788781637151 496.7397120000678,392.5375114598719 496.80888888885966,392.5085261956847 497.232848554675,392.3307232885563 497.94566178141395,392.1862532736559 497.4148929991643,390.2941111951077 497.52856155025074,390.2317917299806 498.6887963306508,389.82866999151884 498.79559088358656,389.30916611739667 499.048836551141,388.07550684415037 498.7413853298058,386.90193273159093 498.8231160035939,386.571028507693 498.8514275556081,386.2428830891149 498.6887963306508,385.89931024287944 498.6122939733905,385.78568579550483 498.4396138951415,385.5292312791571 498.3469605547143,385.0301192618499 498.3020611128886,384.52439376240363 498.31055166583974,384.2778835929639 498.3400865565054,383.43848257506033 498.4383759929333,382.838441743399 498.5524668871076,382.2494371270586 498.5205144462525,382.0244050885958 498.43879833602114,381.4436561273469 498.1580421120161,380.90592977640335 498.2187138844747,380.4509164983756 498.2939783396432,378.2586012824031 498.14994477515575,377.50354437198257 498.11960888886824,376.54218429353205 498.2106311111129,376.1390176018176 498.3320037832018,375.5698166502116 498.43798277695896,374.5152778958145 498.4913873351179,373.75026998340036 498.4836977778468,373.15016193999327 498.40764689067146,372.7673961966357 497.74056322843535,372.54345872072736 497.1410107733682,372.26106420491124 496.8453123414074,371.9615529565781 496.80888888885966,371.9137986759306 496.4508584392024,371.4441973786161 496.2611390009988,371.0928391232155 495.5980894435779,370.32562566603883 495.20689777785446,369.87277725100284 494.846813866694,369.2395690169651 494.7894043306587,369.138617582561 493.8338748870883,367.9185362869466 493.45481466315687,367.6388912467228 493.25781344715506,367.6493558564107 492.90869589336216,367.58758088969626 492.4839061049279,367.514785276755 492.0591454435489,367.4634947247687 491.62710300454637,367.3702661986172 490.9442324480624,367.101084565802 490.6485048888717,366.842386878212 490.2617696711095,366.656504667626 489.94297344004735,366.43974432811956 489.60923500097124,366.31561728855013 489.31350744183874,366.20201442806865 488.8131036728737,366.1501474691613 488.1002758827526,366.26379009205266 487.3567481173668,366.39836204316816 486.66659578320105,366.3360304465168 485.8170453333296,366.10878494381905 485.490981888026,365.7982577717921 485.0055348907481,365.1986668575264 484.73975000187056,363.83400330060977 484.6725974471192,363.5119926741754 484.41409433603985,362.27243451061076 484.09369611379225,361.1422020046448 484.0649622187484,361.04124391064397 483.77653100097086,359.6969483932771 483.678227000928,359.3251819067518 483.1774008888751,358.3736086715653 482.8893628871301,357.4948892336979 482.81331200007116,357.18708076077746 482.4415335537633,356.46057026906055 482.16846688714577,355.75725063617574 482.03213744366076,355.1680962029495 481.895414784085,354.7852545224305 481.4706249955925,354.412897244998 481.4176427805214,354.1960954234237 481.39498188806465,354.0306092649116 481.81975711288396,353.823756217811 482.21418188803364,353.7509325822175 482.5479348907247,353.58544582349714 483.0863786666887,353.3063043265429 483.404752554663,352.9339425622311 483.708169671183,352.7888502536807 484.0974535110872,352.69122166154557 484.3679715555627,352.62334233833826 484.6560095573659,352.54060815635603 484.6725974471192,352.534372308437 485.1491461119731,352.35472414520336 485.3235009991913,352.2614841425093 485.61962177423993,352.06509405211546 486.1277442275896,351.8168504909263 486.7875461119693,351.6199036220496 486.93925467017107,351.4753658278496 487.24226400716,351.3821251570771 487.51531611022074,351.1129481779644 487.93280955735827,350.78194746380905 488.5319396692794,350.4823837991571 488.83129355381243,350.35273947258247 489.19944567466155,350.1927691473975 489.59467144537484,350.05815956759034 489.6242063360405,350.04822967245127 490.018631111132,349.93459189485293 490.3370049991645,349.7067599481088 490.5947071146802,349.6036078624602 491.1331508906442,349.5721498353232 491.4895502222935,349.4794637953455 491.9826867769589,349.4380956517707 492.30875022220425,349.3139712771226 492.8852340054582,349.13797262872686 493.3480201102211,348.8687907276035 493.6514372266829,348.76561807774124 494.0232011093176,348.7761041565682 494.4783267839812,348.6828614351689 494.9330301155569,348.7860341546766 495.21377177606337,348.70327752589947 495.72187966579804,348.61061068982235 496.34367067023413,348.67181926794 496.80888888885966,348.77219173708 496.82183588977205,348.77499199673184 497.34490055113565,348.8472625052091 497.59532088885317,348.8472625052091 498.0807678862475,348.7540198379138 498.31580910930643,348.6299146314559 498.6495621119975,348.4748872121854 499.10426544357324,348.00926755619 499.3522536676028,347.7544023573573 499.5245842204313,347.55083552442375 499.6374517760705,347.5116712130548 499.88423122494714,347.42670924105914 500.25194643909344,347.3434154695133 500.4865944462945,347.260677728249 500.8745530027081,347.07307773656794 501.65976166405017,346.69243516164715 502.00402955379104,346.58872445265297 502.31675278232433,346.40281156628043 502.5360071111354,346.19592580231256 502.8875567787327,345.7507339423464 503.8499602204538,344.6230701933964 504.0688358969055,344.35385852871696 504.27230333158514,343.9610527253244 504.4915722240112,343.4435791100841 504.6946464427165,342.8438789782813 504.8354323342792,342.57466341066174 505.04660388978664,342.44060158351203 505.38318222225644,342.378257818782 505.7193673387519,342.3059636396356 505.99282722134376,342.21275572443847 506.219377891568,342.0886041808699 506.3993980019004,341.8508271097962 506.63403144537006,341.5815895025735 506.81405155558605,341.34381144912913 507.0563745565014,341.21969874890056 507.46374633250525,341.0337777289096 507.65913099382306,340.8163762942713 507.8157037796336,340.53724547548336 507.94070277694846,340.402605443378 508.3003497813479,340.24758749234024 508.94518033071654,340.06998692889465 509.05158166756155,340.0407112130197 509.38734444091097,339.9678793984058 509.6454397725174,339.94746185440454 509.8412467769813,339.95794868678786 510.2635898879962,340.1747558004863 510.63133422931423,340.3303299617837 510.9363533369615,340.402605443378 511.5148468906991,340.3303299617837 511.95296233246336,340.2161469281418 512.3518435556325,340.0611287414504 512.5213342151837,340.0544950311887 512.6253034383408,340.0506419179437 513.4153908906737,340.164825105574 513.9473538844031,340.2575181804423 514.1269807787612,340.2784917912795 514.7528204515693,340.42302291165106 515.3001479965169,340.4130922368495 515.8713743360713,340.38165171517176 516.2310067769722,340.3198431612109 517.0210796657484,339.9369750212354 517.5138084409409,339.38857992205885 517.7253877760959,339.2026561278908 518.077345223166,338.92348191532074 518.264647111122,338.62335303917644 518.2957985565299,338.22006177483127 518.2330878862413,337.9403291979688 518.1473376711365,337.74393605068326 518.0534755556146,337.48517647667904 518.030013667536,337.25785768724745 518.0377032248653,336.9577247374691 517.9830898916116,336.7199377247016 517.7715105565148,336.4716631217743 517.420252160111,336.1406229158165 516.8171898880391,335.5723685811972 516.1763934435439,334.88986403879244 516.0902208853513,334.6934461471683 516.0044706702465,334.42419283644995 515.8948362240335,334.2382813829463 515.5817052160855,333.8553545434261 514.9562878862489,333.28653347605723 514.5885726720444,332.87216122078826 514.346249671129,332.38608342202497 514.1585400035838,331.94137775391573 514.0096567751607,331.70358102046885 513.7903878827346,331.51049497775966 513.4934661120642,331.2484051659703 513.3526947840583,330.9692128569004 513.2822945564985,330.7209266186692 513.1572809956269,330.51403427834157 512.9926400000113,330.3589641090948 512.859951445309,330.2552594584122 512.7895657813642,330.21386497086496 512.7620406613569,330.14821773424046 512.7503169991542,330.1206081445853 512.7503169991542,329.89329557522433 512.9615031182766,329.52088262702455 513.1103572195861,329.2626618810755 513.1807574470877,328.8074571088364 513.4695964443963,327.11132427104167 513.5399966720142,326.78027867578203 513.5476716657868,326.3973484254675 513.5711481174221,326.11814507847885 513.5711481174221,325.6938564768061 513.5007478898042,325.11450947463163 513.3522724409122,324.6592694494757 513.1411154489033,324.204067463259 513.0003295573988,323.97672406907077 512.7575987769524,323.77975237881765 512.3122015573899,323.3769287937321 512.0383193315938,323.00449606747134 511.64712766575394,321.91802057193127 511.4201837796718,321.4523200027761 511.3967218915932,321.2558806002198 511.4124942222843,321.07986157012056 511.63943810848286,320.7592683103576 512.3002303146641,319.58781154899043 512.3979517724947,319.41453146137064 512.7110827804427,318.69057839448215 513.4149831111426,317.1179462770815 513.5950032213586,316.859143203299 513.9073186702444,316.4038924126071 514.5254687858396,315.7621243890608 515.1278174435138,315.2345991283364 515.6330854400294,314.87978223655955 515.761332110269,314.78983129322296 517.1610499982489,314.2313909998629 517.7160962275229,314.2209019685688 518.0288048924995,314.2727710141626 518.61578899913,314.2827038047544 519.1708206649055,314.2622819864191 520.1097622187226,314.0757837447745 520.4071063324809,314.0238947503094 520.6728912213584,313.95160372939426 520.8686982257641,313.8898215920781 521.0483105565072,313.81697425380116 521.081486336072,313.78040157593205 521.2360202240525,313.6100335426454 521.5329565582215,313.2585295322351 521.6895002169185,313.0410987470241 521.9318377813906,312.9070245147741 522.2214777743211,312.79277622757945 522.4403534507146,312.6686346453498 522.6122762240702,312.5240310979425 522.8707793352078,312.23432684419095 523.1207773298374,311.9446020402829 523.2850396729191,311.64498328091577 523.5823692231788,311.3552570853499 523.8562514489167,311.1996263162873 523.9282536675455,311.17924371681875 524.0750979982549,311.13784279304673 524.1924220018554,310.9413670092763 524.2709050026606,310.7134626524057 524.3331933298032,310.3718834503961 524.3805394489318,309.8548244178819 524.4816687786952,309.5960060225625 524.6459019946633,309.39954763595597 524.8728604444186,309.16170721058734 525.1228730026633,308.98565096213133 525.3263550009578,308.8305933145457 525.420217116538,308.6959582193231 525.6079122204101,308.3549097965879 525.8502497848822,307.53706120720017 525.9991038862499,307.1651167969103 526.1087383325212,306.77163565333467 526.1791239964659,306.4300454760378 526.1475793352001,306.21313899441157 526.0618145565386,306.07850102658267 525.7017743361066,305.94386291108094 525.2401824426488,305.86107738292776 524.9744121174444,305.7992514372454 524.7547354453127,305.73303486124496 524.7005298915901,305.7164658115071 524.4658964480041,305.58182729853434 524.3174209991703,305.4576784193923 524.0277810062398,305.075218024489 523.9573807786801,304.7236696926411 524.0200914489105,304.4234770165931 523.988532224088,304.0923503319209 524.1450758826686,303.56475502296234 524.2939591111499,303.1094747648167 524.3146976142307,303.03276674909284 524.3331933298032,302.964343397005 524.2628076658002,302.93342969813966 523.9420016640215,302.964343397005 523.6652212906629,303.03276674909284 523.2300185600179,303.1403685519472 522.8388123307377,303.1403685519472 522.3776427804842,303.07856110244757 522.1669081315631,303.03276674909284 521.8064310044283,302.95440968996263 521.173324117437,302.72645076035406 521.081486336072,302.6200803775864 520.9855998862186,302.5090211756469 520.8759654400637,302.25074357318226 520.8525035520433,301.9819753491902 520.9928962275735,301.7132065363985 521.081486336072,301.61361013769056 521.3059981084662,301.3611320106138 521.6579555556527,301.0095730354078 521.8610443378566,300.6056018200761 521.994126108475,300.2639746052446 522.0410498844576,300.0261164676922 522.0098984391661,299.77776760276174 521.8064310044283,299.49850367056206 521.46983810846,299.1673835599504 521.2586811165093,298.91903295656084 521.1882808888913,298.6706818501989 521.1571294435416,298.4013693423767 521.235612444405,297.81138314306736 521.4467840000289,297.3146759427909 521.5794725547312,297.17007416460547 521.8533547804691,296.91178532113554 522.096070997417,296.74620201805374 522.2445464462508,296.6115536596626 522.4322415502975,296.4150744782819 522.4715048960643,296.27047163964016 522.5261036657612,295.9183616239752 522.7684412302333,294.552390903933 522.7918885547551,294.086586443329 522.8307295574341,293.8178003312787 522.8934256639914,293.27967000874924 522.9379318897845,293.2206193805905 523.104611783172,293.00043102080235 523.5188429938862,292.79343532255734 523.8477463325253,292.67920804029563 524.0273586630938,292.58647901320364 524.3404896711581,292.4413153260248 524.7158944426337,292.16205456046737 525.0205203343066,291.87228234749637 525.2316918898141,291.5615473825019 525.349409109389,291.1172500528628 525.3882501120679,290.65143254748546 525.349409109389,290.12377942647436 525.2240168960998,289.6375322302629 524.8720448853564,288.96472681569867 524.5904876657878,288.62306717952015 524.3089304462192,288.19864888241864 524.105448448041,287.8161346729612 524.0819719964638,287.47504806509824 524.2222481635981,286.4754676929733 524.2227578880265,286.4716128965956 524.2150828943122,286.15037281805417 524.1523722240818,285.51951422714046 523.7142567822593,283.9977624150051 523.3546097778017,283.2432380235987 522.8849496747134,282.5703776629234 522.595688334317,282.3115016935917 522.4156682240427,281.99082697276026 522.1810347804567,281.54591871838784 522.071808113833,281.20427815814037 521.946401336987,280.986790549563 521.9152498915792,280.7179757297854 522.0167870009318,280.2731026004185 522.1264068835299,279.9518462869455 522.2202689991682,279.6007823390537 522.2518136604922,279.3109804488777 522.22835177253,278.95884161631693 522.181442560046,278.6276461830421 521.8840984462295,278.21366553741973 521.7882265600492,278.12756263365736 521.5163686684682,277.88246809190605 521.081486336072,277.57241305787466 520.9063158897916,277.4475005795539 520.730329884449,277.31722265077406 520.544644551177,277.1969002492551 520.4932788906735,277.06000480853254 520.7655445617856,276.72329979686765 521.081486336072,276.29063329467317 521.2190391183249,276.1022888547159 521.5471123342868,275.719776662183 521.6567467804998,275.46088623272954 521.6725191111327,275.13023776726914 521.6098084409605,274.6124538730073 521.5475201138179,274.18796721904073 521.4767121066689,273.8672513855272 521.2736378880218,273.0911231490318 521.2028444444295,272.6765673897753 521.2578655574471,272.4077542273444 521.3124788907007,271.9832599424699 521.3124788907007,271.7348542911932 521.2967065600096,271.40419577996363 521.2732446720474,271.21816892476636 521.2186167751788,270.9697617237398 521.081486336072,270.7637423458509 521.0462862222921,270.7108612671145 520.7024261120241,270.3796435596596 520.4912545565167,270.24550281642587 520.2566065493738,270.11080548987957 520.0846837760182,270.0070300217776 520.0425077191903,269.91595316454186 519.9985257813823,269.8210209199751 519.9673743360909,269.25186311267316 519.9827388871345,268.9719931006548 519.9204359965515,268.6308342096163 519.84195299563,268.3200602294237 519.8108015502803,267.9888360648183 519.9669665565016,267.73048576238216 520.4989441138459,267.4097530413128 521.081486336072,267.0596468511212 521.9455857778084,266.5402986363333 522.9860790044186,265.7635874460684 523.424194446241,265.6294217801187 523.8776890026638,265.39094000906334 524.2769634418655,265.10058782662963 524.5031063325005,264.9355180316488 524.8627533369581,264.5424578541424 525.3008687787224,264.00421894161263 525.5043507769005,263.72487354511395 525.762446108507,263.4869445369113 525.9813217849005,263.22802828234853 526.2082511076005,262.9586180653423 526.3098027805099,262.79300879122457 526.3725134506822,262.52417396352394 526.3490369991632,262.2862227515725 526.0440033280174,261.3653772204125 525.9266938880319,260.9822625814413 525.9109215574572,260.5372979804524 525.8639977813582,260.2474709128146 525.9032320000697,259.91622494361945 526.0516928853467,259.5021811296174 526.2082511076005,259.2123317409423 526.3802030080114,259.0158125117596 526.5913599999622,258.82921037534834 526.9198409955716,258.71546819459763 527.3891224462423,258.5807780775358 527.7099138844642,258.45656173999305 528.0618858952075,258.2600214248814 528.28112566052,258.0839119721495 528.4372906666831,257.84597201872384 528.6407726649195,257.5351508310996 529.6808581120567,255.7867147983343 531.2060264675529,253.35420234233607 531.3621477831621,253.10520243822248 531.6242917831987,252.7833184315823 531.8937029973604,252.45316533185542 532.0110270009609,252.0804973191407 532.2068340053083,251.79065026235185 532.426088334294,251.2098211730481 532.4726188943023,251.08671041415073 533.2177777778124,249.68998893143726 533.2234430009266,249.67937512297067 533.5365448817611,249.1719783510489 533.8650550044258,248.7479601575178 534.7954914417933,247.578041576111 534.9520496639889,247.277669241681 535.2020622222335,247.0292135386553 535.6167157760356,246.54279544387828 536.7037249990972,245.36289757167106 536.8760701156571,245.17462488409365 537.5095702187391,244.48334838385927 538.4319238826865,243.41663061332656 538.7762063360424,242.8782790833211 539.1439361138619,242.29852089870838 539.4408724480309,241.66688011135557 539.5662792248768,241.4769320486521 539.7616638862528,241.18044074226054 539.8866774471244,240.8491432593728 539.9886223360081,240.55924977341783 540.0416045511956,240.42672624072293 540.2074688853463,240.01041019443073 540.4049070080509,239.62168295361334 540.895611448912,238.80007616538205 541.0990934471483,238.3649898772419 541.2944926720811,237.95087328215595 541.4587258880492,237.4643794131698 541.5291115521104,237.16402205635677 541.6364012658596,236.79019439371768 541.646843335242,236.75375776435249 541.8733794417931,235.96357918423018 541.943779669411,235.61131584845134 542.1161102222395,235.30097500648117 542.2953293369501,234.93821395275882 542.5538324480294,234.66929816675838 543.4405782186659,234.21427890934865 544.9313328925055,233.44843534447136 545.3540692195529,233.22650958003942 546.5891461120918,232.57816360206925 547.0195719965268,232.37110564505565 547.2465304462821,232.29876647799392 547.5903759929352,232.35067018255359 548.5839600071777,233.01273370115086 548.8028065565159,233.1784030822164 548.9981912177755,233.39541889823158 549.0920533333556,233.4683140210982 549.3736105529242,233.42688685539179 550.296779775992,233.28165312088095 551.6346171164769,233.0751330779749 551.944879104034,232.9801723061246 552.1738618880627,232.90948343611672 552.469589447137,232.89789411524544 552.6981498880778,232.88851133658318 552.981338225829,232.90395713908947 553.2018158933497,232.80070678243646 553.4489885582007,232.55719144589966 553.8276410026592,232.27391789472313 554.090192782227,232.14305523244548 554.2309641102329,232.06021987029817 554.5987084516673,231.95696880304604 554.8883484444814,231.87413331514108 555.3725866667228,231.74987003899878 555.4785802240367,231.71786491945386 556.0218882276095,231.55275017619715 556.1157357795746,231.38709847725113 556.7884846649249,230.21755095827393 557.0781392213539,229.61729698101408 557.3596964409226,229.27547195038642 557.4903752249083,229.14096816151869 557.6412536604912,228.9855908548925 557.9147281067562,228.7166620112257 558.1024377743015,228.5509866004868 558.2432236658642,228.31298932639766 558.266700117325,227.7226857067726 558.3212988871965,226.37637171064853 558.4778571093339,225.10294302579132 558.6421048889752,224.30608913235483 558.7278696676367,224.07858036167454 559.0017518933746,223.94383230796666 560.6284136676113,223.08456644928083 560.8501001102268,222.96693430957384 561.3323139982531,222.71180915410514 561.8327468942734,222.31805693701608 562.4112258845125,221.85197800362948 563.2324502186966,221.11693190108053 564.2919051946956,220.22396811726503 564.8049210027093,219.7915395780583 565.4376201102277,219.29232934027095 565.946543559141,218.89083241502522 567.4797655608854,217.72116566661862 568.089410560031,217.40030209638644 568.8248555520549,217.04794565108023 569.5833692160086,216.73759757337393 569.6266666666488,216.71853132062824 569.8414791111718,216.6238163357193 570.1076572160237,216.3852392230474 571.5854794525076,214.83171311652404 572.0781936640851,214.38660086746677 572.4224761173245,214.09664479692583 572.7821085582254,213.8276832868287 573.4629402169376,213.37206973088905 574.0491378916195,213.0926089460554 574.8938241137657,212.72978216578485 576.7009137778077,211.9328279508336 577.2717177742161,211.62189033746836 577.6940608854056,211.2286790808139 579.0286651164643,209.976088926167 579.117648440937,209.89268187314156 579.813888341363,209.2304934708809 580.0638863359927,209.0134348695574 580.36890544364,208.85767415974988 580.994745116448,208.50586975502665 581.7629581085057,208.13213363170507 581.9959749973495,208.01874206142384 582.1432416711468,207.9110567556345 582.3790838898276,207.73928895345307 582.9891366685042,207.20078071925673 583.4426312249852,206.85889317141846 584.3831893333117,206.09838630186277 585.0069901084644,205.8962345146865 586.1255439929082,205.32681963275536 587.110622890701,204.71538861855515 587.4706631110748,204.6640299447463 588.0884054471389,204.6225930431101 589.5358626702218,204.6640299447463 589.9893572267029,204.64303312875563 590.23168022756,204.5601990640571 590.6540233386913,204.40498942966224 591.2482892231783,203.9802596263762 591.8074132480542,203.65550268199877 592.3903195591411,203.3169258000562 593.1957569991937,203.00652306934353 593.4538523306837,202.9098687756341 593.829664881865,202.7684761918208 593.8992641138029,202.73942616945715 594.549366670195,202.4679940402857 595.017817998305,202.34374071715865 595.8313527751598,202.30230303105782 597.2549403306912,202.28132569420268 598.3896888888557,202.2404447317822 598.772797781392,202.1675310357532 599.3512767715729,201.72235290918616 600.8294922240893,200.3039718857326 601.0875875555794,200.117300243699 601.3068564479472,199.99300476914505 603.0585317832301,199.44454028611653 603.7389702257933,199.15401198994368 604.3805676657357,198.85354086081497 604.9517940053483,198.54312682547607 605.8587685546954,197.94216095056618 606.0355555556016,197.8170480072149 606.5315320036025,197.46604705924983 606.9146263324656,197.18599323634407 607.0711845547194,197.10315413147327 607.4777407716028,197.03079414746026 607.8531601066352,196.9274936839647 608.203500999196,196.86509578724508 608.3774481066503,196.83415532697109 609.8168225564878,196.5651559320686 610.4191857778351,196.51323707195115 610.6222599965404,196.39943705758196 611.2400023324881,196.4303776276356 611.8888961138437,196.4099361722183 612.1704533333541,196.32709654275095 612.5539700053632,196.24423697261955 612.8432167822612,196.00617695989786 613.6256001138245,195.14617832851945 614.4783691093326,194.2761913764989 614.7672081066412,194.06906870697276 614.9630151111633,193.89286701290985 615.1114905601135,193.79950645953068 615.4440056604799,193.41669761939556 615.4711084374576,193.38523927389178 615.9327148942393,192.7544201904966 616.1050308835111,192.65059910461423 616.2769682204816,192.66105876976508 616.9650962204905,193.0748113875161 617.8648035556544,193.46808089190745 618.1718469974003,193.59677760087652 618.4829391075764,193.72714452480432 618.764496327145,193.8309845837939 619.0930064498098,193.85142646936583 619.5776378880255,193.66526201204397 620.1092076657806,193.2714363549312 620.8915909974021,192.73288443137426 621.2670103324926,192.53623871458694 621.4858714453294,192.27717256412143 622.0878268871456,191.5668456866115 622.1351584426593,191.51102715474553 622.5105777778663,191.09730902826414 623.1829188835691,190.31017685640836 623.621063452505,189.8649556551827 624.0122405547299,189.38825357909082 624.9119478898356,188.49724605301162 625.1308090026141,188.26965091662714 625.5612348871073,188.17632585123647 625.9835779982386,187.95865326179774 627.0629122275859,187.64823151484597 627.680640000035,187.25436663409346 627.9117490631179,187.0847772458801 628.4003272248665,186.72626832456444 628.713035889843,186.49868978530867 629.1592486684676,186.20866772776935 629.6204327822779,185.99103141590604 630.3081530026393,185.70307634491473 630.3631741156569,185.68004786453093 630.7697303325403,185.46292766192346 631.0670744462404,185.30715690393117 631.419017329812,185.02765200275462 631.6225138916052,184.77907008925104 631.7867616711301,184.4785438257968 631.9667672177893,183.97199074266246 632.1621810062206,183.44336123066023 632.2637035520747,183.16383219134877 632.8191429973813,182.15677859610878 632.8992571165436,181.91039831997477 633.2248982187011,180.9116074992926 633.3385813334025,180.54868543249904 634.1387613298139,178.6483236978529 634.7188860018505,177.45729122232297 634.9765735538094,176.92915068817092 635.1355638898094,176.38553506479366 635.3180161138298,176.41648068855284 635.7160817778204,176.49935366693535 637.0150781156262,176.86173086735653 637.0259862187086,176.90373401675606 637.081415111199,177.1142069674097 637.6542434417643,177.29540473627276 638.3933584498009,177.43573288689367 639.1745184426545,177.74618050610297 639.3302756694029,177.82905258514802 639.4249387804302,177.93789792549796 639.5272768853465,178.1549916867807 639.8913657742669,179.0875199678121 640.1717142187408,179.6625854804588 640.8808865564642,180.55862906202674 642.1895967858145,182.15622176017496 642.444444444438,182.55147522609332 642.7320746667101,182.997538361029 644.6132054471527,185.48281412257347 645.8220242488896,187.0847772458801 645.9028811093885,187.19196381187066 646.0545751040336,187.75096310381196 646.29730588448,188.5281687322131 646.6763806720846,189.6975970865169 646.8584105530172,190.56757677186397 647.2532576711965,191.15807924768887 648.7662363307318,193.29132154848776 649.0199043413159,193.5503855549614 649.1942446649191,193.72823820647318 649.4802728960058,194.02100649374188 649.850813439989,194.39937908857246 650.385630890727,194.30106754912413 651.3710884408792,194.74625274923164 652.1494376676274,195.25387485066312 652.2930488889688,195.34721441118745 654.5807358862949,196.7776432322571 655.952943217766,197.63560219740612 658.1791428836295,199.02530123246834 660.1816463359864,200.17804610644816 661.1861093263142,200.67405334187788 661.5995686685201,200.8474615314044 661.8576640000101,200.95905029735877 662.718530332495,200.95905029735877 664.2052363377879,200.97450012384797 664.8043518862687,201.02146599366097 665.3047702186741,201.10927343100775 665.5341607822338,201.2125504858559 665.863850552938,201.36056619795272 666.7170418915921,202.053099990997 666.743751452479,202.07475341501413 666.773271779588,202.09849463021965 667.6430364444968,202.93305308758863 668.1329253262957,203.37214244843926 668.3692044515628,203.65550268199877 668.5520498915575,203.8747778380348 668.6823063325137,204.01781947212294 668.8303740018164,204.17965077763074 669.1556364515563,204.53864549600985 669.5160698880209,204.99874574661953 669.7591938844998,205.31906516922754 670.0533048888901,205.59192257453105 670.378159559099,205.859231972805 670.5860106240143,206.037007113453 671.1678246685187,206.53470057988307 671.5185587768792,206.8865305253712 671.81629610667,207.13836816968978 672.0517596729333,207.3686721091799 672.3887312213774,207.60893693365506 673.5056685511372,208.561640781787 673.7407097741961,208.95157995726913 673.9328758898191,209.3790562125214 674.2540896711289,209.39561840202077 675.750902784057,209.4861835166521 676.0441836658865,209.49061732843984 676.2573795555509,209.49336112223682 676.5741514524561,209.53205258428352 676.9070743324119,209.58837985544233 678.1846185528557,209.66291950485902 678.8533333333326,209.72445593768498 679.2348256711266,209.75958835575148 679.5382136604749,209.8501730839198 680.2352399929077,209.86011433627573 681.0572798863286,209.87224266302655 681.8016523377737,209.94680202225572 682.0787531093229,209.95121593488147 682.8049065528903,210.5189789767901 683.6787198862294,211.38055973747396 684.1136167822988,211.88862988431356 684.3656536746421,212.54473989541293 685.0938314524828,213.80285084084608 685.3555531093152,214.18611293905997 685.6173038933193,214.48600967496168 685.8333251128788,214.62627536532818 686.2301820018329,214.71850667934632 686.5845569991507,214.90573265351122 686.9551266702474,214.985816055967 687.2844232249772,215.3116364699672 688.0797535573365,216.12512999703176 688.6792768853484,216.4145245886466 688.9090606648824,216.61610234962427 688.9515425564605,216.66689933641464 689.1348103396012,216.88559453820926 689.189001329767,216.99217848549597 689.3221122275572,217.25339922480634 689.3880414436571,217.5400276579021 689.4758305564756,217.75927797608892 689.5842562275939,217.82387205108535 689.9410487751593,217.90176661525038 690.6235261155525,217.9713507934648 690.9896247751312,217.99530762285576 691.8379664498498,218.05087552021723 693.1636432214291,218.18728018758702 693.2882490027696,218.199984243809 693.7037035520189,218.20549132252927 693.8550043306313,218.22149564741994 694.8481660018442,218.3286549859622 696.6548478862387,218.49927472646232 698.3353219982819,218.6389990352618 698.6646185528953,218.60643382216222 698.9235440071207,218.6169310346595 699.1828481138218,218.85439046513056 699.6682951110997,219.47567154438002 700.2637843342382,220.22120468286448 700.265764977783,220.22396811726503 700.7265850026743,220.86291621558485 701.0554883414297,221.3345257283072 701.4236113351653,221.80559665130568 702.1829405582976,222.705725745589 702.5288250026642,223.21710873011034 702.8346596693154,223.6561254338012 703.1259307805449,223.99243943503825 703.3516658915323,224.25308861240046 703.3856572302175,224.54298089898657 703.3913078897749,224.86438241545693 703.2032050062553,225.42102311743656 703.1506014436018,225.70818909129594 703.1259307805449,225.9383985035529 703.1089496747009,226.0969405718497 703.1259307805449,226.22120957827428 703.1429264498292,226.34543869903428 703.2076468906598,226.59892614959972 703.3601564444834,227.00425449572504 703.587100330682,227.945217822009 703.6372717796476,228.13240371580468 703.8771626667003,229.02586651651654 704.1518604515586,229.8503417868924 704.1360589938122,230.26724895345978 703.9924623360275,230.57923262796248 703.6190673351521,231.47655400069198 703.4232603306882,232.06407637748634 703.4196340053459,233.43956945367972 703.5256129991612,234.7084985235706 703.8148743396159,236.11821215218515 703.9641362204566,236.70626887318213 703.9588059590897,236.79019439371768 703.8937505565118,237.80840794477263 703.9212611129042,238.46215292127454 703.9960886613699,238.87849410274066 704.0664888888714,239.31689814897254 704.3565512249479,239.94747765158536 704.6619781120098,240.09711631722166 704.9601232213317,240.3008416724333 705.3047988906619,240.5250405476254 705.5321359929512,240.82483310098178 705.7356325546862,240.9959979810228 706.0491567787249,241.09206568077207 706.3076598898042,241.17767778021516 706.5507984497817,241.34884216752835 706.9112464497448,241.69117022538558 707.0758728818037,242.06605631796992 707.1855073280167,242.3752669111127 707.4444327823003,242.81423489158624 708.2903277796577,243.22392234546714 708.3963067733566,243.2752648665919 708.8251306666643,243.3890014939534 709.1548350009834,243.52372817674768 709.5136664462625,243.72361157499836 709.7644945635693,244.04438637927524 709.8777553351829,244.47837916147546 709.9420679965406,244.72187082096934 710.0104438897688,244.9366598786146 710.0784120035823,245.01672366569983 710.1390837760409,245.02996161553892 710.3041325511294,245.02222953992896 710.52056155022,244.9261649195396 710.8559456710937,244.67770445143105 711.231758222275,244.5462984754704 711.5901818880229,244.53856636935961 711.8551657813368,244.718571263802 712.2763001173735,245.01891011401312 712.5493522204924,245.25192564568715 712.8374047857942,245.56772727324278 713.1974304427276,245.77643258529133 714.0202713315957,246.00117799409782 714.5765263360809,246.19384214363527 714.9098569956259,246.3026267917594 715.2622222222853,246.3842400602589 715.2889317831141,246.3904018001922 715.374274218746,246.34901875376818 715.4213290666812,246.2925692347344 715.4709616640466,246.23305869242176 715.624679992965,245.75379304532544 715.7537422222667,245.42252779661794 715.844764444395,245.07579750887817 716.1594974435866,244.6981378593191 716.5688935538055,244.49106061659404 716.9046708907117,244.36464354477357 717.2554049991304,244.29948702189722 718.3468561066547,244.05432485899655 718.7574755556416,243.93176347078406 719.5079064462334,243.766108619835 719.8748206648743,243.7120232763118 720.101779114746,243.72305501863593 720.3906181120547,243.89642219786765 720.619193116494,244.033374542807 721.2069927822449,244.89964924237574 721.4007754524937,245.19450165954186 721.9201992248418,245.98625063427608 722.1746536675491,246.21427529884386 722.4363898879965,246.46827821567422 722.963110001816,246.78187041712226 723.4218620018219,247.0789047195285 723.6844137813896,247.51950560120167 723.8644338916056,248.25767300717416 723.9744615538511,248.57847570208833 724.2960831147502,248.8351967583876 724.4841859982698,248.909752300533 724.7742483342881,249.07041128969286 725.0092895574053,249.30560549368965 725.1897174470942,249.61589101311984 725.4558955520624,250.23645969631616 725.6363234418095,250.6643485405657 725.8648838826339,250.93931125450763 726.0542101049214,251.2650560051843 726.3349808924831,251.62721223503468 726.6468739982229,251.882853621064 726.8273164515849,251.92590435713646 727.1331365547376,251.82984514549025 727.3985136639676,251.75320442937664 727.6893915591063,251.66918977181194 727.9555842275731,251.65869538890547 728.1817125547677,251.65869538890547 728.4244433352142,251.6995399989246 728.678489998274,251.80058811424533 728.8415144391474,251.89390450398787 729.0255977813504,252.04130251609604 729.194287445338,252.24337822454982 729.3419473351678,252.56413074053125 729.5438127787202,252.80873924930347 729.813238556555,253.13445915817283 730.1847694222233,253.35420234233607 730.2837287822622,253.4127156563627 730.6470021120622,253.61476922937436 731.0754036622238,253.7649477266823 731.3731555556296,253.8394803959818 731.9298037760309,253.9791644338984 732.532967993,254.04320279424428 732.7182601102977,254.10726099647582 732.8655122204218,254.21214306284674 732.9694814435206,254.39322689711116 733.0973203342874,254.79240142466733 733.1519336675992,255.10211655535386 733.1725556622259,255.21916136250366 733.2384994417662,255.62660123608657 733.3954654435511,256.04397726387833 733.567795996496,256.62090784544125 733.8970925511676,257.3065907236596 734.0694376675528,257.48270129278535 734.3044788907282,257.6477811202931 734.625692672038,257.97956983430777 735.0334722275729,258.47146770718973 735.1981132230721,258.9208320796606 735.2854799929773,259.051129552623 735.3943134435685,259.1560272650677 735.5355071147205,259.21620726873516 735.7155126613216,259.25208073770045 735.9473207751871,259.26313095659134 736.2013820018619,259.3271864319104 736.5306785565335,259.6898753353162 736.703009109362,260.4070219609421 736.6884455537656,261.04023565206444 736.6560853334377,261.42281350813573 736.540785663994,261.95665171023575 736.5072166684549,262.32155872456497 736.6540609991644,263.001684787072 736.8551254471531,263.290968751593 737.0865112178144,263.69450642046286 737.1775334400008,263.9843452150526 737.2592495502904,264.2973361610493 737.5497196657816,264.70641525593237 738.0432640000363,265.2728118666855 738.3486908871564,265.8717784048931 738.6310636657872,266.70534639799735 738.5922226631083,267.0398729858862 738.5841398898046,267.4754537339322 739.1347296711756,267.98496081429766 739.3163663360174,268.2179327084159 739.456744448049,268.4685513865843 739.5348196693812,268.6896383292333 739.5647477760212,268.7743766256026 739.6428229973535,269.0559164127917 739.7014995626523,269.44949869118864 739.7759193316451,269.8497172143543 739.8314647325315,269.91595316454186 739.9239870009478,270.026366208127 740.0186501120916,270.13842858892167 740.4693193386775,270.02857208327623 740.7330653298413,270.04401320804027 740.9430281103123,270.09536437352654 741.1121401173295,270.2146007429401 741.2338914417778,270.3619767353521 741.3872165546636,270.77874618026544 741.6720068836003,271.8921646804665 741.7549463325413,272.2123491243692 741.8601243307348,272.7262481787475 741.8581145600765,272.9834949824726 741.8010691129602,273.41794177761767 741.7039738880703,273.881062512839 741.5316433351836,274.20177831020555 741.5158564408775,274.60804228758207 741.8532503325259,274.7471462553949 742.1271325582638,274.8873628953588 742.4155637760414,275.3687006002001 742.4952555520576,275.7203132014547 742.6053123413585,276.90820549055934 742.6926936747623,277.3083996743662 742.7209032818209,277.3791623117286 742.8484363378375,277.6986567999411 743.2011802168563,278.19047558520106 743.514704440895,278.4581831471878 744.0709594453801,278.54374929191545 744.5726011165534,278.80040762526914 744.8468619947089,279.121130430256 745.0588636729517,279.40427590720356 745.3331245512236,279.65598451386904 745.8821123412927,279.79782497743145 746.2421379981679,279.9441164128948 746.5633517795941,280.3503613693174 746.8849587769364,280.9812664188794 746.9792286720476,281.2693952045229 746.7988007822423,282.0294558222813 746.8457245582831,283.07763626793167 746.8141798969009,283.2057024400565 746.759144220443,283.23441547347466 746.5621430044412,283.3370669968135 746.4852765582618,283.37680817520595 746.3598697812995,283.7449499690847 746.3218297742424,284.049624370964 746.3598697812995,284.32781073311344 746.4771792213432,284.6275359618012 746.9161247857846,285.34398041156237 747.1042131058057,285.5791249292088 747.2818156658323,285.85619509217213 747.4767342933337,286.4754676929733 747.4788314453326,286.48210430089966 747.6042382222367,287.04120741956285 747.7316838969127,287.4612384684733 747.9274617742631,287.74990838894155 748.0998068907647,288.08107919080066 748.5702825529734,288.508836013556 749.0565451094299,288.7323506793473 749.2195841138018,288.8874734727433 749.2956350008608,289.063518828596 749.4793105635326,289.5034324171138 749.5577790008974,289.88810714369174 749.7593531733728,290.13150865898933 749.7616542151663,290.1342705183197 750.1848128853599,290.2733568784897 750.3555414471775,290.36000760123716 750.521798997419,290.48697335115867 750.7349948871415,290.73697031705524 750.9109663289855,291.0604038806341 750.9433265494299,291.339687023632 750.9922892231261,291.7591271457204 750.9842064498225,292.06932514248183 751.2742542222259,292.37950248559355 751.6711111111217,292.54370084631955 751.7131706595537,292.5610863083566 751.9700717796222,292.64773541496834 752.1909426631173,292.7217079930124 752.3632877795608,293.34203872678336 752.8964741121163,294.08990454138257 753.0611296711722,294.38958604825893 752.6537433315534,295.747273382789 752.6460537742823,296.26053739050985 752.8944497777265,296.4951046651695 753.1355494399904,296.7743754348485 753.5716696747695,297.0486586075858 753.5951315626735,297.06687790277647 753.7569326649536,297.1910551421752 753.9183551146998,297.35937967314385 754.0113871076028,297.5431615046982 754.0397132231155,297.7727393950918 754.0251496676356,298.03490072707064 754.0255574471666,298.51614760409575 754.0016732160584,298.81528185951174 753.8920678969007,299.52113329144777 753.8803151076427,300.18670851009665 753.9078402275918,300.7507359783922 753.727805553819,301.435615893628 753.5397026702994,301.8522797685291 753.4498892231495,302.0614456127805 753.2965641103219,302.4190611617232 753.0263373369235,303.03276674909284 753.0141913315747,303.06036256760126 752.9749571129796,303.43452469751355 753.1238257777295,303.9262403048633 753.3435024498613,304.5249982487294 753.4765987840365,304.8671698765247 753.7136497777537,305.1994070248329 754.4988730026525,305.6132966056757 755.2246186667471,305.92562506734976 755.977073891554,306.17121985545964 757.4111763342516,306.53432653771597 757.5050384498318,306.8869822205452 757.4176571164862,307.1728449558723 757.3484802276362,307.4001996226143 757.4973488924443,307.93493041637703 757.752618894272,308.8510160370788 757.9209007786703,309.42159930587513 757.9678245547111,309.79576190159423 757.9714654436102,309.94861317196046 757.9827958898386,310.3942925372685 757.983611448959,310.426515525789 758.1090182258049,310.8966880940716 757.2234666667064,311.38173853294575 756.6926978845149,311.67090841793106 756.1898620018037,311.8728859073599 755.8844351146836,311.9760697152815 755.642505329859,311.9264048204641 755.4010124516208,311.8772961527575 755.2893536711927,311.9490321490739 754.9673243307625,312.21334843922523 754.737540551112,312.4644334879995 754.4098751146812,312.86784914470627 753.5789368889527,314.3218787231017 752.9207369955839,315.60487025004113 752.8438851129613,315.93485340633197 752.7561105635832,316.31064495487954 752.175985891663,316.8773595566163 751.6711111111217,317.5660231358197 751.6278136604815,317.62506204657257 751.3224013369181,318.13823453194345 750.7188147768611,318.8329498116218 750.4121645512059,319.0680102815677 749.9060809956281,319.4984202698688 749.8609776640078,319.58781154899043 749.8336855608504,319.641903173615 749.754780216841,320.16938962068525 749.7155459981877,320.5545641393983 749.5743523271522,321.28124750201823 749.3862640071311,321.67690692518954 748.9946499982034,322.25408508686814 748.4930228907615,322.8527535920148 748.0658301155781,323.41614053669036 747.9853227804415,323.56510134460405 747.8736640000134,323.77202526593464 747.5924999964773,324.115772066667 747.2858497707639,324.616244233679 746.9565677795908,325.3219671053812 746.5026800071355,326.2732206072542 746.3897978880559,326.5143450857722 746.3473305600346,327.02086584290373 746.3380098844646,327.524067315273 746.0949004516006,328.7318576363323 746.0297576676239,328.8560028306383 745.8048381155822,329.1092586375016 745.0839275520993,329.3945332976291 744.2372169955634,329.683104567026 743.9313823289704,329.7686151273665 743.5317146738525,329.9076565617579 743.4269298916333,330.1206081445853 743.1639703325345,330.6558358153561 742.9386430008453,331.2230005990423 742.6267498951056,331.86635623150505 742.551092224021,332.1129915485508 742.5369218844571,332.47328042285517 742.5292468907428,332.9433486543421 742.4722014435683,333.26003689301433 742.4196124444716,333.65011607069755 742.3670234453748,333.8879090320552 742.2452575573698,334.10307829332305 742.0284062151331,334.474960915104 741.7359263289254,334.9141356990149 741.5619792212965,335.09400801640004 741.3908574435627,335.2992440742091 740.9175418880186,336.017041228828 740.8229952853872,336.1406229158165 740.5955416747602,336.4379970469454 740.4049775502644,336.61290163945523 740.1946361173759,336.7337417778908 739.9551384462393,336.8418701638002 739.5348196693812,336.99446926481323 739.5113577813026,337.00295029740664 739.3034193352214,337.03828461651574 738.7257413404877,337.1370379268483 738.4955497813062,337.2137246239872 738.2981262222165,337.3119216612249 738.071182336018,337.5320702348836 737.7985234489315,337.85482433176367 737.6079738880508,338.31220019143075 737.4502068907022,338.7960498781176 737.3450288925087,339.098919227632 737.2135491129593,339.2197569180571 736.9012482275721,339.35878764410154 736.8369064391009,339.57782030274393 736.6026807752205,340.3694965649338 736.6026807752205,340.78606796936947 736.6358565546689,341.16343190014595 736.4186119964579,341.32893540963414 736.1686140018282,341.2875446572143 735.7891459982493,341.2875446572143 735.4630825529457,341.3134635321039 735.1070910009439,341.398449597531 734.1430710044224,341.60145066224504 733.3044432213064,341.90103600511793 732.2154096639715,342.1145427476149 731.5924244479975,342.10902136861114 730.8905484515708,341.98600180260837 730.5616451129317,341.8888810054341 730.2517617777921,341.71344768159906 729.0446032212931,341.0348502364068 728.1521776639856,340.5129550660786 727.7241693297983,340.29227558287675 727.3985136639676,340.24131129690795 727.3046515485039,340.226633737504 726.9235815538559,340.2128300772165 726.662646328914,340.2817887790443 726.3940361102577,340.3965477307793 726.1873210026533,340.5190127728565 725.8475095609319,340.7198504105618 725.5497576675843,340.939416894078 724.9813712213654,341.222459458455 724.7855787804583,341.58051699982025 724.5189783325186,341.9976006819925 724.1229224391282,342.5261032546696 723.2535655538668,343.4772432630998 722.908904447977,343.9423041511618 722.8967584426282,344.4768955819018 722.7713516657823,344.7279146206856 722.2725498880027,345.42577623049146 721.4937928818399,346.196481893945 721.2349111182848,346.4866422061459 720.7025112177944,346.8982079118141 720.0560641138,347.2827225951187 719.8465091129183,347.61317666163086 719.8545918862219,347.74502836036845 719.8905929956236,347.9601733269519 720.0293545529712,348.25368582317606 720.3266986666713,348.71046684889006 720.6361742221634,349.45134219757165 720.7943489991594,350.0372074878833 721.0346476657433,351.08039825837477 721.0281814471236,351.5630854739866 720.9395913387416,351.7958788519318 720.4970194488997,352.45952224894427 720.3884772693273,352.69122166154557 720.3517771093757,352.76954696624307 720.2126223360538,353.13142352344585 720.0423015538254,353.54572737944545 719.8465091129183,353.8215319896699 719.7198789974209,353.8905029044545 719.4735218915739,353.9335377170646 718.9872593351756,354.0714396639087 718.2376440035878,354.1536167583836 717.8618314524647,354.35608038990176 717.6785636693239,354.59714969663764 717.2550117831561,355.49298840315896 717.1287894470734,355.7511539637344 717.1105850026943,355.8885375384125 717.0782102187513,356.1306960695947 716.970614670252,356.50966109815636 716.8883742720354,356.75100419687806 716.6797367751715,357.36302815016825 716.6166328889085,358.1822128382628 716.5976128852926,358.38079742813716 716.4653321102378,358.7167223889264 716.1870225635939,359.1133533430984 715.7764031147235,359.59600896880147 715.2622222222853,360.11349391867407 714.8342138879816,360.5442365676572 714.5247383324895,361.0263504002942 714.499252110254,361.24200825276785 714.5688367787516,361.53493296640227 714.6602667804691,361.6220894018188 714.907031665789,361.8576040895714 715.0559148942702,361.9999254360446 715.2622222222853,362.2337117685238 715.3528366648825,362.33641636843095 715.9406508942484,362.9222201578377 716.016687217867,363.18092610751046 716.0923448888934,363.5427719701838 716.105277326249,363.8444880921743 716.1683957760688,364.1203092766227 716.2440388835385,364.361895558628 716.4147674454143,364.5770312573586 716.6740715520573,364.8787448372459 716.8257801102591,365.1804576754803 716.8448001138167,365.5163838849985 716.7942354488769,365.89587593919714 716.693091555615,366.36031574587105 716.6109676657361,366.74808559753 716.5539222187363,366.980830320128 716.5474560000002,367.2825578486081 716.6235068871174,367.6791412679595 716.6170261048828,367.83416429016506 716.5033575538546,368.07574326291797 716.1999550008914,368.30794933377183 715.5733143324615,368.82752222937415 715.2650621156208,369.08347550721373 715.2622222222853,369.0854016081721 715.0324384426931,369.2395690169651 714.8795211093384,369.34216847186326 714.3042606648523,369.82478387863375 714.1023952213582,369.87386936316034 713.703528561804,369.97150414600037 713.4446176711353,370.1524172022473 713.2613498879946,370.35042644519126 713.1978382222587,370.5489913499914 713.1792405617889,370.81596135825384 713.1792405617889,371.0658145782654 713.2168436622596,371.1866208006104 713.4551325583016,371.3360796162451 713.6023701048689,371.42821303228266 713.7480056604836,371.62622021735297 713.8236633315682,372.0139734347176 713.8426833351841,372.4706660466036 713.8171971129486,372.8925889415259 713.7160677831271,373.21139799428056 713.5396739982534,373.6250582571374 713.2172660054057,374.4694903367199 713.1035828907043,374.81418723994284 712.9708943360602,375.1329913022637 712.6735502222436,375.65916709808516 712.4142461156007,375.95205741006066 712.3171508906526,376.095990573609 712.1994191075792,376.27083866187604 711.91503655829,376.5725235014688 711.6116194418282,376.8830432751856 711.4659838862135,377.1588153091725 711.3587961173616,377.6326040760905 711.3579805582995,377.65684743004385 711.339776113804,378.16702893935144 711.4158124374226,378.64079396013403 711.491470108449,378.8647004584782 711.6747378915898,379.0792746543593 711.8915601066547,379.2298357451218 712.0728035556385,379.3550218997698 712.4267853369238,379.8116872026003 712.8823042276199,380.3985194777488 712.9203296711203,380.613607218751 712.837798001885,380.9329323004058 712.7431203271262,381.2258100306499 712.6419909974211,381.44971181443543 712.4906902187504,381.7254735902825 712.4150616747211,382.0359803305473 712.3389962240472,382.3200002911326 712.2633385529043,382.4926356609503 712.162209223141,382.77665456509567 712.0796775538474,383.0011292998679 711.9534552178811,383.1643725649046 711.8268542293226,383.31991210251 711.6638152249507,383.47930319345323 711.131429888017,384.00045978915296 710.7774626702303,384.26740054631955 710.5375717832358,384.4913166373153 710.3603624391253,384.83600525697693 710.2026100053918,385.09466502899886 709.974835996516,385.28383495638263 709.8546866631368,385.455910244782 709.7425909760059,385.78568579550483 709.7345518933726,385.80941133538727 709.595790336025,386.22302915132605 709.3178740053554,386.8864665973815 709.0019176675123,387.3690328920493 708.6099104427267,387.83394737076014 708.2118447787361,388.21337044163374 707.624045112927,388.9975858294929 707.3837318827282,389.3505406800541 707.1499285618775,389.5143313984154 706.795946780534,389.6957516990078 706.6191597796278,389.92849262661184 706.5515994454036,390.27042622846784 706.5305696711293,390.37630375119625 706.3978665529285,390.72095599601744 706.2841980019002,391.1174835599086 706.2396917760489,391.9794248047401 706.1511016675504,392.4266725668858 705.7849884444731,393.6327325196762 705.5827152213315,393.9514877189649 705.4500266667455,394.23603599052876 705.3233965511317,394.4257477069041 705.1021178879892,394.5978101832734 704.6029083306785,394.83933649703977 704.1603364410112,394.92537740181433 703.9584855609573,394.84815102719585 703.8326710044639,394.77866710099624 703.6611268835841,394.6843872767058 703.5474583324394,394.71029487933265 703.4528097849106,394.8134289215668 703.3071596657974,395.09797519556014 703.1259307805449,395.57475201340276 703.0417679929524,395.79612622977584 702.9280994418659,396.1319488240115 702.7448607857805,396.6403859775746 702.837091783178,396.78213099596906 702.8965547805419,396.8730938892695 702.877534776926,397.79510680789826 702.8014838897507,397.8894239478104 702.4475021084072,397.98425716822385 701.4430245546973,398.328927762137 701.1630838897545,398.2721113767475 700.9749810062349,398.23407495592255 700.8232578844763,398.25118737635785 700.6149262223043,398.4325947680045 700.4442122241016,398.7165966531611 700.1974473387236,399.44063371713855 700.0963034453453,399.72461341900635 700.0967112249346,400.2076652542746 700.0522049991996,400.431572128291 699.9510756693198,400.6548830458778 699.647673116473,401.10321089444915 699.3066237724852,401.3700946193421 699.1169043342234,401.6717376431334 698.579509134288,402.329592800088 698.4975454435917,402.4299611094466 698.1844289992005,402.78009817301063 698.004408888868,402.98136995648383 697.1067258879775,403.5410741038504 696.4809007787262,403.9198729592026 696.2029844480567,404.12668131600367 695.9246603377978,404.2904324737319 695.5265801101923,404.68689636778436 695.4254507804872,404.88486977282446 695.2737567859003,405.2813317476248 695.1665398897603,405.4279897985398 695.0969552214374,405.45393483611406 694.7619934435934,405.350809730764 693.7951481173513,404.9802732670214 693.4282193351537,404.8854057477147 693.3020115627442,404.8765919380239 693.0742375538102,404.94551432464505 692.884911331581,405.0751010113163 692.8222152249073,405.28740611003013 692.7712427804945,405.46274860436097 692.702065891528,405.6954596476571 692.5944557795883,406.17793217493454 692.518404892413,406.6604028066213 692.4492134400643,406.9961956892512 692.3480841101846,407.1770740476495 692.1644231111277,407.3838372178143 691.7728382293717,407.5476237331459 691.481960334233,407.73675907123834 691.185024000064,407.84869576987694 691.0636513279751,407.7119261419866 690.9896247751312,407.62819685201976 690.9637307733647,407.598897542106 690.0850677760318,407.8056798525504 689.6740551110706,407.7455726756307 689.3516325546661,407.598897542106 689.2064047786989,407.598897542106 689.0546962204971,407.6507469936041 688.713253660535,407.9435212991084 688.5235342222732,408.1850412140193 688.4037926684832,408.65924623043975 688.3026633387199,409.13289360902854 688.2711041137809,409.43449771413 688.1323425564915,409.7532118962263 687.9931877831696,410.1066430422361 687.5886267733295,410.9679150530428 687.3924265528913,411.2954386048659 687.1460548835457,411.52813859522576 687.0675718827406,411.59151914401446 686.4000950045302,412.1307785063982 685.9389108907199,412.596155030682 685.7742553315475,412.86356956808595 685.7301714489004,413.0350504217786 685.7046852267813,413.42267288814764 685.6225467733457,413.82792046744726 685.4336428942042,414.2927347771183 685.2058834489435,414.7580832593958 685.1617850027396,414.93895018543117 685.1302257778007,415.2405400313146 685.0416356693604,415.4991357632389 685.0096686648903,415.74006519292016 684.8960001137457,416.17952497207443 684.7062515484868,416.5583046932006 684.4218689991394,416.69613631558605 684.0298763377941,416.6790661634004 683.6823753386852,416.6878791260533 683.3158397724619,416.7909947113367 683.0185102222604,416.9029033082479 682.7911585564725,416.9718189454288 682.4942222223035,417.21332110496587 682.0516503324034,417.64394286996685 681.6414532267372,418.0144411251822 681.1924005546607,418.324856112391 680.7247647858458,418.5398774284986 680.2380798863014,418.73836441658204 679.9592023609439,418.8712512757338 679.8400142223109,418.92803828258184 679.6312602169346,419.1259688818536 679.5111254471121,419.3757238148537 679.4290015573497,419.6343108396686 679.0495335537707,420.2545959330455 678.8533333333326,420.5942617778783 678.7906226631603,420.70281253554276 678.5693585636327,421.1593240884249 678.4055040000239,421.39972635978484 678.1336606720579,421.5039296419127 677.9690051129437,421.56403008522466 677.6656025600387,421.6158339444373 677.280076117313,421.71894539223285 676.7302873315057,422.0806386274344 676.4394240000402,422.3039101805771 676.1044622222544,422.57958022263483 675.9725892267306,422.68324660652434 675.6554095501779,422.9329943055054 675.38356622227,423.1138094966009 675.0676244481001,423.3812408291269 674.7391434524907,423.6910666632757 674.3095040000044,424.00974384881556 673.8924183323979,424.3113114204025 673.6140942222555,424.6299869964714 673.1464438898256,425.0522864346276 672.9000722204801,425.3108615077508 672.7669758863049,425.6637318471039 672.628214328899,426.15493821530254 672.2362216676702,426.73218108859146 671.964771555562,427.07673131124466 671.8826476658578,427.3005892011861 671.8571614436223,427.5503076639143 671.9142068906804,427.8518863894569 672.0218170027365,428.0757031721878 672.2111432249658,428.5151188138698 672.2111432249658,429.00633362546796 672.1605785600259,429.29907687180093 672.0088554382673,429.643619893759 671.9837915591197,430.03063423236017 672.0218170027365,430.2891988248448 672.0153362205019,430.6938747386739 671.9837915591197,431.1244293941709 671.9457515520626,431.4000597927661 671.8826476658578,431.5125306309201 671.6993944462738,431.71046079712687 671.4214635520475,432.10683618226903 671.238224895962,432.46847898120177 671.2066511076409,432.7441262100474 671.2633033386664,432.9249468044145 671.4910482204868,433.3384059560194 671.573186673806,433.6140512324928 671.573186673806,433.79487054632045 671.5226074454258,433.9586218430777 671.3138680036063,434.423895818647 670.9348077795585,435.0694496250362 670.6959654684761,435.4106820268207 670.6754891093588,435.4398953184427 670.612385223154,435.6124560269818 670.5177221120684,435.9647013946378 670.4352050062735,436.404088814219 670.2964434489841,436.809260572074 670.1192486685468,437.1108165648184 669.7899521137588,437.5033244670485 669.7215907840291,437.5843542312505 669.5128367786529,437.7651677004469 669.2159004444839,437.89416408585384 668.817427000904,437.98071066167904 668.5900753351743,437.93772514225566 668.4193467732985,437.98071066167904 668.191995107627,438.0496144731005 667.8756455537514,438.1615235474601 667.629288448079,438.2993507741194 667.350964337762,438.514872952539 667.117131889856,438.6868736683391 667.0730480071506,438.83351167922956 667.0540134400362,439.0060676203284 667.117131889856,439.3070625499822 667.117131889856,439.5137716360041 667.085587228532,439.729311528994 666.965423331596,439.97076894532074 666.7170418915921,440.3634264704888 666.6494669938693,440.47019353765063 666.5418714453699,440.754098227917 666.4160568888765,441.5898133008159 666.2643628942897,442.21877881188993 666.2327891058521,442.60575353118475 666.2392698880867,443.33778729644837 666.1822244409123,443.74242022359977 666.068555889884,443.99210526188836 665.8723556693294,444.09575357523863 665.310042225814,444.3107297811075 664.7347672177712,444.5692643155635 664.0899366685189,444.90550921467366 663.8811826631427,445.1293346143502 663.8306179982028,445.3013260687294 663.7865341156139,445.5598188296717 663.5842463289155,445.8961007061007 663.3318162204814,446.1281596678018 663.104071338661,446.3525186337647 662.9147451164899,446.65403135548695 662.7249965511728,447.0415278939181 662.5542971165269,447.38604099687655 662.3520093297702,447.5150272795581 661.9409966649255,447.79066058964236 661.7516704426962,448.006185960141 661.6125156694325,448.24707147825393 661.4292624498485,448.5314939801174 661.2079692231491,448.7982746635971 660.9361113315681,449.2805779023329 660.6772004408995,449.9007133017294 660.5501771093695,450.1129409305868 660.5125594454003,450.17632141552167 660.2977324373205,450.29702999431174 659.8495098880958,450.288219442853 659.6092112213373,450.3312204842805 659.468425329891,450.4877465290483 659.3753787733731,450.81351770466426 659.2932694471674,451.2010209664877 659.1731201137882,451.5449667900102 659.0784570027026,451.7086745832639 658.9267484445008,451.8122965428047 658.5222165617743,451.9065523665631 658.4138637084397,451.94790584620205 658.2058524445165,452.027279088652 657.9720345599926,452.018468661292 657.5359288889449,452.07907010172494 657.3021110044792,452.182155980292 657.0617977742804,452.3546931716264 656.6762713315547,452.56138030349393 656.385408000031,452.6821063820389 656.0318485617754,452.79398228385253 655.4185481102904,453.13849909821874 654.7676445582183,453.4140999481024 654.5807358862949,453.47626830264926 654.2239433387294,453.5948901187512 653.6612221155665,453.7155754956475 653.5665444409242,453.8363004399871 653.4464096712181,454.4216678994708 653.421316664957,454.8697796871129 653.4148504462792,455.3002694568131 653.4464096712181,455.601760218502 653.4022966613411,456.6434989614936 653.40917065955,457.61689165979624 653.3836990008713,457.90956673162873 653.3836990008713,458.81350169025245 653.3456735573709,459.14915202432894 653.2384712249041,459.5366289948579 653.149866552907,460.01008022396127 653.1308611129643,460.33747303308337 653.1559541191673,460.75964973316877 653.2129704391118,461.32792025775416 653.2384712249041,462.2323657910165 653.257899008051,462.4809418055811 653.289035889844,462.87832904479 653.2635351040517,463.4208752352861 653.2635351040517,464.1873089175788 653.2004312177887,464.5141350397316 653.124380330788,465.0393724794267 653.0422564409091,465.3667518871953 652.8525370027055,465.78839543808135 652.6122383360635,466.1504748046282 652.4289851164795,466.27063198262476 652.0818773333449,466.4172370725428 651.8290394453797,466.580925049755 651.582667775976,466.85649574702256 651.3359028907726,467.0201632982644 651.1336296676309,467.19212410916225 650.6534401138197,467.4241626896255 650.3755237830919,467.6567365329538 650.0405620053643,467.98410896683345 649.7245911040227,468.16487769887317 649.2504745529732,468.44044484358164 649.1725158400368,468.482883994031 648.839476451627,468.66420752948034 648.5744925581967,468.81080976338126 648.2140445581754,469.0262982620043 647.6578041173634,469.31069250346627 647.3163615574013,469.40547059706296 647.0194252231158,469.439655769791 646.2418915556045,469.439655769791 646.0196808248875,469.4635635603918 645.9194689990836,469.4743567855621 645.647611107619,469.5691347529646 645.4465612231288,469.72291814905475 645.4453524480341,469.724029214005 645.3947877830942,469.8618011950457 645.3506747733336,470.12853556487244 645.4012394382153,470.4817930384015 645.4833778916509,470.75737482728437 645.495917112974,471.34266167337773 645.4077202204498,471.73010019172216 645.1674361173646,472.31593792521744 644.7628896711976,473.0902520851523 644.4849587769131,473.6242617441749 644.320725560945,474.0199464057805 644.289166336006,474.2866915889608 644.221591438225,474.5060193813115 644.1750900053303,474.6570388873515 643.928718336043,475.22576096843113 643.6633266631397,475.9399829748727 643.4986856675823,476.36212590767536 643.3409041067353,476.7236384555581 643.0759347769199,477.1286772633903 642.7785906631034,477.58497917989735 642.5512389973737,477.9553165376128 642.444444444438,478.0836557194125 641.9634538951213,478.66182514603133 641.6851152213058,478.9285404138791 641.4197381120757,479.178173794091 641.173366442672,479.41901804335066 640.945606997353,479.5738604106882 640.6551514453604,479.6598221428285 640.3517488925136,479.7546120931802 640.061278776906,479.8405736989225 639.5426560000051,479.9012010957813 639.3848890026566,479.65154934552265 639.2582588871592,479.55677915460547 638.9993625600473,479.487898618303 638.6579199999687,479.47962580938474 638.3605904498254,479.487898618303 638.0701203343342,479.5744158985908 637.8363024498103,479.68628715514205 637.463315228466,479.83232075255364 637.2545612230897,479.8598570234026 637.0292338916333,479.96676832213416 636.4199821085203,480.0880031226261 636.1699841138325,480.10839737943024 635.9462587734452,480.1756309510092 635.5603391147451,480.1491858828522 634.8277048889431,480.10839737943024 634.5315841138363,480.0725883951818 634.3373936639982,480.06871983394376 634.029942442663,480.0819522968086 633.747584227589,480.200984881958 633.5732147769304,480.27042050330783 633.1197202203912,480.3503309356747 632.7916470044293,480.414786954032 632.4522287786822,480.43793873814866 632.0274535538629,480.43297905893996 631.6103678862564,480.48477793845814 631.3421654471313,480.5944462715415 631.0970171165536,480.8336212981667 630.8579126613331,480.9730472684896 630.6228860018309,481.006634064368 630.3081530026393,481.0029639187851 630.2919583289186,481.00280520977685 629.8586925511481,481.0375029602437 629.3522012160975,481.171969049843 629.142252999125,481.32405164657393 628.8251024498022,481.554416943487 628.4496831147117,481.8900051615492 628.121595335193,482.0503793445823 627.6757903360995,482.13798593511456 627.2922882275889,482.23717810446396 626.8420267804759,482.43500672778464 626.6009125547716,482.58766307411133 626.2902282240684,482.78384455124615 625.9261393352062,482.9877428159816 625.5296756622265,483.2280042891216 625.0082275556633,483.55368866879144 624.6008557796013,483.8529279141221 624.2747923342977,484.2022775034711 624.1724396657664,484.62550298389397 624.0357898240327,485.01563726499444 623.9790647751652,485.177653918945 623.802700117405,485.53916037117597 623.6930656711338,485.7253983676492 623.6064998969669,485.9772199392319 623.6226654435159,486.27038292432553 623.5312354418566,486.6219474658137 623.4167513315915,486.94815846777055 623.3180395520758,487.19612903453526 623.2424110079883,487.60942542544217 623.2496782221715,488.09544465021463 623.280014108459,488.5291110386315 623.2877036657883,488.73575716643245 623.1918172161095,489.00300601599156 622.9778203307069,489.3363917931565 622.963664554758,489.3699961405946 622.8431074418477,489.66150454239687 622.8261263360619,489.94087189770653 622.9628635591362,490.3921669655829 622.9919906702708,490.70844943111297 622.9317121138447,491.16307429381413 622.7601825565216,491.57246930801193 622.543753557431,491.9267958425917 622.2706868906971,492.2959592845582 621.9943725511548,492.4766922557901 621.7039169991622,492.6419919736509 621.2071395556559,492.91089861185174 620.6080094435601,493.11478007474216 619.6925297778798,493.94902823495795 619.0513255538535,494.5898458372394 619.0323055502377,494.8119144914672 619.0800448853406,495.0361647439131 619.1747225600993,495.2995318112662 619.1925046612741,495.6885610510071 619.2774684444303,496.38171717489604 619.3717237761011,497.15369775050203 619.4506145564956,498.22922178023146 619.4732608853374,498.81824577070074 619.451430115616,500.2888197632856 619.3721315556322,501.5026479314256 619.3680828871438,501.5461864427198 619.3304506596178,501.95225422113435 619.2923960889457,502.3660365420219 619.2386420053663,502.95006210170686 619.1751157760737,503.454764742346 618.9323849956272,504.21180490011466 618.8393530027242,504.40793202703935 618.7758267733734,504.541281633341 618.5209791147499,505.09003069935716 618.479312782234,505.42061582082533 618.5076243343065,505.6520268601889 618.7074800070841,506.33743099615094 619.0108679965488,507.4117837761005 619.0561897813459,507.6547544777859 619.0954239999992,508.16493188534514 619.0654813298024,509.0122874114895 619.0695445617894,510.0039886277809 619.0310967752011,510.5764147617738 619.0569907769677,511.2441592416144 619.1755235556047,511.5609433957725 619.3790055538411,511.92566463688854 619.6371008853312,512.1322714311536 620.0351811129367,512.3906434785749 620.356788110279,512.6093677750032 620.5926303289016,512.8143074068357 620.6848613262409,512.9581199648674 620.73302300449,513.121726130601 620.8026076729293,515.0246507555421 620.8329435591004,516.2223282301275 620.8026076729293,516.8421060733381 620.7115708871279,517.2139712793287 620.5295264426386,517.5445039629121 620.4081537707243,517.7720248041151 620.3171461120364,518.0403211545199 620.3117721600574,518.0744928017084 620.2714456747053,518.3295601478312 620.3778178844368,518.6397218036291 620.3782402275247,518.8462974808936 620.3021747769671,519.1862263631774 620.1355094471364,519.4550551023858 620.0444872248918,519.8269124041544 620.0141513387789,520.1987685809436 619.8927932302468,520.4670596350043 619.572817351087,520.6328770168184 619.2556231111521,520.7771960655227 618.8308624497731,521.107739000523 618.6484102257527,521.2834715808276 618.5727525547263,521.5109855018673 618.512066218711,522.2546865425247 618.4210585600813,522.7708719156799 618.3000936675817,523.0187702218536 618.1718469974003,523.1287179185892 617.8902897777734,523.3702494993631 617.5262008889113,523.7729332910967 617.1014402275323,523.9382107580604 616.6010073315701,524.0412165447779 616.2369184426498,524.0825259263802 615.8728295538458,524.1034681711462 615.5997628871119,524.0208295765042 614.8108987733722,523.6280624703795 613.688718563586,523.08102236595 613.2485642240499,522.8331241853302 612.8844753351877,522.6265552075638 612.6955568924895,522.6089246402553 612.4447287751827,522.585225504823 611.898610005388,522.4816830359632 611.2614544497919,522.4712117758463 610.7909642240265,522.3885720839899 610.3815535502508,522.2646025259746 609.911077887984,522.0993426408968 609.5166385493358,522.058032592904 609.2132505601039,522.1197299278283 609.091877888015,522.3472423012427 608.9709129956318,523.0496285680274 608.8192190009868,523.5040941623738 608.6978463288979,523.8346297653625 608.4696936675464,524.0819706394686 608.2884502187371,524.2786411832203 608.1521207751939,524.5061495611153 608.0914490026771,524.836682469846 608.1217848889064,525.2085433245229 608.1367562240339,525.6420589587651 606.8624451128999,525.8282560324296 606.7714228906552,525.8695846449118 606.6804006684106,526.0348394617904 606.3017482240102,526.9955460124474 606.2292799716233,527.3244857361715 606.2107114383252,527.4087086009968 606.1803755520377,527.9243170642585 606.1346605511499,528.3583982204727 606.0355555556016,528.6532052622642 605.9679952213774,528.8541717991466 605.7098998897709,529.2981452575477 605.6034985529259,529.6699926175643 605.4975195591687,530.2279896016407 605.3458110009669,531.0129449639644 605.1334306702483,531.5808907457686 604.9667507769773,532.0557104430918 604.7240199965308,532.8202884572383 604.511639665754,533.2014453597367 604.1779012267361,533.4906486848486 603.9529671111377,533.5562071608147 603.7531260018586,533.614587093005 603.2676644409657,533.6355277140974 602.5852016640129,533.6355277140974 601.3262696675956,533.7495310897648 601.0228525511338,533.8112423876009 600.8104722204735,533.9351606425189 600.5831205546856,534.1621355699317 600.3553756729234,534.5752542450209 600.3319429120165,534.6005771272758 600.1737390080234,534.7718881730689 599.9459649992059,534.9161906247318 599.5515402241144,535.0197622813575 598.8387415609322,535.308961329225 598.6752947769128,535.3816774118168 597.7921898951172,535.7732965017203 597.428101006255,535.9798632207094 597.3520355555811,536.083414151537 597.3067283342243,536.2899803496257 597.2610278968932,536.6821517762437 597.2157061119797,536.9713469139824 597.2310852266965,537.209301810537 597.3674001066247,537.5398005684256 597.6404667733586,538.0145972530299 597.7039930026513,538.1258601099835 598.1109569991822,538.8408271555381 598.5272416711086,539.4290815366257 598.823755662248,539.7799586861511 599.0664864426944,540.2756862103415 599.3124503324507,540.8953229759063 599.5365688888705,541.246751150582 599.7339924480766,541.6185227168608 599.9160223288927,541.8762974242272 600.204468110227,542.0624897421221 600.5988928853767,542.2277227951272 600.9023100018967,542.4133395480167 601.1903480035835,542.6611982513568 601.4180928854039,542.8677335700486 601.6757950009778,542.9916823547974 602.0855988906696,543.1365303603525 602.4205606685136,543.2543915000279 602.5556813369622,543.3017817986256 602.9501061119954,543.476927458978 603.3744735574,543.8277930574259 603.6321756729158,544.0343264164985 603.8142055537901,544.3444430591189 603.8906642204383,544.8604960404045 603.9428600035608,545.602985129779 603.9667151075555,545.9450013083406 603.9363792213262,546.3580803953519 603.8150211129105,546.7298761635029 603.7239988906658,547.1225694757013 603.6329621049226,547.7008901328372 603.5872471040348,548.185006297048 603.5872471040348,548.5980778589437 603.7086197760655,549.0111678608228 603.9513359929551,549.4864952507196 604.1333950010012,549.8169610101031 604.1706048853812,549.9359260867932 604.1483517724555,550.1374923189287 604.0269936640398,550.5092568322725 603.9541758862906,550.6689863495121 603.905635555624,550.9013829092146 603.9238400000031,551.107924214768 603.9304372906918,551.1244601937651 603.9817010062397,551.2527824870194 604.1333950010012,551.5622861077136 604.1779012267361,551.7479085973173 604.1940667734016,551.9649172303907 604.1180158862844,552.3157189554186 604.0124301084434,552.7701160397264 603.935563662264,553.0488046852406 603.8979459982947,553.5808214591816 603.8069383396069,554.1739620321896 603.8154143288848,554.3496473573614 603.7956078933785,554.6547813002253 603.7045711075189,555.0782797869178 603.6515888924478,555.5739456390438 603.512011776038,555.6301143673481 602.9234111147234,555.5943273761368 602.0556562204729,555.5684338457359 601.4334720000043,555.5370681684581 601.0851554418914,555.6196657565888 600.6603947805124,555.805797612149 600.4479998862953,555.9501150339784 600.3569776640506,556.0949477756512 600.3569776640506,556.5900543898169 600.3569776640506,556.693607791618 600.3674925511004,557.0400144022133 600.3569776640506,557.4480996467173 600.2687807715847,558.0726262575772 600.204468110227,558.465283348778 600.0988823324442,558.8728285600082 599.9880391111365,559.1878444598115 599.8715306667145,559.388860225823 599.5830848853802,559.7088312856795 599.1890678897616,559.9979722721619 599.0875307805254,560.0464267154748 598.9948774400982,560.0910150958807 598.5207608888741,560.3647505211993 597.9754285511444,560.70012366437 597.6032568888622,560.9429890785541 597.171607665834,561.164382789575 596.9288768853876,561.3505062529584 596.7468470045715,561.515713390254 596.6707961173961,561.7222566945711 596.5951384462533,562.0317339662288 596.337043114705,562.424398241943 596.0340337778325,562.7961256119015 595.8216534471721,562.9712633337476 595.6545803378103,563.2399765325536 595.5938794382964,563.5494896355085 595.639609002741,564.0038055618061 595.7002807751414,564.4581594600459 595.8216534471721,564.8298608576006 595.7609816746553,565.2951947694528 595.5635435520089,565.8525146628672 595.4118495573639,566.120706119109 595.2451696640346,566.223656749673 594.9870743324282,566.2649717869062 594.638349994726,566.3272020398872 594.319582890661,566.5337174387241 593.9255513315438,566.8228225547646 593.8992641138029,566.8456408751372 593.4858193351538,567.2044688148599 593.1370949973934,567.4935525294568 592.9970518471673,567.6461032900261 592.8337070080452,567.8239699026744 592.6969552214141,568.1543863881961 592.6516480000573,568.5673908783065 592.6213121137698,569.3521213604254 592.5606257778127,569.9616994933167 592.520576000039,570.1158926051285 592.4696181191248,570.3124895335641 592.2572232249076,570.705107547139 591.9538061085041,570.9942226817948 591.5597745493287,571.26238310177 591.2713433315512,571.5101836650865 590.9982766649337,571.7888298460457 589.7543160036439,572.8213376955537 589.1321172196185,573.3273791481333 588.8440792178153,573.554261553887 588.3436754489085,573.9666928497318 587.9342647751328,574.3180265272676 587.4184818915091,574.7205435086507 587.2364374471363,574.9215338884387 586.9330203306745,575.2574223944684 586.7311548871221,575.4485002020665 586.4475733333384,575.7733853168902 586.0984412160469,576.0834021084593 585.5830661120126,576.4242432498431 585.1283482169383,576.7959481311264 584.5215431110701,577.3328179577366 583.2015169991646,578.4786861421599 581.9733286684495,579.542517220194 581.7629581085057,579.7078783267934 580.8049965510727,580.4609603631252 580.3652645546827,580.7395862668927 580.1832201101934,580.8221867531538 579.8146747733117,580.8403441841074 579.3486409955658,580.8634572417359 578.6775086648995,580.86843269362 577.9533795555471,580.8739235306566 576.5577103359974,580.8430995145463 575.5564658915973,580.8640122722718 574.8464779946953,580.8943010753137 574.4366886685602,580.8788989820168 573.9330226631719,580.9361463923997 573.6150565546704,580.9879227668862 573.2813035519794,581.1321709970362 572.9625364480889,581.2769939090358 572.5834616604843,581.5660841942008 572.3104095573653,581.6998655285861 571.9159847822739,581.8650453337177 571.4155664498685,581.9889548199426 570.9301194524742,582.1954241007916 570.4899651129381,582.3297994191526 570.156212110247,582.4746010988893 569.8378527858295,582.5775776858791 569.6266666666488,582.6812479645596 569.4587779982248,582.7636687470658 568.9887101155473,582.8462480519956 568.6549571129144,582.8974686011788 568.2148173368769,583.0213572251669 567.593026332499,583.3104434105917 567.5626904462697,583.4552439358667 567.6949712213827,583.7008196867828 567.729355775984,583.7646863487025 567.9993058418622,584.165527192119 568.0631087786751,584.2602366021893 568.5789062258555,584.8383628267911 569.5194643342984,585.9847359220439 569.6266666666488,586.1105639605084 569.7694623289281,586.278195726627 569.9596041102777,586.5006538476446 570.0809767822502,586.748423712852 570.1869557760074,587.2026737767155 570.3224842240452,587.6563473417773 570.4600224427413,588.4508666933689 570.551044664986,589.4006201944139 570.717724558257,590.8156235540227 570.8241113315453,591.4763321230421 571.0061557759764,592.0131180585595 571.1606896640733,592.3220037858409 571.2792224427103,592.4767238475615 571.3856237795553,592.8070542942733 571.2796447858564,593.5299488385208 571.268299776013,593.6015403789352 571.2181428907206,593.9115122405638 571.1801174472203,594.2473488949181 571.1004256711458,595.2328727546264 571.0822066631517,595.6254112322058 571.0369140054099,596.0796086971823 570.993223338679,596.4341693422757 570.7792118897778,598.1744727091282 570.6275033315178,599.8161893034412 570.6198283378035,599.9070416917384 570.5556613120716,600.6827526646957 570.4454588871449,602.0144851228397 570.3127848959994,603.729916194221 570.2787935573142,604.1918328735337 570.2181072213571,604.604716383561 570.1270849991124,604.8628942176292 569.9903623395949,605.0484164672671 569.8540183324367,605.1723026037798 569.7476315591484,605.2961489784357 569.7326602240792,605.5025989629212 569.8236824463238,606.101553653134 570.0057123271981,607.1646107829874 570.0214992213878,607.3919658806117 569.9608128854306,607.5571111915342 569.6266666666488,607.9947560932487 569.5510089955642,608.0938467845554 568.5497791146627,609.5278981520387 568.2767124481034,609.9308548383124 568.2309974472155,610.075088952377 568.2613333333866,610.3024584895757 568.4284064427484,610.5705332334328 568.5926542222733,610.8424718424212 569.2019060053863,611.8504349372233 569.445030001807,612.4592674395826 569.6266666666488,612.881912982004 569.9150978845428,613.5530656503106 570.0364705564571,614.0380522769119 570.0971568924724,614.6573175523954 570.1881645511603,615.2766193451243 570.2189227804774,616.0505688051053 570.160770503222,617.1977410115942 570.1582510080771,617.2478375278006 570.2642300018342,617.8880129302852 570.4616389973671,618.4032422235177 570.7800274489564,619.0434314312297 570.5166601102683,619.0698466450849 569.6266666666488,619.1596741832618 557.4903752249083,620.3844967385812 554.7050806613406,620.6656083314738 554.1334756694268,620.7233920813596 553.1006720000296,620.8274463581911 545.3540692195529,621.6094656297355 538.6297552213073,622.288318690029 533.4649650062202,622.809593181184 533.2177777778124,622.8343430631794 533.1190659982385,622.8442509408633 526.5861025565537,623.5036976707634 526.4861820018268,623.513605494576 526.1981439999654,623.3484617832873 525.6216602169443,622.7600537707622 523.4828418844263,620.6039604120306 521.4496093298076,618.446739367093 521.081486336072,618.0761709549697 520.2088089600438,617.1977410115942 519.2047974400339,616.1870869999984 517.2023231147323,614.1541808549373 515.1998196622008,612.1416333077068 514.7135571058025,611.6588587720471 512.8182851129095,609.7783763261687 510.2239478898118,607.2290003576782 508.94518033071654,605.9504973253352 508.4795543325017,605.4849802727695 506.5830590010155,603.5345023431582 504.7933582222322,601.6869144433294 504.3685829974129,601.2530920332938 503.8095900444896,600.6827526646957 503.57973344711354,600.4482105593197 502.7933014470618,599.6125045059598 502.3661086719949,599.158280445321 501.68322355201235,598.4563485610706 500.2422471111058,596.9593984493404 499.69611377781257,596.4022591242683 499.3623607751797,596.0102384476049 499.04359367111465,595.597326092131 498.22439367108746,594.8645335662877 496.80888888885966,593.6000340235769 495.9945385528845,592.8725811573095 495.0843308942276,592.047269156028 492.3844078933471,589.559189227235 490.8066796658095,588.1662127476302 490.5813523342367,587.9542233252141 488.576431331574,586.070623284817 486.5224457102595,584.165527192119 486.36156211199705,584.016307194921 485.57269799825735,583.3142889024748 484.6725974471192,582.4741451869195 484.12119210668607,581.9592213119613 483.61551633063937,581.4873495787906 482.7053086720407,580.6823189424758 480.93097244453384,579.0612600277236 480.2938168888213,578.4627287050243 479.3985660018516,577.6780761728296 478.2456129991333,576.573472457676 478.1808925582445,576.5156481434533 477.5024638863397,575.9127036571153 476.74395022226963,575.2321078830573 476.3119077831507,574.8136148418125 475.56066133332206,574.0856345670472 475.14437666139565,573.6258448979061 474.9995566649013,573.4661451951833 474.49873055284843,573.0531373312988 473.7098810027237,572.3824376758712 473.3611712284619,572.134638870135 473.0727254471276,571.8461013114138 472.53629144182196,571.3591443251644 472.3902626702329,571.2266006591672 471.9654874454136,570.7309978906997 471.1762155519682,569.9358288121875 470.41770188801456,569.2546448800422 469.65958144003525,568.5013158039656 469.4472011093749,568.3157186005556 469.2348207787145,568.1709002505231 469.0527763342252,568.0057020532258 468.6754637369304,567.6461032900261 468.2946558863041,567.2832125741115 467.55109899374656,566.6735815154971 466.8079644445097,566.1366651575372 466.3528533334029,565.7858830314653 465.9280926720239,565.5590061194962 465.60970422049286,565.3926743880147 465.0785422222689,565.1151239182509 464.62343111116206,564.8463751663803 463.94057511823485,564.5159696184273 463.54612121602986,564.2681549622503 463.1213605546509,563.9173476812139 462.7423148942762,563.7108477140428 462.0290938880644,563.3699515123735 461.46798921958543,562.9982457023289 461.05819989339216,562.7096668823215 460.8308482276043,562.4822291818564 460.7094755555154,562.3379194255103 460.43681666854536,562.2344104274525 460.4000000000233,562.2093509672268"/></g></g></svg>