<svg width="1200" height="800" version="1.1" xmlns:xlink="http://www.w3.org/1999/xlink" xmlns="http://www.w3.org/2000/svg"><g class="geojson-features"><g class="geojson-feature" stroke="#555555" stroke-opacity="0.0" stroke-width="0.0" fill="#111" fill-opacity="1.0" data-properties="{&amp;quot;N03_002&amp;quot;:&amp;quot;石狩振興局&amp;quot;,&amp;quot;fill-opacity&amp;quot;:1,&amp;quot;description&amp;quot;:&amp;quot;札幌市手稲区&amp;quot;,&amp;quot;N03_001&amp;quot;:&amp;quot;北海道&amp;quot;,&amp;quot;stroke-opacity&amp;quot;:0,&amp;quot;N03_007&amp;quot;:&amp;quot;01109&amp;quot;,&amp;quot;fill&amp;quot;:&amp;quot;#111&amp;quot;,&amp;quot;N03_004&amp;quot;:&amp;quot;手稲区&amp;quot;,&amp;quot;title&amp;quot;:&amp;quot;札幌市手稲区&amp;quot;,&amp;quot;stroke-width&amp;quot;:0,&amp;quot;N03_003&amp;quot;:&amp;quot;札幌市&amp;quot;}"><title>
      札幌市手稲区
    </title><desc>
      札幌市手稲区
    </desc><polygon points="647.17715706327,678.794583865907 647.1485542403534,681.3135848791571 646.7844070971478,682.9332776454976 644.4332666881382,686.9633039071923 641.323132018093,692.5907847221242 639.8213964230381,695.4155872096308 637.8051595378201,697.5136207850883 635.7258333300706,699.4034783302341 635.5446044446435,699.574079586193 635.2533333336469,699.8465310250176 633.6626435413491,701.3352808461059 631.8745884445962,702.23039487598 627.550843562698,704.2840544698993 624.761048860848,705.4472248040838 620.7545564731117,705.6155907688662 618.8127102295402,705.7196729682619 617.1297457497567,705.4893362398725 613.9743475483265,705.6133575873682 607.9838911150582,705.19910223654 606.1634466701653,704.8047059327364 605.071121749701,704.8247248427942 597.7732075520325,704.0979820524808 591.2212386701722,703.3093468620209 590.6305991113186,703.3093468620209 586.7081675662193,704.1578793533845 584.4864097849932,704.6386526308488 577.4020555661991,705.9678750275634 574.9226393601857,706.4610087582842 572.7157946596853,706.900625534472 571.9374599966686,707.0556717052823 570.4099177815951,707.3591441347962 569.4227999860886,707.6693956486415 569.3482345812954,707.7115068928106 567.0279689105228,709.0207819496281 557.5632306633051,713.4494490139186 556.728214642033,713.8393720533932 549.6746186525561,717.3906163084321 545.5466662116814,719.4332858636044 541.9090395590756,721.2320594103076 541.2763404515572,721.5334494354902 538.1629435450304,723.012163983658 535.614379576873,724.2228227982996 533.9007151219994,725.1998812920647 532.6870466563851,725.5941813832615 528.5914253087249,727.6080258550355 523.5557555768173,730.0382499939296 518.1688711398747,732.4905533791753 516.3936902259011,733.2371121895267 515.3628817638382,733.4874535754789 513.8159408927895,734.1520259927493 513.145959082758,734.0702006124193 512.100645319093,733.9438736829907 509.76564132981,733.7777505303966 505.5163453440182,733.0976259649033 503.8043120072689,732.8228802544763 494.94640799309127,731.2655596330296 489.6177777778357,730.3102856863989 488.05254508089274,730.02963672427 487.8782484482508,729.9983737437287 485.1629608962685,729.561967848218 483.09813998942263,729.5818262392422 473.7111128747929,730.0404830641346 467.2319617709145,730.3106844485737 463.06841600011103,730.6208416388836 461.6347213368863,730.7249185128603 458.391941802809,730.8645649196114 457.8481968927663,730.8866563233314 457.28184934402816,730.9110605445458 453.914464028785,731.0794974886812 450.04533509677276,731.287651018938 448.91747510037385,731.3098221557448 441.3687182222493,731.4537750176387 441.07261201087385,731.462069253088 436.8313551074825,731.5778695279732 435.61156994849443,731.115944301011 434.146825785283,730.561107086367 430.8845893407706,729.6682780190604 429.5350137744099,729.3780583757907 417.9019951217342,725.9708557080012 412.9261524763424,724.6416079651099 410.37747199996375,724.435525193112 405.28022755589336,724.3934951432748 398.5453986704815,724.435525193112 392.5273879892193,724.4119181827409 387.89623557706363,724.3934951432748 386.379936426878,724.5596214858815 385.1776857885998,724.52197788388 381.2212337779347,724.3956484858645 373.9394559999928,725.0602332670242 361.8047519859392,726.3496033228002 355.06835023639724,727.0562950239982 353.43076579575427,727.3465160463238 351.21547423279844,727.3465160463238 350.396652885247,727.1803906513378 345.84478446957655,725.0602332670242 343.9822222222574,724.2559204774443 335.36543243401684,720.5342917401576 330.6468404340558,718.520418117987 329.9947426703293,717.6077081761323 327.868463559309,710.2968751204899 327.7211968852207,709.8027881911257 326.1693626595661,704.5654360279441 325.28908310760744,701.5546928034164 324.6985018029809,699.9750999766402 324.24213822581805,698.1893284455873 323.81816399632953,696.8179727108218 322.98320622951724,695.5307579615619 322.24046489596367,694.657884217333 321.7242742329836,693.6742244642228 321.61906710779294,693.4748283434892 319.99441510415636,690.9624302490847 318.90214843768626,689.4269897399936 316.9603604483418,687.70331224252 309.240044885315,682.239762342535 307.8743328996934,681.5129859625595 303.8704619521741,678.794583865907 299.9549626596272,676.135828098515 295.43705645552836,673.0734633501852 294.03895512153395,672.1256530247629 288.5938164626714,668.5341187684098 285.49824534752406,666.9963744236156 284.6486657706555,666.2475608085515 282.7376360106282,665.2106418927433 281.0999933157582,664.6279722590698 280.8880644554738,663.338439334766 280.4640902262181,661.306622435106 280.2795991040766,659.3591076771263 279.55147958081216,657.3650027731201 279.01909424364567,654.4048586830031 278.4283964303322,652.5038195018424 277.8523204268422,651.6307891278993 275.18398577766493,654.621978535084 274.06096088164486,655.7453847812722 271.45088045531884,657.6131496307207 268.44752577412874,658.2379431374138 266.2322342118714,658.0717942465562 265.1400257991627,658.2069946203846 263.65448487829417,657.9454476683168 262.5314599822741,657.6973807439208 260.54277734435163,657.2918588505127 257.58637556643225,657.156737987767 256.18984709726647,657.4891160997795 253.64128312910907,658.652318065986 252.7625764410477,659.3591076771263 250.10874709370546,660.9742469198536 248.16695910412818,661.678879553685 246.8918324338738,662.0513756789733 246.0278058098629,662.3036678612698 244.29788842680864,662.9683370939456 242.5681458064355,663.7173152610194 240.9612613406498,664.0074941403 239.2314604660496,663.7993119492894 237.6537031114567,663.0104521907633 235.7118568676524,661.2247050926089 233.6487253336236,659.3591076771263 231.96261512534693,658.1338508239714 230.50783243379556,657.8834708309732 229.30231955926865,657.2519766637124 226.64202399295755,656.3280650069937 223.6678546774201,655.1248953825561 221.39267777418718,653.2548876005458 220.3909964230843,652.0074407059001 218.02523420471698,648.8921198139433 215.02030665939674,644.863933233195 213.63595332275145,644.392034984543 212.77588798617944,643.6586614468833 210.16743867727928,638.6333400257863 209.77259155921638,636.47291453043 210.04609513259493,633.8959301696159 210.9862600248307,631.1550076935673 211.62210486084223,629.7856175692286 215.38439554837532,630.3219033299247 217.10207954514772,630.3629044779809 222.5124986881856,630.4881414264673 230.6162435412407,631.6957589900121 232.65030621900223,632.4845097712241 238.78156310785562,634.1042846383061 241.34474888560362,635.2675422767643 243.5988377602771,635.9300147885224 246.3595053514,636.3045247397386 246.8918324338738,636.1902174729621 247.71222664532252,636.0142496398184 249.08935645897873,634.9329155433225 250.00033598626032,633.5214981405297 250.48576841969043,632.0679589005886 251.79654667386785,628.4141496103257 252.82892800006084,626.4199184078025 254.50373688875698,624.5275450085755 257.1284391256049,623.0119179800386 259.5556595486123,622.0147923715413 261.618849337101,618.8152019758709 263.50081024016254,614.6182903797599 263.8940262401011,612.6173818169627 263.951115377713,612.3226254280889 263.9571155628655,612.2915942308027 264.3584288994316,610.6540376662742 265.12383112544194,609.4907214235282 270.17412266670726,606.7696849576896 275.69534134073183,604.9414526483743 279.9123062330764,603.3216608674265 282.61303022969514,601.5755025600083 286.61637688893825,598.7081166333519 289.2555844266899,597.9191517732106 293.20073511847295,597.2965148037765 295.43705645552836,596.0954334824346 295.44509553792886,596.0910458923317 298.9355137706734,593.4319198159501 299.4565977884922,592.8070434301626 299.82878401409835,592.3615801901324 300.0262075737119,591.8829301240621 299.9048057743348,591.1139778112993 296.2040897991974,584.915806220728 295.43705645552836,582.6721755637554 295.38363733375445,582.5159730456071 295.43705645552836,582.2326863292838 295.626382677583,581.2284571299097 296.248363008257,580.2529455688782 296.7186493440531,579.5154071163852 296.59730579936877,578.3098943296354 295.43705645552836,575.6754823316587 295.3528791042045,575.4844944883371 295.43705645552836,575.0372603409924 295.5956244482659,574.1947262585163 296.5066039755475,573.3636787658324 299.9549626596272,572.8428872197401 301.7252502187621,572.5747527525527 303.66703820833936,571.6196471716976 305.1833373582922,570.1238006489584 306.4891640038695,569.0024313132744 308.70282444823533,566.0107176598394 310.6122813441325,564.2245362054091 313.1317182010971,562.4805517630884 314.5541697992012,561.2749171582982 315.8211991323624,559.9873452592874 316.85358045902103,558.7818640623009 317.9960040105507,558.2853900347836 320.5655977530405,557.6604686911451 321.9913115876261,557.2038838822627 323.4476671430748,556.9136415608227 327.6629426633008,554.130162669695 328.39112044125795,553.172787147807 329.4235017672181,552.0092542372877 330.0303942542523,550.8458781193476 330.91061555221677,549.642448694096 332.2440546990838,547.8119282437256 332.9869125406258,545.8417016753228 333.6696520249825,544.0310329158092 335.55155467404984,542.2027253659908 335.97547064884566,540.5848797003273 336.5224195413757,538.7565592521569 336.3541813476477,537.5598018931923 336.46090308297426,535.9307710641297 338.1293040071614,532.482406513649 339.0095835593529,529.8649011753732 339.68923557014205,527.0879701438826 339.7377613373101,525.2927901231451 338.7781977886334,523.5730014755391 337.88655866333283,521.9705726813991 336.8558084552642,520.8071250199573 336.03541424381547,519.018464445835 335.5482924375683,517.6997439533006 334.9107582294382,515.6851936553139 334.7909875486512,512.3695332743227 335.24566175276414,511.1239606521558 335.60980889596976,509.87623056571465 337.0968644269742,508.79685130913276 341.73949292115867,504.559099748265 343.9239679998718,502.8149022713769 343.9822222222574,502.79224202549085 347.4726404552348,501.44291822391097 350.1555969140027,499.00262023776304 350.8707840000279,497.7038731036009 351.8109488924965,496.8306458357256 353.874080426991,495.5007745185867 356.7253333334811,494.25507908756845 358.13316312176175,493.55922132136766 359.3030826668255,492.592790452647 360.4875657672528,490.7221604093211 360.9422982260585,489.64050465484615 362.8225697565358,487.23118684545625 366.0087844412774,484.61359858652577 367.10105110751465,482.78506861964706 367.82759776711464,481.5814714982407 369.2241262362804,480.37571699300315 369.7929204623215,479.3517289782176 370.0266946561169,478.9305790726794 372.01543554873206,476.343906370108 372.80349866696633,475.43074387928937 373.87147332308814,474.0808657206362 374.74528665607795,472.9792244938435 375.98971335124224,471.9396610171534 378.56740443059243,469.48828369856346 380.38627601065673,467.53545574331656 382.11607688548975,463.96236601716373 383.37343601789325,461.2693252667086 384.3006102188956,458.8067228401778 384.84761736541986,456.02260501659475 385.3621186562814,453.072332488955 385.8799404373858,451.03525195096154 387.48519378504716,447.1296002570307 388.6697351397015,443.5563612357946 389.1082146705594,442.2774165244773 389.3055799752474,440.81445032916963 389.441545329988,438.9523999603698 389.9432306915987,436.90632288437337 391.8235022225417,433.2488190534059 392.5273879892193,431.9669745058054 392.9578284374438,431.18292735912837 394.29284044820815,429.3940183323575 394.67475512903184,428.4696756096091 394.94814219418913,427.55418914731126 395.40287465252914,426.22412918007467 395.40287465252914,424.73007177875843 395.4951493407134,423.23369553068187 395.49188710399903,421.6044429447502 395.0388440180104,419.62045987311285 392.85425243061036,416.29528904298786 392.73290888546035,414.6748715521535 393.03553956979886,413.3026398787042 393.25265305605717,412.85262366198003 394.42385419411585,410.4252103641629 395.3414164481219,408.5210666890489 397.04045909363776,407.02464077284094 399.31563599640504,405.6946046949597 400.3901351254899,405.1271076994017 401.076195100788,404.3245823455509 401.39181647635996,403.3381032217294 401.4095257599838,401.54023370787036 401.20889821858145,399.97068374138325 402.44039247650653,398.87996844074223 403.56335911829956,397.8823851807974 405.53427421860397,395.84523402748164 406.6702315523289,394.8497195561649 407.47606220818125,394.14262691594195 409.02311958768405,393.4354534444865 410.17521334066987,392.2715399283916 410.4179586847313,390.56900016451254 411.502128014341,389.5292612472549 412.23834487469867,388.8221609025495 413.573356885463,388.40755700774025 415.12198712909594,388.032856938662 417.76125292130746,386.4101110198535 418.699728440959,385.24618075822946 419.3372626490891,384.82949879637454 421.73378309677355,384.45703063183464 423.25165511108935,384.08232753141783 424.7080106670037,383.9160055515822 426.1028497638181,383.66556476731785 427.9362848997116,383.177851322107 429.4233404304832,382.3886180439731 430.9573488640599,382.1713771505747 432.8991951076314,381.34000285959337 434.23257600003853,380.883253187174 436.023893333273,379.63519030902535 437.20680357003585,378.721846966655 437.97220579581335,378.0479319266742 438.3120026742108,377.74632990383543 439.42203687829897,376.76873582729604 441.07261201087385,376.25858880672604 441.1794502544217,376.2255473511759 443.88011599658057,375.7267328343587 445.359132444486,374.36548537912313 445.82196224015206,373.9397755282698 447.5501319966279,371.6962928487919 448.45953865977935,371.15533344086725 450.979033770971,370.53240732557606 453.9225031111855,370.2840347690508 457.56339200004004,369.4105796351796 458.4129133229144,368.7033703448251 459.14114935463294,366.9163873353973 460.41301378887147,365.33571200969163 461.9599546599202,363.59093740885146 462.5069035519846,363.59093740885146 463.85484800022095,363.30943917972036 467.0895884518977,362.84165852016304 473.4295702185482,362.2186419857899 477.4636751075741,361.55132862122264 480.9832204517443,360.5536690966692 483.89593156287447,360.1811824142933 488.8718324622605,360.8463427060051 489.6177777778357,360.8042015482206 491.8152435484808,360.6800128115574 492.3605613228865,360.6800128115574 493.81534401443787,359.6823515071301 495.4238013441209,357.76907086058054 495.8703782116063,357.09065735095646 495.9578177991789,356.9553736029193 497.3640164693352,354.8182046664879 498.15365245146677,353.7806244111853 500.51941467029974,352.117777732783 501.9757702257484,351.16000612440985 502.2767697921954,350.9494557476137 503.40299867023714,350.1623253681464 504.1699737601448,348.987294265884 504.40299064922146,347.408715902362 503.51146803214215,346.41102748096455 503.3604148339946,346.34454145189375 502.3091008856427,345.8812141927192 501.6100502186455,344.96557287918404 500.1844528927468,344.085367947584 499.06305911485106,343.88806390424725 497.54687647288665,344.511024012696 495.5143866594881,346.00748188921716 493.9196773264557,346.34454145189375 493.5418404408265,346.4243566116784 492.08548488561064,346.7968537887791 491.14531999314204,346.4243566116784 491.004869063152,346.34454145189375 489.6177777778357,345.55660549597815 489.3346040036995,345.39561801962554 488.0270879857708,344.1295857524965 487.66136797866784,343.7748854162637 486.2082746597007,342.30052968184464 484.98493599309586,340.56237731908914 483.71470267744735,337.91726422391366 482.64993200381286,335.6979601808125 482.3166013439186,334.82667805138044 481.46702176728286,333.53627411532216 480.8278564410284,330.7203928818926 480.40225109341554,326.37701249611564 480.09000846231356,325.04452180175576 479.8294955804013,323.935839519836 479.3133049174212,323.0223919816781 478.706412430387,322.02465372753795 474.6399181939196,316.8276017399039 471.7272653367836,313.42191028327215 467.1769697852433,308.515156879439 465.72061422932893,307.88991584058385 464.8759280072991,307.35104091558605 464.80957644828595,307.3088951400714 464.6559018099215,307.0605702419998 464.05064044101164,306.0939298499143 462.8677302042488,305.47970112483017 461.9712559785694,305.8854354036739 461.3644800002221,306.1338407213334 460.93887465260923,305.94753674510866 459.04567068465985,302.739169965731 459.7737902079243,301.69924400013406 456.4063466384541,298.1648521046154 455.1911053089425,296.21133886964526 454.1361213440541,294.1891694468213 452.916044913698,291.8455401995452 451.49044758756645,289.97398132516537 450.33823732612655,288.8920404519886 448.97252534050494,288.27108481305186 445.9659666772932,288.18016451608855 444.1487262151204,287.31542304204777 442.08716754522175,286.77444995904807 441.07261201087385,286.5921298415633 440.23602312547155,286.4418194660684 438.8702528853901,285.27765086712316 437.86862978874706,284.4461913970299 436.1080706845969,283.86514279502444 434.51411865628324,283.52149440918583 431.739004018018,282.1179217310855 430.4655084661208,281.8275158695178 429.7372724341694,280.9537428211188 429.949259548448,279.9160055774264 429.97226996626705,279.8273986800341 430.5852208926808,277.45472349307965 430.6176102401223,276.8404587346595 430.6127168855164,276.3637344673043 430.6062506670132,275.60107046330813 430.59331822930835,274.17959377297666 430.5447342081461,269.0884429004509 430.5447342081461,269.0173961558612 430.5285977886524,267.47631787485443 430.51566535118036,266.16138828662224 429.73401019745506,265.7489154111827 426.3326626706403,264.3985372885363 425.7322946563363,264.16120691003744 422.21280756639317,262.7887118109502 421.5752733582631,261.7087862403132 421.2726426741574,257.9678251235746 421.1189097815659,253.8610530992737 420.9360497780144,252.4462986976141 421.01049867412075,250.99154498847201 420.7855208676774,248.6543343338417 420.66097334073856,247.87374483479653 420.2693302046973,247.23948501097038 417.9165586773306,245.46331362519413 415.2643604481127,242.95962666370906 414.6882844446227,241.4207014227286 415.4278217959218,235.96325356711168 415.8533688890748,233.69678335136268 416.07991955941543,232.36627501086332 416.2919066741597,230.5988312556874 416.5961684763897,227.54508786369115 417.0734453191981,225.86648286518175 417.4601951004006,224.50928826234303 420.9344769141171,224.77976946427952 421.24025332648307,223.79284766037017 421.6642858099658,222.1717911354499 421.754871125333,220.75702472252306 422.63351955940016,220.00960231455974 423.9539097601082,219.3953451012494 424.07525330525823,219.33985913102515 424.57373468461446,219.10705749457702 425.14654845162295,218.84096413024236 426.42814134061337,218.24426939163823 427.4411240108311,217.7741941359127 429.98968797852285,217.0888798069209 429.97681379597634,215.7672678862 430.6127168855164,214.10395104787312 430.89909464190714,213.89110612065997 431.6983425708022,213.30111163237598 431.7373146454338,213.27229050302412 432.9509831110481,212.93960992095526 433.61764443060383,210.90152724203654 434.58856755215675,210.06994107819628 437.5902328605298,209.4046551598003 439.9884426810313,209.4046551598003 441.07261201087385,208.45770096417982 442.0807595802471,207.57724987075198 443.50792977097444,206.3708185220603 445.66176312905736,205.5812993638683 447.51290754857473,203.62525994842872 450.0000715663191,202.83565651031677 450.96930531575345,202.2125155852409 452.195906218607,200.76655412220862 453.50016000005417,199.8107210244052 454.2461053156294,197.9699466318125 455.6410026671365,197.13833843602333 456.8546711327508,196.847722334438 458.12973954854533,196.59942107787356 459.586095103994,195.93403695872985 460.6169035662897,195.06026982632466 464.65095020085573,191.98195276246406 467.45210447651334,189.4492487682728 469.2028768712189,187.86568332987372 471.9942444374319,185.95172917516902 476.1804511004593,182.9998242133297 477.3293991254177,182.25689497950953 479.51713644107804,180.83754170208704 479.9880053193774,180.52248415665235 481.00425022584386,179.83943295129575 484.6742662258912,177.30443034833297 486.9801431039814,175.55674797284883 489.4074217816815,174.10184492880944 489.6177777778357,173.9419985502027 493.56450133328326,170.94131620496046 494.65682625444606,169.7348741410533 495.4432000000961,168.27987389778718 496.26359421154484,167.03342316753697 497.1568062007427,165.88014800171368 500.8446479931008,162.50222736701835 501.45148222590797,161.67055873654317 502.84632132248953,160.5881737463642 505.0147182366345,159.0178489118116 506.48726846580394,157.7181970847305 507.5940986883361,156.274259645259 508.7623871148098,155.63996062718797 510.15885732974857,155.38932285981718 511.58445465634577,154.76612135500181 512.9486520320643,153.97643886844162 514.3742493584286,152.6856366150314 516.1638773190789,151.64762663526926 517.984321763739,150.8558630774496 519.592779093422,148.56903574592434 520.6851040145848,147.15621185686905 520.9467819803394,146.7658360938076 521.382523562992,146.11595437512733 521.9909306596965,145.11785446153954 523.7207315342966,143.454376684851 524.8130564552266,142.4984313393943 525.6917048892938,141.2917592653539 526.6027426703367,140.29364948545117 527.7225053298753,139.13144788483623 527.725767566124,139.12921211135108 529.7565097531769,137.2593832182465 531.5171271113213,135.51163728558458 533.5803168995772,134.63991791638546 535.0059142259415,133.05841043090913 535.7033920285758,131.7720244639786 536.5512822330929,131.0222299619345 537.7066964765545,130.83146736433264 538.1629435450304,130.75672737287823 540.860463558929,130.31467522261664 542.1954173154663,129.44302642112598 544.2586653584149,127.19602425419725 546.4431404373609,126.0737170589855 548.3849284264725,125.65673396282364 549.5063804588281,125.53248538787011 552.2977480250411,124.41017436690163 554.3608795590699,122.74662600422744 555.2412173654884,121.74847829400096 556.12143866322,120.91658050694969 557.3949342151172,120.12476708949544 558.5778444516473,119.12661401659716 562.0973897958174,117.62938057968859 563.1588399787433,116.4249627427198 563.7657324660104,115.05189243832137 565.1621444264892,113.80538560659625 566.6492582117207,112.8071397546446 572.654278201051,109.51988520112354 575.1414422187954,108.02254243509378 579.6157160107978,106.37003797083162 580.5558809032664,105.37185676360969 581.2160760038532,104.71529197948985 582.0914622009732,103.84798946778756 584.335880874889,101.6186771527864 586.7081675662193,99.99202417209744 589.311781774275,98.20709169644397 594.8928857883438,94.8798106436152 600.778193351347,91.43040578020737 603.1148284587543,89.55815811292268 604.7831128749531,87.60388963052537 607.5744804409333,85.48326948401518 613.2186737779994,82.40426116180606 615.9309321106412,80.22148835798725 617.9210711042397,78.61983976070769 620.1654897776898,76.37268341716845 621.0765275591984,75.20809350558557 622.6833537705243,71.13300517864991 624.1704675555229,66.55875226028729 625.3970102046151,65.26101041876245 625.7789248854388,66.6518700956367 625.7789248854388,69.80205357808154 626.2028991149273,70.05041935679037 626.8404915770516,69.80205357808154 628.7207631077617,68.42214378621429 629.843788003549,67.59694324794691 630.6334239861462,66.59868272347376 631.0882146989461,65.22770832129754 632.19819064904,64.63322157319635 633.0283133157063,64.189512292156 633.7273639824707,64.31377648701891 635.2533333336469,66.19522517058067 635.8504391114693,66.931383218267 639.7033151150681,70.55178243131377 640.7357546952553,71.47241083206609 641.706619562814,72.3397708897246 642.9509880037513,73.42235163226724 643.6484658063855,76.62336177087855 643.1629751187284,78.74633633089252 643.4019921920262,80.22148835798725 643.465605802834,80.61407354043331 643.8296364373527,82.02932612632867 644.8604448994156,88.44239251222461 645.5594955664128,88.3425708161667 646.6825204624329,88.18285605998244 647.6533853299916,86.93612087634392 649.1712573443074,86.35276079492178 650.5045799824875,88.34919897746295 651.6583631078247,92.88547545147594 654.176285355119,94.46272103546653 656.0258569102734,96.29270602937322 657.9077013048809,99.07879629253875 658.5744208784308,99.49364600004628 659.3333568854723,99.24521535157692 660.0615346631967,98.4954507270595 660.7897124411538,96.83181401959155 661.4871319897939,93.79727750492748 661.6457582365256,93.19611761067063 662.0340808818582,91.71653282467742 662.2283004589844,91.1109782368876 662.2670977704693,90.98895686015021 662.7768222154118,89.40067975583952 662.958109355066,89.08125088363886 663.0648310901597,88.89055174752139 663.6409653478768,88.80845846130978 670.1864680105355,94.2075798874721 670.1961964659858,94.21428782562725 674.7771919930819,97.70799299923237 677.0831271253992,99.65998506208416 683.7984991008416,106.03177455218975 709.7912417850457,130.69404478557408 711.0938061939087,131.92948914819863 711.5938604376279,131.42595332150813 712.043757795589,130.971285416279 712.1392364662606,130.87362838024274 714.2314951112494,128.76205969287548 717.1005155558232,125.86306957225315 719.1264808960259,123.82015155057888 724.7325177174062,118.15840358531568 732.3437231217977,110.3740816161735 756.7570773335174,85.40429008076899 759.858823395567,82.21284069074318 761.8004948766902,80.22148835798725 766.300924814539,75.6056340073701 770.9933024141937,80.22148835798725 780.8888888889924,89.95552720956039 784.3841422221158,93.39352301356848 795.6082162347157,104.32663906959351 815.1439444199204,123.3587690218119 828.4987831183244,136.36994038091507 829.4340546561871,137.28533425962087 839.1201589480042,146.7658360938076 850.5664728179108,157.96875380992424 852.0119348340668,159.29667036794126 863.3623040001839,170.60110144177452 877.979278677376,184.99195482884534 890.6680385994259,197.48412346770056 906.7159117367119,213.30111163237598 911.0051701192278,217.52869779232424 915.1279961885884,221.59474001766648 916.4317256819922,222.7337526846677 917.724969415227,223.90397825289983 922.1471639326774,228.34502981125843 926.5244444443379,232.72864050639328 939.0150817567483,245.23707064648625 948.9523200001568,255.31348318525124 949.6513706664555,255.99203813669737 950.3844417992514,256.70164594671223 951.0090435696766,257.3070749473991 958.6759400109295,264.7311828020029 960.3070582330693,266.31218387617264 961.7634137885179,267.72250755224377 964.302365809679,270.2259876850294 971.7151573335286,277.5323147760937 971.4707808713429,277.77626424387563 971.2766195484437,277.97135986888316 968.9301394773647,279.8273986800341 967.755501340609,280.7564132629195 966.9513018026482,281.2974728399422 966.3299040142447,281.568002404063 965.8444715805817,281.5880386683857 964.7392142224126,281.2331332403701 964.0256000002846,281.12896054564044 963.3573075626045,281.48370639793575 962.5077279859688,282.7520564147271 961.7504230970517,283.22885426925495 961.0513724300545,283.4572349283844 959.9607951359358,283.47934657672886 958.7309319966007,283.62359113281127 958.3976013369393,283.8940395822283 957.2745764409192,285.20453102432657 956.6839368820656,285.78765348379966 955.9104955734219,286.12028442265 955.2308435626328,286.2199858526001 954.9234360321425,286.2666036480805 952.6498319930397,286.2244560524123 952.1498360037804,286.4328790702857 951.450727082789,286.9517410414992 951.1481546524446,287.6169212819077 951.4669800109696,288.78108430223074 952.0122977849096,289.83660354453605 952.4216502045747,291.0227927545784 952.4491461974103,291.18691130378284 952.6643955484033,292.4973831694806 952.3310648889747,293.0805767417187 950.5413786740974,294.74354467878584 949.2824466773309,295.70142696553376 947.4927022079937,297.0916301147081 946.6577444409486,297.6747383760521 945.8696813227143,298.0695433821529 945.1431346633472,298.27788152033463 944.2175333262421,298.0695433821529 943.761228003772,297.8211339614354 943.1253249139991,297.25798167311586 942.5476177921519,296.4686094982317 941.8048764588311,295.59502230095677 941.2595004304312,294.3310959521914 940.9245969068725,292.7279147388181 940.681793308584,292.3754121288657 939.3614031076431,292.64585573016666 937.5410169174429,292.89426778431516 936.0102124658879,293.06277601770125 934.6752004551236,293.51960785209667 933.2026502259541,294.3510518691037 930.9452408605721,295.66151524113957 930.2462484480347,295.8699342299951 929.6248506596312,295.9098459376255 929.0018800073303,295.63924449752085 928.5617693583481,294.99634596158285 928.5779057780746,294.4752574781887 930.4566626986489,291.37984631781 931.5197440001648,290.1735422395868 932.3725275592878,289.13582459429745 932.4599088928662,289.0294184987433 932.4291506633162,288.7190606020158 932.0958200038876,288.42634375276975 931.6248928713612,288.32432785851415 931.0181168927811,288.3642401829129 930.3206973441411,288.6769132181071 929.6831048820168,288.9895062287105 928.6361600002274,289.44410678977147 927.2428937675431,289.7567791331094 926.5244444443379,289.8305368897272 926.4241306739859,289.8409938866971 924.521139996592,289.8254281276604 923.5114195628557,289.8188027020078 922.5404964408372,289.48625410720706 921.9790422474034,289.1335895076627 921.0841408856213,288.3841963438317 920.4919284621719,287.6347222045297 920.1925600145478,287.0538370475406 919.8705306740012,286.43072379613295 919.173052871367,284.95611505710986 918.428680419689,283.2953488935018 917.8364679967053,281.9227479369147 917.3979302116204,280.7165003165137 916.986946673831,279.9692495345371 916.8704382295255,279.8273986800341 916.3202853547409,279.15765773528256 915.4399475485552,278.5546506206738 914.742528000148,278.2619276770856 914.0742355629336,278.24189127609134 913.24090891378,278.32618784194347 912.1323893191293,278.740885224659 910.7213555485941,279.4902931918623 910.1769698418211,279.8273986800341 908.8734151113313,280.63443928887136 907.5675884657539,281.33962086134125 906.1419911398552,282.27533792017493 903.2744853049517,283.96053411613684 900.7097266630735,284.8963259770535 897.5720960001927,286.1845435532741 894.7662231326103,286.95397613791283 892.1867844266817,287.72340750996955 891.0508853476495,287.98507297062315 890.1997329071164,288.18016451608855 888.8485262221657,288.7611281578429 887.8015813403763,289.46845325198956 886.7853946881369,289.86318507022224 885.8759297709912,290.3820433957735 882.8726333440281,292.6282146377489 882.1185324375983,293.3089527924312 880.7139648855664,294.574957201723 878.2899484443478,296.7590066505363 878.184799573617,296.8543954520719 877.979278677376,297.0388669644017 877.7770200180821,297.2203051254619 877.1103004445322,297.7413108558394 876.7462698100135,298.13603598542977 877.979278677376,299.40274628298357 878.0197071076836,299.444174335571 880.1120240073651,301.3355727145681 884.4358271434903,305.6991313325707 886.5297169070691,307.86102047364693 888.8954791254364,310.18916737358086 891.8097631004639,313.10039300867356 893.5250586739276,314.6812374498695 893.9554991219193,315.1114689061651 895.5121684481855,316.67450697207823 898.0753542259336,319.1268111818936 900.365036430303,321.33070561487693 902.6855351184495,323.51240044634324 904.7777937639039,325.5279032960534 907.1144288713112,327.8581210428383 909.2375040003099,329.9355446075788 911.5903337816708,332.2614311754005 913.8817053583916,334.5694276348222 915.9287004729267,336.5848848409951 918.1584973370191,338.91281495895237 920.3284671148285,341.05236818047706 922.6343439931516,343.3204152567778 924.7427973118611,345.41996169206686 925.6414269441739,346.34454145189375 926.5244444443379,347.2530766428681 926.880494250916,347.6193476214539 929.1733804373071,349.94730494427495 931.599086250877,352.3395015922142 933.7689977742266,354.3969473488396 935.9988528927788,356.8467475104844 938.2577768678311,359.010644955677 940.3662884407677,361.11012392444536 942.259608917404,362.84165852016304 942.884210688062,363.4135943413712 945.2823040003423,365.9299124482786 947.5121591184288,368.04931457107887 952.1837982151192,372.7869890596485 956.7195302115288,377.29404623562004 961.1015293155797,381.6813477408141 965.5628706703428,386.04650282429066 969.7345137780067,390.2630164358998 970.9481822438538,391.4867905837018 974.6958511220291,395.0648000149522 975.0696102117654,395.43326973123476 978.9742742187809,399.28123575646896 982.9468626489397,403.3136826310074 986.9809675379656,407.1777072149562 990.5700684229378,410.5649483605521 989.5441533154808,411.7575478875078 989.2998351077549,412.0413325171685 988.602590321796,412.85262366198003 987.3677755733952,414.28462984622456 987.0133568854071,414.6992117711343 984.9809253262356,417.34159466822166 981.9808911359869,421.1055949771544 981.0067057779524,422.327137160697 977.4257022296079,426.8580767357489 976.5777537708636,427.9154521849705 975.0696102117654,429.79214831616264 973.788017322775,431.38681963901035 970.1309337604325,435.91775496071205 967.999877802562,438.6486809486523 966.5823195590638,440.46859819209203 963.0627742151264,444.9550809864886 960.8734057815745,447.6881908001378 959.1646346808411,449.82056442438625 956.1758435554802,453.56221046857536 955.2810004479252,454.6816105302423 951.3989973333664,459.43839379562996 947.4846048713662,464.2173139930237 946.5153711219318,465.3876790954964 943.5104435768444,469.01613620948046 942.4553431042004,470.3038681370672 939.5976239787415,473.7971969329519 935.5166244409047,478.63805601827335 934.9367036588956,479.3517289782176 933.2221071363892,481.46178188500926 931.7705866808537,483.25050020369235 928.0244906668086,487.8629008315038 926.8788048785646,489.2658822485246 926.5244444443379,489.7003484631423 924.2767635341734,492.4553898720769 920.5000257992651,497.06778336595744 916.7248026740272,501.64015862182714 913.4884311039932,505.6893938356079 913.0062026528176,506.2922801107634 905.4293089851271,515.5020813208539 903.8378036341164,518.2359134115977 903.1700354849454,518.9491295811022 902.6576896000188,520.0597628225805 895.7283498665784,528.5301731002983 888.7676111075561,536.6046278491849 884.764264448313,541.9833216175903 881.8340770702343,545.8417016753228 880.81911375653,547.1779780958313 877.979278677376,550.9481583142187 876.9080417852383,552.3705050153658 873.2866098063532,557.0643473945092 872.9321328641381,557.5230066311779 869.017856910592,562.7796463351697 868.122955548577,563.967566153151 866.0306386491284,566.7465213595424 866.1051457994618,568.2379106043372 866.2297515803948,570.6888721697032 866.317074659979,572.3820085760672 866.3915235556196,573.8777684058296 866.4254857674241,574.5382499413099 866.2232271076646,574.7952144329902 862.905998677481,579.0035571695771 862.9350675344467,580.4173658335349 861.3282995771151,580.4373100638622 859.3395004302729,579.8722498188727 857.1565982149914,579.2538978123339 856.6566022257321,579.2538978123339 854.1225435591768,582.8682662947103 851.2405906773638,586.5446737074526 851.7146635381505,588.3617264988134 851.986535992939,589.3988085240126 852.3199249070603,590.6774478548905 852.6953151146881,590.9987824440468 854.3733862400986,592.4435888542794 854.8814795664512,592.8801172324456 856.7326239857357,594.5819519379875 860.6599488854408,597.821747630951 860.1744581975508,598.5906893860083 858.8848262256943,600.4409629893489 857.9576520251576,601.4735520579852 857.8589111182373,601.5822035312885 857.5352506597992,601.9411839977838 857.1808902258053,602.3378172197845 856.9948262399994,602.5460256006336 856.3847880251706,603.224098255625 855.8734324621037,603.8978622233262 855.6500857744832,604.192464148975 855.1922075874172,604.7952288680244 853.1839515308384,607.4410508600995 852.1661337602418,608.7927143935813 850.4072057744488,610.3083855330478 849.9799693089444,610.7360432600835 849.88612175663,610.8291371421656 849.489701774437,611.2257631485118 848.9751422293484,611.739892720012 848.8230404548813,611.8905018699588 848.7000657923054,612.0146267487435 848.3914931768086,612.3226254280889 847.5009608818218,613.2112017266918 846.9960715379566,613.7163948022062 846.8812524657696,613.8295107551385 845.8115884375293,614.899723578128 845.0672159858514,615.8769209255697 844.0833604270592,616.8097636558814 843.0979320036713,617.4945172677981 842.429581311997,617.9930051686242 841.0186057959218,618.4716296546394 837.8178275560495,619.5507666089106 836.4520573157351,620.1136271615978 835.7386178560555,620.2438922735164 835.5427089070436,620.2797889607027 834.4504422401078,620.5833950598026 833.0846720000263,620.9623041410232 832.296608881792,620.9423615651904 830.7334733370226,620.5258008538513 829.5344266809989,620.1956311675021 829.4340546561871,620.1752099376172 828.5181817745324,619.9895043403376 827.6556697601918,619.9696414953796 826.654046663316,620.1557459520409 824.9550040180329,620.6121123901103 824.4096279894002,620.8625912535936 824.3627333405893,621.1528753554448 824.3481115307659,622.8745540775126 824.2720897707622,624.4101239666343 824.4388133545872,628.8572666783584 824.2867115803529,630.7473100154893 823.9743524410296,631.7133878393797 823.6490608640015,632.7216612284537 822.9824577993713,633.8627466013422 822.5965235771146,634.3839517142624 821.875627577072,635.3583979823161 821.2542297886685,636.0453590980032 820.8448191147763,636.3577298575547 819.7055995452683,637.2285540273879 817.0372648960911,638.5380179533968 815.8883168711327,638.9102924189065 814.4125626597088,639.3888964146608 812.2733511109836,639.6193440710194 811.1908128997311,640.1754810629645 811.0597408998292,640.2419271070976 810.4691013407428,640.8424138752744 809.5434417494107,641.7796758873155 805.324903992936,645.3935020739445 800.6241377850529,649.5036833757767 798.8344515699428,651.0392493421678 797.9233555344399,651.9941996769048 796.8926053263713,652.825033665169 795.9217404588126,653.5739476156887 794.3747995877638,654.9853868592763 792.190208000131,656.2748620638158 789.855204010848,657.5621802288806 787.5185106489807,658.4750023309607 785.3340355698019,659.3390869043069 782.7416644268669,660.5312387418235 780.8888888889924,659.6096464417642 780.345202232711,659.3390869043069 778.4778048854787,658.4351202405524 776.0197679784615,658.4351202405524 773.3498604658525,658.3930845138384 772.2899248925969,659.3390869043069 770.752654222073,660.6796792292735 767.2946253370028,659.3390869043069 765.5243377778679,658.5614666922484 764.7055746847764,657.9810225288384 764.0987404519692,656.6936257031048 763.5210333298892,655.486069922219 763.0663591253106,652.0385491459165 762.823613781482,650.0022981510265 762.6715120070148,647.3035027117003 762.6407537779305,645.8898875892628 762.4287666631863,644.6446553511778 761.7313471150119,641.6112879256252 763.2184608997777,640.5720832472434 766.160299121635,639.2448366611497 767.1004640143365,639.4508755978895 769.799556892598,640.1155759184621 771.6199430830311,640.6962008392438 774.4728271074127,641.5292875141604 775.5958520036656,641.8195593374548 777.628225308843,641.8616762569873 779.8726439820603,642.0279104273068 780.8888888889924,641.731975276838 781.8743755661417,641.4450536138611 783.9682653299533,641.0727810796816 787.7903831040021,639.7013448033249 791.067183103878,638.2455106908455 792.8004209776409,636.9937977879308 793.2517164372839,636.667946688016 794.0705377850682,636.00324167707 794.5559702189639,635.3805734722409 794.3132831288967,635.1301020513056 789.8535146382637,634.5075125019066 786.8502182117663,634.0511590429815 784.6349849032704,631.1439198527951 784.4828248745762,630.9379571820609 781.115439559333,626.4087506904034 780.8888888889924,626.1136037741089 779.2351097743958,623.958148416481 777.506881763693,621.3810980470153 776.3839151216671,620.1756087898975 774.2608399929013,617.2706801604945 773.532662215177,616.1893045798643 770.5916395520326,612.3226254280889 769.6781550934538,611.121581046842 766.0987826632336,606.3840639636619 765.9159809139092,606.1468997219345 763.9142493298277,603.5587467076257 762.1536902259104,601.1101039297646 761.0614235594403,599.9468447350664 759.4480728746857,597.7773932402488 753.2504644268192,592.4169440172845 749.5206213409547,589.6757888274733 745.2130711325444,587.929661522503 744.8004564766306,587.7722640495049 739.0833871078212,585.6049922207603 732.3437231217977,583.0471252244897 731.5281640107278,582.7375125575345 720.4258413228672,581.2417798535898 708.0176919894293,589.4674951863708 695.8830462298356,606.8138789866352 694.2131306952797,609.0786181938602 692.6451017956715,611.3187771653756 691.9430801637936,612.3226254280889 689.3601462047081,616.016520386911 685.7516466630623,621.1860597870545 683.7984991008416,623.9062182654161 682.1414577495307,626.2137942068512 679.3647119929083,627.3150101475185 673.8412796587218,629.4728437635349 673.7836079786066,629.4954183652299 669.4291631218512,631.053143132478 665.0908546845894,632.8390802729409 662.8917577955872,633.6721803445835 659.1602253371384,635.0836770797614 658.660171093652,636.9537544088671 658.0080733299255,638.6155518916203 656.8252213478554,642.998353115283 655.1552475593053,647.5051511217607 654.821916899411,648.7724711860064 653.4578360319138,652.7186270102393 653.0176088747103,654.7947490756633 651.197164430283,659.3435536902398 648.0272026737221,668.8952833965886 647.6630555309821,670.4727433519438 647.5109537565149,672.1144863517256 647.1792542154435,678.6128885911312 647.17715706327,678.794583865907"/></g></g></svg>