<svg width="1200" height="800" version="1.1" xmlns:xlink="http://www.w3.org/1999/xlink" xmlns="http://www.w3.org/2000/svg"><g class="geojson-features"><g class="geojson-feature" stroke="#555555" stroke-opacity="0.0" stroke-width="0.0" fill="#111" fill-opacity="1.0" data-properties="{&amp;quot;N03_002&amp;quot;:&amp;quot;石狩振興局&amp;quot;,&amp;quot;fill-opacity&amp;quot;:1,&amp;quot;description&amp;quot;:&amp;quot;札幌市北区&amp;quot;,&amp;quot;N03_001&amp;quot;:&amp;quot;北海道&amp;quot;,&amp;quot;stroke-opacity&amp;quot;:0,&amp;quot;N03_007&amp;quot;:&amp;quot;01102&amp;quot;,&amp;quot;fill&amp;quot;:&amp;quot;#111&amp;quot;,&amp;quot;N03_004&amp;quot;:&amp;quot;北区&amp;quot;,&amp;quot;title&amp;quot;:&amp;quot;札幌市北区&amp;quot;,&amp;quot;stroke-width&amp;quot;:0,&amp;quot;N03_003&amp;quot;:&amp;quot;札幌市&amp;quot;}"><title>
      札幌市北区
    </title><desc>
      札幌市北区
    </desc><polygon points="539.170360661461,611.743112029566 539.0904941228218,611.6287106617237 538.9406060089823,611.413824155461 537.0287024355493,608.7565767902415 536.3458464427385,607.5935260278056 536.0278948979685,606.5755779232131 535.6945351110771,605.6817196509219 535.1030799929285,603.7100439984933 534.6467455432285,602.2146782078198 534.3886793387355,601.3595641212887 533.6014317795634,598.7554034835193 533.4484853191534,597.8946944760974 533.1232519964688,597.2389521281584 532.6685486650094,595.8276884543593 532.3870060089976,595.154234863061 532.038267107564,593.803932488896 531.3707611022983,591.332605796284 530.7178477797424,588.6119720857823 530.6296800143318,588.2552961679175 530.4435577741824,587.4987139977748 530.2930579910753,586.8883261057199 529.9613584498875,586.5360343729844 529.4734502116917,586.0165686384425 529.0349415537203,584.1876225303276 528.8982188943774,583.6470156299183 528.8221680071438,582.1825535425451 529.048718677368,578.7683790561277 529.0836712107994,578.3972919329535 529.2048691200325,577.1089113514172 529.3059984499123,576.0266281267977 529.5487146666273,572.2666756138206 528.8254011163954,571.6452024821774 528.4717979874695,571.340587146522 528.1498269013828,571.0635695186793 525.8244931128575,568.6607295258436 524.8074617744423,567.6791512834607 524.429624889046,567.300270279753 524.2661926685832,567.1351976249134 523.9716884481022,566.839430540509 523.6796309049241,566.5469733342761 522.4409131235443,565.3006063717185 520.23095182213,563.115271150542 518.9974186667241,561.8950898943003 516.3881246719975,559.1952267629094 514.8977777777473,557.689816963044 514.0487224890385,556.8321938743466 513.6121362204431,556.3911567480536 511.29813287826255,554.1986025233637 510.6088106667157,553.5460931824637 507.4987051235512,550.4727347965236 504.6205970204901,547.6531688767136 502.0770137886284,545.1613127140445 501.7954420053866,544.8854220901267 500.0550679892767,543.1282423866796 499.56963555549737,542.6374423470697 498.44174643210135,541.4984474115772 495.77259622421116,538.8204960728763 490.6251948942663,533.6968514473992 490.3873429050436,533.4600777775049 490.07737218844704,533.150189519627 487.6873762134928,530.7609773398726 485.1387831182219,528.2989849770674 480.595740217017,523.8746598706348 478.5273075484438,521.8621150995023 476.7647095466964,520.147212666925 475.39899756084196,518.8008835584042 474.24684555386193,517.6640113280737 471.68284421693534,515.0666971658356 470.6820366792381,513.9187178683933 470.0072197689442,513.146427696629 468.75023928901646,511.9208508376614 467.2466104320483,510.4548018408241 466.90926023130305,510.1223855455755 466.7296333370032,509.9451073076343 466.4739846828161,509.6935905946302 466.35258288355544,509.57379594555823 465.8598395450972,509.08743624709314 465.8169644374866,509.04531055822736 465.5410724407993,508.77273005002644 465.3857375574298,508.6197848460288 465.25221887999214,508.48794233310036 461.6024462223286,504.8888336500386 459.22858666686807,502.55176417087205 456.3466046578251,499.69610011635814 454.97361089428887,498.3552034669556 454.6370179982623,498.09035037539434 454.2900849778671,497.81807678897167 453.782632448012,497.41993845655816 452.1143189049326,495.72668637812603 451.62157556635793,495.2280117489863 451.29226444801316,494.90550835063914 450.8254151112633,494.4489602583926 450.2485526757082,493.85609274933813 448.944298894261,492.5484360081027 447.2751406650059,490.896122033766 445.18527044262737,488.6631246310426 442.9667748977663,486.45998849958414 442.0800000000745,485.58775286370656 440.78224156447686,484.3111705710762 438.7109544391278,482.05485349544324 438.11224667041097,481.40211150003597 437.4949266775511,480.69726308702957 436.61785110773053,479.6976172236609 436.4608851058874,479.5159282759414 436.4058931199834,479.45161498407833 436.12510776892304,479.1268964360934 435.67940471472684,478.6758644891088 435.01827754685655,478.00535937573295 434.5708851200761,477.4235033928999 432.42439179390203,475.2103314382257 430.3223464391194,472.873057724908 430.0990580053767,472.58711100619985 429.8676431076601,472.29118951346027 428.1839504496893,470.62988111109007 425.9087735468056,468.36458017869154 424.20891534222756,466.6079271187191 423.7315511184279,466.1723128686426 421.8690471253358,464.3270282431622 421.40379977959674,463.8670714533655 421.2905244445428,463.7584260858712 420.8075095609529,463.29743084521033 418.44090265606064,461.03533365757903 417.80741711659357,460.42466955824057 417.1002691129688,459.74302218295634 416.11320957168937,458.7909310987452 414.604221326299,457.2659098136937 413.91329712362494,456.5687323937891 412.554022229393,455.24316012940835 411.6187215646496,454.3298748768284 410.6413322240114,453.3633584791678 409.30553378129844,452.04335496306885 404.91459265421145,447.65970463852864 403.18479177961126,445.9971512914635 402.5521800535498,445.42631183099 401.60383044264745,444.5706486722338 401.2850342114689,444.28247418027604 399.4904837689828,442.5888536074781 397.47343132446986,440.6568413155037 395.48713710939046,438.6406178782345 393.5348051058827,436.7166348656174 393.34792556101456,436.5324000074761 391.4740911219269,434.7433952918509 390.86725688900333,434.1315082179499 388.7814353351714,432.0232514121453 386.55076465778984,429.84067387040704 384.3597651057644,427.64702311781 382.0918991075596,425.39349452982424 379.7560795592144,423.02465728553943 378.64115200017113,421.9649562241393 377.442105344031,420.7067971706856 377.129804458702,420.4208292600815 376.18314422038384,419.5550619622227 375.12888843391556,418.5053224778385 373.9994264463894,417.4233737552422 372.8844988871133,416.1984736744198 371.7995431254385,415.1697507961071 370.58669021865353,413.9736524721375 369.440247125458,412.80967381072696 369.26222222216893,412.62653832143405 368.82071347208694,412.1722707259469 368.37139865593053,411.70998084603343 367.3171719965758,410.6602076283889 366.16423355741426,409.52618409023853 365.07924866850954,408.4564074794762 363.96435023646336,407.29244242049754 362.9408526791958,406.2847138174111 361.7951668908354,405.13071558770025 360.6187520001549,403.9677723037894 359.5572144356556,402.92906052141916 358.38889688195195,401.7639516480267 357.34276755922474,400.7562002231716 356.1825182151515,399.66535280743847 355.0376771129668,398.5634055909468 353.7560842240928,397.3372534860391 352.97774956095964,396.55573445308255 352.7625293369638,396.34061872493476 351.90488155023195,395.5501965043368 350.4477395627182,394.09458368679043 349.26485845353454,392.93051023682347 348.21791357174516,391.84956566628534 346.05601200368255,389.66778635728406 345.0098535538418,388.7220871677855 344.989639338688,388.7013731414918 344.37313490500674,388.0680179927149 344.5551502222661,387.8706554279197 344.88851000904106,387.61015256273095 344.989639338688,387.51943348220084 345.0923997868085,387.42719772603596 345.1449742221739,387.37950332526816 346.3569824427832,386.2874786008615 347.05926621879917,385.6544763962156 347.4363166720141,385.31410731887445 348.9379648854956,384.19102169788675 349.39269734406844,383.9315925351111 349.90079067018814,383.7342266259948 350.42426311108284,383.38056407892145 351.0998664535582,383.0900822580443 351.5254426738247,382.9925364853116 352.09339221334085,382.8617037549848 353.38311156630516,382.4769880689564 354.78604800009634,382.09227177663706 356.35486333153676,381.44816298852675 357.63724265247583,380.9802670580684 359.0709955699276,380.13766896008747 359.78379423287697,379.6698104306706 360.43670755566563,379.3172196444357 361.08848492091056,378.91369934001705 361.3606777742971,378.74514659593115 362.06619465956464,378.3704426123295 362.62045445689,378.16309392097173 363.0371177814668,378.12094563804567 363.371264000074,378.1309638385428 363.7199737742776,378.2773253103369 364.16014267737046,378.5788288676413 364.43521911476273,378.91369934001705 364.4934733369155,378.98462476726854 364.6989651058102,379.35825015825685 364.91823399835266,379.96137396845734 365.2143402098445,380.6476744467509 365.5865264356835,381.4780575285549 365.9352653370006,382.2153618980665 366.0962800072739,382.5269185237703 366.24596423108596,382.81736110226484 366.54207044281065,383.19209817191586 366.9895211237017,383.56679475383135 367.2702482204186,383.74312705360353 367.75570978142787,383.9094013510039 368.260569998296,383.9127140638302 369.21206533699296,383.92049694334855 369.26222222216893,383.9152684448636 369.62144688377157,383.8783895665547 370.3180800001137,383.72205339488573 370.8415524410084,383.49475311435526 371.16034867207054,383.33845660905354 371.50905844639055,383.18212009145645 371.8124464356806,383.1621639292571 372.0479100019438,383.2131718763849 372.2145753316581,383.3595303010079 372.2299544464331,383.51470924937166 372.1862637796439,383.5679122971487 371.7598720000824,384.0867711197934 371.22833134932443,384.689923158905 370.2889528890373,386.23762873909436 370.28088467917405,386.4981729807914 370.50094000366516,386.8196222487604 370.8124253298156,386.95492296881275 371.1231242240174,386.93496711499756 371.47262043028604,386.8307576205698 372.60132511297707,386.17552593455184 373.3376002275618,385.75980392604833 374.00510623294394,385.5313880088506 374.77050845872145,385.4471338921576 375.68070155382156,385.32292786508333 376.340896654292,385.18770606443286 376.46229845343623,385.36395736940904 376.6297502152156,386.1655479760957 376.90243822941557,386.7975111504784 377.27380889607593,387.23430474911584 377.56266245699953,387.62899083655793 377.880614001886,387.9105669807177 378.10876666312106,388.03477169107646 378.5715673316736,388.1389407601673 378.93484066135716,388.03477169107646 379.3288722204743,387.83736918802606 379.74635110399686,387.54581505735405 380.64122333866544,386.8507134827669 381.2706893370487,386.3717723393929 382.1655324444873,385.54028837085934 382.33219777420163,385.2486915847403 382.22457309870515,384.5934556518914 382.21082510228734,384.5113963772892 382.0061488924548,383.918301772268 381.7334900054848,383.39054215111537 381.5740773262223,382.80846064095385 381.7253635413945,382.4758705207496 382.0749180018902,382.21643953514285 382.32491599651985,382.11222802620614 383.46171801607125,382.13330182404025 383.6154217813164,382.10999292630004 383.95524778671097,382.060142211325 384.3419684410328,381.89382674189983 384.6372882204596,381.6022655121633 385.19880066846963,380.94701979111414 385.36546599830035,380.81179556640564 385.9803975679679,380.73967328836443 386.52568621502724,380.7286174641922 386.87521154852584,380.6144271346275 387.2538639929844,380.37602820736356 387.6786537813023,379.7418531989679 388.0128000001423,379.5644802728202 388.3696071112063,379.61656662018504 388.92223579029087,379.79401933419285 389.16495200712234,379.7840012020315 389.4756509013241,379.6487364199711 389.8777506703045,379.37820663145976 390.46506973868236,378.91369934001705 391.63830977422185,377.9856799344416 391.73539043567143,377.8881321219378 391.8575786667643,377.76615738804685 392.4490337849129,377.30939020583173 392.58575644460507,376.7062598427874 392.2669602133101,376.0211057738634 392.1917248853715,375.60528664366575 392.3583902150858,375.10524903232 392.6618073316058,374.7726484159357 392.93365065951366,374.66955131298164 393.44984132272657,374.98111756995786 393.5348051058827,375.01759865583153 393.69258666667156,375.0852922099293 394.40538532985374,374.62744234036654 395.4224166685017,373.7748039335129 396.8779857921181,372.94439464533934 397.2420455538668,372.9854262305889 397.9111826774897,373.39119151525665 398.167646890739,373.5475742177805 398.440305777709,373.5675311659579 399.047140010749,373.1938569970662 400.4581446541706,372.652782811434 400.776125326287,372.2991042081849 401.1402433422627,371.90443324664375 401.20982801076025,371.7458542106906 401.3821440001484,371.35118235455593 401.8230702080764,370.3455405726563 402.2478599966271,369.7213181342231 402.73332155751996,369.4929271225119 404.0375753386179,369.3476779916091 405.0699566649273,369.3765362347476 406.60317866678815,369.4186061985092 407.02633733686525,369.4308200578089 407.7690495431889,369.16027894389117 408.3605046613375,368.661345740431 409.19549155572895,367.5592984665418 411.0757922133198,366.04252841696143 413.00144378317054,364.6487680912833 413.79110889253207,364.0467639910639 416.1722502257908,363.1109045162448 417.4311822223244,362.6486015441478 417.80741711659357,362.5106529139448 419.1157195662381,362.03102535632206 419.60115200001746,361.8225451412145 420.1917915593367,361.3657481216942 420.813946652459,361.15726733842166 420.9498828800861,360.78808467579074 421.00408843380865,360.6427904483862 421.12307268287987,360.31903148966376 421.2702811022755,359.91987054998754 421.5114244550932,359.26568427408347 422.0429651058512,358.8288406225038 424.53094468289055,357.89304097305285 426.22838533692993,357.02042572264327 427.5795628941851,356.3961692043231 428.2017471147701,355.6898421245278 430.6435602204874,354.35929118911736 432.8118988800561,352.8823563871556 433.47617177607026,352.1461210089037 434.405035349424,351.11597054463346 435.0870757831726,350.65915348631097 435.80066087830346,350.51281536975875 437.6057553351857,350.0349206147948 438.4099840000272,349.2032729339553 439.77490955381654,347.60319941397756 440.1543484304566,347.7274246372981 440.42703644454014,348.4548115489888 440.5483799894573,349.224349573371 440.63980999123305,349.8486244357191 440.94325623486657,350.2222944298992 441.6527926614508,351.0095502892509 441.7199597796425,351.0838369015255 441.8987711148802,351.2823069875012 442.0800000000745,351.3088122321642 442.2547626667656,351.3344792058924 442.9910377813503,351.29344398068497 443.61403756099753,351.217999823275 443.7717899949057,351.19915873906575 444.45467511483,350.9707503945683 444.62134044454433,350.8598593035713 445.2661855573533,350.42966685903957 446.1383677724516,349.67122978455154 446.9425964374095,348.9227299168124 447.05182310414966,348.9249653205625 447.3698037760332,348.9327493159217 448.21612111653667,348.9537860607379 448.98233890137635,348.8506780511816 449.5398026809562,348.4326570571284 449.79384934413247,348.2430065398803 450.6207097743172,347.623158483766 451.06084955041297,347.2073708065436 451.24292312189937,346.6662390091806 451.3942093369551,345.87677362642717 451.4582889813464,345.650555816188 451.53177668270655,345.39108568552183 451.567340885289,345.26358595420606 451.71702510945033,344.7335472209379 452.33516066148877,344.188018881483 452.8505648924038,343.94962429086445 453.03100734588224,343.95401535206474 453.3659399965545,343.96068178123096 453.74622355913743,343.8930195129942 453.9355206543114,343.77881194860674 454.04154333868064,343.6224900086527 454.16207132441923,343.26876933540916 454.170168661396,343.0469801040017 454.1742173298262,342.9272234158707 454.187965326244,342.54020931682317 454.19204312190413,342.43709859775845 454.2632297814125,342.09227815287886 454.2883082241751,341.9746766255703 454.4355748977978,341.2627989607281 454.6167746561114,340.8780176998116 454.9582317796303,340.58640746970195 455.64111689967103,340.2127227218007 456.51329911488574,339.6205583677511 457.10958933341317,339.64942012593383 457.21313621336594,339.6549689282547 457.3474704497494,339.661595555488 457.684849777841,339.69600611022906 458.09262933337595,339.73919893446146 458.2301675520139,339.75253202283056 458.75122244260274,339.8068623543368 459.2439657814102,339.7237101960345 459.4260102258995,339.48531124467263 459.4794002205599,339.3078691412229 459.5498004480032,338.6935871348833 459.59349111490883,338.31323290546425 459.6007728924742,338.2478045730968 459.73344688350335,337.7920412605745 460.0546897922177,336.68869691190775 460.5401222258806,336.147541791026 461.33706911304034,335.65967880241806 461.7003424426075,335.4922139478731 462.2092513280222,335.5021939781145 462.5159015537938,335.65189438377274 462.58222398592625,335.68406997894635 462.8079882240854,335.7949280455359 462.92772977787536,335.8260257798829 463.1340662330622,335.87812146235956 463.26915777428076,335.9002770939842 463.3565391075099,335.91580599505687 464.62112176360097,336.12758178275544 465.75142843741924,336.19967732485384 466.35258288355544,336.12981730379397 466.38092356256675,336.1264640223817 466.85825865971856,335.9912149630254 467.5039193315897,335.7217545416206 467.8825717760483,335.4511760590249 468.3138277832186,334.9211559344549 468.5573304321151,334.3079407347832 468.6325948871672,333.8510123732267 468.8146393316565,333.50729756907094 469.1957093261881,332.6866914870334 469.59620710415766,331.82284850726137 469.6415288889548,331.63542064424837 469.6107997868676,331.34048594353953 469.60028489958495,331.24735069659073 469.564662442659,330.9057879524771 469.55819622415584,330.8459066368523 469.6868215466384,330.4489330627257 469.71999732626136,330.3435816608253 469.8842742331326,329.83682441472774 470.24754756258335,329.9709990172414 470.31954978150316,329.99866428627865 470.64722978149075,330.11954510671785 470.7572428799467,330.1605838921387 471.20547999301925,330.13176093273796 471.9021131093614,330.0874086988624 472.2969311005436,330.1495257765637 473.6845466737868,330.7938098801533 474.1473182152258,330.97121825336944 474.43538534408435,331.0233149722335 474.754152448033,330.97121825336944 475.1319893334294,330.74167319142725 475.5729155414738,330.19056455697864 475.9216544426745,329.3178502502269 476.2096924444195,328.7556003789068 476.7331648853142,328.0691539667314 476.9030633245129,327.61564716498833 476.94110333162826,327.5136080184602 477.0212028871756,327.3007069543237 477.23642311117146,327.1221781109343 477.3853209032677,326.99906020093476 477.7040880070999,326.90476557292277 478.8497446686961,326.70739346463233 479.2073673388222,326.5421979975072 479.54716421698686,326.3857851730427 479.77534600533545,326.37472688622074 480.43393911479507,326.34482559602475 480.5148251024075,326.4512566072517 480.60870178148616,326.5732170679257 481.0795706596691,327.85182211513165 481.1936615539016,328.00044933723984 481.23088600172196,328.04919329774566 481.46632044087164,328.15346781443805 481.72362934052944,328.1945069304202 482.2317517938791,327.97713526920415 482.63385156262666,327.68546970182797 484.1807924336754,326.1884126450168 485.03037201066036,325.658372402424 485.7358597689308,325.5430384951178 486.20515578321647,324.8310729751829 486.37263667210937,324.57712985330727 486.42197799822316,324.4618353570113 486.5627784533426,324.1346749506192 486.59674066491425,324.05371316184755 486.63151843554806,323.97386916243704 486.5400884337723,323.6201200086507 486.5627784533426,323.3606264538248 486.69950111291837,322.78842222946696 486.8516320142662,322.49786828341894 487.2003126614727,322.4557103862171 488.45927378500346,322.20623608963797 489.22467601066455,322.13409649109235 489.73116734588984,322.2650017013657 489.81528644263744,322.286080667458 490.6251948942663,322.49475434812484 491.0345764409285,322.5998696050956 491.8938262187876,322.8205595984473 492.53141868079547,322.9037574385875 493.198866432067,322.7163227252313 493.82836155733094,322.4557103862171 494.8445773370331,321.9467410313664 495.140683548525,321.8635428650887 495.94412578153424,321.7182653847267 496.2022211130243,321.74932499066927 497.62056578870397,321.3223548680544 498.1666991217062,321.343433915521 498.41751267563086,321.26027546590194 498.697424213402,321.04181972076185 498.9110424462706,320.719086131081 498.9717142188456,320.6281824934995 499.144874894293,320.3664500917075 499.3333855572855,320.54498387750937 499.39973711641505,320.60822121589445 499.63843379204627,320.8344622407458 500.10848711116705,321.0007794017438 500.5025186702842,321.0428976279218 501.4208382293582,320.85554133029655 502.02764333528467,320.6681050437619 502.61100111645646,320.33543023234233 502.9597108907765,320.22117172006983 503.84727222064976,319.8363972034422 504.24211933882907,319.7221384575241 505.30362777609844,319.69111851631897 505.5617231075885,319.69111851631897 506.2065682206303,319.6289987763739 507.1629277867032,319.49258281406946 507.6256993281422,319.3262247023522 508.03429444273934,318.9203295968473 508.2891857920913,318.5910059250891 508.3660231111571,318.49231652880553 508.68560577440076,318.0797928230604 508.82480423816014,317.89123656071024 509.2778764516115,317.2790964128799 509.5958571236115,317.112736792129 509.8239806579659,317.1338162033353 510.5521584355738,317.1338162033353 510.8401964373188,317.25801701424643 511.14903119637165,317.4977551418706 511.51256667030975,317.7803703606478 511.5958993352251,317.8446464135777 511.8718204587931,318.0587134938687 512.3588840106968,318.4723550764611 512.6913991111796,318.7551288579707 512.970553344232,319.17431852815207 513.01747712004,319.244183403207 513.0263608889654,319.27747899945825 513.1218104319414,319.6422930408735 513.2221533298725,320.0237942060339 513.2593777779257,320.27107499027625 513.3435260017868,320.82444168801885 513.6550113280537,321.40667104686145 514.0417611092562,321.7593055830803 514.2618455608608,321.90570086450316 514.5555342222797,321.94338755501667 514.5797971058637,321.9467410313664 514.8977777777473,321.8611874462222 515.004586894298,321.8325231959461 515.4746402135352,321.6872456970741 515.9673835519934,321.343433915521 516.2101288961712,321.2081766629126 516.7999528961955,320.882129724836 516.878421333502,320.837775809865 517.1284484552452,320.6991248608101 517.3112793316832,320.4629429882625 517.3711646719603,320.38641138916137 517.4318364445353,320.18903400877025 517.4156708979281,319.79092526307795 517.3638828943949,318.49451228854014 516.5895677725784,318.20283538731746 516.6203260017792,317.9433360717958 516.7133579946822,317.71713228948647 516.8549740089802,317.3711191446055 517.166459335247,317.12271757406415 517.4536817779299,317.0817165191402 517.7951097743353,317.22695683670463 518.5232875519432,317.71270083321724 518.9779908836354,318.01655482978094 519.7523060054518,318.29713337798603 520.0848211058183,318.603182405408 520.548437333433,319.03015728574246 520.8825835519237,319.3373631539289 521.1196491093142,319.5036813353072 521.2539542187005,319.59686098701786 521.640733127133,319.71107986883726 521.9821319964249,319.69111851631897 522.3389391074888,319.5247605399345 522.9384915627306,319.43050294643035 522.9910659982124,319.3573245356092 523.3567568783183,318.85337899666047 523.6448240071768,318.45682506560115 523.7160106668016,318.3581356150098 523.9773391075432,317.99771118198987 524.7508386702975,316.7700763376779 525.0291773441713,316.4629071606905 525.1221802099608,316.3597454993287 525.2969428765355,316.16675642330665 525.7977835519705,316.10471563291503 525.9345353386598,316.22999489627546 526.011372657842,316.2998606141773 526.2533024427248,316.5205563051277 527.1020373335341,317.1970145023661 527.4661553493934,317.3212552044424 527.8682551182574,317.33231390139554 528.6635708871763,317.18591587617993 529.4524204373593,316.7390160979121 530.2340173370903,316.23997571429936 530.4767335538054,315.7719946769066 530.721080888994,315.4792365896283 530.8489197797608,315.32509230915457 531.0835386596154,315.18975187378237 531.3950531128794,315.1276309879031 531.8950491022551,315.08666952123167 532.3352180054644,314.96130982396426 532.4638433281798,315.0034690159373 532.5957308872603,315.2973455298925 532.8044848926365,315.7631316933548 532.9452562205261,316.07808679458685 532.971965781413,316.1368538821116 532.8886331164977,316.6979750553146 532.8813222117024,317.1027959329658 532.9946266737534,317.4565146113746 533.2907328854781,317.74707456014585 533.4881564445095,317.8302342069801 533.8668088889681,317.89347224863013 535.7252933405107,318.152971617179 536.7568591075251,318.11081296927296 537.0149544391315,318.0065740842256 537.1055980089586,317.93782669876236 537.3410324481083,317.7570553161204 537.4017042205669,317.4664953793981 537.3337506703101,316.09469488594914 537.4097724301973,315.59565318457317 537.5085133371176,314.87814919959055 537.4923186630476,314.3791050101863 537.4996295680758,313.63049688894534 537.4615895609604,313.4187015767675 537.4316468908219,313.2556929201819 536.8555708872154,312.46607952186605 536.6736138241831,312.3829180469038 536.2398528854828,312.18329845246626 536.1524715520209,312.14337451400934 535.7641197795747,311.9659524523304 535.3148340907646,312.3829180469038 535.2479291164782,312.4450396315078 534.3603677867213,313.276772664336 533.700929991086,313.7547394068097 533.3061120000202,313.8800598003436 533.0714639929356,313.82795942155644 532.8813222117024,313.7037169408286 532.7680760036455,313.49523536104243 532.782610432012,313.21465129149146 532.8813222117024,312.95514667150564 533.5383424570318,312.3829180469038 533.7535335537978,312.1954752524616 534.7705648925621,311.3637385338661 535.657310663024,310.92680912819924 536.3256322274683,310.7338556794566 536.8475026773522,310.5841000629589 537.3863251059083,310.5419800314703 537.5376404480776,310.64622210519155 537.6493137920042,310.8125861346489 537.7010435414268,310.88908081222326 537.9470219947398,311.25614314334234 538.242341774283,311.6964255767525 538.3119264427805,311.8006671573967 538.5408946630778,312.2520873831236 538.6073918577749,312.3829180469038 538.7286188943544,312.6213434765814 539.0020642133895,312.91298712568823 539.170360661461,312.9797796602361 539.2367122204741,313.0061692938907 539.3297442133771,313.01834605279146 539.8516146630282,313.0893704802147 540.150983111118,313.03611214255216 540.7917795556132,312.9230080032721 541.4746646755375,312.8819663186441 542.3241859982954,312.996188343619 542.9455546595855,313.03723000886384 543.2036499910755,312.996188343619 543.3193720036652,312.9263216796098 543.4771535645705,312.8298657267587 543.560486229253,312.5071212761104 543.5719040569384,312.3829180469038 543.5903997726273,312.18553419283126 543.4909015609883,311.8949276980129 543.3161388944136,311.38593631546246 543.2797008783091,311.28165463352343 543.1138511075405,310.87574614665937 543.0288873246172,310.66841995198047 542.6883040143875,309.77455578005174 542.6502348800423,309.4629062663298 542.6583322169026,309.17125849379227 542.672924899729,309.0736432476551 542.7036540018162,308.8695893291733 542.9010484338505,308.5479575272766 543.0604611128801,308.32505877438234 543.8258633386577,307.25819217646495 543.8145328926621,307.0408417895669 543.7878233317751,306.5406636754051 543.5030184391653,306.37206093990244 543.1082004480995,306.1391789687332 543.0345671110554,306.0970581701258 542.5895631075837,305.83419228257844 541.8986097777961,305.3972529755556 541.5353364481125,305.0489865547279 541.4803153353278,304.99576638737926 541.1647522134008,304.6940920604975 540.7157286683796,304.2638182256487 540.3823688818375,303.87897862051614 540.3144153316971,303.5362596566556 540.4277197937481,303.2967074388289 540.9212495645043,302.80877876927843 542.2100951040629,302.7144747930579 542.8622219946701,302.7355554481037 543.8048335645581,303.0649404444266 544.4698928926373,303.2967074388289 545.1220197832445,303.0161515675136 545.3801151147345,302.807660856226 545.7741466737352,302.2775298997294 546.2975899875164,301.58102758118184 546.8817633280996,301.19730166567024 547.3292140089907,300.9577471516095 547.9813408997143,300.61502408463275 548.4975024355808,300.23021865077317 548.8616204516729,299.83543112128973 549.119715783163,299.2010068623349 549.6278091092827,298.7119121445576 550.3487051093252,297.9843769473955 551.1060099982424,297.46533503523096 551.3260944499634,297.1004479100229 551.4021453370806,296.65351134422235 551.3228322133655,296.47603809280554 551.2993848890765,296.4250120137003 551.1739926756127,296.1444083144888 550.6213639965281,295.9680925636785 548.808201329899,295.6874883392011 548.2167753387475,295.41690538835246 547.7313137778547,295.0841961487895 547.5193557902239,294.5851114754332 547.5945619911654,294.0238995224936 547.9522137885215,293.49374948145123 548.4069171200972,293.21314241125947 549.0509175466141,293.045688351267 549.5355926755583,292.98356182768475 550.2338277832605,293.045688351267 550.8406328890705,293.14989797293674 552.8576853335835,294.16915356519166 553.6497971200151,294.52074944163905 554.0527124481741,294.7004200890078 554.5875153351808,294.937784774811 555.1644068978494,294.5839935244876 555.9224982187152,294.1891170059098 556.362667121808,293.77323827444343 556.4540679964703,293.565857620677 556.5803048959933,293.2031606512028 556.6126651164377,293.11108887771843 556.7874277830124,292.6097642486566 557.1061948873103,292.09071090328507 557.5916564482031,291.7790787295671 558.2737260090653,291.4663281928515 558.7980140090222,291.44636452937266 559.3926731093088,291.49291978991823 559.5245606683893,291.5029415471363 560.2608066560933,291.56059658911545 561.1783397831023,291.4707601258415 561.4364351147087,291.44524656428257 562.1945264356909,291.26892741798656 562.5796450987691,291.28334119345527 563.0441060124431,291.2999509726069 563.4429726720555,290.99794029298937 563.9769600001164,290.5934354509809 564.4624215610093,289.99013066501357 564.4931506630965,289.84814819676103 564.5384724481264,289.63741028652294 564.3863706737757,288.9952933867462 564.3111062186072,288.68026339815697 564.167101781466,288.26433534926036 563.9624255717499,287.619938942662 563.8863455574028,287.0787548471126 563.7059031040408,286.92455269611673 563.6541442275047,286.8801526800962 563.4469922133721,286.7038302347064 563.4429726720555,286.69688274443615 563.0521742221899,286.01842343166936 562.6427926756442,285.3729031001567 562.1120384569513,284.790587754047 561.975286670262,284.52111071534455 562.005229340517,284.16950042906683 562.1419520000927,283.5350753632956 562.2859564374667,283.10803836677223 562.3814351075562,282.98162409244105 562.4906909014098,282.8385594697902 562.9008880072506,282.5889648073353 563.4429726720555,282.4383534109802 563.5756466630846,282.40153905237094 564.167101781466,282.41152125422377 565.0999557689065,282.59786892455304 565.6542155663483,282.7642520791269 566.2302624428412,283.04598917020485 566.7003740160726,283.258928850526 566.7674828801537,283.2899534237222 567.0555208818987,283.4197215443128 567.8670313246548,283.6171685982845 568.674522225745,283.7358363970998 568.7926326612942,283.75356469041435 569.2788806543685,283.82563577976543 569.923754894291,283.74250447156373 570.1737528890371,283.50293281977065 570.2951255609514,283.10803836677223 570.3137086577481,282.9527955595986 570.3485155556118,282.67105836077826 570.3274566542823,282.0898545741802 570.2724646684946,280.5703970234026 570.1794035484781,280.154415219964 569.9989902222296,279.343651949137 569.9196770987473,279.1107441789936 569.4536433210596,277.74204218183877 569.1348762169946,276.910188009846 568.5280711111845,275.66345957678277 568.7554373405874,274.9979867686634 569.074204444536,274.3535553222755 569.5135286613367,273.7512485641055 570.166500238236,272.8772542512743 570.5151808854425,272.23277727287496 570.8185688747326,271.2755621028482 571.1673077760497,270.04885015351465 571.4245875484776,269.1958462682669 571.7887055645697,268.9041503596818 572.1980871111155,268.7177922297851 573.859148003743,268.67674310907023 574.6099866738077,268.8009685886209 575.0784380019177,268.89524574251845 575.2321417671628,268.9263120734249 575.6035415610531,269.206947077706 575.8769868800882,269.59180144331185 575.9902913423721,269.985599710315 576.0283022221411,270.5989765804843 575.9967575609917,271.4873939999379 575.9902913423721,271.6704357773997 575.7783042275114,272.6897811050876 575.8316942221718,273.16782736073947 576.0897895538947,273.6259075580747 576.4385284552118,273.87551139015704 577.0372362239286,274.2803633911535 577.3940433352254,274.5410271901055 577.9021366613451,274.74950212670956 578.2662546774372,274.7905502257636 578.8414859947516,274.85268138203537 579.0033162239706,274.8704103208147 579.5098075591959,274.9258731416194 580.0939517725492,274.84713110589655 581.5891628942918,274.64412667346187 582.6336902257754,274.64412667346187 582.7194404409966,274.64412667346187 582.9273788871942,274.6374982803827 583.4241708943155,274.62304359138943 584.1054248961154,274.373520384368 584.3716175645823,273.9775330396951 584.568196437438,273.27096735459054 584.7583382186713,272.7929213010939 584.7267935574055,272.409150107007 584.7138319929363,272.2471921730903 584.6523737884127,271.49406240915414 584.6482959929854,271.05706160108093 584.6369946738705,269.7271671736962 584.6143337812973,269.4653801654349 584.601372217061,269.3223076168215 584.5617302185856,268.86310127022443 584.8044755627634,268.0312168240198 585.0924844375113,267.22037333349 585.4566024533706,266.638014659693 586.3667955484707,265.95143340091454 586.9274924374186,265.51442266470985 587.7155555556528,264.6698285161983 587.7616928996285,264.6203531217179 588.6103986630915,263.7884542081738 588.9979348765919,263.45570183487143 589.4559004446492,263.3225688129314 589.6419935574522,263.26822144858306 589.961576220463,263.17506021482404 590.5756922311848,262.6969943783479 591.4559426559135,261.5533781905542 591.7739233280299,261.26167314406484 592.828179114731,260.3776110513718 593.7934224498458,259.52788775245426 594.6485944321612,258.77583683712874 595.8315046684584,258.13136253872653 596.9537140052998,257.83965340047143 597.2296060019871,257.743175667536 597.5451399965677,257.6322022678214 597.378474666737,257.1740920388838 596.498981546727,255.61558437510394 595.5887884516269,254.1591366257635 594.2383973263204,252.2456788397394 593.5255986631382,251.4347828810569 592.1145357653731,249.50245478737634 591.6905906631146,248.8579559897189 591.4025817884831,247.81742568011396 591.2545286827954,247.3260315420339 591.0153368463507,246.35114736889955 590.8611379199428,245.83399233646924 590.658180209808,245.1537820440717 590.4735725796781,244.4994876793353 590.4981558615109,244.28974890435347 590.6151594667463,244.11690996109974 590.9815202703467,243.7310968967504 592.040523776086,242.725048822409 592.7901973618427,242.08464546554023 593.1166248960653,241.8254245966673 593.4983356872108,241.38102250313386 593.9540875948733,240.65882743854309 594.5647374792024,239.64869324100437 594.9833231929224,239.0809252198087 596.3726863929769,237.56327644886915 597.166982713039,236.77509536058642 597.768457557424,236.11698456545128 597.9593857707223,235.70344295160612 598.4928196836263,234.2316604318912 598.9236679110909,232.55343493126566 599.0806339128176,231.40268841787474 599.240658261464,230.2673522901605 599.4130325049628,229.62571810319787 599.9854967468418,227.21312490862329 600.2686122666346,226.0531674537924 600.7734142293921,224.12802688102238 601.188854215201,222.81672758905916 601.471969735343,222.14416127221193 601.6997437441023,221.68754200270632 602.9273640960455,218.97792258614209 603.1919839004986,218.44109933055006 603.521295018727,217.8702864900697 604.7954604943516,215.56876930460567 605.0232053759973,215.20463833992835 606.2832733297255,213.6610397264012 607.1952723058639,212.55274044099497 607.28524595208,212.4433440908906 608.3101998650236,211.37274304684252 609.0549509689445,210.71867758588633 609.9351722667925,210.0706813497818 611.1508213760098,209.20372807158856 611.9881384392502,208.7917784008896 612.15410471824,208.71013927151216 613.0097136070253,208.36453065887326 613.9201688462636,208.14892942958977 614.646482488839,208.04408437618986 614.9419770310633,207.9947173181572 617.635069724638,207.6162761496962 619.2663044552319,207.36332934017992 620.8943060765741,207.1998104514205 621.9776889742352,207.07635241927346 622.7224400782725,207.02083422860596 623.4549286685651,207.0146034094505 624.1598047574516,207.11026244459208 625.3231124480953,207.38174218311906 626.0925342153059,207.57301998732146 627.7421772801317,208.06673091155244 628.8070935895666,208.5110738829244 629.4965323094511,208.86275329685304 630.7273857706459,209.4984110527439 632.3496202240931,210.43478003854398 633.8666475521168,211.28794948599534 634.9516324409051,211.9536360600032 635.9896935540019,212.55274044099497 636.2607504497282,212.70914638257818 637.508381127147,213.42918755911523 639.1604999965057,214.36558139434783 640.9882553458447,215.447272557416 644.1714990648907,217.10720364982262 645.5872223004699,217.92164851736743 649.6497261226177,220.25409621431027 651.0062630685279,221.0151323277969 652.2250870328862,221.63222683162894 653.5423315057997,222.15051152114756 654.6748809672426,222.59482883574674 656.0783708161907,223.137793480244 658.2205533297965,223.76714370498667 659.7470469690161,224.17439529817784 660.5333333333256,224.39126038801624 661.5814141724259,224.68041354120942 662.5416185173672,224.93953281617723 663.6744592498289,225.11238534830045 664.5730888817925,225.27281699050218 665.3610063645756,225.33452144014882 667.010795064969,225.4332485271152 669.3375852088211,225.64304345432902 670.728725162684,225.77883295499487 672.7972160852514,225.86525893898215 674.569833813468,225.84049733850406 675.961002894328,225.7048276864225 677.3152970526135,225.4950328124105 678.275647033006,225.29753871035064 679.2112389691174,225.1248061240185 681.1071226312779,224.66819243429927 683.6309868089156,224.03876465774374 684.6403868445195,223.8289284123457 684.8059162170393,223.8309253321495 685.6376700017136,223.84122943814145 689.1463509334717,223.08854929270456 689.6757361778291,222.91569532634458 690.5499281635275,222.53308375447523 691.7972384426976,221.85196976951556 691.6210194205632,221.91611134598497 692.4089077761164,221.4223885157844 692.9997803519946,221.11390110186767 693.7753770666895,220.8424366475083 695.4129615075653,220.20049809466582 696.668660394731,219.5340751853655 697.6166896071518,219.02808620472206 698.4045488355914,218.50975494110025 699.5740897281794,217.67058954696404 700.4851275093388,216.93003197578946 701.2853366328636,216.1525679191691 702.2702116409782,215.23938597127562 703.1565787591971,214.190284907585 703.8461339876521,213.20284691016423 704.3074200463016,212.55274044099497 705.0189953708323,211.5497989365249 706.2685775645077,209.5319213339826 706.9732788907131,208.548658271553 707.5703846685356,207.2739012168604 708.2136277903337,205.71834988478804 708.4229060835205,205.17522663687123 708.6076593493344,204.47181672620354 708.6260094293393,203.6757400681381 709.0785282276338,202.4028348136926 709.450860088924,201.35547592723742 710.73125876626,197.9490320685436 711.5005931520136,195.88175231125206 712.2516065849923,194.2896202041884 712.8301583928987,192.99365853646304 713.5319761353312,191.25311665865593 714.0613613795722,189.88304282864556 715.5632426098455,187.081317742588 716.4177446685499,185.40560385148274 717.181515776203,184.09589387167944 717.6611519148573,183.33202628535219 718.2890741761075,182.4432477786322 719.322038044571,181.29705825593555 720.9728170667076,179.27102108119288 720.9757297778269,179.26694662030786 721.8346591574373,178.0613426346099 722.203932672157,177.62936737632845 723.3981442276854,176.59252776333597 725.2201906631235,174.72863409435377 727.5962638792116,172.0993453776464 728.963548728847,170.77254647447262 729.431504896027,170.26629652880365 730.5522287503118,169.3894945428474 731.9914284374099,167.59373639168916 733.087102976162,166.27290514687775 733.3511111111147,165.97753076429944 733.8214557013707,165.45121698995354 734.7078810738167,164.36498965352075 735.7854676764691,162.9521398479701 736.9305709226755,161.5448347113561 738.0632368925726,160.19932228233665 739.0358493868262,159.0758790326654 740.0455115663353,157.91547760699177 740.8578084409237,157.05141499720048 741.4734681884293,156.5822495696484 742.150557013345,156.15015636128373 743.1108778667403,155.4958628761815 743.7511208961951,155.19959654676495 744.5702917688759,154.95878001494566 745.1366101902677,154.79830211115768 745.9861897671362,154.68712206248892 748.1041676515015,154.57614171184832 748.3488936391659,154.59080326580442 748.8229373724898,154.85011687030783 749.0999653263716,154.94268029474188 749.6954691129504,155.85209309804486 750.26344777958,156.66326696117176 750.8783502223669,157.4755966545199 752.031288661412,159.0258229278843 752.3274531272473,159.6705591530772 753.7150104463799,161.6357976513682 754.5645608960185,162.81100222631358 754.799179776106,163.16494470654288 756.2781962241279,164.7562014318537 757.113153991173,165.61955762543948 757.6236939947121,166.26315787783824 758.8049439857714,167.75228839099873 759.2597055716906,168.24056718108477 759.5549962241203,168.73991042893613 759.8511024356121,169.39460779889487 760.3058057673043,170.25902614404913 760.5639302259078,171.00799448543694 760.6618264463032,171.6427122951718 760.6391655538464,172.04773401794955 760.5946593281114,172.44388687587343 760.381856654305,173.0464038993814 760.0865368747618,173.70220821240218 759.7224771128967,174.37794406386092 759.1237693440635,175.42877430625958 758.8122548907995,175.855959912471 758.5395960037131,176.126755412668 758.1374962347327,176.46961348241894 757.7806599965552,176.81354961462785 757.6236939947121,176.87151139369234 757.4165711075766,176.94784835370956 756.9457022292772,176.96893988002557 756.0961517796386,176.83352266205475 755.5281731128925,176.89567877503578 754.8452879929682,176.93674334476236 754.2764937672764,177.06213404570008 753.555626894231,177.1875246822019 753.0709517655196,177.33284831471974 752.5555766614852,177.57252426468767 751.9560533334734,177.86329082184238 751.5919644446112,178.0718484040117 751.2885764553212,178.3104850356467 750.8314264463261,178.42696710984455 750.7577931092819,178.4458215419436 750.0975688819308,179.00729946792126 749.7763842275599,179.26694662030786 749.654195996467,179.36569235712523 748.618581560906,180.20343168394174 747.8151684552431,180.80708795390092 746.7074935466517,181.4938689749688 745.7746395592112,182.5113942362368 745.6767433386995,182.62563737580786 745.6589175466215,182.64672841114225 745.0011691235704,183.41682956647128 744.6225166791119,183.8439612350776 743.9088733298704,184.92582772002788 743.4007508765208,185.75691713835113 743.3295933441259,185.97992791375145 743.0738864355953,186.77662155823782 742.6725730987964,187.66091050882824 742.4452359965071,188.50309508899227 741.9978144427296,189.40850817400496 741.580335559207,190.26171123416862 741.3149293228053,190.67780641908757 740.9282086685998,191.16711779026082 740.3141217849916,192.06141666462645 738.7744335645111,194.16180182230892 737.4928406755207,195.96143852971727 736.6578537815949,197.1364377567079 735.6804935680702,198.55104671401205 734.5202442241134,200.29856634541648 733.4125984427519,201.7652812898741 733.3511111111147,201.86625466914847 732.4117617779411,203.4084900288144 731.3494377814932,204.90630069794133 730.5605882311938,206.2997756014811 730.2118493298767,206.88227834366262 729.7045424355892,207.87078039650805 729.3097244445235,208.6906880660099 728.9456355555449,209.73138529644348 728.6656948907766,210.35601718269754 728.4456395662855,210.77203814603854 728.2708768997109,211.48988831834868 728.1268433352234,212.0923088848358 728.08557021874,212.4684265734977 728.0764243057929,212.55274044099497 728.028131555533,212.9976344021852 727.876000654418,214.0061216140166 727.815328881843,214.68286412017187 727.815328881843,215.4317359868437 727.8533688889584,216.0452500464162 727.9981888853945,217.13691863394342 727.9981888853945,218.17646152561065 728.0208497778513,218.65461462148232 728.1721651200205,219.2470726451138 728.376841329853,219.89160974492552 728.9230037902016,221.32725429802667 729.2191100018099,222.14927342225565 729.3404826737242,222.49210673838388 729.7879042276181,223.3662815874559 730.2352966543986,224.10410380957182 730.9716008962132,225.4042534402106 731.3203106703004,225.9456542467815 731.7903639893048,226.579150773352 732.40450912714,227.24363741843263 733.2168060018448,228.09678801061818 733.3511111111147,228.19671210995875 733.6642275555059,228.42958861927036 734.0582591146231,228.90772161609493 734.7564942223253,229.40694066789 735.3786784427939,229.8018821203732 736.3188433352625,230.28113067289814 736.8876084338408,230.56177020061295 737.5017535716761,230.8945674461429 738.7080820053816,231.33172008040128 740.6183544606902,232.02838304650504 741.2477913317271,232.225831761898 741.953308217111,232.49540650978452 742.8335877690697,232.71394155337475 743.9331653404515,232.9524448532029 744.5707286755787,233.02568912203424 745.1621837937273,233.01458666613325 746.3150931058917,232.9524448532029 747.1573617778486,232.8171385891037 747.9534931059461,232.67176813905826 748.6590099910973,232.63079282612307 748.8329862258397,232.59748540306464 749.8645519929705,232.40223352314206 753.117904668441,231.81979172385763 755.5605624604505,231.2684595977771 757.6236939947121,230.71165481966455 759.2232675555861,230.28001242736354 761.6812753351405,229.66653417109046 764.8132553386968,228.8766901261406 768.378064213437,227.9714235450374 771.114439793746,227.47439813415986 771.9202704499476,227.27470905397786 772.8078317797044,227.0772563307546 773.6743633351289,226.9141500365222 774.0206555592595,226.84869182377588 774.9616360107902,226.73442945891293 775.7504855609732,226.7444139390136 776.3095513315639,226.724444978463 776.5749575681984,226.71557875955477 777.5248217884218,226.68227052886505 778.9358264320763,226.58797705930192 779.6405568853952,226.52587354707066 780.6114508801838,226.41161103127524 781.8963060055394,226.28524724964518 782.0896808960242,226.2662767014699 783.1762677760562,226.10101321188267 783.3057377848309,226.0820825875271 783.8882800072897,225.9933802119922 785.1997864391888,225.79588651342783 785.5533604410011,225.74045245960588 786.716842894326,225.55737621564185 787.2710735645378,225.39095403958345 788.1052448996343,225.275612661615 788.8641226525651,225.17241243523313 789.2282406684244,225.17241243523313 789.7662766649155,225.28667553159175 790.3342553316616,225.45309777877992 791.6999964446295,226.20189664099598 792.4734668801539,226.95077308040345 793.6717271039961,228.1156386032235 794.6280866703019,229.0719048906467 796.2964293403784,230.73597661568783 798.9817742222222,233.39730160770705 801.8815237689996,236.1096762069501 802.2496904534055,236.38483775040368 802.7197728996398,236.63439981662668 804.7829044339014,238.25516922975658 805.0725735538872,238.47369911329588 806.0871873422293,239.23360011546174 806.1688888889039,239.27940655918792 807.0879948801594,239.79489818471484 807.3914411236765,239.69062583427876 808.0289753316902,238.87972807564074 808.3170133334352,238.3383559755748 810.1479726649122,236.10855798813282 810.6625613369979,235.45515790086938 811.3219700054033,234.82172436238034 811.7160015646368,234.4955619588145 811.9514360037865,234.30146976182004 812.9441753315041,233.53264748683432 813.7937257813755,232.87592573551228 814.2031364552677,232.62743812194094 814.741958883591,232.3057057922706 815.4248440037481,232.1481941791717 816.1449535716092,232.02395003347192 816.8204986596247,231.94072119693737 817.4119537777733,231.88860331726028 818.4362668942194,231.76435903907986 819.3618391040945,231.6700675341417 821.0593088853639,231.4936253062915 822.0609611094696,231.36942076409468 822.7284671148518,231.1408602790907 823.8433655467816,231.12979767471552 824.073964885436,231.14533324545482 824.9582931058249,231.20300255343318 825.769803548581,231.3383496501483 826.3774242133368,231.4936253062915 826.9608111219713,231.69115432875697 827.7196888749022,232.10713890439365 828.4778384497622,232.56421791244065 829.3880606720923,233.2198222708539 830.0781984427013,233.81220498110633 830.4350055538816,234.12506937416038 830.4414717723848,234.13137937441934 831.0345288818935,234.70746573241195 831.2165733263828,234.9770377376699 831.3913359930739,235.23662531311857 831.6486448926153,235.77800429670606 831.7991155486088,236.10743976937374 832.4369410276413,245.83399233646924 832.7853886578232,251.1485766164842 832.8687504497357,252.50856253673555 832.8736146774609,252.58954806940164 833.3323666774668,260.07033093879 833.3372017778456,260.14244895713637 833.3776593351504,260.75808678701287 833.5443246649811,261.36038569163065 833.9237635413883,261.96272304141894 834.6826995485462,262.8977725599543 836.0630042168777,264.10459449811606 837.2305062115192,264.93653226539027 839.1270306702936,265.9547876470024 839.7791575609008,266.2675708880997 840.5380935680587,266.4960186009994 841.4936084480723,266.6624127368559 842.7679195592646,266.80776293290546 844.0268515557982,266.7245459629921 844.6336857886054,266.51710238552187 846.3650886542164,265.33912299916847 854.5385055573424,271.96552247257205 853.1735800036695,274.6674458379857 852.542512014159,275.8996848173556 850.8963933299528,279.1107441789936 850.2317417813465,280.40732649114216 849.9598984533222,280.926404692058 846.1361495609162,288.225525477028 845.2259273387026,287.7264267739374 841.9191846685717,285.14886518131243 838.2790822115494,282.4226214622613 837.0039846685249,281.46768229216104 836.5840591076994,283.1624212404713 836.4279086650349,283.79684727516724 836.3672368924599,284.8993128107977 836.1681822151877,285.32742473692633 835.2442119964398,287.3116550112027 833.8493437723955,291.99648263904965 831.7360262258444,299.3507295390591 832.4795831183437,299.78660167270573 830.5070368995657,303.94553407659987 832.3929882169468,304.81945703248493 832.8177780053811,303.8601338811568 835.4877728995634,305.5879748433945 834.3008431219496,308.2307968547102 832.43772745959,312.3829180469038 831.727113329689,313.96657435107045 831.0895791220246,314.96578125387896 830.4414717723848,314.57093771733344 828.3589124550344,313.3022839433397 820.6847051094519,330.3092097081826 818.2833495610394,335.5066650316585 817.8132671148051,336.52566387847764 817.3779915664345,337.21096874866635 813.8689611094305,335.33920007233974 809.6414813296869,332.76210145273944 806.1688888889039,330.5827480403823 795.9282626559725,324.1557537551853 790.4094906594837,326.9414135317202 783.3987697778502,330.47771606373135 781.8963060055394,331.2172903200262 781.4747784533538,331.4247587402351 777.5741631147685,333.3464979567216 776.7853135645855,334.0539675540058 775.647725112969,343.4295624100487 775.3949891697848,345.650555816188 774.6468884481583,352.22260273154825 774.7310366720194,353.0763941963087 774.7359008996282,353.12740843137726 774.7836111076176,353.6163941009436 774.3588504464133,357.00485824781936 772.6905077761039,357.69122327747755 771.8604142364347,357.75999938196037 771.1742668801453,357.81652111082803 770.5367326720152,356.776495253318 770.2875502364477,356.7432446893072 769.1410488890251,356.5890865532565 768.071413987549,356.48705951991724 767.7283840001328,356.45492658397416 763.5583428837126,356.05464165541343 760.9652435627067,360.9765279664425 758.3858922382351,365.6333581241779 757.6236939947121,365.34996009478346 757.3243546737358,365.238676384266 755.954535765457,364.51573018264025 755.5500184464036,364.30286139488453 754.6551462116186,363.8660267587402 753.0013962241355,365.01024126278935 752.3379388873,365.34513035079 751.8969835520256,365.56793711532373 751.8589435449103,365.58789471606724 751.4390471110819,365.80080229823943 747.1161177885951,360.08396569127217 747.0707668764517,360.11282502970425 746.7002408961998,360.35232148272917 746.6719002169557,360.37116186029743 745.5343408925692,361.1062946978491 744.7341317690443,361.62296598241664 744.2802439965308,362.04874796263175 738.8634168889839,365.9471312488313 733.3511111111147,369.9679897662718 732.7361795414472,370.4164684896241 732.269941873732,370.75031238695374 731.1754906737478,371.53518701088615 729.8922666667495,372.4543301022495 726.9803711146815,374.3790990393027 725.6372908944031,375.47005945967976 723.6218695680145,376.87924437696347 720.7127119643847,378.91369934001705 719.008455566247,380.10553913738113 717.9647146667121,380.6166223353939 717.3093546667369,380.93704161886126 714.0163891200209,383.26529735757504 712.3731248925906,384.5025758018601 712.3488328817766,384.67882760148495 712.3197057708167,384.9804030758678 712.084271331667,385.34400138555793 711.7881359928288,385.58347308292286 711.0834637938533,386.02034867781913 710.4677166648908,386.5713312634034 709.0785282276338,387.5390699953423 705.8430013441248,389.79302786599146 703.9998960071243,391.25868399551837 700.114659783314,393.95154427504167 699.6065373298479,394.3029565187753 697.1768702294212,396.01139950047946 696.7213222116698,396.33287615154404 696.4397795555415,396.5302318747272 696.0740886756685,396.7874126828392 695.9009279999882,396.9526005232474 695.6476677689934,397.1931783137843 696.7641973191639,399.16648195206653 697.5531051235739,400.3094135290594 698.8030950970715,402.34702559921425 697.8929020017385,403.4068517284468 696.1946166615235,405.2670437853667 696.0198539948324,405.64174639387056 695.9591822223738,406.01537089503836 695.9438031075988,406.5142277548439 693.7455217778916,407.5440646316274 691.7810437689768,408.5184647079441 690.4889651201665,409.0716313692392 689.8837620053673,409.32991639053216 687.6741211024346,409.2412806004286 685.5373562311288,409.1547998144524 685.2428228835342,409.1437053689733 684.8059162170393,409.11708667932544 681.5525926686823,408.9186636125669 678.0824469049694,408.7069509708672 675.7854246685747,408.57277973525925 667.7641386667965,408.1027807473438 667.2787062330171,408.0739270821214 667.2827257743338,407.5750734095345 660.5333333333256,407.06324848206714 653.1746891094372,406.5053281573928 649.7740988871083,406.43217584869126 649.2765204481548,406.44323050876847 648.6470544497715,406.45324754697504 648.047501994879,406.44323050876847 646.5604173368774,406.39114988502115 644.7561384391738,406.1727703215438 643.1703420018312,406.0796237157192 642.7981849032221,406.0474973075907 641.3127022365807,405.9643278038129 640.5011626668274,405.9543905626633 639.5456477868138,405.8301949692541 638.7939935575705,405.69498452788685 638.6770190792158,405.67491048021475 638.1264875521883,405.580765968014 637.7672628905857,405.45441511587705 637.5350324338069,405.3734802969848 637.0649791148026,405.03094373171916 636.8368264533347,405.0408810104127 636.2607504497282,405.2710346566164 635.9266042312374,405.4044893505052 634.9945366757456,405.7991460611811 634.2962724409299,406.1627532718703 633.4621302330634,406.5474715396995 632.6813488923945,407.0884306927328 632.0219402241055,407.62831112212734 631.3689977742033,408.31449391291244 630.9668980054557,408.82332310726633 630.6181591041386,409.51951945159817 630.2160593351582,410.30877902230714 629.851970446296,411.30647417600267 629.6318859948078,411.6601361753419 629.4352779948385,411.82639145845314 629.1925617777742,411.8674165086122 628.7370428870199,411.6700731840101 628.1609960107598,411.140218538756 627.7434880000073,410.6513480899739 627.288784668548,410.3819700774038 626.9392593350494,410.1214513255982 626.6285895680776,409.8010703471373 626.3251433245605,409.32329165458214 625.9384226703551,408.86546608956996 625.5589546667179,408.46083728881786 625.4165522204712,408.4009749965626 625.2401875626529,408.3255883959937 624.7474442240782,408.2313251813175 623.96584732458,408.2834852288943 623.007914894144,408.31229896110017 622.2530275557656,408.3344480187516 621.3120762312319,409.28118865954457 621.2748517831787,409.49956544244196 621.5855506774969,409.8321187464753 621.9569213440409,410.424112790497 621.615464220522,410.72557664557826 621.2594726685202,410.90188932878664 620.6979602205101,411.14133595570456 620.1672060019337,411.24549516523257 619.8031171130715,412.1700359013048 619.8041365619283,412.1722707259469 620.0005115449894,412.574658554513 619.7496979912976,413.0003117629094 619.2035937849432,412.9482325380668 618.9155557831982,413.0003117629094 618.6420813369332,413.17662280320656 618.3993651202181,413.541296524636 618.3233142329846,413.9769647772191 618.2706815431593,414.64209864125587 618.1493379983585,415.2029934024904 617.9220008959528,415.92020252830116 617.7779964586953,416.2527470861678 617.5587275663856,416.4600634271046 617.2391157760285,416.7627170338528 616.8904060019413,416.8868671587552 616.1921708942391,417.0331654891488 615.873374663177,417.0120947039686 615.5020331236301,416.8879845495685 615.1832077654544,416.64854355878197 614.8264297813876,416.2538644797751 614.3490655574715,416.0776354757254 613.5181273315102,415.3171675534104 613.0075873280875,414.8504938427359 612.4994648748543,414.53786106652115 611.9881384392502,414.20543389435625 611.8157933227485,414.09337430866435 611.2170855539152,413.5834386923234 610.6402231183602,413.1788576185354 609.7348651235225,412.7986194388359 608.9645986702526,412.42943505587755 607.8431757653598,412.29422826931113 607.5017768959515,412.2532032909803 607.2436815645779,412.1911071044742 606.3722857813118,412.3518547837157 605.8018604374956,412.5236567419488 605.0736826595385,412.9394129901193 604.2168795592152,413.7497325731674 603.6230068907607,413.31957113574026 602.1682824534364,412.26425768766785 601.2871582150692,412.4228104039794 600.7199951076182,412.5247741526691 599.9554084409028,412.66333304188447 599.7693444552133,412.6966158968862 598.9626691129524,412.8417993289768 598.4966353352647,412.92608389881207 596.5524006685009,413.2763913300587 595.6009053298039,413.44819263764657 590.7415420019533,415.24513528327225 589.9334103041328,415.32427101174835 587.7155555556528,416.1809545336291 583.4945419947617,417.8113466245122 583.0802962203743,418.16499920072965 577.3835284481756,420.2445234513143 576.4967826773645,420.5726724360138 576.1537235628348,420.6990553701762 573.3113835520344,421.7510201591067 572.1171719965059,422.3407106648665 570.5993291093037,423.0911802604096 570.3452824463602,423.2164046232938 570.1373731272761,424.3215926378034 570.0443120072596,424.6874069728656 569.9698631111532,424.9822688102722 569.8266742329579,425.74047192709986 569.7392928996123,426.3013810965349 569.6025411129231,427.27347162517253 569.499780664919,428.14695311762625 569.4908968961099,428.3154717559228 569.4658184535801,428.81647781823995 569.3452613404952,429.8551193695748 569.2845604410395,430.7584801320336 569.421312227496,431.27835599170066 569.2918422186049,432.1507457398111 568.1655842134496,437.5288707081345 568.1008928996744,438.35802284959937 568.0337257814826,439.2059266635915 568.0199486577185,440.3864190270542 568.0183466667077,440.53601522155805 568.3330651022261,443.38794199971016 568.5256535609951,445.0162371128681 568.573800675571,445.42631183099 568.9285688889213,448.4322817370994 569.0717868942302,449.2868141210056 569.101700437488,449.4663708816515 569.308852451737,450.69776758766966 569.7602935467148,453.3877777988091 569.9569306737976,454.563732726092 570.1025662292959,455.4326876383275 570.4480428942479,457.49202421697555 570.4909180018585,457.7513752246159 570.545152682811,458.072730691114 570.4698882275261,458.7067421603133 570.31050467561,460.5254561721231 570.0297193246661,462.08377312339144 569.9423379912041,462.70109626092017 569.716632007272,464.2959468740155 569.6704946630634,465.1017071515089 569.5977060124278,466.3951074311044 569.923754894291,469.42739143699873 570.2805328783579,472.01525646215305 570.4480428942479,472.7577534513548 570.5289288819768,473.1134809242212 570.6430197760928,473.61886360199424 570.6672826595604,473.72862171329325 570.7417315556668,474.1741170519381 570.9787971129408,475.59825239528436 571.4627149370499,478.6758644891088 571.4933857849101,478.8709194509429 571.508764899685,479.09916826867266 571.5394940018887,479.5668762004352 571.706159331603,480.4712100661709 572.3979573475663,485.3950172123732 572.4837075627875,486.24279760941863 572.5265826702816,486.67167363030603 572.6252944497392,487.21249519306 572.7911442203913,488.3029515519738 572.8413011058001,489.141865163343 573.1714277830906,494.61958742834395 573.4036291129887,498.3208551609423 573.41740623652,498.5425033789361 573.7102793387603,503.2210450072889 573.7102793387603,503.8637954319711 573.8162437689025,504.75690933829173 573.8915082239546,505.77528179605724 573.99100643571,506.290569939767 574.1326224497752,507.0186015793588 574.2774424464442,507.76988806412555 574.446554453345,508.6430816698703 574.5678979983786,509.3588994363672 574.7952351004351,510.55453063041205 574.8834611200728,511.1673432022799 574.991464448045,511.9208508376614 575.1512557796668,513.0355703479727 575.3786220090697,513.9298075544648 575.7119235413847,515.5398810296902 576.199016220402,517.8966916085337 576.5169968926348,519.4757044774015 576.6529331201455,520.5250498957466 576.8657357938355,521.1477301174309 577.4878908870742,524.315675929829 578.7176957725314,530.7820383124636 578.8609137777239,531.5344084625249 578.8835746702971,532.179238335113 579.1594666666351,533.6240563325118 579.3236853192793,534.483874946076 579.4669033245882,535.252786996658 579.5009237902705,535.4333974130568 580.1303897884209,538.8083305705804 581.2736288997112,544.9430572108249 581.352388608153,545.1613127140445 581.524442453403,545.6377089170273 581.941105777747,547.8403113338281 582.077012878377,548.5327611097018 582.1465975467581,548.8928453852423 582.6992262257263,551.7147103144089 582.7704128853511,552.0548475352116 582.8262495574309,552.324029434938 583.4104228978977,555.1159415586735 583.4888913352042,555.4937645868049 584.580342442845,560.660903497017 584.6644906667061,561.0608531600446 585.2001091130078,563.5070009263 585.6588611130137,565.6086192523362 585.8239244516008,566.1248580201063 585.86758599116,566.2611362581956 586.0302317795577,566.771869885968 586.0302317795577,567.4055593755329 586.2883271111641,568.6573794361902 586.5399562240345,569.6067690852797 587.1767331273295,572.3276144330739 587.4250708766049,573.3911299768952 587.5407928889617,573.8841015808866 587.6847973262193,574.5964180680458 587.7155555556528,574.7494017311838 587.9809617920546,576.0653922782512 588.1160533333896,576.4254359749611 588.2689706666861,576.8341734630521 588.4769091130001,577.6960334383766 588.6463415182661,578.3972919329535 588.8304831148125,579.1594057693728 588.9518557867268,579.4264042720315 589.0319553421577,579.6014386811876 589.1006953244796,579.7509895123658 589.3612664605025,580.3225918856915 589.6419935574522,581.0725363186211 589.7148113352014,581.2642393733258 589.7803182080388,581.4403492239653 590.2463811129564,582.6821673233644 590.3086548765423,582.849422857922 590.3709868943552,583.015601526713 590.5141757725505,583.396691418835 591.2140711254906,585.1292152428068 591.2739273386542,585.2765693286201 591.3531822080258,585.4737325453898 591.9406177848577,586.9260117998929 592.0393295646645,587.2361508839531 592.086253340356,587.3868136529927 592.1671684551984,587.6393669958343 593.2448715664214,591.0379447186715 593.3621664427919,591.3757940119249 593.4390620160848,591.5984744049492 593.5053844482172,591.7912060354138 593.6696031005122,592.2642014325247 594.4439182222122,595.4200993134291 594.5677084446652,595.8709157530684 594.7303542329464,596.4591093266499 594.8881066667382,597.034022314183 595.6729366756044,599.8852389623644 595.754638222279,600.2729619796737 595.8331066595856,600.6462091039866 596.2765086720465,602.7497012007516 596.811311559286,605.2907353807823 596.8647306810599,605.5421536905924 596.9326842312003,605.8644711865345 597.356629333226,607.8793147539836 598.0498545777518,611.6287106617237 598.5775504498743,614.4830666050548 599.4230231040856,619.0597438204568 600.1787260019919,623.1423077642685 600.2911857777508,623.6573882905068 601.1204928853549,627.4408722806256 601.270992668462,628.2826176321832 601.9239059912506,631.9464149693376 602.0962511076359,632.8767393796588 602.5461193386,635.3099677292048 602.6779777707998,636.095228626451 602.8640708837193,637.2005303982296 602.7694368995726,637.1982976315776 602.1553208889673,637.1828277470777 601.2257000107784,637.1584267934668 597.8283428979339,637.7609542045393 597.4286315521458,637.8351137752179 597.3841253262945,637.8428885676549 591.8968979911879,638.8618228101404 591.4891184356529,638.937138292822 590.7746886543464,639.0700666739722 588.6565360073,639.4621132755419 588.1281993385637,639.5595566736883 587.7155555556528,639.6361079249182 586.1782848853618,639.920623198268 583.8368146774592,640.4588728796225 581.8399764482165,640.9173809323111 579.2783926613629,641.6948491429794 578.4879411200527,641.9351461248589 575.5145582364639,642.765757715446 574.7895844409941,642.9396304031834 571.4351315627573,643.7414924792829 571.1859491271898,643.7791295368224 570.5071126755793,643.8832294610329 569.6591642169515,644.0117296128301 568.0814651164692,644.240940544405 566.883204892627,644.281926577969 565.3661484373733,644.2608753864188 564.983447324601,644.2121944992105 563.4429726720555,644.0172316346434 563.3733880036743,644.0083805560716 562.1807784391567,643.8876948722173 561.4307844552677,643.6141484092223 559.6895948800957,643.2353851287044 558.7381286683958,642.9119606921449 557.8513537708204,642.4147027603467 556.4014935609885,641.7070095233503 555.9613246578956,641.4965750491247 555.5365639964584,641.2939150761231 554.4442973297555,640.7955374852172 552.6392320001032,639.9638028276968 550.6084024320589,638.762146381312 548.4675888926722,637.5560184995411 546.6932526648743,636.4341320169624 544.1300668872427,635.0021224411903 544.4973888854729,634.1802960271016 544.7061428908492,633.7151168101118 546.1018266738392,631.9320212882012 546.28305555915,631.7005261233426 547.2231913246214,630.1842792042298 547.5719302259386,629.4577309202868 548.0427991040051,628.1075782187982 548.2248726756079,627.0488063939847 548.0056037831819,625.7296613505459 547.7240320000565,624.0384148025769 546.5556853192393,622.1698799809674 545.8428866560571,620.8828466410632 545.1956531200558,620.0045515489182 544.1891366684576,618.6410686220042 543.9083804445108,618.2666926395614 541.2011902292725,614.6536498322384 540.0652328961296,613.0254484092584 539.170360661461,611.743112029566"/></g></g></svg>