<svg width="1200" height="800" version="1.1" xmlns:xlink="http://www.w3.org/1999/xlink" xmlns="http://www.w3.org/2000/svg"><g class="geojson-features"><g class="geojson-feature" stroke="#555555" stroke-opacity="0.0" stroke-width="0.0" fill="#111" fill-opacity="1.0" data-properties="{&amp;quot;N03_002&amp;quot;:&amp;quot;空知総合振興局&amp;quot;,&amp;quot;fill-opacity&amp;quot;:1,&amp;quot;description&amp;quot;:&amp;quot;赤平市&amp;quot;,&amp;quot;N03_001&amp;quot;:&amp;quot;北海道&amp;quot;,&amp;quot;stroke-opacity&amp;quot;:0,&amp;quot;N03_007&amp;quot;:&amp;quot;01218&amp;quot;,&amp;quot;fill&amp;quot;:&amp;quot;#111&amp;quot;,&amp;quot;N03_004&amp;quot;:&amp;quot;赤平市&amp;quot;,&amp;quot;title&amp;quot;:&amp;quot;赤平市&amp;quot;,&amp;quot;stroke-width&amp;quot;:0,&amp;quot;N03_003&amp;quot;:&amp;quot;&amp;quot;}"><title>
      赤平市
    </title><desc>
      赤平市
    </desc><polygon points="345.0943715556059,508.8914822982042 344.909094001865,507.6972552151419 345.1469459912041,507.0599593614461 345.6493886578828,506.37018646660727 346.20443488727324,505.8132477647159 347.2603217919823,505.2295074495487 347.97390688722953,504.59333015896846 348.160000000149,504.1574916987447 348.3703559965361,503.6647164503811 348.63494667375926,502.4972240597708 348.5715078258654,502.1971129955491 348.44963999290485,501.62107872142224 348.160000000149,500.8052823023172 347.3662862221245,498.56955288146855 346.96983711293433,497.13639450765913 346.91644711827394,496.3673547009239 347.2869730987586,495.38510661991313 347.85661201085895,494.6573685229523 348.160000000149,493.97181963623734 348.1737479965668,493.9407989149913 348.5008745812811,493.65281231561676 349.21585777786095,493.0233150908025 350.5249757866841,492.2955698989681 350.8688213333953,491.81896412489004 350.8955308942823,491.15594972710824 351.2652704428183,490.5185701753362 351.66171955200844,489.72274749469943 351.68764268094674,488.8733179176925 351.5290455609793,488.18353342235787 351.10670244996436,487.62651272583753 351.05328332819045,486.88311995810363 351.15930601244327,486.35293887910666 351.8203166719759,484.8929056478664 352.48051177244633,483.51327184127877 352.77178288367577,481.9204124935204 352.7709964517271,479.9379934091121 352.7709964517271,478.92328978329897 352.61239933164325,477.2779587720288 352.6382933333516,476.2689101189608 352.87617444980424,475.4729602531297 353.1407360001467,474.8356198067777 353.1933104356285,474.4649890900473 352.9028840108076,473.93365563475527 352.8696791039547,473.27284268359654 352.7968904535519,471.8361590238055 352.74428689084016,471.06591368390946 352.4271509050159,470.50893399695633 352.27015577605926,470.226505423896 351.94346609781496,469.6413532019942 351.68679799477104,469.18166151148034 351.68679799477104,467.9358801873168 351.87210467562545,466.95351681520697 352.24184422392864,466.1040073922486 352.3211282204138,464.9899837314151 352.24184422392864,464.2733263593982 351.6342235591728,460.531386394985 351.6342235591728,460.1652348341304 351.6342235591728,459.78791047015693 351.79279155202676,458.99194663454546 352.3211282204138,457.45141200488433 352.6641873351764,453.97509589401307 352.9813524481142,452.78055785864126 353.8268251022091,449.9148562629125 353.9587126612896,448.9056534243864 353.8001446684357,448.2961348312674 352.50561934232246,445.9595255071181 352.08246067201253,445.13783457508544 351.7919759929646,444.0236742887646 351.84460868278984,443.30695487884805 351.9238635520451,443.0870313553023 352.03148822754156,442.7911872800905 352.1617446684977,442.43059542553965 352.71679089788813,441.74063847161597 353.37780155742075,441.47489580360707 354.1165233493084,441.15674373239744 354.46036889601965,440.78493612702005 354.90939244104084,440.01575758319814 355.27997667563614,439.53788338357117 356.01948489958886,439.53788338357117 356.0712437761249,439.35372673295205 356.11656556103844,439.19296131888404 356.1748197830748,438.98754315590486 356.3633304464165,438.3165467879735 356.35118444100954,438.26968348020455 356.0461653333623,437.068355966534 355.62300666305237,436.51013253233396 354.64564644976053,436.00664917967515 353.27099244098645,434.7863799633342 352.715946211596,433.85745841055177 352.50480378302746,432.7164780658786 352.5574073457392,431.7339718378498 352.8745433315635,430.64543307956774 353.3235960036982,429.5568492357852 354.19577821856365,428.52191834367113 355.3584451129427,427.5930129562039 356.60039600369055,426.71651625382947 356.69805920729414,426.67302695068065 357.3140102258185,426.39834479475394 357.5835233848775,426.67302695068065 358.6230991075281,427.7325640255003 358.8439699911978,427.9580883512972 358.91760332824197,428.0172527805553 359.47264955739956,428.4605032214895 360.12882511655334,428.985264392104 360.7315815538168,429.3012218371732 361.6749795556534,429.61713867716026 363.11680068273563,429.3012218371732 363.94768065435346,428.80439555092016 364.0860635591671,428.7217585420003 364.4202097778907,428.4437828712398 364.8465724303387,428.08980153448647 365.4178424605634,427.5684146602871 365.79014519474003,426.67302695068065 366.3927851236658,425.2238077771035 366.4712535609724,425.03509835212026 368.75123643747065,419.1377642832813 369.20998843747657,417.7286949492409 371.8646333439974,409.5712378748576 372.43258288374636,407.62625251559075 372.997328441008,405.69226549286395 373.60008487838786,403.5584424221306 373.837995121954,402.5300731952302 374.0200395664433,401.7417194863083 374.20287044288125,399.9775215497357 373.91992968542036,397.0092118290486 373.77484754496254,395.48757821210893 373.62600800732616,393.9298766408465 373.51328608731274,393.1761464768788 373.0750104463659,390.24385252740467 373.04914557153825,389.24332531762775 372.8128664464457,386.63704689312726 372.76107844279613,384.84588504733983 372.83957600733265,383.31826549890684 373.1542944428511,381.7906363127986 374.4901220124448,379.3149319473887 379.75965331925545,370.88589802448405 379.7912562347483,370.83564463746734 383.8382935610134,365.62933722510934 384.0478339983383,365.024071597436 384.0090075592743,364.94700113288127 383.89005243743304,364.7080302721588 383.39247399836313,364.36517260898836 382.2128551255446,363.18028366332874 380.954709561076,361.52966322994325 380.71843043575063,360.8182478205417 380.71843043575063,360.0811798515497 380.9391848107334,359.67467181483516 381.0331779983826,359.5015910915099 381.4264231255511,358.1848467923701 381.76700643566437,356.57890035549644 382.13432843389455,355.9211041285307 384.25740356277674,353.99792141094804 384.9127344357548,353.2608326775953 385.6733015610371,352.7069190488546 386.9039220053237,351.36444619548274 387.4023160036886,350.38949021999724 387.6984513421776,349.3798323039082 388.0819388871314,348.07650212873705 389.05367756809574,346.9127223859541 391.197753343964,345.140284537978 392.0257788586896,344.52789123833645 393.0853357795859,343.7441735166358 394.7625913458178,342.55918364354875 395.4446317795664,341.76846343668876 395.9163453440415,341.2424276083475 396.676067783148,340.89953671209514 396.7051948942244,340.8744873229298 397.59357178315986,340.10989669541596 397.80311222048476,339.4777485819068 397.9341842205031,338.450192764285 398.32740022044163,337.9498427507933 400.3978717867285,336.772624938807 400.9488402204588,336.14046811073786 403.0718862222275,332.3474120578612 404.4352097848896,329.39761388872284 405.3114406685345,327.5971421318245 405.6415382187115,327.05318206583615 406.87215866323095,326.7627451698645 407.0282217244385,326.16856077930424 407.0922431148356,325.92504809773527 407.2572773263091,325.2984521703911 407.4976051201811,324.3836264415295 408.7071666631382,319.78174042649334 409.04862378677353,318.78092197788646 409.6440984463552,316.48214829480276 409.7565582222305,316.3369838662329 409.9895751111908,316.25768625253113 410.25171911122743,315.74832312075887 410.267098225886,315.1484820184414 410.27516643563285,314.8178590363823 410.3447511041304,311.6042139020283 410.3560815503588,310.6492041356396 410.30997333326377,310.2414469125215 410.170833123615,309.83372921549017 410.114151765476,309.75442947098054 409.9895751111908,309.60471695207525 409.20800733868964,308.62287719600135 407.97575577604584,306.86467598442687 407.8673155413708,306.51839867664967 407.4781773368595,303.0242716667126 407.39158243569545,302.5261004093918 407.0242604375817,301.35538587602787 406.76453398773447,300.18357988999924 405.986228451482,297.18871093326015 405.19606818130706,294.5659985669772 404.9271084375214,293.6732154370984 404.73213155567646,293.3693869137787 404.1959596942179,292.6577711626305 404.12777312716935,292.567285822588 404.04117822588887,292.2567398780957 404.0039537778357,291.8289241832099 403.9117082168814,290.75982401362853 403.954583324492,289.37236753478646 404.06302355928347,288.50437876058277 404.1714346667286,287.94022259360645 404.47322066500783,286.4432398150675 404.5379702330101,285.87911906064255 404.5379702330101,284.9887571222498 404.3648095574463,283.33985559194116 403.954583324492,279.2823034801404 403.954583324492,278.7829572483897 404.0848397654481,277.41554122476373 404.0848397654481,276.87259448418627 403.73857666854747,271.0531746078632 403.73857666854747,270.2063157709199 403.80329710943624,267.5808575768024 403.9117082168814,267.14628153067315 404.1924644409446,266.6904685375048 405.0144897706341,265.8871930780588 406.67878377239686,264.4772314685979 408.2136368926149,263.30524691496976 409.36092467210256,262.831568716676 409.9895751111908,262.63046535488684 410.7201995663345,262.4449674656498 411.3998224497773,262.2237534049782 412.0972711254144,261.8740336729097 413.20488777954597,261.23387833771994 414.1547520000022,260.43617549265036 414.55848288710695,260.03058604634134 415.240523320972,259.3680628311704 415.55162999464665,259.14238139707595 415.62406912015285,259.0898926354712 416.35789755755104,258.7770111152786 417.14432955754455,258.5625106696971 417.5334968888201,258.4820679259137 417.9542380089406,258.3189701808733 418.30778288363945,258.11114608851494 418.80940999125596,257.72678970050765 419.31427020800766,257.2653681655647 419.6791746560484,256.8296473886585 420.12012999132276,256.2028323331615 420.5789111184422,255.41074396832846 420.81597667571623,254.795066729479 420.97777777782176,253.95253520924598 420.99237046041526,253.8766762575833 421.093499790295,253.21638864040142 421.35075043560937,252.58956422563642 421.62585599999875,251.92589440912707 421.9017479964532,251.48344685364282 422.21407800901216,250.83767308318056 422.9487220054725,249.60303571762051 423.2788195555331,249.25221172731835 423.6825504427543,248.82874453207478 424.19635268265847,248.2756778827752 424.7659333405318,247.51928177493392 425.44634265603963,246.76843412185553 425.9188717795769,246.1762655985658 426.3307000036584,245.86944112589117 426.7482080141781,245.5583525703405 428.1996702151373,244.8946634696913 429.46672867576126,244.21311320440145 430.65930911304895,243.69692126614973 431.32113533152733,243.45670439762762 431.79852868267335,243.1069575427682 432.0922173440922,242.70133905048715 432.34946798929013,242.20304360543378 432.6067768888315,241.1158646090189 432.84547356457915,240.39629165956285 433.2492044515675,238.9213796480908 433.47898823127616,238.12585583381588 433.76294843736105,237.14593841752503 433.90942867915146,236.81408255791757 434.1302704355912,236.5738186315284 434.3317426631693,236.29787483549444 434.80989331926685,235.7447393197217 435.06638665962964,235.4497680561035 435.28728667041287,235.08102330187103 435.4709622330265,234.74920483556343 435.92889867397025,233.88210620795144 436.09553487657104,233.48210382676916 436.2792104391847,233.22397643636214 436.51712068275083,232.97928412712645 436.68215489422437,232.7948898251634 437.0308646685444,232.463068223733 437.30675666499883,232.1311657158658 437.61905755044427,231.81720346497605 438.0592264533043,231.48530007142108 438.6101948870346,231.11654927540803 439.49210555735044,230.6931307928171 440.17175756790675,230.47188770369394 441.3092877652962,229.9734866216313 442.17261533869896,229.586913323903 443.56829912180547,228.97788816614775 444.0828586667776,228.5722862148541 444.6702359893825,228.16664335713722 445.07481156277936,227.96442507015308 445.2503606614191,227.80528917588526 445.64439222053625,227.4481984677841 445.9745188978268,227.17107769369613 446.4518831218593,226.87605575146154 446.96562710776925,226.61792131356196 448.02958222234156,226.0882560997852 448.8556853476912,225.79327306407504 449.64532132982276,225.62677423015703 449.7098670080304,225.622349277779 450.7095385886496,225.55315910163336 450.71087843563873,225.55303842114517 451.42693933518603,225.57202549465 451.90430355921853,225.46144186076708 452.56531421875115,225.2580547328689 453.04267844266724,225.05579378805123 453.52004266681615,224.85244654590497 453.9423857778311,224.59430994919967 454.4933833387913,224.15181241510436 454.9529508978594,223.65452467522118 455.4117028978653,223.34055142535362 455.8712704569334,222.73267713724636 456.1099380053347,222.27118886756944 456.3486055538524,221.64428428496467 456.8259697778849,220.31677306984784 457.1568828871241,218.95240577188088 457.42147356446367,218.22275011852616 457.8616133405594,217.31978914997308 458.37620201241225,216.41577887360472 458.92717044625897,215.6604095621733 459.4781388799893,214.9586224120576 459.90051111835055,213.9998117305804 460.3042420053389,213.33716247050324 460.7637804374099,212.87678269069875 461.18615267565474,212.56279545434518 461.5534746738849,212.15712575567886 461.9750022259541,211.64086542610312 462.4709495466668,211.10670197737636 463.1319893334294,210.79271244403208 463.83022444089875,210.55354909872403 464.4362139876466,210.33228759322083 465.13369179028086,210.09203759831144 465.46457577252295,209.9266543838894 465.8869480106514,209.72325419675326 466.27285310591105,209.3544702329673 466.8974840035662,208.82034196611494 468.1086766651133,207.64028322097147 468.7332784355385,207.06809366273228 469.0269962241873,206.7362367771566 469.11842622596305,206.47804062138312 469.04560844798107,205.94390600413317 468.9533920142567,205.31695911480347 468.9744217885891,204.41403043986065 469.433173788595,203.32555517810397 469.52297267201357,203.2024496695376 469.7826991218608,202.84616749169072 470.0213666703785,202.164498772996 470.2600633458933,201.5554045845056 470.4801186703844,201.26039163663518 470.9396862293361,200.94747555989306 471.1644310186384,200.90539398929104 471.434847118333,200.8547432172345 472.27953334059566,200.50493477575947 473.08781067386735,200.22778313979506 474.59350755566265,199.67464561882662 475.53043933876324,199.34269812930143 476.57738422055263,199.04768248321488 477.512714012526,198.66101953928592 478.2271437938325,198.26542460895143 478.70692556805443,197.90446831233567 479.2562920106575,197.50995839585084 479.73362710757647,197.08527414867422 480.1924082346959,196.56898165674647 480.5597302329261,196.14542224642355 481.0370944569586,195.81355037802132 481.7167173406342,195.35201075905934 482.2676857743645,195.14972481154837 482.7450499981642,195.09380245342618 483.14878088538535,195.16758777789073 483.75479955913033,195.29721494030673 484.5816891164286,195.59227539156564 485.11404532624874,195.83141329535283 485.62784756626934,196.08958058193093 486.2524202099303,196.36669672688004 486.619771335274,196.40358919778373 487.07930976722855,196.31085511355195 487.7589617779013,196.07167745189508 488.4563813263085,195.81355037802132 489.79622843733523,195.15921954152873 490.6045348979533,194.7619291424635 492.2761106775142,193.72929290815955 492.97353022603784,193.3973774930928 493.61269555194303,193.17276102106553 493.7955555554945,193.14882283925544 494.6046484480612,193.04309248831123 496.27622422762215,192.89560098527 496.86360155034345,192.84080461022677 497.63465443556197,192.71117613161914 498.3321031111991,192.52679137000814 498.8102828942938,192.37925931980135 499.27777302765753,192.0976325768861 499.54492689075414,191.93670286232373 500.1509455644991,191.567932017555 500.95840733882505,191.12537407584023 501.0114186810097,191.0956421996234 504.04424999828916,189.39198752015363 505.01677511108574,188.8947087948909 506.55891000898555,188.0967271894333 508.707850012579,187.08309283223934 510.5258477797033,186.21582335763378 511.1132251023082,185.77325562480837 512.2330168889603,184.87138054607203 514.3819568925537,183.1558130318881 516.5122846720042,181.51402284065261 518.0681384392083,180.4125293121324 518.2566491023172,180.27907190780388 521.4145231074654,177.9276023262064 523.048874439206,176.61771554511506 524.3717404445633,175.40060404216638 525.6015744570177,174.31312482233625 527.6954642204801,172.6344187609502 528.3992917333962,172.17384081048658 529.384836664889,171.52906239510048 532.5799059910933,169.66589458985254 534.2142864499474,168.68907969922293 534.6916506737471,168.35596307116793 539.5582957796287,165.77414276258787 542.3407504499191,164.21061639051186 542.6433520072605,164.04061477968935 543.5066213263199,163.59800647507655 545.7105824428145,162.45458452729508 547.4549760001246,161.47657362773316 548.2810499983607,161.01609514449956 548.9056808960158,160.81265382969286 549.4930582186207,160.70204059040407 551.3119006720372,160.42484334943583 552.1015657813987,160.31418969517108 553.0829746631207,160.0671300807153 554.3127795484615,159.84582239430165 555.5062046720413,159.71734313014895 557.1413424356142,159.71734313014895 557.6373480107868,159.80896458541974 558.2151716409717,159.93482834636234 559.1616571164923,160.14092608983628 559.6576335645514,160.34436796949012 560.2086311255116,160.89763566543115 560.7409873352153,161.69007375254296 562.5225762134651,163.79359920835122 563.221626880113,164.72577083786018 564.433664227603,166.44030219729757 565.2233293369645,167.56467344315024 566.6133333334001,169.84128388704266 566.7662506666966,170.09175358514767 567.4086782293161,171.1613468088326 568.1255255610449,172.36057475639973 568.8779662222369,173.3564464643714 569.7234680036781,174.42489866295364 570.5859508906724,175.67887047166005 576.5473093404435,184.19855283253128 578.1630484481575,186.41139780409867 578.8981002242072,187.3004327469389 580.0336497777607,188.6734274799237 581.188219335163,189.18076488538645 582.0701300053624,189.32829888607375 583.8695446756901,189.43889903643867 585.8170124515891,189.66017965122592 586.9003953493666,189.82561695302138 589.1949417813448,190.34196406882256 590.885916216881,190.7576882755966 595.0082179984311,191.7713474688935 595.5228066702839,188.4531920212903 596.1838173297001,183.6028917420772 596.7348148907768,179.91474931518314 596.9209080036962,177.90414545312524 597.0430671076756,177.00445395789575 597.1781877760077,176.00525775534334 597.2811229868094,174.72815233992878 597.3432219875976,173.95772551069967 597.5082853263011,172.62995260360185 597.7655942258425,170.60142341337632 597.8756364516448,169.78998283256078 598.059282887145,169.03442768898094 598.0778951111715,168.57283697574167 598.041486222297,167.96482506091706 598.041486222297,166.9499394824379 598.2065495611168,166.28603470680537 598.444430677453,165.53163548692828 598.7753437866922,164.79397248878377 599.0059139983496,164.26751157740364 599.3173993245,163.71425158914644 599.9606424462982,162.46017751831096 600.5302522311686,161.46430118748685 600.7503075556597,160.76352369214874 601.0076164552011,160.04371171345701 601.2648962276289,159.4166458566906 601.577197112958,158.9193055074429 601.8582737351535,158.56830975716002 602.1832157867029,158.162549504661 602.7705931094242,157.51765326410532 603.6516882204451,156.7978316260269 604.8887748835841,155.75497370393714 605.277971342206,155.37938762584236 605.8184248887701,154.75013679120457 606.4624835698633,154.11187084380072 606.8985455502989,153.59774000028847 607.3613753458485,152.94389854732435 607.6930748871528,152.59623396175448 608.5029833386652,151.75121378881158 608.7060575574869,151.53215188678587 608.9552399930544,151.3600086880615 609.7020299948053,150.93749681097688 610.3404088889947,150.5305970563786 611.4003153351368,150.0455516956863 611.9763622115133,149.70126305957092 612.2878766650101,149.54473148152465 612.5063299982576,149.37375381443417 612.9513048748486,149.04286400141427 613.3478122383822,148.74778700538445 614.1423124481225,148.0435925286729 614.8429942330113,147.40200921607902 615.1427413334604,147.17461371858371 615.1585282275919,147.16270271135727 615.6682526720688,146.7760373040801 616.6334960071836,146.10318410000764 617.1480846792692,145.75888985214988 617.5841466595884,145.44590197259095 618.097948899609,145.1642205825774 618.580963783199,145.02337976469425 619.079357781331,144.93058574094903 620.0057455503847,144.7986781296786 620.6125797831919,144.81437183963135 621.1117893405026,144.8612920017331 621.7655473494669,144.95521277928492 622.8407746560406,145.28381449269364 623.5260773261543,145.47161544312257 624.352180451504,145.64372259256197 625.1296995555749,145.70633624587208 626.0027264568489,145.7689096427057 627.2957954276353,145.7689096427057 628.8693002241198,145.7689096427057 630.6136937814299,145.47161544312257 631.4081939912867,145.29942769074114 632.6897868800443,144.99545303283958 633.0118162204744,144.8612920017331 633.4017991112778,144.67353081790498 633.4996953315567,144.61985024693422 634.0919368818868,144.2599003832438 634.7456948906183,143.79041550221154 635.1356777814217,143.4148510855739 635.6955591113074,142.9610583942267 636.3185588906053,142.50722461094847 637.09767998592,141.92820100288372 637.7676035414916,141.56828737439355 638.7021469013998,141.2396403719904 639.2474355485756,141.11553748178994 639.4311111110728,141.08370693138568 639.6989348977804,141.03730916813947 640.2127080106875,141.0060419801739 641.1471931164851,141.20833296934143 642.4716611130862,141.47440552245826 643.3438433279516,141.59955448971596 644.2006755556213,141.7091302042827 645.2290373404976,141.803011965123 645.7606071182527,141.83987251768121 646.1319777850294,141.86558637174312 647.2476917760214,141.86224638769636 647.8083886649692,141.83097930636723 648.8052057885798,141.6901365474332 650.0673708942486,141.51794610300567 650.8465211164439,141.50233266095165 651.2817966650473,141.51794610300567 651.7802197904093,141.64317552931607 652.2947793351486,141.7996317393845 652.5593408853747,141.78401831537485 653.0731139982818,141.53364002564922 653.353870222345,141.43971791944932 653.6338108871132,141.2832212356734 653.8369142330484,141.04849614051636 654.0391728924587,140.65727372880792 654.1637495468603,140.359933005122 654.2260524374433,139.81221184402239 654.1637495468603,139.26444920140784 654.1330204444239,138.5602271137759 654.1168548978167,137.6235280772671 654.0545520071173,137.0601467489032 653.8838380088564,135.87076397205237 653.6006351076066,133.24831444583833 653.5229531023651,132.7017442060751 653.4137555627385,132.23223688889993 653.1833018596517,131.5233664388652 653.149194012396,131.41841399803525 652.9468770987587,130.76113220513798 652.8845742080593,130.33858434297144 652.8223004443571,130.04123093333328 652.8530295467936,129.47783194261137 652.9622562134173,128.8831226413604 653.0868911218131,128.53993068356067 653.3053153280634,128.0078775541624 653.725240888889,127.16277147090295 653.9906179982936,126.67759875854244 654.3490562277148,126.25617057608906 654.5666940019,125.94311721390113 654.7382235592231,125.58317979692947 654.9712404479505,125.03433859423967 655.2827257743338,124.29985205928097 655.4542844587704,123.83145525678992 655.6411640036386,123.23677231487818 655.7188460088801,122.75159172649728 655.7657406579237,122.48553881904809 655.6702911148313,121.59123509930214 655.637901767157,121.15410280955257 655.6063571058912,120.79528510483215 655.6225226524984,120.41968497890048 655.7641386667965,119.91663021582644 655.9817764408654,119.40017298521707 656.4647913244553,118.64892757200869 657.4769584356109,117.3197241522139 658.1307164444588,116.50585107912775 658.3465192106087,116.25423926772783 658.6137604551623,115.94242055597715 659.1129408853594,115.28509670175845 659.470563555602,114.87817720649764 659.8605464461725,114.53383850533282 660.1720317725558,114.33156544913072 660.7019995591836,114.04984781885287 662.040215552086,113.28293027594918 662.664030890679,112.93971617950592 662.9755162169458,112.73623442143435 663.1931539911311,112.47017049579881 663.4270155661507,112.12582836591173 663.7036939947866,111.61796709964983 664.9472468765453,109.33545580581995 665.0718817850575,108.92852629942354 665.2264011093648,108.36620501999278 665.3202777885599,107.81841139687458 665.4295044551836,107.41143909131642 665.5379155626288,106.92630724603077 665.8032635449199,106.2845343548106 666.0371251200559,105.86194372491445 666.4731871006079,105.28287262230879 666.6601248997031,105.06372837990057 666.9093073351542,104.8289681294118 667.267716437229,104.35940669744741 667.5476862294599,104.07880436762935 667.8907162169926,103.57796945178416 668.3114573369967,103.1553740921081 668.6690508800093,102.82667488587322 668.7889671964804,102.72525175183546 668.965215345961,102.57625626097433 669.3543535502395,102.34258027398027 669.8220184462843,102.12347361457068 670.4757764551323,101.84174176235683 670.7718826667406,101.63825066603022 671.0987471075496,101.32524592988193 671.3325795556884,101.15302674373379 671.6756095433375,100.68349842168391 671.8471682275413,100.33917975594522 671.924850233132,100.02609284280334 671.9402293476742,99.7757115655113 671.8625473423162,99.41682189150015 671.5510328889359,98.68117085355334 671.2080029014032,98.02380007918691 670.1772235662211,94.36904679553118 670.0056648817845,93.94643534231 669.8187853370328,93.71162405010546 669.4449971200665,93.41422560153296 668.4942882134346,92.77249734743964 667.559803107637,92.11511051031994 667.1390911147464,91.75504224270117 666.935113955522,91.49567684030626 666.9052586668404,91.45768163708271 666.5160913352156,90.73766335542314 666.2353351111524,90.11267174209934 665.7992440034868,89.519032861921 665.1382333440706,89.30434202984907 664.7951451024273,89.08631029434036 664.1632615538547,88.52394287259085 663.877670229529,87.99622916756198 663.7036939947866,87.77429202472558 663.6349540124647,87.68654750514543 663.1519100017613,87.29073077638168 662.7762576497626,86.91395161038963 662.7004106525565,86.83791950793238 661.8339082241291,86.27554685715586 661.3646122098435,86.05755264073377 661.0757877760334,85.7489552483894 660.8994231183315,85.41572436247952 660.8055755662499,84.86119720421266 660.8354891093913,84.40946814534254 660.9018406686373,84.2093434095732 661.0943999999436,83.77331080439035 661.4730524444021,83.06558631139342 662.5305413405877,81.16486707911827 663.1697066667257,80.21224780229386 663.4552979911678,79.90251591964625 663.7036939947866,79.77765702892793 663.7643657671288,79.74710643955041 664.3817148871021,79.6587552400888 666.1673815608956,79.30434384016553 666.1894307840848,79.29919168888591 666.740224455134,79.17131364630768 667.4020506738452,78.94993192091351 668.0412159999833,78.72854999272386 668.967632896034,78.30816527880961 669.7330059948144,77.93918088945793 670.0420737707755,77.74013758765068 670.6642871183576,77.28956251894124 671.1052424533991,76.78078280080808 672.6926408817526,74.9203063317691 673.2436384427128,74.16779566503828 674.301127338782,72.99380189442309 676.1255913245259,70.80785426130751 676.5665466596838,70.29910115682287 677.2502182116732,69.7232456113561 678.1758486756589,69.1910630579805 679.1896177779417,68.43853456026409 680.6006806755904,67.35282844654284 681.2398460017284,66.88878943602322 682.0999113387661,66.44600329047535 683.2681997653563,66.04793785326183 683.5138869476505,66.01617792720208 683.951084885397,65.95958164805779 684.656601770781,66.04793785326183 685.1630931060063,66.2469907803461 685.9568068835652,66.84406807203777 686.580622222391,67.35842363734264 687.9034882276319,68.30992621945916 687.976306005381,68.36527410522103 688.8072442312259,68.99648062628694 689.4909157833317,69.5723379025003 690.1421979876468,70.35054407815915 690.6373588764109,71.01245812349953 690.7911208961159,71.32220139430137 690.9901464462746,71.94277356064413 691.2102017707657,72.34078904072521 691.4747924481053,73.27109936700435 691.8939024498686,74.35677890648367 692.2466608925024,75.75219116709195 692.6430808746954,76.61534865864087 692.9522069049999,77.14642807992641 693.3486560143065,77.72226594644599 693.7232597903349,78.12143920303788 694.1860313316574,78.3870981594664 694.7596606579609,78.71957395749632 695.3325035519665,78.94095589377685 696.3907788799843,79.20596993068466 697.3390411094297,79.18471729703015 697.8673777779331,79.00696792290546 698.3083331129747,78.71957395749632 698.6028664605692,78.45906753570307 698.8892442170763,78.05993508786196 699.0802015573718,77.72226594644599 699.2565662153065,77.21352739009308 699.388453774387,76.90379166632192 699.6093537849374,76.63772856380092 699.8512544427067,76.48227673367364 700.3804066702724,76.30561216833303 700.8658682311652,76.12786067777779 701.5050335573032,75.92881588486489 701.9977768961107,75.80133857746841 702.2623384463368,75.6247137664468 702.461393123609,75.22553638805402 702.7251099876594,74.64969257556368 703.1660944498144,74.2069206420565 703.9597791004926,73.89722131879535 704.9954517902806,73.60873447236372 705.7672911074478,73.47570114489645 706.2300917761168,73.49808134062914 706.6492017779965,73.5863945389865 707.4866353493417,73.94085457228357 707.9436688497663,74.10665281262482 708.038419342367,74.14098780683707 708.8539784534369,74.2952738336171 709.7569188979687,74.31765395362163 710.1315226737643,74.25164064421551 710.5287582152523,74.0079145199852 711.2561495609116,73.38734765397385 712.0935540053761,72.65608542587142 712.2488888889784,72.5342014640919 712.60083177255,72.25807046482805 713.1202846718952,72.0310470747063 713.6712822329719,71.96511364588514 714.2441251272103,72.05342740420019 714.7295575608732,72.23126239480916 715.5661464462755,72.58455709769623 716.2943242241163,72.98369858390652 717.1754193352535,73.22746599267703 717.8372455537319,73.31581954227295 718.4327493404271,73.40413280704524 719.1382662258111,73.44885295763379 719.5128700018395,73.47123315586941 719.8656575717032,73.3604994569323 720.5266682312358,73.24984621157637 721.6731113245478,72.93897834717063 721.9587317762198,72.96135859267088 722.2678286791779,73.22746599267703 723.0615133298561,74.46743164525833 723.3697655466385,75.08803599106614 723.7007077832241,75.86284326715395 724.0316208925797,76.96976399986306 724.3617184427567,78.2320902189822 724.5826184534235,79.16233762755292 724.8026737777982,79.80526928434847 725.0235737885814,80.31400238769129 725.5745713494252,81.22186230804073 727.0567917795852,83.37865493446589 727.7841539982473,84.44082315225387 728.2032640000107,85.23797956871567 728.5115162171423,85.87972781865392 728.9088100126246,87.0089816423133 729.2389075626852,87.9615741429734 729.3934268872254,88.4926688944106 729.5253144463059,89.047187724791 729.6135113387136,90.04332204500679 729.6313953850185,90.14104755554581 729.8562566826586,91.37154842086602 729.8705580943497,91.49567684030626 729.9225791146746,91.94739266164834 730.2971828908194,92.83395747159375 730.6718157937285,94.02910625044024 730.9808544428088,95.2030381449149 731.267261326313,95.95548335183412 731.576329102274,96.46526918339077 731.8627651128918,96.81969568016939 732.3433333191788,97.32726603973424 732.894330880139,97.90305585000897 733.1588924302487,98.25743999163387 733.1786697388161,98.28517088090302 733.9348386701895,99.34413429163396 734.6363068872597,100.27208686235826 734.8563913387479,100.62650777975796 735.1873044481035,100.93504593893886 736.024708892568,101.6662226523622 736.5214717725758,102.05239672400057 737.1930264463881,102.57400241179857 738.1186277831439,103.1721169318771 739.1987484445563,103.99158897600137 740.235207566293,104.74400683736894 741.0507666773628,105.4304578062729 742.3954488890013,106.67025833862135 743.2773595592007,107.57914621511009 743.5419211093104,107.95476628438337 743.8501733263256,108.39747642813018 744.7992511147168,109.42045573092764 745.5484586666571,110.21752980659949 747.3996322134044,111.67865776456892 748.1715297847986,112.16607408196433 748.9652144355932,112.69711567781633 749.7807735466631,113.2728286483325 750.9709364338778,113.95925540832104 751.6246944428422,114.26556306245038 752.0964080072008,114.46904353366699 750.8989342151908,119.17882808548165 750.7492499911459,119.76680018292973 750.5024851057678,121.00656746514142 750.3228873386979,122.02160559489857 750.1205995520577,122.98971506825183 750.0089553351281,123.77893712936202 749.9702745315153,125.03433859423967 749.9644491093932,125.2221150250989 749.9417882169364,126.12421253643697 749.9644491093932,126.95817486842861 749.9644491093932,127.408697645762 749.9417882169364,127.70154706167523 749.8519893334014,128.1296933160047 749.8147648854647,129.05753544089384 749.7702877866104,129.44096950581297 749.7249660019297,129.75619145086966 749.5825635555666,130.40679569065105 749.2459997866536,131.08307293790858 748.9393495609984,131.46984391915612 747.0347568925936,133.43837830319535 746.6504246614641,133.83633282384835 745.6406751003815,134.76077273249393 745.1018526720582,135.16653200314613 744.2717008782784,135.7757531387033 743.4181600144366,136.54147259297315 742.8792793317698,136.9472691178089 742.6325144463917,137.21773268695688 742.0717884302139,138.029282545147 741.8703744568629,138.50211863958975 741.8032073386712,138.75028679682873 741.8032073386712,139.2007876089192 741.9148806827143,140.28279095503967 742.1397711075842,141.4106640300015 742.162432000041,141.72587037517224 742.0273113317089,142.24453341338085 741.7805173192173,142.74086179368896 741.0394362311345,143.91226355585968 740.658337109373,144.83666495379293 740.2537906630896,145.69406300532864 740.1794582756702,145.88608884776477 739.88405111467,146.64859733666526 739.3678604516899,147.79881404835032 738.9188077796716,149.06081085203914 738.7173355519772,149.73703594319522 738.6275366684422,150.50271119963145 738.5830595699372,151.26834379293723 738.6946746596368,152.05751382315066 739.6461699983338,155.4710912014125 739.8703031182522,156.3272444063332 740.1842059947085,157.27397080278024 740.4989244302269,158.13015786453616 740.6979791074991,158.56830975716002 740.7578644481255,158.7001696212683 742.766003996483,163.2705160456244 743.2822237868095,164.51006035722094 743.8210462151328,166.31287258974044 744.3372660054592,168.04751090839272 744.869622215163,170.68966092448682 745.0718808746897,171.97503599215997 745.206244238303,172.74064085975988 745.4311346630566,173.93535460933344 745.8801873353077,175.42297480802517 746.2167802311014,176.5953851248487 746.4408550970256,177.47496071865316 746.6431720107794,178.24050794524373 746.9570748872356,179.07429060840514 747.2491615574108,179.84099957282888 747.3425139485626,180.0518682526308 747.7880131129641,181.05804850079585 747.8511315627256,181.3274166630581 748.8649297920056,183.13235666573746 749.560718222172,184.64112344622845 750.1214151111199,185.6782241568435 750.5421271040104,186.58906826068414 751.0356860018801,188.0766106483061 751.484738673782,189.2936583776027 751.9337622185703,190.6235928555834 752.1360208783299,191.16448013746412 752.5722867485601,192.0976325768861 752.6522406684235,192.26862028136384 753.8569962382317,194.8077533543692 754.4629857848631,196.02472698997008 755.4530454187188,198.0591179552721 755.6523331128992,198.4587363585597 755.9670515484177,198.8867573918542 756.5050875449087,199.27008078357903 759.874133105739,201.4727301891544 760.3053599857958,201.7543460188317 760.7940837830538,202.09787665650947 761.2034653298324,202.38576774846297 761.6751788943075,202.7914136010222 762.8645262222271,204.03071519813966 763.8969366756501,205.0901008149376 765.063623111113,206.28473527915776 765.669641784858,206.9608004267211 766.5041917725466,207.99374225491192 767.0167706737993,208.62816492596176 767.5103004445555,209.5981002387125 767.8250480073038,210.25182881375076 768.2061180019518,211.35592207935406 768.6106353210052,212.3471276242053 768.8800902257208,212.91033364087343 769.2611602203688,213.49695154262008 769.6883384321118,213.96968037757324 770.7434097778751,215.14190390711883 772.057362887077,216.92873029527254 772.2822824392933,217.62709233665373 772.5962144428631,218.55125232430873 772.7531804445898,219.2954694844084 772.820318435668,219.99382469442207 772.8883011129219,220.89564931055065 772.9101464464329,222.0901655087946 772.9101464464329,223.35177481954452 772.9701774222776,225.622349277779 772.9781291236868,225.92067134549143 772.9336228978354,227.9711428876035 772.9562546630623,228.8046737294062 772.9336228978354,229.45726430544164 772.8664557796437,230.31428204872645 772.753996003652,230.83279541693628 772.3729260091204,232.02726255863672 772.1932699875906,232.770311952685 772.058178446372,233.42397792305565 771.9238733369857,234.21288000262575 771.7377802239498,238.0141516433796 771.6932739983313,239.0957131315372 771.7151193316095,240.17618372605648 771.7830728819827,241.03316350572277 771.8462204587413,241.87911883671768 771.8502400001744,241.93378343438962 771.8947462257929,242.65556413220474 771.8947462257929,243.28571264015045 771.8275791076012,244.27791365754092 771.7151193316095,244.97623699187534 771.4910153385717,245.87796850246377 771.2215895609697,246.5986111817183 770.6827380055329,248.06342062278418 769.9642886827933,249.48236712435028 769.0224926720839,250.9237093142583 768.6858997760573,251.57728602556745 768.3493360072607,252.34376527142012 768.1915544463554,252.92924180038972 767.4205015610205,256.5011569237686 767.2190293334424,257.8765343140112 767.1963684409857,258.39490818296326 767.1065695574507,259.07090819173027 767.1038024817826,259.14238139707595 767.0839086648775,259.6562880030251 767.1510757830692,260.1747385018971 767.5329322097823,262.7209216677584 768.0265202347655,267.33841210085666 768.0265202347655,267.92385235388065 767.9933444551425,268.4567642410402 767.9035164446104,268.9527935490478 767.8023871147307,269.5694804781233 767.5611855076859,270.40934336860664 767.4205015610205,270.8989738035598 767.3533344428288,271.1458800518885 767.0742093370063,272.196083452669 766.8946115699364,273.3222156143747 766.8719215502497,274.1109474162222 766.8112497779075,276.1263021470513 766.7755690667545,276.7653724133852 766.7214508942561,277.736160757544 766.6890906738117,278.30705713061616 766.5547855645418,279.9950846574502 766.4876184463501,281.4596919688047 766.62192355562,283.5778209284763 766.6672453405336,284.81670884846244 766.7117515663849,285.53723558521597 766.8241822151467,286.10139735328266 767.0709762275219,286.59630464797374 767.2950802204432,286.8900875097024 767.9010988943046,287.67656318709487 768.6195482170442,288.93891645700205 768.8671577884816,289.50194424175425 769.0240946630947,290.3800236741081 769.1139226738596,291.21446563105565 769.1139226738596,292.6577711626305 769.1139226738596,293.0386939657037 769.1899735609768,296.16210160555784 769.3687848960981,297.7651110731531 769.839653774281,299.3413270096644 770.1543722097995,301.0761379346368 770.3340282310965,302.08929490018636 770.6034540090477,303.7559236548841 770.7150982257444,304.58927394240163 770.7377591183176,305.0628704217379 770.7377591183176,305.7610585996299 770.7150982257444,306.0771768905688 770.6252993422095,306.459204550134 770.2887064464157,307.4957833002554 770.2668611129047,307.8096876005293 770.3558444374939,308.2151969856932 770.6252993422095,309.4092822590028 770.8502188943094,310.3330516029382 770.8947251201607,310.67148197599454 770.9400177777279,311.0993045804207 770.8430827521952,311.8762114465935 770.827558001969,312.0007495462196 770.805712668458,313.35232762247324 770.7838673351798,314.7698458827799 770.905210880097,316.47326149989385 770.9667273386149,317.26740189950215 770.8809771236265,318.60222263191827 770.5856573440833,319.3930587240611 770.4634691129904,320.603816657851 770.4998488747515,322.1832615864114 770.5985897814389,323.30803530151024 770.4262446649373,324.51881386415334 770.2790071183117,325.7496512622456 770.3243871573359,326.16856077930424 770.4383906702278,327.2195709266816 770.5241408853326,328.1455240539508 770.5985897814389,329.84997141640633 770.475615118281,331.8760804630583 770.0216982186539,334.1110574238701 769.579140892718,336.0834524856764 769.4432046648581,338.0481115108123 769.4067957760999,339.30682464822894 769.5046919964952,340.54213033482665 769.4561662293272,342.0499160588952 769.2344797867117,343.4046635744744 769.1640504320385,343.96869048837107 769.0993299911497,344.4913832045859 769.5419164445484,345.2452649422339 769.8987235556124,346.35545707010897 770.0823699912289,347.9000357656623 770.2183062186232,350.5189940627897 770.1487506773556,352.1808667817968 770.1204099983443,352.86102754063904 769.8380517830374,354.2436171567533 770.0225429048296,356.0841763258795 770.6244837830309,358.14801917941077 771.1032169813989,359.67467181483516 771.472403114778,360.85173806454986 772.2353586631361,363.0216386867687 772.8866991219111,364.5661914665252 773.2426906737965,365.18263485463103 774.0396084338427,366.07495327678043 774.5056422116468,366.43565884878626 774.7467564374674,366.8935354442219 774.639160888968,367.70206403546035 774.4514366576914,368.32183629943756 774.3980466631474,369.2655225591152 774.4374556445982,370.3030787019525 774.4522813439835,370.6938094216166 774.6675015682122,372.52640406560386 775.0696013369597,374.1434209282743 775.2572964410065,375.4108712534071 775.2572964410065,376.97427999967476 775.3107155627804,377.53935435879976 775.5781898240093,378.70676582778106 775.6869504569331,379.18311182945035 776.3301644516177,380.3422741405666 776.974194005481,381.17757188971154 777.55915377778,381.982716112223 777.9135142116575,382.47183951811166 778.1546284374781,383.3070897202706 778.3698486613575,384.81686036568135 778.2889626738615,386.3243703893968 778.0745288819307,387.9960071303649 777.9143588978332,390.03835263993824 778.1020540018799,391.7892768449965 778.1020540018799,392.35540200799005 778.5102413370041,393.1761464768788 778.6384880072437,393.4340631533996 778.7727931165136,394.24254332395503 778.7841235628584,394.47481203859206 778.852892672061,395.8326027296134 778.9871977813309,397.1803764208453 779.0139073422179,398.1496368529042 778.852892672061,398.6342254158808 778.4507637759671,399.2003747742274 777.9143588978332,399.52412928669946 777.2444353421452,399.79325441800756 776.2249864534242,400.38621300575323 775.1246224498609,401.1410060651833 774.6148980055004,401.6267543724389 774.0420842382591,402.2587402432109 773.6010997759877,402.6584638222703 773.1795722240349,403.1341597479768 772.8729219983798,403.6678593966062 772.2620682240231,404.16919914161554 771.520928881946,404.52542628662195 770.7798477938632,404.8983346874011 769.9739880108973,405.25339504680596 769.5710435556248,405.62638272048207 769.2975691093598,406.35438836802496 769.0863975537941,407.0287694282597 768.8461280142656,407.794756628864 768.314529109397,408.6857925327495 767.9763342222432,409.3155089869397 767.8638744463678,410.20541380217765 767.6381393352058,411.0472810866195 766.9948962134076,412.4820744146127 766.7926375538809,413.07829798047896 766.5798640073044,413.4501481243642 766.5013664427679,414.2261236963095 766.4115675592329,415.2957640616223 766.1429573405767,416.10521632246673 765.8290253370069,416.9716624718858 765.5935908978572,417.2642019034829 764.9665424497798,417.69187639129814 764.3281635555904,418.289172391349 763.8912568888627,418.8965959920315 763.1331655681133,420.601489879773 763.1324082632782,420.6026153245475 762.326490225736,421.8173690084368 761.6872957724845,422.5374881288735 761.0044106525602,423.0890715596033 760.7940837830538,423.1964700089884 760.3879062186461,423.4039112655446 758.1467497814447,424.04588877712376 757.4525342151755,424.30385296524037 756.073860664852,425.373408626765 755.3230511219008,425.96964064927306 754.5883779983269,426.65622609027196 754.5678142578108,426.67302695068065 754.1061786737991,427.0492774930317 753.5754244553391,427.3786620356841 753.4338375681546,427.4657207673881 752.3472215610091,427.8821231322363 751.0810077866772,428.34884663071716 749.837454905035,428.8222412826144 749.0865871075075,429.20407531649107 748.615689102211,429.83486382174306 748.5938437690493,430.8363085417077 748.4927144391695,431.63574109214824 747.8317037796369,432.76113186439034 747.3956126719713,433.3238252894371 746.7119411200983,434.0550836342736 745.7070266596274,434.78079326153966 745.5727215502411,435.0509644005797 745.2919944535242,436.4922873672331 744.8550877867965,437.3251809174544 744.2498846719973,437.79626710287994 742.6931862187339,438.52755213552155 742.1438197760144,439.0009268920985 741.6963982221205,440.9814705394092 741.5620931128506,441.9036126949359 741.292667335365,443.31141604471486 741.1696926719742,444.8129755129339 741.1470317796338,445.7585742038209 741.1143511610571,445.8110225102282 740.6769493333995,446.5121005413821 739.7918055538321,446.2654132610187 739.1421253405279,446.1972908737953 738.3799562241184,446.31002437131247 737.1954439964611,446.89503200980835 736.5465793423355,447.5146820053924 736.5214717725758,447.53027571947314 735.9526775466511,447.88527358230203 735.4591477760114,447.96452810027404 734.5966648890171,447.8517953728442 733.431580444565,447.7166767906747 732.4914446790935,447.85517132707173 731.5156573299319,447.9980062940158 729.7227380054537,448.14429750671843 728.8181664427975,448.188948460971 727.755026887171,448.0884737549932 726.4216751218773,447.8517953728442 725.1101104356349,447.44655996985966 724.6513584356289,447.1652298257686 723.2508395520272,445.4883748185821 721.5250582187437,442.75429215066833 721.0355771164177,442.0174735360197 720.7888122312725,441.75848325015977 720.4530348944245,441.61222837114474 719.9036393245915,441.47714649891714 719.6010377672501,441.56753601366654 719.3882933476707,442.028686796315 719.2984362099087,443.33488740271423 719.3656033281004,444.1219000102137 719.6350582330488,446.2085039408412 720.2847093191231,449.089843002148 720.4530348944245,450.1135936923092 720.4530348944245,450.9963154630386 720.4530348944245,451.160730276315 719.243444224121,452.0270510224509 718.279832007247,452.5617682331358 718.2126648890553,454.4964259247645 717.9432682382176,457.33197223750176 717.6301226667129,458.682739337557 717.5216824320378,458.76199032273144 716.8461373442551,459.2565448191017 715.6025553352665,459.38044450752204 714.4601317831548,459.56016525329323 714.0450704498217,459.8414810009417 714.1461997797014,460.07814766746014 714.5195802169619,460.1652348341304 714.7732482276624,460.2243913965067 715.4909111182205,460.20096186286537 716.2702069759835,460.1652348341304 716.4650382222608,460.1562729352154 716.5817214293638,460.1652348341304 717.0483960036654,460.20096186286537 717.3509975608904,460.335993105371 717.6754444516264,460.7021845957497 717.7312519964762,461.5237825408112 717.7539128890494,462.16453376825666 717.7652433352778,463.17818235157756 718.0338535538176,464.3592465890688 718.0225231074728,465.0346315803472 717.957802666584,465.45213478436926 717.7652433352778,466.68784199480433 717.2943453298649,467.4413835982559 717.0030742187519,468.20713956968393 717.07024133706,469.3379061494488 716.712618666701,470.70986476750113 716.4658537815558,471.71226570627186 716.4771842276677,472.44344834814547 716.6122757690027,473.7483597501414 716.5556526649743,475.0655206743395 716.1745826703263,476.0110012702062 715.5248733299086,476.59593717975076 714.6737208890263,476.8258765619248 714.0571873281151,477.0513953662012 713.7545857707737,477.37729618989397 713.5766191218281,478.3439853754826 713.32985423645,479.0639364544768 712.9600564338034,479.55957467341796 712.2796471181791,480.05404652515426 712.2488888889784,480.0626862111967 711.1930311110336,480.3588062436902 710.9915880108019,480.5943276991602 710.9349066526629,481.3600420926232 710.6436355414335,482.170438940404 710.1509504569694,482.5075442637899 709.658207118162,482.4852018584497 708.8078411092283,482.18719576648436 708.7277706809109,482.159267722629 708.2131820089417,482.1023668347043 707.8320828871801,482.25972829706734 707.1597417815356,482.879287830845 705.4565922134789,484.3192010753555 704.1539695503889,485.0413846865995 703.496221127105,485.4052483603009 702.335156224086,485.65197615046054 701.6514846719801,485.7534800511785 700.9346082134871,486.32726159424055 700.9119764480274,486.9121324105072 700.8674702222925,487.63322334206896 700.519576007151,487.9814920135541 699.937033784925,487.925637258566 699.2428182186559,487.50929792033276 698.5364857743261,486.9020865478087 697.6400406756438,486.03589052177267 697.0461680071894,485.74347432423383 696.4757426631404,485.72113221726613 695.870539548574,486.1263437772868 695.3106582188047,486.8574829127756 694.7499613298569,488.196914440603 694.6941537848907,490.1435433322331 694.6941537848907,491.6158006331534 694.2167895608582,493.12931633385597 694.203332835692,493.65281231561676 694.1827982224058,494.45645761466585 694.3171033316758,495.50344271142967 694.9562977849273,497.246854123543 694.9765119999647,498.65546094754245 694.9894735644339,499.5874690901255 695.0873406579485,500.1198311751359 695.180401777965,500.62322146451334 695.6812424534,502.0563592113904 696.7451684408588,503.58660521311685 697.4847057920415,504.632385618228 698.3140128996456,505.9605889339582 698.9871404373553,507.25414974516025 699.5583813405829,508.5131489666528 700.600461994647,511.32013838912826 701.0041928818682,512.1862038383842 701.5641033388674,513.0076673710137 701.9791355449706,513.417293168779 702.1684908943716,513.6047685605008 702.2477748907404,513.6828765675891 702.4363146808464,513.7789043815574 702.8642793245381,513.9976387241622 703.4160924444441,514.2620964771486 703.6151471218327,514.3581240614876 704.5326219946146,514.6058670173516 704.6499459982151,514.6204117630259 705.2162935467204,514.6884747321601 705.2333037797362,514.6895997398533 705.4703693370102,514.7186088624294 706.1799348908244,514.7096891602268 706.4906337849097,514.7051891302108 707.8345295644831,514.3346997629851 708.4971713423729,514.0489472472691 709.5829426632263,513.5801789974794 711.3742891235743,512.5009277601494 712.2488888889784,511.83021535287844 713.2238315519644,511.0823967543547 715.5499517725548,508.70958825648995 716.751474232995,507.3769400254823 717.9367728926009,506.06103963882197 719.4594508800656,503.8890450328472 720.4117617779411,502.34771101613296 722.2152251164662,499.6588713336387 724.6659511182224,495.6697560544126 725.82285084459,493.65281231561676 726.0988593493821,493.17174896399956 727.2194375680992,491.69841618742794 728.3731915663229,490.4560456504114 729.9080155591946,489.13896840723464 733.3215382187627,486.3942475573276 735.8531793352449,484.48102150525665 736.5214717725758,484.0369091552566 737.8362404409563,483.16387159202714 739.311208220548,482.20616272400366 739.589546894189,482.0253336200258 740.0628624499077,481.7183658608119 740.5944322275463,481.4393258430646 741.1292351146694,481.15912015590584 742.2919020090485,480.54859773634234 742.8420548837166,480.3476751266862 743.7013337885728,480.0328692466719 743.9505162241403,479.9413287313073 744.2191264427966,479.87992664566264 746.6569200071972,479.3195917091798 747.0873313281918,479.22025508777006 748.6149026702624,479.14655628980836 748.7192651093937,479.14213596854825 750.6918404552853,479.13317477161763 751.2290608925978,479.1309244261356 752.5179355591536,479.29949935368495 755.4088013370056,480.0987317819963 756.6296933264239,480.4581423982163 759.8976095573744,481.3924708775594 760.7940837830538,481.6537494797958 762.5327975538094,482.16039288119646 764.4463031182531,482.71959609061014 766.6017093405826,483.2877992365393 769.7417575538857,484.1149061442702 772.4610937741818,484.7287950158934 772.8794173439965,484.8237091609044 774.0461037796922,485.1328830909915 774.6731522275368,485.2601449774229 775.5048768853303,485.3952024350874 777.6230877867201,485.52917485823855 778.8035513457144,485.52917485823855 781.2453353244346,485.5559371871059 782.386739427573,485.5559371871059 783.1499571200693,485.5559371871059 783.9816817777464,485.52917485823855 784.7592300090473,485.4220049625146 785.0666666666511,485.37912895414047 785.5367491130019,485.3137098752195 786.341793337022,485.12508744426304 787.8175766756758,484.72103954013437 788.568386218627,484.3705158843077 789.513415338588,483.8045655799215 790.7205593315884,483.05228039983194 792.4366122098872,481.8657216854044 793.7247004444944,481.1122249518521 795.2805833386956,480.4916161011788 796.1123079966055,480.24938372528413 797.48049578676,480.00715110707097 798.6075110968668,479.98038816527696 799.3672917903168,480.0440405626432 799.572754432098,480.0607573511079 800.8891542187193,480.114323398564 801.5841562169371,480.1422516782186 803.6303357725265,480.4269190238556 804.2937931094784,480.5195443374105 806.5745915449224,481.0575741456123 808.6134893227136,481.5966877359315 809.3392495503649,481.87866102537373 810.6248911076691,482.37803061609156 812.5027742150705,483.34807530557737 813.1196281743469,483.7045878539793 813.7156271219719,484.0490447007469 816.881569336867,485.9343063721317 818.7659477903508,486.84514659055276 819.0005375432083,486.95898630830925 819.5377871076344,487.1744498281041 820.2352066560416,487.3351833994384 821.816983552184,487.4434373997501 825.7070840036031,487.1744498281041 829.0340700160014,486.95898630830925 830.7500937670702,486.93113918142626 831.1433388942387,487.0070055166725 831.8771673315205,487.14764749468304 832.0681246721651,487.23026457289234 832.8157011058647,487.5517315349425 833.5997155557852,488.11654795409413 833.6118615609594,488.1287234785268 834.4848593351198,489.00616329041077 835.3975282348692,490.515194815991 835.7729184427299,491.4037164107431 835.770500892424,491.4695758546586 835.7462088818429,492.1850276601617 835.4775986631867,492.77776009985246 834.7362554311985,493.65281231561676 834.5868042240618,493.8292126870947 833.6118615609594,495.4364994491916 833.5414613332832,495.5525451404392 833.21701444278,496.4611391937942 833.1660419983091,496.6028204112081 833.0584464496933,497.5460471411934 833.0851560108131,498.1118849806953 833.1612068978138,498.48404660006054 833.3594168889103,499.4535446226946 833.6118615609594,500.26653290732065 833.72915643733,500.6444371242542 835.5860388977453,504.2473354798276 836.9752273351187,506.77982348698424 839.2883859912399,510.0924134890083 841.9171077689389,512.9205991990166 842.1986795520643,513.1762187271961 844.4123399965465,515.1840400725487 845.6478246685583,516.1226542812074 846.3978477796772,516.6929085503216 848.1406102187466,517.6884898140561 850.5824524515774,518.9273055674275 852.1115966578946,519.7085280594183 854.794553116546,520.9697125207167 853.869767338736,522.5611499985098 853.6003415610176,523.0243162055849 853.1043359859614,523.8792107010959 852.1358886685921,525.1570469528087 851.5759782115929,525.8981125545688 850.9052682240726,527.0029770935071 850.8210326186381,527.135801560129 850.1536431218265,528.1881898156716 848.8388744533295,529.6155800048145 848.243865827797,530.1453450074769 846.7206635520561,531.5016120604705 844.7084753351519,533.7358323416556 843.6623168853112,535.0292850458645 843.2593724303879,535.6965986810974 842.91147821513,536.3483626569505 842.6971026775427,537.4263827726245 842.7504635449732,538.0669332803227 842.91147821513,538.7410281004268 842.938187776017,539.4953901678091 842.7771731058601,539.9518550126813 842.5627975679236,540.3826072664233 842.2674777886132,540.597942931694 841.3038364445092,541.1280454935622 840.389565553749,541.6213471692172 839.6921168783447,541.8913590057055 838.9946973298211,542.2685555163189 838.405688888859,542.6993438258651 837.8150784568861,543.3186684728717 837.5992756907362,543.5759030696936 836.9566442384385,544.3419808716862 836.0714713315247,545.0964058499085 835.4541513386648,545.1231615997967 834.5957171199843,545.2581455176114 834.0592539877398,545.4199654249824 834.2469782186672,546.1475912394235 834.7033126686001,546.658679576125 835.0245264497353,547.1708916914067 835.2664271077374,548.3013299553422 835.3465266631683,549.6750510078273 835.2397175468504,550.3211130020209 835.1855119931279,550.9137032345752 835.2607764480636,551.3165561018977 835.3473422223469,551.7751680045039 835.6159524410032,552.6377545432188 835.5083568923874,553.4457035312662 835.2575433386955,554.157597878715 835.0253420090303,554.8193150761072 834.6232131130528,555.7623152013402 834.5965035521658,556.1918743637507 834.8918233315926,556.7308609685861 835.32063266146,557.5331722662086 835.4573553210357,558.0241909333272 835.5083568923874,558.2060881303041 835.6960519964341,559.0686517778086 835.7235771164997,559.9300875573535 835.9753518649377,560.6141241960577 835.9913717759773,560.6576296322746 836.2600111218635,561.4923058240092 836.5820113351801,562.1115824419539 836.8231255610008,563.0544738487806 837.3870555593167,565.9356287050759 837.5755662223091,566.6631527502323 838.085290666786,567.9285115482635 838.8895193315111,568.7910807602457 839.3191442205571,569.1681952319923 839.5877835663268,569.6524819800397 839.6945926827611,570.083221611334 839.6144640001003,570.5685509398463 839.2657542258967,571.0528348895023 838.6217246721499,571.5382024454884 838.4938857813831,571.8138046615059 838.2463053369429,572.3460884210072 837.7929709795862,573.2219780640444 837.3940751930932,573.9920995594002 837.0925513387192,574.5743486689753 836.3142166757025,575.6254463652731 835.4775986631867,576.6218299103784 835.1555984497536,577.1061017636675 834.9411937849363,578.0757271124166 834.512384455069,578.9649720541202 833.8683257742086,579.6913322798791 833.6118615609594,579.9490906224819 833.3586304568453,580.2035147483111 833.1167006721953,580.5538596263505 832.7679617706453,581.5234711810481 832.2849760141689,582.950547239685 831.802718435647,584.0808186128852 831.3205191112356,584.7267888895003 831.0785893262364,585.1307102321298 830.5688940089894,585.6428410382359 829.5494451201521,586.1817621458904 828.0202426596079,586.7474332100246 827.2419371235883,587.0163102663937 826.4910984532908,587.2316848308546 825.8737493333174,587.3666854628245 825.2030393457972,587.7973936111666 824.6131862186594,588.3362697613775 823.9699722240912,588.5783941055415 822.8971042133635,588.7133939873311 822.1988982330076,588.6587272783509 821.360678229481,588.674352077418 820.7239304532995,588.6866028830409 819.1947279931046,588.8740602168837 817.6922933476744,588.8751848799875 816.6994957653806,588.9566024509841 814.7674071040237,589.3605167442001 813.5877882312052,589.5758490590961 812.622544895974,589.8179721647757 812.4073246720945,590.4103854922578 812.1875606186222,590.8727793756989 811.8441811058437,591.595288135286 811.3878757831408,592.3752320762724 810.5294415644603,593.8568696219008 810.4620414293604,594.0878223920008 810.2559379911982,594.7940545151359 810.014066460426,595.4132862088154 809.7996326684952,596.113931486907 809.879703096929,596.4910837759962 810.0949524480384,597.1906013136613 810.6313573262887,597.8912816190859 811.1144013368757,598.5372552528861 811.3020964409225,598.914363606309 811.1411108977627,599.3182613049867 810.6054633245803,599.5603345134878 809.9881433314877,600.5834496203461 809.6127239966299,601.526191362238 809.3392495503649,602.4186839040485 809.2907237831969,602.577172177902 808.9954040037701,603.1427648134413 808.6733746631071,603.4384533225093 808.0568702294258,603.6269836776191 807.0098962205229,603.3848743665149 806.4734622151591,603.331335562747 805.8836382151349,603.546655465907 805.3197082169354,603.9237961893086 804.543004672043,604.192614027299 803.684570453479,604.3811839600094 802.5841773226857,605.108632770367 801.4846580054145,605.8895774840494 801.1351326721488,606.1584333055071 800.545279545011,606.4273289924604 799.4724697885104,607.0476153810159 799.1245464462554,607.4514995265636 798.8559071004856,608.1241964768269 798.4263113386696,609.2286861964385 797.783097343985,609.9828690484865 797.3801528889453,610.3867483030772 796.8170093226945,610.7638382207952 796.0386746595614,611.1944244678016 795.4755602204241,611.6518788440735 795.1802404408809,612.2442789703491 794.992545337067,612.9984524396132 794.5637360071996,613.5316899812315 793.6785922276322,614.1241256756475 793.5984052906279,614.1969400231028 792.2570144427009,615.4159847003757 790.7812602311606,616.7090015361318 789.0651782257482,617.8937756218947 787.1872659912333,619.0250085795415 785.598236444639,619.6173505249317 785.0666666666511,619.8076755601796 784.8473977741087,619.8862312813872 784.1499782258179,619.9129787759157 783.3457495609764,620.1294486290426 782.8093446828425,620.693875793484 782.4873153421795,621.3677408284275 781.9775617707055,622.579279504891 781.8432566613192,623.1984000574448 781.8432566613192,623.7372376687126 782.5407053369563,624.6263552608434 782.9970106595429,625.8634999966598 783.0771102150902,627.1017629043199 783.0410217245808,627.5569382935064 782.9703010986559,628.4482506746426 782.8093446828425,629.4176706529688 782.5366566685261,629.8370995128062 782.3003775430843,630.1985370519105 781.7097671112278,630.8176783040981 781.2809286543634,631.2493935558014 781.0932626774302,632.1585231221397 781.0123184357071,632.6973809757619 780.8513328925474,633.5049828045303 780.0738137884764,633.1815408038674 778.7857255538693,632.4820468064863 778.2492915485054,632.3470712999115 777.5793679929338,632.3738575787283 776.8010333298007,632.2120957183652 775.4061651057564,631.6744415696594 774.5744404481957,631.3509168074816 774.0549875485012,631.3453346361639 772.9505748766242,631.4078228204162 772.1601233351976,631.3107572984882 771.4537908907514,631.15349259699 770.7264286720892,630.8979974788381 770.0953315556981,630.5644719311967 769.6365795556922,630.3446781438543 769.2288000001572,630.2565678064711 768.8461280142656,630.3446781438543 768.278935779701,630.5733472107095 767.5467384605436,630.7139058908797 766.316088889027,631.0296405489789 765.5385406577261,631.3196727100876 765.1048962275963,631.3285881213378 764.7229815466562,631.2672645426937 763.9592104392359,630.9158283321885 763.4680982185528,630.8634200775414 763.0797464463394,631.0921288144891 762.6274606648367,631.566211821977 762.2188946773531,632.119488209486 761.7795704605523,632.427389968012 761.1476286577526,632.5769030977972 760.816744675627,633.0331525052898 760.7940837830538,633.0760827153572 760.543270229362,633.5518485266948 760.4412962134229,634.4219750751508 760.24308622221,634.8157337203156 759.7657219982939,635.7126014831592 759.1087308800779,636.4767416044488 758.4598662257195,637.0133409792907 757.8546631111531,637.4785373806953 757.4719619982643,637.9882685657358 757.1855551147601,638.5315308754216 756.9622666810174,639.3046173869516 756.8352142221993,640.2103434689925 756.707375331549,640.7023190938053 756.369180444628,641.3247666211682 756.1531446614536,641.4921043387731 755.878883783007,641.5802105923067 755.311720675556,641.553465488716 754.7955008854624,641.553465488716 753.9670093369205,641.6237014979124 753.1328380019404,641.6850626145024 752.5405964517267,641.7999540352612 752.1263215502258,642.0632282632869 751.7938064499758,642.3532472238876 751.0478320072871,643.240087874583 750.3786948836641,643.8468674866017 749.8188135537785,644.4090709335869 749.4239955627127,645.0504631598596 749.0744702293305,645.8625615887577 749.0347991039744,645.9551236904226 749.003254442825,646.1838181897765 749.2322226631222,646.6144218387781 750.0857926543104,647.5971413931111 750.302643996547,648.1582117550424 750.3406840036623,648.5720264164847 750.2007282347186,649.0806902057375 749.8633197796298,650.3545335306553 749.5162119965535,651.2982060994837 749.3042540090391,651.9061300697504 749.0121673387475,652.4047077029827 748.41179932456,653.295968886232 747.9514453333104,653.9083451373735 747.6181146737654,654.4616106917383 747.5056548977736,654.891035125358 747.5056548977736,655.8625980721554 747.6181146737654,656.3600432186504 747.8810451057507,657.021521609975 748.2532604587032,657.4843907739269 748.7645868943073,657.9863299633143 749.056644437369,658.280787085765 749.2597477830714,658.5741998206358 749.5744662187062,659.2735382259707 749.5121633281233,659.6795438816771 749.4231800036505,659.9640004110988 749.0809364481829,660.5317078283988 748.706740451511,661.0213935588836 748.5396382152103,661.2399950530962 747.5104899982689,662.8472962400992 747.1536828872049,663.5053839807515 747.0048142223386,664.1322300664615 747.0112804409582,664.720044867543 747.1010793246096,665.3301436462789 747.2815217778552,665.7819144984242 747.3206103610573,666.0051695372676 747.348688896047,666.1655837772996 747.5736084481468,667.0924909142777 747.5549962241203,667.3501161811873 747.4659837726504,667.6044084338937 747.06388400367,668.0226870889892 746.7669331057696,668.5000306107686 746.2693546665832,669.3745288928621 746.0897568996297,669.8719463164452 745.977297123638,670.4820722841541 745.8429628872545,670.8646499953466 745.5929648926249,671.278425901779 745.0581328782719,671.7569274451816 744.5387382329209,672.1974837081507 744.0217320107622,672.3781709705363 742.7975486578653,672.3692570687272 742.4553342292784,672.324647402158 742.0702155663166,672.3993716004188 741.8468980054604,672.5488199280808 741.6980293404777,672.757372867316 741.3913791147061,673.2147110877559 740.7619131164392,674.4349045118433 740.0029771092813,675.5714146640967 739.1210955663119,676.9655746910721 739.0086066630902,677.2823332201224 739.0086066630902,677.8243832353037 739.1882044302765,678.2983748664265 739.7359688818688,679.4114987109206 740.0029771092813,679.9490871545277 740.4471946809208,680.5814717655885 740.7619131164392,681.4391432685079 740.8517120000906,682.0045920924167 740.909966222127,682.8031563205877 740.9544724480947,683.4310767403222 741.2117522205226,684.353420992964 741.3687182223657,684.8051162499469 741.5264997831546,685.5278269107803 741.6980293404777,686.4524116088869 741.6834366578842,686.9308430569363 741.6389304320328,687.2889031688101 741.4010784428101,687.737220343377 741.0086780018173,688.2625044037704 740.3355213371105,688.8268532659276 740.0652800000971,689.2116102778818 739.8403604481136,689.7547578203958 739.6170428872574,690.4562546793022 739.5426231182646,690.9492123955279 739.548273777822,692.08122870425 739.3905213440303,692.9622665747884 739.3905213440303,693.277880027541 739.5426231182646,693.8333041041042 739.8257968926337,694.4600316377473 739.8361661441159,694.4812303369981 740.3203169849003,695.4740340103745 740.5822862223722,696.0113459498389 741.178576441016,697.0139396243612 741.2530253371224,697.268200768216 741.2675888926024,697.6864684018656 741.2570740054362,698.1347663527122 741.0548153456766,698.8808437576517 740.8978493440663,699.3548745255102 740.9107526543085,699.767477667192 740.9649582081474,700.3719478310086 741.1041566720232,700.8280295290169 741.2085191111546,701.4860141925747 741.193139996496,702.0090603404678 740.8751593246125,703.737658006663 740.7853604409611,704.0766634058091 740.2449068942806,705.7940854183398 739.9981128819054,706.3360716998577 739.5134960071882,707.1334316857392 738.992441116483,707.7356352644274 738.7254328890704,708.0936245096382 738.5021153280977,708.451573079743 738.0191004445078,709.8366315459134 737.8840089031728,710.0630175964907 737.4568015645491,710.4923837137758 737.2326684445143,710.6507210597629 736.9567764481762,710.7667039029184 736.6290673209587,710.8414162553963 736.5214717725758,710.8516134258825 735.0513682204764,710.9897569409222 734.3094424463343,711.1938205825863 733.6346546630375,711.6231445515295 733.0949875484221,711.903043778555 732.6799553423189,712.0982343564974 732.1588713246165,712.4862865689211 731.6345833245432,713.1141301276512 731.5447844410082,713.2947869026102 731.4768308908679,713.7007422582828 731.522123548435,714.6943103060476 731.5795913387556,715.2485612533055 731.3708664606092,716.1897732908255 731.1483353317017,717.4442753940239 731.0585364481667,717.6093124528998 730.8206553317141,717.7130476812017 730.300416000071,717.7732654791325 729.4824393386953,717.7286641649553 728.8731875555823,717.758773063717 728.4273971200455,717.9371782494709 728.0819204552099,718.3765666988911 727.9249544534832,718.7612768274266 727.8569717759965,719.5964927403256 727.767172892578,719.8229098244337 727.4912808961235,720.3324679254438 727.2979060054058,720.9302228138549 727.1490082135424,721.5725367001141 727.1195024497574,722.3327129861573 727.070539776003,723.5953727351734 727.025247118203,723.9343503752025 726.9710415644804,724.2610835852101 726.7922302292427,724.5454643622506 726.4655405512312,724.7675814141403 726.3755377777852,724.8286404848914 725.9151837867685,725.038312640565 725.5284340054495,725.1431285784929 724.5963664498413,725.2000125824707 724.1691591111012,725.2902963411179 723.7192908800207,725.4932640638435 723.3422695538029,725.695107588137 723.0154051128775,725.8445632157382 721.5169900089968,726.7354742097668 721.0444900125731,727.006484245183 720.5719608890358,727.1882546929992 719.4967044552322,727.4436082217144 718.6495715555502,727.5774469233002 718.0249697850086,727.6231303023524 717.4917688890127,727.5495471400209 716.6381697708275,727.1882546929992 716.1203771164874,727.1425310883205 715.7360448854743,727.2640458642854 715.3792377744103,727.5328072685516 714.8347355591832,727.9364907538984 713.8945997939445,728.6334212515503 713.4220706702909,728.8597897554282 713.1526157654589,729.0404348011361 712.9050644481322,729.3560013013775 712.6429204480955,729.8086966057308 712.5539079965092,730.0328561385977 712.2488888889784,730.2599860556656 712.0927384463139,730.3762806656305 711.3767066737637,730.8480018621194 709.7577053299174,731.819220369216 709.1492982329801,732.1392391062691 707.5092671148013,733.4684042314766 706.9469682346098,733.829687322781 706.5868988871807,733.9646063481341 706.2956277761841,734.0326478988864 705.6160048925085,734.0961934715742 703.574689564528,734.1229283694411 702.6749822293641,733.9200481539592 702.4273726579268,733.8977289113682 701.8691224462818,733.8564623925486 699.865031566238,733.761645714927 699.369870677474,733.6490458443877 699.3479962170823,733.6033234577626 699.2574109014822,733.5810041859513 699.1567184783053,733.5274941248936 698.4927951076534,733.1740383994184 698.0931128889788,732.8105063398252 697.6319433387835,732.422446504992 696.9417764409445,731.9786677906523 696.671564231161,731.7745814952068 696.0420982330106,731.1423705177149 695.5477237761952,730.5547167125624 695.1990140017588,730.2826267780038 694.9757255680161,730.1934287424665 694.3518811023096,730.0729992996203 693.77178555727,729.8042808535392 693.3891135716112,729.4250878701569 693.0969977743225,728.9289166088565 692.7822793388041,728.2509346738225 692.6903541760985,727.9364907538984 692.6697904355824,727.8661994553404 692.5225528889569,727.2506780375843 692.3291779982392,726.4132805786794 692.0176635449752,725.6750356460689 691.230445113033,724.2978957401938 691.0209046757082,723.7414575435687 690.9318922242383,723.3522591571673 690.9318922242383,722.77016654209 691.0508182188496,722.0620590281906 691.181249422254,721.6260493989103 691.1859388871817,721.6104331662063 691.7701122276485,720.2544264799799 692.6115362134296,718.8805878276471 692.8720782224555,718.2438871277263 693.1422904321225,717.6115605852101 693.2321475697681,717.4978291491279 693.7491246649297,716.3693037027842 694.0242302294355,715.8641131347977 694.0986499981955,715.416931889893 694.0396093442105,714.9084473932162 693.9206542223692,714.6541645994294 693.5242051129462,714.2003169230302 693.2547502081143,713.8847307007527 692.4901926685125,713.2524329376174 691.9286802206188,712.846476831648 691.6608855609084,712.4438923166017 691.4230044444557,711.9209489678033 691.2312315449817,710.2693302183761 691.11877176899,709.7731197626563 690.8137526614591,709.2712877675076 690.3825257815188,708.8385471676593 689.5677822293947,708.1003290244844 689.1179139981978,707.5137033461942 688.3533273315988,706.83570168406 688.1284077797318,706.6996434479952 687.976306005381,706.6145317360642 687.43827000889,706.3137900653528 687.0539377778769,706.1453729610075 687.7012004408753,705.027955632424 687.976306005381,704.776593233808 688.1955748979235,704.5762578980066 688.8031955626793,704.1926895409124 689.4156513280468,703.8034597787191 689.8468782081036,703.3406388830044 691.5241337743355,701.367818775354 691.9286802206188,700.7711799558019 692.3599362275563,700.0685887899017 692.4683182081208,699.5600319602527 692.4910082275746,698.5663617521059 692.4230255503207,698.2273486491758 692.1535997726023,697.7076668191585 690.9472713387804,696.4195384206832 690.28704711108,695.5630039243842 689.9949895680184,695.019869391981 689.745457607205,694.4812303369981 689.702087338781,694.3875625855289 689.5645491200266,693.7306828367291 689.5346064498881,693.2377307752613 689.6090262187645,692.8942134993849 689.8323437797371,692.5953418316785 690.7369153423933,692.1057600152562 691.4116739982273,691.5402945975657 691.5014728817623,691.449958122801 692.0621697707102,690.9068143775803 692.5532819910441,690.1294759177836 693.3227328853682,688.5803723756108 693.4578535537003,688.0160229398753 693.4004148907261,687.6000271853409 693.2523326579249,687.2866547553567 690.5791046543745,685.1463965525618 690.1972482275451,684.875379880832 689.8145471147727,684.6489703135449 688.2715966579271,683.7009708029218 687.976306005381,683.4546051545767 687.7020159999374,683.2258655075566 687.5895562241785,683.0228624033625 687.4770964480704,682.6380955707282 687.5216026739217,682.2332124382956 687.6793551075971,681.5997480531805 687.976306005381,680.8664257398341 688.6323941831943,679.2460742879775 688.7586893370608,678.934136519325 688.9609479964711,678.5270388586796 689.2530637938762,678.0295990395825 689.321017344133,677.8266317365342 689.4310304427054,677.436235395784 689.4318460017676,676.9878991743317 689.3420179910026,676.4502640131977 689.0289015467279,675.5669176198426 688.4212808818556,673.6463106943993 688.138107107603,672.789735898783 687.976306005381,672.3901364778285 687.7813291235361,671.9086247250088 687.2521477689734,671.2282749344013 686.9374293334549,670.6404759121942 686.7351706738118,669.9857000930351 686.6809651199728,669.3087177768466 686.6898780161282,666.9798199274228 686.5329120142851,666.0986474852543 686.2497091130354,665.4037858460215 685.9220291129313,664.910776189412 685.1161693298491,663.9537852884969 684.6436693334254,663.4786412958638 682.6872886614874,661.3772031276603 682.1336405334296,661.0213935588836 682.1249897815287,661.015812070691 681.8329031112371,660.8797281208099 681.4502019982319,660.8127903694403 680.544057571562,660.683412131737 680.1127724372782,660.5785683260765 679.6669820017414,660.3242687041638 679.5521920569008,660.1402396150515 679.4436644408852,659.9662490778719 679.1791028907755,659.3884213116253 678.7899355592672,658.3667188663967 678.0099989050068,656.5653173471219 677.5827915662667,655.2992968306062 677.4363113244763,654.2987392094801 677.4071842133999,652.0879568253877 677.3230651164195,651.300414690515 677.0706204444868,650.3958142627962 676.5835568924667,649.3606616408215 675.8238344533602,647.1766188677284 675.7121611094335,646.7393100056797 676.3343744570157,645.4264149141964 676.6822686720407,644.5897789075389 676.8877895680489,643.9862940629828 676.8440697742626,643.5780534633086 676.4678348799935,642.7169149289257 675.7696288996376,641.7296779192984 675.5997013334418,641.0771130126668 675.7453368889401,640.4948228436406 675.8820886756293,638.6598366615362 675.8076106525259,638.0853314140113 675.3658688853029,635.8933159399894 675.1312500053318,633.3242665673606 674.949176433729,632.3459468383808 674.1959202134749,629.554856579809 674.00094333163,629.0406097534578 673.7533628871897,628.7405348810717 673.3900604302762,628.5441527038347 673.0445837653242,628.557566133677 671.8633337742649,628.8443081391742 670.2459635485429,628.8319790431415 668.8146864355076,628.1582150779432 667.394768896047,627.8793436369742 667.126391694299,627.5569382935064 667.0047860053601,627.4107955208747 666.8461888853926,626.2840594960144 666.5354899911908,625.5098872862291 665.9521613370162,624.9710134549532 665.3785320107127,624.6609335520188 664.9116535467329,624.322901427804 663.7732786632841,623.4996062932187 663.7036939947866,623.4458309673937 662.8525415537879,622.787835275114 662.0814886685694,621.7771031833836 661.3476602312876,620.4663219231879 660.7003684408264,619.0428403061815 660.3645911042113,617.6415999551537 660.5377517796587,617.27901916072 662.043448661454,616.1936029203353 662.7028864569729,614.9317893868429 662.9269904497778,614.032595640223 662.9269904497778,613.8451577635715 662.6397388799815,612.0490481464076 662.7765197940171,611.2245867627207 663.2117953423876,610.6879704595194 663.7036939947866,610.2991929928539 663.7538800070761,610.2595521148178 664.0451511183055,609.8255905091064 664.3938317653956,608.536995078146 664.8032424392877,607.014159156126 664.7911255608778,606.1148958727717 664.6891806720523,605.6418876696262 664.4423866596771,605.0662197369966 663.7708611129783,603.9047584289219 663.7036939947866,603.7545046592131 663.3355564374942,602.9308183456305 663.4229377707234,602.4443890543189 663.675382442656,602.0806609240244 663.7036939947866,602.0659607694834 664.0564815644175,601.8820882692235 664.8776913351612,601.0710072527872 665.614752881811,599.631747469597 665.8138075591996,597.8343677368248 666.3599408925511,596.1730548663763 667.5149764836533,594.0878223920008 667.5347246651072,594.052115099912 667.6536506597186,593.8379114019917 669.0962582187494,591.8274078762042 669.3454406543169,591.0876685190597 669.3454406543169,590.5130505064735 669.4571139981272,589.5022239857935 669.7807744569145,588.6542687879992 670.0040628906572,587.7293110068422 669.829300224199,586.7429746845737 669.65535311657,586.1438445042004 670.1157071075868,585.5312568653026 671.384338432108,584.7948723371956 674.8909222116927,583.0152571150684 675.462978673866,582.6247080512694 676.9856566614471,581.2958403649391 677.3325023006182,580.8345930777723 678.1410417779116,579.7594171423698 678.875685774372,578.2731945607229 679.2608335644472,577.2489007195109 679.2535517868819,576.4555721223587 679.2486584321596,575.8753359674593 679.4477131094318,575.3509330414236 679.7276537743164,574.9001585124643 680.2058044302976,574.4638439611299 681.4995724515757,573.5500391944079 682.009267768939,573.200768758019 683.1719346630853,572.5848545242334 683.4316611129325,571.9454798258957 683.4405448817415,571.5270755167003 683.3014046720928,571.162176237849 682.7811653405661,570.8029001451214 681.9097695574164,570.2282340351958 681.0764137814986,569.453882753849 679.9922153244261,568.6482366508571 678.5763173262822,567.5937344062258 675.2663706738967,563.7128727536765 674.6789642241783,563.0958096227259 673.7088857885683,562.6718062805012 671.8794993208721,562.5088731078431 671.0825815608259,562.3001851192676 670.6359464391135,562.1841312209144 669.0056437761523,561.3729173370521 668.4465780053288,561.3606249793665 667.3389322242001,561.584940322733 665.7563397688791,561.6976201401558 663.865524224122,561.4108388547902 663.7036939947866,561.3310590447509 662.9787784534274,560.9734153945465 662.250396785792,560.6141241960577 662.0717893405817,560.5259483342525 660.6558622152079,559.6254680827842 659.3500064426335,559.1009898204356 658.4794553458923,558.762866245932 658.0441215432948,558.1391220182995 657.2949431183515,558.1134121682844 656.3612444443861,558.1011598169571 653.363569550449,558.2149660597788 651.1531713423319,558.269679808116 650.775305329822,558.323228567373 649.7809348835144,558.4649539587554 649.0252611130709,558.7283187231515 648.5244495645165,558.9023819469148 647.575371776009,559.639929783647 646.9247012410779,560.6141241960577 646.9135455574142,560.6308354263892 646.26386534411,561.9487292344566 645.9474866632372,562.3236449522083 645.4838704356225,562.6271362499683 645.0267786809709,562.8134487870848 644.2362980124308,562.8815383912297 643.5339851095341,563.195071690483 642.7556504461681,563.6648687450797 641.9627522276714,564.447071790346 641.4069195663324,564.7249316212256 640.2628357688664,564.886738529487 639.4788504461758,565.3364470828092 639.4311111110728,565.3642851996701 638.7013022151077,565.7916983125033 638.1648973369738,565.9222519795294 637.3986795520177,566.0739753373782 636.4035226739943,565.860871679557 635.7085206757765,565.7526125393924 635.2278942151461,565.7258188967826 634.591175566311,565.8430360397324 634.2392035556259,565.8240756284795 633.2812419983093,565.6867732835817 632.2990175575251,565.3486990682431 630.7560962276766,564.8632789449184 629.9477897670586,564.4761151272687 628.7657533440506,563.2765782307833 628.167832007166,562.7454395053792 627.7179637760855,562.499914993823 626.9218324481044,562.4876628644415 625.6523564374074,562.8369085701997 623.7000535608968,563.3490864901687 623.1256086757639,563.2810371880769 622.107761777821,562.912831483176 621.8755604481557,562.7688591242768 620.7638951253612,562.0769952257397 619.3083260018611,561.2524039998534 617.9992371201515,560.665463020152 617.8401448392542,560.6141241960577 616.4433542258339,560.16328208294 615.7362353494391,559.703561256465 615.1585282275919,559.1074976000236 614.8526935608825,558.7919102639426 614.4805073351599,557.8668384998455 614.105903559248,556.6449734911439 613.409270442673,555.858245995827 612.80001865956,555.4453576577944 611.8542031076504,555.1831141448347 610.5232688925462,554.7836421698448 609.5272673281142,554.5481928221416 608.6979602205101,554.3517906916677 607.8961491058581,554.0437897302909 606.6671597795794,553.3597345445305 605.8435033315327,553.0327709100093 605.2706895645242,552.6210427616606 604.9721075484995,551.6345635364414 604.8733957688091,550.8556534791132 604.9098046578001,549.6984317168244 604.8475308942143,549.0869571376243 604.5619104426587,547.9754843483679 604.2237155557377,547.5157002258347 603.7949062258704,547.2936215709196 603.2487728925189,547.2545729876147 602.3264337921282,547.2936215709196 600.2729433315108,547.3461282466305 598.2769206613302,547.2389856912778 597.5301597866928,547.1139658966567 596.5697515520733,546.6029186937958 596.187050439301,546.399801135005 594.3690526720602,544.9658007885446 593.7363535646582,544.5763152675936 593.0890909013106,544.3386464358191 592.206364672049,544.2136251447955 590.885916216881,544.4012775789015 590.2661786738317,544.4892986128689 589.3672868977301,544.5383911152603 588.4214422187069,544.0763909026864 587.8364824464079,543.3778047342785 587.3356708978536,542.8790027733194 586.9586495716358,542.5397316840244 586.3316011236748,542.3288169130101 585.7344662186224,542.4917636552709 584.6276359965559,543.0162376936642 583.9188860019203,543.2907474748208 583.4213075628504,543.3532583666383 582.9609244446037,543.6400610235869 582.1024902258068,544.6276976636145 581.566056220443,545.0327705412637 581.2319100019522,545.1644200849696 581.09518734226,544.5774401364615 581.09518734226,544.5651871006121 581.153092039167,543.863267898967 581.1817531165434,543.5162044197205 581.4309355521109,542.1290704121348 581.3063588979421,540.9305477742455 580.9956600037403,539.9306427946431 579.6857264357386,538.8570530522848 578.9268195556942,538.0948548802407 578.3046353352256,537.8069207596127 577.3474893369712,537.545783058391 576.5764364516363,537.1061068838462 575.9914766792208,535.8327931105741 575.3700788907008,534.7078810738749 574.6232888889499,534.0962883131579 573.8392744392622,533.6845279873232 573.0884648960782,533.407717305643 572.9597813192522,533.3608723899233 571.9363128889818,533.1343212494976 571.3642855538055,532.9100197433145 570.7760926720221,532.3352637629141 570.3901584497653,531.5730450753472 569.8302771201124,530.4113118330133 569.0341166649014,528.1736860611709 568.7978666666895,527.5498229109216 568.6134046720108,527.135801560129 568.001735338592,525.7630776739679 567.2678777743131,524.5767281269655 566.7209288818995,524.0645084239659 566.6133333334001,524.0242106008227 565.2532720072195,523.5142798403976 564.7556644410361,522.8156343858573 563.9716791183455,521.6281454316922 563.3745442134095,520.9551681561861 562.3049384392798,520.2308416306041 560.7587840000633,519.6806445186958 558.9933606684208,519.2431858971831 557.3387951218756,519.1437852882664 556.5426346666645,519.2565651999321 556.4338157796301,519.3230599219096 555.7465033387998,519.743161501945 555.1251346773934,520.3558351187967 554.4406184392283,521.3669902930269 553.6946439965395,522.3412984148599 552.4753539983649,523.7530940647703 551.6169197796844,524.827875693154 551.4049326648237,525.5521081219194 551.6039582152152,526.2262377601 551.3167648996459,526.4494205007213 550.6015195591608,527.0074367182679 550.4939240107778,527.0911651549395 550.3199477760354,527.135801560129 548.7891724517103,527.5286096069613 545.6798533404944,527.5286096069613 544.4856417848496,527.4404217047268 544.0503371093655,527.4784288865048 543.5406126648886,527.603378459462 543.1919028908014,527.8533979417407 542.7194028942613,528.3901976973866 542.3407504499191,528.7920836007688 542.1190640071873,529.0273972707218 541.0113890987122,529.1267938247183 540.0664182328619,529.1524263976025 539.2702577778837,529.2272349253763 538.3244422258576,529.5140141264419 536.9198455465958,530.151291096874 536.0857033387292,530.4258154535783 535.5063650987577,530.0876518630539 535.3024753209902,529.6769293102552 534.9788731164299,529.2517425475526 534.4683331128908,529.0017646846245 532.9100035415031,528.9024484321708 532.0394524445292,528.7785842950107 531.3307024498936,528.7160696430947 530.1736862151884,528.8153859720333 529.738410666585,528.9660879773437 528.7424091022694,529.4403708027676 527.8467795627657,529.6646755209658 527.3119475484127,529.6780542482738 526.6525680072373,529.4157828468597 525.9073799964972,529.1535513381241 525.2229220125591,529.2282795125502 524.3523126613582,529.6032860360574 523.6678546773037,530.0396411928232 522.694514005445,530.3521724070306 521.8854211128782,530.3398382994346 521.1264851058368,530.6891705187736 520.8158153387485,530.7014242562582 520.1062497849343,530.4670764415059 519.8327753386693,530.3766799154109 518.8124817636563,529.7405686518177 518.0681384392083,529.4136936740251 517.6182993352413,529.2160257005598 516.3747464534827,528.7160696430947 515.541390677332,528.5040580720524 514.89409888722,528.7160696430947 514.097938432009,529.1658453296404 513.5849808782805,529.2774152836064 512.3665355662815,529.4649185799062 511.45791533531155,529.6903080368647 510.79850666678976,530.1144092703471 510.2887822223129,530.8521250884514 509.57761467737146,531.7304145843955 508.93274043733254,532.5260992911644 508.3849759858567,533.25038906181 507.3898191074841,534.2246493996354 506.89305622759275,534.6565367497969 506.3331748979399,534.9734411363024 505.56212201248854,535.2737124810228 504.6163064605789,535.4109517089091 504.37160960014444,535.3780480486457 503.8792157866992,535.3116380834254 503.21494289080147,534.8909206881654 502.2917591041187,534.1353791928268 501.8144240071997,533.8753222775413 500.495577543159,533.3508284529671 500.4858782152878,533.347453690134 500.4138759964844,533.3262408938608 499.88312177779153,533.1689125970588 499.5238971164217,533.061803948367 498.6913277725689,532.8140396872768 497.6095759929158,532.0774949452607 496.68883888365235,531.5775447921478 496.1289866808802,531.040711921698 495.53185177617706,530.2037211349816 494.69523376366124,528.9414999732398 493.7955555554945,527.8697900183615 493.68714444804937,527.7407023850828 493.3073560463963,527.135801560129 493.0957184570143,526.7987181525095 492.8788671147777,526.4539203127497 492.35621023294516,526.2920877386932 491.74614289077,526.3300147468108 490.3779842276126,526.3043416984729 488.74846799636725,526.2418264083099 487.19340066146106,526.1425090246485 486.6893268764252,526.5420683971606 486.4595722241793,527.031984741916 486.4577954703709,527.135801560129 486.44661065971013,527.7942578914808 486.74516354850493,529.6300434966688 486.9579662224278,531.1902474358794 486.87300243915524,532.0004374430864 486.78320355550386,532.864219302719 486.65941333340015,533.5505821905099 486.3730064498959,534.225774316641 486.2484006684972,534.5750607579248 486.18609777791426,535.4277048527729 486.0493751182221,536.2144585079513 485.55179667903576,537.2880197837367 485.0800831147935,538.0502204938675 484.74107266846113,538.949736379378 484.60918510938063,539.3514842443401 484.30579711997416,540.2732520289137 482.2401897815289,542.2596368282684 481.2458193352213,543.3833889320958 480.59934310405515,544.6979617666802 480.59934310405515,546.1342134214356 480.76035777432844,547.0827511112439 480.98449089436326,547.8315031144884 481.1713995662285,548.8436684850021 481.19403133168817,549.3491670748917 481.1422724551521,549.8446213571006 480.9351204409031,550.267562474357 480.57508022058755,550.6547891664086 479.6915675592609,551.3165561018977 479.205290439073,551.6613587372121 477.4026717868401,552.9401733144186 475.570896896068,554.0917956448393 474.89852666307706,554.4042154938215 473.44380222598556,554.8037282662699 473.0708004408516,554.9789593018359 472.5230651163729,555.4163534106337 471.9259593387833,556.0523972740048 471.3911273244303,556.8893389514415 470.7818755415501,557.3523993737763 470.07233911473304,557.7016926523647 469.52297267201357,557.8065809669206 469.09093023312744,557.8891739548999 468.19524243904743,557.86350425001 467.4112571165897,557.5644258769462 466.66446711472236,557.376944323245 466.16688867565244,557.339022174303 465.3674951111898,557.4015294419951 464.86991667200346,557.3144772209344 463.81242777605075,556.914968587691 463.0413748907158,556.5780069477041 462.4191906703636,556.4039420544868 461.3867802169407,555.8292417980265 460.92642622592393,555.7544816547306 460.46604310756084,555.7544816547306 459.78155599639285,556.0167245493503 459.08495200704783,556.6036767887417 458.4635833458742,557.3903215205064 458.0266766791465,558.0989503765595 457.7297257814789,558.5397132657818 457.51855422591325,558.8019531462342 456.9214193208609,559.2014184973086 456.24666066502687,559.776110756211 455.3129619911779,560.5504929622984 455.2606205724878,560.6141241960577 454.9529508978594,560.9879171859939 454.81619911117014,561.2992836951744 454.19480132265016,562.5512935894658 453.1373706809245,562.7510232569184 452.2036720070755,562.875954642659 451.89297311287373,563.109186504269 451.71821044618264,563.2787876239745 451.2958673351677,563.6883284457726 450.7489475697512,564.6245052338345 450.12754978146404,565.7615705330973 449.81603532796726,566.3853353117593 449.1444806542713,567.1719482915942 448.32408644258976,567.7343296144973 447.7763511183439,568.221993505198 447.1573708798969,568.885881641414 446.21802154683974,569.8946249910514 445.2503606614191,571.5672449325793 445.07481156277936,571.8707648237469 444.2907971130917,573.1070541322697 443.74221710232086,574.2629992157454 443.5205306597054,574.7305253567756 443.1475580019178,575.8173323598458 442.7988482277142,577.1395621172851 441.9533464461565,581.3259662130149 441.5698589014355,582.5109132707585 441.4557680070866,582.8623795043677 440.93471311649773,583.6244368832558 440.4492806827184,584.1365708722733 438.9815946809249,584.9477085617254 438.33430289069656,585.0849999946658 437.550317568006,584.8104973852751 436.85042221518233,584.1611532764509 435.0210940018296,582.1359886148712 434.56071088369936,581.5234711810481 433.98143089783844,580.9432471594773 433.6399737742031,580.587359671772 433.117316892487,579.738208408351 432.883484444581,579.2740660511772 432.6326708906563,578.7764225138817 432.52507534227334,578.5074961474165 432.0347495537717,577.2913186209626 431.262881109491,575.5673623604816 430.36722244275734,574.0688625265029 429.6212480000686,573.4071978898719 428.8744871254312,573.0445509153069 428.35180111648515,572.9697960827034 427.1673180159414,573.0423416109988 426.3954204444308,573.0925530659151 425.54994779033586,572.9675867777551 424.50215822225437,572.4966830178746 423.9074991218513,572.1050726005342 423.13644623663276,570.7939423376811 422.4260359965265,569.444924896583 421.7917057706509,568.6582389547839 420.97777777782176,567.8289702288457 420.9090086686192,567.7589136825991 420.2779406791087,567.6306105288095 419.51090733509045,567.7087011226686 416.75108443037607,568.3212936434429 415.90482534409966,568.45851415582 414.4120608995436,568.45851415582 413.7777015467873,568.7330352872959 412.35941512533464,569.4583415974048 410.94104132277425,570.1825209868257 410.00253667565994,570.4960448406055 408.970126222237,571.1900538551854 407.5825397759909,572.5837297855178 405.95710134040564,573.8468082044274 404.8623879963998,574.7305253567756 404.6520611271262,575.4223531313473 403.71949841070455,573.8695840460132 403.4100811094977,573.3536524635274 402.43272089597303,572.0001503051026 401.79839067033026,571.3897764029098 401.13738001079764,570.8598203755682 400.1332811093889,570.2762367437826 398.8387557831593,569.87787422986 397.62269889423624,569.8510810433654 396.7051948942244,569.5599710742827 396.03687332966365,569.3478345566546 394.7156384426635,569.0030570860254 393.4736875521485,568.3938405633089 392.8911453296896,567.6774488200899 392.57400934398174,566.7758703764994 391.7284784356598,565.9266707176575 389.82551688537933,564.3355180284125 388.1078620160697,563.2207810013788 386.7072848782409,562.2923517842428 384.88445201073773,560.9655820165062 384.5153823859291,560.6141241960577 383.2185268907342,559.37881561002 380.6553411129862,556.9931028064457 378.85146999475546,555.4364394545555 378.7790599965956,555.3739718521247 376.4796493370086,552.8542443210026 375.5807284339098,551.5798884628457 374.76196534046903,549.2721954114386 373.7837604410015,546.6452616128372 373.3080273352098,546.0091930568451 372.62109354673885,545.532692932873 372.43258288374636,545.4708655570284 371.4058522169944,545.1343299148139 370.313614677405,544.6477846018388 370.2165048889583,544.6042361173895 368.86858956795186,543.8610181545955 367.62660955032334,543.0910017669667 366.48986578488257,542.4013716151239 365.13463955919724,540.9450507652364 364.34092578152195,540.0924662598409 363.57470799656585,539.4552154350677 362.82305376720615,538.8626775290468 362.4646446648985,538.5803286294686 361.69842688017525,537.5714549156837 360.00745244463906,535.6888448366662 359.08188023476396,534.8395362274605 357.2055699911434,533.7258285959833 356.60039600369055,533.1209427129361 355.4844198684441,532.0039327525301 355.00487111113034,531.5239499458694 353.10269599291496,529.3477641910431 352.04523622395936,528.0475716602523 351.05249689600896,527.135801560129 350.1956646684557,526.3501032021595 349.9545504427515,526.0208532093675 349.9043935574591,525.9528336005169 349.7725059982622,525.501926992205 349.77169043920003,524.758650434087 350.0362519894261,523.8569122881163 349.8777131236857,523.1136306835688 349.4812348872656,522.5031336278189 348.6616271075327,521.7598478701548 348.160000000149,520.920575064898 348.1066100054886,520.8312597783515 347.5515637760982,520.0087379665929 347.234398663044,518.6817366520991 346.94394311110955,517.9920370226027 346.4422868764959,517.275496250717 345.9131637760438,516.8257788478513 345.5960277902195,516.2688641806599 345.5434242275078,515.4987601001048 345.43743067025207,514.0925012239022 345.49082066491246,513.0835255405982 345.2262591146864,512.2609774255543 344.9883779983502,511.650453022914 344.96169756457675,510.72190654289443 345.1202655574307,509.89935040997807 345.0943715556059,508.8914822982042"/></g></g></svg>