<svg width="1200" height="800" version="1.1" xmlns:xlink="http://www.w3.org/1999/xlink" xmlns="http://www.w3.org/2000/svg"><g class="geojson-features"><g class="geojson-feature" stroke="#555555" stroke-opacity="0.0" stroke-width="0.0" fill="#111" fill-opacity="1.0" data-properties="{&amp;quot;N03_002&amp;quot;:&amp;quot;空知総合振興局&amp;quot;,&amp;quot;fill-opacity&amp;quot;:1,&amp;quot;description&amp;quot;:&amp;quot;美唄市&amp;quot;,&amp;quot;N03_001&amp;quot;:&amp;quot;北海道&amp;quot;,&amp;quot;stroke-opacity&amp;quot;:0,&amp;quot;N03_007&amp;quot;:&amp;quot;01215&amp;quot;,&amp;quot;fill&amp;quot;:&amp;quot;#111&amp;quot;,&amp;quot;N03_004&amp;quot;:&amp;quot;美唄市&amp;quot;,&amp;quot;title&amp;quot;:&amp;quot;美唄市&amp;quot;,&amp;quot;stroke-width&amp;quot;:0,&amp;quot;N03_003&amp;quot;:&amp;quot;&amp;quot;}"><title>
      美唄市
    </title><desc>
      美唄市
    </desc><polygon points="451.2467527111294,735.8167332680314 446.4831593246199,741.6340004068334 445.93787067732774,741.9605857396964 445.5462566684,742.1960772059974 444.25333333329763,742.270255571173 439.9123452018248,742.5191828039824 435.30239732633345,742.7837051989627 434.3282702222932,742.6681391388993 434.0790586596122,742.6026383509161 433.7311644444708,742.5104253682075 432.94554800365586,742.0505595820141 424.92440763744526,735.8167332680314 419.9807504498167,731.9741624175804 416.20797400176525,729.0417564788368 415.8010100054089,728.7373885714915 415.1423877689522,728.2453043221612 412.74749843915924,726.4545971475891 412.22079288901296,726.061366038688 409.36231645883527,723.8218601791887 408.75629778485745,723.3475221971166 406.78453799826093,721.7922502147267 404.9123055503005,720.3159123941441 403.46326089964714,719.1727802237147 400.0788362241583,716.543323912425 398.8903044551844,715.620134020457 398.6969004373532,715.4702013168717 398.42427067738026,715.2590795966098 397.39509333344176,714.459222963138 395.7081384391058,713.1156978637446 394.100496668485,711.8352348392946 393.5616451129317,711.4064259963343 394.6960004551802,709.9688990319264 395.7081384391058,708.6535048328806 400.0569908907637,703.0021081787418 399.36117333348375,702.4944139266154 399.35485275031533,702.4899744968279 396.9241953280289,700.7812679712079 396.36673154856544,700.9212509335484 395.75747976533603,701.4978599048918 395.7081384391058,701.459544667101 394.8407913245028,700.786827296135 394.2946579911513,700.3624384672148 388.340610446292,695.662955666252 385.33646933338605,693.3031811633264 382.98605710233096,691.6266874716966 382.2078389476519,689.8984662117437 382.0984957725741,689.6556847195025 380.6534706632374,685.8281845059246 380.49571822956204,685.5926785258926 380.4253180017695,685.4871247355477 379.96333289251197,684.797124201199 381.296684657922,682.089500177477 378.4422277689446,677.3919046564843 377.25771554152016,675.4708258103929 374.40247222059406,670.8919827846112 373.2260573297972,669.1786144819926 373.2141734685283,669.158614313812 371.6418628835818,666.50637746742 371.7794011023361,666.2452522775857 372.46875244088005,664.9351820130832 371.4355555556249,663.8098303877632 370.5447319893865,662.8395989466808 370.24862577789463,662.3151003401726 369.9079842134379,661.5317904484109 369.51721489068586,660.9517666905303 368.47472645691596,660.4545052226167 367.5438531130785,660.0106052004267 367.0503233423224,659.8517178371549 366.9410675485851,659.8161161730532 365.5963853369467,656.8759607772809 365.30432779400144,656.5826233258704 364.31153021159116,656.0059479876072 363.2500509014353,655.1847753095208 361.77021889423486,653.8913667213637 361.0023699911544,653.2946035315399 360.30736799293663,653.1235108791734 360.0209611095488,652.9368169360096 359.7677008782048,652.6345540579641 359.09535977244377,651.2044807298807 358.64712265960407,650.5021820000256 358.346967779682,650.0333016621298 357.51116532622837,648.6175743881031 356.9367204408627,647.9008268137113 356.4844346595928,647.0974285621196 356.39705332624726,646.3984783275519 356.2999726650305,646.0718048135168 356.04915911133867,645.7517715556314 355.43909176893067,645.2805618218845 355.1607822222868,644.4582728495589 355.1251597653609,644.1015533884638 355.2141722169472,643.5336894920911 355.19558912003413,643.2003313654568 355.1696659910958,642.5935807994101 355.06611911114305,641.5046103582135 354.8824435486458,640.8756127954111 354.48194577067625,640.2633357337909 353.78694377245847,639.5187999514746 353.5935980088543,638.886476817308 353.4026406685589,637.5418545752182 353.0887377921026,636.3850518470863 352.9544326827163,635.8927009204635 352.9210530134151,635.8227307598572 352.74081444973126,635.4437953846646 352.3580842098454,634.8670299678342 351.6089057850186,634.098033957358 350.3607216924429,633.2093368634814 350.1120926721487,633.0322691608453 348.4752946632216,632.0354708064697 347.16297267214395,630.7539412232582 345.5051448888844,629.1349868142861 343.86834688007366,627.3202264204156 342.962988885236,626.4111408374156 342.6175122205168,625.9822215347085 342.3537371023558,625.4499220671132 342.30197822581977,624.4707760613528 342.31977489066776,622.8627420440316 342.42416645691264,622.549359609955 342.4249528888613,622.5482393861748 342.4362833350897,622.5370771548478 343.4330713315867,621.4835442533367 343.80688867578283,621.280182632443 344.34166243555956,621.2357335126144 344.7219459982589,621.2735012620687 346.0100051058689,621.5002276601736 342.41603999305516,617.5771550491918 339.4636868836824,614.3553039897233 335.3154328461969,609.8196825738414 332.15846178133506,606.3677476961166 328.55485559476074,602.4822818852263 327.9625266632065,601.8432206485886 324.1145148872165,597.6141790223191 322.8903606614331,596.2450813227333 320.0828275484964,593.1049742266769 318.56821777066216,591.4789271623013 315.9039026631508,588.5623545813141 313.0146680037724,585.4346327670501 312.24408115213737,584.5832113208016 309.70710977423005,581.779997803038 305.6366251236759,577.369457809953 305.4011324302992,577.1149195710314 305.2741382258246,576.9770262400853 305.0346551183611,576.7102828539792 304.8704073386034,576.5280120402458 302.88894822401926,574.3193431090331 301.4066986667458,572.6686806259095 299.7909595592646,570.8701860723086 299.5587582293665,570.6111992007936 298.6177777777193,569.5634040141013 298.4146744321333,569.3373095175484 298.2328921315493,569.1372257171897 293.6855966721196,564.1317157657468 293.12003555567935,563.4947948172339 292.8894362169085,563.2346796002239 291.52692821330857,561.7006744666141 290.09081600012723,560.2288880369742 289.87559577589855,559.9987830403843 287.1756873385748,557.1085257006926 283.4506502257427,552.9977245055488 278.9068208927056,548.1575263564009 277.12764956452884,546.048691408243 274.3451948942384,543.1143652881146 274.1275571200531,542.8848044038168 270.93406065774616,539.0750066008768 267.90064679819625,535.7876403261907 267.0942335999571,534.9137126699788 263.9079606614541,531.4585139332921 261.67163932463154,529.1460956443916 261.03652266669087,528.4890313681681 258.7613748908043,525.7796280744369 258.03561466303654,524.9146698849509 256.7337784320116,523.511582771549 253.83079577609897,520.3785820383346 250.79511000181083,517.1043316269643 250.07258288364392,516.3115885718726 248.7157546665985,514.8228768971749 245.58700777264312,511.29166312830057 244.05518387211487,509.6416537758196 242.92997444281355,508.42976655322127 240.63703000184614,505.8680403679027 237.97918111283798,502.94159543840215 237.5640323983971,502.43348374339985 237.06086155376397,501.81745593080996 236.3933555483818,501.1136852760683 234.73392577422783,499.78495336475316 234.60850443376694,499.68488288641674 234.51063734048512,499.6059472639463 234.48716088896617,499.5881347086979 233.33663999999408,498.72864734655013 231.74193066661246,497.8635929871234 228.21026844449807,496.076754247013 225.80000000004657,494.74635363719426 225.16648533346597,494.3966599359992 221.95198822405655,492.80437839211663 218.59348667727318,491.05529045825824 214.91942200891208,489.2328551483806 212.50993999640923,487.9396451385692 211.7785291094333,487.5616002774332 211.63394212990534,487.4870640443405 211.10132377617992,487.21241664217087 208.26221687463112,485.74358218105044 201.52741711644921,482.2374060882721 195.39292711822782,479.0439064906677 183.93464200536255,473.09802096150815 182.359913870343,472.26446127169766 177.25480510597117,469.56179787556175 176.33534958946984,469.07471397618065 171.16077266505454,466.3346637141658 159.27854244981427,460.0014921441907 159.0536228978308,459.88026695285225 153.20900590950623,456.74816819280386 152.98222222237382,456.62662109785015 145.1704766578041,452.4403355306713 142.34272932971362,450.952353967994 135.0140569031937,447.09771633677883 131.29868999123573,445.141467775451 128.70963933866005,443.77751749625895 126.0946364303818,442.40002685115905 125.3478755557444,442.0084985847934 124.78796509874519,441.71378096193075 124.02390272007324,441.31208198843524 115.68655843567103,436.9281429781113 113.40153656899929,435.7114091257681 111.44859289599117,434.6715210673283 105.45164111652412,431.4772367789992 104.4370273280656,430.94595307228155 95.368796444498,426.19758093339624 94.823303907644,425.9114928654162 94.71346557163633,425.8538748079445 87.01741289254278,421.7608356626006 84.37654510943685,420.3850221760222 83.51082911295816,419.9356388030574 80.16444444446824,418.1936347289011 78.82946156105027,417.49867152498337 78.16113999660593,417.15050846815575 77.88201489066705,417.00367520423606 74.60279734036885,415.2752243988216 65.60817066661548,410.5446456729551 63.913147562765516,409.6526090002735 64.20765178301372,408.9718767440063 64.50865134934429,408.2744045065483 65.77728267386556,405.9252161621698 66.13813845347613,405.4068908424233 66.27727866312489,405.14660654310137 67.77281018311623,402.3435272029019 68.207794460468,401.5281454009237 68.89711667201482,400.12771016394254 70.33969510404859,397.34791923471494 70.65849133522715,396.5593109052279 71.27904443745501,395.21443006856134 72.4449735681992,392.6292457890813 73.25161978311371,390.41894669958856 74.2524273210438,387.58233873319114 75.01057689602021,385.7468335519079 76.02676354849245,383.5164482439868 76.86011932464316,382.26492617162876 77.24040288710967,380.92889692477183 77.60452090308536,378.8653478634078 77.71048533346038,376.0908806124353 78.18053865258116,374.90163616952486 78.44652743113693,374.1856837802916 78.89336644287687,372.98265314416494 79.23805667564739,372.2851177242701 79.72753777774051,371.2938987087691 80.16444444446824,369.92588968301425 80.4693761706585,368.97102619626094 80.48647378489841,368.91763991705375 80.97109065949917,367.3523313808837 81.07708421698771,366.81057464372134 81.41367711301427,365.33316300378647 81.71464755211491,364.01482315862086 81.85055465251207,363.1593022022862 82.33601621340495,361.53279881336493 82.95822956098709,360.0943249046104 84.00517444277648,357.1527081783279 84.41458511655219,356.42292571172584 84.8838228766108,355.71308690228034 86.14278400014155,354.0442786580534 86.82563999295235,353.18980403075693 87.70594867202453,352.56346509204013 87.94216954312287,352.419917176303 90.52801621332765,350.85229952732334 93.36389000539202,349.18341786629753 95.60827955207787,348.11984879133524 97.0420033421833,347.36881097592413 100.26538422040176,345.67875712760724 103.57294244982768,343.8018002756871 104.4370273280656,343.34330326790223 104.83105888718273,343.1342216162593 107.33435932453722,341.5287729508127 108.36595421866514,341.0914603872807 111.73255310230888,339.15106164931785 113.70836155745201,338.01619117707014 114.12907355034258,337.7747406223207 117.82984777959064,335.7920171424048 118.22280163574032,335.59398423635866 120.10581111477222,334.6448740462074 121.6228384426795,333.936133258685 123.1398948978167,333.5389427061309 125.20224000001326,332.97592118242756 126.02184777962975,332.89248525502626 126.87136910227127,332.8301586388843 128.28243200003635,332.7667104474385 128.70963933866005,332.7569368609693 130.08668177062646,332.72557325899834 132.93248790770303,332.76382643840043 134.63782200904097,332.78673828742467 138.71885067399126,332.89136369660264 143.23838799644727,332.8702143065748 148.19890978140756,332.7667104474385 151.70304688368924,332.60316304460866 152.67315444617998,332.5575796440244 152.98222222237382,332.5475256589707 154.60037887992803,332.4952529417933 158.83109176892322,332.2237550773425 161.5164657778805,331.8365756861167 162.5027388870949,331.8476711521507 164.0124844374368,331.5383197569172 165.1383637902327,331.3071571405744 165.15007288893685,331.3046736733522 167.08300623646937,331.0543640850228 170.34524268098176,330.5013508210541 173.15114467556123,329.9906355853309 175.07918466860428,329.6579290673253 175.39634978142567,329.6034125814331 177.25480510597117,329.29077371768653 177.9376902258955,329.17613269074354 178.61975978687406,328.9780943954829 181.96448420989327,328.1335457766545 182.6926619876176,328.0924478606321 183.6482351218583,327.9043827468995 186.21142089972273,327.1944606669131 189.95827421883587,326.3599600927555 193.3256886615418,325.6300050748396 195.0401395484805,325.1493223097641 196.86139955196995,324.7687811132637 198.13410867203493,324.50288260594243 198.77082732087,324.46170396200614 201.33485778502654,323.52260466798907 201.52741711644921,323.44405247690156 203.01933687459677,322.83494166174205 203.60109266499057,322.498900588369 203.95871533523314,322.291924051824 205.87058978155255,321.06131732056383 207.33746022416744,319.95973054144997 208.17646665975917,319.32990106462967 209.35934776894283,318.41193259565625 211.0730122240493,317.3058472890407 213.5156408889452,315.9705826699501 214.91292666317895,314.9902703250991 217.05295377084985,313.9031172579853 217.94537932809908,313.6271520978189 218.5861757725943,313.46691670367727 219.36453956272453,313.397935334011 220.37184244627133,313.4212896558456 220.8362742329482,313.50252902921056 221.42446711461525,313.60491944331443 221.8225473423954,313.7673579811817 222.02238845161628,313.8485972388298 222.04260266653728,313.8574902919354 224.2174366719555,314.9602263652487 224.85823311645072,315.28177666052943 225.80000000004657,315.9762709696661 226.11069889436476,316.20536512724357 226.37121177616064,316.39672407874605 227.98616445169318,317.5862547313445 230.67392688360997,319.5680050794617 235.23150421353057,322.92615215777187 236.3488784498768,323.7484470833442 239.4598286791006,326.04174916417105 240.86762934050057,326.99642075726297 241.88221400184557,327.6840719920583 242.0699382328894,327.81093095469987 242.80213555204682,328.27598645328544 246.55551334412303,330.6593318498344 249.30316111643333,332.0612888156902 250.07258288364392,332.3868621222209 251.63816510571633,333.0493431724608 252.138190222322,333.18729474028805 252.84775577601977,333.3018938199966 253.99262600543443,333.3241647289833 255.15934156812727,333.2095656597521 255.93764710391406,332.9803273034049 256.555811783066,332.7733997462201 257.51700644998346,332.0379763402161 258.0663728925865,331.50943946285406 258.4328793315217,331.04991787299514 258.7993857708061,330.3600330184563 258.82286222232506,330.3077598308446 259.0445486648241,329.8115044658771 259.1885822293116,329.4877302402747 259.2104275627062,329.4198349346989 259.6464895431418,328.0623654635274 260.3334233316127,325.48876455414575 260.8787411057856,322.2775033848011 260.950743324589,321.8524137791828 261.19022643205244,320.232323661854 262.0260288855061,314.5685329057742 262.30760066839866,313.203209073632 262.438672668417,312.5689556002617 262.82784000004176,311.0066492003971 263.62883555563167,309.44433275959454 263.8456868978683,309.0960149433231 264.24536911654286,308.4539391141734 265.3910257779062,306.61118648777483 265.8530108872801,305.99694586143596 266.8101860124152,304.72611621627584 267.4048451129347,303.8771167488303 268.54968621523585,302.56733706447994 268.8115971982479,302.21235931501724 270.3814902328886,300.084685289592 271.7771740159951,297.81004731473513 272.9673077760963,295.9015928469016 273.63076511293184,294.5005490578478 274.3451948942384,292.38102030631853 275.1518411093857,289.9879649596405 275.29342799657024,289.56730591721134 275.4431122203823,289.12437119026436 276.0839086648775,287.2236207825481 276.4205015610205,286.2209172723815 277.13898001087364,284.233326180547 277.45046533702407,283.3708337515127 277.6559571058024,282.3135872540879 277.806486016023,281.1728824762977 277.816185344127,281.0960794229177 277.9536944356514,279.6949502893258 278.0686300160596,277.97105197247583 278.2080323699629,276.02522131282603 278.4116600037087,273.1832717243815 278.662444430287,270.42650920705637 278.94055008725263,268.8261094009504 279.3493782186415,266.47332946571987 280.2191428836668,262.70371360128047 283.0574342258042,251.6871796551859 283.8284871111391,249.23073442128953 284.36250356642995,247.52773674816126 284.5267222186085,247.10700420779176 285.3236982328817,245.06792364805005 285.932105329819,243.62539444683352 286.14814111299347,243.11449663463281 286.25250355212484,242.93305752961896 287.01709021860734,241.61962350207614 287.0544603023445,241.54729586833855 287.840746666654,240.02792973496253 289.4435242098989,237.38435347308405 290.4047188765835,236.005252131843 290.81809083744884,235.43531265493948 291.9387564375065,233.89030231256038 293.47197843925096,232.0971146709635 293.98578067927156,231.54495815897826 294.90325555205345,230.84481276129372 298.6177777777193,228.4282297148602 299.4373855574522,227.8950193808996 301.5660822186619,226.69727547332877 303.4706748871831,225.86130771861644 305.82027155929245,225.04982195969205 307.6560951183783,224.5155222270405 308.830063331523,224.22054082428804 310.05989734397735,223.90660423896043 311.10602666670457,223.79644181538606 312.7953991112299,223.74077951686922 313.3848735858919,223.77896970580332 319.06742732808925,224.1470458774711 322.8903606614331,224.40820530126803 335.2346051130444,225.2513111209846 340.8698855539551,225.63870041357586 343.5681920000352,225.78677136200713 345.6155948943924,225.87958114448702 347.16297267214395,225.94970941107022 347.20179911132436,225.95147263567196 350.12097644084133,225.95147263567196 352.2270413369406,225.78564930928405 354.65024221874774,225.43496746447636 356.70533467037603,224.97412322409218 359.0735435662791,224.291751555691 361.71679977246094,223.49921541271033 362.91747754684184,223.06281249935273 363.03803465969395,223.01945268112468 364.07449378143065,222.48174220573856 364.9127137849573,222.04762167914305 367.732363776071,220.58604080433724 371.4355555556249,217.87556886090897 375.58619801606983,214.837573005585 377.7909455643967,213.22450391604798 384.22882355202455,208.45107755821664 387.80740955029614,205.63009919814067 389.0170002205996,204.60597856418462 392.04881208890583,202.03992704924894 394.0665344570298,200.33219007815933 395.7081384391058,198.94674652733374 397.2785848889034,197.62133187014842 400.72446776891593,195.1331590314512 402.5603204552317,194.02659265574766 403.3499564373633,193.5478137692553 404.23105154850055,193.1414962412091 407.07580910937395,192.293148901721 411.27981243736576,191.17875418090262 412.63745621347334,190.81916490674485 412.8100634737639,190.76389584399294 415.0606862222776,190.04427466430934 418.63927222043276,188.99331530294148 419.9807504498167,188.3400204483769 423.49945110746194,186.62749784375774 425.66540134418756,185.13452162512112 427.9235388871748,183.3275472096866 429.5376760036452,181.85238656279398 431.0417417671997,180.41842002409976 431.31847844982985,180.15565015922766 432.64052889612503,178.16494677128503 432.8184955448378,177.82762339804322 433.57664512004703,176.39467522047926 434.2514037762303,174.02873506885953 434.63655156630557,172.90427613689099 434.9844457815634,171.63275027211057 435.3331555555342,169.65977370610926 435.4325663858326,168.69121643871767 435.4378675201442,168.6399105329183 435.51683111826424,167.87056114472216 435.6632531058276,166.30287495825905 435.774081763695,165.1248690339271 435.8655117654707,161.079746643838 436.0119920071447,151.7867771179881 436.23204733175226,148.20354578353 437.9598384356359,135.23534129705513 437.99423755379394,134.97701244067866 438.3615595520241,132.76320625917288 440.5889971200377,133.2509645394748 444.25333333329763,134.0538573549129 449.6460431930609,135.23534129705513 459.6890711039305,137.43573559087235 466.99819923902396,139.03660021111136 468.5259162170114,139.37117132579442 479.141932657687,141.69615925650578 492.79852822760586,144.68808828812325 498.68310761253815,145.97731308051152 512.4884553386364,149.00081722310279 512.8371651129564,149.07649954862427 517.0711111112032,150.00420741032576 518.3154795521405,150.27691107813735 518.8114560001995,150.38598444248782 530.3681033671601,152.91730652062688 533.8944644550793,153.68970965989865 534.5684075522004,153.8367020804435 537.8614022259135,154.55823435186176 538.0021735539194,153.86343889782438 539.986050218693,144.05459741310915 541.3436939948006,137.3440946515184 541.7703187912703,135.23534129705513 542.1730011022883,133.24539222643944 543.0549117724877,133.43024061701726 547.2166225351393,134.3014034111402 551.6780221438967,135.23534129705513 556.7899757795967,136.30549492227146 565.6163060052786,138.15198490855983 569.9214386632666,139.05263526184717 576.3383160036756,140.39660927822115 577.6603664497379,140.64944040204864 578.9597560036927,140.89882375317393 582.4954668942373,141.54134248220362 582.8263800034765,141.61153518524952 583.6362593279919,141.7818656520103 583.768962446251,141.02914759836858 583.8935682277661,140.32092424819712 584.1880724480143,140.35764431854477 588.6040337635204,141.1894967428525 589.888888888876,141.4439305306878 590.9771068871487,141.6593592139543 602.6870211130008,143.9744237998384 604.392559104017,144.31179418595275 603.4176164409146,149.41394302045228 607.6815051094163,150.50736407883232 609.5383584427182,150.98394291644217 611.2503917797003,151.35253024828853 612.2933171199402,151.49840168707306 614.1614717725897,151.76060126931407 614.7529268907383,151.84353821340483 619.2433371022344,152.74882778897882 621.7863377920585,153.29887854808476 628.8439533227356,154.8243589635822 629.1433217708254,154.88889584166463 629.5891413334757,154.98582138150232 629.6622795093572,155.0016148694558 638.4340837831842,156.8978681699955 653.8941135645146,160.24018601182615 654.0219524552813,160.268044479948 660.0027095609112,161.46944288699888 661.383625898743,161.72553895646706 661.9898193352856,161.83801430882886 662.7066666666651,162.02949485823046 663.7196493371157,162.30010066943942 665.6331257742131,163.07728401385248 666.8103270969586,163.70527391735232 668.6137904356001,164.44457392278127 670.6931748978095,165.1015004553483 675.2564028872875,167.05996391252847 676.228112441022,167.3506055987673 676.6731455717236,167.48420205368893 677.4651991040446,167.52204034017632 678.7710840037325,167.52204034017632 679.7282300018705,167.26262349501485 680.3172384428326,166.81946577114286 680.8318271146854,166.20936100109247 681.678930887254,165.4878633360495 681.9362397866789,165.37759425421245 682.3407571057323,165.4143506202381 683.3529533441179,165.59917453228263 683.7397031254368,165.59917453228263 684.3100702152587,165.45106689765817 684.8432711111382,165.2294864844298 685.781804885366,164.71176995552378 686.1863804587629,164.60154060466448 686.6467344497796,164.58262123464374 686.9792495502625,164.58262123464374 687.2171597938286,164.58262123464374 687.5116348870797,164.55476326134522 687.8797724446049,164.25862679531565 688.0642635663971,163.7597875491483 688.4687808853341,163.09395881620003 689.002768213395,162.6140767869074 689.3337104497477,162.52168375480687 689.7754522169707,162.52168375480687 690.6581784463488,162.65079348749714 691.0751912961714,162.87217583449092 691.9462375538424,163.3344606460887 692.6825126684271,163.6117188766366 693.7132920037257,163.88893670740072 694.375118222204,164.03704529447714 695.1478022257797,164.48020809417358 695.368673109333,164.6650327167008 696.086336000124,164.84095869091107 696.5653313421644,164.85987804067554 697.5766828942578,164.7028714424814 699.2328504320467,163.88893670740072 699.9691546738613,163.55604278785177 700.6131551004946,163.37121732148807 701.4044804552104,163.3344606460887 702.3607817671727,163.40905624849256 702.6189062257763,163.37121732148807 703.2993446685141,163.11287830222864 704.1828864568379,162.6318739656126 704.514585998375,162.65079348749714 704.8454991076142,162.89129575621337 705.1772569031455,163.31666351883905 705.5631619984051,164.4067351569538 705.7476239929674,164.6282361538615 706.1060622222722,164.9968027829891 706.1335582151078,165.02578303904738 707.34801311302,165.50678263546433 708.4152013369603,165.94882042473182 709.8141182294348,166.89189581968822 710.4734977707267,167.3851170212729 711.2494440106675,167.96407446236117 711.2518615610898,167.96619885374093 712.0080887466902,168.6399105329183 712.2243866738863,168.83254811970983 712.555270656012,169.31354017858393 713.0156537741423,169.7756123197032 714.3587339947699,170.6997539649601 715.4259513458237,171.45795152027858 716.0513686756603,172.23286096641095 716.4194771058392,173.04560536681674 716.7326226774603,174.13675564114237 717.1921611094149,175.44835002283799 717.3631372516975,175.7465971718193 717.8175784392515,176.53940934233833 718.296573781292,177.09385526459664 719.4559784393059,177.97235666611232 721.3694548766362,179.37519472971326 722.8784431219101,180.11556931282394 724.4423942258582,180.87265530246077 725.4545613368973,181.59410727676004 725.9699655680452,182.2409673113143 726.4117073350353,183.34983186639147 726.8348660053452,185.04987260478083 727.2766368995653,186.08421588153578 728.0492917760275,187.04500850464683 729.2087255609222,188.46783391741337 730.5340091165854,189.3551517216838 731.6562184534268,190.35376613971312 732.4474855539156,190.85255078144837 733.2565784462495,191.11975784960669 733.9863873422146,191.23217951471452 734.8779682132881,191.76102155121043 735.5244444445707,191.96438194916118 735.7768891166197,192.04373814805876 736.6021475555608,192.39891693921527 737.1644755627494,192.81641768210102 737.4087937705917,193.06246103032026 737.6531411058968,193.45543250098126 738.4816617813194,194.83481544582173 738.9784537885571,195.37026256561512 739.3838157939026,195.66644126648316 740.5246082276572,196.12846328737214 741.205017543165,196.40456190536497 741.5731842276873,196.9032940469333 741.6739931592019,197.19943080091616 742.0513348836685,198.30826716317097 742.2535935431952,198.75132737349486 742.3272268800065,198.86266340775182 742.9162644480821,199.23226020135917 743.7075315485708,199.5640231423895 743.9470437831478,199.7488210760057 744.0756982329767,200.2119575047982 744.0570568818366,200.93222988501657 744.0942813297734,202.02213275711983 744.0962328463793,202.03992704924894 744.1679146668175,202.70673113455996 744.3879991184222,203.26115741982358 745.0514273281442,204.2686117468984 745.6032113209367,205.17258383752778 745.7504779947922,205.70921047392767 746.505365333287,209.81141944648698 746.7626742330613,211.75176901760278 746.736751104123,215.51215659745503 746.8589393350994,216.99825367575977 746.9317571130814,217.56266601925017 747.1307826632401,220.279913997103 747.2408248888096,221.2406114792684 747.4066746595781,221.79495540104108 748.3816173225641,222.71889920101967 749.7619219912449,223.75412404321833 751.8413064533379,224.7503930485691 753.7911917796591,225.82235646416666 754.8200487253489,226.38169908575946 756.680426439154,227.39298471278744 758.6125442276243,228.46497654356062 759.6829364338191,229.06494688009843 759.7970273279352,229.103216377669 760.3059362133499,229.2741667512455 760.9864037832012,229.4077692332212 761.59399532096,229.42447955650277 762.6798248960404,229.29532515758183 764.3352060018806,228.57513685052982 766.3773368889233,227.55884701554896 768.4566922241356,226.37556788348593 770.112073329743,225.23015236255014 771.823291107663,224.3797130100429 772.265062001883,224.25059600331588 773.8662375537679,223.881037264131 775.854162887088,223.80754221469397 777.6204017779091,223.58601501729572 779.5703162313439,223.06842282635625 781.0614495574264,222.75340275937924 781.9991968995892,222.2914313642541 783.7095991183305,220.88771899824496 784.0696393387625,220.62367045070278 784.6594633387867,220.19098927697632 784.8690037761116,220.03722437296528 785.6974953244207,219.5563327241689 787.7954920106567,218.81720040430082 788.8812633316265,218.4665886515868 791.3101439999882,218.15268470655428 792.947728440864,218.00348701735493 793.201454705908,218.05434167920612 794.6953551075421,218.3540994382929 795.5238757831976,219.00090168532915 796.3151428835699,219.92481603543274 796.5538395592012,220.51707314129453 796.9405602134066,220.90442990744486 797.6582522311946,221.07141871389467 798.485928220558,221.18158237292664 799.2958075449569,221.1637894824962 799.7545886720764,221.0157557912171 800.5652835555375,220.6272370517836 801.430183992954,219.62982905947138 801.9083929032786,219.2235150715569 802.7360688925255,219.00090168532915 803.4909562311368,218.92744523420697 804.55811532808,219.40833812771598 806.2871588978451,220.79422604857245 808.3422222222434,222.3363942676806 808.771847111173,222.65878846030682 810.5931071147788,224.04573982948205 811.2371366685256,224.2850592706818 812.0834540089127,224.4153383919038 813.2792966826819,224.3964236791362 813.5475573759759,224.3964236791362 815.8926102188416,224.3964236791362 817.3643448889488,224.17489701864542 818.52374954673,224.1381495411042 819.7560011093738,224.45204575388925 821.3199522134382,225.28361028293148 822.4607737743063,226.13180236937478 823.6202075590845,227.31508268869948 824.3564535467885,228.0352747302386 826.2699882382294,229.40332116140053 826.9511839859188,229.86527903564274 827.687488227617,230.50307439395692 828.2206599963829,231.42698508308968 828.975547335227,232.3319781643222 830.3000153317116,233.5519342792104 832.5080251164036,235.32507531438023 832.6143390720244,235.43531265493948 832.6148051058408,235.43575344391866 833.6488466772716,236.50718886428513 834.458726001787,237.85627393558389 835.0477344427491,239.3712458286318 835.5259142258437,240.51767660904443 836.0040648818249,240.9974047942087 836.8325855573639,241.44154922262533 837.9183568782173,241.69976489944384 838.580212224042,242.0136784981005 839.323973006336,242.49709022179013 839.5187459982699,242.62363301892765 840.2177966649178,243.4918398518348 841.0835126613965,244.500289429212 841.7825633281609,245.2193085773033 842.3343473209534,245.4040317221079 842.9970182258403,245.4775202399469 843.8805600143969,245.5153864523745 845.3158566685161,245.36732752481475 846.8976044374285,245.27496595610864 849.0692053334787,245.31167016725522 851.5158826668048,245.45972912869183 853.4480004552752,245.82925505220192 854.3120853335131,246.1431633165339 856.1527731200913,246.9934864367242 856.8874171164352,247.23771186178783 856.9262435556157,247.25061433017254 857.8639908980113,247.43537600070704 858.8024955448927,247.30623117403593 860.1091960036429,246.93674756615655 861.5259095609654,246.6039674123749 862.268621767289,246.4391999960062 862.979847566341,246.32676380104385 862.9425939911744,246.19765845529037 862.7209075484425,246.00957003544318 862.2435433245264,245.34729248046642 861.5631340090185,244.20192631159443 861.268600661424,243.417268832447 861.2313762133708,243.15897483984008 861.157772003673,242.4934037300991 861.2119775573956,241.84670408267993 861.470072889002,240.40527774504153 861.7771308942465,238.95514741906663 862.0218568819109,237.79953293164726 862.5000366648892,236.37699636881007 862.6294775466667,235.87834524316713 863.1427846258739,235.43531265493948 863.1440662187524,235.43419064657064 864.8002628836548,234.54816311469767 865.131175992894,234.36335157370195 866.3642139876029,233.6420562705025 867.4127899875166,232.95866706746165 868.111840654281,232.4599287827732 869.1612613404868,231.46148740506032 869.6039643023396,230.99656720343046 870.1904095574282,230.38065275829285 871.0189302328508,229.4378237707424 871.4234475520207,228.7543425980839 872.0124559929827,227.60897836333606 872.2883479893208,226.944406562543 873.3361375574023,225.31811347714392 873.8142882133834,224.5054637718713 874.0910248960136,223.58160691265948 874.4405502292793,222.34260571975028 875.1581839929568,220.73523690801812 875.985073550255,219.10886218998348 876.9972406614106,217.51922507031122 877.1445073351497,217.12184422148857 877.1072828872129,215.6446445467882 877.1259242382366,215.0713310795254 877.4203993316041,214.55480278027244 878.4681888995692,213.6486614528112 880.7603760355851,211.90505825768923 881.160000000149,211.60104452300584 881.6511122203665,211.22741889656754 884.2272595628165,209.17685600998811 885.2029886577511,208.49227586295456 887.3365786737995,206.90369142388226 889.5065193246119,205.11134660750395 891.0890826525865,204.03039474302204 892.046257777838,203.32792574487394 893.2472559502348,202.03992704924894 893.4071346630808,201.86847658653278 893.940335559193,201.12925038021058 894.5479562239489,199.79783598898211 895.2470068907132,198.44853959209286 897.1969213439152,194.67895041499287 898.7600568889175,191.22324189404026 899.0359488853719,190.7523530650069 899.6985906631453,189.34733625303488 900.4898868907476,187.27767108916305 900.582103324472,186.57515365153085 900.489071331569,185.4840993223479 900.4378367430763,185.18049340561265 900.3054248960689,184.39416233741213 900.4154379947577,183.85865094617475 901.243172238348,182.38012676412473 901.7399059912423,181.4015198898851 901.9794182258192,180.55088703107322 901.9608060019091,180.08883538463851 901.4640139947878,178.27737443137448 901.3725839930121,177.36219974252163 901.354000896099,176.80775443278253 901.3531853370368,176.29006257810397 901.4818106595194,175.80908433219884 901.6654862222495,175.27351393480785 902.089431324508,174.3861847789958 903.1744162134128,172.48341435805196 903.4325406720163,171.76297746493947 903.5239415466785,171.1528851102339 903.5814093369991,170.48703655827558 903.5975748837227,170.3022163651185 903.8548837831477,169.41486905090278 903.8710493298713,169.34360215062043 903.9648968819529,168.91608047561022 904.221069824067,168.6399105329183 904.4616888889577,168.38049488142133 905.2343728925334,167.62224763823906 905.4325828837464,167.4487687376095 906.0992733298335,166.86516043631127 906.7991395556601,166.38416352961212 907.7546835627872,166.0144766762969 908.1778422329808,165.8296931636287 908.785462897853,165.40432980138576 909.797630009125,164.63717475283192 911.2693355521187,163.17637080332497 912.1156528925058,162.30899927049177 912.741070222226,161.95826587517513 913.5007926613325,161.7622557913419 914.2095717830816,161.63983959751204 914.8082795521477,161.59081698517548 915.4450273280963,161.38482570409542 916.4936033281265,160.8303439267911 916.9903953352477,160.5530825216556 917.3771159894532,160.47956831252668 917.6344248889945,160.5530825216556 917.745282673859,160.8303439267911 917.7167089777067,161.27170879853657 917.6902615610743,161.68104584130924 917.745282673859,162.4370268546627 918.0025333192898,162.97370781208156 918.2970666667679,163.15853358095046 918.6838164480869,163.3611964181764 919.2170173439663,163.34339929290581 919.7510046721436,163.26876358652953 921.1491060053231,162.73320562497247 921.8845655610785,162.60401576856384 923.1548280037241,162.6586098150001 923.8724617671687,162.60401576856384 924.939679118339,162.12301042448962 925.5270564409439,162.04953677440062 926.3555771165993,162.28895737585844 926.9996066703461,162.6586098150001 927.4041531166295,162.78888190252474 927.9009159966372,162.78888190252474 928.3612991147675,162.71428610949079 929.1703920072177,161.95714352751384 929.7051948942244,161.05068574898178 930.1631313350517,160.2747385285329 930.7335566792171,159.62782000057632 931.5434360037325,159.27600045822328 932.7392786775017,159.11005144863157 933.8622744462918,158.99869719450362 934.2239166578511,158.9742457496468 934.4132720071357,158.96197994193062 935.0944968818221,159.03653680288699 935.8485977884848,159.23920307902154 936.3453606684925,159.2024858627119 936.768519338686,159.11005144863157 937.3575277795317,158.4820496654138 937.7628897849936,157.33631401049206 938.1115995593136,156.76402538467664 938.2766337706707,156.70834772638045 938.7556291130604,156.76402538467664 939.4174844586523,157.20716136851115 939.9328304356895,157.5389817050309 940.2087515592575,157.5389817050309 940.4482637938345,157.4276267309324 940.6877177741844,157.02233107137727 940.9264144496992,155.56256362068234 940.9814064357197,154.6929602235905 941.1473144604824,154.5638061760692 941.2023064462701,154.5638061760692 941.4781984427245,154.6194843259873 941.613348238403,154.84215671295533 942.0122148977825,155.45120774034876 942.1966768925777,155.57258484576596 942.435344440979,155.65499938459834 942.7128675556742,155.68947238381952 943.0259840000654,155.68506304710172 943.144123562728,154.40346586023225 943.2177568995394,154.04382214677753 943.3229348977329,153.53494061494712 943.7420448996127,150.9471843666979 943.9022148835938,150.3158744465909 943.9666149262339,150.18667798599927 943.9888097849907,150.14214267133502 944.2541868941626,149.87605301570147 944.6142271148274,149.69454426749144 945.0373857849045,149.56759228627197 946.0341737814015,149.52301677217474 946.2922691130079,149.57316422497388 946.4039424569346,149.64664164895657 946.8699762348551,150.25903282267973 947.1450235450175,150.52516214473872 947.4525184568483,150.6955665324931 947.6644764444791,150.74900077009806 948.178220430389,150.72450840915553 948.2769613368437,150.575309390435 948.2769613368437,150.3158744465909 948.0633431040915,149.66668458667118 947.2664253440453,147.65344340004958 947.1434215538902,147.15793730079895 947.130489116651,146.81163161282893 947.2049088852946,146.43975030520232 947.4937624463346,145.98545063653728 949.7462493297644,144.567908345256 950.2414102187613,143.37424328993075 950.6127808853053,141.23515614244388 951.316695779562,139.5670792159508 952.2277335609542,136.59497076808475 952.4744984463323,136.17404607590288 952.745526215178,135.95023410685826 953.7157794134691,135.23534129705513 953.8548031147802,135.13287569402019 953.9777777778218,135.0405523851514 954.0521975468146,134.9847494821297 954.2002797796158,134.68745449004928 954.5449408852728,133.4502848930424 954.6929939913098,133.17748215561733 954.841076224111,133.00486060313415 955.7027435521595,132.2365208256524 955.9001671113074,131.9647590336972 956.0975906703388,131.59285499417456 956.3686184391845,130.55278746696422 956.566041998216,130.23095253342763 956.9851520000957,130.03271194419358 959.6721571271773,129.71091641066596 960.7207331272075,129.51263530779397 960.9423904427094,129.33892874151934 961.3392764587188,128.51846119906986 961.3615295714699,128.47255887271604 961.6819277938921,127.92694190971088 961.9780340052675,127.43135547661223 962.8898873458384,126.44138226815267 963.1609151148004,125.94579280371545 963.3089682204882,125.54938464792212 963.3817859982373,123.69189432595158 963.4562057671137,123.39454542059684 963.6536584533751,123.22079438832588 965.1569086578675,122.4891865211539 965.5267064605141,122.21741382248001 965.7977051023627,121.84549485717434 966.2912640001159,121.05262442340609 966.6359542330028,120.7062414221582 966.9814308978384,120.43338427960407 968.3366571236402,120.21072043653112 968.6812891023001,120.0369671267108 968.9523459982593,119.76523177477065 969.4701677795965,117.98230677016545 969.7412246757885,117.53685411199694 969.9637266775826,117.38871716812719 971.0478960070759,117.2150019305409 971.4661613226635,117.0657422352815 972.0333244304638,116.64478369645076 972.3780146632344,116.57129628810799 973.2656051201047,116.44657210895093 973.5366620160639,116.34858881303808 974.2518782294355,115.90197050647112 974.843304220587,115.63027061964385 975.5334711183095,115.50554595713038 977.2341740088305,115.38190370210214 977.973682233016,115.15923522773664 978.2503606614191,114.974092289689 978.4914748871233,114.81284382124431 978.9599262152333,114.01991033658851 979.0829300052719,113.47538347612135 979.0335595520446,113.32612148259068 978.5408453405835,112.68240553280339 978.6387415609788,112.50868692877702 979.5263028907357,111.2457854267559 980.0432799858972,109.9572582973633 980.4130777885439,109.43717876280425 980.9551624533487,108.8925614421023 983.0652468906483,107.35680939402664 983.0900049352786,107.33275367849274 983.7796766720712,106.6629614122794 984.1243377778446,106.01922780106543 984.9374793387251,103.8754013516591 985.1842442241032,103.50341420318 985.5289053297602,103.30627441505203 987.3291064320365,102.3395774824894 987.9532421688782,101.82617729413323 988.1414615608519,101.67133510310668 988.4375677724602,101.37399932957487 988.4869382259203,100.97751097125001 988.4618597832741,99.16991037857952 988.5362795520341,98.7244232132798 988.6835462258896,98.27897532528732 989.2757877761032,97.21310462290421 989.4230544498423,96.76761386817088 989.4723957760725,96.27200394193642 989.5217662295327,94.0177498649573 989.5451552995946,93.86198050813982 989.5961859981762,93.52217442163965 989.7685311146779,93.15125398448436 991.3454437832115,91.83817264006939 991.5177888995968,91.4416687124758 991.7645537849749,90.62412039708579 991.813895111205,90.47600713168504 992.6027446615044,89.80664952087682 992.7508268943056,89.58387740404578 992.9725133369211,88.44447261688765 993.2192782224156,88.02346446318552 993.514598001726,87.67707444535336 994.7468204374891,86.48870313045336 995.2047568782,85.6533353208215 995.8803602205589,84.4192840285832 996.0777837797068,84.19538426224608 996.2752073387383,83.97264709445881 997.014686435461,83.45247181149898 997.3844551111106,83.00695581181208 998.0980693333549,81.27279975527199 998.4678380088881,80.80161752318963 999.3060288853012,79.95957398391329 999.4541111183353,79.68783388129668 999.479189560865,79.43943020160077 999.5034524444491,78.8201641345513 999.5541918721283,78.67388815851882 999.7008760035969,78.25101857230766 1000.0455371093703,77.82999274536269 1000.5633588907076,77.48246544844005 1002.5229726720136,77.1117610973306 1003.3134242134402,76.96231636003358 1003.6832220160868,76.73953245952725 1003.9785126686329,76.36754383903462 1004.05296156439,76.02109709597426 1004.05296156439,75.62460743909469 1003.5845102365129,74.68342308804858 1003.5594026668696,74.50963720103027 1003.6257542259991,74.2601455693366 1004.0853217850672,73.71544935140992 1004.6274064498721,73.23318527115043 1004.9194639929337,72.79210146231344 1005.0036413441412,72.35209951543948 1004.6904957725201,70.40285684057744 1004.731798016117,70.04641693201847 1004.9405228942633,69.64767197042238 1005.3369720035698,69.35470788774546 1005.9454082276206,69.09294061193941 1006.6509251130046,68.78778569557471 1006.9429826561827,68.5159528919612 1007.019732593908,68.41237645375077 1007.735910001793,67.44558070093626 1008.0077824569307,67.34084092173725 1008.8419246649137,67.06904659763677 1009.1340113352053,66.8796966393711 1009.3637951147975,66.52329165843548 1010.2821146738715,64.40466016292339 1010.8864731023787,63.356445217039436 1011.1995895467699,63.063513643690385 1011.5750380089739,62.79063182591926 1012.5976908799494,62.45531358662993 1013.9003426702693,62.20584966917522 1014.5670331163565,62.07772913592635 1015.4011753244558,61.76250020629959 1015.7555940125603,61.44839367980603 1016.1099544462049,61.007288462657016 1016.6318248960888,59.83322287147166 1016.9449122134829,59.68621364387218 1017.2790875590872,59.66504045802867 1018.1132588943001,60.21081081259763 1018.5727973262547,60.379032948520035 1019.0526082275901,60.379032948520035 1019.59547932446,60.18963767256355 1019.844690887141,60.08497496455675 1020.0534448925173,59.64499009109568 1020.264616448083,58.6769965023268 1020.5461882312084,57.57085087930318 1020.7702922242461,56.781058858381584 1021.1109337887028,56.469191557960585 1021.5575397833018,56.31989452021662 1024.5479328996735,56.66745210753288 1025.1086006615078,56.559379275364336 1025.4354942294303,56.41016249579843 1025.8521575537743,56.31989452021662 1026.416903111036,56.41016249579843 1026.7955555554945,56.66043439263012 1027.7632164409151,57.30020855116891 1028.0779348764336,57.41156934411265 1029.509241116466,57.63212531915633 1030.235816903296,57.7947751970496 1030.662995114806,57.975229815754574 1031.115280896076,58.25926511391299 1031.4639906702796,58.67587367736269 1032.4340982330032,59.24510522536002 1032.8297317831311,59.39211472007446 1033.2682404408697,59.55921460228274 1035.7100826737005,59.97914929169929 1036.836311551975,60.08385214593727 1037.2529748764355,60.062678994843736 1037.5248473316897,59.957976131583564 1037.6567057636566,59.87220075324876 1037.685046442668,59.853273222921416 1038.2967157762032,59.45447142102057 1038.7764975503087,59.37094150861958 1039.3606708907755,59.39211472007446 1039.9868746525608,59.475644625141285 1041.9271189048886,60.145125951617956 1042.4489311005455,60.145125951617956 1042.865623552003,60.02037278783973 1044.4312057744246,59.222809178580064 1044.8899577744305,59.13923908572178 1045.2864360107342,59.160412317258306 1047.3309553209692,59.89445663976949 1048.0405500017805,60.3968376207049 1048.1449415680254,60.607405840593856 1048.1659422152443,60.79563787486404 1047.9750140018295,61.252302459441125 1047.837446656078,61.58204840234248 1047.7274335573893,61.84494658606127 1047.7687066737562,62.116706657456234 1047.977431552019,62.306100430258084 1048.3739097885555,62.4108022810542 1049.0422022258863,62.4108022810542 1049.3755328854313,62.53663692367263 1049.4798953245627,62.7460804816219 1049.229897329933,63.75303510698723 1049.229897329933,64.0883114541648 1049.4176215609768,64.34001903556054 1050.3432228979655,65.09526051318971 1050.4896448854124,65.38818963541416 1050.5729775502114,65.63997606886551 1050.46861511108,66.41634600248653 1050.510703786742,66.77275114040822 1050.7817606827011,67.69391645188443 1050.844034446287,68.13500952185132 1050.9013274739264,68.41237645375077 1051.0681384392083,69.21973417140543 1051.19923956634,69.85482374887215 1051.4289942187024,70.3571841220255 1051.721080888994,70.86066622467479 1052.950914901332,72.24515642650658 1053.5358746737475,73.08389854076086 1053.7410460446263,73.56612281908747 1053.848175559193,73.81794087088201 1053.848175559193,74.51521086198045 1053.7438131200615,74.9763406435377 1053.4314831075026,75.73150894150604 1053.389394431957,76.15029291837709 1053.389394431957,76.5279356824467 1053.4937859983183,77.13606039388105 1054.286713344045,79.8615759651293 1054.4242224355694,80.109979213099 1055.0173086719587,81.18254102219362 1055.4760606719647,81.58126704255119 1056.0812637867639,82.00012112502009 1056.4987426704029,82.14711684372742 1056.826393543277,82.17718960659113 1058.5845642241184,82.33645489695482 1059.690578887239,82.62940331769641 1060.4422331164824,82.92347409814829 1062.7586248818552,84.22325145429932 1063.9472149049398,85.06082949321717 1065.324257337139,86.25590388476849 1065.971520000021,86.96873559331289 1067.7652840107912,89.13059405528475 1068.3623606613837,89.71198342496064 1068.7547611021437,90.01157883787528 1070.1722902187612,90.40583974379115 1070.5461075627245,90.53727326868102 1070.9563046684489,90.7812149853562 1071.5105353387771,91.22779930138495 1071.9280433492968,91.43721811362775 1072.5534606791334,91.47839617391583 1074.472587776021,91.39487727696542 1075.3407504499191,91.44844484940404 1075.808386218734,91.47731359605677 1077.1760788480751,91.74350733612664 1079.6887582151685,92.23243058042135 1080.8158317796187,92.10653113474837 1083.8321188978152,90.50054566486506 1084.335347996559,90.43482890137238 1084.6266191075556,90.53282265324378 1085.0004364517517,90.7934441412217 1086.1032180055045,91.85260699072387 1086.4923853370128,92.40724626270821 1087.2424084481318,94.32964913378237 1087.5765546666225,95.04241704795277 1087.8386986666592,95.29192742344458 1088.4552322275704,95.7162107481272 1089.2975008996436,96.5314966206206 1089.6381133369869,97.39352995029185 1089.8500713246176,98.15087382378988 1089.9795413333923,99.71567213861272 1090.293385955738,101.82617729413323 1090.5394226630451,103.48112221964402 1090.5582096497528,103.70039345731493 1090.7012237655,105.37108223326504 1090.7497786595486,107.75104214117164 1090.8735688818851,108.76450563140679 1091.1235960037448,110.0653073671856 1091.6664962274954,111.57430081785424 1092.9602351218928,113.50208464509342 1093.669771548477,114.29942990874406 1093.8862733654678,114.45470505702542 1094.2539448889438,114.71822756406618 1097.050147555652,115.7249266129802 1098.0105557902716,116.27061107993359 1099.304265557439,117.61254624213325 1099.6133333334,118.04152132256422 1100.180496441084,118.82862848759396 1100.773582677357,120.42452423501527 1101.038144227583,122.03925200062804 1101.1134086827515,123.40677293430781 1101.038144227583,124.6417486507562 1100.8302057815017,126.42686979362043 1100.5283906559926,128.1173266894184 1100.0979793352308,129.61398078454658 1099.6133333334,130.24161622888641 1098.838231779635,131.2454046239145 1098.1788231111132,132.7164628728642 1097.9288251164835,133.55607855389826 1097.5086665387498,135.23534129705513 1096.1350902329432,140.7251253297436 1095.6763382329373,143.74388442724012 1095.5930055681383,145.1692083310336 1095.6763382329373,145.7983669557143 1096.1358766648918,147.8527519349591 1096.260482446407,148.43961280217627 1095.9279382185778,151.12312027590815 1096.052544000093,152.46374050423037 1096.344630670268,153.63739845523378 1097.1383153210627,155.69171713711694 1097.7224886612967,156.61478999099927 1099.4749795557,158.00773027038667 1099.6133333334,158.20462524198228 1099.9766066630837,158.72147378308 1100.3528415574692,159.76923712319694 1100.3940855467226,160.02084555861074 1099.8099413333694,161.06860329408664 1099.8099413333694,161.4460739569622 1099.9766066630837,161.86471016175346 1100.3633564446354,162.4766696965089 1101.3544937814586,164.0448615772766 1101.9499684410403,165.14603302750038 1102.082671559183,166.4565135417506 1102.6126393458107,168.58311327948468 1102.6192511998815,168.6399105329183 1102.773654016084,169.95598375314148 1102.941105777747,170.58503810013644 1103.3690995485522,170.99476027314086 1103.766393343918,171.3655217694468 1105.2785855717957,172.5134358559153 1108.1160322275246,174.81814589904388 1108.4922671219101,175.22008509136504 1108.7196042239666,175.6386975600617 1108.7002055679914,176.07626786531182 1108.4914224357344,177.41787266748725 1108.4509648783132,178.21396603918402 1108.7009920001728,180.35160532180453 1108.743080675602,181.31574731052388 1108.5763862186577,181.9025273420266 1106.990589781315,184.50105605722638 1106.6985031111399,185.2981682983227 1106.114358897903,187.4046033648192 1105.447668451583,190.42278244433692 1105.5730606649304,191.09302513237344 1106.8247400108958,193.35635806055507 1106.8706734649604,193.45274723152397 1107.2842784428503,194.32048851967556 1107.7009708943078,195.36809833551524 1108.4946846720995,199.7276600964251 1108.661583018722,202.03992704924894 1108.7034095502459,202.61992407089565 1108.7883733332856,205.0501093621715 1108.4954711040482,207.48143256042385 1108.1208673280198,208.86518432520097 1106.993822890683,211.42222688090988 1106.74379576894,212.4798219143413 1106.5779751255177,217.04950929555343 1106.786700003664,217.76191720936913 1107.2454228765564,218.26509386417456 1109.415421781363,218.8929411325953 1111.3353935646592,219.9404049308505 1112.0870186666725,220.48585534887388 1113.2132766720606,222.03652119945036 1113.9381922133034,222.6231227471726 1114.4811215646332,222.79123243928188 1115.1992504888913,222.80501782963984 1116.5677295502974,222.8313062460511 1117.4027164446888,222.91590203088708 1118.5710339983925,223.29215455049416 1119.7814111004118,223.41794594889507 1120.6997306596022,223.37675017496804 1121.9093213299057,223.2509587551467 1122.8688848783495,223.2509587551467 1123.7038717725081,223.41794594889507 1123.885916216881,223.4902789791231 1125.4984222151106,224.13145725196227 1129.212944440893,226.51919025805546 1130.840858681011,227.90171156649012 1131.0495835592737,228.2790383346728 1131.0908275485272,228.74099834635854 1130.7995564375306,232.2184534908738 1130.882889102213,233.26585984852863 1131.008310442674,233.89479037403362 1131.3424566613976,234.5659550249111 1132.163054762641,235.43531265493948 1132.8449495610548,236.15772464027395 1133.1790957795456,236.6196696740808 1133.3457611093763,237.28970479930285 1133.1798822114943,239.0506770092179 1133.3044879930094,239.55372944037663 1133.5132419983856,240.22271463100333 1134.3061402168823,241.60627995693358 1134.4736502330052,242.1082852614927 1134.5148942222586,242.86293416435365 1134.3314808036666,243.74973278713878 1133.6394788977923,247.09590487281093 1133.6394788977923,247.6935853086179 1133.890263324487,248.44717505801236 1134.641131121898,249.4110468806466 1134.8498560001608,249.78725837898673 1134.8919446757063,250.20686433900846 1134.6831615432166,251.7573004742153 1134.6840062293923,252.38618314417545 1134.7673388941912,253.01506418694044 1135.100669553969,254.27274125267286 1135.0593964374857,254.60775474488037 1133.5148731166264,256.7447220575996 1132.0131957760314,259.1755280805519 1131.4290515627945,259.9301239862689 1131.1377804516815,260.39090194075834 1130.9290264463052,261.3124552288791 1130.9290264463052,262.5690476074815 1131.0956917760195,263.1978622332099 1131.9306786702946,264.49667541478993 1130.7235929315211,264.49667541478993 1129.2606837759959,264.49667541478993 1128.3423642169219,264.74825555901043 1123.885916216881,267.3233009901014 1122.2499628941296,268.2685071832966 1121.556184234796,268.8261094009504 1121.3660424534464,268.97892191429855 1121.2070375538897,269.10657277621794 1119.6624851058004,271.0341887983959 1119.2870948979398,271.7475603101193 1119.2457926542265,272.5856539721717 1119.3712139948038,275.22552194201853 1119.2457926542265,275.9377593303798 1118.9124911219114,276.56657943315804 1117.3687542330008,277.95991398225306 1117.159971100511,278.21144012588775 1117.0353944464587,278.75567802699516 1116.9100022329949,280.7254853186896 1116.6599751111353,281.47893258731347 1116.2845557759283,282.06539067067206 1114.6566706631565,283.5322107729153 1114.4066435414134,283.99294398294296 1114.2391917795176,284.9989819593029 1113.99000934395,287.93253784114495 1113.947920668521,288.51898035319755 1114.0312533332035,288.97970411059214 1115.2012020053808,292.3316234398517 1115.427869184059,292.93367961462354 1116.4949408996617,295.7669051839039 1117.57992578845,299.03528337017633 1117.9140720071737,299.78979559527943 1118.4149126828415,300.25049798976397 1118.8893933227519,300.60411653120536 1119.8752877794905,301.33879376150435 1120.5436093440512,301.54799148463644 1121.3364784356672,301.54799148463644 1123.4231446756748,301.33879376150435 1123.885916216881,301.3582633387414 1124.4247968995478,301.3810579656274 1125.0922737778164,301.5902957133367 1126.1351699911756,302.0509946953971 1126.5526488748146,302.13552284863545 1127.5955742150545,301.8417573442566 1128.1805631148163,301.8840615216759 1128.6393151148222,302.13552284863545 1128.7131814685417,302.21235931501724 1130.9767657812918,304.564793325786 1131.3934291058686,305.27698480780236 1131.686331335106,306.49212816386716 1132.5205026703188,308.5129069676623 1132.5625622186344,309.1839457099559 1132.3117486649426,309.8126397503074 1130.8513444409473,311.48848158860346 1130.1005057707662,312.0325648681028 1127.8051437796094,313.0807890286669 1127.3876357689733,313.41572147305124 1125.0097566720797,315.59451365825953 1124.3422506666975,316.55807917547645 1124.0914371130057,317.3960183460731 1123.885916216881,318.53294792503584 1123.8414099912625,318.7791444340837 1123.773718584911,320.60029384633526 1123.7589220125228,320.99898767087143 1123.885916216881,321.5132869174704 1124.2216935538454,322.87275576707907 1124.2435388871236,323.1553999949829 1124.1246128925122,323.48142585810274 1123.8972466631094,323.86196906969417 1123.885916216881,323.874346728262 1123.3778228907613,324.4261332989554 1123.0857362204697,324.9368201676407 1122.9239351183642,325.3562964134617 1122.8406024534488,325.8180719479569 1122.8131064603804,326.9452283757273 1122.6512471040478,327.2167321352754 1121.2668937671697,328.32385387225077 1120.4448975645937,329.13831956591457 1120.2069873210276,329.4320921418257 1119.903599331621,329.9961633324274 1119.6552033281187,330.28993487154366 1119.1252355413744,330.49582308524987 1118.5297900089063,330.4101031108876 1117.859021767159,330.3667223833618 1116.973091555643,330.4212386980071 1116.5701762276003,330.43237428483553 1116.1227255467093,330.3422481191228 1115.693916216842,330.19315933965845 1114.6085526756942,329.38186162285274 1113.108098673867,328.2604045048356 1112.8669553210493,328.2059277618537 1112.5352557795122,328.2059277618537 1112.0053171201143,328.37949222442694 1110.68489779206,328.76002776873065 1109.112033792073,329.4632158310851 1107.3085704534315,330.3611545886379 1106.3344142221613,330.9797798690852 1104.9080013369676,332.01570531347534 1103.5042493439978,331.22348030499415 1102.8383453298593,330.6727105631726 1101.8973648783285,329.7703267210745 1101.5842775610508,329.3386008805828 1101.0421928961296,328.70995733642485 1100.1667484444333,327.2723306841799 1099.915119331563,327.0342342153308 1099.6133333334,326.8907513380982 1099.1222211129498,326.6570607312606 1097.3511179947527,326.2520071620238 1097.0356131272856,325.90267195069464 1095.0792033282341,323.3534430335858 1094.5816248890478,322.9184210981475 1093.9974806755781,322.701430584013 1093.5112326827366,322.41433945833705 1093.0241400037194,321.969261420134 1092.6131273387,321.75227005872875 1092.1802402134053,321.6320975396666 1091.5677844481543,321.5887152456562 1087.0474315664032,322.20407814136706 1086.29414621857,322.32529186998727 1086.0012731165625,322.2207420282648 1085.2310066630598,321.8079099149909 1084.5926568961004,321.32946281612385 1083.5861404446186,320.4715484086191 1082.9267317760969,320.06984938599635 1082.6565195663134,320.0587533826474 1081.2608357830904,320.709651305282 1080.7851026774151,320.72194900905015 1080.4282664392376,320.6239679378923 1079.9306880000513,320.2656917627901 1078.9678913423559,319.54797615041025 1077.5420901261969,318.33325857890304 1077.2347991039278,318.07143895875197 1076.753415338695,317.85997214115923 1076.0438206578838,317.73539130057907 1075.3407504499191,317.75630165828625 1074.6246895502554,317.7776927121449 1073.847956878366,317.4427262195386 1073.2856579982908,317.14897921303054 1072.788895118283,316.7717503331951 1071.4563297849381,315.2918313596165 1071.261323776096,315.21612066740636 1070.0282857813872,314.93354732572334 1067.05568932998,314.718752910092 1066.262791111134,314.30033989372896 1065.4286197760375,313.62939539260697 1064.9197108908556,313.06188121513696 1063.6534679892939,311.0745095895836 1062.6688259983202,310.118653802725 1062.138858211576,309.3797567973379 1061.81444044807,309.09713661152637 1061.0805828836747,308.77329473610735 1060.3022482205415,308.5129069676623 1059.3345873352373,308.4350309407455 1058.5246788836084,308.43835589510854 1057.5829120000126,308.560778278159 1056.4137788872467,308.7699697862845 1054.6531906560995,309.51776185730705 1053.566632903181,310.2455219323165 1051.0681384392083,311.9175151110394 1049.9467737885425,312.667981452134 1049.3797563165426,312.9560855618911 1046.48222043016,314.428327484522 1045.231385770836,314.6786942513427 1044.355154887191,314.7209561362397 1042.8526911146473,314.428327484522 1038.4291858773213,313.17068124050274 1038.0119108835934,312.79368654091377 1037.8444299947005,312.37418861687183 1038.0952435485087,311.11789375991793 1038.0111244516447,310.65721196163213 1037.7603108979529,310.32115405384684 1036.3840548979351,309.4432110929047 1032.112068892573,305.83894880401203 1031.2349933227524,304.8340787066263 1030.77627044986,304.1207642359077 1029.9000395662151,302.3614652560791 1029.7516369351652,302.21235931501724 1029.482531555579,301.9419092675089 1028.6054851129884,301.4411492383806 1027.5668705849675,301.09330068458803 1026.7955555554945,300.83490773628 1025.475922659738,300.39287488360424 1024.557632227661,300.22598063223995 1023.1255395555636,300.3787734056241 1022.5964164552279,300.4351793132955 1021.9289104498457,300.72786487155827 1021.2614044444636,301.39888504479313 1020.8711885369848,302.21235931501724 1020.7185042205965,302.53060143842595 1019.8010002205847,304.8763823634363 1019.4256100124912,305.5885328723234 1019.0081020017387,306.09152772196103 1014.7530971022788,308.73103181726765 1013.9181102081202,309.35972702887375 1013.2498177707894,310.156469886133 1012.1235888925148,311.62308042222867 1010.9973308871267,312.79592984332703 1008.6186071041739,314.26252445497084 1008.4519417743431,314.59745527105406 1008.3273359929444,315.1004314797465 1008.2019437797135,319.414463267487 1008.0352784497663,320.2946535079973 1007.7019186631078,320.8810580073623 1006.307865998242,322.64358777808957 1006.2180671147071,322.86165989143774 1006.436491320841,324.7877681302489 1006.8070755556691,326.16191950341454 1006.99736297247,327.36205742222955 1007.0635397689184,327.77972694067284 1007.0344126579585,328.4651728584431 1006.6921691023745,330.0273670620518 1006.4874928925419,330.41234625084326 1006.002031331649,330.9775367344846 1004.7358175574336,332.133629575721 1003.5594026668696,333.1605776453507 1003.4461273315828,333.32528628542786 1003.5335086650448,333.5711874253466 1004.1217015467118,334.2777262282325 1004.4671782116638,335.02211524837185 1004.8126840034965,335.4582370722783 1004.9609118719818,335.59398423635866 1005.5416773405159,336.1257967542624 1006.820823552087,337.35865041724173 1007.0772877653362,338.02624493581243 1007.3968995554605,339.18222414923366 1007.4227644302882,339.4904042353737 1007.3847826773999,339.9277196787298 1007.1032108942745,341.429758854385 1007.0522384498036,342.19964045699453 1007.1032108942745,343.7406380184111 1007.1541833387455,344.85765787854325 1007.1161433316302,345.3327742796391 1006.8733979875688,346.63006723392755 1006.7334422188578,347.053951970709 1006.3272937814472,347.45336342655355 1005.8887559963623,347.6569941249327 1003.4210780160502,348.3378980536945 1003.0310951253632,348.62604000081774 1002.5229726720136,349.3542036997387 1000.1369671111461,352.77370015415363 999.5107342223637,353.4434952737065 998.6765628871508,353.90521746262675 997.645783552085,354.17621049052104 996.9241011200938,354.36581731546903 996.3820164551726,354.5326744033373 996.0478411093354,354.8687112540356 994.6716142365476,357.9682387948269 993.5445115448674,359.76942951913225 990.2903724374482,364.20950872515095 989.748287772527,365.004950437753 989.5808068835177,365.71696488471935 989.4562302294653,367.6961202006205 989.4141415538033,368.3247029981576 989.247476224089,368.70181184698595 989.0597811200423,368.97102619626094 988.6633320106193,369.53953126992565 988.4133048888762,370.0846460875473 987.8704046650091,371.92691767046927 987.6203775432659,372.51427897572285 987.160839111195,372.9748435780057 986.1187293297844,374.105145512498 985.9520640000701,374.5245369358454 985.6591617707163,375.6558729308308 985.1170771059114,377.1221284515923 984.1996022331296,378.75521559710614 982.7391980089014,381.1424714703462 981.7796344604576,383.6143238785444 981.709467249806,384.2698573406087 981.6542131201131,384.7867860184633 981.7375457850285,385.45761427510297 981.9883593387203,386.4209830480977 983.8201051023789,390.3021319497493 984.1753102223156,391.1131062795175 984.6890833352227,392.5958475722 985.0038308978546,392.92069909966085 985.0337444408797,393.33781551371794 984.9075366685865,394.06980984134134 984.0612484551966,396.4246789936442 982.7780244479654,399.86301530490164 981.956057372503,402.3435272029019 981.9446686720476,402.37800527503714 981.7739546737866,403.19442537397845 981.7482936889865,403.3985700143385 981.6461157832528,404.21110242733266 981.671194225899,405.22112796851434 981.752080213395,406.1176257356419 982.1582869050326,407.23552034486784 982.6291557832155,408.39565542148193 982.6930606650421,409.0007478388143 982.4794715591706,409.4301298914361 981.9972722346429,410.67034021246945 981.8718508942984,411.0785366857308 981.7715079964837,411.81043757335283 982.2658824534155,413.3186798247043 982.5433764408808,415.3175088444259 982.9082808889216,417.4019306957489 983.1218991219066,418.2405634932802 983.2076493370114,420.7976469157147 983.3783633351559,423.07549906050554 983.5709226668114,424.38911429670407 983.9811197725357,425.70932909980183 984.2335644444684,426.7314776258427 984.2335644444684,427.54893709742464 984.126755328034,428.1061741327867 983.7634819983505,428.5577045644168 983.6348566756351,428.70785416301806 982.8435313208029,429.0092741976259 982.0231371094706,429.17055458336836 980.8985102223232,429.56871007278096 980.3636782080866,429.7188590473379 979.594256440876,429.9557338809245 978.7099573477171,430.633124162443 978.2503606614191,431.0542999681202 977.9259428977966,431.351593031839 976.2252108799294,432.47493711765856 975.8192080783192,432.81855380831985 975.3174353351351,433.24344946898054 974.5269837939413,434.1821251139627 973.9274313386995,435.4778631149675 973.8252534330823,435.7114091257681 973.1927582151257,437.1572433238616 972.9354784425814,437.5220737683121 972.5600882347208,437.79785831528716 971.994497991167,438.05922874697717 971.6101948870346,438.274995272106 971.2064931271598,438.7176183387055 970.6271548870718,439.88649169920245 970.1991611164995,441.2189139967086 969.9208224426256,442.2287057864014 969.3439308800735,443.1095325985807 969.0227462259354,443.9459147420712 968.7662528853398,444.6988163611386 968.5955388870789,445.4939948495594 968.5955388870789,446.20245060994057 968.7185135503532,446.7807443618076 968.9377824426629,447.25562163541326 969.5365193387261,448.3732871421962 969.5365193387261,448.8025996911456 969.1198268870357,449.47989745024825 968.3665706667816,450.3629000019282 967.6133144461783,451.0690995543846 966.9053800106049,451.91874630149687 966.3066431148909,452.90631378628314 966.1998339983402,454.30644515901804 966.108403996448,456.2648619931424 965.8802513350965,456.6919186389423 965.3664782223059,457.40034178603673 964.3186886542244,458.6680917860358 963.869665109436,459.31309399486054 963.7199808852747,459.65671280870447 963.7839148942148,460.5374765134766 964.1480037831934,462.1488654919085 964.250735104084,463.1508437951561 964.2517836801708,463.4097449016408 964.2548128996277,464.14721320493845 963.9125402169302,464.8567355904379 963.1852071253816,465.3504735546303 962.008763107704,465.7797561416519 961.1875533369603,465.95542429870693 960.5548251023283,466.3813830228173 960.1276468907017,466.98296838247916 959.7004395519616,467.9938141927705 959.4802968462463,469.07471397618065 959.3808860159479,469.56291880394565 959.3153208888834,470.53151908592554 959.2514160071732,472.05717180337524 959.2942911149003,473.0446575341048 959.1017317832448,473.3882569519337 958.2756286578951,474.05215546581894 957.7537873351248,474.6570445385878 957.4333891130518,475.299802583002 957.0482413226273,476.0526471961639 956.4924086614046,477.5138140224735 956.0644148905994,479.3607963968534 955.9147597939009,480.0480169368675 955.6898111148039,480.5828762935125 955.2132333226036,481.18891003425233 954.8378431148594,481.42353303550044 954.0473624463193,481.53141710709315 953.9777777778218,481.53397910296917 953.4696553243557,481.5525535727502 952.721263331594,481.5325379803544 951.7163779982366,481.3812600801466 950.6038971166126,481.0377119827317 948.9784295539139,480.69408333767205 948.10784932971,480.53395798790734 947.1183722383576,480.5228292719694 946.1992079931078,480.69408333767205 945.2801020018524,480.97322160191834 943.8900980054168,481.4457903840812 943.0575286614476,481.5369814421283 942.1360051202355,481.31680982152466 941.7565079894848,481.3946305043646 941.4490713315317,481.55699703405844 941.0607195593184,481.9473007483757 939.6957940054126,483.3450232523028 939.4603595662629,484.00553200923605 939.1084166828077,484.86395052837906 938.9368579982547,485.60451620729873 938.9368579982547,486.32178194104927 938.9368579982547,487.50819999247324 938.7992906523868,488.203203385463 938.550923775998,489.2239685061504 938.365646222257,489.6465239826357 937.8583684551995,490.1190759174642 937.5622039894806,490.3525694741402 936.7054008888081,491.0519679997233 935.9877379983664,491.84919660526793 935.5662104462972,492.52085047075525 935.330746880034,494.0764271678636 934.9416086756391,494.4655899840873 934.649492878234,494.7980310864514 934.3898246828467,495.3829341845121 934.3274926649174,495.84438699122984 934.4140584393172,496.5203929579584 934.538664220483,497.35318905767053 934.553227775963,498.04147957265377 934.5014397724299,498.83424212929094 934.3752320000203,499.60258489404805 933.9561219983734,501.4227409940213 933.757882880047,502.00762816605857 933.5752850205172,502.43348374339985 933.3363553280942,502.99050923867617 932.9771306667244,503.4764444945031 932.2877793280641,504.04011216410436 931.3320023040287,504.6260737835546 931.041779768886,504.8039954523556 930.3759048818611,505.15647610649467 929.9414448925527,505.5188830056577 929.7051948942244,505.8629168884945 929.6153960106894,505.9936856608838 929.1809068941511,506.8687178691616 928.3143753386103,509.2036026917631 927.6112760037649,509.29034039139515 926.3199837866705,509.35374254820636 922.2704706559889,508.73108782304917 921.799601777806,508.64434992405586 921.0552293262444,508.3797731237719 919.0325262222905,507.17560482077533 918.66118468286,507.0143761432846 917.4095053370111,506.7164150190656 916.7897386667319,506.9899196487386 916.1950795664452,507.2022627792903 915.724967992981,507.30120941152563 915.2306226631626,507.29236345615936 914.6100404339377,507.21451102982974 914.2508157725679,507.12665183481295 913.1974046720425,505.8335769614787 910.3809586631833,506.5418169957702 908.4958229048643,506.9187516363454 906.3557375431992,507.401276757475 905.6324531200808,507.68258585967124 905.4325828837464,507.7852147683734 905.0175215502968,507.9983977684169 904.6291697777342,508.3652834328823 904.0887162311701,508.8811479177093 903.755356444628,509.37263510684716 903.486251064809,510.0338337099529 903.4689495610073,510.07642189908074 903.0846173298778,511.45733188674785 902.9487102293642,511.9676662030397 902.923631786718,512.4902074077982 903.1251040142961,513.7955348496907 902.9114857813111,514.1323924078606 902.2836217741715,514.331400717434 901.6484759893501,514.7049611293478 900.9616004552227,515.1652565730619 900.5036640142789,515.2898163730279 899.9494042169536,515.2898163730279 899.2026433421997,515.3020642163465 897.4687646720558,515.4387917313143 895.8886188942706,515.7945790998056 894.8667524551274,516.0113974041305 894.4807891057571,515.9735732907429 894.0738251094008,515.887958688545 893.6555306666996,515.6167054934194 893.1700691058068,515.1419616420171 892.2161853441503,514.4826581309899 891.6093511111103,514.1468417294091 890.9523891201243,513.9345046593808 890.1424806684954,513.7854883541004 889.3617284551729,513.7477039206424 888.9595995591953,513.9423097009421 888.3091037865961,514.6315939576598 887.5412548837485,515.6689388679224 886.6981997796101,515.5310907656094 885.8437851022463,515.6434025528724 885.4101406720001,515.8056661767769 885.0630328889238,516.0792006150004 884.803306439193,516.3526947201462 884.5678720001597,516.7629953398136 884.419003335177,517.3733417475596 884.3817788872402,518.0949165999191 884.007990670274,519.1755938163842 883.7377784604905,519.6003386735683 883.465090446407,519.8738288209424 882.9820464355871,520.1728945282521 881.3420444446383,520.2718358858256 881.160000000149,520.2937294574222 880.6114491164917,520.3596903342404 879.9674195627449,520.5086225636187 879.7052755628247,520.7354428517865 879.0109726150986,521.7967764781788 878.86382244993,522.0218344863388 878.3945555627579,522.6988884097082 876.2545284553198,523.1758588796947 874.021440227516,523.7439636302297 873.3895275520626,523.7239515086403 872.4064875519834,523.3882279094541 871.9728431218537,523.2136418491136 871.2049942187732,523.0646712509915 870.6078884409508,523.0624699116452 869.588439551997,523.1925090025761 868.4557444553357,523.3559683213825 867.598096668371,523.37149775133 866.6433682205388,523.3070586150279 865.2161397760501,523.0469004374463 864.3261608959874,522.9979506446398 863.9207988908747,523.0646712509915 863.5332626773743,523.273678335303 863.0639666630886,523.6639151335112 861.3640793317463,524.5455678234575 861.4627911110874,525.4283379900735 861.4757526755566,525.9886728504207 861.3487293440849,526.5412017832859 861.0914204445435,527.1337931725429 860.6043568926398,528.3445066066342 860.4716537742643,528.9381742357509 860.4425266630715,529.6607954218634 860.2863762205234,530.3934602724039 859.9886388907908,531.1772323176847 859.584908003686,532.0499727069982 858.7499211092945,533.4829875465948 858.3906964481575,533.6820200532675 858.0638320072321,533.7097957409569 857.2223788943375,533.6441986864666 856.8874171164352,533.5495852101012 856.3008262258954,533.3840515607735 856.009555114666,533.5141651810263 855.8639195591677,533.7075944977114 855.4674704498611,534.6903475277941 855.1357417814434,535.2206442967872 854.8308683094801,535.5937724176329 854.6724750790745,535.7876403261907 854.6179200001061,535.8543574257637 852.4778928925516,537.447437865485 850.8273468872067,538.7804065407836 849.5538222081959,538.7581944582053 847.2244980054675,538.6469739277964 846.1840193422977,538.7092478257837 844.8214822117006,538.8837827470852 844.2648631181801,539.0827708145371 842.7979635484517,540.7125698135933 842.0746791253332,541.4462819651817 841.6086453476455,541.7998301388579 841.2493915591622,541.982086943055 839.5276588943088,542.5090460662614 838.5365215573693,542.8814426319441 837.5890748872189,543.3317195451236 834.8381940054242,544.159953145776 834.3243917654036,544.1388221182278 833.6245546665741,543.7052354386542 832.6148051058408,542.8479049527668 832.5234042311786,542.7703040281776 831.9910188943613,542.4834725467954 831.4214091092581,542.2967337445589 830.8510128925554,542.2600743315415 830.0977566719521,542.3078196140705 829.3048293263419,542.291170799057 828.2004457814619,542.1610618716804 827.6057575537125,542.146654234617 827.0191666631727,542.2600743315415 826.1566837761784,542.5101666586706 825.4503513316158,542.3578861157293 825.3205609245924,542.313542643853 824.7318728817627,542.1121959661832 824.4956520107808,542.1133165603387 823.7973877761979,542.2856078534387 822.8564364516642,542.6469189074705 821.5028413442196,543.1215690781246 819.7349713352742,543.3806652476196 819.4962746597594,543.4784765813965 819.2373928960878,543.7386129158549 818.9461217848584,544.5679256935837 818.6710162205854,545.283817010757 817.7405797831016,545.6829030939844 816.0811208818341,546.5778428522171 815.6943711005151,546.9413886771072 815.4193237902364,547.5761518328218 815.2048899981892,549.3470046190778 815.02692334936,549.8995205370011 813.883655111189,551.4347206107923 813.8456151040737,552.4996821840177 813.833498226013,554.084929944016 813.833498226013,554.7063480903162 813.8585766685428,555.1298303615185 814.0560002275743,556.0091279951157 814.19272288715,556.4982789488859 814.2501906774705,557.08187320875 814.19272288715,557.4931856644107 814.0568157868693,558.1646183389821 814.0560002275743,558.7415655343211 814.2429088996723,560.3956439914764 814.292250226019,561.1303772898973 813.8132840107428,560.9347687723348 812.9394706774037,560.6424361914978 812.3472291270737,560.5824089241214 811.6287506774534,560.6101415235898 809.897289557266,560.9836709164083 809.0154080142966,561.2415875452571 808.3422222222434,561.3709659466986 807.4538744605379,561.5417229213635 806.7483284480404,561.7284869746072 806.6984045797726,561.7659438146511 806.3518793387339,562.026380745112 806.074356224155,562.3876624913537 805.6900239930255,563.1835769317695 805.3348479999695,563.5848346353159 804.9715746702859,563.856074383657 804.5759119930444,563.9927746202447 803.6592235520948,564.2162329213461 803.003047992941,564.5152441379614 802.3873299912084,564.8520314922789 801.6648319999222,565.1244303340209 800.9212751076557,565.1622067909339 799.7942306704354,564.9376688867924 799.187396437279,564.8887675372534 798.374284003512,564.8687587988097 797.9487077832455,564.9876907155849 797.6881657743361,565.1366356517537 796.4988184461836,565.9202958068345 796.0902233315865,566.1203822520911 795.5157784462208,566.2693665123079 794.6120224426268,566.4183106642449 794.070724209887,566.6394857586129 792.662923548487,567.3064513042918 791.8247326720739,567.7866557614761 791.1313326650998,568.2513327055494 790.573898012517,568.6581443968462 790.0852615965996,569.1372257171897 790.0285511111142,569.1928490301361 789.694404892507,569.5696466201334 789.459756885306,570.1542899846099 789.385337116546,570.8890738555347 789.385337116546,572.5308648081846 789.2243224462727,573.2644810373313 788.8772146633128,573.7246657285723 788.3699368960224,574.2726845366415 788.109394887113,574.7206224692636 787.9030875591561,575.2041336074471 787.0389735538047,577.6728945735958 786.365846016095,579.7214329645503 786.0980222295038,580.5339769360144 785.8002557725413,581.1530867237016 785.4539926756406,581.7655124818557 784.8035551575013,582.7973693704698 784.5389062259346,583.21720146382 784.0696393387625,583.660681337642 783.9555484444136,583.7684800769784 783.2929066666402,584.2731007862603 781.6634195626248,585.2234382712049 781.3543517867802,585.2234382712049 781.0687313352246,585.1234029211919 780.6067462259671,584.8577888603322 780.1655287467875,584.5850919898949 779.6083562382264,584.2408492679242 779.06300933694,584.0663468723069 778.1212424533442,583.8429468099494 777.5006602241192,583.5584445529967 776.7838128925068,583.021530667902 776.2708553387783,582.5736080123461 775.3662837761221,582.0278487156029 771.5757106632227,579.9670851486153 770.3256624356145,579.6013878259691 769.6444084338145,579.4769409698201 768.9874464425957,579.277905897703 768.6152602169896,579.088994493708 768.1330608924618,578.7433034509886 767.5707328852732,577.9429981923895 767.1257288819179,577.446127348463 765.3109642241616,576.1656308466918 764.2882822258398,575.5932067158865 763.7558968889061,575.3197391655995 763.0455157760298,575.2553137834184 762.1458375679795,575.21969974495 761.5260417707032,575.2574746350874 759.9078851130325,575.6454272184637 759.7970273279352,575.6717975676293 758.1278690987965,576.0678326495108 757.4636253297795,576.3268137144623 756.5097124410095,576.7502983819577 755.8719743430847,577.0649802659173 755.2167891059071,577.3883450889844 753.8728933262173,577.7584474261967 753.3842277831864,577.7496040317346 752.9384082205361,577.6250761980773 751.8607051094295,577.3138763810857 750.0766695539933,577.2638170701684 749.6058006756939,577.4005497915205 748.9487804303644,577.6751354344888 748.5353502151556,577.9240709411097 747.9309626596514,578.4076157306554 747.4325977885164,578.8567064932431 746.8467933298089,579.61031118338 746.1695879964391,580.6729086386622 745.848403342301,580.9963887127233 745.2140731166583,581.2997809398803 744.1509335609153,581.8033263707184 743.717260003672,581.8655492120306 743.234215993085,581.7410634988919 742.0820931129856,581.3320328478003 741.4129851165926,581.2576053614612 740.7940340053756,581.319788327557 740.0504771129927,581.6166177366395 739.2284517831868,581.7410634988919 737.7680184321944,581.5587564377929 736.8383975538891,581.5177013169159 736.0203917653998,581.5676797233173 735.5244444445707,581.498734328954 735.3885082169436,581.4798473690171 734.288988899556,581.2186309588724 733.5802097778069,581.008593234641 732.428057770594,580.5984009209205 732.185341553879,580.4228155106539 732.0235113245435,580.1460321446648 731.9450428872369,579.7647692450555 732.0397059982643,579.2857088440214 732.4604179912712,578.2453138130368 732.5890724409837,577.7329176258645 732.638442894211,577.433922647906 732.638442894211,577.1604571658536 732.52513843216,576.7180458670482 732.4215915520908,576.5324537673732 731.5388944497099,574.9473922338802 731.2799835592741,574.3293470900389 731.0453938061837,573.5849297386594 730.7783564516576,572.7375885053771 730.2362717867363,571.8994880928658 729.7912677831482,571.4381794913206 729.4514709048672,571.2758729260531 728.2386179984314,570.7556588463485 727.5711119930493,570.2499296620372 727.1228748800931,569.7597258969327 726.411386936903,569.1372257171897 726.3097624463262,569.0483084232546 725.5653899947647,568.0400832815794 725.2741188836517,567.342026483675 725.1034048853908,566.3716505769407 722.4107782258652,565.1644477670197 721.4989248854108,564.8665178199881 720.7764268941246,564.7253361140029 719.4657068941742,564.6286538100103 719.0288002275629,564.5797123807133 718.4786182257812,564.3195983233163 718.1363455432002,563.7349009247264 717.8394528995268,563.4859108867822 717.3192135680001,563.1613270587404 716.0189793281024,563.0345907824812 714.704239786719,562.9212203854113 714.2462742186617,563.0123408957734 713.9113415679894,563.1480011445819 712.7462571237702,563.717133080936 712.4007513317047,563.683798361395 711.904774883762,563.5226071201614 711.2518615610898,563.3361645856057 709.7364362240769,562.9034524820745 708.8529235628666,562.7000018941471 707.8755342222285,562.5788278594846 706.969360668445,562.6277696912293 706.1270919966046,562.8367427978665 705.4644793458283,562.9523142130347 704.8827235556673,562.886765058327 703.8851200001081,562.3498856038204 703.6690842168173,562.3331581240054 703.2516927146353,562.6229675494833 702.9198766648769,562.8533902072231 702.1625717759598,563.9427926047938 700.9295337813674,564.9331869306043 700.1204700160306,565.5835099308752 699.6350084551377,566.0214595340658 699.2708904392784,566.1937739189598 698.9237826559693,566.2649245976936 698.3671635627979,566.2682460293872 697.6478695538826,566.1437523381319 696.4836006684927,565.8447431224049 696.1987957758829,565.882519467501 695.9884397794958,566.0192185660126 695.6906733226497,566.503907490347 694.1178093226627,568.4358106471482 693.5161305884831,569.1372257171897 693.1622944427654,569.5496382666752 692.8718388907146,569.8875391206238 692.0951353457058,570.4233215003042 691.3669575682143,570.7490161054884 690.9583333263872,570.8990779775777 690.680810211692,570.8246072839829 690.4567062186543,570.6667821603478 689.857998449821,569.253914609435 689.7714909298811,569.1372257171897 688.7737999929814,567.7911376650445 688.2155497814529,567.3498298124177 687.5213342151837,566.8873921071063 686.9792495502625,566.5744978378061 686.8530417777365,566.5016665266594 686.30772400368,566.452725473966 685.8449233351275,566.4905817591934 685.3271015537903,566.6528114815592 684.9079915520269,566.8507363981334 684.4864640000742,567.1741548099089 684.0811311218422,567.6599218937336 683.579474887345,568.2446498795762 683.0292928854469,568.6025609783246 681.9989504569676,569.1372257171897 681.8682571093086,569.2050541438512 681.5090324481716,569.4406727444148 681.2857148873154,569.653041420097 680.910324679222,570.2121539947111 680.5219437796623,570.9102025605971 679.0655882239807,571.8850422000978 678.8325713351369,572.1162163981935 678.6610417778138,572.4374669360695 678.3374104463728,573.1366295708576 678.2426016996615,573.3471942977048 678.074450887274,573.7202239500475 677.754868223914,574.0425528018968 677.330107562826,574.2893311639782 676.1326337706996,574.6027757374104 675.5379746701801,574.6894901292981 674.8227584569249,574.679486163077 673.952149105724,574.4538766100304 673.6422948978143,574.5160613143817 673.1883779983036,574.7928910990013 672.3145646648481,575.4742799817468 671.7805773369037,575.6687963899458 671.0976922169793,575.9699943972519 670.7886244410183,576.2189716635621 670.5653068801621,576.6413760990836 670.2181990969693,578.3876081037452 670.0491162169492,579.1790285427705 669.5248282169923,579.5936249048682 668.6081397760427,579.9537601546035 667.1202395592118,580.8529755316558 666.0328371201176,581.7144137042924 664.7059224463301,582.802571259439 664.2479860055028,583.0504611451179 663.7504075663164,583.1916322214529 662.7066666666651,583.3149967881618 662.6500435627531,583.3216391861206 661.6532555663725,583.373898044927 661.1451331129065,583.5005837157951 660.3845951147377,584.0363761432236 659.3651462259004,584.7355054592481 658.636968448176,584.6209847576101 657.8003504356602,584.2053165728576 655.4710262329318,583.2482926984667 655.1117724445648,583.1983146370039 654.7654802205507,583.2604971074034 652.8083131164312,584.2797431579093 651.0615020090481,585.1234029211919 650.7757359218085,585.1633370378986 649.6196808818495,585.3245939753251 648.6989437725861,585.4646433380549 648.1487908979179,585.9025571683887 647.4642746596364,586.3316271280055 646.6834933192004,586.5061278995709 645.4690966755152,586.6828293101862 645.0734339982737,586.8695740716648 644.8873408854706,587.0563186902436 644.5888171235565,587.4453328389791 644.1356866559945,588.1767033641809 643.7635295573855,588.8424495001673 642.7125068800524,590.0617389403051 642.1623540053843,590.5975169247249 641.6623580161249,591.2610957297729 641.1542355627753,591.856810617377 640.8200893440517,592.0913269393495 640.4438544498989,592.2880707943114 639.5053206755547,592.6126157806721 638.9227784534451,592.9860560487723 638.4340837831842,593.4313186991494 638.3054293334717,593.5484760979889 636.187247559079,594.977807827876 634.2146722135367,596.2837332207127 633.5512148764683,596.8517073487747 633.9646742186742,597.2329434841522 634.2122546632309,597.6186203647521 634.3489773226902,598.0543116676854 634.3765024427557,598.704466152878 634.1507673317101,599.5347519979114 633.648324664915,601.0763209428987 633.1466975572985,602.4722390501993 633.1432314311387,602.4822818852263 632.8554264463019,603.3013917307253 632.7259564374108,603.9659761908697 632.7502484481083,604.8362549998565 632.7259564374108,605.2196792263421 632.6021953424206,605.8187608664739 632.4346853262978,606.3899936197558 631.4475966577884,608.5505592557602 631.3887016392546,608.6637083499809 630.9791453299113,609.4507892776746 630.6870586596197,610.2387878908776 629.9427153352881,611.5224259681418 628.8488466773415,612.9116425820393 628.3528411022853,613.6829460504814 628.0802113424288,614.4042354115518 627.852029553731,615.2588733171578 627.7702988800593,616.6436276123277 627.5357091272017,618.183967968158 627.4612311040983,619.6764884621371 627.3180130989058,620.3288656759541 626.8633971486706,621.6683819355676 626.8163859910564,621.8069700971246 626.4822397725657,622.703790427011 626.2096100125927,623.1261142025469 625.9005131092854,623.4128106564749 625.4174982258119,623.736233937263 624.6699217921123,624.1707182718674 624.1148755627219,624.6341673741699 623.8397699982161,625.1898730503744 623.5792571164202,625.6254750004155 623.2895879964344,625.9488953413093 622.7232404480455,626.0788794716937 621.7037915590918,626.0944423562032 620.8785039928043,627.459131421987 620.4739866737509,628.3548507396481 619.9399702186929,629.1016610524966 619.373622670304,629.7673352769925 619.0087182223797,629.9040385089465 618.6292502186261,629.9784511227044 618.0305424499093,629.8973573752446 617.3363268836401,629.6661980398931 616.5426131058484,629.4583624860388 615.4285302329808,629.2683698293404 614.904242233024,629.2138804360293 614.1614717725897,629.1921166809043 613.8038782293443,629.1816748785204 611.9793559892569,628.6715462804423 611.2236822188133,628.5593266469659 611.128145294264,628.5906921396381 610.5424282170134,628.7827256808523 609.4412777815014,629.5295346812345 608.6758755554911,629.9618083034875 607.8182277689921,630.3674366897903 607.1386048854329,630.7419392284937 605.7615333262365,631.2119769055862 605.3157428906998,631.4364936884958 604.8650882275542,631.7720682800282 603.219406449818,633.1778919533244 602.0704875519732,634.1369198819739 601.1731977672316,634.9681650443235 600.5413142187754,635.3793059019372 599.7241531163454,635.8094088230864 599.6745496462099,635.8227307598572 598.2742346525192,636.1994252232253 597.5444840106647,636.3239230951294 596.7313424497843,636.2972392700613 596.0403891201131,636.1494580323924 595.7118935608305,636.1994252232253 595.3348722347291,636.9706949167303 594.8704113209387,637.6452288494329 594.6163937849924,638.276395050576 594.4828751075547,638.9942511029076 594.2199155484559,640.4433585513616 593.9221782188397,641.501249948109 593.35259756085,642.48360784736 593.0750744462712,642.7469587803353 592.3630622152705,643.2825808149064 591.8905622188468,643.9137324013864 591.6672737849876,644.5982881954988 590.9552615538705,646.206258660357 590.5539773441851,647.0974285621196 590.519170446205,647.3441328734043 590.5911726650083,647.6197197351139 591.5863586703781,648.4642401092569 592.7838033351582,649.6021037691389 593.0631614578888,649.9006900897948 593.1665044480469,650.0110597263556 593.76116354845,650.4699792585452 594.6600553244352,650.9177769987728 595.5985890987795,651.4867437634384 596.0654675626429,651.8756149607943 596.3130188799696,652.1990004313993 595.8089742223965,653.5491021292983 595.679504213389,654.1991484247847 595.5452282311162,655.1714544320712 595.3849999930244,655.692608213576 595.2749868943356,656.0515108294203 595.1455168853281,656.6193055275362 594.9634724408388,658.0971496311831 594.8769066669047,658.5205320729292 594.6131606756244,659.0883210132597 594.2247797760647,659.7383525201003 593.6584031005623,660.3072986724437 592.770841770689,661.1817362755537 592.3007593244547,661.6039933092543 591.9431657814421,661.9950884327409 591.4091784533812,662.5795898640063 590.8104415574344,663.067406676244 590.1591302258894,663.5885035558022 589.888888888876,663.9114334566984 589.8225373298628,663.9907558231498 589.5628108800156,664.4385286970064 589.3823975538835,665.0174241202767 589.205217337003,665.7485616327613 588.833031111164,666.4963372730417 588.4284846651135,667.0152267763042 587.782037560828,667.5030347018037 586.843503786833,668.0552424944472 585.4842288924847,668.6397293781629 584.6406203734223,669.158614313812 584.2811044408008,669.3797360809986 583.9218797796639,669.69085822755 583.073144888971,670.5241820186493 582.5561386668123,671.2875429883716 582.313422449748,672.0675415071892 582.1353975466918,672.3597403092426 581.7146855538012,672.7486181706772 581.148338005296,673.1219355336507 580.5334064356284,673.6742105823942 579.5463468942326,674.8108364508953 578.9864364374662,675.4008270237246 578.4200888889609,675.4797056551324 576.8674391041277,676.0674946510117 576.3358693262562,676.3641285591293 575.8690491165034,676.5141653401661 575.2314857814927,676.4974457034259 573.993583559175,676.3919279697002 573.135120213381,676.4052476860234 572.1537404587725,676.5008056305815 570.6164406614844,676.7474801508943 569.1859791077441,677.075192484539 568.4675006578909,677.3263463106705 568.0370893368963,677.7751746323192 567.7611973405583,678.3807575640385 567.0200579982484,679.099615348212 566.0580768996151,680.7817550690961 565.6163060052786,681.7045170662459 565.1542917689076,682.6694735850906 564.8015333261574,683.1838888428756 564.5434671218973,683.373879429826 563.5013573404867,683.339441147109 562.9964679965051,682.801667330612 562.7432077652775,682.5328399743303 562.4171880106442,682.4061658292776 562.1574615609134,682.4772425522096 561.7917415538104,683.0250166003243 561.3831464392133,683.9272111707833 561.1242646757746,684.2415945548564 560.7156404338311,684.6104945398984 560.3685909049818,685.1182260785718 559.8304966542637,686.1526448176592 559.5716148907086,686.8947581606335 559.4081826703623,687.2736934644054 559.0813182294369,687.8058577863267 559.1492717795772,688.1757922992692 559.1557379983133,688.183591755922 559.5716148907086,688.6679975170991 559.7625431041233,688.9546168043744 559.8701677796198,689.2279567369842 559.7900682240725,689.5701711806469 559.5602844443638,689.8335111871711 558.355558001902,690.5589746349724 557.0472555520246,691.5777715673321 556.2559884515358,692.3210282766377 556.16004374763,692.4007013575174 555.3611453440972,693.0643227136461 554.8271288889227,693.0298858013703 553.777737329714,693.0465643064235 553.1757673243992,693.2198687065393 552.583525774302,693.63207110652 551.6263797760475,694.4464347712928 551.0058266739361,695.2319185627275 550.8003057778114,695.9151302161627 550.6918946703663,696.6917701952043 550.7193906632019,697.4027747649816 550.5422104463214,697.7804938486079 550.0656617813511,698.0849404428154 549.017872213386,698.4182234365726 547.1772135539213,698.6948323767283 546.7468022330431,698.8681727526127 545.5760380018037,699.5758513548062 543.0589604409179,700.6612825109041 542.8178462150972,700.7657498550834 542.1730011022883,701.1123875400517 541.8097277724883,701.3078834576299 541.4966404550942,701.4756226694444 541.3436939948006,701.6260839242605 540.7053151004948,702.2532847827533 540.4680456533097,702.4899744968279 539.5790862223366,703.3764990159543 538.9245417814236,703.7875643744483 538.4164484550711,703.9120276930043 537.5903453297215,703.7042555044754 537.1671866596444,703.4998026986141 536.8128262258833,703.1987624270841 536.417979107704,702.7210247106268 536.3203159041004,702.4899744968279 536.1695831040852,702.1333000475424 535.7237926685484,701.4878611481399 535.5846233315533,701.2867660666816 535.2189324515639,701.0801115008071 534.8103082097368,700.957926456409 533.175986005459,700.6424047929468 532.4534880141728,700.5190996637102 531.9356371058384,700.5879713654285 531.0917664427543,700.7857474273187 529.853077788488,700.7513116067275 529.2384666168364,700.7113964453456 527.1855004444951,700.5779725713655 524.9135857777437,700.5779725713655 524.4864075662335,700.4368695461308 524.1870391183766,700.2591308116098 523.8196879930329,699.8869349228917 523.2517384534003,699.4381073593395 522.892484664917,699.1792572246632 522.563173546805,699.0581511029741 522.1974826666992,699.151500410866 521.7889166792156,699.4114704453968 521.013785998337,700.2324939874234 520.4806142294547,700.5779725713655 519.8843240106944,700.6557231830666 518.9716551111778,700.6146481459145 518.0015475485707,700.387995406636 517.0711111112032,700.1511436685687 516.8494246684713,700.0946703729569 515.6446690986631,699.7836270656553 514.6114722132916,699.6103273367044 514.1122626559809,699.4036713484093 512.4949215574889,698.4182234365726 512.1332502186997,698.332712974865 510.7124879930634,698.5048937385436 509.4390215680469,698.7815025800955 508.9066071039997,698.9736807474401 508.41552401077934,699.2614477716852 507.7617660019314,699.7391922749812 507.3046159930527,700.2146561125992 506.2722346667433,701.5967275889125 505.7042560001137,701.8211394847604 502.7262419058243,702.4899744968279 501.9347126613138,702.6677116030478 499.3123114667833,703.1632070948253 498.32458200189285,703.3498625328648 497.62311378493905,703.2376373176812 497.1255062186392,702.8710452532396 496.6894151112065,702.8032540570712 495.7986206720816,702.978791221627 495.25895355746616,703.185444176197 494.86413556640036,703.4998026986141 494.2321937637171,703.8253593156114 492.79852822760586,704.2823776799487 492.50725711649284,704.3752450505854 492.2208502329886,704.6352095086477 492.12376957177185,705.0373939757701 492.11159443925135,705.0862671822542 492.13262421346735,705.7950475559919 492.18039267568383,706.9682381184539 492.3705344569171,708.0214012012584 492.37132088898215,708.4724126093206 492.07195244100876,708.6646631170297 491.5136731022503,708.8168396645924 489.7919695646269,708.8857090196107 488.68187710584607,708.801282066619 488.08800443750806,708.9545783552458 487.5920571165625,709.1156733336975 487.1963944392046,709.0468040435226 486.83148999116383,708.6790609021555 486.5701906774193,708.1314245454269 486.24653021863196,707.8669844937394 485.69553265778814,707.6248208248871 485.1445642239414,706.8660131071811 484.8176997831324,706.157235850289 484.68986089271493,705.6195124215446 484.553924664855,705.277360525215 484.0167042275425,704.5508210764965 483.56925354665145,704.2919763762038 479.90369399474,702.4899744968279 478.54322488908656,701.8211394847604 478.0237719893921,702.4899744968279 476.04802178847603,705.0340344425058 475.4810625707032,705.7551732155844 470.29055311647244,712.3573871731642 468.83661511109676,714.144838594133 468.5259162170114,714.5270909004612 466.9344399929978,716.4855346634868 466.07874372275546,717.6720711720409 464.9489613369806,719.2394470841391 462.23609133518767,722.9986766352667 460.7044713245705,724.4417254693108 459.33147756091785,726.0580067952978 457.81765421514865,727.6454440794187 454.1338902186835,732.290963160689 451.2467527111294,735.8167332680314"/></g></g></svg>