<svg width="1200" height="800" version="1.1" xmlns:xlink="http://www.w3.org/1999/xlink" xmlns="http://www.w3.org/2000/svg"><g class="geojson-features"><g class="geojson-feature" stroke="#555555" stroke-opacity="0.0" stroke-width="0.0" fill="#111" fill-opacity="1.0" data-properties="{&amp;quot;N03_002&amp;quot;:&amp;quot;渡島総合振興局&amp;quot;,&amp;quot;fill-opacity&amp;quot;:1,&amp;quot;description&amp;quot;:&amp;quot;松前郡松前町&amp;quot;,&amp;quot;N03_001&amp;quot;:&amp;quot;北海道&amp;quot;,&amp;quot;stroke-opacity&amp;quot;:0,&amp;quot;N03_007&amp;quot;:&amp;quot;01331&amp;quot;,&amp;quot;fill&amp;quot;:&amp;quot;#111&amp;quot;,&amp;quot;N03_004&amp;quot;:&amp;quot;松前町&amp;quot;,&amp;quot;title&amp;quot;:&amp;quot;松前郡松前町&amp;quot;,&amp;quot;stroke-width&amp;quot;:0,&amp;quot;N03_003&amp;quot;:&amp;quot;松前郡&amp;quot;}"><title>
      松前郡松前町
    </title><desc>
      松前郡松前町
    </desc><polygon points="611.5807076124765,526.9387857040856 611.6110507804551,526.9738190426724 611.6059899448883,527.1220435151918 611.5928390542394,527.1813215646253 611.5594666666584,527.2136673704081 611.5180042240536,527.2284917173674 611.5119312213501,527.3012551499996 611.4826075022575,527.3295552517957 611.4259625528939,527.3807515297958 611.4229333333205,527.4670002347993 611.3905658311269,527.4831633648137 611.3470863360271,527.488547839981 611.296514389338,527.4952905605169 611.2560568320332,527.5532294184377 611.2601055004634,527.6003895915783 611.2510032782156,527.6488982703013 611.2085213866667,527.694719533989 611.1488544995664,527.6852894565964 611.1488544995664,527.7580523628276 611.1175064462295,527.7930755451234 611.0649174471328,527.8173298150941 611.0163698346878,527.8281084096961 610.986026666651,527.8631509565312 610.9334376675833,527.8874051995954 610.8699260017893,527.9008711513161 610.8153053866699,527.9453436977201 610.7637285546807,527.9466922321299 610.7323805013439,527.9453436977201 610.6959716124693,527.9197409419721 610.6524848355621,527.9251253799157 610.607978609798,527.9184021086694 610.5826962773281,527.8874051995954 610.5756183893536,527.8105968306918 610.5270780586579,527.7809581083275 610.5048249457905,527.7540067474183 610.4845961671381,527.708195228508 610.482571832923,527.6583283531072 610.5220172231493,527.6030866751389 610.5038127786538,527.5720993129944 610.5028006115754,527.4791177318111 610.5129077191232,527.4117486876057 610.5624747804541,527.3403339296492 610.547299555561,527.2783395286824 610.5564017777797,527.2109702702437 610.5782689564803,527.1540012790356 610.5230221084494,527.1220435151918 610.4684160568868,527.088358811583 610.4532481138303,527.0519672812516 610.3753695004561,527.0304195270728 610.3349192249298,526.9926794085331 610.2792864427029,526.933401182032 610.2742328888853,526.8970095623517 610.212541667599,526.8970095623517 610.1801741653471,526.8646732961934 610.1730962773145,526.757147573182 610.1326387200097,526.7450105338794 610.1043271679955,526.699207984726 610.1002784995653,526.6641647918732 610.1053393351322,526.6062251180265 610.0699426133651,526.5873646367108 610.0416237795725,526.5267180611409 610.0456651662535,526.470126827131 610.0840983893431,526.4229658097174 610.1326387200097,526.3771533249819 610.1063515022397,526.320561956949 610.1235364977911,526.2639705381298 610.1991868870973,526.1992876388831 610.2386322773236,526.1790687619068 610.2204278329154,526.153465289899 610.2275130026974,526.1197800695518 610.284143388446,526.0402821020398 610.3407810560311,525.9917721874081 610.3933700551279,525.9944596376736 610.3751656106906,525.9553897269652 610.3862921671534,525.9230529785418 610.4409055004653,525.8758915524813 610.494513948448,525.8597183089878 610.5390056106844,525.8664612034336 610.5855288888852,525.8165928733797 610.6603710009076,525.8058139353961 610.7240792746888,525.7815588926751 610.7331887786568,525.7290127361339 610.7615076124785,525.646807407611 610.8100552249234,525.6158190853312 610.8555590542674,525.5915639696032 610.8545468871016,525.5336136093974 610.8707342791022,525.4783797744167 610.9051115520415,525.4514177284873 610.9283768320456,525.4406387281633 611.0062554453616,525.4339054902666 611.0548030577775,525.3732675088104 611.103343388444,525.370570330022 611.1286330026924,525.4042559501395 611.1417766115919,525.4568120790063 611.2044800000149,525.4931851246802 611.254032497789,525.530926139545 611.2904413866636,525.571344897995 611.2924657209078,525.6212037197402 611.2955095040379,525.6616321224719 611.3541569422523,525.693969004773 611.393609614257,525.7667342059431 611.4148432782094,525.8044653552788 611.4148432782094,525.8368118664221 611.4563130027091,525.8772304290906 611.4906975573103,525.9270890092448 611.5271064462431,525.9850293063209 611.5260942791065,526.0402821020398 611.5129433884576,526.0685827690177 611.5574423324724,526.0968737213407 611.5887976675585,526.1184411980648 611.5948633884545,526.172325900814 611.5978926079988,526.2397156714287 611.5867806151509,526.2545305451204 611.6049777777807,526.2828311160702 611.6171165013511,526.3353865136014 611.5807076124765,526.3863119438611 611.6231895040255,526.4981556479761 611.6302601102507,526.5534079946374 611.6049777777807,526.595174661823 611.5999242240505,526.6356024408888 611.5827246649133,526.6773690536938 611.5857611662068,526.7097151176567 611.6130678329209,526.7474457034114 611.6100313315983,526.8040366888599 611.5827246649133,526.8727549388423 611.5807076124765,526.9387857040856"/></g></g></svg>