<svg width="1200" height="800" version="1.1" xmlns:xlink="http://www.w3.org/1999/xlink" xmlns="http://www.w3.org/2000/svg"><g class="geojson-features"><g class="geojson-feature" stroke="#555555" stroke-opacity="0.0" stroke-width="0.0" fill="#111" fill-opacity="1.0" data-properties="{&amp;quot;N03_002&amp;quot;:&amp;quot;渡島総合振興局&amp;quot;,&amp;quot;fill-opacity&amp;quot;:1,&amp;quot;description&amp;quot;:&amp;quot;茅部郡鹿部町&amp;quot;,&amp;quot;N03_001&amp;quot;:&amp;quot;北海道&amp;quot;,&amp;quot;stroke-opacity&amp;quot;:0,&amp;quot;N03_007&amp;quot;:&amp;quot;01343&amp;quot;,&amp;quot;fill&amp;quot;:&amp;quot;#111&amp;quot;,&amp;quot;N03_004&amp;quot;:&amp;quot;鹿部町&amp;quot;,&amp;quot;title&amp;quot;:&amp;quot;茅部郡鹿部町&amp;quot;,&amp;quot;stroke-width&amp;quot;:0,&amp;quot;N03_003&amp;quot;:&amp;quot;茅部郡&amp;quot;}"><title>
      茅部郡鹿部町
    </title><desc>
      茅部郡鹿部町
    </desc><polygon points="680.4394968748093,730.935434483632 680.4055346631212,731.018118671258 680.071388444514,732.0468533124658 679.8286722276825,733.3116152232978 679.7752531059086,733.9336583762197 678.2085349261761,734.0743998778053 677.9640419556526,734.0950315183145 677.692344263196,734.0057321286295 673.39810514485,730.2846870481735 671.0564601742662,728.1745420664665 669.5282480355818,726.8437466467731 667.9796760462923,725.8285366531345 666.4175890773768,725.0466213030741 665.15420063294,724.6488113373634 663.3611648000078,724.3195145661011 661.3070335431257,723.9743221331155 660.4518615610432,723.6922012537252 660.3741795556853,723.6665182934375 659.4112081353087,723.3255141055561 658.6451651130337,722.9139985578367 657.9469300053315,722.3027728052111 657.3101531022694,721.5491527271224 656.9234324481804,721.0282064781641 653.9128251165384,717.4915298064589 652.5163257741369,715.8188408299466 652.2898042311426,715.6056967818877 651.6975335539319,715.1880999251152 651.1368366648676,714.892265839444 650.6514042312047,714.6780247371062 650.1659426703118,714.555125746876 649.6489364481531,714.5452985232696 647.3001553352224,714.8215568994638 645.7571174969198,714.8902690756368 645.313773738686,714.8617270969553 644.9013629724504,714.6971310417284 644.5225648925407,714.4065427837195 640.859801543178,710.7953818891547 640.2449282276211,710.2243757258984 638.2432548978832,708.644117976015 637.2868953315774,707.7664580558776 636.9228064428316,707.5315378537052 636.7287033743924,707.4336543708341 636.1792495502159,707.1565264464007 635.8014126649359,706.9660057140281 635.7706835628487,706.9507358586998 633.1448744959198,705.9928050653543 632.7729504142189,705.8257364843739 632.4851454294985,705.4285615136614 632.4707566364668,704.97801930696 632.5475065743085,704.5710936796386 632.7849799111718,704.016165552719 633.0861251129536,703.5454564834363 634.6630377814872,702.0162527710199 635.7091962310951,700.9558359622606 636.1792495502159,700.4620591286221 637.8216982185841,698.7371019443381 638.8144375466509,697.5613599138451 639.7141448819311,696.6934106584522 640.2821526756743,695.6187970452011 640.8355677867075,693.8013601964922 641.1810444515431,692.4221808647271 641.8833282275591,688.7002028836869 642.1567735467106,687.5179136114893 642.7870842311531,685.3512562960386 643.1244635592448,684.1395050650463 643.3121586630587,682.7690044388874 643.5468066702597,681.1265865795431 643.7037726721028,679.4199783015647 643.801639765501,678.3474831948406 643.9116819911869,677.1346798629966 644.2481001245324,674.8036625224631 644.3388893298106,674.1749717347557 644.263654001872,673.2319130057003 641.8363753245212,672.7543714238564 640.8962395591661,672.4693732327432 640.114671786665,672.0103523790021 639.2497422222514,671.3979447240126 638.878371555591,670.8061724367435 638.590333553846,670.2351531416643 638.4535817671567,669.5215534035815 638.316859107581,668.6045964794466 638.1356593493838,666.2897900009993 638.0142575502396,665.514227915206 637.8621557761217,663.8836404221947 637.7634439965477,662.0888031485956 637.6720431218855,660.6920612770482 637.6720431218855,660.1209796895855 637.7869204481831,659.1582482302911 637.9608966828091,658.2129789183964 638.3742977706715,655.8806883950019 638.7739799893461,654.648195088259 639.0410173439886,653.8790976974415 639.1898568819743,653.4515679692267 639.220615111175,652.6454979738337 639.0636491093319,652.0243488342967 638.7804753351957,649.9280716707581 638.6502188942395,649.1785410084412 638.5134671075502,648.5464960305253 638.407502677408,648.0362846909557 638.4010073315585,647.7034013852826 638.3767444482073,646.4763113606023 638.3815795484697,645.9443603018881 638.4908062152099,645.2796450728201 638.3573166648857,644.543180984736 638.1720391111448,644.122175544966 637.9446728819748,643.4694786378532 637.8403104428435,642.9831466638134 637.8387084515998,642.5099727064953 637.8986520463368,642.1694451229414 637.9139146525413,642.082384344656 638.2011662222212,641.5286880505155 638.3265875627985,641.1914488868206 638.3233253264334,640.8063510474749 638.1647864605766,639.3278721710667 637.6647322169738,638.3694469198235 637.1639206684195,637.8385360233369 636.7350822116714,637.4186550435843 636.3443128889194,636.8289954211214 636.1792495502159,636.5011885593995 636.0999655538471,636.3437471179641 635.9195231003687,635.8302993391408 635.7981795556843,635.1579592208145 635.7634017848177,634.7108541937778 635.7901113457046,634.3409423251869 635.9114548908547,633.8720601302921 636.0295944534009,633.5728789912537 636.1792495502159,633.3178756455309 636.350779107539,633.0256652249955 636.7350822116714,632.2978204922983 637.3864226702135,631.3274228234659 637.7780075520277,630.8835224990617 638.1461451093201,630.3689668560983 638.6720642275177,629.8837059958023 638.9609177884413,629.3049557928462 639.1348357689567,628.7827595775598 639.3630175574217,628.1713033544365 639.4236893298803,627.7013129259576 639.4083393422188,627.374904052529 639.2974815574707,626.7646193625988 639.2262657707324,626.1716837838758 639.2108866559574,625.7636897083721 639.3775811129017,625.2947914028191 639.5143328997074,624.9476995572331 639.6963482169667,624.6420061023673 639.8783926613396,624.3972552366904 640.2457146595698,624.0240772670368 640.3865151146892,623.7248843249981 640.4771004302893,623.4191110394313 640.4924795449479,622.9295283370884 640.2797351254849,622.124495620199 639.9916679965099,620.9407551939366 639.6655899876496,620.0834279887495 639.3929602275603,619.3283634705585 639.3015302257845,618.9410385349183 639.2659368960885,618.5874752442469 639.2869375430746,618.186009728408 639.3622019983595,617.6964167623082 639.5475086792139,617.2905630491441 639.863013546681,616.8597197440104 640.4464004551992,616.0339868875453 640.5378304569749,615.8131199234631 640.7150106738554,615.3833315998781 641.1381693439325,614.5716943278094 641.6519133298425,613.9330598250381 642.180249998346,613.1170309994486 642.7296164410654,612.5273531381972 643.1163953493815,612.1171825018828 643.9837133369874,611.5785779241123 644.4359699911438,611.4045133351465 645.0128615538124,610.894226077653 645.3000839966116,610.4666618954507 645.596219335217,609.8236299942364 645.6912902259501,609.530961213517 645.8082064498449,609.1708042332903 645.9190351075958,608.7442946586525 646.0363591111964,608.2383888862678 646.0444273210596,607.5637809796026 645.9975035449024,607.0187036664574 645.6633573262952,605.9578441205667 645.3415318755433,605.19815404783 645.2766366720898,605.0450015026727 645.5428002134431,604.091850020166 645.6035011130152,603.5206781060551 645.8462173298467,602.8471542033367 645.6714546631556,601.5305752171553 645.668221553904,600.6492483808543 645.9586771058384,599.8484525339445 646.3575728925643,599.205432447663 646.5889586631674,598.2468139618868 646.8317040073453,597.4307338517392 646.907754894346,595.9825121615431 646.8009457776789,594.7584582327399 646.6342804481974,594.2688193118083 646.3915351040196,593.7584970206954 646.102681543096,593.1665798292961 645.8753444410395,592.5137496716925 645.830051783123,592.1263439527247 645.8534991076449,591.3418161512818 645.8826262186049,590.0361054107198 645.9287635628134,588.9545300445752 645.8381199929863,588.1275297028478 645.4433020019205,586.945860856038 645.2159648996312,586.2309653313714 644.9052660055459,584.3953001061454 644.8106028942857,583.8871513021295 644.6770842169644,583.1711893478641 644.6390733369626,582.4769271843834 644.6245097812498,581.2940955608501 644.5411479894537,580.5291203636443 644.2442262186669,578.7140968581662 643.928284444497,576.8881698143086 643.8963320037583,576.7031906840857 643.698937571724,576.0306912804954 643.5775357725797,575.5823834543116 643.4788239930058,574.0937637836323 643.3639466667082,572.5735997170559 643.3793257814832,571.5942338624154 643.3186540090246,571.1654271069565 643.0532477725064,570.5941798351123 642.5216779947514,569.5331654538168 642.4310926791513,569.1458024111344 642.8639506774489,568.3905446043354 643.500669326284,567.6560474371072 645.0076186738443,565.8313322801841 646.3826513352105,564.1672249283292 646.9215028907638,563.2487839792739 647.2394835627638,562.6970282880357 647.3001553352224,562.0854493207298 647.3155344497645,561.7176236727973 647.1561508978484,561.0560140918242 646.7540220018709,559.6989802825847 646.3438248960301,558.3931039782474 646.2224522239994,557.9240007328335 646.5412193280645,556.8020513785305 647.2014435556484,555.6190980575047 647.8835131165106,553.9965290842229 648.293710222235,552.751583398669 648.4604046791792,551.6491213548579 648.4579580018762,551.554467670212 648.4441808783449,550.99614340486 648.0275175538845,549.5269661532948 647.3827015679562,547.8956207762822 646.571191125433,546.4667009311379 645.6075206543319,544.6209876275389 645.3752028160961,544.241147460416 645.1827891201247,543.9266182077117 644.9554228907218,542.8861770625226 644.8607597794617,542.0754401864251 644.6067131165182,541.1209511497291 644.1439124481985,539.8867939985357 643.6268770986935,539.3001950053731 642.6940231111366,538.4458392360248 642.2004933403805,538.3087094950024 641.3405153849162,538.2523295595311 641.0871968996944,538.2358348019188 640.5539960036986,537.8037579587544 639.8961893264204,537.2867771111196 639.4859922204632,536.5304041873896 639.1826042311732,536.0199638110353 638.9099162169732,535.5704870485933 638.788572672056,535.0807319835294 638.5231664356543,533.8367106160149 638.4301344428677,532.9747350691468 638.5984308907064,531.9397335874382 638.5531382329063,531.4292838196852 638.341121991165,531.0004864009097 637.6696255716961,529.8228569502244 637.5053486649413,529.0424823895446 637.3249353385763,527.8387487658765 637.1202300018631,526.1844185742666 637.1372111075325,525.4377683016355 637.1056664463831,524.688960780506 636.9907891200855,524.0316022339393 636.8240946631413,523.1956882326049 636.7561411130009,522.3173368434072 636.7221789013129,521.1571026797756 636.7100037689088,520.9742764604161 636.6671286612982,520.3027239664225 636.729431552114,519.6910019000061 636.6711773298448,518.0943344128318 636.7318782293005,517.9310583351762 637.3540624497691,517.236614635447 637.915545770782,516.3386897578021 638.0822402276099,515.9305160828517 638.1663593245903,515.1664376189001 638.3273739947472,514.4829184703995 638.7902037901804,513.3759379182593 639.0167253334075,512.5106785940588 639.1663804303389,511.92072377202567 639.1509430614533,511.58985317504266 639.136466887081,511.27857423061505 639.1672251165146,510.76808219059603 639.4253204482375,509.78847372333985 639.6680366648361,509.39008545165416 640.3581744356779,508.7261035849806 640.6915342222201,508.5639185454929 640.7522059947951,508.2373929937021 640.7489728853106,507.3502899159794 640.7335937707685,506.8278384497389 640.5604622222017,505.77309678820893 640.4026806612965,504.9817927083932 640.22063621704,504.45169515773887 639.7805255681742,504.20674801571295 639.5078375538578,504.0630946927704 639.2950640072813,503.7572139373515 639.2440624356968,503.46442073374055 639.1890704497928,503.01378812425537 639.118670222233,502.11581205553375 639.0636491093319,501.39847905095667 639.0377551076235,500.6354532831465 639.0377551076235,500.14562963641947 638.9916177637642,499.6362120236736 638.8557106631342,499.08435483142966 638.6332377884537,498.5727406257065 638.4082891093567,498.13624541531317 637.8961471146904,497.5386544507928 637.5886813298566,497.01292996347183 637.4673086577095,496.8300468637608 637.2699142257916,496.5230992041761 637.0126053263666,496.3402157452656 636.6630799929844,496.23789969988866 636.4357428909279,496.05395799456164 636.1792495502159,495.76319345406955 636.1477048890665,495.7273768821033 635.8030146559468,495.13416905957274 635.4349062257679,494.4178740240168 635.381487103994,493.9824687768123 635.2391137848608,493.3206403735676 635.1525188836968,492.39319986698683 634.8725782185793,491.5452669186052 634.4785466594622,490.7495287184138 633.9534722275566,489.8003295609378 633.8021568855038,489.6304906385485 633.3967948801583,489.17771690600784 633.0286864497466,488.99917789484607 632.734182229382,488.80974457244156 632.5060004410334,488.2382303424529 632.173456213437,487.5949225773802 631.6726446648827,486.5542464891914 631.2325340160169,486.0230908879894 630.7009351111483,485.6660082222079 629.8699968855362,485.3916906382656 629.1232068836689,485.2382294125273 627.9249466594774,485.217538004159 626.2946731236298,485.217538004159 625.7630742186448,484.9323255743366 625.2169700124068,484.6057690901798 624.4814813297708,483.9732679758454 623.5939200001303,482.79980565060396 623.1238666810095,482.0856697684503 622.6456577706849,481.53491022635717 622.2155377209419,481.38552227133187 621.7054928783327,481.2083101058961 621.0533659876091,481.0646435386734 620.2046310970327,481.02435731788864 618.656874666689,481.12664041435346 618.3389231218025,480.9426875660429 617.9893977884203,480.574781462783 617.6859515449032,480.1469155441737 617.5338788977824,479.83018926507793 617.4885571128689,479.46220314258244 617.4303902720567,478.9342459597392 617.4278562134132,478.91135942953406 617.2304617813788,478.5238556675613 616.304860444623,477.97191257897066 615.8655362274731,477.50273647968424 615.7741062259302,477.19686234468827 615.7287844410166,476.89098783466034 615.6834917831002,476.40221487294184 615.6228200108744,475.93193850881653 615.4480573440669,475.0642762897769 614.871952213347,473.88097454002127 614.416462449939,472.4625256131985 614.2497971201083,471.97264664410613 614.3104688925669,471.6460340032936 614.4002677761018,471.2170946262777 614.4383077831008,470.6151282081846 614.2408842240693,469.9619381344528 613.3233802240575,468.6762456378201 612.9964866560185,468.2592935816501 612.7465177886188,467.9414156692801 611.9964655502699,467.5125091125956 611.9066666666185,467.52763686020626 611.268287772662,467.635529809515 610.9503362275427,467.6148369409493 610.7383199858014,467.5331627986743 610.5255755663384,467.3285462242784 610.4041737673106,466.90175493608695 610.577334442758,466.02430267405 610.7593788872473,465.3711005782825 610.8807515591616,464.57531806919724 610.8135844409699,464.07456753763836 610.5554891093634,463.7686377442442 610.1914002205012,463.60536529746605 609.5538368854905,463.4420535522513 609.2358853404876,463.15677703154506 608.8564173370833,462.5232025391888 608.6209828979336,461.6969195928541 608.4389093263308,461.0230127489194 608.1961931092665,460.47212831425713 607.9380977777764,460.0432089136448 607.4906762241153,459.5217557430733 607.4146253371146,459.0938929023105 607.3846826666268,458.70526096381946 607.308631779626,458.27735752996523 607.2179882099153,458.03244342812104 606.8385493333917,457.7254480237607 605.420233784942,457.20720380713465 604.8133995520184,456.9415949002141 604.2365371164633,457.0841779667535 603.9177408854011,457.1364610166638 603.2364868837176,456.4505880489014 602.9613813192118,455.93453598441556 602.7574915414443,455.39998377568554 602.7105968926335,454.8164391114842 602.6515271110693,453.9302434452693 602.3974804481259,453.3717398488661 601.9427771164337,452.78058692545164 601.467830442707,452.24602795712417 600.6716991147259,451.4088151465985 599.8439939982491,450.5019130842993 599.4799051092705,450.07293734385166 598.8132146630669,448.8677643650444 598.1603013405111,447.2357606222504 597.7662697813939,446.5008282898925 597.7108408889035,446.2744023783016 597.5615935716778,445.6646936395555 597.40946267033,445.09311973914737 597.0906664391514,444.66413469571853 596.6513422223506,444.20473381417105 595.4910928782774,443.551474572334 595.2232982186833,443.39794840762625 593.9207046827069,442.65324522025185 592.9060908943648,441.94009184703464 592.3963664498879,441.4229906842229 592.0241802240489,440.8360817208886 590.923029788537,439.47188735962845 590.515250233002,439.0614321323228 589.8728226703824,438.48114167136373 589.3622826666106,437.91821355902357 588.8469075626926,437.5099507381092 588.3614460017998,437.28457495057955 587.70040621527,437.2029300716822 587.6340837831376,437.19128891284345 587.2311684552114,437.1201484867488 586.5806726827286,436.9622676226427 586.1647666632198,436.94051392091205 585.7893473281292,436.9993077053223 585.4705802240642,437.2029300716822 584.9851186631713,437.3259657191229 584.0069428908173,437.39781161083374 583.4155168997822,437.23448270442896 582.8030028800713,437.21488479635445 582.4009031110909,437.2878673983505 582.1339240107918,437.3357254732982 581.936500451644,437.7853792717797 581.9065286543919,438.1729855260346 581.936500451644,438.62154033832485 582.0352122312179,439.3564958894276 582.1217488782713,439.9149916759343 582.0352122312179,440.5204029882443 581.9138395590708,440.68369054736104 581.6258015573258,440.72398328455165 581.0189673245186,440.5410981049645 580.5634775608778,440.3363809948787 579.8433971200138,439.8975889206631 579.3077495465986,439.5459275782923 578.5998442382552,439.18336938892026 577.734885546728,438.63247590960236 577.2494531128323,438.2644681966631 576.771273329854,438.0205535296118 575.9824237797875,437.7756195352413 575.360239559086,437.8779203687445 574.7380553388502,438.081542017695 573.6457595449174,438.5104991881526 572.553522005328,438.775108638918 571.8860160000622,438.9590925888042 571.6133571129758,438.856713807676 571.3552617814858,438.67276897799456 571.1659355590818,437.8159127422259 570.8625184426783,437.1430388519657 570.4215631076368,436.3003271028865 569.9579468800221,435.5664600355667 569.351170901442,435.1081006914028 567.5946313388413,434.3416188217816 566.2919795485213,433.96815648756456 564.9901724444935,433.78193466342054 563.9788208925165,433.95181161817163 563.3614717725432,434.15041934658075 562.5508060160792,434.4112705827574 561.994915100513,434.80213536531664 560.6931079963688,435.4488717771601 559.623502222239,436.301424589823 559.1971104426775,436.61169962695567 558.8031080106739,436.8882658328512 558.3022673352389,437.01020415185485 557.6194113424281,437.0613547307439 556.6784308907809,437.0200031140703 555.6630015433766,437.0613547307439 555.1160817779601,437.23883343988564 555.0335355449934,437.2649770465214 554.6152702294057,437.2649770465214 553.9178506808821,436.8980256039649 553.0068128997227,436.301424589823 552.4113091130275,435.7788242896204 551.4679111111909,435.158193364623 547.4491562098265,433.7808371654828 546.00817976892,432.6583293529693 545.1359975538217,431.43343465961516 544.3018553459551,429.8514105657814 543.5308024605038,427.1294009721023 542.7718664533459,426.58498764858814 540.711094215163,426.6023913328536 540.2054184391163,426.36505044356454 539.0888888889458,425.2792766910279 539.0678591147298,425.2587762963958 538.5872617814457,425.1226818555151 535.9577535715653,425.12377939157886 533.3702757832361,425.3611214621924 532.591125560808,425.2272221482708 528.6573344425997,422.91454701230396 528.4089384392137,422.884011717455 528.2261075626593,422.8884019011748 527.9518175574485,423.00058675097534 527.5149108907208,423.20414215145865 527.2017944462132,423.27599211153574 526.8579197725048,423.27599211153574 526.5059768889332,423.21507839881815 525.8481702116551,422.9504524375661 524.7616124587366,422.4800752765732 524.0803293298231,422.2459839123185 523.0713953280356,422.1643341098097 521.413596672006,422.1839332006639 520.5373366614804,422.235126018757 519.7160977635067,422.35812985297525 519.0356884479988,422.57262205326697 518.3625026560621,422.8067131108837 517.7597462187987,422.8884019011748 517.2985766686033,422.86770531965885 516.5024162133923,422.6641104464652 514.8672493225895,422.4703149411944 514.816306005232,422.477840983076 513.9594737777952,422.60311818803893 513.2790062080603,422.77625619916944 511.2215253333561,423.87815119267907 510.24413599295076,424.46721674798755 509.34040911647025,425.0116346947034 508.6437760001281,425.57890368194785 508.0846811023075,424.8591946536908 507.5223822223488,424.2298346286989 507.1348168818513,423.8933991808444 506.8257491058903,423.7398609139491 506.42769800522365,423.6233646218898 505.3402664391324,423.4404277034919 505.0902684445027,423.32722390344134 504.84752310055774,423.1235902075423 504.7383255609311,422.84810628253035 504.5036775538465,422.4136344312574 504.20672665606253,422.056539082143 503.7131968853064,421.6591082129162 502.8450633387547,421.0722311323625 502.5634915556293,420.80764209572226 502.29729888704605,420.41891129373107 501.79648733872455,419.86793716368265 500.87007044279017,418.86837228079094 500.5804304498015,418.3021855947445 500.2163124338258,417.31680445437087 499.91939066315535,416.7962811164325 499.65319799492136,416.5099320586887 499.18396023486275,416.36728659440996 498.65236132976133,416.3161317706108 498.16771532793064,416.3868861409719 497.6668746524956,416.5295315940748 497.06414734222926,416.74402880779235 496.0867580018239,417.1926613636897 495.7347859912552,417.2851709034294 495.29630646051373,417.25471331737936 495.03818200179376,417.0913712179754 494.85048689774703,416.72333171614446 494.5842942293966,416.2638401623699 494.3027224462712,416.0395427493495 493.81807644455694,415.8761998541886 493.1214724550955,415.8555026904796 492.33987555559725,415.7945479659247 491.63598978857044,415.6932572523947 491.15862556453794,415.5397531358758 490.59551112540066,415.1107172531192 490.5436939948704,415.02624276431743 490.28236555389594,414.60002835287014 490.5436939948704,414.30811045580776 491.1684122738661,413.61028143559815 492.2775726650143,412.3711420787731 492.8269391077338,411.7265018050675 495.2218284374103,408.91389856569003 497.56536667014007,406.16049586527515 502.9097837796435,399.90747475414537 511.82914599834476,389.73007915972266 513.0274062223034,388.3253039905103 514.3316308765206,386.78981565637514 514.5282680037199,386.4261222530622 514.7005839929916,385.8859324840596 514.7005839929916,385.272822146886 514.5824735574424,384.9080288177356 514.5120733297663,384.6913087880239 513.7046406827867,382.1734927992802 513.3397362346295,381.0355412448407 513.3047545743175,380.94184211536776 512.451330218697,378.65380821813596 512.4006781723583,378.4961255622911 512.2523046685383,378.03417204640573 512.041133113089,377.37744619505247 510.78220111643896,373.8968996820622 509.9286019982537,371.5837484120857 509.4277904498158,370.9499020120129 505.84515578323044,368.7042763605714 503.68974956090096,367.38320686353836 501.10550488182344,365.8769948251429 499.52535910415463,365.0601541604847 497.5325986703392,364.3860645215609 496.294696448138,364.09526404866483 495.2404697885504,363.811010865611 494.76147444627713,363.68139130657073 494.3205191112356,363.3699276983971 494.0891333405161,363.0682263627532 494.03492778679356,362.69140303810127 494.042995996424,362.31352053867886 494.1789322240511,361.9726102803834 495.0583962169476,360.24092011799803 495.65468643559143,359.0984771444928 495.6951731200097,359.0211587610538 496.2558700089576,357.64667542418465 496.42008866136894,357.53446116583655 497.85136577428784,357.34061503241537 498.0309926685877,357.15657084964914 498.3360117760021,356.8407077428419 499.1887953351252,356.05543958587805 499.8765155557776,355.5555297191604 500.54239044280257,355.1264298152528 502.5044509014115,354.3912651601713 503.02061243739445,354.1255075049121 503.41222644632217,353.859749566298 503.990720000118,353.3293699004571 504.5853791005211,352.72598177031614 505.1800964551512,352.1857581867953 506.04421046050265,351.5224554996239 506.86539110413287,350.9310610674438 507.5167315627914,350.60758344241185 508.58228866860736,349.7144693429582 510.31278859381564,348.2691610091715 513.5638402276672,345.5538281999179 514.816306005232,344.57184528012294 515.5905920000514,343.96478937764186 516.5994968747254,343.08686519868206 517.7880577706965,342.28085044317413 518.2961802241625,341.7907156582223 518.6246466560988,341.3201853579958 519.0551162313204,340.7897398013156 519.3447562240763,340.453230954241 520.0324764443794,339.9532505873358 518.6311420018319,338.8673749428126 518.5259348765248,338.7867565356428 518.4151062187739,338.69958981411764 517.8196315591922,338.2399936544243 517.497602218762,337.990530730749 514.816306005232,336.12864796380745 513.1495944533963,334.9712331739138 511.6212366791442,333.7545635558781 511.17865022586193,333.4027524770354 511.02651932439767,333.3167210252723 510.8655046542408,333.35812905681087 503.29490244272165,339.09609424095834 498.6224186596228,342.7775324456161 498.45252022054046,342.906104186608 496.44601179030724,344.4211205189349 491.5604049351532,348.2691610091715 490.6076280035777,349.01959628640907 490.5436939948704,348.8019824435469 490.38722315384075,348.2691610091715 489.79043777426705,346.2367910403409 489.50563288189005,345.2695930847549 489.07440600183327,344.0791271093185 488.4958833209239,342.48674597614445 488.1827960036462,341.5064762522816 488.16095067036804,341.16012643190334 488.1051139982883,340.26039102568757 486.7118768923683,332.3582172819879 485.4237886578776,324.9534908765927 483.9900939948857,316.7141340918024 483.79287432529964,315.59219710406614 483.2320026739035,312.4015705079655 482.14296911656857,305.7272477351362 479.53364599484485,290.1904823167715 478.76422422763426,285.6083738008165 478.39981494052336,282.91090936551336 478.3103073281236,282.2485204625409 477.973743559327,280.1360728740692 475.2049786313437,282.91090936551336 475.11037377419416,283.00566507386975 474.43803266854957,283.50575969083 473.75031244813,283.8827027468942 472.6790755557595,284.34243837132817 470.9039528960129,285.1094207755523 469.3545362204313,286.0277885015239 468.3763604480773,286.6302791897324 467.9548037687782,286.95819321396993 467.4928186596371,287.5911550889141 466.97662799665704,288.3973467197502 466.85123578319326,288.45939152123174 466.27111111115664,288.26439352188027 464.6934120107908,287.73383503913647 463.19173467031214,287.315521352808 459.8598844303051,286.5703517864458 458.22474666673224,286.14113310480025 457.8679686827818,285.9907652011025 456.43342933338135,285.3850177319255 454.9010228906991,284.4557837412576 453.61782801069785,283.3837462665979 453.3208771130303,283.0569257006282 453.2334083983442,282.91090936551336 453.09432644280605,282.678844012029 452.9219813263044,282.21914453880163 452.0061084446497,279.6164004142047 451.51336510584224,278.6762023237534 450.9348715520464,277.80793180601904 450.12094355921727,276.9189103396493 448.7843295574421,275.7455320689478 447.3449551076628,274.6015643195715 445.58518243569415,273.53932906413684 443.0980475449469,272.34522579744225 441.9985282275593,271.94406543282093 441.1659588837065,271.64033153973287 439.7581582221901,270.86354140623007 436.0201595448889,268.60716903733555 434.48696667025797,267.5557728623389 433.9238522311207,266.8911858993233 433.7199624533532,266.50331323896535 433.3210666666273,265.50313320202986 433.2013251129538,265.21872833376983 432.6794546630699,263.98218506522244 431.99901622044854,262.30645243875915 430.5046497848816,259.4561945296009 430.0119064464234,258.7828782622237 429.6796826169593,258.2629259254318 429.6526526577072,258.2206424875767 429.324186225771,257.67915497126523 429.121082880185,257.0156007182668 428.2521337743383,255.18841491354397 427.2593944463879,253.49191249796422 426.35243446053937,252.43939347093692 424.2633506702259,250.67316923901672 423.64672972797416,250.22537441313034 423.45020910934545,250.08263375947718 422.73904156452045,249.74482565443031 420.743805326405,249.02900201937882 420.08684333518613,248.87645431992132 419.5010680037085,248.81436043645954 418.9298562275944,248.85574328538496 417.72591621696483,249.08827161986846 417.13044155738316,249.20331971847918 412.8916313315276,250.1022463850095 412.5012406614842,250.22537441313034 411.4991806579055,250.541372667416 409.77826355199795,251.1961577446782 408.8753231075825,251.47292973700678 408.0419673315482,251.7278923263657 406.447257998283,252.11472891375888 405.76277088723145,250.60213246464264 405.5923190328758,250.22537441313034 404.82018844457343,248.5190710563329 404.3509215574013,247.47739653172903 403.553159111063,246.47823844500817 402.3799773299834,245.00726584822405 400.893708231044,243.67902897129534 396.4866015573498,240.08434772567125 394.74625666835345,238.44987817434594 393.5099564373959,237.59123505133903 393.4533333333675,237.56106931780232 391.5236622223165,236.53103874030057 390.46052266680636,236.06136880267877 389.6465946737444,235.77481204160722 383.14070488186553,234.09453541535186 382.999117994681,234.05970115336822 378.94640088186134,232.9972538217553 375.5984142222442,232.199630788411 374.9106940018246,231.9751284532249 374.2375373370014,231.54581571836025 372.704315335257,230.3613575042691 369.45017622760497,228.013058494078 369.18075044988655,227.82664351182757 363.5349551218096,223.9201740626013 360.5332315590931,221.7200634877663 354.917378901504,217.90058960852912 354.86719288898166,217.86681230104296 354.3826051414944,217.53555121616228 349.5353295644745,214.22166075225687 345.5618964480236,211.52558108750964 344.90813843905926,211.06877113634255 338.898254222353,206.8689756077365 332.62541044619866,202.69947539560962 327.4399691093713,199.2120943032205 327.30324644979555,197.49021891108714 328.93031600350514,196.06686146219727 329.6358328888891,195.51433183194604 331.41095554851927,193.85889346373733 332.0250424321275,193.36846665566554 334.5502173298737,191.22364232561085 335.10363244090695,190.68200917332433 337.0001568996813,189.16817651997553 337.47749199636746,188.66793174599297 338.66118866507895,187.60529080755077 339.2227011129726,187.18465104151983 340.42096133704763,186.0631507812068 341.75512866151985,185.01034684112528 341.93009521777276,184.84139872179367 343.067479779711,183.74280156061286 344.1904755485011,182.84363541385392 344.7366380089661,182.29107645136537 344.90813843905926,182.14048891380662 352.5305286543444,175.44976683950517 356.2256230970379,172.2061401612591 358.1601875626948,170.4382483314257 359.2848144498421,169.49873678921722 359.64887421170715,169.33958764036652 361.06477220985107,169.19683987053577 369.18075044988655,168.35279001912568 372.01741067378316,168.0578368678689 373.72294866491575,167.82240773469675 377.8646491023246,167.3635557150119 378.65349865262397,167.33302833139896 381.0427664498566,167.06707109737908 382.76205243740696,166.89159723988269 393.4533333333675,165.80261281994171 414.90626622596756,163.61733126617037 417.72591621696483,163.33014181209728 424.0117215574719,162.68976189411478 441.9985282275593,160.90822571748868 442.1579117794754,160.89241228048922 443.01471488014795,160.86082464258652 444.15151689969935,160.67659604141954 446.2243768889457,160.31908622005722 447.03751844982617,160.31257248151815 448.8134566685185,160.29836782172788 449.82239067030605,160.26787881163182 454.0458217812702,159.7457196006435 458.6923824356636,159.27598334447248 460.2604113352718,159.22473648190498 461.8518875592854,157.5493977504084 462.7200211058371,156.8845172530855 463.19738532975316,156.57385452854214 464.75323909695726,155.7814803600195 466.27111111115664,155.11785082955612 468.4459451165749,154.16713723127032 468.92654244985897,154.0134719389025 469.0340797441313,153.98710240010405 469.5916017778218,153.84995720913867 470.7971437795786,153.69735121284612 471.5592837688746,153.40088956640102 475.226328803692,152.14299357798882 476.1193077759817,151.8367199000204 477.58944045519456,151.42469193640864 477.6460635593394,151.40938802738674 479.7318851130549,150.81645893474342 480.45927645871416,150.52866610506317 482.65997533872724,149.79399629094405 483.4010855539236,149.40488175640348 485.0588842097204,148.6690706316149 486.2871162312804,148.2407130500651 488.6026924373582,147.55504900059896 489.2054780018516,147.2999797659577 490.5436939948704,146.63267817068845 491.4417993386742,146.1848924869555 493.63198333152104,144.52033603389282 494.3358982258942,144.1225015486125 494.8391273244051,144.00807202089345 495.19596356269903,143.92739053902915 496.4791584427003,143.7072037353064 496.8780251023127,143.60034772753716 497.24534710054286,143.40091968269553 497.89831867755856,142.78827196301427 499.1264924444258,141.26111970288912 499.60385666857474,140.5045644705533 500.94533489784226,138.715766638692 502.65087288885843,136.56941204128088 503.74078025948256,135.30240506702103 504.4972113351105,134.4229997008224 504.638798222295,134.2932999986224 506.12428088882007,132.93174337624805 507.8905197796412,131.46995031862753 508.3994286650559,130.91723811958218 508.5596277760342,130.63707488559885 508.63326111307833,130.2947486572084 508.74330333876424,128.92559601500398 508.73197289241944,127.93251610384323 508.7198268871289,126.9023067910457 508.7667797903996,126.35068330657668 508.943115320988,125.87974595552078 509.5839117653668,125.02620898169698 510.74899620981887,123.59702150418889 511.8607197868405,122.23214902821928 512.5354784425581,121.20089574734448 513.9546095504193,119.5144300996908 514.0131259164773,119.4402947354829 514.816306005232,118.42217729962431 519.6878153387224,112.24729338259203 520.3480395663064,111.4917881602305 520.7881502151722,110.85727974382462 521.8311046827585,109.48472343903268 522.287410005345,108.88616061565699 522.8254460018361,108.12958550947951 523.3651131164515,107.26068106625462 524.0244926578598,106.41253572283313 524.4646615608362,105.72781618515728 524.790739569813,105.07370828086277 525.2761720037088,104.45990655524656 525.7996444443706,103.8166670978535 526.0423606614349,103.50707636331208 526.5358904320747,102.87690417590784 527.0666737778811,102.36557494831504 527.6354680036893,101.9567620010348 528.6492662330857,101.33529909793288 529.0505504426546,101.16849213081878 529.5902175573865,100.69095260219183 530.0902426738758,100.27668131509563 530.517420885386,99.83403236977756 530.8362171165645,99.40880918921903 530.9980182187865,99.07409358856967 531.2707062331028,98.73725808685413 531.8321895538829,97.8410426483606 532.5239584426163,96.40624344832031 533.2828944497742,95.26258999685524 534.4690086686751,93.55302670650417 534.8687200142303,93.15507153235376 535.3290740053635,92.96867333352566 535.90512088174,92.79204825311899 536.2716564480215,92.69392315420555 536.7457584354561,92.63285007310333 537.2142388906796,92.42894594406243 537.7369248996256,91.86201701249229 538.1770355484914,91.29614654724719 538.5096089032013,90.73792861524271 538.706187776057,90.07392946368782 538.9230391182937,89.12536178244045 539.0888888889458,88.78380274103256 539.1940668871393,88.5671782339341 539.465123783215,88.26624295162037 539.9060791183729,87.8758939835825 540.725686897873,87.38090156659018 541.436854442698,86.91970324213617 541.6246369280852,86.73326112382347 541.8300704426365,86.52939141402021 542.0744469050551,86.12157299130922 542.2499960035784,85.6440438524005 542.2888224426424,85.44017325073946 542.4126126650954,84.78491300845053 542.5825111041777,84.02273021190194 542.8195766614517,83.64116692106472 543.1796460088808,83.23338301875629 543.8163937850622,82.62278533290373 544.4126840035897,82.20628588512773 544.9078448924702,81.89662902569398 545.4232199963881,81.76364406279754 546.0672786774812,81.60443883080734 546.7994759964058,81.39177251141518 547.1991873423103,81.1257627234445 547.971871345886,80.33746614906704 548.3173480107216,80.15211815788643 548.7234964480158,79.99181283795042 549.1919477761257,79.90349571011029 549.9371357868658,79.85992591554532 551.2591862329282,79.46084979356965 551.4905720035313,79.43356955924537 551.7203557832399,79.40742763399612 552.0318411093904,79.42485558451153 552.3368893441511,79.56655576673802 552.7843108979287,79.8326457249932 553.2527622259222,79.88606779323891 554.2066459875787,79.83920082129771 556.0659459981835,79.4957056856947 556.7100046790438,79.48703096527606 557.7601535433205,79.5480287669343 558.3775026631774,79.4957056856947 558.93336445163,79.34525223338278 559.3265513244551,79.16751842654776 559.8346737779211,78.75101319828536 561.0474684303626,77.57344304898288 561.6033593458124,76.80256336025195 561.9965462188702,76.31516393646598 562.2546415503602,76.1025716040167 562.5386308835587,75.9346879075747 562.7174422187964,75.88448371255072 563.0402871181723,75.79290715261595 563.3614717725432,75.56390672631096 563.4747471075971,75.4832815687987 563.7732999963919,75.1812313919072 564.1123395698378,74.71129632712109 564.8235071147792,74.10943115351256 565.1495559964096,73.65802150510717 565.3801553351805,73.19675850472413 565.5897248997353,72.65596766630188 565.7936146775028,72.27540753857465 566.0848857884994,71.89484682894545 566.5727648996981,71.51322569622425 567.1018880000338,71.22973757598083 567.5493386809248,71.06181134004146 568.1860864569899,70.91131353698438 568.7686286790995,70.88517071696697 569.4393386667361,70.92006706335815 570.2524802276166,71.00842663168442 570.6796875662403,70.96367767598713 571.0122026667232,70.77832270599902 571.2355202275794,70.50354803650407 571.5478211130248,69.90057358780177 571.8803362135077,69.38807752390858 572.3010773335118,68.95412725157803 573.0397699982859,68.22793107363395 573.2428733442212,67.93568558152765 573.5276491092518,67.27931940520648 573.8666595555842,66.40261781302979 574.204854442738,65.85305851104204 574.517155328067,65.45501980185509 574.7817168782931,65.24241819506278 575.2898393316427,64.9578238101094 575.9411506631877,64.74522177886683 576.4970124516403,64.70596732175909 576.7639915519394,64.76806786993984 577.1539744427428,64.93603760597762 577.4695084373234,65.0952142435126 577.6394360036356,65.15303596603917 577.7607795485528,65.19335022085579 578.8069379982771,65.29258528182982 579.8587471074425,65.3929194250959 580.8345053298399,65.48995616380125 582.54977177619,65.45501980185509 582.8475091059227,65.38962205959251 583.1129153424408,65.33074052422307 583.6687480036635,65.30455786368111 584.3734493298689,65.41034835675964 584.8823873423971,65.43649175181054 585.7497344570002,65.4278165413998 586.3128488961374,65.36563764914172 586.8274375681067,65.20642193016829 587.6340837831376,64.8480291722808 588.4003015680937,64.50749669258948 588.6850773334736,64.41917407134315 589.1300522099482,64.46388494892744 589.1770051128697,64.94039484695531 589.3331555555342,65.80179241712904 589.3550008890452,66.95107678679051 589.4213233209448,67.50279263599077 589.7733244588599,68.6738550317823 589.97153444984,69.51459223713027 590.0378860089695,71.68005253357114 590.1697444409365,72.36478721024469 590.3679835591465,73.0277737606666 590.8963202275336,74.08870558056515 591.4683475627098,75.05907662247773 592.3486271146685,76.2748514827108 593.0315122345928,77.35755458415952 593.207061333349,77.97581939544762 593.5598489032127,79.21328646404436 594.4182831217768,82.28478927415563 595.1666751146549,84.86993129708571 595.2767173404573,85.17954520712374 595.7561495894333,86.73326112382347 595.7605477832258,86.74746998073533 596.24519378494,88.4494261125219 596.6197975609684,89.59746766998433 597.2581473281607,90.74664219410624 598.6886380090145,93.06679832394002 598.952384000062,93.66316193470266 599.7007759929402,95.03360747831175 600.4491971129319,95.98215264984174 601.2776886614738,96.78896465856815 601.4840251164278,96.90887155185919 601.755897571682,97.14766468229936 601.932233102154,97.46707564819371 602.0333624320338,97.77235647622729 602.0471686826786,98.2455449445406 601.9726906595752,98.63583840575302 601.968641991145,99.03162612218875 602.0787133440608,99.60615302628139 602.3206140018301,100.37916004628642 602.7170922382502,101.24153397179907 603.0334126647795,101.7103200010024 603.3991326719988,102.34595068608178 603.9056240072241,103.34023160260404 604.5876644409727,104.86435885023093 605.3215220054844,105.92951153742615 605.8425477690762,107.02845201536547 606.0407868872862,107.27159194083652 606.9453584499424,108.39234814676456 607.6039515591692,109.48142665746855 607.8992422115989,110.43211463559419 609.1525526755722,112.24289772234624 610.5814122383017,113.94471883232472 611.9066666666185,114.75908647250617 612.1639755662763,114.91713235591305 612.6923122346634,115.33577489067102 613.725509120035,116.52843325980939 614.142988003674,116.79440522653749 615.022481123684,117.10295903927181 615.2109917866765,116.93506374076242 615.652733553783,116.96014207787812 615.842088903184,117.21634128433652 616.2093817743007,117.28396244632313 616.4488648818806,117.64149480866035 616.7466313387267,117.53140943229664 616.9796482275706,117.66767196572619 617.3469702259172,117.72654112463351 617.5047517865896,117.94019680895144 617.7887119929073,117.92277155420743 618.0670797937782,118.04160862718709 618.1811124337837,118.3228849209263 618.4149740090361,118.28034224518342 618.6423111110926,118.3653490972356 618.8316373333801,118.63791242270963 619.1795315484051,118.57908272527857 619.4449086579261,118.81777658202918 619.8122306560399,118.88539730920456 620.0962491164682,119.15792081964901 620.4692509013694,119.14049565023743 620.6779757796321,119.32797314121854 620.703957162681,119.4402947354829 620.7410942292772,119.60049616720062 621.2653822293505,119.69429362594383 621.4239502222044,120.02678374730749 621.865721116541,120.00170571886702 622.1319137848914,120.28297979844501 622.1319137848914,120.55550177925033 622.5299648854416,120.70812808669871 622.6375604338245,120.99811388849048 623.0040960001061,121.06569477793528 623.1554113422753,121.17687746725278 623.2185006649233,121.54315598658286 623.6990979983239,121.71324592479505 623.7743624534924,122.18203265877673 624.1853459911654,122.28340350394137 624.3560599894263,122.45345369115239 624.3560599894263,122.70854837686056 624.6408940090332,122.68347061850363 624.8617648925865,122.79359296237817 625.0259835448815,123.04978616692824 625.3423622257542,122.98981939873192 625.5761946737766,123.24491353495978 625.8601840072079,123.26237766240956 626.0503257884411,123.47492973133922 626.3974335717503,123.4324271811638 626.695141774253,123.75619988760445 627.1247666630661,123.75619988760445 627.3836775538512,124.02871806739131 627.9208979911637,124.07125976093812 628.0349888855126,124.30994835309684 628.3003951219143,124.26748519041575 628.5722384499386,124.39499239169527 628.6482893369393,124.71880309173139 628.9452402347233,124.79509535880061 629.097342009074,125.08397754275938 629.3060668873368,125.10140229621902 629.5398993351264,125.18644606461748 629.6531746702967,125.4840794026386 629.9881364481989,125.45900192396948 630.1653166648466,125.55381754250266 630.2599797761068,125.85145044128876 630.6896046649199,125.86887514125556 630.891863324563,126.16650766367093 631.2268542293459,126.12396632804302 631.4476959857857,126.23514675890328 631.6378377671354,126.0389228798449 631.8522715591826,125.99646001204383 632.1241148873232,126.06400030024815 632.3207228872925,125.9451670559356 632.6055277796695,126.09017657197546 632.7851255467394,126.31583397311624 633.1370975574246,126.35943488392513 633.3126757830614,126.53713500668528 633.5545764410635,127.04511805041693 633.8620422257809,127.22171883494593 634.6096477867104,127.28823843132704 635.1371397689218,127.50840050849365 635.3790695538046,127.75152043707203 636.1792495502159,128.98642472893698 636.2803788800957,129.14253861177713 637.1380266667111,130.1814116112073 637.6874222365441,130.68938722083112 637.9956453264458,130.84416573907947 638.3468017778359,130.91068436775822 638.7642806613585,131.30751961719943 639.731155114714,131.63889540312812 640.6769706667401,132.2133863203344 641.4901122276206,132.9426923697465 642.2595339947147,133.87033329962287 643.1608433210058,135.06396247126395 645.2054208853515,138.02360128518194 646.019378005527,139.30440784565872 647.2499693227,141.40388348541455 649.185320220422,143.90011736680754 649.546176000149,144.12579787173308 650.3956973226741,144.93677050381666 650.9831328996224,145.27032569271978 651.7792642276036,145.2692269233521 652.1967431111261,145.15915375994518 652.8343064463697,145.15915375994518 653.4063337813132,145.40115768834949 653.6482344393153,145.59948536352022 654.3294884409988,146.28519403847167 655.1426300019957,146.96972358087078 656.0884455539053,147.61065405921545 657.1653622329468,148.03034039156046 658.352292010677,148.27340104460018 659.6273895539343,148.27340104460018 660.4518615610432,148.1353893984924 661.4796408036491,147.9632769568707 662.3026564551983,146.1509877279168 662.5158377813641,146.29367022420047 661.7534356481628,148.0101311080507 662.9470646613045,149.06803584762383 663.920405333396,149.77327701658942 667.828302449896,147.0808947053156 671.6311380764237,144.29681419185363 671.7448211911833,144.5393291025539 667.9913268907694,147.3227790419478 669.0912831147434,148.95462886302266 669.664941568044,148.54699115041876 671.0031575610628,150.46980469982373 673.3381615503458,148.9263359704637 674.2708699023351,150.13154755567666 674.7326219946845,149.77162889257306 675.2480844799429,149.25792375922902 676.2152210774366,148.47066691849614 676.2694848853862,148.3485873399768 676.0607308800099,148.06738420022884 676.1553939912701,147.76871833542828 676.0597988126101,147.67234151950106 676.0194868907565,147.72629841411253 671.975828309427,141.73724719474558 672.1747664783616,141.55182717606658 676.0063796908362,147.2677232993883 676.3447493404383,147.15608136088122 676.6610988941975,147.24111759773223 676.8504251166014,147.28365532599855 677.0721115593333,147.4536884422414 677.5146688853856,147.64114461868303 677.3941117724171,148.0324594231788 677.940245105885,148.42706987884594 678.1603295574896,148.40423146245303 678.6214991076849,148.16223045258084 679.1716811094666,147.92022920725867 679.699202218675,147.89731226180447 680.8197804375086,148.18400937580736 681.7219344497425,148.18400937580736 682.6005828835769,148.0292416344746 683.7883282204857,147.72072613897035 684.3595399964834,147.54413989098975 684.7244444445241,147.126257846714 684.996287772432,146.8149550848757 685.5901604408864,146.1739833173924 686.5351895609638,145.60866792313755 687.3402629120974,145.27990068210056 686.9738147272728,143.95238767401315 687.0757304891013,143.9244081490906 687.4408970810473,145.24493627232732 688.8216677831952,144.73836381715955 689.7229771094862,144.53995697264327 690.5142733368557,144.47352046798915 690.7343286613468,144.47352046798915 691.0345126684988,144.16613858367782 691.3185020018136,144.16613858367782 691.5717331059277,144.40590668894583 691.5717331059277,144.61844071169617 691.8112453405047,144.57598101190524 692.0458642204758,144.81464995117858 692.0960211058846,145.10354815406026 692.3492813368794,145.29975701140938 692.3492813368794,145.66600005090004 692.5070628977846,145.95485802460462 692.4560904533137,146.321139342268 692.5952306631953,146.44973401603056 692.6777768960455,146.70480412169127 692.563686001813,146.94354950380512 692.7724400071893,147.32509428675985 692.8039846685715,147.58016349584796 692.9617371023633,147.7250819315086 693.0442833350971,147.96382633561734 692.993281763629,148.20253126934404 693.1955986774992,148.4325244143256 693.2400757760042,148.85762464691652 693.1332666595699,149.07023335277336 693.2594744322123,149.35143535997486 693.1332666595699,149.6926366436528 693.3226220089709,149.9389526793966 693.2530082133599,150.23761594167445 693.4172851202311,150.43272200756473 693.3857113315025,150.79895749862771 693.6316606578184,151.17394315620186 693.3792451129993,151.4802568901796 693.4739082240267,151.62521229719277 693.3978573369095,151.94898759183707 693.019204892451,152.0340221922379 692.9958158221561,152.14299357798882 692.4714695680887,154.5900694592856 692.2732304497622,155.65065381739987 692.2732304497622,156.75592796714045 692.4722560000373,158.85305907396832 692.5960462222574,159.45907503546914 692.7546142151114,159.35662061459152 693.026457543252,159.5016106768744 693.0701773369219,159.71413181745447 693.2918637795374,159.91032916423865 693.3355544463266,160.15773379825987 693.7522177706705,160.33650850859703 693.7846071184613,160.67659604141954 694.1438317795983,160.80412384163355 694.1567933440674,160.99160920910072 694.257107114885,161.19655590265756 694.2708551113028,161.4777442185441 694.0685673244298,161.64780688338215 694.1001411130419,162.09030672506196 693.9739042134024,162.2177945622243 693.9610009031603,162.55897821940016 693.7846071184613,162.74650150467642 693.8598424462834,163.07018386374693 693.676982442732,163.257628286432 693.4367129032034,163.3001632790547 693.3517491201637,163.88984506827546 693.307242894196,164.5525094960467 693.3954106596066,165.1051470511593 693.5936789049301,165.7896248677862 694.0766646614065,167.2698154472164 693.922931768815,167.8660406175768 693.9011155627668,168.2638371765497 694.1648615539307,168.97012265620288 694.6705373297445,169.98599309235578 694.8905926542357,170.5374414580292 695.000634880038,171.2666352878441 695.0443546739407,172.6802858627634 695.1543677723967,173.1228053412051 696.1439031184418,176.08301207091426 696.8251571202418,178.29117688070983 696.9788608852541,179.1314655932365 697.0452124443837,180.12547922151862 696.9570446790894,180.6998190683662 696.4950304427184,182.06766697653802 696.1875646578846,183.45944117824547 696.0116660338826,184.84139872179367 695.5718466560356,188.29735761653865 695.3307615575613,191.2345102877589 695.2425646650372,193.84147351997672 695.1948253297014,194.37325206247624 695.0669864391675,195.80638840497704 694.8032113210065,197.528353903268 694.4957746631699,200.26813380146632 694.2093677795492,203.44815214467235 694.1219864463201,205.171124092245 694.1001411130419,207.66671897674678 694.1656771129929,208.66057951090625 694.184434972587,217.53555121616228 694.1883380054496,219.34991032455582 694.2765057706274,220.36553609295515 694.4739293297753,221.42584042693488 695.4312792179408,224.89404131483752 702.6022283378989,222.5299989345367 706.4556577565381,222.5276451589889 706.4587743574521,222.85619276791112 702.387008113903,222.8341457658098 696.6459671325283,224.73943891684758 697.6500369067071,227.83409697539173 698.3672337636817,227.59766515361844 703.5757728997851,225.88618550403044 703.7090876870789,226.29487353935838 706.7239767041756,225.27205377741484 706.7950177281164,225.51456832006807 699.2904175503645,228.0719015780487 700.2119702186901,231.07617561123334 700.2346602383768,231.45104043890024 700.3984711110825,231.57362849015044 700.5623111112509,231.6962164809811 700.793696881854,231.3747416054248 703.5810157796368,233.80907477089204 706.6150704355678,230.16631403384963 707.3416753493948,230.69369992811698 704.3585348837078,234.45633287355304 708.7485730702756,238.1456327245105 708.9970273280051,237.81008361151908 710.8961149726529,235.24531861301512 708.9970273280051,227.6202609371976 708.0322208997095,223.74627019674517 708.0016083058435,223.55149615334813 708.2027601351729,223.09188372897916 708.1392047785921,223.06709068233613 708.9970273280051,221.06680936267367 709.0943410062464,220.83994320366764 709.4004378169775,220.95888810121687 708.9970273280051,221.9241756282281 708.2594997475389,223.68919141433435 708.9970273280051,226.62808442482492 711.1838325760327,235.3415830967133 708.9970273280051,238.1949019973399 708.9962408960564,238.19600035686744 708.9970273280051,238.19764789607143 709.359135573497,238.72238857846241 709.6362800357165,239.11909133021254 709.9450856676558,239.57957640779205 710.2447745137615,239.97321810084395 710.6171355022816,240.34085181396222 710.9580974648707,240.66341346938862 711.3256524801254,241.01692455966258 711.615554616903,241.29111890151398 711.9157094969414,241.56507758208318 712.1877858418738,241.76744749641512 712.5717394205276,242.03556090168422 712.8514179413905,242.25777903595008 713.1880982187577,242.59202768676914 713.533283612458,242.92239247751422 713.8966734507121,243.26032751140883 714.3304052622989,243.60187090426916 714.7538552036276,243.85221285256557 715.1473042205907,244.00103713816497 715.680854641716,244.0988672869862 716.155743061332,244.17755502118962 716.563143964624,244.29429211234674 716.9763411628082,244.49128583003767 717.3441291948548,244.70102787436917 717.6450996339554,245.0000090286485 717.9088747521164,245.40333097759867 718.2261855005054,245.79217790649273 718.5352824035799,246.14175913279178 718.804853816866,246.45748798520071 718.9892284302041,246.7345398219186 719.1107467378024,247.03626433719182 719.3598709192593,247.57122429966694 720.0200368924998,249.44741920783417 720.3872715093894,250.22537441313034 720.8331493262667,251.17003384168493 721.2506282097893,252.51784322195454 721.6697382115526,254.08573476562742 721.867190897814,255.54253298678668 721.93351332983,257.50809880072484 721.9108524373733,257.97223695158027 721.8234711041441,258.70007663121214 721.4715282205725,260.46620474307565 720.8892190152546,262.0645228315843 721.0120189157315,262.40098064235644 721.1637129101437,262.8065101514221 721.7733433458488,265.253283679951 722.2191337813856,267.2670558565296 723.142317567952,271.06506386591354 723.4505406578537,272.16982607729733 723.6916840106715,272.9422977567301 723.9117393351626,273.51642367168097 724.9667815538123,275.63547732052393 725.6270057813963,276.8491361202905 725.604374016053,277.13678305747453 725.4724864569725,277.4461972884601 727.0995560106821,280.9509955501999 727.5542593423743,281.5469487225055 728.8253082169686,282.7910527556087 728.9045339591103,282.91090936551336 729.7452588942833,284.1833625679137 730.9556359965354,286.1422312531504 731.6280062295264,287.06059517292306 732.1975868871668,287.73818838439183 732.5908028871054,287.975700507639 733.2696393387159,288.13446013617795 735.7308802277548,288.7100021613296 735.798018218833,288.61407204618445 735.9323233279865,288.56179286318365 736.7292993423762,288.59556058893213 737.2122850988526,288.7720468848711 737.8498775608605,289.16968966141576 738.1136526791379,289.4126518701087 738.400030435645,289.76562317984644 738.7964795449516,291.090359265625 738.7964795449516,291.2886102114571 738.6711164587177,291.7156629990204 741.1032011093339,297.9786145637627 743.2545586632332,302.01690831471933 744.1087985777995,306.38937815622194 744.1861310577951,306.65687301399885 744.2634926650207,306.92444601730676 744.8371219912078,307.915714626899 745.7222948978888,310.0029070705059 747.1935344071826,312.2724732303759 753.3122957653832,305.4973605357227 757.5422222221969,309.3330999275786 760.3804844373371,311.9067495345371 762.6357383965515,311.90612208627863 762.6387384888949,312.0883565536351 760.2254990792135,312.08686636498896 759.4417467733147,312.975213373953 757.5422222221969,311.25149650563253 753.3796376463724,307.47414038015995 749.5729863680899,311.6772994060884 751.3902559574926,313.5073651667335 750.986029909458,314.05657442932716 752.2039509332972,315.0559321847395 752.8448347592494,314.745466621418 755.0549416959984,312.03435681253904 756.5443856498459,311.85780855763005 756.5530364018632,311.9869844809873 755.1236234240932,312.16792477841955 752.9387696925551,314.8305241066264 753.7807179663796,315.59219710406614 755.2452291129157,316.9150312584243 757.5422222221969,319.0043835634715 759.8109037796967,321.0680331328185 764.3199262152193,321.17261706548743 764.3345188979292,322.1540647473885 760.7068828444462,322.09732221259037 759.6227135147201,323.12558748415904 763.1521038220963,326.6005688146106 764.1242211555364,325.5722786648548 764.8873514668085,326.320390265435 763.5862725403858,327.79907851020107 765.7921560463728,329.39774909080006 767.3408445441164,329.6946680145338 767.4494886684697,329.1318471498671 767.8386851270916,327.1962559890817 768.3833329777699,324.56374789361143 764.6768207077403,319.2720217402093 764.5514284942765,315.59219710406614 764.3326547626639,310.8563987632515 764.5688756338786,310.8438497427851 764.8083878684556,315.59219710406614 764.9324111075839,319.17586810165085 768.6389233778464,324.49959454813506 768.0576044943882,327.39820346067427 771.4140088889981,330.4945278778323 773.7789846755331,332.0357742886408 776.9077024427243,332.8570365163032 781.4741926685674,335.450480482541 781.8148051059106,335.76397877564887 783.6255793493474,337.4306694600382 785.8845324516296,340.11883905145805 788.0423562240321,342.5717155742459 789.2074406686006,343.1663843182032 790.4380611128872,343.8503731727251 793.2512740126112,345.68349639483495 794.417144889012,346.5221229348099 795.69227155915,347.7572373043513 796.4115364409517,348.2691610091715 796.6364851200487,348.4292545806966 797.0070402275305,348.6623565967893 797.7805106631713,349.14808638882823 798.1979895465774,349.36813092645025 799.0338211271446,349.92031952692196 799.6495100018801,350.64898860186804 800.6608615537407,352.1280030485359 801.1657217708416,352.87736806465546 801.5176937814103,353.2520105187432 803.1221024427796,354.2681885828497 803.5614266595803,354.59926796646323 805.0347924481612,355.8572401468409 806.0461440000217,356.3865558045218 806.0874171165051,356.400474830647 806.3754259911366,356.4976335327374 808.0462153387489,357.26984390465077 809.4532004409702,358.0637732623145 810.3326644338667,358.68134182936046 811.0147631218424,359.4099460890284 812.8173817743082,361.8604371768888 813.5860171093373,362.9854593698401 814.0698475519894,363.77940973307705 815.2349319965579,365.92059304198483 816.246312675532,367.3331397799193 817.3013548942981,368.52455329441 817.9170437690336,369.1649141422822 819.2140157726826,370.2899425800424 820.0053411271656,370.9520975612104 820.2472126578214,371.3931281079422 820.3354386773426,371.9006906108116 820.6210300019011,371.94530713243876 820.9948182187509,371.94530713243876 821.1267057778314,372.0117614272167 821.5005231219111,372.7174696577131 821.6542268872727,372.9602720331168 822.2481286827242,373.4678313456243 822.7756206648191,374.5056861639023 823.6332684517838,376.6020832636277 824.3145224534674,377.66062537097605 825.3695646720007,378.9412984920782 825.7651982221287,379.33879745349986 827.0196737707593,380.94184211536776 827.6989180018427,381.809792662214 828.7547466525575,382.8040567036369 829.150409329799,383.13509819464525 829.8753539982717,383.530434235814 830.3600000001024,383.7442933661514 830.4255360000534,383.77330448984867 830.9530571093783,384.30361939402064 831.7225080037024,385.29677577945404 832.1844931129599,385.716061985353 832.629497116548,386.184352290642 832.7686373264296,386.0427479814971 834.4183677724795,387.59568652661983 834.0308024320984,388.01167576841544 836.0316893297713,390.0633068360621 837.3723520000931,391.29930320283165 838.3699555556523,392.20097138913115 839.3505780054256,393.08628876670264 841.5051686684601,394.52153668244136 844.5610686577857,396.197439160198 845.3960555520607,396.70487276709173 846.9349573403597,397.4769586174516 847.8581120001618,397.9190791058936 848.8355013404507,398.51581115543377 848.9366306702141,398.3633941183216 849.2327368819388,398.278443532472 849.5928062293679,398.3709600896109 849.8767955627991,398.278443532472 850.3193528889678,398.49076113966294 850.6163037866354,398.4058105973527 850.8881471147761,398.57571165286936 851.3185584356543,398.54191962018376 851.5524200109066,398.83922662830446 851.8363802169915,398.87301862071035 852.1203695503063,399.06902776740026 852.1203695503063,399.3238394277869 852.5823546595639,399.38366132753436 852.721523996559,399.68970931478543 853.1196042239899,399.96192588459235 853.1317211022833,400.53909145627404 853.8995700054802,400.68496050318936 854.6325828836998,400.9956326716929 855.0249833244598,401.16192542610224 856.0137031112099,401.4711857488146 856.6294211129425,401.6257961654919 859.9919713280397,402.3978667788906 862.0810551183531,402.3543141411501 862.7185893262504,402.2649743683287 863.3343073280994,402.0668508615345 864.1256035557017,401.69224254990695 864.7194762240397,401.60294174111914 865.5325886578066,401.60294174111914 866.1483066595392,401.7357561017852 866.7413928959286,402.1114619853324 867.5334755557124,403.4998126224964 868.5885177741293,405.8181559253717 868.8296320001828,406.2145144226961 869.1152233245084,406.50197292113444 870.0829133370426,407.11938232171815 871.3353791148402,407.8260888053919 872.1274909012718,408.24529792869 872.4130822258303,408.53169567720033 872.7205188835505,408.9737965653767 872.8135800037999,409.19594432169106 872.9915757795097,409.6162095463951 871.9243875556858,410.6485043129069 871.324835100444,411.2299571391777 870.5651126613375,413.30428973271046 870.4529150294838,413.61028143559815 870.3774175575236,413.8160396729363 870.3507371237502,413.8693901808001 869.5812571023125,415.4319552448578 868.6330239999807,416.2322848762851 867.3052937672473,416.6569285359583 865.9152897708118,417.32111633819295 864.8780442168936,418.2226904351264 863.9176651093876,419.5325541931088 863.3756095715798,419.8396358131431 861.5170959930401,419.8733857613406 859.936979342252,420.97968379902886 858.6974460019264,421.9138967906474 856.3591797759291,424.0240457857726 855.4368115485413,425.3338790725102 854.6325828836998,426.6323382103001 854.4885784464423,426.86477916454896 852.7814093369525,428.17467592534376 851.9973948871484,428.94004003249574 851.2012635592837,429.99404831731226 850.2530304569518,431.5249198024394 849.4568700019736,432.97190142743057 848.9511942258105,434.28172691492364 848.3832155591808,435.1331078331568 846.9939979948103,436.2915864033275 846.3871928888839,436.8675704130437 846.2359066738281,437.15389609645354 846.0231040001381,438.3374112958554 845.8111168853939,438.86874684423674 845.2043117797002,439.23561699612765 843.5351535503287,439.7255602675141 842.6556895574322,440.2568928586552 842.3822151111672,440.42021978565026 842.1370522170328,440.33747846406186 841.8967535502743,440.2568928586552 841.2600057743257,440.5018636114546 840.592528896057,440.7871268505114 839.9856946631335,441.2781645389623 839.439561329782,441.60477775346953 838.3472946630791,441.80839635967277 837.5584451128962,442.05332639365224 836.8302673351718,442.7882718316396 836.4362357760547,443.1965260122088 836.1627613297896,443.6048187192064 836.0414177848725,443.9728185523418 835.4046700090403,444.4627133231843 834.8585366755724,444.95264632604085 832.674003342283,445.85090659128036 831.6423793210415,446.17751381749986 831.4607426561415,446.2744023783016 830.3600000001024,446.8617688756203 829.8834513351321,447.11598298704484 829.2458880001213,447.85091350681614 829.0031426559435,448.5846660400275 828.6997546666535,449.1148823274416 828.2142931057606,449.76812699757284 827.851019776077,450.5247630275553 827.5476317866705,451.0549751906656 827.2441855431534,451.29997453140095 826.0006326613948,451.8312040779856 825.4844419982983,452.7490362592507 825.302397553809,453.11592518747784 824.6955924481153,453.52416246326175 824.2101308872225,454.17739558499306 823.8460419983603,454.79029734479263 823.4511948800646,455.54589912306983 823.3298513351474,455.87249365384923 822.8241755592171,456.444042852032 822.5717308872845,456.72924866504036 821.9196039965609,457.2398513040389 821.5255724374438,457.6481602151762 821.070082673803,458.26105344621465 820.4940066701965,458.62797345907893 819.5384626630694,458.8935805700603 819.0222720000893,459.2201707173954 817.8693335609278,460.4242746786331 817.3385502151214,461.5260033507948 816.2009908908512,462.9140624605352 815.1540168818319,463.95479798858287 813.9404066702118,465.2404756305041 812.9387253192253,466.44455052923877 811.8926251236117,467.3024057688308 811.315733560943,467.7520055457135 810.1943397831637,468.54777792008827 809.4507828907808,469.05725902318954 809.0866940018022,469.50689482776215 808.2371435520472,470.2003348778817 808.0251855645329,470.6902173276758 808.1764717795886,472.813043222588 808.2371435520472,474.7921416822355 808.0550991075579,475.4866643541609 807.7516819911543,476.4860023521469 807.5811136285774,478.9342459597392 807.569637546665,479.0986448608455 807.6756602310343,481.1604212592356 807.3722431146307,482.1401421488845 806.7654088818235,483.8110668431036 806.4013491200749,484.8136633131653 806.0874171165051,485.8903605933301 805.6278204302071,487.46650379057974 805.2176233245991,488.36343533411855 804.7629491200205,489.7513451119885 804.1860575573519,490.445826135925 803.5185515519697,491.5278677652241 803.1851917654276,492.670801468601 802.7297020019032,493.2836478407844 801.3041046755388,495.10039010673063 800.7887004445074,495.5488425583462 800.3186179982731,495.9363982480718 799.8331564373802,496.54810018942226 799.499010218773,497.3645102963783 799.4083957760595,498.222259210248 799.5596819911152,498.833994732704 799.8023982081795,499.2421963798697 799.8938282099552,500.67028950416716 799.7118128925795,502.48697797895875 799.482990307617,504.0936984216678 799.3776666737394,504.83371190493926 798.922147783218,507.01831608172506 798.8008042381844,508.97755092405714 798.7101606685901,510.18031757185236 798.7708324409323,510.91498394473456 799.2203511466505,511.58985317504266 799.2870522310259,511.69000779802445 800.7733213299653,513.4042678419501 801.4262637796346,514.2619616105803 801.6552611271618,514.7245640977053 801.7507106703706,514.9182879405562 801.8987637760583,515.2154562613578 802.0330688854447,515.4864496378577 802.0937406577868,516.261420106981 801.7595944391796,518.5068538659834 801.3647764481138,519.689943962614 801.3041046755388,520.7108513059211 801.3955346773146,522.3837510836893 801.167352888966,523.4645570990979 800.6908042241121,524.6475845053792 800.6527642171131,525.0764320242452 800.4399906703038,526.6578914875863 800.2280326826731,527.4643292982364 799.7878637795802,528.1272033973946 799.5678084553219,528.6582693653181 799.3590544499457,529.4006000538357 799.3024022186873,530.0046187922708 799.3331604481209,530.56510581146 799.4545039929217,531.1376201584935 799.7279784391867,531.9125028348062 800.5087597796228,532.7799281831249 800.6527642171131,532.9943254556856 800.7741368890274,533.2805408256245 800.6980860017939,533.7801337669371 800.5613342153374,534.2796473466442 800.4852833281038,534.7085174911772 800.417329777847,535.1373085377854 800.3946688853903,535.8087819252978 800.4246115555288,537.482677520602 800.4043682134943,539.1151880104444 800.3954844445689,539.9107327873353 800.8194295465946,540.8488494072226 801.3348629049724,541.6650753860013 802.0937406577868,543.8286705516512 802.2402791538043,544.241147460416 803.0501002240926,546.5211592568667 803.823570659617,548.4495640045498 803.8640282169217,548.5866881726542 804.0209942187648,549.1232347293408 804.286400455283,550.000394775474 804.3923648854252,550.5717283688718 804.3923648854252,551.4902551542036 804.1423668907955,552.2454857560806 803.898835114669,552.7656873591477 803.2393973191502,554.2457368696341 802.8219184356276,554.9890100504272 802.4659268836258,555.6115368542378 802.185170659679,556.3363143733586 801.9035988765536,557.0915303088841 801.5929291093489,557.8358919657767 801.4109137919731,558.3876192284515 801.2749775644625,558.9883161386824 801.0621748907724,560.1712534882245 800.8801013191696,561.1506641724845 800.5621789013967,563.2313898253487 800.4407771023689,564.2520798632759 800.5621789013967,565.7211704244837 800.8906453334494,567.5369935830822 801.0937195520382,568.6593256024644 801.5638019982725,571.638814679638 801.9731835448183,573.5550771459239 802.7313331200276,575.2287195640383 803.3534882133827,576.0448330994113 804.1294344534399,576.8881698143086 804.2265151146566,576.9937433986925 804.7726484481245,577.5236868613283 805.2200700019021,578.1253954014974 805.940150442766,579.4518520532874 806.0874171165051,579.6822703423677 806.728999992949,580.6858135486837 806.9086268872488,580.9850580855855 807.4385946737602,581.868648055126 808.0340984604554,583.0003171263379 808.5534931059228,584.0307978505152 809.0049924552441,585.2951737882686 809.2137173333904,586.3158519372228 809.20561999653,587.9066772155347 809.1716286578448,588.8566000600695 809.0430033352459,589.8043648372404 808.8690562275006,590.5594795007491 808.7169253263855,591.4920000644051 808.4968700018944,592.4755966983503 807.9960584534565,593.3080274441745 807.7452448997647,593.6040056330967 806.5922773333732,594.5626027797116 806.0874171165051,595.0050008587423 805.621383338701,595.413436922594 804.309847779572,596.6690984570305 803.1277822293341,597.6777830561623 802.4287315626862,598.2914683595882 801.8680055466248,598.5460766148171 800.5022935608868,599.1325363647775 798.811289998237,599.8103790223249 796.8387437798083,600.6166196429986 795.1404875662411,601.5251305851853 794.776369550149,602.4836973103229 794.5182742186589,603.0135866529308 793.8888082205085,603.9928292251425 793.4486684445292,604.5433968817815 793.1679413475795,605.5324257986504 793.3046348800417,606.3288556219777 793.3952784498688,606.547576671117 794.4195624392014,609.0119354751077 794.5166431005346,609.530961213517 794.5490324480925,609.7039303845377 794.4276597761782,610.2349011215265 793.8734291058499,611.3968754846719 793.3653066526167,612.0595266823657 793.2375260161934,612.4979377532145 793.1307168997591,613.0691674614791 792.8426497707842,614.4574413447408 792.493124437402,615.1918791311327 792.0691793352598,616.1297128174338 791.8491240107687,616.5986283392413 791.4777242171112,617.0675429801922 791.0901880036108,617.5266648649122 790.893550876528,617.6496116244234 789.7560206791386,617.9553136425093 788.6783175680321,618.2817348329118 787.8060770987067,618.5787800955586 787.3740637867013,618.8943119649193 787.0253248853842,619.2304454022087 786.7672295537777,619.6178090558969 786.5706215538085,620.2705683279783 786.2599226596067,621.3324245531694 785.8723864463391,622.2593859771732 785.4403148801066,623.0046499692835 784.7421088997507,623.6367204508279 784.0980502186576,624.0349263825337 783.9232875519665,624.4831471904763 783.9386666667415,624.9314063601778 784.9160268800333,626.705870276317 784.946785109234,627.1954455724917 784.9014924516669,627.5620780914905 784.4767026631162,628.1539137245272 783.9006266596261,628.7870678086183 783.1271562241018,629.2766390232136 782.6942982258042,629.3789005372673 782.1554175431374,629.9087327896268 781.8148051059106,630.319540006225 781.4879406649852,630.7138187343371 780.6400213334709,631.6625212219078 779.7743053369923,632.5088815838099 779.3648946632165,633.0398038151325 779.3300877654692,633.1377164667938 779.1076148907887,633.764356528176 778.8640539876651,634.6716893845005 778.5307524552336,635.8640200837981 778.0905835519079,637.3326892116456 777.8866937743733,637.7808861441445 777.2564413441578,638.7099796866532 776.8923233280657,638.9133983486099 776.6496071110014,638.9340770172421 776.3462191218277,638.8731376021751 774.7992199964356,638.0974903431488 771.5604600035585,636.4667237747344 770.2408562345663,635.6301288321265 770.0434326756513,635.3646314474172 769.7246364444727,634.7935310860048 769.3912766579306,633.854670897359 769.0878886685241,632.9070733631379 769.0498486615252,632.4272613944486 768.9511368818348,631.8463238340919 768.7165180017473,631.2349142802414 768.3225155698601,630.3482874779729 767.7763531093951,629.6846273570554 767.2601624462986,629.0318927015178 766.8879762205761,628.7152770049288 766.3499402242014,628.3595342730987 765.4922924373532,628.1245393464924 764.5294957796577,628.0635972926975 763.8692715519574,627.920015248761 763.3118077726103,627.6861165539012 762.5722995485412,627.1660319158109 761.8667826631572,626.7482479518512 761.5334228763822,626.7885106537142 761.3133675518911,626.97239518672 761.0933122276329,627.4511209934717 760.7025429049972,628.6239033009624 760.1523317761021,629.506228009297 759.4929522346938,630.154653217236 758.6353044480784,630.7867055949173 757.8739508907311,631.2610375683289 757.6991882241564,631.3828809343977 757.5422222221969,631.4924263337161 756.982340892544,631.883334997925 755.9434642206179,632.6731793410145 755.6481735680718,633.0463443814078 755.16996465798,633.7392909559421 755.0178628836293,634.1429638580303 754.9272484409157,634.5704874888179 754.874644878204,635.6312254426884 754.7985939912032,636.4155748923658 754.752485774341,637.946277031966 754.7832440035418,638.7610889349016 754.7144748943392,639.2810710887425 754.5858495716238,639.8631271040067 754.3657359930221,640.7703986307024 754.0243079963839,641.7494930998073 753.8182628125651,642.1694451229414 753.7136091024149,642.3826518666465 753.2961302187759,643.2496933599468 753.1149013334652,643.6565622831695 753.0542295608902,644.5442775561824 752.9480612409534,645.3914949988248 752.848708664882,646.6547377448878 752.7726577778812,647.1747034578002 752.5987106704852,647.7055945001775 751.9619337671902,648.3680709985783 751.6132531199837,648.6422094939626 749.8461986704497,649.7344525962253 749.2547435520682,650.2141529777437 748.2603731059935,650.835306620982 746.8954475520877,651.8350392186549 746.3266533262795,652.3038876774954 745.6518946704455,653.0697394807357 745.0143313352019,654.1912953658612 744.0442528997082,655.8121557863196 743.4600795592414,656.6791506415466 742.7472808960592,657.4536436575581 742.0870566685917,658.3718163684243 741.6857433315599,659.1865616107243 741.532825998147,659.4563022038783 741.3896371200681,659.7075977295171 741.1015699912095,660.573482556676 740.7301993244328,661.4404608780169 740.4114322206005,662.1236168408068 739.4478200034937,663.0830473960959 738.8563648853451,663.5725513611687 738.32479510759,664.2045583009021 737.5820537742693,664.6320304564433 736.709871559171,665.1117413752945 735.5496222152142,665.483761453419 734.0406922241673,665.7959446111927 733.5924551110948,665.9428334657568 733.3116988871479,666.157116385235 733.2696393387159,666.196785333741 732.6522902187426,666.7792876791209 731.6474340124987,667.62670379068 731.3173073352082,667.8551218833891 730.9839766756631,667.957367596624 730.0357144462178,667.9366913317353 728.837483349489,668.1466258286964 727.7605666704476,668.3043604922132 726.6075991041726,668.492561154475 725.6439868870657,668.9766113532241 724.9611017671414,670.0534933896852 724.3089748765342,671.2304222455132 723.5929722313304,672.4780665047001 723.1334046720294,673.53425763821 722.9893711077748,674.1357739570667 722.9820893297438,674.8036625224631 722.9820893297438,675.634722353192 722.9893711077748,676.2361944534932 723.3627806720324,677.7823156956583 723.2869628019398,678.5528666189639 722.9167280925903,679.7196527147316 722.4056929281214,680.9986980675603 721.8428988871165,682.001011756307 721.2467834310373,682.7265187992598 720.0854855112266,684.0243441447965 720.0620964408154,684.0470944023109 718.2643420160748,685.7699994408758 717.460899783182,686.5346130570979 716.9373982151737,687.2895135054132 716.3605357796187,687.7180425230181 714.1314962204779,689.9401635641698 713.5699837724678,690.3578417995595 712.7730660124216,691.1235377345583 712.1823973262217,691.6945875747479 711.4987257742323,692.0719715509913 709.8004695610143,693.3042801438714 708.9970273280051,693.8926317393198 708.9509191112593,693.9264621097245 707.1612328960327,695.0684693541261 706.5244851200841,695.3741157476325 705.3416040107841,696.0984875920112 704.620678883628,696.6488521680003 703.8771219912451,697.0980389764882 702.7614080000203,697.8517328441958 702.1100675414782,698.464075623604 701.4579989049817,698.8708545835689 700.9916156016989,699.3640863982146 700.676402005367,699.6974490022403 699.9029024427291,700.5958499981789 699.3268264391227,701.0939727052464 698.8640548978001,701.3691104857717 698.2273071219679,701.5225171884522 697.7118737637065,701.5333629368106 696.9829095539171,701.6649605914135 696.8235260018846,701.7878659254056 696.4448735575425,702.235947172041 696.3396955593489,702.429564693768 695.6333631147863,703.725995560002 694.7005091272295,704.3774778183433 694.2757193386788,704.693997583352 693.8056368924445,705.2029968588031 693.206113564549,705.5303611521958 691.7796715521254,706.2742803289439 691.2343829049496,706.8050065766438 690.6121695574839,707.1921952315606 690.3416078223381,707.4336543708341 690.0296273351414,707.712034895434 689.4292884480674,708.4461984159425 689.1266868906096,708.8540182521101 688.8305806792341,709.487006880343 688.5878353350563,709.9351134658209 688.1711428835988,711.0465866007726 687.9737193245674,711.6588970265584 687.8369966649916,712.1678821064997 687.760945777758,712.7388838261832 687.760945777758,713.4925304903882 687.836210233043,714.1157192736864 687.9502720000455,714.6551598132937 688.0036911219358,715.1641387865529 687.9583402097924,715.6937890353147 687.760945777758,717.6307145018945 687.5263268977869,718.681272598973 687.2835815539584,719.1913396107848 686.798149120179,719.8340899027535 686.737477347604,720.4463787840214 686.3960202240851,721.3327248668065 685.7973124551354,722.188608259894 684.9631411201553,723.1173094824771 684.7244444445241,723.4178319327184 684.4776795592625,723.7285332417232 683.9088853333378,724.4419389425311 683.5674573369324,724.9313226427766 683.1879893332953,725.6556087594945 682.793142215116,726.7757816161029 682.421771548572,727.714292487537 681.8829491201323,728.3254658462247 681.4282457885565,728.8659327456844 680.9816397938412,729.6304535742383 680.4394968748093,730.935434483632"/></g></g></svg>