<svg width="1200" height="800" version="1.1" xmlns:xlink="http://www.w3.org/1999/xlink" xmlns="http://www.w3.org/2000/svg"><g class="geojson-features"><g class="geojson-feature" stroke="#555555" stroke-opacity="0.0" stroke-width="0.0" fill="#111" fill-opacity="1.0" data-properties="{&amp;quot;N03_002&amp;quot;:&amp;quot;後志総合振興局&amp;quot;,&amp;quot;fill-opacity&amp;quot;:1,&amp;quot;description&amp;quot;:&amp;quot;虻田郡留寿都村&amp;quot;,&amp;quot;N03_001&amp;quot;:&amp;quot;北海道&amp;quot;,&amp;quot;stroke-opacity&amp;quot;:0,&amp;quot;N03_007&amp;quot;:&amp;quot;01397&amp;quot;,&amp;quot;fill&amp;quot;:&amp;quot;#111&amp;quot;,&amp;quot;N03_004&amp;quot;:&amp;quot;留寿都村&amp;quot;,&amp;quot;title&amp;quot;:&amp;quot;虻田郡留寿都村&amp;quot;,&amp;quot;stroke-width&amp;quot;:0,&amp;quot;N03_003&amp;quot;:&amp;quot;虻田郡&amp;quot;}"><title>
      虻田郡留寿都村
    </title><desc>
      虻田郡留寿都村
    </desc><polygon points="260.47729800548404,602.687853865209 260.8033468872309,601.8262556268601 261.1212984320009,601.4345146309352 261.7880180054344,600.8161021288834 262.3195877830731,600.2791345334845 262.8802555449074,599.6188866049051 263.4264180054888,599.1445860911044 264.2306466702139,598.814480634348 265.14083976554684,598.092628421844 265.4596651236061,597.2871478731977 266.3698582185898,594.9763037193334 266.41518000373617,594.6670697446098 266.3844217743026,594.3160415711463 266.3844217743026,593.7184883413138 266.00576932984404,593.3476512433263 265.8383175681811,592.9757439763634 265.6263013264397,592.1713163023232 265.2169197796611,591.2227252838202 264.6254646615125,589.9220265501644 264.5801720037125,589.4477469726698 264.74686646054033,589.0559466660488 265.29297066666186,588.6014733755146 265.8083457706962,588.2515458012349 266.0664411021862,587.900508480845 266.2177564445883,587.5495102764689 266.36907178664114,586.6415873170481 266.7331315485062,585.7337402424309 267.1433577814605,584.0412438408239 267.29467312362976,583.422787651536 267.6741120001534,582.681042265729 267.68949111469556,582.2683530705981 267.3253730988363,580.9676070312853 267.37072401086334,580.2468117765384 267.704025543062,579.5447138093878 267.76149333338253,579.4588629612117 268.00747178669553,579.0913322502165 268.56895510759205,577.7915994846262 268.78172865428496,577.2754998359014 268.81170045176987,576.801156278525 268.76640779385343,576.4501422499306 268.28094623296056,576.1200063643628 268.0228509014705,575.9757971023209 267.8561564446427,575.7689121286967 267.7493764553219,575.5212996664923 267.6887046827469,574.8609853435191 267.7647555699805,573.9112579355133 267.99209267203696,573.1892930886243 268.65796755917836,573.2333487334545 268.91766488191206,573.2509392944048 269.5244991147192,573.3543828608235 269.3877764553763,573.0660798674216 268.9023148942506,572.8184646866866 268.23480888910126,572.4255682161893 267.8553408854641,572.4883239312912 267.11259955202695,572.5708492570557 266.9151759929955,572.4674053614144 266.77845333341975,571.8907177224755 267.23394309694413,570.4050158098689 266.87556312186643,569.4519432171364 266.5203580019297,568.5066322867642 266.30837088730186,567.8869881147402 265.3827695501968,566.8348968838691 265.1853459911654,566.3187346464256 265.1853459911654,565.5142594899517 265.33747689262964,564.6470240064082 265.33747689262964,564.17269573675 265.1853459911654,563.4914316420909 264.91271623107605,562.9554523774423 264.759769770666,562.2126152001438 264.80590711475816,561.9033400710905 265.06318688730244,561.1802702604327 265.1092951039318,560.6233663875028 265.06318688730244,559.839752643602 264.9571933298139,558.82942686358 264.92646422749385,557.9423574103275 265.04783689964097,557.4470963759231 265.21531778841745,556.6833226660383 265.06318688730244,556.1264086202136 264.7905280000996,555.5893435471808 264.775148885441,555.3207511396031 264.8051206828095,555.0324270264246 265.04783689964097,554.6406115678838 265.3059031040175,554.3511376371025 265.79136466491036,554.041892252746 266.21612532634754,553.5884637249401 266.428928000154,553.1757257588906 266.47422065772116,552.8862501055119 266.08021822571754,552.8245987999835 265.6700211201096,552.7002659788122 265.45803400548175,552.5153514980921 265.2606104463339,552.0608107483131 265.1546460161917,551.4422742150491 265.1392669014167,550.5959095875733 264.98795155924745,549.7704625506303 264.8819580018753,548.4496939874371 264.699913557386,547.8916518853512 264.57854088547174,547.4382120289374 264.6545917724725,547.1080372355063 264.91190067201387,546.6953280264279 265.2306677760789,546.5302203755127 265.5947566648247,546.4476466972847 265.59306729235686,546.4421787654865 265.39736223290674,545.8093242854229 264.8819580018753,544.9629006677424 264.7007291164482,544.7780199976987 264.57854088547174,544.6536434893496 264.4264682382345,544.467613519635 264.44178909878246,544.1583557191188 264.63842622574884,543.3746499386034 265.1238877866417,543.1886982487631 265.8366864499403,543.1886982487631 266.1400744392304,543.0852023827028 266.44349155563395,542.8585177553468 266.4588706702925,542.7341006539646 266.39010156097356,542.4556676324573 266.46615244820714,541.8161461657728 266.5114451057743,541.3517194051528 266.44672466488555,540.7595056637074 266.4127333264332,540.4436260533985 266.2614762382582,539.9274084770004 265.76063556282315,539.3077716116677 265.7760146773653,538.6892030327581 265.79136466491036,537.9253711209167 265.4879475485068,537.2858378842357 265.5025402311003,536.9556098488974 265.80592822039034,536.1103048929945 266.0187308943132,535.5941178536159 266.4281124409754,534.1488914083457 266.5041924553225,533.7988864255603 266.79220132983755,533.4268891880056 267.09561844635755,533.3035768139525 267.50502912013326,533.5093879847554 268.02121978311334,533.9430807723547 268.2639360000612,533.8814643469523 268.65796755917836,533.5303098654258 268.49130222934764,532.808266205655 268.0357542115962,532.1269549294957 267.929789781454,531.4467512705596 267.9742960073054,530.3735425139894 268.0657260090811,529.6921848731581 268.15631132456474,529.4038307402516 268.3990566683933,528.9701695802505 268.7024737847969,528.1654931066441 269.4468171093613,527.607444643334 269.82546955381986,527.3597837325651 270.0989440000849,526.8853836091002 270.91773622040637,526.658644436684 271.09978066489566,526.4109825713676 271.5245704535628,525.6470729311695 271.57067867019214,525.3994100480922 271.1758315520128,525.1308243229287 270.76645000546705,524.7598838921986 270.7057491057785,524.6354972685804 270.6831173405517,524.3482071203762 270.7842466701986,523.7890404647333 270.92988222581334,523.5744241110515 271.0819840001641,523.2904217172181 271.0844015502371,522.9646130699548 271.1451024498092,522.510017749446 271.53910488192923,521.4158471179544 271.82795844285283,520.9414355381159 272.3740917760879,520.094926403428 272.6766933334293,519.5170857556514 272.737394232885,519.1251741340966 272.6621297778329,518.692604424723 272.5553497883957,518.3425774626667 272.6160215609707,518.0739444096689 272.79885243740864,517.8142272065161 272.96554689423647,517.5786031535827 273.23010844457895,517.4487443250837 273.8450108872494,517.1449211587314 274.451815992943,516.8774756220519 274.9372775538359,516.6088805973995 275.2859873281559,516.1134967653779 275.5894044445595,515.5356467703241 275.6953980019316,514.9577161628986 275.71077711647376,514.4623686354607 275.61934711469803,513.7809669476119 275.4432737281313,513.4210259983083 275.2859873281559,513.0996030012029 275.13388555380516,512.4391608423903 275.1646437831223,512.1914450405748 275.4073891273001,511.2425854059402 275.4825953282416,510.6646843464114 275.34665910038166,509.73559349944117 275.30541511112824,508.9331129777129 275.2859873281559,508.5588589448016 275.17999377066735,508.0018360055983 275.01251288189087,507.4239273366402 274.785175779718,506.59833550849 274.8612266667187,506.2680662983912 275.2244999965187,505.2575206065667 275.3612517830916,504.8238169006072 275.406544441008,504.5144696565694 275.3612517830916,503.5865048507112 275.6039680001559,502.9050730513991 275.75528334232513,502.2654884440708 275.7706624569837,501.9341434133821 275.8920060019009,501.25381667836336 275.92759933159687,500.6891286042519 275.95267777424306,500.282880526036 276.40819666488096,499.4374496128876 277.12099532817956,498.1781155762146 277.1792495502159,498.1058692294755 277.9705749048153,497.1256867204793 278.4406282239361,496.5268274874543 279.0021406720625,496.23835523449816 279.6226937742904,496.1349188860622 281.1098075591726,495.8453761410201 281.56448176375125,495.98959272459615 282.29265954135917,495.86630122346105 282.7029149013106,495.8035259707249 283.02083731931634,495.86630122346105 283.5823788943235,495.98959272459615 283.9917604409857,496.62919364182744 284.50795110396575,496.9077181390021 284.6139737884514,496.9077181390021 284.7280646828003,496.7942951392033 285.5088168961229,495.90704171999823 286.2523737885058,495.4534664545208 286.62374445516616,495.1947557844105 286.73052444460336,495.02961358311586 286.9886489030905,494.5034326167661 287.2993186702952,494.1324460231117 287.6180857741274,493.8693349059904 287.7993146595545,493.71964797668625 288.5809115592856,493.36954586504726 288.9830404551467,493.245183007326 289.19499844277743,493.28695435024565 289.7484135539271,493.60622350737685 290.6060613404261,494.3999559080694 291.1586608925136,494.8436253652326 291.46204888192005,495.0505783659173 291.6748515556101,495.1122045129887 292.09233043924905,495.0395609566476 292.31969666853547,495.0087676914409 292.6910382080823,495.1738702757284 293.19916066131555,495.5668504413916 293.62395044986624,495.72101453423966 293.8593848888995,495.71106718829833 294.034147555707,495.50415437400807 294.30680644279346,495.02961358311586 294.6482344393153,494.57607633137377 294.98238065780606,494.2656461665756 295.6191284338711,493.8737339643412 296.1571644303622,493.28584467532346 296.58923599659465,492.79045352735557 296.9759857777972,492.73873463395284 297.5908882204676,492.73873463395284 298.32634777599014,492.646274700237 299.3579426702345,492.233474160952 300.784355555661,491.32523920049425 301.4518615610432,491.00509518856416 301.5578551182989,490.95420818426646 302.2552746667061,490.7692473094794 303.87832467921544,490.0669337097788 304.5304224427091,489.7982697923435 305.09193489071913,489.3645388421719 305.48678200889844,488.538886429742 305.66882645338774,488.1678908446338 305.88078444090206,487.98181817674777 306.2149597867392,487.5282679366064 306.2602524445392,487.0526813272736 306.2901951147942,486.6607576382812 306.3816251165699,486.4130555206211 306.5482904462842,486.33046167122666 307.0790446649771,486.16535315389046 307.3071973263286,486.103724766348 307.41319088381715,485.8967246093671 307.64055711298715,485.42224455747055 308.1713113314472,484.9885058949003 308.52002110588364,484.9059115672135 308.92943177954294,484.71987606567563 309.21665422222577,484.47217199462466 309.52007133862935,484.122096359788 309.62685132806655,483.85342595208203 310.172984661418,483.791836618213 310.9545815610327,483.93824006727664 311.0524777813116,483.95694672793616 311.91740734584164,484.4314296049997 312.44816156465095,484.6791337171453 313.13101755746175,484.71987606567563 313.9198671076447,484.70005974912783 314.4207077831961,484.70005974912783 314.4288051201729,484.70338889048435 314.86081843217835,484.90702128008706 315.39160177775193,485.2780614136718 316.0437286684755,485.4849828259321 316.6966711183777,485.8152402951964 317.24277532449923,486.103724766348 317.69747865595855,486.2688729573856 318.213698446285,486.3513875628123 319.01629599300213,486.4130555206211 319.8359328994993,486.18627905938774 320.53335244813934,485.8967246093671 320.85211955208797,485.6490613553906 321.3674946560059,484.9059115672135 321.8982780019287,484.5139844593359 322.8546084408881,484.32798829401145 323.6434579913039,483.9360206328565 324.23491310945246,483.6057606416289 325.0237626596354,483.2964263584581 325.53916689078324,483.2347576195025 325.7244444445241,483.13872715533944 325.8579631219618,483.0696073923609 326.38868821330834,482.47071395401144 327.1168659912655,482.40904500801116 328.02711734047625,482.3056028470746 328.49719978671055,482.09970922069624 328.8766386632342,481.9345582316746 329.3920428941492,481.91363196464954 330.13559978676494,481.8311158712022 330.8483984497143,481.5415166634484 331.24243000894785,481.4589608121314 331.5005253404379,481.4798871179228 331.7885633422993,481.66596470191143 332.1987604481401,481.7066679162672 332.5320911076851,481.64503841206897 333.1987815538887,481.7892633175361 333.6081922276644,482.38700905709993 333.7602648749016,483.04757150041405 333.88166667392943,483.19183521688683 334.2303473210195,483.41968452429865 334.5790862223366,483.6255770463031 335.14059867034666,484.0791344791651 335.76278289058246,484.76061840727925 335.94482733507175,484.9675798874232 336.35420888185035,485.00832218810683 336.8396704427432,485.3594666403951 337.6285199930426,485.87579867907334 338.098631566274,485.99913481780095 338.872888433747,486.4736137574073 339.3583499948727,486.4328716993332 339.6164453261299,486.53635175788077 340.1625786595978,486.70149965863675 340.6779828906292,486.78409338364145 342.10439577605575,486.6398714053212 343.3318122384371,486.350277856458 343.36414333153516,486.3404093965073 344.51547977956943,486.00020489335293 344.92489045334514,485.6072094509145 345.56242466147523,485.4013185868971 346.214551551966,485.48391274828464 346.7453057706589,485.5455412910669 347.88289422227535,485.52461533102905 348.6110720001161,485.42224455747055 349.384571562754,485.194357471657 349.87003312364686,485.0292085594847 349.99702732800506,484.9682536413893 350.38619465962984,484.78154443233507 350.6289108764613,484.7408020941075 351.65969021152705,485.07106056209886 352.5853206757456,485.256025719631 353.9510326614836,485.523545253498 354.57729467749596,485.76573935401393 355.1800511148758,485.99802511004964 355.6800762312487,486.08057943865424 356.6509702259209,486.06076323159505 356.90906555741094,486.14335717156064 357.37914800364524,486.67950372432824 357.803908664966,487.0097595905536 358.47141467034817,487.42256889207056 358.92608887469396,487.9179708455922 359.4423086650204,488.661111537891 359.8064266809961,489.15651099808747 360.3525308871176,489.19721297349315 360.76194156100973,488.99136474489933 361.3072593351826,488.76348096405854 361.5653837939026,488.578518442926 361.7021064533619,488.4133718017256 362.0845745494589,488.27600712451385 362.27818245696835,488.20641321962466 363.0063602346927,488.2273389517213 363.20375466684345,488.1855271177483 363.49179266858846,488.00056416227017 363.76523798773997,487.9179708455922 364.4173648781143,488.08311781915836 364.64473110775,488.08311781915836 365.19089356798213,487.855272829358 365.6463833316229,487.34005464578513 365.99512223305646,486.8864635905484 366.541226439178,486.617835833109 367.5121495608473,486.22591145156184 368.2702408817131,486.26665354392026 368.61897978326306,486.22591145156184 368.9984186596703,486.1840992778307 369.19584221881814,486.06076323159505 369.83258999476675,485.60609974118415 370.3787233280018,485.2758419912425 371.1829519929597,485.1106931338436 372.0923877832247,485.02813847979996 372.274432227714,484.88284539210144 372.6109959963942,484.27400855818996 372.68462933343835,484.1396932901698 372.98804644984193,483.5209860445466 373.15471177967265,483.37676215393003 374.26963933871593,483.10935918509495 375.0503915520385,482.92205407179426 376.233272661455,482.73605670337565 377.5383128747344,482.67438782408135 378.3272206791444,482.67549754696665 379.3434073316166,482.59290244296426 379.8134897778509,482.427751785086 380.37500222597737,482.11841602117056 381.1638517760439,481.8288964177482 381.9681095679989,481.5404465685715 382.75611443212256,481.1683307031635 383.4236204372719,481.14740437082946 384.0150755556533,481.2299999598763 384.8799759929534,481.47766766126733 384.9099477902055,480.5275798694929 384.89381137059536,480.3954820231884 384.7740115625784,479.41348509903764 384.3184926720569,476.56421729311114 382.9835097886389,467.8545037609292 382.7650273280451,466.4188280059607 382.3451308943331,463.6641398454085 382.0294803910656,461.5370238554897 381.87099977966864,460.4689800364431 381.05625622777734,454.9748982503079 380.6937693298096,452.10005848191213 380.4648011093959,450.28879863518523 380.3733711076202,449.6490772596444 380.2374348799931,447.54276930057677 380.2083077689167,447.36550532939145 380.1525002241833,447.02524693735177 380.0554195626173,446.4295954249683 379.7819451164687,444.50928631122224 379.74472066864837,443.42800833593355 379.6144642276922,442.01089990115725 379.47855712706223,440.25684529013233 379.29648355569225,439.26584845618345 379.1136526791379,436.93370003747987 378.7641273458721,434.6213498636498 378.7034264461836,433.69197186187375 378.5820537742693,432.5148736095871 378.20340132981073,429.3777012733044 378.1034079574747,428.4037461929256 377.8304286720231,425.74603312375257 377.75842645333614,425.0479341970058 377.52054533699993,422.7288519916474 377.3085582223721,420.21153288852656 377.0197046614485,417.52788378630066 376.6102939877892,414.3475462755305 376.6096531911753,414.3310543842381 376.57874932629056,413.5007496554754 376.4120839963434,412.406094199745 376.21547599637415,409.92942420061445 376.16048401070293,409.47462000808446 375.9274671218591,407.55513248604257 375.88132977788337,406.6256918752915 375.7453935504891,405.8823826594744 375.5479699912248,404.04544896580046 375.5026773334248,403.17764427210204 375.3351964444155,402.3528126779129 375.13861757155973,400.10174774721963 375.0471584426705,398.82208195183193 374.9686900053639,397.97519224049756 374.834384896094,396.5302674098639 374.68228312185965,395.72523701167665 374.3489233352011,392.2781070964411 374.26963933871593,391.4955033537117 374.1814424461918,390.6250376307871 374.1361206615111,389.7571855909191 374.107838236494,389.55894585401984 373.99939800193533,388.78691949986387 373.6506591006182,385.5038376794546 373.26023930311203,381.29220658005215 373.1951693369774,380.59061128884787 372.9823666632874,378.91763843706576 372.81570133334026,377.4715311062755 372.831896007061,377.39770295954077 372.93707400525454,376.9142113151611 373.46782822418027,376.25336385070113 374.26963933871593,375.3373256966006 374.51477310596965,375.0572361302329 377.53347777435556,371.5460183172836 381.7043344498379,366.7349729691632 384.66318290506024,363.3535369479214 385.77001312712673,362.08910473505966 386.65594333875924,361.0834387235227 387.32423577609006,360.32670822390355 387.9383226596983,359.6306441689958 388.39387067744974,358.9708605452324 388.9245957689127,358.4950253528659 391.53391889075283,355.501207817113 395.7047755662352,350.6887779336539 396.54541311995126,349.6974201935809 397.77172275201883,348.24892038753023 398.54222222219687,347.3388054490788 399.9370613191277,345.6911838980741 403.33523399103433,341.8500878526247 407.30869623459876,337.30725269397954 408.8459377778927,335.5855249501765 409.7246153388405,334.5996186234988 410.99487778148614,333.17637074633967 412.10170800355263,331.7917011650861 413.77086623292416,329.9949820151087 414.2101904498413,329.3131088692462 414.6349802381592,328.8999548474094 416.80328977073077,326.33876513678115 417.1115711147431,325.9928267963696 418.623763342388,324.2941407317994 420.1415771022439,322.5810864614323 422.81480510591064,319.52008515933994 423.28083888359834,318.9864296318847 426.40553710923996,315.41270035062917 426.57802786130924,315.2011542545515 428.84737934242,312.41835827642353 429.3328117761994,311.92260275920853 432.0343513316475,308.78167087654583 434.0198299875483,306.4703366162139 434.4842909013387,305.9271736800438 438.2214448925806,301.55442044796655 441.8315755520016,297.3810935484944 443.2725519929081,295.769230639562 444.9481764410157,293.8400105192559 445.53234978136607,293.16795298142824 447.0874171165051,291.3946705320268 447.39808688370977,291.04047260800144 452.53983755374793,285.0908231440699 454.3781077901367,282.9719992100727 455.09154724981636,282.1489856034168 455.90725199645385,281.20800426299684 459.7204860019265,276.8415149478824 459.9122589014005,276.62112977181096 463.66639399831183,272.3811756387586 467.42300489963964,268.13900633191224 468.1560177777428,267.3115002880222 469.4707864463562,265.82617925468367 471.36000000010245,263.63892019580817 477.70729267201386,256.29026317439275 479.23241733701434,254.52496601088205 483.9008233245695,249.09237288543954 486.040850432124,246.6019181921729 487.6469193386147,244.73292998084798 495.6325828836998,235.3745250311331 496.5322902186308,234.32009823276894 505.35460090311244,224.15479198930552 508.33363444625866,220.7317192790215 512.4248576001264,216.03127452998888 513.7707048959564,214.48501836229116 514.881583786686,213.2451338522951 515.2715666774893,212.8109148988151 515.7561835520901,212.37669517839095 516.178526663105,212.1694644986419 516.9140153458575,211.9842938389629 517.265113543137,211.92807207914302 517.9997866667109,211.80904219928198 519.9051948941778,211.50166710623307 526.9102651166031,210.37191055639414 528.4596526649548,210.10849568690173 533.5973546667956,209.23667338024825 534.9056571165565,209.0074192697066 535.6945066667395,208.8322051842697 536.5213962240377,208.73963845323306 539.8281388941687,208.0783388085547 542.7853562312666,207.5823728267569 543.570972672198,207.45342150726356 544.1777777777752,207.3541091068182 546.0022708906326,207.05553682573372 549.9150322348578,206.43502112675924 552.7597606686177,205.99083107005572 555.6797244304325,205.55771027383162 557.2914439964807,205.28770374815213 558.341651114868,205.11244733305648 558.637786453357,205.04741554585053 559.8060748800635,204.79280343424762 561.8466037760954,204.46212868543807 563.1541197939077,204.25052676774794 563.9664166686125,204.11939141713083 564.7196728888666,203.99706448975485 565.5069204480387,203.87803076871205 567.8474294613115,203.52553190436447 568.450360661489,203.4350661081844 573.3809397760779,202.69542761787307 577.8713791146874,202.05502212728607 580.9354055679869,201.6615726723685 582.1716475449502,201.48524235730292 583.6425957832253,201.28899339260533 584.2574690987822,201.29895265441155 585.4330975573976,201.21626299450872 588.1184715662384,200.79301370924804 590.2107302116929,200.50316271872725 592.4794408960734,200.20335208065808 592.7229726720834,200.16668913461035 594.125093546696,199.95540094707394 597.3271533795632,199.52631673339056 597.5386453333776,199.49798619752983 598.3720011094119,199.3866479540011 601.3753266631393,199.00533591065323 604.3487095467281,198.58097181201447 610.1587817814434,197.86786388949258 611.2745248996653,197.70779920724453 613.1086882135132,197.4446088374243 616.0206128925784,197.07206284347922 616.9955555555644,196.9437805529451 629.5954777884763,195.28538963961182 630.8568273353158,195.11893490311923 634.4969006649917,194.6031030609738 636.7275713422569,194.28352485178038 639.6701959964121,193.81836203491548 641.2681384391617,193.67376974556828 642.6427924480522,193.54945363965817 645.5401244445238,193.21765273209894 647.2141177742742,193.01481033989694 647.3306262186961,193.0005256581353 649.1810133333784,194.50941994629102 649.5531995591009,194.71555449476 649.8485193387605,194.9789461840992 651.4634428871796,196.4206515829428 653.8001071218168,198.43435870617395 656.2273566719377,200.41829047491774 660.7250486614648,204.21969707135577 661.7280698595569,205.0175382149755 663.5309797830414,206.4515666452353 665.540750449989,208.13257758767577 667.3838266596431,209.67423151491676 672.6784946630942,213.88876364170574 673.2286766648758,214.33623255137354 675.3142652017996,216.03127452998888 679.0338846719824,219.0543653005152 681.8098439965397,221.26511203323025 684.1157500018599,223.1860939898179 688.1660495646065,226.47134381940123 689.8133333333535,227.81728972221026 691.7308875663439,229.3840923939715 695.8572380160913,232.64946242043516 697.5563097884879,234.03250846941955 698.1178222364979,234.4457425994915 699.310402673902,235.41110337973805 699.877565781353,235.87067297106842 701.348455765401,237.08398175769253 703.7611708871555,239.072005191294 708.5330655005528,242.92934605735354 710.7387159893988,244.7119835219928 714.0859162168344,247.2700566071435 714.8496873244876,247.8537340487237 716.4686012871098,249.09237288543954 717.6555893192999,250.00039199122693 718.2478599966271,250.53812464821385 722.1007651271066,253.6995959811611 725.4187799894717,256.4390235921019 726.5927773297299,257.40981203329284 726.7780548835872,257.56301472964697 726.9576817777706,257.71062396961497 727.2279231147841,257.93435831111856 729.7918953244807,260.06216486147605 733.0841035662452,262.560178869986 737.6497491059126,266.11484252428636 738.3585282276617,266.65412664436735 743.5658148977673,270.6159940190264 745.8368848782266,272.36796657386003 751.4639514738228,276.547628336295 758.5249748765491,281.76883322477806 759.0329516942147,282.1489856034168 762.6311111111427,284.841926337278 764.0162508800859,285.87860466720304 770.3117555485805,290.50501005211845 772.6718671077397,292.2468853050377 781.2797440000577,298.601793344249 786.90369399474,302.7319869735511 788.986311566201,304.26138720387826 795.3877806650707,309.0736152359168 799.5060337778414,312.1263782280148 801.3491391147254,313.49243892135564 803.7382030222798,315.2011542545515 808.2514488889137,318.42905660701217 811.1763060053345,320.5916759209358 811.2402108871611,320.63890988443745 815.3350166756427,323.75656936632004 821.1911971271038,328.1982893954264 826.3175686827162,332.0395193634904 826.877420885372,332.45925120072206 827.6379880107706,333.02987754670903 832.9925122276181,336.97350431093946 835.4488888890482,338.79333166620927 838.4837882312713,341.04154737619683 845.3561553353211,346.1020493776887 845.8432188872248,346.4688179148361 848.2014663110022,348.24892038753023 851.2115202274872,350.5213180647115 853.1201324374415,351.96540289057884 856.2618117691018,354.34019160462776 858.5839124481427,356.26013409736333 859.7214717726456,357.0881735692965 860.9957828837214,358.0158583839657 863.514462435618,359.83215955481865 868.640833991114,363.5914499593782 873.6013557760743,367.2878748520743 879.9130259911763,371.8995451932424 881.2011142257834,372.8412501278217 883.9940837831236,374.9019655024167 886.2376577707473,376.5573610418942 892.7355958614498,381.29220658005215 893.7468309048563,382.02900834177854 897.661980672041,384.8991558784037 898.2542222222546,385.3694288310944 902.2939777707215,388.60961318720365 905.9081570986891,391.2329961149371 908.266666666721,392.9932284668903 909.8346955664456,394.1635775733739 911.3047991183121,395.07217126339674 913.9011606756831,397.17896814644337 917.5307191183092,400.00818254600745 922.8811946667265,403.8681140053668 924.3788233386585,404.9374739903724 925.540674673859,405.7678076219163 929.5925762276165,408.864526138932 932.5392495503183,411.02167236211244 934.7237828836078,412.6208868211834 937.0309122275794,414.3310543842381 938.5402499982156,415.44992363173515 938.1494515485829,417.4728190199239 938.227949113003,417.86596294498304 938.1179068872007,418.17426948377397 937.6955637759529,418.48483530437807 936.9940955592319,418.9649945044657 936.6040835414315,419.4605343082221 936.3355024496559,420.2390451451647 936.4164175644983,420.67840833147056 936.8387315485161,421.99982317187823 936.979532003752,422.66054775199154 936.8201484517194,423.1715010628104 936.5070028800983,423.99741248768987 936.1469917867798,426.24817949160933 936.3824262258131,427.6929297843599 936.64858976705,428.4560335940914 937.1025066667935,429.1376319514238 938.5256864427356,431.346570078691 938.7764999964274,432.04905129701365 938.6357286685379,432.7306793414755 938.509520896012,433.2250814730651 938.5879893333185,434.3196442995686 938.7441397759831,435.4339829022065 939.3703726649983,438.0975769821671 939.5111439930042,439.3153983927914 939.4326755556976,440.07957606966374 938.9796033422463,441.42074615473393 938.5645420090295,442.2960663775448 938.3226122240303,442.8047987453174 937.9625720037147,443.13511350221233 937.5094997902634,443.6504242501687 937.2902308977209,444.35294961801264 936.8055557688931,444.7041917302413 936.2424413297558,445.09614261158276 934.9122935467167,445.86034197331173 934.364558222238,446.1487940122606 933.9422442383366,446.7268862382625 933.2229211023077,447.3049374674447 933.0327210668474,447.36550532939145 932.7698488889728,447.44914286310086 932.5392495503183,447.44914286310086 932.4567615715787,447.44914286310086 932.1591407503001,447.36550532939145 932.0182237867266,447.32586667797295 931.5335486577824,447.2223701287876 931.3151244516484,447.2939179201494 931.0991469228175,447.36550532939145 930.7835546738934,447.4700720612891 929.547254442703,447.7794910238008 928.3117988978047,448.1097991023562 927.9201848889934,448.4610358514474 927.6548077795887,448.89483890437987 927.2793884444982,449.41124746232526 926.6062317795586,449.7823411221034 925.9023168854183,450.0509694563225 924.8221962240059,450.1941426495905 924.1336604445241,450.4010935659753 923.7113173332764,450.81404356256826 922.6166331166169,451.39204555167817 922.0688686649082,451.49557998479577 919.6909604409011,451.41297441441566 918.9401508977171,451.53632782795466 917.8923613298684,452.07362001080764 916.7353742222767,453.1669891339843 915.3898473244626,454.48822949652094 912.6365197653649,456.98648921609856 912.1988266666885,457.35860201442847 911.1187060053926,457.66800854192115 909.8362684303429,458.05997841013595 909.2100646684412,458.53451122395927 909.0749440001091,458.67767948115943 908.5692682240624,459.2160658991779 908.266666666721,459.60359399346635 908.0061537849251,459.93721567606553 907.4737684482243,461.1142223830684 906.7229297776939,462.229549456737 905.7382877867203,463.9437718266854 905.7220931129996,464.5834956752369 906.2229337884346,466.27566425310215 906.2698575645918,466.5234262768645 906.0667542186566,466.7095151707763 905.6598193492973,466.792036334984 904.2827186631039,466.9153820388601 903.8450255645439,467.22588634246495 903.6257566721179,467.63872883317526 903.6419222186087,468.2574363765889 903.6419222186087,469.43440328660654 903.5634537813021,470.0333680873737 903.3595640037674,470.5078778117895 903.0003393421648,470.8579728145851 902.467954005464,471.20810695399996 900.5746917830547,472.0756320935907 900.1053957690019,472.61180929647526 899.9177006649552,473.5002961062128 900.0115773440339,473.9538722013822 900.8255053369794,475.77042736375006 901.9056259983918,478.4534412942012 902.0156682239613,479.4861332682194 901.9371706595412,480.1257770791417 901.8135551998857,480.3954820231884 901.6248989013257,480.8072323219385 901.1078635520535,481.7154664679547 899.9031371093588,483.0145572919864 899.1053746631369,483.98449149070075 897.6651846542954,486.60023907985305 897.4491779983509,486.93156512395944 896.9968922169646,487.62734836462187 896.7501273315866,487.84203569893725 896.2404320142232,488.11391195101896 895.3617253263947,488.05121398478514 894.675636223983,487.9113919141819 894.2534678755328,488.0329039563658 894.1748246756615,488.05557351530297 893.8406493298244,488.61375129723456 893.6788482276024,489.14327393763233 893.6133122275351,490.6778963226825 893.3406242134515,491.4001032205415 892.6124464356108,492.1431541349739 891.9449695574585,492.8455410722527 891.6561159965349,493.50603581249015 891.6860586666735,494.8997428562725 891.641552441055,495.28063602623297 891.1261773370206,496.1481159396935 890.8308575574774,496.6325226217741 890.3907177814981,497.34476476552663 890.1026797796367,498.0669124687556 889.7539408783196,499.2844371262472 889.2903829048155,500.06824367435183 888.8049213441554,500.5944523731596 888.2442244552076,501.1316770839039 887.7207228873158,501.7613175364095 887.3420704428572,502.3183545995853 886.8784542152425,503.2154923189664 886.6131062329514,504.13470040343236 886.5070835484657,504.4132164067705 885.73439954489,505.24983251752565 885.3169206612511,505.55913920805324 885.2732591219246,505.6076058073668 884.8395564374514,506.085375796305 884.5135366828181,506.7050963030197 883.9940837831236,507.1846078381059 883.9447424568934,507.2301811999059 883.3379082239699,507.5196709224256 881.843541788403,507.61212526861345 881.289281991194,507.74646735563874 881.09998489602,508.2935440352303 881.1833175609354,508.87149029114516 881.765859783045,509.1400541309267 883.2537600001087,509.54295878420817 883.8759442203445,509.95576991996495 883.9940837831236,510.1332265821984 884.1712640001206,510.39937170693884 883.9940837831236,511.0096497926279 883.7998933333438,511.6784969852888 883.7424255431397,512.2519969344139 883.708463331568,513.2174171999795 883.7845142185688,513.4012119925465 883.8125927537913,513.4210259983083 883.9940837831236,513.5489451804897 884.3840666738106,513.823923643562 884.7707873281324,514.5669068606221 884.8614308978431,515.144838385575 885.0062217671657,515.9604946458712 885.6850582186598,516.9875210350729 885.998174663051,517.6116523531964 886.1284311040072,518.1587467326899 886.0904202240054,518.9226796138682 885.9933395627886,519.4378316864022 885.1356917760568,521.2551607055357 884.5733637688681,522.5650193896727 884.4593020018656,522.9470189153217 884.4754966755863,523.3487518016482 884.9690264463425,524.4626873312518 885.1809844338568,525.0306494599208 885.2643462257693,525.8452030583867 885.2263353457674,527.1352244162117 885.1049335467396,528.7752912627184 885.044261774281,529.1990860242513 884.6049375573639,529.9101244225749 884.3476286577061,530.364706076216 883.9940837831236,530.8944955250481 883.9002362311585,531.03504605731 883.6429273316171,531.7780169480247 883.6728700018721,532.3151735989377 883.6275482169585,533.3685614916612 883.4123279929627,533.9420109051862 883.3686664535198,534.0586660121335 882.9446922239149,534.7509875738178 882.5959824499441,535.1428346919711 881.8524255574448,536.6705926629947 881.5037157830084,537.2473231902695 881.2901266773697,537.7525308895274 880.7601588908583,538.4547480572946 879.9794066774193,539.414518219477 879.5174215681618,539.8988397570793 878.4477866666857,540.8377226545708 877.8709242311306,541.0644091427093 876.7940075520892,541.7765227241325 876.6346240000566,542.0340749811148 876.5812340055127,542.2927364227362 876.6047104569152,542.5293670255342 877.1726599965477,543.2415159921511 877.6273633281235,543.9019151316024 877.6880642275792,544.769184076984 877.5602253369289,545.2259571726318 877.49142710038,545.4703114117146 876.7697446683887,546.3585352444788 876.7024319147458,546.4421787654865 876.0650433422998,547.2346313673188 874.2680462222779,548.5663422192447 873.3351631076075,549.1232733685174 872.9411606756039,549.5359785070177 872.5463135574246,549.7429251491558 872.2032544427784,549.7748209880083 871.0147226738045,549.8871101565892 870.0551299982471,550.0830415578093 868.9418044302147,550.3094025560422 868.3746413227636,550.4242272921838 867.1003593386849,551.497269391024 866.0008108941838,552.0850196605898 864.7806762099499,552.8378324361984 864.3098073317669,553.0755623081932 863.3243206542684,553.2604367465829 862.7555846826872,553.3122221676167 861.2231199857779,553.6841893558158 861.1041939911665,553.7028907163767 860.2595077690203,553.8393868328421 859.7214717726456,554.1279500719975 859.4326182116056,554.2829491622397 859.0911902152002,554.5305433653994 858.6357004516758,554.8189076876733 858.1737153423019,555.2118322584429 857.7254491021158,555.8303593203891 857.444722005399,556.6657309213188 857.1049251272343,557.9137907809345 856.6267162169097,559.2542792644817 855.9066357760457,561.8130852265749 854.9430235591717,563.6818054273026 854.0101404445013,565.2291961281444 853.5999433386605,565.6518187869224 852.9712928998051,566.1470633156714 852.5084631041391,566.4673077072948 849.5892857742729,569.9747152428608 847.783404885442,572.2021593253594 846.789849998313,573.3884942687 846.0924013227923,573.9046416838537 843.6506173440721,575.2869193848455 841.8609020018484,576.7208509687916 839.9490566826425,578.2483113136259 839.6003177815583,578.5476615288644 838.5404113352997,579.4588629612117 837.6213053441606,580.2489907254931 836.0435479893349,581.8479774866137 835.4488888890482,582.4930998017662 835.3679737743223,582.5808908187319 834.5564633316826,582.9727014293312 834.0637491199886,582.9825660160859 832.3266082134796,582.7867004133877 831.5612351148156,583.0551836241502 830.8848453406245,583.5405285818852 830.3233037653845,584.0775326832081 829.3079326719744,584.7070006250287 827.7383017814718,584.9952899873024 825.4817371022655,585.5169197507785 824.5909426631406,585.9956439289963 823.0892944498919,587.5538680449245 822.5576955449069,588.0996977587347 821.7825939910254,589.8746857880615 821.3449008925818,591.1644112794311 820.8052337779664,592.3198737628991 820.3812595484778,593.0098526657093 819.8731662223581,593.6810916972463 819.1983784390613,594.3930530990474 818.803560448112,594.5790453472873 816.4216035555582,595.1567098325468 813.6302651163423,595.693728213897 813.2103686826304,595.0455901407404 812.8414155662758,594.4766803020029 811.8405497743515,592.2483285011258 811.1763060053345,591.3344409329002 810.444865991245,590.3280871062889 810.08080622938,589.8538083109888 809.45940844086,589.2353271061438 808.2603326579556,588.6774566774257 806.1874726684764,588.4749401290901 804.4738082134863,588.0523566461634 803.7707088781754,587.6265239208005 802.723763996386,586.5128741700319 801.1614440106787,585.418987976911 798.1427393424092,583.7682850199053 795.6903822224122,582.5963414005819 793.0608448853018,581.5816718966817 790.5737099947874,580.7882601844613 787.7815559963929,580.2214567330666 786.90369399474,580.0887785016675 785.5177386668511,579.8792426245054 785.3170819981024,579.8484203532571 784.8453975608572,579.8286116937525 784.7434526720317,579.8102292561671 783.130917546805,579.5193983108038 782.9600579129765,579.4588629612117 782.6090470970375,579.3345039731357 781.7749048889382,578.9834539390868 781.0984859877499,578.5300713463221 780.6065873351181,577.9115616953932 779.2109035520116,575.6830995819764 778.588719331543,575.0018673384329 778.0345177885611,574.3415516223176 777.7391688817879,573.8254051231779 777.4276835556375,573.3499852225068 776.5474040036788,572.0910292731132 776.1679360000417,571.1643888916587 776.2221415538806,570.2982430204866 776.7537113316357,566.6247158148326 776.5716668871464,565.8818104700185 775.7828173369635,564.6635454474599 773.9461782188155,562.3534251930541 773.354752227664,561.5291269464651 772.8085897670826,560.4659940632409 772.171841991134,559.2894623830216 770.8894626704277,558.8668288017507 769.4484862295212,558.5773994611227 767.8780397796072,558.1239792871056 767.1814066632651,557.7211541450815 766.2404553387314,556.8231056749937 765.7210024391534,556.5204404940596 765.2315213369438,556.2353667177958 763.8674113423331,555.8336874996312 763.6169764410006,555.6565015087253 762.6311111111427,554.9586917552515 762.5704393386841,554.9157818585518 761.796124216984,553.429977499356 760.9619528818876,552.1818949072622 759.8543362276396,551.294801499811 758.1018744604662,550.0774944627192 755.7578993210336,548.9328883244307 753.1259735609638,547.6011002105661 750.8729041351471,546.4421787654865 747.5521804515738,544.7339988832246 745.6257424497744,543.8050366262905 744.7155202276772,543.4142731229076 743.9339233281789,543.3108565981966 742.5083260018146,543.0422904163715 740.8626442240784,543.238187642477 738.5867100160103,543.4550057498855 738.3585282276617,543.4580171111156 737.0623717831913,543.4748173364205 737.0502257777844,543.4781456827768 735.3333282133099,543.9293739403365 734.9004702151287,543.7136656984803 733.8516029440798,542.910226118227 733.080054897815,542.3191652034875 731.2296677831328,540.8641119680833 730.3720199966338,541.0919475150295 725.7237990968861,542.3708736796398 723.4324857741594,542.5260782896657 721.6727131023072,542.4336370567326 720.3765857849503,542.2168180499575 718.3894468835788,541.834888051555 717.2138475520769,541.4320758767426 716.0601226810832,541.2570191901177 714.0859162168344,541.3831804726506 713.3221451094141,541.4320758767426 712.7080290986924,541.277940412343 710.4029677795479,540.5041709975922 709.7508700160543,540.2884597541997 706.1050877725938,540.2708272140007 705.3510451201582,540.2675384478061 702.9998173298081,540.2268052935833 699.1550386630697,540.256562686176 698.320080896141,540.1849626686308 697.0611488996074,539.5455145503511 695.5513742221519,538.9676799385343 694.3838722276269,538.2346367522259 693.5877408996457,537.5533008711645 693.1168137671193,536.8642760027433 693.0108493369771,535.9353236703901 692.7753857707139,534.6453088075505 692.418607786647,533.9948306326405 691.9792544428492,533.6437159375637 690.5374624427641,532.8600163047086 689.8133333333535,532.7719698051806 689.1798186666565,532.694938998553 687.3456262258114,532.5088999908767 686.0939760073088,531.9827198938583 684.8123831183184,531.4665638236911 682.5056906809332,530.4263630071655 681.3454413369764,529.754951483279 678.440798435593,528.4748502519797 677.8024486684008,528.2370966204326 677.6374144569272,528.1754391410504 676.195593329845,527.9497710501892 674.9520404482028,527.4225509373355 674.4439179947367,526.8347417777986 673.6550684445538,526.0301375751151 673.4171873282176,525.9750970830792 672.2593846614473,526.1952589771827 671.8457214293303,526.118305364158 671.4244268942857,526.0400044438429 670.7658337848261,526.2106338464073 670.309499335126,526.3284417696414 669.489891555626,526.5364381970139 668.6945466597099,526.9063060528715 668.0570124516962,527.4335272714379 666.8369068942266,528.320706673665 665.7446402275236,529.0537793844123 665.540750449989,529.1505448192474 664.6588397796731,529.5689102535252 663.4921242169803,529.950859284203 662.0203895466402,529.8374911360443 660.4887986630201,530.4978866126621 658.5397288959939,531.6019231433747 657.2119986630278,531.2937190571683 655.7249140054919,530.9943113750196 655.1641879893141,531.0460618553916 653.5646726826672,531.9849388949806 652.2369424499338,532.8203914214391 651.6301082168939,533.0999448373914 651.0540613405174,533.0889687559684 650.4536933263298,533.016296782589 649.878432881902,532.8512195812073 649.5661319964565,532.8314071394852 648.4827490987955,533.1406791712507 647.9576746666571,533.0790229201666 646.9730326755671,532.9645863413461 645.7375480036717,533.4708726998069 644.5619195448235,534.2028205820825 644.4035845691105,534.2490625605569 643.3248328818008,534.5638802559115 642.7867968854262,534.9050875009852 641.3830448925728,535.317816477851 641.2681384391617,535.2887717291014 640.7308888747357,535.1527011953876 639.5811835448258,534.5836925579933 638.9711453298805,534.4824120527483 638.1297213440994,533.6876994106569 635.740453546634,532.5518137935433 634.8990295609692,531.3465789778274 633.9281064391835,530.9744987839949 631.8115557831479,531.0471713601146 630.7492317867,531.3971802559099 630.0817257815506,531.3465789778274 629.2378551182337,531.6470164834755 626.661707776133,532.2128222857718 626.0314262186876,532.4505720771267 625.3882122240029,532.8523290778976 625.0904748943867,532.9040395426564 624.5977315555792,532.5947672137409 624.1818546631839,532.4494625786319 623.6583822222892,532.3261497148778 622.2254739911295,531.7802359510097 621.7473233352648,531.3355235680356 620.1776924445294,530.4604803639813 619.6687835591147,530.3471124504576 619.4106882276246,530.1819938336266 618.9858984390739,529.6966229169047 618.4365319964709,529.3322671913193 618.3183924338082,529.2530162823386 617.7431611163775,528.932683848252 616.9955555555644,528.774181747518 616.4761317830998,528.664141604153 615.2017915449105,528.8501835175557 614.6937273457879,528.4990218584426 614.22364489967,528.3955990669201 612.7138702222146,528.1996107769082 612.113531335257,527.9112548952689 611.5981271039927,527.5193962648045 611.3270993352635,527.5293026996078 610.5972904390655,528.1797979607945 610.1434026666684,528.3141288221814 608.9823668907629,528.1897439945606 608.276850005379,528.479209066485 607.4046386631671,528.3239955993486 606.866602666676,528.4582867564168 605.9402148978552,528.592617465707 605.4410053405445,528.5210536811501 604.3333595590666,527.9013088500942 603.6957962241722,527.9838887501392 603.0744275626494,528.2106663275044 602.5282942294143,528.0356398633448 601.5347393424017,527.808862124919 600.5023288889788,528.1599851432838 600.2369517796906,528.2018298121402 599.5702613333706,528.056562209269 599.084013340529,528.0257334490307 597.567772444454,528.2007202944369 596.0280842242064,528.129196021473 595.10329844628,528.129196021473 594.458453333471,528.438473961316 592.7229726720834,528.2667762112105 591.9551528961165,528.1908535123221 591.249606883619,528.2315490329638 590.8628571024165,528.3041827933048 590.3402002205839,528.5210536811501 589.6646260053385,529.2332035510917 589.4987762346864,529.1297018171754 587.9541946597164,527.8022446339019 587.9501459911698,527.7989953271463 587.3749146738555,527.2200236174976 586.5245486650383,526.4990313462913 586.2907453441294,526.2304468210205 586.1451097886311,525.8188121346757 586.0706608925248,525.2816413065884 585.8845386524918,524.6784124440164 584.6814724551514,522.9392917524674 583.9686446650885,521.8143331174506 583.5900213477435,521.370712276781 583.058422442642,521.3189993889537 581.7387895466527,521.5567597029149 580.2598022259772,520.1004741743673 579.0615420019021,519.5445869116811 578.6974531129235,519.0701717251795 578.3875989050139,518.5131725743413 577.3859466810245,517.646881051478 576.8171524550999,517.29574303556 575.8688610987738,516.8719277785858 574.9812997689005,515.9957235804759 574.405252892524,515.3143657654873 574.110748672043,515.090905036137 573.1155917939031,514.3335781148635 571.9626242277445,514.0451663602726 569.9528535610298,513.8294319278793 569.4067202276783,513.695093161019 568.9135108550545,513.4210259983083 568.6639788942412,513.2823279250879 568.450360661489,513.0741617845488 568.2618499982636,512.8904460038757 567.7836993422825,511.7346106378827 567.8063311077422,510.7439016121789 567.6550157653401,510.4445481884759 567.3508413441014,510.31020757416263 566.9568097849842,510.31020757416263 566.403394673951,510.3520552777336 565.5303677724442,510.3619624034618 564.8709882312687,510.17590651503997 564.4162848995766,509.8148506929865 563.437264440814,509.4020393207902 563.3490966757527,509.3866634014994 562.2390042169718,509.1962079911027 559.9905368747422,508.58303250721656 559.1491128888447,508.3970545314951 557.6935437653447,507.63193974015303 556.9297726578079,507.2610125649953 555.7096962276846,506.66764680919005 554.5413495468674,505.61529388523195 553.6457200070145,504.8931683304254 553.0849939913023,504.9129830210004 552.2111806578469,505.15075918415096 551.4797697706381,505.2113128102501 551.3389984427486,505.22339975606883 550.6707060053013,505.12210716854315 548.2159313351149,505.4820998842479 547.7369651200715,505.1001128805801 547.2660379876615,504.58382117340807 547.0629928959534,504.2656758824014 546.9569702115841,504.1005793971708 546.4561586631462,503.8407681895187 545.3331628942396,503.72298913187115 545.0758831220446,503.69655620655976 544.4382906595711,503.43896383064566 544.1777777777752,503.2119652798865 543.7408711112803,502.831322163227 543.1947377778124,502.5935437591397 541.7318868765142,502.19062772928737 541.1849671112141,501.80863561696606 539.1072428942425,500.46783425076865 538.6670739912661,500.25097827316495 537.2940802276134,500.0032502038521 536.6945277724881,499.7544914993341 535.799684664933,499.64110944169806 534.5634135609725,499.77541624958394 534.0941175468033,499.700554777286 533.6095006720861,499.4484271950205 533.233265777817,499.0565628763288 532.8691768889548,498.56118334428174 532.5358462294098,498.1692779826117 532.020441998262,497.83903709152946 531.5503595521441,497.6529717356898 530.8828535467619,497.5494963512174 530.4581220124383,497.5494963512174 529.8666668941732,497.81811217666836 529.5778133333661,497.81811217666836 528.9256864427589,497.40532031224575 528.2735886792652,497.1575893785339 527.5146526721073,497.0331888041692 526.3924433351494,497.0331888041692 525.70877178316,496.8482721289038 524.7232851058943,496.49706480733585 523.7378275557421,496.3110380678554 522.9036562205292,496.22848717082525 520.7644446721533,496.04242059745593 519.9755659948569,495.91916875360766 519.9051948941778,495.88468993094284 519.3841400037054,495.6296257546637 518.8072775680339,495.1353093603975 518.0491279930575,494.5166297579999 516.7748460089788,493.93872905382887 516.1526617885102,493.6084428546019 515.7505037654191,493.52807076781755 515.6364419984166,493.5049261384993 515.0150733368937,493.5665923038614 514.3483537635766,493.6293284961721 513.6962851273129,493.4641852444038 512.3612731165485,492.76298901287373 511.1023411201313,492.515253406018 510.9032864427427,492.4359906410682 510.7382231040392,492.2874125195667 510.632258673897,491.99893529736437 510.404076885432,491.54428277746774 510.1006888959091,491.4001032205415 508.9930139876669,491.37917775817914 508.28021532448474,491.33732682821574 507.6734102186747,490.8837827722309 507.12730601255316,490.42912819224875 506.5657644374296,489.9348409840022 506.1863255610224,489.6254750244552 505.7615357725881,489.13007650809595 505.2307815538952,488.63467699469766 504.5478964338545,488.46957002335694 503.6538688853616,488.4079025806859 503.077792881988,487.74735452537425 502.6069240036886,487.065878868103 501.69670178135857,486.3646247734432 501.18132667744067,486.07618024083786 500.5138206720585,485.78666529338807 499.4668757902691,485.6005908251973 498.81474889966194,485.2505167957279 497.57035133161116,484.3829984679469 496.11399577592965,483.4131054725731 495.6325828836998,483.2456170259393 494.8097419948317,482.9595468120533 493.2465773227159,482.443208654935 492.5346233458258,482.4013562054024 491.92778911301866,482.56646724801976 491.10896776558366,482.8351390607422 489.40989599295426,482.7734702062444 488.0142413369613,482.85602561669657 486.93653822573833,482.8351390607422 486.68327799474355,482.96941540780244 486.4219495538855,483.1081305653788 486.3151695645647,483.1654000862618 486.26338156103157,483.3228218422737 486.17841777787544,483.5793255553581 485.80002747743856,484.81721378909424 485.4364920037333,485.684254996595 485.0869666702347,486.0145121983951 484.46556888194755,486.2413284504437 483.64596110221464,486.2622543494217 482.5691026774002,486.1796604494448 480.64184911653865,486.158734543249 479.24616533343215,486.32388269732473 478.4573157830164,486.5925107757794 477.88205533870496,486.79840064322343 477.3359220054699,487.06698857125593 476.7897595448885,487.5414654518827 475.8334582329262,488.96600029972615 475.181331342319,489.7091378273908 474.4984462221619,490.0603152040858 473.3010015573818,490.3906061652233 472.23867756093387,490.78359396895394 471.36000000010245,491.4266167297028 471.2232773405267,491.5266863765428 470.2822968888795,492.53617877158104 469.57998398575,493.06573260348523 469.5694982256973,493.07342107308796 468.7045977883972,493.44436963193584 468.21913622750435,493.7955813097651 467.9464482134208,494.1874936365639 467.8704264535336,494.538664622989 467.9618273281958,495.4259229754098 468.06785001256503,496.1481159396935 467.9764200107893,496.6016502943821 467.7644037689315,496.7877164449892 467.17297777789645,497.01448313734727 466.4900926578557,497.5527856881963 465.92939576890785,498.9354525805102 465.70205866661854,499.61689537076745 465.70205866661854,500.0704233330325 465.8080522241071,500.37973653292283 466.3849437866593,500.85529738874175 466.50952044094447,500.9796564009739 466.8396179911215,501.30890232895035 466.8396179911215,501.5983990163659 466.47555822937284,501.92863486293936 465.70205866661854,502.5891448564944 464.5037984427763,503.5787770798197 464.07900865434203,504.13581002963474 463.7149488925934,504.9195614979835 463.29015910392627,505.56024882779457 462.86458288365975,506.0545046546031 462.03122710750904,506.81851473572897 460.9235813263804,507.5405950123677 460.3774479929125,508.07780456123874 459.95268733159173,508.6766356881708 459.7099419875303,509.29531932476675 459.6193566720467,509.7290151511552 459.6347357868217,510.863896501658 459.527926670271,511.3999892033171 459.20915956632234,511.58604416664457 458.3903382187709,512.2674519312568 457.9809566719923,512.9278945510159 457.5640894578537,513.4210259983083 457.0561708942987,514.0220632881974 456.51003756094724,514.7848598030396 456.2980213192059,515.5477332091541 456.14594867196865,516.5384228986222 456.16132778674364,517.0954265183536 456.26732134411577,517.9418667146238 456.1912413300015,518.6023337353836 455.9339615573408,519.4488083765609 455.482462208136,520.8357508426998 455.40320733876433,521.079019745579 454.90239579021,522.399895552313 454.5989495466929,522.9161498884205 453.44682666659355,524.051010062336 452.7939133440377,524.774188944255 452.29307266836986,525.4555601989268 451.9289837796241,525.6404950083233 451.6255666631041,525.5997594333603 451.20080600189976,525.2904383005225 450.48797821160406,525.0218524564989 449.79055866308045,525.2485931367846 449.41111978678964,525.6614175579161 448.98632999823894,526.6113311331719 448.8496073386632,527.1253575913724 448.7282346666325,527.9310677327449 448.39487488009036,528.7764007776277 447.5461399892811,530.3658155842568 447.3495611164253,531.0053271750221 447.3188028872246,531.3146411260241 447.57689821871463,531.7482981554931 447.9410162346903,531.9750722645549 448.44182778324466,532.0576111729606 450.54949467023835,532.0994551792974 451.2776724480791,532.3052673568018 451.64173220994417,532.5738452535588 452.00585022591986,533.0482344136108 452.1118437831756,533.5226226594532 451.94517845346127,533.9771976416232 451.4297742223134,534.4108896048856 449.9281260090647,535.6073524162639 448.7751584427897,536.4735411055153 447.9410162346903,536.9061191919609 447.0874171165051,537.1994571834803 446.1965935502667,537.5059896618477 443.6787295573158,538.4965909761377 443.0419817813672,539.0942782569327 442.2830457742093,539.3628091224236 441.52413889439777,539.4046518870164 441.23205222410616,539.4563609752222 440.70453111466486,539.548842949851 440.24982778320555,539.8371851988486 439.96176065446343,540.4359390633181 439.64299355016556,541.1381485760212 439.2789337885333,541.426528586715 438.5353768961504,541.4881827469799 437.943921777769,541.3649140345515 437.1243139982689,541.2614174019545 436.3977673386689,541.5498368917033 435.987570233061,541.860207425605 435.7448248889996,542.3753114948631 435.69950310408603,542.7880279466626 435.80549666145816,543.8204500188003 435.80549666145816,544.2122826998238 435.7148822187446,544.5633426973363 435.1234562275931,544.7493725945824 434.3952784498688,544.9552138188155 433.42438445519656,544.8517583184293 432.30217511823867,544.4797381609096 431.3919237690279,544.1704407526413 430.6176377744414,544.04721300659 429.2535277797142,544.4180847501848 427.4023542329669,544.9552138188155 426.9929435590748,545.1819361382513 426.65958377253264,545.8214092378621 426.4467810988426,546.1934273676598 426.1587722240947,546.2143085474381 425.5818806614261,546.1725065633073 425.08188467193395,546.2550407113158 424.8070995057933,546.4421787654865 424.4143786667846,546.7095921812579 424.00418156094383,547.1630730022443 423.82213711645454,547.6792754050693 423.5794208997395,548.2152483081445 423.2614402276231,548.5047690766514 422.81480510591064,548.7230089490185 422.29051710583735,548.979127536004 421.88113555917516,549.1023528131773 421.36491576896515,549.0000481018797 420.7281679929001,548.6489151868154 419.9393184427172,548.524580256606 419.66584399645217,548.5872628202778 419.3931851092493,548.8965546791442 419.22651977976784,549.2883792803041 419.15046889253426,549.9696826811414 418.9384817779064,550.4033068472636 418.7256791041,550.588183292537 418.04285223816987,550.712556802493 417.3299953209935,550.8567412420525 417.0872791040456,550.7742086368962 416.5112322276691,550.2789331811946 416.0557133370312,549.8254977220786 415.79356933699455,549.7099198854994 415.44890823122114,549.5568990254542 412.9609286544146,549.845308796037 412.431019121781,550.238201683329 412.03698756266385,550.8578506576014 411.551526001771,551.4356969814398 411.41477421531454,551.951890424767 411.4301533298567,552.1785666784854 411.6575195591431,552.4262422418105 412.17292379029095,552.7354896556353 412.20362376538105,552.859862080717 411.0353353387909,553.313291950617 410.4285011058673,553.849292208557 409.1541899946751,554.5712741530151 407.72859266854357,555.6443377967807 406.69618221523706,556.2848931098706 405.756046449882,557.13123817835 404.70988800004125,558.1415709278081 404.13299643737264,558.2043302841485 403.43557688896544,557.8532501185546 402.57067645166535,557.4196390750585 401.6758333441103,557.3370690493612 401.0228908943245,557.6264998481493 400.3100631040288,557.9149001647602 399.65796534053516,558.3275905644405 398.77765666146297,558.7810103634256 398.54222222219687,558.8392527970718 398.11017978331074,558.9460701772477 397.2161231075879,558.9262598356581 396.39733088715,558.9054193547345 395.6538031217642,559.1937389316736 395.0315897742985,559.5657368536922 394.59144999820273,559.9575048530241 394.22736110934056,560.2051725900383 393.848708664882,560.143523117411 393.60599244805053,559.9167749565095 392.52907576900907,558.1834105004673 391.8769780052826,557.5439695126843 391.4214591147611,557.2545386167476 390.9667557833018,557.1719685356366 390.37530066492036,557.4196390750585 390.08807822235394,557.647419679095 389.8291673315689,557.8532501185546 387.8566211129073,559.4622478726669 387.35662512353156,559.9586142275948 386.8557844479801,560.4736804277636 386.5370173441479,561.0515041810577 386.051555783255,561.7118555438356 385.68746689427644,562.0420107508544 384.4285348978592,562.8046980939689 383.715736234677,563.3825163760921 382.4413959963713,564.2706359621952 381.8499700053362,564.4775305984658 381.1670848852955,564.7449640433188 380.74232422420755,565.178601804073 380.25767822237685,566.0865246779285 379.78759577614255,566.9735647859052 379.4081277725054,567.572252651793 378.8773735538125,568.0058458134299 378.2252466632053,568.2535054537002 378.05776577431243,568.2942339710426 377.7851068871096,568.0058458134299 377.3150244408753,567.4688066557283 376.8295628799824,567.2421048610704 376.13135689962655,567.2421048610704 375.3878000071272,567.0979300179752 374.49292777245864,566.6026874021627 374.26963933871593,566.5339080288541 373.55279200710356,566.3132671561907 372.42979623831343,566.1899712547893 371.30758690147195,566.2516192130861 370.64086732803844,566.5201204564073 370.2306702223141,566.9537550904788 370.140026652487,567.3862400004291 370.140026652487,567.6756986042601 370.47338643926196,568.2116675924626 370.6101090988377,568.6661785227479 370.3374793387484,569.2230642020586 370.2306702223141,569.4497641724302 369.77596689073835,569.4706829990027 369.00249645509757,569.5741281538503 368.5469775645761,569.760139151942 368.0768951183418,570.2344566566753 367.7580988871632,570.5646004343871 367.5000035556732,570.7704200742301 367.121351111331,570.7913387885201 366.787204892491,570.7913387885201 366.195749774226,570.5646004343871 365.8616035556188,570.3378618715797 365.6795591112459,570.1100930089597 365.52503978682216,569.7579204912181 365.25479844980873,569.1405377541087 364.8000659911195,568.5220045136521 364.25393265788443,568.2138862671563 363.38906134769786,567.9860362009495 362.6455044550821,567.9860362009495 361.660833336995,567.8209428288974 361.1446426740149,567.6768079440226 360.35579312359914,567.2432142028119 359.93100333516486,567.1408377912594 359.6882871183334,567.2432142028119 359.3694908870384,567.6558889651787 359.2634973297827,567.9662265868974 359.23358378675766,568.5440327546676 359.3994335574098,569.3892263470334 360.02164690499194,571.4516244078986 360.00626779033337,571.9259386536432 359.87033156270627,572.2770383697352 359.59685711644124,572.5246144764824 359.00540199829265,572.7722695711418 358.2319315627683,572.9373200045666 357.44308201246895,572.9989266550983 356.8208686650032,572.9164014727576 355.9559682277031,572.6698954588501 354.5756635591388,572.2165012393962 353.18079533509444,571.7828362560831 352.3927613440901,571.7003502849257 352.0132642133394,571.7619968636427 351.2850864356151,572.1537454550271 350.70822400006,572.6291676654946 350.2988133261679,573.165125869913 349.99702732800506,573.8323383231764 349.69200822047424,574.5066406219266 349.2672475591535,575.4145290959277 348.9783939982299,576.5084597395035 348.7963786809705,577.0850969442981 348.4476397796534,577.5187129701371 347.9022928782506,577.9930155276088 347.3861022151541,578.7974499092088 347.0352952890098,579.4588629612117 346.9920997831505,579.5403162815492 346.79467622411903,580.0355328731239 346.6886826667469,580.7166719546076 346.52198820980266,581.108485531935 346.2639220053097,581.4804503420601 345.9904475592775,581.6036989692948 345.18703445326537,581.5420548547991 344.61014289059676,581.5420548547991 344.5275966578629,581.5761651282664 344.06400955747813,581.7687434821855 343.4272617814131,581.8303875398706 342.7298422330059,581.6036989692948 341.88029178313445,581.6862608565716 341.27348667755723,581.954745267285 339.07436066144146,583.1718946939218 338.3615619982593,583.6461863608565 337.9060431076214,584.1821205828455 337.5419542187592,584.9876440047519 337.2684797724942,585.5851788079599 337.23856622946914,586.0187402474112 337.16248621512204,586.7406278583803 336.9044200107455,587.5252652350464 336.600973767112,588.1437507356168 335.78221067390405,589.0317810047418 334.524094236549,590.022175010934 334.25059066317044,590.2906503318227 333.8112664463697,590.4150434016483 332.68824155034963,590.4766456789803 332.0814364445396,590.6824090581504 330.8071544604609,591.2392449415056 330.07897668285295,591.6111548313056 329.4114706774708,591.7971491810749 328.3644966685679,591.8797076503397 327.54649088007864,592.0645925673307 326.9396857742686,592.3748994236812 326.51492511306424,592.8700902009732 325.7244444445241,593.8120195411029 325.528652003617,594.0453521975433 323.82955110410694,596.3562050887849 322.8133644515183,597.6557606285205 322.2518520037411,598.4821959472029 321.82787777425256,599.4934682166204 321.6304833422182,599.8642564444453 321.3270370987011,600.0084517155774 320.2501786738867,600.3187485605595 319.9233142329613,600.3781695892685 319.2339628941845,600.5036271408317 318.59639955929015,600.5036271408317 317.71690643928014,600.2152767082443 317.06477954855654,599.8235727632418 316.65458244271576,599.6783078025328 316.2379191183718,599.7047304237494 314.36408467928413,599.8224635683582 312.8931364408927,600.0292887174292 312.0889077759348,600.2152767082443 311.436780885444,600.5453802872216 311.118013781379,600.8128141714842 310.54193777777255,601.7206056491705 310.14711978670675,602.2366936740582 309.8744608995039,602.3192486430053 309.5710146559868,602.3401250631432 309.04028956464026,602.0925393216894 308.1899235557066,601.5973670916283 307.7958919965895,601.246348797984 307.17373690311797,600.4001553661074 307.1223566790577,600.3566987926024 306.49085178307723,599.8224635683582 306.02076933707576,599.5957519480144 305.3395153352758,599.6375844766153 303.9284524375107,599.7828494614223 303.1849246721249,599.9886446777382 302.57809043931775,600.0920373971458 301.6533337885048,600.0303979113814 301.4518615610432,599.9403947271057 300.6363024498569,599.575944877055 300.0149046613369,599.1842003008933 299.81748110230546,598.9982907597441 299.7414302150719,598.7506620435743 299.7414302150719,598.3589161543641 299.6807584427297,597.6986630767933 299.54403578315396,597.2243984786328 299.2106759966118,596.8733739510644 297.98168667033315,596.2131168900523 297.648326883791,595.8830075028236 297.4355533369817,595.4285468138405 297.17745800537523,594.8926370710833 296.93474178842735,594.5822937729536 296.6466746595688,594.3149323514081 296.11592044110876,594.0046279400703 295.5552235520445,593.9848204192822 293.1279740019236,594.2544006393291 292.3390953245107,594.2819330625935 291.9450928925071,594.2951248557074 291.09554244286846,594.6043196823448 290.6101100090891,595.0995059760753 290.488737336942,595.5122132797842 290.0332184464205,598.111326409562 289.8665531165898,598.8540948969894 289.6392160143005,599.2667562932475 289.1391617706977,599.5968611440621 288.5477357795462,599.885172686656 287.8195580019383,600.0920373971458 287.2733955413569,600.1327606476843 286.54521776374895,599.9270051660133 285.6350246685324,599.6585007381509 285.0435695502674,599.5143052622443 283.17701688897796,599.5143052622443 282.63091268274,599.4109123002272 281.72066133341286,598.9377601990709 280.9010535539128,598.544865792559 280.38649400905706,598.1322428008425 279.9010324481642,597.6381718111224 279.09680378308985,597.2453149454086 278.1558233315591,597.1220741477446 277.7310626702383,597.1836747469497 277.1792495502159,597.4655319547746 277.0028848926304,597.5556152726058 275.95672644278966,598.5657821471104 275.50120755203534,598.9993207299267 275.13711866305675,599.4944981847075 274.6063644445967,599.7828494614223 273.5141269048909,600.0513141396805 271.3376617814647,600.5366255957633 268.25097443559207,601.1858187898761 267.90954643918667,601.1450957133784 267.0300824464066,600.6290450145607 266.31725465587806,600.3715540487319 265.747673998354,600.3099146331078 265.6263013264397,600.3198181391926 265.54299778840505,600.4023737508687 265.4596651236061,600.670837753627 265.46854889264796,600.8149929383653 265.47987933875993,601.0141717689112 265.4903650988126,601.1858187898761 265.5049577814061,601.4345146309352 265.54299778840505,601.7096326267929 265.6263013264397,602.1684392330353 265.6643413333222,602.4777034005965 265.6716231111204,602.687853865209 265.6805068801623,602.9662583893514 265.66839000186883,602.9772709694807 265.2023562239483,603.426211446349 264.74197310581803,603.6803716852446 264.20070400007535,603.8355376497493 263.7597486649174,603.979690981796 261.766988231102,605.0184718957753 261.5792640000582,605.2088135742815 261.0857051021885,604.8743191719404 260.813075342332,604.7015655491268 260.6633911182871,604.606889698829 260.5080562346848,604.5078563437564 260.28473867382854,604.3659612830961 260.11402467556763,603.9565963482019 260.25479600369,603.5813379575266 260.2944380019326,603.13897361618 260.47729800548404,602.687853865209"/></g></g></svg>