<svg width="1200" height="800" version="1.1" xmlns:xlink="http://www.w3.org/1999/xlink" xmlns="http://www.w3.org/2000/svg"><g class="geojson-features"><g class="geojson-feature" stroke="#555555" stroke-opacity="0.0" stroke-width="0.0" fill="#111" fill-opacity="1.0" data-properties="{&amp;quot;N03_002&amp;quot;:&amp;quot;空知総合振興局&amp;quot;,&amp;quot;fill-opacity&amp;quot;:1,&amp;quot;description&amp;quot;:&amp;quot;空知郡奈井江町&amp;quot;,&amp;quot;N03_001&amp;quot;:&amp;quot;北海道&amp;quot;,&amp;quot;stroke-opacity&amp;quot;:0,&amp;quot;N03_007&amp;quot;:&amp;quot;01424&amp;quot;,&amp;quot;fill&amp;quot;:&amp;quot;#111&amp;quot;,&amp;quot;N03_004&amp;quot;:&amp;quot;奈井江町&amp;quot;,&amp;quot;title&amp;quot;:&amp;quot;空知郡奈井江町&amp;quot;,&amp;quot;stroke-width&amp;quot;:0,&amp;quot;N03_003&amp;quot;:&amp;quot;空知郡&amp;quot;}"><title>
      空知郡奈井江町
    </title><desc>
      空知郡奈井江町
    </desc><polygon points="265.5889971200377,463.2509645394748 263.3615595520241,462.7632062591729 264.3955719964579,458.55273760308046 264.8292455538176,456.78992193110753 265.5347624392016,452.66847054229584 265.7839740018826,451.21298675664 265.7904693476157,451.1328056032653 265.87782155373134,450.1115359366522 266.24077448551543,445.8389868355007 266.55502688721754,442.14004064531764 267.104393329937,438.11299960076576 267.36170222924557,435.84442191704875 268.09553066664375,433.42992281832267 268.46285266487394,432.4709644552204 268.8608455111971,431.82617729413323 269.25333333329763,431.1901288861409 269.27112999826204,431.1612612940953 269.85853644809686,430.202374160639 270.48235178680625,429.4461192274466 271.01470799650997,428.91042051900877 272.0608664463507,428.20095169584965 272.6547391146887,427.9024890293949 273.8052600036608,427.5294101808686 276.2341406720225,426.8577866194537 280.65336422412656,425.40327079431154 284.47711311653256,424.3207079467247 286.2732655502623,423.78948858293006 288.26442399295047,423.20141307794256 290.3243515448412,422.40059043857036 290.567096889019,422.30596544925356 291.3834715591511,421.9706879655132 291.9037108907942,421.672177546483 292.11293092987034,421.5180505993776 293.01779376366176,420.8513421693351 293.5259162170114,420.3099309155368 293.6481044481043,420.17978032986866 296.24769911472686,414.10408410144737 298.6231606613146,408.8435410162201 301.03669134236407,403.0984142032685 301.594125994714,401.1948500893777 302.28630266326945,398.41237645375077 302.96799357177224,395.67225636180956 303.3012951039709,394.37795359495794 304.7633304464398,388.7059092464042 306.56190043024253,382.18501582887257 306.98910776898265,381.1133685783134 307.5206775467377,379.7788858382264 308.64530443388503,377.45959457033314 309.66722912725527,375.70288732560584 310.5482951111626,374.19007569231326 312.41971200017724,371.5711163210799 312.8380064428784,370.98624295013724 315.51609867380466,368.1043655158137 317.79852822760586,365.58099024841795 318.32945720886346,364.99401699675946 319.96689601428807,363.18371934600873 321.7120468765497,361.13281574938446 322.6077346702805,360.08000542322407 324.5576199966017,357.0642446578713 326.34733533859253,352.98902786616236 327.8441193244653,348.7253979399684 328.77944911655504,346.05935789016075 329.48656799294986,343.726428502996 331.0165568853263,338.6793855765136 332.40332777251024,333.3102746194927 332.6153148871381,332.4880173652782 332.8246223075548,331.57105685654096 333.0942811022978,330.39004544442287 333.31844334932975,329.40733560343506 333.6161515520653,328.51707727398025 334.5652293404564,325.6847545352648 336.45927799481433,321.1298728903057 337.15349356108345,319.45968140661716 338.84770110587124,316.5715764067718 339.4335055645788,316.1013335020398 339.80647822225,315.80160983413225 340.9578146702843,315.0962629543501 342.0711111112032,314.6917224887875 342.46027844271157,314.55028359085554 347.82936621515546,313.2666596483905 349.7792806685902,313.1062061782577 351.18626577057876,313.20095396524994 354.2753706667572,314.14802866830723 354.9452942223288,314.246065330226 358.2358713458525,314.72638022108003 362.1243115521502,314.58149161341134 363.995728440932,314.07562431594124 366.34369399480056,313.3064520926564 367.30815089773387,312.9903185933945 371.052586666774,310.6770881358534 372.5372829013504,309.573956617387 374.9410851271823,307.78671245998703 378.75673668272793,304.3168041712488 381.2769890987547,301.49755741807166 382.75277243740857,299.4316107056802 383.6488388837315,298.14345394290285 384.211574670393,297.33447628706926 385.3378326757811,295.703073940007 386.6720000001369,294.1719519231701 387.8904744392494,292.7745694987825 390.6163060052786,290.0036101300502 393.0953435591655,287.48355494020507 395.91662466863636,283.69690387597075 398.40215756802354,279.9725384397316 399.2088037831709,278.7633530632593 400.35932467202656,277.039350806328 402.52119711297564,274.61881845159223 403.9638046720065,273.0051569219213 404.873211335158,271.86277708783746 406.6281197796343,269.6561561556882 408.5707233280409,266.943589731236 409.4728773405077,265.6841879134299 410.212618581485,264.7112865069648 411.5878260052996,262.90244744496886 411.9907704605721,262.06771446496714 412.26823532092385,261.069160613406 412.31842133344617,260.2611025358783 412.1290951111587,259.21234827069566 411.5878260052996,257.7199951149523 410.7439262152184,256.55427213961957 410.27870799636,255.74511571001494 409.06833089422435,254.08221795374993 408.1257193244528,252.78824330325006 406.2745457778219,250.75197464745725 403.96295998594724,247.88090711977566 402.606947327964,244.713284362806 401.84722488885745,243.18854145752266 401.4370277832495,242.06058666529134 401.19186488888226,241.3862829876016 400.67322754859924,239.48032672522822 400.2937886720756,237.4372052361723 400.12144355557393,234.90821768320166 400.15625045332126,233.1749555876595 400.3973355520284,231.4428046628018 400.45317222410813,231.2745124619687 400.7816677832743,230.2835764043848 401.1562715591863,229.1566851810785 402.6741144461557,226.17609426076524 403.90555044973735,224.1674912761082 403.9613871219335,224.0760393528617 405.06172199815046,222.06408832222223 406.965528234723,222.576808768732 407.5812462364556,222.75293202494504 407.6305584356887,222.766334883112 409.20342243567575,223.2155308460351 411.11852999113034,223.76283932867227 411.30462310416624,223.8152065614122 411.55706777609885,223.88767797744367 412.79660111654084,224.24104604497552 414.88888888887595,224.83783001150005 416.98589525325224,225.4360571136349 418.819767295965,225.9596049374668 420.38581555208657,226.40682873007609 421.6487962170504,226.74012929963646 422.69011956627946,227.01432144275168 434.4873859982472,229.54234796960372 439.1614717725897,230.55704225652153 442.46643768879585,231.2745124619687 450.4814322346356,233.01444915309548 452.221747996402,233.39228113082936 452.71288934419863,233.49929864116712 453.13357220985927,233.58958334318595 453.3180633316515,232.93307235022075 453.5235551005462,232.19967672723578 453.9766855681082,232.21191538777202 456.004252899671,232.65106219309382 458.7834453334799,233.2518381322152 461.2616673280718,233.78796881064773 463.4340837831842,234.25901326606981 463.90903045702726,234.36201775429072 465.1574475662783,234.63174725871067 478.89411356451456,237.60553328832611 481.30243049247656,238.1277708284906 481.91683777421713,238.26090811769245 484.1394111147383,238.74129317200277 487.7066666666651,239.5137513083173 488.32480221870355,239.64748971979134 488.6419964587549,239.71662598929834 489.14117688906845,239.82468397327466 489.50043067731895,239.9027681752341 498.6981024427805,241.89450871234294 502.6181164374575,242.7427128466661 502.8317346702097,242.78841523226583 511.97924955026247,244.76933854439994 513.0019606755814,244.99082666554023 513.5019566648407,245.0989625499351 513.8239860055037,245.16914050612831 515.4162486613495,245.51356992981164 518.4446817848366,246.19680988840992 522.8703715556767,247.19321810844122 526.1099471076159,247.89089803636307 526.4400446577929,247.9622789095156 536.2518615610898,250.0768123990856 538.9606828941032,250.6605728676077 541.4308075520676,251.14205683523323 542.6889531165361,251.38616884185467 543.4001206613611,251.52547788468655 545.1841562169138,251.87098162050825 545.9730057669804,252.02477496111533 556.1691257741768,254.206158295332 558.1473517796258,254.6294969387818 558.5970452481415,254.72418731241487 560.5244444445707,255.13111476006452 584.7970273279352,260.2560070270556 587.8957732978743,260.910197265679 588.3901768819196,261.01451446680585 592.5619947520318,261.8693521175883 606.4311891059624,264.7112865069648 609.0696393387625,265.2519215074135 611.0275928747142,265.6530137236696 619.6516935679829,267.4372782752034 625.8983811982907,264.7881590598845 626.0797265920555,264.7112865069648 628.1244206648553,263.84422180306865 631.1382028517546,262.5808318480267 633.0719808853464,261.77017088304274 633.3422222222434,261.6617214527796 634.9612235662062,261.0122676352039 638.7752440036274,259.4062592195696 638.919248440885,259.34495240211254 642.8546706774505,257.68657303991495 651.6413297778927,254.04321826045634 655.7458348943619,252.2477009036229 656.1286233885912,252.0885712831514 657.6148051058408,251.47066909458954 661.0963104427792,250.02304650074802 663.7206048995722,248.82494660030352 666.3084322134964,247.64349232858513 669.1790837761946,246.55568263150053 672.2633244445315,245.17808829445858 676.645323548466,243.36910361761693 680.4844806827605,241.70058376871748 681.8574744462967,241.15664614527486 681.8874171164352,241.14364555571228 686.1116346595809,239.2986381550436 686.2880284445127,239.36107355367858 686.3005531022791,239.36773439857643 691.1862473387737,241.96585122460965 693.2391261297744,243.06648136134027 695.4541846755892,244.25409700768068 699.2188346596668,246.28929670940852 700.5158066630829,246.9078540817136 701.8499739875551,247.6033681227127 706.160000000149,249.96534845628776 707.8048662185902,250.8667684936663 712.3616571165621,253.24300094821956 715.4276059591211,254.9687370682368 718.1158635520842,256.48181047983235 727.8518334578257,261.6071155614918 728.968159118318,262.1947401063517 729.7238328889944,262.7509078136645 729.8241757866926,263.26915931951953 729.454319729819,264.7112865069648 729.3832204516511,264.98876581608783 727.9737886720104,270.5276935806032 727.7100135538494,271.7926068510278 727.470530446386,272.38658582995413 727.2561257813359,272.95272006408777 727.0926935609896,273.38517335260985 727.0797319965204,273.713915971457 727.2310182114597,274.092807937006 727.9365642239572,275.58618375548394 727.9745751040755,276.0664949232014 727.8613288961351,276.48325596458744 727.5215028907405,277.09066343988525 727.1946384498151,277.4963096858701 726.6646997903008,278.15270012273686 726.3879631075542,278.65751896670554 726.1231394134229,279.7681728937314 726.0983231147984,279.87224127544323 726.0230586595135,280.5542611759738 726.0230586595135,281.4647146370844 726.2115693227388,282.5390084190876 726.3879631075542,282.91900992096635 727.0934799929382,283.8417306856136 727.5206873316783,284.3855726372567 727.7221595592564,285.0307916313177 727.923631786718,286.20644739753334 728.1630857671844,287.33199054020224 728.3515964302933,287.6607543847058 729.2205746631371,288.4062583502964 730.1647882240359,289.0893775539589 730.4325828837464,289.40526136540575 730.8072157866554,289.84715300251264 731.1850526720518,290.53026815055637 731.4115742150461,291.2868757073884 731.4714595556725,291.57664053252665 731.5879680000944,292.1349473337177 731.5499279929791,292.7533878584509 731.4012923450209,293.1242267633206 731.3614173298702,293.2236760012456 730.4325828837464,294.4515638384037 730.051512888982,294.955345870927 729.859769116505,295.29079881490907 729.7117160108173,295.5493082777248 729.673676003702,295.8278755840147 729.7246193210594,296.0551740737865 729.8751482311636,296.4351544128731 730.4325828837464,296.8544077897095 731.1850526720518,297.4202442531241 731.5127035449259,297.85040745401056 731.5458793244325,298.14345394290285 731.5499279929791,298.17915705015184 731.4245357795153,298.6471480805194 731.1470126649365,299.0638703472214 730.5175466666697,299.6834966840106 730.4325828837464,299.73761262145126 729.4851362132467,300.3409102341393 728.806358016096,300.9850036963471 728.5077760001877,301.857471617579 728.2771766613005,302.5294410712668 727.6226322203875,303.07211792760063 726.5522400143091,303.7050120754284 726.0489817884518,304.2610445463797 725.9607557689305,304.5262436263147 725.7973526755814,305.1458159033209 725.8596264392836,305.8032146579935 726.0869926684536,306.3592824366642 726.5020540019032,306.72584842296783 726.9300477724755,306.8272576943273 727.5845922133885,306.8774408267345 728.3496157868067,306.8774408267345 728.7683180090971,306.8774408267345 729.2464686649619,306.99108492420055 729.7756208925275,307.8000705080922 730.1154468979221,308.60905339574674 730.103271765518,308.8497380205663 729.9269362346968,309.3154620920541 729.0579580019694,310.53003096568864 728.7933964516269,310.94677294412395 728.7181319965748,311.26431308389874 728.743210439221,311.49276041344274 728.9196042240364,311.7835841831402 729.2715471076081,311.84596082224743 730.2538006756222,311.9596025935607 730.4325828837464,311.9640953132184 731.7643617849099,311.99755002802704 732.0855464392807,312.35407912306255 732.1171202275436,312.38974002655596 732.1543446755968,312.6304209022783 732.041040213313,312.8577437704662 731.4002437689342,313.4638568179216 730.4325828837464,314.4837759921211 730.3800084481481,314.5391722501954 730.103271765518,315.05727306474 730.0774068906903,315.53750612423755 730.216576227569,316.005503798835 730.3419684410328,316.548150525603 730.1534577776911,317.2946488081943 729.7877668979345,318.01338689838303 728.994868679205,319.25242090492975 728.7051704321057,319.6067331668455 728.7051704321057,320.55715229630005 729.1712042099098,323.09756176249357 729.1583008996677,323.2870093876845 728.9196042240364,323.99449849157827 728.4665320108179,324.7911934138392 728.3411106702406,325.25913313555066 728.2901382257696,326.25750314217294 728.4665320108179,328.505886350933 728.4414535680553,329.11316364706727 728.3281491057714,330.2150832731277 728.2901382257696,330.8334267779137 728.4665320108179,331.42842448333977 728.5495442774845,331.57105685654096 728.907487345743,332.1860677584191 729.3233351111412,332.86906375625404 729.436610446428,333.33702801616164 729.424464441021,334.0378295815317 729.4123475628439,334.700765463931 729.4115320036653,334.7653422530857 729.6039165725233,335.9711201139726 729.613004231127,336.0277147561428 729.6752779948292,337.1273969768081 729.8896826595301,337.4939165005926 730.0660764445784,337.786955240299 730.3177055574488,339.2910494176904 730.204459349392,340.07429775682976 730.0280655645765,341.0480201612809 729.9277226666454,341.64182967861416 729.952801109408,342.1476796393399 730.0531440073391,343.2339379302575 730.0280655645765,344.13192328921286 729.8646333439974,345.09115039592143 729.6752779948292,345.4700111701968 729.0466275556246,346.4559448324726 728.6064877795288,346.923882900679 728.4552015645895,347.2147043313016 727.5870388906915,348.7075501040672 726.8814928783104,349.90856616041856 726.5788913210854,350.55361100222217 726.3774773475016,351.3869969348889 726.2018699947512,352.4364358758903 726.1137022293406,353.2575025742408 725.9130455610575,353.7376600658754 725.4089717759052,354.3950074472814 724.942937998334,355.0400002619717 724.5651011129376,355.7474369345 724.5027982222382,356.2142341180588 724.5278766648844,356.3156227165018 724.5027982222382,357.0887896004133 724.6913088853471,358.1749810378533 724.9178595556878,358.997151290474 724.9178595556878,359.6544443250168 724.8046133475145,360.1212339961785 724.4769042204134,360.8297788159689 723.9736751219025,361.36005309585016 723.5205446543405,361.8146073613898 722.551281777909,362.6110979607329 721.9347773439949,363.39427106361836 721.7333051165333,363.9134306614287 721.7081975466572,364.89820659311954 721.6921776356176,364.99401699675946 721.6321757866535,365.3538370623137 721.5569113316014,365.5955883626593 721.2923497814918,365.98769177647773 720.5876193281729,366.2149646834587 720.2219284481835,366.20273277827073 719.2413351255236,366.0378626800375 719.0708250168245,366.02871882298496 718.5357891129097,365.9999637970468 718.0956493369304,366.0133186420426 717.429774449789,366.00220965687186 717.2768571164925,365.9999637970468 716.1433173334226,365.92424622247927 715.3504191146931,365.92424622247927 714.495218005497,366.08907629339956 714.2176948909182,366.20273277827073 713.7265826702351,366.7586221098318 713.339017329854,367.1106191907893 712.6254322347231,367.4493412046577 712.1779815538321,367.7567813543719 711.8381555484375,368.2123663544771 711.523437112919,368.8941380853066 711.2345835519955,370.43485493637854 711.2726235592272,371.3193851340329 711.2977020018734,371.74933719157707 711.5873419947457,372.78533364413306 711.6626064497977,373.5317392180441 711.5363986773882,374.08757166564465 711.1714942293474,374.69581773492973 710.9570604374167,375.4288631090312 710.982983566355,376.5283267631894 710.9198359893635,377.2746807274525 710.7434713315452,377.58992846740875 709.9756515555782,378.3485505646677 709.3841964374296,379.2709086465766 709.2207642169669,379.96488053683424 709.232939349371,380.4572565006674 709.5225793423597,381.4052318127942 709.7620624499395,382.53029352618614 709.7620624499395,382.9090958799934 709.6358255503001,383.16193790134275 709.4343533228384,383.37692359043285 708.6293382258154,384.0987543944502 707.9116753351409,384.7815642580972 707.3072877796367,385.1357808933244 706.904343324597,385.19817878870526 706.160000000149,385.32185169123113 705.986023765523,385.3508049361408 705.2683900018455,385.502308147843 704.2610579911852,385.9311523535871 703.580648675561,386.31103213626193 703.0514964481117,386.8546044639661 702.4859353315551,387.61207478429424 701.8435077689355,388.2057704211911 701.270694001927,388.68473597528646 700.000431559165,389.6282279829611 698.8418133333325,390.57171632465906 698.0691293297568,391.4962735977606 697.3514955663122,393.0301101987716 696.7810702221468,394.6386031563161 696.3037059983471,396.7282005267334 696.018726343289,398.41237645375077 695.9533942328999,398.79889318090864 695.8983439928852,400.1678367279819 696.1006317796418,401.96113748830976 696.3401148872217,403.13514443923486 696.4137482241495,404.09638396673836 696.3401148872217,405.02088974398794 696.3587562382454,406.1113176495419 696.1386426596437,407.2029034959269 696.101447338704,408.127357348043 696.0650093228323,408.8112624741043 696.0255420872709,408.93620647175703 695.8255553422496,409.56974693364464 695.8255553422496,409.97633468848653 695.9614624427631,410.559911228891 696.4744199964916,411.65259979618713 697.0399519858183,412.5269155173446 697.3344853334129,413.24753695889376 697.5739684409928,415.04190392629243 697.5003351039486,415.5408647786244 697.3530975574395,415.9574265370611 696.5618013298372,417.3618787469459 695.9549962241435,418.4344887176994 695.6054708908778,419.56270682503236 695.5690620018868,420.43033818836557 695.6054708908778,421.29908912588144 695.595509418752,421.50293460593093 695.5504497778602,422.4272939246148 695.6426953386981,423.96209791576257 695.7713206614135,425.3676264870446 696.065854009008,426.6618041807669 696.3603291021427,427.69536117627285 696.6435320036253,428.1619799659238 697.1144300090382,428.5830106375506 697.482538439217,428.84246075258125 697.8134806755697,429.0741653884179 698.1815891057486,428.99955002462957 700.2787411058089,428.28783617779845 701.9713757865829,427.8801965318271 704.2707864464028,427.6775592386839 705.74252111651,427.4926435399684 706.160000000149,427.37837422802113 706.5524004410254,427.27104121498996 707.3809211165644,427.0672005767701 708.079971783096,426.88232450786745 708.3194548909087,426.9190511466586 709.0176899982616,427.122891908919 709.9926617884776,427.4559169880231 710.3793824427994,427.473718941852 711.7961251272354,426.9190511466586 712.5873922276078,426.78990646789316 713.1213795556687,426.69740820355946 714.7759451022139,425.64383966079913 716.1198408819037,424.58914388809353 717.7008022186346,422.7592428709031 718.51068154315,421.9082995186909 719.6150942152599,421.020665755088 720.2219284481835,420.63306172023294 720.2624733867124,420.60286971757887 720.7187204551883,420.26325954904314 722.0617715484696,418.96908785088453 722.7058302293299,418.22955806954997 723.0181311147753,417.9700164235546 723.3498597830767,417.76845345518086 724.6921244446421,417.3229052776005 725.4283995592268,417.1012535759364 726.4583342081169,416.49207121989457 727.0287595520495,416.2893442310742 727.8200557795353,416.26929606246995 728.4446575503098,416.3249898710055 729.1995448889211,416.2135621448979 729.7513288819464,416.01091511611594 730.3767462114338,415.49294950492913 730.4325828837464,415.46231580217136 730.5798495574854,415.3816015899647 731.1316335502779,415.30810472072335 731.9593386667548,415.5854119407013 733.4310733369784,416.2324876204366 733.8906408960465,416.3617181062582 734.4804648960708,416.56556773080956 735.3631619983353,416.5833704829565 736.3389202203834,416.9753915661713 736.6253271040041,417.09126962156733 737.3874962204136,417.39752422930906 738.4360722204437,417.4343324947986 740.1650866630953,417.39752422930906 741.4345626739087,417.230483599531 742.6489884444745,417.1937554955366 743.6603399965679,417.1012535759364 744.8561826703371,416.86067624681164 745.7396953315474,416.7126007822808 746.8983135574963,415.9362556420965 747.5617417672183,415.59431335295085 750.2337755591143,414.1005956888548 751.4987951219082,413.3934493085253 753.4478940161644,412.154935762519 754.0182611058699,412.1181667938363 754.7051948942244,412.2146001185174 754.9382117831847,412.24735937226797 755.9875742150471,412.52467008767417 756.6680417848984,412.4322465833393 758.1397764552385,411.7661948578898 759.427806435735,411.32288110797526 761.2862908871612,411.04556902020704 762.849455559277,410.656866436766 763.8988471183693,410.2313538796152 764.4870691271499,410.1946247169981 765.0024442311842,410.36167018674314 765.4441859982908,410.804985691444 765.9959991184296,411.52561224310193 767.1003826631932,412.3943950382527 767.6521957832156,412.83766673499485 768.0219353315188,413.2932072530384 769.5074179982767,414.07509418809786 770.2647228870774,414.5919000217691 771.2922691130079,415.6522126205964 772.5657646650216,414.7489183192374 775.2195940123638,412.16163196443813 775.9987151076784,411.6013155982946 776.35065799125,411.4108943490428 777.7107775716577,411.11016560334247 778.2876400072128,410.819420697866 778.973729109508,410.0943813411286 778.9777777778218,410.0911735523259 783.3282322204905,406.62705778860254 783.8104606721317,406.3931263451814 784.2214442098048,406.5724444001098 787.6293162098154,408.964956413256 788.007968654274,408.9917014744715 790.4247324443422,407.95914750755765 790.8575904426398,407.9313597921282 792.3187810988165,408.06721081532305 793.4822926791385,407.9858926795423 794.6174053262221,407.79542849736754 795.2120935538551,407.55043119291076 795.5640655645402,407.1705445401021 795.7896259129047,406.88645116699627 797.7016751219053,404.47844073653687 798.6207811130444,403.41920210275566 798.9986179983243,403.1462918240577 801.4881995663745,401.7328153733979 801.9477379983291,401.3251311474014 802.1637446542736,400.8907403854537 802.5423970987322,399.1341625608038 802.8676886757603,398.56387151562376 803.1317550649401,398.41237645375077 803.2463411201024,398.3466938115307 803.2503606614191,398.34500964084873 805.0036671148846,397.6126349414699 805.5449653477408,397.55805962497834 806.4648577707121,397.5301905203378 806.7618086686125,397.4488688556012 809.0604037689045,396.2804483611253 809.5474964480381,396.0353993382305 809.9261488924967,395.9808236673125 813.4699571201345,396.2258326454903 815.6973655608017,396.33502396469703 816.5905775502324,396.1991262778756 817.402117120102,395.60099911293946 817.8891806720058,394.86689184233546 818.1051873280667,393.96913421928184 817.9425706667826,392.6101807859959 817.7807695644442,391.90285151667194 817.7265348834917,391.277926658513 818.110080682789,388.6780792266363 818.1157022152329,388.2258209071588 818.2281619912246,387.57197370933136 818.3406217671,387.2110637383885 819.2848644551123,384.9999170394731 820.2743415466975,382.65284493460786 820.499290225911,381.2760228231782 820.499290225911,380.64437354175607 820.5227375503164,380.23356602928834 820.6457122134743,378.0823092474602 821.9839864604874,379.15729838155676 823.7591091201175,379.99050592724234 825.6483226738637,380.6666703763767 826.5245535573922,380.8705499700736 827.1766804479994,380.84825315425405 827.5229726720136,380.6910525239655 828.8183135574218,380.1029929375509 829.2899979947833,380.0128028218751 832.1687468943419,380.1464638396865 832.8427191181108,380.2144372362527 833.4050179981859,380.37260062940186 834.1291471075965,380.43945109960623 834.723806208116,380.3202671650797 835.4059048960917,380.0796533910907 836.0353708943585,379.8757731333026 836.3954111147905,379.7187322828686 837.5782630970934,378.9768372090766 837.9245844479883,378.68047957023373 838.5767113388283,378.02548379218206 839.003918677452,377.77704771846766 839.0257640107302,377.7325337220682 839.7490484337322,377.39502913702745 840.600230001728,377.2579578681616 840.981299996376,377.19114662485663 841.8583755661966,377.1454695397406 843.2872060018126,377.1565780150122 844.039646663121,377.099792446068 845.0518137743929,377.07749528391287 846.0518348800251,376.8580526005826 847.1424995554844,376.76224687870126 848.0867131163832,376.82909834291786 848.9637595590902,377.0095611119177 849.4909602701664,377.11687624146 849.9767131023109,377.2156093271915 850.7194835626287,377.3359176631784 851.3238419910194,377.1231723817764 851.7955555554945,377.0214716498158 851.9541526756948,376.98730404418893 852.3983119928744,376.9170839852304 852.904016896151,377.0362695903168 853.320680220495,377.39390625979286 853.7074300018139,377.8438989032875 854.268942449824,378.5211922026938 855.1929126685718,379.18512949277647 856.0230353352381,379.49147201661253 856.8555755519774,379.64963588071987 858.2852215467719,379.7811315706931 859.0805955698015,379.6039592580055 859.7998313244898,379.333308049303 862.5669068800053,378.43874129862525 863.4091755519621,378.258279591857 863.9642217815854,378.1402174606337 865.444053788553,377.9798068641685 866.1406869048951,377.9564671133994 866.6576640000567,377.8438989032875 867.06221044634,377.64117974683177 868.0080259982497,377.24460364168044 868.1568946632324,377.15545513672987 868.613229112816,376.6709326413111 868.9506375680212,376.1061230425257 869.0630973442458,375.56473231874406 869.3778157797642,373.0148459827178 869.8956084337551,371.0285925778444 869.9174828943796,370.89268072578125 870.5250744320219,369.47123630711576 871.7840355555527,366.2316883034655 872.6166048997547,365.2480006093392 872.8830014578998,364.99401699675946 873.1229797264095,364.76521896285703 873.2112640000414,364.68099877325585 873.8949355520308,364.4414924365119 875.9467948944075,364.2620630534366 876.0681384392083,364.2762601978029 878.6183626526035,364.574039090483 880.0803979947232,364.5962972959969 880.895170673728,364.6197185407509 881.7285264498787,364.44036949949805 882.2835435520392,364.03149971115636 882.6880899983225,363.8064706402947 883.690528654377,363.48563039972214 884.4858735501766,363.55806012108224 886.0150760108372,363.6482563496684 887.7691688961349,363.85102729522623 888.1955315484665,363.89670688158367 889.7554631110979,363.81425101088826 890.261138887261,363.66498014645185 890.9844815644901,363.2873108139029 891.0516195555683,363.2873108139029 892.9966697813943,362.1120283260825 893.6213006791659,361.75332640542183 894.423898225883,361.45470183959696 894.8405906773405,361.4246628990513 895.9401391218416,361.8134844120359 896.7613488925854,361.9315544832498 897.3463086648844,361.97723443072755 897.5938891093247,362.0451728091575 898.5154417778831,362.20226519706193 899.0300304499688,362.35041401395574 900.3407504499191,362.7260795449256 900.561621333356,362.7893655139487 903.3723875556607,363.39876283169724 904.3982152817771,363.6460505730356 904.4954124516807,363.6694318044465 905.3053209031932,363.7819263769197 908.7447375645861,364.5940915280371 909.3919711003546,364.67762996506644 910.0465446684975,364.5283596314257 910.9486695538508,364.2097261165036 911.5554746595444,364.16516952734673 914.0960286720656,364.16516952734673 914.8152935538674,364.30000231269514 917.0645764552755,364.45817607379286 917.7838413369609,364.684287371696 918.2201654613018,364.99401699675946 918.6988986595534,365.33378468750743 920.4813322239788,366.7140659885481 921.0477088995976,367.0939357356983 921.9101917867083,367.4816252460587 922.8649202347733,367.6620949631324 924.5574966613203,368.04866064555245 924.6133333334001,368.07035707245814 925.2484499912243,368.31711870024446 925.4733986702049,368.4296512234141 926.4305446684593,369.0936161108548 926.996076657786,369.69068566709757 927.3399513316108,370.0315696960315 928.1045379983261,370.52841733710375 930.195223779534,372.040128884546 930.5552640000824,372.28853072522907 930.9597813192522,372.5826503673452 931.3416960001923,372.82880585611565 933.0286508942954,374.11544346110895 933.9372711254982,374.7626697681844 933.6581168925622,377.52307721273974 933.4024391111452,378.2248741101357 932.7179520000936,379.1806380167254 932.4663228871068,379.6451845157426 932.1297591183102,381.0220559774898 932.0941657884978,381.86644558777334 932.1540220018942,382.5525901875808 932.4444775538286,383.70664012723137 932.5569373298204,384.1354875045945 933.0755746702198,385.86767190968385 933.0165340161184,386.3444365054602 932.8975497671636,386.9114278528141 932.6467362134717,387.5875730283442 932.4226613475475,387.97073850239394 932.1596726613352,388.67138237692416 931.3125688888831,391.48067453020485 929.6854993351735,396.6502469581319 929.5188048783457,397.27956893190276 929.4285399609944,398.41237645375077 929.267991324421,400.4251518609235 929.0600820054533,401.0110369909671 928.6004853192717,402.5626172691118 928.3505164516391,403.27548917609965 928.1830064356327,404.91170233039884 928.1830064356327,405.45639586495236 929.0179933297914,408.35013997514034 929.3934126648819,409.81811038282467 929.7688320000889,412.88000906375237 930.1450668942416,414.0951425379026 930.5625457777642,414.9761455889093 931.7498833352001,416.7147659804323 932.0229500018759,417.11460561072454 932.2737635556841,417.7016132613644 932.9258904464077,419.91466746066 933.1499944392126,422.19008988229325 933.1912966828095,422.3972625264432 933.1629560036818,422.67235641076695 933.026757632033,422.9044678861974 932.8506259912392,423.20474097901024 931.0083362134174,425.65494591760216 930.9137022293871,425.8933494181838 930.9606260055443,426.31987699406454 931.3772893298883,427.9715717023355 931.8020499912091,430.01413257658714 931.9404037689092,430.37610156758456 932.107098225737,430.83830487378873 933.501063509495,431.82617729413323 933.5262293332489,431.84397892758716 933.6928946630796,432.1803253106191 934.1468115628231,435.42677166115027 934.694576014299,438.13529115903657 935.2374471111689,440.775824022945 935.6978011021856,442.70132894587005 935.6978011021856,443.30940317135537 935.5092904393096,443.93643928313395 934.9987504356541,445.13357662194176 934.6775657812832,446.0645813601441 934.319943111157,446.7717528868816 933.3724964410067,447.27177110576304 932.0116195556475,448.6204360240372 931.198477994767,449.3041870330926 930.8141457637539,449.87548147473717 930.6062364446698,450.3788208325859 929.9371284481604,454.4477931333822 929.8133382258238,455.20084320451133 929.5544273351552,456.1229094262817 929.1037726720097,456.71086512936745 927.3431844409788,458.4024425512762 926.3415322169894,459.1240503800218 925.0979793352308,459.6139807845466 925.5283906559926,458.1173266894184 925.8302057815017,456.4268697936204 926.038144227583,454.6417486507562 926.1134086827515,453.4067729343078 926.038144227583,452.03925200062804 925.7735826773569,450.42452423501527 925.180496441084,448.82862848759396 924.6133333334001,448.0415213225642 924.3042655574391,447.61254624213325 923.0105557902716,446.2706110799336 922.0501475556521,445.7249266129802 919.2539448889438,444.7182275640662 918.8862733654678,444.4547050570254 918.669771548477,444.29942990874406 917.9602351218928,443.5020846450934 916.6664962274954,441.57430081785424 916.1235960037448,440.0653073671856 915.8735688818851,438.7645056314068 915.7497786595486,437.75104214117164 915.7012237654999,435.37108223326504 915.5582096497528,433.70039345731493 915.5394226630451,433.481122219644 915.2933859557379,431.82617729413323 914.9795413333923,429.7156721386127 914.8500713246176,428.1508738237899 914.6381133369869,427.39352995029185 914.2975008996436,426.5314966206206 913.4552322275704,425.7162107481272 912.8386986666592,425.2919274234446 912.5765546666225,425.04241704795277 912.2424084481318,424.32964913378237 911.4923853370128,422.4072462627082 911.1032180055045,421.85260699072387 910.0004364517517,420.7934441412217 909.6266191075556,420.5328226532438 909.335347996559,420.4348289013724 908.8321188978152,420.50054566486506 905.8158317796187,422.10653113474837 904.6887582151685,422.23243058042135 902.1760788480751,421.74350733612664 900.8083862187341,421.4773135960568 900.3407504499191,421.44844484940404 899.4725877760211,421.3948772769654 897.5534606791334,421.4783961739158 896.9280433492968,421.43721811362775 896.5105353387771,421.22779930138495 895.9563046684489,420.7812149853562 895.5461075627245,420.537273268681 895.1722902187612,420.40583974379115 893.7547611021437,420.0115788378753 893.3623606613837,419.71198342496064 892.7652840107912,419.13059405528475 890.971520000021,416.9687355933129 890.324257337139,416.2559038847685 888.9472149049398,415.06082949321717 887.7586248818552,414.2232514542993 885.4422331164824,412.9234740981483 884.6905788872391,412.6294033176964 883.5845642241184,412.3364548969548 881.8263935432769,412.1771896065911 881.4987426704029,412.1471168437274 881.0812637867639,412.0001211250201 880.4760606719647,411.5812670425512 880.0173086719587,411.1825410221936 879.4242224355694,410.109979213099 879.286713344045,409.8615759651293 878.4937859983183,407.13606039388105 878.389394431957,406.5279356824467 878.389394431957,406.1502929183771 878.4314831075026,405.73150894150604 878.7438131200615,404.9763406435377 878.8481755591929,404.51521086198045 878.8481755591929,403.817940870882 878.7410460446263,403.56612281908747 878.5358746737475,403.08389854076086 877.950914901332,402.2451564265066 876.721080888994,400.8606662246748 876.4289942187024,400.3571841220255 876.1992395663401,399.85482374887215 876.0681384392083,399.21973417140543 875.9013274739264,398.41237645375077 875.844034446287,398.1350095218513 875.7817606827011,397.69391645188443 875.5107037867419,396.7727511404082 875.46861511108,396.41634600248653 875.5729775502114,395.6399760688655 875.4896448854124,395.38818963541416 875.3432228979655,395.0952605131897 874.4176215609768,394.34001903556054 874.229897329933,394.0883114541648 874.229897329933,393.7530351069872 874.4798953245627,392.7460804816219 874.3755328854313,392.53663692367263 874.0422022258863,392.4108022810542 873.3739097885555,392.4108022810542 872.977431552019,392.3061004302581 872.7687066737562,392.11670665745623 872.7274335573893,391.84494658606127 872.8374466560781,391.5820484023425 872.9750140018295,391.2523024594411 873.1659422152443,390.79563787486404 873.1449415680254,390.60740584059386 873.0405500017805,390.3968376207049 872.3309553209692,389.8944566397695 870.2864360107342,389.1604123172583 869.8899577744305,389.1392390857218 869.4312057744246,389.22280917858006 867.865623552003,390.02037278783973 867.4489311005455,390.14512595161796 866.9271189048886,390.14512595161796 864.9868746525608,389.4756446251413 864.3606708907755,389.39211472007446 863.7764975503087,389.3709415086196 863.2967157762032,389.45447142102057 862.685046442668,389.8532732229214 862.6567057636566,389.87220075324876 862.5248473316897,389.95797613158356 862.2529748764355,390.06267899484374 861.8363115519751,390.08385214593727 860.7100826737005,389.9791492916993 858.2682404408697,389.55921460228274 857.8297317831311,389.39211472007446 857.4340982330032,389.24510522536 856.4639906702796,388.6758736773627 856.115280896076,388.259265113913 855.6629951148061,387.9752298157546 855.2358169032959,387.7947751970496 854.509241116466,387.63212531915633 853.0779348764336,387.41156934411265 852.7632164409151,387.3002085511689 851.7955555554945,386.6604343926301 851.4169031110359,386.41016249579843 850.8521575537743,386.3198945202166 850.4354942294303,386.41016249579843 850.1086006615078,386.55937927536434 849.5479328996735,386.6674521075329 846.5575397833018,386.3198945202166 846.1109337887028,386.4691915579606 845.7702922242461,386.7810588583816 845.5461882312084,387.5708508793032 845.264616448083,388.6769965023268 845.0534448925173,389.6449900910957 844.844690887141,390.08497496455675 844.59547932446,390.18963767256355 844.0526082275901,390.37903294852003 843.5727973262547,390.37903294852003 843.1132588943001,390.21081081259763 842.2790875590872,389.66504045802867 841.9449122134829,389.6862136438722 841.6318248960888,389.83322287147166 841.1099544462049,391.007288462657 840.7555940125603,391.44839367980603 840.4011753244558,391.7625002062996 839.5670331163565,392.07772913592635 838.9003426702693,392.2058496691752 837.5976908799494,392.4553135866299 836.5750380089739,392.79063182591926 836.1995895467699,393.0635136436904 835.8864731023787,393.35644521703944 835.2821146738715,394.4046601629234 834.3637951147975,396.5232916584355 834.1340113352053,396.8796966393711 833.8419246649137,397.06904659763677 833.0077824569307,397.34084092173725 832.735910001793,397.44558070093626 832.019732593908,398.41237645375077 831.9429826561827,398.5159528919612 831.6509251130046,398.7877856955747 830.9454082276206,399.0929406119394 830.3369720035698,399.35470788774546 829.9405228942633,399.6476719704224 829.731798016117,400.0464169320185 829.6904957725201,400.40285684057744 830.0036413441412,402.3520995154395 829.9194639929337,402.79210146231344 829.6274064498721,403.23318527115043 829.0853217850672,403.7154493514099 828.6257542259991,404.2601455693366 828.5594026668696,404.5096372010303 828.5845102365129,404.6834230880486 829.05296156439,405.6246074390947 829.05296156439,406.02109709597426 828.9785126686329,406.3675438390346 828.6832220160868,406.73953245952725 828.3134242134402,406.9623163600336 827.5229726720136,407.1117610973306 825.5633588907076,407.48246544844005 825.0455371093703,407.8299927453627 824.7008760035969,408.25101857230766 824.5541918721283,408.6738881585188 824.5034524444491,408.8201641345513 824.479189560865,409.43943020160077 824.4541111183353,409.6878338812967 824.3060288853012,409.9595739839133 823.4678380088881,410.80161752318963 823.0980693333549,411.272799755272 822.3844551111106,413.0069558118121 822.014686435461,413.452471811499 821.2752073387383,413.9726470944588 821.0777837797068,414.1953842622461 820.8803602205589,414.4192840285832 820.2047568782,415.6533353208215 819.7468204374891,416.48870313045336 818.514598001726,417.67707444535336 818.2192782224156,418.0234644631855 817.9725133369211,418.44447261688765 817.7508268943056,419.5838774040458 817.6027446615044,419.8066495208768 816.813895111205,420.47600713168504 816.7645537849749,420.6241203970858 816.5177888995968,421.4416687124758 816.3454437832115,421.8381726400694 814.7685311146779,423.15125398448436 814.5961859981762,423.52217442163965 814.5451552995946,423.8619805081398 814.5217662295327,424.0177498649573 814.4723957760725,426.2720039419364 814.4230544498423,426.7676138681709 814.2757877761032,427.2131046229042 813.6835462258896,428.2789753252873 813.5362795520341,428.7244232132798 813.4618597832741,429.1699103785795 813.4869382259203,430.97751097125 813.4375677724602,431.3739993295749 813.1414615608519,431.6713351031067 812.9532421688782,431.82617729413323 812.3291064320365,432.3395774824894 810.5289053297602,433.30627441505203 810.1842442241032,433.50341420318 809.9374793387251,433.8754013516591 809.1243377778446,436.0192278010654 808.7796766720712,436.6629614122794 808.0900049352786,437.33275367849274 808.0652468906483,437.35680939402664 805.9551624533487,438.8925614421023 805.4130777885439,439.43717876280425 805.0432799858972,439.9572582973633 804.5263028907357,441.2457854267559 803.6387415609788,442.508686928777 803.5408453405835,442.6824055328034 804.0335595520446,443.3261214825907 804.0829300052719,443.47538347612135 803.9599262152333,444.0199103365885 803.4914748871233,444.8128438212443 803.2503606614191,444.974092289689 802.973682233016,445.15923522773664 802.2341740088305,445.38190370210214 800.5334711183095,445.5055459571304 799.843304220587,445.63027061964385 799.2518782294355,445.9019705064711 798.5366620160639,446.3485888130381 798.2656051201047,446.44657210895093 797.3780146632344,446.571296288108 797.0333244304638,446.64478369645076 796.4661613226635,447.0657422352815 796.0478960070759,447.2150019305409 794.9637266775826,447.3887171681272 794.7412246757885,447.53685411199694 794.4701677795965,447.98230677016545 793.9523459982593,449.76523177477065 793.6812891023001,450.0369671267108 793.3366571236402,450.2107204365311 791.9814308978384,450.43338427960407 791.6359542330028,450.7062414221582 791.2912640001159,451.0526244234061 790.7977051023627,451.84549485717434 790.5267064605141,452.21741382248 790.1569086578675,452.4891865211539 788.6536584533751,453.2207943883259 788.4562057671137,453.39454542059684 788.3817859982373,453.6918943259516 788.3089682204882,455.5493846479221 788.1609151148004,455.94579280371545 787.8898873458384,456.44138226815267 786.9780340052675,457.4313554766122 786.6819277938921,457.9269419097109 786.3615295714699,458.47255887271604 786.3392764587188,458.51846119906986 785.9423904427094,459.33892874151934 785.7207331272075,459.51263530779397 784.6721571271773,459.71091641066596 781.9851520000957,460.0327119441936 781.566041998216,460.2309525334276 781.3686184391845,460.5527874669642 781.0975906703388,461.59285499417456 780.9001671113074,461.9647590336972 780.7027435521595,462.2365208256524 779.841076224111,463.00486060313415 779.6929939913098,463.1774821556173 779.5449408852728,463.4502848930424 779.2002797796158,464.6874544900493 779.0521975468146,464.9847494821297 778.9777777778218,465.0405523851514 778.8548031147802,465.1328756940202 778.7157794134691,465.23534129705513 777.745526215178,465.95023410685826 777.4744984463323,466.1740460759029 777.2277335609542,466.59497076808475 776.316695779562,469.5670792159508 775.6127808853053,471.2351561424439 775.2414102187613,473.37424328993075 774.7462493297644,474.567908345256 772.4937624463346,475.9854506365373 772.2049088852946,476.4397503052023 772.130489116651,476.81163161282893 772.1434215538902,477.15793730079895 772.2664253440453,477.6534434000496 773.0633431040915,479.6666845866712 773.2769613368437,480.3158744465909 773.2769613368437,480.575309390435 773.178220430389,480.72450840915553 772.6644764444791,480.74900077009806 772.4525184568483,480.6955665324931 772.1450235450175,480.5251621447387 771.8699762348551,480.2590328226797 771.4039424569346,479.6466416489566 771.2922691130079,479.5731642249739 771.0341737814015,479.52301677217474 770.0373857849045,479.567592286272 769.6142271148274,479.69454426749144 769.2541868941626,479.8760530157015 768.9888097849907,480.142142671335 768.9666149262339,480.18667798599927 768.9022148835938,480.3158744465909 768.7420448996127,480.9471843666979 768.3229348977329,483.5349406149471 768.2177568995394,484.04382214677753 768.144123562728,484.40346586023225 768.0259840000654,485.6850630471017 767.7128675556742,485.6894723838195 767.435344440979,485.65499938459834 767.1966768925777,485.57258484576596 767.0122148977825,485.45120774034876 766.613348238403,484.84215671295533 766.4781984427245,484.6194843259873 766.2023064462701,484.5638061760692 766.1473144604824,484.5638061760692 765.9814064357197,484.6929602235905 765.9264144496992,485.56256362068234 765.6877177741844,487.02233107137727 765.4482637938345,487.4276267309324 765.2087515592575,487.5389817050309 764.9328304356895,487.5389817050309 764.4174844586523,487.20716136851115 763.7556291130604,486.76402538467664 763.2766337706707,486.70834772638045 763.1115995593136,486.76402538467664 762.7628897849936,487.33631401049206 762.3575277795317,488.4820496654138 761.768519338686,489.11005144863157 761.3453606684925,489.2024858627119 760.8485977884848,489.23920307902154 760.0944968818221,489.036536802887 759.4132720071357,488.9619799419306 759.2239166578511,488.9742457496468 758.8622744462918,488.9986971945036 757.7392786775017,489.11005144863157 756.5434360037325,489.2760004582233 755.7335566792171,489.6278200005763 755.1631313350517,490.2747385285329 754.7051948942244,491.0506857489818 754.1703920072177,491.95714352751384 753.3612991147675,492.7142861094908 752.9009159966372,492.78888190252474 752.4041531166295,492.78888190252474 751.9996066703461,492.6586098150001 751.3555771165993,492.28895737585844 750.5270564409439,492.0495367744006 749.939679118339,492.1230104244896 748.8724617671687,492.60401576856384 748.1548280037241,492.6586098150001 746.8845655610785,492.60401576856384 746.1491060053231,492.73320562497247 744.7510046721436,493.26876358652953 744.2170173439663,493.3433992929058 743.6838164480869,493.3611964181764 743.2970666667679,493.15853358095046 743.0025333192898,492.97370781208156 742.745282673859,492.4370268546627 742.6902615610743,491.68104584130924 742.7167089777067,491.27170879853657 742.745282673859,490.8303439267911 742.6344248889945,490.5530825216556 742.3771159894532,490.4795683125267 741.9903953352477,490.5530825216556 741.4936033281265,490.8303439267911 740.4450273280963,491.3848257040954 739.8082795521477,491.5908169851755 739.2095717830816,491.63983959751204 738.5007926613325,491.7622557913419 737.741070222226,491.95826587517513 737.1156528925058,492.30899927049177 736.2693355521187,493.17637080332497 734.797630009125,494.6371747528319 733.785462897853,495.40432980138576 733.1778422329808,495.8296931636287 732.7546835627872,496.0144766762969 731.7991395556601,496.3841635296121 731.0992733298335,496.86516043631127 730.4325828837464,497.4487687376095 730.2343728925334,497.62224763823906 729.4616888889577,498.3804948814213 729.221069824067,498.6399105329183 728.9648968819529,498.9160804756102 728.8710493298713,499.3436021506204 728.8548837831477,499.4148690509028 728.5975748837227,500.3022163651185 728.5814093369991,500.4870365582756 728.5239415466785,501.1528851102339 728.4325406720163,501.76297746493947 728.1744162134128,502.48341435805196 727.089431324508,504.3861847789958 726.6654862222495,505.27351393480785 726.4818106595194,505.80908433219884 726.3531853370368,506.29006257810397 726.354000896099,506.80775443278253 726.3725839930121,507.3621997425216 726.4640139947878,508.2773744313745 726.9608060019091,510.0888353846385 726.9794182258192,510.5508870310732 726.7399059912423,511.4015198898851 726.243172238348,512.3801267641247 725.4154379947577,513.8586509461747 725.3054248960689,514.3941623374121 725.4378367430763,515.1804934056127 725.489071331569,515.4840993223479 725.582103324472,516.5751536515309 725.4898868907476,517.277671089163 724.6985906631453,519.3473362530349 724.0359488853719,520.7523530650069 723.7600568889175,521.2232418940403 722.1969213439152,524.6789504149929 720.2470068907132,528.4485395920929 719.5479562239489,529.7978359889821 718.940335559193,531.1292503802106 718.4071346630808,531.8684765865328 718.2472559502348,532.039927049249 717.046257777838,533.3279257448739 716.0890826525865,534.030394743022 714.5065193246119,535.111346607504 712.3365786737995,536.9036914238823 710.2029886577511,538.4922758629546 709.2272595628165,539.1768560099881 706.6511122203665,541.2274188965675 706.160000000149,541.6010445230058 705.7603760355851,541.9050582576892 703.4681888995692,543.6486614528112 702.4203993316041,544.5548027802724 702.1259242382366,545.0713310795254 702.1072828872129,545.6446445467882 702.1445073351497,547.1218442214886 701.9972406614106,547.5192250703112 700.985073550255,549.1088621899835 700.1581839929568,550.7352369080181 699.4405502292793,552.3426057197503 699.0910248960136,553.5816069126595 698.8142882133834,554.5054637718713 698.3361375574023,555.3181134771439 697.2883479893208,556.944406562543 697.0124559929827,557.6089783633361 696.4234475520207,558.7543425980839 696.0189302328508,559.4378237707424 695.1904095574282,560.3806527582929 694.6039643023396,560.9965672034305 694.1612613404868,561.4614874050603 693.111840654281,562.4599287827732 692.4127899875166,562.9586670674616 691.3642139876029,563.6420562705025 690.131175992894,564.363351573702 689.8002628836548,564.5481631146977 688.1440662187524,565.4341906465706 688.1427846258739,565.4353126549395 687.6294775466667,565.8783452431671 687.5000366648892,566.3769963688101 687.0218568819109,567.7995329316473 686.7771308942465,568.9551474190666 686.470072889002,570.4052777450415 686.2119775573956,571.8467040826799 686.157772003673,572.4934037300991 686.2313762133708,573.1589748398401 686.268600661424,573.417268832447 686.5631340090185,574.2019263115944 687.2435433245264,575.3472924804664 687.7209075484425,576.0095700354432 687.9425939911744,576.1976584552904 687.979847566341,576.3267638010439 687.268621767289,576.4391999960062 686.5259095609654,576.6039674123749 685.1091960036429,576.9367475661566 683.8024955448927,577.3062311740359 682.8639908980113,577.435376000707 681.9262435556157,577.2506143301725 681.8874171164352,577.2377118617878 681.1527731200913,576.9934864367242 679.3120853335131,576.1431633165339 678.4480004552752,575.8292550522019 676.5158826668048,575.4597291286918 674.0692053334787,575.3116701672552 671.8976044374285,575.2749659561086 670.3158566685161,575.3673275248148 668.8805600143969,575.5153864523745 667.9970182258403,575.4775202399469 667.3343473209534,575.4040317221079 666.7825633281609,575.2193085773033 666.0835126613965,574.500289429212 665.2177966649178,573.4918398518348 664.5187459982699,572.6236330189276 664.323973006336,572.4970902217901 663.580212224042,572.0136784981005 662.9183568782173,571.6997648994438 661.8325855573639,571.4415492226253 661.0040648818249,570.9974047942087 660.5259142258437,570.5176766090444 660.0477344427491,569.3712458286318 659.458726001787,567.8562739355839 658.6488466772716,566.5071888642851 657.6148051058408,565.4357534439187 657.6143390720244,565.4353126549395 657.5080251164036,565.3250753143802 655.3000153317116,563.5519342792104 653.975547335227,562.3319781643222 653.2206599963829,561.4269850830897 652.687488227617,560.5030743939569 651.9511839859188,559.8652790356427 651.2699882382294,559.4033211614005 649.3564535467885,558.0352747302386 648.6202075590845,557.3150826886995 647.4607737743063,556.1318023693748 646.3199522134382,555.2836102829315 644.7560011093738,554.4520457538893 643.52374954673,554.1381495411042 642.3643448889488,554.1748970186454 640.8926102188416,554.3964236791362 638.5475573759759,554.3964236791362 638.2792966826819,554.3964236791362 637.0834540089127,554.4153383919038 636.2371366685256,554.2850592706818 635.5931071147788,554.045739829482 633.771847111173,552.6587884603068 633.3422222222434,552.3363942676806 631.2871588978451,550.7942260485725 629.55811532808,549.408338127716 628.4909562311368,548.927445234207 627.7360688925255,549.0009016853292 626.9083929032786,549.2235150715569 626.430183992954,549.6298290594714 625.5652835555375,550.6272370517836 624.7545886720764,551.0157557912171 624.2958075449569,551.1637894824962 623.485928220558,551.1815823729266 622.6582522311946,551.0714187138947 621.9405602134066,550.9044299074449 621.5538395592012,550.5170731412945 621.3151428835699,549.9248160354327 620.5238757831976,549.0009016853292 619.6953551075421,548.3540994382929 618.201454705908,548.0543416792061 617.947728440864,548.0034870173549 616.3101439999882,548.1526847065543 613.8812633316265,548.4665886515868 612.7954920106567,548.8172004043008 610.6974953244207,549.5563327241689 609.8690037761116,550.0372243729653 609.6594633387867,550.1909892769763 609.0696393387625,550.6236704507028 608.7095991183305,550.887718998245 606.9991968995892,552.2914313642541 606.0614495574264,552.7534027593792 604.5703162313439,553.0684228263563 602.6204017779091,553.5860150172957 600.854162887088,553.807542214694 598.8662375537679,553.881037264131 597.265062001883,554.2505960033159 596.823291107663,554.3797130100429 595.112073329743,555.2301523625501 593.4566922241356,556.3755678834859 591.3773368889233,557.558847015549 589.3352060018806,558.5751368505298 587.6798248960404,559.2953251575818 586.59399532096,559.4244795565028 585.9864037832012,559.4077692332212 585.3059362133499,559.2741667512455 584.7970273279352,559.103216377669 584.6829364338191,559.0649468800984 583.6125442276243,558.4649765435606 581.680426439154,557.3929847127874 579.8200487253489,556.3816990857595 578.7911917796591,555.8223564641667 576.8413064533379,554.7503930485691 574.7619219912449,553.7541240432183 573.3816173225641,552.7188992010197 572.4066746595781,551.7949554010411 572.2408248888096,551.2406114792684 572.1307826632401,550.279913997103 571.9317571130814,547.5626660192502 571.8589393350994,546.9982536757598 571.736751104123,545.512156597455 571.7626742330613,541.7517690176028 571.505365333287,539.811419446487 570.7504779947922,535.7092104739277 570.6032113209367,535.1725838375278 570.0514273281442,534.2686117468984 569.3879991184222,533.2611574198236 569.1679146668175,532.70673113456 569.0962328463793,532.039927049249 569.0942813297734,532.0221327571198 569.0570568818366,530.9322298850166 569.0756982329767,530.2119575047982 568.9470437831478,529.7488210760057 568.7075315485708,529.5640231423895 567.9162644480821,529.2322602013592 567.3272268800065,528.8626634077518 567.2535935431952,528.7513273734949 567.0513348836685,528.308267163171 566.6739931592019,527.1994308009162 566.5731842276873,526.9032940469333 566.205017543165,526.404561905365 565.5246082276572,526.1284632873721 564.3838157939026,525.6664412664832 563.9784537885571,525.3702625656151 563.4816617813194,524.8348154458217 562.6531411058968,523.4554325009813 562.4087937705917,523.0624610303203 562.1644755627494,522.816417682101 561.6021475555608,522.3989169392153 560.7768891166197,522.0437381480588 560.5244444445707,521.9643819491612 559.8779682132881,521.7610215512104 558.9863873422146,521.2321795147145 558.2565784462495,521.1197578496067 557.4474855539156,520.8525507814484 556.6562184534268,520.3537661397131 555.5340091165854,519.3551517216838 554.2087255609222,518.4678339174134 553.0492917760275,517.0450085046468 552.2766368995653,516.0842158815358 551.8348660053452,515.0498726047808 551.4117073350353,513.3498318663915 550.9699655680452,512.2409673113143 550.4545613368973,511.59410727676004 549.4423942258582,510.87265530246077 547.8784431219101,510.11556931282394 546.3694548766362,509.37519472971326 544.4559784393059,507.9723566661123 543.296573781292,507.09385526459664 542.8175784392515,506.53940934233833 542.3631372516975,505.7465971718193 542.1921611094149,505.448350022838 541.7326226774603,504.1367556411424 541.4194771058392,503.04560536681674 541.0513686756603,502.23286096641095 540.4259513458237,501.4579515202786 539.3587339947699,500.6997539649601 538.0156537741423,499.7756123197032 537.555270656012,499.31354017858393 537.2243866738863,498.8325481197098 537.0080887466902,498.6399105329183 536.2518615610898,497.96619885374093 536.2494440106675,497.96407446236117 535.4734977707267,497.3851170212729 534.8141182294348,496.8918958196882 533.4152013369603,495.9488204247318 532.34801311302,495.50678263546433 531.1335582151078,495.0257830390474 531.1060622222722,494.9968027829891 530.7476239929674,494.6282361538615 530.5631619984051,494.4067351569538 530.1772569031455,493.31666351883905 529.8454991076142,492.89129575621337 529.514585998375,492.65079348749714 529.1828864568379,492.6318739656126 528.2993446685141,493.11287830222864 527.6189062257763,493.3712173214881 527.3607817671727,493.40905624849256 526.4044804552104,493.3344606460887 525.6131551004946,493.3712173214881 524.9691546738613,493.55604278785177 524.2328504320467,493.8889367074007 522.5766828942578,494.7028714424814 521.5653313421644,494.85987804067554 521.086336000124,494.84095869091107 520.368673109333,494.6650327167008 520.1478022257797,494.4802080941736 519.375118222204,494.03704529447714 518.7132920037257,493.8889367074007 517.6825126684271,493.6117188766366 516.9462375538424,493.3344606460887 516.0751912961714,492.8721758344909 515.6581784463488,492.65079348749714 514.7754522169707,492.5216837548069 514.3337104497477,492.5216837548069 514.002768213395,492.6140767869074 513.4687808853341,493.09395881620003 513.0642635663971,493.7597875491483 512.8797724446049,494.25862679531565 512.5116348870797,494.5547632613452 512.2171597938286,494.58262123464374 511.97924955026247,494.58262123464374 511.6467344497796,494.58262123464374 511.18638045876287,494.6015406046645 510.781804885366,494.7117699555238 509.84327111113816,495.2294864844298 509.31007021525875,495.45106689765817 508.7397031254368,495.59917453228263 508.35295334411785,495.59917453228263 507.34075710573234,495.4143506202381 506.9362397866789,495.37759425421245 506.67893088725396,495.4878633360495 505.83182711468544,496.2093610010925 505.3172384428326,496.81946577114286 504.72823000187054,497.26262349501485 503.77108400373254,497.5220403401763 502.4651991040446,497.5220403401763 501.6731455717236,497.48420205368893 501.22811244102195,497.3506055987673 500.25640288728755,497.0599639125285 495.6931748978095,495.1015004553483 493.6137904356001,494.4445739227813 491.81032709695864,493.7052739173523 490.6331257742131,493.0772840138525 488.7196493371157,492.3001006694394 487.7066666666651,492.02949485823046 486.9898193352856,491.83801430882886 486.38362589874305,491.72553895646706 485.00270956091117,491.4694428869989 479.0219524552813,490.268044479948 478.89411356451456,490.24018601182615 463.4340837831842,486.8978681699955 454.6622795093572,485.0016148694558 454.5891413334757,484.9858213815023 454.1433217708254,484.88889584166463 453.8439533227356,484.8243589635822 446.7863377920585,483.29887854808476 444.24333710223436,482.7488277889788 439.7529268907383,481.8435382134048 439.1614717725897,481.76060126931407 437.2933171199402,481.49840168707306 436.2503917797003,481.35253024828853 434.53835844271816,480.9839429164422 432.6815051094163,480.5073640788323 428.41761644091457,479.4139430204523 429.392559104017,474.31179418595275 427.6870211130008,473.9744237998384 415.9771068871487,471.6593592139543 414.88888888887595,471.4439305306878 413.6040337635204,471.1894967428525 409.1880724480143,470.35764431854477 408.8935682277661,470.3209242481971 408.76896244625095,471.0291475983686 408.63625932799187,471.7818656520103 407.8263800034765,471.6115351852495 407.4954668942373,471.5413424822036 403.95975600369275,470.89882375317393 402.6603664497379,470.64944040204864 401.3383160036756,470.39660927822115 394.9214386632666,469.0526352618472 390.6163060052786,468.1519849085598 381.7899757795967,466.30549492227146 376.67802214389667,465.23534129705513 372.2166225351393,464.3014034111402 368.0549117724877,463.43024061701726 367.17300110228825,463.24539222643944 366.77031879127026,465.23534129705513 366.34369399480056,467.3440946515184 364.986050218693,474.05459741310915 363.0021735539194,483.8634388978244 362.8614022259135,484.55823435186176 359.56840755220037,483.8367020804435 358.8944644550793,483.68970965989865 355.3681033671601,482.9173065206269 343.81145600019954,480.3859844424878 343.31547955214046,480.27691107813735 342.0711111112032,480.00420741032576 337.8371651129564,479.07649954862427 337.4884553386364,479.0008172231028 323.68310761253815,475.9773130805115 317.79852822760586,474.68808828812325 304.141932657687,471.6961592565058 293.5259162170114,469.3711713257944 291.99819923902396,469.03660021111136 284.6890711039305,467.43573559087235 274.6460431930609,465.23534129705513 269.25333333329763,464.0538573549129 265.5889971200377,463.2509645394748"/></g></g></svg>