<svg width="1200" height="800" version="1.1" xmlns:xlink="http://www.w3.org/1999/xlink" xmlns="http://www.w3.org/2000/svg"><g class="geojson-features"><g class="geojson-feature" stroke="#555555" stroke-opacity="0.0" stroke-width="0.0" fill="#111" fill-opacity="1.0" data-properties="{&amp;quot;N03_002&amp;quot;:&amp;quot;空知総合振興局&amp;quot;,&amp;quot;fill-opacity&amp;quot;:1,&amp;quot;description&amp;quot;:&amp;quot;空知郡南幌町&amp;quot;,&amp;quot;N03_001&amp;quot;:&amp;quot;北海道&amp;quot;,&amp;quot;stroke-opacity&amp;quot;:0,&amp;quot;N03_007&amp;quot;:&amp;quot;01423&amp;quot;,&amp;quot;fill&amp;quot;:&amp;quot;#111&amp;quot;,&amp;quot;N03_004&amp;quot;:&amp;quot;南幌町&amp;quot;,&amp;quot;title&amp;quot;:&amp;quot;空知郡南幌町&amp;quot;,&amp;quot;stroke-width&amp;quot;:0,&amp;quot;N03_003&amp;quot;:&amp;quot;空知郡&amp;quot;}"><title>
      空知郡南幌町
    </title><desc>
      空知郡南幌町
    </desc><polygon points="467.62075044983067,633.9078228521394 466.8683097886387,633.7696661723312 466.42490777606145,633.6147426191601 465.83668576716445,633.350376699469 465.34720466507133,633.0394934823853 464.74849689612165,632.5671143205254 464.69356316444464,632.5084900156362 463.64082198776305,631.3855849421234 462.5680122312624,630.2084706194582 461.53641733701807,629.311333333666 460.41097489069216,628.227125431411 459.2766486755572,627.0245463408646 458.39636912348215,625.982425830618 457.6155877832789,624.9402610543184 456.8000286719762,623.7786087093409 456.1907768888632,622.9245415960322 456.0419082241133,622.7165604291367 455.4221415538341,621.9376849211403 454.296699107741,620.5227107842802 454.11063512181863,620.2925432209158 452.58306377963163,618.4062284402316 451.3993671112694,616.9126515980461 451.375890659634,616.8894313847413 450.8224755486008,616.3528566486202 449.9421959965257,616.0209619624657 448.4259842276806,615.9169286382385 445.4348046791274,616.2455574917258 445.2098560000304,616.2698531475617 444.66453822585754,616.0862416562159 444.1636975504225,615.9169286382385 443.3481384392362,615.4888063487015 442.78339288185816,615.1923185784253 441.9945433315588,614.570505607815 441.73723443225026,614.1722130976268 441.5390244408045,613.8646511776024 441.48805199644994,613.6754617703846 441.3116582116345,613.0138553053257 441.22107289603446,612.2670117361704 441.3116582116345,611.4582705021603 441.5390244408045,610.4426104009617 441.9031133297831,609.0519059901126 441.9031133297831,608.1192023637705 441.47835266857874,606.5425957550178 440.9864248888334,605.4649386857054 440.4160286721308,604.2191506829695 440.18947800190654,603.7222994859912 438.79382334591355,601.564804863825 437.09472244628705,599.6352080235956 437.0514395592036,599.5937034408562 436.7636345742503,599.3176699041505 435.4797988977516,598.086150253599 435.35434843041,597.965618888149 435.320386218722,597.9334745252854 432.83651356457267,596.2107774502947 432.8923211094225,595.8611300836201 433.0800162133528,593.7633150545298 433.21111734048463,592.3126869117259 433.2701579948189,591.3013687935309 433.38183133874554,589.3993751612725 433.3931326578604,589.2013238318614 433.939295118209,586.8776742359623 434.91018911311403,584.0970651210519 434.9935509049101,583.8403336979682 435.69903866318054,581.650557071087 436.4871017814148,578.8288982941303 437.0931204551598,575.4672362138517 437.214464000077,573.1434960015467 436.84472445154097,569.8581223728834 436.7897033387562,569.3678939331439 436.0315828906605,566.5461333183339 435.80040100985207,566.1223067071987 434.78718532260973,564.2643766700057 433.51532088883687,563.1422737898538 432.9060982330702,562.6044657067396 432.8445817742031,562.5458246353082 431.1503451023018,560.918011403759 429.75224376888946,559.5756678530597 428.7659706596751,558.6018616177607 426.3257886720821,556.1882842391497 425.8022871040739,555.669264785538 421.8936035557417,551.6920046283049 421.38306355220266,551.250463530072 421.15895955928136,551.057919011917 420.7406651165802,550.696016180329 419.07555555552244,550.0055547686643 418.7389917867258,549.8659961495432 416.5843719964614,549.6170373986824 412.5195380053483,549.2440967955627 410.9855004445417,549.1544172643917 406.84621755743865,548.9120712143485 404.75311422580853,548.8821912804851 403.8736211057985,548.8700002662954 402.44802377955057,548.4981740435469 400.2934331166325,547.4191855668323 399.353239096934,546.5891942566377 398.9584211058682,545.8421478771488 398.56438954675104,544.3890841422253 398.3208868977381,542.6881216758629 398.3208868977381,541.3601005734527 398.35164512728807,540.240123732714 398.7763766613789,538.4151453254744 399.4131244374439,535.9659890396288 399.72545444988646,535.3606286647264 400.1405157831032,534.5549002076732 400.6413564586546,533.7038284643786 401.2375592960743,532.9224781691446 402.47715089074336,531.2978145775851 403.50956134404987,529.921003641386 403.66003200015984,529.7206729402533 403.78708445862867,529.500420540222 403.99012955033686,529.1473309855792 404.38902533682995,528.4545376767637 404.7069768818328,527.624482010142 404.90440044086426,526.7313113947166 404.9496930986643,525.9012100361288 404.8437286685221,525.1541801544372 404.54034067923203,524.5332539060037 403.52814444096293,523.3523182753706 403.50871665775776,523.3301649697823 402.84447288897354,522.7635416988633 400.76270000380464,520.9849313719897 397.5158135467209,518.1614968832582 395.69539822940715,516.5853861992946 395.5181888854131,516.4016600260511 395.23824822041206,516.1127821158734 394.8029726720415,515.6632077186368 393.58691578311846,514.4071602895856 392.2980411165627,512.1658787805936 391.2219399965834,509.592457922874 390.84247199306265,507.82929198181955 390.61108622222673,505.93545534374425 390.50753934215754,505.0897828961606 390.4015166577883,502.68237176619004 390.2348804551875,500.58590922824806 390.0345441850368,499.7181425326853 389.87076243932825,499.0086093734135 389.4306226631161,497.6593111907132 389.1781779911835,496.77264596754685 388.878023111145,495.7200082700001 388.76314578484744,495.31490731885424 388.35373511118814,493.7585738346097 388.30116067570634,493.4907094168011 388.1368837689515,492.64726533024805 388.0495024357224,492.20227029453963 387.95888799300883,490.97798184206476 388.12555332272314,489.3386538713821 388.32542355929036,488.5792784272926 388.5511295431061,487.71920000133105 388.88448932988103,486.93100797431543 389.5374317795504,485.9557966477005 390.3408448853297,485.2296458379715 391.2211244375212,484.83560590515845 392.13056022755336,484.62746744428296 393.27703244809527,484.590964490897 394.1022908871528,484.5654602407594 394.8029726720415,484.5654602407594 398.03124690486584,484.5654602407594 399.0320544426795,484.4403698252863 399.30150934762787,484.35628543875646 401.1559160037432,483.7762219347642 402.6122715593083,483.13307352160336 402.6421851022169,483.1109165722155 403.8558244409505,482.2198548623128 405.23612910939846,480.6634380327887 405.9796860020142,479.5431831945316 406.60187022225,477.98674932774156 407.0412235663971,476.2421655174694 407.51130601239856,474.02149640134303 407.98138845863286,472.6310921360855 408.5274926649872,471.6137395365513 409.4684731166344,470.57649622124154 411.5308473458281,468.584930492274 413.4324981761165,466.50925801793346 414.23075578315184,465.63802269333974 415.1102197760483,464.35055270558223 415.77851221337914,462.66892057535006 416.1110564409755,461.21647848177236 416.30848000000697,459.9079420831986 416.2178364304127,459.119660403172 415.3683151076548,456.58780791820027 414.7307808995247,454.2839416555362 414.62962244276423,453.62078794586705 414.5276775539387,452.94990046171006 414.2752620090032,451.2947737482609 414.2752620090032,449.530031570408 414.33674934040755,444.881251184328 414.4241306738695,442.9846949423081 414.51797822583467,440.9365060882992 414.6449724304257,440.0131255411543 414.94273888715543,437.8663429658627 415.21539777424186,436.9108650056296 415.50425133504905,436.26759330462664 415.7348506739363,435.9509191797697 415.83111577597447,435.82026358129224 415.88290377962403,435.74831926974 417.0657848888077,434.544793423207 418.43149687489495,433.44429647980724 418.7888865281129,433.2959023984731 419.07555555552244,433.17688414198346 419.7810724409064,432.8840415874729 421.10070533689577,432.6969043693389 422.2229146739701,432.4478263031924 423.2852386703016,432.03257605212275 424.8629377706675,431.20219301164616 426.1065197796561,430.45487376494566 427.69881156273186,429.08522764290683 428.5030402276898,428.2958102275152 429.30726889241487,427.7144976366544 430.2433559894562,427.3424871463794 430.61152267397847,427.1963215068681 433.3721320107579,426.2828938947059 434.555013120058,425.9916374797467 435.96604689070955,425.97067114990205 438.9693724444369,426.13672762183705 441.33513466326986,426.21975581534207 442.2299777707085,426.15773379727034 443.1555791076971,425.908649068675 443.3481384392362,425.79680201079464 444.2632248888258,425.26534841686953 445.4768351005623,424.2688449015259 446.7204171095509,422.83498879591934 447.7819255468203,421.4442934029503 448.6314759964589,420.509797778388 449.4049755592132,419.9495132424636 450.4753677652916,419.3947282428271 451.08703709882684,419.0769560118788 452.605724671972,418.28862239053706 455.3816839965293,416.9599255009671 456.26441022590734,416.33099130768096 456.91572155745234,415.8659664175357 457.15680665604305,415.6942824803991 458.3704459947767,414.6147078417125 458.8599270969862,414.14413888636045 459.6892633315874,413.34909254073864 460.36568223312497,412.5341524045216 460.5849219983211,412.2695075449883 460.8859215644188,411.7346761111985 460.9013006791938,411.70808797853533 461.5558451201068,410.54653853247873 462.76863977254834,408.1171487318934 463.43535934586544,405.8959005990182 463.7387473351555,404.7121594786877 463.90541266510263,403.5085605503409 463.8147982223891,402.2007516910671 463.2079931164626,400.10346723528346 463.1995753814699,400.0780338983168 462.2370991219068,397.1557338296552 460.8260362241417,392.3807799521601 459.5371615574695,387.6478314968408 458.30814310419373,382.6656227268395 457.95541378855705,380.8527436123113 457.8073315556394,380.0908384103095 457.76847598934546,379.7819055264117 457.6859880107222,379.11520079971524 457.6762595556211,378.6423309079255 457.6689777778229,378.25469731452176 457.6560162133537,377.5991115474026 457.95456910238136,373.8283030752209 458.0047551149037,373.19810170313576 458.02496932982467,372.6233559969696 458.06542688712943,371.49487140384736 457.98937599989586,370.4571633253363 457.7919524408644,368.35960646759486 457.64133614930324,366.85561071819393 457.44242710759863,364.87101429881295 457.33646267734,363.0856731070671 457.27494621882215,360.59488924237667 457.205361550441,359.82406958250795 457.1996817635372,359.7642634761287 456.92626557149924,358.0398876516847 456.790329344105,355.9421843451564 456.9424311183393,354.59205641929293 457.56379977962933,350.8341703891638 458.0209206615109,349.64689302275656 459.4594795519952,345.91321360727306 459.6059597940184,345.5754092981224 461.58334111294243,341.0132509719697 463.8738388766069,336.4642458210583 464.9806690987898,334.3254057879676 465.1686554738553,333.62871066172374 465.1934717724798,333.53679875365924 465.23879355739336,332.7891010752646 465.2339293297846,332.74479978653835 465.11742088536266,331.70916016818956 464.7379528817255,330.815273483051 464.0243677868275,329.902602114249 462.34064600185957,328.55348671163665 459.95950466860086,327.224262011121 457.6988913208479,326.331475452811 456.8955073422985,326.0822092141607 456.12119222059846,326.0822092141607 455.2263491130434,326.24837344285334 454.43749956274405,326.70475625398103 452.8459942116169,328.00515348877525 452.63240510597825,328.1801688589039 452.07252377609257,328.4504475320573 451.7942142294487,328.5091447790037 451.38963865605183,328.5955158381839 449.766617770656,328.63650818611495 449.01822577789426,328.48478063824587 447.7908384426264,328.23551659617806 447.7180206649937,328.2211612763931 446.5780146631878,327.687262411695 445.45825200364925,327.16333139606286 444.9517606685404,326.82550116610946 443.3481384392362,325.75789555261144 443.2130177706713,325.6679744992289 443.3481384392362,325.5832373343874 443.817434453289,325.28914929932216 446.03429887990933,323.8967821993865 450.3119355450617,320.7453943293076 460.20225001242943,313.72472899314016 465.49284022056963,309.9739110423834 467.62075044983067,308.46616617630934 470.4565659877844,306.45680890773656 470.8231015538331,306.1942824043217 471.0666624569567,306.0203679119586 478.9144673849223,300.3972919329535 480.9520544427214,298.93722513277316 489.06558600533754,293.09128724824404 491.893333333428,291.05432486202335 492.490468238364,290.6241577109904 494.04952598758973,289.5285162431537 495.8351926614996,288.2722235683468 496.74786156089976,287.62521037930856 498.3207255608868,286.5084973986959 498.92106444807723,286.09196214959957 500.7318095645169,284.83453507971717 505.0490882275626,281.7901292943279 505.5442491164431,281.4411487010075 508.677831111243,279.2885456130025 509.21263399824966,278.92073622893076 509.9343455573544,278.42545700544724 516.1659162170254,274.0092991683632 518.354498218745,272.45833631505957 519.7995233280817,271.4478878522641 525.9340133263031,267.16131271404447 527.938162460574,265.76091628550785 536.4739788800944,259.75240255350946 537.3502388908528,259.1352690879721 540.4385282275034,256.9957519774907 546.2121333192335,252.99591877008788 547.1312975645997,252.3133514628862 550.510042453534,249.80923213565256 553.8952535609715,247.59875050449045 558.4123733333545,244.40979952987982 559.0596651236992,244.10731672210386 559.7012480001431,243.80702747171745 564.7111111111008,240.2856616974459 570.5171055502724,236.20457630761666 572.7615242239553,234.63446498371195 573.7811187484767,233.92085083766142 575.8409006649163,232.4792154522729 577.5852942222264,231.2591701586498 581.34432267386,228.7083207439282 585.5119171129772,225.87819666031282 588.9836939948145,223.49859159020707 589.9076933404431,222.86528960370924 595.8172346595675,218.7317320787115 599.0762671219418,216.40906611684477 599.6191382186953,216.022292076319 600.130464654183,215.65885557088768 602.2187328854343,214.17051560251275 608.0766900907038,210.0579553603311 609.4293240037514,209.10721141967224 609.4382368995575,209.10166596766794 613.256306005409,206.4350070853834 614.6236491093878,205.4800200719037 618.7200568889966,202.61970450280933 619.8366155662807,201.83948930748738 621.5108419130556,200.6758644891088 627.4711226596264,196.5331938425079 628.8692239930388,195.5601344142342 629.5974017706467,195.0547516149818 636.1178259912413,190.5208222620422 636.2885399895022,190.40112711017719 636.4422728818608,190.29471807094524 637.052340224036,189.8702385062934 637.5288888888899,189.53576931532007 641.9287137850188,186.4478425650741 642.4837600141764,186.05878671963 647.4434371130774,182.57760504900943 658.1978073315695,175.18939070758643 661.8014717724873,172.70554833847564 663.8516999965068,171.2924003333319 667.0273706668522,169.10331354360096 667.5872811235022,168.7176217265078 669.4417751610745,167.42631183099002 675.3204999964219,163.33295558020473 675.9904235521099,162.866371496988 681.8458175716223,158.74193372851005 686.0740837833146,155.78538073046366 691.2109410988633,152.19430902198656 691.8161442134297,151.7708805486327 692.2999746561982,151.43169030791614 695.597017998225,156.13374284171732 700.2460253299214,162.88632294273702 703.4189580517123,167.42631183099002 703.9936942080967,168.2487336162012 707.0350888961693,172.62243394728284 710.3466666666791,177.45176008262206 710.5691686684731,177.7763106120401 712.0434082703432,179.8987263745512 715.0741715626791,184.26224319031462 715.4277455644915,184.77207714994438 715.5903330988949,185.00588701479137 721.2337400036631,193.16184095985955 726.0858215537155,200.27689701289637 726.3715876410715,200.6758644891088 726.7120544427307,201.15127328276867 727.109348238213,201.70539705036208 728.7064459946705,203.93404788395856 731.7612391537987,208.3835488181212 733.0714931200491,210.2919005973381 734.61924955016,212.53483519417932 737.3652953316923,216.51434674224583 738.2415262151044,217.7543328696629 741.8711137849605,222.8917786141974 743.9674502258422,225.8704574960866 747.721614449867,231.20156650920399 749.6338966757758,233.92085083766142 751.6194335857872,236.7443396349554 754.1206659983145,240.30113911192166 758.8918615609873,247.13902876264183 761.258439338766,250.53057813545456 761.5634584464133,250.9616136632976 761.8959735466633,251.42914634227054 770.8469386809738,264.05350667989114 771.5456980764866,265.04296570143197 773.0417247574078,267.16131271404447 773.2248177778674,267.4205706422799 774.593792000087,269.36056904454017 775.4797513386002,270.6435624641017 776.6949635413475,272.40405283577275 777.9539246648783,274.2254344691755 778.5712737848517,275.1195282184053 779.1157760000788,275.9072469481034 781.1845873210113,278.9040647430229 783.1644444444682,281.7392778673675 786.6402699947357,286.7179213540512 788.0521193244494,288.7386080219294 788.0804600036936,288.7784903522697 789.361237333389,290.61307050770847 791.7877004515612,294.38631987798726 794.706877781311,298.9249817671953 795.1089775502915,299.62847578601213 795.5478357335087,300.3972919329535 796.0119179948233,301.2104126754566 797.7109897672199,303.95101124123903 798.6519702186342,305.48749728378607 798.9246291058371,305.77885746443644 799.2887471219292,305.8619664365542 799.9036204374861,306.0635175406933 800.0476540019736,306.111173545185 800.4416855610907,306.3604601584957 804.4773924408946,310.83908153628 804.6893795556389,311.0739272412029 805.0534975716146,311.364164158178 805.4782291058218,311.5302985175513 807.4370273280656,312.2303266916424 808.3302684444934,312.5494342323509 809.0762428871822,312.9271625895053 809.1498762239935,312.96480778232217 809.1619931022869,312.9847469711094 809.3925924409414,313.38026038277894 809.660416227649,314.2486888250569 810.302814663155,316.32900444150437 810.8700068977196,318.0570243407856 811.145898894174,318.8977612394374 811.4210044586798,319.737418558856 811.5763393422822,320.21151900698896 811.6677693440579,320.5017051929608 811.5463675449137,320.70998345367843 811.0601195520721,321.2915107306326 809.2712488959078,323.4315415228484 809.0899908836,323.5932812465471 808.5244588941569,324.096165092953 808.0576095575234,324.5115588908666 807.4370273280656,324.79424319800455 807.238030904904,324.8848823485896 805.7517035520868,325.21717244485626 804.5995806721039,325.5284073886578 804.495189105859,325.57159344892716 803.5072848782875,325.98475166829303 802.0809011200909,326.48320433782646 800.4117428907193,327.2109832854476 799.683565112995,327.626331912179 798.9375906703062,327.95088234945433 798.3485822293442,328.207882604911 796.6802104321541,329.18372347176773 796.6041595449205,329.23907098168274 796.1341062257998,329.5791309122578 795.3751702186419,329.99451538932044 794.7076933403732,330.36783047002973 793.707672234741,331.11433929472696 792.9487362275831,331.8210502906004 792.2286557867192,332.35824976622825 791.9478704356588,332.56867118080845 791.2803935575066,333.29419900046196 791.0451338809216,333.62871066172374 790.7973786738003,333.98092634329805 790.4915148802102,334.41620090283686 790.2949068801245,334.7961284480989 789.976139775943,335.41307082766434 789.5206208853051,336.65919238940114 789.2471755663864,337.92628148244694 789.2471755663864,338.7980119957356 789.2107666773954,338.96855373261496 789.0958602239843,339.50466089625843 788.9744875520701,340.41841287200805 789.0351593245286,341.6013489677571 789.2180484551936,343.05454185791314 789.2795066596009,343.2217711287085 789.4000637725694,343.5529597092536 789.4146564551629,343.70687093632296 789.4607646720251,344.17653881997103 789.7641817884287,345.3805097155855 789.8305042204447,346.0306395710213 789.8855253334623,346.56445848656585 789.9063220906537,346.96354597760364 789.946226232918,347.7274284790037 789.9162544356659,348.3510368100251 790.2196715520695,349.43086430133553 790.7649893262424,350.8197765246732 790.9171202275902,351.3602834941121 791.0077346703038,351.98268639453454 791.0684064428788,352.6062439951929 791.0077346703038,353.22872346587246 790.7957475556759,354.14242412685417 790.4623877690174,355.11927783628926 790.2196715520695,355.61767108150525 790.006898005493,356.07395917439135 789.946226232918,357.0707407548907 789.9389444552362,357.1029167964589 789.919516672031,357.19701275532134 789.7949108907487,357.777376690181 789.4607646720251,358.295700006478 789.4559004444163,358.2990491689998 788.9995659948327,358.56371260090964 788.8094242132502,358.6733576566912 788.6718859947287,358.7530994845438 787.4590913421707,359.56379330076743 786.6637464463711,360.05775183514925 785.8206913422327,360.5793795757927 785.3959015539149,360.8286106286105 784.910439993022,361.2439021205064 784.3643357866677,361.57614278024994 783.4540844374569,362.0545876742108 783.1644444444682,362.1507549849921 782.4532768996432,362.38682723167585 781.9071435664082,362.4699169534142 781.178965788451,362.677043079515 780.5721315556439,362.9261922527221 779.2970048853895,363.237419043493 778.2662546774372,363.4035181395593 777.3454884410603,363.4843747879495 777.3260606577387,363.48660751548596 777.1691237831255,363.4811054368038 776.2338231182657,363.4445046490873 774.6560657637892,363.342676285014 774.0193179876078,363.13443435769295 773.2304684374249,363.0934477960691 772.3801315556047,363.07239632995334 771.5006384355947,362.9893466833746 770.4690726684639,363.11338289489504 769.680223118281,363.3216248403769 769.4763333405135,363.3548366831383 769.1640033281874,363.4046345039387 768.3452111075167,363.69484914297936 767.5401960108429,363.86537350638537 767.0708999965573,363.9650486695464 766.0708788908087,364.04809798457427 764.7658095502993,364.1732898892369 762.9146360036684,364.27627413754817 762.3992317725206,364.2352877674275 762.0893775646109,364.2175854809466 761.6402957654791,364.1932248999947 760.6087299983483,364.1932248999947 759.2923302116105,364.2086944672046 758.8918615609873,364.2139971796423 758.7891011128668,364.2153527601622 758.1030120108044,364.2552227730048 758.0908660055138,364.2563391334261 758.0819531093584,364.25745549367275 757.8512955165934,364.2956509598298 757.3327455574181,364.38145119155524 756.6045677796938,364.38145119155524 755.8456317726523,364.54758938017767 755.3909284409601,364.7137274557608 754.9054668800673,365.08694963227026 753.6619139983086,366.3118687052047 753.2377941333689,366.85561071819393 753.1764815645292,366.93423352838727 752.9030071182642,367.3916168391006 752.751691776095,367.97307290835306 752.6910200036364,368.5954733705148 752.5696473316057,369.21898858540226 752.296172885457,369.90449864947004 751.9927557690535,370.48594874038827 751.1432344462955,371.52473315474344 750.2030695538269,372.66434096044395 749.7176079929341,373.4118369111675 748.5962433422683,374.49163341504754 747.8073937919689,375.19817911385326 746.9270559857832,376.34103897050954 746.0168628907995,377.1295876267832 745.4407868871931,377.54485142073827 744.8339526542695,377.7940651731915 744.1665049032308,378.08529928768985 743.5289124409901,378.5415454353788 742.61871934589,379.30903692456195 742.1340442169458,379.84940115577774 741.8006844302872,380.22264008707134 741.4366246684222,380.9701527894358 741.3362817708403,381.3433501420659 741.1631502221571,381.9889590869425 740.7990904606413,383.44191184669035 740.5264024463249,384.14843167254 740.28365710238,384.89593236829387 740.031241557328,385.2658148005139 739.8670229049167,385.5061304414994 739.8588964409428,385.51828973711235 739.75534956099,385.61683980718954 739.2520913352491,386.0997026839759 738.4632417849498,386.55705012986436 737.7949202205054,386.8670907073538 737.0367997726426,387.36430296092294 736.3393802241189,387.9047291157767 735.9586888818303,388.12287660251604 735.0351264427882,388.65225818991894 734.61924955016,388.8373959637829 734.4283213370945,388.9224301268114 733.8522453333717,389.25467302888865 733.214711125358,389.7950950040249 732.2437880035723,390.3553689297987 731.5762819983065,390.7285918184207 730.9387477901764,390.89467223273823 730.2412699875422,391.185930603242 729.5130922099343,391.35201070678886 727.7541642240249,391.62225939059863 727.1773017885862,391.7052993083489 726.6311393281212,391.82928108185297 726.1764359964291,392.07848027016735 725.599573560874,392.4937186666648 725.4927644445561,392.5878408664139 725.4158979982603,392.6565289206919 724.8721822153311,393.13714543374954 724.2952906526625,393.8424811451696 723.9312308907975,394.2168149325298 723.6585428764811,394.88120616215747 723.355154887191,395.66965514142066 723.2030531128403,396.18901431933045 723.1698773334501,396.35070589836687 723.0509513388388,396.9364781935001 723.0509513388388,397.80903473013313 722.9303650987567,398.68055167765124 722.8696933262981,399.6361790758092 722.8535277796909,400.0780338983168 722.7791080108145,402.1066730567254 722.8098079859046,402.9792111373972 722.991881557391,403.9326292356709 723.5072857885389,404.9292156546726 724.0534191217739,406.0719763688976 724.5696097849868,406.7773146198015 725.1456566613633,407.44171157316305 726.2079806578113,408.563412993215 726.9661302330205,409.22780509194126 727.4815053370548,409.8699919344508 727.8763524552342,410.6595087161986 728.3917275591521,412.0281020728289 728.5737720036414,412.6515065028216 728.6066856391262,412.71907278039725 728.8165173475863,413.149782447319 729.0292617672822,413.6890354611096 729.3626215538243,414.85164624266326 729.6967677725479,415.7031716214842 729.9395131164929,416.28451277536806 730.3036020053551,416.78278131457046 730.6976044373587,417.40613375784596 731.8206293334952,419.00500677281525 732.215447324561,419.54313076264225 732.7009088854538,420.0834857785958 733.2163131164853,420.9139065874042 733.8530317654368,422.22157547430834 733.9914146703668,422.63122206158005 734.0351053370396,422.76192456972785 734.1564780089539,422.9412966079544 734.3991942259017,423.3010766595253 734.61924955016,423.81352116318885 734.7026113423053,424.00752114731586 735.1888302081497,425.52220650448 735.4315755519783,426.43567681865534 735.5828617672669,427.140956315503 735.5828617672669,427.6801784669515 735.3102320071775,428.34447875176556 734.8546839893097,428.8836982487119 734.61924955016,429.0679685062496 734.2179362134775,429.38194110861514 733.3991731200367,429.7141290238942 732.4282791253645,430.10941371967783 730.5172202382237,430.73277204163605 729.8497142330743,430.8567340223817 729.2428800000343,431.06491826236015 728.46940956451,431.40483654808486 728.3933586772764,431.4380391415907 728.0292406614171,431.6661125360988 727.6950944426935,432.039232497802 727.2403911111178,432.7456517352257 726.906244892627,433.1608210573904 726.8134167892858,433.2959023984731 726.4215697636828,433.8660811529262 726.0275673316792,434.53040448762476 725.7233637832105,435.1747967959964 725.2985739946598,435.79810234403703 724.9045424355427,436.29633111233125 724.540482673794,436.66948386566946 724.0849637831561,437.1267367085675 723.5995022222633,437.7080269191065 722.326006670366,438.97347626055125 721.8405451092403,439.347701087303 721.4457271181745,440.01200952695217 721.142310001771,440.9253858443699 720.6277504570317,442.56511814903934 720.3542760107666,443.27142725826707 720.1115306667052,443.8936758816708 719.6568273352459,444.8900994074065 718.9278339982266,445.94738004152896 718.594503338798,446.4046553890803 718.109070905135,447.0268561813864 717.6842811164679,447.6911437556846 717.1074186809128,448.64657958602766 717.0642523023998,448.71465404721675 716.7133871217957,449.26873481692746 716.4406991074793,449.62193972751265 716.1979537636507,450.41128828475485 715.8954104606528,451.24160608433885 715.2885762276128,452.65321559790755 714.7416273351992,454.00164620100986 714.2262522311648,455.0401156331063 713.5894753281027,455.84937423543306 713.3766726544127,456.1195117729949 712.7998102186248,456.74164798815036 712.2844351148233,457.0538712933776 711.5263437938411,457.2199066543835 711.519848448108,457.2199066543835 710.8280795591418,457.2608774365508 710.3466666666791,457.2101820707903 710.0392300089588,457.17789963894757 709.3717240035767,456.9708535706741 708.7357626596931,456.72172052337555 707.8732797725825,456.46266333409585 707.7648686649045,456.43058007844957 706.0350677903043,455.82833075587405 705.4581762276357,455.579236399557 704.8513419945957,455.24708362616366 703.911206229357,454.83195180783514 703.7930666666944,454.75889714359073 702.9912555519259,454.26182194729336 702.6061368889641,454.0226898379042 702.0907326579327,453.64960342488484 701.743654001737,453.41270262305625 701.5445993244648,453.27647658693604 701.3755164444447,453.19564963446464 701.0939446615521,453.0606191433617 700.9378233457683,452.9853320395923 699.9968428943539,452.6953031018493 699.147321571596,452.5701565252966 698.297741994611,452.44616569782374 697.508892444428,452.32105884945486 697.4085495467298,452.31444281176664 696.9020582116209,452.2800872394 696.0525368889794,452.00998531555524 695.8211511181435,451.8926102533587 695.3899242383195,451.67340370465536 695.2337446685415,451.59480814501876 694.5969968924765,451.38668124214746 693.9602199894143,451.2626898146118 692.6859380053356,451.2626898146118 692.169718215242,451.38668124214746 691.6842857814627,451.6778675490641 691.2594959930284,452.00998531555524 690.896222663112,452.2391156225349 690.440732899704,452.48825323744677 690.3715560109122,452.5062679775292 689.8039559964091,452.6543315545423 689.287765333429,452.7373108873726 688.8330620017368,452.94436054083053 688.2869286685018,453.19349743711064 687.7707380052889,453.31856398365926 686.6784422117053,453.31856398365926 686.3799184497911,453.30082829180174 686.0740837833146,453.28213606699137 685.9810226630652,453.27647658693604 685.2836031147745,453.38053925626446 684.6468553388258,453.5466169671854 684.1306355484994,453.96179082331946 683.7973340160679,454.41789537790464 683.4024577707751,454.87511502800044 683.03839800891,455.622439342842 682.7657099948265,456.3696816635784 682.6136082205921,456.9088393531274 682.5229937778786,457.61518673604587 682.3409784605028,458.42443681519944 682.1589048889,459.25472740258556 681.9161886720685,460.1681115445681 681.5811977671692,460.84117120708106 681.3999980088556,461.2064750777208 681.1790979981888,461.44344803644344 680.7025493334513,461.9537800409598 680.1264733298449,462.7419728760724 679.4290537814377,463.6763070895104 678.7307895467384,464.42360450408887 678.2154144427041,464.8387200374855 677.7906537814997,465.2948441556655 677.3351348907454,465.8339821648551 676.8909464462195,466.50925801793346 676.7889724302804,466.66428744472796 676.3035399963846,467.4945500518661 675.9394511076389,468.01264077972155 675.6360631183488,468.67687133996515 675.3326168748317,469.7982519880752 674.9984706561081,471.08461727178656 674.7565991253359,471.66582675342215 674.5745255538495,472.28903928020736 674.6052837832831,473.2233370130416 674.453968440881,474.80084304860793 674.3018957937602,477.02146523533156 674.2719239963917,477.68563147226814 674.1505804515909,478.3896871591569 674.0073624462821,478.78042981826 673.9078642347595,479.05388953117654 673.833386211656,479.1761134106782 673.604417991126,479.55203016329324 673.391644444433,480.00920281687286 673.2095999999437,480.590391086007 673.1521322098561,480.82507375231944 672.9668837832287,481.58666507533053 672.6942248960258,482.64494271186413 672.3600786774186,484.13933961774455 672.1788206649944,485.3846235459787 672.148907121853,486.5679741371423 672.1181488925358,487.2741959976265 672.1788206649944,487.93837423762307 672.452295111143,489.2666854559793 672.9377566720359,490.759926113009 673.0283711147495,491.2358866860741 673.3617017742945,491.94213491509436 673.6958479930181,492.8132765243063 674.0898795520188,493.8515412886045 674.4240257707424,495.01381080033025 674.7274720142595,496.1760349397082 674.8795446614968,496.944272982073 675.0616182330996,498.1485277796746 675.0616182330996,498.6875933575793 675.1829617779003,499.3096611253568 675.2949263930786,499.7181425326853 675.3650062223896,499.9738066778518 675.4556206651032,500.5327921285643 675.7291242382489,501.19689451152226 676.2444993423996,501.77803242660593 676.6692600034876,502.5251735619968 677.0940206650412,503.18927053455263 677.3974377814448,504.1024905832601 677.6102113280213,505.1406675716862 677.5487531234976,505.94984007807216 677.3666795520112,506.905048299348 677.0025906632654,507.6930962577462 676.5050122241955,508.13694740313804 676.3051711147418,508.31625682133017 676.2776459947927,508.3328728208435 675.9297517796513,508.54756577673834 675.6991524408804,508.68925983656663 675.0009464605246,508.98037791455863 674.0906951111974,509.35337991704 672.3527968996204,509.97785117616877 672.3009797689738,509.9964593751938 671.6925726720365,510.02745975513244 671.4814011164708,510.0385370105505 671.0566113280365,510.0794989440474 670.2677617778536,510.3284979428281 668.5686900053406,510.86865236464655 668.0233431041706,510.9726905275602 667.3251371234655,511.2637660415494 666.3857586632948,511.55380521313054 665.0807184497826,511.9278791307006 663.5029902223032,512.2178776686778 661.8014717724873,512.5125378262019 661.4705877903616,512.5698759820079 660.7116517832037,512.7358736522729 660.0749040071387,513.0679483464337 659.0732517832657,513.6080170263303 657.9809851164464,514.189125450037 657.6492564480286,514.2942778759752 657.1929219983285,514.438160110265 656.1314135609427,514.7912310553947 655.1297613369534,514.7912310553947 653.9444626775803,514.592003635189 653.1580306775868,514.4591985467705 651.4888724479824,513.9611290155444 649.7897715485888,513.6080170263303 649.3997886579018,513.544981183135 647.9992697743,513.3169443026418 646.816388665,513.2350613588351 644.7848017921206,512.9661025918322 643.0249999930384,512.7170664327568 642.034678215161,512.5687602987746 640.9184108088957,512.4012882183306 640.8097375574289,512.385031108046 639.6260408888338,512.2809536998975 638.6252042241395,512.4879529423197 637.7448955450673,512.6960278463666 637.5288888888899,512.7944469752838 636.7440880072536,513.1520228614681 635.6946673209313,513.7984393641818 635.227847111295,514.0861644861288 634.6817137778271,514.3773159855045 634.104851342272,515.0414206199348 633.4373453368898,515.6224459469668 632.6484957867069,516.1205120948143 632.0117480107583,516.5765007250011 631.647629994899,516.9916074263165 631.2528120036004,517.4487100933329 630.8587804443669,518.2168016242795 630.4032615539618,518.8808958329028 629.7665429048939,519.6279847206315 629.281081344001,520.1670029551024 628.7041606542189,520.7070958033437 628.1588720071595,521.2881873596343 626.459800234763,522.7203506159713 625.7316224569222,523.3423971008742 625.124788224115,523.75741263089 623.7598626703257,524.5874814217095 623.1829711076571,525.0025745263556 622.6368377741892,525.4995059478679 621.8479882241227,525.9145178173785 621.150539548602,526.1425031088293 620.574492672109,526.4336004126817 619.9676584393019,527.014678363339 619.634327779524,527.4285720463959 619.058251776034,528.3836963824579 618.4514175432269,529.337741225143 617.8745551076718,530.3758509405889 617.1463773297146,531.435033068934 616.327614236623,532.2230019922717 615.6900217742659,532.6800761935883 615.6109707946889,532.7281263084733 615.2914463857887,532.9224781691446 614.871258681058,533.1781076058396 613.9011219912209,533.8001274941489 613.256306005409,534.2938536584261 613.1422151111765,534.3811481016455 612.3840946631972,535.2942118468345 611.4730860089185,536.4762053935556 610.9269235485699,537.3892214759835 610.5935928890249,538.3653432963183 610.5329211165663,539.1953625127207 610.2594466703013,540.067451381823 609.5620271218941,541.3534471028252 608.9244346595369,542.1004673507996 608.4098751147976,542.8474853173248 607.837847779505,543.7394815419684 607.772311779554,543.8423901831266 607.6922122240067,543.9309162808931 606.619344213279,545.1084457935067 605.5578357760096,546.0623855622835 604.7083144534845,546.7684754866641 603.9493784463266,547.4324921775842 603.4340033421759,547.7434443550301 602.7365837938851,548.0754316824605 602.6370273281354,548.1075427572941 602.4436815646477,548.169533852546 602.2203640037915,548.241445097141 601.0075402240036,548.2835161534022 600.0366171022179,548.0754316824605 599.0964813369792,547.6205774559639 598.1862591147656,547.1225754498737 596.5778017849661,546.1044569932274 596.2136837689904,545.8144986313418 595.8131859912537,545.7038219358656 595.7589804375311,545.6894395395066 595.2120606721146,545.7735825225827 594.8787008853396,545.9395974995568 594.7217348837294,546.0679233740666 594.5753128959332,546.1885599932866 594.2111948801903,546.2715872752597 593.7557051165495,546.1885599932866 592.8762411237694,545.856570104952 591.8446171022952,545.6075674329768 590.6954069333151,545.5567310161423 590.4190197759308,545.5444601553609 588.9836939948145,545.4017515929881 588.7506771058543,545.3784847506904 587.8712131129578,545.3375287286472 586.9909335609991,545.4615123075782 586.6923806720879,545.5168108759099 586.323427555617,545.5865316755371 585.8080524515826,545.6274876560201 585.1097882168833,545.3375287286472 583.7440762311453,544.6104386728257 582.887214876595,544.1943031449919 582.8039113385603,544.1544624637463 582.7302780019818,544.116852854786 581.9842744320631,543.7394815419684 581.4082275556866,543.491552416177 581.0133804375073,542.9935420033871 580.6493206756422,542.5364870746853 579.9097833244596,542.172420220566 579.8912002275465,542.1635356758488 579.8758211130043,542.1635356758488 579.1848677831003,542.145846267289 579.0731944392901,542.1436151705566 578.3142584321322,542.1845717275864 577.55616711115,542.3926612100331 576.8279893334256,542.6825837875367 576.1904551255284,543.0145779837039 575.5536782222334,543.4296398169245 574.8861722169677,544.010597709741 574.522112455219,544.4676498840563 574.0366508943262,545.1316728208913 573.702475548489,545.9196773018339 573.6418037761468,546.2107112287777 573.5406744463835,546.6932172263623 573.4897020019125,546.9356053149095 573.369144888944,547.6205774559639 573.2178586738883,548.1185784483096 573.1272151040612,548.7405603436637 573.2178586738883,549.4664827678353 573.1871004445711,551.6654317092616 573.096456874744,552.2685605678125 573.096456874744,552.9325224889326 573.1264286719961,553.8455568256322 572.8837124551646,555.2974488980835 572.519594439189,556.1274106604396 572.2768782222411,556.8533908405225 571.9435475628125,557.8084002837422 571.397385102231,558.5553702805773 570.9418953385903,559.0942628986668 570.5171055502724,559.4262348209741 570.4805510258302,559.4488230776624 569.9111160036409,559.800315206463 569.2743682275759,560.3392449200037 568.6974766649073,560.8150701082777 568.0299706595251,561.4790088318987 567.4231655538315,562.0190503047779 566.7257460054243,562.3089894587174 566.0582400001585,562.683025598235 564.7111111111008,563.1437079430907 564.6018844445935,563.1809959262027 563.941689344123,563.3536121239886 563.8130348942941,563.3879520961782 562.8736855610041,563.5749494938063 562.3882240001112,563.7829809428076 562.0540777813876,564.072918006219 561.8421197937569,564.5708855047706 561.660046222154,565.2348538717488 561.5378871182911,565.7328190051485 561.4613410701277,566.1223067071987 561.3259000036633,566.8117267042398 561.0532119893469,568.2226294667926 561.0427262292942,568.2801537482883 560.9011393423425,569.0315136359422 560.7498240000568,569.7374974260456 560.6891522275982,570.442363759561 560.6891522275982,572.5171941842418 560.8404675698839,573.6171053109574 561.1130973298568,574.4470049207448 561.507915321039,575.2758261532872 561.8720333370147,575.8987747249193 562.0233195520705,576.6457293200656 562.0540777813876,577.3506155842333 561.9327051093569,578.2225286010071 561.7215335537912,578.9063375948463 561.1754002204398,579.9852270310512 560.5378368855454,580.7531620498048 560.0831626809668,581.3960139846313 559.4455702186096,582.4339426297229 558.565290666651,583.4508343696943 558.5288817778928,583.475173116487 558.0798291057581,583.7828130751732 557.3217377848923,584.2807404550258 556.684145322768,584.9025507437182 556.1089140054537,585.6494778485503 555.8193322666921,586.1163708610693 555.6841242170194,586.3344212640659 555.4106497707544,587.081264330016 555.1986626561265,588.0151236662059 554.8645164374029,589.3009071833221 554.6218002203386,589.880640816933 554.4704848782858,590.378555785981 554.1687280072365,590.8544022165006 553.9065840071999,591.1133170964895 552.346681571682,592.5572206071229 550.8611989049241,593.8020323442761 550.2543646720005,594.631863484683 548.9428291128716,596.1919766477076 548.8586808890104,596.2915571537451 548.6806851129513,596.3844856453361 548.1086577778915,596.682111507107 547.5843697778182,596.9553996032337 545.7639544605045,597.4953229360981 544.5203433246352,597.8272427528864 543.852837319253,598.4911208675476 543.175195079064,599.3176699041505 542.7306571092922,599.8597787626786 541.6076322133886,601.1455000325805 540.4385282275034,601.9615644779988 540.1205475556199,602.1833050643327 538.7564375610091,603.0131077781552 538.0889315556269,604.132837099547 537.1269504568772,606.4076100671664 537.012014876469,606.67865679221 536.9659357867204,606.7882304821978 536.9100991146406,606.8866914223763 536.4537646648241,607.6821842645295 536.2037666701945,608.1192023637705 535.8736399929039,608.6956253346289 535.6155446614139,609.0972724890453 533.9326675627381,611.7249303672579 533.350125340512,612.8268558629206 531.2327299983008,616.8285729079507 527.8944426665548,616.4546195397852 527.5319557690527,616.413715243747 526.1055720107397,616.3716559020104 524.6799455573782,616.7456093970686 523.0714591004653,617.5754025538918 522.6507762346882,617.796651046141 522.4201768961502,617.9172523003654 521.493759999983,618.4051530681318 521.3295122204581,618.6828378707287 520.9792004552437,619.275804592995 520.6150824391516,620.8523689853027 520.4993895537918,621.3701349862968 520.4023088925751,621.8071286386112 520.3950271146605,622.7143300671014 520.5544106665766,623.4666379814735 520.9711031182669,625.5443244667258 521.0932913493598,626.0996775534004 521.2445484374184,627.2403299690341 521.4120584534248,628.754792728636 521.4346902186517,629.2106511140009 521.0706013299059,631.1599279930815 520.9257813334698,632.0527174266754 520.8880034702597,632.5084900156362 520.7898451058427,633.6911291031865 520.6531224462669,634.3338419643696 520.5544106665766,634.6248105604318 520.2437117726076,635.059590118879 519.5163495537126,635.7764549751882 518.4548411164433,636.5939571292256 516.1934413370909,638.1195131085697 516.1659162170254,638.1356822146918 514.7831939982716,638.9492337873671 513.4481819876237,640.0797903914354 512.9401177885011,640.5875594644458 512.3713235626929,641.0333997544949 511.73457578674424,641.4902707124711 510.16412933706306,642.2679688959033 508.1462613334879,643.6673653987236 507.45690999459475,644.1441436425666 506.1008973370772,644.8852747014025 505.4552366649732,645.0368458818411 504.0668346597813,645.2757913249661 502.4365611235844,645.6796085932292 502.0535104854498,645.8541179798194 501.48020155727863,646.1154437612859 500.1306259910343,646.7470927491668 499.7819453441771,646.8300460888422 499.3644664605381,646.8200900965603 498.018939562724,646.9395619767602 495.1588320143055,647.6818394606817 494.21138534415513,648.0336030941107 493.6385424498003,648.1995486969827 493.1571295573376,648.297992975451 492.44837956270203,648.401972710446 491.893333333428,648.2026151252212 491.81081622757483,648.1729862572975 490.9725962241646,647.5557173601701 490.12304577429313,646.254828017205 489.3301475555636,644.9594275082345 488.53401622758247,643.8553767098347 488.31396090320777,643.6938885028358 488.02184510580264,643.5755301241879 487.5331795626553,643.4815044669667 485.2725662152516,643.440564864024 484.29357488360256,643.4394497775356 483.6414479929954,643.4394497775356 483.24744556087535,643.492535856727 482.8113544534426,643.664020142227 481.3331535644829,644.3321944117779 480.0086855679983,644.8200425147079 479.27724555390887,645.0424212780781 478.63240044086706,645.1353312568972 478.08629623474553,645.1353312568972 477.6275151076261,645.0379609611118 477.3467880106764,644.8720132144517 476.8799095466966,644.493682197528 476.14447911828756,643.4250731253414 475.63635666505434,642.215917993628 475.14687556261197,641.0599629690987 474.8143313352484,640.1841320436797 474.3126751006348,638.8629324540962 473.8612340053078,637.5973220943706 473.2916242205538,636.3892931105802 472.64436155743897,635.2376914059278 472.37088711117394,634.895826030348 471.95422378682997,634.6679420652799 471.37733222416136,634.4245655795676 470.8198975715786,634.3105835780152 469.1256317725638,634.0650163045502 467.6879175680224,633.9200892817462 467.62075044983067,633.9078228521394"/></g></g></svg>