<svg width="1200" height="800" version="1.1" xmlns:xlink="http://www.w3.org/1999/xlink" xmlns="http://www.w3.org/2000/svg"><g class="geojson-features"><g class="geojson-feature" stroke="#555555" stroke-opacity="0.0" stroke-width="0.0" fill="#111" fill-opacity="1.0" data-properties="{&amp;quot;N03_002&amp;quot;:&amp;quot;空知総合振興局&amp;quot;,&amp;quot;fill-opacity&amp;quot;:1,&amp;quot;description&amp;quot;:&amp;quot;雨竜郡妹背牛町&amp;quot;,&amp;quot;N03_001&amp;quot;:&amp;quot;北海道&amp;quot;,&amp;quot;stroke-opacity&amp;quot;:0,&amp;quot;N03_007&amp;quot;:&amp;quot;01433&amp;quot;,&amp;quot;fill&amp;quot;:&amp;quot;#111&amp;quot;,&amp;quot;N03_004&amp;quot;:&amp;quot;妹背牛町&amp;quot;,&amp;quot;title&amp;quot;:&amp;quot;雨竜郡妹背牛町&amp;quot;,&amp;quot;stroke-width&amp;quot;:0,&amp;quot;N03_003&amp;quot;:&amp;quot;雨竜郡&amp;quot;}"><title>
      雨竜郡妹背牛町
    </title><desc>
      雨竜郡妹背牛町
    </desc><polygon points="417.11032223305665,748.6170792991761 414.9047591255512,748.0622582254 413.6748959859833,747.7536034978693 414.176523093367,747.0781538520241 421.00683064898476,737.8981294746045 423.5037231221795,733.6433706353419 424.1428884479683,732.5542281687958 426.80155289615504,727.4831807464361 427.9132182188332,724.7920541617787 429.46021734410897,721.0451641178224 430.0735177954193,717.7568672969937 430.21099776029587,714.5356305909809 429.96813590754755,710.7036999819102 429.6640488677658,705.9031740969513 429.1867137707304,700.1494059946854 428.4973915591836,696.684194580419 428.0717862115707,694.545685766614 427.96017112210393,693.9819438240957 427.1267862187233,691.3958095046692 426.78209598595276,690.6307260096073 425.7836768713314,688.4003799075726 424.3710119824391,685.2461146531859 423.5037231221795,683.2959298898932 422.2428104819264,680.4610406295396 421.54247822239995,678.8837235964602 420.98912136559375,677.6397455523256 419.8223475483246,674.0021826849552 417.13781822589226,664.3643530491972 414.9030697531998,653.6502197209047 413.13284044805914,645.1598002820974 412.76875155908056,643.5892142017838 410.64567643008195,634.4317902963376 407.8850670934189,629.397730779252 406.8445884301327,627.8965238092933 404.9692102544941,625.1847867491888 402.2813604408875,623.1174062500941 400.05319469515234,622.2313948356314 397.77318269154057,621.3230703569716 391.90243868436664,619.958204303286 388.36349468445405,619.1370275025256 384.44426712207496,617.801313400385 382.29369600024074,617.0675269006751 376.18993510422297,615.1924597183242 374.95849910052493,614.740747786127 368.7479582151864,612.4628502262058 364.6054422187153,610.9413729934022 353.7135337817017,606.2203248693841 349.6713315558154,604.1528632456902 343.14039244828746,600.5258631890174 338.43636400368996,597.1696475860663 337.46380976377986,596.2365468784701 335.01555956620723,593.8916239830432 331.1659457993228,589.4792458633892 329.727357781725,587.2170175039209 329.58981956285425,587.0224028617376 327.87941734399647,584.5990573518211 326.41333333333023,582.5211924222531 324.6333755736705,579.9985823095776 322.8926811590791,576.465407721349 322.84526222222485,576.3691454499494 321.9908475452103,572.7799587375484 321.52324090339243,567.5909123432357 321.615457336884,566.6242432962172 321.98601244436577,562.7486060020747 323.0734440109227,558.2598169451812 324.5928888891358,554.8674595743651 325.6430960074067,552.5245110032847 326.41333333333023,551.3805834233062 327.1075488999486,550.3494351150002 328.465163548477,548.3309559321497 329.53156534046866,546.7488574181916 332.9135724657681,543.3922683082055 338.7826271005906,540.7383020201232 342.9575324442703,539.3329281621845 350.4448311184533,536.8154095999198 352.93519911845215,535.9784626838518 356.7411222187802,534.6537167148199 374.95849910052493,528.3081138243433 388.5171693225857,523.5852915914729 394.672718222253,521.4415051494725 398.17927287495695,520.2195990164764 400.4511875414755,519.4274167753756 409.59226532978937,515.8356318608858 415.8109035519883,513.689394096029 420.94374132622033,511.5812540493207 423.25777379539795,510.460110054235 423.35319421160966,510.41305997630116 423.5037231221795,510.27617967210244 424.5409395482857,509.33219596510753 424.59762090677395,509.2807952463627 425.37589731556363,508.5354842055822 426.8145435876213,506.38268817798235 427.5912471327465,505.218832104234 430.427878229646,499.3643824510509 430.6366613621358,498.5206835862482 431.7498995484784,494.0156676530605 431.9133026422933,492.57881687395275 432.5670897779055,486.83604403724894 433.9279666629154,468.1794972587377 434.2225000106264,465.8249287046492 434.7014079717919,461.97756977169774 434.93611423322,460.0974691337906 434.78075022250414,452.64225904038176 434.3535720107611,447.8009761166759 433.23637253721245,442.1897360419389 433.02339510060847,441.1199195650406 432.7596199824475,439.7992646404309 431.2822929068934,435.7793428765144 429.7272546987515,432.0324675209122 425.25618488900363,424.4177603209391 424.24483333691023,423.00761618616525 423.5037231221795,421.9742599510355 421.05704578827135,418.5622508751694 395.41866353782825,379.926857186947 392.17570924106985,375.03794338251464 387.55923689273186,368.0781709831208 384.5850675769616,363.5965989152901 374.95849910052493,348.39714356930926 374.0037706529256,346.8895829700632 371.5150337710511,342.6293650378939 366.5391328711994,329.12304671434686 364.26238310406916,322.7985194916837 362.84325199667364,318.8560449545039 362.5907781976275,318.15299542516004 358.8904117476195,307.8767333733849 356.7411222187802,301.9078575967578 356.07929600030184,298.97940937860403 356.10032577463426,297.97415919497143 356.1570071326569,295.35011750576086 357.0517919859849,291.5999764150474 358.6457440145314,286.6764766088454 360.97911688569,281.9545961500844 361.0745955554303,281.77767183608375 367.8595813261345,269.3265511125792 374.1575617992785,257.78186231059954 374.95849910052493,256.36720120790415 376.9213168642018,252.90057882270776 383.68696223315783,240.7062631828012 385.0462662545033,238.25659352447838 388.5835208820645,231.37997573800385 390.2162702223286,227.63151437498163 391.5431266420055,223.63231738377362 391.84901956282556,222.71187666908372 393.4041160249617,216.775644878624 395.1759764479939,209.90992670389824 395.5400653369725,208.49689889024012 396.00773023301736,205.33280763425864 395.8523662223015,202.32751039229333 395.7747133441735,200.86971803708002 395.69542934768833,199.39628156402614 394.0626800074242,190.64698975614738 393.6371329140384,188.2642217176035 392.66294755553827,182.7978223367827 391.4428711256478,177.8016218667617 390.4002953101881,173.52644820325077 390.13698622584343,172.44692619994748 388.9508720075246,167.15054182708263 384.0704497778788,145.37754613440484 383.5655604340136,143.35511632077396 380.9975395554211,133.07513359421864 378.1107515732292,122.97191454272252 376.2287906704005,116.38037838076707 374.95849910052493,111.93517296714708 374.11218176037073,108.97348073718604 373.4180244479794,106.33720377995633 372.53285154141486,102.97529479349032 372.12833422236145,101.43656896136235 370.883965781657,97.99834605655633 369.0569968642667,93.30808349815197 367.11363601102494,89.16666158172302 364.08115421864204,85.0295584895648 363.031005354831,84.0014458586229 360.94515467388555,81.95416470314376 360.89173555211164,81.90263784106355 358.0551044549793,80.02791106840596 356.51783378538676,79.21025084715802 350.8089200074319,76.17288097087294 357.54858399298973,69.56054605357349 367.5810678899288,68.83753818355035 374.95849910052493,68.3075790166622 386.36176310060546,67.48868935497012 405.10511735477485,66.20063882658724 410.24115911126137,65.9452539558988 412.04377776384354,65.85340568539687 413.07959608896635,65.80147390731145 418.4388097708579,65.5331058728043 423.5037231221795,65.20458061806858 432.2790809031576,64.63494277826976 440.403913785005,64.16674899938516 456.7572138097603,62.988440497312695 458.39147776016034,62.88772127556149 459.41582000395283,62.822806153213605 472.0488888891414,62.03608256368898 477.5472719077952,61.693604192114435 484.4505137496162,61.263711642008275 491.0235706595704,60.85599477519281 491.80190532281995,60.80680422775913 515.0696902545169,59.3618901479058 520.5940546558704,59.05352082767058 542.0286957228091,57.85616862971801 546.5107173265424,57.6057790722698 551.9380884482525,57.31006924062967 569.139278677525,56.37527983856853 578.2366657992825,55.88095034251455 592.3567902152427,54.98720455483999 606.513090503402,54.09047338122036 610.5321075485554,53.835727234138176 617.6844444444869,53.449616008321755 642.4359644162469,52.11322364222724 653.2745119857136,51.48825007933192 666.2296102116816,50.739651648676954 671.0041845189407,50.463614252745174 673.1991453582887,50.33684505370911 674.7670577494428,50.24717114761006 685.9066631398164,49.68493472901173 686.3063453582581,49.66485484491568 686.7286302149296,49.64461367565673 703.8910231327172,48.77779085433576 714.7748342328705,48.177408891846426 715.6291906563565,48.130394396488555 721.2119257887825,60.45505134924315 721.5112942364067,61.11815611505881 721.8672275345307,61.902058798470534 722.461129329633,63.21479659003671 732.1718169033993,87.2358404857805 733.6572413158137,90.91153018188197 733.9566097636707,91.6395043664379 739.9890092373826,106.33720377995633 740.7068760176189,108.08604193478823 750.8681600000709,132.84227937168907 756.1839160323143,145.79414111329243 762.9008608711883,162.15643688756973 763.320000000298,163.18123878643382 767.5507128888275,173.52644820325077 767.7796519822441,174.0862830100814 767.8379062043969,174.22737030871212 767.977075541392,174.55880436615553 768.2295493404381,175.1545143875992 775.859221333405,193.25805661769118 786.1103333262727,217.57509521394968 790.4756717225537,227.93655154434964 791.4179337674286,230.17305496777408 791.8710351076443,231.24567652819678 795.9019360146485,240.7062631828012 799.3145848605782,248.71570709324442 803.2306666951627,257.9072873344412 806.9151879968122,266.5591171209235 807.4605057707522,267.8353484449908 783.8840317158028,278.06023116549477 772.7005026419647,282.9105505490443 775.4223146666773,289.309512257576 783.320888149552,307.8767333733849 787.6896635449957,318.14622525381856 795.4099791077897,336.29155543318484 795.5734404551331,336.6788912412012 795.699677354889,336.9720927964663 795.9552968819626,337.5742918049218 795.0604537741747,337.9683964778669 771.224748430308,348.47233611380216 763.320000000298,351.80723054136615 759.290788465878,353.5070668552071 759.1742800215725,353.66373646678403 763.320000000298,363.1382851107046 766.3670453475788,370.10183576273266 768.499790677568,375.03794338251464 782.6749653334264,407.8426660024561 786.5132777816616,416.72686479461845 789.2981208749115,423.1710319573758 789.3790359895211,423.3612807218451 789.4389213297982,423.49786333402153 790.644492458785,426.28454308467917 797.5163352747913,442.1897360419389 798.6787400250323,444.8801000795793 806.9815978098195,464.08810173068196 810.821424867725,472.97231368604116 811.8651657674927,475.38703398325015 814.6856604444329,481.91235840227455 815.0157288678456,482.677772399853 849.4650622296613,468.23533382383175 857.3482565972954,486.7116452731425 860.4103897884488,493.8874034755863 867.0003404233139,509.33219596510753 873.6146413227543,524.8319219943369 874.8266786702443,527.7656880776631 878.3186697673518,536.2246568641858 878.241016888991,536.4596529590199 872.4479840144049,536.2649373136228 869.7213951433077,536.4238033737056 866.5739777707495,536.9698446362745 863.3473346561659,537.9455152348382 862.9225448674988,538.3289030516753 861.8311520144343,539.3127880659886 860.4103897884488,540.9555726954713 858.7598146561068,542.8641991377808 855.9992053192109,546.4155035496224 854.1706635376904,549.3424522214336 853.3163071149029,550.6291343111079 852.8890706489328,552.580498938798 852.500689749606,555.7401413727785 852.500689749606,559.4860575265484 853.2402853548992,571.0033191733528 853.3955911113881,573.0709226178005 853.2224595625885,573.6325500771636 852.8502733369824,574.8341019848594 852.3842395590618,576.346831933246 852.3217910330277,576.465407721349 850.9457097954582,579.078900925233 847.9132280040067,583.0193330589682 846.6300039966591,584.4244993199827 831.8269653334282,595.0796734895557 829.1699320038315,596.9928386727115 827.8089968641289,598.5546350763179 826.098652899731,600.1543655998539 823.0839968996588,602.7342219769489 820.8509377993178,604.6428460869938 816.8475328856148,608.113228173228 815.059477788629,608.9701873625163 811.8651657674927,610.3180081549799 807.4718653440941,612.1719100616174 802.8584222150967,613.5949537677225 799.2320968820713,614.7091730419779 795.6931528821588,616.2306384134572 790.8338186808396,618.9624819447054 783.3902106739115,624.2539954235544 781.2267071148381,625.793392499676 777.2621577673126,628.5877658424433 774.3058142438531,630.6708292480325 768.048320455011,634.7674192481209 764.9770413511433,636.3671104559908 763.320000000298,636.9430012163939 761.944559559226,637.4208692106185 759.2616031004582,638.201742995996 755.6077817745972,639.0585682932287 751.913532017963,639.6068293686258 750.94103603228,639.9177278365241 745.4553524339572,641.9090036171256 742.1899120074231,643.1574229497928 741.5910003483295,643.5892142017838 740.9455435660202,644.0545109279919 737.8742644621525,646.7169306639116 732.3546769069508,651.7888254539575 731.6378004481085,652.5339155948022 729.587543096859,654.6660059104906 727.4628951039631,656.8741173351882 724.923943082802,659.5141567798564 724.5615435664076,660.0174531844677 723.7087017530575,661.2075952775776 723.2151719823014,661.8921853956999 718.9771773156244,666.7693384170998 714.7748342328705,671.1111036413349 712.2666404410265,673.7024203828769 710.7876239928883,674.9104887081776 706.2260271217674,678.6398571181344 702.2614777744748,681.6442867707228 697.2467795631383,684.8433536208468 693.942483569961,687.0670316669857 693.0475822081789,687.4943542324472 688.0280488962308,690.6553697702475 686.79818575643,691.3823601526674 685.6946177708451,692.0669075355399 684.6266431147233,692.4964001225308 683.7787529104389,692.6977372246329 683.0052533475682,692.8835310279392 680.785126684932,692.8410086556105 679.4631053654011,692.4964001225308 679.0520635733847,692.2816941442434 678.3950724552851,691.9394207259174 677.4257804516237,691.3846151337493 674.0712693191599,689.4092475654325 673.0663839858025,688.8277012944454 669.0193466597702,686.4831470380304 666.2296102116816,684.5419873184292 665.3542240143288,683.9328112466028 659.9559800035786,681.217039570096 656.1063079822343,678.7516426922521 650.1983977814671,674.9663819294656 647.8811613298021,673.798582731979 642.2224044376053,670.9462414657464 635.8177022296004,669.4920370574109 633.6315377778374,668.9976097830804 633.29331376357,668.8835668673273 631.793325795792,668.3735144288512 626.166899996344,666.4628868763102 617.6844444444869,664.117338201846 615.4384529069066,663.4963775941869 610.9625479963142,662.793829371687 605.2099435522687,663.458362859441 599.8052333230153,664.5902664199239 592.8083186917938,667.0467151501216 591.4878702366259,667.6396436257055 578.5360342469066,673.4474370424869 573.4824222151656,675.4854476322653 571.1879049104173,676.3467974798987 569.139278677525,677.0871785952477 566.4466520177666,678.0626469027484 561.2425693301484,680.1073225983419 560.6924164553639,680.3243695537094 554.2779275379144,682.8232615826419 550.4865679929499,684.3176939968253 548.8360511148348,684.9685872911941 539.9279902153648,688.4786604460096 532.3856995557435,691.3913800774608 530.395385799231,692.56356618891 529.0587426703423,693.1004111776128 528.0311964445282,693.4248050699243 527.1865684767254,693.6910527247237 522.8579302402213,694.0668272959301 520.5940546558704,693.9154222314246 518.1733004518319,693.753708684817 514.8382462298032,693.529983380693 508.85099377762526,693.4225500983885 506.124346652301,693.9057580770459 503.45117690297775,694.9818605097244 500.77794889942743,697.0757515073055 499.6549240036402,698.2591180468444 499.06748842680827,699.3329558442347 498.98657331219874,699.5253508599708 496.91860667732544,704.4177475637989 496.5027297849301,705.4042742333841 495.4330657564569,707.5003749916796 495.3457426773384,707.650165154133 494.6855475769844,708.7888910021866 494.0430617602542,709.7015609211521 492.7115450028796,710.7036999819102 489.3827239824459,713.2091190757928 481.2028991149273,719.2243750925409 478.36953025427647,722.1793487375835 477.46169645525515,723.255388231948 476.92604888183996,724.2753767588874 476.0167004731484,726.2640502380673 475.0635448889807,729.2928257010644 474.832159118494,730.0264418530278 474.66549378843047,730.5566419003299 474.03926089941524,732.5474638012238 472.9161777496338,735.3413005953189 472.0488888891414,737.0020209143404 471.2608257709071,738.5110223221127 468.9614151113201,742.2711444073357 466.39496709709056,745.8165550444974 463.828519082861,748.0735318094958 463.06317511131056,748.511912973132 461.95797600760125,749.1472589579644 459.5534164768178,749.8450917478185 458.94495112542063,749.8070032773539 456.9335493405815,749.684041112545 454.5273004374467,748.6103956816951 453.97225420805626,748.2233094010735 449.46564932283945,745.0895659938687 448.9672844517045,744.7429010247579 448.06271288893186,744.3537179654231 447.84431780991144,744.2597438590601 446.2406955806073,744.1524023765232 444.47844710433856,744.4207963013323 441.7955488997977,745.06500553363 439.65627909707837,746.1386588381138 433.7208729032427,749.3619396812283 431.2094168749172,750.1671928571304 428.9116955876816,750.6525182988262 427.8420315589756,750.7598583380459 424.86780398967676,750.3729348287452 423.5037231221795,750.1942493405659 423.29662936204113,750.1671928571304 417.11032223305665,748.6170792991761"/></g></g></svg>