<svg width="1200" height="800" version="1.1" xmlns:xlink="http://www.w3.org/1999/xlink" xmlns="http://www.w3.org/2000/svg"><g class="geojson-features"><g class="geojson-feature" stroke="#555555" stroke-opacity="0.0" stroke-width="0.0" fill="#111" fill-opacity="1.0" data-properties="{&amp;quot;N03_002&amp;quot;:&amp;quot;空知総合振興局&amp;quot;,&amp;quot;fill-opacity&amp;quot;:1,&amp;quot;description&amp;quot;:&amp;quot;樺戸郡月形町&amp;quot;,&amp;quot;N03_001&amp;quot;:&amp;quot;北海道&amp;quot;,&amp;quot;stroke-opacity&amp;quot;:0,&amp;quot;N03_007&amp;quot;:&amp;quot;01430&amp;quot;,&amp;quot;fill&amp;quot;:&amp;quot;#111&amp;quot;,&amp;quot;N03_004&amp;quot;:&amp;quot;月形町&amp;quot;,&amp;quot;title&amp;quot;:&amp;quot;樺戸郡月形町&amp;quot;,&amp;quot;stroke-width&amp;quot;:0,&amp;quot;N03_003&amp;quot;:&amp;quot;樺戸郡&amp;quot;}"><title>
      樺戸郡月形町
    </title><desc>
      樺戸郡月形町
    </desc><polygon points="398.62546267034486,654.2151443391922 393.6795335680945,654.7766511279624 393.6075313494075,654.2173058305634 393.50596511305775,653.4334837433998 393.4367882240331,652.8997531739878 392.7992248890223,651.6077713063569 390.9787804444786,647.7305836773012 386.3677839929005,638.6416606528219 381.60389933525585,629.1777012777166 380.9323446615599,627.9110937780351 379.57068134413566,625.3412694114377 379.28261421527714,624.6318147212733 379.17664978513494,624.0691174411331 379.17664978513494,623.6943321473664 379.1200266808737,622.9604126382037 379.077122446266,622.4021951713949 379.03989799821284,621.9229213790386 378.7065673387842,621.2968455462833 378.4637637404958,620.0747139761806 378.38780023460276,619.6921560686314 378.3821204480482,619.5264982196968 378.3125357796671,617.5859950733138 378.3125357796671,617.0310480401968 378.3117202206049,615.449710278248 378.3117202206049,613.0832891747123 378.3561973191099,612.5617206221214 379.43390043033287,611.1849312060513 380.45014533703215,609.9761204888346 382.361204224173,608.0155235458515 383.53033733705524,606.5153191172285 384.92602112004533,605.1384954782552 386.74483444623183,603.0956255497877 387.7003493262455,602.1357998539461 388.4738488889998,601.3851601926144 388.8686668800656,600.7178740599193 389.2626984391827,599.5934885816532 389.9293888853863,597.5639043844421 390.32502243551426,596.3605511006899 391.32457750756294,593.0800459283055 391.46261088724714,592.6281402217573 391.5686335716164,591.3146981645841 391.1899811271578,589.5641117055202 390.735248668585,588.0004525477416 390.27972977794707,586.7914865680505 390.2730887965299,586.7114091257681 390.1891153352335,585.7070756069734 390.21905800537206,584.5592779524741 390.4310451199999,583.0989681712235 390.5523886649171,582.5151140718372 390.64300310751423,581.9734602154931 390.3849077761406,581.3472815495334 390.55160223296843,580.5353169282316 390.6130604373757,579.8469126287964 390.3703442204278,579.28411173739 390.5523886649171,577.7826089636073 390.38569420808926,576.990732687409 389.71824645705055,575.6348833238008 389.3841002382105,574.9464251130703 389.4220819910988,574.6861606547027 390.1275988764828,574.0499129828531 390.2036788907135,573.7162526670145 390.16563888359815,573.3514400540153 389.78861755738035,572.8142103421851 389.5208228979027,572.4338203972438 389.0046031076927,571.9444778891047 388.4123615573626,571.6730387227726 388.16559667198453,571.5117927431711 387.7756137815304,571.2559691905044 388.1558682169998,570.9178604541812 388.50379155913834,570.6097422420862 388.7012151181698,569.9635536182323 388.8225586632034,568.7745188192348 388.9738448782591,567.8146377574885 389.0046031076927,567.1060963906348 389.06527488003485,566.480960580986 388.8071795485448,565.5422127562342 388.4584697743412,564.9583165084478 388.4261095537804,564.9082235749811 388.1243235555012,564.4377659354359 388.13970267027617,562.916150179517 388.03370911302045,562.3110249730526 387.7149420089554,561.6847956809797 387.3055313352961,561.1631168989697 387.1954891093774,560.9896108050016 386.6072962275939,560.0586101479712 385.515029560891,558.5147028801148 385.03035443194676,558.0764678452979 384.60562289785594,557.4302459193859 384.2261257672217,556.7839421887184 383.8774451200152,555.9074650920229 383.8167442206759,555.1566026546061 383.8167442206759,554.8852248382755 384.19621222419664,554.0320465703262 384.16545399464667,553.7183808702393 383.5133271040395,553.4058360033669 383.4591215503169,553.3435272029019 383.1330726685701,552.9686329137185 382.6476111076772,552.321276171715 382.0715642311843,551.8630077443668 381.4339717689436,551.4669676616322 380.70579399110284,551.0698857745156 380.41778511635493,550.4658523421967 380.1451262293849,548.9641716354527 379.9784608996706,547.5247919628746 379.5083784534363,547.045370601234 378.94686600530986,546.6905293071759 378.5180566756753,546.7561635726597 378.1280737851048,546.8162315245136 377.67252576723695,547.045370601234 377.2784942081198,546.8785019521601 376.59566734242253,546.2111063009361 375.7914386774646,545.7116195656126 375.1846044444246,545.335672326677 374.893333333428,545.06544487254 374.5777993388474,544.7727915649302 373.8042997760931,544.3145089126774 373.494445568067,543.6414998100372 373.1748337779427,542.9017322705477 372.7711028907215,541.7737556396751 372.7573548943037,541.1619701946038 372.8827762347646,540.378824912128 372.7298297743546,539.5367687206017 372.3260988871334,539.1162801600294 371.99273910047486,538.4277185602114 371.939378232928,538.0294139786856 371.99273910047486,537.9082325034542 372.1594335573027,537.528829173476 372.1456855608849,537.2229513269267 371.9094064355595,536.9938029943733 371.2694546774728,536.5165634549921 370.72737001255155,536.0393630260369 370.44900221168064,535.3696549367742 370.30986200179905,534.6053933291696 370.2095482312143,533.3205922289053 370.0736120035872,532.8655718960217 369.6561331199482,532.5396643605782 369.07195977971423,532.1970164490631 368.5161271181423,531.8332628838834 368.12693065975327,531.1257380145253 368.0290344391251,530.5528524137917 367.79278444091324,529.6728766775341 367.36152843374293,529.2902165951673 366.8752804409014,528.7551322405343 366.7223631076049,528.2578123077401 366.7086151111871,527.5881628833595 367.20945578685496,526.0407254056772 367.2506997761084,525.1029027757468 366.8752804409014,524.1094884734484 366.5831937707262,523.3262882691342 366.58240733877756,522.2549707522267 366.3461282134522,520.6296028569341 366.0314680321608,519.9710261962609 365.99904955748934,519.9031819655211 365.3315435521072,519.5394100089325 364.5111202134285,519.4448524400359 363.4544760035351,519.6929207996582 362.6268582685152,519.9710261962609 361.57740845519584,520.3237037516665 358.7544962276006,520.9166382346302 357.586149546667,521.0512447739602 356.7795324587496,520.9166382346302 356.2228551111184,520.6296028569341 355.31551647291053,519.9710261962609 353.7753913459601,518.8529556655558 353.3643495538272,518.4981132789981 352.02371601073537,517.3422286363784 350.62075044983067,515.656752266048 350.47997912194114,515.4876593002118 349.4232766579371,513.8055343357264 348.46371310937684,511.9309125033906 347.5041495608166,509.6379795529065 346.9337242170004,507.9546926704352 346.08583401248325,505.48821657313965 345.6124893297674,504.474615889485 344.8753986561205,503.26972046593437 344.06875244085677,501.7777614374063 343.55419289600104,501.3004928259179 342.7758291059872,500.9945293486817 341.45462334586773,500.9945293486817 339.07750155380927,500.97562440589536 337.38087645871565,500.6696204667678 335.1283604479395,500.44047773617785 334.4333584497217,500.7263754150481 333.084598442656,500.91774803592125 332.3191962169949,500.5928791044862 331.554609550396,499.8285081789945 330.48418821697123,499.08195850637276 330.43644888175186,499.04639129911084 328.8838282241486,497.89710308867507 327.7300742259249,497.0559812091524 327.07631621696055,496.17592428735225 326.45011245517526,495.0488123263931 326.3481384392362,494.7709988527931 325.78339288185816,493.23196413571713 325.4508777813753,492.0770408352837 325.03258333867416,489.7716639006976 324.8934140019119,488.2217826999258 324.71300067577977,486.59398423635866 324.69840799295343,486.46272325888276 324.0454946703976,483.36507179646287 323.9338504533516,482.0843659999664 323.6142386632273,481.5291897774441 323.25259645155165,480.7647589126718 322.4038615609752,479.884643016092 321.3609362205025,478.87101569451625 320.73551889066584,477.9919344144291 320.3317880036775,477.2854144934099 320.0534493298037,476.61558460548986 319.9425915450556,475.735413630493 320.31804000702687,474.85640112584224 320.6100975504378,474.53149736719206 321.2217668836238,474.18652448803186 322.0559673458338,473.9951708811568 322.64008243218996,474.03410656546475 323.3213364338735,474.24444727925584 323.7809331200551,474.5114687649184 325.24052178498823,474.74179759342223 326.3481384392362,474.7705185817322 326.74216999823693,474.78073315834627 326.92666112002917,474.68836132477736 328.35549155564513,473.977385442995 328.7584068836877,473.51784772524843 329.300491548609,472.5620369336102 329.70422243559733,470.6303350959788 329.89841288526077,470.1518837113399 330.3579804444453,469.8258520416566 331.03923444624525,469.8836957559106 332.81925046048127,470.0561853098916 333.7788140089251,469.8069046169403 334.40423133876175,469.3095442063059 335.8225468870951,468.067741058534 336.9763008853188,466.61342127475655 338.49172622233164,464.8174314912758 338.8258724408224,464.1675967043848 339.2433804515749,463.4398453775211 339.6883553280495,461.4313173243427 340.0217151148245,460.74365734355524 340.59211133164354,460.30300271563465 341.34295000194106,460.03592556272633 342.51126755564474,459.44284258043626 343.427955996478,458.9642890563118 344.3454599963734,458.1420208562049 344.98547000891995,457.26174293021904 345.87544888886623,455.4646424832172 346.62628755916376,454.70012965105707 347.8083822365152,454.28061603358947 348.6149993244326,454.14709421567386 349.29628245334607,454.20381996553624 350.12232732446864,454.27060089842416 350.47834800358396,454.29840291297296 350.62075044983067,454.28422148223035 351.4379115520278,454.2027383305831 352.64263799472246,453.21235931501724 352.64668666326907,453.20899421483045 353.38377733703237,452.367717700894 354.3570888817776,451.239320959372 356.2487491129432,449.4410542693222 357.2358377814526,448.7143805724336 358.19540132978,448.0834117929917 360.6291462259833,446.84037847508444 361.35164421703666,446.2661324333749 362.12997887993697,445.31021448079264 362.35251000896096,444.51121626322856 362.5612348871073,443.7600898417877 362.6024788763607,442.7473534985329 362.5329233352095,441.65785296604736 362.2966733369976,440.30020707886433 361.62916733161546,438.5596705619828 361.3371097886702,437.65937020321144 361.2262520035729,436.6266568430001 361.6566633244511,435.38356493326137 362.01836379023734,434.886134083441 363.36791022936814,433.56731240986846 364.73038910597097,431.9424732433399 365.1187408781843,431.40609284408856 365.50793733703904,430.75616872747196 365.8566471111262,430.4111737808562 366.3291762347799,429.5119249834679 366.41250889969524,428.8809063536464 366.41250889969524,428.17312185728224 366.41250889969524,427.6755961201852 367.4416571164038,426.5671573607833 367.2887397832237,426.0496758708614 365.9262317797402,422.45487991784466 365.80567466665525,422.24008714291267 365.1745775502641,421.1171597657376 364.4837698560441,419.8261094009504 363.3112579982262,417.63471770699834 362.7279002170544,416.21900101559004 362.43502711469773,415.03374162619 362.5183597797295,414.09657246334245 362.8379424426239,413.12161620223196 363.4584955449682,412.42043700499926 363.77003912534565,412.06876482540974 364.06209666864015,411.5144704193808 364.9100159999216,409.37192674237303 365.2571237832308,407.8983435315313 365.6470775466878,404.55262696609134 365.6325431182049,402.71610950422473 365.36798156797886,401.95038893423043 364.61714289791416,400.8406708278926 364.227975566173,399.86566138570197 364.227975566173,398.0669344040798 364.24250999477226,395.7918803199427 364.198848455213,395.18301313882694 364.10334065789357,393.8596083127777 363.78294243547134,391.98406121489825 363.7279504498001,390.090748134593 364.17213889432605,387.2990972248954 364.3778054257855,386.4353126549395 364.7279715555487,384.96487625542795 364.63089089433197,383.6068735533627 364.1163022223627,382.0184868364013 363.5183808853617,380.64151329093147 363.22632334241644,379.2835265001049 363.24007133883424,378.270521437109 363.47629220981617,377.2564702471136 363.949636892532,376.33702811808325 364.74171955208294,374.9400256409426 365.0200290988432,373.9259204780101 364.8113042205805,373.1422362162266 364.42216601606924,372.51111127383774 363.7684080071049,371.99459666380426 363.3929886720143,371.44021084171254 362.6558979981346,370.2357377628796 362.3362862081267,369.508867270255 362.2392055466771,368.6094331576023 362.41964799992274,367.09769187372876 362.66885956260376,365.3755865600542 363.14214599120896,363.23267611314077 363.5871791219106,361.85563618148444 363.8323128889315,361.2811892897589 364.10092310758773,360.6500335383462 364.8388002134161,359.33084900229005 365.79839288897347,357.0531478486955 366.2571740160929,356.0390081059304 367.0500431075925,354.83445867779665 368.2995379200438,353.03992704924894 368.3421508836327,352.9786890297546 368.39798755547963,352.3474716331111 368.2863433387829,351.65838075015927 367.99183911818545,351.415671526629 367.52175667206757,351.0271198457922 367.4805126825813,349.26706713146996 367.6050893369829,347.90774271369446 368.01450001075864,347.31322375591844 368.370491562644,346.7977777682245 368.98216089606285,346.37695564719616 369.8300802275771,346.22445754607907 370.60841489071026,347.14293151994934 371.34550556447357,346.99043389986036 371.88840578868985,346.7410269418615 373.52922333881725,346.64527993137017 373.98797533882316,346.3969948122394 374.72503688535653,345.97617199696833 374.893333333428,345.8715272770496 375.73965067381505,345.34497648570687 376.26798734243494,345.13452417962253 377.1579662223812,345.15348132676445 378.6321184426779,345.26706386491423 380.02212243911345,345.32493723381776 380.88460532634053,345.4396018110565 381.6775326720672,345.6688907245989 384.2221062260214,347.1039755009697 384.53682466153987,347.2252922184998 384.9171082242392,347.3711767938221 386.0991737743607,346.9692725930945 387.3233280000277,347.14180933032185 389.1308108799858,347.0850185060408 389.8120940090157,346.95035566570004 391.2854306703666,346.8734855942894 393.1770617744187,346.41482966783224 393.6358137744246,346.16658439155435 393.9416775680147,345.7646781983203 394.4004004409071,344.8651561837178 395.31790444091894,343.6405119654373 395.93038933351636,343.2386015934753 396.61164333531633,343.12389589851955 399.1149728996679,343.276476103405 399.16591621702537,343.27835980890086 400.67245778499637,343.3343499462935 401.5640677831834,343.47125920426333 402.28493465599604,343.5826381954248 403.1320966826752,342.4548584240256 404.13369065267034,341.0387437330792 405.19039311644156,339.79404051887104 406.3311855501961,338.47470265754964 407.5691168997437,337.7276972613763 409.404911331716,336.674479076697 411.68492333532777,335.2594529367634 412.5247744570952,334.9142823020229 412.8945140053984,334.76177700579865 413.6040504319826,334.58919139613863 414.2990524302004,334.5313154697651 415.68908555374946,334.45448154915357 416.6349011058919,334.18726605008123 417.41408045531716,333.5938758487464 418.12283044995274,332.54180208058096 418.66570154658984,331.6610690643429 419.40279222046956,330.5321517645498 420.1382517759921,329.7661635997356 421.0565422081854,329.02021361800143 422.4465753317345,327.8144079442136 423.28074666659813,326.70551355858333 423.4385282275034,326.54783258243697 424.44906422053464,325.53757367131766 425.7702991075348,324.4865071439999 427.32859955204185,323.4332716349163 429.2606882133987,322.5537080637296 430.77614267740864,322.4000727037783 432.06906601262745,322.1517628050642 432.97279288899153,321.55834320554277 433.5294411093928,320.46829917107243 433.9983875983162,319.6399105329183 434.07152577431407,319.51076390064554 434.9615337813739,318.66902439075056 434.83366576372646,317.76940204470884 434.6969722311478,316.81293838261627 435.01737045357004,316.54462123004487 436.8523784534773,315.1283154125558 437.5174086543266,314.0850201603607 438.5182744463673,311.9773320265231 439.04902866482735,311.09989151963964 439.4284966684645,310.22361028793966 439.70115555566736,310.07662112719845 441.4762782151811,310.2436524356017 441.7497526614461,309.9931655563996 442.41725866671186,309.26270762470085 444.0856013369048,308.05347685021115 446.4529655466322,306.09044319880195 447.24102866486646,305.38117854780285 447.71111111110076,304.89270107843913 448.1658144427929,304.4202567289467 449.31878200906795,303.7733199459617 451.1391973263817,303.0216781751369 451.92807600367814,302.47835890040733 452.39815844979603,302.20661863626447 452.95967089780606,301.83141694567166 453.49039598938543,301.26797195064137 454.14336756640114,299.827124593372 454.5527491129469,298.4486028003157 454.703248896054,297.5098614198505 454.61260532645974,296.50769948150264 454.2331664498197,295.21269970102003 453.96047843561973,294.1503978683613 454.0665011201054,293.7740612970665 454.718628010829,293.23176360176876 457.1911702186335,292.10375005105743 457.20008311478887,292.1003827188397 458.7688984463457,291.56144862645306 460.87735176552087,290.7251844248967 463.7140119894175,289.4513201342197 464.56359156640247,288.97130924317753 465.54901998944115,288.3455378161743 466.53532222576905,287.4057150990702 467.23274177417625,286.8634031852125 468.27971578307915,286.46697112731636 468.8228781512007,286.23534129705513 468.9115993316518,286.19749798078556 469.361787960981,286.23534129705513 470.1559968997026,286.30216840986395 470.3498378241202,286.23534129705513 470.6568084482569,286.12954836752033 470.998265571543,285.89459088555304 471.2822257777443,285.4346973369247 471.3445286684437,285.02599588007433 471.3145859983051,284.04382674233057 471.25391422584653,283.4180426201201 471.3445286684437,282.6240040338016 471.5565157830715,281.8723769915523 471.90522555750795,280.8913175970083 471.9812764446251,280.11843788297847 471.82914554316085,279.34563588845776 471.6325666703051,278.8656852042186 471.48046489607077,278.1351336580119 471.3437131093815,277.4892493735533 471.4497066667536,276.85783579107374 471.5257575538708,276.40345753449947 471.98369399481453,275.81830496469047 472.58808155031875,275.04601045895834 473.3316384428181,274.10609618842136 474.97003844287246,273.66847054229584 476.4636184463743,273.2229863886605 478.1392428941326,272.49915307736956 478.6926580053987,272.2062916314462 480.11097355384845,271.4545521675609 480.99128223292064,270.82761306577595 481.4313928820193,270.36881353129866 481.8254244409036,269.40767300431617 482.17494977416936,268.46777700434905 482.9484493370401,266.8396683901665 483.19119468098506,266.5678882507491 483.52449621330015,265.7950431383797 483.980044231168,265.2315145401517 484.54074112011585,264.9397268083412 485.2592195698526,264.9007576039876 485.8587137707509,264.8172063261736 486.58689154859167,264.5555671576876 487.30376800720114,264.0644016013248 487.7147515449906,263.6668498448562 488.37823800893966,262.9139613697771 489.00039310229477,262.57987362809945 489.89526533684693,262.3715947662131 492.2602119966177,262.19679273478687 493.15668622229714,262.20457062585047 494.1729020019993,261.9116566737066 494.7489780053729,261.7869696802227 495.2198468836723,261.57756755308947 495.55320667033084,261.24347797303926 495.68992932967376,260.88817903393647 495.65920022758655,260.30355037684785 495.12841688178014,258.17418635991635 494.79427066317294,256.33660209144 494.09685111476574,252.87068137526512 494.0890741760377,252.82617729413323 493.80881311302073,251.22129854606465 493.79343399836216,250.44836450065486 494.1648046649061,248.93368248495972 494.24895288900007,248.59067453822354 494.79511534934863,247.44128365343204 495.5070693263551,245.72947622614447 496.256306005409,244.3098705545999 496.75146689417306,243.3716416110401 497.25149201077875,242.15987748053158 498.22238600533456,239.67394180118572 499.26933088724036,238.0868189429748 499.9975086649647,237.0220218137256 500.9522079859162,235.3101008409867 501.8624593351269,234.85011149261845 502.81881890131626,234.47476563346572 503.47091666492634,234.05711700074608 503.97172821336426,233.20060626219492 504.8358422187157,231.59222963580396 505.15463844966143,231.1133072937373 505.50334822409786,230.75796426890884 506.14088243211154,230.48734666965902 507.26230533688795,230.58979565551272 509.23485155578237,231.0709644826129 510.0010402133921,231.23696750658564 510.7138388766907,231.1845602839603 511.38134488184005,230.79918440734036 512.1775053369347,230.1197729858104 512.8757404445205,229.48266266129212 514.0287080107955,229.08613692590734 515.2941062258324,229.2008563905838 516.7415780123556,229.56730873230845 517.402588672121,229.73435532161966 519.6631728924112,230.234491962241 520.5288888888899,230.1673286394216 520.740060444572,230.15096885414096 521.5062491022982,229.70207676501013 522.4852695609443,229.31557580118533 523.6074497706722,229.14740618894575 525.5339168995852,229.37796774035087 526.163382897852,229.37796774035087 526.5048108942574,229.2220279602916 526.6407471218845,228.83440349588636 526.9902724551503,226.8618276635534 527.2103277796414,226.02754604449729 527.5509402169846,225.4004896559054 528.1577744497918,224.82684271445032 528.5299315486336,224.20976775087183 528.5064550969983,223.7196433453937 528.1270162204746,221.49528492364334 527.7825298773823,219.41237645375077 527.4587237831438,217.45420003827894 527.0112731023692,216.14871358813252 526.3664279895602,215.1774537419551 525.4942457742291,214.51018903887598 524.9861233209958,213.9042357117287 524.7587862187065,213.34058668260695 524.7968262259383,212.6199031918659 525.464332231204,211.59734059561742 525.7976628906326,211.1997029344202 526.0485055715544,210.62606254318962 526.2912217886187,209.7282053406234 526.6067557831993,208.66777516610455 526.6520484407665,207.99944994284306 526.5307048959658,207.4146137367352 526.2281033387408,206.51674465846736 526.1212942223065,205.76488201727625 526.2733959965408,204.99288601084845 526.4246822115965,204.30341703316662 526.3187177814543,203.9480748733622 526.136673336965,203.53029352618614 525.2410146703478,202.35955552046653 525.1042628836585,201.65107061289018 525.1956928853178,201.33807257493027 525.60510355921,200.83679364674026 526.1811795627,200.18845799710834 526.6965546668507,199.41652446455555 527.1366944427136,198.8940673568868 527.6375351182651,198.43400901561836 528.5024355555652,198.18332658015424 529.6853166649817,197.80792403570376 531.8245282133576,197.45261247229064 532.7493139911676,197.51493239344563 533.5074635663768,197.68204113846878 533.9775168852648,197.51605527487118 534.6150802205084,196.93123391922563 535.4039297706913,196.20047593978234 536.1474866631906,195.80389584775548 536.920986225945,195.78272136417218 538.1500046792207,196.20047593978234 538.8628033422865,196.36758558941074 539.4081211164594,196.07459220883902 539.5747573191766,195.5320762944757 539.62010823132,194.59189430630067 539.484172003693,193.44333058135817 539.4995511182351,192.37729496025713 539.6362737778109,191.50054512982024 540.3644515556516,190.56034752941923 541.3345591182588,189.80839536932763 542.3054531130474,189.07761595048942 542.6662797653116,188.69325605395716 543.3055033459095,188.01260387618095 543.6849422223167,187.2395087008481 544.4284991149325,186.46745378675405 544.8014717724873,186.09961293189554 544.9085139058298,185.99401699675946 545.2327277796576,185.674301261839 546.219000888872,184.37871029530652 547.8112926720642,182.62406685139285 548.842858439195,181.6002549576806 549.16162554326,180.86949093686417 549.6163580019493,179.23959168879082 550.1325486650458,177.69550873455591 550.329156665015,176.7976099543157 550.2385422223015,176.02439885173226 549.8898033208679,174.98054591962136 549.6009788871743,174.3110049678944 549.251482681022,173.72608760435833 548.5693839929299,172.5986417736276 548.2805595592363,172.11735705239698 548.2805595592363,171.61601778655313 548.5232757760677,171.15703075396596 549.0249028835678,170.57210579124512 549.4634406686528,170.00835615262622 549.8882304569706,168.9845311611425 550.4043919929536,167.35571524477564 550.93517533876,165.80935075355228 551.3299933298258,165.22441290534334 552.1641646650387,164.3887964222231 552.7709697707323,164.03339583578054 553.2564313316252,163.4696711205179 553.4692340053152,162.8012214624323 553.7564564479981,161.5689606172964 554.1957806650316,160.48265029210597 554.5299268835224,159.1256379528786 554.53965533874,158.5284907585592 554.560685112956,157.30844163545407 554.5905986560974,155.5949156463612 554.7572931129253,155.17709119006759 555.0307675591903,154.98877514217747 555.8042379947146,154.69689500669483 556.5631740017561,154.3002069988288 557.6700042241719,153.61055392789422 558.2460802277783,153.130354645662 558.7151723521529,152.57105685654096 558.8067771164933,152.46183640509844 559.2315377779305,151.54266594239743 559.6716775539098,150.33152639312902 559.702435783227,149.99728370428784 559.641764010652,149.49589875264792 559.7477284409106,149.24516577762552 560.0664955448592,149.07806379825342 561.4314502259949,149.0569253495778 562.1596280034864,148.9945127653773 562.8878057814436,148.82737050246214 563.7826488888822,148.55441534763668 564.8749446825823,148.3025582912378 565.4056697742781,148.09426159830764 566.3159211234888,147.61401129199658 567.2506975005381,146.93292303435737 568.1509291235125,146.2769425843726 568.6670906597283,145.75441121164476 569.0004504462704,145.08591276837979 569.0740837833146,144.89337717357557 569.3038384355605,144.2925448018359 569.6833355661947,143.8112039558473 570.3354624570347,143.60286329692462 570.8969457779313,143.56054533232236 572.0037759999977,143.8947968846187 572.9738544354914,143.97834967286326 574.2336019912036,143.56054533232236 575.2797604409279,143.39339932758594 576.2514699947787,143.39452245930443 577.8898699948331,143.7076353256707 579.1827933298191,143.9416073077009 579.5129200071096,144.00065180438105 581.0299473352497,144.47974602144677 581.8487395555712,144.85523104097228 582.3495802311227,145.44021797471214 582.6375891058706,145.69091476890026 583.0017071217299,145.83684023941169 583.5024895431707,145.71209362219088 584.82212243916,145.37780446070246 586.6571304390673,144.8964657667675 587.5673817885108,144.8128731828765 588.8109346702695,144.91764468944166 589.979252224206,145.1895209219074 590.6168155591004,145.0636107364553 591.1928915627068,144.729360793659 591.9817411130061,144.0407635467709 592.8466706773033,143.43463430181146 593.3466666666791,143.25870371138444 593.4987684409134,143.20511424948927 594.3936115485849,143.05914708488854 596.0012824463192,143.0167889134609 596.7448393388186,142.452975276683 597.2602144427365,141.67973499401705 598.2303220053436,140.34263359720353 598.6464319146471,139.63565239618765 599.1405442276737,138.7960568977869 599.6721140054287,138.00274859787896 600.960959544871,136.8115979549475 602.1899779982632,136.12189519312233 603.6010408961447,135.30848144961055 604.2523231004598,134.80706615553936 604.9958799928427,134.40930269431556 605.7694086827105,133.9713850679691 606.4676146631828,133.699536383152 606.9223179946421,133.30281405820278 606.9765235483646,133.17023885960225 607.1197415537899,132.82145141804358 607.1957924409071,132.1740973890992 607.2410850987071,131.1300157571095 607.0744488961063,129.9811918392079 606.892404451617,129.2079118238762 606.5282864355249,128.37217134371167 605.8761886719149,127.2433515159646 605.1779535644455,126.22042922722176 604.5864984462969,125.53073648369173 604.389074887149,125.02930098964134 604.4643102153204,124.34064785129158 604.7224055465776,123.37896917620674 605.5258477797033,122.00169169553556 605.844614883652,121.7297894883086 607.1035760071827,121.50024891039357 607.9684764444828,121.16592640115414 608.4385588908335,120.66448188922368 608.9638372125337,119.89454191137338 609.3940737708472,119.26380147458985 609.5527582721552,119.14345394290285 610.0009080036543,118.80359219154343 610.7897575537208,118.49048731237417 612.3221639965195,118.17730179720093 613.2922715591267,117.9266166993184 614.9460215466097,117.38280284951907 615.9015655537369,117.21563881658949 616.6450933192391,116.8813505214057 617.6006373263663,116.17149283416802 617.61924955016,116.15681025135564 619.1638019982493,114.93907546944683 620.0578586737392,114.39525492524263 620.7253646791214,114.1245075801271 621.5595068872208,113.97739965771325 622.0085304320091,114.03978113009362 622.8880235520191,113.7689932717476 624.3168831146322,112.65354469273007 624.5482688854681,112.47301845619222 624.9431160036474,111.80438822339056 625.4431119929068,111.09455580369104 625.9140391254332,110.73903705668636 626.7320157868089,110.42592177307233 627.5208653371083,110.42592177307233 628.7798264605226,110.46824551536702 629.2959879965056,110.30107671977021 629.9173566577956,109.9456370450207 630.372904675547,109.36056455533253 630.8583371093264,108.65068487013923 631.4805213299114,108.06568949401844 632.3599853228079,107.54303573217476 635.0599520143587,106.22805186192272 635.6667279929388,105.9138074531802 636.5009284552652,105.34990761900553 637.153055345756,104.86961284541758 637.8512613263447,104.22214413812617 638.4580955591518,103.3439926370047 638.852127118269,102.77896351198433 639.4136395663954,102.27748100826284 640.2777244445169,101.79718015406979 641.0665739946999,101.3793031948153 641.6879717831034,100.83657559362473 641.8918615609873,100.22841273061931 641.9614462293684,100.02083703683456 642.022118001827,99.20617895480245 641.9306880000513,98.53755228861701 641.8918615609873,98.28323616611306 641.8093444552505,97.74294892384205 641.8246944427956,97.01189227314899 641.8918615609873,96.69783652812475 642.0973533297656,95.73697106447071 642.886202880065,94.00403356162133 643.1597064535599,93.0433179124957 643.2657000108156,92.16516607924132 643.2357282134471,91.0997286948841 643.0682764517842,90.45226336887572 642.7794228908606,89.74120499176206 642.4760057742242,89.19845136231743 642.4169359928928,88.85297087318031 642.415334001882,88.84298077854328 642.5366775466828,88.34146947570844 642.8554737778613,87.6315283034346 643.2503208960406,87.08764656324638 643.8571260018507,86.64856026764028 644.6605391075136,86.41898650629446 645.5707904569572,86.21055645268643 646.2536173227709,85.97989900095854 646.7361661725445,85.71128650696483 646.9664159858366,85.58309866220225 647.5732502186438,84.9155578619102 648.1347626666538,84.0172355431132 649.0441693298053,82.49148423603037 649.5603599929018,81.8852413748391 650.2731586559676,81.48843434051378 650.9706073316047,81.32128570287023 652.4123993315734,81.36253122473136 653.1704906525556,81.44614566577366 654.5661744356621,81.71805288852192 655.6584702293621,81.78048277605558 656.4327562239487,81.63447866315255 657.0848831147887,81.27895687712589 657.4643511183094,80.40184577112086 657.872917105793,78.75125056895195 657.8958110152744,78.63264833734138 658.3122413228266,76.47312266897643 658.3729713492794,75.61609584052349 658.3882922098273,74.86378749198047 658.2968913351651,73.56981167691993 658.3122413228266,71.35523128963541 658.4789357796544,69.22308574413182 658.8430246685166,68.15754762344295 659.3438653441845,67.59356004558504 660.0259057779331,67.11206705245422 660.5566599965096,66.63169659074629 660.8196486827219,66.35977246204857 661.1634942293167,66.00418817088939 661.6036048782989,65.71220099629136 662.3463753386168,65.48144380928716 663.059960433864,65.10583596251672 663.636065564584,64.68789581413148 664.2582206577063,64.01913390442496 666.1644444444682,62.314137800072785 666.3367895609699,62.160016668378375 669.0512615538901,59.77812853874639 670.2195791075937,58.963335341599304 671.3571675592102,58.52415802521864 673.0109466738068,58.29459777951706 673.7844171094475,58.10620653978549 675.180100892554,58.10620653978549 677.076596223982,58.378139918262605 679.124377770815,58.398202867479995 680.5508197831223,58.398202867479995 681.8405100089731,58.461762279912364 682.4764130986296,58.628966790915 683.2353491057875,58.628966790915 684.1609504426597,58.66909264639253 684.9951509048697,58.71142541663721 685.738649543142,58.836297014553566 686.5121782330098,59.108229574689176 687.1035750969313,59.2542472424102 687.9685337884584,59.442597464774735 688.833434225875,59.42141108162468 689.47018200194,59.337869302078616 690.2436524374643,59.380161829991266 690.4370273280656,59.42935597564792 690.7080842240248,59.49837221519556 692.4581284408923,59.944168499147054 692.7008737849537,60.15374463284388 692.9589691165602,60.717709378222935 693.3076497636503,61.804466347792186 693.7931113245431,62.74516284553101 694.4153246721253,64.12390017166035 695.3255468942225,65.62858113338007 696.0690746596083,66.42212605196983 697.1006986810826,67.21574862435227 699.6954291202128,69.430406915606 701.7585606542416,70.43350665597245 702.5773820020258,70.58060085342731 703.3969897814095,70.4546118301223 703.8516639858717,70.24624831142137 704.4285555485403,69.61870911502047 704.837966222316,68.82517465041019 705.4900931130396,67.6749322671094 706.1268408888718,66.88139144564047 706.8242604375118,66.25496703572571 707.8105335467262,65.69101516029332 708.5533040071605,65.16827012423892 709.7669433457777,64.28997728304239 710.6617573263356,63.496385266131256 711.3745851166314,62.5980237731128 712.0728202241007,61.30177564744372 712.7702397723915,59.859503381245304 713.4078322347486,59.14947887259768 713.9280715662753,58.733735385583714 714.1659235556144,58.54313756385818 714.70963933866,58.10086978919571 715.1675757796038,57.728340219531674 716.138469774276,56.72631148615619 717.2598635521717,55.492428516212385 718.0187995593296,54.46920373296598 718.8837291236268,53.172912179201376 719.5701094968244,52.2745124619687 720.0973393351305,51.58452926937025 720.5374791112263,50.853293413238134 720.9015680000884,50.143322803021874 721.295599559322,49.641731507959776 721.7964402348734,49.14013917581178 722.3271944533335,48.76338246150408 723.5108911218122,48.40777238132432 726.5449457778595,47.65541979554109 727.2423653261503,47.61416854348499 728.7747717688326,47.46814387041377 729.684993991279,47.362206707301084 730.1834171165247,47.22846097260481 731.0038113279734,47.0077582790982 731.4286011165241,47.19615813647397 732.1260206650477,47.34214284532936 733.4610326756956,48.09457665798254 734.3712257706793,48.678673314570915 735.3882571094437,49.55585897434503 736.434415559168,50.85112654726254 736.9352271077223,51.58340571267763 737.2166532551637,52.2745124619687 737.7095422294224,53.484977799409535 738.1796246757731,54.92728795768926 738.5890353494324,55.63844835985219 738.9822222223738,56.009977980924305 739.3179995592218,56.32729648944223 739.6812728889054,56.57916876353556 741.0009057850111,57.27804574323818 742.3132277760888,57.72725681733573 744.3229984425707,58.07165809860453 745.1417906632414,58.155280565901194 745.5059086792171,58.22883139742771 745.8246757831657,58.489649769268 746.2340864569414,59.01236906851409 746.4994344392326,59.58640801778529 746.8028806827497,60.07794735010248 747.6450911005959,61.300652135687415 748.2826835627202,62.10540616331855 748.6621224392438,62.690512346918695 749.0035795627628,63.72377383970888 749.2074693405302,64.50733389134984 749.1087575608399,65.11366029601777 748.8789737814805,65.48814463836607 748.6079168852884,65.92839271563571 748.1079208960291,66.74312239972642 747.9711691094562,67.10873672255548 747.9185655468609,68.44624166819267 747.7899402241455,69.66890428564511 747.5326313244877,71.54914931656094 747.532398307696,71.55015240958892 747.1839506773977,73.17973178456305 747.0698597831652,74.34996958053671 746.9929642098723,74.98748720646836 746.9630506668473,75.79215571883833 747.0164697886212,76.10427249537315 747.5318448924227,76.9925532800844 748.4266880000941,78.44475435855566 749.4817302187439,80.12765010230942 749.8531008852879,80.8699115862837 750.1411388871493,81.57987254072214 750.2479480037,82.26977044413798 750.3539124338422,83.12569048459409 750.5594333298504,84.04512009571772 750.7334095645929,84.48421110206982 751.612873557373,85.35131721379003 752.1613661866868,85.71128650696483 752.4397339877905,85.89407944784034 754.3135975538753,86.74998670472996 755.269141560886,87.26265496923588 755.9819402241847,87.83658697007922 756.6720779947937,88.73485502938274 757.051545998198,89.09144915448269 757.4989675520919,89.78132570290472 758.1211517725606,90.9927674458595 758.689945998136,91.68147509748815 759.0394713316346,92.33010063198162 759.2287975538056,93.01996797340689 759.5249328925274,93.61394639569335 760.1697488782229,94.22020007658284 761.2385973477503,95.49400590040023 761.7312824320979,96.30867644381942 762.2013940053293,97.46881296782522 762.4441393495072,98.35701555135893 762.3688748943387,98.62890382652404 762.178733112989,98.99442999152234 761.7086506668711,99.56945758149959 761.1658960783388,100.0467940379749 760.8065257814014,100.36297175392974 759.5249328925274,101.5219254521071 758.7894442098914,102.25296851684107 757.5523575466359,103.25593258946901 756.3241837796522,104.28119829855859 755.7173495467287,104.82391819619806 755.1639344356954,105.18943503050832 752.9033502151724,106.92345608130563 751.0829348978586,108.2818434840301 748.4436982331099,110.32895825232845 747.8214848852949,110.83042411907809 745.9710977707291,111.84450528700836 745.5544344461523,112.11641856923234 745.531773553812,112.32590953266481 745.5616870969534,113.04464429459767 745.5237053440651,113.41127201815834 745.3570108871209,113.69321273389505 745.1369555627462,113.99633474292932 744.6134539947379,114.45542987593217 744.195975111099,114.7373693784466 743.3844646685757,115.10287128260825 742.6263733477099,115.43716202746145 741.9815282346681,115.92862835974665 741.1926495573716,116.68076929997187 740.7225671112537,117.05629732721718 739.5178406685591,118.0703524815035 738.9822222223738,118.8070421597804 738.9636099983472,118.83255587692838 738.838916835608,119.14345394290285 738.6909511111444,119.51231893827207 738.3487075555604,120.56643933721352 737.9393260088982,121.46574960876023 737.5299153351225,122.40621486410964 737.3423658666434,122.73042661946965 736.4910386631964,124.2024516549427 736.0055771023035,125.2365744910785 735.5953799964627,126.16587325063301 735.2547384322388,126.84557565895375 734.8137830969645,127.3670646486571 734.0257782330737,127.87964711908717 732.4714973297669,128.67302862060023 731.8493131095311,129.1332191901747 731.2044971236028,129.70709229516797 730.4229002241045,130.45919053757098 729.945536000072,130.7834717637743 729.2246400000295,131.28489537007408 728.5118413369637,131.65037235547788 727.8217035663547,132.1205857071909 726.7520977921085,132.97749324515462 726.1379526542732,133.8443458871916 725.5319631076418,135.0454992853338 725.3418213261757,135.8388974769041 725.440533105866,136.72808281262405 725.6379566650139,137.16595535242232 726.4041744497372,138.1676520029432 727.1630813297816,139.02449807996163 727.5271702187601,139.66184583574068 727.6331637760159,140.09084824466845 727.655824668589,140.69586269551655 727.7690708765294,141.3120268273633 728.3686233315384,142.72264811216155 729.5134935609531,144.8218180721742 730.0903559965082,145.42794385319576 730.4924848924857,145.64635092567187 731.6753660019021,146.04297285334906 732.2902684445726,146.1689226423623 733.1616642277222,146.5020474854391 733.8437337885844,146.8262671677512 734.215890887077,147.1605142231565 734.5605811200803,147.45846020820318 734.9287186774891,147.7767020559404 735.991042673937,148.61233561480185 736.9773157831514,149.4056092404644 737.7507862187922,150.00173599802656 738.3195804443676,150.23124962375732 738.9822222223738,150.54186681006104 740.4587919929763,151.23401545360684 742.8019224462332,152.15214421472047 743.7582820124226,152.37162821681704 744.1314876871184,152.57105685654096 744.3650579911191,152.69579994899686 745.9492815645644,153.7197337524267 746.7154993495205,154.429481635103 747.2850800070446,154.86844532261603 748.4072893441189,155.71412203100044 749.0974271148443,156.0695347977453 749.7649331201101,156.47733029705705 751.0311468942091,157.1758795476053 751.9712826596806,157.9379601533874 752.4421806650935,158.51284811337246 753.4211719965097,159.91225921799196 753.8985653476557,160.6955087793176 754.3686186667765,161.16562576038996 755.446321777883,162.71093689912232 756.0151160036912,163.56657330639428 756.3638257778948,164.54810684244148 756.5232093298109,165.4260770456167 756.7732073244406,165.90625200531213 757.3500988871092,166.92006299021887 758.1163166720653,168.12109283730388 758.4876873387257,168.93551964766812 758.6224002275849,169.4118774488452 758.7684435626725,169.9281412427663 759.071831552079,170.80492887611035 759.359869553824,171.20271291717654 760.4068144356133,172.26667573931627 760.9456951182801,172.99746565625537 761.725660899654,174.7409889192786 762.4918495573802,176.35972868528916 762.7418475520099,177.0805198175949 762.7499448888702,177.56075193814468 762.7345657743281,177.8737806318095 762.553336888901,178.56340488162823 762.614008661476,178.75162243063096 762.8259957761038,179.06468969467096 763.2548051059712,179.3348833436612 763.2734464569949,179.34651405655313 764.7289573262678,179.87907979212468 766.2459846542915,180.28571233607363 767.2169077760773,180.5887110910844 768.893347783247,181.3195160626201 769.5228137815138,181.85207747033564 770.5924195556436,182.96941389591666 771.5107391147176,184.46333198720822 772.1483607040718,185.99401699675946 772.2769277725602,186.30262329377 772.4209322098177,187.1258923377609 772.473564899643,189.05756380065577 772.3829213298159,190.23839197761845 772.2389168925583,191.355770015507 772.056872448069,192.09769143356243 771.5487499947194,193.19384610140696 770.3658688853029,195.28255385759985 769.6829837653786,196.03448906337144 769.4321702116868,196.38984280545264 769.3200599609409,196.705574229185 768.9313586632488,197.80014408176066 768.2800473315874,199.66712542175082 767.7946148979245,201.50513858610066 767.5445877760649,202.83187764364993 767.3625433315756,204.90939432114828 766.9070244408213,207.08265520312125 766.6570264461916,207.73983481223695 766.5356829013908,208.20994090667227 766.5356829013908,208.502879542124 766.6335499947891,208.78470983548323 766.9143353459658,209.1278141164221 767.3852042241488,209.47312346374383 767.7282633387949,209.71818011865253 767.9329395485111,210.6282279829611 768.1683739876607,212.01727348950226 768.3957693441771,212.45505035232054 768.7905873352429,212.6744798431755 769.2760488961358,212.7379988692701 769.594815999968,212.90509713703068 769.844843121944,213.5311030880548 769.9281757868594,214.15706732490798 769.7598793387879,215.09276255447185 769.6700804551365,215.9638132166583 769.7461313423701,216.76913731504465 769.8674748871708,217.8017431194312 769.821366670425,218.1670898788143 769.4831717832712,218.75298287038459 769.416499825893,219.41237645375077 769.4119559964165,219.4569267583429 769.2606697814772,220.1085792898666 768.88123090507,220.8403479915578 768.4677715626312,221.83283759793267 767.9572315592086,222.68826566985808 767.7290497707436,223.1727783436654 767.3132020053454,223.81102798390202 766.4838948978577,224.39021091366885 766.0453571130056,224.9015059118974 765.8099226738559,225.4762353306869 765.7646300160559,226.33165056741564 765.9167026632931,227.5011903499253 765.9948798294645,228.3307353638229 766.0307935574092,228.71186479652533 766.0380753352074,229.70432223001262 765.6432282170281,231.00973580218852 765.0817448961316,232.252751172462 764.9911013263045,233.15044489636784 765.1496984462719,233.80871676735114 765.3171793351648,234.8423327251803 765.2864211059641,235.53175509016728 765.0364522383315,236.4072232428589 764.5056688925251,237.0754702821141 764.1723382330965,237.7126007822808 764.1496773405233,238.00438113335986 764.2855844409205,238.45325787528418 764.6342942152405,239.30975008709356 765.0137622187613,240.71867941843811 765.2637893405044,241.98281554860296 765.4722812017426,242.8734566066414 765.476562887081,242.89161982847145 765.8026117689442,243.15223985823104 767.1829455643892,243.33936486701714 769.882854001713,243.46522409666795 771.5973048888845,243.6645779259852 772.8562660125317,243.57993676851038 773.8570735503454,243.61109081242466 774.5771831182064,243.88173388206633 775.2220282311318,244.29940571339102 775.4574626702815,244.7070530487108 775.8604071253212,245.82414036610862 776.1710768925259,247.00356986094266 776.4364540018141,248.68533756298712 776.5270684444113,249.81355278712 776.7778819982195,250.65885876549874 776.9291682133917,251.55540191347245 776.853146453388,252.1924543309142 776.6662377815228,252.82617729413323 776.5424475591863,253.24603889568243 776.433803434833,253.42746282572625 775.9356133262627,254.25948526558932 775.3433717761654,254.91657730314182 774.5092004408361,255.6371352749993 773.9784753494896,256.0726283788681 773.5115968853934,256.745271642867 773.3344166686293,257.2553759171278 773.3198531129165,257.7777074709884 773.4784211060032,258.2688055560575 773.8886182116112,258.8746882812702 774.760829553823,259.8246846543043 775.1548611129401,260.2300206546788 775.4275200000266,260.7423226950341 775.8749415539205,261.3158447096939 777.1144748943625,262.4039491652511 777.255246222252,262.5275533533422 778.0214640070917,263.092210803763 778.2795593388146,263.5098095050198 778.6209582081065,264.0310050335247 779.6218240000308,265.57566164265154 780.0692455536919,266.4643318791059 780.5700571022462,267.38306739134714 780.9568068835652,268.2272297554882 781.3742857672041,269.2818673097063 781.5943993459223,270.04359613964334 781.7836964408634,270.9522954178392 781.8969717761502,271.47347497503506 781.9366137743928,272.6506150253117 782.0102471112041,273.3443800996756 782.072550001787,275.08610055805184 781.9964991147863,276.01374351402046 781.9584591076709,277.4858818388311 781.8743400106905,278.3110868157819 781.5409802241484,279.35453573346604 781.3435566648841,280.159649644047 781.1841439858545,281.1507743570255 780.8427451164462,281.85008751996793 780.1542093369644,282.5917325061164 779.3151737743756,283.8617842629319 779.0918853406329,284.1997714135796 778.2496166684432,285.4302074375446 778.0331148515688,286.23534129705513 777.9461995519232,286.55829206935596 777.9090042312164,287.17296369717224 778.014968661475,287.6217094834428 778.4017184426775,288.34221051988425 778.7431464390829,288.8644351340481 780.1234511076473,290.18957455229247 780.9576224426273,291.045884329651 782.0652682242217,292.24626031465596 783.4520391111728,294.12590474117314 784.4690704498207,295.4632819957915 784.6956211199285,295.76056502276333 784.995775999967,296.3652318046079 785.5079179947497,297.03776348906104 786.653603783343,298.29050261864904 787.1083071148023,298.8327088475926 787.5274171164492,299.1835027250927 787.7215784391155,299.3460919679492 788.0897451235214,299.6021617875085 788.6819866738515,299.90505178901367 789.3454148835735,300.19122557144146 789.9409186702687,300.5775736728101 790.5776664462173,300.8025355752907 791.7233231075807,301.1366108315997 792.410256896168,301.2345804981305 793.0243437797762,301.537468464172 793.7452397797024,301.9861476276419 794.4200275626499,302.5072605982423 795.1206802204251,303.07182511198334 795.5769855431281,303.3579951635329 796.5430735644186,303.58070970897097 797.362652217038,303.50831547845155 798.4055775572779,303.2488425137708 799.1749993244885,303.02837245102273 799.5698755698977,302.92370922939153 800.1612724338192,302.9025440837722 800.9080915626837,303.02837245102273 801.5944428090006,303.0697005816619 803.0011948943138,303.15424083860125 806.206808234565,303.22322791122133 807.9924457814777,303.49941651843255 808.4269348978996,303.77556472609285 808.9536404480459,304.32669772714144 809.8922033493873,304.9024016908952 811.6551508764969,305.844401474169 811.8000000000466,305.92024231899995 813.5427915663458,306.83313655119855 813.8518593423069,306.99459829868283 815.7062951254193,308.0290252096602 816.9425371022662,308.78838780138176 817.8576526790857,309.5232564447797 818.315559992916,310.1434416810516 819.2314620018005,310.99527185986517 820.696730453521,312.0296416505007 822.8909631146817,313.3012230154709 824.5617233352968,314.2899277418037 826.9193882169202,315.7150968768983 827.7891528818291,315.99123119807336 828.5448266526219,315.876552720787 829.9186942293309,315.69172825902933 830.7767206685385,315.67036380886566 830.811090659583,315.66944189067 831.7035162169486,315.507985909062 833.3281682204688,315.1628673761734 833.7173355519772,315.0715571875917 834.1526111003477,315.25525978417136 834.5256128854817,315.66166571126087 836.0725828836439,317.3507742921938 838.1692688498879,319.6399105329183 839.1859506630572,320.74999956513057 843.6771764338482,325.8682881302084 848.2275011129677,331.05544803093653 848.799528448144,331.6533334775595 849.0519439929631,332.0217956334236 849.2121722311713,332.66533050267026 849.2348039965145,333.5393263628357 849.4176931271795,334.0448204696295 849.7437128819292,334.3721165211173 850.1045686614234,334.7350434787804 850.6765959964832,334.9877493394888 851.8675744427601,335.33291986992117 852.2106335574063,335.5166071456624 852.3942799929064,335.72370105591835 852.8287691093283,336.8036566647934 853.1265355664073,337.1253778995015 853.1677795556607,337.14096896373667 853.904841102194,337.42489449487766 854.0097278293688,337.5102644726867 854.2713766684756,337.7232484080014 854.5682984392624,338.1151079010451 855.6905077761039,340.13695977645693 856.171105109388,341.2869541697437 856.3086433281424,341.65435965830693 856.3774415645748,342.1141868637642 856.3086433281424,343.44789325620513 856.3313042203663,344.75826658360893 856.422734222142,345.1957641763729 856.6517024427885,345.82255144853843 857.2245453369105,346.6497686996008 857.9794326756382,347.5002685383661 858.8265364482068,348.2128168629133 859.1703819948016,348.7638490604586 859.3759028908098,349.1556907464401 859.490780216991,350.02854518714594 859.467332892702,350.48831646621693 859.1703819948016,351.2475463527371 859.1016420124797,351.6149367787875 859.2844728890341,351.93780064577004 859.9026084410725,352.69590383867035 859.9252693334129,352.94863109564176 859.9183370808605,353.03992704924894 859.8799475484993,353.54642259021057 859.7197775645182,354.3746956232353 859.8338684587507,354.650786006765 860.0628366791643,354.90351123007713 860.3144366649212,355.0871436332818 860.3451948942384,355.0776053320733 861.570951111149,354.69643366802484 861.916427776101,354.5717542147613 862.1429784464417,354.4893559294869 862.6009440142661,354.5817734595621 863.0815122204367,354.8110938225291 863.2417404587613,355.017049133603 863.539448661264,355.50021584070055 863.9974142293213,357.2468779151677 864.202935125446,358.44247835932765 864.4319033457432,359.3853926977026 864.6382106738165,359.8907929562265 864.9359480036655,360.3048989739618 865.2790071183117,360.55757824040484 865.7142826666823,360.76465080707567 866.3777400037507,360.9483589323936 867.1561037937645,361.0174097472336 867.8664266525302,361.086380390625 868.4376966827549,361.0174097472336 868.6892966685118,360.85710602626204 868.8624282169621,360.7101474972442 869.4449704391882,360.2125236968859 870.0169977741316,359.8685507182381 870.3147351039806,359.77609512297204 870.3399009280838,359.7835893575684 870.7039315628354,359.8907929562265 871.2759297707817,360.3048989739618 872.6392533334438,361.19991540478077 873.5883019947214,361.8210908578476 874.2064375467598,362.19515794172185 875.6943668907043,362.8619369021617 876.1296715664212,363.0690075051971 876.884558904916,363.78151017276105 877.502665329841,364.6330721534905 878.1208008819958,365.4835891951807 878.7389655610314,366.70143079943955 879.2656711111777,367.85129946563393 879.5407475484535,368.9077487793402 879.4946393315913,369.643557682808 879.1969020019751,371.115208879055 878.6701673244825,372.8617186335032 878.2356782080606,373.8736241790466 877.5261417813599,375.22943715768633 877.1369744498516,375.8271738376934 876.4727015538374,376.5173583078431 875.4880304356338,377.71955615258776 874.5737886721035,378.5922278421349 874.0179268837674,379.3202332776855 873.3601784605999,380.17959506390616 872.5818146702368,380.8218402862549 872.1473255538149,381.2359106335789 871.4830817849142,381.9940025662072 870.9798235591734,382.6607271984685 870.224149788497,383.9252469059429 869.8349533298751,384.61428635864286 869.5145551075693,385.32776772236684 869.1153389227111,386.4353126549395 869.0614828942344,386.584900358459 869.0339869012823,386.6612770073698 868.5080677830847,390.03949716401985 868.4166377814254,391.58002690115245 868.3478395448765,392.81997694575693 868.0727922347141,393.3487088906113 867.5007357725408,394.32150053652003 867.0201675663702,394.8668984740507 866.3785264356993,395.40115565934684 865.1430708906846,396.27496595610864 864.5475671039894,396.75801056198543 863.8380306774052,397.4703743845457 863.2206815574318,398.2517362838844 862.6713151147123,399.19445608893875 861.9156413441524,400.8039272314636 861.2748448996572,402.06835253257304 860.5191420018673,403.53864537517074 860.3451948942384,403.7525731640053 860.1073429048993,404.04507573589217 859.763439103961,404.57266133400844 858.962472675601,405.4919966366142 858.7561653475277,405.6989908472169 858.344337123679,406.3879685648717 858.161447993014,407.2616592211416 857.9778015573975,408.38805640797364 857.9332953315461,409.03134898730787 858.0247253334383,409.7904360477114 858.2075853369897,410.5951178310206 858.5999857778661,411.2217364314711 858.6687548873015,411.33636991720414 858.6234331021551,411.5433992174803 858.0506193351466,412.0264535432216 857.6161593457218,412.60074042039923 857.0206555592595,413.4054128988064 856.2422917688964,414.96803172130603 855.3360308340052,416.9008170373272 855.3264188872417,416.92129112110706 854.8684824464144,417.7482263041311 854.4793151146732,418.2546270554303 854.0901477830485,418.89793358545285 853.4058354347944,419.8261094009504 853.1071077830857,420.23121860955143 852.6944640000584,420.8522431848105 852.3052966684336,421.6101714789402 852.1224366648821,421.93182051577605 846.0332684516907,426.7129943113541 844.7063537779031,427.9149438679451 844.3171864463948,428.25878047774313 844.1335108836647,428.67281007306883 843.5841444409452,430.94755637587514 843.2864071110962,432.53345986729255 842.9660088890232,434.371955538576 842.8058389049256,435.2455856662709 842.7143797760364,436.23379433347145 842.7604879928986,438.14125085633714 843.1035471075447,440.18558725342155 843.7443435520399,441.8860094847623 844.7290146702435,444.35208934912225 845.7508811093867,446.4686851198203 845.8503793210257,446.6734410361387 847.0640186596429,448.7411015632679 847.1352344463812,448.93916530825663 847.475876010838,449.88954053493217 847.7736133405706,451.26828509086045 847.7736133405706,451.75013876496814 847.7736133405706,452.9007668624399 847.7502825246193,453.21235931501724 847.6603380055167,454.4174628012697 847.7291071147192,455.9576245925855 848.0033679929329,456.8979172919644 848.417642894201,458.0295726795448 848.5754244553391,458.46137820155127 849.0713717760518,459.3949712464819 849.2598824391607,459.74881829769583 849.415217322763,460.04261551453965 849.6288355556317,460.44433275959454 848.8278400000418,462.0066492003971 848.438672668417,463.5689556002617 848.3076006683987,464.203209073632 848.0260288855061,465.5685329057742 847.1902264320524,471.232323661854 846.950743324589,472.8524137791828 846.8787411057856,473.2775033848011 846.3334233316127,476.48876455414575 845.6464895431418,479.0623654635274 845.2104275627062,480.4198349346989 845.1885822293116,480.4877302402747 845.0445486648241,480.8115044658771 844.822862222325,481.3077598308446 844.7993857708061,481.3600330184563 844.4328793315217,482.04991787299514 844.0663728925865,482.50943946285406 843.5170064499835,483.0379763402161 842.555811783066,483.7733997462201 841.9376471039141,483.9803273034049 841.1593415681273,484.2095656597521 839.9926260054344,484.3241647289833 838.8477557760198,484.3018938199966 838.138190222322,484.18729474028805 837.6381651057163,484.0493431724608 836.0725828836439,483.3868621222209 835.3031611164333,483.0612888156902 832.555513344123,481.6593318498344 828.8021355520468,479.27598645328544 828.0699382328894,478.81093095469987 827.8822140018456,478.6840719920583 826.8676293405006,477.99642075726297 825.4598286791006,477.04174916417105 822.3488784498768,474.7484470833442 821.2315042135306,473.92615215777187 816.67392688361,470.5680050794617 813.9861644516932,468.5862547313445 812.3712117761606,467.39672407874605 812.1106988943648,467.20536512724357 811.8000000000466,466.9762709696661 810.8582331164507,466.28177666052943 810.2174366719555,465.9602263652487 808.0426026665373,464.8574902919354 808.0223884516163,464.8485972388298 807.8225473423954,464.7673579811817 807.4244671146153,464.60491944331443 806.8362742329482,464.50252902921056 806.3718424462713,464.4212896558456 805.3645395627245,464.397935334011 804.5861757725943,464.46691670367727 803.9453793280991,464.6271520978189 803.0529537708499,464.9031172579853 800.912926663179,465.9902703250991 799.5156408889452,466.9705826699501 797.0730122240493,468.3058472890407 795.3593477689428,469.41193259565625 794.1764666597592,470.32990106462967 793.3374602241674,470.95973054144997 791.8705897815526,472.06131732056383 789.9587153352331,473.291924051824 789.6010926649906,473.498900588369 789.0193368745968,473.83494166174205 787.5274171164492,474.44405247690156 787.3348577850265,474.52260466798907 784.77082732087,475.46170396200614 784.1341086720349,475.50288260594243 782.86139955197,475.7687811132637 781.0401395484805,476.1493223097641 779.3256886615418,476.6300050748396 775.9582742188359,477.3599600927555 772.2114208997227,478.1944606669131 769.6482351218583,478.9043827468995 768.6926619876176,479.0924478606321 767.9644842098933,479.1335457766545 764.619759786874,479.9780943954829 763.9376902258955,480.17613269074354 763.2548051059712,480.29077371768653 761.3963497814257,480.6034125814331 761.0791846686043,480.6579290673253 759.1511446755612,480.9906355853309 756.3452426809818,481.5013508210541 753.0830062364694,482.0543640850228 751.1500728889368,482.3046736733522 751.1383637902327,482.3071571405744 750.0124844374368,482.5383197569172 748.5027388870949,482.8476711521507 747.5164657778805,482.8365756861167 744.8310917689232,483.2237550773425 740.600378879928,483.4952529417933 738.9822222223738,483.5475256589707 738.67315444618,483.5575796440244 737.7030468836892,483.60316304460866 734.1989097814076,483.7667104474385 729.2383879964473,483.8702143065748 724.7188506739913,483.89136369660264 720.637822009041,483.78673828742467 718.932487907703,483.76382643840043 716.0866817706265,483.72557325899834 714.70963933866,483.7569368609693 714.2824320000364,483.7667104474385 712.8713691022713,483.8301586388843 712.0218477796298,483.89248525502626 711.2022400000133,483.97592118242756 709.1398948978167,484.5389427061309 707.6228384426795,484.936133258685 706.1058111147722,485.6448740462074 704.2228016357403,486.59398423635866 703.8298477795906,486.7920171424048 700.1290735503426,488.7747406223207 699.708361557452,489.01619117707014 697.7325531023089,490.15106164931785 694.3659542186651,492.0914603872807 693.3343593245372,492.5287729508127 690.8310588871827,494.1342216162593 690.4370273280656,494.34330326790223 689.5729424498277,494.8018002756871 686.2653842204018,496.67875712760724 683.0420033421833,498.36881097592413 681.6082795520779,499.11984879133524 679.363890005392,500.18341786629753 676.5280162133276,501.85229952732334 673.9421695431229,503.419917176303 673.7059486720245,503.56346509204013 672.8256399929523,504.18980403075693 672.1427840001415,505.0442786580534 670.8838228766108,506.71308690228034 670.4145851165522,507.42292571172584 670.0051744427765,508.1527081783279 668.9582295609871,511.0943249046104 668.336016213405,512.5327988133649 667.8505546525121,514.1593022022862 667.7146475521149,515.0148231586209 667.4136771130143,516.3331630037865 667.0770842169877,517.8105746437213 666.9710906594992,518.3523313808837 666.4864737848984,519.9176399170537 666.4693761706585,519.9710261962609 666.1644444444682,520.9258896830142 665.7275377777405,522.2938987087691 665.2380566756474,523.2851177242701 664.8933664428769,523.9826531441649 664.4465274311369,525.1856837802916 664.1805386525812,525.9016361695249 663.7104853334604,527.0908806124353 663.6045209030854,529.8653478634078 663.2404028871097,531.9288969247718 662.8601193246432,533.2649261716288 662.0267635484925,534.5164482439868 661.0105768960202,536.7468335519079 660.2524273210438,538.5823387331911 659.2516197831137,541.4189466995886 658.4449735681992,543.6292457890813 657.279044437455,546.2144300685613 656.6584913352272,547.5593109052279 656.3396951040486,548.3479192347149 654.8971166720148,551.1277101639425 654.207794460468,552.5281454009237 653.7728101831162,553.3435272029019 652.2772786631249,556.1466065431014 652.1381384534761,556.4068908424233 651.7772826738656,556.9252161621698 650.5086513493443,559.2744045065483 650.2076517830137,559.9718767440063 649.9131475627655,560.6526090002735 648.2868644410046,559.7972085484071 646.6684747663094,558.9455291148624 641.8918615609873,556.431798033067 639.9824337919708,555.4269390271511 637.5664855609648,554.1388441828312 636.0759056499228,553.3435272029019 630.6722439965233,550.4603261740995 624.8719002169091,547.347912340716 618.8215584427817,544.1154015702195 617.61924955016,543.692678361258 617.4453024427639,543.6314883551095 612.7129333191551,541.5869003413245 609.4968342187349,540.1897659905953 607.828520675539,539.4399763231049 606.0226397867082,538.7725202100119 602.3526237867773,537.3130567811895 600.9715035591507,536.7490361343953 599.8783630791586,536.284170647501 598.6664131128928,535.7678837806452 598.5045828836737,535.8479779987247 597.3937039928278,536.401988982805 597.2205724444939,536.4876094778883 596.2690771059133,537.1884309172747 595.8896382293897,537.85589137848 595.7990237866761,538.7513755931868 595.9664755485719,540.0662629005383 596.008564224001,540.2531193673494 596.1574620160973,540.9094786003698 596.2456297815079,541.2932016461273 596.2877184570534,541.4790159695549 596.3427104427246,541.7237380224979 596.4066444516648,542.0051820950466 596.701148671913,542.9028535570833 596.9665257815504,543.6314883551095 597.2464664463187,545.3222971159266 597.3953351110686,546.2489091515308 597.614604003611,547.1110047709662 597.9204095432069,548.4369393512607 598.334684444475,549.6549859570223 598.655898225843,550.4080277954927 598.9536646826891,551.1176990171662 599.2675675591454,552.0231855523307 599.6130442240974,552.7350544983055 599.9403164444957,553.3435272029019 600.012726442772,553.4781157936086 600.1074186809128,553.6382925376529 600.5378008746775,554.3724212498637 600.9715035591507,554.9374822102254 600.976338659646,554.9441695512505 603.0136344463099,557.1098973207409 603.6018273280933,557.6371108025196 604.5347395698773,558.7260516943643 606.0161735680886,560.2554620248848 606.3219791074516,560.600312813418 606.5808899982367,560.8906245818362 606.8446359892841,561.147580240271 607.1132753352867,561.4078591871075 607.7791793494252,562.001814701187 608.5866119964048,562.7882138946443 609.7153166790958,564.1229524251539 612.7323611023603,567.6455410140334 615.0374515483854,570.3716961306636 615.5059320036089,570.9122546681319 616.2454402274452,571.767575985461 616.5577411128907,572.1279464089894 617.61924955016,573.2089743938996 618.1872573440196,573.7874853589456 618.8644335501594,574.4981694610324 619.5643289032159,575.2322352082119 619.8499202275416,575.5325396535918 621.1347170987865,576.8461069796467 621.8467293299036,577.6001857550582 623.6963300126372,579.7879339110805 624.7157789013581,580.9835614535841 625.6251855645096,582.01678295905 627.5774884410203,584.2568225393188 629.6609506987734,586.7114091257681 629.8186740054516,586.8971487125382 630.7822862223256,588.1249722990906 632.4522600107593,590.0001279454445 632.8446604517521,590.5072510846658 633.0703664355678,590.7975671951426 633.6035673316801,591.7440249371575 633.9959968995536,592.7026905079256 634.2071684552357,593.3922195138875 634.2540922310436,593.9850159108755 634.1990419911454,594.5232798737707 633.9401602274738,595.3429250008776 633.7144251164282,596.0113068832434 633.3438700090628,596.6852921211394 633.0630846578861,597.1968854667502 632.2952940090327,598.4991655348567 631.8252115627984,599.4256150295259 631.4489766684128,600.1039948244579 631.1827840000624,600.5877556531923 630.3833904355997,601.8055411085952 629.803294890793,602.5818025880144 629.4262444373453,603.1411865485716 628.5330033210339,604.3800580982352 627.4439988908125,605.5989055298269 626.582331562764,606.3629440785735 625.8298617742257,606.9023016426363 624.718196451664,607.4672405759338 624.5361228800612,607.5595619861269 623.4859448890202,608.0544377776096 621.8791186773451,608.7328335433267 621.1193962382386,609.0241688133101 619.7787044409197,609.4556662536343 618.1249253263231,609.9617079250165 617.61924955016,610.1516334199114 616.4151930313092,610.6037868154817 616.0876586667728,610.7267736747162 614.3238664534874,611.3839836499537 613.6183495681034,611.6853644338553 612.9840193422278,612.051240523695 611.7282913280651,612.6250551499543 610.9774817849975,612.9675897689885 609.6376346737379,613.7215966032236 608.4547244373243,614.3565795199829 607.3883517725626,615.0038112051552 605.8365175465588,616.1013828168507 604.1754857815104,617.3624470915529 602.4901620054152,618.752492651809 601.228783331695,619.8734267805121 601.0196506739594,620.0747139761806 600.2327817672631,620.8319814968272 599.7247175680241,621.3213057296234 599.4180673423689,621.6171096175676 597.7634726684773,623.4052562771831 596.7375284337904,624.7630011440488 594.8798886685399,626.8313497126219 593.8928000000305,628.0589717447292 593.3466666666791,628.7881521197269 593.1015328996582,629.1154118847335 592.2074470970547,630.1484289648943 591.7527728925925,630.7622323859832 591.3376824320294,631.2470531284926 590.9930504534859,631.5272727521951 590.835501909256,631.7191029142123 590.2171042134287,632.4724911934463 590.029409109382,632.7015095591778 588.9314626561245,633.9836241261219 587.9524713244755,635.028909983288 586.74614289077,636.1586559080752 585.7266940018162,637.0960504203686 584.8723084516823,637.8721592644579 583.6263088925043,638.8084263302153 581.8155929032946,640.285134217469 580.6787908836268,641.2324802392977 579.3632357832976,642.255438473192 578.7750137742842,642.6968843526556 578.1876073244493,643.0638346295455 577.6932911217446,643.4518798421486 576.8542555590393,643.9366752972128 575.5920904533705,644.6149710076861 574.9108364515705,645.0886760790017 574.2530297742924,645.4333265609457 573.7295864605112,645.7146506574936 572.8743562242016,646.1761047320906 571.408272213419,646.897745417722 570.1776517690159,647.6415998929297 569.0740837833146,648.3877737509902 568.3119437937858,648.9025006853626 567.9283979947213,649.3216787012061 567.779529329855,649.9243459050194 567.767383324448,650.110037232691 567.7245082170703,650.7538114362396 567.9283979947213,651.6588871179265 568.100743111223,652.143666219723 568.6727413190529,653.4134698688285 568.6837804943789,653.4334837433998 568.8879906703951,653.8048208727269 569.0740837833146,654.1441753606778 569.2763424427249,654.5131097510457 570.5231284337351,657.1949421467143 570.8904504320817,657.733066268207 572.5523268835386,660.8674034783617 573.1090042311698,662.1048603606177 573.9132037690142,663.752618331695 574.1033455502475,664.1406705749105 574.6365464462433,665.2391412537545 574.9658284373581,665.7883747334708 575.094482887187,666.1508473377326 575.2482157796621,666.5855255655479 576.1462919963524,668.3255915722111 576.2822282242123,668.5890379380435 577.2232086756267,670.3968518780894 578.6261451094178,672.6816257858882 580.2710113280918,675.6000406310195 581.0711913245032,677.2577131728176 581.964432440931,679.7669541243231 582.2856462224154,680.8331755783875 582.4748850631295,681.5251764168497 582.6618811164517,682.2650828287588 583.1003897743067,684.1606049689581 583.2573557761498,685.151164601557 583.3746797797503,685.829345426755 583.4927902152995,686.6164650564897 583.5040332800709,686.7876403261907 583.5332477726042,687.2301260392414 583.6894273423823,688.4897010808345 583.759798442712,689.4691170256119 583.7759639893193,690.266190282884 583.7840613262961,691.0744269436691 583.7678957796888,691.6981220695307 583.8463933442254,692.6997769381851 583.8463933442254,693.981495346583 583.8067222188693,694.6485257336753 583.861743331654,695.403360039636 583.9402408960741,695.9847821638687 583.9086962345755,700.8506161655532 584.1125860125758,703.2640471813502 584.6303786666831,707.3559718596516 584.7565864390926,708.088516322663 585.767151559121,711.275589320052 585.9006411094451,711.5846099242917 586.3165180018404,712.5450444174348 587.3351513316156,714.4947948172339 587.6094122099457,715.108425521641 587.9071786666755,715.7119702681084 588.3672122596763,716.4139963311609 588.8869855572702,717.2070996663533 589.7567502224119,718.5310270399204 590.4703644445399,719.7370576225803 590.7013424356701,720.1372257171897 591.4962795519968,721.514439201972 591.8644171094056,722.0635856993031 592.5853131094482,723.3885670933523 593.3466666666791,725.0119005669258 593.5190117831808,725.3793669884908 593.7463488853537,726.0362673565396 593.988249543123,726.7677151867538 595.132333340589,729.4064953036141 595.399312440888,730.0523006072617 595.5797548943665,730.7636888392153 595.8386366579216,732.4865298316581 595.9017551074503,733.2935058791772 595.8321704391856,733.6591591424658 595.8629286685027,734.2616175120929 595.6517571130535,734.9507854828844 595.3224751218222,735.5643246001564 595.06353510404,736.1667382399901 594.5465580089949,736.8136459992966 593.9971624391619,737.2549203744857 593.5343908979557,737.5572656850563 593.3466666666791,737.617286546505 592.8604186737211,737.7729005639558 592.8102617885452,737.7817436307087 592.1338428872405,737.9062667796388 591.836105557275,737.9618060042849 591.2851079964312,738.0629609858734 589.9533873493783,738.1274232565193 589.3967100017471,738.2030093483627 588.0649602275807,738.1607547651511 587.3311026631854,738.1707982321968 584.890891548479,738.2030093483627 583.143439644482,738.2432632343262 581.8010002205847,738.2741538856062 581.0971144534415,738.289719251392 580.1876786631765,738.343057630409 579.4595008853357,738.2463843106525 578.8632106666919,738.0852086740779 576.5201093405485,737.6761870040209 575.9092264390783,737.4928032635944 575.7466097779106,737.4271804208402 575.1325228943024,737.1815347568481 574.5216399929486,736.9448119698209 573.1114217814757,736.4391143459943 572.4924415432615,736.1267240954912 571.7246508942917,735.8255374195287 571.0968160142656,735.4698509609443 569.5214762098622,734.4683721096953 569.0740837833146,734.1612612400204 568.5028720070841,733.7692391538294 567.9696711112047,733.5324730336433 567.3814491024241,733.123443712655 566.7859744426096,732.6810414349893 565.3514642205555,731.6362550058402 564.6152182329679,731.0349105572677 564.0124035414774,730.5713765320252 563.46388178505,730.2378907851526 562.2251640035538,729.225306172797 561.4808206789894,728.503909594263 560.8060037689283,727.9436933366815 560.2421028978424,727.3623875753256 559.8933639964089,727.0089296246297 559.051095324452,726.1563147467677 558.3455784391845,725.4238246655441 557.7339091059985,724.9391915294109 557.2169320107205,724.5746055987547 557.2096211059252,724.5679629347869 555.4215368817095,723.1206982223666 554.9287935432512,722.7749572657631 553.8705182152335,722.0336133691017 553.3535119929584,721.7478956432897 553.1496222151909,721.6344888226013 551.9190017706715,720.8597675618366 551.4254719999153,720.6229888827074 550.652205454302,720.1372257171897 550.3283411059529,719.9337803400122 549.1365762277273,719.2446498795762 547.9375004444737,718.6521986087901 547.2861891129287,718.3086922605289 546.9730726686539,718.1975247946684 546.4091426704545,717.9963187554968 545.0854611059185,717.5227956126328 544.8014717724873,717.4695327049703 544.1129359928891,717.3404771517962 543.2585504426388,717.1782072041533 542.1144957725191,717.1882115196204 541.2528575715842,717.3293923771707 540.4219193458557,717.6517710345797 539.3175066737458,718.1263743885793 537.929891100619,718.9011443673517 536.7697000106564,719.7737130474998 536.3271135573741,720.1372257171897 536.2445673244074,720.2050541438512 535.6563744426239,720.6463586324826 535.116736455122,721.1787801482715 534.9273811059538,721.3666580374702 534.4104040106758,722.1847555095446 534.0495482312981,722.949508490623 533.7995211095549,723.6709215328447 533.5802522170125,724.4245453765616 533.4710255503887,725.0914923283854 533.3456042098114,726.3297431053943 533.3213704533409,727.2445416383562 533.3213704533409,727.8692645083065 533.282514887047,728.569534842798 533.314059548662,731.0471151273814 533.36098332447,731.8863078996073 533.314059548662,732.6832822589204 533.36098332447,733.4580459142453 533.314059548662,735.2019553717109 533.297894001822,736.8170071782079 533.3294386632042,738.8843634889345 533.3294386632042,739.9824968389003 533.282514887047,740.7361101909191 533.1886673351983,742.308831400238 532.8706866631983,742.3355201573577 530.1173882312141,742.5622344292933 529.0040917904116,742.6534242436755 525.4303408924025,743.0623975367052 523.86475867033,743.2136066450039 522.1745997939724,743.3758592354134 520.74329355394,743.5137038296089 520.5288888888899,743.5353508256376 515.414634211571,744.0527574701118 511.480056661414,744.4762130369782 508.01634798943996,744.8496519802138 501.1229511112906,745.5454320638091 499.47403622407,745.7121645080042 497.9715433245292,745.875575796701 496.256306005409,746.0626343729091 492.76428578130435,746.44347318582 484.6442879999522,747.3271065647132 481.0527404374443,747.6883373989258 480.7291382330004,747.7205872678896 475.44416955742054,748.2529495620984 471.98369399481453,748.6150592884514 465.8314073316287,749.2588130286313 461.2778786702547,749.734515099728 460.8668660054682,749.7767676737276 460.5788280037232,749.8074167899322 452.09477046050597,750.7292491784901 447.71111111110076,751.2069489591522 446.14876199827995,751.3772385612829 441.9633708943147,751.8284494146938 440.5717066525249,751.9751717848121 438.0765035520308,752.2374873152585 436.86691288184375,752.3108283822658 435.1055382186314,752.5530978166498 434.4728682382265,752.4908800080302 434.1637422081549,752.525289859157 433.6427164445631,752.582026091346 433.2737633282086,752.6231578508741 433.87573333340697,751.9051115640323 435.91384467913304,749.4766782106017 436.86691288184375,748.3096467779251 438.61535510758404,746.1311758001684 442.08957866660785,741.8187100606738 443.02974355919287,740.754996510339 444.6673571271822,738.6087089927169 446.91739733342547,735.856668463035 447.29200110933743,735.3987456181785 447.71111111110076,734.8615134716383 448.8851084515918,733.3568890188471 451.2816288996255,730.3557752878987 452.1651415609522,729.2297878843965 452.3277873493498,729.021908407798 452.81321978312917,728.3338840963552 452.40704221860506,728.3382857935503 450.20392578840256,728.3561326737399 447.71111111110076,728.6267968593747 444.43996177066583,728.9818930887268 438.60079155198764,729.5643154084682 438.372638890869,727.6058022790239 438.11532999109477,725.2926925019128 437.96322821697686,724.7924928768771 437.7512702293461,724.5012561736512 437.40174489608034,724.4389911778853 436.8661264498951,724.4946135078208 423.4385282275034,725.7918506868882 422.22005378850736,725.9095772798755 417.83316132996697,726.3775219162344 407.9550219946541,727.4335352815106 407.5763695501955,727.4735508550657 407.2333395626629,724.285609536164 406.78661705949344,720.1372257171897 406.21225955558475,714.8027308571618 405.7259824356297,707.9674195314292 405.05850555736106,701.0473541503306 404.3594548908295,694.6707773908856 404.2769086578628,693.9114984716871 403.6838806755841,688.4296681022388 403.5062052978901,686.7876403261907 403.3578026667237,685.4157934258692 402.6603831182001,679.0809918384766 402.327023331658,675.2031613225117 402.14334776904434,673.4254014374455 401.4774728817865,666.991384646506 400.2929606543621,656.6934817630099 399.92890089261346,654.0661214687279 399.16591621702537,654.1533016601461 398.62546267034486,654.2151443391922"/></g></g></svg>