<svg width="1200" height="800" version="1.1" xmlns:xlink="http://www.w3.org/1999/xlink" xmlns="http://www.w3.org/2000/svg"><g class="geojson-features"><g class="geojson-feature" stroke="#555555" stroke-opacity="0.0" stroke-width="0.0" fill="#111" fill-opacity="1.0" data-properties="{&amp;quot;N03_002&amp;quot;:&amp;quot;空知総合振興局&amp;quot;,&amp;quot;fill-opacity&amp;quot;:1,&amp;quot;description&amp;quot;:&amp;quot;樺戸郡浦臼町&amp;quot;,&amp;quot;N03_001&amp;quot;:&amp;quot;北海道&amp;quot;,&amp;quot;stroke-opacity&amp;quot;:0,&amp;quot;N03_007&amp;quot;:&amp;quot;01431&amp;quot;,&amp;quot;fill&amp;quot;:&amp;quot;#111&amp;quot;,&amp;quot;N03_004&amp;quot;:&amp;quot;浦臼町&amp;quot;,&amp;quot;title&amp;quot;:&amp;quot;樺戸郡浦臼町&amp;quot;,&amp;quot;stroke-width&amp;quot;:0,&amp;quot;N03_003&amp;quot;:&amp;quot;樺戸郡&amp;quot;}"><title>
      樺戸郡浦臼町
    </title><desc>
      樺戸郡浦臼町
    </desc><polygon points="439.12345110764727,520.1895745522925 437.7431464390829,518.8644351340481 437.4017184426775,518.3422105198842 437.014968661475,517.6217094834428 436.9090042312164,517.1729636971722 436.9461995519232,516.558292069356 437.0331148515688,516.2353412970551 437.2496166684432,515.4302074375446 438.09188534063287,514.1997714135796 438.3151737743756,513.8617842629319 439.1542093369644,512.5917325061164 439.84274511644617,511.85008751996793 440.18414398585446,511.1507743570255 440.3435566648841,510.159649644047 440.54098022414837,509.35453573346604 440.8743400106905,508.3110868157819 440.95845910767093,507.4858818388311 440.9964991147863,506.01374351402046 441.072550001787,505.08610055805184 441.0102471112041,503.3443800996756 440.93661377439275,502.6506150253117 440.89697177615017,501.47347497503506 440.7836964408634,500.9522954178392 440.5943993459223,500.04359613964334 440.3742857672041,499.2818673097063 439.95680688356515,498.2272297554882 439.5700571022462,497.38306739134714 439.06924555369187,496.4643318791059 438.62182400003076,495.57566164265154 437.62095820810646,494.0310050335247 437.2795593388146,493.5098095050198 437.0214640070917,493.092210803763 436.255246222252,492.5275533533422 436.1144748943625,492.4039491652511 434.8749415539205,491.3158447096939 434.42752000002656,490.7423226950341 434.1548611129401,490.2300206546788 433.760829553823,489.8246846543043 432.8886182116112,488.8746882812702 432.4784211060032,488.2688055560575 432.31985311291646,487.7777074709884 432.3344166686293,487.2553759171278 432.5115968853934,486.745271642867 432.9784753494896,486.0726283788681 433.50920044083614,485.6371352749993 434.34337177616544,484.9165773031418 434.9356133262627,484.2594852655893 435.43380343483295,483.42746282572625 435.54244755918626,483.24603889568243 435.6662377815228,482.82617729413323 435.85314645338804,482.1924543309142 435.9291682133917,481.55540191347245 435.7778819982195,480.65885876549874 435.52706844441127,479.81355278712 435.4364540018141,478.6853375629871 435.1710768925259,477.00356986094266 434.8604071253212,475.8241403661086 434.45746267028153,474.7070530487108 434.22202823113184,474.299405713391 433.57718311820645,473.8817338820663 432.8570735503454,473.61109081242466 431.8562660125317,473.5799367685104 430.59730488888454,473.6645779259852 428.882854001713,473.46522409666795 426.18294556438923,473.33936486701714 424.8026117689442,473.15223985823104 424.47656288708095,472.89161982847145 424.4722812017426,472.8734566066414 424.26378934050445,471.98281554860296 424.01376221876126,470.7186794184381 423.6342942152405,469.30975008709356 423.2855844409205,468.4532578752842 423.14967734052334,468.00438113335986 423.1723382330965,467.7126007822808 423.50566889252514,467.0754702821141 424.03645223833155,466.4072232428589 424.2864211059641,465.5317550901673 424.31717933516484,464.8423327251803 424.14969844627194,463.80871676735114 423.9911013263045,463.15044489636784 424.08174489613157,462.252751172462 424.6432282170281,461.0097358021885 425.0380753352074,459.7043222300126 425.0307935574092,458.71186479652533 424.9948798294645,458.3307353638229 424.9167026632931,457.5011903499253 424.7646300160559,456.33165056741564 424.8099226738559,455.4762353306869 425.0453571130056,454.9015059118974 425.4838948978577,454.39021091366885 426.3132020053454,453.811027983902 426.7290497707436,453.1727783436654 426.9572315592086,452.6882656698581 427.46777156263124,451.83283759793267 427.88123090506997,450.8403479915578 428.2606697814772,450.1085792898666 428.4119559964165,449.4569267583429 428.41649982589297,449.41237645375077 428.48317178327125,448.7529828703846 428.82136667042505,448.1670898788143 428.86747488717083,447.8017431194312 428.74613134237006,446.76913731504465 428.6700804551365,445.9638132166583 428.75987933878787,445.09276255447185 428.92817578685936,444.157067324908 428.844843121944,443.5311030880548 428.594815999968,442.9050971370307 428.27604889613576,442.7379988692701 427.7905873352429,442.6744798431755 427.3957693441771,442.45505035232054 427.16837398766074,442.01727348950226 426.93293954851106,440.6282279829611 426.72826333879493,439.7181801186525 426.38520422414877,439.47312346374383 425.9143353459658,439.1278141164221 425.63354999478906,438.7847098354832 425.5356829013908,438.502879542124 425.5356829013908,438.2099409066723 425.6570264461916,437.73983481223695 425.90702444082126,437.08265520312125 426.3625433315756,434.9093943211483 426.5445877760649,432.83187764364993 426.7946148979245,431.50513858610066 427.2800473315874,429.6671254217508 427.93135866324883,427.80014408176066 428.32005996094085,426.705574229185 428.43217021168675,426.38984280545264 428.6829837653786,426.03448906337144 429.3658688853029,425.28255385759985 430.5487499947194,423.19384610140696 431.05687244806904,422.09769143356243 431.23891689255834,421.355770015507 431.3829213298159,420.23839197761845 431.47356489964295,419.05756380065577 431.4209322098177,417.1258923377609 431.27692777256016,416.30262329377 431.1483607040718,415.99401699675946 430.5107391147176,414.4633319872082 429.5924195556436,412.96941389591666 428.52281378151383,411.85207747033564 427.893347783247,411.3195160626201 426.2169077760773,410.5887110910844 425.24598465429153,410.28571233607363 423.72895732626785,409.8790797921247 422.27344645699486,409.34651405655313 422.2548051059712,409.3348833436612 421.8259957761038,409.06468969467096 421.61400866147596,408.75162243063096 421.55333688890096,408.56340488162823 421.7345657743281,407.8737806318095 421.74994488887023,407.5607519381447 421.74184755200986,407.0805198175949 421.4918495573802,406.35972868528916 420.72566089965403,404.7409889192786 419.9456951182801,402.9974656562554 419.40681443561334,402.26667573931627 418.35986955382396,401.20271291717654 418.07183155207895,400.80492887611035 417.7684435626725,399.9281412427663 417.6224002275849,399.4118774488452 417.48768733872566,398.9355196476681 417.1163166720653,398.1210928373039 416.3500988871092,396.92006299021887 415.7732073244406,395.9062520053121 415.5232093298109,395.4260770456167 415.3638257778948,394.5481068424415 415.0151160036912,393.5665733063943 414.446321777883,392.7109368991223 413.36861866677646,391.16562576038996 412.8985653476557,390.6955087793176 412.42117199650966,389.91225921799196 411.4421806650935,388.51284811337246 410.9712826596806,387.9379601533874 410.0311468942091,387.1758795476053 408.7649331201101,386.47733029705705 408.0974271148443,386.0695347977453 407.4072893441189,385.71412203100044 406.2850800070446,384.868445322616 405.71549934952054,384.429481635103 404.94928156456444,383.7197337524267 403.3650579911191,382.69579994899686 403.13148768711835,382.57105685654096 402.75828201242257,382.37162821681704 401.8019224462332,382.15214421472047 399.45879199297633,381.23401545360684 397.9822222223738,380.54186681006104 397.3195804443676,380.2312496237573 396.7507862187922,380.00173599802656 395.9773157831514,379.4056092404644 394.99104267393705,378.61233561480185 393.9287186774891,377.7767020559404 393.5605811200803,377.4584602082032 393.21589088707697,377.1605142231565 392.84373378858436,376.8262671677512 392.1616642277222,376.5020474854391 391.2902684445726,376.1689226423623 390.67536600190215,376.04297285334906 389.49248489248566,375.64635092567187 389.09035599650815,375.42794385319576 388.51349356095307,374.8218180721742 387.3686233315384,372.72264811216155 386.76907087652944,371.3120268273633 386.65582466858905,370.69586269551655 386.63316377601586,370.09084824466845 386.52717021876015,369.6618458357407 386.16308132978156,369.02449807996163 385.4041744497372,368.1676520029432 384.6379566650139,367.1659553524223 384.44053310586605,366.72808281262405 384.3418213261757,365.8388974769041 384.5319631076418,365.0454992853338 385.13795265427325,363.8443458871916 385.75209779210854,362.9774932451546 386.8217035663547,362.1205857071909 387.5118413369637,361.6503723554779 388.22464000002947,361.2848953700741 388.945536000072,360.7834717637743 389.4229002241045,360.459190537571 390.2044971236028,359.70709229516797 390.84931310953107,359.1332191901747 391.47149732976686,358.67302862060023 393.02577823307365,357.87964711908717 393.81378309696447,357.3670646486571 394.2547384322388,356.84557565895375 394.5953799964627,356.165873250633 395.0055771023035,355.2365744910785 395.4910386631964,354.2024516549427 396.3423658666434,352.73042661946965 396.5299153351225,352.40621486410964 396.9393260088982,351.46574960876023 397.3487075555604,350.5664393372135 397.6909511111444,349.5123189382721 397.83891683560796,349.14345394290285 397.96360999834724,348.8325558769284 397.9822222223738,348.8070421597804 398.5178406685591,348.0703524815035 399.72256711125374,347.0562973272172 400.1926495573716,346.68076929997187 400.9815282346681,345.92862835974665 401.6263733477099,345.43716202746145 402.3844646685757,345.10287128260825 403.19597511109896,344.7373693784466 403.61345399473794,344.45542987593217 404.13695556274615,343.9963347429293 404.35701088712085,343.69321273389505 404.5237053440651,343.41127201815834 404.5616870969534,343.0446442945977 404.53177355381195,342.3259095326648 404.5544344461523,342.11641856923234 404.9710977707291,341.84450528700836 406.8214848852949,340.8304241190781 407.4436982331099,340.32895825232845 410.08293489785865,338.2818434840301 411.9033502151724,336.92345608130563 414.1639344356954,335.1894350305083 414.71734954672866,334.82391819619806 415.32418377965223,334.2811982985586 416.5523575466359,333.255932589469 417.78944420989137,332.25296851684107 418.52493289252743,331.5219254521071 419.80652578140143,330.36297175392974 420.16589607833885,330.0467940379749 420.7086506668711,329.5694575814996 421.178733112989,328.99442999152234 421.36887489433866,328.62890382652404 421.44413934950717,328.3570155513589 421.20139400532935,327.4688129678252 420.73128243209794,326.3086764438194 420.23859734775033,325.4940059004002 419.1697488782229,324.22020007658284 418.52493289252743,323.61394639569335 418.22879755380563,323.0199679734069 418.03947133163456,322.3301006319816 417.68994599813595,321.68147509748815 417.12115177256055,320.9927674458595 416.4989675520919,319.7813257029047 416.051545998198,319.0914491544827 415.67207799479365,318.73485502938274 414.98194022418465,317.8365869700792 414.26914156088606,317.2626549692359 413.3135975538753,316.74998670472996 411.43973398779053,315.89407944784034 411.1613661866868,315.7112865069648 410.61287355737295,315.35131721379 409.7334095645929,314.4842111020698 409.55943332985044,314.0451200957177 409.3539124338422,313.1256904845941 409.2479480037,312.269770444138 409.1411388871493,311.57987254072214 408.85310088528786,310.8699115862837 408.4817302187439,310.1276501023094 407.42668800009415,308.44475435855566 406.53184489242267,306.9925532800844 406.0164697886212,306.10427249537315 405.96305066684727,305.79215571883833 405.9929642098723,304.98748720646836 406.06985978316516,304.3499695805367 406.18395067739766,303.17973178456305 406.532398307696,301.5501524095889 406.53263132448774,301.54914931656094 406.78994022414554,299.6689042856451 406.9185655468609,298.44624166819267 406.97116910945624,297.1087367225555 407.1079208960291,296.7431223997264 407.60791688528843,295.9283927156357 407.87897378148045,295.48814463836607 408.1087575608399,295.11366029601777 408.2074693405302,294.50733389134984 408.00357956276275,293.7237738397089 407.66212243924383,292.6905123469187 407.2826835627202,292.10540616331855 406.6450911005959,291.3006521356874 405.8028806827497,290.0779473501025 405.4994344392326,289.5864080177853 405.23408645694144,289.0123690685141 404.82467578316573,288.489649769268 404.5059086792171,288.2288313974277 404.1417906632414,288.1552805659012 403.3229984425707,288.07165809860453 401.31322777608875,287.72725681733573 400.0009057850111,287.2780457432382 398.68127288890537,286.57916876353556 398.3179995592218,286.32729648944223 397.9822222223738,286.0099779809243 397.5890353494324,285.6384483598522 397.1796246757731,284.92728795768926 396.70954222942237,283.48497779940953 396.2166532551637,282.2745124619687 395.9352271077223,281.58340571267763 395.434415559168,280.85112654726254 394.38825710944366,279.555858974345 393.3712257706793,278.6786733145709 392.4610326756956,278.09457665798254 391.1260206650477,277.34214284532936 390.4286011165241,277.19615813647397 390.0038113279734,277.0077582790982 390.61064556101337,276.5474119419232 391.00546355196275,275.8363051483757 391.74902044434566,274.2478742073872 392.3857682205271,272.1378019354888 393.05327422590926,270.11017625971 393.1738313387614,269.3789058200782 393.1738313387614,268.81485134287504 392.9764077796135,268.0200925064273 392.6123188906349,267.20638998941286 392.0362428870285,266.1195228348952 391.99013467039913,265.5543772786041 392.1721791148884,264.53106840507826 392.4755671041785,263.569073868508 393.2037448819028,262.168974136177 393.6131555555621,261.3128341900883 393.67304089607205,260.62283151148586 393.71914911305066,259.51478599838447 394.02256622945424,258.8883052354213 394.5079986632336,258.17710654920666 395.1601546809543,257.78021166898543 397.0720000000438,256.7346373561304 397.9822222223738,256.13632154103834 398.37625378137454,255.87735455628717 398.6189699983224,255.1873364180792 398.58821176888887,254.30998238368193 398.4822473387467,252.74372377467807 398.5121900088852,250.61119112040615 398.4822473387467,249.3570582846296 398.37552560376935,248.83308969868813 398.2395311217988,248.16536522377282 398.02672844799235,247.30917585641146 398.0566419911338,246.38945318147307 398.22333644796163,245.55336417187937 398.232249344117,245.53329767932883 398.9968360105995,243.8387967814342 399.43694665969815,242.7306344709359 399.4822975714924,242.02163589413976 399.33098222943954,241.3103877590038 399.270281329751,240.3281940802699 399.4215675450396,239.596914129972 400.4224333369639,237.4441586046596 401.0591811130289,236.50433128722943 401.575371776009,236.00264975777827 402.3189286686247,235.56341669347603 402.9710555592319,235.2289344018791 403.45648799289484,234.6648005171446 404.5479391005356,232.67812051414512 405.412053105887,231.3402930731536 405.92745733691845,230.56660298153292 406.03426645335276,229.8976642928319 408.5529460052494,227.91206905123545 409.76574065792374,227.284342724015 410.70593467738945,227.13828775280854 412.177640220616,227.13828775280854 413.0797651059693,227.0870340365218 413.76990287657827,226.80495779030025 414.59679243387654,226.3868999615661 415.3557284408016,226.09258135955315 416.2659506632481,225.94648553448496 417.66973178321496,225.94648553448496 419.633365105954,225.92641741986154 420.8542862223694,226.02117904287297 421.2564151183469,226.06243906886084 421.58977490500547,225.9364514774643 422.0833046756452,225.6331819386105 422.2548051059712,225.49619677761802 422.60674798942637,225.21512209030334 423.160163100576,224.29531564214267 424.2832171234768,222.86376283876598 425.16993376717437,222.01647482340923 426.2088104391005,220.9729137500981 428.39334377250634,218.92479167983402 431.6766099912347,216.16420658753486 432.7883335680235,215.38709649798693 433.12489733705297,215.15184771222994 433.7856749796774,214.83018145523965 433.8991833316395,214.77495146845467 435.081248881761,214.08485654031392 435.7568230970064,213.6042815091787 436.34830734238494,212.97655829158612 437.25852956448216,211.59735970391193 438.25205532449763,209.70525875635212 439.30549555190373,207.8031483803643 439.65502088540234,206.96692635893123 440.0110124372877,205.49288385210093 440.29907956626266,204.3856702563353 440.40504399640486,203.58066531887744 440.46571576897986,202.84923443221487 440.5652722347295,202.46232418244472 440.77723022236023,202.12783638219116 441.8314860089449,200.8009593161405 442.6575308800675,199.577798301063 443.49251777434256,198.3234015777125 444.09122554329224,197.7480628240155 444.1347997013945,197.7281930805766 444.78139244089834,197.43363899597898 445.47153021162376,197.2774906650302 446.28388534055557,197.03664471319644 446.5274171164492,196.8128986094962 446.6479451023042,196.70214943011524 447.18519466673024,196.06434717355296 447.9740442170296,194.98723669088213 448.7103193316143,193.63916594994953 449.4223315627314,192.3122424421599 449.58899689256214,191.74913270404795 449.7637595591368,191.0065066566458 449.98381488362793,189.89926706789993 450.3697782329982,189.06298331427388 450.85521066677757,188.36161548126256 452.1602800071705,187.26435933233006 452.3173916444648,187.1214113869355 452.8504177778959,186.6365277961595 453.7533582224278,185.14237051771488 454.40548511303496,183.7518538259901 454.8973837654339,182.87315749336267 455.1935482311528,182.56983410409885 455.7242733227322,182.2353188676061 456.34188458672725,181.9364907538984 456.8464826596901,181.6922575084609 457.67337221710477,181.1380350002437 458.21225289965514,180.6474390376825 458.682335345773,179.92593480134383 458.94043067726307,179.28812856797595 459.32718045881484,177.9611265375861 459.6079075555317,177.47939602728002 459.8927124480251,177.2396544534713 460.24788844096474,177.18497792596463 461.85797688900493,176.0130024641403 462.35235134582035,175.66286195389694 462.7520044373814,175.66286195389694 464.561963121756,176.847123280284 465.21406088536605,177.1425855437992 466.2060137814842,177.25972659687977 467.17122798925266,177.22512222046498 467.861394887208,177.05117694451474 468.27564066136256,176.66980560513912 468.89622289082035,175.15543431404512 469.758705777931,173.82848995918175 470.03937462042086,173.53643597470364 470.75875601079315,172.78801341593498 470.80000000004657,172.75694116408704 472.64470732817426,171.36735708644846 473.294416668592,170.99043293931754 474.1285880035721,170.6391209611902 476.1302613335429,169.94552821479738 477.6133264498785,169.73809634707868 478.78650823107455,169.70240696775727 478.9240464499453,169.4604496988468 478.89005511114374,169.14819720335072 478.717739121872,168.83594430616358 478.6141631146893,168.24716704984894 478.4070402274374,165.75028757093241 478.2686573227402,165.09233075816883 478.02757222403307,163.91363253520103 478.09637046058197,161.93861768028 478.30267778853886,159.9613384992117 478.543762887246,158.99114055215614 478.9232017636532,158.09007265756372 479.25656155019533,157.5904771637288 480.91922443383373,155.77262981043896 481.0244024320273,155.4336211901973 481.0454613334732,154.9261913668597 480.5826606650371,153.17195906164125 480.50984288717154,152.22847280511633 480.66599332995247,150.36043948453153 480.9928577708779,148.72658105677692 481.0626754560508,148.48123033699812 481.33833443559706,147.513234811835 481.5794486614177,146.88867289409973 482.32082102051936,146.19453041802626 483.09810710756574,145.4666603358346 483.7194757690886,145.08523931988748 485.2365322241094,144.56554218253586 485.96147689258214,144.11498185020173 486.34091576898936,143.55954925628612 486.6516146630747,142.38074635935482 486.8239597795764,141.82755820133025 487.03108266659547,141.51527012092993 489.2730546630919,140.44016574288253 490.6193971200846,139.608127962274 491.102382876561,139.05384941224474 491.34352622926235,138.4984453751822 493.1032697742339,133.81747064529918 494.6899108979851,130.24396276619518 495.0725828836439,128.86417311319383 495.44963333709165,127.50469278555829 495.69071843556594,126.9158151614829 496.3120870969724,125.771462763194 498.0362664392451,121.50627325859386 498.6228573297849,119.42723570205271 498.93352709698956,118.66431113908766 499.34780199825764,118.1088202391984 499.7061528463382,117.89242980798008 500.4392822328955,117.44960981915938 501.09461310575716,116.61749313835753 502.30257265781984,115.1273615010432 502.3628075235756,115.02139355888357 502.9927395556588,113.91268261458026 504.33742176706437,110.72256556426873 504.6829275591299,110.34108988661319 505.4993022293784,109.84922630846268 505.89088711107615,109.61271060700528 507.2363848818932,109.50902911816956 507.99532088893466,109.61271060700528 511.1701760001015,110.93117227294715 512.9987177813891,111.34722065151436 513.6888555519981,111.34722065151436 515.2754675485194,110.86198473587865 515.8968653369229,110.89655842928914 516.4146871182602,111.06946697784588 517.5530620019417,111.9707497865893 519.3451948942384,113.32140283862827 519.6235044409987,113.53121195657877 520.3832560072187,114.39899660099763 520.800909653306,115.02139355888357 521.3832771129673,115.88917286955984 522.8671577884816,119.25208449625643 523.4885264497716,120.08415198104922 523.9354528427357,120.47958581219427 524.3510093369987,120.84707207616884 527.2232628907077,122.39523033855949 529.8325568853179,123.98128325137077 531.2055797759676,125.28625571564771 531.5502408819739,125.771462763194 531.6894102186197,126.39487449731678 531.6894102186197,127.33071183896391 531.1165673244977,130.13354454899672 531.1028193280799,130.87081606977154 531.1715884375153,131.35593163769227 531.378711324418,131.91139218769968 532.1724542293232,133.26313870568993 533.0009749048622,134.1297686402686 533.345606883755,134.65061238303315 535.2089555627899,138.6021144678234 535.5196544569917,139.1219046881306 535.8990933332825,139.46872531983536 538.3562855538912,139.6014629760175 539.6953171058558,139.7810160361114 540.8604015503079,139.6014629760175 543.6177777777193,138.6957056983374 544.0077606685227,138.56754472496687 544.7399871147936,138.5017377328477 545.1958846579073,138.53602643031627 546.0782031075796,138.6021144678234 547.0968655645847,138.73485259863082 547.8031688819174,139.19100386020727 550.3226931201061,142.06958319462137 550.4455804019235,142.16851304931333 550.8396702150349,142.48557814350352 551.4262611058075,142.76217162969988 552.4214471111773,142.98520475957775 553.6690486613661,143.10790300619556 554.3931777707767,143.3855798295699 554.8762217813637,143.76700351916952 556.1529504427454,145.2581636380055 557.3956877654418,147.4763778342749 557.7063866595272,147.96262450498762 557.8491968853632,148.48123033699812 558.5947926756926,151.18902773881564 558.9491531094536,152.22734864917584 559.9370573369088,153.16525429987814 560.3626335575245,153.55111905751983 560.6992264534347,154.33288375131087 560.9953326649265,155.9823219020036 561.1425993386656,158.60416032455396 561.3108957867371,159.42942833679263 561.4904935539234,159.92568782810122 564.2146940019447,161.94532219949178 564.6305417669937,162.45602936751675 565.1090419484535,163.14209597057197 565.1143722097622,163.14972382877022 565.5278315520845,164.18903733312618 566.0456533333054,165.88855101243826 566.3563522276236,166.58111156517407 566.6670219948282,167.2056227645371 567.7366568959551,168.34977963514393 567.8903606614331,168.57680380385136 568.3232477867277,169.21620388817973 568.702686663135,169.9444041409297 568.8750317795202,171.85130772308912 569.048163328087,172.40446753747528 569.2544997831574,172.71667569491547 569.6347542187432,173.0980532511603 570.0142222222639,173.54855973471422 570.3249211165821,173.89537127577933 570.7731582294218,174.1384481744608 572.9123697777977,174.69272682379233 573.4301915592514,174.9703674816992 573.6025366757531,175.35174149362138 573.6926268303068,176.65210193151142 573.7060835555894,176.84599923848873 573.9819755521603,177.6076167250285 574.2587122347904,177.95442246116 579.916624440928,179.27134839637438 580.6763760071481,179.61815175355878 580.9522680036025,180.0340822931612 581.3317068801261,181.24622209521476 581.5040519965114,181.80040421243757 581.5664422684349,181.9364907538984 581.7112040107604,182.25205869076308 582.8495788942091,183.56896128872177 584.1610853262246,184.7130409599631 585.1619511182653,185.5103609416401 585.6101591041079,186.13365925481776 585.8389816890704,186.62364197848365 586.6458026667824,188.3515397266019 587.2113637832226,189.22572027228307 587.9063657814404,189.9449890216929 589.4630642348202,191.01987394550815 589.968710883637,191.40234669391066 590.6839270970086,191.65656549501 591.9825302187819,191.71348670584848 592.162972672144,191.77711159782484 592.6718815573258,191.9565056041465 593.3960106667364,192.33672893512994 594.9834673494333,193.23887384135742 595.3976839964744,193.68930277094478 595.6736051200423,194.13981114700437 596.0530439964496,195.8725525738555 596.3985206614016,196.49586439755512 596.8467577742413,196.9118061339832 597.3265395485796,197.06229481840273 600.5046568959951,198.05582286434947 600.711779783247,198.26427417382365 600.8501335609471,198.92214099585544 601.1608324551489,199.61569101631176 601.740112440777,200.2746781061287 602.455328654265,200.7184708028799 603.3396860018838,201.07861022721045 604.9910184391774,201.35176510724705 605.4052933405619,201.5591699370416 605.9222995627206,202.04418425488984 607.3373820019187,203.74343267583754 609.2104008817114,203.63637953373836 610.097175779636,203.70891235780437 610.9572411165573,204.10023600165732 611.3468744817656,204.31956000381615 611.6150477939518,204.47044548991835 611.9952731023077,205.09373521787347 615.2049351111054,213.65445434150752 616.2963862187462,210.4311298141838 616.4355555556249,210.15212488849647 616.538316003629,209.94609212852083 616.8481993387686,209.8067299130489 617.5043457706925,209.63393189338967 621.05866888538,209.84128950210288 622.4349540125113,209.70192722644424 623.1922589014284,209.44772733922582 626.2335953351576,208.17776752531063 627.4755170987919,207.76188524835743 628.0281457778765,207.69272533326875 630.0395475625992,207.75630589446519 632.1690597832203,207.6581654381589 634.8163937850622,207.58796187269036 635.5958644053899,207.27463456231635 638.7088826596737,206.02364936604863 640.7081384391058,205.31225552898832 641.5196780089755,205.02345063065877 644.4873811057769,203.87946676526917 645.6201344570145,203.4435071431799 646.5918148836354,202.56267444655532 648.1242213263176,201.07636236812687 649.7537084303331,199.82088960055262 650.9649302188773,199.0481426200131 651.701205333462,198.94221134501277 659.1399491130142,199.5086360523128 660.2750908872113,199.5755504280096 660.7621835662285,199.5086360523128 661.3139675591374,199.33470675797435 662.6254739910364,198.53751250484493 663.4192168961745,198.2263812472229 664.9807504498167,197.90136085043196 665.6957336462801,197.75251846323954 667.4209615645232,197.39349804649828 668.386991331703,197.0823653214611 668.9735822222428,196.73558693693485 670.7681326649617,195.17566011974122 674.3572626772802,192.81842993450118 676.0126146560069,191.88180160464253 677.0943664355436,191.45585589995608 677.8638464570977,191.153667220613 679.0718060089275,190.66867126524448 679.6235900018364,190.5995064759045 683.7296971093165,190.8080444780644 686.8357831110479,190.2181564414641 687.8018420054577,189.90597081411397 688.5267866738141,189.5591821684502 689.2533333332976,189.07245690433774 689.4572231110651,188.93585251655895 691.4588964409195,187.41043831652496 693.4945611093426,185.3653646723833 694.5302046720171,184.5681245001033 694.7261718757218,184.4339261611458 696.807769998326,183.00920328946086 698.912203776068,181.9364907538984 699.3256339911604,181.72569708467927 700.4648535610177,180.99753220763523 703.1558782292996,178.84871249692515 704.3646242134273,177.87301006988855 705.1801833246136,177.49613617855357 706.00774280529,177.32323484821245 707.6988920036238,177.0455968839815 709.3170777884079,176.92179176677018 711.0452766719973,176.42223506834125 711.7014231039211,176.4568395592505 712.1148824463598,176.59509689663537 713.5259162170114,177.62411600199994 715.393313564593,178.98592472652672 715.6004073246149,179.29812441114336 715.8762993210694,181.51723155978834 716.0486444374546,181.8639915616368 716.1693763131043,181.9364907538984 716.3941211021738,182.07141305773985 719.337590442854,183.2969103915966 719.8100904392777,183.49313069460914 720.0172424535267,184.35845712537412 720.1555671039969,184.6015636798693 720.8796962134074,184.94835941464407 721.1564328960376,185.3297177357599 721.2013177742483,185.45416084764292 721.293941987562,185.71107545716222 721.3287488855422,186.40349911747035 721.4662871039473,186.61204072763212 722.9501386525808,187.13164776319172 723.1451737884199,187.43608943989966 723.5715364409843,188.10285712504992 724.1233495610068,188.5533758783131 724.8134873316158,188.76079165324336 725.3661160108168,188.76079165324336 726.4356926577166,188.2757106279023 726.8151897884673,188.17202262638602 728.1954944569152,188.13745994947385 729.4374162204331,187.85983436519746 730.0935917797033,187.7215031646192 730.5175368819619,187.67582093417877 730.9641428765608,187.7605217237142 731.5281020018738,187.86649802530883 733.4974151111674,188.7250649309135 733.6357688889839,189.00276980921626 734.6705968924798,191.15149955335073 735.1884186738171,192.08813070354518 735.930344448192,192.83408520091325 736.2580244481796,193.16300612897612 736.4651182080852,193.43958196078893 736.7070771200815,195.27601339895045 736.844615338603,196.03869696264155 737.2240542152431,196.80137812817702 737.7985282276059,197.5647392910323 738.3980515556177,198.36129448900465 738.9846424463904,198.91547763952985 739.5121926828288,199.19758632191224 740.6748013226315,199.8175177941448 741.0203071148135,200.09404589689802 741.1926522311987,200.5455860273796 741.4369995663874,201.79776354547357 741.572091107606,202.48909763689153 742.1247197866905,203.4937222173903 743.2337927963817,204.95770180935506 743.3326793386368,205.0881156627438 744.0575948801124,205.60884716460714 744.7129840070847,205.91992881230544 745.8861366612837,206.26665392611176 748.6119682275457,206.3358142474899 749.1637522204546,206.40601817553397 750.3887220053002,206.98362433561124 750.8547557831043,207.20214294397738 751.8555924482644,207.8254256520304 752.476961109438,207.96478900598595 753.0287451022305,207.85998552350793 753.4769822150702,207.51322254835395 753.5489844338736,207.4073351097759 754.133157774224,206.54321481543593 754.4438566685421,206.40497454971774 754.7885469013127,206.439494484046 756.0312842240091,207.02817902743118 756.5830973440316,207.13189910707297 757.0661122276215,207.02817902743118 758.3428408887703,206.12728959624656 758.8258848995902,206.09272947802674 759.0329786596121,206.40497454971774 759.1365546666784,206.88993903802475 758.9642095502932,208.8311520231655 759.0127644444583,209.52017814741703 759.0329786596121,209.80115060601383 759.1713615646586,210.25162905594334 759.8614993350348,210.7377498766873 760.6891753245145,210.91054710990284 761.1236644409364,210.90159617603058 762.0711111112032,210.88068390340777 762.2766320072114,210.8759876730619 762.4489771235967,211.08446810307214 763.0355388871394,213.78715139854467 763.0355388871394,214.06366357498337 762.9319628800731,214.20302334451117 762.1722404409666,214.27218140329933 762.0711111112032,214.37385134003125 761.8971348765772,214.5486528885085 761.4243436089018,215.38709649798693 761.310543985921,215.58891015255358 761.2757662150543,216.0047790092649 761.3453508835519,216.24781370727578 762.000740010757,216.69828018423868 762.0694799930789,216.87107317120535 762.0694799930789,217.11414713878185 761.656457557343,218.12437053542817 761.2757662150543,219.055238160945 760.5176748941885,220.26826666435227 760.3453297778033,220.8926396353636 760.2870755556505,221.26499089202844 760.2417828977341,221.55044508504216 760.3793211166048,223.66432889009593 760.3275331129553,225.54179161280626 760.3105228800559,226.1627795692766 760.4140988872387,226.6488685029326 760.5791622258257,226.89193267235532 761.2571831183741,227.88529840280535 762.0711111112032,229.08014140918385 762.1617546810303,229.21311097749276 762.6107782258186,229.38701884780312 763.7491531093838,229.52420248964336 764.3357440001564,229.69698634004453 767.4418300020043,232.19320758327376 769.3051495539257,233.44068647990935 770.4095622258028,233.92567718675127 771.6167062186869,234.09962181345327 777.4138168890495,234.82533960480941 781.1057073493721,235.38056322041666 782.350862222258,235.3226087547373 782.5895588977728,235.31141117971856 782.8533340159338,235.26128296146635 783.325804885244,235.1709397652885 785.0904417849379,234.8354134291294 785.1430453476496,234.82533960480941 785.4885220123688,234.9301314370241 786.3436939948006,235.51164300681558 786.4853100089822,235.60796613589628 786.6616746668005,235.72724622441456 786.6859375503846,235.73619624209823 787.9084897849243,236.1788002946414 788.7661375716561,236.4898026045994 789.0849046757212,236.71166592667578 789.2151611164445,236.8020085490425 789.3842439964646,237.21671727619832 789.4902375539532,237.47646673431154 789.5258600107627,237.56343779031886 789.4999368818244,237.69271035434213 789.4214684444014,238.08630696038017 789.3875062330626,238.2557134401868 789.2135299983202,238.3761159835267 789.1787522276863,238.40067809494212 788.8356931130402,238.6369879557751 787.3170346667757,238.6035562248435 787.1487673458178,238.6392354668933 786.6616746668005,238.7429018964176 786.3436939948006,238.80635391682154 785.7344422115711,238.92800034338143 785.0928593351273,239.05727218009997 784.9358933332842,239.0885366096627 784.8477255681064,239.136496798601 784.7603442347609,239.1832930909004 783.9698635663372,239.60915499040857 783.1761497885454,240.68165262392722 783.0725446542492,241.2713376795873 783.2448897706345,241.79086776834447 783.7975184497191,242.31148034945363 785.1778231183998,243.52443269419018 786.3436939948006,244.0836095889681 786.6956368782558,244.25240988266887 786.6972679964965,244.25240988266887 787.9035964304348,244.39062858052785 788.8008862151764,244.2869645645842 789.8017520072171,244.00936310796533 792.5275544463657,242.1030267564929 793.3316083484096,241.70783132279757 795.2064331094734,240.7864017924876 797.3804515555967,240.1275247563608 798.348957127193,240.10745781485457 798.9767920071026,240.0940932307858 799.036648220499,240.09300961584086 800.7964208924677,240.16208002582425 804.5222735645948,240.5087963300175 804.817593344138,240.51549867755966 805.4777884443756,240.53111073194304 806.1064680106938,240.54559903859627 809.0426264462294,240.6113783479086 809.3533253405476,240.68052887782687 810.6163060052786,241.34393951791571 811.6656684373738,241.8945328508853 813.5977570987307,242.89899423840689 814.0468388978625,243.38396603561705 814.2879239965696,244.07734880549833 815.0468600037275,246.78078824147815 815.058190449723,247.277952619188 815.0816669013584,248.339259507542 815.059472042718,248.83308969868813 815.0128686650423,249.8642905825982 814.8405235486571,251.219834498188 814.4602691130713,252.60550983599387 814.0120320001151,253.95774764416274 813.4416357831797,254.79156032711035 813.2919515591348,255.010035872343 813.164928227663,255.19512190757087 812.7676635591779,255.77590266964398 812.4941891130293,256.1750080466154 810.6163060052786,258.7052686889656 808.4568511148682,261.6149354778463 807.9082711040974,262.41433026938466 807.3330106596695,263.2524880641722 806.8859095040243,264.00448401557514 805.628259100602,266.12064646329964 803.6961704392452,269.03114728839137 803.3167315627215,269.51606684864964 801.9890013297554,270.3108207845944 801.7155268837232,270.64854527416173 801.0205248852726,272.27600474702194 799.8845675520133,274.13527434767457 799.55607199308,275.02924998366507 799.8328086757101,282.06272254051873 799.8610328462673,282.2745124619687 799.9711624532938,283.10152666072827 800.2122475520009,283.79487617866835 800.9711835591588,285.52806073677493 802.1791431111051,286.91354013897944 804.5254775468493,288.54089051496703 805.9405891130446,289.37241756310686 806.3200571164489,289.9965725809452 806.3888262258843,290.377765791025 806.3548348870827,290.79350646113744 806.1129342294298,291.2092464188463 805.5936560925329,291.3331938467454 803.3523248924175,291.86794461717363 803.0076637867605,292.07527207327075 802.7317717903061,292.35281853727065 802.4210728959879,293.6000282582245 802.3174968889216,294.0503511270508 801.7648973369505,295.0211325210403 801.2478619876783,296.5804575536167 799.6612499912735,300.3911358069163 799.3853579948191,301.39535504061496 799.1782642347971,302.61130216612946 799.0050744322361,304.4134846913512 799.0398813297506,305.8345256248722 799.2818111148663,307.3937811696669 799.937141987728,309.2984811565839 800.765662663267,310.9267245879746 802.2147364408011,312.97078013414284 803.974509113119,315.01473821967375 804.8718571520876,315.7112865069648 805.0441148871323,315.84501103142975 807.3847986632027,317.0352884528111 807.7011773440754,317.1968964381376 809.376801792183,318.34592290077126 809.7855134151177,318.69425269484054 810.0709591041086,318.93766599619994 810.6163060052786,319.6247345304582 810.6688804408768,319.6910942145623 811.1867022223305,320.69627671543276 811.2231402383186,320.84789225051645 811.600947996485,322.42707134451484 811.7732931131031,323.36652577342466 811.8072553244419,324.09314008639194 811.4974011165323,324.7172459224239 810.6163060052786,325.7781740165083 810.4617575538578,325.9643294282141 808.9527984355809,327.5947478468297 806.390457344125,330.3651381775271 805.8038664533524,331.23106421960983 805.1484773261473,332.40902999893297 804.3200149049517,334.8328244409058 804.1136493226513,335.24848895537434 802.1953086578287,337.54857198451646 800.2146651023068,339.92557835712796 805.0740575573873,342.3626566841849 807.8904744392494,343.7745694987825 806.6720000001369,345.1719519231701 805.3378326757811,346.703073940007 804.211574670393,348.33447628706926 803.6488388837315,349.14345394290285 802.7527724374086,350.4316107056802 801.2769890987547,352.49755741807166 798.7567366827279,355.3168041712488 794.9410851271823,358.78671245998703 792.5372829013504,360.573956617387 791.052586666774,361.6770881358534 787.3081508977339,363.9903185933945 786.3436939948006,364.3064520926564 783.995728440932,365.07562431594124 782.1243115521502,365.58149161341134 778.2358713458525,365.72638022108003 774.9452942223288,365.246065330226 774.2753706667572,365.14802866830723 771.1862657705788,364.20095396524994 769.7792806685902,364.1062061782577 767.8293662151555,364.2666596483905 762.4602784427116,365.55028359085554 762.0711111112032,365.6917224887875 760.9578146702843,366.0962629543501 759.80647822225,366.80160983413225 759.4335055645788,367.1013335020398 758.8477011058712,367.5715764067718 757.1534935610835,370.45968140661716 756.4592779948143,372.1298728903057 754.5652293404564,376.6847545352648 753.6161515520653,379.51707727398025 753.3184433493298,380.40733560343506 753.0942811022978,381.39004544442287 752.8246223075548,382.57105685654096 752.6153148871381,383.4880173652782 752.4033277725102,384.3102746194927 751.0165568853263,389.6793855765136 749.4865679929499,394.726428502996 748.779449116555,397.05935789016075 747.8441193244653,399.7253979399684 746.3473353385925,403.98902786616236 744.5576199966017,408.0642446578713 742.6077346702805,411.08000542322407 741.7120468765497,412.13281574938446 739.9668960142881,414.18371934600873 738.3294572088635,415.99401699675946 737.7985282276059,416.58099024841795 735.5160986738047,419.1043655158137 732.8380064428784,421.98624295013724 732.4197120001772,422.5711163210799 730.5482951111626,425.19007569231326 729.6672291272553,426.70288732560584 728.645304433885,428.45959457033314 727.5206775467377,430.7788858382264 726.9891077689826,432.1133685783134 726.5619004302425,433.18501582887257 724.7633304464398,439.7059092464042 723.3012951039709,445.37795359495794 722.9679935717722,446.67225636180956 722.2863026632695,449.41237645375077 721.594125994714,452.1948500893777 721.0366913423641,454.0984142032685 718.6231606613146,459.8435410162201 716.2476991147269,465.10408410144737 713.6481044481043,471.17978032986866 713.5259162170114,471.3099309155368 713.0177937636618,471.8513421693351 712.1129309298703,472.5180505993776 711.9037108907942,472.672177546483 711.3834715591511,472.9706879655132 710.567096889019,473.30596544925356 710.3243515448412,473.40059043857036 708.2644239929505,474.20141307794256 706.2732655502623,474.78948858293006 704.4771131165326,475.3207079467247 700.6533642241266,476.40327079431154 696.2341406720225,477.8577866194537 693.8052600036608,478.5294101808686 692.6547391146887,478.9024890293949 692.0608664463507,479.20095169584965 691.01470799651,479.91042051900877 690.4823517868062,480.4461192274466 689.8585364480969,481.202374160639 689.271129998262,482.1612612940953 689.2533333332976,482.1901288861409 688.8608455111971,482.82617729413323 688.4628526648739,483.4709644552204 688.0955306666438,484.42992281832267 687.3617022292456,486.84442191704875 687.104393329937,489.11299960076576 686.5550268872175,493.14004064531764 686.2407744855154,496.8389868355007 685.8778215537313,501.1115359366522 685.7904693476157,502.1328056032653 685.7839740018826,502.21298675664 685.5347624392016,503.66847054229584 684.8292455538176,507.78992193110753 684.3955719964579,509.55273760308046 683.3615595520241,513.7632062591729 682.9942375537939,515.9770124406787 682.9598384356359,516.2353412970551 681.2320473317523,529.20354578353 681.0119920071447,532.7867771179881 680.8655117654707,542.079746643838 680.774081763695,546.1248690339271 680.6632531058276,547.302874958259 680.5168311182642,548.8705611447222 680.4378675201442,549.6399105329183 680.4325663858326,549.6912164387177 680.3331555555342,550.6597737061093 679.9844457815634,552.6327502721106 679.6365515663056,553.904276136891 679.2514037762303,555.0287350688595 678.576645120047,557.3946752204793 677.8184955448378,558.8276233980432 677.640528896125,559.164946771285 676.3184784498299,561.1556501592277 676.0417417671997,561.4184200240998 674.5376760036452,562.852386562794 672.9235388871748,564.3275472096866 670.6654013441876,566.1345216251211 668.4994511074619,567.6274978437577 664.9807504498167,569.3400204483769 663.6392722204328,569.9933153029415 660.0606862222776,571.0442746643093 657.8100634737639,571.7638958439929 657.6374562134733,571.8191649067448 656.2798124373658,572.1787541809026 652.075809109374,573.293148901721 649.2310515485005,574.1414962412091 648.3499564373633,574.5478137692553 647.5603204552317,575.0265926557477 645.7244677689159,576.1331590314512 642.2785848889034,578.6213318701484 640.7081384391058,579.9467465273337 639.0665344570298,581.3321900781593 637.0488120889058,583.039927049249 634.0170002205996,585.6059785641846 632.8074095502961,586.6300991981407 629.2288235520246,589.4510775582166 622.7909455643967,594.224503916048 620.5861980160698,595.837573005585 616.4355555556249,598.875568860909 612.732363776071,601.5860408043372 609.9127137849573,603.047621679143 609.0744937814306,603.4817422057386 608.038034659694,604.0194526811247 607.9174775468418,604.0628124993527 606.716799772461,604.4992154127103 604.0735435662791,605.291751555691 601.705334670376,605.9741232240922 599.6502422187477,606.4349674644764 597.2270413369406,606.785649309284 595.1209764408413,606.951472635672 592.2017991113244,606.951472635672 592.162972672144,606.9497094110702 590.6155948943924,606.879581144487 588.5681920000352,606.7867713620071 585.8698855539551,606.6387004135759 580.2346051130444,606.2513111209846 567.8903606614331,605.408205301268 564.0674273280893,605.1470458774711 558.3848735858919,604.7789697058033 557.7953991112299,604.7407795168692 556.1060266667046,604.7964418153861 555.0598973439774,604.9066042389604 553.830063331523,605.220540824288 552.6560951183783,605.5155222270405 550.8202715592925,606.049821959692 548.4706748871831,606.8613077186164 546.5660822186619,607.6972754733288 544.4373855574522,608.8950193808996 543.6177777777193,609.4282297148602 539.9032555520535,611.8448127612937 538.9857806792716,612.5449581589783 538.471978439251,613.0971146709635 536.9387564375065,614.8903023125604 535.8180908374488,616.4353126549395 535.4047188765835,617.005252131843 534.4435242098989,618.384353473084 532.840746666654,621.0279297349625 532.0544603023445,622.5472958683386 532.0170902186073,622.6196235020761 531.2525035521248,623.933057529619 531.1481411129935,624.1144966346328 530.932105329819,624.6253944468335 530.3236982328817,626.06792364805 529.5267222186085,628.1070042077918 529.36250356643,628.5277367481613 528.8284871111391,630.2307344212895 528.0574342258042,632.6871796551859 525.2191428836668,643.7037136012805 524.3493782186415,647.4733294657199 523.9405500872526,649.8261094009504 523.662444430287,651.4265092070564 523.4116600037087,654.1832717243815 523.2080323699629,657.025221312826 523.0686300160596,658.9710519724758 522.9536944356514,660.6949502893258 522.816185344127,662.0960794229177 522.806486016023,662.1728824762977 522.6559571058024,663.3135872540879 522.4504653370241,664.3708337515127 522.1389800108736,665.233326180547 521.4205015610205,667.2209172723815 521.0839086648775,668.2236207825481 520.4431122203823,670.1243711902644 520.2934279965702,670.5673059172113 520.1518411093857,670.9879649596405 519.3451948942384,673.3810203063185 518.6307651129318,675.5005490578478 517.9673077760963,676.9015928469016 516.7771740159951,678.8100473147351 515.3814902328886,681.084685289592 513.8115971982479,683.2123593150172 513.5496862152359,683.56733706448 512.4048451129347,684.8771167488303 511.8101860124152,685.7261162162758 510.8530108872801,686.996945861436 510.3910257779062,687.6111864877748 509.24536911654286,689.4539391141734 508.8456868978683,690.0960149433231 508.62883555563167,690.4443327595945 508.41521732276306,690.0426155145396 508.2598824391607,689.7488182976958 508.0713717760518,689.3949712464819 507.5754244553391,688.4613782015513 507.417642894201,688.0295726795448 507.0033679929329,686.8979172919644 506.7291071147192,685.9576245925855 506.6603380055167,684.4174628012697 506.75028252461925,683.2123593150172 506.7736133405706,682.9007668624399 506.7736133405706,681.7501387649681 506.7736133405706,681.2682850908604 506.47587601083796,679.8895405349322 506.1352344463812,678.9391653082566 506.0640186596429,678.7411015632679 504.8503793210257,676.6734410361387 504.7508811093867,676.4686851198203 503.7290146702435,674.3520893491223 502.74434355203994,671.8860094847623 502.1035471075447,670.1855872534215 501.76048799289856,668.1412508563371 501.71437977603637,666.2337943334715 501.8058389049256,665.2455856662709 501.9660088890232,664.371955538576 502.2864071110962,662.5334598672925 502.58414444094524,660.9475563758751 503.1335108836647,658.6728100730688 503.31718644639477,658.2587804777431 503.70635377790313,657.9149438679451 505.0332684516907,656.7129943113541 511.1224366648821,651.931820515776 511.3052966684336,651.6101714789402 511.69446400005836,650.8522431848105 512.1071077830857,650.2312186095514 512.4058354347944,649.8261094009504 513.0901477830485,648.8979335854528 513.4793151146732,648.2546270554303 513.8684824464144,647.7482263041311 514.3264188872417,646.9212911211071 514.3360308340052,646.9008170373272 515.2422917688964,644.968031721306 516.0206555592595,643.4054128988064 516.6161593457218,642.6007404203992 517.0506193351466,642.0264535432216 517.6234331021551,641.5433992174803 517.6687548873015,641.3363699172041 517.5999857778661,641.2217364314711 517.2075853369897,640.5951178310206 517.0247253334383,639.7904360477114 516.9332953315461,639.0313489873079 516.9778015573975,638.3880564079736 517.161447993014,637.2616592211416 517.344337123679,636.3879685648717 517.7561653475277,635.6989908472169 517.962472675601,635.4919966366142 518.763439103961,634.5726613340084 519.1073429048993,634.0450757358922 519.3451948942384,633.7525731640053 519.5191420018673,633.5386453751707 520.2748448996572,632.068352532573 520.9156413441524,630.8039272314636 521.6713151147123,629.1944560889388 522.2206815574318,628.2517362838844 522.8380306774052,627.4703743845457 523.5475671039894,626.7580105619854 524.1430708906846,626.2749659561086 525.3785264356993,625.4011556593468 526.0201675663702,624.8668984740507 526.5007357725408,624.32150053652 527.0727922347141,623.3487088906113 527.3478395448765,622.8199769457569 527.4166377814254,621.5800269011525 527.5080677830847,620.0394971640198 528.0339869012823,616.6612770073698 528.0614828942344,616.584900358459 528.1153389227111,616.4353126549395 528.5145551075693,615.3277677223668 528.8349533298751,614.6142863586429 529.224149788497,613.9252469059429 529.9798235591734,612.6607271984685 530.4830817849142,611.9940025662072 531.1473255538149,611.2359106335789 531.5818146702368,610.8218402862549 532.3601784605999,610.1795950639062 533.0179268837674,609.3202332776855 533.5737886721035,608.5922278421349 534.4880304356338,607.7195561525878 535.4727015538374,606.5173583078431 536.1369744498516,605.8271738376934 536.5261417813599,605.2294371576863 537.2356782080606,603.8736241790466 537.6701673244825,602.8617186335032 538.1969020019751,601.115208879055 538.4946393315913,599.643557682808 538.5407475484535,598.9077487793402 538.2656711111777,597.8512994656339 537.7389655610314,596.7014307994395 537.1208008819958,595.4835891951807 536.502665329841,594.6330721534905 535.884558904916,593.781510172761 535.1296715664212,593.0690075051971 534.6943668907043,592.8619369021617 533.2064375467598,592.1951579417218 532.5883019947214,591.8210908578476 531.6392533334438,591.1999154047808 530.2759297707817,590.3048989739618 529.7039315628354,589.8907929562265 529.3399009280838,589.7835893575684 529.3147351039806,589.776095122972 529.0169977741316,589.8685507182381 528.4449704391882,590.2125236968859 527.8624282169621,590.7101474972442 527.6892966685118,590.857106026262 527.4376966827549,591.0174097472336 526.8664266525302,591.086380390625 526.1561037937645,591.0174097472336 525.3777400037507,590.9483589323936 524.7142826666823,590.7646508070757 524.2790071183117,590.5575782404048 523.9359480036655,590.3048989739618 523.6382106738165,589.8907929562265 523.4319033457432,589.3853926977026 523.202935125446,588.4424783593277 522.9974142293213,587.2468779151677 522.539448661264,585.5002158407005 522.2417404587613,585.017049133603 522.0815122204367,584.8110938225291 521.6009440142661,584.5817734595621 521.1429784464417,584.4893559294869 520.916427776101,584.5717542147613 520.570951111149,584.6964336680248 519.3451948942384,585.0776053320733 519.3144366649212,585.0871436332818 519.0628366791643,584.9035112300771 518.8338684587507,584.650786006765 518.7197775645182,584.3746956232353 518.8799475484993,583.5464225902106 518.9183370808605,583.039927049249 518.9252693334129,582.9486310956418 518.9026084410725,582.6959038386703 518.2844728890341,581.93780064577 518.1016420124797,581.6149367787875 518.1703819948016,581.2475463527371 518.467332892702,580.4883164662169 518.490780216991,580.0285451871459 518.3759028908098,579.1556907464401 518.1703819948016,578.7638490604586 517.8265364482068,578.2128168629133 516.9794326756382,577.5002685383661 516.2245453369105,576.6497686996008 515.6517024427885,575.8225514485384 515.422734222142,575.1957641763729 515.3313042203663,574.7582665836089 515.3086433281424,573.4478932562051 515.3774415645748,572.1141868637642 515.3086433281424,571.6543596583069 515.171105109388,571.2869541697437 514.6905077761039,570.1369597764569 513.5682984392624,568.1151079010451 513.2713766684756,567.7232484080014 513.0097278293688,567.5102644726867 512.904841102194,567.4248944948777 512.1677795556607,567.1409689637367 512.1265355664073,567.1253778995015 511.8287691093283,566.8036566647934 511.3942799929064,565.7237010559184 511.21063355740625,565.5166071456624 510.8675744427601,565.3329198699212 509.67659599648323,564.9877493394888 509.1045686614234,564.7350434787804 508.74371288192924,564.3721165211173 508.4176931271795,564.0448204696295 508.23480399651453,563.5393263628357 508.2121722311713,562.6653305026703 508.05194399296306,562.0217956334236 507.799528448144,561.6533334775595 507.22750111296773,561.0554480309365 502.6771764338482,555.8682881302084 498.18595066305716,550.7499995651306 497.1692688498879,549.6399105329183 495.0725828836439,547.3507742921938 493.5256128854817,545.6616657112609 493.1526111003477,545.2552597841714 492.71733555197716,545.0715571875917 492.3281682204688,545.1628673761734 490.70351621694863,545.507985909062 489.811090659583,545.66944189067 489.7767206685385,545.6703638088657 488.91869422933087,545.6917282590293 487.54482665262185,545.876552720787 486.78915288182907,545.9912311980734 485.9193882169202,545.7150968768983 483.56172333529685,544.2899277418037 481.89096311468165,543.3012230154709 479.696730453521,542.0296416505007 478.23146200180054,540.9952718598652 477.31555999291595,540.1434416810516 476.85765267908573,539.5232564447797 475.9425371022662,538.7883878013818 474.7062951254193,538.0290252096602 472.85185934230685,536.9945982986828 472.54279156634584,536.8331365511985 470.80000000004657,535.920242319 470.6551508764969,535.844401474169 468.8922033493873,534.9024016908952 467.9536404480459,534.3266977271414 467.4269348978996,533.7755647260929 466.9924457814777,533.4994165184326 465.20680823456496,533.2232279112213 462.0011948943138,533.1542408386013 460.5944428090006,533.0697005816619 459.9080915626837,533.0283724510227 459.16127243381925,532.9025440837722 458.5698755698977,532.9237092293915 458.17499932448845,533.0283724510227 457.40557755727787,533.2488425137708 456.362652217038,533.5083154784516 455.5430735644186,533.580709708971 454.5769855431281,533.3579951635329 454.12068022042513,533.0718251119833 453.4200275626499,532.5072605982423 452.7452397797024,531.9861476276419 452.02434377977625,531.537468464172 451.410256896168,531.2345804981305 450.72332310758065,531.1366108315997 449.57766644621734,530.8025355752907 448.94091867026873,530.5775736728101 448.34541488357354,530.1912255714415 447.6819866738515,529.9050517890137 447.0897451235214,529.6021617875085 446.72157843911555,529.3460919679492 446.5274171164492,529.1835027250927 446.1083071148023,528.8327088475926 445.653603783343,528.290502618649 444.50791799474973,527.037763489061 443.995775999967,526.3652318046079 443.69562111992855,525.7605650227633 443.4690704498207,525.4632819957915 442.4520391111728,524.1259047411731 441.06526822422165,522.246260314656 439.9576224426273,521.045884329651 439.12345110764727,520.1895745522925"/></g></g></svg>