<svg width="1200" height="800" version="1.1" xmlns:xlink="http://www.w3.org/1999/xlink" xmlns="http://www.w3.org/2000/svg"><g class="geojson-features"><g class="geojson-feature" stroke="#555555" stroke-opacity="0.0" stroke-width="0.0" fill="#111" fill-opacity="1.0" data-properties="{&amp;quot;N03_002&amp;quot;:&amp;quot;上川総合振興局&amp;quot;,&amp;quot;fill-opacity&amp;quot;:1,&amp;quot;description&amp;quot;:&amp;quot;上川郡東川町&amp;quot;,&amp;quot;N03_001&amp;quot;:&amp;quot;北海道&amp;quot;,&amp;quot;stroke-opacity&amp;quot;:0,&amp;quot;N03_007&amp;quot;:&amp;quot;01458&amp;quot;,&amp;quot;fill&amp;quot;:&amp;quot;#111&amp;quot;,&amp;quot;N03_004&amp;quot;:&amp;quot;東川町&amp;quot;,&amp;quot;title&amp;quot;:&amp;quot;上川郡東川町&amp;quot;,&amp;quot;stroke-width&amp;quot;:0,&amp;quot;N03_003&amp;quot;:&amp;quot;上川郡&amp;quot;}"><title>
      上川郡東川町
    </title><desc>
      上川郡東川町
    </desc><polygon points="395.48444444447523,433.9514544053818 395.09389357519103,433.42592499547754 395.023668110196,433.3314208626398 394.95489900099346,433.2391514175397 393.610595441889,432.0786804637173 392.7946431146702,431.2375736537506 392.6570903324755,431.095512859727 392.36379488708917,430.18783788901055 391.9758363306755,429.2723241118947 391.92809699563077,429.15933402610244 391.9159801173955,429.1313884932024 391.6716327823233,428.5542151525442 391.15340322139673,427.7382310599205 390.99441288539674,427.48768450305215 390.84675299562514,427.2885797529598 390.4753968924633,426.78859162857407 390.194232888869,426.4093861121801 389.8507805582485,425.9463003484998 388.37055533513194,423.6711140796542 387.6152747804881,422.3970514619723 386.24953366757836,419.9953695501026 385.96433555916883,419.5658246977546 385.6390876728692,419.07643608219223 384.9226335573476,418.4175453289936 384.67505311290734,418.1893499826547 383.5046966614318,417.3816924544808 383.34815300273476,417.273463398451 383.19726000365335,417.1691405644815 382.36356926581357,416.64730355044594 381.83191210671794,416.31449938815786 380.7230575502035,415.7176927261462 378.67689255822916,414.57273951606476 377.05346389330225,413.5866305299278 376.81963144545443,413.44454898350523 376.44097900093766,413.2141091134108 376.3718021119712,413.1721450072655 376.24680311465636,413.0921634747647 375.8709760000347,412.85278237843886 374.0610610063304,411.69829755695537 371.8813773369184,410.0431603202014 371.2118469973793,409.4473698028596 370.7656342186965,409.0503087392135 370.64104300091276,408.9395550908812 370.2288215609151,408.59944007056765 368.53944911644794,407.2049383401172 367.5527536640875,406.2858874547237 366.3872760036029,405.20071414040285 364.88277333328733,403.91076934625744 364.05467500095256,403.12146278235014 361.0954333298141,400.3960952873458 360.45083579735365,399.86635193033726 359.07555555552244,398.7361108857731 358.3481933368603,398.1383312791877 358.1997178880847,398.0298030402919 357.46951577597065,397.49668610387016 356.5811388872098,396.84831107757054 356.0993327786564,396.4561628284282 352.8217317831586,394.37567343594856 350.19704411021667,392.51890130282845 349.42437467031414,392.0858954002033 347.7127491129795,391.21373624168336 347.2236612266861,390.96478555741487 346.939264113782,390.8200390576385 346.1330111147254,390.40980554913403 344.3174163342337,389.47441396466456 343.3222448925371,389.0542466939369 341.68182055820944,388.23241687804693 340.4762785565108,387.6779882530391 339.652228892548,387.21362613883684 338.5106063360581,386.56968731063535 338.2286267733434,386.4108168504026 338.00694033072796,386.2989145600586 337.2589561173809,385.9212536351697 337.0218759964919,385.76798149212846 336.06998744176235,385.152554619126 335.0416402204428,384.61490952951135 334.80295810848475,384.5240933156165 332.48129433603026,383.6408622954041 331.6018157796352,383.2794269603037 331.12263111112406,383.0830489912769 331.0625710080494,383.05843626343994 330.5075247787172,382.8301539796812 330.2077485512127,382.7070900320832 330.14181933522923,382.6802213891642 329.0499604480574,382.2124965748517 327.443119672942,381.4543885906169 326.38321322668344,380.7455022618524 325.9972644408699,380.4870230835222 324.5190781156416,379.58400331254234 323.5538347804686,379.13471658711205 322.66666666668607,378.77564453234663 321.88266678049695,378.4583058851422 319.58162500266917,377.7298237183131 317.69443578313803,377.2699150960834 317.39668388979044,377.1971610292967 317.0981310009374,377.1289188028604 316.74617355386727,377.05672863702057 316.07180811383296,376.91794775618473 312.24401055293856,376.1313048994052 311.9341417813557,376.06751356687164 311.5372703289031,375.9863794837729 311.2063572196057,375.91811643063556 310.5303752248874,375.7075864058279 310.20755945245037,375.6070346227498 309.4324433351867,375.3306175007019 308.86405688890954,375.08834159286926 307.7960676693474,374.4314668808656 307.4416926720296,374.2121318502759 305.92303422576515,373.27103522143443 305.59009678225266,373.0645493292832 304.09852654935094,372.30807595161605 303.9884988871054,372.2521182865603 303.6895382187795,372.1290234181215 303.2396991146961,371.94267877950915 302.9338644479867,371.8956846749061 302.60860199824674,371.84532663421123 298.3940692196484,371.24127022825996 297.947463224933,371.17723459310946 297.59065611381084,371.1263525260438 297.05585322668776,371.0373592154647 296.0473270044895,370.8689405051118 295.0654957796214,370.69548570684856 294.20745477697346,370.44034897809615 293.74667844269425,370.30325254701893 293.56747389154043,370.2501140413515 293.09860022045905,370.0973457429791 292.80853788449895,370.0033359359368 292.5067518862779,369.8718389158021 291.2409458915354,369.70958251474076 290.759125219658,369.6278801402368 289.8226157796453,369.3928847873467 289.7764929991681,369.38112090714276 288.76068499917164,369.0526584063191 287.5203506631078,368.5507572776405 287.4390568960225,368.50263380166143 287.30432944354834,368.42318671537214 286.8848262258107,368.17640487718745 286.2577777778497,367.8065434049349 285.80994844448287,367.5424365212966 285.34957988973474,367.2710570823692 284.9146975573967,366.9884769532655 283.8542668232112,366.2974340104847 283.618133333337,366.14355278306175 283.6533334471751,365.4838293675566 283.6771885511116,365.0378542972903 283.7479091769201,363.7115224824811 284.0060918897507,358.8936694842414 284.1031871146988,358.3821973311424 284.1274499982828,357.99218047974864 284.1031871146988,357.0173342975031 284.1383726649219,356.3312506049115 284.39537572977133,351.3080709238711 284.41751233424293,350.87890630599577 284.49442247115076,349.50948584562866 284.54251133155776,348.65323759790044 284.91303731204243,342.0438646118855 285.34917211020365,334.26175758210593 285.4354611769668,332.71918334334623 285.52636689064093,331.0943370471359 285.558333895111,330.5245133161952 286.2577777778497,318.05951306482893 286.3774465137976,315.9265657957003 286.5757584498497,312.3925426362548 286.63804677693406,311.2868959734333 286.6911309369025,310.29462277670973 286.74485589331016,309.28779048260185 286.92933245154563,305.82131137448596 287.2861541262828,299.1316120508127 287.4062743324321,296.8803387157677 287.5324966685148,294.2533532914531 287.78695111110574,288.97846930491505 287.8520793315838,287.61562328838045 287.92732922319556,286.05398855745443 288.14767581870547,282.3343009449891 288.24731966579566,280.65275600360474 288.26673288538586,280.3229634615127 292.0035082240938,280.6197163145989 293.1694082276081,280.7126870332286 296.1176981049357,280.8941127739963 297.13108855468454,280.9568255416525 297.41022822400555,280.9765404453792 298.3940692196484,281.04602638439974 299.8977708942257,281.1516965405317 300.31040011381265,281.225032622664 301.2311372231343,280.0048821357195 305.3704201102373,274.5188502301171 305.4339317760896,274.4348457083979 305.47641366755124,274.37829835523735 306.852669667569,272.5544152914663 307.52786523022223,271.6735298948479 307.6597236622474,271.50104131843545 307.7871693369816,271.33530609463924 309.49757155560656,269.1042390525399 309.55865110759623,269.0247063666757 309.7540503324708,268.76653222207096 309.860451669374,268.62540915459977 310.5303752248874,267.7390315544617 311.44342277699616,266.53094198784675 311.8803294435493,266.04319076941465 312.367538631137,265.5346717858047 313.7731838862528,264.06740821467247 314.80113789159805,264.25781054620165 315.12153611384565,264.29813289892627 315.4965476693469,264.21355674858205 316.0305349974078,264.0920250514464 317.09246577782324,264.88056761966436 318.1143759075203,265.5346717858047 318.3340234524803,265.67523396157776 318.72033632715466,265.6141866110265 318.79045984713593,265.5346717858047 319.3502246684511,264.8995996735757 320.2543738880195,265.05530353591894 322.66666666668607,265.2584662302397 323.00729366758605,265.2871553476725 323.3312017066637,265.5346717858047 324.5858228907455,266.4934428941051 325.2798928213888,265.5346717858047 326.449550222198,263.91898128410685 326.8152556658024,263.8372072818165 328.9594333867426,265.5346717858047 330.5164231111994,266.76728681399254 330.5807357724407,266.8182532055944 331.6131899164757,265.5346717858047 332.7482880000025,264.1233958861558 334.55829037510557,265.5346717858047 334.80295810848475,265.7254145379993 336.466043335211,267.02207823537174 337.0979414471658,267.0809071958647 337.5635674453806,267.12401078196126 338.2338987804251,267.4712380329729 341.1684406613349,269.00174368786975 343.5459556694259,270.1861807790701 344.08399166580057,270.57537260482786 344.1810868907487,270.6453685358574 345.41533366043586,271.71665200049756 346.939264113782,272.978939478402 347.263696440903,273.2476682825363 348.3203843413503,274.1055804811185 349.29572022048524,274.8195686013496 350.7585565582267,275.7995339545596 351.591912334261,276.3096627353225 352.5049744498683,276.41717152125784 354.1631808853708,276.48996618387173 354.2331878969562,276.4933327595645 354.86304711113917,276.4524701848277 355.6959951076424,275.717768002738 356.269638997328,275.4724899744324 357.09775189339416,275.4523306665942 358.37408733868506,275.37840645600227 358.5201161102741,275.3700201778556 359.07555555552244,275.56786361397826 359.197729223175,275.6113673544023 360.0302694400307,276.2150154126284 361.00765878049424,277.38146036933176 361.53598088538274,278.17773773815134 362.3487146667321,279.1772902266239 362.8770367716206,279.8917926226859 363.26662644627504,280.17848743495415 363.66955633775797,280.38174562121276 364.1165701120626,280.5452509909228 364.58381266496144,280.8106569671363 365.5797996658366,281.46358624409186 365.84356022049906,281.8924937451957 366.07233911473304,282.3343009449891 366.10248567472445,282.3925580131472 366.5494994489709,283.87806343322154 367.46942099911394,285.7297742703231 367.56369089428335,285.9352807539981 368.20084644987946,287.3222337529587 368.27887798054144,287.4717808680725 368.6478602240677,288.1789171027485 368.79752988455584,288.28304906899575 369.4516811093781,288.7393862954923 370.5985611093929,289.3631458381715 371.2118469973793,289.61494664422935 371.4549709938001,289.714763789234 371.93275756092044,290.1173372688063 372.14391455287114,290.3698621468502 372.4881970062852,290.78194742728374 372.7928083342267,291.63917060536915 373.0569621049799,292.2309872590122 374.33089456363814,294.62624184731976 374.6419721101993,295.2107675355801 375.2924824462971,296.4794607239892 376.10237633419456,297.41615746883326 376.7120213333401,298.09695263940375 376.9786217813962,298.39481065649306 379.35045700275805,298.1826136006275 380.54060532624135,297.9340152455261 383.1232188871363,297.39430875191465 383.34815300273476,297.3499058582529 385.60832944355207,296.90386045112973 385.7462754418375,297.02142874748097 386.00477855291683,297.5286863608344 386.30373922141735,298.1143267027801 386.467695729807,299.1316120508127 386.68642577069113,300.4887249180174 386.88668922317447,301.06145167839713 387.3494753279956,302.0888097746647 387.82685411558487,302.93361796741374 388.1197417813819,303.3053510476311 389.03602244268404,303.96599876653636 390.2755412196275,304.14962670885143 391.0550992214121,304.2011416426976 391.5150745600695,304.2313734012423 392.4435012267204,304.49559864829644 392.53896533336956,304.57287081950926 392.9374533405062,304.89477720391005 392.9435117796529,304.92670175715466 393.1388964409707,305.9394353037933 393.4249246719992,307.73147460026667 393.49449477694,308.06401380192256 393.6263677724637,308.69214762342745 393.5960318862926,310.87488069036044 393.73033699562075,311.2622887608886 394.15674333873903,311.73196118627675 394.8675176675897,312.30298204618157 395.46542444097577,312.85382699008915 395.48444444447523,312.86898209294304 396.05485522490926,313.3234932234336 396.88780322135426,313.8743536636466 397.1317573405104,313.8743536636466 397.57875655114185,313.62915316276485 398.3789511111099,313.29830198932905 400.3810322204372,314.7437060412194 400.93121422221884,315.241941404267 401.8452812231262,315.9265657957003 402.0044608853059,316.04578822644544 402.2111759929103,316.20029758065357 403.07811532798223,316.52330149774207 404.75778844452,316.84852131427033 405.990025443607,317.22081611750764 407.1482213262352,317.5062937516195 407.4164528924739,317.57291719384375 407.6207358862157,317.6234590910026 408.5503858915763,317.8533559382777 410.1552023324766,318.404739816644 411.1422910009278,319.3563804293808 411.6588894435554,319.68943171203136 412.5614366720547,320.0879957774887 413.1099875556538,320.2514473707124 414.27103789517423,320.4081881926104 416.46244522667257,320.9819489508809 417.30834022408817,321.0681579216325 417.4984820053796,321.08774536504643 419.10532278049504,321.0748684350983 419.4896404480096,321.0267260350229 419.75704189157113,321.08292911128956 420.36304600181757,321.21034817927284 421.1454293333809,321.447674147581 422.39505521778483,321.88373446057085 423.8813534435467,322.61144526622957 424.8740927716135,322.98533440803294 425.36159323027823,322.90364071686054 425.9505871075671,322.3729729516781 426.64114722132217,321.72084932160215 427.3931946667144,320.4758982301282 428.0635114382603,319.11846594139934 428.4085948871216,318.07728729915107 428.8556086613098,316.5467992533231 429.0169146027183,315.9265657957003 429.0388764444506,315.84202581620775 429.1885606684955,315.49215663259383 429.3839453298133,315.03704908606596 429.74965077341767,314.32273455226095 430.1359927752055,314.03722923679743 430.91594399296446,314.15927493179333 431.8933333333116,314.39395459133084 432.75542300444795,314.60098419483984 434.3294957795879,315.11431450981763 435.0204491093755,315.42442364725866 436.04313110758085,315.9265657957003 436.5641859981697,316.1824021549837 439.2260981191648,317.9949857205793 440.7706214400241,318.92420033336384 441.6444347733632,319.3933189995587 442.2132289991132,319.9849995976838 442.59916322131176,320.5156778594537 442.81639321608236,321.0821431953809 443.00571943819523,321.57642283680616 443.3305741085205,322.1070941032958 443.8997615502449,323.14823799234 444.0296247751685,323.37389254471054 444.42809821863193,324.0662290317996 444.95644945075037,324.7799216876738 445.4034632249386,325.0861168511037 446.29750533693004,325.84121357588447 447.45490022405284,326.9881165077968 448.72395389154553,328.20779217540985 450.5933318827301,330.35043635530747 451.8733227804769,331.63558549346635 452.40165944898035,332.2887638133834 452.6015005582012,332.5400721023034 452.8324931128882,332.66377152421046 454.2864165546489,331.8292463023099 454.34264644270297,331.79678481497103 454.9668549973285,330.9790184335143 455.7132517831633,330.5950386947952 456.1659307804657,330.45523720420897 457.0340788907488,330.18701858408167 458.2938264462864,329.7381122536026 460.02081655466463,329.39555759739596 462.1746062222519,329.08489998450386 463.8202880000463,328.71769951915485 464.734151111159,328.4115538667538 465.997947335185,327.52493007623707 466.40896000002977,327.125806191616 466.9575254471856,326.7379251043021 467.3232308906736,326.6584505357896 467.75001588632585,326.6769086298882 468.3022222222644,326.82497629578575 468.3596608854132,326.8403513029334 469.1517581084627,327.0239646054106 469.28728655644227,327.0513897026249 470.3504261120688,327.2685535335331 472.626389447134,327.88093046093127 474.367142115545,328.6505381652969 475.3485655609402,329.2270808008616 476.75070099916775,329.7576982904575 477.9089114454109,330.14558982657036 478.48538066487527,330.0784091168025 479.0553836657782,330.12487544259056 479.81835377780953,330.00286603646236 480.43851366406307,329.5714091590489 480.61085878050653,329.45153512473917 481.2815833315253,328.9007457558473 481.7488404480391,328.69646097923396 482.50048011378385,328.2883941514301 483.1699813262676,327.942470241047 483.699133553775,327.43143118795706 483.91071288893,326.900803474593 483.9592532195966,326.82076479276293 484.3411533369217,326.193289512099 484.80475500097964,325.94140378772863 485.2926341120037,325.83952090062667 486.3286708907108,325.757808989787 487.78220111643896,325.79083632616675 491.69210800365545,325.7986750275595 492.5748196693021,325.8699285988114 493.45996344892774,325.94140378772863 494.6602334436029,326.16249902936397 495.2476398933213,326.12556253015646 496.26261777069885,325.93019989848835 497.110143886297,325.5898913432029 498.0903585564811,325.2333199750574 498.74976722494466,325.1807258610206 499.1263953351299,325.28313322979375 500.3501272178255,325.77963242295664 500.90435788797913,326.0858250509482 501.1693272178527,326.2666183854453 502.28587133158,327.1314282315434 502.80854277696926,327.6111142245063 503.5970136746764,328.40091441979166 503.8227342222235,328.627586826944 504.5209693298093,329.37427887611557 504.71111111110076,329.59280874725664 505.08207399828825,330.01908694719896 505.5044171093614,330.4976532111468 506.52022510935785,331.8012379431748 507.2277372017852,332.71918334334623 507.2285818880191,332.72031172920833 507.7395151075325,333.52404218690936 508.35036888183095,334.4212608425296 508.94748922315193,335.2250202764699 509.3540454400354,335.83677252350026 510.33345911471406,337.05466629055445 510.6688141084742,337.47201230970677 510.7278838898055,337.54551567396265 511.1963497813558,338.1298335895699 511.69069511111593,338.59099947070354 512.6559384462307,339.5732680610381 513.3274785565445,340.35962521852343 513.4403461120091,340.5521437228017 513.5196446720511,340.756448738568 513.6369541120366,341.34183912500157 513.724743224855,341.818124060228 513.8808936675778,342.2294897601241 514.0952983325114,342.70577119424706 514.5783277796581,343.31021212154883 514.9707282204763,343.6695105230028 515.3259187769727,343.87322597569437 516.193673671165,344.51515608266345 516.8380964409444,344.95058910679654 516.8474025529576,344.9596958698821 517.1746747734142,345.2802051398903 517.6860303360736,345.95236922818003 518.0294972302509,346.3329355047608 518.4275628942996,346.4963515731797 518.8794263324817,346.5511929166678 519.2050819982542,346.65978756788536 519.7115733334213,346.87804438904277 520.2900668871007,347.27762681851164 520.5797214435297,347.7314846101217 520.7965727857663,348.1489952010743 521.013788216922,348.6213246046682 521.4519327857415,349.0964727429382 521.7761612231843,349.50948584562866 521.7990114418208,349.53857803251594 521.9147188906791,349.70366195673705 522.4782556729624,350.5095358186809 522.6768734435318,350.94549118960276 522.818067114742,351.69371740781935 523.0393603413831,352.7827561213053 523.3293935502879,355.1874266405066 523.4426834488986,356.013973856112 523.5438127787202,356.3989807928738 523.7549843342858,357.2014456515608 523.9681802240084,358.00277702862513 524.371095552051,358.59428861094057 524.7574375538388,359.10126745374873 525.0284798862413,360.0816770303936 525.2457244444522,360.84439137697336 525.5167667769128,361.6792801624106 525.8424370062421,362.768792886287 526.113479338761,363.1828873345803 526.2582993351971,363.40447844879236 526.6308933404507,363.8012061062036 527.1264474453637,364.2136250218027 527.5593054435449,364.3909971550165 528.1924123307108,364.52473617566284 528.9331438933732,364.6635111528449 528.9837085582549,364.67301931782276 529.4990982257877,364.76983334569377 529.9946523307008,364.92706028942484 530.2224117760197,365.1324320109561 530.3312452266691,365.33218312167446 530.5242123377975,366.07977631955873 530.6361478257459,366.2974340104847 530.765311999945,366.5486715348088 531.0905598862446,366.80270856127026 531.4344199964544,366.9845690113434 531.9045024426887,367.2201330817188 532.3567882240168,367.3113450423989 533.5497910044505,367.1658651554899 534.9753883307567,366.9929690719873 535.1954727821867,366.96611707733246 536.2553792285034,366.8390887307178 536.6772999964887,366.7881645479938 537.3658357760287,366.80270856127026 538.5592463360517,366.9112648596929 539.5900111076189,367.11103317249217 540.3315436657867,367.40142887228285 541.1199999999953,367.7827131759259 541.3081174471299,367.8736829851114 542.3388822186389,368.41813062367146 543.5747601067415,369.0705862856703 543.7495227733743,369.1628846069507 545.2139756657998,369.83380788814975 546.0412730026874,370.2215505740023 546.6820694471826,370.63729137496557 547.0154001067276,370.95902168165776 547.2451984498184,371.2673558263632 547.6323414471699,371.73623090289766 547.9001361067058,371.96117023957777 548.1262789973989,372.15140248142416 548.4867415608605,372.366249335435 548.8868315590662,372.56711649658973 549.2905478826724,372.7081181149988 549.9414659981849,372.83459642669186 550.3152687786496,372.84803184398334 550.835915889882,372.821161007887 551.4095597795676,372.74058875013725 552.1171009991085,372.55315732749295 552.7712376604904,372.271697429358 553.1851047822274,371.97682150584296 553.256291441794,371.93280860898085 553.7053441138123,371.6550939102599 554.1458771058242,371.2802072618215 554.7199433386559,370.79733075617696 555.1333735538065,370.52930244166055 555.9210288924514,370.2075709903147 556.7754290062585,369.9932641716732 557.4186430008849,369.73866983593325 557.9659851093311,369.52438232899294 558.0800614400068,369.50814658019226 558.5266819982207,369.44380787195405 558.8737897813553,369.4975107534847 559.5145862258505,369.7252542163769 559.9150694400305,369.8729669545137 560.3798944426817,370.1012535842019 560.9422078863136,370.46270821083453 561.4228052195976,370.663578537642 561.6206365582184,370.6798342746042 562.4107094471692,370.74415218102513 563.3184995555202,370.62329169589793 563.7189973333734,370.52930244166055 564.0127005582326,370.52930244166055 564.2586498844903,370.6647065690777 564.3387640035944,370.9220988818852 564.3865033386392,371.3328014451545 564.5467024498503,371.8956846749061 564.8399833316216,372.55259332063724 565.1336865564226,373.075184841844 565.3925974472077,373.3568644403131 565.4540702151135,373.42375921978964 565.7878232178045,373.7320669298351 566.4019392285263,374.33468074005214 566.708982670214,374.81754310420365 566.9492667732993,375.3933013777132 567.4432188871433,376.1570268763753 567.7502623288892,376.46530746735516 568.1374198897975,376.69583758787485 568.8449611093383,377.0981413043919 569.9016344462871,377.821571582841 570.5157358933939,378.22330756959855 570.6294044445385,378.32456214970443 571.0371840000153,378.68712012527976 571.4057147733402,379.1688572806015 572.0238648889353,379.64332128179376 572.6561562169227,379.9577563868661 572.8988869973691,380.0908940586378 573.2302224498708,380.47137291991385 573.5615433386993,380.7656439964776 574.1481196658569,381.17409750807565 575.1452863147133,381.83377551313606 575.6016498915269,382.13527407110087 576.3488476728671,382.51069099112647 577.0964386702399,382.8592784242355 577.5288888889481,382.9986768613162 577.7905377280549,383.0830489912769 578.2174246684881,383.2206948750536 579.3922084409278,383.7163718312222 579.8861605546554,384.0783496708318 580.3267226737808,384.48064894165145 581.1807004445582,385.45801266111084 581.7146877724444,386.2217148094205 582.6354394454393,387.54427486579516 583.172281230276,388.5160550370056 583.306163996458,388.79020640446106 583.7236574436538,389.64280673582107 584.45387411915,391.0212783351599 584.7875979946693,391.5303566240473 585.7483994454378,392.5972449956753 586.4563484444516,393.4861704639916 587.2702764373971,394.2900605450268 587.8584984463523,394.7784620403545 589.1926657706499,395.5392656317272 589.6651803306304,395.7652884454583 590.0604206649004,395.9543554087577 591.1551194453496,396.40637892100494 591.9419592249324,396.63741474517155 593.4771909973933,396.9987899773696 594.4650952249067,397.2001800746366 595.8000926719978,397.4412838575663 596.2831075555878,397.4949944325781 596.5161244444898,397.52296742229373 597.283944220515,397.6152842840238 598.0978867769591,397.82954210371827 598.6917594453553,398.06393839407247 599.1650750009576,398.32965007497114 599.4862742187688,398.60655832180055 600.028766663163,399.14248977435636 600.2816191146849,399.5642733250861 600.3797920427751,399.86635193033726 600.4236137814005,400.00115929884487 600.6210227769334,401.0852918451419 600.7011368960375,402.08940570856794 600.8746616605204,403.3217149473203 601.0215205547283,404.17926732686465 601.227842446242,405.2029494206363 601.3152237796457,405.3450406588381 601.5555224462878,405.5592646332807 601.801486336044,405.11490754340775 601.8892608853639,404.9562427084602 602.3731058915728,404.33867828096845 602.8500623360742,403.93817699019564 603.5438555591973,403.44254272215767 604.4783406648785,402.7326979523932 605.2659814400249,402.1699583934969 605.922564778768,401.8080146203283 606.5411226737779,401.57976776425494 606.5767014400335,401.56691955184215 607.1369905493339,401.39238108260906 607.8178513351595,401.25868287391495 608.5120523378719,401.1781295813271 610.076411221351,400.88948655489367 610.5808927858016,400.9370332558756 611.9288226702483,400.9638978385483 613.9377777777845,400.88668732030783 614.0243435520679,400.88334434942226 616.1599433387746,401.04388740003924 618.6025720036123,401.2447068815236 619.5132020054152,401.3252601296699 620.0872391111334,401.284983512247 620.820674332499,401.13728904159507 621.4614707768778,400.88278047484346 622.4428942222148,400.339043016138 622.7430636657518,400.17290052678436 623.3254019982414,399.86635193033726 624.4995886649122,399.2481976025447 625.3855480035418,398.67200926918304 626.0740692195832,398.20724635827355 626.8540204373421,397.68073576843017 627.8953292230726,397.0776946574915 628.4293311147485,396.6491558321868 628.7764243343263,396.16694462348823 629.0968079929589,395.69760046727606 629.3832294399617,395.3759360431286 629.6433491057833,395.1857000935124 630.5244587804773,394.99830349406693 631.2748896711855,394.70348304338404 631.9152637725347,394.43160071392776 632.5961245582439,394.0870141565392 633.0767218915862,393.9527439560625 633.5197015609592,393.9879679964215 634.1309485511738,394.1272931736312 634.7316952178371,394.14070608335896 635.4793007787084,394.07358110140194 636.0666926649283,393.96617702467483 636.7871808853815,393.79219148191623 636.9291755520971,393.7669968884438 637.4093796694069,393.6830954303732 637.4259529956034,393.6802960288478 638.1751751111588,393.67415345684276 638.2103752248804,393.6785438854422 638.4029199929792,393.7026710998616 638.57283299556,393.7245023981959 638.7896843377966,393.75191235312377 638.9968072248739,393.8408486516564 639.7237762275618,394.15413913107477 641.0583513316233,394.48811201000353 642.9807406649343,394.716352125135 644.0511619981844,394.92000163698685 644.9965843343525,395.05427076257183 646.2146655573742,395.5694745326182 647.7531450027018,396.115468906326 648.6961352248909,396.31297362194164 649.934838442714,396.5361553745752 650.3466666667373,396.5857378375367 650.5999123342335,396.61614786769496 650.7520286720828,396.6346355511632 651.599525660451,396.5982643541938 652.620212451613,396.39353015838424 652.7136522240471,396.36332146354835 653.9576128853951,395.96162565995473 655.0523262294009,395.72331827838207 655.7465126684983,395.6399619388103 656.2004004408955,395.66682769937324 656.8679064462776,395.84415365272434 657.641799224948,396.1389713198005 658.6292811093153,396.47072340914747 659.3902414507465,396.7112647537724 660.0977681067307,396.96914532675873 660.7919691093266,397.1296935788414 661.5517061120481,397.1286060725106 662.482958108536,397.0142366097425 662.7410680035828,396.98257805997855 663.4878434418351,396.86174382429454 664.2754842168652,396.56692792096874 665.1699486721191,396.1753426550713 665.8908301085467,395.98792745158426 666.4248320000479,395.9207833566761 666.8920745529467,395.93421620648587 667.4685583359678,396.00415964168496 667.9596268658061,396.37276671628933 668.2824863289134,396.61506035676575 668.7367964445148,396.9557327310322 669.2574581191293,397.21024957075133 670.2445322240819,397.70534551743185 670.845278890687,398.0672814429854 671.4593657742371,398.5629176241928 671.8598781155306,399.0451394083502 672.287070890714,399.60789352242136 672.9946121102548,399.0720044117188 673.7956076658447,398.2546934208076 674.619264113775,397.3772016929579 674.8898986667627,397.08885167041444 675.6237416676595,396.3118458300596 676.1977933368762,395.74907636246644 676.8652702151448,395.2103304899938 677.3859318898176,394.9155105566606 678.6141347840894,394.40644653275376 679.962064668478,393.76308981276816 681.1591015537851,393.166735654464 681.2339436658076,393.10462491071667 681.3260435911943,393.0285976110026 681.3864532196312,392.97877201178926 681.7610715591582,392.68674605718115 682.3169042204972,392.2106616786914 682.7428882205277,391.6847694310127 683.0228288853541,391.1879771905369 683.2198446649127,390.69960145946243 683.4281908906996,390.2229453253967 683.5503645582357,389.8509157889348 683.651100672083,389.4570530412602 683.6595766614191,389.02627174320514 683.7408995555597,388.7241660312575 683.89138477511,388.4914434160164 684.2615466666757,388.28220415403484 685.8477654471062,387.73617437586654 686.7555555555737,387.36703743209364 687.0173063395778,387.2606142844015 688.6027095609461,386.6899679004564 689.5044266667101,386.2888441544201 689.8515344498446,386.04435459003435 690.210759111098,385.5911845526716 690.4652135538054,385.10333000149694 690.7200757760438,384.59194868354825 691.2237272178172,383.22907366536674 691.276986140525,383.0830489912769 691.6460703288903,382.0703982675914 691.8940731164766,381.3229040361475 692.0113825564622,380.9698608540348 692.0166400000453,380.95421075299964 692.2480403342634,380.5245069291559 692.5146407823195,380.1988945856283 692.9082499982906,379.885024080897 693.4754131057998,379.52470545616234 694.1582982257823,379.14088004050427 694.6910622151336,378.8566558896855 695.7910184391658,378.3793890422967 696.9140433351276,377.9782376983785 698.1410228906316,377.4495038506284 698.8918469973723,377.0801743317861 699.842526776949,376.6124681175861 700.5949820018723,376.24039666104363 701.7859604479745,375.63612052370445 702.7467327715713,375.10177675948944 703.3369645511266,374.7297006493318 703.7075342222233,374.4969510707888 703.9389199929428,374.40405254167854 704.2516432213597,374.33468074005214 704.5061122276238,374.3576233931235 705.1193835520535,374.47398830138263 705.964492117404,374.6832514832786 706.2860991146881,374.7599147547735 706.6938786702231,374.85726455095573 707.1340184462606,374.9036935074546 707.9325818879879,374.9619059265824 708.2914133333834,374.9031697969476 708.5228136675432,374.7520993735816 708.7776758897817,374.4158159326471 708.9046992213698,374.05548099271255 708.9742838898092,373.7533378365624 709.0040663609398,373.56202039914206 709.1478232178488,372.637617326458 709.2870071182842,372.05628639800125 709.4257541120169,371.57957683416316 709.6575476622675,371.03345140448073 709.9116088888841,370.63785539078526 710.2473862258485,370.30099647748284 710.6757877760683,370.04531504027545 711.0281530026696,369.9621625583677 711.0694261191529,369.9524130872451 711.4860894436133,369.9524130872451 711.9824736711453,370.0218075494049 712.550044558302,370.1616841031355 713.1811416746932,370.39446217930526 714.5290715591982,370.98700081693823 715.1079583289102,371.2186492763576 716.4627913387376,371.57901282276725 717.469278663164,371.730087214848 718.1525569991209,371.800024522905 718.8471512178075,371.83471115658176 719.3742791111581,371.8033682986279 719.4260671147495,371.800024522905 719.7270521174069,371.7765173734224 720.1206613333779,371.730087214848 720.5401645511738,371.58402849556296 720.5730636231019,371.57002892624587 720.9884162275703,371.39323134784354 721.5903716693283,371.0910815319221 721.9957191111753,370.9164990237041 722.3877263360773,370.7654236139206 722.736843889812,370.7413723912032 722.927378887136,370.7285007550672 723.16444444441,370.6792098286969 723.1964114488801,370.6725625016261 723.8465140053886,370.43978496128693 724.3440924444585,370.24225808124174 724.8764632177772,370.09118182817474 725.5249492196017,370.0676944896695 726.2774044444086,370.07941801601555 726.8793598862248,370.01564363070065 727.1560674418579,369.9115619889926 727.3890843307017,369.82373610977083 727.9558542221785,369.90485418908065 728.6039470080286,369.9451412704948 729.1249873351771,369.91605399901164 729.9818049991736,369.7649773378798 730.4963936711429,369.65865954224137 731.3034476657631,369.5685773958394 732.3314016711665,369.52101834645146 733.1983410062385,369.4919108292379 734.9811532230815,369.34083363751415 735.1987909973832,369.38672083657 735.2008153315983,369.3872848582105 735.3007358862669,369.42543688818114 735.443953891634,369.4801671023597 735.7684007822536,369.7246901963081 736.0924253298435,370.06153057332267 736.3586325617507,370.20084306324134 736.5669642239809,370.21260686358437 736.7522417778382,370.14321251108777 737.0265317831072,370.00947971173446 737.4816283307155,369.74761358150863 738.1762371129589,369.2943823990063 738.2919299982022,369.02693491629907 738.4076374471188,368.51550567513914 738.4541534435702,368.2368363591959 738.56984632893,368.0740338777541 738.74340022041,367.9458786396717 738.9865242169471,367.8765031286457 739.2292549973936,367.91119088913547 739.6115483307512,367.99233039683895 739.8429486649111,368.0040944122593 740.051294890698,367.8530153595493 740.19044966402,367.6437201995868 740.5953893262777,367.1787170273892 740.861596558243,366.8648328308773 741.1973593316507,366.5626716862025 741.4404978916282,366.4350788798765 741.7070837760111,366.37688249509665 742.5056617812952,366.37688249509665 742.8879551147693,366.330450260808 743.4879007858108,366.35337429016363 743.6731637760531,366.41159083042294 743.7067473352072,366.45858706891886 743.9494781156536,366.79990853669005 744.1015798898297,367.03940105161746 744.4025648925453,367.31807313041645 744.7961741085164,367.6778641412384 745.1436896711821,368.09639354859246 745.5603529955843,368.67778382400866 745.7917533298605,368.96817575671594 746.0235614435514,369.26416692647035 746.225426887162,369.37664902088 746.4285011058091,369.3984645725577 746.9378323343117,369.30558226563153 747.3431797760422,369.2009561332234 747.4370418916224,369.1879836144799 747.6789571130066,369.1545048408443 747.9682038898463,369.1774484779453 748.3415988907218,369.3257259080128 748.4079358862946,369.35203349986114 748.8132978916401,369.44489562747185 749.3108763307682,369.4331720395712 749.8784617813071,369.44489562747185 750.4339012267301,369.3984645725577 750.9779956622515,369.34028975933325 751.383357667597,369.2238796177844 752.1005982151837,368.93348829983734 752.6564600035781,368.67778382400866 753.2224143360509,368.40862275339896 754.0444396657986,368.02701812406303 754.1904830008862,367.9537347490259 754.5998936746619,367.7478037956462 754.9473801103304,367.56201642754604 755.3523343360284,367.3409969723143 755.6767812267062,367.17819328338373 755.8903848960181,367.1143972222053 756.1512909938465,367.18935305823106 756.3709822294186,367.3057651607087 756.7180608853814,367.3287091489474 757.019045888097,367.24756919551874 757.1929929955513,367.08472509260173 757.4705161103047,366.87546888933866 757.7023242240539,366.7825644981058 757.9802405547234,366.74787641345756 758.258156885393,366.70088028756436 758.7440262258169,366.6432480653457 759.0454044445069,366.54979960469063 759.2864604160422,366.2974340104847 759.3115825494169,366.2711458973645 759.5733333333628,365.8904611482867 759.7513291093637,365.6315472931019 760.0757905635983,365.21300934423925 760.4807302257977,364.7955577423563 760.8278234453755,364.44639441755135 761.3254164480604,363.9701987193839 761.7538179982221,363.6210330084723 762.1474417777499,363.35411686761654 762.6341121137957,362.93275076750433 762.7380813368945,362.8426636043587 763.0273281137925,363.0513828883704 763.4674678898882,363.4464397021802 763.8481446685037,363.8532596434816 763.9060056746821,364.56222497535055 763.9290452195564,365.56217045272933 763.963837553747,365.93371076718904 764.0564908942324,366.2711458973645 764.0746079574456,366.2974340104847 764.2648225564044,366.5733077713521 764.6697622186621,366.99184100632556 765.5844408889534,367.7813836786081 766.3947425564402,368.40918677969603 767.0658748871647,368.9670678532857 767.841791999992,369.59488493480603 768.1310387768899,369.81590026561753 768.4437474418082,369.88583868194837 768.7677865529549,369.74596180874505 769.5550341120106,369.3738691996259 770.8398601102526,368.65371204185067 771.2682616604725,368.50206977588823 771.7096247751033,368.54471414655563 771.754524216929,368.5490652009321 772.2521317831706,368.65371204185067 772.9815183359897,368.7695587083872 773.664796672063,368.82716977226664 774.1858369991533,368.81542598071974 774.7052607716178,368.76899468383635 775.0794713314972,368.67999963634065 775.1450073315063,368.6643479428312 775.5386311111506,368.40862275339896 775.6547317759832,368.33924750820734 775.8278924516053,368.35042731958674 776.0592782222666,368.49032595270546 776.2910863360157,368.72254322541994 776.5803331129719,368.86185725970427 776.9278341120225,368.966503829608 777.5180658915779,368.966503829608 778.1665373298456,369.07115030882414 778.5484374471125,369.1528127726342 778.9420466632,369.3038901995169 779.3356850062846,369.4896748881729 779.4574363307329,369.6116645489237 779.4687813404598,369.88191069010645 779.4052551111672,370.1292530617502 779.2661003377871,370.61714795132866 778.8494224498863,371.773153453687 778.6293379982235,372.30807595161605 778.3518148836447,373.12161448335974 778.2591906702728,373.6565310093574 778.2474524445133,373.88873834966216 778.7337150009116,374.20262443614774 779.9263100018143,374.8069077449618 780.5165417813696,375.23717576105264 780.8175122204702,375.55107848602347 781.1650277831941,376.29409652086906 781.3385816746741,376.79431379798916 781.4773141049664,377.3638991052867 781.5468987733475,377.7007181792578 781.662606222264,377.90997577100643 782.1027605618001,378.1192330002377 782.3685308871209,378.2003455085505 782.6347381191445,378.45604996796465 782.912654449814,379.0955605233321 783.0862083413522,379.45586028613616 783.1120877796202,379.5000718612864 783.8459307805169,380.754022216046 783.8851649991702,380.82105389103526 784.1978882276453,381.3324108898232 784.3467568923952,381.73917059309315 784.4292739982484,382.4251099739631 784.4280652231537,382.78485598799307 784.4596098844777,383.0590002211975 784.4666295182542,383.0830489912769 784.5381074488978,383.32923641905654 784.7173265636084,383.6777812074579 785.018297002709,384.05206542726955 785.3900608853437,384.5220389228198 785.6780988871469,384.93491076119244 786.1065004373668,385.69019731573644 786.4540160000324,386.2944231592701 786.801123783167,387.0967095636006 787.0329318969161,387.7009283719817 787.4261478969129,388.77564489800716 787.6575336675742,389.3681135153165 787.79629522498,389.65845571123646 788.0394192214007,389.937639537151 788.2825577813783,390.12337235259474 788.6531128889183,390.169815581874 789.2202759964857,390.0886909702094 789.6138997760136,389.9840626976511 789.7688414436416,389.911336428253 790.1119005582295,389.75132236935315 790.7025255537592,389.5538472063781 791.2348963271361,389.3910533132439 791.6633270045277,389.33343191610766 791.9295051093213,389.1706175856525 792.1726291058003,388.8450084067299 792.4505745636416,388.6010879476962 792.8902919964748,388.40361090441 793.0452336641029,388.31128700316185 793.2026074453606,388.2172913706163 793.5383847822668,388.08974157704506 794.1520638862858,388.01981369999703 794.6484335502028,387.8223357065872 795.1577647787053,387.77589157468174 795.6557655609213,387.84525565747754 795.9822222221992,387.9520609602623 796.1533440000494,388.0080717742967 796.6861225528992,388.229053416464 797.2994230045588,388.31017927703215 797.6586476658122,388.298981172411 797.9596326684696,388.1479275015299 798.1610903324327,388.0517162848264 798.3184495502501,388.0545158168534 798.4341569991666,388.229053416464 798.572918556456,388.71691548495437 798.6307649991941,389.12361004261766 798.689019221405,389.37929138049367 798.8738889956148,389.530343511753 799.1518198897829,389.6232304085861 799.368656668521,389.72111201344524 799.487189447158,389.7742822346918 799.6724670009571,389.79778588190675 800.0082443378051,389.47217839345103 800.1890654435847,389.3032214557752 800.297491114703,389.2164972521423 800.5406151111238,389.25117888496607 800.749354552885,389.37929138049367 800.8419933297555,389.5068398125586 801.0503395556007,389.71609709368204 801.3626550045446,389.8324472075619 801.5944485546788,389.8324472075619 801.6413868942182,389.8123069846479 801.8141252266942,389.73958061187295 801.802794780524,389.57676682880265 801.8258488888969,389.3440659964108 801.8954189938377,389.2047353024536 802.0572492232313,389.1118883645395 802.2542650026735,389.17007379670395 802.3930265600793,389.26294083017274 802.5552354418905,389.0301991124579 802.7983594383113,389.0301991124579 802.9828359964886,388.85340694733895 803.1802595555782,388.84446461626794 803.3085062258178,388.79747708683135 803.4225679929368,388.6408048622252 803.5625674524345,388.3213572401728 803.7360922169755,388.0310118304915 803.9444384427043,387.83353385538794 804.2166895502596,387.7311392330739 804.8344464497641,387.7579866119486 805.2992568888585,387.8100298260106 805.8761338879704,387.72276075501577 806.5493051164667,387.52580593168386 806.5707426702138,387.51966304675443 806.8947817814187,387.3568664123304 807.2192286719801,387.08941863820655 807.4854067769484,386.9501256251533 807.8559764479869,386.9266415646707 808.1185136640561,386.9654728388996 808.2495856640162,386.9848280492588 808.5966934470925,386.99657007452333 808.8746097778203,386.86285593290813 809.2451648854185,386.5551658180484 809.6618573369342,386.2815733210882 810.067204778723,386.1305171274871 810.5300054471008,385.84016645204974 810.8892446720274,385.6773474132933 811.271115662239,385.59621978458017 811.8035009991727,385.5497747969057 812.0421394204022,385.579784786707 812.2667094470817,385.6079820857558 812.7294955520192,385.72377221108763 813.2388267804636,385.7467127011332 814.0956444445183,385.5956558386679 814.8351526684128,385.30473993031774 815.5426938880119,385.04904996822006 816.2822021120228,384.8168640813092 816.9537422222784,384.4448178954772 817.6483364409069,383.9217116079817 818.1074962204439,383.507144439267 818.4473076622817,383.1664139958739 818.514911687118,383.0830489912769 819.4081091129337,381.98143316133064 819.9121683342964,381.58307331995456 820.2548196693533,381.34121278548264 820.5177646648954,381.15562760000466 820.8960093298228,380.89211387137766 821.2835746702622,380.621872221207 822.360054442659,379.8542472846457 823.413480106683,379.2499892261112 824.3629511111649,378.71566144857206 824.8722677761107,378.4946624020813 825.6465537706972,378.1634249223571 826.3063847822486,377.94242486549774 827.5681566720596,377.61734940251336 828.6450442240457,377.51271032731165 829.6980621084804,377.4422324852785 831.7240274489159,377.3140871867072 832.391111111152,377.2501957672357 833.0553694435512,377.18652587971883 833.9122016711626,377.0819065736432 834.3984642275609,377.0584205945488 834.8038116693497,377.09364956154604 835.220489557425,377.24471705631004 835.7989831111627,377.52334544825135 836.2504533334286,377.6744124056422 836.2662256640033,377.67384842276806 836.5514383360278,377.6632133150415 836.9911703325342,377.5351085354632 837.5534837760497,377.2995645813935 838.6105648925295,376.64044594339794 839.3399514453486,376.23310508034774 840.6251852231217,375.33845298705273 841.215417002677,374.75711491465336 841.2939000035403,374.6049163140415 841.3165463324985,374.34588013926987 841.2845938916435,374.00175999477506 841.2271406648797,373.3857293105393 841.2158102187095,372.95545469914214 841.3080557796056,372.4322986524494 841.3197794417501,371.9790775440342 841.4468027733383,371.45589712506626 841.6090262187063,371.049122934317 841.782973326277,370.73913647333393 841.8634806613554,370.59589663578663 842.2801585493726,370.5494458799367 842.7316287716385,370.51475887710694 843.2065754453652,370.41013379211654 843.6580456675729,370.2416940636176 844.0286007751129,370.0609665548254 844.44527866313,369.8114082518441 844.5274025530089,369.73123685771134 844.8619711147621,369.40460837914725 845.2442498844466,369.11365347274113 845.7305124409031,368.84676961394143 846.4133975609438,368.60222459887154 846.9223064462421,368.45114629427553 847.9745087716728,368.2189486436837 848.0210393316229,368.2077486762428 848.8313409991097,368.00967426167335 849.6416572302696,367.858595215861 850.0931274525356,367.8121635511925 850.5907058916055,367.89330312542734 851.0652302222443,368.1025575651438 851.4588540017721,368.3347755833529 851.806355000881,368.5440494020877 852.3039480035659,368.7415589156444 852.8480570027023,368.8109339297516 853.4105015182868,368.8663493087806 853.4386819982319,368.8691492853977 854.0754297742387,368.9390882499574 854.8392154453904,369.1248533561593 855.3137543395278,369.2647309486056 855.7882641067263,369.40408464480424 856.5176652231603,369.47345927837887 856.6637085581897,369.45573289488675 856.899943992903,369.4270080908609 857.3166510080337,369.47345927837887 857.7320909938426,369.63625987351406 858.3797905635438,369.96137696050573 858.8547081103316,370.25176580710104 859.4449398898869,370.71675714832963 859.9429406721028,371.13529616885353 860.4057267768658,371.52472671170835 860.8571969991317,371.85038258243003 861.2394903324894,372.0478866894264 861.5983363413252,372.23366715735756 861.9684836693923,372.25715407461394 862.3155768889701,372.16425382281886 862.6748015502235,372.0596503098204 863.1885746631306,371.9684419349942 864.7246365582105,372.07810146562406 866.2687812267104,372.00760030926904 867.4941296640318,371.8498185722856 868.8000000000466,371.639200883219 869.0900623360067,371.592428236414 870.0443830044824,371.2779512106208 870.8421308872057,370.862796772999 871.5262247822247,370.7055574126134 872.1103835591348,370.6770141964371 872.9085392213892,370.72012109757634 875.0882228906848,370.93386261200067 876.2581715626875,371.0625585502421 876.5429618915659,371.2488642600656 876.7136758898268,371.58179259332246 877.0417636693455,372.2213395454164 877.526409671118,373.25145624074503 878.2096880071913,374.1243090979988 878.4661522204988,374.552887553029 878.566087338666,375.23941159574315 878.5316882205079,376.25550352578284 878.4807157759788,376.8133483599231 878.3241721173399,377.5138382947189 878.0106478933594,378.4224730524875 877.7399987768731,378.96574518998386 877.3131992177805,379.46534714489826 876.7699057777645,380.1015289525385 876.0672142222757,380.9239981970168 876.4005594453774,381.169041950081 876.6287121066707,381.55453267419944 876.8706418916117,381.8980673390615 877.0907409067149,383.0830489912769 877.1416842240724,383.35719254784635 877.3835994453984,384.70163703677827 877.6255146666663,385.8317475611111 877.711279445386,386.63236535564647 877.5090062222444,386.8013058882498 877.0275933298399,387.20468368649017 876.948717112944,387.2947526812786 876.514635775995,387.7909969968605 875.773525560915,388.87803863495355 874.8046413369011,390.165324325033 873.7504001137568,391.30267440882744 872.6516526649357,392.5323345308716 871.5690998898936,393.56225789448945 870.4149381120224,394.3633480834833 870.1297400036128,394.80697942260304 869.371211775986,396.5339400731609 869.1325442276429,397.26732345847995 868.8000000000466,398.8392211747123 868.7332406613859,399.1547743619012 868.5282586169196,399.86635193033726 868.4201387804351,400.2416936143418 868.1090321067604,401.7627036058984 868.0232818915974,402.1811350743519 867.579501226719,403.08062289937516 866.7530194489518,404.3247227826214 865.8553218845045,405.5262792406429 865.4099246649421,406.1158464666805 864.8294067768729,406.88499609191786 864.0178963342914,408.02889447042253 863.7468394382158,410.6170592472772 863.4762194489595,414.0849818440911 863.3698909297818,416.64730355044594 863.3338170027127,417.51706421453855 863.5785575537593,418.2743620115507 863.8321964373463,419.06133457110263 864.5446018844959,420.9920776669169 864.9204289991176,421.8925530205597 865.0005431182217,422.084961758228 865.3423788942746,422.81426379975164 865.6134212267352,423.1722385288449 866.8246138881077,424.07267750197207 867.5078922240646,424.5307569707511 868.2490170027013,425.0738218141487 868.7761303324951,425.31656126482994 868.8000000000466,425.3225411539024 870.0225231076474,425.62807886343217 870.9990968888742,425.7740319914883 871.9675878968555,425.8025823275966 872.6516526649357,425.9311996958568 873.8341405582032,426.2175480162841 874.7034974436392,426.3886882298684 875.5024686649558,426.28858130137087 876.1578286649892,426.1459509327542 876.2775847822777,426.1107362660987 876.6424892303185,426.00279690668685 877.2266334436135,425.61688421698636 877.8961637831526,425.0016602908436 879.9726792249712,424.4602864169865 880.9362914418452,424.24031735249446 881.1733569991193,424.1862159752927 882.8833514382713,423.88588946755044 884.7349618915468,423.41385426043416 885.9036726613995,423.0710013936914 886.8584156728466,422.7846254823089 887.5562284374028,422.65598463016795 888.2544926720439,422.5989428687026 889.1327478898456,422.6873142977711 889.7233728853753,422.57043204520596 890.2221746632131,422.31258597326814 890.6210558862658,421.8836131345597 891.076982556493,421.4976872897241 891.4896263395785,421.221959059505 891.5470650027273,421.1833401436452 892.0171474489034,420.8970000287227 892.6300255573587,420.639694033307 893.0725974471425,420.5450792251795 893.299541333341,420.49653348416905 893.413617664075,419.78173495523515 893.5701904498274,419.316932426329 893.8124988871277,418.7162141891022 894.0406661119778,418.4019000780827 894.2971448889584,418.25871674212976 895.4306846720865,417.97402081018663 895.7790012302576,417.8867735246022 896.3344261120073,417.5153728235455 896.847383665794,417.10035711416276 897.2033897814108,416.7714806673175 897.2859214506461,416.64730355044594 897.6309903360088,416.12826316425344 897.9728261120035,415.5275290744612 898.7568405618658,414.2259350126551 899.1415514453547,413.8685378654336 899.8822684444604,414.6404169203888 900.7516253297799,415.570036032761 901.6415605191723,416.64730355044594 902.8188346596435,418.0724432437564 902.9402073315578,418.1390112353838 903.2889316693181,418.3297547058319 904.3496391111403,418.88736502680695 905.2088888888829,419.55738802126143 905.4686153387302,419.75990836462006 906.7655582151492,420.7744983616867 908.4326921102474,422.05419571028324 909.1163782257936,422.2829475328035 910.0282170026912,422.61182911437936 912.0230163342785,424.04138846253045 913.4631917796214,425.0464189639606 913.8754132196773,425.3713467021589 914.2043165583163,425.82885748989065 914.531996558304,426.3724802553188 914.8879881102475,426.9871334497002 915.2726989938528,427.6739233545377 915.7678598827333,428.52794058286236 915.9175586702186,428.8333091183449 915.4462528853328,428.8433759785257 914.9604126720224,428.91605868414626 914.1254257778637,429.1738906663668 912.8741687751608,429.62689726782264 912.2313625600655,429.8617754888255 911.251147889765,430.1252025681024 909.7519026631489,430.58994339301717 909.4250527857803,430.7823382830247 909.052851996501,431.12235060470994 908.8081114453962,431.2537809757632 908.3946666667471,431.3785068162251 907.7453796693007,431.48475017864257 907.4330642204732,431.56528326973785 906.9787686684867,431.79401708894875 906.6069902222371,432.07366730159265 905.9034831075114,432.60439693010994 905.7279194453731,432.8331287826586 905.5588074382977,433.1272924889345 905.2768570026965,433.3761563177104 905.2093840498128,433.42592499547754 905.2088888888829,433.4262471226684 905.1077595591778,433.5008799676725 904.3864557796041,434.33919269844773 904.1720365511137,434.9733743585821 903.9495491128764,435.39837487228215 903.8116031147074,435.9022532227391 903.7549654471804,436.0269742656965 903.6651520000887,436.162848585489 903.559974001837,436.26800058802473 903.3378797796322,436.491128686961 902.8985409991583,437.21535097731976 902.6279064462869,437.84951754502254 902.2221512249089,438.7219038498006 902.0753068942577,439.05017700011376 902.0753068942577,439.23136503683054 902.2747402241221,439.99357986822724 902.3123724515317,440.36432767054066 902.3686023395858,440.7037694780738 902.5643802169361,441.13603750627954 902.6368047787109,441.4268190227158 902.6469118862879,441.64492483250797 902.6165760000586,441.8255654272507 902.5939296711003,441.90440057817614 902.5825992249302,442.1879329075746 902.7816247751471,443.0988595599774 902.7630271146772,443.3432337071863 902.5939296711003,443.55797413692926 902.1303134436021,443.8510045231087 901.8095220054383,444.1210846620088 901.6359681137837,444.4073898867937 901.399295772484,444.8491465264233 900.9931473351317,445.33621637817123 900.8171758933458,445.61637879241607 900.7564895573887,445.85682232680847 900.5198172160308,446.21917772092274 899.6298383360263,446.9556415808911 899.4040886613657,447.19330441966304 899.0096638862742,447.6915171665605 898.2094838898629,448.6997329216101 898.0331046684878,449.08947719822754 897.8599585564807,449.6055980629171 897.611882951227,450.2022373972868 897.2854991076165,450.9873111528577 897.0597785600694,451.2478739922808 897.02740377601,451.28982487897156 896.6398529991857,451.7902752891823 896.4173509973916,452.1766277886054 896.383374222205,452.2895963577903 896.315813888039,452.65193246741546 896.1127251058351,453.1820282388653 895.9161316693062,453.5141672618629 895.6171710009803,453.7730539001641 895.4703266702127,453.9089082714636 895.2676456675981,454.11300154944183 894.9444221155718,454.66712544101756 894.7263619982987,455.0976727978559 894.6139167858637,455.335319627804 894.5621142187156,455.92297318269266 894.42740132974,456.21371912723407 894.2870377813815,456.4563960431551 894.1179403378046,456.69460381608224 894.0054659982561,456.807527904748 893.7574777742266,456.9551543528214 893.6009195519728,457.15922235837206 893.4973726720782,457.4293130201695 893.396636558231,457.7927206836757 893.3177603413933,458.2573752628232 893.2950848853798,458.2797383800498 893.1935623395839,458.608501892857 893.0725974471425,458.83513140905416 893.0115033315378,458.9496034083131 892.5964565618197,459.3784447067301 892.5737811058061,459.5825287499465 892.5284884480061,459.71837659200537 892.5213668693323,459.72765586563037 892.2983114524395,460.0191978001094 891.8124421120156,460.4033098677173 891.5591964445193,460.5335812093108 891.4576593351085,460.5676989123167 891.0968035555561,460.73711983533576 890.6534161067102,460.9853632277518 890.2500929991365,461.0474189640663 889.8123707733466,461.09999421751127 889.5417362204753,461.1905717444897 889.3613228942268,461.3147031030385 888.335393223213,461.8469749906508 888.1440426667104,462.039843464765 887.9862611058052,462.27749677503016 887.9183075555484,462.4362675243174 887.8519705600338,462.94786297905375 887.6703193315188,463.3420297278499 887.6027589973528,463.46672245982336 887.3325322240707,463.6590650236467 887.0562178844702,463.96543171751546 887.0392367786844,464.03477220895 886.9526710045175,464.3914775859448 886.9267770027509,464.6889258309384 886.893193443655,464.89300090877805 886.9045238898252,465.2323738403211 887.1181129955803,465.84457516053226 887.2423109973897,466.0112110890914 887.3665089991409,466.16104032308795 887.5016296675894,466.3533786000917 887.6144972231705,466.9599989616254 887.6133612658014,466.9762014942826 887.5695832178462,467.610775501671 887.5242759964895,467.84837760563823 887.4567302258802,467.9954270092421 887.3551785529125,468.10890410272987 886.7046682169312,468.67359094240237 886.5703776711598,468.91233819918125 886.4870304427459,469.2069575410569 886.340579328069,469.56924294529017 886.2168036693474,469.7391946797434 885.9930783289601,469.9443883372296 885.9206828941824,470.13782757127774 885.8785942186951,470.5772561157646 885.8559478897951,470.75839690034627 885.7208272214048,471.08603963669157 885.5739828906953,471.3583131141204 885.3401504427311,471.6221730620018 885.0444228836568,472.3092729347409 884.8340814507101,472.7956686122343 884.5856854471494,472.96171129480354 884.154036224063,473.2261514067068 883.7822577778134,473.57723456129315 883.6920365510741,473.62253878545016 882.9319063324365,473.83831224715686 882.5532538880361,474.0753788309521 882.3954868906876,474.14356633176794 882.0799383324338,474.2000202400668 881.8772573298193,474.25703765431535 880.9362914418452,474.6866498235613 880.885333560931,474.7098753232276 880.7388824463123,474.82282283657696 880.524870997353,475.072144237085 880.3893571129302,475.2080149258545 879.9119928888977,475.4685255633085 879.5891771164606,475.7966788082267 879.4313955555554,475.876095583546 879.2396517831367,475.94373867000104 878.9192535609473,476.1958552497963 878.7542047858587,476.46531973493984 878.6672166685457,476.64087686224957 878.5858937742305,476.80466018186416 878.2590438968618,477.1781126918504 878.1129859982175,477.5040273530467 877.937407772406,477.66000077480567 877.6064946631668,477.7427370462683 877.2897373298183,477.7326742578007 877.1206398862996,477.69912491508876 876.9402119964361,477.60855975633604 876.6813156693242,477.4274292351329 876.6246780017973,477.4045262676955 876.466911004507,477.41571611879044 875.6889549937914,477.84616233731504 875.4976190009038,477.95967043584096 875.3621051164228,478.0272922310978 875.15942411375,478.24251444320544 875.0016571164597,478.46894615117344 874.9086105599999,478.6254617146624 874.8155640035984,478.8955044207687 874.7848057742231,479.0822074654279 874.8434823395801,479.34103935421444 875.057872440957,479.7256535416236 875.1153256676625,479.9755484625348 875.0429156693281,480.3182198317081 874.9450048854342,480.58602487063035 874.8774591146503,481.0729105010105 874.7431394418236,481.5162236664037 874.6088343324373,481.80636469228193 874.3588217741926,482.193204893847 874.2241234490066,482.43134183462826 874.19014667382,482.7254049900803 874.0716138950665,483.13570762850577 874.0509627733263,483.45770205324516 874.0875318613253,483.74783842015313 874.0885950009106,483.75621024367865 874.1225717759808,484.3107617624337 874.1545387804508,484.87984054669505 874.19014667382,485.29573043467826 874.2916692195577,485.6691567180096 874.34789910767,486.14487308546086 874.7435472213547,486.5825932776206 874.9721076622955,486.9615899461787 875.1485014471691,487.2544950162119 875.1485014471691,487.5596951058251 875.2087800035952,487.9633002130431 875.3536000000313,488.2640310245624 875.5089494471904,488.5558261317201 875.4980267804931,488.83868559933035 875.4753658880363,488.92980581050506 875.4300586667378,489.4278667055187 875.5295714418171,489.8884756198677 875.5429262222606,490.54862702047103 875.5202798933606,490.63918248700793 875.4947791075683,490.67665230689454 875.4482776747318,490.74541402459727 875.0643532231916,491.31053847746807 874.8216224427451,491.5676538350526 874.7314157795627,491.8163973808987 874.6185482240398,491.99750634728116 874.3592295537819,492.3373867753544 874.2269487786689,492.51513440086273 873.9579307804815,493.0444718420913 873.8070232177852,493.19762812022236 873.6605866667232,493.2658249604865 873.4125984426937,493.2770133437007 873.2095242240466,493.24292499304283 872.5509165511467,493.169133943622 872.0035890062572,493.24292499304283 871.5751583289239,493.4581201224064 871.0310638933443,493.91648004436865 870.5945504427073,494.1149116412562 870.4141371165169,494.1825445246359 870.1212348872214,494.2166527333029 869.8732466631918,494.28482887597056 869.5941215573112,494.48774725050316 869.439165326301,494.70573722713743 869.3546238862909,494.99808022519574 869.3093312284909,495.4508402190113 869.2822138880729,495.50450725792325 869.1499185493449,495.76441073583555 868.8000000000466,495.9920974748966 868.767639779544,496.0131456485251 868.5544438898796,496.0953059316089 868.340447004477,496.0953059316089 868.1264355555177,496.0612384979322 868.0697978881071,496.0282375489187 867.8893699982436,496.0165061118605 867.6980194417993,496.14116514933994 867.4544876658474,496.2674741027877 867.1029379982501,496.32953185465885 866.8185408854042,496.29989143434796 866.6720897707273,496.2546158291516 866.5030068907654,496.2317164276901 866.1648120036116,496.2769719189673 865.7901936640264,496.37144697847543 865.3561268907506,496.6514911459817 864.6995581156225,497.22833943981095 864.5984287858009,497.3753329924657 864.5069842204684,497.71014761942206 864.4742307840497,498.06506339253974 864.451555327978,498.1220896759769 864.4066558862687,498.4390136617294 864.4179863324971,498.4278257561382 864.327779669431,498.529563219432 863.1889824427199,499.47248191718245 862.8621180017944,499.67092451881035 862.7156668871758,499.65975684914156 862.5692303359974,499.61446237991913 862.3689668836305,499.6206196921994 861.8162216959754,499.736280518322 861.8026193351834,499.7391177084355 861.4421713351621,499.85202172142453 861.3183811130002,499.943133633642 861.198217216006,500.33663650150993 861.147623424069,500.51716929711984 861.1063939981977,500.6641588519851 860.8446577777504,500.9956040480174 860.7095371093601,501.1766992667981 860.4097608817974,501.64676082402 860.1007076693932,502.332020013273 860.0558082276257,502.58076153844013 860.0218168889405,502.8412132068479 860.015758449852,503.32189235070837 859.9514166613808,503.5806522355997 859.7782851129887,503.78522507473826 859.5371854507248,503.93947441640194 859.2103064463008,504.09823070807033 858.9963095608982,504.2452159100794 858.780273777782,504.4978569980012 858.6856252303114,504.8527729708003 858.6471774436068,505.241772880021 858.6309973333846,506.02592593058944 858.4886094507528,506.5099525875994 858.3312356693787,506.89391698516556 858.1961004373152,507.1090878227842 857.7952094436041,507.5735529116646 857.4189891130081,508.0871907923429 857.3392973369337,508.19616351259174 856.8582776604453,508.82269438685034 856.6637085581897,509.1739156441181 856.4715424426831,509.5207697789883 856.2797986703226,509.78066325437976 856.1556006685132,510.0410994165577 856.1556006685132,510.29036832993734 856.1551928889821,510.64414057767135 856.1115022222511,510.82801803789334 855.9622403413523,511.0258585251868 855.7842300017946,511.1622521803074 855.5924716658192,511.28685536581906 855.1846921102842,511.50316522517824 854.9982057813322,511.7893109259021 854.8711824498605,512.1246490035846 854.5592747804476,512.7176198978268 854.2809506703052,513.1026912895031 853.9803588835639,513.415109457972 853.551957333344,513.697870543605 852.7181937777787,514.4221737098123 852.5381736676209,514.6256216410547 852.369076224044,514.9201497396862 852.3496630044538,515.1179835328949 852.3346771058277,515.2113171911915 852.2918019982171,515.4762282622687 852.2104791040183,515.7042400379432 852.037347555568,515.8238288534922 851.7375713280635,515.8825166593015 851.4446982258232,515.8484346803161 851.1570534399943,515.7590247674088 850.9159537777305,515.7249226342828 850.6477513387217,515.8171291467734 850.1481340017635,516.1429396818858 849.7083874417585,516.2787642295007 849.2176830008975,516.2636547369475 848.6885453369468,516.1960342017701 848.4126387769356,516.131793652341 847.5072662186576,515.8858765705663 846.9247239964898,515.6902571521932 846.7103193316143,515.5773880442721 846.5299060053658,515.441562708962 846.2705727716675,515.1699518192909 845.6997833386995,514.3763616630749 845.5379531094222,514.1511238772946 845.3437772231409,513.9857212129864 845.1738642204436,513.9041163119546 844.8413345564622,513.8599538733251 844.5274025530089,513.8974164988031 844.4897848889232,513.9018830409041 844.1176132266992,513.9018830409041 843.4901715626474,514.0404664818489 843.1131211093743,514.0645093245548 842.7652123307344,514.0265035233169 842.4496783360373,513.9471520395018 842.1114834489417,513.8113449928351 841.209751779621,513.3591969664558 841.1082001067116,513.3139478674275 840.9277867804049,513.1440573685104 840.770005219616,512.9853129514377 840.6458072178066,512.9059607844974 840.5220315591432,512.8606913961703 840.2679703325266,512.7455461155332 839.8537099946989,512.6566972621949 839.4058952248888,512.6231576078862 839.1805678934325,512.5667216358415 839.0677003377932,512.4873490744212 838.9633233352215,512.3353439350321 838.6510224498343,511.75243112497265 838.4592641138588,511.5249350174563 838.3010747734224,511.4343951899791 838.0081871075672,511.42324872652534 837.8293757725041,511.4796852321597 837.1513694435707,512.1134623640683 836.9713638969697,512.2157315500081 836.4191575609148,512.6119710144121 836.2265836658189,512.7377396519005 835.9110351075651,512.8265884457214 835.517425891594,512.8271517984103 835.3143371093902,512.7701525686425 834.964811776008,512.7589659887599 834.7803497813875,512.8204519256251 834.1419708871399,513.2569287474325 833.8264223289443,513.4156728079834 833.4882274417323,513.5173574236687 833.262900110276,513.5173574236687 832.391111111152,513.3444492628332 832.3498525582254,513.3362806840742 831.7863157760003,513.1669535676192 831.2899461120833,512.9506668038084 831.1269216711516,512.9148939418083 830.8845841066795,512.8612547486264 830.24339444621,512.7220663637854 829.890636003518,512.6986067272082 829.7069604409626,512.7427494701114 829.4302528853295,512.8841510012862 829.1373797831475,513.0875814001192 828.8105007786653,513.3597603165836 828.4985931093688,513.5167940742976 827.9824024462141,513.7006872865895 827.7174185529584,513.7672026399814 827.1874653298291,513.7755723854352 826.8719167716336,513.8096549486218 826.3083945529652,514.0047140617098 826.2295183360693,514.0388166799385 826.0713435591315,514.0728991689975 825.7444645547657,514.1069816484232 825.466548224038,514.2053459640883 825.1643544462277,514.355115490529 824.8653937778436,514.639041305607 824.7411957760924,514.6725804009184 824.391670442652,514.6842899089097 823.9616523378645,514.5054682957707 823.7816322275321,514.4439832156058 823.6153455502354,514.4266603519791 823.4761907769716,514.4747257595882 823.3540171093773,514.5563101561856 823.2981950009125,514.6725804009184 822.9640342186904,515.6109067600919 822.8143499947619,515.8937029503286 822.6618404409382,516.1597190816829 822.5886294470984,516.5179406062234 822.622606222285,516.8800842871133 822.7350805618335,517.1857930669503 822.7900434204494,517.28415487858 822.841875114711,517.3769235337677 823.0421240035794,517.5199895202531 823.2933453369769,517.6496561274689 823.5579068871448,517.7178391797643 823.7160816639662,517.7630866311374 823.7723261156352,517.7966248600278 823.9300785493688,517.8648078295228 823.9863230009214,517.9100753448438 824.1331818951876,518.0458777890308 824.2201408853289,518.3040830823593 824.2164999965462,518.5225934582704 824.1214436693699,518.7986430612509 824.065213781374,518.9059563946794 823.7270043307217,519.6307916924416 823.6800805547391,519.8995960842585 823.714071893366,520.240484500915 823.7949724444188,520.5590203595348 823.9640698879957,521.1134031325346 823.9689195520477,521.4140515167092 823.9280542152119,521.6940578179783 823.8508091164986,521.9991710019531 823.8059096747311,522.1774584629165 823.8172255574027,522.6189310445625 823.8398864498013,522.7776426995115 823.9640698879957,523.0939186569012 824.1780813369551,523.7393837973359 824.4034086684696,524.1126712690166 824.5797878897865,524.4932402312988 824.5898949974217,524.6564155717497 824.6105315556051,524.9324914108438 824.6178133334033,525.24487902291 824.6178133334033,525.7880549434922 824.5458111147163,526.102653274138 824.5085866666632,526.3552487069683 824.5187083378551,526.5664821378596 824.5838365582167,526.8184931970318 824.6178133334033,526.9995497527125 824.6064828871167,527.2258901834721 824.3933015610091,527.736648310587 824.3625433315756,527.9545783638314 824.3475719965063,528.3686504185316 824.3702328889049,528.8101004031487 824.403801884444,529.0023390561983 824.4276861156104,529.3655719098751 824.403801884444,529.6075387814781 824.3597180017969,529.876864158141 824.2686957796686,530.0210419049545 824.1335751111619,530.1685588776891 823.7953802240663,530.4965637203131 823.4939874418196,530.7195381083002 822.9814231040073,530.9240650476713 822.5214768924634,531.0849987591209 822.1492906666826,531.0738138729939 822.002839552064,531.05146421463 821.7649729991099,531.0229588386428 821.5614910009317,531.0671150109556 821.4627792213578,531.1867087541905 821.3644752213731,531.3878754230973 821.2588894435321,531.7074883386958 821.0457081174245,532.7250620017003 820.6690800071228,533.4576196175185 820.6164910079679,533.5755212292715 820.3397251982242,534.048816288443 820.2548196693533,534.194055220345 820.2309354383033,534.2348910659202 819.9797286684625,534.5109249274828 819.6132076657377,534.865752837999 819.4331875556381,535.0244484241994 818.5262130061747,535.5994239829888 818.1904356693267,535.9385985364497 818.0314453333849,536.0989623320638 817.9966529991361,536.1341852095502 817.7284505600692,536.2571131726727 817.2227602204657,536.4275344524358 816.7842369991122,536.4957069202792 816.3109214436263,536.4957069202792 815.9929407716263,536.3968176034978 815.7720698880148,536.2744329099951 815.4091897743056,536.0201885724673 815.2400923306704,535.8844063076249 814.8565902222763,535.4994074393471 814.3497056711349,534.9858859590313 814.1935406648554,534.8495593991829 813.7068848924828,534.5712733048422 813.4135894470965,534.4695661555743 812.6922856675228,534.119222994661 812.5495919502573,534.048816288443 812.0502804479911,533.8023924939334 811.6979297849466,533.5570947095985 811.4737966648536,533.3765911099908 811.1481409991975,533.0329435370513 810.7876929991762,532.4439949462248 810.4757998933783,532.0634509990341 810.3398636657512,531.8963629205537 809.9421912178514,531.6175268834049 808.9502674488467,531.1649022671627 808.8487157760537,531.1084749462898 808.7245177742443,531.0520274823066 808.4765441138297,530.8938899529749 808.3414234453812,530.7469371340703 808.2625326648704,530.5994007500121 808.1185136640561,530.066304870852 808.0881777778268,529.9539722168993 808.0618905600859,529.8276984409313 807.9583145529032,529.3320368886343 807.9356682240032,529.0828072170843 807.6941607823246,528.4837808263837 807.6201342293061,528.1093601645844 807.6310423324467,527.5773798787268 807.7997465600492,526.3887845533318 807.8110624427209,526.2077270834416 807.822392888891,525.8573398744629 807.7552403342561,525.5382345582766 807.5922158933245,525.2107795643096 807.4711636196007,525.0348704640055 807.2815169991809,524.7592575669114 807.0444660053472,524.5893630266655 806.0642513351631,524.2384279476246 805.3991774435854,524.0009165041265 805.1236786631634,523.8427697556908 804.9570133333327,523.6863127067045 804.8348396657966,523.5225526367431 804.5201066667214,522.9592484915338 804.0601458915626,522.5473910291039 803.7421797831776,522.3031769173394 803.358677674667,522.0427671588841 803.1446516622673,521.8617031830654 802.1187365546939,520.695946461492 801.9383232283872,520.4640411137952 801.2509962241165,519.9487658372091 800.8136817778577,519.6145760951622 800.5422316658078,519.4648130815476 800.1348598897457,519.2814919560915 799.4471396693261,519.0322616922203 799.1910541084362,518.9640793809085 798.5053582222899,518.5734336300229 798.173629553814,518.4208728131198 797.914325447171,518.3985208165541 797.7379316622391,518.3694491316564 797.2520914489287,518.2889738428639 797.0465705529205,518.2398034149955 796.8208500054316,518.149268614332 796.5619245510898,517.9570127105981 795.9822222221992,517.5611730178643 795.7164373333217,517.3796999530459 795.5913072641124,517.28415487858 795.4793717760476,517.1986289961787 795.0105126684648,516.9315086018178 794.8236185600399,516.8085609960544 794.5440711111296,516.564355415263 794.4651948942337,516.4290945241519 794.0938096640748,515.6293360139825 793.8256072248914,515.1247033977706 793.6306157796062,514.697146223014 793.5743858915521,514.5160712498473 793.5294864498428,514.2779974864388 793.4590862222831,514.0432630972355 793.234967665805,513.6442316977191 792.9206424463191,513.2027263550845 792.7393989973934,512.968553230894 792.5796076658298,512.7058699600166 792.4404383288929,512.4264464425505 792.3457897814224,512.0933425061521 792.3567124480614,511.719434457802 792.3902814435423,511.52718845233903 792.4016118898289,511.2779220882803 792.341726549319,511.1449087265646 792.1447398969322,510.89956498594256 791.7478684445377,510.59941358555807 791.5565178880352,510.4977265164198 791.3760899982881,510.4977265164198 791.2409838933381,510.55416345389676 790.5083496675943,511.4483785677294 790.260361443623,511.7088312585547 789.9783964445232,511.8446406662115 789.8186051129014,511.90890361281345 789.6183416605345,511.90890361281345 789.3922278968967,511.86753711130586 789.0879952213727,511.7317478492623 788.806030222273,511.6523747399042 788.5414541084901,511.62219483667286 788.2562705636374,511.7077045427577 788.0628811093047,511.85413725909893 787.7578620018321,512.2185483274807 787.2788812231738,512.7304764210712 786.8561303324532,513.2485388463829 786.7659236693871,513.5542568060046 786.7643071146449,513.5609566381609 786.7210096640629,513.7465197088604 786.552334563632,514.3098667641461 786.34196400363,514.6401478746266 786.1574874454527,514.8329723944189 785.9094992214232,515.1045840407896 785.5874844445498,515.3806615647627 785.1869866666966,515.554472182208 784.8051011129282,515.6818875392783 784.4895525546744,515.8629607670009 783.9616236658185,516.0317207711341 783.8459307805169,516.0980738889484 783.3281089991797,516.394992579997 782.911023331515,516.554295856884 782.869036600925,516.5849976262543 782.7872476728517,516.6448318515613 782.5857754454482,516.8672282049956 782.1108433351037,517.2668324217375 782.0778568817768,517.28415487858 781.6152892302489,517.5272524635075 780.5780291129486,518.0140094958188 780.4202621155418,518.082212461537 779.97120944364,518.2112950195733 779.1690051129553,518.6366065876209 778.8534565546433,518.7505994907988 778.3574801067007,518.8181984789553 778.2337044480373,518.8456002009043 778.0738985528587,518.9137825789803 777.8024484409252,519.1255923298595 777.5799464391312,519.4184195043053 777.4448403341812,519.5648428849236 776.5993385528564,520.8669529828476 776.2724741120473,521.025103622349 775.7579000036349,521.1776812726166 775.3335325582302,521.1849439961661 775.054786105,521.1385510787077 774.7283294436056,520.9345709065965 774.2950636658352,520.496451959887 774.1389132231707,520.4114916663093 773.8605745493551,520.39750932483 773.3071594382636,520.392499823618 773.2290987804881,520.391936506232 772.902219776006,520.3125891987002 772.6712272213772,520.2751486787747 772.3795483307331,520.268429100106 771.8423278933624,520.3355041592731 771.7096247751033,520.3473539483966 770.7658335573506,520.4316101404838 770.4110507804435,520.5277562822448 769.9490656711278,520.6523498189927 769.4530892231851,520.7088222550519 768.8332497351803,520.7088222550519 768.5736106667318,520.7088222550519 768.3369528889889,520.6747215175128 767.9425281138392,520.5389019065478 767.0970263325144,520.1086076335632 766.4768518827041,519.9275407622044 765.5977956693969,519.6900208530133 765.4626750008902,519.6559399468824 765.0678424462676,519.5654062062385 764.7862706631422,519.4860382378974 763.580335445411,518.6153611635091 763.2623693368514,518.4370684516907 762.9670349938096,518.3688858048408 762.5544057742809,518.3549434648303 762.0471134436084,518.3772753506491 761.6624025600031,518.4337287301314 761.2958815573948,518.5566545650363 760.9427007716149,518.7394134640926 760.6045058845193,518.8981503287214 759.5733333333628,519.4722972130112 759.5676681102486,519.4754156008712 759.3083494399907,519.6794183525199 759.0603757795761,519.8945463252894 758.7557498880778,520.4086951981008 758.6133474418311,520.623298794264 758.451546339551,520.7434460617951 758.352426780446,520.779236726783 757.9782162204501,520.9133460044395 757.737509774277,520.9133460044395 757.4931770027033,520.8451647536131 757.0890237724525,520.6914801701787 756.7831891058595,520.517133736721 756.4676551112207,520.2455342453904 756.2645663289586,520.1209000524541 756.1743596658343,520.0979850512522 755.8665006649098,520.0778665216349 755.465595107642,520.098548370006 755.1605759999948,520.1885183932609 754.9461713351775,520.3019666343462 754.7997202204424,520.4036856974417 754.3114333298872,520.916705776006 754.1249324373202,520.9915662886342 753.6386990080355,520.9015968628228 753.4469261085032,520.8904110350995 753.1087457849062,520.9245117116952 752.1058702222072,521.1396777065529 751.542333439982,521.3207427632587 751.2591596658458,521.3598527799768 750.7971745564719,521.3358315057994 750.5050878862967,521.2642907313129 750.3699817813467,521.241396065132 749.8849279999849,521.0832255900896 749.580709888076,520.9697982002108 749.227951445384,520.9027234928799 748.8140988871455,520.8792654430436 748.4423204408959,520.8904110350995 748.2845534435473,520.9245117116952 747.4370418916224,521.1617475396488 747.394152220455,521.1737581946072 746.7966386631597,521.4000894093479 746.5624129991047,521.5303151688713 745.8192784498096,522.0790805124852 745.507370780455,522.203149378649 744.9094640071271,522.4406442344189 744.613721884496,522.4747444739914 744.3730300017633,522.4076907194103 744.2605556622148,522.3735904608911 743.9563521138043,522.2037126876821 743.6634498844505,521.8527505683014 743.5372421120992,521.6124581178592 743.457535772468,521.4347331366735 743.2237178880605,520.913889201096 743.1897265494335,520.8004415339674 743.1221807787078,520.664662301162 742.9983905564877,520.483596262231 742.8414391182596,520.3611954663065 742.5796883343137,520.2354749933002 742.2710137742688,520.20137412232 742.0513516658102,520.2119966955797 741.4878294471418,520.246097563504 741.2507493262528,520.2913440689736 740.9594782151398,520.3818772662198 740.3603626667173,520.5741293155588 740.2814718862646,520.6193756983557 738.6754466702696,521.3944965187402 738.125264668488,521.4693969722721 737.2720733298338,521.6946211293398 736.3658997760504,521.915921813139 735.7841731129447,522.1360954734846 735.4682313387166,522.1930902893073 735.3007358862669,522.2582932914083 735.2659435520764,522.2718730545312 735.0292857743334,522.4082540274248 734.838750776893,522.5468277217005 734.3415655538556,523.1325050316227 733.4734174435725,524.1741514340974 733.180937557423,524.623442542681 732.9976843378972,524.8727015208569 732.4701632284559,525.3627886401955 732.1776687786914,525.5773834464198 732.053470776882,525.6455419120903 730.7459984497982,525.6567273000837 730.067569777777,525.6405125106976 729.8418492302299,525.4097231137857 729.803794659616,525.3711575832858 729.5995116657577,525.1006955827179 729.5715933298343,525.0638198406086 729.3446494435193,524.9732901478419 729.149250218703,524.9576184452744 728.7900255574496,525.0157385233615 728.5594407822937,525.0738786911825 728.5578096639947,525.0744419868279 728.2981123413774,525.4348701667623 728.2673541120603,525.4773183802608 728.0586146702408,526.146811242681 728.0460754489177,526.1876095701009 727.9141878898372,526.8241059543798 727.8721137777902,527.3320493526116 727.8506762240431,527.5885650879936 727.8284231111757,527.655052686925 727.6819865600555,528.0914960936643 727.6670152248698,528.1149527447124 727.5545554489363,528.2898716244381 727.3437916729599,528.6167550034588 727.0839487147168,528.8088933784165 726.9821203342872,528.8833265481517 726.5152709974209,529.0945555641374 726.5055571058183,529.0990014280251 726.072699107579,529.2420736666536 725.798030449776,529.2794912940008 725.5734895502683,529.328134192212 725.2336781084887,529.4013197896129 724.5051071147318,529.5812459298177 723.9767704462283,529.6449562956986 723.4205300054164,529.8120676011895 723.3064391111257,529.8466888022085 723.16444444441,529.8466888022085 722.889368007076,529.8466888022085 722.4419318897999,529.921584021824 722.3647013547015,529.9540929181967 722.196375779633,530.0249445791997 722.0406331164995,530.0908876834728 721.9253334471141,530.1657626350934 721.6445772231673,530.3501736897451 721.2121124409605,530.7955392086587 720.4568318862002,532.1645969088713 720.1768912213738,532.7105178235797 719.8564929991262,533.0027689684357 719.8391041138093,533.0184195123729 719.6437048888765,533.092166135204 719.4167610027362,533.1134090166597 719.1105185564957,533.0234486069239 718.1545813333942,532.6418000784179 717.0562562275445,532.0528294666146 716.9789820018341,532.0114899706969 716.3770119965193,531.841605616617 716.3005533298128,531.833800385386 716.0776581120444,531.8103243389342 715.8648700017948,531.7885179643345 715.5060385565157,531.8734702667862 714.8300419982406,531.942751711962 714.6010737777688,531.8969261844177 714.428743224882,531.862848717632 714.0379447751911,531.7091781328199 713.5727265565074,531.4292151321424 711.6021901084459,530.2434538980597 711.4897303324542,530.1758210614207 711.0281530026696,529.8144413967966 710.4812186738127,529.3862521702831 709.9953493333887,529.0258156477066 709.9803779983195,529.0263789249293 709.2870071182842,529.0470592432539 708.9233114453964,529.057681039616 708.550324224052,529.0185332778201 708.370304113836,528.9995427866525 707.8108160000993,528.887772419781 707.6926910009934,528.8492281152576 707.5361327787396,528.7978088673553 707.1728448853828,528.4787314258574 707.1433245582739,528.453041842964 706.5700738845044,527.9495490584814 706.2318789974088,527.5410480585124 706.0077604409307,527.3108255731931 705.6986926648533,526.9939772383659 705.5308185601025,526.8989628108393 705.371420444455,526.8084344915696 704.7852373333881,526.6916528596776 702.6274135609856,526.3904543043463 701.5501036657952,526.1199945831031 700.9432985600433,525.8226772962953 700.504760775133,525.6639897547138 700.1774885546765,525.6215013714682 699.4080522240838,525.626550891262 698.8918469973723,525.4897913121677 698.1677178879618,525.2979494296014 697.6236088888836,525.2292073555 697.0568389974069,525.24487902291 697.0483484444558,525.24487902291 696.8569978879532,525.2767051756091 696.3776093297638,525.3560693441541 695.8124705564696,525.584082612535 695.4613286685199,525.6567273000837 695.3743405510904,525.6746118481678 694.6659983360441,525.8517471898231 694.3990046720137,525.9182558610046 692.4616294400766,526.2999256045441 691.8932575573563,526.4278929313004 691.8491591110942,526.4379516684567 690.9037513387157,526.442960919172 688.70870311826,526.2205821727694 687.6633456640993,526.1210809294425 686.7555555555737,526.034153067827 686.4909940054058,526.00878484649 685.9039953351021,525.9137696450925 684.0904248888255,525.6218031356111 682.9075437795836,525.4309472268505 681.9572717795963,525.2191485178773 681.1603103289381,524.8715749277326 681.0001112178434,524.7944435111422 680.4442785564461,524.7240313769726 680.1886007751455,524.6916417813627 680.0668348871404,524.6759700423863 678.8224664463196,524.3094036637631 677.6100358827389,524.0405889544636 676.6015242240392,523.7069537023199 676.1625932231545,523.6214725974423 675.0557630009134,523.4996382799873 674.6196573298075,523.4024081298558 674.619264113775,523.4022471860226 673.5565177742392,522.9849593592808 672.2373072213959,522.4244491319696 671.7866525582504,522.2204711284721 670.6062035626965,521.4822525651543 668.9111513316166,520.4047922137252 667.3123933298048,519.1976775736839 666.572098673787,518.7137218125863 666.0676171093364,518.5410222685605 665.5125854436192,518.5270397107815 665.1877453368506,518.5192336203472 662.6589295502636,518.3476604524767 662.482958108536,518.3356495168409 661.8644147769082,518.293460341607 660.7697159964591,518.3470971255447 659.8627268836135,518.4633436071454 659.7612043377594,518.4761794008082 659.7353103359928,518.4828990790702 659.1713657742948,518.6270702898037 658.9185424498282,518.7852439769194 658.2109866667306,519.2272922636475 658.119964444486,519.2842884502898 656.9399086649646,519.73752084843 656.4054989938159,519.9638748695143 656.072983893333,520.0499218784098 655.5580020053894,520.0929554192116 654.7537587768747,520.0823328354745 653.9701521067182,520.0611077838985 650.976540444477,519.4899613705638 650.3466666667373,519.3481853081321 647.9622922239942,518.8114989380701 645.8076869974029,518.3157922387763 643.1899024498416,517.6485294669983 642.4325975609245,517.4423102030705 641.8504776818445,517.28415487858 640.8508352284553,517.012548127037 639.9066216676147,516.7325511061936 638.2103752248804,515.8944272424851 637.3345375573845,515.4616820098017 635.1771070009563,514.4154739253863 635.1560626631253,514.4054141882807 634.4072628907161,514.0678692863148 633.7098287786939,513.7532195302774 632.1333238898078,513.1289474842779 631.0179885511752,512.8059053537436 630.8185697848676,512.7483628806658 630.5851305529941,512.6807403799903 629.8262236729497,512.4610726206156 627.905844110297,511.8144608110306 626.0740692195832,511.1407841229229 625.8268965547322,511.04990196725703 624.9255726648844,510.7156876344234 624.737455217808,510.6295937439427 624.4146394453128,510.4820529379649 624.1379318897962,510.3551954666036 623.8418111147475,510.2199477510585 623.0586122240638,509.9935956126428 622.7013973334106,509.9371382932586 622.1148064426379,509.90752132833586 621.1277177743032,509.8974612163147 619.7971767751733,509.9729120361444 618.9197225529351,509.90474473749055 617.7073211165261,509.68173197246506 616.7416700018221,509.5202064109326 616.6563130026916,509.5062228101888 615.0680698879878,509.25083569964045 613.9847015538253,509.05687553898315 613.9377777777845,509.0636561017309 613.918757774285,509.0663924711116 613.39446977427,509.1429504287371 612.3968807822675,509.4877926232002 610.9158545635873,509.98409887371236 610.5084682240267,510.07015298330225 609.7814992213389,510.0383027086209 608.5905353387352,509.8549672937952 607.0666194488876,509.55316343763843 606.2190933333477,509.33745369996177 604.4925110045006,508.5102643543505 602.9471429974074,507.87258507075603 601.801486336044,507.4886036598473 601.5846495573642,507.41594805871136 600.840684885392,507.3007975939836 600.2840366649325,507.214741513686 600.1493237760733,507.19405746183475 599.4409815609688,507.2153048925102 598.4000805547112,507.35558613034664 597.7507935573813,507.51093755234615 597.3794083271641,507.5998304275272 597.0343394418596,507.68252609460615 596.8231824498507,507.73282756775734 595.514486783999,508.109544694802 594.6989276728709,508.22803439295967 594.0237321102177,508.38899830708397 593.6268752214382,508.48734715313185 592.5782992214081,508.7489128439338 592.4156825600658,508.7891536691459 591.9225314418436,508.9495534657326 591.4621628870955,509.16866423390456 591.0827094471315,509.36594406701624 590.7918315519928,509.5174096908886 590.3666776746977,509.73760592375766 589.6651803306304,509.92663553892635 589.4871991182445,509.9746021339961 588.4422494435566,510.2389411913173 588.2193542257883,510.29539836972253 587.9624531058362,510.36022550368216 587.8673822151613,510.3842690780584 585.8523686684784,510.85819813929265 585.1334970027674,511.0090985331044 584.3559633351397,511.17732207023073 583.3518935609609,511.3952819634578 582.6552604444441,511.590908329119 581.9080626632203,511.8921437430545 581.7098381085088,511.9720599317807 581.4262565546669,512.0860792366148 580.9169398898375,512.2911809235229 579.865931776003,512.5717314611247 578.5908196693636,512.991469582892 577.9690286648693,513.1965697343694 577.5288888889481,513.3164628244413 576.4669581084745,513.6056825350097 575.7043957760325,513.6447950465081 575.6198543360224,513.6492615980096 575.2043852231582,513.6425617707137 574.9009681066964,513.6380750995304 574.7868917760206,513.6112556662993 574.1711883377866,513.4659517768014 573.2912874382455,513.4229158780072 572.2289634418557,513.272018495918 571.0707529955544,513.2507922491641 570.5128960000584,513.1485038187529 569.9894235591055,512.9277504440397 569.2062246685382,512.72262971694 568.2510884409421,512.4968657366408 566.0948666596087,512.0441695593763 565.3925974472077,511.8724664860347 564.9039027768886,511.75297436269466 564.3889208890032,511.46236194390804 563.4337992249639,510.8593248629186 562.6829605546664,510.4608262013644 561.9770358898677,510.3635855682951 561.6339913386619,510.3635855682951 561.1833221120178,510.43901597720105 560.2282004480949,510.7190476892574 559.4773763413541,510.7944778764504 559.1565557759604,510.8939716097084 558.9195047822432,510.96718848263845 558.3507105564349,511.2365553709096 557.7928535608808,511.41932533207 556.9348125582328,511.59201492604916 555.8619591111201,511.75353772038943 554.0079311076552,511.9586399713007 553.256291441794,512.0359405331546 552.768820110301,512.0860792366148 550.9289624462835,512.217421616544 549.8128115485306,512.1850085516635 549.4374213404371,512.2286082463979 549.0834249955369,512.4113364687073 548.4721780053806,512.9719132230675 547.5494019982289,513.8873567186238 546.9486553315655,514.2483815844753 546.3155484444578,514.5501737238083 545.9664308907231,514.6574707076652 545.6516978916479,514.7223156228138 544.9206947840285,514.7664576271782 544.2665435590898,514.7876836079522 543.8154665529728,514.7916068930645 543.0885121137835,514.7983066567103 541.768879217736,514.7122559113195 541.1199999999953,514.6420592209906 540.3740255573648,514.5613601380319 539.0438923378242,514.3568055271753 537.7028218880296,514.2595680266095 533.059479779622,514.0773657046084 530.6989750044304,514.0879888157069 529.4331544462475,514.2282620818005 528.9837085582549,514.294173560309 527.7211356729385,514.4791922804143 525.9803830044111,514.734588469757 522.6441054435563,515.3057774596964 520.9454268871341,515.7332922442292 520.5437203343026,515.8338884725817 519.0986952248495,516.2994467275857 517.7001861120225,516.7498736395792 516.8474025529576,516.9443043199717 516.1875861049048,517.0946941444709 515.6297291093506,517.1919293655956 515.0180597761064,517.0516595368972 514.6924041102757,516.9449280106055 513.8380039965268,516.6638242827612 512.4540730026783,516.0602497996006 511.64782000362175,515.5773880442721 510.6004527787445,514.9508921626257 510.1307781120413,514.612785438716 509.93861199653475,514.4747257595882 509.5902954383055,514.2237955517194 509.28932499914663,514.0075106779695 509.0660074383486,513.8465542418126 506.1581605547108,511.9396468011837 505.7807314489037,511.67418474523583 505.5922207857948,511.5411718194082 505.2337679929333,511.31367531447904 504.71111111110076,510.98225839683437 504.5727718969574,510.8945148513012 504.04564400360687,510.4664195977384 503.5642311111442,510.07520315248985 502.99584466486704,509.66607840856886 502.97520810668357,509.6420548117312 502.3732526648673,508.94454349039006 501.7514762240462,508.08550066815224 501.5823787805275,507.8524645072466 501.17177389515564,507.2851638425491 501.1219956622808,507.19906750973314 500.82345733692637,506.6837759545888 500.4634025529376,506.061720951373 499.9593433315749,505.253523543186 499.1308517832076,503.93726108266856 498.5741889991914,503.54433332715416 497.8128354419023,503.0876799712423 496.87794255651534,502.55951329355594 496.01869277871447,502.16658106140676 495.3050785564701,501.89437695167726 494.69099167292006,501.6937246239104 494.0404813369387,501.4807776507514 493.689732664905,501.3661849403288 493.02142566401744,501.1191311383154 492.5748196693021,500.8531422854285 492.49592888884945,500.80613791558426 492.0098265315173,500.51716929711984 491.81428167107515,500.400905563758 491.2394290062366,499.9638189256657 491.06060310761677,499.82853946613614 490.60508421692066,499.48254289649776 488.06051066319924,497.54973291413626 487.04228511289693,496.71521886158735 485.75097833242035,495.7292163442762 485.0369563306449,495.185341964243 484.59196689072996,494.84546954126563 484.10449555917876,494.446938227542 482.22821444272995,492.9142355270451 480.43851366406307,491.4514016196772 480.3988716658205,491.41898298819433 476.1256914489204,487.9504611802113 475.45171922497684,487.4037545786705 473.71217533154413,486.02638187038247 473.3921994525008,485.756375214929 472.8768097849679,485.3209059549263 470.9339732195949,483.74783842015313 470.27396744542057,483.2134089866013 468.3022222222644,482.2329715617234 466.0582258916111,481.1170849155751 461.8606742186821,479.05650738679105 460.8525557760149,478.44656664298964 460.0786629973445,477.83386562022497 460.02081655466463,477.77125498413807 459.50947555556195,477.21890741813695 458.9544438899029,476.62018757974147 458.82418744894676,476.4793071572785 457.6214707768522,475.1850914119859 457.52398233598797,475.07999338486115 457.0267971129506,474.5444186987006 456.1659307804657,473.6324207796424 455.0959172267467,472.4988038536976 454.1149015608826,472.0286289639771 453.9688436622382,471.95874964105315 453.88430222222814,471.9190399731451 452.8062058951473,471.4164388332865 452.2847432249109,471.1732485278626 451.77581977599766,470.93565295872395 450.8514417777769,470.50457833131077 450.3380910080741,470.26474737079116 450.30530844448367,470.24965225416236 448.14586811728077,469.3182195297268 445.53371966583654,468.1553173706052 444.6048997830949,467.74717788482667 444.0296247751685,467.49435935754445 442.85066126222955,466.9762014942826 442.051821112982,466.62509916891577 441.47089544538176,466.50151670444757 441.11085522489157,466.4154315808846 440.1658261049306,466.1884338531527 439.8903564516222,466.11015798177687 439.1338525582105,465.89489404228516 438.4566472248989,465.6824677087716 435.9318946702988,464.9203947261849 435.53098911297275,464.79962840137887 434.58798432716867,464.49324369389797 433.58352133689914,463.997877839196 432.82904177781893,463.5159151663538 431.8933333333116,462.78891174902674 431.79786922666244,462.7146995482035 430.55954466131516,461.65632031677524 429.9968380018254,461.068110911845 429.3378371129511,460.299869652692 427.8980694471393,459.68987452372676 427.53437377430964,459.6306159647065 427.0594416640233,459.7133645763097 426.5638875591685,459.8844573663082 426.47973933519097,459.91352298791753 425.6002607786795,460.2903690096573 424.9801008924842,460.5363991910417 424.6880142221926,460.6521175414091 424.39270900620613,460.6912471863907 424.08766077162,460.6554789876973 421.806046776881,459.9677492745104 420.7700099982321,459.9258416565717 419.75704189157113,459.81952264884603 419.6830153387855,459.8117731529637 415.89729188982164,458.6655467902601 413.5485107769491,458.00799905188615 412.52096455113497,457.82963707626914 410.8635591111379,457.6014960052853 410.8089457778842,457.59424959044554 409.30120999825886,456.09799652791116 407.6207358862157,454.3585813266109 407.5936331093544,454.33050071343314 406.7922443378484,453.29495560904616 406.1943230009638,452.0128110978403 405.2338128214469,450.2022373972868 404.984339114686,449.7319556454604 403.50411389156943,446.99256128340494 402.70715244091116,445.6085478621535 401.9733094400144,444.33471649716375 401.9466144426842,444.2921995242359 401.928832341393,444.263693818124 401.23463133873884,443.1564754550054 400.9817788871005,442.7756302561029 400.56875645153923,442.15491724869935 399.6755153351696,440.8117158396926 398.0031239964883,438.1028409933497 396.68595234141685,436.1091753281944 396.4318911146838,435.7249860467273 396.0087324444903,434.9179892929387 395.5414898915333,434.0282210087462 395.48444444447523,433.9514544053818"/></g></g></svg>