<svg width="1200" height="800" version="1.1" xmlns:xlink="http://www.w3.org/1999/xlink" xmlns="http://www.w3.org/2000/svg"><g class="geojson-features"><g class="geojson-feature" stroke="#555555" stroke-opacity="0.0" stroke-width="0.0" fill="#111" fill-opacity="1.0" data-properties="{&amp;quot;N03_002&amp;quot;:&amp;quot;上川総合振興局&amp;quot;,&amp;quot;fill-opacity&amp;quot;:1,&amp;quot;description&amp;quot;:&amp;quot;上川郡東神楽町&amp;quot;,&amp;quot;N03_001&amp;quot;:&amp;quot;北海道&amp;quot;,&amp;quot;stroke-opacity&amp;quot;:0,&amp;quot;N03_007&amp;quot;:&amp;quot;01453&amp;quot;,&amp;quot;fill&amp;quot;:&amp;quot;#111&amp;quot;,&amp;quot;N03_004&amp;quot;:&amp;quot;東神楽町&amp;quot;,&amp;quot;title&amp;quot;:&amp;quot;上川郡東神楽町&amp;quot;,&amp;quot;stroke-width&amp;quot;:0,&amp;quot;N03_003&amp;quot;:&amp;quot;上川郡&amp;quot;}"><title>
      上川郡東神楽町
    </title><desc>
      上川郡東神楽町
    </desc><polygon points="569.3333333333721,551.1182478695991 568.7855980088934,551.7213288961211 566.2442284374265,554.6124665358802 561.6138624568703,559.7048868007842 558.9883737885393,562.4841242665425 558.2067768889247,561.8055674617062 555.2956968960352,559.3270078507485 549.2655402098317,553.9696277888143 547.6020908942446,552.4569456483005 545.0607504497748,550.1437922929763 543.1666726685362,548.4198201893014 541.0934922809247,546.4956768403063 529.9130215538898,536.1190213309019 529.4194917831337,535.6740071903332 522.5916017778218,529.5132786545437 522.0988584392471,529.0694196659024 520.7881384392967,527.8210392497713 517.2330288925441,524.4347537849098 514.7167668907205,522.0240805684007 505.25199951650575,512.9524029885652 501.04158822400495,508.9167916763108 497.9573766827816,506.05759410042083 496.5155555556994,504.719364014396 492.24761821865104,500.6989933621371 473.2049537707353,482.75833776505897 472.2429726719856,481.8520485012559 470.4937148872996,480.20408375398256 469.6368244054029,479.4044747945736 456.23112977086566,466.89885203010635 454.0919473494869,464.91813484212616 450.4227177813882,461.52263366873376 448.3441780054709,459.6045226287679 448.0690724409651,459.35062010004185 447.97036066139117,459.2479477364104 447.4679179947125,458.72544538858347 438.94584957160987,450.69377743051155 438.55339087650646,450.316855483572 433.89290746324696,445.8518499909551 432.01438355911523,444.05219861265505 428.23918956087437,440.43602412822656 423.7301379982382,436.1162824744242 423.6977777777938,436.08986697066575 421.26243089081254,434.10064238199266 419.7033148872433,432.60287431889446 417.77364377619233,430.7505337243201 415.3892693334492,428.6442844144185 407.3348075519316,420.8264174753567 405.99091177259106,419.61605686933035 402.7173448818503,416.3731497329427 400.86538490327075,414.53864566539414 400.65013555192854,414.32492668688064 399.60482178861275,413.59895730396966 399.4251948943129,413.47455926949624 399.20915911113843,413.3248707759194 398.59748977795243,412.89980649598874 397.9461493190611,412.3136152498191 397.9268089174293,412.2946071008919 396.6184773405548,411.00591555656865 395.5755811270792,409.85031584167155 394.446060885326,408.7775503030862 390.31327334418893,404.8509896788164 389.60204754490405,404.09583427902544 387.90218934055883,402.2925292645232 386.18852488533594,400.6894101332291 379.41647155210376,394.35073096182896 378.86145444982685,393.8316727281199 378.7028573298594,393.6828581079608 378.1162664392032,394.4223792757839 375.1525828834856,398.1510425894521 370.0157255679369,404.613783101202 369.7770288924221,404.9147011511377 366.61027111823205,408.8983665413689 366.16689823311754,408.48106699844357 355.0880519965431,398.06493706058245 354.6203871004982,397.62522649549646 350.8800000001211,394.1108962321887 349.39938156097196,392.71960845717695 349.13560644281097,392.47123384982115 349.0708860018058,392.4108216314344 339.22836912365165,383.1620161762112 337.61420288006775,381.6449218104244 337.2889695574995,381.3405915416661 334.48816480720416,378.7327038606745 330.2863460123772,374.82019525795477 328.2272048925515,372.9024834528682 327.36230445525143,372.08914703916525 327.09124755929224,371.8351122700842 326.60741711664014,371.38057182729244 311.9856073386036,357.641124521906 308.53809334046673,354.3749892133055 307.4854686721228,353.36348694667686 307.0720384567976,352.8789826682769 306.22735223476775,350.89064395282185 304.589738666662,347.0336769792484 303.8257054151036,345.16609798255377 302.33480510581285,341.52141327160643 301.999872455257,340.7025329457829 301.37037732987665,339.16277421440464 299.6162844444625,334.8759065924096 296.9543868871406,328.36875895416597 295.01093865255825,323.6172396329348 292.68324556807056,317.9233908121241 291.33367000194266,314.62319904449396 290.0961173049873,311.59486802096944 288.7615713280393,308.32923819159623 287.1660464357119,304.4257018925273 286.26310599118005,302.22318645118503 284.0224447147921,296.7618349153199 281.23629090131726,289.9713755728444 279.6286200036993,286.0552130564465 279.48781954846345,285.7105100310291 279.1698388765799,284.93596396327484 279.0865353385452,284.7333719897433 278.58729665435385,283.51564075949136 278.0622222222155,282.2362548187375 276.3314018988749,278.0189716912573 274.7158666809555,274.08129955094773 274.4973842203617,273.54405172757106 274.2740666595055,272.9967290270142 273.15511955926195,270.2499425302958 272.5547806720715,268.775778854033 272.329861120088,268.22288456442766 270.97865443560295,264.90521017293213 270.77234710752964,264.39812376582995 270.70116044813767,264.2223518306855 270.48107599653304,263.6839537791675 265.693714887253,251.9250103266677 265.3660348872654,251.12017241161084 265.18967022933066,250.68805249029538 264.120850887266,248.10559294064296 262.61832886049524,244.43836668669246 260.2048855610192,238.54900718224235 259.3755784535315,236.52724461525213 256.75087621691637,230.1226749223424 256.6182022258872,229.80025962844957 254.5679740018677,224.79490848240675 253.78963933873456,222.89631793723674 252.87213533872273,220.65823662019102 253.78963933873456,220.23988629574887 254.43366889259778,219.9462345658685 261.36755245528184,216.78794450848363 263.8766783148749,215.64568300853716 264.42831667198334,215.3941437334288 265.0885408995673,214.98771439411212 265.408094435581,214.68768817157252 265.6500242203474,214.36863784620073 266.089348437381,213.83903594582807 266.3774155663559,213.49084423080785 266.42597046052106,213.24679938552435 266.28033490502276,212.90529740659986 265.726220743265,212.3750071140239 265.26167244813405,211.9312503383262 265.21474867197685,211.59990335302427 265.30780979199335,211.27520624297904 265.552157127182,210.858734000416 265.5563514312962,210.8531315914006 265.6977926827967,210.66389906674158 266.3531235556584,210.41312039992772 267.10559334408026,210.1265101324534 267.21883955202065,209.91599586303346 268.02796157170087,208.85914938768838 269.65823510754853,206.98155374318594 269.8839702185942,206.72182336618425 271.4269206755562,204.94497634033905 271.81605888018385,204.49600641347934 275.6487206685124,200.08131268428406 276.52253400185145,198.5709278206341 276.684335103957,198.31904829840641 277.01364622218534,197.81069343583658 278.0622222222155,196.18723171699094 278.5735486577032,195.39563045167597 280.02585554495454,193.42840602609795 282.0704331094166,190.81619098153897 282.1837375717005,190.67285410367185 286.27528112370055,185.44728807470528 286.6085826558992,185.0217822769191 286.78823867742904,184.79109139129287 286.91928155033384,184.62425051024184 287.3116819912102,185.17403088515857 287.61754578491673,185.60179373633582 287.81817332620267,185.830226527818 288.0778997759335,186.12694294721587 288.6280817777151,186.6005356181413 288.8109126543859,186.75733816163847 289.62810288369656,187.42574313178193 290.0455817672191,187.76724084396847 290.28669599303976,187.93520820292179 290.5269946595654,188.10317544499412 290.9371917655226,188.34168308472726 291.3223395557143,188.56563900446054 293.5812926577637,190.07830343436217 296.98432955751196,192.45089449052466 299.57582688715775,194.2568954472663 300.8914111147169,195.23439967056038 302.33480510581285,196.3061389591312 302.86555932450574,196.70115242805332 304.27499110403005,197.74801560933702 306.31310244987253,199.0277686457266 308.9474748871289,200.39034548518248 311.12227976543363,201.51446055038832 311.19996177079156,201.55476720712613 312.8189631147543,202.41910153842764 314.67904955754057,203.6294223642908 319.98260132968426,207.4630054180161 322.5004944498651,209.7201122311526 323.7018130205106,210.8531315914006 323.85732266679406,210.99980181036517 324.88565532455686,211.79804253653856 325.9933302330319,212.65673783165403 326.60741711664014,213.11218164413003 327.1859106703196,213.54126535658725 328.0322280107066,214.16929163550958 328.5662153386511,214.70558335160604 329.2458382223267,215.0951659300481 330.07112578849774,215.6314958941075 331.52748134406283,216.50920111878077 332.43042178847827,216.9884170712903 336.6586880000541,219.2297163970652 337.2363951220177,219.53533918352332 339.8287080107257,220.65267474210123 341.1054075449938,220.96611458947882 342.61681334045716,221.48227985017002 344.1492197831394,221.96809566498268 350.8800000001211,223.39349635562394 354.08803089067806,224.07284290256212 360.3997302330099,226.08572227996774 363.282469546888,227.281375326158 363.56890555738937,227.40006574447034 363.60126577783376,227.4168315169518 365.2914537814213,228.30013620917452 365.62318244972266,228.4949569121236 367.8756984604988,229.8215390512487 370.3830475663999,231.4727842892753 370.7770499982871,231.7604573632707 373.78119111119304,233.95914206822636 375.1525828834856,234.87567123112967 375.89855732629076,235.3741549178376 376.08706798939966,235.50070005084854 376.6404831005493,235.87013891816605 376.8371202277485,236.00220501498552 377.5628513280535,236.48694379604422 380.04756866861135,238.03179028769955 380.7530855538789,238.47058243845822 383.2960571164731,240.05241185147315 384.99512888886966,241.0766802628641 385.8454948979197,241.5457724664593 388.2986384498654,242.8958179668407 388.8577042205725,243.20366758387536 391.3225277441088,244.43836668669246 391.47672667040024,244.51558050792664 395.2324928853195,246.39514106704155 397.7616873244988,247.499980558292 399.4251948943129,248.22785972245038 401.64045732980594,249.19700513890712 402.4819104427006,249.51492138567846 408.42707421886735,251.75708747608587 414.16593066672795,253.60294287407305 416.9330062222434,254.43243478640215 417.2914444516646,254.5186318248161 419.76320022763684,255.11306413915008 420.18714532989543,255.2764310174971 420.83035932446364,255.52720339340158 421.7964182186406,256.1159915687167 423.6977777777938,257.23303698486416 423.82561666856054,257.30815125314984 425.4761626737891,258.47789983655093 426.7350946703227,259.5277995725046 427.57814977434464,260.2296913078171 427.790166016086,260.40651386691025 428.7829053441528,261.450884576363 429.2028017777484,261.8930190888932 431.0831024355721,264.26151972822845 431.236019768985,264.4540951324743 431.70045155554544,265.21299143810757 432.0944831146626,265.8565987548791 432.99337489076424,267.32517915114295 433.9926095644478,269.29631471575703 434.38742755551357,270.1592783390661 435.37046755559277,272.307204618759 435.6827684409218,273.2116207277286 436.23213488364127,274.79987117956625 437.1957471005153,277.12911973369773 437.563826403697,278.0189716912573 437.91748778673355,278.87408716068603 438.505680668517,279.9194659398636 439.2298097779276,281.0264085030067 440.2978135609301,282.5139553160989 441.3617686755024,283.6287028218503 443.565729791997,285.43406228139065 446.0512335645035,286.9069155114703 447.7203626666451,287.8694992578821 447.97036066139117,287.97321148449555 449.95342176721897,288.79621920670616 450.90576179197524,289.2092128210352 454.7723566648783,290.8869266436668 455.1963017672533,291.0715836432646 456.37434777605813,291.58304612961365 456.76191311643925,291.75206945626996 458.10822644631844,292.3362969685113 461.142281102133,293.6536240944406 462.83570221520495,294.36540887027513 469.37636977783404,297.11192112386925 472.2429726719856,298.5384094003821 473.062551324605,298.9462694764952 474.03184332815,299.44651458016597 476.61040822044015,300.7783476530458 480.50534377247095,303.0614557120134 481.4010024392046,303.75306796620134 481.9527864321135,304.2723197657615 484.0532006684225,306.14021493750624 487.4295280072838,308.6302761878469 491.23626666667406,311.2871055661235 491.70853364642244,311.59486802096944 493.82939511479344,312.976953906531 494.6991597794695,313.54211416473845 495.61989688896574,314.08487304259324 496.5155555556994,314.61308680986986 497.76965245162137,315.3528097543749 498.6086588870967,315.8463734307443 498.87811379204504,316.00526760332286 499.04070132621564,316.101514555281 501.5213699983433,317.1053168126382 503.5529859983362,317.7622418142855 503.64523155929055,317.7857695746934 505.51825043931603,318.2557602804736 506.48189178307075,318.4191650294815 509.01350377255585,318.74367783160415 509.6170757689979,319.00667187187355 510.1972004409181,319.1946914859582 511.13494778308086,319.50022808270296 511.4933568853885,319.60650509403786 512.4149095539469,319.8806979561923 514.1309915592428,320.3909714136971 516.094654008979,320.73788101022365 518.1117064533755,321.07471843092935 519.1813122276217,321.25270505208755 519.894926449866,321.3544691862189 520.7881384392967,321.4825404565199 529.2172039964935,322.69065326842247 529.8677288959734,322.79136934981216 530.4793982293922,322.8853575590183 531.379076437559,323.258046836243 531.9769977742108,323.5042365731206 532.1970530987019,323.6161519032321 535.1801935645053,325.12909865856636 535.8460684515303,325.54207044286886 538.8833853440592,327.4242637005518 539.5921353386948,327.86293376173126 541.7281137778191,329.1766831857385 542.8648866703734,329.66123500140384 544.4151189049007,330.21406924549956 545.0607504497748,330.4151728116558 546.4127144392114,330.8362328612711 547.0745406578062,330.9727589675458 547.8682835627114,331.1350271337433 548.4880211058771,331.26260979881044 556.1436162276659,332.83589551236946 557.4923471077345,333.11345727404114 558.1962620018749,333.25783760572085 558.7933677795809,333.3943220585934 559.3888715662761,333.53983019216685 563.1632500053383,334.45964743662626 567.7653335609939,335.91661177028436 569.3333333333721,336.55128906469326 571.1076695609372,337.2694331742241 573.0381562312832,338.1680066250847 575.9945288817398,339.97404616704443 576.7664264533669,340.49100452370476 578.886239345884,341.90877718123375 582.0999208961148,343.42499314970337 584.2836386704585,344.36044277832843 584.4154971024254,344.41418006416643 585.0150495574344,344.6603079593624 586.1251420160988,345.1168725268799 586.2452622222481,345.16609798255377 587.2036315592704,345.55885392060736 588.9625886720605,346.28172459080815 593.6059162169695,348.04818663123297 594.0832804408856,348.2298190590227 596.1399748835247,349.30510923825204 598.0437519929837,350.5359629842569 598.5179122347618,350.8425072703394 600.0138806614559,351.59782912011724 600.4572535466868,351.82163370080525 601.0212126721162,352.1393746212707 603.304457785096,353.4272522776737 604.9525571130216,354.35597650607815 607.3636411164189,355.46483375609387 610.6444897850743,357.10849338787375 612.6348326684674,357.9488279293291 616.2660222294508,359.81961109826807 617.878528227564,360.640078115277 618.4473224533722,360.92957111482974 619.425498225959,361.4274724833667 622.8487493406283,363.1717908004066 624.3940882204333,364.0378026056569 629.6434635663172,367.7513468718971 636.1986655573128,371.9123256568564 637.1622777744196,372.6966221551411 638.9390315519413,373.9933722077403 640.3994357761694,375.05960608058376 640.6963866737206,375.2766625583754 642.1511111110449,376.4722217715462 644.9016715947073,378.7327038606745 646.1908666596282,379.79219057469163 652.1093500019051,385.2429255647003 653.7655466665747,386.8215386925149 656.7745520072058,389.4014282808057 659.105507328175,391.5717749094474 661.0788982328959,393.40987668023445 664.4576431218302,396.1988801411353 665.2820860018255,396.87911018176237 665.531268437393,397.100617478427 666.4236939947587,397.8947396057192 667.7627546738368,399.08632064040285 672.1221220126608,402.39659511391073 675.7419520000694,404.7055647568777 676.4936062293127,405.18432694952935 676.7436042239424,405.344290014531 676.8819580018753,405.4282182268216 677.6392628909089,405.88909796701046 678.1069277866045,406.1732610598556 681.3537851164583,408.1454790321295 685.446115100407,410.4353854522924 687.6638242134359,411.6289987763157 688.7271385316271,412.2946071008919 690.3945200073067,413.338281128963 690.6963060054695,413.54692679690197 691.0093933228636,413.7633849089616 693.3501062258147,415.37869996530935 693.8452671146952,415.83509065798717 695.2781753457384,417.15287216438446 695.9286711183377,418.13164939550916 696.4990673351567,418.99073910020525 699.2305495609762,423.7941029239446 700.7411106702639,426.34222815930843 703.701561116497,430.8926006969996 704.388465777738,431.81877222436015 704.9507937849266,432.57718325714814 705.6935059912503,433.57715950591955 705.9888257707935,433.9753690061043 706.3068064427935,434.476462119841 707.3432655646466,436.1084303050884 707.831960234791,437.2627769864048 707.8561939912615,437.3186680522049 707.951672661351,437.5446482237894 708.7275897741783,439.3756757780211 709.314180664951,441.19102571945405 709.5892862293404,441.4751473075012 711.221190883778,443.15736092743464 713.9097980019869,445.4783028350794 714.047336220392,445.6628417252796 714.1877871503821,445.8518499909551 714.9688888889505,446.9029088107636 715.0829797830665,447.0564420174924 716.0174648889806,448.83597858587746 716.8637822293676,450.44997209345456 717.3719046828337,451.2183506563888 720.0062479929766,455.20568198669935 723.3510306703392,460.62343167938525 725.1375129030785,463.3098344973987 725.963557774201,464.5512605122058 726.4692626774777,465.31295091001084 727.857664682786,467.527387636248 727.8932288853684,467.5843990484718 727.9466188800288,467.6694329943275 729.4143048818223,470.217095724307 731.0082277831389,472.9851225668099 733.968678229372,478.4639112909208 734.4676256428938,479.4044747945736 736.3886460019276,483.0256221956806 737.5844886756968,485.5899112180923 739.1872662187088,487.6610014268663 739.2414717724314,487.71716265322175 742.6024199965177,491.1959930558223 745.6178915557684,494.1884991808911 745.7271182222757,494.2029920105706 749.0419291022699,494.6592741525383 751.0970215538982,495.0159981037723 755.7945837796433,496.33109358052025 763.366030677571,498.62354630592745 763.5140837831423,498.63904529769206 765.5400199964643,498.85168331314344 767.612093553762,498.93549854902085 772.17532154324,500.31095797539456 772.7854180124123,500.38249437278137 773.3760284443852,500.3042350828182 773.9602017849684,500.0727983820834 775.200521557359,499.5807380193146 776.9594786703819,498.82704597583506 777.127775118337,498.7689147326164 778.1188833280466,498.4267291526194 779.0687475486193,498.26123192941304 779.7961388942786,498.3797490474535 782.6756742259022,499.599739305384 783.9936760036508,501.13622182369 785.1190893226303,502.3126406335505 787.5957384533249,504.429399096407 787.7866666666232,504.5778234980535 789.6580835556379,506.0318303327076 791.1670426737983,506.995755678392 793.1759686543373,507.98648738779593 795.0619782259455,508.59925680275774 795.8637893405976,508.8407894523698 800.9132944497978,510.36493541754317 802.267705116421,510.7897880845703 803.7807129032444,511.22031596355373 804.3316522098612,511.37686770630535 806.2217104497831,511.83086316176923 806.9417908907635,512.0030334088951 808.103642225964,512.2501983378315 809.7013225244591,512.9524029885652 812.059249550337,513.9887187150889 813.2097995661898,514.4943557696533 815.0674393316731,515.3106347412104 820.2917362345615,517.6364390594536 824.6106168889673,519.4993045083247 824.6761820161482,519.5294947415823 825.7028835555539,520.0091566626215 827.5516395519953,520.8713059174479 828.5694864498219,521.3464970557252 829.6124117902946,521.832877666573 831.7686044444563,522.8380799462902 831.9376873244764,522.9174992821063 832.2298031217651,523.0572579279542 834.1918344534934,523.9976077073952 836.3318615609314,526.2648415592848 838.0535942259012,528.0888373974012 839.0479646719759,529.1599867697223 839.2429415537044,529.3701828239718 841.6483748978935,531.958614314557 841.9088877798058,532.2403751594829 843.0189511111239,533.4378148362739 844.0416331093293,534.5425099682761 844.157325994689,534.6677312404499 845.7051115520298,535.8931332859793 847.7213484373642,537.1130147735821 856.1164517832221,541.2341698311502 860.6044444445288,543.4659431234468 864.5479348908411,545.4268179732026 865.8679464391898,546.4956768403063 869.7536195699358,549.6418119098525 870.7843989050016,550.512750429858 871.4243506630883,551.0527637407649 874.9034384499537,553.807509157341 876.2513828978408,554.9009223604226 884.797743331641,561.8379659763887 884.8770273281261,561.9028032393544 888.4564288854599,564.8284710540902 892.2089911183575,567.893876455084 893.1839337814599,568.6909390825313 894.0739126612898,569.370683928486 895.5019566648407,570.4584326885524 898.0845702257939,572.4304377231747 900.1210213263985,574.0994658282725 905.2101684338413,577.9650857929955 906.1212062152335,578.6570789322723 906.4788580124732,578.9276378513314 907.6285633421503,579.801811127516 908.0196530630346,580.0343385942397 908.9918577776989,580.6122758311685 909.1496393386042,580.706284570857 910.0428513280349,581.2382622766308 911.37946532981,581.7323698806576 912.0809626738774,581.9615553015028 913.3819833458401,582.3874492478208 914.6101571129402,582.7887539033545 916.0373855574289,583.3331621228135 917.7558851130307,584.1190265871119 919.6256708838046,585.1753599424846 921.1483779983828,586.0886666543083 922.2617035664152,586.8745221653371 923.9186866631499,589.507047086372 924.9268051058752,591.123441902746 925.6469146738527,592.3675519091776 926.2439913245616,593.3981350194663 926.3435477903113,593.5703276850982 927.164757561055,594.7049290144932 927.5029524480924,595.1710013363045 928.7465053297346,596.8890869807801 929.9504162133671,598.2841096234624 929.9916893297341,598.3321568171377 931.1284622222884,599.1504063049797 932.0912880072137,599.9328391954768 933.1455437939148,600.7890297026024 933.4222222222015,600.9645167936687 934.4675359858666,601.6273506289581 935.1844415715896,602.0823436388164 935.5614628978074,602.3483694904717 936.3163211094216,602.8792936023674 942.1320148766972,606.6931084836251 942.5786499982933,607.0150213559391 943.180590876611,607.4475911034388 943.8772239930695,607.9494515191764 944.2615562240826,608.2255708774319 945.200905557489,608.9017843252514 947.2956400072435,610.1547760885442 943.891816675663,610.9919378792983 941.0211359858513,611.8660355121829 940.4709831111832,612.0336681088666 940.0729028836358,612.1555094912183 939.6732206649613,612.2124868140672 937.9264095574617,612.4583824369474 937.5210475521162,612.503127285454 935.2636964409612,612.7490226128721 933.4222222222015,612.7297887866735 931.7132763591362,612.7118828174425 930.5863775574835,612.7009380445816 930.3978668941418,612.6987249472295 922.2632764303125,612.9737122173538 917.5155573192751,613.1357107175281 916.3238215680467,613.1670561672654 909.1496393386042,613.357824729057 903.2918277689023,613.5135458438308 901.7988303075545,613.56830975716 894.8223337815143,613.8242634894559 884.8770273281261,614.0203027000534 884.0509824568871,614.0366392937722 883.018572003697,614.0567582499934 877.3209886719706,614.1975908968598 873.7804135538172,614.4211524959537 870.9166651164414,614.2901380202966 869.3959968995769,614.2210898219491 868.1666580481688,613.56830975716 863.9880535609554,611.3496169362334 860.6044444445288,609.508704907319 858.6650448782602,608.4535642689443 853.4772151182406,605.7418936816975 850.7400531058665,604.3100144037162 843.7843533370178,600.569962400652 836.3318615609314,596.5280465506949 834.4523473352892,595.5086235331837 829.1528442312265,592.7062645389815 824.3209768960951,590.1676587759866 815.22845400183,585.3878011460765 812.059249550337,583.783320152259 811.5058344390709,583.5030681036296 809.6530297743157,582.5372343163472 805.9134291060036,580.8817057470442 804.1736667591613,580.0343385942397 796.6477746632881,576.3687653677189 794.821679559187,575.4476547929225 791.1807906704489,573.6120232399553 790.7859726791503,573.5527831224608 790.724456220516,573.5427219597623 790.5755875556497,573.520345932513 790.4202235449338,573.6835781991831 790.2066344391787,573.9093907018541 789.9186255644308,574.6740367128514 789.6370537814219,575.6164394730586 789.6370537814219,576.9568126292434 789.8013015608303,578.841556443309 789.9411699484335,580.0343385942397 789.9420728889527,580.0421458469937 790.2001682205591,582.0677572165732 790.7568455679575,584.7505977036781 790.9501913315617,585.4123491800856 791.0440680106403,585.8818600302329 790.9971151076024,586.4005463234498 790.5755875556497,586.8476804608363 789.9194119963795,586.9415660497034 789.2163126614178,586.8007175317034 788.5358742187964,586.5894848434837 787.7866666666232,586.3506858459441 787.5746795521118,586.2831588874687 785.8157224392053,585.718635996338 784.5964324407978,585.3654262147029 782.7671042276779,585.2234499831684 778.9781622330192,585.0557585612987 775.6252822187962,585.0356371927192 775.5395320036914,585.0311702485778 773.4440111218719,584.9171625397867 771.6632086758036,584.7964342332562 769.4349555486115,584.7997743837768 768.9203960036393,584.8802599271294 768.5441611094866,584.938410715491 767.3249002384255,585.2714997715666 766.8248459947063,585.419069706928 766.2220895574428,585.5979080898687 764.9089228800731,586.1165949921124 764.5796408888418,586.244043143699 763.8781726721209,586.51676667016 763.5140837831423,586.5937103038887 761.9687157759909,586.9203180497861 761.922578432248,586.9292921106098 759.9945675663184,587.3205688828602 758.9394962205552,587.7441595818382 758.3059815537417,588.0236823557061 757.8197335609002,588.2595420207363 756.6336193422321,588.8329524868168 756.032435768866,589.130341476819 755.9677444550907,589.143742081651 755.2346733226441,589.2957362778252 753.2030864497647,589.6355397427105 752.9838175575715,589.6724818716757 751.047680227668,589.9016195264994 746.770014435635,590.4068564233021 746.7635773440124,590.3666145745083 746.6688851058716,589.7629860398592 746.4779568924569,588.5468309348798 745.371913102339,581.5210925225401 745.1342941297917,580.0343385942397 744.0029388801195,572.9569201027043 743.5571775716962,569.7775640322361 743.0385111040669,566.6507271819282 742.6048375468235,564.0347361338208 741.0514013296925,554.0333402203396 740.7285855575465,551.9572239685804 739.8598112142645,546.4956768403063 739.368495104136,543.4076616127859 739.2414717724314,542.6070541627705 737.7924271220108,533.473598262819 737.30370332452,530.4334774138988 737.0464526793221,528.1715556890704 736.8352519964101,527.5353285287856 736.3659851094708,527.2535622009891 729.097168895998,528.0306729369331 728.610891776043,528.0977331371978 727.2508304498624,528.2855901537696 726.1012707555201,528.4148801346892 720.5248853332596,529.0436583500705 717.0077866667416,529.58488691604 714.9688888889505,529.9049703527126 707.394208882004,531.0943310001749 705.7857515520882,531.3503720340086 697.3445691164816,532.6954182307236 696.606692010886,532.8139184706961 690.6963060054695,533.7662251861184 685.0804242204176,534.6711123347632 677.144102001912,535.9412331280182 670.3647668908816,537.0268782287603 666.4236939947587,537.6566000646562 664.6477557760663,537.9403265483561 661.5246886684326,538.4401576967211 656.9613441707334,539.1790751327062 642.1511111110449,541.5788708313485 639.2829062258825,542.0436770534143 633.4769117867108,543.0096725789481 632.6985479964642,543.142697910429 628.9274026667699,543.7866924291011 622.4797962241573,544.7996520870365 617.878528227564,545.5924439129303 617.8534206579207,545.5967908375897 613.1566739910049,546.2363111599116 611.4957878612913,546.4956768403063 600.7299415608868,548.1772001044592 599.5802362312097,548.3561062788358 597.8932813369902,548.6244451679522 593.6059162169695,549.3047294047428 580.2576311182929,551.4227669474785 578.2057717760326,551.6307299938053 577.5002548906486,551.0202832843061 572.9766397725325,547.1083889189176 572.6206482205307,547.4996496266103 570.8681573262438,549.4282928373432 569.3333333333721,551.1182478695991"/></g></g></svg>