<svg width="1200" height="800" version="1.1" xmlns:xlink="http://www.w3.org/1999/xlink" xmlns="http://www.w3.org/2000/svg"><g class="geojson-features"><g class="geojson-feature" stroke="#555555" stroke-opacity="0.0" stroke-width="0.0" fill="#111" fill-opacity="1.0" data-properties="{&amp;quot;N03_002&amp;quot;:&amp;quot;上川総合振興局&amp;quot;,&amp;quot;fill-opacity&amp;quot;:1,&amp;quot;description&amp;quot;:&amp;quot;空知郡中富良野町&amp;quot;,&amp;quot;N03_001&amp;quot;:&amp;quot;北海道&amp;quot;,&amp;quot;stroke-opacity&amp;quot;:0,&amp;quot;N03_007&amp;quot;:&amp;quot;01461&amp;quot;,&amp;quot;fill&amp;quot;:&amp;quot;#111&amp;quot;,&amp;quot;N03_004&amp;quot;:&amp;quot;中富良野町&amp;quot;,&amp;quot;title&amp;quot;:&amp;quot;空知郡中富良野町&amp;quot;,&amp;quot;stroke-width&amp;quot;:0,&amp;quot;N03_003&amp;quot;:&amp;quot;空知郡&amp;quot;}"><title>
      空知郡中富良野町
    </title><desc>
      空知郡中富良野町
    </desc><polygon points="294.80117799830623,514.4537274795002 294.7194764515152,514.3936119725113 294.23969467752613,513.9115652231849 294.0543879964389,513.7267696952331 293.50097288528923,513.0877792605897 293.4712049779482,513.039927049249 292.94677134230733,512.1971815350698 292.6142271148274,511.52921105973655 292.30920800718013,510.5829397882335 292.11583311657887,509.72126904007746 292.1708251022501,507.6338489644113 292.1150175575167,505.24253581260564 292.0559477759525,502.0651701988536 291.8803986775456,500.9462809720426 291.55758290493395,498.72187364433194 291.1910473386524,496.79359660693444 291.03003266849555,496.351594925276 290.58989289263263,495.8216968548368 290.19344378320966,495.5711561877397 289.3576704568695,494.789592696412 288.67399890488014,493.9490283750929 287.3065975467907,492.46717196534155 286.3996084339451,491.5698051574291 285.58731155924033,491.0387743927422 285.26286466850433,490.82161618350074 284.8364728889428,490.32397124229465 284.19325889414176,489.5713294291636 284.11152822047006,489.2595783987781 284.0710706631653,488.7697060178034 284.0848186595831,487.92687631066656 284.16573377419263,486.06308518885635 284.30167000193615,485.0710615028511 284.4367615431547,484.26830094633624 284.6131553280866,483.46666003612336 284.7418389049126,483.05024662119104 285.1042675485369,481.8745131800533 285.58568044088315,480.724386808055 286.0675011128187,479.6399105329183 286.2960615538759,479.12552814692026 287.65370532975066,476.5936029612203 289.26056066853926,473.2811811202555 289.7314295467222,472.1688132544514 290.4790351076517,470.11005144863157 291.75334621872753,466.5759118923452 292.47992200544104,464.5494113845052 292.5956148908008,464.26328282168834 292.79545600002166,463.96817480860045 293.21214845147915,463.6897820389131 293.7590682168957,463.24110602220753 294.02849399484694,462.9081159688649 294.190324224066,462.62082299182657 294.4136126578087,462.040704199404 295.04310778318904,460.0119611262926 296.4824822329683,457.84955329220975 297.4266666667536,456.63721912296023 297.5310582329985,456.5032899597427 297.96633378136903,455.7973245087778 298.1775053369347,455.22604859643616 298.3223253333708,454.56461596197914 298.3781620054506,453.94884060387267 298.46796088886913,453.29858878982486 298.4550284515135,452.72285732318414 298.4550284515135,452.13822511537 298.2211960036075,451.3320685495273 298.1459315485554,451.1639017879497 297.67748022044543,450.1138089708402 297.4266666667536,449.7160994121223 297.1726200035773,449.3131777952658 296.810948665021,448.9134224472218 296.7931520000566,448.89337853953475 296.28829178318847,448.47357855841983 295.0058833351359,447.71302999102045 294.1701100090286,447.34221559978323 293.56814000359736,447.0783156726393 293.0244242204353,446.7664700145251 292.8618075592676,446.6339785835007 292.4605233494658,446.3077005877276 292.3931814683601,446.23534129705513 291.0041677939007,444.74096679664217 290.44585932814516,444.1406808223692 291.2233784322161,443.34002995758783 291.8375235698186,442.88907137617934 292.4273184427293,442.55609350971645 292.860992000089,442.3556892016204 293.30194733513054,442.1529996592435 294.0078719999874,441.86516097572166 294.175760668586,441.79660881555174 297.4266666667536,440.76279178773984 298.8749248852255,440.302207005152 300.5036255575251,439.86122502136277 301.59105712361634,439.56612744845916 302.34751732612494,439.0917095420882 302.58379645156674,438.7364768018015 302.7488306631567,438.214190321567 302.84672688366845,434.5983639625483 302.7051399964839,433.93463009624975 302.492366449791,433.2463991831173 302.38378057966474,432.8005935315159 302.25530089240056,432.2731226044707 302.30222466855776,431.6561280998867 302.51499821513426,430.9912636511144 302.82246400008444,430.1861594384536 304.7116775539471,427.5757865178166 305.9633277724497,425.84291253925767 307.3800413297722,423.3282728305203 307.69898319640197,422.6990274991258 308.65519712725654,420.8124844961567 308.9157100090524,419.9727466366021 309.0572968960041,419.33238693443127 309.0572968960041,418.7878072290332 308.82104689779226,417.9336289151688 308.5135811130749,417.1261560173589 307.99412821338046,416.29650889732875 307.096867555636,414.8720735969255 306.8371411059052,413.8040222939453 306.79604275198653,412.82617729413323 306.770003114827,412.2069683133159 306.7894308977993,411.6924030056689 307.02565176889766,410.4829256666126 307.049128220533,409.41481496585766 307.0726046721684,408.72651456383755 307.0717891131062,406.23507292044815 307.16645222413354,405.90208489081124 310.1188053333899,403.68687090236926 311.0169106775429,403.06980376824504 311.81950822414365,402.59535465791123 311.8905201209709,402.5447942780447 312.3866713315947,402.19215438119136 312.85920045513194,401.6452908834908 313.33085576526355,400.26980686420575 313.4686852551531,399.6000850649434 313.61405866674613,398.8931923636701 313.59058221511077,398.0634027586202 313.49591910408344,397.2324876204366 313.2127744569443,396.0696908281534 312.7621197939152,394.15066297893645 312.4805480106734,393.4356147290673 311.818721792195,392.1770076113171 311.5824426667532,391.5365746097523 311.48859511490446,390.3970872728969 311.37045555200893,388.85557509731734 311.3931455714628,385.42944062600145 311.5238389191218,383.5186290984857 311.60588999127503,382.319557413226 311.86561644100584,380.3023785146652 312.0542144855717,379.41237645375077 312.17226666677743,378.8554368072655 312.2337539982982,378.7062269692542 312.56224955734797,377.9052801452344 312.7863535503857,377.36064762750175 313.30662200879306,376.34035058453446 313.80178289778996,375.58061867801007 317.9329393210355,369.63352712767664 318.0098931485554,369.45050653861836 318.41193466319237,368.49401720112655 319.2857479965314,367.4624946474796 321.69924955035094,365.4356080351863 323.7624393387232,363.70297229272546 323.80846017436124,363.63359602633864 324.8409580088919,362.07884062925586 325.8426102331141,360.8412851104513 326.8450488889357,360.1706525029149 327.74394066503737,359.8353555559297 328.8750337706879,359.78410452854587 330.8532597760204,359.7829816576559 331.77804555383045,359.5501863612444 332.7796977778198,358.9575097828056 333.2934708907269,358.41612318740226 333.93589845334645,357.2052976717241 334.52650888531934,356.4566946476116 335.1438580052927,356.1737271564198 336.81380266684573,355.76046409248374 337.50720267381985,355.45074692653725 340.1391284338897,353.6717203441076 343.8649811060168,351.0672221274581 344.23314779018983,350.8247133034165 345.971861560829,349.67909946735017 346.4451771165477,349.3672490181052 347.3942549050553,348.3701751026092 348.07792645692825,347.3787518378813 348.66935244807974,346.0352447354817 348.6794013014296,345.99401699675946 348.92666134773754,344.97803978505544 348.91311724088155,344.2249473920092 348.90073821879923,343.5342563834274 348.66935244807974,342.24418854532996 348.07792645692825,341.1111674872809 346.51071311649866,339.5114294841769 345.971861560829,339.08049143932294 343.22176711121574,336.8811113120173 340.0493295502383,334.4313251504791 338.71353110752534,333.6324782356387 335.16812088887673,332.29114105395274 332.3929479965009,331.20824771776097 331.3395368960919,330.7960651589674 331.3144584533293,330.5386963620549 331.95688601606525,330.2546157601755 332.96669383114204,329.7648236043169 333.49814710055944,329.5070125312195 334.9625999929849,328.55225087539293 336.1956379878102,327.5439815912978 337.7110924515873,326.6415531663224 338.4311728924513,326.4120149477967 339.213556224131,326.25495180266444 339.9558023965219,326.2063809268875 340.4215157760773,326.1758586788201 343.016275342321,326.3307560401154 343.7104326543631,326.22823982767295 344.6611415608786,325.76362746732775 345.35372600890696,324.9380800204235 345.7906326756347,323.57102535135346 345.971861560829,322.66156314115506 346.30437666142825,320.9929568444495 346.4743042277405,319.33733446284896 346.5616855608532,318.49054731515935 346.3812431076076,317.7429880744894 345.971861560829,317.2289445010829 345.86746999481693,317.09790653386153 344.91681934229564,316.2466593949939 343.9151671183063,315.4990932440269 343.6837813477032,315.42111969168764 343.73472466506064,314.9052261438337 343.94024556083605,314.777114949713 344.711298446171,314.69914116547443 345.971861560829,314.2778657033923 346.5616855608532,314.0807247404591 347.3068735715933,313.5904988483526 348.08978119131643,312.57105685654096 348.2575242241146,312.35269612504635 348.9258166614454,311.1660681718495 349.41288021346554,309.9003359909402 349.52155346493237,309.43260384263704 349.5925362347625,309.1270793211297 350.15806822420564,304.0708072374109 350.2090406686766,302.5488028290565 349.97844132978935,301.49253161478555 349.41288021346554,300.4607243272476 348.61596245341934,299.40336098888656 345.971861560829,295.96677798836026 345.73802911292296,295.6628410416306 344.0170828800183,294.14190708461683 342.6036024320638,293.496722705313 341.34467043564655,292.6453927940456 340.17716844088864,291.3027059175074 338.327596885385,288.41336875554407 337.042770887143,287.27905343164457 334.75550623307936,285.70563694031443 332.7910282241646,284.21917961671716 332.13485266501084,283.48707949148957 331.6218077299418,282.87676704715705 331.44066622597165,282.66138824552763 331.08144156460185,281.14033269835636 330.42846998770256,279.56467004225124 330.341088654357,279.14345394290285 330.284465550445,278.87046540435404 330.67121533164755,277.68034411320696 331.5183482313296,276.31639302911935 331.85249444982037,275.4906372713158 331.74891844263766,274.2269655679702 331.18420201248955,270.9753275028197 330.2076282312628,268.30747866042657 329.4883342223475,266.6927380798152 328.3831059911754,265.1448637503199 328.20350822410546,264.44837124069454 328.1517202205723,263.26263237540843 328.3831059911754,261.01823381416034 328.8718297885498,257.87000700313365 329.7189335610019,255.83165359235136 330.8233462331118,254.2046335262712 331.2602528996067,253.19938531704247 331.56850511650555,251.70265866443515 331.46574466861784,250.25832032697508 331.1005780765554,249.3411208994221 330.95197155559435,248.96779675059952 330.5150648888666,247.3172598130186 330.46977223129943,245.71128650696483 330.46409244439565,245.51067952119047 330.6696133405203,240.63475536939222 330.6938762241043,235.3374411003315 330.43901400186587,232.4753234286909 330.35405021870974,228.28016740147723 330.1291306668427,225.77347138617188 329.5894635519944,221.4377606465714 328.99803756095935,219.68335169070633 328.12501065968536,216.94700533954892 328.0991457849741,216.30165582121117 328.2277711076895,214.96075343206758 328.20190623309463,213.8505719738896 328.1303700481076,213.6612142433296 327.9194897635607,213.10265021026134 327.35890938306693,212.2745124619687 327.0457055574516,211.81192900653696 325.3498668943066,209.33628196496284 324.0650117689511,207.19395111018093 321.69924955035094,202.87712988094427 321.1102411095053,201.80228659434943 318.68299155915156,196.8195823765709 318.4516057885485,195.7873299307539 317.9370171164628,180.61231482040603 320.7752793316031,180.14742358616786 321.69924955035094,180.09974649961805 322.26562622585334,180.07053023332264 323.6523971130373,179.60563796083443 326.5574186666636,178.83308969868813 326.6581693440676,178.80636149144266 328.971327999956,178.0315632596612 330.47865600010846,177.34593740070704 331.63491492986213,176.82031902729068 332.2076995697571,176.56005784723675 334.75145756441634,175.8376660621143 337.6156137814978,175.32147568103392 341.1359455573838,174.93467330560088 343.1392208781326,174.8565743075451 344.1408731023548,174.98479952500202 345.60614155384246,175.37164195347577 345.971861560829,175.39339404605562 346.91604599473067,175.4497006527381 348.0212450987892,175.29474708694033 349.1005793280201,174.6749318333459 350.71958067209926,173.17880430130754 352.3118433280615,171.06179958221037 354.05868356267456,168.6369879557751 355.44624088180717,167.19215504493332 357.24483999295626,166.18550276185852 358.19551977259107,165.97812753816834 359.17046243557706,165.98145870724693 360.5653306597378,166.1999913281179 361.52573889435735,166.1999913281179 362.4707680143183,166.16872652620077 363.43033156264573,166.1531543256715 364.1860053334385,165.9312904928811 367.5445360071026,164.1352615832584 368.64891955198254,163.54439526610076 370.06644866848364,162.86430723615922 370.24444444442634,162.7406911487924 371.59320445160847,161.80409656401025 373.5924311040435,160.6345924467314 374.5374602242373,159.875348912552 375.1984708836535,161.5520871449262 376.75680045527406,167.55007306626067 377.11922909889836,168.32486464141402 378.3628111076541,170.30142480210634 379.1346795519348,171.2657590963645 380.3078904605936,172.11976244830294 381.72378845885396,172.91011119622272 382.7788015503902,173.21111166733317 383.92772044811863,173.3047829376883 384.62027576903347,173.32039481255924 385.9747155626537,173.21006819960894 387.0289422222413,173.00378258287674 387.95777666848153,172.64037432341138 388.80811355030164,172.0550671541714 389.5953611092409,171.31259511160897 390.19246688717976,170.75854895293014 390.3720646543661,170.55454887857195 390.72322110587265,169.9870561308926 394.5170273281401,172.4132589349756 404.5555987911066,178.83308969868813 412.8655053371331,184.14720882248366 418.78963933873456,187.93575922423042 437.6640073386952,200.006483104371 440.75226754846517,201.98061821237206 440.904398449813,202.0798161214334 443.0622222222155,203.4818249499658 450.7703917797189,208.49027460830985 454.1806813298026,210.70731081685517 456.62785382405855,212.2745124619687 467.33480510581285,219.13098089047708 468.8850082133431,220.1236103004776 471.6111601778539,221.8695496302098 474.3010780160548,223.5922841260326 488.8079522133339,232.85316678421805 491.60741711664014,234.64086303435033 493.6406351076439,235.93928679072997 496.9409115592716,238.01897314481903 498.19337733695284,238.8080640665139 500.26463533507194,240.14771125337575 500.81560376891866,240.50439824198838 508.87006555031985,245.71128650696483 513.8932688783389,248.9585288359085 515.8800000001211,250.24307448760374 524.9118219946977,256.0824417533586 531.4459942115936,260.30832972668577 540.1525828834856,265.93695556145394 552.873062229366,274.1601311924751 553.6788928853348,274.6805241749971 560.5819599645911,279.14345394290285 563.2414690988371,280.8628935776069 563.9486462293426,281.3197292541736 564.4251948943129,281.6280567458598 565.2367053369526,282.15324755909387 566.1736079929397,282.758306724194 567.8387175537646,283.8347170097986 573.1034428871935,287.23893891921034 581.5907626667758,292.725620025245 582.0454659982352,293.018729988893 585.7292299947003,295.4009824299719 586.9792782223085,296.2087800389272 588.6977777777938,297.3197079540696 607.0818491164828,309.2040120122256 612.2916407183511,312.57105685654096 612.9703606613912,313.0097030227189 614.9413048890419,314.2835212200298 615.0489004374249,314.3537137910607 615.2333624319872,314.472920785367 620.2570317937061,317.7207273149397 624.6988871111535,320.59074408275774 631.8026399858063,325.18318163231015 637.2429726719856,328.6994059412391 648.528126236517,335.99323613464367 648.3533635699423,336.25946266704705 645.7076315592276,340.3035192885436 641.9839634204982,345.99401699675946 640.7592557796743,347.86558083014097 637.6879475484602,352.6513237496838 637.5374768925831,352.8852485640673 637.2429726719856,353.34399400104303 631.0388980054995,363.00784527050564 626.9627044410445,369.3829364570556 626.8114182258723,369.61905070132343 626.629373781383,369.9064537184313 625.3809275449021,371.8747161379433 623.7651884374209,374.40215935272863 622.3954277832527,376.545260451152 621.9682204445126,377.20024906814797 620.5600702577503,379.41237645375077 620.3743266701931,379.7042188947089 617.7027006578865,383.87899503594963 615.743116003694,386.9275082729873 614.1540864568669,389.385786780389 612.9703606613912,391.2366868253448 612.5820088890614,391.84396020683926 611.0107760071987,394.30327155732084 609.2598871041555,397.07879828097066 607.9977219982538,398.99672039673897 607.5082117690472,399.74186431756243 606.7671015537344,400.91466746066 605.180460430216,403.4272939246148 605.0720784498844,403.59437107510166 602.500795335276,407.57046861207346 600.816287118243,410.1877523008734 599.1114481779514,412.82617729413323 597.8768664463423,414.79076410178095 598.4618262187578,415.183880023018 602.4789500018815,417.88018503721105 603.9611704320414,418.82790001196554 605.1068562205182,419.57294299348723 606.5891057777917,420.52069145505084 606.8836099982727,420.71558102039853 607.6433615644928,421.22010411391966 609.8667213370791,422.66342567570973 610.0689799964894,422.82154904986965 610.3610666666646,423.02425472589675 610.7356704426929,423.26480712823104 612.9703606613912,424.70699396787677 615.0100739982445,426.02332476945594 617.0748657778604,427.3552840721095 618.1978615466505,428.1003008943517 620.241652679164,429.40879555325955 622.5095186773688,430.8966494114138 625.0022751004435,432.49803054274525 626.1924671146553,433.2653218509513 628.7742651165463,434.95693023491185 630.3689744499279,435.9725310494541 631.7088215609547,436.8623258488951 633.0187260018429,437.730909959937 635.5560177778825,439.4013200486079 637.2429726719856,440.5098691529711 637.9590044445358,440.98035555530805 638.4752242347458,441.2732865998987 638.6637348978547,441.3935537939542 639.1491964587476,441.70195869600866 640.5861242311075,442.6719102067291 641.7770735502709,443.41692013607826 643.4607953351224,444.49819070572266 644.5837911040289,445.21978339517955 646.043379768962,446.1673916943255 646.1466353777796,446.23534129705513 647.2788644409738,446.980300208088 649.2270895218244,448.25277438090416 651.3202802346786,449.6194079061388 653.9028646685183,451.28753142798087 656.4846626702929,452.9800565650221 658.9774482203647,454.603580407158 659.7638802204747,455.10025627410505 661.5155555556994,456.21230143948924 661.8966255503474,456.4542640907457 662.9071906702593,457.1535732811317 663.1321393493563,457.2883439009893 664.8862031076569,458.42968209437095 665.6329931094078,458.91624842508463 666.5844593211077,459.53533833369147 669.7116042240523,461.57306458993116 672.4519702186808,463.37803787749726 675.1017508977093,465.13621840352425 677.7506868907949,466.8287272169837 678.9181888854364,467.57246051513357 680.4230993350502,468.5434310930432 681.433664455195,469.21929615573026 682.0388384426478,469.6023028930649 682.8260860019363,470.10003036959097 683.2298460161546,470.370599359856 684.1731857636478,471.00080347515177 685.7881384392967,472.0490423052106 686.3965746631147,472.44382925669197 686.6207077831496,472.6253292260226 690.9104904534761,475.3766324904864 692.7738100053975,475.2641983971116 695.0424915626645,475.0994152162457 695.9171787092928,475.0364841253031 698.5223657813622,474.83550536009716 698.7238380089402,474.81321891315747 701.9132275485899,474.5860653888667 704.8769111040747,474.33782766992226 708.2233248995617,474.1351648133714 710.0607504497748,473.9812034597271 711.1869793279329,473.8868464662228 714.5325775644742,473.63856794912135 717.4744157867972,473.4136580177001 720.5513746775687,473.187625531049 720.7754786703736,473.187625531049 723.24481689604,473.0941099897027 727.6098348941887,472.7912364334916 734.3333333333721,472.3253411295591 758.6059162169695,470.64373343938496 759.8316724337637,470.55875486216974 768.2316108800005,469.97641030390514 782.878528227564,468.97009092441294 792.0535682276823,468.3396410329733 795.5876479999861,468.09692861215444 800.8661213299492,467.73504414304625 801.5481908908114,467.6860606256523 802.4009744499344,467.6259335448849 803.2464471040294,467.56468407658394 804.0021208747057,467.51121103356127 807.1511111110449,467.2860950047616 812.4101566578029,466.90993912372505 822.6321997937048,471.9650663199136 823.2818508801283,472.29018750274554 831.4236939947587,476.3704995131702 832.7886486755451,477.05455984926084 837.1479868872557,479.23683813452953 837.9523029334377,479.6399105329183 852.748787996592,487.05398254137253 855.6963060054695,488.5300201041973 858.066932451562,489.71714444324607 868.3245106631657,494.85640645300737 879.9688888889505,500.69614638236817 882.2124628765741,501.82132917741546 885.4779615574516,503.4601573732798 904.2414717724314,512.8705606040312 904.5791132445447,513.039927049249 907.1784748942591,514.3435557823977 909.0183179948945,515.2185557369958 911.7384697742527,516.4253074780572 911.6616033280734,517.4316306892433 911.5005886578001,519.5312298957142 911.4107897742651,519.7994995768531 910.6081922276644,520.457388237468 910.9350566685898,522.7573395302752 910.9658148977906,524.7299341843463 910.8468889031792,526.6713344879099 910.7465460053645,527.5385155295953 910.5199953351403,528.493617348664 909.3581440000562,532.9685958705959 908.5118266595528,535.6046056586783 907.1436971236253,539.0397228271468 907.1145700124325,539.4271076742443 908.2747611022787,543.66922587523 909.2262564409757,546.0290250951075 909.3913197795628,546.4353126549395 911.0256711113034,550.4580397637328 911.0709637688706,550.5693571477314 914.071900899522,557.8154160950799 910.9965439999942,558.5444858953124 906.0740622222656,559.8288775723777 904.2414717724314,560.2604659515782 891.0064328818116,563.3772477727616 889.5994477795903,563.7245249535772 889.4886191219557,563.7523728195811 879.9688888889505,566.1082907271339 874.8617994808592,567.3636730686412 860.1600357830757,570.9780048665707 858.0709811201086,571.486663510499 855.6963060054695,572.0635159829399 855.560369777726,572.0965316001675 849.795619328157,573.5345096345991 847.0042808890576,574.230156352045 840.3050453333417,575.900710034708 840.3706104605226,576.1978457366349 841.176120718359,579.8261094009504 842.2670766648371,584.7397408349789 842.437790663098,585.505429671146 842.5664159858134,586.0863755854662 837.9425162241096,587.0568326215143 837.3009333475493,587.191531207005 835.1584304355783,589.5196975201834 832.2044753353111,592.7115047729458 831.4236939947587,593.4217600199045 830.4940439893398,594.2673088134034 827.3814917691052,596.2416067186277 823.5432084480999,598.2425306059886 819.9128344462952,599.9841510921251 818.2080828872276,600.6106939264573 816.7468922310509,601.0613999349298 816.5025448962115,601.1370383370668 815.7152682099259,601.0714156145696 814.1740071254317,600.6429444730165 810.8300400072476,598.2402870677761 810.3300148907583,597.7662189472467 807.8785024570534,595.442538626492 807.1511111110449,594.6371378302574 806.687494883663,594.1238000997109 806.0798742186744,593.4515676180017 805.3201517798007,592.6102227183874 803.0903257884784,588.5292579911184 802.6970806614263,588.1664310282795 801.9753982294351,587.7390589540591 799.1880793316523,586.6194823867409 796.4995013406733,585.664608989784 795.1547900018049,584.9411896308302 792.6296442311723,583.130428200704 792.0066444516415,582.9000905267312 791.3180795449298,582.8010079986416 788.5073424498551,583.2617634473718 787.2937031112378,583.1960958329728 785.2612715519499,582.8010079986416 783.2531320035923,582.0163995578769 782.9003444337286,581.8784127019462 782.878528227564,581.8668336620321 779.0960233245278,579.8717448206735 778.6631070720032,579.8261094009504 778.473023544997,579.8060762902023 778.0657391501591,579.8261094009504 777.8168479858432,579.8383696638048 776.9317624606192,580.0687503056251 774.210765994736,581.418736411375 773.718867342337,581.5834875710425 771.9809400035301,581.7147835878422 768.4452291129855,582.067563653749 767.2906886825804,582.208915931813 766.4063313351944,582.4070012985612 765.395795342396,582.8299354534247 764.2492939947406,583.4297987387981 762.1011695503257,584.3535500453436 759.8737611094257,585.2439234260819 758.6059162169695,585.6483424947364 757.1034524444258,586.1275625946582 756.0864502331242,586.3245630088495 755.2911053369753,586.4603036934859 755.2006656570593,586.4489652626216 753.6923473351635,586.2588962218724 752.5118837760529,586.2266037015361 752.3630151111865,586.2377418169635 749.8556660052855,586.4236040352844 743.9274833351374,587.577677422436 738.3787686686264,588.4991693357006 737.1327691095648,588.7629557690234 736.1165533297462,589.0923678901745 734.3333333333721,589.6994674108573 733.3705075485632,590.027195552364 732.2531915663276,590.1385348777985 729.3784622079693,590.1774775878293 728.7919004444266,590.2753952383064 727.2675622116076,590.590342045587 725.6259582294151,590.8652240483207 723.250496682711,591.2057712082169 718.4040657920996,591.5507650268264 717.437191338744,591.5752443048987 716.9210006757639,591.5875039749662 716.1038104463369,591.4572950276197 714.6773975609103,590.9175481487764 712.916809329763,590.396710505127 711.7306951112114,590.1362912647892 710.4515197724104,590.0427806571824 710.0607504497748,590.0589266644092 709.506519779563,590.0817233824055 708.6351239965297,590.1930226184195 707.819564885227,590.3978323105839 707.2078955521574,590.7695101783029 706.6334506667918,591.2346976626432 705.9659446614096,591.6988025216269 704.9497580089374,592.0916322970879 703.6479509049095,592.476688995841 702.2967733476544,592.7794134051655 700.6834226631327,593.039829813526 699.2464948907727,593.1978423414403 695.0918328890111,593.7843788179453 694.9122351219412,593.7843788179453 691.7357488925336,594.2996002655709 691.2972111076815,594.3708337515127 690.5560717653716,594.3708337515127 690.2786069049034,594.3072925215238 690.0261622329708,594.249520468351 689.2850228907773,593.9334566135076 686.9637377705658,593.0175542056677 685.9669497741852,592.7983236523578 685.7881384392967,592.7933156421059 683.325295559247,592.7248461163254 682.0178086685482,592.7048140688566 679.6212882203981,592.7248461163254 678.9602775610983,592.7983236523578 678.1997104356997,592.9096216444741 677.5103882240364,593.1533312164829 676.2975935715949,593.8522070227191 675.7344500053441,594.249520468351 675.0305351112038,594.6034441905213 674.4212833280908,594.8115353936446 674.1591393280542,594.9005570282461 673.5846944426885,594.9751156270504 671.1558429013239,595.2044002019684 670.2795828906819,595.2044002019684 669.8078693263233,595.115338614909 669.2245406720322,594.9128165308503 669.1120517689269,594.8449485583114 665.0925104357302,592.5223621045006 664.6871484302683,592.3709597225534 664.0197006792296,592.2786118357326 663.4824511148036,592.29640032514 662.689552896074,592.4099020748981 661.5155555556994,592.5687162945396 660.6983653262723,592.6792531738174 660.6910835484741,592.6803749686806 657.8617051022593,592.2296133546042 656.2451795628294,592.1395090085571 655.2540130986599,592.0181946117664 653.7297039929545,591.9592200876796 652.6293691165047,592.161784697033 652.1803455717163,592.2975221216329 651.4521677937591,592.5012082447647 650.4327189048054,592.9852625830681 649.8905759857735,593.3792521351133 649.5767022365471,593.7398277364555 648.9253617778886,594.6646616442595 648.7287537776865,594.828201912751 648.5248640001519,594.8649804292945 648.0984722203575,594.7903817331535 647.6534682170022,594.6045659764204 647.0167204410536,594.3941909585265 646.7019728783052,594.2361792085576 645.8937246720307,593.9446344397147 645.2424133406021,593.9212371256435 644.5207017814973,594.2339356332668 644.0020644409815,594.6423861851799 643.5198651165701,594.9962692715344 643.3717828836525,595.0897379097296 643.3337720036507,595.2956251946744 644.5793637832394,596.6115128584206 644.6695704463637,596.7067837300128 644.7804282311117,596.930417732161 644.5951215502573,597.2098197235609 644.2059542186325,597.5447491324157 643.9090324481949,597.7862505775411 643.4680771129206,597.5725530601921 642.1209482239792,595.9722595675848 641.9073299911106,595.685163941409 641.4445584499044,595.386930280365 640.6112026738701,595.2199849748285 639.4938284374075,595.0941849807859 638.1240677830065,594.8237949005561 637.8311655538855,594.716944862972 637.4784071111353,594.754765054211 637.2429726719856,594.9495149070863 637.1636595485033,595.0151793461409 636.7000433210051,595.3501518427511 635.3246028801659,596.917076619633 635.0673522347352,597.2108613708406 634.5850946560968,597.6571667228709 634.399846229353,597.6204286920256 634.1409353386844,597.3043692206847 633.880393329775,596.649973769905 632.083425336983,592.817233897862 632.083425336983,592.7493653401034 631.8593213440618,592.3209195921663 631.701510656043,592.2307351515628 628.1536828872049,592.0949976895936 626.784708664869,591.8701573114959 625.7822700090474,591.7955977601814 623.7757324517006,592.0292923975503 619.6882375681307,592.976408427814 619.4414726827526,592.976408427814 618.2957868943922,593.1332992041716 617.051418453455,593.4159908069414 616.2172179911286,593.5829373516026 615.8037877760362,593.4715996038867 615.469641557429,593.2679543580743 612.9703606613912,591.7492033584276 612.3910806755302,591.3971985668759 608.9993742222432,589.3238615707378 607.5235908837058,588.3623079750105 607.1352391111432,588.1107809525565 603.8786824534182,593.2423935222905 602.1739308943506,595.9299524466624 600.036321337102,598.942513545393 599.5929484516382,598.6420403465163 595.5499306668062,595.9066354506649 592.4284655502997,593.8789296475588 589.2172306772554,591.8044920227258 588.6977777777938,591.4661091740709 586.2761788872303,589.8880914368201 586.0722891094629,589.756799835246 585.8400586525677,589.6076393487165 585.6208188871387,589.4674131833017 582.7283511181595,587.6122133997269 582.4443617849611,587.4285556634422 577.8770851271693,584.4781937005464 574.7555908835493,582.4481889315648 573.0945591181517,581.3898087888374 570.6797177174594,579.8261094009504 569.9957548943348,579.3831368733663 566.7618300017202,577.2863385368255 564.4251948943129,575.7661654591793 563.5731977671385,575.2117993518477 560.7438484480372,573.3865011426387 559.397535118158,575.5067322149407 558.6806877868949,576.6230344346259 557.1968362382613,578.9324307297939 556.6242846151581,579.8261094009504 554.928941112943,582.4727091921377 553.608521785005,584.5160555503098 552.7282131059328,585.8771550857928 550.4611626667902,589.4395682636532 548.1932966685854,592.9797337441705 545.993384220521,596.4496564558358 543.7700244480511,599.8995783024002 542.82094665966,601.3819014768815 541.5474511075299,603.3716857814579 540.1525828834856,605.5361641622148 539.8686226774007,605.9768455605954 539.3240913351765,606.82146932045 537.079701788607,610.3379458506824 535.2335089778062,613.2123593150172 534.8789737814805,613.7642751794774 532.0131864461582,618.2231822083122 530.3432126578409,620.8204112861422 528.0753466596361,624.3600796959363 525.8075097885448,627.8985749322455 523.6521035663318,631.2345668956405 521.0233817885164,635.3014757091296 519.2959693368757,637.9741492685862 517.4827775432495,640.739163014805 515.8800000001211,639.6859235252487 514.6736715662992,638.8932069879374 513.481062001898,638.1099412267213 510.08938467572443,635.9246027909685 506.12969955569133,633.3954323708313 505.4646111004986,632.9714645804488 503.9516324409051,631.937779618951 501.8609466595808,630.6125494115986 497.04367200715933,627.5614440771169 494.72480443748645,626.061454465962 494.01200577418786,625.6007801411324 493.5759146667551,625.3203692550887 491.60741711664014,624.0533486630884 489.88000466499943,622.9413502845564 489.36299844272435,622.6041724953684 485.7261582223,620.2362234400352 482.11034777597524,617.9138795954059 476.4289299912052,614.2628291530418 474.8012778951088,613.2123593150172 472.56151955923997,611.7668041227153 469.5128722204827,609.8004843285307 467.7612260124879,608.673197390337 467.33480510581285,608.401660631469 466.7530784428818,608.0310913876165 462.99926374386996,605.637881512288 462.1421111183008,605.0909950146452 461.9487071004696,604.9674836676568 461.7982364445925,604.8717753508827 461.6080946631264,604.7504673086223 460.2383048819611,603.8713427523035 457.0044091165764,601.7980720986379 455.80614889250137,601.0257841750281 451.6150780018652,598.3259822035907 449.9313853440108,597.2442742055282 446.42885023297276,594.9907004144625 443.0622222222155,592.815551206586 442.9028386702994,592.7126265675761 439.085555996513,590.2531193770119 438.38892288017087,589.8046369419899 434.73996578145307,587.4141322750365 433.83539421856403,586.8208895595162 432.4389240036253,585.9050004134187 430.72042444813997,584.7864971633535 429.63220644998364,584.0786606779438 426.173362005502,581.8705998549121 424.42165754304733,580.7432234369335 422.9708361388184,579.8261094009504 420.6044331236044,578.330312621838 419.9805886578979,577.9307694926392 419.7839806578122,577.8038787525147 419.5404780090321,577.6480598781491 418.78963933873456,577.1663789920858 418.1787564373808,576.7744065600564 417.79690001078416,576.4138057883829 417.63993400905747,576.0075683448231 417.61724398937076,575.5345787308179 417.7224219875643,574.9980819849297 418.0371986773098,574.4026453376282 418.51939800183754,573.6970223738463 418.78963933873456,573.5228500625235 418.9198957795743,573.4387889390928 419.09952267375775,573.3931523112697 419.7063277796842,573.4143078343477 420.0655524409376,573.5957323953044 420.11005866667256,573.6625244864263 420.1998575502075,574.2045534467907 420.3722026665928,574.7009047489264 420.54213023290504,574.913540567446 420.59470466838684,574.979170352919 420.87304334226064,575.147251437942 420.9927848960506,575.0871509442222 421.355242666672,574.9057274965453 421.7719351182459,574.4516474127304 422.08665355376434,573.8884635236464 422.24361955560744,573.3475557423662 422.3561084587127,572.7832874751766 422.3447488854872,572.5784629389527 422.31888401077595,572.1121178547619 422.1950937885558,571.8817697379272 421.892492231098,571.3141323874588 421.41268132976256,570.9579710265971 419.6383451021975,569.8305039185798 418.78963933873456,569.2998044340638 416.53954087826423,567.8916521443753 413.01437400188297,565.6556366736186 409.8921224535443,563.6755207155365 404.18885933526326,560.0904512354173 403.3085797831882,559.5339657517034 400.90961265785154,558.0157652551425 397.586704440997,555.8753464950714 394.5170273281401,553.8861750533688 394.3471580161713,553.7761414452689 394.10601466323715,553.6202670936473 390.5581577671692,551.34292740823 388.89631044270936,550.2598882828606 385.3929597726092,548.0059188424493 382.8873000391759,546.4353126549395 382.04739066318143,545.9088096891646 380.1379628943978,544.6687843069085 379.7568928997498,544.646544336807 376.2761739946436,545.5025613209 375.42339043552056,545.7284864688409 375.5211410204647,546.4353126549395 375.8724431076553,548.9754059581319 376.1645297779469,551.186009651341 376.56828979204874,553.7327050036401 376.56828979204874,554.4539733242709 376.2761739946436,554.7021692722337 374.0989224391524,556.0556621860014 373.7995831181761,556.2359777431702 370.6182617886225,558.1526437061839 370.24444444442634,557.9735717358417 366.93691534234677,556.3884845300927 362.61279180820566,554.3184151137248 359.18825910042506,552.6786075730924 355.9300713244593,551.1236592580099 346.10939977969974,546.4353126549395 345.971861560829,546.3696350887767 343.82210599817336,545.3433156220708 343.44508467207197,545.1629919820698 338.5864495218266,542.8429761666339 321.69924955035094,534.7808531671762 313.750810453319,530.9860495320172 309.98854889243376,529.1893930147635 308.35419756092597,528.1318228327436 308.07749000529293,527.6865920237033 307.9107955485815,527.3526082689059 307.82827844272833,526.963000049931 307.82827844272833,526.5745133062592 307.96663222054485,526.2138380345423 308.93429310584906,525.1528084311285 310.951345550362,522.9343535236549 311.9214531130856,522.1272295823437 311.8106244551018,521.8767961917329 310.64714200189337,520.4296155614429 308.9294580052374,518.8722165916115 307.5442891095299,517.9815999924322 306.21414132614154,517.2869544507703 305.07981511123944,517.0086628509453 299.4558651166735,516.1470148912631 297.4266666667536,515.5912703745416 297.1346091235755,515.5113171215053 296.0301964514656,515.1829273938783 295.2461820017779,514.7832804241334 294.80117799830623,514.4537274795002"/></g></g></svg>