<svg width="1200" height="800" version="1.1" xmlns:xlink="http://www.w3.org/1999/xlink" xmlns="http://www.w3.org/2000/svg"><g class="geojson-features"><g class="geojson-feature" stroke="#555555" stroke-opacity="0.0" stroke-width="0.0" fill="#111" fill-opacity="1.0" data-properties="{&amp;quot;N03_002&amp;quot;:&amp;quot;上川総合振興局&amp;quot;,&amp;quot;fill-opacity&amp;quot;:1,&amp;quot;description&amp;quot;:&amp;quot;上川郡剣淵町&amp;quot;,&amp;quot;N03_001&amp;quot;:&amp;quot;北海道&amp;quot;,&amp;quot;stroke-opacity&amp;quot;:0,&amp;quot;N03_007&amp;quot;:&amp;quot;01465&amp;quot;,&amp;quot;fill&amp;quot;:&amp;quot;#111&amp;quot;,&amp;quot;N03_004&amp;quot;:&amp;quot;剣淵町&amp;quot;,&amp;quot;title&amp;quot;:&amp;quot;上川郡剣淵町&amp;quot;,&amp;quot;stroke-width&amp;quot;:0,&amp;quot;N03_003&amp;quot;:&amp;quot;上川郡&amp;quot;}"><title>
      上川郡剣淵町
    </title><desc>
      上川郡剣淵町
    </desc><polygon points="644.6682046579663,555.5153210247518 644.563871345832,555.4882797510945 639.0750128924847,554.350840748928 638.6947293299017,554.2573918029666 638.0798268871149,555.1346752895042 637.821760682622,555.5490922062309 637.009405553923,556.6955257271184 636.7488926720107,557.0638038666802 636.4203971129609,557.7180596958497 635.9333335608244,558.5153834327357 635.0319951076526,559.9185483948095 634.4826286649331,560.7541758329608 633.9680691200774,561.3430700759054 633.4178871182958,562.1809222807642 633.0246419912437,562.7789346141508 632.8134704355616,562.9974067842704 632.3952051200904,563.4320397307165 631.8086142293178,564.1336291307816 631.408116451581,564.6764210018446 630.5925573405111,565.36110159487 629.9881406578934,565.8464456693036 629.9776548978407,565.8554860650911 629.9630622152472,565.8644453807501 629.8109604408965,565.9613356949994 629.2478460017592,566.3182890051394 628.3894117833115,566.7799964798032 628.2890688853804,566.8667109550443 628.2664371201536,566.8858457018505 627.9460388978478,567.162853422109 627.317359331646,567.9286465528421 627.0026408961276,568.5333335681353 626.7598955520662,569.0175766633474 626.4589251129655,569.6177610770683 625.971861560829,570.8384354647715 625.9435208818177,570.9094193277997 625.6603762346786,571.6458503307658 625.4742831218755,572.0760083388304 625.1166604516329,573.4149213838391 625.0883197725052,574.4193444950506 625.2315377779305,575.3123236618703 625.4605351253413,576.5082003077259 625.7461264497833,577.3369595959666 625.8951698773308,577.7152189125773 625.971861560829,577.9098006886197 626.1037491201423,578.2446025876561 626.6619993316708,579.0103198136785 627.9783699911786,581.4335277366336 628.4646471111337,582.119255017722 628.8743781831581,582.8117905593826 629.3513928818284,583.6180706406012 629.8376700017834,584.4468053726014 630.2381677796366,585.1156608023448 630.4387953209225,585.9759277540725 630.453388003516,586.2788162229117 629.9808880070923,587.6660502532613 629.7672989014536,588.4317374149687 628.6944308907259,590.8391223582439 628.4080240071053,591.4764233054593 627.6069993245183,592.9908676471678 626.9314251093892,594.6043700729497 626.6280371200992,595.0986942951567 626.5309273316525,595.2574696410447 625.971861560829,596.4379247650504 625.3156860017916,597.8235597560415 624.9151882241713,598.4765694939997 623.727442887146,600.9795948921819 623.4143264426384,601.4964022804634 623.3698202170199,601.5695659031044 622.921728739515,602.5124220936559 622.2257946737809,603.9768190500326 621.839044892462,604.7581810972188 621.2103944533737,606.1611162061454 620.8244311041199,607.2453736801399 620.4951491128886,607.9457000719849 619.4506217814051,610.4474512683228 619.2936557796784,610.9417023240239 618.9098187092459,612.0045777863706 618.4068808817538,613.3972970370669 618.0064122312469,614.1786689441651 617.5339122347068,615.9001262836391 617.2980408890871,616.5902945895214 617.2345146597363,616.776009024994 616.5508431075141,619.0097589978832 616.2498435415328,619.8553133776295 616.0929357939167,620.5566972996457 615.5063157760305,622.2466167989769 615.2773766827304,622.8196344088065 615.005504227709,623.6966672704439 614.5621022152482,624.4779651154531 613.9892884480068,625.1309833889245 613.4746997760376,625.6578712171759 613.0029862115625,626.1678570035729 611.4438702079933,627.0122108068317 610.7569946738658,627.4580355500802 610.1420922313118,627.9849182695616 608.5085564587498,628.9756167680607 607.7787475627847,629.5024961560848 607.1201544533251,629.9798884119373 606.1654260052601,630.6373093709117 605.6621677796356,630.9840747957933 604.9323588835541,631.606678781216 604.4315473351162,632.1324175899499 603.358708451502,633.0409476282657 602.9007720106747,633.5193865859183 602.4856815504609,634.475167375931 602.2713060124079,635.1765085739316 602.071464903187,635.5593374669552 601.6992495503509,636.660564919759 601.527749120025,637.168055128539 601.3561904355884,637.9808396792505 601.2559057921171,638.8251519249752 601.1555628943024,639.4635007517063 600.4637940053362,640.7288051568903 600.2064851059113,641.4144440833479 599.7202371130697,642.4343476131326 598.6328346739756,643.7728681681328 597.9459008852718,644.4899875757401 597.2589670969173,645.0798516369541 596.7298439964652,645.1755347050494 595.4709411271615,645.4153298425954 594.7411322313128,645.5898366823094 593.9692346596858,645.95676263317 592.3430097921519,646.3654301075148 591.6236866560066,646.5466636158526 590.7935931164538,646.9609632263891 590.1495344355935,647.2153459938709 589.8064753209474,647.2322859232663 588.9480411023833,647.0881749068503 588.5046682169195,646.785363175557 587.3031748837093,646.5624688571552 584.8735077831661,646.1796575140906 583.8726711182389,646.0997395914746 582.9858962205471,646.1008743289858 582.4138688852545,646.2607101466856 581.5748333225492,646.5995909071644 581.2690277831862,646.7234391020611 580.5820939948317,646.8821397713618 579.7956619948382,646.817986781185 579.0375706739724,646.5320336350705 578.2074188800761,645.9578973713797 577.5496413297951,645.5436770824017 577.4266666667536,645.475227931398 576.8052980054636,645.1293750253972 575.475150222308,643.9180753961555 574.7599340089364,643.4081273251795 574.0446595414542,642.8970028915792 573.6150637796381,642.6426155472291 572.3286357902689,642.1022695098072 570.9976724480512,641.4167136024917 568.9547260018298,640.3393380306079 568.6092493368778,640.1569650695892 567.9223155485233,639.9655543660629 567.1213491201634,639.8541445934679 566.1771355592646,639.6470090076327 565.3324493368855,639.5355180323822 564.6034560002154,639.4241080601932 563.7733333333163,639.3756777359522 562.6859308942221,639.5040282054106 562.1001264357474,639.94982974499 561.5281282276846,640.5397049640887 560.1688824604498,642.0696047361707 559.5110757831717,642.7394343404449 558.9244848925155,643.296678623883 557.6363966577919,644.6205237461836 556.5489942186978,645.8633493535453 555.2771006578114,647.170361965138 554.7681917725131,647.8311400269158 554.3329162240261,648.3973692501313 554.1176960001467,648.6123593116063 553.7892004408641,648.9399705639225 553.1540837831562,649.4403427997604 552.6046882133232,649.8731981866295 552.1467517726123,650.2086696927436 551.8368975645863,650.3640044316999 551.4169428766472,650.5745349178906 549.5002333297161,650.9414532486699 547.8124920037808,651.2915934789344 545.9815035449574,651.5628707551514 544.9798513210844,651.7857604298624 544.1642922098981,652.0570371476351 542.3762371130288,652.5354787263204 541.5032393386355,652.9655322942999 540.8025575538632,653.459695798927 539.4586617741734,654.830817912647 538.8866635663435,655.4194813434151 538.1997297777561,656.1849928977317 537.1810964482138,657.5785904863151 536.7660059876507,658.3113920672913 536.3372257848969,659.0599553053617 535.3064464498311,660.5266818547389 534.9642028943636,661.1796020574402 534.4633913458092,662.0092036657734 534.234423125512,662.2793746921816 533.7335824498441,662.821904102515 533.0474642204354,663.1877501024865 532.4463097741827,663.7776087395032 532.1169986559544,664.5103913960629 531.8880304356571,665.2274083273951 531.3305666559609,666.2315283025964 530.9584095574683,667.0599778129254 530.5296002276009,667.7927504492691 530.3718477938091,667.9999022703851 529.1379651129246,668.4028590570088 529.032787114731,668.436614356353 528.8814717725618,668.509028170025 528.2326071183197,668.8193091601133 527.6460162275471,669.1221336186281 525.9291477901861,669.9663768532337 525.0132457814179,670.5246520313667 524.4266548907617,670.8589195341337 522.8958795663202,671.8157267891802 522.2380728889257,672.1984162057634 521.5519546595169,672.6441570275347 520.0357428909047,673.5052854288951 519.2201837797184,673.9352609072812 518.6910315520363,674.3651950941421 517.002503793803,675.4176188663696 516.3018220090307,675.8476314409054 515.6148882204434,676.2303144298494 514.4562699947273,676.7402332969941 513.0266240001656,677.00135153468 512.4683737884043,677.0812591694412 511.85344221862033,677.1443100025062 510.6802895645378,677.4313207512605 509.9601799965603,677.809503386321 509.67863734054845,677.9569591995678 509.249798883684,678.1809589532204 507.6041462329449,678.9936451615649 506.9600875520846,679.3763231353951 506.26022132637445,679.8862353198929 504.75778668094426,680.9859222540399 504.608888888848,681.0786735396832 503.91388689086307,681.5115529191098 503.3135480036726,681.9414735371829 501.73989757173695,683.1210972009576 500.9954959929455,683.9022421625559 500.76320728182327,684.1329626749502 500.4663728926098,684.4278664420708 500.3377184427809,684.5550177484402 499.8506548908772,685.08072163834 499.365222456865,686.1330984343076 498.9938226630911,687.0413835844956 498.7648544427939,688.0453717990895 498.6070728818886,688.6981766383396 498.16369999654125,689.8135850821272 498.0350746738259,690.5946677485481 497.7915137708187,691.32850307232 497.64829576550983,691.5356345847249 497.1620477726683,691.6943056303426 496.2469904499594,691.7899701196584 495.4023042274639,691.8214936068398 494.5155293298885,691.8057723824168 492.8997902221745,691.7258696486824 492.0558904320933,691.7100673808018 491.16832910222,691.8541516109253 490.6820811093785,691.8541516109253 489.22330800362397,692.0927250842797 488.59384200547356,692.3482350662816 488.13832311471924,692.5879830847844 487.5493146737572,692.8963691056124 486.96272378321737,693.3263503724011 486.5905375573784,693.7720519656432 485.9610715591116,694.9357749247574 485.6187988765305,695.6685029939399 485.003110001795,697.1507672769949 484.76036465785,697.8676867231261 484.2312415573979,698.9504360479186 483.73043000895996,699.8113890571985 483.08637132809963,700.3527802055469 482.28540489973966,700.8468461707234 481.5701304320246,701.2294893112849 481.31206422753166,701.3409516361426 480.3363060053671,701.5760717394878 479.92447778140195,701.6751762325293 479.16717289260123,701.8507766522816 478.3661482098978,701.9937203231966 477.49317956273444,701.9621981718228 476.9065886719618,701.8034933955059 476.52065444993787,701.6257050250424 476.40009733708575,701.5705614312319 475.0044135537464,700.9278803471243 474.4890384499449,700.6724200133467 473.37329533172306,700.5137143843458 472.474403555505,700.5137143843458 471.5018784427084,700.592520230508 470.7575059911469,700.7996032332885 469.9007028908236,701.2936682789586 469.2849848889746,701.6122128757997 468.91201223118696,701.6718538420973 468.2833326649852,701.772011735884 467.79708467191085,701.6122128757997 467.2679324444616,701.3263249945012 466.70968223304953,700.7365586126689 466.1376548979897,700.242451903352 465.580191118177,699.6527233763481 464.85038222232834,698.8559089000919 464.4070093370974,698.2199869777542 463.8770706773503,697.534550802724 463.2621391074499,696.8491531886975 462.9045455644373,696.4349396715988 461.9028642134508,695.5424110413296 461.34542956086807,695.032572628581 460.75883867032826,694.2199407148873 459.9004044516478,693.0528107393184 459.4999066736782,692.4799202505383 459.17059555556625,691.7798809822998 458.8841886719456,691.2058529315982 458.1115046684863,690.2660598501097 457.2538860089844,689.8192172170384 456.76679332985077,689.2294225661317 456.0636939946562,688.6951377025689 455.5507364409277,688.3053432023153 454.55071533529554,688.1297733936226 453.5774037903175,688.1140114081791 452.70516332099214,688.1623913807562 451.7318517761305,688.4010495612747 451.0886377815623,688.592381126422 450.3159537779866,688.9266639906564 449.7164013227448,689.1281249053427 449.4170620017685,689.2294225661317 448.34422311815433,689.3093261307222 447.4857888997067,689.389270187763 446.57067332277074,689.5006569720572 446.1135524408892,689.5490771841723 445.5698657850735,689.5963628546451 444.98327489430085,689.5333152918029 443.99615709879436,689.4218880038243 443.13772287999745,689.4703082317137 441.34885222418234,689.6615984257078 440.7913884444861,689.7573042440927 440.16192244621925,689.693162711279 440.06157954852097,689.5974973863922 439.7185495608719,688.7533231889247 439.50332933699246,688.4662854572525 438.702333781519,688.1151459470275 438.05911978683434,687.7650999444886 436.5428788907593,687.2394829717814 435.6990082275588,687.2225863849162 434.8551375644747,687.2709665370639 433.25233089434914,687.2225863849162 432.59455334418453,687.4555727899424 432.3550411093747,687.552414029371 432.167346005328,687.6289145288174 432.08806200895924,687.6615325840539 431.79111111117527,687.7816318195546 431.49255822238047,687.902419822698 431.12118755548727,688.49108319683 430.3630962347379,689.1607427566778 429.76191266148817,689.5276831503143 429.2336051200982,689.9576299315086 428.7473571271403,690.1489602561342 428.33226666681,690.2446658802801 427.5312711112201,690.2604277257342 426.801462215255,690.2604277257342 426.1719962169882,690.3087667466607 425.85727778146975,690.2761490513803 424.29734621883836,690.5631846191827 423.5966935608303,690.675705385569 423.0675704604946,690.7241253604298 421.251145557384,691.2339729231317 420.39271133881994,691.5210073456983 419.82065487653017,691.6954401522526 419.279414897901,691.8136329946574 418.1466615466634,692.0623766714707 417.20247711299453,692.3808929986553 415.37151778140105,692.9064987146412 413.855276885326,693.3049566749833 412.71122221520636,693.5919075847487 411.60928534774575,693.6718096975819 410.29367199295666,693.7359906855854 409.1488308906555,693.5604248485179 408.04683576896787,693.6077097289381 407.51852822769433,693.6908938187989 406.73128066863865,693.8147582383826 405.82994221523404,693.7359906855854 405.21506889967714,693.8316948797437 404.39950978860725,693.9746433253749 403.1405486650765,694.4371992772794 402.55395777430385,694.6442470712936 402.02483467385173,694.8828988082241 400.35404532623943,695.6639649812714 399.56682689429726,696.0939412911539 398.2091831183061,696.619538877916 396.7066902187653,697.1136530437507 394.4032308906317,697.7833290697308 393.75920133688487,698.0218966508983 393.4444537742529,698.101797289215 392.1855217778357,698.3573008759413 391.92256221873686,698.3381360904896 391.112653767108,698.2773598051281 390.02609601418953,698.1501752488548 388.6530731236562,697.9104733025888 387.9127202134114,697.6898549204925 387.4798622151138,697.5604820998851 386.59311644453555,697.243066622701 385.131110229413,696.5542646795511 384.27267601084895,696.011770981655 383.714367544977,695.5018930476508 383.24591621698346,694.8740253436263 382.8705260090064,694.3707899761503 382.49833978316747,693.8451874661841 381.6827806720976,692.9684108756483 380.5953491058899,691.9970607154537 380.15197622054256,691.5502618229366 379.26523044973146,690.8501793249161 378.16326445515733,690.164762626926 377.14865066681523,690.0532951129717 376.2618757688906,690.1174770685029 374.73351799487136,690.3560522675398 373.11699245509226,690.5631846191827 371.9866857813904,690.6746113774716 371.4785633281572,690.6250973843853 370.3418195627164,690.5158991392236 369.540794880013,690.5001373103587 369.34016733872704,690.4359959760914 367.7527106560301,690.4517172902124 366.9662786560366,690.4517172902124 366.1790602240944,690.5958022755221 365.6782486756565,690.7387526480597 364.53419400542043,691.0415089382441 363.733169322717,691.0887943146518 362.86020067567006,691.0415089382441 362.03004888189025,690.9942640712252 361.31483266851865,690.7544739422738 360.47177756449673,690.4832814717665 359.7136279894039,690.1793899486656 358.9733333332697,689.8390309858369 358.2273588908138,689.4961998809595 358.2831955626607,689.3982248929678 358.5121637831908,688.8568495595246 358.5687868872192,688.3627994376002 358.58335044269916,687.7571986801922 358.53721309872344,687.44884657691 358.4976002275944,687.1832015302498 358.1966006613802,685.9237336814986 358.03884822758846,685.2708807778545 358.6108464357676,684.9366333428188 358.9733333332697,684.9812861365499 359.7702802204294,685.0795870851725 360.4709328782046,685.0154037827742 361.12952598766424,684.696837163181 362.08751667209435,684.187016236654 362.1501108339289,684.1329626749502 362.7889848888153,683.5814859851962 363.14092777238693,683.1413572434685 363.6555164444726,682.6157301470521 364.08517046039924,682.1373485191725 364.7421324515017,681.5959973311401 366.00106444815174,680.8632263087784 366.473593571689,680.4647476969403 367.7179328852799,679.699354088807 368.8620166828623,679.1252971508075 369.99229422945064,678.7595564814401 370.46479422587436,678.7268561751116 371.0085100090364,678.5681765583577 374.2836788906716,677.8027769032051 374.7699268836295,677.691344169958 375.8719220054336,677.611436738167 376.6729175609071,677.5641892280546 377.5167882241076,677.229850020085 378.17538133333437,676.8314058983233 378.6616293261759,676.3688160220627 378.9335017814301,675.923082116642 379.0904677831568,675.2848302440252 379.3356015504105,674.5936960888212 380.23691087646876,672.5867780735134 380.55168756633066,672.0768503835425 380.7240035557188,671.5028157391353 381.05246998765506,670.9287391997641 381.23856310057454,670.4188485098421 382.13990155397914,668.9048926669057 382.1997577671427,668.8407050397363 382.5403993315995,668.4748676552554 382.59783799480647,667.7893870673142 382.0687148942379,667.3267392434063 380.48047177959234,666.3710892596864 379.8793173333397,665.9883905528695 379.4359444481088,665.4311584242387 379.03544667037204,664.9043578986893 378.4488557795994,663.7427181309904 378.20855711307377,662.6485849732999 378.20855711307377,662.0430003881338 378.0370566827478,661.2471552069183 377.76518422761,660.6572903515189 377.32178221514914,659.9717469146708 376.1195024497574,658.9361539997626 375.6761295645265,658.4734891119297 375.3613820018945,657.9635719641228 375.21816399646923,657.3736990396283 374.92931043554563,655.0919599845656 374.7578100054525,654.7575894749607 374.32900067570154,654.4074948258349 373.8847831040621,654.0563054911909 373.3273193243658,653.291921851167 372.9980664604809,652.5264821205637 372.7981962240301,652.080703939544 372.72619400545955,651.2837315395009 372.7124168818118,650.6454141486902 372.7218249387806,650.3640044316999 372.72619400545955,650.2312019491801 372.7981962240301,649.3226964530186 372.8977235626662,648.8128003907041 372.9980664604809,648.4153627705527 373.45518734224606,647.0442445347435 373.7844984604744,646.5028141972725 373.9988739982946,645.8813835904584 374.18496711121406,645.1957979506697 374.7853059982881,643.7480658085551 374.98596266680397,643.168330182496 375.11461711663287,642.6099913741928 375.07171288190875,641.9570611832314 374.8856488959864,641.1915447770734 374.90018332435284,640.602765396412 374.95765111478977,640.0601047071978 375.04340132977813,639.5816787877702 375.28614667395595,638.9760360019282 375.5725244303467,638.5302326536039 375.81608533335384,637.9414467442548 375.7602486613905,637.9020538028562 375.2003673315048,637.5114067837712 373.3977195521584,636.6186590360594 372.81112866138574,636.300068707671 372.18166266323533,635.9330469374545 371.5238851130707,635.4073164541041 370.765764664975,634.4189140895614 370.2503895609407,633.2649487736053 369.73583001596853,632.0851205980871 369.40651889774017,631.43329658109 369.3353031112347,631.0820736293681 369.1063057637075,630.5878235207056 368.74871222046204,630.3333420716808 368.01890332449693,630.0778065975173 367.3465622187359,629.9505859007477 366.7454368995968,629.8706625741906 365.987287324504,629.7907392208581 365.32950977422297,629.6635183719336 364.78579399129376,629.360644126893 364.2283302115975,628.7549755482469 364.1682409812929,628.6532470706152 363.84242511657067,628.1020481940359 363.4848024463281,627.4006457931828 362.9694273422938,626.7464988661814 362.3682437688112,625.8864185854909 361.9823386739008,625.153477469983 361.7962455608649,624.7076484459103 361.824527985882,624.006276654778 361.7841286828043,622.8556252838462 361.6554451058619,621.6915528146201 361.4976926720701,620.5600613435381 361.2978224357357,619.6515245875926 360.7395722240908,618.1845076963655 360.5826062222477,617.2297563701868 360.50064253166784,616.5902945895214 360.4393882169388,616.1129162301659 360.36738599825185,615.5871017964091 360.45313621335663,615.0770935254404 360.5680426667677,614.2000696951291 360.6254813297419,613.3871640720754 360.56320756627247,613.0279704529676 360.4393882169388,612.6542253143853 360.158631992992,612.0293428946752 359.9345280000707,611.470891107223 359.5866337849293,610.9135729242116 359.40295822231565,610.6703791297623 359.12866821687203,610.3078577892156 358.9733333332697,610.1404184654239 358.2273588908138,609.3362135880743 357.5695522133028,608.746221138339 356.72486599127296,607.8060646047234 356.23861799843144,607.0888355766074 356.0242133332649,606.2601790362969 356.0242133332649,605.5418509918964 356.05252488539554,605.2873835162609 356.28152223303914,604.6332573779509 356.5104904534528,604.0916502870386 356.82520888897125,602.9117192158592 357.39805178309325,600.7543881246238 357.49754999484867,600.164374575601 357.68364310765173,598.7783882920048 357.78398600535,597.9654304274009 357.78398600535,597.4542497376096 357.7985495609464,596.5782154023764 357.65533155575395,596.083894228097 357.51214267744217,595.4781416603946 357.52589067386,594.7282451028004 357.5542022258742,594.4895342960954 357.7119546595495,593.9952898892807 358.1124815645162,593.0224446483189 358.1407639894169,592.7352924074512 358.0696064569056,592.5123478843016 357.68282754858956,592.1306663794676 356.92147399124224,591.3154160004342 356.14963467384223,590.6297149988823 355.2766077724518,589.9439309662557 354.6908615680877,589.5926472880528 354.06136644270737,589.066815277678 353.46021199657116,588.5882471533259 353.01686823833734,587.9824756637099 352.87365023302846,587.5523056338425 352.80243444629014,587.1064067490515 352.9027773439884,586.4206937200506 352.9601868800819,585.8779510356835 353.2021166649647,585.272172703757 353.40277333324775,584.780098293093 353.63174155389424,584.2688489774591 354.26120755216107,583.2013915945427 354.53823550581,582.8117905593826 354.647141774185,582.6586821656092 355.004764444544,582.181195763289 354.6617344568949,581.447067180532 354.1180186738493,581.2725136929075 353.2449917724589,581.0428293233854 353.144648874877,581.0169259718969 352.22959155216813,580.8739102338441 351.7999666631222,580.84127766249 351.05643889773637,580.6666831966722 350.17047955922317,580.4302284970181 349.3403568925569,580.031583101314 348.4244840107858,579.5057301385095 347.8807682276238,579.2028331201291 347.3944911076687,578.9798760233098 346.8799024356995,578.5024633760331 346.7941522204783,578.279505628394 346.7941522204783,577.0836378104868 346.8079002168961,576.3021045679343 346.6938093226636,575.6805326893227 346.56355288182385,575.1851144665852 346.45030667388346,574.75605656876 346.42196599475574,574.388981199183 346.19299777422566,573.8304012684966 345.68653556646314,572.9509565097978 345.05704044084996,571.9307170953834 344.7568855610443,571.229191032995 344.4987902294379,570.2888874970376 344.4559151219437,569.9229403909412 344.54166533704847,569.1098847589456 344.62741555215325,568.4556599929347 344.7989451093599,567.8024874715484 344.7989451093599,567.0525044167298 344.85559734038543,566.4624485333916 344.69863133865874,565.6336111435085 344.3693202204304,564.9962415539194 344.1120404480025,564.4860852066195 343.7973220124841,563.8802528651431 343.5254495574627,563.1787032643333 342.738201998407,562.5401514803525 342.3522677759174,562.1426520353416 342.25195400533266,561.8239628152805 342.23820600891486,561.473732563667 342.3037128819851,560.883622419613 342.4752715664217,560.3408625090378 342.59014889248647,559.6719380139257 342.63302399998065,559.384745858435 342.6613646792248,558.6989536011242 342.53268110228237,558.1730538831325 342.28917845338583,557.5187182122609 341.93155578314327,557.0412628607592 341.6168082203949,556.4511418148177 341.35952844808344,556.0040905069327 340.7009353386238,554.2821628720267 340.186346666771,552.9442782323458 339.8028591219336,552.3147806575289 339.70009867381305,552.1469359811745 339.64263088372536,551.2223691791878 339.06739956641104,549.3529130054521 338.9267738738563,549.02857135667 338.852965774131,548.8584945292096 338.72431132453494,548.1411298215389 338.66690178844146,547.6636152648716 338.5810933193425,547.0577404435026 338.595686001936,545.414605415368 338.63856110943016,544.8098195872735 338.7380884481827,544.2838894238812 338.7526520037791,543.5507395545719 338.89584088197444,543.0405376045965 339.39665243029594,541.7161319607985 339.7963637759676,540.5527199424105 339.9395817812765,539.6911954150419 340.0399246792076,538.4162356090383 339.8821139911888,537.7112463389058 339.63861134217586,537.1526215550257 339.3383982081432,536.6908976060804 338.90961800538935,536.2122250011307 338.55196620803326,535.8777293477324 338.42255445336923,535.511689206236 338.3942137741251,535.2729600225575 338.5374317795504,534.9857386586955 338.99536822049413,534.5386068053194 339.453333788435,534.1398851515842 339.75348866847344,533.7896550294827 340.0107975680148,533.4540207280661 340.9978571094107,531.8918837973033 341.29559443925973,531.3524235890945 341.4816875520628,530.794878734916 341.6386535539059,530.2847307482734 341.7964351148112,529.6145871570334 341.768123562797,529.1201280007372 341.6386535539059,528.4826208539889 341.4388124444522,527.9240151263657 340.82388087478466,526.9520372484694 340.46550089947414,526.297656965442 340.0512259983225,525.9789201267995 339.2494440106675,525.3245371893863 338.66363955207635,524.8953901137575 338.3917962240521,524.2736850380898 338.52042154676747,523.4447424308164 339.0496029013302,521.8183539019665 339.1927917795256,521.3239192235633 339.3060671148123,520.749483296473 339.5884253298864,519.975673312787 339.59247399831656,519.964441615215 339.8643173263408,519.2311768720974 340.32228289416526,518.242295830918 340.5941262221895,517.6847205059603 340.8659695503302,517.0787699668435 340.9517488925485,516.3444015997811 340.9088446578244,515.4838849364314 340.8528040960664,515.2405943954946 340.6078742186073,514.1772901905933 340.3505944462959,513.4597812195425 340.1216262257658,512.6781217872049 340.1216262257658,511.88064569374546 340.36515800189227,511.1147141830297 340.65074932633433,510.12579968222417 340.8943102293415,509.6481689000502 341.4954355484806,509.4567351563019 342.08202643925324,509.34518367110286 342.99629732966423,509.3767716831644 344.4413224392338,509.4882420549984 345.1711313351989,509.5366986026056 345.8151608889457,509.6324357363046 346.5012499912409,509.6954900327255 346.7164993422339,509.7439465385396 348.2869457920315,510.0750724916579 349.15991443931125,510.20235676458105 350.40428288001567,510.2508131681243 351.70530355209485,510.02665660204366 352.6786150969565,509.67521534120897 353.279012238374,509.4995147923473 353.8655740019167,509.16498188930564 354.42382421332877,508.83044851978775 354.98128799302503,508.4790055063786 356.0112808960257,507.7142390758381 356.48378089256585,507.34815595753025 357.04203110409435,506.85365090268897 357.37055579025764,506.45492378034396 358.2572724339552,506.15193451789673 358.9733333332697,506.11677768232767 359.2443902294617,506.10347728646593 359.9733544392511,506.1992563405074 361.14653622044716,506.29499480628874 361.40463155217003,506.31072818872053 361.8188773263246,506.05506059515756 362.2379873280879,505.6574269970297 362.70238998765126,505.20910507038934 363.1312284445157,504.8261492443271 363.61829199641943,504.4916098234826 364.20488288719207,504.12442692834884 364.83434888522606,503.70988061634125 365.4629993245471,503.15121719799936 366.23489689594135,502.43481066211825 366.67905621335376,502.0044872154831 367.1653333333088,501.5742440983304 367.5941717902897,501.1754676491837 367.8490048852982,500.8657402729732 367.90889022580814,500.7925053833751 368.1095468942076,500.40950195502955 368.1807335539488,499.83501594146946 368.2665128959343,499.1017707652063 368.2956400072435,498.5914742703317 368.4954811165808,497.79395134258084 368.6386991220061,497.15644204005366 368.9105424496811,495.68867596500786 369.0537313281093,495.11417864466785 369.3684497636277,494.48899001348764 369.6969744496746,493.7241789770778 370.19697043916676,493.1339021534659 370.4979700053809,493.05393323884346 370.81268844089936,492.95818948786473 372.11452467215713,492.95818948786473 372.8443044410087,492.87822051456897 373.6161728852894,492.7351522240788 374.17445222404785,492.60785868181847 374.6323886649916,492.33636107936036 375.1332002133131,492.0018042384763 375.63404088886455,491.3957888163859 375.93422489601653,491.0128109359066 376.14781400188804,490.43830241588876 376.21984534768853,490.0879679293139 376.23359334410634,489.5450072651729 376.2627204550663,489.1462513693841 376.19071823661216,488.7474542577402 376.06203465966973,488.2687265257118 376.13406600547023,487.53536488389364 375.97628444456495,487.0262198242708 375.6615368818166,486.6589696382289 375.2756026596762,486.4044165900559 375.04666356625967,486.1486466707429 374.874318449758,484.7552290962776 375.0604115626775,484.06918290047906 375.30394333868753,483.59044583089417 375.24647554859985,483.1128027602099 375.16072533337865,482.82551893399796 374.98919577605557,482.5540508122067 374.63160223304294,482.0594946379424 374.55960001423955,481.6922774009872 374.55960001423955,481.447817066859 374.55960001423955,481.32615456474014 374.7173524481477,481.00735796248773 374.817695345846,480.52861478121486 375.16072533337865,479.9540811480838 374.9463206685614,479.22069408296375 374.38804132980295,478.7262121444219 372.84351800894365,477.9139828947373 372.08458200178575,477.5309023769805 371.39849289960694,476.87756334693404 371.0408702294808,476.46187495585764 370.56834110582713,475.6811899326276 370.2536226703087,474.66053675021976 370.1249682204798,474.14909325691406 370.0934235593304,473.8990285844193 370.0246253227815,473.3526651620632 370.1104046649998,472.9211539783864 370.1824360108003,471.7574488017708 370.36849999648985,470.8956365963095 370.6403433245141,470.3853206431377 370.9405273315497,469.65190431749215 371.16949555219617,469.18891484302003 371.39849289960694,468.6154490656918 371.6557435450377,468.28089969127905 372.2423344355775,467.7705376179074 372.75773866672534,467.43594650854357 373.3718255503336,467.29172745731194 373.82979111839086,467.1959734216216 374.8168506596703,467.0371538528125 375.18822132621426,466.86142206727527 375.36056644271594,466.7014666906325 375.40344155032653,466.3983460923191 375.40344155032653,466.1752841284033 375.2602526721312,465.61766886734404 375.15990977420006,465.1388949654647 374.917193557485,464.38859086693265 374.80231623118743,463.7993774408242 374.80231623118743,463.43209168710746 374.8710562133929,462.8034542090609 375.0280513422331,462.37310020870063 375.4147719964385,461.54394364595646 375.5579900018638,460.9378107016091 375.87273756449576,460.39482459932333 376.05883067753166,459.96442571887746 376.201203996432,459.48559997294797 376.40346265607513,459.14199344452936 376.71660822769627,458.60800715669757 377.1162613191409,457.9860896821483 377.41647445329,457.5557675951277 377.77406799653545,457.2042494416819 378.0605040071532,456.7581082028337 378.3323473351775,456.3750344495638 378.43266110587865,455.9446689133765 378.57587911130395,455.37007638433715 378.56134468270466,454.70199473941466 378.38978599826805,454.27053111436544 378.20369288523216,453.7759166129399 377.8889453226002,453.1540271661361 377.4884766720934,452.6920603752369 376.5580111077288,451.9901855099015 376.02885888004676,451.5586764466716 375.57095156633295,451.080969577597 375.0134586596396,450.7610376662924 373.4964313314995,450.1390998417046 373.1897811058443,450.0715277858544 372.4818466703873,449.9160227540997 371.8952557796147,449.8517765144934 371.2083511183737,449.7245007689344 370.4793286542408,449.6602950374363 369.1427437795792,449.6140571658034 369.105519331526,449.61296205833787 368.418614670285,449.4529546172125 367.8894915698329,449.1994977449067 367.34577578678727,448.9121732917847 367.1313419948565,448.67335789994104 367.1030595698394,448.44914377626264 367.34577578678727,448.226065116527 367.8037122276146,447.9071839520475 368.14674221514724,447.651454093284 368.14758690132294,447.6503184167668 368.3757104355609,447.316794352897 368.5618326757103,446.9337460779352 368.7195851095021,446.4391570040607 368.9048917903565,445.8656773841358 369.1799391005188,445.4442973622354 369.5230273422785,444.7423607233213 370.05215044273064,443.9762147763977 370.3806460017804,443.4985333631048 370.91061378852464,442.70082721236395 371.2965188836679,442.26930143364007 371.59670289058704,441.8546887546545 371.82567111123353,441.4716317547718 372.0117642240366,441.26432481524535 373.1566053262213,440.116163179453 373.5854437832022,439.51001663442 373.92850289773196,438.96807716885814 374.20034622587264,438.4250413198024 374.343535104068,438.1534823726397 374.5150937885046,437.484217037505 374.6145920000272,436.50400360050844 374.81521954142954,435.80204079143004 374.92931043554563,435.19697851489764 374.81521954142954,434.4792332233046 374.81521954142954,434.03304970427416 374.798587961006,433.68640509899706 374.78609243035316,433.4268877825816 374.6291846827371,432.3734019747353 374.5571242098231,431.52836282813223 374.6008440036094,430.9694501180784 374.4713739948347,430.17174284980865 374.3856237796135,429.45402307942277 374.2860964409774,429.183630299638 374.04256466496736,428.7204815624864 373.9422508942662,428.2901069559157 373.7852848924231,427.469797024969 373.6275324586313,426.99094695493113 373.44141021871474,426.35316828632494 373.19869400188327,425.4912334578694 372.983473777771,425.1565427893074 372.8411004586378,424.91879895847524 372.81197334767785,424.0726383161964 372.76906911307015,423.434851885424 372.64041466324124,422.8760014383006 372.66875534225255,422.1108808579156 372.62585110764485,421.61624058312736 372.56922800361644,420.92997317464324 372.69788245332893,420.11649346962804 372.98268734582234,419.54181508440524 373.1833148871083,419.062949181709 373.52637400187086,418.505143229675 373.53284022049047,418.4769506903249 373.55550111306366,418.37781028053723 373.569278236595,418.1062691939296 373.49806244974025,417.9462812928832 373.2690651023295,417.85046698671067 372.89687887660693,417.80316829297226 372.61128755216487,417.65891938924324 372.09591244813055,417.37273352604825 371.7237262222916,417.0853709349176 371.33860755932983,416.7022743645939 371.09507578320336,416.47916616895236 370.039218005375,415.4075543291401 369.63872022763826,414.8171252728207 369.42428643559106,414.2751299960655 369.277689685463,413.848055839655 369.238193322788,413.7330929287127 369.2099108977709,413.2857349648257 369.2665340017993,412.7437362265191 369.2948455539299,412.2963764167507 369.480938666733,411.46704668336315 369.56668888183776,410.8923475671327 369.68077977607027,410.2545666429214 369.73824756627437,409.7283413390978 369.53837732970715,409.37675306748133 368.8798133475939,408.6431906929938 368.22127849259414,407.8084123975714 367.7211659948807,407.1749233425362 367.2057908908464,406.6971280440339 366.69123134587426,406.0919923194451 365.84733155556023,405.40576161060017 365.28908134403173,404.86260918015614 364.86027201416437,404.49636902468046 364.4306179982377,403.98591174703324 364.30196354852524,403.82587385643274 364.030120220501,403.1080346533563 363.9014948977856,402.6133957420243 363.8869022150757,401.99133302329574 363.9726815575268,401.27352889528265 364.15874554321636,400.68302446464077 364.40230644633994,400.1409566688817 364.7453655608697,399.58205192605965 365.1603977670893,399.16732486034743 365.4751453297213,398.6884182637441 365.6321113315644,398.22638709651073 365.80445644806605,397.69899947958766 365.71786154678557,397.0927456965437 365.28908134403173,396.7422748131212 364.874020010815,396.59801323810825 364.5455244515324,396.1044156792341 364.21621333330404,395.46663598594023 363.7865884444909,394.84459529304877 363.48640443757176,394.15825125353877 363.1716860018205,393.4404236736009 362.9572813368868,393.0099451672868 362.67084532626905,392.5952067329199 361.929764238419,391.87627910182346 361.48636222584173,391.01527512958273 361.5009257813217,390.5363522491534 361.7298940019682,389.89847660425585 361.8180908941431,389.77230498200515 361.98717377416324,389.53107763757 362.24448267393745,389.00480684725335 362.33023288904224,388.59014262410346 362.24448267393745,388.20695995067945 362.05838956090156,387.6006821647752 362.00176645687316,387.17019317270024 361.629580231267,386.5007855143631 361.21448977058753,385.84598130575614 361.1999553422211,385.2081743221497 361.1142051271163,384.20287736860337 360.9572391253896,383.6281128958799 360.6278988800477,383.0860876793158 360.3415211235406,382.52710260573076 359.9555577741703,381.15555916848825 359.62624665605836,380.5458555672667 359.3115282204235,380.14691837504506 359.23448701167945,380.0409867056878 358.9733333332697,379.6820926205837 358.94015755387954,379.63640925171785 358.6108464357676,379.0616744022118 358.06713065248914,378.5826870704186 357.1229462187039,377.6912065751385 356.66500977776013,377.3395713189384 356.39313732273877,376.89328145433683 356.1358866774244,376.3185400287621 356.1075459984131,376.07965232164133 356.1075459984131,375.7280147015699 356.2499775716569,375.04165650426876 356.40773000533227,374.32373111118795 356.4506051130593,374.0848414164502 356.67957333335653,373.7174182147719 357.1504422115395,373.3026464037248 357.7661602132721,373.2553389208624 358.23787377774715,372.88795502035646 358.68127579032443,372.0742311484064 358.9733333332697,371.6056570492219 359.4110264321789,370.90326077101054 359.6828988872003,370.44008058373583 360.2549262222601,369.976818355266 360.55589666136075,369.33896915067453 360.62711244809907,368.94001330883475 360.79864200542215,367.98313329403754 360.84151711303275,367.2640507048927 360.8706442241091,366.65771995292744 360.91273289953824,365.8924605156062 360.7266397867352,364.93560890993103 360.69829910760745,364.7924642629805 360.5834217813099,364.40928412397625 360.12545621336903,363.94605081516784 359.02512133691926,363.5312620974146 358.9733333332697,363.5010749613866 358.42396689078305,363.180742147204 357.68040999840014,362.75024987594225 357.2079100019764,362.17543396685505 356.55010332446545,361.63218358543236 356.3211351040518,361.18586447794223 356.16984888899606,360.80381466192193 356.16338267037645,360.786854492384 356.2353848888306,360.30787121946923 356.4781011058949,359.63161256245803 356.87859888363164,359.0410055532702 357.2928737848997,358.466221324692 357.5647171130404,357.7640299965278 357.76537378132343,357.0618771867594 357.9943420019699,356.64707655698294 358.237058218685,355.9607043013093 358.4660555663286,355.35434495826485 358.7953375574434,354.6375372951734 358.9733333332697,354.1209686414222 359.0097422222607,354.01535007648636 359.25327399838716,353.4089452366461 359.5388653227128,352.9141226199572 359.8964879930718,352.403596074495 360.4831080107251,352.00457147025736 360.95560800714884,351.90877138247015 361.68457221693825,351.50978653063066 361.9564155449625,351.22238555928925 362.370690446347,350.5370933308732 362.75985777773894,349.79880633187713 363.23235777416267,349.3839931336115 363.6045440000016,348.98500407935353 363.733169322717,348.79344202851644 364.1045691166073,348.6029348169686 364.6199442205252,348.2512568895472 365.02044199826196,347.8522659497685 365.4783784393221,347.5490762142581 366.03668690496124,347.2616299170768 366.5795580018312,347.11847471568035 367.33767844969407,347.0227132521104 367.79479933157563,346.8152840520488 367.9671444480773,346.5921108079492 368.0420011235401,346.2291900921846 368.0528946631821,346.17623705713777 368.1095468942076,345.66561500687385 368.36764222581405,344.93185765616363 368.38139022223186,344.38970435992815 368.55373533873353,342.28300049336394 368.5820177636342,341.51656763546634 368.51086023123935,340.8627767211292 368.23898777598515,340.272204621695 367.6807084373431,339.5699599937652 367.07958311843686,338.68851955689024 366.72193132096436,337.6368086016737 366.4792151041329,336.96620756422635 366.1215924337739,336.1838914207765 365.8634971022839,335.5774820470833 365.7211237831507,335.01948180946056 365.6062173297396,334.4604252180434 365.7777468870627,333.90250353800366 365.8352146774996,333.1844549231464 366.13534043042455,331.8115334904869 366.1369715485489,331.79911617096514 366.22030421334784,331.22085793007864 366.22030421334784,330.5986099251313 366.40642645326443,329.960615347547 366.5779268835904,329.36997580569005 366.5350517759798,328.7409867165843 366.6612595486222,328.09507407422643 366.6782697814051,328.0060007297434 366.7357375716092,327.3048969898373 366.821487786714,326.66575739515247 366.92177243041806,326.0277523488621 367.05045600724407,325.48551571101416 367.20739288185723,324.73591069935355 367.26486067217775,323.5703497873619 367.25111267575994,323.1239598026732 367.1936448852066,322.43749154533725 367.2794242276577,321.65512797946576 367.2794242276577,321.0171501762816 367.0649904356105,320.41062126570614 366.821487786714,319.85153059795266 366.6645217849873,319.53251921740593 366.6353946739109,319.1019079654361 366.6208019913174,318.4153876065393 366.6636770986952,317.9362790726591 366.749485568027,317.2182232053019 366.9784537885571,316.32432302553207 367.10707911127247,315.67046338965883 366.9922017849749,315.0482155935606 366.9209859982366,314.48907183425035 366.8781108907424,313.9637725749635 366.47761311300565,313.43729526910465 365.63292689074297,312.60648713522824 365.52061275031883,312.4126233730349 365.1895248782821,311.84105511102825 364.91768155037425,311.20301060023485 364.70327688520774,310.6122842480545 364.6029631148558,310.1174138542847 364.66040177783,309.8614963872242 365.00343176547904,309.4466546481708 365.8481179876253,308.9044616621686 366.6345499877352,308.53693853353616 367.23573356086854,308.3295166073367 367.93638621876016,308.1863381508738 368.4946364304051,308.137840893527 369.15165667573456,308.042023270973 369.69537245866377,307.8188139209524 370.1678433280904,307.51557354000397 370.8256500053685,307.11651478288695 371.2115842276253,306.7332018453744 371.8127095467644,306.1582921653171 372.34189090132713,305.6002234306652 372.4421755450312,305.23269523476483 372.82892532635015,304.5788865055656 373.05710711481515,303.86075003264705 373.3006097637117,303.285792877723 373.4721684481483,302.64776617410826 373.4932273494778,302.48652424803004 373.5287915521767,302.20020085247234 373.5716957867844,301.5936649037176 373.6000073386822,300.76395208376925 373.58623021515086,300.1089542026748 373.61457089416217,299.37501678371336 373.58623021515086,299.007519625884 373.6000073386822,298.36944094719365 373.6857575539034,297.68395699822577 373.5142279964639,297.18910049297847 373.2423555414425,296.6152231383021 373.2286075450247,296.00871363963233 373.1994804338319,295.5137725038803 373.32816401077434,295.30637989134993 373.5716957867844,295.11469376151217 373.77232332807034,295.0504466079292 374.0441666560946,295.06619385874365 374.8305986560881,295.27366785058985 375.2028140090406,295.2420922036981 375.7893757724669,295.08202228002483 376.38971465965733,294.8588008588413 376.6907142258715,294.37964523019036 376.9326440107543,293.7258068912197 377.2530422330601,292.5758425700478 377.45366977422964,291.96928226208547 377.8396039964864,291.4912978584762 377.9828220017953,291.09217183088185 378.4261948870262,290.4055712305708 378.8266926649958,289.54314743721625 379.28462910593953,289.08086525212275 379.5136264533503,288.5374897575239 379.4278471112484,287.64344200637424 379.07025356788654,286.86214187170845 378.5548493368551,285.7764348575147 377.9116353422869,284.46749182394706 377.46826245693956,283.41448762483196 376.80964022048283,282.0040213508182 376.2376128853066,280.85404136625584 375.7651420159964,279.7367700294708 375.3791786667425,278.82690053782426 375.3439639892895,278.59124389803037 375.2934284515213,278.2530197969172 375.36461511126254,277.7253681397997 375.7214222223265,277.4063006778015 376.3371402240591,277.2946817605407 377.65351088368334,277.709579160728 378.45453556627035,277.7422530107433 378.969124238356,277.7422530107433 379.4415951076662,277.3589336745208 379.7563426704146,276.79974256065907 380.1147808996029,276.20328954217257 380.685992675717,275.2517216804554 380.8866202168865,274.6124026585021 381.2013677796349,274.1659214718384 381.5290477796225,273.6552271526889 381.87292245333083,273.0170403755619 382.11563867039513,272.6179241660284 382.5590115557425,272.1703027548501 383.24591621698346,271.5637313836487 383.8470997903496,271.2919833395281 384.3616593350889,271.3404880539747 385.2346571094822,271.3404880539747 385.60684333508834,271.2919833395281 386.1214320070576,271.1487827523961 386.5081526613794,270.90974960906897 386.8803680142155,270.6537902681739 387.3374597688671,270.334713390097 387.6238957796013,269.8081808160059 387.6942960070446,269.29743661917746 387.60854579217266,268.81827046663966 387.1505802241154,267.58923839131603 386.9223984356504,266.80677692452446 386.76464600185864,266.15282275743084 386.6934302151203,265.45036090852227 386.72177089424804,264.5731534047518 386.76464600185864,264.0296817430062 386.79298668098636,263.6632669244427 386.72177089424804,263.16825897659874 386.3787117796019,262.5932447704836 386.03483710589353,261.85919244005345 385.99196199828293,260.75758203852456 386.0210891094757,260.4216058916645 386.1351800035918,259.91080109524773 386.478239118238,259.14516014343826 386.9361464321846,258.5701362824766 387.39411200012546,257.96353048220044 387.9523913387675,257.1809969894239 388.58107090496924,256.41538790700724 388.9241008925019,255.93619599269005 389.2962871182244,255.32950233930023 389.71134845155757,254.72288833471248 389.91118956101127,254.1636443923344 389.91118956101127,253.78024674224434 389.82541021879297,253.38219449366443 389.5681304463651,252.87031927594217 389.13850555743556,252.2174230812234 388.7525713351788,251.7066413872526 388.26629421510734,251.14739040477434 387.53651444637217,250.74819717241917 387.1497646650532,250.3974716362427 386.6497686756775,249.85400841373485 386.20555110415444,249.36014914582483 385.7338666667929,248.7692703215871 385.6262711182935,248.68357734562596 385.19015088363085,248.3373952715192 384.41746688005514,248.08258903276874 383.6877162384335,247.76344150252407 383.24591621698346,247.28037587419385 383.17312756634783,247.20077143644448 383.0444439895218,246.45092150301207 383.17312756634783,245.71681971714133 383.24591621698346,245.57421275554225 383.4587188906735,245.15755475335754 383.69942533713765,244.7651307756896 384.0169691023184,244.24751335114706 384.46034198766574,243.6250800632988 384.7322144428035,243.14586256805342 385.11896422412246,242.57189636235125 385.4619942115387,242.14114679186605 385.6764280037023,241.55025016417494 385.905396224116,240.9436012718943 386.01945799123496,240.25685695919674 386.09067377785686,239.634413303982 386.06233309872914,238.9645934376167 386.14814156794455,238.2620518738404 386.06233309872914,237.60692371689947 385.94745577243157,236.82432373531628 385.8471420018468,235.36511178669753 385.7330511077307,234.71107179811224 385.8042668942362,233.86419879586902 385.7613626596285,233.16168287192704 385.7613626596285,232.47487565636402 385.8762691130396,231.78928436449496 386.14814156794455,230.84768924239324 386.4628600036958,230.28944508195855 386.8058899913449,229.4752774796798 386.9774486757815,228.83587689924752 386.99198310414795,228.64417818316724 386.8916984604439,227.97432758967625 386.92082557152025,227.57513634231873 387.13520110945683,226.6165549896541 387.3212942222599,226.1192782376893 387.53569888707716,225.46407627814915 387.76466710772365,224.7299101841054 387.87875800183974,224.37805042078253 387.79300778673496,223.628129053046 387.73553999653086,222.6379872893449 387.66432420979254,221.95123110018903 387.72179200011306,221.39296620927053 387.7492879930651,220.81785173388198 387.70641288533807,218.80709192389622 387.72100556793157,217.8970316212508 387.87794244277757,217.3218681543949 387.87794244277757,215.90090357407462 387.99284889607225,215.53323776618345 388.0324908941984,215.41371377778705 388.3504715663148,214.4483848689706 388.4815144392196,213.82469677203335 388.6109844481107,213.09049500722904 388.76795044972096,212.16461968887597 388.78248487832025,211.63795926165767 388.85370066505857,211.25453415198717 388.85370066505857,210.93424135952955 388.85370066505857,210.0252067510737 389.0543573333416,209.33841440390097 389.2833255537553,208.70123369421344 389.7841371023096,208.26928640902042 391.0139419877669,207.95012643776136 391.4719075555913,207.61513184208889 391.90071688534226,207.31176461919677 392.544775566319,206.9598792718607 393.2316802276764,206.49751892272616 393.97442156099714,205.76215787779074 394.51810821692925,205.2039364608354 395.0052008960629,204.5013364868355 395.36279443919193,203.97457800939446 395.7204171095509,203.49528119381284 395.89841288526077,203.1287331810454 396.07803977967706,202.7610883715097 396.17191645875573,202.2298599103815 396.2576666739769,201.3998029313516 396.3871366827516,200.9047069225926 396.6443873279495,200.2821204122738 396.84425756451674,199.53212360996986 397.2018511077622,198.54188224725658 397.65981667570304,198.18998401687713 398.20350333163515,198.15843617543578 398.67600332805887,197.9825071443338 399.4486873316346,198.03098610095913 400.36374465434346,198.31857086514356 401.1931100160582,198.58926483540563 401.62189021881204,198.97275081963744 402.23760822054464,199.46781021921197 402.867103345925,199.64377876138315 403.596067555598,199.7712685794686 404.2400971094612,199.4520566840074 404.7554722133791,199.08436562959105 405.0839677725453,198.73364565492375 406.30005378858186,197.59901957487455 406.7725537850056,197.1208062643418 407.1018357761204,196.75315223407233 407.51852822769433,196.4179389673518 407.5589857849991,196.3854570367257 408.63264022767544,195.41213394276565 408.75643044977915,195.2530935803079 409.0185744498158,194.91702555847587 409.54691111831926,194.43767001689412 410.13350200885907,194.03842288121814 410.5485342151951,193.52747652697144 410.748375324416,193.0639533669455 410.97734354494605,192.13800064084353 411.06312288716435,191.45107580156764 410.81717356084846,190.74843548808713 410.6173324516276,190.04579311358975 410.1593668835703,188.24339738406707 410.03074156085495,187.60392734513152 409.9303986632731,187.01289618154988 409.8875235556625,186.23122721118852 409.8017733405577,185.7834849713836 409.81630776892416,184.18639413209166 409.902116238256,183.43630632717395 409.9449913458666,182.65356996154878 410.01614887814503,182.12684464716585 410.1310553315561,181.69598637672607 410.27345777791925,181.35981812374666 410.5169895538129,181.12073598214192 410.8600486685755,180.9605491895345 411.8908280036412,180.89740835840348 412.67726000363473,180.94479443703312 413.6068808817072,180.86468069284456 414.4216535608284,180.75301678763935 414.92246510938276,180.6413528303965 415.63768132263795,180.4496155430097 416.28174000349827,180.17780473351013 416.68223778146785,179.7469429571065 417.09403687820304,178.69343778071925 417.5374388906639,177.87909479776863 418.0099388870876,177.23951587709598 418.08762089244556,177.09853297879454 418.3529980017338,176.61690845980775 418.66774556436576,176.1059655478457 419.2405884587206,175.48335518396925 419.54071421164554,174.90808986866614 419.45496399642434,174.23918536148267 419.1548091165023,173.56808624684345 418.9824640000006,172.769521735725 418.88296578859445,172.08254134835443 418.88296578859445,171.57162937009707 419.0253391076112,170.8846455469611 419.21146134776063,170.2304700902896 419.49783910415135,169.4318538440275 419.81258666689973,168.47303979087155 420.2268615680514,167.7387396125705 420.3603219911456,167.53342915611574 421.26005845342297,165.91704984509852 421.878194005345,164.74056411616039 422.1872617814224,164.17656198790064 423.29650955391116,162.16987477219664 424.1816533333622,161.13550004997524 424.8976851059124,160.25786987849278 426.07651754666585,158.86141931335442 426.84920155024156,157.8585834566038 427.425277553848,157.26297128439182 429.37760955747217,158.01537455129437 430.69802888541017,158.53200068481965 431.79111111117527,158.96618993597804 432.3137679930078,159.17382243392058 432.52170643908903,159.13321370613994 434.31948999117594,158.34926086559426 435.76535978680477,157.73789363459218 437.81558801070787,156.9065047922777 439.1360073387623,156.37407817447092 439.7403948942665,155.98150872485712 439.9528480427107,155.37431821465725 440.568886442692,153.6137737854151 440.96210244263057,152.36051556811435 441.4402822259581,151.07451905624475 441.63202599820215,150.481164183293 441.86017865967005,149.77271822548937 442.06001976900734,149.29786130099092 442.32702799641993,148.66048024065094 442.57947266846895,148.06029680470238 442.3691166720819,147.79413472639862 441.28733576543164,146.86906285292935 438.8584842241835,144.7054309102823 438.4652682241285,144.0150398936239 438.20659035013523,143.25808477331884 438.01539999304805,142.6985805426957 437.2006564409239,140.25282060232712 436.73704021342564,138.85621277272003 436.42800156446174,137.96274337376235 438.3374293334782,137.7585445359 440.2201766684884,137.5554826707812 444.17823067028075,137.08734319114592 447.0569795698393,136.77369288279442 448.2649391217856,136.61688788089668 448.8094413370127,136.5514610548271 451.01826668088324,136.28747926600045 452.53447844984476,136.1001738573541 454.87717199663166,135.88054061558796 455.04913846054114,135.86441738338908 456.0636939946562,135.71427226933884 456.2150093370583,135.69185405649478 456.8226300018141,135.6218783534132 460.4529748765053,135.2045010852744 463.06634666677564,134.92240448720986 463.59954756265506,134.85929213056806 464.1197868944146,134.68664685363183 464.00732711819,132.52404201490572 463.86652666318696,130.54864631633973 463.72493977611884,127.81960135680856 463.6553842346184,126.59557224984746 463.52833177614957,124.41591743082972 463.4806215680437,123.77286531054415 463.4668735716259,123.16136918927077 463.2985479964409,120.37131709099049 463.23682764801197,119.43330479308497 462.9895093475934,115.68134070560336 462.9789653334301,115.46806546888547 462.89076844090596,113.737405646767 462.80664934415836,112.29551804548828 462.7362199892523,111.02510633255588 462.62207084102556,109.41285407613032 462.5396411163965,108.24847902182955 462.47407598933205,106.4714222701732 462.4692408889532,106.33494688564679 462.32928512000944,104.1867084801197 462.215980657842,102.35210599092534 462.06146133341826,100.1722710999311 461.95226379390806,98.31846566317836 461.8535228872206,97.0321788971778 461.95226379390806,97.01637800317258 463.8341955698561,97.80053165490972 466.9240868979832,99.15001731662778 468.21616554656066,99.69837189739337 470.42175778152887,101.31292358471546 473.3562850987073,103.50858917634469 475.0982902330579,104.82640129397623 477.3459128889954,106.53462334437063 477.84835555555765,106.86748476821231 480.3363060053671,108.72569191968068 481.2561693013413,109.41285407613032 481.88004289439414,109.87881372135598 482.5418691128725,110.37746914697345 485.6438773191767,112.71634703956079 486.25476022053044,113.29176176362671 486.9077026701998,113.90775089303497 487.4416899982607,114.73924840986729 488.83169399469625,116.12019726540893 490.1667060054606,117.28002568613738 491.3042653299635,118.04831347434083 492.30673311289866,118.66095988912275 493.09398067195434,119.23973141465103 493.51472179195844,119.93019386095693 493.65546399296727,120.63531642558519 493.64171599654946,121.29421687987633 494.1749168926617,121.6078062329907 494.09076866845135,122.31292385788402 493.7113006648142,124.13271152746165 493.55759689980187,124.74420516821556 493.37473689601757,125.45045076229144 493.2201884445967,126.23451130429748 493.03732844092883,128.0373737476184 493.0381440001074,129.54228033934487 493.15060377609916,131.17360724729951 493.34721177606843,132.30286218848778 493.69833910034504,134.54450174298836 493.90953978325706,135.86218368611299 493.9936588801211,136.552598206501 494.11989577964414,138.3869386925944 494.1061186561128,138.9814606711152 494.07297200360335,140.1050337331253 494.0632435483858,140.44008215120994 494.0074068765389,141.03569555131253 493.62555044994224,143.0933647842612 493.58946195908356,143.25808477331884 493.48474999470636,143.73636502644513 493.344794225879,144.2699568553944 493.17568221874535,144.97500775626395 492.61419889784884,147.0766652279999 492.4879619983258,147.7828043536283 492.38925021875184,148.3626832072041 492.3196655502543,149.27187064423924 492.3342582328478,150.30633721576305 492.43212532636244,151.19976056483574 492.64332600904163,152.51731026230846 493.0219784535002,155.43669419689104 493.17652690492105,156.70687033009017 493.23315000906587,157.24039265234023 493.5422177850269,160.04581198573578 493.76632177783176,161.53589845838724 494.08995310927276,164.4461169183487 494.21619000902865,165.089100443176 494.5956288854359,166.32763274561148 494.9184737850446,166.9548149391776 495.23805644817185,167.53009935695445 495.4241495609749,167.83579097362235 495.75666466145776,168.23845218337374 496.03418777603656,168.48656197055243 496.39504355564713,169.0426761818817 497.4355222187005,170.7312738452456 497.76806644629687,171.47457952291006 498.2260028872406,172.18633163144113 499.1135642169975,173.67297225550283 499.34984334232286,174.1693021323881 499.710699121817,174.69490797567414 500.04321422229987,175.29949132993352 500.8757835663855,176.72406705509638 501.06953710946254,177.09853297879454 501.139529557433,177.23391229577828 501.4866082133958,177.83735228562728 502.162997987587,178.86259988008533 502.74554020992946,179.4976266756421 503.2172537742881,179.96235363959568 503.57810955378227,180.3808304645936 504.036045994726,180.68983529682737 504.46651556994766,180.92221803741995 504.608888888848,180.95855954301078 505.2569671111414,181.1241061972687 506.06119577609934,181.3869016324752 507.0741784463171,182.053512307466 508.5022224499844,182.7652329808916 509.76438755565323,183.2141177925514 510.819429774303,183.64724718837533 510.9901437724475,183.76004667201778 511.63743556279223,184.18862737860763 512.2620373333339,184.63755012740148 513.094577550306,185.14961176150246 513.8017255538143,185.41240278014448 515.1755640036426,185.7834849713836 515.6885215573711,186.07786533562467 517.017824654351,186.46811163052917 517.7112537884386,186.5921977190883 518.3770995484665,186.67003572016256 518.9038342257263,186.46811163052917 519.5009400036652,186.40610916627338 520.5422050986672,186.3632312247646 521.3586088960292,186.32940799486823 522.3715915663633,186.23577487451257 522.981629781425,186.09703050006647 523.4120411021868,185.8804884169367 524.2583584428066,185.3842234108597 525.2155044410611,185.1056372782332 525.6734700091183,185.02779876883142 526.2560122311115,184.9195069662528 526.9081391219515,184.95113776024664 528.0456984464545,185.05938894418068 528.8814717725618,185.2853113625315 529.0724291129736,185.33687881479273 529.5854157938156,185.56917583860923 530.3070982258068,185.92564027936896 531.013430670253,186.40497225127183 532.1623495679814,187.26330094778677 532.7311437937897,187.8824699682882 533.1469915591879,188.501718595915 533.7295337812975,189.01259446330369 534.7983239965979,189.84951575956075 535.4083622115431,190.4687186984811 535.7829951148015,190.76309330476215 536.3105162240099,191.33604675991228 536.5880393385887,191.7996138667222 537.3510240142932,192.5428947705077 537.5451853369595,192.94551444781246 537.7256277902052,193.70340882986784 537.766871779575,194.23010868858546 538.9457042204449,195.20571033208398 540.0832926720614,196.10460996057373 540.4578964482062,196.49146992142778 540.9441444409313,196.66179692087462 541.9288155592512,196.86253494990524 542.9692942221882,197.11069629370468 543.8285731272772,197.2189419826609 544.4887682276312,197.26855795731535 545.0996220019879,197.17606597661506 545.5988315592986,197.48399348551175 546.0705159965437,198.0106850314769 546.4030310969101,198.39754191419343 547.0276619947981,198.7077009640634 547.721062002005,198.9242314515286 547.9112037831219,199.04827048571315 548.6232160143554,199.51295952062355 550.2737328925868,200.3949120627367 550.8562751148129,200.73551978741307 551.4808768853545,201.13816629652865 552.2025884444593,201.72688892437145 552.7851306666853,202.25357114168582 553.1540837831562,202.50619305233704 553.575611335109,202.7949498826638 553.9356806827709,202.93478082114598 554.4073359930189,203.3216297517065 554.8369900089456,204.0490404695738 555.2674013297074,205.39561333373422 555.7666108871344,206.78960019547958 556.0166088817641,207.47079697594745 556.3297253262717,208.12377452471992 556.3329584357562,208.39108758349903 556.343502449803,209.20760045736097 556.787661767099,210.01282371894922 557.3937386951875,210.93424135952955 557.4397886578226,211.00415446341503 557.8556655503344,211.63909605680965 558.1890253368765,212.2570652826107 558.4940444445238,212.7375219577807 558.5636291130213,213.49535372387618 558.5911251058569,214.17657203582348 558.5077924409416,214.95132914546411 558.453586887219,215.36970425071195 558.5919406649191,216.15915436350042 558.772353991284,216.63846644130535 559.2027944392757,217.24294394272147 559.2564465778414,217.29409852722893 559.8678828942357,217.87786900094943 560.1453768818174,218.34248091292102 560.491698232945,218.812775730039 560.7141711076256,219.29317865904886 560.7416962275747,219.95850650250213 560.7004231112078,221.24299649399472 560.7975037724245,222.15645432221936 560.9366731094196,222.68199548101984 561.1858555449871,223.39469159545843 561.3388020053972,223.92136677511735 561.9213442276232,225.7482585242833 562.2126153386198,226.41356844105758 562.5038864498492,227.15670135733671 562.6568037831457,228.02393719478277 562.6932126721367,228.82796050026082 562.7263884516433,229.57563276810106 562.7676324408967,230.10225376300514 562.9480748941423,231.3235618279432 562.997416220489,231.76557605649577 563.0314075592905,232.0667201107135 563.2118500124197,233.16614845203003 563.4197884586174,233.98712364729727 563.489373127115,234.512598258676 563.5031211235328,235.33356884022942 563.5306171166012,236.138704294106 563.4755668765865,237.1456779949949 563.6139497814002,238.33764034608612 563.7806442383444,239.02211682946654 564.0160786774941,239.7494191568694 564.3769344568718,240.33691024873406 564.8348417705856,241.3428108401713 565.0290322204819,242.00807745289057 565.1123648853973,242.6745194613468 565.2094455467304,243.18532041081926 565.1123648853973,244.37721212062752 565.0831503929803,244.7651307756896 564.9594766792143,246.405781046662 564.8623668907676,246.97750540677225 564.80734577775,247.5976567362086 564.6544575716835,248.123182684707 564.4464899983723,249.84499668871285 564.4740151184378,250.29379641992273 564.5015111112734,251.02106453222223 564.5476484552491,251.52961506875 564.584843775956,251.934408833622 564.7652862294344,252.6774625958642 564.9732246757485,253.43520862906007 565.2507477903273,253.96181777579477 565.6536339912564,254.8288754078094 566.0695108836517,255.26301193382824 566.8187184357084,255.9124900738825 567.6091991041321,256.29925347008975 568.5251011130167,256.71755637734896 569.1351393280784,256.93403444148134 569.7735182222677,257.13585855445126 571.5907295575598,257.41440153022995 572.2347591111902,257.5011873693438 573.6215299982578,257.8564082196681 573.6830173297785,257.8732944908552 574.4403222186957,258.08871611970244 574.9816204515519,258.3976207366795 575.3699722241145,258.83175079664215 575.6199993458577,259.2489127134322 575.7170800071908,259.97729021077976 575.6620297670597,260.6515975878574 575.6612433351111,260.6583763724775 575.6749913315289,262.43875462491997 575.6474953386933,263.0577699781279 575.7024873245973,263.8628122745431 575.814160668524,264.43559093552176 576.0358471112559,266.26217379252193 576.1329568995861,266.6782268297975 576.2025415680837,267.71555552911013 576.1467048960039,268.79006031586323 576.0083511184203,269.76535838877317 575.9525144463405,270.27610158809694 575.9250184532721,270.84886491909856 575.814160668524,271.2513936125906 575.7170800071908,271.90196492662653 575.7445760000264,272.93923042312963 575.799597113044,273.4646602048888 575.882929777843,274.0374159142957 576.022099114838,274.65749721217435 576.465472000069,275.41517373977695 576.8684164551087,275.9732721836772 577.2842933476204,276.4050974257989 577.4266666667536,276.5428965569008 577.7001411130186,276.80761678592535 578.227691349457,277.2259244816378 579.5011577742407,278.17862098349724 579.9865902080201,278.5664443311398 580.0210184535244,278.59124389803037 580.5003924481571,278.93738226545975 580.8887442204868,279.37147511396324 581.870997788501,280.4267700171331 582.0125846756855,280.57893504115054 582.2480191148352,281.0118884497788 582.7609766685637,281.5226482668659 583.2326611059252,281.94090714410413 584.065230449778,282.9003630563966 584.3848131130217,283.21041273284936 584.7311053369194,283.6726656552055 585.2028189013945,284.12249789602356 586.118662656052,284.9274694264168 586.8816473315237,285.4844498591847 587.3671088924166,285.7009019361576 587.9221259948099,286.04138840996893 588.5872144497698,286.2736283997656 589.8162037760485,286.48443815030623 590.9675110969692,286.53066690970445 592.3413786739111,286.14395230589435 593.5339591110824,285.6952603037935 594.1723380052717,285.33898486185353 595.2540897850413,284.580243849603 596.0032973369816,284.0233019029256 596.2929373297375,283.7887868260732 597.5980066703632,282.7380119727459 598.2638815573882,282.0570697420044 598.7776255432982,281.5463110640994 599.304360220558,281.11335862090345 600.2477873495081,280.2925448809983 600.8027753244387,279.9983208468184 601.5244868836598,279.79765246110037 601.6992495503509,279.7601082967012 602.8279251059284,279.518039618677 604.5447935432894,279.3917692905525 605.2940302223433,279.4221699638292 606.709112661425,279.4537476951373 608.873431779677,279.4841889489908 609.5668317867676,279.4841889489908 610.2351242240984,279.5822503482341 610.4924039965263,279.6206468951423 610.8289968924364,279.67020521953236 611.3007104569115,279.68599406949943 613.0758331165416,279.7627059472725 614.1721193244448,279.8697778286878 614.9213560037315,279.8697778286878 616.5160362098832,279.97916319262004 617.7895608888939,280.1178126211162 618.4975244515808,280.1178126211162 620.3705433316063,280.4583070278168 620.444147541537,280.4808740497683 620.7726722277002,280.582344445691 621.2856297814287,280.69059301674133 622.8253180017928,280.9386269596289 623.4491333405022,281.000645552238 623.9208177778637,281.03104602132225 624.6975504497532,281.10885334631894 625.971861560829,281.309642397915 626.071359772468,281.3253499637358 627.3610499982024,281.54180579754757 628.1935902151745,281.65005393512547 629.4557844480732,281.78983885934576 630.4550191218732,281.92852782824775 631.0650573369348,282.03783107653726 631.7584282170283,282.0829648208455 632.9348431075923,282.2069608097663 633.2536393387709,282.22161303204484 633.9057662293781,282.3298608625191 634.4745604551863,282.39187909505563 635.26501199638,282.3614787986153 635.6121197796892,282.39187909505563 636.7084351147059,282.2069608097663 637.7764097707113,281.8811617187457 638.4422846579691,281.69624303939054 639.0620513280155,281.4008842642652 640.1373368889326,280.92620700394036 641.7886693262262,280.19898906431627 645.1261702260235,278.7558707448188 645.4664622647688,278.59124389803037 647.5477399892407,277.5844443622045 648.6537837797077,277.01392951235175 650.2088511147304,276.20328954217257 650.2444444444263,276.19257407443365 650.5988340054173,276.08602820604574 652.0034015573328,275.6621172406594 653.8432446579682,275.2720162058831 655.5213157831458,274.9450306019862 655.6968940088991,274.91121987538645 656.1119553423487,274.8729037522571 657.9695951075992,274.7003593542613 660.0028130988358,274.52111761819106 661.4680815503234,274.3891621691291 662.33545779204,274.31025675375713 662.4794622294139,274.2876891507185 663.8597668979783,274.0700902650133 665.4139895467088,273.92011292889947 668.0160308907507,273.58979715482565 669.6908397797961,273.31805140839424 671.3745615645312,273.0429770204937 672.2613073352259,272.8975450602011 673.5469197654165,272.7024314875598 673.8463173405034,272.6573771556141 674.5170273281401,272.56028707057703 675.2646328889532,272.4521565954201 680.7097715483978,271.66634206619347 684.9558635520516,270.88494924729457 687.2949162099976,270.42940957454266 687.7359006720362,270.34376493439777 688.7569515520008,269.9536552412901 688.9915995592019,269.8634237651713 690.2675126614049,269.33575363393174 690.5167242240859,269.2331419533584 690.6470097919228,269.1632864290732 692.1316477726214,268.36159033863805 694.4335051092785,266.76955544855446 694.787894670153,266.5372965549468 695.7191466665827,265.92843784880824 697.0646735645132,264.7873512856313 698.1415319893276,263.9462673187372 698.785590670188,263.1953332385747 698.7896393387346,263.1888792543323 699.5032535609789,262.0542336595827 700.1901582223363,260.46219745319104 700.3066666666418,260.47230475081597 703.5689031111542,260.76208769582445 704.5260491092922,267.2194600117509 705.0041997655062,269.7427903576172 705.4241544535616,272.115019747871 706.0819028764963,274.84919970680494 708.4339462259086,275.5955918878899 709.1459293297958,275.82106364599895 709.6006617883686,275.9665344210807 712.5101106631337,276.88989024737384 713.5052966685034,277.11881083023036 714.3346037761075,277.31043017824413 714.5757180019282,277.32175442634616 715.6202744605253,277.37131322646746 716.1882240001578,277.2202826496796 717.0256284446223,276.5302734291763 717.5628780090483,275.7488964709337 719.2077442276059,271.60318454680964 720.1648902257439,269.7112519366201 721.1374153387733,268.66041535057593 721.6163815538166,268.39093706576386 722.0937457778491,267.5791313938098 723.0622222222155,266.7508432320901 723.4991288889432,266.3771668652771 724.9943108836887,265.5360884789261 726.1909399894066,264.1852668178035 727.057500672061,263.464817366621 727.4765815467108,262.804075354652 727.6553928819485,261.9324597638333 727.6553928819485,261.0913657757919 727.2063693369273,257.0964030092582 727.8245340160793,257.03665138903307 735.2543648997089,256.3161804431584 742.6946815431584,255.5944895595312 747.3348051058128,255.1959532155306 756.3455973262899,254.42185394105036 756.6126055539353,257.29822698555654 757.5090797794983,266.9646332616103 757.5131284480449,267.0074561893125 758.4095735467272,278.59124389803037 758.8392275628867,284.142791670165 759.3974777741823,291.3650338392472 759.9363584568491,296.1687829445 759.9363584568491,297.2499784909305 759.846530446317,298.45174759137444 759.4872766578337,300.5847298412118 758.8602282098727,302.5361184287467 758.5309462186415,303.1527980743558 758.4120202240301,303.3771481301519 757.6045584498206,304.3387909341254 756.8868955592625,304.6995023780619 755.7800653370796,305.0895960961352 754.9127473493572,305.5698260780191 754.1351699911756,306.4107639658614 753.4482653297018,307.58209003222873 753.2994257920654,308.273146187712 753.0000573439756,310.28429170011077 752.5477715628222,312.4126233730349 752.4320495503489,312.957081051718 752.3721933370689,313.7371598070604 752.3721933370689,315.8700060209958 752.7306315663736,320.4951928987284 753.2104133404791,325.0887593877269 753.3892246757168,326.5608977585216 754.10767399834,329.4139238203643 754.3463706738548,330.73503877042094 754.10767399834,331.69653123192256 753.5388797725318,332.3559471036424 751.864886442665,333.9475463576964 751.1286404551938,334.79970621550456 749.8915537920548,336.22901496919803 748.6059122347506,337.91075382044073 747.6487371093826,339.6826860989677 747.5589090986177,340.34317560720956 747.5289955557091,341.45456470077625 748.007990897866,343.76635437225923 748.1285480107181,345.5371072041453 748.0423026346834,346.2291900921846 747.9488919894211,346.9787278889562 747.4408277902985,349.80107861198485 747.4108559930464,350.5517413763446 747.6495526684448,350.91238327807514 748.8461817741627,351.6033145149122 750.5201751040295,352.0834513104055 752.5542377813254,352.5636277202866 754.466927786707,353.0437625924242 755.3641884444514,353.2534180741641 757.8157300053863,354.6352650609333 759.2818140160525,355.6552525970037 760.7470242133131,356.9457915110979 761.8231253332924,358.29714539670385 762.1807188766543,358.92041702370625 763.2883937848965,360.8488524269196 764.4842364586657,362.25995029101614 766.1752108942019,363.281041460752 767.6105366756674,363.8818221092806 769.7036400071811,364.42165918048704 770.2715895468136,364.75302643713076 770.840383772389,365.32329189952 771.1089939912781,366.10320024902467 771.4981904496672,369.3761341277277 771.6074171166401,369.64131986623397 771.8565995520912,370.24618244508747 772.5443488995079,371.02725139120594 773.9416055467445,371.5715759463492 774.779009991209,371.6099171867245 776.6108140089782,371.5670723716612 778.7039173404919,371.086974598933 779.7985724303871,370.83562580816215 780.1392431219574,370.7567521383171 781.6643386596115,370.0061526427162 783.2485331059434,368.7449779067538 783.8464544427115,368.23444450227544 784.3246342259226,368.0845666517271 785.2680322276428,368.20401451853104 786.5536446578335,368.8656020673807 787.4711777849589,369.565488784574 787.8093726721127,369.82471007696586 789.4542388906702,372.1666150755482 790.6217408853117,373.9800025213626 792.0311726649525,376.35124101064866 793.790129777859,378.92081019392936 794.9568453405518,379.9114019035478 795.3604597190861,380.0409867056878 795.7044509013649,380.151462359936 795.8800000001211,380.21982497751014 797.1696902258554,380.7228271874483 799.3226788977627,381.2029056636384 800.3388655503513,381.6536908905837 800.7579755519982,382.04365939088166 800.7879473494831,382.4944024659926 799.4424204515526,383.7250768584199 798.8736262258608,384.1747619366506 799.4189731272636,384.6187662963057 799.9804564481601,385.0751438240404 801.4157822295092,383.9053729258012 802.9708495645318,383.45345595205436 804.5995211094851,383.3475257436512 806.0801686757477,383.63379279430956 807.6352360106539,384.14429340558127 809.5503144392278,384.4733614504221 811.2987566650845,384.7742731113103 812.6151273244759,384.8948486363515 813.6313722312916,385.1653319373727 815.6346475520404,385.04475654824637 817.040030663251,385.2554794464377 818.2657868799288,385.0751438240404 820.0700949049788,384.41818548133597 820.1525828834856,384.36856766877463 820.9268980053021,383.90427751810057 825.0629477832699,383.962861539796 825.5241173333488,383.6777308615856 828.6563594808104,380.0409867056878 829.3891393423546,379.19012366293464 833.650581333437,377.92899724119343 835.1757351253182,377.38805457687704 837.7170464426745,375.977086330764 839.223558883532,375.3752405468258 839.8999777850695,375.1059227923397 841.8733395626768,374.41619531606557 842.8304855608149,374.20542231790023 843.8466722134035,374.3260031588143 844.4251948943129,374.54071155842394 846.5975822224282,375.34708350739675 848.9601113316603,376.3658469070215 849.5879753387999,376.93726132885786 849.7457277725916,377.87832322210306 849.3487252481282,380.0409867056878 849.2295371093787,380.69012680160813 849.1397382259602,381.6807112004026 849.3792213334236,382.7017602244741 851.083157333429,384.4733614504221 853.2523115519434,386.39368011563784 853.8502328889444,386.75430867110845 854.6876373334089,387.1442283044453 856.033164231223,387.5341878735344 856.9005113458261,388.1652540600044 858.9320982188219,389.46803230786463 860.279256234644,390.97356972750276 860.6683944391552,391.7072267352487 861.1481762134936,392.8262481383281 861.7784868979361,393.611706113792 860.4386397866765,395.89260696351994 856.4215160035528,402.1998098115437 852.3469535573386,408.61836401128676 851.0500106808031,410.31541593308793 849.528876430355,412.1262837346294 847.6582168464083,413.848055839655 844.4251948943129,416.8234828755958 843.7940977779217,417.4042525244877 842.0553840071661,419.4978430243791 840.9695544320857,420.45788431121036 840.5221620053053,420.7790330229327 839.9048128853319,421.2206979987095 838.8182260053,421.6568048558547 837.492214272148,421.99235225783195 836.2582733370364,422.30696808488574 834.9329897814896,422.98300941311754 833.998475548462,423.72557367250556 833.4774206578732,424.2697785985074 833.0914864355,425.2162525150343 833.085835776059,425.22976021579234 832.3382302152459,430.5154314536485 831.1310862223618,437.74900296435226 829.1025576960528,447.6503184167668 829.01814732817,448.0622441286687 828.3470295608277,451.3378314381698 827.9821251129033,453.11792970530223 825.9591598650441,456.35544474312337 823.0507595662493,461.0087865353562 823.0280986737926,461.05948354664724 822.638115783222,461.94611170480493 822.2901924408507,463.320559351705 822.1777326650918,463.75995589612285 821.8565480107209,465.02054985868745 821.5304700018605,465.6525882988353 820.9657244444825,466.28458451660117 820.1525828834856,466.5206245172885 819.987548672012,466.56848139641806 818.8127357724588,466.4817306569312 817.921941333334,466.4164343806915 817.5522017850308,466.4817306569312 816.388748458703,467.2083837307873 815.9882215538528,467.353697858809 814.1847873423249,466.70033110439545 812.6264577707043,466.3702402962954 810.7267293297919,466.21811204153346 809.6231613440905,466.19896926311776 808.1239015538013,466.5234229283524 806.9264568889048,467.0765748588019 805.8641328924568,467.57339253713144 803.953074005316,469.0120490588597 803.5339640036691,469.4795406110352 802.8114660123829,470.41456153726904 802.2418271005154,471.25386695878115 802.0816571165342,471.59745613473933 801.6690133333905,472.4795842117164 800.9117084443569,474.1829164508381 800.6641280000331,474.85094383038813 800.561367552029,475.96848231658805 800.5832128853071,476.88429546525003 800.8219095609384,478.3893247023225 801.0929664568976,479.073116089683 801.4521911182674,479.98113093781285 801.7127040000632,480.7223426538403 801.7367338667391,481.447817066859 801.7475108978106,481.7733856186969 801.5614177850075,482.967457626306 801.4093160106568,487.1546518182149 801.3874415503815,488.0986066145124 801.1592888889136,488.91870918968925 800.8170744604431,489.6429827809916 800.2798248960171,490.4259338613483 800.1495684551774,490.992534665158 800.2474355485756,492.61682073323755 800.1333446542267,493.57093261240516 800.1098973298213,493.6419393418473 800.0184673280455,493.91343546658754 798.0426880000159,495.22233039466664 796.9997917867731,496.0288643488311 796.3476648960495,496.74865579791367 795.8800000001211,497.5840166872367 794.1752484409371,500.6291663571028 792.4858759965282,503.6265089932713 791.3539673315827,505.6326914567617 790.0650926650269,508.46440765447915 789.5675142258406,509.63693671883084 789.3450122240465,510.4805653212243 789.3280311182607,511.1879864704679 789.3450122240465,513.3764940827969 789.2082604373572,514.3755323303048 789.0197497742483,515.1515905442648 788.9548545709113,515.2405943954946 788.6937008923851,515.5987585344119 786.6183650987223,517.5462083925377 785.0584626632044,519.1489865292097 784.6806549049215,519.769569551514 784.1660662330687,521.0772286191932 783.7210331023671,522.3871106566512 783.2234546631807,524.3165025787894 782.8294231040636,524.9370722329477 782.2631046826718,525.7468716570875 780.99441510404,526.9193973423098 780.1368255716516,527.7809677365585 779.7249682204565,528.3497509007575 779.4304640000919,528.8351698544575 778.7645891130669,529.9344544519554 775.7394182258286,536.3293186420342 775.7005917867646,536.4115436438587 774.397153564496,538.4455493002897 773.9861117724795,538.8589003457455 773.0087515593041,539.4794323828537 771.6074171166401,540.1610224361648 769.2529853440356,541.3061915374128 766.4235777705908,542.6666428928729 764.8806564409751,543.6318268592004 764.3021628871793,544.16452922608 763.856343324529,544.6802832408575 763.4615253333468,545.5756435247022 763.1014851130312,546.7131241302704 762.7414448925992,548.7301361096906 762.6829576534219,549.02857135667 762.2786442240467,551.0906064640149 762.0901335610542,552.1075289531727 761.593341553933,553.0895809737849 760.221134222229,555.0175908264937 754.4313344568945,561.259799560823 754.0526820125524,561.6673950776458 752.7103590968763,563.0109067282174 751.8576046649832,563.649416718923 750.8972255574772,564.2001150187571 750.1075604482321,564.272154889768 749.7653168925317,564.3036545902141 748.6382433280814,564.373505262658 747.3348051058128,564.4536936473451 746.4043686684454,564.5108957597404 741.3330182258505,564.8036763088312 740.9729780053021,564.8554865100887 739.3790842312155,564.8892969168955 738.64117799839,565.0277816994931 737.9380786630791,565.3892768750084 736.6726804481586,566.6257427424425 736.0690793244867,567.2157982242061 735.4687404374126,567.8340272479691 733.3084991147043,569.6954342761892 730.4443428978557,571.7449274109094 728.918402673793,572.7786670096684 727.3228777814656,573.4171510075685 725.4069837938296,573.8788448222913 724.1043320037425,574.1919237204711 723.0622222222155,574.4150879585068 720.9658566543367,574.8641318824957 718.0855348908808,575.4666123532224 716.6793362203753,575.8291863334016 714.8443282203516,576.6039512581774 706.6693384535611,580.3604230363271 705.1085913316347,581.2905122468947 704.2347779982956,582.0123180121882 703.878291285364,582.8117905593826 703.7889875627588,583.0122055295506 703.5834666666342,583.6495678014471 703.1594924373785,586.7843861666042 703.0163035591831,587.2156520525459 702.9847297708038,587.3113581939251 702.8164624499623,587.8191959881224 702.6052908942802,588.1277166520595 702.0785853441339,588.7132197619067 701.2161024569068,589.1962871268042 700.4838760108687,589.5059410252143 699.0380353423534,590.1849568344187 698.7896393387346,590.3015782447765 698.6496544427937,590.367367774481 696.6342331165215,591.1802703089779 696.5573375432286,591.2118475484895 695.8024793317309,591.6419704823056 694.9966486755293,592.538209459628 692.6138762241462,595.9645597960334 692.0135082099587,596.6885913648293 691.3962173440959,597.2222703847219 687.1477077901363,598.4799743818003 684.5068400072632,599.8063366548158 682.8400993280811,600.5708501273766 682.5585275448393,600.700356303947 682.293179562781,600.8219582838356 680.93958445522,601.4434650414623 678.9508144356078,599.5654015188338 677.0753780053928,597.7874840575969 676.8075833457988,597.5341838607565 675.0801708943909,596.5692572336993 674.6796731164213,596.5084551737527 674.5170273281401,596.4840127413627 674.0509935502196,596.4138471380575 671.9077333335299,596.3451812995481 670.6552675554994,596.1897710588528 669.437579548452,595.8970288038254 668.3412933406653,595.2766021239222 667.5087239964632,594.5987762383302 667.4318575504003,594.5357442517416 666.9860671146307,593.6428366213222 666.7117771093035,592.9368340784567 666.3169299911242,592.4718124940991 665.6825997654814,592.1103986529633 665.151059114607,591.988792258373 664.401006876491,592.2477327339584 663.7667057779618,592.3163997448864 663.080587548553,592.1610274303821 662.6177868800005,592.0405560545041 662.0692651235731,591.6441999367089 661.3831177671673,590.9032903141342 660.7747106703464,589.9687388872844 660.2512091022218,589.1636556874146 659.1532917761942,588.1479847149458 656.323913329863,584.9264762465027 654.6630272001494,582.8117905593826 650.2444444444263,577.1858340694453 649.8722582188202,576.71202573966 649.3835926756728,576.0904549229308 648.1141166649759,574.0927665738855 647.0857548799831,571.4228862120071 646.6569746774621,569.6132206804468 646.1925428907853,567.6865037587704 646.0558202312095,566.2563441644306 646.0558202312095,565.6538811065839 646.3640724481083,564.1719395989785 646.4546868907055,563.8363072582288 646.5873900089646,563.3442294255365 646.6043419876369,563.1550277031492 646.5703797761817,562.8960558301769 644.9926515484694,555.6257158778608 644.9579029050656,555.5919041653979 644.6682046579663,555.5153210247518"/></g></g></svg>