<svg width="1200" height="800" version="1.1" xmlns:xlink="http://www.w3.org/1999/xlink" xmlns="http://www.w3.org/2000/svg"><g class="geojson-features"><g class="geojson-feature" stroke="#555555" stroke-opacity="0.0" stroke-width="0.0" fill="#111" fill-opacity="1.0" data-properties="{&amp;quot;N03_002&amp;quot;:&amp;quot;日高振興局&amp;quot;,&amp;quot;fill-opacity&amp;quot;:1,&amp;quot;description&amp;quot;:&amp;quot;様似郡様似町&amp;quot;,&amp;quot;N03_001&amp;quot;:&amp;quot;北海道&amp;quot;,&amp;quot;stroke-opacity&amp;quot;:0,&amp;quot;N03_007&amp;quot;:&amp;quot;01608&amp;quot;,&amp;quot;fill&amp;quot;:&amp;quot;#111&amp;quot;,&amp;quot;N03_004&amp;quot;:&amp;quot;様似町&amp;quot;,&amp;quot;title&amp;quot;:&amp;quot;様似郡様似町&amp;quot;,&amp;quot;stroke-width&amp;quot;:0,&amp;quot;N03_003&amp;quot;:&amp;quot;様似郡&amp;quot;}"><title>
      様似郡様似町
    </title><desc>
      様似郡様似町
    </desc><polygon points="105.99222823837772,496.304001078126 105.7947755518835,495.52608900441555 105.78021199640352,495.02964588976465 106.03510334598832,494.5288025600603 106.04800665611401,494.5037426916533 106.24304179206956,494.1480729703326 106.59740222594701,493.1246211816906 106.86924555373844,492.3401395495166 107.3126475661993,490.7809494291432 107.53188733162824,490.0292195100337 107.55941245157737,489.2643679265748 107.69613511103671,488.37291535455734 107.9000248889206,487.7258982946514 108.05457334057428,487.4312991485349 108.44047843548469,487.13559981482103 108.8078295608284,487.06682060216554 109.22612400352955,487.25779972819146 109.76092689076904,487.53605864499696 110.25285467028152,487.79239909362514 110.83944556082133,487.93097837426467 111.1792715662159,487.79239909362514 111.29251777438913,487.3079602025682 111.23021488357335,486.66969981911825 111.18005799816456,485.38873547309777 111.33460644981824,484.86171204259153 111.57082732091658,483.98878406645963 112.05710444087163,483.2904944726615 112.47784556087572,483.1246125983889 113.48675043554977,482.6249237174052 114.19634511636104,481.9592726196861 114.32741711637937,481.77543853153475 114.70038977439981,481.25221769092605 115.45606354495976,480.1916315293056 115.84689112182241,479.8032201769529 115.9391075555468,479.47043035627576 115.89786356629338,478.80154975224286 115.88813511119224,478.6520844665938 115.84689112182241,478.30613385356264 115.9391075555468,477.76495409954805 116.15511421172414,477.15499121445464 116.60903111100197,476.3017555885599 116.68103332992177,476.010364012036 116.618730439106,475.42769768007565 116.39217976899818,474.67914247658337 116.3253621760523,474.40090845839586 116.27893356094137,474.2077589505352 116.21741710230708,473.66767017752863 116.28941932087764,473.26718901871936 116.60661356092896,472.6081515774713 116.98931467393413,471.79846451536287 117.46583421167452,470.9953742781654 117.9480917903129,470.2228040508926 118.4699039858533,469.53209665970644 118.54275089071598,468.8140857713297 118.54843067750335,468.76058252441 118.6519775573397,468.28706650284585 118.83480843377765,468.0240671286592 119.1471384462202,467.9531613497529 119.47240089613479,467.8483936053235 119.6285513387993,467.63779734179843 119.86317021888681,467.02344919287134 120.08485666150227,466.5324095530086 119.95381378848106,466.0369692155509 119.73372933699284,465.7205421277904 119.68033934244886,465.422617112461 119.81059578317218,464.98397844599094 119.94085222424474,464.66861067316495 120.03228222602047,463.7313044933835 120.11075066309422,462.8888258575462 120.27983354311436,462.08240700222086 120.65769955550786,461.1876357102301 120.98296200542245,460.78391315811314 121.55822244985029,460.0058507013018 121.72972288005985,459.6599134361022 121.79287045705132,459.53223944304045 121.90937890147325,459.05862728279317 121.87052333529573,458.09403648925945 121.81873533164617,457.3388685765094 121.67551732633729,457.2340963606839 121.58408732456155,457.30394450953463 121.33653600711841,457.7077119954047 121.15449156262912,457.8833926815423 120.73779911117163,457.90083503286587 120.13909134233836,457.6029792195186 119.86558776895981,457.4097773815156 119.68197046057321,457.10426046379143 119.56461732985917,456.4735045345151 119.36964044801425,455.8416863132734 119.39553444983903,454.1349480380304 119.33081400895026,453.55553041771054 119.23047111101914,453.36452541156905 119.08320443728007,453.08190687553724 119.00473599997349,452.76652401016327 119.18759600352496,452.57339698571013 119.38257288536988,452.4675227702246 120.09944934421219,452.2732955208048 120.68440911639482,452.1150536284549 121.75241289974656,452.0626860684133 122.05175222049002,451.9044440420694 122.50808667030651,451.2900570278289 123.48466045164969,450.6058184853173 124.16346777614672,450.05691772070713 125.32290156092495,449.284282448818 125.59634688007645,448.96889476734214 125.62227000901476,448.60007767385105 125.77839132456575,448.1973561261548 126.02600089611951,447.88086705387104 126.41516822762787,447.88086705387104 126.81726799649186,448.06531548849307 127.02762399287894,448.1613700502785 127.31406000361312,448.30213214905234 127.64741979027167,448.2650460777222 128.05435465974733,448.0937193566351 128.2080875519896,447.86778476356994 128.47588221170008,447.06571726477705 128.6636064427439,446.70447961299215 129.2550615608925,446.2745295148925 130.16930332453921,445.6088204087573 130.2121784320334,445.55319069721736 130.4306608925108,445.2673024990363 130.47027376363985,445.0151611716137 130.45087510743178,444.7718197974609 130.45087510743178,444.56446478684666 130.6046371271368,444.3385662740329 131.1062351075234,443.9784246905474 131.340883114608,443.9064120259718 131.721953109256,444.03189398226095 132.02938976720907,443.9511596687953 132.3028642134741,443.77110830513993 132.92021333344746,443.1185143251787 133.32877932093106,442.7398275263258 133.66298379388172,442.5771794246393 134.24709888000507,442.4233315087622 134.7730179982027,442.4168098636437 134.92919756809715,442.4146097904304 135.5788777815178,442.314231435128 136.27711288898718,442.061026362353 136.42437956272624,441.86243011645274 136.43836057616863,441.6637944247923 136.44459377776366,441.5753590608365 136.30382244987413,441.3047490090248 135.84183734061662,441.02973849209957 135.7592911075335,440.8933331629378 135.7212802276481,440.8311021353584 135.6880753209116,440.5157037333702 135.85558533703443,440.15449585433817 136.57811245520134,439.3796690039453 137.35321400896646,438.7565292001236 137.95029065955896,438.2752163767 138.37184733862523,437.8692565141828 138.56682422047015,437.5582545878715 138.60000000009313,437.38692049047677 138.60000000009313,510.84931086486904 136.2973271040246,510.1503896951908 135.63794756273273,512.1491144204629 135.04002622584812,512.002929081209 135.63631644449197,510.00966259336565 135.5286917689955,509.9267109402572 132.48289888724685,509.0723701470415 131.61176524800248,511.83985495287925 131.4417503005825,511.7596139588859 132.30775756807998,509.02335307985777 132.30775756807998,508.74299726472236 132.37649755040184,508.58153133880114 132.38945911463816,508.46696155838436 131.96516448725015,507.36477950774133 131.95199903286994,507.3368930053548 131.73910897772294,507.1589299135376 131.7344195129117,507.1337534870836 131.70092333527282,506.95480832929024 131.59248310048133,506.8249591066269 131.3700102258008,506.71368777391035 130.423379114829,506.44860807276564 129.55279889074154,505.94012872094754 129.1692822186742,505.76338221743936 128.3335088925669,505.4677046748111 127.78009378153365,505.3182554112864 127.65062377252616,505.25278050196357 127.2541746632196,505.1317284645629 125.33988266671076,504.82293159898836 124.12950556445867,504.8447697007796 123.27185777795967,504.9560811467236 122.39236465794966,505.1764258167823 121.37941111484542,505.2211624381016 120.38908933708444,505.1545877442695 119.81706200179178,505.06625350611284 118.34290978149511,504.53601175610675 117.83641844626982,504.33632634801324 116.25222400005441,503.8944962822716 115.21821155550424,503.5191620264668 114.42612889606971,503.0772912319517 114.32741711637937,503.0068274966907 113.74487489426974,502.59068256622413 113.04014444095083,501.97202164749615 112.15986488899216,501.0882737771026 111.69787977973465,500.6682764108991 111.38959843548946,500.42495020182105 110.70755800174084,499.82816171710147 108.99147599644493,498.6563405410852 107.56101444270462,497.5511298699421 106.90079021523707,496.91065689962124 106.26162488898262,496.4709739611717 106.06423045694828,496.335620275524 105.99222823837772,496.304001078126"/></g></g></svg>