<svg width="1200" height="800" version="1.1" xmlns:xlink="http://www.w3.org/1999/xlink" xmlns="http://www.w3.org/2000/svg"><g class="geojson-features"><g class="geojson-feature" stroke="#555555" stroke-opacity="0.0" stroke-width="0.0" fill="#111" fill-opacity="1.0" data-properties="{&amp;quot;N03_002&amp;quot;:&amp;quot;十勝総合振興局&amp;quot;,&amp;quot;fill-opacity&amp;quot;:1,&amp;quot;description&amp;quot;:&amp;quot;河東郡士幌町&amp;quot;,&amp;quot;N03_001&amp;quot;:&amp;quot;北海道&amp;quot;,&amp;quot;stroke-opacity&amp;quot;:0,&amp;quot;N03_007&amp;quot;:&amp;quot;01632&amp;quot;,&amp;quot;fill&amp;quot;:&amp;quot;#111&amp;quot;,&amp;quot;N03_004&amp;quot;:&amp;quot;士幌町&amp;quot;,&amp;quot;title&amp;quot;:&amp;quot;河東郡士幌町&amp;quot;,&amp;quot;stroke-width&amp;quot;:0,&amp;quot;N03_003&amp;quot;:&amp;quot;河東郡&amp;quot;}"><title>
      河東郡士幌町
    </title><desc>
      河東郡士幌町
    </desc><polygon points="933.7546717867954,720.3972919329535 933.5855597796617,720.4903329595109 932.9374815573683,720.8847100671846 931.9471597796073,721.4817979503423 931.5110395448282,721.7365528762457 931.192272440996,721.8817168039968 930.9657217707718,721.9647872216883 930.7011602205457,722.0323841081699 930.4721920000156,722.0899710574886 930.3014780018711,722.0954745187191 929.9835264571011,722.0279574099695 929.6987215644913,721.985843952978 929.345933994744,721.9659038665704 928.9858937741956,721.9503904781304 928.1713249849854,721.9098722150666 927.3445228090277,722.0474189293454 926.4494175573345,722.2940377208288 925.2894594845129,722.3483145591454 924.5234455893515,722.382890613866 923.6419718259713,722.4514445069362 922.87543364265,722.6431879288866 921.8854322632542,723.0679102394497 920.29887852096,723.3351060564164 919.2004077795427,723.6022218211438 917.7221486364724,723.869417053822 917.6829726719297,723.8822583695874 916.2573462186847,724.3508462934988 915.1724487111205,724.755067460821 914.0198306703242,725.1040147535969 913.124812800088,725.4051857765298 912.4669478684664,725.4260428133421 911.9448444019072,725.2547598300152 911.4567031466868,724.8640587087139 911.1245375716826,724.4051226750016 910.8871224890463,723.9321879511699 910.4057095964672,723.3704795701778 909.9853180018254,723.1581985302037 909.4428255575476,723.0691465192358 908.8189519643784,723.0348896016949 908.0120436054422,723.0760058781016 907.1169383539818,723.3020056948299 906.4117418667302,723.5760606005206 906.065070990473,723.6971359821619 905.5266854683869,723.8804637758876 904.8882191929733,724.0765529778437 902.9979570631403,724.4938551610685 902.3782777743181,724.6519384853891 901.7899101297371,724.6329956100672 901.0763832890661,724.3737771688611 900.6068833849858,724.1461033913074 900.1312085334212,724.0069626647746 899.718069589464,723.8741627575946 899.1234104888281,723.6845339359134 898.5789082739502,723.5642960265977 897.9404419981875,723.4251948486781 897.3895900730276,723.3809679953847 896.676092359121,723.5706369326217 896.1565520783188,723.8678617391852 895.9187000889797,724.2661814950989 895.6433032533387,724.7973798390012 895.2614759538556,725.6384016419179 894.8545993388398,726.4857215008815 894.4977922276594,726.5299079126562 894.2437164373696,726.5775638261694 893.9869318258716,726.3551163111115 893.743312668521,726.4614748022868 893.4103606615681,726.4614748022868 893.3002310543088,726.4614748022868 892.812934485497,726.3886948124273 892.3090645902557,726.3272006889456 891.871517127147,726.2767930431291 891.3952597333118,726.2655869117007 890.7639296000125,726.321577684721 890.0883262578864,726.4334395540063 889.6342637228081,726.6128969912534 889.1691328854067,726.8199109512498 888.7871016960125,727.1779876605142 888.4491980801104,727.6478852787986 888.2665128390072,728.1177819934674 888.2498521317029,728.6157128056511 888.2387838294962,729.3876909901737 888.2056080498733,729.8855394566199 888.183646208141,730.4502237690031 888.05414707202,730.7970892341109 887.8381112890784,731.2726426615263 887.4560509724542,731.7257036443334 886.9576861014357,732.2012951427023 886.3484343183227,732.721549548558 886.082940700464,732.9843481873395 885.4627079963684,733.4206571088289 884.7648806684883,733.8961256736075 884.2277476125164,734.2430660030222 883.2974568107165,734.7800648569828 882.89392981329,735.087684194441 882.3844675130676,735.5295722745359 882.1407901013736,736.0722309588455 882.0245146738598,736.681883104844 882.0965168925468,737.2973558699014 882.2515022506705,738.063683891145 882.2349289245903,738.4328699418111 882.1131776000839,738.8803746877238 881.9138025244465,739.0762524650199 881.5482572801411,739.3278786139563 881.1440312319901,739.5517499016714 880.7453393351752,739.7138909662608 879.8039802311687,740.0219826189568 878.8404262685217,740.1562093293178 877.6553606259404,740.273647671158 876.9359209814575,740.3352579161292 876.0110478223069,740.3911657108692 874.5989363485714,740.4638617756427 873.8079896463314,740.4804506716318 873.1822519183625,740.547603787214 872.8001333475113,740.5923060587374 872.3073026277125,740.8160964338458 871.9584180908278,741.0174756945926 871.3713320391253,741.493009230413 871.0501182577573,741.772706259042 870.6957578239962,742.024369508028 870.2203451165697,742.3559855879867 870.0835933298804,742.3870097725885 869.9128793316195,742.4025218633469 869.7648262259318,742.4025218633469 869.4880895433016,742.3404734942596 869.1847015538951,742.2053706925944 869.1377777778544,742.1774568813853 868.8885953422869,742.0292344898917 868.4791846686276,741.7268477718462 868.0503753387602,741.426653914561 867.2768757761223,740.8972064372501 866.8828733441187,740.6900448953966 866.4807444480248,740.4873095416697 866.1999882241944,740.3776872279705 865.8925515662413,740.2945831930847 865.6651853369549,740.2535894455505 865.4644995414419,740.2325741658569 865.2137151147472,740.2269913586788 864.932958890684,740.248046516208 864.3520186597016,740.3156383445603 863.5898786704056,740.3931595691247 862.1796604586998,740.5039383133408 861.8042119963793,740.5039383133408 861.4166757832281,740.4984352667234 860.9126019983087,740.4363864141633 860.3931782259606,740.3012028053054 859.8203644587193,740.1140192422899 859.1568779947702,739.8448479108047 858.4019906560425,739.4914952877443 857.4238440106856,738.9764393583755 856.844447516487,738.5673367899144 856.1300177352969,738.0527175655006 855.1941345281666,737.3702123657567 854.5129970347043,736.7661049456801 853.9481640959857,736.2793565379106 853.6047845830908,736.2010763291037 853.078690702212,736.2289908232633 852.7353111893171,736.2513622940169 852.3840091023594,736.2868934491999 852.2650831077481,735.9379621269763 851.9786470970139,735.0982917508227 851.7853013334097,734.4469630037784 851.7739708870649,734.4082014512969 851.5344877796015,733.7391649209894 851.2504693191731,733.0789396766922 851.1671366542578,732.8451726156054 851.041744440794,732.6380441253423 850.8750791110797,732.4198292454821 850.6930346668232,732.2325997662265 850.4276575574186,732.0453701433144 850.1808926721569,731.9102616491728 849.9268460088642,731.8227680919808 849.6832851059735,731.776229801646 846.4679724373855,731.1481015891768 845.9712095573777,731.0550646211486 845.5618280105991,730.9919366455288 845.1742626703344,730.9509413372725 844.865194894257,730.9393366329605 844.7608033280121,730.9354285195004 844.298031786806,730.9354285195004 843.7704815503675,730.9509413372725 843.2016873244429,731.0074893383426 842.5608908800641,731.1115727195865 842.1021388800582,731.2101528006606 841.5560346739367,731.355271221255 841.176537543186,731.4283687607967 840.7105037652655,731.548004621116 839.2396137814503,731.7086356109357 836.6537671112455,731.8338144544396 833.6415286613628,731.8692664950504 831.5031326721655,731.7928192875115 829.575879111304,731.7817729232484 828.9544813225511,731.7308081026422 828.5977033387171,731.6831930729095 828.2902375539998,731.5956595558673 828.0442882276839,731.4970796303242 827.7974942151923,731.3408750311355 827.5208157867892,731.2002230126527 827.228729116614,731.0971765150898 827.0426360035781,731.045134827029 826.820134001784,731.0141092023114 826.5434264462674,731.029582136427 825.8678522312548,731.0240788765368 824.7116515557282,730.9564844775596 824.1914122240851,730.8534777559689 823.8993255539099,730.8069791595335 823.5538488888415,730.7028158913599 823.2730926650111,730.5776364682242 822.9130524443462,730.2984849276254 822.6743557688314,730.0692215166055 822.6655011271359,730.061445140338 822.5530122240307,729.9606313792174 822.4162604373414,729.8930366861168 822.1962051130831,729.8620507941232 821.9688680107938,729.8620507941232 821.7301713351626,729.9185192895238 821.5635060054483,729.9816874213866 821.4041224532994,730.0902775494615 821.3320911076153,730.1733052975032 821.2787011130713,730.27635218465 821.206669767038,730.4070749148959 821.1079579876969,730.6352612822666 821.0287031184416,730.7748369001201 820.9793326649815,730.8379649319104 820.9227095609531,730.8579042942729 820.8239977813791,730.8634474366554 820.7171886649448,730.8579042942729 820.6419242097763,730.8479744921206 820.5925828836625,730.8282345226035 820.5505233351141,730.81136582006 820.47849198943,730.7548975310638 820.357964003575,730.6463475771598 820.1718417636584,730.4845992830815 819.9250768782804,730.3295505219139 819.4007888783235,730.0492820899817 817.9298988941591,729.1608194644796 816.0487535503926,728.0896671769442 814.6264184603933,727.3175652532955 814.0009428766789,726.9696978644351 813.4281291094376,726.611900005897 812.5632286721375,725.8852162064286 811.8665955556789,725.1784700715216 811.4418348942418,724.6799739380949 811.2371295575285,724.4052423143876 811.0591046542395,724.1094139554189 810.9223819947802,723.8180916638812 810.789708003751,723.5068290644558 810.6303244517185,723.0238428415032 810.5388944498263,722.634972635773 810.446648888872,722.0534408335807 810.3705980019877,721.6479789096047 810.2573517939309,721.2480596734677 810.0032760037575,720.629914372752 809.8755244944477,720.3972919329535 809.6011762347771,719.8976693899604 808.8956302222796,718.8031861683703 808.474918229389,718.2060917390627 808.1334902329836,717.7695562426816 807.8575982365292,717.4427722627879 807.4635666775284,717.017362196988 806.8526837759418,716.3892758022412 806.3065504427068,715.9107023179531 805.9610737777548,715.6414644396282 805.6770844445564,715.4697757844115 805.4569999930682,715.3755762898945 805.0589197654044,715.2359918745351 804.6034300019965,715.099757408374 804.0605297777802,714.9236016642535 803.5257268907735,714.7109144713613 803.2603497813689,714.5857268546824 803.0144004551694,714.4561522197328 802.8096659912262,714.3209542355617 802.5702120107599,714.1027229955653 802.2821448817849,713.7925647005322 802.0208164409269,713.496763372852 801.6793884445215,713.1068011992029 801.3800199965481,712.8154657878913 801.0499224462546,712.5196632771404 800.6898530987091,712.2448780971463 799.9803166721249,711.7098238033941 799.1841562169138,711.1138287323411 798.5239611165598,710.3970294688479 797.5538535539526,709.3224448051769 796.7650040037697,708.5536336890655 796.3199999999488,708.1567639649729 795.1573331058025,707.1200180355809 794.0723773440113,706.2792116625351 793.7689311004942,705.9667701164144 793.677530225832,705.7906077870866 793.6928802132607,705.6144852133584 793.7989028977463,705.499263651087 794.1475835449528,705.2300541817676 794.815089550335,704.7104591258685 795.2398793386528,704.2218919958104 795.6808346739272,703.5361415123916 796.006883555674,703.048688765266 796.3199999999488,702.5964520340203 796.567609571619,702.2388178960537 796.9243875556858,701.7402749544126 797.1897646649741,701.3558777099825 797.4171308941441,701.0345757101313 797.6832944357302,700.577030722925 797.8799024356995,700.0474149488145 797.9640797866741,699.6840338103357 798.0158386630937,699.2796913923812 798.1145504426677,698.8641808007378 798.2658366578398,698.3967006273451 798.3872384568676,698.1374543473939 798.5166502115317,697.919208650419 798.7060055610491,697.6698930150014 799.0854444374563,697.2334005907178 799.6542386631481,696.6938463773695 799.9730057669804,696.4135393567849 800.313676458667,696.1432429965353 800.6632017920492,695.8529243505909 800.8832571165403,695.5826273701387 801.0426406685729,695.3222613371327 801.1413524480304,695.0109624303295 801.202024220489,694.6785641588503 801.2473460054025,694.2110360909137 801.2699777707458,693.8377149644657 801.2853568854043,693.2039452070021 801.2699777707458,692.5602823318914 801.2926386632025,691.9985417011776 801.3460286577465,691.5631559271133 801.4221086720936,691.1476322103408 801.5887448748108,690.659077840508 801.7481575539568,690.3267135328497 801.8994437687797,690.1183923160424 802.096867328044,689.8801967495237 802.2409008925315,689.7305865217932 802.3776526792208,689.5888336382923 802.6357480107108,689.3295780111221 802.885716878227,688.9860838240129 803.0977039929712,688.6747369572404 803.378460216918,688.2282570399111 803.7571126613766,687.7185972624575 804.1212306774687,687.2510558742215 804.173630350153,687.1613127140445 804.6673640107037,686.317087220843 804.9707519999938,685.7974519365234 805.2288473314838,685.4229213677463 805.4416500054067,685.2046643113717 805.661705329665,685.0384984465782 805.9343642168678,684.8933525111061 806.2531313209329,684.7581780516193 806.5484802275896,684.6551518495544 806.8672764586518,684.5720288581797 807.1860435627168,684.4368941072025 807.4667706595501,684.2607162515633 807.6488151040394,684.0945098582888 807.8081986559555,683.8862630995573 807.9595139983576,683.5438780788099 808.0962657849304,682.9932051715441 808.2782811023062,682.1411873716279 808.3462346524466,681.5916680184309 808.3535455574747,681.3212754839915 808.3227873281576,681.0310189962038 808.2248911076458,680.7606657280703 807.9514166613808,680.0648377418402 807.5040242348332,678.7153366348939 807.3672724480275,678.2167456836905 807.3146688854322,677.8732757571852 807.2766580054304,677.4168042354286 807.2539971129736,676.9802357333829 807.2839106559986,676.5337344408617 807.3591751111671,675.9098917111987 807.4578868907411,675.3592414819868 807.8527048818069,673.6451776394388 808.1253928960068,672.3787682346883 808.2005990969483,671.8591032989207 808.2693973332644,671.3183761604014 808.3220008959761,670.89288576541 808.436091790325,670.3843465870013 808.6569335467648,669.4801901127212 808.8915815539658,668.4929018283146 809.0056724480819,667.9444686623174 809.0736259984551,667.4147821334191 809.1116660053376,666.9682633555494 809.1342977706809,666.1882297102129 809.0962868907955,665.2740853459691 809.0437124551972,664.8075780128129 808.9902933333069,664.5372466775589 808.8915815539658,664.3089586725691 808.7629562312504,664.0796333237085 808.5428717795294,663.8414123646799 808.0646919966675,663.455798675539 807.6933213297743,663.2064877528464 807.3138824534835,662.9161698488169 806.6463764481014,662.437491594872 805.8194868908031,661.7427283305442 805.3259571201634,661.2851097410312 805.0532982329605,661.035796602664 804.7571628941223,660.8496692201588 803.801618887228,660.2357589957537 803.7854533405043,660.2202416867367 803.5815635628533,660.0285689330194 803.5208626631647,659.9244153713807 803.5208626631647,659.7061355304322 803.5589026702801,659.5088777212077 803.7255680002272,659.1343866231036 804.2110295611201,658.2313054403639 804.5451757796109,657.6905481324065 805.0306373405037,657.0777867998695 805.6447242239956,656.3619857937447 806.007997553912,655.8223412943771 806.1601284552598,655.4898896912346 806.2588111076038,655.146427696629 806.3041328925174,654.8660729948897 806.3267646577442,654.5646554297418 806.2887537777424,654.2322021146538 806.2084794596303,653.9208508376614 806.1148066703463,653.5574010741548 805.8413030969677,652.7052805913263 805.3631524408702,651.4897042952944 805.128504433902,650.9910577666014 804.931110001984,650.6586394791957 804.7037728995783,650.3472038627369 804.4683093333151,650.0147846988984 804.1648922169115,649.5992700811476 803.8315615574829,649.0806736561353 803.6341379983351,648.7160997101455 803.4973862115294,648.4047414013185 803.4068008959293,648.0312704755343 803.36066355207,647.6356587471091 803.3760426667286,647.3143259702483 803.4068008959293,646.9397762815934 803.4901335610775,646.348051228968 803.6341379983351,645.4859324279241 803.748199765454,644.7900039445376 803.7627924480475,644.4364739090088 803.7328789049061,644.0941133711021 803.6567697636783,643.8458597933641 803.4520935539622,643.430334680248 803.0880046649836,642.6923131031799 802.7312266810331,642.0894475524547 802.4957339876564,641.7880541121704 802.2837760001421,641.5907818311825 802.1470533404499,641.4655567353475 802.0483415611088,641.3514219233766 802.003048903076,641.2373269514064 801.9803588836221,641.0289638632676 801.9876697885338,640.2920520479674 801.9423188766232,638.4535925876698 801.9196871111635,638.0280848303228 801.9504453404807,637.8407829900389 802.0111171130557,637.6646114157629 802.0564097706228,637.4152342710877 802.321816007141,635.7530060238205 802.6324857742293,633.1964492913685 802.7465766685782,632.5215502327774 802.8226275556954,632.1780160416965 803.0952864426654,631.2537706274888 803.1632399930386,630.943507116579 803.2012800001539,630.5899969320744 803.1939982222393,630.2575109807658 803.0265173333464,629.3332981934072 802.5863775574835,627.503613058594 802.537822663202,627.1401638758834 802.5257057849085,627.0470473900205 802.4350622150814,626.4718707780703 802.3436322133057,626.1349906793912 802.1009159965906,625.7271353384713 801.6154544356978,624.8239705147571 801.2441128959181,624.3252695386182 800.7813122275984,623.8232561593177 800.4778951111948,623.608255438332 800.1437488925876,623.4220596341765 799.6437529030954,623.2347465915955 799.1121539983433,623.1516824871069 798.6954615467694,623.0884867229615 798.3459362132708,623.0685385618126 798.1275120071368,623.0164339569747 797.876698453445,622.9123045064043 797.7253831111593,622.7770558437333 797.6565848748432,622.5798081020475 797.5959131022682,622.3714689916233 797.5732522099279,622.1220762300654 797.5959131022682,621.7896186462021 797.6404193281196,621.0526487751631 797.665730787674,620.6758644891088 797.7472284444375,619.4645174228936 797.7618211272638,619.0179109710152 797.7472284444375,618.5812779670232 797.6938384498935,618.1866957521997 797.5570866632042,617.7711269790889 797.3531968854368,617.3134259910439 797.0417115592863,616.8457498101634 796.7763344498817,616.5032707967912 796.5190546774538,616.2229116290691 796.3199999999488,616.0948807024979 796.1468684516149,615.9835268564639 795.4793624462327,615.6820612990996 794.7439028907102,615.4216100784834 794.4178248819662,615.3385034187813 794.1297868802212,615.3074630941264 793.8644097708166,615.3074630941264 793.6071299983887,615.2974886958837 792.5140477725072,615.1001950151986 790.6175524408463,614.7366874744184 789.8213919858681,614.4663007109775 789.5868022330105,614.3732192902826 789.457332224003,614.2590319181327 789.3060460089473,614.0617772961268 789.1620124446927,613.8013243474998 788.9872497777687,613.5940948880743 788.7445335610537,613.4799071515445 788.4111737741623,613.3336414404912 787.743667769013,613.0842793469201 787.5915659947786,612.9601168783847 787.5009515520651,612.8249424995738 787.4402797794901,612.6177122115623 787.4095215502894,612.3262170190574 787.4475615574047,612.045813157456 787.5155151076615,611.7543571804417 787.6142560143489,611.5470860857749 787.7210360037861,611.3487121225335 788.0244531201897,611.0583325671032 788.319743772503,610.7989935682854 788.8278662258526,610.497561508615 790.3149800107349,609.800416155369 791.4897637831746,609.0523182869656 792.5059795628767,608.2022768339957 793.0221702258568,607.7456351791043 793.2341573404847,607.5062420961913 793.4162017848575,607.2568740519346 793.5836826738669,606.8723280788981 793.7115215646336,606.3724732674891 793.7576006541494,606.0100300105405 793.8183306810679,605.5312402069685 793.9623351183254,604.7232802846702 794.0836786631262,604.1702351640561 794.251188679249,603.7446277674171 794.4477675521048,603.4121451631072 794.7212419983698,603.0896370033734 794.941326449858,602.872383648064 795.1913244444877,602.6850548420916 795.616114232922,602.4036025172682 795.9340657778084,602.1541893623653 796.1314893370727,601.9679771990632 796.2682119966485,601.7695954539231 796.3199999999488,601.6455070316442 796.3588264392456,601.5523808241123 796.4122455610195,601.1877758179908 796.4275955485646,600.6480093859718 796.3887691093842,599.6615600068471 796.3199999999488,599.0641742526204 796.1614028799813,597.6864946677815 796.0699728782056,597.3650562599069 795.941347555723,597.1877382679377 795.7439239965752,597.0214726079139 795.349892437458,596.8042537543806 794.3798140019644,596.4828141849139 793.4388335503172,596.2434100600076 792.0132362240693,595.9109172417084 782.95633578673,594.3724986392772 773.1032748942962,592.6578662979882 772.0474171165843,592.4742005773587 770.3062275412958,592.1712695453898 757.8665335467085,590.094234667893 752.3218966756249,589.167595454026 747.774805105757,588.406785440573 746.6178179982817,588.213300625619 741.9036824462237,587.42631183099 741.1799611165188,587.3054880973068 739.4202175716637,587.0117680647527 735.7946495432407,586.4076876748586 727.5128506596666,585.0144544918439 723.502222222276,584.346644634963 715.2786775609711,582.9771818059962 709.2525986703113,581.9796078935033 704.3560108942911,581.170492650941 699.2296393387951,580.3634496988379 694.7529771236004,579.6585967522697 691.2277519928757,579.1032203581999 685.4800117760897,578.1633313194034 685.0965242311358,578.1001239108737 677.7047042276245,576.891917539353 677.302575331647,576.821008352912 674.9570273280842,576.4065263883676 669.2400453406153,575.3955178473261 663.3086004337529,574.3669073321507 655.4750386632513,573.0367742707022 654.7452297671698,572.9125914364704 650.6844444443705,572.2446287645143 645.3922231183387,571.3740678249742 642.6858193351654,570.9284508367418 636.4064802133944,569.9208514422644 635.7786453333683,570.0250034931232 635.1475773440907,570.1292353096069 628.4806728818221,569.0584627726348 626.4118615608895,568.7335947319516 626.2460117903538,568.7070976757095 625.5647577885538,568.5995531184599 622.474021774251,568.1129084167187 620.1155704604462,567.7482534731971 617.0976522241253,567.2705059883883 614.9924028870882,566.9700976358145 614.5789435449988,566.8869345781277 614.4649109048769,566.8248815103434 614.3621504568728,566.7107118055574 614.2642251094803,566.5444253906608 614.1614646613598,566.4036385316867 614.0854137742426,566.335998557799 613.9834980124142,566.3049919088371 613.766646670294,566.2639689486823 613.6477206756826,566.2462508587632 613.4899099876639,566.2229459817172 611.2795117795467,565.900388696522 610.3393468871946,565.6819848889136 608.3902479930548,565.2663267461467 606.1369746774435,564.8916511876741 602.1392495502951,564.2625748591963 600.1982479930157,563.957214463444 596.5946126792114,563.3441779735149 596.2280771130463,563.2820840992499 595.8000542151276,563.2089362180559 589.5733477831818,562.150304744835 583.3466122240061,561.1005678199581 581.7365237759659,560.841175753565 577.8666666666977,560.2161993674817 577.0964002133114,560.0918104788288 575.4895740019856,570.462920480757 574.1060362240532,579.5255587227293 573.5485724445898,583.1811253149062 572.8443371522008,587.42631183099 572.3535453298828,590.3845992527786 570.8931702328846,599.1960445304285 570.1512153316289,603.6692576356581 567.6899744428229,619.2306815042393 567.4610644765198,620.6758644891088 566.8226564552169,624.7076336420141 566.6373497741297,625.7892133350251 566.549968441017,626.2978852710221 566.1470531129744,628.7171543920995 565.6470279966015,631.916465356946 565.0709519929951,635.5125632485142 564.5676937671378,638.7206815053942 564.4253204482375,639.6249518533587 564.4196406613337,639.6593002572772 563.9988995413296,642.2035820194287 563.9155668765306,642.7067145184847 563.6299755520886,644.4398249069345 562.7424142222153,649.8474779188982 562.0821026134072,653.9208508376614 561.9470984534128,654.7541384580545 561.3855860055191,658.1570690587396 561.3070884409826,658.5526238549501 561.0287788943388,659.9443605226115 560.4907428978477,663.3516066856682 559.8248680108227,667.5156217086478 558.9890364302555,672.7033787610708 558.6120151040377,675.0368283159332 558.3231615431141,676.8284237899934 557.458261105814,681.9738627085462 556.5965937778819,687.1613127140445 556.518911772524,687.6288941598614 555.8813775646267,691.492200257082 555.2365324517014,695.2834935769788 554.7777804516954,698.138571101299 554.63051377784,699.0536693527247 554.0390586594585,702.5944179838407 553.5940837831004,705.3079454854014 553.3715526543092,706.66471787513 552.871556664817,709.7866337349406 552.7865928818937,710.4048064711387 552.7121731129009,710.9498341161525 551.6603640037356,717.0694866350386 551.1959322169423,716.9985383725725 547.4280491236132,716.4258068731287 543.2264342185808,715.7965624034405 540.6373835663544,715.3700726772659 537.855715328129,714.9114378601662 532.8709597868146,714.1149267212604 531.5440451129107,713.9021989428438 529.3214717726223,713.545618275064 528.4719504498644,713.4092233398696 524.841576448176,712.827629696345 519.2532197831897,711.9214368000394 512.5491491272114,710.8401985489181 511.8686815573601,710.7947729575681 511.13403756089974,710.7449204552686 509.42847044277005,710.5166756280814 508.66956356272567,710.4059231688152 507.7892548836535,710.2773832512903 505.04888888902497,709.8435854563722 503.06582778319716,709.5296329449047 501.5439362276811,709.2892228984856 496.4693526754854,708.3973745378316 494.4595820090035,708.0439764312468 494.1844764444977,709.394432234636 493.9886840035906,710.4059231688152 493.8260382153094,711.254492314707 493.59951667196583,712.4398998315446 490.8381209032377,711.7829671027721 485.96253377432004,710.619730806211 485.03934998763725,710.4070398664917 484.0733202205738,710.1843383352389 481.13794821698684,709.4576056730584 480.7763060053112,709.3640818583663 478.91860798583366,708.8837397907046 477.3263453298714,708.4716355354758 472.57862621883396,707.2928691531997 470.8423299981514,706.861897726485 464.7361806790577,705.3209074254846 459.43661932088435,704.0070019154227 459.22466133337,703.9537978461594 456.53203467384446,703.2270466497866 456.50369399471674,703.2198676676489 453.5173495466588,702.4648369889474 450.14833311294205,701.6006827484234 446.9313893262297,700.8007779865293 444.3010655574035,700.1460474485648 441.8365915592294,699.4713333498221 441.1035495537799,699.3040205567377 440.5477168924408,699.1777481796453 440.43525711644907,699.1433682602947 440.14317044615746,699.0559028519201 440.0460897850571,698.9849493580987 439.95305779215414,698.9173859783914 439.7887808852829,698.7268204535358 439.64961154863704,698.5196630358696 439.57437622058205,698.2947570460383 439.5484822187573,697.965753390512 439.5363362133503,697.6887183286599 439.5112577707041,696.0966979092336 439.5363362133503,695.4906936233747 439.57437622058205,695.0574678399134 439.6625731131062,694.6774473892874 440.10434400709346,693.5186366262496 440.3696919893846,692.7386478740373 440.4837828835007,692.2544840388582 440.533968896023,691.8910514232703 440.52182289073244,691.5099491477595 440.44574287650175,690.8518433478312 440.3696919893846,690.4363583064987 440.2313673386816,689.8990226634196 439.2450651023537,687.5457721803687 439.043301603524,687.1613127140445 438.6002491165418,686.317087220843 438.1447010987904,685.2789323593024 438.0435717689106,684.7592948665842 438.006376447971,684.2751152163837 438.006376447971,683.5992803473491 438.08161177602597,682.9245205453481 438.1698086685501,682.284141176613 438.37209645519033,681.3667464430328 438.57435511483345,680.5534930743161 438.72645688883495,680.0858980849152 439.3842635663459,678.5446989823831 439.90205622056965,677.6616731525282 440.3947995591443,676.9514369430253 441.1658524443628,676.1038256000029 442.1391931164544,675.1864076552447 442.62625666859094,674.6213163742796 442.72091977961827,674.5105476399767 442.91024600190576,674.1471285124426 443.0364829014288,673.8180125565268 443.0841931095347,673.5754134067683 443.1254370987881,673.3681947708246 443.1376122313086,673.039077765483 443.1254370987881,672.7620942095527 443.0114044586662,672.2247196868411 442.3034117688658,669.8026106132893 442.06311310234014,668.798729868955 441.96198377246037,668.1405628791545 441.9118268870516,667.4835110098356 441.89889444981236,666.7721681974945 441.9369053298142,666.0630172249512 441.9749453369295,665.5777235009009 442.1076193279587,664.9383756697061 442.2645853298018,664.3311372823664 442.4417655467987,663.7084201876423 442.6189748906763,663.3095230018371 442.79615510767326,662.99818329548 443.89570355205797,661.5266839569085 444.9070842312649,660.1072325662826 445.3237766827224,659.4701042767265 446.107732878183,658.2733899991727 446.420062890742,657.6783814780647 446.56243620987516,657.4079624708975 446.81569644086994,656.8019020863576 446.9419333405094,656.334261626529 447.0171686685644,655.7968509607599 447.0171686685644,655.1043027078267 446.97912866144907,654.6544105667272 446.92897177604027,654.2732102994923 446.86262021702714,654.0205790285836 446.8364931982942,653.9208508376614 446.5114928925177,652.6797899322701 446.06890643923543,651.2946737862076 445.91759109694976,650.5156671639415 445.91759109694976,650.0480146681657 445.9677771094721,649.6325001067016 446.06890643923543,649.1216827057651 446.3844695609296,648.5509861092432 447.4095982364379,647.2001938914182 448.5091175538255,646.0244827737333 450.4363419878064,644.101852591557 450.6443095607683,643.9234515300486 451.44772266678046,643.2364147403277 451.7624411024153,643.0014446827699 453.6282073316397,641.6096513606608 454.17110755562317,641.1243090474163 454.70270646049175,640.5181284676073 455.06918377254624,639.947451660526 455.27144243207294,639.5839412088972 455.448651776067,639.150616256462 455.6695226597367,638.458060694451 455.9972026597243,636.917676039564 456.50369399471674,634.7234129977296 456.8006448925007,633.4369342416176 457.053875996382,632.120407891809 457.31523356446996,631.0254914053367 457.49322934052907,630.2796926830197 457.65829267923255,629.5903833758202 458.1785320106428,627.4116536842776 458.3929366755765,626.736738639127 458.47626934060827,626.4431059274357 458.56443710590247,626.0441478732391 458.6777415679535,625.7326808670186 458.7990851129871,625.4623062781757 458.880000227713,625.2827745133545 459.4609113315819,624.2953474475653 459.73922087822575,623.8797491731821 459.97954867209774,623.5849560354254 460.3646673351759,623.1350058287499 460.8031759929145,622.7438221636112 460.93264600168914,622.6285615027882 461.5936566614546,622.0378547489527 461.97635777434334,621.6965001203935 463.10180022055283,620.6924615221214 463.1187230719952,620.6758644891088 463.41814977431204,620.381027586991 463.70860532624647,620.035281992401 463.9618655574741,619.6197163648903 464.16333778505214,619.2384614096372 464.3024779948173,618.9270256203017 464.7507151075406,617.5760695411591 465.1803399963537,616.1907143908902 465.7936404480133,613.7846869483474 465.80415533517953,613.7459062438575 466.059017557418,612.7805759221083 466.3818333297968,611.7587858775514 466.6091995591996,611.1004651538096 466.7734473387245,610.6682068116497 467.52588799991645,608.9525717313518 468.97251510061324,605.9402065560571 469.31397222413216,605.0912714489386 469.52840601606295,604.4506480690907 469.68047866306733,603.9319557605195 469.7816371200606,603.5506763116573 470.0154404408531,602.251744210138 470.0915204552002,601.5424058640492 470.14814355922863,600.3819960256806 470.0534804480849,597.1101715810364 470.10363733337726,595.7768107458251 470.216912668664,594.8579737791442 470.29214799636975,594.2871503581409 470.3625482241623,593.8537849222776 470.43859911116306,593.4381747365114 471.63846132624894,588.6067342188326 471.9181689743418,587.42631183099 473.01716400356963,582.7876430762117 473.65472733881325,579.7051241325098 473.75340999115724,579.2650689333677 474.4192848781822,576.3110761239077 475.22194067901,572.657681230281 476.07551067031454,569.0373928527115 476.2260104534216,568.4310332959285 476.340072220657,567.9987393144402 476.4282691129483,567.7216365940403 476.68799556267913,567.1851083275396 477.28183910402004,565.9890590702998 477.5472162134247,565.4869257410755 477.7495039999485,565.1410625031567 477.98980266670696,564.7597224750207 479.03269887994975,563.2011545272544 479.52544221887365,562.50838352344 480.0060395519249,561.6770158176078 480.208327338798,561.2269116098178 480.37254599120934,560.7934874898056 480.4809862260008,560.3944221562706 480.5311431111768,560.0131146205822 480.60719399817754,559.4943279013969 480.6832448854111,559.0952604441554 480.7585093405796,558.7150283641531 480.7763060053112,558.6345362535212 480.88471711298916,558.1441603434505 481.12256910221186,557.3947468833067 481.7552973369602,555.3983483219054 481.9834791253088,554.6800143774599 482.0521317264065,554.1722707259469 482.0724624497816,554.022577336058 482.0846084551886,553.3297802860616 482.0085575680714,552.4285026561702 481.8758253226988,551.5971006237087 481.69946066488046,550.9906977494247 481.59830220812,550.6969340252108 481.4462295608828,550.4198116660118 480.9785646649543,549.8998871285003 480.7763060053112,549.7010240810923 480.48582132626325,549.4154400191037 480.1217615643982,549.0917829994578 479.54970510222483,548.5840277254465 479.05049554491416,548.0640992781264 478.0812326684827,547.0386461205198 477.9380146631738,546.8867932825815 477.3635989050381,546.2282976225251 477.2268179912353,546.0531773868133 476.6709853298962,545.3447532916325 476.6175662081223,545.2760299390648 476.21304888895247,544.7738540052669 475.96060421701986,544.3581203536014 475.47354066488333,543.3537237671553 475.1580066703027,542.4358069536393 475.018837333424,541.8815431646653 474.89262956089806,541.2928360585938 474.82954023836646,540.8427740857587 474.7728588799946,540.0456950151129 474.7663926614914,539.4847209221916 474.7591108835768,538.7120224957471 474.77530555741396,538.5523820015369 474.85458955389913,537.7774855594616 474.8796679964289,537.5335539084044 474.94278644630685,537.1699308655807 475.03095421160106,536.7198612914071 475.15719111124054,536.2519907995011 475.66933310602326,534.6067541906377 476.4282691129483,532.2176831085235 476.5860215467401,531.5591478775023 476.62409068085253,531.1433917200775 476.6491691234987,530.7974798223586 476.6491691234987,530.4848535907804 476.59816755191423,530.1212200481095 476.50999978685286,529.7409428363899 476.3578980125021,529.2897420387017 476.12488112354185,528.6655629305169 475.89751489425544,528.1977169127786 475.7073731130222,527.8518008408719 475.53016376891173,527.5746525463765 475.30282666673884,527.2453389778966 475.1386080143275,527.0546793498215 474.076254890766,526.1887866170728 473.6086191217182,525.8761544829467 473.1539157902589,525.5834780778969 472.6797555484809,525.3063272077707 471.6449566720985,524.57565159566 471.0632300089346,524.1654712922173 470.5939339947654,523.8339579345775 470.4547937850002,523.7153378276853 470.00006132631097,523.3316979758674 468.64163111837115,521.8239140770165 468.07205046049785,521.0444942732574 468.000892928103,520.913699340017 467.6302504390478,520.2318243440823 467.35194089252036,519.6431049361126 467.15614845161326,519.0710279639461 467.0550191218499,518.62092501804 466.99187154497486,518.1530198344262 466.97896823473275,517.6164225271204 466.9724728888832,517.0099352335674 466.9975513316458,516.594154294522 467.07360221876297,516.196134285361 467.1617991111707,515.796996039222 467.26292844081763,515.4510623932001 467.3891653405735,515.1561383058433 467.54126711469144,514.826887810952 467.9765426632948,513.9088637190289 469.7783748835791,510.6536022890941 470.5704866704764,509.2909505990101 471.0106264462229,508.5336835398339 471.52521511819214,507.64664988283766 471.78167933167424,507.2054269730579 473.11587578326,504.66744174447376 473.3812528925482,504.00883218081435 473.482382222428,503.5242939859745 473.5454715449596,503.02199223358184 473.5454715449596,502.71044807339786 473.5333546666661,502.44987630372634 473.482382222428,502.1382914970163 473.3747575466987,501.86889765091473 473.24854977428913,501.5927975892555 473.02039711293764,501.24684381118277 472.9192677832907,501.1248996775248 472.7048339912435,500.89977188623743 472.4394860089524,500.60039950197097 471.99040420982055,500.09481858520303 471.25497378152795,499.2543768079486 469.48063755384646,497.22744526178576 469.37144001433626,497.063386772119 469.10119867743924,496.65643342462135 468.9749909050297,496.34376346168574 468.8487540053902,495.82484140858287 468.7540908942465,495.34807082050247 468.69097244448494,494.65502738545183 468.69097244448494,494.1006151709007 468.7290124516003,493.54624161456013 468.8171802170109,492.61037412378937 468.98142799641937,491.27648231369676 468.9563495538896,491.1378874387592 468.90540623653214,491.01701603800757 468.80424777965527,490.89614457724383 468.3309322241694,490.60226860287366 465.5743715557037,489.7008391674608 460.20283710595686,488.2815061856527 457.678565148497,487.650555816188 456.50369399471674,487.35695536324056 455.07002845872194,486.9985667314613 452.4404911218444,486.35875110002235 450.24136510596145,485.8220838877605 445.37795310956426,484.6400067192735 444.89330710773356,484.52248529391363 440.5080748941982,483.4136534881545 435.9189237760147,482.2537598100607 432.2311111111194,481.3210824946291 431.19223443919327,481.05841207155026 427.4178560000146,480.106967932079 424.7130542079685,479.4305277748499 419.5680995557923,478.1320528248907 414.144806229393,476.74594604602316 413.89399267570116,476.6849479054217 408.43184378312435,475.34318455756875 407.95852822763845,475.2239420739934 401.2066891094437,473.5245606881799 396.1636502186302,472.2426614424912 394.49696779390797,471.822372995317 391.0688233245164,470.95967759075575 388.51536600198597,470.3209377049934 385.67060844087973,469.61005816748366 383.6859162169276,469.1132756182342 382.3970415503718,468.79058997967513 380.1971291023074,468.24055030639283 375.098311793874,466.96856384305283 374.7107464533765,466.8721126499586 369.5034306559246,465.53915804915596 364.38273888709955,464.2738245265209 359.41333333344664,463.03623057267396 358.8210917831166,462.88879678415833 355.8363784534158,462.1379729654873 354.7505780054489,461.86629929137416 350.9041682203533,460.873779569054 349.5173973334022,460.5155915801297 346.4509824569104,459.7359759588726 343.5253097814275,459.0084974808269 340.66843534226064,458.24548512574984 338.87304021336604,457.8119180215872 335.57360844814684,456.9469373706379 335.1407504499657,456.8365888383705 333.5379437796073,456.4279315387248 331.1624531057896,455.8379004141898 325.76423822226934,454.4172925245366 325.62943795195315,454.3829180469038 320.32798333175015,453.03105103754206 319.44447067030706,452.79589783528354 317.7605158685474,452.3466707486077 315.6514508801047,451.78341898095096 310.8681384391384,450.5666821312043 310.0007913245354,450.34613894455833 304.77978578489274,449.02862480742624 298.50370889971964,447.4016846555169 293.49704977078363,446.1362570792553 289.12719667190686,445.02613292611204 288.7194171163719,444.9230055094813 288.3860573298298,444.837565030728 287.98154001077637,444.7333196210675 287.7064344462706,444.12780901876977 286.72822954680305,441.977327926259 286.59555555554107,441.70000224228716 286.35525688901544,441.1976530732936 285.7864626632072,440.03763857035665 285.470113109448,439.55297334329225 285.2557084445143,439.2579575193813 284.94099000899587,438.8885983231012 282.72732956451364,436.2956019701669 281.3114315662533,434.49333668663166 280.63987689255737,433.70700998953544 280.26201088004746,433.26337751513347 279.5735042275628,432.30955098907 279.10583933163434,431.7028516540304 278.34774801076856,430.88880610925844 278.1454310970148,430.62815763853723 277.981212444487,430.35085898282705 277.8226153245196,429.90055244538235 277.5192273352295,428.6528420401155 277.3800579982344,428.2712886961526 277.24091778870206,428.046133612399 276.96257911482826,427.7167256406392 276.63408355554566,427.38731722411467 276.3120542152319,427.07567648857366 275.768367559067,426.59206358139636 273.4357811199734,424.478082566231 269.8142908872105,421.2371604589862 269.67407297424506,421.1107441789936 268.68159579019994,420.2156064347364 267.1410628835438,418.82921055029146 263.65798468259163,415.76127105008345 263.17735822242685,415.3452776368358 262.8367457850836,415.03362151933834 262.5332995415665,414.84287420270266 262.32297267206013,414.75686416431563 261.1360428943299,414.27162961970316 260.1384393387707,413.80356424406637 259.50655579019804,413.4408349219011 259.16509866679553,413.19793694699183 258.9118384354515,412.9383876353968 258.6593937636353,412.5734608362545 257.70469444268383,411.1015692304354 256.9085631147027,410.0090150978067 256.51616267382633,409.5930917385849 256.16258867201395,409.2991178308148 255.85917155561037,409.12497745564906 255.40933245164342,408.8643057329464 255.03068000706844,408.72566404164536 254.60023955919314,408.60475181083893 253.7790006614523,408.3795785768307 251.40921890141908,407.8604694250971 250.1834335573949,407.5842629747931 249.43745911470614,407.35908879886847 248.99487266142387,407.13283626094926 248.14776888885535,406.6303759830189 247.37671600363683,406.1622560150572 245.8281148871174,405.0541861563688 241.85305065254215,402.141330848448 241.64109266502783,401.9838372076629 239.62162267044187,400.4785778208752 238.67336044088006,399.6289277729811 238.1426353494171,399.0398773988709 238.05036066146567,398.92467078351183 237.8513642383041,398.67604793357896 237.67497045337223,398.38098267745227 237.56087955913972,398.12141760165105 237.44678866502363,397.6710915065487 237.37152420985512,397.13311106467154 237.33997954858933,396.71820401982404 237.36750466865487,396.5052394272061 237.39095199294388,396.3199884329806 237.44110887811985,396.0593030276941 237.51715976535343,395.8685408750898 237.70651511487085,395.4880543941981 237.97835844266228,394.98445199010894 238.05036066146567,394.8516726564267 238.30685400182847,394.37881790689426 238.42094489606097,394.0848256647587 238.44602333870716,393.87629142566584 238.44602333870716,393.6511045967927 238.40798333159182,393.33942076395033 238.21865710953716,392.61170435353415 238.07948777254205,392.2822884681518 238.05036066146567,392.2394392119604 237.90230755566154,392.02159874816425 237.57384112349246,391.7797576682642 237.12560401065275,391.51906741119456 236.62071466678753,391.29387840634445 236.38851333688945,391.22618988133036 234.64170222950634,390.72150045249145 231.69016467919573,389.993776232237 230.4376989013981,389.6621204800904 229.40287089778576,389.38705152628245 229.20061223837547,389.28274248656817 229.12450309703127,389.05866958590923 229.08652134414297,388.7635926968651 229.02986911311746,388.0736009819084 229.01003355020657,387.83399233646924 228.94088578852825,386.99647840164835 228.81464888888877,386.54609183437424 227.9740113351727,384.20656823477475 227.3291662223637,382.52484332589665 227.1908415715443,382.2474899883964 227.00069979031105,381.97017627127934 226.83642288367264,381.74609665363096 225.71747578319628,380.37605557666393 223.73033688182477,377.8778453767882 221.7925975609105,375.57813550677383 220.6744368923828,374.2546662898967 220.28040533338208,373.741035773186 220.10645822586957,373.4758932146942 219.98753223125823,373.2551205798518 219.8532271218719,372.849118863116 219.7213395627914,372.33105234301183 219.5991513315821,371.9749708312447 219.4648462223122,371.63550277770264 219.29413222405128,371.28377343848115 219.10725267918315,370.99650280707283 218.7026771059027,370.5316292763455 218.37744378321804,370.2476326483884 218.00284000718966,370.0135578341433 217.58209888706915,369.7384667228325 216.93809846043587,369.4000339397462 216.53757155570202,369.17933749151416 215.93560155038722,368.9064020856167 215.3198835485382,368.65012049349025 214.67020333511755,368.37946096016094 213.77777777786832,367.8742050649016 213.5002546631731,367.7171286176308 213.17822532262653,367.50409876642516 212.81984534766525,367.20679920265684 212.2874600107316,366.72977722215 211.93225489067845,366.3869470511563 211.19921288522892,365.6436940585263 210.50179333693814,364.88598104624543 209.5203844550997,363.8086761928862 207.73876644973643,361.91605243703816 207.35527890489902,361.4678561487817 207.27273267216515,361.3713632383733 206.97662646044046,360.9064713631524 206.62788755935617,360.2985160635435 206.4733391077025,359.9612284236937 206.36495712713804,359.64950154029066 206.25002154672984,359.2534620448132 206.16832000005525,358.95607254549395 206.06637511122972,358.469089468068 205.96443022228777,358.03642337897327 205.88511709868908,357.53605864790734 205.8390380089404,356.9735464969999 205.84873733692802,356.27016484417254 205.9175064463634,355.6089179405826 205.93690510233864,355.4192424741923 205.99032422411256,354.93660581461154 205.99355733336415,354.6392909323913 205.98822707205545,354.55274044099497 205.97092556813732,354.2742769077304 205.90777799126226,353.8914888812578 205.7929006649647,353.5176069661393 205.66182866494637,353.2324721944751 205.52027090499178,353.0350064843078 205.16183267568704,352.6245377070154 204.2653293227777,351.71253328298917 204.19982244970743,351.64599205419654 203.9133864393225,351.35414504574146 203.69009800534695,351.0923331787344 203.58165777067188,350.8804470914765 203.5161217706045,350.6862945696921 203.47001355397515,350.4565944826463 203.43037155573256,350.0150472809328 203.36160244629718,349.2572457744973 203.3227760072332,348.8611894042115 203.26935688522644,348.6226605901611 203.17714045150205,348.3885650218581 202.99591156630777,348.0800985340611 202.80655621690676,347.87260337691987 202.57595687825233,347.68515861051856 202.11155421868898,347.29904510389315 201.07672621507663,346.3747986422386 200.5104077939177,345.8256412098417 200.1131139982026,345.43952475924743 199.8153766685864,345.0633931469638 198.9998175575165,343.9561640790198 198.50625865964685,343.203895699 197.73843888367992,341.9889737708145 196.68094998772722,340.26038470637286 196.25784957164433,339.5613884917111 196.01510422758292,339.15305394749157 195.77238801075146,338.6049986537546 195.4503586703213,337.8638179155532 195.05874466139358,336.85301886789966 194.48593089415226,335.2408683996764 193.3345944462344,331.985459109419 192.91064934397582,330.7804673287319 192.6913804516662,330.12470356264384 192.47211155924015,329.3835369957378 192.2601244444959,328.57801760022994 192.15817955567036,328.13639084185706 192.12663489417173,327.878987901262 192.15008221869357,327.6537401333335 192.24392977065872,327.49172458576504 192.40899310947862,327.3097365790745 192.67521490494255,327.0833698324859 193.20107576879673,326.77160092355916 193.59347620990593,326.5463521327474 193.82002688001376,326.38545430544764 194.01663488009945,326.1824544623378 194.2043591112597,325.9671514138463 194.36942244984675,325.65538107790053 194.5878757830942,325.0961507772445 194.8233102222439,324.47252758947434 194.98752887488808,323.9565952355042 195.11376577417832,323.4506081790314 195.29417910054326,322.73047258367296 195.57575088366866,321.5809595225728 195.65424844808877,321.26694662030786 196.07012534048408,319.6025236877613 196.42288378311787,318.19438433495816 196.59441334044095,317.46540508186445 196.71898999484256,316.9394313559751 196.7667584568262,316.7341866490897 196.94554066495039,315.9873868661816 197.05153422232252,315.51909290166805 197.1194877724629,315.12298173701856 197.14214866491966,314.7589871266973 197.1267695503775,314.4161637867219 197.08147689257748,314.16645610763226 196.99004689080175,313.8746441383846 196.78615711303428,313.31426830531564 196.247305557481,312.0037635935587 195.88321666850243,311.09831840812694 195.7691257741535,310.7754236817709 195.68579310947098,310.494673100824 195.64050045167096,310.2039752677665 195.63237398769706,309.9653287458932 195.67851133155636,309.6846571274218 195.8678666810738,308.7691365001956 196.32335644448176,306.98921842174605 196.6421235485468,305.5855203854153 197.1882860090118,303.34840737766353 197.5215875414433,301.9868344265269 197.62032844813075,301.6028457501088 197.68100022047292,301.3010315046413 197.71904022758827,300.97808385593817 197.71172932279296,300.75948273052927 197.6356784356758,300.4687732915627 197.47629488364328,299.91727532062214 197.15752777957823,299.0738665218814 196.57335443934426,297.52470647759037 196.23920822050422,296.6403009847854 196.16397289256565,296.42169597069733 196.15992422401905,296.399483900459 196.1332146631321,296.2451978466124 196.11058289778885,296.0265924782143 196.125962012331,295.7979994476191 196.1939155627042,295.5583001287305 196.38405734405387,295.1421815518406 196.67937712359708,294.62171273160493 197.31691133149434,293.4675527798827 197.6955637759529,292.83282240340486 197.94637732976116,292.4999158876017 198.15111179393716,292.33344248408685 198.37844889599364,292.19805042404914 198.77326688717585,292.0215891932021 199.1527057636995,291.86626165604685 199.51682377955876,291.73082938598236 199.78948266676161,291.59543699148344 199.9715271112509,291.47003216599114 200.12284245330375,291.3357582432218 200.26766244973987,291.16928404488135 200.4035986774834,290.960701741511 200.52494222228415,290.73206401075004 200.69970488885883,290.1284082343336 200.9820631040493,289.33378561231075 201.5346917831339,288.13086026511155 201.60456772288308,287.9765689789783 201.78468977776356,287.5792944364948 202.00474510225467,287.1320801435504 202.16415778140072,286.83020803460386 202.26286956097465,286.58051205566153 202.31544399645645,286.34080367546994 202.32354133331683,286.1021737490664 202.30090956809,285.7892337977537 202.24017954140436,285.2587571145268 202.16010911297053,284.6971968677826 202.14877866674215,284.61513609153917 201.95945244457107,283.8760285382741 201.81544800719712,283.3044771285495 201.70135711308103,282.5653656021459 201.63340356270783,281.9305668922607 201.5872662187321,281.29576652962714 201.5872662187321,280.8496194239706 201.60992711118888,280.47454679210205 201.65521976887248,280.03726762748556 201.7158915414475,279.7043036883697 201.88258599827532,279.05954933015164 202.10348600894213,278.3415199762676 202.2321113315411,277.8843005388626 202.33082311123144,277.540226765268 202.3987766613718,277.1041009731707 202.40608756628353,276.7911095197778 202.3987766613718,276.53253368870355 202.33003667928278,276.2928154297988 202.1787213368807,275.97095334366895 201.73858156090137,275.35723276331555 201.29116000724025,274.60703007044503 201.02578289771918,274.0865174139035 200.8283302115742,273.63923841831274 200.68432577420026,273.2641147405375 200.57107956625987,272.88012078159954 200.47964956448413,272.4950075146626 200.41894866491202,272.05883274396183 200.33564512711018,271.24645165738184 200.32105244451668,270.78921891446225 200.34371333685704,270.50842228904366 200.4197642240906,270.2897938445676 200.5257286542328,270.164378060319 200.7304631184088,270.03009240399115 201.14794200181495,269.8736321409815 202.57680156454444,269.47409066651016 202.74670000362676,269.40189345221734 202.92795801593456,269.3153127026744 203.19817022583447,269.13551870849915 203.381816661451,268.8913982063532 203.52019956626464,268.6571861298871 203.6382808748167,268.30650686321314 203.69088443752844,267.8836294283392 203.71031222050078,267.38755458634114 203.73055556276813,266.8015409061918 203.76291578321252,266.5129884831258 203.84217065246776,266.2144470401108 203.99998134048656,265.7271988114808 204.2232989013428,265.22220964427106 204.37458511663135,264.7083494300023 204.49269555218052,264.1134992422303 204.55823155213147,263.5363477363717 204.578474894166,263.03135403135093 204.53880376880988,262.3821205365821 204.46680155035574,261.9036947970162 204.33491399127524,261.40760778734693 204.1771615574835,260.90376838482916 203.96680556098,260.3632486356655 203.69088443752844,259.76830793439876 203.42795400542673,259.30881613725796 203.02096088184044,258.63292210758664 202.81870222231373,258.3321334787761 202.5775879964931,258.05132250557654 202.1787213368807,257.61292430671165 201.85267245513387,257.2699406967149 201.4885544392746,256.89483178785304 201.19323465961497,256.63511607819237 200.91976021334995,256.4586291065207 200.64713045326062,256.3021601337823 200.23771977960132,256.1045759579283 199.92623445333447,255.9692037345376 199.8048617814202,255.8859345964156 199.75225821870845,255.72946525603766 199.73687910404988,255.47969746706076 199.75953999650665,255.1156537636416 199.8244060728466,254.68168546893867 199.88088354142383,254.3043350043008 199.92623445333447,253.89809523930307 199.9496817777399,253.42972196650226 199.95699268288445,253.1178189108614 199.94886621867772,252.8680884030182 199.89626265596598,252.56621382379672 199.78223001596052,252.1921765168081 199.66813912196085,251.76707349019125 199.60746734938584,251.38188691384858 199.5467373227002,250.8202885899227 199.36472200544085,249.1864716372802 199.1147240108112,247.14639271906344 198.92536866141018,245.88771752489265 198.8574151112698,245.5758447778062 198.76598510949407,245.34608561202185 198.65189421514515,245.15964088466717 198.462597120204,244.981986817671 198.0984791041119,244.74335636460455 197.19553865958005,244.32715105009265 195.45114510226995,243.52574603562243 193.66145888715982,242.6833408959792 192.82728755217977,242.28703146614134 192.62179578316864,242.16276007634588 192.4098086685408,242.01623163936893 192.15171333681792,241.76644980011042 191.79572178493254,241.3502394031966 191.21073288540356,240.49779705464607 191.0287175680278,240.25916221208172 190.7859722240828,239.96718185493955 190.5513533439953,239.73857621569186 190.17185621336102,239.37446904578246 189.50519489415456,238.82782776100794 187.926651107613,237.53302626602817 187.44040311477147,237.08572016085964 187.24376598768868,236.8559529929771 187.11435423302464,236.6484031251748 187.02371066319756,236.42974431317998 186.88698800373822,235.98239622375695 186.68228266667575,235.17101378494408 186.5908526649,234.73361339437542 186.3861764551839,234.10983896034304 186.28746467572637,233.81789119762834 186.23486111301463,233.58923983137356 186.20410288358107,233.2972914452548 186.20410288358107,232.74564150749939 186.2502402276732,232.23610846389784 186.2955328853568,231.88202013383852 186.39424466493074,231.49684209632687 186.46950912009925,231.2604362271377 186.55362821684685,230.99733652494615 186.94687334401533,229.84295525262132 187.56174665957224,228.1568486621254 187.7818602384068,227.59515686909435 187.92586467566434,227.21992237359518 188.05448999837972,226.96017504675547 188.30530355207156,226.53394906414906 188.61600244627334,226.13769330072682 188.9946548907319,225.69032632332528 189.12412489950657,225.55489724781364 189.18479667208157,225.4406076776213 189.20745756465476,225.28403887152672 189.26812933688052,224.63914056954673 189.37412289413624,224.04746945312945 189.41213377425447,223.73444983561058 189.43561022588983,223.44356861291453 189.43561022588983,223.21494747686666 189.41297846043017,222.76645620394265 189.35224843397737,222.35021336458158 189.1917289244011,221.3822541977861 189.06423955922946,220.61294331011595 188.77459956647363,219.18656872212887 188.65319776709657,218.64595646545058 188.56986510229763,218.37616940052249 188.43314244272187,218.06314250011928 187.8870091093704,217.0751849251683 187.78911288897507,216.83428923407337 187.73572289419826,216.5434397396166 187.70496466499753,214.89940225158352 187.64429289253894,213.90032205887837 187.61353466310538,213.58840838371543 187.5528628907632,213.31753670977196 187.3861975610489,212.8812560433871 187.17421044630464,212.31845003314083 187.08280957164243,212.01648526999634 187.03745865961537,211.7467707946198 187.0220795449568,211.46590615191963 187.06011955207214,211.18392220081296 187.13617043930572,210.99741137836827 187.3109331058804,210.77872955508064 188.19849443575367,209.85180738236522 189.50519489415456,208.45038739970187 189.5472835698165,208.40530779678375 190.07072688359767,207.76144387206296 190.38224133686163,207.33406531449873 190.60960756638087,206.96994970180094 190.83694466855377,206.5547589273774 190.98826001072302,206.23172570829047 191.09422444086522,205.93970458873082 191.18565444275737,205.63893086230382 191.2309762276709,205.29475510382326 191.2382580053527,204.90953505027574 191.20831533509772,204.6708653641981 191.12579822936095,204.37780328840017 191.00442555744667,204.05584623652976 190.83694466855377,203.77497273124754 190.67027933860663,203.56627567403484 190.47282665246166,203.35869745863602 190.28352955752052,203.26430006779265 190.01815244811587,203.1810928536579 189.57073089422192,202.98342565027997 189.50519489415456,202.94493927567964 189.0925802383572,202.7025509090745 188.6677904498065,202.34845963865519 188.15966799657326,201.9221906164894 187.2494457742432,201.01629652967677 186.93391177954618,200.70540546812117 186.81658777594566,200.58998521219473 186.5212679966353,200.24692135880468 186.29390176699962,199.95497299963608 186.12645000533666,199.6740947685903 185.99051377782598,199.38326476200018 185.89180199836846,199.07129254291067 185.8157511112513,198.65496927086497 185.71703933144454,198.16542782570468 185.61832755210344,197.82236055948306 185.49698400718626,197.57257339474745 185.32222134049516,197.32278597401455 185.01152244629338,196.94750487187412 184.42006732802838,196.2914209946175 184.0179675592808,195.74080635339487 183.82057312736288,195.43882105132798 183.68379221332725,195.11573313269764 183.57054600538686,194.77270153997233 183.4944951183861,194.4074880660628 183.4265415680129,193.99111686093966 183.418415104039,193.48158272961155 183.43379421869759,192.75215053383727 183.47911600372754,192.2647954080021 183.5551668907283,191.75521770084742 183.60855688538868,191.3388819313259 183.63043134578038,191.0480419783853 183.59239133866504,190.86039666860597 183.49367955932394,190.714956466516 183.34964599483646,190.5584452864132 182.74287001613993,190.00665864400798 182.32536200538743,189.60031170625007 182.06805310584605,189.30946967878845 181.80188956460916,188.98641360201873 181.60528156463988,188.673348953831 181.4232371201506,188.33026832609903 181.29650505969767,188.07823325134814 181.25575623114128,187.99717909982428 181.0510217671981,187.6330745650339 180.83906377956737,187.3310792168486 180.5429575680755,186.97692564566387 180.22413220989984,186.6649375455454 179.82284800021444,186.23860112420516 179.39808733866084,185.86334292194806 178.53318690136075,185.02069850364933 177.84302000375465,184.37569365953095 177.20545666851103,183.7295280295657 177.00075133168139,183.50078970217146 176.77338510227855,183.17776589398272 176.55332977778744,182.82468543370487 176.4093253404135,182.61597043607617 176.257223566412,182.42831863398897 176.03713911480736,182.21073029312538 175.6657684482634,181.80437035684008 175.4149548941059,181.50348690670216 175.21022043027915,181.21151609398657 175.0282051130198,180.93061626073904 174.79358623293228,180.5453576957225 174.6261053440394,180.12900277599692 174.46669266489334,179.70265492086764 174.34534912009258,179.28633853024803 174.28464822040405,179.02654011530103 174.23932643572334,178.6423577053356 174.20131555572152,177.76751310337568 174.2086264604004,177.03919298422989 174.24745289969724,176.2797744515119 174.24017112189904,175.97776503412751 174.1940337778069,175.75905178667745 174.08804022043478,175.65469128463883 173.89064578851685,175.56144228047924 173.29187976534013,175.36383261380251 172.87440088193398,175.18612766766455 172.62443201430142,175.04071808076696 172.47227198584005,174.89526843756903 172.33557845337782,174.71764308901038 172.2675957760075,174.51999276847346 172.2223031183239,174.26018927217228 172.24493488378357,173.6994924134342 172.32098577078432,172.78242171689635 172.3509284410393,171.7409603287233 172.37035622401163,171.43007189035416 172.37361846037675,171.37567236833274 172.43429023295175,170.99151786707807 172.50224378309213,170.5951318209991 172.5710128925275,170.27317010809202 172.60095556278247,170.00225028867135 172.60905289964285,169.73133016814245 172.55563377775252,169.47152156656375 172.36630755569786,168.7942591960309 171.77485243743286,167.0877447327366 171.37275266845245,166.2860857123742 171.15269734396134,165.89085117611103 171.03939288191032,165.64099130989052 170.9860028871335,165.4333408183884 170.97872110945173,165.14135075174272 170.9860028871335,164.66281405033078 171.04504354135133,163.95551973569673 171.12115268281195,163.39367996307556 171.13647354312707,163.07062950154068 171.11384177778382,162.84187178267166 171.03050911298487,162.70644775149412 170.88650467561092,162.57098367332947 169.53611355030444,161.78042196494061 167.8144100124482,160.62455361540196 166.6541606684914,159.70855293393834 165.71399577590637,159.04233575292164 165.358004224021,158.84467271814356 165.23258288379293,158.77496098482516 164.79649177589454,158.5326885728282 164.49307465949096,158.34501822496532 164.32640932989307,158.22066405543592 164.21960021322593,158.06409203272779 164.15892844100017,157.8775405533379 164.1443940125173,157.60664692532737 164.1443940125173,156.9393047640915 164.18077377416193,156.41966000653338 164.23419289605226,156.01329703407828 164.3329046756262,155.42034005059395 164.3781973333098,155.07617330917856 164.38515871297568,154.7697006110102 164.3854791112244,154.75415111862822 164.34828379028477,154.49320730363252 164.21881378127728,153.67156023957068 164.18077377416193,153.31735774880508 164.18077377416193,153.0164391238941 164.21881378127728,152.73438753542723 164.36281821865123,152.1103632253944 164.49957000545692,151.40191321645398 164.56755268282723,150.7889981660992 164.60553443571553,150.34157280356158 164.60553443571553,150.06063738436205 164.58287354314234,149.76858892297605 164.4914435413666,149.46766591549385 164.14276289427653,148.70704218302853 163.64192221860867,147.5933245398337 163.46797511121258,147.07254057237878 163.34663156641182,146.62502843682887 163.25598799658474,146.25086848583305 163.22522976715118,145.98991556471447 163.24060888192616,145.751188168535 163.2859597938368,145.48024108452955 163.55940511298832,144.79287840111647 164.05858554318547,143.60590901132673 164.40811087656766,142.86741309828358 164.60474800376687,142.4399606953375 164.77222889254335,142.00355312449392 165.09827777417377,141.02416166634066 165.1055886792019,140.99973679234972 165.21962131932378,140.61773304309463 165.23258288379293,140.5235511980718 165.24959311657585,140.4001073661493 165.24959311657585,140.16025518235983 165.23258288379293,140.11548274866072 165.15088133700192,139.9004150502151 164.76413155568298,139.13976145209745 163.86119111115113,137.32866238069255 162.51164467202034,134.82124435313744 161.87405220989604,133.63414643349824 161.5099924481474,133.05120907886885 160.97923822933808,132.17612082808046 160.20492310763802,130.92796530475607 159.9249824428698,130.4482420522254 159.59083622402977,129.98075083404547 159.34812000731472,129.63646820379654 159.120782904909,129.3655431768275 158.24128978489898,128.501595354639 157.82136422395706,128.0614849004196 157.42168200551532,127.64763882837724 157.11101223831065,127.27340975718107 156.78493422933389,126.8569238272612 156.5349071075907,126.49272792576812 156.22339265432674,126.00300151424017 155.92000466492027,125.51327411818784 155.5559157760581,124.84696343471296 155.3204522097949,124.41164373490028 155.1465342293959,123.99523286899785 154.94911067024805,123.45329001202481 154.5696426667273,122.37056005228078 154.2890320783481,121.45661436562659 154.26625467743725,121.3821744757588 153.9247975538019,120.27836656646105 153.62138043739833,119.28885309572797 153.3487215503119,118.35158811492147 153.27998156810645,118.06066103518242 153.1958042170154,117.91405796259642 153.0671788943,117.78964317782084 152.23382311826572,117.23773171030916 151.4902662257664,116.81127380038379 151.18687823647633,116.59250743931625 151.00480466487352,116.44702290307032 150.86080022761598,116.24932531057857 150.72404844104312,115.99949449358974 150.6203559252899,115.70096851995913 150.55741223832592,115.51974184642313 150.16174956096802,114.18706399440998 149.84298245690297,113.31306740047876 149.64634532982018,112.77333965461003 149.1301837938372,111.55506978713674 148.86154444818385,110.94093504687771 148.33402333874255,109.73261113051558 147.325089336955,107.46375419094693 146.97635043563787,106.75517435237998 146.81696688372176,106.37983370333677 146.65758333157282,105.96335203573108 146.53623978665564,105.57797492149984 146.43021710217,105.15141663904069 146.20209356816486,104.10974610014819 145.8533546666149,102.66265866393223 145.7012528926134,102.00744036171818 145.59525933512487,101.67423311201856 145.42856487829704,101.26889831270091 145.14766301878262,100.64126375259366 144.77643798757344,99.78956850536633 144.54184823471587,99.24869129952276 144.05557111476082,98.28020304255188 143.62352867564186,97.4783176005003 143.10002710751723,96.4899109962862 142.56927288905717,95.63580227387138 141.91714599833358,94.55402821669122 140.96000000007916,92.8881763354293 140.95353378145956,92.87698105582967 140.19459777430166,91.47092980530579 140.00527155201416,91.10664101794828 139.83050888543949,90.75234755908605 139.7245444552973,90.430240340007 139.67919354315381,90.20141440920997 139.66387268272229,89.89933826168999 139.7091653405223,89.54504304687725 139.77790532284416,89.24292610172415 139.86854889267124,88.9619202214526 140.05784598761238,88.49326982453931 140.23033673968166,88.13893258071039 140.39205046056304,87.80686589650577 140.96000000007916,86.65352541371249 141.07409089431167,86.42185705684824 141.47619066305924,85.53660521365236 141.99156576709356,84.30936254700646 142.17363933869638,83.84062322980026 142.53044644999318,83.06983837881126 142.68173266481608,82.61109288351145 142.81117354671005,82.16350231185788 142.93254621862434,81.5070693064481 143.06120066845324,80.49748572619865 143.1518151111668,79.91322165483143 143.22058422036935,79.66331358620664 143.29584867565427,79.4767420514836 143.45523222757038,79.24678624043008 143.92528554669116,78.67479471006664 144.0094337706687,78.59706293669296 144.3508617671905,78.27933805377688 144.6850079857977,77.96725072449772 145.22307310940232,77.5507604641025 145.68505821865983,77.22751618840266 146.0184180054348,76.93653999327216 146.27651333692484,76.64440386224305 146.48118954664096,76.3323144382448 146.63250488904305,75.99911205348326 146.71665311290417,75.7280473987339 146.77732488547917,75.34262244973797 146.815335765481,74.94720036984654 146.815335765481,74.50067534222035 146.8080831146799,74.13528154772939 146.79270400013775,73.83426510560093 146.8226466702763,73.57327459234511 146.8833184428513,73.32443965080893 147.08074200188275,72.80349689949071 147.31617644103244,72.29370927374111 147.35421644814778,72.10597248421982 147.3315555555746,71.92935181991197 147.24740733159706,71.75165138876764 147.0508284587413,71.54392086016014 146.59528044098988,71.1996356092277 146.32908777252305,70.9608349148184 145.98037799831945,70.5542893895763 145.85102449788246,70.39786095131421 145.6615817671409,70.16881626716349 145.47956644976512,69.84560218214756 145.2141893405933,69.34576513047796 145.04021310573444,69.0014767725952 144.98763867025264,68.80370068526827 144.97954133339226,68.5960076295305 145.0329604552826,68.31501791725168 145.48038200906012,66.44005208148155 146.0184180054348,63.80638229136821 146.12359600374475,63.35875716450391 146.29835867020302,62.77673130313633 146.58639667206444,62.01695652981289 147.0265364481602,60.996135408524424 147.49015267565846,60.02637537341798 147.95213778491598,59.09999920689734 148.46104667021427,58.152465420076624 148.9610426594736,57.34049061371479 149.37852154311258,56.75733067712281 152.27329035382718,57.51088358135894 154.49682488897815,58.09028276143363 157.75824577419553,58.94340345740784 161.0095012979582,59.781365495349746 164.5826696533477,60.704539996688254 165.13955089077353,60.84837831463665 165.23258288379293,60.872611283906735 168.78172137239017,61.79642146115657 180.83338399301283,64.87161801790353 186.39182711474132,66.29453759023454 189.50519489415456,67.08572910056682 190.97203620988876,67.45861109805992 194.2642444516532,68.30274185456801 197.25300644966774,69.05254024500027 202.2822682169499,70.35991344437934 202.56547111843247,70.43320930859772 203.3429902222706,70.59203693229938 204.9959829049185,70.97858902672306 208.1360311184544,71.71610328962561 213.2405282133259,72.89238673401996 213.77777777786832,73.01942356658401 225.24721857428085,75.73184606462019 234.1044526649639,77.83733750839019 234.15705622767564,77.84841352247167 237.76640045514796,78.62033448874718 238.05036066146567,78.68635051161982 245.30627356434707,80.37305183126591 246.4834748870926,80.64739009953337 257.3745968925068,83.1664415212581 262.32297267206013,84.34586843731813 265.767253560829,85.16678970359499 268.2050179982325,85.7488020529272 278.27038640354294,88.13893258071039 279.6875951217953,88.47543702129042 284.3584477866534,89.61393493396463 286.59555555554107,90.21656818618067 292.2754296036437,91.74657502531772 297.2552917903522,93.0957687140326 303.2457482240861,94.71731819218257 309.0818309689639,96.30231280130101 310.8681384391384,96.78722105390625 313.37711866316386,97.4683619858115 325.7553544534603,100.81906305608572 328.6283944392344,101.59091123758117 335.1407504499657,103.3383456946467 338.1562220089836,104.14756840618793 338.87304021336604,104.34187741193455 350.48022311832756,107.48150564270327 359.41333333344664,109.92919456138043 360.00073978304863,110.09023533394793 360.2798648888711,110.16683761042077 363.87546112015843,111.18193544080714 370.1555575467646,112.95212960033678 380.85010067920666,115.95507743401686 383.6859162169276,116.73943114106078 386.79605088720564,117.59978257579496 391.3503951076418,118.68473257694859 393.3593793422915,119.16447899176273 396.74782355932985,119.97296950011514 397.92263645865023,120.25501903623808 402.9344219592167,121.45661436562659 407.95852822763845,122.66116215958027 408.47876755928155,122.78585430426756 412.6819844550919,123.78978565603029 414.5763535075821,124.24165735760471 415.7403311219532,124.51158863329329 421.0948553386843,126.03074604086578 422.8626962205162,126.49936421163147 429.5748642133549,128.27948139427463 432.2311111111194,128.95889521983918 439.10106066497974,130.7158477898338 440.1738995485939,130.99352740921313 444.55429666140117,132.1239512375323 449.6159477761248,133.43098600773374 454.31432556081563,134.63579441455659 456.50369399471674,135.19702090352075 459.52968044090085,135.97275778936455 462.40274955390487,136.71015527262352 478.8280226702336,140.88976486609317 480.7763060053112,141.38605726259993 480.89441644086037,141.41611859796103 485.7926062081242,142.64315358444583 488.9683060053503,143.43821459059836 493.53071843553334,144.58081293059513 498.2242319928482,145.7967190813506 505.04888888902497,147.56726138334488 506.5319540053606,147.95197247702163 517.2588282310171,150.70133595797233 517.3243642310845,150.7179649976897 520.6699333405122,151.57515847461764 529.3214717726223,153.8360897398088 532.1378886542516,154.57207408349495 532.8883195450762,154.7697006110102 540.7506297742948,156.8404924001079 540.9327033456648,156.88825970888138 541.898733112961,157.14364476822084 545.4854164482094,158.08855516870972 548.6910006614635,158.91906119155465 553.5940837831004,160.18965757876867 555.8465706666466,160.77336942462716 556.0836362239206,160.837724339508 559.4259722239804,161.7548399879597 563.9236933403881,162.94068171310937 566.6284660054371,163.55580460641067 570.3478233315982,164.5062461667112 575.5729066666681,165.8752624221379 576.0130464428803,165.99073909129947 577.8666666666977,166.4805050548748 582.4679637902882,167.6961820232682 590.1987651130185,169.635840546689 593.9577935646521,170.63957889191806 598.0679202133324,171.7365236362093 600.7840233244933,172.46266124839894 601.4118873315165,172.62366069672862 602.1392495502951,172.81072049809154 606.5956975503359,173.9570981664583 607.7017413404537,174.24020437640138 607.7664617813425,174.28792830486782 607.7664617813425,174.38673359446693 607.7470339982538,174.50664287252584 607.6507397688692,174.74094543175306 607.5844173368532,174.90194337506546 606.5407055644318,176.76052662701113 606.2146275556879,177.3844478482497 605.9492504462833,177.90516704006586 605.7445742365671,178.35262173542287 605.5738311111927,178.78448768123053 605.4338753422489,179.2797036819975 605.3197844481329,179.75821168185212 605.2518308977596,180.29443369671935 605.1911299984204,180.90171889180783 605.1757800107589,181.29812814301113 605.1514880001778,181.7333062600228 605.1005155557068,182.64035117079038 605.0244646685896,183.25434519728879 604.8731784534175,183.96266264398582 604.6304331094725,184.62881170149194 604.2663442204939,185.37817225890467 603.9022553315153,185.97105635365006 603.3253928959602,186.7526667531929 602.7946386775002,187.3976653063437 602.3318088818341,187.9916635794798 602.2730594986351,188.07823325134814 602.1392495502951,188.27563277137233 602.0284208925441,188.43905978894327 601.5890966756269,189.16734584065853 600.7775862329872,190.7382972467458 600.4215655538719,191.33220744412392 600.1027693226933,191.76856665179366 599.7459913386265,192.15376750892028 599.6060064426856,192.24928827461554 598.7143964444986,192.86097998952027 598.5849555628374,192.95086516998708 597.8446317795897,193.46271847595926 597.3915304392576,193.77685606997693 596.8187166721327,194.17320441338234 595.749081770773,194.90594956785208 595.5217446684837,195.12020936614135 595.2644648959395,195.41659977816744 595.037127793883,195.74412355344975 594.7830520037096,196.23814607493114 594.5136262258748,196.8842785420129 594.27492955036,197.58592202723958 594.1689359929878,197.92003726260737 594.0815546595259,198.20643280434888 594.0815546595259,198.39854863169603 594.1382068907842,198.54398424859392 594.2522686577868,198.68386453500716 594.4416240071878,198.78817521041492 594.821062883595,198.85591717687203 595.283892679261,198.92030200199224 596.5144839965506,199.091275402694 597.2046508941567,199.18783255765447 597.7799113387009,199.281112488301 600.6828939948464,199.7507088543498 602.1392495502951,199.98274907347513 603.5543611166067,200.20807486219564 606.914493781398,200.72874529170804 607.9760022186674,200.89416223019361 614.2019222186645,201.90436611277983 620.3081006649882,202.83915167022496 626.4118615608895,203.81194030697225 626.7095988906221,203.85937869054032 629.7453137921402,204.3222521392163 633.2543151217978,204.85738102800678 635.0342728819232,205.14264940586872 639.7463986632647,205.89870091085322 646.0046788834734,206.8544924481539 650.6844444443705,207.57249260670505 654.9111086650519,208.22103284444893 655.5680997832678,208.3220623737434 658.7518677903572,208.8316054448951 661.7171533369692,209.30673841253156 664.9810208996059,209.83070641412633 671.4423753387528,210.9108498468995 674.9570273280842,211.4799733699183 680.4305066666566,212.36728548503015 686.3910204303684,213.3863536491408 692.3686026808573,214.38543594855582 693.6493508835556,214.60079759260407 694.210863331682,214.69515063008294 694.5960111217573,214.75953127112007 698.3752246615477,215.39338594907895 699.2296393387951,215.53793223929824 707.3625695573865,216.91421483812155 713.5059433245333,217.92215438152198 713.9129364481196,217.9920889743371 722.7287517867517,219.49292046373012 723.502222222276,219.6234775003395 725.5710335432086,219.97246846440248 733.9260871112347,221.3822541977861 736.5398375537479,221.82295542949578 747.774805105757,223.67258915130515 749.0466986666434,223.8821081885253 757.503260217025,225.2596624022117 758.496844231151,225.42166597448522 766.0504653370008,226.63832774420734 772.0474171165843,227.62245026096934 772.2314713316737,227.65262084425194 773.3353888427373,228.09898519644048 775.8708456107415,228.498035034223 778.6788447573781,228.94847384211607 781.7531239538221,229.44614541804185 784.8951528107282,229.9699502477306 788.2877913316479,230.50430354184937 791.580931641045,231.02810609753942 794.6341810630402,231.5463530329871 796.3199999999488,231.8344273623079 796.9304751218297,231.93876381230075 800.1087963591563,232.4887772060465 803.354925511172,233.05445373791736 806.8776165831368,233.64630279288394 809.8161343147513,234.1491196138668 812.9317448817892,234.6832239878131 816.0109174329555,235.19071396661457 819.4191680854419,235.7563842285308 820.5925828836625,235.95518368732883 822.2948586383136,236.24357248365413 825.3534091946203,236.73599446559092 828.7303773297463,237.3068159110844 832.2251646294026,237.9233095627278 835.2156742543448,238.37361107679317 837.754218496033,238.81020575179718 840.6665800818009,239.2920333808288 843.6519633353455,239.81062237883452 844.865194894257,240.01061730179936 846.8614214543486,240.33959960233187 850.2175345779397,240.91021281527355 853.482130318298,241.45613017253345 856.4126380943926,241.94750269927317 859.4030894651078,242.4613309740671 862.5451765761245,242.99030244565802 865.7077983005438,243.52442740742117 868.7609020872042,244.03765298298094 869.1377777778544,244.1017461665324 871.7516156018246,244.54560298722936 874.9523647146998,245.05994524230482 878.0729268906871,245.5849552237196 881.2722196480026,246.10129318630788 884.4035588551778,246.61419367347844 885.0766863928875,246.73630506708287 885.2240404480835,246.46267316839658 885.3307621831773,246.76994962227764 885.7867471076315,246.85737749451073 889.1166458312655,247.4033614496584 892.1541666133562,247.89891754911514 893.4103606615681,248.10262190114008 895.4725018738536,248.43690764607163 898.5831608320586,248.94908398372354 901.7157816321123,249.4575432013953 904.7065242738463,249.94722139043733 907.9440026737284,250.47365930950036 910.0595921351342,250.8158133792458 910.8933556907577,250.6794392875163 917.1635488996981,251.69822742795805 917.6829726719297,251.78281658014748 921.7494377815165,252.44522414554376 930.6809460053919,253.7893329882063 931.4932428800967,253.9114407878369 932.2813059982145,254.04569536598865 932.8007297707954,254.081216877501 933.5435002311133,254.09895765292458 934.2012777813943,253.96358431578847 935.1276946773287,253.82928973576054 935.5548728890717,253.81154894060455 935.8704068836523,253.82928973576054 936.1665422222577,253.93693318066653 936.3639366544085,254.181108614197 936.5678264320595,254.50519708299544 936.6296632889425,254.68168546893867 936.7256371200783,254.9558275778545 936.8833895537537,255.5429885131307 937.1722431146773,257.1745253195986 937.375317333499,257.7882517160615 937.5597793281777,258.2655667634099 937.7499211092945,258.5274383588112 937.9538108872948,258.69840991217643 938.1908764445689,258.8426907910034 938.506439566263,258.8793303691782 940.5517744355602,258.76166016672505 941.0437022151891,258.76166016672505 941.2475919929566,258.8438095567981 941.4774048997788,259.03248134907335 941.7864726756234,259.40095430100337 941.9247973263264,259.50971404876327 941.9555555556435,259.5251769478782 942.6084688783158,259.8526545519708 943.4362031217897,260.2666357984417 943.8569151146803,260.5285851556109 944.0349108908558,260.72724454756826 944.2444804552943,261.1068225816707 944.3690571093466,261.493072591431 944.5268386702519,262.18785758444574 944.6586971022189,262.87265178217785 944.7250486614648,263.3498769647558 944.7444764445536,263.90041882096557 944.7185824427288,264.6129369640257 944.6263368818909,265.2344358363771 944.4556520108599,265.93812007899396 944.2452668872429,266.6506322667119 943.9305193246109,267.38979203946656 943.5947711146437,267.9402448643814 943.4369895538548,268.1033787538763 943.2468477726215,268.2110558509594 942.6813157831784,268.4996062644059 942.096356010763,268.83370422548614 941.9555555556435,268.9441378445481 941.820434887195,269.050096537685 941.5437273316784,269.40189345221734 941.1165491200518,270.096655907284 940.8600557795726,270.53838779515354 940.7217020018725,270.8447149649728 940.6035915663233,271.2586775472155 940.4724904391915,271.89901766506955 940.3997017885558,272.50391718628816 940.4328484409489,272.9722138628713 940.5315602205228,273.4405895471573 940.7023033458972,273.8179103942239 940.9781953422353,274.1342217979836 941.385974898003,274.46719334373483 941.5963308942737,274.6481020995416 941.7540833281819,274.8644892513403 941.7540833281819,275.1264229248045 941.7290048854193,275.28176112647634 941.6877317690523,275.5325873657712 941.5631551146507,276.04646472010063 941.4126553317765,276.4159906912828 941.2281642099842,276.7677769776201 940.9522722134134,277.2006272324361 940.4587424427737,277.81322449370055 940.1901322241174,278.17391822853824 939.9668146630283,278.5257019785349 939.8219946665922,278.8508767617168 939.7103504498955,279.25599623145536 939.6715240108315,279.6888021164923 939.7305646648165,280.0672319625155 939.8616657919483,280.3657564437017 940.1707044410286,280.7986003111 940.6108733441215,281.44778476678766 940.8608422116376,281.87175733654294 940.9984095573891,282.2046783636324 941.1173355520004,282.5831043049693 941.1570066773565,283.03368290601065 941.1173355520004,283.43100480694557 941.0582948980154,283.737315779028 940.9595539910952,284.0347171164467 940.7492271218216,284.2433452963596 940.4733351253672,284.486371731502 940.1375577885192,284.693920829508 939.9271726647858,284.7393858441501 939.4142151110573,284.693920829508 939.1124291128945,284.7393858441501 938.4287575609051,284.98245173640316 938.0671153494623,285.1622340452159 937.6924824463204,285.44189515092876 937.2717704535462,285.88355928688543 937.1794957654784,286.07336874789326 937.1600971092703,286.23533191368915 937.2054188944167,286.5594177276944 937.4554460161598,287.4605194501928 937.5800226702122,287.75795619754354 937.7183764481451,287.91995819535805 937.8038353919983,287.9765689789783 938.0735524409683,288.1552304488723 939.4207104569068,288.92097234516405 939.6375035448,289.08413214836037 939.815528448089,289.2183673598338 939.8616657919483,289.37149928335566 939.8745691021904,289.6689736506087 939.7953142328188,290.0296498473035 939.6383482310921,290.37250747409416 939.361611548462,290.796424574859 939.0857195520075,291.139361024776 938.8292553387582,291.45453134184936 938.6318317796104,291.78851794917136 938.53314912715,292.0681714549428 938.4546224356163,292.38338052196195 938.3365120000672,292.65412441059016 938.152865564567,292.86166655633133 937.8963722240878,293.11355336976703 937.7976604445139,293.26668284705374 937.7588340054499,293.46535551629495 937.6803364409134,293.8438039313187 937.5751584427198,294.105637316301 937.4368046647869,294.2499371941085 937.2264486683998,294.37645919277566 936.8194846720435,294.48412468773313 935.6487204409204,294.5107314409688 933.8145571271889,294.5107314409688 933.6373186560813,294.6017377009266 933.5782780018635,294.79146047559334 933.5782780018635,295.06228159030434 933.6632417850196,295.2786506257253 933.6939708872233,295.3108103349805 933.8671315627871,295.4950594193069 934.1761993387481,295.6836629019235 934.6559811128536,295.88237355160527 935.6155446614139,296.18862893246114 936.4375699911034,296.41390576644335 937.6075186630478,296.64805123209953 938.4586711039301,296.7945468389662 938.7645348979859,296.8466811965918 941.7880746666342,297.40485769626684 941.9555555556435,297.4256314893137 944.1085442275507,297.69341351208277 946.277698446298,298.0085354083567 949.1240579982987,298.4235704590683 951.8514915555716,298.7931024680729 954.5926731093787,299.21592629828956 957.1558588872431,299.56879827036755 958.661555768922,299.8395341807045 960.5152051200857,300.1103496888536 963.8866391039919,300.59529206354637 964.4586955663981,300.677347461693 966.2281384392409,300.90609571454115 966.9563162169652,301.00029550882755 969.7695291165728,301.34429623017786 970.4661622329149,301.4486428865348 972.3529291093582,301.73160107189324 978.3547451165505,302.5427620295086 987.9165057707578,303.84888329851674 988.5168446577154,303.92989894002676 990.5007504498353,304.17869828641415 991.2507444339572,304.2727370224893 990.5007504498353,305.70556488714647 988.1147448889678,310.2638965204824 985.4989555485081,315.12298173701856 984.8007495680358,316.27695930277696 984.4973033245187,316.69312170840567 984.3460171093466,316.96383860718925 984.2092944497708,317.30673825816484 984.1178644482279,317.8781700282707 983.8298264463665,320.2183299395838 983.7348138097441,321.26694662030786 983.0029368889518,329.34247418498853 982.670421788469,333.4799969466403 982.5182908871211,334.68721222510794 982.3362464428646,335.9354432920227 982.055490218685,337.945940660662 981.8661639965139,339.3050361208152 981.4559668906732,342.61363060824806 981.4106742329895,343.7353647228447 981.2593588907039,345.9820527478587 981.1234226630768,349.49801066797227 981.0627508907346,352.9928293215344 981.0627508907346,354.55274044099497 981.0627508907346,358.0252802100149 981.1080726756481,361.47891928220633 981.3661680072546,365.66030844359193 981.6088842239697,370.9421078572632 981.69303244818,373.87750080949627 981.6250497706933,377.0447302166722 981.6134863075567,377.84665502770804 982.2577780055581,377.84346011356683 982.8683696356602,377.82560852885945 982.8693017032929,378.6584814042435 982.9087689387379,382.83666078344686 982.9270607643994,383.94854555814527 983.0193645795807,385.40239055332495 983.0945125261787,387.83399233646924 983.1113771237433,388.377544210176 983.1654661688954,389.0067546089995 983.2634788978612,392.72819183784304 983.4066969030537,396.7947961530299 983.4980977777159,399.5190724420245 983.5369533440098,401.3082586163655 983.5668668871513,401.6654952885001 983.5903142114403,401.95276973815635 983.7497268907027,406.184458091273 983.916392220417,410.73883589118486 983.9876080072718,413.1502198250964 984.0531440073391,415.3452776368358 984.1437293227063,417.1432521386887 984.3265893262578,420.25226170709357 984.3579009707319,421.1107441789936 984.3800084481481,421.71742992370855 984.5013519929489,425.02490681415657 984.660764672095,429.78631867223885 984.8427799893543,434.4867087784223 985.0167562239803,439.0716210452374 985.1000888888957,441.76220690784976 985.1081862257561,442.0128620034084 985.1615762204165,445.6926472025807 985.2546082133194,449.11845554277534 985.2837353245122,450.1953038988868 985.3730099201202,454.3829180469038 985.3816606720211,454.78994189418154 985.4730906737968,459.16707216436043 985.6025606828043,463.43992642551893 985.7538177707465,467.62839118082775 985.7691968854051,468.708511268429 985.8072368925205,471.3399665563484 985.8452768996358,475.3420667843311 985.9520860160701,479.36398145079147 985.9981651058188,481.45313615060877 985.9900677689584,482.2227025590255 986.0127577884123,482.85694033955224 986.0693808925571,483.6087782321265 986.0693808925571,483.61324917373713 986.0968768853927,483.9702855287469 986.1252175646368,485.0946432495257 986.134916892508,485.4872051845887 986.1421695431927,486.7657216187217 986.1648304356495,487.2447444103309 986.2326674773358,487.650555816188 986.248192227562,487.74372548493557 986.3849148871377,488.15951565577416 986.596902001882,488.54209308244754 986.9003191182856,488.9889382868423 989.4642913280986,492.18014132167445 990.5007504498353,493.4246928085922 991.1180704428116,494.1660797071527 992.6431951075792,496.02666230121395 994.4248131129425,498.1466497670626 995.2816162132658,499.12349036417436 996.6255119929556,500.7135223899968 998.9921188977314,503.63514031574596 1001.4565637690248,506.689801071072 1004.3612066702917,510.27664758695755 1005.8474757688818,512.115992625826 1006.1695051094284,512.538446896302 1006.9017315556994,513.4986255760887 1007.5999666631687,514.5164363978547 1008.7674686578102,516.1994870439521 1010.6963242099155,519.0965325752622 1011.9071382186376,520.913699340017 1012.2425077760126,521.4170020105084 1012.559672888834,521.8239140770165 1012.8339337670477,522.1764642183552 1014.7733333333163,525.0076233544387 1015.0257780053653,525.3761338146287 1017.597031993093,529.1489336934173 1020.0243106703274,532.6411801902577 1021.2832717938581,534.4903743235627 1022.3755093333311,536.0391479425598 1022.5502720000222,536.2996838575345 1022.6336046649376,536.5490844752057 1022.7015873423079,536.8506477557821 1022.9143900159979,538.0768123505986 1023.6571022223216,541.7850816610735 1023.7363862186903,542.1609101511422 1024.4928755485453,545.7460781286354 1025.3270468836417,549.6737267926801 1026.15393644094,553.6424171705148 1026.2710274276324,554.1722707259469 1027.4582193493843,559.5453286754782 1028.0658108870266,562.3398994025192 1028.1443084515631,562.8298279173905 1028.3764806542313,564.2842038741801 1028.878136888845,566.8714512417791 1029.0181217850186,567.4123298882623 1029.0901240035892,567.6916676606634 1030.0229779912625,572.378349139879 1030.6305986560183,575.1416876457515 1030.8733440000797,576.0661454673973 1030.9866193351336,576.3787133343867 1031.1613820018247,576.6070835527498 1031.3433973192004,576.783299182367 1031.530335118412,576.9052454314078 1031.631464448059,576.9706079574535 1032.1775977814104,577.2820972635527 1036.1218746596714,579.4324639815022 1039.0459162169136,580.9801544547081 1040.8922546631657,581.9574218033231 1046.1480962276692,584.6686588175362 1051.3909762277035,587.42631183099 1051.5026204444002,587.4850477856235 1056.3644304497866,589.9667486650869 1060.0433302187594,591.9108730497537 1060.5587344497908,592.1602168650134 1060.6420671148226,592.2433713148348 1060.680077994708,592.3142760225455 1059.6865522346925,593.8216645366047 1058.3830848853104,595.713647797762 1055.9270286222454,599.1588176180376 1053.5512175504118,602.4866736794938 1051.0940544569166,605.8737346087582 1048.5615686542587,609.2817352102138 1046.7096086757956,611.7809692602023 1045.9975964444457,612.7417950581876 1045.400956700556,613.5439831556869 1043.4950824391562,616.1065307614626 1040.9472757760668,619.5055314459605 1040.0898901333567,620.6758644891088 1039.0459162169136,622.1008114059805 1038.634117120062,622.6629122972954 1036.4495837867726,625.5730972592719 1035.2723533369135,627.2099413734977 1034.4171231004875,628.3979909728514 1032.4000997832045,631.192811079789 1029.692880440969,634.9119140605326 1026.9694955521263,638.6929553356022 1026.2850084409583,639.6349252579967 1025.574656455079,640.6145110809011 1025.255860224017,641.0611179337138 1025.1045448818477,641.2794144385261 1025.0058622293873,641.5076840764377 1024.9370639930712,641.7570171491825 1024.8537313281558,641.9864033512422 1024.6644342329819,642.3077830311959 1024.406309774262,642.817537570023 1024.3537353386637,642.9316716968315 1024.208886215114,643.2430369831272 1024.0349682348315,643.6275655825157 1023.7088902258547,644.1151768158888 1021.3722259912174,647.4295350889442 1019.0598828941584,650.7006854509818 1017.0573648782447,653.5374554013251 1016.7852885333123,653.9208508376614 1014.9343480038224,656.5292881116038 1014.7733333333163,656.7597773831221 1013.1138744321652,659.1354636647739 1012.8938191076741,659.5099946516566 1012.8250499983551,659.5831136920606 1012.7498146703001,659.6041758010397 1012.6511028907262,659.5731809922145 1012.3776284444612,659.416890506458 1012.2263131022919,659.406957799918 1012.1203486721497,659.4578978206846 1011.9908786631422,659.6141882801894 1010.7181986703072,661.4324636586243 1008.2448117759777,664.9638251598808 1006.5246811022516,667.4192497104523 1006.3281022293959,667.6995501148049 1006.140377998352,667.9677239448647 1005.9235557831125,668.2768634250388 1005.2875944393454,669.1810243536602 1003.6039017813746,671.5698726658593 1002.5415777849266,673.1277491342044 1001.5860337777995,674.5404236917966 1001.3279384463094,675.0268563566497 1001.0852222293615,675.4855660593021 997.8699095610064,680.1601278023445 996.5518786560278,682.0691919108503 994.5712351005059,684.938782918849 993.0114783005556,687.1613127140445 991.2418897920288,689.6830031912541 990.5007504498353,690.7336234272225 987.9804397795815,694.3063206332736 984.5531399965985,699.1245430587442 981.023108892492,704.1299216171028 976.6580617671134,710.388215532992 976.4906100054504,710.5388500432018 976.3773346702801,710.6009064889513 976.2025720037054,710.6685065196361 975.8311722098151,710.7515408680192 974.7001082311617,710.9587277958635 973.2226937742671,711.1880091401981 972.6150731093949,711.2810935557936 971.181378446403,711.5668872165843 970.1311713282485,711.7596761091263 968.8916671146872,711.987879893044 967.6998731093481,712.2116565877805 966.873828238342,712.3568261751207 966.2281384392409,712.4828524501063 966.0962508801604,712.5085761596565 965.6261975610396,712.5761756626889 965.2847404374043,712.5961165152839 964.7321700124303,712.6481621332932 963.4077020160621,712.6636362305726 962.1600713387597,712.6537056888337 960.8590506666806,712.6326481532888 960.1422033351846,712.6481621332932 959.7668131272076,712.68469376344 959.6203328855336,712.7135282232193 959.3759855502285,712.762303518597 958.6518564410508,712.9904664844507 958.0450513351243,713.2297562040621 957.5749688890064,713.436941030377 957.3621662152,713.5100439309026 957.0668464356568,713.529984707362 956.5506557724439,713.572099622048 955.8540517830988,713.520054200897 954.9664613263449,713.4380577141419 954.1476982329041,713.3339269220014 953.6314784428105,713.2086987181101 953.2220677690348,713.1156549187726 952.8045888855122,712.9805359561578 951.7503622259246,712.443210014957 950.5513155699009,711.8338962026173 950.2559957902413,711.6987765311496 949.903208220494,711.6001486954628 949.5504497778602,711.5381323852926 949.1289222259074,711.476076177496 948.1847086648922,711.4450879495707 947.8853693441488,711.4650288946577 947.601380010834,711.5425592735992 947.4379186630249,711.6367203642149 947.2332424535416,711.8239656272926 946.8351622258779,712.2548884190619 946.4637915592175,712.6858104507555 945.5381902221125,713.6928609088645 944.5794131057337,714.6798867723555 944.1773133371025,715.0897870844346 944.0365420089802,715.203887447773 943.5251573192654,715.5883027853561 942.0194895645836,716.7780761870672 941.9555555556435,716.8279673395446 941.3746444516582,717.2810551084694 940.8438902328489,717.8050502050319 940.7071384463925,717.9191493003163 939.4595368962036,718.7234247741872 938.8535473494558,719.1233481427771 938.656094663078,719.2429900285788 938.4780988872517,719.3205179392244 938.2620922310743,719.3880756768631 938.0039677725872,719.4412763850414 937.3283935573418,719.5088340889779 935.9861288961256,719.5963320558658 935.4699091059156,719.6705497688963 935.117150663049,719.7635910721729 934.7684408890782,719.8932426531683 934.1130808889866,720.2001230054884 933.7546717867954,720.3972919329535"/></g></g></svg>