<svg width="1200" height="800" version="1.1" xmlns:xlink="http://www.w3.org/1999/xlink" xmlns="http://www.w3.org/2000/svg"><g class="geojson-features"><g class="geojson-feature" stroke="#555555" stroke-opacity="0.0" stroke-width="0.0" fill="#111" fill-opacity="1.0" data-properties="{&amp;quot;N03_002&amp;quot;:&amp;quot;根室振興局&amp;quot;,&amp;quot;fill-opacity&amp;quot;:1,&amp;quot;description&amp;quot;:&amp;quot;色丹郡色丹村&amp;quot;,&amp;quot;N03_001&amp;quot;:&amp;quot;北海道&amp;quot;,&amp;quot;stroke-opacity&amp;quot;:0,&amp;quot;N03_007&amp;quot;:&amp;quot;01695&amp;quot;,&amp;quot;fill&amp;quot;:&amp;quot;#111&amp;quot;,&amp;quot;N03_004&amp;quot;:&amp;quot;色丹村&amp;quot;,&amp;quot;title&amp;quot;:&amp;quot;色丹郡色丹村&amp;quot;,&amp;quot;stroke-width&amp;quot;:0,&amp;quot;N03_003&amp;quot;:&amp;quot;色丹郡&amp;quot;}"><title>
      色丹郡色丹村
    </title><desc>
      色丹郡色丹村
    </desc><polygon points="132.17630600533448,640.3916298487457 131.51934401434846,640.2160276992945 130.45553453522734,639.7030880908715 130.15057368180715,639.3349109458504 129.94484889612067,638.9557278091088 129.7673191537615,638.6079075846355 129.66117996093817,638.0726311143371 129.5409432463348,637.4972821642295 129.58909036091063,636.4445416128729 129.72409452102147,635.7648172451882 129.8781478117453,635.3924817999941 130.13668004993815,635.1315725144232 130.61646182404365,634.7575026063132 131.39360227552243,634.4470068075461 132.04829235211946,634.3353378755273 132.17630600533448,634.3328787396313 132.7990436408436,634.3207846282749 133.617282446241,634.5171122949105 134.09342333162203,634.6782459915266 134.36861627735198,634.7714511228842 134.6338186240755,634.9437515177415 135.417833073996,635.4377135727555 136.06154222937766,635.9365122292656 136.14018542936537,635.9826307955082 136.60636484262068,636.4282147050835 137.2438407964073,636.9079431371647 137.30515336524695,636.9885696709389 137.422506495961,637.3501390300808 137.40098156104796,637.4358045643312 137.3681261796737,637.5662983101793 137.30218240013346,637.8278499742155 137.09730230038986,638.1629323946545 136.4135433670599,638.5334091682453 135.91354737780057,639.0354667745414 135.38148243923206,639.8561557697249 134.7795998151414,640.3321686209529 134.15863893332426,640.549171796767 133.61742808192503,640.5929916601162 132.4675771164475,640.4695542692789 132.17630600533448,640.3916298487457"/></g></g></svg>