<svg xmlns="http://www.w3.org/2000/svg" width="500" height="500" viewBox="0 0 500 500"><path d="M36.55309903006863,178.0848150855151 35.77008415213752,178.11356422942498 35.55047263622539,178.12250840753404 28.64269222342752,161.89561313622673 25.426142171565985,153.91421191572067 21.014426320381958,143.71441494856734 15.599045911908787,131.1944023500433 15.403951026986004,130.74399909539827 12.54229318508541,124.05143796833954 8.768888187520085,115.22481191672382 3.3297098765446713,103.05529929776078 0,95.61286466696731 0.15308919158401993,95.43757474778859 0.8074516503509743,94.67891678336743 1.2577750462562924,94.15983501825208 4.161518440292097,90.80576822825422 5.800858513413916,89.02899127562229 6.0226262152412815,88.78717903183174 6.390934692337476,88.3901214108824 10.614583227011671,83.8115008075643 10.891852748109498,83.50755846939167 11.071534897801655,83.3146197702139 14.793830306042526,79.28175374891572 16.83909231919935,77.16549732189394 20.410614439591306,73.46979487170445 26.187036180585352,67.1099252266715 27.089919017107672,66.11392710754272 28.860067694627965,64.16625246607528 29.13070894129507,63.86678221692881 29.785151259085442,63.14805361906807 30.273088118156544,62.62449976492656 33.1613389179383,59.527817671656244 33.51631098669569,59.146252644960946 36.639586037847174,55.798814129791005 37.067788564840754,55.33970627319927 38.090459500930876,54.24156883444498 39.59667506591912,52.62674539248274 39.79855794309249,52.409290062258876 42.553604375944225,49.45451693775181 42.86856721945823,49.117273507903406 47.129988934891095,44.5476769414341 47.32300749292206,44.339085930579614 48.740420146396644,42.81953395725257 50.1912137506839,41.2622886618498 51.43349620268615,39.929606123993786 52.26530476666055,39.037424357854015 53.285739658038985,37.94599505261061 56.26494955502267,34.749409684256264 57.40517254619587,33.76890415932477 58.04851449990518,32.97478891742609 58.651847228371096,32.23162354725896 58.95123761883461,31.909952570347567 59.56583042874751,31.25119788101043 63.7251128245549,26.781265013462782 67.35644913582082,23.070069969076002 70.67282260379972,19.45869834097681 72.19676680752671,17.584174299062603 72.8821943135982,16.74350141577557 75.2757202618313,13.799828655122592 78.14863818517888,10.616579695220533 83.24170874699325,4.973202603563617 84.17110468282728,5.345903310889535 91.28516020319847,8.018934825045635 91.83091478527513,8.01669878056092 93.59443518791076,5.527741646156473 94.45515261350143,5.782890298399305 96.21867301613705,6.301972063514645 96.87750756432737,6.497146807177131 102.0639329851943,8.458157857096861 102.1127266712376,9.369905012875076 102.16375640153863,10.286044398939756 102.09539732602713,10.616579695220533 101.35854079589934,14.183549867619643 101.22102405736581,14.853564638290276 100.94143863275985,16.199982878297103 100.70849070850892,17.32694931975772 101.49382148972119,16.896510748392913 102.46761888097157,16.36193638902353 102.65400916411787,16.328715156030725 103.42368763371016,16.193354603469178 104.53508162206354,15.995943815265237 106.68248295507283,13.972882529759854 108.68997178769796,14.762525682575625 111.36523934645226,15.672036793812383 114.14919464069328,15.614378788513196 114.34444924320896,15.60998655822673 117.98241382935954,13.847264742590934 118.35511453662872,13.66670414704576 121.28768693348435,11.960841749425605 123.66132805729042,11.029129910367176 124.67729085969944,10.629836244876378 124.79236729413545,10.616579695220533 128.77891525032112,10.155155935404379 129.071677365673,10.095261885563737 130.84853417710136,9.72703326726399 131.6382571887136,9.562843711996106 133.11340770639728,9.258981232563169 135.0899113505143,8.850823247702992 137.55674761578007,8.391555673688593 137.62550598504683,8.378299123976005 138.61703201526294,8.427012951166109 140.78431817269924,8.582418045804316 141.65613596191702,8.644468281389969 143.14238684345483,9.09479167735203 144.7195169633981,9.223523955085653 148.55273615206437,9.924444055467932 150.5536765683743,10.288280443424469 151.79971238085886,10.616579695220533 153.30656681576474,11.013637316169874 153.654830750841,11.104596413144822 156.30134916557193,11.803360327725347 157.79638450768266,12.51538079201846 158.30212986451593,12.754956991324288 159.08522460124348,13.127657698650205 162.86749391817818,14.321146464779389 163.11817048139486,14.401005197843503 163.9943805007856,13.473685589185026 164.8018321511366,12.950211593726477 165.8510161865384,13.604574052720404 169.03626161470606,14.760129920611506 169.44330157743738,15.000983859639096 170.07474458000905,15.516791416653582 170.56268143908017,15.911612993118212 171.85383743592215,16.592648268959977 173.107140393209,16.974213295655275 173.3932742336762,17.060700303604055 174.40931689488167,17.369114730802863 174.97272025690066,16.34420775028477 175.23896927294084,15.862819307188403 178.1304144223107,10.616579695220533 178.4044097354779,10.119618799130418 178.67952307088748,9.622737761836747 180.80680000330736,5.762925615119091 181.94326963399823,3.7906544838658633 180.83842406150612,3.3678024921486727 183.0509102618693,0 184.53133145603294,1.6162608991634144 186.5507192397957,3.820601508757813 188.6410215785135,5.915136360396148 192.5039482158526,9.42309092909135 192.75462477906925,9.66274698713688 193.75437625873712,10.616579695220533 195.98666742495786,12.746092671954909 197.11347414899583,13.73107028591257 226.30192095404607,40.71445775282457 227.66614769153136,41.91896702412489 230.30148588361175,43.94650039865644 231.14008243983673,44.594234582822445 232.16482970304563,45.38172154989321 233.0055824449589,45.58360442712332 233.50917161587694,45.703392526804606 233.68446153516913,45.745557937849746 234.65817906785003,45.441535740937404 234.7825191151837,45.208667675255946 235.14180355531764,44.529868443955635 236.710149214461,37.46237056497279 236.77004326435838,37.19396536307411 236.82993731425577,36.930032250201606 236.96976995584347,36.29563447448789 237.33137029925857,34.492104846211674 237.3911844903595,34.1903985525805 238.34062496821343,29.452140341817127 238.36953382960274,29.312387558912373 238.95066583036046,26.30658470393404 239.02605247428494,25.91839140235408 239.08826242746346,25.59009215061476 239.84021225831702,21.70360718704926 240.06197996014438,20.104196480601356 240.62322713624812,16.044737501195044 240.80298914450975,14.74256099929541 240.8739036994648,14.23234355354945 241.2177754041411,13.955074032281393 245.4902176246316,14.766997771658538 246.87225285965212,13.895179982440752 247.12508560878402,13.830813843573939 247.84605025112947,13.651211552848457 248.56477884899022,13.797592610581136 248.94857992011347,13.877451343701994 249.1459907085444,13.917380710262421 251.08032894150278,14.31467790737413 257.7640257491921,15.687609246749389 258.407287844105,15.820653896086519 260.3328416167174,16.215475472551148 264.1571166269909,16.938676159438057 264.77610166730375,17.053992170036427 265.80540087827853,17.24932663117832 265.68337673399907,16.39747352524075 265.74550682838117,15.729774657851273 273.2854489722378,17.266975411177373 273.6315567216258,17.335733780387397 274.913768540075,17.597510707458152 275.0534414642968,17.02300698158508 275.1111793285059,16.79005905716392 275.1709935193799,16.54385458303017 275.25748052738544,16.193354603469178 275.76106969830346,14.203514550899857 275.823279651482,13.558016411332053 275.84987260959014,13.25638997638383 275.87422952321356,13.005633554484207 275.9740529395579,11.951977429999483 276.16699163856543,10.663057477869181 276.2692906755568,10.616579695220533 277.69988002023126,9.964373422028359 278.44743762091184,9.815756319697481 278.86453978382434,9.73366154209191 279.6941921618835,9.569551845563732 281.3223520123548,8.844115114135366 283.57836122228133,7.6772991649107665 284.4857161475461,7.131624441630547 288.00828486452883,5.0042676506979245 289.10195021437045,5.226115211264993 289.5922029767227,5.323702583124608 292.3296006298591,5.878241625717464 298.00172686531243,7.153745310712514 298.48974358340695,7.26474894970738 298.76038482962014,7.32456314080832 305.96324326127797,8.948410619562607 306.3026428769849,9.026033308142008 306.60426931193314,9.092555632810573 308.7848918777082,9.584964581078072 312.6424679799979,10.106282390734869 313.050705823541,10.159548165690845 313.51212958352744,10.221758118755904 314.15978390884027,10.310401312506437 314.8386629988235,10.40136040953813 315.2401128501161,10.456862229035563 315.52632654937975,10.494555551054534 316.4282510810256,10.616579695220533 316.4447019801561,10.618815739705246 315.925620214984,11.874274882737122 315.823560754155,12.118323171069118 315.7215811518954,12.366763689744324 315.28890653593237,13.41163535354263 317.6292465679492,14.25478385759023 322.8932946774523,16.151189192367294 323.45893408395597,16.355308114195605 331.16753787244716,19.128083186013072 331.4647720769954,19.236850780466483 333.49893372629816,19.96883592803981 334.98965669703233,17.06956462297343 335.41554332051777,16.45728771634169 335.73721429748593,15.995943815265237 335.75270689174,15.971586901641814 336.3161901123284,15.161819348066423 338.567807092082,11.370765570558786 338.882769935369,10.97147190506799 339.0491156764954,10.758488663927043 339.1615567726914,10.616579695220533 339.87876805455454,9.706988725244072 341.79921086805297,10.616579695220533 342.7204612130047,11.05356668267356 344.62149835440084,11.954133615801236 345.3950100432719,10.616579695220533 349.9587769221401,2.7238216684649967 350.1073141657313,2.4642807858789553 350.23381039898015,2.2446692698533424 350.2758959511154,2.1736748561586077 351.0922119210627,1.5526134888404437 352.8514199523218,1.8631841018977486 353.15751847623943,1.9185262039157756 353.48797391378054,1.976264067954665 362.1127170881094,3.5046803606510912 362.4188954708235,3.557946135607068 371.22108475013283,5.117347616754841 371.58931336843256,5.181713755678396 371.8599546148727,5.2305873002911625 379.8303353302076,6.6413716791648 380.3094877287058,6.455061254871692 380.5468278833567,5.793910803570437 381.2855211646679,5.896050123195924 381.6138204162937,5.940371720042819 382.91152482922394,6.117817825023291 384.1781641948496,6.394688052649575 385.4381752855906,6.670200681814393 386.8024818818723,6.96967093090412 387.2882625552552,8.061100236147519 394.4622919840932,10.248351076920784 395.67318995405907,10.616579695220533 398.37976213605333,11.439523939768808 398.91433649547946,11.601477450495235 407.13762981851573,14.099219045472616 408.09593461573905,14.389824975249708 408.3643398176945,14.471919752855277 408.67483057201207,14.565114894371682 412.3860256161719,15.694157662894352 413.0272113844199,16.086902912240184 414.2604697994599,16.843324832119897 413.8168545370087,17.708434487770056 413.33554595282226,18.651166831942874 413.10475421403265,19.112670450498733 412.1042840058777,21.104666688813065 412.0045404483298,21.339770799092722 410.9552765541315,23.839828297351264 410.4250944251053,25.456967642537926 409.86161120428994,26.694778005514003 409.1606911039644,28.671281649631034 408.1779495345482,32.45347110776929 407.79638450790964,33.91975730614036 405.859890089036,40.13763812367034 404.5332768147165,44.16379601145764 404.40246821009106,45.54143901607818 403.94990876947406,46.761440881575794 403.59940879014005,47.80184045634793 411.2613750780492,50.233059726713485 421.65411074443705,53.94872686018318 424.5423615444458,54.98257801881035 428.4044097354779,56.564180227779794 429.9172535753508,56.88361516014974 431.53223673462224,57.71318767952594 435.6538258084674,55.90302977647854 440.6849259934926,53.68702979179538 441.74529025154493,53.22121380163602 443.2647623660755,52.79524731929738 446.25946485708624,52.92837182737422 448.5665037975408,53.19454098478818 450.4232193420901,53.64486438075024 450.7271616800925,53.78996769876116 451.73426016335907,54.270397837037834 453.30036977801774,54.92036806574529 454.68016896832654,55.936410726894 456.49695514642883,57.17198504538537 460.4034047933313,59.88055369575869 462.2268192458643,61.22920798025023 462.81905161070307,61.66619496776 465.32358119793105,63.6316781067059 466.3550365945941,64.98704052482181 467.18468897265325,66.37786022041523 468.00108480117007,68.16805344023915 468.46913683581414,69.14855896517065 468.7042409462073,69.73192701041309 469.0058673809285,70.28654591174565 470.2037483772874,72.48928934671622 470.4810178988392,73.21472607820132 470.81826132863085,74.10427250615787 471.6079843402431,76.17389143305161 471.9850772779122,77.16549732189394 472.3333412127615,78.08163670795861 472.54408840953124,78.631783520265 472.6217909569638,78.86033921434296 473.6044526675836,81.7330175613012 474.1879005716225,82.87316069367796 474.40088381264997,84.2508036982985 474.82892662205063,85.65040785452159 475.7827593300775,86.70414383774602 476.63461243607185,87.2498984197092 478.8839933713407,89.68111769007476 479.5516922386734,93.26366031546762 480.039708956541,94.35724580645602 480.5853836798212,94.53924385920237 483.86629987032256,93.74952084764689 487.06951351361835,93.35469927118227 487.23809529900245,93.33241868467763 490.39690748665487,92.94422538309767 491.7390133550015,92.77787964202804 495.49908194422795,92.25208974334507 497.57540900468933,91.92826258063192 497.7040614236265,93.00188338839686 497.8792714841223,94.47926995067877 498.12108372796956,96.60439069706993 498.07444622761454,97.4074501170777 498.01239599225585,98.44337760276692 497.952422083562,99.450555944603 497.57540900468933,105.44211711253975 497.6131023266516,106.89067467217205 497.6353030543597,107.81120628852321 497.2448737083518,112.79806473544119 497.06071946969024,114.2465424363338 496.98309678128106,117.30784711080956 497.20933657207786,119.00037310003417 497.37799821648537,120.27587678502921 497.6929610597724,121.71780606977686 499.5540688344946,126.83092117372463 500,129.76357342914974 499.95336250009893,129.93207535602113 499.5008030594819,131.5204655572979 496.7502287155996,130.47567375218256 495.26613401975004,130.01864222270962 495.21063220025263,130.06743590858267 494.78035334636724,130.4423726605068 494.8357753070682,131.50489310430416 494.853503945807,131.8376644451264 495.0199295455028,135.08296364067084 495.05315077849565,135.7152850893225 495.14858196444,137.57192077507528 495.40373061685307,139.57733328052487 495.5700763579795,140.89053028759565 495.7275577795095,142.14614914805017 495.8185168764844,142.85593356780183 495.45244444387293,143.15987590597447 494.39351764302177,143.71441494856734 492.86813598232055,144.51300227949218 487.22699493514835,146.26989440764035 483.56012148760846,147.132847877432 481.3796586391993,147.91147052513338 478.9483595102075,148.09562476362476 477.48870158655086,148.1554389547257 475.1172965074565,149.00505601612178 470.3125159717976,151.87997040756474 468.42473538039775,152.71633091930502 466.0134009344025,153.58144057489844 464.10126342915225,153.9740261068216 459.1877152992102,155.87075087655748 456.64557224881645,157.15288283638046 457.235648427513,158.00912817266124 457.5240183126919,158.43062256591696 458.2715759131455,160.6356819041687 459.73794197025626,162.65203505610646 461.31283604571485,164.39335473126087 463.5400162530485,167.27497725627146 463.20277282325685,167.76746606327865 462.51071704207374,168.78334900694796 461.7209940306885,169.51325782745923 459.4716929542161,172.06426519744934 458.24721899974907,174.02304020282762 458.12295881098487,174.22268703557302 457.9587692555467,174.48222791815905 456.3683027272647,177.02213492423832 454.0789924257758,181.9334470095822 453.9703046900621,182.16863097860156 453.8682452290061,182.38824249457042 453.08523035107504,184.0675119341392 452.7191579184635,185.8886903423577 452.70358546564,185.96415684513536 452.53508353882535,186.76713640640344 452.2910352504934,187.9406604892524 451.16638471214367,191.08398008265075 450.9023717405882,191.28809900442235 450.7271616800925,191.42202209983947 450.0150613571164,191.96689823572265 449.9063736214027,192.04891315464525 449.8620520245558,192.08445029086246 448.16273804296713,191.97129046606585 447.73685141948164,191.94238160467657 447.12689041613106,191.90253209685582 445.95328647459917,191.53877556758226 441.6298943821501,190.20106192952215 439.2540970724288,189.46676087872441 433.90356195514715,186.61189102930138 430.80240777290743,184.97255095629302 429.57122568475927,185.73791705428184 428.39778146059325,186.46998206053811 427.3085083411516,187.14870143315545 425.8156291847291,186.9468984146083 416.9646462196035,186.9468984146083 415.1123229054542,187.02675714772917 411.8714159401962,187.16866611643567 410.68024307729144,187.2196958468502 410.3940293778008,187.38612144665953 408.95441599639105,188.2201660550619 408.699267344205,188.36878315739278 408.49075619214693,188.48857125701733 407.7876000471097,188.89449319733603 405.76445890286465,190.06801728018502 404.8793047053081,190.85550424725577 403.47738464563355,192.10209907086153 401.72049251765566,192.12437965736615 399.27593683889455,192.15320866001576 399.2337714277359,192.15320866001576 395.69786630264133,192.28409712360786 392.48570848117976,192.4038852232324 391.5829055036808,192.43710645616846 388.59259524284306,192.14426448190667 388.3352904049687,192.11990756833998 386.372043310394,191.9269688691622 385.51579797422676,191.84487409155665 385.36502468615083,191.82930163861965 384.1781641948496,191.68619478887433 383.2109950782569,191.5697607560336 382.226017464356,191.4522087009505 380.80197653576977,191.27915482631326 379.98118847707997,191.18164731319334 376.5827202312685,191.18164731319334 375.62225924835695,191.0973164910463 374.3689562912971,190.9885488965929 370.18739330898507,190.6181640924914 368.4327372252649,190.13014737451036 367.13950490153104,189.9681938638407 365.9793172271344,189.3603091874954 364.27784705985744,188.46645038793537 363.96064817185874,188.30002478818275 363.68553483644916,188.11363450514995 360.8372932619108,186.19926095535828 359.77022087017735,185.38741707472084 359.5062877574183,185.18777024197544 358.3860294494686,184.33591713603786 357.29683618882336,183.50626475792197 357.22807781955663,183.4552350274507 356.3718324833893,182.8984599403164 356.06789014515994,182.698813107571 355.9414737707075,182.6167183299654 355.21388085347735,182.14427406497813 353.8363177076533,181.24801950345397 353.3038995339154,180.65131504975923 352.20807799838553,179.42013296161107 351.680131914071,178.82790059699923 351.22318024328104,178.31768315125328 350.5642658362943,177.85625939143713 349.99647024410234,177.45696572594633 349.8078439164713,177.3239210766092 349.54391080371227,177.1397668380611 349.3421077851084,176.9977780106149 348.13312642466843,176.15263303830167 347.07715439701605,175.41170371261927 346.43165625739147,175.21429292441533 345.7727418506317,175.01464609166993 344.65919167636304,174.67524647601977 344.01584972265374,174.47783568781583 342.7670188545633,174.09842684686555 341.66888141575225,173.7634993202983 340.6485263829433,173.4530085659807 337.5406640670224,172.50572427404202 337.3632978208384,172.4813673604186 333.070811058101,171.91341205063375 332.3809114628331,172.02657187543036 331.0787349611605,172.2373190720866 327.0947424846453,172.98264062805546 324.26414969004924,173.51058671254017 322.15899362676805,173.9054881477445 321.793001052953,173.97209033109604 320.5263616873273,174.20943048586042 320.39770926839014,174.23378739948384 318.556486318095,174.3158821770894 317.6292465679492,174.35844688183306 317.3519770468514,174.37138399658684 316.1164027283033,174.42672609860486 314.9983804650652,174.4755996432744 314.28628014208914,174.50882087626718 312.0480794294709,174.60872415135123 308.25694579339375,174.5798152899619 307.8909532195787,174.57534320093575 306.26934178519565,174.56432269576462 305.29778043843,174.55545837639525 305.2422786189325,174.55545837639525 302.12339579795406,173.7634993202983 301.10064500329446,173.5017223931708 299.13084949263157,173.00260531133569 298.31900561188064,172.79633020376235 297.37395736442664,172.55675400445654 294.34371773714196,171.78475963163982 293.44538684861243,171.5585198407863 289.782985490042,170.6290440462693 283.56278876923085,169.00751247079617 282.86186866890534,168.79229318505705 280.6546531447951,168.5216519386169 278.875560288882,168.57715375811435 277.04543770266787,168.79229318505705 275.7522053789341,169.59974483540802 274.40794332467226,171.31894364148044 274.02853448372196,171.80472431492004 273.7090995514655,171.9156480951752 272.47136904722913,172.34377076331558 271.83912745714696,172.56122609353946 271.0849415818087,172.8229231618705 270.1509936982088,173.14459413878188 269.96691931857066,173.2089602776487 269.6696851140224,173.21998078281985 269.31471304526497,173.23555323575684 267.27607930676584,173.31764801341916 266.87231355219217,173.33098442181472 266.5352298399934,173.3397688824444 266.1912782765206,173.35086924635522 256.7613194963255,173.63931899033057 256.44635665303844,173.64818330969993 256.111429126528,173.6569677703296 251.08032894150278,173.81141456014814 246.28433286664378,173.9587539227005 245.92273252322872,173.96761824206988 245.63883472701926,173.97648256143924 237.12717151880403,174.23378739948384 229.91329258208853,174.44900668516624 225.12400464091064,174.56432269576462 224.014846696815,174.5931516984142 216.5835124301026,174.7727539891397 215.98904402077906,174.50442864592398 215.94464256513572,174.2803450408722 215.89369269340418,174.02743243317082 215.83819087390674,173.74577068150282 215.66737304381093,172.89176138982023 215.5586853080972,172.3503990381435 215.42564065876007,171.15036185592612 215.3435458811545,170.4028042554158 215.20818532853622,169.18272253117846 214.80441957396252,165.51584908363859 214.80002734378954,165.4692115835105 214.76904215528145,165.16758514861903 214.74236933860385,164.90141599120508 214.44960722279802,161.93107041370425 214.42293440612042,161.6693733453732 214.39849763370054,161.41198864858893 214.07243442655943,158.1244441832596 214.0435255651701,157.84054638710688 214.02140469603142,157.6120705517119 213.67537680566682,154.120487023294 213.67537680566682,153.0978160872606 213.29820400920124,152.5610056834065 212.52852553960895,152.58759864151466 212.24231184011833,152.59654281962375 211.87408322181858,152.60979936933632 206.94057040865303,152.77614511034923 206.28397190517438,152.81160238788348 204.09895710899931,152.9336265320495 203.44020241960544,152.97131985406844 195.34556151573327,153.42387929451522 194.83095183953063,153.4971097527514 194.52261727112827,153.54151120833802 194.06558574154184,153.6081133917463 188.74835171582248,154.3733197723124 185.98436110480492,154.77037739326175 184.53133145603294,154.980246143838 184.2495898457387,155.02105395642167 184.2319410657964,155.02329000096313 182.9785582497131,155.203052009168 181.50117168754468,155.41595539156927 175.9509897373474,155.6909888683526 175.6204544410099,155.70879736583106 172.82979101308777,155.8462342455114 170.724714808603,155.93727320122605 169.93059956681782,155.97273047870357 167.09553468302536,156.09475462286957 160.35857210055028,156.38759659713136 156.9956409910128,156.54284197429018 156.6496131006482,156.55841442722718 156.29240498740612,156.57614306596594 146.3078273059919,157.03980287032354 145.98623618782023,157.0552954645776 141.69830137284868,157.25270625278154 137.96929783115368,157.33695721618886 137.62550598504683,157.34590139429793 131.68489468884164,157.48118208817652 129.95459551874487,157.5211913134199 128.96738186035924,157.69192928477602 127.77397295296976,158.7989310429564 127.45901010945576,159.0894571139938 125.25171472700303,162.48121722601064 124.28230956592563,162.58774877597935 117.98241382935954,162.35528000393967 114.94330988270545,162.24164102670483 114.15582291557796,162.21281202405524 111.98190848325697,162.1573900632975 109.93001819498852,162.10636033288299 108.92283985337941,162.01316519130984 106.50759232976286,161.78828299891777 105.47342173606339,161.69149421439843 103.33943667018936,161.4940834261945 102.62510030272857,161.42756110152592 101.5869367723844,161.33212991546807 101.30527502088663,161.30777300190138 100.44455759552294,161.22791426878052 100.07185688802679,161.192456991303 98.90504093897242,161.26337154631477 98.08433273885211,161.314481135469 97.64726589271612,161.34107409357713 96.82879373708053,161.38986777950694 96.40729934399504,161.41646073767183 95.13171580020354,161.4940834261945 91.33403374781123,161.7270313506724 90.37788513650317,161.78468935597158 90.17384607341455,161.79363353408067 80.78820889006633,162.24611311578772 80.48650259632166,162.25944952418328 80.12937434210298,162.27709830423908 76.88623133236027,162.43250339882053 75.83696743816202,162.4834532705521 75.53973323361375,162.49678967894766 70.68831519805376,162.86765363543063 70.85937260431193,166.20447093912796 70.98355293427969,167.53899022788366 71.10805269920624,167.79581591349003 70.24725541527307,167.9679913420473 68.30365356896306,168.10462963438735 62.403850085511785,168.38613166857596 59.5437095596088,168.4373211164699 59.63714427723083,170.2341426111217 59.76164404215739,171.82532786806112 59.91688941942968,173.62214936271297 60.07237437286433,175.47024016399845 60.28982970286122,177.03579076759266 58.984299134461494,177.13840923959964 58.082773896343895,177.18983826371266 56.029765585833076,177.3371776263218 55.74586778985058,177.3482779901759 54.21529531123892,177.40601585421476 54.17975817519193,177.40817204001652 51.43349620268615,177.51334599152375 36.55309903006863,178.0848150855151Z"/></svg>