<svg xmlns="http://www.w3.org/2000/svg" width="500" height="500" viewBox="0 0 500 500"><path d="M30.382519416392775,248.3187985863601 27.20093374008557,249.86038876601472 27.030173626322544,249.86422999553622 24.59546265597495,249.91465486346448 22.25580465665717,249.1192409842395 20.500153230158546,248.4286577515283 18.622141182324242,250.19792808273465 17.650170424956155,250.37057389091245 16.97704732652379,250.48895360159085 16.81403951239644,250.5180072651261 15.962404000763868,250.98551982178085 15.27559215708072,251.36196031776532 15.479317004195432,250.37637065549103 15.7238287252872,249.19885919673953 15.844094130628518,248.61289708886326 16.488512768092114,245.4933996502342 16.5482962679978,245.20432966638543 16.503668164797,244.40311902258188 16.460995596405166,243.60574960829982 11.925201902017958,241.89074537454323 11.349017469228677,241.72005510142253 9.806728884490713,241.26609160903166 9.053987573310197,241.04295109238254 7.511698988572233,243.21967111816565 7.034408756632006,243.22162665317313 0.8128041730599813,240.88392418896206 0,240.55797840144893 0.5896636562619767,239.9061566668665 1.998207612582925,238.3521348715875 2.3861717971318552,237.9214282781533 3.07675502984305,237.16100450807866 4.041043328366651,236.09593631439049 5.154580854975625,234.6389230254465 7.744477499222191,231.64744329159592 8.340077601297768,230.9588155939418 9.637994146129353,229.5678016126909 9.686463479149396,229.51542120970552 11.859272434917587,227.18742658018724 12.59455361142228,226.39780946554083 13.345339387396828,225.59659882173727 14.09996639279362,224.78568034324095 28.069959545602774,209.81263739382905 28.491028144887277,209.35867390143818 29.05743490244072,208.75336596471945 29.40475189419798,208.38090637934263 29.451335532604748,208.3285259764069 30.382519416392775,207.2939082569665 33.34487564611541,204.00225389386188 34.69321705897451,202.52785031108286 34.96091583857912,202.23291372211247 36.988316795684185,200.01554650363693 37.758448400352336,199.37140722819672 38.728533463305645,198.55664752012927 41.56070693146423,195.53604428229963 48.3114932660611,188.23617164349088 46.84512134523893,187.29290534684344 43.03336450086497,184.8411532852273 44.3351222755158,183.46333916552493 44.92485577217197,182.81151743099213 46.96971686375436,180.91807062447916 49.309305022280945,177.99636158739932 49.738056080806935,177.08654890810357 52.17276705135303,174.5838830948073 53.331002521954,173.95727379423863 54.09722305640871,172.98334750166458 56.77449021303911,170.63593720276074 57.91135447894931,169.8250885648075 58.747485391509024,168.85116227228306 59.923180996190325,168.06741176280795 60.14241044277489,167.92186408305867 60.48958775374376,167.78022747347322 64.00487151715015,166.34074415935112 65.0932664502388,165.89453296659593 67.72394996846243,164.81787124370095 67.91210037591159,164.7402085662084 70.32550998255812,162.22210799418386 72.00747964212219,160.3209088880352 72.077320179436,160.24136051602864 82.14797645430477,148.85344186743617 85.76795118318842,145.3167868994879 85.81649035660266,145.27027310167384 88.58294387924046,142.56688558416826 89.72756044478635,141.44838937944792 91.89457263592632,139.04671298309432 94.94625491304026,135.6691547591096 95.14411315513257,135.4712266764246 95.91815582981566,134.8950422437842 96.20527027870656,134.67001603262102 101.40846014749062,129.09248088399576 101.59661055493977,128.89071157173964 102.64805984387063,127.79651987397314 104.23302099719892,126.14164834288722 106.81712087681727,122.88833643475218 107.56022419374884,121.91832121229231 109.17430885100657,119.80368942418731 110.09962612957369,117.96841978523828 110.54395162796374,117.09729876357785 111.78550685935122,114.65874656351026 112.30358396487149,113.48116526426531 112.40247816572055,113.2560692125591 113.31040515060154,110.66428687364963 114.3094740364974,107.81632944399777 114.9225342728518,104.80543404081128 115.60159381689928,101.47634514974733 115.63644424506273,100.52183452655882 115.82655018751936,95.19460786355428 115.87704489613957,93.53589510289724 115.939063293225,91.44067898412816 117.48917401819133,91.28549331027881 118.18178262670119,91.215652772965 122.61861227964665,92.00128897700375 123.61775100613522,92.21081058884593 123.92421128391823,92.27680989658862 124.18415776368866,92.33114583463107 127.95366108282995,93.12460417879895 129.91303735664178,93.49706376417578 130.5455132622825,93.61928470442531 134.6913173965206,94.41274304859319 135.9581549024153,94.94241368341952 137.91368994660635,95.76101462100847 138.90689222747983,96.17628645576401 139.53545706310558,93.9258148226025 139.60152621139136,93.68723954722509 139.669341373105,93.44859443125497 140.2630557805673,91.3223691139928 140.3328963178811,91.06821939875134 140.39498455555923,90.85087564673042 141.17482399487054,88.05920969007886 141.355222102684,87.40934349060315 141.9934947731514,85.12590712384184 142.10796341366603,84.78445673700773 142.39514770295114,83.92115785557567 143.17107607224747,81.59120769100029 143.3107571468751,81.03052785758162 143.45434929151764,80.4582544950554 143.56686239702478,80.0042910026149 143.90244617873725,78.66761295940643 144.30409910873544,77.05932506667764 144.63772735544043,76.20189279031761 144.75806260117594,75.89529283159735 144.831744367912,75.70330119462669 144.85304573201006,75.64896525658425 146.0830772747338,72.49063647918408 146.2693419875697,72.01146055282908 146.71939440999526,71.89887760672924 146.78343818268084,71.9805910353725 147.23544614011388,72.55656594638369 147.73012666554172,73.18904185212364 148.61479675151568,73.32285632157998 148.86503539664295,73.36168766030144 149.58285643886884,73.47028969579364 153.04387410482545,73.39269685884416 153.32707748370143,73.38690009426557 153.623899767037,73.37907795408682 154.69287903083935,73.35582105517979 161.82429629390563,73.35582105517979 162.86610758858754,73.32481185658744 163.12612390875216,73.31510402189467 163.41714942785651,73.30728188176555 167.32619414044004,73.18708631706654 168.1391379946854,73.07645890597418 168.62990745009833,73.01052943877457 169.15378132024682,72.93873336645329 169.79589522013646,72.8515025353541 170.34176885971448,70.89205642109845 171.01614908782287,68.47089451481624 171.10540529442298,68.14885979736768 171.1732902967293,67.91021468144719 172.86503763152922,61.836043472138456 174.88838783743395,61.81278657323142 175.18332442635474,61.808875503117235 182.18679382503674,61.72353036653207 183.81058631693762,61.661442128903566 192.3485221603277,61.32969957676223 194.360278836976,61.55668132298248 197.79608406901812,61.94660104263813 201.83915277278643,61.66723889348215 204.98386264533002,61.61395056353613 205.15071168907812,61.6110172609753 206.42146026518623,61.72353036653207 207.11595456791235,61.78554876366712 207.7853062773167,61.84575130683123 214.3076442144377,63.17663258546112 215.84022496473102,63.48895946821691 217.4639476162377,63.816790950244055 218.80837795908187,64.09224202933547 220.4225324569323,64.42209888696279 223.022136936219,64.95169968124604 223.30925138491142,65.00987684880998 226.4850402965904,65.65792719431474 227.66262159588499,65.86744880620654 231.05645266506522,66.4726869023822 234.3440562769199,67.06046486422939 234.51858777971097,66.24374962115448 234.98812571181702,64.05536622562147 236.58866130500937,56.60379993986877 237.76812829871872,52.004032313289414 238.32887797263083,50.99330005759406 239.45212333408145,45.66404801903897 240.125316272908,44.37395361418764 245.46029523549862,45.27021722921951 247.31302500882572,45.77663096513881 248.57218005567742,46.003542870815984 249.7361424501154,46.21502001771525 254.19427346696042,47.020141731633 255.65121691551022,47.283999281517616 256.32056862491453,47.42954696121726 258.12860045424964,47.823307910493654 259.52541120012876,48.12599679909974 260.41399235611766,48.23844006411343 261.5546978516486,48.38587343837672 263.1842871083762,48.59336967466835 266.09621847026983,48.96408324661729 268.59308751888824,49.38501216486528 270.8513114516358,49.767249425428325 274.4053567132206,50.36662091648232 275.39094637564375,50.50434645600322 275.7575393558989,50.556796699531645 276.5393343302177,50.66546857556691 277.7363312989971,50.834203313630525 279.1215485156198,51.0281504857079 279.44749430308326,51.07473412406504 282.80759239278916,51.54622759132743 284.7281373278299,51.79066947187613 287.4985019204827,52.141827693353385 290.7791214788243,52.55695984702279 292.18948128876883,52.741199184407385 297.008478362032,53.36787832551912 302.85182659549974,54.12837193608719 303.4241697986683,54.21567260767983 303.6219582001679,54.24472627121507 304.84807867287674,54.430990984150206 305.18561798959666,54.48344122767863 306.04123441183685,54.61145893255638 306.8171627813317,54.72969896214866 307.06935696146644,54.76853030091975 308.10537149171864,54.92574135031963 308.10537149171864,56.4389762718201 309.9193397666688,55.519595438917705 312.12008493728314,54.59574481165581 312.9683681032454,54.51459010730749 314.29617639832753,54.63639200434823 315.3534922922808,53.611132916885246 313.4970609705183,52.159427508767976 311.46840288373727,50.79928304502325 310.411086989784,50.01762775164175 308.97272112440066,49.19525542502476 310.4726165031176,41.52117718741131 311.2472179023437,37.45059131190642 311.6281980331811,35.410130174388584 312.0094575261908,33.46122998129292 312.59940054482354,30.233200347665083 313.8846759525008,19.35546682397034 321.3847814116181,19.692726778517976 326.2697079519817,19.91237526831134 334.495386753159,20.39734795924493 335.8165601970961,20.474940796194414 344.06354036217306,21.074382127791484 345.01993667987557,21.144222665055665 347.3829214184946,21.314912938225994 360.46440325590754,22.325715034414795 370.4031307557844,22.661298816127246 374.0968570919968,22.14720262111534 378.68118995979825,21.332442913047892 379.58520587446577,21.171809677285687 380.722070140773,20.96962132182077 384.3576193093222,20.18978188245985 384.5264238878793,20.154861613802947 388.75177639407434,19.248890164028676 393.7473303455302,18.108114827905034 400.4015970576432,16.92466692353843 407.4748371528478,16.08462494096378 412.584929585411,14.625795798048836 419.15573685555205,12.773066024771358 419.4788890214912,12.69156211775731 420.2867345164399,12.4878372704441 427.1019836668815,10.774858412287683 433.2789601470542,8.699057962904146 437.785630337512,6.956955600719036 439.2309104162127,6.398231302407081 444.7328082629455,3.5948321355122115 450.6828728374907,0 451.3056409084883,0.7352811766039411 453.8217859456046,3.70930077612607 454.5008454896521,4.514352649500747 455.7516895125235,5.992946664466965 456.1120666849913,6.50390003528883 456.9448452516821,6.33202247303518 457.52808357857714,6.549924949400662 458.2774725436903,7.111512709730375 457.79096336085877,8.294541570937804 458.3071547719643,8.980375647117217 459.18246622586156,9.40654260569848 459.923194964428,9.944175061740077 461.0006249331975,11.000513188288844 461.5682888202284,12.235643090309347 461.7638423247468,12.69156211775731 461.9209835336532,13.057805895297125 462.66164243162694,14.41075678370111 463.20046217690077,15.09659085993015 464.03107568680605,16.93130177453461 464.36791659819454,17.728182305064813 464.3904750915716,18.76615237027484 462.72924807156255,19.247842555981872 462.90887793365033,19.766827588611697 463.2716296842848,20.839648081935557 463.94677815831733,23.28602242218189 464.01459332003094,24.147365768606488 464.0728403280883,24.85156790612464 464.1194239664951,25.4452124730935 464.1523887000453,25.860414467305972 464.20085803286685,26.45405903427483 464.29018408025814,27.587012230219727 464.33285664845147,28.10886072486731 464.37937044626557,28.700619597322145 464.44145868394367,29.482344731246716 464.4608743534285,29.705485247895844 464.5287593555363,30.56878412932791 464.5656351592999,31.02861422689006 464.4182017850366,33.44390952805061 464.381325981273,34.0608109939265 464.185353433794,37.28905014918355 464.0941416919879,38.79641846551274 464.0574055694097,39.37839966278135 464.0205297656461,39.99334559364978 464.00299979077454,40.284371112506 464.0786370927166,41.739359025899454 464.0941416919879,42.014949786077004 464.12913180113827,42.69973625420962 464.1699186749168,43.46211555929171 464.0689990984676,45.714542727510306 464.04183112954564,46.286816090036524 463.95257492274703,48.2850237025202 463.9214958838101,48.99313691010292 463.89439775528234,49.55577227852906 463.8283984475893,51.03597262588664 463.80318601367475,51.58890015962001 463.7178408770896,53.490099265768656 463.7082028828406,53.73063007620317 463.69458397818255,53.998328855658905 463.6072833065899,55.95190836479291 463.34538129161353,60.08611896972497 463.30654995284243,60.687585676922204 463.2891596591563,60.968833520592206 463.19599238234275,62.42773250405022 463.1591165787776,63.01942153601161 461.6109613884218,64.23387863897055 459.52936417445966,65.87122019523459 457.51753765741717,67.45234011899176 456.44276162898655,68.29629317158134 455.8896944141174,68.73126003784509 455.17208289347116,69.29536205757645 454.83251820115106,69.56313067752565 453.1413994310899,70.89205642109845 452.64029357609655,71.28581737037483 450.40979633661556,73.08812227572405 449.65272491245946,73.69922697702135 449.36756599857597,73.93011979330616 448.5410730804637,74.5975159676534 448.27141876585165,75.3307717687068 446.5874935712801,79.90539680181547 446.39934316363247,80.41753746177028 445.96088427066184,81.60866782527911 445.89495480356146,82.26831170004029 445.81729212601925,83.0559034390369 445.78041632225563,83.4361153240494 445.72028361978346,84.04924540094686 445.6485573878564,84.76504106767182 445.52438091269863,86.02217073892334 445.4700449744577,86.5693015080285 445.3982489023349,87.30653821968953 445.36528416858624,88.0203783513574 445.3342051294508,88.72660586447572 445.25668213309405,90.41444212916144 445.0471605211526,95.0471744893406 445.0044181123666,96.00168511252912 443.7472884411151,96.11224268302878 442.4180134949758,96.22768909119601 437.785630337512,96.63094835348633 436.63710270175267,96.73109968396177 434.0569138919507,97.01241736817485 430.6037882066167,97.07450560585298 429.11576571912997,96.76406441761121 428.1884230649627,96.57004740499077 426.22318018612845,95.95314593911488 415.8982345151305,96.28370120207364 413.19400891115777,96.37023362779175 412.2802851618471,96.40124282633447 411.54695952015135,96.42449972529113 410.80001497379754,96.44782646474124 410.50319269046196,96.45760413992745 406.5164853001378,96.90570102719667 405.0633830812087,97.09776250476001 403.78879327567836,97.26454170781615 401.4084182431747,97.57882412562904 399.65374458417983,97.72590829717699 399.8279268842059,99.9700942819584 400.3854638934346,100.40177864294597 401.0126319183974,100.97719482971185 401.3613457210161,101.26493784334151 401.6398697837545,101.55261101642812 402.023224492957,102.04170429910509 402.5460507552076,103.10635344958447 402.82478433952554,104.74627910574361 403.800456645329,112.19840411579123 404.18381135453154,114.87434430215292 404.77605911073823,118.41330400777439 405.50791810117835,120.80143133991372 406.90200506592737,124.82934464717565 413.3137155921545,123.41947372083412 415.0910175851192,123.27553237347621 416.3456329968202,123.18920946938731 417.4595197261941,123.34481418649509 420.2832424893856,124.25392846040977 423.2799602635198,125.86507981520593 426.59075093388736,128.4390528170716 427.2971879686349,129.09248088399576 431.60704752489823,133.0789787525915 435.2579616117319,137.0634512455871 436.2740017481548,138.87211163985944 437.785630337512,142.78374045248694 439.55343401741305,147.3579464423868 440.5291761638092,148.6238061808274 446.1050351396489,156.70882613982377 446.1573457020912,156.81142188910817 449.38307059804583,163.12416837384393 452.26978952582647,163.63637887434183 456.2682301261955,164.34449208192453 456.6445309410938,164.73050073156526 457.77364290776535,166.21852321910157 457.9346951866867,166.83542468497748 458.39249990854944,167.17883060681905 459.5778335074797,167.5454934276173 462.63335701401587,168.6668530943554 465.49688888348214,170.04229263579188 466.8722585842763,171.023971227952 469.05093414506695,172.20148268670349 470.4458591965313,171.29942230704341 470.880407019487,170.65730840720337 471.75145820060436,170.31397232585525 474.26955877252965,171.3770151439929 475.5305995139946,171.74374780528458 476.21734151708506,171.5594386273569 476.6383402759754,171.1674935321011 476.97008282806706,170.8571221843528 477.1485254008731,170.6495561075677 477.5928508990646,170.804671940874 478.99154733955703,171.45076675137128 479.1856341926213,171.46243012107152 479.31749312702055,171.24320067453655 479.42609516251275,170.57580450018935 479.47267880091954,170.07134629932713 479.82188148729006,169.9375318298708 480.2971463436301,169.87739912724976 480.82493128399204,169.9298493707782 482.1461047279292,170.0578670756063 483.5505979328513,170.3701939583621 484.2839934149412,170.94253716148103 485.1511335260436,171.64275838839154 485.843742134355,172.20148268670349 488.34633810700893,175.61794208995278 489.94875939461605,177.33483201817376 492.0342676787916,180.24096661543916 494.1294837974118,182.93953513582025 495.320684001563,184.54195642342737 495.98612464075387,185.45302623239914 496.1354437096304,185.65744948509345 496.4187169287021,186.0435279752276 497.09966216736285,186.97478169945944 497.3317422728798,187.29290534684344 497.6428818664034,187.71970087021307 498.30050036556446,188.61792002030205 498.16473036115025,190.85281721364913 498.21522506957194,191.62692972897452 498.3470840039712,193.60188044255116 498.3858455021496,195.1014964592447 498.41301347107157,196.10643195036144 498.416924541285,196.27907775853924 498.3975787123929,196.76209491446537 498.3470840039712,197.99792322181733 498.416924541285,198.68466522500702 499.2744266581385,201.47633118160894 499.37339069938173,201.7635154709933 499.6565940780592,202.59377977828248 499.9321149976937,203.50952890324297 500.00000000000006,204.5415625228379 499.7245489209582,206.64648647625012 499.60421367522275,206.95881335900592 499.31514369132435,207.7232180396882 496.3702475958805,208.1926861313504 496.0345939737739,208.24702206934322 495.98612464075387,208.1899623504188 494.2963328409614,206.20223081855204 491.55704728744405,202.98181380347373 489.9080423614302,201.90515208057877 489.10487618261914,202.18060315967017 485.61096362350656,202.97210596878097 485.89800823160624,204.1264303691685 486.12701535362515,205.61249732164774 486.03189254180415,209.23254189107445 486.58279469988776,211.63812935754223 486.60416590438,212.20076472596838 486.7205900799021,215.41538497641847 486.65074954258824,216.44546306095629 486.448980230481,217.2195755762817 485.32189363960816,218.73476603283925 484.9299485442531,219.7125335549348 484.1248966710273,221.08804293686475 482.8579893245399,224.60716792994148 482.33809636499905,224.61107900000607 480.32242861813734,224.2541240139006 477.505550227472,223.83312525510954 477.0593390346672,224.66730063256253 476.05244800874146,225.82358056795752 475.090185085818,226.9293657948812 474.8884856143035,227.2320546834873 474.5353718577195,228.56866288620233 474.7467791638772,229.13129825462846 476.4385264988756,229.9053409294108 477.0011618672025,230.6794534447362 477.5113469921002,231.28657723542588 477.5520640252861,231.4593627246898 476.16887218426353,232.50697078404954 475.38121060472383,233.21305861608172 474.95832615141876,233.9172607535999 474.67693862676185,234.97073541808126 474.6070980894481,235.81461863017742 474.6808496967768,236.73805021428012 474.6886019964125,236.82346519135874 474.72163657055535,237.24055288008523 474.8884856143035,239.33381346379724 476.2968898892405,241.46981645629523 475.16973345777495,243.01797164645262 474.0425770265079,244.42637592148893 473.5789755400169,245.328436301149 473.51039213237914,245.4933996502342 473.1889859796694,246.26744232501653 473.37322531710356,247.6856242752887 473.8311697201517,248.9911534388683 474.8398766002965,250.93705048886008 474.96600861046176,251.75572126699208 475.0959818504462,252.60351554920243 474.5857967255485,253.16999214715005 473.66823174661704,254.18659100796705 472.52354534027995,255.0324297551203 472.18013941853764,255.4456762142757 472.06378508340975,256.0024449775802 472.2499799558515,256.9103719623619 472.7078545183069,258.3536965060055 473.1443578762701,259.5429411750499 473.2821532564829,260.7089289450881 473.2123127191691,261.5567232272984 473.0299590761496,262.24346523048814 472.797110724907,263.0156222107564 472.06378508340975,263.97585975798046 471.3770430801208,265.35136913996 471.0316816231725,266.1525797837636 470.8725848794571,266.8393217869533 470.6436475980309,267.45629309337227 470.37008221360236,268.1294860323477 469.0315184757806,269.4660942350131 468.34673200769765,269.87165823507587 466.81212588180415,270.64954213942934 466.14284401279406,271.0142494251705 465.7122072600518,271.5884783228034 465.665623621645,272.84756352906237 466.1234283435077,274.0387637331143 466.39510803352147,275.1503457246662 466.3252674962077,275.76731703108516 465.9371636304734,276.2251915935902 465.43864187542476,276.50064267268164 464.9051300110273,276.5685276748887 463.7139996474689,276.45405903427485 462.2240216249747,276.5685276748887 461.3529704438573,276.8440485945232 460.55175980005373,277.416252116556 459.68070861893636,278.2408593403527 459.29071905858876,278.56093852274415 457.5020330581458,279.43003416880447 456.08385110797286,280.3457832938146 454.25256237953226,281.43215285135267 453.047743270723,282.00638174898563 451.47828671666605,282.71065372704686 451.5500129483946,283.69421801372096 451.8662509014135,284.2393234072756 452.58993854866173,285.492611848956 453.57538852989956,286.1113990093459 453.96537809004866,286.86616569587846 454.0760055013395,287.1921114833916 454.23691809927396,287.6615097345604 454.74333183514364,289.1437354574685 454.67544683283734,290.24365407932015 454.91793317832895,292.3660381670608 455.086737756886,293.8366005202687 454.9315520831855,295.37693357024733 454.92952670738686,295.39250801006176 454.92764101297206,295.39446354511887 454.51250885930267,295.9531878434308 453.93821012112664,296.52546120600664 453.43382176085714,296.93675213010494 452.3241953044616,297.5032287281022 451.21254347226744,297.873802618965 450.5626074323479,298.0910066899494 450.3336701509217,298.2869792375773 450.06981260113633,298.51396098374795 450.248325014535,298.808897572768 450.256007473578,298.82244663698225 450.4927668950341,299.2162774267521 451.40844617935227,299.78079848969224 452.1048960172844,300.19984171342617 452.747009917174,300.6945920795956 453.3658669179581,301.6199093582124 453.57538852989956,302.2853499975025 453.98479375953343,303.5890633071112 453.9867492945409,303.69382411308186 454.0080506584405,304.8461929783627 454.5570671221093,307.9385224480698 454.72000509564396,308.7785644305948 452.11264831692006,307.94243351813435 450.4053963828488,307.76196556977783 448.80108940062837,307.449638687022 447.8853402757175,307.2382313806162 446.19561831651777,307.16832100280897 445.5826279205575,307.3313288168371 444.9404441802737,307.67473473867864 443.24492545644574,308.7728375065097 440.70147276942055,310.19290515129586 439.73732415208235,310.53624123259436 437.83801074034847,311.22298323578406 437.785630337512,311.2305260138402 436.7555522528749,311.3782387501765 434.8834068102615,311.15705376858443 433.1063143388764,310.67201123710777 429.43388936656356,309.9465077357397 427.6995393039645,309.599260584327 425.52477481318886,309.1802173605434 423.87185881716005,308.5186179507748 422.8262062928574,307.69415040806416 421.7805537683563,306.813391392254 420.954060850244,305.6590669919161 420.1839292453774,304.1186641013944 420.1177204161047,303.69382411308186 419.9899122329058,302.87131210537876 419.7377180525725,301.38321977729936 418.95976430787454,299.36175526595827 418.5756413527478,297.3829633228601 418.5756413527478,295.6233309858035 418.95976430787454,292.5988865184027 419.45640036850835,289.023400211733 419.32056052350146,287.5198731249253 419.12465781641663,285.37234644376355 419.0955343122887,284.6642332361312 417.9877935503079,284.5497645955174 417.55904249178195,284.50506665167427 416.8257168502847,285.28113470205676 416.5289644073434,285.80877996128294 414.8217124732721,287.585872432668 413.7780154839769,288.6703562957417 412.8079304210236,289.55111531150226 411.8942066715144,290.2844409530987 410.69141293830535,290.82954634665333 409.46333693058904,291.31458887813 409.3955217688754,291.3261824073368 408.20432156492274,291.5435261593577 407.0577494641709,291.7647111409497 406.1206989753605,291.9838707469912 404.26999457763355,292.50383354712477 402.98367156185986,292.86462976280137 400.94670245109853,293.7997247165547 399.01833537602795,294.67852819730774 397.7534534051407,295.8348081327028 397.5323382639429,296.4401160694215 397.28391547283616,297.9067673525648 396.8047395464812,300.75276924715956 396.5836244054818,302.51233174372277 396.6720425255651,303.69382411308186 396.91341142256607,306.9122855931031 396.8590754845236,310.43148042667326 396.47299699438946,311.09105446084175 394.8162397687399,311.64593752963225 391.3339207388837,312.99819001265513 387.00576296182464,314.77716817855423 386.76907338096123,314.88388451953244 384.1209297284588,316.0729895074907 383.4050642212404,315.74131679589243 381.20320160193694,314.47643482500524 379.58520587446577,313.71705866302705 377.32125501788124,312.65282855575646 377.0224771991412,312.51314748117846 375.9069142971306,312.1581480301301 374.41889180964387,312.2686357601363 373.2976718237934,312.6004481528207 372.50225794461807,312.835182198627 369.8657776619647,313.5665523051664 367.86945574399505,314.41434658732715 364.9904192752574,315.0797872266669 364.0010582238062,315.7393612608354 362.35596436800574,316.6046156773245 360.54011039844227,316.8878190560516 357.25173854046494,317.34764915356413 356.0779984707911,317.4931269927703 353.3154560181682,317.83262184454736 353.1680226441035,317.8521073544263 350.3666488527095,318.19739897083156 347.497320218615,318.88805204408584 347.0200998272675,318.7288854595792 346.59330430394743,317.7724891419263 346.009367571721,314.6393727984903 344.0421691576808,312.51314748117846 343.2971801463344,312.0358572493375 342.4630047689807,311.1143113597488 342.0886594890899,309.8902861031832 341.90239477625397,308.685466994374 341.3921398107636,307.6883536434856 340.5327519994953,305.17604983599 340.46479715659626,304.9761662182975 340.28048797856934,304.49503475688545 339.9759133955981,303.69382411308186 339.6461263785139,302.82661416153564 338.95547330521,301.0166267970938 338.6605367162892,300.23867305219727 338.41805037059913,299.60424161140025 337.370442311289,297.6778300712875 337.10665460209634,297.1927875398108 336.90104406016985,296.6826024149131 336.49170867112866,295.8251002980596 335.777728858325,294.2594849735738 335.0521555164635,293.04314217610084 334.15009513680343,291.8578085771706 331.9597562063622,290.1388932733494 331.4418187816303,289.7567258532798 329.84714979385734,288.5772588595209 326.43076023110154,286.208477356224 324.8418880075598,285.1279045632149 323.63518320433576,284.2393234072756 322.2655404275771,283.6708912742212 321.3847814116181,283.25073060189743 321.11896832682527,283.12383034565914 319.4951758347259,282.7299995558397 317.47755255285665,282.4972210450409 314.85853240448216,282.38079686936993 313.529676501502,282.7533262952898 312.60233384733476,283.1607061493235 308.20237999795444,285.0987112186431 304.59784002774944,286.68178667740773 303.18545484220476,285.9562831760397 301.86239570365433,285.6769210268837 298.48483747986813,284.2937291858115 295.9589147675159,283.3895735900578 286.86993708485693,280.14003307095084 280.1691565751284,278.013807753639 280.4756866931071,277.10392523380017 280.8714730180829,276.036971345598 280.9858718180048,274.8321522367887 282.14606282361325,271.3110717086549 283.8396260124337,265.8732176346076 284.1733240995329,264.59087552939195 285.0327817513939,261.28315784272104 285.6457721471556,259.5546045447502 286.1385669783671,258.4720762167335 286.6022383054508,257.0578053365756 287.51987312497494,254.8713774761493 287.6071039559749,254.66576693432205 288.48206620710715,252.92366457213694 288.6839053600056,252.52005610713127 289.1048342781047,251.6955885644207 289.49279846285214,250.93900602391716 288.41425104559204,250.2774764546916 287.8535013714814,249.93400069230694 284.6078719226871,248.9465951760617 284.3363319136603,248.86509126904767 284.10159786780434,248.79329519672638 283.26351142023714,248.5391454814849 276.0718217737118,246.35474299665879 275.6043092170074,246.2131063870237 273.2372737271881,245.4933996502342 272.17828166020115,245.17136493278565 265.90422683319997,243.25850245688713 265.4793868448874,242.3039918336986 264.28623110572875,242.0420898188711 263.1842871083762,241.80113996522778 262.07654634639545,241.55900282245153 260.9416376152942,241.40381714855255 260.6545231666018,241.36505565037416 260.00849819649875,241.27572960318136 259.8009321197633,241.85393941142195 259.3818888960789,242.01687738490696 252.41138423114563,240.78307445310554 252.17469465028222,240.74033204431953 251.85265993283366,240.68404057121998 244.15469623142556,239.32026439953333 243.88692761142676,239.2736807611762 236.3441495839176,237.93700271796772 236.05514944061193,237.8865080094964 235.7874506612058,237.83810851716828 234.2489334652974,237.56649866759835 233.53502349288797,238.10964852614552 233.49821752991554,238.17173676377402 233.38759011882317,238.36379824133735 233.2576867194314,238.5907799875576 229.2664396943535,245.4933996502342 228.58996425005228,246.6631588093004 226.9274102597745,245.87556707025416 226.1217298216114,245.4933996502342 224.44220458080667,244.69791593046614 223.81496671544963,245.4933996502342 223.71663123894513,245.61750628499775 223.5711533996893,245.8037709979329 223.29570232064754,246.15297368440267 221.32654837159984,249.4684436707093 220.83375354058677,250.17662671883508 220.82020447632286,250.19792808273465 220.53888679206017,250.60139686665417 220.1664272067826,251.1368642660591 218.8627138971243,253.67242497246173 217.08373573132445,253.03226660762917 216.82378925155402,252.93714379585776 210.08222186764993,250.51221050054752 209.58754134202357,250.33369808719846 204.98386264533002,248.6751948481706 202.93711585953136,247.93781845542344 203.31551189062253,247.02402486552003 203.40469825682845,246.80675095399258 203.49395446342854,246.5933182720362 203.94791795586903,245.49535518524166 203.9335308050883,245.4933996502342 203.14475177685952,245.38668330925603 202.89444329133804,245.35371857565622 202.54335491035422,245.30517940224198 201.94964050289192,245.22563103023538 201.38323374553698,245.14810803382898 200.9796951209255,245.09370225529307 200.62267029432658,245.04711861693593 197.2490231403568,244.59119958948799 195.34195742918575,244.1605628365472 195.07816971979457,244.10238566898326 194.78134743626052,244.03450066672656 188.4820801751463,242.61436318144695 188.24539059448142,242.56205261900465 187.81859507096289,242.46497427217616 182.85803122885582,241.34948121055973 180.4640372914956,240.86450851962616 180.0352862331681,240.77916338304098 179.07882007487288,240.58514637042055 175.9981539748164,242.4456284433337 175.2046257902543,242.92284883468122 173.2316306117844,243.94328892501974 171.80772173737748,244.57772036576716 171.08214839551593,244.72124266991625 170.71737126928136,244.79303874223754 170.06359399954258,244.92301198217237 168.81247061449886,245.4933996502342 168.72300488631916,245.5340468429266 168.5542701483548,246.66127311478638 168.46696947676216,247.582749163832 168.4456681128626,247.80204845091 168.42241121395557,248.0658361603012 168.3680054353204,248.63035722319174 167.9275910071438,250.37057389091245 167.8519537052018,250.67710400908965 167.79964314295802,250.89242238556002 167.7491484343378,251.0961472328236 167.62699733458172,251.59858005808564 166.50563766794286,251.36964277685792 166.2029487791879,251.3095100742369 159.60888461033832,249.9651495719358 159.55454867229585,250.5490863042119 159.66126501337328,251.29407531550862 158.76109032812798,251.12324536130177 158.21975632350217,251.02239562544523 154.8752326738588,250.38991971975491 153.19123763849606,250.04462810334968 152.62867211076187,249.9282737682218 146.78343818268084,248.72757525110634 145.0917606884736,248.38011857811406 144.9191148800973,248.34519830945717 144.58346125799068,248.27535777214337 143.95489642236493,248.14734006731524 143.3243760517317,248.30441143567862 143.10326091053383,248.3607029087285 141.89460057210385,249.12315205435368 138.15813182710545,248.41308331171388 137.85739847355646,248.65556965715587 137.79538007647102,249.10178084991105 137.6381690269719,250.24060065102722 137.14732973096628,253.79080468314012 136.9533825588889,255.18957096402673 136.2957640597279,258.5885003924045 136.24135828109274,258.8756148411961 136.17542881399237,259.21510969297316 135.66719922410212,261.84383767609006 135.64191694959493,261.9660586163396 134.81158280166343,266.109907215471 134.75927223922113,266.37376476535565 134.44303428640077,267.9510434595913 134.32074350565782,268.5058566878387 134.26836310262283,268.73667966358045 134.21598269958784,268.97141370938675 132.84438438782172,275.1523012597233 132.53017181060153,275.74594582669215 132.42143009412243,275.94960083341266 131.56986442288405,276.21548375889745 131.41656444339986,276.1786079552331 130.97615001522325,276.07384714926235 130.24086883871857,275.89729027102 129.3446750640809,275.2085927327732 128.61127958199097,274.6421161347759 126.30654185142933,272.86893473350506 125.1134559528634,271.81552990951707 99.58666973231205,248.21718060457943 98.60121975107425,247.35576741766138 96.64896721215935,245.4933996502342 95.7746335257658,244.65922427283084 95.55540407918123,244.44963282039595 92.17707760927235,241.38174753877846 90.34900154571369,239.5499699266852 88.58294387924046,237.6221615758599 87.28823999889386,236.20865894157646 85.35330791327088,239.1539740802787 86.31955174680195,239.52377972521734 85.32565106059704,241.24863147470322 83.46523882802846,244.62423416363086 83.22463817715013,245.05878198663618 82.98501529377553,245.4933996502342 80.45629895989906,250.08150390706368 80.22345060865639,250.50250266585476 79.73072561803751,251.3988361214297 78.84214446204862,251.1291119664234 78.59190581711984,251.05347466453102 77.49582842478969,250.71977657738222 76.36664661772396,250.12417647535628 75.93992093499664,249.77888485895105 75.38769180664434,249.32778482862756 75.03171458794337,249.1171457681459 72.24605491759885,248.10655319353668 71.32848993866742,247.53427983096083 70.62233226609217,247.99208455292282 69.85604189104475,248.8030728719126 69.63681244446019,248.73323233464842 66.32902491719656,247.6894655048102 65.64416860852089,247.36351971729707 65.20186848573101,247.15399810540526 63.894383787243164,246.53129987490115 61.5798683814457,245.92019517360384 61.27529379827596,245.8406468016469 59.95747270000922,245.4933996502342 58.86775079665185,245.20628520139292 57.117826294387235,244.88809171351548 53.765480504317004,244.27510131770413 52.38619973330939,244.1625183716043 51.08639749386453,243.76868758178483 50.32394834823936,243.71442148433508 48.42854600671893,243.57851179873552 47.5614058956165,243.535909070986 47.50127319294584,243.54750260019281 45.34389899605481,243.94915553014138 43.615345698083964,244.30611051624686 42.32525129328226,244.5718537606455 41.634598219978365,244.71544590533767 40.08064626519279,245.03748062278623 39.82461085563579,245.0898610257716 36.33817123398657,245.4933996502342 36.237531019709635,245.50499317939136 35.34901970431344,245.85419586586116 33.273149414386836,246.66902541447166 30.708465203856274,248.1608891315295 30.382519416392775,248.3187985863601Z"/></svg>