<svg xmlns="http://www.w3.org/2000/svg" width="500" height="500" viewBox="0 0 500 500"><path d="M319.2053128845746,160.06707273484662 318.6294315391877,161.50501905578372 318.5270088264507,162.41216716687956 320.64831605910894,162.54073124156582 322.73156832567213,162.66449559082554 324.081491110091,162.7454052485029 324.9171575957648,162.79785939099924 326.0027526426409,162.8621414283728 326.7745656376487,160.06707273484662 327.6193173178342,157.00767630377763 331.1857704595998,158.15772480668596 331.5715483931706,158.28148915594568 331.9095862002204,158.39094003819423 337.0959466830937,160.06707273484662 337.9282705028531,160.33611448854748 336.4140428309456,163.366883985655 336.854503350976,163.73346301733696 337.2377957124129,164.05255905072957 337.4830959669082,164.25491890431314 337.7520520111579,164.48110596643164 338.2330530694172,164.88111165756249 340.0519775981941,165.1834943612611 340.6519432801039,165.57150073873424 340.9113855830735,165.7406053516494 341.77096498636797,166.295316479294 339.9281275394832,168.79991607338906 339.37110225848517,169.55930120797072 338.611631414696,170.59261353107001 338.00455185394526,171.41405225906198 337.9401841070596,171.50447565826306 337.6878556831746,171.84731319080035 337.4783819507501,172.13058270206125 337.01880823846466,172.7568611647008 337.0378357215121,175.21612049501863 337.04734946303586,176.32802832250266 337.3997864464262,176.54941565913373 337.6139741947652,176.57324286766863 338.47355359854686,176.66375197625993 339.4543260697596,176.76848884241127 340.27096507214236,176.85659808831977 340.3733877851229,176.86131210435607 341.21856801207684,176.89465305441473 341.37575902072456,176.90176693319475 342.0637482392744,176.93510788325338 344.2398237675998,177.04233032153869 344.99938032108366,177.0779854249508 345.1945405863752,177.08038528769453 346.5373494921967,177.1017269240955 346.8801870248558,177.10652664952204 347.2492516286108,177.11372623769228 347.9158135011868,177.123239979216 348.5181790457794,176.87802543405007 349.91567053781694,176.30420111396776 351.7441945178123,175.55664387426333 353.4750098007416,174.98761927960757 354.31547601202465,174.71386350987038 354.70596796150994,174.58761358847673 357.44866822180825,173.7019785325623 359.0936884123652,173.5401592171467 360.74127988450726,173.3805683457553 362.03403451033256,173.25320420241044 362.60314481419584,173.19732168460942 366.4433537258204,172.79491613079577 368.36470096757785,172.39011071423838 370.33361691695393,171.38071130900335 371.916840642454,170.57127189466905 372.3002187130984,170.37354034779244 374.38329956100296,169.30697278402474 375.0238057811417,168.97844871843773 375.96900885839335,168.492733644203 377.1093722009366,167.91188115467 378.002206845204,167.50707573811263 379.33310214657536,166.9023103307154 379.83784470379663,167.30711574727277 379.83784470379663,167.31902935154022 379.8497583080032,167.47853451354143 379.91875436135217,168.38088289921075 379.9425815700089,168.6784658774828 379.96632306921447,168.9998760642289 380.2425644109638,172.65683831452486 380.74730696818506,172.7568611647008 388.12542779700397,171.04027363920977 389.0587172700491,170.78074562703264 389.5920010518416,170.6307542065552 390.91578247437207,170.26168960280017 392.472779128289,169.82842867100092 398.6390549888381,168.41893786530568 399.98906348270805,168.60946982401202 401.46746463230113,168.81894355643652 404.5006339922742,170.6378680853352 407.1267694916048,170.13312552805303 407.53148919877196,169.99033369574582 408.0314320306276,169.81180105069714 409.0908857156153,169.435536858711 409.33610026065946,169.3474276128634 410.11939831310536,169.06895782702904 410.8050733784235,168.82845729796026 411.4359801475874,168.6046700985855 411.6741665234853,168.51896071542072 411.87644066761777,167.50947560085635 413.43823704714396,167.2405195565457 415.6405396468088,166.86185550187673 417.51894648765455,166.53813116171625 417.7380196710539,166.5000761956213 417.89761054238437,169.9426792787369 418.0404023746916,173.06155802175292 418.2427622282752,177.70649233149274 418.3450992318046,182.24908963776403 418.3450992318046,186.38696723686817 417.8928108167752,188.91307988608372 417.5547730097253,190.81299978211086 417.1451678677414,191.9557629874587 416.85469876831024,192.76040267636648 415.4548074135899,196.67209321341304 414.7286775197375,198.69106344260268 413.8192152551055,201.01001651274726 408.46229309968317,208.68563461026528 405.77444684450313,211.92124953309033 404.5196614753217,213.43067747951036 403.1055423629195,215.65440742502733 401.184195121162,217.570869231968 397.0654307145565,221.60880969034733 395.82975853787366,222.82065465855618 387.64219829472046,228.47507408292128 387.9111543389702,229.34168165578822 388.50160627959986,231.23680182632793 388.58088745880195,231.49153011301763 389.71585111030885,235.13897862185075 389.9681795344375,235.94841803618505 387.9040404601293,236.53655582327852 379.7735626663622,238.94584658329484 374.9524098648663,240.52907030861218 372.8167891653187,240.9862441582757 369.164626640632,241.76945650133135 368.05520438509916,242.01475675588753 366.73142296256873,242.31002558080613 364.6482564054566,242.7718277371766 362.03403451033256,243.35225167975847 358.0009794868918,244.24800044292823 353.57974666695384,245.06935346153 350.21573908822296,245.6931463520356 342.22805312676303,246.6263501156296 336.5212652692918,247.22871566028314 335.06180589329506,247.38350680624802 332.69768397803193,247.5668391767841 315.6296031293951,248.89764876876527 315.54140817433995,250.3595080075666 315.3533617876458,253.42833247076908 315.2867655969796,254.54495431428944 316.165286774114,255.5306122203798 317.4580413999393,256.9852718710109 317.85093321235104,257.42341823762695 318.39373073566725,258.2019165646463 318.93661396843464,258.5756951844985 320.19362778164026,259.18517460799296 320.9602982137215,259.5851802991238 322.38393106764744,260.325537950658 322.78153689597366,261.65171923593215 323.2100838117975,263.07783766193114 324.15760104228093,264.1110642757011 324.4291283681157,264.4063331006197 324.6766570666352,264.6777747170034 325.08146248325346,265.11823523691197 329.1502583193139,266.13483423031727 329.5287509553851,266.2276574922621 330.87155986096303,266.56338114601937 330.85253237815914,267.2966249187735 330.8429329269407,267.63474843521357 330.83821891102616,267.90379018891446 330.7787365989573,270.14646190808867 330.77162272036,270.475071683005 330.76202326938517,270.786882418898 330.7334820448139,271.9345310591235 329.9906388211458,272.0178405794837 329.60966061318425,272.05829540832235 326.3908447291998,272.4153606984806 325.93615645173116,273.51535492169717 325.8171061186295,273.8010242957018 324.8910162338764,276.0342679827425 324.78139393284744,276.2961101482122 324.6457159793811,276.62703407648206 324.39338755525245,277.234199346623 323.6028899147581,279.2126290375837 323.49103916970495,279.4935843955521 323.3719888366033,279.78876751108044 322.6030042510468,281.7172286316788 322.22922563113366,282.69808681228176 321.60071872465267,284.3408785588755 321.2912221419304,285.1504036826 321.04352202475235,285.3789906074622 320.6460019058772,285.7741965731056 319.8794171830035,285.92178813083933 319.01272390086814,285.94801520205704 318.39844475182537,285.76939684761817 310.06080737886543,282.7409415038641 306.4777266169788,280.95295806221947 300.5447516972673,278.2387990263706 300.0208959475474,279.2222284884977 297.9828982353712,283.0528379490865 297.97347020305494,283.0719511415242 297.37350452114515,284.19808672656825 309.3442769359879,289.11206279000896 311.19885656817695,289.71922806014993 316.0700636494255,291.3142796803445 321.284022553882,292.80236599036357 328.7264254198917,295.34742041323636 335.69982654129984,297.7543970198992 338.09737511570734,298.5829496266712 344.3731875680779,300.7827666543239 345.2445948663714,301.0875492207662 347.21111095306475,301.4899547745799 354.20113969483754,302.91607320057886 355.0296923014268,303.08509210416474 362.03403451033256,304.1612591188464 362.51494985914076,304.2350548976828 363.0934881953203,304.3230784342011 370.8073326777137,306.2492254014459 378.73313646442193,308.5228382079351 386.2445353840243,310.65605904486074 393.9369525204438,313.2392541432187 400.32950115244074,315.8177352255404 401.4485228587048,316.27002364032626 404.8911259417595,317.57717744255297 406.95766487850693,318.95315587946993 408.33612888774064,319.77930862355913 409.50751902698903,321.08886228846865 413.0905997891192,324.3909876926305 417.4498647248544,330.15014398314696 421.65442422407585,336.2093688240695 425.5138320371629,342.4042716185191 429.3421273445809,350.5061224783248 430.199221175985,352.3180188378946 433.3133859027211,356.698711119421 433.45857759795473,356.89841398215106 437.5154598298086,362.4816946184723 443.37223910787907,369.36458663135005 447.8418120197651,374.3405305787499 452.17656407196534,379.16639739634303 451.91943592247105,379.3925844584615 451.0027740697905,380.20442373553954 450.9885463123523,380.21873720248976 450.38618076751607,380.74962112166037 448.2934147594291,382.06148893998426 444.860239708447,384.21622283203044 439.49157536747674,387.7921040059295 439.2581887174316,387.94680944250416 437.83207029137174,388.8968122451824 435.6965353010317,390.2062802007626 433.45857759795473,391.69693779230585 426.8137005420727,396.12262749998763 426.1375392185219,396.57260176141995 424.2519327893841,397.8273014212112 422.46626350109295,399.01763333423867 420.8830397758365,399.8438717876572 415.95003622928743,403.7364491322051 410.36941258400236,408.8313577034382 405.5125189696432,413.58111458878045 403.9603220410919,415.09774212343166 400.7151933765604,419.2879024462517 399.6080852745029,420.7164207349944 399.1247700632555,421.7497330580937 397.25827682661634,424.1495957859765 397.1963946518647,424.22819129030034 396.3726417703974,426.2399619313197 396.12262749998763,426.8494413548142 395.1988517684662,429.1159402824624 394.082229924885,431.24676125664433 393.69173797539963,431.98960448031244 393.4180679149918,432.51346023003236 392.92515325252594,433.4514637191138 390.5823729737856,436.4108373000677 390.51577678336304,438.0439438863573 390.4872355585482,438.71307704051833 390.40384032885873,440.798643460435 390.3752991042875,441.4866326788631 390.2395354413701,444.791243655098 390.2977321126464,445.7649879569818 390.3752991042875,447.06254230829455 390.1705393880211,448.3719245544845 389.0658311486464,449.6790783567112 388.37304220473095,452.9503483828875 388.2325645256554,453.6073965140615 387.82544495604907,455.5311436185627 387.3445296072409,457.39052297636096 386.31130299359273,458.28335762050654 386.0303476354417,458.8427827642483 385.6946239818671,459.51662993444563 385.4137543331672,460.073740924834 384.24236419391883,460.3498965573149 382.406640625875,460.35229642005856 382.15199804851466,460.35229642005856 375.86658614541284,460.35229642005856 365.3934137826,459.9404628340505 364.37912894230465,460.1308233740373 363.43161171182123,460.3118415912199 362.84587378734966,460.42129247346844 362.03403451033256,460.62459513028364 361.46740977835964,460.76652986874944 361.2555361832523,460.8665527188645 360.5389200309237,461.20939025140177 358.43424041863017,462.21176148724703 356.9248124720883,463.0688553185903 356.1010595908647,463.53545720038727 352.3703872710616,465.65436457030177 350.4822952697899,466.43526276006486 350.24188045011135,466.53528561024075 348.3753872134722,467.30667005841923 346.51352228354,467.65190745370023 344.30659137716816,468.5042015596169 343.92081344359735,468.65179311741156 343.5589484281344,468.79227079636524 341.34721779615336,469.64696476502564 340.10203187794673,470.2135894969377 338.871073717422,470.770700487326 337.5568917458664,471.36835201594323 336.19025563163177,471.61588071446266 335.58557593356386,471.72310315274797 335.04269270079647,471.82064043079 334.11180309043414,471.98965933431487 328.2431102084007,471.8991502257236 325.9004156391115,471.7207032900042 324.2862508263574,471.5968532314152 319.1651151839066,471.20644699119833 313.8606471709197,470.44929030057995 312.74642519026486,470.3255259513202 312.3868743280336,470.2849854130913 308.8990166905919,469.8992931889716 308.3466197163008,472.4468331839784 308.3061648872794,473.3705232060487 308.2347689712476,475.02522855690984 308.1823148288122,476.2799282166402 308.1609731922894,476.7489299611809 308.1395458465591,477.26558612273055 310.7583960483901,477.26558612273055 310.48224041584837,479.6749625921371 307.30147949820247,479.39409294355903 303.4540709985295,479.0558837177287 302.4184445221985,479.3916930808153 302.06129352240646,479.50594368855127 301.1136905824719,479.8130404083471 296.86404794776575,479.36066628417103 296.53312401955685,479.3250111807589 296.1235188775729,479.2821564891765 291.85707720359983,478.82738250225674 291.416616683813,478.779813794638 291.06906513523944,478.74167311915284 290.6095771321615,478.6928187707416 285.6098916854952,478.16073492022963 284.9717853280393,477.9370334302451 284.3623916140569,477.72036010965036 282.8767051667206,477.1965900693207 278.13166229741466,477.1537353777383 277.722228574333,477.14893565231176 275.71045793325266,477.12982245987405 273.36776336396343,476.9227485901933 260.2089731895076,476.8537525367834 258.4161900226191,477.0608264064033 256.95201663022067,477.00365824787065 253.02798394213823,477.1234799654843 248.37696426617933,478.24198741546786 246.42647583418,479.5392846386099 243.6693763972976,480.8463527314464 242.08615267204115,483.2580433542064 239.59578083562795,485.5555690785598 239.40773444893372,485.7317875703159 237.3911640824878,487.5911669281141 235.81745409875506,489.0410268532578 233.12952213412393,490.69341805076544 231.39870685095104,492.0028002969554 228.85605229100463,493.92886155481006 224.5228430077067,498.00485697928434 223.92536289768728,498.35249423730903 223.09441042841516,498.83100972337354 222.81114091703245,498.99291474811844 222.46350365900773,499.1929604483485 221.4230774570675,499.7929261303192 219.1851197539905,499.89972002171424 217.0828400043798,500 216.5304430300887,498.6239358536927 215.4495619993707,498.43820362041293 215.05435603348369,498.3691218576128 214.53298585614135,498.2786984584117 212.46404705646748,498.3476945118216 211.62598070811083,498.1953889379907 210.80222782688716,498.0477116708667 210.19034854052722,497.93586092587447 210.0522707243781,497.24778599805614 206.40019390889893,497.24778599805614 202.81694172811004,497.7976974002742 202.50984500831424,497.7359009350346 202.19083468431185,497.6739330510145 200.14092336768547,497.2644993277502 200.51941600375667,496.44306059975816 200.64326606246755,496.1669049672773 200.83139815836927,495.7549856719399 196.94353482967492,494.9669736033968 196.21731922637144,494.81938204560214 192.89608062989365,494.15033460083134 191.90802286093776,494.4360896842262 190.6129540818808,494.8098683040784 190.35342606970366,494.8859782363292 188.66066575286933,495.37649303599045 187.66069437970688,495.6645622727388 184.13229620403627,495.77401315498736 184.02044545922672,495.8573226754084 184.05610056239524,496.41683352854045 184.03947294203059,496.5073426371317 183.99421838788717,496.7715846653452 183.9252223345382,497.16919049373234 183.72037690882067,497.56208230602226 183.43239338152347,497.59773740937345 182.0348161797912,497.63587808491957 181.93719319266347,497.6049369976046 180.70160672518813,497.2073311692175 179.59689848605703,496.97394451892876 178.39456725931103,495.50505711073765 177.97073435964526,494.9860010864443 177.91125204782003,494.9145194609004 177.1184402538504,493.9431750218212 174.87568282516415,494.0455977346191 174.4377078775113,494.0646252177275 171.52358885063987,494.19790330845 171.1426106426783,494.2170165008877 170.75931828124143,494.2336441212524 166.13572560771988,494.4455177163597 165.13815409772747,494.4907722706858 162.27640350408396,494.6146223292749 161.88359740112335,494.63364981232235 161.46696408974967,494.65036314207725 158.798059608166,494.76701361249604 156.9100533163454,494.6717047784782 154.37691249767914,494.54554056647476 152.17469560746542,494.4444034944085 150.71515052201755,494.40052029020427 149.89714016939115,494.37540744093775 149.03078972457308,494.3353811590502 147.76057666636837,494.2646709179576 143.22757881107194,494.0121710752311 140.46345120479975,493.71698795970275 140.11349979354335,493.6813328562906 139.04444665758078,493.56708224855464 134.65895465050608,492.9313757538425 132.74523554380914,491.61882226045765 132.20766629287058,491.3047830806623 131.74414994875642,491.27504192474964 123.51844903054437,491.42383341382475 122.18832511350236,491.4456893065671 120.26937773442774,491.51717093211096 119.9598811519491,491.59336657369107 119.99476487103188,491.8240962331263 119.98362265115469,493.20513152357967 120.03599108413901,495.10265155686307 120.35431573301955,499.19621740493363 116.82523188222711,499.3186104040106 114.24555086862492,499.48985775155967 113.81923239706882,494.2569570734459 103.2745784082859,494.61787928586 98.93005548645213,494.58128137927713 95.11358807427679,493.87177910566766 91.47102500032133,492.35755143376014 89.4068859260131,491.2576429199338 85.61655987572615,490.1576486967781 79.62161707205546,489.1245077923984 76.33611928819732,488.9537747011907 71.69589899455471,488.71250278767076 71.21498364574653,483.8914356955651 69.97459745314916,483.4795164002277 68.1175322485826,483.46991694931376 68.04373646962439,482.64384991461475 67.96994069090977,481.8415243790605 67.73895390330385,479.27264274765275 67.66755798702846,478.48694483246317 67.50093894630814,476.63467935344494 67.47239772173693,476.31318345730864 67.36286112991544,475.09902433580714 67.01050985597622,471.12073760809443 66.98668264731951,470.8373823874433 66.57004933594581,466.1304801936225 66.5629354571049,466.0614841402126 66.47722607394012,465.0806259596097 66.46762662320886,464.9758033840072 72.39348766383584,460.8451253730733 75.23861063711469,458.2047621161827 75.3576609704599,458.0929113711904 75.38140246942189,457.9952883837582 75.48862490776808,457.5405143968384 75.63373089330696,456.9215212318202 75.90988652584876,455.75013109245003 75.85751809262084,454.35023973766874 75.82417714292758,453.43357788504915 75.77180870969966,452.0360863929507 76.03853631016884,447.7886722022078 76.16615758156257,445.7649879569818 76.25272405850784,444.3936378267718 76.33611928819732,444.1672793458729 76.8076066049329,442.88660974303457 80.49773838650705,440.2581600903505 81.35251806467947,439.648680666856 80.85968911166474,438.98443294757266 80.80972054111963,438.91775104745534 79.74546713076631,437.48220458932286 78.59790419993104,435.93223610467396 77.63135948615657,435.24416117679476 77.75272397273348,425.4732914991167 77.76935159309814,424.0924276273829 78.04799279753027,422.56877192334196 78.04550722563992,413.73590573474536 78.04550722563992,405.98863459296393 78.08596205441769,403.37929813271757 78.09076177978332,403.11985582993066 78.13833048764562,399.9438946377722 78.15744367990062,398.7296498068805 78.17415700971641,397.5892007548253 78.18358504178902,397.03680378053417 78.27889387568506,394.0156337342797 78.28600775452598,393.7179650466783 78.37411700061716,390.9276960786395 78.38354503268977,390.6062001824423 78.39314448342104,390.32533053392507 78.49076747103597,387.15408335786384 78.50268107524252,386.81835970410657 78.51219481676625,386.5255764513219 78.52890814658205,385.95415199392244 78.71215480742342,383.1090290206436 78.73598201608013,382.77099121359373 78.7550094991276,382.4638087844077 79.15261532745383,376.31184639093067 79.21929722757112,375.28573365600164 79.26609455086046,374.3405305787499 79.33363354475824,372.9858937782948 79.40742932371646,371.53123412766365 79.49785272279573,369.7193377681548 79.5121661896851,369.42415465262644 79.52879381004976,369.12657167435435 79.65735788491872,366.5314629717289 79.67398550528338,366.231480130774 79.68829897217275,365.93381144311167 79.82397692563903,363.2411654624442 79.8382903925284,362.9411826214893 79.9096863088038,361.5197782115266 80.43345634907257,352.76087922054694 80.45496940425399,352.38461502856075 80.51445171607924,351.4180703149081 80.56442028662434,350.5966315869161 80.65724354838643,349.0277213286099 80.6668429996049,348.87533004538875 80.79532136477913,347.3135336658626 81.14064446932856,343.0851469581672 81.23586759401707,341.9399838900756 81.45725493064812,339.23773845849416 81.47636812314673,338.9854100345482 81.63107355990408,337.10460333095875 81.86197463781527,335.69039850916636 81.90954334567756,335.3880158054677 82.04530700835136,334.557063335952 82.73338193635236,327.53369364412055 83.12147402315485,321.25788119205447 83.14761538479964,320.834134001779 83.21669714784335,319.6983989658209 83.43328475886517,317.3128497050102 83.46191169288751,317.0152667267381 83.48813876422703,316.7199979018195 83.70001235933435,314.39873067832144 84.1047320665015,313.8201923421419 84.3118916454507,313.5249235172233 84.52145108732633,313.22494067620755 85.1451582684417,312.3345916041959 85.43562736787287,310.7631957737558 85.49510967969812,310.43467170816876 85.54996368481639,310.1418027459939 85.62838777048158,309.71805555577924 85.65221497889469,308.11091891253676 85.65941456718674,307.7799949842669 85.66172872041842,307.50152519843255 85.69746953328169,305.2420544401742 85.87128816229405,304.8397345957507 86.11410284465539,304.2826236053624 86.59270404023188,303.175601212756 86.82386224649646,302.91607320057886 87.80214914557523,301.8184788401669 88.26875102725043,301.29239464642285 90.51862233477759,298.7709960133045 90.25669445991764,298.01872475750287 90.1091029022448,297.59969158332456 89.62818755343662,296.21882771159073 89.54727789563748,295.98784092404577 89.1806131545653,294.9355868272892 89.02822187152682,294.49504059792946 88.93308445604585,294.2259988442895 88.38300163523002,292.16425963290766 88.10924586537105,291.87859025890305 87.90208628642183,291.6595170756255 86.93554157264737,290.6477178076467 85.3499179847081,291.3357927355259 85.1451582684417,294.77608166522714 84.20946893271375,294.85699132296537 83.87143112542029,294.8879324102803 83.49525264306796,294.9188734975343 82.24526699925212,295.0308099519168 81.28103643895294,293.1713448847892 80.59064735796387,289.79773785508354 79.29780702244385,289.80733730599746 78.2217257170915,289.8143654754482 76.33611928819732,289.82773613916686 70.43648531866627,289.8691337712371 66.53190866039974,289.8952751331255 65.96759808190207,289.90007485855205 63.91057288667835,289.9143883255632 58.33946298267341,289.16211706976156 52.61604750483753,288.7858528777754 51.289951929075386,288.27639630439603 50.31380776456965,287.9026176845438 48.69955724236444,287.28122465678194 47.590134987075245,286.87410508687105 46.52116756056382,286.48121327458114 44.776038810745156,285.8431926265155 43.554680100951664,285.39561822776597 40.94774350332719,284.4385015462468 39.328693255756335,283.8433355897635 38.326407729605805,283.4742709859476 37.62881906008108,283.21954269925794 36.94314399500651,283.06003753725673 35.745526784418594,282.7790821793493 26.034225128077825,280.50778352621364 23.70095859086119,279.876876756928 16.84669351200582,278.0198972618735 13.834951498006667,277.2056581220518 11.744585352602504,276.6389476807495 11.311238711413013,276.46521476112736 8.563824434956624,275.35570679638704 5.168790059520613,273.9867565289207 4.911661910026298,273.8827053378303 4.368778677258927,273.6629464794309 0,271.90110439967464 2.5593678897621883,270.69877317298955 4.911661910026298,269.4960133994751 9.185217462840317,267.3108526763335 15.660989905624465,263.3992478487381 26.272240085073534,257.54718258688666 37.038452829146145,252.5046424486988 51.006596708241545,246.03358402182917 51.349434240900635,245.8859067547052 65.95568447769551,239.58866695678702 73.33629087840472,236.4007921603611 76.33611928819732,234.99824381472635 80.41451457547622,233.09146716808988 83.02213684797893,231.49153011301763 83.72855358390557,231.05826918127926 86.79266403088904,228.58692482791355 92.58996099713427,222.94201914507218 96.9587396743932,217.45190460819572 102.22995244665077,211.9593044991853 107.54144862927106,208.14052293353464 108.4033421860408,207.51912990577276 121.50727835513476,199.017187645446 123.99285046618233,197.91727913161964 124.47625138688086,197.70300567376862 127.15698376346356,196.51490220470444 128.81168911420295,195.7817441413405 129.32594541294796,195.68883517006637 132.53053353925057,195.10309724565573 133.45422356107724,194.9340783421308 135.32560223277676,194.59364067233722 138.94210965429497,194.4436492517989 140.22055081298728,193.99367499036651 140.28011883426365,192.69620634844404 140.37054223358652,190.67723611925436 140.67292493722425,183.98479035569278 140.37294209626936,180.9015667160889 136.90882595803322,175.48524795810974 128.37602831978177,164.73343439037762 126.56181780667579,161.99793371818868 125.27969114450812,160.06707273484662 125.15001284799249,159.87191246943328 124.68581082875649,159.16952407466474 124.03347671361877,157.92673801914094 122.35014442885704,154.7293494811913 121.31931767789169,153.7911745733903 120.75500709939402,153.27451841184063 119.79077653885125,152.39608294403556 117.15521300744803,150.66518195159423 116.25046475921769,149.3105451510782 114.21735248161461,142.3157166838789 109.20575343098531,141.43959536942728 108.1914685906899,141.26337687767122 107.43902591629049,137.42548211958288 107.65818480889739,137.1611543819792 108.22000981526111,136.47787917958746 109.02953493929013,135.4923069828873 111.66509847069335,131.202038100562 113.3864000123425,128.6616976937255 115.24337950721433,125.92379715879284 115.25297895818919,125.9142834172691 116.25766434726614,124.43331098603005 116.6362426925449,123.60964381407481 117.08621695409904,122.62638577072816 115.96479538515216,121.91208377163125 115.20292467843656,121.42405454404305 115.05293325783731,120.75980682475966 114.97433775351345,120.40976970405212 114.75535027956522,119.43842526491203 114.51973518549593,118.05516153049543 114.49110825147359,116.84803057838377 114.60064484305147,115.70526737297503 114.38877124794416,113.88642855340568 114.04113398991944,110.88180041812565 113.69581088537001,107.90571350747773 113.16972669162595,106.47719521873503 112.93171173463024,104.39642852430573 112.64355678843077,101.8895147769181 112.59350250892173,100.1918690250843 112.5769605980082,99.65627108987741 112.49125121484343,96.75397995806591 112.67689773836761,95.26126534133985 112.58407447660552,94.27792158860298 111.93405451494309,92.34946046800461 110.76035022221942,88.87111657214756 110.60315921357171,88.64261535667558 109.93188332483764,87.66647119210894 108.27237824848903,85.61176015017782 107.14392851015235,84.20946893265284 104.56304756520875,82.25246658748327 103.07744682708001,81.72629668440989 96.47071044674409,80.49071021705636 95.72315320716146,80.35974627962638 87.80926302441614,78.98599628673352 79.29780702244385,77.5550781352471 77.93837049674485,77.35991786983378 76.33611928819732,77.13115952625202 70.25075308544736,76.26240921875115 69.73881094017761,76.1885277305245 74.36480347589479,74.4385992549748 76.33611928819732,73.66627200350383 79.15261532745383,72.56259227687279 80.81443455727774,71.73635382339339 82.36431733259734,70.75309578004672 84.66664278231634,69.28892238789189 84.78569311566156,69.21272674631176 86.75452335558656,66.17724323310702 88.04736369086298,63.94399954606633 88.9282847306802,61.67981477171071 89.44965490826615,60.34420545430303 89.99013827835071,58.39903100401069 90.40437172704159,55.14447430746748 90.54484940611711,54.03025232669086 90.54484940611711,51.966027543235995 90.49248097288918,51.7112992565463 90.09718929779464,49.763896362290694 88.98065316390813,46.052080106754666 88.87823045092757,44.99982600993722 88.53539291851209,41.56433680566255 88.53067890235398,38.51925384154384 88.64261535661468,34.65513201217688 88.65204338893089,34.362348759392226 88.6711565811859,33.667159952733016 91.5137939823308,33.07910787502977 91.57336200385076,33.06488011740883 92.3470606053218,32.90528924601741 92.65184317164233,32.86954843327595 93.52805019554505,32.7648115670637 94.28983519280953,32.07922221131846 95.45891117882623,31.026796695781464 96.9493116423206,29.683987790203535 102.42742686541759,28.088936170008953 103.56316190125384,28.731756543501138 103.73689482105866,28.831693684286854 103.85363100092859,28.89597572159953 104.24643710388919,29.119848630364526 105.8654016420089,30.038738927008275 107.5201069927483,30.976828125419058 108.2367231450769,31.38394769532992 108.9127987594202,31.767240056705877 111.91982675726125,33.62670512389435 115.15767012404956,34.748040983451 118.28134859255302,33.77909640711552 128.27369131625233,31.28152498247116 141.5228191803363,29.895861385310845 145.41308237171347,29.25312672114799 147.76057666636837,28.86623456568691 151.13418369607407,28.310237797249773 151.5032482998291,28.505569481443555 153.7888604199759,29.70310098264124 156.68395196355624,31.222042670585015 167.1023560309455,38.74784076634514 167.46902077201767,39.14544659473227 168.22849161605046,39.97151362943122 168.6974933604085,40.48097020281062 169.14515346873097,41.07870744081806 169.8521701700847,42.02142494593582 170.3616267434641,42.699986132230364 170.52361747747742,43.433315614313855 170.67832291423477,44.12841871158284 170.94025078909473,45.31172245515958 171.04498765506338,45.790323650614276 171.21409226816124,46.54979449458616 171.2830883217538,46.86880481864944 171.5425306242362,48.03770938588568 169.949793157456,54.13738905564682 169.71657792606953,55.48259782396847 169.34751332231454,57.618218523637836 169.3260002671331,57.74438273558037 169.32368611365783,57.751410905031065 169.25469006030883,58.156216321588445 169.21654938476277,58.89194566641565 169.0879853101374,61.31554989338223 169.04744477190852,62.10836168741277 170.57367175747365,65.40345892212396 172.93290823767643,65.54393660107768 176.449478518348,65.0938766302551 176.6994927890014,65.06062138958667 178.8993098165323,64.77958032228902 181.99676121393983,62.71312709481 182.50150377116114,62.37508928776015 186.43453594454775,59.75375351385607 187.85594035444953,59.194242660724036 188.8821387987079,58.78952295355689 191.0534146019112,57.93482898489649 191.3342842503675,57.822892530514 192.14852339006742,57.50388220651162 195.17457887119954,56.31106472135024 195.20543424924605,56.29915111714369 195.83171271170292,56.05153670923401 196.6173249176241,55.74204012675537 197.29828596654056,55.47308408244473 198.11955327587387,55.14927403295492 198.57672712547648,54.970655678516025 200.59569735484885,54.811150516453935 202.25991644711198,54.67787242567048 208.21903272846828,54.20647081844693 209.7666013505562,54.280180887954025 210.1403799702257,54.299294080391725 211.0356144771759,54.342148771913216 211.86168151163125,54.38260360081278 212.67120663541667,54.42305842965145 213.37582347433118,54.4563993796492 217.84462500188786,54.67307270024394 219.1851197539905,54.73735473761752 220.08026855148958,54.780209429139006 220.60883831736757,54.80643650041763 222.0730117092788,54.87783241657123 222.58255399210933,54.90165962504524 225.24425888540097,54.482626450927825 228.4155060615231,52.81849306793313 230.7939414436756,51.57090728698281 231.97013130853324,50.828064063314685 232.73671603140693,50.3471487145065 236.82933907612409,47.76163946279502 238.49595803107002,47.2759243885603 239.8839357815838,47.4140022047703 241.06243979991672,48.17827277422962 243.26465669013047,48.74729736888539 243.53841245998942,48.81869328503899 244.80982544953557,49.1472173505651 246.05972538365666,48.8019799552841 249.50952805500341,46.98785515181196 250.0142706122247,46.7212132608548 251.24042904738383,45.84980596250042 252.62609264466593,43.8403494748345 253.00218541781075,42.40240315395828 253.18080377218874,41.71432822614 253.60215109972054,40.10727729228773 254.29262589040437,37.46220001929987 255.54021167129378,36.62884768704044 257.0686671006395,35.17418803647024 258.38516322591397,32.262468872464325 259.3446797698114,31.067251524620133 260.3279378134017,29.838778936107516 261.2302861989492,29.074594076099324 263.31353846575604,27.479456746514515 265.46338692274185,25.262926389167813 266.0514390004451,24.793924644627086 268.2394281332206,23.043910459748062 270.6250631036651,22.62967701105718 273.19385902549993,22.184416765661133 276.32705123552716,21.64161924222309 278.229285284786,21.310695313953257 278.53646771403294,21.53928223875456 283.4338161571699,25.1938446263677 286.5051261924454,23.012969372433133 287.8859043546671,22.022597450306456 289.69771500484666,20.7249573896035 289.9739563468396,19.546539080843523 289.99058396720426,18.563281037435967 289.3668767860889,17.38709117263925 289.3349071861521,17.218072269114323 289.15731734421325,16.277668917350052 289.3668767860889,15.099164899199845 290.19774354615345,12.880320388499655 290.6095771321615,12.364349902010943 291.0643511190813,11.79463963235514 292.3667051958815,10.158961764541433 292.87367619712694,9.523340979158597 293.5974919377476,8.618592730806464 294.01172538643846,8.097136843769384 296.3902464777985,5.87349260764266 296.4497287898673,5.816324449110003 296.53783803547134,5.84975110849798 299.0258100094453,6.752099494167297 300.4305010897749,5.699673978630301 300.54706585074257,7.218701375964306 302.93981469978445,8.204359282054678 304.77305269569433,8.959030400600033 306.04677983847216,9.482800440929699 305.334877702058,10.28752583922769 304.89921690763686,11.275583608061778 303.6612305777223,13.163589899821467 311.3417341099353,16.213386879976476 313.48206882564097,11.525512169264042 313.54155113746623,11.406547545491753 316.73191150608693,5.061653330564649 317.0723491758196,3.8236670005282964 317.8151066900366,2.8332093690113913 318.09846191062684,2.916518889432446 319.5174664580894,3.3283524753796145 321.4697547871009,4.102136786362674 326.0932617509277,2.511713472814169 327.1075465912231,2.1642476336308083 328.45266965027633,1.7022740584798741 330.4906673624526,0.8475800898194763 331.40244378031633,0.4642877284435217 332.5095518821302,0 332.88101634881167,0.061967884020090985 332.9904672309384,0.8975486602427835 333.31907700591563,3.387920496655989 333.47386815188054,8.182846226934156 333.47386815188054,14.292125347548367 333.23473897299453,17.218072269114323 333.1024036854427,18.83935096052663 332.9404986606369,21.322694627550042 332.7725939788804,23.686302286350003 332.5000381406065,27.574679871142123 332.4571834491459,28.160332086162555 332.40721487860077,28.860320618248295 332.25722345824516,31.0054550593805 332.0834048292328,33.46480009914944 331.96195463320475,34.70990030796582 331.6239168263985,38.22167086327176 331.6168029475576,38.293152488815586 331.5715483931706,38.74544090366233 331.3953299012318,40.58339291560848 331.3096205183106,41.46662810884009 331.145315630822,43.17858732768506 331.0715198518638,43.93325844616952 330.98829604083295,44.80226588184109 330.89778693230255,45.76641073275003 330.8667601355974,46.080707040716106 330.631059332077,48.513910718596655 330.5144945708657,49.59479174931464 330.1501439832688,53.01365333328555 329.5026095937403,59.05376498177033 329.4359276933794,59.68235759770247 329.16920009315385,62.165444136616095 329.0597492107835,63.110732923197126 328.5859477410598,67.17944305011092 328.48121087460396,68.07236340364673 328.18122803364906,70.64364489779817 328.0098092673195,72.13164549842702 327.0289510866557,80.55010681961316 326.6670003617416,83.08573321035247 326.5741770999795,83.74526691359955 326.46704037084083,84.4905099999505 326.40275833364996,84.94759814022377 326.305135346035,85.62367375444528 325.92184298484176,88.32111946053925 325.87615988368634,88.64261535667558 325.57189157334176,90.77815034695472 324.5362650970108,90.91631387255494 322.6911134968944,91.16384257107438 321.3125637784532,91.34726065100071 320.90792978073716,91.40194323739942 319.7293400531967,91.55913424610803 315.8700179490736,91.52090786123262 312.4702695577231,91.98048157357893 311.3607615929828,92.17092782289505 309.95135649649507,93.27572177153817 309.67040113883127,93.49702339883989 309.2204268772771,93.84937467290092 306.4324720625918,95.75889401984203 304.60163392936477,96.67778431642488 305.4587277607689,98.0444204305986 305.6301465270984,99.07053316546676 306.12528963334483,100.80854803674899 306.1420029631606,100.86563048595232 305.91341603823753,102.17518415086182 305.9087877315306,102.19892565000652 303.258910733238,105.46068193471996 300.2423689936296,105.82974653847496 298.60197710977957,106.49390854842902 295.06415090179274,107.92482669991544 294.7140280718777,109.51525001340305 294.14268932374665,112.11747259486941 293.5808643173829,114.66724103377854 293.37850446379935,115.59341662798276 292.93804394376895,117.60047325290498 292.92604463035485,117.64804196058456 292.30705146515396,120.47173758801132 291.90481733012075,122.30017585849463 291.76193978836244,122.94771024808402 296.7639393882605,122.74543610389068 298.43055834345006,122.67866849444405 299.5233529783746,122.94771024808402 300.10189131455405,123.50482123853324 301.46132784049666,129.61872866585443 305.38493198181067,128.5927016403156 307.02763801913596,126.94519587762467 309.4537278181147,124.92862551117874 310.4608130701181,124.42388295389654 313.08926272268036,124.6238429447364 314.91770099322457,124.73329382698495 315.92950026114244,124.10247276715045 320.450755930891,122.8906277989416 321.30065017424664,122.66444073682311 322.06260659016976,122.45976672988604 326.61463192875726,121.95493846321362 326.84793286959484,122.34303055007702 327.23371080316565,122.98825078631292 327.3146204607212,123.12632860258381 327.4955529685745,123.43111116902615 327.88124519269417,124.07153167983552 328.9550123448148,125.869028862943 327.6264311966751,126.43565359491595 326.2932217420721,126.53096242893379 324.08629083570025,126.69038188160565 320.54597905582307,126.62609984423207 318.39613059835006,127.32128865083038 317.23665406330826,128.4069694070358 316.3724463533068,129.21649453076031 316.6890568146264,130.22589393599537 316.69377083054087,130.2354076775191 318.1437164650139,132.50199231461846 317.5104098331672,132.56387448924832 316.7865940925466,132.6352704054019 315.55100762507124,132.75432073856442 315.74145387444827,133.25914900523685 317.3842456212247,135.53276181172598 317.4175865711615,135.54698956934692 318.3246489728671,135.8898271018842 318.7126553504621,136.03750436900816 319.97695446116734,136.5446467890341 322.5053812636755,137.23743573294956 323.1386878957657,138.39451240530857 323.26485210746466,138.6278133462071 323.66245793603446,139.58493002772624 323.8957588768721,140.14444088085827 323.712426506336,140.78726125435045 323.35536121623863,142.03476132591055 323.16722912009334,142.69900904525483 323.1386878957657,142.79423216988243 322.13871652260326,143.21326534406077 321.93644237822724,143.29897472722553 321.0101810748155,143.21326534406077 317.0247804682009,142.67046782068363 316.20334174020894,142.72995013256977 315.1320601604658,142.80854563689363 313.59400527990164,142.9203963818859 312.4298147289453,143.3537430230145 311.6513164018651,144.01327672626155 311.5821489296138,144.36794215367607 312.03692291653357,145.40125447683624 312.48689717808776,146.42025333292437 312.85124776568466,147.25112009304985 314.4820401988034,150.95333689767193 315.35104763417047,151.43185238373638 316.19622786161165,151.89374024949709 317.51752371200814,152.61987014341034 321.05072161304435,154.13401210592758 320.24599621486817,157.46725001612396 320.0293228941516,158.00764767681827 319.400815987427,159.5813576606119 319.2053128845746,160.06707273484662Z"/></svg>