<svg xmlns="http://www.w3.org/2000/svg" width="500" height="500" viewBox="0 0 500 500"><path d="M293.7885121930242,254.06198487556898 293.70706941975027,254.13747981991207 293.85814427736943,255.43563599291355 293.90772368085374,255.91834480416935 293.9395445662372,256.22397824798406 293.8203755629345,256.31128388140667 293.1194239102799,256.57328575072825 290.29892089388704,257.8242416518479 290.0026765231734,257.954031778444 289.2615345399847,258.2832866004178 288.8591214206831,258.7411844676982 288.91813238164445,258.97722831169455 289.0880703543384,259.23680856491694 289.56716798376925,259.96732942481225 289.6852323902188,260.14198317618434 289.8478205455615,260.3819355935427 290.1702353641743,260.8583142153373 290.55969071292577,261.48262384232913 290.72491290688123,261.824878919229 290.7780185233179,262.0514487212516 290.87951397745275,262.4810094316042 290.9609142663205,262.8267482369296 291.18518990564337,263.62337496818765 291.38575919793465,264.6370549749678 291.31141133485085,265.0146996346699 291.27959044958817,265.17996431306165 290.910230265983,265.6850199677574 290.8924717478821,265.70864134594666 290.7366811114037,265.92225337757003 290.7166284306635,265.95054805000115 290.4873396210348,266.286302999453 290.4216161101421,266.38248789195626 290.0770243861365,266.885206899516 289.6628005777855,267.4906109270571 288.9877644659897,268.80881978082897 288.31153878840774,269.62664627414694 287.9858526637623,270.01962783588095 287.5067125499253,270.5990313536001 287.19394171130307,270.97790806358506 286.214504205915,271.8157872377036 285.64567932711327,272.33031693437306 285.2326026000216,272.74339366134393 284.86676862948957,273.2967966692412 284.559903135392,273.79246325095653 283.71021327216374,275.7963293398176 283.5898971876017,276.27546945368476 283.27122100433405,277.53704647806757 282.9584926502387,279.3036791571461 282.8417027785083,280.1345059053902 282.68943835498226,281.2024810944535 282.36137309888517,283.52736001362763 280.027062622234,283.46715948681975 279.3083524513578,283.5084544141769 278.69351686643023,283.48840173340653 277.8084799048662,283.6016653921846 277.54881468268064,283.8105616450393 277.3293397910292,284.14338516446213 277.18179114624166,284.9281587221138 277.0141898207139,285.60434191522927 276.8171467414958,286.15545076051734 276.4206389668396,286.71722321356526 276.22351091856774,286.91426629284376 275.8588665137011,287.12320503019515 275.5673804061321,287.19517376161605 275.1189140964193,287.2164160082028 274.7448381340756,287.08072053705183 274.49464695389395,286.84229756142287 274.2656980202387,286.4363582292896 273.87033732684176,285.6975953777336 273.7971790296649,285.2609397570399 273.6721046818375,284.9587900416809 273.4844506755695,284.70983091175185 273.18705922347584,284.6520095165767 272.44829637185944,284.73578893707713 271.8641770754621,284.8183787917914 271.4381425779411,284.78770498772764 271.1560880279699,284.7464100603705 270.73948508792586,284.642535474603 269.8756478886028,284.4230605829214 269.01295777041827,284.22597501914623 268.4087433087539,284.08080550602153 266.0071798794505,283.7539298156503 265.6082929731013,283.74683490530924 265.4855977568462,283.7857931855304 265.24483813414156,283.8624776956898 264.95335202657253,284.0288894554012 264.66186591900356,284.30975443967685 264.1201886311321,284.9033477781082 262.8916645424156,284.7558416178475 262.13170192879966,284.66496728697587 260.7662928030856,284.4903135356038 259.61921148776366,284.3428073753431 259.01852323905166,284.2660803807172 258.62906789017944,284.2159486787761 257.6542611945969,284.0902370634986 257.33681706176304,284.05013170195775 255.13233919620464,283.81408785796145 254.77241057019725,283.775172062237 254.12333248366636,283.7054974934554 253.70320333079073,283.6607188376728 253.07422040952687,283.6359078936672 251.58726314893778,283.85419321950224 251.23086073588277,283.90615175464944 250.92871102052374,284.0938057609476 250.66913076727116,284.405344549287 250.21123290008128,284.9777381256283 249.8253462486883,285.59138414483004 249.4075537428581,286.12834565387243 248.67826493336636,287.1373523664409 247.90763871183964,288.1357379556858 247.47922508286703,288.73995241741056 247.13701249043368,289.1966607188746 246.95161016227817,289.4657150140707 246.41477610672587,290.24462571166424 245.32198997374752,291.6595717563659 244.7389752739619,292.2838813833275 244.13709745946375,292.89871696834564 243.6756733792008,293.28812983266084 242.27963293401018,294.6618234345021 242.0506840003549,294.942645934281 241.56797518915945,295.5822924633047 241.16203585702624,296.00951652652134 240.2792930581015,296.6986999745629 239.44260344970874,297.35249383980215 239.0578638796958,297.6534539893448 238.61534539903448,298.1219304954219 238.3497748322035,298.4016483983779 238.16216331034167,298.44294332573503 237.80814002897972,298.44294332573503 237.13425099832247,298.38040615179114 236.27984535647641,298.2446681961435 235.61424080215764,298.02634038581175 234.98878409384616,297.8281077407169 234.36451695132084,297.6935593508856 233.2705412525563,297.51652646788085 232.91651797095287,297.52714759117424 232.55297816306017,297.59911632259514 232.1258390688067,297.68289574309557 231.74109949879372,297.8705922338904 231.39765485604735,298.03696150910514 231.03067380413526,298.3237318379356 229.5141898206813,299.61831931348803 229.4587475571992,299.66551958540003 229.0220919365357,299.6856147506671 228.58777296291768,299.5074347863427 228.31404537344957,299.3953182088843 227.85495794035282,299.6242246580429 227.14686889286054,299.96647973494277 227.08433171894686,299.91456368429226 226.76217180737444,299.5440139349613 226.61581272837307,299.263106466189 226.6051916051099,299.08607358318426 227.38643894989977,298.64946044698723 228.26089727248603,297.67112753848255 228.5005098139314,297.24509304108227 228.92764890818484,296.92174356363313 229.1247769564567,296.8179114623623 230.93270456283204,296.25380236217836 231.6514147335875,296.09801172576033 232.3158297221201,295.8796839154286 232.90942306064204,295.6401563429766 234.554507604755,294.86953012154044 234.8259410315838,294.83881383297995 235.0749426459793,294.84947744077004 235.68391537090903,294.45764296035566 236.11938142578637,294.1779250573997 236.52294162634726,293.74131192120274 237.09767184979438,293.1170022942109 237.2534624862728,292.64848330363714 237.2534624862728,292.38890305041474 237.17087263149813,292.0761322117925 237.04575579914388,291.78583567000965 236.88762851562,291.53921318721666 236.63739485091148,291.1958110290273 236.26922423321324,290.8700824199455 235.90810604129896,290.55025915544877 235.10680601576885,289.6557056674747 234.9942221089376,289.4657150140707 234.80465630053055,289.14589174954375 234.24177925065962,288.49095080298486 233.9196193389665,288.12745347952847 234.1367575834517,287.32615345402854 234.27364262044918,286.81990823354664 234.65009771436516,285.9265443113587 234.7114453224927,285.7801852324177 234.75278273428614,285.4049197043483 234.56512872801818,285.1972130172797 234.15562069840576,284.8171892259751 233.88656640327002,284.5693771773657 233.310646613916,284.03598436574225 233.06049791826118,283.8176565554105 232.727674398778,283.619381425819 231.92518480758247,283.32908488406633 231.75881553236775,283.25592658682905 231.14512702869948,283.2146316594719 230.09363582286696,283.1827258051253 229.8127708386819,282.78740759625526 229.3548729713713,282.2645934234285 226.96868892859646,279.54796499280314 226.72907638715114,278.9236978503382 226.41753759872117,278.1943665562592 226.21926246919003,277.72937377860757 225.5229841107471,276.4820290594336 225.16305548473971,275.77865579067986 224.77831591472676,275.3301894808765 224.02663777720784,274.5654686039952 223.72334098058948,274.2846036197196 224.40899821564847,274.03088622655537 225.6835330104909,273.5576514572431 225.73188036366219,272.8224148186394 225.76850199683787,272.0353046138517 225.78736511179193,271.63875435469885 225.76259665219243,270.73595887506406 225.74721726578463,270.03968051665134 225.69058543627486,269.92756393919296 224.98368595456876,269.75643640074304 224.48682980715776,269.62078341408875 223.71858271732413,269.3186336987297 223.31854872971556,268.89497833296207 223.2252952672716,268.7330699295058 223.16628430631027,268.6305973320078 222.9019457897923,268.25418472261873 222.54201716378495,267.89421361208446 221.67817996434113,267.2073668111488 221.05743903476815,266.8049536919377 220.36116067632523,266.3541507350285 219.71327215570122,265.93877984538807 218.20035686972648,264.69139264171747 217.29399269270309,264.32908488404723 216.77003143852642,264.12014614669584 216.16348032969586,263.8640921064258 214.84170277841457,263.2079615940506 214.02859206395587,263.95020817406225 213.94600220918122,264.02459852158233 213.70052680773807,263.88061857424384 213.4645254482988,263.74135440567403 212.99366981055883,263.46401563432056 212.34454923950105,263.07341320421926 212.04834735319352,263.04154983433915 211.87254652050177,263.1217605574207 211.7922508284872,263.2339196193758 211.76038745857687,263.76850199681564 211.83120910870832,264.3644744668495 211.83945110039917,264.8129407766529 211.70260854792855,265.03594188125663 211.50310136796364,265.3487127199091 210.80682300964148,266.0685699719842 210.39497833298358,266.6161526043501 209.97841787758716,267.0244710680858 209.5382360438506,267.24751465718623 208.1138159571752,268.38397484921484 207.4989803721269,268.9587050726921 206.7342594952456,269.7540997536372 206.03207579239876,270.128218200387 205.7972639986249,270.27572436064764 205.53284051329473,270.44094655454273 204.5203500722102,271.93729288814234 203.80988189314562,271.97629365286014 202.8988444217898,272.1190840343521 201.98423825307552,272.2618744158743 201.53700399355498,272.27130597335133 201.28324411589406,272.33031693437306 201.1958959979748,272.4471068060431 201.17703288302073,272.60175036117164 201.3151074858044,274.6056164500327 201.41775002131925,276.1055314810512 201.42960319489546,276.2696065936266 200.96342085148788,276.2908488402133 199.81162375730668,276.34272240636716 198.0744753165359,276.4206389668094 197.24721726574091,276.48908148530813 197.00412099587007,276.5079446002622 193.64546690467893,276.7711360354001 192.28834225506185,276.90687399104775 191.88117087261563,276.9469793525886 191.28524088716898,277.00713739489976 189.081952587276,277.21841277938717 188.5910017843897,277.26442348548284 188.236978502907,277.2986235024688 187.82156512864913,277.3787917410537 187.2763616279461,277.4838983771342 186.4773982495822,277.63021497157854 184.4346163650269,277.9217435636442 183.9460446937129,278.0208598861766 182.98423825308663,278.2144192370296 182.62193049538618,278.2840513213145 182.2277593678962,278.3607358314739 181.2978587815863,278.5011470813634 180.58976973409406,278.60735831426695 179.44506755034445,278.6286005608235 177.61466564700896,278.66169598101663 175.93771773310644,278.6923273005837 173.85597756820925,278.67817996436816 173.30601580424087,278.9213187187055 172.2510408701036,278.73251763111784 171.73646868899786,278.4575579913669 171.1098224149002,278.0550599031625 170.65430367916193,277.6090152094885 168.95492395270537,276.15154218714684 168.05093890737504,275.2605573965916 167.3475656386213,274.54898462064364 166.92272070700716,274.19491885466425 165.88541932191703,273.32870252361795 165.06049791828823,272.77168833380523 163.78715268935272,272.15918939592314 161.77028634553545,271.09588750110163 161.16964058122954,270.5990313536001 160.7058373693943,269.98190160594265 160.47217265700047,269.38473957009245 160.0780440139166,268.244710680645 159.9989378876882,267.79624437084163 159.94230605829915,267.4670320333343 159.93283201629527,267.41507349821734 159.8821055314309,267.1235873906483 159.87976888438544,267.1130087518516 159.6661568528526,266.77542696919363 159.63191435124924,266.7211742714373 159.3911547285446,266.34119296459914 159.26255416776482,265.7405047158268 159.18816382027492,264.9675418472546 159.23302744502072,263.0651287280619 159.06546860401983,262.7760217520954 158.48721216762036,262.3205030164477 157.78502846453202,261.75639391626373 155.77058373693464,260.1348882658132 154.50781714673548,259.1200186932167 154.2340045883344,258.8981221854359 153.5779165604256,258.3705922338706 153.54720027189535,257.85368340559864 153.64563684251107,257.1802192200289 153.79148610755234,256.17792505739175 153.84340215820285,255.57256351434734 153.86817061768159,255.19135015722637 153.86817061768159,254.68272580511177 153.80448636250858,254.2885546775916 153.72669725552618,254.06198487556898 153.6958959979422,253.9723001104835 153.66517970941192,253.88138329514535 153.37254652058363,253.4494859376567 152.9772283117136,252.99158807037628 152.58301469957598,252.39446851902275 152.43083524510368,251.9448551278997 152.41783499026818,251.9224233155268 150.92849859798602,249.35092191352948 150.5602854957609,248.63930665311503 150.4977483218472,248.14835585013816 150.54851729111766,246.62362987514427 150.52370634723283,246.0253207579442 150.37029484232673,245.5296966607557 150.08471407940317,244.90067125502534 149.57608972734894,244.38023621383124 147.909720452062,243.22253377521594 146.47115302917106,242.35869657577211 145.9118021922525,242.0553997791236 145.2969666072042,241.61283881387507 142.5649587901107,240.07162885549945 141.94540742632387,240.5566318294248 141.69050046728293,240.73952757245755 141.39663522814163,240.76905429520167 141.2160761321845,240.7879598946826 140.21059563259857,240.56958959982398 139.8979097629093,240.3925567168192 138.48292123371093,239.5901096100298 137.53292548225474,239.56767779762671 137.43848245390387,239.58892004421344 136.90271051067788,239.7116577449652 136.83188886054646,239.78838473959112 136.58288724615093,240.05387033736838 135.33431047669416,241.93028294676932 134.6333588240396,241.63170192882913 133.71637352363223,241.34378451867897 133.71637352363223,241.2564364007597 133.84858526641807,240.85873906028715 134.2580508113829,240.09639731500837 134.3347353216329,239.93117512111328 133.9039850454941,239.74352111481514 133.4178349902793,239.6444047922828 133.10863284901552,239.57829892092008 132.70027190078312,239.60073073332316 132.21407936104146,239.68807885124247 131.49541167481286,240.11878664291478 130.99621888011492,240.47523154052683 130.20078171470337,241.4133741184672 129.72635737960493,242.20290593935408 129.38180814000538,242.7752570312289 129.02893193990272,243.41490356022243 128.70796159411648,243.89047497667073 128.4766335287681,244.2102982411675 127.79212337496841,244.93839748496364 127.71310221767297,245.31846376076496 127.57026935162395,245.96868892858538 128.22172656984793,246.02413119215805 128.3126009007196,246.17873226275975 128.3326535814598,246.2118276829227 128.2110629620579,246.6649672869679 128.0010196278835,246.98474806699818 127.42628940431563,246.85257880876938 127.00620273608762,246.84081060415636 126.04796499269905,247.62320503020555 125.80248959137664,247.82385929139957 125.25724360602601,248.38087348121232 124.5503441243199,248.93317189228654 124.07591978922146,249.26476336139632 123.41269436659574,249.8383040190573 122.94889115476047,250.46732942478764 122.62792080885349,251.03024895915524 122.50637267397845,251.57192624696629 122.51108845271696,251.6486532415922 122.54885716715194,252.28235194156437 122.75184807542159,253.02702013767527 122.82500637271923,253.29845356447385 123.16845101534486,253.92743648570752 123.2612796330032,254.06198487556898 123.7525703118629,254.77360013598343 123.67473872035362,255.02731752914764 123.18850369608508,255.0933809160137 122.31638202054428,255.15948678734622 120.8353301046006,255.10404452377355 120.49307502764037,255.14886566408305 120.283031693466,255.3140878579781 119.73073328245215,256.0870932110168 119.44396295362166,256.495369190286 118.83617979435732,257.54333418304543 118.53173591635894,258.299813068266 118.43610332222192,258.5429093381369 118.06088027861897,259.52476845956375 117.81774152434201,259.52476845956375 117.13327385506918,259.3595887501352 117.01406236723959,259.3595887501352 116.878366896149,259.3595887501352 116.51491205718926,260.0322457303587 115.95080295688457,260.00981391795557 114.56886736350341,259.5188631150089 114.76217180725563,259.2235109185443 115.84578128991814,257.568145127051 116.04872971366093,257.2566063387116 116.4358059308401,256.68306568105066 116.68952332397413,256.13544056421824 116.93261959384496,255.6055739655471 116.91018778153244,255.37428838478598 116.20333078423245,254.6673464185832 115.24271390939232,254.54584076814447 114.34697085563208,254.39123969754277 113.56338686379674,254.13747981991207 112.9367405896991,254.0643640071715 112.9194069165046,254.06198487556898 112.91078256431346,254.06079530975265 112.90661908406192,254.06198487556898 112.52842212587281,254.16938567425868 111.57842637441662,254.86447446685506 111.29046647967922,254.97421191268077 110.21892259322723,255.17367660808864 110.03955306305626,255.15829722156008 109.71025575664616,255.12881298331266 109.04826238421273,254.86447446685506 108.63875435472104,254.4773982496759 108.31939841950658,254.06198487556898 108.27406746532755,254.00297391454728 108.14194069171617,253.63951907558754 108.10884527149285,253.09779930327983 108.1195088792829,252.36970005951383 108.1820460531966,251.74657999833838 108.26578298923056,250.9063216926173 108.32126773723955,250.1498428073967 108.29649927776082,249.54091256696364 108.13127708392612,249.34382700318844 107.77015889201185,249.14674143941326 107.33112413965532,248.9709406067215 106.18994816885804,248.6853173592107 105.28953182088617,248.46698954884877 104.64283286604831,248.3136205285299 104.5661058713922,247.85453309546335 104.54252697769964,247.47098309120636 104.52247429683867,247.15234939249575 104.44578978670943,246.87853683409466 103.78247939503,246.52451355258177 101.53441243944494,246.06423655369886 100.8699549665062,245.9509728949208 100.04745517885583,245.96159401821416 99.33465035262506,245.9403517716274 98.67609822421099,245.96159401821416 97.91847225764053,245.99464695391063 97.48062707107015,246.01707876628353 96.99800322880769,245.9403517716274 96.66874840680372,245.77512957773234 96.4929050895851,245.5344124394942 96.45985215400938,245.21692582210326 96.4374203415761,244.70124904414436 96.55896847645116,244.4168153624197 96.99800322880769,243.85742204100444 97.1844676692895,243.6816212082825 97.38151074850764,243.58365196706984 97.79807120402478,243.34174526301535 98.18281077403773,243.17767015043995 98.44600220917566,242.99120570995814 98.81893109013927,242.55221344212845 99.25792335796895,242.2123374968613 99.81727419488752,241.64236553661917 100.24802447102633,241.16556206988804 100.50059478290105,240.8256861245907 100.73073328234251,240.36545161020445 100.86290254060148,239.9039850455052 100.90657659956113,239.40011895662582 100.8734811793378,239.06024301132848 100.74250148698573,238.8525363242901 100.46516271563227,238.35100688251654 99.35822924631762,237.07528252191815 99.182385929099,236.87229161358812 98.2147166284749,235.55170362821377 97.71080805503847,235.1021327215874 97.43584841537808,234.76221429182354 96.54596822161565,233.8488401733619 96.04091256691991,233.334267992226 95.97484918005385,233.18085648741044 96.0633443793532,232.75363242419382 96.249808819835,232.2155238338318 96.33711445322743,231.84378451868454 96.32649332996424,231.63488826582983 95.97484918005385,231.02124224659786 95.5039085733809,230.5491970431019 95.16050641516138,229.8741609313061 94.52914436232523,228.7436060838022 94.05238338006058,227.89034752318528 94.02523578888879,227.8525788087805 93.80928711018974,227.5457557991796 93.5213272155731,227.1351006882777 93.444600220917,227.02769988955782 93.02922933130675,226.43877984539847 92.63386863790986,225.813323137087 92.16301300029062,225.41915200953662 91.80070524259018,225.22210893025812 91.02068994823405,224.602515082035 90.64538193557738,224.30397654859146 90.48015974174268,224.17295437168235 89.33422550768005,223.01644149888338 87.4023706347366,221.06449146064267 87.29144362300399,220.9536069334973 86.19160506424166,219.843104766794 86.17622567759234,219.80652561817536 85.97918259837421,219.34386948765976 86.022814172807,218.92730903223318 86.0676777975528,218.66411759709527 86.07086413465251,218.65825473703708 86.22346843403122,218.37263148952627 86.38750106207975,217.9454499108063 86.91384144794947,217.25507689694842 87.5511088453103,216.6083354575837 88.0443962953628,216.115048007501 88.65923188029035,215.51907553746713 88.78078001528614,215.03759877646397 88.78078001528614,214.66471237999704 88.67104256946044,214.47820545504874 88.41966182349262,214.33541507352658 88.00191180218931,214.4994477016053 87.47557141644035,214.83932364690264 86.83477780612715,215.39281162379322 86.32963718249844,215.96167898721234 85.95675078594094,216.44434531400165 85.48470558253555,216.74054720030918 84.96898631992902,217.28808734814822 84.82615345400075,217.5076047242963 84.59605743908615,217.5618999065795 84.25618149381899,217.33176140710785 84.06967456881031,217.0910442688697 84.0472852409039,216.78422125926883 84.01427478973432,216.35580763023583 83.9705582462478,216.2248279378234 83.57524003737777,216.19177500215713 83.00526807719602,216.32398674488257 82.80818251345103,216.4112923783052 82.48950633018337,216.61899906537377 82.22639986409918,216.78422125926883 82.18977823092351,216.90339026257155 82.13195683574831,217.0898122185567 82.09418812131334,217.21140283798877 82.0198402583503,217.54299430709858 81.97854533096297,217.72826918179425 81.81447021838757,217.84867023541 81.61033222873786,217.84038575922244 81.55132126777652,217.8380491121166 80.83732687563884,217.76136460195718 79.65251933040878,217.55246834907229 79.9157107655467,216.45730308440085 80.22368085649744,215.38813832955137 79.97824793958115,215.1037046478267 79.80707791657417,214.90661908405153 79.1486107570931,214.3248364347299 78.92909338091482,214.06164499959198 78.7532500636962,213.79845356448425 78.91847225765164,213.22491290682328 78.99757838388005,212.95114283288865 79.42471747813353,212.2052850709916 79.6548984619811,211.76629280316192 79.64423485419105,211.5479649928 79.30435890892389,211.31786897785523 78.88070354321667,210.9779930325579 78.72729203843132,210.9779930325579 78.49715353886911,211.1314045373734 78.02510833546373,211.58101792849646 77.48933639211698,212.23838049115454 75.88673634129826,212.16165349649845 75.25533180381449,211.9987679497394 73.58904749770201,211.56682810778423 71.96520520011543,211.11016229078666 71.63590789358459,211.01809839412886 71.67958195254424,210.5696320843255 71.67958195254424,210.17431387545545 71.63590789358459,209.78018523243196 71.54860226019217,209.53823604388077 71.33970600727707,209.31990823351885 70.95615600305028,209.1441074008271 70.50535304617125,208.81481009435663 70.29764635904233,208.64015634295436 69.8256011555162,208.3250488571961 69.70762171812036,208.05246834907783 69.52939926932943,207.63939162207674 69.40785113433364,207.35971620361747 69.01372249124977,206.6693431897596 69.68281077411477,206.40615175465186 70.13713994394615,206.19963463339965 70.5490271051309,206.01202311159818 70.89242926322967,205.85623247518012 71.39162205792759,205.65328405134676 72.18349052598067,205.33227122103366 72.56941966177979,205.1752910187993 72.95059053443428,205.0219219985106 73.25269776538721,204.89914181326216 73.6315319908755,204.7457727929735 73.81447021840496,204.67138244542323 74.80100263398312,204.29730648317013 75.0866258815543,204.1887161186339 75.32853258563898,204.17456878241836 75.98704222964693,204.13442093638088 77.64393746280923,204.12265273176783 78.20685699720701,204.08488401736307 79.60293992692446,203.99044098907257 80.52464100607033,203.82645084546033 80.72877899572003,203.7709236129245 81.07693941708418,203.6753759877808 81.42148865668374,203.58212252530666 81.61033222873786,203.53007902119631 81.6870167388671,203.5089642280996 82.03870337330436,203.31068909850805 82.01627156087108,203.02634038577673 81.93130257452411,202.75486447448148 81.65872206643603,202.24742968818325 81.61033222873786,202.1773302744651 80.96830656811166,201.24785453312197 80.00067975189367,199.5460956750931 79.92862605144923,199.41864219563303 80.07260599875754,199.35372589008665 80.47625116837217,199.17083014702368 81.61033222873786,198.6207834140921 81.66110119812909,198.59609992354638 82.21339960914294,198.3258560625641 82.45649587901377,198.20783414058104 82.21692582209529,197.8219899736847 81.7283541507813,197.03245815279783 81.61033222873786,196.84212762345064 81.02383380064751,195.89599796076928 81.00021242242808,195.85703968054813 80.29569207241504,194.61670490275205 79.87556291953942,193.87441583824366 79.8094570481465,193.7587730478631 79.35865409126747,193.09792675674933 79.16275809330864,192.809924377636 78.01215056503433,193.3174441329276 76.92760642374685,193.85674228910594 74.94264593424599,194.81379046649704 73.28689778234298,195.68000679754334 73.0650437589985,195.53131107149653 72.81604214460299,195.4345738805667 72.49745093038906,195.30945704821244 71.98402583054262,195.42509983859298 69.40547200264056,196.00335627499248 69.11751210814468,196.06827258053886 68.26905429510867,193.89451100351073 67.80401903308115,192.8442093636153 67.25409975363961,193.00586286009153 65.88163820214159,193.41065511090505 65.24437080466001,193.59711955138687 63.33494774414984,194.10459682218178 62.622142917798314,194.32050301641434 60.78349902289271,194.7418642195728 60.69967711780503,194.89166454247282 60.8861840428137,195.0982241482217 60.91562579662483,195.13127708388797 61.40423995246569,195.8428923443326 61.75240037395058,196.39756988700933 62.18310816544177,197.38648143431072 62.618616704845955,198.56071034074407 63.01274534792983,199.37734726827588 63.14725125323426,199.65468603962935 63.39748491794279,200.17278443371762 62.65872206644713,200.3627750871216 61.53645169513078,200.6518820630881 61.42781884615826,200.68021922001586 61.39952417372717,200.60582887249578 61.13280652551615,199.89778230950017 60.71148780697512,198.72121675590063 60.45781289824721,198.0674228906614 59.83112413962271,196.6972555017725 59.69776531557757,196.60408700826153 59.46885886656988,196.65128728017353 58.24976633533036,196.94396295355887 57.61368850363493,197.09618489252787 57.097926756743036,197.22011215909598 56.38869062799148,197.3723340980952 55.07642960324096,197.6767779760634 54.594952842237795,197.99307502763796 54.33052935678686,198.16534964740757 53.7688418727021,198.5925737106242 52.743308692375955,198.8569122270516 51.884187271670655,199.023323986763 51.428668536053124,199.11067210471248 50.91294927356734,199.18616704905557 50.84803296796058,199.3266207834417 51.05336052339644,200.5480499617871 51.56317444135755,203.01567677801688 51.62809074696432,203.24343614582565 51.6387118702275,203.5018693177284 51.52778485849489,203.66471238002094 50.80202226195548,203.95033562753176 50.169428158685555,204.22648483306887 49.840215821208446,204.37165434619354 49.76824708981771,204.40351771607365 49.188758603105214,204.65723510920768 46.57124649498203,205.80079021160745 46.206602090236146,205.87594528000733 45.83248364348637,205.95301215060664 45.74513552556708,205.97072818424104 45.815957175577765,206.1807715184154 46.037811198922235,206.68468009179148 45.942263573838936,206.7684595123221 45.24007987087134,207.08471407940002 44.98755204352347,207.02574560287496 44.459979607461484,206.49349987257116 44.31370549751383,206.1028974424698 43.78613306145184,204.9451950038545 43.45687823944787,204.220579488514 42.601283031694926,202.10463930669127 41.37046478033903,199.3891579573856 40.73549154561754,197.7806100773644 40.702523578854056,197.70039935425262 40.68361797937314,197.65086243523479 39.83979097626342,195.71305973323982 39.6569377177877,195.12422465801345 39.05268077159647,193.9853428498857 38.18289574298037,192.07710935510133 37.821820035713706,191.28286175547592 36.65468603965156,188.60871781802408 36.19793525360026,187.47344719181186 35.9205964822468,186.837369360207 34.82428413631608,184.4145636842867 34.33460786814891,183.25448211406888 34.09852153965592,182.6951312771201 33.336137309820074,180.93202481096372 32.72011215898562,179.45211997621897 32.59737445832442,179.17834990231455 31.50696745679762,176.7590704393164 31.375987764445547,176.15014019885314 31.261449570948354,175.61908403436567 30.829552213429505,175.56240972047996 28.381978078000277,175.9341915201239 28.084586625906606,175.9790126604032 24.055654686064273,176.67767015041846 21.172572011230862,177.11666241824813 19.734004588339925,177.47302234686683 18.82063046981791,177.4588750106513 18.2648058458517,177.4506755034571 18.224615515317552,177.4506755034571 18.125499192755033,177.44948593767094 17.95912991766105,177.44591724022192 17.93788767101393,177.44591724022192 17.386778825665488,177.43763276406455 17.333673209228813,177.4364856827449 16.203118361815477,177.41995921489666 14.65362392719193,177.34089557313473 12.203670660190387,177.2146316594608 10.80282946720756,177.1570226867388 8.472087687914863,177.06122015467545 5.684637607218477,176.93848245392368 4.963548304890716,176.97977738128083 3.3255586710885825,176.75078596315905 0,175.8598011726038 0.7753420001444782,175.73353725892989 2.4593423400724563,174.70214121848517 2.708343954467967,174.5498767949893 3.4742968816622795,174.3032543121963 4.385334353018093,174.34926501829196 8.311581272818687,174.60536154305868 10.80282946720756,174.76009006715037 12.265018268317931,174.850836944532 14.52846461043155,174.89922678226034 15.23774322370997,174.91456368429223 16.049706857030127,174.92280567595293 16.659826663219167,174.99596397316 16.945407426263497,174.9806270711583 16.985512787864668,174.97829042402228 17.50008496897041,174.94995326709451 17.559053445404892,174.94642705414216 17.733707196837358,174.93699549666513 17.880066275717994,174.9287110205078 17.94736171301782,174.92514232308895 18.483091171716953,174.89565808481132 18.496048942146338,174.89565808481132 19.326918174826666,174.84964737874586 20.031396040433595,174.7563939162415 20.366598691489102,174.71271985728188 22.641855722652064,174.36579148614018 23.608377942016865,174.17461126691987 24.410867533333132,173.89136715101154 27.639689013552257,173.0900671255116 28.416220579482893,172.89773982500182 32.34132041802419,172.09287110208305 34.55756648822581,171.61016229079706 35.36715098997365,171.4638456963527 36.2852833716403,171.21603364774336 39.17541847225767,170.6071034072801 40.17380406153278,170.39706007310573 40.75677627667077,170.23298496050015 41.860183533033066,170.02294162632577 43.173676608096606,169.8777721132011 44.18501996768035,169.79518225848682 46.206602090236146,169.66819610842978 47.22737700741766,169.60400203926648 48.302489591228124,169.54027529953643 52.33966352288208,169.25584161784198 55.19207239359134,168.99269266720074 58.45390432498006,168.80032288216407 59.39208938738692,168.7094485512924 64.53041889704919,168.35304613817704 66.22741949181267,168.24921403690618 68.72924632505861,168.096992097907 70.94434531400094,167.97892769142726 71.51317019292338,167.97544396297158 72.59771433421088,167.96953861841672 75.0040360269004,167.85975868809433 75.9162630639216,167.85975868809433 77.89174951141858,167.7039680516763 80.07145891749825,167.54940946557127 81.61033222873786,167.42263573796743 82.83647718576137,167.32160761323564 85.01618659184102,167.1481434276799 86.56096524772606,166.97467924209397 88.12936528170978,166.8838049112223 89.13599286267575,166.80002549072188 90.11313620530373,166.71739315151092 91.02774237401802,166.64066615688498 92.38605658942124,166.52740249810694 93.24046223126729,166.3716118616889 98.42590704390858,165.9054720027478 103.33524513550944,165.43104766761917 104.2922933129911,165.28592063899117 105.23999490192871,165.12188801091244 107.55183108161974,164.88346503528345 108.33545755798195,164.72886396468175 109.26535814429182,164.5105786388165 109.88019372921937,164.36307247855584 111.3105191605402,163.93465884955305 112.39506330182768,163.54286685363536 112.73379216595629,163.3800237913428 113.40173336732052,163.05663182939702 114.26790721393053,162.60115557824597 115.35245135521802,161.9260769819233 115.87288639644231,161.52604299431476 116.36502676523553,161.14720876882646 116.66594443028156,160.914733622249 117.01406236723959,160.6711700229751 117.91566828111837,160.04023281504533 119.77083864381183,158.63709745945334 122.78961678985657,156.5211147931339 125.03301045122998,154.82649332994276 125.69980457133491,154.30482623843562 127.97981986576325,152.60073073330094 128.83188886056382,151.89149460448903 130.9749341490617,150.16144107402909 131.49422210890594,149.5064576429735 132.43240717143357,148.71339960916444 132.65901945792265,148.48330359421965 132.70265103235545,148.4396295352298 133.05552723257884,148.08084799051193 133.2824369105145,147.85075197553695 133.81548984619477,147.31022176907578 134.16479734905968,146.95500892177674 134.21085053959166,146.90899821568107 134.44336817060542,146.67295437168477 136.90861585520256,144.14516951314374 139.75626646276717,141.52527827344827 142.5224742969372,139.22521029824952 144.86498428075237,137.34879768884858 145.8138329509493,136.31740164840386 146.47115302917106,135.60226017506727 147.1002209193679,134.66403262810337 147.48372843918858,133.94417537599804 148.32398674481908,132.51503951058413 148.74411589769468,131.71373948511442 148.9529696660829,130.89353386016376 149.24564533943808,129.80074772709483 149.31527742378336,129.36409210640116 149.47340470730722,128.36332738552358 149.59852153966148,126.71471662845825 149.61738465461553,126.46099923529403 149.6232475147341,126.38660888777395 149.65634293483666,125.94999575157695 149.6386269011419,124.77695641092976 149.65634293483666,124.03819355937372 149.56546860396503,121.46907128900907 149.54303679153173,121.07723680859472 149.52060497909847,120.67834990230584 149.47459427309337,118.8114113348786 149.46044693687782,117.90627920810783 149.4380151245653,116.55263828703701 149.39315149969875,115.67817996433001 149.38371994222172,114.65740504717868 149.3742459003386,112.84705582464379 149.379216585876,112.44702183703525 149.38371994222172,112.09061942391986 149.42029909087054,111.05208598863746 149.4391622058246,109.36099073839866 149.47574135435266,108.30478375394837 149.51236298752835,106.99719602346987 149.53951057857938,105.43945959724601 149.61619508870862,104.69712804827114 149.72125924044343,103.67159486788462 149.78494349561643,102.9174951142967 149.7601750361377,101.17087263149185 149.66220579483448,98.68552978162765 149.72478545339578,97.90075622397596 149.8994392047075,95.7175630894708 150.00560795317475,94.24003738635874 150.05994561980367,93.5083694451739 150.11067210466803,91.99307502762686 150.1602515082731,91.6107145891862 150.32904239958702,90.32436910529447 150.78451865067768,87.98891154729344 151.3273855042145,85.72070694197481 151.68493499864957,84.51584671594418 152.11453819364982,83.43359673720546 152.41783499026818,82.81311071461253 152.60306738043695,82.43410655110736 153.3784518651083,81.17605573967688 154.25643640076765,80.21424929902041 155.49086583388814,79.05302064748294 157.50178434877463,77.04324921403685 157.83222873656476,76.7128473107434 158.62171807292478,76.05433766676563 161.0964397995258,73.98908148528038 163.55348797695893,71.87904664798229 165.06287704986053,70.55731158128826 165.7390602430364,70.15489846207721 166.94400543806037,69.4385249383974 169.89901435975767,67.37331124140883 171.70341575330139,66.10820800407363 173.5384909508485,64.58705072649859 175.1706177245321,63.096567252957136 175.4019457897597,62.79441753759809 175.55297816297275,62.59852153963926 176.7047752570332,60.602939926935576 177.3644744668273,58.999150310149574 177.90734132048487,57.160506415153414 178.1858696576245,56.28371144534059 178.50917665057693,54.54184722577094 178.7168833375851,52.8223723341077 178.8939162205899,51.93372419068848 179.1252442858175,50.14937547794534 179.47102557573007,47.503568697421265 179.84157532500063,45.837199422224884 179.85453309543,45.77704137991368 180.2817571587372,44.11190415500013 180.767992182885,43.72597501911046 181.39812218540814,43.004928201218995 182.54996176399547,41.777551193822106 182.67834990226166,41.63951907553513 183.54830486874368,40.70367066020391 184.16084629115267,40.05106636078101 185.69381425774685,39.11521794544979 186.61785198405892,38.51690882827991 187.82156512864913,37.698147676095466 188.481264338564,37.24946894383889 189.2766590194487,36.719602345137574 191.0610077322522,35.43797263998434 192.533817656505,34.48559775683508 193.30915965677022,34.07490016143649 193.85674228904557,33.785793185500175 195.18200356875232,33.22877899565725 196.03640921059838,32.8841447871549 196.7421616110452,32.630427393990686 197.85733707192995,32.44872121674407 199.2357464524795,32.41919449399997 199.69602345148317,32.408615855203266 200.93274704736373,32.488826578315056 202.1872291613452,32.76735491545467 203.30244710687757,32.991545585874775 204.1072733452393,33.20044183872949 204.80830996694758,33.39281162376616 205.38656640334705,33.526170447781105 205.6603364772213,33.58870762172499 205.77360013599935,33.58989718754134 206.02973914523255,33.591086753327495 206.50059478285178,33.594612966279854 206.533647718669,33.594612966279854 207.69368680429957,33.60166539212419 208.30499617639552,34.142195598615565 210.07638711876965,35.05794884867971 211.30486872295936,35.69406916475105 212.73515166963256,36.46584246750687 212.93104766771214,36.57205370041041 213.8798963377883,37.084204265447156 214.81812388484275,37.526807715192355 215.2996006458459,37.753377517214965 215.94277338773142,38.05548474807733 216.25783838899298,38.204180474124165 216.8903900076153,38.501571926248026 217.45093041044078,38.76591044270561 218.18383040193862,38.693941711284694 218.84115048016042,38.63021497152446 219.6318293823066,38.5593933214534 219.74275639391846,38.549919279479695 220.97714334263281,38.43903475230414 223.2252952672716,38.07757668450702 225.30588835078876,37.742713909424914 226.05408275976143,37.645976718495085 226.50012745349582,37.58696575750355 227.1008157023286,37.5090491970311 227.7239357634739,37.42764890816335 228.50637267404994,37.32615345399832 230.12549919277726,37.12435211148463 231.00471577874964,37.00633018947138 231.74224658005303,36.90840343275539 232.19666071881738,36.85882402924089 232.75601155573594,36.797476421113345 233.1289404368203,36.75732857507587 235.46320842894463,36.5024216161255 236.27746622478335,36.413926416856356 236.44387798452496,36.39387373608596 236.86519670318674,36.34663097970746 237.65472852407362,36.25575664883581 238.9598946385133,36.10710340725547 241.4853853343848,35.8155748151898 241.7261024725626,35.786090576942364 241.88665137230637,35.76837454330798 242.5923612882263,35.68697425441004 242.74220409553243,35.66925822074546 243.10217520606668,35.62796329338832 243.79131616955115,35.54771008581004 244.665816976785,35.446257116141695 245.91554082762184,35.342382530374174 247.58662588152654,35.20311836180437 248.86235024227585,35.231455518732126 250.0223893279064,35.30695046307522 250.85912142070532,35.39548814684104 252.31893109024335,35.55008921744273 253.03050386616113,35.54771008581004 252.17257201124198,33.37509559010158 252.11827682889842,33.23702098734812 252.22567762767866,33.21463165944171 253.51792845609506,32.94077661654393 254.1245220494525,32.852323901771456 256.12600900674124,32.558416178103286 258.62906789017944,32.23094570480873 259.04800747738966,32.17605573966264 260.7532925482501,31.967201971274417 261.47905514491026,31.908191010282884 263.4132891495468,31.752400373864848 266.4391622057816,31.613178689791717 267.1649248025625,31.570694196618227 268.0216670915748,31.51992522728738 268.1904154983618,31.509346588490683 268.8347778061542,31.471577874085895 269.9523748832589,31.40547200272316 272.66662418225155,31.266207834153356 273.7263573796542,31.269734047075524 273.85975868810544,31.282776786468073 274.0674653751136,31.304019033054818 274.7365536579786,31.3700399354242 275.44816891830254,31.438524938389435 278.3359673719952,31.890517461114985 279.65060752819727,32.02625541676262 280.4318548729872,32.10765570566057 283.70553997795207,32.21034072564193 284.852621293274,32.264593423398274 288.6478885207226,32.446342085141566 289.3429773132586,32.446342085141566 289.41260939760383,31.71701079106256 289.5034837284755,29.994052170973823 290.35317359170375,29.999957515498497 290.7863029994149,30.003483728450853 290.9078511344107,30.00467329423701 291.5451185317715,30.008199507189367 292.36999745099416,30.014104851744225 293.51945789788846,30.055399779071184 294.03279802868116,30.07405047157205 295.434786303044,30.125031863386273 296.74352111484217,30.17223213526809 297.4468943835959,30.197043079273676 298.09125669138837,30.220664457462924 298.5196278358341,30.235958874998133 300.5423570396492,30.3056334438099 302.1261364602822,30.358696575749896 306.007519755337,30.48262384228782 307.2254227207904,30.494434531397534 307.38355000431426,30.483770923607487 307.15460107065894,29.421658594602338 306.9480839493162,27.85211147929895 306.88439969414316,26.556334437930175 306.8666411760423,26.33448041464608 307.7541422381117,26.304996176398653 309.86417707543995,26.236511173433417 315.6432577108885,25.909592998565458 319.1281332314079,25.81166624181928 319.702863454855,25.778655790649683 320.38380491129624,25.739655025931878 321.32674823696846,25.68540232814535 323.53708896252465,25.557948848685257 324.69245475406433,25.451737615781724 324.90840343276335,25.372673973989606 325.57043928972365,25.12838813833261 326.0932534625203,24.937207919112286 326.29386523921767,24.86286005608887 327.05977568188507,24.581995071813243 327.50352621298015,24.50998385589565 327.96962358745475,24.43329934573622 328.35436315746773,24.37076217182252 328.98925142325623,24.26688758602481 329.4365281673036,24.19406916476095 330.6426204435869,23.997790806362225 331.499405217126,23.85737955647275 332.17444132904257,23.7464525448307 333.80537853681926,23.106806015807 333.9045373439086,22.993542357028936 334.4166454243883,22.407001444472094 335.2215566319245,21.486532415669437 335.87059223392856,20.823306992953164 336.30486872289896,20.380746027704642 336.7651457219026,19.911079955811193 337.8437420341386,18.8123884782176 338.40551448727706,18.238847820556632 338.84688588667905,17.789191944936906 339.0994137140269,17.533095420170195 339.1029399269793,17.52837964143168 339.8759452799576,16.741226952147297 340.5426969156564,16.24793950209479 341.6413883932802,15.987169683056052 343.1991673040007,15.620146146647292 344.3285325856279,15.352196448304376 345.2643810009893,15.018268332058563 345.30214971542426,15.00412099584302 345.89455348803926,14.343232220232574 347.0770243861031,12.745347948001427 348.3173591639898,11.357507009944662 348.58879259081857,11.053063131946278 348.86494179626516,10.743818506246216 349.39247174780024,10.153793865233691 349.62142068145556,9.471662843066687 350.2976038746314,8.55586710850587 350.8369445153366,7.969368680415515 351.2345993712521,7.537428838460365 351.51431727417787,7.234174526308513 352.2023536409299,7.182215991161321 354.1566403263066,7.23060582885948 354.22856657329123,7.196405811873539 354.9579403518367,6.851814087867866 355.3403007902774,6.4564533945011595 355.55331803891715,6.235788937033408 356.0176735491186,5.755459257380099 356.60655110890207,5.145339451100499 356.91099498690045,4.8302319653422545 356.964143087864,4.774747217272893 357.3641770754725,4.361755459265149 357.69937972652804,4.014784603626789 357.95543376670753,3.5084968986180347 357.9471492904898,3.076557056662885 357.92357039679723,1.923612881282762 358.9266717648108,1.505820375573341 359.3739485087375,1.6840428243642793 359.6240972046338,1.784348712712955 360.2791231200955,2.2717308182407914 360.77355765152805,2.8818506245203914 361.7471747812037,4.829084884022586 362.0823349477323,5.517078766247773 362.2487467074739,5.860480924467288 362.50977143355306,6.235788937033408 362.8612031609499,6.740887076225818 362.9154983431727,6.7998555527206745 363.2352791231728,7.152689268417218 363.8926416858007,7.879683915360212 364.25138074602194,8.131064661388411 364.8403007902115,8.58420426543363 365.2450930410854,8.895785538269704 366.7851559181112,10.036961509036786 366.9243776021541,10.140793610337818 367.6041294926884,10.64351261789754 367.9711530291274,10.916135610512484 368.20596482290125,11.089599796068233 368.6556206984002,11.495581612698125 369.02621293231834,11.828362647624267 368.16348032972775,12.761831931352983 367.8248364347736,13.099413713980804 367.187569037292,13.731922848166816 367.11441074011515,13.80508114537389 367.27134845785287,13.931345059047823 369.2114453224872,15.303849095072705 369.86999745102196,15.712210043335284 370.5638966777718,16.139391622055246 371.63663013000996,16.691690033129472 371.76289404374427,16.729458747564443 371.9847905514949,16.794375053110834 372.4733197384027,16.93831251592248 372.69287959898713,17.004418387285213 373.25104087011954,17.168451015394123 373.4611266888208,17.230988189307823 373.56139009264257,17.216840853092283 374.27895318213876,17.111819186005093 374.6069759538297,17.06461891409309 375.2714334268892,16.967796754169907 375.67970940606784,16.908828277675052 376.725295267255,16.756563854179184 377.30002549070207,16.673973999495082 377.89480839501016,16.586625881545604 378.5238338006801,16.495794035170633 379.22011215912306,16.356529866600827 380.08985470309153,16.07919109524737 380.8156172997517,15.780610077307168 381.495369190286,15.499787577528217 381.9827937803407,15.430113008746638 382.6118191860107,15.477355765155316 382.80648313365646,15.491503101370858 383.0130002548785,15.506840003402743 383.41074007996843,15.537513807466516 384.10701843829065,15.589429858086845 384.28286175550926,15.639009261631536 385.32844761669634,17.00322882146887 386.3304019033299,18.048857167122463 386.4389497833695,18.16093126008418 386.99124819450407,18.07596227376739 387.6627156088207,17.973277253816214 388.4109100179141,17.771518395799195 390.12443708046544,17.393831251600385 390.65081995074127,17.408021072312604 391.13114963048514,17.58152774236503 392.16369275218915,18.165647038822694 392.95912991772144,18.791146231630858 393.8347778062146,19.507477270783802 394.4826663268386,20.338261534531156 395.4916730393769,21.69067040528896 396.27882572869146,22.731540487737554 396.8971875265714,24.080465630039676 397.2972639987068,25.360863284910078 397.3149800322808,25.5921488656712 397.38104341914686,26.428880958439898 397.4931599966656,27.469751040858306 397.60523408965753,27.89221684083975 397.94396295354466,28.144787152684295 398.61899906534046,28.202608547889668 399.4923103067881,28.145976718500638 400.2440309287132,28.063131956836486 400.2523154049309,28.06215481350352 400.646444047894,28.175460956748065 401.23060582893896,28.425652136959922 401.43359673720863,28.513000254909397 401.8560625372504,28.935466054890846 402.1593593338688,29.235236638617202 402.30571841287014,29.91970430792022 402.35291868478214,30.391707026949682 402.3729713655224,30.584119296452837 402.41188716121667,30.974721726584356 402.43907723679456,31.235534030089582 402.5912991757937,32.74730223468427 402.74356359931977,33.59813917920202 402.9276489082293,34.6319568357459 402.96150904921166,34.89863199930931 403.0311411335569,36.02905939332318 402.68289574313906,37.546010706089625 402.1952162460439,38.47616619934936 402.10829297303104,39.27750870931577 402.21267737281903,39.74980881979177 402.264975783849,39.82131022177945 402.49137564794535,39.735491545589525 403.7101707877383,38.81961084203536 404.05841617815616,37.74641006033379 404.40666156857407,36.75902795479194 404.65511088460335,36.25010621123082 404.79225082852054,36.26285155917683 405.57226612287667,36.29237828192093 406.30397654858837,36.26523069080952 408.0777041380079,35.900543801506586 409.17520604984554,35.450930410413726 410.50994137143545,34.72402073243389 411.9013085224144,33.693729288812186 412.10310986501867,33.54503356276535 412.28366896085504,33.31965332652889 412.61755459266453,33.36256266463895 412.7799303254937,33.383125159309074 412.9796924122575,33.34195768544196 413.2981136886055,32.88818081400699 413.9257795905026,32.123205030175825 414.18816382023385,31.839536069330947 414.45615600316404,31.548857167138404 414.74186421966823,31.34161780950309 415.0014869573269,31.047157787408324 416.41430877734575,30.85151669639935 416.45173761580736,30.805038660900642 416.5391707027804,30.79475741355048 416.895148270929,30.691605064166065 416.97382955225106,30.647123799829966 417.4821989973856,30.41838728862786 418.0290169089019,30.13896677711844 418.93754779510476,29.727546945366928 419.8708046563803,29.172699464703502 420.163692752249,28.758815532325954 420.42973064827174,28.505438015135145 420.75452459857763,28.185742204098222 421.1541762256859,27.773260260020393 421.42267822257617,27.515421871010748 421.7201971280089,27.15795734556904 422.0736256267193,26.775172062191828 422.5132126774421,26.36375223044032 422.98219899732834,25.879768884344628 423.4747642111487,25.48950633018651 424.3480754524756,25.24993627326803 424.7847310732598,25.105956325929522 425.6666241822511,25.44714929050305 425.98517291193815,25.617299685620004 426.14754864476726,25.7100858186911 426.2536324241808,25.591469113784772 426.6751635653561,25.056971705338285 426.8657914860895,24.792165859447458 426.9682215992115,24.66981051916577 427.1280057779548,24.436358229255337 426.87828192708565,23.936230775781492 427.683830401921,23.67329424759344 428.30822499790617,23.49273515166649 429.28536834053415,23.18918344803791 429.8351601666366,22.95093041039561 430.42620443535804,22.712549919293473 431.2096609738543,22.451525193304867 432.28643045288413,22.24500807205266 432.9921403688041,21.982071543894797 433.46040445233746,21.816934318962893 433.6061687484458,21.755586710865536 434.3711020478406,21.486872291612652 434.7969241227273,21.3012150565073 435.1028974424853,21.182640836097644 435.4713229671032,21.007392301802287 435.64776106733564,20.95437165435896 435.67741524341886,20.945534879775014 436.5313535559524,20.626688758611223 436.9328320163875,20.352791231186586 437.32615345406475,20.002166709166218 437.7820120656557,19.460871781795067 438.0943155748447,19.00191180218834 438.5765145722008,18.43699549665813 438.64372504044684,18.341957685444374 438.98954881476556,17.99158807034368 439.3055909592997,17.73043589089524 439.8125584162553,17.379216585951607 440.52884697091156,16.936188291269843 441.3948508794141,16.595590109619582 442.0409125669528,16.379981306833557 442.5082419917404,16.198487552040127 443.8333333334605,15.645849265022687 444.76374373360966,15.269394171136899 446.281417282729,14.650862435209913 447.2492565214606,14.228184212775277 447.95496643725977,13.908488401738358 448.4607443284292,13.650607528262222 449.78107740688387,12.795054805005957 450.6278358399321,12.170745178014139 451.744668196157,11.297306483136786 452.1061262640447,11.032755544226013 452.870294842439,10.605913841449267 453.40972045207724,10.383210128292042 454.03054635070396,10.204520350067863 454.55586710865344,10.123459937113134 455.16263063987685,10.104809244612266 454.8767100008591,10.067635313100558 456.6481009432332,10.038151074853129 458.02179454504426,10.015591808990203 459.2772113178922,10.02170957599825 459.5082419916733,9.97408445917987 459.7142917835828,9.97408445917987 460.0640666157602,9.922465799975893 460.4137564790047,9.865833970586863 460.9632509135398,9.783329084896112 461.7118701674189,9.591596567249198 462.0248534285547,9.473957005706025 462.9075112584257,9.050344124404909 463.783031693459,8.64406491629829 464.1856572351534,8.457940351759696 464.5729033903193,8.215566318302148 464.86014104858305,7.9887416092994865 465.179242076757,7.757286090581849 465.4221684086412,7.540147846036268 465.7531226102707,7.297773812548533 466.1152604299844,6.94196618235641 466.95823774328136,6.287237658250684 467.0242161610937,6.235788937033408 467.7575834820248,5.663437845188782 468.2695641091654,5.214844081895377 468.96907128911414,4.601325516183632 469.5935933384384,4.028931939842331 469.9995326705716,3.6164499957645027 470.3367320928199,3.2916985300458546 470.63650267660665,3.023621378182725 470.91745262984546,2.796626731253738 471.0515336902435,2.7427139094104227 471.1735066701457,2.6936443198258346 471.50446087177517,2.889540317784672 471.94154133746576,3.219474891675074 472.7598776447438,3.755756648830985 473.4779930326062,4.219729798622764 473.81527742378745,4.467244455785579 474.3338006628727,4.853258560638421 474.94064916314977,5.372886396456076 475.3227122101439,5.688291273691047 475.8846121166215,6.170745177996993 475.9929475741475,6.235788937033408 476.37904664805404,6.467669300717797 477.0187781460409,6.509304103987969 477.3457388054055,6.235788937033408 477.4809669471836,6.122610247248698 478.02417367669386,5.622482793774853 478.0616874840884,5.565808479889147 478.536536664214,5.187271645847397 478.7860480924488,4.947064321508973 478.96707451783925,4.756223978231865 478.5589684765265,4.482114028384225 477.86226527329796,4.110969496130029 477.4832186252961,3.974636757589314 477.35610502174904,3.7354490610805335 477.36787322639225,3.164584926498791 477.28141728269185,2.559903135340809 477.3073753080775,1.9401393491309922 477.63106466153016,1.626688758592145 478.1544736172199,1.4388223298408027 478.80529356790316,1.2399524173561989 479.18612456458425,1.1470813153219397 479.6419831762959,1.0595207749192732 480.0478800239023,1.0027614920402173 480.5287620020124,1.276064236541589 480.82224488065344,1.4462571161552193 482.06491630558554,1.652391876967539 482.7456028549863,1.6782649332994468 482.86417707539596,1.4255671679950654 482.97846036209427,1.1591044268848447 483.5632169259115,1.1175970770745116 484.4364856827116,1.0904494859329095 484.7740249809333,1.033817656543879 485.0844166879832,0.9782904239778424 485.72521029829636,1.0692072393461654 486.5170362818226,1.0951652646714234 487.33486277514055,0.9429008411755563 488.8431047667829,0.2796754184592828 489.45675078604506,0.07553742883976156 489.9417962444067,0 490.29934573884174,1.4043249214083213 490.60502166715315,2.3472682470805526 490.71119041549963,2.677670150404195 490.8339706008084,3.0553148101063274 490.885886651459,3.2170107910490358 490.9389922678956,3.384612116576789 491.1148355849935,3.9345313960485133 491.3224997875956,4.582377432236226 491.41575325003953,4.877474721720745 491.50186931776653,5.145339451100499 491.8131107146292,6.235788937033408 491.8736511174709,6.448211402840475 491.91023026599896,6.575664882330753 491.9798623503442,6.816382020568905 492.07069419668903,7.1243945959559465 492.14980032303816,7.398207154387234 492.2606848501232,7.7793780270115365 492.4118021922692,8.296286855283476 492.48496048944605,8.550004248447687 492.5887925907471,8.904027529960574 492.8024046224007,9.639221684097764 493.0218795140521,10.21633103917758 493.1410910018817,10.52910187779981 493.5329254823262,11.560497918244513 493.7878324412464,12.23081825133199 494.07927606428854,12.995539128213283 494.3861415583861,14.221684085297154 494.72954371660563,15.328660039078294 494.7425439715619,15.371144532251781 494.92076642035283,16.187738975286916 494.94081910109304,16.49460446935429 494.9620188630925,16.80733282351003 494.9714504206903,16.953649417954367 494.9714504206903,17.41273685105112 494.89357634465415,18.932747047336676 494.74016483986884,20.337071968744997 494.6729118872166,20.7406746537422 494.5997111055128,21.18442518480707 494.5726059988679,21.37560540402739 494.5053105616889,21.840555697182324 494.66224827942654,22.276021752059645 494.9632509135263,22.88023621378439 495.0446087178672,23.043079276076952 495.63114963036367,23.783074177915818 495.9887416094463,24.31999320249167 496.36991248198007,25.01036621631936 496.6307247855457,25.483643470128328 497.43674058969356,26.636587645508452 497.839196193522,27.211317868985766 498.59563259406485,28.293482878761317 498.87768714427756,28.68527487467899 499.8465884953354,30.028294672456443 500,30.692667176492385 499.94923103072955,30.846078681277735 499.61640751136713,31.02430113009886 499.5137649758522,31.17771263488421 499.5137649758522,31.687484068318458 499.64121845525193,32.02030758774128 499.8100093466866,32.44872121674407 499.6152604299871,33.04112498938928 499.51261789459295,33.156767779769844 499.2623842298844,33.44120146146432 498.98627750884395,33.75507689693973 498.18259835174155,34.609525023373 497.26208683838183,35.47807800152514 496.8785793186819,35.88639646529104 496.30261704492176,36.75261279633735 495.8813408106661,37.44302829466172 495.80465630053686,37.85130427393095 495.77750870936507,38.61721471662859 495.9816466990148,39.241524343620405 496.28732262732615,40.084119296447284 496.4064916306289,40.216288554676076 496.9765060753375,40.84998725464825 497.48903900084434,41.63951907553513 497.59015209459966,41.795309711953166 497.6149630384845,42.15285920638822 497.5465205200461,42.6037046477941 497.48627750877176,42.99545415924529 497.23022346847154,43.86286005607776 496.6661568528145,45.742798878400876 496.4607868128517,46.45794035176767 496.0265103238813,47.299388223305066 495.54027529961274,48.04053020649379 494.3165094741616,49.88503696151795 493.64852578814975,50.89642280568892 492.49791825987546,52.42820120655733 491.8063981646979,53.29560710341999 491.29182598359216,53.788894553502686 491.1419406916384,53.932874500811 489.80605828878925,54.76365876455836 488.5019967712027,55.68183363072168 486.81442773391626,56.90559945620304 486.1675163565649,57.43538108591102 485.53636672624225,57.95237488317631 485.2555017419364,58.20609227634052 485.280312685942,58.43504120996563 485.66382020564197,58.64041124989817 486.22559265878044,59.09945619849825 487.2475146572213,59.94324071714147 487.88601410489514,60.48020222618381 488.03942560980124,60.76106721048963 487.9638881809313,60.97705837368535 487.4776956411896,61.33460786812041 487.3136630130203,61.51869317699972 487.40101113106033,61.69101028126599 487.65706517136056,61.89633783670185 488.47370209877164,62.6374373353939 488.56453394523714,62.77793355424654 488.58229246333804,62.91953436995236 488.524428583636,63.01393491377636 488.4146911378103,63.06466139861053 488.2624691988111,63.13429348289544 487.9768884357668,63.20392556718034 487.8340555698385,63.257031183617016 487.75146571506383,63.38329509729095 487.71722321358124,63.52022261875493 487.7479395021115,63.64291783501002 487.8635822925826,63.8247089812198 488.0110884527225,63.99345738806723 488.2152689268991,64.26722746197164 488.5692922083818,64.58352451354624 488.7262299261195,64.86438949785204 488.77933554255617,64.95993712296554 488.8525363242599,65.28451865069748 488.9067890220766,65.52170957601346 489.00475826325913,65.73651117342304 489.14516951320894,66.04686039597628 490.0196703204428,67.96575749852053 490.65693771780366,69.36655620700668 491.6553233070788,70.78150225167818 491.70842892351544,71.12137819697553 491.70842892351544,71.44710680602715 491.61989123968925,74.50480074773597 491.48585266381804,77.04324921403685 491.4629960064784,77.47756818762468 491.40160591382397,78.49834310477601 491.50310136807957,78.92556716799265 490.3253037642274,79.0836944515467 489.25847565639316,79.23001104599103 488.89383125164727,79.29730648313993 489.05667431390964,78.85593508370775 489.21484408196034,78.40275299516586 489.3068654940913,77.85992862606534 489.19355935090715,77.33945110034436 489.0798283626958,77.04324921403685 488.96698954882413,76.74938397486535 488.9221684086052,76.27385504291372 488.9906109270436,75.59639731498855 489.4201291529901,73.79790126606005 489.6479310052654,72.73345228991889 489.67150989895794,72.0159316849496 489.69394171127044,71.306653071641 489.61020477535726,70.85470303341212 489.4898037216208,70.40033137905388 488.94689438367783,68.90627920809358 488.80176735498947,68.45313960404836 488.4028804487609,67.21280482625227 488.1102472598119,66.6841277933673 488.0760047583293,66.6215906194234 487.8895403178475,66.3654940946567 487.59805421027846,65.96427054126198 487.3313365621882,65.5983940861729 485.8243266208589,63.52612796330979 485.35580763028514,62.87938652391488 484.24415838223194,62.21029824114043 482.7800577789825,63.47523154048891 482.0097289490231,63.84709830912622 480.1486532416842,63.99388223300379 479.8167643810675,62.907596227382804 480.30278698282245,60.34327470475002 480.1415583312526,60.22614495710658 479.5985640241352,60.708683830405874 478.916220579515,61.765740504729294 477.31514997033514,62.949740844613075 475.46350582047324,64.81196363327162 474.3356699804849,65.59359333844104 473.18009176655244,65.76599541167046 471.871441923808,65.93839748493008 471.0515336902435,66.18727164586575 470.92480244719667,66.22576259665364 470.395743053902,66.03033392812804 469.96418557235654,66.24878919194981 470.4375053106018,67.32929730647578 471.0515336902435,68.90559945620716 471.18960829302716,69.26009006712309 471.6767779760414,70.2947574135401 472.24759962615667,71.07630214971616 472.54002039259217,71.70864134591548 473.07846885895776,72.80329679668716 473.61899906532835,72.85240887076843 474.23600135955616,72.95721811540244 474.57536749086324,73.25388733114319 474.6332313705653,74.43873736086991 474.5258305719058,75.20464780356755 474.43848245398647,75.50556546861358 474.00654261194074,76.98661738467801 473.9900586286798,77.04324921403685 473.8920893874973,77.37845186509236 473.79297306493476,77.71943240718251 473.6761407086775,78.11836179796806 473.6702353641528,78.13607783160245 473.34922253383974,79.15213697001526 473.174568782528,79.62418217351122 472.69190245573867,80.52111479311797 472.6057439034848,80.74649502932424 472.11836179807773,82.01631404539795 471.9543291699084,82.61462316256782 471.76433851647425,83.10438439969816 471.51886311503114,83.29437505310214 471.056249468982,83.539807970109 471.0515336902435,83.54184722576828 470.7694366557454,83.66139858951091 469.96584246757595,84.00127453480825 469.86430452891426,84.10276998897326 469.66607188378924,84.29985555274845 469.3120061177797,85.0338601410693 468.7125074348538,86.31315319908651 468.0575664883251,88.36298750957673 467.73069079789343,89.06988699125264 467.21259240383534,90.04821989975734 466.6390092616475,91.62605149121809 466.58475656395154,92.22440309288466 466.8561899906596,93.3939162205795 467.0190330530427,94.48313365622957 466.95883252617443,94.87496813664391 466.56232475151825,94.97408445917625 466.305038660905,95.03781119893648 466.10799558168685,95.07910612626344 465.1343784518905,95.28209703459348 464.15370889631015,95.4437505310697 463.94481264351583,95.68217350666852 463.7724955392496,95.8792590704437 463.7713484578695,96.74900161441218 463.671000084994,96.90474976633354 462.5345823774621,98.67023536409243 458.8608208004825,100.98797688845907 458.1905004674252,102.98003228824058 457.4234429433777,103.79671170023889 456.9879768885004,104.11177670153064 456.1878239443503,104.34072563515575 455.5376412609662,104.52366386271538 454.8154048772584,104.54609567508828 453.21157277600594,104.50242161612864 452.35597756825297,104.66998045715972 451.6325941032859,104.75375987766017 451.05901096109807,105.04524598522917 450.73566148361874,105.50429093382924 450.72032458161704,105.91736766083034 450.74394595971575,106.30563344379566 450.972894893371,106.80835245135538 451.4295607103686,107.24148185912686 451.8414903560802,107.56130512365381 452.5105786388245,107.96252867704852 454.01996771184685,108.740207324329 455.6213781970002,109.42590704394505 456.26217180731334,109.83660463931345 456.60561645005976,110.15634293484705 456.8793865240547,110.93410655112089 457.0398929391509,111.48283626477627 456.90300790215343,112.19092531226853 456.7820120656446,112.44702183703525 456.5513212678369,112.93559350837943 455.7500637268337,114.16998045715417 455.61313620543007,114.8095845016812 455.61313620543007,115.63216925823436 455.88809584509045,117.07192624694163 456.0013595038685,117.55102387631212 456.0013595038685,118.00892174359252 455.88690627918356,118.5199252273096 455.64971535395813,118.88694876371837 455.4302404623067,119.26578298923684 455.2449231030842,119.49706856999796 454.9770583737346,119.64223808312262 454.74220409555465,119.60914266292949 454.4235703969346,119.51712125076835 454.0801682387151,119.42505735408037 451.45084544142185,117.2772538023775 450.9705157617987,117.14036876541019 450.55981816640013,117.18523239018619 450.30729033905226,117.34569632084606 450.0559095929637,117.82598351603288 449.8269606594291,118.4431982326535 449.79628685530497,119.07698190161902 449.7691392641332,119.63747981988743 449.95203500725654,121.14567932706328 449.92968816387696,121.99184297733919 449.51775851816535,122.42616195089684 448.9454074264113,122.63148950633271 448.2137819696326,122.63148950633271 447.89395870510566,122.33409805423904 447.4136290254825,121.62605149121326 447.04779505482975,121.39706007309148 446.29246325101934,121.26017503612417 445.6516696405854,121.28260684852727 444.737105956398,121.51155578215237 442.3355425269739,123.04333418305097 441.923697850316,123.38558925995082 441.6487382106556,123.86587645510745 441.60502166716907,124.39102727507026 441.923697850316,124.82534624862791 442.0522984112165,124.91384144789706 442.9114623163279,125.50271900758992 446.0671254992494,126.87288639647878 447.7605998810605,127.74143937463091 447.9659274366171,128.01520944856554 448.1028549580207,128.4494859376567 448.03432747052864,129.0442688419044 447.80546350592704,129.6378621803358 446.9132891495253,131.0091766505443 446.5025915541267,131.94621463169187 446.375138074727,132.41821735069115 446.3438270031829,133.60557396551042 446.32555867112194,134.2840513212954 446.31850624533797,134.56963208430955 446.09779930325277,135.0440564194382 445.5501741864506,136.42951822586227 445.19853003666094,137.12813323138082 443.87207919116804,139.16148355851948 443.2997280992932,139.77869827514007 443.02591554089213,140.2814172826998 441.8788342255702,143.72266122866563 441.30763021495466,145.48109440055 440.8497748322917,146.50892174357585 440.75656385425384,146.59745942734168 440.3234344465427,147.01168323563226 440.2101283032378,147.0978417877654 439.2236808565926,147.85075197553695 439.0783838899175,147.961678987179 437.0887076217989,149.65277423741782 436.1741014529639,150.20154643556987 435.64776106733564,150.2736851049473 435.5108760303382,150.29242076644152 434.82526127968526,150.24641006034585 434.11598266640686,150.17792505738063 432.3776446597292,150.17792505738063 432.21365451620755,150.22869402671148 432.11215906195196,150.26059988105808 431.9138839324208,150.3903475231877 431.7663777721601,150.57094910361133 431.66488231802526,150.74322372335072 431.5078596313546,151.114963038498 431.46660718837336,151.50441838730984 431.41702778488906,151.9611266887739 431.2117002294532,152.73765825476494 430.7302234685708,153.74313875438105 430.4339790976157,154.31548984622566 429.33528762011264,155.37522304359814 428.5918089897577,155.9239952417502 426.8381765656052,157.21739315151646 426.3896677712448,157.5501741864426 425.76659019462636,158.12133571250106 425.2626391367838,158.47068569974195 424.49324496569085,158.85185657236624 422.44689438353555,159.8337581782898 422.02557566499456,160.03670660212316 421.1215906194227,160.32585606255614 420.73808309972276,160.4485937633079 420.37815447359463,160.56304698787213 419.5780015295653,160.67750021243634 419.0292718157892,160.69993202483943 418.1370974595082,160.63148950634067 414.8103067381066,160.2220239612853 411.6322542272787,159.83018948087096 409.0088367746308,159.0914266293149 407.03449740851386,158.75630894725276 404.898419576867,157.8192709661052 402.4768034668234,156.7984535644572 402.16526467839344,156.68871611863148 401.7227037132053,156.5317359163971 401.33210128307377,156.39366131364363 400.8895828022917,156.2378706772256 400.2440309287132,156.0096439799836 399.8746707452288,155.8791316169742 399.50174186426517,155.92280567596404 398.7925057355136,156.05973319739783 397.0069249723971,156.62970515763996 396.33307842638743,156.75363242417788 395.850454584125,156.39485087946 395.6380321183783,156.00186931772598 395.4539043249419,155.39646529018486 395.44566233325105,154.80168238593717 395.5365366641227,154.18446766931655 395.58135780446236,152.72470048433553 395.30168238594274,151.46431302576906 395.13527062632187,151.17750021244188 394.94646953867385,150.9379726400201 394.7741524344076,150.7833715693882 394.32453904331476,150.5744753165335 393.7533350326992,150.5520435041304 393.35678477363695,150.65710765571427 392.9154983431679,150.84000339877724 392.623969751072,151.0229416263369 392.41745262985,151.22355340303423 392.274619763801,151.45250233665934 391.9819865749727,152.05433766678158 391.6715948679228,152.8827852833929 391.4650777467008,153.248661738482 391.01308522391486,153.6994646954214 390.6861670490771,153.90122355343843 390.2814597672569,154.04405641942708 389.82942475994406,154.08530886228755 389.45411674740814,154.0735406576745 389.019840258317,154.02634038579268 388.69768034674456,154.04877219816558 388.4463420851829,154.20927861332214 388.36489931178824,154.3367320928124 388.31769903987623,154.50310136802716 388.31769903987623,154.69313450592782 388.3294672445195,155.0022941626647 388.7224488062233,156.09864899315247 388.7815022517115,156.31226102474568 388.7815022517115,156.50225167814966 388.6871017078875,156.69224233158383 388.56194239112716,156.82912736852097 388.36489931178824,156.91881213360645 388.08518140886247,156.94833885635055 387.66624182177304,156.89051746114518 386.63131956837594,156.72763191438614 386.4542442008443,156.83622227889217 386.03063131966394,158.18863114964998 385.87955646192404,158.76217180731092 385.42875350504505,159.39000764722493 385.1691307672656,159.56818761154938 384.87054974938576,159.71221004335436 384.03386014111373,160.1146231625654 382.6814087858291,160.49698360100606 380.84161780954344,160.89820715440075 378.5580338176359,161.2404622313006 377.79331294075456,161.35015719265982 377.6033222874412,161.2935253632708 377.2410145297407,161.1837879174451 376.8716543461356,161.07400798709253 375.3339706008029,160.6126263913866 373.88949783326655,160.25622397827124 372.0638117087903,159.6401988274368 370.6901605913854,159.1763956156317 368.0797433936938,158.11194663949053 366.9538618404921,157.64695386186912 365.80678052517015,157.1914351261912 364.8403007902115,156.8848245390737 364.78010026346396,156.86574900163626 364.5004248449443,156.76302149718842 364.3316339536304,156.73948508796232 364.0897272495457,156.70638966779939 363.44540742640095,156.79016908829982 362.56971705326015,156.95895997964394 362.5626646274762,156.96129662674974 360.9269691563134,157.54550089220078 360.3711445322264,157.77916560456438 359.8388988019528,157.94672444559546 359.40109610003003,158.03993542360314 358.94319823271945,158.09660973745864 358.4121420681112,158.03050386609593 357.88937037984147,157.67643810011654 357.0585861160941,156.96839153712097 356.5098139180326,156.48568272583495 355.8135355595897,155.8720367066332 355.65536579153894,155.73281502252988 355.0688673634486,155.39527572436853 354.9921403687925,155.35164414990555 354.648738210573,155.18285325859165 354.34896762678625,155.03415753251463 353.7140793611185,154.74500807208165 353.0331379046773,154.31667941204202 352.49498682987894,154.11130937210947 350.77908063563456,153.45751550687024 350.3813832951922,154.13136205287987 349.5010196278398,155.61950887928532 348.6619508879955,156.9152859206541 347.8193134506719,158.23940011898083 347.57388053363485,159.2542696915773 347.51962783581814,159.48088197809656 347.22223638372446,160.70940606681313 347.1808989718103,161.03509219136808 347.0168663438825,162.34034327474075 346.9236128813178,163.08615855214111 346.9330869233217,165.06287704989074 346.9861500552315,165.67061772456782 347.113603534752,167.13871187020288 347.3343104767164,169.68421276237828 347.34378451872027,170.43835500046288 347.40865833967945,171.19360183534027 346.96142408027964,171.65974169431155 346.7466224828399,172.20146146658908 346.63450590544187,172.73251763107658 346.38312515935326,173.31073158300956 345.7198997366068,174.45076047245698 345.67626816217404,174.8708896253024 345.64907808659615,175.1340810604403 345.8178689777893,176.016781374808 346.1565128728642,176.99664372507226 346.3949783329295,177.68544481267392 346.5070524259214,178.01117342172552 346.7938227547519,179.06032798030128 346.8339706007592,179.20783414056197 346.68875860313784,179.60200526811232 346.60378961679083,179.82980712041777 346.5436315744495,179.99379726403 346.2238083099225,180.3431047667742 345.8178689777893,180.78451865070303 345.7517631065171,180.85763446344362 345.52515082002805,181.1042994307333 344.30376412614913,182.5039510578998 343.98275129583607,182.87212167562822 343.6498428074199,183.25448211406888 343.48950633018967,183.43860990741467 343.10238762848365,183.81268586969796 342.7755119381727,183.98024471069886 342.50407851134395,184.1430877729914 342.1346758433327,184.36617384655833 341.78184212763614,184.57859631236542 341.6390092617079,184.61041719774886 340.6890559946578,184.67184977486974 339.48058458668146,184.7284816042286 339.2752570312456,184.8818931090441 338.637989633764,185.3586540912786 338.4940096865764,185.55217095763493 338.525873056366,185.7398249639029 339.31888860567835,186.45029314302784 339.62456453398977,186.67214716631193 339.5903220325071,186.8774747217478 339.42628940433787,187.8487127198813 338.9235703968083,190.84386948767644 338.8586540913223,191.22622992611707 338.8220749426735,191.44574730226515 338.7500637267559,191.87178179966546 338.5140623671959,193.27963293399594 338.33940861588417,194.32050301641434 338.2013340131005,195.1359928626265 338.1378196957935,195.51928795993362 338.0821650097978,195.84875520439078 338.4302404623497,196.80465630049238 338.92238083102217,197.69453649419444 339.0663607783305,198.13705497497648 339.1926671764709,199.02685019971537 339.1926671764709,199.37615770245955 338.5565468603694,199.39272665480445 338.0644064916969,199.40806355683634 337.85788937035414,199.50361118194982 337.64784603617977,200.60582887249578 337.501529441826,201.85206899484672 337.2808649842677,202.6096949613568 337.23481179373573,203.04401393494464 337.2241906704725,203.1466989548958 337.40356020052275,203.51372249130458 338.0715438865346,203.9940096864914 338.2780610077566,204.19695811032477 338.49515676783574,204.40938057613184 338.8138329509826,204.76701503953007 339.0663607783305,205.19067040532784 339.2787832440772,205.6379471493149 339.2953097119858,206.10994986831415 339.205624947021,206.63042739403514 339.8110289744716,207.18977823098388 340.1509049197387,207.50369615092578 339.9231455518696,207.91910952506288 339.57502761491156,208.394680941481 339.43338431476946,208.58705072651767 339.0427818846379,208.9281162376012 338.1458492650915,209.40959299857417 337.8614580678334,209.3836349732791 337.7788257286526,209.37658254740455 337.735194154099,209.35058203758263 337.2902965418655,209.08386438952255 336.5656810264646,208.54575579916053 335.73489676271726,207.99226782226995 335.0232815022726,207.55204350415747 334.97251253300215,207.52022261877403 334.21607613233857,206.86642875353476 333.3958705073276,206.15715014022615 331.70354320677575,206.21972979866672 331.0616025152032,206.1937292888448 329.4365281673036,206.28001529443776 329.0376412609544,206.3011300875345 328.3850794461187,206.24921403691414 327.7005692921983,206.1961084204473 325.59525023372925,206.76021752063124 322.7912736851243,206.80508114540723 321.17801002639476,206.78502846463684 320.54550089217855,206.81922848162276 319.64980032294517,206.73425949530596 319.03496473789687,206.50297391454487 318.2583906874394,206.0934234004961 317.67775511934684,205.76064236556996 317.36978502851684,205.64143087777057 317.060540402847,205.53759877646954 316.71837029481975,205.42671424932416 316.41974679241304,205.35822924635892 316.17197722833055,205.35822924635892 315.26676013256645,205.43491375651837 314.8867788256981,205.54588325262688 313.97336222277,205.6402413119542 312.58084799053177,205.81022176908448 312.263361373171,205.8491800493056 311.1457642960663,205.77716883341822 309.76973404708906,205.57065171216598 309.3862265273891,205.51283031696062 308.8468858866839,205.43257710938235 306.5161865919181,204.68552978166895 305.32424165185034,204.11198912400798 304.2066445747456,203.69542866855122 302.87785708220724,203.25996261367388 302.5851814088521,203.14431982329333 302.0588410229824,202.93542357043862 301.2622567763115,202.61797943754436 300.84093805764974,202.47285240888618 299.3303594188412,201.95003823605938 298.44527997287105,201.64440479227483 297.2238932789922,201.0826323392269 296.91702778489463,200.93512617896624 296.35177160345137,200.6613561050618 295.9339790976212,200.45951227805145 295.0264678393385,200.0016568952677 294.46354830494073,199.68892854111195 294.03279802868116,199.4041549834441 293.4191095250129,198.99851304275742 292.57417792505004,198.48517291190433 292.17648058460765,198.46983600987244 292.1209958364779,198.46745687826993 291.7338771348927,198.67049027106646 291.6253292548531,198.72831166627182 291.47782309459245,198.80499617643127 291.30079021158764,199.10948253889615 291.54979182598316,199.45526382871816 291.7197297986771,199.80571841281218 291.9274789702122,200.23294247602882 292.34522899151546,200.7309881893467 292.56827258052533,200.92684170280887 293.09928626060673,201.3917919959638 293.3778570822732,201.63612031611748 294.03279802868116,201.97871526896054 294.0682300960707,201.9972385079714 295.6306823010029,202.74543291700445 297.0940606678994,203.4464270541557 297.49532670582096,203.7025235789224 297.89773982500185,204.10493669813346 297.9779505480834,204.40113858444096 297.93784518648226,204.7386778826023 297.80091766507866,205.139901435997 295.24479564960984,207.41991673042534 294.84352961180906,207.90139349139832 294.3585266377328,208.33214376756732 294.03279802868116,208.74517801004154 293.99740844593924,208.7900416348477 293.7436910528052,209.0650012745685 293.61857422045097,209.19954966439977 293.1370974594478,209.72113178691356 293.10166539217903,209.76599541168954 293.0107910613074,209.87811198914795 292.33103917077307,210.72899141816237 292.0443113264694,211.08654091259743 292.01006882498683,211.13493075029558 291.23710595641467,212.20885376841045 290.8983770924068,212.6962358739383 290.32131022179345,213.52587305636598 289.4845781289946,214.89128218201964 289.25333503269997,215.19695811033105 288.7104256946363,215.91562579662002 288.3953606933747,216.39119721303814 288.1239272665459,216.79951567680402 288.04363157453133,217.0887076217639 288.0294842383158,217.11343359677613 287.89850454584297,217.3530036536946 287.78405132127875,217.4840258306037 287.66602939935603,217.61857422043502 287.6306398164934,217.63034242504807 287.6259240377549,217.63272155665055 287.32500637270886,217.7365536579516 287.05943580599865,218.00208174019534 286.9426459342682,218.25817826496205 286.7592403773055,218.65825473703708 286.72193899230376,218.73965502593504 286.45641090999965,219.18931090155476 286.4009261619907,219.41350157194466 286.27818846120874,220.4756139009498 286.2640411249932,220.59478290428274 286.1377772113796,221.0680601580615 285.8084799048488,221.7489591299457 285.6255841618462,222.12422465804534 285.4686039595816,222.44995326709693 285.4461721472691,222.49600645768928 285.2798453564605,222.7568187611945 285.2420341576194,222.81582972218604 284.86443198232337,223.4094230606174 284.5221769054839,223.94400543805725 284.260217520659,224.35585011474532 283.9615940182523,224.8220324581831 283.56156003064376,225.66348032972047 283.0009771434122,226.7314980032503 283.6122865153874,227.25070099416158 284.7393151499691,227.76879938824987 284.8974849180198,227.84076811967077 284.8974849180198,229.22622992609487 284.8289999150546,230.5869232730402 284.99422210901,231.0530631319813 285.14882317958154,231.34930750278548 285.2739400119358,231.47438185064308 285.6090576939376,231.7080465630369 285.7412694367234,231.80130002551104 286.35725210303104,232.23323986749637 286.3549154559856,232.3653666411983 286.3549154559856,232.38422975618255 286.1507349816883,232.83031693435325 285.95602854963636,233.2516781375117 285.5795309713142,233.85113433600125 285.1263913671483,234.5367915711206 284.9812218540538,234.79407766167347 284.7156937718704,235.26731243098578 284.73222023965826,235.42662928035617 285.3836349732347,235.89395870511362 285.92063896677365,236.51588920047274 286.57086413456386,236.8404282437382 287.0204775257775,237.1543461636801 287.2494264594328,237.41634803300167 287.2942900841786,237.5650437590485 286.9414138839552,238.22703713148195 286.83048687234333,238.43007052427848 286.52604299434495,238.97880023793385 286.2805675929018,239.42369785031838 286.1436825559043,239.4803296797074 285.4178774747173,239.54286685362112 284.01355255330895,239.63968901354428 283.4234854278601,239.6692157362884 283.5887076216948,240.6333163395842 283.6311921148683,241.11011980631534 283.6630554847786,241.47123799816924 283.6972555017344,241.8535984366099 283.72559265869234,242.16632679076565 283.90848840181565,242.35988614158848 284.1256266463009,242.53097119554172 284.3935338601773,242.64542442013612 284.8938737361345,242.80949953271153 285.978417877422,243.1659019458269 286.62515931690746,243.41605064154209 286.73018098399467,243.45619848757957 286.9072138669994,243.71344209366595 286.95322457300455,243.94710680605976 286.6806015805103,244.4144362308172 286.56028549582754,244.65876455097086 286.50951652643636,244.87590279551645 286.600390857308,245.0186931770386 287.1196363328669,245.22992607702932 287.6235449061826,245.3278528337453 288.61011980628757,245.520222618782 289.6179369530397,245.64533945113624 290.21157277596774,245.70197128052527 291.9864899312943,245.73145551877272 292.65795734561084,245.74211912656276 292.6721471662325,245.74211912656276 293.3199932024504,245.91910952507087 293.62800577792797,246.75817826497558 293.6173846545441,247.1382020562802 293.6693431897214,247.62320503020555 293.714206814588,248.01503951061989 293.74250148701907,248.26756733796776 293.7885121930242,248.67354915459765 294.03279802868116,248.70940606683317 294.2180729033768,248.7372758943277 294.75856062546205,248.8163395361198 294.8824878919094,248.83520265107387 295.1079106126124,250.16636927524493 295.1645424420014,250.92284816046555 295.2400373863445,252.2292463251277 295.1834055570762,252.2788257286422 294.4081060413378,252.366131362095 294.4647378707269,253.9498682981106 294.03279802868116,254.02149715358829 293.7885121930242,254.06198487556898Z"/></svg>