<svg xmlns="http://www.w3.org/2000/svg" width="500" height="500" viewBox="0 0 500 500"><path d="M53.6207977321922,499.9245815683368 53.157742620905836,500 43.46120188664299,497.88828391236 40.568387847179395,497.21875703595754 38.87513861022194,496.82539618777565 37.92673425738298,496.674760172415 31.979323098033404,495.72635581957604 27.424089992671732,495.1628766980017 27.08927634260391,495.1490181845814 24.202186471699047,495.03734668521304 19.25349209427963,494.8421224092486 15.060689242021907,494.68867452158224 11.562619692971317,494.7332627821147 11.649185189696281,487.9602658344276 11.67700264062683,485.45247745031855 11.682626385095638,485.0005694041653 11.741073159191137,479.75893818885197 12.017339611358961,474.2580121790099 12.522171110943393,471.4628102775999 13.989466324538803,467.8865104243663 16.109618029238774,463.7301614878508 16.53360820065697,461.598963142179 16.812586100969277,460.1930269986466 17.035728251811495,459.0715920760909 17.119481876302057,458.6447900325096 17.761090877898155,454.47448215855525 18.034344609937158,452.32078883465147 18.218522244715707,449.15743251157875 20.32742646019264,444.2088385581779 22.575819625540305,439.854353049445 23.17273994251401,438.08297393253713 24.090514972188018,436.1554354796757 25.063724055543275,433.71734135867115 26.896763514926644,429.12565433778127 27.474201573868516,427.67794180587947 27.850892036324332,426.73787264586787 32.07141191513726,415.32578854438134 33.97946811003821,414.7065740971414 36.24453166175415,413.9672525336872 37.20699537576513,413.6548334377615 37.89329306198363,413.4316912869906 38.85555592838561,413.11646031875915 39.488829737082995,412.90998855371436 39.68967775737355,412.84591803515 39.818019642396585,412.8039407988862 40.64089398244691,412.2544206147507 40.65776521613876,411.29768106901304 40.68839453958913,409.45931913728793 39.26578801004528,409.18325353308586 36.33390903071352,408.29048408189396 35.35758680313952,407.9920239234071 34.746707548512866,407.8079467126471 33.99623891992556,407.5791808172647 31.795245887059355,406.0701092151572 29.54132940104738,403.60972096388633 30.275027220032754,399.620578004439 34.127292253378506,380.1467556316229 35.410510256285285,374.37237504191876 36.37297397058168,368.32172799997545 36.18608488765865,366.9967336086279 35.8931480496934,364.9101235235599 35.343627865486575,362.9853969430042 36.264114343590485,354.98491731793325 36.810923079367406,350.2454061538458 36.832915937649304,350.0306996199209 37.01177109994338,348.28442650558503 37.022918165076504,348.1784791747754 37.35210807067551,344.9955401697237 37.45253208096351,344.0107823251611 40.752565481957944,344.3595549127391 54.493884077243806,345.8072674446409 64.39398428051254,346.861719552308 66.53080637072452,347.07642608623297 79.1563137879948,348.33815335109335 83.19556832863893,348.7418578723312 90.52943337370311,349.428155558407 91.52533828339887,348.86467643683267 92.16674643681513,346.7278543466207 92.86137931564691,344.4151898144575 94.7165120574021,338.9142638046154 97.69860304173514,331.17599127032616 100.88977681573837,322.60098588256625 102.7811626248419,317.50999068268493 109.70208413953108,297.9524146853069 115.35635761302099,281.73122558064705 117.2923316829424,276.8522254663321 117.48213306218976,276.36968809708526 117.20586661002194,276.232910595145 99.15465076639293,279.4354322821757 88.92264920966612,281.2484873633631 79.1563137879948,283.1725109758601 60.388271359357695,286.8695204894194 57.411703695403546,287.45539416527856 43.4696375033462,290.06360655960424 39.36058827586446,290.5406206083295 35.59749976358366,291.0120109124432 35.54447588606255,291.53371364579084 35.4663460060408,292.28689372266535 35.31842143889601,292.87266697450593 35.2515390480973,293.1293507446947 34.65180685888919,294.06379616016613 33.4690128662704,294.71092848221247 32.57644426290153,295.07918332782236 30.760276037495434,295.450250045738 29.647276731714257,295.450250045738 29.164739362681487,295.1182482678332 29.08942135489414,294.26464418067076 29.147968552794136,293.5588642365631 29.200892006225327,292.892249656485 29.544141273281785,292.1612632858581 30.400557232821388,290.34810778065224 30.428475107556434,290.2866482864279 30.255444537911004,289.69535171399434 29.979278509833097,288.7441354888496 29.30422831283764,286.4343832529394 28.06841044241232,282.2025154608136 24.30532193013152,270.7152137756296 22.96355672932474,266.34395745715204 18.358011194871864,251.34171498901156 17.677337253407597,249.35281746587302 16.661849661590086,247.25495989165336 16.293695239927406,246.49635691820447 16.19045935740501,246.28154996026095 15.677192240831944,245.22147410798232 14.787335086178407,243.1711170905481 14.310321037524524,242.82806867152877 12.625507417555708,243.08736346605755 1.0320575535250194,244.8811371372502 1.0209104883919007,244.3650581485141 0.9483039287490366,241.28264357769754 0.945592480604553,241.21847263518603 1.0097634229733596,240.81115284956527 1.25801157660164,239.25458069060093 1.5425127972928363,237.47767825310012 1.6986721335318415,236.498544153149 2.1646395408571046,234.75508291104754 2.354240072495466,234.04920254299273 2.4240347596185035,233.78709587622956 2.49372902265162,233.5277006576822 2.5941530329396096,233.14538645068623 3.065643761214605,231.38796627121727 3.433898606681784,230.00723655420413 3.5148403589379402,229.7059645234115 3.60401688000289,229.36843942491376 3.645793268300961,229.20665634442003 4.092177993789892,227.54122455832177 3.6152643692259296,225.42398515008884 3.1688796434515765,223.35966919528707 2.7698950507295246,221.52140768750917 2.585817840040895,220.67061547265243 2.9289666832928547,218.34409242706894 2.9931376256616615,216.55604292443502 3.0461615031827716,215.0608298357478 3.160544450838284,211.886326447542 3.180026708870117,211.38420639624476 3.244097227149003,209.53469739938652 3.408792604181142,204.9792634461304 4.228855071711641,199.85482705077837 5.389354934349617,190.69123653887212 6.212329698489865,182.83858105692735 6.217752595064254,182.78003385895602 6.236230612767724,182.65731571840178 6.6670496168775095,179.7728368718369 7.1076097500032125,176.82991125124786 8.61396990375221,166.7122926419625 9.26120264981712,160.31016156415393 9.453715477494384,158.41054098617025 9.548616167118062,157.46203620924138 9.626746047139815,156.69208532262223 9.774570190194684,155.24718466309756 9.780193934948915,155.18020184820892 9.841553005083316,154.38795683132355 9.899999779178817,153.67655314267577 9.994900468802495,152.4659416990551 10.078553669203135,151.40586584677646 10.326801822545994,148.27323927081594 9.713211120060281,146.48227747192902 9.191508386784003,144.94809986724948 8.962742491187555,144.28138486315274 8.279256677488885,142.23102784578987 8.159350409169063,141.87954380985326 7.230528738451859,139.18486634267848 6.7758088200642135,137.85706007902513 6.201082209266825,136.18881642069246 5.414360513045761,131.39085848265225 5.333519184594103,128.89702903598206 5.17735984864052,127.20930311961757 5.057353156516199,125.92608511656807 4.973699955830137,125.04185170624064 4.9206760785944486,121.3373103919312 4.6250277921992895,112.67573950730362 4.783999000672699,112.07319544578975 6.153682076499946,106.90698266221099 6.834356017964212,103.33630655351755 7.66476215876473,98.97067397965152 8.563858322555424,94.18657455503161 8.625217392689827,92.49332531814551 8.480104698064864,91.68430949151549 7.785572243037573,90.93675315918117 6.2903591544216955,89.76791810378718 3.1381498964821257,87.20710584229973 2.237145676410048,86.51247296332522 0.711303264629218,85.33249084279812 0.5355612468393032,85.19862563711078 0.12824146121853694,84.88339466895064 0,84.50118088590187 0.05844677409549942,83.92936657150017 1.9080561949009542,80.85247532127659 4.164784553432756,76.81603265308094 6.284735409952887,72.98867277419869 6.6670496168775095,72.27736950949813 6.689243323053827,72.23830456955861 8.747935533244053,68.40542137008342 10.416179191790786,65.53229043668878 10.943304821641453,64.43867296499224 8.973889556320675,63.632469010667975 6.273688768624266,62.684064657757666 6.030963935945719,62.600411457214314 10.173353935022316,55.18580550800247 10.251584238848567,55.0490280059908 10.647656535531716,54.337825165380146 11.540225138615158,52.739275770151956 11.978274671205375,51.95265449780674 12.07588680925896,51.779623928161314 24.893907054206508,28.827314688059612 32.41867814293633,15.283931816882689 35.5248932039408,9.693728861957092 39.204428939910876,3.6682882466043285 39.315899591242065,3.4841106118257787 40.75818922642675,1.7406493697243315 42.272884573074464,0.7559919491802581 44.395747725918916,0.3012720307212571 46.596740758785124,0 49.02077551840363,0.2259540230766206 55.77147833568178,2.2678754235935648 66.23234621209497,6.814873759932379 66.94083760448977,7.277928871218738 67.73870636612938,7.799531180547808 67.84746556903066,7.869325867670845 69.82521602696474,9.160879063547695 68.11529640449527,11.89743334303914 67.77767088190762,12.432994589735731 67.1724153720352,13.403793496859493 70.6593378562381,14.843170835862566 72.89347081251933,15.283931816882689 77.56077711318086,16.20451871893381 79.1563137879948,16.406772675555636 88.3284403408369,17.568578050220893 88.50137048639242,17.59087218048713 89.1318324228554,17.669002060437528 99.20496319548414,18.94097257440669 100.28160900954164,19.074938204041246 108.83442069105386,20.15449631428035 109.56811851003924,20.358156207090737 110.0367973657944,20.489309964490886 111.41200376228596,20.87142332352109 110.3520283340259,28.291653017344455 114.58088340602296,28.77710268291562 115.0356033244106,28.827314688059612 121.02479087205825,29.513511950116833 121.39575716595535,29.558100210649307 122.25508542153385,29.655712348631535 133.6223804145935,30.673911388664887 134.03813581720289,30.710164456370002 134.43420811360062,30.74641752407512 144.28138486315274,31.62793948604401 145.1154062683362,31.70325749376 147.11826272905634,31.881811383998386 147.3163993012024,35.474781622958076 147.3330696867144,35.78438884657805 147.3889054364699,36.78029375627381 147.62881839691406,37.368778456401586 148.0110321800342,37.81245173367468 148.22292684165336,37.91287574396267 151.10459381598383,38.141541215326484 151.33335971129486,40.0356384727172 151.47847240620524,41.08727870814991 151.52024879450332,41.37750409775661 151.59275492977085,41.91306534445321 153.4562228641393,42.83646411881009 153.56779393956043,43.61183790193226 155.2750021138854,44.04978701071798 158.24574518547632,44.83369683477599 158.03103865133733,48.04455371470548 158.01145596921558,48.301137060875696 157.86925557091493,50.44067059937487 157.8580080816919,50.602554103887186 159.51781612325,50.71974892384846 160.57236865493567,50.79496650754589 160.63643917349998,55.199664021422784 160.63643917349998,55.2610230916999 160.64487479048861,55.576354483878596 160.66988036889933,56.80092486493817 162.84305595083498,57.111335480635304 163.3255933201532,57.18032677568118 163.3898646866119,58.51928010446762 163.4009113276551,58.76471638550472 163.41487026530805,59.093906291103735 163.47632975953238,60.360453908498506 167.7999850970632,60.890391410583575 168.79880230308328,61.406470399319694 169.4654168830901,61.74961924235758 171.72776898637613,62.918454297680206 172.17967703252938,63.14993164134978 175.01384344971763,64.61170353463766 176.9888824595072,65.63271444690541 179.60553047089292,66.16265194906184 180.31402186328773,66.30495277159511 181.46327423641725,66.5392419874991 183.435501373687,66.9186438982421 184.83591419676912,66.65914825574755 185.2487573030542,66.58393067205013 187.935099577473,66.08462249305866 188.81380966727883,66.08733394134585 190.60477146609438,66.58393067205013 191.57818139734405,66.67320761720501 193.22965424628885,66.82384363256563 194.2757711609859,66.9186438982421 195.43898247176836,67.01625603622433 197.4446508044375,67.1836628613296 197.94405940773294,67.3509692624163 198.1113658085342,68.1516498961476 200.37934165628906,68.15436134443479 203.9052286562702,68.2045733495788 205.8272437888241,68.3915628566631 206.26800476984423,68.43333924496118 206.6809482999338,68.47521605720645 207.89155974348313,68.59241087716772 208.22908484198086,68.84899422340929 208.39086792240326,70.44463132231316 208.42993286255683,70.81840948851601 208.49691567744546,71.47950074807258 208.80099958054385,71.84775559361113 211.73287855987562,71.6803487685772 211.6798546823545,73.72508204139992 211.67131864156136,74.02354219988676 211.5765183760276,77.63619554484407 211.5681831831289,77.97362021925187 211.55984799023017,78.27770412235024 211.5291182429753,79.49946263110405 211.6619792086197,83.67017220106132 214.18483119422916,83.59184147307379 215.9475738463253,83.95085730968924 217.5992475428791,84.98934199976023 219.4849091834239,85.9168581585215 219.00879895100846,86.81545220229073 219.07678600594002,87.99483177870644 218.60067577323917,89.848558584059 218.94071147198696,91.08427603025169 218.7364490352079,93.05007603097548 217.24013128217373,96.3076300756846 216.76371977748855,97.37503688067629 220.09719437388233,97.43107347839758 220.70927871644633,95.85833305379998 223.5707604649718,93.45930387280627 226.6956543918596,90.46636709511039 228.47195428553442,87.20097997766673 230.71874066687047,84.17199098030287 231.86578371201966,82.15346837411366 233.29401398574691,80.30004284088815 234.7229472278182,78.10949390516781 238.607347944536,73.80331234536888 241.05377725822524,70.41671344750677 243.1710166666009,68.30218548756102 246.52969768958525,64.55556651289781 249.1854106408391,61.59335948238544 251.84102316800303,58.6392867966633 253.2804005068634,56.82040712289865 255.10199162912932,55.001627873152565 256.9263946233442,53.37536145108375 256.95150062613027,53.35296689679894 259.80243785292043,51.06279734293914 261.4705810876627,49.849374027012686 263.78866851604346,48.65543296904671 268.98561104680573,45.9383609475871 277.0111966746628,41.73461187823339 279.51617318625205,40.420664128071735 280.7295965023212,39.59487749169708 281.23734029823,39.24620532813759 282.6516116345897,38.28103016555399 284.62665064437925,37.02854190961666 287.5361350696403,35.30185147725986 287.73979496216526,35.181844784992826 288.4985987836513,34.65190728290775 290.10809439611813,32.961369494237495 291.60340790882395,31.39365027014003 293.04559712020415,29.348916997317325 294.66352834937425,27.48826093532596 295.5478621836489,26.470162319311175 297.44195944118235,25.71135849782516 299.0347846678518,25.18132057172152 300.1673666554693,25.027872684055133 301.1716067580638,24.891195606062027 301.4086074221836,24.86056628296843 303.5091764447618,24.57596463790189 307.22486482427576,24.57596463790189 312.07584663983704,25.030684556289536 316.80421073864864,25.44915140704342 319.2423048594392,25.47144553730966 321.25912025752683,25.485304050729972 322.48650251096353,25.608122615302765 324.60093004681937,25.81740625265331 327.033500847231,25.99585971887313 329.76724325441666,26.171501312787193 330.2163394283355,26.19982088373921 330.7046009662124,26.230148934777112 332.3614967114462,26.1632665439784 334.93907978267833,25.934500648596018 337.74542874922145,25.025060811749373 339.94360990985325,23.585683472746297 342.8251764600938,20.935594266103962 345.0986756282275,19.19203259998395 345.92988516117657,18.80439592043215 348.2284903318109,17.735884451307594 349.7963099800697,17.443048037432263 350.6527259396093,17.281365380885724 355.65715564240884,16.826645462426722 358.8428060960332,16.22128952860709 362.02855697317665,15.841887617864083 364.0453723712643,15.426232639415959 364.3353969129052,15.364873569138846 364.3688381083046,15.359249824598681 364.73387938574854,15.283931816882689 368.999590069348,14.402510278861008 375.46579166564953,13.1081452106784 377.0027811425635,12.667384229658277 378.6012301137018,12.207140990677676 380.5343923113888,11.44271342458014 381.43539653117546,10.940593373282903 384.9726314444695,8.775953832211732 387.55573783636595,6.954362710231244 388.3925711137838,7.35605875124049 390.07738473375264,8.164974153851938 393.6648316523334,9.883429817328597 395.24098649320547,10.642133214867405 396.14480258551197,11.074458578970248 397.02622412346227,11.498549174264298 398.8672975034746,12.377259264070139 400.54387635492003,13.18065134608863 404.6138606422482,15.13329580152206 404.88550758999014,15.283931816882689 405.55955354694265,15.6578104071041 405.84395434411476,15.816781615292086 406.382427886993,16.112429901473178 412.9545768142468,19.755612145576865 413.9030815911757,20.353335854627737 428.77135842961025,29.722695163520168 429.12846621022976,29.94864918659679 429.44922049884013,30.113244139396297 430.1382296332031,30.46472817526155 438.7580241293185,34.87494900966005 440.4511729424715,35.74532390656717 440.78879846505913,35.9182540522654 441.10674088143514,36.0828490050649 448.91751955106326,40.096997542994316 458.0199518405868,45.093192477270534 458.33227051249395,45.2661226228974 462.5166377480485,47.564627369655916 463.31721795754714,48.01653541580916 465.82229489351175,49.436430496851756 467.06644795655035,50.13939856858226 470.4779520091614,51.27479242857688 470.9187129898961,51.40875805828279 473.54098474603603,52.192567458322245 482.19412001346086,49.146405955210824 482.375586200095,49.082235012627955 483.46066763085565,48.697309781363344 485.60582491396633,47.932882215265806 486.0688800252527,49.11848808033307 486.34785792585046,49.838126537861 486.5961060791933,50.468688898271196 486.967072372805,51.425528867956075 487.0786434485115,51.71003008900405 488.41207345641953,55.12996975831831 488.45676214104196,55.289041390524865 488.81939324204035,56.608412037260905 488.89461082573774,56.87905474488856 489.04534726511696,57.425763056789634 489.54184357180264,59.236207113637 490.189076318153,61.58773573784527 491.76241928679065,67.29513351266078 492.1305737084533,68.63699913777155 492.2058917159552,68.7960707699781 492.2923567888757,68.97452423619792 492.6188352463302,69.66072149825514 493.11533155301595,70.44181945007875 493.2491967587033,70.6511030874293 492.8865656574195,71.78077277879385 492.3063157262432,73.58569351511962 491.62293033663445,75.55229690799192 491.20998680625945,77.64443031365286 490.67723743194,81.73399728331684 490.67723743194,83.60861228274707 490.5126424792832,85.25436096284773 490.44837111253906,89.76510623148143 490.5126424792832,91.27709012991329 490.46494107424655,98.97067397965152 490.38711246649456,111.47346325651029 490.5126424792832,123.13931883193264 490.67723743194,125.01674570366865 490.5126424792832,126.82718976058737 489.8208214724004,133.01441345650522 489.42464875191274,134.88892803191692 488.9505469995832,138.47637495028366 488.9392995103602,138.57117521596012 488.76074562033585,139.91575228928673 488.38696745391894,142.75554245130056 488.16944904783094,144.144707785231 487.8402591422319,146.11974679487787 487.2460502734027,150.65830951444212 487.1148965161453,151.6541140001193 486.2138922960732,158.53325912665312 485.8596968120634,160.73425215944798 484.75774414732547,167.55464924004468 483.1230421085534,175.71410007330365 481.39916354843103,182.24447261225941 481.2915090093772,182.65731571840178 479.7672733818934,188.50149099530032 478.7574095345447,192.43750965327933 478.7267802113797,192.57971005179405 477.85088199409375,196.51864100602603 477.0335309744223,202.7727470927426 476.48672223864537,206.99055552355375 476.0682553878915,209.09112454606063 475.5772824018701,213.1555855131526 474.8130556838097,217.27296993367577 474.1546758726116,219.3455206572863 472.87145786941943,223.69167097319186 471.31207383814933,227.4826773603504 468.5894784960968,232.19979397008169 468.2324711395672,232.66284908136805 467.6856624037903,233.37706464232159 463.82767320188583,236.90024019415824 459.48995850289754,240.49592188133377 455.2247499391768,243.48634805877958 448.23975790592334,248.36805962131038 445.3915321269922,250.0614092822864 443.79318357965843,251.01262550743112 440.2253193434848,254.13691689049293 434.4173971342914,259.1245757839047 428.56769853679987,264.006387770454 426.7015191542869,265.56295992941835 425.92042120253467,266.34395745715204 421.1670515247415,271.0946156863726 418.2491314830627,273.8395051586914 416.173768887075,276.1130043268965 414.3409302758715,279.0867601185449 413.9030815911757,279.98264271409823 413.1861545820777,281.4493353838677 412.17066698997473,284.00753662108656 411.3254985196582,286.85556155198054 410.0422805167514,292.2170990355423 408.96563470297934,297.7376077273634 408.5666501102573,300.7782459098819 408.4494552900819,301.6820620021884 408.3295490217621,305.2638851760149 408.2011067129346,306.99338748060615 407.9501471111618,310.48593370927784 407.5373040051621,315.64652274831644 407.3893794377319,317.50155506576766 407.6209572055628,323.37635966575976 407.6795044034628,327.50499157543464 407.52896881226343,329.2875177574756 407.28062023454527,331.71165294104134 407.09935489609103,333.4663616722231 407.0351839537222,337.1485084323191 406.9486184567118,340.23935861998154 406.86215338407675,342.7359999389575 406.8175651235443,346.73337766721363 406.7311000506238,349.1882425978915 406.72045510536947,350.0306996199209 406.7087054965531,350.9762921005254 406.7311000506238,355.2555600255609 406.7533941808901,357.66844771997495 406.8594419359323,359.73547512306385 406.91246581316796,362.93518493786024 406.94590700856736,365.0747184763594 407.0546662114686,369.48775118306366 407.1076900889897,370.430632215381 407.16071396651085,371.3568428619723 407.37552092445435,377.4296836101633 407.33364411206634,379.17595672449914 407.37552092445435,381.94876407169573 407.2972906206281,382.980821625078 407.28343210706504,383.1566640670292 407.2388438465326,383.7563962563087 406.94309513633294,387.6533499742768 406.56931697020144,390.0189379598712 406.40472201725925,391.05109593727207 405.7129010106618,393.6342023290971 405.21921657621056,395.57298827111026 404.22612353874916,397.46708552850095 402.2399374641119,400.84524880951716 401.3334099233755,402.546833239302 399.8464316035684,404.76459708184143 398.2926713167671,406.4550344464218 396.04980147179833,408.89302814340783 390.5126223943939,413.3284554043969 383.97391466253936,418.76531089567465 377.24269410300764,424.95815833613267 371.4153900598723,430.9332865223942 370.865769451861,431.4912423233756 370.7569098248698,431.600001526491 369.9312236122996,432.4396466762146 368.6712035556121,433.71734135867115 368.1348389169097,434.26123779826645 367.3007170876363,435.109318564836 367.19758162920385,435.21255444742974 366.6619199585601,435.75645088695364 364.4442565398964,437.6310658863839 363.21677386265526,439.1793028525209 358.15108551324033,443.2687693981663 356.1369815635826,444.9452478253791 350.74752620514306,448.9733553007474 349.171371364271,450.20646172267146 343.86848150255645,454.2121746438263 336.73275302963833,459.2138928986241 332.34753777407866,462.5305966853447 330.2163394283355,464.02199366168315 329.3934650882852,464.59772451245215 328.682161823656,465.1472446965876 327.5188500887836,466.0427255959954 326.2886559631125,466.98831807659997 323.72503182953335,468.58405559959374 321.6775871082807,469.6607014135085 320.0987208192642,470.42512897960603 319.2980401851048,470.81005421094204 316.7344160515256,471.7361644335147 313.3534408979896,472.74884015288376 311.9001046217617,473.0975123165146 309.70202388521983,473.61349088123217 307.84970301598446,473.9789338545363 302.38503007413294,474.5425134001292 300.14487167730863,474.9302505036996 297.88261999811255,475.27329892271894 286.2780230689487,476.3947338452747 274.02077049714563,477.49658608578 272.00114322710897,477.8648409313899 268.790386770984,478.1325713427646 266.6284586782714,478.31393710523736 264.31870644250387,478.5092618052204 261.9392599434178,478.70729795341924 258.23190675680263,478.9221049113628 254.58038931965754,479.33213614527074 249.42803504942773,479.74216737910734 246.52969768958525,479.98097567548996 242.89213919009308,480.28064092212827 237.7397849198633,480.64598347141384 233.0701688668461,481.0142383170237 230.91386451888772,481.0142383170237 225.2258485777287,481.27373395951827 222.66222444414953,481.28769289695714 221.31764737082293,481.29592766583727 216.08163989990706,481.57500599031084 210.16787078385127,481.9348252190748 206.1565341182276,482.18026150011195 194.0106517739512,483.0227185221413 191.792988355573,483.2375254800848 184.08273412003732,483.6922453985438 177.34026607156798,484.3142717180895 167.7972736486333,484.9866104667264 165.25594364532037,485.13724648208705 162.84305595083498,485.2889871615805 158.06447984673667,485.5891545282403 155.67388628280295,485.7843788042047 152.56907715763026,486.12752764724263 149.96086476323322,486.6240239539284 148.58284649450727,487.01186148158865 146.22288225345307,487.50835778827434 139.39123768391875,488.94773512727744 137.22097439830742,489.533508379118 135.30729445865222,489.8793686704431 130.06857553959188,491.0203862749779 120.79050165608292,492.92291914928586 118.9549515967349,493.377538643655 111.32272681713108,495.27163590111707 109.42581768736325,495.94116277751954 107.14117145409641,496.39307082367276 101.76296358487991,497.21313329141736 100.97061814390462,497.31636917393973 99.30538720577213,497.53679987649474 97.34139483731116,497.64555907953877 97.31076551414621,497.64555907953877 96.04441874493128,497.71525334271456 95.88534711236795,497.7236889595605 95.53938639716701,497.74327164153954 95.12654329088193,497.76556577180577 94.9871547648157,497.7739009647045 93.77081915270763,497.8408837795218 93.67601888688844,497.84640710011473 93.00096868989299,497.8826601677485 91.55877947879821,497.7097300221216 89.63947579467423,497.69024776416114 87.96289694351421,497.65399469645604 82.61260694903275,497.53961174872916 79.1563137879948,497.32510606284137 73.26755025063515,496.9593618174815 63.9867649189817,496.3540058836619 61.833272442972294,496.2452466805466 60.022727962035,496.8282080600814 59.43414283796001,497.18812771286395 55.45353591930581,499.62612140984993 53.6207977321922,499.9245815683368Z"/></svg>