<svg xmlns="http://www.w3.org/2000/svg" width="500" height="500" viewBox="0 0 500 500"><path d="M216.96442725317272,286.44890107230407 210.86405198414712,286.14889449373203 208.55201326380302,286.09093340820687 208.37250778200348,286.029726501913 206.1530618958192,286.25754254850546 205.63544042168314,286.27365573027106 205.05907538740576,286.29217429709894 202.28981064407873,286.19074239745044 201.79554748739892,286.17060092023826 197.62313180551877,286.00399177996024 197.16506534678825,285.98547321313237 196.07267276825513,286.3404558813261 195.79898052249774,286.42902041997763 194.6711447401481,286.94183112398923 192.81398461885615,287.91798274555765 192.72301469522478,287.9658006411036 192.50160334855474,288.1477404885105 191.18542301885515,289.2296710911295 189.5971443732785,290.75917719601966 188.1287872135301,292.6026874816573 187.24004090895133,294.5484121415596 186.8987080763707,296.0505606141127 186.7892485664566,296.8161106314877 186.69343889205265,297.48428602520585 186.62504481117904,300.2157021797159 186.72807064068732,303.1733404509586 187.37769848701188,306.17685492136627 187.71355399703253,307.7965484753129 188.57395733080088,311.9463883143529 189.08273973938654,314.61581508791176 189.11977687300106,314.81065127684025 189.29606551463888,316.40695753278544 189.12539909830738,317.87531469247205 188.9909583604909,318.2198643652556 188.19721027496948,320.2517191982432 186.9389620503117,323.4742106497135 185.44811598942036,326.3722649250467 185.1389805399288,326.9719882767804 184.82500533966467,327.15311666898486 184.32911927262114,327.43970525628436 183.51685262033362,327.6667098476744 183.00888166701222,327.8092361569291 179.5199431053928,328.3019053837491 179.49420838344003,328.30590469862994 175.90543185207306,328.7502923412228 172.53244444215215,328.9209297769474 171.18968895475217,328.9893528383867 169.24234138444496,328.9893528383867 168.66351300405623,329.06148540929655 167.6016948980837,329.19383954806807 165.92728607940114,329.8426849197765 164.560360819363,330.5253216043308 163.6595586089897,331.02042519671704 163.19346453989064,331.2764103308696 162.32129510573813,331.94699110962944 160.52884853643562,333.32518980080476 159.21507359179824,334.4457514669186 157.25245327545244,336.11937781092325 157.1010879005855,336.2489787981113 156.45789373474912,336.833429403827 155.5240537056215,337.68192173456777 155.22140989766726,337.9564254355276 154.83336043017408,338.3806716008877 153.37708815678593,339.9697617016874 152.38612747788073,340.8238762577139 150.95077915640329,341.5749649842527 149.651494483106,342.4282970656219 149.55809019384665,342.51121039844253 149.03644042428462,342.97408762729754 148.96801736284527,343.0578124153206 148.01165945192662,344.2371466221209 145.3124696610508,347.10462642485237 144.5130703696573,347.8751610955815 144.26189600569094,348.1173225108295 142.1423170697376,349.8585894416368 141.6842506110071,350.1870259326547 141.67700547533704,350.1926481579404 141.11510173183402,350.5951589162492 140.62402643491492,350.9485766351283 140.57171655517942,350.98558478821826 139.85204273705176,351.34462473240364 139.4181460509594,351.5619788030408 138.7942529265052,351.87351963763575 135.6498640377929,353.2726422807012 135.53634725180473,353.29600059815743 132.67773549521004,353.8868848843613 132.54572912293918,353.9045919959661 130.9010833217177,354.1259453815252 127.63674396644664,354.42705322073056 126.45819223432423,354.5365127307065 123.34840611368082,354.8778165827213 120.36262773534074,355.5016517460234 119.9037788019941,355.5975193814559 119.18972720909039,355.68930076035156 118.39997843851154,355.7142530076676 117.50963820397001,355.7061964167745 116.73681407044161,355.7030085570755 116.04212148013397,355.7005741914887 112.9999469655833,355.7343655043346 111.9075543870502,355.63212214950426 111.46881795034999,355.6216601735695 109.54561117211517,355.57416106399967 109.10528080553462,355.5636990880649 108.14814041999985,355.42688194573134 105.11964472177216,355.19179178290307 104.6277869501546,355.15397217461066 101.65568738805513,354.98408823299826 101.45763435892376,354.94948546494993 99.29777246854607,354.57436131954404 98.40986659963252,354.4407320369094 96.21215612054081,354.1087889002165 95.67520462437442,354.0277303221414 92.73611390054587,353.78866982495686 90.10694110082503,353.8554699760119 86.56969197449507,354.29180102771164 85.02407268792165,354.48176848544597 84.84453822555635,354.50431534772036 84.53702568634615,354.51880561908104 81.29042242330742,354.6757642386474 80.63514337111079,354.74740414033084 79.64255978184185,354.8552987009921 77.5317909308732,355.0855201326262 77.26050407017803,355.1475384941225 74.2513383938983,355.836608859165 73.2224132040161,356.097433743946 72.06171348614188,356.39167319452713 71.82505837408138,356.4516629180276 67.41677005475682,357.40720937368195 64.82947413942307,357.6108846281609 63.1920444933059,357.7034484817138 62.40313615839229,357.74773075103957 60.18131386771155,357.7139104576485 57.67128007928519,357.5923370808084 56.66258330823004,357.5432440413788 55.62331206453193,357.42972725541125 52.68662672568325,357.1085648806085 51.28266433194824,356.9547651402166 50.273996541458835,356.8581729912377 49.505983177972524,356.78412770449205 47.91127085190769,356.78412770449205 43.83388236973299,356.78412770449205 42.193235883371734,356.6826958048641 39.185722098103845,356.5458207014403 36.691772510897955,356.75111886630344 34.9489116502103,357.16087476028224 33.206050789605,357.6044219671275 33.12073207168095,357.3307297213701 32.73697172454069,356.097433743946 32.71016472256147,356.01130357088124 32.51051776346738,355.3705147900659 32.419576820319364,355.0774925222988 35.188001127981146,353.16558815576695 35.60581361285304,352.7558322617675 36.998473594843915,351.3905009315686 37.64813042173424,350.7424959956078 38.12628039662781,349.9905958138665 38.550555542553646,349.4802194754417 39.4593853632955,348.3861750059585 41.270698265905885,345.790851480215 41.57821080511608,345.0067539154876 41.823733963292746,344.3240882503881 42.29707316806187,343.0014452596552 42.39528822744569,342.7293759242821 42.533786241253864,342.3429783477596 42.648085501858155,341.70056665653937 42.801015826039695,340.8464231199677 42.801015826039695,339.44730047692286 42.76641305797078,337.9113317109994 42.697989996531426,336.34076017702756 42.64970841230426,335.2861872067663 42.59574664172165,334.1221547265291 42.52167237441024,334.1350220875055 41.886534799425775,334.244481597502 41.141879753395735,334.3725176353754 40.61379630334551,334.463458578544 40.54540222247191,334.80479141108344 40.46486529410656,334.83377195384605 40.25153951893658,334.909440150976 40.019695176835796,334.9907595539369 39.75484199662881,335.0849173373496 39.67192866384935,335.1147093352941 39.31370017486638,335.24193391798565 39.14465666898099,335.3023003885319 39.00781054610229,335.3505819727591 38.11984671613962,335.52124838902876 37.094254288599764,334.90622331073195 36.59436890669601,334.83539486423035 36.13789637776348,334.7709711176924 34.052920209879076,335.24755614327137 33.52645967027495,335.39405278690293 33.07885518745859,335.5188430039872 32.89853825047718,335.5695589538011 32.58296912041506,335.65731203727074 30.08823705851068,336.23773434753986 29.91757064226155,336.20391405412823 29.824166353002187,334.96740123648067 29.81613874263364,334.8587242011621 29.808082151699345,334.758103756716 29.78475281480881,334.45299660260923 29.78072451938285,334.3990638125512 29.78072451938285,334.39503551710465 29.610058103133724,334.2581604136808 29.160048235255132,334.4626471233415 28.85815792135126,334.5995222267654 28.4725718000518,334.79592336500843 28.152974374563716,334.96015610079 27.936402778583904,335.07123852117076 27.232059667461602,335.4318723951954 27.102429699769587,335.4987305073201 26.567101113966935,335.77242275307754 25.901360085856144,336.1137266050924 25.251703258965826,336.25060170851623 23.953230040850436,336.38666535673764 23.76079923702539,336.4055606706113 23.32368571068892,336.44862575714365 22.766592737310354,336.50258752774687 22.21036918024514,336.5573027924828 21.282991812171463,336.8567587407381 21.15095645941722,336.8994470802247 20.866773257097556,336.99201093377764 20.28154017678637,337.1844127571193 19.66326927763851,337.4371810510072 19.190741528051255,337.6312057847332 18.987066273613564,337.7141191175538 18.76168459264908,337.71090227730974 18.636894375564893,337.70846791172295 18.5209722045145,337.70684500133865 18.066934041127578,337.69962884619315 18.0009453453162,337.69881739099065 17.7441197753954,337.68676148519614 17.008332775481524,337.65050682621836 16.77570595876461,337.63923339508113 16.72255564336387,337.6368280100395 16.436778511328583,337.6255545789023 16.40214676269392,337.6239606490631 16.126020151390918,337.5941686510981 15.794395800674067,337.5587544278679 15.503749937300471,337.528150974721 15.431327561000902,337.5200943838278 15.312159569223038,337.4452376419003 15.308942728978943,337.0692730607468 15.302509048490753,336.23773434753986 15.457902718701273,336.02597352162275 15.528731165202851,335.9301928278257 15.614049883044544,335.8142706568165 15.635814270702827,335.7836961842147 15.841083455020875,335.5059466624656 16.097880044293564,335.1565572390331 16.286224591643524,334.89978963024373 16.909335241399216,334.0529202098873 16.618689378190357,333.8653581371947 16.530965275204068,333.8081795263474 16.328101475948248,333.67698460929955 15.713076397692594,333.5747412544692 15.550437591729649,333.43948906142964 15.459496648581634,333.3630094090972 15.376554335236426,333.29458634765786 15.246953348027784,333.18669178699656 15.09802233878883,333.06274200563945 15.610021587618581,332.0379610333432 15.32859153690296,331.94699110962944 13.574949914407444,331.3802476155392 13.460650653803153,331.3432394624492 13.3302092308469,331.30139155871024 12.124299866325627,330.9125306360558 11.838667636954321,331.94699110962944 11.577697849509324,332.8920755893697 11.21063029497594,332.87034018229775 10.92807000310238,332.8526040901272 10.471626454735599,332.82524645776954 9.767225382564181,332.78339855403055 9.049956949416382,332.7399277399073 9.084588697968679,332.4331976754161 9.279308964757712,331.94699110962944 9.345413582749696,331.7827583738479 9.55792790282017,331.25064662835115 9.631190714949717,331.0679243062869 9.903289030826755,329.94087099861514 8.708624116918125,329.42890073033055 8.261860069849373,329.1833775721333 7.976082937649352,329.02720142722427 7.68224921476214,328.86540305702954 7.130836427739014,327.6135885127982 7.007640140535187,327.33265113135013 6.855492291052138,326.9881014585666 6.701721531205353,326.6387120351135 6.725108829227372,326.51879054920283 6.988339099070617,326.2957852727143 7.381981811222004,326.14925964855814 7.902037650986047,326.1114400402657 8.264265454829232,326.08486488256534 8.542014976578336,326.0647523858983 9.889581234102764,326.24828616314437 10.202773959586033,326.277266705907 10.271168040542006,326.24828616314437 10.609284032878534,326.10660028961667 10.618934553528451,326.07440290663055 10.682546844925714,325.8498037002822 10.803279786018194,325.4279919005089 10.865269166969354,325.2106378298718 10.786384129615852,325.02145284677425 10.651943391717012,324.6978271258396 10.609284032878534,324.6189420884655 10.395146802444325,324.227704761294 9.54022079123596,323.9934550342133 9.112728805066032,323.8219771627411 8.981533887977031,323.77204368758447 8.674832804031073,323.6561215165753 8.663559372935053,323.65131074647144 8.10808930992022,322.88254388885235 8.043694543906833,322.71184849203746 8.461478048295357,322.67159451815826 8.706218731855898,322.6474537260447 8.92035596220774,322.6265297741752 8.43009212047053,321.8601393210526 8.428498190672538,321.8569224808085 8.321444065738305,321.5156186287937 8.613654878261782,321.2418974024911 9.005703660615175,320.8748008674332 9.732622614577627,320.63973968517064 10.929692913548484,320.6614750922426 11.675912908893139,320.6075712827091 12.126705251387854,320.57534491917784 12.57593264465032,320.38375455101806 12.212864404977157,319.77597460841184 12.08245196258665,319.5594319929566 12.021274036817356,319.4563771829238 11.993916404500862,319.4096895285358 11.86347498154461,319.1915240026962 11.784589944191106,319.06030010510324 10.245433318506878,319.23099550191813 9.98779629348658,319.3002010380148 9.700425231488566,319.3766806903472 8.171672620751739,319.78643658434663 7.829557313554992,319.999733378992 7.211315394972876,319.96272522590203 6.322569090394081,319.89511361966515 5.9820477129953264,320.0657800359349 5.161724469855881,320.7476342458319 4.606283387406792,321.30469823864473 3.279612101227294,321.65162431594536 2.8199517126164175,319.5843552597275 2.6243330490306542,319.3959817318118 2.2548311289516683,319.30501180811865 1.6913044750849107,319.3275876509176 0,319.3959817318118 0.048310564792911716,319.1770337313149 0.18431625192399992,318.5587918127534 0.3936137317503787,317.6040278317563 0.3976710076597169,317.5879436305152 0.5466020168986716,316.9093062608623 0.6150250783380211,316.5961425158624 0.8049925360517189,315.73400034950856 0.9981768340918794,314.85412209096353 1.1165623511712515,314.3163591396359 2.3127922144768647,313.83252897836627 2.867450822227462,313.60795875256304 3.8874210244610006,313.48316853547885 4.783412464709853,312.38028500044527 4.784977414024469,312.37225739009733 4.8622685215799795,311.92946367738483 4.856617315707914,311.91016263589967 4.689196720268624,311.3224951899399 4.631235634743428,310.97554013211476 4.341430207199811,310.51344537789646 4.960483580963795,310.2027449790491 5.903162675641823,309.5570874670396 6.055310525124874,309.4379484557863 6.150308744182226,309.3631206943833 6.626864789277813,308.98956149829206 7.002017915228865,308.92516673229926 8.151560124022934,308.7697730620681 9.456496003192258,308.7826983841348 9.855007446599586,308.7295480687135 9.991824588912543,308.7110584824514 10.457947638577352,308.6490401209551 11.081840762949167,308.5653443134771 11.43201266099784,308.51862767856454 11.534893587842129,307.7965484753129 11.55034021711046,307.6878424594492 11.679941204236734,306.77576681791805 11.712950042507662,306.5471682966683 11.734685449517835,306.3926150621642 11.770911128032859,306.14062924293364 11.802297055775318,305.91762396644503 11.924681887797277,305.0602635896293 12.25633521907987,302.21376569983704 12.314296304605069,301.7106344971029 12.415728204232979,300.8412182144926 12.451142427566134,300.5392989200848 12.611346867818742,299.1635635750414 12.64835502094989,298.8439371690287 12.738542469965155,298.0043418649081 12.761089332321932,297.7917985643543 12.980037332798227,295.7494817554319 13.103233620002054,294.5934768855427 13.14264715819543,294.2280032608897 13.222343650730801,293.4052746326674 13.232834607210696,293.2990029823905 13.26343806033703,292.97300085695935 13.291578167352018,292.6791671339692 13.316530414688653,292.42399345503964 13.372086115151623,291.84513609406457 13.401066657831853,291.54649160099115 13.460650653803153,290.9250328422061 13.475952380407504,290.77210251808634 13.478357765469731,290.7479327454276 13.592657025991654,289.560512967189 13.633722455114508,289.13951262261816 13.692494995821573,288.30794492884553 13.743210945594344,287.5826199048252 13.760106602079055,287.34593581215773 13.77459687341917,287.14791176350974 13.866754999339985,285.8331514804196 13.923527882658124,285.03395505290393 13.978272127939226,284.19427280716843 14.023018085946228,283.64607686045116 14.10387380020528,282.6567390919303 14.10387380020528,280.5910349850271 14.051534939986405,278.9697475012207 13.940423539060466,278.1276888509887 13.903415386011687,277.8451575396809 13.777813713663265,277.82420460726627 13.403472042976448,277.98119220735714 13.095177029150129,278.1107931945452 12.406077683583062,278.39978716688637 11.951257045580014,278.55599229234053 11.60830130255329,278.67347941264376 10.044974904313285,279.211242363992 9.384856101508815,278.9496060240085 8.905054235603389,278.8103545160882 8.809244561281801,278.78218542852807 8.558099177798812,279.11708458057933 8.442988462012654,279.5356795401085 7.36424571907205,281.6810511590637 7.344133222425612,281.72127615239776 6.6204311087896235,283.3063669382961 4.023455692157832,282.27515228551164 4.442050651645855,281.63676888973794 4.589358750438706,281.3026811928686 4.830071138573286,281.03058287695035 8.00425202531245,278.31446844902405 8.225634391416717,278.12447201072405 10.42493880038879,276.2600667537826 11.314467579666077,275.50576118699973 13.194986018331937,273.8796339525649 14.935412513391627,272.40565456757196 18.48071823065588,269.40616839259025 18.051632314605595,268.7154751171634 16.367543994625,269.08738242230464 15.255821394061577,269.3329055805225 15.17212558658362,269.2596427684341 15.48042060040994,268.00545181970625 15.77987654868584,266.79067440911 16.199282963438097,265.36175976810017 16.363515699199034,265.12188781573377 16.534211096013905,264.87071345168505 16.78616793476113,264.5986151357874 17.018794751395674,264.514107873107 17.539662046341586,264.32654580041435 18.398616352975914,264.19048215219294 18.974198912637185,264.0463908936236 19.426614165578005,263.93368556283787 20.379755236170187,262.8147178266044 20.47310156438043,262.3960938865301 20.128580872121454,261.97749892700085 20.055318059991905,261.7681724666911 20.170457756426174,261.5589039674716 20.556855332989873,261.33911553122715 20.546364376427608,261.1821569116608 20.368481805074165,261.12981805146256 19.961131296034054,261.12981805146256 18.32697645129247,261.23446679133457 17.509870048397122,261.05012155888596 17.20638580461289,260.9454728189934 17.08081311291258,260.70478941142454 17.028445272210327,260.2869479460075 17.09127508882673,259.8892769383478 17.476890190691936,259.65018746063873 17.724326064807403,259.4956342261346 17.89707908006032,259.38773966547336 17.933304758575343,259.0448129030536 17.965502141499666,258.73730036390515 17.6378771057254,257.194086462291 17.018794751395674,254.63977040453887 16.686329964931215,253.11107575485116 16.967296326924412,252.7101589264022 17.004333460621304,252.47831458436318 17.053397519464596,252.17239597507452 16.994653959323276,251.99129656339463 16.662971647474937,251.4704292684899 16.29671554820579,251.14439816251362 15.684095854929996,250.6887660693493 15.306537343916716,250.4070172326988 15.089994728502647,250.1711156146887 14.48059187547095,249.66879586713637 14.359047479114233,249.67606998337217 13.450159697323258,249.72919131824835 9.69077471083865,245.9118162656728 8.470346094329148,244.25268019304943 8.461478048295357,243.91859249618005 8.685294779945226,243.34382139176242 9.457307458374126,241.69111899960666 9.877525328308252,241.6114225070507 10.358892143445926,241.51967010867963 10.392741417382098,241.50677376715808 11.935143863793797,240.92632247634384 12.067179216630409,240.8764469622775 12.384342276490521,240.63651704882082 12.47047244951408,240.04485028795966 12.506698127946736,239.65280150558567 12.678958474076223,239.5320685644932 13.84545430048649,238.7101513914528 14.016932171917485,238.3422434011924 14.248776513935905,237.84314049390477 12.480963405993977,236.92544262706735 12.026084806941812,236.49713918571555 11.976991767532775,236.4182831288866 11.869126187334308,236.22344693995814 11.837740259591849,236.0471582983821 11.879588163330828,235.90950072030094 12.020462581635488,235.75735287085908 12.198374133637042,235.6100157915005 12.50832103839284,235.5738190935924 12.781201828886003,235.584252088982 13.14264715819543,235.77908827791043 13.84545430048649,236.1582407187629 14.094976773523376,236.38121701470635 15.190615172866323,237.36174469822194 15.725161283970483,237.8398946731155 16.10269081441802,238.07579629112564 16.440806806754544,238.28752813647702 17.127500767259388,239.35415701251222 17.08400097259093,240.10927403449762 16.654161562490263,240.6421682546517 16.332912246072702,241.0390567876541 15.36287551899581,242.38746348088495 15.374148950174199,242.66921231753545 15.473175464739882,242.79556748395487 15.601964996766656,242.96142313012072 15.898204104798461,243.34219848135749 16.547049476424544,243.97977042192875 16.81190265671389,244.24059530670976 17.156481310021984,244.44989278647438 17.710299482024972,244.5094767823839 17.965502141499666,244.44989278647438 18.129705896777228,244.28487757603554 18.369635810213317,243.79139689403362 18.44446357165748,243.1626640190128 18.264958089857934,242.5790248684996 17.97999241292215,241.95113242920579 17.813354292098985,241.66051554645972 17.68053646464625,241.427888729784 17.834307224493035,241.2950419218067 18.054037699667823,241.10426300884936 18.737514819928567,241.01972676564438 19.09252646866744,240.97544449631863 19.99495158948685,240.67277170779863 20.397462347836765,240.5375195147797 20.856340261749146,239.824308357603 21.04709019416134,239.52722881384418 21.22097345065456,239.25756486353333 21.379583961109176,239.01041879493116 21.610616848028094,238.0975316981976 21.610616848028094,237.5259484534583 21.26769008556711,236.83122688258493 21.198455568945896,236.40298140232343 21.196832658499794,236.22828669060715 21.191210433275838,235.38622804035458 21.216800252564617,235.34519159181806 21.52608060472016,234.84930552475393 22.05822133084446,233.9967848985872 22.295687898169202,233.80357162004307 22.564569373802144,233.5854060942035 23.371996275399468,233.37048638913257 23.378429955970024,233.1160662043152 23.384863636458213,232.88746768306544 23.39935390779833,232.35132764214268 23.429957360924664,232.1798497706705 23.51205923860463,231.71697254179495 23.59094427595813,231.27583072001192 23.633603634878977,231.0327129468563 23.6706407684935,230.825038377476 23.76079923702539,230.31898013992867 23.803458595946235,230.07957187624353 24.017624806946188,229.60785558183812 24.93610514842033,229.54746013074674 25.79430596092191,229.31561578870773 26.268427640389525,228.9066713499314 26.38032151593159,228.58061126340996 26.73133384981024,228.36650301354152 26.815841112470064,228.33027733510886 27.128975876904214,228.19664805245367 28.276141681284166,227.70560173605915 28.327669086238807,226.4706828482507 27.520242184641486,225.89672319901496 27.438111326478143,225.83795065830788 27.152334194360492,225.63508685903147 26.6548541974366,225.4974292809503 25.795870910236527,225.30021668752536 24.929700448415517,225.23179362608602 24.338004707050395,225.22292557999046 23.76079923702539,224.8642044218017 23.496757512000276,224.6996529000441 23.76079923702539,224.20675182888345 23.82278861797655,224.09106150221484 23.76079923702539,224.07407890415647 23.21822551555268,223.92523483657357 21.617861983698152,222.6138652769984 20.927980163432593,222.0479332381106 20.87482984803185,222.00446242396671 20.79837917622395,221.8917570932016 20.622873009284625,221.63336657400737 20.010253316008832,221.0980379882665 19.567488583882664,220.87584416698036 19.14727071394854,220.68665918388277 18.649790717024647,220.5844158290524 18.3004012935921,220.51277592736898 17.851173900329634,220.4210235290185 17.48170096081639,220.36946714345692 16.65816087743285,219.86795885110706 16.515663548682085,219.78101722283986 15.778253638322106,219.33181881016372 15.441789536997423,218.66445487164802 15.54484434698907,217.85862189984869 15.845111750446838,217.34343479132 16.9785697581028,216.99245143802767 16.727395394054067,216.13752542679873 16.695198011047374,216.02722548107525 16.662971647474937,215.9185484457567 16.428721920394292,215.12239497523478 15.837837634211038,214.49125671515174 15.820941977808694,214.19985735776893 16.301526318247877,212.99151362766088 16.228350447815558,211.19471997695635 16.18157585177152,210.04598922330297 16.030268438118448,207.85876970060878 15.975495212271603,207.06499263460398 15.965844691539319,207.03357772625458 15.366121339805648,205.10237231825815 15.434515420761622,204.1766178605276 15.708236647002396,203.7217682420206 16.13732256305268,203.41263279246726 16.386845036171938,200.66432098153427 16.40860942374785,200.46389154784467 16.489928826729326,199.70958598106174 16.63645445090605,198.3483119268545 16.816742407321723,195.3375523207562 17.00352200535707,194.83520359265873 17.02525741244961,194.7772425071541 17.306194793877065,194.2869786653963 17.303006934198713,193.9899570827072 17.298949658207007,193.67117111242158 17.289270156991346,192.8210558712965 17.504247823090797,191.7423421089422 17.837495084171387,191.68438102341702 18.533868545974254,191.56202517191963 19.572299353924752,190.27479640443747 19.795333610958497,190.14681832763375 20.481998590979963,190.11218657906085 22.756942216578068,190.3609265775022 23.76079923702539,190.50722035731772 23.900891180713927,190.52759367887052 24.291317052703587,190.5839318539908 25.08990488883286,190.50664074647648 25.449727307613816,190.23213704551662 26.102600974748228,190.16371398407728 26.58318531518741,190.39555832609568 26.976857007986908,190.28363546998787 27.558061792872135,189.75233517969357 27.818075222553652,189.51405715716635 27.998392159535065,189.3490419467275 28.48703309082617,189.08981099180627 28.5200419290971,189.0721038801809 28.82598951891031,188.90949405478366 28.859780831797362,188.8998435340514 29.21960325057832,188.79438333897693 29.249395248522788,188.7863267480838 29.99161592900722,188.56978413262857 30.06247335607454,188.54883120021393 31.727231653942457,188.2396957506606 32.25131578913246,188.2228290747828 33.67617315413003,188.00866286384462 34.06178825599524,187.97811737178802 34.36127318483688,187.95394759912926 34.925582313319765,187.90966532980352 35.06645673162443,187.8983918986663 35.40294981351485,187.8710342663086 35.610624382895125,187.85492108454298 36.547652271783456,187.78006434259487 38.66004403303348,187.6134262217717 39.085884128273925,187.5353236590549 39.5777418998915,187.5039377312507 40.021289106716154,187.47495718848808 40.75869901707613,187.44757057558525 41.134663598291425,187.6013703159772 41.53714537599323,187.67863244296694 42.07328541689538,187.33811106560938 42.46533419933114,187.0442773426398 42.828402438921934,186.77217902672157 42.862222732292366,185.98245923668787 43.11980179634591,185.70795553572802 43.46516292427013,185.58238284398652 44.316060640052534,185.2740298690905 45.365822840230535,185.23137051014905 46.041214389073616,185.0421855270515 47.15777674024487,184.00453719377887 47.25196350420272,183.63584672886117 47.24309545816893,183.06910323477092 46.908225286642235,182.46051183696227 46.78586943518602,182.20290379242533 46.610363268246694,181.83261939766845 46.44934737264749,181.49450340535253 45.868954042944125,180.270075474024 45.99374426011068,180.25880204290738 46.29235977255661,180.23303834038887 46.696493441270256,180.19759513659292 47.91127085190769,180.18394530095924 48.13424714780995,180.1815399159176 48.19867089438908,180.18072846071516 48.78228106433653,180.06077799425938 49.39971152773678,179.81200901527288 52.26637987526575,179.78627429329953 53.78788735033252,179.89976209872194 54.20326546965882,179.93117700707134 55.139481903282906,180.6605303265382 55.24253671327455,181.08958726200214 55.206311034841896,181.60315146014653 55.27873341122383,181.69415036438483 55.40755192373398,181.73518681292137 56.744685185827635,181.69009308839313 57.276825911869565,181.51783274228424 57.66000664818917,181.23851827122053 58.2637582953488,180.79734746889235 58.466593114121245,180.65890741615388 58.67432564455064,180.59288973975617 59.01806386211113,180.5486074704304 59.315925880589035,180.52284376793247 59.47691279554013,180.4665055928122 59.58718376071846,180.36991344381272 59.72968108938686,180.23303834038887 59.968770567157705,180.03982506184474 60.26825549599935,179.768538201129 60.40347870843194,179.32980176438758 60.64578502644688,178.54170488475881 60.674765569209484,178.35251990166122 60.62326714465585,178.12548632972607 60.54275919693861,177.95887718944806 60.44776097779889,177.86950119559407 60.34551762290675,177.8188142263253 60.087938559017935,177.72865575781398 58.45778302913657,177.5177063871199 58.20176891439764,177.47504702817847 57.98522629898358,177.3889168551137 57.87252096817728,177.28505058987844 57.80490936191979,177.1313088105768 57.81374842747021,176.8978705386986 57.87252096817728,176.69257237383542 57.97716970804928,176.41969158325986 58.019046592354,176.32712772970694 58.0480271351166,176.25386491763916 58.08828110897522,175.98176660172095 58.01099000141971,175.4842576242725 57.709099687598204,174.94811758332915 57.431379146332475,174.67923610767562 57.100508289748376,174.23890574107446 56.78172231944216,172.83734873244288 56.74793100663747,172.70693629005237 56.660989378349676,172.6023165307049 56.54019847612571,172.5073183115652 56.31481679516123,172.39461298080008 56.09265195444083,172.27466251434433 55.96786173735665,172.1354110064034 55.852722041004746,171.94863140836804 55.83826075014801,171.83189778215637 55.84388297545433,171.69102336383114 55.950937100388565,171.5726958077597 56.083783908324676,171.4768861334175 56.5305479554758,171.21927808888057 56.557123113093795,171.13961057684918 56.557123113093795,170.98340545141562 56.51368127955683,170.79340901311556 55.99843620991724,169.8555986496317 55.294035137745816,169.9843881816173 55.127425997488395,169.9876050218614 54.9543252156113,169.9441342077381 54.81347977787238,169.87249430605465 54.530108030816955,169.53840660918527 54.37793120076816,169.3387886306981 54.006835350808814,168.8517416291844 53.007818081051695,168.45325916632223 52.354944413834914,166.46325223707356 52.70755067759392,166.30064241169694 52.28408698684996,165.8836413820069 52.870160502991126,165.65420242503015 53.82330157358331,165.22274010452455 54.38923361251229,165.11165768414375 54.916505607298284,164.72682505693587 55.471164215131246,164.32272036876736 55.40274115360953,163.2246765843828 54.52686221000712,162.91554113482945 54.46472792630961,162.89383470832325 53.21549265043197,162.45669220142102 52.87178341335486,161.83039369198698 52.374274435865225,161.54705092547673 51.97897983278436,161.367516463132 52.588411666299436,160.4409505502196 51.76327765303554,159.82751940174137 51.49758403708094,159.44996089076926 51.2915323780644,159.0555357038782 50.802051010943316,158.2319666399289 49.71206381747243,157.72561859693005 49.419853004866596,157.41732358312433 49.16065103053168,157.04298191237572 49.07936060811595,156.5052189610481 49.06243597114786,156.3917021750805 49.126048262545126,156.28864736504767 51.33822003249358,157.33922102040754 51.495178652018716,157.39718210591215 51.66827943389581,157.38025746894405 51.7358910401533,157.33438126975852 51.72624051942101,157.23213791492816 51.643327186559176,156.93511633223903 51.47022640468208,156.49072868966678 51.28104142166688,156.15264167789599 51.07414932690272,155.73320628263977 50.99769865509482,155.64548217971526 50.56299051382058,155.60922752073745 50.47361451998719,155.56819107220093 50.4639639992549,155.5190980327713 50.43982320710013,155.41120347211006 50.49940720298906,155.07068209475247 49.95034184006141,154.9587882191898 49.52371927012248,155.0658713246486 49.34902455844738,155.11337043421847 49.284629792433996,155.16405740350785 49.25162095424544,155.2059342877714 49.04551133417978,155.45305137584901 48.905477351540355,155.5520778904353 48.757328816999895,155.61971847721733 48.625322444811395,155.60119991038948 48.509400273761,155.52712564311926 48.16806744126274,155.26548930313578 47.96682655237066,155.11093606863167 47.9579585062545,155.1045023881435 47.91127085190769,155.06868243730176 47.7011329363337,154.9072608141734 47.91127085190769,154.59105411217973 47.94827900495647,154.53532452846645 51.53624408114157,151.7129674308084 51.89450155060791,151.49236753936142 52.22293804164641,151.58255498841788 52.484545401043555,151.6550063452832 53.362018274608694,151.8957187333972 53.954525471155684,152.4447261353169 55.112124270884046,152.41009438672342 56.66580014847413,152.8987353180969 56.98618004857834,152.87784034677256 57.41688887499236,153.0525060779437 59.74738820105344,153.99599662782416 61.279328671550985,154.55387207581887 61.66897206884215,154.69555794934658 61.91046693159286,154.7832820522711 62.1527732496078,154.87184659092262 62.54001126183673,155.01272100924788 62.63900879591904,155.04572984743643 64.54447948192154,155.67849101792442 65.7600393671751,156.0825957060723 66.37428197081462,156.28708241573304 66.84599826530238,156.52695436809944 69.55892483346794,157.29896704650773 70.37197396045396,157.58555563380725 72.06171348614188,158.10616210382622 76.21720453105395,159.38637757995835 81.22034747093859,160.9360251620607 82.51644428447514,161.42466609343415 83.46958535514969,161.6903307288436 82.90284186103884,162.89383470832325 82.5768397356283,163.586150894155 83.99688633050143,164.08122550601666 84.02424396290029,164.1206680246934 85.28408611743842,165.95128196880955 85.40081974367068,166.08812809168825 85.9707510974599,166.7578974152662 87.35297808410236,167.55486234096995 89.42427543574615,167.84547922369543 89.68188348020071,167.92758110133423 91.01901674237672,168.3550441069384 91.59943905264582,168.5410122497919 91.93430922409014,169.33797717549564 92.29497207870108,169.73324279811374 95.18740412874855,169.9988784529986 96.21215612054081,170.2089004463302 97.12344928739401,170.395766986001 98.15385248505832,170.59297957944653 101.21776240653679,170.17276170951243 101.84406091597083,170.33134323946305 102.03000007825857,170.37884234903294 102.11131948124005,170.30720244734948 102.14995054473492,170.2073934581059 102.14835661485456,170.12204575969847 102.12097000197232,170.0383499522205 101.86979563792359,169.41683323234517 101.55425548842722,168.81470449554928 101.35058023398953,168.52733343361305 101.07526507778603,168.22706603013467 100.48356933642091,167.9694290050526 100.04323896984035,167.60960658623046 99.53123972101059,167.0259384551721 99.3936111234334,166.7844435924214 99.27282022129181,166.46890344292504 99.26479261092325,166.44632760010546 99.22213325200241,166.33121688429873 99.26316970047715,166.3111043876317 100.08830371382342,166.15092892782127 100.58581269123069,166.11710863443025 101.65890422829922,165.87639624631626 102.26830708133092,165.65341995037284 102.98960380990468,164.503877741517 103.25845630505425,163.94919015322122 103.37921822671248,163.83167405235227 103.6021945226971,163.615131436897 104.04817609506736,163.3228916437872 104.70104976220178,163.16028181839 104.80972679749975,163.14981984245526 105.79103695567265,163.05722700835716 106.22904887888822,162.89383470832325 106.31106381487096,162.86323125517632 106.43504257677327,162.8173550559908 107.7134322787256,161.94228756754964 107.97906793363107,162.10489739294684 108.22540254698961,162.02522988091545 108.69149661608868,161.8738645061103 110.45449895398852,161.4311287544675 111.25468071991578,161.0986349874579 112.15307754530923,160.93927098284993 113.03133289340813,160.86681962596404 113.51678596510325,160.88530921224674 114.26625178125775,160.91347829980688 114.61480076894269,160.9263746413284 116.51143238947712,160.67763464288706 116.88171678417224,160.51824165773394 118.06429681180298,158.39619937571047 119.22835827258528,156.8030809794642 119.41754325568284,156.1936781264531 119.70091500273827,155.79038489348707 119.92951352394685,155.475627218648 120.14767904980702,155.23894312598057 120.36262773534074,155.01625663546804 120.39320220798369,154.98455192168774 120.48417213169745,154.83964920791593 120.59284916699542,154.64887029497916 120.67173420443129,154.42505356328812 120.72969528995648,154.26244373789092 120.36262773534074,154.0706794865014 119.41670281993524,153.57659021309252 119.17683086754828,153.45098854080587 117.56841074475945,152.74258815373304 115.8633694923848,151.99231088239668 115.6500726976982,151.43846372984854 115.52047171057193,151.10037671807774 116.26106948061026,150.67207327672597 116.31175644989966,150.64309273396336 116.72235277958488,150.40559718611405 118.58916342160911,149.31482751796528 118.97958929359876,149.08698249082767 119.31851674111716,148.90588307916835 119.54714424289149,148.78352722765035 119.97782408873977,148.55246536028926 120.36262773534074,148.34664554565452 121.84619967999626,147.5528105185388 123.35649168501612,146.7452097336294 124.53017468604733,146.0875252963911 124.77810322928622,146.29441739111408 125.89063728503152,147.22179475922894 126.90820210220282,148.06947563474665 130.5798629857835,150.85160773909124 130.63463621163035,150.89345564280964 131.03874089977828,151.20018570732134 131.14498356944827,151.2806646745552 131.25366060482858,151.36276655217338 131.70769876813316,151.90858609439417 132.76789396365956,153.18372997553664 132.92569301893232,153.3737264138161 134.16539369634063,154.8630075253722 134.2958351192969,155.01915468973607 134.37874845207637,155.1197751341821 134.5751495903606,155.35567675219224 136.68026723537483,156.2428001464073 137.65192687281547,157.06471731944768 138.21223668643813,157.335192724961 140.47031363611725,157.7175909865821 141.91687742764162,158.0902807664012 142.202683540325,158.1651664888739 143.0648257067201,158.3921710802639 143.3039441649743,158.45497191639691 143.55592998420488,158.52098959279465 144.5130703696573,158.8140988021972 145.50646541427284,159.11830755948668 146.19959305526586,159.3356616301444 146.57471720065118,159.4523662758109 147.2042325503293,159.64963683032616 147.96013204697198,159.76955831623675 149.56533532951673,159.86855585029846 149.62613650826083,159.87243924301927 150.00972297208898,159.89672493783803 152.66303656388223,160.06017519898285 152.78782678104878,160.06823178985536 153.1701960620218,159.890320237895 153.3634093406277,159.58440162858574 153.95748148657165,158.64496835469697 154.0806777737755,158.44850925536358 154.49365050803956,157.79563558822917 155.33005795239947,158.0492443178647 156.13023971832675,158.29236209102032 156.55607981356718,158.33102213506035 156.74929309209074,158.29236209102032 157.64528453242195,157.73610955340996 158.0751819036541,157.46882200759558 158.1951033895647,157.51794402757037 158.2530644750899,157.5702539072235 158.27317697173635,157.62821499272812 158.29250699376666,157.7570045247343 158.29894067425485,158.03394259128092 158.31183701579698,158.1184788345065 158.35690175978004,158.22796732502752 158.4599565697717,158.2987957715085 158.72480974997868,158.31169211303003 158.8584390326133,158.31572040847658 159.19655502494982,158.3245594740064 159.27946835781165,158.45981166704593 159.31731694660803,158.69808968957315 159.11758304589907,159.19212100189173 159.0637082170137,159.32519965420965 158.637056666509,159.78242567723373 158.41970259591307,160.01427001925214 157.8441200362518,160.6309180079539 157.72495204447395,160.75892506530278 157.48345718172322,161.017315584497 157.27818799732282,161.27492362903394 157.22666059236818,161.52288115281797 157.23552863840197,161.84004421271928 157.31281974595748,162.16529284403825 157.3643471509945,162.46312588190924 157.42471362158193,162.81410923520153 157.42155474238695,162.89383470832325 157.41344019040352,163.08620755111977 157.40054384886142,163.4042110467481 157.30395169984132,163.67228106721976 157.22909495799615,163.76484492077267 156.97710913876554,164.07882012095445 156.91752514287663,164.23337335545853 156.84026301580448,164.60930895606688 156.74929309209074,165.21227812858982 156.8064717029998,165.55117659554247 156.85556474240883,165.70494735538924 156.94975150636668,165.99875209783426 156.99481625034977,166.141278407089 157.231500342976,166.6685214214122 158.00354200197066,167.23526491548188 158.74816806743496,167.6071722206437 158.99206831524788,167.72955705268623 160.3307955072219,168.28340420525495 162.17511724802085,168.24717852680172 163.27234957724414,167.94609966814147 164.91296708303966,167.6571056958003 166.23558109322747,167.35440392675577 167.02773524886854,167.2070958279423 167.57514872094907,167.1056639282938 168.1772774576626,166.9084513348689 168.66351300405623,167.00029067485482 169.51603363020237,167.16119064821163 170.54084358304374,166.69109726421118 172.73368533104423,166.00924305431417 173.5048865542089,165.88445283720938 174.1287796785807,165.65098558478604 175.5037325489874,165.10841186335452 175.87807421975657,164.98846139689874 176.3965071490745,164.90314267903648 176.6653886247898,164.93534006204317 176.999476321618,164.97559403592237 177.4454289135049,165.26458800826353 178.27780806252122,165.95128196880955 179.23013767784917,167.6868976937654 180.55040426410622,170.4778688636192 181.35620825533982,171.54852603510096 181.86496168335972,172.22475801971223 182.46793085590323,172.7665202859413 183.32445079699195,171.64030741399657 183.38403479296326,171.5613933960979 183.84291270687564,171.1283081651874 184.03528554965158,170.9472087535075 184.83143902015286,170.58573444375588 185.41026740062398,170.67027068696086 185.53343470726205,170.68797779858627 186.2450519345378,170.79184406382154 186.5461307932598,170.5390467893679 187.6804002560976,168.9966443429562 188.04184558524233,168.74306459386582 188.8436502616157,168.45728746176877 191.0204078084781,167.68284041777366 192.48792453231414,167.06300456937296 192.81398461885615,166.87834055094834 193.8500100417444,166.29177436560138 194.75405807292756,166.85851785969163 195.35699826490534,166.9664124203735 198.51025519973382,166.6757955376274 200.20561695081045,166.60496709114642 200.69747472251038,166.48339371428574 200.66127802456108,165.989101577102 200.31832228161673,165.9037828592191 200.11227062268256,165.7854263226231 199.91421759346883,165.6348724030204 199.8651245540598,165.5068943262167 199.8666895033744,165.43684835439302 199.8666895033744,165.365208452689 199.91340613828697,165.21790035387554 199.9697732939318,165.13579847625735 200.03335660476333,165.08024277579437 200.17582495294835,164.96913137488903 200.4197831618104,164.78400366778317 200.68301343165365,164.70830649010801 200.99855358115002,164.65115685980587 201.10482523138575,164.68013740254787 201.48076083195292,164.78400366778317 203.30169527481223,163.6513281348051 203.81450597882386,163.35349509693413 204.41260642019378,162.9815877917723 204.56999974787558,162.89383470832325 205.7755323652893,162.2216310191585 206.31810608676201,162.0533989684756 206.93313116510004,162.07753976058916 208.36766803139565,162.20067808674386 208.91186466323208,162.12101057471247 208.91186466323208,161.7016041599808 210.90911672813021,161.49172706937495 211.00330349208807,161.4818157237363 212.16009083663454,161.94147611234717 212.8000971427926,162.06142657880295 213.26781412233774,162.0212015854689 214.47372348677666,162.18137704525873 215.7295373459712,162.18137704525873 215.65549205922554,161.34256421581597 215.70458509863457,160.86276234999292 215.85270465269164,159.5248176326968 216.14816128602496,159.20524918775388 216.34456242422687,158.84620924356844 216.4677297309473,157.5879610188489 216.83644917641018,157.40845553702877 216.96442725317272,157.51808893027552 217.27918492805296,157.7876079778812 217.40235223477342,158.06695142949008 217.57542403608477,159.20524918775388 218.1655258476519,159.40486716624105 218.70728811386036,159.2253616844209 218.80550317324418,158.84620924356844 218.78133340060603,158.06695142949008 219.61774084496597,157.6475450147584 219.9212250887502,157.52516018271587 220.25774715120636,157.38834304036172 221.80901764365186,156.74914818940616 223.21216858220498,156.50924725649463 224.88576594562332,156.7088652349818 226.06672306280797,156.6694516968296 226.53444004227077,156.4698047377973 226.9530639824069,156.13009481564217 227.76530165412868,155.49092894521115 227.7894714268492,155.0320510312576 227.56806008017918,154.65205815467812 227.00215702181595,154.0531462581263 226.28810542891225,153.91386576966082 225.10633685654574,153.51378937695947 225.08222504495672,152.99454499243907 225.20536337111142,152.53647853368795 226.11584508278276,152.07681814507708 227.07623128904498,151.9367551819337 227.4424873883965,151.8932843678104 227.91263873348728,151.83694619269014 229.02033303862473,152.91484849986253 229.22319683788055,153.2884076959538 229.38983495870372,153.5942973247179 229.88250418550317,153.99359124278254 230.69477083787305,154.7720086211339 231.11258332274494,156.01014434918642 231.28565512397392,156.86906967531678 231.82663491564864,158.12734688058148 232.14701481575284,158.50565888568633 232.54065752790424,158.78503131781974 232.93432922070375,159.2245792097636 233.42699844750317,159.90399905407384 233.968760713794,159.90399905407384 234.60876701995204,159.58440162858574 234.83012040549056,159.0450447474189 234.53469275264064,158.2062029374104 234.29963157037812,157.71434516579285 233.72242610035312,156.50924725649463 233.57430654637838,155.77105487147733 233.47609148699456,154.7325950829817 233.77151913976215,154.13284275070288 234.18933162463404,153.93319579167056 235.24793289036248,153.75366132932587 236.18336684937043,153.91386576966082 236.67522462098802,154.0934002320261 236.99563350165795,154.3727436836144 237.95520825273832,155.37094949821025 238.3247101728173,155.41120347211006 238.69418311241293,155.07146456940978 239.13694784462146,154.3324897097352 239.23516290400528,153.13460795556188 239.18606986459625,152.43585808924192 239.48152649792956,151.57693276311156 239.8509994374428,151.1575263483799 240.31871641698797,151.118054849158 240.66326608981268,151.43765227464607 241.11486988757164,151.8219922326276 241.15512386134787,151.85624723417527 241.45058049476356,152.6355340288194 242.01729500830868,154.23265173994645 242.53413400774625,155.2703290537848 242.7619500543387,155.87489215616748 242.80460941334192,155.98919141677177 243.24815662016658,156.4488807859278 243.91230371839703,156.84817470399244 244.40497294519645,157.14763065226833 245.2421918448206,157.00835016378227 245.95543198254245,156.9681251704482 246.47227098198002,157.2273271448243 247.03817404034328,157.60726206033405 247.25955640644753,158.0468099522779 247.2845086537018,158.4461328508671 247.03898549552514,159.46445116213 247.23541561437514,159.78404858761806 247.26036786162942,160.1833425056827 247.26036786162942,160.80158442424423 247.51232470037664,160.71142595573292 247.65403955434653,160.66152146110082 247.87539293996744,160.16320102847052 247.8746104653513,159.42419718825076 247.6531991186813,158.08625247095466 247.18548213913613,157.34727761128005 246.37324446741434,156.66864024162714 245.19309880541158,155.86121333996803 244.97090498412544,155.70984796518349 244.1835905790922,154.93140160628698 243.93725596573364,154.6512756800208 243.5927352734747,153.7134363359712 243.05094402670045,153.0750529402181 242.70639435387574,152.7152015408302 242.3369214143625,151.81680471547793 242.09134029505435,151.2371938604113 242.06641702828347,150.89829539345865 242.4350785126972,150.63825298333495 243.5669425904728,150.63825298333495 244.92100048945218,152.35619057721053 246.07781681464678,153.4936478997473 248.5644922855345,155.4103920169076 250.48445324295946,156.7483367342037 251.64124058750596,157.70712901064735 253.14260658536057,159.0643747694286 253.7334908715438,159.40330221692642 254.12794503895944,159.48378118416028 254.47249471178415,159.28413422512799 254.4966355039389,158.90417032909366 254.44673100926565,158.7488056393871 254.32437515780944,158.36481344790622 253.85665817826427,157.84556906338582 252.79805691253583,156.7281952569915 251.12443056855176,155.19063256120825 249.9676142435219,154.23184028474398 248.95816397825163,153.3737264138161 248.42524077759356,153.02352553520168 247.9245149599422,152.69430656950587 247.5308432671427,152.11547818909654 247.06315526824565,151.0182458599144 246.9890520203685,150.37905100893823 247.01322179300664,150.01919960957096 247.23541561437514,149.69963116462802 247.43184573314278,149.06043631367245 247.80134765322177,147.66293658101196 248.21997159327552,146.10523240801652 248.31734621691172,145.0868851162085 248.41556127629553,144.52738675780887 248.3913915036574,143.8286368914889 248.17003811811887,143.30942148751367 247.70232113865606,142.91012756944903 247.77558395070326,142.51164510658685 248.84705257740805,141.092409966875 248.98227578984066,140.91371594025733 249.72611938068883,141.29283940056465 250.23733615490244,141.5528528301432 252.24757150295756,138.74336309346154 252.28043543848213,138.697486894276 252.7964340021721,137.83128745193042 253.78098998115485,136.18099044483688 253.97498573437687,135.81473434550597 254.44110878395932,134.93645001682074 254.6922831480904,134.46392226723347 255.11087810757846,134.28438780486817 256.1444981454045,134.24413383098897 256.43995477882015,134.06462834916883 256.51400006548346,133.68466445313453 256.48907679879494,133.0462810573608 256.61221512494967,131.40809791715208 256.46490702607446,131.0087750185423 256.538169838204,130.5700385818009 256.488236362965,129.27237681892916 256.4504457353001,128.52128809239034 256.4141910763017,127.79436913851026 256.0205483640679,126.33647395475838 255.6268766712684,125.35838063682957 255.38057103847564,124.12024490877704 255.30809070104456,123.3064133071749 255.28235597900945,123.0222301049376 255.28235597900945,122.60360616486325 255.40552328572988,121.3848294393656 255.64780062317908,121.17553195960099 256.143715670706,120.74644604359189 256.93184153092113,120.28678565498102 257.59514819340393,119.32802235906192 257.8415117874106,118.66952646662118 257.91555707415625,118.07058558954482 258.0628651729491,117.6906216935105 257.7368050864895,117.2180649633781 257.59514819340393,117.01198432385759 256.3401168089903,116.51288141654936 255.92152184950223,115.97352453536193 255.18332946444377,115.51386414675106 254.87019470000962,115.32948993375734 253.82930054594777,114.71605878529968 253.41560329811668,114.59292045914498 252.35291577591317,114.27653987390099 251.61469441037133,114.1767308846574 250.90064281738526,114.33693532499238 250.55609314464292,114.57599582217689 250.55478902017288,114.59292045914498 250.53114089730627,114.89559324764438 250.40797359058584,115.69499253895552 250.0634239178435,115.93405303614003 249.79294851233018,115.85438552410864 249.42341761168544,115.45506262549884 249.10384916668073,114.73620026251187 249.05394467208984,114.59292045914498 248.83256230598556,113.95697142895806 248.56208690047228,113.6977404740368 248.02029565369804,113.61804398146026 247.38031832810577,113.6977404740368 246.395762349123,113.9770839256251 245.92804536957783,113.93764140694834 245.618938900652,113.48922546890893 245.23897500457653,112.93859515660488 244.82038004508848,112.59891421499492 244.42670835228898,112.5795841929646 242.72812976096827,112.25998676749711 241.84178884136935,111.90094682331168 241.32500780306324,111.82125033073514 241.11486988757164,111.82125033073514 241.0303336442637,111.82125033073514 240.31631103200812,112.20040277158759 239.92266831977435,112.20040277158759 239.60225943910442,111.90094682331168 239.4790631518182,111.64174484893559 239.72542674574248,111.26178095288067 240.8572908235181,109.80469722433126 241.11486988757164,109.50031458379148 241.12776622911375,109.48507081829803 241.7435737820679,109.10513590280885 242.65408447422263,109.34500785517524 243.37697513267673,109.56560774662219 243.83582406610574,109.70485925454253 244.0081133927186,110.00434418336359 245.31304927188793,110.94299498259505 246.29757627030494,111.22152697900147 246.88362080588035,111.40184391602406 248.34310991943022,111.8518248033575 248.75929949393839,111.97983186068578 252.03250689524324,113.018320629706 253.58293695194112,113.51820601167152 255.01106911831428,113.79757844380495 256.09943340142144,114.19284406642304 256.8810966005826,114.47618683293331 257.0343746912236,114.59292045914498 257.29969156007064,114.79497280321893 258.26007776641524,115.41402617696232 258.01646732401264,115.13253816519759 257.5496777219123,114.59292045914498 257.103261441303,114.07692189541382 256.8320035610912,113.53753603368125 256.9310010951735,113.15838359284938 257.103261441303,112.41937975262964 256.3401168089903,111.97983186068578 255.94566264157464,111.70051738964266 255.7983545426994,111.48072895339816 255.2718940030953,111.29878910599123 254.46927787154004,111.02185103944458 253.26336850710115,110.42293914289279 252.05664768731563,109.72337782137038 251.8103130739571,109.284641384629 251.68714576723664,108.88537644710951 252.30298230075655,108.14715508154707 252.77069928021933,107.92739562584772 253.87117743017012,108.52471359253975 255.15837721710713,109.22424593351701 256.8320035610912,110.64191612393482 257.9896023609019,111.44128643470081 258.5555343997485,111.46139893136784 258.8509620525985,111.32133596824505 259.1480415963779,110.99933315771533 259.21968149806133,110.922042050201 259.83470657639936,110.08322922073768 261.13964245548635,108.42571605849864 261.4101178609996,107.6665707410667 261.6564524744405,106.28918350509385 261.58240718769486,105.41092815695376 261.2378285343044,105.01163423888913 260.5978512087121,103.69380201826004 259.76063230908795,103.69380201826004 259.14563621131566,103.6334355477138 258.7020600239253,103.69380201826004 257.5211029067406,104.07298343965765 257.64345875819686,104.6324528175121 257.69336325287014,105.0711892542535 257.4961506594864,105.15172618255707 257.1024789666045,105.45118213083298 256.9793116599664,105.65080010932014 257.1024789666045,105.75063807910887 257.4220474116092,105.79005161724048 258.1361279849963,106.12979051994074 258.8010575580076,106.42924646821663 259.2929443101909,106.76817391571444 259.8838285962918,107.40736876669061 259.9087808436284,108.06586465913134 259.6133242102951,108.34599058537692 259.41611161682897,108.58510904365174 259.0465807161842,108.66558801086501 258.6038159839757,108.66558801086501 258.1852210244877,108.34599058537692 258.01293169779245,107.7068247149665 257.8656235989996,107.36711479281139 256.6347619871417,106.42924646821663 255.5270676820866,105.55099112007656 254.59163372307864,104.61234032084508 253.55798470468685,103.95303297320189 254.12391674353347,103.27439560354897 255.59308535838136,104.13175598036472 256.31435310647174,104.55197385027824 257.00426390722066,103.65357702492598 256.7820700860169,103.23417061019431 255.89575814690136,102.51525028611704 255.1084727225162,101.97592238547476 255.42804116743855,101.53718594873338 256.26526006706274,101.09763805678953 257.5211029067406,100.83762462721097 257.9888198862858,100.71845663541251 258.8115485144051,100.24108913517624 258.8501795779824,100.21857125344698 260.7942813274797,99.8193063159275 263.1078849970561,99.39984194012612 264.46191391563445,99.39984194012612 265.26534150237154,99.51828541835758 265.8159718146962,99.5995178797036 267.84313179980177,100.09557782999744 267.85910007875924,100.09943224219369 268.45963488575717,100.30713579209852 269.3596256409486,100.61783619096647 269.5568672148981,100.53816867893507 269.70660967931894,100.14693135176354 269.9014168877228,99.6397718535828 269.95050992713186,97.8228367256455 269.95050992713186,97.36317633703463 269.38457788828526,96.66442647071469 268.449172909843,96.52436350759189 268.15371627642736,96.3448290452266 267.90741064363453,95.50679869044117 267.83333637632313,93.8291730315145 267.6860282775303,92.43164431832946 267.69327341320036,92.12253784932128 267.7101400891193,91.3529305559546 267.6119540102189,90.81357367476717 267.93731856367725,90.44247782480782 268.27691256371355,90.0552398125377 268.449172909843,89.67530489704853 268.5465475334792,89.15603153200358 268.3493349400131,88.35828413162191 268.12798155447456,87.53958379884621 267.93073998052506,87.060593388205 267.48797524831656,86.54137798425036 266.9220721899533,86.18152658486247 266.5525412893086,85.84259913736467 265.76525586484104,84.62382241186701 265.26534150237154,84.08623334381026 264.70674154080984,83.48552465360322 264.709958381054,83.46138386148964 264.7848151229815,82.85519784872263 264.87900188693936,82.08880739560004 265.0512622330688,81.8287939660215 265.26534150237154,81.83554643248576 265.26539946350306,81.83554643248576 265.6912975197926,81.84893544323367 265.8785987675995,81.85986110784965 266.3803389043106,81.88918941711287 266.72491755761865,81.429529028502 266.97122319049384,80.29123127023821 267.23126560065873,79.23584684479506 267.56775868254914,77.87294988018292 267.8575641100104,76.6968325136267 267.93082692213994,75.83790718749634 268.37359165434844,75.09965684138875 268.66910624881325,74.75997589977878 268.9894861489175,74.42032393871398 269.8259225738431,74.20056448301463 270.32018573052295,74.23519623160811 272.410813104197,74.38088142003723 273.0757716576917,74.46057791259318 273.66581550812737,74.4001824615018 274.5521564277263,74.1409804871257 274.97078036778004,73.8415245388498 275.06893746603237,73.36172267302673 275.0963530595627,73.27399857010222 275.78229352593485,71.16647553998459 274.6005249535683,70.1875707668739 274.29138950407673,69.38336070545891 274.28011607289835,69.35356870751444 274.42585922237663,69.20223231325444 274.72288080502454,68.89312584424626 273.5942625480588,67.82565653246344 272.01644587839627,66.33394105532055 271.9705406986656,66.29209315158157 271.97048273761646,66.29200620996671 270.6374357320803,65.07653326632801 270.56417291995075,64.75693584086052 270.66241695990027,64.33752942612885 271.3868435871033,63.611624791246705 271.49960687895873,63.49868761612038 272.21284701668054,62.97947221216572 272.5574256699886,62.87963424237699 273.3680404313467,62.11567815484119 274.52726214143877,61.022474121105624 274.7236922602888,60.64332168025317 274.74791999397604,59.16531399983427 274.47735764684785,58.10752418934949 274.23102303348935,57.3290778304324 273.48077474263636,56.74219285915055 272.876994114911,56.27047656474516 272.7538268081905,55.89129514336814 272.70473376878147,55.451747251424294 272.72968601611814,54.63307589917314 273.41875638111947,53.65417112606246 274.57163135250295,53.66622703183638 275.3879263002164,53.67428362272949 276.61316568668565,53.49799498115345 276.9142445453253,53.454524167030144 277.9728168305703,53.234735730785644 278.4896268494422,52.95539227917677 279.0306066410345,52.55612734167788 279.71979292821646,51.876707497367654 280.82745825287054,50.6789126848092 281.39339029171714,50.299731263432186 283.14109090301264,48.58266308582877 284.1996921687411,47.48461930144419 285.82347197918335,45.98647014381311 287.30069718496554,44.3893234521409 287.5470028178407,43.990029534076264 288.11293485668733,43.031266238157166 288.56535010954576,42.549870442494935 288.90111867795156,42.19245340871443 289.26983812341444,42.153010890017086 289.4157841366881,42.18260002418668 289.41633476702543,42.18271594634669 289.76250735021387,42.25281987926066 290.45076626003333,42.81147780193326 290.9184832395785,43.031266238157166 291.43532223901605,43.01112476094499 292.370756198024,42.61185982344609 293.0598555435911,42.452466838292985 293.5774770177272,42.232678402048485 294.01612651281255,42.14170847835532 294.016908987511,42.14156357562956 294.7342643622737,41.99280644968211 295.84198764797685,41.99280644968211 296.8017942433361,42.14156357562956 296.80292448449404,42.14170847835532 296.8756366662863,42.153010890017086 296.95144976614205,42.14170847835532 296.9525800073,42.14156357562956 297.41736995201137,42.07247396171351 297.95919017935137,41.693321520861055 299.2624741674265,40.45521477335368 300.3066141423805,39.824887968473085 300.4192904926211,39.75646490703373 300.83791443259247,39.51656397412221 302.53649302399555,39.17685405196709 304.38319116929097,38.95706561572259 305.6374110986052,38.57791317489073 308.3945909555719,37.35991892405038 308.9854752417552,36.90025853541892 309.9450210123522,36.08158718318836 310.31455191299693,35.74265973569055 312.6523253552938,34.40471501839445 313.56622677100466,33.676028251404276 313.5668063819077,33.675535582177886 314.05544731319884,33.28574728214038 314.3846952594192,33.08047809782233 316.492218289578,31.768297083024127 316.9357944769684,31.348890668292462 317.32940820863644,31.089659713371212 320.43035526381175,29.651906006831517 321.9075514890282,28.952373665854264 323.2116759129333,28.61344621835646 325.1807299097673,28.59330474114428 325.7958129491545,28.493495751900696 327.9741644258149,27.92356439811149 328.0852758266584,27.894583855348895 328.7992984389964,27.77463338889313 329.6606581307753,27.654653941892214 331.03882784142604,27.754491911680947 331.95012100827927,27.674795419104395 333.1302956508478,27.414781989525835 333.820177471031,27.075854542028033 334.6324151428351,26.556639138052784 335.0510390828889,26.19678773868549 336.47833081351445,24.759034032145795 337.0941383664686,24.160093155069433 336.97100004031387,23.820383232914324 336.69971317953633,23.52092728463842 335.8874465273312,23.142586298988427 335.66615110284175,22.74245194519677 335.9124857162003,21.964034566845424 336.60158506176737,20.446584367729177 337.06930204131254,19.607742557741286 337.43532629630283,17.99126584403876 337.43532629630283,17.991120941313007 337.5853295855683,17.33117602173826 337.71669838588696,17.171435270084523 337.7173359578391,17.170652795427213 338.32430444524283,16.432779196385997 340.02210056194747,13.298040828385359 340.90841250089824,12.5187830142864 341.17242524544,11.997944699906231 341.47434453982726,11.40062673323479 342.0402765787562,10.461975933982723 342.6062086176029,8.68288939490359 342.8162885720454,7.893169604869887 343.061811730222,7.538940430788324 343.3886832719459,7.428669465609996 343.4240974951967,7.425452625365901 343.9336623783985,7.384387196284231 344.5333857301321,7.49468714200771 346.44207325646113,8.269105205457654 347.25996213405494,8.379376170635982 347.75022597579215,8.31338747478342 347.9410338692535,8.114551970953562 348.00542863526687,7.98011123313709 348.13100132704955,7.716040527566826 348.1857165917649,7.2958226576327005 348.13100132704955,6.21229812517457 348.1857165917649,4.598226796513683 348.4586553433895,3.7803379189404325 349.4673521144447,2.520495764361108 350.9388971338714,0.2865885872995213 351.17720413694377,0 351.67549558904955,1.0827420578214146 352.6294191343402,2.78450850884107 354.10183356999795,5.482944805687107 354.2378682376124,6.300833683280949 353.5560140277978,7.650051831714263 353.70894435189695,8.008280320676636 354.39404438252143,8.68288939490359 355.0485119795362,9.423487164962514 355.23607405227006,9.849356240727522 355.3857875361251,11.39981527803233 355.68608392014863,11.916625296945352 356.47336934453375,12.52521669477459 358.9109807565782,14.137665113030558 359.81100049241775,14.65447513194358 360.5604373280065,14.958770830868495 361.57316239457,14.988562828812961 361.8671410202035,14.7679049762757 361.8677785921557,14.767441287594464 362.06018041549737,14.623089204139346 362.5472274169905,13.9243393378194 362.69694090084556,13.346351393137088 363.44724715274765,11.947199769547126 363.8972570206262,11.39981527803233 364.4591028029978,11.004549655414248 365.84698099542993,10.548106107047467 366.82182849254895,10.33478033183631 367.2718383605099,9.908911256071303 368.84646717041164,8.68207793970113 369.00988845099073,8.569372608936016 369.21515763530874,8.426875280205843 369.56857535416725,8.343179472748478 369.98473594819205,8.399517647848164 370.45807515287885,8.68207793970113 370.7954086705992,8.875262237700108 371.58269409506676,9.361526764556507 372.5575705726691,9.695585480880736 373.720038103571,10.029673177729526 374.65784846715786,9.847733330322603 375.2205636657604,9.512834178271353 376.00787807071123,8.681295465043823 376.6454500113237,7.573572179381805 377.0165748417664,6.783852389348101 377.1091386953605,5.881427268549283 377.52692219974904,5.279269551228826 378.0832037178634,4.827665753490467 379.0113635606356,4.752809011562928 379.6594264576455,4.602255091960237 383.3246536608204,3.096078323981194 384.06849725166853,2.910110181127716 385.13353219780277,2.644445545718276 386.0175836545201,2.457694928207489 386.01822122647224,2.4575500255023246 386.2001610738174,2.419063864712606 387.49947472768037,2.4939206066607373 388.7520717465485,2.4939206066607373 389.6794491146222,2.5317691954983124 390.5601388284314,2.268509945109916 392.137144042912,1.66638120833461 393.9001463807295,1.2525970188886748 394.7816475496382,1.2147484300510996 395.12051703602515,1.2920105570408664 395.39345578773214,1.3540289185371772 395.9408692598127,1.4780076804394962 396.72728526796686,1.8322948155907692 397.19343729811504,2.042316808922378 398.02825081267696,2.3812152758750305 399.0023448157456,3.2079721995438497 400.6727253389198,3.7722813280473235 401.32157071062824,4.637698295756177 401.61540443368017,5.591621841026258 401.7393831955001,5.99250968893007 401.64679036142263,6.895746264931348 401.3996442928822,7.719286348356072 401.2845625575795,8.104872469676126 401.31594848532194,8.680484009841363 401.72892121958597,9.72534849828005 402.1008285247272,9.674661529011248 403.07895082322176,9.542626176215819 404.16490972126667,9.48144825046712 404.7662270028807,9.628756349280563 405.4022050136128,9.784932494189574 406.5276354109002,9.906418929394214 407.5773396499467,9.632726683636815 408.7768153339798,9.663301156238589 409.939253884316,10.028803761457356 410.1680552694024,10.189935579154803 410.16869284127216,10.190370287290888 410.80223648645864,10.636583704084135 411.58955089140954,10.8499094792747 412.4517220383703,10.758910575036383 413.50145525798257,10.484406874076527 413.98847327899233,10.606791706119077 414.66308235313693,11.18477965080139 414.80557968188765,11.84649238348622 414.9255011677983,12.401150991236818 415.22579755173945,13.525798913866922 415.6009506776905,16.111471918878134 415.78851275042433,17.084754466703085 416.7455082332127,17.991120941313007 416.74565313595906,17.99117890240331 416.91310271196414,18.149760432353958 418.32752708161325,19.623768797871456 418.48773152194826,19.79118939335193 419.1631520513571,20.856253320093103 419.3603646448232,21.835940567861094 419.4624920774524,22.34631690630652 419.7627884614759,24.019943250311186 420.1000640180648,24.779900022924984 420.6998163502818,25.236314590746613 421.48794221049695,25.510006836524603 422.83713137838515,25.448857891300463 423.81200785606984,25.570402287615995 424.41251368250204,25.904489984485377 424.71199861126127,26.634654759154706 424.5244365386098,27.152247252725036 424.4495797965999,27.516938402741342 424.6419526394582,28.16818915949143 424.89796675411475,29.032215061135982 424.8995896645609,29.037605442081095 425.49931301629454,30.650053860337064 425.5645192374898,31.18216560583384 425.6860926142475,32.17072089969741 426.0612167596328,32.869499746562504 426.4363409051005,33.26554784383789 427.33636064085766,34.269404864285214 427.5609598471237,34.93836273266069 427.4490659715816,35.607349581581325 427.52392271350914,36.702959000358526 428.1236460653252,37.28016447038353 428.46097958288084,37.91933034081454 428.08582645701216,39.07533521070373 427.63584556961695,39.8046885301706 426.9990561037854,40.13877622703998 425.41718215804883,40.52676773342226 424.3723176696925,40.784375777959184 423.77494174188956,40.93090140211532 421.0379323426184,42.086906272004505 420.06305586493363,42.02572834625581 419.7454580969169,42.14156357562956 419.74531319417054,42.14165051726502 419.3127785935973,42.299420592013206 418.6381695193703,42.755864140379984 416.9138272255311,44.33692663083172 416.3294056004018,44.73094609011126 414.4770562492343,45.97994952168946 412.63919716940694,47.19634984269063 410.99052307275946,48.321751259432894 410.1686058997397,48.798249343376405 410.1680552694024,48.79853914880732 409.6783420579201,49.082490506704 409.3781036350281,49.81262630082818 408.89024517827073,50.29886184716002 407.95318830889903,50.87687877236689 407.27852127362297,51.39447126593722 406.6779864667074,52.48932719062286 405.7787781861321,53.40140283215396 404.80390170844737,53.88842085312252 403.5666064161836,54.253112003138824 402.66658668042646,54.709526570960456 402.59172993841656,55.302816242205935 402.554692804802,55.59181021454709 402.2922450095749,56.53448930922512 402.2399351299218,56.704373250858126 401.5798163271173,58.845716574346184 401.0171011284324,60.731857238380144 401.05494971731116,61.8572586551224 401.8044445140314,62.982660071864665 403.0047026726806,64.99040309326327 403.7541684888351,65.99344865850813 403.9225744227684,66.29200620996671 403.92263238389984,66.29209315158157 404.7668645748328,67.78861939882833 405.1420177007839,69.24810851243997 405.62903572171126,69.79552198449993 406.1168941784686,70.67780562808656 407.0917416755876,73.26272513896502 407.6536454190082,75.69627927505893 408.1415038757656,77.33933114646182 408.666341505006,77.97690308703307 409.67909555205284,78.82861225801793 410.1680552694024,79.21405347663281 410.1685479386082,79.2144302236992 410.9912765668922,79.86301477052187 411.4034088653263,80.53281307464496 411.47745415207197,80.6535749962826 411.6280080716747,81.26216639411183 411.4773961909405,81.87075779194107 411.0282267588095,82.50914118769418 410.69089324125383,83.33024690553212 410.69089324125383,86.52372883369468 410.1684609969933,87.87010688895026 410.1680552694024,87.87115018847275 410.0533213006414,88.166751724573 410.1680552694024,88.2850503000787 410.1684609969933,88.28551398875993 410.4662940349055,88.59262080031742 411.7784750496625,88.89691649924234 413.0898446092377,89.23019274090926 415.114483287018,89.01767842087997 417.1020268702171,89.29137066665795 419.23853044305616,90.02150646078213 420.0749668679818,90.44247782480782 420.0750248291133,90.44253578589813 420.3261122514648,90.56894891338723 420.9636841920772,90.81206668654286 423.0631796118675,91.45114561535901 424.97508397835816,93.24472242581945 426.09970292046376,95.31280293723974 427.8248276889191,95.0696851640841 428.7731290089858,94.94651785738425 429.6989124471791,94.82656739092849 430.3735215214061,94.88696284201988 434.16032210133864,96.224907559316 434.31849790363657,96.24415063971085 434.31890363130987,96.24415063971085 434.910599372675,96.3158485024846 436.1478946650211,95.95118633301344 437.08414007921095,95.95118633301344 437.90927409247485,95.98176080561521 438.80929382823206,95.98176080561521 440.90876026745656,94.73478601203286 441.92148533393765,94.12619461420363 442.9333409841878,94.12619461420363 444.24555097951054,94.33873791475747 445.707445478205,94.94732931258672 447.17015143208135,94.88615138681742 448.1820650433806,94.94732931258672 448.8566451370418,95.4037728609535 450.3193800714015,96.55896627564022 451.1026661810088,97.17077451371355 453.3937519688765,98.96194593911176 454.14321778503097,99.75244820380277 453.0942960206006,100.78690867739701 452.23934102882646,101.52994081304273 452.04372236524074,101.69979577410999 451.40615042471063,103.15847343251917 450.99398914562846,103.85884620924404 450.4312739469436,104.22353735926033 449.26886437717314,105.22736539914192 449.15694152106533,106.01789664437808 449.6817791503057,106.80921036425096 450.3193800714015,108.0561851578539 450.4312739469436,109.60664419515871 450.24892837200747,110.27980424223107 450.0191126679437,111.12812268972151 450.3942368134114,111.91868291548224 451.068845887556,112.64878972906126 451.8191521394581,113.1962032011418 452.98156170931094,114.32163359842922 453.046130358554,114.59292045914498 453.0462173001689,114.59292045914498 453.206073973962,115.26431269310724 452.9065890452028,116.45008058039575 452.7939126949622,118.09310347127408 452.3060832187706,119.67497741690768 451.8568848060739,120.34393528528317 450.91904546208605,121.13446653051932 450.69441727517193,121.55952415108187 450.69441727517193,122.32026339835298 450.0190257263289,123.99307828717578 449.1053561548968,124.81177861995148 448.93225537310207,124.96714330965804 448.1827895568652,125.60552670543174 448.2954948877539,126.15294017749169 448.85739863109217,126.70032466902708 450.39417885227994,127.67441867205449 450.8441887201585,128.00769491372142 452.0436644041916,128.9809484810012 452.119332601301,129.58953987883046 451.9747196929807,130.11513100220358 451.6693227334224,131.23259175023335 451.74417947534994,132.90540663903556 452.0074097451932,134.60801352580282 451.93255300326564,136.37260979352124 452.3205734901931,136.86203319953145 452.6071330969269,137.22428998394037 453.84445736975636,137.43680430396967 454.8563709810556,137.46740775711658 455.3063518684508,137.28468543505235 456.0188095314742,137.34586336080105 456.9188002866656,137.22428998394037 458.34371561279465,136.9497862829805 458.4689405380355,136.95268433726912 458.46928830457733,136.95268433726912 459.6920643449352,136.98038973614803 460.8174947422226,136.91999428503604 462.6175342136546,136.46357971721443 463.92968624792826,136.1592840183101 465.4294293354191,136.55452066038302 466.1796776262721,136.6156985861317 466.8092219564336,136.5722277720084 469.25323806848286,136.40159033626327 470.7529811559737,136.5239172072361 472.47813490499476,136.70588603516757 475.4776500605422,136.70588603516757 478.2525080486098,136.55370920518055 479.9760388872672,136.28001695942316 481.7011926362883,135.76320694048954 482.6194121528354,135.5538225191101 482.61973093881153,135.55373557747464 482.9014797755032,135.48951469473215 483.8385076643092,135.5498811652784 484.43825999660856,136.09810609256138 484.8101673017498,136.4079950362063 485.8261092085574,137.25327052670298 486.4636521686041,138.01403875451922 487.0628538705662,138.74336309346154 487.138261242831,138.83514447235717 489.0131574562729,140.2946335859688 491.3750716906422,141.29849060639552 492.72507231371225,141.69375622901362 493.43752997673556,141.81530062530857 495.2745776013811,141.967448474771 495.56194866329673,141.79599958384398 495.65451251689086,141.740443883381 495.98697730327297,141.54160837955115 496.1407770436855,141.725171137363 496.18421887730483,141.77666956183427 497.1808307619997,142.9632489043252 497.1880758977521,142.9721169504002 497.7877992494858,143.39795704562005 498.3875515817852,143.73204474248945 499.4372848013151,144.64412038402054 499.88729466927606,145.4652261018585 499.9186805970185,145.63270465842925 500,146.07384648021227 499.958152096261,146.13580688061828 499.5499901321214,146.74280434858775 499.5194156595608,146.7588885498288 498.9196633272614,147.0664300695224 498.8375614496638,147.10827797326138 498.7184224383693,147.15899392307531 498.05024704463057,147.44236567011015 496.40076149271886,147.6556914453213 494.8631987969974,147.59448453902746 493.06318830604874,147.59448453902746 491.37666562052254,147.777264822182 490.0645135862489,148.14192699163257 486.98933023359206,149.0242106352192 483.9898730391761,150.02809663621167 482.61973093881153,150.59924517279427 482.6194121528354,150.59930313386397 482.60361775710766,150.6060845808734 482.3589060540305,150.7606378153775 481.5909216711099,151.2452504513044 481.02820647242504,151.6405160739225 479.7908242384641,153.100816642716 479.2530612871982,153.54760967035048 478.3651264378013,154.28499060016532 478.2161954285623,154.40815790686517 477.35483573686577,154.80423498468573 476.6794441879403,155.23010406043014 474.72969123265324,156.35550547717241 474.34491656645326,156.61711283661072 473.7926633437649,156.99307741776423 472.5923472239842,157.60166881557288 471.99265285281626,158.02750891079273 471.5812740484326,158.3012301370953 471.05559598344456,159.06194040384185 470.75614003516864,159.88307510220434 470.2312444447968,160.91750659525343 470.16122745347707,161.0374570617092 469.25639694767784,162.5903504646008 469.0731529758626,162.89383470832325 468.35637721192063,164.08122550601666 467.7268618622425,164.68094885775034 467.49501752022405,164.90151976865215 466.03231156634774,166.08731663648578 465.1983095069677,166.6468149948854 465.17014041938694,166.6653045811681 464.1952639417846,167.18295503582874 463.10768213329357,167.54758822473414 462.8122254998779,167.6522659451719 462.2455109864152,167.85188392365907 461.5878265491563,168.22303773468812 461.3833688200201,168.33895990571793 459.5462922148912,169.43375786931327 458.6084818513868,170.3764369639913 458.4691723823967,170.49711194401405 458.4689405380355,170.49728582726436 457.4846743644631,171.35050198647355 456.5492404055375,172.4469228604532 456.1346447609097,172.93237593212774 456.11453226418087,172.95729919889865 454.86034131543244,174.48283496943256 454.0955447921902,175.50758696118362 453.9973297328064,175.6388108587766 453.97315996016823,175.695178014442 453.36056924737585,177.06853695496832 453.0981214522311,177.8590682002045 453.0900648613792,178.03373393137562 453.06108431861657,178.6495704648955 452.72380876202766,180.4141957131385 452.67468674205287,180.65971887135635 452.5048317809856,181.50496538128726 451.8994572233799,184.51975328285272 451.77872428236975,185.03734577642305 451.31147099146466,187.0442773426398 451.26182732171833,187.25760311785095 450.7369317314288,188.56494438200014 450.68137603096585,188.62774521813316 450.17424551330964,189.20332777777384 449.38774256354066,190.11621487448681 448.3380093439284,191.18046734602552 447.81073734906005,191.80914225997665 447.70043740331596,191.94117761277207 446.5757894806447,193.12775695526304 445.6387615918387,194.2531583720053 445.5236798566183,194.4053352019923 444.65748041423154,195.5476322751575 444.27348822273007,196.05319784349908 443.83950459502285,196.6247521076726 443.61328247831074,196.86384158540227 441.74000917523256,198.84582090430297 440.7120113627129,199.8222623313023 440.2032289541272,200.30528103736944 440.0140439710296,200.50089970095522 439.5278084247184,201.00562483354918 436.90425785030385,202.89098302290523 435.6203038841767,203.8119267105319 435.5220888247929,203.8811612271737 434.3185848453338,204.74463649850156 434.31849790363657,204.74463649850156 431.95498973946934,206.44915610108407 430.23061846506437,207.7878832930375 428.15129350305205,209.58629985414694 427.9806270868029,209.73441940816284 426.59437180473446,211.0425721274939 426.4299941662272,211.19471997695635 425.80627492508506,211.7718964664362 425.05678012836484,212.56245669219695 423.70680848586056,213.77963948783483 422.357590337489,215.04432139306317 421.532427343577,215.81792800131063 418.6077979106052,218.4640254379584 416.9591527943588,220.10704832881615 415.9593530499855,221.02074688075217 415.1969908922889,221.71787383668777 413.20938934812307,222.99545208341706 412.7231827823776,223.36092570809066 411.7483063046105,223.63461795384808 410.1680552694024,224.07167351911482 410.09800929751697,224.09106150221484 409.160981408711,224.1820314259286 408.48556087930217,224.21263487907552 406.7233699965842,224.06048702961309 406.1985033868604,224.02988357646615 405.2236558896591,223.78757725851298 403.6868466880703,223.26995578437692 402.26198932299036,222.6919678397152 401.41833674287807,222.21457135893377 400.64954090469325,221.77986321763893 399.56277055146643,221.14069734720792 398.5532623252294,220.40809820695182 398.1387246417331,220.1078597840186 398.13788420590316,220.10704832881615 397.16303670878415,219.46866493304245 396.7935347887052,219.08467274156155 395.7003307549902,217.94799789370268 395.31471565304264,217.4883375050918 395.0627588143778,217.18725864641098 394.29474545089147,216.47564141911465 393.7505777995384,215.97088730597557 393.0003005282844,215.57481022815503 392.4754339183959,215.54582968541303 391.2767407090613,215.91052083540873 390.4516066957974,215.97169876117803 388.9518925888723,215.6674030622531 388.52521205788423,215.5627543223811 386.9642910446241,215.1803560607394 386.0175836545201,215.01081988562763 384.41562619270286,214.7239125123726 383.7031685296795,214.63294258867944 382.72832103256053,214.5113981923639 380.59097702397384,214.63294258867944 380.0661393946511,214.63294258867944 378.4166538428218,215.09016861170355 377.3669206232095,215.60700761116172 377.06662423910365,215.7897589137711 376.72288602154316,216.14395910728692 376.65446296010384,216.21481653433364 375.82932894683995,217.4013958768246 374.17984339492824,219.68280216345605 373.2935314559774,220.67376284236124 372.19308228651005,221.9030305243388 372.1310929055589,221.96664281567428 370.8060445297431,223.33275662053055 370.5548701657767,223.78114357800422 370.055738277841,224.67148381248396 369.30627246176886,225.52238152826635 368.8337447121816,225.9474391488289 367.5819591484954,227.07362304022848 366.79461576297876,227.4994921159935 364.88274037697147,228.65549698588268 364.3948819202141,228.89861475903828 363.907834918721,229.29388038165638 363.0030333934051,229.77365326693428 362.8557252946122,229.85175582965107 361.95729948873543,230.32834085523004 361.8671410202035,230.36647924949852 361.0951283417746,230.69300302470117 358.9586247689356,231.08905112195598 356.14670066660534,231.63649357458166 355.24668093093055,231.940789273486 355.1002132678029,231.95684449418192 352.9974720272852,232.18387806609647 351.3101668670605,232.4269958392521 351.1765665649916,232.45194808656814 350.75066850870206,232.5284277389006 349.2227563336305,232.80455435024479 347.93636800187534,233.0363986922838 345.3490141254101,233.40106086175496 342.9500917379097,233.64499009009245 342.42522512810353,233.64499009009245 341.261192647887,233.80922282589455 340.70088283426435,233.88810786326866 339.77107110056266,233.97261512592848 337.71669838588696,234.1579456968298 337.3262725138973,234.19318603683027 335.78789836291156,234.38480538551465 334.402454536025,234.557877186826 331.92861744554796,234.71002503628844 331.32889409381426,234.680233038344 330.42890333862283,234.71080751094576 328.36485112256673,234.83559772802994 327.91724663983274,234.86298434093277 327.5050853607505,234.86298434093277 326.790222312665,234.91285985501972 326.19287536542777,234.954765719849 324.60140886009043,235.09239431738501 324.093437906769,235.13667658671076 321.9939424869787,234.98455771779348 320.38230552394583,234.80340034504385 317.7949806279639,234.5595000972309 314.0838772257065,233.98148317200346 313.56622677100466,233.81864150228623 313.40842771573193,233.76896885199474 311.83382788631354,233.52663355349645 311.04654246184606,233.31333675883045 309.25377710664986,232.95591972504994 308.60896003036737,232.82707223197403 308.4358882289736,232.7804135581312 307.82167460589983,232.61374645676287 306.84676914764935,232.61374645676287 305.9966828871312,232.53807825963287 304.44781777966557,232.40123213675417 303.51078989077723,232.4922310409925 303.25642766705016,232.5863888244052 302.1978264013217,232.97924906196104 301.4483605852496,233.40511813772605 300.92346499487775,233.92192815665967 299.32350719053176,235.34519159181806 298.59858789404063,235.9899796875348 297.3580757615328,236.99708252875078 296.72372066116446,237.5114581820976 294.9244926449143,239.0007392936537 293.91260801409845,239.85247744516315 291.7752640055118,242.13385475124943 290.68768219710313,243.2592561679917 289.7096178596577,244.12307920584078 289.4157841366881,244.3827448689187 288.5874043026144,245.11482235942387 286.11362517318645,246.97038855083548 285.1323150150135,247.57335772335838 283.33873820455307,248.6730244181273 282.70194873863915,249.16004243909586 282.2712688927909,249.42246125373663 281.8019579834477,249.70742693063124 280.78923291696657,250.16227654913826 279.2468594510383,250.92944947691814 277.2898613599988,251.8077338056034 275.6991193682284,252.47990851422296 275.3328632689593,252.63446174872703 274.1390098102325,252.8510623252726 273.47245732685747,252.93235274768833 273.0305040499132,252.9428147236231 272.92907215028526,252.9524942249005 271.8270000704541,253.17625299550127 269.8853037059366,253.4354839504225 269.22924217912384,253.4306441997941 268.90961577307,253.4660584230243 268.5031056998599,253.62304602313577 268.2986189902403,253.75021264473702 266.254679270913,254.11652670513766 265.26534150237154,254.1537956831134 265.1856450098362,254.15678067901686 264.97713000470833,254.19703465289606 264.62695810665963,254.26383480395108 263.37033279228325,254.3539932724624 261.76672343953646,254.44174635591148 261.09373727575564,254.3910304060975 259.04742115193187,254.3709179094305 258.71492738490167,254.4377180604649 257.80125781355196,254.5488004808457 257.1395161003014,254.67602506353725 256.5059434746316,254.7975694598322 255.70095093857984,255.1292227911148 254.9442399867553,255.4593111730622 254.3106963415688,255.76841764207037 253.81802711476936,256.02199739116077 253.55798470468685,256.20471971322496 253.07983472979328,256.54283570554094 252.80046229759807,256.7642180716246 252.4124707912364,257.1586722390402 252.0864396852601,257.4903255703228 251.22829683380763,258.8435720141821 250.92591385069798,259.4956342261346 250.51986746621026,260.37148418923306 250.03847167050685,262.41701783839954 249.5860564176484,265.1774435161967 249.28497755892639,267.4483588463483 249.06521810318586,268.81125581096046 248.73837554211008,270.83105473815357 248.57092596602268,271.3180727591221 248.57576571671288,271.45010811191753 248.60071796396716,271.7189606070259 248.38174098292512,273.47147198842526 248.32462033314752,273.7717683724282 248.2102920919775,274.3683038644629 248.18533984472322,274.56067670725946 248.18212300447914,274.7764368480574 248.0066168375398,275.23447432628393 247.06796603828775,276.8493281295815 246.87637567012794,277.1794165115495 246.6453427832914,277.5505123615089 245.57546808646694,278.81197742647254 245.08845006553958,279.34649455701094 244.72375891550269,279.74575949453043 244.31159763650285,280.2408630869372 242.03581357515714,282.3886400909341 241.38777965863054,282.97471360703406 241.3217619822534,283.02461810164556 241.11486988757164,283.1803015773282 240.49584549429102,283.64607686045116 240.3203393273517,283.77811221324663 239.7213984503165,284.19427280716843 239.47828067711973,284.3842692454685 239.39055657429816,284.47686207956656 239.19250354500207,284.6877534891909 238.47523511193663,285.23197910155193 237.96567022865247,285.53705727511357 237.6017905338798,285.75441134577125 237.54061260811054,285.77776966322756 237.20574243658385,285.90655919521316 236.85473010278756,286.07400877123877 236.24938452574756,286.4201813544272 235.44676839419233,286.6890338495562 234.83012040549056,286.8693797671239 233.60166417869488,287.0907621332076 233.0945336611211,287.1712411004415 232.38691574862318,287.2839464312066 231.31866396224487,287.35236949264595 229.64744300324065,287.35236949264595 227.38936605347914,287.2622110241346 224.97998169014693,287.02955522691377 224.10250881658177,286.94504796425394 223.28543139425219,286.85488949574267 222.26062144141082,286.7421841649775 221.64881320331688,286.6745435781749 220.06209950705485,286.59890436159003 217.59153721787098,286.47973636979157 216.96442725317272,286.44890107230407Z"/></svg>