<svg xmlns="http://www.w3.org/2000/svg" width="500" height="500" viewBox="0 0 500 500"><path d="M58.9523613546594,236.84159157918435 58.673757841709815,236.36913680682338 58.76614063716919,236.24147606342473 58.900686613893804,236.047447349431 58.93678085252345,235.9952047544256 59.006484966991806,235.89948581504254 59.142557052130925,235.70645084606934 59.27444121186055,235.51153485976917 59.40188900983099,235.31466687429898 59.52504240982914,235.11591787152702 59.60440004738302,234.9819752399889 59.64383042991113,234.91528785137763 59.758182088334785,234.71309623191743 59.868026403257105,234.50913006779393 59.97339886559959,234.30356681348854 60.0742639845416,234.09654843253605 60.17058626906076,233.88803943406535 60.26215277393062,233.6781462907653 60.34924742622064,233.46686900261074 60.43155080793986,233.25442051497936 60.50519441166974,233.05201595016663 60.509204882572554,233.0408008278712 60.58217415939897,232.82597445038996 60.65038765637434,232.61018981878448 60.71391635544256,232.39341144215845 60.74372870590752,232.28466734492034 60.761509643462325,232.22635580712802 60.82688386903689,232.0095774305272 60.88750231486128,231.79180530888064 60.94329399919335,231.57303944223872 60.99440088571914,231.3532798305763 61.03748683023756,231.14874581216253 61.04061002880871,231.1326684374785 61.05292536888922,231.07315020931307 61.082595755668144,230.85019641726169 61.108042726216944,230.626426334646 61.12944373494142,230.40173348880236 61.1404814027554,230.25987638804668 61.14708270891105,230.17640180687587 61.16124357529617,229.9503603070992 61.168377244870996,229.81485607627556 61.17792429519198,229.58782083145312 61.185057964766806,229.36021773236564 61.19006218066494,229.13197579719537 61.193220870258465,228.9032369895274 61.1949954149218,228.67393032754396 61.1957762145898,228.44412679306288 61.1957762145898,228.2138618769552 61.19549228741946,228.0046430606343 61.19343381558579,226.54625127084134 61.19329185210149,226.44570556996595 61.19283047042447,226.23787089847437 61.19190770717129,226.03046211768788 61.19023963517162,225.82362119121683 61.18757781817663,225.61720615545087 61.18367381993748,225.41135897400036 61.178137240519305,225.20586670146236 61.170648662132855,225.0010132650072 61.1609596482267,224.79665670104967 61.14885725357438,224.59279700961505 61.134057551005554,224.38957615426327 61.116241122630115,224.18692315320172 61.09508855015447,223.9849799700156 61.082489283004485,223.87832983545698 61.07049336101583,223.7838885682396 61.042065155481055,223.58347149346795 61.00944902443592,223.38401267279536 60.972644968082164,223.18554759716852 60.93119160454103,222.9880762665118 60.88491147960844,222.79191809894223 60.8335916478562,222.5967181854717 60.83082335819755,222.58717113517594 60.777196618362815,222.40208612631665 60.715832863691055,222.20827035770068 60.64992627479819,222.0151644069601 60.579299396975784,221.822945728526 60.52144924081004,221.6751616485938 60.50427164841657,221.6314723588636 60.425162447111525,221.44081527976547 60.34193630224001,221.25111645476642 60.27783974883111,221.1112113531555 60.17441928555776,220.89581712138403 60.15866132891512,220.8645496443476 60.0662075517136,220.6820554707159 59.953098074634966,220.47003287378962 59.83530379954831,220.25971383975929 59.71257629030567,220.05124033218488 59.585199474077385,219.84468333285898 59.45317335076258,219.6402557871341 59.31642693861912,219.43760278607255 59.175137692254545,219.23729218396457 59.02937659320927,219.03914652635393 58.87910815076352,218.8432722859295 58.724438837480086,218.64963397176976 58.565297671717694,218.45848002014878 58.40186210778128,218.26977494017024 58.23416763669322,218.08366069541933 58.06221425835265,217.90010179497455 57.97458724264345,217.8092096170838 57.886072954703465,217.71909823886108 57.70567274370089,217.54036609993383 57.52119108005336,217.36365694189354 57.333089345236154,217.18900625568688 57.14154499385682,217.01595265968734 57.031523224427815,216.91895604813863 56.946912934726974,216.8444251721023 56.74965454942278,216.67438830203542 56.54984081978725,216.50541615875647 56.34782665483375,216.3374022696018 56.144073436037566,216.1702046710114 55.93861665442107,216.00346845402237 55.73198867330257,215.8369806732822 55.52415400176055,215.67067034702345 55.33917546561536,215.52277979440237 52.026881370476175,212.8773240945304 51.495618187825194,212.4529949735579 50.932590655640105,212.00336084564702 50.89823547085315,211.97585540328976 50.8797447153725,211.9612686461239 50.71787075077209,211.83183335803673 50.53747053987039,211.68738542207865 50.357070328968696,211.5422631591414 50.17695404523734,211.3963600965614 49.99712168857545,211.24949877985713 49.817963658917904,211.10160822723603 49.639728392412664,210.9523690206819 49.46238039833996,210.80181665106582 49.28631007643292,210.6497736639315 49.11162389925433,210.49599162300495 48.9386412850978,210.3404350374403 48.76746870642524,210.18285547093825 48.598496563171516,210.02325292349886 48.431760346157276,209.8615209224836 48.26775692798105,209.69734004982593 48.10655729028411,209.53074579639684 47.94840986951704,209.36166718045425 47.793705065412965,209.1900332201803 47.64269131411985,209.01552449755886 47.495688033931295,208.83838944881347 47.424351338283905,208.74845552504698 47.3529436607935,208.65837963772054 47.2150260492489,208.4757435005037 47.08182872643209,208.29090692789325 46.95356463787215,208.1037279563292 46.90242226052572,208.02525759113223 46.83016280172603,207.9142420767079 46.71187165414171,207.72269772527812 46.598478249892736,207.529130392911 46.49023102512706,207.33357557050275 46.38709448902406,207.13617522166382 46.28917511424738,206.93696483726526 46.19650839171854,206.73612187176334 46.17102593024823,206.67678109805416 46.121729079408155,206.58982840934934 46.04531718601961,206.40932172573352 45.967130747967744,206.22948936909685 45.89309674440385,206.04841483119083 45.82328615717096,205.86620458470426 45.75784094985425,205.6829651023009 45.696512686104,205.4986963840059 45.66811997138987,205.4058876978667 45.64050805644461,205.30051523549898 45.59121120550366,205.09055111040635 45.590927278333325,205.08906049288814 45.54645718898557,204.8772863322107 45.506991315636824,204.66544118979107 45.47221024009436,204.45338310196848 45.44186552621022,204.24139599596373 45.41563775609429,204.02944438083 45.393278493295995,203.81777669286666 45.37979195381435,203.66598214198117 44.3806523240963,203.65277952964465 44.10833069931138,203.29677037838684 43.73269508401765,202.7673527221918 43.253532532786906,202.44300144780442 42.68965321919166,202.2547222585562 41.834926034510204,202.0841530250954 40.929872762970966,201.74305004904485 40.503023788588656,201.36744992464742 40.14413987503376,200.5314264407487 40.07120608912885,199.7663847435849 40.13335064346862,199.2488210457681 40.257533279181864,198.77263972959898 40.31964234260011,198.1732695226111 39.998236812403306,196.50026430068942 40.037667194931416,196.02802247368098 40.812575360482846,194.57289584609478 41.69392071511423,193.1778907918353 42.009399266159726,192.60119926568711 42.48164109324384,192.06290888615018 43.072174067811396,191.44675148657757 43.49607729802837,190.82367336283312 43.62718065808999,190.25979404918743 43.52173721390449,189.80135817970205 42.864161941863564,188.2486315953806 42.48359309231297,187.5407657273782 41.95616292615899,185.42022034025038 41.77775020534881,185.0386577457801 41.588477271029596,184.63448745223752 40.98513208398474,183.7954827333024 40.72313830928968,183.30159146134585 40.345266767655595,182.58783410506322 39.30619988291178,180.36667203526744 38.945328479265356,179.90429667662139 38.482988611414726,179.3276051504732 38.23256486795282,179.05056323693526 37.683449765904015,178.8050727275789 37.1352929180299,178.68976281508142 36.9618134313757,178.68976281508142 35.95426245981629,178.65622392085876 35.64769212300895,178.6473511975169 35.171475315943546,178.8199079210188 34.519827023053935,179.3904950134838 34.117608728630906,179.7426356573735 33.00159758707938,181.0025978624107 31.84619155382038,182.21418597981057 31.370045728597994,182.47348244666478 30.416689351214007,182.79091299685504 29.71872544247029,182.80766469851824 27.105176055742827,182.31771291572235 26.22386619193208,182.0870221089096 24.846606584431985,182.0081613438786 24.301395480622332,181.9785619388166 23.878521486322192,181.95588325795168 23.518643827671095,181.93618581214838 22.837431620565347,181.89970117378562 22.82458391716653,181.89870742876508 22.56535843213013,181.81196768541275 22.3770437519856,181.00451437065922 22.154231923468945,180.01275684671438 21.958996519076912,179.577035148965 21.667225884838395,179.00619962022594 21.04709350523406,178.35753256237274 19.87688776950711,177.3183946957859 19.372136284243272,176.85701308216042 18.938366585613455,176.20834602428198 18.56273097021885,175.58924288056926 18.417821652684598,175.14752322187599 18.475991226942188,174.26717161216428 18.389251483564653,173.67564489260138 18.056985739959686,173.0851474089301 17.507870637910884,172.49362068936725 17.117470810969834,171.86465107731735 16.792161282533883,171.30861525109668 16.711277536565508,169.19988833145086 16.833543664131128,168.5403255693184 16.670853409042078,167.88278578812336 17.44281583042817,166.92648366662448 17.60447684960039,165.4772840182148 16.385968008129556,165.08195095711775 15.695847586785652,164.62056934349226 15.249265675678533,163.4010667568748 15.380404526560795,162.46350382708016 15.492768694993808,161.6550922582276 16.22430698885647,161.0951169428463 17.645894722220014,159.57986874190814 17.645894722220014,157.23945727042903 17.28016106615976,155.5260279209587 16.792161282533883,154.80141035131834 15.818113714351272,153.91314427238902 15.333875965379374,153.7258588281613 14.964344783844501,153.5829015097214 13.948914833963771,153.55035636051932 13.096139648452326,152.95687764181164 11.635121532560674,151.4415939499772 10.619691582679945,150.09002974917385 8.588796192198718,149.03712141598547 7.166214713738977,147.8836673818965 6.951281863644516,147.6963109558762 6.487983741720073,147.29015317231773 6.154759744041289,146.99834704713248 6.33515995494299,146.902699089542 7.443221136431051,146.31514735003609 8.039681090149918,145.83108705554565 8.63713478896498,145.53335395118387 10.978504514593567,144.11765770610057 11.94272110528485,143.5961190282268 13.47571475290672,142.21694291240257 14.054393769070789,141.69639797954937 14.97222376206495,140.6543498597187 15.583483418453511,139.56399863401808 15.891082991076814,139.01488353201972 17.513797617163064,137.34187831009805 17.589712638053943,137.26397579919131 18.93737284061813,135.75855857569405 20.022790832036687,134.54498296827833 22.04282600921062,131.75106886149504 23.053322724834494,130.2979297239247 23.13711672404669,130.21115448965088 23.558074210098333,129.7773847910715 23.925830847171618,129.55357921755953 25.211381986317555,128.92063462545266 27.231417163390617,128.36069480096765 27.874157242142946,128.36069480096765 30.49164611803107,128.2118459942223 31.68548878872198,128.36069480096765 32.55799691095823,128.47210071520075 34.519827023053935,128.82346055942247 35.679208036294234,129.03108228556152 37.590783043375176,129.49938462340933 38.11331546629468,129.6275422393056 39.94993370655856,130.00019661956293 40.960430422182434,129.92527534366738 42.42840475314223,129.4786579416892 43.07118032281607,129.51414883503142 43.99000406080555,129.9992028745424 44.65641656544335,130.61734776413087 45.596960730249165,131.4888266504755 45.90551855704715,131.85754154157217 46.377760384131264,132.4204626010936 47.71654786327793,133.81248642029144 48.16905675353636,134.2827407572588 49.36289942422727,135.06453415611102 49.36392866024497,135.06552790113156 49.87159039875264,135.4332135563114 51.10788017787914,136.33038784945364 52.43878867870449,137.1131395024301 53.38029109768499,137.6455029027653 54.41346649419901,138.2301443890274 56.15841175703024,138.93797476610828 58.04045834071568,139.57187761236463 59.23430101150746,139.86861697170585 59.877076580979555,139.90609535508915 62.03513584246262,140.09242254521783 62.862286603019456,140.0549441618345 64.00981365785627,139.94353824757619 64.09559514715998,139.91979483992336 66.03084258002552,139.38455667721541 67.2247207417388,139.04938068036662 67.82015145954084,138.60180502423896 70.25425888944042,137.03722448153923 71.1878823300996,136.1834910418531 72.41228265990111,135.06453415611102 74.43128860125907,133.05241344817992 78.01292308599545,129.81188193939317 79.02345529264171,128.86448803215768 80.67576932366387,127.31570093697165 82.3290061179392,125.825083416018 83.24687160195575,124.85692733616607 84.01070660877168,124.15009070408048 84.2120109559002,123.96376351395182 85.90968234870265,122.36174007876507 86.11868821964579,122.18034612281761 88.66512432705687,119.97792324470089 90.77686797268584,118.33845691700189 93.67132778024366,116.25102453336645 93.67143425300819,116.25102453336645 95.14530007229865,115.19357336583086 95.26557870987362,115.10878562159812 96.83796724910209,113.98095601251418 100.05088684289312,111.67206045434556 100.64635305161666,111.05395105565339 100.87803760344995,110.81438752549876 101.50111572721963,110.22286080593588 102.76004869631475,109.02706613607496 105.05414455201543,106.59984393945095 105.33118646552813,106.30704406924515 105.86266259350644,105.60709267048557 106.33291693049902,104.98795403587657 107.39370424205917,103.58904498335272 107.53463857951125,103.40268230235299 108.68216563434807,102.02446444065299 110.05946073287053,100.57132530308266 110.19453907301434,100.40962879293849 110.84026038675263,99.63972484336085 112.12581152589857,98.3363927666349 113.08899888067302,97.21842962593858 113.71005402353053,96.51354499297258 113.77809006610009,96.43663622708638 114.4209011264937,94.83560653689494 114.48169702682478,94.57435807089595 115.05391670051922,92.11657821508568 115.20177176211794,91.48271085975087 115.94314103347193,87.79066420567582 116.15115315941976,86.75553681006745 116.21131022366801,86.45485796154036 116.62435324057769,84.29381746509652 116.65984413394513,83.53963598126523 116.6697106022571,83.32573236701195 116.99111613245391,82.35761177803109 117.7413226363039,80.6757338327928 117.77092204134068,80.60670404520269 117.89120067891565,80.44600128007907 118.82780535456081,79.19104329101567 120.363744746348,77.32280266475243 120.38837542640816,77.29228049646247 120.89610814675885,76.69777254183796 122.04168320242565,75.35504557350541 123.24706041352906,74.3101581821983 123.2473443406994,74.30994523684576 123.41794906503128,74.16216115691354 124.56643437404277,73.00771337782922 126.81620210388,71.66697389951254 127.06659035652126,71.52501032606797 127.87202069036265,71.07047845487216 128.56604510984482,70.82601718143265 128.92787476766594,70.69782407461484 130.2597770135875,70.25127765442923 131.45365517509904,69.61733931730183 131.48815232347116,69.5946961273332 132.5095092525032,68.90950894019572 134.30080562200916,67.45732805674963 134.58473276884786,67.18720686740878 135.35566595431712,66.45275832030228 136.23346221972272,64.99862543771141 136.45787113839603,64.62696480247463 137.56596781070473,62.72522077288502 137.65171380908694,62.57832396528446 138.2945248695814,61.31151201781757 138.661252270637,60.305913045478604 139.30502158520528,59.374312585756805 139.8088148163953,59.03910109801172 140.5432278725803,58.517597911034265 142.0131896936316,57.772289150570046 142.689504157402,57.31186579104357 143.16071674856929,56.99148949671317 145.54847307169325,55.61327163501317 146.37558834142945,55.091732957164645 147.4304486737374,54.60667891765367 147.61283637473065,54.45584262089245 148.70024185624072,53.55281233034103 149.35881087327695,53.005649227462236 150.8741655469292,51.21729860214682 151.56329222327778,50.733238307656386 152.50380089716208,50.139759588948706 152.8034860007443,49.95048665467993 152.82282853753424,49.942181785628314 152.82321893736824,49.94211080386095 154.50115739354675,49.242656277599025 158.174429364996,48.01325173172287 161.94043904081713,46.93276697438464 163.54736021933925,46.48618506330274 165.61275275819258,46.26234399889447 167.81712763542888,46.26234399889447 169.7000969823675,46.337300765661105 171.72013215954144,46.0760522996621 172.53841019678163,45.72902234443504 172.68431325941208,45.666913281067224 172.78485896026223,45.61566443105714 173.51934299829023,45.239035070768075 173.55678589072681,45.21933762493956 174.05663963275617,44.47598086359492 174.10788848276627,44.40010133360033 174.00830103598992,43.85985895494383 173.969864398558,43.654757082239826 173.41876180641768,42.64919360077194 172.13321066737262,41.53222420507094 171.39872662934462,41.123085186450844 170.66427808223816,40.60158199947339 170.65540535882062,40.59072178611566 169.43490902725827,39.137582648545326 169.38170817807818,39.07451533105326 169.19335800701214,38.849716012520744 169.35406077221143,38.530297972314585 169.63901715486608,37.96045618859609 170.2028964685622,36.83855355871389 170.87818169651663,36.504335815964126 171.03004722911905,36.428456285969546 173.78453095339947,35.75803331047937 175.16274881507422,35.53426322786369 175.40529358031569,35.42285731363058 175.40536456215872,35.42285731363058 176.2186028924784,35.05020293337325 177.22913509902378,34.41729383216269 177.96358364613027,33.560579157440145 178.60635921570324,32.36765924995198 178.69803219313587,31.399574151867405 178.5590498548538,30.357526032036745 178.14597134702262,28.457769492462997 177.22714760903312,26.614230527976833 176.49266357100512,25.142352198702234 175.34513651606744,22.49828064368482 174.19757397020825,19.220270751514786 173.96787690846648,18.32611318430522 173.96787690846648,17.02182285345502 174.14827711946907,16.637350005740934 174.30603414030125,16.29819902880997 174.47266388465184,15.942296350241044 174.67080954228769,15.728357245091471 174.67872401153053,15.719520012645901 175.16179056100043,15.196987589751611 176.17125804070747,14.45267257430794 179.61586218633178,12.552916034734194 182.39856117071878,10.73922491153364 182.39905804331732,10.738940984388515 182.64550680679793,10.578238219290114 185.0796142366975,8.864844360716106 185.905771252259,7.8592808792734346 186.36516537584345,6.667354716780591 186.36516537584345,5.847124680446039 186.36516537584345,5.326579747592834 185.99744422979253,2.23496802731883 186.04375984564663,0.1114059142583262 186.11871661236282,0.10941842421724113 186.77135865034865,0.09366046757460257 190.68124840778717,0 193.20603507022494,0.5215031869774555 193.6368235338688,0.7748726746551352 194.49595158928707,1.281718122674155 194.72131876213504,1.4147025000879863 198.07421443920347,2.8303987451712973 201.93090334756278,4.246094990254608 205.5124668506579,4.953925367335509 208.72737393433871,5.0643375365732926 211.9742938040042,5.486892112882451 211.97482616732248,5.486998585546112 212.44699701256357,5.548397831063726 213.41121360325485,5.623354597830355 213.82425662016453,5.399549024318378 215.10881401431516,5.325586002572291 216.43599597130716,5.847124680446039 216.4361379349932,5.847124680446039 216.6241331970459,5.921052211295833 219.10452075187806,7.0390153520173735 220.71147742132166,7.858287134252892 222.5944467682603,8.378796576209805 224.70619041388923,9.272883161652 225.99174155303518,10.092119452991227 226.727183845137,10.167076219757856 228.01273498428293,8.975150057265012 229.46984910193544,9.038217374782294 230.58284351757948,9.086555971523339 231.86843014764693,9.794421839500531 232.4195327396864,9.943270646245878 233.70604213290613,9.943270646245878 234.62390761692268,9.794421839500531 235.8177857785351,9.943270646245878 236.02381041449226,10.060603539680733 237.05797955590074,10.651136514223072 237.6090821479402,11.284045615458854 238.1138336333049,12.289609096926743 238.94098439386173,13.183802155032598 239.49208698590118,13.928117170501489 240.45623259474945,15.046080311223028 241.37406258794536,15.306335032201485 241.55006192800937,15.311836120672934 241.55055880050702,15.311836120672934 242.5679762403784,15.343777924688506 243.5784729560023,15.046080311223028 244.08322444136698,14.748347206836039 245.55215702650148,14.598469164199074 246.1032241276194,14.673425930965703 247.02108961163594,14.748347206836039 247.18374437590435,14.561026271712052 247.57219220357453,14.11440886970864 248.95037457442868,13.257729685882392 249.63850750568105,13.295208069265707 251.6132208120971,14.598469164199074 252.7617061210077,15.67799566741305 253.63421424334484,16.94484310577623 254.0009416444004,17.690151866240445 254.78174129818163,18.025327863114455 257.44554578992387,18.47194526509265 258.3180184213395,18.77063662357867 259.28219952110925,19.77620010504656 259.8333021131487,19.9625627860463 260.55099895861724,20.11435733693176 262.3432890731185,20.81728997075297 263.1674585985885,20.983884224156824 263.8121861673315,20.795605034908586 264.5594824178368,20.293799293759648 265.4359300292337,19.834369679253715 265.9515417280066,19.77130236176165 266.46715342657774,20.231690230366617 266.5272750000053,20.33422342128308 266.98173588933287,21.11008984093354 267.8837724349646,21.75779864468771 268.50291106947276,21.98749570650514 269.17131106410125,22.00758355214244 269.6319118781092,22.021141073391455 270.64223113922634,22.050598514893498 271.1257945611939,22.021708927681704 271.12629143379246,22.02160245501804 272.9993943124191,21.909593195573176 275.16433880712725,22.254671151680665 276.2073806719533,22.91224642377202 276.903392581527,23.72754322595059 277.3676489575252,24.82577342997254 278.2568732905788,25.70317929551892 280.15073834194794,26.331190653469793 281.2332105893021,26.581614396982136 282.1983499431456,26.456402525225965 283.203948915535,25.829384912295634 284.2865276355528,24.794257516662043 284.74989673921937,24.82577342997254 286.83789697722074,26.01670584744484 287.147377567171,26.83200264962341 288.30675858051217,29.30944446034068 289.5055344853591,30.941067300614645 290.12367937497277,31.63115223101182 291.08981247391256,31.849030825347274 291.74738774605436,31.66075163607382 292.40496301809526,30.970666705651425 293.02307241678744,30.09421909422929 294.1814951759539,28.8392256142696 294.52948338528,28.462631744851617 294.95597745074986,28.52619593486656 295.9984159704145,29.371589014604783 297.6221243414961,31.253600107494805 298.54982080290307,31.9436850379172 299.28423385918893,31.912098142839337 300.01875338803757,31.59860708180971 300.52151738331077,31.59860708180971 300.7015271944793,31.810700660503368 300.70195308513394,31.811162042129958 300.94740810361924,32.10044831388016 300.7541956801394,33.13561120038483 300.7709473818782,35.02447203570455 300.9676024219202,35.42278633183799 300.9677443855054,35.42285731363058 301.2352747396186,35.96498070963929 302.3384381777713,36.77243402439283 303.29374655422447,37.81544039834774 304.2332614832143,38.84272430653109 305.5227876023415,40.10364476569252 306.8674665698189,40.12632344653223 306.979901719994,40.18247003982723 307.5575869911628,40.472324165867676 309.02453208630664,41.80816590089945 313.84146260527507,46.238600591241635 316.7576073487277,47.74795730389955 318.4197878481627,48.87773891210307 318.53513325158167,49.44168920751611 318.2866969981104,50.26880447720188 318.18714504225557,50.60302221992642 317.8401150870033,51.887579614051816 318.03332751038226,52.671360502945106 318.84464933255435,53.487651050144216 320.9711571898306,54.584887509120406 325.0674096282437,56.30917707194843 325.7249849003855,56.93615919398247 326.2277843865802,57.84611020873096 326.1893477490474,58.88127309526085 326.53634221337813,60.16682423440678 327.11704421045437,60.79483559233244 328.12157845600547,61.54699409525158 330.2772953184845,62.44938554972016 330.2776857183185,62.44956300417641 331.64011013242913,63.01990166041779 331.94870345024947,63.4911497424057 332.1813817470781,64.93346415748938 332.2206346750995,64.99851896502253 332.2207056569426,64.99862543771141 333.069647825957,66.40732997680506 333.8040963731644,67.9442631135876 334.37610310132976,68.57106778114017 335.23459232076607,69.51178940045267 335.96904086787254,70.67212866784243 336.433368225613,72.55413976073245 336.51027699149915,73.3073274995432 336.819864054214,73.84068464489893 338.09554872504793,74.74868366050264 338.3528222110152,74.81469672216004 340.6459598125412,75.40718169584716 341.88320784574154,75.78381105613623 342.7339955413632,76.22347224304627 343.42901370594154,77.03876904522484 344.2413647639296,77.44599155559644 345.0527220769223,77.54061027727008 346.8312417248724,77.10091359948895 348.37704758497165,76.34868411480244 349.2663074089467,75.69011509769055 349.9228534450708,75.09369063481753 350.6494585047775,75.07200569899837 351.93302215393277,75.03161706234602 353.67207592833245,74.37205430021358 355.14100851346694,73.49464843466718 356.41672867512153,72.49103695234409 357.11274058479614,71.26759487656597 357.5760741975412,71.17294066399604 359.85302795166905,72.08296266053712 359.8534538424245,72.08317560588966 360.16595115838317,72.20810355050071 361.44163582921715,72.92973988510468 361.8665328044295,73.49464843466718 361.8665328044295,74.74768991550731 362.3693322906242,75.3441143783551 363.10378083773065,75.68919233446259 363.8382648757586,75.78281731111568 364.57271342286515,76.03419930877749 365.6167135418658,77.35133734300129 367.2010270212399,78.57477941877941 368.0518502076822,79.07658515992836 368.88489245646883,79.26092486004114 368.9026024122815,79.2648643492018 370.1773288289408,79.16921639161134 374.3909141609652,78.79265801308965 375.62816219416555,78.38550648451063 376.7096406966252,77.75749512655976 377.9468887298255,76.9421983243812 379.02932548635897,75.65661169436419 379.60903373843985,74.52881757617654 380.1887064995992,73.65038247471331 381.270185001958,73.02240660765874 382.7391175870925,72.27021261386852 383.8600619628,71.92517014865733 385.3683894395411,71.67375266012444 386.21821888098805,71.45488032081889 386.87575866220834,71.0782864514009 387.99574478384204,70.419717434289 389.4287605848536,69.79756207374729 389.4291864756091,69.79734912839474 389.6578897924564,69.69808109968504 391.4267204263995,69.08334333586328 391.5527130977985,69.03954757344421 393.44554891315,68.94492885177057 395.7268325562725,68.88278429750648 396.73143778366654,68.56929323647684 397.6206621167201,68.47364527888637 398.85794564084193,68.81872323499387 400.6363943069491,69.60250412386193 401.2535454514666,69.79078331311017 401.7563449376613,69.76022565394915 402.41388471888155,69.32049348527173 402.77273314161584,68.955753574232 403.0320650993159,68.69351136323769 403.495398712061,67.47006928745957 403.92128943236946,66.4033549967481 404.22984725926835,65.83947568310244 404.4624900651755,65.46284632281338 404.73261125454155,65.52594913120173 405.4673792197399,66.09007688109624 406.51113090239085,66.77998435703718 407.5551310213915,66.93671214210384 408.172282165909,66.96826354628541 409.2163177757303,66.93671214210384 410.06710547135197,66.4033549967481 410.87849827526617,65.9646875548586 412.0773096710346,65.93310065978075 412.85019485567386,65.71327006632572 413.42986761683323,65.14935526178374 413.5890797644386,64.99862543771141 413.5891862371023,64.99851896502253 413.8942304654951,64.70965858400263 414.3191274408083,64.96104058163921 414.3253383470291,64.99851896502253 414.32544481979363,64.99862543771141 414.3969944607683,65.43133040950288 414.47393871757606,67.94032362442694 414.7055522876672,68.81772948997332 415.7415314646605,70.07900485807247 416.0197445776752,70.4178009260405 416.677319849817,71.07629896138504 417.02530805914313,72.36188559142727 417.8366653721358,73.36546158285407 418.18468907238343,73.89881872820979 418.7259251961109,75.3096172300082 419.00452870895964,76.1005317884511 419.0049191087936,76.10173847882417 419.1123855338913,76.4068536890096 419.8853062093512,77.09697411032829 420.92831258335656,77.72494997735765 421.9723481931779,78.85377333146214 423.5960565642594,80.5149600858766 424.2388321338324,81.23560267548523 424.9101778725253,81.98882590516706 425.7225644214348,82.64831768553213 426.45701296854133,82.93029283322605 427.3847094300492,82.96184423743283 428.1191934679763,82.9933956416144 428.8152053776509,83.21226798094517 429.3564415012775,83.58882635946686 429.6265626906436,84.21584397237199 429.4333147763431,86.31672740459278 429.6659575822502,87.47706667198254 429.4727806496918,88.48067815430564 428.89207865261557,89.57890835832758 428.89207865261557,90.20589048036162 429.278538990396,91.08432558182484 430.63212617211144,92.27621625339617 432.8345490502786,92.99689433390111 434.341918272845,93.62391194680622 435.3090096258586,94.03106347538522 436.1203669388513,94.0941307928773 436.8548864678008,94.06257938869572 437.8604499492687,93.65542786011672 438.9034918140947,93.31038539490552 439.8321465296764,93.31038539490552 440.68098222602714,93.56077364752157 441.64810906996223,94.06257938869572 442.0636364494611,94.57425159820707 442.0637429221248,94.57435807089595 442.7690179548491,95.4427847404116 444.0831747541374,97.10397149485127 444.4696350918169,98.5472441640844 444.31485930586985,99.80127938991986 443.99639951983835,101.29487814593513 443.96687109654374,101.43286673929752 444.0831747541374,102.37337541323227 443.8909205847313,103.28236817388172 443.7745814364179,104.63102212141602 444.04573186159996,105.38321611520622 444.5869679852265,106.19950666238012 445.6684464876862,106.95170065617033 447.02100443338395,107.76703294924519 448.5802613421442,108.88882910646373 448.58068723289966,108.88911303360885 449.4176334800263,109.49128702117693 451.11920887106794,110.46334709931845 452.4600193311268,110.96121335130674 453.8254249804251,111.4679168357658 454.40509774148364,111.90665525942268 454.40804348564893,111.91847372690465 454.598345655885,112.59674018984506 454.7530859509106,113.85173366980476 455.4876054797592,114.44617064263669 456.06624900510263,115.01111468307028 456.10571487855225,115.51288493334813 456.26045517357784,116.73632700912626 456.3373994302847,117.48855649381277 456.3373994302847,118.52371938031743 455.9124669641509,118.96242231310323 454.6367822934178,119.62194958433938 453.3995342601166,120.37414357812959 452.7813893705029,121.00116119105992 452.008468695043,122.69489309467649 451.11143636541027,124.15001972228791 451.1113298927466,124.15009070408048 450.5395361099085,125.07768069282383 449.98055453954777,125.50002232378044 449.4186627158423,125.92456439010547 448.58068723289966,126.2728365266019 448.5802613421442,126.27294299929079 447.8343492364682,126.58313340721737 445.32141653233305,127.77498858791763 442.19033893868504,128.77959381523604 441.30203736888467,129.50023640484469 441.0309579254448,130.0335935502004 441.1078312005103,130.41022291048947 441.41741826322516,130.59850209973771 443.2560239934797,130.89719345822374 444.31681130503983,131.0687564367303 445.78478563599964,131.1939683084865 447.0693430301502,131.13874447841943 447.9496946398872,131.10030784091188 448.5802613421442,131.16035843247124 448.58068723289966,131.16046490516013 449.2638514390746,131.22551971266805 450.2309782830097,131.72633170882168 450.65591074914346,132.38490072593356 450.5395361099085,133.70196777838999 450.46266283484294,135.11372453431264 450.5395361099085,137.058838435591 450.77221440673713,138.40649863810478 451.27402014783564,139.84881305321366 452.5890642193547,143.0479266894564 453.0523978320998,144.6479981255236 453.4388936608017,146.4038036016369 453.7868818701278,146.90557385188956 454.48289377980234,147.34431227557164 455.7585784505355,148.0659486101756 456.5314991260962,149.00645728411035 457.73346921145816,150.20406198953089 457.8850863078117,150.35511123164463 459.35302514795086,151.35769347807613 460.9767690098531,151.85949921922506 462.2524536806871,152.36134045129552 463.1801501420941,152.9892808274538 463.70264707409206,153.72575235547245 463.70275354675573,153.7258588281613 463.91459868920055,154.02444371395845 464.8038230222541,155.0901642596746 465.2671921259207,155.3721394073685 466.04107105555534,155.30903659898016 466.1160278222715,155.28834540815632 467.08414841120197,155.0270969421573 468.08868265685385,154.52529120100837 468.78476554827057,154.83878226201278 469.3259661809757,155.46579987494312 470.4853117033953,156.3757508897168 471.72259522751716,156.87752113996947 472.68876381737846,157.28467266854847 473.65585517049294,157.84961670900728 474.5835161409784,158.78913163792149 475.66602387925406,160.16933698966255 478.15599397532867,162.1908272934332 478.156277902499,162.1911467114746 478.2548716042801,162.27114318511133 479.64689542342745,163.43052419837684 480.14873665554836,164.18374742805867 480.14873665554836,164.87383235848105 479.99495461459657,165.75123822402745 479.99495461459657,166.69274064298273 480.34294282392267,167.3828255734051 481.0379609885011,167.97829178212865 482.19833574683753,168.76306641601727 484.86508598264425,170.20435159520932 488.48316961502366,171.84385341380462 489.39706011885715,172.4057807283055 490.0083197752457,172.4551130700923 490.66192006720445,172.32691996327452 491.7157866545171,172.0972229014823 492.68784673270903,172.12976805068442 493.49824579152704,172.32691996327452 495.96976062314343,173.54347680575185 497.26617197569755,173.87077382427933 498.6936866882124,174.07285897105064 499.8175413172646,174.2325679911537 500,174.1832711402632 498.9674634395688,175.3147563113627 498.6118801789909,175.7044463204031 497.9148745244218,176.46750052757625 497.30659610322095,176.92696563295326 496.2123053883849,177.71560877423516 495.8070703680544,178.1109418353322 495.28066943771637,178.8335719149567 494.95631816335424,178.9647107658894 493.94383395773974,178.89962046748516 493.01219800707116,178.93220110758358 492.40391958587037,179.16189816937577 491.7572045271367,179.75338939806758 490.7841861948709,180.77275883703334 490.21729015526734,181.29823700406774 489.366466968825,181.49538891665784 487.9892428521456,181.5614374691863 486.7737152456607,181.62652776761576 485.6793890398023,181.8897637236306 484.8285658534608,182.41520639976872 484.10007977642715,182.6133520573794 483.168408334938,182.6133520573794 482.438857531066,182.64589720658148 481.66987634476675,182.84304911917158 481.10422248650815,183.30148498865697 481.10411601374363,183.30159146134585 481.061597923465,183.3359821370039 480.8841434567287,183.52827179720538 479.48125942417306,185.04447825229298 478.7527733471394,186.063883182155 478.156277902499,187.17474814419802 478.15599397532867,187.1752095258246 478.0646404157862,187.34545934124398 477.740289141424,188.52851278036977 477.49774437628344,189.64548217607074 477.45732024876,191.0917360803403 477.45732024876,192.24220887939288 477.78071326894747,193.22711666090802 478.15599397532867,193.72938378368355 478.156277902499,193.72980967441384 478.5910413461242,194.3115763983032 478.51022858189793,194.57477686342176 478.156277902499,194.83751594693896 478.15599397532867,194.83769340142044 478.0242162882627,194.9356127761719 476.97031421012946,195.88893366263437 476.4438777889708,196.51396378552363 475.95783000441406,197.46629092694033 475.47277596495354,197.7295268829552 474.7836847795264,197.86066573391312 473.608510318722,198.0253079881974 472.06962518276947,198.78144147114827 471.38049850652175,199.3394647873848 471.25922612385057,199.6352104017307 471.1774196147299,200.81918660408442 470.9752989770119,201.27861621859034 470.6913718301732,201.44325847287462 469.7193472429027,201.83759778895111 468.38350550792137,202.16588855249913 467.85706908676275,202.6588215703062 467.65395470415024,202.95456718465212 467.7752270867205,203.3163613515265 467.93788185098896,204.17112402710424 468.180391125208,205.2230386152973 468.3026572528745,205.84707499319123 468.05915423355924,206.37255316020043 467.65395470415024,206.76689247630213 467.08709415536725,207.0300929414207 465.9928034405312,207.4569774066993 465.62799254772415,207.88485561702367 465.34509463680223,208.4102982931618 465.2888770617147,208.63609135668963 465.1419802540889,209.23152207451687 465.02170161651395,210.1197881534462 465.02170161651395,211.46645461093942 464.77819859719864,212.12402988305598 464.3047855707134,212.8772531127378 464.30471458897125,212.8773240945304 463.8859930291591,213.54366561729995 463.76571439158414,213.73393229658927 463.32012622547234,215.01554394657455 463.32012622547234,215.83680321882593 463.64348375483917,216.49434300004623 464.2921863035634,217.1844634213397 465.1212890632903,217.8084997992336 465.43084063518444,218.36648762457384 465.5343675710206,218.9254691949346 465.4998349318278,220.09865616572318 465.37987571224386,220.37931815038036 465.18932510585984,220.82522573450836 464.1906468577179,222.054594789463 462.4357996357541,224.0371515832284 462.19424861550795,224.81993872710115 462.297775551445,225.37888480656562 462.22871027305945,225.93690812280215 461.7466019776634,227.11009509359073 459.71474833300744,230.2381914522275 459.19814288934015,231.15996093445798 458.2349910253863,231.83038390997336 457.6148941367035,231.97035999335162 457.8218770267345,232.66832390209535 458.4419739154173,233.478722960989 458.85508791406914,234.56808044166908 459.7157420780028,235.93646732590298 460.78341462278803,236.94203080737086 460.7952330903709,236.95388476574914 462.19417763376583,238.311375945729 462.4012315056398,238.86939926196553 462.4021897597136,240.07016265690393 462.7117413316078,241.27096154271342 463.5211466454305,242.45298574592235 463.52121762727353,242.45309221861123 463.5724309863621,242.5279070218179 464.4330496593742,243.282088505624 465.19017688737085,244.00865807440914 465.6289153109773,244.2985122004496 467.60157014545877,245.60085053215502 468.6347810328943,246.15880286662417 469.8394839169934,246.32642635594485 470.45958080567624,246.80161392706822 471.97489998840695,248.0585594061727 472.801021513047,248.30997689470558 474.0757479298071,248.36615897889686 477.1052860775087,247.8071774085361 477.8969459446981,247.77860723939094 478.15599397532867,247.8954787511992 478.156206920656,247.89558522388808 478.5170428333809,248.0585594061727 478.9300858502906,248.61757646742976 479.7227039716547,249.81833986234295 480.75591485898934,251.01810951226082 481.376011747773,251.63330865770916 482.6842415678091,252.13607265298236 482.9938286305239,252.2750549913653 482.8912954395823,252.63887213915183 482.5462529744215,253.6168591964699 482.16756514229877,254.37100518940488 482.16756514229877,255.79557415783006 481.3759052751094,256.6335851317446 481.06539544914136,257.24775504127615 481.01315285403507,257.4597066564099 480.92733587391075,257.8067366116369 480.82483817389056,259.2313765618547 480.51525111117576,259.79039362311175 480.1712023910103,260.06938753576924 479.3450808662694,260.40456353264324 478.3464026182284,260.4607811077056 478.15610044799234,260.4404448258195 478.15599397532867,260.4403383531306 477.0371435622755,260.3207695334311 475.8659440815532,259.985593536557 474.2826598379951,259.70656413300327 472.21630904496703,259.8179700472364 469.73687974430953,259.5103704745374 469.28930408820713,259.62277013379105 468.91075821956866,259.92937596149466 468.4286499242735,260.59976344608856 467.36097737938735,262.36050215638306 466.22423955611566,263.7288890406422 464.84701543943623,265.2096400932334 463.3326545107793,266.2990330648098 461.9553949032792,267.63977254312647 460.68066848661994,268.78534759886895 459.5440016449895,269.84613491040386 459.06189334969434,270.4612985649307 458.95836641375735,270.71172230846827 459.30344436994045,271.91248570338144 459.31242356592077,272.0288248517958 459.4069713057766,273.2532606725944 459.26894722156834,273.728448243743 458.85586871383805,274.426447643383 458.06325059247393,275.3482171256135 457.14343310938824,276.22267724701976 456.8585122174534,276.4937566904849 456.34290051878133,277.13653226005783 456.03239069281335,278.0583372331846 455.75730077836977,278.2821428066966 455.1027067414157,278.61731880354534 454.58610129764753,278.7849068019698 453.6219556886984,278.7849068019698 452.89833186407856,278.8400951411405 452.2791932294695,279.14769471386467 451.96864791258,279.62288228501325 451.72809063753095,280.51707534311913 451.4520779598342,281.6340447388201 451.0045023037318,282.5548204760552 450.7294123892882,284.0907953587388 450.38440541504895,284.7621410974569 449.3176911243375,285.7115579856298 448.73209138392593,286.10295155756614 448.5802613421442,286.30798244847756 448.3190128761956,286.6609038920101 448.2399391658121,287.13108724718484 448.2154859401577,287.2761030374332 448.2845157278235,288.9520540035202 448.3190128761956,289.7062354873263 448.1819825368818,290.20899948259944 447.9059343683644,290.62804046047825 447.1833042887399,290.96321645732706 446.52871025168497,291.10319254073056 445.59902630018644,291.21459845496366 445.0824563474406,291.57738636685855 444.53135375540114,292.6115555083679 444.1863112902404,293.95236596845194 443.94674776008577,295.6272876986221 443.70519673983966,296.0739051006255 443.1541296387217,296.7442925852194 442.87903972427813,297.30327415558014 442.9825666602151,298.2250436378359 443.0860935961521,299.3144011184907 443.2231239353651,300.6551760877037 443.27643125720886,301.6045574849803 443.2921182320085,301.88458063357984 443.4961908688965,302.74225356240146 443.5504209539934,302.9679756441619 443.87775346334155,304.3422895075975 444.08473635337253,304.9288829929792 444.04537695268743,305.3265584530298 444.01574205672915,305.6268823926192 443.6706995914675,306.07342881283006 443.1885912961723,306.43724596061656 442.43146406817567,306.8562159566776 441.32925888409676,307.1913919535516 440.812688931351,307.61043293140517 440.6401676987706,308.0845912666369 440.5031018685353,308.78358441129745 440.2615863393115,309.45397189589136 439.77947804391545,310.0129534662521 439.64248319552314,310.6547352908045 439.88300497985244,311.24132877621145 439.95302851241263,311.9117162608053 439.8149689372829,312.359291916933 439.43642306874534,312.97349731733556 439.40192592037323,313.44868488848414 439.60798604725187,314.0914604580571 440.1590531483698,314.5942244533555 441.63881045599095,315.59882968069917 441.60434879854034,315.96161759256887 441.4327858200338,316.32440550446375 440.84817982471844,316.7157990764001 440.09005885172644,317.0510105641452 439.64248319552314,317.5261626443975 439.43642306874534,318.1127561297792 439.36739328118045,318.69934961518607 439.47092021711745,319.17453718633465 440.19355029674193,320.06773649942 440.3897439552078,320.78050011068206 440.400604168616,320.821882492355 440.2970772325781,321.38089955361204 439.64248319552314,322.442645119246 439.1258777518558,323.140644518886 438.6437694565606,323.8672140876712 438.54031350236573,324.50998965724415 438.47227745989704,325.37557705530855 437.95567201612886,326.2421581983935 436.9570292589085,327.55333376254447 434.5465942547935,329.86915004491016 433.30636498650637,330.0396837874999 432.20419529334896,330.43107735943624 431.5840984045653,331.01763535392166 431.49817495177723,331.18032560906113 431.2745113418504,331.60422883930335 431.20551704520705,332.749803895071 431.1365227484628,334.84472485719374 431.1143054492497,334.9786319978355 430.7579413891046,337.13488122368335 430.55088751712975,337.5538512197695 430.000814161108,338.0290742817892 428.48549497837723,339.0346377632571 425.04192006866975,341.5209877882125 424.75699917683573,341.57422412826367 424.5943444125673,341.6047817874247 424.2502602014804,341.5209877882125 423.6646959519903,341.01818830204303 422.08137621761153,340.3478008174491 421.1517277570345,340.09641881978735 420.1530140179711,340.09641881978735 419.00452870895964,340.1432313081391 418.77483164711697,340.1526009039786 417.94867463155543,340.09641881978735 417.294045103579,339.9288308213629 416.5024207273111,339.67741333283004 415.8773551135508,339.3313771225983 415.0906639714389,338.8946616798536 413.98845878736,338.3376321086376 413.50638598288543,338.0300680268097 412.9898160301396,337.61106253985247 412.6802289673239,337.61106253985247 412.0601320786411,338.00245611178883 411.51005872251847,338.11386202602193 410.47684783518383,337.97385045174735 409.9257452430435,337.94623853670123 408.34146725449006,339.14803116753126 407.9284242376812,339.2870135059142 407.1012734771244,339.2318251667435 406.10259522898247,339.0642016774228 404.6908384730094,338.47661444702055 403.69315396986286,338.3376321086376 402.86600320940687,338.3376321086376 402.3494332565602,338.2252679402803 401.7037119428219,337.8328806233233 401.38525215668955,337.63867445487335 400.18054927269134,337.02446905444555 399.45688995715,336.9130986311087 398.63076843250997,336.9130986311087 398.1486601371139,337.1644806287453 396.735945127067,339.0642016774228 396.0823093440859,339.73462465291294 395.76093930481056,339.9593884805492 395.6012302847075,340.06980064978694 395.15365462860507,340.09737707391156 393.9824551478828,339.7622010770628 393.0872683446555,339.56700116359224 391.8470745672899,339.6784070778506 391.1579833818628,339.73462465291294 390.81389917077587,340.06980064978694 390.5733773865474,340.57256464506014 390.1593051337209,341.13058796129667 389.4366395631749,341.74575161584875 389.4287605848536,341.7499750321545 388.71305122947655,342.1361514427646 388.33450536093903,342.77892701233753 387.9213913622872,343.5892905803349 387.16426413429053,344.39968963922854 385.4774529547954,345.43282954482106 384.485695430901,345.80747141509426 383.4791027135163,346.18704651954863 382.37792676535423,346.41081660216435 381.31025422056894,346.38224643299395 380.20804903649,346.27084051876085 379.8640003163246,346.3270226029521 379.6244012952485,346.3980043896618 379.48541895686554,346.43842851718523 379.21032904242196,346.80121642908017 378.96881351309736,347.2202219160374 378.659261941304,347.8068154014191 378.2461834335737,348.058232889952 377.2820023337031,348.2543555666505 375.7322214935217,348.2257853975053 373.73490048815944,347.9467914848226 372.9077852185241,347.7515915713521 371.4624895683536,347.36023349033724 371.0149494030718,347.38780991446185 370.56730276522717,347.8068154014191 370.5466470652492,347.9753971448641 370.49830846848295,348.3657969717799 370.53284110777656,349.25995453898946 370.773362892005,349.9865595986709 370.8423926795699,350.82453508171443 370.60183540441994,351.5786810746494 370.2567929392592,352.3604744735016 369.49963022034103,353.2822439557321 368.9485631192231,353.7574315268807 367.984417510274,354.03646093045967 366.77868539035893,354.1202549296719 365.9180312264253,354.4840365865621 364.0242016660785,356.52181721039454 362.8884930787237,358.05875034717707 362.1993664023751,358.8405437460293 361.4767363227506,359.11953765871203 359.85302795166905,359.5935185394875 359.754434249888,359.6223371448815 359.3413912330792,359.84610722749716 359.09984021293394,360.2088951393921 358.74667033310214,360.7560582422457 358.72125885347486,360.7954886247738 358.3081803456437,361.159270281664 357.68808345696084,361.298252620047 357.3371495034694,361.34957245184967 356.5514166154313,361.4658761093677 355.9313197267485,362.02482218885734 355.41570802797565,362.5838392500892 355.07162381698953,363.81320830506905 354.8655636901109,364.1483843019179 354.1764725046838,364.79020161736656 353.72889684858137,365.48915927113086 353.452848680064,366.1871586707708 352.6266916646033,366.7461047502353 351.66251056473266,367.13749832217167 350.6293706591402,367.2213278122802 350.52978321236384,367.2114613439178 348.45949293017514,366.9975222387682 346.91067034416847,366.6061286668318 345.0858705713866,365.71197109962225 344.5347679793471,365.48915927113086 344.05265968395105,365.48915927113086 343.3980656468961,365.7405412687674 343.0194842875379,366.0757527565125 342.3648902503821,366.88615181540615 341.64126642576224,367.7517037225743 341.29721770559684,368.2821151237899 340.95313349450987,369.14866077597856 340.573593880977,369.95703685396006 340.12601822477365,370.1246603432807 339.2663223151156,370.2084543424929 338.0774128785807,370.1562117474623 337.3725282455894,370.1246603432807 336.4763476974677,370.2084543424929 335.7192204694711,370.5998479144293 335.27164481336865,371.1588294847901 334.9955966448513,371.7729993942964 334.9275606022817,372.66719245242746 335.06459094149466,373.3100035128967 335.65022617282773,375.2373364765951 336.0632691896365,376.4104879564874 336.1322989773023,376.9408993576777 336.0287720412644,377.5560630122298 335.8030144686833,378.32504419857946 335.68468783027834,378.7282562379978 335.8572090628587,379.76143163448666 335.8227474054081,380.68320111674234 335.47770494024735,382.08015817012136 335.40966889767776,382.6667516555283 335.44416604594903,383.42093313933435 335.27164481336865,383.7837210512293 334.8930634539096,384.0637441998036 334.2384694169555,384.3150907065439 332.20760951729494,384.8731140228056 331.4149559050093,385.2368956796959 330.2772953184845,386.13343113675535 330.2102530210111,386.1862770769725 329.38310226035344,386.68808281814665 328.694969329101,386.91185290073713 328.04037529204606,387.0518289841406 327.1107268314691,387.0232588149955 325.8014677755162,386.93942932488693 324.87281306003536,387.0518289841406 324.08115319284593,387.3032464726735 322.7374324794424,388.4202158683745 322.28985682333996,388.72781544109864 321.3947055111351,388.9230153545692 320.3960272629932,389.0344212688023 319.01880314631376,389.2858032664389 318.1916523857569,389.1743973522058 317.0904409466733,388.8954034395231 316.09179818935206,388.6992097810572 314.68004143347986,388.5878393576952 312.13158234515663,388.11261629567554 311.0984069486426,388.0288222964633 310.54730435660315,388.0573924656085 309.4115957692483,388.3364218691623 308.75795998626717,388.3088099541414 307.9653418649031,388.2250159549292 307.17368199771374,388.4477922925243 306.20953638886544,389.0344212688023 305.61800966920174,389.5874758599865 304.8232266034412,390.33179087545545 303.5230887071546,391.5493414629281 302.28282394794593,392.7501048578413 301.1136119572143,394.31468540056625 300.7015271944793,394.70128770188137 299.356848227002,395.9630244515819 298.42716427550346,396.54862419196826 297.5665101115698,396.82761810462574 296.60236450272157,396.883800188817 295.91320233545144,396.9114475947342 295.50015931864266,397.2466235916082 294.535978218772,398.61501047584215 293.95041396928195,399.2301741303942 292.95173572114004,399.8443440399257 291.7125001978482,400.2919196960282 290.6792893105136,400.3471435260952 289.81863514657994,400.37571369524034 289.0260170252158,400.3333375685721 288.23439264894796,400.2919196960282 287.5797631209715,400.4871196094987 287.09765482567633,400.90608960555966 286.68461180876665,401.66030658026204 286.40955738524457,403.1410221419822 286.1680418560208,405.4864023385388 285.7894604964609,406.0729958239205 285.0313040326483,406.9947653061762 284.86077029005855,407.46998836822104 284.89530292925133,407.91653478840664 285.1693281169574,408.36411044453433 285.7549633481896,409.2021214184489 285.7894604964609,409.8162913279804 285.68692730562003,411.0170902137899 285.7214244539922,411.4922777849385 286.226175939256,412.03841165190045 286.650079169473,412.4968475213858 287.02866052893205,413.0834410067927 287.13218746486905,413.94998665895616 286.99419887148144,414.6204096344715 286.65110840538983,415.2070031198532 285.9619462382206,415.7649554543224 284.89530292925133,417.1619125077014 284.65375190910606,417.35810616616726 283.82755940272386,417.4971239954465 283.0694739206534,417.86090565236196 282.7254252003871,418.2513054792778 281.6577171646804,419.5634747884241 281.1756443602058,419.8148922769822 280.17693062124323,419.87107436114826 280.04210071734826,419.907558999511 279.24731765148687,420.1224918496812 278.6616824202547,420.4576678465552 278.11160906413204,420.9604318418284 277.69853055630085,421.3794373287856 277.0783981766965,421.6022136663808 276.07975541947616,421.71461332563445 275.5286528274367,422.2173773209328 275.32159895556265,422.66399472293625 274.87402329946025,423.1667942091057 274.4264476433578,423.1667942091057 272.9456965907413,422.80400629721083 271.39591575056,422.524976893657 271.1257945611939,422.43823715027946 270.0876859305239,422.1050131525755 269.7771406136344,421.90981323910495 269.43309189346894,421.5746372422562 269.15704372505246,421.0156556718954 269.0021259755202,419.907558999511 268.9854807465459,419.7882386160603 268.3999164970558,418.97787504806297 267.36773484553714,418.0561055658073 266.3345239581016,417.44094191128045 265.3358457099597,416.8543484258735 264.40619724938267,416.1287726021089 263.7515677214062,415.6259731159394 260.5623205536015,414.81560954791684 259.9294114524414,414.51982844269986 259.5616903062896,414.32068904006866 259.1535450327153,414.0426533815102 258.3155695496718,413.37822836698916 257.62839487249323,412.94836266667414 256.9816798137596,412.7738894349237 256.0076322456779,412.8636104133377 255.34221348613627,413.2934051318853 254.8669904240662,413.7439620230242 254.20355915451523,413.95790112819896 253.32317205395765,413.9371744464788 252.62027491105795,414.00914997818387 252.08986350981712,414.3305555084311 251.979451340655,414.52674916689693 251.3475004934678,415.3095008198734 250.91767028399866,415.7393665201884 248.91144106439822,416.40279778971416 247.75110179708412,416.7892581274693 247.5056112876773,416.8878518291999 247.47899311762652,416.8987120425828 246.89339337721495,417.1313548485152 245.45406019721813,417.28222663617265 244.38042518225916,417.3038760811208 243.37585544588745,416.9903850201164 243.34923727583666,416.98247055089877 242.49057060199453,416.446203152274 241.55006192800937,415.8735930788716 241.5027170763393,415.844845455245 241.05120193097534,415.609221414251 240.58392882906958,415.4869552866602 239.39001517663652,415.1764099697959 239.1415789230644,415.04729409975016 238.89612390467997,414.91910099295757 238.59540956518092,414.3187370409491 238.12323872004072,413.50340474787424 237.50012510534953,413.03116292086577 236.94217277100645,412.6664230098513 236.29740971134197,412.5165449672143 235.91094937356158,412.58163526561856 235.48207741826712,412.816265561592 235.0098710822054,412.8813558600214 234.06442917406423,412.7965326248924 233.22744743601606,412.64573181902745 232.34706033545848,412.23854479955213 231.55146097910844,411.93786595102506 230.74801813525772,411.8944960793615 229.71679473791372,411.93786595102506 228.6648801496702,412.173489992019 227.54791075404486,412.7531627532036 226.90318318530188,412.96809560337374 226.19432357222848,412.9888222850939 224.47695473372363,412.7531627532036 223.51082163478384,412.4958537763905 221.3971614809064,412.2365928004074 220.1076708525998,412.15081131117927 219.8010295340503,412.0403991419415 219.33471468621838,411.87181739849655 218.47604801237625,411.63619335750263 217.2298917648369,411.5928234858138 215.7264975222518,411.5287269324302 214.9969822093013,411.44298093407315 214.72189229495862,411.75547825008226 214.53854633989158,411.9634903760301 213.82769923682753,412.1833564603814 212.87537209536038,412.6329196065249 212.80144456456102,412.8843016041615 212.85368715956645,413.3545559411289 212.8645118819522,413.44921015372404 212.97790528630208,415.7659491993177 212.91380873289316,416.8819248500234 212.6131298844165,417.5474145913323 212.09751818564362,418.1054024166726 211.9742938040042,418.2157081132467 211.08212372678528,419.01435968642573 210.71734832479882,419.61472363843416 210.68143154077674,419.907558999511 210.5674702821871,420.83720746008805 210.13767556374032,421.71759456069606 209.75117973503842,421.824067240748 207.2599674577196,421.824067240748 207.05191984085025,421.8841888140999 206.65853877882236,421.99658847335354 206.49098627131946,422.19278213184464 206.28985937869763,422.9508676139151 206.0108654660149,424.7106480700853 205.7979201059111,425.7497504457759 205.65986053068045,426.31856299360277 205.45184840473263,427.30641651928323 204.63459960351014,427.9768040038771 204.2047339031195,428.5988883826262 204.1613995223522,429.0277248470496 204.26883045652838,429.80061003166367 204.2264188390143,432.1095055898575 204.22251484067428,432.515663373416 204.13573960637524,434.0605109794161 203.96421211889106,435.04733526917977 203.38453935763079,435.6694551388252 202.54652838376666,435.8409826264102 201.8978258349415,435.9149456481815 201.21565537376193,435.99181892319666 200.5285161875049,435.8202914355864 199.7762867028436,435.49789216034384 199.0684208348664,434.89752820833536 198.44537820191738,434.4469713171713 197.97317186585565,434.1462924686694 197.37174318705928,433.80323749347406 197.24362106208451,433.7588383858937 196.18379200459816,433.389165240698 195.3458165215547,433.3033837514447 194.61530746360884,433.3033837514447 193.71323542715646,433.32510417818537 192.59626603153112,433.0253480929115 191.3688844665419,432.69808656525504 190.23118838909556,432.376681035033 189.6938917546296,432.18442686572786 189.39321290615294,431.84133639963625 188.40539487131832,431.3050335101404 187.11789173300238,430.876197045717 186.49477811831122,430.4256756454492 186.022607273171,430.0609002435384 185.1846317901275,428.9448891019617 184.74883911058552,428.6609619550978 183.8251176292607,428.6609619550978 182.7406578918151,428.6175920834342 182.39856117071878,428.49081861236726 182.1609851306557,428.40269472416037 181.25887760338264,427.73724047372247 180.6141500345388,427.07277996830516 180.01279233758547,426.57984695049805 179.1758105995373,426.36590784532325 178.53101204905215,426.40828397199147 177.97305971460824,426.60149639542095 177.41404265332594,426.88052579899994 177.0493027423619,427.2669861367551 175.79821326066656,429.15882820711124 174.94054033181976,430.0815914343623 174.59649161155346,430.2314694769992 174.21003127387394,430.10327637020663 173.75950987360616,429.6527549699389 173.00728038894488,429.3303911855926 172.2984207758715,429.26728837720424 171.84789937560373,429.3313849306131 171.54722052712705,429.5679672257061 171.07402044596913,430.16733743271925 170.40359747052938,431.3376141502388 170.04080955863446,431.7151662737558 169.80025228348453,432.21399077989355 169.47398450087388,432.8488873711452 168.95837280210102,433.4502450681742 168.563039741004,433.71646225922547 168.1706879149938,433.82588068344273 167.0319626017315,433.9116266817997 160.88021958359766,433.7825108117539 155.87600362030068,433.93334710851514 154.82412452307955,433.86928604602775 154.41697299450055,433.7194080033656 153.99892576159186,433.2609721339054 153.76528921058855,433.00369864796335 152.9460529193754,431.7743295929835 152.82282853753424,431.63282740119075 152.36634466719363,431.10883985167453 151.89417382205343,430.4444148371535 151.52840467507167,429.6508029708193 151.2493752715683,429.22093727047906 150.5198599586178,428.79210080605566 149.9185022615636,428.3415439148916 149.72525434726307,428.0408650663897 149.5527331146827,427.5696524752981 149.46006639205297,427.2166955408693 149.50638200790706,426.66264720468973 149.37921813700612,425.50028495638776 148.8576794591828,424.48882998661446 148.4771461005537,424.1704056914288 148.09068576287422,423.9347816504349 147.0378129205569,423.71984880026474 145.942492969804,423.57000624852407 144.77725595905366,423.4822727601512 144.047669664361,423.2673399099811 143.66028656342831,422.9459343797339 142.86465171615674,422.267703407715 141.8029061505228,421.4829642647226 140.56466437222628,420.7711589075596 138.84335604445988,419.955862105381 138.7842991978706,419.907558999511 138.50324681335422,419.67786193771883 138.15721060319814,419.15632325984507 138.1098657514272,418.9749293038976 138.028023751385,418.6623964970175 138.0556711572518,418.0748447575115 137.84073830715732,417.6597787597149 137.78746647623507,417.5661537830366 137.2758297575444,416.6611360024441 136.889369419764,415.65259128593976 136.2988364452973,414.9822038013459 135.6787395565136,414.2792711675247 135.9873328742331,413.6572222796719 136.2387148718697,413.03513790092273 136.50294457300598,412.7777934331881 136.71290869802294,412.0768837803043 137.61398698948,410.2096368990616 137.4789086493362,409.9395157097207 136.8903631648602,408.62535891053335 136.41712759278076,407.3871526231079 135.76352730072114,406.46438939585687 134.82003739174996,405.52980770109866 134.280788758114,404.9767176190433 132.67088634460595,403.6665357999129 131.7678205631582,402.7841967001853 131.49081414046614,402.3228150865598 131.35179631126258,401.7381736002977 131.21377222695344,401.3537007525584 130.92097235679807,399.59984727558987 130.8184746567779,399.13253868276263 130.4122813822727,397.98600537289593 129.80400296107186,396.9725274222104 129.49743262426452,396.7891459762471 128.69196679950164,396.3081024076894 128.02452505904787,396.03599372833264 127.85104557239369,396.0409269625139 127.55231872298614,396.04976419495944 127.15010042856312,396.0517516849753 126.8533255783256,396.08525508830166 125.86252630850502,396.23314564092277 125.09553261219642,396.432320534425 123.65421194210808,396.7477635945994 123.24706041352906,396.9315354403968 122.95525428836903,397.0632421456197 120.71443026359061,398.4611929440445 119.3618013360498,399.3385988095909 118.2133160270383,400.30671939854653 117.58331717902114,400.7118834371097 116.97503875782029,400.7118834371097 116.45648131498295,400.28400522681056 115.23992447248038,399.24887783117697 114.59324490466827,398.8910231534632 114.18108916019112,398.6632780908158 112.59390091829296,399.5850830639426 111.6247865843672,400.1026467617594 111.01650816306548,400.23768961098165 110.67838642215223,400.1479686325677 110.47527203943888,399.7881264648381 110.45358710364492,399.4273260429843 110.36290787110673,398.7747194959452 110.2051508500728,398.4828778798889 109.46182957964966,398.07867209545 108.80822928759004,397.7858722252442 107.99683648377672,397.51571554503226 107.23083653236257,397.3353508250016 106.32975824100637,397.3353508250016 105.51346769375682,397.40139937753014 104.791795868307,397.58179958845705 104.274232170465,397.829242096933 102.810268310408,398.8131206425565 102.64065733107145,398.8131206425565 102.33703273842944,398.63960566493034 101.84115397648225,398.0993987771701 101.45859763694101,397.4693999292034 100.84641521740015,396.4934003619012 100.41857249802251,396.02119402578904 99.58450101331904,395.2324799027398 98.77413744532167,394.6932667599749 98.07514430066112,393.99622561445915 97.6867319638116,393.64131668091073 97.25789549933776,393.24995859987064 97.11000494671667,393.22231119395343 95.97330261426565,393.76752229768744 94.68874522011502,394.0830008487329 93.69794595029445,394.21804369795524 93.67132778024366,394.2211314056553 92.52575272457686,394.3531220380486 91.3940191173042,394.48717114227554 90.31250512392305,394.32944961218834 89.23202036666048,394.037607996132 87.99278484326777,393.5644079149993 86.61850647085453,392.8891226871205 84.92874954719403,392.0353537565381 84.0878283199852,391.58483235627034 83.66687083393357,391.360033037763 82.75791356415519,390.7044452556875 82.41837218749109,390.33179087545545 82.08159910038478,389.96208223936344 81.15780663721692,388.99399714127884 80.37310298509568,388.01306433979545 80.28040077164533,387.7823735329827 80.12661873079443,387.6137562986415 79.70268000955507,387.1317189850884 79.1180740142397,386.28582903282734 77.59395308993447,385.2713573371465 77.3129716872611,385.0042528737383 77.156243902144,384.8543748311014 76.94723803130171,384.65619368259445 76.54700722686933,384.25596287821253 75.8430808480528,383.60825407448357 74.64820894134418,383.22079999170785 74.19570005108575,382.80182999564687 73.72743320418469,382.15607319101224 73.33997912140897,381.51131013142344 73.1428272088693,381.0499285177979 73.16156640049792,380.53531056412123 72.22496172485278,379.5829834227045 71.70839177200608,379.0348620657015 71.22337322346705,378.550801771211 70.34493812197861,378.1672871776212 69.46948425557703,377.87548105243593 68.83064817516471,377.65664420400145 68.3337756682222,377.33229292961414 67.65554469610242,376.66779693330045 65.64534049641982,375.4374696242216 65.47186100966475,375.3339071974135 65.33578892452563,375.6365735359565 65.31807896881385,375.67603940935567 65.29933977708437,375.7184155360239 65.04004331030582,376.474584509871 64.19418884894101,377.99572419913983 64.09559514715998,378.1165352001088 63.5237658734004,378.8169834713912 62.87509881549676,379.55143201849774 62.07555996998605,380.2642311206561 61.951341843250425,380.8330791593793 61.64966924967756,381.123891539544 61.35985061460905,381.4018917072062 61.25139044451606,381.50641238813853 60.33948743057233,382.1304132751109 59.38808305235836,382.78014505980246 58.13408331741921,383.6220245410851 57.270483409320235,384.29145377157994 56.36251988463805,384.94012082945835 56.1242340266491,385.0887211999297 55.843962441800706,385.2635138497215 55.1410298079795,385.9181078867764 54.3415264533903,386.76005834985165 53.3034178227203,387.7103980012525 52.43878867870449,388.12152450988845 51.83349149259049,388.2072705082455 50.77369792602567,388.2289554440898 49.974159080615834,388.16386514568563 49.10857168252621,388.01306433979545 48.07245054184686,387.6887130654333 47.164451526243155,387.6029315761801 46.06128808809044,387.62465200292075 45.49048805014682,387.88391297887864 44.40996780186187,388.3591005500272 43.58778576648339,388.9210278645281 43.112598195334826,389.4829551790542 42.78824692087181,390.217439217057 42.70640492082963,390.33179087545545 42.1395088813269,391.12444448766536 41.66336305600364,391.5128568245401 41.123120677372356,391.81552316308307 39.84051528229088,392.2482991166671 38.3923093789774,392.3991354134283 37.526721980887785,392.3350388600447 36.96475917544017,392.01072307655363 36.50241930769041,391.7258021846944 35.84086905556732,391.3196444011107 34.846165787507594,390.82277189414293 34.519827023053935,390.6836475921748 33.69430884357526,390.33179087545545 32.92177856794935,390.00254185778317 32.23069989253163,389.83002062517755 30.96484619908812,389.69494228505897 28.3917564308056,389.2414396497548 27.677963583677098,388.85302731285486 26.467369211247355,388.3778042508352 25.106896796205863,388.0327972765203 23.024752555714553,387.28748851603086 21.402996183802987,386.8566290706953 21.230439460301096,386.7048345198098 20.99289891105864,386.10049558774443 20.797663506767478,385.7544593775127 20.409251169817075,385.53856827321835 19.328766412453632,385.1935258080071 16.820731451653824,384.1347259865133 16.085289159552016,383.8103392212549 15.934452862765582,383.48698169188805 15.927532138518076,383.4080854359355 15.891082991076814,382.9684242490507 16.063604223758066,381.84556336504426 15.9561377986604,381.6936978323662 15.479956482415632,381.6936978323662 14.438902107681168,381.84357587502836 13.679787389693889,381.9520005542251 11.315703492354519,382.0604607243181 10.754734431902229,382.0870788943437 10.407704476649947,382.1028368509863 9.197110104321075,382.2980367644568 9.151717251720148,382.3098552319388 8.332480960305269,382.51396335962227 7.956845345112405,382.46168527372055 7.70546334747581,382.4271881253737 6.991705991167947,381.97368549006944 6.14879727396847,381.41175817554335 5.5611745526447365,381.0195838039642 5.436033662655932,380.93657060442 4.959887837433546,380.5264733316757 4.944094389869397,380.49847101682076 4.338761712833886,379.4232744026014 3.2523499763191337,377.1459302486144 2.3305804939625716,375.00267068972533 1.8475139444926807,373.8778578065741 1.167189009819466,372.434443173781 0,369.92878610283105 4.944094389869397,368.51170571291846 7.286493351313948,367.840324483304 6.477478437325271,365.8042474223423 6.107414892371224,364.77245617068286 5.196505623422826,362.5986034617365 4.944094389869397,362.09495219410644 4.504397712088273,361.2174398558964 4.3346447691665455,360.7560582422457 3.9247249509288795,359.64203459071 3.787659120693564,359.2713677004938 3.597427932401406,358.7547622568012 3.788688356711271,358.7153318742731 4.944094389869397,358.47417125391144 5.692348894549382,358.3180113231602 6.254311699896126,358.3180113231602 7.270699903850669,358.01534498461723 7.4422628823572365,357.81031409368063 7.212565820514589,357.20004818243865 7.0972204170956035,357.2167998841019 6.448517868371326,357.49781677769676 4.944094389869397,358.0242531988554 4.783391624770995,358.0804352830215 4.2470887351994975,358.22339260146134 4.1859734168774425,358.11592617638894 4.199743883529432,357.38935660760376 4.048943077664509,355.6828479823557 3.9838527792602845,354.9069815626801 3.7571014615829723,354.3381335239821 3.440664656463664,353.9043283344812 3.075889254477222,353.4064620824929 2.275356663971187,352.2835657075902 1.8435744554328921,351.48406235295056 1.7134648402657213,351.1172994609987 2.0663862838486735,350.8718444425638 4.944094389869397,349.31170026152245 6.816239014422232,348.296767184215 8.577971469712065,347.3424880436535 9.309474272653215,347.04081545013105 9.361716867658625,347.0200887684109 10.307194266721295,346.6296889414699 11.084977194595037,346.26196779541897 11.582878937454392,345.9169253302078 11.950564592684659,345.59253856492415 12.750103438195369,344.8373988269938 13.260781902711388,344.1768778107371 14.214138280095376,342.9100658632954 14.326502448427517,342.5245637796393 14.392551000905556,342.2997999520283 14.935774614724558,341.82365412675546 15.057011506373343,341.76449080752775 15.488829205833149,341.5544911915389 17.038610046014494,340.4582129866617 17.782925061432948,339.74445563037904 18.40795518437263,339.2958862292561 18.854537095479746,339.13223771999236 20.80653623008412,337.98471066510507 22.887296325746107,336.6910676022601 25.12261926202786,335.3001794916427 25.822606151683736,334.62784000790407 26.31255793447962,334.23055494766226 26.84690882478024,334.1014035867454 28.5721566417073,333.1273915094843 29.83208335589863,332.3011990030517 30.397985650506904,332.1109678146587 31.72985240540607,331.51156211674925 32.446094124303116,331.18032560906113 32.742336611121466,331.0432597789267 33.44424000902584,330.80373173966836 34.51095429973729,330.44090833687716 34.519827023053935,330.4384594652347 35.11039548844213,330.27232659343224 35.83696505732817,330.1313567650334 36.666032326032635,329.7853205548017 37.62233444758196,329.3544966003624 39.327849327784214,328.77383009415723 40.284151449333535,328.45540579897164 40.92199378464965,328.38044903220504 41.14679310315695,328.44653307562976 41.347884504958145,328.50665464898174 41.52828471585985,328.55989098900767 41.812211862698554,328.64372047911615 42.324877817306096,328.8369329025456 44.342960995310015,329.59899336469823 46.22199085308797,330.28119931677406 47.34289973797485,330.7790655687876 47.611068928170916,330.8165084612746 48.27059619948272,330.90622943968856 48.39282683612683,330.7701928454457 48.75462100302642,329.93022987238635 49.19726342497288,329.30129575120753 49.37375963763544,329.0498782626746 49.61431691278538,328.86255732755063 50.048086611415194,328.5253938406608 51.19167417719221,328.13201277870854 51.86703038678793,328.0009094186469 52.811443059012255,327.4478548274879 52.830182250741736,327.4370301050012 53.04806084500154,326.9677340221581 53.08944322669965,326.88787951210657 53.292557609413,326.4994316843103 53.82492100972297,326.1800136441042 54.13543083569097,325.993721944897 54.829526237016175,325.4504983311789 55.24849623307717,325.0630442484032 55.41015725235025,324.9132016966625 55.78181788756182,324.57011123059607 55.935635419334226,324.42718940305247 56.35268890724759,323.8169589826816 56.82588898830464,323.1258803072387 57.02701588092647,322.6151663518516 57.19850787769089,322.17845090910686 57.459756343639455,321.5159424028091 57.626386087990035,321.09299742669117 57.7900345971529,320.38910653877093 57.80284680973108,320.33193070955906 58.257343189980155,319.72560428747784 58.62900382529259,319.33126497137613 59.04208233312378,319.0256883795893 59.33981543743512,318.94778586868256 60.24976645220883,318.8393256985644 60.3897425355871,318.794003827756 60.98517325338913,318.60174965845084 61.331244954567595,318.22221004489273 61.48896648457915,318.0496888122871 61.52250537877659,318.0122104289038 62.13273579914745,317.43842915602465 62.59017792366273,316.9957867340782 62.78243209296792,316.80942405307843 63.37988579168211,316.317520271163 64.09264940299465,315.7319205307766 64.09559514715998,315.7299330407608 64.61315884490112,315.3809510863889 65.53886781641835,314.3645273915381 66.83822491303691,313.1262856132416 68.17800613717891,311.9215827291677 69.17175115116483,311.56961953975946 69.77413808413587,311.26993443625287 69.81356846666398,311.0964194586267 69.73275570243776,310.8874135876584 69.53752029804572,310.38660159150476 68.74291468679186,309.45595938593243 68.29927851985008,308.9669658572608 67.62693903606097,308.3557416918694 67.21290227415597,307.87164590650787 66.85401836060106,307.45267591042165 66.47941198122416,307.0139374867648 66.12744879171503,306.7004464257604 65.8710980691018,306.4717431089635 65.5743587097858,306.2085426438197 65.08043194680687,305.85757319943195 64.55108527250526,305.4809793300392 64.09559514715998,305.24436154402474 64.01968012626911,305.2048956706003 63.56717123601068,305.06786533136216 62.83861417713399,304.96930712050266 62.16528094845043,304.6706157620166 61.591499675520836,304.6429683560994 61.42192418710579,304.6350893777781 61.18534189193715,304.75934299541 61.086712699335486,304.81158559044064 60.710154320788575,305.6042037117543 60.33061470725569,306.1828827279436 59.76471241264742,306.6255251498648 59.351633904816225,307.0395974026661 58.48604650682748,307.4132455279188 56.81304128490583,307.9239239924096 55.86266614260868,308.09548697089093 55.14401104306634,308.2788329259832 54.404593770882364,308.26009373427894 53.26299369519687,308.27979118010745 51.94390366185349,308.3784203727343 51.43915217648878,308.5232941994227 50.475964821714335,308.9058505389135 49.64980780615282,309.3021773450059 48.88774734400021,309.9567713820608 48.25877773200074,310.6449043133636 47.551905609018874,311.7983583474274 47.32909378050222,312.16111076842606 46.97517859192394,312.67182472381313 46.73856080593466,313.1834614424534 46.61633016918968,313.4624553551109 46.60053672162553,313.49794624847834 46.06916706631089,313.51767918517794 46.027784684713644,313.5166854401574 45.729057835306115,313.50880646183606 45.090221754893804,312.7073156171806 45.04585813820972,312.65209178711353 44.39616184438924,312.3375714901923 43.542392913882466,312.34747344942576 43.34428274706725,312.24100076937384 43.25257427871309,311.9659463458518 43.313725087956655,311.61004366728287 43.471411127147576,310.95051639604674 43.53057444629962,310.7060196317109 43.51974972391383,310.19434742219954 43.51087700049632,309.76256521363604 43.29005266207119,309.53875964012406 42.79708415336782,309.67678372438274 42.16712079627215,309.71621410691085 41.51845373846939,309.59888121347603 40.67160553200838,309.4224204917098 39.24306158357669,309.29128164075183 39.02915796929819,309.3070750882908 39.01929150098622,308.53713564781685 39.03409120355505,308.4710516043921 39.117849711845736,308.0845912666369 39.11195822351507,308.02152394914486 39.085375544385776,307.74547578062743 39.03703694761951,307.2288703369349 38.85958248088315,306.09117425951376 38.85958248088315,306.08826400624474 38.839885035079845,305.5381551592258 39.11593320359724,305.32222856406037 39.76463575232151,305.2630652448327 40.21810289675463,305.16450703397317 40.527654468547944,304.69819218616647 40.375824426867055,304.1540103183241 39.72612813304658,303.05279887929095 39.49252707296478,302.5884715215001 39.166188308612,301.94172097187015 39.155328095203835,301.9259630152275 38.923395107121706,301.6045574849803 38.85862422680933,301.51483650659156 38.170491295456074,300.55956362100954 37.51486802248429,299.65060635125633 36.51718351933773,298.1876007453236 36.192832244975584,297.64533538575495 35.99074709827994,297.30625539061657 35.78862646056191,296.9680981587314 35.32724484688597,295.91714182466256 35.28976646352787,295.8934693988023 35.12913468017162,295.7949111879428 34.81756012736527,295.6194442111971 34.519827023053935,295.4524240670629 34.042651961914714,295.18464527667567 33.858312261751486,294.99835357744325 33.70059073173993,294.6375176646932 34.519827023053935,294.27380698959547 35.82610484392001,293.694027755722 35.90691760804536,293.60430677730807 35.14290514682361,292.4124161057367 35.066990125932726,292.3256763623844 34.805741659984164,292.024962022961 34.519827023053935,291.6207917294184 34.43901425892858,291.5064045801489 34.07225136695149,290.7423566279804 33.343729798996314,289.42035634134277 32.9099601003665,288.7874472401322 32.84880929112293,288.63558170745415 32.83404507957649,288.3299696247711 32.28095499744552,287.1597638890189 31.999973594772147,286.06841891832295 31.645064661198546,285.32115815871396 31.27634977015232,284.4743099523286 31.154154624328847,284.1923702955057 30.85837351908665,283.51211634254946 30.818943136558545,283.2370264281563 31.034834240827692,282.9817049413339 31.656918619602035,282.1989532883826 32.34011831669844,281.3382636336031 33.185972778063245,280.5713054281656 33.539887966540654,280.0211965811467 33.55962090336634,279.4316218607034 33.422555073131015,278.88151301368447 32.74134286602527,277.8385066397296 32.472215421755386,277.3021682593374 32.09757355155784,276.55093251967145 32.007852573093466,276.0501205235179 32.0620826581904,275.5680477190685 32.36574274175391,274.584169173445 32.457415719186564,273.98575722055614 32.49489410264553,273.7383147120802 32.673342314377216,272.6834188888507 32.67628805854255,272.6676609322081 32.7630632928416,272.20134608440134 33.075454136136585,272.0288248517958 33.44328175485115,271.82571046913284 34.30099017461945,271.36042485721777 34.519827023053935,271.1899620964458 36.37521994586793,269.74459546450794 36.67692803036231,269.4833469985089 37.59571627753116,268.6887413871542 37.984128614481556,268.24013649513495 38.11626121035915,268.0873481992289 39.011412522664905,267.0147779111083 39.648296603907205,266.1955061288728 39.87405417658919,265.88890030116914 40.870744934740436,264.5323673753135 41.26707174083279,263.9940769957766 41.71663488692589,263.05356832184185 42.07448956466482,262.38712032640865 42.192780712249146,261.93365318200074 42.307132370571935,261.49686675746347 42.325871562301415,261.453532376671 42.60089049490197,260.82062327546043 42.79516764511932,260.3720538743122 42.83750828089125,260.27342468168536 42.90355683347016,260.1216301307999 43.27028423452574,259.63363034714877 43.53057444629962,259.11507290433667 43.68634397724204,258.86862414085607 44.17335001597346,258.50924335472786 45.34948273085172,257.6274011275231 45.80497285619699,257.15615304553523 46.06522757715023,256.8633886662257 46.21113063978068,256.6109774326975 46.374779149044414,256.3270502858336 46.553227360876974,255.523571951137 46.78196616854494,254.97051735997798 46.83026927438969,254.48251757632687 46.78196616854494,253.97872434513687 46.53743391331283,252.87360890781412 46.45562740409128,251.80100312879722 46.58577251007909,251.32971955593823 46.81447582682554,250.88217939070688 47.2374208029687,250.57259232796682 47.493736034761284,250.41093130871894 47.855530201660876,250.18318624604632 48.06847556176469,250.08853203347638 48.496353772063834,249.90025284422816 48.84728772565614,249.74547705830628 49.39941955351155,249.1441193612773 49.75823248532431,248.75371953436147 50.01848720637841,248.52593898079252 50.20091039819227,247.923587538743 50.36356516246069,247.1842057574553 50.73327379850224,246.13523691342758 50.851600437008074,245.98933385084754 51.176909965444025,245.58810930144506 51.48741979141202,245.1454668794986 51.774363664259084,245.03700670940563 52.26332170205965,244.90391585932812 53.07567276004766,244.78562471176903 53.91858147724714,244.5786063308165 54.56923602514143,244.28282522559954 54.644157301036984,244.12116420635166 54.616580876912366,242.85630425802958 54.64610930010612,242.5013953244812 54.67876092197189,242.45309221861123 54.986254022032405,241.9985958382865 55.34116295560601,241.70384396896114 55.99281124849562,241.18624478027326 56.30339205630664,241.09751754687986 56.8061560516807,241.09751754687986 58.10746514736841,241.26020780201935 58.34408293335769,241.21580869443898 58.74335548361538,240.68344529407855 58.97997326970553,240.3591295105875 59.157427736441896,239.81193091683764 59.20179135322686,239.50142109086963 59.10614339561117,238.78666998956643 58.83307646207976,238.34303382259944 58.849828163717724,237.5750818721666 58.9523613546594,236.84159157918435Z"/></svg>