<svg xmlns="http://www.w3.org/2000/svg" width="500" height="500" viewBox="0 0 500 500"><path d="M0.2582564480622479,219.9538320185252 0.5478779983515316,219.69388505483604 1.1018237402610314,219.19663196158257 1.684628998824379,218.34132162336104 2.7529443046613844,216.72793578262355 3.3818463014634914,215.36613489082768 3.654411756727264,214.21395793537206 5.984727157411462,212.62909954565066 6.123077747904937,212.29117754916987 7.515066418562449,210.61744633849042 7.30293689654176,210.5017063943833 7.2794508045820825,210.48911809059 6.59433916358267,210.11599714399395 6.457679088758985,210.0413427668934 6.130624692598898,209.8635971249988 6.294121702833243,209.65475807090928 6.590988320131687,209.276565577454 7.064755321382607,208.19569215564798 7.173763390806436,207.94830330794932 7.9443970094416,206.19074063541117 8.092830318005023,205.85278845117048 8.184208724579145,205.64397958484088 8.25382174266618,205.4861880647883 8.312536972522473,205.3529995844981 8.60351697282235,204.68886844973503 9.412700384916512,202.80216245926437 9.694473112741237,202.25289582305655 10.067594059337283,201.52419302934865 10.377048980364663,200.65716983292864 10.48605704987429,200.35275627100057 10.924594913228594,199.22071456403222 11.55603268340669,197.59308009167734 12.150550800189976,196.06105031494235 12.507792975125904,195.44220084847174 12.838198214651175,194.8694783080856 12.985242885401206,194.53741274071479 13.187017999298348,194.08206028449996 13.30861437253691,193.668668840908 13.398332451244041,193.15629167044233 13.367299414590404,192.66996655313656 13.53251712821154,191.0347851360663 13.583625037854071,190.53333594154836 13.894770474465442,186.16199462487438 14.07671221762449,184.181314078848 14.125374917127834,183.65218269112742 14.293068028690955,183.64635644979882 14.44901809414554,183.64131509074238 14.631835282899383,183.63458321605907 14.73332659543205,183.631262560368 14.782774177207592,183.06940762038835 15.088002809103395,179.62295947217723 15.22804391526666,177.62135879539142 15.303513362377865,176.53544401452896 15.320267579632779,175.71279685302525 15.414211947471486,174.95390628045573 15.499733924935638,174.25874210906048 15.51232222875037,173.3078572630004 15.645661647925873,170.50709551667057 15.761341216448868,169.5997716354947 15.72463287741626,169.38094042659353 15.237281375544613,166.47871755553382 14.910257167273125,165.84643452747792 14.502691965052659,164.64731557590574 13.930814682437052,164.1676619577206 13.807557981331499,164.06454050516666 13.79412441972477,164.05364271700026 13.386589405221304,163.7123396893086 13.004200810544505,163.39114172232283 12.948866611941995,163.34507517180106 12.373608298072607,162.86285559241568 12.028984614754211,162.57359629543825 11.42604410768217,161.345104635058 10.89691272002594,160.26839712675647 10.724208437144846,159.8818426185537 10.01059953295358,158.2869316984579 9.837834874552685,157.90119226028722 9.763210685233476,157.7326237031722 8.537254798272096,154.99142244451212 8.436638931334222,154.61658079450783 8.25382174266618,153.98867499438302 7.765806109647736,152.31222688361805 7.556151985569033,150.78357813809396 7.533511151401353,146.30485889206034 7.747029311235434,144.2244379246909 8.120512511207679,140.5859653152079 8.25382174266618,139.747680884252 8.435793673542227,138.60616021475485 9.04290009396865,137.21586205972423 9.182941200131914,136.89469428051981 9.546885061969808,135.9043540074959 9.15864003818304,135.67544008046042 8.720071987025937,135.41715344459536 8.643757282036939,135.27122572162656 8.62446729132024,134.4670836685674 8.588392895631628,133.9874602381636 8.564091733682755,133.66040584208932 8.545647000758052,133.4172130956551 8.479384826207799,132.5367563376498 9.030341978042514,131.43490240954307 9.39008973855163,130.52169191149736 9.565329794894511,130.07560710340618 9.790047620558337,129.50539014865757 10.034085624827458,128.8840350965494 10.153146224690033,128.58300256583223 10.302424791045453,128.20311955677153 10.242049233407968,127.6069109244257 10.15565181034902,126.74486871154232 9.9879586987859,125.08122021899719 10.051654912157366,124.37428281384074 10.680587096762272,122.71984159385654 10.376203722572667,122.37099162142802 10.108709814232467,122.06407247384098 10.153146224690033,121.46200741242808 10.287300713854732,120.95720737445917 10.42317590649202,120.3316562210866 10.698548825185378,119.06796561056962 11.082235494438768,117.30702190677769 11.477242580647301,115.49240433220734 11.833609309988436,113.51761040305084 12.302365140007181,111.7096643276011 12.4516135186456,111.23339174064829 12.613450201098752,110.71935424235853 12.718262169279603,107.41044161458736 13.57610828096291,105.81299492107267 14.101013379573363,104.93839459217736 14.292222770813162,104.48895894063521 14.587398872441815,104.18958673776358 15.907268939439104,104.17784369178374 18.716422888297792,104.50405283006603 20.901686011586552,105.26457354267829 21.4458811009995,105.4364929432443 21.833311054711274,105.44908124701614 22.724665600904405,105.47842376806433 23.730914833434134,103.67639449726582 25.705738950371995,100.24504023848553 26.607176214635075,99.6790193850228 30.768048337133887,98.44382603771912 31.1093513648899,98.4379696086306 31.660248141119016,98.4270718204642 31.910987832204302,98.42287571919978 32.91808232252603,99.05431348946367 33.23843503169835,99.25557541105641 33.382642051301794,99.34695381765198 33.41032424450445,99.36425141492829 33.543633475962956,99.44759987232831 33.68536509762441,99.53647269328634 34.45264787272279,100.01863189710902 35.936014949954426,100.64252272263604 36.2085502174154,101.90032671628316 37.511666067157776,101.71083802843016 37.72883694821344,101.67980499177652 39.81517472023411,101.37623668764046 43.560089437940704,100.89238696819089 44.230982635146994,100.53602023884976 44.356744921911535,100.0127452802177 45.09048907461149,99.86600248721682 45.2791626924753,99.40482378969483 45.7193608836108,99.09038788517373 46.1386691319398,99.02747655405301 46.139484201929,98.97546301109868 46.14706133442576,98.57215428561955 46.15122724786594,98.29961901815857 46.15626860698671,98.03882679665598 46.159619450437695,97.83336877377737 45.50973694733489,96.40950180867422 45.30596944008316,96.13865705679723 45.132419899410074,95.9063620985294 44.96050049888697,95.6783236170887 44.81792361934772,95.48795948364089 44.720658595946624,95.18858728076926 44.764279936329196,95.07287752444347 44.917724416210596,94.66950842342308 45.29483014968742,93.9114932964269 45.46780612253632,93.56348858183327 45.74287716337327,92.92954522593183 45.82335778180245,92.74337719374846 45.71519497017062,92.54296052994772 45.282483348123485,91.7429843903716 44.942870836037265,91.31869515861322 45.005782167222335,91.18197470818394 45.15337021799376,91.03526210296441 45.42506022766274,90.98327874779143 45.844308100300346,91.02520957261146 46.25942024730057,91.01847769792815 47.16586868296742,91.00422906631077 47.81575118607022,91.25581401527386 50.45132540645302,91.58787958264466 52.594657704943195,91.8008543624359 53.84826559739023,91.77990404391656 54.05118784684997,91.77063639581436 54.133389168665936,91.69770272210059 54.07887004005262,91.60544886993168 53.71411110813973,91.01932295574159 53.7979425701057,90.64282097789176 54.050372776860776,90.22354291740845 54.70025527987777,89.9300271436468 55.07757232780259,89.78328435064591 55.76938565578977,89.51077927094484 56.3563870155961,88.92546842678685 56.7756650760365,88.8416369649067 57.34165574165354,89.00845463085358 58.566796558625725,88.97727065529318 59.81454802196279,88.9456036752741 60.289190468808506,88.7258970207781 60.67405446142729,88.54727593331013 60.71601547402867,88.04498148100022 60.47200765756235,87.14943083358555 60.43004664496097,86.54147915528134 60.828374386903484,85.57797581764663 60.83087997247667,85.5737797163822 61.100064396572456,85.08072272439314 61.18893721748759,84.91804078416943 61.383497452178375,84.56079860923352 62.0862085683105,83.2736520945382 62.42159479135094,83.08497847671728 63.26353194357133,81.57474427629364 63.448824530095564,81.24183345113084 64.53809015443046,81.68124676010139 65.91755089687884,79.3701911622882 67.07555409362017,77.4289660432042 67.50488468449932,76.88975193734933 72.53619122241038,78.73374222074922 73.5424404549401,76.9526632684915 78.67855896103201,79.09013913789316 80.65250763237508,75.22942410049528 80.77745484906463,74.98460121399685 81.2201888136619,74.12086848548658 81.57157455948786,73.43409651659873 81.02650402456592,72.74228318865444 81.19419713612903,69.13988497490296 81.21049853668515,68.75499079454572 81.22356984491569,68.44052470224327 80.96193236559965,68.43300794530921 80.12591201809484,68.41033692338164 79.64791872771234,68.39777880736969 76.63164642815093,68.31473222776172 76.6182732421498,66.972251514421 76.61069610965303,66.19911231025556 77.03081942797124,66.2200626287749 77.1146508897656,65.50729898228983 77.09370057126772,64.9211428803184 78.09997999151445,63.434394771854436 79.65129975896612,63.58113756485532 80.15776012473766,63.02519942952688 80.2835525992192,62.627716945376356 80.16781265509061,62.12122639180201 80.05294815655681,61.621467712889526 79.04666873631008,61.26591605358049 79.73848206429726,59.338094308300434 80.28270734142721,58.08192045471751 81.16654513064339,56.83836509268777 82.06544662153048,56.10631145552891 83.723268872747,55.0383584030681 84.04277632412732,54.83256831463753 84.93328561244266,54.25900051645938 85.60499387972395,53.87410633608069 86.02843785369032,53.3483257918111 86.30012786335931,53.152950487088226 87.03387201605926,53.173930993388915 87.3516889519414,52.98356685994111 88.06780344179165,52.67498738452998 88.58184094014575,52.877909633968265 89.05307216802069,53.063232408338195 89.49082514910279,53.321488856421894 89.33484489575962,52.61376656901469 89.1671517842823,51.849834637388746 89.11094213999918,51.5907329314916 89.04301963758193,51.28381378390456 89.00782068748812,50.48552815993389 91.90080609822698,49.24951974261956 92.6596966707536,48.67845753007895 93.57960885574418,48.125840050420145 94.9338326150433,47.213474810166424 96.13968344129879,46.20641050766895 96.55896150182498,45.57750851084539 96.58326266377385,44.60561297070328 97.17026402358019,43.76705684973667 97.37152594517293,43.598518480403 97.70691216812757,43.31762119819452 98.17316241248733,43.299991535344816 98.3123582608586,43.294950176266944 98.87671878649725,43.273999857747604 99.64481663158483,43.24462714893951 99.74881352977648,41.50550920926171 100.83892441181757,40.64684802758921 101.34206412194094,40.45814422198695 102.97721535127278,40.45814422198695 103.12395814425221,41.23297394177929 104.6517918197442,41.02250474762559 104.94778299136206,40.98138899283766 105.27903348876512,42.598970934839585 105.3801625479216,43.598518480403 105.51383403267049,44.919203617410936 105.47941996476307,45.028241874616114 105.44253049899946,45.14398181874471 105.38804155818895,45.31753135935345 103.85770229703796,46.4923491489553 103.18683928763448,46.4923491489553 103.04009649456924,46.71537645909948 102.90425148973476,46.92252499758355 101.95083087032015,49.42306928324975 101.97851306352281,49.68974812162221 102.01371201361663,50.03102096155397 102.62166369192084,50.21969457937488 101.69423475012489,52.84102016820466 100.9487475513164,54.94996858659022 100.9487475513164,56.08116503574514 100.00537946216893,58.78297124300409 101.11650103839932,59.068064626476996 101.57514396254531,59.38419104662499 103.65810070331221,60.81895579989453 104.63923370373227,61.21224218278062 105.44841711582643,61.209736597143085 107.66051717461166,61.203880168033116 107.92381498170887,61.26591605358049 108.70869723185416,61.45123882795042 108.87977137467107,61.49175082717571 109.2931628182845,61.58958941842245 113.18488070457613,61.7229288376194 113.56974469710912,61.736332211423324 113.25530879256655,60.79296412229732 114.47118196145799,61.04451888347905 118.28326448702663,61.7229288376194 118.7646086208601,60.50787073882441 122.07768716211436,61.093181582982396 122.48437691882583,61.047054656897934 123.58958169034064,60.9212621824164 124.23445302221127,60.848298320942725 126.60416347431806,60.008081872152026 127.24064260361692,59.746444392836 132.0161680914077,57.785084025264766 132.51179104455412,57.51928063246566 132.79434865456525,57.367496480408356 133.00231226314574,57.25595263754419 133.42074506579416,57.03123481177312 133.5657973431038,56.975900613127706 133.73687148592072,56.91048369636945 133.89369699705588,56.850108138667615 134.03624368879235,56.795679573398345 134.7926286757458,56.50714478313041 135.86426463714517,55.97297203633195 137.16402964343655,53.731559644344244 137.8835251646264,53.88249853860955 139.70653494174704,54.469469710613076 140.01592948716882,54.56924031971606 140.2868044267628,54.16593159425837 140.71864060321514,53.52190552022264 142.13746620928333,50.80165458008189 142.71942621005468,49.96056268569639 145.07491821828253,50.80835626698385 147.55955354444293,51.70224658657442 148.6530152701066,52.09637822727395 152.5866639811968,53.47746910974362 153.53000188254146,52.84853692513872 154.0599785279897,52.91060299846744 154.77355724454975,52.99364957809686 154.90689666372526,53.009558537538325 155.07712554866436,53.02966359826567 155.14420279328962,53.037240730740976 155.63813523085201,52.892158265585635 155.85699662757747,52.827616794400726 156.443967799581,52.492170195797584 157.2825239204618,52.513120514316924 158.01708314332257,52.93242876258158 159.1927160029136,52.96325048478722 159.2950223854355,52.9659371970914 159.497974822698,52.97097855616928 159.96754572270595,52.98356685994111 161.99936436611333,53.03639547294898 162.2492587994924,53.12526829388557 162.8253321832652,53.3290358011373 164.27096453694122,54.12484602723033 165.77283672261737,54.38391754534613 166.09484975965668,54.43928193175144 166.24660372386828,55.24010332914099 166.24910930961306,55.251846375120834 166.32542401451627,55.65434003054642 166.61474368703495,55.61660530699082 166.9434282231734,55.57470466993069 167.32162071660724,55.5251967126139 168.10734822463033,55.42376577568683 168.24403848725683,55.30968615940378 168.28261846860443,55.277838052696595 169.0305810651833,54.65313215713747 169.28551685759737,54.43928193175144 169.63687241570634,54.14579634574967 170.10562824572506,53.88249853860955 170.3697713107001,53.75921164976555 170.66241163886696,53.683742202654344 171.88082058113437,53.70553777896568 173.4019223819216,54.019188801257485 174.78304345215116,52.24816237933126 175.43039018187798,51.41715320310151 175.91674548694363,50.79326237755303 176.47020822443733,50.68005820686477 176.73432110160957,50.625569266032805 177.30121740071,49.870844606946356 178.5799717128121,48.69771733299285 179.10409192923615,48.50907390293184 179.28102250116302,48.48220677976128 180.2596197282071,48.331298073277324 182.6670649038695,48.32037009732958 184.3492185048377,48.557857353560586 184.44901930170056,48.57192485851131 190.436252044771,49.633538477403455 192.34396872936662,49.86417310782574 192.60304024741805,49.833985328985555 192.91835159755541,49.79791093325404 194.5241603057318,49.612618346665464 195.3836969330849,49.43900843047257 197.15888926840842,49.08179644331799 197.33331425467628,49.046567305399925 199.04478018891135,48.98199564643367 199.43722131394108,49.0130286830873 200.06195739730302,49.06335171043619 200.67156940347422,49.111984222179636 200.93824824182522,49.132934540698976 203.4454942143505,49.33335120449972 204.14316397144765,49.394572020015005 207.0529337872442,49.65201339806661 209.50569081887315,49.84554724827729 210.50608362229292,49.92454866552758 210.48425785820024,50.116542939039576 210.04487473696813,54.03090165943453 209.50569081887315,54.495310449303545 208.97486891554715,54.9524741722492 209.09060885976152,55.19732724650752 209.230649965839,55.49500893377371 209.34635972216478,55.73904693799993 206.07518181799213,58.06350590961706 202.6807472127139,60.47433211651179 205.99216542610117,61.144319680363374 205.9837732236152,61.240739446015375 205.92928428280467,61.878063833149135 205.4664150696129,62.796255314710024 205.52929621299518,64.99492181184561 205.21483012064982,66.50346549664236 205.86471262383841,66.67118879594393 205.73892014927108,67.76048460803874 205.24142555389548,68.75499079454572 204.94232504099165,69.35288994247554 204.96327535957533,70.04385801262782 204.98172009241424,70.39101746942946 205.0471370091725,71.63876893272362 204.8794137098924,72.59976668469935 204.71172059832926,72.94858646932506 204.381315358804,73.35446115598299 203.26687312692542,74.53595044470545 203.06899223658647,74.78080351896378 202.8702660883697,75.16823347276134 202.69079974306683,75.99836720341774 202.34194977070266,76.91157770146347 201.4405426941566,78.3563949851074 201.4195621878559,78.69096613811574 201.88913308786383,78.95009803179424 203.1545142140506,79.64776778884848 203.24338703496574,79.69721537060258 205.00433073877912,79.92697455545152 205.55190685936006,79.97729758277896 208.07596742474584,80.20871709547345 208.236989037124,80.22381098490428 208.76023380795326,80.27162842659418 209.11243462385423,80.30432179109334 209.50569081887315,80.31171779690202 210.80458037965556,80.33620008556044 211.28338874002725,80.34540735809993 211.3119463788247,80.31440450922764 212.0590939054144,79.50688142493613 213.37977904240086,78.89977500444536 213.80998507878903,79.2544814059624 214.51348107719332,79.43977399255098 215.16170325242913,79.44397009381541 216.63589324490263,78.52242776878208 217.12813516688104,77.96310860222131 217.33187248632998,77.75934109496957 217.5725294593453,77.53794392486813 219.42322142966862,77.55892443116882 220.039535122656,77.35265133827956 220.33972239560262,77.28638916368641 220.68105561107564,77.32161830160447 220.842862105726,77.37025081334791 221.33259844204542,78.69516223938018 221.38373653940496,78.7664355852484 221.46509260342893,78.79662336411005 221.57745151630374,78.7664355852484 221.70994567768724,78.65489174240568 222.3313007297954,77.81047919235056 222.83444043991875,76.55267519870344 223.86082492095719,74.94013461575794 224.48051964519834,74.79085604933817 225.46578837134157,75.39799265761029 225.67544249550608,75.00051017345977 226.10057698505645,74.52254707090152 226.5148438742647,74.05714208433376 227.1227955525689,73.86846846651285 228.00910873964128,73.7938140894123 230.6153404390402,72.3783695145979 232.31421806946054,73.05843979656234 233.76241638440115,73.76700734178299 234.66216313308024,74.07477174718346 236.15060175714964,74.58373769863546 236.38875314450598,74.66509376263798 236.99836515059138,74.75061574012358 237.73044897559595,74.85376738045889 237.95012544231062,74.77576215990734 238.6409425734918,74.22712946704353 238.76015411228258,74.12757017238854 239.12578848970446,73.8215264703963 239.5953593897124,73.42908534532366 240.09765384204377,73.42908534532366 240.73748381487943,73.4282400875102 240.8557293445812,73.36535894414938 241.19030049763245,73.18842837230831 241.56680247548226,72.98882677853966 241.62717803311975,72.95697867185392 241.85775228806514,72.83453704082336 242.2501934130949,72.62741869012065 242.4774470123063,72.50666757471699 243.04349805352894,72.29704363835528 243.78475896329167,71.79390392823191 244.24512259082445,71.66479079808074 244.81533954548726,71.68320534318119 244.99308518740332,72.25511281353525 246.46307907854805,72.7993079029053 247.50286693339038,72.42531151071445 247.62446330654316,72.31965428472016 247.70666462835914,72.2248948469137 247.8257252282217,72.07395595264839 247.94563108579047,71.75867479031385 247.99091275404004,71.64716113523103 248.34730967118398,70.78849995355853 249.26969725394494,69.97089415113271 249.93968481783944,69.6858007676598 250.75813587810015,69.46859969882279 254.1081642606378,68.82209822693088 254.1832412666558,68.75499079454572 255.02046912532882,68.00784326795603 256.77051504091145,65.99365428737694 256.9382383402774,65.72111901989452 256.9583735887003,65.42428259044176 257.0003044135847,64.77859618858194 256.94243444152033,64.07002864336131 257.5285603556461,63.05538720836707 258.1331913783021,62.705691978146554 258.47195863259634,62.4490958579084 259.2769459434475,61.03365128309401 259.60064949607084,60.46343432834539 259.8186656349185,60.17369202693071 260.31926957166587,59.50832319326099 261.6576145593049,57.72808949879526 262.1884062748281,57.07820699567102 262.5657535104699,56.82665223448929 263.59295306149755,56.931464202670135 264.22188524610243,56.61696792258633 264.533815564986,55.85140585089619 264.62268838590114,55.40024949594581 264.6528761647628,55.11600137028634 264.73589255665377,54.820010198625596 264.9145136440788,54.64893605587304 266.05078164005005,54.38560806095157 266.4163556419522,54.27995083497872 266.91946516435854,54.093812990576694 267.29765765779234,53.885819194279186 267.80668398482845,53.37096662595733 267.91149595292353,52.72111431061443 267.95762287905086,52.06365467499343 267.97440728410857,51.82049211634055 268.0674762062667,51.77521044806954 269.50809738871055,51.06999374629988 270.07076739867944,50.79410763536647 270.67787381919163,50.60543401754556 271.0895747472211,50.557646763615566 271.43926997737725,50.51988185227861 271.44346607862025,50.51906678224651 271.73194049334694,50.492229846857306 272.03463335195255,50.38823294870855 272.8555899977864,49.83144955554521 273.621152069498,49.31237069819903 274.70791210817396,48.773186780125506 276.4722368431553,48.03358619825123 277.83406792275395,47.11204387321791 279.1338329289596,46.65083498791457 279.61846753063844,46.6357410985052 280.0352400055056,46.73469663757608 280.0352400055056,48.13842835419198 280.3706564163489,48.7463800324962 281.0934725931869,49.52537566577162 281.4397867921751,49.898556987951814 283.70474565162084,50.819284242931595 284.5642520911711,51.112739641152004 284.9751379490398,51.07385778199091 287.6668916259887,50.819284242931595 290.22862653941024,50.21468340807836 290.9246359686404,49.96983033382004 291.68606231454305,49.54216007080788 292.3359448177316,48.91325807398432 292.685579672368,48.11409700444031 292.839084527855,47.76189618858225 293.9227050375279,46.94365644279099 294.68216917787873,46.369907517924744 296.7148028913611,44.444621546085024 297.17770229218405,44.46306627894538 297.18072107014746,44.46608505684441 297.7915103995983,45.07687438635956 298.2896389384895,45.394691322113 299.40070013911424,46.00179774260377 300.7423959702042,46.14854053560465 302.0002301516112,45.793019064055514 302.9846838077653,45.28987935393214 303.2655810899952,45.32595374966366 303.46430723812614,45.61439797658755 303.6722708467067,46.6835585401951 304.05462925366646,49.01807004216518 303.67731220574166,50.30271097122295 303.48863858796364,50.94589178744523 302.650112654714,52.32867318554179 303.78801079083524,53.338273261458156 304.36912553372883,53.752509962863584 305.70239897444424,54.50134800508016 306.79250985657114,54.60615997323956 308.33293183587784,54.57597219439937 310.13161026324684,54.66418088421061 310.23141106010974,54.66904111660038 310.94417470659477,55.04641854002356 311.67625853151355,55.705508315708755 312.74870956307376,56.67067198116755 313.0615153274663,56.952414521189475 314.078662348141,55.767544201234685 314.611989837126,55.381804763064004 315.1570301842451,54.983507208902836 315.60568095355796,54.89125335673392 315.97463598671385,54.815783909601265 317.04379655034285,50.94003535833526 317.6609555011222,49.47755822408172 317.7028863260066,48.2205994882266 318.7183730188143,47.02229560668653 318.9817010137143,46.71205580342985 320.42398252393934,44.13936272632207 320.72643388029417,43.598518480403 320.9304730775137,43.23372936077311 320.9975503221389,42.42789679208703 320.8751086911084,41.76711650079639 320.90363614210304,41.48537396077447 321.39165177503565,40.07158971378417 322.17991505643477,38.08924883991225 322.29728514062754,37.645639429677274 322.4020971087226,36.78613299021278 322.25535431574315,36.33247104962485 322.2344039972453,35.8645604773981 322.49184537531835,35.33962519094195 323.99450244318086,32.932180015279556 325.94414995257506,30.29243988132788 326.15881524797175,30.00562579446818 326.78352114361667,29.173801548184887 326.8120485946113,29.136036636847933 326.9722249491975,28.824951575777813 327.3688319877532,27.483285932490638 327.7101350154234,26.655627599690423 328.10423646832015,26.57176595005036 328.1269074902906,26.566724590972488 328.36587394763615,26.515586493591506 328.63756395730513,26.45774670930856 328.65516343243786,26.454365678076226 328.65766901809684,26.45355060806558 329.28409561704274,26.32021118886863 330.879851794952,27.132775632238022 332.26344826303773,26.252288686451383 335.2881127650851,26.761707454580716 336.2465445559035,26.923121508094972 337.95550490447954,27.190615416499522 339.2443721225402,27.2996234859448 339.433075928121,27.32226432009103 341.48747503017626,27.571313495613776 343.0606205617206,27.955362418179018 344.23374783565265,28.346958285438216 344.85262748990465,28.349494058857104 346.28401121198476,27.548672661467545 347.2215228720222,26.924812023721863 347.63572938562487,26.696713166718457 349.17029493582163,25.5420306256253 350.7434102795632,25.919377861267126 351.47881476013015,26.057728451739152 352.7643311348256,25.974742247693886 354.22590263568156,25.516884205841535 354.6569237422305,25.213315901705474 355.2003037615684,24.830082049172333 356.17467469948093,23.603311092178856 356.99478608752287,22.916539123291003 357.8668808308021,22.47963139997944 360.37919835025093,21.70984303924352 360.4445850792064,21.718506931783075 362.276802128888,21.95976766036106 362.71286459438613,21.95976766036106 363.7384340053495,22.354684183311342 365.81550412920365,23.33246634032332 366.9693414125906,24.12320501957858 368.73867731880415,24.72527008099148 371.58469054570946,25.74495287506359 372.96916245939,26.118949267254433 373.7121440725395,26.222915977621838 374.4299188902568,26.118949267254433 375.5325878883956,25.495058441727398 376.3275528566966,25.24519419617256 378.09688876299595,25.24519419617256 380.78945750993404,25.225058947663864 381.3907075013363,25.175611365909774 382.5587934162334,25.079161412476427 383.55837114957814,25.24519419617256 385.60105739341344,25.621364108448986 386.04463661580274,25.70305223802491 386.60899714144136,25.952916483579752 387.53226016988293,26.63887338243551 388.48063943026256,27.637545482404132 388.8655336105984,27.970456307588385 389.55816200857475,28.26059105013917 390.3522817190838,28.26059105013917 391.5581325453393,27.907575164249018 392.9425742713028,27.262734020181192 393.3014465863029,26.992704338357758 393.9421218168448,26.077863700247846 394.73708678514583,25.557124515056124 395.4808532804817,25.2661445146919 395.83978597108745,24.93326387728899 396.7110052686861,23.893445834729636 397.1470375464672,23.394532413652048 397.3516804993137,21.45913353587523 397.5252300399868,20.782444285121677 397.73654449193253,19.961487639244876 398.0443088972901,18.838653204837456 398.0770022618107,18.44204616628173 398.1214386722683,17.902832060426856 398.45434949745254,17.257990916380482 399.04385644283207,16.28108420494185 399.12017114782105,15.677328627902058 398.81243693018047,15.17841520680302 398.50467252482287,14.658491091643393 398.45350423966056,14.346560772759826 398.83842860779913,14.075716020904295 399.3256291706568,13.909683237208164 400.32514652848175,13.909683237208164 400.5104693028088,13.89709493343633 403.78762438721685,13.680739122412763 408.55584443247864,13.40998493387983 410.27395167801006,13.326968542031766 410.6840224659753,13.887948036438077 410.75755989525175,14.018178114413397 410.75777120969974,14.018600743309394 411.248352803897,14.886680511990848 411.7607299742983,15.052713295665528 411.8127133294498,14.573904935293836 412.01729590677655,13.721069994949952 412.37622859729646,13.32612328423977 412.81956631752075,13.434044593620804 412.8894208377728,13.451070500907866 413.78663181307587,14.033845571646964 414.12038789605214,14.511838861986561 415.1199354416799,16.092501150443535 415.32536327671284,16.571309510815226 415.7355246280007,17.133134263034986 416.1455652281631,17.42411426339921 416.47929112333657,17.42411426339921 416.94053019637835,17.133134263034986 417.14595803149706,16.75832280081205 417.0687980687161,16.19646786081094 416.47929112333657,15.26064671640034 415.14601768253533,13.783981326070672 414.83819290157214,13.28419245939829 417.40255415177813,13.617103284582546 417.8386166172763,13.846047399399398 418.2738036371796,14.657736397173997 419.1651883710897,15.771423934583165 419.2230583432398,15.843542538264838 419.83855696615217,16.633466147488 420.1202995062599,17.02925811601163 420.5052540621155,17.154175144898375 420.9413165276994,16.98729710341025 421.1207526851995,16.44645285749118 420.99245462505894,16.051506146780998 420.5052540621155,15.239786961225049 419.4143884855192,13.856341431981694 419.01086844561354,13.343813322630727 418.3249719223419,12.473378907218486 418.22266553982,12.223514661663643 418.35093341215776,11.974465486119447 419.24735950510285,11.537557762807886 419.73465063136894,11.495657125747755 420.4012571640096,11.329624342073075 421.04277765242927,11.225627443924319 422.01714859042755,10.82983547540069 422.68384568630506,10.954782692068786 423.0427180013052,11.204677125404979 423.26912634272463,11.423538522087533 423.58105666160816,11.724571052783256 422.94041161878334,13.118250239046208 422.94041161878334,13.388279920891094 423.6582166243892,13.701025309785306 424.9144508535348,14.179018600146353 425.3244914536115,14.615926323457916 425.9660119420311,14.782774177186143 426.50432041453126,15.031823352708889 426.8632229173342,15.177720887896324 427.35042348019186,15.635578929748677 427.65815769783245,15.822592219745497 428.043082065971,15.843542538264838 428.427100800712,15.593648104928647 428.91433155145825,15.177720887896324 429.6841199121298,14.636846454217356 430.40201548097247,14.386982208641065 430.70974969861305,14.407932527181854 431.0426303360803,14.51192942530916 431.0426303360803,14.906876136040793 430.99149223872075,15.427615321232516 431.068652201416,15.863677786752083 431.2740800365347,16.092591713787584 431.50468447919707,16.321535828604436 431.8887635894579,16.42550253897184 432.5554003099014,16.592380580459967 434.2727226732464,16.52871455486985 434.68279346112587,16.466678669322476 434.91336771598543,16.37943598845008 435.06774801706723,16.320750946353687 435.6321085427059,16.008820627470122 435.914032209373,16.002873635037552 435.9146963405198,16.002873635037552 436.63165608824784,15.987840121169432 438.34985389718764,16.258684873024965 439.47854476066215,16.38363208969306 440.7858567116475,16.716542914877316 442.5811842955655,16.424717656721093 444.0679022162481,16.424717656721093 444.86202192675717,16.445698163021785 446.0158592099725,16.279665379325653 446.5542280580783,16.34173145265438 447.8363634014342,16.77860898820604 448.40069373927,16.77860898820604 448.9390625873758,16.674642277838636 449.65683740517886,16.73667816338601 451.3238971166733,17.215486523757704 451.7850758141953,17.36138405894514 452.3494061520311,17.194506017457012 452.9900813826588,16.79958949450673 453.5292954884708,16.653661771537944 454.2210484408523,16.632711453018604 454.9899915438177,16.77860898820604 455.57949848919725,16.9865725967222 455.8755198487037,16.980716167612233 456.60506790016063,16.965622278181414 458.39958041400365,17.110674555576853 458.8867809768613,17.027658163728788 459.52824108976114,16.819694555212628 460.0926016153998,16.569800121876433 460.88753639589805,16.423902586689 461.07050452349426,16.428672255756172 461.0711686546411,16.428762819078774 461.6825013641991,16.44485290520834 462.22080983661345,16.61088568890447 462.81031678207876,16.735832905572565 463.2463792476627,16.27882012153366 463.78471790787984,15.90400865931072 465.34778072126846,15.737975875614591 466.6047998326863,15.4880814422784 466.7699873585904,15.4210041976746 467.01481024504596,15.321203400790273 467.5791707706846,14.76022390638396 467.8869351760422,14.635276689715864 468.83531443650764,14.46839864820629 469.4248213818871,14.46839864820629 470.9375611679912,14.406332574899013 471.6302197537704,14.094402256015448 471.9882769986955,13.886468835280636 472.5249251433287,13.208058881140287 472.6297371115954,13.074719461943337 473.52697827461543,12.367842432349589 474.3982579478197,11.84794850494986 474.834290225515,11.660089957161043 475.60407858627235,11.286123752751552 476.24475381681424,11.120090969055422 477.2702628522579,11.328024389790233 478.7830328260789,11.8688082601466 479.80941730703154,11.888943508633846 481.32131183525786,11.556032683449589 482.4491876287431,11.119970217951472 483.7573146498035,10.599261220519649 484.98746663800785,10.287300713876181 485.78240141842025,9.89235400314455 486.22700702541835,9.412277756063414 486.2276711565651,9.411523061594018 486.24442537382004,9.393410394285613 486.4238917190371,8.997618425740535 486.60335806434,8.746063664580253 488.5571714872601,6.265624439641391 489.2103746460969,5.136933576145451 489.72187637090343,4.353741841605602 491.8509600377977,3.0866701998348374 492.31971586781646,2.833424923047663 492.95870058277427,2.487955981872922 494.20817274949815,2.0275923543830325 495.2579829468049,1.9814956160584745 496.13850008037286,1.9118825980357887 497.2738926307493,1.7047642473330733 498.1258521255198,1.3827512103152095 498.97784180809316,0.8293186606243074 499.5178407961773,0.5299464577526749 500,0 498.46715515319005,2.3269645572546653 497.41643932248576,3.6392876795150935 497.13213082128505,4.491247174264182 497.07513629481554,6.172555517440379 497.13213082128505,7.301216193154969 497.07513629481554,7.738938986520076 496.944332649016,8.014010027421385 496.8772554043908,8.154051133498852 496.67849906845703,8.361169484201568 496.1678124136397,8.429907056650908 495.31585291886915,8.31504255811711 493.3276556158444,7.508364731639034 492.70294972028523,7.393470045323886 492.172158004762,7.436246127957362 492.1352685389984,7.439596971408344 491.7947805813174,7.554461469942142 491.53902971891415,7.92344669085791 491.3201985099915,8.746063664580253 490.73069156461196,10.599261220519649 490.14118461914666,11.577013189771728 489.8266883390843,12.19921349967187 489.55167767368135,12.741748261217829 488.62844483312836,13.55346744677378 486.8599239968182,16.81878892185793 486.2276711565651,17.587399959207005 486.22700702541835,17.5882150292391 486.0901658238637,17.75461006626853 485.93391388055267,18.44204616628173 485.93391388055267,18.44219710518848 485.55264223363565,20.126011034002214 485.0654416706922,20.999796292865437 484.3476366651722,22.580458581343862 484.0910405449769,23.391302321305016 484.32155442431673,23.80810498391068 485.1676574898915,24.20220643682887 485.45024528779123,24.514136755712435 485.5785131601289,24.867997899416032 484.9370530473149,25.491888724943067 483.4503049388295,26.989534621573423 483.01424247333136,27.36437627157771 482.1681695953878,27.90522051749678 481.4495495198786,28.25826659116828 480.2202126016634,28.52911134302381 479.270957895689,28.612127734871876 477.83537807236587,28.508130836723122 476.93813690926,28.633108241172568 476.1943704139241,28.758055457840662 476.07863046988126,28.788243236702304 473.8095358846266,29.381916095607796 473.1688304662819,29.4858828059752 471.1177520199607,29.506863312275893 469.7593019716158,29.859909385947393 468.22057050797883,30.588581991873927 464.99044798301,32.08622788850428 464.5804375706503,32.35625757032772 464.1183834275335,32.79313510587939 461.923067773806,34.159977356753124 461.58010441826883,34.37379739435781 461.0711082791213,34.77982301992248 461.07050452349426,34.78033621216253 460.11853291741284,35.539377723617356 457.683375360745,36.93305690988031 457.29845099260643,37.28610298355181 456.29893363478146,38.13887754833299 455.6834350117833,38.61768590872614 452.8113999196281,39.88641787832099 451.5049332264348,40.28136458903117 449.58130758246205,40.510308703848025 447.8119716760769,40.86416984755162 447.3759092106646,41.11406428088781 447.2585391264718,41.18533762675604 446.1709036421153,41.84192181678225 444.813329039451,43.13160410489645 444.2489383260096,43.52655081562808 443.7647867287465,43.598518480403 443.7636094053811,43.59866941930975 443.6846381758907,43.61044265304949 443.6088970387259,43.59866941930975 443.60771971536053,43.598518480403 442.60793066765353,43.443564611561364 441.4540631965496,43.443564611561364 440.7068251066373,43.598518480403 440.7060100365623,43.59866941930975 440.2490878158889,43.6934288571162 439.70990389779394,43.92237297193306 438.9920988922739,44.08840575562919 438.0176977664728,44.50430278485871 437.4793289184528,44.5252832911594 436.99212835550935,44.296339176364 436.2751987955841,43.7144093634169 435.9146057771972,43.64138512638053 435.914032209373,43.64126437527658 435.7620065551078,43.61044265304949 435.3779274447612,43.65152822007752 435.02817183891364,44.023834096662924 434.5569104233217,44.5252832911594 433.9674034779422,45.52398557893082 433.71083754546396,45.939912795963146 432.1720758940242,47.60359147626818 430.48065464497523,49.16414870401926 429.3779554590336,50.30793345694602 427.55745126757193,52.09652916615926 426.96794432219247,52.491506064650785 425.8141372266083,53.739197152403705 425.09624165776563,54.4469194398109 424.532726389919,54.86281646904042 423.9943877297018,55.15379646940465 422.89171873147717,55.382740584221494 422.5780978970096,55.42802225249251 421.30181898276373,55.611654511257 420.4515198158602,55.60326230872814 419.25061978523127,55.59070419273766 418.532844967514,56.61038698678832 418.50685328989533,57.46316155159095 418.5579913872549,57.921019593443305 418.68628944739544,58.31599649193484 419.3152216320003,58.807362968318465 420.09672285097764,59.41869567783356 420.3533189711729,60.22956960559752 420.6351520745174,61.331423533682795 420.60991509145396,62.87100025513318 420.40530232632443,63.26594696586482 419.19779117228774,64.40469035971371 418.35340881001395,65.20047039804683 417.99447611949404,65.3044672961956 417.25152469414735,65.84531154209321 417.1340640466319,65.96295331629669 416.3794601386709,66.71909680097788 416.2771235683462,67.15597433652955 416.35343827333526,67.48888516169235 417.74201572493615,68.75499079454572 417.74207610045596,68.75508135786832 417.7898935421673,68.79867251053389 419.4334369739851,70.352528051383 420.60906983357614,71.46446469762404 420.2996752881544,71.78644754686056 420.14786094833715,71.94408812802783 420.1596039943599,71.97512116468147 420.4816170313134,72.81283202783463 421.71261427730974,73.83251482188528 420.9980997397209,76.02783047556989 420.96954210083766,76.11920888216547 420.86729609392137,76.61899774883784 420.4312336284233,76.93092806772141 419.5079705999817,77.20092756176349 418.8933474225783,77.26383889288422 418.20068883679915,77.1808225010576 416.02297265820437,77.02906853676019 415.50812008986105,76.99299414102869 414.6368404166568,77.2219080680642 414.30311452148334,77.57570883620508 413.99528974052015,77.92953979212733 413.5340808551954,78.6985432706125 413.4577661502064,79.59324866023518 413.1558883617616,80.81835928938311 412.8053780615304,82.23803015324327 412.5345031218506,83.33737849569101 412.2779371893724,84.5230940734378 411.9190044988525,85.0019024338095 411.3963634835644,84.97135240161457 411.2012598688522,84.95997160898948 410.75762027085733,84.94602485516414 410.75755989525175,84.94602485516414 410.5345627728889,84.93899110268877 410.3551266153888,85.20983585454431 410.25701633410995,86.00815166629633 410.17904130133974,86.63958943653877 410.1756904578888,86.66473585632254 410.75755989525175,87.29046813638321 411.278299080422,87.85045143406934 412.09838028074694,89.11999847369628 412.4833046488855,89.47304454736779 413.072781406548,89.84788619739352 413.5339902918728,90.38873044329114 413.7394483147085,90.88767405217153 413.97002256956813,91.74047880473407 414.17545040468684,92.57145779320392 414.07401946775974,93.11236241466423 413.8945833102597,93.50812419540651 413.54084291761717,93.9114932964269 413.20192472448053,94.29804780462968 413.3042009192854,94.85987255684942 413.2866316319555,95.66153921205243 413.2790846872615,95.98352206128895 413.43252916714295,97.43926732085917 413.5096891299239,99.18677746306582 413.76625506231636,100.05971746411561 414.07401946775974,100.24673075411242 415.0483904057581,100.39262828929986 415.63789735113755,101.1204858251943 415.63789735113755,101.599294185566 415.58675925377804,103.49191698070933 415.3838370043183,104.02020311061646 415.22785675097515,104.42773812511993 415.0223987281394,104.51072432918664 414.0849172559047,104.1870811521046 413.4593661024678,103.97072534108102 413.44273263642407,103.96671036648324 411.3311276934513,103.4499861558893 410.75755989525175,103.3653698117584 409.9206641021521,103.24199235959179 408.5102306985699,103.24199235959179 406.10024974953154,103.6789302706847 404.0751629808289,104.09482729993567 404.03492267152853,104.11828320411401 403.1779218178088,104.6155362973675 402.69072125486537,104.7396684440035 401.382564046088,105.01051319585903 400.5104693028088,105.46837123771138 400.1775886654273,105.92538402175029 400.99766986566647,106.48717858618869 401.920902706391,107.23604681616517 402.1523524067596,107.67292435171684 401.43370214344753,108.60874549612744 400.68238870333187,108.17102270278377 399.1520192544639,107.27794745322531 398.5625123090844,107.9848546706004 399.63921981740737,108.67162663948825 400.61362094320845,109.64937860871889 401.7674582264238,110.5642192468288 403.04959356986546,111.54115614604878 403.2030380497469,111.89501728975237 403.38250439504975,112.5608087523181 403.81853667274504,112.89371957750235 404.27974555806986,112.89371957750235 404.66466992620843,112.80988811564364 404.87009776132714,112.5608087523181 405.17786216668475,112.26901368194322 405.1518704890661,111.5830869708688 404.53637186615373,110.9172653205003 404.0239946956666,110.5642192468288 403.3313662976044,110.25228892794523 402.5875394267487,109.89839759646028 402.25465878928145,109.85734221723504 402.12636072922675,109.75334531908629 402.25465878928145,109.54541189835149 402.6647295773325,109.23348157946792 402.8701574123654,109.1495897420465 402.8181740571281,108.69257695800759 402.69072125486537,108.1098018872685 403.9208732430697,107.71482498875552 404.3829273861865,107.65194384541614 405.02354224120853,107.71482498875552 405.8956369844878,107.71482498875552 406.5622737048455,109.08755385649913 406.92120639545124,109.50348107353145 406.9983361704294,110.41832171164137 406.74174005014834,111.8530864649109 406.4599975101264,112.6438553319475 405.10070220398956,114.37041515561337 404.4600571611647,115.24417022671669 404.3854329718455,115.32468103290577 404.0759780508181,115.66009744372757 403.7682438331775,115.805994978915 403.17873688779804,115.78504466039566 401.9729162492595,114.95237515632037 400.22957202057887,113.475649390428 398.8887516350837,112.74697678450147 397.7424311087595,112.12477647457987 397.25523054590184,112.35369040161538 396.613740245285,113.12266369231921 396.7420383054255,113.53856072157018 396.99863442562076,113.99557350560907 398.2556233493216,114.72427629931697 399.5117670150588,115.34813693708409 400.3478175503664,115.63661135178934 400.8962087409366,115.82613022742369 401.0496532209038,116.05507434224054 401.46053907885823,116.34602415480197 402.25547385935647,116.80388219665433 402.07603770185636,117.57367055739024 401.9729162492595,117.96861726810043 402.25547385935647,118.53047220810153 402.72048640483104,119.06796561056962 403.20672095877126,119.63006205277863 403.46047942781996,119.92327594876969 402.46008662440016,119.27843480472332 402.18371750907244,119.06796561056962 402.0240543467049,118.9463692373525 401.20982957548995,118.6512233235052 400.0761275406975,118.23949220773731 398.58850398661724,117.94848201961318 396.9734880058799,117.42777302218136 393.56392932341095,116.34602415480197 393.13040263128886,116.21268473562647 391.6101159005766,115.74395909338908 390.9996586366134,115.55613073336016 389.97411941345274,115.26599599080937 388.6148241072301,114.28824402157875 388.43535776201304,113.97628351491383 387.9573946594333,113.83123123753984 387.2043907037337,113.60144186490955 386.25595106783425,113.3515776193547 385.6144909550202,113.74733940009698 385.60105739341344,113.76321817177855 385.3327484149125,114.08028041306258 384.15373452406766,115.59806155818019 383.89710821606957,115.99385352672526 384.0254364640129,116.26385302076736 384.35919254698916,116.57578333965093 384.7692331471516,116.57578333965093 385.5129996424017,116.18083662891928 385.60105739341344,116.18083662891928 385.8199489778559,116.18083662891928 386.3582574502703,116.26385302076736 387.28152047871185,116.63784941297965 389.0508563850112,116.97076023814245 389.4609271729764,116.99089548665114 389.8969594506718,117.34472644257339 390.2927514192383,117.91829424075154 390.614734268389,118.38538974294619 391.10193483133247,118.42647530995278 392.1275042422959,118.13549530961001 392.7941409626536,118.05247891776193 393.35850148829223,118.13549530961001 393.64024402831416,118.40552499143344 393.87084847097657,119.06796561056962 393.92283182612806,119.21721398920803 394.25571246359533,119.96602184362182 394.6406368317339,120.38197924843548 394.9223793717558,120.4649654525022 395.281281874473,120.21594646473936 395.4095799346135,119.38324677288271 395.4342131621358,119.06796561056962 395.43557161223214,119.05033594771992 395.7944741149493,118.80131695995706 396.5382707981738,118.63443891846894 397.3072440888562,118.73840562883635 398.41419975156055,119.06796561056962 398.8451302947011,119.19623348290735 399.929384747718,119.8352181978652 400.25556369819753,120.02727284691845 401.0245068011629,120.50608120729014 401.46053907885823,121.0679059595099 402.76785102975776,121.58779988690962 402.915408892898,121.80246518232775 403.2550515927012,122.29470710428473 403.1016071128198,122.69049907280835 403.02447733784163,123.31438989833538 402.76785102975776,124.0003166094098 402.0769131474512,124.99901889718122 401.2559565015315,125.4778272575529 400.7393832298872,125.92478751123886 400.4870133986519,126.14280365010798 400.3587153385114,127.41235068973492 400.3587153385114,127.84841315525449 400.385522086205,128.14443451467514 400.46102172111904,128.9921677203999 400.7175876535115,130.28188019629545 401.12765844147674,131.30071773255412 401.5376990416392,132.81934413548515 401.5754639529976,133.5765441924278 401.6148288165316,134.35892085693555 401.6668423595717,135.71063903059712 401.59052765458273,136.16765181463603 401.74397213454995,136.5836092194497 401.6157042622122,138.29003379460687 401.64166575194224,138.95501018716195 401.56453597704984,139.35080215568556 401.25677157160646,139.53778525790102 400.1800942510863,139.57971608272106 399.744061973391,139.7667293727179 399.4824244939892,140.2589411068935 398.99688425899853,141.17381193278476 398.7948072673308,141.55532508193113 397.76923785636734,143.27436814866292 397.23174445394216,144.1766506707609 397.1975115126799,144.2244379246909 395.1035362326427,147.1509619577209 394.5710238136469,146.8801172058654 393.7961940938545,146.4852006829151 393.6553379177879,146.67133852731712 392.53923535804233,148.14969443325225 392.4629206531391,148.56477639247112 392.9501212159968,148.98070360950342 393.1806954708564,149.5215478554225 393.20587207840003,150.24940539131694 393.10356569587816,150.83221064983738 393.0021347589511,151.8929790109161 392.566072293453,153.51557212421454 392.1811781131172,154.97128719602486 391.97656534807345,155.63710884637194 391.7451156475333,155.96998948377484 391.71993903998964,156.34483113377914 391.7971291905734,157.01065278414765 392.28429956562826,158.15359227926095 392.6943703535935,158.75653278626865 393.21595479655576,159.09946595404594 393.7710778618307,159.46425507367584 394.822578574893,160.35811520548506 396.02758414327064,161.35684768103783 397.77092837195136,162.95846028803558 398.873627557893,164.1223802894496 399.3608281208364,164.66325472315 399.4882809230991,165.06324279293807 399.54026427833645,165.22507947536977 399.5151178585098,165.6208714438934 399.1562153557069,165.82883505240957 398.74532949775244,165.7450035905294 398.12983087475425,165.3919575168579 396.56592280357364,163.9781732698676 395.36094742291294,162.97944079433628 393.3610070739512,161.58576160807334 390.77074470962077,159.58917210258403 389.5657391410715,158.4043319704106 388.15527554985806,156.61483062784265 386.97626165901323,156.61483062784265 386.59224292418645,156.88570556747953 386.6182044140023,157.2387214533697 386.87401565201117,157.84247703040947 387.25887964454415,158.7782981748201 387.6177821473471,159.15313982484582 388.1821426729857,159.81811621737944 388.5410149879859,160.79502292881807 388.7976111081811,161.0868179992144 389.61772249630883,161.8976919269569 389.8491721967632,162.05536269588407 391.0784789271756,162.8964244024882 391.92455180503333,163.60333161986333 392.4117523679768,164.3730897928179 392.64238699844196,165.76676897908084 392.6432020684312,166.53655733981677 392.4126278134858,167.05563619716293 392.26500957499735,167.10761955235736 392.00255702560634,167.20153373237181 392.00255702560634,166.55753784611744 391.97656534807345,166.14161062908514 391.7719525829439,165.80869980390088 392.0277034453472,164.74796163060353 392.00171176781436,164.3320042258113 391.77110732515195,163.87414618395894 391.18163056748944,163.4783844031952 390.6432617194695,163.20838490915312 389.90031029412273,163.2502855461918 389.0282155508435,163.39536801136862 388.5150233103672,163.08343769248503 387.8232099824658,162.66751047545273 387.36118602715186,162.18867192729968 387.3167496166085,162.0696113275229 387.0794434870441,161.43986407288588 386.54107463902415,160.3589604632985 385.95075262356966,158.6953119707748 385.6429882181262,157.8835625974375 385.60105739341344,157.84788064282066 385.1306412355277,157.4475303196993 384.7717387327248,157.11461949451504 384.28453816978134,157.15573524930298 383.89967417724836,157.59261278485465 383.59190977189076,158.4873181744773 383.6430478692503,159.21517571037174 383.54074148672845,160.46295736144725 383.0795326014037,161.23271553440182 382.69466860878487,161.58660686588678 382.3097744284491,161.5446760410453 381.3102268829071,160.5048881862673 380.9764707999309,160.2139081859245 380.46412381724656,160.02689489592768 379.4897226914455,159.86001685443958 378.38702350550386,160.04703014441495 377.9518062977977,160.2549937529311 377.64407208024295,160.87972983627157 377.74637846276477,161.96144851589108 377.9006682004382,162.73039161881354 378.50191819184045,163.98569002680168 378.74677126609873,164.49803700948598 379.0545054837393,165.37182226837066 378.82393122887976,165.93364702056897 378.15726432071926,166.26655784575323 377.5929339827976,166.26655784575323 377.0797417423213,165.55883555834603 376.66967095435604,165.10097751649369 376.25963035427935,164.80996732836954 375.92590445910594,164.4158960632327 375.36238919117346,163.10520308103648 375.1821077759672,162.21049769141382 374.7468905682611,160.92078521551826 373.90078750251473,160.10994147555712 373.3875952620384,159.6940142585248 373.2140155336483,159.37538225273926 373.00270108170264,158.98626178333623 371.84886379840145,157.86345753671017 371.35912746208203,157.92214257880656 370.9776143129142,157.9674242470776 369.97722150958026,158.11332178228648 369.02881206139784,158.59213014265816 368.9005441890601,159.0692781751843 368.925660421084,159.61015260888473 370.1566576670803,160.02689489592768 370.90045435021904,160.17197736108304 371.48993110788155,160.79583799885017 371.72056573834675,161.19166015515515 371.6953891307173,161.66965344549473 370.8493162528595,162.3354449080819 370.4132537872756,162.6893060517855 369.92605322441796,162.89726966030167 368.69590123621356,162.93832503954835 366.9525871953357,162.73039161881354 365.4909855065912,162.98028605214972 363.87509408025903,163.6461077024968 363.52455359222506,163.78862420647334 363.2084271720127,163.91610719656032 362.33717768661126,164.352984732112 362.36235429415495,165.16470391764648 362.2600479116331,165.55965062837814 361.69571757379725,165.7466337305936 361.08103402078825,165.53870030985877 360.9007526054962,164.352984732112 360.7724545453557,164.06200473174778 360.4445850792064,163.7812583884246 360.3112758478337,163.66705802101615 359.9271967374871,163.8540411232316 359.7988986773466,165.16470391764648 359.59431610010563,165.53870030985877 359.286551694748,165.8715809472617 359.1322619569889,167.26526013352463 359.0811238596293,167.76504900019702 359.15825363460755,168.6388040712789 357.85012661354716,168.6388040712789 356.59398294780993,168.4719562175721 356.1067823848665,168.5138568546108 355.440115476706,168.3889096379427 354.2351400960453,167.91010127757102 354.13702981476644,167.9204254979561 352.0565786596585,168.13904539238786 352.0565786596585,168.57592292793953 351.4897125483609,168.65890913200624 349.9954174951815,168.53064125966853 349.35477245235666,168.50549483988473 348.789596856643,168.68073489612038 347.533845631999,169.38094042659353 347.3698958050658,169.472349020949 346.7468804250907,169.8597487869652 346.21270767831373,170.1699885902219 344.31591896966586,171.34984773888016 343.9243231024281,171.24165473946698 343.8136245174203,171.21146696062678 343.4849399812818,171.27099726051517 343.21074438595383,171.34984773888016 342.9566236636148,171.54268727018413 342.8082205427683,171.6584272142913 342.7419885559351,171.71629718635558 342.6832733260788,171.80181916384117 342.63461062657547,171.95526364374405 342.63461062657547,172.0298878330847 342.63298048651126,172.10285169455835 342.68411858387077,172.23616092597396 342.8904218645843,172.39298643710913 343.1050569721782,172.5162733259317 343.4622991471141,172.60514614688972 343.5000036829527,173.12002890297148 342.9876567001826,173.24666663526648 341.2216716373342,173.32044556677224 337.93706017155483,173.6231686131163 337.3090034325447,173.5107795124387 336.3672956712643,172.92042730920284 335.2881127650851,173.53142795318743 334.9484700651961,173.72378448003272 333.4198213198007,174.3694406941112 331.1523870623272,175.17614870837062 330.31718178481157,175.4738303956368 329.9406798070475,175.73797346059038 328.7591603305437,177.34462742664456 328.4455394959904,177.6079554215875 327.7042785863134,177.4997624221743 327.5759805262587,177.4813176892925 326.97304001918667,177.393259938388 326.1437213585838,177.76979210399773 325.9433348825859,177.95843553405874 325.4653415922892,178.40956170122777 325.40327551889607,178.49176302302232 324.51107571491093,179.66489029699727 323.88298878809803,179.10055995913996 323.3530423303668,178.39615832740242 322.51367113941103,177.28090102549174 321.1384064982056,174.37366698315697 320.1464058974434,172.5657510954886 319.27935251319917,171.85045167558462 318.8148229722262,171.54941914486747 318.466818257654,171.50748832004743 318.1867360454133,171.4739496977348 317.64670686952627,171.5628225186714 317.25677133006974,171.6877697353395 315.82454235019765,172.25294533101024 315.17465984709486,172.49613807744444 314.3713328641106,172.62612665319043 312.087144389468,173.3363847140165 311.019644153706,173.82606067477323 310.13161026324684,173.65845812659705 309.62511970958667,173.56279305541446 308.9979082284544,173.76822089049028 308.42769127370576,173.87387811648458 307.60253852654307,174.02732259638742 306.2248286752843,174.34263394648187 304.51586832670824,174.64366647719905 303.37292883155203,174.95728731168808 301.4517785854355,174.99502203526512 300.057284329119,174.41810339361453 299.80322398229976,174.29062040352756 299.0275791925182,173.90322063751134 298.2233767638534,173.31286843429692 297.97683317401106,172.76366217363034 297.92989117789455,172.6151986772427 297.83178089661567,172.30915497522898 297.7806427992561,172.14897862064282 297.721082311522,171.79596273475266 297.81584174934994,171.1678758079612 297.8963223678649,170.77627994068055 297.9583884411722,170.6152885160623 298.2208711782802,170.288234119988 298.2988462109646,170.191814354336 298.39946207790246,169.91257739995163 298.4128956395092,169.58132690261291 298.4213482176008,169.38094042659353 298.42463868553193,169.2978938469641 298.3617575421497,168.93228965728065 298.30808367132835,168.622049854024 298.22757286509636,168.28325241196987 298.21833540481845,167.9528773602045 298.27200927555396,167.6945907243609 298.48582931324444,167.4262515581429 298.7373840744047,167.15709732189282 298.86151622101926,167.02375790269585 299.4610756968375,166.38142234428702 299.68748403817114,166.1399201134797 300.131908518524,165.6636475265269 300.18802759931293,165.52502524604415 300.396081771216,165.01041417995165 300.35665653207644,164.7622102622209 300.27028929673446,164.62132389830853 299.91808848083355,164.61211662576903 299.77889263254804,164.6079205245046 299.5030065216361,164.59448696291932 299.39565878007926,164.52070803141356 299.3487167839627,164.40665860291185 299.335283222356,164.31860085198593 299.328581535454,164.03012643728067 299.3084462869453,163.89597194805162 299.28749596844744,163.8355963903498 299.2271204107241,163.7811074495393 299.1022033818374,163.72993916437696 298.65439787031653,164.00836104872926 297.721082311522,164.58778527601737 297.5198203899293,164.6280557730133 297.0762411674542,164.58778527601737 296.2427264056084,164.33453999923017 295.37147692020693,164.07036674649527 294.9413010715358,164.75043702845971 294.81297282367825,164.95507998130623 294.1941535449461,165.93364702056897 293.99289162326755,166.25230921413583 293.59459406921366,166.43763198850579 293.4646054934033,166.42923978599836 290.700763400597,166.25898071325645 290.3011979597693,166.23368335458738 290.2378639996882,166.22963819222971 288.5657931168758,166.1265167396543 287.7784052810715,166.00159971076755 287.12266634885873,165.79611150012903 286.73191573941295,165.67454531469326 286.00991463264995,165.4481369732953 284.9751379490398,165.13125585867792 283.9781261769596,164.8259366633737 283.7156434398516,164.75716890314303 283.46656407654746,164.69175198638476 282.5685078434524,164.45529111463387 282.27079596836194,164.37728589408232 280.76397298697344,163.989071058034 278.4118318221965,163.59074331609148 277.8281813058412,163.30900077606955 276.8160454564845,162.4528451800346 274.62323538850177,161.52876708160383 274.41865281117504,161.28303856175071 274.3322855759189,161.17822659356986 274.1964103832816,161.01557484110606 272.905067767279,159.46425507367584 272.7406953114498,159.26634399553407 271.63633579772704,157.93808172605083 271.16338386646527,157.36952509914775 271.0501796957127,157.28400312166215 270.9395112985077,157.200171659782 270.51857291020025,156.88066420840167 270.46151800812515,156.83707305575754 266.6369075542616,153.93904628594083 265.57695426319356,153.05605375453808 264.4180756208574,152.09004483126586 264.15981917279515,151.87453427803428 262.9372443170018,152.55961573129525 261.3640384099376,153.40085856456605 259.8186656349185,154.22776220289686 259.4178323074028,154.44215580830428 258.96921172589276,154.68284296907953 258.7310603385364,154.8102957714066 258.37801426484344,154.99893920144618 257.971324508132,155.23627551879187 256.0267485455756,156.37248313922188 255.59904809484638,156.61987198689908 255.54624966961987,156.65005976576072 254.7748009810813,157.09620494941458 254.909800728038,157.44837557751273 255.13198278041165,158.02529421914187 256.90805056141573,158.80682562583618 258.5834722876792,159.544735692105 258.8333365332555,159.67556952564297 259.8186656349185,160.1902409672982 260.2010240419641,160.38999349995214 260.1406484842408,160.55937712709925 260.05847735014186,160.79251734318055 259.945273179475,160.9912434913544 259.85051374164715,161.1421823856197 259.8186656349185,161.1752078156923 259.5947628792439,161.40717070838673 259.36750928003244,161.65371429827192 259.1293880804789,161.9815837643783 258.83421197885025,162.4016768948937 258.6371461585005,163.03646550858713 257.424593645343,164.69594808764919 256.1927511414689,166.9063878185245 255.8070418911439,167.07242060222066 253.83140270413105,167.33152230809634 253.46833428788796,167.31808874651105 252.68764813898565,167.28874622546286 252.1819726554005,167.26948642254897 251.26713201733347,167.34495586968163 250.33131087287998,167.51095846559642 249.49779611103415,167.85730285236593 247.66135277230677,168.31848154988793 247.1758427250331,168.47615231883654 246.91924660483784,168.55913852290325 246.6425454238509,168.38975489575614 245.31090212311386,169.30127487819644 245.18175880518135,169.34906213212642 245.09632739103978,169.38094042659353 244.6400693014274,169.55113912375128 243.61788092171773,169.64758907718462 243.50467675105094,169.65848686535102 242.8246064690865,169.82787049249814 242.3600467403965,170.13228405442618 242.12778196986713,170.3578471380107 242.0019894953856,170.4802585812599 241.72193747094767,171.05805266848384 240.97059384311498,172.25548110442912 240.3358052294001,172.4877458749156 239.21801215407058,172.73848556606524 238.6997785545593,172.7737147039833 237.840272115009,172.94056255771153 237.79752622022121,172.96151287623087 237.84196263067878,173.0814187338211 237.85032464544773,173.1049350135621 237.97614730764627,173.43361954970058 238.11950906945773,173.68517431086087 238.65283655844274,174.29315617694644 239.11150967030574,174.66796763916938 239.7278535510959,174.93633699316874 240.0146374502386,175.24911256986573 240.2267971599763,175.548454584956 240.55548169611478,176.17566606617413 240.8171191754308,176.82307317142073 240.84564662642546,176.9102554767519 240.84730695429243,176.99915848546982 240.80706664507784,177.10312519583724 240.7223597376029,177.17774938515643 240.5286749485069,177.128271615621 239.87628685974514,176.96308408973832 236.68474431620965,177.40080688310343 235.61141783905467,177.19537904800615 234.66216313308024,177.0007282499713 233.59472327283802,176.78195741663282 230.5818018167276,176.5052562356673 230.20611490886697,176.09352511989943 229.85729512430558,175.26336120148312 229.25269428945236,175.06964622458432 227.85986036091705,174.62437648652525 227.59152119478486,174.5388545090182 225.43394026469875,174.2361314626956 223.99413415232988,173.4059675442793 223.4004612934244,172.70829778722504 223.27886492018584,172.5657510954886 221.96654179796832,170.65887966872788 221.93804453469065,170.61779410172127 220.458843370985,170.10209627558598 220.79842569526843,169.38094042659353 221.38877789852575,168.12730234640802 220.39593203979993,167.85057097768262 219.045844006224,167.3415748384493 213.8342862407379,165.7273739276797 209.50569081887315,164.39382879688924 207.74556218522056,163.85153553759406 206.898644049485,163.55300859251443 204.0727056956544,162.7488363516739 203.58133921918497,162.49897210611906 202.94150924643512,162.28596713854645 201.67531305025915,161.86502875023908 199.69046659077114,161.2059087867725 199.5873451381743,161.1715249066679 199.1839760371968,161.02478211366702 198.93157601815872,160.9325282614981 198.68002125699843,160.84114985490254 198.27414657036198,160.6935618040882 196.6783903924527,160.11244706119464 194.25080996828163,159.12965373288614 193.80215919896878,158.94771198974854 193.46843330379534,158.96947737829998 191.8500362917184,158.46048123906664 190.64421565326572,158.49655563479817 190.02702651468354,157.92467835222544 189.11300094651995,157.67393866107582 188.84049586686177,157.59846921396462 188.49837776911656,157.5045248461688 188.12519644700072,157.73431421879908 184.38776829838247,160.67424162563304 184.3492185048377,160.732292724364 184.13032692030944,161.06167157943062 184.3492185048377,161.22981750762818 184.39785101653823,161.2671296022878 184.40708847690198,161.27383128918976 184.61671241326368,161.43482271380802 184.9722640725298,161.70735798129044 185.0930151879764,161.78451794402855 185.23052052059208,161.80380793472378 185.38484044606827,161.73334965888765 185.5307077935387,161.63019801855233 185.74540327673816,161.37278682826064 185.7797871568428,161.32916548783518 185.84686440146805,161.27636706260864 186.0288363323441,161.2268892930732 186.47323062489417,161.1153454502305 187.04516828294376,161.23190046436974 186.98310220963648,161.58660686588678 187.00824862946317,161.69899596654295 187.0183011598161,161.75013406392392 187.11140026977702,161.79287995877604 187.56421695253005,161.830644870113 187.64385231316723,161.92202327670856 187.8593628664417,162.35893100002014 188.05642868670566,162.71110162811829 188.23674028980054,163.17400102902707 188.32310752514246,163.48339557449174 188.33316005549543,163.58989805827804 188.2627319674192,163.63768531220805 188.08242036432435,163.65531497505773 187.91892335409,163.5949394173559 185.61459963102445,162.50060224618323 185.5483374563884,162.60794998778297 185.5659671192381,162.72619551754912 185.65064383891027,163.28635994192334 185.92064333290946,163.67629548135844 186.22502670709906,163.9974330727815 187.3604192574755,164.52487394489665 187.87029084230366,165.38275024429694 188.08492594998333,165.7936059144915 188.36168750649009,166.18689229735614 189.22119394595458,166.82587701233544 188.5863751445227,167.79104067779423 188.99813644798616,167.9780539677696 189.51637004758322,168.2731998816169 189.87439710479134,168.9255879703787 191.17567149993573,169.38094042659353 191.2403940978302,169.40355107293695 192.15275933804102,169.7255641099548 192.22403268399503,170.86934886288157 191.64626878446668,171.2902872512104 191.09703233610455,171.6911507665718 190.50752539063924,171.80686052291907 189.51467953199923,172.2562961744612 188.90419208023323,172.495292819631 189.34529590485212,172.92966476954513 188.97800119947743,173.09904839667078 189.65807148152768,175.1719526071062 190.69870459407625,175.58703456632506 191.08525910227903,176.09437037771286 191.24377512908399,176.30230379844767 191.53895123071263,176.65030851306275 191.68566383588927,176.72493270238195 191.86597543898412,176.77021437065298 192.0395249795714,176.766863527202 192.77326913235717,176.6327090379944 193.30997765259596,177.6095855616302 193.3552291330427,177.80749663979344 193.3552291330427,177.97020876779848 193.32754693992587,178.0531949718652 192.86217214107512,178.3215341380832 192.72379136286463,178.42133493496752 192.61227770778183,178.5445916360302 192.60642127867186,178.69133442903106 192.62148498034276,178.81293080224816 192.74142102571435,179.00749103693894 192.87140960143887,179.1525433143344 193.10282911409044,179.27749053100248 193.33759947019303,179.3948908029552 193.46342213247735,179.49384634202605 193.5539854690623,179.60282422369 193.5891844191561,179.7386692285245 193.92124998654836,181.19861058935913 194.26590385766957,181.65728370124359 194.55519334247126,181.93736591341997 194.8696594347308,182.49583982218874 194.95017024096276,183.01407342174292 194.90823941616418,183.29750647739175 194.87805163730255,183.3738211823164 194.83443029683417,183.4702409479684 194.72542222741035,183.7544890736493 194.66420141189508,183.96833929903534 194.65499413933412,184.2115018576882 194.72542222741035,184.37164802449303 194.84282249940594,184.4798410239062 195.06838558294754,184.56955910265623 195.33506442138435,184.61399551313525 197.03312698181546,184.83373235539113 197.30143596014486,184.92764653540561 197.4079384439955,184.98044496061067 197.5068939830664,185.07354407059304 197.59075563266356,185.2470936112018 197.64439931576786,185.48358467073405 197.61421153690623,185.6806504910838 197.36181151786815,186.50157694917925 197.22095534180147,186.95858973321816 196.90899483511512,187.24117753105355 196.65994565952803,187.44243945266774 196.5115123509646,187.58501633218555 196.3966478524308,187.68563219910197 196.22895474095347,187.74431724119836 195.9186847498511,187.77115417658757 195.56062750492598,187.817281102672 195.3442415061425,187.88604886290273 195.13295724191383,188.0302558824847 194.50405524511172,188.4898044399425 194.1049124330942,188.78075425252538 193.55060443780852,188.960190410004 192.15777050935898,189.00716259390188 192.0235858323915,188.96441669904976 191.9481465729973,188.86962707346197 191.9858812965529,188.33466944441275 191.87853355499607,187.88773937850814 190.90331735920577,187.12800354814664 190.47063592487564,187.0952799958661 188.88574734739433,186.9770646538813 185.89966282669457,187.00387140151062 185.25651219821074,187.26300329516766 184.6485907077093,187.38795051183578 184.58148327528127,187.38879576964922 184.3492185048377,187.39130135528674 183.0838373786509,187.40551979912277 182.66286880254071,187.44243945266774 182.35181392933774,187.46927638807838 182.22182535352744,187.4810194340368 182.82639600057786,188.7564530905336 182.99411929994378,189.1086539064131 183.17693648869763,189.49436315680245 183.30438929096036,189.76270232302045 183.65320907560752,190.39664567890043 183.6624465358855,190.98699788213628 183.5643362546066,191.3710468047015 182.40126151102749,192.4519202264861 181.69773532490618,192.6489860468359 180.6042434115255,192.69342245731488 179.71790003665035,193.01462042430066 179.35815227614123,193.1454240700573 179.08984329764021,193.43136271134364 179.0546141597436,194.25397968506596 178.67642166630978,194.53741274071479 178.26804139392854,194.84348663048837 177.70956748520265,195.19819303200543 177.29031961256504,195.11771241357624 176.8986935574387,194.95750587120872 176.13056552454833,194.98603332222484 175.66854156923435,195.01622110108647 175.15619458655001,195.04891446558565 174.71261536407494,195.1302705295882 172.51222816359547,195.30385025797827 171.5361667099274,195.3818252907699 171.3198410866637,195.3986096958062 170.96933078643255,195.4271069590409 170.8225879934531,195.43885000502075 170.2347715636576,195.48497693110522 169.92281105697123,195.51015353867035 169.52113247157772,195.54197145757473 168.0369201365541,195.7650591432816 167.49100434375435,195.78262843056862 165.75689757543745,196.10464146758648 165.6830884561074,196.12646723170062 164.90994925189906,196.35203031528513 164.87891621524543,196.360422517814 164.5041047530654,196.47027584505128 164.46890580288579,196.4803283754042 164.15021342158045,196.64971200255133 164.11582954139004,196.66815673543312 163.6068334022425,196.93818641725656 163.4190050422565,197.11007563004122 163.1481602902937,197.35827954777196 162.54274438545127,197.91171209746287 162.13267359748602,198.02829729938347 161.63206966082444,197.7867950685761 160.95199937886,197.85806841444435 160.57718791667997,198.1440070557307 159.7453334826153,198.22451786191976 159.33864372590384,198.16583281982338 159.1927160029136,198.14461081129335 158.1470415312443,197.99222290365194 155.7773310791375,197.73312119777626 155.06206184699343,197.7691955934863 154.82973670094427,197.9025048249019 153.74804820910612,199.24335539817844 153.02266607108933,199.37080820048408 152.67553680211194,199.43118375820737 152.4516038586345,200.55483326262544 152.46168657670447,201.4403615674685 152.46591286575023,201.7724271348393 152.46923352139842,202.081821680304 152.17659319323155,202.59250833514275 152.15395235906388,202.65288389284459 151.9593921243731,203.17615885147666 151.77159395218987,206.31233700862828 151.61896454229768,207.73031735686155 151.53425763482272,208.5160448648203 151.51158661293803,208.72482354336856 151.2516698370088,211.58762117524574 150.80470958327993,211.90963421226363 150.51958601209003,212.38343140133878 150.4483428539388,213.3477498090056 151.07304874949793,215.35940301614434 151.08310127985087,215.39212656842489 151.140156181926,216.21896983117156 151.29776657524755,218.49730187670423 151.3464896503565,219.69388505483604 151.4227137919371,221.56552734365727 150.92210985527552,222.82420678289915 150.93970933032242,223.12774489925388 151.5552079533206,223.78517434709354 151.79921576978694,224.61449300771784 151.83278457990235,224.7276971784061 151.86632320221497,224.84259186472124 152.127960681531,225.73313134086084 150.9472864628192,226.09873553054427 150.63451088614363,226.6353836751989 150.52716314458678,227.4747850539575 150.87764325701517,228.16994922535278 151.64577128990553,228.63785979755806 151.79420459855476,228.72842313412156 152.65205071015225,229.25082264715883 153.03691470268524,229.30452670574005 153.5048554627148,229.40010121357858 153.8687993245527,229.4747254028978 154.38700273634697,229.58122788668408 154.82472552971208,229.77829370703384 155.28593441495107,230.00974340748823 155.92407387211694,230.56737205844357 156.10689106087077,230.83652629469367 156.18652642150795,230.95392656664635 156.24189080791325,230.9992082349388 156.9605108835083,231.58871518036122 158.62754040719997,232.95471217340008 159.1927160029136,233.10975660558574 159.25728766187987,233.12744664399816 159.1927160029136,233.2479562571725 158.91767514979367,233.7613899998996 159.1927160029136,233.93279620822554 159.79396599431587,234.30646053484298 160.41030987510604,234.3156979951853 161.3125622094441,234.3869713410535 162.20732797460803,234.59239917612933 162.7255313864023,234.73579112567924 163.02321307368996,234.9471055776464 163.10876523895692,235.00832639316167 163.9498269454967,235.60619535333157 163.89615307476117,236.89255698577614 162.70120003665065,237.40405871062558 162.37502108617116,237.5432545589325 162.286993523048,237.5809892824881 161.92135914554032,237.80401659265374 161.80480413142254,238.1436592925213 161.31093206937993,238.56963903988512 160.416981374291,238.8111412707139 159.46024009914242,238.87405260183462 159.23715241337118,239.36541907821825 159.1927160029136,239.61480031931438 159.0988018228777,240.14193931361604 159.0602218415301,240.3582649368797 159.01578543107254,240.61151021366686 158.93361429705936,241.07102858334332 158.84809231950942,241.55318778718745 158.81621402506377,241.7318088746554 158.80112013567586,242.29028278340274 158.7944184487739,242.52840398299918 158.78771676178613,242.7934224935261 157.94665505524634,243.01729506150517 157.66657284309142,243.24454866069513 157.4192141831741,243.44581058230932 156.8649061878026,244.33384447278993 156.5427422120067,244.85038755673867 156.51608640324122,244.8931334515908 156.5219428322654,245.77026955392645 156.52363334793517,245.95224148484542 156.59575195159542,246.39832629293656 156.95296393881435,247.1219877275666 156.95296393881435,247.7173812898803 156.7123069657132,248.66829632372173 156.54708925209206,248.92573770177333 156.36596257900803,249.20663498398181 156.16726661859406,249.51608990498775 155.68927332829736,250.2590111425531 155.26999526777115,250.399897506444 154.32997802207467,250.71517866877858 153.9601777311268,250.76130559486302 153.24822915471674,250.84936334576753 153.01934541544114,251.04808949396283 152.85916906085498,251.1864702722162 152.99751965134845,251.42878757305564 153.17109937973854,251.7315106193997 153.46793580923418,252.385559036007 153.6549189114282,252.99351071431124 153.57697406637502,253.64843457649192 153.32704944527893,254.16247207478168 153.15600549026482,254.3343612875663 152.89017190970583,254.39642736089505 152.31328345585803,254.3343612875663 151.95435076533812,254.1163451486972 151.67846465434036,253.84465513902822 151.0025904737047,253.1805240042866 150.69401099827212,252.78388677794953 150.5598565090216,252.61112211959153 150.45670486870776,252.4795034037814 150.44496182268503,252.18601781777963 151.45540715645774,250.78144084335028 151.79003868502878,250.36801921197693 152.23778382094403,249.8129263344405 152.2830956769964,249.0263535686683 151.56779625713534,247.91529236802208 151.56779625713534,247.47756957467843 152.65371103793345,247.26876070834882 152.65036019456826,247.02306237627704 152.64785460890928,246.77232268512742 152.63946240633751,246.1425754304904 153.29939743987907,245.57655457702768 153.22048658590847,244.85038755673867 153.21891682144988,244.8361389251213 152.6260288448166,243.3963328127739 152.34093546125789,242.75149166870608 152.13297185276318,242.15778862201924 152.05415156220099,241.87100472294088 151.9778368572978,241.5791794647632 151.31877726935105,241.6186047039457 150.86257955534424,241.8014218926781 150.3871220384235,242.14773609166627 150.13722760513022,242.3020258293826 149.78336646144808,242.3749896908777 148.806459749988,242.51753638261414 148.10543914943986,241.18423275405303 146.13903742279078,241.78967884669825 145.83296353310297,241.39636227603083 145.18223577212237,240.26854685812967 144.2983979829062,239.2715048982038 144.02758341874622,239.10462685671567 143.6896312346128,238.98638132694953 143.16300543252976,239.0392401277173 142.6414511771987,239.0920385529224 142.39744336073235,239.12726769084045 142.0997616735305,239.17004377347394 141.33413922629913,239.28074235852463 140.2155008931776,239.38724484231093 139.18830134214997,239.662255507671 138.55852389975306,239.83163913479666 138.2071985294469,239.1784359760028 137.92376547384097,238.6526554317332 137.734276785988,238.30048480365647 137.40052070292592,237.68163533718587 137.03657684117383,237.00491589865095 136.6591994177292,236.66780897220227 136.09906518113633,236.45818503586202 135.79217622128775,236.34244509175488 135.58086176925624,236.26365498893114 134.66517587339726,236.25438734082894 134.16623226451685,236.16971062115678 134.03624368879235,236.0764001967264 133.8358270249916,235.9323743038111 133.798092301436,235.9055675562032 133.53310397866898,235.563449458458 133.27400227281473,234.9756330286625 132.4790373044279,233.49389609149503 132.26271168125004,233.22474185524496 131.7512099563577,232.95555743121352 131.17178572904814,232.52453632477182 130.59145586842678,231.55351623020306 130.17471358136237,230.85500121535682 130.1881471429691,230.23530649107275 130.07995414353445,229.68350408144605 129.675769972482,229.44121696836652 126.5790472422942,228.26386340536723 125.33377117681331,227.97541917844333 124.07258615204111,227.68528443589256 123.54683579555287,227.6584475004819 123.16526227086527,227.69449170843205 122.35607885868531,227.77162148341026 121.83449441563724,227.8202841829136 121.79174852084945,227.82448028417804 121.58544524013594,227.84458534488394 121.58293965447695,227.84458534488394 120.70498848217355,227.927601736732 120.01737125542935,227.927601736732 119.07735400973287,228.20182751981986 118.81822211616162,228.27729696695252 116.19107028598178,226.58089473436695 115.8816455527572,226.46349446241425 115.26448660189203,226.23038443411434 112.69013319693872,224.3729907769105 112.56853682370016,224.33779182675235 111.22182982137801,223.9419998582287 110.44029841459789,223.9822401674433 108.87977137467107,224.5611813902727 106.77248328406671,225.34319580142574 104.11426822951623,226.3293399731852 103.72602320572946,226.35198080733144 103.28914567015634,226.3763121570831 102.2275622390241,226.43750278481704 98.4272227593066,227.89155752878182 97.5878515683508,228.36366420225156 96.83234202707796,228.78713836397785 96.0977526165002,229.20049961980993 94.76532443349097,229.82357537532633 92.57248417761966,231.0570480192003 92.26474996006488,231.2306579353932 92.20521966013358,231.26419655768436 90.3864059843417,232.1086091077395 89.46232788591094,232.63103880855812 88.99858322721018,232.89349135790624 87.43636567161356,234.1253338617375 87.07160673970067,234.37438303726023 86.20874945678518,234.38778641106416 84.74379692467545,234.83221089133124 84.56517583716459,234.88673001994457 84.20376774878848,235.36218753686526 83.723268872747,235.7844541874448 83.58072218101054,235.90976365746764 82.25831634063726,236.89002121233582 82.25750127064808,236.89086647014926 81.40638703366953,237.5214589825997 77.19516169599758,240.26099991341425 76.89917052437973,240.5972615820495 76.62914084257774,241.72842784342308 76.49498635332725,242.02529446063573 76.24928802127693,242.25423857545258 76.05140713085217,242.43787083421705 75.88787993281503,242.59047005630646 75.26818520857387,242.87308804192318 74.28373155241982,243.13215956003899 73.2213028634956,243.41142670220472 72.86991711766963,244.56275839982544 72.7984022695506,244.85038755673867 72.31736001357352,246.78572605893135 72.22341564573482,247.7173812898803 72.08421979744934,249.75505636239765 72.05572253425748,250.0711827825242 71.96262342421078,251.10173317698136 71.47542286135312,252.90717366679354 71.31609176455896,253.49834094004004 66.456704627171,253.4312335076549 65.5980434454985,253.41952064945642 64.42826701501743,253.32557628168206 64.11546125053907,253.27443818430106 61.973819467632886,252.92308262623501 60.94239362764529,252.86189199850108 58.566796558625725,252.80812756437862 56.416762573233584,252.75874035816577 55.31406338729196,252.8107237133602 54.87045397709988,253.31552375130767 54.07636445439364,253.39769488534228 52.73131777985268,253.33816458545388 52.42023271884691,253.32476121164996 52.00599601735568,253.3062862909868 51.38129012179655,253.2794795433575 51.33012183672002,253.2769437699386 50.944412586309234,253.26015936490234 50.57123126410759,253.24343533540733 50.61234701891698,249.9370282933166 50.59640787165126,246.89811515960895 50.59471735606727,246.65661292880162 50.59384191047247,246.4318951030091 50.58538933238092,244.85038755673867 50.583789380119526,244.54431366696508 50.58215924005533,244.28856280451893 50.573736849766576,242.65169087182173 50.57123126410759,242.20895690718157 50.96871374825811,242.1963384156284 51.27059153678873,242.18628588525397 51.839963233659546,242.16699589458017 51.93218689802567,241.78632800324726 51.945620459632394,239.57000165550207 51.953167404412156,238.3339932381663 51.86260406782723,238.01871207583176 51.78797987850802,237.7579500421105 50.426994056701346,237.77887017286994 50.364958171196875,237.5625445496063 49.77291545235557,237.48121867338511 48.64845087792686,233.8544589221006 47.061056714700776,233.8544589221006 47.10633838303613,231.19962489873956 46.84304057585312,231.20720203121488 46.386873049649104,231.22060540504026 46.11687355564992,231.2281221619743 45.807418634622536,231.23654455226307 43.726152409439635,231.29607485215146 43.14754325211926,231.3128290694278 42.64189795633691,230.3132815238644 40.49775058785754,230.36441962122393 40.27970426120708,230.29064068971817 40.2579388726342,230.28309374500276 39.94513310815584,230.17743651902992 39.64410057741721,230.07516032426796 39.620614485543335,230.0667379339792 38.896922863110525,229.82103960188599 38.67893691197986,229.7472606703802 38.191736349122216,229.58122788668408 38.09613165350232,229.38920342541218 38.078532178455404,229.35481954530758 36.35529301039483,229.5803826288921 35.781725212195234,229.69358679958034 35.34149683325694,229.77995403487938 34.51552901610506,229.9426359751031 33.41032424450445,229.8247526986917 31.39190897490102,229.60803463431338 30.941597877806977,229.56027756816474 29.865765815078813,229.44538288184958 28.349644997806752,229.2827009416259 28.05951025521307,228.62110558030315 22.47564661320591,228.23370581428694 21.645452506922457,228.17580565446275 18.79355266319019,227.9745739206299 14.96058019464346,227.70457442656635 13.89893638799142,227.62995023724716 11.322922655171109,227.5335002838138 10.231151445263025,227.49241471680722 8.25382174266618,227.40191175580645 8.160752820422267,227.39765527897933 7.700389192889478,227.37667477267863 7.413635481635379,227.3632713988747 7.257625040489397,227.35656971197272 6.989316062074201,227.3439512203981 6.580935789692941,227.32553667529766 6.405695733521657,227.31714447279023 5.802755226535414,227.25842924291248 5.034627193645036,227.18295979577985 4.519774625301733,227.0077197395442 4.17261516852155,226.7762700390898 2.1064126449237706,225.40022051567658 3.8112070800596434,224.41573667176263 5.064814972506678,223.69044509706842 4.289985252714335,223.16215896713985 4.004046611363633,222.96675347463562 3.715602384439744,222.7705329120993 3.45481016291571,222.5927570824448 3.2275867515070993,222.43765227469638 0.675028922929465,220.75045731465033 0.26435437942301554,220.47937106056546 0,220.30437250655916 0.2582564480622479,219.9538320185252Z"/></svg>