<svg xmlns="http://www.w3.org/2000/svg" width="500" height="500" viewBox="0 0 500 500"><path d="M18.342162325837062,396.70082552492335 18.5667161848315,396.3039457556894 20.074934510188807,393.63531941916466 20.28903525924603,393.25614977513646 23.607333661351735,387.5188964403137 23.774470617660626,387.23060869131893 24.30712801328494,386.3083285416491 24.511866084751137,385.95529167257075 24.606921703525117,385.7902227775464 26.66870364438117,382.2275547287577 28.234376473462024,379.25289291694094 28.913302206665673,379.1745321932094 29.19839386091162,379.2455983006344 29.91390547889551,379.4220979346145 30.28363724312309,379.5139950597845 30.31706463440624,379.52444816974844 30.531165383356594,379.5881444586306 30.55101877213657,379.57949620217755 30.642953498451455,379.53907500350635 30.704544124904285,379.4712049908569 30.735903454715924,379.2977886482979 30.71605006604282,375.6776284946408 31.573769101166487,375.2149467740686 32.17309327384651,374.8921788025894 32.61283831413749,374.6551037722664 33.541360248939284,374.15373050435096 34.72053121654055,373.6033253824028 34.9931769016675,373.4769104336568 36.283120754200304,372.875330194155 36.97456765859894,372.43979647866934 37.599159780538145,372.1180813383914 37.980397485904255,371.93530231818795 39.55231210011704,371.77549757927704 39.89493346037626,371.69506879420754 40.12155538073534,371.62193462547134 40.61977015491318,371.2125336849088 40.92159430526627,370.83024314831465 40.99890219787665,370.61508956808285 41.46474241207953,369.17996781039705 41.686175378508004,368.6775793123718 41.79273693852738,368.4916793996291 43.04921579863217,367.7176980476782 43.11919147376444,367.6738175464044 43.4168795014951,367.4900232961178 43.90362593567928,367.16514966218244 44.35480171503279,366.8622726805479 44.94912493929281,366.46434008008595 46.02910416549767,365.73946578437744 47.38481236814372,365.4814845340998 47.544617107081365,365.45012520415463 47.719086280868375,365.4177506440995 47.804704019761594,365.4010557490304 48.18282083266861,365.3122795164263 48.78966522823048,364.96864292608393 49.36409746267252,364.56860466319256 51.140787749389496,363.3277678669289 53.697663572071164,361.5218615138409 55.76884579166311,359.3995041766152 56.52504181622541,358.40935401432256 57.10891193054821,357.84533728872634 57.531886873587176,357.38258036594453 58.11786265031262,356.55539343622024 58.251534614300354,356.2222099558685 58.36121706688571,355.951707534289 58.457325516861005,355.7124892403918 58.71846526084943,354.8685698144802 58.63803647577994,353.8836462071562 58.457325516861005,353.2392006965172 57.83269579388381,351.44998923852506 58.20457082165889,351.3162796734459 58.700679933434095,351.15963342819236 58.685000268421405,350.775274830287 58.674547158484195,350.5329356438505 59.457928789197716,350.2206583834533 60.18904487001143,350.01178418941817 60.97242650072495,349.62005577294326 61.44240283755025,349.0978138861647 61.655488356444145,348.44400569788127 61.88526877051406,347.18959489908764 62.076395238225345,346.1461263556405 62.56400649810024,343.88069677569115 62.56419450371771,343.8796439444898 62.48688661110732,343.5704499755137 62.1651338697914,343.0583603898074 62.531481533545815,340.66790710235006 62.53851294207873,337.6551929621185 62.115801206840096,335.01683552321947 61.88526877051406,334.32343336078395 61.52411006058338,333.23694914175366 61.56569689378364,332.2013768324767 61.60431323889053,331.88278258476475 61.88526877051406,331.85691301761517 62.25086441201235,331.8232600196498 62.34892812013143,330.91361384463625 62.954832487819715,329.60039490191923 63.90110214889197,327.8615689380797 63.999278660231916,327.64220403293575 65.46681257911769,325.2284380541493 65.89918780089255,324.5829397122822 67.49828802125656,322.1942160761262 68.4435424521655,321.1664647987831 68.68418958844555,320.52923870221434 69.02857820112422,319.2331658679575 69.28234812648965,316.24947978853294 69.20707069420591,314.80559697106634 69.30731526680363,314.34810420439806 69.54337506704347,313.8237942562816 69.90998593870508,313.0101813290872 70.32220696286164,312.5464091761955 70.89599997826842,311.9009484354466 72.64441422648798,310.97133606835206 73.2356165582889,310.4971484066146 73.64817599242866,310.0994414128348 74.35101603474496,309.2754129767679 74.57459226482781,307.7909209550661 74.43362568450682,304.65856006676773 72.60369221897845,304.2188150263966 72.16187911721596,303.2401332041778 72.11277206102699,302.5539128547211 72.08250316345467,302.12774181687985 71.9404461507875,300.14116210604453 70.33198325272559,297.7263808971482 70.3162659866749,297.595792224635 70.23170107898301,296.9116775376076 70.33198325272559,296.43850510598 71.82031058815807,295.2144008059036 73.84554424527187,293.86076066451534 75.18775364770447,292.9656285199053 75.21693211303747,292.94581273227016 78.09240218332424,290.7596839039527 78.8162236478047,289.95964497926144 79.31966497705803,289.0791396684093 79.4502160484798,286.7353493647017 79.48781716353024,286.07206569544604 79.53587138851789,285.2313047631651 79.58497844481373,284.35813166973765 79.7621172977489,281.212159177818 79.84186926274512,279.7958379776574 80.33079656162168,278.79624993548407 80.94602600586298,278.18839030975886 81.53512267515438,277.7977899267483 83.43503181581502,277.1565405108848 84.97457186994598,277.0051208206266 86.25925156636531,277.0144082960348 88.293885502215,276.960074684797 89.81988915498764,276.8734041146491 90.15408786542255,276.7219468232727 90.19379464287563,276.4390360337191 90.2063158141775,275.060315948609 90.55104283683936,274.72713246825725 90.64290236086451,274.63937146573636 92.25456135367524,273.08309891541813 92.85723202546983,272.48569239968356 93.15082153172294,270.8792599618949 93.21955637003641,270.12686164997183 93.21974437554701,270.1249439931065 93.39210788693138,268.23988729288595 93.45896266949768,267.4116099308155 93.67306341844804,264.77547095770024 93.88727697093987,264.1351991708285 94.2476084562178,263.2557466911777 94.42204002896682,261.48537339182894 94.39906574762088,258.94312440295863 94.39489202396047,258.4239658076279 94.34995869143191,257.95711036331517 94.19444047958928,256.3277412453521 94.19444047958928,251.72382311890004 94.23320722916877,249.878209988359 94.23320722916877,249.8779091794405 94.26140806548332,248.53081163207594 93.9511988664508,247.47903324221232 93.9115296900357,247.34224038571205 93.82271585639366,247.0414314653887 93.74127184116085,246.76671771892384 93.72664500745636,246.71659543257152 93.22008278563708,246.7049766880251 93.21955637003641,246.7049766880251 89.48294556300796,246.6204869825428 89.37536877293212,246.36874751737042 89.21669206748552,245.9970604952128 88.98168509844702,245.4497386647124 88.94829530830873,245.37137794095412 88.79266429324524,244.4533091161964 88.64116940069731,243.56340352655494 88.4636169354892,242.51685169171338 87.23428608039077,240.22528933678743 86.94389266899336,239.6852997237384 86.37675505088457,238.5718555052124 85.89327991363209,237.625548243022 84.2398460821105,237.39682066026026 83.17137279715104,237.19313542010227 82.68673202547637,237.66736068295785 81.6015262443029,237.3562114559983 78.24570192932961,235.3382724152445 75.79121394300692,233.9428574350385 74.04170926244116,234.1642904015204 73.85475651849717,234.18726468278618 73.70435205840228,230.0281677472814 74.02185587376806,228.3747715167978 74.68942607009204,226.69430248349073 74.83460397532518,226.44256301831837 75.65660195114559,225.01372064685594 76.3417694693743,222.9947663759655 77.27657079034603,221.6536474059058 77.17628861649656,220.08173279171973 77.02171043263439,219.53963751621464 76.73917565420889,218.54426079889998 76.73910045191916,218.54362157994487 76.47544143325517,217.6157388641516 75.57718839623944,215.4902230332418 75.46859637600026,215.23430984430215 75.28995347844598,214.8112973001183 75.2293780820496,214.52406238232484 75.15940240691734,214.19715828819648 74.98079711050791,213.3521860310301 74.91300230017488,213.03152372198022 74.6550210498973,211.8167820995483 74.09938937292704,210.55195579188222 74.05449364154335,210.4485151244288 73.43193197982393,209.5419146397182 72.90138024670912,208.76797088888543 70.63068651061958,206.6696030630621 70.08652317385673,206.16304084124283 69.34386355065274,205.47057870670758 69.04516029275875,205.19274406767676 68.18138747812063,204.80940069988128 67.90877939413853,204.68824990722212 66.35668056756086,203.99992389530928 64.34291525054759,203.32626231829926 63.15539683541176,202.93039777917522 62.54956766990634,202.72776537021852 61.88632160171538,202.72776537021852 61.88526877051406,202.72776537021852 60.67891219676157,202.72776537021852 58.36332272928835,205.77138762700423 58.35911140437619,205.77661418199955 58.08966181410494,206.06381149867485 57.41073608100816,206.78451207061607 56.820624181553434,207.41226268618595 56.371366058985096,207.88957124048937 55.64476211202873,208.9678960175491 53.065664030470984,212.7954639217938 52.49845121007246,213.89322847533387 51.74642890927745,214.3402305309201 50.560940954361385,214.1637308969133 48.19004024671213,213.38456059108523 47.44738062361501,213.14015334333754 46.608687752618586,212.86442436676276 46.172101205931575,212.72131452292098 45.98616369204403,212.65968629537673 44.55942698306439,212.07788424239186 43.78755129359627,211.76143325822738 43.43658248580248,211.61730818427571 43.09505155788945,211.47837206420124 43.094036327832995,211.47731923299992 42.65015516481273,211.29664587522583 42.246958408157134,211.13161458131958 42.145623403106356,211.0898397425286 41.91166926537603,211.06265413635063 40.642669233969386,210.91330250740364 37.88733472620519,210.24904120915625 35.96757219676458,209.3413878932176 35.568586765128,209.64324964476896 34.964900863170094,210.10074241143727 34.44890076147006,210.73680287342358 34.28176380516116,211.61836101550375 32.879054208621916,213.1359420184521 32.854011866018205,213.9120290328591 32.79539172765874,215.66984355978784 32.49458280736211,216.98475455268803 31.710148345447266,216.9972757239899 30.551845996682427,216.7140265243997 30.55101877213657,216.71380091771752 28.336501101913793,216.17215685557682 26.73427998909069,215.4954495882371 26.567218234964667,215.37114030192055 24.781127669511797,214.0457009968201 24.11265504635223,214.73609507004414 21.0565116182914,217.07981017148873 19.87102366326847,218.09714593998604 19.38578127370341,218.54362157994487 19.38514205477502,218.54414799554553 18.369084724187957,219.47894931651726 17.499032523273023,219.23664773122564 15.546895433857452,218.69353722561067 15.40634246580939,218.54414799554553 15.40581605020873,218.54362157994487 14.67894889545203,217.7712570759408 14.829353355546912,217.47356904818344 15.381864139951203,216.81660236624253 15.743135653316479,216.3853175767337 16.11512348431243,215.94237644158704 16.26552794451418,214.9668155119075 16.002320139161117,214.55215041525824 15.663910103814048,214.018477789524 14.12749094224906,213.2183636626232 12.140911231387014,212.40587876886642 10.295298100845958,211.05329145870618 8.216783663775896,209.5325143609823 1.2536963776288828,201.77134340810082 0,200.4664719129183 0.49092015795146043,199.97032519999826 1.4194796937912555,199.0302973240312 2.539128096304336,198.0547739954698 5.761355649579605,196.42957860127405 9.100522670521737,194.42416073182207 9.385689526950546,194.23201903397418 10.269278129223789,193.63769580966073 11.761252772929751,192.6114861780282 12.790771302585393,191.90387079413438 16.714823668120516,189.05885762695723 18.01627346179185,188.2190743236948 20.13069696367577,187.21012360387695 20.132163407256886,187.20937158156738 20.25771353036552,187.14951060641584 20.276514087837306,187.1401479287714 21.623912444200517,186.49671764824225 23.677346937522,185.48047231209117 23.774470617660626,185.03132699295742 23.98232958158592,184.07249855949186 23.994850752887775,184.01714971814425 23.554090482433477,182.91833233337618 23.544690203697584,182.89328999074573 23.338936902174932,182.502652006617 23.217786109489047,182.27185636251738 23.054822876947444,181.96055673111195 22.486745230965063,180.88163033618855 21.854820891547746,179.6804627162865 21.507010577464786,179.01830708046847 21.35348522480394,178.74987272020022 21.01507518945687,178.161791280992 20.537766635153456,177.32934019515423 19.763785283175828,175.98303227121735 19.219621946412975,175.03364171760583 17.306101202104294,172.21145242727533 17.20273573683374,172.05788947346963 19.549646933080606,171.4980840727588 20.474032745153117,171.11263504250724 22.91389389777132,170.0942840439268 25.25978986385486,169.1178206874918 25.58357306549743,168.99039050860927 27.545110433755763,168.21640915665836 28.288822888054202,167.8372771137216 30.55101877213657,166.68292288204188 30.552297209993352,166.68228366308676 34.41682701033342,164.71010517932717 34.861798605699875,164.4824304277668 38.95197269738056,161.84095209630178 39.553590537973825,161.4513669434011 41.31557878869657,160.13115419326925 45.97507136317842,156.64154511100722 46.902465264489166,155.87594880770902 46.903555696835355,155.8751215831899 50.82982652799398,152.6339806690884 56.77922535386377,147.7239518651348 61.52640372860349,143.55019049475393 61.88526877051406,143.2344539317809 61.88673521398831,143.23321309498883 64.89794530962746,140.58387613047177 65.17999127359717,140.34157454518015 67.89351334139877,138.01237347411234 68.60379840452093,137.40240818595777 71.70701842855095,135.59766746745228 71.87517061513005,135.49949095608562 76.87713414529165,133.01988542486947 82.14862246812112,130.72933830008012 83.00615349762732,130.35753847456803 83.914859644794,129.96272676667203 84.77024741085958,129.58776844750255 85.68312728168668,129.18874541472113 86.20548197184638,128.96001783193267 91.44771662715998,126.55666736201873 93.21955637003641,125.8067507236798 93.22121081902127,125.80599870139696 96.20786738661936,124.5418868149223 96.21049946462266,124.54083398369426 105.7111732014169,120.51973314036367 108.43308031789795,119.43761065066474 108.7464104096033,119.31333896546631 108.75893158090516,119.308112410471 109.10990038859208,119.16921389151464 113.21255805053663,117.53875434123213 117.07088366678276,115.65975142052608 118.98124591748748,114.89415511722788 122.31936010722829,113.55514180957083 124.55380636830704,112.75100436337533 124.55572402530595,112.75028994218393 125.86856695678809,112.27775672948475 131.3959308674925,111.00037164939867 134.8218436608189,110.29952446621071 137.29306414335562,109.87967041568427 139.5460101531747,109.49632704786208 142.69510353771372,108.67015534824766 149.76411316495174,106.54054099580685 152.26454971385945,105.41461320709713 155.8880563667914,103.56655600406337 155.8900492258663,103.56557837507162 156.53660039898813,103.23585419729577 156.58672268534042,103.20972142234586 157.51625985019868,102.64570469677632 159.3963532032242,101.5062029055367 165.84806532485626,96.77158330321699 168.59606761514235,94.06640868289651 169.07070649040446,93.20782482210883 169.0714209115157,93.20658398531677 170.7561764719178,90.15897601032782 171.929105654494,86.17641630989455 172.41901058228214,82.88432588494832 172.70098134396213,80.99174896171237 172.91726295760486,74.95575476793091 173.15648125155553,73.19162325366065 173.7820886035512,68.56773893515432 173.50432916678335,63.007962863330086 173.21528939553244,61.87368762708579 173.21495098544239,61.872333986939275 172.89338624963705,60.60998935285734 172.02231881866567,57.19659773077935 169.7985888752176,50.48479869641364 167.26690579971913,43.14532424868762 166.61516567277357,40.500687423565225 166.5002566652196,40.03379437813431 166.4595346576032,39.86564219168881 166.34146715644528,39.38829603626724 166.35507875998647,38.37622442391015 166.37181125620046,37.20859699861901 167.08202111713976,35.0549179325395 167.79956319534344,33.68142440242468 167.85389680660788,33.57696850483466 167.86747080911107,33.43912281710635 168.1579394227982,30.539625634272333 168.15801462508793,30.538046387443632 168.25506310293682,29.5692912595881 168.99666989483262,27.19000550328612 169.04363368747408,27.10329733201999 171.06364078961928,23.33273271818787 172.2992886320325,20.92731418693599 173.9819009288871,18.506215990724854 175.02950559501014,17.367729429595123 176.36020905619733,16.20732141837421 176.92629384310482,15.7132803678835 178.59642256969553,14.47349640284786 180.91723859213735,13.37054289543064 183.38116445834083,12.52135931340557 185.4763737905869,12.038824204106831 187.2223439662069,11.684471295973461 187.22482563984445,11.683907279254651 189.89138391511148,11.142676829386865 193.29845854982122,10.541021387648737 194.70432663996445,10.292478017251907 199.20499210452712,10.016636237322691 202.71648503570873,9.924739112179392 204.9526985493138,9.947675792353746 208.20730066256402,10.223442370046664 212.3611710431002,11.221977581018727 212.79358386601993,11.325343046235846 215.35256535110423,11.811036649191982 215.45491558621146,11.83085243682709 216.3615536720135,11.92278716308854 217.72038276733238,11.60107202283733 218.55659396458438,11.136510246517952 218.55907563822194,11.135156606371433 219.87097854193738,10.406221390250092 222.1082072855989,9.855778667210446 227.00579012054035,9.119398430283255 232.69506443247818,7.85562495384522 233.34665415505802,7.658181498765709 238.7486935492024,6.018284068602437 240.1128244017796,5.60467180318121 244.95393036180224,4.364887838118852 249.11513295981652,3.4687028623074534 249.89084396306873,3.3301051522695864 249.8932504344166,3.3296915399966576 252.08979477160656,2.9370982978844578 252.45535281195998,2.87125874545476 254.04087902982081,2.4722733137647492 255.37154488997,2.1369841709836455 257.4322739996247,1.475843765248762 258.8820225909883,1.0110563822739203 261.51410064377086,0.6893412419959941 264.3738534480069,0.5055469916826764 264.83029338347393,0.4626817205454827 269.243197845489,0.04594856258500875 272.7244218790983,0 276.8010219681689,0.34359898922424276 279.9720368027457,0.6192527635627112 281.22513156248425,0.8993058683773631 281.22750043279405,0.899794682859874 283.0574338983224,1.308631606676855 286.56794920059247,1.9749985673803447 287.0421368623299,2.2246323701233606 287.04943147866317,2.2277532626893253 286.9930298060341,2.548377970621064 286.4958678630576,3.269078542562283 286.20028549772957,3.6973176417414426 285.12447999529195,4.340710321152428 284.2178419094899,4.777334468984309 281.22750043279405,5.529845584235114 281.22513156248425,5.530522404308374 280.93507656107,5.603506168598724 278.75522711905603,6.01711843401995 277.62301994409626,6.1090155591899675 276.8867149093519,6.3618078555903805 276.5461992116022,6.7754201210116065 276.20669874390893,7.441787081715097 275.98007682354984,8.612648202899942 275.5560490493096,9.370949889891598 274.45200510951946,10.33602010846236 272.89467972797314,11.66773879978617 270.7159207181985,14.44604758886959 270.00774131758584,15.571975377579315 269.4980582032006,16.12241810061896 268.78991640362597,16.30624995205043 267.5156522161059,16.30624995205043 266.10038384722674,16.053608060095897 265.53429906031926,16.16847946655842 264.0051745149807,16.83484642726191 261.99667335418775,17.685045239396867 261.5151534749722,18.006760379674795 261.34489562609735,18.236540793664552 261.232092280946,18.50290709259486 260.0360384126581,20.873807800244116 259.93684667115485,21.232071224317725 259.54199736224757,22.652603749363735 259.66630664853744,24.38120220992148 259.32579095078773,25.307656083358633 258.5236463636404,26.1599229568048 257.5042425338319,26.986094656445932 257.10315143968586,27.487467924361322 257.1961013960572,28.0629529900314 257.813436502808,28.46299125292273 259.9744477862053,30.116274680051866 260.35557268835055,30.538046387443632 260.35670072173474,30.53932482535385 262.6911283477178,33.122295821813836 263.7408010752054,33.899398066303995 264.018635714263,34.84984145114354 264.0499950441815,35.40133700541123 263.59667600128046,35.71571992823775 262.784078304196,36.277668592496084 260.22197592654567,37.4307443862656 258.5539528623576,38.582804949925226 256.08589087342483,39.68474322723256 254.88156475989214,40.661319387022004 254.60373012083457,41.338139457716146 254.7886148035208,41.91471495570569 255.77665930341078,43.66835575889387 255.6731810348125,45.16405291286917 255.62196831611402,45.896221824910924 255.09765836802427,47.70006011666097 254.63392381622404,48.50115187255353 253.15180066477862,49.67934521116305 252.52826137404074,50.21933482423877 252.2263996225428,50.4804369670556 251.484830431685,51.93330645103858 250.52807005953065,53.0362599584558 249.8930624287991,53.34853721885297 249.89084396306873,53.349590050081005 248.4913680624232,54.03791606196711 247.65786414535737,54.688603357711344 247.00928251212264,55.891839038951304 244.01472971040778,57.11913943380324 241.72940914050687,58.77148283305878 239.53812895953723,60.950241842833435 238.84529081374035,61.872333986939275 238.84438838701163,61.873574823731346 238.42679040341386,62.429244101766315 237.31545184739736,64.85868974551202 236.4133634963838,65.70918936656545 235.216068791384,66.83797484004081 232.00534717935412,69.06584090605787 231.46629759423215,69.97345662085166 231.17282089130677,70.46855050257041 231.0474963748536,71.02839350437266 230.67877984078933,72.67344228732168 230.67877984078933,74.477280579045 231.45065553025745,76.93176856542114 231.4809244278298,77.55741351856166 231.2825033438921,77.9668520602156 230.80203629587785,78.9601231150742 230.5544705544995,80.23754579627843 230.585829884418,80.68875917672337 230.8323051934502,81.2642818435116 233.0862664333257,81.56509076380823 235.3705717730633,82.31711306457652 237.46995482896978,82.11647351474818 238.3034587460356,82.11647351474818 239.26018151704508,82.79224075421428 239.84717252393384,84.7704354163969 240.43420113196746,86.02277815385254 241.76682225004672,86.83330778962585 243.27398774409582,87.2761361214448 246.14528409072219,87.72633427180656 247.96577967636978,87.82661644560258 249.81868742335095,87.15081160501833 249.89084396306873,87.17472591418444 249.89283682214364,87.17536513313954 251.17755411960098,87.59995692415208 252.35048330217717,87.7002390979481 253.02940903527397,87.54983463779978 254.88649050591556,86.50113953938398 255.4682549578357,86.17216738391768 256.9816998381616,85.69688928983405 260.3459468028523,85.82221380623378 263.49504018728453,85.49636254333343 264.8539068836414,85.74701157615962 266.30470830631316,87.19991866126074 268.8980948116991,88.22665470849392 270.38025556418245,88.57758591514285 271.0591060950964,88.8282725491139 271.1521312537575,89.1280286382092 270.75104015961136,89.70351370385256 269.97916447014325,91.00597872768724 269.85485518385343,92.00865006130843 270.07106159531327,93.11058833861576 270.16107866462926,93.20658398531677 270.16213149593744,93.20774961987253 271.2450812101288,94.36281827274368 272.40387237334943,95.39718734634673 272.47960101905096,95.464756550051 274.3325087659253,97.51819104342593 274.79522808766905,98.44460731574493 274.45565241768605,99.69800288445533 274.67291166034727,100.89706484190128 274.76375595431597,101.40152140126449 274.8567435117253,102.25277304462749 274.2394460062262,103.2043068617865 272.66441049944746,105.25774135516141 272.3249100317542,106.05988594225529 272.3416425279682,106.17058362495052 272.4481664869496,106.88605764189643 272.47997703017904,106.95817658054949 274.9799623657758,108.9907048539431 275.6286192013003,109.84191889618795 275.84478801161526,111.49535272776296 275.3821062911232,112.54607828639854 279.8890511418558,114.82617230122396 280.48950334792005,118.0588153633183 280.56816488057007,119.2715641266486 281.22513156248425,119.39230130703484 281.2268612137588,119.39275252042592 285.4258153312961,120.16470341215705 285.7849811821519,119.96071736308056 287.42168251745943,118.7574816818406 289.0270245229554,117.37985202907664 290.0767348514811,117.37985202907664 291.2497016350953,118.23211890252281 291.77502681334835,118.6332099966422 294.2755385645458,118.73243933923689 295.5414553045313,119.30897723610829 297.30137549388945,121.08769798301833 297.8821247156463,121.57440681608435 298.2277917661817,121.86374739630716 298.44403577878643,123.11605253264466 298.44403577878643,124.34331532640516 298.5275854564219,124.54083398369426 298.52803666973284,124.54181161268599 298.81482037421534,125.21968451460818 298.8681011541716,125.28439603357353 299.61700256240067,126.19731350559894 300.23317203462244,126.51064359722415 301.3852701992933,127.0976346040862 302.32529807523366,126.84066858391849 302.5415044866935,126.78216124891347 303.531654649093,126.40825576097204 305.19448875935046,125.14651274472708 305.6185541348425,125.00238767080212 306.0435971392461,125.14651274472708 306.71522825600965,125.80663792035206 307.3868217717352,127.21250601052199 307.8474354309695,127.78592301485415 309.03502904828815,129.1678015936484 309.47368365644667,129.67849993809008 309.7212117966802,130.62586003148184 309.4391282316725,133.98175954866468 309.1205715851054,136.964768808016 309.3680997253389,137.28020456207057 309.8631560059128,137.56743947986402 310.03965563991954,137.88287523391858 310.03909162317404,137.89351634947326 309.96971756603904,139.0882165775879 310.2872213814048,140.26419145041362 310.5702825753241,140.83862368485566 311.1719004159174,141.297169282752 311.20739586856513,142.01471136103584 310.95990532936963,143.1051436971512 309.04950547762695,144.65303119884345 308.9784769714002,145.25570187066472 309.91666239263134,147.0372051000774 310.53478712278314,148.21054789484637 311.02984340335706,148.98554447690717 312.5593815608617,150.10564409278462 312.56103600995345,150.1068097273671 313.0656429737358,150.47620308150462 313.57735654834084,150.85097339508334 313.82484708753634,151.098501535397 316.15919951133645,153.4318763302054 317.29035385509496,154.14941840848923 319.94330052660706,155.35370692095722 320.7569510548929,155.81326774893674 320.7807525606778,155.8751215831899 320.781053369623,155.87594880770902 321.11104075525265,156.73137417483932 320.96894614154746,160.17292903208698 320.5449183672003,162.84155536861178 320.96894614154746,163.24260886161298 323.2689311461909,163.90901342343463 324.4355809424903,164.2474234587817 324.89412654035993,164.30487796255866 325.74327252129353,164.1043136149399 326.98098842496455,164.1043136149399 328.2541997813902,164.33304119772836 329.63393509647665,164.1043136149399 330.9426795065881,163.52984377937972 333.312564984074,162.03835795026313 334.4082614763296,161.63621402491574 335.39946446982356,161.5787971222569 337.5918350832462,161.8659192366959 339.43007839527115,162.58346131497973 339.9607053306757,162.84144256525732 340.8453091631123,162.89784423780625 342.11852051943106,162.32446483459225 342.37653937085355,162.29622639718627 343.1442413365544,162.21060865826635 343.8936315593461,162.41196262928608 343.89521080614804,162.41237624155903 344.2054200051806,162.49570031248558 345.5841400903174,162.69731749130565 346.89284689917713,162.89784423780625 347.6709643737772,162.7537191638813 349.1927567016377,162.6398629875287 350.00542960101194,162.8111736676583 351.63269305654563,163.50051490965427 352.0222782094463,163.4430604058773 352.79934285284503,162.41008257353892 353.5064694222564,161.8930672417557 354.4256286793603,161.95048414441453 355.4512742943007,162.3808665071412 356.30045787627233,162.72551832759348 359.3419368694838,162.69731749130565 360.580705604463,162.15210132326132 361.3588606802079,161.96563739377314 362.13697815480793,161.7792110654298 364.47136817964605,161.63508599147812 365.8490354335816,161.74995739791393 367.67163668173873,162.22418266079623 368.60854366521994,162.46753707731588 369.4577272471916,162.89784423780625 369.55067720356294,162.9887261328664 369.95278352776546,163.38560590210034 370.41234435579844,165.19151225516157 369.6697223337393,166.4835241690056 369.77511825922966,167.80268408788268 370.2357319184639,168.86495318885508 370.58876878762237,169.38091568941024 371.08382506819623,169.6388593385697 371.86198014394114,169.92613185745458 372.42806493074175,170.87243911964498 372.58422236151273,171.5909212258024 372.64115044963563,171.85213617197368 372.7466591784537,172.3346712812457 372.85216790727173,174.65864579731823 373.20622000648666,175.92140404367308 373.1707245539457,177.1841622900012 373.48928120051283,177.64270788789756 373.8005432308535,177.81920752187764 374.1964077699241,178.04481421212682 375.22791915876155,178.2681272343292 375.2293856022358,178.26842804324767 375.25754883740547,178.27448182276214 376.63735935488853,178.50324700666872 377.6275095171812,179.04846317471305 379.21927752006707,180.48253210117082 379.92640408947835,180.94107769906716 380.60841311410314,181.02252171424652 381.8356759078369,181.17082051196547 383.4974195858551,181.51550993350918 384.675575323293,182.4712174744622 384.7842425458219,182.55894087583823 386.0804281834866,183.60970403559193 387.8132003677315,184.4985191928605 388.5558223896837,184.75759087548428 391.0312541972395,184.67088270419143 392.83610771901925,184.58522736415335 394.13330858674044,185.30694316620446 394.5333844508301,185.530481795089 396.0896570010682,186.42034978361232 396.19512812884824,186.4506562823295 397.36181552618564,186.79324004144388 399.02457443436714,187.08047495921062 400.616380038291,187.10867579549844 404.1279105707244,186.75248043273604 404.57701828871325,186.7076223024972 406.56216915713907,186.15360747352725 406.56363560072015,186.15319386125432 406.84147023967085,186.0756603620419 408.07918614344874,186.04749712687223 410.34138202742423,186.56349722854554 411.86215912512137,186.73578553766689 412.8178666660744,186.53525879116629 414.9747794279942,184.69908354047928 416.7441374973399,183.4644885293208 417.9463203473251,182.80541618492384 418.4769096815848,182.77620011852613 419.1130077447694,183.2065072790165 419.3260556625184,183.92408695841846 418.9008998547871,185.99004262309523 419.0073862126236,186.3629328809268 419.78550368722364,186.8496417139928 420.6394250097081,187.20937158156738 420.64074104870974,187.20997319940435 421.62483743159476,187.6246382960536 422.0134073543321,188.05498305766213 422.2964685483583,190.2065940624037 422.5085012360509,190.34966630512733 423.88823655135104,190.23471969645524 424.2422886504591,190.55011784939165 424.6308585733033,191.46927710652227 424.4543589392965,192.61611111518658 422.68609130240384,196.51718919932233 422.47300578350996,197.77998504676862 422.6150251950323,198.75550837533004 422.9941572378889,199.89087404392052 423.0746236241032,200.1321227980108 424.10026923904366,202.11246072374092 424.646538238316,202.83940308076063 424.98494827366306,203.28854839989438 426.682225005367,204.32152623223277 429.2641807716904,205.43914417452606 432.02259857098255,207.16041041765914 435.7011156551454,209.7141653477214 436.974364612609,210.02960110177597 437.8964191555165,209.9026973385208 437.8976975934802,209.90247173183863 438.6361082906272,209.80087351898752 439.83934397181366,209.5418394375086 440.29894240088464,209.5992939412856 440.3375587460984,209.6608845677117 440.34489096346965,209.6734433401317 440.61749904745176,210.11627167195064 440.01588120685847,212.26686744658235 440.01588120685847,213.18497387245822 440.33443785353245,213.3572997826977 443.9065813832933,213.50037202542134 444.6846612567485,213.70089877192194 445.6393159665002,214.04558819346565 446.9125649239638,214.1604972010196 449.7065533779798,214.07487946207297 451.3097897210731,214.12184325476787 452.6070657909772,214.1604972010196 453.80921103981746,214.3328231112591 454.1152465151896,214.51142840766855 455.8250444180885,215.50891078741256 456.39116680614086,215.53605879247235 457.5578542035851,214.99189545562936 459.11408915278525,214.99178265230162 460.70585715567114,215.0774003912483 461.8735973844236,215.6801086641877 464.2435580640924,217.2290489970813 465.0216755386924,217.60193925491282 465.79874018209114,217.6311929224287 469.2307067550389,217.19366634784137 469.23194759175084,217.1934407411325 475.02985152517954,216.4540524150205 476.5161484004991,216.2827417349176 477.68279819669164,215.9955444182423 479.0970137344763,215.392873746421 479.9451068842086,215.36467291013315 481.1483425653951,215.47954431656896 482.10299727514683,215.73651033673667 482.59812875790357,216.48225325130832 483.34071317881785,218.03119358420187 483.8063653874032,218.54362157994487 483.80677899967617,218.5440351922178 484.8270100540305,219.66684208838828 485.81716021632315,220.26951276020958 487.0193806674532,220.44183867044907 488.39911598264655,220.49929317422607 489.10620495101983,220.55674767800303 489.14173800470564,220.9003842683187 488.92974291815796,221.61796394772068 488.96414793835265,221.78716896539422 489.07070949847895,222.30625235851537 490.80457211507,224.5716819384647 491.6222835637954,225.96502885733278 492.25417030206785,227.0398191295803 492.678235677453,228.3881951148551 493.2443580655053,230.82707863850828 494.02247554010535,231.54360548668222 494.87162152093214,231.97496547840063 495.26019144377636,232.60478415528172 496.74645071795106,238.14260117592335 497.1350206406884,238.945798594272 498.903288277688,241.49835028866033 500,245.11332148846697 499.89452887232676,246.08884481700164 498.443727449655,248.2979103255202 498.3382563219818,248.6415469158626 498.302760869334,249.67456234931913 498.203042712337,249.8779091794405 498.20296751004724,249.878209988359 497.20710197833023,251.91288152532684 496.5698382806165,255.75650510568562 496.3933386466098,257.7671119290148 496.1812683577723,260.17463612269603 496.2168014114581,261.3225229625883 494.9080570014535,264.19167604561375 494.19991520187887,265.9986352299031 493.77588742763857,267.2613934762312 492.99773235189366,268.49497325730647 492.7512570428615,270.9901832512723 492.6446954828421,272.3678881062726 492.0796259259911,273.1417942559872 490.77091911713137,274.576916013673 489.3556131471074,275.0646776779403 485.8890159472026,276.27001902160964 483.76771144125837,277.6184326080293 482.9906091967148,278.507285366416 482.67205255014767,278.96684619442226 482.7075480026886,279.9131534565859 483.06058487174016,281.0328394602172 483.22636818790255,281.212159177818 483.2266313958097,281.21245998673646 483.3415404033637,281.33676927305305 484.0162924126932,282.0647644613275 484.33379622805893,282.8971779460471 484.9354140687591,284.7051899615645 485.4305455515158,285.2201372320098 486.3507200386762,285.47811848228736 486.7893746468347,285.67341867379264 487.4451756942198,285.9658801465547 487.94030717697655,286.79833123239246 487.90684218454857,287.9462180723115 487.57365870427697,291.0587255718299 487.5172570316479,291.589314906143 487.8003182257809,292.70903851089236 487.65935164545994,293.3691260853725 486.9866676973882,294.94630485567205 487.1632049325398,295.8936273479456 487.5172570316479,298.4462918456884 487.3052243439553,299.3644358726824 486.6325779971353,300.9990315456408 486.1374841153097,302.37666119843146 485.6424278347358,303.0075327065406 485.5369567070626,303.69687394853656 485.88999357622106,304.643181210727 486.4561159642734,305.53304919922357 487.05773380486664,306.2495760473975 487.1632049325398,307.369262051002 486.72439992001557,309.97114640834167 486.70360650336204,310.0943276611939 486.1640305025325,312.5464091761955 486.1640305025325,312.546709985114 486.10409432527825,312.81935567026767 485.9265042589253,316.0039445073476 486.06848606930276,318.0405713022722 486.1321823581582,318.32359489518024 486.5635423498766,320.2506896420188 486.6951838536446,320.53792455978555 486.3859898846685,320.9097619864158 485.7854248752766,321.5698495609226 485.1128161294946,321.94273981875415 484.0515998597235,322.6320810607501 482.9904211910973,323.03317215486953 481.5762056534195,323.2911534051471 480.47945632996266,323.37786157641324 479.1718399534491,323.43527847909877 477.61552980195927,324.0086954834309 476.8196269999439,324.4390026439213 476.23575688562113,324.7544383979759 473.5838254441654,326.3326699995034 472.94671215103125,327.3081933280649 472.1330992237834,328.7140614182348 469.6994798561903,331.8036322376055 469.4759412272523,332.11696232920394 469.2524025984212,332.6099505484934 469.23153397958475,332.6325112175129 469.2307067550389,332.63345124538654 468.676917532671,333.2314217778399 467.6867673704852,333.72335716590123 466.1545219326875,334.111927088692 464.5251528146443,334.7605087220069 463.12029995455754,335.3036568287133 461.2371233101109,335.71832192536255 459.95868539882355,335.6932419816407 458.0744183220307,335.0196556068403 456.79707084298263,334.76065912645277 455.9990623785646,334.9674652591767 455.0402339450456,335.43326787226147 454.4971234394841,335.66725961113667 453.41188005727264,336.31482601434163 452.29429971612416,337.19529372407567 452.16374864459556,337.36137784920993 451.49531362258085,338.20638770746774 451.04932679715796,338.4653841878552 450.1865692125763,338.85391650955455 448.30233973682147,338.9312244020581 447.56806516240374,338.9312244020581 446.386788532293,339.1390833660101 446.00344516452424,339.2947143811537 445.3004923188802,339.99345590191234 444.99554727596114,340.1177651882289 444.7897939744385,340.2013148658376 443.22408354421276,340.5125768961249 441.2771730097658,340.7193830288489 440.60663232534847,341.18623847316167 440.0634842185352,341.7554817537265 439.32920964401063,341.59985073858286 438.65870656073815,341.3930446058589 437.8972463800624,341.37300321154163 437.8964191555165,341.3728904082139 437.6685187973007,341.3669494320271 436.67836863500804,341.54867562100253 435.97541578936404,341.85993765128984 435.1764296958207,342.11897173279544 434.5695853002588,342.2223747991574 432.33438701681706,342.04170144138334 431.42568086975723,342.0605019989086 431.05696433558614,342.06779661524183 430.3226897611684,341.80876253373617 429.36491415885075,341.6270363447608 428.5032846077601,341.65313151859255 427.83165349099664,341.8348953086861 427.03364502647173,342.3267930956293 426.33072978197254,342.5346520595546 425.7562975475305,342.3529258705792 423.6798511718251,341.7565345849545 422.7858094595078,341.6792642935425 422.1152311738387,341.80876253373617 421.4123159293395,341.80876253373617 419.815321371485,341.2645991968932 419.14474308581595,341.187291304363 417.7075532668991,341.39409743708694 416.71841833466294,341.367964662137 414.8666010201348,341.367964662137 412.63038750652976,341.73145464120597 411.0020336186499,341.3167895445567 409.5961655285067,341.16115852941306 407.45602286383894,340.823801325294 406.5629963816849,340.842526680583 406.56216915713907,340.842526680583 406.2110123438347,340.84993410024396 405.5080594981906,341.2384664219433 405.3157673958434,341.3115629895881 405.0285700791948,341.4202302120368 404.5177965325703,341.4975005034489 402.3787443002487,341.5768012550541 401.54839887678685,341.36894229112875 401.0699998902441,341.23944405093505 400.78276497245065,340.9542771944795 400.5268893845757,340.66914793914214 400.4307809346004,340.12599983240904 400.4944772234559,339.4773805980027 400.4944772234559,338.98544520994136 400.0798497278446,338.85590936865617 399.69654396111383,338.82981419479773 398.8023518444308,339.14103862399355 397.8435234110187,339.8147378021217 397.2366414142051,340.332805965133 396.75831762984524,340.64406799542024 396.2788658119943,340.6179728215885 395.89556004526355,340.38503391391464 395.28871564970166,339.8147378021217 394.8416759929706,339.6330116131463 394.17117290959123,339.3228024140871 393.372111613865,339.11498105125327 392.86137566838534,338.5707801133188 391.29664286717804,337.9754040577773 390.4025635537159,337.5858565059948 390.4025635537159,337.24951453195894 391.20053441709587,335.5135838539765 390.8120020953965,335.13862553483375 390.52999373257165,334.8660174507982 390.08299167698544,334.55475542051096 389.2525710514476,334.39912440536733 388.0389198613619,334.89211262463 387.23985856563564,335.0216484659419 386.4095507433187,335.22845459863913 385.8025935443222,335.28064494632935 384.68602843333707,335.82484588426377 384.5262612955443,336.13505508334976 384.6536914744001,336.44627951251886 385.5080264091575,337.53047006352904 386.0106405138649,338.1688617946536 387.3693944068941,339.892045694652 387.9762388025628,340.9031020769259 388.1360435415005,341.3950374649605 387.91254251370736,342.06869904199726 387.3693944068941,342.27655800592254 386.8899049880052,342.12096459189706 386.5389737812494,341.6279763726344 385.77232464685676,340.64406799542024 385.70024330921495,340.5542389315882 384.58995758439977,339.167058595589 384.0478999100396,338.15603981443326 383.5047518033332,337.8708729579777 380.3106498840827,337.45620786132844 380.6940684541412,338.078731921903 382.35475930095805,339.91802806512925 383.0890338753757,341.0836626313188 383.1851423254579,341.7834945844236 382.92926673758296,342.25035002873636 382.35475930095805,342.61278717660394 381.9390789742523,342.61278717660394 381.4283430286658,342.25035002873636 380.9174566786066,341.5505556767497 380.6615810908385,340.95416439112506 379.4165705707274,338.9853324066136 379.0008526428768,338.3899563510989 377.88330990276637,337.6640668252805 377.7963009225818,337.64285979638066 377.2440909471227,337.5084358101368 376.7970136893536,338.0003711981715 376.54219093267994,339.06264029911716 376.47744181262317,339.6590315847418 375.8392380871428,339.45222545204456 375.2281823665619,338.3709677879829 375.22791915876155,338.37044137238223 375.13632284253674,338.20823016209675 374.6255492958053,337.5094886413381 372.48551943457215,337.61289170770016 366.5463481119841,337.95013610849145 362.46440866451024,338.219623299961 362.23357541934587,338.23530296492027 360.98860250037967,338.23530296492027 360.3817581048178,338.4421090976442 359.90230628696685,338.77946630176325 359.96604017696717,339.1679986234626 360.34938354473593,339.815602627759 360.7326893114667,340.4370362560141 360.63763369258584,341.1890585567824 359.90335911816817,342.40586824055225 359.4886940215189,343.2090656588742 359.433345180198,343.88069677569115 359.3926231725816,344.3747002250637 359.0092798048129,345.7732736989271 358.74607199956665,346.79583602239296 358.5299031891448,347.63870261710326 358.2750052302883,350.0493853044686 357.7318947246199,350.670818932697 356.64672654469814,351.9659893401984 356.1996492868222,352.3806168357295 355.2732330145299,352.7430539835971 354.2830452510924,353.3916732180034 353.4850367866744,354.53117500924304 353.0380347310882,354.8675169832522 351.313609994271,355.67071440160083 349.81163345404565,356.1104218408538 348.82249852180945,356.1104218408538 347.95977853837263,355.7490375242142 347.48036432166657,355.334372427565 346.2990876916627,354.0904523398802 345.14909518928755,353.2360422028598 344.4461423436435,352.9248177736907 343.8936315593461,352.8230691563937 341.34931450911114,352.35452166189776 340.104266387962,352.14771552917375 338.64932884266784,352.26785109172306 337.90042743443877,352.32944171814916 334.5466335796853,352.35452166189776 332.34279462616206,352.35452166189776 331.35260686272454,352.66574609106686 329.9791509337012,353.442848335557 329.0851092214907,353.57234657575077 328.15967057811,353.442848335557 326.43520824025484,352.9770081213542 322.8902879176832,351.7069176575746 320.68644896426684,350.9570010192624 319.24925914513625,349.97207741193836 316.6621144249891,348.75417729584905 315.3846917437582,348.26227950890586 314.8415436370518,348.26227950890586 312.5593815608617,347.9617713975277 312.47793754573576,347.9509798775004 309.3486599488318,348.9098083109927 308.26240133645706,349.45400924892715 307.24089184424594,350.3094346160574 306.0272406542671,351.8374687289964 305.3504205835729,352.31481488441796 304.81355186292956,352.69293169724483 302.99305627728194,353.26322780903774 301.39185039440844,353.36659327425485 300.47584963101536,353.19426736404205 298.5164179252666,352.72425342607187 296.6050028433605,354.1624960762969 296.0890779439502,354.4466101015244 294.9213377153046,355.2236747448964 293.1384432446006,356.22115712464046 292.3675827851889,356.21799863098306 290.9063658537248,355.7302369667157 288.9468965468311,355.25187558118427 286.3879902639297,354.941666382125 286.15294569385316,354.9134655458372 284.54756608731924,354.7776879194201 282.41892936389684,354.44450443906834 281.22513156248425,354.24345127696705 277.45768784124476,353.60893246069134 275.7343159357358,354.7056441830301 273.7466833936724,353.6935349695281 272.96642265552487,353.8596190946624 272.9633017629589,353.86063432474555 272.9413803128143,353.864845649631 272.60297027746725,353.93688938604777 272.3053198508814,354.00058567492994 272.277081413422,354.0068650611533 271.78619885661544,354.1113209587166 271.36108065002895,355.1422307297438 270.8670772006564,356.8133746864978 270.66756568426564,357.20085417696913 270.6320326305799,357.2478931718736 269.8539151558729,358.283991896778 269.5865336268595,358.6412400907417 267.15810321319697,361.9292319941837 265.28643250999573,364.9278833173761 264.9657702009191,365.5817291067777 264.99186537472417,366.16454638989916 265.17464439490084,366.72961594669675 265.04409332358597,367.80019489405885 264.8979001882964,368.3527432795546 263.9160598723934,370.8218957007801 263.30820024666826,372.58286872139297 263.27266719298245,372.9337999280419 263.42517731558684,373.75685073511704 263.3416276379514,374.7605748999663 263.0874817014579,375.2149467740686 262.71075612984225,375.88860835110535 260.91428765663505,379.09308817803003 260.5862931301872,379.4795148372733 259.321429221403,380.9720910987361 259.2692012725412,382.5377263267255 258.5004840767839,384.35934994586415 257.16876538543335,389.18688190343704 256.7092045574004,389.2808846910364 256.1503767856813,389.3957936985904 255.4714886537294,389.8919028103923 254.80718975433712,390.3723698583531 253.54025778418827,391.8482136236286 253.1506350302496,391.49728241697966 251.81481781731463,390.29509956696774 250.90295317654397,389.47415442232193 250.01515324935858,389.00410288323366 249.89084396306873,388.99804910371915 247.6504567256964,388.8881786455698 245.7317470274571,388.9257797605935 244.37393316230154,388.79522868919844 242.71324231559157,387.86249542953794 241.9894208511111,387.34653292898275 240.5720844207605,386.08900123764994 241.61653059327958,384.3666445621974 241.8515375622112,383.5655152051867 242.32151389914338,381.9653997547128 241.84525817604128,379.05759272543565 241.5862240944555,377.7258740341118 241.338695954222,377.36659537992836 240.9888175787744,377.32166204745323 239.76260761624192,377.9483598317951 238.19588195595975,378.391188163614 236.52470039806084,378.2084091434106 235.14079135910026,377.452213118875 234.52033535978347,377.056348579751 233.75955199928782,376.29556521917516 233.7557918876866,376.2918051076541 233.1792163898039,376.2688308263883 230.64742051087083,378.6669171401888 229.70145165874376,379.38156393261556 228.35172203332246,380.40074215574185 228.16052036332144,380.83943436488494 227.72502424898062,381.83484868329106 226.91554744435518,382.6181927128864 225.9671345198423,383.1508877096556 225.10020321149332,383.4558703537195 221.90937258928142,384.20894548571584 218.55659396458438,384.5260356888354 218.04480518790336,384.5744659250046 216.97422624043438,384.20894548571584 214.1530521802672,383.06211147705153 213.7216921885488,382.59728649293186 212.82137109006155,381.6269897193657 212.4035851008463,380.86974086360215 212.4035851008463,379.1212890143178 211.8844641065803,378.99803255922933 211.28081580576728,379.0168331167278 209.66186219673017,379.591302952288 207.96560069508266,380.7391521910889 205.76800352669136,381.66037950953074 204.4143633853031,382.33197302522956 203.46079910789757,382.978524198298 202.43823678448513,383.67203916408795 202.0612104039243,383.80157500539985 201.70189414859593,383.83500239665625 201.69666759362732,383.83601762676614 201.26109627710363,383.8830566216706 200.7482922701524,383.94257918678557 199.99209624559012,384.1775861557706 199.2912490624556,384.52122274611304 197.49684865050614,385.3996223945358 197.38092441289575,385.45602406708474 197.36001819291445,385.7589010487193 197.30256368908402,386.5778157331453 197.17201261776913,387.38725493657245 196.53798261594918,388.02854195355405 196.06691584677768,388.28761363617787 195.44025566347383,388.51946211150556 194.98490616035303,388.6510660141286 193.56960019032906,388.9790605406032 193.34711439269927,389.19214605952385 193.24371132628386,389.56082499249663 193.2061102112334,389.91487709168484 193.09541252859162,390.47682575594314 192.70688020689227,391.43039003332194 191.92349857617873,391.82211844979685 190.644045434728,391.69156737837505 190.17403149675783,392.0048974700003 189.5128910910764,392.81437427454557 187.84588325694477,395.0317872305987 187.2223439662069,395.86055340715166 186.9507887134261,396.221448909282 186.5475919568774,396.9316963712593 185.5449206232829,398.6947374531834 185.1229609103004,399.0143469310052 184.36984817715918,399.44991824760905 183.63978492765366,400.7137293251653 183.71186626518858,401.5963026973553 183.65963831632678,402.4005529469053 183.63455837268506,402.7702847110794 183.42564657745157,403.1097475776545 181.24583473647562,405.6185691752684 180.20300541201024,406.54919677247284 180.10949143889337,406.63278405119974 175.93678289974056,407.43804953085953 174.9173414687872,407.70858955355715 174.08282232155807,408.06369448397334 172.933920251636,409.08208308367193 172.49000148747086,410.15160919983276 172.43359981494865,410.2905077187891 172.2842481860551,410.68321376425575 172.13594938825597,410.8712193394545 172.03356155200387,410.9892492395477 171.88210426070768,411.1208531421975 170.58697145424426,411.5866933564004 168.75598515751457,410.90885805559634 168.5345897921241,410.19650493118974 167.82434233025367,410.17356825101535 167.2509253258681,410.33438822003615 166.3276299460349,410.961086004378 165.62257143798823,411.2221881472216 165.33951024396205,411.3725926073699 164.8506957485201,411.63057385764745 164.56349843176466,411.7830839802519 164.48829620177065,411.8227531566135 164.0193350950018,412.07137172924666 163.6026019369879,412.2917518644738 163.45531836945898,412.3700749871139 162.65836273613542,412.37112781834196 162.0327177829949,412.37112781834196 161.44783243861565,412.85994231383734 160.99240773331198,413.2411424180853 160.8439209298954,413.3651508954834 159.9834570134407,414.04851356020123 159.70983369929527,414.145674841458 158.79796905841778,414.01719183137413 158.03865214139637,413.9106678724729 157.74201694486703,413.80933286744886 155.8880563667914,413.17537806789187 154.767355133077,412.79203470006973 152.9635168412468,411.9094613278796 150.84743889027115,411.06238340831067 147.6011842245555,412.8254244902347 146.49721548705512,412.9184120477242 145.73996663129148,413.1534190167093 145.22396652959145,413.7331154072648 144.6944300265331,414.3284538616614 144.43329028254468,414.8235477433802 143.20606508995576,414.0673141177264 142.43418940048764,414.25325163158726 141.15575148909338,416.2617903936052 140.52905370475153,417.82847845279593 139.75510995391878,418.88025684265955 139.59007866001252,419.01919296270734 139.45012730985485,419.0567940777578 139.34879230480408,419.01919296270734 139.2850960159486,418.9304167301033 138.6750931266759,417.28014139218567 138.47355115006542,417.2195659958427 138.04839534233406,417.17568549459565 137.67448985433919,417.2582199421212 136.90682548978324,417.51514836117076 134.60165153120923,417.48901558622083 134.3018954421139,417.76478216391376 134.04812551674848,418.01858969042405 133.4350017349098,418.7152631498447 131.59878888310465,419.8631123886456 130.79138013995075,419.8578858336503 129.91512375504874,419.62709018955064 129.3792702646756,419.1852770878416 127.73425908287145,419.9414731123772 126.80363148566701,420.9473029396558 126.76806083083635,420.9859192847894 126.1716695452117,420.97445094471556 124.55380636830704,420.94395644040765 124.06397664280864,420.9347441672358 123.62528443361211,420.8940221596461 122.97354430666655,420.8344619934398 122.7729799590745,420.81566143591454 119.62907552846607,420.5274112880112 118.94702890280334,420.4647302292656 116.75364305921732,420.1785481427002 116.64294537657551,420.1169575162741 115.06681943745058,419.24795814661394 114.48193409307133,418.92519017510796 114.50806686802123,418.50845701714746 115.63083616310027,416.70883005028287 116.06535464842264,415.571358719263 116.28889327736063,414.53736565681476 116.536421417701,414.05479294639787 116.78289672673318,413.7498103023339 118.17101709060593,412.2781778619439 118.58256129468923,411.7726308702612 118.79143548877785,411.33814998600354 119.00034728390446,410.1411560898688 118.91886566763365,408.5869892019799 118.8958913863946,408.1545763790335 118.86979621248268,407.29392445690786 119.24234806033103,406.54919677247284 119.86201443603309,405.3104656386385 120.01869828251164,403.95366700359284 119.2092214778862,403.7447552084395 119.6009122932964,401.86575228773347 119.52258917062956,399.12715027612984 120.09912706758111,397.9834747611229 120.16699708020387,397.1896400204188 120.17745019014109,397.0695420589876 116.05283347712079,396.23502291181194 120.28085325655651,393.23216026373404 124.35534768322451,390.33687440575875 124.21122260929955,390.03290699180474 124.0367910366574,389.66212239640254 123.89262836148072,389.35713975233864 124.55380636830704,388.787708466183 125.22539988403257,388.2092529124196 125.77268411346826,383.3336291287409 125.79986971961948,383.09448603707995 124.55380636830704,382.9960839190311 121.4987157715544,382.75502317053156 117.87438189407659,382.43436086148165 117.00538252436297,382.3581058001795 113.88242191488071,382.1084719974364 113.55025366466558,382.0823768236047 112.7909367475373,382.0218014272618 112.0127816717924,381.95912036848944 111.52396717635044,381.9204664222377 109.39220956036212,382.00089520730717 109.17495031759407,382.04477570855425 106.96381674784446,382.48970970280254 105.8932001992306,382.7059537154073 103.89304648597226,382.93674935950696 103.50030283936074,382.9816826919821 103.17761007017123,383.01928380700576 100.80140760526363,382.7320112881209 93.34386565632626,381.4096928755597 93.21955637003641,381.3921707559447 91.12430943675234,381.09636278393447 88.12565811355992,381.10997438758255 86.90674276736071,381.29794236166316 86.68636263202669,381.3314073540377 86.03353207273494,381.56637672193136 84.4407488397926,383.02759365342223 83.73463750043774,383.9676591305074 83.40566534497142,384.03552914315685 82.71628650183057,384.17653332454256 82.11049493747002,384.9536355690595 81.30417662655543,385.9887190638272 79.58388801246754,388.1946636798065 77.68924302792037,387.80398809453294 76.17162442382717,387.77684008949984 75.80711921467507,387.8708428770725 75.4781094580639,388.0244058309049 74.89423934374109,388.35236275626136 74.4565999657459,388.71792079666824 74.13905854923524,388.9842870955985 73.20741572197436,389.76240457019856 73.1593614969867,389.8020737465869 72.98910364811185,389.9441683603188 72.0104218258129,390.07050810682847 71.53935505664141,390.13217393549087 71.12995411610562,390.1843642831811 70.76958502957594,390.2313656769674 70.67452941080195,389.7300300101702 70.67140851812911,389.7154031764122 70.48238771292735,388.71792079666824 70.08129661878125,388.64896035169926 68.21060354449162,388.32626758242964 66.40996134751713,387.3350269877908 65.69241926931345,387.0812194612805 65.38115723897273,386.97052177861195 62.85037659020297,386.9047198272737 62.26549124582372,386.8890401623145 62.01269894936987,386.8827607760911 61.88526877051406,386.8794142768697 60.420930946483985,386.84102353841826 59.50598301418536,386.31874405052156 58.46149924073516,386.2926488766898 57.730383159921445,386.71047246699646 57.45777507583249,386.7908636509478 56.84254563159118,386.9715746098133 56.75899595395573,386.96213672995924 56.546963266263155,386.93709438732884 56.38087914115559,386.9172785997204 55.49206398380687,386.8138379322403 54.83193880828875,386.7365300397101 53.65694156445476,387.5199116704236 48.757290668255514,385.7996606574271 47.395303079225805,385.3087404994757 44.30050570491321,384.1953338820678 41.36656590073959,383.13934416731877 40.64169160495093,384.18698643453325 38.874439198114715,387.5752605117712 38.33655524752179,388.37744270000996 37.999160442338045,388.87979359691707 37.613786614349515,388.75552191171863 35.343092878259974,388.0244058309049 34.44690790239515,387.83640025570617 32.82795429325117,390.62824544620133 31.49315231058641,391.29359717682166 30.55101877213657,391.65298863435964 30.373466306928464,391.7207834447728 30.178128514305026,391.795985674847 29.96504299530426,391.87746729111774 29.784369637637056,391.9463901349953 29.26318058211328,392.22629283533735 29.0041465005275,392.3652289554118 28.65220006382212,392.5542873618119 28.034864957178172,392.88536517973426 22.086594164692567,395.3283848260099 21.293812255243154,395.6542736900551 18.342162325837062,396.70082552492335Z"/></svg>