<svg xmlns="http://www.w3.org/2000/svg" width="500" height="500" viewBox="0 0 500 500"><path d="M270.1140711262894,473.71664762082975 269.93479281362335,473.84504709013254 268.11891170404505,473.62533148766596 265.1780639283776,472.50909775734675 264.39583335176957,471.91323309357574 264.99176129777936,470.91128691450115 265.19565636439495,470.33466002234644 263.75598759835987,469.6843094329554 262.92452351403256,469.3098689894887 259.70422179228785,468.3800011719615 258.56856044390594,468.90201557424353 256.96720580104227,470.14835739170326 255.83692343481368,469.48035108423596 255.32889438633723,469.179824184452 255.59429969637017,467.5679014235931 255.64182458629668,466.8366129725871 255.37989979404304,465.87149700110126 251.40192096744616,465.0366156810535 249.03402971961776,464.8484145861262 249.3627804554282,462.33124076159976 249.60015177592604,459.60485617040825 249.9024505756066,456.1067458385001 250.04312678083227,454.4350847341205 250.2558180653666,451.8879151735811 250.46844606770722,449.794352018047 251.1329718572603,447.6199142830467 251.40014906745964,447.1329581883219 252.8679151052236,447.1154290345433 252.9856831744723,444.97959340716324 253.0701015538666,443.4309527898431 251.40014906745964,443.13042589005914 249.97275703712253,443.2640144951588 248.89170817879312,443.17782421559815 247.92488358937962,442.97044863115826 247.27446971788473,442.45710388254236 246.46939428731366,441.68550470607835 245.99325943913433,441.42883233177037 245.6115415492301,441.2231020830644 244.9242341880876,441.15456752157996 243.4178027605096,441.0016145806113 241.01833372281334,440.7784184602305 236.72571607864407,440.70804871661073 233.96237471547627,440.66413090898595 234.28758165131364,439.27723945064315 234.0819146847115,438.9343767968195 233.45086514922053,438.6883358226106 232.7864026418612,438.4298915483161 230.56798381699736,437.56330587437265 229.53971226636028,436.9656693105252 229.69785434303589,436.56661211324376 229.71019436110757,436.5385148414699 229.74360733279602,436.5015580696285 230.40458932237604,435.7650804828256 230.80181133752214,435.2745805880828 231.67364942927637,434.1970755296365 232.2537568392553,432.86637861475145 232.59832811109655,432.0718080202067 232.94112748277144,429.4455990622915 233.1168619954644,425.8455411971205 233.35239813378195,421.0044572144944 230.96349721435067,421.0044572144944 229.7224710968056,420.77069297616333 228.7925399972196,420.5948951813216 225.8693479395834,420.0904099328631 218.8028208141612,418.86520435130393 218.55494465795186,418.82299516156183 218.47058956039163,419.14294967940856 218.0385623663734,420.7861971013153 217.89048215041268,421.35080038618725 217.44927904567285,423.02423339059834 217.37897258397706,423.29179029360057 216.74089873055385,425.718976909998 216.52643554603296,426.53639235837096 215.18162671308974,426.3237010738815 207.87785483155724,425.17405437173903 205.89674404499746,424.86295935400483 204.61534392002548,424.9507949692544 204.1969223868751,427.57877582715616 204.03346461006,428.60363014216273 203.4023517921954,431.54624981790664 203.19326759000774,433.35504332735894 203.1316940643966,433.88946102977155 203.07195572078595,434.4132473320401 202.97526060533392,435.24648331635393 202.4215418491112,436.1394576441885 201.62342745463832,436.0463063288444 198.35920792531383,435.6631329495628 193.5922273327719,434.8852688408622 192.60926579671846,434.7244689140719 188.9792754777282,434.2058717476002 187.73306022443123,433.26891632999207 185.1050793665295,430.7622473412671 183.39291769033545,428.960478149747 182.37685959320265,427.4223423682733 182.25909152413382,427.24483595559377 181.53666257315035,426.15138379695395 181.00401677072432,425.3445997486351 179.8438652329602,424.2793714260667 180.6717855171346,422.76408049842115 181.03742974259265,422.0961374731027 182.02887108577588,420.4859233301265 181.3520685603449,419.8091840868443 179.92992894813335,418.3888163745744 180.02662406340554,418.249975351574 180.61375579149654,417.4132588493909 181.56830364503216,416.0491489627275 182.8057859624243,414.54967857097785 183.44923879818072,413.7692198944013 186.2986438763418,410.4943689650228 187.49391700394688,409.0916569707841 187.56257812968394,408.32347503004047 187.26540518356154,408.13185669934774 186.58866594032432,407.69242549445954 184.89764049994082,406.72553762294217 184.24899852843248,406.2544653462621 183.14681343393278,405.45116181585746 181.8407332729973,404.50015776238484 179.89480735847226,403.3980359500789 177.50945023901406,401.7720012712068 175.37544979372436,400.2373460076473 174.5914473171298,399.5975635362065 172.87226132282368,398.8698188852185 171.11972563902285,398.08575312647514 170.16694968547378,397.4776117268262 169.17550834229056,396.8465621912003 169.4304720986259,395.7707657506367 165.55614942339938,395.3875290892063 164.64381075965085,395.2117312943645 163.24812308338932,394.9427821842236 162.8157161963884,394.8601357047259 162.1423941887367,394.98321947397915 160.95408209704993,396.2137407555879 156.93927306281932,395.9078348736056 155.3624718917115,396.0185786248322 154.668076930443,396.0678121325065 153.9104631076047,396.1205894402438 153.09659145929473,396.17855588373305 152.5709699748009,395.84100893000385 151.0663104473893,395.35240749954517 150.96436291399158,394.76002335364336 151.29482226777463,393.8247765539179 151.2526130778077,392.89490873639073 151.21046717039425,392.0757846700901 151.13484500873886,391.9474484829361 150.6058062886595,391.0580179551646 150.34729873199137,390.76793260907823 150.25414741687212,390.66244127575237 149.91311994518378,390.27926789647074 149.3805374249515,390.00854688629835 147.04789433099188,389.05754283282573 146.15403405325398,388.6936705073542 144.7029112189606,388.10305826143895 144.25468379628853,387.9202361487099 143.1612949197076,387.5335189693653 142.57068267383727,387.2821622951518 142.31755409968224,386.8602602439973 142.3684962251943,386.3557749955388 142.70079076115763,385.7545946316733 143.54807538115605,384.2182307502311 143.84157796309773,383.4834617813109 143.95232171423436,383.2092602532243 144.79606253443956,380.9240787669974 145.04748249080185,379.91504498788674 144.99818570106865,379.1574311651384 143.86973851702038,377.97968719131194 143.4478364659108,376.71752483791136 144.83124740629444,375.0247274975863 145.8419898031079,373.6272046391445 146.2393383826415,373.25105557779506 147.1551575643492,372.3809893859375 148.10609833553812,371.7217792964339 149.24872071983836,370.9307525018622 150.93272184210977,369.24675137950084 152.02788261867727,368.08659984155685 152.09287338005376,367.3553113905508 151.89068693141078,366.8490542420159 150.66022893195085,366.36209814729114 149.56513143757712,366.36209814729114 148.01465563821162,366.8999963675729 146.86678083614555,365.4515946657229 144.99818570106865,365.24061199907123 143.1261733300465,365.0296926145684 139.93744939798984,364.8116856299845 137.7349143913506,364.66056787115116 137.42546470917043,362.4298090283955 137.0545680657667,361.216943464863 139.4980181930567,361.50348501093134 140.84099184381964,361.6423260338868 145.03697765491046,362.073024303005 146.2322507826954,362.15035508240817 147.39240232045952,362.2242053439422 148.2730999125061,361.51753364679575 149.41920281458565,360.54014093943204 149.74440975042302,360.39604749857585 150.9344304600824,359.86688221406405 151.9803577289306,359.8001195526111 152.03129985444266,359.80360007052525 153.07380988752547,359.88447464999143 154.3042046047916,359.74911414490526 154.67510124819535,359.36239696560557 155.06188170964384,358.65578855056305 155.3185540839518,357.5570839740225 155.36595240949077,356.8838885307583 155.42050161734952,356.0998860541638 155.43632215320048,355.87485475164766 155.40290918133218,354.9151177623601 155.2271113866253,354.51258004716453 154.21984950741125,352.2115147428929 153.799782638482,350.8861335281024 153.6591064334362,350.4378428231017 153.48508053853598,349.88766786694197 153.3778805873724,349.55189281319934 153.09133904134904,348.8100995263469 152.49363919535276,347.65697230633515 151.87841019553287,346.57940396574 151.27191413179767,345.9149414582908 149.19423479417338,345.02203041265 146.25857615425787,343.8987090822498 142.34742327121776,342.1391490804268 141.22941764104698,341.6380810676888 139.54364461860916,340.9614051066004 137.69966623730198,340.2072718017212 136.49205309162525,339.5375568764162 135.26691079230477,338.61465009467247 133.12930326484826,336.6248063724327 132.57330635162847,335.9585719649969 131.70368313467756,334.91618849625667 129.99335664066382,333.7419250402545 127.59034380299448,332.0790601538386 126.54973223428573,331.5252781155121 125.44754713978602,330.6498962236049 124.36820689924937,329.79210676758026 123.65634606635105,329.2242760933893 123.21685157922414,328.8779962038452 122.7844446922232,328.53348821424265 121.06880249807,327.2537334249596 120.52742375991897,326.851195709764 119.97724880384919,326.4416336766362 119.1404690195623,325.8193170768252 119.1352166016166,325.81412794102835 118.17364442996893,325.0986600259182 115.82170028237904,323.93496468791125 114.78982164957515,323.34954157783784 112.25328348899991,321.90993609390654 111.93858138905391,321.73065778115057 111.90871221715865,321.7366063026881 108.14348795746974,322.4847278038809 105.1181585200344,322.8327795934565 102.83829273376713,323.17026326508187 101.28788021659538,324.6205001491572 99.86751250419053,324.0034992493957 98.84443008930538,323.54293180856206 95.73480883668341,322.1455355143729 94.14927472967072,321.41070326330384 93.81527157609446,320.1116474202557 86.80854607629684,319.99394263320073 82.38411172701444,319.99394263320073 79.69980976126743,319.7917561845128 76.44438645004153,318.9567483002124 73.93942607897446,318.506748977329 72.38553304384357,318.78981000548316 71.2921441672626,318.5384533312697 70.40796605761658,318.2431155672376 69.78912997562986,318.0373853185317 68.41983095330444,317.420447700919 66.21020834635935,316.53620630889935 65.54226532104087,316.5854398165737 64.99905140070955,316.5150700729539 64.2854186678247,316.4201468575783 63.78270531930783,316.35515609615686 62.620718599183554,316.2022031551432 61.77520587899181,316.5186138729719 59.86446483632161,317.23585368811354 59.17361367484632,317.54644244874726 57.52650604222253,318.2870333748624 54.661217146016725,318.9567483002124 50.73595234509828,320.2294154894144 49.95024125053111,318.1534447698077 52.597523162242965,317.0230991214753 53.376273220891825,316.6909311498995 53.74008226434945,316.53620630889935 57.06593860147882,315.40592394271573 57.14149748076059,315.37953528882457 58.2911441828132,314.9893375916107 59.17361367484632,314.73633558166335 62.068708460753626,313.9065168331149 62.16369495823305,313.8783562792372 62.94067311707524,313.65686877673915 63.38010432200839,313.5303044896167 65.39633669786953,312.9519689795793 68.80648485036538,312.21194759275835 69.31982959880145,312.1012038415318 70.91422320610651,311.5193245314764 72.84426530258683,310.81448801646536 74.54066972512368,310.1957152166724 76.87856523684914,309.6121272887343 78.18287349779806,308.998606906887 78.75241278987173,308.73136641462884 79.72442651503715,308.274406055962 81.27844611455558,307.76814890742713 81.92531618607741,307.55900142295576 82.72330401634262,307.29878524862977 83.58463727238534,307.01933130264246 83.98192256972519,306.889223215457 84.28257603380675,306.10522073886244 84.31244520552214,305.74489221340895 84.35636301328184,305.2262950468923 84.42489757481125,304.3895785447092 84.46887866458485,303.86572896029185 84.51634027213775,303.289165350286 84.59189915159938,302.5438282634155 84.64113265931867,302.0428868149301 84.73434725681156,301.12175193321787 84.8502801437001,299.6187377414502 84.68334184910574,298.0226987986361 84.52336459006997,296.60587488638413 84.40034410305545,295.51951032782534 83.74644971360141,292.67181386745705 83.13292933175414,290.15286814289914 83.00282124443378,289.61674182264886 82.81126619606968,288.8326760639055 82.62490028327767,288.0117800975734 82.4034127806447,287.04147499033564 82.2943776474807,286.5562907956423 81.97454969379669,285.15180690137214 81.40254239814467,283.2234734226846 81.30648010409068,282.9000383869237 81.02348235822025,281.74861978479464 80.4047728404412,279.23492647818244 79.97059405363359,277.58604694548217 79.40105476155993,275.4274297463778 78.58395572370617,272.61966431861964 78.11446550065618,270.70936625085614 78.13205793667353,268.7865383186645 77.94923582385458,268.1097357932335 77.79457426495826,267.5401965011598 76.07007257069255,263.7380154694497 75.1310288423988,262.49629324844767 73.22788165686512,261.69647023595724 72.12519030535488,261.69647023595724 67.80333631050856,261.7401981971356 64.4490662910412,260.6318747347869 62.6929235248937,258.7931487713804 61.367542310148124,258.2113960256226 61.31134776669038,258.186779271763 59.17374023923385,257.3266483764575 59.17361367484632,257.3264585300111 58.1661619494107,256.9211364004932 56.401792504728604,254.74663538334406 56.23131040998132,253.87302539146842 56.86235994547231,252.6495917099407 56.77452433031264,252.31558855622956 55.672339235812935,248.10023840913482 50.96832437624563,248.05461198362732 51.51508209655002,247.04032578661597 53.518974454699205,243.31914589862464 55.10457184390567,240.88278337141563 54.87251622336742,239.95816797183417 54.48579904393286,238.40946407236527 55.33662746426405,236.15598694007906 54.98167792109881,234.3910479561027 54.79183149034763,233.4418158026616 54.77139135794904,232.179020627818 55.400985404242476,230.48869129111625 55.401111968450145,230.48831159822348 56.69732011525201,227.00817339509058 56.809835766375166,224.3204541936681 57.6606641865265,221.2863918205078 58.0320670873005,218.75390371723088 58.18970290696558,217.4648464528387 58.681974701604986,213.79100160823756 59.0774880989583,211.35463908107354 59.17361367484632,211.11524273194902 59.17405665002281,211.11378724266152 59.81580086780662,209.51591311766708 59.87724782921005,208.56668096422595 60.04247750601165,206.02311848580845 59.45888957825341,206.0653276755955 59.17405665002281,206.08621078294576 59.17361367484632,206.08640062939216 58.12116834543617,206.16373140879537 57.22294159956598,206.2287221702618 56.65688282545147,206.27093136000389 55.84655497711458,206.32896108564194 55.35080266433616,206.36585457537947 52.475705035830806,206.30542012826692 49.9507475077215,206.75965935476017 46.2663345450802,207.7704017517535 42.86662794646182,209.01142786916367 39.63575810681186,209.60912771515996 39.18227826601428,208.2309059104833 37.38747011023262,208.52624367447038 36.87596054379699,205.03344904261175 35.119881060023104,205.35511217834116 34.38163157318869,201.3085987903048 33.966690557817586,201.21715609288836 33.36386485826313,201.08356748783368 31.08912492573387,200.58085413936175 28.770593749832447,200.06750939074584 26.604888950647048,199.89354677808436 25.95985406130552,199.84076947034706 18.473133502746396,201.18026260319579 17.740136433857664,201.31207930821898 18.128625513098903,198.72637092220816 18.251646000113432,197.91243599170446 12.899052451231539,197.3481491175315 11.744153331233248,197.22690053045855 11.218531846739424,197.170642704852 10.636652536594092,197.11090436133128 9.995098165211722,197.04230651769802 9.92656360368231,197.41674696116476 9.817528470338452,198.00913110706657 9.756081508935024,198.34136236079118 9.307727521875453,200.80056974178336 9.158381662938725,201.61444139018326 9.052890329747788,202.19802931812134 8.880636335013971,203.13498473572952 8.787485019534985,203.63769808420145 8.388491104402375,205.81745151925128 6.43895810771049,205.62564334211214 6.438451850520092,205.62564334211214 6.0645809463475935,205.58893969882098 5.6778637669130285,205.34808786040895 4.909681826349303,204.86821936576519 2.998877501485333,203.67813537391206 2.4328820093847328,203.32653978427345 0.9070862459827024,202.37559901294966 0,201.2277242108386 0.028160553922635508,200.05877645493092 0.056321107845271015,198.9284308065985 0.6802830433901447,197.45718425092033 4.832351046901143,194.90128175452108 6.438451850520092,193.91110605417893 6.43895810771049,193.91072636128615 7.985890107102938,192.95712773993756 11.501529592789723,189.37111851063102 15.356487932192222,187.11947656048014 18.014337961809357,184.66558487953748 18.64361559749368,184.08370556943711 20.390962145542584,182.69852272897703 22.488069101004807,181.03382266038085 28.252312994059803,177.75371931305656 28.253262226246832,177.75321305591115 28.484052203809085,177.62190260803337 29.645975641739593,177.52520749267126 30.693674810574322,177.43730859527284 32.67839267912106,176.10838358041931 32.95259420725261,175.3384297396892 33.52738591727196,173.71777404301542 34.05129878379316,173.64569568151293 35.851296075326744,173.39604762513721 36.58783694418853,171.4659422464631 34.86510715008921,171.0599240133533 31.461983315525575,170.26010100081785 30.52325599784094,170.04038539839627 31.25460773113067,166.01842548207074 31.64126162837147,163.89670177265893 31.883885366635134,162.55720863985516 31.033056946483796,160.49003413821217 29.52833413687842,159.7148278795364 24.96860256452373,157.36282044970775 23.275678659946042,156.22203324767773 21.180406886484256,154.8104617533715 15.540195995004442,150.35153863573615 12.109987403092735,147.64021519474488 11.837494492933809,146.8210911284443 11.088676888194112,144.56046311392825 11.030647162376216,143.16123163760375 11.014826626525249,142.80090311215025 10.999006090674282,142.41772973286862 10.904082875208767,140.13425686452445 12.240095490233246,139.7844331748724 24.21263407746429,133.90450952352404 30.031174049602967,131.0497254630747 42.013647933341225,125.01862077074425 42.014787011929684,125.01811451359882 44.28718550508825,123.8742897686962 45.939482273643826,123.04282568441386 59.17361367484632,116.57577030506442 59.17430977843816,116.5753906122166 64.54797628147642,113.94956134719419 76.10240974598631,108.12760413933509 93.22383666224478,101.65535962418876 101.58929306628268,98.83759561772962 102.70907059661988,97.47525763109769 103.13451644788236,96.95666046462601 105.11202015209545,96.20961475982789 111.90871221715865,93.6398534740106 111.90959816733178,93.63941049901396 120.46844480209391,90.40347808786471 143.76861365160198,80.69314956873478 161.82921086036188,72.28364879272952 161.8307929137671,72.28295268913769 163.76602414617923,71.38194152908004 164.64381075965085,70.8132249048958 164.64488655604552,70.81252880130397 166.88083453455312,69.36387397085873 170.15043304603097,67.24392216147844 171.6428791199383,67.00313360521521 174.02823623939653,66.61989694378477 178.0325404375559,64.68099534714696 183.17953030220926,61.45892172546072 187.31223396971637,56.86217009911584 199.00531861105003,43.3075146406375 204.56889482667353,36.859886879395795 206.4005331900889,34.70133296244021 217.37897258397706,34.573819443130695 217.37998509835785,34.573819443130695 224.58377119306044,34.490350295788545 237.76227759018937,33.25457659627911 245.61451580999886,32.73249891189324 249.73317084164154,32.210421227462405 251.38553089221102,31.846548901990882 263.5410181564687,29.652746831076612 265.2214754789469,29.26957345179497 270.1140711262894,28.15277018218156 270.11533676926535,28.15264361788396 276.82147208699536,26.62229154008311 283.78250787904676,24.388115461562066 283.87388729435935,24.358119725549063 286.2117828060848,23.742954007967903 289.41809917397893,22.897441287776157 298.9448461947291,19.548676814669832 298.9475040447089,19.54785414682537 303.54583772468385,17.931564918059042 313.6272527336639,13.717986671040778 319.756824441388,11.694729977022595 322.8491696687816,10.381815344511391 322.8505618757854,10.381055958770762 325.3045801209807,9.339178747130987 333.83703810198654,6.129571707724085 340.85255981970295,3.5596205754603876 345.00810834117306,2.5471062784355483 347.0859142428252,2.285181486226866 349.68573454680427,1.9564307504164329 350.67363209001445,1.8210702453302352 355.81530625452837,1.1144618303326443 362.5179610542992,0.6082046817977421 368.13070749562803,0.3972220151460802 375.5843314931078,0.30248864626185695 375.58572370029145,0.30248864626185695 377.9482359659665,0.2724296280550913 382.23585432096513,0 386.5387869546243,7.521778866116378 388.04521838220234,9.523962606337909 389.88223572777105,11.967349451479121 393.564876790246,18.19538817459682 394.2847111734434,19.54785414682537 394.28521743045394,19.548866661116232 394.7409121462347,20.40494749925822 396.226270620016,20.40494749925822 398.82609092399514,19.953176276343328 401.14816589986964,19.726499638093337 402.8479875583517,20.002409784062618 405.2932095854484,21.384048824459704 407.8631607177121,24.221240448981604 408.666400965923,25.15110826650876 412.1645745801598,26.230448507135353 413.9294502820323,27.160379606811308 415.5712422146965,28.346856516497628 417.0231877166095,29.394555685332357 418.84957366189934,31.152343787078866 419.1906644156016,32.30711634282452 419.4384772899769,34.26531899327245 420.1187603331872,35.2286630647268 422.81173195246544,39.037868414414135 422.2545326784634,39.438697511727035 421.2947956891759,39.96602761405859 419.09744981828857,44.33597603785587 417.2392329545357,47.22410978793479 416.6047029010855,48.23137166705891 415.84348199608036,49.440756712677214 415.8382295781347,49.44784431275823 414.4249494660357,51.69081660924299 411.041126685462,58.81182966019526 410.77394947526267,59.37605325217444 408.63817712998645,62.54016043037144 407.83310169959526,64.17144752714427 406.13144485929257,65.70426760856844 405.3563018826307,66.90840023628603 404.4597837547331,69.87032096579507 403.40689545014646,71.55261347027373 403.3536118852637,72.28295268913769 403.3536118852637,72.28383863913096 403.3154527526401,72.80946012357981 404.05895465760005,75.3706150378798 403.59490669871735,76.50096068621221 404.77094205470604,78.00739211374525 402.85994788344067,81.34008292240541 402.07771730683265,82.70235762688854 402.08474162476483,82.77272737055328 402.1463151503759,83.37036393435581 402.2552870017059,84.41806310319053 402.32382156305545,85.06841369258159 402.6349798630284,88.07431551186424 402.8142581756944,88.45932407332619 403.0585905321106,88.98665417561277 403.5613671626414,90.06593113409056 404.39985556490086,91.86770032565565 404.23816968807233,93.0665805354725 404.1818485802271,93.47437066856882 403.3785450498224,94.47815202977876 402.70003390659866,95.35176202169937 401.58202827624797,96.78795026986526 400.5607177611695,98.34538710510412 399.8804347179592,100.35459516325787 398.7378756158527,101.74503042161867 398.39507624417786,102.16338867275516 397.0028690858755,102.81380254429502 396.382324386096,103.2638018671784 396.13805531187364,103.4413082798579 395.79702784036516,104.19550486684089 395.5807294734841,104.67176627931784 395.4260679145878,105.4751330918713 395.6528711171803,105.70718871231962 396.72512375777086,106.80583000671137 398.8591874850745,108.28770796253356 400.9333863047396,109.82052804391277 401.65410663775043,110.47796623342981 403.7178006215242,112.35712948654688 404.41371435418404,113.27990970399301 405.2135373668094,114.34172079084098 405.804719151884,115.91972432273106 405.68657138983247,116.46819066100807 400.1481181851691,123.62116119445123 399.20749240329025,125.01811451359882 399.2070494282936,125.01874733504185 395.79683799378387,130.08296415585497 394.7840705682088,131.56307021169064 394.16188053265046,132.47357369325888 393.12120568174794,133.99411703880514 392.7485371381778,134.54081147705065 392.3319507872077,135.1490794409972 391.40208296963556,136.50964552759763 389.21878573461265,139.39417219550973 386.66807237396534,142.7620478759798 385.0103966232564,144.96989858275847 383.9749741902996,146.35153762320053 381.76535158353437,148.6455153273911 380.20620613045776,150.2644624061822 379.7649397433443,150.72154932914663 377.01026803406745,152.8291611205002 376.76416377784466,153.78370897403582 376.8661113110625,153.88388460731213 377.630749451833,154.6380179121463 379.30070193824,156.14432277538174 380.78606041202136,158.70547768968171 381.0005235965422,159.1836375664428 381.324021914407,159.90081409948056 381.54728131684664,160.39827503000677 381.91115364231814,161.20689426046098 382.7704618697791,163.11940720325262 382.90765755704564,163.4253130852349 383.1889466851233,164.05104692081127 383.6653346618978,165.1092509254924 383.74785457709794,165.31143737418034 384.16096041028874,166.31515545324146 384.48445872815347,167.10618224776823 384.70417433062005,167.63876476800053 385.1506931356792,168.72512932655934 385.55316756877096,169.3807956159999 385.77288317123754,169.74118742360218 386.217693358324,170.46519842812577 388.97730107475763,174.96879873912656 389.19524477723763,175.32564674666585 390.68364079380166,177.75321305591115 390.6911713689243,177.76555307389287 388.43060663646713,179.4459471140874 389.2058128951429,180.400494967623 390.93904752531347,179.52156927565287 391.21672957122433,180.24931392664087 391.12535015591175,181.36029523905933 391.0744080303997,181.99666047473474 391.01992210473475,182.66112298213903 390.79805490947876,183.96770940030984 392.2855649760495,189.39889937166086 392.29955032972015,189.54122091253046 393.0729846884094,190.77180547624303 394.9960657491513,192.8090475240218 395.34234563878533,193.17652693166016 396.2002616590627,194.08525851324185 396.21779081270637,194.36477574137797 396.3232821460772,196.01890769197894 396.59197812766786,196.40227091770697 397.95754350361875,197.48072520829535 397.444768294387,198.13183518342703 397.25144134567665,198.37964805762246 395.3336127028805,199.7173692904397 394.4933524006344,200.30627291842734 392.7970745424851,201.4928131102175 389.2690950387267,203.7516059425982 385.5547496221762,206.41299977232327 382.86177800289795,207.8684890742543 378.0962528997335,210.05172302721834 377.6321416588368,210.77946767820637 377.7552887102389,211.9343667982496 378.7448948712418,212.86423461577678 379.8259437297511,214.0015412998926 382.6648439722007,216.99168586542814 383.32582596160086,217.68601754459277 383.7600047485883,218.48932107499746 384.50882235350787,219.1027781746959 385.5108318147762,219.92721794104605 386.26667373726826,220.5477626408255 386.86962600121024,220.92568360220645 386.94872868064493,220.97491710988078 389.11437019763656,222.33193939646318 392.17830174269216,224.1899664136348 395.82936501565894,225.42219631312622 398.3993161479226,225.8985842898558 400.0076951087185,226.04982861298672 400.31885340869144,226.1270961102411 405.9192598317688,227.50531791491775 409.38572909193005,228.108206896666 410.7269941247203,228.32267008118686 411.03631724251295,228.37190358890615 412.23342555229834,228.5617500195674 416.0988887275922,229.50921027302198 417.86553632945123,229.94338906000945 419.29995267754066,230.34947057526804 419.7877314401998,230.48831159822348 423.5293514604998,231.5500594029676 426.097530692777,232.55554938201524 425.8461740186085,234.13937487114526 425.68619675957274,235.1518891681701 425.5350157186355,235.44722693215718 423.8035529886314,237.48978467998546 422.92810781453045,238.52166331292426 422.6416295507009,238.83801074860418 416.83720149662037,245.2611483203288 413.4111695260798,248.97372183675785 410.04493918134364,252.73723747878887 406.2884478573797,257.36037775893493 405.70663182942815,258.82289137884317 405.0755190117434,260.4102606679912 403.3774692534277,261.93599314933437 401.6793562130981,262.9292063925491 401.00786938762667,263.68859211532896 400.51224363941566,264.2511070894704 393.7164375241659,270.0625594614831 393.13455821402056,270.9642667251326 392.6600054194263,273.1650931139791 392.2292438682042,274.56078079028555 391.9971882478458,275.11804334648133 391.6456559402661,275.9600755487589 390.754453512508,277.5034004659845 387.85840949441365,283.2234734226846 384.96590927647225,288.93639549719984 383.7019750231301,291.4360401679476 382.7650828876258,292.6999111392309 379.9226388450233,296.5284808247872 378.4759457610559,298.4234646138002 375.5843314931078,302.18748651297665 371.88055419464246,307.0087631846922 375.5843314931078,308.39641402873065 376.1045739954483,308.59081677374576 376.35776585179707,308.6857399891213 377.0169759412107,308.9317809632853 378.37222632785154,309.4398100118067 378.6991418814817,309.56289378106 378.2386377227519,310.45941190891256 375.5843314931078,315.24651622306413 374.54979501014424,317.1120738153134 366.0028454182773,334.36987375085897 367.04124211200286,335.4804120882359 367.2820306682661,335.6984190728197 367.43460391638695,335.9585719649969 367.58793655029336,336.2199905000602 375.3364553367186,339.1173634431444 374.15693946295056,341.6469405678013 373.4924769554114,342.74906238010726 373.09171114029226,343.51022000287367 372.7999171763232,344.0604582411822 372.7735285223871,344.1096284667077 370.72217455668505,347.9874316600283 368.67949024451417,347.2790513449542 366.4154449944576,346.4950488683597 364.69455038235867,349.942153792562 364.3253623567477,350.68401036156325 362.67648282395754,353.9886671805984 362.42335424980246,354.49669622911983 362.2159153832138,354.90980206231063 361.272062211971,356.80301395129214 359.11863414848364,359.2183035247045 358.44360352321905,359.43093152704506 357.31686495696357,359.4820002168997 356.37997282163906,359.4820002168997 353.01367919470914,359.48364555263356 351.57052991071487,359.48364555263356 347.7841061326619,359.6700747475744 344.8379426570349,359.57160773222574 342.11155806588835,359.4820002168997 339.60843287718143,359.2850661861574 336.5041273246989,359.271017550293 335.3615049405785,359.62254985778276 334.80778618435585,360.38725128061213 333.51569137709106,362.1697194183671 332.8249667800033,363.18223371539193 327.3827024336016,372.7623908651876 327.3703624157098,372.8695908163961 327.2982840540275,373.46899928023015 327.27543920024425,373.655428475171 326.87815390290444,374.36203689016855 326.8025317414289,374.4973973952548 326.6935598902788,374.690787625979 326.39822212615684,375.2145739282925 325.23636197024024,376.1550731459187 324.45938381175773,377.5524694401079 324.47697624759525,378.79178693963536 324.8144599191307,380.1998146339236 325.27502736005425,381.0242544002737 326.52833021329735,383.27254239680803 327.043383579706,384.0266124194934 327.84675039230444,385.2044196755136 327.8045412025174,388.10305826143895 327.3203695222049,388.6936705073542 327.1576078488018,388.8923131559792 326.6179377286234,389.5532318633654 325.73736670096434,389.71143722227976 325.35058623951585,390.9050650141509 324.28529463484364,394.1904840615697 323.9812239348168,396.0766083504702 323.8880726195177,397.72548788317044 323.84415481193787,397.93286346761033 323.59102623760293,399.10003932353146 323.36251441721765,400.1635590282621 322.8491696687816,401.11013333167847 321.6485808410371,403.32418568854496 321.1651685463303,404.95022036741705 321.0561966950003,405.90109785659206 320.84698592842517,407.7591881559125 320.446220113306,409.9670388626912 319.5831149570969,417.0721680955987 319.53913386750315,421.11526424786973 320.11050834157726,423.61313701863094 320.19840723911057,426.42393998926167 320.71871302346494,428.99211922153887 320.85755404633045,429.6741108827218 320.5499395465104,431.8696848536226 320.4198314593699,435.717555593034 322.8491696687816,436.71899551491816 325.1659922267104,437.6758215255858 328.6904912125097,439.1295389275303 330.4589107143552,439.8308949246721 330.49580420400287,439.84500684268534 334.48973013065836,441.42883233177037 337.32673190891376,442.55379899790444 339.5802723232588,443.44683660788786 342.6512281862466,444.691406525361 345.6202365156568,445.8937672530471 350.80051278797083,447.9925828264819 352.58652472565393,448.71678367745193 357.31686495696357,450.49222749727465 356.7631462009207,451.4186147968876 355.82271026544333,452.9953526859366 356.7016359573235,453.43484717297355 354.9825132452112,455.8360248283727 352.84844951790757,459.5292972909916 351.8728919925892,461.2185508312986 350.37519350091605,463.5353733893174 349.3626792039362,465.22810744749364 344.7817481135772,463.63384040471095 338.8929649621163,462.95001356134776 336.12614308116923,462.97463031520743 335.50737028137627,463.6021993329191 335.10654118406336,464.5443438862792 334.0061912719238,466.37775414959117 332.207902598183,469.7264553405487 331.98818699571643,476.66287437874047 331.6489314240146,477.74044271933553 331.33606450624893,478.73884509834716 330.3534193809844,482.52881267637315 329.60637367623127,486.66854066185743 328.7783268278492,490.4724935935991 327.97401078306376,494.1639308741277 327.396751069466,496.81298468582605 327.11191814123544,498.12431726475216 326.1398411340561,498.2122161621506 324.93045608821296,498.39851879279377 324.63170108850545,500 322.8491696687816,500 322.41682606379453,500 322.26735364083,498.9206597593734 321.0000021515426,498.75188628246383 319.60425119308735,498.34409614936754 319.79055382368557,497.0959824318314 318.0203624220334,496.46316099621896 316.0657035716034,497.0221954524462 313.18813793933987,497.2717802266732 312.6098024293475,495.7090276913398 311.3811163298741,495.485831571004 309.03613321802266,494.57349290725546 309.09232776148036,494.31334001507827 309.0703688576905,494.1639308741277 308.969307274286,493.47485161286374 308.81287381558303,492.4148757081511 304.9684835940858,490.78713241139627 305.0616349093849,489.65159762731196 302.41783351545234,489.42833822482737 301.1328895905073,489.44763927859253 296.9984773052074,489.05737829922987 297.5943419688436,485.63489012888715 297.00195782298675,485.2920907572123 296.2161834462258,484.83506711639666 294.9699049110948,484.4413256191198 294.7167763367599,484.3622229396851 291.09741741786866,482.9876082171753 287.119375309078,481.4776329896242 286.49364147354663,481.0943963281938 286.00143296092114,480.79386942840983 285.9644761888999,480.7709612924329 285.45467524043687,480.4598029925499 284.8781749126248,480.1064987850286 284.3753982819141,479.79888428516364 282.9094041443165,480.00632315175227 281.48903643191164,480.20844631829146 280.3728659837413,479.5580957289004 279.0105279971543,478.8936332214961 278.15799095903037,478.4787554882738 276.5671411518782,477.703549229643 275.54051493702,477.2043163990403 274.53673357576514,476.5978203351252 273.84600897867733,476.1812339840652 272.0951819126693,476.8686046274464 270.9964773363086,476.5714949634279 271.03343410815,475.75237089712726 272.3184413152888,474.2265118515315 271.6662555438074,473.6129914696842 270.82953904153436,473.2034927186602 270.1140711262894,473.71664762082975Z"/></svg>