<svg xmlns="http://www.w3.org/2000/svg" width="500" height="500" viewBox="0 0 500 500"><path d="M79.85405636760511,419.20067921444166 79.40790614198376,419.1747097859627 78.62962059348285,418.50064365457456 77.88288562270972,411.88504564124446 77.83869203373706,411.4989212436013 77.77217384841654,410.04998659382 78.51571959118623,409.2051828600795 79.85405636760511,409.0779554405488 80.9803094782339,408.9710023993984 86.54574025067073,409.9487286028492 92.19648287381834,410.2144596410962 94.59466847631441,410.11320165012535 97.09103674295139,409.87594586237157 97.83458248572106,409.426606408504 99.21722675188151,408.59455958693917 100.33095075235804,406.50310938341653 100.33402607926887,406.45253733843697 100.3714995089568,405.52549708105835 100.40054426458939,404.8041620337058 99.82785002510278,403.52596498635774 98.74579050377038,402.6843504807016 95.87616865283945,402.6146430672967 88.58650450812118,403.9308830493911 82.70989619765989,405.52549708105835 82.35987841748353,405.62049051695305 79.85405636760511,406.46449694369267 78.6518312890618,406.87021231372694 74.92145956396851,407.62640106774154 74.1620815819505,407.7814203318572 68.52409587114039,408.72417892755334 64.48049638965043,409.61636547827 63.17074876481739,409.9044211129457 59.063934227102976,410.57518411523785 56.69103464709669,410.96119461195025 54.32747494923924,411.2997083906748 51.141550015000824,411.48001367719934 44.18083196483493,411.87240262999956 44.07330941854519,410.48337990742755 43.775913901720585,406.5760060249058 43.79174614129265,405.52549708105835 43.880361120775774,399.6976383993897 43.89619336002411,398.61876810597977 45.32929577071896,398.5490606925749 47.961775734584066,398.4225166791143 48.009158551560176,395.4452583809629 44.14620606019632,395.492641197939 39.491983305808816,394.9864651438539 35.69839652449107,394.46753217759306 35.476972976228424,392.8223461009463 35.25554942764206,391.19618149163216 36.36915952670224,388.9023292071796 37.280367544751556,386.13704067429217 38.23280772595533,381.28998352306604 39.24515983364005,378.69543259261184 39.43822203250208,376.42379100349547 39.47626496732937,376.0094191573015 39.491983305808816,375.8067892742673 39.38434685875019,375.56634425851007 38.65355802831802,373.940179649196 36.116071499619196,373.5319584571474 32.749727378087364,372.991042597412 32.44595340493214,372.49739565356003 30.03193556318774,368.5962863261144 24.694306795020456,365.66652474603177 22.514469413876206,364.47056422224085 20.951405959774885,363.163778023307 19.553043355134992,361.9900281950141 18.160831404316752,360.82880747703535 15.930308077424053,359.95883162173584 14.440027363557519,359.37668359916967 12.348691061127505,357.2788549395592 11.045207991208732,355.97218264163695 10.418752478739128,355.2034647773892 9.52337670026187,354.11183757172273 9.096247941568574,352.9190662760162 8.67230841120245,351.7326734364784 8.16601845594375,350.3279323755889 7.488990898494583,345.8318042123897 7.400262017918843,344.42706315150014 6.998533182807944,337.9790135125189 6.881442952507868,336.10921465944415 3.398008600352232,336.0932685191032 3.1859249342384164,336.0932685191032 2.664030541916613,333.92618805005367 1.9204847991469318,330.83183952168315 1.275007819425546,328.1614305236787 0.8510682890594211,326.39596498864745 0.7023135799389479,324.7000929660094 0.5695050111594268,323.1561648803334 0.41129651912123444,321.3400133993109 0,316.2714187987295 6.0588499142654,316.04361679421714 9.441026275369296,315.9170727806756 21.141278930633476,315.58812668612325 21.862613977824203,311.62676372851416 25.605514813069775,311.8355442656938 28.209519527089107,315.4234258369046 30.883003851923437,315.7557889614838 31.71505067340735,315.73676749407014 36.69821952234724,315.62286649185444 40.10898503503698,315.1767162659903 41.63070242521495,314.94264970632094 41.99461612736007,313.15497347587257 42.51001816258236,310.608033164337 43.241148696292385,306.9947516696247 43.412114100668084,303.6063107533637 43.27600240279251,302.01796127685355 43.114718583843484,300.0975903787183 43.45642159040965,298.6863569607292 44.981442109683684,295.89897163343636 47.32575253810412,293.81082455892886 50.63218473283129,290.38741603499426 52.30903528813663,288.65350107760986 54.5173479197741,285.6669028973096 57.04538066523147,283.11358412968616 58.22869817761561,281.91135905081916 59.449944723734426,280.99696180468544 63.6737355906563,281.17100253613387 66.73015508553499,278.38669253583276 69.03983960931681,277.1971104682106 68.93231706302707,273.48576021061194 68.821491387965,269.54353262134725 68.68537969008942,264.8704023006387 68.43548089133354,256.163354083786 76.95584536508835,256.14433261645326 79.85405636760511,256.2525385685703 81.527717694907,256.3151841198173 88.58331528011774,256.57465060298813 89.03891928898054,256.5935581693901 95.24971314036985,256.8213601739024 99.06220748817049,256.96385032770394 99.92591878815108,256.93537507712983 109.10132792628505,256.63797956022427 113.80600882455951,256.4860356231813 126.3509513125525,257.0302546120128 129.60988678921092,257.039822296185 129.4896073309074,255.45454814674753 137.33294424753677,255.5368985713973 143.22413188652254,255.59384907254562 152.6684612909879,255.49896953766262 152.7697192817159,254.20482634997362 152.9784998190574,251.49660221916525 153.2506093133922,246.97211270640366 153.18409112807169,244.89353331614927 153.14946522343308,243.8937103182931 153.12406529985068,243.07419260704242 153.07656858178194,241.63459783949085 161.66345124150473,241.63459783949085 164.19786244264526,241.5365290765235 170.5445401894012,241.2928948326819 174.77152028465025,241.41499670709143 178.7517908084994,241.5302645213664 182.43774114275854,241.63778706757523 184.56074192400894,241.2928948326819 184.8359267452546,241.24870124379015 186.66153200935668,240.95119182587294 187.9745827636095,240.8595015190743 189.39196683582492,240.7613188551762 191.23647966640988,240.63169951456197 191.74914807767547,240.5968458079 193.54001353604633,240.47041569537018 193.95438538207839,239.5432615369799 193.94174237115723,237.7683422187072 193.8942456530885,230.50088876948695 193.89117032585395,229.70358175365334 193.88798109785048,229.34912183466872 193.868959630275,226.25169797922547 193.85312739102665,223.97675326101302 193.67908665974014,221.06920237634742 192.4514616572907,220.2149448593655 191.47703858301693,219.53780340090464 191.6795545651204,218.87341885478128 192.65488884748765,215.69056924761557 193.02734512478074,214.47558725649196 193.8404843801055,211.0775786560588 194.78654610465492,207.1163295994614 195.7863691025111,203.5948523125594 197.33029718826802,200.88981740983544 199.23813897617006,197.5517207366116 202.6900227505979,192.52105516976482 206.39169142301276,187.18991875893985 208.97986389746,182.95029565285057 210.3973618704443,179.96358357153863 211.90962547770457,176.76478782403197 213.6339727507549,172.00953488069703 216.0195153420061,166.0580936115478 217.3325660959352,162.89107624371135 219.12331765353716,158.5786703971445 219.930078452855,156.73415756655953 221.30964739210464,154.9085523022956 221.80636966302927,153.42146081683717 222.3632316629438,151.76351782793378 224.2267659611043,150.15307155693728 230.807738069553,144.4707783561428 234.12977470134328,141.61687484352947 238.0878345299372,137.8296665183805 238.43910522116116,137.5258925453062 243.6310546071188,133.0522028795475 244.64352061621986,131.40382757481635 244.89968397021374,130.58430986356564 245.50723191620045,128.63534981392547 246.2032809409014,122.04492392207345 246.2678628095898,120.77299142988247 246.44383985815588,117.3053893170561 246.40898615133204,114.90082525831035 246.81709344244985,112.21469792198833 247.07974915354322,110.49661520393319 247.17155336135352,109.88599193079285 247.6460649366992,106.76635737985158 247.68729709952993,106.50381556968895 247.91817443135776,104.97879505041493 248.24404519867556,102.83358357382835 249.04135221442826,97.57204067539658 249.19956070679018,95.39527862124409 249.87658826391564,86.05539643583391 250.5599942773717,77.98106828660785 250.91445419659908,73.77618498616886 251.01240905855477,71.8367926207009 251.08211647187872,70.42555920263088 251.26868631364124,66.74598732462145 251.40172268428228,64.08514601087015 253.2430462868638,64.12307504460482 255.15407730276928,64.16100407833949 256.73593442226087,64.05974608736868 257.81480471558984,63.642071112078696 259.2829886346463,62.411370782637505 260.9883144407686,60.41183868793686 264.0699060567207,56.28611658406328 264.484505704938,55.65328261550585 265.13613333880477,54.66610262889457 265.67089854455674,53.85296337373169 266.8035301111924,53.15702824996149 269.6890981021405,51.945804991899756 271.26480456748675,51.283812366778996 274.7766002693667,50.90110499916267 275.6657114929297,50.803036236276235 277.08628479314854,50.64801697216056 279.5604423642066,50.3789828048175 284.17969751100134,50.274649486773995 286.24267246370704,50.246174236199835 287.66654889302197,50.23034199687057 290.03933457225935,50.198791419223724 291.04234679811896,50.18603450696715 297.47148887086007,50.1006087553256 307.69717915041343,50.74608573512792 312.3797632545253,51.04029202394908 315.6163741348359,52.60643080504216 318.05271657325187,53.54292484558126 320.02696264505806,54.065047040007364 321.0774715893101,54.34342108949926 322.13424508815274,54.207309391785536 323.7920741758826,53.99545352761416 326.0005007089364,53.83086657932628 328.31326055962904,53.65682584787789 330.92979438380064,53.65682584787789 331.7113830610739,53.406927048879226 333.46090245584514,52.631716827531946 334.67588444672595,52.562123315138734 335.0334196931879,52.524194281404064 337.0836377338798,52.31529984321276 338.59601524190896,52.160280579178014 340.40578826676267,51.35670900818733 341.209473738846,50.38536126098625 340.81708478588394,48.898269775446884 346.25574374291773,45.52873642558788 352.6848858153351,41.19742301261906 353.5676185828912,40.26081507098735 354.5136803077644,39.264295202227245 355.7222838426383,37.98279502578312 358.4970261588481,35.043579662458995 358.5539766598346,34.99596904354044 359.2089074227974,34.46769619504988 362.8885932018185,31.48724866889502 364.4957363437999,30.186954827060624 364.60656201886195,30.094467213261154 369.7011260480033,25.855527513161054 369.7732253823298,25.795387783928362 373.6205734369543,22.128458917163822 376.43335868766763,18.375990397665124 379.2903375273537,14.28193277245008 382.36566458839155,9.412664925806823 384.98208451147053,5.3597255623298965 386.0199504438303,4.489521905087941 390.2754057892488,0 391.18034925238385,0.5536727719920227 392.2179873828821,1.1895820676221416 393.13557385693827,1.749633295701986 393.20209204258254,1.7908654585327188 394.08801403814203,2.3317813182681664 395.2142671484471,3.0215657879739086 402.3743119527131,5.739357602873528 408.8887658758412,8.213515174012482 409.3443698850278,8.355891426802339 411.58753622316533,9.06458346291004 413.0018449684699,9.88717650123344 414.068072250554,10.504178230461601 412.9955804135557,16.664286135697807 420.4370745939815,17.366713616648443 422.74983444467415,17.331973810998146 427.50839051734795,17.733816546958867 427.34072824206834,19.77765613148201 434.2602141294035,22.707417711645626 434.541777406656,24.615259499547665 434.723677307506,25.855527513161054 434.7632009552424,26.12444777949243 434.66205686528326,26.592694799761983 438.8827724049706,28.23480554933609 441.0942742649352,28.636534384285127 442.13521552452954,31.44931963516035 447.314521899566,31.000094082223512 450.83269605745284,29.99389262827952 454.01884879322904,31.13290265084117 453.68352424266976,33.37937211847948 456.1957247485551,34.11335017699603 458.4768201210748,34.41712415007032 458.74585428817505,36.35981964463434 459.5240259359071,36.35981964463434 462.7323893672622,36.35981964463434 463.27011599883235,33.47732698035423 465.4468780533895,33.14200242971402 467.1965113489296,32.983793937594896 466.69033529508727,34.88844649741256 466.52267301980766,37.160088086448035 467.5319498005815,38.31811957642333 468.68041360646555,39.634359558598675 466.30740012536666,45.87670398747298 466.06706901062114,48.54403765840472 466.6997890783287,54.82112189301025 467.02577374673916,58.07367891349993 467.2535757510087,60.32322370821094 466.69033529508727,61.75655392060543 466.2411097419077,62.89237471516363 465.32033403952425,65.23679904467669 464.47245497911575,67.38827507642033 463.8112596605912,69.07139018680179 462.45390141692053,72.51700940615352 460.3750942246428,76.67439598868563 460.62510692449126,79.99643262063776 460.6947004370463,80.91401909485583 460.786390743764,82.14802255331216 460.9225024413159,83.95768167723514 460.9952851818744,86.99177657544226 461.28322691578126,87.54237402036159 462.93798067660026,88.51691099572798 464.4028614665607,89.38062229587042 463.02967098331794,93.11725857603986 462.5012842335729,94.32905133907909 460.2106211773666,99.5747619981816 459.5240259359071,103.88181449760394 459.02103910974444,107.0447314294244 457.6118559097229,120.77299142988247 456.80623412068377,128.6225929016689 456.89165987248714,145.52117339897853 457.6827023330018,151.28889235149546 459.5240259359071,157.61427061100875 460.21381040537005,159.98341145803408 460.5934424459946,161.39772020309587 465.21907604879624,171.74050071335395 465.50063932637255,172.37652390999577 466.1524947624245,173.8319509168766 468.84500055451065,179.84968256932294 469.49662818870115,181.30818490327647 471.4930849560863,185.37069195084464 473.76802967446065,190.00589323781853 475.06832351605226,191.09729264154254 477.2388210153714,192.9167472516611 477.44760155238913,193.09056018108612 478.8903855478632,194.30246684513705 480.4280490783821,195.5902315766573 480.4787350244543,195.63134983847635 480.9437928168823,196.0204356621805 483.1015334038639,197.83020868711517 484.6393108351517,202.354584298946 485.87320039251546,204.7402407912898 487.7120181733255,215.69056924761557 487.85052179187994,216.51623761301164 487.41405315136154,219.93964613694627 486.91095242443,230.507153324644 486.86345570636126,234.09492099484316 486.5407741670469,236.7178332748598 486.1863142478195,239.58119057071457 486.12309919159503,242.68510678333826 485.8383466860153,246.78235363663768 485.3099599362703,254.33455959151857 484.15830690270656,267.3382953166206 483.971737060944,269.45822077063644 483.5888018912234,269.4707498809506 482.8990174214367,269.49614980445205 482.31060484411813,269.51517127178477 481.6778847764105,269.53715416525944 481.4942763607899,271.53361093288737 480.8077950200993,279.0068834931453 479.633817389864,295.5003181254791 479.4409829928635,297.3923276740519 478.8176028076284,303.56200326346027 478.9346930379285,305.39694840987306 478.5961792593658,307.3301901212766 478.1373860221758,308.8899504462009 477.37607172287824,310.608033164337 476.82125994101216,311.86094418919527 475.57461347131095,314.0218740040994 474.226709010558,316.35684455045197 471.98354267177297,322.13732041514453 469.60107540775635,328.27852075397874 467.94643554802997,332.5498083388075 467.535139028585,333.6983860455413 466.36753985435655,336.9697367315022 464.9597234664752,339.7191930250604 463.896571511302,341.7916217611694 460.8434551458431,348.91032050143104 459.74556338526236,351.4161425512285 459.5240259359071,351.91867377318255 459.26137022449,352.5140343119711 458.9165918906893,353.3018875446442 458.3565406627713,354.5770092649196 455.4488758766893,361.20843951749805 455.0375793575681,362.1418582310454 453.2500170282933,366.2200836170121 452.1299145718099,367.6470353733188 451.51302674367435,368.4350025069226 452.7470302024544,369.10565160828395 453.2626600395382,369.38732878687193 455.8476432856583,370.79514517475326 455.93625826546514,370.842641892741 456.7366406084524,371.2793383353638 451.48455149318113,377.59446550471563 450.96254319976674,378.86947332406027 442.17006923135335,384.849275942691 441.1416570819114,389.19653549600076 438.76875750190504,394.3347236089754 434.73791493275263,400.4221626747457 432.5389421829402,403.6493197718149 430.4488587915578,405.52549708105835 429.3560925759364,406.5062986115009 427.58436248590994,405.68997012833455 427.2994960792376,405.5571615597169 425.4012219756696,406.9017628913738 420.6775196098197,412.03368644919135 417.8615451307791,415.09318127089995 405.97119170311856,431.35915560175647 403.706270273125,434.45954088326073 397.9764803541809,442.80597852690255 392.9490040154995,451.914869479716 392.3129808186958,452.9431677280654 391.76876183002616,453.8289758226942 389.98757795675823,456.71442991295436 383.50774993826866,464.53885926326274 380.4958657353168,468.17742678046477 377.7082526060006,472.33481336291595 376.93953474183377,473.12574192266175 374.7816802540832,475.3372437825455 373.0352361862228,478.17223972875684 370.35229807814704,482.52895306522714 369.9314338746917,483.4939223564213 367.6660568406515,488.6954394266321 365.32163251113843,493.23872260478396 364.60656201886195,494.6223919802924 364.2490267727237,495.31434056897734 363.7870443075303,496.20652711969393 362.8031674500151,497.08937378826175 360.46500767574,498.65539866834314 357.5826289127953,499.87983444262727 351.24221572062993,499.9652601942688 348.7584904655616,500 342.0952818333129,498.8358178558793 338.47584968437434,497.20327479047745 335.2738647087023,495.7573015667571 330.9520050790559,494.6119130880267 329.28779753499543,494.0678080002878 327.5918116113457,493.5108320991997 325.8896750335506,493.2705009844542 323.80152795912403,493.56778260034804 321.47601119609385,493.86836734533796 320.431994609265,493.9062963790726 318.248854098701,493.98545757563807 313.6137667129816,491.63465478995624 310.8009814622682,489.9134967448284 308.33639157522055,487.9328722165297 306.8936075797465,486.77176539948175 302.5432726992831,482.58590356637546 298.83499776867615,478.21973644674466 295.2851591322926,473.6035566271035 294.47839833329846,472.6512303472351 292.6685114073521,470.52504033806224 290.48229556987724,469.06972723211214 288.1980109696778,467.5130422342605 284.8664066535535,465.63367569693264 279.3358295876168,463.39984924062014 275.8365629962128,462.51404114607226 271.20136170940077,461.2167087302989 269.6890981021405,460.8735250104999 267.4520824178246,460.36564044140135 265.9209112444052,461.22946564255545 261.11166922598295,463.940992902379 253.36013651716388,468.37675353440295 249.41153047181137,468.9336155344794 246.84556869294306,468.31034925009413 245.16552890963428,467.59208952981425 245.0578924622519,467.5477820399108 243.91580711269853,467.0605135523085 243.71966958692565,462.6247529202036 244.61812069263746,461.9602544730686 251.29727546522707,461.89385018875976 253.59739230499858,461.2041796200657 257.66935313588914,457.8724614029297 258.53306443586973,457.1638832678337 255.37857617826648,455.2179985452662 250.0981257132709,451.96863075278 246.88361162777036,449.56087746594983 244.24486710834353,447.25449607118315 241.39734205189893,444.7675815878685 240.06845905839776,443.54633504158784 237.44235755021583,441.12901407066647 234.37033361827403,438.7972327523983 232.9242464937039,437.8765709511075 231.57326670604013,437.21218640490326 229.98833425931397,436.7881329735254 226.93510399276246,436.24402788570563 222.0657222450266,436.0509656868436 219.5537495413265,435.60174013390673 217.89569265141145,435.1018286350596 215.52917152741205,433.99117996197947 213.14989349139887,432.7732365447949 210.78337236707577,431.33045254915896 208.48940618177338,429.7358385174917 206.56903528371907,428.6348714296764 203.41135779811236,427.1603090544512 202.5633648362875,426.91997793962474 202.14580376160455,426.7996984812403 201.16169910222783,426.5213244317484 199.10202727829449,426.0530774114788 196.45382897594993,425.86320444070117 194.5334580778956,426.0750603048725 190.63861330552612,426.90414570029543 188.7181285063792,427.3533712532323 184.05456586984286,429.50484728497594 179.56481616273155,431.241837569433 177.45776152182208,432.02331234593737 174.77152028465025,432.5036328724743 174.1482540001841,432.61502805267577 171.2090386366981,432.9218773527418 167.31111853741777,432.63712484708117 162.24559926390904,431.9505296054598 157.15490786900315,431.0994613165622 150.58350344456477,430.3875800524511 148.69764455005645,430.34338646355934 147.5998666902446,430.31798654005786 144.49913970562434,430.64704653562194 140.83847539385502,431.8113425807543 134.51708366958886,434.4627301113451 128.77772606695814,436.59837390375947 127.1229723058154,436.930623127327 125.34486375978204,437.02550266221 121.8170080164685,436.45599765088866 120.30155518152854,436.10153773182316 116.38461361467272,434.9943060888508 110.23395949259702,432.63074639099335 105.32049805730482,430.90013456262403 105.46594963700551,429.6947202556727 105.8614139168784,426.3757589508741 105.89000306846424,423.8509154337439 105.58292596653669,418.9532862375382 105.14007886936395,417.0739197002103 104.15608811107984,416.3397138396704 103.31458750635448,416.0930042687561 102.37160110871588,416.1088365080854 101.61860158270476,416.47263630929973 100.82767302295895,416.8586468059312 100.18857449956818,417.49148077448865 98.95457104078814,418.655776819621 98.49270247668734,419.09235936131296 97.81875024614901,420.81670663452513 97.35050322604131,422.2625659572338 97.09422597095482,423.056683744983 96.8885207608479,423.68951771354045 96.16092115841917,425.9391764091822 95.60086993017747,427.66659900946706 91.56364890501813,427.4387970049548 87.65001046758209,428.0621771903517 89.83622630505695,426.3598128105332 90.14626483312645,425.6512346754372 90.61451185323413,424.5723643820273 91.52571987128346,420.18717579506375 88.08340378118966,419.68088583996695 85.0935024716315,419.5068451085185 79.85405636760511,419.20067921444166Z"/></svg>