<svg xmlns="http://www.w3.org/2000/svg" width="500" height="500" viewBox="0 0 500 500"><path d="M195.32011734198818,467.47966443924287 194.72835337158713,467.44923045917676 191.97591836999968,467.38036473218295 192.13912943529905,460.75885076764774 192.23538574425183,453.45901293125706 192.255061666365,452.03165926630703 188.98171016877154,451.9845219855312 188.9109334709293,447.0006392551667 188.84794220998856,442.68326068819977 188.8422800740968,440.8804366413286 188.82635531712756,435.9436911916895 188.8145356086698,433.9383750123482 188.81262463772083,433.6434485125216 188.77921803640206,427.9341046295258 187.79223698526295,427.91449948421683 180.59460070043093,427.7729460885827 180.6004751663834,427.0239162955384 180.65362846656933,419.06741225675637 179.55658965031677,418.845244202324 177.1835885258049,418.36750149203993 174.37021478733126,417.7206732506549 173.49923674401205,417.32941966507127 172.95659180183827,417.0738450092698 172.27048249323224,416.56269569761673 172.1270181268,416.32488599292924 171.64729366901418,415.20810047806094 171.7121959009039,414.0914565165497 171.83994784042764,413.24602886109506 172.25477006632374,412.16272072424925 172.42583734507738,411.3390215150126 172.72267481545063,409.8998481415545 173.06473859620394,408.2445227329736 173.41480014351708,407.5446119682069 173.43836878387984,407.51700905608664 173.8098756707472,407.1041685776923 174.37021478733126,406.7700317872478 175.23333661739736,406.15852111813047 175.5341375831765,405.5333505462598 175.81519185008844,404.78035725816164 176.06092854493386,404.12567280332235 176.00395330325233,403.79741047883033 175.84866922816119,402.92246894040704 175.1704161330094,402.1006099253151 174.37021478733126,401.1294828545421 173.3950534448511,400.7087153859899 172.27840948344047,400.1287711240466 171.2953211505509,399.61762181239345 170.18264068434496,399.0514082298569 169.23692244797888,398.7663196910366 169.18383992454693,398.7505364874244 168.6373022639224,398.58541445137723 167.6798350958525,398.51272678273693 166.9307345263057,398.5559713451123 166.228983567344,398.6070721209419 165.47790125009428,398.6995064882985 164.05649282769983,399.1005272581345 163.0282489617877,399.27548725513765 162.01769927028585,399.40925521402124 160.82829686353125,399.65301016131457 157.0830063448522,401.2848377062364 156.5541628588391,401.5147911974696 155.74610529970673,402.11639312892726 154.75523153031804,402.5450168109338 153.5009268916737,403.08568000555556 149.81862763413662,404.60143376605436 149.00462483249893,405.0752129812846 148.7981692049248,405.1971612316098 147.89180281278504,405.3525160833544 146.30732487859916,405.15582764008286 145.15324004391113,405.0752129812846 141.7834906840581,404.57199065978944 141.7795271890546,404.57199065978944 140.19887119656545,404.324272217392 140.00027178244557,404.292847363575 139.48317722833744,404.21216192807304 138.91505267485192,404.27310066490895 137.73145395729583,405.31118249182737 137.09057095846634,406.20962189396005 137.0295614448262,406.2942000478121 136.33955941776944,407.2600896429657 136.02106427758005,407.70577050914994 135.38209224969953,409.31006591860495 134.30664032630796,409.32379659801165 133.431840341292,409.333634559018 131.40288474483404,409.4575645568952 130.49651835269432,410.0335453237344 129.75145205470386,410.83962113521414 129.58824098960562,411.0559147237443 129.5154825440605,411.6122903453249 129.5154825440605,411.88952267069095 131.10597649750565,414.27236175615883 131.79604930131634,414.8994432988276 132.81445520627244,415.6189592089032 133.76406616088812,416.04361939580565 134.74113847431724,416.4800992912664 135.13437380735238,416.76518783008675 135.49413176231477,417.0247259809923 135.59640409072793,417.0974844263363 135.82246486346014,420.21165913038783 135.86372767843432,422.92672403545185 135.4646886559995,422.70257423346743 133.05042471671464,421.34408629551126 129.45645477812326,419.25815545737174 127.75193956456113,418.1551713985636 127.05797404250085,417.9585537319958 125.22563611266102,417.8327835399738 124.1876250623457,417.85238868528273 123.68029769243962,417.86222664628906 122.82906634778642,417.63029140750376 121.50787772954943,416.81239588751595 120.40687541829334,416.1930997815977 117.81170623929883,414.3961502006287 115.61571763604589,413.0474294469752 113.2231113661748,411.7597889835649 112.08480973514922,411.08344685921116 111.02110674366261,410.52303696587313 108.33364475071886,408.99949776857346 106.02547508134278,407.855250894942 106.98888749211913,406.893820231768 107.43902729028295,406.3708512115565 108.63048222129329,404.6839593957513 109.25168929821075,403.59484756970693 109.95358181047924,402.5253408889212 110.00475336296223,402.41528312380774 110.46869461728676,401.40076993725205 110.48051432574454,401.3378494529144 110.63969111908527,400.41187791531485 110.98182567639137,399.88105268169943 111.35927780576402,399.4583034655951 112.47004730142332,398.82329493276836 113.06379301932616,397.74402106773033 113.18177777464783,397.3664981615534 113.19749020155632,396.7786976861559 113.1994719490581,396.70983195916205 113.13662224162525,396.3756243920642 113.04609884491589,396.04339857251836 112.73156719993119,395.5695485805844 112.37966545842305,395.18225849010486 112.26168070290021,394.8677268450196 112.53303856256525,394.38991335803183 113.94857251880605,392.73062445434687 114.55215619786604,391.63358563814455 115.19898443920081,390.9042317671129 117.35363945092678,387.8410870621872 117.8373274039173,386.8581402828559 118.18335467947296,386.1582295180892 118.53723816868403,385.16339225354614 118.63363603114472,384.47919391573816 118.72592884509395,383.81276052904417 118.77901136832475,382.67835161641904 118.68077331187021,382.45625433864006 118.2718255519266,382.22028482809725 117.24117527819007,381.8998079404061 116.19176917953844,381.57352736346616 113.7047467949096,380.8617968901914 109.37951201448844,380.39389214086333 108.66190707531146,379.84339098523526 106.09235906093542,379.48745497191936 104.76522519999199,379.2909080820552 102.37261893032206,379.24171827707397 100.69563585212622,379.11792983260403 98.47593705520374,378.87219313775864 97.81148541601152,378.25282625513677 97.61486774959454,378.08968596664164 96.43126903183729,377.49006578273605 95.58782312388438,377.11261365326277 94.17037819669463,376.5719504585908 92.43245638161257,376.16300269859687 90.91861359196213,375.91719522709803 89.70359002058903,375.4788043607889 88.16228587212512,375.12690261923046 87.14777268561974,374.7513614606056 85.59068533349337,374.06327040439726 84.84951175395362,371.2283097732135 84.21839593952735,368.81793855227875 83.17833236495629,367.3375023639974 81.67829103146656,365.094305703265 80.8761079384878,364.0640800898008 79.91481882851998,363.53912932208755 79.26204534447876,363.3897197129992 78.32432487507485,363.3091758308543 77.53389071400107,363.3465459273275 77.35893071699788,363.3652309755389 76.77707548410564,363.42708980942206 76.16952831004211,363.5529307781477 74.79532794512714,363.96378950899 71.83445556866495,365.10216191671924 71.33314421801812,365.3066357967413 69.31593755346513,366.1205678216753 68.82050066856964,365.46984686188983 68.37425358885653,364.8819756098389 67.29094545201069,363.7789915509805 65.49399587119255,361.8562717780398 62.50375116496793,359.1274054168654 61.477418269803614,358.12081922051794 59.18503180408998,356.4752609961894 57.90326580663217,355.57873256490507 55.7799648721704,354.24190229646325 54.54922887368766,353.6677617237688 53.21622054679173,353.2018387220431 51.830200473620145,352.8990560087622 51.04967504985403,352.77519678758864 49.392367893771365,352.4528089289988 48.6786556730451,352.30538106746246 47.34373637540138,352.2227846610619 46.36461153771651,352.09687291568287 45.194814276321125,351.9298399087873 42.45037704149471,351.54056807080605 40.77134143924429,351.1237640973579 40.03207883045235,350.78750400600427 39.511162334647466,350.55160527216515 38.15656711489056,349.7279060629285 37.81252158683666,349.25016335264445 36.286788311974476,347.5869109539056 33.400726904910826,344.7754481863809 32.854189244487465,344.0500578104534 30.721050348868523,341.7144267823644 30.375093849865674,341.3349929053894 30.08597103923756,341.0518861141211 29.84228686864789,340.81393485602626 28.774620382157746,339.9724706956254 27.899820397141795,339.23327886363774 26.836258958961956,338.3997416933948 24.268551138579756,337.2181247232902 21.748122152632146,336.03254425813174 20.775296441021247,335.57553912031483 18.90721627879223,334.6957139896899 18.378372792577974,334.40213224713256 13.96855985835506,331.95509869671116 13.545881418803544,331.7211109337204 10.429724967451344,329.95169348821827 11.664424460937619,329.40317408014226 12.157950374682995,329.1869512683158 16.856744566227245,327.1029314009744 18.024489303568064,326.66645150551363 18.223017940934003,326.52100539152934 18.17000619425602,326.011837827378 18.087409787956027,325.2076729867969 17.835727850605334,323.04502020820934 17.971406780136114,322.9192500161874 18.378372792577974,322.85179982316646 19.097959479457884,322.73247031062584 19.00361414125292,320.09405656930625 20.295218099867903,319.9486104552717 20.389563437871708,319.8660140489214 20.263793245849744,317.6896305909774 20.16944790764478,316.4293807095763 19.79390674901992,314.211734436809 19.58745112164693,314.18030958299204 18.687029971811338,314.0485941483139 18.378372792577974,314.00216463457485 17.971406780136114,313.94242910160085 17.894755616542575,313.2660869772472 17.847618335817074,312.8453902853986 17.772878142770175,312.19261680140767 17.686318241265496,311.3846300190795 17.70401241587692,310.7515324571012 17.19088135657116,309.35369267517007 16.111607491482822,309.0588369520471 16.087968074567264,309.0588369520471 14.96934236565487,309.0410720008829 12.012433483995041,308.99195297260536 11.02347068535417,308.89760763440034 9.344505859656552,308.68917025932444 7.700929382980621,308.368693371583 6.861446970232391,308.20555308313817 5.9964141692173305,307.85365134157973 5.8450228125768895,307.6157708601886 5.929600966579804,307.25403115762384 6.130040574894701,306.8469943684783 6.584214644614864,306.06845069246543 6.507563481021324,305.6791788544338 6.212636981194692,305.250625949131 6.037676984191502,305.1837419696892 4.960243313096995,304.76700877294473 3.153455771322845,304.17326305494134 2.3199186010799075,303.89992344797565 1.873600744612835,303.70925102401367 1.5118610421486776,303.42423326189703 1.2071673579188382,303.1017746266538 1.159959300439374,302.5807873539944 1.1029840587578619,301.94379707361566 1.0499015353259118,301.342195142158 0.9791248374836983,300.5478682625329 0.7038742597702536,298.941732658883 1.6868918157046737,298.8925428539017 4.026415562143803,298.7312427595513 5.235564667765564,298.62705946039034 5.4636071882007045,298.5327141221854 5.872554948144326,297.7915405425953 6.379740764743633,296.8773887135542 6.564538722702836,296.5391468746988 7.1524099748543355,295.4363043692477 7.077669782008594,295.18858592690054 6.696254157431249,294.7521060314398 5.947224364236102,294.22913701127857 4.863987004144233,293.6884738166066 3.9693695437083245,292.65237373724017 2.884150436114692,291.8738300612273 2.8566183007484147,291.60841744436925 3.2989726620107995,290.82003580735005 3.5408166384054813,290.39141212539386 4.295720897553115,289.24914699926416 4.922943993528669,288.2504877930243 5.2473135994693765,287.5485245040522 5.587466409474867,286.80536917696037 5.587466409474867,286.7739443230931 5.59135912772443,286.5538287929164 4.56516778606804,285.8342421061371 4.344910702333183,285.6788872544428 3.7866241100048503,285.28961541641127 3.5781867349289316,285.081248818039 3.3206303316257504,284.58772290414277 3.0453797537111464,283.8111609756819 3.1594717905821024,281.5443248978831 3.1594717905821024,279.23622600531127 2.8959701445724697,279.1163302791915 1.018405904754947,278.25320844927626 0,277.3882464252163 0.9338985277071575,275.60899101875816 1.6003319144011545,274.2071877417229 2.097821323351219,273.4305550365584 2.534230442108312,272.74444572790213 3.1044075196483885,271.8538625392237 3.733470810020094,270.8649705172865 3.7964620709608643,270.7666616840277 4.073552843070461,270.332163536119 4.1109229393927516,270.2554415956709 4.37244283790062,269.7127966534971 4.6771365219293,269.0876260816264 5.22572670680955,267.95328794565467 5.436075052633267,267.1648355319821 5.459643692996017,266.96630689456583 5.664117573068407,265.1968894490637 5.756551940324412,264.82340081469454 6.198906301787956,264.0743002449466 6.261048242485776,263.93869209191837 6.566591246958566,263.272187928571 6.761156389320977,262.8455459941165 7.203581527337327,262.40319163275353 7.704892877984149,262.2302133832521 7.712749091438398,262.2262498881983 7.771706080822834,262.20664474288935 7.968323747239816,261.9824949409049 8.158996171151506,261.7642196048227 8.377200730630632,261.3651098058351 8.40076937099338,261.3239177677155 8.534537329776365,260.8421407856236 8.986729652195923,260.1619059428695 9.511609643205492,259.3696315875002 10.416065064597415,258.1723729671907 10.801302630871515,257.6631346263357 12.19524969445248,255.3884423351329 13.15660958097311,254.0063149801103 13.72091219276186,253.19436470272834 15.008623432926118,251.4052713352136 15.065669451361597,251.32465667641534 15.543341384891702,250.72899998756358 16.6757685499648,249.31148428361985 16.82715990660524,249.1247045780583 16.88618767254248,249.04996438516227 17.68829998896842,248.18103886604854 17.896737364044338,247.95688906406411 18.319415803394698,247.49882227579263 18.378372792577974,247.42408208284633 18.92101773475177,246.73599102668825 19.729004517331354,246.01838608746095 20.397490428079923,245.21627377108533 24.655841229109587,241.4179007291755 24.883954526097533,240.74948559497975 24.950767728936217,240.18716473079334 24.817141323460007,239.69370959360074 24.146744441762483,239.02331271185295 23.478258530812756,238.5966707773985 21.040355174411168,237.428855263354 18.437400558716373,236.18240683806332 18.378372792577974,236.15154819782543 17.287279219233014,235.58080490660566 16.82319641160171,235.17376811746013 15.938558465428589,234.39918793650105 15.566980802008418,234.0729073595611 14.87103353224522,233.24319213101492 14.524935479935596,232.53146165774012 14.241828688566741,231.9476246773964 13.827006462670633,231.37157313385356 14.121932962497265,230.86431654060087 14.367669657342669,230.73656460102683 14.548504120298345,230.64023751526983 15.193421390684163,230.30199567641446 15.285855758141327,230.30595917146826 15.948396426384603,230.33150955938308 17.356003392618337,231.18670439914038 18.378372792577974,231.86248030991496 19.095977731956122,232.336896515428 20.033768978114,232.85788378808743 21.54563002006152,233.62064426048815 22.24164806657868,233.95690435184176 23.183332030986122,234.41298939256117 23.694552119342923,234.65872608740656 25.729311404999407,235.5946063626658 27.203802350624635,236.10377392676685 29.720338618322682,236.97475197013634 30.42223113059117,237.21652516992793 31.749294214579486,237.7453686560416 32.626146724052326,238.0933776791996 33.11372739529241,238.28603185066333 35.32741017295561,239.0114930032946 37.18926198586463,239.70545852545544 39.17497301984666,240.6609439460236 43.05778266225147,241.90548140046587 43.9562928411381,242.03917858264575 44.595194092264656,242.13550566840277 46.88758055797829,242.47955119650695 48.74943237088731,242.5995176992801 49.27834663365437,242.53461546739038 51.59819445798032,242.25143789941842 53.119893461085006,242.09424285352918 53.75292024646024,241.9093741188663 55.260959346912166,241.7816221792923 55.67372904855254,241.7816221792923 56.171218457502604,241.89571421616324 56.74125398193707,242.08044139746906 57.2564375652974,242.25341964697049 57.76949784764803,242.4520190610401 58.73680297687511,243.00641293506857 60.030530236298624,243.68870030202814 61.05481060720722,244.07400864495563 62.54699572724271,244.21556204058976 63.600719204466536,244.15858679885795 66.28832275071706,244.191993400227 70.95958480689502,244.11725320733098 74.46692406722778,243.17748021367134 75.60727822271025,243.2659510859741 76.69440830105168,243.35244021067453 77.35893071699788,243.31726419186444 80.06621018536158,243.17351671861752 81.13564608929275,243.21683205769656 83.95496507027168,243.1125779817816 85.32137999848636,244.29419495188623 86.5815591030832,245.38337755463425 86.66613725688495,245.43638930131223 87.85164694539,246.1697774441014 89.23568527126098,247.09185626330049 90.44285262938098,247.9883139178811 91.18402620871956,248.43265002679613 91.25671387751073,248.47596536587517 91.39437455474443,248.48771429772984 91.86815377002497,248.5309588600549 93.36239141431619,247.72884654367925 94.0131123741017,247.16065121359065 94.2490818845439,246.84017432584923 94.82902614648718,246.04789997047988 95.20846002356275,245.3558454191674 94.6422464410262,244.8328763990062 93.63367849722728,243.90103039550448 93.7830881061648,243.03394507048515 93.75555597059736,242.24761595772168 93.40167248158744,241.50247888307783 92.98097578973885,240.79669365240892 92.45007977947003,240.20089541020008 92.08841085355867,239.84701192108957 91.74436532550477,239.50891163559126 90.63154330558974,238.7087810667174 90.33272408751355,238.09734117425342 90.35041826192382,237.92627389565067 90.42714020227132,237.2027237138175 90.79475437088912,235.94056286161833 91.0385093180316,233.8643992077815 91.38842931203799,232.02816855954126 91.73247484029304,231.86899176615023 92.55235210768204,231.8434413782354 93.61209160416513,231.8158384660649 93.61209160416513,231.23391245661983 93.40167248158744,229.7515652974901 93.16181025269452,229.01435521295386 92.34193298530552,227.53186650046703 91.76205949991504,225.93939079952014 91.85477697398575,225.39051750792575 91.96058813728098,224.75197014016672 92.19061240521789,223.39341142550686 92.48157540983983,221.6593823289258 92.87473996632215,219.3139841165845 92.99470646914558,218.60423539086173 93.05564520603178,218.2385321932432 93.1637920001963,217.60154191286443 94.00129266544276,212.61178471654736 94.2745614958556,210.99375862768565 94.33160751429108,210.6516948471335 93.82236917343604,210.28209893111455 92.50125133195301,209.09850021345787 92.44816880872223,208.78587953922099 92.68803103741399,208.46349168063117 93.74968150484602,207.66923557770977 94.09174528539816,207.41366092185805 96.10498845494762,207.31931558370337 97.68755541818454,207.21697247863682 97.9255066761285,207.16396073195884 98.51330715152604,206.81007724284834 99.12871053904382,206.43842880262392 99.58090286146337,206.1671417198637 100.12545877438497,205.88799842369954 100.77037604497195,205.2648095993809 101.0374873026176,204.9580633910462 101.59209350675711,204.32107311066744 102.12688223547666,203.70772224735512 104.16164152113315,201.37598393766655 104.53916442725976,200.96505443012057 104.64929296892603,200.84324773315245 105.32556431657605,200.10787784281123 105.85837129779382,199.52595183336618 105.95859110195128,199.2527537797576 106.10014449763571,198.87324912607892 106.34205925078436,198.21658292368755 106.27517527139287,197.97084622884213 105.79743256110879,196.223015676201 105.61072363220063,195.68037073402718 105.213454027408,194.53286813227808 104.64929296892603,192.90047437372687 104.36809714870729,191.42994692315546 104.4133942352378,190.99148528014263 104.48608190382781,190.2915745154262 105.59097693353463,188.39235260614458 106.00976265463542,187.4290817487756 106.1965423600964,186.54437302604964 106.55438934431099,185.6418993521595 107.2994556421003,184.86533742364836 107.19137962468976,183.60714006655328 107.1755964210273,182.35078290355264 106.80791147585668,178.11012627698352 106.59558138233004,175.6643667071277 106.50718128683152,174.65190604477746 106.49139808316906,171.35880784861857 106.64675293501419,170.11632291843202 106.92002176502471,167.9418504312861 106.98888749211913,167.39927626581598 107.48432437681346,165.35262649494774 107.5747062200149,164.97510358877082 107.98358320340571,163.2843898312688 109.38736822794269,161.0784924903059 110.78520800977321,158.91980320682245 112.25184274214536,156.44063703559758 112.91438341038864,155.31804783148047 115.7729834586388,156.40723043422852 116.66951188982252,156.74936499148433 117.80392080259854,157.4629356589038 118.86160777462473,157.9446418642417 119.36100815452376,158.19236030663916 119.9330962030128,158.47355612705906 120.06091891929049,158.54624379569935 121.0379912327196,159.10856465988576 121.30149287872925,159.34049989867106 122.46145217936977,160.36279852197728 123.37567478496375,161.16696336260867 124.75971311083474,162.34652780845755 125.63062037739996,162.93638080806053 126.51532910032705,163.04650934987768 127.27816034948174,162.95209323501933 128.00751422036254,162.79680915997844 128.89420469059024,162.517665863764 129.82017622829034,162.12839402578268 132.5451498710643,161.1551436540503 132.5568988027681,161.15125093570018 134.01574809843996,160.87005511522997 135.08914749737465,160.7304834671479 135.492150014813,160.785618514735 135.7733458352329,160.82482880535287 136.23926883705917,160.9959668606593 136.33955941776944,161.02774559799468 137.9496585165738,161.53854102612942 139.86062935771008,162.29740878018 141.73628262657866,163.07205973779247 146.08508604736255,164.84536990169505 148.37350901807267,165.61803911175548 151.41499605333308,166.6443012301658 153.82140377936486,167.23804694816923 156.3830955800855,168.00668188647214 156.99842819105046,168.18956887368356 157.60201187011046,168.372385084141 157.91852526259692,168.46673042234596 159.19250582335442,168.2839849885419 162.9968241079707,167.71380791090124 166.06180900704106,167.04539277670548 168.31491440548345,166.40840249632672 169.70879069231046,165.7380056145789 170.20620932450655,165.4980726089823 170.6387257250141,165.2012351383073 171.38973726550984,164.15529709793464 171.6414192030617,163.19981167736648 172.34713365682578,160.94677705567807 172.64213093340638,160.76587181606902 174.36625129232772,161.0372296754826 175.0641803095927,161.13355676123962 175.5301740879718,161.08436695625838 175.85843641256437,160.9349573471197 176.0669445641931,160.70691482678515 176.22421038678604,160.39040143409753 176.22421038678604,160.0738880414602 176.12583077682356,159.71802280484795 175.47114632203454,157.89155934091033 175.45154117667533,157.37651731085677 175.45154117667533,157.05993314151578 175.5301740879718,156.78277159285338 175.66585301770374,156.570441499377 176.08456796205056,156.30304713501724 176.62126766151792,156.26567703859436 177.3447470666474,156.34430994984055 177.96998841512118,156.36391509514948 178.72305248007382,156.295190921563 179.3972713034681,156.05723966351846 179.94189799314367,155.7211211255722 180.69489128134234,154.97010958497586 181.03893680939623,154.36058066336028 181.55603136370553,152.98043505588973 182.04354125819162,151.9778123545458 182.28149251633675,151.59639673001874 182.62553804439065,151.26218916292086 183.11120774488293,150.95742470208793 183.84636530516343,150.65273101795867 184.50699500245773,150.4777002442518 185.4585877047763,150.51507034072498 186.20761749777031,150.86307936388297 186.49468778414268,151.12063576728673 186.80921942932855,151.51967478957067 187.08645175454376,151.9974882765584 187.55237475637003,154.097220570758 187.4777053400771,156.52910790785003 187.32631398343668,157.55735177376215 187.3400446628434,158.54822554325142 187.64679087132896,159.55679348720122 188.00067436033888,160.21147794204052 188.80469764751263,160.80918715509776 189.9272868516297,160.6027315275739 192.90196068445374,159.6531913496116 194.0835068777541,159.42507805257338 194.70478473122438,159.3523196071791 195.32011734198818,159.5697456229178 196.39556926537978,159.94995804358294 197.13277934991598,160.20949619448848 197.78350030970148,160.4395204623751 198.52078117079049,160.70104036083268 199.03978669604874,160.8838565712901 203.0740584716468,162.5844790665021 206.63264006141767,164.145529913632 209.92177476247244,164.70381650606092 214.2922358528713,165.93455250444308 219.58668673326733,166.58732598843403 225.1289268327645,167.2694718019862 226.61523748684752,167.3834930622038 227.52938931608983,167.34612296573064 228.86239764258343,167.15545054181894 229.4620178266399,166.96477811790726 230.10091907776646,166.76030423788515 231.60690565416382,166.27859803254728 232.30879816623116,165.94049774704897 235.71789937031053,164.30470670702303 236.99966536776836,163.6696981741963 237.83921855727056,163.08770138804758 238.87722960738472,162.13617946253325 239.62441920638486,161.58178558850477 242.54586896226905,159.42705980007514 243.78446117420603,158.5128371943303 245.61481735634294,156.74738324393226 246.10834327049062,155.79387957091618 246.91045558671541,154.118807463619 247.25251936726755,152.82515098084886 247.33511577356754,152.06430147929652 247.40383994735518,151.4154914903594 247.66543062241584,150.79619538444118 247.83451615346655,150.50919587482278 248.08025284831197,150.20832413239026 248.4105676969591,149.99217209721715 248.579653228211,149.93901879718211 248.8528512816687,149.8544406432798 251.74882142644233,149.8544406432798 252.93043839649664,149.96853268015073 254.07263274597295,150.04518384389513 254.3006752664081,150.0139713201389 255.1775277754786,149.8937924872547 256.7012085262862,148.97956988150986 260.0158936152055,146.16230342478667 260.2579499218621,145.97750546677716 261.9013140684773,144.72320082803225 262.0900755216412,144.57966568484605 262.8116439558217,143.88959288113594 262.96692803091287,143.74209424284564 263.7296885031124,142.02979359248263 264.681281205431,139.10034606973684 266.5922520465673,133.367433546328 267.0484078639904,132.52993288103124 268.00191153705674,131.50168901511913 270.2117015964704,128.11424548075527 270.797520324165,126.95039346181488 271.7098319590112,124.64229456924305 272.07751690438295,123.85193118467178 272.0892658360868,123.37617022193977 272.1196998161529,122.2458663577255 272.1718622425879,120.2677992070867 272.3841923359134,119.48147009432321 273.0683906737716,117.92041924719331 274.5547013280558,115.63588899498423 274.9359753991252,114.64699697304702 275.05013821275014,113.65612320355778 274.8220249157622,112.9326437984283 274.47996113500886,112.47655875765861 271.65873118328216,111.02959994744994 266.4015796226556,108.74698066608923 264.9702624627524,107.76594485760629 264.75602139827674,107.61851699601966 264.22512538800794,106.8949668142368 264.2979546101059,106.02009605246688 264.75602139827674,105.21996548364329 265.4421307068828,104.64978840600263 269.44299588136323,102.09793456608716 270.96660585521573,101.7165189415601 272.03413078860024,101.67914884508694 273.2924696990021,101.90719136547179 273.90192784401455,102.28867776670252 274.70212918949153,103.4682422126017 275.2349361707093,103.96367909729604 276.4537816839803,103.96367909729604 277.40728535684553,103.6216153167439 278.0935362189595,102.89806513496104 278.130764761975,101.48840564447157 277.8260710777452,98.97583287187763 277.8712973877229,98.04207589752754 277.9223981636531,96.98622911944489 278.3038137880293,95.95798525353277 278.7225995091301,95.15785468465889 279.1432962009786,94.89053109700278 279.8274945388369,94.81579090410675 280.6276958843139,95.0438334244916 285.0079949358699,98.62194938276714 285.5800829843589,98.77532248695964 286.11090821787377,98.92862481439816 286.50216180340715,98.98375986203555 286.94840888312024,98.74191588559059 287.2571368391076,98.3566075426631 287.62276926002244,97.72549172818654 288.0179155638054,97.11405183572258 288.20858798791824,96.2627497143657 288.20858798791824,95.4999184652613 288.0198973115083,94.70176964393947 287.5618305233374,92.3032181315128 287.5618305233374,90.93283970834489 287.7899438203254,89.86729652266328 289.12479234121514,87.81087956749242 289.50910981029114,86.99694754255842 289.7106818456637,86.57030560810395 289.9387243660988,85.39067038555139 289.67133000183964,84.47651855651023 289.21524496096936,83.18080954953466 288.6430861357264,82.64814412172423 287.575561202543,81.96394578391629 284.90770435495847,80.82160988108292 282.3931498347622,79.5260424275147 281.2784876208533,78.85762729331894 280.5922367587394,78.32482031210115 279.8314580338404,77.60325187782006 279.45004240926306,76.7657512125233 279.410690565439,76.11892297118852 279.4362409533035,75.43076113827648 279.9749224004738,74.6660189183237 280.9304785977959,74.18041999458538 282.13559343145903,74.0408483465033 283.560965348857,73.76170505028884 286.232856468199,73.83446349563282 287.4360603311143,73.79709339920996 288.51922691465336,73.49232893837701 289.8522352413481,73.11091331384996 290.57769639397935,72.5860333227901 291.85556967318763,71.22549286062848 292.97228441135223,67.90684427655478 299.0925578018437,64.04562152696067 300.98576369181575,61.104425072360215 301.15293825211864,60.84495769815836 301.15484922306763,59.39601714039765 301.44191950944,59.067684039201964 301.7899285324974,58.67048521106273 303.42366704821734,58.40117987585458 305.04565663223343,58.063008813652594 305.3739189566249,57.994213863412725 305.8025426386817,57.8880488166494 306.4631015594232,57.72292678065252 306.5633921403346,57.07015329666158 306.29210505742356,55.255580317935696 305.83991273520513,53.307239380376544 305.9302945782054,52.31042036828142 306.8858507755275,49.68184458796814 307.74897260539245,48.05199879054808 308.29352851851525,46.87434531554757 309.38462209206136,43.459440422420535 310.3833520749043,41.328212497700264 310.97320507455754,40.105403489476025 311.3034491466519,39.777070388280336 311.4726054544565,39.607984857179346 312.811346693797,39.041771274592506 313.28130396717967,38.842605646943774 313.2891601806339,38.83920836546907 314.05984764324285,38.43033138212854 314.46879540318645,38.11381798949122 314.7853087958741,37.29790421705545 315.05857762628693,36.301155981664 315.8705279034677,34.18571126050562 316.0140630468551,33.81024087858444 316.81815711078275,32.316003234192635 317.1091201154047,31.529603344725487 317.64390884412427,29.836907839671422 317.6537468050803,29.8073939567028 317.84838272419665,29.142800764153506 318.01350476024385,28.574746987472256 318.17671582534206,28.016318841635993 318.20417718395436,27.92197350348132 318.92376387083425,25.4546270407645 319.06928076152224,24.953315690117677 319.24820425352897,23.6773533818081 319.15180639106825,21.703462056334143 318.5864421289758,21.209228375451424 317.5585521464312,21.034622261916326 316.65806022024395,20.952804399256188 315.76103635198365,19.129172003214148 315.27388034086505,18.075731632855312 314.32292462892985,16.77372349975549 313.51132823511654,15.050027801056194 313.28130396717967,14.459467034466751 312.2583683535906,11.833439215234357 311.4698451632646,10.033375459605354 312.1887948597612,9.669441679427825 313.0701770776658,9.995014489381312 313.28130396717967,9.930890801181729 314.6472234585189,9.516280905346358 316.8273580813554,9.229069065566625 318.7524842620199,8.94185722583718 320.631393259157,7.639707539330007 323.7161248568933,4.537352543836769 326.38341549084845,2.5648767522854565 327.52016003449376,0.8038817338166746 328.4247570093936,0 328.69335457766556,0.1951313558912382 327.8836691546001,4.467142059573672 328.43657671805255,6.2768314461482415 331.5370207426974,6.032297955164747 332.8203438275355,5.4127895191355115 335.2594503877487,3.305484118246078 337.1113934629477,4.420146332205236 337.8919188865127,5.497580003148874 340.4025099115043,8.949854992698782 340.8468460204696,9.559383914314363 341.3324449442079,10.227799048510123 341.64308387094303,10.654440982964589 341.70012988937856,10.758624282175855 342.1876397840658,11.639369509847967 342.85216219981083,13.70569520267851 343.0939353996527,14.460599461624986 343.9983908208435,16.949603593856175 344.1989719826663,17.70656037705838 344.33847285389385,18.4594828884528 344.3011027575716,19.641099858557414 344.26182169030034,20.836447508018477 343.8823170366719,22.609757671921056 343.16676462154953,25.605947620701265 343.05274336143253,26.734552844127894 343.1274127775243,27.526756422843853 343.31539568699804,28.016318841635993 343.5048649070981,28.509773978828562 343.6936263600608,29.376859303847905 343.54032403267263,30.281173171882767 343.27682238666296,31.036148207532914 343.0055353039531,31.771447321170456 343.6130117012626,31.659337031851557 345.3902853603699,31.415582084558206 347.35242775398916,31.15215121525225 347.5687213425193,31.753753146709904 347.729879883563,32.20792721663123 348.77971064213494,33.49953117514563 349.5780010168641,34.51206261414925 351.0288525453726,36.161513556827956 352.9024532901866,39.14595457380377 353.25442580844873,39.708275437990174 355.17912732899174,41.8590377313157 356.23483255371735,43.14292702978321 357.1785690423805,44.65082457682778 357.4419999116362,44.95360729010866 357.5933912682766,44.916237193635496 358.15960485081314,44.57608438393175 358.537056980387,44.464115647969905 362.07221148290074,42.26954257868991 363.63085592240736,44.074631479877574 365.6271126842816,43.88233119188192 367.30006149071994,43.51563712051248 367.8671951704546,43.45314129634657 369.9861787263442,43.053677613840584 371.4996676326271,42.260341607966396 372.2618618913984,41.87857209992096 373.3974032312321,41.309598226142214 376.0629952245001,40.165139022399735 377.23590666085727,41.908227536296934 378.2167301392292,41.0278361921432 379.1368272107756,40.48759765769322 381.1856002826536,39.56474029480399 382.1588506543859,38.74097030886368 382.77814676035445,38.133423134800154 383.458381603008,36.85165713729205 384.1012463493392,35.7958103592094 384.78141041543995,34.889514743622485 385.42441671507794,34.270289414407955 386.48988912400563,33.7315371905843 390.84959215625037,31.529815674836513 395.5114409115938,34.903670083200986 393.5835544397374,36.87579199123392 392.5763312530569,37.445969068874575 391.39634214693564,37.92116381802747 388.83542888970396,41.12869298653315 389.06347141013913,43.604886536455105 389.2380775237748,45.52413825121741 387.93691871081734,49.19235294582939 388.66237986364973,50.56110350496365 388.4756001581888,52.25931959245182 388.23071278358634,53.67343801487054 387.05086523097305,54.362378391472724 386.5617274723527,56.47704456894097 386.1301311690432,60.56362032433112 388.8637395689616,65.5530236371298 388.6047676315849,68.92687804549428 389.3242127649568,73.3938077750072 392.6641651351271,73.74931912815137 396.15373944429564,74.03334601651714 398.3293443587004,74.49502241637434 398.88373823277914,74.52842901774339 399.2966494877263,74.71124522825112 399.6288753073224,75.07503745502129 399.6701381220954,78.11249021867509 399.87659374966955,79.20167282142313 400.14200636642704,79.99585814764085 400.45653801161285,80.62308124371698 401.0188588756987,81.28562191201054 401.8799281813079,81.68274996349639 403.1047897140393,81.61593676075829 404.3433819257752,81.21880870927244 405.15335045565536,80.32617299638858 405.71758229069013,79.66561407559678 407.95299351472227,78.45653574677928 408.5467392326251,78.18128516891497 408.5642210769746,78.18503633390804 409.41566475168855,78.36417215612637 410.19229745680275,78.82025719684577 412.2015771313487,79.46121097232864 412.7952520726987,79.36877660497207 413.7094746782927,78.91262078749868 415.71875435263746,78.13605885903785 422.72961093200854,75.75916501612555 422.80824384330504,75.7473453076175 423.91901333876314,75.57627802896444 426.43158611145765,75.75916501612555 427.34382696975103,75.98720753651041 427.9238420082471,76.12876093214454 428.851724516695,76.35283995747557 429.62835722201044,76.80906655160234 430.04509041865435,77.68584828422063 430.16703866897956,78.55484458003806 430.3419986659827,79.04235447462476 431.24241981561715,79.44111039014427 431.8381472812229,79.704965919622 432.7759385271796,79.98410921578616 434.0008000597099,80.34783066590296 434.85599489956775,80.60340532170437 435.5480494508802,80.68996522315877 438.07435290278033,80.86096172510814 440.44926499804,81.01037133419652 442.69260321228035,81.3406154061903 443.91541222055486,81.89316908607407 446.59905227160067,83.10422916249392 447.2104213875621,83.88475458605888 449.1407142670418,86.99694754255842 449.5892969778253,87.7204269476879 451.1857361739769,89.92823525949919 454.14066330793383,92.9499755961942 454.6321366976246,93.92322596792657 454.8700879555686,95.14603497615082 454.70100242451787,96.87426038348305 454.8012930054293,98.09706939175757 456.3996431723287,101.93479427764233 457.9311093596354,104.76975490877578 458.340127896333,105.07444859290504 458.9279991484845,105.38310577208813 464.21848653367584,108.1650546565939 467.1596122116732,109.8400559871874 473.06168104288673,113.19607466773427 474.04462782226835,113.77212621127711 474.65606771458147,113.87432776293632 475.5722720678783,113.97660009129922 478.0160498902324,113.80949630769999 479.5494978252421,113.70531300853901 483.3340694109912,113.77410795882916 484.38786366476785,114.04737678909113 485.50854189813714,114.42093620016394 486.69794430489173,115.3705471548299 487.0380971146961,116.2866807314231 487.173776044428,117.50948973964735 486.9692313878028,118.25660856184325 486.1572811102197,119.34579116459128 485.343349085336,120.44091900994518 484.69659162075516,121.63032141680037 484.52750608970445,122.54645499339358 484.52750608970445,123.39577536719841 485.39055714281545,125.22216805448265 485.4102330647275,125.26350164600963 485.6146361680459,125.56628435924021 485.6146361680459,126.10885852476063 485.51250539314066,126.51787706145822 485.51250539314066,126.85597734690624 486.05699052950945,128.38553256351548 487.93066205087626,131.2205639714029 488.03286360253543,131.76519066107846 487.65937496816633,132.4767795809962 487.63580632780355,132.4965262796622 485.6480427695658,134.05559537924003 484.80473841491965,134.71806527082992 482.7561068965497,136.01766699620595 481.8045141944323,136.73130844032912 481.5312453640194,137.13827445277096 481.03580847932506,138.07019123297636 480.99058216934736,138.15668035772708 480.7192950868386,138.8369152004812 480.78610828947615,139.34608276458226 482.61844621931596,141.1096965208356 482.96058077662207,141.49698661131515 483.3006628096724,142.10835572707543 483.3006628096724,142.5841874665111 482.8936967972306,143.39811949144513 482.65581631583944,144.0449477328302 482.62240971452064,144.68972344995953 482.65581631583944,145.33456994379253 482.8936967972306,145.74160673298834 483.2671146548457,145.97750546677716 483.91408444968846,146.38638245011768 486.9692313878028,147.81373611501743 487.18552497633294,147.93370261784085 487.76157651982555,148.2541795055823 488.3965850527025,148.60608124714074 488.99033077060534,148.5628366847654 489.7059539622806,148.41144532812493 490.22304851658987,148.1815626135954 492.1694077065467,147.31631748277104 492.9164557520389,147.21411593111182 494.0370632086542,147.34979486084376 494.69380018790014,147.4716723344653 495.4899672616196,147.6918586413959 496.41600957567135,148.4704023174088 497.06085606970555,149.21745036290102 498.0890291588637,152.3886710853881 498.12250653693644,153.16919650895304 498.1146503234822,153.6725603838556 497.54843674094565,155.06445492318082 496.9330333532267,155.88426141401703 494.0449901988624,158.63471466800212 490.22304851658987,161.1616551102353 489.52504872257094,161.62311918003175 486.8670298361436,162.91281216769778 486.1277672273516,163.2705883752087 485.8565509211945,163.71294273657168 485.88995752271444,164.35786000710834 487.0459533281503,167.34612296573064 487.5217850676866,167.88876790790442 488.23542651186006,168.36452887068674 489.40522377325544,168.9288314823749 490.20733608968135,169.19028060412882 490.22304851658987,169.19282856526 490.2564551179086,169.19813681758308 495.53717531889794,170.09657621971573 496.56740093251295,170.58026417260567 496.7383974343115,171.05602513533768 496.80528141370297,171.53185687482366 496.80528141370297,172.3457888997074 496.9762779157026,172.7192775341268 497.31643072550696,173.29731082522173 499.7287836938429,175.91208514947488 499.8977984483408,176.08117068057587 500,176.52352504193883 499.9665933986812,177.43972939523573 498.81059759304424,181.95563659961886 497.0058625755258,185.7952724563017 496.6027185045795,186.6563417620115 496.56931190326077,187.2678524311791 496.8071923846519,190.42527169760606 497.1198838356428,191.9351509922027 497.5601856728506,192.51120253574555 497.69388285487963,192.6921077753546 498.2051029432364,193.3939295109697 499.1212365199805,194.2766564861436 499.292233021779,194.68567502284117 499.26675341066846,195.14572355866468 499.25691544951127,195.3304507400208 499.0544233171418,196.41772237192046 498.30723371834284,197.57173642985452 494.8391755250802,200.77048928780846 491.59845208531647,204.9580633910462 490.22304851658987,206.73554938006333 490.0756206551541,206.92608025061796 489.6411225071448,207.54537635653617 489.1868776604695,208.19418634542302 488.9156613545136,208.7032831328707 488.7799824247816,209.1791148723064 488.74650504670893,209.89084534558117 488.8821839762397,210.5356918394142 490.002791432855,212.87917908090714 490.0598374512905,213.20156693949696 490.13847036258693,213.6597045044721 490.06578269399694,214.76261778657656 490.04808851958666,214.81966380506233 489.9693848317374,215.08698739271844 489.86718327987705,215.59622573352317 489.9693848317374,216.20759484928345 490.22304851658987,216.77210979108267 490.27414929252006,216.8859187211892 490.7165036537824,217.63105579583305 492.36199110140734,218.7555559707985 492.45053275041374,218.8165654843381 493.75013447578976,219.70325595461608 493.944699617951,219.83695313679596 495.2442305667742,221.7243553375192 495.46441687355394,222.40055590851583 495.82028211026676,223.48980928796755 497.1474159710091,228.78624191591564 497.52486810058286,231.04515100350625 497.55827470190167,232.43711631953516 497.45600237348845,233.11544019144088 497.4068833452612,233.64230193000253 497.3950636366023,233.77203561712858 497.3537300450753,234.2006592991351 496.9920611193651,234.99300443120813 496.9802414109073,235.0165730715709 496.8445624809742,235.73021451569406 496.57327539846546,236.986500901991 496.55558122385406,237.47018885488097 495.9264471569295,238.71656650351824 495.21280571275605,239.6347526043169 493.85226525069504,240.53319200644955 493.3096910852752,240.89103899061388 490.22304851658987,242.19248091013458 489.971437355792,242.2986459568476 488.9175723252614,243.08115312796463 487.8303714699648,244.33743951426158 483.88853406162275,248.6489436153263 481.34057294010773,251.09272143768035 475.9595621584082,256.3832088229723 475.3599419743517,257.2738627883544 474.8074590712219,258.0936692791906 473.2759221071612,259.6429004177621 470.99931884511,261.7819845559869 468.5791096631187,263.93869209191837 467.83793608357894,264.59925101271017 463.03495859287375,267.73501260962274 460.6068931974282,268.9598741420524 459.6022179718788,269.4670599586517 455.83144784208923,271.67493904711637 453.826060885994,273.1337175658834 452.77424837971915,274.11871686947046 451.9249280060149,274.96803724327526 451.6123781083308,275.4162660705907 450.66864161966765,276.7668977950927 448.61816990710264,280.8287017062582 447.4640850726158,283.8151244707357 447.12789575781494,285.13234959386864 446.4790857687772,287.6842742104878 446.2314381031841,288.5139186623303 445.87946558492195,289.32976165806235 445.9836488840829,289.9058839783089 446.1487709201301,290.4641705707378 446.29428781081805,291.2368397808485 445.89715975953334,292.6307868443792 445.49606821284283,293.6864920690545 444.5169433753591,294.9762558334242 442.8556727238706,296.54311036975264 441.7881477908884,297.58706666262356 440.92113324257275,297.9900691800116 439.8162382128659,298.50525276342216 435.00738625620824,300.41813457540684 431.24241981561715,301.2381533963541 429.70897188060746,301.5722194100446 421.3002755194059,302.6614020127926 417.97185975128104,302.93268909555286 415.5261001814252,302.7282859922344 412.197613636144,302.7970809425246 410.2610216305904,303.06836802528477 408.01789574641083,303.47533403772667 405.7746990858796,304.1889754818498 402.2868941939509,306.06845069246543 399.58754171579545,307.8772199819425 396.8155015688488,309.7370192705455 394.3324426794246,310.9383829393161 393.18026881548434,311.7404952557421 388.9357194706154,314.93132112353805 385.97873981240275,317.5795728258639 382.87249209835824,320.4499218059185 382.65223501482456,320.6150438419657 379.5687773976538,322.9192500161874 374.65057544281876,326.59369306016964 372.2618618913984,329.52271592274366 369.373818736833,333.0638864447681 364.88933638631715,338.80267343407917 359.8248389973052,344.97404760050085 356.8816607950521,348.25334434054935 355.5723626620269,350.0365632421116 355.1712711155375,351.6172192345504 354.7269350065722,352.6080930039894 354.1390637544207,354.011807251873 353.7164560918243,355.0263204384287 353.39994269913666,355.7832064449272 351.89784884139124,359.2906164820642 350.6749690563627,360.78280160220027 346.6662476686292,365.2672839527664 344.15176392518686,367.33948411149913 334.8268632106884,375.0639113581891 333.4959074082493,376.0273237689152 328.4865450667239,379.65462953217195 326.73475101892836,380.97192543195825 325.499131428244,381.8998079404061 324.7530034799498,382.4600762803368 324.57804348294667,382.7117582177881 323.95082038677,383.60630490152033 322.2187730378415,385.6549364199406 321.22011383155143,387.6877847346984 320.95668296229576,389.03254199324783 319.70032579919456,391.16957360721693 317.77951699710223,394.2326475354892 317.44538020675833,394.87161956342004 317.1130128338554,395.50662809624674 316.7748417715529,395.80346556687147 315.75650664335075,396.69801225065396 314.87576141562835,397.3153973857238 313.9005292963942,398.1371148474084 313.28130396717967,398.6577482365494 312.6540808712041,399.1851054120368 309.9685298490082,401.219864697643 309.5595820890645,401.5305744010818 308.75945152034154,401.90208128794916 307.21616562417466,402.61777525627775 305.0279624578232,403.6361103845302 304.2454552865553,404.2141436756251 303.0403404528922,404.9042164793353 301.6208430014467,405.1676473486412 296.7844589094227,406.8151873204715 296.6959172604163,406.84463042678675 291.2933195856546,408.48042146676244 289.1857310779002,409.1193227179896 284.1900994157815,411.0991592861197 283.72608738490413,411.28395724412917 282.4737644935604,411.7793941288738 281.9881655700232,412.0349687846752 280.95008374295395,412.5834881928015 280.096799874045,413.0356097384671 279.71538424946766,413.35410487865647 278.9998318345464,413.9557775868178 276.1156106216778,416.3739342445031 275.1129879203841,417.21539840490397 275.0343550090877,417.2803714134974 274.68634598582906,417.5988665536868 268.6389018174355,423.1331088863223 267.68730911511693,423.778026156859 265.1393479936019,425.40787195422877 259.314071879691,429.19046179252643 258.6239282991263,429.5168131461701 258.128491414432,429.75271188000914 254.3006752664081,431.5694789363478 253.94488080624808,431.73842291404145 253.52800605609625,431.8937777657357 249.8004804887826,433.28765405261305 248.50094954016055,433.77134200550296 246.94577315898314,434.3531972382946 244.98370154191667,435.09047809948424 244.00655845193472,435.45816304465484 240.4737395800891,436.03223284064563 235.98918645302047,437.7328553358576 233.1699382487955,439.4983092863059 231.92596700778145,440.8804366413286 230.1441636402424,442.86020243270474 227.62975067355404,446.15330062886363 223.40077220208565,453.2013857511496 221.56447077704115,457.1747895667663 219.7636284777723,463.208503055904 219.2209835355985,468.6052262646629 218.96144538479354,471.218018841364 219.01856217998298,472.0536085358124 218.6724641274722,473.435735890835 217.79370064745274,475.78906109338453 217.21566735625726,477.0807358285523 217.19408046339626,477.123909614224 216.63770484181572,478.1659549362465 216.12846650096068,478.87966715707336 216.01444524084368,478.9720307477263 215.37936593121273,479.49110704953733 213.30723654923395,481.0186097418908 207.0001834532815,485.4127102493058 206.56773782952794,485.0254201588263 206.17648424399457,484.67542938811624 205.86584531705827,484.3962860919018 205.48641144018387,484.05811502975007 203.6698567140065,482.43216195073046 202.97192769674155,481.55538021811213 202.0950044107159,480.4524669360077 201.67621868981627,479.92751616829446 203.41222953394936,478.0342395016187 203.45752662047985,474.452160048239 203.46134856217662,473.7522492835226 203.4810952608426,469.5154145986 203.41222953394936,467.8974592864419 195.32011734198818,467.47966443924287Z"/></svg>