<svg xmlns="http://www.w3.org/2000/svg" width="500" height="500" viewBox="0 0 500 500"><path d="M10.636535231469406,266.42622533883224 8.424063501664657,265.19641946327096 5.6240250731199435,263.6700455620095 2.4607256216019118,261.91658130865125 0,260.58369599878546 0.16838009341254256,260.374427575017 2.805793426175007,257.10117982098603 6.3138822146792855,252.73346145944373 9.760847358372866,248.36685696841369 10.55471215958112,247.35996443045394 12.695339240766685,244.7518830213794 13.230693259058011,244.07882676022007 14.380254046030958,242.6333477054035 14.988009647851348,241.87262055217468 16.340944627103042,240.17935171811777 18.122441288601024,237.96182115978178 21.92417419268186,233.22963508213695 25.05090156216567,229.29451618341085 26.210533595024607,227.8490371285943 32.224784640086725,220.35208518885784 35.175241999922164,216.69213871962228 35.60649553594769,216.15729522539408 36.05566382265468,216.27559755676566 37.609513196816195,216.6852234401383 38.43614435566823,216.9030779491756 38.86377781240518,217.0999545634166 43.170511763194035,219.59595275150454 45.72076472781819,221.05762934014004 51.18392833355769,224.18421747583042 52.37679083688103,224.866880870187 52.97243309695869,225.20772524902236 53.69357143547877,225.66710401560664 51.20272489857196,228.6792883667349 49.289791515899395,230.89245626553975 51.21650904623151,231.9845598982001 61.509136754915566,237.75900390277565 61.582466564085884,237.69676638751864 61.639366783125865,237.6488235439183 61.66317576549486,237.64084080519748 61.77609438937393,237.60324767520194 61.872908302017954,237.5710382526659 62.03395541450028,237.5433307235204 62.1795011623616,237.51817581429475 62.32518614401636,237.49316013889552 64.88657781369736,234.49178961402774 66.31966505918435,232.81262980655865 66.78698015311502,233.14201060130995 66.90904179750264,233.20967823533493 66.92621396804044,233.21905331222084 67.57518277917796,233.57864784476203 67.59244777220074,233.58820856671682 67.72917537844882,233.66385893949558 68.34639887980497,234.050743299769 66.60792546720243,238.75044148725797 65.52696053976383,241.70837106188299 64.88657781369736,243.46048938835165 64.6606013321458,244.07882676022007 64.0698786670698,245.69523852846797 61.21623521974648,253.47307148408277 58.131277994753496,261.8328089633582 56.2829955134314,266.83617610113316 56.21616328229886,267.0169480041061 55.86663999567664,267.9771508028042 55.742397021506946,268.1331390867553 55.346183995524164,268.62987892695776 54.50219502103245,269.68828797643204 54.00703316406393,269.4183136093651 53.937694724254015,269.4467173076096 53.67491410425792,269.5542058126877 52.158704271565306,270.1744460467184 51.377416924920404,270.5146870790056 51.25855765830917,270.56652846941546 50.42510404239217,270.9545267002341 49.65815777871242,271.33755892497356 48.952567216253684,271.71659978035257 48.46784789537489,271.9965061595121 48.01928295515004,272.27390633002716 47.60227767960469,272.55121367802434 47.085534581225765,272.91841965911556 46.12523895997673,273.61110788814864 45.496041350539365,274.0661704064772 45.12567940291423,274.3503002113745 44.790868489460905,274.6275147367877 44.492954536805186,274.8987422081933 44.2307308521147,275.16291516628854 43.883017605202724,275.55147033234687 43.58719215984409,275.91538111317675 43.249550158686205,276.3636675858147 42.833658753620156,276.9590313782396 42.40328703179553,277.6210417567281 42.1539656806956,277.99191422831746 41.96627849827162,278.2321389702502 41.75403975307117,278.45681593618764 41.57628458273976,278.635452920687 41.48907780342491,278.7467471500566 41.43124935887559,278.848341423645 41.39671937283001,278.9454338038759 41.38418832944319,279.03064489860947 41.394120341667666,279.1424032406678 41.42322020897824,279.2316521160043 41.47274103577956,279.31950865320863 41.55201148768204,279.4087575285451 41.611603560369346,279.45516880015396 41.80857299722721,279.2122522044749 45.18949490137225,281.0585390010838 43.81405045546464,282.75487097902476 42.94397834633688,283.82799240160193 40.93720137238637,282.75487097902476 39.54082544299085,282.00816002983277 37.87869857223317,281.1243965954975 37.7993352977138,281.223531071717 27.001845776247055,275.34712150338225 26.210533595024607,274.91507897580567 15.353219944328332,268.9878490650225 11.670485540784057,266.98766249172667 10.636535231469406,266.42622533883224 M50.17114156414125,230.39404561955234 50.53068968534101,230.4385540290319 50.53570210269574,230.41131061257514 50.685981800324946,230.42987512124506 50.66992350026644,230.5182421824136 50.5195973914607,230.49967767377666 50.523727994614525,230.47707538447088 50.16482963120535,230.43261338626678 50.17114156414125,230.39404561955234 M50.80813626719755,231.34677620349385 50.7584762064709,231.31855815035118 50.97178241097412,231.03261830584262 51.02394868024623,231.05888708561352 50.80813626719755,231.34677620349385 M84.54820251459947,343.3653926928076 83.6367315510527,341.15189991507447 81.95822150147313,340.6555313650427 82.48805257841256,338.05779966950695 83.04758686914472,336.77629163736225 82.88895314272288,336.4759178873706 82.66984552928092,336.05821644272623 82.38747935281845,335.5231873034291 82.44294082235193,334.42867028464235 81.62039385534528,334.16050595718673 80.23065473764905,333.7066965431968 79.46616827147012,333.456586200414 78.64756626251544,333.1884682842338 77.80696531077008,333.580365061829 77.21266897758203,333.92069891666716 77.2010197483961,333.92719649470496 76.27024169596983,333.8859368742443 76.24443702892063,333.88463735863013 75.62433602868337,333.77631345065953 74.58778668820639,333.1884682842338 73.20839728411491,332.846788502506 71.81346010409399,332.8571382160778 70.11684965859916,332.8699941383269 69.80742571068286,332.8313335490615 68.9089034919032,332.71660488560417 68.10441050950335,332.6147321443629 66.8513061755702,332.4548917248778 66.33177840105898,332.43553822462394 64.88662422513772,332.13966636798983 64.88657781369736,332.13943431164546 64.8757639875358,332.0812809882998 64.86081955808851,332.030228589507 64.11861050215519,331.9528609997008 64.17189064203852,331.5485724125452 64.88657781369736,331.61614722405227 65.87100729621069,331.7091090010963 65.85764085006333,331.8161333934857 66.35410222261304,331.31809403763606 66.81013937769343,330.8605253106631 66.07767668888273,330.75493966771427 66.09313164232718,330.69460501461947 66.84759327392855,330.79155816102394 66.96065113146913,330.6140350470699 66.99778014880897,330.39177146725893 67.19423906153776,330.22380907522665 67.67510624698149,329.66817333130393 67.9337098523834,329.0503464833997 68.0630580665247,328.7361885857485 68.18576946870292,328.44602531553517 68.25821746367234,328.17089929735306 68.35828016526929,327.74967059607 68.44938549159146,327.45667623828405 68.50549671891552,327.1217725022138 68.64654057341929,326.5934265860234 68.72813158889726,326.15131281249484 68.72892058061318,325.49747081779606 68.74465400164449,324.4908567474891 67.75878576975656,324.5054298867656 67.76486564628215,324.36197264616845 68.71555413433391,324.3499521268447 68.88119596279068,323.4893015057794 69.08076443067898,322.3332431408346 68.20020337415305,322.1523320040023 68.23037070076639,322.01982782352496 69.09580168274317,322.1942413822865 69.31254232130118,321.43091519786236 69.60168454352018,320.41237343071674 68.86170322867738,320.2529971239534 68.89289160328505,320.1055949252712 69.648884806746,320.2711439311441 70.11893816576435,318.4798080801704 69.55671202125296,318.36791050428565 69.5751372960635,318.2736492115945 70.20363873640183,318.4024404903642 70.20503107459989,318.3974280730425 70.51366603093219,317.58072892621703 70.66181080995585,316.9991492814517 71.8001864804316,312.53169309717475 70.7852183812331,312.3170409658809 70.81626752204734,312.1993419810574 71.80492043019949,312.41668596606456 72.21050853283732,310.87750255382946 72.17416850721341,310.5509528466838 72.22122953664581,310.0149490706348 72.21686687708166,309.9336829340192 72.60115220615977,307.0279660400077 72.71653062753965,304.43631422106347 72.81079192019787,302.2660303372617 72.75718690141927,301.47123731064306 72.65248307267133,300.47548347787205 72.54341658435924,300.2615739269527 72.49180725026083,300.09686032393927 72.4339788057115,299.8539437282602 72.35080980706552,299.64755280330695 72.24833371927618,299.44654558591213 72.19389329773702,299.2977510490649 72.18321870523698,299.1501632052809 71.19581890135757,299.24827663350607 71.17966777881408,299.16218372463754 72.16966661385584,299.0706142857256 72.22406062421845,298.845426795791 72.23287876583173,298.636297605849 72.24146485103468,298.2727581151899 72.26573794609239,297.9901598822512 72.2493547672705,297.83579599280955 72.16929532365211,297.6374342178855 72.06691205847966,297.4468695365805 71.95826327154784,297.23300639690353 71.89662910287188,296.94033691804583 71.82297441480628,296.72095083705005 71.78946547662312,296.47571367779545 70.91034316947177,296.5610640062895 70.89080402418193,296.4853672222682 72.08538374459863,296.3825198443411 71.99056551663482,295.58034742554975 72.29274930623778,295.5401088530504 72.3118243388389,295.4885923415359 71.95529295018176,295.4997774580001 71.78714491317953,293.04503889037284 71.73312219288874,292.0898485090295 71.74876279156697,292.0534156607887 71.7775841911588,292.0193497874318 71.96007331125809,291.89376088640546 72.05298867702669,291.83031667808524 71.82571267989395,291.57264129799483 71.82195336681195,288.5651908965685 72.11963526305736,288.20225475245746 71.95849532795816,288.1936222559131 71.83833654576576,288.15663247243265 71.76138665743878,288.10335233261526 71.72323659210463,288.06910081415657 71.70824575134888,288.0118293049788 71.68893866233745,287.1667728711843 70.79626426393688,287.2031128968742 70.7846614460594,287.0094850716191 71.6587713357241,286.97388762630374 71.66104548812307,286.55572206893765 71.56632008277613,286.14085171186593 71.51860929555315,285.9923356426715 70.08542922771309,286.07350895673625 70.08194838221794,286.03150675590103 71.5128078864825,285.95042626438726 71.17929648861035,284.7362609873393 71.11599151414948,284.27344778666725 71.12490247837964,283.9366875997432 71.1646305267499,283.70523458814824 70.72321292235341,283.70820490951434 70.73258799914036,283.6400267515251 71.23563977234473,283.6414655009327 71.23512924847947,283.43377506039826 71.27495011946662,283.1979593892721 71.3657305667616,282.8862612890228 71.41200260447808,282.75487097902476 71.56775883215073,282.3132213182509 71.68053822223636,281.4481152151035 70.5043837766302,281.31482204300914 70.51705405381045,281.2394037266077 71.7147897406951,281.3745533495888 72.21918744078907,279.7092241010547 72.2926564836209,279.721105386585 72.30481623680397,279.68179503952905 72.28179624615089,279.6549693245185 71.99019422656299,279.3139857118897 71.83935759376008,279.0843427398731 71.6823482618147,278.8341395745393 71.54993690382233,278.51831087110315 71.446579001964,278.23121074480684 71.3235427208905,277.9596583945389 71.01583598993564,277.9993864430411 70.97675769922405,277.88697834315917 71.41265236240056,277.8343479611324 71.51229736261725,277.5168484519443 71.53290396720985,277.2209765953103 71.5418149313081,276.93953864415926 71.53875178745703,276.765357141742 71.53216138680239,276.4071085360575 71.52905183164287,276.23292703364024 71.52881977523256,276.21951417615145 71.51953752093058,276.0701162927891 71.48649269556805,275.83768864447524 71.37965394834647,275.5479894869836 71.32744126776592,275.3364469108822 71.25383299087686,274.7351424756922 70.94194924545972,274.76182895687634 70.9289540895161,274.68576088268435 71.82636243768454,274.6112243804508 72.21709893349197,274.20772478491216 72.36218056866458,274.0031438996032 72.43128695206418,273.8640029072617 72.4553279907116,273.67325258085475 72.4440500517294,273.39334620169524 72.4168066353056,273.07668209536666 72.34162037524851,272.72929372725105 72.18939140424754,272.2775728204923 72.08584785741927,271.93009162982577 71.98875547705649,271.7007735367044 71.876486610968,271.45799617481873 71.61983227893785,271.0641037125434 71.39548019186276,270.75899601284976 71.18718640471427,270.50642587266503 70.96659363072118,270.2429954949113 70.80610345341255,270.0188754642136 70.6203191331838,269.81851800460936 70.39313595853605,269.5891535002125 70.19834785146026,269.412280144049 70.18187185015339,269.3973357146017 70.08542922771309,269.30975764501716 69.9204371570469,269.28966156442175 69.91783812575265,269.39960986690176 69.72713421065416,269.382252051328 69.78867555684512,269.0105905881217 69.97928664945864,269.0253493725001 69.9357064653895,269.1799453182861 70.81366849075309,269.28116830170376 71.1027178904871,269.13613307787256 71.44500101866407,268.96455060668364 71.71423280538949,268.7908796282306 71.94833125945527,268.62751195210683 72.1919904355418,268.44613670258576 72.43848069920098,268.20442679996995 72.66923754169696,267.98369479211743 72.98622652682188,267.6456815008548 73.18570217235711,266.78888301532345 73.21767953841689,266.6506702484253 73.42003268283321,265.9627623803696 73.6137069192978,265.3462350480795 73.8666483496863,264.5807275338733 74.11429889500133,263.87425515714773 74.43490795941483,263.1378475102521 74.87790354711126,262.2303679161317 74.93939848199379,262.09865272723835 74.76405669785476,261.7666729012917 74.50118325537369,261.38002059736266 73.89616591837715,260.43466940559387 73.59305390339675,259.8219942088378 73.4921093875989,259.53118118083387 73.46328798800708,259.44791935953805 73.30869204212217,259.3984449439792 73.26794294562568,259.5160975175602 73.12805937290966,259.4749771308929 73.28172709328523,259.1371030734566 73.41539155568222,259.1704727777474 73.35598512796489,259.285711965202 74.11894002228422,259.5280716256414 74.22452566510115,259.47381684910516 74.84230610176292,259.15617810609075 75.54580815705647,258.64848520576834 76.06640339100237,258.1411635956168 76.33920884557601,257.7529797197292 76.4815058043525,257.3975622015843 76.5581308139161,256.966726367071 76.48002064366946,256.31065663134757 76.56258629596522,256.19643849188736 77.07659112925646,255.95380036382812 77.41543982337863,255.72675642300678 77.71479252540895,255.44610746350577 77.90971986614626,255.14429496410654 78.05192400243777,254.78873821216825 78.10515773101264,254.3045294152866 78.03034276115929,254.04318754476404 77.9557134364078,253.7898284129293 77.89064483354514,253.53113198487753 77.7836204412217,253.22556017249522 77.67441471898428,252.98821292937757 77.6192781283461,252.78971192066012 77.60544756937811,252.64026762598934 77.63487231558398,252.52628154287345 77.39130596211434,252.4773176513118 77.42597518195335,252.4015280447396 77.7222647400007,252.46413685016736 77.75990428133768,252.38347406009981 77.80965716454931,252.27621761136606 77.9109729705509,252.17383434616062 78.14507142461669,252.01552549863408 78.37295076836347,251.82366130171485 78.56885274578666,251.6344425472994 78.74572610204908,251.40642396979217 78.9093258345172,251.1440146400328 79.00349430455853,250.90564634895378 79.0363534849511,250.6306595645651 79.05440746968982,250.44747427543274 79.15145343848033,250.2221011404293 79.23940279833457,249.97329031322758 79.30447140106531,249.7301416611712 79.3507434389137,249.4814700677959 79.3969226541452,249.21154211200442 79.38002895132614,249.0383816575815 79.37988971753272,249.0367108517966 79.45883529053991,248.9393864151884 79.46208407962474,248.9352094007591 79.84353832099828,248.45884410877187 80.0674727066931,248.16492152554252 80.22884469820262,247.99965098728947 80.31085341506088,247.91833843939835 80.36162734626681,247.86775015332725 80.9685939566351,245.519107752646 80.9505399718964,245.4096235628547 80.9046856355602,245.13282673888767 80.83014913329369,244.90545791917103 80.71138268929936,244.7334577465359 80.71384248666827,244.72867738555848 80.77097476198665,244.61524823768227 80.78656894922453,244.58433833079334 80.92589558663495,244.49188707771347 81.06796048913303,244.31074388453678 81.22910042423224,244.07882676022007 81.25755053375224,244.03793842993016 81.32015933911407,243.97751095425147 81.38258249950593,243.91740835750105 81.4329387291997,243.72238819414684 81.96527601468459,241.66247031423836 82.13328481802532,241.0128053340018 82.02226905634147,240.66077583870222 81.93190631055867,240.45192511638004 81.65357791450124,240.28173498332322 81.68216725781465,240.16556757045822 81.81174752823436,240.01329218824776 81.93134937525306,239.8398996774475 82.0188810334632,239.6200030724875 82.14140679053955,239.3605640640942 82.33053272247002,239.0276096014287 82.45180537527364,238.59547425130123 82.57275314905004,238.1165099281187 82.61605486553235,237.88835211678506 82.62148498426735,237.72391698142445 82.54397816063477,237.52801500386937 82.39898934807904,237.23585604897585 82.14873977146976,236.81829383815787 81.86655923997726,236.40653303627863 81.6512109397492,236.06202216701115 81.53221243921264,235.81167976785093 81.40629865925804,235.46438422225327 81.3695873434304,235.1872161081155 81.39608817944672,234.81847855503278 81.49874991233793,234.4412477392321 81.55792428377687,234.25277156515816 81.56293670099969,233.99388949203748 81.54785303775897,233.6616776097135 81.64466695040299,233.36065410193126 81.71604748620156,233.04877035661306 81.67042520614376,232.83216895191444 81.49448007539068,232.40110106105672 81.51740724355878,232.30864980797685 82.26240097575631,231.09824384394494 82.95007678740167,229.98084606823255 82.52931219890623,229.72637306591852 82.54783029620174,229.65559587666806 82.49334346335414,229.64028015705 82.41444430165541,229.72177835001003 82.19459410780597,229.64157967266416 82.1209858310488,229.55052075771638 81.96151670173451,229.46735175897146 81.69785426766943,229.2645809132408 80.39425447024908,228.58298497812103 79.97873435525487,228.4009599707764 79.68225915210566,228.2273354036318 79.58925096372016,228.0890762254582 79.3498616247128,227.95722180277144 79.3461023117627,227.91030000713246 79.21220579308729,227.84546346068012 79.00191632139051,227.75774615730217 78.96970689892044,227.70298085680176 79.04238695016825,227.6108080713417 79.14217118417835,227.68065703514878 79.1661194004727,227.54017011591765 75.19025140521711,225.27232973913036 69.7084768794333,222.14151817770224 66.45370081165318,220.28089029819412 64.88657781369736,219.38970106041063 64.60360829075276,219.2287931816558 64.52433783871837,219.1836814256611 63.49604970468094,218.59903863697878 60.53477851842013,216.90915782573418 60.03803867815167,216.62177923185104 59.306040102029684,216.19836920078586 52.53746665929152,212.3002864968157 51.130787427467794,211.49203420143274 46.06434737170825,208.58139771261744 45.66460708918569,208.35166191804984 45.16550027403329,208.06497949323276 43.95045318281741,207.38236251011864 43.9261800877597,207.3036954047313 44.25286902869879,206.95315107011476 43.238689921084294,206.60775838667934 43.172646681667665,206.74402188017274 42.299975541245644,206.47070590156895 42.58916417477308,205.857845059711 43.46489845904616,206.14160357443748 43.38989784409093,206.30404302515083 44.48223353312861,206.66526195223443 45.56635442703516,205.40273613013994 46.25542257687858,204.6003316550042 46.40458840402849,204.42670708782663 46.63158593344245,204.1403495419048 51.07815704550698,198.92646087602276 51.257258142728006,198.71644987191283 52.30629211528337,197.48924302754685 53.6283635989546,195.94272663441447 55.222080255279806,194.07235238781675 56.018636910135385,193.1375365547216 57.407030100941995,191.52706542927186 57.49646462134736,191.42342905972774 58.21031639024566,190.59526632881827 60.11433880881998,188.3592176730878 60.688678295206,187.68472266252093 60.53217948712588,187.56261460685784 61.263435482972305,186.685720040764 61.48036176650028,186.78137367158732 62.055258188191914,186.104465274894 63.98104749314659,183.83699618827748 64.88657781369736,182.77960818679756 66.27993701055026,181.15247541484013 70.99815329553257,175.637284773556 71.23452590186541,175.3638295611258 72.10264873762142,174.34264235154234 76.94018840190368,168.6589323829863 78.59855595971128,166.72669191133528 78.90946506831062,166.36445193629032 91.501353584734,151.35931652907772 93.14380207640843,149.41050723346996 103.56262203263394,154.28308740776197 111.90337730185918,158.18381555420294 116.49795395902204,160.34384254701683 120.4309379393075,154.67354543598256 120.67278707568377,154.33000920340095 124.2104862554958,149.22797170216114 124.41098294889343,148.95952890705271 128.35051091852512,143.28138829112402 123.80030343688351,141.1386262913659 118.6254002391621,138.70175606330952 111.81176145167174,135.49872856325635 106.36628054033532,132.990338565608 106.31392862596135,132.9712635329739 106.26853840231387,132.93784741740762 106.23837107570051,132.89440646716486 106.22690749161646,132.84516410798338 106.23489023033727,132.79564328114907 106.26157671145546,132.7509028152922 106.70740338685646,132.13873814253324 106.71148757870183,132.13302955611246 106.9738969084942,131.75937240825894 109.5794721088584,128.05064769253062 111.7689702591866,124.9342700365856 113.24689079288356,122.81624524460689 115.78373089992,119.12121185402015 113.76781090559284,118.17367933250229 113.7362048296049,117.01854919296794 116.09603234671741,113.63697753093338 116.91621233897203,113.42775551844042 118.3535230099659,114.07964823973451 119.07350106683015,114.40624435815565 119.22345588530024,114.19493383843155 119.79380400245778,113.39099779130433 103.56262203263394,102.8689127556725 91.2421002214096,94.88190419880722 82.74150453266633,89.37455706245048 66.70269728385782,78.98335181278655 67.01110018377979,78.66998290675232 83.49568769668085,89.37455706245048 91.24019735921438,94.40363604469073 103.56262203263394,102.39807040500419 119.82452826424482,112.94828067126072 119.91317379306616,113.00578423681581 120.02293645034537,113.07693271620406 121.33962422645813,111.19031452457786 124.01054649740375,112.41028121056456 124.1874662647108,112.16119191574303 124.35398990736847,111.9268614052999 130.1931776358784,103.4666899342238 132.00632678454087,100.86742666672953 132.3925149758142,100.31369378496909 132.43317124969383,100.2555404616234 136.1024927957823,94.99524052413251 136.56428494849297,94.97876452269374 138.20195307909108,92.5967060064462 137.8733148646483,92.40948293667796 139.92176916047276,89.46932887910586 139.98771957753632,89.37455706245048 140.07891772621156,89.24367727644959 141.4223848060594,87.31547458543444 141.45264495515772,87.27203363519169 141.81701984874226,86.7489786039758 142.04638435304017,86.40052277659039 142.23871266261514,86.12381877514133 148.10133808329036,77.68986967252768 148.185667363856,77.5653946420466 152.55927995695393,71.26395064813724 152.7476168971685,71.01462929693838 157.62906162441521,63.98851970787023 157.74481133586693,63.79656268843305 161.3038132892387,58.62648626299749 161.52556634515142,58.303881513903775 163.45432597147217,55.49061587297214 163.78992587650953,55.35500213726934 180.9147568814198,57.80189719996921 187.9088426931527,58.801271111929836 191.533887886073,53.582509262552435 193.54971505804707,50.698512843645815 199.42347918391104,42.294963123956876 202.09932104946262,38.50112013604591 202.09092060936152,38.181392885833304 202.1057258050154,37.93281411497596 202.1231300318316,37.55381967087241 202.08688282869267,37.268900874358174 202.0091903599582,36.99725570153931 201.90323342693753,36.683747561678686 201.7843741601944,36.43595778247131 201.6594350170576,36.22952044627555 201.51231128589635,36.042065320162955 201.3210040243157,35.85428531515507 201.04281486218358,35.704330496553055 196.34019276457107,35.045429673257026 193.33761554664005,34.60758573670876 184.21650115641117,33.28616401096002 183.8858672572882,33.22968149339925 180.9147568814198,32.80065569846424 174.7962197091219,31.917031497955332 174.44938827627894,31.87526135349749 155.85290225929916,29.231628910350057 155.62966404270335,29.207262992741406 155.45780310392757,29.180808567901618 154.95864987746674,29.10826775034829 152.3220255362883,28.714653755692733 152.07224007249965,28.268084500082136 152.2872634939643,27.922506171544857 152.34054363371573,27.84393188870843 155.8765255965663,22.79540658363035 156.0343239200957,22.577923364796764 160.94718907809656,15.56160655402776 160.97517507492782,15.523410077484094 161.11106727815152,15.338925272770556 161.13928533139313,15.281143239595629 161.05008286726616,15.229487494254734 161.7006296617036,14.249559905131942 161.8279821910328,14.29365061316528 161.95640217966476,14.111207904407411 162.12835594105744,13.867270260734037 162.37113330281116,13.523223504155265 162.42784787688117,13.465348648462381 162.50238437914768,13.413600080603528 162.58810599777948,13.375310781508928 162.6815782988537,13.352522847134251 162.778809912878,13.345189866204027 162.87534535780327,13.354472120538984 170.668586855686,14.467832115582514 170.8111158707409,12.551557121373108 170.92292062414066,12.022468624841146 170.94153154405305,11.934751321463189 171.3276269127095,10.541670592296072 171.43613646584788,9.963478970376045 171.51503562767854,9.855804820196065 171.55940480333172,9.871538241293324 171.60674430035095,9.766880823754892 171.57165737899976,9.743535954140564 171.7895582992136,9.42909958886953 171.49995196430592,9.385519404800377 171.76087613341522,8.079970333942327 172.3159085307898,8.136267206401236 172.6613012142582,8.17135412775242 172.9739275399509,7.755091432548588 173.24538706763494,7.348853571988259 174.45495762880736,5.598498873855452 174.55302464572412,5.593207988880899 175.55713250745262,4.079040252045018 175.50589446355795,3.9899770218104202 176.24773222915562,2.9337028908427873 178.30746446409415,0 179.3247995381766,1.411181125115337 179.6809596364981,1.4544828415316873 179.86572290886443,1.482468838329984 180.9147568814198,1.6320059555187403 186.07773238236842,2.3679959009681575 186.31637914110024,2.409116287635414 191.7561514659829,3.190032344043601 192.01067087953942,3.228275231862734 192.5199417631947,3.294689761549055 197.27227033271043,3.9806947674754625 200.4178870896935,4.428656361218168 200.6535635270592,4.467316950483529 212.9875446070478,6.231502207584325 219.59080110035637,7.191426538629628 231.14428382528408,8.871004047544949 231.39810706987348,8.907993831025399 231.43073419385576,8.773679610936739 239.3907778018511,9.936792489191898 239.3728630510377,10.071106709280556 246.1759664799534,11.063658164308125 246.75169830440555,8.369112556161319 254.83268968630924,9.51663124714562 254.30397247998098,11.940227851506632 254.28610414034415,12.022468624841146 254.23848617573807,12.240091077501132 254.30169832771395,12.249234098009689 255.1121783640225,14.465093850560793 255.31044731646153,14.547613091515132 255.3321213803569,14.556616878230264 254.8260064633015,15.28299969044943 253.70545272102223,16.890871784703876 251.82992682327634,19.582215015074286 251.7614237863589,19.625006207526454 251.68266385845357,19.654152486112498 251.59833457788793,19.667286875981457 251.51252013663924,19.664595022235204 251.49455897451742,19.661763934662545 249.84519520355687,22.03092011741845 258.2668917303376,27.368077120685385 260.4408421046044,28.745842130234447 261.5550839139478,27.497750213623053 262.39512793038756,26.43910910780446 262.73012448894275,25.96037684096627 262.647466014162,25.831864029849324 262.59822365494756,25.7351893510317 262.5663855226812,25.66195236441232 262.53723924406216,25.550983013970963 262.48771841726085,25.373924012705608 262.4379191228727,25.104599403462235 262.38807341704415,24.854257004302028 262.3879805944273,24.818798792780083 262.49922841252146,24.563397564989682 262.5048441764902,24.532580480651706 262.53635742986125,24.49702944657883 262.58773470768125,24.428433587110437 262.6592080658329,24.338442131432448 262.79946292875263,24.17507445530868 262.98831039296437,23.954806560144927 263.19999220299115,23.684971426904394 263.25141589185574,23.60932105415858 263.3687435866074,23.476631228579365 263.5234323548454,23.313124318629193 263.57787277638454,23.265738410301505 263.6294356991745,23.23255435111257 263.68963111847586,23.1922229560623 263.75279685927524,23.15189156101203 263.8395859372098,23.104041539962644 270.04403037337323,15.245313737902926 272.0055099461612,12.748944259611248 272.24814807425344,12.70986596889966 272.67749874795186,12.022468624841146 272.75732613529186,11.894698394032744 273.03695404679854,12.022468624841146 274.93109086445685,12.884929285484816 276.56713460057847,13.628762735861619 280.80211672523313,15.556130023984315 283.2670657727376,16.347720672859566 285.1287147002071,16.94076390170893 285.56697633813565,17.105802383617608 288.4316192567224,18.070089374194076 289.14584231582444,18.34210583721668 289.9593390849394,18.63347580049321 290.7431326401298,18.914542461473435 294.2162737410763,20.079929492028622 295.96570021376573,20.666521554115683 296.4633682794116,20.877971307633196 296.9429359491422,21.07006756089678 297.4805641197006,21.285369449981275 298.94892393137684,21.874514132021165 299.0443455059547,21.913174721286527 299.99187802740664,22.293515092279698 300.525654062398,22.70991702130993 301.7929602455029,23.448645231781068 302.9390401871126,24.201528880115493 303.17109654518976,24.424581451576433 303.66611916836484,24.89769795454478 304.0438605080967,25.259984340865195 304.52602720912165,25.72149802592309 304.76193570276575,25.948449144160524 306.163324049516,27.681121147824314 306.65964618827223,28.189046104524014 307.23978708359704,28.78204292209791 307.8276786613642,29.2732598209815 308.8293731369003,29.924317139383128 309.6132131033991,30.528916774867476 312.01239737894196,30.719759923792378 313.0141382656546,30.782925664492794 314.90409806885066,30.740366528384985 315.8439263193005,30.719759923792378 318.08331658663377,31.05238950752959 319.40213928108824,31.49710231228639 320.00028774984327,31.850384911891673 321.0329849548852,32.516897183737754 320.42829249691584,33.20016392464244 321.3810230808244,33.6423705206889 322.07074098845834,33.963350875273164 322.717946171326,34.26377103650732 323.0286696348235,34.66211898089777 323.2890832799356,34.99734759586328 323.7828527987061,35.63160403389786 324.3448932981156,36.458003136504466 324.424859919249,37.01363888042715 325.29896980891374,38.33765963740419 326.2800112686807,39.396068686845446 326.67710610873246,39.117601057093516 327.55892026953114,38.496200541275094 328.2602409951745,38.47299490545419 328.55026503159445,38.773415066688344 328.57611610995207,38.80047283804325 329.52239552699933,39.7815142977113 329.8742857885055,40.92634113494935 329.84467539719776,41.85846511429822 329.8356251993061,42.14598294200777 329.82662141259095,42.44505717638528 329.8111664591465,42.497873203513926 329.80986694356534,42.50047223470924 329.5391035848484,43.4170948493382 329.30189557549124,44.21768928492858 329.0762903841434,44.9770705112678 328.9576631739425,45.37927059119225 328.70114807570576,46.24173125183592 329.3108993622064,46.56790966884381 329.5429557204154,46.69168853025883 329.7389505204555,46.79736699575861 329.854978699626,46.85923322084487 330.18115711656793,47.03462141632532 330.6272158482473,47.27312894119774 330.8618712374868,47.39816090698442 335.6189801680788,44.65873559918729 335.92580508470087,44.482001476817224 336.62842532592543,44.09906207462873 343.2858901844948,40.47638385652643 342.99837235675227,40.15670301755632 341.6472938283873,38.647037174045025 341.82648774809337,38.52200520829132 342.446635159639,38.216479807184484 342.98291740317586,37.95346713087701 346.62230367919324,36.16403414199964 346.85830499545426,36.062207812066845 346.9768857943467,36.04540693173277 347.0864163953475,36.071211598748995 347.14447689617526,36.0841139322736 347.3571797540644,36.26460736762673 347.68335817113825,36.621742102799 347.83034266837416,36.7300195994941 348.008237072499,36.7467740685527 348.187430992205,36.713265130435495 349.74350810732517,35.630304518283715 350.7864622033549,35.043758867472114 352.306384937953,34.187656551039815 355.13106775162726,32.6458276963339 356.79031712363576,34.05877244971913 357.00942473694585,34.24571705183457 358.1748581787435,35.292569694673816 358.5100403824006,35.62900500270254 359.43181464824363,36.40769331805319 357.0506843574395,39.066038134303554 356.0090297769909,40.221121862562434 354.20799397020306,42.216806542533696 353.6317516217537,43.04195254076865 353.17664269218267,43.694262963508955 349.84663395290505,45.628035007118484 349.1349635137888,46.000671107010675 346.480517244282,47.38915712026929 343.024130612493,49.334531981789276 342.14876761829174,49.82825508935022 341.5712721654378,50.15447991763358 340.60898085950856,50.698512843645815 339.7972941299719,51.15747390875087 340.4625068862698,52.156615764367146 339.6800128466606,52.72255481058613 341.0839074020882,54.47458031450385 341.8355379461169,55.31128271937378 342.8462826195447,56.438055571939074 343.3349004872989,56.9820884979513 344.29403582676025,58.2661491500818 344.6356691971466,58.78182478912498 345.02501335475597,59.1479633109794 345.15904910735674,59.1544144777417 345.28802603116236,59.1479633109794 345.62065561496553,59.01002901170109 345.6644678553131,58.98682337588019 346.0821692999575,58.75602012210875 346.51402618246516,58.51881211281751 347.09806562453343,58.175879226751015 347.4641577352113,57.8794040236018 347.5918351434358,57.77623176677939 347.7401191562529,57.322468764064965 347.880606075583,56.88926595470066 348.4878047422297,55.905625463837296 349.32060860022415,55.1359409351688 350.4512799996979,54.47198128327555 352.190403170091,53.34785387321402 352.59130373440127,52.98171535132663 353.44476060829686,52.39252425804424 354.07906345770584,51.70280635037726 354.4967649023502,51.24899693642035 355.3024181665378,50.698512843645815 359.15729197657663,48.06462676752206 360.60759780364606,49.34998693523373 360.6643587887607,49.49567191688848 360.86415931319124,50.00364328483067 360.05674242060184,50.698512843645815 359.07992438673745,51.53906738408273 362.0760040266307,54.17550608012633 359.76063850778826,56.068064914550654 360.10347857127084,56.40450022257937 361.19938792815674,57.481009667968856 361.7278730782065,57.781383417927536 361.9651274987403,57.987681520296896 364.004624419158,59.7706169311365 364.5435056939891,61.03277146302727 365.10433950030244,62.43411339853502 365.60845873267766,65.19428454475116 365.89978228481067,67.18866970910827 374.29507079806,66.19263740871746 380.8545150508891,65.41348498064512 380.94608448990004,66.02198316293894 381.93102449641054,72.55177061325081 382.7689800055532,77.63250534079897 383.7500678764967,83.44941565889842 383.8544932376578,83.97929314708034 384.0066293860419,84.74763174885922 384.5287561918474,87.38922209605099 384.7105027315392,88.43732784322891 384.8724316582224,89.37455706245048 385.50469241164274,93.03464276551243 385.5639596054347,93.38012827149878 386.1930643923871,97.11753515309145 386.31039208700685,97.81110519629244 377.82358054605504,98.90947435061321 378.3844143525003,102.32070281519799 383.69205378697745,101.71355055976082 383.80167721059513,102.34650748221422 384.5583665831551,106.70016322847717 392.4650836400906,105.80034149418228 392.71904611847344,106.15998243799893 392.80797011488164,106.28761343498094 393.703986124852,107.89135492604858 393.7323434117551,107.94166474449986 394.42985841314,110.28413444607162 394.5045805605084,110.53429120012996 395.57979049031667,113.80108778739867 396.02329660201025,115.08129630396219 396.5737342834104,116.67473449273352 396.68075867573384,117.69318343732824 396.88830988247486,119.28922065732789 397.0920089536489,120.3321747533247 397.86939775341835,122.36141478265566 398.3902714549511,123.37211304490691 398.768012794683,124.10439008861574 396.6356005084966,125.7609940180875 398.0282635362505,128.05064769253062 398.3090053183684,128.5121613775885 398.4147301949788,129.07559421513014 397.9712240834171,129.6595408347464 397.3163146294155,130.617423069869 397.3163146294155,130.96810663827898 397.8719967845807,131.5818028829964 398.3090053183684,131.7106869843171 399.313298824935,131.8138592411395 400.44912187555684,131.60751472749467 401.6841258135747,130.96420809146952 402.39059819023436,131.10863996878558 402.9217751939315,131.5056883975289 403.31757051840214,132.00590908312762 403.52646765203275,132.47517345056198 403.8035893548621,133.360886158302 403.82289644400544,133.8726632505357 403.58443533037547,134.57913562722834 403.28020944478385,135.20958634100438 402.7889925458673,136.12105730448516 401.8981281870451,137.12405129563544 401.79630185704633,137.5340020579034 401.8981281870451,137.87433591274157 402.39449673710976,138.31914154001632 403.2569573977205,138.12829839109142 403.8319466418971,137.83957387031867 406.6604351799618,136.2589916037635 406.66178110685144,136.25769208814933 407.1851610169296,136.1171587576757 407.53329196548566,136.04498923029314 407.88007698702023,136.04368971467898 408.5040301228245,136.1880751807196 408.76444376780466,136.3621638605859 408.99650012601376,136.65218789700577 409.1408855919554,136.984817480743 409.7932424261031,137.88338611073218 410.3011673827368,138.31784202443515 410.533223740814,138.39001155178474 410.8090923393706,138.34619931137124 411.0837078336545,138.15795519367464 411.2139378618648,138.01356972763404 411.37382469255937,137.59326925176134 411.6342383376715,136.984817480743 411.9101069362281,136.49234747752072 412.25819147347573,136.24613568151435 412.79452012832104,136.07204700164806 412.9711150168647,136.05065140543846 413.867131026967,135.9418633847462 414.96939872809725,135.76907422046105 415.6217091508046,135.63759108794505 415.8512128890278,135.41713754771243 415.88857396264603,134.72226798893027 415.88857396264603,134.0454060035124 416.622150521936,134.0454060035124 418.56757179479746,133.96548579378637 420.21512552631157,133.7218266177328 421.1871631992315,133.37504159613232 422.9083252075028,133.02825657453184 423.2667130470467,133.01020258985906 425.23274092436884,133.4988204575803 425.6194860509478,134.0454060035124 427.40627359725545,136.45108785702706 428.009620128467,137.48889030187573 428.55625208560866,138.31784202443515 428.9327403210678,139.12614073106056 429.1402915278088,139.44716749692031 429.40455730848794,139.74758765815446 429.70367795410795,139.80430223209257 430.6525564024495,139.8004036852831 433.03623931323943,140.40764876323823 434.18366518160684,140.38444312741734 434.73540237872004,140.85370749485168 435.141501005487,141.19789348522386 435.5837076015994,141.57438172068305 436.38170300596147,142.2524968104066 437.0895213095107,142.72050807350226 437.686416673993,143.1162569866644 438.2885101008,143.07884950173772 438.81448904217245,142.99507715644472 440.90684840082946,142.66504660390282 441.1311540765961,142.62889222331484 441.716446623069,142.53606968006417 442.7632992658423,142.37107760943098 443.219661299818,142.2989080820484 444.6545585847514,141.90701130442025 445.4590051558428,141.6878108685263 445.52606944338567,142.6044798944307 445.5350732301008,142.72176117784093 446.1642244282297,142.74366729804768 446.7972277619256,142.76561982952992 446.839740486692,142.90225461319406 446.9570681814436,143.26969265066265 447.07824801163036,143.65383874591436 447.0821465583739,143.66674107943894 447.9200556564719,146.7762962784509 447.2355358111626,147.263614630525 446.81653485093705,147.56143576056385 445.64984830473475,148.46385652608703 445.3571324146675,148.62114432561927 444.89947086511063,148.86610301728695 444.49857030080034,149.08135849509597 444.25746374469963,149.21033541893462 443.86941910267143,149.4191861412568 443.5251867009908,149.60353171217693 442.9244392010734,150.1398139558127 442.62146641975454,150.41053090322117 442.2037649751101,150.78312059183787 441.99746687277377,150.96746616272503 439.43199101111543,153.30353110880995 439.9231614987236,154.3078246155414 442.9760485350399,153.7173804179203 443.54709282116454,153.60645747872147 444.34253560554083,153.49042929964992 445.1612304371124,153.56004620711263 445.9875831283776,153.17849914305623 447.48434663839726,152.4075150987736 448.2011223173532,152.19611175653156 448.68068998708384,152.05557842602494 449.0738862803921,151.9395502469534 449.77650652148475,152.0104666699973 449.85777265819934,152.22832117903462 449.99310792624937,152.59316018527488 450.30902945220345,153.44021230374958 450.4353145222299,153.78054615858775 450.6428657289709,154.33618190251045 451.27972119823374,155.84969988155575 451.64715923566933,156.5039595776678 451.8147503374979,156.80243046549722 451.85990850486695,156.88365019087038 452.60759409084375,158.02847702807546 454.38672377732587,160.32323594242422 455.2286242446524,161.22435719233326 455.95825584589045,161.8019454677052 456.2071130843017,162.03785396141527 456.8697268093053,162.66700515957717 457.1133859853918,162.78043430742042 457.50143062742,162.96222725838768 457.5310874300362,162.97642910752646 457.9552400414099,162.8771553975135 459.05365560697317,162.61929437235418 459.9096651008545,162.61929437235418 460.9178107432519,163.93816347818307 461.2336858578975,164.31720433356207 461.60627554648124,164.76326306514255 461.8073755864929,165.00302369438663 461.84093093585267,165.04432972612275 462.16061177475683,165.42587679017916 463.1895496668486,166.72669191133528 463.22932412665926,166.77700172978655 463.66642548280004,167.49117837758016 463.8894316429855,167.85346476390058 464.2388156958143,168.42460187254318 465.0494349660482,169.7475551702834 465.28047027613104,170.1224654224756 465.45966419596897,170.41638800570496 466.2319477557668,171.53800920712212 467.189783579515,172.51905066675718 467.6809540672551,173.01026756567376 469.06168939810425,174.27112258195035 469.1184503833508,174.3781005630643 469.319596834539,174.75584190282916 469.8558790782078,175.76533347198423 470.62166506009976,177.41033458354553 470.66677681616045,177.5057561579915 471.1915026531282,178.6324825992813 471.3074844208584,178.88259294209715 471.5111834921643,179.3389549760069 471.6697708072777,179.6960432999037 471.906978816503,180.22851981928093 472.05651593372477,180.56500153858514 472.20995159769,181.08968096431047 472.3994488196923,181.7407382827121 472.57349108838207,182.33503461590013 472.6714652828138,182.67156274644682 472.73593053906245,182.891969875404 472.82620046236025,183.40894503006132 472.95378504809975,185.27704512432604 473.0066474864709,186.1137011179535 473.0221024399154,186.35090912724473 473.0789098363385,187.24437251732826 473.38698785749705,188.06682666181695 473.7840826974169,189.13177970057146 474.1360193702315,189.63325349050885 474.538219450123,190.0019446323161 474.7303157034196,190.31526712707486 474.9147076855822,190.59624096550414 475.22023308675494,191.1815799232525 475.5180542166619,191.576075732109 475.96411294834127,191.94216784268792 477.1759576617808,192.01438378134597 477.38225576424907,192.0002283434827 478.2022037000934,191.94091473834925 479.6177010732665,191.86874521096667 481.03579747786586,192.19232459674626 482.23348675357397,192.46434105976888 483.0533882781098,193.0328327259407 483.2712891983237,193.4016166902659 483.56006013047084,193.8618308597426 483.71994696129735,194.23442054835934 483.9017399121657,194.65212199300373 484.11574228563603,194.94989671176708 484.3258925235394,195.08137984428308 485.112285110024,195.25286949295406 485.37655089070313,195.31088358247337 486.8566063428737,196.4260536171282 487.49601443212237,196.88626778657195 489.30860664547924,198.18968193895637 489.51360523223445,198.33791954053098 489.67474516733364,198.45394771960252 489.9313066768788,198.86649751309875 489.97771794852065,198.94001296733796 489.9068015254108,199.70319991800164 489.58322213963123,200.84927985954542 489.4311324025556,202.21326072140195 489.34601413040593,202.6322616816275 489.0417882448143,203.23175607723917 488.9953769733044,203.70491899148297 488.90515346118315,204.6201956792553 488.92831268576157,204.89091262663078 489.23374526431746,205.40273613013994 489.246740420393,205.4246422503467 490.0666883562373,206.14271744498274 490.3232498657825,206.3728709409636 490.86598327618054,206.8595859465226 491.4899364119848,207.57376259431618 491.58795701759306,207.93474946502246 491.46677718740636,208.4504251040986 491.04132506045147,209.1775504966593 490.94330445471127,209.36704771872755 490.85567997388426,209.53849095612307 490.55655932826426,210.11737874710914 490.37351327299126,210.78384460767975 490.4341263936729,211.3305229761628 491.0464767115996,212.06535263985742 491.3752077485274,212.57197808094298 491.3894095975672,212.60038177915453 491.56345186625697,212.96136864989379 491.80070628679067,213.45128603316323 492.4375153447451,214.2157724994081 492.6193082957454,215.51909382924157 492.7108777346244,216.51953520043904 492.9531909838213,217.91447238045996 493.0473130426861,218.62734951267237 493.16334122172464,219.50916367356996 493.20975249336647,219.85854772636577 493.2626149317376,220.2543430508034 493.30642717221707,220.58827215018775 493.3193295056757,220.6849468289724 493.4173037001075,221.29859666241435 494.183136093176,221.29859666241435 494.78128456193105,221.05623700197495 495.2608986429701,219.8972547269066 495.4929550010473,219.1881833189857 495.6166874512198,218.99863968567493 495.74566437502546,218.89166170456102 495.85259594486394,218.82849596389357 496.0524892917794,218.77823255671777 497.5131448324536,218.66605651318022 498.0751853318631,218.6454499085876 498.54579562618704,218.65575321088392 498.83971820935045,218.71506681601736 499.18780274646616,218.92261802275837 499.20970886677185,218.94197152301228 499.4005056043554,219.10441097372563 499.51268164795886,219.24234527297097 499.8504164716017,219.6613462332295 499.99740096883767,219.99007727015726 500,220.17316973673869 499.88267230538025,220.56891864990084 499.6428652648607,220.83193132620832 498.8874289965735,221.54355535408206 498.2776312986325,222.04507555526195 498.14224961940596,222.0798840089933 497.44478102932953,222.17010752104864 497.2397824425743,222.2719338509814 496.94070820813084,222.55040148076634 496.80277390891854,222.75925220305555 496.5552161860885,223.1369935428534 496.35671517723915,223.5998531547679 493.0976228610714,223.5830986857093 492.197754715534,224.01625508383114 490.94590348600553,224.22510580615332 490.6042701154872,224.17354288336335 490.3232498657825,224.13051963456684 489.8938991919522,224.06521897539278 489.82818083129894,224.05496208437197 489.12941272577325,223.94919079632123 488.5067591055502,224.0008001303537 487.556627552804,224.43265701286137 487.06926278945446,224.55253732746692 485.7104799900875,224.8851669112371 483.64777743391477,225.39183876356515 482.7491623925182,225.6122923037978 482.43203417359985,225.69736416470496 482.2940998742556,225.76698107213468 482.221930346873,225.89976372026484 482.17547266405467,226.20918766821413 482.105855756526,226.75967176095568 481.8454421114139,227.834881690764 481.6249885712142,230.27147345116757 481.5914796331629,230.5086814604588 481.42003639576745,230.95729281199212 481.280802580842,231.22805617067604 481.18663411066876,231.50007263369864 481.0745044785056,231.92297214076663 480.9919852375183,232.08411207583288 480.78318092650454,232.25425579761423 480.6413480804168,232.3084177515995 479.3031254742021,232.8640534955222 476.9129449855063,233.855444668762 476.2464327136272,234.26794805098277 475.8029266019336,234.71015464702924 475.3762213705741,235.16011192548513 475.0655443183851,235.4849908268459 474.7548208547557,235.75700728986848 474.3358663058386,236.0818861912622 474.0096878888966,236.3384477008074 473.56748129278424,236.5705040589505 472.9151708700769,236.81161061505122 472.8532582336822,237.01271065499697 472.9796361263255,238.1781440968276 472.52452719675443,238.33798451631267 472.1132769188394,238.48626852916274 471.6942759587458,238.69511925148493 471.3293905410321,238.87301365564275 470.9413923103124,239.12182448284443 470.82531771996537,239.2146470260951 470.75440129698745,239.30236432947305 470.51338756337174,239.75097568100634 470.249075371516,240.42779125514872 469.88163733394856,241.0671993443644 469.4871415250591,241.67704345351487 469.075891247276,242.11920363831885 468.6633878649563,242.5704604323559 468.22378030027,242.97781216342852 468.0341902555189,243.30013844486942 467.9104578054783,243.68822949820606 467.8292380800721,244.07882676022007 467.73121747446385,244.55064374757427 467.45149674034025,245.43635645531432 467.2542488358955,246.20729408832148 467.13952017243815,246.6572513667444 467.10731074996806,246.73067399846565 467.0221924778184,246.92151714739055 466.87525439175903,247.06975474896515 466.6109421999033,247.1857829280367 466.1377792855936,247.25539983546645 465.9211778809609,247.2940604247318 465.7858890240874,247.37017491019932 465.55633887468764,247.622837872935 465.18379559728044,249.4728375712845 464.941435936907,250.52094331842946 464.26717298271745,252.698420949368 463.9951565197278,253.47065809795635 463.58005410624577,253.90251498043105 462.89288881859756,254.2028887304227 462.68533761185654,254.22999291305308 461.4013233710345,254.39888353049577 458.9904434551292,254.0082398572063 456.62481452894605,253.82519380190033 455.5612074170152,254.0108388884346 454.04123827124056,254.74566855209625 452.38588744623945,255.52175783625157 451.83925548896593,255.71770622504917 451.64715923566933,255.79985417583273 451.4383549246556,255.88919587372015 451.12243339870156,256.0683897934591 450.96904414591285,256.2127752594997 450.8814196652177,256.32495130303727 450.8736689827753,256.33395508971944 450.7975544973408,256.46158608670146 450.7550881837509,256.5466579475756 450.75634128815557,256.61246913074683 451.1031263096901,259.6884689803661 451.2513639111987,259.9231243697375 451.41384977318756,260.12677702963606 451.532430572212,260.2376535575595 451.6329573866295,260.2634582245757 451.64715923566933,260.2634582245757 452.7443216969599,260.2634582245757 459.57448289719747,260.14483101427584 461.8125272376411,260.1435314986947 462.8915893028845,260.4877639003423 463.38795785294917,260.8629062089119 463.52459263671227,260.91451554294434 463.68703208739265,260.9570282677767 464.156296454827,261.007338086195 464.5572898416223,261.04214653992636 464.85631766475734,261.09240994710217 465.1464345236622,261.1787813235905 465.49577216518253,261.34897145664735 465.8077951443931,261.56682596568464 466.0179453822965,261.83624339747894 466.14552996790405,262.09155180268544 466.24865581361587,262.40352837055457 466.24865581361587,262.40482788616873 466.2989192208247,262.8340857374481 466.3169732054315,263.07004064240067 464.893725149684,262.61367860849094 464.3857537817418,262.45123915781056 464.0879790630114,262.45123915781056 463.90358708071693,262.5659678212679 463.7076851032937,263.1358054142964 463.4214203799558,263.96475713682287 463.3066917163665,264.83752109976285 463.13807956654364,265.3736176983297 462.9393000902394,266.0055535728218 462.6182733243137,266.48772027374775 462.2611385891744,266.9105733695403 461.8383319046903,267.2186978018754 461.269793827243,267.58353680814866 460.36732665041137,267.9329208609445 459.3733364460092,268.28870966922716 457.4692212049499,268.3815322124778 456.36690709251127,268.6110823619435 454.1752740237094,269.2672449202178 451.64715923566933,270.0253266309759 451.3158755788877,270.12455392971333 450.1684497103884,270.42752671090034 449.50583598538475,270.5048943007065 449.1654557192711,270.5551577078823 448.5040950985402,270.44813331549295 445.53637274568194,270.3811154392585 445.12507605645845,270.47133895131384 444.5617360414678,270.76920649262814 444.10147546074853,271.05923052901505 443.8049538462909,271.33509912757165 443.7340838346214,271.40216341508153 443.7082791675722,271.42536905086945 443.47877542934896,271.6819305604476 443.31638238997704,271.77475310369823 443.171950512595,271.8031103906673 441.6107217463267,271.9178390541247 441.4908878430296,271.9062362362143 441.0164254131387,271.8572723446526 440.48529482074997,271.8031103906673 440.1784234925557,271.7154394985648 439.69630320297114,271.54269674555513 439.5145102519709,271.4769319736594 439.2811543783125,271.3763587480323 439.0787548227197,271.2886878559298 438.9833332482737,271.22812114645774 438.45605479132007,270.8967910783347 438.2472040689979,270.68018967363605 437.4955735249692,269.7687651214307 437.11527956525146,269.16411907467085 436.81360629964564,268.68320547805064 436.2257611333189,267.9587255279607 435.92664048756694,267.32572219423184 435.47413058929016,267.0111001838919 434.7921633639666,266.7455812989071 432.76422285024984,265.91533006076645 432.2163377887036,265.48602579821164 431.60394105946835,265.00515861289983 429.36589671915664,263.46193742002885 427.80596746846953,261.8336907775261 427.24773269331854,261.4237400152582 427.05178430458693,261.3296179563934 426.79522279504175,261.22779162642763 426.5232063319202,261.15947423461205 425.64399120228387,261.0266451752064 425.0173926240089,260.93252311634166 424.4204972596585,260.95572875216254 423.27181828688646,261.0472981910745 422.72653225650254,260.91191651174904 421.2516284554801,260.7262714252477 419.94700761006544,260.73012356078175 418.91560992073664,260.8578009690392 418.129217334252,260.95572875216254 417.33892620102387,260.7224192896808 415.96334252119095,260.68891035156355 414.51173717854033,260.37558785680477 413.85292917779526,260.2131484061244 413.2122215729654,259.79544696148 412.9711150168647,259.63778787177705 412.6939004915504,259.456412622256 411.8301403152266,258.89302619595685 410.7085655250849,257.9145373562416 410.64284716443166,257.8565232667224 410.43780216636804,257.2763823713646 409.0480630488037,255.9987728860294 409.0377597465074,255.73965875653138 409.0016517771619,254.8178844907543 409.1486362743978,251.65156830652876 409.13828656079306,250.71693811850253 409.11897947178164,250.21927005285661 409.046809944531,249.60176808384767 408.97589352142114,249.34780560549783 408.68197093825773,249.05383661102596 408.28877464494946,248.81537549739605 407.50103613170717,248.5137022318232 406.5754097302971,248.32801073404644 405.8598871557458,248.14881681430748 405.00902931288067,248.01218203061035 404.62738942627334,247.9889763948224 404.4404912354334,247.99672707716587 404.3257161606676,248.061145922205 404.2200376952337,248.2081304194409 404.1722804967023,248.32160597855963 404.18007759045315,248.96101406777532 404.19678564817036,249.28329393794075 404.04984756224286,249.69329111151714 403.9685814256602,250.0581301177574 403.79588508386,250.29148599151466 403.6024893149823,250.43331883760243 403.2480000223138,250.62671460648016 402.52732579648244,250.9502475809843 401.59390230145345,251.34608931669737 399.71939745170187,251.94423778541943 396.79288830802886,252.65976036010264 394.77404440351216,253.32497311633458 393.46547859991364,253.80709340598509 392.6417249398108,253.95927596564462 391.85783856213544,254.10496094729936 391.82303010837114,251.58710305024715 391.6850958091588,249.0190281572946 391.407927695021,248.5072510650609 390.5003552783497,248.25068955551572 389.88925806469564,247.8149341261986 388.9029721314274,247.5196656161126 388.1720410146082,246.6520533043208 387.9232301873735,246.22534807299425 387.4720198046779,245.40925227268394 386.9279404672583,244.42175964628657 386.90051140573263,244.07882676022007 386.78355500131664,242.6181712195789 386.72943945867274,241.93615758301289 386.9112324095411,240.73591568748384 386.84282219524056,240.55286963217787 386.7049343072047,240.57477575238465 386.54634699209134,240.9228602895993 386.13119816730085,241.83688387299995 384.98386512141843,242.84632903091253 383.24441707213003,244.07882676022007 381.37408923684075,245.40414703281127 381.37149020567836,245.40540013714994 380.3491427142412,246.0242480330155 379.7432435630438,246.39034014362744 376.66719730228095,247.30830868511305 374.8378042084581,247.85229519988278 374.4110989770986,248.0199327129868 374.29507079806,248.0758582953079 373.8309580817738,248.2996534470774 373.48157402907697,248.47754785123522 373.2856256402134,248.6399873019156 372.59716083685214,249.1672657588692 371.48718886458795,250.1290465408013 369.9736244743661,251.23901851303253 369.42443989710677,252.15949326322846 369.33161735382316,252.33098291186644 368.07851301989,254.66314931114192 367.237958479585,255.74091186087009 366.3032818801514,256.6227260217677 365.83271799726776,257.1216936030607 365.5839535813416,257.37180394584357 365.31964138948587,257.63602331521423 364.8271713861647,258.03571718646134 363.33430642302045,258.76799423020316 361.8194425170855,258.79119986602404 359.1791980967504,258.4702195114398 357.08034115992376,257.6876326492797 356.1766208789513,257.2828335381269 355.2548002017998,256.83677480651346 353.98113567445057,256.0593395955015 352.9703910010228,255.69194796930842 352.0292632349918,255.32580944742102 350.2849420021421,255.00482909286973 349.32835928266655,254.5896802681452 347.2979125602724,253.17283696791753 347.0400051238376,252.79769465934797 346.760284389714,252.39154962137155 346.5591843497023,251.94293826980527 346.36968712770005,251.61680626407286 346.2639158396493,251.44661613101604 346.13117960289355,251.31253396730472 346.0009031633748,251.26097104451475 345.78949982106684,251.21841190843992 345.64256173513934,251.23516637749853 345.4453138306946,251.25707249770528 345.19905562344576,251.35119455657008 344.8097114657045,251.64001189989378 344.4925832467861,251.97129555677435 343.9768611964015,252.4031988505245 343.5463038296069,252.97299003231046 342.9777193408512,253.52222102074631 342.0160313814041,254.5264681162023 341.4101322303386,255.22143049753538 341.15222479390377,255.5682155191359 341.0155900102726,255.81827945067627 340.97952845223557,256.04518415763823 340.98597961896485,256.1715620502815 341.13676984045935,256.40742413271613 341.4061872722866,256.55185600999926 341.73366520494164,256.72849730981835 341.3739778498165,257.2248194486076 339.6864640133899,259.55953846780295 337.9202366603664,262.4963509138052 337.3684066407682,263.11515239842834 336.79476332334934,263.57415987480886 335.6924956222191,264.1014383317625 335.6189801680788,264.12023489677676 334.6727007507677,264.3631514924888 334.79388058095446,264.7614530255708 334.80163126339687,264.7898567238153 334.90220448899095,265.12118679197135 332.8588090218297,265.5788483414623 330.3977585212006,265.9488389988837 330.7006848910791,267.20839449957913 330.6310679836824,267.7575790767395 329.38056268091157,268.7025589783375 325.21385153689596,271.51949110973425 323.57395566520734,270.35531077224226 322.8494757151175,269.8396351331991 322.8043175477484,269.81772901299234 322.76565695854896,269.79837551270543 322.3479555139046,269.5972754727597 321.9638094186199,269.4129299018726 321.93025406926023,269.39617543281395 320.1962361387068,268.56207205910636 319.6019398055187,268.3106622007094 319.1790867097262,266.0596691155316 315.8142695166843,266.521229211865 316.251278050472,269.66429334899414 314.67204171064157,270.1323046120898 308.2711383617493,271.1146919986145 308.5173965689982,271.9526939190986 309.11299241776743,272.30458418057174 309.2226158413851,273.05621472460047 308.8242214856202,273.2843725359011 308.895137908862,274.05275754895547 308.9376970448049,274.5091195828652 313.4382444657199,274.164933592493 314.3793722318828,278.92594106979556 316.03217043703006,280.0037500307992 316.1584555071884,280.1068294650707 316.4653268351189,280.3582393235007 316.4949836377351,280.3827444749028 317.18340202978794,280.94483138558775 317.1989033945408,280.95768730783686 318.3063227468192,281.8627071045554 319.0489030928244,282.3358700187992 318.82297302244933,282.75487097902476 318.2650167150171,283.7900743926781 318.12972785827554,284.2155265196989 318.1193781446708,284.2890419739381 318.0188049190767,285.02127260640447 317.9517870428423,285.9856060082564 317.95819179826316,286.23701586668636 317.9723936474349,286.73719014100965 316.34410059362375,286.73719014100965 317.638510959359,288.6194456731047 317.9852959808935,289.2047382196106 318.69176835755314,290.0775021825505 319.53492192928434,291.20042289954887 319.94227366032396,291.2043214463913 321.4918996087148,291.2197763998358 321.6234291525062,297.4311825267587 320.31490976021615,297.3396130878467 320.1937299300294,298.817069508822 320.2142901233136,301.64685756246786 320.21688915447595,302.0929162940813 320.22463983691836,303.155223890365 320.29165771315274,303.8887540384125 320.4038801679328,304.11050709425933 320.76352111174947,304.5050029030828 321.96766155418686,305.7000931474637 322.53485370461266,306.18096033280847 322.6302752791905,306.2866852095837 322.773361229551,306.44397300911595 322.9874100143298,306.7185420920584 323.2388198727268,307.0653271136589 323.5997603321247,307.8672674761059 323.6023129521105,307.9729459416057 323.6681241353806,310.1607268748405 323.72483870918677,310.61068415326343 323.79055706984,311.13926212579827 323.73644152706424,311.6445880513026 323.5546485761959,316.30892084982054 323.5546485761959,316.3179710477782 323.2452246281477,317.9900763419699 322.5064964177095,317.77477445288537 321.49575174428173,317.62259189322583 320.65004555269667,317.72316511881996 319.03595434805726,318.54701160147374 317.6204569747522,319.15165764823354 317.14344192487545,319.18901872188474 314.19502666089676,318.62043423319494 313.0076870989253,318.3909769062802 311.99049125863627,318.1950285174496 307.9424073248216,317.22688939130614 307.3532626427817,317.4679031248889 306.39408089214385,318.59727500864955 305.36662816073505,320.10308871659385 304.90502165312625,320.4627296604435 304.40869951436997,320.7012371853159 303.60425294327854,320.8211639111969 303.3000270576869,320.8469685782461 302.1526011893195,320.26033010488356 301.51054765760006,319.93159906792283 301.0825893219678,320.47818461388795 300.4650409417164,320.5297939479204 299.71215729328304,320.3763582839222 298.27340787291456,319.96515441731555 296.9429359491422,319.4072909323683 296.2287128900402,319.10779899654455 295.2012137475868,318.3549153482101 294.3787131917567,318.04679091587496 294.00227136760594,318.04679091587496 291.8983091909396,318.867991956058 291.0951157241209,318.89509613868836 290.31387478891634,318.9221539100433 288.90608168661333,319.1658130860968 288.11449103780404,319.3037473853751 286.95806138258956,319.5035479097067 285.84419086358184,319.6067201665291 284.78318278281336,319.57186530155525 283.2812676217775,319.39916895982105 281.49183463299903,319.41072536645606 280.4037687809086,319.4635878048602 279.04364005465203,319.8529319625355 278.50475877968904,320.068233851587 276.9538797270255,320.68452912753276 277.1072689798142,321.19885883971926 277.176885887211,321.43091519786236 277.27745911280505,321.7661438127949 276.49621817760055,321.94918986810086 275.5524913802752,322.1412861213645 274.6912838239373,322.3153283899553 274.81380958101363,323.4485059980074 273.38791608279536,323.5709853438413 266.62217372762984,323.808239764408 258.2668917303376,324.16843764349727 256.99313438050336,324.22334217782407 255.58144273145683,324.2478473292591 254.5449398021564,324.198837026422 253.47102938806117,323.8701059894943 250.88620002608297,322.33463547896673 250.15007084680715,321.9388865658046 249.21539424750546,321.63596019589306 248.44352838908787,321.43091519786236 248.4289552498443,321.42710947357085 248.25727995603847,321.43091519786236 247.74183637337265,321.4425644270153 247.60130304286605,321.47602695385706 246.94124193784822,321.6346606802789 246.08778506382075,321.99949968655216 245.12345166190286,322.82840499780315 244.52655629755247,323.7914852953494 243.97347317354965,324.6771051805385 243.52230920203053,325.8232315333577 243.2902528439534,327.06477946065587 243.1934853426178,328.0161641177407 243.11876319538135,328.70848105660303 243.17292514933365,329.1132801677228 243.24124254114923,329.6341538691896 243.28380167722406,330.06856337161713 243.21413835851885,330.34577789706333 243.05944959014897,330.5971413441849 242.2911109884031,331.08445969629196 240.05817188793105,332.29115275858334 239.08483469929803,332.71275275003717 238.57045857593496,333.0273283491346 238.2855397793548,333.83952560260246 237.99157078488292,334.6749284918912 237.73635520209547,335.2215140378563 237.1020523528184,335.7462398748571 236.23573955664074,336.12398121462195 235.24815410765945,336.42820710014763 234.71317137957186,336.56874043062123 233.03201588752148,337.00964751108654 228.83569435206624,337.9726813973573 225.22461895177545,338.73976689479747 221.18813783583826,339.68344728081433 220.77684114674665,339.77886885526027 221.3866388446876,341.19311312429267 220.60669742493232,341.28983421435277 219.9350335019051,341.5708544640575 219.59080110035637,341.8116825525384 219.46706865018385,341.8982859854041 218.23972257199145,343.9455335881323 217.90839250390138,344.6378505269946 217.64797885865732,345.2476482249026 217.81046472064614,345.85614640719643 217.89683609720043,346.18492385539963 217.87878211259363,346.4671972094431 217.57706243567938,346.8720427318383 217.0085243582321,347.5617606395053 216.01843270057344,348.7620489463098 215.33771857965456,349.413059853436 214.84014333649367,349.9738472485068 212.57369529797037,352.59998264225413 211.9677497355964,353.1956249022988 211.6402718029414,353.83763202270984 211.48047779473183,354.385517084289 211.45857167455804,354.9166476767767 211.46367691439775,355.6747293875347 211.46497642997892,355.90163409452964 211.0047158492597,356.6970768789389 210.87068009679086,356.92653420585367 210.3910660158837,357.754186412799 209.86508707451122,358.4245972314545 209.19467625588865,359.2780076941076 208.54459357413992,360.1070058279095 208.01768640739004,360.77866975090376 206.9862887180612,361.79716510677395 205.70097496152607,362.6815318876244 205.16719892653467,363.3996070822275 204.87072372338545,363.8006004690887 204.5161880195404,364.2762695920099 204.31764059951453,364.5456870238042 204.06493122540442,364.88476777430367 200.87035057679375,365.12582791912894 198.79469927585396,365.18904007110484 198.26872033448151,365.2535053273864 197.41911559602102,365.3591837928862 195.27004166342593,365.6234959848078 193.64434764090905,365.9200175992325 193.06160771429003,366.0385983982239 190.94478961534156,366.80308486446876 189.97785718239322,367.2233853403085 188.70280031684595,367.81517546485213 187.72561099277786,368.2676389519194 187.47680016554318,368.383667130991 187.27310109436914,368.4468328716914 183.1115416015017,366.11211385249607 180.9147568814198,364.8250828789995 178.7501815840718,363.5568948817927 178.11587873479473,363.1869042243713 177.52288191718787,362.84141871838494 173.64749432504144,360.6780965253096 172.38413310012044,362.0021172822867 169.42801356513968,365.0756109232286 169.25522440085456,365.2535053273864 168.77175818424848,365.7523800860955 168.16326000202062,365.87100729639536 167.88223975231585,365.87100729639536 167.22988291830006,365.66085705845904 164.95053254618625,364.1615409285525 164.2273521116775,363.6845722900172 161.66698148985893,361.99696563113855 160.63043214925003,361.3123993746197 158.75546318680975,360.1070058279095 155.4684776962957,357.99399345328555 153.73840472392618,356.88272196544017 150.5475833882656,354.84703076934693 149.93913161721426,354.4576866116716 148.93353859493462,353.9871227286231 149.02116307576165,353.74221044826385 149.26612176742935,353.4288879535051 150.06286406738678,352.74046956145224 148.80846021787247,352.3408221014806 146.99716752009678,351.7697314041135 146.12050501031436,351.51057086334004 142.35989249293377,350.4005988911088 142.23871266261514,350.36179906801704 140.487940263168,349.80110449549716 137.05735829829632,348.82001662458663 135.01141021114924,348.3146906991152 132.28219538309747,347.76160757511235 127.22336677572311,347.1440591948609 126.57235586859694,347.2342827068833 125.77941929289803,347.2278779513964 125.23283374693297,346.98291925976173 123.57107816637902,346.5407126637153 123.00894484435261,347.19306949769805 121.98534424864272,346.77276902182535 120.46412199846345,346.13336093264263 120.22556806234854,345.47455293189756 119.40821915766658,345.07745809184576 119.1735637684271,344.9627294283884 117.47699973410882,344.2756105519497 114.67556896736605,342.94899076374435 113.47532707180403,342.3817986131867 112.58576222856296,341.9343939547166 110.65714183603563,340.96625482857314 109.6618521160523,340.69289243869395 108.48351634066407,340.5459543527335 106.39245649745635,340.6026689266386 104.41737842211067,340.6761379696353 103.56262203263394,340.74909648863485 102.73241720580177,340.8205234356759 102.04910405358864,340.8785375251952 101.31942604104215,340.9417496771381 100.87462041376739,340.9791107508223 99.80976019756383,341.0706337784588 99.15874929043767,341.1260952480582 98.20216657096219,341.2137661401607 98.03327595355248,341.2356722603675 97.38221863511788,341.31814509004636 96.88069843390501,341.3826567576034 96.50555612533546,341.45097414945195 95.81453870212027,341.57600611520564 94.79868878872087,341.7603516861258 93.66156622251785,341.9627512416857 92.87382770927555,342.1033309834348 92.31438624102836,342.2025582821722 90.0943494741469,342.9644457171888 87.73252627222229,343.77534345507553 86.95123892557739,344.23565044707016 85.8799275427764,344.86605474957076 85.60925700654448,345.0091406999972 85.437720946664,344.76548152397663 85.11284204517132,344.3026683233046 84.92719695873599,344.0396556469971 84.89888608300943,343.9984424377789 84.69388749625422,343.7070260632269 84.6810315739721,343.68901848986263 84.54820251459947,343.3653926928076Z"/></svg>