<svg xmlns="http://www.w3.org/2000/svg" width="500" height="500" viewBox="0 0 500 500"><path d="M50.77721804636462,297.8806559079889 50.386465195262126,297.9034785084137 49.00625907944833,297.97830670663575 43.327696774738286,300.2814438189348 39.99986231627832,300.63687776038336 37.98780689470369,300.709610769042 36.74483569457507,300.7553307981491 32.433908368192064,301.0151343023098 31.83528278262813,301.0504532118574 31.600397068455614,300.97772020319877 30.71076461999944,300.69711445997234 30.652623110027037,299.4562384492476 32.36738609996604,297.7414006311042 33.787026676249894,297.09084427600055 35.62862346215511,295.9018990348156 36.915294330031806,294.677634884083 36.97141547875153,294.62562928633884 39.06870021784185,292.6322809145324 41.317736542886564,289.9135479894002 43.150952570538166,288.0844475126178 44.01978277976908,287.43381632930976 45.516346743785235,286.31139335629763 47.01380864625407,284.2037823258523 47.11265669579897,284.06445222081635 48.48665207133962,283.38897807567133 50.77512285664171,282.0898108985654 51.44648145113015,281.70818708776045 53.071974400410085,280.7845078091781 53.789053023899285,280.37923828775325 54.23390666204347,280.1256455240784 55.645241308331265,279.0156440319847 55.91544593199825,278.48152035323466 55.649431687351736,277.24056951430555 55.634840188824974,277.1760676074917 55.17127950096576,275.1744881338936 53.85759565337798,273.405624356647 53.115599240113276,272.8901328992481 52.864101665948645,270.8032492797172 51.44648145113015,270.32584537521564 49.825253708702895,269.7785519336095 48.29958157589077,270.3272671109927 46.424686241743764,270.9404093670385 39.71925657289236,271.36034521530087 36.262567957213506,271.57644905171344 36.13790417901508,273.8400768753913 36.10049007979771,274.50522472918124 35.38962219700701,274.6423848165025 33.78081593576407,274.95000353928054 28.910772312332067,275.22649373163773 24.514540839963132,275.5881384135189 23.730939948460588,275.70247590036223 22.394433500607548,276.23038883862654 21.392558754924597,276.78538958469994 20.307624709281075,276.980766010198 15.7451249802632,277.00777898974957 13.591793920923383,277.0368871588114 9.613403107412907,276.980766010198 8.754899189218053,276.79369551469597 7.2147103857113715,276.79369551469597 5.136207524380957,277.00987417925984 4.658130166039862,277.00777898974957 0.6402300638017743,276.980766010198 0,276.64613430781526 0.0852293179410427,275.95187828496347 1.0310577431618244,274.5904540469096 2.8663689603236624,272.70096721423585 5.040577087146296,270.3522597291853 5.711935681422065,269.6268003476551 6.547542170668748,268.32142243006336 7.659564024068238,266.735588425654 8.96696230312531,265.2369292721276 10.284761701476,264.0250866023135 11.342757595878675,262.57843304653125 11.914295373686638,261.6513864990703 13.624942812650055,258.882668337553 15.03844747670564,256.9517266830502 15.58506746452543,256.20344470104214 16.05072334189488,255.56530982680374 16.74497936469347,254.61753586842835 17.106549218317088,254.31201233516055 17.950461637772502,254.16445112833298 18.322582267204854,254.09785403195573 18.69253287929476,254.03342695329312 19.55515234803985,253.9232798455234 20.224415752805385,253.31006276132638 21.05590669107648,251.00288492625612 21.087035221550472,250.93434229672425 21.47367252167738,250.0696276383094 22.92242126696987,246.82081175714515 24.119672438097727,244.20811038886026 24.73490988365377,242.71985235489333 24.317144053265547,241.94246220382342 24.028232379883537,241.79482616879147 22.953549797443866,241.24820618091852 20.951895495588204,240.19021028662218 19.920912580896612,239.38588198415192 20.143376814097486,238.41102021802055 22.926611646203014,236.24511802119397 24.09887019908514,234.9522364127251 25.1277579242665,233.3123016210082 25.74711092079813,232.43090027445004 26.268887946887304,230.33780591443335 26.094313760454984,229.99075273118527 25.877686126664813,229.44720069947962 25.72159450517484,229.13374537723772 25.240075049750832,227.70639749659293 25.217102792970454,227.58375407975353 25.158886454740493,227.28234609740815 24.90746370883342,225.95422040759604 24.73490988365377,225.25779436692332 24.71208728338851,223.9545864670994 25.240075049750832,222.3166720367415 25.489851575267675,221.84690060844963 26.408143223612488,220.11956648123652 27.27285788208049,218.84958230145 27.522260266522213,218.0701717890211 27.489036546537985,217.6732081975391 27.4682343075254,217.4320369147827 27.189723753862356,216.4031491895482 27.299870861578896,215.37426146431366 28.719511437862746,212.87372756510433 29.116549857495944,212.3708072450326 29.50730270838576,211.88023357762182 30.77938207794837,210.2714273163789 34.06142167893734,208.02037062997516 36.8508672515287,205.9313918208809 37.90878831746114,204.59690573422736 39.525900508912805,202.61605367149062 40.82708804727138,202.6410462896832 41.001737061961265,202.64516184060562 42.00361180764421,202.67217482015718 43.450265363213795,202.14426188183975 44.535349065372436,201.42089768987302 45.89886849293656,200.72664166696808 47.56798628191969,200.1155197722813 49.9665293471061,199.3569114989713 51.44648145113015,198.86364401646833 51.54420707787504,198.83094409380848 52.720656009990314,198.44026607101674 54.39179416022613,197.82914417632992 56.58889971578425,196.69010934337888 59.313843381402265,195.12911830075325 60.24291029032849,194.59491979385194 62.77464754805671,193.20438738668307 64.44586052655008,192.00915657686107 67.59485559151237,189.8620362577944 69.37614084946472,188.83524372212327 70.30116703567292,188.0723702414821 70.99744341993686,187.21184596219408 71.49841820680076,186.29527536244387 72.91805878308462,184.65728610388157 74.33769935915579,183.2397407172143 75.84885482191139,181.85953460145367 76.23122691454759,181.4396735813957 76.79034321159658,180.60204673073684 76.89846995784777,180.45239033434586 76.96499222607379,180.35885508656827 77.49088480313856,179.62306941373623 78.0749937182206,178.35720078476578 81.41524965765221,174.27075805299583 83.05930000013205,171.8948879319849 84.2565511714726,170.06159707612892 86.23538287285031,166.84405938179427 86.9026259161505,165.6780115692916 88.21211938450513,163.03612720368736 90.96834123711226,161.47723135062515 91.05349572658307,161.40442351376208 93.30627346152824,159.49009371925138 93.58515815605372,159.2531128155686 95.11502066831167,156.5280943217994 96.17301656271435,153.9902211516834 97.7921491154187,152.6163006045598 98.67347563366613,152.35021153176206 100.18463109620906,151.89293641259306 101.90979520565435,149.19912127744905 102.35666920547656,148.18475022264323 103.4396577179123,145.72380044031271 105.06096028838444,142.8429148096667 105.63870880646554,142.09672801727518 106.67590246185563,140.76022156920948 107.62173088707641,139.34050616482756 108.45726254806554,138.14527535500554 109.54646180119977,136.9148004638403 111.0783446747104,135.5243428848758 113.80336316837328,133.31728517903773 114.60986148861133,132.66418466514432 117.12274204053476,131.17383144166715 120.49001095946477,128.3947869887416 123.80123355793263,125.61372217451019 125.281185661744,124.15659267101725 126.53246279229403,122.68292613568342 128.87076915757245,119.81865236502951 132.15916915556238,116.02531168560886 132.73691767385614,115.15857666583501 133.4956756036281,114.02365738380637 134.52037294978896,112.66013795618908 134.653417486241,112.57490863846071 137.0790483589707,112.71618427665125 139.6627163863982,112.72246984528829 143.64522275088424,112.73077577528434 146.87578055171932,112.8717521007105 152.84490075020162,113.13192974583995 155.37873319765274,113.25247797316914 156.01477288243404,113.22748535497657 156.60090215876878,113.00928632900056 159.1928761161923,111.41716675595413 160.92634615563367,110.18040629609865 161.17993891930854,109.99543099016005 164.8320039604323,107.33274438549002 167.44478015708108,105.94423233973333 169.22606541524613,105.08168769908629 170.17189384025423,104.1358592738655 170.71020789829063,103.03842891909912 171.0427444109505,101.75804361969996 171.6558866669963,100.70214291491386 173.54739386113542,99.39676499737531 175.3017409678469,97.45123184418621 175.58736020044847,97.13328683005311 176.16017005757155,96.49515195581475 176.5259302904283,96.08778724482647 178.92881339093762,93.29205610375759 180.12404420081282,92.09690012213996 181.23808641546498,90.84771818141918 181.6268189051021,90.51308647903642 182.23996116114793,90.34674339444894 187.85993298697824,89.70299640535985 189.2655058619002,89.54234026382747 190.25076874759105,89.43009796654752 202.89673424308097,87.8358083757333 205.93341218234625,87.56769894157655 206.05194004831642,87.55737265022148 216.73576053067828,87.55737265022148 219.19888033067025,87.55108708158443 219.7829892457523,86.99616116371541 221.04466749580862,85.56402427841503 221.17561684253775,85.41436788202405 222.9485961707067,84.04044733490048 224.76115961564818,83.08421779012023 225.45736117165455,82.7267634873127 227.85814908265365,82.10733566262984 227.86226463362922,82.10524047311961 228.93896757753427,81.68537945300848 230.84918182096305,80.66068210690075 231.7700176279381,80.00376535490248 231.8698384444059,79.93312753580722 232.97347953976447,78.87101609058845 233.5991181048268,78.08120445860008 234.91070676290434,76.37459774230153 236.38444812644255,74.64531808193381 236.9581559220183,73.9697691085844 238.39642871954695,72.66027564012343 238.5169769467698,72.55012853235372 239.85355822309307,71.32788474298013 241.60371495078408,70.0995050413783 243.52635067518455,68.58842440693341 244.235123368465,67.67379934039101 244.98340535047308,66.2167446650493 246.19098281306236,64.2608103923539 247.50893186792817,62.313182049654564 248.6333752022993,61.29477027218389 249.90343421018386,60.96215893116013 252.81956392222634,61.066095298444026 253.06896630688072,61.13261756667004 254.86072751259692,61.60650454583116 257.65847901518435,62.20924568231751 260.7825562899458,62.543877384700274 262.03181305881776,62.68941823016884 262.98998813675263,63.04275698205395 263.904538375197,63.97608909820504 264.46784505126647,64.83032780885603 265.1121906658311,65.39153929530892 266.2491303092188,65.94234966225551 267.72908241324285,66.3996247814245 271.1857710289217,66.44122925966236 271.39154857408556,66.42050184874783 272.97745740659303,66.25415876416034 275.2764041400843,65.7116543272098 276.7126565761476,65.27308625759632 277.9640085347425,64.64954288199104 279.46259286001134,63.714190404480945 280.3792382879659,62.94293616569249 281.9049104209907,61.35291178215629 282.8214810206877,60.10575020279453 283.75892868765493,58.2953567755677 284.9728665470324,56.22508501602895 285.95184386419254,54.66409397340335 286.9516234201526,52.35474612061844 288.0594548945316,49.76075180188906 288.872238783513,47.97325580329139 290.0965029341393,46.05885118062944 291.0027472425876,45.077778674012244 293.34531881535673,43.61653361959689 295.4093050062053,42.63546111303287 298.61023084044143,41.375878052752626 300.8738586642256,40.64525552554495 302.0170090480991,40.27627768021845 302.70303396915915,40.134927213823524 303.8586058340043,39.89794631014077 306.4693616691878,39.05620390861265 307.9908434231921,38.54280764077709 308.8159739646749,38.26422225885649 311.6303373270418,36.994238079069966 313.21841617752966,36.514140359423024 314.09555231654394,36.30828798616109 315.0101773832459,36.156611228411094 316.68131553348167,35.96123480291302 317.72052955012447,36.21273237707765 318.6767590950642,36.802977204441135 318.56444196957983,37.027461799054194 317.8889678243285,37.55963994464966 318.030243462519,37.840245687876106 319.7346801609966,39.29318481229541 320.68454930893546,40.64211274122643 321.4765309586916,42.50039621527498 322.05644949475317,44.35860486111915 322.60516467229587,45.45401485457969 323.46157340055515,47.258197541320705 324.0726204670907,48.26418783792607 324.86669730635714,49.455228268621276 324.93112438486025,49.552879067268115 326.6999133340087,51.53373113000486 328.4666819216919,53.543766190007794 329.4416185159213,55.06524794395896 330.82167497543264,56.41844108016801 332.1935751610377,57.66762302088879 333.50516381911524,58.48871283970676 334.6629057015155,59.035332827579715 339.8219358263744,60.47577564287615 344.7896302485064,61.23647910574954 348.93645933622093,62.180212341460084 358.30240559197455,63.46059764080607 360.260435054127,57.97314655415657 360.4433151705554,57.852673155031795 363.2306655534239,58.16395845955906 363.9789475352193,58.24754155695037 365.47349113798276,58.24754155695037 367.4230650138367,58.18730485736139 370.9690984982195,58.365994594662965 372.67563038642004,58.33696125375237 373.9872190444976,57.51385107357539 374.8465460724622,56.88215142438284 375.36742516031137,56.49948001882274 377.07388222004164,55.55582161131658 378.07994734495776,55.158858019887774 378.9632942246705,54.52281833521281 378.7803392799846,53.639321799091235 377.80345715254737,51.355041392703285 376.49396368398004,48.32449936566626 375.70205686248147,47.26029273088411 374.81661479325845,46.162787547913325 372.83568790237047,44.578899076658566 371.50329700528033,43.643546599148465 370.82363248100853,43.167564430423944 370.30604583393983,42.344454250246955 370.2146057759383,41.34055914320499 370.51810894784705,40.03106567474403 371.3412191280772,37.048338866377506 371.67839498909024,34.776405112650465 371.7091493784891,34.568607206233914 373.0185680187989,31.280282036448387 373.78563187856685,30.004087116176038 374.7583984550285,29.268226615086434 376.6020156021864,28.698709198584318 377.8097427212908,28.26216149027668 378.34596158939155,27.725942622016348 378.277344131868,25.416594769231445 378.5455283940696,24.00945050212363 380.33100403125513,23.186340321893475 382.2723468053706,22.583599185407127 384.14926250077025,22.04730548894241 385.89320848797547,20.97479292416419 386.99901960088914,20.371976959473457 388.87803048579906,20.371976959473457 391.79423502609905,20.606862673645974 394.9931404990826,20.538320044060942 396.4003595943948,20.270135781752973 397.40634989084066,19.902280359385976 398.84888789564735,18.82976779460776 400.3891515276242,17.723881853436534 401.2933006463496,16.92164874052969 403.3385797876958,15.849061347600255 404.8912649004317,14.797276193683404 405.59592204273656,14.06149052079819 405.9637774651036,12.822634871432486 406.668509435666,11.014261805564665 407.373091749926,9.239262116143024 408.3209405366121,7.952591248106821 409.7613833519086,6.611894420967467 410.9024385462718,5.339815051617534 411.67361795680273,3.801721437674256 412.1412941956375,2.99731830699962 413.11196558258894,2.3612786223246536 415.58548650229983,1.9393224127032833 417.36894177802,1.710048813434638 419.2396467331465,1.469550984411414 420.4409386269924,1.2700590079909184 422.9477580947325,0.8585039179290097 425.58747244262213,0.4718666178021046 427.10693383537375,0.24940238460122996 431.43028264251575,0 435.0158254156262,0.11433748684334841 436.6309172453998,0.16626825638309708 437.1380279447047,0.24738202324221567 437.81567210751115,3.7747084581226797 437.68472276056934,5.038407069272165 437.42289889536863,6.042377004518518 437.2918747201693,7.133596618852254 437.445646667589,8.746593259168828 438.20230940763804,10.509246295929552 439.10226814734295,11.301153117481324 441.01046202973174,12.020326930374422 442.8125495269094,12.379951250896582 444.0014199397836,12.776914842325391 445.01167544372015,13.460769745670856 445.8036570934763,14.576981978197153 446.37781385838474,15.327583634328636 448.4843772939687,15.35541972407533 448.5128120092973,15.675459927771827 448.5599537741283,16.121735301799422 448.61525181244025,16.568609301462132 448.67922992203603,17.015558129276066 448.752561556383,17.462656613551946 448.83577051264604,17.90930612854832 448.92953024493045,18.355805987242253 448.93012887056557,18.358948771560772 449.03406523800896,18.801632392096675 449.0922815760262,19.023797312533162 449.15214413464645,19.219473050848798 449.281447261198,19.60798105587277 449.4194304586081,19.994319043182117 449.56661752446684,20.378487012723667 449.72270914595686,20.760260479937426 449.8875556665629,21.139414960210225 450.0486607772684,21.519991176260085 450.15259714449917,21.703320261808468 450.2063237908911,21.828433009233226 450.401700216336,22.25188578283605 450.6081512151799,22.671896459302797 450.82560195916517,23.08809089766468 451.05382796373186,23.50039426977049 451.29290405692484,23.908507262749485 451.5423064415792,24.312355048397283 451.69465665295604,24.546417652374686 451.80248408660236,24.711862798562667 452.07291319482937,25.10650671586807 452.3537434227753,25.496211972109105 452.6445258008949,25.881277880050167 452.7950801357917,26.07119184705315 452.9454848141734,26.260806501291743 453.25542321091535,26.634274038509446 453.5738171943811,27.002204289027663 453.8999933102527,27.364073455522004 454.23342776136525,27.720554991725642 454.57329743773624,28.071798554100525 454.9190785415629,28.417953798949092 455.2706214167553,28.758945898120125 455.6268784683458,29.095448305453125 455.9877748682894,29.427685505454928 456.35248750617836,29.755657498125537 456.72079189787803,30.07988808094884 457.0920145890704,30.4004520820229 457.4659310954081,30.717873298778432 457.8417183069087,31.032525872184227 458.2194510514044,31.344334974089055 458.5986055317304,31.65397405822609 458.97835863747883,31.961592781004114 459.3587103688623,32.267565283445066 459.73906210024586,32.57211605010896 460.08035351223447,32.84501448897446 460.1193390035845,32.87576887842651 460.1917726994788,32.933760732043304 461.3788472356603,33.88175917497871 462.49895053449586,34.776405112650465 469.4825166159352,40.35402417814588 469.8725211848875,40.665833280050705 470.31071511363854,41.01647821679047 470.7463648835466,41.36749729455218 471.17954532286944,41.71904016969145 471.60913400880685,42.07155581138145 472.0350561128887,42.42579250166607 472.4563388688301,42.78204955330971 472.8722339944807,43.140551450872366 473.0506244188584,43.29769066706429 473.28259183332557,43.50219613275354 473.68643961886704,43.86705842715763 474.08302906938025,44.235287990493404 474.4719860435774,44.60785758936477 474.85233777517357,44.98469239546099 475.03895930128976,45.174681190668366 475.22371012266836,45.36631620626597 475.5862527430022,45.75332764736166 475.9398159794473,46.145726718694874 476.28439983221637,46.54358824852319 476.61992947283915,46.94661292402904 476.94603076066585,47.35487557341682 477.2628533517863,47.767852399255794 477.5701727618531,48.185618229803524 477.8680638186985,48.607948580446845 478.1563768664454,49.03521759215453 478.43473776380597,49.46622801376268 478.7032961670827,49.90172812726204 478.9620520764883,50.34126896347942 479.2104068663876,50.78470086600605 479.44888433394544,51.23172452207754 479.6438117902704,51.61649111720104 479.6770355102546,51.68241475979194 479.89508487987496,52.136547094642424 480.03022460583725,52.43151985194197 480.2056967305096,52.83147657133369 480.3724887843234,53.23345365203126 480.40870563227054,53.32556716403178 480.5306755953236,53.637151781323446 480.6795837098302,54.04242130280148 480.8185396737378,54.44956152917658 480.947917628547,54.85819831953314 481.06098303596883,55.24842737315173 481.06681963537955,55.268556158431146 481.1750212098883,55.680111248546226 481.27259718033076,56.09368669996715 481.3599965160396,56.51003079479098 481.43759335745193,56.92847007907188 481.50636047170326,57.349004552969355 481.56629785836833,57.771559388172676 481.5915897894316,57.97067722357122 481.61815379981005,58.195535959206225 481.6627514060108,58.62130840693246 481.700315161318,59.04857741864014 481.7315185200495,59.477043681511724 481.7570349356728,59.906856851955986 481.7774630338229,60.337717617208526 481.79325178340724,60.76962597721619 481.8049249824413,61.20288124479653 481.81315608417987,61.636884794314426 481.81876819903056,62.07208559504939 481.82228512437104,62.50818433413069 481.8242306575788,62.945480324429056 481.82520342428904,63.383674253073764 481.82550273689395,63.59566253856396 481.8298427724295,66.670502858931 481.83044139806464,67.11161508728107 481.83044139806464,67.59710043721871 481.8287951776744,68.08161302055245 481.8250537677739,68.56507800913108 481.8183940579554,69.04734574649265 481.8078432821467,69.5285658890991 481.79280281428726,70.00843912413288 481.77267402895467,70.48711510805592 481.75763356109525,70.77280916875551 481.727777110149,71.24938996306199 481.71385906530224,71.4253858852182 481.69058749570434,71.72447419344017 481.645466092126,72.19821151624568 481.59181427399164,72.67000330589656 481.5292579004388,73.14007404695282 481.5032925154828,73.26556093534636 481.49670763413457,73.29945810911693 481.40586620155545,73.73069301533825 481.298113595954,74.19402921858429 481.1804836684366,74.65527023226694 481.0526771059728,75.11441605643934 480.9148435648652,75.57146669099518 480.87735463760293,75.69440942065215 480.8144989510198,75.92368301992079 480.68055647632775,76.38073365452979 480.536736679507,76.83568909957539 480.3828899038297,77.28862418326197 480.3744343175312,77.31226989388186 480.21916580623633,77.73901510821199 480.0456392145591,78.18693670262982 479.8620108161932,78.63238896651546 479.66895406481854,79.07492293064259 479.46587033501265,79.51453859506437 479.25320859568296,79.9510114751676 479.03104367529966,80.38441639910356 478.7994504019076,80.81445405416099 478.55835394724926,81.24075029931795 478.4752198190311,81.38135248372214 478.30790396783976,81.6637541037476 478.0482501199815,82.08279201361044 477.7795420604023,82.497864029066 477.5014804758593,82.90882049354596 477.2145891639426,83.31581106356545 477.06762658285646,83.51762271410935 476.9915263051066,83.6277698218259 476.7078526057129,84.03685558140879 476.5130748056904,84.30601261032065 477.1004761617656,85.30212558474412 476.8842974970954,86.84859995688784 476.848978587601,88.46773250948584 477.4247067446421,89.40308498699595 477.62636873883037,90.9100500705184 477.53283349089327,91.56472197654449 477.15869249999554,92.71842313633304 476.6598129024292,93.40220321147412 475.8179956726967,94.52462618448624 475.319116075343,94.61823626041506 472.5754653604353,94.27522379988501 471.5154491045673,94.27522379988501 470.8606275420261,94.46229429538704 469.4867069949557,95.55358873787199 468.73842501294763,96.17503692391385 468.09011350370974,97.13328683005311 468.0212715614135,97.23512800782676 467.9590145006782,97.98340998978168 468.0171560106506,100.65021214537411 467.8591936842104,100.99105458818954 466.4873683266502,101.61467279194602 464.71019861946075,102.05114567204927 462.99745599098713,102.3005480566505 461.9665479043404,102.58115379987694 461.36156192177555,102.80982877356365 460.7068900157495,103.74308606151034 460.02101475120446,104.58901884216526 459.77153753829253,104.89663756494329 458.9920521977656,107.10825979087696 458.64911456538675,108.66715564393915 458.2644976267252,109.93713982377886 457.7157824491825,110.41738719983458 456.9592693654359,111.24049738001156 455.7951670862474,112.50838637028785 455.05526586228024,112.8347121426214 454.15313710480757,113.23167573405021 453.7041679156878,113.43124253862193 452.9413692631978,113.91141508647326 452.40096001586386,114.25225752928867 451.50923237789743,114.90498390216014 451.0270394687934,115.84856748146191 450.7526444658933,116.84221112530003 450.9251234628154,119.10366893126321 451.4406897484188,121.43366936675825 451.54253092613925,122.4958556401814 451.4406897484188,123.52474336541593 450.95842201105717,124.69079117791857 450.5821858304366,126.38482675694304 450.2371530085475,126.98345234256014 449.9295342856632,127.51563048810245 449.3808191083331,128.13288829507067 448.42047401263045,129.12645711075757 445.9407423526464,130.98571335135685 444.91394981676257,131.74342368632048 444.58552885486563,132.26303069464186 444.03673884949075,133.35634549848584 443.2635390774945,134.38523322372035 443.1242838005566,134.70527342741687 443.03501376011025,134.91322099018902 442.62540420320295,135.8589745872586 442.04556049539895,137.19338584570772 442.0060512066713,137.28475107571754 441.76495475222566,138.20566171095012 441.5155523675713,139.1617415993216 440.76105964507735,140.5668655050704 439.8132108586039,142.54981275731737 438.9776043693572,143.6847320393992 436.8762040792913,146.5448154309263 436.40022191046046,147.19125623516072 435.057429893864,148.91859036237383 433.1701130787454,151.17997334013262 432.8915276970374,151.50210873339253 432.07260789582773,152.4479371586133 430.13545550094545,154.12326568808226 429.4993409879066,154.67407605502885 425.58747244262213,157.72145442667116 425.1260817725307,158.08085426258015 423.3177087066097,159.06185194099294 422.54218926054324,159.49009371925138 421.88355146005665,159.85383359069596 421.7005965153707,160.83700128682338 421.6943857748849,160.8702250068076 421.31814959447695,163.09434354186413 421.23913101702175,163.61604573969575 421.04584978129975,164.8777239895394 420.4056197174979,166.95211130000055 420.2912822305483,167.96850271611223 420.48044791572005,169.02440342089832 421.2703343757533,170.6082918921531 421.83775660258567,171.7390956233125 423.2740090388616,173.93814671197208 423.56299554050116,175.09798378404207 423.52139106205067,176.34102981253457 422.7752042697655,177.50086688460456 420.9918238220902,179.11790424769234 419.5513810067938,180.9325628821972 418.23979234871626,182.5828987934204 417.78461241911066,183.12121285129732 417.8677465473288,183.70120621551013 418.49136475113846,185.13543829037388 418.74899823753134,185.72987349686417 419.52638838854807,187.51534913410285 420.2746703705562,189.09085684715717 420.86708521563423,191.39182394174162 422.0332078565008,193.85905929276234 422.06433638676214,194.50340490743338 422.19326537223856,194.82359476753865 423.1078156106829,196.1580060259878 424.6438140351691,198.945281580705 425.41708863542294,200.55618303151135 425.58747244262213,200.79735431426775 426.1902884074192,201.6494978353553 426.74109877425946,202.28351715872444 426.9011562902099,202.46639727509964 428.5119829127055,204.9793526551743 428.3415991055063,205.16851834023973 425.58747244262213,206.3909117860221 423.86021314366656,207.15775116112374 424.19274965632644,207.9185294522015 424.5814073179187,208.31130266455668 425.58747244262213,208.87588141999444 426.2152061971947,209.22802292071566 426.87212294924615,209.5979735325929 427.2107953743469,209.80577143900945 427.28981395158945,209.85568184719017 428.26258052826375,212.07149445225065 428.6887271171183,212.78445752465794 429.11479887750255,213.49936613027302 429.7986537807949,214.6426661705021 431.902149260371,217.72723415664228 433.28445056569507,219.64365914071638 434.73529450071044,221.65773492343737 434.8718559622903,221.84690060844963 435.36085823751523,222.52454477136243 435.38375566625075,222.55776849134665 436.07180094856346,223.92136274711518 436.5643201491289,224.90034006416897 437.93412514543644,227.22210939781917 438.25424017712464,228.36945016081947 437.6015886325639,229.3526178569469 436.64550874413925,229.56041576336344 435.2777989375547,229.68515436976625 434.69578521198287,230.14040912757625 434.7373148619631,231.30024619964624 434.7373148619631,231.30638211192766 435.11145585286084,233.70507483336337 435.21337185883885,234.79427408633808 435.26941817930106,235.3762878119099 435.2818396602727,235.50925752010437 435.1052451125877,236.3240617702853 435.07404175385614,236.4633918753212 435.09484399286873,238.08671480704604 435.54583354345385,238.0534162588574 438.5577433490334,238.3299064512146 440.34321898643157,238.70195225265525 441.7108539647586,238.94933427589746 443.03905448282825,238.86620014767934 444.0784181557735,238.57519328489343 444.5439992048854,239.04705990274869 444.56270625460036,239.95741976201305 444.58552885486563,241.0362178954283 444.46079024862235,241.5517093528273 444.12832856400735,242.942241759943 443.9993995785309,243.69261893146128 444.19275564251046,244.27253746752288 444.6104466450665,244.49702206208278 446.41051378077873,244.4761449948126 447.7803187770863,245.13927248724355 447.87385402481067,245.2557051636503 449.2207615923827,246.94555036354797 449.85059053667817,246.96216222354008 449.9378402156592,246.9642574131035 451.0581679990548,246.9226529349188 451.09146654729653,246.84782473669674 451.349174861947,246.25960027069226 451.84805445930067,245.18087696542824 452.5942412517985,244.10409919337198 453.06401268014355,243.33928017957618 454.5543659036739,240.90736373815625 455.8804712320206,239.4565198032472 457.48718230375334,238.07638851569095 459.2290331014483,237.24078202644426 461.2597955723126,236.43420887805502 462.32400220720115,236.1287601729916 465.10514184958373,235.92081261021946 467.5120656728111,235.879282960186 469.0710363540777,235.91879224886043 470.58623253933865,235.53222977693792 472.58998203070456,235.17051026685235 476.117308465585,234.0938073230005 477.94229339128543,233.30601605237115 478.81321879023926,232.43299546396025 480.0063544106042,231.49973817606673 480.8065671620989,230.27966440440778 481.6004943450628,228.60852625406562 481.8084419077818,228.49837914629592 482.30724667709063,228.2364056244206 482.6647758079962,228.2530174844127 483.87452328835326,228.3113086507939 485.29416386442443,228.9410627668318 486.8302371171682,229.14886067324838 487.7842966441275,229.43777234647087 487.9443541600779,229.5209813028934 488.9046992557806,230.01986090030024 490.02076183168543,230.81386291136226 491.06214586630864,231.5538389633211 491.68778443137097,232.10876488119013 492.2282685067498,232.59095779040047 492.9703397484848,233.25191526506362 493.76015138047313,234.17694145116548 494.51681412052216,235.06028833093143 495.38975988072866,236.08094495432113 496.8073052675023,237.36963618371632 497.7426577449592,238.40061909851426 499.4179862742155,240.36276411164232 499.8296161925881,241.41866481642842 500,241.8593280756053 499.91686587178185,242.22516313661328 498.6468068636846,242.85701244221463 496.5516173141045,243.59908368373686 493.7268528322314,246.1390520433631 490.9873176680866,248.74973305028897 489.03557377425216,250.89273781853956 487.9443541600779,251.62852349142477 487.9381434195921,251.63271387049843 486.43536871509014,252.8673791407905 485.17571082671185,253.90449796781667 484.7703664770826,254.29742083652746 483.8059058304043,255.23067812447414 482.5193097905725,256.44042560472485 482.448597143326,256.5194441820206 482.1160606306662,256.8831840534652 481.3864108699029,257.683396805013 480.1310181888026,258.08874115464226 479.8358957751475,258.1842967637257 477.91737560150995,258.41297173746557 477.28964184693734,258.57721963248963 476.41871644798357,259.22149041895625 475.6351155562683,260.0529065291825 474.67686565028856,261.3312714671695 474.6498526705775,261.4518196944986 474.3048198489011,262.93588734933877 473.95350145826865,263.827614987252 473.4026910914284,265.2244329630579 473.0411212375921,266.14519394188176 472.6170698384605,267.221971713938 471.6193854720107,268.6790263892797 470.74007931480327,269.96562242911153 470.4157739038819,270.26695558325247 469.6321730123794,270.99031977521923 469.29133056951076,271.3062444279933 468.40798368979796,272.12314386773767 466.9445686177212,273.2684642693789 466.28989671169506,273.6612374816809 465.1674737387893,274.3346912654669 464.73923196042455,275.15368589477464 464.6519822812308,275.32204934072115 464.19261197260477,276.31150260548566 464.15310268387714,276.3343252059636 462.16192432978534,277.50037301846623 460.73801854643614,277.77678838261903 458.3269043439756,278.60618413143305 457.4123541055313,279.3170520143301 456.90516857818153,279.7119952443999 456.53304794853653,280.24207820043193 455.5997906605898,281.56810870073383 454.83699200809986,283.3390676674906 454.5792836936621,283.62588415120285 453.1887512863869,283.43671846613745 452.6233494208072,283.35777471704614 450.26005043707033,282.30808475269265 446.29834631180955,280.86973712695965 442.0434653058887,279.26302605522693 440.96257198275055,278.8556613442387 440.36394639718657,278.6789171400917 439.9835946658031,278.5666748428118 439.55961809471637,278.43991587504996 439.08565628735084,278.30058577001404 437.74084390950173,278.4586229246055 435.72459810890666,279.12998151882806 432.12872904454747,280.35424566956067 430.1124832439524,281.26258516746606 428.3644965342418,281.9921600999186 426.8326136605185,282.2893777031372 425.58747244262213,282.6396484989081 425.56876539311975,282.6448116445857 423.31972906807505,283.4097803147903 421.8398517923086,283.91479582442537 421.21526082200137,284.2037823258523 419.7051529540009,284.90215389962646 416.8970751603774,286.1659273390335 415.70393954001247,286.5670064813847 413.0475385038731,288.3089321072309 409.41006496127613,290.3625171785731 408.28345160934987,290.6348169918035 407.25044833319294,291.4724438424624 405.7746117801445,292.8899892291297 401.0617073729576,295.8225063164979 396.67467976903737,298.5499941408525 392.55912886809926,300.9694142732027 391.6175656501565,301.3144470950918 390.29976625159316,302.2602006921082 388.73046927907785,303.7650705860672 385.46294634835806,306.0764388002111 384.5525116608893,306.5191972489514 384.29689853596176,306.64393585535424 383.1515781341078,307.6478309623962 383.0123228573826,308.12171794155734 382.7754167819574,308.9345018304324 380.76538172184814,311.6054195368941 379.6886787779431,312.9980471335732 378.0029491289679,314.59016670661964 377.22772899550625,315.27409643816947 376.1779642030548,316.0015761810586 374.5381042395954,316.77687114256514 372.54468103947823,317.59998132279526 372.4345339317617,317.6436809905434 370.8922499387448,318.2797206752183 367.17785300841547,320.2917012683759 363.2306655534239,322.43156325225476 357.163370758864,325.7209360168486 356.4192791558764,326.2384478355534 356.6935993307316,327.01172243575405 357.6039591899428,328.6973772565781 359.2917840284283,331.06486661938857 360.06086824966167,332.11455658368885 360.7280364647043,333.0291816502844 361.20611382304537,334.22852801097565 361.3433487385179,335.86434725182335 361.661293752651,339.46231150579905 361.63226041168724,340.9941943793097 361.7611145689061,341.22077416343296 362.89184347202064,340.91936618108764 363.2306655534239,340.800913143375 366.40255804690895,339.6909864794858 367.7702678534936,339.0984968061501 368.01345949766215,339.06317789660244 368.49774759648903,340.3498487645855 368.13602808635034,340.7821312656151 365.99309814630413,341.4202661398535 364.8082684561479,341.4202661398535 363.2306655534239,341.74951021189236 360.7946335611879,342.2579678186636 360.3913844010688,342.3411019468817 360.79246354320736,343.43030119985644 361.081450044847,344.2118069018487 361.9457157339823,346.5605892150505 362.30361900596296,347.5333557916716 363.2306655534239,349.38348299207973 363.7628436990193,350.44536995273853 365.68338423412223,355.0286719205563 366.4636178565867,357.204077298596 368.16932663437944,361.49689620105863 363.2306655534239,362.91242122636686 352.80664857522265,365.90016152400216 355.26752352940196,371.1830323168112 356.701905260515,374.22629513753105 357.7203918661901,376.59782522305954 359.6638298300285,381.1166252840635 361.9543958050535,385.9181262778573 361.03984556660913,386.30476357793106 360.17311054688844,386.67059863893905 360.69481274472,387.77214454457464 360.3726025233089,387.8699449996303 359.5661042030709,387.8699449996303 351.5699629436248,389.42053492269645 349.7886028572022,389.7675881059445 347.79315929583237,390.1791431960596 343.7046962026502,391.02522563307014 343.2495162730446,391.11868605264334 342.78797594665076,391.21424166172676 340.8446128112826,391.8607572941656 339.3167706602773,392.50929328796343 337.92833344272503,393.8041952577381 337.09482214298856,395.5107271458855 335.79984534511584,399.5805580176633 334.6421034625029,402.21406162506713 331.9046634878684,406.53329488149933 330.7012015762547,407.64322154533545 330.5598511098066,407.7180497435575 328.3135834281648,408.91739610430193 328.0177127323594,409.075358430689 325.2719668277288,410.3807363482275 321.3725945914609,411.4573644639282 319.9071591579187,411.6278979275893 316.1886466766138,412.34288136140873 314.8625413482671,412.598569314647 314.4447006896213,411.9978485395197 313.8897747715928,410.1956862140845 312.86051290554894,408.91739610430193 310.78028899557074,406.3337280768745 309.1610067863513,404.15951995005184 307.6333142920738,402.40524767149157 305.367666107037,401.5281115322114 302.9606674555521,401.6673668090429 300.8738586642256,402.2304490004992 296.99730902822296,403.2761730702859 294.4344432400207,403.9580076122723 292.77580139880143,404.39859604329797 291.6076583966822,404.8475652324709 289.81178163999044,405.7954140190507 287.71030652166695,406.64972755785294 284.9665809785017,407.76796015173824 283.44090884547694,408.17120931185724 282.8152702802019,408.3063490377664 281.43888040254615,408.91739610430193 280.7741815178762,409.2125933461615 280.02791989733345,409.54310949762186 278.2695320679039,409.77582519402654 276.60250946843104,408.9901291129074 276.4268876872436,408.91739610430193 273.36401987867504,407.64950711402565 271.1877913903871,407.14022639705934 267.1907683554191,405.93466929588226 265.2535411322792,405.3298329698325 263.97315583293323,404.9307741888403 263.4908880955717,404.77902260293905 260.57475838352923,403.4840458049068 259.5582921393195,402.85002648153767 257.98270959784816,402.3761395023766 256.07047499295396,402.42193435968807 252.32285434264043,403.0226551348154 248.57306367434643,403.3926057466926 247.50893186792817,403.0683751639225 245.38246413157162,402.0519089195533 244.10619438298855,402.08520746779504 243.5180447451885,402.0997989664281 242.68662863496226,402.23897941505527 240.9738860064886,403.3010908603272 239.8160692958308,403.6253962713017 238.5169769467698,403.7293326385856 237.50268072032787,403.81037157724035 234.31006081587506,404.4110923523677 233.20005932394093,404.7811177924493 231.71801203019396,406.6288504905828 231.19002426383165,407.1382060357003 230.76185731372445,407.5497611258154 230.46883008957954,407.83238723040085 229.26738853921853,407.11328824571217 228.90566902929248,406.8970347529439 227.90798466262999,406.30050435689026 223.74671373269115,406.39403960461465 215.40546482309838,405.46497269579476 209.61256503143866,404.40069123280824 198.71877662489246,403.057974044363 197.17649263166285,402.79607535063894 195.13323385178202,402.1516549077635 193.08383915946024,401.87321918230487 192.58907511308215,401.8045268963111 191.96141618655446,401.71937240678704 191.41053099145665,401.7089712872276 190.02830451439016,401.6861486868028 186.9749398868752,402.0893230186643 185.27880911818102,402.534176656968 183.66588730617516,402.6984245519921 182.50814542356224,402.81680276155345 182.18593520215111,402.7772934729322 181.92194131875726,402.67545229515855 180.48149850346084,399.7987570436393 180.3443384162459,398.61190699201774 180.2591090985175,397.8595094591404 179.98261890631983,396.28392691788173 179.87666217741108,395.6769954022686 180.0782493433418,395.5149175249591 187.80845118661168,393.14944852350766 189.8517099664925,392.55501331701737 190.74126758669112,392.29730500242005 193.53071315928247,391.48661630316155 194.70297171216458,391.2039153703717 197.1951996813779,390.37459444976207 197.5215254535519,390.26444734199237 197.9871065028765,390.11060056647455 204.2269551224033,388.26481340154885 205.38469700501622,387.92397095873343 207.3011968171884,387.3586439213581 209.3838900575393,386.80356834713353 209.76641180690328,386.8971784230623 210.47720486143643,387.4708862186381 210.8181221325626,387.7452063932275 210.97189407976964,388.06113104605475 212.4518461837937,391.4346855336218 213.32486677204506,391.7921398364293 213.47033278946876,391.85237653596516 216.29300208204432,391.1124753121575 224.06480840312668,388.7553870689065 224.11262362185033,388.4768765152435 223.2333174648556,386.76196386894884 222.58066592008217,385.49197968910914 220.54578789824225,380.5013878384543 218.60437029608192,377.5893736773874 218.46721020886696,377.29006088460545 218.2447459754534,376.8015824067581 217.33438611624223,374.8144447753843 217.11611226206182,374.33644224530076 216.2057524028506,372.2412526957207 215.93547295092608,371.61763449196417 214.03363946553822,367.24430044827756 213.8298822818397,367.0821477427637 213.60756770494126,367.0821477427637 210.1279816605269,368.19012887349834 206.96446992529542,369.1108898523222 200.25904025665668,371.06053855638055 198.2282777855797,371.6862519497004 195.96053441103265,372.386718713038 194.7612628786521,372.75666932491526 193.02562282144297,373.2909426600741 186.12893227790957,375.41516555051163 185.9751603307025,375.45467483918605 176.16017005757155,378.3393018797326 175.9023869148762,378.4149531880966 176.16017005757155,379.02562611361026 177.2119552114884,381.5178540827703 176.16017005757155,382.3369235402825 175.8399053693682,382.5864007530349 174.3119135620605,383.15277538521855 171.98228726764057,383.4487957372732 171.03032293019152,383.3261523204338 170.42952732664713,382.3575761229926 169.86420028932497,381.0875171149485 169.14712166604846,380.37253368118223 168.84571368364993,378.49554315757814 168.44044416227823,377.76813824289343 166.85655569102346,377.5747821787012 166.2558349159493,377.3440868437086 166.20801969722564,376.74336606852813 165.88999985483497,373.12878995456026 165.7881586771145,371.96057212428985 163.59733869029975,370.84652990953134 161.16340188757397,369.79893513474127 158.61924314887412,368.9196289777465 159.22819502568677,367.7494656143215 159.59200972533574,367.3856509146725 161.16961262784713,366.39627247805925 163.12966245146495,365.6085560356343 164.30401619407,365.3071480532889 165.25396017026634,365.0431541700546 166.3888046239311,364.85608367455256 168.67937059916878,364.4777523044749 170.48362811411417,364.47154156404224 176.16017005757155,364.6652717691501 177.0601287974891,364.69602615860214 179.31515137824698,363.10091345764596 180.71630938958847,362.108167752101 184.18758950400678,358.5497876150041 185.0501341444943,357.3067415865116 185.07093638371956,357.1238614701364 184.82781956780855,356.60006408274137 184.26241770222884,355.50876964020324 183.95689416885472,354.2970017985935 183.72402881614755,352.1976218699398 183.83215556261143,351.8733912871696 184.0939794280248,351.08979039561393 184.78831027908095,349.4248629857044 184.8340303080817,347.2049348297747 184.6427694336124,346.5605892150505 184.46407969620446,345.95777325035976 182.8531782454513,343.6817987739679 182.3729308695551,343.00624980067164 181.96564098671803,342.42835162596907 181.50208029885883,341.1148174347901 181.77849566301163,340.1918864381985 182.51854654306854,338.2504688359849 182.6578018200064,337.0470069243181 182.10272624567543,334.31989324098544 181.41273543015487,332.38064565648654 181.36282502192097,332.23929519009164 180.66856899912236,332.3328304378161 178.34268411439024,333.32849444306635 177.75236445903502,333.579992017231 176.16017005757155,333.8302175119742 174.77592321925238,334.0475934277551 165.7548601288727,335.80396089587873 161.43562687249363,336.6957633619964 160.23216496087997,337.2112548193953 159.14506089746865,337.6788562299194 157.5487509454549,338.82006108063825 156.53026433956717,339.7449376103845 154.62424047515884,342.62582324103056 151.8181082145305,345.7062756762483 151.81189747404468,345.71256124488536 151.0393711559411,346.5605892150505 150.83292015709722,346.787168999227 149.7687135222087,348.6370717150751 146.4284575827771,351.1500270951497 143.92792368378045,353.2286047847377 143.91542737455123,353.23691071473377 141.70807035600194,354.82281954734754 141.13855293944664,355.2302590865402 140.31948348193453,355.81855838074904 139.30937763451308,356.52314069500903 137.82942553048903,357.55823916067624 137.26611885441957,357.9511620294402 137.06872206772198,358.21919663533936 136.94817384028647,358.44166086859343 136.9460038225187,358.45827272858554 136.71111810834617,360.04006601033007 136.56565209113515,361.0086422078244 136.53654392191385,362.9604609295974 136.52614280262023,363.6131124742644 136.64669102984305,363.856304118433 139.4403269814549,365.63347382562245 141.06574510247725,366.5106099649026 142.3544363318193,367.20688634916655 145.4223924580737,368.65151954358976 147.42412158797424,368.96534900680047 148.21393322017528,369.09008761320325 149.26571837409213,369.2521654905127 149.54213373824493,369.2958651582608 150.87654499658774,369.5535734728581 155.61990448035598,370.4681985394537 160.98665768337386,371.7631005092815 163.20651101115237,372.82528678270467 163.71377136654698,374.5983409389717 163.94858225267464,375.41516555051163 164.17306684712818,378.4415920266794 163.85100628223216,379.2147917986225 162.7867248192988,379.7697177164915 160.1968460513855,380.1396683283687 158.02263792456287,380.78618396080753 150.41507949823875,383.29292860044956 147.91664078853967,384.26150479794387 145.69469227125091,385.323691071367 145.6572781722462,385.35900998091466 144.12330010922534,386.8306561548895 143.3833988852582,387.54361922729674 142.74945439019982,388.8966627071502 142.02392018041212,389.963039359647 141.13017218119305,390.82565882849843 140.74353488106613,391.19979981944925 139.94332212957147,392.2265175269692 138.0456041951592,393.24298377128525 135.95041464557912,393.73976817912865 135.5138669372183,393.84370454641254 135.31647015030805,393.8894245755196 134.27097056513458,393.8769282663968 134.00488149244316,393.8727378873231 132.83262293934837,393.86031640640465 132.06974945881353,393.8499152868452 131.5210342814835,393.84370454641254 131.48571537177637,393.83128306549406 129.01421481353077,393.04962770714616 126.8400815149657,391.98549590056837 125.26659416321723,391.8939810141498 118.77524796952576,391.22262241992723 116.85889781365603,390.9254048166555 115.32686528384296,390.6884987411771 115.27912489337686,387.87825092962635 115.13365887595317,387.00523034126866 113.80336316837328,386.85804327540984 113.38552250972751,386.81187427712956 108.2390635221427,386.76196386894884 106.43899638643043,386.76413388666344 105.33116491205142,386.97821736171704 104.58909367052917,386.89919878442134 103.29000132146815,386.76196386894884 97.04386713341061,386.51054112298857 95.77597814308115,386.59367525115357 95.16493107654557,386.8056635366969 90.98906864807995,387.0488551808123 90.56090169776009,386.95741512259815 88.89806947752034,386.6082667498398 84.03206657680636,385.5813993859643 80.82904555284726,384.9994604885437 78.96672135618701,384.9516452699264 78.93544316941058,384.9516452699264 78.20803825467264,384.0786246815155 78.47427698387915,381.9508100375863 78.92302168843894,378.3771649480168 79.47173686576896,374.02672833295935 79.94360348362423,364.9205107532152 79.95812015410611,364.63159907999267 80.24426318408521,357.3345776762583 80.27411963524408,356.5750714645488 80.26790889475826,355.40490810112374 80.00391501136443,353.8438422302938 80.25533775748417,352.26002858724337 80.93500228154333,351.63019964300105 81.30502772167812,351.6260840921318 81.92236035674439,351.6177033339314 82.81610835617616,351.70704820258214 84.19833483324263,352.4637109427375 84.62448142188447,352.4054946045607 84.90725718303821,352.3534890068166 85.69085807454076,352.21221336857286 86.47864934506377,352.0687677126677 88.10197227678859,351.2145290020167 88.32226649243435,351.09809632560996 89.77932116751022,350.7592742441536 90.75006738293185,350.8070894628241 92.01174563277549,351.63019964300105 92.93250661149298,352.4283172049855 94.19628005084685,353.52170683708704 95.84661596207008,354.5401934427621 96.57626572283337,354.6357490518455 97.10627385066104,354.5401934427621 97.10829421191372,354.5401934427621 97.68409719721238,353.6130720670437 97.81302618247616,352.77552004464235 98.22667646231415,351.6343151939235 98.4052913714645,351.13760561428444 99.06220812330326,349.33132773798 99.40933613470257,348.37105747048173 100.04949137024678,346.6063092441576 100.0396888763756,346.5605892150505 99.51948324263178,344.13697870362665 98.97495844432223,342.1873299995683 98.30554538304158,341.25197752211136 97.98962073037383,340.9027543210955 96.52006974585608,341.25197752211136 95.67413696536066,342.27667486821906 94.60783514096194,343.6090657653624 94.27941417906499,344.0206208554243 92.36298919515038,346.41093281865955 91.76249290442352,346.5605892150505 91.00366014660672,346.74975490011593 89.9165560831954,346.6832326319431 89.65563015602203,346.5605892150505 89.22230006018414,346.356832031352 88.76083456183515,346.14072819499256 88.61319852706903,345.6024141371688 88.35339502269566,344.6461845923886 88.69019674284623,340.8736461519805 88.6236744746202,340.19390679955745 88.59658666686424,339.90297476497597 88.4864395591477,338.77015067245753 85.38518488486419,335.61689040037675 84.8178374860767,335.03914188208296 83.37118393029445,333.93954150954875 82.26537281738078,333.09981946937967 81.288415861686,332.3557278664984 79.99351389185813,331.37256017037095 77.13754605125344,328.51240195063946 76.3102454920028,327.80781963637946 76.24581841328703,327.7516984877661 76.08374053608391,327.61446357224037 75.0381661224402,326.7207155729681 74.03427101550457,325.86640203411275 73.91783833925733,325.7687512354659 73.7847938028053,325.6544137486226 73.28389384398626,325.2282671598744 71.33836069085032,323.5675301290917 70.40712376415631,323.26821733630976 70.0932943009988,323.1684713480995 69.79600186957585,323.0728409108117 69.65884178214823,322.75063068934736 69.52579724590886,322.4347060365733 69.19333556129389,321.6490099554542 69.04771988756777,321.30607232312855 68.9542594681009,321.0607854894497 68.37643612154956,319.53092297729813 67.90037912467382,318.2755302960915 66.72183500304831,318.1799746870081 66.37261180192611,317.4171012063669 66.03595973829066,317.45032492635113 65.26680068901244,317.5251531245732 64.6100335934761,317.5895802032358 61.84760100059584,317.8618800164662 61.69173386366587,317.05949724720375 61.57328082595327,316.452640559795 61.43395072097052,314.7731964794568 61.44652185824461,314.1246604856589 61.4651540794894,313.0791609004323 61.483861128991755,312.08559208474543 61.533771537438334,309.4915229378116 61.255186155305054,305.9704820715682 61.38621033050442,304.3969947198729 61.36750328078939,302.8962403767831 61.35912252274845,302.2976147912192 61.34258549101389,301.0422221100658 59.97899123519221,299.94262173753157 58.77133894434539,299.2379645950672 57.59496484048768,298.5499941408525 56.70525756398661,298.65595086949537 55.10685242224997,298.43356146444575 53.07399476187543,297.8349358788818 52.84531978818874,297.7684136106558 52.7289619397737,297.77469917929284 51.44648145113015,297.8441397472242 50.77721804636462,297.8806559079889Z"/></svg>