<svg xmlns="http://www.w3.org/2000/svg" width="500" height="500" viewBox="0 0 500 500"><path d="M57.90730609099112,441.5685289709132 57.26328917889996,442.08479221477097 56.782670073527534,442.4772814756936 55.97519767790826,443.2976157530839 54.09586335344331,444.44307302299694 52.197322721453936,445.5998349064014 52.0547461670207,446.11892430363207 51.0165673725594,447.36693056779956 50.660875782211406,447.6714053375633 50.31966101855944,447.8956519571561 49.90629282850094,447.9101287836882 49.29105653953762,447.9325073043762 47.942058549313266,447.30129459732865 48.219194610855865,447.0465947330785 48.4355395364567,446.27269011842975 48.459590678428285,446.1894051084681 48.459590678428285,444.75066232915583 48.32174360515132,443.517075214916 47.97891389657434,442.7624345845601 47.56716065127692,441.83643677647916 46.16048606150598,439.7456600376699 45.12074999876512,438.01057488912664 44.67058413825491,437.44021099474827 44.37095420285635,437.0589109941901 44.273192366362615,436.9354830708408 44.069709322696724,436.6439278594116 43.135636790646494,435.3094066957193 42.27694757436102,434.248734027402 40.56268367834918,432.19164042277225 39.91064971877023,431.5058656524503 38.529525862604984,430.4837786292822 38.194713201351874,430.236980459188 37.53143230492691,429.72112095156143 37.26871539327095,429.5176379078546 35.1298363703546,428.7838762065525 33.622227731049286,428.1317845704511 32.72985538054337,427.58385687336516 31.837483030037443,426.76040805953875 31.04921694210653,426.2814038990913 30.353925532867642,425.9210405042325 30.12160418926453,425.8007271172783 29.8059978358637,425.12464201568685 29.394244590566274,423.9454439349899 29.019346692529933,422.3257119858267 28.710142441691882,421.67362034968426 28.367312733114908,420.4399755588809 28.12697434202401,419.549218153218 27.750461499390514,419.273639359914 26.713897649690285,418.57511806103 26.302086727911345,418.16336481581453 25.95769975105481,417.61543711876965 25.545946505921314,416.9297777016157 24.962720729771924,415.9347986803328 24.379552630267977,414.77007742612693 24.203350618259744,414.30866462860683 24.014286724480495,413.81039648386655 23.83168260990948,413.33139232341915 23.59128654233706,413.19516019494426 23.213216431260083,413.2977091891987 22.280816520780302,413.71586453697694 22.014812042956745,413.8360048941177 21.127284526897977,414.2333389894055 20.56009284539631,414.48815420686464 20.396695038513645,414.56180722465933 19.427439780772787,414.99438172236523 19.188658657961444,415.1017178743804 18.434075704250972,415.4398181017601 17.09470970627548,416.04219250895244 15.585486122045165,416.5211966693999 12.360441373687383,416.3866371623315 9.843492239694056,416.15414278895594 8.233334606093297,416.00533716173237 5.490523907705089,416.07426069837084 3.946002244493253,416.0405775641504 3.9075896291165444,416.03256051678557 3.3195766953293697,415.90596038047755 2.504087252222311,415.73131563662594 2.0795874784447648,415.1240963950684 1.93222376637375,414.9126539806012 1.8889086399044406,414.85180516789103 1.5829342785885447,414.41277089105887 0.7545829538743974,413.2288433291647 0,410.6926302109195 0.2611596435403294,410.2472515080881 0.5575596892528079,409.740966315983 0.857131948005919,409.2315089109192 1.574917231264684,408.37916412063305 1.8391914110362733,408.0667876567134 2.5233512365561115,407.2528554818449 2.6546808541433315,407.09908966708815 3.3548747743108915,406.26923875069895 3.966881173752056,405.5418214753962 4.562911154863092,405.0772364648764 4.668574685553727,405.01310008599864 5.397606905658504,404.5677790597717 5.851291038754165,404.1880363274111 6.360460061000505,403.7618062557046 6.727340911549061,403.46546388647363 6.925979120931727,403.1402255408239 6.954875097350464,402.74450639033813 6.9724087836322965,402.6259809779585 7.010879075654451,402.3487295632479 7.166317511694772,402.135729880583 7.393851697660102,401.9802914443788 7.590874962117765,401.698310548512 7.746313398322013,401.40191050267657 7.959370757427398,400.7595085353055 8.467213217812038,399.52903595746085 9.843492239694056,397.3482260465004 10.094962214340077,396.94962306603725 10.942519846742577,396.0572507156133 11.639426200906467,395.2689846276004 12.307551931778583,394.5079418946817 14.396713725826766,392.68155468881196 15.627128627107952,391.6529502099131 16.657290374081473,390.53148640549017 17.17320755843542,389.965967345518 18.168128903072862,388.25487566246477 18.749682057815733,386.47168822977346 19.12780984537423,384.7237988761047 19.12780984537423,384.27034544930393 19.12780984537423,383.44851158027956 19.12780984537423,382.72755408414406 18.20181203729331,381.25357090241374 18.20181203729331,381.0821560481253 17.559352393317777,379.9366411016488 17.179609660834277,379.26211326825484 16.83355006273515,378.64526203453045 16.62366491650647,378.2703641365351 16.176671268872973,377.3107408708382 15.482994804395164,375.50188735129126 15.298718068417624,375.0180960330831 15.144952253619898,374.61914699299325 14.968692564966219,374.1577341954731 14.818098963045198,373.7652449345505 14.491245672634426,372.9112851995442 13.93530092830662,370.0290701597224 13.996207417539281,369.0404932410023 14.117962719523085,368.27472102688637 14.55532437490772,365.85068889502156 14.664275471765952,364.910271937013 14.701073142381585,364.59466558353023 14.733199008486402,364.18452728311684 14.677079676891521,363.9745844602017 14.494475562320504,363.6237377043009 14.239660344861441,363.1735718437087 14.105100837752069,362.89320589260296 14.012183835705484,362.36927166096615 13.911307462816557,361.84862499557886 13.874394438910034,360.7816079012623 14.190000792474793,357.9939248083302 14.359396965729971,356.12416479950963 14.433569072923918,355.3055031434849 14.353456276002902,354.7527882886382 14.21087972156967,353.76103915691846 13.964196904725359,352.0483902056677 13.826349831448388,351.0998985237308 13.739834931800662,350.49752411653856 13.922496723181052,349.7797388333617 14.005839409788146,348.65504513937566 14.009011622664852,347.70499618924117 12.459702801815233,342.5781809192079 12.291575513612381,340.8879681652087 12.405256091626876,340.231031694742 12.520609291047894,338.68824032958213 12.602394709375432,336.1840954007144 13.118254217083933,334.19425271135754 13.268847818841026,333.1480568695314 13.34728799435552,331.8647525263824 13.34728799435552,330.90189937112234 13.401792381025396,330.2498654115844 13.54598388038363,329.4311460789552 13.666124237442432,328.5723991861472 13.602103211814583,327.4877330523399 13.501111485798692,326.17241819633597 13.457854035974828,325.2928500510376 13.435417838764323,324.3299968957775 13.712611576788447,322.1029880284524 14.082722317023082,320.0458367472591 14.279803258290118,319.5524134368841 15.018352117352867,317.72441128625326 16.449077849259314,314.5761917686489 16.215141560895127,312.7289256336843 15.521465096417318,311.33990008332216 15.1080392298773,310.27767014676635 15.170502987225591,309.343712967966 15.22985220834262,308.8261231623285 15.279511760565343,308.3855892938622 15.316713167535172,308.06035094821254 15.375658652461933,307.54287649578396 15.607922319255671,306.8235339444096 15.877099010119862,305.67801899793307 16.388171360026654,303.85318906026095 17.440769304374605,302.83900373128967 17.817282147172026,302.4753527702223 18.168128903072862,302.1372525428016 18.179375840082802,302.12444833767603 18.51418850117199,301.80243988158946 18.921154588667704,301.40833567590573 19.020473693440998,301.20006547443813 19.0348351666822,301.0238057857435 18.98038845649384,300.7513992053981 18.50617145384813,300.3444907945888 18.03356939596349,299.8846352652253 17.54493324343113,299.2614396055836 17.42156299668625,298.91538000740246 17.410316059676312,298.8817545497865 17.368673554777452,298.78405038989723 17.278986442253018,298.2520991109365 17.26929677335871,297.9669460020701 17.355869349487957,297.6993842560899 17.621816150829993,297.14666940124323 18.187335210761216,296.20942465627536 18.235437494868307,296.1293118592724 19.420980001564555,294.1330670673527 19.725397094764823,293.5579160152136 20.092277945313377,292.3258861691714 20.295760989143197,291.57447542837855 20.263692799683827,290.6083347069509 19.597239690218235,289.32987519816714 19.1470738295441,288.74191994090245 18.969141519647827,288.50798365253826 17.786828902473733,286.86898771912325 17.178052392718648,286.09681340240354 17.38632259418625,285.5600749656821 17.815609525765506,284.456144847582 18.027109616755258,283.9082748271005 18.168128903072862,283.5461811342307 19.167837405512014,281.8639277510328 20.0377735586435,280.39801929323085 20.262135531404272,280.0182765608703 20.457543851264784,279.6898660022209 20.74754179441448,279.19961490484553 21.35314609129286,278.1806424180726 22.322401349197644,276.58173172139976 22.995314237707543,275.18791901323596 23.10432301121122,274.96361471703864 23.152309942027422,274.67840393156774 23.33335678848281,273.5921805295628 23.290099338658944,273.1772550713887 23.25808882584502,272.86003377306287 23.21800358906179,272.4690441037333 23.046646411500713,271.8474633888527 23.022595269365205,271.76256343412996 22.875173880484816,271.22582499736757 22.79829097324988,270.95024620406355 22.481069674924044,268.4813993542183 21.997220680029468,267.9125927280785 20.20445893185769,266.11187160906434 19.084494719068847,264.8253373763522 17.713118208115503,263.3561413523826 15.239253494173628,259.99653709691546 14.947871312352861,259.60076026982523 14.162777437462578,258.3655582108243 11.990330633452748,255.1116174859658 11.764469069057867,254.53162159946152 11.639426200906467,254.20961314337495 11.516113630807034,253.61669769857716 11.444133234336844,252.40658496042815 11.555391395045799,251.68533908127037 9.843492239694056,251.2660302014848 7.806816151364405,250.76730064394982 9.843492239694056,245.19476061149933 10.173979155981177,244.29039152833033 13.62067507689481,245.11655114232073 14.811812213773306,245.2215225537578 21.077105885194097,249.36524018204426 22.005237727517255,250.65610015976335 23.929905859075006,251.92002516541064 24.983253599321976,251.5576430895595 26.2122265856145,252.80778338788724 26.066016405304918,253.78620922504126 34.002431876204575,255.54390360069036 37.33781195976381,256.9031103490033 41.04635964347135,250.97845467543573 42.648500229584315,251.55902732794368 42.88993447595513,249.65656468709662 40.629588533954355,248.73258556000803 39.13743722333409,247.93532192247736 37.44768588212955,245.76091411407967 39.20324622365935,245.14492802938125 40.980665996273046,242.44537478077592 42.93221142346212,241.54325508497615 43.664415856607526,241.05611852399593 44.49755433912338,240.52745481120283 46.23096686634206,239.6510588789041 47.366907497297106,239.22494416036548 48.68706718758424,238.8612931992981 49.45774191275181,238.63693122649636 50.14818848754354,238.5969036663176 51.16393108479434,238.617724918808 51.81440777609373,238.7171017000628 52.15885242943178,238.77789283612753 52.176501469004506,239.70233337601084 52.22345022118624,241.22291925029612 52.24698227384059,241.98217400864033 52.34157189729369,242.3346357093842 52.76451440295561,242.57018694250948 53.08646518227378,242.58454841583264 56.29559118911081,242.73519969423518 57.35297629142439,242.82811669632275 57.590142469310734,242.17919727317997 57.90730609099112,241.67637267709685 59.13933593703339,239.72321230510573 60.06533374495038,238.12585887663053 61.03308941138498,236.45323748555853 61.78605742033437,235.15072683472118 61.86934243029602,235.00809260368348 62.17058731045566,234.48744593825523 62.539083105929215,233.85300334164455 63.01970221113771,233.0214798038488 64.39753850113536,230.8410159525151 66.57004298179064,227.1737070376801 67.01542168449913,226.0698345961844 67.88212794810848,226.37580895754127 68.44931962961014,226.5745625200919 69.0244706816263,226.78438998975707 70.37023878232851,227.27625603193454 71.32351762190316,227.6239305748767 72.96891565800392,228.226304982069 74.83221588765723,228.90723491802572 75.4137690424001,229.12029227729502 77.37321616378607,229.68909890343483 78.16303951983261,230.1440519218287 79.13552466725955,230.70316887923812 80.24418426655693,231.09894570632835 80.75364167170265,231.28154982094037 81.54825218571483,231.5651456616502 84.4946612808959,232.8596969417272 84.95117156748736,233.05995009587093 86.44920589118927,233.69923752684682 87.33840602881848,234.08047985080051 87.60596777459374,234.19421810541945 88.1298443296261,234.41858007822123 91.49429341954041,235.93091819872376 93.80937445446499,236.9498906854967 94.02889159310647,237.047594845386 94.65531714227035,237.3232313152945 97.26518327831026,238.39024840961105 97.70260261034034,238.5696803112644 99.91986413228966,239.49089096154358 101.39546225878105,240.10451230566386 103.69450919922184,241.08334187904913 105.04033497640556,241.85401660413473 105.91188607446205,242.26259763635053 105.97111994228818,242.2883213998106 106.43253273980834,242.4884592007454 107.35535833501255,242.8874082408353 107.63578196255882,243.00916354277814 108.1725203993622,243.24148488634026 110.68462469890838,243.24148488634026 111.47283311035777,243.07168497681286 112.00316944443443,242.9563317774328 113.10704188593012,242.4580059560881 114.2893545031042,242.0157994662563 115.22019714546836,241.66656765511655 118.40850189985595,240.3848782567696 120.45763613376636,239.83372067012056 121.69439546096488,239.55814187677555 124.1248296954744,239.0150590140958 124.6952512663343,238.83718438064008 125.21111077404281,238.6593674237888 126.17396392922088,238.32132487297255 126.18359592146975,238.31648003860738 128.13341105060684,237.2174524314769 128.0692746716881,237.06368661667918 127.94590442510714,236.7688438390823 127.34035780487422,235.93253314352583 126.87571511783192,235.28049918402886 126.52002352748393,233.9635117066594 127.2857957415589,233.74883940258803 130.61667705037974,232.62899054296713 131.52508349553335,232.25409264497176 132.32615378875377,231.98814584379366 133.3851538356645,231.39367313075726 134.71973267600222,230.16487317431913 135.55765831615585,229.4887880727276 136.50130516380952,229.09785608000254 136.5653838660828,229.08349460667938 137.5875862423779,228.84794337355413 138.69301595198922,228.33369881068867 139.14318181266336,227.95078386532848 142.26094808573333,226.26045575816124 143.3119310851563,225.44185177869997 144.1130013783767,224.89069419205094 144.63047583068234,224.10721526183977 145.3658524768684,222.9409367394773 145.66865462514366,222.19275588824766 146.00836979748937,221.35638751612768 146.1685377148499,220.4495960157761 146.43442683938255,219.27524276944436 146.43131230298738,219.25920867471467 146.3463546716192,218.72252791455674 146.2646269299371,218.49337878399427 146.07879292568,217.96627233939876 145.59817382047152,216.80956813259874 145.31302071160505,216.15107439389354 144.63687793324513,215.3980487082987 143.97844187126734,214.75720400912522 143.37756705570914,214.31026803813717 141.98854150518306,213.79596579866725 141.02574602665044,213.7254273172267 139.61901376007015,213.83276346928287 138.60327116298328,213.88571058779615 136.4131753194007,214.01063810273862 135.77071567542518,214.02828714222937 135.36219231981383,213.88571058779615 134.93446265651414,213.44027420836022 134.45378587466018,212.78183814625947 134.0084071719517,212.30116136444653 133.28629614372693,211.93266556901395 131.6099834502561,211.0771485657691 131.91278559869528,210.2809231070368 132.62572604734297,209.14175258651863 129.56730899555393,207.73669294138583 125.87277672570669,206.04169302966682 125.41292119630218,205.8301929385951 124.48692338822126,207.2015694494665 123.87330204418294,206.51908224531218 123.35744253663836,205.55778635824973 123.23245734496848,205.25504188645598 122.73424687683271,204.93459069856704 120.4351422599104,204.88170125665823 119.31367845548745,204.7744227812065 118.33317626073665,204.63334581836642 117.22930381924097,204.50841830342392 116.55160377292937,204.3145095752795 114.89501647646411,203.70896295508754 113.54123132860197,203.12100769782288 111.80447355857025,202.26064586021283 109.91879480835189,201.2817586102641 108.06512657078352,200.24836697356352 107.08623932062987,199.37681587562997 106.51587542641543,198.73597117641552 105.97111994228818,197.87976205399906 105.4232499219297,197.01847739079957 104.3017284408613,195.1856304057626 103.14340928917726,194.56243474612086 102.53774731581736,194.04657523845333 101.75432606216967,193.53060037761787 101.26730485439839,193.17179425091567 100.84268972749388,192.85936011039155 99.59468346344934,190.54750896494815 99.11406435807692,189.6406597879921 98.81281947791727,188.97899383628723 97.79551961255085,186.7472554878058 100.41340279591462,186.05352134672353 101.02858140823248,185.85165324777773 101.71429850203188,185.62579168338286 103.01519420814915,185.18035530398794 102.89661111920599,184.287982953523 102.80052190395483,183.56056567822026 103.05043461048523,182.31573162705243 102.85502629078864,182.19080411215094 101.4114963535927,181.710127330297 100.69855590478109,181.42497422143055 100.58320270536007,181.04200159946586 100.46784950610298,180.6607592755122 100.29003254916974,179.47037193445075 100.23552816249986,178.06531228935893 100.34286431459702,176.9806461555516 100.45020046653025,176.46478664788407 100.82348341980553,176.19716722529944 101.8921154588012,175.5211398003124 102.872617653552,174.82740565923012 104.09980266531103,174.02633536609167 104.5853242814482,173.49922892149618 105.15568817582658,172.93047997196084 105.95670079240155,171.75451178082702 105.97111994228818,171.71315765882755 106.36689676941941,170.58015853449527 106.45658388194384,169.7438478389388 106.29151345365466,168.27147960201052 105.97111994228818,167.04429459037445 105.36557332221918,165.63762000048055 104.95537734503739,164.8429518099049 104.45359092783464,163.86885171771686 104.43951783749282,163.84162836266367 103.77940915394456,163.07579847194327 103.20425810176447,162.30195153385802 100.83473035681546,159.74013000536172 99.85740037494136,159.40214513114992 99.24060681786243,159.4149493362755 98.23605348097611,159.43738553356798 97.50546399259179,159.81066848676127 97.13218103948044,159.91800463877647 96.72210041558954,159.72253864243444 95.76080452852709,159.29480897913473 94.79789369670358,158.74365139244472 92.90575516727698,157.4699790414626 92.18802756066367,156.98613004665 90.56829561145949,155.86460856562258 90.00271887488282,155.46727447033473 87.39769757312614,153.63927231970393 84.57956123561863,151.63818269337813 83.68874615339226,150.845187124209 81.90555872082389,149.744486895672 80.80335890057081,148.86970590813434 79.84685017131008,147.99492492063766 78.85354377143372,146.63790988304845 76.39271396887133,142.28182701470527 75.96486895244468,141.51115228961967 74.3274879638317,139.73119474653248 73.25729865655647,138.43670114301898 72.33291579323662,137.8294819014615 72.13099001768636,137.6964796625907 70.97907296872904,136.94189670879825 70.23089211741743,136.4500306666208 70.12517091024527,136.38110712998233 69.17027712574561,135.75473925734093 68.18175788350703,134.782254109914 67.59853210752156,134.0532795664137 67.1579982390963,133.1368560738952 67.17558960185964,132.70906873399105 67.5216492001227,131.53310054285723 67.99396287494403,130.88643050712463 68.65597488615275,129.9790045641649 69.68296442024956,127.87063646242838 69.73579618567683,127.76168536561113 70.37346867185066,126.45271493556554 70.9406603531884,125.28643641320309 71.02388768650461,125.11657882711219 71.44850281357304,124.24502772917864 72.14863905709515,122.57880844066943 72.69973896713974,121.56629573306374 74.06800094169789,119.18546337437738 75.1750455962342,117.56578910181864 76.63732042828279,115.80503786641981 78.07969683338945,114.06833777307452 79.14031182506126,112.45339298171304 79.98942672574331,110.71184805400256 80.92990136035633,108.69316706474947 81.28876516358102,107.75113516197985 81.52425872006084,107.12632455753605 81.78218847391508,106.45018177934007 81.92643764975485,106.06888177878193 81.98734413915143,105.910271129619 82.97419075981956,103.01202199506754 83.58463989098118,101.10707926043341 84.27029930813512,98.94899392974675 84.62599089848311,98.11752806859643 84.76856745275242,97.7827154073843 85.06819738815098,97.08096421893718 85.32612714216916,96.47535992218174 86.3882994019566,94.82996188616295 88.35253368114428,92.26975530238674 88.72904652394169,91.57925105090858 90.15815731108707,90.01558075665383 91.12747024547338,88.97417207258842 92.08553624301366,88.25482952121402 93.50022788027239,87.18296759253226 94.52871700600332,86.49892312022135 95.6598128025112,85.39822289168436 93.60110425316131,83.83933975519034 91.69454657368415,82.4871695520073 91.38217010980547,81.96485026521351 92.06627225867986,80.30670570063263 92.36745946219405,79.57773115713232 92.79363185737812,78.63408430956063 92.90419789899742,78.3872861395074 93.41042541445707,77.41964582644565 93.78215109945278,76.83964993994135 95.33295951210043,74.34513700328148 96.03309575578648,73.45114970801448 97.57438752931223,72.20787292508523 98.81126220963772,71.2562090301487 100.41818995371632,70.2484834803447 101.2897410516089,69.65089623091313 102.01225581602392,69.38010459536983 103.07454342910225,68.63353868894224 103.55994969227639,68.29549613816697 104.59570606943215,67.74116633851828 104.81118584584308,67.62581313913824 105.35911354284703,67.53295381361416 105.97111994228818,67.42855916818075 106.67604334377594,67.30859184081241 107.77189873778383,67.26216217807085 109.79703950620416,66.89043649303416 110.17032245947944,66.74145783603815 110.42346505553198,66.26556821198591 110.6605735569368,65.6695959073564 110.69264174623224,65.59115573175994 110.75031834594274,65.44696423256563 110.86244165584161,64.67634718404351 110.87524586096718,64.58821733971666 110.88487785305212,64.52413863748436 110.84000545846718,63.98901514552402 108.70118411203235,63.7775150544523 105.97111994228818,63.265808261978364 105.29024768293594,63.13828530008089 104.74872208849479,63.10142995286079 103.82751143805164,63.03729357402401 103.13054740740624,62.9892489664804 102.39361349310457,62.86910860929866 100.66810266024672,62.58712771343184 99.9535472665101,62.37885751192326 99.4312279797573,62.199367933665464 98.81281947791727,61.86455527245333 98.13356216332612,61.438440553955694 97.62883423950059,61.12277652382745 95.10548300294447,59.543129811447486 92.14154022131765,57.578895532341775 91.17868706597565,56.70734443440823 90.46891883020467,56.066442058630294 89.66467632410755,55.44163145414552 89.36504638870899,55.095571856005414 86.49090607289749,52.74525041853985 85.20275689526035,51.324214355322795 84.53145895151152,50.297224821185004 84.24947805552176,49.74768217933802 83.78806525800162,49.07794150370483 83.62628239588004,48.89378012089524 83.62460977463745,48.89378012089524 82.75951845578918,47.916450139103105 82.2980479816236,47.15702235094548 81.52270145194521,45.82244351068973 81.37366511830375,45.01981594935369 81.26955885589267,44.26044583780053 81.19584816153444,43.396796434022896 80.98596301530576,42.921022163179586 80.7921119637248,41.99017952073348 79.42223504440557,39.580566538796326 78.75099477713826,38.539215531335365 78.11015007808774,37.73174313567512 78.42414148672749,36.232151543652684 78.45297978650079,35.78671516421678 78.70773732747833,35.01292590277697 78.98971822330417,34.5803514050711 79.30209468718284,34.194264246752226 80.12242896457313,32.9878428109611 80.50851612297397,32.37906630120602 80.94109062072081,32.06495953931635 81.62680771435629,31.94643412693666 82.66019935101589,31.959238332062228 84.50585054126039,31.837021617324677 85.37099953659018,31.7798064304089 85.55043143828448,31.616408623485256 85.68499094539385,30.842561685400003 85.68660589015494,30.823297701107183 85.71388692181259,30.270640522865012 85.83402727903531,29.04979993718724 85.71388692181259,28.543572421686623 85.44626749922796,28.304791298957245 82.58643098017613,27.531002037476455 81.71816744828725,27.332363828134774 80.43642037337682,27.348340246259994 80.37718650555067,26.590527402904424 79.88532046333223,23.866923012245554 79.8564244869135,23.232480415634864 79.7523182243385,21.297084436343425 79.71229066420071,19.677352487221214 79.69781383766862,19.097356600716918 79.69141173510583,18.81220349180947 79.43671187093766,18.64240358232304 78.45297978650079,18.597473511174616 77.5301541914605,18.315550291871286 76.20359239844665,17.82368424969383 76.05461374161456,17.376690602101313 76.30769866102165,16.916892749342246 79.37742032646608,16.618877758745747 80.25537352692143,16.602901340620523 81.50666735729749,16.484318251636374 82.52875438046563,16.242364915948325 86.2969973446711,15.662426706048493 87.41373166793778,15.542228672262285 89.02065941201639,15.45415650453991 89.78966151577744,15.540613727501208 93.0675957058801,15.393250015266267 94.09452756349538,15.393250015266267 93.98084698548088,16.53397780398204 93.89594703075817,17.379920491664446 93.88147020422608,18.368382057175623 93.92640027545646,19.103816379884165 94.1057745003414,19.597239690218235 94.16731543218218,19.677352487221214 94.60087043224591,20.241314278995823 95.15681517657372,20.766805778789262 96.05553195299697,21.12566958209592 96.502583277112,21.165697142274688 96.7460938810796,21.186576071369565 98.20081307847612,20.91578443578528 98.5917450713241,20.766805778789262 99.88145151691295,19.82315893121758 100.39488860747984,19.677352487221214 100.4005409141436,19.675737542419157 100.41224926398925,19.677352487221214 100.43578131664361,19.680582376784347 101.28651116208674,19.779843804871216 102.35029836679918,20.12434613481373 103.56635179467524,20.33423128108339 104.87047739031466,20.49918635620463 105.83010065613452,21.45892497511046 105.86055390066888,21.77291638383218 105.53052839721748,22.492258935165594 105.18608374387942,23.235710305197998 104.66059224408599,24.014344401043978 104.38507112746838,24.437286906582948 102.91397177555147,26.684597936999317 102.65154324712275,27.08556565808153 104.52764768173769,27.75207644411061 105.29347757262202,27.782529688767923 105.78690088295609,26.86933608581257 105.97111994228818,26.86933608581257 106.13296048105522,26.86933608581257 107.06218817865829,27.093582705446376 107.39227135859122,27.093582705446376 107.90167108709149,25.7606188099517 108.0315011130446,25.4305933065003 108.44481162645765,24.403603772362505 109.26993306181357,22.980895087779917 109.65925010973656,22.42662296473569 110.40904590564533,21.377197233346404 110.6941990145118,21.15289293714912 111.15884170171802,21.092044124438956 113.16950564344233,21.167312087035764 114.35349088185902,21.077567297947848 115.01359956540728,20.987880185423414 115.11926309609791,20.643435532044382 114.45229089731508,19.677352487221214 114.3262675268468,19.49469069596377 113.86000989504343,18.640788637520984 113.76069079027013,18.272292842088405 113.4851119970071,17.261337402680294 113.43383749985937,16.401033241674725 113.42743539729658,16.296869302659182 113.59244814894032,15.561492656555103 114.0281948597278,14.79727771063675 114.65785029857777,13.9433179755895 115.55823969624362,13.16468387974352 116.20231428498023,12.714518019151352 117.1619952272816,11.964722223160628 117.9022167079148,11.208524324607117 118.23547210072442,10.936117744261756 119.53636780700562,9.873945484310386 120.10667402457463,9.889921902435608 120.88692306534561,10.069353804088937 121.17207617421208,9.635222038185473 121.33714660250126,9.020043425867602 121.30992324748904,8.975113354719179 121.18655300074417,8.76522820844952 120.30214002091665,8.689960245852713 120.49604874914306,7.807219887554674 120.60332722459478,7.291245026719208 121.53261259884329,6.30278346116705 121.84666168429241,5.868594018700103 122.28240839491598,5.2229621617249204 122.76147023184492,4.354583276791025 123.22922745544633,3.5775641257061213 123.87330204418294,2.505702197024369 124.95318102018855,1.2320875226467278 125.63088106666409,0.7481808512296494 126.60653842696773,0.16345548352810918 127.26658943387054,0.04487239458493937 127.82097691008272,0.01441914992762722 128.240747202704,0.10416393905652427 128.90074053296135,0.2387234461249146 129.4855235772264,0.49348098697951415 129.38141731465137,0.7177852831768016 128.825530246969,1.7527341880749743 128.64604066862927,2.2926448377960393 128.64604066862927,2.411227926739209 129.89093239644254,2.8021022428597924 130.8425386147746,3.2074533855124674 132.53759620309808,0.66005100690281 132.87563875387335,0.29962993539855726 132.97178564560602,0.19546599638301465 133.69914524430428,0.02883829985525444 133.8273603254963,0 135.11706677108515,0.03045324465731215 137.03804360044896,1.1198488596208966 137.4625433742265,1.360187250547869 138.8275754590986,1.6566449729877568 139.07270100782728,1.6309788860911718 139.4716500478352,1.590893649307941 139.81770964609825,1.3425958876615725 140.65880749945646,0.6841598255608201 144.36775891919032,2.7764938326086535 145.20245466998574,3.3773109716033614 145.9618247814979,3.789064216777839 147.91481212367566,4.9618025183485175 150.1770613935008,6.533489859968104 150.86756564493797,7.240028206175948 151.25526774793596,8.093987941223197 151.4635379495675,8.766843153210596 151.49722108362403,9.579102706713538 151.4282975470675,11.649058193032385 151.51319750179022,12.315568979102444 152.0130805913325,13.281652023925615 154.0349914702307,16.772701250106955 154.0526405096395,16.803154494723284 154.25923808970057,17.41354594928043 154.79441925838833,18.224190557940332 155.33110001854627,18.845828949425453 155.72837643714766,19.432169261929047 155.77007661869197,19.55559718523741 155.81189215352717,19.677352487221214 155.91749800757236,19.98494179338015 156.00395523041072,20.520065285299506 156.00395523041072,21.210569536818646 155.9703297728357,21.728101665851703 155.89984896799965,22.549935534876102 155.7018452012251,23.91064187482317 155.56820851978716,24.8249313331404 155.60990870133145,25.526682521587514 156.50060843043084,26.24285285996226 156.87233411542658,26.544097740162876 158.58665568808385,27.92187635359704 161.32144933898428,30.123219134066588 162.2747281788868,30.889049024787 163.05976437729555,31.507457526668002 163.2872408864515,31.899946787590643 163.22633439721884,34.48264724518182 163.32732612323474,35.53201530000762 163.5019131904819,36.347504743032715 163.82876648089265,36.863364250700236 163.8752538204026,36.937017268494984 164.1652517635523,37.39531552966093 164.168423976429,37.40967700298409 164.237289836504,37.805396153469864 164.25015171827502,37.875934634869424 164.3270346256739,38.32287060589846 164.43442845425255,38.93170479225801 164.96949426964943,40.47939866838753 165.28671556797525,41.2901009536519 165.91637100682522,42.12791124080152 166.73180277328683,42.80243907419544 169.46988399051878,44.24596901130942 171.19856703641724,45.077492549064196 172.31847357256066,45.833690447617705 173.72670543077507,47.00965863875152 174.30347142771623,47.490335420564485 175.2583652122159,48.45636078882417 176.48560790029254,49.665954437573966 178.79267188805719,51.6446078666073 179.41108039006113,52.25015448675828 180.26181023550427,52.79658259225105 180.96038921091073,53.16986554548534 182.3926145344513,53.42618035449655 183.13923811748336,53.09609717448166 185.96539150247867,53.11530348217001 188.2420022453811,53.073718653793655 190.72694086656048,53.02878858260425 192.28097916873028,52.99995028278998 193.24227505579273,52.85575878355469 194.50470046988784,52.66513762157785 195.03982396176622,52.561031359125785 195.53169000398466,52.46649941223617 196.83743054438517,52.203724824016724 197.5007114408101,52.06916531694833 200.2739753837327,51.67338848985809 201.35864151754,51.47475028051641 202.09880532136384,51.33205837287425 202.66276711334336,51.223222629265926 203.14338621855185,51.176792966524374 203.80989700449896,51.11432920905314 206.80106314130194,50.82750347878015 207.61009280503683,50.74583341362056 208.16286533648793,50.69138670351417 210.0052866372103,50.507109967495644 214.5649679023873,50.14980343238658 214.8949934058387,50.12419502213544 216.01807215502274,50.031278020006894 218.3764106397712,49.925499136189295 219.94008093418987,49.85507600795768 220.57296626256198,49.826237708102425 220.55687449126881,49.60349068010273 220.4175278263577,47.567218327963346 220.23007887733954,44.846786150304126 220.2556872875907,44.63684332738902 220.37427037653387,44.47829035487155 220.71877270651734,44.39817755786857 221.32593427151136,44.385373352743 222.56759610963857,44.191522301162045 223.80441311348252,43.997671249622066 224.76893889006715,43.944724131108806 226.14348761406112,41.913296613334616 226.50246677041278,41.68899231713733 226.82124533701815,41.48873916299358 227.77452417659282,40.98083902612743 228.81270297105414,39.901017726685296 229.64739872184953,39.12076868603726 231.5811797563389,37.577919644272924 232.17876700589343,37.27511749587472 232.74428606582467,36.720787696267 233.30340302319308,35.977394002798086 234.2486648154439,35.0001216976514 234.51951412771461,34.575506570705905 234.70529045532626,34.27276209891216 234.69410119496177,33.663927912552616 234.5979543032291,32.8548405720903 234.64121175305297,32.129095918153126 234.75022052639272,31.976829694948524 234.98888629591318,31.86793627473574 235.3910075489617,31.911193724518622 236.27224831574858,32.44147238207279 236.91147807020198,32.817985224870206 237.2318715814045,33.007049118649455 237.56512697437807,33.20251511503247 237.67725028427694,33.10152338897559 238.7811227256087,32.093855515735086 240.57555709535092,32.98461292139797 241.39900590913638,33.33222978773567 242.1103314131869,33.61588330500901 243.34080399094964,34.10774934718646 245.39472538266173,35.80119199074887 246.27429352787817,36.36509610596 247.2195553202929,36.97710250527822 248.06226811841216,37.523415257562064 249.23500641998282,38.45587284481024 249.7236425725152,38.94456667398804 250.08250637590382,39.455581347249385 250.16261917282483,39.59469730570163 250.28921930909186,39.81450282716051 250.8323021718126,40.38965387925864 251.8752681240756,40.7998498562765 252.54979595734656,40.984011239086094 253.50947689964795,41.21633258264822 253.58635980721073,41.36854112924836 253.60723873614168,42.3138029216221 253.64086419388062,43.53943066506059 253.61525578362946,44.077784046584064 253.56553855459737,45.14635840909822 253.49990258420846,46.14450964333978 251.76960459338497,46.78696928731531 250.8387619510208,47.131413940694344 251.2505151961543,47.51271394125249 252.27098727456138,48.550892735713795 252.79330656131418,49.15972692207335 253.28194271384655,50.11462070657301 254.22720450626124,51.80800567353095 254.49638119696152,52.439276057182965 254.91932370262344,53.429410244100666 255.24461972491858,54.276910199939685 258.48408362316303,57.96498269066065 259.1057220146891,58.67475092647261 259.4870220151243,59.21143168663054 260.91451785767254,59.254746812976904 261.74765634018837,59.31080846788536 261.9735179045833,59.41012757257669 263.0629711960284,59.80423177826041 263.51480967810903,60.07340846904263 263.85440949699995,60.369808514837075 264.636273482532,61.093938223972195 265.0015393883195,61.430365829986386 265.55748413281117,61.946283014217386 265.81224167362484,62.228263910125186 265.75612234219386,62.737721315188935 265.67283733223223,62.936417201135086 265.1617649823254,64.14924073948899 264.97593097806833,64.83651510140402 264.68114587711693,65.924353448211 265.1185075326655,66.41783443514953 265.8826648019794,67.30697689601035 266.14001778970703,67.74116633851828 266.2928607788333,67.99909609233154 267.38069912568125,69.21353457544653 267.8709502231386,69.64772401791348 268.3707756360355,70.08993050778625 268.7104908082173,70.55613046306712 268.9251631122477,70.89094312427926 269.09502069833854,71.28504733000395 269.20714400823744,71.70966245690846 269.20714400823744,72.06206648104788 268.9956439170837,72.69812402246062 268.2153948764767,73.54568165494508 267.66752485595424,74.13842406997048 267.07633970912644,74.51816680233104 266.2496033291734,75.05011808129173 265.9115607783981,75.03564125475964 265.54306498292453,75.07734143634492 263.30971168968205,76.12353727817107 262.5038542386599,76.4487179472573 261.6018498960691,76.74511799305174 260.62613485912,76.95661808412345 258.1717071592843,77.72244797484386 257.9040877366997,77.86340958447504 257.32420720336336,78.3023861847437 256.9989111810682,78.88076712644593 255.8117537297748,80.20894386417987 254.75113873793907,80.80168627920527 254.7655578878257,81.04202467013225 254.9642537738538,81.42338234729486 255.40161542923846,81.92643764979583 255.48651538396118,81.99691845463191 256.4478112710236,81.53227576750764 257.0710646073108,81.22151424834907 257.44267493917954,81.37372279494919 258.0323028178917,81.61561845407375 258.62510290948063,81.5883374224161 258.7003708719545,81.52425872014281 260.75913709811374,79.76673737434808 261.2573475662495,79.3774203264251 261.72360519821683,79.15155876203022 262.24592448496963,78.89674354457115 262.82580501830597,78.78300528999317 263.319343681767,78.6853011301039 263.7999627871394,78.67088198017628 265.2851352290703,78.91122037110324 266.1326351849913,79.0938821623197 266.98175008567335,79.36300117649746 267.8853693730253,79.6594012222919 269.0453034693065,79.84367795831044 269.96016969383226,79.92857791307414 270.44078879887684,79.92857791307414 270.69548866320895,79.87251625816569 271.05602508800405,79.49277352580513 271.65678455027137,78.85677366099685 272.1791038370242,78.44819262878104 273.3149867914977,77.5606074361178 274.51339117996497,76.62497763591097 275.06449109000954,76.04498174940667 275.71981261559216,75.1766028644318 276.0306318113552,74.79536054047811 277.925884877177,72.93044536602275 278.5523104265048,72.40178165322966 279.369414814209,71.56708590247523 280.1609107919899,70.71952827003174 281.64446828915976,68.7986091172724 282.37326980284666,67.74116633851828 282.62497048391054,67.37590043264883 283.0895554944713,66.75587698596577 283.6711663256957,65.93560038513897 284.7173621676448,64.5802002923928 285.70743867783506,63.21038104967804 286.27463035933675,62.48140650617773 286.7985069143691,61.64832570022535 287.4201453057313,60.87124887257696 287.77254932991167,60.44830636703799 288.1827453069296,60.193548826183395 288.6665943016602,60.12301034474285 290.6852752908723,59.82666797555287 291.53917734935607,59.86035110977332 292.10954124373444,59.921142245838034 292.99072433387585,60.01573186933212 293.4793604864082,60.06856363463646 296.47214156780836,60.389014822525425 296.9031011206302,60.44346153263182 298.2264907006034,60.614126591144235 298.7552120900829,60.68218497879772 299.57070153302607,60.786348917813264 301.127969724718,60.986602071957 302.9816379622864,61.22371057327986 304.01335697753944,61.347080820024736 305.6811912108507,61.54733397416848 306.4165678570368,60.741476523269306 306.81228700752257,60.36017652271116 307.20800615800835,60.13425728171181 307.5348594484191,60.03015101925975 307.7014294683424,59.97726157735095 308.2429550629475,59.98689356947687 311.5032978902868,60.43065732750625 312.32357449103165,60.62773826865034 313.49475552448666,60.895300014630514 314.6674938258934,61.19325732866353 315.233070562634,61.33427661489917 315.6159855078303,61.39033826980762 316.1943664496965,61.43198077478844 316.98736201878364,61.31985746497154 317.9903004109089,61.20611921039356 318.3940366087185,61.2846170625535 318.64879414953214,61.622601936765285 318.81859405897757,62.03279791378315 318.91791316358695,62.62559800541302 319.4546516003903,63.62853639745629 319.76547079615335,64.17963630750086 320.1051282916897,64.50331738499395 320.6129707520744,64.687536444408 321.221804938311,64.65869814455274 321.61752408879676,64.56099398466347 322.1125623440558,64.27734046739013 322.3801817666404,64.00983639801443 322.91847747155947,63.247178720293675 323.18598154085316,62.49899786906402 323.41351572665457,61.58101710838893 323.61382655744376,60.51561495887442 323.91178387143583,60.06377647687573 324.26430324874315,59.78018063620686 325.4658221736056,59.626414821409135 326.3005179242371,59.65363817646233 327.2762329613501,59.597576521553876 330.4452737314039,59.67930426331793 330.89065243411244,56.52306769838971 331.09736536746436,55.073193335317406 331.25591834006383,53.9452697517272 331.6804757903229,51.54690370671803 332.1131079647152,49.8341970788628 332.2764480949524,49.18372038752243 333.4299800888347,46.46328820986321 333.84657816841536,45.790375321230364 334.3432313682716,45.039079933646505 334.9040209472105,44.47829035487155 335.67625294032973,43.779769055987565 337.0059292697388,42.64227115683493 337.4305443966433,42.12791124080152 338.0810210879427,41.34131777419516 338.523169901293,40.80780922703688 339.44120833853157,39.69753468297842 340.35763183100903,37.90794514772433 340.91997867806356,37.08605360209547 341.3877935781465,36.40356639794117 341.4770192778352,36.27298657625297 341.788299886434,35.81716840887409 341.8155232414462,35.77875579349738 342.02702333259987,35.488757850224744 342.0511321512169,35.456689660806354 342.5525725090388,34.771030243652405 342.59577228205325,34.54666827085065 342.6967063315876,34.03398097618278 342.42441510432826,32.65781730755068 342.11994033464646,31.576323386702025 342.0094319696726,31.1069512184215 341.8716425730411,30.523783118917557 341.7995468234439,30.21619381275862 341.5752425271647,29.75155112563436 341.0465211378491,28.903993493149894 340.6088134227557,28.257265780812833 340.38808507570735,27.93150834576394 340.2278018052199,27.694399844441083 339.577382790402,26.70265071272133 339.34667639156,26.35024668858192 339.26656359463897,26.02979550069295 339.81287634704574,25.408157109207828 342.35226167808565,26.850072101519753 342.6967063315876,27.04075094010106 346.2903045519005,29.034861697860418 346.72126410488625,29.27410423338453 348.2435802771415,29.991082044180793 349.0363451399748,30.363499848389097 351.09026653152296,31.329640569816732 353.18271589190266,32.29255140168123 354.049422155512,32.9718087162724 354.76230492767814,33.574183123423715 355.6323564339366,34.25990021718213 355.83093696667385,34.45380894536755 356.06654587644454,34.684515344127625 356.34846909578886,34.99371959504764 358.0867841339362,36.89704738492068 358.5321628366447,37.488174855144024 360.8840415423488,39.77926242474247 362.12737600188257,41.134662517488636 362.40774195294733,41.52397956541162 363.5116143946069,42.195219832637946 363.93611416822057,42.387455939416846 364.53854625205827,42.661477464564264 365.90680822645254,43.001134960141584 368.14327605625414,43.31835625842644 369.0965548958288,43.45447303373341 369.89445297600855,43.557079704551356 370.9822913228565,43.62438829642876 371.5639021540809,43.744528653569525 372.9144574124209,44.007245565184505 373.55051495399755,44.10817961463691 374.67999580558046,44.35492010812667 375.7662768843128,44.73460516388276 376.769215276438,45.20247774057015 378.49951326709754,46.29187335557472 379.5440364874762,47.02246284387709 381.41212387493124,48.3634437867366 382.2484922471332,49.18372038752243 384.68527090756004,51.407499365284444 386.14962209704146,52.97434187249786 387.032420131944,53.87317400213005 387.3960710929704,54.35223583914095 387.79980729094393,54.8825144967361 389.4436480587652,54.21923360027016 389.85217141437647,54.052605903742396 392.2650142857948,53.12493547429594 393.3848631454567,52.790122813083805 393.87995907719727,52.687573818829335 394.3541184033615,52.637164470707596 394.4966949577947,52.62193784839943 395.1408272230128,52.59148460374212 395.9049844923267,52.657120574213 396.4369357713284,52.77887587615583 397.22029934849456,53.20666321605999 397.8740059293161,54.046203801179615 399.0964037831095,55.874205951851394 399.9439614156759,57.08062738760153 400.4582636551049,59.04486166670724 401.06225300705825,61.35509786738958 402.3311382003616,61.91582976960106 403.1578745803147,62.2218618075624 404.413897891847,62.50862986123092 405.40403207868275,62.86587871973553 406.6376768694861,63.06618955044275 408.05392577502437,63.39944494345729 409.2090150370223,63.840036488528 409.89634707558275,64.14762579468693 410.8608728523313,64.63626194726028 411.0210984461733,64.7692065095676 411.562566364133,65.27393443347508 413.3714198835979,65.47418758761883 414.7380092367496,65.57506396046676 416.6877666892412,65.61514919725 417.76926061017184,65.77531711461052 419.8632095620217,66.06537273444663 420.44799260628673,66.5139813268412 423.9726672900431,66.89528132744033 425.99936532657904,67.47527721394464 426.8545362702791,67.74116633851828 427.69442291506647,68.00232598189469 428.02767830804004,68.19461976527805 428.10773342831556,68.37560893512897 428.06447597865565,69.30004947497132 427.9892656926633,69.84313233769203 427.9107101638579,70.40069202690385 427.62232716530536,71.21139431216822 427.34034626947954,71.7817582065466 426.9461843871094,72.5827708230806 425.19033566268024,75.07895638114698 424.6632292181257,75.67331374097445 424.1713631759073,76.56730103620046 423.01783118218884,77.91947123938348 422.79669909878635,78.30884596391094 422.89284599068293,78.56516077292216 423.1796140443104,78.88076712644593 423.4359288532397,79.26691196141024 423.5096972244073,79.53764592034909 423.56091404474563,79.80999482408998 423.55929909998457,79.8661141556029 423.546494894859,80.34511831605032 423.45034800312635,80.65276529881372 422.9664990083957,81.53227576750764 422.0613224527642,82.04975021993624 421.75373314668724,82.39425254991974 421.4749244637381,82.82682704758463 421.3452097910759,83.58141000137707 421.3355777989909,83.63268449848381 420.95750768791396,84.45942087847786 420.9158075063697,84.54910799100229 420.34382866723024,85.42065908897682 419.83760115160663,86.30818660503559 418.86667327245925,87.68285068207456 418.49985009839224,88.10902307721766 417.71475622333804,88.89250200742882 419.59570549256404,89.82495959463601 421.7857436595012,91.06650607963624 422.65256527623745,91.52318939600012 423.58017802907943,92.07434698264917 425.52993548173504,93.12365736082953 427.3194673403847,94.22274264456448 429.4342952213294,95.68709383416886 430.3315124061186,96.19176408147189 431.40816149260206,96.85827486750097 432.10183795707985,97.04728108471673 432.5152638236199,97.03926403735188 433.3611488347798,97.02328761922666 434.85433832419847,97.12577893687667 435.41985738412967,97.28600453084165 436.8088829344918,98.18483666043285 439.7376429902641,99.88468140655804 441.70504948232843,100.99172606105337 442.03023015149665,101.17438785226985 441.9966046937577,98.96185581147678 441.8123856344256,96.42408542503402 441.7290429478185,96.36479388056243 441.4358727916282,96.15329378949072 441.1154216037802,95.92097244592858 440.31919614500697,95.56528085562158 439.54534920696267,95.21922125748146 438.71544061396895,94.63288094497787 438.1530937669145,94.12186627171653 436.8569852185989,92.18006818990328 436.8569852185989,91.95414894890393 436.9162767632344,91.50075319870766 437.0492790020642,91.32449351005398 437.6564405670582,90.66761471615082 438.3950471026025,90.1982425478703 440.0484621860271,90.09725082181342 440.76134495819326,90.08923377444859 441.637740890533,90.07804451408408 442.15844523252474,88.77068902888153 442.4179899311401,88.40749948060888 442.9802791015491,87.62038692460332 443.02999633058124,87.55146338800583 443.55225794085254,86.81931663150586 444.51678371743714,85.97337394382345 444.9797537832368,85.92371439147779 445.4011390204552,85.98946571511662 445.5629795592223,86.01507412536776 446.851071060214,86.21694222431356 446.8543009497361,86.21694222431356 449.6003415376465,86.6270228481225 450.5408161722595,86.69271649515687 451.83202220964637,86.85299976572631 452.5706287451907,86.72639962937731 452.7388713865205,86.6270228481225 453.4022099595909,86.24093568976264 456.40295041183333,85.00573363076171 457.425095111483,84.56514208573198 458.23256750710226,84.21585259798775 458.89106124588943,83.72560150061236 459.32202079871126,83.53821022819865 462.37409342474695,82.20841854570362 463.3433486824878,82.00978033636194 464.1668551729187,81.90077156294022 465.00478081323627,81.75819500850699 466.1630999649203,81.4313993946597 466.775164040843,81.35607375545843 467.34702752685547,81.31443125047761 467.95747665785314,81.27919084805957 468.7377256984602,81.33842471592669 469.1831044013326,81.47298422303606 469.22636185115647,81.4858461047661 469.99703657632404,81.71816744832823 470.9037703999073,82.17958024584837 471.7048983697731,82.59612064882455 472.6148620830424,83.0687227067092 473.40953027353606,83.41161009189064 474.0616219097605,84.20299071625772 474.61433676456613,84.87273139189091 474.74087922435166,85.585729517266 474.78730888705223,85.85323358664171 474.5870557329085,86.38674213379998 474.3580219556369,87.00036347792026 474.1128964069082,87.509820883025 473.40953027353606,88.00814670432872 472.95290463381764,88.28043793150614 472.6501601620239,88.61686553752033 472.63095385433553,88.63935941137628 472.3456853923421,89.20972330575465 472.0669343858745,90.55866361933357 471.82503872699584,91.73145959746773 471.6856343854393,92.40269986469406 471.34759183466406,93.28549789959655 471.24348557225295,93.9744448829181 471.19059613034415,94.88440859626934 471.58152812302825,95.79448766278853 471.6984385905649,95.98828103776502 472.2575555479333,96.4048214407412 472.6997620377651,96.6130916422088 473.40953027353606,96.93192788533669 475.7021751114141,97.4590343299322 477.6359561459035,97.84835137785518 478.5299434411705,98.02939822426958 478.48662831470114,104.51322853185104 478.48184115689946,105.12361998640819 484.34726296264085,105.23897318578823 485.1515631453834,105.25494960391345 485.17878650039563,109.90754787126 485.18034376867524,110.14788626218696 485.18997576076015,111.78203736127779 485.2029529956581,115.80503786641981 485.20756712368745,117.27417621378493 485.25889929731665,120.79244879497848 485.3165758970272,124.85386191549722 487.9840609562961,124.8922745309149 487.9680268614844,126.05543851692315 487.88958668596996,132.00414533254428 487.7565844469762,137.40007961675528 489.99956973246753,137.4561989482682 490.4818037824371,137.4809998861388 497.0761424551564,137.82146485409666 497.1322617865873,139.13995192305924 497.1161700152942,142.59258853386387 497.11305547889896,143.16295242820127 497.0761424551564,146.08202281524314 495.6614508178977,147.62487185700746 496.0027232581951,148.05265919691163 496.7173363284132,148.95143364989838 497.2860852780305,149.66593136690759 498.76641288567816,150.99093589164187 499.0756171365162,151.26651468494592 499.3287597327327,151.49399119414284 499.64759597581957,151.7792019796138 499.99999999999994,152.09480833313756 494.79151466460223,155.76044462656606 493.21342522046086,156.8114853027574 491.6866102734672,158.97112790164167 491.16590593147544,159.35721506000152 490.7573825758641,159.78984723427087 490.4818037824371,160.0804219435062 489.6983248523079,160.9065238809331 486.4776058487522,163.86885171771686 485.2060098555718,165.03836012968344 481.5114775855606,169.01643056363605 479.4303328388363,170.79644578332773 478.049324335798,171.8090161675379 477.3283091631811,172.0861522290395 476.78522630046035,172.14705871831316 476.33183055026404,172.1967182706588 475.0581581993229,172.6389247604906 474.55983237789627,172.92730775896118 474.0055025783295,173.2477012702457 473.40953027353606,173.60818001831342 472.7750876768844,173.88860364602363 472.09098552801004,174.14814834463897 470.8301173821945,174.47650122668384 469.7086535777715,174.77774610688445 468.7921724086486,174.88508225889964 468.5070192997821,174.9187077165566 466.38423204815894,175.15102906011873 464.50651266861894,175.3192717014076 463.76952107767187,175.38496534844194 461.5633911394416,175.5307717924793 461.481721074241,175.53555895024002 461.4047804901967,175.5323290606769 459.5255038425411,175.46023331103876 459.29641238846017,175.4522162636739 457.52764410577845,175.3833504036399 455.0059078139834,175.12703559462867 454.03497993483603,175.02765881337388 451.73276078151855,174.88508225889964 449.53943504841385,174.75052275183126 449.3920713361789,174.74089075970534 449.3407391623857,174.74412064926847 447.09619660894265,174.86587595121128 446.04204139631514,175.0036653478838 444.4543199599249,175.26321004649913 443.5635048776985,175.5098928633844 442.4676494835267,175.89280780874464 442.4179899311401,175.9107452312577 441.4823601309742,176.24849939905164 440.4137280918146,176.70028020444585 439.89786858427004,176.95659501345708 439.7119769033675,177.04795474738802 438.47833211256415,177.70483354129118 437.19185555649744,178.56675264705783 436.4516340760282,179.25091247261864 435.80761716393704,180.03110383666223 435.26130441169414,180.72801019074416 434.38167858966835,182.0561869284371 434.25675107464394,182.2436358774553 433.90105948445984,182.84445301645 433.274633935296,184.26877664583463 432.8228531298608,185.29732344817003 432.8067613585676,185.3357937401512 432.1450954067398,187.4745574099406 432.01215084455544,187.9024024264492 431.0380507523674,191.0585236382095 430.9980231920657,191.18673871931955 430.8313954956609,192.04548561212752 430.59907415205777,192.9057897731331 430.27066359336743,193.87671765236246 429.8876909713618,195.17599841363668 429.29817844610443,196.51057725389242 428.90084435069366,197.510343432977 428.4073633637141,198.344981507127 427.7777656015096,199.21976249466465 426.5504652366236,200.6217076033613 426.10831642343726,201.1279351188619 425.93690156906683,201.32340111524493 425.19668008876147,202.15809686595838 424.498216466318,202.96395431685755 423.8413376726198,203.68969897079472 423.1427586970494,204.4828098931728 423.09471408958774,204.53564165847715 422.53398218729427,205.13484385266977 422.06778223197244,205.67313955762978 421.9043267484443,205.86064618321143 421.75852030432503,206.04803745562515 420.9590649560296,207.07825687932606 420.6611076422015,207.47876318757255 420.32940951734355,207.92737177996713 419.82150938047744,208.71402292317796 419.6709734552018,209.04249115843177 419.1101838764269,210.32896771458044 418.836220027761,211.1348251654796 418.68049320865737,211.93266556901395 418.643983921105,212.12011451799114 418.643983921105,213.25438252753966 418.6567881262306,214.45601680552906 418.62956477105445,215.48300633966687 418.7529350177993,216.91846155281155 418.77375627041266,217.10758312319524 418.90358629620187,218.2466382905045 419.3985668748155,219.72062147223482 419.91932889345264,221.15613436198396 420.52164562416345,222.56603884148194 421.0552118479262,223.7435643007724 421.4941884480719,224.56384090159918 422.4201862561528,225.8728113316038 422.71825892327183,226.29575383714277 424.2786993280044,228.89598798109773 424.93552044522113,229.6746220769437 425.3472736905186,230.3042775157527 425.6933332886177,230.75450105294934 427.0343142315182,232.75230311310753 427.7200890017991,233.80495873410095 428.2407356673093,234.48900320645282 428.8159443959709,235.28372907359199 429.10265477311697,235.74831408411177 429.5688547284388,236.6903459868814 430.18893585168536,238.1002504663794 430.3395294534424,238.90772286203966 430.38601679278844,239.52768863215923 430.2770656959302,240.19898657594902 430.0863868573899,240.87034219638429 430.0239231000416,241.08818671341433 429.83803141913904,242.0799358451341 429.83324426133737,242.10877414498933 429.3237868563556,243.4321060483171 429.10432739452347,244.33572533566903 428.8030825141999,245.17042108642346 428.57081884740614,245.73115298863493 427.8241952643741,247.20513617036525 427.50218680824656,247.83796382221487 426.18519933083616,250.54553411814405 425.80066944071484,251.05026204205154 424.77050769357743,252.60268539937832 424.5013310028771,253.00642159722892 423.3366674252758,254.6966920277917 422.7470395465636,255.55543892059967 422.3753715380494,256.09373462551866 420.72201413143415,257.79842420605 420.16445444218135,258.37357525818913 420.0474286213538,258.5081347652575 419.5748265634692,259.0576774071045 418.83466275964537,259.83786877114807 418.619990455615,259.99653709691546 418.0496265612366,260.4178646576524 417.7596286180869,260.6325946383282 417.5209051717571,260.8087966503774 415.2682878943447,262.8563159394448 414.5425432404075,263.5259989384735 414.01226458281235,264.03389907538065 413.9545879831019,264.08834578548704 413.93215178589134,264.10276493541465 413.0093261908511,264.71638627953496 410.43470045714724,267.0154332198528 410.212011105793,267.26857581590536 410.00529817244103,267.50406937242616 409.433377009947,267.89182915219254 409.15624094824045,268.0792204245652 408.114832264257,268.7088758634152 405.7180234874864,270.4055483965817 404.4956256335291,271.1889696501884 403.7169915376831,271.66803148724034 402.5939127884991,272.29762924944487 399.76297224586597,273.962233593193 399.4312741210081,274.15775726613947 398.6029804727754,274.660754892036 397.80831228228175,275.19270617099664 397.0665335335329,275.50191042195763 396.6307291462639,275.68457221317414 394.3541184033615,276.9212161872047 393.4810100371894,277.3956062196638 393.0532226972442,277.7961702045148 392.79529294338994,278.03806586363936 391.8019288670321,278.5250870714516 390.96723311607275,279.0169531135881 390.2943202275628,279.37425964869715 388.02249664229817,280.57745119488413 386.9538646033025,281.1654641287533 386.00866048753323,281.7806427410712 385.4062860803409,282.28692793313525 385.10509887666285,282.5881151367314 384.4946497455012,283.10397464439893 384.39371569613076,283.1904895439237 383.88743050386176,283.7929216277205 383.51253260598935,284.3632855220579 383.4052541305376,284.5282982737836 382.8428496070016,285.4046942061233 382.8172411965865,285.4799621687201 382.5288581981979,286.33547917196495 382.1988326947465,287.2519603410469 382.1795687104127,287.33201546144545 381.91679412227523,288.4022624453251 381.692489825996,289.3202432060412 381.54033895612326,290.1773751540471 381.21988776811133,293.30477341916105 381.2327496500463,295.6854904246385 381.1061495136153,297.37731812343986 381.1382177030747,299.4393142390393 379.870889777887,299.421722876112 373.77960640791457,299.3405719003516 372.77349580291263,299.3271332526179 372.37293181797975,299.3223460948572 368.4797613387498,299.3223460948572 364.10597175431144,299.20376300587304 358.5769775547481,299.0131418438962 357.26166269858027,298.96826944935225 355.1340306126739,298.80804385538727 352.8285815696703,298.55968841709546 351.4411709640692,298.5661481962627 348.7111644708066,298.88815665234927 346.703672741959,299.56902891174246 346.2903045519005,299.82874664013025 345.29855542030367,300.451826946604 344.6977959578725,301.2545121845445 343.28154705249807,305.39598042542076 342.4387765777334,306.4261998491217 341.6761765765351,307.36021470456745 341.1955574713266,307.74474459468877 340.800357410322,308.06035094821254 340.471370085669,308.323125536391 339.86899567847667,308.323125536391 338.32280139385836,308.06035094821254 337.9833169280944,308.002674348502 332.9542058180734,307.58290405596273 332.933499918587,308.06035094821254 332.9173504708123,308.4352488462079 332.71231015886684,309.4910190035965 332.51840143064044,310.4859980248794 332.473586712701,310.88973422273 332.46072483092996,311.01310446947485 332.29732702404726,311.12205556629215 331.007562901813,310.88650433312586 327.1881031169413,309.995746927504 320.6069147090564,308.06035094821254 320.2637389409346,307.9593592221557 314.75083651250054,306.0672783692516 309.9140191857809,304.35941657576154 309.2811338574088,304.07103357729096 308.00584656137875,303.48792315443245 305.21014642124567,302.3054951841314 303.53112292756987,301.59572694831945 301.1231248904348,300.50950354631453 301.1007463697058,300.49831428595 299.9856269912002,299.99525898344905 298.85291624993124,299.54180555668927 298.2264907006034,299.29027790539783 296.82621821339524,298.731103271384 296.4048329760129,298.5613033618975 294.58006071502723,298.1768311483397 292.51650733106624,297.7410267610707 290.6836026696297,297.3998119972958 289.052681460061,296.6259073826471 288.03047908376595,295.9290587051696 287.2214494198671,295.26900769826676 286.49570476592993,294.67297771707376 285.62894082567516,293.932813913209 285.4511238689058,293.78054769000437 284.28317272513686,292.69432428799945 282.4712046691128,291.36620522691095 281.1029426947186,290.72530285113305 279.22845320470077,289.99159882643545 277.96274022443805,289.75927748287336 275.9600933298737,289.3250880404064 274.0327720745925,288.8252049508641 273.3742783359693,288.6537900965756 271.0687716164842,288.1394878571057 270.2036226209905,287.94557912896124 270.11393550846606,287.9872793105465 267.201267223987,289.3250880404064 265.00632654612116,290.72853274069615 262.33884148701617,292.43477958938416 261.31185195291937,292.6462220038924 260.93533911012196,292.7247775326568 259.849115708199,292.94908182885405 256.0760855860279,295.9899075178388 254.64864742028905,296.568288459541 252.60430034418036,297.14666940124323 252.6427129595571,297.6657587984739 252.68274051985878,298.1976524008301 252.7003895592676,298.4219566970684 252.7148663857997,298.62382479597323 252.95191721055906,301.77037169217107 252.8750343031602,302.9656038675977 252.6427129595571,303.34690386815583 252.00031099222699,303.89483156524176 251.06623846017678,304.4283401124 250.16261917282483,304.9435651774594 246.23582323601994,307.18234007111175 245.27568088088285,308.06035094821254 245.05662515524102,308.2606041023563 244.35810385631606,308.9046786910929 241.5543866686952,310.3577829437693 238.47030353000957,311.7067809339527 236.15522249492105,312.74813194141365 234.63965448477342,313.7607023255828 233.67189881850274,314.56978966608614 232.01692646696247,316.2664621992117 231.00920091719948,317.6923430967939 229.70986247936176,318.7849686013616 227.40925827080534,320.64832650761934 225.49947070180602,322.0661326812733 223.63940036167486,323.11555841266255 222.24397270891387,324.4004200240092 221.5854789701267,325.0461095575478 221.0215171783111,325.75109063559904 220.49608335499917,326.4800075024949 218.43570218424276,330.2610546719489 216.745431753721,329.5849695703574 216.28569157760737,329.3766993688488 215.6512489809557,329.0898736385758 215.22028942813384,328.8944076422338 214.32301456669924,328.29203323504146 211.11238896822812,326.3102075930085 210.61729303648752,325.94972884494075 208.70762082061518,324.5590883497765 205.9343568776926,322.9169202033209 204.93459069860802,322.30006896963744 204.31618219660405,321.8579201563692 202.09880532136384,320.2744667884224 201.95144160929283,320.169206994004 201.69351185543857,319.47068569512 201.656598831696,318.736923993818 201.95144160929283,318.0768729869562 202.09880532136384,317.9295669513257 204.15595660276202,315.87391526172553 205.5898545477091,314.71559611008246 205.58339476850088,314.45443646670606 205.55299920044803,313.0269406243218 206.76582273880194,311.15568102390813 208.52980386384587,309.90923202793823 208.7925207753379,309.58237873748647 208.93988448757284,309.40288915922866 208.967107842749,309.31002983374555 208.967107842749,309.20586589468905 208.91906323512342,309.1001446874759 208.83572054851632,308.88062754903933 208.73161428610524,308.5105168088047 208.70594819920865,308.2173466525734 208.70467931399241,308.06035094821254 208.69960377329133,307.4691081247803 208.63229518149586,306.9805296487704 208.39201446705042,306.4950657091557 208.28144842559504,306.4742444566653 208.0250759398564,306.4373891094862 207.57329513442122,306.60563175077505 207.28814202555475,306.6985487528626 206.66967584706927,307.0557976113672 205.6427439896179,308.05550611384734 205.63812986158862,308.06035094821254 204.74391185990376,308.99119359065867 203.64967141065694,310.50520433256776 203.28757771774616,311.0067023668711 202.6002456791857,311.9551363722445 202.37438411495475,313.35373623816906 202.27662227829708,313.9529961089662 202.09880532136384,314.4427857935469 201.98345212210674,314.7604685046674 200.53830724014972,315.6960983048743 198.437956185901,317.05467061062006 197.68337323202658,317.7708409489948 195.25293899768099,319.61649213915734 193.6732346086146,321.3772433745562 192.71516861123823,323.2837433773879 190.84385133409714,327.3595756478343 190.63240891975283,327.68798620648363 190.4401151362875,327.9171353370461 190.30555562934205,328.07897587577213 189.74955320820487,328.63486294361843 188.95978752863985,329.9101502394026 187.38002546309193,333.0310887253493 187.04521280183883,334.47784855202644 186.89784908960388,336.0559379962088 186.53414045193205,337.0284808202402 186.27298080855562,337.528306233137 185.72989794583492,338.17076587711256 185.40304465542414,338.4639360333439 185.25077843226052,338.5792892327239 183.15844442517172,340.1765849846356 180.6543571729494,341.72427886076514 180.67679337032382,342.2785509838094 180.6975569461278,342.82174919969805 180.70880388313776,343.08763832427167 180.7280101906622,343.59398119298123 181.2567315801417,343.74780468434244 182.16669529341098,344.0136938089571 183.7399975799146,344.25564714464514 184.73336165627248,344.2925024918652 185.83556147652556,344.8067470547307 186.8321554425695,345.6334257580793 187.27591920051694,346.142883163184 186.71374538339876,346.93230278316327 186.18485096431075,347.6745429446248 184.42409972878897,350.1482923053988 183.01748281549956,351.92017512455766 180.98593994451645,354.1151158024234 180.13365283095766,354.9193583085615 178.4753929130859,354.57652859998456 177.52857385255555,354.289760546316 176.04663130014683,354.40672869049814 175.24394606216532,354.6854796968018 174.43647366654605,354.96740291610513 173.37585867471032,355.2670328515037 170.975877685063,355.617937284009 169.8736201883284,355.5810819368299 168.22020510490378,355.8022140200275 166.75106675762063,356.0216734818596 166.64511484386668,356.12416479950963 166.34087078060276,356.418949900543 166.0524877820502,356.8643862799789 165.50138787200564,358.0034991238926 164.9870856325767,358.93751397929736 164.5770050086858,361.26539921947045 164.53213261410085,361.5153119259599 164.21491131577503,363.30490146117296 163.77431977086823,363.7823483534638 161.75240889197005,363.7454930062437 160.32174083654513,363.48756325243045 159.65361510583693,363.3674228952487 157.70224270842027,362.9236591372193 156.88681094195866,362.73136535383594 155.1243870851943,362.1690185068634 154.44189988091705,361.94154199766643 154.0349914702307,361.81240409096694 153.23069128748813,361.5570121075042 152.21177647736064,361.34072485867176 151.19118904566267,361.25576722734456 150.47178881780675,361.11157572810924 149.37114626583323,361.00423957605307 147.5848442968697,361.00423957605307 146.18451413285217,361.0763930022957 144.18509712797385,361.24302069878246 143.04442701586254,361.6515440544348 142.88893090301286,361.9495013684268 142.87618437453273,364.5177249995269 142.99632473175546,366.90334451597397 143.04275439445604,367.3694867946914 142.9178268794316,368.5919423251712 142.72080361497393,369.18318514860346 142.4932117525271,369.9009127551758 142.23049484087113,370.42634657840574 141.49990535265073,371.76415530826563 141.41021824029022,371.796223497684 141.16353542328199,371.8234468527372 140.44898002970928,371.65681915620945 140.39764785591612,371.64557221928146 139.7985033384099,371.44214685217906 139.21210534921985,371.17937226395964 138.64174145500542,370.99999803891075 136.48682833727742,369.7422444294494 135.3285091855934,369.02128693327296 134.83664314337494,368.793810424117 134.15421361590708,368.61437852246365 133.13679839741368,368.31642120843065 132.0842004529018,368.1129381647238 130.93868550634335,367.9062252314538 129.35903879408633,367.6867080930172 128.7149642053497,367.6322613829108 127.7056237106617,367.7235634401963 126.79560232074698,367.739597534926 125.01085761989906,367.66750178532885 124.2930723366403,367.704357132508 123.97590871495991,367.75886151921884 121.10961241669986,369.447459328416 120.8164422603456,370.0338573174831 120.74278924263282,371.3924872998334 120.84049340264504,372.8311724025412 120.85329760760668,373.00743209119486 121.2938891526774,373.8149044868961 121.84187452632679,375.0420894985732 121.95232521481913,375.7759088764387 121.65759779034924,376.91496404374794 120.81482731574846,377.9419535778857 118.46294861004431,379.1179217690196 118.41328905765766,379.4415451698672 118.72087836389856,380.2186219975156 118.53665930440255,381.17345810545174 116.40741227357113,383.56865193746125 115.55512516001237,384.3088157412851 113.71904828537127,385.9237605326876 113.27684179537556,386.14483493932175 112.72574188549491,386.12724357639445 111.48408004720379,385.6898242443234 110.4411140951047,385.23648617077254 108.24455847231391,384.4562371301245 106.8362689377819,384.01403064029273 105.97111994228818,383.97284954810664 104.74716482021523,383.9147115356014 103.41893040595879,384.0508859874718 101.98664740577279,384.74779234155375 101.25132843623219,385.59217776103856 101.21441541248959,386.1512370418845 101.33934292751402,386.96834142971164 101.51727523741029,387.8383352594476 102.16925152034379,389.38112662464846 103.2266942991389,391.3901756216937 104.59489859705161,393.3448355852779 105.1459985070962,394.46151223194016 105.49205810535925,395.71119111747316 105.53375828690355,396.2975314299358 105.42959434784703,397.1770995752342 104.8817243273246,398.54368892834486 103.56635179467524,399.74855309589736 101.9497920585117,400.86840195551827 100.29637697525101,401.72876379312834 99.64751522871269,401.9114255843448 96.91589379068897,402.68365757762797 93.23260845768776,403.49430218632887 91.35973391243104,403.90599775493985 88.56980143225262,404.1880363274111 88.18907819761617,404.2264489428288 85.83402727903531,404.2552872426431 84.48820150168767,404.27293628217484 82.69059491906873,404.2168746272664 81.14618860914779,404.2376958797568 80.44760963374131,404.60457673038735 80.26500551917029,405.22783006667447 79.67705026186464,407.5780938275356 79.1627480224357,408.86307079205017 78.42737137641357,409.85314730236337 77.32511387951504,410.7936219369764 76.25169468271767,411.44242600691024 75.29685857486345,412.17624538477577 73.97508393965131,413.90175621775654 73.25729865655647,414.9270731304878 72.12464559176902,416.8721011019052 70.05307516064812,421.072860887294 68.67200898096439,423.7227545835537 67.49765573463263,425.22713333333684 67.11474078927243,425.7286313676812 66.92729184025426,425.9721419715668 66.28644714120374,426.81168255668643 64.7708214542467,428.4009612611923 63.779072322649895,429.46636341070683 62.52945111368035,431.0076551842736 61.68518104744545,431.99773169458683 61.14521272111992,432.72353402512846 61.09716811349435,433.3018572902262 61.06827213707561,433.64151478584455 61.095091755897556,435.383059713555 61.12439146867049,437.19502776945615 61.060312766397196,437.4257341682572 60.51555728226996,439.3979854947277 60.464282785122236,439.5805896093397 59.39732336753308,440.40253883153207 58.554552892604434,441.0497279567048 57.90730609099112,441.5685289709132Z"/></svg>