<svg xmlns="http://www.w3.org/2000/svg" width="500" height="500" viewBox="0 0 500 500"><path d="M51.634280061472445,497.32165896707335 50.551910215159054,497.32722538380494 49.53305715944476,497.3300085921707 44.01087359729812,497.3519760580368 43.68225621178142,498.7685297065279 41.6224832341804,498.99208097699494 38.80895779578269,499.2986314964099 38.35599063726849,499.3483316454863 35.74404900347179,499.409065227649 33.94381020419802,499.35658187020675 31.903320884474265,499.2958482881147 28.070842989985284,499.33998202045956 25.867535981886476,499.45051515193444 24.28538143651331,499.2958482881147 15.84460632113124,499.69623268895094 6.650178145329452,500 4.085054051795808,499.8288326865982 2.2213978622999204,499.89225007682035 2.032437895686659,499.8974188923265 2.1091749256878156,496.0847216572466 0,496.020707865257 0.01789205372967847,495.3369332144775 0.158742276026756,489.98541996427156 0.353169259135895,482.6004748153155 2.444949132978902,482.6338733154932 2.9247543718051054,463.2869968903618 2.9347938019691204,462.88094667248765 3.108247322205002,455.88227108206746 3.185481353808516,454.9915450106386 3.890925269817591,423.37747899368765 15.341342611702506,415.6635188579896 14.61224142490198,410.7223300384069 14.094266471546632,407.1517719295975 13.838708304908177,405.4799583154576 15.346809628198384,392.21856694191985 18.224150058043612,366.9303358974601 7.360492675572561,366.0966655970711 7.950334044695031,360.91303945036947 9.826216470670772,344.41587017203807 9.933071791446485,343.47773015836685 10.090720664174066,342.08662298618145 10.192307768642825,341.266471126396 11.868395595673036,326.3065274585009 12.09393487219642,324.31822329522976 13.27958162797457,313.85693831972185 13.387331551295512,313.86489034359386 12.26390938178083,324.31822329522976 12.052286147298316,326.28744260130696 29.285812834087224,327.6793449758725 30.504957490349405,324.38621309911997 30.530105765947926,324.31822329522976 39.50167847342704,300.01097379287415 39.08688102944198,299.8994466584065 39.165506665193085,299.68822102486683 30.296117464162062,299.05026991156944 30.288861242293216,298.7424271882427 30.456052543864967,298.74024038171495 30.454561539340407,298.96985507037476 39.19482975323436,299.6094959888094 40.144500201382236,297.0555047288802 40.22809585202686,296.96763486534525 40.30622448645811,296.9191275198037 40.396479956992245,296.8859278202387 40.49349464807538,296.86972557164626 40.59120514123231,296.872210579093 40.65661053729884,296.88264761041177 42.906933886414656,290.7877195304922 43.764261457807024,288.9862879276836 44.536899975255594,287.3631804596273 47.09158703711733,280.68457382915494 46.924892737147935,280.48299002455394 46.86614716097092,280.5155933223515 46.13187715880544,279.6356024830899 43.61188080082137,276.6135352192826 44.180152305091255,276.3114577133001 43.87688199564451,275.9373149911497 43.3160655134324,276.2358140864569 43.26069954752988,276.16434527212704 43.19628815410304,276.19386716063974 42.25804874026676,275.0243232529358 42.5472042074837,274.8971902716431 42.44034888727302,274.7541532426771 42.143539596679325,274.88088862274435 40.06925417562313,272.2961826706969 37.96127205332895,269.61466082824967 37.88145361418422,269.51446532778726 37.57043008126627,269.1179575385454 34.54319400188215,265.1717657031316 33.0406590954648,263.23674009961223 31.55730844683024,261.2076818140588 29.636994087378714,258.3108589259355 29.295156461894933,257.78552835033435 27.811308811658023,255.50369510664953 25.91037751046073,252.5173125499246 24.553861641987922,250.2647029939041 22.775292107661212,247.18130574616671 21.91448552589988,245.5904039747533 21.19015555352144,245.82538627946136 19.82369965526159,257.80004079386015 18.43259248300557,269.97886352061306 19.332264581369838,271.8119044182264 19.6314594787508,271.8202540433238 19.630763676394494,271.96995089225 19.267256786246175,271.96517967796916 19.257416156836108,271.8997742817614 18.321661750164075,269.9926801620651 19.71386232600178,257.80004079386015 21.088866649618577,245.76186948900352 21.870749394780397,245.50810052787926 21.573443102866865,244.96010668433823 21.250690335071422,244.18279635305643 20.989168150899758,243.55061045696206 20.132337580827233,241.48467466079137 20.069218391453514,241.33249280441842 19.326996365627906,238.83535851498692 18.982574332602905,237.67654983952076 18.742423212247367,236.40889783757578 18.67562621203325,235.1876657748097 18.693617665857392,234.05231556966356 18.707334907144315,232.89817870824254 18.809617813686867,231.39961981372588 18.947983028819696,230.13316061538637 19.51754673686019,226.48536847490283 21.05646215243372,216.61998828663945 21.240253303682024,215.60441544075206 21.48616964138185,214.6694562366014 22.19529136823132,212.57598655790366 22.67271099998774,210.9164985807619 24.728905566842823,203.15333529744842 24.631692075288253,203.01288267623548 24.591037353594864,202.89549092411715 24.61260721816494,202.72621221646529 24.754252642912782,202.34968388717445 24.86727078197565,202.21330667816855 24.998578575711072,202.14223546499343 25.134458783397143,202.08100488136967 25.636430288772754,200.81941629761735 27.686263236586733,193.96417533731793 28.27053818883635,192.01254988405134 28.78165452183075,190.3851682031754 30.48189662125477,184.36648015193714 30.55227203221482,183.80268166102906 30.48497803068086,183.79731404491017 30.495415061787746,183.68996172295584 30.56091985823125,183.69413653546923 30.57135688962065,183.57147656753835 30.506249694402527,183.56710295448292 30.516686725791924,183.45935303130324 30.585372331755984,183.46392544497138 30.798884171988437,181.6820757008884 30.9435116057854,180.71431439839813 31.09320845457034,179.9055935728537 31.352444432331705,179.1391178740454 31.600149975121983,178.46130724115224 31.983139323901515,177.45537622413286 32.293765255594074,176.73969407770022 32.632819672217664,176.02957834792855 33.00000437348889,175.33814987419606 33.763001061998835,173.91672561104718 33.85951875147961,173.7372086726186 33.88297722179963,173.60112966453173 33.87522399861094,173.51693761197842 33.85991635270499,173.38881062769292 33.84440990632761,173.32688424199534 33.83118966636054,173.28742232362495 33.80604139104452,173.23921317907306 33.76568486991703,173.19438364458378 33.69391785480939,173.13205965766082 33.61111740633303,173.07212127787827 33.530106163512144,173.01824631628844 33.448796719560335,172.9771939932284 33.263514563787474,172.89588454934724 33.07495219839959,172.81755711444455 32.88768203678233,172.7253136377835 32.834105275970266,172.6905235333876 32.771880689424286,172.63416356435098 32.73053016537459,172.5939064436711 32.6925592515994,172.54470329605573 32.66184455941053,172.4945061455182 32.64106989700871,172.44341439229413 32.62456944770913,172.38536461819092 32.61572282122126,172.31886581875457 32.61572282122126,172.26330105209811 32.630931066750236,171.83071095468972 32.657470946496346,171.50268997086982 32.7368917844157,170.07321428354263 32.71144530825128,169.37711399583566 32.69305625291924,168.97822059945335 32.61810842800854,168.1280498496235 32.56294126257745,167.7803476068422 32.53759418679001,167.57717339748092 32.51632252306835,167.30551238269763 32.493758655293554,166.93027625724807 32.47397799581393,166.42393113867575 32.47348099449409,166.15167372212503 32.507774097428886,165.4533866278197 32.53590438151151,164.94256849574433 32.56900468105267,164.64516280373635 32.594649957971036,164.48005890859784 32.67098938702932,164.03474557303662 32.79384815521974,163.43605757742628 32.87128098757721,163.10972639867302 32.92962896252884,162.87027108053255 33.01054080525527,162.59065804187725 33.207452795811164,162.00697949132444 33.36758667598551,161.62061053255294 33.50277108159778,161.3130660101452 33.76369686407263,160.78206961757672 34.07601260076118,160.1876558347861 34.38673793283072,159.53568927942402 34.54518200772655,159.2629348614122 34.65710674349025,159.15081132510642 34.74587120978234,159.11105120588763 35.830825463636955,159.0431608022331 36.088669837250734,159.0186089286139 36.24194509678161,158.99515045822326 36.393132950091115,158.89624716160205 36.52125993458849,158.65102662618793 36.620660232741415,158.4613708573596 36.86975737967928,157.98613803198964 37.38137071399352,156.87673130468093 35.73470537538156,156.61202831077682 36.287172232425654,154.26170826174064 38.08999543952315,146.55102833586943 38.82844025413139,143.4294613736029 41.268518772593744,133.45225585002342 52.299367456071515,135.27118190533636 56.71761130733468,135.9510799444509 57.127239935954776,134.81235012917153 51.89659744837739,133.99677068312488 49.76823826490677,132.64870383998516 49.87469598417459,132.3609399769158 50.06315894946801,132.414914338812 50.00848878563929,132.66003547399043 51.941923984115896,133.91416903540247 54.452278513161325,134.30570680968017 55.64200068157028,133.48843755849626 57.020682816309986,132.4621294804417 57.46042973513961,132.10876142062247 58.508904079743594,131.28274494318643 58.86286854161277,130.2456022325877 59.42925144013271,128.58661125697765 61.42749563326154,123.32525407707014 61.467454553163655,123.22038676256261 61.48892501763927,123.16323159114586 61.53236294791034,123.04643624086562 62.000935953178896,121.79319728214008 66.71887170342538,109.75075176446371 68.97436386790615,103.71695486786159 68.68341919531623,103.4010607204271 68.62039940631948,103.03099341055434 67.76307183492712,102.65426628065083 67.56705444691644,102.56748982041503 63.41649559867713,100.74220214599035 64.48286199701079,98.1606770035341 70.40324315346592,98.76035900206664 71.06952335174114,98.36862242717622 72.08042438351279,95.80797134728688 73.54488897577798,92.20888535288694 73.630472632267,91.99378310775296 76.02433001216312,85.95680540163028 76.28863540491247,85.38664529161045 78.22276640546286,80.55479679996776 78.56380882849588,79.73792515000923 79.00584195430083,78.82244840427792 79.99735992810076,76.9121734749904 80.58322528525193,75.81747799174956 81.12028509601309,74.81383318163485 82.15961461299828,72.81867039772023 82.70273784195216,71.85011389284983 82.58375568507357,71.67994058244085 82.49061760586729,71.4300482329816 82.44886948059221,71.30639426212852 82.45195088973578,71.22568122008542 84.65565549934249,67.0511668998531 84.78149627658203,66.93466975049189 84.96180841746138,66.80077754886211 85.11836388688978,66.74660438642387 85.28933239967891,66.73398054857738 85.5024466389685,66.7273207285466 88.34420176210831,61.278494586479766 85.95610959955648,60.17823268657795 58.917339904687545,62.28681121056894 58.86286854161277,62.51573009715494 55.70243606274329,75.81747799174956 55.19151853050284,77.9635304281959 55.93771656829977,79.88344718642205 56.309970684841495,79.99268811405565 56.197648347852414,80.15510820120532 55.92071911739783,80.11186907154695 55.82897264233914,80.0998416354679 55.81306859473638,80.02439680916672 56.1758796828109,80.09894703278141 56.235420461156174,80.02439680916672 55.846765295691846,79.9155534827585 55.02870084212779,78.02744481987912 55.55870323177407,75.81747799174956 58.83016584357951,62.17588047786871 58.86286854161277,62.173395470421944 85.9691310384871,60.1271409333539 88.3734254494901,61.23465905498331 88.85949290726295,58.25632792236614 89.2067975489601,56.12846574049788 61.23386385260317,58.31278729170909 59.55509221765477,58.103847865074144 62.268123954600384,43.781557109628 62.49525363574279,42.58577152323823 62.000935953178896,42.53110135926825 66.60982957605131,18.77194510083071 58.86286854161277,18.188763551739008 57.990332724691434,18.08807104974485 58.02313482281916,17.746134024237236 58.16706645482484,16.24081590945408 58.86286854161277,16.404627600751333 59.23561965947434,16.492099863131553 69.26411573681992,14.399127185894908 72.33995856184006,13.80272539711864 108.67066812491376,6.797787587893018 137.7729880088836,0.9524536565843049 140.50639680672313,0.40296880858932915 141.69651657607497,0.08767106292228369 142.02781776979236,0 145.90999581321657,1.015970447112779 147.14414991453629,3.2718602129601893 147.19394946413098,3.360227078026893 151.6089131054966,11.433618691736925 151.93196407442298,12.021869655957863 153.75705294816433,12.286870850781002 155.52419144817944,12.930189580197302 156.1426601029869,13.15393965127709 158.785117628501,14.114842333265134 160.1849720265854,14.62556106496352 163.40713209068102,14.44336031854612 168.7057643824312,14.81601203617197 172.05495802715998,15.431796883061216 174.7609323429907,16.174515910630436 176.1194362173079,16.668734192887985 177.29554054480693,17.458469561474217 178.0355757643167,18.132204782089715 178.44421038973206,18.493823066699978 178.82799494096238,18.83079007731407 179.16486255127012,19.090224855405616 179.56524695217698,19.396775374820514 179.96006493621098,19.562475671797078 181.71895321143504,20.06226037071559 182.8924731311103,20.666912384212278 182.9751741792097,20.70836230849769 183.39772484638345,20.998213577859058 183.77325917254018,21.288164247456145 183.9278266364067,21.569864692332814 183.93051044432488,21.757532455175465 183.94432708570628,23.248536927045503 184.01897670976857,23.822871849578707 184.26469424671444,24.57105789350255 184.7036459630933,25.631360873572888 184.8941963346081,26.037311691070077 185.0074132741424,26.120112139405187 185.7501323018529,26.418313033793318 186.52605102891647,26.664030570739193 187.4399373698875,26.84901452559302 189.1987262447346,27.067198179941215 190.10714556920976,27.158248852996742 190.39441243095928,27.18588213590077 191.06526504290264,27.166598478094137 191.43244974417385,27.00089818111757 192.8490033928768,25.694977064407706 194.35660771428215,24.424740654709595 195.11870979996434,24.115506327235245 196.31698039373023,24.082406027976596 199.66060762215122,23.985788938189476 201.77843037385546,24.430307071370564 204.0259705146761,25.00732580196322 207.80318184307453,26.77178049391888 208.7336680340046,27.205165793707405 213.5104487605226,28.58295332597251 214.15108368187944,28.748653622949075 215.97060613903045,29.223588247399988 218.67926426277936,30.10715749740754 222.8154100679405,32.22219704081662 224.5300652104427,33.10298308245838 224.63771573338667,33.15815024788946 224.5300652104427,34.26735817465612 224.3893143885226,35.717807324856594 224.20423103322116,37.609096797185884 224.5300652104427,37.97051628118346 225.97683654973216,39.57503589343621 229.25992899632064,42.59302774503645 231.0931686947586,44.594750948604876 232.3744385374723,46.364672656915154 232.07892145121423,46.81465780652149 229.0776288495969,51.395321744863686 227.7495414663376,53.264643751326886 227.50939034598207,55.95401821726917 227.46784102146094,56.426169633354284 227.35462408192663,57.69352343438025 227.36844072330803,57.69908985111185 231.06563481209025,59.33362835340905 237.40250321752646,62.10580326775707 242.53533581213495,64.35056020021192 245.50621192241184,65.55718041907521 247.0358831099896,66.17843228231906 248.16248608902484,66.64789989034473 255.55409105772915,69.72095950706971 256.63636150366557,70.21239458103209 256.7357618018185,70.28416159628098 257.69934829200724,70.99099711622576 259.79778798545726,72.5344849453968 264.2710996017745,75.81747799174956 264.42546826488706,75.93069493135448 272.75580964903,82.0133967745823 273.00431039455356,82.19569692130605 276.0360194872288,84.37693706330306 277.7617080630998,85.64429086432902 279.227862460361,86.71841048585138 280.2715655905429,87.59641331912734 288.1904891409753,93.23191322118525 290.3782897024142,91.28645058634709 292.4356770732279,89.29665541855135 293.5523400221936,88.37451885285991 299.81237199725166,88.61715498059156 301.7224481260677,92.45122327969958 307.36361384509297,91.59280230514929 316.71091967920023,90.17038403900759 317.1222381128163,92.93639613485657 319.0619355305221,95.94554135989831 320.8251974189429,98.17787325504874 321.8244686159315,99.24563125745935 323.1174676940877,100.84697006026218 324.4989330371226,102.47276133630723 327.96661183741014,101.93908113567929 329.1157786839376,101.76095580146892 330.57368285669025,104.86989892581835 331.0623347220043,105.91101764831777 329.4085125619005,106.64817025915539 330.0131645756091,107.54555615061497 330.96015121555627,108.95087756547775 325.59253511699364,114.04792605255628 327.80140854196526,115.88136455139504 330.51563308258704,118.30007200554687 330.95468419934286,118.64518984064566 334.7870626931724,121.66318169217527 336.25331649081056,122.58810146623252 337.76638782899425,123.78090504371443 342.47686855661794,128.20143510174103 344.4566242943203,129.99899009295532 345.35122697741406,130.8935927760491 345.9834128735084,132.1029962032782 347.3253168981491,133.39231747024087 347.42193398800686,133.77888522962508 347.67053413362487,134.7868042525595 347.9631686112108,135.97950842973506 348.45182047680737,137.9564809590716 349.33260651823724,143.9647319789911 350.04222524668904,150.5526855376333 349.5369735311334,152.81135851184652 347.5130840610862,156.76798737850842 347.3723332391661,157.70672379401768 348.05322528127346,158.65102662618793 348.2503360723008,158.92447684627354 349.4624233077306,160.83236616842063 349.09523860645936,162.4614376543632 348.85777129430454,164.25064302055074 348.49048719265636,166.0176821202595 348.58988749080925,167.22986875578377 349.83249061767395,169.8170597153486 349.8849739749043,171.65596523054197 349.79929091803837,174.22933954865476 349.7800072601611,174.770474771623 349.43757323298047,176.74466409259372 349.40993995021773,179.13852147227797 348.43532002722526,180.48042549691863 347.30325003197663,181.70642877389488 344.73812593872555,184.60832107728868 343.98437347792884,185.78452480495278 343.69720601655627,186.2291423384402 342.8550866909754,188.17569837657754 342.3276687091529,189.89591993581138 342.0100847567224,191.16049052854217 341.19559871390425,193.13199604145345 340.9582308018439,194.4739000660941 341.6084081517624,195.7307174355656 341.98533408234925,196.4591228202217 341.43306602605907,200.35223489642576 341.22044878837187,201.89015630893584 341.19291490570356,204.10737935886362 340.95544759354874,205.31399957772692 341.2729321456022,210.49663172150636 341.416565576477,211.45475119505798 341.4552322926085,211.70603514873542 341.9329501252133,212.87945566803373 344.25225728142414,213.23839014458454 344.7519425798244,218.4321551216859 347.33923293990745,219.94234385105622 348.23651943091943,220.5995786222309 354.02658679656133,224.09787271433032 360.2717087269388,227.86961702651539 362.75721318123414,229.37155553116528 371.6838569542001,234.7641211045725 374.24898104745125,236.31307595016878 377.8964749870158,238.726316387966 379.65526386186286,239.89148668254387 381.34506893018,241.2417403322113 381.45918047225956,241.48467466079137 384.8102627227383,248.62489627579436 385.7462159301643,249.6492163479339 386.1770168221291,250.6736358203798 386.5498673403676,251.5655546954141 386.5000677907729,252.56502469301543 388.8994915872594,257.15672206444384 389.40752651082767,258.1286581794475 390.1972618795551,259.2913434665786 390.2552122532814,259.3767283226668 391.33201568300444,262.2096368191069 392.0416344111738,263.6371245004484 390.1972618795551,264.8420549142451 389.90731120988744,265.03151188253133 390.1972618795551,265.36062626957977 391.59711627792205,266.95043463776466 394.07934052260237,265.49541307382543 395.2693608918597,264.40200979449645 396.63621439134494,263.84149151341524 399.7507239324966,262.2455203267313 402.3985490735646,260.62479846588616 404.0883541415992,259.60037899344024 405.9162262239183,259.1365772023819 408.6663342720939,260.2630807810402 409.8839879238315,261.072099807433 410.8228237396471,261.616018238767 412.3166114199536,261.27358421172767 413.6694494773035,261.1383004059503 417.0905095377994,261.7347021947266 417.92437863858925,261.88101943351955 421.45318862240606,262.98545614593473 424.66978226962885,263.755808456408 424.4075642831009,265.02872867416556 424.25836443563577,265.76041426864856 423.5129616000071,268.3448220197769 422.94966011063076,269.46585858200996 422.9386266775445,269.4907086565482 422.25385802356027,271.18598074100805 422.7369434725665,272.9088861083013 423.5212118247982,272.71565192879774 424.71669921026887,272.4202342427754 425.00943308823173,272.2821672286322 427.2846065120977,271.2053637991211 433.5715759678447,268.5712558989162 441.83849996204805,264.9127285262654 445.08819390852943,263.6730080080729 451.4553794049291,261.67943562891855 453.97080334924505,261.0499335409542 455.9891264024194,260.3293807798638 458.8855516896704,259.29382847402536 461.9283936155264,258.2833250433378 463.1184139847838,257.90500750867403 465.2002538285572,257.37490571879204 462.35362809118334,259.23597750053483 460.3958398192765,260.51158152635185 458.1207657957875,261.99701958141964 457.841947959583,262.273054209329 456.9417788598989,263.16228927630385 448.00131844555153,270.10371029507166 446.84718158413045,271.26063036485846 445.5300282335804,272.22421685483533 444.3096907736421,272.9945691653086 439.0028082571009,277.02028123923054 438.13305564847474,277.8569335485275 437.1059523682519,278.65760294989354 435.8855155079366,279.33133817050907 433.925142828206,280.80842660062075 432.6053056697378,282.2083803993646 431.9039371663595,282.95109942693387 424.7360822685231,287.1094114985031 423.39417824388244,287.75551343635584 422.8225271293381,288.0288642561351 415.0777529012154,292.6841778183983 414.6524190254639,293.06517916105093 412.95714694121597,294.5754672907276 409.82603755038775,296.17412228540036 406.1648263695363,298.2228618299858 404.9554229423072,299.0152810066315 401.987230640231,300.9563700283436 398.17125319532414,303.1762768862602 396.44298021191196,304.1840965089589 395.55931156152747,304.9932149356581 390.73561389436946,307.6936228346866 390.1972618795551,308.0441082859043 389.1121088249466,308.75104320608483 387.60172129496357,309.73391335393893 388.91330822864074,311.1145834948762 386.92808547472504,312.70220505646273 385.8898493607565,313.26819035396915 385.1747636160913,313.65764072195486 377.49062356989555,318.56682264557804 376.41103693187733,319.5470089853727 375.7290514864708,320.16557704055714 374.21041373197926,321.08493039788283 372.38810806653305,322.17286666085715 369.6723925213867,324.31822329522976 367.4180931602996,326.09917843662623 364.9606195899924,328.13410133975964 363.47229892618185,329.0700545469031 359.6924037895827,332.1155802810304 357.52209768036556,333.86343512316824 355.96210940154185,334.9015718367598 354.2226041842895,335.90392444303325 348.7004206224254,340.4486054734447 346.1848972777325,341.75472539076725 338.07830596445746,347.6359428297004 336.6315346254505,348.56086260375764 334.781595676959,350.1209502827465 332.70243964110375,351.33303751803504 330.44654987511507,353.00624273632246 328.41441018055934,354.8810317591403 327.69644182722203,355.513317055541 325.52633451847635,357.42130577799446 322.2184913977972,360.5855154680813 318.59038051620445,364.0589594856425 316.64372507776073,366.1740984293579 315.09755344060085,367.41381894747985 314.02343381907855,368.2725381229492 311.69299382968705,370.34612774207284 308.1174657057016,373.2259531792942 307.36361384509297,373.8322949977869 306.23979407435286,374.7363407092066 302.45433252116345,377.831467192104 300.0162420085455,379.83328979597877 299.6546237241471,380.1121076321833 295.8387456796172,383.0499828435079 292.3541688285222,385.92165745624453 290.61188040297463,387.5754796163484 288.433324069249,389.4032522982198 283.5544592363774,394.10279899306363 283.15974065272036,394.4672998862754 282.038604690181,395.505436599867 281.2048349894856,396.27847271839966 277.1735564989733,400.33728509158027 275.1773003116889,402.4965577676406 272.3858417397461,404.16697977756223 267.7951383711693,407.1517719295975 267.08164303140563,407.61567312089153 266.6371248978714,407.9056237905593 264.2846180423075,409.6230621414979 261.23640850033263,411.82080273293576 259.4222536593005,413.4830739184433 255.92405896757805,416.6942005492408 254.16795390036665,418.2349051701167 253.5659856951413,418.59940606332844 252.74324942753213,419.09919076224696 251.6663465977146,419.74807590839487 249.57337392047796,421.0181135174803 248.60700422199406,421.6035812734767 247.607534224534,422.2081338865964 247.3037669134849,422.4125008995632 245.7630622925384,423.45620402981575 244.9071263252936,424.03610536908053 244.08985707446283,424.5855902170755 242.65401976788263,425.54917670705237 240.42029626844337,427.05121461200866 240.37606313572152,427.0815317029015 239.500843510882,426.39954625749493 239.46774321162334,426.37479558326305 236.02183307665982,423.68820432561597 233.06199039946915,421.0761632915835 229.141145640196,418.03063755745626 227.4872240797152,416.37671599704606 226.26678721911736,415.50696338849053 224.5300652104427,417.04269799447286 224.04966356963718,417.4673360680092 222.68837648674227,416.2276155498167 220.23378552510727,414.0491586161855 218.69308090444326,412.80108847303677 218.10771254861197,412.3261538485859 217.80394523756286,412.08043631163997 215.81593927506947,410.9814666155794 212.1023441373646,409.2032946824781 211.867560633128,409.1563777417674 209.52330400235513,408.65937625121467 208.902151539347,409.49602856044095 208.46031721429597,410.09511415727667 208.38298378231548,410.21668072183775 207.40558065074535,411.779452208886 207.12119639795048,412.23778698351913 206.71802878874846,412.87832250464027 205.1496908850392,414.9685119735111 204.61412207880258,415.8245473409916 204.28003767679,416.36011614722827 203.49586872493538,417.22996815609014 201.16542873526137,417.98918763317084 199.936841050532,418.5911558386081 197.74715188334315,419.66805866842554 196.18159718792904,421.05956344183636 195.13799345784162,422.017682915388 190.5186628035798,427.68071669997295 189.42237691550804,428.097700950627 189.3617427338636,428.12245162485885 188.431256543216,428.4759190849844 187.517270801868,428.82660333674414 180.43499956080313,431.5242280274775 179.06824546141237,432.04607959256845 178.0576426304891,432.43264735195265 176.82348852888688,432.90201555967195 174.77186637569994,434.37920339008997 173.15124391523173,435.3704231629709 170.4839363155325,436.8642108431361 168.47187548073978,437.98524740536914 167.34726050783146,438.3884150145005 163.12006402968547,440.6856553043976 161.30590918865335,441.71275858490293 160.02195553802144,442.54662768583404 157.49559756071375,444.18941641285164 157.4154809204381,444.2418997702939 156.40219428131414,444.8991345414686 153.8122201135954,446.2741388653679 153.72663645682388,446.31827259771273 151.4321793753632,447.4751926675702 149.2012390842191,448.6016962461578 149.01625512957716,448.69553012757916 147.82345155202464,449.2974983330164 146.1612797670353,450.5179351934023 144.39135805872502,451.8184886939933 142.92510426108686,452.41767369106475 141.92841747163945,452.85940861595066 141.69651657607497,452.96288432624 140.8405806091127,453.34537667341715 139.07344210909758,454.19027920743446 137.61553793634494,454.9965150255322 137.33115368355007,455.8082178599845 137.22897017710198,457.05907121156963 137.09090316310008,457.8819068794145 135.58618145008438,458.0557580008051 133.44072541533484,458.30157493805734 131.99952049291824,459.23206112877557 130.2103151267307,459.6627626205046 128.55072774928257,460.06314702134085 127.46845730334616,460.32546440810455 125.61851835485467,461.01858268690364 124.18556365722912,461.5209517936459 122.80767672494018,462.0014528347578 121.48237254997608,462.4652546257455 119.17131561855633,463.27158984414956 118.25732987720832,463.5918576047101 117.29374338730209,463.9287252150179 115.88285555584896,464.42016028890964 113.54684914958465,465.2375289403999 108.75635118206226,467.40495244094484 107.0582958892366,468.27480444980677 102.32574829544048,470.22682750429874 100.53097651266259,471.15184667859165 94.79617571282874,474.017855474361 93.31342146560849,474.7605745018596 91.47441655010877,475.5585600952369 87.65853850557885,477.20969844728126 84.68497858710126,478.89403649896127 79.75074778832716,481.6385781304053 80.44098345852474,484.83867132811656 80.39963293447505,486.4594925892681 80.3665326352164,487.82346348008116 77.94225876454486,488.6821826555505 76.72450571214775,489.09638369783875 74.12697712171176,489.98541996427156 71.26037192410435,490.96282309570046 67.9939787275694,492.85142875997025 65.80985597668837,493.7432482346982 62.62079621241644,494.32861659038826 62.29496203491239,494.4473999466542 62.26186173593625,494.4584333797404 60.42285682015402,495.12660218369496 58.86286854161277,496.3953475889391 56.91631250326354,497.97889373824796 55.29827445061907,497.630992694854 53.81283639548062,497.3134087423529 52.23624826698031,497.3188757587782 51.634280061472445,497.32165896707335 M13.742687617029757,310.2771359831992 17.515227131665576,277.2410493013319 18.86856219061783,275.4744078028485 19.329779573923076,275.54110540289753 19.30363729540235,275.66704558058467 18.925220360573473,275.61416462198764 17.639974505888453,277.29204165424954 15.258542163508654,297.8278450452685 24.981879325657545,298.53974998041315 24.984761934329686,298.32753034395125 25.15165503505303,298.3293195492536 25.145989217803205,298.6393490791081 15.254566151537334,297.9011030649713 13.85669975901483,310.2865790115251 13.742687617029757,310.2771359831992 M48.60923078868668,110.49207918781472 48.96816526544938,110.65618908003101 48.85932193882926,110.79395789325514 48.62593003902272,110.65946928985791 47.152221218761774,112.1777094434066 45.83238406057606,117.81370634685497 43.34717780684664,128.25690046809115 42.96607706381705,129.90247240347455 42.3624190533132,132.3803230350288 44.26961257345713,132.71182302928827 44.44455709793506,132.69015376427058 46.69269364073504,132.07059170609332 46.7015402672229,131.83292559332583 46.867836965966916,131.89057776620365 46.79785915623224,132.17158240900653 44.40072156672112,132.80535870986117 42.24870511217654,132.41650474357226 47.02797084614125,112.15057316196366 48.55674743145631,110.65410167380963 48.60923078868668,110.49207918781472 M55.039237273611654,83.29526301913408 55.42968164473146,83.33850214886309 55.416461405046896,83.47895477007604 55.14440278910886,83.46225552002251 53.550121407632815,85.00286074059204 48.78278370929954,105.14692755664991 49.478188194862085,107.07539274051551 49.77320827980029,107.13483411876632 49.766846660759185,107.27528674004989 49.425506037160275,107.17797384818898 48.665590757793915,105.12466188986478 53.45559172399644,84.91757528481017 55.02611643430406,83.48998820316226 55.039237273611654,83.29526301913408Z"/></svg>