<svg xmlns="http://www.w3.org/2000/svg" width="500" height="500" viewBox="0 0 500 500"><path d="M484.871315141862,235.73037530020812 484.8742649740251,235.7372791626596 485.28924987016524,236.3178939955563 486.0789889732138,237.1912953591082 486.7415087198834,238.4779242721144 487.11456834227425,239.72444802044836 487.6132154989623,240.594460215188 488.94340150793334,241.75732170301865 489.73138326420695,242.339568357908 490.8157917694235,243.00033075771339 489.84473213315795,242.62199909490826 488.4395450729993,242.18793443336173 486.3892862095848,241.10873520607902 484.7696400765134,240.02959874118747 483.31223471116334,239.21883423882846 482.71774939101704,239.05678175819148 481.4763721582258,238.78652692405694 480.1270436216801,238.78652692405694 478.8647665143608,238.9277422925571 477.26438843391395,239.10730547890984 475.26823074715907,239.10730547890984 473.6485218516518,238.88939447474908 471.59656840371974,238.56510122625696 470.04840862828587,238.4924223832759 469.7049728520408,238.4761669252948 468.0853894814051,238.40129139880037 465.9462590791967,238.6174450561861 464.5968050179578,239.0480577865292 463.40783437766527,239.31824985827254 462.85169687510404,239.52605611829856 461.8126655749293,239.914492525283 460.0587706982005,240.71822764036355 458.8191508123626,241.37899004016896 457.73831976295344,241.41727509563037 456.4969425303405,241.52541468673672 454.81811146723504,241.5846623791174 452.7695471881598,242.11638531328836 451.6224390591807,242.55402743086532 451.56494871366425,242.57499006778454 450.9338101600938,242.81555829333757 449.85285358599145,242.97767353636573 447.04605692165995,242.81380094651794 445.3165766131875,242.75800518538534 443.3726999938814,242.81204359974294 441.64667161652324,242.8102862529233 440.5500872083963,242.7056613554562 440.5134967372295,242.70214666186155 439.6488193452507,242.4319545901182 438.24532686960964,241.89150768428493 436.57164232213603,241.08256329109213 435.76276069133445,240.3259627278731 434.35926821569336,238.6523409427907 433.3341701650256,238.05955020702825 431.93074045164195,238.00375444589565 430.7958082257516,238.32629034752355 429.5004553411723,238.38032876188115 428.22606509337845,238.05082623536595 425.9578952257586,237.29416290975573 424.2301722638828,237.0239080756658 421.9654543273772,236.31965134233133 420.99263734433663,236.31965134233133 420.01982036147444,236.53580499971707 419.4270923881032,237.1825713874459 418.9389265496295,237.9915785429853 417.479701075247,240.09411847398238 416.39880726358047,241.44175242618883 415.4277476273149,242.03448039956007 414.83326230716864,242.19665840497944 414.18467581036276,242.19665840497944 413.2676545884994,241.8723651565319 411.91826328951794,241.0616634165641 411.3220206224182,240.26665227310124 411.21915307168155,240.13064618266878 411.10756154932716,239.98246418932595 410.7695861008928,238.9169471621638 410.7309872333862,238.79525089571925 410.54966670034764,238.37750445450044 410.19229767441715,237.55399918779955 409.75992759729905,236.90541269090448 408.18735325360876,236.21326909808917 407.6364877917294,235.73037530020812 407.4394766622304,235.55771597630684 407.1692218279621,235.12540866153535 407.0071065849339,234.47864227380649 406.8466859264234,234.0462094342526 406.1441237774727,233.55980094277692 404.6326172354631,232.91127720822846 403.2849832832566,232.47890713106577 401.3793917194565,232.14764725777556 398.9491693712443,231.82335400932803 397.54567689542483,231.98377466792778 396.7890135698146,232.14595267334713 395.8719923479512,232.57650264129902 394.41276687339035,233.33140862013423 393.22379623309786,233.7620213504773 392.30677501123444,233.92244200907706 390.95562636547794,234.0845572521052 389.22790340360217,234.35311750181134 387.8785748670565,234.5134126356733 385.52322804533867,234.78718216340246 384.5032765103028,234.83249660609775 382.0137437071849,234.94584547518258 379.63743424850327,234.94408812840757 378.07188929209144,234.94408812840757 376.6126638175306,235.21252285328669 374.56071036977687,235.5351215173504 372.88702582230326,235.64137823685476 372.0809057365358,235.73037530020812 370.94314920317555,235.85590007220327 369.64603897164284,236.124334797127 366.5148862963834,236.71712553288944 364.94934134014994,236.877483429098 363.32975796933596,236.87572608232298 361.92626549369487,236.7136108392502 360.0904657031931,236.22895969459415 358.52316340000624,235.902909099327 358.2476992876703,235.8875950771246 357.5521037637407,235.8489334473606 355.0136790620309,235.7931376861834 353.5536376765183,235.73037530020812 353.47254867369713,235.7268606065689 350.1792807555879,235.02254111088783 348.66250217325324,234.66856125385877 347.37411591333824,234.37401737633937 345.9323383821911,233.81085048676724 344.1872302393374,233.23902238792402 342.35136768639984,232.9129717926569 339.65258508843687,232.69681813527114 337.11422314916285,232.47890713106577 335.6027166071532,232.3149717788268 333.38858515375716,232.26099612690498 332.14727068358,231.93500829398445 330.9948905142759,231.37705068248 328.40594209171394,230.18983738887326 327.21866603558226,229.91958255478332 323.923640770698,229.1089435772067 321.8734446695409,228.62077773891139 320.6303728525888,227.9199101744338 317.91414231121206,226.12245820178464 317.7711695959369,226.0283146227548 315.665177733781,224.94917815790788 314.26174802021893,224.24661600900183 313.7247530455891,224.08971004399672 312.96639513563963,223.86828434619673 312.10165498140344,223.5980295121068 310.1577783622757,223.48819533657198 307.51303417853654,223.43239957543938 305.9457318753497,223.37195939771524 304.44288654252193,223.31384142828688 303.6043183031388,223.2964562473535 299.3678572481348,223.20576459957172 297.8004921826905,223.20400725279669 296.1268703974743,223.04189200972394 294.45318585000075,222.6618030001438 293.90401497263895,222.45613066119537 293.15789572785724,222.1754572710147 292.68366313924724,222.00104060033843 291.80844166644,221.68026204548553 291.2139563462937,220.82606597203323 290.0266802903404,219.63872715364414 289.00158223967264,219.5829941549027 287.59815252646735,219.6910709835733 285.8704295645916,219.90553005653064 283.8185388790953,219.849734295398 281.0116166900705,219.68586170555022 279.22816072945335,219.52368370013087 277.98684625909783,219.19763310486374 276.42123854042865,218.49682830277732 275.07184724144713,217.95638139694404 273.77655711912524,217.2537564856468 272.9675499634521,216.55119433678536 271.9406945661877,215.74407005280338 271.07771175872654,214.82522872177378 270.3768441942935,214.2307434015829 269.99857529383496,214.01634709101677 268.6282213578897,213.49849464413995 265.44478761518144,212.03933193201487 262.1236531977015,210.75960688146017 261.72435889802176,210.6062156100943 260.2721000483036,210.4039952023939 260.24768548004715,210.39878592437083 259.21216887342246,210.21746539119846 258.58805970713047,209.7153663032178 258.1731375732478,208.71982933648297 257.7790525514573,207.77324703082047 256.4645571393034,205.80137838749505 255.4446056042675,204.18355236354526 255.36270069049462,204.05451289795545 255.19016689133116,203.78080613261747 255.13612847710735,203.1322196356778 255.4062577863257,202.59359283901077 256.57093938341177,201.734061962753 256.64932960345624,201.6765088548008 257.94637707273154,200.9233602227852 258.4869495033472,200.4910529080137 258.21669466907883,199.3037768520604 257.677942347674,198.33265445349284 257.0852143743028,196.87518632579616 256.37738018502705,195.98257967210006 254.70545298432847,194.68553220304776 253.64370170041494,193.99527148178984 253.6244964104045,193.98290729175054 253.13815068132,193.11295785940206 253.62631651943693,191.8577101394058 253.64370170041494,191.81026177558834 254.11266224852145,190.5327334085916 254.53812846341103,189.57209232846137 254.7089676780569,189.18509945638513 256.20145721700675,188.38136434126 256.6580535752523,188.13552407529272 257.7877765232534,187.56714790769755 258.3805044966246,186.86634310561112 258.5967209163124,186.1654755411335 258.8669129881449,185.35659391037652 259.5911909225753,183.42834512531795 259.67761472797895,183.19825821824685 261.7819120057956,177.72393462413532 262.3241162584931,176.48268291621562 262.27007784426934,176.05376477030094 261.891746181375,175.8916495272728 261.66511120555197,175.8916495272728 260.9729676127366,175.88995494284435 259.7857543192191,175.99796900916834 259.0831294078327,175.99796900916834 258.8669129881449,175.7818153517826 258.7605935061156,175.34944527461988 258.5984782632658,173.83969607938528 258.43805760457684,171.1409134813777 258.3316753602901,169.30680827530438 258.06148328845757,168.8744381981417 257.1444620667726,168.7663613694711 256.90389384126416,168.75939474462842 255.36270069049462,168.7105656082939 254.10400103933952,168.66700851241822 253.64370170041494,168.81851691222667 253.01262590928025,169.02613488512372 252.81040550153526,169.087139924324 251.90731752935724,169.3556374116389 250.93450054631666,169.8420459031146 246.8828119556438,172.32116015014176 245.09584130165496,173.5397546367138 243.31753185666963,174.3679043199616 241.42769365176568,174.96063229333285 240.26489492632624,175.6807051479101 236.64030437244642,177.17658385585054 234.31809609042438,177.66117223816002 233.07684438250467,178.0917849685031 231.671657322346,178.25220562710285 231.18531159326147,178.25220562710285 228.43242781863896,178.52070311441778 227.02724075848027,178.7351621873751 225.78592628812478,178.95131584476087 223.99895563377916,179.1308790311136 223.57913803400774,179.2031812997921 221.30538231406223,179.59456753889506 219.19769586738872,179.86312778855657 217.95631863459744,180.0775240991673 216.71500416424195,180.1315625134803 214.86357653971558,180.38085471069562 213.91165943120305,180.56738452189103 213.33455929203475,180.08455348640118 212.23276560584017,180.4523410683332 210.8555078073096,180.93529762860544 208.53499410980518,181.58036943190584 207.83236919841875,181.7965230892916 206.43069683198848,179.42027639295657 205.78393044421506,178.66537041416595 204.6489354558889,178.8257910727657 204.56703054211602,178.84317625369908 203.35364533356702,179.09598314450903 203.0293520850749,178.66361306734632 201.99546730053206,176.92892348067247 201.34173428791595,175.61668751420012 200.76293956423007,174.45508127410417 199.7918799279645,173.4840216379278 199.0910123635315,173.21376680379328 198.0101185518649,173.15803380505184 196.71476566728563,173.53630270546577 194.93124694423264,174.1813745087662 194.28968983452685,174.3957708193323 193.96018730814546,174.5056677572137 192.28650276049348,175.04266273184354 190.72095780426005,175.5812895285106 189.207693915297,176.39029668404999 187.9646220981665,177.79196905056943 186.45135820938182,179.625948731905 184.71842596961676,180.98236941812036 183.7456089865762,181.84535222562613 182.77454935031065,182.94896602103154 182.59843809516133,183.1494290819123 182.4157367896057,183.42834512531795 182.26366352845488,183.6637040728033 182.07889106394526,183.94444022537516 182.19569186436735,185.8255544585722 182.185273308232,185.83948770825756 181.91332388980285,186.19340480294 180.82546345311525,187.61428245955906 180.068800127505,188.53130368142243 178.5973359877764,190.45597501049517 177.37993398654783,191.83693578966017 176.69701646447973,192.6108587714214 175.89503869608504,193.4755361633556 174.1115827356462,195.68797303223405 173.67921265834974,196.0104461714708 172.51289923936025,196.65206604356774 171.85910346448674,197.15065043795377 171.68656966532325,197.3738334825734 171.1948891332995,198.00490927379727 170.8165574705836,198.92199325800723 170.59864646637823,200.86235518358492 170.52709734648323,202.19781323292565 170.27265863354688,202.96665246140162 169.40440378558225,203.89760693295034 167.79869090219617,205.07609625485017 166.11458779858728,206.30874951588996 165.19580922994888,206.84743907494823 164.11661000279992,207.2780518052913 162.47261206390786,207.64772225882533 160.87568591439688,207.7087272980256 159.4303936895214,207.08624995368163 156.95479413626725,205.89200727288565 155.38924917985543,204.81117622356567 154.72152015529656,204.22365752821747 154.36415112936606,204.05275555113585 154.1008629201188,203.98999316511595 153.82539880796122,203.9847838870929 153.73652726934563,203.9865412339125 153.4557283544272,203.9952652055748 153.12277389657478,204.05451289795545 151.88145942639767,204.48512562829853 149.42500240071817,205.60788195145693 149.2890590725431,205.67070709982343 149.03976687541697,205.79623187181858 148.0024301595815,206.31395879395762 147.7741005994192,206.42724490069585 147.3399731753477,206.64521866724783 146.69835330320612,206.80557656350098 146.3026364595122,206.90499218290046 145.96610454585235,206.98865444344835 143.6718255256368,207.17863618584724 142.93436749021538,207.38267670275843 142.310258323745,207.9580194951963 141.83602573513502,208.73382534855952 140.6469923324067,210.68291124579954 139.99677401334063,211.74290518293807 139.02389426804265,213.32596084502106 138.68742511664018,213.99362710727794 138.1348023078074,215.08845416867445 137.81747568433633,215.71614079104145 137.1322987163637,216.66975248393783 136.76796306559052,217.9441427316871 136.75227246913016,217.99472921479665 136.69999140150298,218.17956444156366 135.55106316349148,219.36677773512577 135.2407031646847,219.68931363679826 134.32198735830374,220.06588795278378 133.7501592596389,220.16354622540823 132.967386781433,220.29597485985488 131.34774064836157,220.56453510956098 129.0517042811926,221.34203554730806 126.72949599917055,222.47351584212876 124.99474365019469,223.20055532154865 123.9749176400304,223.11865040782035 122.30123309273519,223.0105108167586 120.95014720923609,222.68446022149143 119.22242424736032,222.30612855864175 115.82271132252855,222.3584723885709 114.3112047805189,222.3567150417959 113.12223414022637,222.7332893577814 111.93326349975544,223.70441175634895 110.8523069256531,225.26819936594114 110.09570636247867,227.15634298637207 109.5551966941204,227.90949161834305 108.6364808879178,229.47327922793528 107.8257791479054,230.71453093585498 107.01507740807136,231.52353809139436 105.71978728574948,232.76309521488565 104.3146002255908,234.1107291670921 102.62171038810678,235.46884443773587 102.30526243784485,235.73037530020812 101.05616543169495,236.76243997558475 100.4442321681349,237.24363918903737 99.5428387804745,237.94971603153806 96.87719472220732,239.84306892999203 96.7377367004822,239.93627107319855 94.79040815006182,241.2377119093222 94.24989848188194,242.26111537542775 93.92566799582562,243.01602135421834 93.80710984862853,245.53348341905354 93.64499460560036,246.93521854800875 93.32063859485083,247.5819849357376 92.40192278846985,247.9603165985427 91.80743746832358,248.0125976660807 90.29586816387815,248.17471290910885 89.37715235767554,248.65942681620072 88.62048903188693,249.79090711097683 87.75574887765073,251.30241365303107 87.71915840666232,251.4697381741269 87.32168421601502,253.29687675535754 87.23971653998471,253.70483226435297 87.15950621055106,254.10751573293416 87.17343946041478,254.2190444928528 87.34955071556409,255.66785141127832 87.38708262219743,256.3132370264901 87.42800369786598,257.0207574038545 87.26582569258039,257.82963903465605 86.72719889604711,258.26031452739034 85.91649715585633,258.4224297704185 84.99771858739632,258.3143529417033 83.75646687947662,258.0964419375425 82.5221190339638,257.19686865900377 80.54334652818687,255.65391816154838 77.79052551582174,253.71004154237605 76.77760336806433,252.9795501317081 74.74830714161367,252.26299197077012 72.75384403937636,251.7016451903642 71.79847499957118,251.92482823498383 70.93373484533498,252.7877482800984 70.51529801790223,253.52526907800024 69.96085509985862,254.29756023772424 69.52848502274051,254.51371389511 67.65615752350774,254.88156423943317 65.91098661839656,254.99667045538223 65.10028487856255,254.88853086427588 63.75089357958107,254.45622354954895 63.05008877740545,253.86173822935808 61.37640422993185,251.27103246002113 59.97291175429079,250.24587164709598 58.30274190036723,249.49096566830536 57.11377125989631,249.28008405133386 55.60395930240428,247.33790201658994 53.529348633169114,245.21446221102025 51.74231521656609,244.06729131973918 50.13672785805161,243.26531355143365 48.89541338769612,242.13213867218454 47.81621416036879,240.6763651289163 47.11534659593576,239.97374021766367 45.97689967631698,238.26528530836788 45.05987845445361,237.34820132411332 44.629265724110525,236.32310327357936 44.629265724110525,235.73037530020812 44.629265724110525,235.08178880326847 44.73734255273651,234.37922665440703 45.117431562405834,232.9774915254518 45.17146997662964,232.27668672340997 45.063393148003655,231.305627087189 44.43576928798323,230.36155527699583 43.66172078139501,229.1995724625973 43.39146594730508,228.4464238305817 43.33749029533868,227.68982326736267 43.501300122884466,226.61238138689956 43.60943971394624,225.80167964693175 43.60943971394624,225.2089516735605 43.449019055435684,224.5080841090829 43.124788569200966,223.5352671260869 42.748214253260066,222.88850073835806 41.18260653441245,221.59308509129838 40.4800443856402,220.72840769940876 39.995330478459145,219.48709322909787 39.23872991528471,217.02191223180066 38.26760751658336,213.94655531776303 38.05321120610642,212.1125128740809 38.1072496205086,211.14145323790453 38.433237453339956,210.4406484358181 39.027785535922014,209.6316412802787 39.5141940274423,209.09288895887386 39.62227085606828,208.71468282080653 39.35201602197834,208.55250481538715 38.54131428214432,208.498403638683 36.00295234269192,208.3345938112264 34.657075737260485,208.5489901217925 34.25784420001653,208.61350985458742 33.30592709150399,208.38687487876436 32.11689368859727,208.06258163027223 31.740319372656373,207.7923895585735 31.0917956382863,206.5510123258714 30.98541339399955,205.63581121321883 31.147591399463504,205.20344113605614 32.1204083823257,204.18003766995062 34.33453983554338,202.02345932459596 35.901779376472824,200.24339253288022 38.49079056147056,198.08687694991676 40.7188552643736,195.9023693428002 42.124042324532276,194.50063421388955 42.77262882133814,193.74585375983673 43.04106354639565,193.04498619535912 43.25721720364762,192.2342844554359 43.797726872005875,191.37299623235853 44.230034186688194,190.6704340834525 44.43576928798323,190.4315604423279 44.87862068367244,189.9173482138281 45.95951449533899,188.73176674230322 47.47277838412366,187.2220175470686 49.0400806873105,185.76624400380038 51.716708163099945,183.42834512531795 52.497283957837084,182.74668285093992 53.36547604336593,182.0179487870916 53.79608877370901,181.37118239936277 56.01015746449091,177.7710691760414 56.88883086859086,175.81840582281558 58.25742745758275,173.88319041286974 58.337700549452194,173.7681469593565 59.137858208457715,172.0875585494314 59.88924949356449,170.5132896214019 59.904940090203254,170.47839373479732 60.03918883386071,170.0739529193965 60.22923333869537,169.50733409857637 60.285029099872574,168.10390438523729 60.01477426560426,166.8085515005688 59.25993104938322,165.5671742679113 58.45098665614584,164.81239381385848 56.9394173517004,164.0016293114995 55.63013121725737,163.14391854445256 55.08447503344563,162.82138264278004 52.061461949426345,162.78127747810782 49.74446294547195,161.8136697731795 47.70292805367515,160.60379925822514 47.113652011418154,159.6710246775102 47.010721698424035,158.80634728557598 47.425706594742536,157.4935464576275 47.89993918335249,155.9297588480353 47.6610655421833,155.5078073269633 47.485017049469775,155.19575274377272 45.825265751681535,154.3658457137053 44.98142547197335,153.95098634225837 44.43576928798323,153.6819239934673 44.22827683991317,153.57955854190476 43.577995758589694,153.26060009626266 43.309561033710565,152.76025835505703 43.058511489631044,152.29129780686134 43.06723546124874,152.15353436960922 43.16307362470699,150.60010255371654 44.09402809625571,148.49241610704303 44.43576928798323,147.90728238238177 45.063393148003655,146.83260204690816 46.03275819975159,145.5373119246309 46.3447500204618,143.87762338923383 46.587138355359414,142.52998943707198 46.114663113524486,142.14117645578494 45.23774705637794,142.11500454084268 44.43576928798323,142.29908661895996 40.56891592425576,143.18723714323812 40.434667180598304,142.7984241619957 40.22196545428221,142.18479631405182 40.21845076073217,142.1254230968888 40.15047909664463,141.15442622310363 40.049368892861324,139.69695809540696 39.49498873743188,138.9367800762021 38.94230316616329,138.62648283978652 38.28505545999714,138.55675382896857 34.26123336887338,140.3524484547981 33.25709795516946,140.524982253917 31.597409419817005,140.524982253917 30.1433932233238,140.24782355733097 28.65630124957061,139.6254089753782 27.029688491478137,138.55499648214897 26.409031256478773,138.05114004734867 26.079528729918994,137.61701262336635 26.09346197960435,137.3642684949476 26.163190990288523,136.84472146364234 27.16738916642823,135.7743089704131 28.481884578760535,134.70207636797306 28.963083792213165,133.91930388981174 29.311728846525952,133.3544424158112 29.484388170382626,132.3868347108383 29.589013067894356,132.04164158781813 29.865857952569005,131.12637771281896 30.284608591823932,129.74560522078295 36.37425461830776,129.46838376185033 39.20904330670319,129.29578720034027 40.58805845183039,129.24702082639692 42.08042246608703,129.19298241208395 44.43576928798323,129.17271016137863 46.128659125467244,129.15808652543475 49.22315856730249,129.19473975885896 50.987472000166676,129.19473975885896 51.05895835780425,129.0343191002592 51.367561009835995,128.33169418900658 52.056127146487114,126.33377915547665 52.40489772549309,125.32437170140307 52.786681319680035,124.0673666346318 52.683751006507535,123.23745960451978 51.404088718566996,120.78282268809568 51.22979757245012,120.1952412303563 51.33266512318683,119.68793286430798 51.43904736747358,119.15966186134044 52.09629507363973,118.20605016844407 52.82151444389341,117.15478020296783 53.01011541377524,116.57950017287656 53.10745987444373,116.28307342379975 53.34972268446977,115.54040611026608 53.61828293404209,114.72098039863596 53.687949182468856,111.37022213487651 53.93209486414149,107.37602388985388 54.27722522472585,106.30561139662464 54.706143370729706,105.70936872961416 55.074056477488696,105.19854566997121 55.22048112405649,104.93356287629553 55.65103109196379,104.14551835767536 56.008462880151676,103.4951745139161 55.90383798263995,102.83792680774994 55.30759531571866,101.59140305941598 54.83512007388372,100.60647293590087 54.38185012223759,99.65800775868095 52.98017775562895,97.19458410815876 52.92789668818017,97.10219787599316 52.661156547640275,96.35953056245948 51.730139313655755,93.76531009952788 51.716206063970404,93.72871962849487 51.69179149589233,93.69037181064226 50.644036223921546,92.03413520649325 49.92572071607474,91.21470949486314 49.39920706001601,90.61677224342424 49.367888629531045,90.58539105045888 48.28693205525032,89.47656797698583 48.32534263562791,89.20110386482824 49.09066717042005,88.33466912611901 49.364373935802625,88.02424636496565 49.77408679161768,87.41237586384139 49.916996744635426,87.19791679088405 49.74446294547195,86.47094007381075 49.63983804796022,86.35941131389212 49.19002002742834,85.88342137846256 48.75244067242096,85.59923329468727 47.94349627918357,85.07102505411092 47.84062872844686,84.58631114701906 48.220717738116186,83.68849521529988 48.47346186653494,83.33457812066203 49.1325296819119,82.40701281792556 49.32772070237843,82.13336881497878 49.78977738807805,81.48308773365531 50.262252629912986,80.8205679870303 50.652760195539244,80.34809274523997 51.91058117348521,78.82441030027539 52.061461949426345,78.64302700475643 52.23399574858982,77.14024443436448 51.716206063970404,73.92718684551053 51.54712419609956,73.46864485336096 51.44770857665549,73.1966954348426 51.17054988015866,72.44530414964662 50.712007888009076,71.19702305449304 49.48286932056392,67.61260042763207 48.150988727253626,65.82562977346483 46.70569650237812,64.45703318433915 44.840272865730626,63.01525565314747 44.43576928798323,62.73546093635433 43.7820362755455,62.28300689570451 42.86150035995371,61.64665906402179 40.80778956524657,60.961544858484935 37.06464086416968,59.728891597445134 35.0632738995255,58.73693208669615 31.977498429486328,57.2062202545423 31.16497658026311,56.803474023569926 29.531459959942133,56.30834156043194 27.629383089692062,55.6249847016701 26.143985700278108,55.31989674332218 21.59898475567808,54.68179156486445 21.042847253473617,54.6032758199484 20.729035323374216,54.55978148646392 18.14002413855486,54.179692476839186 15.476200189498487,53.57121114457178 14.372586393914707,53.07607868143379 12.165484327975486,52.239267788870286 10.483013046448402,51.89583201271435 7.21064500286721,50.945672251066014 5.069820016319531,50.60047912804586 3.737813898316043,50.1071040116829 2.8243073700027135,49.763668235526964 0.8071870462839852,48.320133357515665 0,47.61575109944341 0.03483312421338453,47.27407267006249 0.07669563570523427,46.85739318940476 1.3703539359452952,44.99372689953229 2.58022445094425,44.22313032419211 3.5774560020628976,43.588477076982414 6.888171863585899,40.16629521793199 9.217346770272245,37.60515053243875 9.593921086391527,37.040289058438205 10.664396341922775,35.43815363103797 12.092240623384505,33.738297168577496 12.773902897985494,32.92590084422586 13.101648077591868,32.53715062533003 15.857983783507045,32.72543778334507 19.73883315935565,32.53539327851041 23.50457631947819,32.191957502309876 27.195318428056346,31.205144507237346 31.051690473569472,29.906339691365417 32.87876629227516,29.412964575002455 34.629146475453986,29.29961570591762 36.19123950075156,29.35020218902717 37.65912618449433,29.3990313253171 39.74603828133302,29.376311341578262 44.43576928798323,29.7485550529728 52.948796562708196,30.401472154503406 55.34600589591787,30.591516659338065 57.89302904455218,31.579961476447824 58.566030109614495,31.980950360600584 61.10094011795264,33.47331437490181 63.18948403669478,34.69893824870774 64.10305332726551,35.194070711845725 64.71153465953293,35.91583815085137 65.45765390431464,36.09364399038451 65.51169231871683,36.10588265568603 65.72269946051532,35.58457827756117 66.61530611412223,33.36868947743468 67.07378534383602,33.000901895502665 67.45211700655194,32.83696654326369 73.89925758383782,34.01721321198313 75.28693393814694,34.17763387058287 75.67750426638736,34.08349029159765 75.78382374805994,34.00679465589241 75.87451539588632,33.940580338669086 76.95189451400284,32.54756918142074 77.78870540661093,31.025581320884594 79.08581563814363,30.064940240798947 79.99938492871436,29.913306316208097 81.82646074742006,30.52178764847551 82.74003003816917,30.711769390918978 84.07197339391524,30.59842052178955 87.00260024559054,29.571565124435985 88.12008452842389,28.82017383924001 88.71808454212021,27.395781488981726 89.4817144925731,27.272014063806175 90.35342127183037,27.129104110877616 90.20699662526258,26.52238012542982 89.98732827428219,25.612325528409123 90.23310577785827,25.37527199649534 90.59223215056377,25.030078873475187 91.0350835460746,24.60285531198895 92.27815536338349,23.05306371447329 93.20917259718962,22.742703715711116 95.88699255836714,22.23884728091084 96.7377367004822,22.170875616867896 97.82735448394484,22.08369866272535 98.79847688246781,21.811686481815794 100.23504513554724,20.920837174894707 100.93239800643022,20.804099136953027 101.42571036035739,20.791860471696097 102.49618561606702,20.763931209889602 104.27976710137742,21.616495461349263 105.17231099254855,21.888444879867627 108.31745967992912,21.578147643496646 111.46078825792051,21.07429120869637 113.06468103209576,21.03588062845256 114.38620583188491,21.433354818966087 115.2387700832108,21.96514051557286 117.6846830280618,23.051306367698267 118.08918660580919,23.178588486468456 119.16311379263307,23.513300291006697 120.78796920377214,24.020608657055014 124.1404848143512,25.03177345790361 125.96580328646024,25.45893425704325 128.5347932701391,26.52238012542982 128.68209659009437,26.583385164585486 130.08031702541038,27.24239021761585 131.55517033399585,27.04719919714932 132.18109960949866,26.76997773817211 132.73861788439854,26.52238012542982 133.89306921247825,26.009862481313846 134.41782552194036,25.89651361222901 135.69748781005927,25.558287114051538 137.99879621737492,24.620366017660135 139.76141506589985,23.903807856722143 141.26771232984186,23.1087967132593 142.24749593772512,22.7322223972738 143.63868698576263,22.36267746847758 145.78829870618543,21.790786607243167 149.03976687541697,20.913682262923047 150.79008429616002,20.441395308261693 152.80896196665375,20.32459450792882 154.70928148995043,21.060295196619823 155.9906383624086,22.531696574001828 157.34881639562192,24.35532046159326 159.09361072647513,26.52238012542982 159.9569073457585,27.594549965434084 160.42235320049335,29.106119269879514 160.77281836383855,29.609975704679794 161.88509336842588,29.395516631722465 165.0040073783392,28.795822033463942 166.23314594578434,28.65278655579759 169.50375664259053,27.749761346010768 171.80675963442377,26.654871522267662 172.054922108776,26.52238012542982 173.93898617404696,25.516424602604282 174.05754432124402,25.4536622165844 175.06695177527303,24.52270774508027 177.3629881422636,20.899937300366677 178.33404777852914,18.69107788747405 179.42021363052078,15.27749447534813 180.11932384817877,13.84613550020257 181.28387992039325,12.76003241051295 182.56536231790136,12.216070811040439 184.19536424467228,11.67380379599635 184.5824826414417,11.59365622908767 184.96426623545025,11.515266008954013 188.39347748173455,10.805611710467506 190.06716202920813,10.460418587447354 191.5612833904182,10.169326641175982 198.26807195835133,8.868764478484437 198.94452495470628,8.868764478484437 199.21477978879622,8.786734039973757 198.77720043361046,7.862808955703496 199.50417715063915,7.555963650535961 200.2712590323847,7.231670402088436 201.34173428791595,9.133056885946191 201.36966354972245,9.182576408494649 202.2116837202198,9.907795778748337 202.43298389328203,10.054596999574095 203.47214071832832,10.748121364861879 204.96274738580993,11.741838222430484 206.22496173069345,12.543815990736004 206.6695077107219,12.604821029936268 207.33378480398812,12.69727002449307 208.78252896015627,12.33632354262135 208.86280205184732,12.31542366809332 211.00362703821662,11.970230545073168 211.6173176485517,11.94236404570246 212.60933992178107,11.89529225618755 216.79000521560795,11.703490404577867 218.13242988974673,11.511751315359376 219.9734389581378,11.246705759247904 220.81552189124932,11.246705759247904 221.005566396084,11.515266008954013 220.70047843760227,13.500942377227014 220.7649354079614,14.278442814974078 220.77717407330752,14.417963599090385 221.04391421384742,14.989791697933605 222.34447637649436,15.563439905943039 226.77970590795078,17.435830167477803 228.69044398738276,18.04600608417364 229.37731553987302,18.42778967822679 229.7225714251506,19.039722941742244 230.14264007466517,20.108440850543065 230.44779079540427,20.37687557546679 233.31571802367387,21.13881094149127 236.9977989230701,22.4568210475074 239.40366946564006,23.066934201812046 241.54449445218773,23.90732255031678 242.80677155932867,24.59419410271785 247.35704454425377,25.39617187102337 249.5955905659063,25.635045512147965 250.81769974607298,25.940133470495883 252.18384860203133,26.52238012542982 253.64370170041494,27.14460642020901 254.22080183976158,27.390634973349858 255.97984323212233,28.269308377316015 257.14973410709763,28.987561122727026 257.967339709517,29.491417557527306 258.96111932952135,30.064940240798947 260.4918311617198,30.17828910988378 263.0528503222969,29.91154896938848 265.3210201900951,29.146224434507154 266.27638922972193,28.610986806696936 267.11840940039764,27.92411525434046 268.12091299184135,26.52238012542982 268.26564305389155,26.320159717729418 268.83922849968815,25.021292139466297 269.6795540858463,24.027575281897693 271.13350751972536,23.033858424373683 273.0443083615931,22.193532838215546 274.05371581580044,21.735053608501754 276.0045590597709,21.69664302825794 277.61027194315693,21.848339715239987 279.4425570401087,22.42192516085823 280.97326887230713,22.688602539006933 282.3871799039051,22.80370875491138 284.26132751234866,22.765360937058762 285.33174000544415,22.613727012467912 286.86075725330335,21.88668753304801 288.6965570438051,20.20609912312293 290.1104053131457,18.71718704006974 291.3534771302762,17.559597592697948 291.8491116925437,17.25049284162585 292.2704983521396,16.987706731463536 293.87614847308987,15.840598602529056 295.40334561173825,14.65677447777919 297.62092899624855,13.167987919508388 299.30340027777567,12.018996918971906 300.916017023747,10.915508648348894 301.10781887535666,10.730673421581887 301.62033651929426,10.23905565203854 302.15381680037405,9.724780661147545 302.37348515135443,8.718825138322009 303.78739618313085,7.458305377911504 304.9345043121099,6.159500562039575 305.9457318753497,4.920822111935805 306.120085783724,4.7071789500193875 307.6159017292733,2.0171830860207303 308.07444372124445,0.6799676899049917 308.1075822611186,0.6050294010193736 308.13890069160357,0.5352376278102188 308.37953167954777,0 308.6863142223687,0.183140642338583 312.24117576538595,2.3588615154016495 313.4405649619922,3.533961668489222 314.31923836591375,4.107547114152058 315.4489613139148,4.494539986228271 316.9971210893487,5.010572323938883 318.55055290528594,5.688782667024258 319.4082636722437,6.544798849687365 320.321770200557,7.514101139088707 321.97806956705267,9.198204242608426 321.94493102735686,10.108258839629121 322.29357608149127,10.924169857619994 322.97875304946393,12.064374124058393 323.8068399702759,13.206335737361005 324.60706039171725,13.947245704075067 326.72008164133,14.632422672047715 327.96491080523555,15.777836216509176 328.67268223225386,16.48560764343828 329.04228992317366,16.836072806872682 329.3194486198489,17.10111836293956 329.8163384297619,17.573468079992107 332.5116063341748,19.367468121393216 333.54542835628183,20.863346829333675 334.2951250572278,21.715785555966356 334.56707447565697,22.01396965186279 334.73100982789595,22.42192516085823 336.11868618238344,24.15661474753209 337.752328327576,25.86858435046711 338.34788060841714,26.52238012542982 338.948328355147,27.181385178415585 340.55573582305067,28.340731972606996 341.30016048331476,28.738268925511715 342.7872524572463,29.534974653402983 345.7754324172306,31.044786611028798 348.2057175277003,32.23896652943359 350.3971917597933,33.07577742199709 352.3079298390469,33.5918725220543 354.22048802786804,33.87078856545993 356.22185499251225,33.63373503350155 358.2476992876703,33.40032171996479 358.29477107722977,33.394861392421554 360.04690860718364,33.15605051368816 362.31853040609616,32.59815566453029 364.3286841049722,31.63399989080541 364.59021496744447,31.682891789486536 365.3485728775723,32.374972619910665 366.03544442988414,33.00259647988649 367.271549622172,34.23524974092629 368.7046031817014,35.18879867143147 370.17958201498004,36.58356717549943 370.93618257815444,37.418620721243315 372.0187709743386,39.14458633625488 372.69528673312936,40.25868145014219 373.5722027902759,41.21398772742239 374.10913500246994,41.52083303258993 374.4090764451414,41.52083303258993 376.99796210526756,39.78093416789301 377.91322598035595,39.34335481270725 379.1894363371822,39.02433360467397 380.6329712152827,38.9075328043411 382.2264454333226,38.9075328043411 383.58104601055015,39.22649124998318 385.01591967911196,39.70423853218777 386.17175177970876,40.222028216718 387.48624719204105,40.93682903088097 387.7652259979271,41.45292413093818 387.9255838941802,42.60699888471534 387.96393171194364,43.24504130078188 388.3231208470849,43.881389132420004 388.92105809834544,44.04005244424472 389.99674263212273,43.801241565511326 391.7105323441348,42.88597769046757 394.5173290086447,41.25585023891424 395.2461885971416,41.658596469842024 396.38978203239225,42.291429607885505 398.54115109976846,44.12195735797302 399.4581723216318,44.87862068358324 400.53385685523074,44.87862068358324 401.6479519692072,44.16212528499185 403.67894278017553,42.45009291971023 406.07094283531757,40.898481213028354 410.03363436268165,38.426333590843875 410.54966670034764,38.19342237643666 411.2696767925337,37.86843874173061 413.8185200503788,37.31060665491933 415.17487797420296,36.95838414470991 416.9270155041568,36.69685328223767 417.4518345758763,36.63760558985702 418.16312069644465,36.634090896262386 418.6913916994568,36.61846306214861 418.9981742420993,36.609739090486315 420.17848367320994,37.09093830393894 421.6028760235574,37.9416196837966 422.14501751381914,38.26591293224413 423.22070204741806,40.05815562687022 423.93901755526485,42.08569450659047 424.120275326046,42.91208684306326 424.6380650104871,46.013615671998586 424.8821479297239,46.693520599556976 425.1279881955574,47.72740538414441 425.6178486183703,48.54331640213529 427.21483753013865,50.103652080479456 430.06180212144443,52.42058832204266 431.0154138142962,53.39867734545289 432.6838890837022,55.051399256007265 433.8397211842989,56.683221291989014 434.67659483934284,58.87287541478203 435.71738348629253,61.1968410435791 435.95625712746175,61.67452556343709 434.36278290924344,64.9765802156444 433.99148063380596,66.21607457674449 433.52421466986027,66.67116463764603 433.07966868983186,67.77126373945678 432.53394974358434,68.87130007887636 433.63053415188966,70.11437189600687 434.67483749238943,71.29989060514056 435.35825711358706,73.08340932810435 436.2630396702827,74.68385017112077 436.3572460116591,74.84941734539697 436.73733502115005,75.58342344965955 436.6884431225581,76.62245474987886 436.83317318460826,77.17514032096906 436.916898207592,77.49591887582194 437.52883147097367,78.41821213809958 438.02584680575825,78.82441030027539 438.13028341614097,78.90982990764292 441.17425913712407,80.3516074388346 443.36397602226367,81.61036985247009 445.2415755618215,82.99810896930418 446.648582731191,84.19749816573203 447.33363417429206,84.76587433337181 448.6238405432395,85.14596334299654 450.6844552005319,85.30111196118203 452.62142795725276,85.56609475485772 454.4833369003502,85.94618376448244 455.16675652136945,86.36286324514018 455.8396948241744,86.9259673723211 456.7619880863628,88.71463261096136 456.98686571541083,90.7701635148347 456.90496080163797,91.74994712267336 457.06883339161953,92.37411905144575 457.37392134992285,93.20741525037 457.7156625416504,93.73913818454099 458.7791084100815,94.53590667482345 460.06918925433575,95.2942645848621 460.56262713295615,96.05444260411156 461.20945628316537,97.45787231745062 462.04444706638424,98.63284694575582 462.85169687510404,99.55947081266899 463.06960787948776,99.80970444561841 464.5183520352992,101.98373073429764 464.9315168224069,102.4386952704168 465.6707949672175,103.24939701034002 466.3908050594035,103.51444256645149 468.25095665554755,103.62772867314513 477.10045308167497,103.36098853264983 487.9792457342531,103.58931809294592 488.62262295316964,104.91435758615133 489.3060425741889,106.32475392437766 490.6031528057216,108.24252139095431 491.9176482180539,110.18984994137469 492.9165743536902,110.95178530744377 493.7203722311173,111.75194296653848 494.3426612881985,112.60795914920159 494.91285756513827,113.66971043315974 495.2248493858485,114.65476608141265 495.641591628942,116.8112816643761 495.7199818489865,117.84686103339196 495.8489585523189,118.70118263162665 496.13496674530495,119.03934636736832 497.2768655962164,119.29742529863712 498.2618584819889,119.32353445118822 499.1440465796389,119.66000360254607 499.63566434922683,120.1778560494229 500,121.27789238884247 499.89719521169906,121.89854962402022 498.4711082770124,123.37522304181647 497.45467143570494,124.11092373050748 497.01364014922655,124.57643234745514 496.52020227060615,125.22495608200359 496.1053428991592,126.41392672238533 496.0529990690963,127.19148992252359 496.2778766981443,128.83379327698725 496.60041259986144,129.98265875274134 496.3946774985664,130.62948790286137 496.0794847961283,131.12637771281896 495.9013023822034,131.40705110299962 495.2266694950593,132.39210675125253 494.7088170481825,132.98834941826303 492.6342063789473,134.23135847300233 492.1146593477312,134.69856167437842 491.7258463664442,135.24252327385094 491.57069774825874,135.94169625385553 491.5968696631118,136.64074370912235 493.0752376654257,137.90992467884854 494.9458705801408,138.93157079813446 497.07288784169634,139.60450910085018 498.26537317571734,139.78758698079756 498.70640446219574,139.94273559898303 499.1980849940411,140.43265878409798 499.56248340725006,141.21022198423623 499.6042831563061,142.29983976760968 499.22425690907255,143.30579529039062 498.6018423271198,144.25771239885856 498.0317715750516,145.00910368405454 497.4617008229834,145.88947167249373 497.1495834774016,147.02967593893212 497.0205440118118,148.1698802054151 497.17399804565804,149.42857985661482 497.25414561247754,149.5576193222492 497.7458261443229,150.33518252238747 498.26888786926736,151.07257779550687 498.1328190163991,151.50839980391763 497.7249262697949,151.99838575142374 497.0188494272942,152.408035844803 495.12204459772596,153.52727747436677 494.1630981019349,154.25431695378668 493.72206681563495,155.16085685716814 493.5145743673865,156.66370218995127 493.56509808823864,158.34611070904256 494.00625489941024,161.85553228462675 494.2921375675247,163.12822794794758 494.27468962428935,164.7094635008198 493.86152483718166,166.28730988483514 493.4012254982571,167.14671523635508 493.0055714169989,167.46755655359917 492.48602438578286,167.88775072785154 491.7449888941972,168.14746148111297 491.0912558815811,168.4089923435852 490.6554338731704,168.53972639360344 490.39566035765154,168.7559428133804 489.4350192773429,169.62758683015727 488.6679373955974,169.96757067510976 487.66894849788207,171.19840382698334 486.29520539308,172.58614294381744 484.72438839616467,174.60847254551464 484.1002164674369,175.31285480358687 482.9495936449078,176.4722015977783 482.58701534090966,177.04578704344112 482.58701534090966,177.35087500178903 482.892103299213,177.56878600594982 483.7637473160344,177.82855952160244 485.768628974407,178.0917849685031 488.0786613535188,178.57122683513612 489.03227304637056,178.92690127659358 489.76973108197035,179.51090527834714 490.1254055233832,180.0967293892669 490.5194905451737,183.03608021278288 490.54591350959157,183.42834512531795 490.64840448589194,184.9520903326291 490.60484739006085,186.0835706274052 490.38517903908047,187.4347192732063 489.7104833895005,188.63417123206995 488.72718508806724,190.35141287541921 487.76836411714777,191.78622378176823 487.02042476315523,192.68234512905897 486.2533428815881,193.40756449931266 485.2386633870557,194.52686889122305 485.23690604028064,194.78833699130408 485.54205676101975,195.70360086634784 486.0214986276974,196.13948563710517 487.5033813235613,196.66254736204965 488.2843336925564,196.95363930827642 488.5877270663421,197.17506500612103 488.5894844132955,197.52546740711966 488.02110824556655,199.049275376822 487.62890609560105,200.66013477592912 487.0605299278721,202.1838799831957 486.3631770571675,203.3589173738921 485.79655823621357,203.9673359438129 485.14100511438664,204.44677781044592 483.96596772377944,205.14237333446468 482.7019960321209,206.18667667514285 482.39690807381754,206.63128541756248 482.39690807381754,207.12986981194848 482.64626303337946,207.67031671778176 484.30770891550696,208.70941078039226 484.9301234974597,209.0423652381555 485.7197998382509,209.4573501343848 485.9691547976344,209.7885472452838 485.9691547976344,210.11980711857402 485.59427506621114,211.11703866973724 485.4687502941714,212.1125128740809 485.5925804816935,213.27537436191153 485.88373519048986,214.31440566213084 485.8819778435365,215.01878792020307 485.5908858971759,216.13978689654186 485.21770075027024,216.59650877948064 484.5099293232519,217.17712361237736 483.96948241732946,217.88313769248683 483.8439576454681,218.46375252533895 483.8422630609505,220.91318016378457 483.59290810138856,221.72563925052742 482.8850739121129,222.679313705815 482.3446270061904,223.25980301392931 482.0116097860806,223.63461998313977 481.8860850140408,224.00774236787723 481.8860850140408,224.50632676226326 482.09357746228926,225.62738850099325 482.67419229518595,227.2033520134512 483.92065328099494,228.9066604071151 484.62848747044904,229.67380505120724 484.87777966757517,230.3397767290357 484.8760850832359,231.50081810765553 484.71039238404353,232.99669681559598 484.66683528821244,234.57441767482896 484.74874020198536,235.44618721638824 484.871315141862,235.73037530020812Z"/></svg>