<svg xmlns="http://www.w3.org/2000/svg" width="500" height="500" viewBox="0 0 500 500"><path d="M200.697783965833,216.6986677115847 198.92149669853308,215.18954678849903 194.99024544796072,212.450977122656 188.46640932435383,207.88517975054395 183.61005969453237,204.33031247914403 181.52679583811275,202.8052674581317 179.91608584004308,201.72609717868065 179.78060594941408,201.6357633562201 179.5478723404818,201.4794404055194 179.1507286734257,201.21423330887922 178.31813179491823,200.6561395317836 172.64648502644792,197.2158674047877 166.7803308210156,193.40158740745943 165.95936437002584,192.68491962916434 163.85421530044354,190.84718702059735 158.57975388518258,185.72204528779898 155.94656673110077,183.00669479089737 153.5519075568704,180.53679216968996 148.2080387515271,175.062028946844 143.07993730412815,169.59185119721326 142.7749616488246,169.26649102913876 142.26659941314222,168.72457146668202 138.9328353231865,165.10133895817225 134.02087640899265,159.20625458548207 131.22090308818392,155.46930234107583 130.23898652706578,154.15873240844158 128.57846161542443,152.07792803307967 126.51383145470139,149.4887197358821 124.74913292876593,147.91852864670133 122.64169112265009,146.18742913360467 119.82671079839778,144.67514006535941 113.31092009609036,140.9662425798812 107.61963916495614,137.72514673513206 106.33316380983005,137.23533482292862 103.90027846327399,136.30781864868618 103.31667278067381,136.08550656974532 100.08766591080241,134.8534316014061 96.48248349225828,133.4779146935338 94.25456879883853,132.6278513306139 95.33148802776121,130.91755319149493 94.08323884484236,130.21239078237625 92.45281131203924,129.49793236842666 83.03641699469392,125.22627226039033 80.7818648703129,125.22627226039033 80.46225738682662,125.06532215032118 79.23139131595444,123.06438838124552 78.37449142929098,122.30011505369463 77.34967985071049,121.61808844127005 76.40944940967651,120.9916294270646 76.04240312145862,120.80983625692373 75.55138231178815,120.80983625692373 74.97477989736684,121.02293570334021 73.9326268925375,121.40849062897263 73.1741479357577,121.68874641500229 68.9036133528819,123.26815013673708 68.46249082908962,123.32955379176205 67.9483759087598,123.13267024610808 61.744063896451145,119.55404188621871 50.92651570735804,113.31442173015017 49.95264456753936,112.29544620822743 47.50708664046348,109.73871139864892 45.90796538387675,108.06893216832995 38.2894934303114,100.11501200559896 27.890265457187116,89.25811211899 27.005602614609217,88.33493130128016 26.58528146470575,87.89635163076325 21.717259721213324,82.89168278529841 15.844185620027115,76.85415693989438 8.974062896056378,69.69223137465318 8.112577536207363,68.69522443808114 5.243155139163041,65.37655072366817 3.631277929749988,63.5122640565649 0,59.311220236107566 0.4098579337291621,59.020584606150884 11.089633495659719,53.23896985258574 15.31614753552758,50.99025378509944 17.127159341004514,50.026804175272176 17.45718835463031,49.850805375843166 17.80343326895937,49.66667778295627 18.81311278599197,49.12938537983833 19.110709998092755,48.970769692515226 19.336523711034204,48.851464016554715 19.558835790063927,48.732241712811856 20.096169879394363,48.44623324219399 18.25255952777939,43.22513006068818 18.13446274931553,42.651945908079426 17.777796304965428,40.91388481292751 17.658574001192953,39.26032148337105 17.128243180159878,38.4659507770412 16.919812579265095,38.15447208698318 16.915143733773014,38.146343293525305 16.38364570139654,37.35205595944273 15.848646034871383,36.82401787500243 15.347287067367894,36.330746014803566 14.006536383707395,30.63825618623194 14.006536383707395,30.638131127861023 11.96374974987528,21.96520876408889 11.140448876198718,18.441606082840952 11.051282265111192,18.06059494430008 11.880377509469977,18.025870406182293 12.74307176681565,17.98885313147172 13.756252917996928,17.945999799896047 15.360001334040959,17.87884346028287 16.3176565730379,17.838282865329596 16.750733675767687,17.826694123935535 17.2022777296995,17.81397985726247 19.302841325977756,17.753785099704533 19.56225405190609,17.698175815391394 22.496414993777616,17.07292569865297 23.754001867562145,16.55760188088574 23.97051957590965,16.55760188088574 24.210214766986038,17.03582505169512 24.337607550280794,17.23383412259848 24.75792870018426,17.88463783099471 25.393642033008124,18.872348762765462 25.5789368372088,19.158315547259686 25.78503301541678,19.47909024211898 25.996923564306982,19.807952044282896 26.271384979713662,20.2329420396192 27.0055192423027,21.45713833121275 27.005602614609217,21.45722170346003 27.68170979795104,22.58470619623911 28.5733759088263,24.28462449143107 28.639365037066458,24.267199693201526 29.11875541921924,24.13868138465739 30.308060428230068,23.8189488428002 29.48930334158581,22.40049523110494 29.609734542736465,21.940780697650847 30.11930567603397,21.936111852188386 30.48989528443532,21.932693590346222 34.5056443007216,22.02298572668313 38.92670746346778,19.825210098047506 40.51890882418214,19.072567198014323 40.789826919168405,18.420596278274694 40.87665910768761,17.468777095965134 40.73771926906319,16.051449009548875 40.31969085569327,15.41807009938219 38.67425631968354,15.187629226983443 38.113786433659,17.5579853931763 37.128409924663906,17.518550323472407 33.46582571869753,16.974379710546508 35.06957413462308,9.671179883934842 37.71780997806478,9.932843660391558 37.942414793628046,9.247357099971557 38.49942473153869,7.544020542907817 39.14672680596396,7.544020542907817 39.60293970526938,7.542853331564417 40.07770292808333,8.149636497041575 40.91142533178094,8.16235076368502 42.51171379982955,8.185528246502765 42.75720336158816,9.09336857201689 42.95058527324156,9.377042619888716 43.138131127940994,9.653796771828937 43.72519675853659,9.756844860932928 44.86693790435602,9.958313879802088 45.042936703844276,9.554250316814386 47.995731341293904,9.998874474755358 49.23935336499241,10.081079503758023 49.4397385447062,9.241604415383355 50.20163576344665,8.993738744755063 51.4510521577089,8.925456879892502 53.39637664247143,8.920829720524061 54.13863969854797,8.842084639487197 54.858934169273795,8.179692189696905 54.85772527177714,7.680625958786198 54.78131461351594,7.611176882550617 54.1780330820986,7.574159607810425 54.160649970051935,6.965042019616847 54.28337390785461,6.167211365291573 54.29500433537231,5.886955579261912 53.61293603685371,5.82217534848879 53.48554325355896,5.079912292412253 53.412592543174696,3.9763556326171696 51.42212199033257,3.620898085763724 51.265799039543005,1.9117671580177618 48.95918095109155,1.5007003268215608 49.019334022496224,0.3311545387863179 52.99110418204631,0.5280380844402947 53.34431067828251,0.570891415986347 53.933710731683384,0.6414660174713098 54.57517674915469,0.7190438871351528 54.78131461351594,0.743388581325919 55.20163576330092,0.8186737143969804 55.98558493969859,0.9576135529917816 56.33412259056119,1.0537000600405306 57.40870739679707,1.352464483425478 58.09069232312763,1.4844844260590564 58.451985926816555,1.3860634962938874 59.52194357371361,0.922889014873991 60.72504668843438,0.42840825717846703 61.744063896451145,0.1830854398847892 61.88879810587626,0.14819415727244434 62.71093176820943,0 63.39295838057477,0.01617421463886599 64.09470252791053,0.16441005803494887 65.3985193090485,0.57664410057455 66.30406689794022,0.9356032815470554 66.87028946849372,1.1602497832339613 67.39253318219257,1.274886613761635 68.3952928033528,1.226238911503741 69.59839591819205,1.274886613761635 70.38117788300936,1.4728956846649932 70.64171613424631,1.687120656301236 71.00300973793524,2.0333238844770385 71.50436870543874,2.9388714733687635 71.88533815782634,3.285074701514946 72.68783765761408,3.6961832188347854 73.73807776965918,3.9115337157500294 75.14152437805897,4.272827319409336 76.50557760290813,4.536825518582473 77.56857366777957,4.635246448347642 79.11325285133732,4.767266390981221 80.06974087910935,4.962941039168159 80.59773727745562,5.070657973734609 79.15264623500643,9.832129994003989 81.22423797775511,10.299931634762707 80.34532781970617,14.344652504489714 84.11558727411536,15.052149336354443 85.2584956312782,15.392599879942042 85.72054458753756,15.530372507163824 85.05936103509583,17.52205195759147 87.07067464821701,18.019950977129156 89.29392049626315,18.498174147938535 93.62002267735807,19.43035916761381 94.227973054149,19.561170212780347 94.88106949913802,19.70131894884219 96.48248349225828,19.91879543788528 96.70596278263142,19.949101247252823 96.80092376451964,19.63299539785599 98.01328119791806,15.611452010946726 99.77802141000677,15.85806709798434 101.60875075033566,16.321283265527875 105.19955145737964,17.046121523374868 106.77549523111901,17.365270459560357 106.9839258320138,17.407415127063796 107.70184419401805,17.610051357305974 108.50542753284266,17.8358650703659 109.39475922103112,18.087107316742337 110.32114986996493,18.34768725404369 111.24282998737189,18.41367638231347 111.68516140866083,18.363903154806195 112.43092609888605,18.221461682121955 112.7273144133717,18.163517975062778 112.99018708729545,18.11378643367914 113.18819615828768,18.07556026144229 113.4904205296088,18.017616554383114 113.58538151149703,17.979432068299523 114.21763489632548,17.72702261055007 115.22268725401925,17.32404288668811 115.88853965195307,17.05771026479855 116.98392583207777,16.53434102582072 117.52238544647987,16.255252451134456 117.72160341496874,15.944940972449464 118.35956779829138,14.028546655092882 118.77876342288621,12.300865403867995 118.71973587679015,12.137622557206065 117.08468118452974,11.171880210756402 116.62613386241905,10.713332888675328 116.4860268125697,10.516449343021351 116.46635096387102,10.385638297884432 116.64580971123621,10.287175681995624 117.22362102315417,10.287175681995624 124.24889948645259,11.324743213491306 124.84759554468437,11.387272393795286 126.12244047229274,11.520417861678245 127.84320182752678,11.80755185754549 128.8737244048384,11.97896518375932 128.575001667429,13.059302674583398 128.64682685262315,13.881478023069818 128.65491395995738,13.976397318745548 129.6981924898584,15.65543086774216 131.22090308818392,17.424923297540616 133.0342910025009,19.5334072567178 133.46966084176424,19.484759554459906 134.63916494373507,18.47616387646419 136.5220436204409,18.734409391049127 137.889556793167,19.09341025811565 141.50003334890968,22.112152337770656 142.03499132928158,22.861335289808416 142.29206963252312,24.19529113587861 145.16720302818013,26.628134796251803 144.07761121861915,27.783799106240963 145.40810711663468,28.880352497827545 146.07391782841523,29.46395818048696 147.41237577542373,30.638131127861023 147.98918662049283,31.14415894082697 148.86113519651613,31.877125992131845 150.92222203693726,34.284499433064894 151.71546721804734,33.5040102047515 151.91810344837836,33.260855065709315 152.2133662375554,32.90885746682167 152.49474754883445,32.57303408257289 153.38170312818283,31.5112052291041 153.75808710726642,30.97508003735918 153.7777629560836,30.73079937303799 153.7027279396951,30.638131127861023 153.54036050154073,30.437829320364884 152.39053224838705,29.021668445262407 150.40577269392062,26.68491129193796 149.99933302215211,26.152246048158844 149.03013072770702,24.883112118985412 148.74066230909375,24.50447708931422 148.38170312809163,23.99382211697983 148.06555559260076,23.195991462684177 148.04129427071652,23.066305942767016 147.90693990527765,22.36577069298715 147.88843126792236,22.245339491777255 147.80735176416908,21.731182885353427 148.0054025211961,21.389606816516444 148.18369405721788,21.129068565338727 148.3840375508969,20.58714900288197 149.69252317752694,18.84558627358138 149.91020809709937,18.71706796506686 150.82730274132075,18.68000900420303 151.28351564062618,18.54915627294247 152.58966684456942,16.758987527507625 153.34702027615907,16.153371573403486 153.8032331754645,15.958822450465929 154.81295437876884,15.730716000813223 157.11265257122943,15.063738077778126 157.92669912622836,14.571591742828641 158.08298039086466,14.477797972402294 158.37249049551272,14.422230374183178 158.6052241045635,14.378209831264105 159.00124224642946,14.443073434284504 159.15985793375256,14.55766857865892 159.59526945905068,15.029013539660335 160.30860234775088,15.647343760437538 161.08092109651236,15.061403655032086 161.69691689460277,15.136688788103147 162.80510071370705,15.27329420395191 165.95936437002584,15.4697192023051 166.0033432268805,15.472512172351925 172.06754818922136,16.13949009538702 172.19373207501945,15.953069765907346 173.37832655238495,14.192956713127831 175.32019108915205,13.948634362712617 176.06595577937728,13.763381244576344 176.88575501902363,13.558368905494104 177.02469485764806,13.281656439677523 177.00501900894938,12.923864470078037 176.52908857467352,12.663284532776682 175.62008103778638,12.471111518708804 174.60694157275836,12.25688654704294 174.11129360363057,12.07734442740085 174.05222437138127,11.556267925045416 174.385713332884,10.303433268852146 174.4945557926702,9.892324751561928 174.71344960985778,9.615612285745344 176.00105049029247,9.176740812392575 176.6356382979262,8.998407590217523 178.39916961251825,9.01458180485639 179.4691272594153,9.192956713125461 180.43140965786955,8.945132728620809 181.17246381644944,8.754085239772692 181.82672747290033,8.673005736019409 183.55090708997653,8.786475355174062 184.95777196021848,9.063229507114285 185.27504502101795,9.144309010867566 185.39318348563506,9.111877209372178 185.55184085911142,8.802732942030586 185.55184085911142,7.370314480101206 185.9443573668287,7.263806443001794 186.02772960723402,7.240628960184048 188.45482058298938,7.875175081694135 189.8026579070168,8.411300273468672 190.47426298947957,8.634821249906198 190.91080003996782,8.78072267058586 191.76073834460567,9.231141199238673 191.8417761622057,9.271660108038684 193.40734009207728,10.061403655029716 194.37654238640388,10.661183552327994 195.18016741150024,11.249458080449866 196.488611351977,12.772126992592513 196.82793637031523,13.37078136464141 197.67437304080437,15.701785833377652 198.27652904691308,16.9477005936097 198.62852664577113,17.101689121593985 198.8635946775087,17.306701460676223 199.58268025085633,17.93199326353829 199.87681751484322,18.793478623357682 200.49514773562044,19.719827586197475 200.64684352707118,19.946808510630422 200.697783965833,19.9946224905044 201.8163893150768,21.043361902217004 203.17114653509506,22.622848996199068 203.67483992528534,23.0130310811703 204.4125175081763,23.582713599689612 204.84326018810083,23.396293270180315 210.78003068099366,17.121364970322293 211.42037117315633,16.388439605141055 212.21011472023622,16.256419662507476 214.69389881951935,16.33283032082792 215.96186553729012,14.411767158008876 216.1633345561593,14.106082838662706 216.2988144467883,13.901153871798124 216.3347478823435,13.837457480150746 218.08552324422772,10.68552824651876 218.6506202894726,10.009296004806021 218.955179083599,9.832129994003989 219.1415994131083,9.723245848064519 219.23422597207278,9.670012672591442 219.56884045888413,9.795071033140157 220.1397318749297,10.009296004806021 220.66656106193258,10.207305075709378 221.32778630029063,10.456254585463412 221.49336356963937,10.51761655439437 221.80830220775204,10.600988794770055 222.19277329428832,10.701702461157625 223.35535750026833,11.188054425395269 223.37966050830582,11.19735043019655 223.7756786500533,11.36292769960452 226.4760221437187,12.368021743481174 226.7388531314892,12.466442673246343 227.3097445475348,12.742071299937184 227.18581171211696,13.258478956859776 227.1036483693268,13.604723871129597 227.1742646569058,14.995372840668287 227.19048055760905,15.306934902943956 227.21015640630773,15.695991462695432 227.21595077710845,15.807168345227684 227.234501100617,16.184594477431837 227.2645984793367,16.77286900552409 227.11290268788596,17.761747148667858 227.0862235710084,17.94008037084291 226.34979657176734,21.54822250383955 226.2814730207219,21.88521309946135 225.99083739076522,23.5584522777165 226.64856099521154,24.37366604414768 226.91601914232086,24.7071133195564 227.18235176424002,25.037142333093335 227.00518575340837,25.52578703395338 226.0105132394639,28.17865003667466 225.08812445816244,30.638131127861023 224.98691055826157,30.90792369771638 223.69118088445785,33.8247848996108 222.92111318619513,36.17659074235435 222.77175181754967,36.635138064435424 222.53785099715552,37.02998899486912 222.12444974324288,38.585131394660415 222.01444007199478,38.996198225826994 221.7747448809184,39.66317614886209 221.5095794704611,40.39964483425641 221.33007903694264,41.60391516040944 221.5431784833295,42.318373574329414 221.67057126662428,42.74911625425392 222.03640865746397,43.980024011220124 222.38152804648442,47.27668745415875 222.52855499232462,48.92791636096918 222.798389248274,50.0279713866452 222.70113552997068,50.72154505436983 222.64323350906477,51.13957346762127 223.0704745548406,52.2071966918019 223.21754318683404,52.305617621567066 224.70786366966934,52.239670179420926 225.35395684647946,52.15513072767222 225.72450476884603,52.10648302541433 226.93690388851618,51.945532915374805 228.01724137928105,53.90824051224324 229.07444307347023,55.45066864536147 229.65458880819347,56.29593810444798 230.3284866270713,57.32879510438718 231.1969752552177,58.23084105915985 233.93437770962842,60.674147935707346 235.43620356175862,61.81538884813198 235.97929033549954,62.228081438001986 239.01312279066767,64.05189088239926 241.44909291007679,65.37655072366817 241.63009404392776,65.47501333955698 242.60046354971624,66.00300973787363 243.97839825258185,66.57619389048239 245.91446841866676,67.2315830720938 247.1766824517901,67.45968952177613 248.8939004868407,67.77116821183414 249.13359567803556,67.7758370572966 249.84805409192592,67.78859301006368 250.84731207905594,67.86963082772294 251.87675081709375,67.77116821183414 253.23617688260407,67.47711432000567 254.3744580804281,67.04282831986808 255.3830537584238,66.65727339426529 257.8838457947297,65.37655072366817 258.7769709197842,64.91917061296012 264.3629110251624,61.67461482024518 266.9486176883594,60.08937504167491 268.0695157740182,59.51156372972734 270.17466484360057,58.72936537049288 270.3599179617664,58.66045821383498 271.5062862669247,58.35010504902635 273.31037817652924,57.986560394838655 275.8636530380827,57.83949176281559 277.94216467682224,57.74107083305042 279.32014106584114,57.77116821182939 282.25438537990067,58.04908957514264 282.64806909896134,58.11507870338279 283.6809677849946,58.551615754019146 284.23910324821384,58.80640132060866 285.9899202961328,59.688729740559 286.71480024016273,60.10208930834798 288.92529013538257,61.81934902955182 291.6140865737183,64.49305509237443 292.4369705863362,65.37655072366817 293.2653154806472,66.26588241179739 293.8072350430447,66.84832088308379 297.091142533157,70.95094377377595 298.253726739137,72.30803541654025 299.94201460681126,74.06347962382767 300.39593476958316,73.87476655772561 300.9239728539642,73.6558727406269 301.2678416594532,73.52502000933673 301.51337290736507,73.6223154138525 301.7102147668954,74.16077502834347 302.7407790302418,74.86477022611875 304.36424498101934,75.78419929299733 304.91308443940767,76.00917928367333 306.10118055092187,76.49632328420087 306.44158940841544,76.63526312279568 307.70138564666394,76.9131844860793 308.4390632295549,77.24087907689982 309.02842159668404,77.25709497766232 309.46033148807044,77.51996765155646 310.0752434470055,77.89514273326185 310.22227039284564,78.78559994664045 310.2732525178792,79.09245147735963 309.51243913829416,79.20708830788732 308.9600980457571,79.187412459159 308.76909224306223,79.47342092977686 308.5606616421675,79.9296338291119 308.6173547655767,80.10104715532573 308.7505419195537,80.34766224239297 309.2310995131684,80.44258153803908 309.8169979324205,80.55726005469039 310.93902154338804,80.61399486428253 312.29848929505164,80.82471820182933 314.06898219178777,81.28097278728801 315.4967318082251,81.28097278728801 316.7530680984782,80.99496431667013 318.4657006603432,80.99496431667013 318.55486727143074,81.01118021743264 319.4615403855126,81.17792469818401 320.22001934241086,81.42337257387823 321.882795304551,81.56931568065191 322.6724971653591,81.33308043754131 323.1067831654671,81.20339491762415 323.4182618555843,81.13156973254851 325.1192639898132,80.74251317282666 325.6797338758377,80.61399486428253 325.9946725138319,80.5422113653009 326.58294704204263,80.17629060227316 326.99859934633554,80.07786967250799 327.50004168614555,80.7981224571398 328.2306743147044,81.71288267858553 329.08636530387116,82.22816481025873 331.48915327158903,83.67442306411057 332.3066597745834,84.14226639099292 332.76866704457103,84.40626459013644 332.8948926165224,84.36803841792921 334.0980374175149,83.9986993930593 334.18370239445375,83.97202027612249 335.05681818182046,83.70456212898355 335.2547855666594,83.55169912624865 335.48289201637135,83.52160174746967 337.2950710331917,84.14572633895872 339.6515040352148,85.16841192555948 339.82525178420434,85.24344694191832 342.16771993602293,86.1628760087969 343.1612669246588,86.55309977989177 344.83563162816336,87.13207830321237 346.4568048422888,87.97159507771066 347.0276545721811,88.29582972053576 347.3403004736418,88.47299573133779 347.9945224438209,89.17240545586827 348.66729473750866,90.19488261188046 349.2601964250582,91.2150253451466 349.61219402391623,91.6967084639514 350.1170546255684,92.38915660642664 350.40652304418165,93.19394884280716 351.39773561001226,94.49430567597932 351.93035916769736,95.48551824183951 352.58695724671657,96.70829720534783 353.1960331488161,97.4378043086869 353.8931501366946,98.10015507235356 354.3829203628336,98.56449676514647 355.2649569798889,100.11501200559896 355.3011822183984,100.17870839724634 355.3486627092833,100.26091342627862 355.3880560929524,100.33036250251419 355.7539351697084,100.84793737078019 356.2715100380336,101.47097812311387 357.18635363163776,102.1136113519582 357.71897718932286,102.49458080437543 358.38824784898037,102.84428566664067 358.6928483292601,103.16268425265991 358.6731307944081,103.98023244180752 358.66270926438705,104.42489828587212 359.197667244759,104.74675681985715 359.41072500499257,104.8382578536611 359.47096144870375,105.03626692456446 359.34936303609123,105.20305309143947 359.2579036883517,105.3859717868297 360.0430200760927,106.13632195024049 360.26299773231716,107.25605282464481 360.59994664181534,108.31904888948662 360.97049456418193,109.78269025544435 361.13377909687864,110.34778730074848 361.1557893683826,110.42186353632289 361.3097778963669,110.53883478956698 363.8491295938691,112.45756352963998 366.1685453211817,114.408724071238 367.6576569065203,115.66043320215226 368.3859967985456,116.20122723938925 368.84225138400427,116.53934336023082 371.80888581343555,119.05901920897512 374.3899653171752,121.17654905621175 376.13498799441203,122.6080921096632 378.0039018209133,124.15398019074723 386.7695758021097,131.28464116586608 391.3300373508107,134.8534316014061 392.6751233909742,135.9059644500736 393.8944007203634,136.86132695256663 394.12138164476676,137.12878509970557 394.2105482558543,137.33609017541022 394.2453144800661,137.41596078169644 394.10058027087797,139.15523077434503 394.0600196758654,140.5122807310153 393.97552191027,140.95928099779633 393.7091892883508,142.36156039485272 393.2147085306849,145.0294720869635 392.43538651374456,144.88707230040288 390.71354131935516,144.62649236310153 389.0600196758927,144.3775428533179 386.4129093577596,144.13897318749088 382.2061128526252,144.25481891548557 380.69499099578263,144.33352231039882 380.08358067099624,144.28262355767177 379.7454645501547,144.25481891548557 378.43927166017664,143.96881044486773 378.18452777962193,144.76430667644695 377.9344110585245,145.3374908290557 377.88113619683895,145.45904755551499 376.9675848729195,147.55840225438544 376.84477756292875,147.8398252517881 376.3816447676325,148.48479290334888 376.03306543061666,148.9688104448701 375.2850496898927,149.78052257721183 375.1043820449123,149.9160024678112 374.3899653171752,150.45216934567975 371.33295537927825,152.74603148136413 367.37977722938996,155.43941339291504 365.81884045885715,156.45722170346477 364.3053841793278,157.31991596078083 363.1567231375175,157.99039551790537 361.9941389315375,158.56353798439048 361.7718268525078,158.61101847527533 361.5957863669847,158.5473637697516 361.3097778963669,158.5149319682562 360.991337624224,158.56353798439048 359.22197025279644,159.32897852331436 358.56891549396073,159.64741879542763 358.3141299273712,159.88594677516062 358.2180434202928,160.02951377309424 357.8822617221381,160.74976655772605 357.67383112124327,160.94894284000242 357.51517374776694,161.0994714199913 356.48114953642505,161.8150970452843 355.42974221303655,161.79888114452177 354.68977189361203,162.3118705395726 352.3646451678053,163.82295071032118 347.97021943578346,166.68657873674252 347.0647135329265,167.18681217902625 345.73655205759775,167.91982091642512 343.9370873074505,168.620356166205 340.908799106282,169.59185119721326 340.85464883620733,169.60919262322514 339.6515040352148,169.9101664109852 339.5078953512168,169.94618321884693 337.61121856868255,170.4198209164115 336.71613419596514,170.64330020675501 333.7332421796773,171.36005135729738 329.4187287400653,172.2342926699135 328.3834956313453,172.48903655037935 328.16118355231555,172.457771960257 328.04888114453394,172.10810878408577 328.0176165544708,171.8058427266114 327.9701777496207,171.36005135729738 327.980557593607,171.29522944040062 328.00140065364906,171.1527879677164 328.16118355231555,171.01034649503214 328.7181934903447,170.86673781097488 329.1802007604508,170.75556092844263 329.4662092309502,170.6444257320044 329.59360201424494,170.37346595077602 329.6410825052483,169.80028179816728 329.6337874341151,169.59185119721326 329.6098179150667,168.90982458478868 328.8108200494276,165.84356032815478 328.0315397186405,163.1224154605413 327.7084722871588,162.1439588474482 327.60075535256277,161.81855699325007 327.0912259054185,159.77476989262837 326.33512305747877,157.4032882011565 326.05607616888653,156.53138131128645 325.57551857539033,155.6641015807256 324.60168912160646,152.96838524645827 324.02846328287404,152.36393650369752 321.9731291269819,150.00516907889875 320.25124224643923,148.4546955245699 319.2646985259823,147.3407590208774 318.3719068899169,146.56143700393704 318.053466617774,146.35529913960542 317.7964300006857,146.2627142666461 317.65628126456465,146.2117321416718 317.14679350357363,146.10055525910994 315.4527529514889,145.9106332955408 314.852931368067,145.86202727940656 313.95434536120086,145.79024378042493 309.48696891879473,145.42899186285965 306.99739044882944,145.28534149270837 306.443882144949,145.25411858868003 304.91308443940767,145.16599413059458 301.3084022544657,144.95881411326087 297.60525745348684,144.66355132393574 295.87186520376775,144.52461148537057 292.80555926103983,144.28028913492574 287.72218702066175,143.92249716535588 287.9491679450651,144.2941706129422 288.60455712670614,145.36296104849586 288.83499799910487,145.73930334154463 290.3032665244014,147.86529547122825 291.58511472030716,150.0202177682882 292.13166144204354,150.69649169612458 293.0915677316577,152.50287634229232 293.9727706263586,154.77243546987995 294.2032114987574,155.36762989393344 294.5610451544509,156.13882311744553 294.63628860136873,156.75948776093915 294.63628860136873,157.38127792971179 294.1464766890764,158.96768491962544 293.7493330221388,159.96815180416328 293.3938337891321,160.86790502234317 292.0552090976291,162.43342726606147 288.43664543455213,165.86094344026068 286.81663943177006,166.76415660640635 286.3465450543297,167.02698759420647 284.0317981725092,167.93020076035216 283.34631161214844,168.1212899352943 281.02806309617927,168.76509037551165 276.7831654772974,169.59185119721326 275.49310511571616,169.84313512971332 274.35949276326573,170.06432168343443 270.17466484360057,170.72412959379608 269.1012472487081,170.89341692788207 262.89580971120927,171.87416627759757 259.8075768691654,172.15554758887663 259.16606916565934,172.2134912959358 256.9439488428033,172.457771960257 250.7975805376723,172.6465267124531 246.56064496766493,172.74032048287944 244.24589808572597,172.80284966318342 242.94203961855322,172.83878309876823 241.87324918299956,172.81327119323407 239.0212098980019,172.3037834322727 238.5626625758912,172.2887347428832 238.25810378176482,172.27827152670892 237.87367438138176,172.48445107716418 237.5448542653711,172.66040819049917 235.82296738482844,173.52310244781523 235.60528246513755,173.63307043285081 239.32226705797964,178.07264223304114 239.42531514708364,178.19194790903128 240.59719535789452,179.55254118588502 246.43904655517088,186.33812445807743 250.58102114329003,190.84601980925396 256.8652037618553,197.4671513372878 259.2169679183864,199.7008187153846 261.7621556726056,201.3949009537707 266.9474504768975,204.10795871404991 267.14199959977583,204.18324384712096 267.5236777162949,204.33031247914403 270.14686020141437,205.3411592076385 270.17466484360057,205.34837090640596 275.39005702673063,206.69020542919222 283.5639965317209,207.9222387114078 288.98206663109835,208.67838324550078 297.42463149465976,209.8548906156209 298.5015507237009,210.01813346228283 304.91308443940767,210.99404722204133 305.5383762422105,211.08921663442925 308.8547155339663,211.86040985794136 312.98051590753545,213.51630761021426 315.7942873341726,215.09571133194905 320.4307426799577,218.57883679049098 323.63015240447453,221.390315480565 327.60308977524954,225.97116154203692 328.14150770361687,226.59186787165416 331.2019775896278,231.05574267991162 332.43288534653476,232.8528730074017 335.36829687193773,236.53167311410098 337.8777596211311,239.06873207495119 338.53064763559075,239.72874841593102 339.6515040352148,240.69265657305908 341.39077402792265,242.18822950708778 343.5040102048392,244.00391015805678 352.9227389448713,251.72509671179625 356.74168778766204,254.84230140731046 361.53325718674,258.7527095978111 364.7060294804141,261.2596294937587 366.6675698658799,262.8101447342112 368.0362919362211,263.8233258853925 371.7173847795428,266.54684686187557 374.3899653171752,268.2697342092967 382.9791402653997,273.80715167078796 385.4182368438151,275.37967718268516 389.98169979329964,277.97922363768606 392.02894684185753,278.9600146734956 398.57833655703337,282.10039685185717 409.12838491298237,287.15333822449674 415.9857933702801,290.4375792036278 420.24353031417627,292.5253868471982 421.59253484954706,293.1865703995215 424.6055242446731,294.5702994730693 425.4276579070063,294.9466417661477 425.77619555798736,295.10759187618726 429.6507119989972,296.88504635494905 430.0883745747941,297.09347695590304 431.6898302540676,297.8577502834539 435.35474888283926,299.60510738343675 437.18547822316816,300.4781814846798 437.08718235186274,308.5456129526891 436.9793820449602,317.3876559060823 436.9550373507694,327.3379243647034 436.9364870273793,335.61495364503975 436.9353615020707,335.6890298806141 436.9330687654187,336.87900186754393 435.168411925518,336.9509937970845 432.2370022677474,336.9474087907478 432.2355849396029,339.1186720469412 432.2391282599049,342.01064663509675 432.2407540185787,343.2840325485259 432.241837857734,344.07777796303077 432.2477572867575,345.41069165609883 432.15271293268125,345.4087324084359 432.14583472296215,343.2840325485259 432.13691389315517,340.47772293736836 432.1450010004894,337.3526812512321 432.1507119989836,336.9633745747981 422.63201994270054,336.9744630827677 422.623807777025,337.79976489026046 422.641482692026,342.0254452077444 422.643608684065,343.2840325485259 422.6452344427388,344.30938604680256 422.5438954846151,344.3149719869258 422.54381211230856,344.29433735741304 422.5450626959585,343.2840325485259 422.5462299073019,342.3624358033662 422.5498149136386,338.0265790702285 422.553983525647,337.0006419662505 413.0495481224043,337.02406956578045 413.04637997736324,338.50080037349437 413.05313312885954,342.9753468285147 413.05204928970414,343.2840325485259 413.048631027862,344.32468485293384 412.97972387114487,344.32943707061395 412.97447141998106,344.30246615087094 412.97230374178883,343.2840325485259 412.9622157007569,338.56495531247214 412.9480007337513,337.0201093843606 409.12838491298237,337.01990095377204 407.95283632364675,337.01990095377204 407.9132345094483,336.84865437202313 406.74114586810805,336.85624124590333 406.10222270397134,336.8329803908383 405.99442239718724,336.8521976922362 404.1482691923561,336.8599929967346 404.1487694257213,336.97125325151416 404.0244197292448,337.0351580737501 396.3446274929314,337.06929900619616 396.30002334425177,337.10744180615615 396.30002334425177,337.1281598079162 396.2999399720637,337.1920646301521 396.4150353498626,337.1916060828217 396.4071983593294,337.153713399574 396.9926382312512,337.17714099913354 396.99305509242834,337.2782298405746 396.37660074700756,337.2676832521827 396.36938904818084,337.29928133129414 396.2076469019699,337.3061178549785 396.2156506369976,337.35680817714655 396.2860168077755,337.3698142466258 396.29677182690415,337.40849896616345 396.29706362974,337.4776145534396 396.27201027153626,337.59942139664065 396.2615053692087,337.7020526245379 396.2544604148766,343.2840325485259 396.2525428533669,344.73933669043714 400.8992946708317,344.71549222970043 403.82570199423964,344.6938571333092 403.84846261590985,344.7000683652278 403.84154272003747,344.76968418595794 403.8026078836988,344.7697675581756 402.78133962518325,344.77256052825203 399.7901103848786,344.77522843992796 396.251917561542,344.78002234376135 396.2605882745479,350.36371139864076 398.16514373376856,350.35228940171163 403.3935419862891,350.3300290135251 403.40129560463424,350.3487877676222 403.38603848462657,350.39314179950077 403.33218001738777,350.40610618288605 401.74243813782,350.3977689588396 399.98503468289925,350.4132761955595 396.2618805442326,350.4366621089658 396.3318715401051,359.00315980791544 397.3426765824463,359.00536917226094 403.4236393651273,358.9940305475791 403.4767057960466,358.9938221169905 403.47733108787156,359.0510154738834 403.44173114130547,359.05176582404965 402.471194890904,359.0551840858918 396.33316380978977,359.07381778161806 396.3751834189815,364.6386647101827 403.4648669379996,364.61715467216237 403.46524211302346,364.68964683518664 396.3732241713186,364.7250383512234 396.37314079913057,365.40639798572903 409.12838491298237,365.34941305942465 411.85886747152074,365.3372823984529 411.9015540585723,371.5356749816492 411.901679117032,371.5732758620611 411.9406139531338,378.02245214433304 411.9507853665907,379.7077386113423 411.6807426799935,379.8141215900708 410.89716867873824,379.8123290869024 410.89996164875544,380.5870239445039 410.86340292137527,380.58714900284525 410.9052557860725,390.39493430265844 410.9454828919774,390.39485093041117 410.9478590009359,390.9523194157115 411.77512005609157,390.94423230840687 411.79650503577056,390.923055759346 411.875708664049,390.7473904488765 412.4336356967389,389.42510671644766 412.4482258387684,389.41610251448225 412.4733208831254,389.4159357700173 412.5136730474901,389.43356899886504 412.51375641967815,389.460664976979 411.97379610482506,390.7135830053899 411.8656623091703,390.96194890947226 411.8480290803226,391.0007586873808 411.8852547855625,411.62484159272606 411.88179483768556,411.66648602680505 411.86395317819,411.6785750016532 411.03469118921817,411.6720719668987 411.0095961448612,411.6811178549878 411.00601113852446,411.69316514371224 411.00784532784604,412.7609134262638 411.0105549256752,414.35107216700874 411.0286050157001,414.3871306609645 411.04686353637277,414.3926749149641 411.8833789102061,414.39617654905356 411.89029880619694,414.402179350354 411.8773344227228,417.131536383643 411.87003935170804,417.1372056959839 411.02660408188393,417.13412092310125 411.0157240045325,417.1371223237366 411.03089775235213,425.4716784499254 411.03923497636896,426.52041786166757 411.03469118921817,427.94725038350333 411.0477806309151,429.25240112050886 411.06691456021383,430.46417494829484 411.05682651906346,430.7724021209756 410.6122857333105,430.9728706729663 410.15711498700716,431.64693523642757 409.12838491298237,431.15766524377216 407.69171446673806,430.4743880477569 407.38507136660746,430.3536233575579 405.3130627626816,429.3805859400935 403.9423814446775,428.7311995597825 400.5966117521802,427.14771059825694 399.58935003002244,426.66448509302563 395.01300606948877,424.5097712265543 391.0041769491933,422.60921763487704 389.9136263590553,422.10531581403893 389.9071233242416,422.0845978123085 389.9197959047614,422.0425782031464 390.3433685720125,421.4556793170157 390.37521676786577,421.42408123790426 390.3558327220029,421.4034882945151 390.22222870673033,421.3358317214479 388.98565163736396,420.760563262835 388.8771426666853,420.71387480824 385.92584872944974,419.33181317945997 384.2771626759739,418.5586190221909 383.70089375042323,418.28870139396463 381.439046555146,417.21340792368613 379.118213499689,416.1284015873996 376.90034516114787,415.074159607811 374.8473454279425,414.10908423930994 374.3899653171752,413.892649903269 371.997848996161,412.7609134262638 371.95916427674183,412.7426132194971 371.908849129568,412.72710598277723 371.8841292603534,412.71956079502064 370.05865237118826,411.85340658973877 366.93369405715123,410.370881411313 361.48957013272116,407.80347495497165 355.25795371171,404.86672947373074 352.5679483759961,403.61206062827506 352.49699859942797,403.5773360901573 351.34717034615585,403.02220202760304 351.2198609351676,403.0447125325018 350.9201794170626,403.1683535649949 350.4774311345965,403.351063829767 346.1457430134672,405.0226772493779 339.6515040352148,407.5356833188732 337.68900486905346,408.29503768424945 337.6727055959252,408.301415660633 335.8693223504521,409.1183385579852 333.6931401321137,410.0392266391023 332.9184452745121,410.34461915558296 328.98381744813236,411.8913826452338 328.9068231841995,411.93936336957273 328.86838858134445,412.01956746481846 328.73311712136325,412.7609134262638 328.7164426733296,412.8523727739441 328.73636863871087,412.99585639963044 328.8142799973046,413.05955279127784 331.16842026279414,414.58259687853325 331.461682118392,414.7751867538079 331.5004085239644,414.8389248315789 331.5006169546122,414.8866554392056 331.50082538526,414.9506019475652 331.3732241713174,415.1032148335879 331.9429483760196,415.4951894217275 336.4350863736752,418.56766491028 338.60472387116516,420.0499399719639 338.4883779097164,420.15669812577556 338.5417361434715,420.24515607282046 338.9000283466139,420.66726972586264 339.0929517108184,420.88979023542174 339.30446708468475,421.0778363236048 339.6515040352148,421.3397919028678 339.877984726253,421.5108300540281 341.33458113787856,422.5147568865317 343.46649269664493,424.02054292002254 345.22518842136884,425.2732108317212 346.02218535319173,425.8136296938455 346.7122990728913,426.27330254117595 346.8411925565186,426.3675965450563 346.884421063207,426.41820349494753 347.0477889682102,426.49473921160927 347.109609484442,426.520918095092 347.18501967585433,426.6303024744855 347.2039034882335,426.6502701260497 347.2280814380482,426.6609834589362 347.2519675849085,426.6654438738101 347.3455112386523,426.6429333688817 347.40999966655994,426.66727806307244 347.4232975389047,426.6870789701717 347.4288834790576,426.7024611485206 347.4609401054403,426.7264306676283 347.5364753551939,426.85057193354584 348.49558960848856,427.4830337490813 349.10708330558145,427.9279080237345 349.6262839325805,428.2704845594499 350.0329737210316,428.48458447274487 350.5061111851718,428.75771193222477 351.2292819983398,429.3315630627525 351.6696124858126,429.6154455412425 352.8386997264878,430.2900103381578 353.3376408991164,430.6117021276483 353.3871223238175,430.6415910758387 353.4550706997206,430.7119989328291 353.85755019012845,431.0079703861672 354.62620056024673,431.7477739611564 354.8967017941743,431.97392116320543 355.09254318685583,432.13253685052854 355.71245748015355,432.5357250049791 356.3645117721405,432.94183118787697 357.1145284466806,433.4115087040513 357.7381111186216,433.81157039949557 358.05671813514056,434.04551290601336 358.7324084573052,434.55066531047174 359.46725138402576,435.0943773760969 360.1052991395364,435.524661508691 360.52491162542685,435.11105182416014 367.2882761956156,439.758762422439 369.3219335689929,441.15620622956806 369.45432868676886,441.28484959645345 369.7701010472358,441.50441039150076 370.93731241243614,442.3170396184737 371.9551207229562,443.0162409124156 372.02298572667127,443.0554675515013 372.9514189955745,443.70226939238364 373.2007436804709,443.8758920829726 374.3899653171752,444.6883128793273 374.87152337763877,445.0172997398622 376.7642399786939,446.32215867403187 378.46828519974105,447.49933302207097 378.72148669381,447.6742062962506 380.69761722142374,449.0645217768298 381.34341859527956,449.5323234175885 382.2054458747655,450.1263923163926 383.9050306809683,451.28572500499536 385.4520859734846,452.3651454011883 387.09760388180086,453.49158774093564 388.86588741407303,454.69539951975827 390.12243213497396,455.5525078369807 391.6223404255945,456.59341025810085 393.3800773695043,457.8003068098358 394.9879943974383,458.9028213165991 394.87973554332376,459.0223354231778 395.4567548189222,459.4187704261913 395.4840592276247,459.3988861468448 395.6498866137745,459.50622790635776 395.5026095511333,459.6645101046918 395.32702761294064,459.5511238577844 395.3501634096348,459.5111468685324 394.7678499967193,459.1192139665165 394.38154472086137,459.4971403321451 394.0751517375318,459.7969469085321 394.0588941506753,459.8255852731022 394.57205029019104,460.1802507836954 394.5887247382247,460.2376942573005 395.0718251850555,461.80288301205934 396.0130977789731,462.0712999399531 396.0409024211593,462.0798455945881 396.15995798043724,462.11669612483377 395.9925882079201,462.4963733075367 395.29901454010667,464.16544387378343 394.76509871273686,465.40418862134203 394.61165210438946,465.71129026877344 394.51531548051,465.93110118053295 394.3567831654934,466.3299122923865 393.3944590810044,468.59017541517284 392.6268508637698,470.3736743813587 391.82030781031494,472.23554325349824 391.06854031887815,473.97022777296127 390.41406823189794,475.5260788367655 389.77527012610255,476.9924714866761 389.28437437477334,478.1235826718859 388.5674981657712,479.80932768625513 387.79597145332923,481.6060828386325 387.5257203362027,482.23775261787813 387.00947942371545,483.4449409724489 386.25366837861156,485.2022193690283 385.52695424537853,486.9097245381005 385.02567865006307,488.0961532048172 384.3952177682845,489.5889748549227 384.37879343693345,489.62790969117253 383.6192306409983,491.4262072300357 396.3296204896063,499.78869305675187 395.7942873340921,500 381.48852797972853,490.5965283798867 379.0996631761804,489.01095511238657 376.8236010138976,487.50537750948433 375.94898452607987,486.9391132528368 374.3899653171752,485.92376442337445 373.72886513704003,485.4932301740681 372.2124491429989,484.48976188886525 372.0062279063311,484.3483625691831 368.7583789102338,482.23775261787813 368.6796338291673,482.1865620622856 366.39077402790485,480.69048889480285 363.92453978528147,479.0905756019262 363.81361301937255,479.21008970850494 363.5470302807708,479.04251150536965 362.2059044220864,478.1568065097008 360.55342493162607,477.0820132728467 359.4075151736797,476.3332888681394 357.60421530051315,475.16491029144754 356.1944324017942,474.2400203428166 354.66776162210806,473.2576452344273 353.49162942710075,472.4889948642498 351.7905022344121,471.37981057826704 350.0045021009857,470.2156006136132 349.89324184620614,470.1591992929806 349.8800273460494,470.1561978923452 347.0644634162439,469.99895784698367 347.0062279063489,470.04839758553146 343.541069165703,471.1475355165763 342.99047889018107,471.2950626959001 341.3596344960823,472.05141566064094 339.6515040352148,472.8353231507965 337.9778063096885,473.6035149736436 334.7443390249728,475.09220969783473 333.6987260721481,475.5678900153391 332.386447008652,476.15820716334156 332.23658540652286,476.1673364236483 331.4741045821107,476.02998065763325 330.59315180421083,475.01367304741603 328.316464350103,472.47415460547853 326.8546988595017,470.81600580270685 326.00242613217705,469.8664793570197 324.4093076769204,468.0703911825317 322.98914493433364,466.49548956179444 321.9154355366053,465.30059861266034 320.55163242855724,463.7871423330717 319.09366037494044,462.1457513506106 318.9478840125132,461.98163309544117 317.8121456680238,460.6956579737099 317.96013139467806,460.60715834054133 317.9091909557977,460.54954812244165 317.62214033217776,460.23094110583384 317.03645034345493,460.10509070899525 316.8768758754362,460.0788284532652 316.82697758955806,460.07057460146603 316.71867704929025,460.0527329420297 316.4102414459913,459.909291002467 315.5228690055842,459.4963899819788 315.0832054959712,459.2703261522067 314.99787400790296,459.28645868069225 314.8713149469625,459.313304542094 314.51560728342645,459.38867304741234 314.2316831188128,459.4384462749196 314.0791536050078,459.448784432723 313.56887380781575,459.44057226704746 313.2423047423039,459.4634579470294 312.96884379374603,459.4962649236079 312.83040418860526,459.5023927832792 312.7651237243781,459.5048105782429 312.66365970791315,459.50097545519395 312.6052157673703,459.4992663242729 312.4040802373718,459.46012305740487 312.30716000805756,459.4446158207146 312.1787250717607,459.43490295470656 311.9883862469256,459.4603731741467 311.74889948637855,459.5366587740962 311.49240478892716,459.58101280597475 311.30102381109,459.5839308343629 311.01284766227985,459.5908507303241 310.8625275129388,459.583097111979 310.6364636830778,459.6003551657436 310.27579537121386,459.6570899753061 310.0508153805082,459.6976088841357 309.86168545316974,459.6903138130914 309.6495864737502,459.657215033677 309.44344860938895,459.6398319215415 309.30555092376665,459.6384562795799 309.23789435069943,459.6465433869142 309.03942673249526,459.70281964914625 308.8606766491431,459.7454228639801 308.7491245915277,459.7536767157793 308.03537484153185,459.79582138331233 307.6554475422648,459.81512205695753 307.02336090181245,459.85276462349304 306.336415327154,459.8772343760251 305.9245147735739,459.89624324683444 305.5833972520673,459.9333855799159 304.91308443940767,459.99587307409627 304.89849429737825,459.9971653438106 304.75284299341075,460.00366837856507 304.68518642034354,459.98999533113715 304.5300306810159,459.9439321683375 304.4241896218947,459.9581471353135 302.56061161874516,460.2009687854258 301.38343727073567,460.3757170012641 300.4666761155034,460.50156739810274 299.8011155205239,460.5841476021885 298.9017374774568,460.70770526243433 298.1124524778258,460.80533415593925 297.0807626892892,460.95294470751037 296.04398719408346,461.0915510571457 295.0095044354112,461.22494664174087 294.504643833759,461.30031514705917 293.37253218164113,461.4433402254151 293.11095177752054,461.4806493029912 292.53118121793966,461.5626042152816 291.43366904553903,461.7077969719187 290.7475155073185,461.7957129993859 289.5491646101594,461.9532865337069 288.4727456147204,462.11086006802793 287.92086306951376,462.1775578603107 286.67127993063843,462.34842926697644 286.5688571333594,462.22032781963907 286.0651637430507,461.5904088574678 285.79883112113146,461.2569198959355 285.1411075169221,460.43591175882204 284.8829453745252,460.111718802091 284.6050240112416,459.7654322016679 284.39309177619816,459.500308477275 283.37061462018596,458.3006653104608 282.75695324490084,457.57924531445593 283.4192623224142,457.18322717267887 295.35654138605975,450.042186353633 293.10849229649244,447.49933302207097 290.3866387648067,444.4226889214804 287.63648035756967,441.31127859667805 287.32621056494906,440.9604065230398 286.3720152738291,439.88582171680395 284.8458447275081,438.1674364703507 281.9683769092828,434.928633362224 279.08273861141674,431.6794504101702 276.29439571800725,428.5425698659277 273.5268958847583,425.4253651704135 270.7270059361376,422.2711015140355 270.17466484360057,421.6498949509642 268.890482225008,420.2053041419098 267.9189455078761,419.1192139664975 265.0924181285311,415.96144867603005 262.22662242385826,412.7609134262638 259.2644484092712,409.45261955577786 258.9958647368533,409.15272960714356 258.8024411391651,408.9361702127612 256.8154305343184,406.71525878743154 255.94923464282405,405.74022043618055 253.1562645901942,402.5987544187229 250.4652171013597,399.5706746481726 249.25977956383366,398.2136246915023 247.58191322618043,396.32611885545765 245.9584889615562,394.4988911491886 245.24169612486057,393.02020109384137 243.33689054895729,389.0854898952736 241.57106649771322,385.43332721935786 239.73104115255344,381.63526312279214 238.8857300073729,379.8890732341527 237.97338758095012,378.02245214433304 235.43620356175862,372.83382245047585 234.22618055092852,370.3591676115291 232.4602731274964,366.7463566330996 231.0267291402584,363.8179066897815 230.4593393583615,362.6576569065476 229.92900853732843,361.57152504501164 229.36161875543152,360.411233575654 228.7339925298234,359.1270926432148 226.92531514703327,355.42740779029054 225.49756553059598,352.5059194290573 225.05869405730243,351.6050406856576 223.2349262989992,347.8648786099978 221.001967584945,343.2840325485259 219.58530647638847,340.37713432935175 217.80068198495326,336.7184686186815 214.8757336757246,330.7133328886789 214.64641832851598,329.49980824384824 214.50864570135343,328.7691339291657 213.5961365304361,323.94167278062656 212.70805542589756,319.23810278129275 212.6014640166101,318.6765073701077 212.51696625101465,318.2248799439582 210.6894884279149,308.5456129526891 210.53804275326524,307.74311345293097 210.40831554728368,307.06112852663006 210.34349363038692,306.7148419262366 210.18946341624937,305.89854432067966 207.7716684453249,293.9971570065842 207.52738778106294,290.2627476155422 207.71726805844918,287.32275061695367 207.75432701931302,286.74260488226 208.063471286625,281.939405055694 208.2070799707415,277.52301073835105 208.32809477756385,273.80715167078796 208.41667778297966,271.08946675114026 208.45252784634684,269.9974988327689 208.7443306877654,263.1412992729975 209.2318498632872,252.82052457813347 208.45140232103822,245.887872673918 207.52505335825768,240.03097278728177 207.37273227510045,239.06873207495119 206.9727122658391,236.54092743280825 204.75059194286462,224.67313913158117 203.99332188358147,221.8326885880072 202.63156139538432,218.86947242044766 201.27792970055623,217.19164776894772 200.697783965833,216.6986677115847 M412.41741979591717,386.60945941439485 412.41721136526934,386.5542253051352 412.416919562552,386.5095377842972 412.40678983524833,384.2130911091842 412.4024961648986,381.6180050690275 412.39103248187547,379.0475972120211 412.3895317815429,378.02245214433304 412.38711398654965,376.42729106916613 412.3782765290491,374.453661708793 412.3904488762038,374.0925348495986 412.3502634563336,371.75898752749816 412.3502634563336,371.7440638964796 412.43200993794665,371.73631027813445 412.44126425662427,371.7738277862991 412.49278830129475,374.0922847328568 412.48090775697597,377.0610034682627 412.48124124596507,378.02245214433304 412.4816997932955,378.9898202494269 412.48570166080935,381.5478473287493 412.4976655773162,384.2053374908094 412.508295537985,386.60241446006273 412.41741979591717,386.60945941439485 M435.74901620757163,349.503601680783 435.74980824389115,349.5723837790996 431.43846294943876,349.5727589541827 430.71104015207425,349.57480157406326 426.0980957781257,349.5852647902376 425.8961682118076,349.58964183283456 425.87278229843093,349.5780530914405 425.87253218174834,349.5167744947568 425.895834722937,349.509145934753 430.49043720402483,349.5025595277809 433.45511238579326,349.5016424331201 435.74901620757163,349.503601680783 M412.34897118653043,368.17298072431714 412.3369238978356,365.38280364170447 412.33659040884646,365.3042669912562 412.9605899419646,362.3990779030031 414.0762772627314,357.02052624557683 414.1361802174535,356.70917261388973 414.1498115787874,356.7011688788028 414.21650937104056,356.7134662842691 414.2189688521871,356.72884846261803 413.9592226372697,358.027120989786 413.00285966783895,362.53755919426754 412.43175982126405,365.3208163809782 412.45068531991495,367.10915093709144 412.43092609879125,369.85580771026866 412.4206713132648,369.91675281796324 412.3462199026665,369.90837390782275 412.3355482558444,369.88211165209276 412.34897118653043,368.17298072431714 M414.1878293203468,354.86614586806496 414.3366070833206,351.04402888014425 414.3831704795447,349.5959781231241 414.3980941106817,349.5587107316717 414.47396284930596,349.5645051023835 420.3895151071328,349.5331154538606 423.5417361434822,349.53611685452563 423.54194457413,349.5861401987451 423.519142266425,349.59856266255275 422.52697091978035,349.6015640632177 417.7903855132498,349.62586707128486 414.50947942368407,349.6422080304183 414.4866354299443,349.65458880810223 414.3826702461795,352.55673480956665 414.2868338557837,354.8346728473244 414.2869172280902,354.8658123791055 414.1878293203468,354.86614586806496Z"/></svg>