<svg xmlns="http://www.w3.org/2000/svg" width="500" height="500" viewBox="0 0 500 500"><path d="M258.02060418128065,284.69993366276145 257.6669680703829,283.63719617783585 255.8801911341789,283.2666404081928 255.64308726774286,282.22082258201243 255.016373961728,279.44538882900224 254.90845397611795,278.79969806795356 254.76661845849446,277.96552840551425 254.0277933594447,277.2880561232635 253.83306485461142,276.9324384307626 253.4434554152492,276.22524242365245 253.32067356712824,276.0008664084827 252.7934966320903,275.0418571017422 252.4018293962771,274.05952610322646 252.10550672401592,273.31856699331115 252.00391255680466,273.06233324230806 251.6206289358412,272.10118992453954 251.41317257947088,271.5825490335055 250.66802166202237,269.7110213742584 250.41605593307543,269.08019247561236 248.62714498611416,269.16692478036686 246.26868174229554,269.3109705238121 243.45506443510746,269.48664535908864 242.82423553640726,270.2466581387773 241.9223110243014,271.3348513265063 242.1763345496993,272.1647529668895 239.62748703751814,272.6283668596858 238.66413349409035,272.8041179095936 236.09188807550268,273.0200340953907 234.7793950873435,273.12803029563196 233.0010017657726,273.2761916317625 231.92759422597751,273.36932596960116 228.6757425139486,273.6403453683756 227.19801610154278,273.76526122736215 225.4620743563142,273.909230756122 224.93489742127622,273.95366391401325 220.9590824729251,274.3326032983436 220.13764066186036,274.40881797738274 218.230139674203,274.59089484568926 218.230139674203,273.5068934652769 215.6070590646399,273.4265631935524 214.26911037362328,273.3863218430318 214.0022827821654,273.3778620136592 211.9742101721005,273.3163567676519 209.41255859385936,273.47854160470007 206.08654999940472,273.6890465482688 203.802319852968,273.8351500880567 198.94782586965505,273.9621237433859 197.90833386187344,274.0467982518519 194.9888543653097,274.2817681073682 190.96860625912146,274.21622348341504 187.56226739288815,274.30303200285493 186.50585572636126,274.3305455020009 186.236970338669,274.3368713203455 181.80592511220888,274.4511933389855 180.94218415428088,274.4723048050474 172.54797561626714,274.68197138718523 170.72514913685916,274.7284623414192 162.47064210571165,275.03758907974026 160.50605632320304,275.1116697478056 152.56913585974928,274.9846960924764 151.82596652422885,274.97196824104765 150.02867196241783,274.9381289235571 149.68989771381442,274.93172689047293 149.31309234051213,274.92540107212835 147.58759200636763,274.8936195509804 146.02305707452194,274.86610605183444 145.90027522661762,274.87586153075017 142.34364101295492,275.1582369166707 142.4791507123963,273.39058986503375 145.09788708527205,273.2889194831371 145.1889636266597,270.2996273407266 144.72108171196976,269.810557745127 140.01063347199377,265.5658574090295 138.4800140723782,264.1854571417247 128.777428138674,255.43989893326616 127.21357913905085,254.0277933594447 126.35540185277618,253.2529187173534 118.57312097300591,246.22630638058448 113.16820457729435,241.22372727582635 108.13376773670292,236.71860138135506 103.47202067694504,232.6072005189855 98.56463370620573,228.00048045735713 92.27905669403752,222.41767900081805 90.69752588870702,220.69225488141308 89.84224476015169,220.08680547088497 88.84512811375623,219.38181968948825 88.40049167621035,218.4884312214404 88.25027254373711,217.34940284273605 85.99553747832029,212.05248264742818 84.90521027956328,205.91087516401984 84.0118980260925,202.0472482232807 83.31750608509648,200.9569210245237 82.38806807368218,200.97132559886822 80.0444666923745,201.00775621544494 79.30556537880183,202.2207890475292 79.17851550894972,202.42832161863905 78.34015403913968,203.80856945657308 78.24077009764183,203.97166886979164 77.96555889133421,204.42468892218724 76.17870574082391,206.60313309398782 75.2344820816382,209.7597164569876 75.20483457157249,210.35464824180042 75.14134774379959,211.58886875468605 75.09478057498858,212.46320355296058 75.03548555464053,213.6255536234402 74.82376117610582,215.3445757098152 74.74327847506471,215.99240048194605 74.70311333917537,216.30998704958566 74.57613968384618,217.35367086479212 74.37920095308287,218.9352016701226 74.13996307567295,220.8806575680642 74.04469472686044,221.65134040278477 66.75773304613237,221.79950173891535 60.06349292488276,222.19543699667634 57.368465658390754,221.71276943416086 56.19559796214166,221.50310285202298 53.466731378159075,221.8482029188627 52.21338098086888,221.97525278882313 46.77889328983113,222.5299432231154 39.68666011415295,223.2243351641114 33.906996141806715,223.74297605519965 32.68550348029565,221.95833313007785 28.360320443211172,215.64097459670757 27.82895170074835,215.04611902658016 27.61722732221364,214.80688114900778 24.48609966207132,210.19795086166596 23.558795661847522,208.83035466042114 22.80937672266785,207.8987826381954 22.184797427626876,207.12390799610412 20.89554991639512,204.9941650041426 25.703400516157526,203.16074468449636 25.538243306650436,201.84825169622886 25.407001629156838,200.79184002964783 22.879265583145813,196.38617429135977 20.459449522744805,191.9254815548339 19.79889689945598,190.7081807007477 19.673371322878136,190.51550999204048 18.87586092096334,189.29226439298242 18.61330135166985,188.88962224344996 18.009985952278086,187.96231824322615 17.027578738914492,186.0315717783706 16.18715947287009,184.78889143616647 15.787032407900861,184.19815145867022 14.73481254858222,182.2271636432941 14.163278670230062,181.2787481769543 12.657962543992904,178.78904325580456 9.869877154185188,174.00862994055692 8.67787957347739,171.96356145706136 7.903004931440256,170.57691158609734 7.0308041441396325,169.0145106651714 5.622966592428406,166.4909664265311 4.860819801711695,165.12961982899967 4.515719734926115,164.5305724515015 3.711197582606651,163.13965455848142 0,156.70789779183994 1.0373579968077131,156.77359484521796 1.354944564718083,156.79264851499127 1.839746138153288,156.82229602511114 6.402033041890407,157.108101071657 6.3152245224505394,156.10244838131183 6.253871705651521,155.37414090813985 6.266523342449031,155.00373756786755 6.347006043706759,152.84640486212882 6.402033041890407,151.31151744034887 7.403417710233651,149.05472457842689 7.941188485618143,147.84588355371335 8.832366728115034,147.30178695982178 11.559251730386173,147.44994829595237 11.709547077598948,146.11207581956694 11.47876902934506,144.49243767468977 11.36231299983948,143.68372371505376 12.353103827619574,143.13970333590171 16.73758188505209,142.57434284652342 18.87586092096334,142.4575057435368 23.08451171401932,142.2271087687098 24.570774170537298,140.78969992145576 24.56650614858952,139.18492363898125 24.562314341164655,137.16104283628707 23.876382229541278,134.30085836017966 25.5128638185325,134.0531606532346 26.031504709458286,134.00659348431532 29.97569056603224,133.6550913844456 30.42238480002909,135.14341163730626 31.859793647283116,135.2408139971468 33.57264234463012,135.21124270165816 34.63743762600674,135.19211281719944 36.52169313673667,134.89579014499245 38.264036914886944,134.81103942189526 37.69029281082136,132.71940376948038 37.65431948214028,132.58397028477853 37.427733241527875,131.76245225913672 37.2139510667588,130.98132801333205 36.712153619622164,129.23250598741225 36.517425114572276,128.55930172721762 36.34380807569254,127.9559863276634 36.07073088057543,127.00330283932166 35.975386317023386,126.67093062391066 35.38266475797816,123.04859935708654 34.52098159628454,119.86236848391275 34.36855223831449,119.29502641293129 34.03831403382323,117.09326054930129 33.672026286127966,115.71507050770992 33.348113900252066,114.49136762059375 32.723610819734006,114.28177725314124 30.441362255008737,113.51757266613602 30.18733872982742,112.02071636921735 30.293200918986468,111.28402528130395 30.447840502886553,110.18950627517623 30.729377527376307,108.21425043774403 30.511251115919933,106.41047762821768 30.31225458870565,104.75707638053531 30.23817392080282,104.14735894795112 30.128119924218907,103.23705082115798 30.03917739380515,102.49388148552923 29.58615734140955,100.54408135090033 29.488754981406533,100.12276660502143 28.891689185673997,97.55265519746179 28.58256244735289,96.22530034679168 30.92829783963445,95.41445237618177 32.82520498716189,94.75809156004703 32.08211186616436,91.3454268753608 31.076535390612865,87.16627116327055 29.97774836248322,82.5955244301608 28.59109849146506,77.30706406422559 26.60524881352386,77.38114473229088 24.24686178444479,77.46802946641611 24.043597235282725,76.769369503364 23.69217135009839,75.54780062727588 23.46352731303501,74.76027434844123 23.10577560945192,73.52178581355365 27.583388004723062,71.07018823195058 28.552991151810087,70.4690068434244 29.378624770083093,69.60092164886326 29.31094613531855,68.34337944420236 28.605884139236462,67.7125505455563 27.64900884346986,67.3441287869413 22.934292581546075,67.00748854947422 20.66690587911512,66.90802839329099 19.70157075419249,67.15359208926212 19.299233463293227,67.25732026750144 18.87586092096334,67.36470675025969 17.897797944720285,67.6130141746877 17.53791222994669,67.20648507652604 17.285870286260206,66.92075624471973 16.57455868651889,66.1162340924544 18.87586092096334,64.46306148877402 20.22859525975139,63.491095686602826 20.66477186814123,63.17777714096516 22.587058503569992,61.25754830177076 22.902587275029386,60.82784994120458 25.33718898320179,57.516703209044245 27.348418149260922,55.24078046266357 28.868443708529952,53.667785701391104 30.257227590522,52.57540070629144 32.09910773943256,51.85562927712333 36.05807924377792,50.48589906490461 41.3697088721718,49.12676269308658 43.8911953145236,48.50850921644437 44.44375173789611,49.41462553592094 44.83961078091755,50.06671833005374 45.07884865832747,51.66295856847026 45.294841059026574,51.823847755975414 46.12893450667222,51.823847755975414 47.100671664733134,51.737039236535544 48.290459019727514,51.19721066464592 48.50850921644437,50.44138969232797 48.47459368443087,48.96160548352534 48.71390777658032,47.49653070780874 48.75407291246965,47.25736904486758 48.912904303794605,46.64978562331142 49.4019738993942,46.04006819078138 53.31430201997241,43.643421392784894 57.98450890931955,40.36619019280051 60.785398364970604,38.20474189437644 64.42045748322346,34.70092445356303 66.09298861541868,33.6699684897853 67.5664470058767,32.73633867116274 68.56569766324606,32.10329954685743 72.67915632179582,28.84725602762027 75.74885495083282,26.52911034906175 77.47008726281294,24.59615365854693 78.10518418346092,23.145940745178795 78.55401242864826,22.040827898704546 79.35007475137847,20.076242116304254 79.817956666285,19.601958168476052 80.67331400936325,18.73394918854614 82.38806807368218,17.3157464404362 82.644225610054,17.103869632639046 84.65118675416535,16.081297283548583 86.59679508126106,15.380503309522581 87.6045817827426,15.058801149197643 90.22331815540174,14.64167821063529 92.92474745503203,14.794107568767801 93.29949503209994,13.63823574600353 93.78635440198612,12.13291961971222 93.92399811240138,11.709470862805265 94.09548114030723,11.17810212034244 94.40879968583658,10.210632984229306 94.85976194199783,9.056818957807703 95.1688124655794,8.76468809291726 95.99452229880856,7.985621643455258 96.42216286286961,7.562172886548303 96.95139759435854,7.303881339202591 97.45525283772955,7.0604516542595 98.08623416569219,7.049857813858812 98.6493082146717,7.21493880873468 99.30772682698664,7.706218629993544 99.60404949946441,8.963760834654456 99.80952427412328,12.240915819953464 99.79039438966457,13.930366610893977 99.5257770239201,16.15118614424316 99.42845087887324,16.957766092851138 102.71619970441047,18.11577192664345 106.83179237415074,19.69730273197394 109.45273897273992,20.4381856272039 110.46677527766406,20.675365708487764 112.82737253267317,21.05643910384612 114.01715988745093,20.99295227618152 115.12440674516984,20.77063405735443 118.96478820860249,19.341608824787674 123.19462668213492,17.56748352543534 125.64409025281826,16.788417075973335 127.71888246117321,16.568232868120138 128.45343953805857,16.585228741550804 129.71532597946094,16.614800037039448 134.112455673691,17.091141781210315 137.5187945399243,17.660617863219805 140.90828996215185,18.120039948645385 143.516508709204,18.310576646324563 145.48322850268647,18.105254300928138 145.90027522661762,18.030716344804752 147.69772221769108,17.70931904316716 149.10761756585327,17.186410130076982 152.11184778540593,16.024136274282736 155.2323816052017,14.58451720131529 156.51743730900859,14.2839265070522 159.12359825982637,13.729159858128735 160.40857774889372,13.587400555082287 162.1805690371097,13.714450425096864 163.55875907875523,14.027768970734531 164.21725390580968,14.214037646357623 164.49665691954218,14.294520347452888 165.064075205209,14.455333320326824 167.17697475300233,15.442008555529888 168.46195424206968,16.178699643389137 169.99691787837256,17.24570515037087 171.5804302656311,18.21111649014134 173.1724786965686,19.026080053436587 174.75599108361052,19.76924938906534 175.86544816682624,20.103755615450233 177.54628669891505,20.404346309713322 180.80454044386562,20.533530190755943 182.84755113096438,20.897607712683634 183.9080783903932,21.181354962832653 184.81206069873343,21.62591518585561 185.779682264109,22.24195843678441 187.83526837326573,23.802225346682306 189.59247401392693,25.419729480531416 190.48167067471238,26.236903269540086 192.38703765139584,27.90097457230851 194.15270312142968,29.444245608775734 196.30363379392182,31.055347709649027 199.83694631570097,33.22960007413305 201.9477118525204,34.53165165131645 201.36977594124656,35.00578316982806 198.64510116447224,37.23513874728941 197.10602193526742,37.69661862905766 192.63679315462937,37.74105178694892 192.0356117662115,38.185688224603105 192.1668534434885,41.15379268632053 192.93105803043957,41.47983908333278 193.00308090232465,41.5094865935068 194.12724741857224,41.990096359733755 195.84421170860458,42.40714308361073 198.4863459878868,42.03452951762502 203.67313597192538,39.066425055961744 206.89114836624708,37.2520584060347 207.91570229699485,36.67404627996719 209.41255859385936,37.013887533949266 210.42446088802623,37.24352236197668 213.52601725262573,38.11160755659197 215.86748462295952,38.70432911569135 219.56816457995916,40.199051401581976 221.79744394273516,41.45659360624288 223.32592933137684,42.49821962505253 224.78879388148832,43.47201457956442 225.9998451319153,44.894713993732424 226.53967370375076,45.531944925408446 228.9149803915751,48.62077343874169 231.3963016980376,51.54231073148566 234.30724515048917,54.34320018729917 235.27265649015132,55.12013262573313 236.92178971594006,56.44542968006058 238.8039112154795,57.59710969545414 241.90539136533948,59.170104456780756 243.36619811921662,59.11713525483147 244.0647818676375,59.09175576671353 245.62085697011054,58.89062522863367 247.01810068147523,58.69170491626722 248.1570528454942,58.852517889087004 249.29188941682784,59.22520766975809 250.4054620927289,59.589285191631625 253.2973518752447,60.35570000435027 255.4398989333203,61.32324535514878 257.8617727901723,62.41563035024845 262.32033151572426,63.19462058502508 263.9822688073563,63.17137510788103 268.2248351326424,63.114214098615186 270.15352380099284,62.294906298632625 271.71805873283853,61.2470306761096 272.37640113063054,60.65629069861336 272.6855278689517,60.05930111745789 272.9247657465782,59.596296942144605 273.40324150183125,58.67044102078047 274.9719682411018,55.630389902079955 276.4878019931626,52.149894153041814 276.76941523239185,51.504203391938994 278.56465199775187,48.58899191753963 279.7332516720532,46.69200855554343 281.1771387669684,45.212224346740804 281.6915116359464,44.68298961525187 283.5567896914801,41.901153829265844 285.57213445022455,39.466475906408064 289.9079875423951,34.230908527736766 291.09983269362385,32.300162062881206 291.4639864301286,31.70744050372767 291.8895691981719,31.019374381130405 295.253608917542,24.924334066587218 299.0875883482696,19.33947481375963 300.6031172415889,17.264911249514956 308.5593200187638,6.3808453609807225 310.4435755294937,4.3336428665112745 313.60435069991837,0.8997142863924478 314.87454454121433,0 315.0651574535789,0.08886631578253547 316.25067678640886,0.6350969206479807 315.5986602070156,1.5201017740085574 316.26607215166325,1.961918268574623 317.3028966457275,2.6463260865988056 323.74730504900407,6.905964499784321 324.3209729383301,7.29755552085799 324.97939155086164,7.746383765882879 325.70762280934827,8.24177917982708 326.4295282496527,8.735116797428612 328.3857304173116,10.068873681182858 325.2207634394621,11.900007560484443 320.91669186833116,14.385520674263468 326.13320557739155,17.85961439027163 327.00967438664,18.44395233468374 328.30951573821824,18.886378546678653 330.24879824713184,19.07691524435783 331.7710340321143,19.225152795173784 332.2134602439467,19.24634047592101 333.2444924225723,19.292831430154944 333.9218884900835,19.324689166042383 334.3157659516101,19.341608824787674 335.0397291879323,19.375448142278252 336.2020030438349,19.42841734422754 336.43697289951365,19.43916361399898 341.42911059324183,19.667655221854073 344.18549067631625,19.77138340003923 350.68911788541794,20.014889299667697 353.36943571887804,20.20329198631883 363.04648973476867,20.884956075940277 370.24664289584024,21.393003126627832 372.3426227851049,21.539182881046965 386.4401281871091,22.517245857560788 387.1726274677601,24.187566764042593 391.00035729461183,24.598287669520815 393.716496027274,24.88836073806859 394.853390394842,25.00893236036782 399.94925626675536,25.556077541403614 402.73955188227654,25.853695863153686 404.8248617162385,25.442974957675464 405.93630038094904,25.224924760850307 407.3843792832891,24.939119714358615 411.73501802344765,24.369643632349128 411.7794511812848,24.456452151788994 412.0208230698852,24.941253725332505 413.25085177529184,25.360434460237528 413.8011979729509,25.546703135860618 415.6282924743067,26.167014408845507 415.6875874944381,26.188278304278104 416.44760027418096,26.446493636992596 417.237336778729,26.713245013710953 417.29228756238973,26.732298683484284 417.84278618931125,26.918567359107378 423.2560861994393,26.789459692804286 424.53268207387356,29.3130039314446 425.9934888277507,29.270704784527222 431.24803366150996,29.120409437422754 432.0293103366854,29.099145541990158 432.7109744261444,29.080168086902198 433.86265444148376,29.046328769357466 434.5273988724141,29.02719888495291 434.41307685366576,35.7298226209981 438.4207495380126,35.7298226209981 441.25967011857915,44.88625416435978 442.75439240446974,45.0915765097562 442.9110135698647,45.63773089999042 446.34707616111984,45.584914127357735 446.535478847771,46.24325652514976 446.764122885051,47.03924263335705 446.74506921511517,50.15977645320699 446.7111536828851,55.75530576106649 446.47831783839683,56.71637286414964 445.0408327766199,56.76507404404285 444.27868598590317,56.79045353221493 443.27516730658607,56.82231126804822 443.2814931249848,57.94007575126582 443.3027570204174,62.07266429443676 443.3068726131027,62.71835505553958 443.31091199104856,63.491095686602826 443.33225210122066,67.48390650833046 443.3344623269341,68.05124857936606 443.3387303488819,68.66096601189611 443.3789716995107,76.33326910976785 443.27516730658607,84.68091047880813 444.2173331693208,84.72313341104014 445.19112812383264,84.76550877258873 445.32031200465866,84.7719108056187 446.89749857330185,84.83958944065402 447.9433163996988,84.88623282425871 448.72870866734297,84.92007214174929 452.1245299079693,85.07036748885375 454.1293570408901,84.86291113242929 455.24933174971284,83.58844926907724 458.0333015468352,83.45720759169195 463.4614634194742,83.58189480667652 469.459101374231,83.71763315006571 472.0631283138583,83.87212030454089 477.47010250580416,84.75918295424412 478.25983901035227,84.88829062060138 481.21315782419,85.12547070183109 480.90608888231986,86.22844953733144 480.2266350183577,88.64193977938784 479.7311633896198,92.97771665698131 479.02831161946773,97.34939064840803 478.482081014494,98.75303639280271 476.6339512617076,102.47909583781198 475.14982281616346,106.68995685636476 475.26208703846083,107.06889624069508 476.57038821941177,109.48025247177759 476.95572963682616,110.29529224975822 477.38542799733824,111.20567659123672 477.8343324570485,111.78788052462079 479.5364348847865,113.79903347594039 487.25103712957565,122.90257203198401 490.7247497720486,127.00330283932166 492.43363530618933,129.0208578236171 498.7742393167578,136.5047582348377 499.4623054393551,137.31766400179026 500.00000000000006,137.95283713712362 497.4659381358069,141.08609880834814 493.136487076558,146.62858269962715 490.58962114608823,149.8847024334955 483.50592401452224,159.80945415654776 480.55047118971066,163.78747933055814 479.70578390171846,165.2334242218702 477.5950945794219,169.5119638754583 477.4892323902629,170.15567305484967 477.2796420229187,171.4237328852259 476.8096260970383,174.27538131727528 476.8096260970383,178.52655990108815 478.07776214209986,184.31033946628216 479.3523002200831,190.0137125450663 479.35839739447994,190.51550999204048 479.4157108331165,195.25781596774146 479.9026464175256,195.55413864000263 480.93581260712506,196.18504375333404 481.28304668510117,196.3989021427885 482.71412971373985,197.26896891906108 484.14102093538685,198.13911190996487 484.3591473468432,198.27248759832406 485.7521230362601,199.4284356357737 486.6624311629991,200.18212259711777 481.79116995041994,201.60047777459846 480.4658728959842,202.79453315154063 479.42630467346305,203.73037319582244 478.74890860595184,204.34001441372126 477.9697659417503,204.43314875155988 477.6987465430842,204.4649302727078 477.01075663522647,204.606842005125 476.95778743306056,204.61949364186836 474.4300513870495,205.14240255495852 474.41305551378133,205.76057981691537 474.4046718989316,206.02092916060377 474.3051355281713,209.45699175175062 474.30932733559615,212.16474686972552 474.6141860517529,215.21965985082866 474.70526259335713,216.15534746579388 475.6981112173716,219.4559765722389 476.04961331729544,221.18765029535726 476.0961804863231,221.41416032155507 476.0961804863231,223.24971465222933 475.9712646272282,224.24050548011775 475.6029190832986,227.13452927376989 475.12230931707165,228.86422141523096 474.6586954243295,230.05187475914312 473.8753609529197,232.065237936122 472.7257387338147,234.05108761395488 470.9750113410313,236.75030668787176 470.8691491516556,236.81806153753828 468.8218704426091,238.12003690009047 467.4436804009636,238.994371698365 465.9659539883412,239.7290812046211 463.4614634194742,240.71049762696651 461.7085258007608,241.39726810007485 457.5949909276881,242.95334320265619 454.9360132041835,243.9589958929472 453.06875356693837,244.66390545965854 443.63078499919527,248.48736726450838 442.15100079033846,249.1860272275605 431.9015745343941,254.0277933594447 431.569812036412,254.18441452494793 415.8992356584499,260.9654631657457 399.94925626675536,267.98879827131424 398.3508058026796,268.69271704722405 384.655485261879,275.0439148980849 383.31532634514895,275.63038685352507 373.7990853020781,279.790488895842 358.84203074935414,286.22849526614266 357.15684798057805,286.8741860272455 355.41442798768827,287.54106446909555 342.07480135423634,292.65377378506884 338.27671903745033,294.07014738089225 336.43697289951365,294.7281087053115 321.55826703685693,300.04873166582155 299.6126312721171,307.0668079585324 295.2196933855285,308.47258771395514 286.3978442832371,311.12310560792463 278.6917018678206,314.03412527500745 275.7849502227939,315.1307782921091 272.9247657465782,316.3617977884256 271.34331115598724,317.0424710871913 270.9305324542205,316.3777266563693 270.31441298855214,315.38899362482357 269.94606744462254,314.79413805469613 269.63488291006706,314.2966086297239 266.6158670425264,309.4400568500683 267.66595289087115,308.2693231649014 268.42809968158787,307.85014242999637 268.7498780564899,307.67446759477394 269.41462248742016,307.3102376434755 270.28263146751254,306.83397211399 270.8098084025505,306.54389904544223 269.3871852030679,304.958176432741 265.75426009578894,299.0028376249558 264.43323106351755,296.8328532824737 263.77694646195994,295.7574641608047 263.7367051115477,294.402443381672 263.71338341966407,293.60013145506593 262.8644281095075,292.3553171018338 262.4516494077408,291.75192548764835 262.17217017948536,291.3411283674847 261.69788623165715,290.75480884141535 260.3810490065941,289.1225190597948 260.12069966301397,288.6694990073992 259.7163045758804,287.9687050333732 259.5681432398581,287.71254749700137 258.2852215470251,285.4832681342254 258.02060418128065,284.69993366276145Z"/></svg>