<svg xmlns="http://www.w3.org/2000/svg" width="500" height="500" viewBox="0 0 500 500"><path d="M9.007949373197311,9.79846946636119 17.264133724079475,9.274650933473847 31.7162328736995,9.274650933473847 48.911815962210085,10.246965644633674 64.90640858821632,10.941535684239872 81.58682010868138,11.983338653422374 84.8745419190131,12.11012607482966 84.87714642642958,12.11012607482966 97.75497710936,12.605503386672792 107.4178038291571,13.057020793509901 124.27750964072925,13.838268840146752 129.2320120213734,14.066944591861398 160.7928078922324,15.108747561117925 171.69142129406808,15.225950395155582 171.69433834232714,15.225950395155582 173.7084560227435,15.247619896931752 175.73424189649228,15.164067298771263 183.71559862400588,14.831211250101354 200.48279233195518,14.206129468591852 213.05391622053799,13.858896538941526 226.40055823932295,13.164326499335328 233.84371955296876,12.539244717825827 239.5359226162344,11.815816736027275 248.55335239686593,10.666916421556406 258.5084048495026,9.35862025278248 258.5112177173821,9.358307711865853 263.35278865629374,8.722182818857183 269.84957615286106,7.058215116424264 282.2530739436692,5.182969771821737 307.5718031440624,0.18231551959768458 308.341591358126,0 308.6279829944474,0.42547233259829204 313.9297183048159,8.244828698392345 315.4374155616679,10.875277015392907 317.58186279358387,14.605452546645788 318.9043274827271,16.911900140207273 319.84195015502837,18.541279984087172 320.2673183072471,19.285023123837895 321.23098605371314,21.119638152610104 322.9818401240099,24.447677737781486 324.5557960498569,27.437027177690773 325.00731345661995,28.299535855914236 325.34298237339146,28.938994518404154 325.91305695823826,30.02132362311143 325.93910203240307,30.090707700902588 327.16030347285016,33.135168517854126 327.1256114339916,33.28852191495392 326.5497027526266,35.945119486424815 326.2806050456927,37.18955313315717 320.59121485060274,40.00523401808852 316.8580180904891,41.78796725899418 316.80592794215954,41.81390815292745 316.45806993074996,41.979763185655955 316.45400689890783,41.98184679161874 310.5956362622932,44.77731669890347 306.9897478253367,47.1040794503431 296.1174920382123,54.9866732564195 293.26503550875566,56.94724226415465 289.13126550692164,59.7905309277599 286.68313270959277,61.43720470095332 285.89302933779913,61.9695660182289 276.64129806976797,67.52591797424533 267.71356752487975,72.02879876782085 264.6113908233955,74.73165239117719 262.03865839100166,77.33615981424448 260.6784804343612,78.71081883209689 264.15205989438294,82.32618767619154 283.4444798192481,103.82983440334735 289.2033582724348,108.04340651234236 294.31694396653944,111.7909801532143 299.82110159392073,114.04210800912246 304.078012706394,116.25896054732019 305.0156353786953,117.73759150151677 305.74489745738214,118.88649181598764 305.3281762695611,121.58944961964951 304.29752059233135,122.81669351737389 303.29655629929414,124.01164152311912 301.76573101624035,125.83187967091091 301.3490098287154,126.65667508163716 303.36291914837267,128.79664256071092 303.3643776725022,128.79810108484045 303.75380362249194,129.21200940455992 309.1625320976952,130.71678961330088 311.57315998828597,131.38812744662178 314.3883199717637,128.79810108484045 314.3900910367358,128.79664256071092 315.73453776849783,127.55960571507987 319.0191341701074,124.74090360150986 327.48670034324266,118.24724151410881 329.33881766193946,116.3343870823146 334.2874859460655,120.00674254880322 334.7503590053184,120.35116261042597 339.18958563724135,122.22609541411188 345.3252842245576,123.7268125913068 345.32757619113147,123.72743767306604 348.5368502378301,124.51222784979521 350.71025959216996,124.47753581093664 351.543701967516,120.83435082755703 351.70611905045763,115.96402612675857 351.77550312817476,113.81374479825041 355.6619491049346,109.60902801448623 356.1250305246505,107.16652095313847 357.5546967393877,105.4042070504165 359.2273114065144,104.13664537777844 360.33276853705337,103.30028595402531 365.6517977768094,105.81509414149731 373.28592157459866,107.65554326686171 376.8019024153488,108.06934740627563 377.45011222269,108.14466976096452 377.7308781229563,108.2604140707986 378.8480034471238,108.71766139399638 380.07785185226464,109.2182477207465 380.08066472014417,109.22116476900558 381.02693435713917,109.60611096615312 381.9993532486786,110.00543404428107 384.1379663837803,110.88221542317942 388.0909835700816,112.49419715744025 388.6061551384232,112.66494866408509 389.81579256591743,113.06145887418548 392.13953408894054,113.8254129915088 394.19719913337224,114.50258492149594 400.7661835755362,116.66140903431831 404.0507799768497,117.15043134811556 406.13438591536277,115.91193597828094 407.7059456945524,112.8703922096625 414.85177644060917,102.26546306472193 416.8649564982016,99.27778050962729 418.10970268607264,97.95531582048403 419.7447082660817,96.21602576336223 421.6257877072024,94.2192020122594 422.3723437146846,93.42347290433659 422.384011908017,93.40899184305063 428.79974713353477,84.97611770869993 432.14216359961256,84.97611770869993 432.1450806478716,84.97611770869993 433.98271690535654,84.97611770869993 435.6612698493809,85.53754532885297 438.95149198674955,86.6343554948462 444.53097196874575,88.50084969444941 448.83132626515095,90.40797420995696 449.5866334177065,90.74364312665443 451.97986319853015,91.80576125371509 452.807471477358,92.57554946770462 454.86513652208583,94.49413381578546 456.3728337789378,95.89765077597828 462.6641777298537,101.71153642597572 464.1341617192084,103.85587947751213 465.8590748954238,106.36777061665104 465.98346617002574,106.6543706134355 467.5229384177733,110.15878744130684 468.2377194349521,113.52443611366989 468.4255565100773,114.41288568582664 468.9204129203927,116.75402531832071 469.1142924530913,117.65976881971694 469.2821269116251,118.4556021079453 469.7770875023201,119.62763044832188 470.07796019985346,120.33668154914001 472.5667233126425,126.22578537359483 473.29723555469974,128.79664256071092 473.29744391545887,128.7984136257571 474.08025466660484,131.55627444592417 474.5085398670826,133.05824178663755 474.78638871908987,137.41349909947397 472.19636235730854,141.12929774974643 470.2979889868003,146.723154612723 468.02050351588474,150.68200589576455 467.6182633892756,151.37949298362983 465.7686463979118,156.03551881369407 464.88894797075443,160.61653482998602 465.3056691582794,172.14002165279413 465.8236535945005,172.07636749143768 470.6709544498468,171.46284972280702 477.4715316919105,175.32908472192017 486.7694148316696,180.92012871679518 489.776162381272,181.78222067387048 491.1189422281454,180.46829876911545 494.0793295455568,181.03264343752758 498.6604497419322,181.66637218365682 500,184.28827771634317 499.6527670702756,187.47744496570073 498.7237913626681,189.23111190380297 498.42875276165296,189.7867054272898 497.6125001353149,191.32628185519485 497.5633270352444,195.05937443478084 495.99780971333206,195.40660736443115 495.1933294604099,198.0226788004513 493.15306252544923,200.75751577494418 496.139599097405,202.79767852959935 497.54030318971826,204.5773905419404 497.80929671627257,204.92181060356316 499.21583490480793,206.71016958052394 496.11344984286063,208.18900889533163 492.7623864120891,210.8397723702103 490.4471876736763,212.98994951841294 488.3558723932934,215.61362611607143 488.35472641000644,215.61466791905283 488.0915669799703,215.94460691938963 487.59400188185884,219.02959387186596 488.5861108494431,234.84155843720984 489.20817140223994,241.0517459367706 490.7331625884795,241.67682771828012 491.7171454929717,242.0791720249727 492.8022874657806,242.52475115491208 493.88180370253434,242.96470454887034 493.60978894734137,246.10167746944472 493.59239083757427,246.28982708570862 490.2413274068027,251.32486083594864 485.026478464298,255.7553363231684 479.40042988935176,259.9197353320189 478.6045966011234,260.50720802641075 476.59037474062353,262.00042422219883 472.9065594413396,264.04933812170526 470.9618258386404,265.79435809518776 470.63188683830356,271.4345751902813 468.89530546905183,276.53618015021084 468.84029827216705,278.6920872147741 468.6461061986259,286.23369890894054 468.938436111845,288.9886426807745 468.5882861338616,291.41948154886387 468.23521910761906,293.85594615293434 466.82847255832456,296.44013841812347 464.3050174063809,296.9755209639637 455.28467057749026,297.2794148901357 455.1602793031845,302.2800691423597 452.48399165552064,302.43050549112644 445.58725599921416,302.81826455630153 433.5659957175355,303.49543648628867 432.14216359961256,303.5874276884578 421.7908092972645,304.2565777355844 417.4325307560115,304.53734363577666 413.5460847792517,304.81217125907125 411.89649395765116,304.92791556897936 397.53701109203354,305.9523204286168 397.5994150902417,302.43050549112644 397.61795918299964,301.3887025219439 397.1234153135268,295.4128165101529 396.1452665055527,295.5863808848253 394.9587571039642,295.7947414786618 388.0818157040822,297.78083465918206 378.08738309905965,299.7279644086867 376.7849210271,299.31957764471684 376.1423369555178,299.28186437729363 374.9066544538588,299.2124802995025 374.50160145937014,299.08225492838244 373.7578583194714,298.8478492603071 372.8405508051963,299.2183143961687 367.23502574903534,301.20346995401314 361.9363116673055,300.66808740809887 359.0452042475278,300.0285245653034 358.2263471137733,299.8463132260113 357.22496609951395,299.6262844389164 356.11086200428116,299.3831276258418 348.4883022194448,297.69613607780866 345.3252842245576,297.1819021322169 330.8474525416154,294.82826086416816 320.3136785394381,293.11501588128516 315.3418822294064,292.05008488612293 311.7505790340414,291.27769216471694 310.40488213861283,290.991196348164 309.6061318021254,290.8176319734916 308.1910508289797,290.5137380473936 304.85155141116104,289.8191680077874 299.83349904931794,288.77455217057735 294.0862887891675,287.5388696687703 292.97791461036945,287.3014427721303 290.5036325584963,286.76897727454923 288.8800868113566,286.4188272965658 285.9196994939452,284.9516561750165 284.7013109213776,284.3497024194127 283.58137272933067,284.39314560319656 277.36524695294617,289.10157412265505 271.3459177575193,292.91832348063303 269.4186864446707,294.14233778918174 264.37438064790365,297.0738671643267 258.5084048495026,299.5273131567941 257.64881321961224,299.8867351811565 253.00706009029693,301.2729582120358 249.64724551445204,302.2800691423597 248.25664691125814,302.43050549112644 243.9781704770921,302.89348273068487 242.820519017844,303.02089523377737 237.47263183574753,303.88902964805595 233.09122526858886,305.13044206614967 227.28317371503556,307.5671150309052 222.39253385613688,310.9153655936492 214.9523937714258,316.5758978466209 208.53655436552845,322.5690777876514 203.18575013546902,320.6244483653317 201.64336083975846,319.7389158415081 200.96327186114212,319.35105259602744 199.00697424578615,318.22830153610096 197.29091639472756,317.44403226089946 196.3561065906019,317.0157470602736 191.3814974123946,314.74117863754316 190.11695696839516,314.16235290784505 188.80886916038037,313.56039915224125 185.81076857547177,312.18876136295347 182.85621535457855,315.37199033541333 176.54163919767348,323.6774519666715 171.69142129406808,330.492093548947 169.01752979335768,334.2488350559664 164.92261904260388,340.0049006411996 162.1097510257001,343.4630614171855 161.85513437997815,343.77851935631037 160.3879632585029,345.5843806231217 159.07122848549824,347.87905584311926 158.54168003632424,348.7965717181535 156.21200023640344,352.85960329807625 145.78240653147753,351.5882911347348 142.60782452363748,351.20136551200403 131.44896874002472,349.05118836380143 128.5955745874481,349.21610577385405 125.08230243449398,349.42165349966297 121.71967499047348,351.2418916475288 116.01580373417153,354.4627297071803 114.49362541581151,355.81999061548765 111.3276903726652,358.63869272898364 104.88872294115826,363.5554818422046 103.86723512963184,364.33672988884143 100.8517364352522,366.64026043406983 100.60857962239966,366.82841005033373 99.04587516866292,368.02064936828293 96.19550224472495,370.50076551682236 94.91918942701354,371.61205674410155 93.40284520546778,374.54650316750565 88.60273802475677,378.847274185059 84.8745419190131,382.92395338389747 82.35629578190235,385.67775117244446 82.84271358828312,387.86095347476504 82.70144510551584,389.2473848661814 82.52246335554747,391.00407303292224 81.21666751381045,392.6506426257361 76.988718523761,390.99532188799697 70.82895428801125,389.2473848661814 70.02593255921865,389.01881329477226 67.66447776899447,388.3502883294049 64.7560764198292,387.6355073122261 58.39243134293711,386.0757199066744 56.42165266607309,385.76317901595667 55.9124193746292,385.6821267449071 53.7043179814308,385.3290597186646 47.99752967657366,384.33653402985817 38.777677579521544,382.0675913431828 38.26542305943901,381.94038720070137 35.6175766328934,381.69139629103455 31.386710594584866,380.9071270158331 25.376028363555722,378.87852827413076 20.33193092725171,375.8196905761988 16.766672806051478,373.5856482889931 16.636447434931423,373.5045960180176 15.6438175657454,372.88243128476716 14.399488099688707,371.86083929315726 12.749897278088156,370.5035783848499 11.517131824392122,369.4936545864984 10.80235080721332,368.17118989735513 9.714187606061905,367.0281236795505 5.040555305767527,362.1055004696633 3.2608432934264893,360.2331721733939 1.631671810231701,358.7023468904141 1.428936952376303,356.8010564715728 2.192995250005173,355.6029830569574 10.038396689964017,352.0087628131112 14.47178922536882,349.61261598395447 20.586651753353227,345.2312094165737 26.394703306906536,341.51259789819966 29.18725616578413,339.5592173309547 30.570562148330314,338.58971548782245 33.72785022678284,336.38744819114214 34.04612103408332,335.97947814839443 34.890293979937844,334.9075670733531 32.642187352668344,333.1321264532432 32.19983781190467,332.5010022144564 32.02616925685271,329.77783343322193 31.997311314808403,329.31766906169105 30.58493902945878,327.82163999787537 30.01486444461197,327.216665013707 26.848929401465664,323.8627887148338 25.575637812392905,321.83689866092755 25.552613966866762,321.6025971731578 23.10375190747314,312.66132318980755 23.469008028353713,310.5103125992346 23.558707264097038,309.41641948157445 23.642572403026104,308.3687824157258 23.793008751792787,306.53979312293467 23.335865608974576,305.34171970831926 20.482471456397963,306.7886798522959 19.206262819066122,305.2172242534858 22.927791385847303,302.4508206490046 22.915393930450108,302.43050549112644 20.465073346926946,298.4340451208932 20.106276404249737,297.84657242657534 15.563182016214114,290.4323732355015 14.830898709184726,289.2404464583949 14.469184718248439,288.64713966741084 13.806598029778785,287.5677276110367 13.071501854573787,285.77926445377034 12.7097878636375,284.902483074872 12.177218185824863,283.6002293633754 11.497129207504626,281.9478256738953 11.361278100329447,281.6149696252254 10.577008825053946,279.87286670007603 10.113927405338009,278.8427319240779 9.8880645215769,278.3391243687631 8.4734002696534,275.1905874351619 7.874363562382715,273.85937160109336 7.506815474928265,273.0404102870333 6.97424579711563,271.85973498196296 6.621178770873116,271.0725486584284 4.175858841423778,266.8561636814058 1.4266449860985237,264.37636007378296 0.1678344582376995,263.1348434753837 0,262.9699260653311 0.4051571745720961,261.398470466521 4.940125499515682,257.92874567758224 5.666574710026906,257.17625139290624 8.233368865522959,254.51100685674157 11.871032293078974,250.7344710932977 13.575630311268187,248.45990267056723 16.30463318924291,244.8251562912703 20.50382841733153,239.28068088904934 24.098152841335207,234.53193459475116 25.628978124388993,232.2920582109533 26.314797018847823,231.290677196916 26.928314787626544,230.3906636118064 28.64155977050953,227.88741943736127 29.665860449915474,226.38847332528653 31.333161921829642,223.95180036053097 36.94733394268437,215.61466791905283 36.94806320474914,215.61362611607143 38.496599138116544,213.31384606154649 47.61445872470381,201.53803455951626 47.8089633390876,200.63510392607355 46.835711005399965,198.0372640420428 45.5189762323953,196.28922283999572 44.373305507322215,194.77006575027434 40.97588184435968,191.67643183317827 39.78937244277116,190.59410272839696 36.374654850421074,188.07064757637923 32.86138269746695,185.6310575633646 31.09615174633785,183.82238342852565 30.72276956206914,183.44035427971122 30.977386207791085,182.11778541026243 31.333474462968343,181.333724495598 31.894902082825283,180.0921037168932 32.29703802905483,179.7998779840536 33.31863002066473,179.059051892636 35.6105965527922,177.98828680088158 36.17494122120432,177.29955085786756 38.05591648224154,175.01050137392514 39.17585467399244,171.7027769466319 40.857220486192475,169.1387956590894 42.697773791936434,166.77442382045808 43.81479493542825,165.3362148214067 45.13725962457152,163.6837069516211 45.22998008895349,163.0123691183002 45.49616074762829,161.03867339310307 44.11577181334119,158.0724519790995 43.28805935442988,156.29565701509156 42.88581922782077,155.427522600887 42.59067644672209,154.7936896743782 42.07842192663956,149.84512557055774 41.965594665286616,148.77446465910884 41.78619619379997,147.049655663273 41.68482876502031,146.06577693916032 41.67326475206746,145.94992844894668 42.961037402352154,143.7072391971212 46.10707400869443,138.22068803997007 44.170987370688984,135.74067607173617 44.93494148823439,133.87980760811408 43.7109271793156,129.6634226310915 43.77374789844979,128.79810108484045 43.77374789844979,128.79664256071092 43.861467708461845,127.59429775393842 45.5948194886119,124.82476874058698 47.07074175516048,119.9486099431223 48.346846212408856,117.96626725330545 51.148254396443264,115.44281210121368 52.4736361338456,112.75725240717087 55.98972115497534,107.54823756103629 56.4295703687021,106.61936603373434 62.00029920562491,94.89616558163544 64.32695777661095,91.2035991375002 64.33560474130473,91.19193094424182 65.58878953311043,89.2009412898052 66.63340537024646,87.54270350365891 69.69255560931713,82.78801893246303 73.31000805922652,75.59384852848403 74.89000644235081,74.72571411420543 75.80731395662588,74.06583611353183 71.37392142122107,67.79480732056813 70.25398322947017,66.20887066054611 69.84601318642636,62.9851155525615 69.28448138618985,61.084033494331244 66.27773383688357,58.190217386757475 63.887421104318996,56.46540839092163 61.18456748088863,54.5121320039082 58.279083179982436,52.981202540622895 52.52010054612006,51.20430339630942 51.19774003735636,49.67347811332966 46.96687399904783,45.002658681136865 42.941347326307266,42.72809025848041 40.14296037031931,42.27386416384725 36.320168555138046,42.647037987430856 32.04012941675901,43.390781127181576 29.59480948730967,43.390781127181576 28.84460716920753,41.98143007039658 28.843773727059293,41.979763185655955 27.658722849304223,39.75322187985708 21.596054650325062,29.500109597640567 18.571804810872102,25.477604153168528 16.091792842564196,22.181443738828147 9.007949373197311,9.79846946636119Z"/></svg>