<svg xmlns="http://www.w3.org/2000/svg" width="500" height="500" viewBox="0 0 500 500"><path d="M389.0521521656582,356.4166049645378 388.23694797422405,359.08670045433695 387.3372498857941,362.04310366400176 386.61345808212707,364.33695106562374 386.18833895894835,369.41953869867154 385.40331115965705,374.489761370992 385.52180869946363,376.90225351403143 385.35414572122465,378.6649964156339 384.9739231813963,382.6635891653666 383.34248438557864,382.48356122640035 378.5133784460287,382.3609420333318 377.74881171248245,382.3528459281049 376.0764507851747,382.34048096748216 372.265393271832,382.30780214293446 370.0840081312115,382.24730215693336 369.363160366037,380.40080136722605 367.97180788993586,378.6769197704827 366.13237279208766,377.7948859111253 364.2437722553887,377.38433977733405 362.7030098376104,377.4664784444772 361.04463309178254,377.7878202193707 358.98174549096854,379.1121958256239 355.83074135284534,382.32914642022723 355.33364049469515,384.450473180516 355.4296161416027,385.26170291998517 357.35928601223935,390.04664828601705 358.07969217132614,391.5709240893877 358.7550545458701,393.24402102631853 358.96172603089275,394.9957237844107 358.0187505797603,397.90222554570613 356.0609651441348,403.23711725654096 355.9460004505193,404.4666948312836 358.40971885935426,408.6295649153027 363.3941228167297,415.0627300949908 363.6231689922038,416.3875473070179 363.5659074484399,417.9013717745768 363.45123715846444,423.71938016218655 358.98468952904267,426.4723503287521 358.56339765569504,426.8485984169293 358.08101698875237,427.9935348919147 358.3221337214183,429.4450929505861 359.48753126214876,431.19517648771654 360.472164854499,432.186434166152 362.19074718216496,433.9365177031779 363.2223381846012,435.30829232529095 363.45123715846444,437.38943296350357 362.59187239340764,442.0731034137597 362.42008776169746,446.0936292483792 362.717730028818,448.16431855078 363.62552422257943,451.23097599278606 365.28448977610583,453.75681360847926 368.3780851680175,457.1155196447837 372.04473760532954,461.1831500914138 373.94187585302933,463.0071289885359 378.447873594904,464.08243895903007 379.43353760062206,464.69995098169323 385.35414572122465,467.1685270534133 395.14719455240504,471.2463144321105 398.3938799333773,472.5998360170342 409.88784686294196,477.32266217599863 412.97908702405954,478.41843321223786 415.60693556536086,479.0849634718272 421.71713974898455,480.63470520606637 423.25451652260097,481.02302385112165 423.38537902282104,481.26840943907877 425.43001358707323,485.1243635356672 424.9270246519379,486.8784215244488 420.3104782739773,486.7680200900784 417.13754105107205,486.6944191338314 414.3856012978743,486.6576186557079 402.92843484632857,486.51453839678976 399.5469125136942,486.33451045792805 396.2880093739193,486.51453839678976 390.8700957843935,486.2118912648595 388.77673738737826,486.0973681769133 385.35414572122465,485.81400449554025 383.6408626620085,485.67210185191453 371.4796294632314,484.23408636915826 364.1550095020557,483.5500390821073 360.5364920902266,483.0463141376626 359.89645817508284,486.0646893523656 359.0541688316093,487.078027317717 357.1355391047967,488.04985434367063 354.1273208224746,489.31019711804544 350.64025471814574,491.0033135149474 347.41373599927846,492.55128882630027 345.06586549581596,493.44922049226227 343.3935045685082,493.84180799271337 339.0866710140232,494.5672190172375 332.63378077831777,494.0631996690482 330.88987972128945,494.0991169356239 326.2693588918869,493.88317173008187 322.9994156082879,493.5952447893592 320.7759307211986,493.55932752267887 317.0696809694044,492.51537155961995 310.87365807052186,490.29674433520665 309.27165965753767,490.316763795387 306.3340982927608,490.15646091264716 301.9156856888221,489.8760412694529 300.4641276300461,488.00039450107516 298.4212594893079,486.838677008042 296.24222957906295,486.05173558414896 291.88387535535145,485.0024803522218 289.34169832769817,484.32726517981166 286.5273449634792,483.87756333720756 285.02470784114604,483.77010594112045 282.0597669206897,483.94983947623746 280.4028621938989,483.91392220966173 273.1494879583853,484.12250731959995 269.1423574977563,485.04251927237334 265.67899090172347,485.24698272873576 263.8267492373741,485.35326250953045 262.68593441544147,485.42068098546605 260.7887961681601,485.53314324657214 258.21261549853284,485.04251927237334 257.280385787166,484.8666129869828 234.03057972556735,482.1842997383809 219.0486634803353,480.53239987692285 209.3788226497128,479.0849634718272 197.33225974091116,477.2815928423748 188.385769107868,476.4843472845946 185.5603756006617,476.23071838948596 183.19292724237437,475.82193867858103 176.95318537595682,474.7383854010399 165.2095640027255,473.20895753072574 162.70713149116526,472.88202208321934 160.78953217772045,472.6325148415819 160.6914957040773,472.60807932408113 158.00888805183536,471.9742278891441 155.24899939533535,471.32403704182866 147.61908266737694,469.5209608162255 148.72294980884308,467.9425147090897 149.5081248097452,466.0493509131457 150.21969885419117,463.85368718709145 150.60404304790904,459.80151294118747 150.05601032781252,443.13619562545125 150.05571592375406,440.5629589938982 149.95797385416935,439.27656148106087 160.22118559348974,437.4581762565516 164.5634948089858,436.3019052343113 162.51915464921046,428.342403424517 161.42323641104662,424.82869377434093 161.71366578417417,422.4694887235189 162.3064478855919,416.67547424774057 163.5330814219466,404.67439672977866 163.72532711940178,402.78520738538117 163.83999740937722,401.6811930419904 164.80490594529178,388.7848334925006 164.9970044411361,386.2372099938453 160.06971482591376,386.91198356048153 159.4973937902411,386.7606599944118 157.94765205579273,386.3477586300358 156.12808921640945,385.8652307610639 154.97505663609252,385.55846197555786 151.63018757944786,384.6670071937565 148.24454359334237,383.7676035086528 148.22408252717895,383.76348185507703 144.638243940316,382.81491273133173 142.5774171658192,382.26688001123523 140.18126443526285,381.5473570632778 140.01772311049504,381.52100792086145 139.82135575915032,381.49009551930465 137.52338670384793,381.13843015044824 135.05790187233583,380.75820761061993 134.88597003859647,380.72950323772335 132.6698452466926,380.3902028294897 132.52264333419865,380.36562011006424 131.1611728461819,379.9116494121689 129.8363556341548,379.47416532836746 128.96109306249346,379.17976150348414 128.40908589095497,378.9997335645179 127.5423610302944,378.7094513932104 124.40607708379717,377.6669674491885 123.22021847732167,377.2743799487375 121.14319949258025,376.5832669698273 107.06907744152805,372.42481294312864 104.8567798994553,371.263684257794 104.55840162302546,371.10411738467735 104.70957798696136,369.9920069361643 105.68699868573704,362.8934891121793 106.83178795869324,357.82326643985874 107.14827207049247,356.4166049645378 107.33889854688134,355.5701939679068 107.11397402487844,354.985507971716 105.81373953206757,351.5876462267032 103.49943106490971,348.61902525834034 100.72290859207742,346.29249903217067 98.01203817239899,344.70993127135455 96.02893400824792,344.2480116701569 91.41238762986893,343.34433912965744 87.2172803268668,342.526485304103 81.32096052184033,341.69641371974586 79.7099827921861,341.4673675440626 64.7893025425783,339.3616441864246 55.72401996692527,337.64026502229535 49.24713581886541,337.18231987264426 46.93694900517873,337.24767752184425 39.253892386927554,339.24314664693185 35.68836766336203,341.34887000446525 34.4985346050262,343.3319741690347 32.5152832388459,343.6633256738615 28.696129620171718,344.5137111221436 26.30424574469738,345.04937888151284 21.84314458617306,346.4845975279104 20.755469654951554,346.83228844511564 20.068478329721803,346.97536870392923 19.168927442902678,347.15922389262204 17.349364603101023,346.2916158206229 16.261689671879516,345.7731706849707 15.39496481163733,345.40104425036924 13.988450538240954,344.79177553475307 13.325894730198192,344.5054678149921 11.348825844224656,343.6097441777949 10.992450013884795,342.78497186230595 10.959623987726232,341.8617214675046 10.719537668428115,339.4908874655784 10.56998052555852,338.50713708467134 9.512629188509077,334.049274368175 8.828140295265825,331.53536010733063 8.82387143976543,331.5271168002837 8.108322943459136,328.86953347292723 7.433843780672133,322.19628197404563 6.558581209429152,313.11892884109614 3.442905530287797,312.9143181828091 1.602881624741108,312.7958206433163 0.6133903691919697,312.7304629941163 0.2249245224212725,312.70588027479545 0,308.93589209507667 0.9119158476510256,296.46862612041673 0.6582869525423668,288.0658993521789 1.2513634576001496,284.6556726464388 1.6969436465239254,282.104221898057 1.8319278006335566,281.59725851158436 2.608859494593324,278.7307956704404 3.9295550527308607,274.9035459468531 6.235767415393952,268.22646719824496 11.30186843413867,254.8677464417836 15.95506808850733,245.25060389588913 16.88332334801384,243.32873572694393 17.349364603101023,241.9197190210381 19.753760641018108,234.65206619967245 19.94247349270062,233.74839365917296 22.21924547253023,222.85133048449723 22.73857381993938,219.2203009101208 25.854543902302428,207.29282434840587 28.32002873381455,196.91523672275014 26.54536247736329,174.83892430731805 26.439082696777792,170.34514432414142 26.27141971853882,162.9851959036701 26.197965964111884,151.85511210165996 26.112000047242198,139.17116491183486 26.046495196117547,132.93142304510354 26.574066850469052,126.93294511285816 26.570092398608722,126.22563992349423 26.46734546379589,111.08018235370356 26.459543762522827,109.94334198394505 26.504587547902442,106.6108378880277 26.582310157411403,100.46118359174184 26.758069240981882,87.06580955897705 27.408260088192744,67.09536770300299 27.66571623313251,52.7022591077467 28.316054282372594,29.36265987976103 28.36095086572299,19.177023547920403 28.3855335849392,13.73879609446966 28.393629690270707,11.620707776313541 29.816483375940937,11.285381819731 31.059603526598735,10.990977994847713 32.17598283050763,10.729252994512143 39.29069286494645,10.586172735593973 43.26911895246966,10.855993841156454 46.55260481146084,9.31037376038846 58.98719196178226,9.686621848670255 73.20439427185723,9.854284826909229 75.37959693185263,9.903303063730801 78.14787609732421,9.960564607703914 88.41535669256335,10.185489129916 88.31717301689098,4.358795829485372 88.247693713906,0.16766297834356708 97.61135456682561,0 98.75614383978183,6.660739336334288 99.41855244579537,10.52493674007431 99.61889424858205,11.690187078984742 100.4572091401953,19.042039394229146 100.12188318371736,26.725243214404948 100.26098899087978,32.167592321431464 100.28954616195632,33.243049493745694 100.47767020594033,36.11348678643618 100.5021057235457,36.51004873864297 100.78841344320207,40.926106111996866 100.78017013625971,41.694794498805095 100.76780517542781,42.749790605269695 100.72290859207742,46.29897591635218 100.72290859207742,46.42159510942072 100.64930763562127,52.42022024359072 115.19786145073222,52.75539899814404 118.22771841461473,52.75539899814404 121.87920905504994,52.75539899814404 122.46374784910694,52.747302893021725 125.01122414604679,52.71462406847401 129.88934832241836,52.649266419273985 133.06655440082403,52.608197085754696 135.8183469519925,52.571543809555834 135.85912188187174,52.571543809555834 140.01772311049504,52.51869832300775 142.6223137491696,52.48557789268615 145.24751265603678,52.44877741456267 150.33407474052655,52.38327256354261 151.10688478059674,52.37105480473993 153.26177357729472,52.34661928734375 155.91950410626202,52.30967160729564 168.92229063878494,52.39563752416532 194.7154513434339,52.563300502404296 221.89451805370499,52.40785528286341 224.31525350389592,52.39563752416532 229.5082425710004,52.47748178745924 235.18375950749513,52.563300502404296 239.95957835472313,52.86182598086335 241.29661332555293,52.94367024415727 241.2394989838182,54.0148585610757 241.20667295724127,54.64046668896575 240.86737254932137,60.917009033820555 240.6793957069482,62.39300260988813 240.51968163159316,63.63200110697016 239.8861246007146,68.59609120042059 239.28480478829607,73.3105268504135 239.04368805563016,78.9778004796521 239.33485343848545,85.56596927310721 239.08210775471537,87.05638863663768 239.20031089046347,89.10897210377374 239.3020274119085,91.27284021672342 239.58494948782143,94.20510231273667 240.63641274830417,97.26322204384648 241.38787851129078,99.85515331815365 242.44905709817135,102.03285841097232 243.90826965660955,104.63715464590221 245.1456489323115,106.8150069406455 246.38376421815954,109.6988396073265 246.42792479178223,111.0498587597407 246.4213007054878,111.08018235370356 245.9858774486311,113.05828165325408 245.36689340693087,116.12508629718471 244.551836417526,119.32510867181567 244.25272213136842,121.38593544610328 243.70336459426403,123.57011742297796 243.00459711590088,126.57789410004914 242.31657537688497,132.18893659868243 242.20602674079908,135.64479589718684 243.29178804689582,141.10245400311942 243.16931605564733,146.16325575299595 241.94268251971098,148.30592679057747 241.7177579972897,149.18089495818037 240.2703215919849,154.8235858679936 244.44923668474237,156.49197234375475 248.07614460554302,156.12808921620027 249.76896659859577,155.9604262378567 253.02374808448118,155.87033866741123 260.5024884485037,155.65777910592647 262.68593441544147,155.8033617972495 269.4040824981965,156.2507084092688 275.55373679427316,156.65948812006908 277.77825209514856,157.53857794124778 280.6610543485664,158.67953996458206 283.31466322448085,159.3990629126441 285.9194010651846,160.10254085217693 287.96786287843116,161.01430949790333 289.55043063945647,161.7217618891919 292.4411817961765,163.00963142117087 293.3448543364668,163.91330396167035 294.6122628027008,165.18100683164894 293.77821676658795,169.19211174392908 320.59752200319406,173.58770805153793 320.654783546958,173.59595135858487 321.98784406592745,173.76773599039961 324.50676319179075,174.0867225347083 339.0428048440406,175.9348425454819 341.30397342132403,176.18420258519475 357.4676266195604,177.95886884164602 369.2847017468003,179.2591033342477 372.4903177942533,179.61091590502872 373.55355720786946,176.858976151831 374.5062479853997,174.40144022351657 377.8755525592313,165.70430963039547 378.9223053585444,162.9974136623682 379.2371702496957,161.69717916976649 379.3475716837524,161.23511236664424 381.0975080189582,153.9771748714672 382.4101074721826,138.79079517008188 382.7536767356029,134.82458684104756 383.2482751617666,128.15148254409058 382.3774286476349,118.55465386212111 382.2465661474148,117.12355686929934 381.06247396361647,111.08018235370356 380.7418681983461,109.44462190451934 380.7913280408369,106.94616384461025 385.35414572122465,105.45441966386274 385.62926609544616,105.36462649726653 385.35414572122465,104.1934880817894 384.089534091454,98.81208056653789 381.87856136638914,89.81554128351455 383.2482751617666,84.21995498571196 385.35414572122465,84.05950490115214 386.0942769367472,84.00327377054681 390.7025800077654,83.65558285334156 395.08743057581785,83.36441747059088 406.5680021316012,83.78968379558965 409.6568870623431,83.91730785367713 410.2639477492991,88.19028496821744 410.7567797523673,95.27025535116378 411.52635135030494,108.05150300511347 421.1046325911311,107.64345930383172 421.22357173660697,111.08018235370356 421.25713377249326,112.0418524477993 430.08144681834636,112.21893634848223 430.40205258361675,117.79420878235983 430.47064867484477,120.70836504310829 436.44469108938017,120.79050371025146 436.7985644868968,128.31752630136785 441.31957682403754,128.216840193186 441.4872398022765,133.72881580480833 445.34304669694035,134.08033397174012 445.3512900038827,134.33396286684876 445.4003082407043,136.09626416267733 445.4780308506316,138.7336808280334 446.1689966277217,166.97186529844944 446.8355268872064,170.64366980260047 450.5360357644632,170.1040275915801 450.77317804526876,175.52591563275698 450.8017352163453,176.1434276554201 450.86724006747,177.63163899029038 450.97351984805545,180.10153987922752 451.41100393206614,190.12348768437573 451.4642910243881,191.28064191805925 451.5172837126516,192.55231923968898 451.53774477839664,192.98980332349043 449.2970372668582,195.14057046629887 447.3588296860575,196.996933784224 445.3512900038827,197.83524867552347 441.83890517102833,203.17941410698222 440.16639704210974,205.0194380125289 438.49403611480204,208.52784839383676 439.8353399407138,211.3654596600549 441.74896480271667,212.0361115731154 443.7607733399735,212.74341676247934 446.02179471522777,213.536835070533 448.3606859020202,216.21090501208795 448.58973207791263,216.3336714070811 453.3779158859725,218.88100050199174 456.0357936169691,219.92775330140938 457.04147708318123,220.3243152535116 459.4376298137376,221.2649354740592 460.75420371882234,221.78426382115455 464.0786117093036,223.0884727654074 469.93400938284,225.3946851277567 474.3418234490423,228.16296429322827 477.12644202678774,230.40764625610407 481.05629148315865,233.74839365917296 483.80778963068707,236.0872848459654 484.36804010958633,236.4962117587949 491.33554823153116,241.59911325566313 494.332726370866,243.69674050807419 500,247.6548527318816 495.61662145140303,251.72336638995486 491.781128420455,255.08854931041992 488.3055440656195,258.35157410366605 483.7627458457258,262.7143443848026 461.1918350044438,281.8139397266449 434.80177054448757,302.4017464034621 424.52634104636456,308.9276487880297 420.584568234831,312.29695336196596 417.56280737628,315.735737238678 415.13809747422874,319.2849225496559 412.72148367750896,322.82601175551144 411.2739000705933,325.78624221479816 408.8574334759027,329.7035795089355 405.7784110731694,332.65983551657104 403.8360818384792,335.0315527299404 401.84075991552544,336.84287226259056 397.25306511186307,342.27285640888977 395.00823594685346,345.3111038818484 392.65300534778714,349.65356029905996 389.0833589711688,356.3144468373188 389.0521521656582,356.4166049645378Z"/></svg>