<svg xmlns="http://www.w3.org/2000/svg" width="500" height="500" viewBox="0 0 500 500"><path d="M92.13533523607262,357.88211936967775 91.04620093492798,357.43566199280474 87.82454398824213,355.6111180047552 85.77945981728914,354.2140877693751 85.38884063377576,353.14555155726435 84.90160069499854,352.9524754932491 84.21921661085949,353.21214377305006 83.17136121121516,353.64652355545627 82.27058774877548,354.02101170535985 78.92029614931607,350.5374529511904 76.61322744762325,347.8443975679795 70.09653803216163,339.70302353478775 69.02113579049046,338.5472142946012 67.37734210222075,336.7823964925418 65.74438515951582,335.0291599454119 60.408652851954955,329.7233734541318 56.022087107780685,326.3155891963648 54.58361252438786,325.49530545563795 51.10923605095277,323.74438515944695 50.00165446514191,323.2387806593185 51.083922736549816,321.90602638872645 52.35926707209053,320.33891715267765 54.776605865205674,317.222980518675 56.56897050940944,314.91359556604334 59.804359515333665,310.84634156428643 60.54886875965798,309.0217975762369 60.98084956798666,307.95797658931883 50.617529056692675,304.4927823965006 47.43036770508538,303.3921495636239 45.589692683249694,302.7555941597243 42.423294867247485,301.66182735658435 38.15386524399717,300.18885717834803 36.71762418846334,299.6948339330903 27.48479960289419,297.5417131985152 26.407163833599142,296.85932911443496 23.199321669466638,294.83112048639765 21.721718989352613,293.8950241965524 18.297886421173324,292.60123257640424 15.772511064494848,291.61781858794285 13.739008148471335,290.6021425321443 13.136865616394047,290.6779997518618 12.385490342332995,291.05257062496287 11.482400628954437,291.1651569673828 10.616122761358202,291.0157587790042 8.998469619936028,290.0760226661794 8.070149315704622,288.86040451668765 7.789800223613569,288.4926996732646 7.114199445896277,288.1916697688247 6.096289862297528,288.22848161478333 4.855441121835377,288.38019605410085 3.387103445476846,288.3433842081422 1.9578111429947442,287.8148653679234 0.8754601482718465,287.01981221822575 0.6778343053411711,286.87504653184243 0,286.1994457542427 0.9789469332724251,285.4479877569842 3.350291599459409,284.1680936427044 6.146833767788442,282.37349547093555 5.530959176237676,281.14191173428765 4.632501964736862,279.16333705592297 4.538280183726887,278.95421268149533 4.671547338613293,278.7244902179751 5.018571369687489,278.12019688135376 5.048434462653194,278.0695702527242 5.252926335085495,277.74099350625744 6.6248087025750575,275.5212805558966 6.762708359339208,274.89399015592886 6.914257352261844,274.2137568763926 7.070521570142103,273.50374322702925 7.061422012781484,273.40728791827786 6.932621913613065,272.10199776651524 6.79712123110278,271.62410555486724 6.282417173378606,269.7995615668177 6.114654423883864,269.2711254497964 6.082475079744173,269.17458741778876 5.658932042961513,267.8463829259358 4.62795218617411,264.6132274475767 4.432559871102429,264.00206808127746 3.6467717252778047,260.3093849526804 2.6540927330021296,258.3930181577571 2.311701203805679,257.1956818464192 2.725317450548024,255.5804276791921 2.7827273855405634,255.47462464325264 3.0331306615860325,255.00814824008052 3.683500847980249,253.8018778177768 3.8581296274468437,252.59775819995832 4.4050130290755956,251.81188733093626 5.328783554744248,251.50390867356217 6.1215204533854894,251.52922198784756 7.309591760967959,251.83711792202422 9.467262274282145,251.58431567195998 10.315175580292046,251.48562683540837 12.654423625889443,251.21437730073671 14.00330893015004,251.05587955493868 14.87182032513504,250.95470902099453 18.890846672575,251.96351904705634 20.850891343193627,252.9240186954862 22.40426851988652,253.8867518716575 22.85229763839244,254.16255118500948 23.199321669466638,254.36638127145085 24.412540844822075,255.07945568105896 28.01795094528458,256.8878686354987 28.937006245760493,258.0873557513219 28.948587500689968,258.1355834057564 29.132398560832176,258.8800926500807 29.580427679338094,260.69082185551815 28.541837283449247,261.7685403483045 28.42006866041244,262.1683418124935 28.55796831717659,262.2786946271133 29.555279811565125,263.07134880261583 29.89527236650771,263.34028208628985 30.782231046158927,264.0479794846555 31.89907763596039,264.46622823345194 32.38160234954487,264.6477230425965 33.176655499360095,264.09397361128975 33.70285808846364,263.7286677420618 34.54845514353467,263.7032717045202 35.26765107345603,266.8767009968303 35.4537783845371,267.75902717460383 35.47172932978359,267.8463829259358 35.51358729401862,268.0508747983681 36.50849981391818,272.79364685446853 36.63729991332171,273.1429871365404 36.82566075202667,273.65992472182967 37.087562559686624,274.3677048434515 37.38867518738276,275.19038755843223 37.72411796352748,275.4086114902792 38.18827811576074,275.7097241179754 39.19022211202702,275.79468089505355 39.589940852901016,275.82917649007334 40.8997807835203,275.7418207387413 41.21462547068992,275.72122264964867 45.95508127567511,274.66873474789145 47.32001489034806,275.05943665466106 49.42482524723246,275.6660462423388 53.26922281520583,276.7344997311345 54.53306861913206,277.08384001326516 57.65587128269509,277.6766348182132 59.93762667022007,278.110931877422 60.238573851286226,277.07689126033097 60.61554369864112,275.7854986143779 61.918352152893675,273.49911072509275 63.03511601938014,271.54138230553053 63.60499648447298,270.54407081114203 63.997931918925225,269.85242172312996 64.19787401279477,269.5031641643143 64.8004301612119,267.8463829259358 65.56744012934547,265.73694006699736 66.32791496076713,264.97629978906326 71.25226454897442,261.7570418166313 72.69760516210398,260.00827232492543 72.85155312928049,259.05695495722995 73.07912478825675,257.8046904082332 73.04007941438032,256.16858998220357 73.23075650425926,252.34263969889645 73.26980187790058,251.69466848657976 73.76390784641454,251.27650246103954 74.98175952364772,250.74566736982314 77.22678578847025,249.67944740871002 78.44472018878332,248.1215204533368 79.24200686622243,246.75195433678613 79.69930098871895,244.96422219463645 79.66712164481437,244.68155685154775 79.43276667918124,242.5606154609948 79.1224717708095,241.42093725441802 78.40550936851201,238.79670761467548 77.83571162696929,235.2994168010913 77.84952640952264,233.26574843861414 77.6817636597928,231.84795466768773 77.63121975430188,231.41597385947662 77.68631343859066,229.89485875006207 77.36005294312154,228.37126194319623 77.24978285169922,227.39239773341512 75.23679530133582,226.68461761179324 74.03962443662785,225.97923646442524 73.66968606540456,225.60921537000453 73.55015097022674,225.48976299790658 72.51379410196178,222.2497414898695 72.34148157343405,221.72817140258493 69.6299789056745,213.5477519956931 78.87893452473588,214.20035571000508 79.36840799113698,212.29772097449657 77.90007031477845,211.86334119203156 71.42697605175601,211.97146047896868 67.05182611588123,211.7829341936925 65.96947512115834,210.23882202093142 64.21392232297201,206.59899904870537 64.34950572879728,205.33978574677442 64.48045663250971,200.24304090666564 64.71555610727242,198.91036935932982 66.30036811850519,189.92108202012818 66.60139802312145,188.2206229060543 66.38540761883955,185.84687926543714 66.33254746264488,185.25185093274766 66.92087521216881,180.81689208750893 67.23563717578833,176.69917690369368 67.32754270609455,175.51110559622876 66.64970840075337,174.38970922780578 66.14650287487879,173.56032592960074 65.88451834390385,173.4752864292664 62.62381602357667,172.40435124296053 60.53282044924563,171.19576456965916 58.48533730403877,169.743475203713 57.79145468852037,168.67733796585608 57.099722877310846,167.55825784837197 57.15266575682051,166.97001282210425 57.9522686854336,166.436861479949 60.35347644458629,165.53153823882897 60.617777226265,165.05124705298593 60.51205691364054,164.5710385903991 59.97898829480026,162.97175001032815 60.27538569730366,162.84303263435717 61.98039458999907,162.1099391984499 62.4583695250208,161.90313107501996 63.44649873873372,161.478099019743 66.53703933507718,160.53596393266434 69.44161806696954,159.6466890019567 70.95131736790826,159.0031848451229 71.45452289378284,158.78959341527118 73.06994250758113,158.10017785500054 73.49729081379695,157.72792323283838 74.03044215595223,156.02068081234276 73.70873143904588,151.5421268147824 73.52037060034091,150.1150680398654 73.43061587481381,149.4326839558439 73.36179013128667,148.9133473963008 73.06770897972214,146.67295363364988 72.13012367126503,142.95264093976976 71.91644951839223,142.1024113827622 71.51888158182712,140.52835339372044 71.51888158182712,140.18604458783898 71.51888158182712,138.0742027547054 71.25226454897442,136.74153120736958 70.18381106035498,134.59535922572866 69.1704512555541,131.76895396455149 68.14054680068602,129.97427306946764 67.93886751884745,129.62269925965435 65.53749431282965,126.74343384210616 63.572817140333285,124.99482979691278 62.60313521128658,124.13318443148819 61.1094842207602,123.1726020598021 59.13339123972923,122.42577656453891 58.07172105729643,121.86739463129568 57.3800719694019,121.50200603881147 54.90987301985697,120.19919758450014 53.65752574778033,119.5397278405102 51.73652645103814,117.94035653724181 49.767299499743906,115.45865905614117 49.06870165879764,114.58079993385057 48.10820201042655,111.06059478017609 47.51764073304362,109.70707697397897 47.51764073304362,108.21342598339382 47.73131488615154,106.4027795012126 47.94275551163557,105.22860569967482 48.53555031664237,104.03821814121225 50.13723787073207,100.51784754108412 51.09773751933829,99.13231583737729 51.15051495245308,98.54407081110958 50.93692352242505,97.79956156678526 50.134921620028315,95.70616701825912 50.81962195487111,94.33205112296935 51.093105017225426,93.78748397239703 51.57339620318603,92.0801588286452 54.25032055278714,86.61810811930843 56.86536791191284,82.61984530753233 58.14757827695518,81.02055672746138 57.82586756028394,80.27373123219819 56.81250775524794,78.94089423834996 59.588286387971884,76.96711750837541 61.291061753043415,75.72395251685683 62.14824006304392,75.1012118956281 63.48777763999892,74.31997352860134 65.3491334741247,73.23530628282201 68.38226413547561,70.79042064773881 69.20726310157154,70.12400215081469 71.07531951856896,68.84410803659367 72.4103900402762,68.89696819290589 77.59904041063241,64.5563138520509 81.6570294083987,61.410514125023795 81.9976010258409,61.03825950286164 83.95036605061804,58.90358605289398 85.76564503450066,57.63279149609235 88.30251892302874,55.85887413661358 89.6352731937971,52.83484303262328 90.40501302920937,50.98738470448341 90.91979980977831,50.52545807999159 91.74008355044639,50.73226620342154 91.6873061175667,55.723208007649646 91.22537949295733,56.49311328951557 90.62331968395992,57.87186168674187 89.99602928410967,59.31256979775858 88.71150266789334,59.569839103305675 88.33511188350828,61.03825950286164 88.19903213802816,61.569011870821825 88.81490672957892,62.9547090209823 90.41427803296487,64.51726847835081 90.66468130877523,64.76312197542208 90.94734665204027,65.08474996901344 91.22074699107958,65.39736112838284 91.53790792918808,65.75811721887173 92.13533523607262,66.44124581214037 92.82011829446553,67.22413864417383 93.6404847584486,67.5320345783505 96.77007072866849,67.7365264507828 97.89841584984931,68.24899698058921 98.564751623576,68.76138478719817 100.25834470797191,69.37717665549273 102.5906440007527,69.22786119042908 105.1550647310725,68.91996525625242 110.59411837723907,68.52008106880722 114.7394631262786,68.2145013856282 115.87690780505515,68.12946188529384 118.40914919147038,67.94333457421276 120.71853414433718,67.99619473052499 122.41204450518299,67.63767216777752 124.67088555255889,66.66344045993296 128.3887992720676,65.93737850021608 129.87781776071623,65.78334780990092 131.92985068472095,66.09124374407759 133.31778136262284,66.19464780576317 138.18918807132047,65.98783968233322 141.8336435456594,65.57885593746862 144.0418579642294,64.96298134591785 145.78591223080122,64.29664557224994 150.25073416912323,63.63022707532582 150.89183935176194,63.41655292221791 151.5398105639023,63.1982462671147 152.20391280977,61.24970012822811 152.27033957904328,61.03825950286164 152.76924349606497,59.45270298220539 154.4122099518901,56.12085866735341 155.33589775400864,53.248459279483185 156.2183066550971,51.94556810191563 157.93713033058097,50.17851677217361 159.75927534443545,48.303511601948124 160.8370765605956,47.48314513796506 161.0713488026786,47.170451255339444 162.06634404612828,45.84241220994015 164.0677503413271,43.7950945113045 165.76126070264314,42.666749389947334 166.83906191856818,41.58911362041717 167.61575050679704,40.11845969311977 168.6933862763272,38.37440542666548 169.27021549423665,36.536046655945015 169.64925342282058,35.1343839186284 169.70219630233024,33.677462050745696 169.3368077099048,31.094759482154558 168.65657443054488,29.35062249244406 165.47181205295635,24.240228316176797 165.1706994252602,22.990197294980256 167.87078628472028,23.240600570790612 169.01054721443572,22.431732638480806 171.37957562991892,20.752037060012015 172.57219671606416,19.577780535218015 173.30065764997613,18.8632171071744 175.1205691359716,17.070852463088194 175.5709145056515,15.974769408950598 175.34805807186797,15.524341316132038 174.86081813309076,14.54547710635094 172.01844728469865,8.989204615945425 171.15903544707427,6.126152955322012 170.94759482159026,5.420689084697794 170.85568929151916,5.117342929260217 170.17553873523912,2.534474914215431 170.49956570308433,1.0179095834811929 170.87413657618535,0.32857674652553825 171.04868263233698,0.009099557419397289 175.2951979156733,0 175.2951979156733,1.6429664557663481 175.19411010469148,5.204698680592232 175.34805807186797,11.889150845842487 175.34805807186797,12.863465276943275 175.96384994010376,13.840013235726722 176.90366877618476,15.807089382476956 178.0457459570742,18.192248831569966 178.73731232188882,19.639905695520845 179.4542747239512,19.453695661183556 181.25582164883056,18.98961823220651 181.8739297680052,18.82863878895718 183.23199735294142,19.816850725926315 184.02473425158266,20.20052115650552 186.0630351161139,21.188567646962227 186.8005956076216,21.547090209709683 187.52210778848183,21.896347768584096 187.53137279247244,23.748521321916705 187.53137279247244,24.024237912071232 187.2992513546983,24.511312404394804 186.82814244964842,25.503991396788035 185.39661661930734,30.36853207598403 183.92372916438606,34.463332919708975 183.71460478984088,36.391363692759114 183.63874757018215,37.07606402783703 183.36294825665382,37.54948918394333 182.77933573255774,38.553666708068604 181.75679364708125,43.581337634940375 181.42813417712318,45.17839268726989 180.73416883828978,47.66927244904614 180.57112131375266,49.507548496510395 180.93882615735205,51.47677544774585 182.17504239593646,54.967282954908285 182.32899036287785,55.403896265055934 182.489804359556,55.638333953768935 184.37399181051586,58.34743764739218 186.82590892178945,60.51205691364054 187.61525416733735,61.03825950286164 188.54233362301946,61.656367622153844 189.85217355363872,61.77358646651034 190.84253629497553,61.860859494586144 193.09451131261469,61.794267278859216 193.57703602619918,61.7804524961883 194.26413533553094,61.42432890763593 194.59957811167567,61.24970012822811 195.56214584127576,61.03825950286164 196.00132357213093,60.94172147085401 196.44935269063686,60.84526616204382 196.84683790388698,60.75791041071181 197.0146833769318,60.70505025439958 198.23485130510386,60.30988129214711 199.83877238705256,59.349298920461024 201.7574554328559,58.73119080116882 206.62207883536686,58.68982917652985 208.62116887962682,58.67369814286129 210.47789221187486,58.83914464159349 212.72746825526013,59.04140298634314 215.3240683294845,59.27352442405848 216.21094428605585,59.351615171458675 216.63605906464778,59.29643876414879 218.28829052399328,59.08044836004323 219.3200148901454,58.915001861311026 220.81829838301974,58.67369814286129 221.12156181502476,58.643917773093015 222.3555445259853,58.526698928736515 223.06555817523105,58.460023989753374 224.47880216753592,58.32452330730187 225.2392769989576,58.25089961532577 227.02014311131174,58.08082061465704 229.36857343781986,58.577242834109875 230.0074450925996,58.453902469322564 232.41328535410025,57.98899780784215 237.69839103309033,56.85841915874355 239.28626380462669,56.32535053978572 241.0533151344275,60.48674359929637 242.20383008662782,61.03825950286164 242.624229640027,61.239773338305355 243.6177358647473,61.713860280461375 244.4426521075282,62.10902924271384 244.59205029590686,62.21474955539708 246.79099971048623,63.77962526370445 246.8140794972653,66.52099102454727 246.83467758624042,69.23249369236561 246.52446540118365,72.50461182116861 246.38433221679563,73.97294949746836 246.02357612624795,76.77180791661871 245.7018654093416,79.16614964638734 245.61682590900722,79.79344004635514 248.8269843240786,80.15419613684405 262.5314968774714,81.4662695950872 266.82615709157454,81.64553087649033 267.0972411799101,80.65285188403831 268.50130289130425,75.00012408488138 268.85974273091307,74.81854655253939 281.2016379205717,75.76986392029366 284.7311908013755,76.0410307317091 290.2138395997461,76.47764404185675 296.723745708786,76.99466435046102 298.9434586592056,77.15762915168314 299.79368821638946,77.2198370352422 301.98122182243424,77.27493071929585 303.4036480954147,77.30950903751308 305.2166935519086,77.3553377176937 306.4712743516091,77.24970012826667 305.83248542014434,83.28163130251993 305.7658104811612,84.09728254125149 305.35906026392047,89.14348347604569 304.4652355545325,93.69317946813084 304.244612648608,94.80770980687588 305.9358894820651,94.80770980687588 308.1579186831884,95.1777309012966 309.05182611589134,95.32473011542136 309.33672498678027,95.37304049305328 310.0582371676405,95.49249286515122 309.8536625721283,96.3840013236003 307.0962485007556,108.3375935806845 304.7157215536579,119.35120155523403 304.0631178394047,122.88770318897195 302.7540224181501,129.97427306946764 302.5557347894048,131.0473590602587 300.65310005377876,143.99818008853399 299.48810853321044,153.2126401125168 299.474211027107,153.76638954382352 299.42606609610505,155.93564131200839 299.2789841586653,162.1996112007208 299.12958597028666,168.8037390908882 299.0676262564963,171.60938081651906 299.2789841586653,187.10154278862896 299.5025851015784,198.91036935932982 299.5983786243977,203.97940191089936 300.02109442873575,206.00612152044235 300.1889399017806,206.0222525541109 301.4205236382521,206.13252264553321 302.5768292180348,206.2373330024569 307.22041609804626,206.65640898375668 307.2892418415734,206.66335773669084 308.77826033022205,206.79662489145971 309.9203375111115,206.9000289531453 310.3960789180391,206.9000289531453 310.4121272284514,208.26951234643977 310.448856351389,211.17632460607356 314.7826446624485,211.65206601317752 314.41270629122516,212.7618811267298 315.7706911528464,213.6351077470251 316.790999710699,214.2922612400174 317.1701203625979,215.45965173513346 317.9008975474487,217.6953302725916 318.43173263866515,219.32456466894325 318.22715804291784,220.81126690659423 317.48959755164526,221.57190718452833 317.19543367676573,221.87285436571204 317.1150266783091,221.9578938661052 316.48302105326616,222.60826405261696 316.9059023039991,224.29722463501759 319.2313355670431,225.6161641229387 320.7111717750161,226.99028001822848 320.51586218325946,227.93241510530714 320.34809943352957,228.7389667866193 322.3082268272281,232.60859494562183 321.8049385780385,234.0861149025972 320.50436365164495,234.59626918146472 318.436282417463,235.9612027960789 317.82967282966774,236.81134962983023 317.60450014494535,237.12619431694108 317.36542995435457,237.45940356540314 316.76337014535716,238.30036811847887 316.5359639327758,239.40571617654828 316.14302849832353,241.30835091205682 315.3823882202719,242.5859287752802 314.85386938022947,243.47520370598784 314.6401952271216,243.60383835876138 313.8980022337361,244.04731769864577 313.03627414493775,244.1438557306534 310.1225958556848,243.4268933283559 308.59221574245595,243.23621623859452 306.3472722009484,243.04553914877437 304.24237912074904,242.56748149067275 303.2611986600878,242.18141208589844 301.79509451135317,242.20217562144475 300.8529594243333,242.21599040411567 299.86722918487425,242.22972246353038 299.84654837258415,242.2274062125327 298.9434586592056,242.13624519170878 297.525664888338,241.99305124707595 296.0940563346819,241.89651321506832 290.20010754027265,241.61393059523581 281.5026678249529,241.42317078215945 277.57099722902126,241.66215824961154 277.44004632507375,244.50229557020342 277.3320097615104,246.87835546181824 277.5733134799602,251.3752740207886 277.16424701178056,252.2759647599133 276.66335773684483,253.38131281798272 276.80804070003074,254.91400918226796 278.0994333459838,256.15485792284767 278.4327253175845,256.72928816644446 278.3844149399526,257.204946850351 277.8146171984099,257.7793770939478 277.3848699179402,258.4481118418696 277.44922860574934,259.1879885841986 277.5273193532671,260.0703974852283 276.9734871985866,262.8439425900932 276.8104396742846,263.6642263308201 277.0493444184805,264.3306448277442 277.97319766746415,265.8173470653952 279.0117880631179,267.49025933738346 279.116102080563,267.8463829259358 279.3473135625776,268.63688629689443 278.7245729415252,269.638747570022 278.0076105389926,270.2591719403119 277.52963560420596,270.68883649752536 277.29983041737074,271.3782520577372 277.3963684495547,273.9081771932136 277.060842950095,277.01029904454526 277.49059023056464,277.8697108822872 279.40240724686635,278.2533813128076 281.03619142178076,278.76816809367045 282.1276419738643,279.1128758738058 281.91396782075634,280.1354179592235 280.8363320512262,285.3124870745327 279.9286098359699,289.6806882574733 279.5449394052731,291.97857467843176 279.1542374986799,292.76221201971236 278.9658766597398,293.1435661992939 278.8647061259132,293.34574182072856 275.05257062515943,293.3205112296994 273.84390122860185,293.3136452000214 261.86971088254256,292.9321255739274 253.7122058155647,292.8379865161149 252.95156553774814,292.8288042354393 251.8624312363684,292.817305703766 250.93642718307586,292.80588989534897 250.44926996761365,292.73226620343166 248.04797948467572,292.37614261487926 247.72626876800447,292.3278322372474 247.4390536461767,292.2841543616107 246.48318649968334,292.1417876494225 245.598461347656,293.9707986930137 246.4670554661911,294.4557223807933 246.71977499294033,294.59817181617893 246.97489349394343,294.73830500062576 247.68490714318918,295.1358729371321 248.51213963690898,296.37440542665536 248.99698060143234,297.10286636062614 249.2037887248035,298.08859660008517 248.82235182220086,299.12726971917147 248.73044629189465,299.3800719692357 248.58568060562885,299.77524093148816 248.01580014077115,301.3446664185346 247.9698060140781,301.4664350415714 246.538362907052,305.40505439055477 246.49005252942007,305.53600529432595 246.25098233882935,306.1058857591837 245.92248831550123,306.8917566282057 244.9757207263685,309.1437316457861 244.65632626063612,309.86747735450535 244.05203292401484,311.2324109691195 243.83604251996806,311.71725193364284 243.72337345429187,311.97228771144853 243.70045911414277,312.02523059107574 242.26430078192394,315.67423584397744 243.49588451839548,316.65773255575385 244.48169748116953,317.5125118915005 245.0791247880541,318.0272159490483 245.95930016151866,318.79008975472385 245.6306406917957,320.1849691856187 244.60114985326746,323.1193282872206 243.3695661167959,326.8510567895177 242.97886420996755,327.95632212433094 242.87777639922083,328.2412209951611 241.0303180709634,333.4620507093631 239.87806593055893,336.7823964925418 239.0288290524496,339.22959837862265 239.3046283659779,340.2705877487066 239.4171319850241,340.7025685569177 239.51598626814695,341.07258965133843 239.6538859249111,341.59415973862303 239.80320138997473,342.1617239525419 237.33076891280592,347.5525499441564 236.95619803946977,348.32915580924663 235.50159242281984,351.3348223518269 234.93866071077875,353.15250031019855 234.86735326968272,354.7287091037255 234.81457583680304,355.9099143814537 234.7800802417245,357.0426438350375 234.76171568037327,357.71369483395694 234.7180378046191,359.1659014766469 234.6789924309778,360.4183314720973 234.72267030649684,364.2533813128239 234.20796624900777,365.96533895851223 233.89767134063604,366.999379575662 233.1853414404514,369.3616246846059 232.8085370394914,370.6162054845415 232.6637713532256,371.87773503747013 232.64085701307653,372.0823096331586 232.5098233860491,373.23580262234753 232.69826694806906,373.69309674484407 233.66331637523803,376.0530256028491 235.402738139697,379.55718244611126 235.46031352131953,379.6720850395289 235.71303304806875,380.1822393183964 236.16337841774865,381.09451131239183 236.6781651985527,382.1308681805392 236.9676138480044,382.91442279856363 237.99023865656076,385.6672043678235 238.69561980416387,387.5675228523344 238.7531124624714,387.72386979364717 239.02427927388686,388.45456425530057 241.533523596838,393.27774330979884 242.3492575589433,394.3486784961047 243.1167638667317,395.11378582952165 244.08644579577842,395.7755718244505 245.71799644306893,396.74533647681216 248.37423998037994,398.8868759565166 250.63531455537972,400.48616453652875 255.4862058981821,403.3930595194187 256.8626380444695,404.6177772263299 257.68068825751374,405.3829672829443 257.8718616868124,405.71849278240404 259.97617570427707,409.4110931877449 263.3471481160266,417.0721760350936 267.28113496313216,425.30545559829767 268.90805310854495,427.8377797080278 271.42192993360896,431.75331927040844 275.81312817989607,437.7714356619908 277.86052860178796,440.95396451172036 277.8651611036657,440.96546304339364 279.7494312777054,446.307978657435 281.94391363703704,453.6519832899314 283.12495346848794,459.3231583736958 283.0261819086801,463.4593208421185 282.9710055013114,465.7846713819063 282.52860156352267,474.65450634901003 282.05641725608325,484.11936964886195 281.9553294455717,493.41655292224027 281.95077966677377,495.33531869135857 281.93688216090544,500 280.51453861123997,499.5266575671499 278.3660503786014,498.26281176328246 275.77631633387864,496.62216155851377 273.40033916534367,496.0798279356241 267.3638582125277,494.8481614757788 268.3451213965039,489.5538735161719 268.8736402367814,486.77114613063134 269.04132026319627,485.8841047276651 269.12180998496785,483.19113206765167 269.40902510656053,479.73966993424807 269.3400339166385,479.58117218845007 269.1630888862331,479.1697894693316 268.7126607934733,478.6390371013714 266.29308847273427,476.7431856723434 263.62385738531447,474.65450634901003 254.57393390436306,467.57248624725344 237.1790544734884,453.4221781031549 233.4703230344202,450.3544691235868 230.0074450925996,447.51367001694524 224.88546966146163,443.31157711878654 218.99838689678916,438.3114530338828 218.0929809324717,437.6404847582784 216.64764031934214,436.5673160441723 213.69260040550898,434.083385035389 209.08987881065795,430.21144062538883 204.05070935199535,426.4038549034329 203.74512966881633,426.1717334657175 203.70145179306218,426.02473425159275 203.37742482545204,424.903337883111 202.64209786180334,421.99884187453364 201.97344583713777,419.88939901559513 201.53691525024635,417.66736981429545 199.9789055714406,416.1783513256469 200.16040038064392,415.8153617074165 200.40170409909368,415.4843859866959 200.28216900368074,415.0914505521849 199.85937047626277,414.90987301984285 198.79778301714498,414.271166811458 198.81846382943507,413.3887579104283 198.85759192639136,411.76638954381343 198.2531331431401,411.1345493651065 196.9250113744846,410.44058402615553 195.86805641724453,409.684576250158 194.05261198673193,408.4093146378735 193.02552012245755,407.1729329528354 192.2994581630346,406.1458410886786 192.22128469220183,406.00802415522946 192.12706291119187,405.84489390743613 192.05517640736113,405.71849278240404 190.3048351740224,402.6416015221015 189.33291971711668,401.7201472473717 187.94953881801266,400.4057575381897 186.74086942145507,398.95810067418 185.43789552080764,396.531579600448 184.38094056356758,394.56458617695404 182.41394714013234,391.9841171361631 181.83951689647674,390.3870620838336 180.83765562329035,389.0129461885438 180.1391405056591,388.0570790420505 178.9625677296911,386.0326756835051 177.62749720821898,384.0036398229645 176.3292385327643,382.61570914506257 175.70881416241565,382.2641353352493 174.57600198551683,381.6207139016717 171.35889481762882,379.9547503826176 168.03623278351125,378.805807172109 166.06460685796316,378.0314348347602 161.41613930612894,376.2068908467106 161.0713488026786,376.05798899781047 156.3951689624227,374.02853952104755 152.7990238659508,372.7900070314655 152.34636224533202,372.8497332175145 151.95350953395965,373.15307937295205 150.22087107592242,373.68383174091224 150.05087479856869,373.73677462053945 147.66331637510424,374.4697026099343 147.4128303759789,374.54555982959306 146.49600860336196,374.0216734913696 144.87372296006205,373.09327046370566 140.10555486642002,370.2232700500893 138.40749472654124,369.2007279646128 136.95760433484892,367.38544898043625 135.96252636808427,365.95615667783665 135.13769284885345,366.1514662695933 133.97030235356107,366.8776109525664 133.3453282046497,367.02006038801085 132.23311411672597,367.27509616581654 128.8575919264137,368.0471522521677 128.23948380700395,368.18968441080955 127.3776729951257,368.4470364396129 125.81056375919444,368.91582909378263 122.51089878830582,368.62621499775975 121.00574926592985,368.1391405054362 119.20651859222447,367.80824750797177 119.029573561819,367.7760681639497 115.63097158472767,367.7760681639497 113.13785829526877,368.3436323778685 110.30458700447241,368.3436323778685 106.79116515716089,367.4382264135511 104.0933945486397,367.02006038801085 101.86681556871848,366.9074740455909 100.70414029885396,366.67990238655585 99.75050667998448,366.4915415477921 99.48620589830578,366.0021508044709 99.37370227925958,365.66199280307467 99.78731852600193,364.7566695620134 100.16635645458582,364.1891053480946 101.26243950878221,364.2281507217947 102.77222153303592,364.0006617860159 102.67105099897421,363.3917359473993 102.37928609858366,361.62468461759846 101.15903544709661,360.88017537327414 100.30193986017599,360.35852256279213 99.13239856080985,360.32634321877 97.66852793993418,359.67605575545565 95.16854862073853,359.1245398519492 94.49303056633624,358.8488232617946 92.13533523607262,357.88211936967775Z"/></svg>