<svg xmlns="http://www.w3.org/2000/svg" width="500" height="500" viewBox="0 0 500 500"><path d="M423.3094598078312,344.72588384189 423.23263424323073,345.081286235007 423.21176342265153,345.2142161556289 423.024823708908,346.4339996586326 422.9666247903588,348.37274178101734 422.5136008178762,349.1768294097209 420.96138030480927,351.0137608276315 419.7457859269141,351.8886147505819 418.65279826820523,352.4226534129331 418.10836159871064,352.7816464848588 416.9924833627089,353.51766082840874 416.25078377787565,354.26990803227926 415.75609297052694,355.5021092994058 416.7473447304162,356.6636938839135 417.52248251152645,357.02523035330444 418.10836159871064,357.1831454136938 421.31468813539857,358.0476013293414 423.4195739569743,358.7519728162047 426.07936926137415,359.8075575709702 427.67108724107163,360.4642777581622 428.79107979636797,361.01694306667105 431.2803926646275,362.2283483191918 432.38175857387245,362.79148644081755 435.1204740054536,364.41020931715565 437.88619433383485,366.0413499576165 439.94133429326473,367.38583474233417 441.4290722000399,368.3458924804743 442.8004870755841,369.4762830430734 444.0326883428169,370.9536229425458 445.0177312206182,372.34800320114374 446.57204629647856,374.15583515972656 447.62553648855686,375.20513622664316 448.465007264437,376.04041787725527 450.34136134305777,377.4160218780143 451.77306969973193,378.5194823498401 452.9658483059888,379.18645093276 455.3720519216927,380.47483136156256 454.6759838797108,381.5616101381834 454.5449989099885,381.765156741371 453.034370426133,383.3235861365791 450.73409183419784,385.6634370007462 450.0961479048979,386.3137238885144 448.26348041806943,387.88464585360623 447.7314615125382,388.47276911505253 447.25771633121076,388.99431520746685 444.98863176144994,391.10757927957866 443.3366951064896,390.15380522934055 442.45974662069256,389.4327520473786 441.7386934386243,388.99431520746685 440.73090959526456,388.47905280290144 439.804140441667,387.8535266375648 431.72922751173587,382.39479722616153 431.17648739757243,382.0207681868337 430.1895743743667,381.22498400279903 429.2939244368637,380.50183625820307 428.39004586055904,380.11531464899156 419.170230041325,373.9895418488543 418.4387788520071,373.43889629716546 418.10836159871064,373.1894937337907 417.26260713508793,372.5515498043313 414.0814153497956,370.60046472363774 413.2709692274291,370.101734402596 412.84502495740105,369.8420086377324 411.19929718452875,371.27573675122653 409.8881009842474,372.6035398407924 407.91823964582125,374.60257544430715 405.23345920154765,377.20619158697787 401.94619278096474,378.9267251678433 399.5129094625936,380.1984239014941 398.67141892999985,380.63895530398673 397.391341945813,381.60724168098164 396.95709423132865,381.9375841285172 396.5539657327263,382.24309104780707 395.52321650599384,383.2051685427671 394.81884501913055,383.86181392419826 394.10609528194374,384.4374446157077 393.53053939635464,384.90490610902685 392.9320929334727,385.3891241033118 392.7595907404061,385.5282629059685 391.2780617157189,386.812454209503 390.78972940197997,387.23637872271115 390.7398339280997,387.2592692998977 389.9107611596819,387.62701465137667 389.84014447695677,387.6582086732321 389.38293137931237,387.86183008223367 387.78290995494604,388.385470737282 381.966833199473,388.77618147176156 381.26238690674245,388.63270393226185 379.3755600150048,387.5647014134267 377.2290821642176,386.15378907130514 376.26700466915116,385.37670633918896 375.0555246109758,384.4000417117643 373.6695974086748,383.40467563231476 372.88832555134377,382.84153751074217 372.05296909475817,381.53034131051396 371.5562585306958,380.7490694531829 371.34642823944677,379.98021535997475 371.3423139201522,379.79118108349087 371.3028164537343,377.6924293380828 371.57914910798866,376.4040489092802 371.7163429593737,375.56255837663326 371.7204572788809,375.5334589173587 371.8368551159791,374.82908743049535 371.85967088740483,374.69600789835164 372.03007851767785,374.2845759550804 372.49761481670475,373.16248883715014 372.76773858887117,372.33962495066083 373.1293498641293,371.2383338472831 370.70025567134513,369.7941329206721 369.9667099194464,369.24146761216326 368.6992003109573,368.28357924252435 366.36151881539763,367.78484892148253 363.2008986272157,367.11159665071375 362.0227819592375,366.8601743304659 358.7375352951556,366.5941648777003 356.93800678134795,366.6855775749248 355.77021331475225,366.4796371859002 355.54781564801806,366.4403641367649 354.6315193075374,366.5982791971542 353.26631331408123,366.99519881366865 351.6143766589083,367.3422229563559 350.81642310658503,367.5105360240481 349.2558991486367,368.55983709091157 348.4558510335199,368.9692492773628 347.22364976649965,369.8669189717389 345.1041020064327,371.78277051693715 343.3067428608604,373.33080190484236 342.09533760833966,374.5298641990544 341.21419999738083,375.4025487536099 339.16751309435426,377.0274805119828 338.60639472965477,377.3849026619729 337.7898145310675,377.736041124061 336.89214483663824,377.85453352374014 335.49581962708754,377.85453352374014 333.94771343331513,377.65712099677336 332.5388956539339,376.37913857527366 331.5102409899949,375.53764804257355 330.1451098021933,374.60257544430715 328.51179979328435,373.9521389449641 326.8951714795803,373.9354572498123 325.93309398472655,373.65082115088904 321.8229636773886,372.35421208317854 320.65098108563114,371.88667578404534 318.87434314890373,371.51466650153753 315.41255477854065,370.70429518493194 314.9282619784417,370.6336785023131 314.46700936694475,370.69389717768223 311.4851750597846,371.5230447520204 309.95577031793067,372.15470499363096 308.29553021830156,372.6575496340735 306.82021007570233,373.05656381322194 303.2856356541661,373.7568209806313 302.0825338463141,373.9604423896329 300.6758106295137,374.3012576502322 298.68500366485375,374.8934204252653 298.40455669109224,374.97652967782096 297.4507826409073,375.3817527390042 296.5946301698222,375.89918451201765 296.0460791808205,376.3210144625386 295.6616521341367,376.8051576510095 294.08452128706324,379.29447051926905 293.43206503079386,380.2510123844145 291.85074505834604,382.56939398170266 290.5603448727767,384.08204222253755 288.7089011281625,386.2265003165579 287.7717339671026,387.35689087915705 286.27142868462965,389.10861848187795 285.1992370406328,389.89617402705784 284.1437270916282,390.35121775630734 283.22937570220665,390.4759190380213 281.7664733235708,390.46140671126443 278.03037205566693,389.9605818276418 276.949802161134,389.528353869818 275.4267559128899,389.38704569876637 273.72484897818214,389.1793099703108 271.75491283410145,388.7678780270927 271.38926204520334,387.6997258965763 270.88641740470763,386.3782064948593 270.4999706013101,385.5802529424297 269.7020170487742,384.414554038468 267.90667766012825,383.88059018193087 264.72324170073324,383.03895003770896 262.19016743481416,382.3386928702996 262.64738053245856,381.09818815850423 259.34971610441335,380.2732297093809 257.4234665519123,379.66438523919606 256.2265736261483,379.83479286946914 256.0706783226321,380.6742636453493 255.18550119824602,383.31116837250937 254.05720519806826,383.0285520304061 252.04156270526897,382.52570738991034 249.61456307485304,381.86906200853235 248.74599283980461,381.1729939663379 246.86544963602213,379.1074559996583 245.905391897882,378.1100701633888 244.26385325017142,377.2934899647484 243.4222879117104,377.02538594940194 241.82226648734405,375.7079808670857 241.0389000674322,375.0659226182255 240.6129557974041,375.0784151881092 239.592604578134,375.1053452789357 238.60142762389933,375.1323501755763 236.44253200914878,375.25914601992423 234.22536266976928,375.15112643336204 232.44453560788017,374.35728720033325 231.09384194096822,373.7503876811543 230.7427034790396,373.592697038154 230.01963054004509,373.4596175059571 228.57124048816604,373.19989174109355 226.9213235899194,373.23318032558296 222.69270088311495,373.5407070016928 218.60127202790815,373.6113236843116 218.29172559497837,373.6176073721605 217.0345391880844,373.2539763401355 215.39502029708748,372.12979465957125 212.97011522946502,370.54638012454257 211.06668144817704,369.3037808501132 209.2755311846928,368.4830115262579 208.0433299176726,367.94889805814586 206.63855165171864,367.3775312976653 205.54556399322237,367.2133325494271 204.43185512566865,367.3027254897785 203.18297216344354,367.4087253195207 201.27751862544193,367.6767545291063 198.6800365590983,367.88247050074193 196.3237284172747,367.88247050074193 192.7663382243128,366.85807976788504 188.91376431344347,366.1577477946616 187.23272819910233,365.84191767382976 186.13555141544433,365.6299928201593 184.7683256650619,365.55720676914564 182.66336503740632,364.9317554095699 180.6872948171048,364.31677686311116 178.32043905629706,363.82014110475654 177.13192438085653,363.76186738039337 175.6773254471021,363.99047392921557 173.66377751667108,364.206587908154 170.86686316654075,363.9987773738844 168.7556936570098,363.39329916506614 168.73699220509127,363.3878383411187 166.8377475491776,363.05540133094917 165.04652247982617,362.9140931598975 163.6813912922372,362.9349639802641 161.42674424336602,363.47102239943524 160.86779524690198,363.69745957986254 159.92658857241483,364.07777230703925 158.35768636393038,364.87572585946884 157.71772267791678,365.1645510836601 156.2112085133558,366.0434445202505 155.08702683268518,366.6980701448617 152.25472933543142,368.56612077881357 151.45266146338838,369.139656907689 151.19921938642685,369.32038773950404 150.6547079110651,369.6674866879522 150.1144603665196,370.01024689961054 149.92123696482088,370.0975452773811 149.03605984043477,370.49439008808145 145.70091770268525,372.4332070162803 144.1008962783189,373.6425177062202 144.34820427905964,374.13496433935995 144.67443240719436,374.78951515815703 144.9923570906602,375.42334476816245 145.27085911336266,375.98019920193934 147.67706272885397,379.8264894248003 141.60320515952327,382.83330887188737 138.95807179340207,379.43368412773987 138.52374927305056,378.8768296940162 138.0479843350094,378.2638709043773 137.74240260985232,377.8711404130778 136.48671231923942,378.889696292917 135.10145836910544,380.01350394446416 133.84629171913775,381.14389450706335 131.1096708499248,383.3485712764528 130.24940405954524,384.0426195617742 128.80520313304055,384.8467819962918 126.2368953315198,386.04778924156284 124.41874017144818,386.63591250295605 122.94342002884893,386.88935458002385 121.06706595022817,386.95795150582273 118.61500637407129,386.8665388085982 117.7610232716469,386.75642465945515 114.27215519861662,386.0124809002535 110.94539131140316,385.20412934046783 109.89811000141285,385.15842299185556 109.59267788777755,385.1460052277859 106.84558420566032,385.1605175544896 106.4175453730514,385.15513153630303 102.7063544391541,385.1086023238425 101.55928218140322,385.0940151913248 100.24816078698905,385.0005827372803 96.18568177942872,384.70749358206007 94.24290014324458,384.57875278675937 91.16546401369813,384.2857384373532 85.84385364818478,384.0363358739253 84.34983205345438,384.44986237977736 82.88064598707591,385.1439106651519 79.32123603740034,386.9039417125416 77.46148884811727,387.5210896273953 75.65777120872265,388.05512828974645 73.34918917233125,388.11534696506243 71.87596359231287,387.8493375122968 70.83287140748426,387.4192789229211 69.90393288543866,386.67122084426546 69.00222367736946,385.0587068499622 66.51904488533066,381.4743117604129 65.49457934676602,379.86179776610965 64.56579043624221,378.9869438431592 63.701334520700925,378.5339946765438 63.0945846131501,378.4072736380098 59.47278661955106,377.5948077588234 57.425950104790026,377.01917706731393 56.33917132816913,376.60355599882786 55.204666446116015,376.2815169960143 54.178106344970516,375.78488123760656 52.55115482967136,374.4611924674415 51.09655589570433,372.91735020475113 49.53603193796855,371.27573675122653 47.44977276244415,368.9255626855705 45.76035839756694,367.02631802976316 44.07932228343839,364.9457440956284 42.936513956503816,363.5313158805653 39.66996874476575,360.0340695571584 38.22374806112216,359.0574797354946 38.10742503010371,358.9805793650269 37.54630666519163,358.6023612004842 37.50478944184739,358.57326174120965 37.122382152089834,358.12652145668216 33.73121046402664,354.17430620983987 32.61750159668555,352.8194982236334 28.86681319615768,348.25424938133824 26.977891741839144,346.03917460469904 26.08732859926648,344.72588384189 25.253243841572893,343.49577713739745 21.88698248772885,339.0677221467531 17.558568833163815,333.90821596679086 19.09418245710566,332.7569545837719 26.05508729622693,327.8125151014577 29.915066981783834,325.3046503928545 34.88239704149726,322.7911752486226 38.94562410709182,320.09614640878056 39.2544224819874,319.8800324298421 40.73183718738011,318.9075569276323 44.07932228343839,317.29309798232316 46.11366622815624,316.3121694238164 46.40668057761555,315.95691664227434 46.54170506076516,314.7142425620309 47.74480686861712,312.98121641128176 49.369813432857214,308.9063944453595 49.8808867121546,306.97603057345765 50.1365729634314,306.00774419646274 51.871693676814566,297.92654757884213 51.94851924162765,297.5671056720852 53.837365890078985,293.64600964128425 55.348069179801676,290.50626027368156 58.998817021047174,282.3877355579316 61.47795629923344,276.87492154743313 63.28369369534171,272.9726017744711 64.69460603751645,269.92837942344056 66.46914941166298,266.38557636304955 67.36472454329879,264.918484859252 68.8857510346166,262.4311917478123 69.3200735549681,259.69666544139284 71.10082581120263,254.06124471181448 72.18558483110986,251.9625677722204 76.22090933034839,244.93703071512618 77.79804017763446,242.28763341808235 79.14252496224582,240.3094686349342 81.3222913975756,235.7380109106042 82.39650279849872,234.2709194068066 84.02150936273881,231.06474248179995 84.54724458031484,230.02785917900619 85.03759665098,228.6896580821374 85.32021299318961,227.91452030108033 86.80600594890576,225.48752067077072 87.19245275230325,224.8371589771885 87.4999794285194,224.14311069181394 87.4999794285194,224.1410161292331 88.41223625514749,222.22718434085488 89.13987234821452,220.04958727392 90.68752970720892,215.41791087427404 91.71192044011896,213.17777615205338 93.4324540210907,211.32640721320007 95.20078851293664,209.42095367535788 95.38159415067203,209.04273551076204 96.11723446515168,207.49462931704278 96.32706475640073,207.0520781577302 96.51617383859235,206.6551585412158 98.59824388874242,202.26241189188084 99.20289923371239,201.52475182052808 100.91520417566987,200.95331025428663 103.4668302817731,199.1413639761967 105.32238834610706,197.3897111792899 106.4175453730514,195.7601414608178 108.32097915412676,192.93038736097606 109.11466877542115,190.24568172256966 108.91942561700874,189.36252435495038 108.76345550762531,188.65605830545303 108.6886496999511,188.43164088189886 107.68505498154047,187.48617027627645 107.49392614242258,187.41966791311162 106.66066424863043,187.36565811983053 106.59004756590532,187.36154380037655 106.4175453730514,187.3496496769521 105.75050198437057,187.30334488188058 105.74219853970173,187.30125031924655 104.0049832637377,187.03314630390008 104.37280342108383,185.05707608338597 104.84243428269158,184.1635207084638 105.11255805485801,183.6482583038984 105.07934427639523,180.9988610068014 105.28087112255021,180.5958073140131 106.17023737231065,179.84767442959657 106.3198489880843,179.72304795369664 106.4175453730514,179.47865737938503 106.85396245619637,178.38686661364784 107.69335842620931,176.67463647745126 108.34588948813331,175.35102251315337 107.53544336576682,174.31615896717958 107.00559382868367,173.41646951598347 106.86219109499801,173.19407184919612 106.67308201280639,172.3961931025274 106.4985600630262,171.30111088123766 106.58585844074359,170.17483463803933 106.4175453730514,170.18627992663264 105.03363792767668,170.28083446778157 103.04709489404563,170.62785861046885 101.90840088683079,170.76086333685166 99.60602773231477,170.9498976133355 95.22360428457493,170.2745507799327 94.23250213620749,170.12291940739223 93.166519374086,169.9587954649149 91.37948343010889,169.68448256753362 89.33481628358332,169.3686524467018 84.72176653030763,166.69636457241822 82.91393457140589,165.90050558256945 80.07969212330568,166.09380379008226 80.00900063492597,165.51615334175284 80.00690607213251,165.49535732720028 79.93419482703915,164.89900542689915 79.84487669239549,164.1571562303315 79.8385930044403,164.0990321175964 79.51236487630561,161.41634623600999 79.1653407336715,161.43923681319657 75.14250880426354,161.7031517033813 75.10503109455924,161.01740686267564 70.51696648094467,161.46205258462226 69.07486011680821,161.57216673381848 67.00109351132699,161.27713262759235 63.92986626365592,160.31505513263227 59.34180165004137,158.83764042734586 58.06598859688345,158.5592132105106 55.0695671570992,157.9087767111143 53.58003391099933,157.71136418420068 50.381786401591285,157.28751447680665 49.51104679809481,157.17321120239555 49.48194733871394,157.16909688299472 47.74278711169085,157.09631083192787 46.446178044033516,157.42882264785828 46.00624508810645,157.71136418420068 45.41131449821917,158.0936966681442 44.07932228343839,158.80487548350163 42.70992716460789,159.53587783793526 41.565024275092455,159.6833948910749 40.08349525040523,159.46099722428752 39.85069957642131,159.3903057358547 38.64138888648137,158.57582009984827 37.34477981882404,157.94827417769173 36.573457133964716,157.71136418420068 35.05071010918947,157.2439026908284 33.028858734089575,156.79297328103289 32.42622314604587,156.66198831147005 32.01905513380357,156.56436673221071 30.676664911773074,156.09271611362354 30.10103422010416,155.86201500216734 29.70000028429525,155.65839359316573 29.307269792942574,155.39028957781926 28.754529678566545,154.6963160982588 28.245476156195423,154.19549121463615 27.66363658265113,153.71965147078095 27.011180326381737,153.2833091935032 26.982080867213476,153.27081662361948 24.13527104299026,152.1654112008409 24.634001364191494,149.47030755513168 24.634001364191494,149.45572042261395 24.927015713438195,141.93773673237996 25.01423928550099,141.12325109632042 24.908314261519642,140.2712877506097 24.816901564507734,139.54604544337974 24.710826928791974,136.01977446651233 24.706712609284846,135.8494416420002 24.12494784160776,134.5568720879296 23.71972478042452,133.9979230915719 23.374720394504063,133.5553719322593 23.144094088968213,133.30185504943057 22.990293347820234,133.13144741910435 22.076091570133077,132.35638444380817 20.135254885007992,130.43013489136027 19.555584679911767,129.79428552453487 19.37470423652179,129.43686337454474 19.26668464995958,128.2545575812985 19.254192079916404,126.54232744510193 19.25000295475468,125.82336882572086 19.216863981946503,121.26230910869371 19.412181946226102,118.8809410211823 21.521256893176187,119.02853288008284 21.309257233691685,109.01697239056035 18.811566114896053,108.9920620565538 18.154995539332145,108.98577836865178 16.79599842775135,107.17585184743494 15.657304420536512,105.76912863058138 15.098355424285106,104.82575258759299 13.012021442893499,101.79192824391848 15.6365084060371,101.79192824391848 15.613617828744214,100.98574605258092 15.603294627361713,100.58052299134452 15.711314213923924,99.02620791559043 15.87341839952814,97.84599668492507 15.890100094733038,97.72750428529909 16.108159024571115,97.04175944459341 17.007474446590635,95.37321590018912 17.371629119420266,94.69786906683946 16.174736193656297,93.9352238556661 14.389794812260051,92.4765106023514 14.364809672386308,92.45578939355973 13.255215124339731,91.54981625451475 13.207414213040307,91.51031878799047 12.712798211558813,91.10509572675409 12.50925160826496,90.93895202750994 9.845267178703391,89.20173675149276 8.328355006680102,81.52793256350346 1.0743610124449243,82.08269243459314 1.0057640868586972,81.34712692587439 0.8914608121286841,80.10864197089899 1.5335938670155773,79.7408966194732 1.3569025487873234,78.5294165610852 0.3969196165143956,77.9622389258727 0,76.6115452591202 10.316992602892,75.02813072409154 12.862409827332462,74.27378895758703 12.158038340256516,69.20779003748328 17.5814594104567,68.46384627828161 18.263015125894356,72.09200276543729 19.220903495586423,72.49722582662052 22.015798089003084,73.84163580557728 22.06988268804509,73.86864070221783 22.689050359771894,74.16576937102482 23.3623026305407,74.48990293647235 23.424615868384347,74.52109695838092 23.497401919557518,74.55640529969033 24.66512058028602,75.38757263084848 27.308308995348174,77.2640015152833 34.02422481348595,72.7236630070478 36.039792500630654,71.20054195314914 36.15200121235459,70.31536482870989 35.66374370448288,68.28521000910061 39.63047127813517,67.68885810879948 42.924021386673246,66.95119803749986 42.76191720106903,66.41715937514869 42.74942463102585,66.37137822072238 42.55410666674625,65.7293947776762 44.07932228343839,65.33786117929522 44.1978146829049,65.30756482710211 45.9744526196323,64.45769604397225 46.899052404994386,63.71786660422457 47.78849346040941,62.720480767955074 50.63530328442002,57.98691885802085 53.35524245842806,54.22381269347647 53.93498746939149,53.42383938417374 53.40715768902199,53.13912847943643 52.97290997432509,52.906332805399366 52.72986590461327,52.52616968979761 52.71946789736356,52.32247347498196 52.77759201004549,51.95674788037614 52.997820308331626,51.553694187587816 53.41351618263178,50.9947451912301 54.390106004242405,49.87460302430571 55.940157149073876,48.25595495378171 56.85660310128891,47.3707030235284 57.55057658068993,46.4523121203606 58.38181871776844,45.75616927240522 58.89296680272042,45.222205415868096 59.52051272498328,44.756688873554864 59.91743234149767,44.604982695200356 60.23535702496352,44.56967435389096 60.47219221258736,44.542669457250405 60.81293266747889,44.61126638304924 61.02291257024973,44.694375635604914 61.236857180580685,44.91048961449023 61.40733961672095,45.18480251192469 61.71277173014362,45.71046292379296 62.03690529569746,46.433535862628 62.48775989973206,47.088161487186 62.90345577403222,47.69281683215597 66.17613506220367,49.97648853459399 67.71795756802089,50.64562648596198 70.52945905077524,51.162983453108254 72.04637122258593,51.75312647137454 73.67549210612054,52.34528924640764 75.72838789144775,53.598361333900776 77.21418084737651,54.317319953281846 78.67079953784459,54.969776209498086 82.05374258689353,56.23115174166007 86.3092953846308,56.7485087088595 88.75095695332537,56.71110580491609 91.15716056902927,55.53081976843666 91.95092499640347,54.88659215112836 92.37694407208613,54.46072268696751 92.77790320224045,54.05759418841828 93.53635928793318,53.25335694803348 95.04287345270676,51.83204659866219 96.39768143870062,50.09490612845906 98.41743825100704,46.335914283315496 98.56704986678068,46.05950682330018 99.4522269913794,44.575883235925794 101.89179399728049,42.786827535075574 103.68084969818386,41.236626778722304 104.79051905209765,40.38675799559245 105.10634917298263,40.124937668094866 105.66948729439576,39.838207006537594 106.4175453730514,39.47749340104807 106.60455989266215,39.38735240255615 107.2923244901878,39.11715382457567 110.24094501888523,38.24035495056616 115.19892435221416,36.760770876884834 116.17551417403739,36.170702664432596 117.82333650970317,35.173242022402206 117.82752563486488,35.171222265582244 120.84212488592247,33.03506761623071 123.645771758786,31.048524582652824 125.49504613495216,29.42149826159277 126.16418408642645,27.94827268157439 126.41979553183604,27.387229122582667 126.64204358704845,27.351920781273268 126.75230734771333,27.646954887499387 126.45929299846662,29.581507884616126 126.54651657031681,30.680779231173897 126.735027205996,33.03506761623071 126.77923743843351,33.58780773055359 127.65618592423058,35.17945090443704 128.3834479881742,36.494836229933284 128.78448192419572,37.18260082740577 129.96259859217392,38.58102059959048 131.55229681494515,39.05693514920657 132.53726488730445,39.75928687924995 134.00009246007312,40.17281338510204 134.44683274460058,40.9976970284113 134.6691556054676,45.136926794917514 134.72525996143588,49.195216677316125 135.9887300560724,48.960401246405944 137.31645833982427,48.715113002432005 139.42560809264157,47.93803027036901 142.67958592889445,46.86583862626585 147.39654094943785,45.712557486426974 150.41787272322864,44.74846023470007 151.92236713107596,44.11044149942661 153.08395171558368,43.58897021282636 153.65531847601105,43.277254411448496 153.9670342773889,43.048647862626304 154.2453866885696,42.672524260664474 154.37637165807928,42.084475805085354 154.6132068457031,41.42364129838621 154.58627675498292,40.904189768605924 154.57370937907254,39.87359015366105 154.65068455540742,39.69068995345111 154.82101737981327,39.45377995996007 155.00601214271038,39.34994949861273 155.30725513097133,39.33745692872901 155.92238328905822,39.37485983261927 157.29379816481497,39.59508813101172 158.44707930444125,39.88391335514985 159.9390063365908,40.1832113924049 161.20868531331533,40.669449143509794 161.84244011766617,41.05380138432642 162.31618529878105,41.5276213713085 162.43048857329845,41.93695875194572 162.54681160431687,42.9322500255812 162.5779308204114,43.734392703278836 162.59461251561632,45.24083206202575 162.35770252212527,50.34430869188697 162.4159014406744,51.830026841842226 162.4325083300121,52.247667667148285 164.67249344060465,54.306921945978985 165.00298549976827,55.24199454429853 165.10891052374964,55.335501804103906 166.91666767657156,56.91263265128367 168.30887856682773,57.82070035296266 168.7556936570098,58.1130414500955 169.14430982885537,58.3671567793835 170.17700400643426,59.040409050152306 171.2388724490486,59.30222937764989 173.57857370153454,59.80724338654055 175.79574304091403,59.86125317982165 177.06953633714568,60.23730197596943 178.33704594563477,60.07946172139414 179.99945541371196,59.873670943944475 182.10224667270685,59.86746206190964 184.4795004407643,60.16668529335063 185.35839387740782,60.38489383486996 187.20983762202204,60.23730197596943 188.17191511687582,60.19989907202602 189.18186832889626,60.35160525038053 190.59898955294636,60.56569947249904 191.0374263930176,60.675813621642114 191.4509528988697,60.83993756411944 191.76678301954206,60.99164374247395 192.66654727655222,61.652403443305886 195.18084528468555,64.27681560058228 198.78813095131514,66.76418351783595 199.77519358625528,67.53924649307898 200.6582761480605,68.2312002158195 203.92691592259206,69.56940131268827 205.02611246338893,69.99736533948314 205.7554690899134,70.50447391095466 206.23759252177692,71.52475032441073 207.18508288400668,72.69246898513923 207.67132063516473,73.46760676624947 208.28427942480354,74.44217683109328 209.49575948319156,75.91121328589679 209.83238561857596,76.26033199121807 210.68225440170582,76.79437065351608 210.8360551426412,76.89199223277544 211.16228327077587,77.03330040382708 211.53840687257826,77.19540458948445 211.83142122203756,77.3014044192267 212.60850395399424,77.57983163611513 213.10311995590098,77.72113980716678 213.9591976209062,77.80843818493732 214.72393739476672,77.88735831222496 214.91708599059828,77.90605976419667 217.43347856131246,77.72113980716678 217.66627423550898,77.67543345855452 217.92801975713934,77.52582184283402 218.29793447706635,77.11229533692878 218.3395265062778,77.07489243303853 218.45375497471537,76.96679804066225 218.93168928120457,76.52215231871564 219.6735384777722,76.0546908253965 220.581531373584,75.57458715051239 221.2444604429703,75.42916466000676 226.02784302086445,75.53718424656897 227.09382578298596,75.70968643952921 227.64245157785484,75.62867174960755 228.71045409669,75.50397046789358 230.55987808459057,75.01563815415467 231.09384194096822,74.85570333694537 235.1686639068373,73.63382527130766 238.7011437657927,72.57622075972223 240.4778565083873,72.20623123403433 243.54691438761031,72.05661961831383 245.14903037455753,71.48315829525244 246.60362930852455,70.92002017367986 247.5200004548724,70.33197171804758 248.20148136444283,69.83533595963982 248.77711205589915,69.15378024420217 249.29454382901892,68.37662270632512 249.61493710397644,67.3580668264328 249.88670660394573,66.49398493980232 250.07162656118822,65.08726172294877 250.53302878399433,63.75115518871401 250.8487840987995,62.83268947978531 251.14598757363316,62.64776952275542 251.62594163683602,62.64776952275542 252.44469120387134,62.909589850253 254.73868610785132,63.645155358971756 254.70958664868306,63.264842631795055 254.62857195870825,62.57296371486859 254.62857195870825,62.57086915223458 254.4623534533843,62.06802451179199 254.2567122877222,61.656517762759854 253.91799158975692,61.2222700481161 253.41507214339399,60.871131585974865 252.85200882763544,60.59681868854042 252.38439772274134,60.457605080122775 251.9024239026122,60.376590390201116 251.25610172277624,60.320486034286 250.49974019945174,60.239396538603444 250.23791987195418,60.170874418565504 250.0176915734554,60.087690360248935 249.21764345833864,59.483035015278965 247.47840842566094,58.92820033837523 243.87112275881876,58.930294900956085 232.86225123889398,59.12149854588802 231.09384194096822,59.12149854588802 231.07095136388796,59.12149854588802 230.9089219839383,59.079906516729736 230.71779314482043,58.90119544173467 230.45589801145567,58.57294755683317 230.21696826125097,58.19472939223733 229.65801926499955,53.236824864509835 229.65599950807328,53.13075022895353 229.72444682235033,52.99363118316991 229.8471283471912,52.78791521153429 229.85962091723434,52.77340288483061 230.00085428225933,52.59259724720154 230.24808747734548,52.35987637892537 230.75729061145103,52.07105115478724 231.09384194096822,51.92704997464231 231.40346317976523,51.79464369471877 232.28452598485683,51.47881357394009 234.9526247337129,50.227910854841866 237.4025149412091,49.043510498961616 239.11683964009285,48.74428726746747 242.92976647280977,49.03932137369359 246.81562896800907,49.66896185848415 248.88520644832857,49.39674352368371 249.21973802113212,49.353056931891416 250.32731281225242,48.86891374336737 250.9963759578595,48.17284570122604 251.43481279771814,46.9281518642158 252.52159157433903,43.41848777668609 252.91222750289825,41.72914821772924 253.51269372270647,38.74731391046272 253.88268324828806,38.34007109245952 254.10074217833875,38.217389567565526 254.44986088355373,38.155076329615575 255.2125060948334,38.04286761783849 255.63852517051606,37.85585309817458 255.8753603583525,37.61692334786358 256.01255420995017,37.30932186593969 256.06446944054414,37.19097907788867 256.249389397574,36.465736770658715 256.56731408103985,35.22313749622934 257.01816868507444,33.79554345895601 257.17615855117157,33.03506761623071 257.3070687150267,32.4055019372542 257.50650099860076,31.779975771917613 257.8120827239705,31.260449436323274 258.5206433357829,30.60387886070621 259.1855173562283,29.876541990842245 259.84837161953476,29.163867059310064 260.4842209864665,28.180918744036504 261.0764585674731,27.150319129091624 261.5024776431557,26.059426033016756 261.8909442034795,25.336353094234866 262.0052474777843,25.194970117369166 262.1923368032622,25.04535850164867 262.81771335686443,24.6443245656803 263.40583661857653,24.35759390412303 264.08118345171357,24.020967768738625 264.74403771523265,23.781963212613572 265.47758346713147,23.524332010330866 265.27388725231583,21.64588336907609 265.37367820007637,21.321749803628556 266.4250738295738,20.933133631783008 267.1378235669732,20.559104592455192 267.66355878454925,20.145578086603102 268.3388308120317,19.62193743155479 268.8396556958138,19.18350059164301 269.34040577351607,18.65985993664785 270.0281703710417,17.934617629364745 270.74301467102197,17.221867892071664 271.8173008778123,16.556993871785753 275.6697999826018,14.959067010000265 277.8267506467185,14.06349187825815 278.05535719554064,13.976193500487605 278.3919085250579,13.701955408867205 278.52491325149384,13.442229644003639 278.70564408314937,12.760599122751932 278.8574250673711,12.32216228284015 279.0818424910316,11.88574519974833 279.358175145286,11.162672260966442 279.41218493846077,10.780339776969779 279.7675125257637,6.853034864187166 280.1872479137038,5.120008713384861 280.29945662564035,4.232737026364744 280.3743372391818,3.7340067053229715 280.49066027041283,3.519987289018511 280.7129831314924,3.407778577241427 281.22413121644445,3.2706595314046507 282.67252126853606,2.9153319440485403 285.9971905931687,2.0986769396472225 288.18728022988097,1.5625437146620378 288.9728160182409,1.369320312963296 290.5042405168084,0.6732522707688083 291.50783523521903,0.5900682124522375 292.6341114782579,0.7605506485925051 292.74003650223926,0.7770827321161458 293.43206503079386,0.8823345037710232 293.8850141974093,0.951679487657234 294.4356597492045,1.0347887402129048 296.45339680458466,0.6981626048285007 297.9038066131773,0 303.1568200528918,0.027004896640552653 302.74950242912774,1.2800021783727915 302.6539006067415,1.8223442853928098 302.6955674418201,2.3106017933176703 302.8180993549266,2.7325065496526584 302.99479067315485,3.03172978109365 303.2523470696235,3.328858449953782 303.6056549002128,3.5469921856590636 304.0399026146971,3.723608698020112 304.4472202386738,3.8171907636395424 305.68361063106835,3.8171907636395424 306.38798211771905,3.8462154171000553 307.50176579114,4.020737366880244 308.1916997569011,4.083125410591095 309.2721200399122,4.280537937557863 310.34648105256974,4.621278392396241 311.7760200407958,5.126292401286899 314.85764529571657,6.395896572303679 315.55797726894,6.855129426768026 316.1833538225422,7.316382038052334 317.30963006579367,8.266041768889608 319.84681865121985,10.940274594179082 321.27014875735796,13.061916916826936 321.36791994819225,14.47701838416339 321.2556364306011,15.289409457535783 321.36791994819225,17.21363925321687 321.7730682037209,18.01361256246644 322.3881215559406,18.539347780148766 323.62862626762967,19.597027097548253 324.1792718194248,19.92534978826381 324.49300737751634,20.28277193820078 324.7922306090636,21.059929476077826 325.0769415136415,21.627181917104384 325.1954339133206,22.402244892400567 325.5777663974236,23.72174453729763 326.1720237349312,24.486409505290958 326.82874392222953,25.365377747642228 327.26082226847836,25.76850624624461 327.7990500560976,26.200659398254352 328.23127801386823,26.454251086897138 328.9191174170485,26.76798664509496 331.628733389674,27.609551983555974 333.25785427320864,27.730138945815956 335.40844644350295,28.072899157474293 337.7295958555921,28.791857776855363 338.1451421183705,29.08906125147639 338.1866593417147,29.118085904936905 340.6137337777852,30.85111205568606 343.09691256982404,32.5114269611824 343.5145533949706,32.7503567114934 344.03609948759754,33.032973053649854 344.0429816218525,33.03506761623071 344.7218443281969,33.24280334468629 345.2017983913998,33.37580807106909 345.9914484992668,33.436101552199084 346.24698513902183,33.46101188620562 347.9488920737296,33.64383728065466 348.89009874821676,33.94104075527569 349.36803305449337,34.28597033532894 349.89167370948854,34.58309900418907 350.309389340715,34.73271061990957 350.6377120314305,34.7472977524273 351.13427298418367,34.52699464827395 351.82630151273827,34.221562534744976 353.73010932272445,33.03506761623071 354.28030603952897,32.69223259881147 354.58057655215407,33.03506761623071 355.77021331475225,34.39361589287404 356.8050768607792,35.57427595837058 358.58792367938196,37.7436443863975 358.90584836284785,38.132185752428995 360.6907897444567,40.30364874308993 360.7510832255867,40.3784545509236 363.52712675535037,43.36649774022495 364.0965485647187,44.09592917266978 366.17442948991965,46.759838796523596 366.26793674972504,46.88035095296953 366.9557761529053,47.76141375795481 367.45241191131305,48.64038200035923 367.6165358536309,49.07260995818303 367.7349534476554,49.71466820709641 367.8554656040482,50.4461193963612 367.7204411208986,51.476793817120125 367.5957398391315,52.03155368820981 367.1074075253926,52.75058711340493 366.7646473137874,53.153640806193266 365.58226671478025,54.15521576767763 365.40146107704487,54.3796331912318 366.19111118491196,55.32300923422019 366.7167715968334,55.95264971901074 367.30070573295853,56.65500144900097 367.75163514264773,57.19315443080611 368.0466692490333,57.54638745552821 368.05916181886386,57.56306915067996 368.1089824868769,57.62747695121077 368.3459672862352,57.93500362737376 368.5703099040285,58.17393337768476 368.8239015927244,58.17393337768476 369.3329551150955,57.6066809366582 369.7651082672116,57.54638745552821 370.27214203286906,57.54638745552821 370.46745999714864,57.65859616730529 370.8019915699522,57.85391413163805 370.8539816064133,57.88301359091261 371.7828453225917,58.42124137847866 371.93447669529166,58.508539756249206 372.74275344921006,59.43321434726588 372.94854422660654,59.60354717172489 373.49298089610113,60.06068546360838 374.5444513314658,60.9397285117737 374.8332765557634,61.18075282471872 375.10123095948177,61.299170418583785 375.446160539535,61.44878203430428 375.89297562992965,61.56929419075021 376.7469587323541,61.619114858816445 378.5651886982929,61.619114858816445 380.6265375400234,61.407190005146 383.88059018193087,61.07056386976159 384.49564353415053,61.00623087499168 386.30968437492766,60.819216355327775 386.8936185110528,60.748524866894925 387.4359606179665,60.68411706631096 388.3626549659095,60.571908354533875 388.730475123043,60.52620200592162 388.94449453924113,60.501216866101025 390.24327297555914,61.23476261799982 390.6359286610446,61.45708547897313 391.07070001617416,61.70042877194116 391.33409126581995,61.84772140763864 391.39647930953083,61.88302974894804 392.63286970192536,63.39163847614302 393.28742052077564,64.18959202857263 393.9003793102018,64.54491961592875 395.07236190217185,65.39486320487265 396.2443444939293,66.56677099086919 397.52225210966805,66.93870546756298 397.8152664591274,68.72985573104722 398.1331911423806,69.5132221509591 398.32850910666025,70.04935537594429 398.6568317975884,70.45248387449351 399.1056666446967,70.90131872170815 399.909829079108,71.27325319840196 400.8656976920864,71.54337697056839 402.19552053841915,71.92989857983306 403.0620710167539,72.27280840306636 403.61892545042446,72.51383271601138 404.87394248887034,72.96266756317286 406.5924563131284,73.78343688702816 408.1591891529522,74.40896305236474 409.2647441873589,74.58969388417977 410.0273145927713,74.78299209169256 411.27193362396747,75.3377519628354 411.40493835019083,75.41465233330308 413.0548552486501,76.37463526562917 413.99613672879184,76.85256957206522 415.05591060882534,77.44892147231319 415.77284947138645,77.86865686025327 416.2216095128402,78.21156668348655 416.7265487159168,78.6437198354963 418.10836159871064,79.79116612231745 419.4465626955794,80.90248120392778 420.1219095289291,81.64635015731538 420.8242612590788,82.45260715446699 421.33338958731713,82.91595432838531 422.4305663711877,83.92583273453852 425.47052479124244,86.36121061533105 425.65342499134607,86.50663310583667 427.7645196950098,87.8822371065957 429.35002879283195,88.57419082933622 430.4700961539954,89.05212513577227 431.92050596258815,89.66306416859112 432.655996665546,89.93311313499666 433.26484113567767,90.15558560754491 433.7282631154101,90.31963474420819 434.3849084968412,90.39444055209502 435.03945931547884,90.40902768461275 435.2929761985202,90.31963474420819 435.6670052377417,89.88748159219844 435.7438308025548,89.72328284390707 435.93503444732727,89.32022915117189 436.41289394794927,88.64899663722304 437.4477574939762,87.38971566764192 437.74077184343554,86.97214964814991 438.4202329960797,85.99757958330609 439.42180795756406,84.68428882044387 439.6753248406054,84.35604093554235 439.87894624955385,84.30405089908122 440.2446718441065,84.36845869966518 440.529382748897,84.41207048564343 440.73719328321977,84.36845869966518 441.0073170553862,84.17516049215239 441.7386934386243,83.45829643540533 442.62177600064217,82.85783021570339 443.785529953598,81.93308081887265 444.377767534392,81.36994269730006 445.9028335393497,82.39650279860503 447.09972646511363,83.20268498994258 446.61775264498453,83.83853435676798 446.1731069230379,84.42875218079517 445.52476498648826,85.28482984601301 445.0903676600569,85.98508701336922 444.5231900247913,87.16537304984865 442.6467611403033,90.76846959136968 442.3704284860489,91.32749339354145 441.6825890828687,92.71140083902247 441.6825890828687,93.17063369348682 448.3091867665754,93.43843848563023 449.90920819094174,93.50307070365635 451.90816898874874,93.51967759299404 453.94034356523116,93.48848357108547 455.35753959514847,93.57787651149002 456.22401526761604,93.69838866798911 456.74765592261116,93.83139339431875 457.13627209445673,93.96649268333557 457.42711707546795,94.08902459660146 457.91761875765496,94.2989296935051 458.45569693353974,94.61266525164977 459.03753650708404,94.99918686091446 459.5757642947032,95.2527037437432 459.99340512006245,95.35862876767139 460.6355381747367,95.35862876767139 460.7965202731833,95.37321590018912 460.9575771774971,95.38780303276 461.8157494052958,95.46260884059369 462.4973051207335,95.6059367684653 463.0854283822329,95.73063805017925 463.12904016815804,96.49320845553856 463.297278429983,99.46262499868226 463.5466809935172,103.87616766256977 463.459457421667,105.79613352722194 463.9456203669579,106.37797310076623 472.60446743280164,108.33534186930865 470.7800285847748,114.37389109743626 468.54004347418226,121.781760638474 469.0636841291774,122.6545199988436 472.65017378130756,123.48359276736772 472.94101876231883,123.57081633937737 476.0559326017822,124.51426718812667 478.28551970512507,125.18751945889547 480.40289809674397,125.7236526838275 480.4465846885363,125.72425113028677 481.2465579977858,125.73607044795033 481.33385637571587,125.73816501058434 482.12762080287746,125.79217480386544 482.41442627003613,125.8981746336077 484.33850645408916,127.38389278356294 485.14274369458025,128.08407514515827 485.5624790825203,128.60569604338662 486.39155185093813,130.26593614312205 487.13542080443204,132.62231909075973 487.5074300869399,135.3881142249018 487.52815129578477,135.54812384792518 487.7318475103878,137.29768208225113 487.97287182338596,137.9730289156008 490.1920609194791,139.7767465547828 490.8611240650862,140.192292817508 491.2040338882132,140.3356955511405 491.67366475003354,140.37309845508392 492.92037834381057,140.28370551467935 494.6139818338495,140.2006710679909 496.2056250078924,141.5325884769576 496.5485348310194,142.05622913200594 496.7667433725919,142.5257851879591 496.9100713004104,143.012022939064 496.85598670136835,144.3149905004374 496.9100713004104,145.4349082499728 497.0181656928398,145.84843475582488 497.3796273563635,146.7689950273876 498.3354959691293,150.22457451582213 498.4830878281893,151.08895562565567 498.8633257494988,151.95962042339124 499.2539616782706,152.84487235364458 499.7485028738849,154.10617308004564 499.72987622783353,155.3321654650842 499.72987622783353,156.306735529928 500,157.088007387259 499.34081122121,157.71136418420068 498.5454010660329,158.4636113880712 497.57913444601746,159.6002856385192 496.695977078345,160.63709413549893 495.58024845407766,161.49736092593164 494.75319544216086,162.5342442287254 494.61809615335665,162.70263210223166 492.61292647346164,164.40648398794536 492.04350466409335,164.82419961901232 491.70695333457616,165.07360218244023 490.5702790838623,165.90888383305236 490.2586380885643,166.1457938265434 489.32767980959244,166.8564490012556 489.0679540446757,167.3384976270925 488.32408509118176,167.93066040217875 486.4642630962441,169.27095606162837 484.2533026389526,171.22839963598486 482.7551667249277,172.2444869241729 480.4465846885363,174.3712160417511 476.5566826794845,177.95463865582406 476.3717627226672,178.40766262825355 476.24287231552574,179.08091489902236 476.27616090006836,183.34484594718938 476.15190845329187,186.13659869662845 476.14525073621326,186.28508822524446 475.90213186084685,188.24043723696693 475.3535808718451,189.73034451219021 474.8277708481893,190.89402365933194 472.860004072344,191.4363657662988 468.1991534077689,191.56727593010075 464.6521612220567,190.84622274808567 462.6843196403442,190.71740714697088 462.02774906478027,190.97922747446847 461.3711036833492,191.69818609384953 460.56477188048984,192.65816902612247 458.0899713389871,196.29043983273212 456.834879494674,197.50393964788694 456.64592002400417,197.8799884440347 456.4089352246459,198.28109718576397 456.3611343133465,199.3283784958606 456.3383185419208,205.23384819179134 456.0806125339304,205.8427674678434 456.3134082079143,208.54400518977343 455.6754642786143,211.56541176932512 455.665066271152,211.75856036526295 455.54245955217834,214.07544584637637 456.38402489042676,219.17473335096955 456.4870324881384,220.04958727392 456.80996916066744,222.79032246242747 456.8910586562968,223.8999918162881 456.97207334627166,224.63346276237283 456.9096853025608,224.95969089045437 456.666641232849,225.22570034321998 456.290517630834,225.50622212268928 455.322156448025,225.9841564291253 453.8572343124629,226.4204987064031 449.86350184243577,227.06884064316534 447.44263628824064,227.72339146196245 447.151791307442,227.94571432293577 446.8441898253586,228.37375315554468 446.55536460127365,228.94728928442012 446.1294203312456,232.0081185247352 443.23899872130994,234.1068702701433 441.2130330269155,235.270474611471 439.6939514866568,236.2616515656525 439.08099269701796,236.97440130294558 438.57186436877964,238.0548963917176 437.9153685988703,239.75470876379137 436.83270414175655,244.91002581848562 436.275849708086,247.5573285529486 435.5194133788943,249.9012189307557 434.50542065323395,253.93661823591458 434.48881376389625,254.7199846558796 434.3267095782921,256.24101114714426 434.5532215645334,257.06596959626756 436.0659446111824,259.987585228165 436.6643910740643,261.50651715679567 436.93653460315704,262.9195240615513 440.22178126702624,265.3091955937315 441.72627567466094,266.059348234968 442.7735569846513,266.5808943273823 443.7958531549805,266.99853515268836 443.9682805421798,267.0692266411212 445.47075519310084,267.6031904976583 446.27065369648324,267.9793140996202 447.4510145387767,268.827088320116 448.465007264437,269.68324079109476 448.465007264437,269.8307578441812 448.0701822105035,270.2754783719419 445.38757113467796,272.9913032264428 444.98653719886903,273.398546044446 441.5315561566812,277.25209243068537 437.0530072459099,282.2485219494608 436.92636101329634,282.3877355579316 435.07057853178594,284.42828838479056 431.85811791887727,287.00078531141986 425.7344396813209,290.9031050843819 423.49236000793485,292.9831553778183 422.8066151673355,293.4777713794061 421.00708665352784,295.5182494005042 420.514714826149,297.3073051013544 420.3401180705016,298.1863481495729 420.13649666155317,299.22113688973263 419.99511368458116,302.1260708264783 420.1842227669854,304.61545850055194 420.32560574374475,305.86015233756217 420.31101861133334,306.87205050053535 420.30062060408363,307.6617006083493 419.66275148022567,311.4851002540237 418.10836159871064,311.67114229815803 418.0647498127856,311.67630389890246 418.10836159871064,312.105764041872 418.268371221734,313.6814735786911 419.8039848454633,314.228004810926 421.6533340274966,316.399467801587 422.359874882808,317.2140282434074 424.8055759651425,319.5495403707316 425.239898485494,320.3412850411264 425.72613623665205,321.1039302522998 426.6029351107147,322.6311656256524 427.6128883225225,324.3662863390356 427.86640520556386,325.44887599038844 427.75210193104647,327.3917324322272 426.0398717947436,333.4676097584842 425.50792769507956,335.3585509696226 425.327196863424,336.07960415163774 424.1967314947982,340.6198678540592 423.3094598078312,344.72588384189Z"/></svg>