<svg width="1200" height="800" version="1.1" xmlns:xlink="http://www.w3.org/1999/xlink" xmlns="http://www.w3.org/2000/svg"><g class="geojson-features"><g class="geojson-feature" stroke="#555555" stroke-opacity="0.0" stroke-width="0.0" fill="#111" fill-opacity="1.0" data-properties="{&amp;quot;N03_002&amp;quot;:&amp;quot;石狩振興局&amp;quot;,&amp;quot;fill-opacity&amp;quot;:1,&amp;quot;marker-color&amp;quot;:&amp;quot;#fff&amp;quot;,&amp;quot;N03_001&amp;quot;:&amp;quot;北海道&amp;quot;,&amp;quot;stroke-opacity&amp;quot;:0,&amp;quot;N03_007&amp;quot;:&amp;quot;01101&amp;quot;,&amp;quot;fill&amp;quot;:&amp;quot;#111&amp;quot;,&amp;quot;N03_004&amp;quot;:&amp;quot;中央区&amp;quot;,&amp;quot;title&amp;quot;:&amp;quot;札幌市中央区&amp;quot;,&amp;quot;marker-symbol&amp;quot;:&amp;quot;bus&amp;quot;,&amp;quot;description&amp;quot;:&amp;quot;札幌市中央区&amp;quot;,&amp;quot;stroke&amp;quot;:&amp;quot;#555555&amp;quot;,&amp;quot;marker-size&amp;quot;:&amp;quot;medium&amp;quot;,&amp;quot;stroke-width&amp;quot;:0,&amp;quot;N03_003&amp;quot;:&amp;quot;札幌市&amp;quot;}"><title>
      札幌市中央区
    </title><desc>
      札幌市中央区
    </desc><polygon points="376.17987333703786,750.4119220703142 375.0924417709466,750.4583578819875 373.31731911120005,750.4185330007458 369.61497201793827,750.0844021197408 366.4303884517867,749.8366911166813 362.2910764373373,749.5468451887136 360.6534919964615,749.4429020483512 359.4851453155279,749.6507883071899 358.46901691751555,749.8985790541628 357.710022656247,750.272534958669 357.36049732309766,750.272534958669 357.1032466776669,749.9185711662285 356.95114490319975,749.4847979069455 356.37506889970973,747.0576995980227 355.64689112175256,744.1328517274233 355.31192934396677,743.1592791695148 355.20678047277033,742.4955473772716 355.20678047277033,741.3339150107931 354.41702798218466,737.391162542277 353.93159554875456,734.7162059495458 353.47191148111597,733.0169800312724 353.3701413546223,732.6407806671923 352.80857065250166,731.1273778062314 352.35389644815587,730.1937652127817 351.86840576003306,728.8440422960557 350.76000267406926,726.377014784608 349.8666159219574,724.7814693503315 349.47031244798563,724.0737435979536 348.45569865964353,721.8123597989324 346.60612710379064,717.6260241213022 346.1061311145313,715.9865600494668 345.62873776373453,714.7408281378448 345.22258932632394,713.5083159138449 343.5397413549945,710.7978614188032 342.84226355236024,709.3064558476908 342.023442204576,706.8990724838804 341.2953226813115,705.3634453428676 339.8539967145771,703.6185534832766 338.8971711145714,702.4604134241818 337.13818487455137,700.2609036219073 335.83393109356984,698.5593276347499 335.59124400350265,699.3072379626101 334.8630079717841,700.800904427073 333.89214310399257,701.7943960172124 332.88888888899237,702.920674654888 331.85971154505387,704.0757069896208 329.88885469874367,706.0693660433171 328.09911022963934,707.7288571746321 325.88381866691634,708.4346948061138 324.24460310745053,708.4346948061138 322.57631869148463,708.1426736277062 318.90630269167013,707.3969275357667 315.47897378145717,706.4012169255875 311.4805204765871,704.9519365975866 310.26032753800973,704.5979400249198 308.93830621871166,704.6044719171477 306.7392675841693,704.2726198163582 304.7213413261343,703.5866905292496 303.81036179931834,702.7568988150451 303.49316755938344,701.8873565207468 303.32492936518975,701.263317978126 302.8394386775326,700.3516339949565 302.0060537743848,699.7498180803377 300.3975964447018,699.0439679218689 298.86516087455675,698.9620793601498 296.6822586597409,698.4663664990803 295.5754284376744,697.9265224343399 294.2711746559944,696.8688979183789 287.98944711126387,695.1053356188349 285.1527577599045,693.6537117258413 284.34372312179767,693.0686956443824 283.80324044823647,692.6778879431076 282.4989866667893,690.9365355257178 281.1785382118542,689.3388830451295 279.78369911480695,688.3010752783157 276.6590008889325,686.5197178844828 275.0505435592495,685.6700618143659 273.0488702293951,685.1920997541165 270.71223512175493,684.984106451273 269.48237198241986,684.7782638929784 268.4678164483048,684.4242527266033 267.0260244482197,683.5945081789978 265.1149946881924,682.0188977968646 261.4740475451108,679.963243983686 259.2895724661648,679.0293744519586 257.63416223297827,678.867980458308 256.54509954852983,678.7617121235235 254.52728979918174,678.7617121235235 249.15654178126715,679.6534413485788 245.50108933728188,680.109263002756 242.28574754134752,679.9853101449553 239.61578177427873,680.2553616398945 235.79849910084158,680.5728910239413 235.625367552042,680.5872300281189 233.81948666321114,680.4832722395658 232.4699693515431,679.7574789741775 230.77081019757316,678.7617121235235 229.5733946596738,678.4519087276421 227.6008484410122,678.2217666589422 226.46325998939574,678.4717444354901 224.340243114857,678.5758619739208 222.97453112900257,678.285894175875 220.83695069886744,677.4759749684017 219.56339689274319,676.9162719767774 217.72681602835655,676.6661340820137 215.67813154123724,676.7303414646303 214.5097848607693,676.5444905437762 212.75085687474348,674.9666269241134 211.50648843380623,674.1368663394824 210.3835217920132,673.8470552357612 208.7151208675932,673.8049935768358 206.92386178835295,673.7208702483913 204.71177420811728,672.687490453478 203.10331687843427,671.897477616556 201.26836713263765,671.2557953832438 199.23587731923908,670.5698198142927 198.41548310779035,670.0718476311304 197.0514022402931,668.8681405808311 195.9138137884438,667.9276378295617 195.0480395378545,667.210668568383 194.4316516125109,666.6353398083011 193.75840756646357,666.006795152789 193.40888223331422,665.4867515121587 192.95572263840586,664.1613069023006 192.62081911507994,662.8956067151157 192.0447431113571,658.6644734112779 191.43796713254414,656.6728518342134 190.9977982295677,655.7611644362332 190.0576333370991,655.2012772754533 189.55757909361273,655.0972344286274 188.34396888199262,655.1592140139546 187.25333333364688,655.3773374789162 185.44587958068587,655.7390175174223 180.83569868816994,656.838873718516 179.19642487470992,657.170757988235 178.3177764408756,657.4827258099103 176.0717849030625,657.8124586925842 173.08299377793446,657.6885798509466 169.86765198246576,657.5027216980234 168.30451643746346,657.7527897240361 167.12160620093346,658.270610971027 164.96788935130462,659.246423705481 162.0713146594353,661.7979150612373 160.78168268804438,662.7516538240016 159.0372600038536,663.0636977518443 155.63911645882763,662.6277762331301 153.60662664542906,662.3379583123606 152.15027108998038,661.9439395011868 151.5726804768201,661.3619924148079 151.13245331915095,660.490145956981 150.78461735858582,659.4322811965831 150.32825378142297,658.8304946197895 148.6599693656899,657.7107266817475 145.95918711507693,656.7990412177751 143.76009022607468,655.6814992561704 143.04164090333506,655.2057385303779 141.81987510062754,654.3957811204018 138.70816756621934,652.7869358042954 138.1644226561766,652.5058752826881 136.46538001066074,651.8221837361343 134.41675377753563,651.5720330132172 133.0672364658676,651.5322000839515 131.33737733704038,651.985817292938 129.7304928714875,652.1319243267644 128.19811555556953,651.842020523618 126.78702353080735,651.1781648643082 126.04270933335647,650.4921611481113 125.19318801071495,649.352537240251 124.6719874846749,648.7602982245153 124.2077013333328,648.2327476121718 123.03935465263203,647.4648425860796 119.3839022081811,644.0414007240906 118.4130373406224,643.2756401349325 116.0925969069358,641.0338794767158 112.51316622248851,636.84478130145 111.61832311493345,635.8289303460624 110.69272177782841,634.416964919772 110.024429340614,633.7332480977057 109.03894266323186,633.1511877893936 108.1586631112732,633.0051547567127 106.9903746843338,633.0272230354603 104.85110488208011,632.9653203155613 103.19732576748356,632.405407069833 102.21189734409563,631.5335090158042 100.20859289634973,630.10161385627 99.1017626740504,629.7077284238767 96.21980979223736,627.8840921013616 95.18742846581154,626.8683818812715 93.62586578493938,625.4984564121114 91.47203242685646,623.900590256555 90.16294354503043,623.2181334663182 88.53508755913936,622.3692438470898 88.16616356978193,622.1766799434554 86.04151557688601,621.5769189833663 83.23552620084956,621.3268324679229 80.71608934411779,621.4728689863114 79.85194621165283,621.0789766075322 79.38107733335346,620.2269761094358 79.16909021884203,619.3350589059992 78.89564489969052,617.9252766781719 78.44254355924204,616.6373081940692 77.51694222236983,615.2718156973133 76.84864978538826,614.0258273575455 76.12047200743109,612.0561729707988 75.65117599302903,610.9784447180573 74.58966755541041,609.0264654213097 73.37605734402314,607.4307763152756 72.11549422936514,606.3707253279863 71.03942223661579,605.2508373253513 68.4292835558299,603.0929582519457 67.24480045516975,602.4091179816751 65.63791598938406,601.7031273909379 64.31752578844316,600.8334054973675 62.15244936547242,600.2446134143975 61.87568355584517,600.1694009513594 60.011548444395885,599.7954099935014 57.479120896430686,599.9214546984294 55.717746233101934,600.2446134143975 54.88517688913271,600.3972691837698 53.22976665641181,600.3353623352014 53.13993864529766,600.2446134143975 52.65374890714884,599.7533419681713 52.532347107771784,597.9473614268936 52.66825420805253,595.4796738796867 53.503211975097656,592.4297854556935 53.867359118303284,590.9359474873636 55.021083989413455,589.0059584887931 55.61172354849987,587.470040984801 55.61015068460256,586.7860992010683 55.231439985800534,584.6503684987547 55.048579982249066,582.9903802110348 55.06314353784546,581.2264870884828 55.3431133297272,579.6948477493133 59.18305689631961,581.6248734793626 59.70577203202993,581.9192011365667 78.47167067043483,592.4563970675226 82.42806442687288,594.6098612478236 85.04140708991326,596.2078230656916 89.59018803201616,598.1332422042033 90.16294354503043,598.2903604058083 91.10637067398056,598.5493822395802 94.42843420454301,598.5493822395802 97.69067064905539,598.6931946718832 98.48036488564685,598.9012246584753 99.54839779576287,600.2446134143975 100.57431290321983,601.5349355987273 102.24259731918573,602.594997063512 103.45626578503288,602.7831866155611 104.48544312920421,602.9690655554878 105.79126977431588,603.6750543196686 107.11008711135946,604.6289063844597 108.20235377782956,605.0648795790039 109.29462044453248,605.5805257359752 110.66039068438113,606.6782638441073 111.14681344013661,606.9783925670199 112.51159335835837,607.8202179953223 113.47115690680221,608.1676717363298 113.95169598609209,608.3403229303658 115.42261509713717,608.7343052376527 116.71230532275513,608.8383579436922 117.65410133334808,608.7762928177835 118.79168978496455,608.3403229303658 120.17196532618254,608.0283237737603 122.73515110416338,607.8424467560835 125.79839112563059,607.8424467560835 127.10421777074225,607.9464199786307 128.78875511488877,607.8845140853664 132.52028757333755,606.1404696803074 133.73226666660048,605.7244157749228 136.34240534785204,605.2486064702971 137.55438444088213,605.1866205625702 138.63208755198866,605.3305107172346 138.70816756621934,605.3576793406392 140.60463377088308,606.0364960735897 142.53028534073383,606.6162781170569 143.89599732635543,607.0943169383099 145.9883142260369,607.530287936097 147.23268266650848,607.8822832424194 149.11301245167851,608.4001572708366 152.36062708636746,609.0242345833685 153.83160445163958,609.1702747739619 156.01613778504543,609.1901929633459 157.27506978157908,608.9002637161175 159.08095067017712,607.9043526545865 160.85450046602637,607.2182882629568 162.64412842667662,606.7823169876356 163.6296151042916,606.8243047349388 166.056893781526,607.3421798833879 167.4534222506918,607.7339321505278 168.87901957705617,607.7959177355515 170.73016399657354,607.4861490771873 173.99240044108592,607.714013901772 175.87273022602312,607.2581248000497 176.4569035663735,607.0700166430324 178.17703424044885,606.5123046117369 180.90845821169205,606.4281697128899 183.13831333001144,606.2821287041297 184.82121955556795,606.3042778613744 186.2176897705067,606.6162781170569 187.25333333364688,607.0766295101494 187.52194355195388,607.1961391470395 189.07057379558682,607.7981485793134 192.72596798604354,609.4159058310324 195.13547912542708,609.9139397493564 197.22936888900585,609.7899691077182 198.91227511502802,609.5619459046284 200.3395035592839,609.6240109307691 201.74896446615458,609.6240109307691 203.7538417777978,609.2078803150216 204.603421355132,609.2698657134315 205.58884977782145,609.5398765671998 206.89310355926864,609.7899691077182 208.22811557003297,610.5357842998346 209.0015568784438,611.1996951043839 209.57763288193382,611.5316900048638 210.41259064874612,611.8016996106599 211.59550088550895,611.9233592452947 212.2961244159378,612.0097240236355 213.445072441129,612.153532499331 214.82540623657405,611.9676570486045 218.3448933265172,609.14374374412 219.4986764518544,608.5660361897899 221.1362608927302,607.7782303328859 222.74471822264604,606.9039778703591 224.12499376386404,605.7642524335533 226.30789597867988,603.7724155160831 229.28212354844436,600.972755508963 229.66351394122466,600.2446134143975 230.58637733012438,598.4830133855576 231.23853334784508,596.9248963771388 232.14951287489384,594.0831286730245 232.37932578125037,593.5674703982659 232.81623244821094,592.5891364017734 233.52984667033888,591.7592361053685 234.0460373335518,590.6393146569608 234.97006580629386,588.0255437896121 235.6819906560704,587.3815206143772 235.79849910084158,587.348534621764 236.19823957351036,587.2354739197763 237.00243911123835,587.4435087782331 237.8050657848362,587.7975901187165 238.53324356279336,587.8595782298362 239.7322902190499,587.4435087782331 240.82455688528717,586.7574156944174 241.81004356290214,585.6795520345913 242.70482841599733,584.5596166686155 243.44762800377794,583.4176082236227 244.14667867030948,582.5456228646217 245.0253271041438,581.5717287536245 246.1256911077071,580.23721260007 247.0189030971378,579.5731800999492 248.33294358779676,578.9999792545568 248.9849830972962,578.5439837181475 249.7892991430126,577.3399717941647 250.43976578861475,575.660039147595 250.78929112199694,574.4560998044908 251.077299996512,572.3822256680578 252.0789230936207,571.2821795943892 253.5660368783865,570.4743939331966 254.3395364410244,569.4982447735965 255.2052524376195,567.5062601992395 255.91723554139026,566.8201391546754 256.76681511849165,566.6961575925816 258.2975613158196,566.9662716236198 259.05486620473675,567.04818227957 259.70218712161295,566.7227706038393 260.4967164590489,566.3221410452388 261.7264630901627,565.2220813450404 262.57604266679846,564.1220988509012 263.24276224011555,562.7321572751971 263.8204111077357,561.8822065336863 264.5632106952835,561.156157632242 266.0340715521015,560.1623804359697 267.2023599788081,559.2284415750764 268.1587777992245,557.7543428255012 268.99373556650244,556.282391030807 270.02448577433825,554.994180572452 271.11349020479247,553.978319014539 272.0552862151526,552.6302613345906 272.8903022366576,550.9680926545989 273.60391645901836,549.2061558148125 274.482564892387,548.1261376665207 275.52630579215474,546.8467505333247 275.66704799281433,546.6740776359802 276.72698356653564,544.9719674288062 277.68328487849794,544.1838997920277 279.09431864880025,543.4779048550408 280.39857243048027,542.3578728731954 281.2918426739052,541.2356071805116 282.29346577078104,539.349806161481 283.1591817671433,538.2519169670995 284.1446684447583,537.0478855576366 284.34372312179767,536.5642003646353 284.47805735841393,536.2377325106645 284.61553732305765,535.199599940679 284.6361010631081,533.8449563382892 284.64629555214196,533.1676331305644 285.0395115520805,532.337552338955 286.526625337312,530.1794313119026 287.19334491039626,529.2873499240959 288.78560756659135,527.7710867321584 289.6513235629536,526.5470282852184 290.69663732661866,525.6130252446746 291.6966293051373,525.2809720322257 293.18543246225454,525.1569799418794 294.74693688889965,524.9289969742531 295.96054710051976,524.0989818889648 297.94771512877196,522.6468505349476 301.3005368888844,520.7365935816197 302.15005821199156,520.4466119080316 303.28607379924506,519.6165095291799 304.1809169068001,518.4123525626492 304.95435821521096,516.7344487978844 305.7893159824889,515.6145149572985 307.06286978861317,513.8280661575263 307.7619204551447,512.8961904189782 308.49009823286906,511.2359586266102 309.12600132310763,509.5958028221503 309.5370431148913,507.95771343866363 309.5516066704877,506.193470055121 309.4561280000489,505.3456523815403 309.37037778506055,504.57537141651846 309.5516066704877,503.70308612810913 309.9448226704262,503.10110796254594 310.5208404196892,502.4790471418528 311.21831822232343,501.52276455250103 311.4691609032452,501.2947705691913 312.12935600359924,500.6860157531919 312.5840884624049,500.0219549491303 313.00963555579074,498.94166882056743 313.221622670535,497.6577700392809 313.676355128875,495.9134123073891 314.43523288168944,494.95934823993593 315.7087284340523,493.96320518804714 317.09063509339467,493.1507494128309 317.54536755220033,492.5287556294352 318.15214353078045,490.2043805711437 318.44184177787974,488.5839976511197 318.7751724375412,487.25576258823276 318.9580324413255,486.74883758160286 319.24446845194325,486.2506782556884 319.6911035736557,485.8544455837691 320.4046595415566,485.5999065658543 320.67653199634515,485.50475324864965 321.73157421522774,484.5595148076536 322.3238448924385,483.45935091236606 322.68630266329274,482.50510316551663 322.98893334763125,481.30316594825126 322.854599111015,480.2051464600954 322.291455544997,478.60680565959774 322.04876845516264,477.77663227228913 321.86748131597415,476.40636892116163 321.95812488533556,474.99625442468096 321.8076542294584,473.1898132362403 321.564908885397,471.8616160635138 321.45812889607623,471.1952049625106 321.4743235700298,468.4767929429654 321.1032441742718,467.4362850653706 320.9872017635498,467.1108071159106 320.2914133334998,466.10129810275976 319.95802441984415,465.62312147871125 319.86417686752975,465.1184055452468 320.0260653512087,464.73108173778746 320.9289475416299,463.4160912137013 321.5633360214997,462.1320194792934 321.6846795666497,461.01188091246877 321.80602311110124,458.9751428407617 321.84650979586877,458.8909825626761 322.32064091041684,457.8969975763466 323.7769964658655,455.61453835864086 323.9581670970656,454.24421291600447 324.3530142151285,453.3431465306785 324.8692048781086,452.1675974947866 325.17183556291275,450.0932845182251 325.74954268475994,449.1789007820189 327.53922889963724,448.14281499176286 328.72208088170737,447.43668141856324 329.4518897780217,447.1642697969219 330.18012581020594,446.52221301640384 330.5587200000882,445.96001414512284 330.83216531947255,445.3400325314142 330.9680724197533,444.28409340349026 331.22543957363814,442.2052040924318 331.19468134408817,441.10486522119027 330.89205065974966,439.11458931851666 330.4826399856247,437.7043672996806 330.390481806593,436.58194116014056 330.6946271006018,436.0638851962285 331.22543957363814,435.81370381929446 332.78531288169324,435.60775639058556 332.88888888899237,435.52151986409444 334.45691778860055,434.21521794004366 335.7466080142185,433.5709125213325 336.9909182009287,432.57464443077333 338.385815552203,431.0603130465606 340.26777645526454,428.61178868077695 341.5833315558266,426.8516426975839 342.2985768960789,426.14324671030045 343.51218710746616,425.3129842655035 344.7258555733133,424.7949163641315 345.6788946490269,424.2347647907445 347.7452884197701,423.3204124098411 349.07872756617144,422.72040758212097 350.20175246242434,421.8481357014971 350.79396488540806,421.101953057223 351.352215097053,420.08358167868573 352.0205075345002,417.47097157128155 352.47687111096457,415.6001559413271 352.71798533713445,414.20979224552866 353.0059942116495,413.3995154093718 353.4768630899489,412.9854495591717 354.41702798218466,412.673325772048 355.3895822223276,412.42528445925564 356.66307777445763,412.7773404882755 359.19713644101284,414.00176340027247 360.4237373438664,414.15001385088544 360.4269413263537,414.15001385088544 364.06462623295374,412.69540399336256 367.0372226848267,411.36704252136406 367.5453160107136,410.7338657125365 369.4935702185612,408.29615922656376 371.40628935117275,404.9329747108277 372.34802710753866,402.8982348559657 373.75911913253367,401.21778267389163 374.0068743394222,401.0185160358669 374.9726710896939,400.2413753718138 375.8983306812588,399.68127538019326 376.89674979588017,399.24727117514703 380.1265968927182,398.34163985506166 380.8580369069241,398.13583605957683 381.20587286748923,397.7616108878283 381.2366310968064,397.33653219335247 379.2608226418961,392.1909224962583 379.03433022578247,391.1104778673034 378.9275502364617,389.90815659682266 378.9745031397324,388.6395147454459 379.2009955556132,387.66523446701467 379.78196491417475,386.5693162876414 380.5068222009577,385.6725092068082 381.4340546561871,384.9695535065839 381.59914712188765,384.84440990921576 383.2367315629963,383.9322157400893 385.2400360107422,383.22590973600745 386.7562186527066,383.1019613360986 389.104213333223,383.32777855778113 392.610826240154,383.513820623979 394.3260635591578,383.38532885327004 395.37143557704985,383.3056193009252 396.860122225713,383.36540146626066 397.9135333264712,383.38756072043907 398.7857737960294,383.2834600433707 399.9702568962239,382.78527502540965 400.8198364728596,382.26500990602653 401.6838630968705,381.72688923438545 403.3813328782562,380.1106106247753 404.10956891044043,378.6181965302676 404.2551462117117,378.2905869942624 404.6257595734205,377.45585922303144 405.39920088183135,376.6122024344513 406.20188580988906,375.71099299855996 408.09182754158974,374.6393598745344 409.47216133680195,374.3802991490811 410.1016564620659,374.2541165985167 410.63077956275083,374.0105196178192 411.04986043740064,373.63181215932127 411.35889908648096,373.0960733239772 411.4835631218739,372.5955662993947 411.7699408782646,370.97479365963954 412.1049609105103,369.31415972986724 412.2991222329438,368.6122167686699 412.5143133297097,367.5095600683708 412.61952045490034,366.18099613371305 413.1357111183461,364.3543045062106 413.9399106563069,362.52752634184435 415.2134644621983,360.5569386400748 416.45620178524405,358.5242461077869 416.9885871219449,357.25759538973216 417.4286977709271,356.1992340577999 417.9433155700099,354.3923539943062 418.09541734401137,352.9176377399126 418.48700222582556,351.4252203620272 418.77827333682217,350.2825877198484 418.9595604764763,349.14003212191164 420.42879021517,348.686054256279 421.73310225084424,348.47799753420986 422.4320946633816,347.89559767220635 423.52436132961884,345.9868103438057 424.43376799300313,345.9868103438057 424.7768271076493,346.4097016431624 424.25090798945166,352.33970718388446 423.64570487476885,356.88341864652466 423.3576960002538,358.1876154659549 423.31400533323176,359.4961930462159 422.9337217709981,362.8176016652724 422.66190756997094,364.2502794895554 422.50980579596944,368.83588845992927 422.34145109332167,370.1888369610533 422.10033686761744,373.6340440711938 421.99361513275653,374.41792274604086 421.87087348639034,375.31841716740746 421.7444035699591,376.2468883902766 421.6149044339545,377.20341596589424 421.52431911835447,380.7748342655832 421.24918442685157,382.35133553412743 420.43042133329436,384.4681021225406 418.67143509327434,387.5810619163094 417.6099266563542,389.4499123169808 415.8801257815212,392.1909224962583 414.5613084442448,394.16146242874674 413.92377423658036,395.4257857457269 413.55962709337473,396.3180316160433 413.51430530892685,397.0863310038112 413.84769422211684,397.4184712615097 414.5451137709897,398.0007324363105 416.19889288558625,399.07900975306984 417.37533690338023,399.7432076294208 418.55009154859,400.1993698872393 419.5333063113503,401.0185160358669 419.5970946846064,401.0716803824762 420.76544136554,401.9639956585597 421.8576497780159,402.9403198150685 422.9936071112752,404.49682310118806 423.28161598579027,405.0790758479852 423.9337720037438,406.80167909385636 424.4499626669567,408.62374866136815 424.75422446941957,410.78248581371736 424.7379715417046,411.9448236146709 424.52604268095456,414.08354026731104 424.1780902114697,416.32642093650065 423.95159779605456,418.2968636176083 424.1182631254196,418.77508651581593 425.21047153812833,419.3153184206458 426.96945777814835,419.9573312167777 427.7267626665998,420.0414981950307 429.4873217709828,420.019420305267 429.979278677376,419.95159255876206 431.5957750896923,419.72929920756724 433.2949342436623,419.521193006658 435.69139643758535,418.8570219919784 437.78534445515834,418.2547799805179 439.09117110050283,418.276937653427 439.6673053582199,418.5669799086172 440.6607728640083,418.7219240934355 441.1236609139014,418.795012459741 442.0799622258637,418.75292886514217 445.33893643389456,418.4429607625352 448.6465529175475,418.2547799805179 451.31646043038927,418.1308404589072 453.3796502186451,418.1484550164314 454.25992977106944,418.1484550164314 455.1240729035344,418.3145578731783 455.68552709696814,418.66876166523434 456.41376312915236,419.54119862406515 457.35392802162096,421.07764352008235 458.74876711843535,422.44590991036966 460.114537358284,422.90412327228114 461.9365546668414,423.27609751955606 463.0288213333115,423.3602639265591 463.99974445509724,423.73215812339913 465.7279142115731,424.6885928220581 467.94157465640455,425.6848769776989 469.45781555213034,426.3889696919359 471.5210053403862,427.34539919462986 472.8867173262406,428.2995951647172 473.388402688317,428.67148560564965 474.70885114348494,429.74969529907685 475.4046395733021,430.74596914381254 475.8609448962379,432.4064741769107 475.52598311845213,433.81894310959615 475.5874995768536,435.3952733875485 475.98228844068944,437.1398469695123 476.7395933298394,438.3021221277304 477.92407643049955,439.09028067684267 478.4176644550171,439.2873001905391 478.52444444433786,439.3124058266403 479.3885875768028,439.51532308012247 480.35298622585833,439.5773299855646 481.4306310827378,439.3581538714934 482.79482845868915,438.9021078388905 484.12168487836607,438.403979477589 485.0165862401482,438.071946755168 486.018209337024,437.87261543236673 487.47456489270553,437.9368541642325 488.6639413477387,438.3840543325059 490.65268224012107,438.63192307867575 492.07985243038274,439.25629672035575 493.04914443404414,440.10638086951803 493.94398754136637,441.0783250743989 494.3582333154045,441.50336575019173 494.82426709332503,441.9815659567248 495.46832577418536,441.9815659567248 496.45864755194634,441.82886074122507 498.10759156616405,441.3572754941415 499.3600573441945,440.8303778677946 500.9895444479771,440.58027862978633 501.93128220457584,440.59127726056613 502.87954443413764,440.75729279464576 504.1676617958583,441.306347129168 505.0560386844445,441.88863575295545 506.1773742081132,442.55277548986487 507.269699129276,443.5069417897612 508.4136955451686,443.61318154085893 509.4768351006787,443.3276970263105 510.2648982186802,443.1151376774069 511.4963342223782,443.03097466996405 514.9219737602398,442.44876710663084 516.2424222151749,441.90856075519696 517.6987777706236,441.51444406050723 519.2603404514957,440.9344662958756 520.5192141938023,440.29240133671556 521.7328826596495,439.21429458714556 522.841344000306,438.3198156595463 524.7071102296468,435.7029991168529 525.4045297778212,434.52302411338314 526.6780253299512,432.82044388272334 527.0696102117654,432.5920193636557 527.3155595378485,432.4485565966461 529.2250164337456,432.1164401292335 531.4096080213785,431.86625673330855 534.2608026741073,431.12016907602083 535.4453440285288,430.4139312222833 536.0811888643075,429.4995903939707 536.6281377563719,427.96524421614595 537.2948573299218,423.94026253267657 538.2657804517075,420.1212017595535 538.934072888922,417.96250583033543 540.1169831256848,414.47552704811096 540.8435297850519,411.77656656166073 541.0522546630818,410.7559440213954 541.1154022403061,410.4482025937177 541.1169751042034,407.54565180127975 540.9956315590534,405.0547655147966 541.0554586453363,403.4341004547896 540.9304450843483,401.0185160358669 540.812771555502,398.74463882588316 540.7820133261848,392.80642813665327 540.4794408960734,384.7115344750928 540.3888555804733,383.46727025916334 540.0247084372677,382.4288133699447 539.3256577707361,381.350499338354 537.8693022152875,379.35774834500626 536.8384937532246,378.23518827953376 536.3838195484132,376.86679818329867 536.3239924623631,374.5441849656636 536.2770395590924,369.2499119832646 536.0197889136616,366.51092543965206 535.6540106525645,364.3321443895111 534.8660057883244,362.62724722665735 533.8951409207657,361.17463635548484 533.3497648925986,359.60037850087974 533.1976631185971,357.23766693810467 533.471108437283,354.6182641888736 533.8659555555787,351.58911387238186 535.0164764444344,346.3566110684769 535.2737853440922,345.40225518960506 535.2899800178129,344.4058074548375 533.9242097779643,341.9987799288938 533.8465568996035,341.8548919998575 533.543926215265,341.2924930676818 533.2720537604764,340.3579767285846 533.3626973298378,339.1534580240259 533.8319350900128,337.2445568504045 534.3481840074528,335.1055040976498 534.372650780715,334.59180479694624 534.3935057919007,334.15112625807524 534.3481840074528,332.8224716819823 534.6054346526507,332.15818289876916 535.3207382473629,331.30783135374077 536.3368666453753,330.4553259391105 537.4744550969917,329.6869218517095 538.171932899626,329.14890275057405 538.3078400003724,328.3427897519432 538.400114688091,327.79799309012014 538.4291835450567,326.9875730522908 538.202691129176,325.5349360163091 537.6411204265896,323.7722665448673 536.9130009033252,321.98958111112006 536.1233066669665,320.0165978691075 535.8206759823952,318.2737588235177 535.3951288890094,315.7825771769276 535.2284635591786,313.87143229309004 535.1669471005443,311.8562437745277 534.7443127182778,311.2777863541851 534.5909293512814,311.0678801225731 532.3610742331948,309.32293641532306 531.4371040142141,308.57666175987106 530.7234897918534,307.894562061294 529.7380031149369,306.9378988890676 529.5551431113854,306.1295967713231 529.6764866560698,304.052352257655 529.9644955308177,302.0592862070771 530.5260662331712,300.89668716629967 531.071325753117,300.04636097163893 531.6312653371133,299.4661356670549 534.3935057919007,297.9491597432643 539.8078862223774,294.8133862550603 545.0879906702321,291.65981409081724 549.9554804624058,288.9580230336869 550.5476928853896,288.6280413917266 550.7402813441586,288.5122806855943 556.0996697882656,285.2862770915963 559.4135194739792,283.3825869488064 560.6499653407373,282.670873766765 567.4446213119663,278.80845435115043 571.7182675627992,276.28605779772624 572.7247840142809,275.6925695942482 575.6148342331871,274.1366926796036 577.427181340754,273.1611477547558 581.5065497600008,270.7316848190967 583.0260528926738,269.5578493430512 583.6117990971543,269.10395703231916 584.2218373119831,268.63443756254856 584.7733300339896,268.1560677966336 585.6798822404817,267.3697863414418 587.0601577814668,265.70880048093386 588.2463302542455,264.45091865130235 590.2285466738977,262.3513323008083 591.4728568608407,261.0357974113431 592.0619235555641,260.411275881459 592.5748519825283,259.8642508146586 592.8985124409664,259.5209346677875 594.7189568853937,257.4656570686493 596.1753124410752,255.93085068103392 596.9812013513874,254.99625089287292 597.6624262260739,254.20787527540233 598.748226673808,253.06278294022195 599.3922853549011,252.3850707137026 600.5864386558533,251.12707486958243 601.0767644445878,250.60882237600163 601.5444293406326,250.11711984826252 602.7822733086068,248.8525801859796 602.8923737884033,248.74183314538095 604.0477297776379,247.56355962378439 605.495987996459,245.97330844402313 606.186941326363,245.21585432079155 606.5687977529597,244.78841048118193 607.0380937673617,244.26130099024158 607.256605355069,244.01763923326507 610.6757786737289,240.18608997447882 611.3570035484154,239.4241618346423 613.4056297813077,237.28691357793286 613.9881720037665,236.64019580220338 616.7892097705044,233.52834789443295 617.7746964481194,232.26145302783698 620.0514462154824,229.83178682182916 622.1890848996118,227.568196475273 624.160000000149,225.36088878149167 625.6260840105824,223.71873724577017 627.5112488963641,221.61020499025472 629.6601306451485,219.45286503992975 630.5921982009895,218.51596288755536 633.4887728923932,214.98314786073752 634.443501340691,213.94656568195205 635.2267293583136,213.09385558671784 635.7072684373707,212.57340985862538 636.2930728958454,211.9355102488771 636.6329280284699,211.547906091786 637.2704622366,210.81918392842636 639.1151404373813,208.71498161996715 640.2074071040843,207.52991360181477 642.1346315378323,205.4346278528683 642.6233262082096,204.95842891803477 643.1783724376,204.41564768436365 643.4971395414323,204.10562340379693 644.8354137884453,202.7987827822799 645.7928801849484,201.71122143638786 646.4810955664143,200.92937823780812 647.9002266738098,199.31457503244746 648.4908662328962,198.64348641666584 648.7222520038486,198.38209970318712 650.4730826523155,196.4040723486105 651.2660391256213,195.50930857483763 654.937627989566,191.60417699627578 657.0315760073718,189.34272210928611 657.8601258099079,188.41014801466372 658.6480724196881,187.52406142908148 660.7614773476962,185.14959344279487 661.1400715378113,184.8594126808457 663.0365959967021,186.186236693291 663.6223422011826,186.63151416531764 664.734124032082,187.4708738552872 666.0399506774265,188.46110272896476 666.8570826523937,189.0812506803777 667.5529293371364,189.6062666673679 668.1144417850301,190.0337587641552 668.6047093193047,190.40367747668643 669.4527160320431,191.04599093750585 670.0238986811601,191.47794726188295 670.7585426773876,192.03613282740116 672.412321792217,193.2876622893382 672.7051657671109,193.51954774023034 673.3832449140027,194.05620106123388 673.9010084411129,194.42165126954205 674.8055800038856,195.05518802185543 676.7813884590287,196.44394236558583 678.5953666847199,197.9191307029687 679.4060324411839,198.5792959765531 681.2669635701459,199.7598405444296 681.5210102330893,199.91931949777063 682.3802017562557,200.46649138978682 684.3444176213816,201.71122143638786 685.3673617634922,202.36021811992396 687.8237675521523,203.97931715927552 689.6571444340516,205.29500560776796 690.2268124730326,205.70262909226585 691.9031942258589,206.9075563835213 694.9226853265427,209.1335263530491 695.7560119752306,209.74934223294258 697.2738839895464,210.60205816302914 700.8419551006518,213.1847561163595 701.7497888996731,213.84027601603884 704.0880551252048,215.43278463114984 704.4958346812055,215.7097109205788 705.7628057599068,216.70642099936958 707.2111222327221,217.84713325626217 707.516956899548,217.1560561847873 708.4247906990349,215.10721862653736 710.819621774368,209.83354540588334 711.2937528889161,208.68165112275165 711.4911764482968,208.2054553515045 713.2161422222853,204.0192662968766 713.6028920034878,203.1952448983211 713.7565666418523,202.86967074254062 714.3004863150418,201.71122143638786 714.7954724412411,200.65690897824243 716.3456755485386,196.94016432319768 716.5285355523229,196.50382712471765 717.099718201207,195.13269554567523 718.9493480105884,190.97948701283894 719.5350942153018,189.57524736097548 719.7422462294344,189.0768649126403 720.1370350935031,188.1288204821758 721.2503897885326,185.45907155424356 721.4073266633786,185.0830887161428 722.572411107365,182.22568943875376 723.1354964198545,180.8457461227663 725.9349613229278,174.38208920741454 726.8217653476167,172.33530517667532 728.2781209032983,168.8664304454578 728.7586599823553,167.7057474378962 729.0823204412591,166.9260029529687 729.4319040286355,166.08206251624506 731.1745790867135,161.80675573647022 731.6584386562463,160.59517809504177 732.0613831109367,159.59388780978043 732.4173746632878,158.70782872720156 732.61642934056,158.2093350570649 732.9594884552062,157.35652771766763 733.4821453369223,156.05394815898035 734.922306218883,152.6492340969853 735.5420728889294,151.1960789002478 736.7119924339931,147.7270541295875 737.0453230934218,146.31599135394208 737.3188849212602,144.79854007437825 737.5000555522274,143.36753167095594 737.5744461941067,141.99625101848505 737.5906991218217,139.73225385393016 737.7706464142539,135.2574213234475 737.7735591253731,135.18652355624363 737.8447457849979,133.60475899570156 737.9094662258867,132.1537801864324 737.833386211656,131.46704797504935 737.9094662258867,130.36608925752807 738.5016786491033,128.9548966041766 739.6392671007197,127.56810376478825 740.6846391181462,126.29654788644984 742.0342146847397,125.18225899385288 743.247824896127,124.17866310186218 746.6314048853237,122.81179472059011 748.1315093617886,122.20480153185781 749.1638906884473,121.81050677434541 750.680073329946,120.95986898324918 751.4843311216682,120.35725987888873 752.5927342080977,119.27613453590311 753.6397373438813,118.05097322678193 754.5329493335448,116.68193437461741 753.5798520036042,114.57070720719639 753.2497835806571,113.83737424015999 752.973017770797,113.22813680372201 752.2270142009947,111.57332637649961 752.924492003629,104.42860267916694 753.2271226884332,100.68456751690246 753.6543008997105,95.41619952057954 753.896987989312,93.58849579072557 754.9585546811577,92.008909538039 755.9294778029434,90.8878428520402 759.1140031146351,87.65096370643005 763.5429551217239,82.91205229319166 766.7242764516268,82.28052363474853 769.2534417635761,81.77987827232573 769.7955555554945,81.67228371824604 771.9169413121417,81.25035970204044 773.4332404623274,80.46385726891458 778.2262231039349,78.0954093283508 779.1663879964035,77.2225223025307 783.6260399785824,70.36762503080536 783.8861450811382,68.79458386590704 784.0516453264281,67.79310547129717 783.8088999821339,62.35161857516505 783.0790910862852,54.29336563264951 783.4723653406836,53.5467014858732 785.3542679892853,51.01205494522583 786.7216110932641,49.32145905168727 788.1521600286942,47.50243674439844 788.8592497780919,46.600540559506044 789.6149235488847,47.35830256692134 791.6489862257149,49.32145905168727 796.2996538027655,54.127139037358575 796.943595974939,54.68117429304402 797.6508022327907,55.29040496435482 799.0974293332547,56.533351227641106 798.6119968998246,64.05325625359546 798.409738240065,66.21782270283438 798.1673424215987,68.79458386590704 798.097437354736,69.53675811225548 797.6443360142875,76.36510708509013 797.7964377887547,79.29403125983663 798.0698831074405,80.37524506065529 798.9469004233833,84.0331372768851 799.922716899775,85.07206874596886 800.5861159821507,85.7766522114398 800.8871155483648,86.99742799554951 801.2593600286637,88.5105923358351 801.4356955594849,89.22394417156465 802.7415222045965,94.66521159256808 804.076534215128,99.6078649777919 804.7740120179951,102.30846972612198 805.3370973300189,103.65537690871861 806.2465039929375,106.47790425631683 806.8969706383068,107.78938895219471 807.2028635591269,109.51080696703866 808.777358677471,114.71912824257743 809.2934910864569,116.42935641563963 810.2061599858571,119.4200879969867 811.3890702221543,123.36343930184375 812.055789795937,125.15115584642626 812.6916928854771,127.18705205561128 814.0574048710987,129.51315358048305 817.8812120179646,134.8276483109221 818.1809882456437,135.2574213234475 818.340721322922,135.48622405913193 820.1304657922592,138.05089681851678 822.4023804585449,141.3072996644769 827.8167608890217,148.53338527912274 828.3782733369153,149.28213724400848 830.3913062401116,152.0091030978365 831.6857733121142,153.76569328212645 833.1113706384785,156.33975996193476 835.4480640001129,160.07682960515376 836.0112075663637,163.45932270109188 836.4497453512158,166.0976127879694 836.0855982080102,168.2151564375963 835.1438604518771,170.9154618405737 834.4463826492429,172.36855840845965 832.5661111182999,175.40105224668514 832.2036533476785,175.86404257640243 829.4122857816983,179.4302336202236 828.9947777709458,180.36059205420315 828.2601337744854,182.0042448823806 833.3865053297486,184.8682640339248 836.9351777853444,187.1120369990822 841.2168048641179,189.5242927626241 845.2784640002064,191.92760565539356 848.888594659511,193.59107497043442 851.0731279929169,194.58783015224617 851.9226493157912,194.99315009824932 852.8029871219769,195.41401904670056 855.7027075416408,196.8294055206934 857.4762573367916,197.82392138428986 859.3791897601914,198.47077025740873 862.8615689105354,199.2282968184445 864.3615568783134,199.7753897444345 866.7467760073487,200.01676111214329 866.885945344111,200.0344632692868 869.966894649202,200.4243889984209 870.7322968747467,200.52175077283755 873.7664097852539,200.56385315593798 876.1629302329384,200.48188108881004 879.3183284339029,200.0234592256602 881.0142253511585,199.7664589220658 882.3718982543796,199.55825907364488 882.8702631255146,199.4829849585658 889.5791688819882,197.8792608063668 891.0291164729279,197.5315154308919 896.9758822401054,195.87029224971775 898.5567853227258,195.38969828595873 903.679952896433,193.83476186462212 907.6736293549184,192.917745759245 912.3565697707236,191.841246396536 915.4311111113057,191.27221584983636 916.2563986771274,191.1191133473767 917.3130720146,190.92422655108385 921.5493773086928,190.14013334794436 922.9782368713059,189.8742765856441 923.7937959823757,189.72364562028088 934.7682506525889,187.68577713530976 934.8572631042916,187.6702275504358 935.6566857958678,187.5219084090786 942.4514000215568,186.31685358693358 944.3106417779345,186.36565549415536 945.5388737991452,186.39659526315518 945.7281417674385,186.4010607964592 946.9693062258884,186.3368687487673 950.5228137813974,186.15083137562033 955.9533888853621,186.3988280298654 962.0506835626438,186.3988280298654 963.9762768785004,186.4575178946834 965.8323729068507,186.51397498650476 967.4813169208355,186.56500963994768 974.3083039859775,186.85518938943278 975.3018880004529,186.8662734712707 981.2535471217707,186.93931676493958 988.201994240284,187.10549819166772 995.4545866525732,187.27152007864788 1003.1587075414136,187.4354686307488 1009.7301333334763,187.75443452689797 1009.9858111150097,187.76775134843774 1010.2657226524316,187.75443452689797 1011.7156702440698,187.6835443743039 1012.5215008994564,187.47868852165993 1013.3531964302529,187.26721403631382 1015.0490933479741,187.15860606369097 1021.423037326429,187.18523973890115 1029.431361763738,187.47533937904518 1030.581882652361,187.49750751361717 1033.649957774207,187.55954638891853 1039.5741209031548,187.56177915039007 1045.1017475414556,187.7057922410313 1050.4109791007359,187.78983972850256 1051.3592413300648,187.85857684689108 1051.8075075699016,187.8918290225556 1053.5211137705483,187.62158525630366 1061.0666666666511,186.98476946400478 1062.8660813372117,186.83294148405548 1075.5784924728796,185.2957602746319 1081.476674218662,184.3787281482946 1085.4670884411316,183.75857423013076 1088.2584560073446,183.26010610896628 1095.7505897814408,182.44506059447303 1096.2684115630109,182.38740689773113 1102.4255915805697,181.76501766499132 1109.6118324340787,180.8608174690744 1111.9841191251762,180.56218144285958 1118.3839862328023,179.7736857656855 1124.5136120035313,179.14898066211026 1126.7887889067642,178.90082084352616 1128.3049715487286,178.90082084352616 1131.6125297779217,178.93845948728267 1135.5544182327576,180.10142835893203 1136.5593035665806,180.54224578710273 1137.958977763541,181.15801794745494 1139.483374250587,181.82697752548847 1140.889514666982,182.58676266646944 1141.2438751005102,182.77942000352778 1143.3070648889989,184.0686114167329 1143.944599097129,184.55599457968492 1144.491547989659,184.97456000023521 1144.5708902399056,185.03444616484921 1144.9916022326797,185.3555666579632 1146.3249248710927,186.3103147688089 1143.5498102328274,188.19971057004295 1140.499502649065,190.79568415367976 1137.4525155557785,193.1835211259313 1136.2049431325868,194.22676578979008 1135.93627465982,194.45043753890786 1134.4038973441347,195.59343446034472 1133.2194142434746,196.2180388069246 1131.2484408889432,197.17268596065696 1125.2709168924484,199.49845442804508 1119.5694596553221,201.71122143638786 1114.8951408641879,203.52528421429452 1109.6118324340787,205.45631674176548 1108.1927595804445,205.97501580079552 1096.2684115630109,210.5444875251269 1090.4979813264217,212.90998130501248 1087.865181753179,213.98866690846626 1087.2924262401648,214.21240935183596 1077.156191573711,218.18370107142255 1064.2625515521504,223.251406781259 1062.7446795378346,223.95571133552585 1061.0666666666511,224.63880525087006 1058.2559004446957,225.7830870829057 1057.7785070936661,226.0045118065318 1049.9126142298337,229.64576600200962 1047.6989537850022,230.72664723941125 1045.6940182188991,231.87609754689038 1040.7521377848461,234.71112033876125 1039.575693767285,235.37554154347163 1038.1371640036814,236.3987627850147 1036.8069870935287,237.346633866895 1033.9234613478184,239.46402834297623 1031.8926609065384,240.46738754736725 1030.2226871186867,241.2913461169228 1028.6773191110697,241.91589207341895 1027.9329466596246,242.26575865386985 1025.8568826881237,243.2447937274119 1025.4911626810208,243.87595496850554 1022.911723975325,248.3120801736368 1021.1560582260136,251.3331000158796 1020.7887653550133,251.9642508138204 1019.332409799099,255.03834858420305 1018.5734155378304,256.8655284122797 1017.9051231008489,258.81668135302607 1017.3306782152504,260.55965263792314 1015.6931520283688,263.1730215699645 1014.0409457776695,265.6999505915446 1013.9017764409073,265.9148194822483 1012.8677639965899,268.05417497607414 1012.8184226704761,268.1560677966336 1012.5215008994564,268.7693377517862 1012.416293774033,268.9865174110746 1011.2333835377358,271.063910920755 1010.725348466076,271.8456419535214 1009.5035826631356,273.7214724231744 1007.1685786738526,277.293646679027 1006.5730457601603,278.1397072058171 1004.7121728854254,280.7817633476807 1002.406237753341,283.93755827622954 998.7848057739902,288.8030377237592 997.4303951079492,290.62116219708696 996.5194155806676,291.61548726656474 993.7911373369861,295.6437905887142 991.9399346630089,298.50945600273553 990.9431466665119,300.6863778627012 990.6664973658044,301.2909172133077 990.0337400035933,303.2131129952613 989.6955742440186,304.2383447668981 989.1081386667211,306.59684801555704 988.2990457743872,309.8455113560194 987.3766484195367,314.8923367965035 987.0239773585927,316.81671127595473 986.3880160143599,323.0880356223788 986.2698181974702,323.96494796837214 985.6889653478283,328.30516260967124 985.3863346630242,330.5615902541904 984.9009022295941,332.6342579469783 984.1159265849274,334.59180479694624 983.7179919928312,335.5838083613198 982.3231528962497,339.4855579180876 980.1919804301579,345.24951981252525 979.8068617673125,346.2945923418738 977.4395266845822,352.31531451363117 976.6805324230809,355.1364064424997 975.7096675555222,360.28447861771565 975.102833322715,364.1440224957187 974.5866426595021,369.5843030787073 974.4410653584637,370.95048163062893 974.2840702296235,372.4074475846719 974.1917955412064,375.9767487219069 974.1351724374108,378.09131101320963 974.1351724374108,381.4015136574162 974.1351724374108,382.11890195228625 974.0737142332364,385.35813612816855 973.7695106845349,388.7613096071873 973.2548928854521,391.54440958611667 971.8891808998305,395.56965791177936 970.6399191042874,398.76679738308303 969.7614454329014,401.0185160358669 969.7337746773846,401.08945496811066 967.7644324409775,405.0747717235936 965.3711742295418,410.62969115132 965.0637084445916,411.34488453518134 963.9762768785004,413.62428248045035 963.6979382045101,414.2075605188729 960.9810777883977,420.30045502865687 960.4211964588612,421.5536320058163 960.282027122099,421.92560728034005 959.7253497743513,423.4200411954662 958.2091088786256,427.6553616550518 957.0505489069037,430.49586474872194 956.9048550971784,430.8522913689958 956.0358768643346,433.09270409098826 954.7494488749653,436.41361288237385 953.6652795451228,439.66802901786286 952.717075569788,442.5173887319397 950.958089329768,448.2845197778661 950.1700262117665,451.6474061823683 949.4726066628937,458.2047091485001 948.5633165084291,467.4362850653706 948.2153057851829,470.962733907043 947.3803480179049,479.4546696814941 947.1974880143534,481.6949394699186 946.8333991256077,484.0613532520365 946.378666666802,486.5097594211111 945.3170999751892,490.74230220506433 944.8139000039082,492.52206152142026 944.2847769032232,494.3948142984882 943.773421340622,496.09710050630383 942.1617017742246,501.451919876039 941.6697448678315,502.7026576178614 939.6147106704302,507.9245627115015 938.9350586596411,509.64664438774344 938.0062533405144,511.99300079757813 937.0822831219994,514.5387258024421 935.7310764372814,518.2574399559526 934.8814968606457,521.2058710625861 934.0028484265786,526.352275132318 933.2747289033141,531.1245815994916 932.9117468444165,533.8449563382892 932.5772511006799,536.3527971148724 932.3604288857896,537.58344483166 931.7277297778055,541.164847939508 930.8167502509896,545.2530897328397 930.1807889067568,548.1172132036882 929.9979289032053,548.9871085020714 929.6030817851424,550.7091253096005 929.467116430169,550.7356595085002 928.9509257674217,550.8353420266649 928.3441497886088,551.4350303517422 926.6935746560339,552.9534512906102 925.3424262260087,554.1155309664318 924.1450106878765,555.3792815123452 921.6869737815578,558.2435050595086 919.7144275626633,560.8995064185001 918.7483395414893,561.7537616131594 918.379415551899,562.079176594154 918.3033937921282,562.1456300674472 916.5896710827947,563.6595556729008 915.7434119966347,564.8857522987528 915.4311111113057,565.3374578511575 913.9828528927173,567.4332737306831 912.6769679931458,569.7572818517219 910.2497475696728,574.2812056560069 908.824150243774,577.1031688885996 907.5489653190598,579.4271310743643 906.3984444304369,581.2928582838504 904.3951399824582,584.7788074078271 902.5455684268381,587.3527574663749 900.8448946631979,588.8466063756496 898.3868577566464,590.9226416401798 897.1846071183681,592.432016369421 897.0600013369694,592.5891364017734 896.6117350968998,593.1490952151362 896.5373444550205,593.2443072714377 894.9579559823032,594.5767163921846 894.9418195628095,594.5899424643721 893.5064937816933,595.7983737332979 892.9061257673893,596.305185747915 892.7442955379374,596.4401549338363 892.351079537766,596.7720801751129 891.7443035594188,596.7301712395856 891.4724311041646,595.9820244298317 890.653668011073,593.9082415410085 890.2766466846224,593.66698483855 889.2878977707587,593.0385057905223 888.2555746985599,592.1243892223574 887.0726644622628,590.6726191308117 884.7667293297127,587.7268376122229 883.5531191183254,586.1486875443952 883.0142675628886,585.1571920620045 881.9753617637325,583.2449482344091 879.7908866845537,577.3532780108508 878.5772182187065,574.6973659802461 877.6533062544186,572.7873122707242 876.0901124551892,570.2331256747711 875.2421639966778,568.7412915907335 873.9961644371506,566.1672436099034 871.7518040181603,561.6873877671314 870.3552755485289,558.8055748909246 868.5041311290115,555.1137029326055 866.9570737495087,552.0415705995401 866.885945344111,551.9317687030416 865.28878933331,549.4674347474938 864.165822691517,547.9733062204905 863.8615608890541,546.8931259847013 863.37933243718,545.2330892566824 862.8615689105354,543.1613223699387 862.1932182186283,541.4592796239303 861.3436968962196,539.9230534671806 860.1915448892396,538.473279930884 858.6429728998337,536.6870739796432 857.9455533511937,535.6910159013933 856.9482410671189,533.8449563382892 856.9148031433579,533.7830410676543 854.4260080072563,530.8346857691649 852.8482506526634,529.1766663762974 850.6944755485747,526.9786883321358 848.8319715557154,525.2123620169004 848.480815103976,524.880308532156 847.3739848819096,523.6562428516336 845.7671586705837,521.0619561622152 845.0842444230802,520.0437132045627 843.8868288856465,518.6337245042669 841.883524437435,516.7234518792247 840.8672795309685,515.6454338993644 839.8349564585369,514.6271796665387 837.9239266985096,512.1413809257792 837.0743471218739,510.87512800935656 836.4658817709424,509.92332441394683 836.1486875310075,509.5691867027199 835.724771555746,509.17297291988507 835.2247755664866,509.0711303068092 833.4949164374266,508.8630621166667 832.2359844411258,508.8409882360138 830.7634924657177,508.8608308217954 827.7600795309991,509.17297291988507 826.1371168997139,509.4850351297064 823.7518977709115,510.087164816563 822.7534786562901,510.1292405531276 821.6628431074787,509.89901929104235 819.9314111147542,509.3810409780126 818.340721322922,508.5273318323307 817.3827306383755,508.0130177716492 815.1367391003296,506.76683590724133 813.0137222257908,505.93663062376436 811.1333924410865,506.0628588934196 805.1866266741417,505.98093802516814 802.3596657779999,506.12039474816993 800.0893239751458,506.2310835128883 795.4484431075398,506.2310835128883 791.6101306597702,506.26208273798693 790.4127151218709,506.27092827495653 788.288067128975,506.31300433934666 787.0128822044935,506.0230141149368 784.0403440073133,504.9848174188519 781.1761586633511,503.8226210210705 776.0627777995542,501.6666852016933 774.1532626489643,500.8740851317998 772.5124742256012,500.08833716309164 771.1338298029732,499.6101937650237 769.7955555554945,499.24361684336327 769.7680595631246,499.2361259210156 768.4783693370409,498.90405480202753 763.987959125312,496.891780284117 762.0461711362004,496.4977875832701 759.0298840180039,497.99199365766253 756.5120200251695,498.968205827754 754.7821608961094,499.36219653871376 753.2642888817936,499.5083491606638 747.6347173550166,499.7584182685241 741.8092951325234,500.09048880729824 740.0211817815434,500.0484918978764 738.8075715701561,496.97593402373604 737.8043173549231,493.2835953881731 737.713673785096,492.2055257478496 738.2282915841788,490.00738156738225 738.6166142295115,488.4113041863311 739.3512582259718,485.400674305507 739.7331146525685,484.23404825280886 740.2493053157814,483.29996441304684 741.2639191038907,481.0839288381394 742.598931114655,479.1492029087385 743.5552324268501,478.0068686536979 744.2381466741208,476.6388373892987 744.6475573477801,476.01674291328527 744.8741080178879,475.4389578141272 745.0731044411659,474.6265509631485 745.1944479856174,473.58605616819113 745.1944479856174,472.3020908284234 746.1783617993351,471.7819209304871 747.0133195661474,471.7420733590843 747.2000243486837,471.69361870817374 748.4518493299838,471.3679045061581 750.3645684623625,470.74588302127086 753.6106102329213,469.41759951610584 756.371161315823,468.25531860406045 757.8874604660086,467.46728674916085 757.9422776892316,467.4362850653706 758.9214146560989,466.8828767874511 759.725672448054,466.15668686444405 760.2240373194218,465.35087937896606 760.6496426668018,464.4366038639564 760.6173115733545,462.40434306755196 760.7078968889546,460.74625109147746 761.2532146633603,457.3834272493841 761.6788200107403,453.10851513862144 759.2515413335059,452.0303569418611 757.097707975423,451.61417194013484 755.0524022327736,451.21567964938004 753.3241742225364,450.9256567560369 751.2302844587248,450.7795693142107 749.6687800323125,450.80164581513964 747.9372897851281,450.90788398170844 745.3579675876535,451.2798369298689 742.5956688781735,451.9041147265816 741.4694399998989,451.691638803808 741.0357955701184,451.6097088280367 739.9709666417912,451.23775613086764 736.741177799413,450.099899508059 736.3026400143281,450.07774327660445 735.8462764376309,450.3279173565097 734.3899208817165,451.49016117397696 732.9804599753115,452.4863907331601 730.6907777707092,454.540848771343 729.3686981976498,455.97317820915487 728.0968920178711,457.1952614496695 726.6996062437538,458.10827534331474 725.4268679963425,458.93975727108773 724.1371777707245,460.16175340209156 722.5141568854451,461.21996945911087 721.2503897885326,461.8035095226951 720.3134871325456,462.2360236769309 719.5254240143113,462.5703511972679 717.4460395523347,463.27877412037924 716.6758022259455,463.42039482446853 715.8262226488441,463.5864823065931 714.9605066524819,463.69056589121465 712.2905408854131,463.5665581873618 708.9829826559871,463.0706864495296 707.7693724448327,462.69659065967426 707.2094911148306,461.992550213472 705.8437791289762,461.03618846449535 700.9390648889821,456.542139868252 698.2415448746178,454.2309033505153 696.8450746596791,453.4427692005411 692.1136084767058,453.23467734467704 685.3479631077498,453.1505160788074 684.5890271004755,452.9867363012163 684.5518026524223,452.0612799038645 684.3948657778092,448.0675791379763 683.817158655962,447.8815616284264 682.7459217635915,447.7399364245357 679.7523537920788,447.67577867931686 676.1842826809734,447.84171210962813 675.0272955736145,447.873591725016 672.7051657671109,447.936314861523 671.6970181975048,447.96349222853314 671.1501275592018,448.08750388852786 670.6501315699425,448.4196095104562 670.1953991111368,448.97965368512087 669.7104327112902,449.80764438875485 669.5707973407116,451.4104627216002 669.8005519930739,453.02881695027463 670.1775733192917,454.4833068490261 671.2100128994789,457.92576833767816 671.6231518434361,459.2583070032997 672.0595342223532,460.664322632947 671.9688906525262,462.03463008778635 671.151758677559,463.7790289511904 668.7026346668135,467.4362850653706 667.844142193906,468.7179520052159 666.8441502151545,470.3761763469083 665.7502524303272,471.49852493254 664.9606164481957,474.0309922879096 663.8683497812599,478.2614913171856 663.8392226702999,479.6739075212972 664.2323804160114,480.79400334937964 665.1742346810643,481.91409661225043 666.3263866882771,482.82833945716266 669.3604413440917,484.6126700741006 670.9996569030918,485.40290570724756 672.5465977741405,485.7747527308529 672.7051657671109,485.86177732551005 673.912368014222,486.5230681084795 675.0645200214349,487.64314825145993 676.5289729139768,489.4694591254229 676.7943208960351,489.8014569571242 677.4027862469666,490.91937790845986 678.0176595628727,492.7212908809306 678.6745924267452,494.5321226561209 679.524172003381,495.36218791408464 682.3462977993768,496.3163308867952 683.5906662400812,497.18846996629145 684.4094293336384,498.43252458260395 684.7714210702106,501.0716375919292 684.9547471078113,502.3749718106119 685.77514131926,504.5731401023222 686.6846062366385,506.193470055121 686.7946484626736,506.75129646610003 687.0793951004744,508.1857043163618 686.9272933264729,509.2637387365103 685.5114244555589,510.1004728623666 682.4546506525949,511.12750227889046 680.9675951215904,511.8536254373612 679.2684942223132,512.6858925785637 675.7942706632894,515.5724396923324 673.8831826488022,517.1484268240165 672.7051657671109,517.6856016385136 672.4268270935863,517.8124643774936 671.5466057956219,517.7703893017024 670.0902502401732,517.6884703942342 668.5432511148974,518.476580717368 667.4509844481945,519.638742298237 666.4800613264088,520.5108397954609 665.4476800002158,520.8428165591322 662.9605742366984,520.8007417441113 661.4427022223826,520.5086085537914 660.6417066666763,520.2783124897396 659.7743595521897,519.8444949729601 658.8957111183554,519.1804601780605 657.4862502119504,518.1002163605299 655.6658640212845,516.8960556607926 654.6042973301373,516.4622351442231 653.7110853407066,516.3183985361829 652.1479497957043,516.4843883691356 651.1155102155171,517.0444343016716 650.1607817669865,517.9962240406312 649.5847640177235,518.9103994473116 649.5297720320523,519.0498524840223 649.1445951147471,520.0105632963823 648.7626804339234,521.4250105026877 648.094387996709,522.4609410729026 642.558664021315,527.2110530803911 638.4561104213353,530.3929887406994 636.322200007271,532.0475775422528 635.3562867485452,532.8578968992224 634.1799009849783,533.8449563382892 628.4837448815815,538.6238035017159 624.977131975349,541.1736928451573 624.160000000149,541.9072616737103 623.7959111111704,542.2338851115201 621.2926106739324,544.1021446739323 614.4493706810754,549.766164286295 612.3556556801777,551.4417236533482 609.9896604446694,553.3364024269395 598.5929209173191,562.375826741918 598.220676437486,562.6700862997677 592.4551395555027,567.0724845631048 588.663780010771,570.2441213903949 585.4323017955758,572.7341665847925 584.055171982618,574.8567227023887 583.1716884481721,576.2200173373567 582.4888324553613,578.3979343852261 582.3982471397612,580.099928296986 582.1367439364549,582.7470465211663 581.8981928962748,585.1616539556999 581.2783679717686,586.6134404005716 579.6990960072726,591.1772055359324 578.8041946454905,592.9809801577358 578.152096881764,594.5191112650791 576.3462159929331,597.60866463813 575.6148342331871,598.8428232960869 575.5565800108016,598.9410618729889 575.0322920107283,600.2446134143975 574.8898604374845,600.5986854907824 575.163364010863,603.6705925947754 574.9497457779944,605.496390676708 574.1017973192502,609.6881474390393 573.3768817780074,613.1494349116692 572.9512764301617,615.7830691542476 572.4933399895672,617.5689863419393 571.9804115628358,618.9367032207083 571.3120608713944,620.014493614668 570.583941347897,620.7403755027335 569.6421453370713,621.3423682699213 569.0644382152241,621.703117418685 567.9721715485211,622.3825488389703 563.0917493191082,623.2942984320689 561.3765120003372,623.7081066258252 556.7194364587776,624.4163759030635 555.0818520179018,624.9939054019051 553.6416328819469,625.2019242059905 550.5752471329179,625.5338299355935 547.7110617882572,625.9699438428506 544.6915706880391,626.1558139739791 541.7496742117219,626.5297051130328 538.6541613512672,628.0035966555588 537.0457040213514,628.8734295921167 536.1653662151657,629.931201083702 535.8175302546006,630.6592989990022 535.6200484409928,631.6330157343764 535.663739107782,632.467309860629 535.7560137955006,633.0848236288875 536.0893444551621,634.8308433756465 536.0893444551621,635.9528943902114 535.908115569735,636.4065260423813 535.4695777851157,636.8403198792366 534.7413417531643,637.1943654731149 533.6782604516484,637.4841982866637 531.9645959967747,638.1680692035006 530.5389404161833,638.665994187817 528.885277809808,639.3719314459013 527.8398475379217,640.0757166566327 527.247635114938,640.5536431201035 527.0696102117654,640.9060130077414 526.8058350933716,641.4277557914611 526.7314444517251,642.983500401373 527.0696102117654,645.9617719621165 527.0777075483929,646.0330737150507 527.0696102117654,646.386714323773 527.0178804623429,648.6465347155463 526.6230333440471,650.9303241251037 526.2460120178293,652.6276044625556 525.1375506771728,655.9492538750637 525.0469071078114,656.5422808404546 524.86404710426,657.7327938465169 524.6698857815936,658.560431300546 523.4707808713429,659.4322811965831 522.090505329892,660.4679195879726 520.710229788674,661.0500270662596 517.4803244373761,662.8756110477261 516.0530959931202,664.1613069023006 512.9430195768364,665.6572315656813 510.9140832712874,666.6353398083011 509.28919825097546,667.4186694255332 508.0140133262612,668.1223346344195 503.5689248996787,670.3639711920405 502.29542934778146,671.1517559498316 499.17067286767997,673.0636562465224 496.9554395589512,674.5772386834724 494.25465730857104,676.9427993318532 491.64620800036937,679.7242602249607 489.64453467028216,681.899406433804 488.4470608783886,682.7491487120278 487.0975435662549,683.3931260334793 483.95665066689253,684.9708031618502 482.3951462402474,685.8824361402076 480.99704490671866,686.5684699038975 478.52444444433786,688.2492963562254 478.17818134767003,688.4846912586363 476.653784860624,689.6662843325175 475.43213556613773,690.4452754687518 474.33986889966764,691.3789638956077 473.45958934770897,691.9588041438255 472.47410267032683,692.2818224206567 471.09213775675744,692.6026896868134 470.6164337780792,692.7620080127381 469.6067133441102,693.1005592832807 468.7280649107415,693.6603234229842 466.5127150933258,695.1960669477703 466.06642949720845,695.4908042480238 463.8428075804841,696.9595492621884 462.97056711115874,697.7583637146745 462.34270310401917,698.6677424416412 461.5611062042881,699.3116988150869 459.96727068466134,700.2653644660022 458.4267377778888,700.9822852985235 457.3959875695873,701.43816674361 456.70503424014896,701.550962087349 456.1580853476189,701.345206154976 455.6450986666605,700.8672594043892 455.20982311828993,700.3848513440462 454.3311164304614,699.4710149569437 451.99774355930276,697.26049885666 451.44275558390655,696.9285621173913 449.79701555217616,696.7205738034099 448.51542266318575,696.8246078009252 447.97499824361876,696.9616203821497 446.5106618597638,697.3268543145387 445.27584711113013,697.6454878384247 444.01528399670497,697.89553535101 441.2239164302591,697.89553535101 437.00858265627176,698.0615432501072 435.8902763519436,698.0020385058597 432.3061853297986,697.8114958223887 429.979278677376,697.8114958223887 429.97764755925164,697.8114958223887 428.233224874828,698.1434319627006 426.6183595804032,698.8049934813753 425.1943351184018,699.5219164533773 424.3286191218067,700.0529963822337 422.6683737884741,701.5554229195695 421.7815697637852,702.5511433896609 421.082519096788,703.4539016452618 420.57442577090114,704.2726198163582 420.24115336546674,704.9563973988406 420.0598662258126,705.586963111069 419.98221334745176,706.3879938749596 419.9692809106782,707.1667990797432 419.9983497674111,708.3173606221098 420.1715395699721,709.0342696584994 420.5210649033543,709.7711713969475 420.7476155734621,710.4238753501559 421.0809462328907,712.4971644864418 421.0809462328907,713.5061652079457 420.7346831362229,714.077057802584 420.43042133329436,714.3579236514634 419.89803599659353,714.462033555028 418.9141804375686,714.4907095765229 416.9869560038205,714.6987699937308 415.4254515771754,715.176703235833 414.2571048962418,715.6324121475918 412.5434404411353,716.2542816735804 410.3880342186894,717.5619017594727 409.1452386418823,719.1594621029217 408.6889915736392,719.8431392305065 408.3863608890679,720.7149596044328 408.26501734391786,721.9584459858015 407.94625024008565,723.8878310021246 407.8248484409414,725.7552377756219 407.67274666693993,726.8969937214861 407.2034506527707,728.7422453976469 406.7180182186421,730.0896586560411 406.36849288549274,730.8575136888539 406.1354759966489,731.5168803583365 405.7163951219991,732.7049807063304 405.56877892278135,733.0169800312724 405.08142409985885,734.0480021706317 404.941264441004,734.3445480775554 404.48985247290693,735.2959151999094 403.70009998232126,736.4353389788885 403.12408223282546,737.017356099328 402.2292391255032,738.4909148947336 401.1660995699931,739.5086236953503 399.39418089273386,741.3206132528139 398.3294102186337,742.411435855669 397.1918800214771,743.511017625453 395.84230445488356,744.922668310348 394.8260595484171,746.2900292827981 393.855136427097,747.7834727088921 391.71755599649623,750.5600706139812 390.8065182149876,751.6796261164127 390.0783404374961,752.3434251028812 388.53139956644736,753.0071435403079 387.24980667745695,753.1310779043706 386.2362997191958,753.0720577513566 385.8468119893223,753.0491983924294 384.67846530885436,752.8035597733688 383.38877508277074,752.2858385455329 382.17522312537767,751.5579215727048 381.4340546561871,751.1110872236313 381.1444146633148,750.9362562041497 380.38547865627334,750.584523084457 379.67349555226974,750.3764779226622 377.04885156988166,750.3764779226622 376.17987333703786,750.4119220703142"/></g></g></svg>