<svg width="1200" height="800" version="1.1" xmlns:xlink="http://www.w3.org/1999/xlink" xmlns="http://www.w3.org/2000/svg"><g class="geojson-features"><g class="geojson-feature" stroke="#555555" stroke-opacity="0.0" stroke-width="0.0" fill="#111" fill-opacity="1.0" data-properties="{&amp;quot;N03_002&amp;quot;:&amp;quot;石狩振興局&amp;quot;,&amp;quot;fill-opacity&amp;quot;:1,&amp;quot;description&amp;quot;:&amp;quot;札幌市東区&amp;quot;,&amp;quot;N03_001&amp;quot;:&amp;quot;北海道&amp;quot;,&amp;quot;stroke-opacity&amp;quot;:0,&amp;quot;N03_007&amp;quot;:&amp;quot;01103&amp;quot;,&amp;quot;fill&amp;quot;:&amp;quot;#111&amp;quot;,&amp;quot;N03_004&amp;quot;:&amp;quot;東区&amp;quot;,&amp;quot;title&amp;quot;:&amp;quot;札幌市東区&amp;quot;,&amp;quot;stroke-width&amp;quot;:0,&amp;quot;N03_003&amp;quot;:&amp;quot;札幌市&amp;quot;}"><title>
      札幌市東区
    </title><desc>
      札幌市東区
    </desc><polygon points="452.06666666665114,791.9847694640048 444.52111377054825,792.6215852563037 442.80750756990165,792.8918290225556 442.35924133006483,792.8585768468911 441.41097910073586,792.7898397285026 436.10174754145555,792.7057922410313 430.57412090315484,792.5617791503901 424.649957774207,792.5595463889185 421.58188265236095,792.4975075136172 420.4313617637381,792.4753393790452 412.42303732642904,792.1852397389011 406.0490933479741,792.158606063691 404.35319643025286,792.2672140363138 403.52150089945644,792.4786885216599 402.71567024406977,792.6835443743039 401.2657226524316,792.754434526898 400.9858111150097,792.7677513484377 400.73013333347626,792.754434526898 394.1587075414136,792.4354686307488 386.4545866525732,792.2715200786479 379.20199424028397,792.1054981916677 372.2535471217707,791.9393167649396 366.3018880004529,791.8662734712707 365.30830398597755,791.8551893894328 358.4813169208355,791.5650096399477 356.83237290685065,791.5139749865048 354.97627687850036,791.4575178946834 353.0506835626438,791.3988280298654 346.9533888853621,791.3988280298654 341.5228137813974,791.1508313756203 337.96930622588843,791.3368687487673 336.7281417674385,791.4010607964592 336.35595554159954,789.190457252902 336.09223867719993,787.6199354584096 335.1925022152718,782.7534787593177 334.8478119825013,780.8928299386753 333.541985336924,773.5652352643665 333.2409857707098,771.8817445612513 331.5823715555016,764.3147765810136 331.3574520039838,763.284615528537 329.8460462081712,755.1194876409136 328.1551008997485,745.9661332101095 327.09970915550366,740.2574213234475 325.713258666452,732.7586295079673 324.8653684624005,728.728942373069 324.72946136211976,728.0843073811848 324.62262311857194,727.5814707615646 323.55301734409295,722.4994024015032 322.6662133191712,718.2924182079732 322.50927644455805,717.5459239593474 322.34587335120887,716.7704779247288 320.77621333347633,711.0680446283659 320.4607084658928,709.9182186532998 320.1354168893304,708.7418315061368 319.88783644442447,707.8401986268582 318.33920620102435,701.5284028650494 318.01076889643446,700.5824120708276 317.8781240321696,700.1969488098985 317.72433288558386,699.7515880238498 317.4897431328427,699.075889437343 315.3343369103968,692.2787339916686 315.1725066807121,691.7736273059854 315.078659129329,691.4723017679062 314.8812355697155,690.8520235997858 313.70636441605166,687.9474650907796 313.54785467730835,687.5531386572402 313.4281422509812,687.2584304856136 312.02835154510103,683.7933828376699 311.7419737887103,683.031203053426 311.61730975308456,682.6988457158441 311.4927622259129,682.3643346467288 310.5606364160776,679.8806984479306 310.42962267040275,679.5284787466517 310.28398711490445,679.1450726372423 309.72253292100504,677.645183771383 309.2013906489592,676.5019790247316 309.0639106843155,676.2028773623751 308.9037115734536,675.852808544063 308.66096622962505,675.3188115387456 308.29268303653225,673.794583865907 307.9538182260003,672.3920668767532 307.53794133337215,670.6683469261043 307.23210666677915,669.8508719499223 306.9619235841092,669.1307845565025 306.43111111130565,666.4988034623675 306.36959465243854,666.1928361360915 306.08158577792346,664.7682031617733 305.85014175320975,663.7822599537903 305.353466254659,661.6552288661478 304.0799124480691,656.2135381705593 303.5766542223282,654.3147588723805 303.0604635591153,651.8111187510658 303.0604635591153,650.5437397719361 302.73517198232,649.5222725163912 302.6478489032015,649.2497160402127 302.3177222260274,648.2172385046724 301.40021822601557,644.0140018525999 300.32898133341223,639.1217063200893 300.16068488569,638.321806994034 297.9777826704085,627.9875291736098 297.8208457957953,627.231883117347 296.6524991148617,621.648058869876 296.5408257707022,621.1096950704232 296.3984524514526,620.4294206288178 295.29319509351626,614.7856907704845 295.154025756754,614.0655222194036 294.882211555494,612.6806226676563 294.04888490680605,608.2754178340547 293.70477721630596,607.3226254280889 293.54725779942237,606.8861144216498 291.26077957684174,594.6166611411609 290.0018475805409,587.8667948261136 289.9338066491764,587.5055739933159 289.64737063855864,585.9677498921519 289.31893333327025,584.2481126650237 288.7671493405942,581.3584766702261 288.7218275554478,580.0688169250498 288.4353915450629,578.5640766249271 285.97578177414834,565.631351859658 284.73147158767097,559.2954602348618 284.3058662402909,558.0500997914933 284.03399378526956,555.9514089548029 283.39803244080395,552.7933832170675 282.4238470827695,548.0797620593803 281.7572440181393,544.8596151089296 281.30251155933365,543.0711406959454 280.98292889609,540.8417016753228 280.7669222401455,539.3346864045598 280.5904702008702,538.1090612608241 280.1357959967572,535.7177988727344 279.89310890669003,534.2861633397406 279.55488489288837,532.5397761282511 279.26524489955045,531.0372031587176 278.98201287142,529.581139879534 278.7830164479092,528.5505635921145 278.632487537805,526.5138186765835 278.4205586775206,524.7275908639422 278.4205586775206,523.4420900145778 277.8348124730401,514.0850067578722 277.8072582259774,513.6417103218846 277.34285556618124,506.2391748566879 276.68260221160017,495.28373032668605 276.5822884407826,493.60590310394764 276.2505888994783,491.42499038612004 276.0531653405633,490.34334726061206 275.9674151255749,489.48559521883726 275.7959146951325,487.7900344247464 274.41231866320595,477.9424201323418 274.07898800377734,476.13375240087043 274.0175297993701,475.1983365373453 273.9867715698201,474.7418389018858 273.9254298740998,474.3517289782176 272.9575942258816,468.1965047905687 272.48346311133355,465.34823410387617 272.3345653191209,464.4572434265865 272.2860395521857,464.23772720398847 272.0578577639535,463.22696184844244 271.89608578849584,462.5155069027096 271.56106575671583,461.0305129243061 270.8475097885821,455.85478287399746 270.1954120248556,449.7902148622088 270.3409893261269,447.2034143030178 270.43326401454397,445.591893748031 270.8846759824082,442.40219252184033 271.05943864933215,441.1675462467829 271.62100935122,438.05091234424617 271.9397764550522,434.4134843206266 272.09030536562204,433.14546138222795 271.98183600371704,432.5027504492318 271.89608578849584,431.9840484339511 271.20513245859183,427.86537527665496 270.91386134759523,426.12746545218397 270.52058709342964,423.7755555976182 269.6177049034741,418.3955351753393 269.20340087497607,415.93274176330306 269.14357378846034,415.5736282420112 268.8571377778426,413.8645634741988 268.14760135114193,407.85262366198003 268.05130712199025,407.0324742257362 267.6661302044522,403.77588399942033 267.0366933334153,398.0720304431161 267.039897315437,397.77283805410843 267.0674515629653,395.41185332718305 267.2017857993487,393.71604569919873 267.33116842689924,392.057741416269 269.58368443720974,381.3014914796222 269.8426244549919,379.5567119834013 269.569120882079,378.51696026406717 269.6905226809904,376.71023873914964 269.9316369071603,374.6329556364799 269.98179379221983,373.63094351184554 269.9995613298379,373.2939062352525 270.2050822258461,371.54694325034507 270.4785857992247,369.6027621930698 270.65334846591577,368.4809438541997 270.9397262223065,366.96453762054443 271.08862401451916,366.37481394573115 271.27474625455216,365.6431852756068 271.69056489272043,363.43280924658757 272.1986582186073,363.1823605208192 275.23434399301186,361.681421329733 277.62276710406877,360.5020403182134 283.30744712566957,358.3981107403524 283.99356535472907,358.14534487202764 285.7670568963513,357.4890469026286 297.1605924407486,353.3299984014593 297.98908398952335,352.62269324902445 306.43111111130565,349.36190906725824 310.8668206082657,347.6485420234967 312.4830840039067,347.4902705665445 322.2018106596079,343.89638527529314 324.10480133700185,343.5527826601174 327.99327067052945,342.85216779762413 328.92533822590485,342.68359865795355 330.5386889104266,342.39323179377243 330.91081688180566,342.32666608376894 332.4399902152363,342.04954830533825 333.5743164301384,341.84562080795877 335.3365649068728,341.5285153753357 338.24601378152147,343.6391422714805 339.4337591184303,344.49946514633484 341.1473653190769,342.8788259802386 342.60372087499127,342.0473134838976 343.7445715626236,341.70370956743136 345.4873631291557,341.3822142089484 346.00355379190296,341.5064065819606 346.68635153071955,341.58845653862227 348.9291973405052,341.8588701117551 350.46973024704494,342.59723887767177 352.2804462367203,343.3577152370708 353.4341711078305,344.1668773846468 354.631586645497,345.1867486173287 354.97627687850036,345.4108677887125 355.9989297497086,346.0757221330423 357.0151746561751,346.7009876854718 358.0362546630204,347.6343351068208 359.69813111494295,349.1552709514508 360.6528595627751,349.50772895955015 361.36641553090885,350.29708711756393 362.0040662472602,350.775969099137 362.7467493263539,351.02418940793723 363.3843417884782,351.06633097829763 364.7808120038826,350.7737343175104 365.47823155205697,350.52543406770565 366.1174551327713,349.92012685420923 366.55599291739054,349.5054941723356 366.8440017919056,348.8404050566023 367.29867599671707,347.4059868049808 367.5413630863186,346.28419728251174 367.6466284659691,344.9539295544382 367.79873024043627,344.08259304927196 368.2841626738664,343.3532456064131 368.83111156639643,343.0006235258188 369.40718756988645,342.8964650761336 370.49939598259516,343.0006235258188 371.00102308997884,342.149317109026 370.60827312385663,341.34454145189375 370.606234226143,341.3400718026096 371.3344120038673,339.49099033046514 372.3959204410203,339.2826719114091 373.51894533704035,338.8037786575733 374.23092844104394,338.4511532911565 374.9138426880818,337.84822558099404 374.1711013549939,336.66423749295063 373.5497035663575,335.9991308848839 373.6241524624638,335.56237731908914 375.50605511153117,333.66889603750315 377.0158297882881,333.62459792220034 378.9316946491599,333.56697045778856 380.4948884481564,333.46265036263503 381.4803751253057,333.6511767919874 381.8331044409424,333.80194999312516 382.1179093334358,333.9216745776357 382.87684534071013,334.7309321791399 383.65028664912097,335.64658330916427 384.2571791361552,336.60214069427457 384.87851867009886,337.24290265119635 385.57756933709607,337.76394015480764 386.4869760000147,338.3026961799478 387.3219920215197,339.28043707751203 388.47408577403985,340.3401463680202 389.3851235555485,340.73483301722445 389.8705559896771,340.6527829169063 390.26377198961563,340.3202723506838 390.7039408925921,339.61294835200533 391.4321186703164,337.61755804461427 392.2363182082772,336.03903890319634 392.93379601091146,334.64664621453267 393.7379955484066,333.6289878258249 395.043880448211,332.2566222442547 396.3626977847889,331.1768613854656 397.9242604661267,330.09494307939894 399.5925448818598,329.32550654374063 400.98907335149124,328.5982921223622 402.85320846247487,327.80897870101035 403.52150089945644,327.5420693132328 404.6736529066693,327.0817620208254 405.1299582296051,327.0618874634383 406.07006486761384,327.74696059396956 406.5345257811714,327.9088302317541 407.2529751043767,328.16153193602804 408.35403815843165,328.3498209604295 408.587987115141,328.3899690557737 410.0912955736276,328.66038993850816 412.0023253336549,328.90878112532664 413.6254044731613,328.92865560762584 416.5963698064443,329.09499461518135 417.3406840036623,329.1592474314384 420.5122768783476,329.3455406430876 424.12083467375487,329.7822997700423 427.09500398975797,329.88646101753693 428.29410889954306,329.90649509395007 429.55304089630954,329.88646101753693 430.54819777421653,329.8643516973825 437.34937821887434,330.0106563147856 452.06666666665114,331.1264969641343 465.5654515486676,332.15014681906905 465.5574124660343,333.14785416424274 466.528277333593,333.2055614946876 482.5708493371494,334.1455594705185 487.1648938099388,334.41390194173437 494.1051853373647,334.8373272251338 500.6118324340787,335.2341733586509 501.4856457670685,335.28741073794663 502.0747124622576,335.30959962890483 506.34824220486917,335.48256120085716 510.76752401073463,335.6598327810643 511.9779302403331,335.14326273847837 514.5620875379536,334.03692941588815 518.4910435557831,332.0881292632548 522.8876062151976,330.0284555096878 522.9183644447476,329.0307417900767 523.0397079896647,328.2834927877411 523.3892333230469,327.5340875707334 526.7858040034771,323.81370345689356 528.606190194143,321.6940511984285 526.1062102471478,317.61882705811877 524.5283946383279,315.33296390413307 522.2953355379868,311.3863566275686 522.8018559999764,310.90520104649477 523.1481773513369,310.5748253656784 523.8795591110829,310.06046374945436 524.4426444233395,309.6657523030881 525.3537404588424,309.0227990009589 530.2130746596958,305.60591303755064 531.229319566628,304.90308855008334 538.9997920142487,299.51736799103674 542.6860026882496,296.5860557319829 549.1570564552676,292.0781399906846 551.9354333297815,290.1426625268068 553.1669275877066,289.04069735563826 554.5762719856575,288.16694616584573 555.1685426633339,287.68800277111586 555.6394115416333,286.9608061517356 555.6976657635532,286.3576552029699 555.7462497851811,286.00515160372015 559.0327782400418,283.5305947151501 565.6187093334738,278.8740832377225 566.9294293334242,278.2332446707878 569.016911132494,277.21107827476226 572.4254239287693,274.8273986800341 578.243739136029,270.75848875392694 582.2745817888062,267.9401189193595 584.960742229363,265.75819807860535 590.784533333499,261.90866020449903 593.3509813474957,260.0703740217723 595.539883747464,258.5006247739075 596.4723590828944,257.8329369792482 597.7022222222295,256.93597953254357 608.7268337779678,248.89426249766257 619.5604879930615,241.0974959252635 620.4682635380886,240.2459319648333 622.0686817851383,239.21258939569816 624.3438004339114,237.74232372059487 624.4004817923997,237.70464296545833 625.1415337529033,237.2256500594085 625.2322355771903,237.16793138254434 633.8780942221638,248.60160459647886 634.7178870898206,248.17578943213448 634.7939671040513,248.13587423064746 635.6758777745999,247.69026070157997 637.0027924482711,247.0204825255787 640.3102924232371,244.73205351748038 642.1000368928071,245.60572278976906 642.9090715309139,246.0314603652805 645.6487093474716,247.477352768532 646.2473879894242,247.6999201895669 647.7717844764702,248.2667162483558 652.9304871254135,238.95305593288504 658.1166857674252,229.10928331082687 666.4567680002656,229.9098531679483 667.142827975098,229.97411903983448 669.2820977780502,230.178173106513 671.5751004728954,230.48648937861435 672.0734653440304,230.55299050663598 673.3485337602906,232.63304222165607 674.7208284728695,232.51999876392074 676.3810155522078,232.3824465549551 679.7177008928265,231.0097164956387 680.5672222152352,224.23278820188716 680.4718017992564,223.25481686275452 680.4620733440388,223.15278839261737 680.2937768963166,221.4452054630965 681.7899783395696,208.30111163237598 682.2954502259381,203.85912482009735 684.570627129171,185.1079351080116 686.1483262295369,183.69299591344316 693.9495569067076,179.84951748047024 694.7926120110787,179.43458064005245 697.7975395557005,177.9554321274627 711.8189813189674,170.88282706344035 722.856525311945,165.31150751037057 743.3377777778078,178.16549608076457 750.2829626593739,182.5242029054789 758.7379222188611,187.67840014467947 765.755983132869,191.4219374973327 766.6265342296101,190.0513277569553 767.5666991220787,188.01333006331697 772.3694102189038,177.6184194163652 787.7178249100689,143.60456788667943 791.8829435447697,146.14187543466687 793.1791582440492,146.93156250775792 794.454226659378,144.9331487021409 795.8754549191799,141.7658360938076 799.6016862438992,133.4615937094204 801.9755457991268,128.17594968678895 796.6355560107622,124.7202677623136 795.7859764338937,126.63891406496987 792.0140737991314,124.89106815319974 795.9591662366875,116.57320334541146 794.4720524516888,115.7014590781182 798.698687544791,100.99296527809929 801.4884239928797,91.62331002240535 803.3363644303754,87.65484947385266 803.7344737849198,86.79862562159542 803.8558173300698,84.59369455033448 804.1681182153989,83.3248424809426 805.0079693370499,79.93536458432209 807.5581644230988,81.84524292452261 814.8383693371434,87.29773036262486 821.4518546774052,92.45285354787484 823.2722991218325,93.45105095405597 830.9197969066445,78.85280938411597 831.463483562693,77.81465298228431 832.7927866599057,75.22148835798725 836.085024028318,68.79936963471118 837.347160007339,66.33489167597145 840.0770111146849,60.931044945144095 823.7301773084328,47.678245998336934 824.5457364195026,47.12143943563569 829.2271622261032,42.704580014105886 831.1609111325815,40.881041525746696 833.0994368854444,39.05294393922668 836.062304881867,36.26661933504511 840.4281675664242,32.59121497313026 840.4604986596387,32.563980778097175 845.7406031077262,28.446408610790968 861.5015742010437,15.74086461670231 862.6650857813656,14.7712609146256 864.5388910935726,13.207271705497988 865.12312268815,12.721349412575364 866.8659142542165,11.268212042283267 870.9858276126906,8.667984672938474 871.414578688331,8.397306564613245 875.1913164232392,6.482667988399044 876.5570866630878,6.047855811542831 878.1040275343694,6.0255720764398575 879.3484542297665,6.358390337321907 879.9487639893778,6.624596860841848 881.7012840106618,7.398935142671689 882.2498640213162,7.756112737348303 882.9456524518318,8.210970677668229 883.3296060303692,8.667984672938474 883.4489106775727,8.809992779279128 884.9780257563107,10.622549308696762 886.3049986846745,13.903887271299027 886.4328084483277,14.221125766052864 886.5347533372696,16.943282346939668 886.6189306881279,19.235095911542885 886.6754955379292,20.750346558284946 886.7095160037279,23.592347309342586 886.7240795593243,24.88571413466707 886.7289146597032,25.31827325152699 886.7337497598492,25.80418299837038 886.7370119963307,26.01271512324456 886.6269697707612,27.689913957030512 886.2984742119443,32.708138302201405 885.539596458897,39.89152166410349 885.4343893337063,40.881041525746696 885.1608857598621,41.83717616391368 883.9472755484749,48.24176042643376 881.8242586739361,58.47299602127168 880.9439791217446,63.83925565367099 880.4908777812961,69.24530624784529 880.0960306632333,71.98943658650387 879.1458460444119,75.22148835798725 878.5798480212688,77.14687767426949 875.8176075664815,82.76360457623377 874.1363324590493,86.20193525101058 873.5424889174756,87.41751542466227 872.66372397542,89.70676202105824 871.9064190865029,92.57487330853473 871.1475413336884,94.90625940170139 870.9954395592213,97.9829213534249 871.1734644626267,99.36257370526437 871.3595284481999,100.81105674616992 872.0861333620269,102.88950541208033 874.4534684447572,106.46512231510133 876.3046711185016,108.66779852670152 878.6413062259089,111.95286911656149 880.7950813299976,115.7791551357368 881.7044879931491,119.2326645324938 882.3727804303635,123.05673750059213 883.3744035270065,126.01121060922742 884.7725631147623,131.70714472862892 887.8384828304406,141.7658360938076 888.6253808641341,144.3475483484799 888.9733333333861,145.50517433020286 891.0170662119053,152.30563255981542 892.8650066489354,158.44487924862187 894.0268871113658,162.31064315524418 895.6806662259623,169.36357130401302 898.1257706955075,179.77414702787064 902.4931479895022,196.0726566411322 905.8032694046851,208.30111163237598 907.1972346883267,213.45056586235296 909.0758751006797,221.39642641553655 913.5112933265045,240.14175159018487 914.7847888781689,245.37948219419923 916.2978257921059,253.01660101639573 917.0922968746163,257.0191613086499 918.1231053373776,263.6715021379059 919.3014134897385,274.8273986800341 919.5195755523164,276.8917755649891 920.1279826490209,286.03612339741085 920.1894991076551,290.28003881440964 920.2154222363606,292.038388025132 920.3707862470765,302.57941029046196 920.2493844483979,309.8142979426775 920.1085839928128,311.951641991036 919.0972906954121,327.272525803186 917.801949809771,341.34454145189375 917.4596479998436,345.0625571802957 916.2476689068135,354.3720385192428 914.6699698064476,363.2666415593121 914.6084533475805,363.57702870620415 912.9708106524777,371.74431390792597 910.6358066631947,381.59630448848475 908.4723031041212,388.75468321645167 902.6962222079746,407.85262366198003 901.6242280106526,411.3971983997617 900.3604026597459,416.1278599987272 899.3798093372025,419.79207820422016 895.6435000321362,432.3032497393433 894.465424895985,436.2488798472332 890.6433071217034,448.21868149214424 888.9733333333861,454.1332511823857 885.9732991431374,464.75862922449596 885.0832328817341,467.4540170021355 882.8019392855931,474.3517289782176 880.4503910972271,481.4620697754435 877.2400009103585,490.5007745185867 877.1736493511125,490.68908075103536 873.654045753181,499.49925776035525 873.490642659599,499.8250374530908 873.3062097921502,500.1974138281075 871.6346048852429,503.5530172260478 868.3561737670098,510.13553729548585 867.4047075556591,512.0482015246525 856.3024431220256,532.493262097938 858.4319262155332,534.1642539231107 863.9903693371452,538.5169118649792 866.1684364518151,540.225540505955 866.954693689011,540.8417016753228 875.1736071396153,547.281947539188 888.9733333333861,558.2377417474054 902.1743808852043,568.7182123993989 910.9286506380886,576.0311690887902 913.0226569103543,577.7796345703537 927.374225351261,589.7658323779469 928.9324675414246,591.068868619157 930.9794626561925,593.1009568321751 931.2513351114467,593.3689975152956 930.7027551005594,594.1623492115177 930.519953351235,594.4747435529716 928.8985053298529,597.2380207574461 927.4583444483578,598.7537122315262 926.4874795805663,599.5425878964597 923.9679262151476,601.0384088093415 922.1766671361402,602.0554303961108 921.1312368642539,603.1146494671702 920.2510155665223,604.280282380525 919.2040124305058,605.1931946913246 917.6894026524387,606.0440427456051 917.4305791431107,606.1903444274794 917.0130128781311,606.3387999060797 915.7768000285141,606.7730777908582 913.6520937813912,607.2296116020298 912.3950841745827,607.3226254280889 910.5581537850667,607.4600720694289 907.342811989598,607.5419975882396 905.0514986668713,607.6882190500619 903.5045577958226,607.9585651067318 901.332956899656,608.5480769401183 900.9106137885246,608.6632669905666 900.6533631430939,608.6875972953858 898.2098315379117,608.9135898733512 896.4946524729021,608.7186284039635 894.9330897920299,608.5391425304115 891.7145440143067,607.8456084958743 891.080213788664,607.708241734188 890.4831080106087,607.6483332217904 888.9733333333861,607.4992399676703 888.5769133511931,607.4600720694289 887.8306185104884,607.3226254280889 887.3131462540478,607.2273779938696 885.4068933408707,606.877179981675 882.4941822295077,606.2966803552117 880.8549666702747,605.2596448131371 877.5328448852524,602.2704174320679 877.2771671041846,602.0576640281361 875.4697133512236,600.5442164432025 874.150837759953,599.473903353326 873.7560488958843,599.1525776275666 873.7479515592568,599.1504237550544 873.4146208995953,599.0529410816962 872.2689351113513,598.7160593214212 871.365994666703,598.6207304360578 870.4938124518376,598.5277149536414 867.6587542190682,598.9154920751462 867.2801017742604,598.966467074235 866.8934102470521,598.9377487653401 865.8270084552933,598.8535083841998 865.6716444445774,598.8424199237488 865.2331066594925,598.6628506487468 864.3511959894095,598.3038714473369 862.6974168748129,597.2846083970508 860.7410653301049,595.4786161519587 860.1698244267609,594.547975905356 857.9497560176533,590.9270297746407 856.7895066738129,589.4357250573812 856.1891386595089,588.6623093759408 854.5127569066826,586.9560838395264 852.8216950900387,585.236450090888 849.0465302190278,583.512422631029 847.7730346666649,582.8476521006087 846.844171093544,582.3756190020358 845.5577431039419,581.71970204846 844.3295693371911,581.0969710291829 843.4477169208694,580.6471139870118 841.8845231218729,580.1485930813942 840.4281675664242,579.7067127879709 839.8213333336171,579.5236263241386 837.6190324625932,579.6875664942199 836.440957326442,579.7740439143963 833.559004444629,580.5008844316471 828.3096582260914,582.579525868874 824.0117782189045,583.8315249289153 822.6072106666397,584.2414912999375 821.1055915807374,584.6757888274733 819.961478655925,586.453022189904 818.9371946665924,588.0419006772572 816.3562413514592,593.1740298426012 813.8383191043977,597.4108895965619 812.5518911150284,599.3210582726169 811.5664044374134,600.5065636710497 810.4580013514496,601.58564949024 808.0905497600324,603.3539666077122 806.329990656348,604.7654567171121 804.7069697706029,605.7006245031953 803.1858937740326,606.6135341601912 802.006304028444,607.3226254280889 801.250572003657,607.7769251199206 799.5515293586068,609.25046460249 798.2018955377862,610.5179506985005 797.4882813156582,611.5771514228545 797.078928896226,612.5542656442849 796.7455399825703,614.2582479792181 796.0464893155731,617.7770751401549 795.8798239862081,618.6190468242858 794.6824084480759,623.5204817894846 793.9866200180259,625.3506998565281 793.2422475663479,626.6802041227929 791.8829435447697,628.2753332545981 791.268070229562,628.9957201654324 790.3893635412678,630.0237713109236 787.1741382542532,632.4722441259073 785.3682573656552,633.8437664263183 783.1238386917394,635.0270343461307 779.6059244659264,636.5027251207503 777.4051382045727,637.1054438115098 775.9941626880318,637.6881403037114 774.4326000076253,637.7280236796942 772.3079520142637,637.4621610349277 770.6088511149865,637.0455389035633 768.6541306879371,637.1696561217541 762.435492465971,636.7131502854172 754.4999275519513,637.1696561217541 748.4350804765709,638.3550696865423 744.3685279861093,639.1438016459579 743.3377777778078,639.3016595580848 740.4622911149636,639.7420501591405 738.6645075627603,640.0169251637999 734.5705755876843,641.0140038308455 732.9021746632643,641.8027314977953 731.2629591042642,642.6336540800985 729.2612857744098,645.0022981510265 727.3178666664753,647.4948858045973 726.1237133655231,649.4957108297385 725.1478968893643,651.1286536458647 722.4504351292271,654.2971310194116 721.4940173085779,655.201096087927 716.6687035732903,658.9101031721802 715.040789333405,660.1618268864695 710.490493781399,664.0681286526378 707.6392991291359,666.5185046888655 706.750863985857,667.6706661207136 706.1165920146741,668.4949244915042 705.3058680037502,669.545066245948 704.2896230970509,670.8655169955455 702.9967871434055,672.542735552066 702.4206528856885,673.6638557976112 702.3469030400738,673.794583865907 701.9044622222427,674.57887178089 701.0549408996012,675.8240149938501 700.7216102401726,676.2405243015382 700.2976360109169,677.4457831500331 699.9238186667208,678.343165065744 699.6908017778769,678.8992522944463 699.355840000324,680.4367839269107 699.3073142331559,680.7801496447064 699.2927506770939,680.8799290447496 699.0225093404297,682.7608985307161 698.9011657957453,684.7947589281248 698.8719804303255,686.6647066363366 698.9933822294697,689.571426243172 698.598535111174,691.6074915175559 697.6891284480225,695.1810335495975 696.9609506702982,696.716440268443 695.807167544961,698.2539158414584 694.7926120110787,699.4817712900694 694.7764173368923,699.5012319168309 693.441405326128,700.3719346522121 692.0756350862794,701.3290119891753 689.5577710934449,702.4499864364043 687.3732960144989,703.1567054691259 685.9185133227147,703.2386947005289 684.0365524196532,703.3229170872364 681.30349732982,703.3206839180784 679.8196457817685,703.3206839180784 678.4069808926433,703.2099027639488 676.6334310970269,703.0724830537802 675.2726124657784,703.1123610929353 675.1674053405877,703.1168274332304 673.7822364442982,703.1567054691259 671.8404484551866,703.1567054691259 670.6866653298493,703.4469377156347 669.1397244585678,703.8635032356251 667.137992874952,704.9003295245348 664.8935742008034,706.353637255379 663.073188010836,707.6829211420845 660.8271382187959,708.9700907118386 658.5212030862458,710.1330784811871 656.7623333546799,710.7578782016644 655.3981359787285,711.395916407113 653.6052457815968,712.2333402880467 649.2103142400738,714.2892497070134 646.3574302149937,715.6162788949441 646.2473879894242,715.6539227978792 644.6583875699434,716.1988817724632 642.4737959823105,717.1958050031681 641.8362617744133,717.5702488431707 636.1629413261544,720.9730887964834 634.76810222934,721.9278927032137 628.5802222364582,727.3709252191475 625.3633075770922,730.4458381520817 622.9959142401349,732.8539322273573 621.2385008640122,735.0558585008839 620.3113266634755,737.4971858055796 619.2627506633289,740.2574213234475 617.6574973156676,744.484153770376 616.6866324481089,747.2244126080768 614.4422137744259,753.3694236773299 613.775552455103,755.1548955688486 613.3515782258473,757.8553007557057 612.8353875628673,759.3084510189947 611.6832355556544,763.0874827435473 610.1653635415714,765.6637595463544 608.8303515308071,767.0747808986343 606.9193217707798,768.4460052173818 606.4031311075669,768.9864395896439 604.9774755274411,770.1073386052158 603.6118217958137,771.3102128620958 601.8544666741509,772.7212179130875 601.5955849105958,772.8851730228635 600.7314417781308,773.4278353356058 599.4271879964508,774.424641834572 597.7022222222295,775.7056548174005 597.6374435273465,775.7537405855255 593.1454604517203,778.779625713476 591.781321329996,779.6988308025757 590.3556657494046,780.7399618490599 581.9218524729367,785.1412997056032 580.1321080035996,785.5156914924737 578.6142359892838,786.0561069906689 578.2080875523388,786.1801863684086 577.1288115771022,786.5124733390985 575.2160924444906,786.5944485876244 573.1545337743592,786.7605520894285 570.9716315595433,786.7605520894285 569.6965048890561,786.5944485876244 567.966645759996,786.0538741995115 566.1462595697958,785.2653793155914 564.3565733546857,784.6030362506863 563.0830195487943,784.3128521954641 561.7156764445826,783.8965147272684 559.9567484587897,783.6062505098525 557.3466097780038,783.8145390263526 554.8918933616951,783.8965147272684 553.0293311146088,784.1001780341612 552.9791742295492,784.1046436342876 549.7751920071896,785.0704084486933 549.1570564552676,785.2574050484691 548.1570644762833,785.5599486493738 540.7538266454358,789.3388571472606 540.3816404198296,789.5537618044764 538.7618817707989,790.4840307442937 537.3249248710927,791.3103147688089 535.9916022326797,790.3555666579632 535.5708902399056,790.0344461648492 535.491547989659,789.9745600002352 534.944599097129,789.5559945796849 534.3070648889989,789.0686114167329 532.2438751005102,787.7794200035278 531.889514666982,787.5867626664694 530.4833742505871,786.8269775254885 528.958977763541,786.1580179474549 527.5593035665806,785.5422457871027 526.5544182327576,785.101428358932 522.6125297779217,783.9384594872827 519.3049715487286,783.9008208435262 517.7887889067642,783.9008208435262 515.5136120035313,784.1489806621103 509.3839862328023,784.7736857656855 502.9841191251762,785.5621814428596 500.6118324340787,785.8608174690744 493.42559158056974,786.7650176649913 487.2684115630109,787.3874068977311 486.7505897814408,787.445060594473 479.25845600734465,788.2601061089663 476.46708844113164,788.7585742301308 472.4766742186621,789.3787281482946 466.5784924728796,790.2957602746319 453.86608133721165,791.8329414840555 452.06666666665114,791.9847694640048"/></g></g></svg>