<svg width="1200" height="800" version="1.1" xmlns:xlink="http://www.w3.org/1999/xlink" xmlns="http://www.w3.org/2000/svg"><g class="geojson-features"><g class="geojson-feature" stroke="#555555" stroke-opacity="0.0" stroke-width="0.0" fill="#111" fill-opacity="1.0" data-properties="{&amp;quot;N03_002&amp;quot;:&amp;quot;石狩振興局&amp;quot;,&amp;quot;fill-opacity&amp;quot;:1,&amp;quot;description&amp;quot;:&amp;quot;札幌市西区&amp;quot;,&amp;quot;N03_001&amp;quot;:&amp;quot;北海道&amp;quot;,&amp;quot;stroke-opacity&amp;quot;:0,&amp;quot;N03_007&amp;quot;:&amp;quot;01107&amp;quot;,&amp;quot;fill&amp;quot;:&amp;quot;#111&amp;quot;,&amp;quot;N03_004&amp;quot;:&amp;quot;西区&amp;quot;,&amp;quot;title&amp;quot;:&amp;quot;札幌市西区&amp;quot;,&amp;quot;stroke-width&amp;quot;:0,&amp;quot;N03_003&amp;quot;:&amp;quot;札幌市&amp;quot;}"><title>
      札幌市西区
    </title><desc>
      札幌市西区
    </desc><polygon points="388.93523097608704,330.3972919329535 390.9371664498467,331.75649298127973 391.6200224426575,332.1198811712675 395.4801802241709,334.85165612126 396.45107421884313,335.7134948699968 396.9972075520782,336.48121512454236 397.8095335538965,337.7374141717446 397.8621371164918,337.8371122321114 398.12023244798183,338.3289421086665 398.4916031147586,338.76537898078095 398.90908199816477,339.4089863554109 399.121069112909,340.09466422279365 399.34925090149045,340.9875499883201 399.6445415538037,341.7773464017082 400.08468132978305,343.28271801397204 400.86059844261035,345.90139409556286 400.9342317796545,346.14843756024493 401.99737133516464,349.80385408806615 402.3234202170279,350.2602090589935 404.6827162170084,351.2671458700788 408.9911111111287,353.12796023872215 409.9223922347883,353.5301166335121 412.1983264426235,354.5901953256689 412.6077371163992,354.6732580231619 413.71538289787713,354.6732580231619 414.5341751181986,354.5281475119991 417.9023759929696,354.1748016614001 423.9697279999964,353.5301166335121 427.61061688896734,353.19782424293226 429.5888428942999,353.26098894194 430.189968213439,353.27981074294075 430.9481177885318,353.1967475716374 433.26369399460964,353.20595909137046 436.27269933524076,353.217762596556 439.6401137779467,353.1967475716374 442.1887359999819,353.217762596556 443.4630762381712,353.32080398255493 445.9509975608671,353.9854278540006 451.76750688720495,355.68902918789536 452.4422946703853,355.8341390095302 454.0734128926415,356.2805535431835 454.8057849742472,356.5579721505055 455.41567755374126,356.7889347639866 457.5363060054369,356.731034626544 457.68435911112465,356.72688750881935 461.4587375501869,356.6549110778724 462.0226675483864,356.643825509469 463.9572320143925,356.5397487443406 465.6409246720141,356.4555302722729 465.92409844638314,356.4433281616657 466.1959709014045,356.4322824598057 467.81736066844314,356.36245925643016 468.5342080000555,356.3104208194418 470.61598088545725,356.15534222428687 473.85555643739644,356.0202415320673 478.5490699947113,355.7909131196211 479.58148044813424,355.780983924109 480.9391242241254,355.99918687186437 481.02627254044637,356.014818362135 481.80888888891786,356.1551428431994 484.47320399654564,356.6327798165148 488.90215600363445,357.41144012723817 489.7581726720091,357.54881298245164 491.882820664905,357.8888752651983 493.0503226595465,357.97193684149534 493.572979541379,358.03510030620964 493.90797044639476,358.07601299637463 494.6814408819191,357.74372678773943 495.19684511295054,357.61855609476333 496.08443556993734,357.2452766895876 498.77787778840866,356.0191249969648 501.29571265436243,354.80401292751776 503.34352332819253,353.79709069163073 503.9503575609997,353.59994064603234 504.8071897884365,353.1114113991498 506.0814717725152,352.506081991829 507.6381702257786,351.7667247177451 507.9545197795378,351.6160297051538 509.7733331058407,350.7166429318022 511.83730932627805,349.69530815421604 515.3641073210165,347.9196860266966 515.7816153316526,347.7247245069593 520.5139844552614,345.5103909748141 521.6741172906477,344.8557534464053 521.7113999930443,344.83469782432076 522.2049588907976,344.6795720673981 522.9687299983343,344.52783585264115 523.3578973298427,344.450312767236 524.4613196800929,344.2305043791421 525.7010277830996,343.9839375137817 529.2432048924966,343.3193263154244 530.3540837831097,343.07893967669224 532.3152995556593,342.65467343101045 532.6106193350861,342.65467343101045 535.8866037760163,343.0489910262404 539.5355608748505,343.4123624213971 540.0817233350826,343.4023529663682 540.9919455575291,343.59955111827 543.9871737741632,343.8066787936841 545.5648728748783,343.74466811993625 546.4063551147701,343.85983648413094 547.3772782365559,343.8077953844331 549.380524430424,343.7236124020419 550.775421781349,343.14202723494964 552.9372942222981,342.11519743799 553.8313217706745,341.66764042305294 554.6266666668234,340.9232655125088 554.7723022223217,340.7870397930965 554.8629166650353,340.70173916511703 555.9025797689101,339.75681039254414 556.910698211519,338.7077936048154 557.6615660090465,337.2953923610621 559.2166333440691,334.48165195359616 560.3922035485739,332.4666388227488 560.5742771201767,331.65679243957857 560.588578531635,330.3972919329535 560.5896271077218,330.3064442955656 560.7554768782575,327.0572431758628 560.831527765491,326.2363716759719 561.013601336861,325.4476416982943 562.5985822151415,320.6717768451199 563.5088044373551,318.39737453783164 563.7289180159569,317.35931350511964 564.4109584497055,315.3862355930032 564.5776237796526,314.75257556088036 565.4126106739277,312.4991765576415 566.0040366649628,310.30777594581014 566.330085546826,309.47687720443355 566.5801126685692,308.5418385398807 568.4458788977936,307.83609017229173 569.5454273422947,307.41954013647046 571.7145815609256,306.526571566239 573.8918039893033,305.7477091826149 573.9206398293609,305.73642188176746 576.6823559964541,304.65750507375924 578.0707288747653,304.1068971034256 578.8992495504208,302.95310913270805 579.8758233315311,301.5930298935273 581.6800731023541,299.0082601934555 582.9715400818968,297.16131271404447 583.3225508978358,296.6593885826878 584.1065653476398,295.5393090969301 584.9415231149178,294.4069394933176 591.0088459947146,285.7337475931854 597.2129206614336,281.6208899267949 602.7640820053639,282.36875627876725 603.1718615608988,282.52356261224486 606.5416935539106,283.80249611038016 609.4002282383153,284.88613202475244 609.6065355662722,284.9648307612515 611.7603106704773,285.83789441373665 613.6252322134096,287.2084720086423 616.7240364373429,289.8886966201244 617.5307117797201,290.9734223675332 618.0768451129552,291.5550519648823 618.9571246649139,292.77937335381284 619.9579904569546,294.07344986096723 620.0493913316168,294.19203198183095 621.8390775467269,296.560790523421 622.2958197760163,297.16131271404447 623.7663311075885,299.0946522899321 624.1304199964507,299.63534008024726 625.1919575608335,301.08780439494876 625.7534408818465,301.69054902350763 626.6175548871979,302.9790742082405 627.4444444444962,304.05680188705446 627.5577197796665,304.2043753452017 629.2414124372881,306.46897859103046 629.3174924516352,306.57195992639754 630.4251091058832,308.0255795214907 631.9267573191319,308.2537562509533 634.1566415644484,308.5650510256528 634.277985109482,308.69028673612047 634.0352688925341,309.001620838535 633.625858218642,309.333973344008 633.4002104888204,309.4968988939654 632.533591551939,310.1227553454228 630.895191552001,310.85067240166245 628.9841326649766,311.5363905398408 627.9371877830708,311.72252680693055 627.4444444444962,311.865987638419 626.9363219910301,312.0139552136534 625.8141126544215,311.93083812849363 624.7979260018328,311.9097796687274 624.2364135537064,311.7646437570802 622.8099715415156,311.3481004196219 621.899778446299,311.05778795923106 620.5502320071682,310.72543779894477 620.0801495608175,310.6224183305749 618.6092304498889,311.2860416236217 617.8656735575059,311.8056439628126 618.2143833315931,313.3223276755889 618.3203768889653,313.9449437946314 618.3357560035074,314.65175135585014 618.411806890741,316.00114907551324 618.5331795626553,317.01927457295824 618.7605166649446,318.7430349611095 619.0493702259846,319.3468128515524 619.3527873423882,319.9905112644192 619.762168888934,320.2807333461242 620.6473126685014,320.66954345215345 622.3763271110365,321.33983961463673 623.1449624462985,320.66954345215345 623.6749302329263,320.1965422569192 625.0098839892307,320.2175601202762 626.2389024427393,320.2175601202762 627.1726011163555,320.66954345215345 627.4444444444962,320.8048232208821 628.3708322134335,321.26561937091174 629.667017784901,320.66954345215345 630.7592553244904,320.23750116548035 631.927602005424,319.7810901144403 633.0951040000655,319.1374310319079 634.1873997938819,318.49269342963817 634.9608702294063,317.78697380784433 635.4463026631856,317.4125168325845 635.96167776722,316.9970998384524 636.4172257849714,316.5196246710839 637.3120688925264,315.7518416878884 639.662451996468,313.6967510369723 641.7717208747054,311.88983794365777 642.2345506703714,311.4212069376372 642.5298704499146,311.1209635535488 642.5954064498655,311.08774053148227 643.1366755554918,310.8096720355097 644.2062813298544,310.6944482073304 644.9441584355664,310.45514620945323 645.5186324480455,310.2690089766984 646.8527997726342,309.61427701369394 647.4224095573882,309.17886492877733 647.6271148943342,309.0226795490016 647.937813788536,308.67919899115805 648.2982617885573,308.1919758571312 648.4912288996857,307.9313733006711 648.8245304320008,307.36083061422687 648.9871762205148,306.85669391968986 649.1433557901764,306.3736550077447 649.2194066772936,305.4286333391792 649.1360448853811,303.20506198331714 649.174055765383,302.4372770387563 649.1813666702947,301.5764376777224 649.2048139947001,301.4312956267968 649.4775020090165,301.30605619505513 650.327023331658,301.07787297602044 650.8278348800959,300.9848207476898 651.2590908872662,300.9947521701688 651.7170273280935,301.0876049688086 651.7672133404994,301.09781558375107 652.3667366685113,301.2629004269256 653.148304440896,301.4711807825952 653.5423360000132,301.4811520705116 654.2252211200539,301.2916975299013 654.7713544535218,301.13989448035136 654.8693089280277,301.1219461367582 655.2260286578676,301.0568135807989 655.9089137780247,300.7753833044553 657.5093028979609,300.2358148273197 658.2147906559985,299.9965025843121 658.5489660018357,299.74725863389904 659.0416802135296,299.4048818279407 659.5336079929257,298.93846046278486 659.9057942187646,298.449861789064 660.4406262328848,297.91475537756924 660.4980357689783,297.8581974011031 660.7504804409109,297.6056008633459 661.1957465884043,297.16131271404447 661.3500328961527,297.00731337437173 661.4115202274406,296.9452509349794 661.4875711146742,296.869946360006 661.7448508872185,296.6128815742559 661.943060878315,296.4145685710828 661.9899846544722,296.36802163004177 662.2036028872244,296.1541927665239 663.0830668801209,295.39635719679063 663.5919757654192,294.72052543004975 664.5961037937086,293.3976144340122 664.8250428872416,293.0962320744875 664.9367162310518,292.9489311116631 665.1923940125853,292.6120491278125 665.4974131199997,292.2730128003168 665.5904451129027,292.16890860989224 665.7676253298996,291.9705919988919 665.9294555591187,291.79110176564427 665.9788260125788,291.7367760289926 666.4424131128471,291.22048149467446 667.0872290987754,290.29534469300415 667.3299744427204,289.9108738154755 665.3663119928678,288.29097596899373 664.4407397832256,287.4400586162228 664.1866931200493,287.2217944271397 663.3476575573441,286.4993912220234 663.1599624535302,286.33872392744524 662.9932679964695,285.6994042620063 662.8573317690752,285.1808632494067 662.6202953386819,284.2723368537263 664.0612717795884,282.43413314735517 665.328301112866,280.62694890616694 665.5782991074957,280.62694890616694 666.6697502151364,280.93612490943633 667.6641497885576,281.2186550319311 668.4675337672234,281.20868291676743 668.4529993387405,280.50177858478855 670.1116135538323,278.3976072164951 670.212742883712,278.26912497065496 670.1957617778098,277.9388842029148 670.1585373299895,277.1910042880336 670.1148757901974,276.3444360848516 670.0525728997309,275.1189553021686 670.0153193245642,274.3732606797712 671.0614777742885,272.9837830765755 671.508928455296,272.38982316758484 673.466066432069,269.7615033155889 673.6433049031766,269.5321736972546 675.4540208926192,267.1852525076829 675.989639338688,266.4740791571094 677.409556878265,264.5889890479157 677.9170385351172,263.9208508376614 679.3821322241565,261.99166080879513 681.3838055537781,259.30231392459245 684.8641749332892,255.26508655014914 688.3288448000094,251.02988141129026 688.5850177424727,250.47456479055109 688.9189018170582,250.11795670579886 689.7146544925636,248.75104066042695 693.5031013264088,244.1461400553817 693.7442155519966,243.84469691780396 695.3624013370136,241.82007931091357 697.2500128996326,239.53389168297872 699.1383817670867,237.22769493603846 700.2622222221689,235.85017423157115 700.4394024392823,235.6329411242623 701.0122453334043,234.9314504157519 702.8852933404269,232.62525010184618 703.6110535681946,231.73089094250463 704.4683518294478,230.6758644891088 704.7583122204524,230.31902800913667 706.7988119893707,227.89859846647596 708.2276715521002,226.1519340685336 708.7552217884222,225.50806810474023 710.2576855609659,223.6938395477482 710.7423024356831,223.10865699651185 712.6994986666832,220.71919689781498 714.6405002239626,218.34080526512116 715.0879217777401,217.78110523428768 716.5823173404206,215.91028221219312 717.4367028907873,214.8440954000689 718.5313871075632,213.4775404932443 720.2911597795319,211.23429909604602 720.999938901281,210.32434047432616 722.0654668802163,208.95887748035602 723.8940086613875,206.69340981950518 724.5348051058827,205.89607415808132 725.2888768854318,204.95772609248525 725.7128511148039,204.42903836787445 727.5033528889762,202.1635685803485 727.9904455679934,201.5527974885772 729.4904626631178,199.67079733411083 730.5066784427036,198.34960588556714 730.6838877866976,198.14231492311228 731.301295160898,197.42631183099002 731.6499175538775,197.02066625858424 731.7720766577404,196.8787739437539 732.2850342114689,196.28247418027604 732.6038304426474,196.5706486722338 733.5521800535498,197.42631183099002 734.1847917796113,197.99715129146352 735.9145926542114,199.65970463852864 740.3055337812984,204.04335496306885 741.6413322240114,205.3633584791678 742.6187215646496,206.3298748768284 743.554022229393,207.24316012940835 744.913297123625,208.5687323937891 745.604221326299,209.26590981369372 747.1132095716894,210.7909310987452 748.1002691129688,211.74302218295634 748.8074171165936,212.42466955824057 749.4409026560606,213.03533365757903 751.8075095609529,215.29743084521033 752.2905244445428,215.75842608587118 752.4037997795967,215.8670714533655 752.8690471253358,216.3270282431622 754.7315511184279,218.17231286864262 755.2089153422276,218.6079271187191 756.9087735468056,220.36458017869154 759.1839504496893,222.62988111109007 760.8676431076601,224.29118951346027 761.0990580053767,224.58711100619985 761.3223464391194,224.873057724908 763.424391793902,227.2103314382257 765.5708851200761,229.42350339289987 766.0182775468566,230.00535937573295 766.6794047147268,230.6758644891088 767.125107768923,231.12689643609338 767.4058931199834,231.45161498407833 767.4608851058874,231.5159282759414 767.6178511077305,231.69761722366093 768.4949266775511,232.69726308702957 769.112246670411,233.40211150003597 769.7109544391278,234.05485349544324 771.7822415644769,236.31117057107622 773.0800000000745,237.58775286370656 773.9667748977663,238.45998849958414 776.1852704426274,240.6631246310426 778.2751406650059,242.896122033766 779.944298894261,244.54843600810273 781.2485526757082,245.85609274933813 781.8254151112633,246.44896025839262 782.2922644480132,246.90550835063914 782.6215755663579,247.22801174898632 783.1143189049326,247.72668637812603 784.782632448012,249.41993845655816 785.2900849778671,249.81807678897167 785.6370179982623,250.09035037539434 785.9736108942889,250.35520346695557 787.3466046578251,251.69610011635814 790.2285866668681,254.55176417087205 792.6024462223286,256.8888336500386 796.2522188799921,260.48794233310036 796.3857375574298,260.6197848460288 796.5410724407993,260.77273005002644 796.8169644374866,261.04531055822736 796.8598395450972,261.08743624709314 797.3525828835554,261.57379594555823 797.4739846828161,261.6935905946302 797.7296333370032,261.9451073076343 797.909260231303,262.1223855455755 798.2466104320483,262.4548018408241 799.7502392890165,263.9208508376614 801.0072197689442,265.14642769662896 801.6820366792381,265.9187178683933 802.6828442169353,267.06669716583565 805.2468455538619,269.6640113280737 806.398997560842,270.80088355840417 807.7647095466964,272.14721266692504 809.5273075484438,273.86211509950226 811.595740217017,275.8746598706348 816.1387831182219,280.29898497706745 818.6873762134928,282.7609773398726 821.077372188447,285.150189519627 821.3873429050436,285.4600777775049 821.6251948942663,285.69685144739924 826.7725962242112,290.82049607287627 829.4417464321014,293.4984474115772 830.5696355554974,294.63744234706974 831.0550679892767,295.12824238667963 832.7954420053866,296.88542209012667 833.0770137886284,297.16131271404447 835.6205970204901,299.6531688767136 838.4987051235512,302.4727347965236 841.6088106667157,305.54609318246366 842.2981328782625,306.19860252336366 844.6121362204431,308.3911567480536 845.0487224890385,308.83219387434656 845.8977777777473,309.689816963044 847.3881246719975,311.19522676290944 849.9974186667241,313.8950898943003 851.23095182213,315.11527115054196 853.4409131235443,317.30060637171846 854.6796309049241,318.5469733342761 854.9716884481022,318.83943054050906 855.2661926685832,319.1351976249134 855.429624889046,319.300270279753 855.0760800143471,319.7512183721992 854.360805546632,320.66072952584364 853.6771339946426,321.5060274726129 852.7361826703418,322.7733507429366 852.5395455431426,323.14668281632476 852.9044499910669,327.1758092875825 853.0258226632141,329.8965527356486 852.9430725405691,330.3972919329535 852.8130199892912,331.1838125154027 850.5831939982018,334.61126115126535 850.1131115519674,335.0477046641754 847.7166202311637,336.2319286344573 846.9584706560709,336.6251798510202 845.8977777777473,336.836141859123 845.6267208817881,336.88993913616287 844.3621382258134,337.14026181737427 842.771477560862,337.45602614659583 840.5570015573176,339.825481853215 838.9647389014717,341.4439214260201 838.4792773405788,342.0044547690195 837.948493994656,342.7942478953628 837.8271504498553,343.70809976028977 837.6135613442166,346.34228375845123 837.4622460018145,348.21430133958347 837.1135071004974,351.7866631882498 837.4865088853985,352.614068401861 837.6248917903285,352.91868712008 837.7899260018021,353.2853536035982 838.2664746667724,354.3409671873087 837.8198686719406,355.02548661339097 837.2963671040488,355.63806726795156 836.7421655608341,356.17862993944436 836.340036664973,356.4799344916246 835.5819453442236,356.9052533871727 835.0657546808943,357.1024007659289 834.3157024426619,357.40589736029506 832.6239124480635,358.0893315509311 832.0171073423699,358.59112949692644 831.3423195590731,359.1482739432249 830.8196335503599,359.7840518823941 830.2508393245516,360.4774483020883 829.9547331129434,361.18304462876404 829.916693105828,361.7335239875247 829.9547331129434,362.0768900932162 829.922372892499,362.8023794978508 829.8867795626866,363.5932617781218 829.8853232071269,363.62871066172374 829.7953495609108,365.8661269269651 829.7872230970534,366.9981255092425 829.7500277761137,367.68376583547797 829.6594424606301,368.3992700371891 829.5226615467109,369.15799567697104 829.3559962169966,369.86352706479374 828.7710364444647,371.5980394501239 828.4611531094415,372.32461704849266 827.7410726684611,374.0269740794902 827.4797442276031,374.6782638588338 827.30821467028,375.10466752853245 827.2086873316439,375.3539143636008 827.0306915554684,375.7969439048902 826.8292193281231,376.2975890475209 826.5872895433567,376.9033778682351 825.7159520143177,379.04103125812253 825.5411602206295,379.46300147648435 825.3793299911777,379.8528737189481 825.1390604516491,380.4332152227289 824.4108826738084,382.16765258833766 823.9674806614639,383.19104460370727 822.5677482099272,386.42287306138314 822.2862055536825,387.1128447193769 821.7036633316893,388.5415443580714 821.6251948942663,388.7295357771218 821.0685175467515,390.0644102410879 820.8711231147172,390.53843245632015 820.7675471076509,390.78762368048774 820.4746740052942,391.4897435064195 819.5498591006035,393.5663477728376 819.2642677761614,394.2519135623588 819.1728377742693,394.47008216159884 818.3977362206206,396.3284544891212 818.1502431575209,396.85561071819393 817.8782833209261,397.4348353712703 817.8014460017439,397.59762244916055 817.6080711111426,398.0096331484383 816.7455882241484,400.10272767575225 816.646876444458,400.3408255613758 816.409810887184,400.91677270294167 815.2123953495175,403.5536093132687 814.758478449774,404.57802809239365 814.6055611163611,404.9235666281311 813.8814028799534,404.3532104996848 813.2479173406027,403.8548554602894 813.0440275626024,403.7163923155749 811.8748944498366,402.9201380080194 811.4209775503259,402.59237805817975 809.6369419947732,401.30102908151457 808.8780059876153,400.8746711164713 808.4613426632714,400.56676317652455 806.9515971129294,399.45377819176065 806.1134062365163,398.8513145461329 805.8285722170258,398.647502803884 804.9118837760761,397.98965857963776 803.6836808817461,397.180109059962 803.1722088106908,396.85561071819393 802.1901008781279,396.2332456948934 801.7605051165447,395.9596597488853 801.633481785073,395.8799202722148 800.703016220592,395.28964798827656 800.29768334236,394.95956535148434 799.3906942295143,394.2219711827929 798.4027900019428,393.5275940109277 797.9505042205565,393.210825634771 797.6916224570014,393.02810053061694 797.3525828835554,392.75977387011517 797.2061608961085,392.6438311446691 796.3792713386938,392.0180664137006 796.01194934058,391.7389736309415 795.7263580160215,391.5229954687529 795.3023546596523,391.2018387383432 795.057220892515,391.0168793820776 794.7764646685682,390.80313333368395 794.4285413261969,390.54062534018885 794.0199753387133,390.2305513644824 793.367062016041,389.7354369276436 792.8111711005913,389.3157570826588 792.518297998351,389.0931183466455 791.5700357689057,388.42970634042285 791.3807386738481,388.57479672139743 790.324036209844,389.76203071454074 789.930062904954,390.20507400733186 789.5157880036859,390.67136105464306 788.468813994783,391.8020884981379 786.6330195628107,393.7546542874188 786.2365413261577,394.20203617430525 785.3611260019243,395.19104985159356 785.2454331164481,395.3217432083329 784.9501133369049,395.65728751622373 784.2405477832071,396.46468911890406 783.8964400924742,396.85561071819393 783.4177068942226,397.39939139113994 782.7485697707161,398.05281170189846 782.5891862188,398.2078238421818 782.3116631041048,398.4792144590174 782.0673157689162,398.71731392643414 781.1037035520421,399.7649568009074 780.5575702186907,400.3574908099836 779.6352311183,401.4095919642132 779.316464014235,401.773953045893 779.1465364479227,401.96775512443855 778.8536342186853,402.2867049293127 778.6133646791568,402.5469277933589 778.2217506703455,402.973282840976 777.7443864461966,403.49157393036876 776.2960991004948,405.2579814437777 775.8300653225742,405.7264325199649 774.7556244481821,406.80510249512736 773.8130420052912,407.8593686228851 773.0800000000745,408.68044439074583 772.0945424498059,409.7840982376365 771.0257231077412,410.9158934109146 769.8873482240597,412.1307265139185 769.3946048852522,412.7641739472165 767.9940860018833,414.3200979011017 767.7028148906538,414.64345678896643 766.6785017742077,415.71208091732115 766.3378893368645,416.0930449872394 764.6283026775345,418.00881961663254 764.5190468836809,418.1306504951208 764.2843988764798,418.39420524059096 764.0934706631815,418.6079271603958 763.7479939982295,418.98665422201157 763.0238648888189,419.7817798118922 762.4461868942017,420.3709165726905 762.3911366543034,420.4262900929898 761.7722146703163,421.05855992413126 761.5383822222939,421.3044111880008 761.2932193279266,421.5635374347912 760.6961426774506,422.1925353568513 760.374113336904,422.531391470111 759.8312131130369,423.10393763770116 759.4906006756937,423.49812544643646 759.0876562205376,423.96542534051696 758.3594784426969,424.73282853432465 757.4492562204832,425.76046733389376 757.2874259912642,425.9321254073293 757.0309617777821,426.2056379407295 756.7364284304203,426.51789870567154 756.1142733369488,427.17566615040414 755.1231651271228,428.2254593256512 754.5300788907334,428.85440024046693 753.8399411202408,429.6848931707209 753.3866650169948,430.0780338983168 753.1109186559916,430.3172187812743 752.8058995485771,430.5519785161596 752.5130264463369,430.7789246715256 751.7532748800004,431.36584240954835 749.713590670377,432.5805738773779 748.8074171165936,433.0683463398018 747.3623920071404,433.8462847971241 746.8591337813996,434.1430288988631 744.7223106559832,435.4042271755752 741.3249826703686,437.3354368833825 740.7067597369896,437.6912934744032 739.0498348941328,438.64313854579814 736.3701406720793,440.25614034279715 736.2738464426948,440.3140206958633 735.9777402312029,440.47901151684346 733.543995335116,441.8299070454086 730.9039431111887,443.40669312753016 728.1967528959503,444.97457987163216 726.8156326685566,445.73306783352746 726.5356628765585,446.02318048581947 726.2630331165856,446.44834358314984 725.9822477654088,447.02964310353855 725.8382433280349,448.0261761288275 725.7775715556927,449.06479838566156 725.8690015574684,449.4689494445338 726.3617448959267,449.947281030647 726.7185520071071,450.28833087993553 727.1805371165974,450.6614682076615 728.2954646756407,451.53394006128656 728.3721563591389,451.63889317709254 728.5834735502722,451.92812188726384 728.6142317795893,452.935716146545 728.6975644445047,453.8912885884638 728.9103379911976,455.13687941175885 729.0616533334833,456.00829893455375 729.4565004516626,456.99479055556003 729.8205602132948,457.88613327243365 730.101345564588,458.76746800815454 730.2145917725284,459.4937865261454 730.2000573440455,459.8989965450601 730.1539200001862,460.1713948759716 730.085966449813,460.574451375287 729.7372275484959,460.84346092585474 729.1684333226876,461.22766296955524 728.6603691236814,461.6539156768704 728.3027173263254,462.0790914493846 728.1740920037264,462.41123584099114 728.1967528959503,463.0755631290376 728.1863253903575,463.2959023984731 728.1740920037264,463.5527520488249 727.9159675450064,464.62227842520224 727.6813486649189,465.57672901201295 727.6360268802382,466.1789883642923 727.7719631076325,466.6462465338409 727.9232784498017,466.92744599992875 727.9621048889821,466.9993899644469 728.6449900089065,468.20290372741874 728.6368926720461,468.70112759480253 728.5082382222172,469.17830553423846 727.9329777777893,471.79455693619093 727.7355542186415,473.3091320944368 727.5988315592986,474.61883346905233 727.6748824462993,475.80018925043987 727.9475704603828,476.5873181777424 728.4330028941622,477.3136236133287 728.8270053262822,478.16607219475554 729.0098944568308,479.255462719826 729.1385197795462,480.6249559916323 729.1619962311815,483.2720924828318 729.1919097742066,484.43339909164933 729.4192468766123,485.1175941397669 729.9346511076437,485.67887417250313 730.6628288853681,486.675249669177 731.0123542186338,487.21440668497235 731.1944277902367,487.73363512958167 731.2397204480367,488.3557672375464 731.3910066630924,492.40321406832663 731.406385777751,495.3723194129416 731.4652225421742,496.50925801793346 731.5277293226682,497.7170502273948 731.4978157795267,498.5273827573983 731.5584875521017,499.7728259006399 731.5577011201531,501.22410129685886 731.5261273315409,501.3779720106977 731.421764892526,501.88828328083036 731.0584915628424,503.2377635240555 730.467036444461,504.9812529151677 730.1328902258538,506.06060087977676 729.6474286649609,507.9701312663383 729.3140688781859,509.982622108073 729.0405944321537,510.74979519698536 728.7226720142644,511.20696561114164 728.1304013370536,511.5600845380104 726.7048040106893,511.9331283666543 725.6125082168728,512.0582200646168 724.6577797689242,512.224278298323 724.5348051058827,512.2960096818279 724.3390126649756,512.4102219413617 723.7022648889106,513.2615120566916 723.3535551148234,513.8514995584264 722.420672000153,515.1599078297731 721.8664413298247,515.6071472935728 721.2596070969012,516.1462006683578 720.6301702257479,516.4672331479378 719.8493888853118,516.7572220302536 719.1212111075874,516.9542803775985 718.4609868801199,517.2243835533154 716.7481671111891,517.515487334982 716.1324491093401,517.5575688387034 715.7384175503394,517.6638485131552 715.2068477725843,517.8065907704295 714.634849564638,517.7534708948806 714.0886871040566,517.2763877449324 713.5280193422223,516.9443178764777 713.0838308979291,516.653173564584 712.4397722170688,516.3786463973229 711.9656411022879,516.2956386302831 711.4947722239885,516.2901393148932 710.6800286720973,516.4151889338973 710.053795783082,516.6786377470708 709.2293237759732,516.9144303706125 708.7341628870927,516.9907829783624 708.4121335466625,516.9907829783624 708.1791166577023,516.7516828750959 707.9719937706832,516.5391625371994 707.5245722170221,516.053190434759 707.0399262151914,515.6281483601779 706.3263411200605,515.3159615393379 705.3319706738694,515.192027166253 704.7372824463528,514.9684270821162 704.009104668512,514.9363077161834 703.5082931200741,515.035973377584 703.060842439183,515.2019897387945 702.3974142293446,515.4510539194453 701.7153155413689,515.6790769357467 701.1764931129292,515.7886649927823 700.6942937884014,515.7576615400612 700.2622222221689,515.6562029133202 700.2088322275085,515.6436500952695 699.9620382152498,515.5451403384213 699.3697966649197,515.1510610638652 698.9911442203447,514.5699234847561 698.7937497884268,513.6976366937743 698.7629915592261,512.9094715547981 698.930472448119,512.2032370884554 698.7023197866511,511.3729845719063 698.3544255717425,510.8748476495384 697.6942013441585,510.3357428028248 697.4433586631203,510.1497975823586 696.7605026701931,509.67269959731493 695.7289077760652,509.19448484596796 694.9707873282023,508.84243848884944 693.8639571057865,508.34429641102906 692.9998722275486,507.86607906169957 692.5144106666557,507.68013196327956 691.9682773334207,507.63804875977803 691.057268679142,507.45206163614057 690.3743835592177,507.22295495518483 689.6769640108105,506.5388217600412 689.2068815645762,505.7705993120326 688.8427635484841,505.33438083261717 688.5620364517672,505.15727893658914 688.1299648855347,505.0742275082157 687.6898251093226,505.0742275082157 686.6582302151946,505.0654202294536 685.3232764587738,505.12738999025896 683.6694682169473,505.2214803812676 682.0399811129319,505.3764644325711 681.5618304569507,505.3975062298705 681.3303864320042,505.36096204671776 680.83365267911,505.2834899543086 680.5455855502514,505.1384688267135 679.8926722275792,505.12738999025896 678.8456982187927,505.4285109959892 677.6474671218311,505.760596503329 676.7978875448462,505.8646496037836 675.989639338688,505.97579627938103 675.7436608854914,506.0097101526335 674.8633813332999,506.02074909751536 674.4847288890742,505.97866560838884 673.6052357690642,505.6576592103229 673.0591315627098,505.38754325790796 672.9757988980273,505.14843180880416 673.0890451057348,504.1632104682503 673.2630213404773,503.0417701336555 673.3689857708523,501.97241180733545 673.3771122347098,501.3912429068587 673.2249813334784,500.3118743306841 672.9668860018719,499.4008395469282 672.6408079928951,498.5395379239926 672.4968035556376,498.248411550594 671.928824889008,497.47015990753425 671.38272068277,496.98199782927986 670.7985473423032,496.5358401912381 670.7666531556752,496.50925801793346 670.275045774295,496.09968494361965 669.6876684516901,495.8716038147104 669.0994464427931,495.5395048765349 668.2725568854949,495.00036621815525 667.9238471110584,494.70923563075485 667.7571526544634,494.5431655019056 667.7798135466874,494.15901580802165 667.9618871182902,493.71289287286345 668.2806542221224,493.0807312143734 668.9400628907606,492.09546124812914 669.8049633281771,490.7249561584904 670.3357175466372,489.7905309581547 671.2152106666472,488.2340510612703 671.6245922134258,487.1756677670637 671.7621595591772,486.3874171327916 671.8074522169773,484.6017079829471 671.8722017849796,484.1234441951383 671.9354367431952,483.65920858370373 671.9968075663783,483.20896137302043 672.0501684338087,482.8170220355969 672.1707255466608,481.09441848052666 672.2549028979847,480.41794422996463 672.3309537849855,478.1251397447777 672.466860885499,477.4088008326362 672.6570026666159,475.74809652310796 672.6788480001269,475.09380773297744 672.8228524373844,474.44170932326233 673.1254539947258,472.1698535919422 673.3884135538246,469.2048508215812 673.2168839965016,468.99340517190285 672.7621806648094,468.99340517190285 672.2160473316908,469.9477988361032 671.8665511254221,470.23899876710493 671.214395107585,470.3430271281395 670.4797802382382,470.5700160609558 670.3891366684111,471.1412938599242 670.2435011129128,471.7126101810136 670.0477086720057,472.4588188699563 669.9716577850049,473.1961769971531 669.7143488854636,474.09961702889996 669.4942935609724,474.6287976948661 669.228100892622,475.26212305389345 668.6067322310992,476.2784693200374 667.9699553281534,477.2637631709222 667.567855559173,478.1771522531053 667.3097602274502,479.0904980668565 667.2571566648548,479.7547800341854 667.1495611164719,480.30610838433495 667.0524804552551,480.6570798649336 666.8849704391323,481.4873968298198 666.7417815609369,482.29778314969735 666.6794495432405,482.5480366619886 666.5249302187003,482.81590607966064 666.3153897813754,483.0052598089096 666.0508282310329,483.12705829925835 665.736080668401,483.19014957454056 665.0459137707949,483.3196799372672 664.1009429049445,483.85549649928 663.6996004409157,484.30610121722566 663.3128797867103,484.7279296115157 663.1275731058558,485.1452934971312 663.0547844552202,485.3090982651338 662.6906664391281,486.05530531238765 661.8419315484352,486.8634446171927 661.4099182364298,487.13250495301327 660.9851284481119,487.3926375127048 660.3928868980147,487.64173002168536 659.9567666632356,487.69378036021953 659.4300611128565,487.68270073313033 658.6857177885249,487.6528096504626 658.1630317795789,487.692664426635 657.305413120077,487.7569103119895 655.5521066666115,487.66388927889057 654.3781093263533,487.5509806680493 653.6200180053711,487.6129548680037 652.6183657814981,487.96610787004465 651.7995735609438,488.4222049546079 651.7170273280935,488.48477675329195 651.2534111004788,488.8362546034041 650.8909824570874,489.2846581438207 650.6004977778066,489.83261723350734 650.4872515698662,490.31975737272296 650.4637751182308,490.95407829841133 650.5171651128912,491.5552389336517 650.630411320948,492.09546124812914 651.6183155484032,494.66826609667623 651.6029364337446,494.88080544391414 651.429018453462,495.0679180297884 651.0632984463591,495.17081992753083 649.4483748979401,495.6236355875735 648.9491653406294,495.8406376900966 648.486335544847,496.1206876859069 648.0034371697111,496.50925801793346 647.8795595662668,496.6088913369458 647.1740135537693,497.44911742798286 646.7031446755864,498.46648735541385 645.7467851092806,500.1480796132819 644.7726580053568,501.36693285626825 644.5186113424134,501.683521260682 643.0323131164769,502.3477019966813 641.2134706631768,503.0750069254427 641.2118686719332,503.0750069254427 640.5985682205064,503.00088170013623 639.3315388872288,502.38867024413776 638.6947911111638,502.2126422296278 638.2085139910923,502.336662886024 637.7384315449744,502.49272477958584 637.5029971058248,502.6997577046859 637.3589926685672,503.10489612276433 637.2384355554823,503.80007797066355 637.0102537672501,504.7354857856408 636.6761075485265,506.04179083934287 636.396982442704,506.5509765286115 636.1008762312122,506.92406785074854 635.5393637830857,507.3602037910605 634.872644209885,507.66020620492054 633.8394473245135,508.11738239537226 633.3629277866567,508.39745818206575 632.7560935537331,508.65649213275174 632.1492884480394,509.0716233551502 631.7916657779133,509.42582134879194 631.1338882276323,510.3058943403885 630.1929077761015,511.5301565232803 629.4954591004644,512.2873222153867 628.8733040071093,512.7854562606663 628.2284588943003,513.1076089700218 627.4444444444962,513.7607599320472 627.3926564408466,513.8038781952928 626.6127197868191,513.9068519096472 626.3473135503009,514.0319425981143 626.1952409032965,514.2909705800703 626.2413199928124,514.8521836498403 626.4460253298748,515.5572946592583 626.5973406720441,516.5524326105951 626.6127197868191,517.1026020462159 626.4840362098766,518.1420467017451 626.4160826597363,518.6700162657071 626.2793600000441,518.9800070725614 626.090062905103,519.2611065082019 625.7259448890109,519.5821348984609 625.3610404408537,519.7183407092816 624.7696144498186,520.0714074958814 623.87477134238,520.5894503910094 623.5859177814564,521.0466422591126 623.4346024390543,522.0837987473933 623.1765071075642,522.6715732653392 622.9790835485328,523.1221064580022 622.8884982329328,523.8072691793204 622.1603204552084,524.9484987881733 621.9232548979344,525.445491281338 621.9030115555506,525.4875714203808 621.8423397833249,526.5059404562344 621.7816680107499,527.0660097396467 621.464473770815,527.7080456068506 621.0130326756043,528.3655408688937 620.9320884337649,528.5592027726234 620.9790122099221,528.8115607393556 621.1457066667499,529.0506490513799 621.4936008817749,529.5554035579553 621.5516220871359,529.7181425326853 621.7371617850149,530.2383964714827 621.7290644480381,531.5976024812553 621.7824544426985,531.9308080317569 621.9038271147292,532.5949066181201 621.9790624426678,533.4981272123405 621.9337406579871,534.2031844605808 622.0243842275813,534.8883161361446 622.1457277724985,535.3034028297989 622.4272995555075,536.1025732300477 622.4944666738156,536.6515829741256 622.3431513316464,537.2525515827583 622.1619224462193,537.729675456183 621.8657871076139,538.2797574038268 621.3382659981726,538.7523766243248 621.2023297707783,538.7999532829272 620.8455517868279,538.9272227918846 620.6222342259716,539.1253391278442 620.4790162206627,539.3744187908014 620.3875862187706,539.6278812941164 620.2209208889399,540.2919988255599 620.0760717653902,541.1021902855719 619.7726837761002,542.2643778147176 619.5453175466973,542.5753747064155 618.8543642170262,542.9816025940236 618.2176164408447,543.479674119968 617.8381775644375,543.9567061536945 617.6108113352675,544.8288850196404 617.5048177778954,545.4708344102837 617.2920442312025,546.0109774745652 617.0646780017996,546.343007876596 616.7345804516226,546.6473852845957 616.6091591111617,546.7613822762505 616.2604202098446,547.2395235709264 615.9724113352131,547.550553981273 615.7758033352438,547.8515430640546 615.6851888925303,548.2876857082592 615.7280640000245,548.6728261907701 615.7758033352438,549.0967350275605 615.7685215574456,549.9788567193318 615.5630006615538,550.7979014110751 615.2450491164345,551.6179793133051 614.8809602275724,552.4480952094891 614.5314348943066,552.9140330787632 613.8946579912445,553.8072574786493 613.4771791076055,554.3672243989422 613.0904584534001,555.2061762813246 612.6430368996225,555.80825476459 612.0750291059958,556.2233059540158 611.6502684444422,556.3682967908098 609.973857564386,557.3234252674738 608.9802735502599,558.0494909444824 608.3734684444498,558.4644984871265 607.5927162311273,558.5784899709397 606.8483146525687,558.6404860161128 606.3483186633093,558.8065126223373 605.8256617814768,559.2735141426092 605.3928037832957,559.8855433660792 604.5966724551981,560.643674962048 604.263312668656,561.0897156559513 603.5197557760403,562.1687761694775 603.323147776071,562.5838165652822 603.318050531554,562.9224781691446 603.3077686615288,563.5997999703395 603.239028679207,564.1188662553323 603.1718615608988,564.2821001823177 603.0723342223791,564.5239427788183 602.5795908835717,565.1259584835498 602.1467328853905,565.6749030807405 601.6459213369526,566.6178035902558 601.1992862152401,567.1789364365977 600.5471593244001,567.7389524275204 599.841642439249,568.0919498960138 599.3634917832678,568.4859837144031 598.8335239964072,569.3370388179901 598.7631528960774,569.4233752666623 598.2412824461935,570.0630688332603 597.8019582295092,570.6030779074063 597.4451511183288,571.4840463272994 597.0276431075763,572.3151306672953 596.5567451023962,572.9891595072695 596.0122428871691,573.497090286226 595.4968677832512,574.1411955154035 595.0793888996122,574.8771714127506 594.601179989404,575.6142207875382 594.0170357760508,576.0811902179848 593.2816053476417,576.578078816121 592.9102055538679,576.9411032668431 592.6213811200578,577.3660786375985 592.2880213333992,578.0610494254506 591.8632315450814,578.6110406725202 591.2483582295245,579.1610705226194 590.8510935608065,579.3613853019197 590.5274331023684,579.524091139785 590.1487806579098,579.4831358118099 589.3834075592458,579.3480787962908 588.9586177706951,579.4100695773377 588.6026262188097,579.7531300996197 588.1697682205122,580.7491223867983 587.7830184391933,581.2371969665983 587.0394615468103,581.6410897971946 586.538649998256,582.1911128340289 586.3946455609985,583.2280499022454 586.2198828943074,583.8300195737975 585.8946495715063,584.6699858970824 585.4924915486481,585.2719918590738 585.1664717938984,585.4999896272784 584.5094515485689,585.7865900499746 584.0628455538535,586.118606300035 583.5126635520719,586.7858643768122 583.0733393351547,587.2728114323108 582.723814001889,587.7088041118113 582.3524142079987,588.2798083343077 581.9050217814511,588.8397760172957 581.4122784426436,589.3787078472087 580.866145109525,589.7217543891165 580.2666217813967,589.9297891149181 579.9025328924181,589.8987950593582 579.5012195556192,589.7217543891165 579.0991197867552,589.6177369598881 578.8992495504208,589.674267310882 578.8409953280352,589.6907603071886 578.4850329031469,590.0127718948061 578.0230186667759,591.3196573284804 577.7649233351694,591.8796180526842 577.4081162241055,592.2945682008867 577.1896628906252,592.7837351991329 577.0747564374469,593.0415643365122 576.6192666739225,594.4624481885694 576.2931886650622,595.2415066927788 575.8317569706123,596.1223067071987 575.6410617742222,596.4863777544815 574.1539479893399,597.8862077580416 573.062496881932,598.8821262167767 572.372359111323,599.4519889351795 571.5681304463651,599.8891151664429 570.7493382259272,600.2830180948949 570.1724466632586,600.57187187206 568.412703118287,601.9838285243022 567.7225362205645,602.0767662496655 567.1480622079689,602.0048620118177 566.7977504427545,601.9616796226474 566.2062953243731,601.9008498053299 565.7888164409669,601.7658450024319 565.5007784392219,601.5998475521919 565.1140577850165,601.2678921499173 564.4465517796343,600.8949845538591 563.7944248889107,600.7699382835999 563.301710677566,600.6349328567157 562.8769208888989,600.6039401575108 561.8744822330773,600.8120054653846 561.169751779642,600.8120054653846 560.456137557514,600.7809729523142 559.6146844445029,600.8949845538591 558.5677395627135,600.9569698746782 557.3629839930218,600.7079529155162 555.5352868977934,599.8990742896567 554.7609717759769,599.5980695735198 554.6266666668234,599.5383147550747 554.1088448852533,599.3081390585285 553.410609777784,599.1521389306872 552.5691566650057,599.1410643520649 551.454229105846,599.214084856445 550.0885171202244,599.2561523058685 549.2284517831868,599.5350083215162 548.9363651130116,599.6290624000248 547.996200220543,599.857006950886 546.3650819982868,599.7430745385936 545.4395097885281,599.8979588677757 544.7267111253459,599.8669660752639 544.028446890763,599.6710899416939 542.8148075521458,599.4121523674694 542.3220642133383,599.3911584938178 541.4272502330132,599.6091441314784 540.5404753350886,599.9521763272933 539.6375348907895,600.4501318580587 539.0080688925227,600.595096481673 537.9158022258198,600.5851373869809 537.1803135431837,600.5121172916843 535.5565062258393,600.2000786354183 534.6163413332542,599.9411416212097 533.9941571130184,599.7651439680485 532.9479986631777,599.547158469155 532.2651426703669,599.3081390585285 531.3023168854415,599.0182480367948 530.3540837831097,598.6788396703196 530.3160437759943,598.6652553586173 529.7771922204411,598.5933102812851 529.171202673926,598.6243032351485 527.8661333333002,598.8622078874614 527.2601437866688,599.0702348401537 525.3943775574444,599.9422570426832 524.5521088853711,599.9732099893154 523.8991955628153,599.9212233780418 522.3675755520817,599.9212233780418 521.0859826630913,600.0141618868802 520.3958448924823,600.1701614651829 519.827050666674,600.3881464088918 519.3561526613776,600.4191789718461 518.7113075485686,600.3671526188264 517.975847993046,600.1701614651829 517.7355784534011,600.0838358681649 517.2557966791792,599.9101089976612 516.5734067200683,599.48919628351 516.3301953421906,599.3391319220536 515.6473102222662,598.7902628679876 515.1011768889148,598.532439789502 514.5550435556797,598.3144531922298 513.8956348871579,597.8375271598343 513.2427215646021,597.4845327777439 512.7281328925164,597.3915933077806 512.1212986595929,597.297498531756 511.2871564516099,596.7674677993637 510.77419889788143,596.1223067071987 510.2401824428234,595.4506123292376 509.8453353245277,595.3465973359416 508.2142171022715,595.2746911197901 506.5531853369903,595.2746911197901 506.0814717725152,595.1451802029042 505.7950940160081,595.0666211021016 503.52070354495663,594.1039115328458 502.21403221343644,593.3049306239118 500.2358353352174,592.2281985337613 490.85288601601496,586.9596005682833 490.5915284481598,586.8124367396813 488.6715566648636,585.8474238746567 488.8358044446213,585.2543033984257 489.00249890144914,584.953280661488 489.647314887261,584.362349163508 489.9580137814628,583.8643608830171 490.2387408782961,583.2944220114732 490.3601426774403,582.9203715159092 490.3601426774403,581.2814188419725 490.45072799292393,580.399449876626 490.84557511110324,579.7974319229252 490.9483355592238,579.7265569698648 491.42974845157005,579.3923806929961 492.0438353351783,579.2053724530269 492.51470421336126,579.0603951528901 492.58996866841335,578.9674486824078 492.56005512550473,578.738329307118 491.9378417779226,577.9415292516933 491.46775933157187,577.1845667948946 490.1861664428143,574.3315542421769 489.86739933874924,573.5945010022842 489.2678468837403,572.7224247084814 488.85843620984815,572.3693940815865 488.1221902221441,572.0794312917278 486.8632582257269,571.8724969335599 486.02098955388647,571.9145690852893 485.2394217813853,572.2155281867599 483.617187328171,572.5796746585984 482.4795988765545,572.7965686451062 481.80888888891786,572.7494368492044 481.01517511112615,572.6936197232571 480.1510611057747,572.4446536722826 480.05112598778214,572.3865257002763 479.49083687830716,572.0606263285154 478.83870998758357,571.3966348957038 477.8605633423431,570.4415613741148 477.367820003652,569.7254529925995 476.8589111182373,568.853402745619 476.3815468942048,568.2513165319106 476.01017622754443,567.8673224460799 475.8507926756283,567.4733274726314 475.60807645868044,566.7583658157382 475.3345728854183,566.3234513665084 474.96323134575505,566.0434419108788 474.0076873387443,565.4004707782879 473.03679334407207,564.5593226970523 472.3620055610081,564.1443254958722 470.98898267024197,563.7082908116281 470.1620931129437,563.3452467205934 469.6078915698454,562.9313630496617 469.6009010631824,562.9224781691446 469.2866486614803,562.5229371119058 468.97029910748824,562.1212040564278 468.39425223111175,561.5611752030673 467.6361026560189,561.220280518115 466.8318739911774,561.0642560973647 465.61016644281335,560.6702501650434 464.77599510748405,560.4621507093543 463.96448466484435,559.9541928605177 463.2363068872364,559.6221809364506 462.50812910927925,559.601143804146 461.6893368890742,559.9232348495862 460.75726933346596,560.4632663110388 460.03640246065333,560.597218153358 459.4449473422719,560.5352226043469 458.55735688540153,560.2862043340574 457.80651821533684,559.8191649044747 457.5363060054369,559.5871987345163 457.2984540160978,559.38312250952 456.5848106666235,558.5109557008254 455.9780055609299,557.8779256005655 455.3104995555477,557.4230338124908 454.2716520107351,556.6040113069466 453.56529043917544,556.0539705725969 453.15590889262967,555.7418353528483 452.61784376902506,555.212830190896 451.16879911825527,553.3346275062067 450.2512659911299,552.2666047183448 449.47779555560555,551.1675384582486 448.90900132991374,550.627406782296 448.33213889435865,550.0053932365845 447.99877910746727,549.4033403125941 447.2698148979107,547.8991577976267 446.9364551110193,546.8200343252975 446.6176588800736,545.6789466218906 446.53432621527463,545.3047987509053 446.55698710749857,544.8498835770297 446.6856415573275,543.7187480920111 446.788402005448,542.9085653001675 447.08045954839326,540.5952680722694 447.33855488011613,538.8309538143803 447.3612157725729,538.052831317531 447.2552222153172,537.3057070694631 446.92920246056747,536.7655846251291 446.3604082346428,536.3416544139618 445.45746779011097,536.0306097478024 443.87971043551806,535.7195646863547 442.2485922134947,535.4295982894837 441.2097446685657,535.1894004971255 440.24208378314506,534.6824261803413 439.9427153352881,534.3503799469909 439.58669465605635,533.810250975308 439.20725577976555,532.8871476784116 439.0478722276166,532.45097756834 438.8514972445555,531.8859396714251 438.7598050988745,531.6219493743847 438.2897226526402,530.7287236385164 437.74857005511876,529.7181425326853 437.33420777262654,528.9443743255106 436.7274026667001,527.7821633429267 436.09793666854966,526.9420414729975 435.3778562275693,526.3708940315992 434.87701555201784,526.0819526111009 434.24757868086454,525.9048657407402 433.66340534063056,525.4388365617488 433.26369399460964,525.0484393097577 433.18522555730306,524.971770428645 432.6164604588412,524.2766089187935 432.4190077725798,523.9334705714718 432.3510542222066,523.5493670472642 432.3583360000048,523.1453782721073 432.6463740017498,522.4812141744769 433.05657110747416,521.9520573632908 433.26369399460964,521.7400197357056 434.25401577260345,520.7256157913362 434.9215217779856,520.1654921371373 435.57446422765497,519.6784911527648 436.9434384498745,518.9080385516281 437.6667811271036,518.495155614044 438.22098267031834,518.0180739110801 438.72179421863984,517.3129301474546 439.13120489253197,516.803727017541 439.65467733342666,516.3886487716227 440.2841433316935,515.9314880449092 441.95248600177,515.205297312641 442.38452844088897,514.8842631765292 442.80200732452795,514.3352444124175 443.49945600004867,512.643826892192 444.0528711110819,511.31432402081555 444.19687554845586,510.80622422741726 444.26567378500476,510.15202924469486 444.4169600000605,509.65388983488083 444.8117779911263,509.0627365176915 444.8797606684966,508.7826614929945 444.90242156095337,508.39857402117923 444.8271571059013,508.1184982358245 443.2575553423958,506.4491155644646 442.38452844088897,505.80598773120437 441.59567889082246,505.0377231288003 441.48886977438815,504.80969018896576 441.4589271041332,504.2594930944615 441.5649206613889,503.4292534576962 441.7704415572807,502.2558422340662 442.0358477939153,501.1875963425846 442.35377021168824,500.55433813412674 442.8101046613883,499.7550515495823 442.91609821864404,499.2148860108573 442.87080556096043,498.748805962794 442.55929110746365,497.7524796652142 442.4225684481207,497.18234007869614 442.4225684481207,496.50925801793346 442.4225684481207,496.5081421243958 442.50590111280326,495.7819335590466 442.89265089435503,495.11769513442414 443.598167779739,494.49442447541514 443.9242166613694,493.9752103878418 444.03102577780373,493.6431088738027 444.0609393209452,493.0929265060113 443.954974890803,492.6567651166697 443.56094333168585,492.0655707048136 442.79472554661334,491.27737568935845 442.13371488719713,490.6806381967617 440.9815920072142,489.6388848016504 440.13932333525736,488.9746296881349 439.1910902330419,488.42443681519944 438.2428280035965,488.1963485266315 437.2492731164675,488.07128447527066 436.30907909711823,488.0081944594276 435.08737154852133,487.8941700748983 434.1172931130277,487.65615745197283 433.26369399460964,487.22592473670375 433.04768733878154,487.1170014102245 432.4788931129733,486.50475018221186 432.04682154674083,485.7685481334338 431.75071533524897,485.0522714704857 431.53791266155895,484.30386931909015 430.84049311303534,482.72627089137677 430.4610251093982,482.0210253438563 429.21665666857734,479.9562922248151 428.62520155031234,479.02190557995345 427.836352000013,477.78743680677144 427.28293688897975,477.3622883519856 426.3799964444479,476.9881156492629 425.2189606685424,476.83199761918513 423.5886580053484,476.87408612522995 422.0424744391348,477.2272546389722 420.88143866311293,477.56934255728265 419.781103786896,477.953478460724 418.4914135609288,478.2546329345205 417.9452511004638,478.31664934719447 417.5132377886912,478.1406040012953 417.2858715590555,477.90146590489894 417.21707332273945,477.63247512315866 417.3085033245152,476.895130375633 417.394311793847,476.31386200804263 417.4913924551802,475.6617269957205 417.6960686648963,474.59224891260965 417.92343489429913,473.771872791287 418.7187797902152,471.52990389295155 418.90079510759097,470.7404868034064 418.97687512170523,469.92125362955267 418.97687512170523,469.0277227536426 418.81020979210734,468.21840846946 418.4614708907902,466.9108650056296 418.14998556440696,466.0295197685482 417.7179139981745,465.33423051878344 416.8983062187908,463.96461173327407 416.4305830684025,463.2959023984731 416.0487848961493,462.750036207377 415.38127889076713,462.08574789360864 414.84324289427605,461.52548988803755 414.13769688177854,460.97519538068445 413.7048680107109,460.71499485196546 413.4095191040542,460.4559101044433 412.8860466631595,460.19794114137767 412.3674384498736,459.7495639692643 412.1886271147523,459.59566705446923 411.46770198759623,459.108465693309 410.8536151042208,458.79624655708903 410.02593911474105,458.1839244022849 408.9911111111287,457.43097571033286 408.3567808853695,456.9693201564951 408.16827022237703,456.6891854512505 408.1302593423752,456.44010126410285 408.27426377963275,456.00387448119 408.63025533163454,455.21548347739736 408.9911111111287,453.836361111782 409.03235510061495,453.67871360469144 409.32042222935706,452.67331473424565 409.38837577973027,451.7077723716502 409.3511513316771,450.9814705812605 409.2524686791003,450.34812217892613 408.9911111111287,449.3617631798843 408.570369991241,447.77373476704815 408.31955643731635,446.60555727698375 408.251602887176,446.2888975428068 408.1755519999424,445.24033793009585 408.14479377074167,443.39341908338247 408.0687428836245,442.9261164670461 407.8640666739084,442.6670128654223 407.0913826704491,442.1266414555139 405.45219623832963,441.18322090554284 404.0338224355364,440.3317595066037 402.69886867899913,439.4071870613843 401.5006084551569,438.5146608048817 399.80153668276034,437.63329291151604 397.7836395520717,436.1694019837887 396.8960782223148,435.56814500218024 395.95512689789757,435.1628946501296 394.90896844805684,434.9247509565903 393.8700917761307,434.7376720603206 392.98253044625744,434.3844421581016 390.99542067199945,433.52291144861374 389.3804679963505,432.57945769216167 388.940328220604,432.2472727650893 388.33270755561534,431.50979111442575 387.6506379947532,430.814403675613 387.10453378863167,430.5962675155024 385.8374753280077,430.3781311606872 385.4264917903347,430.0780338983168 385.2686811023159,429.9628264295752 384.7185282277642,429.5933250155067 384.09311089781113,429.1733149620122 383.054234225885,428.76913034630707 382.5420631041052,428.5576497181901 382.348717340501,428.4779208760592 380.7863682276802,427.70056330162333 379.974828657927,427.46137585828546 379.23130089242477,427.1502325087786 377.8963180088904,426.3617484407732 377.2587255468825,425.8634382735472 376.49335244798567,425.3651270905975 374.72551156638656,423.74616684252396 373.8379211095162,423.01974210102344 371.7674495432293,421.6698189820745 371.084622677532,421.39965008187573 370.41711667214986,420.9844098268077 369.41628000710625,420.26901969494065 368.9308184462134,419.718632303935 368.445386012434,418.9501369855716 368.0658888819162,417.6212806102121 367.89112621510867,416.74972422921564 367.67107089061756,416.0853108963347 367.4356364515843,415.2757814459037 367.0189440001268,414.4253061968484 366.495442432235,413.7298302842537 366.00191266147885,413.0964252204867 365.35791223484557,411.62246040592436 365.12326422764454,410.832809960295 364.8497897813795,410.1052704183385 364.5989762276877,409.3489044755115 364.2809955555713,408.5072193611413 364.0989511113148,407.72872183815343 363.8182240142487,406.95018196775345 363.6361504427623,406.2026171023608 363.408813340473,405.3200163782458 363.0519771022955,404.6876260955469 362.56654466863256,404.01209655200364 362.1741442276398,403.3132819196326 361.93707867036574,402.89139274827903 361.4815597796114,402.03971821052255 361.06489645515103,401.17807348503266 360.63282488891855,400.40951986802975 360.4459162169369,400.1813494412345 360.1392659912817,399.8070585784735 359.4871391005581,399.27767604071414 358.6982895503752,398.83137991523836 358.1141453369055,398.3750757711823 356.5129697850207,397.68952154775616 355.0274871182628,396.98411035875324 354.64956285164226,396.85561071819393 353.47320621518884,396.4557981871185 352.72239667212125,396.2276639386546 351.68191800895147,395.45905488426797 350.9011366685154,394.88760018051835 350.4456177777611,394.3892258394044 349.63410733512137,393.4755634877947 348.8679186775116,392.7589764649747 348.31450356624555,392.3027008535573 347.73033022589516,391.83530054742005 347.07820333505515,391.5650986661203 346.04663756804075,391.2638373702648 345.57655512192287,390.90057699469617 344.9090491166571,390.1120557151153 344.49157023301814,389.41647074202774 344.1954057670664,388.39976324758027 343.88473600009456,387.600189605786 343.6954097778071,386.5302862864919 343.6954097778071,385.8657907958259 343.89201777777635,385.26325378130423 344.3248757759575,384.56885115482146 344.83299822942354,384.08038381661754 345.4932224568911,383.5919952454278 347.10733044636436,382.5951994758798 347.68422200903296,382.07574765296886 348.3217562169302,381.5263906629407 348.66402889962774,381.2428202192532 349.3986728959717,380.6325764657231 350.2182806757046,380.1962143656565 351.12040556094144,379.614715999458 352.0006851130165,378.9501618320355 352.8728673279984,378.08851544064237 353.69084398949053,377.0507079704548 354.3963900018716,376.3440808907035 354.9271442205645,375.7415203990531 355.412605781341,375.11910160264233 356.01215823658276,374.42355369991856 356.70226688007824,373.9040845067939 356.9150695540011,373.67588933184743 357.5599146668101,372.78208629396977 358.12064068275504,372.0876083272742 358.51545867393725,371.465140350454 358.9013928959612,370.6665480189258 359.3107744427398,369.88677359954454 359.9256768852938,368.36051228409633 360.29704755195417,367.6338830246823 360.4459162169369,367.337935395597 360.68382646050304,366.8652239078074 360.84236532624345,366.4498112355941 361.1158397725085,366.09759911266156 362.15550287649967,365.0066275128047 363.23646822408773,363.62871066172374 363.2477986703161,363.6143157837214 364.0738435414387,362.40035798883764 364.88538311130833,361.2982446493115 365.5609573262045,360.4165184982703 366.053700665012,359.75191211909987 366.82717110053636,358.6509432330495 367.3805862115696,357.88221598259406 367.9040877795778,356.98943182837684 368.2681766685564,356.3048780275858 368.88229267916176,355.40215889929095 369.4437760000583,354.3764174130629 369.51904045511037,354.2390826509218 370.6711633350933,352.1101048292476 371.1339640036458,351.44547585688997 371.5369084586855,350.73873485205695 372.5911351182731,348.7869817671599 372.977884899592,348.3195380982943 373.82740622234996,346.73105239332654 374.5167284337804,345.56797474756604 375.3970371130854,344.03047538362443 376.48851734772325,342.2348329620436 377.0200579982484,341.3009963837103 377.7175066737691,339.8875334006734 378.62044711830094,338.2779366885661 379.43114200187847,337.18791761179455 380.3793751040939,335.97271188971354 380.8721184426686,335.298108992225 381.19088554685004,334.84168619517004 381.2969082313357,334.28005966480123 381.3276373334229,333.74056518042926 381.1601855715271,333.18001287808875 380.8114466704428,332.3691319767386 380.53878778323997,331.53826838260284 380.01036373351235,330.3972919329535 379.85590266319923,330.0638115463662 379.6439446755685,329.33710827084724 378.8850086686434,327.5513280829764 378.1268882205477,325.51516062539304 377.7175066737691,324.2689089740743 377.5499966578791,323.3139861295349 378.3688180053141,323.60532094637165 379.32433288532775,324.12378040427575 379.74912267376203,324.4981872118078 381.2969082313357,325.2670593842049 384.019477560767,327.06282651238143 384.7185282277642,327.5367316750926 386.9774813298136,329.0679140492575 388.93523097608704,330.3972919329535"/></g></g></svg>