<svg width="1200" height="800" version="1.1" xmlns:xlink="http://www.w3.org/1999/xlink" xmlns="http://www.w3.org/2000/svg"><g class="geojson-features"><g class="geojson-feature" stroke="#555555" stroke-opacity="0.0" stroke-width="0.0" fill="#111" fill-opacity="1.0" data-properties="{&amp;quot;N03_002&amp;quot;:&amp;quot;空知総合振興局&amp;quot;,&amp;quot;fill-opacity&amp;quot;:1,&amp;quot;description&amp;quot;:&amp;quot;砂川市&amp;quot;,&amp;quot;N03_001&amp;quot;:&amp;quot;北海道&amp;quot;,&amp;quot;stroke-opacity&amp;quot;:0,&amp;quot;N03_007&amp;quot;:&amp;quot;01226&amp;quot;,&amp;quot;fill&amp;quot;:&amp;quot;#111&amp;quot;,&amp;quot;N03_004&amp;quot;:&amp;quot;砂川市&amp;quot;,&amp;quot;title&amp;quot;:&amp;quot;砂川市&amp;quot;,&amp;quot;stroke-width&amp;quot;:0,&amp;quot;N03_003&amp;quot;:&amp;quot;&amp;quot;}"><title>
      砂川市
    </title><desc>
      砂川市
    </desc><polygon points="419.06172199815046,584.0640883222222 418.08273066661786,583.772033411311 417.9613871219335,583.735235591128 416.0745911182603,583.2225133661414 415.67327778146137,583.1132432394661 415.4661548943259,582.9058987250319 415.3973566578934,582.4556150111603 415.0057717760792,575.9847358716652 414.97582910594065,575.4976402423927 414.9580324408598,575.2044513818109 414.1198124374496,561.349208323285 414.03543119644746,559.8330896986881 414.02838243567385,559.7071540657198 414.01952779397834,559.5365509096882 413.8140068978537,555.8075717886677 413.6570408960106,552.9525258803042 413.03482754866127,541.6635702414787 412.7379349049879,536.259713569656 412.444187989342,530.5123220772948 412.23426889965776,526.3870964979869 412.00326178141404,521.8492151442333 411.95228933694307,520.859111169877 411.8802871182561,519.4397557337652 411.7702448924538,517.2979225822492 411.80423623125535,514.1090206960798 412.1149059983436,511.37165747681865 412.42560489242896,508.5952463916037 413.080149333342,505.7530519354623 414.59880777960643,501.59392672695685 416.15064200526103,498.1271919288556 417.95570733514614,494.5823691308615 418.9937684480101,493.1572799652931 419.154841372394,492.9364907538984 421.5383420017315,489.66918836248806 424.3199811129598,486.35398959123995 427.0142388907261,483.5962405526079 428.88888888887595,481.9647800764651 429.82174287654925,481.1529599050409 432.25146823120303,479.4199945598375 433.9383939981926,478.33160072227474 434.3680480142357,478.07065204373794 437.14887156616896,476.3722707442357 440.16999378509354,474.5623103046091 440.81320777966175,474.23330907989293 445.94767667213455,471.6003999772365 446.7753526614979,471.1922246440663 453.1614717725897,468.04455027752556 462.70141622051597,463.342213279102 465.34633267193567,461.96379397966666 468.03977489075623,460.40690506453393 468.57717009074986,460.06270832946757 469.48506214411464,459.4812303369981 471.0504113493953,458.4786261903355 474.4744488961296,455.682698973862 477.4089762135409,453.1788717737072 477.4340837831842,453.15502261696383 479.1995071147103,451.47694348928053 481.5790464570746,449.14933476236183 483.0903939983109,447.60577400471084 484.0459380054381,446.4915405912325 485.4691177813802,444.59442908212077 487.6844093441032,441.23838162835455 489.00645979016554,438.98760670417687 490.3632588800974,436.2193208375829 490.71846400003415,435.4954432407976 491.0226966756163,434.7950129166129 491.5744806684088,433.5212315796525 492.7581773371203,430.2297589323134 493.7023908980191,426.88917286955984 493.8701048037037,426.0213935588836 494.0033613371197,425.33205871708924 494.3302257778123,423.9400517150643 494.39576177787967,423.6812931719469 495.123939555604,420.80124054383487 495.4888440036448,418.4733373010531 495.73887112538796,417.2217969716294 495.9160513422685,416.3294476221199 496.6919684553286,411.6444994128542 497.3804751075804,408.53456290834583 497.4816044373438,408.0783332649153 499.01080689777154,400.7974168183864 499.295582663035,398.9590217162622 499.8069382258691,395.6447911899886 500.13054043019656,393.37126396835083 500.24320409598295,392.5569382935064 500.41374333167914,391.32421983766835 500.4542008889839,389.8617365391692 500.6354297742946,385.8021103955689 500.48091044987086,382.7119232164114 500.47362867195625,382.5746904252446 500.1904257708229,376.62846394837834 500.02862466836814,375.85753828729503 499.68477912188973,375.71584353072103 499.05773067381233,375.7772124718176 497.2833944463637,376.0427293535904 495.68868511286564,376.28145733784186 492.4725860125618,376.7634108294151 492.2815995448036,376.79244849662064 486.7790513493819,377.6849433997413 485.16083643736783,377.94262649369193 483.8404171093134,378.1523954309523 481.0895362275187,378.68009021831676 479.4511362274643,378.9846819220111 477.4340837831842,379.6782451212639 477.2059311218327,379.75664185581263 476.97128311463166,379.87937767617404 475.42591510748025,380.6904526494909 474.7373793281149,381.08086811262183 473.88864443730563,381.56281206104904 473.2818684588419,382.09162395622116 471.74538422049955,383.2451503890916 469.66116465779487,385.41832915419945 469.2687642170349,385.84339616051875 463.8503351182444,391.71132503141416 462.96210386487655,392.5569382935064 461.9093335608486,393.55981509189587 460.6956942222314,394.61509627709165 459.8461728997063,395.3056429392309 457.80319732625503,396.19919414736796 457.01356134423986,396.5639628917561 454.70279111119453,397.0894088332425 453.1614717725897,397.44622469187016 452.86213245161343,397.51553967554355 451.0214446649188,397.6170623971266 449.1597271040082,397.39393724600086 447.1774524303619,396.68331680836855 445.7826133334311,395.7284436697373 444.62964576715603,394.3507242136984 443.1321336036781,392.5569382935064 442.42652933695354,391.71176679444034 440.03729066671804,388.8498885941808 438.1513102222234,387.23566209647106 435.6876226561144,385.1963574536494 434.08402955392376,383.6534738158807 432.2837993244175,381.4635316860513 430.9893031253014,379.7376852707821 429.8662491024006,377.96383232221706 429.4220897849882,377.2609866409912 429.2691724515753,377.0188859538757 428.88888888887595,376.2208917813841 428.3314251094125,375.0509052389534 428.26184044091497,374.9059166399529 428.144545564428,374.6582309298101 428.136448227684,374.642607483489 427.0037240035599,371.8813784632366 426.5894782295218,370.57268549199216 426.4770184534136,370.21679400413996 426.3556166542694,369.0609965455951 426.5174760107184,367.6395874505397 426.84107821516227,365.3882094034343 427.6906286650337,363.33755507552996 428.60088001424447,361.67295210360317 428.88888888887595,361.2873653813731 430.17857911472674,359.5608933097683 430.61807809444144,359.0878223920008 432.1406104462221,357.44885627680924 432.14870778331533,357.44435769016854 434.021726663108,356.33203941810643 434.09454444085713,356.30970704508945 436.38751800893806,355.62129858654225 437.76456044090446,355.4327179483371 442.4337819876382,354.7945149933221 443.0681122133974,354.70747440715786 444.6959973262856,354.58255685243057 445.71867932449095,354.5044733064133 448.4695893333992,354.21993408125127 450.91789778508246,354.09830992878415 453.1614717725897,354.042639143765 454.1542111004237,354.0179769015522 454.21409644093364,354.0168522390304 458.0483893476194,354.09497610863764 461.5330986666959,354.2946839017095 464.868968448136,354.59480761230225 468.3051520000445,355.0188040198409 471.5908648961922,355.34346844482934 475.25115244090557,355.7674635426374 477.4340837831842,356.135104769608 478.9608104391955,356.3922886157525 483.69073288538493,356.91774131619604 483.7667837726185,356.927822992031 486.2865119003691,357.2777894283645 487.10830421338324,357.3919411164825 490.9199362274958,357.9665145087638 491.7387284481665,358.090386007505 493.95480644272175,358.3860466144979 496.3383653264027,358.7051234905375 496.79309778497554,358.7653720983071 499.23718280531466,359.0878223920008 500.77623022929765,359.29089998517884 501.7066666666651,359.423205588304 502.5804800001206,359.54747799847974 503.76336110930424,359.7148480119067 505.48835601087194,360.04067094647326 507.53045777091756,360.11429433728335 508.44231111113913,359.92125881975517 508.4754868908785,359.9145511742099 509.1478279965231,359.6891822073958 510.49253933515865,359.16477982280776 510.6031349762343,359.0878223920008 512.6835388873005,357.6396043061395 513.6059071146883,356.82178462849697 513.753960220376,356.6901604286977 514.1018544356339,356.1914578987635 514.2507522274973,355.8165466711507 514.4498069050023,354.79230584175093 514.4255148943048,354.0670603842591 514.3009091129061,352.4927689960459 513.9643453441095,348.1904275849229 513.7531737884274,345.4946922683739 513.7531737884274,344.44474039733177 513.8518855681177,343.1861498369253 514.3784454828128,341.3281572824926 514.7726226773812,339.9369933543494 514.7726226773812,338.7375082363724 514.6237248855177,337.9620032616076 513.9764622221701,337.661818783381 511.96896347031,336.93744595581666 508.0264633457409,335.5138801379362 506.2052033422515,334.75736512214644 502.12577666842844,333.0646476933034 501.7066666666651,332.8371247453033 500.5714957654709,332.22107636916917 496.2971213371493,329.90015548298834 495.4969122133916,329.46607248007786 493.3552831147099,328.19177768495865 492.9604359965306,327.9083323481609 492.13517755735666,327.31693640432786 490.97355923918076,325.6141241960577 490.681239551981,325.18561732623493 489.96360578853637,323.8957134758821 487.14797533873934,318.8373441034346 485.2021095537348,315.01427193393465 484.33479156624526,312.84934007993434 483.8024062293116,309.35648365842644 483.4245402170345,306.87577136437176 483.12843400542624,305.707338197215 482.5782520036446,304.51993692613905 481.1680046649417,301.75236464565387 479.6590746737784,299.0193118043244 479.02634643914644,297.8977259416715 478.3054795663338,296.61876540788217 478.14897959830705,296.34705472848145 478.0869971058564,296.2393426329363 477.4340837831842,295.10348132048966 476.09260555380024,292.7696697685169 475.602134129731,292.13580156012904 474.4000291271368,290.58228107803734 470.7615577884717,286.44176104688086 473.16372889617924,281.50097573018866 472.2607884516474,279.45857128460193 470.1498884552857,274.6861571620684 468.94999711285345,271.9717640085146 468.88687866320834,271.4193268734962 469.48398444091436,270.4940551345353 471.34005134238396,267.61889168736525 471.7203349049669,267.0954150798498 472.25024443736766,266.36544700106606 473.73980489978567,264.3207049787743 473.7511062186677,264.3050744170323 475.48530528717674,262.37893145217095 475.5488897707546,262.30825180758256 476.9599526685197,262.82506860711146 477.4340837831842,262.99772905086866 477.7229373441078,263.1029646671377 480.6590957797598,264.17781990848016 483.6858977850061,265.3966798913898 487.82354955375195,267.0641944941599 489.38499572628643,267.69266370654805 490.622198897996,268.19150822533993 491.08823267556727,268.84998945356347 491.2573155555874,269.3377015746664 491.1513219983317,270.9728439222672 490.8552157867234,272.28991000994574 490.66827798751183,272.6224802195211 490.4110273423139,273.0811748323031 490.2840040108422,273.82450255559525 490.22088556096423,274.82341088406974 490.4320571164135,276.84134502342204 490.8552157867234,278.0511813556077 491.38433888729196,279.0925012239022 491.8495862329146,279.60257235117024 492.6861751182005,280.29115662461845 493.0996344605228,280.41056781896623 496.0074522169307,281.2476498890901 496.7833984568715,281.4373730896041 496.87479933176655,281.4596721851849 497.62563800183125,282.9753228513291 499.05283731920645,285.8558486054535 499.857124238275,287.06563992472365 500.61035133176483,288.3189775213832 501.7066666666651,289.70686205278616 502.4615540053928,290.6637600939721 502.9583460126305,291.2920877386932 503.75479773886036,292.13580156012904 504.07406000362244,292.4739290937432 504.42195421876386,292.84335377666866 504.8620939947432,293.3098445427022 506.2796231111279,294.28524968610145 506.7602495717583,294.5631096632569 507.6753068942344,295.09319619101007 508.1591373370029,295.2952024844708 508.51349777088035,295.4436537004076 508.69070711475797,295.517296719132 509.67132956453133,295.6054835015675 509.8752193422988,295.6233217353001 510.7425373297883,295.4536575814709 511.4035771165509,295.01171866460936 511.7579375501955,294.77403554634657 512.688373987563,293.5631979489699 513.3568703148048,292.13580156012904 513.5136615538504,291.8009680551477 513.7361635556445,291.2853781930753 515.0493011057843,288.2564614608418 515.2895997725427,287.7028963085613 516.5582310969476,284.19850785966264 517.1286564409966,281.50097573018866 517.4078106738161,280.14273630309617 517.6367788942298,279.0299827825511 517.8269206755795,278.10474010917824 518.0647726649186,276.19401521532563 518.8034944569226,270.701667005138 519.6231022365391,266.7215312254848 520.4952844516374,263.24472528736806 521.0494859947357,261.5459229159751 522.5115795910824,258.65281231561676 522.873163548531,257.93736484489636 523.2429322239477,257.287734300422 523.8238433281658,256.26641207002103 524.2987900018925,254.48836003866745 524.6693451093743,252.44456253381213 525.2243622116512,250.53472020599293 525.9792495502625,248.4859467104543 526.0164739983156,248.3848838841077 526.6499886648962,247.12916972639505 527.0739628942683,246.28975961799733 528.2624946631258,244.32513719890267 529.4518419911619,243.05043471505633 531.2747331130086,241.21976359566906 532.8581411272753,240.21738130960148 532.8678404551465,240.21067034936277 533.9058724410133,239.43710034148535 534.5062113280874,238.99059862701688 536.5677699983353,237.7157876995043 538.3914475521306,236.70784524950432 540.1083159893751,235.85831231396878 541.3235864464659,235.38057933351956 542.9094120109221,234.90276503824862 543.0784948907094,234.88042147032684 544.1950244409963,234.73201351094758 545.7104497777764,234.53108192922082 546.2290579911787,234.51319901034003 548.0357835664181,234.45179428113624 550.2518615610898,234.39955202542478 550.3084846648853,234.39818568946794 551.1450735502876,234.43620197841665 552.1054817849072,234.47855838621035 552.8983800037531,234.23969065322308 555.151653319248,233.39022943453165 556.4203428977635,232.14331881143153 557.2099788800115,231.44117526180344 558.032819768996,230.70997450157302 559.8298460161313,229.32910619379254 559.8605459912214,229.31013783649541 561.6259984498611,228.24183916440234 563.8453095539007,227.23265166464262 565.1722242275719,226.7035016962909 566.0387557831127,226.35748594044708 568.760538681061,225.61401255143574 570.3553062684368,225.1652348341304 571.6683564374689,224.79570693225833 572.0640191148268,224.68410497438163 573.2485313422512,224.3101556553156 574.5244444445707,223.90646656998433 574.9176895716228,223.78208438167349 576.6094795663375,223.41034401993966 579.9202417777851,223.51640059868805 581.567525546765,223.76536612474592 584.121856682701,224.1526989074191 586.3678482205141,224.39157658803742 587.1607755663572,224.38156977196923 588.3759877688717,224.365936632792 590.8865991112543,224.23307500383817 593.3571315484587,224.17705286759883 594.4805642240681,224.15157364186598 595.2314028942492,224.06565156491706 597.2541059983196,223.833444789052 598.7970273279352,223.55204749427503 598.9984995556297,223.51527533016633 600.2938404408051,223.3032023134292 602.0722253369167,222.7449876300525 603.2397273315582,222.1064752615057 603.5261342151789,221.9490572694922 605.1111442205729,220.88743762648664 607.0667093333323,219.56008501909673 609.3127299982589,217.3842928885715 611.057123555569,215.92409508564742 612.218974890653,214.5453127223882 613.3816417850321,212.87301565503003 616.0507919929223,208.89192958030617 618.5872973370133,205.2010390839423 618.845567431068,204.87786143278936 621.7055293441517,201.29916561912978 623.0696393387625,199.53730940329842 623.1853322241222,199.38779459852958 625.7566153387306,196.36218995932722 628.7162502259016,192.99156931054313 630.0064938667929,191.67302695068065 631.8069571129745,189.83304445527028 632.943730005296,188.71879075607285 635.5069157832768,186.1161792941857 637.9649235625984,183.992581000668 639.4172304498497,182.66506636806298 641.4520795592107,181.25823939492693 642.6015227450989,180.5864967299276 643.2231826774077,180.22317127970746 645.4691742152208,178.92240622913232 646.2346055679955,178.6299029563088 647.3422222222434,178.11559958796715 648.1197413263144,177.75452139310073 651.0794053405989,176.66585712623782 652.9014517761534,175.9758527163649 656.179067335208,175.04575453145662 660.477762901457,174.07658191025257 660.7762866631383,174.0096147566219 661.8329891271424,173.7717324848636 665.8500546561554,172.94883006310556 668.0693948871922,172.47093278064858 670.9578431148548,171.80656194058247 671.6148051058408,171.69135805068072 673.6577515519457,171.3331644477439 674.1715246649692,171.24272158462554 674.7362993494608,171.14331478992244 675.9733860125998,171.00487679167418 677.5907562382054,170.82511629990768 678.3229535573628,170.76707196224015 679.5988957867958,170.66545414103894 682.076331349439,170.5917731546797 683.9517386526568,170.56383627728792 685.003576889052,170.71453458932228 685.1484260126017,170.73575856385287 685.2422735644504,170.74918433459243 685.4315706596244,170.77595548029058 686.4356695609167,171.43920363724465 687.0699706595624,171.97072537918575 687.4130297742086,172.39504152798327 687.5983073281823,173.13867830549134 687.4931293298723,173.9012854983448 687.3564066702966,174.32555806817254 687.1994406685699,174.81354094785638 686.9461804373423,175.59841151360888 686.8321186703397,175.9524184182519 685.801339335274,177.43966784194345 685.1289982293965,178.39098013628973 684.2430097636534,179.64258902153233 684.1467737884959,179.8055814812542 683.661312227603,180.62399892759277 683.5787659946363,180.83618970925454 683.1855791218113,181.84440489526605 682.8424908800516,184.60554969415534 682.8036644409876,185.47198332013795 682.7891300125048,185.80025136488257 683.0237197654787,187.54420054866932 683.0536915627308,187.76526816183468 683.3975371093256,189.57065951352706 684.2430097636534,191.48098259640392 684.40000489261,191.67302695068065 685.6961613370804,193.25841198925627 686.7536211059196,194.3737702065846 687.7844004409853,194.71874644851778 688.973776896135,195.11733949760674 690.1623377919896,195.27586013660766 692.2238382081268,195.35624581662705 693.5192082205322,195.0369537383085 694.7862375538098,194.5859087483841 695.8704068836523,193.8423378256848 695.8874171164352,193.82666252210038 696.8477962240577,192.94024255598197 698.1855461832602,191.67302695068065 699.7896344463807,190.15346881805453 700.3689435591223,189.71917553490493 701.1577931093052,189.1285273815738 701.3479348907713,188.98559794871835 702.0130233457312,188.48876075749286 703.1975064463913,187.60449173592497 705.7081177885411,186.01235722238198 705.8456268800655,185.9565272165346 708.9493244587211,184.69377686356893 709.0374922241317,184.65804385894444 712.3935762204928,183.6230304694618 712.964817123604,183.529256028065 713.9251671039965,183.37068750528852 714.1630773475626,183.33161813463084 716.4624880072661,183.4633365533664 718.1542780018644,183.8340529759298 718.2408437760314,183.87424771813676 719.8719619982876,184.63123405328952 720.160000000149,184.8164507605834 723.4829082170036,186.95354709064122 725.2669437725563,188.30788781121373 726.8422253228491,189.50369664438767 726.9619960036362,189.59409249399323 728.2289962098002,190.56545385933714 729.3140102258185,191.39834479475394 728.6980592072941,191.67302695068065 728.6003960036905,191.71651625382947 727.3584451129427,192.5930129562039 726.1957782185636,193.52191834367113 725.3235960036982,194.5568492357852 724.8745433315635,195.64543307956774 724.5574073457392,196.73397183784982 724.5048037830275,197.71647806587862 724.715946211596,198.85745841055177 725.2709924409864,199.78637996333418 726.6456464497605,201.00664917967515 727.6230066630524,201.51013253233396 728.0461653333623,202.068355966534 728.3511844410095,203.26968348020455 728.3633304464165,203.3165467879735 728.1748197830748,203.98754315590486 728.1165655610384,204.19296131888404 728.0712437761249,204.35372673295205 728.0194848995889,204.53788338357117 727.2799766756361,204.53788338357117 726.9093924410408,205.01575758319814 726.4603688960196,205.78493612702005 726.1165233493084,206.15674373239744 725.3778015574208,206.47489580360707 724.7167908978881,206.74063847161597 724.1617446684977,207.43059542553965 724.0314882275416,207.79118728009053 723.9238635520451,208.08703135530232 723.8446086827898,208.30695487884805 723.7919759929646,209.0236742887646 724.0824606720125,210.13783457508544 724.5056193423225,210.9595255071181 725.8001446684357,213.2961348312674 725.9587126612896,213.9056534243864 725.8268251022091,214.9148562629125 724.9813524481142,217.78055785864126 724.6641873351764,218.97509589401307 724.3211282204138,222.45141200488433 723.7927915520268,223.99194663454546 723.6342235591728,224.78791047015693 723.6342235591728,225.1652348341304 723.6342235591728,225.53138639498502 724.2418442239286,229.2733263593982 724.3211282204138,229.98998373141512 724.2418442239286,231.1040073922486 723.8721046756255,231.95351681520697 723.686797994771,232.9358801873168 723.686797994771,234.18166151148034 723.943466097815,234.6413532019942 724.2701557760593,235.22650542389601 724.4271509050159,235.50893399695633 724.7442868908402,236.06591368390946 724.7968904535519,236.83615902380552 724.8696791039547,238.27284268359654 724.9028840108076,238.93365563475527 725.1933104356285,239.4649890900473 725.1407360001467,239.8356198067777 724.8761744498042,240.4729602531297 724.6382933333516,241.26891011896078 724.6123993316432,242.2779587720288 724.7709964517271,243.92328978329897 724.7709964517271,244.9379934091121 724.7717828836758,246.92041249352042 724.4805117724463,248.51327184127877 723.8203166719759,249.89290564786643 723.1593060124433,251.35293887910666 723.0532833281904,251.88311995810363 723.1067024499644,252.62651272583753 723.5290455609793,253.18353342235787 723.6876426809467,253.87331791769248 723.6617195520084,254.72274749469943 723.2652704428183,255.5185701753362 722.8955308942823,256.15594972710824 722.8688213333953,256.81896412489004 722.5249757866841,257.2955698989681 721.215857777861,258.0233150908025 720.5008745812811,258.65281231561676 720.1737479965668,258.9407989149913 720.160000000149,258.97181963623734 719.856612010859,259.6573685229523 719.2869730987586,260.38510661991313 718.9164471182739,261.3673547009239 718.9698371129343,262.13639450765913 719.3662862221245,263.56955288146855 720.160000000149,265.8052823023172 720.4496399929048,266.62107872142224 720.5715078258654,267.1971129955491 720.6349466737593,267.4972240597708 720.3703559965361,268.6647164503811 720.160000000149,269.1574916987447 719.9739068872295,269.59333015896846 719.2603217919823,270.2295074495487 718.2044348872732,270.8132477647159 717.6493886578828,271.37018646660727 717.1469459912041,272.0599593614461 716.909094001865,272.6972552151419 717.0943715556059,273.8914822982042 717.1202655574307,274.89935040997807 716.9616975645768,275.72190654289443 716.9883779983502,276.650453022914 717.2262591146864,277.2609774255543 717.4908206649125,278.0835255405982 717.4374306702521,279.0925012239022 717.5434242275078,280.49876010010485 717.5960277902195,281.2688641806599 717.9131637760438,281.8257788478513 718.4422868764959,282.27549625071697 718.9439431111095,282.99203702260274 719.234398663044,283.68173665209906 719.5515637760982,285.0087379665929 720.1066100054886,285.8312597783515 720.160000000149,285.920575064898 720.6616271075327,286.7598478701548 721.4812348872656,287.5031336278189 721.8777131236857,288.1136306835688 722.0362519894261,288.8569122881163 721.7716904392,289.75865043408703 721.7725059982622,290.501926992205 721.9043935574591,290.9528336005169 721.9545504427515,291.0208532093675 722.1956646684557,291.3501032021595 723.052496896009,292.13580156012904 724.0452362239594,293.0475716602523 725.102695992915,294.3477641910431 727.0048711111303,296.5239499458694 727.4844198684441,297.0039327525301 728.6003960036905,298.1209427129361 729.2055699911434,298.72582859598333 731.081880234764,299.8395362274605 732.0074524446391,300.68884483666625 733.6984268801752,302.5714549156837 734.4646446648985,303.58032862946857 734.8230537672061,303.8626775290468 735.5747079965658,304.45521543506766 736.340925781522,305.0924662598409 737.1346395591972,305.9450507652364 738.4898657848826,307.40137161512394 739.6266095503233,308.09100176696666 740.8685895679519,308.8610181545955 742.2165048889583,309.6042361173895 742.313614677405,309.6477846018388 743.4058522169944,310.13432991481386 744.4325828837464,310.47086555702845 744.6210935467388,310.53269293287303 745.3080273352098,311.0091930568451 745.7837604410015,311.6452616128372 746.761965340469,314.2721954114386 747.5807284339098,316.5798884628457 748.4796493370086,317.8542443210026 750.7790599965956,320.37397185212467 750.8514699947555,320.4364394545555 752.6553411129862,321.9931028064457 755.2185268907342,324.37881561001996 756.5153823859291,325.6141241960577 756.8844520107377,325.96558201650623 758.7072848782409,327.2923517842428 760.1078620160697,328.2207810013788 761.8255168853793,329.3355180284125 763.7284784356598,330.92667071765754 764.5740093439817,331.77587037649937 764.8911453296896,332.6774488200899 765.4736875521485,333.3938405633089 766.7156384426635,334.00305708602536 768.0368733296636,334.34783455665456 768.7051948942244,334.55997107428266 769.6226988942362,334.8510810433654 770.8387557831593,334.87787422986 772.1332811093889,335.27623674378265 773.1373800107976,335.85982037556823 773.7983906703303,336.3897764029098 774.432720895973,337.0001503051026 775.4100811094977,338.3536524635274 775.7194984107045,338.8695840460132 776.6520611271262,340.42235313134734 776.7313159964979,341.45669684326276 776.7588411165634,343.5264555665781 776.5209599999944,344.4012785019004 776.203794887173,344.82633711223025 773.7976042383816,346.4799293226097 771.8039991183905,348.4202256638673 775.9683313209098,352.0241428022855 777.1309982151724,353.0852281738189 778.2669555485481,354.75547325768275 779.0339888925664,355.68488175905077 779.9935524408938,356.26954090123763 780.6278826667694,357.11744678311516 782.0049542258494,358.81112086435314 782.6708291129908,358.9327426519012 783.5218941725325,359.0878223920008 783.8464575716062,359.1469462658861 784.9225295644719,359.56426722044125 785.8481017742306,360.18012559920317 786.414478449733,360.50478311028564 786.9355042133247,360.69107037357753 787.4905504427152,360.80714839318534 788.1725908766966,360.7959824130521 788.9363911112305,360.8417307958589 788.6588679964188,361.5847893602331 788.2073977742111,361.9562776229577 787.6984888887964,362.3858441062039 787.1434426596388,362.7116634500562 786.2987564373761,362.9671132210642 785.534985329723,363.33867969497805 785.4241566720884,363.3933442205307 784.3448224427411,363.9188219079515 783.581051335088,364.3952170748962 783.3035282205092,364.3952170748962 782.7250346667133,364.2791809384944 782.0057697849115,364.1586864492856 780.6019886649447,363.74812111031497 779.2014406542294,363.00506917812163 778.2232940089889,362.66029230802087 777.8211651130114,362.6882070424617 777.2725851022406,363.058649323415 776.7701424356783,363.69570589991054 775.6042715592775,364.98543809953844 774.9473095680587,365.795398140559 774.307299555745,367.0661615912686 773.4092233387055,368.471910040942 772.9075671040919,369.26848382188473 772.9075671040919,369.9311887995573 773.1187677867711,371.20417973253643 773.304016213282,372.557490888983 773.2247613440268,373.45891763822874 772.8016026739497,374.5455734087154 772.0612497635884,375.50052999623585 771.3662477653706,376.18105023988755 770.9528466775082,376.8259040619596 770.3710908872308,377.59570208989317 769.8840273350943,378.8173252145061 769.7933837653836,379.3550189725356 769.7367606613552,379.690815910988 769.7367606613552,380.61900426249485 769.1291399965994,381.54722922173096 768.7051948942244,381.9233055083314 768.6800873244647,381.9454748739372 768.0198922239942,382.6081451923819 767.4381655610632,383.6434735748335 767.1218160071876,384.5716066294117 766.451892451616,385.2677643301431 765.5699526541866,385.92705202271463 765.244719331502,386.29516960214823 764.3992466774071,387.11738787585637 764.0116813369095,387.9209687028779 763.9768744392786,387.99313783366233 763.3951477759983,389.213543898426 762.814207545016,389.9565154914162 762.2859000037424,390.64486659981776 761.9954444516916,391.3610468652914 761.964686222258,391.7436540501076 762.1337982293917,392.1765412033419 762.4059619556647,392.5569382935064 762.8409171057865,393.16488164372277 763.5545604552608,394.4645371653023 764.5011624392355,395.6971994920168 764.6120202239836,396.2147760448861 764.6120202239836,397.0370008322061 764.7099455716088,398.52289378410205 764.7171982222935,398.62770913238637 765.007653774228,399.7421223874553 765.4834160071332,400.29876486986177 765.5367768747965,400.93459913478 765.4834160071332,401.3061074127327 765.1403568926034,401.78351338754874 764.4008486685343,402.20742725901073 763.7139440071769,402.47291519184364 762.8943362275604,403.0295514037716 762.2074315664358,403.9576905518188 761.6523853370454,404.6738314870745 760.6864138240926,405.5414864245686 759.8206104462733,406.3191846795962 759.6361484515946,406.66385929851094 759.8481355664553,407.5919845321332 759.5309413262876,409.4224834856577 759.2137762133498,410.42978811688954 758.8173562311567,410.85473095369525 757.7339733332628,411.7024860738311 757.3990406828234,412.0427357791923 757.0761666559847,412.5000421963632 756.2509082169272,413.88882204453694 756.0696793316165,414.4610529258498 755.6926580053987,416.320492790197 755.3245204482228,417.014350736863 755.1432915627956,417.249705423601 754.745997767197,417.45156977156876 754.1537562168669,417.70479344041087 752.8066564551555,418.0974381812848 751.8244320142549,418.4008158412762 750.8308480001288,418.7555523880292 750.2386064497987,418.9831151677645 749.6843757795868,419.22404958785046 749.0176853333833,419.6791338985786 748.475600668462,420.3751506311819 747.9593808783684,420.80569779942743 747.329914880218,421.05887780949706 746.7012644410133,421.286438427167 746.0968768853927,421.3366326409159 745.4924893298885,421.286438427167 744.7553986560088,421.0577936132904 744.4325828837464,420.87464470538544 744.2206248961156,420.75437912275083 743.5280404482037,420.2480182022555 742.7594051129417,419.2485445739003 741.6387977671111,417.80626755132107 741.0595177812502,417.249705423601 740.7698777884943,417.034428777406 740.6193488783902,416.9841935168952 740.5562595556257,417.034428777406 740.3798948979238,417.70479344041087 739.8758211130043,419.0210221990128 739.209917098633,420.74213170609437 738.819147775881,421.69136489200173 738.642753991182,422.1843511079205 738.6557155556511,422.6650890017045 738.6678324338282,423.31094352243235 738.4793217707193,424.0069498285884 737.8878957796842,425.3465947197401 737.6048676409991,426.0213935588836 737.2713622186566,426.81665392720606 735.7219746703049,429.9420159579604 734.9603880960494,431.6889068915043 734.2874353210209,433.23236821667524 732.9152571165469,435.7386098190327 732.8270602240227,436.23156747221947 732.8642846720759,436.9030434875167 732.8392062293133,438.3451667573536 732.7137848889688,439.7237203330151 732.5495371093275,440.6227291462128 732.3359188765753,441.0655269022682 731.7444928853074,441.7358251224505 730.473414883716,442.41953221627045 729.428101120051,443.1779196477728 727.741146225715,444.7751108321827 727.4385155413765,445.01489538227906 726.8851295574568,445.1420549763716 725.8899435520871,445.55914761318127 724.8324546559015,446.2550900542992 724.0144779947586,446.96335689286934 723.3097766684368,447.24216612859163 722.6422706630547,447.74851082562236 722.1640908800764,448.2035415985156 721.0427262292942,448.92513281077845 720.363103345735,449.2407580270665 720.160000000149,449.3032325792592 719.456900664838,449.51964494551066 718.2101146738278,449.8363534551463 717.6057271183236,450.1397315536742 717.0110097636934,450.58251192979515 716.0838355628075,451.1624453958357 715.3402786701918,451.35424391151173 713.7285882311407,451.75912016257644 712.1168686648598,451.8606201719376 711.6814183538081,451.92249179439386 711.4113517795922,451.9609959303634 710.8320426666178,451.89852206310024 710.2907735609915,452.012267851911 709.4476893297397,452.3792010436882 708.3893848747248,452.87220516597154 707.6854991075816,453.1510076071718 707.2445728996536,453.27699858200504 705.8448404481169,453.5346816406236 705.4119824499357,453.6863282737322 705.0721564445412,454.0621722205542 704.8504700018093,454.6499265851453 704.6360362099949,455.57337137369905 704.5608300090535,456.83695934381103 704.5244211200625,457.2050094185979 704.4345931092976,458.10278908896726 704.3342793387128,458.7730803609011 704.3213177742437,458.8734532580129 704.2460824463051,459.4689848765265 704.2480922169052,459.4812303369981 704.332648220472,460.000919081911 704.365824000095,460.2027879882371 704.3901160107926,460.3522624101024 704.548654876533,461.32920376374386 704.6118024535244,461.9236453375197 704.4483702328289,463.6310809214483 702.9119151218329,468.79450688447105 702.5850215537939,471.4130336534581 702.4215893333312,473.652306680975 703.0259768890683,475.0585613382864 704.1595166720217,477.73944754729746 704.71371821512,478.5245419802377 705.2800948908553,479.14343033888144 705.9718637795886,480.3589616600657 706.072993109352,480.8139713879791 706.1482284374069,481.4841597393388 705.9969422223512,482.471052273002 705.5948133263737,484.18167521822033 705.1918979983311,485.1674728646758 703.806729102158,487.7344781975844 703.2783924337709,488.59537273517344 702.3973264498636,489.3290877143736 701.9312926719431,489.9100525553804 701.8681742221816,490.16320056439145 701.9070006614784,491.0107185851666 701.9822651165305,491.8336657048785 702.0583160036476,492.5562511171447 702.1282793243881,492.9364907538984 702.2468266666401,493.5810341142351 702.1966697814642,494.1507887861808 701.9822651165305,494.6314241637592 701.5922822258435,495.1120184455649 701.4158884410281,495.1120184455649 699.9174442099174,494.79532891936833 698.7588551110821,494.2768387476099 697.5128555520205,493.7839187961654 696.6811308943434,493.51857096876483 696.3032648818335,493.51857096876483 695.9392051200848,493.5564663494006 695.8874171164352,493.5656190464506 695.2215131022967,493.6824363330379 693.9755135432351,494.2266194874537 693.3209691023221,494.3782808187534 692.7416891164612,494.3782808187534 691.9730537814321,493.9857595814974 690.0486546774628,492.9364907538984 689.7950157937594,492.7982364616473 688.6865544534521,492.343249218713 688.1080608997727,492.21615451783873 687.0877673245268,492.2283983249217 685.7034139875323,492.3677769629867 684.456627996522,492.54505105962744 683.3732450987445,492.570742946933 682.1029826559825,492.4436082217144 681.184692224022,492.02543205436086 680.9314611200243,491.91058100998634 679.4580953316763,491.1132459054352 679.1943202135153,491.0753501430154 678.098820437328,491.1768336970126 677.007951872074,491.2455197334639 676.4871299982769,491.2783172086929 675.1270686719799,491.3664328023442 674.5105351110687,491.2783172086929 673.4150353352306,490.81112338014646 672.7475293298485,490.4821441989625 671.6520295537775,490.14092065993464 671.6148051058408,490.1353406474809 670.6317942329915,489.98921653459547 669.5459937849082,489.8944766781642 669.4747779982863,489.8878127716016 666.8929799963953,489.98921653459547 656.2292242206167,490.09070054325275 653.0940111075761,490.1921845092438 652.8173326790566,490.11635254661087 652.3763773441315,489.82534867478535 651.5705175609328,489.0035187766771 650.75251177256,488.3834512530593 649.3794888817938,487.3085058883298 648.5493953423575,486.8022437906475 648.0331755519146,486.6371694406844 647.3422222222434,486.61300241807476 646.9506082134321,486.5992729787831 646.1447484303499,486.54913241777103 645.9006049848394,486.5993934124126 645.716783786891,486.6371694406844 645.2636824462097,486.76430720993085 643.8785135502694,488.31994301767554 642.3922444515629,489.8375926024746 639.7497455503326,492.55954289017245 639.3876955591841,492.9364907538984 637.1008095574798,495.31719000433804 636.6153479963541,495.82343432697235 634.0837068799883,498.3914910061867 634.0586284373421,498.45503674680367 634.0586284373421,498.5431095903041 634.3604435626185,499.70386974920984 634.8644882205408,501.644104319741 637.2448139947373,508.7547663532314 637.5352986739017,509.75379084207816 637.5271722098114,510.33025114791235 637.5223371094326,510.63800918054767 637.1323542187456,512.409727690334 636.4422164480202,515.9468640899286 636.3006295608357,516.6723881323123 635.5327806578716,519.0751717901439 635.0554455608362,520.7855365736177 635.1937993387692,520.999597243499 637.647758449777,521.542595222767 647.0153577814344,523.6298026313307 647.3422222222434,523.7005265369662 656.3069062259747,525.6400874945102 659.8377528889105,526.3870964979869 662.1997285832185,526.8868137723184 663.3580846649129,527.1318956191535 667.7271513317246,528.0795885860571 670.8243535645306,528.7396119437763 671.6148051058408,528.9029317251407 674.500020224019,529.4988934646826 693.9256770561915,533.5962914703996 695.8874171164352,534.0101013405947 710.7600404481636,537.1471665902645 712.5853199929697,537.4905716274516 717.646971107577,538.5898578120396 720.160000000149,539.1174042414641 722.7717406720622,539.6656997217797 722.1552944924915,542.882560981845 721.8145655466942,544.6603050334379 721.2490335573675,547.609082259587 721.021696455311,549.1899736261694 720.6438304428011,549.9235053263255 720.160000000149,550.2912134941434 720.0774828942958,550.3538626907975 717.3581175466534,552.692741081235 716.2124608855229,553.7172700315132 712.4858217814472,558.6893124291673 711.5604825884802,559.8330896986881 708.1852912071627,564.0058243812528 707.9031660089968,564.3546493088943 707.2364755627932,565.1662311822292 705.2727839858271,567.859445150767 703.1015617423691,570.9461502310587 702.2618562561693,572.1399524654844 700.7281682204921,574.322715651826 700.0234668944031,575.0684511180734 698.9781240036245,575.8911131016794 695.8874171164352,577.713319527742 694.5596868837019,578.4962043564883 690.6809460053919,581.1636681062519 689.6234571093228,582.4165697839344 689.384760433808,582.6584654999897 687.8240715663414,584.3661749776802 686.8920040107332,585.4908906900673 686.3135104570538,585.7561379272374 681.2220040534157,587.4275098760845 677.1101297778077,588.7913723155507 676.1250508800149,589.1292469027685 673.5347768890206,590.0175097248284 671.6148051058408,590.6686970824376 663.9311605761759,593.2745124619687 663.122650225996,593.5486994809471 660.0384095573099,594.5217338624061 659.8369664569618,594.8628106015967 658.0868639858672,600.5284263738431 656.9031964445021,604.1832090190728 655.6321184426779,608.1789545111824 654.7871118221665,610.844206123089 654.0204280036269,613.2624276777497 653.6943499946501,613.7305493170861 653.4047100017779,613.8576204934507 653.1531100161374,613.9456514492049 651.6546657850267,614.2109077050118 647.3422222222434,615.0654152602074 647.121322211693,615.1092299067532 642.2748913208488,616.0320640259888 637.5660277761053,616.9560180795379 634.0408317724941,617.689385046775 633.9777424498461,617.7908156466438 633.9655964444391,619.751250568952 633.9592176071601,619.9489743226441 633.7400069690775,626.7112865069648 633.6887141262414,628.2933877484757 633.6516935679829,629.4372782752034 625.0275928747142,627.6530137236696 623.0696393387625,627.2519215074135 620.4311891059624,626.7112865069648 606.5619947520318,623.8693521175883 602.3901768819196,623.0145144668058 601.8957732978743,622.910197265679 598.7970273279352,622.2560070270556 574.5244444445707,617.1311147600645 572.5970452481415,616.7241873124149 572.1473517796258,616.6294969387818 570.1691257741768,616.206158295332 559.9730057669804,614.0247749611153 559.1841562169138,613.8709816205082 557.4001206613611,613.5254778846866 556.6889531165361,613.3861688418547 555.4308075520676,613.1420568352332 552.9606828941032,612.6605728676077 550.2518615610898,612.0768123990856 540.4400446577929,609.9622789095156 540.1099471076159,609.8908980363631 536.8703715556767,609.1932181084412 532.4446817848366,608.1968098884099 529.4162486613495,607.5135699298116 527.8239860055037,607.1691405061283 527.5019566648407,607.0989625499351 527.0019606755814,606.9908266655402 525.9792495502625,606.7693385444 516.8317346702097,604.7884152322658 516.6181164374575,604.7427128466661 512.6981024427805,603.8945087123429 503.50043067731895,601.9027681752341 503.14117688906845,601.8246839732747 502.6419964587549,601.7166259892983 502.32480221870355,601.6474897197913 501.7066666666651,601.5137513083173 498.1394111147383,600.7412931720028 495.91683777421713,600.2609081176925 495.30243049247656,600.1277708284906 492.89411356451456,599.6055332883261 479.1574475662783,596.6317472587107 477.90903045702726,596.3620177542907 477.4340837831842,596.2590132660698 475.2616673280718,595.7879688106477 472.7834453334799,595.2518381322152 470.004252899671,594.6510621930938 467.9766855681082,594.211915387772 467.5235551005462,594.1996767272358 467.3180633316515,594.9330723502208 467.13357220985927,595.589583343186 466.71288934419863,595.4992986411671 466.221747996402,595.3922811308294 464.4814322346356,595.0144491530955 456.46643768879585,593.2745124619687 453.1614717725897,592.5570422565215 448.4873859982472,591.5423479696037 436.69011956627946,589.0143214427517 435.6487962170504,588.7401292996365 434.38581555208657,588.4068287300761 432.819767295965,587.9596049374668 430.98589525325224,587.4360571136349 428.88888888887595,586.8378300115 426.79660111654084,586.2410460449755 425.55706777609885,585.8876779774437 425.30462310416624,585.8152065614122 425.11852999113034,585.7628393286723 423.20342243567575,585.2155308460351 421.6305584356887,584.766334883112 421.5812462364556,584.752932024945 420.965528234723,584.576808768732 419.06172199815046,584.0640883222222"/></g></g></svg>