<svg width="1200" height="800" version="1.1" xmlns:xlink="http://www.w3.org/1999/xlink" xmlns="http://www.w3.org/2000/svg"><g class="geojson-features"><g class="geojson-feature" stroke="#555555" stroke-opacity="0.0" stroke-width="0.0" fill="#111" fill-opacity="1.0" data-properties="{&amp;quot;N03_002&amp;quot;:&amp;quot;石狩振興局&amp;quot;,&amp;quot;fill-opacity&amp;quot;:1,&amp;quot;description&amp;quot;:&amp;quot;北広島市&amp;quot;,&amp;quot;N03_001&amp;quot;:&amp;quot;北海道&amp;quot;,&amp;quot;stroke-opacity&amp;quot;:0,&amp;quot;N03_007&amp;quot;:&amp;quot;01234&amp;quot;,&amp;quot;fill&amp;quot;:&amp;quot;#111&amp;quot;,&amp;quot;N03_004&amp;quot;:&amp;quot;北広島市&amp;quot;,&amp;quot;title&amp;quot;:&amp;quot;北広島市&amp;quot;,&amp;quot;stroke-width&amp;quot;:0,&amp;quot;N03_003&amp;quot;:&amp;quot;&amp;quot;}"><title>
      北広島市
    </title><desc>
      北広島市
    </desc><polygon points="574.9844317866955,571.5694861491793 574.7109573404305,572.2323545028921 574.6502855680883,572.8631655194913 574.6809855431784,573.7005854159943 574.6049346559448,574.4462907896959 574.4002584462287,575.2649334792513 574.1041231076233,576.1774320963887 573.7554133333033,576.7983301021741 573.3533135646721,577.3893191848183 573.0919559965841,577.8179643451585 572.8662208854221,578.070983153535 571.445458659553,579.5501556294621 570.019861333305,581.1763084061677 568.5076691057766,582.6069035030669 567.0844893298345,584.0165715783951 565.6208811237011,585.5465728471172 563.9978311111918,587.2665402568527 562.9452064428478,588.2872842437937 562.5034355485113,588.7159103459562 561.9120095574763,589.3577345765661 561.4346453334438,589.7819445139612 560.789800220402,590.2171695458819 560.0770015574526,590.6303224181756 559.349639338674,591.0941790431971 558.3552688924829,591.7283615734777 557.5890511076432,592.2873411904438 556.6408180055441,593.1986629377352 556.3754117689095,593.4228739741375 555.6092231111834,594.0691398633644 555.5517844482092,594.0923244366422 555.5112977637909,594.1077940733521 555.1084115628619,594.2657513372251 554.5250246543437,594.3795266347588 552.9780837830622,594.3375319836778 552.2879168853397,594.3287433295045 551.77982355922,594.4005239575054 551.3396837831242,594.5353362712776 550.9067966577131,594.8567380726454 550.5734659982845,595.5184299615794 549.9593791147927,597.1544186052633 549.5851831183536,598.3110053639975 549.5572502185823,598.3971407156787 549.1171104428358,599.288556317857 548.8072271075798,600.1071160408319 548.0563884373987,601.9496607522597 547.8363331129076,602.4986357091693 547.2602571094176,603.4927922267816 546.971403548494,603.7722687810892 546.5927511040354,603.969985923206 546.2133122275118,604.1246362476959 545.6364206648432,604.2185637047514 544.7569566720631,604.2593636814272 544.438160441001,604.3322946166736 544.2561159965117,604.5079411694896 544.1800651093945,604.7045442708768 544.2181051165098,605.3054870768101 544.2407368819695,605.4921083087102 544.2262024533702,605.8235167263774 544.1355588836595,606.112932062184 543.9381353246281,606.4133621572983 543.4826455609873,606.7745935669518 543.0813322239555,607.1181287565851 542.7018933475483,607.376604967867 542.1630126648815,607.645022283541 541.5335466666147,607.7278538196697 540.7066571093164,607.8007439576322 539.9784793315921,607.7587516058702 539.3797715627588,607.7488499990432 539.1597162382677,607.8206266973284 539.0836070970399,607.9244543383829 539.0302462293766,608.0581060169498 539.6224877797067,609.1372979031876 539.7438313246239,609.5824696338386 539.773803121876,609.8508845341858 539.7592104392825,610.1104712872766 539.2349224392092,611.1565299479989 538.9404473457253,611.9738570973859 538.7276446720352,612.4808975924389 538.3408948908327,613.0387164780986 537.9994668943109,613.3501926391036 537.7114288926823,613.4639988436247 537.6102995628025,613.4816543086199 537.4759653264191,613.5047972813481 536.4978186809458,613.392144268495 535.9444035699125,613.4551313459524 535.5721882169601,613.6418259027996 535.322190222214,613.8273671467905 535.1781566577265,614.0350172967883 535.077027328196,614.2957130228751 535.0260840108385,614.427134421072 534.890147783095,614.7794865723117 534.7914360036375,615.0490091827232 533.6004575573606,616.1458653300651 533.2064259983599,616.560048132611 533.0850533264456,616.8505641852971 533.0850533264456,617.1299857469858 533.1304042382399,617.3884514019592 533.3431486577028,618.0202596076415 533.4491713423049,618.3207148736692 533.5098431147635,618.6001745234244 533.4799295717385,620.0913098416058 533.4572395520518,621.9557331564138 533.4038495573914,622.4726540182601 533.2525342152221,622.9597912883037 533.0324788908474,623.3330862573348 532.6076891021803,623.6435155028594 532.2055893334327,623.9748596195714 532.068866673857,624.0676263491041 532.0381084445398,624.2233375911601 532.1449175609741,624.7711890764185 532.259008455323,625.4449675845681 532.2816402204335,625.9629944402259 532.2662902328884,626.4180364705971 532.168364885496,626.8013065360137 532.0008839964867,627.0807565184659 531.3560680107912,627.5667315261089 530.9927946809912,627.7324208701029 530.2573059983552,627.959900586633 529.7564944499172,628.0217705795658 529.3924055609386,627.9709942432819 529.1116493369918,627.8262597579742 528.908545991173,627.5402498493786 528.898846663069,627.5258559037466 528.7701922133565,627.090657344379 528.482183338725,626.3142166619655 528.2014271146618,625.8381400479702 527.7313446684275,625.3201526912162 527.3826348942239,625.0616953986464 526.9351842133328,624.9479343407438 526.5629979876103,624.9788299565553 526.2070064356085,625.1235263602575 525.8728602170013,625.4449675845681 525.4934213404777,626.1175911283353 525.258773333393,626.9669566352968 525.2507051236462,627.1227455606568 525.2967842133949,627.5777854381013 525.4100886755623,627.9400592423626 525.5694722274784,628.4580410635681 525.600230456912,628.758483537531 525.5921039929381,629.0798802339123 525.4861395627959,629.5769051005482 525.2507051236462,630.0419206534862 524.9205784463556,630.4494795193896 524.7967882241355,630.6019262418849 524.3639302259544,630.9641558155417 523.5451088782866,631.3672996039968 523.4093765404541,631.4479362345301 522.6041866809828,631.9261888410547 521.9350495573599,632.4486155265477 521.9107866737759,632.467382945877 521.4512191147078,632.8263493267004 521.1931237829849,633.167581613001 520.9738548907917,633.7165661880281 520.7990922241006,634.2654700113926 520.420439779642,634.9181888148305 520.1696262259502,635.2705512769753 519.8750928783556,635.4560761522735 519.6461246578256,635.5543653136119 519.2683168996591,635.715635793691 518.4713408855023,636.0260095996782 518.3208702292759,636.0867642521043 518.2893255681265,636.098891324189 518.1072519965237,636.2645749021904 518.0320166684687,636.5749082525144 518.0085402169498,636.8444466628134 517.9632475591497,637.1657929983339 517.8192431218922,637.3005817960366 517.508544227574,637.4242375306203 517.0910653440515,637.4242375306203 516.7949300054461,637.3204621435143 516.5068920037011,637.0929115908802 516.2034748872975,636.8344667093479 515.7026633387432,636.2745151181007 515.4906470970018,635.975195160252 515.2932817919645,635.7896706778556 515.0351573334774,635.768676899781 514.0488842241466,636.3584502850426 512.198497109348,637.4982718988904 511.2130104320822,638.4602395241964 510.80444444459863,638.8226165291853 510.73485977598466,638.8843644996523 509.34730245685205,639.8672803549562 508.4904411023017,640.2815026032622 507.83834333869163,640.4272635005764 506.9815111111384,640.3852767371573 506.0939497813815,640.2306890457985 505.31316844094545,640.1478287309292 504.86493132810574,640.1268353261985 503.90210554318037,640.1478287309292 503.47737400897313,640.4692502569524 502.88591889082454,641.1319323231583 502.1957811199827,642.0949592093239 501.94496756629087,642.3743917596876 501.7483304392081,642.509177694039 501.4222524302313,642.478204767569 501.0355317760259,642.3015119006741 500.6415002171416,641.9911857990082 500.1026777885854,641.5560526766349 499.5791762204608,641.2567391669727 499.0638011164265,641.1219525441411 498.3121760142967,640.9971853918978 497.5540264392039,640.8933717568289 496.99982489610557,640.6967579156626 496.2870262330398,640.4283767860034 495.60414111288264,640.0859617979731 495.14134044456296,639.7447391408496 494.79263067035936,639.5061772248009 494.5345062117558,639.4244299547863 493.92773023305926,639.3923831090215 493.0563344499096,639.413376576791 492.5862520035589,639.216801309085 492.14608310046606,638.9163716512849 491.87260865443386,638.6159416253213 491.7439833317185,638.3155907522305 491.4867035591742,637.3424895665376 491.38394311105367,637.057564299379 491.28118266316596,636.7737122421968 491.00852377619594,636.3285898854956 490.7957502293866,636.0492299661273 490.4470113280695,635.842672007042 490.18891599646304,635.8006844583433 489.453485568054,635.8625524725649 489.2900242204778,635.8868463994004 489.02141400182154,635.9254940160317 488.3919480035547,635.9144404803519 487.9898191074608,635.9243807104067 487.40567489434034,635.9862486933707 486.92021333344746,636.1011179341003 486.53186156088486,636.302904372511 486.2826791253174,636.4324452143046 485.4719551146263,637.2917151606525 485.04716532630846,637.5501595601672 484.6604155449895,637.5921468093293 484.4403602204984,637.4982718988904 484.17498311109375,637.3634832096868 483.94761688180733,637.1260322769522 483.76557243731804,636.8355800109566 483.54551711282693,636.3285898854956 482.8100575573044,634.6829621363431 482.4152104391251,633.9473802960711 482.0665006649215,633.4404239592841 481.6571191182593,633.047263687884 481.3229728997685,632.8296097632265 480.8229477831628,632.6430093412055 480.1926370988367,632.4563292540843 479.533257557312,632.301696801791 478.7516606579302,632.2078198654926 477.954742897884,631.9493698340957 476.8859526827,631.6798658035113 476.0678595129866,631.4479362345301 476.0444704426918,631.4412960396148 475.6423415467143,631.2756489636377 474.7175848961342,630.6250675984775 474.05736066855025,630.1899143024348 473.45052643551026,629.9723373648012 472.66167688544374,629.7757147651864 472.20618712180294,629.7238254583208 471.4407557690283,629.6608823225833 471.1673104498768,629.5890324947541 470.65918799641076,629.3295458908542 470.34042089257855,629.1229822702007 469.8322984391125,628.7496563552995 469.589582222281,628.6148628561059 468.68827289610635,628.4492138704518 468.3160866702674,628.3663893355406 467.8912968818331,628.1698052102001 467.58059798763134,627.952186717419 467.3832035554806,627.6937321996083 467.01186201605015,627.1038982073078 466.9536077938974,627.0464813670842 466.5264004551573,626.6267495414941 465.9268480000319,626.3164035981754 465.2965664427029,626.2026431226404 464.9405748907011,626.2335783427116 464.5764860017225,626.3682936263504 464.1136853334028,626.6588378181914 463.95913688174915,626.7482634898624 463.65091379208025,626.9271942596533 463.34746754856315,627.0001184515422 462.70990421343595,626.9382482006331 462.2592495502904,626.8017439225223 461.95906554337125,626.710727773956 461.1629342152737,626.3793873550603 460.3522393316962,626.1098374386784 459.51081534591503,625.9850626462721 458.9411764336983,626.0060572620714 458.4031404373236,626.3274973292137 457.70493445696775,626.9592427349417 457.2502019981621,627.393328183156 456.9014922241913,627.6009270802024 456.65067867026664,627.7257805745467 456.0818844444584,627.8395005810889 455.44839890499134,627.9466597698629 455.2250813441351,627.9842350585968 454.1562620017212,628.2327487284783 451.9110568960896,628.4602677427465 451.2362691129092,628.6049620917183 450.4393222259823,628.8015458683367 450.11324421700556,628.8435346157639 449.8017588907387,628.8225402428652 449.1115919930162,628.6877865458955 448.164145322633,628.6668319219607 447.07269421522506,628.6668319219607 446.5945435592439,628.5740669328952 446.3210691129789,628.4492138704518 445.57023044268135,627.9952889520209 445.0168153316481,627.8406139235594 444.2967348906677,627.8406139235594 443.53782801073976,627.8097186684608 442.60491576895583,627.7578289454686 442.26351689966395,627.8406139235594 441.8986124516232,628.058192753233 440.3524288852932,629.6630692289909 440.03447734052315,630.1799738397822 439.5409184426535,631.3385519232252 439.5041891555302,631.4479362345301 439.412263992941,631.7218540578615 439.0862151111942,632.3226908766082 438.6752024461748,632.8638841062202 438.63879355741665,632.9124725516886 437.98666666669305,633.4977597795078 437.53114777605515,633.9065057377447 436.28028398938477,634.848646671162 435.585281991167,635.2528973810258 435.0512946632225,635.563232011802 434.7478775468189,635.6769881438813 434.01241799118,635.8128115445725 433.20818932622205,636.0094690635451 432.950093994732,636.1850531604141 432.34328888892196,636.8687007316039 431.8732355698012,637.2619343962288 431.36511311645154,637.5313925298979 430.69114089244977,637.6959618421388 429.95486577786505,637.7699563674978 428.2485122276703,637.7898366769077 426.9135293441359,637.831823884917 426.3147924479563,637.831823884917 426.079358008923,637.8627178771421 424.918293105904,638.4017120489734 424.2588844373822,638.5353073524311 423.8729793423554,638.452525985369 423.5161722312914,638.2360696757678 422.9926706632832,637.9455392038217 422.1884419983253,637.8307105877902 421.1949162383098,638.01738658268 419.2757308870787,638.8457173492643 418.2822051271796,639.5911848142277 416.9787377777975,640.3676232093712 416.4778971023625,640.6161243271781 416.3411744425539,640.7608512620791 416.1138373404974,641.2688659831765 416.08307911106385,641.517326427449 416.0224073387217,641.9934123553103 415.9317637688946,642.1689921669313 415.5749566578306,642.4075514919823 414.9608697742224,642.573191046773 414.0660266667837,642.7079768718104 413.7140837832121,642.7186722630286 412.03277954855,642.7697636233643 409.57561645517126,643.049195404863 408.10466821689624,642.9984221807681 405.82628733152524,642.9829556289478 405.1231879964471,642.9785422938876 404.4257684481563,643.0094356375048 404.1223513315199,642.9056626143283 403.64417154854164,642.6682170490967 403.09885377425235,642.2021121670259 402.73476488527376,641.9944461137056 401.62793466320727,641.8917859396897 400.43698534404393,641.9845458896016 399.89892022055574,642.1292322569061 398.61651177238673,642.6372441428248 397.6383360000327,643.1850942408782 396.46273666853085,643.9515415907372 395.51528999826405,644.303851310804 394.92383488011546,644.5004224998411 393.7773917866871,644.6042743669241 392.5338389049284,644.6252276288578 391.56291578314267,644.4905223770184 389.44147177238483,643.9747612065985 389.26429155573715,643.9316617810982 388.68014734226745,643.7549699617084 388.3006793386303,643.5793515262776 387.0037073350977,642.8956829074887 385.80626267031766,642.2032254444202 383.9939155627508,641.426792862243 382.6742826667614,640.9816789536271 381.4679542329395,640.4747769222595 380.45899110403843,640.215222319297 379.5180397796212,640.0396013483987 378.2137859984068,639.6453383707558 377.20566755568143,639.4277698243968 376.590765113011,639.406776357966 376.01468910940457,639.5624778579222 375.58186023833696,639.8209198637633 375.2525491201086,640.1445683916099 374.5357017884962,640.8469716997351 374.012200220488,641.3848062699544 373.55749688879587,641.7470994323958 373.23872978496365,641.9436726712738 372.42721934220754,642.4307712538284 371.38024533330463,643.2281142781139 370.91744466498494,643.7350901361788 370.04523332277313,645.1233342456399 369.07597044622526,646.841849968594 368.7118815574795,647.6900304285809 368.498292451608,648.3427134930971 368.3623562239809,648.8916640892858 368.0735026631737,649.5443439548835 367.63417844625656,650.517317195714 366.83804711839184,651.9055626624031 366.3299246649258,653.0022141693044 366.0337893263204,653.7476783504826 365.85177400894463,654.6168668447644 365.55563867033925,655.6935876111966 365.23037622042466,656.5020196285914 365.1688888889039,656.5986305352999 364.88894822401926,657.0387464062078 364.43424489255995,657.4109160397784 363.71331976540387,657.9498672394548 362.7052013226785,658.9029285293655 362.21167155215517,659.2960473416606 361.69629644823726,659.5754602889647 361.02072223299183,659.7930109574809 358.8887633351842,660.7461048401892 357.5319059912581,661.5633064435679 357.1298062222777,661.9774522827356 356.28753755032085,663.1779027429875 355.5221353244269,664.3893598224968 355.37693667563144,664.5803887874354 355.09737466310617,664.9481340345228 354.70983844983857,665.2485317968531 354.5051331130089,665.3732866090722 354.2640188871883,665.4108959185542 353.7971986774355,665.3368699782295 353.6410191076575,665.311505553138 353.2696484409971,665.135862800933 352.4336129707517,664.5803887874354 352.4120006543817,664.5660367726232 351.44110665959306,664.1618343908922 350.85046710039023,663.9973225982394 349.9629057707498,663.8935187011957 349.16677444288507,663.8426702808356 348.5753484516172,663.8526491349912 347.35361177590676,664.0282132936991 346.8074784427881,663.9663921425818 346.2386842169799,663.8007670397055 345.79936000017915,663.6240100252908 345.2605375717394,663.2828201245284 344.8357477830723,662.8686367334449 344.4336480143247,662.4545321558835 344.1682417776901,662.14423156064 343.81143466662616,661.6262811463093 343.2628837830853,660.9945853044046 343.2272613263922,660.9537152549601 342.3922744321171,660.1155199267087 340.9060053334106,658.3342012197827 340.8963060055394,658.321876460861 340.38981467019767,657.6825784441317 339.5410797796212,656.5130324786878 338.9957328783348,655.7852688817075 338.87357377435546,655.6229381437297 337.99329422216397,654.7626192198368 337.6356715520378,654.5373510553618 336.8937457778957,654.0690422900952 334.61131622397806,652.7338465091889 333.32083956641145,651.9055626624031 332.60072999831755,650.8906099661835 331.97857490496244,649.5564703615382 331.8725522203604,649.194228497392 331.83451221336145,648.7182360696606 331.9858275556471,647.3509653438232 332.13711377070285,646.4298653198057 332.2738655573921,645.8599958164268 332.47935732640326,645.3839969155379 333.3135286612669,643.8510292564752 333.76095021516085,642.9189026232343 333.98913200374227,642.3092650781618 334.05708555388264,641.9359194820863 334.0271720108576,641.6973596983007 333.63960667024367,639.9479141896591 333.4956022328697,639.4200165556977 333.5028840107843,638.9428918595659 333.60884844104294,638.2813171715243 333.722939335159,637.7843099511229 333.8588755627861,637.4739781316603 334.1477291237097,636.8941078601056 334.70839688554406,635.8062112290063 334.87506221514195,635.1546080989065 334.9737739947159,633.8192695465987 334.8451486720005,632.5557329390431 334.74806801090017,631.9880180715118 334.70839688554406,631.7582756818738 334.60243245528545,631.4998251765501 334.5692566756625,631.4479362345301 334.3904453405412,631.1684912301716 334.1015917796176,630.8470972719952 333.638820238295,630.4649071001913 333.36613222397864,630.1225577199366 333.14607689960394,629.5736048587714 333.09265777783,628.5795541042462 333.18405865249224,628.0725866674911 333.3426557724597,627.710313059215 333.5627110969508,627.3789739913191 333.84349644812755,627.0685892378679 334.06355177250225,626.8819446683628 334.413077105768,626.4986747289659 335.23918023111764,625.1632890282199 336.1493733264506,623.7649514042423 336.9853214151226,622.5709483848768 337.86303778144065,621.3107336816611 338.2570693405578,620.4933581346413 338.39379200013354,620.048206217296 338.4617455502739,619.6130341468961 338.38653934933245,618.4223112972104 338.15835756098386,616.900269196718 338.0523348766146,616.1348109025275 338.0216349012917,615.326285527728 338.0596457814099,614.7054851072608 338.17292111646384,614.1046051091398 338.2942646612646,613.6186034139828 338.30157556640916,613.2452936519985 338.28698288369924,612.9768427037052 338.0823066738667,612.0014936348889 337.94555488729384,611.1321938053588 337.9690313388128,610.8737215538858 338.21902933344245,610.3347066204296 338.63572178489994,609.8597123970976 340.36555178661365,608.2536723702215 340.8963060055394,607.5579755745712 341.11636132979766,607.2694367871736 341.22963666485157,607.0010588258738 341.30568755208515,606.700589685468 341.3510093369987,606.390178749396 341.4044284587726,604.775287945231 341.31299845699687,602.7869415144669 341.1762466703076,601.7508285195217 341.12364310759585,601.2747439662344 341.114759338554,600.9024493370089 341.1681493334472,600.6439662988414 341.256317098625,600.4031393951736 341.30487199302297,600.2705970105599 341.4715373228537,599.9392208521022 341.7523226737976,599.5360253758263 341.90360888896976,599.3593015552615 342.08888644282706,599.2864089072682 342.3316026595421,599.2388875020551 344.6884811093332,599.1626544000464 344.9385082311928,599.0798199696583 345.1658453333657,598.9450499222148 345.43931977963075,598.7064482989954 345.5906351219164,598.5098403869197 345.69077412982006,598.3110053639975 346.02346399298403,597.6504344929126 346.7055335538462,595.8067837441922 346.78076888190117,595.3825842337101 346.75003977969754,595.0412198119448 346.51542089961004,593.994018649857 346.43205910758115,593.4869796815328 346.37866911292076,592.9070053515607 346.40133000549395,592.3370114147547 346.49273088015616,591.8410245428095 346.55340265249833,591.5925137450104 346.67480445164256,591.240088494611 346.8414697814733,590.9495818561991 347.3730104321148,590.2978197137127 348.7978213262977,588.9633503097575 350.65985928545706,587.5029657334671 350.98949080181774,587.1507732161554 351.12927180796396,586.7382110124454 351.09927088359836,586.2150108279893 350.45005670411047,584.4742367145373 350.3102465707343,583.81008907879 350.29952779377345,583.474117182137 350.4127740019467,583.2564987760852 350.9136146773817,582.5726619021152 351.7785151147982,581.2779599956702 352.749409109354,579.7247063808027 352.9541144464165,579.2386365155107 353.03016533341724,578.8751771636307 353.03016533341724,578.481929366535 353.01560177770443,578.0367011487251 353.106216220418,577.529629169614 353.48568422405515,576.0371213374892 353.59167778131086,575.7156550870277 353.7356822186848,575.4372601213981 353.99377755029127,575.1577512577642 354.31985555926803,574.9301429934567 355.1467451165663,574.7136305850581 355.624109340366,574.6705985222361 356.33769443572965,574.6816150492523 356.69694822398014,574.6462587569258 358.1193415679736,574.5048733078875 358.9915237830719,574.371203332732 359.6517480107723,574.1634798081359 360.2132313316688,573.91495108651 361.18333889415953,573.3968142246013 362.6170335575007,572.6400492682587 363.9285399893997,572.1230233067763 365.1688888889039,571.6396825887496 366.82587198587134,570.9939143573865 369.55656777950935,569.637306341785 371.67314756289124,568.5700709416415 372.3786644480424,568.1038649156108 373.0081304463092,567.5967723860522 373.31880021328107,567.2542556461412 373.894905344001,566.1782599773724 374.36163817252964,565.1695544917602 375.00173556641676,563.7863858985365 375.4798862222815,562.9787219205173 376.4200511147501,561.7767465842771 377.208900664933,560.9282688001986 377.6797986703459,560.52389549691 379.41609489079565,559.3638292254764 381.0156684516696,558.3794370756368 381.15967288881075,558.1209091887577 381.26648200536147,557.7784189789672 381.3878546775086,557.0437199824955 381.48653732973617,556.4117545805639 381.68232977064326,555.37210450985 381.5609862258425,554.6937184290728 381.9015986631857,553.8153854436241 382.0399524408858,553.4596046016086 382.4720240072347,552.9005761981243 382.9647673458094,552.6420425314573 383.0925771094626,552.5724372668192 383.6176806684816,552.2896010429831 384.00443044968415,552.0100657788571 384.2309811201412,551.6277924364549 384.2309811201412,550.882017629745 383.6694686721312,550.2190915270476 383.3668671147898,549.8235703533865 383.2738351220032,549.5529020865215 383.26087355753407,549.5142408490065 383.2697864534566,549.3849324886105 383.287583118421,549.1407538884669 383.39599422586616,548.8733861959772 383.6403415609384,548.4314452960971 383.76008311484475,547.9408983166213 383.8069777636556,547.3077559570665 383.90895177959464,545.9244865496876 384.0036148907384,545.8217463560868 384.13305577239953,545.8062736712163 384.4510364445159,545.8471629236592 384.98018867208157,545.8714657737873 385.1638351076981,545.879182226432 385.7399111111881,545.785272184934 385.973743559327,545.6626441517728 386.42926244973205,545.3311941527645 386.77797222405206,544.6892148406478 386.99884310760535,544.0451257277746 387.2496566614136,543.2164347564685 387.42363289603963,542.6672872228664 387.64368822053075,542.2529795339797 388.13643155933823,541.818703499157 388.5531240107957,541.2497044703923 389.3055646721041,538.8653435257729 389.44147177238483,538.5001934480388 389.5013571130112,538.339376089687 389.94714754854795,537.4996874021599 390.07903510762844,537.2499679658795 390.47388222580776,536.7947205849341 391.0103162311716,536.4533143268782 391.5798968888121,536.0898312938516 392.29351111128926,535.6334282190073 392.8922188800061,535.457772076712 395.27420489955693,534.3605547722545 395.85753355396446,534.1318744015298 396.95789755752776,533.6445605529007 397.6407826774521,533.2512401714921 398.1941977884853,532.847974747885 398.66343554854393,532.4236662514741 398.9907951502828,532.0236612437875 399.23951155215036,531.7197986102547 399.5574922240339,531.2314059615019 399.8997357796179,530.7054619176779 400.7800153315766,528.8811966433423 401.1740468906937,528.2701616000268 401.40059756091796,527.722094368597 401.5688648818759,527.0790346796857 401.70398555032443,526.7695969062624 402.0543264427688,526.404945926799 402.3803753243992,526.1673874752014 402.706453333376,526.0215586130507 403.0624740123749,525.9386994583183 403.6619682133896,525.7530518886051 404.261520668515,525.6083365869708 404.93549289240036,525.3696635549422 406.1491031041369,524.747521425772 406.6572255574865,524.4469912059722 408.39352177781984,523.0403616736294 409.0011424428085,522.4281584643177 409.95022023119964,521.91989736713 410.42030267755035,521.4126694824663 410.8903559964383,520.9983258559369 411.40573110058904,520.4380697844317 411.9971862187376,519.651346212835 412.39121777785476,518.6977433191496 413.0287811130984,517.558482935885 413.7140837832121,516.0637799184187 413.8920795591548,515.6755629921099 414.5150793386856,514.5871281799045 415.0312700018985,514.193697645911 415.57012155733537,513.8301815919694 415.9398611058714,513.2610777875525 416.4795282204868,512.1218319069012 417.1154895644868,510.8167726579122 417.47226754855365,510.27861171390396 418.8307268837234,508.94044442026643 419.23122466146015,508.36138385382947 419.60419731924776,507.8209897413035 419.8696035556495,507.24196631106315 420.7636311041424,505.9435246657231 421.43113710952457,504.97439315757947 421.88584044086747,504.39420931448694 424.3600428942591,500.86020601994824 425.3673457778059,499.30867045448394 425.675277596456,498.8732839396107 427.78734267735854,495.8873008961091 428.22745332622435,495.30824926291825 428.7129148871172,494.8728158552549 429.26554356631823,494.4605756747769 430.0633060124237,493.79534857417457 430.60941021877807,493.1731660516816 431.73243511491455,492.4482193739386 432.5204691059189,492.1575558130862 433.3845831111539,491.68125830445206 434.12085822597146,491.225926250685 434.62895155209117,490.7176004232024 435.05374134052545,490.27221271774033 435.546455552103,489.8268242024351 435.9477688889019,489.3505221628584 436.22852511296514,488.90517175680725 436.67673309880774,488.26308437477564 437.14684467203915,487.6408878027578 437.98666666669305,486.64848915603943 438.04087222053204,486.58435549394926 438.6549591041403,485.8704496251303 439.37585510418285,484.9487822956289 440.1865791147575,483.70655894605443 440.5134435556829,483.1661502363859 441.22624221874867,481.30174496228574 441.7869391075801,480.08051024063025 441.95765310595743,479.7069572149776 442.5903813405894,478.3188898153021 444.5928411023924,476.17482585815014 446.8242982116062,473.82074623549124 449.18848756619263,471.22131346177775 451.37462289072573,468.86941436788766 452.0024868978653,468.6417073526536 452.6925955414772,468.68372355028987 453.29942977428436,468.60080521396594 454.0357048889855,467.97859849070664 455.06648422416765,467.26352432835847 456.8950260053389,466.23785955802305 457.88374579208903,465.71838087571086 458.7882882276317,465.2431460428634 459.4403859912418,464.9425030350685 459.92989622056484,464.6054131890414 460.4372031147359,464.2892915652483 461.40002889966127,463.58530773426173 462.196975786821,462.9110442651436 462.2592495502904,462.8679925632314 462.79568355553783,462.49660168855917 463.3345351112075,462.0821186217945 465.22293310577516,460.3413775775698 466.4964286579052,459.1509548902977 466.375085112988,458.8193878380116 465.90503179386724,458.4203767544823 462.2592495502904,455.3286156738759 460.07148310763296,453.4731503468938 459.4363373226952,452.93378907529404 462.2592495502904,447.1255230822717 462.929173105862,445.7470200397074 463.1071980089182,445.38009968498955 462.2592495502904,444.1370389944059 461.878179555526,443.5783579776762 461.97689133521635,442.8930965659674 462.1209248997038,442.1789837721153 462.2592495502904,441.82562728994526 462.3563593388535,441.5777203547186 462.6969717760803,440.8625691186753 462.8709188835928,440.344150814577 463.15895688533783,439.7328551164828 463.61447577609215,439.11168926220853 464.6606342259329,437.4746450674138 465.88965267909225,435.73253533779643 466.5644113352755,434.9146201155381 467.155021767132,434.29336245462764 467.5053917868063,433.692039885791 467.770739768981,433.11172698956216 468.20517063105945,432.55902970809257 468.21819044987205,432.5424356383737 468.52888934419025,432.314734644955 469.09037266497035,432.0770849377732 469.86305666854605,431.5995563628385 470.3355566649698,431.25247209268855 470.4698617743561,431.154100951273 471.01602423458826,430.62567374284845 471.60826578491833,430.35598799644504 472.2458291199291,429.8685074740788 472.6778424321674,429.5059009248507 473.1633039928274,428.97754974954296 473.5807828764664,428.4071743347449 473.86885000532493,427.8268091221689 473.98294089967385,426.9258952594246 473.9505515519995,426.29470839264104 473.98294089967385,425.73427549022017 474.0718950970331,425.29983265680494 474.172237994615,425.07101066596806 474.4360131130088,423.7666416451684 474.5662695537321,423.09119407914113 474.5816486685071,421.11136148829246 474.74024578847457,420.4901484058355 474.8923475627089,419.87880315375514 475.0136911076261,419.47535106376745 475.04363377788104,419.08288203860866 474.7628775537014,418.13772235490615 474.43679954495747,417.26769466744736 474.36884599458426,416.6464718358475 474.2475024498999,416.01410437515005 474.17145156266633,415.44369876978453 474.13262512360234,415.06232658412773 474.148790670326,414.2000881667482 474.0346997760935,413.35993407759815 473.9198224497959,412.4501320194686 473.5120428943774,411.4762130485615 473.0484266667627,410.14960437529953 472.827555783093,409.42441194399726 472.897111324477,408.2216034089797 473.13175933167804,407.50635476910975 473.2603846543934,407.09181843406986 473.31217265792657,406.68826568237273 473.30573556630407,405.9830019250512 473.2450637938455,405.2986700750189 473.2822591147851,404.61545067006955 473.23775288893376,403.98197758197784 473.2830455467338,403.21477926318767 473.1697993387934,402.25296221574536 473.1754499982344,401.2591031845077 473.25959822221193,401.0191945937113 473.4788671147544,400.32605325669283 473.7377488781931,399.85837278177496 473.9271042275941,399.3951887365547 473.95786245702766,399.319968010881 473.7304962276248,398.8744538835017 473.3963208817877,398.3459968221723 473.3906993493438,398.299590612296 473.3356491094455,397.85849238099763 473.4044473457616,397.29906899342313 473.5792100125691,396.5936985964072 473.6237162381876,395.95140898477985 473.83646065799985,395.2880634961766 474.1471595519688,394.6667451073881 474.70785644091666,393.5368577965419 474.97972889617085,392.9686286562355 475.18603622424416,392.3660902015399 475.41421801247634,391.5468361187959 475.7402668943396,389.46394270821474 475.8381631147349,388.86251005891245 475.9595066597685,388.3450961020426 476.2467291022185,387.6706652684952 476.7321906631114,386.8006089385017 477.12703778152354,385.8055727496976 477.33171399112325,385.17312564636813 477.51378756272607,384.57172226015246 477.7945146597922,383.58770213788375 477.97655910404865,382.42679769237293 477.98387000896037,381.7125881704269 478.0672026737593,381.0381390695111 478.09793177619576,380.3438267062302 478.18129356810823,379.58646515989676 478.2492471182486,378.97505759075284 478.34792977082543,378.5604729556362 478.49921598588116,378.1668238763814 478.78806954680476,377.72127126320265 479.1287402381422,377.16184167336905 479.5380926579237,376.59134556440404 480.03893333347514,376.08381665230263 480.4329648925923,375.586277289025 480.7671111111995,375.08873691473855 481.07052822760306,374.4563019350171 481.3496533334255,373.77411097160075 481.53091134584974,372.55130508414004 482.07136489253026,368.3519805347896 482.3140811092453,366.52865517610917 482.34014987386763,366.2268162390683 482.47751332994085,364.63462262396934 482.48721265781205,364.51851149945287 482.72264709707815,363.59634759032633 482.83595155912917,363.181736915838 483.13936867553275,362.7670857339981 483.5722266737139,362.32043035369134 484.09409712359775,361.95883832359686 484.5050806613872,361.2113712914288 484.7461948872078,360.48714847455267 485.1725866665365,359.39686945662834 485.27939578320365,358.75448226969456 485.3012119892519,358.11205359135056 485.7866735503776,357.4275879455963 486.26325134246144,356.83825731207617 486.53186156088486,356.10968266718555 486.7875393424183,355.41625496855704 487.04563467379194,354.34044298843946 487.3644017779734,353.49009199620923 487.4768906808458,352.8166797455051 487.62896332808305,351.49974482518155 487.6580904391594,350.1219374226639 487.59741866670083,347.40511193621205 487.5456306631677,346.70958957407856 487.3846159928944,346.0992145270575 486.99868177075405,345.49763554451056 486.53186156088486,344.7580002803006 486.52134667371865,344.7412808352383 486.2705039929133,344.1298260571202 486.24059044988826,343.7250947006978 486.1710057815071,342.43020463950234 486.1418786703143,341.7036571704084 486.2316775537329,341.0623382059275 486.53186156088486,340.3776258493308 486.5593575537205,340.31480737554375 486.78995689260773,339.7298543500365 487.05938267032616,339.2167155581992 487.06258665258065,338.6306452516583 487.0359353458043,338.0036495854147 487.1119862330379,337.75484133628197 487.316662442754,337.51598517928505 487.77949223818723,337.27712878928287 488.17431022936944,337.008415071934 488.5076700161444,336.65566317975754 488.86444799997844,336.05521547124954 489.0982804481173,335.4038894700934 489.41061046055984,334.7691226240713 489.5926257779356,334.3654904696741 489.97127822227776,333.8568389611901 490.4648079929175,333.3802334894426 490.6735037439503,333.0539899005089 490.8418584462488,332.79080515832175 490.8709855573252,332.6868210314424 491.0546319928253,332.02334393624915 491.1614411092596,331.2448528278619 491.32082466140855,330.5293394869659 491.5255591253517,330.12458564614644 491.88233710930217,329.57499996060506 492.2836504463339,329.05746070074383 492.6250784427393,328.5078328087111 493.00454644626006,327.7923512792913 494.07336578855757,326.8600962513592 494.46171756088734,326.475241931912 494.8484673422063,325.9787164625013 495.15185533172917,325.45014185854234 495.58308221166953,325.05644719093107 496.0758255502442,324.600845047913 497.21259844268207,322.8380660287803 497.7433817884885,321.5319977561594 498.5718442099169,319.883139314421 499.5937689031707,317.59280969249085 500.141504227533,316.24355632194784 500.4740193281323,315.67291824595304 500.67147201439366,315.17637086607283 501.0816691200016,314.58582374913385 501.3316671146313,314.1921514220303 501.74186422047205,313.62146875070175 502.2572393245064,313.1238024358172 502.765361777856,312.512228869251 503.20550155383535,311.9216753253713 503.5695904426975,311.20614531764295 503.91023200715426,309.8889467273257 504.2443782258779,309.20546103606466 505.115744881914,308.07629406132037 505.55509822582826,307.5575945492601 505.94263443921227,307.10084503580583 506.0874835627619,306.85419516672846 506.4046195484698,306.3133960443665 506.9038291058969,305.3468186521204 507.60287977266125,303.992003334919 508.00497954140883,302.92030518490355 508.11991512181703,302.61504334938945 508.3319022364449,302.05098281695973 508.9071335537592,300.73596462147543 509.08352733869106,300.0303956005373 509.0851584569318,299.8766680021072 509.09080911648925,299.32474491460016 509.1741126544075,298.77509007632034 509.4241397760343,298.132503981411 509.7874131059507,297.58284646604443 510.1134911146946,297.116084536945 510.6369635555893,296.54651671869215 510.80444444459863,296.3826736510964 511.27371133177076,295.92383284593234 511.6151684552897,295.53009068837855 511.78180465789046,295.1883081260021 511.95741201075725,294.6485980869038 511.96469378855545,294.03697835915955 512.0479973263573,293.38442568678875 512.2608000000473,292.74182544014184 512.4808553245384,292.4520794272539 512.8295942258555,292.06828587775817 513.2082466701977,291.60151343257166 513.4420499911066,291.1768265806022 513.6087444481673,289.8296573549742 513.7924200107809,289.2269048287999 514.0270388908684,288.82319757388905 514.6484366791556,288.0865764459013 515.1945408855099,287.49596396955894 515.5359980090288,287.0701152840629 515.9599431110546,286.4075896149152 515.96885600721,285.7948343962198 515.8992713387124,285.37121255131206 515.7714324481785,284.88232837908436 515.7479559965432,284.47861395805376 515.8927759928629,284.10480224050116 516.1654640071793,283.6579236786347 516.4308411164675,283.14028732903535 516.7269473281922,282.44569726416375 516.8636699875351,281.69910232839175 516.9163026773604,279.7192011679872 516.7795508907875,279.14959286584053 516.9462162205018,278.46490640280535 517.598343111109,277.80124250554945 517.8799148942344,277.5114788056817 518.1145629014354,277.05467322160257 518.2059929032112,276.5148833763087 518.1833028836409,276.1211498140474 518.258567338693,275.8623238062137 518.7747580019059,275.51939883379964 519.3508048782824,275.1665583207505 519.874306446407,274.85572694963776 520.3297962099314,274.4409659500816 520.6251451164717,274.1400885794428 521.086314666667,273.67555166903185 521.5199590970296,273.528417601774 521.9358651165385,273.34369354194496 522.130841998267,273.32489858788904 522.5888075663242,273.2806985839852 523.2651682134019,273.2585587592912 523.6899580018362,273.09262946923263 524.0993686756119,272.8338002585806 524.3348031146452,272.63693059573416 524.6600364374463,272.53403587068897 525.2903179947753,272.50198081013514 525.9861355520552,272.55506080255145 526.2450755699538,272.50198081013514 526.5322980126366,272.34819610096747 526.5783771021524,271.9533408745774 526.5322980126366,271.62152023235103 526.1220717796823,270.4810700013186 525.6835631218273,269.55751644913107 525.5848513422534,268.9557493306929 525.4861395627959,268.37504584441194 525.3728642275091,267.7843858001288 525.333193102153,267.24680547392927 525.3872821476543,266.6948088022764 525.3882142151706,266.6848535774043 525.6309304320021,265.9382105622208 525.8736757760635,265.25464195170207 526.1075082240859,264.5500059927581 526.4950444374699,263.9383110466879 526.7758006614167,263.4504990603309 527.01123510045,262.9527307251119 527.1245395627338,262.4958979668445 527.2458831075346,261.90522373333806 527.4586857814575,260.0811053419602 527.5193575537996,258.87764248944586 527.4740648959996,258.3488433173043 527.3979848818853,257.7272171048098 527.3745375573635,257.2183664905024 527.0711204409599,256.523663031694 526.843783338787,255.82899742363952 526.6471753387013,255.19625425792765 526.351040000096,254.584575755056 526.0703129031463,254.20068299694685 525.7369531164877,253.84888696775306 525.5314322205959,253.36109469324583 525.228044231073,252.82125258719316 524.8639262152137,252.34118397173006 524.0144048925722,250.9473668114515 523.9165086720604,250.65534119895892 523.61958690139,249.53693523420952 523.3549670969369,248.8411347270012 522.9447699910961,247.96942993759876 522.6721402311232,247.6065937016392 522.1413568854332,246.91190278111026 520.9349993246142,245.45939343125792 520.3209124410059,244.79564002418192 520.3168928995728,244.79344967886573 519.8128191146534,244.4228827766492 519.2432093298994,244.12196849886095 518.6736286720261,243.75028549012495 518.279597112909,243.14957000274444 518.3791244516615,242.34865355066722 518.2423726648558,240.4304019928095 518.2804126719711,239.84967064054217 518.349152654293,239.23787412629463 518.6145588908112,238.2521943220636 518.7966033353005,237.71343400189653 519.1897902081255,236.893702005269 519.4794884553412,236.4169076863909 519.9624742115848,235.6192747526802 520.2214142293669,235.17230764776468 520.3565057708183,234.87249712448101 520.5628130987752,234.24969614163274 520.7983057920355,233.9697976007592 521.3253026134335,233.5084900156362 521.3670708908467,233.4719692968065 521.6470115556149,232.96529852226377 521.8897568995599,232.19752422353486 522.1704839965096,231.62561483931495 522.6106237726053,230.73389552091248 522.9067882382078,230.30910303187557 523.3088880071882,229.95615750190336 523.7708731164457,229.5723057598807 524.309724671999,229.1573883521487 524.877703338745,228.846538364538 525.333193102153,228.37972497654846 525.6131337672705,227.97587750817183 525.8186546630459,227.45704803202534 525.9626591004198,226.94920980907045 526.1528008818859,226.33742086804705 526.2628431075718,225.748889694456 526.3316122170072,225.26207692199387 526.8243555555819,223.7298231170862 527.1310057814699,222.82154638896463 527.479744682787,222.05374026176287 527.707868217025,221.45297150913393 527.707868217025,221.05803415359696 527.6010882275878,220.768163429806 527.3583428836428,220.06232399342116 527.3583428836428,219.73043298249831 527.4343937708763,218.98472206445877 527.7685399893671,218.42488973896252 527.9352344463114,218.01003308588406 528.0557915591635,217.42916886380408 528.0711415467085,216.99328081816202 528.0557915591635,216.6204413867672 528.101113344077,216.26751594047528 528.3745586631121,215.72870721295476 528.5412239929428,215.04388311266666 528.61727488006,214.669925488648 528.6472466774285,213.75715422374196 528.7386475520907,213.25928479491267 529.0266855538357,212.8654494442162 529.7848060019314,212.40955874341307 530.1036022328772,212.11971760360757 530.3309393351665,211.55986957077403 530.6189773369115,210.83301316667348 531.1197888854658,210.29419247136684 531.3471551147522,209.90027268783888 531.5445786737837,209.13246584299486 531.9086384356488,207.8036847099429 532.180481763673,206.76697470393265 532.3625553351594,205.85421378695173 532.423227107618,205.39838968391996 532.6214370988309,204.25763077888405 532.3633708942216,204.07066371076507 531.9078520037001,203.655742887815 531.8325875484152,203.46985080186278 531.8471802311251,202.95092952839332 532.1813264499651,201.7471856678021 532.5081035094336,200.31766990415053 532.5713093405357,200.04107841168297 532.7144982186146,199.41703364095883 532.9547968854895,198.36702403594973 532.1958608783316,197.72305893403245 531.8318011164665,197.18420936656184 531.7258075592108,196.85228732065298 531.7258075592108,196.29240435169777 531.801858446328,194.79868640599307 532.1044600036694,193.73981410457054 532.4078479929594,192.7041598263313 532.5146571093937,192.1442673645215 532.468548892648,191.5633815646288 532.1958608783316,190.17252431897214 532.4070615610108,189.9236055673682 532.9232522239909,189.77861197065795 533.2266402133973,189.5086209177971 533.2566120108822,189.03173425263958 533.1959111111937,188.36786758922972 533.317283783108,188.01486155338353 535.077027328196,186.39609410770936 538.732508899644,182.99464791471837 540.4623097742442,181.3127887772862 542.010095331585,180.21398329891963 542.4502351075644,180.6289438799722 543.041690225713,180.6488613326801 543.7997815466952,180.19295043119928 544.011768661323,180.25493364961585 544.4672875520773,180.6488613326801 544.7334802204277,180.71191997767892 544.8159973263973,180.73183742375113 545.2391559965909,180.6056802929961 545.25211756106,180.60241383023094 545.9980920037488,180.37997558276402 547.7578355484875,179.44608328375034 548.4326233316679,179.26017280190717 549.2603284481447,179.03108086122666 549.9124553386355,179.79906184901483 550.2013088996755,180.1520000702585 550.3145551076159,180.21621405752376 550.534610432107,180.33902525296435 550.8226775609655,180.40100843430264 551.4901835663477,180.19406581070507 551.8850015574135,179.82005491567543 552.0670460019028,179.23913985228864 552.0063451022143,178.74120017583482 551.8696224428713,178.20230879838346 551.8089506702963,177.7453177823918 551.7636288853828,176.91542596952058 551.6422853403492,176.3765305702691 551.5508553385735,175.9616026118165 551.2174955520313,175.81552517635282 549.9278344534105,175.8985029066098 549.7983644446358,175.88742858805927 549.1842775610276,175.83651858451776 549.3517293226905,175.1725762776914 549.5184237796348,174.57061682734638 549.4577520072926,174.0726676484337 549.2303857778898,173.6378177603474 549.0936339912005,173.5547994269873 548.3654562134761,173.8668749157223 548.0774473386118,173.59686630195938 548.2594917831011,173.07788166147657 548.808042666642,171.94143370958045 549.5046757831005,170.49740261456463 549.6155044410843,170.26830246753525 549.7271777848946,170.03482007642742 549.8210253369762,169.8411741296295 550.0944997831248,169.40631671977462 550.4885313422419,169.03224949445575 550.7312475591898,168.5553229119978 550.8372119894484,167.9124346054159 550.9227583147585,167.12230670719873 550.9586137884762,166.79145931242965 551.0192855610512,166.04447157413233 550.5338240001583,165.7744941636338 549.1988411165075,165.81656237650895 548.905123328208,165.8353655904648 548.880044885329,165.83755664288765 548.6874855539063,165.74354055919684 548.6680577707011,165.73354138882132 548.5006060090382,165.38054252776783 548.3347562382696,164.79736227547983 548.075816220371,163.8866358283558 547.7271064464003,163.57566306268563 547.1049222258152,163.55574421968777 546.5142826667288,163.61773165356135 545.9989075628109,163.86671701079467 544.951933553908,164.36468696472002 544.4818511075573,163.7206323526916 544.1485204481287,163.26472973939963 543.8750460018637,162.5797189284349 543.708380672033,162.0817453408963 543.8596668870887,161.62583967292449 544.6331373228459,159.57194302906282 545.2391559965909,159.3849418068421 545.4972513281973,159.34398796252208 545.5425731129944,159.05292863305658 545.4511722383322,158.7010356086539 545.1477259946987,158.09903562470572 544.7990453474922,157.6220877256128 544.4802491165465,156.95813581929542 544.1015966720879,156.29414227191592 543.85888045514,156.19008312094957 543.69137043925,156.29414227191592 543.0400591075886,156.95813581929542 542.6306775610428,157.2480423185043 542.2512095574057,157.29011199768865 541.9477924410021,157.1440234121983 541.7657771236263,156.95813581929542 541.7358053263742,156.75005787680857 541.8264488960849,156.460150787374 542.5392475592671,155.44314268656308 542.6743682275992,155.11000866867835 542.7665846613236,154.8831649388885 542.9025208889507,154.38629117968958 543.099944448215,153.86726578086382 543.1913744497579,153.4733348074369 542.7965273315785,152.6842359341099 542.2811522275442,151.77127320918953 542.235859569977,151.23232241516234 542.1751295430586,150.29831883276347 542.1144577707164,149.2812851127237 541.9324133264599,149.21929404564435 541.082892003702,149.2181785251014 540.7187739876099,149.0521650945302 540.0359471219126,148.8861913914443 539.5512719929684,148.61615520267515 539.4299284481676,148.43026112904772 539.521358449827,148.16022443707334 539.7932017778512,147.8901874468429 540.764124899637,147.3091965529602 541.2349937778199,147.1431818268611 541.5529744498199,146.68724831560394 541.5683535645949,145.75318753754254 541.5869657883886,145.5850203621667 541.6176657637116,145.31051837513223 541.6743471218506,144.79812712210696 542.0230277689407,144.09425971098244 542.5084893298335,143.59624848945532 542.5982882133685,143.49553057661979 543.08456533344,142.9532945821993 543.8887939982815,142.22615462512476 544.0894506666809,142.06902103382163 544.4187617849093,141.8111687352648 544.7545391218737,141.54777822823962 544.7860837830231,141.52339536848012 545.039081870229,141.32530446437886 545.4503275520401,141.00219124142313 546.0579482170288,140.62919613713166 546.5134962346638,140.71218580409186 547.5143037724774,140.9612343191984 550.4569575538626,141.64515027741436 553.1423024357064,142.14316547173075 554.4012635592371,142.3091835914529 555.0687404375058,142.41320880671265 556.2516506738029,142.37117640982615 559.349639338674,142.2365531680989 560.0745548801497,142.20515833212994 563.3052466631634,141.87316167994868 563.846544896136,141.7945549423457 565.3069491201313,141.58204171969555 566.1492177920882,141.51124377909582 569.5247004444245,141.23012356058462 570.4349226667546,141.16705473716138 570.8143906702753,141.20801162486896 571.3750875592232,141.39506658510072 572.8500553386984,142.14204991882434 573.2813113457523,142.35894518025452 573.9601186702494,142.37006085802568 574.5062228766037,142.24607520498103 575.2344006542116,142.03806442971108 575.7934955521487,141.91300289559877 576.2554806614062,141.810053180845 578.0864399929997,142.08005704235984 579.4522102329647,142.49512215837603 581.0905811059056,143.5321045703604 581.4773308872245,144.0876461287262 581.6666571093956,144.98517933679977 582.0307459983742,145.52302835823502 583.4571588835679,147.34903688315535 583.6222222222714,147.49134649004554 584.2759802312357,148.0551259801723 586.0956091166008,148.84304458461702 587.1579331130488,149.2171028443845 587.9467826631153,149.2171028443845 588.8262757831253,149.1750317767728 591.3141971058212,149.5900051734061 592.1330184532562,149.46498734055785 593.0739989049034,149.13296070182696 594.8628695609514,149.25694286398357 596.6533713351237,149.21598732378334 597.5028926577652,149.46498734055785 599.413980672136,150.41895385889802 602.5702235592762,152.12094518798403 604.96671488008,153.11581640283111 607.061449329718,153.88053225592012 607.8948051058687,154.18410725338617 608.1521140054101,154.27780906611588 609.4870968888281,154.77579854096984 610.1546028942103,154.77579854096984 611.216111331596,154.6097888823133 612.1570917832432,154.52684376947582 613.2186002205126,154.89977784297662 615.3416462222813,155.85479881748324 616.8586735504214,156.30959975300357 620.530320668593,157.72056885808706 624.110537784989,159.50557235174347 625.1421035520034,159.7954758318374 627.6591519858921,160.91540755494498 628.2659862186993,161.12236648792168 629.29758111306,160.9972748727887 630.3898477796465,161.08029746782267 631.6641588907223,161.45433701510774 632.1674171164632,161.71726786991348 632.6957246578531,161.99322544969618 633.9700357689289,162.4911992176203 635.5777066667797,162.78225445607677 635.7298375680111,163.40416177170118 636.4571706596762,163.6122340540751 637.3916557653574,163.81911103008315 637.5793799965177,163.86117957910756 638.4289304461563,164.27616789983585 639.1878373262007,165.0651895425981 640.219461347675,165.68593577144202 641.8578322206158,166.1839020222542 643.9210220088717,166.59892623970518 645.0432022188324,166.97291751159355 645.5627133724047,167.12230670719873 653.8412208925001,169.50256225198973 654.2514179982245,169.3620581034338 654.5960791042307,169.24473887030035 655.0548602311173,169.0876226341934 656.4399999999441,167.9832249050378 657.5198293903377,167.12230670719873 662.184507107595,163.40304631582694 661.7896891164128,162.03417885070667 661.668345571612,160.8301938068471 661.729017344187,159.71026169357356 661.9417908907635,158.96333200810477 662.3058797797421,158.3402979230741 662.3730177707039,158.2650429153 662.8204684515949,157.75929201109102 663.7913624462672,157.34433247317793 665.1571035592351,157.42731646937318 666.4313855433138,157.71833789435914 667.2202642206103,157.96736909501487 668.7979924480896,158.75525577145163 669.6475428978447,159.17029259260744 671.0431975537213,159.29530546534806 673.591033344157,159.2123221027432 675.1986459876643,158.83935476565966 676.5037444551708,158.42439706018195 678.1421153281117,158.79620971437544 679.416455566301,159.0042859162786 680.1446333441418,159.4192426383379 680.5896373476135,159.55090838653268 680.7125828836579,159.58712143456796 680.8266737778904,159.62066530942684 682.5710673352005,159.28869229386328 684.0880946631078,158.70768863451667 684.7863588979235,158.38121209701058 686.2427144534886,158.38121209701058 687.9716997690266,158.58817317406647 688.6699640036095,158.38121209701058 689.3067117797909,158.42216610262403 690.1869913316332,158.83716365054715 690.7023955626646,158.87919321795925 691.2792871253332,158.79620971437544 692.0365628872532,159.3351438434329 692.4920817780076,159.50115029513836 693.2202595554991,159.3351438434329 693.3836917761946,159.3351438434329 696.4056295537157,159.3351438434329 697.9226860089693,159.21116678928956 698.5594337849179,158.96221653203247 699.5610860090237,157.84120022377465 701.0465686755488,156.4723016343196 702.8977422222961,155.35127391520655 703.8379071146483,155.06132532883203 704.6267566649476,155.06132532883203 704.9851948943688,155.1406847453327 706.6907328853849,155.51839856250444 707.32748066145,155.35238940780982 707.9650731235743,155.06132532883203 710.6034651022637,154.48035146773327 711.8478626703145,154.02443163242424 713.3948326683603,153.19445934152463 716.2169293371262,151.74135366268456 718.8861086720135,150.86934268882032 720.7364957868122,149.99840428330936 721.8594915556023,149.16841833171202 722.2535231147194,148.46233244851464 722.4412473457633,147.73194196663098 722.6483411057852,146.92736649839208 722.7389846756123,146.6784037388279 723.4064906809945,146.3463733176468 724.4072982186917,145.76533891627332 725.3555313210236,145.54406420717714 725.8328955448233,145.43334709614282 729.2577777778497,144.96820719278185 738.6658346666954,143.6903527675895 739.8365988978185,145.6989644925925 739.9708748800913,145.9302788824425 742.0332491094014,145.55733113357564 750.4072935538134,143.77226569142658 752.3450620019576,143.10265860694926 753.5303606613306,142.69408861896954 754.6242293192772,142.31695261533605 757.263524238253,141.40610262413975 762.0257777777733,139.45610250689788 764.3017411129549,138.33607252704678 767.5170537813101,136.59302762220614 768.4272760037566,136.26102335221367 769.7622588871745,136.50999671517638 771.0058408961631,136.8829582594335 771.1709042347502,136.90841731644468 772.0681648924947,137.04897994967178 773.2211033316562,136.7590495091281 774.2526982257841,136.7590495091281 775.434763776022,136.55095438304124 776.5877022150671,135.80395397392567 777.8029726720415,134.90722376428312 778.0562037759228,134.72044273896609 778.1047295432072,134.68390727014048 779.3790697813965,134.35186056629755 780.7844237653771,134.58099435508484 781.4123168995138,134.68390727014048 782.8047384462552,134.69605919887545 783.6413564586546,134.7038284643786 783.1405157831032,135.5549002076732 782.7254544498865,136.3606286647264 782.4131244374439,136.96598903962877 781.7763766613789,139.41514532547444 781.3516451272881,141.24012373271398 781.3208868977381,142.36010057345266 781.3208868977381,143.68812167586293 781.564389546751,145.38908414222533 781.9584211058682,146.84214787714882 782.353239096934,147.5891942566377 783.2934331166325,148.4191855668323 785.4480237795506,149.4981740435469 786.8736211057985,149.8700002662954 787.7531142258085,149.88219128048513 789.8462175574386,149.91207121434854 793.9855004445417,150.15441726439167 795.5195380053483,150.24409679556265 799.5843719964614,150.61703739868244 801.7389917867258,150.8659961495432 802.0755555555224,151.0055547686643 803.7406651165802,151.69601618032902 804.1589595592814,152.05791901191697 804.3830635522027,152.250463530072 804.8936035557417,152.69200462830486 808.8022871040739,156.66926478553796 809.3257886720821,157.18828423914965 811.7659706596751,159.60186161776073 812.7522437688895,160.5756678530597 814.1503451023018,161.918011403759 815.8445817742031,163.54582463530824 815.9060982330702,163.60446570673957 816.5153208888369,164.1422737898538 817.7871853226097,165.26437667000573 818.8004010098521,167.12230670719873 819.0315828906605,167.5461333183339 819.7897033387562,170.36789393314393 819.844724451541,170.85812237288337 820.214464000077,174.14349600154674 820.0931204551598,176.46723621385172 819.4871017814148,179.82889829413034 818.6990386631805,182.65055707108695 817.9935509049101,184.84033369796816 817.910189113114,185.09706512105186 816.939295118209,187.87767423596233 816.3931326578604,190.20132383186137 816.3818313387455,190.39937516127247 816.2701579948189,192.30136879353086 816.2111173404846,193.3126869117259 816.0800162133528,194.7633150545298 815.8923211094225,196.86113008362008 815.8365135645727,197.2107774502947 815.8219208818628,197.34907483542338 815.6560711112106,198.90690662839916 815.5067072854144,200.31766990415053 815.4125102079706,201.20722967968322 815.3923251200467,201.40196608332917 815.372897336958,201.75272224197397 815.300895118271,203.03282261185814 815.2709233210189,203.55951079068473 815.2709233210189,205.01222905085888 815.6350413368782,207.0447136806324 815.6965286685154,207.247172569565 816.7936595627107,210.83301316667348 817.0307251201011,211.60858149867272 818.3050362312933,214.67880743701244 818.5323733333498,215.1788247586228 819.3188053333433,216.9058960051043 819.8527926614042,218.08084872039035 821.3698199895443,220.8179488904425 823.2695775573375,223.71656042913673 823.7857682205504,224.9600637332187 826.3190113280434,230.2482476438745 826.3481384392362,230.3053194839158 827.9823150080629,233.5084900156362 829.0496779946843,235.60047690104693 831.5772704426199,240.34637086477596 831.9324755627895,241.01228689408163 834.451155114919,245.34768609300954 836.3614275697619,248.2305155847571 836.9326102187624,249.0657010524883 837.2408915627748,249.51702338817995 838.7838128925068,251.03585452545667 838.9213511111448,251.14755926729413 841.0597471005749,252.88210236182204 841.9392402205849,253.52480727125658 843.1229368889472,254.3334127914859 848.2946011023596,257.320112804533 850.6207504498307,258.64667379215825 853.0585148871178,260.0369029462454 856.4348422259791,261.90964393952163 857.2455662365537,262.3598275844706 859.0045233494602,263.769070263661 859.9907673316775,264.97147371270694 860.2480762311025,266.58976124943 860.2474063076079,266.6948088022764 860.2189491201425,271.0485481880605 860.0069620052818,276.33681139862165 859.7488666737918,281.3551104340004 859.7035740161082,283.1181483960827 859.6274940017611,285.5017354612355 859.5781526756473,286.48057543230243 859.4462651165668,288.8198529208312 859.5975513316225,289.93915445083985 860.3006506667007,291.5517423696001 861.3322164337151,293.27270040422445 861.3427604479948,293.28376941161696 862.6356837832136,294.5988276433782 863.3776095574722,296.0465859849355 864.0920393387787,297.4390314889606 865.2377833813662,299.8766680021072 865.7004966684617,300.86098482174566 865.8865897814976,301.5013341004378 866.9440495503368,305.13225762190996 867.5355046684854,307.72457546088845 867.8388926578918,309.5074100966449 867.9311673459597,312.53432533040177 867.9457017743262,314.6687942519784 867.5970211271197,318.7539817793295 867.3388966685161,320.4968841346563 866.8388715519104,322.1966180180316 865.8032571163494,324.73907046421664 864.7457682206295,327.3378291258123 862.5911775574787,332.5431062966236 862.3676269795978,333.0539899005089 861.2561655467143,335.5940604399075 860.42283889791,337.4960804890725 858.4664290988585,342.7420250469586 856.5553702116013,348.07081638497766 854.6289613370318,353.4182407448534 852.658017109381,358.68482188967755 850.6700917760609,363.94910047447775 850.6207504498307,364.0820096046082 849.8238909440115,366.2268162390683 848.8901048889384,368.74003298638854 848.7444693334401,369.1325428978889 846.6812795449514,374.5005632819375 844.8317371165613,379.9734649435268 842.9950979982968,385.3621833215584 841.0856702295132,390.6689926160616 839.2490311112488,395.8718092129566 837.9019022223074,399.3951887365547 837.854162887088,399.52007897017756 837.5353666561423,400.1005112652783 837.1866860088194,400.64997847465565 836.9730677760672,400.984927604266 836.7060595486546,401.4050461357692 836.4633433315903,401.78639979072614 836.1712857885286,402.2463158069295 835.4268842098536,403.4171157653327 835.0935826775385,404.39106678566895 833.5910897778813,408.7224194861483 833.3645391077735,409.3414735443075 832.1209862258984,412.7231804441544 830.6193380124168,416.6807366338908 829.1483897742582,420.6183309397311 827.6920342186932,424.53488985297736 826.3481384392362,428.11126147041796 826.2510577777866,428.369608224486 824.8869477831759,432.2661064081476 824.7725947450381,432.55902970809257 823.4152131130686,436.0376312623266 822.53490443388,438.68944679462584 821.7460548836971,440.6370644540293 821.3366733369185,441.1963888600003 820.6699828905985,442.26079686684534 820.1545786596835,443.0831840795581 818.1666824533604,445.5491751883528 816.6350624427432,447.62168359576026 815.5873020018917,448.4307624984649 814.2838637796231,449.3835247854586 813.1762471253751,450.06773347157286 810.0207906702999,451.1453930938733 807.3516113350634,452.16117337241303 806.2439655539347,452.782385716273 804.2568266524468,454.4391830073437 803.3466335574631,455.2891835508053 802.0755555555224,456.0731295698206 800.9954348942265,456.73929470032454 799.9492764445022,457.48531632422237 798.7663953350857,457.98268933792133 794.9588411166333,459.34990286413813 793.3552188872127,459.7832109919982 793.1715724517126,459.8329080826952 792.4102188941324,459.99652245268226 791.76942244987,460.1335573614924 791.2612999966368,460.2993599490728 790.9748639859026,460.49500447069295 790.0136984463315,461.15371697966475 789.7102813296951,461.609104930365 788.966724437545,462.93539513211 787.6017988836393,465.48406602686737 787.4781251698732,465.71838087571086 786.7368984463392,467.122037116671 784.7052824462298,469.6275741523132 784.2497635557083,470.18794642557623 781.9584211058682,473.35766224830877 780.3661584499059,475.53381914499914 778.8539662222611,477.4744995193905 777.8029726720415,478.50807453895686 776.5286615610821,479.7611063256627 775.6491684409557,480.71486077737063 775.4064522240078,480.9215495242388 775.1329777777428,480.94255657104077 774.2227555556456,480.79777501360513 773.9347175539006,480.88064943568315 773.5908720071893,481.1846149111516 773.5552786774933,481.2155286562629 772.4791484302841,482.1649009997491 771.0381719893776,483.2423796458752 770.734784000204,483.3672669205698 770.638489770703,483.28992355056107 770.5527395557147,483.2213727964554 770.4960873244563,483.14844559453195 770.4030553316697,483.0280142106931 770.2339433245361,482.8080785801867 768.4588206649059,480.8187820708845 768.2468626773916,480.6121330234455 768.0186808889266,480.5911259482964 767.1391877689166,481.5647701547714 764.8025526613928,483.8237275771098 764.7119382186793,484.0723874741816 765.3794442240614,485.0880312297377 764.8632244338514,485.6461401627166 763.8025315556442,486.72360349819064 762.9829237759113,487.28282268653857 762.4521695574513,487.5314790728153 761.7086417920655,487.6762964357622 761.0411357866833,488.0287910880288 760.3736297813011,488.6918456815183 758.8112806684803,490.4523571234895 758.0224019911839,491.3640576543403 757.9010584463831,491.88236799876904 758.0531602203846,492.2968006497831 759.4642231183825,493.64397046668455 761.0564857741119,495.5502536262502 761.3113479965832,495.8917566644377 761.594550897833,496.2707353642327 761.6851653404301,496.3934279017849 761.7879257884342,496.5315563919721 761.9367653263034,496.73047401185613 762.0274088961305,497.7460652946611 761.9367653263034,498.4091333736433 761.777643918409,498.8732839396107 761.7094282240141,499.0721996581997 759.9804137813626,500.87456762377406 759.100105102174,501.9520435555605 758.8120962275425,502.78083430888364 758.6300226559397,503.5676518328837 758.6154882275732,506.1987659208826 758.6001091129147,509.22329090198036 758.554816455231,510.90075080032693 758.3274210985983,511.91628334857523 757.9018448783318,513.1815161269624 756.492413098691,515.5009666145779 756.0102137741633,516.0114687279565 755.7489144605352,516.2877035118872 754.307879765518,517.572883341054 753.5303606613306,517.915628647781 752.8515242098365,518.2148541376228 751.8960093298228,518.4016212581191 751.2892042240128,518.3806174230995 750.5302682169713,518.1109487045323 749.6046668800991,517.7584973284393 748.9371900019469,517.3452215869329 748.1936622364447,516.7949420057121 747.6782288782997,516.4126137238927 746.905544874724,516.0402299389825 744.948377770721,515.7495943644317 743.2039842134109,515.7285903019365 741.5801768960664,515.812566760811 739.653738894267,516.1650607163901 736.9384222151712,516.5374840919394 736.1196591218468,516.724212710862 735.2547295574332,517.572883341054 734.1017911182716,518.9817321543815 733.3889924553223,520.2458146189456 733.0402535537723,520.8259609285742 732.5086837760173,521.4679629817256 732.2052957866108,521.7585519942222 731.9018786702072,521.8624558806769 730.4309595591621,522.0900338789797 729.2577777778497,522.2713880528463 728.550629774225,522.380661933159 727.1096533333184,522.4193672311376 726.2140237938147,522.4425585835706 725.0157344427425,522.7320326201734 724.7276964409975,523.0436235709931 724.5456519965082,523.4580432972289 724.4243084517075,524.0171786496649 724.3182857672218,525.0524667358259 724.1831942258868,526.2259417566238 724.1208913353039,526.7707107079914 723.7867451164639,528.6358838187298 723.4226562274853,529.6513428666512 723.1499973405153,530.0855609087739 722.323107783217,530.8623462672695 720.7516127573326,532.0236612437875 720.3747953210259,532.3021055304562 717.37065420812,534.126345337776 716.9685544391396,534.3263462071773 716.2476584392134,534.6854165705736 712.3810635663103,535.1616702690371 709.2862788836937,535.9074929179042 708.6641237902222,536.1560999632347 708.1786622293293,536.5914202362183 707.7231433386914,537.1096349184518 707.3590544499457,537.6068463176489 706.1454442382092,539.5127874839818 704.9851948943688,540.8357125954935 704.4932671146234,541.396677781886 703.7100682241144,541.7800410413765 703.5434028944001,541.8618208830012 703.2642777885776,541.9976962794317 702.6420644409955,542.1214796544518 701.837835776154,542.1424814549973 700.8822917690268,542.038586167153 700.0020413441816,541.7690230353037 699.4559080107138,541.5634993445128 698.6370866631623,541.232043801283 696.8166422187351,540.2166327415034 695.5577102223178,539.6365721144248 695.0577142330585,539.5326757642906 693.2979124337435,539.9260656168335 692.9184735573363,540.1956307760556 692.4330119964434,540.5270877211588 692.3569902364397,540.7967317719595 692.448391111102,541.149150013167 692.7210499981884,541.4806056685629 693.4039351182291,542.3501923456788 693.7073231075192,544.0063840696239 693.6312722205184,544.4417699490441 693.4346933476627,545.0626688097836 692.797100885422,546.2648056753678 691.1441373298876,549.0192014598288 690.3406950971112,550.7185037142481 689.9766353352461,551.1736854551127 689.2330784427468,551.6509810247226 688.1408117761603,552.1890511155943 687.3826913280645,552.2509402371361 686.881879779743,552.2509402371361 685.4708168818615,552.1680501761148 684.8486326615093,552.210052053153 684.3025284552714,552.4796037005726 683.7264233245514,552.9138608435751 683.1495608889963,553.6595896929502 682.4974339982728,554.488205577305 682.0128171235556,555.35997344309 681.778955548536,555.8626366147073 681.6576120036189,556.2294710985734 681.4941797831561,556.7995490132016 681.3695448746439,557.0326231152867 680.7125828836579,557.7748791287304 680.4933139911154,558.02258897305 679.9140340053709,558.393795308657 678.9884326684987,558.9329642510274 677.4786871181568,559.8852969355066 676.8799502224429,560.2996145899524 676.4090813441435,560.5691971129854 675.7197300053667,560.9094959027134 675.0829822294181,561.1889414701145 673.6800166685134,561.4485797646921 672.3531019946095,561.5933136760723 671.5715633493382,561.6044103368768 669.7357106631389,561.739161144942 669.2275882099057,561.8430480809184 668.6887657814659,561.9457417851663 668.1960224426584,562.0286285392358 667.9387426702306,562.1114754923037 667.7566982259741,562.2263793573366 667.6199755662819,562.453999419522 667.5220502187731,562.837369513174 667.3246266597416,563.9034764714306 667.0438995626755,564.6491718818434 666.5883515449241,565.1673272373155 666.5842446223833,565.1695544917602 665.9888573441422,565.4877334701014 665.4734531129943,565.6534647821682 664.9200380017282,565.7053676536307 664.684603562695,565.4954890775844 664.6319999999832,565.364041441353 664.5534441814525,565.1695544917602 664.4936753495131,565.0215215810458 664.3981675519608,564.7840005607577 664.373089109431,564.7199271182762 664.2598137743771,564.4392924013664 664.0470402275678,563.8592891048174 663.956425785087,563.7554427961004 663.5923077689949,563.6924827185576 663.0388926579617,563.5687102383818 662.4774093369488,563.4869774125982 661.4223671181826,563.394187753147 660.1261815467151,563.249454905279 660.035596231115,563.3113014610135 659.9142235592008,564.047095300979 659.860833564424,564.4095027846051 659.8527362275636,564.4614059198066 659.8130651024403,564.7353588365368 659.7677724444075,565.0369930528104 659.7604906667257,565.0888960550074 659.7485776782269,565.1695544917602 659.7095182223711,565.4336033005384 659.1860457814764,565.4546031033387 658.5185397760943,565.3607005625381 657.6997475556564,565.3308712853468 657.1536433495348,565.4027001786744 656.4707582293777,565.6832542475895 656.4399999999441,565.6980097760097 655.8865848889109,565.962773916428 655.2724980053026,565.9937565124128 654.1268413441721,565.7970825859811 651.5790055538528,565.1750828548684 651.5653449386591,565.1695544917602 651.0409695574781,564.9574482004973 649.6825102223083,564.4392924013664 647.6800213333918,563.8902321941569 647.0659344497835,563.777516603528 646.4971402240917,563.860362965439 645.6928824321367,564.057038445957 644.0326370988041,564.4194061423768 643.3352175502805,564.492309160356 642.7810160070658,564.4194061423768 641.9994191075675,564.3575200935593 641.6806520037353,564.2127878145548 641.3877497742651,563.9178343808162 641.351370012504,563.8802492698887 641.2793677939335,563.8084597029956 641.1183531235438,563.5742784102913 640.9508431075374,563.3311878101085 640.9233471147018,563.2903014747426 640.7178262188099,562.9909321555169 640.5511900160927,562.7843126234948 640.339173774235,562.7213125235285 640.0737966650631,562.6385055494611 639.784972231253,562.50367569027 639.481555114733,562.2241520762909 639.1174662258709,561.8828210157226 638.5559537778609,561.4585627879715 638.009820444393,560.9193994019297 637.4564053333597,560.3703313088045 637.4337444407865,560.1736926428857 637.4337444407865,559.7494314564974 637.4029862115858,559.6146397811244 637.2970217814436,559.4699047011673 636.8649502152111,559.1483769462793 636.3034668943146,558.992624359089 635.6731562098721,558.765001081978 634.8843066596892,558.4733422913123 633.5962475520791,557.9153992108186 633.1633895537816,557.8325508393464 632.6779571201187,557.8226074419799 632.1674171164632,557.8291303106816 631.8138431148836,557.8336644997471 631.1916588942986,557.9066092505818 630.5063562240684,558.0413620916079 630.4044113351265,558.0612488684128 629.9982628978323,558.1419096180471 629.588065792108,558.2225703410804 629.5467635486275,558.2302864047233 629.5079371095635,558.2380422419519 629.2271808852674,558.2380422419519 628.9690855537774,558.1341537777917 628.7417484516045,557.93751331768 628.1802360037109,557.4403431660612 627.7853888852987,557.2437021492515 627.3606282240944,557.1818142885459 626.731133098714,557.2646628798684 626.3298488889122,557.3265507197939 625.7537728853058,557.3265507197939 625.0328768852632,557.3784553548903 624.1987055503996,557.575136037136 623.1517606686102,557.9894178234972 622.4996337778866,558.4556828633067 621.9915404515341,558.7042272619437 621.1266108871205,559.1803945112042 620.580477553769,559.4919788943953 620.2624968818855,559.6157534335507 619.5949908765033,559.7195617230609 618.9736222152133,559.8123925469699 618.5488906808896,559.937201028748 617.8134019982535,560.0300317702931 617.1612751076464,559.9880710067227 615.0446953243809,560.1018224438885 614.3545866808854,560.1228227035608 613.770413340535,560.1747267463943 613.0341382258339,560.1637095673359 612.7234393315157,560.1018224438885 612.4046722276835,559.9670707356418 611.0397466738941,559.0356989480788 610.5389351254562,558.7252276411746 610.0308126721065,558.4456997176749 609.2726922241272,557.9795142058865 608.7945124409162,557.793890907953 608.4304235521704,557.7320031861309 608.0364211200504,557.7828338481486 607.8948051058687,557.8245961214416 607.4368686650414,557.9596274226788 606.9061144463485,558.1661714753136 606.2912120036781,558.3220041347085 605.5258097777842,558.5285876553971 605.2378009031527,558.663340154686 605.0403482168913,558.8909635261516 604.8356720071752,559.3262434159988 604.6236557654338,559.6367537347251 604.3502104462823,559.8852969355066 603.6835200000787,560.288557643129 603.0540540018119,560.3625755391549 602.3485371166607,560.4863098654896 601.8857073209947,560.528310316673 600.3080082205124,560.3625755391549 599.3953684481094,560.1869371212088 599.0110362168634,560.1129191720975 598.3055484587094,559.9990881936392 597.1372017777758,559.84441002534 596.5910684445407,559.8543931138702 596.3717995521147,559.937201028748 595.9777971202275,560.1957667729002 595.2666004480561,560.6928915617173 594.3013571130577,561.3668860048638 593.7705737670185,561.6773141922895 592.8676333227195,562.1534756650799 591.3732668871526,562.9931196569232 590.5843882097397,563.5222955421777 590.0390995626803,563.8427039256203 589.4104199964786,564.0913224063115 587.8399735467974,564.9607493125368 587.5301193386549,564.843659244536 587.4759137849323,564.8237730183755 587.1724675414152,564.7088305985671 586.8019415609306,564.5696269038017 586.7542022258276,564.551967915264 586.3715011130553,564.4072755235247 585.153842233005,564.1619982584962 583.6222222222714,563.7865052163834 582.2880548977992,563.4593354045646 581.7726797938813,563.3864320793073 581.2790917687817,563.5002217118163 580.7637166649802,563.675857755472 579.8607762204483,564.1012257767725 579.5881464604754,564.3299179563182 579.421452003764,564.6403821631684 579.2673113316996,565.1695544917602 579.2313102222979,565.2932863909518 579.1406957795843,565.9661147870356 578.9659331130097,566.5770956199849 578.541143324459,566.929476790363 577.7749546667328,567.2288810706232 577.5322384499013,567.2388240864384 577.2895222329535,567.0532475732034 577.0014551040949,566.8046320972499 576.7886815575184,566.7317297669942 576.5767235698877,566.7626724935253 576.3185991111677,566.9593058730243 576.0985146595631,567.3526517024729 575.924567552167,567.8498017464881 575.6972304498777,568.367870791466 575.5758577777306,568.9490168002085 575.5232542151352,569.5500075037125 575.5078751004767,570.0493803005666 575.4399215503363,570.3620246979408 574.9844317866955,571.5694861491793"/></g></g></svg>