<svg width="1200" height="800" version="1.1" xmlns:xlink="http://www.w3.org/1999/xlink" xmlns="http://www.w3.org/2000/svg"><g class="geojson-features"><g class="geojson-feature" stroke="#555555" stroke-opacity="0.0" stroke-width="0.0" fill="#111" fill-opacity="1.0" data-properties="{&amp;quot;N03_002&amp;quot;:&amp;quot;石狩振興局&amp;quot;,&amp;quot;fill-opacity&amp;quot;:1,&amp;quot;description&amp;quot;:&amp;quot;石狩郡新篠津村&amp;quot;,&amp;quot;N03_001&amp;quot;:&amp;quot;北海道&amp;quot;,&amp;quot;stroke-opacity&amp;quot;:0,&amp;quot;N03_007&amp;quot;:&amp;quot;01304&amp;quot;,&amp;quot;fill&amp;quot;:&amp;quot;#111&amp;quot;,&amp;quot;N03_004&amp;quot;:&amp;quot;新篠津村&amp;quot;,&amp;quot;title&amp;quot;:&amp;quot;石狩郡新篠津村&amp;quot;,&amp;quot;stroke-width&amp;quot;:0,&amp;quot;N03_003&amp;quot;:&amp;quot;石狩郡&amp;quot;}"><title>
      石狩郡新篠津村
    </title><desc>
      石狩郡新篠津村
    </desc><polygon points="484.99433733697515,656.3323230757378 483.3761806791881,656.4964710715576 479.800798663171,656.8924462130526 479.6697266631527,656.5496963649057 479.46615728363395,654.1107441789936 479.4455935432343,653.8644997716183 478.95934555039275,649.522100324335 478.1567480036756,641.8088410796481 477.68421888002194,637.24887668679 477.4762804338243,636.6110403104103 477.23682645335793,635.878961983195 476.76269533869345,631.9855286349193 476.184201785014,627.1369791637408 476.17205577960704,627.0337903006584 475.72381866676733,623.2078646727605 475.4440527644474,620.8339923364692 475.2246382365702,618.9726244926569 474.91067710588686,616.3668054565205 474.2755604480626,611.0885897941771 472.8086900054477,596.6800335182343 472.7576884337468,596.1841135744471 472.705113998265,595.6804444738664 472.7010653297184,595.637150689261 472.08132778678555,589.6495941860485 471.83520369778853,587.552740440995 470.8215511040762,578.916628321982 470.5092502187472,576.0208010367933 469.51814200903755,566.8461605154444 469.3344664463075,565.1463532421621 469.07555555552244,562.6347070336924 468.3684075521305,555.7748519799206 468.34816420974676,555.5762431340991 468.2184029298369,554.2669466203079 467.4678846577881,546.6937644834397 466.52696246048436,537.7477239679429 466.27609065244906,535.6437524783541 466.01074267039075,533.4210341105354 465.7728615539381,531.0751312234788 465.49533843935933,528.3440886382596 464.7477328783134,520.9765689789783 464.4629571130499,518.1699846573756 464.16603534226306,515.2857011969318 463.47668400371913,508.60030800895765 462.36822266317904,498.23779204592574 462.05187310941983,495.2944185442757 461.9822884409223,494.6484594353242 461.91107265418395,493.98256078507984 461.23313914309256,487.68168546893867 461.1845259948168,487.22997563693207 459.7888713387074,475.59675065719057 459.7281704392517,475.0606257292093 459.68287778133526,474.6588009809493 459.29854555032216,471.27003660745686 458.3317002240801,462.75743939128006 457.4821789013222,455.1626321139047 457.4675862187287,455.029398986022 457.398496711161,454.3822541977861 456.52500377595425,446.2753353713779 455.39714377955534,435.5060822722735 455.32514156086836,434.81560326198814 454.9173620053334,430.916720092122 453.8957285832148,421.07823325134814 453.32425466319546,415.57488289737375 453.21502799657173,414.5712336776196 452.24655155208893,405.64692326955264 451.61545443569776,399.72021141962614 451.2756575575331,396.5303027589107 451.02807711297646,394.2196963913739 450.99653245159425,393.918787524919 450.94232689775527,393.4168988491292 450.4600693193497,388.90337185625685 450.3387257741997,387.7697006110102 450.2893553210888,387.3088915819535 449.22703132452443,377.69074321642984 448.86702023120597,374.3250951015507 448.83463088364806,374.02528097317554 448.1566099912161,367.6990768731921 447.73834467562847,363.942396964645 447.3297204339178,360.27668791194446 446.80627712013666,355.5093646788155 446.69882720708847,354.4566143656266 446.38958466856275,351.4182330352487 445.8426357759163,346.75508354388876 445.32804710406344,341.7464131921297 444.81913821864873,337.33300157182384 444.8029726720415,337.12377953570103 444.6597546667326,335.2717188858078 444.4930602099048,334.25110642646905 444.8029726720415,334.2024486097507 445.88795756106265,334.03228611074155 448.4212006685557,333.730183411506 448.5886815574486,333.57473391474923 448.7343171129469,333.2959800933604 448.930109553854,332.9183505193214 449.2181475557154,332.44972119951854 449.31846132630017,332.3641595678055 449.87752709689084,331.88773266173666 450.3856495503569,331.4290569353034 450.81853667565156,330.95038919121725 451.28052178490907,330.3361801718129 451.57662799663376,329.84639514784794 451.8872977636056,329.4821143990848 452.1907440071227,329.26332978217397 452.92701912194025,328.70133389369585 453.3590324339457,328.2437716849963 453.4877160107717,328.03494167048484 453.6398177848896,327.61848059040494 454.07995756110176,326.99538695346564 454.2239619983593,326.70331126259407 454.5338453332661,326.2035231626942 454.8372624499025,325.72484515066026 455.0953286541626,325.1728768970934 455.9756373333512,323.46466616907855 456.24101444275584,322.94376007205574 456.9085204480216,321.7886704187258 457.2698422614485,321.1389325807104 457.95546532969456,319.906105247268 459.2362717867363,317.99905505380593 459.6076133262832,317.477017702593 460.0097422222607,316.9883663771907 460.63195556984283,316.31082636187784 461.140019768849,315.8632370759733 461.4361551076872,315.5411194251501 461.55024600203615,315.405610767717 462.42245734401513,314.78140629746486 462.86984977067914,314.2460470289225 463.5446375539759,313.4396671570139 463.8933473280631,313.0853581833653 465.22026200185064,311.4392801558133 465.8958653440932,310.66959781147307 467.4274271004833,308.9612853767467 467.8223033458926,308.48257348214975 468.5504811236169,307.6173549260129 468.99059177248273,307.00308707210934 469.07555555552244,306.8798494472867 469.38462333148345,306.4310832283227 469.57394955388736,306.00454862456536 469.78512110945303,305.054869665415 469.88464844808914,304.60945896140765 470.02946844452526,303.85974841506686 470.17268644971773,302.70340864220634 470.3094091094099,301.93257905566134 470.3401382114971,301.56933621363714 470.39274177420884,301.1006465809769 470.46154001075774,300.63299571623793 470.9615360000171,298.64254043105757 471.060247779591,298.2059552798746 471.1282013297314,297.5084091075114 471.15086222230457,296.7686336970655 471.14358044438995,295.2590850109118 471.1969995662803,294.43600714649074 471.2956822187407,293.80063216015697 471.408957553911,293.36299862957094 471.6063811130589,292.83199102658546 471.83371821511537,292.4054326083278 472.09181354683824,291.9578393822885 472.59993600007147,290.5948603579309 473.29007377068046,289.42850031744456 473.53278998774476,289.12634229526157 473.7302135467762,288.9286357316305 474.040912440978,288.67874304339057 474.328950442723,288.49099344719434 475.1150620444678,287.8167332680314 475.17850089247804,287.7623077016324 476.0353039930342,287.1268753162585 476.77079267567024,286.5026383633958 477.21093245153315,286.158287620754 477.8929728852818,285.47066439926857 478.23443000903353,285.2007332641515 478.8792751219589,284.7419696172583 479.94159911829047,283.85663171642227 481.0791584427934,283.07570495054824 482.003944220487,282.26370321796276 484.03637577965856,280.74294725840446 485.59141398768406,279.71094888966763 486.3956717796391,279.2011066497653 487.3738475519931,278.4312424447853 487.6473219982581,278.0924390376895 487.85927998588886,277.8580517495284 488.3067306667799,277.7325198879116 489.1643493261654,277.7014468429261 490.02121068094857,277.7436373984674 490.7485437724972,277.69140908896225 491.49210066499654,277.3892365054344 492.1596066703787,276.8160433578887 493.1232188871363,276.04513183934614 493.3481384392362,275.64989727083594 493.3659351040842,275.6185440204572 493.38859599654097,275.2330666752532 493.3481384392362,275.13308801321546 493.0852080070181,274.48322570952587 492.46299465966877,273.2967926238198 492.0762740052305,272.74582532257773 490.3925522204954,270.96506104647415 490.08188245329075,270.59065418085083 489.9241008925019,270.36741751257796 489.51308822771534,269.78864890208934 488.9054384356132,268.86102456302615 488.8674566827249,268.3089274340891 488.98880022764206,267.6634861106868 489.58025534590706,266.5803214262123 489.74770710768644,265.95599181589205 490.24126600532327,265.5294263177784 491.84404354856815,265.2949869456352 492.36512756627053,265.10170027212007 493.0398862223374,264.8206284606131 493.3481384392362,264.563352284953 493.73730577062815,264.2384872342809 494.21551468095277,263.81083890778245 494.8368833423592,262.7687704131822 494.9541782187298,261.5712020032224 494.82150422770064,260.9568180080387 494.9120895433007,260.3735477166483 495.0642204444157,259.77035901899217 496.03514356631786,258.68715922825504 496.5205760000972,258.43719551427057 497.20264556095935,258.208348510263 497.76412888173945,258.02057542308467 498.41951800882816,257.6728248829604 498.9017173333559,257.4162210606155 499.97942044446245,256.625250875426 500.484280661447,256.02641230623703 500.6469264497282,255.8330782816629 501.29742222232744,255.04098310077097 501.5683917370625,254.48997449682793 501.7682911005104,254.08334638545057 502.05635822948534,252.97904387593735 502.1930808889447,251.89581387717044 502.38968888891395,250.959282388445 502.3977570987772,250.36602926219348 502.54988800012507,249.78273360419553 502.78532243915834,249.24055215803673 503.08064221870154,248.95950203534449 503.54344288713764,248.76172286609653 504.6583704461809,248.37620300834533 505.99335332983173,248.08515290974174 507.1463208961068,247.70963097538333 508.147128433804,247.19968174019596 508.5112464497797,246.90747034817468 508.7693417813862,246.39751943340525 508.90848199115135,245.7742179784109 508.9432888888987,245.6164725421113 509.03227221337147,244.90209721639985 509.09783734055236,244.3788232600782 509.1560915625887,243.91886280395556 509.12533333338797,243.00225901551312 509.26126956078224,241.56461159978062 509.3526704356773,240.69023592205485 509.56465755042154,239.8780528565403 509.9141828835709,239.16922033193987 510.26292178500444,238.3781508791726 510.77829688892234,237.64931517501827 511.34790667379275,237.07710842275992 511.7346564551117,236.60825466306414 512.2047097743489,235.8582947588875 513.0081520071253,234.4828022950096 513.4183491129661,233.93174717144575 513.6910079999361,233.25401605648221 514.0251542187762,232.62956100108568 514.7379528817255,231.7651528881397 515.1926853405312,231.2851692690747 515.6174168747384,230.5973910926259 515.8294331164798,229.90965097228764 515.8455986632034,229.14967068075202 515.8828231111402,228.55632441904163 515.8909204480005,227.80637971451506 515.9152124586981,227.66638231399702 515.9815348907141,227.28526898287237 516.2396302223206,226.81635636935243 517.1951742295641,225.82640899781836 517.6053713351721,225.29637410509167 517.6207504498307,225.28417420899495 518.7048906525597,224.42086001415737 519.2947437796975,224.10974135593278 520.1297015467426,223.81862225133227 520.9792811234947,223.79750230285572 521.6920797867933,224.04642158030765 522.2762531271437,224.29638059879653 523.2018253370188,224.5041795874713 523.9073713495163,224.62861889682245 524.7342026525876,224.65973871422466 525.34834779019,224.58753913186956 526.3264944355469,224.2853006477817 526.9940004409291,224.00418172078207 527.7221782187698,223.44194289355073 528.0911313352408,223.1030629731831 528.5943604337517,222.8275426904438 529.5191753387917,222.81638267252129 530.217410446261,222.66086236812407 530.8468764444115,222.3586214922252 531.462565319147,221.64641794533236 531.8907629796304,221.158614313812 532.4925582223805,220.47308755863924 533.2814077725634,219.7019176527392 533.9764388978947,219.29859149910044 534.7531424426707,218.8485838447814 535.5573711076286,218.8063830844476 536.2248771130107,219.07746784191113 536.823584881844,219.52527503983583 537.460332657909,219.77523869962897 538.2346477797255,219.86860000074375 539.2282317938516,220.0875229112571 540.3803546738345,220.45196731988108 540.6190222223522,220.56528857949888 541.0632397938753,220.7752507739351 541.8314382222015,221.158614313812 541.893333333428,221.18949457269628 543.0050277833361,221.74417855549837 543.6272120035719,221.8374991014134 544.2412988871802,221.5664174168487 544.417692672112,221.42753643670585 544.7574895502767,221.15973432315513 544.7601692444878,221.158614313812 545.2049111040542,220.97309267625678 545.7809871076606,220.99309285945492 546.410453105811,221.1497342386865 546.5574867626419,221.158614313812 547.1087173406268,221.19197459338466 547.1508642703993,221.158614313812 547.4121053299168,220.95197248074692 547.737367779715,220.34860612492776 548.0966215680819,219.73859817930497 548.4881773226662,219.32751196267782 549.0569715485908,219.1185885372106 549.5958522311412,219.18082957633305 549.8612002134323,219.31635178416036 550.0287102294387,219.5241550229839 550.3547882381827,219.9308408482466 550.7034688853892,220.37860647623893 551.1581722170813,220.95085247029783 551.4850657848874,221.14861422911054 551.5234261903679,221.158614313812 551.9243900018046,221.26305517362198 552.4325124552706,221.22193484037416 552.5937601422193,221.158614313812 552.9106631112518,221.0342132312362 553.5708873388357,220.8264112812467 553.980298012495,220.80529107316397 554.7999057921115,221.10753387701698 554.8857142614434,221.158614313812 555.2011608746834,221.34641582757467 555.5652788907755,221.45085660682525 556.1186940018088,221.58529754390474 556.8088317725342,221.29421542136697 557.08143240551,221.158614313812 557.2490006755106,221.07525359548163 557.4763377777999,220.751970539568 557.5750495573739,220.32528584927786 557.287040682626,219.76303852692945 556.8161135503324,219.21195009013172 556.6826240000082,218.7852627010434 556.6340691058431,218.62857980007539 556.6648273352766,218.16969072353095 556.9002617743099,217.65079941845033 557.3242360035656,217.1807882236899 557.6146915555,216.8796605747193 557.9464202240342,216.53517136746086 558.3638991074404,216.02519684261642 558.4699217920424,215.18073044205084 558.4237844480667,214.52402788720792 558.2191082382342,213.49290889909025 558.095288889017,213.0940126447822 557.9763628942892,212.71175645542098 557.941585123539,212.11613003344974 558.2045155555243,211.34725377167342 558.7425515520154,210.67053984763334 559.1446804481093,210.13939190341625 559.2660531200236,209.69048738275887 559.2425766685046,208.47265669255285 559.1446804481093,207.26366049028002 559.1980995698832,206.5669738521683 559.3873966649408,205.92132885119645 559.6454919964308,205.43133355636382 560.3210953387897,204.93129652144853 561.2135208961554,204.41565725556575 561.4335762205301,204.28900744422572 561.8001117866952,204.07675085315714 562.102713344153,203.81673027656507 562.648001991096,203.01554512919392 562.8761837797938,201.7965609523235 563.0347808997612,200.86871756654 563.0428782363888,199.72304972651182 562.9967408925295,199.10854966344777 562.8146964480402,198.48292691999814 562.5420375609538,197.4317378771375 562.1099659946049,196.6905382621917 561.0476419982733,195.56705328286625 560.2134997902904,194.5880601502722 559.1519622257911,193.42124017112656 558.7878442099318,193.0045488270116 558.5750706631225,193.0045488270116 557.5151642170968,193.33678982278798 556.8468717797659,193.54681550431997 556.1332575572887,193.7134757542517 555.5871242240537,193.27566231420496 555.4204297672259,192.90005583991297 555.5418315662537,191.92105198273202 555.5572106809122,191.14987164648483 555.1324208925944,190.6397639354691 554.7683028765023,189.99411670089466 554.7149420089554,189.42071779252728 554.8516646685312,188.22390874288976 554.982183253509,187.82273075985722 555.1397026702762,187.33821985148825 555.5264524515951,186.28582251118496 555.4730333299376,185.48349950282136 554.9341817743843,184.94229503476527 554.4001944463234,184.6555697969743 553.8653624319704,184.36888422782067 553.1517773370724,183.9421357701067 553.0911055644974,183.57763670606073 553.2051673316164,183.17093015857972 553.5231480036164,182.52522310893983 553.6291415608721,181.36838703911053 553.6825315555325,180.48267320619198 553.773145998246,180.06591970880982 553.9778222080786,179.7536241657799 554.742438001791,179.71805781475268 555.2675415609265,179.62808172457153 555.9277657885104,179.3579932260327 556.1106257920619,179.15795711317332 556.2610964480555,178.99348729819758 556.6785753316944,178.26447380532045 556.7789182293927,177.86776024434948 556.9286024534376,177.2742889925139 557.1486577779287,176.54527035122737 557.5887975537917,175.9929238552577 558.1802526719403,175.70178721792763 558.8178160071839,175.4928263523616 559.4707293298561,174.80493055674015 560.706184874638,173.97140340827173 561.4036626772722,173.79472761251964 562.305758435512,173.36800062650582 564.3009946737438,172.61780588992406 565.6812702153111,172.18107474432327 566.1659162170254,172.0739322641748 567.3803419877077,171.80543572216993 568.2679615716916,171.21194969076896 569.155522901332,170.5240417981986 569.6935588979395,170.08062543848064 570.2696057744324,169.60720166633837 570.9977835519239,169.09592856408563 571.5139742152533,168.90920699056005 572.4387599928305,168.8981245183386 573.1596851199865,169.2737680269056 574.7980559929274,170.06506204168545 576.0877753458917,170.17840675683692 577.9454151111422,170.14731998345815 578.7649937636452,170.32399842637824 579.2415715556126,170.30847505375277 579.394518016139,170.30399408011 579.9859148800606,169.95947897125734 580.612963328138,169.29265220963862 580.9560224427842,168.43914169620257 581.4196095431689,167.4488769082236 582.1097764410079,166.45980837149546 582.47386532987,165.72075498127379 582.5782277690014,165.61961107712705 583.2465493334457,164.97053667716682 584.0281462328276,164.24148118821904 584.5062968890416,163.594643662218 584.7943348907866,163.12680865818402 584.9844475449063,162.67889770970214 585.2571355591062,162.17877285403665 586.0686460018624,161.1263067513355 586.531446670182,160.34498626209097 586.7507155627245,159.678133162437 587.0468217742164,159.40690223453566 587.9619082240388,159.49696582002798 588.4190291059203,159.54253774142126 589.3065904355608,159.52141221630154 589.7418951111613,159.4025010812329 590.3309326791205,158.9901526645408 590.4385282275034,158.90280961012468 590.9603986773873,158.47893728362396 591.4458311111666,158.27108193200547 592.2273988836678,158.13548572733998 592.9329448960489,157.90650441712933 593.7217944463482,157.32306722708745 594.6012875663582,156.6239970421302 595.5495206684573,155.91600238345563 597.217047779588,154.86350920191035 597.6393908908358,154.52669441822218 597.7385104497662,154.48228188522626 599.1110964338295,153.86650728207314 599.6750555591425,153.77984258317156 599.9711617708672,153.7020603896235 600.2737633282086,153.62315785087412 600.6427164445631,153.58202609134605 601.1637422081549,153.52528985915706 601.4728682382265,153.49088000803022 602.1055382186314,153.55309781664982 603.8669128818437,153.31082838226575 605.0765035520308,153.23748731525848 607.5717066525249,152.97517178481212 608.9633708943147,152.82844941469375 613.14876199828,152.37723856128287 614.7111111111008,152.20694895915221 619.094770460506,151.72924917849014 627.5788280037232,150.80741678993218 627.8668660054682,150.7767676737276 628.2778786702547,150.73451509972801 632.8314073316287,150.25881302863127 638.9836939948145,149.61505928845145 642.4441695574205,149.25294956209837 647.7291382330004,148.72058726788964 648.0527404374443,148.6883373989258 651.6442879999522,148.32710656471318 659.7642857813044,147.44347318582004 663.256306005409,147.0626343729091 664.9715433245292,146.875575796701 666.47403622407,146.7121645080042 668.1229511112906,146.54543206380913 675.01634798944,145.84965198021382 678.480056661414,145.47621303697815 682.414634211571,145.05275747011183 687.5288888888899,144.53535082563758 687.74329355394,144.51370382960886 689.1745997939724,144.37585923541337 690.86475867033,144.2136066450039 692.4303408924025,144.06239753670525 696.0040917904116,143.65342424367554 697.1173882312141,143.5622344292933 699.8706866631983,143.33552015735768 700.1886673351983,143.30883140023798 700.2040464497404,146.23757493012818 700.36098332447,150.1343356994912 700.487191096996,151.66258959867992 700.8003366686171,152.95404568960657 701.174212266691,154.48228188522626 701.4589297778439,155.6458875744138 701.6628195556113,156.37836974160746 701.8505146596581,157.15410144324414 702.1175228870707,157.9498760465067 703.2461984426482,160.8350723127951 703.4808464497328,161.58970447606407 703.8101575679611,162.29992319329176 704.1386240001302,163.0523102618754 704.5464035556652,163.63357319135685 705.502733994741,165.8096159475972 705.8320451130858,166.62764743581647 706.1613271040842,167.31664658733644 706.2244455538457,167.4088677414693 706.6152440037113,167.98347876174375 707.0392182330834,168.4791506935726 707.6816166685894,169.74939293059288 708.5287495679222,171.57982798293233 709.0619213369209,172.97900067915907 709.335395783186,173.76140084606595 709.4381562313065,174.05590048246086 709.6727751112776,175.8851429282804 710.0336308906553,178.98572588845855 710.128264874802,182.6463633228559 710.0182517761132,184.62556504347594 709.7512435485842,187.31709673814476 709.6811054650461,187.82273075985722 709.6258513351204,188.22054825996747 709.3280848781578,188.86732035607565 708.6072180053452,189.9863556418568 708.5724111077143,190.0186000400572 707.61931377789,190.9120802153484 706.8830386631889,191.42990836361423 706.0521004374605,191.838841402845 705.2220068977913,192.13996001909254 704.8651997868437,192.1922466866672 704.344144896022,192.26889644056791 701.3658977849409,192.3555474380264 700.6296226703562,192.50560641032644 699.8456082205521,192.48448374524014 698.9677462187828,192.48448374524014 696.6011684407713,192.61333997396287 695.7694437832106,192.70783183141612 694.89236821339,192.80784434179077 694.550153785036,192.86117099545663 693.5129082312342,193.02343116910197 690.7854455468478,193.36679350270424 689.8930491164792,193.58237983525032 689.0305371023715,193.66907037002966 688.2942911149003,193.775723288476 687.5288888888899,193.83501044940203 687.4471873423317,193.8412912072381 684.9859173261793,194.14244735165266 684.1550082276808,194.2935453459504 683.4340831005247,194.57357844739454 682.7439453297993,194.87473368586507 682.196210005437,195.24145609373227 681.0205815468216,195.84376454603625 679.9704326826613,196.53164090088103 679.296431331546,197.2194753077929 678.8109697706532,197.73616992356256 678.2146795521257,198.48960759851616 677.8077155557694,198.94297321420163 677.474355768878,199.62304005690385 677.1992793314857,200.18197357148165 676.7413428906584,201.11650018091314 676.459800234763,201.99993875750806 676.1782284515211,202.79664687125478 676.0520206791116,203.6144740791642 675.832751786802,205.4446545287501 675.832751786802,206.80138976703165 675.9581440000329,207.6825675733853 676.0528071112931,208.5648622579174 676.2251522276783,209.361548889603 676.538268672186,210.1793940482894 676.9929720036453,211.3638945822022 677.5099490986904,212.41838362347335 677.9962262187619,213.21505764621543 678.3408873244189,213.86068330612034 678.7956197832245,214.4640257381252 679.4072891166434,215.32517516543157 680.0027637759922,216.0773983783438 680.8175364551134,216.8518998507643 681.3822820123751,217.39079333777772 681.8677144462708,217.9285656074644 682.4478099913104,218.38081500690896 684.3758791112341,219.90860054723453 685.6137813333189,220.72753029107116 686.3470563555602,221.158614313812 686.9309675521217,221.50193697144277 687.5288888888899,221.86173923738534 689.4698904462857,223.02974292851286 690.0953369031195,223.45422288181726 690.7086082276655,223.86974211927736 691.6803177813999,224.45085986389313 693.8276266667526,225.8075291995192 694.5169780052966,226.23748424247606 695.0347706596367,226.60415941505926 695.8179986774921,227.1208316758275 697.4798460018355,228.0463750709896 698.5065766685875,228.68524155701743 699.1732671149075,229.09967189421877 699.8318602241343,229.44410332670668 700.5527562240604,229.89629133918788 701.0543833315605,230.3051997758448 702.6846859947545,231.76847277162597 703.4687004444422,232.37181083037285 704.7381764551392,233.18953870632686 707.1354833351215,234.84726515662624 707.4243368960451,235.08277379209176 709.6436480000848,236.89047897607088 710.9818931201007,238.02373269182863 711.1954822259722,238.203721678874 711.8014717724873,238.8106835600338 712.2926131200511,239.3025315607665 714.3153162241215,241.32462956616655 716.4237695432967,243.5766516609583 716.713467790396,243.88666553940857 718.5791757653933,245.78089735953836 720.4433108766098,247.65299666603096 721.9616780516226,249.15904085658258 722.7637804374099,249.95491475664312 723.503288661479,250.701511622814 723.76706377964,250.9670415041619 724.9110893226461,252.15138363995356 726.8553531165235,254.4099847577745 726.9093839075649,254.48997449682793 727.2623171129962,255.01214686816093 727.7332151182927,255.63646454032278 728.0147869014181,256.2397034714231 728.9403591111768,257.7239776387578 729.9743715556106,259.5959051470272 730.6491302116774,260.9734554286697 730.8999437653692,261.79116725432687 731.4792820053408,263.92190036620013 731.870866887155,265.40720752620837 732.1063304534182,266.2681768175098 732.0278328888817,268.35555879370077 731.8239431111142,270.0985494299093 731.6831717832247,270.9172704137163 731.2600131129147,272.0148529167054 730.8692437902791,272.6391669951845 730.5083880106686,273.0912748076371 729.4735600071726,274.0377590954886 728.8157533297781,274.51209962845314 728.3918082275195,274.9209331564489 727.8278491024394,275.32864623784553 726.7064844515407,275.84517514088657 725.4604848924791,276.60940875695087 724.9458962206263,276.89046696352307 724.4523664497538,277.15932754823007 724.1982906596968,277.2981767478632 723.5413286685944,277.7180831198348 722.6400193423033,278.0824412906659 720.8114775607828,279.33659545955015 718.3235271112062,281.5849868635414 717.8405122277327,281.9692944352282 715.6543477760861,283.7099881931208 713.9997531023109,285.276274022297 713.8946042312309,285.3762485207408 713.3177126685623,286.5003989454126 713.0964048783062,287.8167332680314 712.9535946524702,288.66646634350764 712.5895348907216,291.9156113002682 712.564456447959,292.47101396421203 712.498920448008,293.9139192936709 712.8791748834774,297.57950740435626 713.7133753459202,303.36875053547556 714.1526995626045,305.0559892891324 714.6081893262453,306.5754738394171 715.0936508871382,307.9505592008936 715.7935171129648,309.25010349979857 717.2328624356305,311.9269029914867 718.3558873316506,314.0727917383192 719.1593004374299,315.55003604409285 721.1164966686629,320.00606553338 721.5955502649304,321.1389325807104 723.0623333262047,324.6075129705132 723.2557373441523,325.0651219925494 723.6392248888733,325.7448367336765 724.8787582295481,327.9394227702287 725.5632162133697,328.97013729671016 725.9855884516146,329.605380572204 727.8820546561619,331.64448110270314 728.6636515556602,332.24757180083543 729.2316302224062,332.68625497457106 731.2494690988678,334.93523350183386 732.083669560845,335.9758338385727 734.7391008996638,339.9950594237889 736.0740837833146,341.8763898869511 736.4381726720603,342.38945931900525 738.8201004372677,346.6140350642381 740.0175742293941,349.03055844502524 740.5337648924906,350.23773171030916 741.4747162170243,352.0278712963336 742.0208786774892,352.8186117063742 743.7934672783595,354.4566143656266 746.0096617814852,356.5043820501887 746.622962232912,357.03185274713906 747.3673055572435,357.67261976737063 747.7176173226908,357.9724540182506 748.285625116434,358.4610631230171 748.4959811129374,358.7453450600151 749.3018117690226,359.83477625460364 749.4571757797385,360.2700516472105 749.7112224426819,360.9796512129251 750.8213149014628,363.97353896469576 751.0162917830748,364.49875479075126 751.1141588764731,364.7253032377339 753.1401533441385,369.4113748416421 754.1717191110365,372.6172289660899 754.475107100443,373.84539231902454 754.475107100443,374.69930259144166 754.3845217849594,375.510996277153 753.8683311217465,376.6980509502464 753.3375477761729,377.61411181878066 752.5041920000222,378.4680088839377 750.1076715519885,380.94529680127744 747.5590784569504,383.5680637580808 745.2232297814917,385.75329491548473 743.8121668836102,387.06461607437814 743.5500228835735,387.3144478375325 743.0733868373791,387.7697006110102 741.5669617778622,389.20872389158467 739.549122901517,390.81206562701846 737.0166370988591,392.53975037299097 736.0740837833146,393.00046956609003 734.8628619947704,393.5923761319136 734.1646560142981,393.9343765959493 731.7681355662644,394.6427189477836 730.7146953387419,394.9291970965569 730.166144455201,395.07909134734655 726.5648975644726,396.05839818390086 721.7662060088478,397.38301434076857 720.9675988765666,397.60285699670203 718.5711075556464,398.26462216547225 717.6721866525477,398.49441686214413 716.5022671076003,398.79420088545885 715.4763811270241,399.05625179124763 712.5636700160103,400.0966182870907 711.8014717724873,400.2984715763014 709.4947793352185,400.9093865323812 709.1322924373671,401.00595604244154 708.4251444338588,401.19245979754487 708.3928133405279,401.20137328247074 704.7365453368984,401.8875507604098 704.2786088960711,402.0429566804669 701.0648982187267,403.13659106299747 699.6554664392024,404.05259251763346 699.3213202204788,404.3657197726425 699.2298902187031,404.9685505593079 699.1999475485645,405.7180299863685 699.503393792198,406.55072446755366 700.6781775645213,408.5869428689475 701.2825651200255,409.6339435681002 701.8699424426304,410.65204201469896 702.3853466740111,411.7212566390517 702.9015373369912,412.7948231808259 703.5908886757679,413.9395292797708 704.0544757760363,414.7100045858533 704.7680899982806,416.08336068619974 706.43643266859,418.8100657229661 707.4550659982488,420.6186062945635 707.7135691093281,421.07823325134814 708.6970168888802,422.8268061437411 709.4688853333937,424.12909511552425 710.623425763566,426.07524158561137 710.7585755592445,426.3272714926279 711.7675095607992,428.2167680944549 711.8014717724873,428.28051441925345 712.2011831182754,429.02940259798197 712.33065312705,429.2648035194725 713.6575386738405,431.67271408077795 715.3266677760985,434.23274905164726 715.7206993352156,435.0442444704822 715.7506420053542,435.8979802952381 715.468254663283,436.6850515776314 715.321017116541,437.09804917121073 715.2959386737784,437.166868713859 715.0499602205819,437.62754351401236 714.507059996482,438.64556499308674 714.0215984355891,440.934649070201 713.3840642276919,442.6630575574236 712.4746575645404,443.80762338184286 711.8014717724873,444.38242199172964 711.1097320106346,444.9732446525595 708.7132115627173,446.20096348732477 707.4688431218965,446.7626884505735 705.6184560070978,447.22114713670453 699.6417184425518,448.0736813808908 697.1084462080617,448.49001657235203 696.0412871112349,448.5432872840902 695.4393462330336,448.57321958441753 690.6462762097362,448.63540202827426 689.8728057742119,448.71309009793913 688.5831446757074,448.8440887518227 687.6728933261475,449.2181818356039 687.5288888888899,449.31697012798395 687.0660882205702,449.6344751092838 685.7011626667809,450.8622104288079 683.1072477867128,453.5485642150161 682.1784133404726,454.3822541977861 680.2552084481576,456.1083694329136 678.648382236599,458.10645024169935 677.798802659614,459.08438494295115 677.3133702258347,461.22785926400684 677.2526984532597,463.351334441395 677.1766475662589,466.09749081509653 677.2106097778305,466.3306181743392 677.4096644551028,467.6781490826979 677.434742897749,467.84574077569414 678.1928342187312,470.11457090987824 679.0278211130062,471.6751835576142 679.8619924481027,472.8606510941754 681.1670617884956,474.71206597430864 682.0465257813921,476.2937872217735 683.0327988906065,479.2073816820048 683.7609766685637,480.6225698275375 684.5037180018844,483.1609932821593 685.2318957796087,486.21990866871784 685.4147266560467,487.53076932701515 685.4102119539166,487.68168546893867 685.3694339982467,489.03017718339106 684.8540588942124,490.6528804274858 684.3532473458908,491.6095878277556 683.6557695432566,492.44202889170265 682.5635320036672,493.2122560994467 680.424291327945,494.35658460570266 678.3772962132934,495.83381526428275 677.3781197939534,497.12344805151224 677.345730446279,497.1656405880931 676.768868010724,498.9336451457348 676.2073555627139,500.84814988222206 676.2073555627139,502.82588696910534 676.3440782222897,504.11548277171096 676.7081962383818,505.280815714621 677.4516948766541,506.8001710535609 678.0367129031802,507.51489765325096 680.3951642168686,510.3981943123508 681.9057253261562,512.100620609126 683.2010662115645,513.5611235786928 685.218147783191,515.9959682545741 685.7189593315125,516.8271674572607 686.0377264355775,517.5973176332191 686.311230008956,518.7215559360338 686.583859768929,520.5104984374484 686.5766071182443,520.9765689789783 686.5539462259039,522.4247938046465 686.4932744533289,525.0881466931314 686.2505582366139,526.2323256025556 685.5984022187768,527.5839998724987 685.0393364480697,528.4528723038966 684.2180975503288,529.7268320819712 682.8224137671059,531.2460350978654 680.304578901385,533.2845279654721 678.8643888924271,534.3043472687714 677.1936286721611,535.0178746832535 675.6021524481475,535.698122714588 672.4467251201859,536.3228802020894 670.6885835663415,536.5526246879017 668.473292003735,536.553663351282 666.8502711183392,536.282931564725 663.3752320001367,534.7216138478834 663.256306005409,534.6552587220795 658.4915766613558,531.9962050116737 656.140377998352,530.8132621515542 654.2746408960083,529.8744462329778 651.5285659875954,528.4184754173621 651.2623733193614,528.2831250203308 647.5244037689408,526.379901918699 646.721019790275,526.1424374398193 645.1279124482535,525.6730209404486 643.0339935574448,525.5265628076158 641.2281126684975,525.9426858483348 639.7110853404738,526.8382508551585 638.9836939948145,527.450806317036 637.6859355592169,528.5438382623252 637.0419060053537,529.0853986201109 634.6300064427778,531.2071642647497 632.037693553837,533.7051120619872 631.0514204445062,534.7249296063674 629.3361831255024,537.4703221166274 627.3959971272852,540.5695827597519 625.7357517938362,543.0951981827384 625.5909026702866,543.316027998284 623.7858082134044,545.6673657746287 622.139310876606,547.5936873756 621.4200459948042,548.4348054850707 619.2047835591948,551.0345994912786 616.3475595947821,554.2669466203079 615.5638946702238,555.1534997525159 614.7111111111008,556.1437079632306 614.4716280036373,556.4217676442349 611.8170122239972,559.6894744156161 609.2700211200863,562.9338898361311 605.9478993351804,567.0735994620482 603.8822919965023,569.5878761495114 601.3967590969987,573.7307880597655 598.591701788595,579.0974441373837 596.1862684445223,583.7694514597533 594.2394414650043,587.552740440995 594.2234215538483,587.583774007915 590.4385282275034,595.3465150009724 590.4304308908759,595.3631695495569 588.4894293334801,598.9820521767833 587.609149781405,600.1058354856796 587.29038267734,600.4009785128874 586.2134659982985,601.3949568954995 585.0289537708741,602.4710832966957 583.9682608925505,603.4340216976125 581.8452148907818,604.9727343373816 580.7837064535124,605.6383299816516 578.5991731199902,606.886366840743 577.6581635414623,607.344564498635 576.2026526719565,608.4672309869784 574.8377271182835,609.5078225101461 574.1702211129013,610.1734057797003 573.8158606791403,610.6492891162052 573.6564771272242,611.0830785725266 572.3246982258279,613.1087237469037 571.7987791075138,615.2186963408603 571.7729142330354,615.9575059154304 571.9039571058238,616.5698375820066 572.1410226632142,617.6514081128989 572.4169146595523,618.462293333956 572.9031917797402,619.4718127142987 573.9444860018557,620.8339923364692 574.3498480072012,621.3642459530965 575.1645915590925,621.9411021146225 575.8749726719689,622.3382115794229 577.0052502186736,623.0226488308981 580.2925651059486,624.6255319401971 583.6082206720021,626.447002646979 584.9205426630797,627.1680076948251 587.5897219983162,628.7343244164367 589.3762042310555,629.7814584213775 590.3341366613749,630.4470263107214 590.4385282275034,630.5196648275014 593.7282606648514,632.80862559058 599.8935088926228,636.5921923060669 602.1630060090683,637.828969713184 603.0877626596484,638.3325917273178 603.5788748800987,638.6009740776499 603.8847386738053,638.7673701879685 604.3887833316112,639.0868248451152 604.7221431182697,639.2976247579209 605.375056440942,639.734637673886 607.0741282133386,641.2841823702329 609.0014109014301,642.7594451949699 607.0215537777403,642.989049514872 606.9309102081461,642.9945600159699 604.9276348872809,643.1243762034574 603.8847386738053,643.2696855972754 602.8304828872206,643.4160730443546 598.7381237760419,643.9828943135799 594.7542048996547,644.4343139032717 590.910212664865,644.7948100796202 590.4385282275034,644.8388538272702 588.8543337814044,644.9867177738342 586.8663793209707,645.1730350035941 586.012809329899,645.2761762637529 582.6858815717278,645.6777199872886 578.4130508800736,646.0382143263123 575.341771775973,646.3532271648291 574.3643824355677,646.4530536859529 573.8862317797029,646.5573124611983 572.8788997690426,646.7780486257398 569.4872224427527,647.0309286497068 566.1659162170254,647.4242438143701 565.3843775716377,647.5167626294424 561.5063939982792,647.8772542512743 559.3841926826863,648.1201505543431 556.7862000071909,648.4185097788577 553.8912855609087,648.744580216473 552.632324437378,648.8865720563335 548.6362886826973,649.3202935254667 544.5342011164175,649.6807824823773 541.893333333428,649.9825338504161 540.7484631040134,650.1133445695159 540.3965202205582,650.1609810563968 539.3835666774539,650.2974617358996 535.9489851164399,650.7621662974707 531.8088866703911,651.1403819705592 529.1655722098658,651.3921793685295 528.0223622259218,651.5008682382759 523.8288446578663,651.9168562710402 521.7543826773763,652.1397437885753 519.9144813226303,652.3371559953666 519.8052837832365,652.3494143937132 519.4775746561354,652.3948942440329 517.6207504498307,652.6499645734439 515.4807233423926,652.9438860798837 511.45791977248155,653.3409850122989 507.4869333333336,653.845653099881 505.18886252096854,654.1107441789936 503.5830848852638,654.2959364204435 499.83620243915357,654.7462588389171 499.2617575537879,654.8072707146639 498.8879693369381,654.8483179627801 495.2745764408028,655.2342735592392 493.3481384392362,655.4471358352457 491.1984120036941,655.6845942461514 489.64416022773366,655.8499006204074 487.4531315485947,656.0816887178225 485.83739244099706,656.2458368822699 485.46441978320945,656.2835298530408 484.99433733697515,656.3323230757378"/></g></g></svg>