<svg width="1200" height="800" version="1.1" xmlns:xlink="http://www.w3.org/1999/xlink" xmlns="http://www.w3.org/2000/svg"><g class="geojson-features"><g class="geojson-feature" stroke="#555555" stroke-opacity="0.0" stroke-width="0.0" fill="#111" fill-opacity="1.0" data-properties="{&amp;quot;N03_002&amp;quot;:&amp;quot;後志総合振興局&amp;quot;,&amp;quot;fill-opacity&amp;quot;:1,&amp;quot;description&amp;quot;:&amp;quot;虻田郡喜茂別町&amp;quot;,&amp;quot;N03_001&amp;quot;:&amp;quot;北海道&amp;quot;,&amp;quot;stroke-opacity&amp;quot;:0,&amp;quot;N03_007&amp;quot;:&amp;quot;01398&amp;quot;,&amp;quot;fill&amp;quot;:&amp;quot;#111&amp;quot;,&amp;quot;N03_004&amp;quot;:&amp;quot;喜茂別町&amp;quot;,&amp;quot;title&amp;quot;:&amp;quot;虻田郡喜茂別町&amp;quot;,&amp;quot;stroke-width&amp;quot;:0,&amp;quot;N03_003&amp;quot;:&amp;quot;虻田郡&amp;quot;}"><title>
      虻田郡喜茂別町
    </title><desc>
      虻田郡喜茂別町
    </desc><polygon points="725.266666666721,710.9932284668903 722.9081570986891,709.2329961149371 719.2939777707215,706.6096131872036 715.2542222222546,703.3694288310944 714.661980672041,702.8991558784037 710.7468309048563,700.0290083417785 709.7355958614498,699.2922065800522 703.2376577707473,694.5573610418942 700.9940837831236,692.9019655024167 698.2011142257834,690.8412501278217 696.9130259911763,689.8995451932424 690.6013557760743,685.2878748520743 685.640833991114,681.5914499593782 680.514462435618,677.8321595548186 677.9957828837214,676.0158583839657 676.7214717726456,675.0881735692965 675.5839124481427,674.2601340973633 673.2618117691018,672.3401916046278 670.1201324374415,669.9654028905788 668.2115202274872,668.5213180647115 665.2014663110022,666.2489203875302 662.8432188872248,664.4688179148361 662.3561553353211,664.1020493776887 655.4837882312713,659.0415473761968 652.4488888890482,656.7933316662093 649.9925122276181,654.9735043109395 644.6379880107706,651.029877546709 643.877420885372,650.4592512007221 643.3175686827162,650.0395193634904 638.1911971271038,646.1982893954264 632.3350166756427,641.75656936632 628.2402108871611,638.6389098844375 628.1763060053345,638.5916759209358 625.2514488889137,636.4290566070122 620.7382030222798,633.2011542545515 618.3491391147254,631.4924389213556 616.5060337778414,630.1263782280148 612.3877806650707,627.0736152359168 605.986311566201,622.2613872038783 603.90369399474,620.7319869735511 598.2797440000577,616.601793344249 589.6718671077397,610.2468853050377 587.3117555485805,608.5050100521185 581.0162508800859,603.878604667203 579.6311111111427,602.841926337278 576.0329516942147,600.1489856034168 575.5249748765491,599.7688332247781 568.4639514738228,594.547628336295 562.8368848782266,590.36796657386 560.5658148977673,588.6159940190264 555.3585282276617,584.6541266443674 554.6497491059126,584.1148425242864 550.0841035662452,580.560178869986 546.7918953244807,578.062164861476 544.2279231147841,575.9343583111186 543.9576817777706,575.710623969615 543.7780548835872,575.563014729647 543.5927773297299,575.4098120332928 542.4187799894717,574.4390235921019 539.1007651271066,571.6995959811611 535.2478599966271,568.5381246482139 534.6555893192999,568.0003919912269 533.4686012871098,567.0923728854395 531.8496873244876,565.8537340487237 531.0859162168344,565.2700566071435 527.7387159893988,562.7119835219928 525.5330655005528,560.9293460573535 520.7611708871555,557.072005191294 518.348455765401,555.0839817576925 516.877565781353,553.8706729710684 516.310402673902,553.411103379738 515.1178222364979,552.4457425994915 514.5563097884879,552.0325084694196 512.8572380160913,550.6494624204352 508.7308875663439,547.3840923939715 506.8133333333535,545.8172897222103 505.1660495646065,544.4713438194012 501.11575000185985,541.1860939898179 498.8098439965397,539.2651120332303 496.0338846719824,537.0543653005152 492.31426520179957,534.0312745299889 490.2286766648758,532.3362325513735 489.67849466309417,531.8887636417057 484.3838266596431,527.6742315149168 482.540750449989,526.1325775876758 480.5309797830414,524.4515666452353 478.72806985955685,523.0175382149755 477.7250486614648,522.2196970713558 473.22735667193774,518.4182904749177 470.80010712181684,516.434358706174 468.46344288717955,514.4206515829428 466.8485193387605,512.9789461840992 466.5531995591009,512.71555449476 466.18101333337836,512.509419946291 464.3306262186961,511.0005256581353 464.26104155019857,510.9509260620689 460.03682400716934,507.92199863528367 458.2681384391617,506.67187170119723 453.1747096462641,503.07152615190716 450.19605475571007,500.965767988062 447.2038848854136,498.85054755077 442.2442077867454,495.25600005767774 437.66233844624367,491.7209638521308 437.2715399963781,491.50048619374866 436.418785564485,491.01766482787207 434.68892643554136,489.6750696155941 433.99555555556435,489.2536742404336 433.976127772592,489.24188833427615 432.1403333406197,487.95984028547537 430.305325340596,486.6591342546162 429.74378376535606,486.16308870963985 429.122415104066,485.79049832129385 425.57298534421716,483.28933826932916 420.8217418525601,479.8906849817722 420.17150822421536,479.4256195812486 414.1810226631351,475.2101479076082 410.0692357689841,472.26241386076435 409.7229726720834,472.01421793719055 409.5384815502912,471.8820636253804 404.4711797761265,468.12178728269646 404.1657820160035,467.8958116924041 400.5883902295027,465.2488973776344 400.15471667202655,464.9622375644976 398.0252044516383,463.55334119475447 396.3714253369253,462.33410353644285 395.7953784605488,461.8788077426725 393.73218867206015,460.47429904091405 389.3331793351099,457.3334235616494 387.9326313243946,456.3445071983733 385.45036066148896,454.5936824726523 384.34999665792566,453.8176464771386 382.9632257707417,452.8386382290628 382.1266368853394,452.2488183065434 376.9848862151848,448.52797092002584 376.4695111111505,448.0936057729414 375.8319769031368,447.70107301237294 374.7396811094368,446.9789539780468 374.4176517688902,446.73196290340275 373.8747806721367,446.3174396417453 373.1619820088381,445.8422690675943 371.4628811094444,444.62175280071096 367.21518711489625,441.60423239244847 364.8340457814047,439.8269079903257 364.3178259913111,439.39363881375175 363.6204064427875,438.98017483513104 362.9618133333279,438.4939558648621 361.1777777777752,437.1774288282613 360.14699844270945,436.41677789518144 357.91568696894683,434.82136405364145 355.8879740018165,433.3714912330033 353.98824556090403,432.0131406178698 350.593305998249,429.4606658955454 345.4548175644595,425.9467127287062 338.50797243753914,420.92218997643795 336.90519489417784,419.77224564371863 331.93902244989295,416.20952753006713 325.4307151075918,411.6214192795451 325.24138888542075,411.4824841991649 318.8762995485449,406.82370728300884 312.6325828836998,402.42485888139345 311.664106439217,401.7425025514676 311.5702588871354,401.6763271058444 310.8946846720064,401.18673940672306 305.95440622931346,397.60398211085703 300.18455853511114,393.4299410312087 299.009192220401,392.5799911195063 298.1693702257471,391.9856199147762 293.3464157866547,388.5714908252121 289.9668553387746,386.17291765939444 288.36000000010245,384.9742177928565 288.1366824392462,384.8076760986005 284.39387778844684,382.17868436989374 283.63170867203735,381.64487107197056 277.3426702222787,377.0329712369712 275.12577666842844,375.47691290685907 271.5399088925915,372.9613689681282 271.0358351075556,372.59630903904326 265.60890089243185,368.659185600176 264.8123326578643,368.0812728519668 264.0874171165051,367.55644145805854 258.8210606648354,363.7392608259688 251.23505021166056,358.3020492339856 244.77451133169234,353.6698584633996 243.96544756623916,353.09524567524204 239.861728881835,350.1768971197889 239.81480510591064,350.1419164321851 233.49585311301053,345.4419119920349 228.3613259663107,341.7326686644228 226.4252468907507,340.3340641791001 224.1719444480259,338.7215474601253 220.19932689075358,335.82613811676856 219.84412177081686,335.57137159100967 216.95165400172118,333.496618769248 215.54222222219687,332.48504632298136 213.0817968925694,330.71924182766816 210.31309021881316,328.7547599733807 207.56060734589119,326.7891505373991 202.9663298560772,323.47755941638025 201.24713124986738,322.23828735604184 194.74788243928924,317.5675319710863 191.26963933871593,315.1561929220916 189.79790466860868,314.1358480961644 189.60939400526695,314.0051178463036 187.97501354687847,312.8717090773862 179.84129689598922,307.10236647195416 176.22443787392695,304.6319110899931 173.07262230745982,302.4791380339302 172.73833045328502,302.2507463226211 166.99702732800506,298.0287774655153 166.55933422944508,297.70685482164845 162.6344268800458,294.79777650511824 166.99702732800506,295.62503054289846 176.80642668099608,297.4850909389206 181.9386819129577,298.3260769810877 183.62619022233412,298.60264542966615 191.26963933871593,300.01415634359 194.48658312531188,300.6081942145829 197.95512689789757,301.249132380588 204.4469191681128,302.4791380339302 209.09301378857344,303.359462782857 210.6287989760749,303.6384480656707 215.54222222219687,304.53088113560807 220.69850732095074,305.46751141088316 226.33463244803715,306.45707518648123 232.71268334938213,307.57673331483966 239.81480510591064,308.90324796858476 243.78660710412078,309.64507323445287 249.44708249601535,310.68080528557766 255.98844910925254,311.8778028523084 258.18509932095185,312.28480928810313 264.0874171165051,313.3791048344574 268.2525940054329,314.1512561527197 271.4428282311419,314.77234298427356 275.07235754665453,315.14404125727015 288.36000000010245,316.6366662514629 290.18609510397073,316.84173419565195 290.52752310037613,316.8803333325777 297.2696337637026,317.48036646010587 305.79502267739736,318.617685319914 312.6325828836998,319.3560661194497 316.51053732982837,319.77481448906474 320.95402376540005,320.31201855884865 322.29713311302476,320.491787872219 324.97356509871315,320.85029363411013 332.3943665778497,321.75985868362477 336.90519489417784,322.29594652552623 339.35024110937957,322.58650564670097 343.0421024427051,323.06302662647795 343.7929411130026,323.04205972264754 346.15465466317255,323.08288164716214 347.9540693332674,323.475613627641 350.5892573297024,323.9223107454018 351.34332910948433,323.9631325234077 352.95909734407905,324.03592075477354 354.9923153350828,324.3150016734144 357.8904628906166,324.54114911158103 358.91797998943366,324.7484739109059 359.679333546781,324.90294486959465 361.1777777777752,325.31632297259057 362.7894682169426,325.76107097096974 364.11314978136215,326.0974905289477 365.634225777816,326.48469806840876 367.39396932255477,326.8983117649914 368.8794519895455,327.3230036747991 372.98317067394964,328.3565565692261 376.47192866145633,329.2974242430646 378.77783466677647,329.90632182825357 381.4397322240984,330.6828685597284 382.0530035486445,330.85933445137925 383.4503184497589,331.261901755759 384.18577800528146,331.396514269989 384.84600223309826,331.5829068151652 385.45036066148896,331.7797822984867 386.24084132979624,332.0373323595268 386.4665764408419,332.1101579059614 387.9326313243946,332.5855485649081 389.859069326194,333.2053975155577 391.6487846686505,333.9080366983544 392.74914867198095,334.2698583631427 394.256476672017,334.66249303426594 394.8948555662064,334.82795691111824 395.3754237724934,334.9426737022586 396.282412885339,335.15884462255053 396.8592753208941,335.2074076081626 397.4054377814755,335.25259539781837 399.22588222590275,335.3872057242552 401.08759978681337,335.4655099865049 401.65313177614007,335.48973188799573 402.40574720012955,335.57137159100967 402.721135559259,335.605599902221 403.4816735574277,335.6871601509047 404.7632664461853,335.6551952076843 407.84267201425973,335.7798386088689 409.7229726720834,335.8605649321689 409.7690808889456,335.8625900387997 410.6566422188189,335.83169723383617 411.44470533693675,335.8835558476858 412.9771117797354,336.17251057346584 413.53862422762904,336.5276579799829 414.5394317653263,337.5335752782412 415.7223420017399,338.3321753004566 417.3461784461979,339.01494608219946 418.7418622294208,339.3038971229689 420.56874376535416,339.6348185102106 421.5016560071381,339.7384547062102 422.87467889790423,340.13116004760377 424.4216488960665,340.4520740979351 425.5519555697683,340.7521017516847 426.3561551076127,341.0410904556047 427.168481109431,341.6411439572694 428.60136021347716,343.0573311151238 429.2769635554869,343.76101418799954 429.7389486649772,344.24630894552683 430.4825055573601,344.79449789371574 431.03670710045844,345.02169854630483 431.12248644267675,345.04266357334564 431.87090756266844,345.22908546670806 432.8345197797753,345.53899417980574 433.86529911484104,345.97354072873713 433.99555555556435,346.05684461200144 435.3524128997233,346.9242674483103 438.00699955190066,349.2614417518489 439.5693486649543,350.43935138202505 441.2231277797837,351.99008902494097 442.868809557287,353.498888270522 443.3688055467792,353.99520178552484 444.07516711822245,355.62973377178423 444.40852690511383,356.4668281543418 444.83325843908824,356.932245520351 445.78880244633183,357.50137011293555 447.51132154325023,358.56453451665584 450.0438073457917,360.6324846899952 450.9993222258054,361.27437790099066 452.2582542222226,361.7905275927624 453.07707556989044,362.26697249914287 453.57788711821195,362.79411800717935 454.50345932808705,363.8583711939864 455.5123933298746,364.633698871301 456.2640475591179,364.9844377589761 456.98171044990886,365.1498415026581 456.9841280000983,365.1498415026581 457.6597313422244,365.31528483796865 458.2681384391617,365.3585216308129 458.6678497849498,365.386949123058 459.71479466662277,365.386949123058 460.4049324373482,365.55239229876315 461.00448489258997,365.7079095763038 462.15663689980283,366.2152358695166 463.10487000178546,366.40049030270893 463.840329557308,366.4104557642713 464.6817826703191,366.2659763818374 466.09284556808416,365.65609696356114 467.1470722275553,365.04621603060514 467.84530733525753,364.77817921427777 469.23289378138725,364.6855514032068 470.597003775998,364.8917703226907 471.4238933332963,365.09914046293125 472.31145466305315,365.43991318525514 472.69252465781756,365.63513369637076 472.95629977609497,365.7707596506225 473.14565512537956,365.9670915856841 473.2750668800436,366.27701383142266 473.41181866661645,367.1338836775976 473.7985684481682,368.21912080887705 474.0942960070679,368.659185600176 474.12543288897723,368.705478909309 474.5040853335522,369.025323352369 474.9976151039591,369.2116873378982 475.32366398582235,369.2635389031493 475.7257928819163,369.1080238771974 475.9604408890009,368.8289938621456 476.0850175432861,368.659185600176 476.6506077867234,367.8882379390998 477.1967411200749,367.2166245423723 477.72021356096957,366.84496538189705 478.35777689598035,366.4821197298588 479.17656911653467,366.2240499498439 479.8667068872601,366.18323519674595 480.7914926648373,366.25493893161183 481.33034422050696,366.1622719746083 481.7170940018259,366.0067946879426 482.0124137813691,365.8932040951913 482.540750449989,365.82539116137195 482.6572588942945,365.8104627846624 483.30938578478526,365.70679788821144 484.07557444274426,365.87224084843183 484.79649956990033,366.01672046247404 485.4720737847965,366.24501316674286 485.5877666702727,366.3530848737573 486.9130502259359,367.5883228434832 487.33781088725664,368.38452237378806 487.5131269689882,368.659185600176 487.951926897862,369.34623934782576 488.32329756452236,370.18332667887444 488.49806023109704,370.8240832615411 488.5433528890135,371.1957364002592 488.68010467558634,371.67216306045884 488.87749910750426,372.0129266620497 489.0975835592253,372.1882908992702 489.5296259983443,372.38568965980085 490.4535962169757,372.7054896077607 492.2667880108347,373.47086388169555 492.9035357866669,373.86343587975716 493.4884955591988,374.0598010470276 494.4521077760728,374.35970823973184 495.0435628942214,374.5042225625366 495.4181666702498,374.6939173329156 495.6956897848286,374.8350965185091 496.29439755389467,374.8869071949157 496.84053088724613,374.75235822051764 497.56870866485406,374.3906359000248 498.1528820054373,374.2152732355753 498.82038801081944,374.04872424533824 500.34388155746274,373.67600347386906 500.9895422293339,373.7178889318602 502.6805166648701,373.83147590549197 503.86339777428657,374.0388384973048 504.50905844639055,374.0906493415823 505.988074894296,374.0906493415823 506.7995853369357,374.18327360524563 506.8133333333535,374.1822810608428 507.2623568783747,374.1513136725407 508.46061710221693,374.34759920614306 509.71151001611724,374.7104332372546 511.3118700090563,375.320290170901 512.4575266703032,375.8474870637874 513.7641980019398,376.7837262452231 514.0578866631258,376.99438155436656 514.8014435556252,377.57227332884213 516.4091144533595,379.1437223618268 516.4851653403603,379.35108046850655 516.4851653403603,379.73375754838344 516.4471253333613,380.23001804656815 516.4924471182749,380.5090351085528 516.9859768889146,381.036141462042 517.6607355449814,381.40777914755745 518.4641777777579,381.6470943039749 519.1931419876637,381.7596056954353 519.5337835521204,381.8125265262206 520.7773364338791,381.70775676833 522.1123484446434,381.5754347635084 524.2742208853597,381.8004178602132 524.8964342329418,381.92388652666705 526.3519451022148,382.3904069637647 526.9571773440111,382.7807811833336 527.679675335181,382.8447384990868 528.5818002204178,382.813891304133 529.9313466595486,382.307671210845 530.606134442729,382.11139203899074 531.0859162168344,381.8058171342709 531.1757151004858,381.7485689417226 532.3513435592176,380.9005239379476 532.9735277795698,380.456074296264 533.8991291165585,380.03262559097493 534.4978368853917,379.8153825441841 535.005959338625,379.78449526784243 535.7041653193301,379.959814254893 536.8871046828572,380.4252268013661 537.4639671184123,380.5498474810156 537.8806304427562,380.50792348745745 538.7139862186741,380.2189812239376 538.9720815502806,379.9289666976547 539.4429795556935,379.12283964798553 539.9438202312449,378.6067263824516 540.5959471219685,378.2339331259718 541.2788031147793,378.0895004001213 542.0385255538858,377.8600673718611 543.4026646757266,377.44765113817994 544.1607559965923,377.30317824869417 544.9196920037502,377.44765113817994 546.2546748871682,377.9648784721503 546.7547000037739,378.10935097234324 547.9990684444783,378.21297093242174 549.0444113351405,378.15119597298326 549.9707991040777,378.1401987581048 551.0549975609174,378.2438584063784 552.0186097777914,378.4798814562382 552.754069333314,378.4390687397681 553.1861117724329,378.33648110379 553.4822471112711,378.18101152410964 553.8689968925901,377.99461464356864 554.2403675592504,377.9019918174017 554.9232235521777,378.06742656225106 555.1967271254398,378.16004932607757 555.3585282276617,378.26450298842974 556.4629408995388,378.9772561158752 557.3431913245004,379.617989755352 557.8739455431933,380.0215887594386 558.5786759965122,380.7240940021584 559.6021735538961,381.6030266665621 560.7704911077162,382.3165244142292 561.2786135609495,382.5436903553782 562.1661748905899,382.7300440829713 562.8563126614317,382.854703293473 564.2673755593132,382.9671744313673 565.2002295467537,382.7399691816536 566.3079044551123,382.1290190584841 566.8766695539234,381.63276239758125 567.438182001817,381.1266192710609 567.9009826703696,380.59943371021654 568.2949851023732,380.0315139677259 568.8557111182017,379.5451782962191 569.4851771164685,379.235312494915 570.2894057814265,379.05995328957215 571.0556235662661,379.1525756792398 571.6081939912401,379.28930579527514 574.2029535573674,379.9377405849518 577.0323320036987,380.80567896802677 578.3527513315203,381.3438611580641 579.6311111111427,381.9854620345868 580.4531364408322,382.39814855140867 581.0364942223532,382.6969339507632 582.1594899911433,383.13149415521184 583.2064640000463,383.35973125044256 583.889349120087,383.35973125044256 585.0269084443571,383.069720432919 586.0431242240593,382.759819377854 586.7106302294414,382.42899579851655 588.7276826739544,381.4574446048355 590.4566971164895,380.67220515588997 591.4575046543032,380.27853241882985 592.2164406614611,380.09328845422715 593.1719846685883,380.1131388642825 594.112965120119,380.2983828141005 594.856492885272,380.48477794625796 596.0701322241221,380.4230035582441 597.0410262187943,380.2983828141005 597.7239113387186,379.9267434501089 598.1025637831772,379.36763576074736 598.2158391183475,378.6442041823175 597.9658119964879,375.6886412782478 598.0038520037197,375.0269746236736 598.1405746632954,374.6828802615055 598.2837926686043,374.32334143534536 598.4124179912033,374.05428249720717 598.5645197653212,373.9097679097322 598.761943324469,373.83699446026003 599.6640973369358,373.83699446026003 600.2482706774026,373.9097679097322 600.976448455127,373.86788248457015 602.3114313387778,373.92961881967494 603.0695226596436,373.9505813787109 603.783166008885,373.87891959253466 603.90369399474,373.86962936492637 605.2548715521116,373.7652929390897 605.9369411129737,373.6517059348407 606.6497397760395,373.35175817552954 607.2565740088467,372.9172203683411 607.7492882205406,372.51356998679694 608.2800715662306,371.9964105762192 608.7736013369868,371.58279342984315 609.3350846578833,370.7038646063884 609.5316926578525,370.24951061059255 609.7364271219121,369.9395536754164 609.8958106738282,369.8260046043433 610.4572939947248,369.81492761167465 611.7388868835988,370.05314239661675 612.6944308907259,370.415982772538 614.696890652529,371.2530664574588 615.3724939947715,371.56294233031804 615.9784835415194,371.6853838870302 617.0627111253561,371.54086790565634 618.6404102259548,370.9619296788587 619.4972133262781,370.5306829393958 619.9980540017132,370.27924771618564 620.7950008889893,369.93848170904675 621.7739922206383,369.72119003062835 622.4641299912473,369.6274921159493 623.6090002205456,369.390348887071 624.5346015574178,369.3076484572957 625.0119366543368,369.2558366039302 626.0047051094007,369.3495743627427 626.8849846614758,369.55574966321 627.5371115519665,369.76311586541124 627.8995984498179,369.83152324933326 628.1763060053345,369.88377170823514 628.1973357796669,369.88774195546284 629.593019562657,370.09395650646184 630.343829105841,370.2285477355472 630.9280024463078,370.25939651124645 632.0582799928961,370.14469621743774 632.5437415536726,370.01018434757134 633.1732075519394,369.92744442401454 633.7881099946098,369.75211827486055 634.516287772567,369.5447520635789 635.2897582080914,369.4422004146618 636.0090813441202,369.47308899177006 636.5859437796753,369.48297492350684 638.1102528853808,369.7620041955961 638.8238671076251,369.9903331207461 641.0464404480299,370.4038735444192 641.6605273316381,370.5593877497595 643.9437724445015,370.95089243975235 644.5732384426519,371.08540379453916 645.2933188836323,371.1262177329627 646.8928924445063,371.2706942561199 647.5911275519757,371.4361334681744 648.2586335573578,371.48905652342364 649.7983217778383,371.50890762900235 650.481206897879,371.5816817683517 651.171344668488,371.50890762900235 652.4488888890482,371.53308627341175 653.3930733227171,371.5508331587189 655.6318413370755,371.5298703946755 656.3446400000248,371.5717959209578 657.0493413263466,371.54972149716923 658.5963404516224,371.57068425929174 659.3018573370064,371.6743466804619 659.9094780018786,371.6842722260626 659.9240415573586,371.6842722260626 661.4637589049526,371.9125596617814 662.1611784534762,372.0669612523634 662.8213735538302,372.0978097972111 664.3917908765143,372.3868013175088 665.0285386525793,372.44964968255954 665.8554573371075,372.59408572519897 667.3571346773533,372.92496225459035 667.955842446303,373.00770116836065 668.7293128818274,373.0374379400164 670.9745179875754,373.29661221412243 673.0983795484062,373.4620500614401 673.8645973334787,373.5646397336386 675.7222370987292,373.5756371532334 676.7214717726456,373.6825145787443 676.7846193494042,373.6892241926398 677.3841135501862,373.6781870761188 679.0063480036333,373.63741326367017 679.6819513457594,373.7201122355182 681.2288922169246,373.5954880900681 683.2395075699314,373.3076096458244 684.3996986596612,373.00770116836065 685.3099500089884,372.6547504258342 685.6586597830756,372.43750085274223 685.9094733371167,372.09669813798973 686.0834204445127,371.7449371513212 686.3561084587127,371.2177711537224 686.6513991111424,370.9178204219206 687.3270024535013,370.5252040127525 687.9863819946768,369.9152954691672 688.4637462187093,369.21279901027447 688.7479976960458,368.659185600176 688.7825133227743,368.59188956482103 689.7008328818483,367.3037724000169 689.8217977742897,367.134479221364 690.527722439263,366.1932006671559 691.9080271075945,364.84881137061166 692.3174377814867,364.51792395993834 692.9396220018389,364.24992627021857 693.4711917795939,363.95985318208113 693.9331768890843,363.6389698511921 694.2511575609678,363.30808081052965 694.5246028801193,362.874636932218 694.948577109375,362.2338596081245 695.4032804409508,361.3868589224876 695.6694731093012,360.92474542430136 696.0109302329365,360.33248132513836 696.8758306702366,358.98805994394934 697.4373139911331,358.21275414637057 698.2027453441406,357.47822240320966 699.7496862151893,356.330085330992 700.6744719929993,355.88559122016886 700.9940837831236,355.81856961757876 701.8581686612451,355.63747620314825 702.7757017884869,355.72014153189957 703.571833116468,355.7819221340469 704.2474073315971,355.8646271190373 704.6721679929178,355.7719959457172 705.2943813405,355.51391491049435 705.6730337848421,355.29665017325897 706.1511844410561,354.8830843089381 707.554965561023,353.4658139022067 708.260482446407,352.8150857188739 708.7070884410059,352.3286961466656 709.6626324481331,351.15079557930585 710.2241157689132,350.55076531524537 711.2783715556143,349.2470682494459 712.1044455538504,348.23353568225866 712.5980044516036,347.7890269156196 713.014667776064,347.61364525411045 713.386854001903,347.54193607583875 713.755777991144,347.51219621673226 714.6498637938639,347.43830317351967 715.5649211165728,346.6915890975506 716.1345017740969,346.0397311854176 716.3586348942481,345.45735779067036 716.4516668871511,344.28164783254033 716.7097622186411,343.2283085779636 717.2559246792225,341.88375384383835 717.594905998325,341.33670990291284 718.5415662365267,339.6524485788541 718.8870429012459,338.7921076967614 719.0148526648991,338.0751877486473 719.0407466667239,337.1784293265664 718.804496668512,336.533217081218 718.074192611617,335.57137159100967 718.0156471183291,335.49417918775 716.253427768941,333.7735049776966 715.0560122311581,332.42341869330266 714.6490191075718,331.805712034693 714.1295953352237,331.2475669084233 713.4467393421801,330.3684539947426 713.014667776064,329.68569887866033 712.6578606648836,328.2583954394213 712.5664597902214,326.9457645207294 712.6724242203636,324.43190741626313 712.5672462221701,322.98583029047586 712.2557608960196,321.0003194830497 711.5809731129557,318.50736879801843 711.0421215574024,316.4501035151188 710.974168007262,315.9438260179013 710.9895471219206,314.9189970816951 711.1335515591782,313.61737437499687 711.4442504533799,312.68637454352574 711.9830728819361,311.6009316627751 712.7412224569125,310.38086002046475 713.0980004409794,309.73994569369825 713.3560957724694,309.10895776894176 713.4620893298415,308.5298326142365 713.5518882133765,307.53702076373156 713.6586973298108,307.05165344517445 713.9766780019272,306.4415872216923 714.326203335193,305.9860023431247 714.6482326756231,305.68593220366165 715.6797984428704,303.7654110851581 716.1215402098605,302.94469745783135 716.3039341795957,302.4791380339302 716.6337113316404,301.6374116615043 716.6935966720339,300.83325150830206 716.9670711182989,299.23036410391796 717.0431220055325,298.3301675275434 717.264808448148,296.1877840968082 717.1992433210835,294.9864208542276 716.7397048888961,293.17606455780333 716.1547451164806,291.57868727709865 715.7267222186783,290.5780623909086 714.6482326756231,289.0104151549749 714.3181351254461,288.84051196771907 713.8100126720965,288.56143043690827 713.1271275520558,287.930388077104 712.8690322204493,287.2574438928277 712.7784177778522,286.3991037682281 712.7557568853954,283.8352256931248 712.6109660160728,281.6849709987873 712.73230956099,280.9502102746628 712.7857286827639,278.7260563003365 712.8536822329042,277.1748955604271 712.8075448889285,276.47213370836107 712.6861722170142,276.08929565758444 712.1635153351817,275.28282761591254 711.6481402311474,274.54693562793545 711.2532931129681,273.9897724156617 710.7605789012741,273.4314958328032 710.2751173403813,272.7893729255884 709.9943611165509,272.14836045046104 709.304223345709,270.77259483153466 709.0922071039677,270.0907463596086 709.0161562169669,269.49055767420214 708.985106716631,269.38244332309114 708.5760455681011,267.96027046453673 708.3713111040415,267.2353984268848 708.0752048926661,266.2424195583444 707.6051224464318,265.04420646920335 707.3470271147089,263.82398285885574 706.5355166720692,261.7541049596621 705.6851506631356,259.6191477518878 704.5338433423312,257.09244658844545 704.244174222229,256.60149805090623 702.8857148872921,253.71727472671773 701.7489711218514,250.81101167120505 701.080649557407,248.90984275960363 702.4293804374756,247.86495227518026 708.3750685013365,236.281245831633 714.6457859983202,224.06356140691787 725.266666666721,208.36157167126657 728.7743864036165,203.17562309798086 734.0225966649596,195.4161415694398 749.5392495503183,172.47233825927833 751.1669016462984,170.0655334981857 753.3994073314825,166.76418480742723 772.7762471253518,138.10669596865773 773.557727516396,136.95093538594665 773.8118615609128,136.57507258933038 792.153028664994,109.44808470422868 795.9498058524914,103.83190632908372 798.0844444443937,100.67446104466217 811.5290528996848,80.78616434847936 818.341447281884,70.70840468467213 822.3570273281075,64.76787840930047 825.1516280035721,60.63357008283492 826.4008606721181,62.14082257938571 826.9526737920241,62.7150039980188 829.332154880045,64.45638259628322 830.2132791181793,64.77881017193431 830.949525105767,64.8682120963349 831.8686310970224,64.76004729169654 833.6704924444202,64.40116717934143 834.6033755590906,64.15053116675699 837.1940573299071,63.558623690682 838.1277560035232,63.25277114158962 839.6917071075877,62.89388882328058 840.3478826667415,62.61455017334083 840.9385222259443,62.939206291688606 842.5542613334255,63.4415935947909 845.0268326685764,63.997009029146284 846.6296393388184,64.30763088306412 846.6959617708344,64.32055026304442 847.7219060054049,64.64409106998937 849.8781277866801,65.41483916080324 851.9153944463469,66.56322507373989 854.2682242275914,67.56806330522522 857.3977575537283,68.12346939381678 858.8177333476488,68.3211128830444 860.698034005356,68.82348916091723 862.8663726649247,69.21885435411241 863.405224220478,69.27184262289666 864.1277222117642,69.3435934111476 865.0088464498986,69.3977344352752 865.8899415609194,69.23539082932984 868.3487357726553,68.21290985017549 870.9022222222993,66.8696300155716 871.043809109251,66.79513564740773 871.2290866632247,66.68577914615162 872.5025822153548,65.93383759324206 873.3966388908448,65.71850266924594 874.7510495573515,65.21608027891489 875.5398991075344,65.1630911338143 877.1572693334892,65.07142346346518 879.73341667559,64.92899266578024 880.4696626630612,64.98198186140507 881.9155033316929,65.07253651425708 885.3476382151712,65.39607632905245 886.8719764481066,65.52085708244704 887.7530715591274,65.77149169438053 888.9100586666027,66.0044763116166 890.9222468836233,66.09503058716655 893.1553351110779,65.93383759324206 895.1748051057803,65.3830377504928 895.9167308801552,65.18074093287578 897.4159906702116,64.94668223330518 898.8092277760152,64.89365327823907 902.2535086649004,65.30444849765627 903.0027162169572,65.34086112375371 903.049639992998,65.33533562737284 904.5278700090712,65.14321523247054 905.8296771129826,64.9455691819312 907.7359008996282,64.51489740912803 910.1016339911148,64.83843795966823 913.4545140054543,65.64559802046278 915.0184651094023,65.860972760187 916.7806844587903,65.73507913213689 917.5946124516195,65.80683095520362 919.4474171164911,66.26186820527073 919.7119786667172,66.32690185192041 923.8536791040096,67.22465062321862 924.4718437830452,67.54596151958685 925.6814053262351,68.15546920523047 926.5091104428284,68.3354630980175 928.1386266738409,68.24606243765447 928.7826562275877,68.13893265719526 929.8482133334037,67.07999499264406 932.3070366720203,65.2867589558009 933.7633922275854,64.3911894459743 935.2245828837622,63.49239674798446 938.0645053440239,62.50407874531811 940.7862591147423,61.91224679973675 941.5735066739144,61.73224819247844 942.3890657848679,61.75101130432449 943.7199999999721,61.58337556949118 943.9667648853501,61.55224945297232 945.1367135575274,61.57101257855538 945.8074526720447,61.445156500674784 947.4766109012999,61.37336364906514 949.3957379984204,61.319260605669115 951.5916017778218,61.445156500674784 953.8667495539412,61.427506432752125 954.891849102336,61.587589321949054 955.7333313422278,61.911133734625764 956.6661853296682,62.84419860719936 957.1265684480313,63.59726269112434 957.4938904462615,64.26092234940734 958.2042715592543,65.49986816110322 959.5845762275858,67.97547518037027 960.0708242204273,68.67446183774155 960.9778424603865,70.27225739811547 961.246277916478,70.70840468467213 961.3135615432402,70.81767989048967 961.5959488854278,71.27704068133608 962.8322491166182,72.81956601282582 963.8711257885443,73.87740563391708 964.6729077759665,74.93520094180712 965.3039757654769,75.99410468840506 966.0143568782369,77.78833567613037 966.4998184393626,79.81556478375569 966.6972419982776,80.94627435068833 967.1179831183981,82.13099767058156 967.6438731094822,82.82990423461888 967.9925828836858,82.99915515212342 969.9716244480805,83.95944719051477 972.9417742223013,85.2512783074053 974.8876400071895,86.23723898583557 976.3998322348343,86.74073126522126 978.2404908941826,87.02783309464576 980.4743655539351,86.99023124057567 981.6580913494108,86.81136399070965 983.787574442802,86.3090245592175 985.2997666703304,85.80553139350377 986.0489742222708,85.60901495208964 986.2358828942524,85.52287996548694 986.8629313423298,85.23251699336106 987.7181033244124,84.83721736387815 989.2432571165264,84.33483414008515 990.0053971059388,84.15596495365025 991.5046277688816,83.43826096859993 992.2651948942803,83.12126377352979 992.9246035628021,82.84647954092361 993.9238091094885,82.63115946651669 994.6989106632536,82.36174080189085 995.4740413441323,81.91349076823099 996.0266117688734,81.67940828896826 996.9206975715933,81.46404744067695 997.6715071148938,81.14390750625171 998.0121486791177,80.99814710702049 999.1958162205992,80.17219637497328 999.6820933405543,79.59805582783883 1000.8123708871426,78.46853253408335 1001.4175448747119,78.09091062174411 1002.5608131131157,76.97791633981979 1003.5600477867993,76.331979841867 1003.993692216929,75.79424137837486 1004.5980797725497,75.4000792898587 1006.0576975643635,74.48471131781116 1007.3328242347343,73.66096467297757 1008.8571333405562,72.53030101716286 1009.2541358650196,72.27712927135872 1010.8555735608097,71.25605225277832 1011.4873697281582,70.70840468467213 1012.656590222381,69.69475458387751 1013.6161537707085,69.17465107835596 1014.3920708835358,69.27184262289666 1014.3953331201337,69.27295565465465 1015.6283711147262,69.82060642825672 1016.5377777778776,70.15618452971103 1017.3759977814043,70.46548680117121 1017.8504201670876,70.70840468467213 1019.6899719963549,71.65026075259084 1020.8995626668911,72.49277644150425 1023.358386005275,74.98707496951101 1024.5938706774032,76.94257868855493 1026.0404977778671,80.29700935946312 1026.5267457707087,81.40887560206465 1026.8819508907618,82.64773478644202 1027.2233788871672,83.8136884647538 1027.9734019981697,85.4820185030112 1029.01146311115,87.88679142727051 1029.5114591006422,89.35635444067884 1030.1822273423895,91.38460086268606 1030.641765774344,93.01647089020116 1031.0754393315874,94.45178095670417 1031.2332208924927,96.15648643131135 1031.4443924480584,97.12471602577716 1031.4807722098194,97.25945703347679 1032.0228860017378,99.24125419941265 1032.8773006791016,101.68122631317237 1033.6264791041613,103.26000717456918 1033.967062414391,103.83190632908372 1034.3101797832642,104.4082158941892 1034.9145673387684,105.7893263194128 1035.1516328961588,106.56109772407217 1035.650842453353,107.86934367346112 1036.045660444419,108.46110447339015 1036.3215524408733,109.12464274186641 1036.4566731094383,109.62470974924508 1036.8078295608284,110.91974422283238 1037.2681835519616,112.98310505831614 1037.2681835519616,113.7183689015801 1036.820761998184,114.38189294829499 1036.2827260018094,114.86656840855721 1035.376552448026,115.5300496055861 1033.2988282311708,116.73229172162246 1032.1814539948246,117.39576787216356 1031.4581404444762,117.9687866230961 1029.3278417920228,119.09924083005171 1028.7630671076477,119.45804091444006 1027.64490643912,120.48030828143237 1027.0545872782823,120.95674494089326 1024.9110066632275,122.68709882925032 1023.9376951183658,123.73919921467314 1023.8988395520719,123.78112734656315 1022.5314964479767,124.9468855081941 1021.4796873388113,125.79033091600286 1020.3356326686917,127.15367561561288 1019.5346371129854,128.7676227253978 1018.850936433766,130.5063466540887 1018.3646884408081,132.35541879729135 1018.0362220088718,133.89756005752133 1017.8655080107274,135.3326309278491 1017.8425267200219,136.95093538594665 1017.8250504534226,138.18510293815052 1017.6146944569191,142.273834696447 1017.3517057707068,143.51127381564584 1016.89135177969,144.0488638424431 1016.5377777778776,144.34881376830162 1015.5377566720126,145.1968816522276 1014.039312440902,146.97300232824637 1012.7116113351658,149.12551062525017 1011.791689785081,150.97221711173188 1011.4761266632704,152.15548960852902 1011.4631942259148,153.41167472454254 1011.5287010987522,154.2726656604791 1011.7366686720634,154.70977625442902 1011.8442642205628,154.9360005495255 1012.3701833387604,155.72522089531412 1012.5408973370213,156.26389679563 1012.5150033351965,157.178959636949 1012.3434737778734,158.45053686620668 1012.409825337003,159.0962571547716 1012.6064042098587,159.79609681857983 1013.1460713244742,161.05216334114084 1013.5263548871735,162.3424759148038 1013.6712040107232,163.9032237221836 1013.6452808817849,165.17699129425455 1013.4082153243944,167.23882297222735 1012.8167893333593,169.33703451475594 1012.5599755946314,170.0655334981857 1012.3175797760487,170.75314332306152 1011.8839062188054,171.56106750434265 1011.4235231005587,172.36791619559517 1010.8078342259396,173.23213855718495 1010.2932455538539,175.52567060984438 1009.8199299981352,178.6271218712791 1009.5966124373954,180.2948072158615 1009.2940400070511,181.78368321084417 1009.6362835626351,183.37958994903602 1009.6095740018645,184.0616793729714 1010.122531555593,186.5714517502929 1011.353151999996,188.5757309308974 1011.4769422223326,188.77657513221493 1013.3046684444416,190.53799756016815 1016.248924216954,193.38434492965462 1016.5377777778776,193.77831748896278 1016.5782353351824,193.83350379235344 1016.7618817706825,194.6049188116449 1017.1696613262175,196.64890260860557 1017.5248664462706,198.42457140400074 1018.0111435662257,201.74094899115153 1018.3617174754618,203.17562309798086 1018.3922135608736,203.30033378768712 1018.7336415573955,204.35864386789035 1018.9707071147859,204.78907019994222 1020.4691513458965,206.60007853544084 1021.0476448996924,207.28206368768588 1022.2968484408921,208.463991989207 1023.3883286756463,209.66577879490796 1023.9668222293258,210.54532409308013 1024.6642417778494,210.93926910165465 1026.0040888888761,212.39156837167684 1027.1610759963514,213.41348832461517 1026.4377333191223,213.64633276459062 1024.7815366543364,214.4000464375713 1023.763718883507,214.917617399944 1023.3357251129346,215.13500641321298 1021.1268997689476,216.6060321247205 1020.5217257814948,217.10703219793504 1019.2595606755931,217.9501211232855 1018.4318264321191,218.5062992076273 1017.511934008915,219.29527538490947 1016.6971613297937,220.17371355032083 1016.5377777778776,220.33273944311077 1016.0134897779208,220.85570070846006 1015.5134937886614,221.39312130364124 1014.5012975502759,222.18208820011932 1013.4365560035221,223.22160581708886 1012.2666073315777,224.06467373663327 1010.3862775466405,225.28406215680297 1009.1775315626292,225.92956686974503 1007.6127648996189,227.02313513687113 1007.0738842169521,227.5616545402445 1006.3902126650792,227.95557223440846 1005.1935835592449,228.7093214126071 1002.8140733441105,230.2861330533633 1002.1441497885389,230.73530383000616 1000.9483071148861,231.4702148869983 1000.3075106703909,231.81887975765858 1000.1748075520154,231.89058302232297 999.7508624497568,232.47545047441963 999.6982588870451,233.04923336778302 999.8697884443682,234.42969930096297 1000.3002288924763,236.13784184725955 1000.3301424356177,236.25701413932256 1000.33800675557,236.281245831633 1000.8560615538154,237.88895368610974 1001.1449151148554,238.65919741697144 1001.6449111041147,239.71735502802767 1002.4734317796538,241.94075024785707 1003.2088913351763,243.67974492767826 1003.8003173262114,244.82729670935078 1004.2218740052776,245.93841757660266 1004.9710815574508,247.40814644645434 1005.996181105962,249.48803609167226 1006.4048053476727,250.45685245102504 1007.7195448889397,252.73309904697817 1008.6265340019017,254.65183479775442 1008.9283200000646,255.26091755309608 1009.5068135538604,256.1215114929946 1010.545690225903,257.77103435766185 1011.4987875556108,259.60258438333403 1012.3370075592538,261.0909793092287 1012.8362171165645,262.70519759191666 1013.4413911041338,263.9596650652238 1014.072488220525,265.3575528442161 1014.7294793387409,266.4685807787464 1015.1242973298067,267.6877585485927 1015.8079688817961,269.26551136292983 1015.8343580445508,269.38244332309114 1016.1235320034903,270.6644413266331 1016.149426005315,273.60359417781 1015.9131468799897,276.5074426343199 1015.6502164480044,277.79826040030457 1015.7553944461979,278.9456129676546 1016.4123564374167,281.77763012744254 1016.5377777778776,282.0564413537504 1017.1219511183444,283.3552923845127 1017.569343544892,284.89759707206395 1017.9900846650125,286.25898577290354 1018.0952626633225,287.6567465721164 1018.1211566650309,288.9475057136151 1018.3056186597096,289.98785264237085 1018.4634293477284,290.88367141626077 1018.3849026560783,291.5654621364665 1017.8323322313372,292.13910691894125 1016.783756231307,292.65651398175396 1016.5377777778776,292.77820059354417 1016.0191695643589,293.0349178428878 1014.5725133370142,293.5732130105607 1014.0207293441053,294.0387893236475 1013.1266435415018,295.04265669942833 1011.4170860089362,296.40621314558666 1010.2600697743474,297.05157056380995 1009.7082857814385,297.5888243559748 1009.0504791041603,298.9159092580667 1008.4994815433165,300.241954429599 1008.1572671147296,301.6407475962187 1007.5423646720592,302.4791380339302 1007.3950979983201,302.67992876289645 1006.2907144533237,304.4725426720688 1005.5018357760273,305.26128229132155 1005.0018106596544,305.5845055541722 1004.0026051130844,306.014714699646 1000.0065402312903,308.0223871227936 997.1140433351975,309.5998410192551 996.5881242169999,310.2452034688322 995.4845562312985,309.16963815590134 992.9601968924981,307.98601049231365 992.2651948942803,307.4896039692685 990.7513715486275,306.4085065139807 989.7521660018247,305.76321340474533 989.1995373226237,305.08257407537894 987.6744417849695,303.5039394714404 986.9381666703848,302.68100102298195 986.7902592000319,302.4791380339302 986.2811755520524,301.7841530320002 985.5449004373513,301.3185914072674 985.1242175715743,301.1035026710015 984.2835508906282,301.1752254131716 983.4154173440766,301.71247018128633 981.9954415503889,302.2507463226211 979.7340708978008,302.10738087270875 977.9914249671856,302.4791380339302 977.5519551148172,302.57290128833847 975.4491233279696,302.50121866789414 973.4765771094244,302.9678105956409 972.030765568139,303.64845578809036 970.5581862115068,304.258489239146 967.9925828836858,305.69653553538956 967.9780484550865,305.70475609548157 966.719902890618,306.4096184706432 964.8792442312697,307.01853310712613 962.145344455028,307.23369608656503 959.6614426738815,307.0604696494993 959.0683564374922,307.01853310712613 957.5440473315539,306.3025926219998 955.072291555698,304.8685608872329 953.4427753245691,303.11121525638737 952.8057945315959,302.4791380339302 951.8909702257952,301.5712489472353 948.2889077760046,298.88171554589644 946.2637579948641,297.3759166330565 945.3697304462548,296.9820706156315 944.2394528995501,296.7305203531869 943.7199999999721,296.68743033130886 942.951364664943,296.623569713498 938.8104797867127,296.5540299298591 938.7700222294079,296.55291792866774 937.4819631219143,296.3378250170499 936.7189784464426,295.7641503311461 934.8532413439825,294.43704839155544 933.7221191112185,293.2180034647463 933.0125535574043,292.8959156527999 932.1711295716232,293.2897285105428 931.4081448961515,294.2583322962164 929.1467451165663,297.5204365569516 925.9921042204369,301.7499597191927 925.408688185038,302.4791380339302 924.0988419983769,304.116236928734 923.2048144497676,305.2282014247612 922.4159648997011,305.73009289306356 921.3916226559086,306.30370457918616 920.5501986702438,307.1277825504658 919.4474171164911,308.13016675855033 919.288033564575,308.27499805152183 918.4465804515639,308.7769230037229 917.0525277866982,309.1001813504845 915.2919395556673,310.0323067212594 914.7401555627584,310.7128926165169 914.5686260054354,311.30746056878706 914.4505155700026,311.71673152706353 914.4245924410643,313.3658808681648 914.7927299983567,314.8352060971665 915.4496919893427,315.9107465907 916.2652511004126,316.73471289442386 916.5808142222231,317.5234131218749 917.1852017777273,318.921035643958 917.5800197689096,320.3914395219763 917.685226894333,321.68202657368965 917.8430084551219,322.9361927160062 917.7904048925266,324.7639607209712 917.5800197689096,326.0545247894479 917.5800197689096,327.2016915680142 917.8430084551219,328.24179699190427 918.5266800072277,330.17765284044435 918.9991800036514,331.6821784581407 919.1569324374432,332.7223046114668 919.0784640001366,333.5815946358489 918.7629300054396,334.3702010415727 917.9390987945953,335.57137159100967 917.2386208996177,336.5927788709523 916.9756322134053,337.52479987579864 916.186782663106,339.1020245338441 914.7401555627584,340.9296722073923 914.293520441046,342.22015131270746 913.8394870329648,343.8046915496234 913.8210495717358,343.86909579037456 913.7951264427975,344.09300164791057 913.7417364481371,344.55073939258 913.7417364481371,345.44524733169237 914.1891580019146,346.52172582101775 914.3210455609951,347.4890078596072 914.3210455609951,348.38572862843284 914.2684419982834,349.7830960833817 913.8210495717358,351.75515226618154 913.5321960108122,353.1173217580654 912.8743893334176,354.7297439468093 912.6640333370306,355.5172501132474 912.7692113352241,356.12715471175034 913.5847704464104,356.8076525600045 915.4513231075834,357.381144935498 917.0031573333545,357.847672292497 919.2119826774579,358.8149494235404 919.4474171164911,358.94120894355 921.551035335171,360.0688862183597 922.9547873280244,360.7637062690919 924.5228162276326,361.53793201001827 929.3077597867232,363.4735253864201 932.3272508871742,364.51022151182406 933.0675746703055,364.76388602657244 935.2504768853541,365.767464290082 936.8808086756617,366.6993745713262 937.9851922204252,367.8099440151709 938.5102957795607,368.56215225491906 938.5458017280325,368.659185600176 938.6939713421743,369.0639142871951 938.5637149013346,369.8888536246959 938.248151779524,370.856043627311 938.0895546595566,372.28972974291537 938.2214422186371,373.18524830183014 939.4569268907653,374.7269888423616 940.613913998357,375.5507578123361 943.2952102115378,376.51796521869255 943.7199999999721,376.6553717250936 944.8470444375416,377.0197109969449 946.2670202312293,377.37813424051274 947.7128317725146,377.5215351525112 949.1594880002085,377.77189102891134 950.4993351112353,378.0949791583116 951.9726717723534,378.3453344501904 953.102978446288,378.8118219837779 953.7081815608544,379.7436827682541 953.9444024321856,380.3524552822928 954.7073871076573,381.3559698466561 955.9509691166459,382.70578714000294 956.2584057742497,383.0399451755802 956.9687868872425,384.1151472796337 956.9687868872425,384.9753293936956 956.4687617706368,387.44882747373777 956.2851153351367,388.8107196027413 956.521394460462,389.5628635244211 957.1524624498561,390.2443406107486 957.6783524409402,391.49815664364723 957.9672060019802,392.71560219477396 958.2568459948525,393.46769445965765 958.9405175467255,394.18445271987 959.1767966721673,394.79426129948115 959.4923597938614,395.58271086146124 959.9923557831207,396.227807684103 961.5433744497132,396.7648445342202 962.437401998206,397.58969083352713 963.5159206684912,398.1266850081156 964.4884166542906,398.4850774506922 965.2247208959889,398.98574621253647 965.6980073245941,399.4157917582779 965.9083924480947,400.1689353417023 966.4868860017741,400.7423264728859 967.012775993091,401.49546598887537 967.0840500338236,401.7425025514676 967.3024451130768,402.4989735655836 967.4335171129787,403.64574361103587 967.8283351040445,405.61625583312707 967.9925828836858,405.9853157433099 968.2749410987599,406.6197068777983 968.8534346524393,407.5503506658133 969.6949168924475,408.5901952419663 970.1949128818233,409.44918015552685 970.8519331271527,411.0259826677502 970.9562664391706,411.11863269936293 971.2993255539332,411.42071760690305 972.0348142365692,411.45604682934936 972.954706659657,410.70396994653856 973.7435853369534,410.3456350280903 974.3487593244063,410.5242666579434 974.9006015716586,411.16932423989056 975.5057755593443,412.2091534959618 976.0316655504284,413.7131766556413 976.8731186632067,416.1852738932939 977.267965781386,417.9770594438305 977.583499776083,419.44687035883544 978.3723493261496,421.70281532604713 980.8441051023547,426.5410811477341 981.4225986560341,427.68773895769846 981.5010962205706,428.906076862535 981.3441302187275,430.0880501762149 980.9759926614352,430.87638645916013 980.1612782366574,431.5214302917593 979.267192433821,432.02306372555904 979.0568655645475,432.6317066824413 979.0568655645475,433.63500768330414 979.2405411271611,434.3164022009587 979.4984325690893,434.82136405364145 979.6612239930546,435.14001103962073 980.1086746739456,435.6416767760529 981.2130582187092,435.89304509956855 981.8700493369251,436.1797388327541 982.2648673279909,436.8963724725181 982.2842951113125,437.0275533141685 982.475223324378,438.2932761463453 982.8166804481298,441.62403814139543 982.6856084481115,442.2337289628922 982.238157767104,443.05731125880266 982.2122928923927,443.81032105046324 982.2907613298157,444.77725971426116 982.6588988871081,445.70887028082507 983.2899960036157,446.5335125589045 983.5796359964879,447.14207987720147 983.6055299983127,447.4651561555802 983.3433859982761,447.643760795414 982.8700704427902,448.00204131146893 982.6863948800601,448.43200105504366 982.5804304498015,449.36367714201333 982.790786446305,450.29527031676844 983.5796359964879,451.1904251544038 984.0529515519738,452.1584460690501 984.1581295504002,453.1253121877089 984.0270866774954,454.45155690045794 983.5796359964879,456.1713859005249 983.4485931235831,456.95856690237997 983.4485931235831,457.5318651825073 983.9218795519555,458.42703334213 985.2633577814559,459.68054110195953 985.8677162098465,460.82708393380744 986.1832793315407,461.93833914445713 986.0781013333471,463.6217224642751 985.8944257707335,464.7682469045394 985.4728982187808,465.34259851207025 984.2641522348858,466.02279385970905 983.8434111148817,466.45272206747904 983.3442015573382,467.4559246469871 983.2934621297754,467.8958116924041 983.207449770649,468.64211771218106 983.1338455609512,469.2826175184455 982.7915728782536,470.28580854355823 981.6880048924359,471.28899547242327 981.1353762133513,472.1488327065599 980.7672677831724,473.15201202902244 980.6361666560406,474.6203816882917 980.5051237831358,476.1251339999144 980.2162702223286,476.98499399557477 979.5058891094523,477.80953130545095 978.5066835627658,478.7046652746503 977.585917326156,479.0629401843762 977.1126308977837,479.7442087227246 976.9022457742831,481.03284758201335 976.9022457742831,481.9278904401581 976.5082142151659,483.1459990857984 976.2452837831806,483.826145149942 976.1401057849871,484.6859385128482 976.2201762133045,486.5852830573567 976.6409173333086,488.62679817457683 976.7193857706152,489.59459224215243 976.6142077724217,490.2030529133044 975.983139783144,490.6693677706644 974.1950555592775,491.3494930107263 973.6691364409635,491.8510043077986 973.1958500123583,493.31926222948823 972.8018184533576,495.39710997452494 972.6181428906275,497.15300103405025 972.4344964551274,498.4063112481381 972.17072133685,499.1657782551483 971.9870457742363,499.69596332509536 971.0790954666445,500.965767988062 971.0137342294911,501.05723335192306 970.0412091165781,501.88065818091854 969.0945780053735,502.56186346081086 968.5945528888842,503.20663976017386 968.3841968923807,503.99474147404544 968.8049088852713,505.71315236767987 968.9635060053552,506.71615499217296 968.7798304427415,507.82613132603 968.1754428870045,509.18739599722903 967.9925828836858,509.5786798266927 967.6228433351498,510.37005452706944 967.044349781354,511.0865114942426 966.4391466667876,511.40946402656846 965.5451191184111,511.51636086404324 964.8088148765964,511.51636086404324 963.8096093297936,512.0178706853185 963.41560689779,512.8059441422229 962.9689717759611,514.095520653238 962.2860866560368,515.7069262711448 961.7075931022409,516.423367679643 960.9713471147697,516.8179333232692 960.0773195662769,517.2830866770237 959.3410444514593,518.0711035715067 959.2358373262687,518.7522242954001 959.4720873244805,519.7188680941472 960.471351125394,521.7964529585443 960.7226307129022,522.3215104428236 960.865353557514,522.619808300864 960.7342815574957,523.4441925039282 960.0239004445029,524.7337131939712 959.7884660053533,525.6286762531381 959.663860224071,526.8840234933305 959.6039748836774,527.491280887858 959.7884660053533,529.0673657190637 960.2876464357832,530.2499285856611 961.5498406685656,531.539413567516 962.3386902187485,531.8601173511124 963.2845057706581,531.9317330713966 964.1526975716697,531.7531896854634 964.7570560000604,532.0034281233675 965.0200155592756,532.5048564636381 964.8363691235427,533.3292471861932 964.3896466206061,534.0312745299889 964.1526975716697,534.4038314615609 963.7586660124362,534.9404870244907 963.2594564551255,535.5499860290438 961.9705817885697,538.0208974423585 961.3402711041272,539.8117947623832 961.0773406721419,541.2091847221018 960.8669555485249,542.5339225882781 960.1566035626456,544.3600574687589 959.9987928748596,546.0428762789234 960.0255024357466,547.7984452035162 960.5514215539442,550.1623138291761 960.4729531166377,551.165214417153 959.8151755662402,552.1316910716705 959.3159660089295,553.0628947358928 958.9745088854106,554.1737329384196 958.9745088854106,555.2481864137226 959.4211440072395,556.3215640387498 959.5061077902792,556.5837981761433 959.7107839999953,557.2164120862144 959.9996375609189,557.8257765105809 961.1566246685106,558.5773635586957 961.73514734942,559.1867642810685 962.1032557795988,560.726266986574 962.2084337777924,562.3020593762049 962.2084337777924,564.3076780588017 962.8128504604101,566.4917986608925 962.9662920818664,567.0923728854395 963.2335333263036,568.1381278307526 963.3913148872089,569.3921472131624 963.3654208852677,570.0004103606916 963.0757808926282,570.3948900059913 963.0231773296837,571.146438624477 963.2869524480775,572.6869771822239 963.2869524480775,573.8682194617577 962.971389326267,575.1222096133279 962.5247833315516,576.2318770667771 961.8936862151604,577.2709287444595 960.9203746702988,577.7723440866685 959.6323155626887,578.6318485284573 959.342646442703,579.204823374399 959.1590000072028,580.886332608352 959.1848648817977,582.4620354390354 959.1322904463159,583.393124213093 958.9793439859059,583.7424402657198 958.5812928853557,584.6471054463182 958.2916528925998,585.613450469682 958.2916528925998,586.9026450504316 958.4761148871621,588.5499085464398 958.4591046542628,588.6777160890633 958.3709368888522,589.3377366647474 958.0812968959799,589.9470611364814 957.7163924480556,590.3503544863197 957.2705728854053,590.5751465090434 956.347418225836,590.7613425337477 955.6111431112513,591.1954555980046 955.2519184498815,591.7530105073238 954.8449253262952,592.4758546057856 954.657259349362,593.3022258763085 954.7049695574678,594.3555645790184 954.8926937885117,595.0784010255593 955.1588573297486,595.6964774560765 956.0658464427106,597.8053907753201 956.7762275557034,600.1489856034168 956.7859560108045,600.1809161552228 956.8328797867289,601.151602950471 956.7697322097374,601.771925019566 956.3166599966353,602.5145721135777 956.035088213277,603.154683479399 955.753545557498,603.8367187588592 955.518897550297,605.1588582939585 954.9242384498939,607.7811024862458 954.5172453263076,608.5050100521185 953.9387808995089,609.0415831957944 953.4541348977946,609.4547215068596 953.0787155628204,610.2402614745661 952.5940695608733,610.6534374349285 951.9371075698873,611.3762259665527 951.3739640037529,612.2653207705007 950.9046971165808,612.7192274954286 950.4507802168373,613.2359598565963 950.0438453475945,614.2694213208742 949.9499686685158,615.053835345374 949.4653226666851,617.1604011915042 949.0429795556702,617.9657874085824 948.1036593493773,618.9375145342783 947.5097866810393,619.4531232863665 946.3843151075998,620.0943010922638 943.7199999999721,621.2598871452501 943.2240526792593,621.4769565114402 942.4109111183789,621.8283998567495 941.4715326577425,622.345113074407 940.8995344497962,622.9554662737646 940.7369177885121,623.1295409972081 940.3299246649258,623.894135691342 939.7506155520678,624.6785190111259 939.3282724409364,625.0916707096621 938.5143444482237,625.649109095335 937.7020184464054,626.1448732289136 936.9981035521487,627.1363984972122 936.7788346596062,627.6938719082973 936.2780522382818,630.4833220054279 936.0595697778044,631.412087286124 935.6210319929523,632.3837612738716 935.2140971237095,633.0436248726328 935.034790627542,633.2011542545515 934.8855724374298,633.3322700227727 933.2900766720995,633.7454071813845 931.8992571166018,634.2631661709165 930.600683121942,635.0067859453266 929.6613046613056,635.9156250650994 929.2389906774042,636.4113684996264 928.8328131129965,638.0638526168768 928.6920417848742,638.3943719031522 928.2850486612879,638.7248510860954 927.7526633244706,638.9099001981085 927.0649722311646,638.8063901034184 925.9379277938278,638.3514210779103 924.546263552038,638.3106514971587 923.279234218644,638.9297693724511 921.4490904463455,639.9630831920076 919.4474171164911,641.2156258394243 918.4457648925018,641.842509478447 917.8049684482394,642.4417495725211 917.5937677655602,642.6213230238645 916.1778697671834,643.8254294262151 915.8024795592064,644.6516281325603 915.6592615538975,645.036033851793 915.4472744392697,645.7279071109369 914.9772211201489,645.8413684289553 914.4569526612759,645.9735482207034 913.830748899607,645.8909011584474 912.9083806719864,645.7047468774254 912.1259973405395,645.6639785158914 911.8128517689183,645.7675650400342 911.1712688927073,646.263288613467 910.2335215503117,647.3153296990204 909.7958284516353,647.5631503930199 909.3572906666668,647.7074644889799 908.6064519964857,648.0379311561119 908.0748822186142,648.5336501528509 907.7771448888816,649.3388939608121 907.9810346666491,649.732215242635 908.0279584428063,650.2686984288157 907.6209944463335,650.4339102683007 906.6517024427885,650.4757485825685 905.8693482382223,650.3931426908239 904.9776799858082,650.454849254922 904.2106757689035,650.7027064420399 903.632182215224,651.1984200669685 902.6628902115626,652.5203049627016 901.8651277654571,653.2847686184105 900.4880853333743,654.358828703349 899.7364311040146,654.833596346376 899.5333860126557,654.833596346376 899.0794691129122,654.4007060063886 898.673320675618,654.0900761823286 897.6870475662872,653.3674131955486 897.2290819983464,653.3244253287558 896.7954375681002,653.2847686184105 895.356033991091,653.388351932459 895.1748051057803,653.4260257915594 894.7621904499829,653.5117238854873 891.3834455609322,654.5615131975501 890.5913629013812,654.8071851399727 890.2418375681154,654.9162404030212 880.9963682133239,657.5600027764449 876.789160903194,658.841087300214 872.67492733174,660.183869273169 872.6668591218768,660.1849399743951 871.5794275555527,660.3898403788917 870.9022222222993,660.6761534120305 870.8447544319788,660.7004622454988 870.2654744463507,661.0507788398536 867.0752402205253,661.9386233594851 865.7604715520283,662.227194940031 864.603484444553,662.7438232751447 862.7409513245802,663.2813884198549 862.6341713352595,663.3127952583018 859.3630511218216,664.2727639611694 856.5627706595697,665.2641355060623 855.8904295538086,665.4084392150398 854.5133579946123,665.7796471301699 853.1551608035807,666.2489203875302 851.9866102329688,666.6526041190373 850.0868526649429,667.308568942477 849.7227637761971,667.5740157025866 849.7438226772938,668.2514707000228 849.5706620018464,669.0434451081674 849.5706620018464,670.0766720563406 849.4503379056696,670.7572924717097 849.1952426667558,672.2036244272022 848.7720839964459,676.1061483584344 848.6936155591393,676.6910695636761 848.1944060018286,680.4426452044863 847.6935944533907,684.8197878180072 847.4435673316475,686.0588584488723 847.2396775537636,687.2363048194675 847.1619955485221,689.1780976473237 846.6296393388184,693.9476216767798 846.5996966685634,694.2159341457882 846.0050084409304,698.2414979949244 845.8850338702323,699.2922065800522 845.5664997831918,702.083065034647 845.348046449828,703.343022836314 844.8010975572979,708.3596351711312 844.3261800106848,712.090864558937 844.1125617779326,713.7703949058196 843.9717613226967,714.4928407903062 843.8577286826912,715.1117669210071 843.7128795591416,716.0721281751757 843.7379580017878,717.3627799203387 842.1424331094604,730.5977345802821 841.9563399964245,732.3310543842381 841.5485604408896,736.130265359534 841.4547128889244,736.3372828916181 841.3139415609185,736.3989282547846 840.9223275519907,736.1721287427354 840.6100266667781,735.8417408255627 839.7960986738326,735.346197761246 838.5913431040244,735.0158483784762 835.7287888781866,734.3143549679662 833.8671295716194,733.9432504678844 833.4293782188324,733.9840041995631 833.1009117868962,734.0258283044095 832.0070140017197,734.9541630251333 831.301467989455,735.5532159531722 830.4422473388258,736.0696902999189 829.6283193459967,736.0278268992552 828.9559491130058,735.6974387883092 827.8766440106556,734.9541630251333 827.6411804445088,734.748214705789 827.3596086614998,732.9929095887346 827.2458672923967,732.3310543842381 827.2034582188353,732.0843894731952 827.03111310245,731.7947501606541 824.9978951112134,729.9369829735369 824.6062811024021,729.6275585746043 823.9646982259583,729.4821824924438 822.3691733333981,729.2762295922148 822.3570273281075,729.2739698578953 821.7275613298407,729.151825235167 820.6013324515661,729.1110707029584 819.5219982223352,729.2135120433522 818.2856979911448,729.2960518230684 817.5510539948009,729.1738675668603 816.6117046615109,729.1320029926719 816.2209353387589,729.2773396371631 815.729793991195,730.3851620184141 815.4700675414642,730.9699541642913 814.9854506668635,731.2176905847155 814.6723633494694,731.1549735309673 814.1253853298258,730.9897762587061 813.3591675448697,730.6803531839978 812.68604000716,730.6814632225432 811.9982906597434,730.8675135552767 811.7474771059351,731.3828877038322 810.9812884479761,731.7330639995635 809.5419139981968,731.8982607726939 808.6972277760506,731.9412349089398 808.1996493369807,731.8542162394733 807.7586940017063,731.7760381649714 806.6008913351689,731.4864381331718 805.8969764407957,731.548084711947 805.0053664426086,732.0029210178182 804.8459828906925,732.0590569491033 804.0725124551682,732.3310543842381 803.831398229464,732.4158528234111 802.6744111218723,732.5601171416929 800.8758120107232,732.5391851434833 799.2802871182794,732.4775388131384 798.0844444443937,732.4387273857137 796.7300629050005,732.3949208130362 795.1498880001018,732.8078916046652 793.4605155555764,733.8199188516592 791.7703275519889,734.5632376853027 789.6748066704022,734.7493247261154 787.4999726649839,734.707461100712 786.1552904533455,734.3154649903299 785.185182890622,733.9443604919361 784.5128417849774,733.3243717147852 784.2781937778927,732.7252737153904 784.1126644053729,732.3310543842381 783.7927322169999,731.5690167944413 783.4173420089064,731.3421731854323 782.2757048888598,731.0943972461973 779.6931204551365,730.4953334603924 778.2699115519645,729.8158694338636 777.3783306808909,729.1132907943102 776.4632151040714,728.4338229506975 775.6258106596069,727.8127102343133 775.2285751182353,728.048358212749 775.1363295575138,728.1023542352486 774.9850142151117,728.1926250921679 774.4057342294836,728.5351148802438 774.1710862222826,729.0516039609793 774.1241624463582,729.898448655731 774.3442177706165,731.714351999166 774.5364858311368,732.3310543842381 774.7819691236364,733.1184616748942 775.095056440914,733.4488136056461 775.7835922205122,734.357289038715 776.2528591076843,735.3065542730619 776.361299342243,736.3626149752527 776.3831155486405,736.5795431336155 776.3596682241186,737.6146668050205 776.5870053261751,738.1586490897462 777.3863988906378,738.7885760595673 777.8411022223299,739.1299014531542 777.3702333440306,739.7047224742128 776.6412108801305,739.9403590618749 776.3782804481452,739.8082297581714 775.4397175468039,738.1553190751001 774.563486663159,736.5454102617223 774.3757624322316,735.4717486464651 773.8749800107908,734.438796358183 773.8118615609128,734.4313037117245 772.1540337777697,734.2339576298837 770.652385564521,734.0688020690577 769.6515488995938,733.7791650927393 766.8043446614174,732.4995412029093 766.407254755497,732.3310543842381 761.2920680107782,730.1605373996426 759.7483311219839,729.5053348385845 758.9974924514536,729.2376951709157 758.43598000356,728.9095576784457 758.1835644586245,728.7630711249076 758.0743086650036,728.9492021977785 757.8396897849161,729.4855126246111 757.2449724304024,731.1780464312178 756.7288108941866,731.7352840673993 756.3542071183911,732.0458554918878 756.0297602276551,732.3310543842381 755.7441397759831,732.5821591679705 755.7441397759831,733.2021101716673 755.5402499982156,733.4499236317351 754.0309122275794,732.3310543842381 751.7237828836078,730.6208868211834 749.5392495503183,729.0216723621124 746.5925762276165,726.864526138932 742.540674673859,723.7678076219163 741.3788233386585,722.9374739903724 739.8811946667265,721.8681140053668 734.5307191183092,718.0081825460074 730.9011606756831,715.1789681464434 728.3047991183121,713.0721712633967 726.8346955664456,712.1635775733739 725.266666666721,710.9932284668903"/></g></g></svg>