<svg width="1200" height="800" version="1.1" xmlns:xlink="http://www.w3.org/1999/xlink" xmlns="http://www.w3.org/2000/svg"><g class="geojson-features"><g class="geojson-feature" stroke="#555555" stroke-opacity="0.0" stroke-width="0.0" fill="#111" fill-opacity="1.0" data-properties="{&amp;quot;N03_002&amp;quot;:&amp;quot;後志総合振興局&amp;quot;,&amp;quot;fill-opacity&amp;quot;:1,&amp;quot;description&amp;quot;:&amp;quot;虻田郡真狩村&amp;quot;,&amp;quot;N03_001&amp;quot;:&amp;quot;北海道&amp;quot;,&amp;quot;stroke-opacity&amp;quot;:0,&amp;quot;N03_007&amp;quot;:&amp;quot;01396&amp;quot;,&amp;quot;fill&amp;quot;:&amp;quot;#111&amp;quot;,&amp;quot;N03_004&amp;quot;:&amp;quot;真狩村&amp;quot;,&amp;quot;title&amp;quot;:&amp;quot;虻田郡真狩村&amp;quot;,&amp;quot;stroke-width&amp;quot;:0,&amp;quot;N03_003&amp;quot;:&amp;quot;虻田郡&amp;quot;}"><title>
      虻田郡真狩村
    </title><desc>
      虻田郡真狩村
    </desc><polygon points="495.53399751125835,699.4711200997699 495.573697763728,699.5767654649098 495.5842417778913,700.3282841673936 495.4838988800766,701.3559739617049 495.3237288960954,702.0195097555406 495.1635006578872,702.7588998720166 494.9029877760913,703.4444162299042 494.70236023468897,704.0077693396597 494.5721037937328,704.239970900293 494.6125030970434,704.8594116587774 494.9725724445889,705.3787535825395 495.27357201080304,705.8980944111245 495.3633708942216,706.3844382193638 495.3464480426628,706.5048158877762 495.2638435555855,707.0919681140804 495.0429726720322,707.7102925975341 494.70236023468897,708.3297642371617 494.3018333298387,709.0471515643294 494.0113777779043,709.6996549364994 493.9709202203667,710.8714473092114 493.8107211093884,711.4457950482029 493.41103889083024,712.087240863766 492.8802555449074,712.562560879509 492.42881444992963,713.0378799778409 491.938488661428,713.579227703216 491.6779757796321,714.1084536663839 491.7281326648081,714.8929624207667 492.0388315592427,715.8435907036765 492.39887177967466,716.5510538122035 492.61974266311154,717.1363600611803 492.76942688727286,717.8658817309188 492.72978488903027,718.7273387591122 492.60922777606174,719.633946839429 492.2588868837338,721.1478707217611 491.95873200369533,721.8993632051861 491.5679335538298,722.385635804967 490.8964080072474,722.628791548952 490.05492576712277,722.6397630599095 489.17385978309903,722.4186691942741 487.89145133516286,722.1094860029989 487.2101973333629,721.9664203212596 486.43914444814436,721.789291266643 486.0071020090254,721.5891099320725 485.74816199112684,721.4691753309453 485.106579114683,721.0598604363622 484.5353673386853,720.6065396338236 483.7942279964918,720.1532576055033 482.90666666661855,719.8430813502637 482.7521182151977,719.789094560605 482.291735096951,719.6559297366184 481.6307535645319,719.5459360128734 480.9494704356184,719.512902238348 480.277944889036,719.5239134969306 477.87335623113904,719.2917659564991 477.2721726578893,719.2587717566639 476.59176334226504,719.368805217382 476.2616366648581,719.8220886896015 475.820681329933,720.4404604274896 475.48003976547625,721.0268664734322 475.129728000029,721.756297401269 474.98983048531227,722.5894208519021 474.9590140018845,722.7729262706707 475.04962844459806,723.4253536674078 475.1693699982716,724.1207145239459 475.31986978137866,724.872158328013 475.4096686647972,725.5025977899786 475.68072556098923,726.3750786650926 475.76082511642016,727.0164459882653 475.5100115627283,727.4147400773363 475.0892704427242,727.7129057162092 474.6483151075663,727.8119245121488 474.1377751039108,727.7459383909008 473.45652110211086,727.237614941434 473.0358382364502,726.9174268723582 472.4346546630841,726.3420854143915 471.632843548432,725.5686241199728 470.7016206791159,724.5079626531224 470.3310364445206,724.0326656929101 469.9604813370388,723.3912905993056 469.70966778323054,722.7949484960991 469.378725546645,722.1644624942564 468.8180577849271,721.5021692346199 468.16671732638497,721.049958287098 467.35520688362885,720.7298017817666 466.91425154847093,720.6186994948075 466.2936984463595,720.5196778066456 465.4417304462986,720.3975245974143 464.63100643560756,720.4536501230905 463.83487510751,720.529540368705 462.08646200899966,720.6968077745405 461.42545134946704,720.8618173748837 460.80405356094707,720.9949815469445 460.443984213518,721.049958287098 459.5823168854695,721.183082748903 459.0014057816006,721.48125593242 458.6340837831376,721.668841852399 458.04912401072215,721.9675293578766 457.6235477901064,722.2624537026277 457.0272575716954,722.6750144820544 456.50698911282234,722.7300304553937 455.815220224089,722.5638734645327 455.1743946525967,722.3207572649117 454.5934835483786,721.9455862752511 453.9624155591009,721.5252610036987 453.1654686719412,721.3646483966731 452.25926599104423,721.183082748903 452.0788526649121,721.5693056758028 451.9688395662233,722.2547300640144 452.1896813227795,722.8180005355389 452.62015089788474,723.3373441958101 452.97127822227776,724.0117922137142 453.2415195591748,724.45409571036 453.4114179982571,724.8853477860102 453.4421471004607,725.2495429030387 453.2617337743286,725.9019637384918 452.80056422401685,727.0505877701216 452.5602655573748,727.6248977768701 452.4397084445227,728.2651924442616 452.2698100054404,728.9836307054502 452.2398673353018,729.713077674096 452.3402102330001,730.7296736980788 452.42028066143394,732.4646540253307 452.415765959071,732.4789916726877 452.1597677797545,733.2820966328727 451.6281980017666,733.5802551681991 450.92833177617285,733.8684721020982 449.84576443734113,734.0005202591419 447.4120486684842,734.6529575190507 446.72027977975085,734.8740800080705 446.11912533349823,734.9840668860124 445.4079577885568,735.0390801096801 444.787375559099,734.7739550725673 444.51634779025335,734.5869336242322 444.253359104041,734.2601804355509 444.1255202135071,734.1006455090246 443.9151642170036,733.6473883166909 443.86500733171124,733.1170557474252 443.895823815139,732.4789916726877 443.9151642170036,732.0785273983493 444.0058077867143,731.4701262196759 443.905464889016,730.7637753580348 443.70483734761365,729.9793567670276 443.4742380089592,729.3049250917975 442.9434837902663,728.7195685483166 441.52109044627286,727.4709036113345 441.1100486543728,726.9845618372783 440.6699380053906,726.4102503370377 440.65939399111085,725.7358088876936 440.940179342404,725.1163810314029 442.0211155626457,723.9347544051707 442.071243320941,723.7026110224542 441.9612302222522,723.5364942961023 441.71041666856036,723.49244997598 441.0793486790499,723.7246331648785 440.43855223455466,723.8016314308625 439.7079277797602,723.7796489037573 438.9360593352467,723.5695275310427 438.2451060053427,723.2273125080974 437.1932677689474,722.5539713757462 436.79276999109425,722.2447883543209 436.2005284408806,721.4339237362146 435.6705897814827,720.7088884139084 435.49014732812066,720.4767419903656 435.19972090329975,719.9794147747452 434.8987213369692,719.3049953221926 434.63899488712195,718.7526488906005 434.3881813334301,718.0341807821533 434.36147177254315,717.9898582142196 433.79593978310004,717.0505664595403 433.42538467561826,716.6522556078271 433.0353726579342,716.6192214451148 432.625175551977,716.6643760549487 432.20446355908643,716.9295205887174 431.8136651094537,717.4708201501635 431.4625086579472,718.1441751811071 431.12189622060396,718.8186374216457 430.2610153245041,720.4877135973657 430.0806019982556,721.2722416383913 430.0603877833346,722.0566879633698 430.00050244270824,722.7091172575019 429.95031643030234,723.5705573440646 429.8597311148187,724.3220820428687 429.6793177886866,724.4331826588605 429.5005064534489,724.4298555823043 429.26664487819653,724.4254590882338 429.08055176539347,724.4211022021482 428.55789488356095,724.4111605798826 428.3774524303153,724.5762072996004 428.2868671147153,724.996448148042 428.31678065797314,725.6049049274297 428.5174373262562,726.2782377181575 428.708394666668,726.9515686680097 428.8386511076242,727.681021655444 428.5384671004722,728.4544763153535 427.9972271217266,728.6645935202832 427.30627379205544,728.620550117339 426.2245220125187,728.3554577777977 425.7236813369673,728.2333084550337 425.19776221876964,727.8933575400733 424.68157155555673,727.3245536141912 424.4663513316773,726.814050873043 424.3587557832943,725.6390072971117 424.0893300053431,724.5586213333299 423.9283153351862,723.8467847239226 423.8312055467395,723.1942792272894 423.77621356083546,722.5176901190425 423.74382421339396,721.792618378764 423.74382421339396,720.701164726459 423.5504784497898,719.8341693718103 423.2057882170193,719.3357714189333 422.7219577743672,719.0155730761471 422.02209154854063,718.8846655437956 421.1935999999987,718.8263611680013 420.5156082347967,718.897894931375 419.79549866670277,719.2895874679671 419.52202422055416,719.7803014067467 419.33269799815025,720.119154476095 418.1384864426218,720.9861488274182 417.56809022591915,721.2347719357349 416.8148340053158,721.3657178274589 416.2120484408224,721.3415170040098 415.4587922205683,721.3184252177016 414.70556512707844,721.5670875989599 413.8446551042143,721.9829766530311 413.640765326214,721.9829766530311 413.425545102451,721.8058476102306 413.328464440885,721.4383202837198 413.3608246614458,720.7143940165406 413.3932140088873,720.0377584861708 413.73705955559853,719.2895874679671 413.8665004372597,718.6723218915868 413.9522797797108,717.9593592129531 413.8883748978842,717.3905719513423 413.66182422754355,716.9867559638806 413.2532291129464,716.3574037628714 412.8980531201232,716.0603334385669 412.4352233244572,715.5376868446474 411.8761575538665,715.0007796963328 411.29038222238887,714.4374517347314 411.0711133298464,714.0347399767488 410.89553510420956,713.8410879488802 411.83083576895297,713.5352212119615 412.53233311290387,713.5187039221637 413.13913821883034,713.6804703301168 413.74437046051025,713.8410879488802 414.13918845157605,713.8894910676754 414.62060134415515,714.0182227204787 414.9029595592292,713.8179954591324 415.18936644261703,713.6155102770426 415.56965000531636,713.1479162182077 415.7597626596689,712.6329873838113 415.87627110420726,711.5370964102913 415.7007220053347,710.3136157364934 415.59877711639274,709.8943797017564 415.4231988907559,709.2496405030251 415.2775633352576,708.4276817294885 415.2629997796612,707.6861300428282 415.29212689073756,707.0094191034441 415.59877711639274,706.0906435773359 416.0664128853241,705.3974500297336 416.5332622224232,705.0112809609273 416.89895310241263,704.4632993186242 417.2929846615298,703.8669113773503 417.6586755415192,703.3508540149196 418.17006023111753,702.9965689976234 419.1620131271193,702.5938781409059 419.7024666737998,702.1911470141495 420.3748077796772,701.6586076659732 420.88613421528134,701.1920208090451 421.3829262224026,700.740921307297 422.3319748835638,699.8705282667652 422.6488195982529,699.4711200997699 422.74138555745594,699.3545021411846 423.09169732267037,698.4368468078319 423.57395490142517,698.050587598409 424.17266267025843,697.5180392955663 424.3190846579382,696.970080590283 424.2891711147968,696.293340201024 424.0706886543194,695.2623018067679 424.02624068269506,694.4722639331594 424.27457843208686,693.9242588369525 424.68398910586257,693.5534416273586 425.34016466489993,693.1506957143429 425.9251244373154,693.0384718169807 426.4065373298945,692.6841719620279 426.71318755554967,692.3771301616798 426.7722573369974,692.0063502354897 426.6694968889933,691.7169355163351 426.2463382187998,691.1359263196937 426.15251979383174,690.8685752716265 426.2811451164307,690.6737562334165 426.79733577976003,690.6518103621784 427.3208082206547,690.7937058343086 427.9931493262993,690.9730755380588 428.52958333166316,691.1612789007486 429.140437105787,691.1381446706946 429.5417504427023,691.1007496092352 430.1388562206412,690.6661108309054 430.41719489428215,690.1489166222163 430.5870933334809,689.6900326156174 430.6858051129384,689.2004075082368 430.70118422759697,688.5192486295709 430.70118422759697,687.7974043466384 430.6251333405962,687.4672614914016 430.35244532627985,687.2813133050804 429.19953601434827,687.0953253641492 428.86536066851113,687.0337254933547 428.51665089430753,686.847776979499 428.38071466668043,686.641981645429 428.38071466668043,686.0642880687374 428.3960937814554,685.6725426784833 428.3354220088804,685.3017130418448 428.15337756450754,685.1366399964318 427.8192022187868,684.8483660206548 427.66791600361466,684.4356626328081 427.3645280143246,683.5069388295524 427.3645280143246,683.0524792920914 427.4704924444668,682.7641632614541 427.66791600361466,682.5165709073772 427.91063222056255,682.4747376787709 428.0773266773904,682.599088514864 428.5627591111697,683.2175537346047 429.01746244262904,683.5685791972792 429.30631600355264,683.7127367838402 429.65502577787265,683.6720129673486 429.9430637797341,683.5685791972792 430.079786439077,683.1768298362149 430.1558373263106,682.6816457093228 430.2311017814791,681.7319986115908 430.35244532627985,681.194978132844 430.7925851022592,680.5347138893558 431.1413240035763,679.8546798790339 431.2772602312034,679.1944120413973 431.3225528890034,678.7190276097972 431.48921821883414,677.5855885754572 431.7473426774377,676.9044371801428 431.974679779727,676.3058036171715 431.974679779727,676.1198073853157 431.89862889249343,675.8314832366304 431.48921821883414,675.2328470647917 431.2618811164284,674.9236442367546 431.2472884337185,674.7585642333142 431.36869023297913,674.118090804317 431.7473426774377,673.4171216866234 431.7934508942999,672.9835609485162 431.7627217920963,672.4057957082987 431.51997644803487,671.4990137242712 431.4439255609177,671.2106841644854 431.45927554857917,670.8387630957877 431.64131999283563,669.9517837503226 431.5498899910599,669.2914893556153 431.3225528890034,668.3010642517474 431.109750215197,667.0629876518506 430.95022102759685,666.4588629612117 430.83709132811055,666.0307967952685 430.5644615680212,665.5355781828403 430.36703800898977,665.2472020215937 430.2003435519291,664.5660561081604 429.9268691057805,663.8022655770183 429.71488199103624,663.2454366595484 429.623481116374,662.7083758570952 429.6542102188105,662.564245589776 429.8815764480969,662.3165933036362 430.1695853227284,662.2549872331438 430.30957021878567,662.2803031700314 431.18583022942767,662.4409543212387 431.3986037761206,662.4409543212387 431.5045973334927,662.2956749740406 431.64131999283563,661.9864558980335 431.6566991076106,661.7597610257217 431.5652691058349,661.3261401405907 431.51997644803487,660.7693056226708 431.4439255609177,660.0275707709952 431.2472884337185,659.3672497596126 430.8225568997441,658.8720177434734 430.1695853227284,658.5209570685984 429.1687777850311,658.253530984337 427.8790875590639,658.0466420424636 427.81838665972464,657.9233881302644 428.0158102188725,657.7373780109338 428.39530734939035,657.345587546879 429.0473759858869,656.6225821505068 429.4721657743212,655.8796858519199 429.5781593316933,655.322799395828 429.5781593316933,655.0135715618962 429.5174584321212,654.621816382336 429.25939222762827,654.1881433056551 428.91068245342467,653.9603715288686 427.9850519892061,653.6929008711595 427.2568742117146,653.5069271749817 426.77144177793525,653.2593053971068 426.37662378686946,652.7222228099708 425.31508622237016,650.3923817476607 425.1330709049944,649.6077070751344 425.1330709049944,648.968277579057 425.25441444979515,648.1846284958301 425.451838008943,647.399946786405 425.84502488176804,646.0594645410893 426.2245220125187,644.1808040111209 426.3458655573195,643.4797100289143 426.70995444629807,642.798424644745 427.24070866487455,642.2822788882768 428.0141791005153,641.0441110551474 428.31762534414884,640.3011677442701 428.3483253191225,639.7234050426632 428.30303266155533,639.1664820384467 428.24236088898033,638.3619210108882 428.2723035591189,637.7225019259495 428.40905534580816,637.5772079909802 428.7884942222154,637.2679578658426 429.2132840107661,636.8760952016455 429.5166719999397,636.5261125799734 429.6073155697668,636.216861134395 429.5927228871733,635.9273808256839 429.4730104606133,635.6840998210828 429.44062111293897,635.6180890054675 428.87913779204246,634.9995438218466 428.57569154852536,634.6066473614192 428.3329753316939,634.1113655327936 428.24139969423413,633.4421787654865 428.2116317868931,633.2242538527935 428.1363673316082,632.4604056989192 428.16631000174675,631.6976646181429 428.2723035591189,631.2849513680558 428.57569154852536,630.8919697327074 430.94148289435543,629.2828702054103 431.5175297707319,628.9108065422042 432.2157940053148,628.3330171061098 432.4585102222627,628.0236761202686 432.59523288183846,627.7342258000863 432.59523288183846,627.4040023906855 432.2910293334862,626.1657993439003 432.1850357761141,625.7332252282067 432.26108666311484,625.1344672219129 432.32178756268695,624.8867772787344 432.1704722206341,624.1857075920561 431.8670551039977,623.4834471797803 431.70041890151333,622.5974066820345 431.5329088853905,622.2462942728889 431.13887732627336,621.875329461298 430.8808111217804,621.5033338505891 430.85083932452835,621.0080256565707 430.8961611094419,620.7394493247848 431.3815935431048,620.265061496757 431.68503978685476,619.9557499965886 431.79100421699695,619.7290164160077 431.79100421699695,618.986048395629 431.8670551039977,618.696587447892 432.2157940053148,618.4698130822508 433.0806944427313,618.1186947852257 433.88495223456994,618.0570776528912 434.36147177254315,618.037265067047 435.87206200894434,617.9744987839949 436.4780515555758,617.9535766860354 436.69085422938224,617.9128419903573 436.9335704463301,617.7268808862427 437.10023577616084,617.4582613489474 437.20622933341656,617.0246020468767 437.1301784462994,616.4885499090888 436.9028413441265,615.3328321103472 436.9182204587851,614.8991690634866 436.872869546758,614.5898508202517 436.6754751148401,614.0736062866054 436.61477421526797,613.8468672876479 436.5994242276065,613.1864223894081 436.69085422938224,612.6910974593484 437.03956400358584,611.1016524662846 437.28228022065014,610.6679423383321 437.7984708836302,610.1517292055069 438.31384598766454,609.6156620994443 438.38590646057855,609.5694575617672 438.8600084480131,609.2645311719389 439.3762282382231,609.2028721965617 439.5881862259703,608.9959816526389 439.7249088854296,608.5831510837888 439.6334788836539,608.1703990760143 439.6334788836539,607.9029182866798 440.2556631040061,606.952982680581 440.3163640035782,606.4378316864022 440.40779400535394,606.3134423731244 440.9684908943018,605.8797238079133 441.57529599999543,605.4262305042939 442.0461940054083,605.0343171458808 442.2889393493533,604.2098704754026 442.3188528926112,603.7145274804207 442.33423200715333,602.8889668159536 442.545403562719,601.8982745123212 443.04539955197833,600.6587939418387 443.1930740054231,600.4210259983083 443.45559665793553,599.9983532835031 443.60691199998837,599.482078144385 443.62229111476336,598.9658019223134 443.3949248853605,598.3471646271064 443.16677222400904,597.9750938271754 443.1975013263291,597.6866781369899 443.6676128996769,596.9436435780372 444.2752044373192,596.4274016598938 444.72993689612485,595.8494567094021 445.2460984319914,595.2506260027876 445.4581146737328,594.5901708320598 445.5187864463078,593.9714829092263 445.7922608925728,593.4970434869174 446.1563497815514,592.8982070566271 446.18629245168995,592.3830266442965 446.1409706667764,591.8050721965265 446.11021243734285,591.5155792810256 446.00424800720066,591.3097042351146 445.64012999110855,590.9167380295112 445.2760702293599,590.6491988590569 445.0640831148485,590.4422927185078 445.00338221527636,590.1340137390653 445.0939966577571,589.7421552885789 445.4427355590742,588.9990967442864 446.0495406650007,588.1734867183841 446.8990911147557,587.4094987434801 447.3545808782801,586.8722724562394 447.4452244481072,586.4594840372447 447.45975887647364,586.0466552954749 447.30850178853143,585.5722005959833 447.0956991148414,585.2628454938531 446.53500222589355,584.7674643642968 446.29225688183215,584.3953730344074 446.23158510925714,583.9418401423609 446.30684956442565,583.0743630267098 446.54956578148995,581.6707945088274 446.6248011093121,580.7834541715565 446.6248011093121,580.122960175795 446.658006016165,579.7310065225465 446.74617378157564,578.6995590724982 446.68550200900063,578.0390198521782 446.579479324515,577.6889535589144 446.4281931092264,577.1935571834329 446.3829004516592,576.53301392094 446.579479324515,575.5422155190026 446.65553021174856,574.8398162996164 446.51880755194,572.3627957729041 446.35214222222567,571.8883146914886 445.8060088889906,571.0219048036961 445.04710200894624,569.9694154078024 444.53172690502834,569.4541869951063 443.98556444444694,568.6901805390953 443.22662843728904,567.4097896540188 443.2191136426991,567.3954820231884 442.57453067367896,566.171245113248 442.332600889029,565.449041959946 442.1351773298811,564.5000125875813 441.99845467030536,563.2614930355339 441.81641022581607,562.393903384509 441.4677004516125,561.713542909536 441.17963332275394,561.1146291348268 441.1489042204339,560.495857049129 441.08823244809173,559.7527498279815 440.951509788516,559.3189888340421 440.8734200038016,559.2735675453441 440.7395226737717,559.1956458388013 440.2840037831338,559.1130868518958 439.2224662186345,559.257317344076 437.6746806615265,559.8352689655148 437.0225537708029,559.9795386688784 436.65849400893785,559.9795386688784 436.23370422062,559.8760132750613 435.61152000003494,559.649263973115 435.1568166684592,559.4841066416702 434.8987213369692,559.3189888340421 434.36147177254315,558.7939087130944 434.3072662188206,558.7409567305003 433.98849911475554,558.2455222095596 433.8517764551798,557.9559501788463 433.8517764551798,557.3372097853571 433.97311999998055,557.0685639620642 434.2765079892706,556.6359080182738 434.36147177254315,556.4971852663439 434.57995423302054,556.1404692591168 434.7012977779377,555.7066622624407 434.7166768925963,555.3763421962503 434.61065420811065,555.1914039864205 434.36147177254315,555.0949712983565 434.2918871040456,555.0680985574727 433.79107555549126,554.840235035459 433.3970439963741,554.4900961038657 433.3808784498833,554.3898977758363 433.3209931093734,554.0144707665895 433.2757004516898,553.5817698173923 433.29107956623193,553.0235816945205 433.12359867745545,552.4047892629751 432.75948066147976,551.8466381062171 432.12273288541473,551.2895162174245 431.48519867740106,551.020863791462 430.6356191004161,550.6498312407057 430.059572224156,550.1543804288958 429.771534222411,549.7414907783968 429.5895189050352,549.4530185541953 429.3160153316567,548.8541145742638 428.9066337851109,548.3388419489493 426.9793510970194,546.4593560842914 426.55461956269573,545.9848250537761 425.7511773298029,545.613784909423 425.1743148943642,545.4276898928802 425.0076495644171,545.2416740094777 424.84095510758925,544.7054654933745 424.71961156267207,544.2298212427413 424.4914297743235,543.8995254068286 424.41616531915497,543.6936105217319 424.46151623118203,543.3214570807177 424.50680888898205,542.848029842542 424.50680888898205,541.7536024213769 424.1734491022071,541.0323978146771 424.0075993316714,540.7108576022438 423.8854402275756,540.4752514400752 423.8247684552334,539.958851411473 423.8854402275756,538.4306529602036 423.85468199814204,537.9351775439573 423.596586666652,537.3780241562054 423.308548664907,536.7173740072176 422.9145171060227,536.139288807346 422.21628199820407,535.8508402743028 421.41286889254116,535.7682734544505 421.20006621885113,535.6856669685803 421.1094517761376,535.4379662598367 421.0941017885925,535.0250122756115 421.1661040071631,534.3655053293915 421.20006621885113,534.0538660794264 421.1693079894176,533.7852344730636 421.0406826667022,533.6200597807765 420.55522110592574,533.7136865337961 420.2210748872021,533.7136865337961 419.84970422054175,533.6618786777835 419.7890033208532,533.5793111234088 420.07707044982817,533.0739162239479 420.1676557654282,532.8581221954664 420.20569577254355,532.5894496446708 420.1757822294021,532.4243137885351 419.9476004409371,532.0631233107997 419.7736824605381,531.9386963981087 419.5608797868481,531.8561282655573 418.63609400892165,531.7327715029242 418.94274423469324,530.6922832911368 419.4524395520566,529.204697393754 420.22853142756503,526.9369915882125 422.67101445700973,519.8033412949299 422.9744024462998,519.0975323771709 423.998686435516,519.4080409812159 431.91319244808983,521.5398485679762 434.36147177254315,522.243787371146 437.32110665971413,523.0946317642811 438.24997023295145,523.3611344601377 440.840593749308,524.1051444003242 441.6084717797348,524.325702937902 441.82369200361427,523.7421182530234 441.92319021525327,523.4580156303709 442.1902275698958,522.6927564106882 442.75357502582483,520.6855896848137 444.501755107427,514.4506388744921 446.1207564516226,508.75649594300194 447.3343666631263,504.30211420194246 448.2040730738081,501.3310543842381 449.10305223125033,498.2630279856385 450.40485933527816,493.8756548142992 451.6322466703132,489.37477650644723 452.5246722276788,486.1007171876263 452.5537993388716,485.9949801482726 458.62193777796347,487.68105827638647 458.6340837831376,487.6366545612109 460.1761895538075,481.9862560374895 466.092226218665,483.533558097668 466.8762406685855,480.72856787778437 473.01961443561595,482.38050637044944 475.3651624391787,483.0104967917432 480.32568422413897,484.34191617398756 482.90666666661855,484.9866501096403 486.79836910928134,485.9586243578815 493.62465712369885,487.7834643140086 494.47176089603454,485.0643970897654 495.99120577424765,480.0589242162532 496.4305591182783,478.6129000209621 492.8236324409954,475.1470381784602 489.1617137778085,471.62712589802686 485.6017982579069,468.29220658005215 482.90666666661855,465.7674057589029 477.8094222221989,460.9922267406364 471.43786666658707,455.09085715014953 468.21364110230934,452.0134115778492 464.1188935680548,448.1054855424445 463.0314620018471,447.3300390486256 458.6340837831376,447.0524701656541 449.6831477761734,446.4874182572239 437.4894031076692,445.7075651859632 434.36147177254315,445.50834875076544 434.08394865796436,445.49058422021335 434.36147177254315,441.29661224927986 434.7616782791447,435.24892038753023 435.4221937779803,425.2656267415732 434.36147177254315,425.21423225832405 424.8717133370228,424.75342630420346 423.5448277902324,424.689539971645 410.0888888889458,423.9368221000768 406.13569911476225,423.71573730761884 399.54650578508154,423.4392521540285 395.48569133516867,423.0922572944546 395.1102720000781,423.0602940861718 392.3440120036248,422.86974410456605 389.2346637652954,422.60535328200785 385.81630600523204,422.4221790925367 383.31460755923763,422.28809978225036 376.02391688525677,421.7593562589609 367.261520668515,421.1259570607217 361.5436939948704,420.759328742919 360.7677768818103,420.7095592535916 353.96499444625806,420.25350370339584 352.9832360391738,420.18652295169886 345.3401073209243,419.6663805083954 344.2802300020121,418.427052233892 344.1718188942177,418.30034701363184 340.32299155928195,413.7452212444623 337.66214257781394,410.56200433167396 337.27111111115664,410.0983551541576 336.6982682169182,409.4191596817109 336.30345022585243,409.0214610300027 336.01136355567724,408.755984527641 335.5987488995306,408.03438986762194 335.54777645517606,407.5023239904549 335.0663635628298,405.681290464825 334.87700821331237,405.0742630728055 334.84223044267856,404.12576490058564 334.79047156637534,402.96793858200544 334.6761767823482,402.2011542545515 334.5161524339346,401.1270017531351 333.9659995592665,399.8557327942108 332.728912896011,398.3937693319749 331.9384322275873,397.4077660072362 331.18275845679455,396.26969884947175 329.22393110767007,394.2954898433527 328.1939673316665,393.68847400398226 326.56203355034813,393.4989324557828 324.4487160036806,393.50999797391705 322.9883117795689,393.5176922765095 322.71323534217663,388.3947405649815 322.4551108838059,377.2736105392687 322.2591728072148,369.1489856034168 322.0238840037491,359.3955350415781 322.0708077795571,359.0804213201045 322.1476742258528,358.59227985562757 322.14039244817104,358.018218541285 322.14039244817104,356.49654496851144 322.17843245516997,355.88170065096347 322.15250932623167,355.2987871504156 322.133926229435,353.507157459273 322.133926229435,352.8558905236423 322.15250932623167,352.1716577371117 322.15250932623167,350.4725514113088 322.0627104428131,349.7067140621366 322.139606016106,349.0334606933757 322.10721666854806,347.3993498387281 322.04974887834396,346.76131613360485 322.11368288716767,345.98558963637333 322.0813517938368,344.1684640390449 322.03684556798544,343.5305012870813 322.0942551040789,342.78003409225494 322.0877888853429,341.06436020950787 322.13876132981386,340.1431063474156 322.68410823121667,339.85331708501326 324.234282211517,339.8952086134814 324.9074680036865,339.9315463351086 325.65344244637527,339.98886947659776 327.1721008925233,340.0240964247496 327.8905502150301,340.05940270778956 328.6915748977335,340.08804443030385 330.39953043928836,340.1872193440213 330.99503422586713,340.23680678603705 331.6301508838078,340.2433919974137 333.4603237831034,340.30067539634183 334.0889742221916,340.39985022420296 334.33865181868896,340.39326501701726 334.92151443928014,340.37787308584666 336.51948600891046,340.47042300755857 336.92968311475124,340.47919005790027 337.1991088925861,340.4847438452998 337.27111111115664,340.4890281954431 338.03893088724,340.53433122707065 339.6579031040892,340.59054347110214 340.3884984321194,340.6621476164437 341.2987497813301,340.6753973563318 342.3602582187159,340.7029282505973 342.3982690987177,340.16627360566054 342.46301866672,339.37949801253853 342.5204573296942,338.79876691056415 342.65479156642687,337.1171818325529 342.70008422399405,336.50006749178283 342.71910422760993,336.09237288543954 342.7308424534276,335.839988282125 342.86514756269753,334.0911803980707 342.9735586703755,333.32199931383366 342.96059710590634,332.7698964763549 343.0827853368828,330.9241097395425 343.1337577813538,330.1934795145644 343.1798659984488,329.69238739891443 343.19119644444436,329.5697226226912 343.31985089415684,327.78449094458483 343.37728955748025,327.0627379324869 343.4282620019512,326.3827576157637 343.55610089260153,324.5743737379089 343.62650112016127,323.78865907050204 343.67179377772845,323.1726221027202 343.7737386667868,321.5493287341087 343.81259423296433,320.71290217951173 343.870003768825,320.09685750328936 343.91450999479275,318.4504141919897 343.94689934223425,317.7065752586932 344.01080422406085,316.9968137850519 344.1054673350882,315.4032747732708 344.1054673350882,314.56016205600463 344.18882912711706,313.9485454680398 344.29153132089414,311.7256697685807 344.3748639859259,311.0589380323654 344.38782555039506,310.9586404746515 344.3999715556856,310.26433268224355 344.4768380019814,308.67071034549735 344.52213065954857,307.996233667247 344.5795984498691,307.3085432758089 344.6499695503153,305.3831745154457 344.6823588977568,304.7736775772064 344.7203697777586,304.1345016483683 344.76374004618265,303.0312745299889 344.79077000543475,302.343570246303 344.79077000543475,301.66245028359117 344.8740735432366,300.98906530899694 344.97604755929206,299.1110605687718 344.95096911664587,298.3891439992585 345.04641865962185,297.7488405156182 345.122469546739,296.01293438486755 345.2122975575039,295.06619757338194 345.2187637760071,294.534998103627 345.2902125796536,293.1469226026675 345.3085626595421,292.7891895484645 345.39836154319346,292.0385674123536 345.3660304498626,291.37729748676065 345.4622955521336,289.7483185295714 345.53916199842934,289.0891850646585 345.5448417849839,288.30113496264676 345.64110688725486,286.55861512728734 345.7754411236383,285.7584152156487 345.7179733333178,285.1698597128852 345.79483977961354,283.3776790916454 345.8522784427041,282.6413920969935 345.90406644623727,281.96795500296867 346.0189437724184,280.06667166401166 346.07641156273894,279.4362007025047 346.1087426560698,278.8894923061016 346.1985997938318,277.18876827298664 346.3061953422148,276.3598887049593 346.2940493369242,275.6907992378692 346.31184600200504,275.3943073435221 346.38952800713014,274.1333795094397 346.4024895715993,273.43234099197434 346.49872554675676,272.68169941124506 346.6071657813154,270.9952573022456 346.61363200016785,270.26559965655906 346.65330312540755,269.965767988062 346.6969646649668,269.635103549459 346.7997251129709,267.8042390786577 346.7997251129709,267.1307613236713 346.8951746560633,266.53331215446815 346.9785364480922,264.81266154232435 347.0108966685366,264.0609222102212 347.06833533151075,263.434775241476 347.1387355593033,261.77033320686314 347.2609237902798,261.720769613632 347.7285304320976,261.7350553580327 348.45265954139177,261.74164267320884 349.2027117796242,261.8618016210967 350.93577489082236,261.94116681203013 351.63403912540525,262.0117621277459 352.4479671183508,262.03267484519165 354.14057267212775,262.103230452165 354.8153313280782,262.1671590525075 355.6228222294012,262.24430192261934 357.2960291272029,262.30827016889816 357.7960251165787,262.32259556179633 358.71108243917115,262.3578336435603 360.50886599125806,262.42180186044425 360.99674510234036,262.4636669062311 361.5436939948704,262.4585875456687 361.7079709013924,262.45703992800554 363.3519924337743,262.5628731478937 363.8900284303818,262.6554523765808 364.77196822769474,262.6698174314806 366.3683086790843,262.7546585406526 366.4969340017997,262.13743681897176 366.50744888884947,262.02057165978476 366.54790644627064,261.5641819269513 366.66927911830135,259.6903203705442 366.6887069013901,258.91094594675815 366.73236844094936,258.3355406363844 366.8035842276877,256.565228303778 366.8739553280175,255.77155787777156 367.0017942186678,253.4600178397959 367.0017942186678,252.85701934754616 367.0908066703705,252.19453282206086 367.14906089240685,250.7636764718336 367.21054822404403,249.92038164875703 367.294696448138,248.74968521407573 367.35295067040715,248.09929148625815 367.4354677760275,246.21758864313597 367.4548955593491,245.65092404122697 367.4937219982967,244.97738556546392 367.5956960142357,243.19705558440182 367.6070264604641,243.03390796174062 367.64098867215216,242.55990218912484 367.67253333330154,241.79043457529042 367.72997199650854,240.08282616944052 367.82623709877953,239.39383448683657 367.8197708800435,238.7136512399884 367.82891679310706,238.3985811812454 367.87074332439806,236.95756408729358 367.8826563130133,236.8958116924041 368.05037021869794,236.02595850778744 368.22755043557845,235.59273729484994 368.2939019948244,235.43065616831882 368.45978089247365,235.3050075036008 368.7219248923939,235.17054828017717 369.2162702223286,235.00735564093338 370.0488104391843,234.78800583072007 370.6771404800238,234.5625440250733 370.6898399005877,234.56020249141147 371.12651355040725,234.40764557261718 371.5658377670916,234.26544688170543 372.1354766791919,234.02399069652893 372.6742991077481,233.78364551410777 373.21883044973947,233.50698632799322 373.5101015609689,233.2699346790323 373.7317880037008,233.0891196394805 374.34424376883544,232.8719509173534 374.52305510407314,232.80805438186508 374.9332522097975,232.61731717124349 374.99395310948603,232.59199665643973 375.33054600527976,232.4475347356638 375.74074311123695,232.31966205243953 376.01016888883896,232.2766409359756 376.0311986631714,232.27552968944656 376.26019601058215,232.27005283080507 376.98432512010913,232.1917893026839 377.8144186596619,232.17853371263482 378.14131222770084,232.12896414997522 378.44874888530467,232.0440330907586 378.6858144425787,231.9161998849595 378.8719075556146,231.7530050840578 379.24814244976733,231.3539473019773 379.31364932260476,231.2833431774634 379.37190354499035,231.22166873142123 379.85253000527155,230.7685158610111 380.3177190970164,230.3109965082258 380.6195342222927,230.0001225756132 380.894610659685,229.75211371376645 381.23443666496314,229.55367469380144 381.68348933698144,229.32654119480867 382.0799384461716,229.1711234987597 382.8874002204975,229.0641646339791 383.7636602312559,229.03550996922422 384.12209846044425,229.07853165303823 384.4877893405501,229.18433956312947 384.59538488893304,229.2097001168877 384.8591308799805,229.27034318324877 385.1868400070816,229.31991332262987 385.37858377967495,229.33316906675464 385.7038171023596,229.34086851065513 385.81630600523204,229.32634275540477 386.19737600011285,229.27697105688276 386.9344666739926,228.9296623072005 387.5598840037128,228.52067794272443 388.0728415574413,228.1513412592467 388.45149400189985,227.89666293252958 389.22012933692895,227.4292558792513 390.0122119964799,227.31789086805657 390.35850422049407,227.28149680327624 390.55269467039034,227.29693550767843 390.62714356638025,227.3035634342814 390.8391306810081,227.38845644408138 391.0252237939276,227.53728703566594 391.20400600193534,227.78533782140585 391.31323266855907,227.98377826955402 391.3771666773828,228.217501223844 391.4289255538024,228.42256921954686 391.56972600892186,229.1104804080096 391.7226433423348,229.8215276451083 391.7800528781954,230.2614265687298 391.87960934406146,230.7057300322922 391.8893086720491,230.7497833019006 391.9985353387892,231.08935040223878 392.12637422943953,231.3495022985735 392.16520066861995,231.42887734575197 392.4791035450762,232.1521019054926 392.84890134772286,232.715424219321 393.3488973369822,233.71423270204104 393.4451915663667,233.94795020512538 393.5479228871409,234.29521217412548 393.90959422593005,234.98644062294625 393.9249733405886,235.0150945938076 394.19358355924487,235.8264926978154 394.200078904978,235.83526348206215 394.34728732449,236.01829896023264 394.67418089252897,236.2089938436984 395.1936046649935,236.4437805148773 395.616763335187,236.71281655470375 395.8093226668425,236.8958116924041 396.07146666687913,237.14492456807056 396.17987777432427,238.0213617423433 396.07796201249585,238.26936225732788 395.9428122169338,238.42485357099213 395.712212878163,238.47442186344415 395.2696555519942,238.4821607072954 394.89828488533385,238.4534674542956 394.34082110598683,238.36087910667993 393.8084648960503,238.17677384009585 393.7680073387455,238.1668919196818 393.5746033209143,238.11724419228267 393.34001356794033,238.05771452980116 393.3084106525639,238.04997567279497 393.09726822411176,238.00703493278706 392.768772665062,237.9518707546522 392.50257999647874,237.90781877632253 391.51549132796936,237.7523271353566 390.86176244623493,237.7446676415857 390.2234126791591,237.70938634325285 389.3390553315403,237.60354241798632 388.4992333370028,237.568261099339 387.84547532803845,237.6101700666477 387.2070964338491,237.70275869726902 386.68848822056316,237.9497276856564 386.342195996549,238.1624470395618 386.1698508799309,238.3178987345891 386.07361490500625,238.50200389535166 386.0485073351301,238.67174246086506 386.06143977248576,238.82060590403853 386.4967153209727,239.16782129986677 387.1949795555556,239.57242245948873 388.61087755381595,240.0872313285945 389.32204509875737,240.4984188588569 389.76463155203965,241.03751359973103 389.96042399294674,241.4145299785887 390.2937837796053,242.3284152803244 390.44425443559885,242.63046338764252 390.75174934766255,243.24670228525065 390.8132075520698,243.37012449587928 390.88037467037793,243.42639865376987 391.07858466147445,243.5939114264329 391.30595089064445,243.78571162524167 392.5050266737817,243.89818036649376 392.9281853440916,243.96981268911622 393.6045751182828,243.9830279573216 394.284198001842,244.08224166056607 396.16612977790646,244.20903671503766 396.84575266146567,244.21677537821233 397.54401689604856,244.2950350762112 398.35634289786685,244.34353067778284 398.5675144533161,244.3578968034126 399.2018155520782,244.41520255588694 399.5400395662291,244.43615645641694 401.932511345949,244.5783095759689 407.88090823125094,245.2056157849147 408.4901600142475,245.31034524779534 408.7886837760452,245.36213452607626 408.9602133333683,245.35114170709858 409.0233026561327,245.33018788450863 409.0313999929931,245.20668728795135 408.9998553316109,244.7216531742597 408.81941287824884,243.91472922067624 408.6940206650179,242.70542967825895 408.6940206650179,241.66252706863452 408.7724891024409,240.618588195357 409.069439999992,239.3574818969937 409.1632875520736,239.0057822180679 409.28792246058583,238.73789959272835 409.5387360142777,238.59236975363456 410.0888888889458,238.5757411684026 410.8842337850947,238.55161185847828 411.96353888709564,238.36532398313284 413.41907888359856,238.07644653192256 414.10679910413455,237.97282520658337 414.66994267038535,237.86924352380447 416.31317777070217,237.53849620348774 416.87629220983945,237.45578946062597 417.8609924551565,237.10523797100177 418.51795444625895,236.9189093124005 419.04952422413044,236.93986385222524 419.66037799813785,237.04241407482186 420.3796720071696,236.98066170152742 420.81818066490814,236.8958116924041 421.55285378859844,236.75357475480996 422.4760084480513,236.50553302332992 422.92989622056484,236.27733440912561 423.60223732632585,235.9675395686063 424.24303377070464,235.43065616831882 424.6346477797488,235.0382320774952 424.7754191076383,234.56309964327374 424.82720711105503,234.28636196086882 424.83772199822124,234.232387559372 424.8530719858827,233.6116810903186 424.7123297851067,232.6404548806022 424.3838342259405,231.29771006654482 424.00841489073355,230.18093988846522 423.9461120000342,229.56026287184795 424.0561542259529,229.1269905701629 424.2276546561625,228.73344514839118 424.6184822329087,228.11387574044056 424.93075399124064,227.5350644995342 425.0561753315851,227.03896217246074 425.19694665970746,226.43927234207513 425.3062024534447,224.97294318070635 425.43159466667566,224.43500384991057 425.5100922312122,223.98072717757896 425.4938684303779,223.36007418605732 425.2285204480868,222.03708348039072 425.07234087819234,221.43849273660453 424.8530719858827,220.34259400854353 424.80617733695544,219.68109142157482 424.86845110042486,218.8343956754543 424.91537487646565,218.27544708375353 425.15002288355026,217.30416024615988 425.43159466667566,216.29095697175944 425.6508635591017,215.5258523724042 425.8070140017662,214.92716638336424 425.91624066850636,214.47184018365806 425.93240621523,213.93490980786737 426.07320667023305,213.54134004982188 426.32320466497913,213.19071474624798 426.63632110937033,212.90073604945792 427.9972271217266,212.19845115719363 428.5910706631839,211.97134130325867 429.1541851022048,211.661515812797 429.623481116374,211.14553603500826 429.8742946702987,210.67035739170387 430.13967177970335,209.63616989075672 430.3589406721294,208.622934991261 430.6405124552548,207.46529868390644 430.90667599637527,206.5557291432633 430.9171908835415,205.91732965869596 430.92205511115026,205.64607685117517 430.8281784320716,205.12897306925151 430.578209564439,204.7365005746251 429.9997160107596,204.00220063497545 429.6630939876195,203.86879596166546 429.47898151830304,203.82136405364145 429.34190933348145,203.78607788332738 428.9899664497934,203.68244209408294 428.73993932805024,203.53804255713476 428.65337355376687,203.3936032432248 428.6072653370211,203.20177150855307 428.6064497779589,203.197325995774 428.66147089074366,202.87649471999612 429.38073577254545,201.30642781488132 430.8354893369833,197.91492838651175 431.1194495431846,197.46945421217242 431.45365401613526,196.94356104597682 431.9455526685342,196.52015450637555 432.21174533700105,196.3338347573881 432.41484868270345,196.16843319160398 432.8606099910103,195.72406726214103 434.36147177254315,194.3847724646912 436.3990879574558,192.56632702390198 440.9328684373759,188.51963029580656 447.7526611058274,182.2665634394507 451.57559443917125,178.81192263995763 453.54085888003465,177.03555908740964 458.6340837831376,172.51645039924188 458.9220926577691,172.2608807493816 460.6430388907902,170.74250255146762 476.0504651092924,157.14801641221857 476.8029348979471,156.48078567610355 482.90666666661855,151.069706515118 486.415667996509,147.95883485022932 495.0413415537914,140.37880345381564 498.13236883911304,137.659185600176 500.0940797724761,135.93322505394462 502.0739368960494,134.20725237746956 507.1792495502159,129.7575521573308 507.30627288192045,129.64681782212574 516.3632024463732,121.66507930698572 520.309110442875,118.09547142474912 521.962860430358,116.59927165531553 527.293150890735,111.859908778104 527.3125495467102,111.84223923285026 531.4518615610432,108.26474560704082 533.0075696925633,106.92024858476361 535.6039895041613,104.57137159100967 538.6535397830885,101.81276051438181 542.8144058595644,98.08045398094691 543.081647104118,97.84076991787879 547.9151455574902,93.43631520646159 552.4006915413775,89.35724880057387 552.8732206649147,88.92702507547801 555.7244444445241,86.34197377419332 557.4575366828358,84.7706454374711 561.8055444480851,80.48838812089525 566.483678890625,75.68983138073236 568.0160853333073,74.03511709393933 569.9133088426897,71.47913803393021 570.5339784533717,70.64293183910195 570.8268806827255,70.2473452698905 574.0640095574781,65.87508037127554 575.2857462330721,64.25894218188478 575.6344268800458,63.797776505118236 579.5593342294451,66.70685482164845 579.9970273280051,67.0287774655153 585.738330453285,71.25074632262113 586.0726223074598,71.47913803393021 589.224437873927,73.63191108999308 592.8412968959892,76.10236647195416 600.9750135468785,81.87170907738619 602.609394005267,83.00511784630362 602.7979046686087,83.13584809616441 604.2696393387159,84.15619292209158 607.7478824392892,86.56753197108628 614.2471312498674,91.23828735604184 615.9663298560772,92.47755941638025 620.5606073458912,95.78915053739911 623.3130902188132,97.75475997338071 626.0817968925694,99.71924182766816 628.5422222221969,101.48504632298136 629.9516540017212,102.49661876924802 632.8441217708169,104.57137159100967 633.1993268907536,104.82613811676856 637.1719444480259,107.7215474601253 639.4252468907507,109.3340641791001 641.3613259663107,110.73266866442282 646.4958531130105,114.44191199203487 652.8148051059106,119.1419164321851 652.861728881835,119.17689711978892 656.9654475662392,122.09524567524204 657.7745113316923,122.66985846339958 664.2350502116606,127.3020492339856 671.8210606648354,132.7392608259688 677.0874171165051,136.55644145805854 677.8123326578643,137.0812728519668 678.6089008924318,137.659185600176 684.0358351075556,141.59630903904326 684.5399088925915,141.96136896812823 688.1257766684284,144.47691290685907 690.3426702222787,146.0329712369712 696.6317086720373,150.64487107197056 697.3938777884468,151.17868436989374 701.1366824392462,153.8076760986005 701.3600000001024,153.9742177928565 702.9668553387746,155.17291765939444 706.3464157866547,157.5714908252121 711.1693702257471,160.98561991477618 712.009192220401,161.5799911195063 713.1845585351111,162.42994103120873 718.9544062293135,166.60398211085703 723.8946846720064,170.18673940672306 724.5702588871354,170.6763271058444 724.664106439217,170.74250255146762 725.6325828836998,171.42485888139345 731.8762995485449,175.82370728300884 738.2413888854207,180.4824841991649 738.4307151075918,180.62141927954508 744.939022449893,185.20952753006713 749.9051948941778,188.77224564371863 751.5079724375391,189.92218997643795 758.4548175644595,194.9467127287062 763.593305998249,198.4606658955454 766.988245560904,201.0131406178698 768.8879740018165,202.37149123300333 770.9156869689468,203.82136405364145 773.1469984427094,205.41677789518144 774.1777777777752,206.17742882826133 775.9618133333279,207.49395586486207 776.6204064427875,207.98017483513104 777.3178259913111,208.39363881375175 777.8340457814047,208.8269079903257 780.2151871148963,210.60423239244847 784.4628811094444,213.62175280071096 786.1619820088381,214.84226906759432 786.8747806721367,215.3174396417453 787.4176517688902,215.73196290340275 787.7396811094368,215.97895397804677 788.8319769031368,216.70107301237294 789.4695111111505,217.09360577294137 789.9848862151848,217.52797092002584 795.1266368853394,221.2488183065434 795.9632257707417,221.83863822906278 797.3499966579257,222.81764647713862 798.450360661489,223.5936824726523 800.9326313243946,225.34450719837332 802.3331793351099,226.3334235616494 806.7321886720601,229.47429904091405 808.7953784605488,230.8788077426725 809.3714253369253,231.33410353644285 811.0252044516383,232.55334119475447 813.1547166720266,233.96223756449763 813.5883902295027,234.24889737763442 817.1657820160035,236.8958116924041 817.4711797761265,237.12178728269646 822.5384815502912,240.8820636253804 822.7229726720834,241.01421793719055 823.0692357689841,241.26241386076435 827.1810226631351,244.2101479076082 833.1715082242154,248.4256195812486 833.8217418525601,248.8906849817722 838.5729853442172,252.28933826932916 842.122415104066,254.79049832129385 842.743783765356,255.16308870963985 843.305325340596,255.65913425461622 845.1403333406197,256.95984028547537 846.976127772592,258.24188833427615 846.9955555555644,258.2536742404336 847.6889264355414,258.6750696155941 849.418785564485,260.01766482787207 850.2715399963781,260.50048619374866 850.6623384462437,260.7209638521308 855.2442077867454,264.25600005767774 860.2038848854136,267.85054755077 863.1960547557101,269.965767988062 866.1747096462641,272.07152615190716 871.2681384391617,275.67187170119723 873.0368240071693,276.92199863528367 877.2610415501986,279.9509260620689 877.3306262186961,280.0005256581353 877.2141177742742,280.01481033989694 875.5401244445238,280.21765273209894 872.6427924480522,280.54945363965817 871.2681384391617,280.6737697455683 869.6701959964121,280.8183620349155 866.7275713422569,281.2835248517804 864.4969006649917,281.6031030609738 860.8568273353158,282.1189349031192 859.5954777884763,282.2853896396118 846.9955555555644,283.9437805529451 846.0206128925784,284.0720628434792 843.1086882135132,284.4446088374243 841.2745248996653,284.70779920724453 840.1587817814434,284.8678638894926 834.3487095467281,285.58097181201447 831.3753266631393,286.00533591065323 828.3720011094119,286.3866479540011 827.5386453333776,286.4979861975298 827.3271533795632,286.52631673339056 824.125093546696,286.95540094707394 822.7229726720834,287.16668913461035 822.4794408960734,287.2033520806581 820.2107302116929,287.50316271872725 818.1184715662384,287.79301370924804 815.4330975573976,288.2162629945087 814.2574690987822,288.29895265441155 813.6425957832253,288.28899339260533 812.1716475449502,288.4852423573029 810.9354055679869,288.6615726723685 807.8713791146874,289.05502212728607 803.3809397760779,289.69542761787307 798.450360661489,290.4350661081844 797.8474294613115,290.52553190436447 795.5069204480387,290.87803076871205 794.7196728888666,290.99706448975485 793.9664166686125,291.1193914171308 793.1541197939077,291.25052676774794 791.8466037760954,291.4621286854381 789.8060748800635,291.7928034342476 788.637786453357,292.0474155458505 788.341651114868,292.1124473330565 787.2914439964807,292.2877037481521 785.6797244304325,292.5577102738316 782.7597606686177,292.9908310700557 779.9150322348578,293.43502112675924 776.0022708906326,294.0555368257337 774.1777777777752,294.3541091068182 773.570972672198,294.45342150726356 772.7853562312666,294.5823728267569 769.8281388941687,295.0783388085547 766.5213962240377,295.73963845323306 765.6945066667395,295.8322051842697 764.9056571165565,296.0074192697066 763.5973546667956,296.23667338024825 758.4596526649548,297.10849568690173 756.9102651166031,297.37191055639414 749.9051948941778,298.50166710623307 747.9997866667109,298.809042199282 747.265113543137,298.928072079143 746.9140153458575,298.9842938389629 746.178526663105,299.1694644986419 745.7561835520901,299.37669517839095 745.2715666774893,299.8109148988151 744.881583786686,300.2451338522951 743.7707048959564,301.48501836229116 742.4248576001264,303.0312745299889 738.3336344462587,307.7317192790215 735.3546009031124,311.1547919893055 726.5322902186308,321.32009823276894 725.6325828836998,322.3745250311331 717.6469193386147,331.732929980848 716.040850432124,333.6019181921729 713.9008233245695,336.09237288543954 709.2324173370143,341.52496601088205 707.7072926720139,343.29026317439275 701.3600000001024,350.63892019580817 699.4707864463562,352.82617925468367 698.1560177777428,354.3115002880222 697.4230048996396,355.13900633191224 693.6663939983118,359.3811756387586 689.9122589014005,363.62112977181096 689.7204860019265,363.8415149478824 685.9072519964539,368.20800426299684 685.0915472498164,369.1489856034168 684.3781077901367,369.9719992100727 682.5398375537479,372.0908231440699 677.3980868837098,378.04047260800144 677.0874171165051,378.3946705320268 675.5323497813661,380.16795298142824 674.9481764410157,380.8400105192559 673.2725519929081,382.769230639562 671.8315755520016,384.3810935484944 668.2214448925806,388.55442044796655 664.4842909013387,392.9271736800438 664.0198299875483,393.4703366162139 662.0343513316475,395.78167087654583 659.3328117761994,398.92260275920853 658.84737934242,399.41835827642353 656.5780278613092,402.2011542545515 656.40553710924,402.41270035062917 653.2808388835983,405.9864296318847 652.8148051059106,406.52008515933994 650.1415771022439,409.5810864614323 648.623763342388,411.2941407317994 647.1115711147431,412.9928267963696 646.8032897707308,413.33876513678115 644.6349802381592,415.8999548474094 644.2101904498413,416.3131088692462 643.7708662329242,416.9949820151087 642.1017080035526,418.7917011650861 640.9948777814861,420.17637074633967 639.7246153388405,421.5996186234988 638.8459377778927,422.5855249501765 637.3086962345988,424.30725269397954 633.3352339910343,428.8500878526247 629.9370613191277,432.6911838980741 628.5422222221969,434.3388054490788 627.7717227520188,435.24892038753023 626.5454131199513,436.6974201935809 625.7047755662352,437.6887779336539 621.5339188907528,442.501207817113 618.9245957689127,445.4950253528659 618.3938706774497,445.9708605452324 617.9383226596983,446.6306441689958 617.3242357760901,447.32670822390355 616.6559433387592,448.0834387235227 615.7700131271267,449.08910473505966 614.6631829050602,450.3535369479214 611.7043344498379,453.7349729691632 607.5334777743556,458.5460183172836 604.5147731059697,462.0572361302329 604.2696393387159,462.3373256966006 603.4678282241803,463.25336385070113 602.9370740052545,463.9142113151611 602.831896007061,464.39770295954077 602.8157013333403,464.4715311062755 602.9823666632874,465.91763843706576 603.1951693369774,467.59061128884787 603.260239303112,468.29220658005215 603.6506591006182,472.5038376794546 603.9993980019353,475.78691949986387 604.107838236494,476.55894585401984 604.1361206615111,476.7571855909191 604.1814424461918,477.6250376307871 604.2696393387159,478.4955033537117 604.3489233352011,479.2781070964411 604.6822831218597,482.72523701167665 604.834384896094,483.5302674098639 604.9686900053639,484.97519224049756 605.0471584426705,485.82208195183193 605.1386175715597,487.10174774721963 605.3351964444155,489.3528126779129 605.5026773334248,490.17764427210204 605.5479699912248,491.04544896580046 605.7453935504891,492.8823826594744 605.8813297778834,493.6256918752915 605.9274671218591,494.55513248604257 606.1604840107029,496.47462000808446 606.2154759963742,496.92942420061445 606.4120839963434,499.406094199745 606.5787493262906,500.5007496554754 606.6096531911753,501.3310543842381 606.6102939877892,501.3475462755305 607.0197046614485,504.52788378630066 607.3085582223721,507.21153288852656 607.5205453369999,509.7288519916474 607.7584264533361,512.0479341970058 607.8304286720231,512.7460331237526 608.1034079574747,515.4037461929256 608.2034013298107,516.3777012733044 608.5820537742693,519.5148736095871 608.7034264461836,520.6919718618738 608.7641273458721,521.6213498636498 609.1136526791379,523.9337000374799 609.2964835556922,526.2658484561834 609.4785571270622,527.2568452901323 609.6144642276922,529.0108999011572 609.7447206686484,530.4280083359336 609.7819451164687,531.5092863112222 610.0554195626173,533.4295954249683 610.1525002241833,534.0252469373518 610.2083077689167,534.3655053293915 610.2374348799931,534.5427693005768 610.3733711076202,536.6490772596444 610.4648011093959,537.2887986351852 610.6937693298096,539.1000584819121 611.0562562277773,541.9748982503079 611.8709997796686,547.4689800364431 612.0294803910656,548.5370238554897 612.3451308943331,550.6641398454085 612.7650273280451,553.4188280059607 612.9835097886389,554.8545037609292 614.3184926720569,563.5642172931111 614.7740115625784,566.4134850990376 614.8938113705954,567.3954820231884 614.9099477902055,567.5275798694929 614.8799759929534,568.4776676612673 614.0150755556533,568.2299999598763 613.4236204372719,568.1474043708295 612.7561144321226,568.1683307031635 611.9681095679989,568.5404465685715 611.1638517760439,568.8288964177482 610.3750022259774,569.1184160211706 609.8134897778509,569.427751785086 609.3434073316166,569.5929024429643 608.3272206791444,569.6754975469667 607.5383128747344,569.6743878240814 606.233272661455,569.7360567033757 605.0503915520385,569.9220540717943 604.2696393387159,570.109359185095 603.1547117796727,570.37676215393 602.9880464498419,570.5209860445466 602.6846293334384,571.1396932901698 602.6109959963942,571.27400855819 602.274432227714,571.8828453921014 602.0923877832247,572.0281384798 601.1829519929597,572.1106931338436 600.3787233280018,572.2758419912425 599.8325899947667,572.6060997411842 599.1958422188181,573.060763231595 598.9984186596703,573.1840992778307 598.6189797832631,573.2259114515618 598.2702408817131,573.2666535439203 597.5121495608473,573.2259114515618 596.541226439178,573.617835833109 595.9951222330565,573.8864635905484 595.6463833316229,574.3400546457851 595.1908935679821,574.855272829358 594.64473110775,575.0831178191584 594.4173648781143,575.0831178191584 593.76523798774,574.9179708455922 593.4917926685885,575.0005641622702 593.2037546668435,575.1855271177483 593.0063602346927,575.2273389517213 592.2781824569684,575.2064132196247 592.0845745494589,575.2760071245139 591.7021064533619,575.4133718017256 591.5653837939026,575.578518442926 591.3072593351826,575.7634809640585 590.7619415610097,575.9913647448993 590.3525308871176,576.1972129734932 589.8064266809961,576.1565109980875 589.4423086650204,575.661111537891 588.926088874694,574.9179708455922 588.4714146703482,574.4225688920706 587.803908664966,574.0097595905536 587.3791480036452,573.6795037243282 586.9090655574109,573.1433571715606 586.6509702259209,573.060763231595 585.6800762312487,573.0805794386542 585.1800511148758,572.9980251100496 584.577294677496,572.7657393540139 583.9510326614836,572.523545253498 582.5853206757456,572.256025719631 581.659690211527,572.0710605620989 580.6289108764613,571.7408020941075 580.3861946596298,571.7815444323351 579.9970273280051,571.9682536413893 579.8700331236469,572.0292085594847 579.384571562754,572.194357471657 578.6110720001161,572.4222445574705 577.8828942222754,572.524615331029 576.7453057706589,572.5455412910669 576.214551551966,572.4839127482846 575.5624246614752,572.4013185868971 574.9248904533451,572.6072094509145 574.5154797795694,573.0002048933529 573.3641433315352,573.3404093965073 573.3318122384371,573.350277856458 572.1043957760558,573.6398714053212 570.6779828906292,573.7840933836414 570.1625786595978,573.7014996586367 569.6164453261299,573.5363517578808 569.3583499948727,573.4328716993332 568.872888433747,573.4736137574073 568.098631566274,572.999134817801 567.6285199930426,572.8757986790733 566.8396704427432,572.3594666403951 566.3542088818504,572.0083221881068 565.9448273350717,571.9675798874232 565.7627828905825,571.7606184072793 565.1405986703467,571.0791344791651 564.5790862223366,570.6255770463031 564.2303473210195,570.4196845242986 563.8816666739294,570.1918352168868 563.7602648749016,570.047571500414 563.6081922276644,569.3870090570999 563.1987815538887,568.7892633175361 562.5320911076851,568.645038412069 562.1987604481401,568.7066679162672 561.7885633422993,568.6659647019114 561.5005253404379,568.4798871179228 561.2424300089478,568.4589608121314 560.8483984497143,568.5415166634484 560.1355997867649,568.8311158712022 559.3920428941492,568.9136319646495 558.8766386632342,568.9345582316746 558.4971997867106,569.0997092206962 558.0271173404763,569.3056028470746 557.1168659912655,569.4090450080112 556.3886882133083,569.4707139540114 555.8579631219618,570.0696073923609 555.7244444445241,570.1387271553394 555.5391668907832,570.2347576195025 555.0237626596354,570.2964263584581 554.2349131094525,570.6057606416289 553.6434579913039,570.9360206328565 552.8546084408881,571.3279882940114 551.8982780019287,571.5139844593359 551.3674946560059,571.9059115672135 550.852119552088,572.6490613553906 550.5333524481393,572.8967246093671 549.8359328994993,573.1862790593877 549.0162959930021,573.4130555206211 548.213698446285,573.3513875628123 547.6974786559585,573.2688729573856 547.2427753244992,573.103724766348 546.6966711183777,572.8152402951964 546.0437286684755,572.4849828259321 545.3916017777519,572.2780614136718 544.8608184321783,571.9070212800871 544.4288051201729,571.7033888904843 544.4207077831961,571.7000597491278 543.9198671076447,571.7000597491278 543.1310175574617,571.7198760656756 542.448161564651,571.6791337171453 541.9174073458416,571.4314296049997 541.0524777813116,570.9569467279362 540.9545815610327,570.9382400672766 540.172984661418,570.791836618213 539.6268513280666,570.853425952082 539.5200713386294,571.122096359788 539.2166542222258,571.4721719946247 538.9294317795429,571.7198760656756 538.5200211058836,571.9059115672135 538.1713113314472,571.9885058949003 537.6405571129872,572.4222445574705 537.4131908838172,572.8967246093671 537.3071973263286,573.103724766348 537.0790446649771,573.1653531538905 536.5482904462842,573.3304616712267 536.3816251165699,573.4130555206211 536.2901951147942,573.6607576382812 536.2602524445392,574.0526813272736 536.2149597867392,574.5282679366064 535.8807844409021,574.9818181767478 535.6688264533877,575.1678908446338 535.4867820088984,575.538886429742 535.0919348907191,576.3645388421719 534.5304224427091,576.7982697923435 533.8783246792154,577.0669337097788 532.2552746667061,577.7692473094794 531.5578551182989,577.9542081842665 531.4518615610432,578.0050951885642 530.784355555661,578.3252392004943 529.3579426702345,579.233474160952 528.3263477759901,579.646274700237 527.5908882204676,579.7387346339528 526.9759857777972,579.7387346339528 526.5892359965947,579.7904535273556 526.1571644303622,580.2858446753235 525.6191284338711,580.8737339643412 524.9823806578061,581.2656461665756 524.6482344393153,581.5760763313738 524.3068064427935,582.0296135831159 524.034147555707,582.5041543740081 523.8593848888995,582.7110671882983 523.6239504498662,582.7210145342397 523.1991606613155,582.5668504413916 522.6910382080823,582.1738702757284 522.3196966685355,582.0087676914409 522.092330439249,582.0395609566476 521.6748515556101,582.1122045129887 521.46204888192,582.0505783659173 521.1586608925136,581.8436253652326 520.6060613404261,581.3999559080694 519.7484135539271,580.6062235073769 519.1949984427774,580.2869543502457 518.9830404551467,580.245183007326 518.5809115592856,580.3695458650473 517.7993146595545,580.7196479766862 517.6180857741274,580.8693349059904 517.2993186702952,581.1324460231117 516.9886489030905,581.5034326167661 516.7305244446034,582.0296135831159 516.6237444551662,582.1947557844105 516.2523737885058,582.4534664545208 515.5088168961229,582.9070417199982 514.7280646828003,583.7942951392033 514.6139737884514,583.9077181390021 514.5079511039658,583.9077181390021 513.9917604409857,583.6291936418274 513.5823788943235,582.9895927245962 513.0208373193163,582.866301223461 512.7029149013106,582.8035259707249 512.2926595413592,582.866301223461 511.56448176375125,582.9895927245962 511.1098075591726,582.8453761410201 509.6226937742904,583.1349188860622 509.0021406720625,583.2383552344982 508.4406282239361,583.5268274874543 507.9705749048153,584.1256867204793 507.1792495502159,585.1058692294755 507.12099532817956,585.1781155762146 506.40819666488096,586.4374496128876 505.95267777424306,587.282880526036 505.92759933159687,587.6891286042519 505.8920060019009,588.2538166783634 505.7706624569837,588.9341434133821 505.75528334232513,589.2654884440708 505.6039680001559,589.9050730513991 505.3612517830916,590.5865048507112 505.406544441008,591.5144696565694 505.3612517830916,591.8238169006072 505.2244999965187,592.2575206065667 504.8612266667187,593.2680662983912 504.785175779718,593.59833550849 505.01251288189087,594.4239273366402 505.17999377066735,595.0018360055983 505.2859873281559,595.5588589448016 505.30541511112824,595.9331129777129 505.34665910038166,596.7355934994412 505.4825953282416,597.6646843464114 505.4073891273001,598.2425854059402 505.1646437831223,599.1914450405748 505.13388555380516,599.4391608423903 505.2859873281559,600.0996030012029 505.4432737281313,600.4210259983083 505.61934711469803,600.7809669476119 505.71077711647376,601.4623686354607 505.6953980019316,601.9577161628986 505.5894044445595,602.5356467703241 505.2859873281559,603.1134967653779 504.9372775538359,603.6088805973995 504.451815992943,603.8774756220519 503.8450108872494,604.1449211587314 503.23010844457895,604.4487443250837 502.96554689423647,604.5786031535827 502.79885243740864,604.8142272065161 502.6160215609707,605.0739444096689 502.5553497883957,605.3425774626667 502.6621297778329,605.692604424723 502.737394232885,606.1251741340966 502.6766933334293,606.5170857556514 502.3740917760879,607.094926403428 501.82795844285283,607.9414355381159 501.53910488192923,608.4158471179544 501.1451024498092,609.510017749446 501.0844015502371,609.9646130699548 501.0819840001641,610.2904217172181 500.92988222581334,610.5744241110515 500.7842466701986,610.7890404647333 500.6831173405517,611.3482071203762 500.7057491057785,611.6354972685804 500.76645000546705,611.7598838921986 501.1758315520128,612.1308243229287 501.57067867019214,612.3994100480922 501.5245704535628,612.6470729311695 501.09978066489566,613.4109825713676 500.91773622040637,613.658644436684 500.0989440000849,613.8853836091002 499.82546955381986,614.3597837325651 499.4468171093613,614.607444643334 498.7024737847969,615.1654931066441 498.3990566683933,615.9701695802505 498.15631132456474,616.4038307402516 498.0657260090811,616.6921848731581 497.9742960073054,617.3735425139894 497.929789781454,618.4467512705596 498.0357542115962,619.1269549294957 498.49130222934764,619.808266205655 498.65796755917836,620.5303098654258 498.2639360000612,620.8814643469523 498.02121978311334,620.9430807723547 497.50502912013326,620.5093879847554 497.09561844635755,620.3035768139525 496.79220132983755,620.4268891880056 496.5041924553225,620.7988864255603 496.4281124409754,621.1488914083457 496.0187308943132,622.5941178536159 495.80592822039034,623.1103048929945 495.5025402311003,623.9556098488974 495.4879475485068,624.2858378842357 495.79136466491036,624.9253711209167 495.7760146773653,625.6892030327581 495.76063556282315,626.3077716116677 496.2614762382582,626.9274084770004 496.4127333264332,627.4436260533985 496.44672466488555,627.7595056637074 496.5114451057743,628.3517194051528 496.46615244820714,628.8161461657728 496.39010156097356,629.4556676324573 496.4588706702925,629.7341006539646 496.44349155563395,629.8585177553468 496.1400744392304,630.0852023827028 495.8366864499403,630.1886982487631 495.1238877866417,630.1886982487631 494.63842622574884,630.3746499386034 494.44178909878246,631.1583557191188 494.4264682382345,631.467613519635 494.57854088547174,631.6536434893496 494.7007291164482,631.7780199976987 494.8819580018753,631.9629006677424 495.39736223290674,632.8093242854229 495.59306729235686,633.4421787654865 495.5947566648247,633.4476466972847 495.2306677760789,633.5302203755127 494.91190067201387,633.6953280264279 494.6545917724725,634.1080372355063 494.57854088547174,634.4382120289374 494.699913557386,634.8916518853512 494.8819580018753,635.4496939874371 494.98795155924745,636.7704625506303 495.1392669014167,637.5959095875733 495.1546460161917,638.4422742150491 495.2606104463339,639.0608107483131 495.45803400548175,639.5153514980921 495.6700211201096,639.7002659788122 496.08021822571754,639.8245987999835 496.47422065772116,639.8862501055119 496.428928000154,640.1757257588906 496.21612532634754,640.5884637249401 495.79136466491036,641.041892252746 495.3059031040175,641.3511376371025 495.04783689964097,641.6406115678838 494.8051206828095,642.0324270264246 494.775148885441,642.3207511396031 494.7905280000996,642.5893435471808 495.06318688730244,643.1264086202136 495.21531778841745,643.6833226660383 495.04783689964097,644.4470963759231 494.92646422749385,644.9423574103275 494.9571933298139,645.82942686358 495.06318688730244,646.839752643602 495.1092951039318,647.6233663875028 495.06318688730244,648.1802702604327 494.80590711475816,648.9033400710905 494.759769770666,649.2126152001438 494.91271623107605,649.9554523774423 495.1853459911654,650.4914316420909 495.33747689262964,651.17269573675 495.33747689262964,651.6470240064082 495.1853459911654,652.5142594899517 495.1853459911654,653.3187346464256 495.3827695501968,653.8348968838691 496.30837088730186,654.8869881147402 496.5203580019297,655.5066322867642 496.87556312186643,656.4519432171364 497.23394309694413,657.4050158098689 496.77845333341975,658.8907177224755 496.9151759929955,659.4674053614144 497.11259955202695,659.5708492570557 497.8553408854641,659.4883239312912 498.23480888910126,659.4255682161893 498.9023148942506,659.8184646866866 499.3877764553763,660.0660798674216 499.5244991147192,660.3543828608235 498.91766488191206,660.2509392944048 498.65796755917836,660.2333487334545 497.99209267203696,660.1892930886243 497.7647555699805,660.9112579355133 497.6887046827469,661.8609853435191 497.7493764553219,662.5212996664923 497.8561564446427,662.7689121286967 498.0228509014705,662.9757971023209 498.28094623296056,663.1200063643628 498.76640779385343,663.4501422499306 498.81170045176987,663.801156278525 498.78172865428496,664.2754998359014 498.56895510759205,664.7915994846262 498.00747178669553,666.0913322502165 497.76149333338253,666.4588629612117 497.704025543062,666.5447138093878 497.37072401086334,667.2468117765384 497.3253730988363,667.9676070312853 497.68949111469556,669.2683530705981 497.6741120001534,669.681042265729 497.29467312362976,670.422787651536 497.1433577814605,671.0412438408239 496.7331315485062,672.7337402424309 496.36907178664114,673.6415873170481 496.2177564445883,674.5495102764689 496.0664411021862,674.900508480845 495.8083457706962,675.2515458012349 495.29297066666186,675.6014733755146 494.74686646054033,676.0559466660488 494.5801720037125,676.4477469726698 494.6254646615125,676.9220265501644 495.2169197796611,678.2227252838202 495.6263013264397,679.1713163023232 495.8383175681811,679.9757439763634 496.00576932984404,680.3476512433263 496.3844217743026,680.7184883413138 496.3844217743026,681.3160415711463 496.41518000373617,681.6670697446098 496.3698582185898,681.9763037193334 495.4596651236061,684.2871478731977 495.14083976554684,685.092628421844 494.2306466702139,685.814480634348 493.4264180054888,686.1445860911044 492.8802555449074,686.6188866049051 492.3195877830731,687.2791345334845 491.7880180054344,687.8161021288834 491.1212984320009,688.4345146309352 490.8033468872309,688.8262556268601 490.47729800548404,689.687853865209 490.2944380019326,690.13897361618 490.25479600369,690.5813379575266 490.11402467556763,690.9565963482019 490.28473867382854,691.3659612830961 490.5080562346848,691.5078563437564 490.6633911182871,691.606889698829 490.813075342332,691.7015655491268 491.0857051021885,691.8743191719404 491.5792640000582,692.2088135742815 491.3761897814693,692.4157134253182 491.2960610988084,693.1121917921118 491.62700333516113,693.6304889410385 492.1480582258664,694.1949736653478 493.0599115663208,695.2997358489083 493.4620113351848,695.9984639780596 493.6003651128849,696.2393878609291 494.0113777779043,696.9579591738293 494.42157488374505,697.5653760889545 494.8229173475411,698.1397548636887 495.2331144534983,698.6711926804273 495.53399751125835,699.4711200997699"/></g></g></svg>