<svg width="1200" height="800" version="1.1" xmlns:xlink="http://www.w3.org/1999/xlink" xmlns="http://www.w3.org/2000/svg"><g class="geojson-features"><g class="geojson-feature" stroke="#555555" stroke-opacity="0.0" stroke-width="0.0" fill="#111" fill-opacity="1.0" data-properties="{&amp;quot;N03_002&amp;quot;:&amp;quot;後志総合振興局&amp;quot;,&amp;quot;fill-opacity&amp;quot;:1,&amp;quot;description&amp;quot;:&amp;quot;虻田郡京極町&amp;quot;,&amp;quot;N03_001&amp;quot;:&amp;quot;北海道&amp;quot;,&amp;quot;stroke-opacity&amp;quot;:0,&amp;quot;N03_007&amp;quot;:&amp;quot;01399&amp;quot;,&amp;quot;fill&amp;quot;:&amp;quot;#111&amp;quot;,&amp;quot;N03_004&amp;quot;:&amp;quot;京極町&amp;quot;,&amp;quot;title&amp;quot;:&amp;quot;虻田郡京極町&amp;quot;,&amp;quot;stroke-width&amp;quot;:0,&amp;quot;N03_003&amp;quot;:&amp;quot;虻田郡&amp;quot;}"><title>
      虻田郡京極町
    </title><desc>
      虻田郡京極町
    </desc><polygon points="241.6344268800458,671.7977765051182 245.138593109441,666.6315258761751 245.99702732800506,665.4279461886035 250.14845622051507,659.6073110367288 251.95675465965178,657.0709172397619 254.68372218310833,653.5255935650785 255.7117344426224,652.1890142199118 260.0696162987733,646.3824433230911 261.90369223128073,643.9386173235835 263.8770540088881,641.3093959334074 266.88643800187856,637.4188751069596 269.0770297743147,635.0711630725418 269.60615287476685,634.4408367387368 270.26963933871593,633.5999092193088 270.5843577743508,633.2009532257798 272.4501240036916,630.7603325705859 275.354737777845,626.9956025973079 276.4567911538761,625.5538138575503 278.1218133333605,623.3753649165737 281.9674075592775,618.4419856459717 283.8477373440983,616.0210800474742 285.9690065920586,613.281245831633 286.8429655608488,612.1524039458018 289.6424013370415,608.5738967562793 290.13511554850265,607.930591761251 291.6141319964081,605.9972900116118 293.51793823298067,603.6181722164038 294.54222222219687,602.2594321200158 295.43624977080617,601.0735326480935 297.3707851093495,598.6116169215529 301.1921164516825,593.6666956563713 304.99885511107277,588.8056201244472 308.51027399103623,584.232402709953 310.3080866703531,581.8431416101521 311.1616857885383,580.7561093018157 311.6171755519463,580.1756230979809 314.3349097814644,576.712502310751 318.81480510591064,570.9146343900939 319.05996800004505,570.5973031483591 325.82473955559544,561.8144111462752 330.46646510926075,555.8235638103215 332.1930620018393,553.5797297768877 334.29589378857054,550.8457941872766 337.2843062613392,547.0655334981857 338.1560224427376,545.9628504663124 340.0597995519638,543.4595337745268 341.9789557760814,540.9970399332815 343.0874171165051,539.5547458292567 343.9045782187022,538.4914870832581 346.57457311288454,535.0675543930847 348.0527740018442,533.2054038663046 351.0795760072069,529.2427138555795 351.443635769072,528.6940946812974 351.6790993353352,528.466715000046 352.27052532637026,528.4236789408023 354.0715711147059,528.7106255971594 358.7092480000574,529.4479986809893 361.14380845532287,529.6444615818327 363.12282089260407,529.654435725708 363.9569922275841,529.5926039746846 365.4133477830328,529.4678675090545 366.27096644276753,529.7581906406558 367.36000000010245,530.3236561428057 367.60597845353186,530.4514122229302 369.7144608995877,531.3708963999525 371.30753911472857,532.0662989730481 373.0058244552929,532.1280506263138 373.0260386702139,531.6854570307769 373.165208007209,528.6091352934018 373.2105006648926,526.974356758059 373.3423882239731,523.4066876768484 373.5745895538712,520.6007265253575 373.64254310401157,518.0861034523696 373.6603688960895,517.9072756457608 373.8690937743522,515.7988462366629 373.9399600357283,514.3244132002583 373.94514466135297,514.2158829428372 373.9615723520983,513.9509353859467 374.12800466490444,511.26623390772147 374.47671443922445,506.43444434180856 374.6733224391937,503.1844120338792 374.9460104533937,499.0876622888027 375.24939844280016,495.8883640624117 375.54471822222695,492.5157021517516 375.71219911111984,490.5494968764833 375.7801526612602,489.83521739958087 375.24939844280016,488.38566721073585 374.7032942364458,487.03101841011085 374.7412759893341,486.3266251034802 374.92495155206416,485.6377302291803 375.1053940054262,484.9598824925488 375.10457844636403,484.7225260438281 374.60455332975835,484.37034620100167 373.6190666524926,483.5224654919584 373.46215890487656,483.4285875526257 372.05272712546866,482.58956677862443 371.94996667734813,482.52883603039663 371.3123742152238,482.08277458365774 371.10286290501244,481.8972830524435 370.8576708836481,481.6797963390709 370.47901843918953,481.1929147482151 370.1985243592644,480.8319063290837 369.9239722097991,480.4786080234335 369.8859613297973,480.4244745222968 369.3778680036776,479.69363134144805 368.69579844281543,478.31135085225105 368.4684613405261,477.8509731696686 367.9522415501997,476.7744896832155 367.7249044481432,476.0811561399605 367.3607864320511,474.6944434270845 367.36000000010245,474.6890378993121 366.9206757830689,471.75429559813347 366.8503046827391,471.2872678450076 366.81468222569674,471.04989816457964 366.6399195592385,470.5916929472587 366.51126510929316,470.2527286479017 366.1997797830263,469.49864269362297 365.02415132464375,467.6040372129064 361.93752223288175,463.5993862565956 361.3217751039192,462.8331565683475 359.96494688722305,461.14710098842625 358.8354557726998,459.6775067609269 358.65099377790466,459.4522890376393 357.773131776019,458.3835156316636 356.84027778857853,456.7471560118138 354.46638910577167,452.40119229379343 353.32882978138514,450.2679121691617 352.3797519928776,447.98113547300454 352.29644845530856,447.70840468467213 351.87975600361824,446.34470644255634 351.30286444094963,443.6967903263285 351.0447691093432,441.1814184419345 350.9848837690661,439.8143844726728 350.7567602347117,437.2050771303475 350.55123933870345,433.9034023147542 350.56577376730274,433.1381531758234 350.21624843380414,429.21248692803783 350.1968497778289,428.9905010474031 350.1264495502692,428.19983373058494 350.0431168854702,427.3716359034297 350.38457400898915,426.60525325941853 350.87973489786964,426.2099359514541 352.23574755562004,425.12444000539836 353.7212302223779,423.67558066832135 353.72446333174594,423.67228102020454 356.1638588872738,420.6950658299029 356.73993489088025,419.83479978796095 357.31601089425385,419.34338253887836 359.4317459911108,417.5367269188864 361.97227087651845,415.5699204193079 362.9140668872278,414.59589373337803 362.9253973333398,414.58038878743537 363.89955356460996,413.2507763970643 365.52985622757114,410.82891843729885 366.2248290987918,409.82398169650696 367.3049788873177,408.26128634711495 367.36000000010245,408.21465103299124 368.2831546595553,407.4330211727647 368.9959824499674,406.4081122003263 369.4587831182871,405.6108120371937 369.78483200015035,404.68974304321455 369.9814400001196,403.8813448083238 369.99760554672685,402.98233509331476 370.0024697743356,402.7194938008324 370.0186644481728,401.79841394518735 370.0340144356014,400.9833665115293 370.0720835699467,398.8396993103088 369.96606088546105,397.3807846419513 369.78401644097175,396.0554922573501 369.78401644097175,395.22384605859406 369.78401644097175,395.0924411683809 369.974158222205,394.20111258450197 370.37547155923676,393.37279991130345 371.4531746702269,391.1992461209302 373.6134159929352,386.87092733447207 374.8270553315524,384.47421616275096 376.3975017814664,381.5296861641691 376.4585813333979,381.44793623453006 377.48895288910717,380.0695153923007 378.0957871219143,379.46871281333733 380.3563713422045,377.2420325727435 382.54818645340856,374.99545076233335 384.8006733369548,372.7477349987021 386.96982755570207,370.64577128516976 389.26684979209676,368.4709423686145 389.8671595520573,367.8987413328723 391.6325828836998,366.21652617456857 392.41222826670855,365.473612068512 392.46028800017666,365.42788319214014 395.56963623827323,361.5751748457551 398.5203291022917,357.9620326964068 401.31894931930583,354.20305494003696 402.7898975574644,352.13187046843814 404.6556637866888,349.646457815601 405.14919355744496,349.0565961013199 405.607537777978,348.31100536399754 405.7026086684782,348.1563116046018 405.86927399842534,347.72110066900495 405.97608311474323,346.976579584938 406.06666843034327,346.16795125004137 406.34258955391124,338.8561740783625 406.3619882098865,338.3303934534197 406.38464910222683,337.50185220787534 406.5286826667143,332.3384985376615 406.58938356640283,329.9931937485235 406.6387248925166,328.1140146193793 406.6993966649752,326.04157564853085 406.72610622586217,324.91801289486466 406.8094388907775,322.68642246653326 406.86204245337285,321.7860808778205 406.8628288854379,321.0823262814665 406.9235297848936,320.55428032187046 407.08611731929705,320.20182481990196 407.6128811236704,319.55553576815873 408.00769911473617,318.9435282938066 408.1784131129971,318.2132376767113 407.8070424462203,317.3426689191838 407.5181888854131,316.8565347251715 407.10071000200696,315.9760578540154 407.0030467984034,315.1695544917602 406.9947164445184,315.1010664124624 407.3021822293522,314.4381787710008 407.8855108837597,313.831686911406 408.42031377076637,313.3565627890639 408.9931566648884,312.81748312414857 409.17520110937767,312.4451300763758 409.3232542150654,311.9479690688313 409.4211795628071,311.09949187748134 409.43976265960373,310.3272171810968 409.4785890986677,309.42567676183535 409.6267004585825,307.72762808954576 409.7100331237307,307.04924852913246 409.94462287658826,306.4736426359159 410.1687559966231,306.1532246180577 410.39690865774173,305.9565825685859 411.0474335574545,305.4438965478912 411.79905865958426,304.5379630108364 412.63322999479715,303.2320557340863 413.2400642276043,302.05318136973074 413.406729557435,301.2035562300589 413.406729557435,300.08540830545826 413.5281022293493,299.54625967273023 413.98280556104146,298.97616488521453 414.45370356645435,298.3551963894861 414.5823288889369,298.1066017197445 414.71905154851265,297.59946781158214 414.9310386631405,297.1950725148199 415.25708754500374,297.0393123307149 415.8113473422127,296.956420506991 415.90519489417784,296.9860531439772 416.60019689251203,297.2050561187207 417.12369846040383,297.49450090533355 417.50313733692747,297.67018819524674 417.79924354853574,297.73315238929354 418.1172242204193,297.67018819524674 418.39069866668433,297.50448449718533 418.90607377060223,297.0072931793402 419.42957533861045,296.39737726858584 420.01371955208015,295.9001837047981 420.48380199843086,295.5886218159576 420.93850532977376,295.3919315136154 421.53721309872344,295.3300804354367 421.8560384568991,295.21628236596007 422.1359791220166,294.915737472591 422.2120300090173,294.5124514682102 422.1359791220166,294.13899666041834 422.0453355521895,293.67274415685097 422.08337555930484,293.1335416396032 422.18933998944703,292.76119845948415 422.53079711296596,292.26399751828285 423.04698777594604,291.6320337780635 423.50978844449855,291.2585745805991 424.4653033245122,290.7414824102307 425.10936200537253,290.39896791114006 425.73882800375577,290.28516755171586 426.09563511481974,290.31607384129893 427.18062000360806,290.8353943847469 427.7947068872163,291.1149423957686 428.4549311148003,291.3944503114326 428.8343699912075,291.51823399134446 429.1984880071832,291.5811599896406 429.5738782151602,291.68947063043015 430.1410413227277,291.42205503216246 430.69445643376093,291.18451113818446 431.16538356628735,290.86303894472076 431.62008689774666,290.6972908671014 431.9315722240135,290.7083089214284 432.31832200544886,290.86303894472076 432.95504065428395,291.11160118627595 433.6225466596661,291.0806949972175 434.36610355216544,290.8950588988955 434.64688890310936,290.6464168849052 434.73022156814113,290.365834152326 434.73022156814113,290.06639705150155 434.623412451474,289.7547879690537 434.57890622585546,289.4233299793559 434.65414155391045,289.1327221374959 434.8062724551419,288.98797496041516 435.101563107688,288.8841181121534 435.9972217741888,288.8841181121534 436.710020437371,288.7603728782851 437.14209200360347,288.45982006721897 437.4827044409467,288.1592668874073 438.57500023476314,286.7615863388637 439.29505154863,285.5705006934004 439.71253043215256,284.42133462964557 440.0458902186947,282.84686097392114 440.1259023930179,282.0236612437875 440.1777777777752,281.49020088423276 440.24331377784256,280.81596515415004 440.53216733864974,279.7806218621554 440.94967534940224,278.9209749280708 441.29028778674547,278.5795179216657 441.53300400357693,278.4447488790611 441.8291102151852,278.50660421908833 442.0718264321331,278.6823051228421 442.74664334231056,279.26239168067696 443.03549690311775,279.38729527872056 443.26283400540706,279.3452894897782 443.57353289960884,279.15853071026504 443.95297177601606,278.77510792628163 444.8316493369639,277.4193004211993 445.8349035519641,276.04916506563313 446.10674688010477,275.6779097317485 446.37133755756076,275.01491544226883 446.5080602169037,274.44587739382405 446.61408290138934,273.56520835345145 446.83413822588045,273.02596158965025 447.1601871077437,272.4999999338179 447.65293044631835,272.02376140560955 447.95634756272193,271.5873014269164 448.1237993243849,270.73753087152727 448.16183933150023,269.50547369307606 448.0785066668177,268.17948969767895 448.131110229413,267.67229385022074 448.3738264463609,267.3098570216098 448.76057622767985,267.05017195729306 449.6408557796385,266.91539657325484 450.15626001066994,266.97721504367655 450.80838690139353,266.9264156969148 451.2177393209422,266.7297421670519 451.55919644457754,266.3772490238189 451.8091944392072,265.93079410953214 452.119893333409,265.4037431508186 452.393367779674,265.18606428976636 452.6134231041651,265.12416580633726 452.89420845510904,265.1340711559169 453.64501799829304,265.330785746919 454.5552402205067,265.41364848898957 455.1466953387717,265.205954544479 455.5188524373807,265.0401891115471 455.8222986808978,264.96830567432335 456.28428379038814,265.0401891115471 456.60305089422036,265.2998365255189 456.9970824533375,265.72413489449536 457.52862310409546,265.97280219820095 458.1499917652691,266.0247155932011 459.3409993387759,266.11867682117736 460.17598623305093,266.2943468273734 460.68326399987563,266.3054057591944 461.418723555631,266.149586158921 461.9956151182996,265.9109039134928 462.71648199111223,265.41364848898957 463.5733142187819,265.1650601788424 464.45036066148896,265.08315208542626 464.46087554865517,265.0821575722657 465.39375866320916,264.9064866970293 466.0758282240713,264.6158497777069 466.7740924587706,264.16056034353096 467.14543399831746,263.952865336847 467.62361378141213,263.91197076201206 468.01033443561755,264.05669297190616 468.65517954865936,264.5230416111881 469.39873644080944,264.88436870649457 470.04358155385125,265.05009446444456 470.1916637867689,265.05343602917856 471.29444534052163,265.0810437173932 472.1666275556199,265.0810437173932 473.1294533405453,264.8633645697846 474.1537373297615,264.63574007875286 474.76057156256866,264.57272759923944 476.09555444621947,264.5318331278395 477.3237573405495,264.5837866088841 477.96860245335847,264.67659475211985 478.8254055537982,264.7606113522779 480.7445617779158,264.5948456177721 481.7381166650448,264.52192775398726 482.94447422598023,264.80150578537723 483.79402467561886,265.00808621762553 484.4234906738857,265.1020478355931 484.9922848996939,265.0909888492897 486.00847155204974,265.17496552690864 486.4559222330572,265.4435236234567 486.69863844977226,265.7960181098897 486.90334378683474,266.46894263947615 487.2520535608055,267.2877790282946 487.68488243210595,268.2192697197315 487.94219133164734,268.4778397058253 488.57975466689095,268.6955156423501 488.7229726720834,268.7184288877179 489.9446802205639,268.9131913856836 490.30148733162787,269.14085168304155 490.49081355391536,269.5242497626459 490.7561906630872,270.5596363910008 490.9309533298947,271.54422025493113 491.2650995485019,272.61162069125567 491.59845933516044,273.1088615086628 492.9180631041527,274.2580010671518 494.26845422934275,274.98400722286897 495.62688443728257,275.7806981501053 497.1956997689558,276.4646139544784 497.50071887637023,276.59834984102054 498.9336271076463,276.9508282810566 499.39645690331236,277.13647494319594 499.97250377968885,277.50995566358324 500.2540464354679,277.9099282610114 500.3220291129546,278.0071865413338 500.6173197653843,279.02264819463016 500.83012243907433,279.7894526094897 501.4968128853943,280.9496588878683 502.1723871004069,281.5706317129079 502.8665444125654,282.0236612437875 503.0138693405315,282.119764336152 503.52196266676765,282.56507598015014 503.86339066317305,283.42474990786286 504.21212956449017,284.2953993847477 504.6894937886391,285.01910849724663 505.3723497814499,285.57821747043636 506.66929265798535,286.2510876765009 507.5495722098276,286.45884333807044 508.2251755519537,286.3958364702994 508.99867511482444,286.1792900155997 509.6435202276334,285.77487587265205 510.25032533344347,285.1528397151851 511.0537384391064,284.5218918476603 511.5699582294328,284.38708629563916 512.1840451130411,284.44897991319885 512.9955555555644,284.61206713406136 513.0635091058211,284.625750544772 513.7916868836619,284.55283864133526 514.2998093370115,284.2942856174777 515.2092160000466,283.52745552145643 515.9001693298342,282.9573234669515 516.4382344534388,282.5739066271926 517.6599420018028,282.13857921701856 518.2630188374314,282.0236612437875 518.5240268800408,281.9738992386847 519.7611426702933,281.8280738319736 521.8769068943802,281.51756805344485 523.1892580125714,281.2899988106219 523.9724277761998,281.296601941518 524.3260017777793,281.29990350664593 525.7524437903194,281.5695179331233 526.7767277797684,281.51645427336916 527.3228319858899,281.39274509699317 528.0356597761856,281.0402332684025 528.4070595698431,280.67674220597837 529.5826297743479,279.46573788806563 530.7282864355948,278.71102506830357 533.154749553767,277.20827525359346 533.6701246578014,276.93758200650336 535.0431475484511,276.07792509847786 535.3538464427693,275.8193631322356 535.8393080036622,275.0126878230949 536.0447997725569,274.7431059613009 536.438831331674,274.4945271158358 537.0383837867994,274.43263098370517 537.2681384391617,274.3327458690037 537.5618271004641,274.20497560314834 537.978519552038,273.97628575458657 538.2212648962159,273.7586145090754 538.425941105932,273.3231918793754 538.5327502222499,272.82706531655276 538.7981273316545,272.2470033034333 539.2908706703456,271.88453346164897 540.2156564481556,271.3972350357799 541.9220391253475,270.84807838272536 543.6745008926373,270.53751891077263 544.380046904902,270.41157653037226 545.1000982187688,270.0281400594977 545.8735977814067,269.5198739837506 547.6414386630058,267.8844808525173 548.8615442204755,267.0777794204769 549.5897219983162,266.59051121526863 549.9918508944102,266.48660509334877 551.3956028872635,266.7131537979585 551.7192342187045,266.72087116888724 552.2524351147003,266.7341577759362 553.0485955699114,266.70320873183664 553.6408371200087,266.5164800967905 554.5510302151088,265.9462686809129 555.4151442205766,265.2733029354131 557.3788066701964,263.12848826596746 558.0997026702389,262.4765191244078 558.4945206614211,262.2897474874626 559.009924892569,262.2378333011293 559.4646282241447,262.37265103892423 559.9282444517594,262.75609948986676 560.2769542258466,263.0356795362313 560.7551048819441,263.1704968350823 561.3619391147513,263.1074839787325 561.540750449989,263.0280416109017 562.734962005401,262.4975234658923 563.5310933333822,262.32073687011143 564.0246231040219,262.08205089491094 564.994730666629,260.39350010460475 565.5934384355787,259.6796636081417 566.4502706630155,257.8353509370936 566.6784524517134,257.5347999735968 566.9891222185688,257.4828449980123 567.9147526827874,257.4629541162867 568.4681677938206,257.2971834447817 568.8095666631125,257.0375275500701 569.0369037655182,256.571204445092 569.7497606826946,254.9467445483897 569.9625051021576,254.14887197315693 569.947155114729,253.52675552474102 569.6291744428454,252.53219339903444 569.5984453405254,252.12772371905157 569.6898753423011,251.64146013231948 569.6291744428454,251.29893075645668 569.5911635627272,250.95747503766324 569.6672144499607,250.4590753435623 569.8711042274954,249.43350975646172 569.8937651200686,248.93622089049313 569.8629486365244,248.8732839396107 569.6510197761236,248.44004494551336 569.25701734412,248.05661387258442 569.158305564546,247.8389195993077 569.1655873423442,247.5803278319654 569.3015235699713,247.33164186088834 569.7109051165171,246.8332745746011 570.4884242203552,246.02324157266412 570.6057190969586,245.9016627916717 570.6971490987344,245.69387273921166 570.6210982116172,245.44526442087954 570.3670515484409,245.1601343586808 570.3177102222107,244.95787362504052 570.4318011165597,244.84409194311593 571.5701760001248,244.20755009009736 571.6947817814071,244.0262944950373 571.7295595520409,243.81965658743866 571.6267991040368,243.58095258829417 571.3873159965733,243.38863656378817 571.2740697884001,243.25380837969715 571.3112942364533,243.10354389221175 571.448832455324,243.0206736046821 571.8274848996662,242.80293507262832 572.093677568133,242.47137377911713 572.2223028908484,242.11995969357667 572.1608155592112,241.49888687842758 572.0248793315841,240.96068350115092 572.0855511040427,240.74298292282037 572.2214873315534,240.54628837440396 572.5629153281916,240.39045239111874 572.8744297814555,240.15174505097093 573.0338133333717,239.94506409100723 573.1244277760852,239.4577419226407 573.117145998287,239.15712862968212 572.9650150970556,238.83666235866258 572.5216713387053,238.55705469747772 572.3242186525604,238.50513548223535 572.2490124517353,238.37030461040558 572.2675955484156,238.17798449576367 572.3736182329012,237.9558255323209 572.5022435556166,237.78013520658715 572.7231435663998,237.4375864509493 573.7919337814674,235.75996590184513 573.9205591039499,235.29356251168065 573.9658808890963,234.7244322038605 574.0192708837567,233.88448018644704 574.1932471182663,233.2943397621857 574.5872786773834,232.4853362122085 574.8073340018746,231.90517868247116 575.1333828837378,231.4078542367206 575.3461855574278,230.70384002494393 575.5662700090325,230.02970324311173 575.9076980054379,229.6881780938129 576.6738866630476,229.41854635754135 577.4627653405769,229.10797415365232 577.7960960001219,228.82835538871586 578.0913866525516,228.21719550614944 578.1067657670937,227.73975687019993 578.0234331021784,227.0667259596521 578.054191331612,226.65338157350197 578.4037166648777,225.72165326419054 578.9797926684842,224.75685835297918 579.525139569887,224.22860477271024 579.9879111112095,223.7002704788465 580.4506826525321,222.92330387147376 580.6092797724996,222.31216904474422 580.5866188801592,222.02920037141303 580.5259471075842,221.25445657223463 580.6019979947014,220.73721664078766 580.8981333334232,219.55571717757266 581.1408786773682,218.87160270963795 581.4669275592314,218.4262150741415 581.6489428766072,217.92886326421285 581.7169255538611,217.33868440269725 581.6700017778203,216.9452177755884 581.5955820090603,216.32408113527345 581.6489428766072,215.75379267754033 581.6480108089745,215.71838087571086 581.6336220160592,215.19341026101029 581.5656393388053,214.61317199032055 581.6408746666275,214.30254122725455 581.9216308909236,213.80518104543444 582.4451033315854,212.79056314297486 582.6045160108479,212.14844710065518 582.5664760037325,211.80693681089906 582.2784380018711,211.4333559194347 581.8229191111168,211.2675540993223 581.4515484445728,211.47537335351808 581.1635104428278,211.6930999417673 581.0494486755924,211.61017923912732 581.0340695610503,211.33058029052336 581.0567013263935,210.88513915456133 580.9588051057654,210.50053519621724 580.6473197796149,209.7235267224023 580.4579935574438,208.6149086653022 580.5032862152439,208.16950238094432 580.6400380019331,207.46434705582215 580.6400380019331,207.0708645681152 580.473372671986,206.53811636415776 580.173188664834,205.9987618412124 579.9919597796397,205.8429038800532 579.3924073246308,205.51129255990963 579.0323962310795,205.43947123450926 578.8883626667084,205.35654841491487 578.7783204410225,205.16424217110034 578.5388373334426,204.49114923318848 577.9279835592024,203.2001871370594 577.2604775538202,202.46071792766452 577.0784622364445,202.17112105869455 577.0403931022156,201.92688534600893 577.0258586738491,201.59081215056358 577.3778015574208,200.44574850064237 577.4352402203949,199.72509218699997 577.3600048926892,199.34707604593132 577.1852422257653,199.0674233082682 576.9570604374167,198.82421907427488 575.7320906525711,198.13009885593783 575.1859864463331,197.85490137094166 574.6819417884108,197.7001523891813 574.2644629050046,197.6116959329811 573.9076266667107,197.46140344673768 573.3436966683948,197.06237386149587 572.9035568926483,196.6169067787705 572.5273219982628,196.28090588125633 572.2846057814313,196.21787581790704 572.0191995449131,196.19797996111447 571.7158115556231,196.25989586190553 571.5677584499354,196.207967681461 571.423754012445,196.06758247624384 570.8703389014117,195.21758972434327 570.3468373334035,194.59198107768316 569.9560680108843,194.39966638252372 569.6566995627945,194.34328110190108 569.2278902329272,194.40519747155486 569.0344862152124,194.38967858848628 568.9439008996123,194.27030253311386 568.7844882203499,193.7220871473546 568.5911133297486,192.8101694987854 568.3783106560586,192.5459885065211 568.1089140054537,192.43659942655358 567.8742659982527,192.40118425374385 567.5894611057593,192.25088857027004 567.5101771093905,192.01766545930877 567.5125946596963,191.99223811813863 567.5255562239327,191.85073630907573 567.6995324586751,190.5552508168621 567.707600668422,189.49855520226993 567.6388024321059,189.1569735398516 567.3888335645897,188.36887470178772 567.0247155484976,187.63381754461443 566.1217751039658,186.85673653142294 564.4534615610028,185.9238222099957 562.8919280072441,185.34458902548067 561.8595175538212,185.1467357716756 561.540750449989,185.05787684692768 560.0390731092775,184.63932819501497 559.7736960001057,184.4326401866274 559.6296915627318,184.16403306106804 559.6070306701586,183.8015124585363 559.6450706773903,183.37591815774795 559.8237072498305,182.55902970809257 559.955740444595,181.95547441579401 560.1151239965111,180.5869937336538 560.1378140161978,179.72811290371465 560.0018777885707,179.01292706892127 559.735655992874,178.32869936025236 559.3942571235821,177.6554530854337 558.8335311075207,177.08507459179964 557.893395342282,175.88243237807183 557.2857746774098,175.03451851307182 556.7096695466898,174.22647659102222 556.3229488926008,173.17961959552485 556.1174279964762,172.0918880154495 556.0421926684212,171.0030373216141 556.1028935681097,169.85229902219726 556.2015762205701,169.4067824485246 556.5349068801152,168.7125788583071 557.4370608925819,167.0344875624287 558.8707555555739,164.18568168347701 560.8271362275118,163.28252880246146 561.540750449989,162.94349738862365 562.5723162170034,162.45339538966073 564.2099297848763,162.05988038302166 566.69703554851,161.7702357415692 568.9203953209799,161.65633581770817 571.4382884410443,161.38662918290356 572.7651739876019,161.05499746568967 575.3591179947834,160.4746309305192 576.2159793493338,160.3087946117157 576.3907420160249,160.2258565115626 576.5047746559139,160.06005982187344 576.5047746559139,159.6145254348521 575.9351939982735,157.26092037046328 575.6932642133906,155.77955319086323 575.4651115520392,152.73277674528072 575.5411624392727,150.18452737294137 575.8146368855378,149.5410929993377 575.9149797831196,149.3951887365547 576.5266491165385,148.50519473158056 578.526720455382,145.62194536125753 578.7411251200829,145.31238128710538 580.9102793387137,142.72206527594244 582.8965735537931,140.95981643541018 584.8464588801144,139.3423110243166 585.8133333333535,138.45765363128157 586.6588059875648,137.68391907628393 588.6993348837132,135.71486504963832 590.352327566361,134.23444217670476 592.7569162240252,132.4091255692183 593.9405837655067,131.61085374216782 594.7051995592192,131.2172493688995 595.9115279930411,130.70980964944465 597.7473515521269,130.29514834634028 600.49339733331,129.71474871056853 601.6916575575015,129.3830342971487 603.2912311183754,128.79264202999184 604.4748986595077,128.22214972041547 605.3163808996323,127.75554150820244 605.6157202204922,127.54876568319742 606.0671904426999,127.23698960006004 606.7273855431704,126.56368245976046 607.3868233386893,125.59953175066039 607.8342157653533,124.90520396624925 609.0244077795651,123.41257565887645 610.0859162168344,122.310572291899 610.1927253332688,122.19967909745174 611.0196148907999,121.52631830179598 612.7648240071721,120.76892948272871 614.6443382329307,120.23046074953163 615.2738042311976,119.81586130836513 616.578844444477,118.81076522148214 617.7091511184117,117.83555815229192 619.3158316944027,116.22681623906828 619.6128991005244,115.92939525807742 620.8257520071929,114.57053661416285 621.4778788978001,113.72022115031723 622.0013222115813,112.73615703452379 622.1534531130455,112.10365034337156 622.2594466703013,111.48228755354648 622.5248237795895,108.8495786076528 622.8201435592491,106.91122213413473 623.244933347567,105.07686478336109 623.6017113315174,104.1745686493814 624.0030246685492,103.56198303331621 624.4504753494402,103.10746891226154 624.8833042205079,102.80676782946102 625.8453144462546,102.50598676333902 626.5435495539568,102.28816308174282 627.9626806613524,102.04932110308437 630.5566246685339,101.37586508248933 631.0792815503664,101.10609204531647 631.4514677759726,100.84734530863352 631.739505777834,100.54656183545012 631.94421111478,100.25576962699415 632.0655546595808,99.81012641423149 632.0429228942376,98.79503612173721 631.6861157831736,97.52011655946262 630.9425588907907,95.8924119665171 630.0703766756924,93.94292600080371 629.8583895609481,93.31152520270552 629.8049704392906,93.02179922995856 629.8130677760346,92.82383156061405 629.987044010777,92.6270181791624 631.9895037724636,91.71476379688829 633.5365028977394,90.76154271111591 634.3585282276617,90.14824678160949 634.4539777706377,90.07702855800744 634.8180957867298,89.47547458700137 635.1740873387316,88.79211130412295 636.3505022294121,86.50084391207201 636.5090993493795,85.90927337371977 636.6385111040436,84.89412544440711 636.86587733333,83.90879097167635 637.1620126721682,83.33819407143164 637.4118359041167,83.0539899005089 638.5568517688662,81.75128038559342 640.2939926757244,79.87580919993343 641.0674631112488,78.63279901543865 641.3101793280803,78.3220753413043 641.575585564482,78.13516321673524 641.6386748870136,78.13297361700097 642.2204306775238,78.11414305836661 643.5699771166546,78.15506866807118 644.199443114805,77.92731039685896 644.9575344355544,77.50153204286471 645.9138940018602,76.92092762253014 647.0442006756784,75.71994316804921 647.5441966649378,74.42392277077306 647.8022919964278,73.48058727371972 647.9082855539164,72.8070924730855 648.3023171130335,70.67050484416541 648.4082815431757,70.35977106372593 648.6283951217774,70.14191877894336 648.9544440036407,70.05895013111876 650.3193695575465,70.0379690915579 651.040265557589,70.16293962177588 651.8064542151988,70.45265283598565 653.9675110969692,71.97653790109325 654.4311273243511,72.16345472808462 655.3413786739111,72.5262202686863 657.1771731058834,73.17754072038224 658.2613715627231,73.3644566302537 658.6311111111427,73.35430465155514 660.521111096954,73.30254945973866 661.5146951110801,73.2815288862912 662.6830417921301,73.15763486427022 663.4492013226263,72.98182627285132 664.4880779946689,72.63900711905444 665.7769526614575,71.89253476529848 666.8392766579054,71.10513335384894 667.5601726578316,70.70040374307428 668.2673497885698,70.43163201789139 669.1977862259373,70.07885623921175 670.4033282276941,69.4153051605681 671.5036631041439,68.46092230686918 672.3758744462393,67.62155440152856 672.7852559929015,67.33072308235569 673.4754228907404,67.20682604867034 673.9155626668362,67.20682604867034 674.1890371131012,67.34063643490663 674.7424522241345,67.81838788685855 675.9407124479767,69.45623222459108 677.6171524551464,71.42581918736687 679.346953329863,73.03266586270183 679.862357560778,73.21958188316785 680.9311477760784,73.37440955004422 682.0306962205796,73.44630943093216 682.64559866325,73.43189760722453 682.90369399474,73.41035949316574 683.0817188979127,73.3954301153426 683.4457786596613,73.25939358357573 683.8398102187784,72.86569539277116 684.2233268907294,72.32158744637854 684.6925937779015,71.33293778437655 685.2015026633162,70.44162486912683 686.3091484444449,69.34232916263863 687.1586697672028,68.66886278917082 687.9313537707785,68.21213400759734 689.843257344095,67.47560131450882 690.9727193316212,67.15487049351213 693.013219100656,66.8850199317094 694.2948119894136,66.85404562274925 695.2778811164899,67.03543239424471 695.4785377850058,67.0708258904051 697.9211664497852,67.40258492575958 698.8305731129367,67.38156384584727 699.8467597654089,67.29859426262556 701.857375118183,66.76008754078066 703.1235888925148,66.55214543675538 705.8162446790375,66.49019673088333 706.8332468906883,66.46917557239067 707.1763060053345,66.5964570659562 707.4473629015265,66.69702412991319 708.5169395485427,67.60941155394539 709.6690915555228,68.38683127466356 710.1780004409375,68.74960241204826 710.5040784497978,68.89555473951623 710.8066800071392,68.87453378760256 711.504915114725,68.64672706939746 713.2411822080612,67.85931521776365 714.2202317938209,67.19468318042345 714.6530606648885,66.83194955158979 714.9791095467517,66.30327557207784 715.2590793388663,65.81560774939135 715.577875569812,65.34888058551587 715.9111771022435,65.02822660421953 716.1919624534203,64.86232562718214 716.8141175467754,64.71740603540093 717.679047111189,64.75833388487808 718.3538057672558,64.76944173383527 719.0739153352333,64.70749257662101 719.4986759964377,64.55150484776823 720.014051100472,64.19876040844247 721.2730122240027,62.664833756920416 721.9486155662453,61.95925930526573 722.7374651164282,61.14085091045126 723.9793868800625,60.1455071826349 724.2391133299097,59.93759927386418 725.3920808961848,59.09816232864978 726.4390257777413,58.621508651645854 726.8791946808342,58.5386157273897 727.4625233352417,58.5386157273897 728.0919893335085,58.84936451370595 729.1308368782047,59.729691188491415 730.5799397832016,61.29568621702492 731.1940266666934,61.72037797846133 731.4488888890482,61.88269786548335 732.4610560000874,62.52767648547888 733.4085026703542,63.58607475581812 734.06141599291,64.00076942984015 734.7742437832057,64.15671769645996 736.9506506526377,64.24964163539698 739.7048228979111,64.27066298446152 741.8133053440833,64.19764563965145 744.134561337065,63.761890095076524 744.9072453405242,63.379244728246704 745.7875248925993,62.745575360022485 746.637075342238,61.95814452634659 747.5999011271633,60.45406417112099 747.8498699946795,59.884527387446724 748.2139880107716,59.40676045115106 748.7301786737517,59.02406846260419 749.64765354665,58.67131605814211 750.4745722310618,58.692298071982805 752.2488793317461,58.99974209984066 753.2205888854805,59.168991425132845 754.9504188871942,59.50076116953278 755.3363822364481,59.5107146530645 755.7214717726456,59.47607652877923 755.7910564410267,59.46978592633968 756.4359015538357,59.1490844298969 756.9594031218439,58.65140902256826 757.5200708836783,57.862810406892095 758.0888651093701,57.05438171396963 758.9012202383019,56.059021369728725 759.5306571093388,55.66533532948233 760.2135131021496,55.38551845063921 762.6634526719572,54.720812729909085 764.2031408926705,54.66885452484712 764.9539795627352,54.47197065106593 766.1061024428345,53.953303316258825 767.0770255645039,53.35162075678818 768.0252586666029,52.69913273095153 768.7833791146986,52.20144420984434 771.2793977742549,50.92624215554679 773.5367780126398,49.87666800210718 773.9340135537786,49.69196382636437 774.8741784463637,49.12128716468578 776.565997568192,47.99203385517467 777.9762157796649,46.83076327753952 778.7650653298479,46.271109001361765 779.9940837831236,45.652525495155714 780.6834059947869,45.30556699226145 780.8468382152496,45.24361290887464 782.3380006684456,44.67404073360376 784.2725068801083,43.637698670790996 786.3648237796733,42.413377584016416 789.1254331165692,40.868205474107526 791.2420128996018,40.017713609558996 792.7663220055401,39.5730756050325 793.62557178305,39.40934732108144 794.2542222222546,39.41934143891558 798.9469202203909,38.667233166634105 799.551336903125,40.769777915033046 800.1168688925682,42.60135222016834 801.1638137741247,44.88303664774867 801.5368155592587,46.03444206697168 801.7552688925061,46.70797071570996 802.0740359965712,47.349485520797316 802.4381248853169,47.87812080531148 803.348347107647,48.86360031593358 804.1671684551984,49.48512205883162 804.266666666721,49.56312073644949 804.6666692836443,49.87666800210718 805.1534415646456,50.258179828641005 805.7448675556807,50.491577816486824 806.4415006720228,51.10095175931929 807.4803482168354,51.964743194170296 807.8743797759525,52.5398725142004 808.045909333392,53.150356177124195 808.0321613369742,54.463131775846705 807.7303753385786,56.81661040283507 807.5928371201735,57.820846235146746 807.3751702186419,58.6502942283405 807.3096342186909,58.81619941547979 806.5337462329771,60.770384447823744 804.8378784428351,64.75944865104975 804.5223444482544,65.98150808020728 804.4042048853589,67.04092654818669 804.4179820091231,68.1014949947712 804.4705564444885,68.49743034609128 805.4551984356949,68.89221049728803 806.9803522275761,69.62985367211513 807.8088437760016,69.8455565510667 808.637364451657,69.89970120828366 810.5297819876578,69.68407800176647 812.8437853298383,69.62985367211513 814.1585539983353,69.48501652712002 815.1318655431969,69.14326741016703 816.6958457741421,68.35259253112599 817.5502604516223,68.18999824643834 818.7201799965696,68.13577358593466 820.297908224049,68.08270347694634 822.1385960107436,68.22650632617297 822.7825964374933,68.60361018497497 823.0067295575282,68.9818282101769 823.9137186702574,70.27572756097652 825.1597182294354,72.34041845065076 825.3336653368315,72.62905416917056 825.794019328081,73.65420586703112 825.9121588907437,74.87618108250899 825.8199424569029,76.15014366677497 825.5043793350924,77.01380690536462 825.2956544568297,77.7027766025858 825.2543522133492,78.45146064751316 825.3336653368315,79.3858992040623 826.1354473244864,81.09225952217821 826.5691208818462,81.91939929377986 827.0165715628536,82.5121339688194 827.4670805903152,83.0539899005089 827.7787115521496,83.42884155741194 828.5020542293787,84.25493837683462 828.5392495503183,84.31485228287056 829.0150117831072,85.08095278928522 829.2909037795616,85.96122494863812 829.212435342255,86.75188276782865 828.764984661364,87.34456593368668 828.5392495503183,87.69261932984227 827.9373086721171,88.62069295201218 827.5821035521803,89.64470284368144 827.1872855608817,91.53116602130467 827.1613624321762,92.84266098792432 827.2010335575324,93.97497170732822 827.62177467742,96.13125995150767 827.7528175503248,96.83120262954617 828.2132006685715,97.2801553112804 828.5392495503183,97.50021268246928 829.2520482132677,97.98120931978337 832.5515091058332,99.38335112197092 833.3541357795475,99.94065477827098 833.9326584604569,100.35309847432654 834.4447713281261,100.91039992321748 834.6551564515103,101.2774618488038 834.918086883612,101.73635814426234 835.2336500054225,103.06662708718795 835.3655084375059,104.2884157000226 835.3388280037325,105.83318756433437 835.4043348766863,107.53928395308321 835.6414295609575,109.22884902718943 835.9173215575283,110.50374742760323 836.3414414222352,112.11240752716549 836.4432115486125,112.49843979632715 837.6528022186831,115.19300610356731 838.1719055928988,116.22681623906828 838.7442533263238,117.36678070254857 839.3227468800033,118.35412997042295 839.9012404337991,119.01977746386547 840.7289746775059,119.50407537905267 841.8341737813316,120.11550659697969 842.5834104605019,120.45714476692956 843.2274108870188,120.74460925435415 843.9110824391246,121.1039592907764 844.7654679894913,121.12163222982781 846.1854437831789,121.01440045866184 847.263146894169,120.79882226436166 848.1943988905987,120.66830501932418 848.9201591183664,120.70703429746209 849.6822991076624,120.65397558297263 850.9841353386873,120.43835726717953 852.0885480107972,120.45603025431046 852.8118615609128,120.59215997654246 853.1403279930819,120.65397558297263 854.4939231005264,120.92484159365995 855.6501529031666,121.15705771179637 857.6979053226532,121.50641637627268 859.5944297814276,121.7319847055478 861.4221560036531,122.07366042403737 862.8817446685862,122.52252701978432 864.2353397760307,123.27656691515585 864.8923017671332,123.72547110921005 865.4182208853308,124.22854692762485 866.1544960000319,124.784679543518 867.6666882276768,125.75436610059114 868.8236753351521,126.59902754833456 869.4280628906563,127.06675244699 870.3221195663791,128.07284951821202 871.1109691164456,128.84458450664533 871.9394606649876,130.0663241033326 873.1101957688807,132.27646519918926 874.0698175715515,133.67721656971844 874.7801695574308,134.91664380056318 875.3060595486313,135.59991816605907 875.8708051058929,136.2101947531337 876.3708593494957,136.62365199823398 877.0844444443937,137.04196430701995 877.1329993387917,137.0703426518594 877.7907768888399,137.37772807531292 878.632230001851,137.6330929089454 879.6573295504786,137.7016306198202 880.577280227677,137.59329167439137 881.0481491059763,137.42632542480715 881.3402357760351,137.32351873564767 882.3249068942387,137.10791509778937 884.113777550403,136.02997366408817 885.0337282277178,135.6706455311505 886.0466817707056,135.4727521429304 886.8881640107138,135.50921038963133 887.5718355625868,135.83315520721953 889.0047146668658,136.64028898091055 890.0565237761475,137.4130716031068 891.148004010669,138.40145447535906 891.7523915661732,138.7961617303663 892.475675989408,139.10243055969477 895.3018504533684,140.4490138386027 897.2080451129004,141.02389553911053 897.9572526650736,141.3467186439666 898.9305642098188,141.77787846548017 899.9168373191496,142.26213137246668 900.8497495608171,142.83704861695878 901.2971711147111,143.37542784085963 901.3570273281075,143.48101800883887 901.6644931129413,144.0233360361308 902.1248471041908,144.67004851461388 902.5585497886641,145.40634902956663 903.3611473352648,146.64567709719995 903.8741048889933,147.09342406189535 904.4525984426728,147.31009349913802 905.3992295538774,147.65173353021964 906.2665475414833,147.79544985492248 909.0401184427319,148.54941193241393 909.337855772581,148.62901083391625 912.1955748979235,149.39407435571775 912.2003226169618,149.3951887365547 913.6551344355103,149.73571147950133 914.6017946738284,149.91480810381472 915.4561802241951,149.78876389318611 916.5515343644656,149.3951887365547 916.7054128925083,149.3398676760262 917.5727600071114,149.0347658318933 918.1504088746151,149.05247655470157 919.1533718187129,149.3951887365547 920.6221937779337,149.89705764420796 921.5259497815277,150.27300095948158 922.1343860053457,150.52504901826615 922.6335664355429,151.2259506013943 923.2387986774556,152.35799137235153 923.6724431075854,152.82451290992321 924.5138962204801,153.45245697826613 925.0397862116806,154.2252263473929 925.5001693299273,155.60818172781728 925.6296393388184,155.73036250926089 925.9759024356026,156.05706645536702 926.7793446684955,156.45059110759757 927.5536306631984,156.9071553243557 928.6232655644417,156.91603030025726 929.1159797761356,156.9204080910422 929.865187328076,157.0276639383519 930.6014624426607,157.20786957541713 931.5222286791541,157.62021682522027 932.5732222293736,158.10555274790386 933.3491102153203,158.8782676368137 933.7172477726126,159.54157631500857 934.1250273281476,160.56524986505974 934.4535228871973,161.60662895109272 934.9924035698641,162.54075022303732 935.609723562724,163.27257953659864 936.1752555519342,163.94252240494825 936.780487793847,164.59917129355017 937.1356346595567,165.1828311852878 937.5952022187412,165.93673973547993 939.4625995663228,168.0724962532986 940.409201550181,168.95354461320676 940.8962651023176,169.3846558337682 941.6180057885358,169.81465200782986 942.5120333370287,170.26462498347973 944.3923631218495,170.6238625656115 949.4806946703466,171.50382726278622 949.9022222222993,171.5940043638111 952.5042344392277,172.1504671779694 956.0933353245491,172.49095828289865 957.9073426773539,172.25771635578712 957.9736942364834,172.63466003193753 957.776241550222,174.12587409082334 957.1581351254135,177.01762236224022 956.4760364374379,180.12605648802128 956.290758883697,180.96838154038414 955.9527387593407,182.55902970809257 955.8174433280947,183.19573177356506 955.528618894401,184.92011162516428 955.0811682133935,187.32760939985747 954.4501002241159,191.5290541644208 954.1224202241283,193.43244015448727 953.8594606647966,194.5101687614806 953.6232106665848,196.75617750367383 953.4128546703141,198.13897233828902 953.0180366791319,199.37914775358513 951.1643873280846,202.26836961955996 949.9022222222993,204.13323461293476 949.0615846685832,205.37536919175182 948.2063835591543,206.8663839357905 947.4701375716832,208.5906369482982 947.2726848854218,209.36319258308504 946.169903331669,211.28522053331835 945.6302362170536,212.29105127969524 945.6043713422259,213.11774803395383 945.6084200107725,213.13764251640532 945.7621237761341,213.87043475883547 945.8276889031986,214.7678704992868 945.7177631858503,215.71838087571086 945.6698782152962,216.1328180017299 945.169882225804,219.22197586949915 944.7628891023342,220.62338392145466 944.2499315483728,221.52083471114747 943.5545508977957,221.8565622648457 943.1334019982023,222.06019484694116 941.76605889434,222.68792165390914 940.9634613476228,223.19079424091615 940.3986866631312,223.6582949287258 939.8460871110437,224.35898726794403 939.517591551994,225.2398331949953 938.9787691235542,226.4245677627041 938.5580280036665,227.5905968922889 938.1122084408998,228.64931645587785 937.5199377636891,229.40414370945655 936.6655522134388,230.22974827495636 935.6800946631702,230.91379123955267 934.3256839964306,231.8112043326255 932.8135208961321,232.76276258548023 930.8029346703552,234.37961140170228 929.8692359963898,235.22393811290385 929.3433460054221,235.95996646932326 928.9088568890002,236.6230266619823 928.1466877725907,238.74273045221344 927.6232444588095,239.96607036393834 927.1482686579693,241.0778884474421 926.5830570666585,242.87796795973554 926.2016666737618,244.09261432552012 925.6296393388184,245.89135882793926 925.42006977438,246.55033422226552 925.1919171130285,247.08852532069432 925.1619744426571,247.56592625181656 924.888004835695,248.8732839396107 924.8278282241663,249.1605977518484 924.4135824498953,252.35317178763216 923.8423706738977,255.81093118415447 923.5462353352923,257.2364366406109 922.7347248925362,260.3283383438247 922.4167442206526,261.26100914616836 921.7322571093682,262.5516653297818 921.0218759963755,264.562822227017 920.128634880064,267.14854839333566 919.5768508871552,268.51320410252083 918.8673144605709,269.6977692190558 917.8543026631232,271.2955586053431 916.7369575537741,272.5707275615423 916.372868664912,273.0425893109059 915.8569984000642,273.71008397830883 915.0022633244516,274.81602078367723 914.095303338836,276.3420160312089 912.9382871040143,278.3154294003616 911.9390815573279,280.5065718778642 911.0666371983243,282.0236612437875 910.6898488888983,282.6788799247588 909.455179776065,285.6599596045562 908.0352331093745,289.28629963408457 907.3774264320964,290.68730699812295 906.2601104498608,293.70257607020903 905.2220202098833,296.52111864602193 904.130569102359,300.5605183824082 903.604708238272,302.4994909284869 903.433965113014,303.7380245331442 903.5553086579312,305.421782215999 903.7397997797234,307.8955124223721 902.8975311076501,309.92395653703716 902.5957451093709,310.58797003660584 902.0965355520602,311.3955623472575 901.3570273281075,312.123288041621 900.8740124444012,312.5987327374751 900.3084513280774,312.9765741918236 899.8480973369442,313.5333921156125 899.2040386560839,314.0714361189748 898.5203671042109,314.8072276767343 898.1232771982905,315.1695544917602 898.0082251094282,315.27451382781146 896.5356748800259,316.29757665173383 895.9434333298123,316.7107300737407 895.3520073387772,317.10515014838893 894.7209393494995,317.4642122599762 894.0380542295752,318.07514958648244 891.8162964479998,319.42078925762326 891.2507353315596,319.69032197631896 890.567034652573,320.12116803927347 890.0273966650711,320.42721026873915 889.3833671112079,320.91111017827643 886.7012553387322,322.4555506677134 886.1577143182512,322.8809829938109 885.5313066666713,323.37140051391907 884.6777075486025,324.30490522517357 883.42847487994,325.88464067684254 883.1388348870678,326.3873412957764 882.7577648925362,327.23023747233674 882.4818728960818,328.4332903609029 882.3637333334191,329.0972537153866 882.3766657706583,329.5490818377002 882.390442894306,330.0307366187917 882.5870508942753,330.9288605810725 883.0603664497612,332.0954265475739 883.6785020019161,333.3338503697305 884.1259235555772,334.1413677352248 885.2821242313366,337.1561022394453 885.755410659709,338.3414093662868 887.2805644515902,341.57151618169155 887.8987000035122,342.8639764827676 888.6616555521032,344.19174367928645 889.3841826703865,344.9285583135206 890.1341766542755,345.30523644195637 891.0808368924772,345.50300018128473 893.7224911075318,345.4311403411557 894.4061626596376,345.5383136977325 894.7743002170464,345.753733991005 895.2217217707075,346.3646405751351 896.1813144462649,347.8360276086605 896.4631775005255,348.31100536399754 897.0761575538199,349.3438322499278 897.8779395414749,350.41976186743705 898.5090366578661,351.22722294641426 899.4953097671969,352.08884321909864 900.7178620017366,353.5789655239787 901.3570273281075,354.3627554043196 901.7429906774778,354.835970811022 901.9412006686907,355.07679335965076 902.9525813477812,356.30730699567357 903.3999737743288,357.3478544736281 903.5577262081206,358.3353505040868 903.4525773370406,360.2551764672389 902.9792326543247,362.6068324347143 902.8085477832938,363.84502258570865 902.8481897814199,364.2934862149996 903.0189037796808,365.100941360055 903.2940093441866,365.8199980885838 903.9647193315905,366.8792738011689 905.688053987571,369.83837416686583 905.937294677482,370.44918096839683 905.8183686826378,371.6343668833142 905.4372404337628,373.1056022476405 904.8587468799669,374.3978962971014 904.438850446255,375.74430039926665 904.1492104533827,377.0365805393085 904.096606890671,378.4547805688926 904.2987199147465,379.8308645373909 904.5181344426237,381.32531128887786 904.5354359467747,381.44793623453006 904.7544135680655,382.9942219929071 904.7414520035964,384.5194643526338 904.5577764408663,386.5119668756961 904.294846008881,387.5888069146895 904.057780451607,388.5397605278995 904.01650733524,388.85673099255655 903.9266793244751,389.5448242709972 903.9129313280573,389.95789401663933 904.1759200142696,390.8900319072418 904.6095644445159,392.37880510563264 904.7018100053538,393.43800582987024 904.6629835661734,395.43039611401036 904.5707380053354,396.6684204990743 904.5577764408663,397.2615471870522 904.7552000000142,397.7640219379682 905.1492315592477,397.8888254056801 908.3904091021977,398.4719696614193 910.7181604409125,398.9015640344587 912.1640011094278,399.3499237819924 912.3872895432869,400.76799474452855 912.4924966684775,401.7188972415752 912.624384227558,402.63445100496756 912.9002762241289,403.47819828026695 913.426166215213,404.5726560690673 913.4361276872223,404.58899656351423 914.0701957689598,405.6317246007966 914.5961148871575,406.3849732775125 915.0038944426924,407.0309936943813 915.082362879999,407.69363099866314 914.9383584427414,408.5197086436674 914.017621333478,410.94266284740297 913.675377777894,412.9879063552362 913.461235256982,414.58038878743537 913.3735917797312,415.2319932319806 913.3865242170868,416.2899025559891 913.4617886720225,416.61788930004695 913.63655133883,417.3843031595461 914.3331844551722,419.7166466487688 914.7409640107071,421.0628019066644 914.884968448081,422.21124806214357 915.0564980054041,422.7855486329063 915.3323900017422,424.27524131006794 915.292748003616,425.4413631784846 915.280601998209,428.2771553740604 915.5176966825966,429.0843998272903 915.9513411129592,429.6939459439018 916.5290191075765,430.4823822362814 917.0678706631297,431.1824835523148 917.4627177815419,432.83336471085204 917.9497813334456,435.0407767656725 918.1730988943018,435.6679583443329 919.0671264426783,438.915546243079 919.3478826667415,439.61455017334083 918.6917071075877,439.8938888232806 917.1277560035232,440.2527711415896 916.1940573299071,440.558623690682 913.6033755590906,441.150531166757 912.6704924444202,441.4011671793414 910.8686310970224,441.76004729169654 909.949525105767,441.8682120963349 909.2132791181793,441.7788101719343 908.332154880045,441.4563825962832 905.9526737920241,439.7150039980188 905.4008606721181,439.1408225793857 904.1516280035721,437.6335700828349 901.3570273281075,441.76787840930047 897.341447281884,447.70840468467213 890.5290528996848,457.78616434847936 877.0844444443937,477.67446104466217 874.9498058524914,480.8319063290837 871.153028664994,486.4480847042287 852.8118615609128,513.5750725893304 852.557727516396,513.9509353859467 851.7762471253518,515.1066959686577 832.3994073314825,543.7641848074272 830.1669016462984,547.0655334981857 828.5392495503183,549.4723382592783 813.0225966649596,572.4161415694398 807.7743864036165,580.1756230979809 804.266666666721,585.3615716712666 793.6457859983202,601.0635614069179 787.3750685013365,613.281245831633 781.4293804374756,624.8649522751803 780.080649557407,625.9098427596036 780.7489711218514,627.811011671205 781.8857148872921,630.7172747267177 783.244174222229,633.6014980509062 783.5338433423312,634.0924465884455 784.6851506631356,636.6191477518878 785.5355166720692,638.7541049596621 786.3470271147089,640.8239828588557 786.6051224464318,642.0442064692033 787.0752048926661,643.2424195583444 787.3713111040415,644.2353984268848 787.5760455681011,644.9602704645367 787.985106716631,646.3824433230911 788.0161562169669,646.4905576742021 788.0922071039677,647.0907463596086 788.304223345709,647.7725948315347 788.9943611165509,649.148360450461 789.2751173403813,649.7893729255884 789.7605789012741,650.4314958328032 790.2532931129681,650.9897724156617 790.6481402311474,651.5469356279355 791.1635153351817,652.2828276159125 791.6861722170142,653.0892956575844 791.8075448889285,653.4721337083611 791.8536822329042,654.1748955604271 791.7857286827639,655.7260563003365 791.73230956099,657.9502102746628 791.6109660160728,658.6849709987873 791.7557568853954,660.8352256931248 791.7784177778522,663.3991037682281 791.8690322204493,664.2574438928277 792.1271275520558,664.930388077104 792.8100126720965,665.5614304369083 793.3181351254461,665.8405119677191 793.6482326756231,666.0104151549749 794.7267222186783,667.5780623909086 795.1547451164806,668.5786872770987 795.7397048888961,670.1760645578033 796.1992433210835,671.9864208542276 796.264808448148,673.1877840968082 796.0431220055325,675.3301675275434 795.9670711182989,676.230364103918 795.6935966720339,677.833251508302 795.6337113316404,678.6374116615043 795.3039341795957,679.4791380339302 795.1215402098605,679.9446974578314 794.6797984428704,680.7654110851581 793.6482326756231,682.6859322036617 793.326203335193,682.9860023431247 792.9766780019272,683.4415872216923 792.6586973298108,684.0516534451745 792.5518882133765,684.5370207637316 792.4620893298415,685.5298326142365 792.3560957724694,686.1089577689418 792.0980004409794,686.7399456936982 791.7412224569125,687.3808600204648 790.9830728819361,688.6009316627751 790.4442504533799,689.6863745435257 790.1335515591782,690.6173743749969 789.9895471219206,691.9189970816951 789.974168007262,692.9438260179013 790.0421215574024,693.4501035151188 790.5809731129557,695.5073687980184 791.2557608960196,698.0003194830497 791.5672462221701,699.9858302904759 791.6724242203636,701.4319074162631 791.5664597902214,703.9457645207294 791.6578606648836,705.2583954394213 792.014667776064,706.6856988786603 792.4467393421801,707.3684539947426 793.1295953352237,708.2475669084233 793.6490191075718,708.805712034693 794.0560122311581,709.4234186933027 795.253427768941,710.7735049776966 797.0156471183291,712.49417918775 797.074192611617,712.5713715910097 797.804496668512,713.533217081218 798.0407466667239,714.1784293265664 798.0148526648991,715.0751877486473 797.8870429012459,715.7921076967614 797.5415662365267,716.6524485788541 796.594905998325,718.3367099029128 796.2559246792225,718.8837538438383 795.7097622186411,720.2283085779636 795.4516668871511,721.2816478325403 795.3586348942481,722.4573577906704 795.1345017740969,723.0397311854176 794.5649211165728,723.6915890975506 793.6498637938639,724.4383031735197 792.755777991144,724.5121962167323 792.386854001903,724.5419360758387 792.014667776064,724.6136452541105 791.5980044516036,724.7890269156196 791.1044455538504,725.2335356822587 790.2783715556143,726.2470682494459 789.2241157689132,727.5507653152454 788.6626324481331,728.1507955793058 787.7070884410059,729.3286961466656 787.260482446407,729.8150857188739 786.554965561023,730.4658139022067 785.1511844410561,731.8830843089381 784.6730337848421,732.296650173259 784.2943813405,732.5139149104943 783.6721679929178,732.7719959457172 783.2474073315971,732.8646271190373 782.571833116468,732.7819221340469 781.7757017884869,732.7201415318996 780.8581686612451,732.6374762031483 779.9940837831236,732.8185696175788 779.6744719929993,732.8855912201689 778.7496862151893,733.330085330992 777.2027453441406,734.4782224032097 776.4373139911331,735.2127541463706 775.8758306702366,735.9880599439493 775.0109302329365,737.3324813251384 774.6694731093012,737.9247454243014 774.4032804409508,738.3868589224876 773.948577109375,739.2338596081245 773.5246028801193,739.874636932218 773.2511575609678,740.3080808105296 772.9331768890843,740.6389698511921 772.4711917795939,740.9598531820811 771.9396220018389,741.2499262702186 771.3174377814867,741.5179239599383 770.9080271075945,741.8488113706117 769.527722439263,743.1932006671559 768.8217977742897,744.134479221364 768.7008328818483,744.3037724000169 767.7825133227743,745.591889564821 767.7479976960458,745.659185600176 767.4637462187093,746.2127990102745 766.9863819946768,746.9152954691672 766.3270024535013,747.5252040127525 765.6513991111424,747.9178204219206 765.3561084587127,748.2177711537224 765.0834204445127,748.7449371513212 764.9094733371167,749.0966981379897 764.6586597830756,749.4375008527422 764.3099500089884,749.6547504258342 763.3996986596612,750.0077011683607 762.2395075699314,750.3076096458244 760.2288922169246,750.5954880900681 758.6819513457594,750.7201122355182 758.0063480036333,750.6374132636702 756.3841135501862,750.6781870761188 755.7846193494042,750.6892241926398 755.7214717726456,750.6825145787443 754.7222370987292,750.5756371532334 752.8645973334787,750.5646397336386 752.0983795484062,750.4620500614401 749.9745179875754,750.2966122141224 747.7293128818274,750.0374379400164 746.955842446303,750.0077011683607 746.3571346773533,749.9249622545904 744.8554573371075,749.594085725199 744.0285386525793,749.4496496825595 743.3917908765143,749.3868013175088 741.8213735538302,749.0978097972111 741.1611784534762,749.0669612523634 740.4637589049526,748.9125596617814 738.9240415573586,748.6842722260626 738.9094780018786,748.6842722260626 738.3018573370064,748.6743466804619 737.5963404516224,748.5706842592917 736.0493413263466,748.5497214971692 735.3446400000248,748.5717959209578 734.6318413370755,748.5298703946755 732.3930733227171,748.5508331587189 731.4488888890482,748.5330862734118 730.171344668488,748.5089076290024 729.481206897879,748.5816817683517 728.7983217778383,748.5089076290024 727.2586335573578,748.4890565234236 726.5911275519757,748.4361334681744 725.8928924445063,748.2706942561199 724.2933188836323,748.1262177329627 723.5732384426519,748.0854037945392 722.9437724445015,747.9508924397524 720.6605273316381,747.5593877497595 720.0464404480299,747.4038735444192 717.8238671076251,746.9903331207461 717.1102528853808,746.7620041955961 715.5859437796753,746.4829749235068 715.0090813441202,746.47308899177 714.2897582080914,746.4422004146618 713.516287772567,746.5447520635789 712.7881099946098,746.7521182748605 712.1732075519394,746.9274444240145 711.5437415536726,747.0101843475713 711.0582799928961,747.1446962174377 709.9280024463078,747.2593965112465 709.343829105841,747.2285477355472 708.593019562657,747.0939565064618 707.1973357796669,746.8877419554628 707.1763060053345,746.8837717082351 706.8995984498179,746.8315232493333 706.5371115519665,746.7631158654112 705.8849846614758,746.55574966321 705.0047051094007,746.3495743627427 704.0119366543368,746.2558366039302 703.5346015574178,746.3076484572957 702.6090002205456,746.390348887071 701.4641299912473,746.6274921159493 700.7739922206383,746.7211900306283 699.7950008889893,746.9384817090468 698.9980540017132,747.2792477161856 698.4972133262781,747.5306829393958 697.6404102259548,747.9619296788587 696.0627111253561,748.5408679056563 694.9784835415194,748.6853838870302 694.3724939947715,748.562942330318 693.696890652529,748.2530664574588 691.6944308907259,747.415982772538 690.7388868835988,747.0531423966167 689.4572939947248,746.8149276116746 688.8958106738282,746.8260046043433 688.7364271219121,746.9395536754164 688.5316926578525,747.2495106105926 688.3350846578833,747.7038646063884 687.7736013369868,748.5827934298432 687.2800715662306,748.9964105762192 686.7492882205406,749.5135699867969 686.2565740088467,749.9172203683411 685.6497397760395,750.3517581755295 684.9369411129737,750.6517059348407 684.2548715521116,750.7652929390897 682.90369399474,750.8696293649264 682.783166008885,750.8789195925347 682.0695226596436,750.9505813787109 681.3114313387778,750.9296188196749 679.976448455127,750.8678824845701 679.2482706774026,750.9097679097322 678.6640973369358,750.83699446026 677.761943324469,750.83699446026 677.5645197653212,750.9097679097322 677.4124179912033,751.0542824972072 677.2837926686043,751.3233414353454 677.1405746632954,751.6828802615055 677.0038520037197,752.0269746236736 676.9658119964879,752.6886412782478 677.2158391183475,755.6442041823175 677.1025637831772,756.3676357607474 676.7239113387186,756.9267434501089 676.0410262187943,757.2983828141005 675.0701322241221,757.4230035582441 673.856492885272,757.484777946258 673.112965120119,757.2983828141005 672.1719846685883,757.1131388642825 671.2164406614611,757.0932884542271 670.4575046543032,757.2785324188299 669.4566971164895,757.67220515589 667.7276826739544,758.4574446048355 665.7106302294414,759.4289957985166 665.0431242240593,759.759819377854 664.0269084443571,760.069720432919 662.889349120087,760.3597312504426 662.2064640000463,760.3597312504426 661.1594899911433,760.1314941552118 660.0364942223532,759.6969339507632 659.4531364408322,759.3981485514087 658.6311111111427,758.9854620345868 657.3527513315203,758.3438611580641 656.0323320036987,757.8056789680268 653.2029535573674,756.9377405849518 650.6081939912401,756.2893057952751 650.0556235662661,756.1525756792398 649.2894057814265,756.0599532895721 648.4851771164685,756.235312494915 647.8557111182017,756.5451782962191 647.2949851023732,757.0315139677259 646.9009826703696,757.5994337102165 646.438182001817,758.1266192710609 645.8766695539234,758.6327623975812 645.3079044551123,759.1290190584841 644.2002295467537,759.7399691816536 643.2673755593132,759.9671744313673 641.8563126614317,759.854703293473 641.1661748905899,759.7300440829713 640.2786135609495,759.5436903553782 639.7704911077162,759.3165244142292 638.6021735538961,758.6030266665621 637.5786759965122,757.7240940021584 636.8739455431933,757.0215887594386 636.3431913245004,756.617989755352 635.4629408995388,755.9772561158752 634.3585282276617,755.2645029884297 634.1967271254398,755.1600493260776 633.9232235521777,755.0674265622511 633.2403675592504,754.9019918174017 632.8689968925901,754.9946146435686 632.4822471112711,755.1810115241096 632.1861117724329,755.33648110379 631.754069333314,755.4390687397681 631.0186097777914,755.4798814562382 630.0549975609174,755.2438584063784 628.9707991040777,755.1401987581048 628.0444113351405,755.1511959729833 626.9990684444783,755.2129709324217 625.7547000037739,755.1093509723432 625.2546748871682,754.9648784721503 623.9196920037502,754.4476511381799 623.1607559965923,754.3031782486942 622.4026646757266,754.4476511381799 621.0385255538858,754.8600673718611 620.2788031147793,755.0895004001213 619.5959471219685,755.2339331259718 618.9438202312449,755.6067263824516 618.4429795556935,756.1228396479855 617.9720815502806,756.9289666976547 617.7139862186741,757.2189812239376 616.8806304427562,757.5079234874574 616.4639671184123,757.5498474810156 615.8871046828572,757.4252268013661 614.7041653193301,756.959814254893 614.005959338625,756.7844952678424 613.4978368853917,756.8153825441841 612.8991291165585,757.0326255909749 611.9735277795698,757.456074296264 611.3513435592176,757.9005239379476 610.1757151004858,758.7485689417226 610.0859162168344,758.8058171342709 609.606134442729,759.1113920389907 608.9313466595486,759.307671210845 607.5818002204178,759.813891304133 606.679675335181,759.8447384990868 605.9571773440111,759.7807811833336 605.3519451022148,759.3904069637647 603.8964342329418,758.923886526667 603.2742208853597,758.8004178602132 601.1123484446434,758.5754347635084 599.7773364338791,758.70775676833 598.5337835521204,758.8125265262206 598.1931419876637,758.7596056954353 597.4641777777579,758.6470943039749 596.6607355449814,758.4077791475574 595.9859768889146,758.036141462042 595.4924471182749,757.5090351085528 595.4471253333613,757.2300180465681 595.4851653403603,756.7337575483834 595.4851653403603,756.3510804685066 595.4091144533595,756.1437223618268 593.8014435556252,754.5722733288421 593.0578866631258,753.9943815543666 592.7641980019398,753.7837262452231 591.4575266703032,752.8474870637874 590.3118700090563,752.320290170901 588.7115100161172,751.7104332372546 587.4606171022169,751.3475992061431 586.2623568783747,751.1513136725407 585.8133333333535,751.1822810608428 585.7995853369357,751.1832736052456 584.988074894296,751.0906493415823 583.5090584463906,751.0906493415823 582.8633977742866,751.0388384973048 581.6805166648701,750.831475905492 579.9895422293339,750.7178889318602 579.3438815574627,750.6760034738691 577.8203880108194,751.0487242453382 577.1528820054373,751.2152732355753 576.5687086648541,751.3906359000248 575.8405308872461,751.7523582205176 575.2943975538947,751.8869071949157 574.6956897848286,751.8350965185091 574.4181666702498,751.6939173329156 574.0435628942214,751.5042225625366 573.4521077760728,751.3597082397318 572.4884955591988,751.0598010470276 571.9035357866669,750.8634358797572 571.2667880108347,750.4708638816955 569.4535962169757,749.7054896077607 568.5296259983443,749.3856896598008 568.0975835592253,749.1882908992702 567.8774991075043,749.0129266620497 567.6801046755863,748.6721630604588 567.5433528890135,748.1957364002592 567.498060231097,747.8240832615411 567.3232975645224,747.1833266788744 566.951926897862,746.3462393478258 566.5131269689882,745.659185600176 566.3378108872566,745.3845223737881 565.9130502259359,744.5883228434832 564.5877666702727,743.3530848737573 564.4720737847965,743.2450131667429 563.7964995699003,743.016720462474 563.0755744427443,742.8722408484318 562.3093857847853,742.7067978882114 561.6572588942945,742.8104627846624 561.540750449989,742.825391161372 561.0124137813691,742.8932040951913 560.7170940018259,743.0067946879426 560.330344220507,743.1622719746083 559.7914926648373,743.2549389316118 558.8667068872601,743.183235196746 558.1765691165347,743.2240499498439 557.3577768959804,743.4821197298588 556.7202135609696,743.844965381897 556.1967411200749,744.2166245423723 555.6506077867234,744.8882379390998 555.0850175432861,745.659185600176 554.9604408890009,745.8289938621456 554.7257928819163,746.1080238771974 554.3236639858223,746.2635389031493 553.9976151039591,746.2116873378982 553.5040853335522,746.025323352369 553.1254328889772,745.705478909309 553.0942960070679,745.659185600176 552.7985684481682,745.219120808877 552.4118186666165,744.1338836775976 552.2750668800436,743.2770138314227 552.1456551253796,742.9670915856841 551.956299776095,742.7707596506225 551.6925246578176,742.6351336963708 551.3114546630532,742.4399131852551 550.4238933332963,742.0991404629312 549.597003775998,741.8917703226907 548.2328937813872,741.6855514032068 546.8453073352575,741.7781792142778 546.1470722275553,742.0462160306051 545.0928455680842,742.6560969635611 543.6817826703191,743.2659763818374 542.840329557308,743.4104557642713 542.1048700017855,743.4004903027089 541.1566368998028,743.2152358695166 540.00448489259,742.7079095763038 539.4049324373482,742.5523922987632 538.7147946666228,742.386949123058 537.6678497849498,742.386949123058 537.2681384391617,742.3585216308129 536.6597313422244,742.3152848379686 535.9841280000983,742.1498415026581 535.9817104499089,742.1498415026581 535.2640475591179,741.9844377589761 534.5123933298746,741.633698871301 533.503459328087,740.8583711939864 532.577887118212,739.7941180071793 532.0770755698904,739.2669724991429 531.2582542222226,738.7905275927624 529.9993222258054,738.2743779009907 529.0438073457917,737.6324846899952 526.5113215432502,735.5645345166558 524.7888024463318,734.5013701129355 523.8332584390882,733.932245520351 523.4085269051138,733.4668281543418 523.0751671182225,732.6297337717842 522.3688055467792,730.9952017855248 521.868809557287,730.498888270522 520.2231277797837,728.990089024941 518.5693486649543,727.439351382025 517.0069995519007,726.2614417518489 514.3524128997233,723.9242674483103 512.9955555555644,723.0568446120014 512.865299114841,722.9735407287371 511.8345197797753,722.5389941798057 510.87090756266844,722.229085466708 510.12248644267675,722.0426635733456 510.03670710045844,722.0216985463048 509.4825055573601,721.7944978937157 508.7389486649772,721.2463089455268 508.2769635554869,720.7610141879995 507.60136021347716,720.0573311151238 506.168481109431,718.6411439572694 505.3561551076127,718.0410904556047 504.5519555697683,717.7521017516847 503.4216488960665,717.4520740979351 501.87467889790423,717.1311600476038 500.5016560071381,716.7384547062102 499.56874376535416,716.6348185102106 497.7418622294208,716.3038971229689 496.3461784461979,716.0149460821995 494.7223420017399,715.3321753004566 493.5394317653263,714.5335752782412 492.53862422762904,713.5276579799829 491.9771117797354,713.1725105734658 490.44470533693675,712.8835558476858 489.6566422188189,712.8316972338362 488.7690808889456,712.8625900387997 488.7229726720834,712.8605649321689 486.84267201425973,712.7798386088689 483.7632664461853,712.6551952076843 482.4816735574277,712.6871601509047 481.721135559259,712.605599902221 481.40574720012955,712.5713715910097 480.65313177614007,712.4897318879957 480.08759978681337,712.4655099865049 478.22588222590275,712.3872057242552 476.4054377814755,712.2525953978184 475.8592753208941,712.2074076081626 475.282412885339,712.1588446225505 474.3754237724934,711.9426737022586 473.8948555662064,711.8279569111182 473.256476672017,711.6624930342659 471.74914867198095,711.2698583631427 470.6487846686505,710.9080366983544 468.859069326194,710.2053975155577 466.9326313243946,709.5855485649081 465.4665764408419,709.1101579059614 465.24084132979624,709.0373323595268 464.45036066148896,708.7797822984867 463.84600223309826,708.5829068151652 463.18577800528146,708.396514269989 462.4503184497589,708.261901755759 461.0530035486445,707.8593344513793 460.4397322240984,707.6828685597284 457.77783466677647,706.9063218282536 455.47192866145633,706.2974242430646 451.98317067394964,705.3565565692261 447.8794519895455,704.3230036747991 446.39396932255477,703.8983117649914 444.634225777816,703.4846980684088 443.11314978136215,703.0974905289477 441.7894682169426,702.7610709709697 440.1777777777752,702.3163229725906 438.679333546781,701.9029448695946 437.91797998943366,701.7484739109059 436.8904628906166,701.541149111581 433.9923153350828,701.3150016734144 431.95909734407905,701.0359207547735 430.34332910948433,700.9631325234077 429.5892573297024,700.9223107454018 426.9540693332674,700.475613627641 425.15465466317255,700.0828816471621 422.7929411130026,700.0420597226475 422.0421024427051,700.063026626478 418.35024110937957,699.586505646701 415.90519489417784,699.2959465255262 411.3943665778497,698.7598586836248 403.97356509871315,697.8502936341101 401.29713311302476,697.491787872219 399.95402376540005,697.3120185588486 395.51053732982837,696.7748144890647 391.6325828836998,696.3560661194497 384.79502267739736,695.617685319914 376.2696337637026,694.4803664601059 369.52752310037613,693.8803333325777 369.18609510397073,693.841734195652 367.36000000010245,693.6366662514629 354.07235754665453,692.1440412572701 350.4428282311419,691.7723429842736 347.2525940054329,691.1512561527197 343.0874171165051,690.3791048344574 337.18509932095185,689.2848092881031 334.98844910925254,688.8778028523084 328.44708249601535,687.6808052855777 322.7866071041208,686.6450732344529 318.81480510591064,685.9032479685848 311.71268334938213,684.5767333148397 305.33463244803715,683.4570751864812 299.69850732095074,682.4675114108832 294.54222222219687,681.5308811356081 289.6287989760749,680.6384480656707 288.09301378857344,680.359462782857 283.4469191681128,679.4791380339302 276.95512689789757,678.249132380588 273.4865831253119,677.6081942145829 270.26963933871593,677.01415634359 262.6261902223341,675.6026454296662 260.9386819129577,675.3260769810877 255.80642668099608,674.4850909389206 245.99702732800506,672.6250305428985 241.6344268800458,671.7977765051182"/></g></g></svg>