<svg width="1200" height="800" version="1.1" xmlns:xlink="http://www.w3.org/1999/xlink" xmlns="http://www.w3.org/2000/svg"><g class="geojson-features"><g class="geojson-feature" stroke="#555555" stroke-opacity="0.0" stroke-width="0.0" fill="#111" fill-opacity="1.0" data-properties="{&amp;quot;N03_002&amp;quot;:&amp;quot;後志総合振興局&amp;quot;,&amp;quot;fill-opacity&amp;quot;:1,&amp;quot;description&amp;quot;:&amp;quot;古宇郡泊村&amp;quot;,&amp;quot;N03_001&amp;quot;:&amp;quot;北海道&amp;quot;,&amp;quot;stroke-opacity&amp;quot;:0,&amp;quot;N03_007&amp;quot;:&amp;quot;01403&amp;quot;,&amp;quot;fill&amp;quot;:&amp;quot;#111&amp;quot;,&amp;quot;N03_004&amp;quot;:&amp;quot;泊村&amp;quot;,&amp;quot;title&amp;quot;:&amp;quot;古宇郡泊村&amp;quot;,&amp;quot;stroke-width&amp;quot;:0,&amp;quot;N03_003&amp;quot;:&amp;quot;古宇郡&amp;quot;}"><title>
      古宇郡泊村
    </title><desc>
      古宇郡泊村
    </desc><polygon points="476.09333333338145,452.5172178276698 476.07716778689064,452.51753685914446 475.8239075555466,452.41233618801925 475.66612599475775,452.1785656188731 475.6297171058832,451.9680841816007 475.7713039929513,451.84513709682506 475.9606593423523,451.75209925184026 476.0876535467105,451.6933972586994 476.09333333338145,451.69004741619574 476.2875237832777,451.5759134715772 476.72361489071045,451.5759134715772 476.82392866152804,451.4951184109086 476.9396506738849,451.354424875055 477.08688822062686,451.22589440015145 477.3441679928219,451.2026448530378 477.58609777793754,451.1970617711195 477.64918710046913,451.0619511488476 477.7649091129424,450.95116676343605 477.9542062081164,450.9744562136475 478.2171948943287,451.05644782213494 478.443716437323,451.2380575413117 478.56430267740507,451.2779366885661 478.8223688817816,451.41863026848296 478.94857665430754,451.5183280510246 478.92757600720506,451.7864351258031 478.8167473493377,451.88058957096655 478.6273920000531,451.9858303499641 478.6120128853945,452.19627189304447 478.62255689967424,452.3413915098063 478.5383795485832,452.458835049707 478.41217177617364,452.55191250442294 478.10147288185544,452.55191250442294 477.7649091129424,452.41233618801925 477.60226332454477,452.31259889138164 477.33933289255947,452.41233618801925 477.0706935467897,452.49979072937276 476.7818691129796,452.4466320904321 476.4395964302821,452.5109169547213 476.09333333338145,452.5172178276698"/></g></g></svg>