<svg width="1200" height="800" version="1.1" xmlns:xlink="http://www.w3.org/1999/xlink" xmlns="http://www.w3.org/2000/svg"><g class="geojson-features"><g class="geojson-feature" stroke="#555555" stroke-opacity="0.0" stroke-width="0.0" fill="#111" fill-opacity="1.0" data-properties="{&amp;quot;N03_002&amp;quot;:&amp;quot;空知総合振興局&amp;quot;,&amp;quot;fill-opacity&amp;quot;:1,&amp;quot;description&amp;quot;:&amp;quot;空知郡上砂川町&amp;quot;,&amp;quot;N03_001&amp;quot;:&amp;quot;北海道&amp;quot;,&amp;quot;stroke-opacity&amp;quot;:0,&amp;quot;N03_007&amp;quot;:&amp;quot;01425&amp;quot;,&amp;quot;fill&amp;quot;:&amp;quot;#111&amp;quot;,&amp;quot;N03_004&amp;quot;:&amp;quot;上砂川町&amp;quot;,&amp;quot;title&amp;quot;:&amp;quot;空知郡上砂川町&amp;quot;,&amp;quot;stroke-width&amp;quot;:0,&amp;quot;N03_003&amp;quot;:&amp;quot;空知郡&amp;quot;}"><title>
      空知郡上砂川町
    </title><desc>
      空知郡上砂川町
    </desc><polygon points="541.9974302153569,669.2026311965892 540.4391880247276,670.3232639288763 535.1315293300431,675.4978366384748 532.5845382260159,677.3044252411928 530.5294457741547,675.1838000435382 529.0148359965533,674.1501883761957 526.0438706630375,672.5864145060768 525.3043915664311,671.6753334699897 524.2007653263863,670.7887900765054 521.9919982368592,669.0512244862039 520.8883719965816,667.609971382888 520.0048884623684,666.7233403734863 518.9741382542998,666.3892494339962 517.7976942367386,666.4627077592304 515.698911118554,667.313732873532 512.5725817743223,668.0911380404141 508.85561287146993,668.6457622159505 506.2795529104769,669.5323897157796 503.33608356979676,670.8644931666786 501.9751484300941,671.0493401753483 499.87642356636934,670.4947187445359 499.4103897884488,670.4292002370348 498.0365222117398,670.2363335876726 496.8957880323287,670.309871525038 492.9975902438164,672.7868986170506 490.4675511182286,674.2011913777096 485.1234835344367,677.1886267059017 483.7966271149926,677.872511284193 481.4793906630948,679.4252015645616 479.7123653406743,679.7213524936233 477.32067999313585,680.2025071518729 475.29797688894905,680.3875109910732 472.8691253478173,680.460967199062 470.33017332619056,680.7950484586181 466.8721444408875,680.8686649895972 464.7749924408272,680.7950484586181 463.2506542080082,680.1825392431347 462.6778404407669,679.9507831323426 460.72632399667054,679.166740965913 458.96092979214154,679.1311354616191 457.78128179209307,678.7234362125164 456.8621466739569,678.4649752408732 453.91867733350955,677.1708238814026 452.2632671005558,676.6162094414467 451.15969911497086,676.7632031799294 450.8651657674927,676.9246316043427 450.75349242286757,676.9858990098583 449.5026577638928,678.0218302322319 448.39908977784216,678.4271242897958 446.88931510061957,678.649979742011 445.64011155907065,678.5385921249399 444.0575191040989,678.5786884621484 442.91666841623373,678.9841424397891 440.85679911845364,680.2025071518729 439.3842488892842,680.645810555201 436.69971956615336,681.5369069103617 436.03626222955063,681.9400328471093 435.41166045865975,682.4591161390999 434.1235430969391,683.9381757017691 431.4374409103766,686.5265190980863 430.52494677342474,687.2057394351577 430.4438568963669,687.2661234404659 429.2301884305198,688.041331510176 427.02136308629997,689.8165990373818 425.40160443726927,691.5184857418062 422.2396817638073,695.1782877761871 419.55189020442776,697.2876793215983 416.24275911133736,699.3948164071189 415.17478445521556,699.5798129357863 413.59225025447085,699.8381022933172 410.7587648855988,700.947437883704 409.9853235769551,700.9118339760462 408.03537999652326,700.245783817838 406.63890978181735,699.8381022933172 406.15994356619194,699.7646490157349 404.76184223312885,700.1344011535402 403.10480088205077,700.5420824299799 402.320000000298,700.7567484560423 401.48504223302007,700.9852870799368 398.54157289280556,701.3551184773678 393.9427515731659,701.7603930636542 390.55748221161775,702.5756723555969 386.36317821149714,703.9991000492591 385.62696135113947,704.1483307768358 384.96507687843405,703.6849215051625 384.2288600180764,703.1660212751012 383.2870640072506,702.3239599318476 382.7206582042854,701.3907223525457 382.13170801801607,699.3236083615338 381.54264132282697,696.7352529740892 381.2853906773962,693.9241958315251 381.1008995557204,690.8545878492296 381.1910188375041,689.0058692118619 381.21094178175554,688.5981782517629 381.13812400377356,686.8606763767311 381.21094178175554,685.1254136500647 381.9099924482871,682.8689774353988 383.12360265967436,680.7237574938918 384.70619511487894,677.9148530741222 385.0006702078972,677.0817295572488 385.1479368819855,676.0838078525849 384.66897066682577,672.4950739177875 384.07990397163667,671.0538310346892 382.94883999298327,669.3051995923743 381.9229248855263,667.119822457782 381.65111068449914,665.9526693769731 381.65111068449914,665.1394938672893 382.05108417454176,663.8724129435141 382.1300186456647,663.6225249482086 382.20289467740804,662.254714696086 382.27728531928733,660.4058069918538 382.7175124764908,658.2226352990838 382.68022977444343,656.0417794879759 382.8274964482989,654.1927679334767 382.68022977444343,652.2702888784697 382.2012635592837,649.9222749766195 381.7966879857704,646.3356734559638 381.90678846579976,643.5977863618173 382.03745268657804,642.8247529075015 382.6074119966943,639.4564010534668 383.5621404442936,635.2772063126322 384.70299113262445,632.0602203975432 386.13825865951367,628.9925471955212 387.6836266666651,627.1434326493181 390.00086311833,625.2564559659222 392.5413880038541,623.3694719505729 393.68701553787105,622.4115408423822 394.97187066311017,621.2241495685885 396.10299289622344,619.7092089279322 397.1612973511219,618.6220642725239 398.52211598237045,617.8623047071742 400.5367800036911,617.004616295686 401.972047531046,616.7016098722816 402.320000000298,616.6437033824623 403.808686649194,616.3963575774105 404.61457555927336,616.2715617866488 405.8233506702818,615.5631285161944 407.2586764516309,614.1975087889004 408.86870664567687,612.7538471808657 409.27165110060014,612.3238758026855 409.5241248998791,611.8181917599868 409.5241248998791,611.0605870523723 409.04515868471935,608.8104636255885 408.465878698742,606.9145130013349 408.44152843393385,605.9297610736685 408.7683928748593,604.5418172931531 409.95130311115645,602.6971011293354 411.4869426630903,601.1798569348175 411.839671978727,600.549361454905 411.9659671327099,599.0566535263788 411.9141208748333,596.8577262180625 412.3429884586949,595.3916354698595 413.0727973547764,594.1751433312893 413.3252128995955,593.0634784360882 413.1746839894913,591.5706672882661 412.5954040037468,589.4986743831541 412.5452471184544,588.6387702680659 412.4691671039909,586.8697098727571 413.0468742258381,583.7882761706132 413.676311096875,582.4247327089543 414.35596310766414,581.5135627087438 415.25086446944624,580.8986824093154 416.6780346597079,580.2212383815786 417.45316534047015,579.5172442196636 418.4353897818364,578.4054655565415 418.990436010994,578.1781525867991 420.70083822938614,577.8484924449585 422.2866346668452,577.8484924449585 424.55371423298493,577.9999275940936 424.85954889957793,578.0044193137437 426.19129867386073,578.0266372840852 427.0715782258194,577.9999275940936 428.14165003364906,578.0574376459699 428.48267025104724,578.075725360075 430.4438568963669,578.4054655565415 431.17523865634575,578.4299293669173 432.5846995629836,577.9753835529555 433.1138226632029,577.1911767253187 433.26435157330707,576.7076741246274 433.3843552712351,575.9880339935189 433.41639509331435,575.7964131862391 433.4666102330666,573.8268613228574 433.8695546879899,572.7885421272367 435.10256355581805,571.2221959214658 437.04108930868097,569.6292147227796 437.947350243805,568.7201061917003 438.95380844082683,567.6595576319378 439.60922669502907,566.242467992357 439.8357191113755,565.3088886500336 439.8357191113755,563.994302580948 439.3826177706942,562.3499620757066 439.0055964444764,560.1775792008266 439.0557533297688,558.6312454330036 439.0055964444764,558.4284682361176 439.1302022258751,557.494873869 439.8858759966679,556.0800005239435 440.81794355181046,554.7900148945628 441.82609112211503,553.4753201317508 442.2274044586811,552.5150051484816 442.40373998950236,550.8728717517806 442.7549546950031,548.7739938697778 443.1577826421708,547.1072220044443 443.76298575662076,545.8171323208371 445.17407778138295,543.4151002081344 446.91040312917903,540.4294086626032 447.21297555905767,539.847765801358 448.09325511124916,538.9118896649452 449.35055598965846,536.9400223403936 449.7292666879948,536.1823007918429 450.0561311291531,534.2638465784257 450.1062880146783,532.467875860515 449.90560221881606,530.2953592786798 449.85544533329085,529.2836593572283 450.0561311291531,528.0960403225617 450.40891869878396,526.1485955136595 450.6354111148976,524.5820988353807 450.1321528891567,521.573910480598 449.77936531906016,520.9878330011852 449.35055598965846,520.2547939536162 449.22600846225396,518.0554295122856 449.2078331450466,517.9422402279451 448.8230640073307,515.5306845061714 448.82469512568787,515.401530927862 448.84892888204195,514.0756591630634 448.8732208928559,512.6740560323233 448.6466702222824,511.7381275125081 447.814974691486,510.37213551683817 447.09908855496906,509.1421137130819 446.9330640216358,508.85684896667954 446.58027645153925,507.6668535558274 446.6562982115429,506.43016654625535 446.8829071361106,504.22632729413453 446.9330640216358,503.011772701866 446.58027645153925,498.5150062843459 446.6822213404812,496.5182662711013 446.9330640216358,495.5823868276784 447.8392084480729,493.98899698315654 448.31660179933533,492.57401877536904 448.34240841981955,492.19512352498714 447.4103408642113,487.1143045926001 447.4103408642113,485.21346633369103 447.9897373584099,484.5048418098595 449.575533795869,482.02677379676607 450.30691555538215,480.58929761638865 450.6839368820656,479.09630105120596 450.43315245513804,478.01100759766996 450.15481378138065,477.0750122484751 450.206543531036,476.11454612948 450.7600168962963,475.0783445003908 450.8651657674927,474.96755198424216 452.8004875378683,472.92771363584325 454.0820804266259,471.7154875409324 454.3086893511936,471.26084180455655 454.2342404550873,470.7794800531119 454.17109287856147,470.7081582461251 453.5287235698197,469.99510005605407 450.8651657674927,469.92819062643684 450.5076013512444,469.9192051871214 448.5430942152161,469.69192164449487 447.8392084480729,469.5671683662804 447.486420878442,468.9855208268855 447.4362639931496,468.5286261677975 447.5867929032538,467.8935458882479 448.11591600393876,467.0600619313773 449.85387246939354,464.63092418410815 450.206543531036,463.6994760411326 450.23089379584417,463.2181067914935 449.551241785055,461.60014101618435 448.49293732992373,459.9821698484011 447.53663601819426,459.75488165346906 446.69923157361336,459.75488165346906 445.16918442677706,459.75488165346906 443.86009554495104,459.65451538865454 443.0041080038063,459.45169684593566 442.1739853369072,458.71856487332843 441.7192528785672,457.60642931598704 441.5947053511627,456.2916318066418 441.9215115378611,455.05248725262936 442.09796357690357,454.5220890927594 443.1044800286181,453.41002415085677 445.2452644407749,452.14423585520126 446.55435332260095,451.05888214253355 447.01555200037546,449.714943235158 447.6127160321921,447.97000739269424 448.97027242649347,446.6818204682786 450.8651657674927,445.4752252429025 451.0350933333393,445.3669933680212 452.29402532987297,444.12774069444276 452.84907155903056,443.2942961610388 453.09985598595813,442.3583141003037 453.0917586488649,442.2869078858057 453.0254070898518,441.70081490802113 452.37010534410365,440.8404885062482 450.8651657674927,439.708815579419 449.75029646232724,438.8703088257462 449.44923864211887,438.11034814757295 449.34735200740397,437.6557511680294 449.42343202163465,437.09861655544955 449.7195382330101,436.58159762981813 450.1030257779639,435.91069174185395 450.8651657674927,434.90312767680734 452.72283465974033,432.44735200249124 452.80258469004184,432.24845352664124 453.09985598595813,431.50677571690176 453.1759360001888,430.26989466743544 452.94291911134496,429.1532810650533 452.82314843009226,428.5737514147768 452.37010534410365,427.06053630111273 451.61443157331087,425.6943060050253 450.8651657674927,424.8105227308115 450.32957644807175,424.1787551079178 448.44114932627417,422.8125167005928 446.70319286058657,421.3215087694116 446.32617153436877,420.6639810804045 445.84726357343607,418.4128947950667 445.4443191185128,416.0615832626354 445.0413746633567,414.7711452745134 444.18695998587646,413.68346137122717 442.7759262151085,411.8380198419327 442.4231386454776,411.07801683817524 442.04611731902696,408.9294292741688 442.04611731902696,407.1085223519476 442.1966462295968,405.74448255088646 442.2462788268458,405.5363457874628 442.7759262151085,403.3150379334111 443.3293995806016,402.3054002454737 444.3892768996302,400.99261937174015 445.04300578148104,400.1813268797705 445.7226577922702,398.9665119291749 445.94915020815097,398.1329898464028 445.8731284479145,397.1723675109679 444.4620364229195,394.185615874012 444.15946399304084,393.42783194291405 444.18538712197915,392.7703467052197 444.51225156267174,391.90544012817554 444.94106089277193,390.77317165990826 445.42002710769884,389.5852137020556 445.94757734402083,387.05538716120645 448.7664409033023,375.97753163217567 448.9086394596379,375.42257301392965 449.6483515733853,372.53831863903906 449.44766577798873,371.50181562732905 447.936318236636,370.38948021270335 445.7036669156514,369.2142311229836 426.2317271041684,358.9636209596647 420.8552119182423,355.9374741364736 414.72331423312426,352.4860018964391 405.60973243718036,347.7335369873326 402.320000000298,345.9306969125755 393.69994797511026,341.2067362454254 391.0316133261658,339.8157081634272 388.4376693193335,338.57859341881704 380.9083693511784,334.50819401536137 376.47825225954875,332.13296272268053 372.37249467754737,329.9317024492193 362.60110620455816,324.73546879715286 362.5760568890255,324.72214710735716 362.2232693191618,324.5972763100872 353.7748342328705,328.28729111142457 353.7149488925934,328.3132922905497 350.96896136552095,329.40116753743496 343.29064709693193,332.73820723523386 334.5266488890629,336.35617658891715 328.3581675523892,339.11136526300106 322.61686442699283,341.28698465717025 317.4412097991444,343.64989320060704 312.1926208855584,346.04609300149605 305.2296102116816,348.9413381891791 302.25724677718244,350.1771425663028 301.4916697887238,350.4954018072458 293.28265955578536,354.0864365209127 275.70934135490097,361.3731460798299 267.83849688176997,364.6899048042251 267.5504880072549,364.81251843913924 259.92244713241234,368.0245352704078 256.68444444448687,369.3234429055592 256.14396177069284,369.5403417660855 252.27640570350923,371.16166369605344 246.24884132971056,373.6884436061373 242.15945318411104,375.42257301392965 241.79676239658147,375.576318119769 229.30338713596575,380.87455655040685 229.3774282524828,378.5867754969513 229.48001393815503,375.42257301392965 229.9184352143202,361.8979486452881 229.9311928888783,361.5025011379039 229.95548489969224,357.5816312932875 230.08166354498826,357.37877009355 237.13205555221066,355.9120361590758 246.54978264169767,354.0641280519776 256.2426444233861,352.21845981350634 256.68444444448687,352.13083052041475 265.3093315700535,350.42181541002356 268.3062200322747,349.8913028984098 268.8094200035557,349.71524098690134 269.3886999893002,349.46109863417223 270.04085600725375,348.5248553554993 271.57422364433296,343.6884122461779 273.2642368853558,338.35790902236477 275.8063928890042,330.36641803814564 278.1737279717345,323.0568527476862 281.67393291392364,311.72562120319344 282.07681911461987,311.0434677248122 288.2453004519921,309.0973989618942 289.8623211523518,308.5490249239374 305.2296102116816,303.33739416487515 309.06955377804115,302.03501944965683 314.2501017600298,300.258493805537 316.2202595556155,299.5827446311014 324.44400810683146,296.855019752169 334.62702091410756,293.51227585447486 335.78400802146643,292.98178138013463 337.6481431326829,290.7323499553604 340.76952086761594,287.3169309999794 341.24691421864554,286.8331395678688 343.3618920107838,284.3273362125037 351.1193737674039,278.9924087129766 353.7748342328705,277.426639055484 359.9562480072491,273.78222620335873 362.0469337888062,272.13690223614685 363.45633644098416,270.645431303652 366.52371251233853,266.27990493096877 368.20312348473817,263.8923004621174 372.54556797165424,257.718890301534 376.4729511255864,252.33246236445848 377.80633201799355,250.7092986177886 378.3705824143253,250.0116487625055 385.12096517696045,241.66617939737625 386.9716435628943,239.37862485833466 394.4249217710458,229.43454006302636 396.71623509330675,227.38548216247 402.15496578859165,222.70772538159508 402.320000000298,222.5824269882869 403.28766088560224,221.84701065265108 404.04339291062206,220.37994725233875 404.498067114735,217.21816451917402 405.6291310933884,211.32061006687582 406.31058898498304,207.76512196369004 407.5434813441243,201.33139944355935 402.320000000298,200.2348084829282 397.29394221515395,199.1797156240791 387.1706399859395,196.98114325490315 383.5200808963273,196.29433318052907 353.7748342328705,190.0202026811894 349.851354112383,189.19258294079918 311.0000404480379,180.99778692936525 305.2296102116816,179.80586345028132 303.6487071290612,179.4792238875525 297.4543026634492,178.15917717211414 288.7161693298258,176.26379123830702 286.39945716643706,175.77362754463684 281.67550577782094,174.77419299597386 274.61381245194934,173.28017498902045 256.68444444448687,169.40105307393242 256.03071556286886,169.25960526266135 237.29551689955406,165.08519044553395 232.38759867753834,163.99919448699802 232.11089112167247,163.57107314723544 233.06556131574325,160.15034358028788 234.60125912167132,155.34477626462467 234.88443289604038,153.89372817985713 236.2647084374912,146.81945538066793 237.0446742188651,143.27601836109534 237.0543444196228,142.6605022958247 237.0705973478034,141.50758168415632 236.48962798947468,139.50953270646278 231.7289764410816,125.28820863948204 230.7208871252369,121.40773949841969 230.11725687468424,119.08621918060817 230.11725687468424,118.91007349360734 230.16741375997663,118.7829820123734 235.2306959927082,113.6468686539447 236.2016191149596,112.63438000867609 240.77539111836813,107.8729815077968 241.49949110066518,107.1190857803449 246.78448890312575,101.67518520494923 249.75702710053883,98.63988603535108 252.52736489241943,95.5286144198617 253.43356757378206,95.27433888136875 253.8012099696789,95.19878682482522 254.28949686069973,95.09826483554207 255.90121642686427,95.19854595756624 256.68444444448687,95.22600483614951 258.0663511038292,95.27433888136875 259.0987906847149,95.60448758129496 260.7589777635876,96.61701177665964 263.5050235451199,98.76690250611864 265.14103512186557,100.00703755335417 266.75275468826294,101.65069734957069 267.6346653581131,102.23270509322174 268.18802221515216,102.38436901848763 274.4584484412335,102.1814010865055 295.7859599927906,101.97843306919094 300.9495559965726,101.7756255432032 301.0919875698164,101.78895335632842 303.26358846598305,101.97843306919094 305.2296102116816,102.27068129496183 305.3040591075551,102.28184131986927 307.49505865969695,102.96428839792497 308.8300706704613,103.62224676029291 311.0210702221375,104.5566344173858 312.2541373439599,104.73286560468841 314.9742599965539,104.5566344173858 316.0159037441481,104.49103946692776 318.1976408746559,104.35366739402525 320.3886404270306,104.15070028603077 320.9161906633526,104.22649181087036 323.86292224004865,105.82116201997269 324.369384448044,106.05086410872173 326.205965311965,106.88721644342877 328.74649019748904,107.14148589386605 330.913255993044,107.09010211925488 333.4068279750645,106.73555392597336 336.1755346490536,106.45679664984345 338.21612179954536,106.43230903567746 339.37310890690424,106.68649843742605 341.59003158751875,107.59647292329464 342.0973093549255,107.8729815077968 345.9461075628642,109.97151916299481 347.4833782329224,110.75656163750682 348.64193820464425,110.75656163750682 349.9510270864703,110.45323897490744 352.4430262045935,109.36487266607583 353.7748342328705,109.13123809290119 353.8784102401696,109.11293269880116 354.6065297636669,109.03714193752967 355.36226178868674,109.03714193752967 357.02571110404097,109.56783759233076 359.51771022216417,110.55367749521974 361.8348884198349,111.59065783873666 364.83177688205615,112.2240368911298 365.18456445168704,112.2240368911298 365.96453023306094,111.26284832751844 366.3933395629283,110.30157757236157 366.49365333328024,109.16206822847016 366.25655864877626,107.8729815077968 366.11663200729527,107.11250223428942 365.96453023306094,105.66733140975703 365.81400132295676,104.02143717033323 365.7363484443631,102.32640112878289 365.86258534388617,101.82010511076078 366.7946528997272,100.6581754287472 368.55678486754186,99.19074547034688 369.99216890335083,99.06356853339821 372.91210353770293,99.24405700457282 376.96805376023985,99.4939948876854 378.10080711124465,99.72153218719177 380.97145867417566,100.70723152672872 383.465030656429,101.21360899473075 386.8874662115704,101.24034493952058 388.9522871184163,101.26483281550463 390.9669511397369,101.08868065639399 393.03165553789586,100.40398286760319 395.8780150897801,99.2911060344195 397.33932225452736,98.93647185142618 400.7115426703822,98.93647185142618 402.320000000298,98.74337796622422 402.7067497817334,98.69689090305474 403.05307113262825,98.6554620139068 405.49491336545907,97.872648035991 406.2505288820248,97.6451098693069 408.3670795378275,97.41765188460704 412.79923552740365,97.01179206732195 415.970886656316,96.9872236874653 418.136079587508,97.44213995384052 422.89510001800954,98.6063254197361 424.65729024028406,98.17597856617067 426.1184808963444,97.56931731582154 427.3531208820641,96.65715621761046 427.65621760021895,96.53736519534141 429.71888310066424,95.72267305315472 430.09759379923344,95.64463210618123 432.6639253050089,95.51970233337488 441.25164623674937,95.51970233337488 442.5914933476597,95.54876697517466 443.4668795450125,95.5687589510344 447.0430479932111,95.92114750423934 449.5178621157538,96.07168935798109 449.9897795696743,96.09962992055807 450.8651657674927,96.24503322609235 453.1872955732979,96.63042002019938 455.4786088964902,97.46454051428009 457.76992221875116,97.66751042031683 460.1114506807644,97.81909548467956 462.10019157337956,97.97076079028193 465.6746706489939,98.1737304845592 466.25226126261987,98.16923432156909 468.77187288179994,98.14924245222937 469.70394043740816,98.45249252114445 474.89182845153846,100.54890315339435 478.3676831291523,101.78895335632842 479.40006445511244,102.04322547942866 480.8078359896317,102.01648957864381 482.64604797167704,101.96735332533717 484.7108688785229,101.688593308907 485.1396782081574,101.7375690145418 487.58152044098824,102.87725637701806 491.76289200386964,105.78551442967728 493.82771291048266,107.10351007350255 494.7921115590725,107.8729815077968 495.89084444451146,108.749393853941 499.0899915662594,112.21504482533783 499.4103897884488,112.56059695372824 500.12237289268523,113.32797229196876 501.00265244441107,113.70708320045378 501.91048624389805,113.45514548860956 503.1936519967858,112.9734286578605 504.3021133369766,112.79720046464354 506.4931128891185,112.79720046464354 508.75856133713387,113.17414406209718 511.4770528713707,114.00815581995994 512.2829417814501,114.2378540316131 514.7264151326381,114.51443911599927 516.7653129105456,114.97158694732934 518.0501097815577,115.32396140415221 519.3850635376293,115.37526402040385 520.1148724337108,115.29947423771955 521.8253329065628,114.43856891256291 523.2606004339177,113.68034794263076 525.0988706701901,113.09819336317014 526.0228991433978,112.77046515699476 531.1961653479375,109.43407986173406 533.1819352747407,107.8729815077968 534.529588451609,106.81359308864921 534.7383133298717,106.63302714657038 535.0052924302872,106.45454860653263 535.3629733549897,106.33411770570092 535.5862617883831,106.36534945550375 535.7933555485215,106.48353230545763 536.0474604659248,106.64852258120663 536.2853124553803,106.94743182871025 536.6763730489183,107.8729815077968 537.3548599753994,109.47871930059046 538.5248960284516,111.82926898205187 539.2918711185921,112.91987777408212 540.12356664869,113.7561379786348 540.7935484589543,114.2936527770944 541.1802399861626,114.53226259059738 541.673828010913,114.67276293062605 542.1220359965228,114.67276293062605 542.6625186703168,114.2668372655753 544.6577257812023,112.27758785209153 545.2370057674125,111.90513959340751 546.2192884625401,111.48588406597264 546.9474079860374,111.30740731151309 547.3827417884022,111.19372167938855 547.9555555556435,111.15582646266557 548.0575004445855,111.14908239827491 549.1821564589627,111.2382806695532 550.1271564518102,111.59956962952856 551.206432426814,112.09686337166931 551.8537533443887,112.20396531512961 553.0140026882291,112.23294867062941 553.7308208926115,112.12817503663246 555.0819693228696,111.5148674644297 558.7843164158985,109.06612548208795 559.6613919860683,108.78287348046433 560.360442652367,108.78287348046433 561.1194369138684,108.90105574182235 562.0434071326163,109.25118657841813 564.51594934077,110.4711428853916 566.3250342118554,111.53052331588697 567.4253982154187,112.30432318674866 568.1390124375466,112.93328556744382 568.7879062190186,113.67585192318074 569.8219186631031,114.89579710108228 572.3770071039908,119.03933264117222 573.3301626881585,120.18347530986648 575.9305146594997,123.20531244133599 576.7331413335633,124.16206170176156 577.2736240073573,125.0598804919282 577.3706755414605,125.2212516622385 578.0050640213303,126.41443324659485 578.5001666559838,127.45370791188907 579.4451666488312,130.16544561914634 580.3335435378831,132.77689483424183 580.6005808922928,133.55523692956194 581.1539377495646,134.50297412252985 582.7737546523567,136.26244471641257 586.6411942117848,139.28867746260948 587.493977770675,139.92202034802176 587.9438751291018,140.1472907960415 589.7869222117588,141.36708911706228 596.0654457742348,146.91539065993857 596.5007213228382,147.26244339824189 596.5719079822302,147.31904114969075 597.0897880177945,147.4551165672019 597.5962502262555,147.40823276981246 598.012127118418,147.30563430697657 598.4878893510904,147.1250031576492 599.5008720213082,146.60542731685564 600.7598040178418,145.88290127320215 601.5235168712679,145.6129973793868 602.5138386487961,145.38556188787334 605.353790236637,144.42668690218125 607.0382693265565,143.39997246058192 607.190429354785,143.30724773253314 609.7082933476195,141.8175482848892 611.2519719824195,140.9478590541985 615.96089378139,140.13163586810697 616.5563684410881,139.85956116765738 620.1406342259143,134.31792266038246 620.7700710969511,132.96202716743574 621.040370688308,132.32859491126146 621.3089809068479,130.88349921500776 621.3543026917614,130.06958731054328 621.4934137742966,128.1583581500454 621.6244857741985,125.14771137433127 621.662351018982,125.0050463952357 621.9837395627983,123.79179024719633 622.2993026846088,123.34131433919538 623.2426715593319,122.43811329908203 625.5226835629437,120.87256084510591 626.6133191112895,120.01616137230303 629.0907546740491,117.5118245112244 629.4499502084218,117.24190483021084 630.3593568708748,117.0635104792891 631.5907928745728,117.63434005738236 636.9583369102329,121.0353785357438 643.7934795664623,125.19010141061153 645.0459453440271,125.95239887444768 650.3158553030808,129.15925356734078 651.2176306631882,129.70831210748293 652.8277191112284,130.68953493179288 653.5510617885739,139.23962526617106 654.3164057598915,146.87300252192654 655.1222946704365,155.26674490934238 655.212938239798,156.22335065482184 655.7172450416256,161.27937726327218 655.7986844447441,162.09492264140863 656.607777337078,169.7279402530985 657.0827240110375,174.77419299597386 657.3396833851002,177.50581533333752 658.090056021465,185.44628150970675 658.9444124447182,193.53167077281978 659.7081835521385,201.61684501112904 660.3150177849457,207.67281088978052 660.4040302364156,208.44878525449894 660.9671738028992,209.61045677331276 662.0796546842903,211.6245920934016 664.8329239895102,216.60956513276324 668.6097782328725,223.06893133197445 672.3093291237019,229.4855898123933 672.5678613616619,229.93404076097067 674.5031248782761,233.36760250967927 678.4159444766119,240.23256621614564 679.2241635555401,241.66617939737625 682.2849568997044,247.09518539824057 684.4613928960171,250.56875740818214 684.762392462464,251.2532432823209 685.2623301977292,252.3970741700614 685.9501377993729,253.9733587700175 685.9501377993729,255.4069313511718 686.1879897885956,256.30322308058385 686.9016040107235,257.4379724265309 687.9987057780381,258.7043489208445 688.6735226884484,259.87922358780634 689.2123742436524,261.0988011608133 690.2916502188891,262.3339463924058 691.0052644412499,263.1699490742758 693.5765475558583,265.8833361037541 693.591111110989,265.9026789745549 693.9810648746789,266.4250164551195 694.3694457744714,267.5353429063689 694.5862679893617,268.90201852913015 694.6558817850892,270.80595145432744 694.7012035697699,273.8781363796443 694.8338484340347,276.29699278238695 694.8969377565663,277.22888092091307 695.2869497742504,278.71150315424893 695.7368471324444,280.15615858125966 696.2319497670978,281.15040005079936 697.2789529033471,282.5082089314237 697.8970884552691,283.09898863977287 699.104232448386,284.30061035603285 699.8744697743095,285.12317215674557 700.5492866847198,286.07069356460124 700.819469767157,286.6124316373607 701.4554311111569,290.3600386750186 701.67225332628,291.35425923671573 701.7306823111139,291.4713536943309 702.2143088639714,292.4399701617658 702.8891257743817,293.56805398408324 704.9216155877803,296.0448372454848 706.3762817708775,297.38021311804187 707.7922088962514,298.4903884830419 708.780899555888,298.94070178852417 710.6757928961888,299.33531747118104 711.8521786597557,299.5537724660244 713.2131137994584,300.14228427561466 714.5383973545395,301.1075929776998 715.438017308712,302.2824452330824 715.9769271181431,303.32134322833735 716.0724057888146,305.8181402760092 716.3814444374293,307.5279545065714 716.7422710899264,308.42414996481966 716.8055934298318,308.5490249239374 717.9559395560063,310.8183568667155 718.7197106634267,311.9486450557597 719.5854266597889,312.8112865493167 720.358984476421,313.34858085308224 723.2635399964638,313.93258176837116 725.1519671182614,314.3852080767974 727.0209373298567,315.0785119882785 729.3786022118293,316.86854604037944 732.4353177601006,319.03535717516206 734.2752191147301,320.33503795275465 738.0131595381536,322.28780278004706 738.3270915416069,322.3792092835065 739.4485435734969,322.9631993311923 741.8741911326069,325.4487404268002 742.1362768784165,325.7179022880737 746.4341568853706,330.1279143515276 747.4131773440167,331.6347709692782 747.4131773440167,331.8599524209276 748.1316266669892,333.6209544412559 748.7438202882186,335.013926266809 749.8242613475304,337.4729234596016 750.1106391039211,338.9508677062113 750.1106391039211,340.3484786491608 750.380880441051,341.5233161536744 751.9068497922271,344.93602642661426 752.4489053299185,346.5811035785591 752.5848124306649,347.4838874505367 752.673824881902,350.50880303652957 753.5120448854286,352.2229536228115 754.607515534386,354.0775291826576 755.4182395453099,354.98021886346396 758.2112382294144,356.8838943351293 758.9248524517752,357.7799986501923 759.4005564302206,358.4375312915072 759.9151742293034,359.9912435198203 760.4555986491032,361.5247290193802 760.9039231433999,363.69358762702905 761.9589071075898,365.5437059120741 763.8731991040986,367.9377112716902 765.3117871219292,369.1568568116054 765.4913848889992,369.2928700285265 766.6564693332184,369.5446749278344 768.0836977781728,369.9014384332113 768.9153933089692,370.49877197435126 769.5384222150315,371.6845298362896 770.617756444728,374.66475978679955 771.0557699415367,375.42257301392965 771.5919418027624,376.3498574749101 772.4835226740688,377.5445079493802 773.4511835591402,378.32245749328285 774.4851960036904,378.63893294881564 775.4301959965378,378.63893294881564 776.6438062079251,378.32245749328285 778.252321792068,378.0817305884557 779.4432711112313,378.32245749328285 780.5112457673531,378.67905406164937 783.9612355700228,381.18661704240367 785.150553770829,381.8419514467241 786.2801031398121,382.37916932906955 787.3463884231169,382.5195118864067 788.4920742115937,382.5750390618341 789.2348737991415,382.61090704612434 790.1345520073082,382.83606484660413 790.6815008998383,383.0535996003309 791.9890169175342,383.57380496209953 793.7139244375285,384.46977975743357 794.900038656313,385.5909896619851 796.2948777531274,387.351876966306 796.9842582186684,388.6512945604045 797.1638559859712,390.02428907947615 796.9842582186684,391.33709962060675 796.5651773440186,392.6789534584386 796.1589706528466,394.0764096858911 796.1589706528466,395.47610859409906 796.3838902043644,396.10911716800183 796.7447751113214,396.69534543924965 797.9632786775474,397.73179464857094 799.6283591112588,398.9844051967375 800.8371342222672,400.17234014882706 801.8241937637795,401.391565197031 802.4099982222542,402.3410260567907 802.7789222116116,403.40426274808124 802.7789222116116,405.55279453273397 802.9035279930104,406.7652661090251 803.2644128999673,407.30686946737114 803.8032644551713,407.66569138900377 805.5572990861256,408.1627620162908 805.7822768928017,408.29876430286095 806.7645013332367,408.8960505890427 808.0720173511654,411.40337722259574 808.885945344111,412.81425928499084 809.6950382366776,413.67238874267787 810.7743724659085,414.57496758934576 811.7581697709393,415.3439515675418 815.1806053260807,419.17962609801907 816.3505831256043,420.39880340197124 819.01402441971,421.67141423292924 822.4640142223798,423.78432115877513 828.0871777853463,426.04196175339166 829.8849613368511,426.40301638655365 830.7895328996237,426.4475464394782 831.4081344855949,426.8918036975665 831.6212866846472,427.04489062703215 832.9869986702688,429.8776319794124 834.6067573190667,432.04618516692426 836.0809386668261,434.0898860367015 837.7541164371651,437.2835525824921 838.0696795594413,438.2306967295008 839.2266666668002,439.74130959261674 839.4710431292187,440.06047289422713 840.1247137566097,441.07669130014256 840.5679701336194,442.2869078858057 840.5875435522757,442.34042243182193 840.9031066738535,443.28755671170074 841.5326017993502,444.14563229691703 843.6345888995565,445.85495927208103 844.5860551113728,446.8712457778165 845.3983519859612,448.29750927817076 845.8482493441552,449.1110480375355 846.387100899592,449.69721229863353 846.9275835733861,449.833122717333 848.8159524407238,449.92225875053555 854.9326457742136,449.6526041482575 857.397148899734,449.43862938380335 858.6463524408173,449.1399310452398 860.3276275482494,448.4335003194865 862.3520200250205,447.43960149376653 863.4313542544842,447.12309066404123 864.5931764622219,446.8712457778165 866.0220360250678,446.6908063379815 866.9136168963742,446.7508993379306 868.2437938060611,447.16769904689863 868.8732306773309,447.43960149376653 869.9525649067946,448.0724620728288 874.3135342367459,452.04162157454994 878.2715591113083,455.22859118739143 879.223083576886,455.8258197279647 880.5645035519265,456.42312776343897 881.0143426561262,456.4676550627919 882.1389986705035,456.8732945562806 882.1995248072781,456.91870433592703 882.8590791113675,457.41484200698324 886.0953924264759,461.7917266737204 887.3543826772366,462.9216633242322 887.771832433762,463.2102444230113 890.8188777815085,465.3173545912141 892.0761786594521,466.57869601401035 895.1620795733761,471.28755736816674 896.7090204444248,472.854226024705 897.9679524409585,474.2092523452593 898.3287790934555,474.52341894980054 899.7204724624753,475.3791127608856 901.0149977882393,476.00094593525864 902.6800782224163,476.53789916285314 904.6234973298851,476.55354324157815 906.3775902152993,475.92288589896634 907.5459368962329,475.3791127608856 908.8663853514008,474.92679701873567 910.0557035519741,474.6281143638771 911.1851946664974,474.6281143638771 912.042871580692,474.9290433557471 914.8762404408772,476.64492069755215 916.0624129136559,477.25560084625613 917.6676080075558,477.7926329121692 920.0026119968388,477.59206827240996 921.4412000144366,477.63659362937324 922.1159586701542,477.95308456441853 924.5075857636984,479.64223611494526 925.8943857778795,480.0277196514653 929.1777102507185,480.0277196514653 930.8120324553456,480.4779447800247 933.8995062331669,482.3766355046537 936.3170564551838,483.52473529288545 937.2264631185681,483.956665919628 937.5622404552996,484.06625301239546 941.0939026772976,485.22012497647665 942.712088462431,485.71711619291455 945.797872867668,486.50596335320733 947.1053888853639,486.8046387000941 948.9646888962016,487.15890930069145 949.7737817885354,487.2502045358997 952.0666679753922,487.2502045358997 955.4309075628407,486.14719970640726 956.8338439965155,485.93989966087975 961.2854568962939,485.8953750652727 962.5362915557344,485.84852395474445 964.2612573299557,485.61009665823076 965.8065670828801,485.3115008007735 969.9701711076777,483.878526937915 970.055979577126,485.081897950382 967.2936808676459,488.2374434778467 965.738642659504,489.9578465381637 964.7029990972951,491.31266467110254 962.2385542260017,493.9734336892143 960.8712111217901,494.80911768379156 959.8905595447868,495.1499852070119 959.6219493264798,495.105541678844 956.608924444532,495.2414393851068 953.4972169101238,495.8253017066745 951.573138204636,496.5049492951948 946.7493973334786,498.5706806369126 943.9725933228619,499.6202292359667 942.1732369065285,500.1618092235876 941.1829151290003,500.34222878923174 936.3170564551838,501.0158534045331 935.9675311218016,501.0642272689147 935.653599118581,501.0196238385979 933.7651719965506,501.1556001108838 932.7748502187897,501.3360995291732 931.4058759964537,502.03362887213007 929.978647551965,503.40630272380076 928.9074106593616,504.901470725541 927.7180924587883,506.86913624510635 926.9445928961504,507.9453804498771 924.4381467308849,509.1421137130819 922.7001320107374,509.9576362458756 920.6337382402271,511.13198307727 918.441049315501,512.780989380437 917.5495266988873,513.6165607809089 916.3617813622113,515.1051193246385 915.8203083660919,515.9282526966417 911.8195248926058,522.0106203681789 909.4343640180305,525.3975954323541 907.4390986526851,528.8403781849192 906.5135555698071,530.3176596498815 905.9730728962459,530.769923786982 904.400208896026,531.5810782751068 902.1477511397097,532.7798389137024 898.7770453335252,535.2375937916804 897.3628075805027,536.4876837347401 896.9452413155232,537.7399362893775 896.8271600075532,538.8161120623117 896.7996640142519,540.1107926347759 896.9792617815547,541.7373204532778 897.6087569068186,544.1749762702966 898.4323551007546,545.5586808135267 899.9923449172638,547.7846320216777 901.0262991078198,549.2306525870226 901.5667817816138,550.449503321317 901.7626324766316,551.7663720452692 901.7043782547116,553.0208311689785 901.1168844229542,554.5113544471096 899.9923449172638,556.5434704598738 896.7996640142519,561.0108230964979 895.5391008995939,562.9069529660046 894.5066613191739,564.6582135080826 894.1523008854128,566.2714242438087 893.967809763737,567.9602685426362 893.9225462330505,570.8500997235533 894.2081666847225,574.7258538545575 894.2817417674232,575.7251870149048 894.238051100634,575.9880339935189 894.1021440001205,576.8080161936814 893.877224448137,577.3047532449709 893.2024075379595,577.8908429575386 888.3899679859169,580.3282370629022 887.771832433762,580.726153242169 887.2653702259995,581.0523624528432 881.8250666668173,584.6171483070357 879.8476853477769,585.4748939267593 878.1825466596056,585.4748939267593 874.5400849068537,584.436679847422 874.1807728642598,584.3454028852284 872.2454510934185,584.3008071051445 871.1661751184147,584.661744058365 869.2923698062077,586.3929543726845 868.0188160003163,587.9124103779905 867.0284942223225,588.7255548025714 862.3535928889178,593.2394521107199 861.4991782116704,593.9145519833546 860.1496608995367,594.683171736775 858.5282128786203,595.2869660939323 857.8745422509965,595.5253395363688 856.0573017885908,594.2308869222179 852.6833920003846,591.6576117122313 851.9195626385044,591.1653007346904 851.1105280001648,590.5770614504581 850.390447559068,590.080257769092 846.2090759966522,587.0568346742075 844.6799026632216,586.063139392063 843.9921533155721,585.3813713341951 842.8610893369187,584.1872322217096 840.9467973404098,582.8593024468282 840.4968999824487,582.6342374004889 839.2266666668002,582.1407141449163 839.1149933226407,582.0973212911049 835.7298404695466,581.3241899262648 833.8203835734166,580.9632504921174 832.0954177991953,580.1878714713966 830.9626644479576,579.4281319770962 827.3977973191068,576.6675693750149 826.4403309226036,575.9880339935189 825.5676826739218,575.368574743392 824.129152910551,574.9163521475857 819.6305871077348,574.6000046253903 818.1920573441312,574.3303390546935 813.1109493190888,574.3303390546935 811.8973391077016,574.4194522330072 810.093089336995,575.0567192628514 808.7839422007091,575.3552599301329 807.4894751291722,575.1881830560742 800.6106418063864,573.5638527538395 798.9908249033615,573.338863608893 798.7964305635542,573.2921011460712 796.7447751113214,572.7975256633945 791.123242666712,571.5787310278974 790.6815008998383,571.4521590898512 788.0600608999375,570.7008280279115 787.0308835557662,570.4045303941239 785.1877782186493,570.090345618315 784.6926173297688,569.9544688614551 783.5226977851707,569.8631089664996 781.8802782436833,569.6269688240718 779.681181354681,568.8493257981027 778.847796451766,568.9094036791939 777.2426013583317,569.5066528108437 775.9933395627886,570.224056652165 772.1032391111366,572.5746216278058 771.9689631289802,572.5746216278058 770.5222777745221,573.3299602929037 769.5109262221958,573.6285020217765 766.3910630969331,573.7934137631673 765.5383377922699,573.7020545904525 762.0301520216744,573.2965126993367 758.9717471003532,573.1161202421645 757.381057308754,572.9712607994443 755.3761799966451,573.6129412805894 754.5670871040784,574.0629994223127 753.4570528997574,574.8807389989961 751.790341347456,575.2394370815018 750.1607959894463,575.1925945919938 747.2367253052071,575.148078180966 742.1362768784165,574.5525203956058 741.893589788815,574.5241261068732 737.7898711040616,574.8829848730238 736.4225280000828,575.3619975465117 736.2459594528191,575.5304379257141 735.7660029157996,575.9880339935189 735.2332097995095,576.4960012186784 733.5680711111054,578.463376606931 731.0501488640439,584.9424726142315 729.8349657887593,587.7853614515625 729.7912168675102,588.0571851556888 728.7556315595284,592.0296919654356 728.1261946884915,597.1294646374881 727.9012751360424,598.2122460850514 727.2264582256321,599.3418652826222 726.3137893264648,600.3109102734597 726.0160519964993,600.4892072833609 724.1244208926801,601.2823594936635 723.3153280001134,601.687797806575 722.2813738097902,601.9129342267988 720.888107577106,601.959613728337 717.9284435631707,602.2804349212674 716.8183511039242,602.516559183714 715.1338137600105,602.8774825972505 709.5996626489796,604.666616098606 708.161191139603,605.207918516011 706.5704430935439,605.5622631413862 703.7111511039548,605.2992717614397 702.0460706704762,604.9829440332251 700.3858253371436,604.3702589855529 698.5378848996479,603.0423844053876 697.4148600036278,601.687797806575 696.64136044099,600.7878125195857 695.808033792302,600.0725391806336 694.7966239857487,599.8341679704608 693.9083053513896,599.9746080883779 693.591111110989,600.0429432996316 692.6476839820389,600.2463447635528 691.4389671252575,600.6718353263568 689.9534262046218,600.431218654383 688.9819205403328,600.23375248292 687.9275191181805,600.0191222238354 686.1734262327664,599.6581966858357 684.2849991109688,599.5244937574025 682.1036697600503,599.7161052011652 680.1036275487859,600.1549905678257 678.0792933262419,600.199584892136 676.5744120036252,600.3131560300244 673.7167511323933,600.2909390794812 671.9625999927521,600.3822932497133 671.2004600034561,600.5159157363232 669.4980968674645,600.7900582740549 668.0515280214604,601.4650674441364 668.007837354904,601.5540954369353 667.1534226776566,602.0509675843641 665.8491688959766,603.3609591404675 665.1565261941869,603.9536744181532 662.790822229581,605.4374645657372 662.070741788717,605.7515462666051 660.8118097921833,606.1593067821814 659.447612416232,606.6405343301594 658.258294215193,606.8789021992125 656.8100359963719,606.7452012588037 655.6854382362217,606.4288744725054 654.3374937886838,606.292927679373 648.5799959895667,606.0256056437502 647.6366271148436,606.2059858751018 645.0459453440271,607.382105047931 644.3533608959988,607.6965063085081 643.0491071147844,607.7410999401473 641.2966453477275,607.3333407527534 637.518218240235,605.9810118544847 633.9679729209747,604.3145967631135 631.2914244269487,602.1646184949204 631.0454751006328,606.4671320585767 630.9985804518219,607.2887470835121 630.9985804518219,608.5520456463564 630.5486830933951,611.3056898692157 628.5697289102245,615.9998340789462 626.6812435341999,620.422127476777 626.4563239824492,621.1439474186627 626.2314044304658,622.4516418143176 626.220161365578,623.3561584532727 625.4530697669834,628.555853317026 625.5615391288884,629.8057030333439 625.8851413335651,631.2203615719918 626.2103746561334,633.9382684385637 625.7783613440115,635.7337836846709 624.8042342402041,637.2019982258789 623.1811551004648,638.3982525557512 621.3947311216034,638.6700479293941 616.939914240269,638.4516652909806 609.8522977849934,637.961647334625 609.0949928960763,638.070798676461 608.120807537809,638.5608967222506 603.523617337225,640.8977377112024 602.9297155414242,641.0603810406756 601.0899306954816,641.1161192499567 600.0073342297692,641.2252698829398 596.5007213228382,642.6900192816975 596.4926822402049,642.6933876230614 596.2635101298802,642.8247529075015 595.7353773515206,643.1277430312475 595.0847941974644,644.2683251216076 594.3274893085472,647.7814807709074 593.8954759966582,648.6502622948028 592.9763991327491,649.4656307467958 587.9972359966487,652.2925836481154 587.2415622260887,652.8384042055113 585.4033502438106,654.9568814730737 581.5792518258095,659.7729023339925 581.1281311290804,660.3410890802043 580.4241871077102,661.1008623858215 579.2348106524441,661.5908569947351 576.964585358277,661.9717853590846 574.6375621976331,662.1344216306461 571.7151808852796,661.8627195842564 570.8494648886845,661.9182950151153 566.015937308548,663.983402948943 565.2586324196309,663.929912826512 558.4428884196095,659.1448888002196 557.6209213442635,658.7862526903627 556.6564644409809,659.2541155772051 547.9555555556435,666.1823471046519 547.947458219016,666.1887626822572 546.5752800144255,667.638841395732 545.4215551433153,668.2203312066849 542.7013159825001,668.8217886980856 541.9974302153569,669.2026311965892"/></g></g></svg>