<svg width="1200" height="800" version="1.1" xmlns:xlink="http://www.w3.org/1999/xlink" xmlns="http://www.w3.org/2000/svg"><g class="geojson-features"><g class="geojson-feature" stroke="#555555" stroke-opacity="0.0" stroke-width="0.0" fill="#111" fill-opacity="1.0" data-properties="{&amp;quot;N03_002&amp;quot;:&amp;quot;上川総合振興局&amp;quot;,&amp;quot;fill-opacity&amp;quot;:1,&amp;quot;description&amp;quot;:&amp;quot;上川郡鷹栖町&amp;quot;,&amp;quot;N03_001&amp;quot;:&amp;quot;北海道&amp;quot;,&amp;quot;stroke-opacity&amp;quot;:0,&amp;quot;N03_007&amp;quot;:&amp;quot;01452&amp;quot;,&amp;quot;fill&amp;quot;:&amp;quot;#111&amp;quot;,&amp;quot;N03_004&amp;quot;:&amp;quot;鷹栖町&amp;quot;,&amp;quot;title&amp;quot;:&amp;quot;上川郡鷹栖町&amp;quot;,&amp;quot;stroke-width&amp;quot;:0,&amp;quot;N03_003&amp;quot;:&amp;quot;上川郡&amp;quot;}"><title>
      上川郡鷹栖町
    </title><desc>
      上川郡鷹栖町
    </desc><polygon points="657.5051367537817,567.8189929000218 641.9826584461844,577.7708818740794 641.1962264461908,577.6318250732147 641.0926795663545,577.6127673406154 640.353957774234,577.4819472703966 640.1484368781094,577.4456083493424 634.6992495503509,580.9683586244355 629.7009499024134,584.1994257023325 629.3259674737928,584.4417994090472 623.8267688960768,587.9960205222014 623.8987711148802,588.2483629795024 629.0032973369816,592.6558750382974 629.329375345842,593.7729008379392 629.6157531023491,594.7508745372179 631.6999726650538,596.5923111679731 632.3472644551657,597.5321207394009 634.5770904461388,599.5911459966446 632.5963595093926,601.4651263009873 631.2477160106646,602.7415417103912 629.6513464321615,604.2519471130217 626.7795880390331,601.4651263009873 626.4109844481573,601.1073848002125 624.1083115519723,598.8733960130485 623.3226951112738,598.3642920458224 622.2093986703549,598.0031142255757 621.7061404444976,598.0390463154181 620.8072486686287,598.29246833059 619.8428208924597,599.0147014437825 617.4147557831602,601.347359520907 617.3977455503773,601.363064453064 617.3888326542219,601.3597135292948 617.218147783191,601.2913223766373 614.3054366721772,598.29246833059 614.0281465742737,598.2534679231467 613.6705530312611,598.4454419175745 612.3911446756683,599.6185188022209 611.0238015716895,600.9354377596173 610.4426865777932,601.4651263009873 610.4266666667536,601.4797007938614 608.3880019058706,603.3378808664856 602.0105626739096,609.792710684007 601.2783362276386,610.5330763033126 599.2920128854457,612.5370056009269 595.8323528817855,616.0593640891602 594.5968973368872,617.2480187721667 593.3096246613422,618.4860397496377 589.7707097885432,622.0284554875689 588.0335980089149,623.7082488143351 586.7147806721041,625.103230140172 586.5359693368664,625.2734240912832 586.1540837831562,625.6369427898899 584.7300884480355,626.9926749864826 581.4783668908058,630.45762120164 580.4807342081331,631.380465464259 580.3035539912526,631.5553779827314 577.1319611165673,634.6793192133191 576.69811279641,635.1065631066449 576.6707624392584,635.1334878428606 575.1828622221947,636.5115701396135 572.1002526720986,639.6601512298221 570.5071453298442,641.127900726744 569.8978935467312,640.6704333801754 569.3064675556961,640.2241465659463 569.1236366792582,640.2241465659463 568.0062624427956,641.2781829807209 564.9912860444747,644.5024675834575 563.548183324514,646.045751058613 561.8814717725618,647.9901296639 555.933104014257,654.9292577524902 553.4281724587781,657.4183472559671 551.7080417848192,659.1259461973677 551.6974977707723,659.2840072661056 551.9442917830311,659.8031540005468 551.9329613369191,659.9275520802476 550.8633555627894,660.8884665562073 546.7653166648233,664.8977719569812 546.5857188978698,666.2341922732885 546.4069075627485,667.1378489264171 545.5508035130333,668.3126096200431 545.3275733334012,668.6188714479213 545.2651248071343,668.7433457010775 545.2555711147143,668.7623962298385 545.2919800037052,668.871129514242 546.262903125491,669.3767749681138 546.4425008926773,669.7018840928213 546.4069075627485,669.8465383406729 546.322759338771,670.0931849344634 546.011244885507,671.0013071842259 545.7232360108756,673.1684362987871 545.6512046648422,673.3489286111435 541.3371591111645,677.3580671529053 541.265156892594,677.4309166686726 541.265156892594,677.6472856548498 544.4658768783556,680.7157410209184 546.7014117831131,682.9927204981796 546.874572458677,683.169815309986 547.1447846684605,683.4411075201933 547.3422082276084,683.6395114485058 547.4133948872332,683.7482783822925 547.0614520036615,684.2337132865796 546.7313544534845,684.6866585247917 543.123612217023,688.3412654682761 542.5604977776529,688.9130167191615 539.4325664427597,692.0553038134822 537.8864120036596,693.6427161027095 537.608888888848,693.9653307257104 536.0530351218767,695.7737645482412 533.7875575466314,698.0124650346115 531.6993475699564,700.4999798045028 530.7405704534613,701.3227560174419 530.1572126720566,701.9852768866695 529.9045349832159,702.3753953773994 529.7817933370825,702.5648651316878 528.7866364587098,703.2486499453662 528.0187875556294,703.7766609237879 525.2743728925707,707.4007527648355 524.4401724302443,708.4992488165153 524.2783713281387,708.7134107750608 523.2265622187406,709.8780417260132 522.8406571235973,710.3443767832941 521.7896053191507,712.0056376525317 520.8527026630472,713.2857454057084 519.1236882205121,715.1476238122559 517.9408071110956,716.2113806974958 515.8849282275187,717.9252618936589 513.4495522133075,719.8050210957881 513.3363060053671,719.867809957359 511.48673444986343,720.8934532041894 510.697855772567,721.1411774544395 507.1904855609173,721.6276265976485 504.9978548907675,721.9167920023901 504.1539551005699,721.8573932760628 502.9484130986966,721.7722496957867 501.7971349048894,721.4113374274457 499.640097564552,720.8340138731874 497.84310044453014,720.4002636882942 497.03319199290127,720.102057461685 496.6804626772646,719.9070328111993 495.9369057849981,719.4990260435734 494.0776057743933,718.6975778454798 493.52823933167383,718.5597321992973 492.37774756981526,718.4509809679003 491.7304266525898,718.5597321992973 491.1220195555361,718.7558474683319 490.0758611058118,719.3903155887383 489.0636939946562,720.0583958425559 488.9261557761347,720.1491490513436 487.99167067033704,721.2678439828451 487.7254780017538,721.7957348000491 487.718196224072,721.8327783104614 487.63567911821883,722.2351721544401 487.6680102116661,722.7843668404967 488.14700555370655,724.627125792962 488.23360045521986,724.9611992486753 488.31530200177804,725.2750156244729 488.4722388765076,725.7200151805882 488.60334000363946,726.0910492751864 488.7748404337326,726.5774480815162 488.79831688536797,726.6447142070974 488.90594156086445,726.950740543427 489.0636939946562,727.3973107145284 489.2449228800833,727.9101773979492 489.39784021349624,728.3451246138429 489.5378251094371,728.7418987672427 490.86797289259266,731.9901523979497 491.7838457743637,734.2676968362648 492.48129444988444,736.0027545230696 493.27742577774916,737.9832470899564 495.0388004409615,742.6043735101703 495.25806933350395,743.293693628686 495.48945510410704,744.0188414183212 495.61406088538934,744.4100216737716 495.68446111283265,744.8033801168203 496.0461324516218,746.8286676379503 496.1423975537764,748.2789397786255 496.161009777803,748.5568968502339 496.19013688899577,748.9951153537259 496.08172578155063,749.391895880748 495.50725176895503,749.6451588470954 495.43609423644375,749.6507671845029 493.016068209894,749.8334617277142 492.63741576543543,749.8614630434895 489.0636939946562,750.0245484518819 488.68180844094604,750.0418979569222 485.7205424355343,750.1170253340388 483.9171082242392,750.1629409806337 481.8062082276447,750.2156350245932 477.24941732990555,750.3310696396511 471.4612195554655,750.5485029537813 466.28305999643635,750.7659764193231 464.79111111117527,750.8657155756955 463.04753311292734,750.9822392628412 460.2496993280947,751.4877125559142 457.4809926543385,752.4269185006851 455.1807955626864,753.9074172566761 453.8279868871905,754.7737876472529 453.49057843210176,754.9900468970882 452.37567999993917,755.8922412759275 451.72841733694077,755.9651074159192 451.2615971270716,755.2063462998485 451.1078351075994,754.8522219946608 450.8133600142319,754.1730620085145 450.3902013441548,753.1957348036813 449.59736137953587,751.3675578414113 448.6004860016983,749.069113317295 448.09722777607385,747.8777191352565 448.0252255573869,747.3004992876085 448.1692299947608,746.6863190678414 448.5648926720023,746.0721372838016 450.21864265971817,744.2306316116592 451.4047568781534,742.4261925736791 451.9436375608202,740.8727526547154 452.12323532800656,739.8987608962343 452.1378280107165,739.0099430775736 452.0512331093196,737.0484637267655 451.98878458316904,736.0027545230696 451.8368284443859,733.4572995690396 451.7276309049921,730.7650615310413 451.8481588907307,727.084102373512 451.77857422234956,725.6056986337062 451.5698202169733,724.5117192251491 449.87724379019346,720.6759931501001 449.78496910235845,720.1278428320657 449.7501913316082,719.5730330586666 449.7615217778366,719.441846125992 449.81977599998936,718.754757939605 449.96619798778556,718.0564092983259 450.25342043023556,716.1059777361224 450.06249221693724,714.5916726787691 449.78581378865056,712.6389532700414 449.7232487539295,712.2337589851231 449.34322733513545,709.7614981752122 449.38933555211406,708.0262516627554 449.70248112350237,705.8078620502492 449.98079067037906,704.0725870846654 450.218992184964,702.3753953773994 450.2356528925011,702.2565882822382 450.2825475415448,701.452822845662 450.2356528925011,700.6614036502433 450.03741377429105,699.424934591807 449.33189688890707,696.6740012464579 449.06651977961883,695.163932686206 448.9225153423613,692.4555680592894 448.6943335538963,691.1439515462844 448.53171689249575,690.689888425637 448.2185713208746,690.456742359791 447.9062995626591,690.3401087058592 446.8277808924904,690.3401087058592 446.51303332985844,690.2526939647505 446.3293868942419,690.0722143070307 446.1352255715756,689.6585473187733 445.85685777070466,688.6933081331663 445.6829397904221,688.1103771819035 445.0801542259287,686.8536646273569 444.67965644795913,686.2808188173221 444.49519445339683,686.0868564851698 444.0720357832033,685.6417837774497 443.92476910934784,685.4152919825865 443.70066511654295,685.0364060881548 443.3996946774423,684.3380001386977 443.3130997760454,683.7180496550864 443.277506446233,682.3816858961363 442.9360784498276,679.0811843738193 442.4028775538318,675.0294944388443 442.0201764408266,672.4845661688014 441.9655922347447,672.0282884244807 441.9392904533306,671.8085240899818 441.9109497743193,671.1863215376507 441.9271153208101,670.318561015476 441.995913557359,669.7938670914737 442.1973857850535,669.235510779894 442.4157517370768,668.7433457010775 442.51778400712647,668.5134880400728 443.00481843203306,667.559384687047 443.2136015644064,666.9068999714218 443.3527709014015,666.2207518231007 443.34059576888103,665.5446518168901 443.2362624569796,664.7934766951366 443.1205404443899,664.1409844931914 442.9465642098803,663.6398486176622 442.3672842241358,662.4065397502272 441.995913557359,661.823545235733 441.2887946809642,661.1597434784053 440.51852822769433,660.2414127511438 440.2337233352009,659.9018006335828 439.71671711304225,659.3422912503011 439.28546110598836,658.7637696138117 439.1447189049795,658.0170536653604 439.1770499983104,657.4284380524768 439.60827687813435,655.6950751904515 439.7523104426218,654.178049552138 439.5371193458559,652.4435331255663 439.4998657706892,652.3180009907228 439.130126222386,651.0588414429221 438.60178955388255,649.2648455941235 438.0621224392671,645.6903361679288 437.3436731165275,641.3555240127607 436.9480104391696,638.934689499787 436.37274999474175,636.5149609413347 435.9108522667084,635.1065631066449 435.4374493297655,633.6634412834537 434.17930376529694,628.6421980827581 433.676074666786,625.679571931716 433.46003888349514,623.0432924943743 433.423629994737,620.948579283373 433.53204110229854,618.6722247653524 433.90504288708325,616.8420989437145 434.4309620052809,614.2651480982895 435.1494113280205,608.0894856739324 435.1850046578329,605.5965358540998 435.1850046578329,602.0213383887894 435.10880813514814,601.4651263009873 434.8977822151501,599.9253523974912 434.35814422764815,597.8304382531787 433.38725023309235,596.0955162869068 432.48835845687427,595.120939428336 431.3013995520305,594.6151381779928 429.57643377780914,593.9276537419064 429.3612135538133,593.6394652383751 429.25277331925463,593.1336608785787 429.5044315592386,591.5433255997486 430.1508786631748,589.5571884103119 431.15821067395154,586.9922601732542 432.40744334226474,584.606732901535 432.5959540052572,584.2456152132363 433.71006600523833,582.4051340073347 434.42933088715654,581.178192562249 436.0111077831825,578.9731707333704 438.05970488884486,576.6975502540008 439.85830399999395,574.926580987114 440.51852822769433,573.9968582986039 440.5767824497307,573.914892650093 441.00800932978746,571.9644250104902 441.2232295537833,570.3392251399928 441.7628966686316,568.8934542736388 442.26615489425603,568.026455976651 442.43113085161895,567.8189929000218 442.84138621157035,567.3030397720286 443.7767160036601,566.6166080096737 445.3220840106951,565.8213945573079 447.1198675626656,565.1349585741409 448.81002643925603,564.4843769716681 449.9540811093757,564.218563488801 449.9953250987455,564.0514355845517 449.27606021694373,562.3891950867837 448.84483333700337,560.8727126525482 448.62719556258526,558.1594063483644 448.6328462223755,556.0226586534991 448.46696732449345,555.1892508470919 448.1951239963528,554.0585994743742 448.11179133155383,552.6015050737769 448.06081888708286,552.2761975717731 447.9928653369425,551.839882636792 447.40709000534844,549.7725749881938 447.2736004551407,548.5544320505578 447.3027275662171,547.9644183515338 447.5082193352282,547.1982988937525 447.8892893297598,544.4433257923229 447.97748622240033,543.9273629900999 448.5940197831951,542.1752133938717 448.79954067920335,541.217258002318 448.815706225927,540.5756171734538 448.77446223655716,539.5346685047843 448.59969956974965,538.388194250525 446.41813720192295,534.1681204970228 445.664298439282,532.7098558176658 445.2905393494293,532.0435175929451 444.7516586666461,531.6272773800301 443.57929244439583,531.169602121634 440.51852822769433,530.4107388468692 440.05491200007964,530.2957238648087 436.8622602241812,530.0041073319153 435.8662586596329,529.8369153091335 435.1202842169441,529.5463886053767 434.41479645867366,529.1716999094351 433.087852657889,528.2136928142281 432.8993419947801,528.0252571114688 430.7237215574132,525.8489069485222 429.5575011555338,524.0925873211236 429.23095711308997,523.6008123002248 429.0651073423214,522.935579681769 429.0052220019279,522.587777632405 428.89922844443936,521.9775074027712 429.2657348837238,519.447763109114 431.05463466676883,510.90590879204683 431.05463466676883,510.2406411182601 430.9308735715458,509.7817943675327 430.47453912184574,509.36672733037267 429.68647600361146,509.20065184967825 429.3959913244471,509.0346166425152 428.1103788942564,508.07648907986004 427.52943866327405,507.5772499185987 426.6588875663001,507.20256744121434 424.04714689427055,506.86936328280717 420.190222222358,506.86936328280717 417.2556657778332,506.830065355869 417.12214710051194,506.82784399285447 416.24591621698346,506.6780836933758 415.1722617741907,506.4946393161663 413.67949732975103,506.1614341784152 410.36145334050525,504.913869661279 408.6599057636922,503.8222403600812 407.292562659597,502.8327097473666 407.1687724373769,502.33345971861854 407.37589532439597,500.58435991808074 407.38708013517316,500.5125878290273 407.66638000367675,498.71185667603277 407.91477600717917,497.5888162677875 408.45444312202744,495.25741532392567 408.4123544463655,494.5079306811094 408.20523155934643,493.6754813810112 407.5312593351118,492.1832048042561 407.28207689954434,491.68284214817686 407.2399882241152,490.8503023030353 408.5256297814194,487.18817529821536 408.898602439207,485.56462501519127 409.1890871183714,483.7324377007317 409.14781400188804,482.98291719798 408.9819351041224,482.0673405675334 408.3597800107673,480.4437961615622 407.8557062258478,479.67519994446775 407.4058671219973,478.987387459958 404.7512222151272,476.1149776029051 404.5028553387383,475.4900075145997 404.41952267393935,474.8661668304703 404.2948877654271,473.15948331193067 404.1282515627099,472.409929908521 402.4696082205046,467.70622304588323 402.55294088530354,467.4975425003795 403.78519244806375,466.85235249233665 405.41389312024694,465.9995695836842 407.5700857741758,465.20846743445145 409.8921864533331,464.5834690462216 411.72798088530544,464.2984382189461 412.2668324409751,464.2154253508779 412.6819229014218,464.0481876611011 415.3858508800622,462.45594977244036 415.9991513316054,462.09573963464936 416.24591621698346,461.975804121932 416.77020421694033,461.72098640492186 417.57848155032843,461.3293470450444 420.88845732982736,459.5126491555129 421.348054016009,459.2602122197859 422.50501199648716,458.7170416894369 423.2857642098097,458.2637523000012 423.5115284480853,457.93270225141896 423.58757933508605,457.55341811612016 423.7364771271823,455.80734606203623 424.00182510947343,454.6818837522296 424.74779955204576,451.10105267341714 425.4945895537967,448.1026716530905 426.1572313315701,446.31168867694214 427.56744954327587,443.39844965102384 428.0650571094593,442.69037437514635 428.60390866501257,442.1909996718168 429.6411542186979,441.35828873800347 431.83783355739433,439.5672152059851 432.25286576349754,438.98481246153824 432.5012617671164,438.3182149170316 433.2096622365061,433.1873720596777 433.45438822417054,431.41421623236965 433.7035706596216,430.12250990833854 434.25538377964403,428.5435014270479 434.53290689422283,427.7489632947254 435.9010655573802,422.6683580130921 435.9539895183407,422.2960079846671 436.14946156099904,420.919851262006 436.1081884443993,420.1297323012259 435.9836117903469,419.4215482028667 435.32015445339493,416.964786149736 435.1955486719962,416.2981276495266 435.1955486719962,415.79869821463944 435.5272773405304,414.7998766413075 436.27325178321917,412.88399912812747 436.977953109541,409.8851018329733 437.1438028799603,408.34523424704093 437.06131490145344,407.38783738936763 436.854162887088,406.5135503243655 436.4391015538713,405.88839959027246 435.2780657778494,405.2643785859691 432.6655386739876,404.43040859594475 430.75852845516056,404.1397305864375 428.76734088535886,404.145346970472 426.19605777063407,404.60439501545625 425.39992644265294,404.60439501545625 424.99456443742383,404.60439501545625 423.0034059948521,404.2295119049377 421.6352473315783,403.7704227397335 420.7225784321781,403.10599043482216 420.14166732796,402.8141794621479 417.1561675663106,402.31476246588863 416.24591621698346,402.1762508372194 414.41982111299876,401.8982980022556 412.4707222187426,401.06548813247355 411.72393221687526,400.60643334069755 411.1430211130064,399.7320812464459 411.0333866667934,399.5177252991125 410.35495799488854,398.19105775101343 409.9819853368681,397.52547866123496 409.18582488188986,396.20437629846856 407.89776577427983,394.77780388569226 407.56603710586205,394.15262268157676 407.52479311660863,393.3197456136695 407.4827044409467,392.2781199279125 407.4001873350935,391.44531719147926 406.94388201239053,389.86266079189954 405.989939996507,386.3235372332274 404.70429843920283,382.61710781016154 404.72130867210217,382.39267471205676 404.742251065094,382.11987143341685 404.95269444270525,379.41020810150076 405.0764846649254,378.32698078942485 405.0764846649254,374.50259093625937 405.2188871112885,373.46763244154863 405.2423344355775,373.29479543463094 405.82330379390623,370.67143206397304 405.947880448075,369.8800570896128 405.86454778315965,369.0886391023523 405.30950155388564,367.8538214052678 404.7771453440655,367.140997820301 403.2275830329163,365.8433697868022 401.1370428870432,364.0910152802244 400.4736146774376,363.3826663396321 400.09979733335786,362.46667528222315 399.22924623661675,360.1754700008314 398.9800055468222,359.1764176535653 398.77291178668384,357.05245277669746 398.56575977243483,355.8030243915273 398.3578504533507,354.8869640804478 397.3213913314976,351.17891904490534 396.9896626631962,350.4289858476841 396.53659044974484,349.67125026124995 395.99450578494,348.7630475293845 395.7865673386259,348.13996965269325 395.704021105892,347.4315737762372 395.704021105892,346.6468717569951 395.7865673386259,345.8127391123562 395.62068844097666,344.8135463267681 394.2525297778193,340.7730841343291 393.75495133863296,339.6897233761265 393.25734377244953,338.89933779725106 391.9733333332697,337.4928362807259 391.4320351005299,336.89983984536957 389.4004482276505,333.8999555145274 388.77826400718186,332.85924481926486 388.46374946145806,332.164263075334 388.3632026738487,331.94196549622575 387.4092897849623,328.9027732395916 387.0363171271747,328.23587085015606 386.5799826774746,327.4443563618115 384.5143753386801,323.92901114100823 383.4342546775006,322.32909635809483 381.10568777960725,319.3223207301344 381.0223259876948,318.7800470174989 381.03123888361733,318.6363135596621 381.188204885344,316.1976012517116 381.602450659615,310.03902927140007 381.809602673864,308.33125786326127 382.1000290986849,307.3307776642032 382.48357489774935,306.3202282128623 384.8364046792267,301.33144719473785 386.14202743477654,298.4804839636199 386.49580532626715,297.70795151626226 388.3607851235429,294.95800531154964 390.1440051201498,292.5000131886918 390.3931875557173,291.87452588096494 390.52909465599805,291.33219032333 390.3511280071689,290.3518518311903 389.89234688004944,289.52653882390587 389.6464266810799,289.0829965932062 388.23615021514706,285.6030293457443 388.0290564552415,285.09095845307456 387.73857177596074,284.1320202065981 387.4481162240263,281.29880248598056 387.4901757724583,280.6317681791843 388.4570502258139,278.92936696863035 389.10675956646446,277.4650279037887 389.93606667395215,275.9658721451415 390.55822176707443,275.08993524377 391.8026193351252,273.46499451593263 391.9733333332697,273.0959712683689 392.0914728959324,272.84054928063415 392.4232015644666,271.59068367962027 392.5890513351187,269.7579588710796 392.67238400003407,269.1324528803234 392.921566435718,268.3822640013532 393.66757000540383,266.67419696965953 393.8755084514851,265.9240004270687 393.9141601281008,264.7919900077395 393.9167524409713,264.71557911270065 393.5850237724371,263.13212967285654 393.3374724552268,262.2258643851965 391.9733333332697,259.08924481936265 391.7993570987601,258.6893918191781 391.1796195557108,257.5977776169311 390.01776822051033,255.972678337479 389.8519184498582,255.59752324636793 389.7693722168915,255.05510592792416 389.6852531201439,252.72248728387058 389.6561260089511,252.46081727923593 389.6027068871772,251.97224724455737 389.4781011058949,251.2220452973852 389.1051284481073,250.1393325807294 388.3073660020018,248.33567658253014 386.90684711840004,246.05571637657704 384.52084155753255,241.70816579420352 384.0450793245109,240.63887448899914 383.796712448122,239.97172746487195 383.67210666672327,239.1799630629248 383.7133506559767,238.09719615912763 384.0066024106927,231.0987387401401 384.0450793245109,230.17997972975718 384.1696851057932,229.4712365558953 384.8323560107965,227.59553168772254 384.9982057813322,227.01253498648293 385.37199399841484,225.17833841283573 385.7037226667162,224.72460905031767 386.32509132812265,224.24831562821055 388.31627889780793,223.3026000771206 389.06303977244534,222.84433833532967 389.77910067210905,222.40738557861187 390.7014397723833,221.46388678863877 391.9531191183487,220.38556904369034 391.9733333332697,220.3685048398329 393.25734377244953,219.28367187897675 394.5163048959803,218.20421213004738 395.5405888854293,217.24719088996062 396.687876664917,216.25761390378466 397.4573275592411,215.4208051476162 397.7874251094181,214.92091829242418 398.03905422228854,214.39304764475673 398.2680515698157,214.07173099333886 399.7777679930441,213.10688883409603 402.4768899983028,211.27032171480823 402.84665867395233,210.82999157416634 403.084510663175,210.34137743501924 403.3232073386898,209.5247268259991 404.44460111658555,205.4056032312801 405.39123222767375,201.6514985410613 405.56517933506984,200.766353864572 406.0795932445908,197.4008089902345 406.27395845693536,196.12919882277492 406.5716957867844,194.36100894137053 406.8459566649981,193.02872106485302 406.88318111305125,192.93659622350242 407.0522639930714,192.52320679585682 407.38483734766487,192.2120521250763 407.9916133261286,191.90761030558497 408.67691599647515,191.69638536823913 410.9868706703419,191.14480553159956 412.65521334053483,190.79878852987895 413.34858422051184,190.60224288637983 413.84700734587386,190.3303949231631 414.37045065965503,189.91922530619195 415.1941071077017,188.95424583397107 415.6747044409858,188.38017402531113 416.08653266495094,188.10496687114937 416.24591621698346,188.03564939869102 416.4247275519883,187.9577986545628 416.88671266147867,187.8285865848884 417.3446782294195,187.7600778725464 418.9223773297854,187.75109975173837 420.1141713351244,187.94659623369807 420.05996578140184,186.31540495535592 419.99524534051307,185.2065978452447 419.35768200526945,183.32941543112975 418.46525644813664,181.60606366296997 417.5728308906546,180.18266738485545 417.00080355559476,179.05700753227575 416.36082267039455,177.44941554841353 416.24591621698346,177.31481881637592 415.9263335537398,176.94047125976067 415.28553710947745,176.43945289665135 414.6674015575554,175.75077338522533 414.5072024463443,175.5608887122944 414.3332553387154,175.10480088886106 414.25557333335746,174.7408036015113 414.24505844630767,174.07347381091677 414.4610942294821,172.36578866821947 414.5824377742829,171.25242788699688 414.59376822051127,170.12110439507524 414.5880884338403,170.07390513340943 414.40930622583255,168.46847759996308 414.2086495575495,165.5687394804554 414.1633568996331,164.97107239475008 414.23212600895204,164.6957980110892 414.5063868870493,164.30484798521502 415.13725098676514,163.69815829425352 416.15369978314266,162.72069709165953 416.24591621698346,162.62123987817904 417.0922335574869,161.70954009721754 417.4700704427669,161.27923083736096 417.81636266678106,160.80062767048366 418.1440717938822,160.1253721107496 418.69340910948813,158.8614115655073 418.85282178851776,157.94350914255483 419.05912911647465,156.83121412352193 419.33338999492116,155.79754363937536 419.88520311482716,154.15383824997116 419.8366482205456,153.8235021851724 418.4272164410213,152.80555299384287 417.8964622223284,152.37073808314744 417.61730798950884,152.03146056330297 417.4344771130709,151.71006060182117 417.0914179983083,151.22808119887486 416.81634156091604,150.7460603818181 416.42714510229416,150.40111781290034 416.24591621698346,150.24802107567666 415.70788022049237,149.79330094496254 415.4263375644805,149.5101621975773 415.2151368819177,149.1146572578582 415.0549668978201,148.4483889262774 415.0088295539608,147.96640298713464 415.42065777780954,146.15178764320444 415.48054311820306,145.8226136097801 415.4894268871285,145.37201092171017 415.39799688523635,144.68328290170757 415.1876408888493,143.81022517872043 414.87129133509006,141.9956189264194 414.3680331094656,139.528175784857 414.20218333869707,138.85852352890652 414.0500524373492,138.54386115743546 415.39799688523635,136.84049465111457 416.24591621698346,135.71976918180007 416.77020421694033,135.02692798443604 417.82282888528425,133.6032964810147 418.16588800004683,132.47737816243898 418.45879022951704,131.92901997285662 418.8010337849846,131.45149103819858 419.56157178315334,130.91554913343862 420.3390908871079,130.52450374304317 420.5882733226754,130.31998031889088 420.7512686365517,129.99074416432995 420.79300778673496,129.9064428083948 421.528438215144,127.72204036527546 421.94029556633905,126.16018045361852 422.2380328960717,125.47135696164332 422.6676286578877,124.76230520819081 424.2016662186943,122.62955489923479 424.3359713279642,122.44298587949015 424.5940666596871,121.877776335401 424.9136784498114,121.25864139595069 425.8797082169913,119.92032551468583 428.0715233279625,117.30766938015586 429.0327179947635,116.1592227833462 429.3571648852667,115.85019428149099 429.75766266323626,115.54565579089103 430.39604155742563,115.350140905648 433.1251062330557,114.85012694442412 433.94876268098596,114.597247319296 435.8476755627198,113.67804321734002 436.602533774334,113.2881025231327 437.15190021693707,112.89702846837463 438.3639084374299,111.40133728465298 438.9812575574033,110.81360885110917 440.51852822769433,109.68665336212143 440.6520177779021,109.58875196462031 442.20790067198686,108.39418988506077 443.0501693440601,107.75479251088109 445.31882177433,110.10791210236493 446.8746755415341,112.08348559698788 447.7897911183536,113.10269943770254 448.70484844082966,113.79155835823622 449.3804517831886,114.10952992172679 449.39096667047124,114.11406081105815 450.21459399117157,114.25112017715583 451.0503964443924,114.25006836419925 453.293183999951,114.2062158480403 456.2067106703762,113.92975063144695 457.94545356801245,113.60838065616554 458.4025744497776,113.53985079971608 458.73672066861764,113.55332213669317 458.9980782364728,113.65445827582153 459.8904746668413,114.20508312608581 460.9196228835499,114.78042426833417 461.674510222394,114.94110852660378 463.61956044798717,115.12315249600215 464.79111111117527,115.25430497690104 464.855045119999,115.26138445804827 466.84538800350856,115.58279267844046 468.2645191111369,115.89064835594036 468.7742435554974,115.88057529192884 469.19658666674513,115.79291130049387 471.69586756266654,114.80178411543602 472.1279100017855,114.68377902719658 472.58584644272923,114.64109976432519 473.63765555189457,114.66355188930174 475.0333393352339,114.80178411543602 476.8392202241812,115.14111416018568 477.2753113316139,115.12315249600215 477.7098004480358,114.91643144452246 478.0309851022903,114.5321159059531 478.32793599995784,113.69940316257998 479.1742242134642,111.88452924363082 479.3134226774564,111.63735062506748 479.70582311821636,110.94172956474358 481.14111977256835,108.75942034594482 481.3927780125523,108.1626639078604 481.9421444552718,106.75238553714007 482.17516134423204,105.6657049866626 482.3313117866637,104.59362413157942 482.4914817707613,103.12373282638146 482.6290199892828,101.53804610233055 482.76580090331845,100.8491520792013 482.90333912172355,100.1366698149941 483.35967357165646,99.10275562142488 484.16064000001643,97.79352646839106 485.3588128427509,96.27864546101773 485.3960955449147,96.23143170500407 485.854061112972,95.81787602731492 486.4260884480318,94.39397192990873 487.11217755032703,92.11938951991033 487.16236356273293,91.34615363768535 487.0434375680052,89.71430704696104 486.78371111815795,88.49609928071732 486.5774037903175,87.74534684419632 486.04662044451106,86.18994346639374 484.7294342259411,83.07684078882448 483.47291977971327,80.45589460770134 482.99313800537493,79.63548512250418 482.4898797797505,78.80042620579479 482.4672188871773,78.76332409743918 482.248765553697,78.28119846904883 482.1007124480093,77.73049135075416 481.9866215537768,76.92577128991252 482.00928244623356,76.16709287883714 482.19458912708797,74.24184108816553 482.3571766614914,73.57872355816653 483.1047822224209,71.16338068322511 483.7027035590727,70.20694756129524 483.97696443728637,69.88551914476557 484.38797710230574,69.63259222725173 484.98266532982234,69.49550742621068 485.60648066853173,69.37974596751155 486.1954891093774,69.40329479036154 486.69874733523466,69.33479279605672 487.17934466851875,69.19653442938579 488.6437975609442,68.46146146766841 489.0636939946562,68.12607129075332 490.65761689608917,66.85313001234317 493.81141310581006,64.53211909835227 495.73380243917927,62.57978529081447 495.74670574930497,62.56181969988393 497.15133155556396,60.60380502056796 497.69664932985324,59.36635094182566 497.8050895645283,59.13817669497803 498.0210962204728,59.08755670062965 498.2492488818243,59.04150908649899 498.93618267029524,59.17973282956518 501.7000251164427,59.95420514186844 504.03744665603153,60.68254673288902 505.9137568997685,61.269264743081294 507.3320724481018,61.75142448587576 507.8312820054125,61.83793475048151 509.46240022743586,62.05489814851899 509.917103559128,62.07739564741496 510.9575822222978,61.92448544682702 511.56520288717,61.797471580968704 512.0919084374327,61.70533691882156 512.6178275556304,61.75142448587576 513.3363060053671,62.07387535535963 514.4233589192154,62.56181969988393 515.6429984427523,63.109203138097655 517.4627147093415,63.63376427581534 517.4950166755589,63.643070734338835 517.9505064391997,63.69704818649916 518.3801604552427,63.70376502000727 518.7466377672972,63.7723090815125 519.5015251059085,64.18591988034314 520.0193760143593,64.622027228761 520.4740502187051,65.23123282927554 521.7961297919974,67.38472341035958 522.3843226737808,68.04676554654725 522.8648908800678,68.3895603918354 523.4603946666466,68.66603751189541 524.1918055538554,68.75703657051781 524.9329157690518,68.79749856860144 525.564857571735,68.84924945433158 526.1603031039704,68.96387823327677 526.7420588942477,69.16841338807717 527.4637413263554,69.56182443385478 528.1271986630745,70.22831136832247 528.9840308908606,71.6073653724743 529.3052446719958,72.47279530571541 529.5908359965542,72.9021710465895 529.8885733264033,73.14599074056605 530.3546071039746,73.42250285233604 531.0342591146473,73.64168116159271 531.6677446542308,73.6877664407948 532.1669833387714,73.73494416230824 532.4461084445938,73.76079884468345 533.4785188977839,73.90354577283142 534.8515126614366,74.27109444630332 537.2448291272158,74.96787358477013 537.608888888848,75.18304485431872 538.0360962275881,75.43543994153151 538.8322275555693,76.15475234837504 539.9536504604621,77.23480935924454 540.2740486827679,77.41914766747504 540.8913395485142,77.64843746006954 541.3258286648197,77.67089303949615 542.721512448159,77.32697853102582 544.8720544427633,76.31546241993783 548.0979111255147,74.11034254718106 550.7864599893801,71.72652452473994 552.8569606827805,69.85966404573992 555.4621768819634,67.40042275603628 556.4687224605586,66.50466824346222 556.9258433422074,66.09106143336976 557.5666397867026,65.19522111717379 557.9525740090758,64.7063514754991 558.0933453369653,64.29945838853018 558.4946586738806,63.48797653365182 558.7867162170587,63.1069372126949 558.8959720109124,63.00691277353326 559.1686308978824,62.7596434414736 559.5150687573478,62.56181969988393 560.0642604375025,62.24819044023752 561.2730646756245,61.68170641583856 561.8814717725618,61.459158755315 562.3483211094281,61.28836340201087 565.5053795556305,60.66903197008651 566.5353433316341,60.25541512068594 567.2792206222657,60.00620071182493 567.2902015431318,60.00247807218693 568.6017662293743,59.7754374074284 572.4602928925306,59.289874759851955 576.1189784464659,58.691943475510925 581.1304726756644,57.490371036401484 582.0212671147892,57.3048844577861 582.4330953386379,57.21274807408918 583.5091673315037,56.97898775356589 583.943656448042,56.98230580013478 585.5019568925491,57.32738240121398 586.1540837831562,57.356152250256855 587.0546066774987,57.39596874458948 589.0772806542227,57.44650816725334 589.685746005387,57.53310090856394 590.4244386702776,57.62078614329221 590.5134219948668,57.630861648125574 591.000514673884,57.674724483687896 591.3039026631741,57.66347552835941 591.5425993386889,57.50048701057676 591.7594506810419,57.272310992877465 591.9543984357733,56.91266727511538 592.3395170987351,55.41998633259209 592.7966671076138,53.44394721527351 592.8880971093895,52.98422869655769 593.7805517938687,52.847093937860336 595.1381955698598,52.50540994392941 595.3792806685669,52.478419963037595 595.6907659948338,52.537984054826666 596.478042681003,52.86959229846252 597.0129038221203,53.164984247414395 597.1964920037426,53.2663481135387 597.5986208996037,53.350676343077794 598.8802137884777,53.649628580897115 601.5348004408879,54.70623643521685 603.6618951112032,55.372764552768786 605.2630706632044,55.71784346399363 605.7436679964885,55.76393217872828 606.2016044373158,55.74030109163141 606.7048626631731,55.57957726647146 607.4597500017844,55.0974051458179 608.2372982329689,54.1318440696341 609.2211246649968,53.55749079637462 610.4266666667536,53.05560833925847 610.8223293441115,52.890957646188326 611.719590001856,52.59079052321613 613.2479477759916,52.31656094355276 614.3725746632554,52.15583482931834 615.196231111302,51.76466133253416 615.4640257706633,51.48929779295577 617.3856286722003,49.835855512239505 617.6485591040691,49.48627651587594 618.095194225898,48.89277203666279 618.7813124550739,48.08908848086139 619.1922959930962,47.64056868146872 619.4900624497095,47.42254016926745 619.9293866667431,47.293252567294985 620.4051488996483,47.23817886027973 622.4189391076798,47.42254016926745 625.2790757832117,47.97444974834798 626.3535166578367,48.15767745953053 629.6368120036786,47.43374913808657 630.5146740053315,47.293252567294985 632.0956062151818,47.12799094291404 633.0568008818664,46.84699736174662 634.4136582259089,46.420974209322594 634.6992495503509,46.37929447198985 635.1134953243891,46.31867674406385 636.143488227739,46.11189652932808 636.6232700018445,46.04217392363353 636.9671446757857,46.0197153899353 637.7220028870506,46.22653614974115 638.4081211164594,46.29512566013727 638.9801484515192,46.249035130022094 639.8943902151659,46.04217392363353 641.3200166686438,45.308163210807834 642.869433344109,44.34260328311939 643.5555224461714,43.88290782645345 644.0345177885611,43.75248526688665 644.2513400036842,43.73111910704756 644.562009770656,43.8131845741882 645.2028062151512,44.34260328311939 646.804010894266,46.22653614974115 647.2765108906897,46.80653166922275 647.4213308871258,46.985309047449846 647.9707264569588,47.55963755672565 649.0920911076246,48.294774427835364 649.7328875520034,48.61627217673231 650.6479448747123,49.60314011469018 651.0379568925127,50.28210516972467 651.4392702295445,51.16331227531191 651.9805393351708,52.47955297579756 652.203856896027,52.77401471621124 652.7985159964301,53.25740543490974 653.7824006828014,53.532766949152574 654.6286597689614,53.78562987531768 655.9078351075295,54.33643230731832 656.5025233351626,54.65901451517129 657.372287999955,55.693079374788795 658.4758851130027,57.41057621687651 658.8440226704115,58.0736978778732 658.971861560829,58.37709525512764 659.1571099875728,58.81669301644433 659.4831879964331,59.66193722636672 660.3917791006388,61.320936322794296 660.9880693190498,62.240381062438246 661.2969332053326,62.56181969988393 661.5949035520898,62.872009196376894 662.2122526720632,63.3968945548404 662.5649819875835,63.9251776439487 662.8166402275674,64.22411673312308 663.2057784320787,64.3624184220098 663.6411122346763,64.4309622955625 664.2131104426226,64.4309622955625 665.1654213406146,64.24434811429819 666.9130480071763,63.603700366278645 668.4915917938342,63.121544338122476 670.5725199929439,62.63934688002337 670.973017770797,62.56181969988393 671.7626828800421,62.408950270561036 672.0952271076385,62.36508829885861 672.5022202311084,62.45390473707812 672.9140193280764,62.49772622954333 673.0309646792011,62.56181969988393 673.1519295716425,62.62809815723449 673.7150440106634,63.10580425010994 674.4731353316456,63.43177357519744 675.5338573369663,63.801523250411265 677.8284328960581,63.82402058591833 678.3203315485734,63.84874337492511 680.3835213370621,63.95439179445384 682.0947391147492,64.06226562091615 683.15543199284,64.14994847454363 683.2444444444263,64.1776250123512 684.064867783105,64.43209525209386 684.7145479964092,64.86706919944845 685.6029540125746,65.95393415045692 685.6320811235346,66.01798623718787 685.8408060017973,66.47545440273825 686.0139375503641,67.49712746590376 686.3602589014918,68.56261657451978 686.6418015572708,68.9762595948996 687.9185302186524,69.49773282941896 689.1095086649293,70.08442932832986 689.7592180053471,70.34633827552898 690.0626059946371,70.38902540120762 690.8854468836216,70.34633827552898 692.5530031217495,69.84619026066503 693.0942722276086,69.80232964555034 693.6355413334677,69.95406144374283 693.8305473424261,70.12828989181435 695.7674711040454,71.28144759306451 697.00135378493,71.82318703312194 698.7117268764414,72.36715062905569 700.7037008783082,72.77965418703388 702.371257116436,72.88865697063738 703.7143373370636,72.75829060666729 705.2726377815707,72.25810714770341 707.2646117832046,70.95326352043776 707.5170273281401,70.73169552191393 709.8415455573704,68.69189273921074 710.6643864463549,67.73540932347532 710.901452003629,67.62636374129215 711.4864117761608,67.58367612509755 711.594822883606,67.84445485624019 712.3739731059177,69.17067925620358 712.8181615502108,69.75964241585461 713.5221055716975,70.69248816138133 715.2430226773722,72.04345925943926 716.5205668979324,73.0875646698405 717.5165393352509,74.12948064698139 718.144403342274,75.10835398407653 718.6209228801308,75.73889633239014 719.7471808854025,76.26043582143029 720.6776464498835,76.26043582143029 721.6088984463131,76.15252700669225 724.0555757796392,76.19521310162963 726.3291215645149,76.43461923883297 728.1050597832073,76.43461923883297 729.1439364552498,76.1300308246864 730.7677728998242,75.06457525095902 731.7896393387346,74.49104074161733 732.0453171200352,74.34748494107043 732.5744402204873,74.2823021634249 733.4409717760282,74.41270816203905 735.0648082204862,75.1735769987572 736.2776320000412,75.58716818480752 738.4864573441446,75.91312058846233 740.7162833351176,76.45598249253817 742.1685902221361,76.59306332509732 743.7042297743028,76.73807436862262 746.6493302328745,77.15162240288919 749.2351477760822,78.04288660216844 753.7175189048285,79.78267917910125 756.0622222222155,80.67182970588328 756.1212628765497,80.69416362285847 758.0274866630789,81.28083280165447 759.3260897848522,81.3685093758977 760.6465091129066,81.23810714983847 764.0681291093351,80.43343928828835 765.6272451129043,79.97713056264911 766.4929902364966,79.88945348095149 767.2292362239677,79.49832510418491 768.3546495431801,78.88923657283885 769.3077760001179,78.82401456608204 770.4987544463947,79.01955915248254 772.2188559930073,79.49832510418491 773.3791053369641,79.95240943209501 773.8863831040217,80.15021886531031 775.099236010923,80.51998329110211 776.4422871040879,80.60766014293768 778.3250344392145,80.36821770051029 780.1010017849039,79.97713056264911 780.3348051058128,79.96106789709302 781.3785460053477,79.88945348095149 782.6779355593026,80.04235225648154 783.9773251130246,80.08499720063992 785.8390426738188,79.95354231534293 787.1376166684786,79.84563515824266 787.7007311076159,79.88836105755763 788.6748873386532,80.30194413353456 790.5470906596165,81.3449212652049 791.5220333227189,81.95404403557768 792.7559160037199,82.410389469238 793.5787277654745,83.67244570190087 793.9040193422697,84.4546477800468 794.9436824462609,87.82626444310881 795.5715464534005,89.00069940718822 796.5675188907189,90.5661991861416 797.9097835521679,92.47898057952989 798.4510817849077,93.76129377953475 798.6371457705973,94.44231886166381 798.6897784604225,94.63481642329134 798.8847553422675,95.34812414011685 799.3406528853811,96.27864546101773 799.5344646828016,96.67419684660854 800.659878002014,98.21832580678165 801.5264095575549,99.58823787496658 803.9083664497593,102.15278161497554 804.6074171166401,102.84749760571867 806.0953173333546,104.32612909917952 806.9400035557337,105.06780810601776 810.080051768804,111.0024119123118 811.5186106596375,114.15451517759357 811.9085935503244,116.1974518346251 812.1254448924446,116.8064863254549 815.7007977813482,119.71352768002544 818.1450575644849,121.70026822574437 818.3926088818116,122.14411916030804 812.8007860907819,129.99074416432995 806.536243541399,138.78098046820378 804.6074171166401,141.52211450546747 798.2132006685715,150.60902181256097 789.0024799574167,163.69815829425352 783.1431537778117,172.02427445165813 780.3348051058128,176.0143063698779 778.1251933298772,179.15362690988695 765.283894727123,197.4008089902345 764.8901544392575,197.9602198957 757.8681031111628,207.5399247186142 756.0622222222155,210.00347569206497 753.8671740018763,212.9979495811276 752.7053226666758,215.32982112653553 752.3776717938017,217.18321950302925 752.3784582257504,219.72511877282523 752.6211744428147,221.4458926260122 752.8307440072531,222.63876117940526 753.025720889098,223.57437034900067 753.1405982151628,224.12478407041635 753.1462488747202,224.2573328228318 753.1502975431504,224.3505374387605 753.1867355592549,225.23563578590984 753.3064771129284,225.90957641170826 754.1455126756337,229.00400998193072 754.4375702185789,230.1552740324405 754.6774611059809,231.0987387401401 755.0338604374556,232.50048440595856 755.4845442275982,234.76480376609834 755.6552290986292,235.74310444045113 755.6973177742912,235.9857078359928 755.6471608891152,236.23724686476635 755.3987648854963,236.7662826012238 754.8841762134107,237.94892638083547 754.5969537707279,238.80478178930935 754.4780277761165,239.35964876803337 754.2935657814378,240.83990776288556 754.1552120037377,241.34984901489224 753.925428224029,241.95181443018373 753.7207228873158,242.28769009903772 753.4326848854544,242.6021359336446 752.8315304392017,243.0806168227573 750.9415304535069,244.33847441559192 750.4536513423081,244.8540283551556 750.0911644445732,245.34370451554423 749.9908215466421,245.60877856978914 749.9164017776493,245.88727582775755 749.8152724481188,246.47580642957473 749.7271046827082,246.8003952387371 749.4398531129118,247.8616940821521 749.3646177848568,248.32666029024404 749.225448448211,248.7579459687695 748.951944874716,249.43404445197666 748.6388575574383,250.08770154899685 748.3508195555769,250.389805596089 747.6590797938406,251.11983490217244 747.0595273387153,251.67240933381254 746.6905742221279,252.60006198333576 746.6323200000916,253.0268521598773 746.6315044410294,253.030167503166 746.1808497778839,253.63331662595738 745.4939451165264,255.19103381742025 745.4016995555721,255.74691420578165 745.304618894239,256.1500873955083 745.2844046792015,256.18942625971977 745.0667669050163,256.61616963968845 744.8418182258029,257.29560175858205 744.8482844445389,257.9694525938248 744.7042800072813,258.7544842134812 744.3879304535221,259.4047198773478 744.1653993246146,259.9494318930665 743.927547335159,260.3391349230078 743.6152464499464,260.65355716919294 743.4194248819258,261.025308285607 743.1443775717635,261.90574363066116 742.9024477866478,262.7278361581848 742.4064713387052,264.0799931551446 742.084441998275,264.3584690359421 741.7381497742608,264.61563847673824 741.3170300018974,264.7919900077395 741.2874951111153,264.804320864263 741.0245355520165,264.9683009808068 740.8117328783264,265.2322214067681 740.4233811057638,266.1496741534211 740.2356860018335,266.7662531529786 739.9476480000885,267.4333258931292 739.6976500054589,268.3508511048276 739.6353179875296,268.8044982107822 739.6879506773548,269.4974393812008 739.6855040000519,270.28801247430965 739.5608982185367,270.8663359688944 739.2501993245678,271.7468161651632 739.0099006579258,272.4262055652216 738.6967842134181,273.13029433536576 738.3586184534943,273.7591858472442 737.983985550236,275.0528633989743 737.8084364517126,275.83444340742426 736.9321764409542,278.66432961600367 736.7064413297921,279.30557720630895 736.6020788908936,280.09947347594425 736.6020788908936,281.02596546470886 736.5098333298229,281.5806542446953 736.3520808960311,281.9983779953909 736.0260320144007,282.47678055614233 735.6756619947264,282.916979605041 735.4499268836807,283.2942751090741 735.1271111110691,284.17244599288097 734.9887864604825,284.86748547438765 734.9749802099541,285.3806887587416 734.8123926755507,285.7074889250798 734.3900204374222,286.02527376741637 734.0858460161835,286.3116072129342 733.8981217850232,286.8517306909198 733.8479357726173,287.59401950769825 733.7977788872086,288.3609653345193 733.580956671969,288.8797398182214 733.5348484553397,288.9898170467932 733.3859506630106,289.3434948817594 733.0979417886119,289.7207803110359 732.8819060054375,290.282280835032 732.4093768819002,291.8082701340318 731.9142159929033,293.1984242593753 731.8583793210564,293.4926318930229 731.821999559179,293.845211658685 731.921526897815,294.61213756509824 731.8583793210564,295.06468414794654 731.7896393387346,295.1884218372288 731.6836166542489,295.3790610276046 731.3826462151483,295.6182895519887 730.9821484374115,295.9326657084748 730.5565722169122,296.34704980271636 729.9813408997143,297.1902874986408 729.7021866666619,297.5024383068667 729.103478897945,297.68773976078955 728.5662293334026,297.80674655281473 728.3534266595962,297.9190429896116 728.1042442241451,298.20871742925374 727.9521424499108,298.4288633024553 727.9240639146883,298.4804839636199 727.6754057672806,298.9386016887729 727.4448646827368,299.4933300319826 726.8460986596765,299.6785895295907 726.5143699911423,299.8323996741092 726.1009397760499,300.18501057551475 725.8881662292406,300.37362465506885 725.6381391074974,300.473550442548 725.1624060018221,300.5622790098423 722.7901484373724,300.7441825759015 722.3297653192421,300.88226750225294 721.9398406826658,301.0776316667907 721.6841337742517,301.2989067574381 721.1315342222806,301.8086390651879 720.5797211023746,302.64179237902863 720.3030426737387,303.3828602433787 720.3030426737387,304.58546870946884 720.2763331128517,305.2513048077235 719.9883242382202,306.3449665141525 719.8006000071764,307.1264449074515 719.7504139946541,307.8428012406803 719.7002571093617,308.5220887522446 719.7123739875387,309.23961315723136 719.900098218699,310.3960715715657 720.1007548872149,311.1124585949583 720.4413964516716,311.714289954165 720.7391337814042,312.018539810786 721.1897884445498,312.41939558443846 721.6905999928713,312.85958029254107 722.0037164373789,313.03581563406624 722.6291628944455,313.56355078396155 722.9172008961905,313.95312658691546 723.0045822293032,314.3809397534351 723.0272431218764,315.0534989940352 723.0272431218764,315.0625127868261 723.0676715519512,316.2503902936587 723.0676715519512,317.9626325670397 723.11782843736,318.77103336394066 723.1413048889954,319.16848262009444 723.2521335466299,321.061501017306 723.3176695466973,321.4488820307888 723.436595541425,321.89454727090197 723.642961123609,322.4043168022763 724.1437726719305,323.1329959547147 724.3565462187398,323.7123646362452 724.4965311146807,323.97727154858876 724.7271304534515,324.85642573738005 724.7570439964766,325.1472399076447 724.5580184463179,326.09033228317276 724.4576755483868,326.64273460843833 724.4204802275635,326.92000638874015 724.4204802275635,327.2343820820679 724.6081753317267,327.837264430651 725.2465250988025,329.3327424187446 725.459327772609,329.923332409875 725.8598255502293,330.61492551333504 726.3727831039578,331.31997577880975 727.0456484978786,332.164263075334 727.0742804481415,332.20023484615376 727.2741215573624,332.53925841726596 727.9076362240594,333.55867048032815 728.4448857886018,334.4568666598643 729.5589686614694,335.98932557197986 729.8721142328577,336.5551640376216 730.5476593209896,337.72499043069547 731.0606460018316,338.833094993548 731.2362242274685,339.32257997838315 731.3114595556399,339.7503480575979 731.3171393423108,340.408205703774 731.3867240108084,340.8314452319755 731.5477095538517,341.1480660656234 731.7896393387346,341.34073008352425 732.7759124481818,342.1258939759573 733.1141073353356,342.5154639709508 733.5647619982483,343.131847369601 733.8026431147009,343.5595278481487 734.0154166613938,344.036676425254 734.1901793282013,344.67884109687293 734.1651008854387,345.3827589530265 733.9272488959832,346.04848220862914 733.6400264535332,346.53908415080514 733.4765942328377,346.9915331155644 733.4466224355856,347.2452194028301 733.4272237796104,347.4068801122485 733.5267511182465,347.9345399129088 733.7274077867623,348.5901119557093 733.9523273387458,349.15592080308124 733.9903382187476,349.74533054837957 733.9151028908091,350.3740219086176 733.8981217850232,350.9129104577005 734.1278764373856,351.6436856975197 734.4660713245394,352.96390099835116 734.604454229353,353.81486154033337 734.6157555484679,353.8822318156017 734.6659124338767,354.6994434740045 734.5534526578849,355.3247675484745 734.4531680144137,355.88158871716587 734.0704669014085,356.3721302067279 732.3001793422736,358.0515543514048 731.7896393387346,358.61063235712936 731.3365379982861,359.1067857207963 730.9732646683697,359.659112287045 730.7483451165026,360.22489511960885 730.5849128960399,360.89170889370143 730.159307548427,362.76528406201396 729.3988569315989,365.8433697868022 729.2086568961386,366.6134609390865 729.1584708836162,367.28025701863226 729.2790279964684,367.8493357030093 729.721614449867,368.4229795570718 731.2605162382824,370.3941298489808 731.6747328854399,371.0878697220469 731.7896393387346,371.5398280301015 731.8123002310749,371.6289345170371 731.7896393387346,371.7536835432984 731.7370357760228,372.0431479123072 731.3243919928791,372.7851336573367 730.7540249031736,374.1894488740363 730.6617502151057,374.9291650142404 730.6156419982435,375.48476893932093 730.5112795592286,375.91695831977995 730.285515320953,376.31770770449657 730.1552588801133,376.6870172508643 729.9724280036753,378.14065032976214 729.9473204337992,378.6940647086012 730.1730846719583,379.2092501236475 730.6447691093199,379.7054418583866 731.2491857919376,380.34072257590014 731.7896393387346,380.84709518554155 733.2896855609724,382.25237361254403 733.8406539947027,383.10654419014463 733.6594251092756,383.490431011247 733.5955202275654,383.6273370263516 733.1772257849807,384.0965668511344 733.1529337742832,384.24474662716966 733.1707304392476,384.2750129515771 733.3932324410416,384.6577664602082 733.8528291272232,385.44573893392226 733.9409968926338,386.17422729404643 733.9159184498712,387.19232124014525 733.9159184498712,388.72670736460714 733.9781922133407,389.4810065761558 733.96607533528,389.88286480965326 733.8034295466496,390.2599926958792 732.9029357796535,391.2028704385739 731.7896393387346,392.52699040505104 730.7993175609736,393.70474755828036 730.3737413404742,394.1952119904454 729.6600979911163,395.0875653777621 728.433555342257,396.8598977315123 727.3331913386937,398.31785375310574 726.9076151183108,398.9385794259142 726.4804077795707,399.5177252991125 726.1939717690693,399.9060710609192 726.0564626773121,400.1956228048075 726.0685795556055,400.49753851426067 726.1065904356074,400.61988861643476 726.206146901357,400.9375622040825 726.1810393317137,402.018425062648 726.1130857814569,402.7378931790008 725.9294102187268,403.29230157553684 725.3800437760074,403.8658609923441 724.9293891128618,404.3327886640327 724.7166155662853,404.8479192237719 724.6793619911186,405.5011544228764 724.960933774244,406.6695549177239 724.9148255573818,407.0859303190955 724.5539697777713,407.48666823492385 724.1033151146257,407.8884560141596 722.8945400036173,408.9109026842052 722.0514557725983,409.62360261840513 721.3216760036303,410.0938323060982 720.9527228872757,410.2330666636117 720.5934982259059,410.2891482683481 719.5675831182161,410.05124580912525 718.9372724337736,409.8638085669372 718.1217133228201,409.620249026455 717.8005286685657,409.52485345921014 717.7147784534609,409.49903483042726 717.5019757796545,409.511358276417 717.3393299911404,409.5742280438426 716.4363895466086,410.46535270643653 716.1127873422811,410.8693981683464 713.7648217885289,413.5192731220159 712.1013142187148,416.27008754835697 711.9702422186965,416.4878224833519 711.9476104534697,416.527094749792 711.07621467032,418.0354762424831 710.5551597797312,418.9389733636053 710.2800833422225,419.3789229525719 709.7557953422656,420.3642713613226 709.1667869013036,421.2228722658474 708.8779333404964,421.64483847958036 708.5947304391302,422.05896584282164 708.3973068800988,422.3462688078289 708.0462086827029,422.78621217177715 707.5170273281401,423.31871670205146 707.2710488747107,423.56622182112187 706.1448199964361,424.5717542038765 704.5549748907797,425.9230024351855 704.5169348836644,425.95439477666514 704.0921742222272,426.3494450256694 703.6439371092711,426.765826801653 701.9683417885099,428.3235149036045 701.137403562665,429.22248886723537 700.6316986596212,429.8969494452467 700.444032682688,430.1909900716273 700.0054948979523,431.2469961649622 699.3557855573017,432.42876564722974 698.5622465421911,433.1873720596777 698.3743766755797,433.36691300495295 698.1745355662424,433.561078872066 696.8079788943287,434.89320763834985 696.0134495573584,435.82241692382377 695.6250977849122,436.15236615849426 694.8613266772591,436.802082431037 691.8765842204448,439.52010915393475 689.9501462186454,441.3908506499138 689.2996213191655,441.79371304641245 688.3101442275802,442.29644171049586 685.1684648961527,443.4904786804691 684.3173124552704,443.9303430202999 683.2444444444263,444.5793515292462 682.8108000142965,444.84158036578447 682.0146395590855,445.3623204998439 681.1529722311534,446.22976037074113 680.0008202241734,447.5718782541808 678.8948055608198,449.0060155802639 676.7749635415385,452.28833999688504 675.8129824426724,454.29920113040134 675.4845160107361,455.2956774527556 674.9626455608523,456.83972890279256 674.3493451094255,458.0718281600857 674.11149311997,458.4230762856314 673.7231122206431,458.6744637900265 673.2853899947368,458.78777592489496 672.1130528997164,458.8012279502582 667.5975059912307,458.9403533572331 667.4527151219081,459.03803194861393 668.7577553351875,460.43275510694366 668.9163233280415,460.5820190109662 669.0344628907042,460.6931488562259 669.1744186597643,460.8255270165391 672.1130528997164,463.59490830486175 675.2485864106566,466.85235249233665 675.6632982188603,467.2832064672839 678.9436808533501,470.84646775206784 683.2444444444263,475.11858741071774 688.1045650773449,479.946196231409 692.1449614224257,484.12759515142534 706.2027538203401,498.17212746152654 707.5170273281401,499.53370648628334 708.4618816853035,500.5125878290273 712.020661248127,504.19943220418645 712.3669534720248,504.4791248863912 711.9071528961649,505.0597133523552 711.5697444409598,505.49162987456657 711.4985286544543,505.678992710833 711.6134642346296,505.90900573693216 714.2979935574112,508.53202725184383 717.1257408853853,511.3714981401572 719.2763120072195,513.5221312223584 719.7852208926342,514.0314952541376 726.6211791075766,520.8691548175993 731.7896393387346,526.0666640050476 732.9474128782749,527.2310066776117 733.3608722204808,527.6471737158136 732.3648706560489,528.6343408638495 732.1836708978517,528.8138106800034 731.7896393387346,529.1799787670025 731.0549953422742,529.8627614266006 730.5776311182417,530.1521569826873 728.7506913281977,531.8707135789446 728.3089495609747,532.2858226151438 723.92290178861,533.2135255245375 719.9178948836634,534.1647282548947 719.9016419557156,534.1681204970228 714.0026737777516,535.3875072959927 713.639400448068,535.5871638808167 712.9500491092913,535.9651944329962 707.5170273281401,539.3124411106692 704.7839722381905,540.9962436407804 702.9731979946373,542.0518448476214 702.0621893405914,542.583560811996 699.6365417814814,543.923970885342 696.9770617743488,545.5459972292301 695.2796211199602,546.73839183565 692.9041304462589,548.2964753801352 687.1644875662168,551.0098523679771 685.9435664498014,551.5717938733287 685.0292955590412,552.1124937544228 683.2444444444263,553.1670771259232 681.8835675590672,553.9711352934828 680.8479239963926,554.5835454143817 679.1974071181612,555.6065002438845 678.7920451129321,555.8061804553727 677.8017815895146,556.1626566682826 676.0333872924093,556.8538830555044 675.1439327005064,557.2473053905996 674.6250040889718,557.5237868629629 673.703713564435,558.0131506189355 671.9988746241434,558.8637504092185 668.4204342614394,560.8950424369541 664.931414129911,563.0162817696109 659.165702485363,566.7005143029965 658.971861560829,566.831582496583 657.6409273459576,567.7319374959334 657.5051367537817,567.8189929000218"/></g></g></svg>