<svg width="1200" height="800" version="1.1" xmlns:xlink="http://www.w3.org/1999/xlink" xmlns="http://www.w3.org/2000/svg"><g class="geojson-features"><g class="geojson-feature" stroke="#555555" stroke-opacity="0.0" stroke-width="0.0" fill="#111" fill-opacity="1.0" data-properties="{&amp;quot;N03_002&amp;quot;:&amp;quot;上川総合振興局&amp;quot;,&amp;quot;fill-opacity&amp;quot;:1,&amp;quot;description&amp;quot;:&amp;quot;上川郡当麻町&amp;quot;,&amp;quot;N03_001&amp;quot;:&amp;quot;北海道&amp;quot;,&amp;quot;stroke-opacity&amp;quot;:0,&amp;quot;N03_007&amp;quot;:&amp;quot;01454&amp;quot;,&amp;quot;fill&amp;quot;:&amp;quot;#111&amp;quot;,&amp;quot;N03_004&amp;quot;:&amp;quot;当麻町&amp;quot;,&amp;quot;title&amp;quot;:&amp;quot;上川郡当麻町&amp;quot;,&amp;quot;stroke-width&amp;quot;:0,&amp;quot;N03_003&amp;quot;:&amp;quot;上川郡&amp;quot;}"><title>
      上川郡当麻町
    </title><desc>
      上川郡当麻町
    </desc><polygon points="971.0488563484978,675.0693435716094 971.0951684551546,675.3291779665742 971.1170137885492,676.3954879747471 970.9794464426814,677.4707446518587 970.9592322277604,678.5739392336109 970.974582215189,680.6717691696249 969.582160668564,680.4791556913406 968.8167584426701,680.3940379843116 968.2981211023871,680.4948405711912 963.5261682346463,681.8892585952417 960.0810426597018,682.7482915685396 958.1481384391664,683.1633923015906 956.4717275592266,683.5233741755364 953.8243644303875,683.7227187455865 953.2434533261694,683.7731193492073 953.1382753279759,683.7820704952464 950.9804515555734,683.9702057680115 949.2563013405306,684.0497983147507 948.126810225891,684.2166442062007 947.4107493262272,684.5772696345812 946.6939019948477,685.379239949456 946.3289975468069,686.1050026432495 945.7473000107566,687.9014172042953 945.065230449778,690.6196814258001 944.6550042169401,692.4004185974482 944.2698855539784,694.4499878385686 943.9664975645719,695.3078471863992 942.1533348978264,697.3573514199234 941.1007102294825,698.4929917486734 939.2859164444963,700.237909009913 938.4735904427944,701.0095084566856 936.6499128888827,702.3736102533294 935.6401924551465,702.8439522489789 934.2517904497217,703.2101539415889 933.875555555569,703.3863401794224 932.9718286793213,703.8093075767974 931.61010710767,704.6167777361115 930.7023315627594,705.2909979294054 930.5728615539847,705.38727462932 929.4142724550329,706.2563434701297 927.5015824497677,707.3381596680847 926.6212737705791,708.2900716661243 926.2691852516728,708.6686018899782 925.7013522204943,709.2789498846396 923.7182911147829,710.6071237132419 922.2303908977192,711.4940739970771 920.9779251201544,712.0775645588292 919.9163875556551,712.5087008093251 919.3969637831906,712.8043354983092 918.26179288188,713.792066389753 916.1953991112532,715.1202557003126 915.7544437759789,715.0934057474369 914.8175119929947,714.0138013404794 914.1378891094355,713.3721401503426 912.1281184427207,711.8065619320842 911.5828006685479,711.1648142426275 910.8627202275675,710.8434156505973 910.3020233386196,710.8165652219323 909.6029726720881,710.8069297070033 909.2510297885165,710.8019708436914 908.3577886720886,710.558986409218 907.4993544534082,710.2420620928169 906.529246890801,709.9015927509754 905.6732302221935,709.6115987693192 904.4062008889159,709.1535260981182 903.4142771201441,708.9049360413337 902.5582313245395,708.781729457085 901.980582456803,708.6988391280756 901.5383746561129,708.6686018899782 900.7685451094294,708.6159890868585 899.3728904534364,708.4054168105358 897.950497109443,708.0425692634308 896.7174591147341,707.5363557075616 895.4077003095299,707.011393873312 895.1502457741881,706.9081430471851 892.1258904463612,705.7748000528663 891.6517593315803,705.6381663681241 891.0870429013157,705.6157502118149 890.4098084410653,705.6605825223378 889.9106280108681,705.8038684662315 889.4421766827581,706.080522178032 888.8086328889476,706.744618805882 888.4008533334127,707.3852090680739 887.6103726648726,708.564424496959 887.5415453013266,708.6686018899782 887.2098748871358,709.1702976529486 886.4663179947529,709.8343857796863 885.3303606612608,710.6998504863004 885.0374875592533,710.9229187038145 883.930657336954,711.7169399015256 882.0576384569285,713.046229151485 881.3342957796995,713.4863540317747 880.814872007235,714.0989475072711 880.5664760037325,714.4393706133123 879.857726009097,715.5380018791184 879.1683746702038,716.3409175190609 878.507334883674,717.1998278838 877.5987146524712,718.4171330668614 876.8543713281397,718.8325756065897 875.5590304428479,719.304054653272 875.4077442275593,719.3331617519143 874.3365073351888,719.542595689185 873.5201326648239,719.6635391698219 872.1705862258095,719.748643029423 870.9157028978225,719.588513904484 869.6875000037253,719.158478792815 868.4495977814076,718.5559768249514 867.1574608783703,717.5481080099125 865.8322064499371,716.2311396445148 864.8540015502367,715.0306752153556 864.1622617883841,714.1179763815016 863.7884444445372,713.5277983777924 862.9105824427679,712.0507142674178 862.2803300125524,710.9017125167884 861.8636375609785,710.2230329131708 861.5327244517393,709.8646631877054 861.0577777778963,709.5464881583466 860.9542308978271,709.4771846466465 860.0723202275112,709.1994462898583 859.0067631218117,709.0662011089153 856.929825337138,709.2017039987841 852.6634899911005,709.4513822870795 848.3777851164341,709.71795278223 847.0306271003792,709.8400300370995 845.5516397795873,709.9733151068795 843.3776213333476,710.141271929082 842.7441066666506,709.5320146518061 842.0827756091021,708.6686018899782 842.074998670374,708.6585228098556 841.803970901412,708.2956756432541 841.465746887261,707.977659811324 840.925264213467,707.7054834035225 840.1534248961834,707.2071308707818 839.68494444096,706.4881241979892 839.4106544356328,705.2786206456949 839.2755628944142,704.4163215456647 838.8758806755068,702.82153583318 838.1687326719984,700.9915671244962 837.8774615608854,700.5268256764975 837.3701546667144,699.7159551378572 836.9566953245085,699.2735876630759 836.7851948944153,699.1049378738389 835.7981062259059,698.1346449246048 834.8951657814905,697.4312950042658 834.0083908836823,696.7817276596325 833.2089973192196,695.397475309961 832.863520654384,694.9125234637177 832.5018784427084,694.5272384457639 831.0592708836775,693.7073969728663 829.6870926790871,692.961497668759 828.393324657809,692.2145477639278 827.3172526649432,691.577223408618 826.1133417815436,690.853735050885 824.8487299982226,689.9454202479101 824.1755733335158,689.5836738943472 823.458726001787,689.3059126446606 823.3122748872265,689.2622465634486 822.1431709014578,688.9105387716554 820.8299750970909,688.7436961249914 819.433504881803,688.686603496375 818.3614815573674,688.1321672459017 817.8056488961447,687.656192123366 817.5070668800035,687.0367981019081 817.1761828978779,686.3166426977841 816.8727366543608,685.3870620701928 816.6931388871744,684.083385232545 816.4059164444916,682.2565807430656 816.0458762240596,680.9002681499696 815.5701431181515,679.2627881465596 815.2990862223087,678.0610108303954 815.1639655537438,676.6374181208084 814.9989022152731,675.418813509983 814.9252980053425,675.0693435716094 814.8063428836176,674.5048358526547 814.5547428978607,673.8630292941816 814.172041784972,673.0095291678444 813.9438599963905,672.6780395015376 813.244809329859,671.6632452307967 812.544972231146,670.8478018979076 812.512582883588,670.8191728232778 811.8296977636637,670.2138485489995 810.6994202170754,669.5216270093806 809.928367331624,669.1318256099476 808.8644122170517,668.7151684680721 806.8570882276399,667.8124155797996 805.2429511111695,666.8076816772809 803.5026062222896,665.3347471988527 803.1765282134293,664.1631433399743 801.0526957797119,663.748655105941 798.5655900160782,663.3846919931821 796.1811864462215,663.0721413573483 793.0200793315889,662.916450584773 791.1033697850071,662.6566028250963 788.9786926651141,662.2398941791034 788.2399999999907,662.0845254627638 781.3943424569443,660.6448297409806 778.718667776091,660.4208682362223 777.5786909013987,660.3692933483399 776.212134229485,660.5418413470616 773.276762225898,661.5655940313009 772.4256097850157,661.8590733010205 769.8057717761258,662.761848459777 767.2660624497803,663.541471207689 763.9674171165098,664.3179461858817 763.9496204515453,664.3221801774343 758.5594737778883,665.3370053183171 757.5044315592386,665.8029839150258 756.8498871183256,665.9485516377026 755.7478919965215,666.014641774178 754.6095171130728,666.1177084793453 753.5350762384478,666.1177084793453 752.515627349494,666.0852481172769 751.815731996554,666.0168998870067 751.0066391041037,666.1210553238052 750.3658426596085,666.4772318995674 749.814058666816,667.086597873189 749.208039993071,667.4192242698628 747.9094659982948,667.7642294164398 745.6755913386587,668.8753716716892 742.9805180018302,670.0772350536427 741.701342663262,670.3505022898898 741.0241664568894,670.3505022898898 739.9407835593447,670.1007029027678 739.6948051059153,670.0448558695498 738.984423993039,669.8834437581827 737.795892224065,669.87449209654 736.8929517796496,669.9875975261675 736.1032575431745,670.2138485489995 733.9915711148642,670.8399793061544 733.5740922312252,670.9632052607485 732.4454166757641,671.167076335405 730.6953433315502,671.378729489923 729.6232908801176,671.3261085573467 728.8417231076164,671.2040118201985 727.8627317759674,670.9407858835766 727.1685453369282,670.8534067446599 726.0317724444903,671.2387295578956 724.8828535467619,671.68901130819 723.7315462258412,672.0978004420758 721.428086897824,672.9826342075248 719.672362894169,673.4833557787351 718.6812255574623,673.6502089753631 717.8842786703026,673.6401687549078 716.7329422222683,673.3220669339644 715.4222222222015,672.8756188489497 715.098561763647,672.765377657488 713.8881846613949,672.2120741796098 713.0750431005144,671.6901403380907 712.3978668941418,671.1457860096707 711.157547121984,670.5219141168054 709.7116773263551,670.3740507578477 708.7407833314501,670.1477595624165 707.8508044516202,669.9125568174641 707.2723108977079,669.3032383023528 706.2204726613127,667.5693475376465 704.8903248782735,665.3392634374322 704.6767357725184,664.3535117124557 704.2471108837053,662.7260407547583 703.4056868976913,661.8030630639987 702.6483820088906,660.8554436923005 700.4703148941044,658.3822202509618 699.28580266668,656.7087385253981 698.7647769030882,655.8753402970615 697.7081035664305,654.1167142108316 696.1149962240597,651.9850620381767 694.729856455233,651.1751575116068 692.1351260161027,650.331698982045 691.4384928996442,650.1155108435196 691.1496393386042,649.8978304440388 690.4780846649082,649.3918981755851 689.4934135467047,648.1137551398133 689.0047188765602,647.1638237200095 688.4124773262301,645.6795987986843 687.883354225778,643.2006143229664 687.8052644408308,641.4654068226228 687.7878755556885,641.0789072921034 687.6430555592524,639.078205804748 687.4990219947649,638.2100241985172 687.2110131201334,637.0763585364912 686.970714453375,636.546524990641 686.0823084374424,635.6066301644314 685.9447993458016,635.5506138334167 684.8735624534311,635.1114759983029 681.4891377777094,633.8713680527871 679.8434851272032,633.292205212405 677.9339991039596,632.8351571959793 676.949357112986,632.6177838391741 673.5875933298375,632.3041447936557 671.8335295717698,632.136093461886 669.9531706594862,631.9333186249714 669.8156324409647,631.9187598045683 668.7832511147717,632.0397472052719 667.4142768926686,631.966953126539 666.8770273281261,631.8450381186558 666.1407813405385,631.6779140383587 665.612444672035,631.435938813549 664.8915486719925,631.1234274515882 663.546837333357,630.472512049193 661.3364099983592,628.8806252976647 659.6041624463396,627.3021579054766 656.1437160108471,625.5097284916556 655.6307293297723,625.2307642339147 655.3613326791674,625.0851316155167 654.1023715556366,624.4006450325833 653.4178844445851,624.1328913564212 651.0755986773875,623.218759757292 650.0908984320704,622.7123682392412 649.2284155448433,621.8049261766137 648.4096524517518,620.7843119280296 647.4007184499642,619.8690383694484 645.2865562168881,618.3980758989346 643.869027100387,617.5791050261469 642.6044444445288,616.7814264981425 641.8034780161688,616.2761507583782 640.8438562133815,615.6499187334557 640.122960213339,615.6499187334557 639.5242524445057,615.9232476145262 638.628622905002,616.7343594301492 637.8122191075236,617.9644725885591 637.0266317937057,619.6852895446937 636.4189820018364,622.2799019432277 635.7709037796594,625.6038188647944 635.530605112901,627.5318366637803 634.6422282240819,629.8227644462604 634.5912266526138,629.9191115880385 634.2579251200659,630.5453469081549 633.3460717796115,631.4438030121382 632.595233109314,631.8997244480415 632.0960235520033,632.0644286275492 630.9439006720204,632.4497730549192 629.9592295538168,632.4262612147722 625.7309342152439,632.4497730549192 623.6410639928654,632.474454435287 618.3318615609314,632.3241883451701 617.6611224462977,632.3052740079584 614.9660782363499,632.1136704771197 614.1011195449391,631.9692115579965 613.4045446827076,631.7518374211504 612.5395859910641,631.4381972500705 610.0176733299159,630.4501292392379 609.2741164373001,630.3783832453773 608.553220437374,630.330270264938 606.5353815609124,630.2573950115475 604.9018457884667,630.0658705136739 603.3993528889259,629.6054287051666 602.3799039999722,629.2940038709785 600.9559377920814,628.6543355170288 598.2721949014813,627.5822086748667 596.634581333492,626.6904733045958 595.6742022259859,626.4989459752105 594.059249550337,626.7804495568853 594.0163744427264,626.7879912673379 592.7210335573182,627.3122807140462 589.7411553281127,628.8133957592072 588.1019397689961,629.7566643963801 582.9917628871044,633.3694753993768 581.4310448925244,634.4057242904673 580.2279204408405,635.0319479662576 579.5094419912202,635.1540630067466 577.1266986667179,635.0576776264934 575.1565699981293,634.7675533667207 573.5489282277413,634.5031988062547 573.2592591075227,634.455005991098 571.2664695467101,633.827651610889 569.920971776126,633.514014137967 569.7866666666232,633.4855822780519 569.1288599893451,633.3459636489861 567.3747962312773,632.9113386470126 565.8617884444539,632.6704535426106 564.9005937778857,632.5741478281561 563.044556003646,632.0879405029118 561.729787335149,630.646170320164 560.700639118324,629.5068633130868 559.9765100089135,628.8861907894025 558.847834453336,628.1154899367248 556.9497080036672,626.933582527854 555.2401213441044,625.8996003642096 552.5523297849577,624.5966910287389 551.3249424498063,623.8035527173779 549.6679302258417,622.6697790346225 548.3224033280276,621.6816751157166 547.8183586703381,621.1271252252627 547.506057785009,620.3552703176974 546.84915404825,618.1051084047649 546.8094246685505,617.9689897136413 546.7802975573577,617.5712807071977 546.5683104426134,614.6427090149373 546.2794568819227,613.0272040875861 545.9436795450747,610.4716955989716 545.6556706703268,609.2202484473819 545.5140837831423,608.6628869347041 545.3092910649721,607.8567492957809 545.0067768888548,606.6657886352041 544.7422153387452,605.3157464663382 544.6224737849552,603.7001387499622 544.2624044374097,601.6509682524484 543.3732411165256,599.0953392590163 542.8691673316061,597.215294466645 542.4363093333086,595.3587504779571 541.9791884515435,594.032160618226 541.6911213225685,592.5397433483158 541.0665486791404,588.6585278370767 540.7299266560003,586.0545587200904 540.4419177813688,584.3906998653547 540.0721782330656,582.1250759366085 540.0001468870323,581.681363379932 539.7695766757242,579.5445532909944 539.8415788941784,578.7501777270227 540.4896571164718,577.6890027748886 540.9702544497559,577.0615411049221 541.5940406614682,575.5690188415465 541.7688033279264,574.7857636661502 541.8901177458465,574.2434496366768 541.9063415467972,574.1706381170079 541.8586313386913,573.2058128124336 541.8101055715233,572.3620816594921 541.7380450987257,569.0587304300861 541.6183326721657,566.1654321431415 541.4977755593136,564.7188304960146 541.3060317867203,561.8255204934394 541.3529264356475,559.7781726813992 540.7283246649895,557.7286290480988 540.3440215609735,557.0540367409121 539.7922084409511,556.5475063169724 537.5348573297961,554.9562612612499 536.1650675486308,554.2076737327734 535.4207242240664,553.6540982965962 533.6382906596409,552.6892716092407 532.821945116506,552.4964752469677 532.2564131271793,552.7486556011718 532.1730513351504,552.7856092192233 531.5726833209628,553.2192893565516 530.2037090987433,554.2570121610188 528.2586880000308,555.8482618296985 525.8807797760237,557.6300342848408 525.3281802240526,557.9919785289676 523.74238378671,559.0531594534987 523.16627865599,559.1977427238598 522.3976433209609,559.1013673337875 522.0133693440584,558.7394247542834 521.2414717724314,558.4383165147156 519.539982449729,557.7745377253741 518.7947944393381,557.7264102629852 518.1710082276259,557.7992267465452 517.4501122275833,558.0155379661592 515.3845048890216,558.4985059194732 514.8076424534665,558.8358002891182 514.1110093368916,559.2212617019541 513.1214739911957,559.6078923944733 510.8883857636247,560.6690662099281 510.2638131201966,561.1991067639901 509.1742844019318,562.3243750859401 508.6059853368206,562.9113327101222 507.74187133146916,563.5142234360101 506.4829393350519,564.1249387078569 504.5233255538624,565.1300599672832 503.7109995521605,565.5861470816308 503.58884044806473,565.6556129541714 502.8687308799708,565.9693789980374 501.6316442168318,566.6686344859772 500.50218222942203,567.3801512869541 498.90502621862106,568.3561740096775 498.388835555641,568.8032592720119 497.89612134406343,569.1282356422744 497.3087148941122,569.5618460581754 496.96888888895046,569.7896838356974 495.4931055502966,570.778766763804 494.8806497849291,571.1642494315165 494.35231311654206,571.4779679708881 493.53593844641,571.8398914366262 492.0221442276379,572.7083119115559 491.30121910048183,573.1778175728978 490.1135028906865,573.8176330357674 489.176017692429,574.2434496366768 488.20404599478934,574.6849169066409 487.68703977251425,574.8664410432102 486.91840443748515,575.1073435309227 486.1724299947964,575.2283594252076 484.0825888996478,575.2642204568256 483.9482837902615,575.2865680487012 483.3616928997217,575.3841067918111 482.6051744428696,575.335942504229 481.8244222293142,575.2642204568256 479.91578089247923,574.8899988324265 479.1827388871461,574.6613994363579 478.3194404410897,574.2580119379563 478.3043817245634,574.2434496366768 477.429461561027,573.3952041529701 477.2255717831431,572.7318699113675 477.39383910398465,571.6729274799 477.656827790197,570.9737268378958 477.9335062186001,570.1781935439794 478.18918400013354,569.7097712120158 478.2692835556809,569.5629755660775 478.5937304464169,569.0206497946056 479.72240600187797,568.4301167975646 480.20300333516207,567.9359542540624 480.61156932264566,567.3084268740495 480.85189711651765,566.63386135787 480.9959015538916,565.9704681825824 481.0315240108175,564.7524743697722 480.69574667385314,563.8840252519585 480.37129978311714,563.2464021747583 480.02259000902995,562.8609068535734 479.20621533866506,562.5113141846377 477.8380566756241,561.7201904779649 477.11631598940585,560.9570608376525 476.7441588906804,560.4023713406059 476.4318580054678,559.7748243613751 475.6971848818939,558.0020639048889 475.13325488369446,556.760429955495 474.8330708765425,556.0611457436462 474.37594999477733,555.0604646544671 473.740046904888,554.2188888464589 473.36783155205194,553.7729061327991 472.8030859947903,553.2417196755414 472.6963060054695,553.1646255309461 472.20274710759986,552.8080395782599 470.56921133515425,551.8073046503705 469.9081715485081,551.4811753506656 469.31997866672464,551.0833970575477 468.8037588765146,550.6250636694604 468.42190244980156,550.1465580031509 467.63867443206254,549.1178140005795 467.19369955558795,548.2627428521519 466.9776637725299,547.7080645044334 465.71712978486903,545.0319222442922 464.97031065588817,543.9953297205502 464.4541199929081,543.5133816678426 464.0212911218405,542.8981763628544 463.32465800549835,541.9097456408781 462.73643599648494,541.307930551644 462.2978399575222,540.6254655015073 462.0155691236723,540.1861144917784 460.4427051236853,537.9929381296388 459.99848755204584,537.4135854028864 459.55351267557126,536.8476258382434 458.80911109701265,535.4725015565054 458.3164260124322,534.4000008444418 458.0760982185602,533.6648249344435 457.84794555744156,532.8814740177477 456.92315977963153,531.1319972556666 456.14319399825763,529.9149168493459 455.7701922133565,529.2279007726465 455.49430021701846,528.7818314992473 453.7871311075287,529.3959834631532 453.1147900018841,529.5282385559403 452.4424488960067,529.7210129329469 451.77007866301574,529.9866120364168 450.6049942187965,530.0717828248162 449.7886486755451,530.0236094882712 448.995750456932,529.8678328289534 448.42369399475865,529.7065689811134 448.39538244274445,529.6985804265132 447.75866379379295,529.4329406592879 446.34113467740826,529.0956455150736 445.6566184392432,529.0832995356759 445.09271756815724,529.2043385233846 444.46808667015284,529.3365937212948 443.81759089801926,529.6380610641208 442.3159135574242,530.3855951623409 441.76654711470474,530.7475802930421 440.5172853191616,532.3883279737202 440.128933546599,533.1873749515507 439.6386368854437,534.1960141631425 439.1580395520432,534.8224980265368 438.6661117726471,535.6540552056977 437.6450608925661,536.3780494544189 436.6838662258815,535.9319934052182 435.95163977961056,535.7145730583579 435.21862690139096,535.619317951554 434.44999156636186,535.4624555839691 432.5647975538159,535.5229734846507 431.8447171128355,535.6440092407283 431.1586280107731,535.4994118505274 429.37214577780105,534.9928765030345 428.8365273317322,534.8482787226094 428.4320100125624,534.7395882579149 427.8793813334778,534.5579935748246 427.19492334942333,534.4011305169552 426.2701084444998,534.233051314659 425.2013182294322,533.7623401645687 424.6130962205352,533.4484918751987 424.1511111110449,533.0669431477436 423.99979576899204,532.9419925661059 423.45934222231153,532.2908121878863 423.0378146703588,531.7248809478479 422.05317267915234,530.8932698752033 421.47628111648373,530.56828233134 420.85165021871217,530.3262056641397 420.13078334578313,530.1457373505691 419.205968440976,530.1334317708388 417.24961689615157,530.1704292003415 416.4567186773056,530.098653375404 415.7600855609635,530.038134113478 414.955856896122,530.0863477932289 413.1418495432008,529.6526664050762 412.49298488895874,529.4240241310326 411.88049999647774,529.1942519433796 411.1175444481196,529.012693431403 410.789864448132,528.8311347825802 410.7502224498894,528.8087021933752 410.4500384427374,528.3627128375228 410.4257755591534,527.8314704145887 410.6539282205049,527.1197562433663 410.7502224498894,526.5291206492111 410.636917987722,526.0214770965977 410.3060340053635,525.5540987146087 409.86103000177536,525.0351559452247 409.16439688543323,524.5768134008977 407.8917168925982,524.1542579226661 407.3390882135136,523.8416075463756 406.7986346667167,523.2621401296929 406.2945608817972,522.7320565457921 405.39325155550614,520.9847656287602 405.12947643734515,520.2965943738236 404.91268334933557,519.7059824170428 404.7929126685485,519.1030225231661 404.21605023299344,517.1629210516112 403.98786844452843,516.4142162099597 403.724093326251,515.7630315523711 403.375383551931,514.9919288390083 403.01534333161544,514.3519573086523 402.24673712358344,513.4362394643249 401.18843266856857,512.4847284792922 400.74342866498046,511.95345107873436 399.87852822756395,511.3453070902033 399.09853331919294,510.7967576375231 398.43755178689025,510.4952667413163 397.81292088900227,510.206122414791 397.2125820018118,509.92924400314223 395.9997873493703,509.4585257640574 395.4350417921087,508.9765086895786 394.3298135609366,508.1314230217249 392.519214080181,507.0027545230696 392.0481995661976,506.7091271497193 391.195386879961,506.2507094242028 390.91707733343355,506.1184012151789 390.5109288961394,505.9245185146574 390.0901877761353,505.62415133445757 389.6346980124945,504.80592728737975 389.5481031109812,504.6490045260289 389.11606067209505,503.6357628139085 388.79158465436194,503.10450626863167 388.203420899692,502.5742976734182 387.5302351076389,501.8143299871008 387.2948006684892,501.3335081622354 387.1944868979044,500.7528971802094 387.26648911635857,500.02996615855955 387.26648911635857,499.3899549205671 387.27860599476844,498.61879985104315 387.2543431111844,497.5819674617378 387.01404444442596,496.907206895703 386.42582243552897,496.05195061239647 386.0051104426384,495.3166981410468 385.9209622187773,494.19462777109584 386.12569668260403,493.18134213029407 386.18552376900334,492.4942213973263 386.60547845694236,491.96294030576246 386.92989622056484,491.46862105827313 387.5181182293454,490.7568802672904 387.90323689254,489.9251279066666 388.251131107565,489.4666379201808 388.9000248889206,489.0922831451753 389.512509781518,488.730235482275 389.8862979982514,488.37040669930866 390.39037178328726,487.7673684496549 390.61852444452234,486.8628082476789 390.48585045337677,485.1264757391764 390.25766866491176,484.34292678307975 390.04163288185373,483.5346786581795 389.84907355031464,482.6906337380642 389.74147800181527,481.761357686657 389.9097453226568,480.8926096658688 389.95751378510613,480.14492212969344 389.96963066316675,479.42305925139226 390.0295160035603,478.7112829044927 389.64518377254717,476.33477890648646 389.5132962134667,475.55120138061466 389.42917711636983,474.74409409228247 389.512509781518,473.7553839823813 389.5443748407997,473.3753953773994 389.5731815537438,473.0312420547125 389.6152702294057,472.4337749000988 389.54568556090817,472.2039484034176 389.46477044629864,471.9337657887372 388.95909467025194,471.2836313259904 387.7818642206257,469.94400981476065 387.28915000893176,469.5348375972826 386.41288999817334,468.6414280877798 385.39183911820874,467.2670447943383 385.1037719894666,466.4599097748869 385.1037719894666,465.45881645655027 385.4759873424191,463.8299626390799 385.7284028871218,463.2145540154306 385.4638413370121,463.0945311917458 384.55845421517733,462.79750067857094 384.5431042276323,462.791850638052 383.59000689792447,462.4791206908412 382.0891451163916,463.23917200480355 381.56806109880563,463.6012579454109 381.46451421885286,463.67301320878323 380.87713689613156,464.0474478083779 380.5785840071039,464.23801453679334 380.2743513316382,464.4330607592128 380.1764551111264,464.5155911326874 380.13317222404294,464.5534864878864 379.45800578861963,465.13257036020514 378.724934656173,465.9531890291255 378.37704044091515,466.4834781558602 378.250832668622,466.7009205747163 378.23868666333146,466.7222289526253 378.0048542151926,467.1235363854212 377.60840510600246,467.7266666237265 376.4789431183599,469.3061786714243 376.0226086686598,470.0292018126347 375.6059162169695,470.5430570282624 375.6026831076015,470.5470926417038 375.26611933880486,471.1020292073954 373.80166644626297,472.76666981808376 373.34533199633006,473.2498488834826 373.20191010145936,473.3753953773994 372.78058643906843,473.7442054816056 372.14468334952835,474.41903086885577 371.2198684444884,474.9862265625852 369.81288334238343,475.8067713401397 369.12758067203686,476.07247018662747 368.34761489066295,476.445755586843 366.36534021701664,477.1329220532789 365.7658460160019,477.24163848534226 365.4898957653204,477.0073775156052 365.14121511834674,476.7114537291927 364.6969975467073,476.07247018662747 363.6039444480557,474.7205668744282 362.84745511831716,473.7800816068193 362.5133962810505,473.3753953773994 361.16618001065217,471.7432454986847 359.1822742187651,469.4283776443335 355.7274784425972,465.5103926791926 353.1295148942154,462.28964222501963 351.33333333337214,460.11383761744946 350.4457720036153,459.03858020261396 348.0346880001016,456.387323540519 346.3186351218028,454.2819322408177 343.2278991077328,450.68100741127273 342.34275532793254,449.65070892026415 340.745657571475,447.84121837682324 340.1768633458996,447.2055889197509 337.61204644979443,444.03617474011844 336.9235106703127,443.18634103424847 335.22199222049676,441.21426809881814 334.6119540053187,440.50681867060484 333.9488461938454,439.7433457010775 333.6548080071807,439.4047142328345 333.18635667918716,438.8643559058546 327.0607504497748,431.80919438501587 326.92318310413975,431.65077105228556 325.5413055716781,430.06088119203923 320.18753865966573,423.76757526025176 320.1001573263202,423.665535133332 319.5589173475746,423.0298015656881 319.4812353422167,422.93898234778317 319.34448355576023,422.7786560714594 316.7165773368906,419.68965003843186 315.17362688004505,417.8754944469547 315.00212644971907,417.6736696009175 314.81035355036147,417.44940163352294 312.5271084374981,414.76624284574063 307.2583344357554,408.5879858349217 306.24051666492596,407.393860849028 305.143123626709,406.1065631066449 303.47425666847266,404.14875938236946 302.78813843929674,403.344238726364 299.8309211023152,399.8765342422412 299.18528955744114,399.1195933133713 285.84105312731117,383.61217583855614 283.7956600036705,381.2358645318891 279.7995659947628,376.59209494892275 278.5155555556994,375.07463282404933 276.307400135207,372.4651263009873 273.5736459947657,369.2341695824871 270.68362490308937,366.0031695481157 269.5363079966046,364.7202129624202 266.575857550255,361.2390328927431 266.4342706630705,361.07305351877585 266.1171055502491,360.70185038947966 265.78132821340114,360.30593743757345 265.2506031219382,359.6812608963228 262.49890668096486,356.4467412632075 261.34189044637606,355.0852439015289 260.2294095645193,353.77751927118516 255.4719619982643,348.1775480725337 255.01484111649916,347.6392059047939 254.54068087472115,347.0817643040209 254.24297267198563,346.7307280579116 254.1402122239815,346.609597419505 253.93955555558205,346.37403853057185 253.4856677830685,345.8402145600412 248.37141310574953,339.8160899845534 248.25248711113818,339.67811822361546 247.51029919285793,338.81899290002184 246.19255955913104,337.2935806213063 244.29443310934585,335.0940352427424 243.0856579983374,333.8198782345862 241.89549511112273,332.3572644731612 241.36069222411606,331.791953921027 240.38816711108666,330.7656292237225 238.72145555913448,329.1347342809895 234.83863688539714,324.4214750886895 234.0400880072266,323.45120789372595 233.56351021514274,322.87351990147727 231.92677046067547,321.11581510701217 230.9412837831769,320.0581090177293 229.97036066139117,319.0035480434308 229.2713099947432,318.244293589436 228.99300044809934,317.9414310770808 228.5407146665966,317.4501065090881 227.65070665965322,316.4832033237908 229.97036066139117,316.1397143136128 231.75684289436322,315.875212096842 233.93895867734682,315.4657782455906 236.76102621876635,314.95873995654983 238.12758289079648,314.79503048822517 239.58393844636157,314.74677372927545 243.6155966578517,315.02383604383795 245.46840132283978,315.0933741523186 246.07281800545752,315.1169573389925 246.94418466149364,315.1494649814558 247.53890201624017,315.1719174622558 248.89002131926827,315.1528167008655 249.88846956100315,315.13932905870024 250.67245488369372,315.1921085403301 254.24297267198563,313.9802774194395 254.90316777245607,313.7562763777678 255.64430711476598,313.38835209497483 255.95820999110583,313.10002118110424 256.8441984569654,311.23684595670784 257.2632793316152,310.05899744300405 257.8078106738394,308.6893632202409 258.1573360072216,307.8109856711235 258.8499204553664,306.0666591404588 258.9049124410376,305.92870843660785 259.20760137971956,305.16812049702276 259.2495735466946,305.06271866569296 260.06676377612166,303.0041833880823 260.36531666491646,302.253763065557 260.5206806756323,301.8903038838762 261.27393689611927,300.12570176360896 261.7545051021734,299.1542059483472 262.0401255538454,298.75936301855836 262.2553457778413,298.462049136695 263.2052099982975,297.07215639116475 264.2510480498895,295.5917922591907 265.0078577778768,294.5211718720966 266.1195231004385,292.94725837826263 266.4067746702349,292.6746131273103 274.45150799653493,287.42212351743365 275.4062364445999,286.7983888274175 277.32781021867413,285.57106777618174 278.42412555392366,282.99637514335336 278.5155555556994,282.8008589284145 278.61668488534633,282.58466409437824 279.5730444516521,280.54281891149003 280.4241968925344,279.6801304863766 283.1864082204411,276.87758342619054 283.5213699983433,276.56235037586885 283.8692642132519,276.3626285181963 283.95990778307896,276.3110118008335 286.34183554851916,274.76953281165333 286.4834224357037,274.6741745278123 290.41237845341675,272.039912257751 291.1988978346344,271.5125878290273 297.14152755215764,267.5285773068317 298.24835777422413,266.7835799388122 298.8114722133614,266.4010030027712 299.6383908977732,265.8400613965932 300.2476426810026,265.32617343746824 300.49035889771767,265.12082797754556 301.40299867035355,264.3512252419605 302.0445815467974,263.88111769023817 302.17568267392926,263.78462415456306 302.78813843929674,263.28967512230156 303.72102155396715,262.53581901971484 304.69191554852296,261.75158644258045 305.19435821508523,261.3454130659229 305.7380739983637,260.95725350099383 306.2291862186976,260.71603685681475 307.7947684408864,260.02376959711546 312.45431978674605,258.1893062661402 314.0935062187491,257.62269068456953 315.5879017813131,256.97755190281896 315.6704188871663,256.9416030969005 316.44391844968777,256.64767091779504 316.88082511664834,256.48275045171613 317.2481471147621,256.34359998308355 317.6648104393389,256.15290918108076 318.3865219982108,255.8230270666536 320.2215299982345,254.86036004970083 321.1900064427173,254.26901650964282 323.2540117902681,252.8732541934005 323.805795783177,252.57818605547072 324.62214132619556,252.14279327221448 324.84304133686237,252.04520443023648 325.81556644977536,251.616556283494 326.35601999645587,251.37759228504729 327.0607504497748,251.04422984074336 328.50737755035516,250.3598922099336 329.23881756456103,250.1186649534502 330.6805804374162,249.30522805964574 331.5471119930735,248.79130482429173 332.68630243558437,248.22466713533504 334.0391111113131,247.5021092435927 334.6702082277043,246.90965701150708 335.181534663192,246.47316335252253 336.406504448154,244.716032071854 337.0295042276848,243.822879347892 338.0408557796618,242.30021819419926 338.588620231254,241.412671350874 338.9672726757126,240.14363364578458 339.2876708977856,239.02267709380249 339.3345946739428,238.87228674226208 339.65371130313724,237.85235249233665 340.1687368819257,236.20620529231383 340.3936564337928,235.65303008980118 340.57005021872465,234.72284134919755 340.5652151182294,234.29080952942604 340.54578733514063,232.6435876917094 340.51747578324284,230.28372292016866 340.45680401066784,225.10287052992499 340.5619820088614,224.1737317731022 341.3370544356294,223.4139763872372 341.8249335468281,222.93708292441443 345.8841460052645,220.5188286967459 346.6835104426136,220.49753893486923 346.77170733513776,220.5087291895179 348.10992332804017,220.671452398994 348.934395335149,220.77244738448644 349.19572377600707,220.82181371789193 349.71191443922,220.92058675235603 351.33333333337214,221.08993494469905 354.0332417706959,221.37171035882784 355.9233000106178,219.9117667611572 358.5406913423212,217.67640665639192 358.5617211165372,217.27573395043146 358.5730224356521,213.2055838032975 358.5770711041987,211.57163039245643 358.5406913423212,210.9577587657841 358.47110667382367,209.79404455266194 358.4743397831917,208.70995314768516 358.4775728924433,207.7920227907598 358.62481043918524,206.22873340477236 358.88130377966445,205.1244660462835 359.05790145439096,204.18737205967773 359.8020408889279,200.24042710277718 360.0755153351929,198.29666606005048 361.5100255573634,195.9106881323387 362.03189600713085,195.14866185496794 363.01088733877987,193.59316888806643 363.21477711654734,193.26772616646485 364.05136600194965,191.70656464924105 364.5562553459313,190.8828296951251 365.3418426596327,186.64160863525467 365.8184204516001,184.5327276760945 366.33621310594026,182.61013295286102 366.61131867044605,181.5854350886657 367.00698134768754,180.68307836086024 368.0352848782204,178.09607201075414 368.95281800534576,176.08360452222405 371.4973915591836,171.61544393072836 372.23512302944437,170.5177252991125 372.6333488924429,169.92508364992682 374.138230215176,168.69603549863677 375.4529988835566,167.62190118990839 375.6059162169695,167.51167113310657 377.0655340088997,166.46019992418587 382.08023222058546,162.09283994010184 384.385322666727,159.97368232771987 385.2647866597399,159.27886255673366 387.15484489966184,157.38188728981186 387.94043221347965,156.6275783693418 388.86684910941403,155.73753363714786 389.78516866848804,154.72730907908408 391.156560440897,153.01096824597334 391.5926806756761,152.37456047040178 392.37989910761826,150.89847911900142 392.6501695716288,150.03868019027868 393.4430386631284,148.3919325976167 393.97865710943006,146.94730651169084 394.5522864355007,144.00965653324965 394.9884066702798,142.49650731345173 395.2529682206223,140.99676515924511 395.68908845516853,139.31075641827192 396.2515329706948,136.8433697868022 396.38892555376515,136.2405017890269 396.68019666487817,134.55559128767345 397.1680757761933,132.75945311947726 397.4197048889473,131.7547091235756 398.21906932629645,129.73858077684417 399.87852822756395,125.88179110025521 399.91735466674436,125.79154682462104 400.7240008817753,123.86399699887261 402.1949491199339,120.34566854382865 403.2847691094503,117.85007975652115 403.6884999964386,117.13266745512374 404.28883888362907,116.57586415210972 406.05912644276395,115.23540048592258 407.65870000363793,114.1374247612548 408.9273313280428,113.26735011086566 409.7954940018244,112.56681810092414 410.14260178490076,112.28616823122138 411.2858408961911,111.46996186161414 411.7461948872078,111.14218521449948 413.3384866702836,109.21900433988776 414.5359313352965,108.1198695001658 415.81912621529773,106.74682296527317 417.7974396018544,103.16426307533402 418.15334377263207,102.51984203717439 419.33217621350195,100.53370161750354 420.44713289977517,98.23098692379426 420.6065164516913,97.7931323585799 421.1202604373684,96.38073978689499 421.1453388800146,96.28195606777444 421.2222344534239,95.98330078838626 421.3249949013116,95.58137462497689 421.68742354481947,94.16104690532666 422.0175502222264,93.16628706280608 422.25543133867905,92.44993293832522 422.739261781564,91.51923122280277 423.62277444277424,90.78039878746495 424.1511111110449,90.42292578902561 424.79269398748875,89.9888564942521 425.1381706526736,89.78675673238467 426.7580166826956,89.42746335704578 428.387503786711,89.13890459219692 429.0290866631549,88.91994892951334 429.91991022927687,88.80770224431762 430.10274110594764,88.75940017949324 431.51217288547195,88.39226375124417 432.5219224463217,88.05317842506338 434.14171022211667,87.10216865863185 438.15233865962364,84.90486416948261 440.65566822409164,83.62485563621158 442.5902035627514,82.63118404109264 445.0522600108525,81.51175752881682 445.95680244639516,81.21530709957005 448.42369399475865,80.59022962272866 449.2093395628035,80.39115358522395 450.02326755563263,80.19017756881658 453.3963617848931,79.35591511439998 453.7054295609705,80.78975013189483 454.5807866312098,84.85692510881927 455.1666493441444,87.57375323865563 455.3414120108355,88.38555399730103 455.69655887654517,90.03824965027161 455.7313657742925,90.19770620984491 455.75889089424163,90.32458424341166 455.81551399827003,90.58844506903552 456.75244578148704,93.9106900349143 457.3730280108284,95.49039144720882 461.82863132457715,96.6053068798501 462.86427488725167,96.86463391705183 472.6963060054695,99.22160316072404 475.163197553833,99.8129234071821 476.4350619876059,99.99031919788104 476.5588813369395,100.07341911777621 476.7239155485295,100.86157354636816 477.4561419948004,102.19985385477776 478.04145129257813,103.16426307533402 478.8024844515603,104.41834091808414 478.85508801427204,104.47338956373278 479.559789340361,105.22107179416344 480.75968068279326,105.89806191803655 482.4441597724799,106.62221694749314 484.0202860090649,107.1026954568224 484.51460221153684,107.15548013371881 484.89165266486816,107.19702886044979 485.9766375538893,107.31379367772024 487.07053533860017,106.95452646299964 487.5754246828146,106.97473500535125 487.91198845161125,107.05896419205237 489.27933155570645,108.70704537554411 491.2494602240622,110.77843748830492 494.3628280037083,113.32239673292497 495.81513489072677,114.80428586760536 496.57080866140313,115.58341979485704 496.96888888895046,115.84018020512303 497.665522005409,116.28956078365445 498.3669902222464,116.4759570864262 499.28609621326905,116.11439985927427 500.84279466676526,114.97269831673475 502.94641288544517,114.08581367618171 504.2304524516221,113.68387732160045 506.87289309874177,113.7265565682319 506.9076999966055,113.72542492166394 509.96526023116894,113.66253769554896 513.499340003822,114.12732079083798 514.6983866596129,114.37991992279422 515.0099011129932,114.5640544188791 515.7712546703406,115.01424569421215 516.7486148836324,115.99097074195743 517.665303324582,116.70495113253128 519.2220017778454,118.18459660880035 520.5893448818242,119.72711864847224 521.2414717724314,119.85442568274448 521.4518277688185,119.89548723882763 522.8628906668164,119.99426126806065 523.535231772461,120.14812073297799 524.4527648995863,120.32546112377895 524.9859075414715,120.55000587977702 525.6590933332918,120.9934367010137 526.4795166720869,121.77590500877704 527.4690228906693,123.4666033735266 527.5928131130058,123.72929627378471 527.9107937850058,123.93136754032457 528.33150577778,124.03684867429547 528.7231197867077,123.95270625618286 529.3962764515309,123.61363060452277 530.4909315414261,122.72677779768128 531.2062060090248,122.04983499960508 532.9934455468319,121.14163746882696 535.1254044444067,120.20308495202335 535.2022708905861,120.16941936936928 537.3908528924221,118.85932744620368 537.8924800000386,118.52024462027475 538.4847215503687,118.11948771076277 540.2728057742352,116.27945690357592 540.8197837938787,115.85844805330271 541.429822008824,115.22194205858978 542.124008448096,114.71787693881197 543.7017366756918,115.22420533769764 545.5140837831423,115.81011100084288 545.5318804481067,115.81580960022984 547.0254313243786,116.09087800886482 549.2900933405617,116.40745282452554 550.1234491164796,116.71618662716355 550.7634008746827,117.0271428807755 552.0878979982808,117.78044425800908 554.1712728746934,119.78774105425691 555.5386742330156,120.52753524755826 556.6956322133774,120.73862169618951 557.1997059982968,121.03498303936794 557.9359811131144,121.94318097271025 558.5881080037216,123.63270614837529 558.7564044515602,124.37252894014819 559.0929682205897,124.81599313474726 559.7459106703755,125.0696722305729 560.6925417814637,125.36606865597423 562.059884885326,125.93630945723271 562.3171646578703,126.02501795091666 562.7330706773791,126.1687296826276 562.9717090987833,126.54813470848603 563.1157717903843,127.33620246133069 563.0696344461758,127.75379649724346 563.0486046720762,128.5048415691126 562.669952227734,129.7936236326932 561.8503444480011,131.7154277592199 561.8024303503335,132.05829081009142 561.682048000046,132.9199725263752 561.8357517652912,133.69791627244558 561.9976111218566,134.2727039513411 562.4741306597134,135.60404968180228 563.0287691093981,136.8433697868022 563.126257550437,137.06115032732487 564.3253624605713,138.66748283972265 565.292994218762,139.55427692621015 566.2817140052794,140.27275393571472 566.7679619983537,140.4523425445659 567.4807897886494,140.7161484308308 568.2178513351828,140.63193101942306 568.6919533226173,140.39847405831097 569.7866666666232,139.81642692215974 569.9630604515551,139.72267206193646 572.2980644408381,138.05346573499264 573.7612066133879,136.8433697868022 574.086964224116,136.57394237309927 574.3798373262398,136.35167564317817 575.3701591041172,135.60291813797085 576.1687662365148,135.26389930705773 577.4729617636185,135.24369313911302 578.7359715556959,134.90471421473194 580.9237379981205,133.91234541579615 581.8914280106546,133.785490353941 581.9202929778257,133.785490353941 582.9852966686012,133.77987300499808 583.253906887141,133.75966671243077 583.3574828943238,133.96734690491576 583.5848199963802,134.34007157979067 583.8324004408205,134.73405261331936 584.997484885389,135.87679198390106 585.39716710418,136.23605645040516 586.1973471005913,136.63791474112077 586.2740970383165,136.8433697868022 586.3235839999979,136.97580009995727 586.3915375502547,137.78403967560735 586.5776306631742,138.34418852149975 586.5893980161054,138.4031493551447 586.7014208853943,138.9661255805404 586.9126215679571,139.38369944388978 587.4935326720588,140.22001693141647 587.8802824533777,140.77789707080228 588.4272313459078,141.56030107761035 588.8268844373524,142.4897586563602 589.2265666561434,142.72212249040604 590.27761846059,142.34161144087557 591.687836672063,141.454746798845 592.00337066676,141.454746798845 592.8868833280867,141.87688281422015 594.0341711075744,141.80838577990653 594.059249550337,141.80511246976675 595.0050651022466,141.68375749752158 596.168547555455,141.20108496781904 597.4946466702968,140.99001646012766 597.9153586631874,141.01135366398375 598.3360997833079,141.07423374638893 600.5230506666703,142.0878697220469 601.2730737779057,142.21362930774922 603.3977217708016,142.12941242015222 605.8387484444538,142.0878697220469 606.9326462293975,142.17208662407938 607.7061166649219,142.2776001772727 608.2433662293479,142.58852341602324 608.8259084516903,143.10154184087878 608.9238046719693,143.2216433575377 611.3931428978685,146.2603291926207 613.2653462187154,148.22580649430165 615.831794232945,150.84574444202008 618.3318615609314,152.94768718729028 618.4192428943934,153.0211109937518 619.3027555556037,154.16158147511305 619.7234966754913,154.37255761778215 620.6919439928606,154.49940183275612 621.8069006791338,154.22550876106834 625.6912922171177,152.72478902252624 630.2772102258168,151.18247839127434 636.665776014328,149.4269146331353 637.1981322240317,149.28095382533502 639.016129991156,148.8521631329204 639.4498035483994,148.83644362183986 640.0809006647905,149.0699732210487 640.8382055538241,149.40780072286725 642.6044444445288,150.48763324983884 643.0818086684449,150.77951290417695 646.0471233422868,152.11076735815732 647.0155997867696,152.04789015842834 651.4121624463005,151.68873010511743 656.5660299947485,151.32952910655877 662.4707653404912,151.85598528652918 666.2216964552645,146.92819240444805 666.8770273281261,146.06700533960247 667.7929293370107,144.86390031315386 669.370628437493,143.94342311500804 681.3090448499424,136.8433697868022 683.1210424321471,135.76569873502012 683.2173366612988,136.8433697868022 683.8961731129093,144.40927925502183 684.1866286648437,147.43893860612297 684.3428082347382,148.83422106871149 684.4771133440081,149.84895585099002 684.6162535538897,150.90522754041012 685.4156179912388,152.068094915885 687.1616426666733,154.0953104404034 689.4764324410353,156.27064763230737 691.1496393386042,157.52432763861725 693.1990228765644,159.0599706788198 694.9588246756466,160.2744806810515 697.251769116614,161.69102413376095 697.8173302329378,162.15906836587237 699.5665588907432,162.89424711768515 699.7558851130307,163.25347127119312 699.9452113352017,163.65528446994722 700.1766262329184,165.07067662785994 700.5763084515929,168.89358388533583 700.7123029334471,170.5177252991125 700.8125293226913,171.71419674379285 700.7720717653865,172.5851915680105 700.9136877795681,173.01389959082007 701.103014001972,173.41577731404686 701.4395777707687,173.73227676202077 702.1540075520752,173.81644219061127 703.4566593421623,173.82989734277362 704.2228771273512,173.61215005768463 707.3612942222971,172.60539460211294 708.6776940089185,172.02176866616355 709.5652553386753,171.46840560430428 710.5143331272993,170.7309498677496 710.6886588871712,170.5177252991125 711.2182188942097,169.87009037454845 711.9520473314915,168.7936985277338 712.7174495575018,167.13362367812078 713.1462588871364,165.78111727710348 713.3906062222086,165.28952263417887 713.727169991238,164.95163660059916 714.2174957795069,164.73614410025766 715.4222222222015,164.6920596366981 715.9012175645912,164.67444201180479 717.5234228908084,164.49034583749017 718.2887959894724,164.2445069164387 719.8803013404831,163.3522275137948 721.0122100054286,162.8605875041103 721.5324493368389,163.10638743051095 722.6344153315295,163.875263173657 723.5527348908363,164.45894926349865 724.7469464462483,164.95163660059916 725.4815904427087,165.35126497229794 725.9411580017768,165.81259449315257 726.4080073386431,166.4467039530282 727.5172551112482,167.93170071649365 729.0569724586094,169.49184458935633 729.8126462294022,170.0530510538374 730.403256661375,170.35836233728332 730.5286780018359,170.42345710942755 731.0497328924248,170.44697365234606 731.5473113314947,170.40099113166798 732.3855313351378,170.28761064365972 733.3329780054046,170.08331551682204 734.4001371023478,169.78701454319526 735.3281559895258,169.40092974633444 736.2723986775381,168.94635501632 737.7497548800893,168.6276269070804 739.6948051059153,168.36603356717387 739.9456186596071,168.3323747186223 741.1455100018065,168.03720298153348 741.1997155555291,167.7476070325938 740.3987491271691,165.8316666939645 740.2854446650017,165.2401449152967 740.250637767138,164.519560406683 740.3307664496824,163.44536705885548 740.4667026775423,162.62715209583985 740.4667026775423,161.42162452451885 740.3121542258887,160.18691623408813 740.1495084373746,158.55712877149926 740.0669913315214,157.57386857445817 739.8784806685289,156.32903835282195 739.8323724515503,155.0101723826374 739.8825293369591,154.28385956858983 740.194014663226,153.35226541769225 740.5791333261877,152.37456047040178 740.8283448888687,151.96484858699841 741.3210882276762,151.05676389980363 741.5047346631764,150.47304531937698 741.4618595555658,149.25961735419696 741.229629098787,148.02149264723994 740.7700906668324,146.08519007306313 740.7094188942574,145.47006038867403 740.9537371023325,144.97838386287913 740.9707473351154,144.95256142225116 742.0557322241366,143.3484934476437 743.7386384496931,141.07423374638893 744.6569288818864,140.02802180871367 745.5145766686182,139.16705253132386 747.106052892399,138.0601741046994 748.369849116425,136.8433697868022 748.6368282169569,136.58626806765096 750.4726517760428,134.58812330983346 751.2380540018203,133.81915403256426 751.8197806649841,133.75740360771306 752.7688584533753,133.97183269821107 753.4112568888813,134.21770253201248 754.268875548616,134.24797149962978 756.1662155663362,133.81802248040913 756.9623468942009,133.75627205520868 757.6662326614605,133.97183269821107 758.4623931164388,134.55559128767345 760.3451404515654,136.24725062126527 761.8435555555625,136.55373631510884 763.0198830650188,136.8433697868022 763.3436017778004,136.92306237330195 763.9674171165098,137.09255047433544 767.7523104426218,138.12079189385986 768.1997611235129,138.2408958953456 773.1400395662058,139.5655517661944 774.7307002312737,139.78106679592747 776.6902848853497,139.8416841518483 778.8020295680035,139.62616917636478 779.8432946632383,139.41178553382633 781.1588497635676,139.0727316546254 782.9348171093734,138.55073322926182 785.0465326650301,137.6583181877504 786.5513557335362,136.8433697868022 786.8063053369988,136.7052412958583 788.1227051235037,135.96775989892194 788.2399999999907,135.87792352645192 788.765074432129,135.4760639668675 788.9908386704046,135.4569893613807 789.1324255574727,135.44575474126032 789.4083175538108,135.4760639668675 789.928586012451,136.0912595988484 790.340967651573,136.8433697868022 790.4578547484707,137.05650294356747 790.7546308835736,137.597700282 791.2449566720752,139.13448071602033 791.7037086720811,140.4568282169057 791.8566260053776,141.87013413954992 791.8873551075812,145.18944887403632 792.0686131200055,146.2412554413895 792.1632471041521,146.7889786186861 792.8056746666552,149.48526660358766 794.4594537814846,155.32556457427563 794.6431293440983,156.2785273496993 794.673829319072,157.23152676195605 794.7045875485055,158.00042126572225 794.9497504426399,158.92306718416512 795.469989774283,159.8445781370392 797.735438222182,164.70139374467544 798.1335184498457,165.7766724836547 798.5008404480759,167.22118559875526 798.8066751147853,169.035007257713 798.8981051164446,170.38749538146658 798.9111249351408,170.5177252991125 798.9903215502854,171.3090028652805 800.1845331058139,174.46737977280281 800.9192062293878,177.0802845119615 801.3164417707594,178.77055415901123 801.4086873315973,179.93898404709762 801.3164417707594,180.7425944933202 801.2258564551594,181.5361011158675 801.2258564551594,182.45752553100465 801.4095028907759,185.47098905511666 801.5931784533896,188.05234049563296 801.7768248890061,189.0052141615306 802.0527168853441,189.9277412852971 802.4807397832628,190.91090977849672 803.1846255502896,192.17010623577517 804.5932708978653,194.38327976607252 806.2462344533997,196.8421984484885 806.8263299982063,197.83204541687155 807.2244102259865,198.69280495273415 807.5302448925795,199.55360181361903 807.959054222214,201.48838364018593 808.7004848356592,204.18737205967773 810.5003946666839,210.73895425902447 810.9446122382069,212.7981973713613 811.3652951041004,214.60383835836546 811.4955515449401,215.1649396996363 811.7398988800123,216.6405867600115 811.8936317726038,219.19134583038976 812.2908964408562,221.60957298928406 812.512582883588,222.37648446316598 813.2860824462259,225.05233355337987 814.2505102222785,229.93809115618933 815.2303171129897,232.7647756449296 815.78128554672,234.97753576154355 815.9957193387672,236.63710260711377 815.8751039716881,237.85235249233665 815.7821302330121,238.7881440469646 815.3225335467141,241.30724162055412 814.0061628872063,247.44487164338352 813.7917582222726,249.44208018336212 813.73755266855,250.0625589811243 813.6396273209248,251.1935623776517 813.7319020089926,252.5142040870851 813.9454911147477,253.68223586661043 814.1906248817686,254.78850219299784 815.1704608997097,257.15483194682747 816.4868315591011,259.521098063502 817.09850089252,260.3491221278091 817.5580393244745,260.9639584478573 818.0475495537976,261.3634275321383 818.9658399858745,262.03880747716175 819.4254366719397,262.25421293085674 820.00716333522,262.77711462334264 820.4052435626509,263.42223787290277 821.4764513281407,267.0393713794183 821.9352324552601,268.35992621729383 822.3968680391554,269.5330510602216 822.7620928854449,270.41867676225957 823.0072557796957,271.4946549006854 823.0109840499936,271.5125878290273 823.1601439858787,272.23172138555674 823.0679275519215,273.2145539690391 823.1294440107886,274.32077098696027 823.3130904462887,275.08929176209494 824.200651776162,276.2875055926852 827.6902253227308,279.9740345632308 828.2461162381805,280.78066350572044 828.5786313388962,281.2641872310778 829.8950311254011,283.4765826490475 830.9969679928618,285.1357750078896 831.6701537849149,285.7797075456474 832.5884733441053,286.11742411053274 833.8732702153502,286.41697451105574 834.8838353352621,286.846651184489 836.0165595591534,287.6151320017525 836.7851948944153,288.25425189890666 837.0877964516403,288.5058203336084 838.036845112918,289.4582966763992 838.7407308800612,290.50276924629 839.4753748765215,291.79399634100264 840.1485606685746,293.114375104371 840.66958643205,293.8199957306497 843.1947613299126,296.4316060154233 843.7457588907564,296.98468205018435 844.3266991218552,297.8147581500816 845.643069781363,299.93496484548086 846.3478002346819,301.2867988937651 846.8065231075743,302.6059948737966 846.868039566325,303.1287282201811 846.9287113386672,303.8040718557313 846.592118442757,304.542170248169 846.3281103076879,304.82433266809676 846.0062848568195,305.16812049702276 845.7385484516853,305.45415902743116 844.4286148836836,306.6107479001512 844.2457548801322,306.77228221698897 843.2036450987216,307.5586297248374 844.2142102187499,308.1419273377396 845.2870491023641,309.089803138515 846.5710886684246,310.56939782656264 847.5962173440494,311.951378467842 848.2855686827097,313.02600003784755 848.4789144463139,314.6099183160113 848.5921606544871,315.51851727382746 848.7507577742217,316.10962972498965 849.0509417813737,316.77375119313365 849.6561157690594,317.8135422192863 850.1998315519886,318.63131094444543 850.7961217708653,319.44564447150333 851.7168880072422,320.40244044881547 852.1918055538554,320.81077561859274 852.9782375538489,321.380553857598 854.3642220089678,321.9930134853348 855.6409215431195,322.64023951935815 856.2841937920311,323.0395659696078 857.3756448995555,323.69688437489094 858.4573675519787,324.39118963090004 859.843352007214,325.0372785689542 861.0577777778963,325.7169218813651 861.2123262293171,325.80337628221605 862.9093008498894,326.57948586082784 863.012556458707,326.6267307440867 864.0999588978011,327.0585162433563 865.1298935466912,327.4006571448408 865.9778420054354,327.785358130699 866.2270244410029,327.92111580021447 866.2496853333432,327.93569298746297 866.611356672016,328.17122952174395 867.7424789050128,329.10335916047916 869.8865546809975,330.6635900930851 871.1114953387296,331.4498596340418 872.098584007239,331.8929023310775 873.1528106667101,332.16655306867324 875.6714902186068,332.30788061144995 876.6237719893688,332.269762562355 877.5420915484428,332.61185568512883 877.5760828872444,333.227678613388 877.8147795627592,335.0054844758706 878.1100993423024,337.02328712138114 878.5679192749085,338.81899290002184 878.5979784533847,338.93673568806844 878.9385617637308,340.1335418308736 879.4143239965197,341.3313918519416 880.1845904497895,342.8590397114749 881.1846115556546,344.3406074262457 882.0349775645882,346.46040476637427 882.3076073246775,348.1013169887592 882.2728295538109,350.3231120969285 882.2728295538109,352.4091832989361 882.6215393282473,355.9376089312136 882.6264326827368,355.9510539145558 883.1919646720635,357.4449362892774 883.7704582257429,358.9152708799229 884.1110706630861,360.07717487443006 884.7575468942523,363.1893122541369 884.8255004443927,363.8050570463529 884.5528415574227,365.10263381683035 884.1790242134593,366.53929052245803 883.7364668871742,368.0779216232477 883.3286873316392,369.4797993922839 882.9888613263611,371.9414129112847 882.9597342151683,372.4651263009873 882.8521386666689,374.4030012876028 882.6822111004731,377.3086541428929 882.6482488889014,379.56611052015796 882.7841851165285,381.7293198434636 883.2607337814989,384.77170002576895 883.1247975538718,386.3102551038028 882.8877319965977,387.60884107404854 882.9897060124204,389.3525774620939 883.3974855681881,390.7890896227327 883.4314477796433,391.77923003421165 883.3011913385708,393.0912294507725 883.2955115520163,393.1461717936909 883.0576595627936,394.1722712343908 882.5851304392563,395.15343588386895 881.4580860019196,397.0103915781947 880.2452622222481,398.8303153831512 879.916766663082,399.64332838676637 879.7573831111658,400.5997656455147 879.7662960073212,401.42056364857126 879.9273106773617,402.5475466841599 880.3698388765333,403.7540884457412 881.1522513352102,405.5660897665657 881.4554936889326,406.1065631066449 882.2072935538599,407.44653939676937 883.1264286719961,408.53978822001955 884.5552591076121,409.90663493209286 885.3303606612608,410.7271994132898 885.5868540019728,410.99878271325724 885.99544911657,411.47756459598895 887.7657075484749,414.4522799924016 889.4664104392286,416.8798504763399 889.8652770986082,417.47519488231046 890.452712675673,418.3497821703786 891.713246663101,420.64047782466514 892.0796948479256,421.57523685658816 892.2221555485157,421.93887885659933 893.0352971093962,423.42670132860076 893.5490993493004,424.36520339600975 894.1332144356566,425.69494691869477 895.5563942114823,428.8623419041396 895.8930162347388,429.7077458165004 896.3396222293377,431.3480510187801 896.7206922239857,433.2125582093722 897.3024188871495,434.7508041296387 897.761200014269,435.5961470300681 898.3809375574347,436.54356204759097 899.435979775968,438.1501995633589 899.8445748906815,438.9708697173046 900.2169941334287,439.7433457010775 900.8656257707626,441.0887048562872 901.2742208853597,441.7041699606343 901.8179366685217,442.2165518364054 902.5671442204621,442.45649712969316 903.2435339947697,442.3566847599577 905.0850082132965,442.1145195181598 906.5826660124585,441.8409935851232 907.8755602204474,441.63583884126274 908.8618333296617,441.669459530327 909.6029726720881,441.7670926930732 909.6442166613415,441.7725817824248 910.2583326720633,442.02705744531704 910.631334456848,442.3533348091296 911.5480228977976,443.81532158795744 911.7882924374426,444.336618652218 912.1289340020157,445.36019967502216 912.1839551148005,446.2402958723251 912.2624526792206,446.6259776655934 912.5108486828394,447.84569832956186 912.6928640002152,449.98028545221314 912.94612423121,451.1708900365047 913.0140777813504,452.44559725455474 912.7656817777315,453.209029999387 911.8910528854467,454.7684577709297 911.2785971201956,455.6574792395113 910.428231111262,457.5722463224665 910.2575171130011,458.4265090764384 910.0536273352336,459.51956709084334 910.0196651237784,460.9903688362683 910.0536273352336,461.8782373503782 910.2583326720633,463.4163407396409 910.4630380088929,464.20217734907055 910.7348813370336,465.12478145124624 911.075493774144,465.9790174458758 911.075493774144,467.0730904957745 911.1094851129455,467.82416816527257 911.0075110968901,469.46534403203987 911.1094851129455,470.38792799494695 911.0075110968901,472.09744927304564 911.0075110968901,473.1893153528217 911.0116762737744,473.3753953773994 911.0415315628052,474.7273062321474 911.211400874774,476.5489033207414 911.2793835521443,477.40305848710705 911.620025116601,478.77068511542166 911.4832733296789,479.658488157962 911.5520715664607,480.2738548121415 911.8918684445089,480.7524991382961 912.5868995698402,481.2323127902928 912.9809020019602,481.50466411799425 913.5594246828696,482.15259189589415 913.9679906703532,482.8699673007359 914.341778887203,484.0671485821367 914.3757702257717,485.16009036428295 914.341778887203,486.048999780789 914.3765566578368,487.8939969223575 914.5788735715905,488.5352089134976 915.1614157938166,489.4801158110495 916.1128820054,490.5606851068442 916.7593291094527,491.24216197570786 918.0935255610384,492.5816651651985 920.2400188872125,495.00166995677864 922.3493168925634,497.2916778048966 924.0508062151494,498.93148292967817 925.9432820053771,500.53209597279783 926.5338924374664,501.01182991766836 926.8413873494137,501.50391030003084 927.1479793209583,502.66508689912735 927.4198517759796,503.6223260645638 927.7944555521244,504.4427734033088 928.5768388835713,505.4324471526197 928.8403809849406,505.7913627715898 929.0534166756552,506.0814404458506 929.3600669013103,506.56003354804125 929.411243235576,507.0027545230696 929.5299362132791,508.0294185927487 929.9385604551062,509.5336164002656 930.076069546747,509.83510849875165 930.2961831253488,510.3159133727313 930.9709417814156,511.5331330411718 931.3689928818494,512.8545681961696 932.7161508977879,515.1129748992971 933.4661448817933,516.5879566115909 933.7720086757326,517.4487484777928 933.875555555569,517.9805382987834 933.9540239931084,518.383455056115 933.9629368887981,519.2823290088563 933.9443246650044,519.9570269710966 933.875555555569,520.4101734303404 933.8512926721014,520.5700716706924 933.5794493440771,521.4240709233563 933.1772913209861,522.3274524599547 932.6012444444932,523.5221380760777 931.0469635414192,525.3321904985933 929.9393468871713,526.5246825047652 928.4757095539244,527.9592479008134 927.5913813333027,528.7460039024008 926.0945682204328,530.0437825785484 925.0734882133547,531.034480961971 924.4400026738876,531.7237512627034 923.9416669299826,532.6493247252074 923.7805648782523,532.9486899512121 923.2822000072338,534.6510301035596 923.1171366685303,535.418721304799 923.1381664427463,535.9174287898932 923.2408977636369,536.3948330232524 924.0686320072273,537.2443382957717 924.8016448854469,538.1408826453262 925.6617102222517,539.1528900925186 925.804928227677,539.3209658663254 927.1690382222878,540.3800099947257 927.4804652943276,540.6254655015073 927.7960866703652,540.8742289966322 928.9530737778405,541.8996192480554 930.3139506631996,542.8567026981618 932.1513762132963,544.2564349435852 933.875555555569,545.4014699923573 934.3634346667677,545.7255903349724 935.8610633386998,547.1017857738188 936.9161055574659,548.2638724598219 937.4266455608886,549.3228369788849 937.9711477759993,550.5185991657199 938.2090288924519,551.3030223951209 938.6855775575386,553.5924553622026 938.9234586738748,554.75455111888 939.1621553493896,555.2330073018675 939.0593949013855,557.8978214407107 938.7875224463642,559.2638621089864 938.0730926649412,564.2515270950971 937.4274319930701,568.3090974928928 937.393469781382,568.5220107492642 937.1887644445524,569.7859725989401 937.1548022329807,570.9916778403567 937.1207817670656,572.9391721426509 937.2907093333779,573.825499112776 937.338623431162,574.2434496366768 937.5294060090091,575.9096374383662 937.9379719964927,576.8329841052182 938.4477255680831,578.6089945724234 941.3749711076962,584.6551093402668 941.9186868906254,585.7823254292016 942.9397668978199,586.7044242067495 943.7908902115887,587.2164980995585 945.3217237903737,587.8664007924963 947.3978168888716,588.7884916042094 948.361429105862,589.8137185319792 949.738500664942,592.0534956734627 950.2093986703549,593.1167855637614 950.3469660159899,593.7677614207496 950.0136062294478,595.759843923559 950.0281406578142,596.7906477928045 950.2150784569094,598.3603605006938 950.2296128852759,598.4813647308038 950.4027444338426,599.9680984172737 950.642256668536,601.8537685414776 950.6414411094738,603.3494759098976 950.642256668536,603.90519601095 950.7595806721365,605.009856321034 951.0152584533207,606.6960789903533 951.124048213358,607.8567492957809 951.3226951112738,609.9753605290898 951.5265848888084,612.5712469883729 951.8583135573426,614.0444229189306 952.0573391077342,615.1278222011169 952.4796822187491,616.0218185560661 952.9902222222881,616.9528360514669 953.4522073315457,617.5925757603836 954.2831455573905,618.3532273740275 955.0315375503851,619.2405167880352 955.2403206827585,619.8208426310448 955.1335115663242,621.2559825679637 955.099520227639,621.8026676498121 955.2006495574024,622.3280971902423 955.357615559129,622.761652328074 956.2565073351143,623.7833874664502 958.1481384391664,625.3126346507925 958.383572878316,625.5029933457263 959.6935064462014,626.3801739499904 960.7194215537747,627.2562221275875 961.0551988906227,628.2230091046076 961.225126456935,629.1113914528396 961.4468128996668,630.0288884018664 961.6822473387001,631.003488153161 962.1337175610242,632.6995710916235 962.2809551077662,633.6058429736295 962.4500379877863,634.644349256123 962.6887346631847,635.6009841703926 962.6887346631847,636.7963187863352 962.552012003609,639.9374315151363 962.4948937386507,641.4654068226228 962.4686793386936,642.165532369283 962.0082962205634,644.3185236549471 961.9654211130692,645.3043168985168 961.9063513316214,646.6407065530075 961.9775379911298,649.0076696131728 961.9743048817618,649.9877980431775 962.0366368995747,650.4896158060874 962.7049293369055,651.4742547149654 963.2340524373576,652.0018375662621 963.5293722170172,652.4006189467618 963.6669104356552,652.913682544604 963.5690433422569,653.7224117966834 963.3724062151741,654.668930069718 963.3724062151741,655.2794549684622 963.7098146703793,655.9985738932737 964.158051783219,656.5216707746731 965.0820220018504,657.4289822877035 965.445295331534,657.9789727036841 965.5334630969446,658.6510246916441 965.4113039929653,660.8823400040856 965.4946366578806,661.7672148924321 965.7495280071162,662.6140206700657 966.3198950969381,664.1317311326857 966.43643266859,664.2807273810031 966.849862883566,664.8049353719689 967.1702611059882,665.3257953685243 967.7131613297388,666.3551730326144 968.1816126578487,666.8815942988731 969.0635233280482,667.6567278656876 969.626637767069,668.1383473430178 970.248851114884,668.764483485138 970.6194353494793,669.2953753375914 970.8006351075601,669.589974246861 970.9664848782122,670.0626382113551 970.8823657814646,671.6721565036569 970.8928806686308,673.2481159624294 970.9664848782122,674.606769915612 971.0488563484978,675.0693435716094"/></g></g></svg>