<svg width="1200" height="800" version="1.1" xmlns:xlink="http://www.w3.org/1999/xlink" xmlns="http://www.w3.org/2000/svg"><g class="geojson-features"><g class="geojson-feature" stroke="#555555" stroke-opacity="0.0" stroke-width="0.0" fill="#111" fill-opacity="1.0" data-properties="{&amp;quot;N03_002&amp;quot;:&amp;quot;上川総合振興局&amp;quot;,&amp;quot;fill-opacity&amp;quot;:1,&amp;quot;description&amp;quot;:&amp;quot;上川郡愛別町&amp;quot;,&amp;quot;N03_001&amp;quot;:&amp;quot;北海道&amp;quot;,&amp;quot;stroke-opacity&amp;quot;:0,&amp;quot;N03_007&amp;quot;:&amp;quot;01456&amp;quot;,&amp;quot;fill&amp;quot;:&amp;quot;#111&amp;quot;,&amp;quot;N03_004&amp;quot;:&amp;quot;愛別町&amp;quot;,&amp;quot;title&amp;quot;:&amp;quot;上川郡愛別町&amp;quot;,&amp;quot;stroke-width&amp;quot;:0,&amp;quot;N03_003&amp;quot;:&amp;quot;上川郡&amp;quot;}"><title>
      上川郡愛別町
    </title><desc>
      上川郡愛別町
    </desc><polygon points="668.6963324018288,593.4094964500109 667.7030542223365,594.2546292964253 665.7296924444963,595.9987001943518 663.6025977742393,598.1358733622765 660.4625349973794,601.1612952255527 659.6651803306304,601.836857825605 659.4127502221963,602.0506856003776 658.5959823360317,602.7224681446387 658.3132163413684,601.9755269572779 658.3107696641237,601.9688044656068 658.1364147769054,600.2045916494681 658.1364147769054,599.1615560484643 658.1538036623388,598.0506584943796 658.0174887822941,597.2302023831871 657.5923057778273,596.1703037131228 657.0922952248948,595.4295198557375 656.7071619982598,594.6656959259708 656.4692808818654,594.0667709154368 656.2989892266924,593.4683678440342 656.2839596374542,593.4094964500109 656.0550496711512,592.5116435606906 655.9073897813796,591.5027422379353 655.7880414436222,590.613839306694 655.7710457742214,590.3059278425644 655.3118859946844,590.1348812811775 654.8357451093034,590.153940305725 653.5764053333551,590.0832765343366 653.0492920036195,589.9464511655387 652.5557476693648,589.7249298170209 651.9432773404988,589.3317950465425 650.8712394525064,588.5516795802396 650.305678336008,588.085614760872 650.1248426666716,587.9678464937315 650.1135122205014,587.9605579001072 649.9889210027177,587.8926790653495 649.5649467733456,587.7003285724204 649.0499794489006,587.5292581216781 648.5062782293535,587.3133653720433 648.4546504249447,587.2897429304139 647.6061631146586,586.901688141108 647.5288888889481,586.8584609406826 646.921676003607,586.5186392844771 646.2286837759893,586.19559481545 645.6878224497777,585.8484421874455 645.1420968960156,585.5197829848039 644.8204607715597,585.3201197596791 644.1821110044839,584.9965067426674 643.4891187769244,584.690276928799 643.0959027769277,584.4053878092964 642.8584440036211,584.2012202244077 642.3980608854326,583.7228222357517 642.0999157759943,583.3156554722227 641.8280578845297,582.9067711096432 641.5254708906868,582.3868755965668 641.3753788871109,582.0548148624948 641.2960803272435,581.7592586369137 641.2394572231569,581.3049591580057 641.1427843413549,580.5130000189238 640.7981086720247,579.975689233921 640.2855443342123,579.2846989132813 639.643524551182,578.5449015692575 639.107105109375,578.0709636688698 638.6018225493608,577.7793148624187 639.1228774400661,577.3861411084945 639.2143074418418,577.3053739500756 639.8692742258427,576.7270795137156 640.0031424284098,576.5840602485114 640.164055153844,576.4121663340484 640.2960592213785,576.2710851240845 640.4643556693336,575.9020359278657 640.4340197831625,575.5643641100905 640.4032615537872,575.3029974368983 640.173900117341,574.6433994468825 639.8215348906815,573.9674824227404 639.1633495609276,572.9073790750408 638.8728794453782,572.4923410250922 638.5973806649563,572.2158030077117 637.334793216025,570.9099978653248 637.0742803342873,570.5571875521855 636.7376874382608,569.8969981705013 636.3703654400306,569.251384623145 636.018422556459,568.7291483381996 635.5438982258202,568.2529101668042 635.3925974472077,568.1271259494533 635.0082797795767,567.8075660008762 634.4419176676311,567.4233255922445 633.9366351076751,567.2084872555279 633.2942366720526,567.0587120552664 632.8350768924574,566.8898537728237 632.4984839964309,566.5678875039448 631.9475155627006,565.7382913245237 631.2893156694481,564.6320936155389 631.1230581190903,564.3903317528602 630.8451126613654,563.9870172816154 629.100325888081,562.1437527963426 628.6565452231443,561.5446458810475 628.5647220053943,561.1603854934801 628.5339637759607,560.6072769845196 628.5800719929393,560.1158606927784 628.5054920249968,559.7562939145137 628.5036278898478,559.7473274503427 628.3810464427224,559.2093383811298 628.1984340195777,558.7665255301108 627.9676162276301,558.1799631086469 627.7382256640703,557.5196856897091 627.2026217813254,555.7111189364514 627.00358166761,555.3885573116713 626.7127183359698,555.1271064654284 626.4829199929372,555.0194037385809 626.0237747768988,554.6817137660692 625.7790196622373,554.4819792239286 625.54925044626,554.1745610639045 625.2434157795506,553.760549031751 624.5852304498549,552.5774159734137 624.0953124408843,551.3942510964989 623.9727455573739,550.8411179333052 623.8659510044963,550.2571020435425 623.8198136604624,549.5967811888258 623.868776334275,549.0312794905622 623.8958791111363,548.7210400916811 624.0030814436032,547.7224358216918 624.661266773357,544.6536208102771 624.8910651165061,543.3940720234823 624.937551985844,542.9261762461683 624.9978596693836,542.3185513035569 624.89064277336,541.4887678807718 624.6151585564949,540.3823878224648 624.1252551111393,538.9690455780947 623.643041223113,536.5261667766899 623.256291441794,535.188242231583 623.1454482204281,534.804786494642 622.9468158863019,533.5956729151949 622.8699494400062,532.3202933800058 622.74777577247,531.5824698498182 622.6826475520502,531.3019191791827 622.4723061191035,530.3990986856807 622.2501973333419,529.3694771295122 621.3502424178296,526.0936860298389 620.979527111107,524.744191820093 620.7651224462898,523.7768009068095 620.6122051129933,523.3464024763671 620.4131649991032,522.9160227084358 620.1231172266998,522.4210992242442 619.2966354489326,521.1916398830363 618.5923127751448,520.0850531178876 618.2403698916314,519.4554548892484 618.0263584426721,518.9638706426485 617.888412444503,518.5026070807653 617.7965892266948,518.0261702478165 617.704751445388,516.7354945275583 617.6129282275797,515.2287627655023 617.6129282275797,514.7680505579337 617.6582208853797,514.3712972466601 617.7043436657987,513.9694920235488 617.6582208853797,513.3852770795056 617.4596031146939,512.5401422559808 617.092266552907,511.2336898864014 616.4951607751427,509.65450143264025 616.4555624675704,509.25886264955625 616.4490525582223,509.1937476907333 616.4033375573927,508.5175036288565 616.250420224038,507.6105927993776 616.0667592249229,506.88833624182735 615.867719111091,506.3506968723377 614.7349948871415,503.9222890685196 614.47487522132,503.46153359208256 614.3522937742528,503.0002106328611 614.336914659536,502.615763380978 614.3215646720491,502.13926367484964 614.2297268907423,501.6627822871378 613.4028373333276,498.74263330179383 613.081623552076,497.39448930934304 613.0343065600027,497.12062772069476 612.9436775537906,496.59472443701816 612.9283130026888,494.93506706977496 612.8518543360406,494.22841410845285 612.6224783360376,493.56724035801017 612.3773154417868,492.798850141 612.2289273742354,492.52825147178373 612.1704838257865,492.4216848934011 611.9642930062255,492.0456297994242 611.7041587769054,491.73803198343376 611.5662127787364,491.72287737063016 611.4954193352023,491.72849468069035 611.3825372160645,491.73803198343376 611.1199999999953,491.93896176322596 611.0613525617518,491.98387994946097 610.4031526684994,492.35262064792914 610.2756778667681,492.4216848934011 609.523266332515,492.8291590938752 608.4674085546867,493.2753666146309 607.5794248817838,493.5363658273127 606.9216473316192,493.70589276691317 606.4010147840017,493.8130845881824 605.3451424426748,493.92084207592416 604.3653501156368,493.89053339796374 603.5700197831029,493.7827758830972 601.0998805617564,493.1204479476728 600.8761552213109,493.06039594692993 598.9837085582549,492.5462752371677 598.6718008889002,492.461531186651 598.5099415325094,492.4216848934011 597.9217777777812,492.2768681575544 597.1725702257827,492.12362531063263 596.2311965582194,491.2777956438367 595.8331163307303,490.98591634910554 595.4811734471004,490.87813602760434 595.0831077831681,490.90901124020456 594.134437774308,491.1239857498149 593.7056284444407,491.10885126600624 593.3844292266876,490.98591634910554 592.9098903324921,490.87870180385653 592.6190270009101,490.9095770162821 592.2363258880214,491.29406165491673 591.3184141084785,492.2931340338255 591.1849245582125,492.4216848934011 590.5530264461995,493.0300870523497 589.7572883343091,493.58352626566193 589.3284644409432,494.01401090435684 588.8693192248465,494.53711687319446 588.0278661120683,495.67424672382185 587.4853736675577,496.4762807111256 587.4768685511663,496.48919193143956 587.3547094471287,496.735030194337 587.3850453334162,497.04259503653157 587.6148145493935,498.01074632361997 587.7309297777829,498.6298086770985 587.7523673315882,499.2365226596885 587.6605441138381,499.5283819499018 587.4141724444344,499.9824242934992 587.2895666630939,500.1872802352009 587.097007331613,500.6761327088461 586.9412646684796,501.1419297842949 586.9161862257752,501.5050861913187 586.9392403342645,502.164519176411 587.0334956657607,502.7869342872291 587.0747542186873,503.27856438574963 587.1560771129443,504.09345811704407 587.2333513387712,504.7108122622594 587.2333513387712,505.3135760479199 587.1653832248412,505.72268352942774 587.125318883569,506.2597802033415 587.1427223325009,506.62007245764835 587.1993745635846,506.91583334698225 587.5998577777646,507.8738035162969 587.5727550009033,508.01860149076674 586.9728093298036,508.16618735931115 586.8474025529576,508.18301678358694 585.8748774400447,508.3138134535402 585.1361993387691,508.47317750816 584.6640779947629,508.7004648731672 584.2000685511739,508.8935072715976 583.6664890027023,509.041657758411 583.1927656675689,509.14380532182986 582.7736556657474,509.200495565834 582.5248664462124,509.22348682617303 582.264339000918,509.2117285547138 582.2016283306875,509.17918116864166 581.9063231147011,509.0265255269187 581.5284862293047,508.74592229467817 580.7586275556241,507.9658503582468 580.2040036693215,507.2233519765141 579.9705790008884,506.9062972465763 579.7407952213543,506.67563248614897 579.3734732231242,506.4758183002996 578.7763674454181,506.2294746317493 578.3172076657647,505.9376315868285 577.7662246684195,505.5531937152555 577.5061050027143,505.43029375205515 576.9401506702416,505.6761137568974 576.1443979947362,506.12225345821935 575.7617114454042,506.2451729187451 574.9506087822956,506.3372210059024 574.7111111111008,506.34602981834905 574.1087478897534,506.36807205012883 573.863584995619,506.4758183002996 573.6953031111043,506.64476131708943 573.5731294435682,506.89055863855174 573.3587247787509,507.5668118390604 572.9760236657457,508.3968492638669 572.6091094471049,508.9350451872742 572.3443294435856,509.25886264955625 572.2571665636497,509.3654749338748 571.7826276693377,509.73420280215214 571.3388470044592,510.0108843330818 570.6806471111486,510.30269730105647 569.1114385636756,510.8060750288423 568.7283296710812,510.9149486713868 568.0770037760376,510.90822109530563 567.7197888853843,510.8661383810104 567.551507000986,510.70788865702343 567.4568438897841,510.50694979541004 567.3860358826932,510.29259578400524 567.4062646613456,509.8570983718964 567.3561514667235,509.25886264955625 567.2881542257965,508.4467919426679 567.0883131164592,506.53533831392997 566.9726056676009,505.8276422349736 566.8779425565153,505.62673563559656 566.7832794453716,505.4471235588426 565.9086651164689,505.0795341829362 565.625884558307,504.8455120668805 564.4794123378233,504.13724034052575 563.5995114382822,503.5299853394099 562.5748196693021,502.7621638193086 561.7382162205176,502.1353238161537 560.5808213333366,501.0476552202017 559.7078089956194,500.0340474579425 559.3081267769448,499.45261377020506 559.238556672004,498.924477925495 559.1714041173691,498.41711053435574 559.0933143324219,497.7194693030615 558.9480865564547,496.2046396275109 558.6086683306494,492.4216848934011 558.5605212160735,491.88284936751006 557.6545224249712,492.4216848934011 551.6853142187465,495.971711557504 550.8964646685054,496.43195015657693 550.4385136640631,497.03350266980124 550.1108482276322,497.464096202224 548.2353826702456,499.9279926432646 545.2830149973743,499.6647645532794 542.7060812231502,499.8443650525587 540.5077998933848,500.0239450792142 540.0235616711434,500.05538367907866 538.5409043342224,499.3897564520885 538.3022222222644,499.2438166249194 537.419102776912,498.7039003614336 537.0404503323953,498.53498661052436 536.7249017741997,498.41822181091993 536.508064995578,498.4260815664602 535.5990661120159,498.6404769126675 535.332888007164,498.71345731656766 532.1386051129084,499.5912391956372 529.8456461085589,500.3623945112631 527.9034503395669,501.11275438053417 527.3459719964303,501.24970091637806 526.8617483377457,501.1862788088911 526.6513777778018,501.0807907375565 526.2096214471967,500.5105554968759 526.1659307804657,500.47384359364514 524.9158971164725,499.42287222101004 523.6326731093577,498.1129032471508 522.6965714489343,497.13016459631035 521.4619023359846,495.61082167876884 521.4129542258452,495.5507709204394 521.1216831146739,495.2942617080116 520.8530583324609,495.13880008863634 520.4663231146988,495.0860433120397 519.9193742222269,495.04393486102344 518.6988608854008,495.0647062100761 517.6365368889528,495.1068146538746 517.2615253333352,495.04393486102344 516.1680498916539,494.53711687319446 515.9576793315937,494.5056768319919 515.7473233351484,494.49500823006383 515.0842737777275,494.6005424839095 514.5025325511233,494.8418787487608 514.0296247751685,494.9025562348834 514.0170855537872,494.90419288995326 513.4434416640433,494.9384414071101 513.00168533338,494.7273733994225 512.8439183360315,494.7273733994225 512.138809230295,495.1708057204378 511.6132833280717,495.361061245203 511.4134422186762,495.2448793281801 511.2136156729539,494.7801505388052 510.94014122668887,494.38894853540114 510.7467663360294,494.11000846570823 510.45631078397855,493.6918497219449 510.35071044269716,493.4830627902702 510.2946990080527,493.20157467757235 510.2888153315871,493.1720942607499 510.19576877512736,492.8920198378037 510.16179199999897,492.48790004997863 510.13704851915827,492.4216848934011 510.09867355029564,492.3189573705604 509.69858355209,492.1180282252026 509.4987424426945,491.93839599195053 508.91620022041025,491.3670263066597 508.7924099981901,491.17003578989534 508.6787414471619,490.9836734524579 508.6269534435705,490.8798333562154 508.4926483343006,490.88993650249904 507.96014648891287,490.8927451769705 507.9457140053273,490.8927451769705 507.46186899906024,490.9561727078981 506.36798577784793,491.45235710736597 505.73648088180926,491.6218465695565 505.0843831182574,491.63194965352886 504.6850795520586,491.8014590689854 504.1899186631199,492.1758378215891 504.043482112058,492.28697118654964 503.88060330669396,492.4216848934011 503.14903222041903,493.0267328674963 501.98153022577753,493.86133603096823 501.8933333333116,493.90821346107987 501.34597666130867,494.1992370291555 501.1089256675914,494.31596550971153 500.7403948943247,494.3580742154154 500.38398099917686,494.22617127228295 500.1408570026397,494.13637696785736 499.646497109381,493.7771384631051 499.16268123028567,493.3337414198613 498.5631287752185,492.53057516366243 498.51438455469906,492.4216848934011 498.2370653298567,491.80202484090114 497.9988055609283,491.13635197567055 497.9178758826456,490.8489581362228 497.841024000023,490.4599862631876 497.9012151751667,490.0291454050457 497.92517222400056,489.85771387960995 498.334976113867,488.8968118163466 498.5243023360381,488.2524207845563 498.5348172230879,487.8768982486217 498.55788589519216,487.66810123066534 498.48585454939166,487.274067354243 498.3665353386896,487.0843648413138 498.15858232893515,487.01250897545833 498.029942442663,486.96815472861635 497.34627089073183,486.6830343279871 496.8729553351877,486.53483611528645 496.54648411029484,486.40799656737363 496.3782022257801,486.1862644700741 496.2940540018608,485.81635307418765 495.9679905565572,484.9715904863551 495.5998529991484,484.517491519684 495.3478161066887,484.36931084809476 494.7693371165078,484.26376762377913 494.0856364373467,483.89387052712846 493.0439489991404,482.89022212900454 492.38170043734135,482.51357144038775 492.0617245582398,482.3580933135818 491.64504667028086,482.20372641226277 490.5127156621893,482.0454390044324 489.76594022405334,481.9079048001149 489.75704189157113,481.90505550042144 488.8508683378459,481.6121026688488 488.062004224048,481.358938469406 487.714911004412,481.6109710292949 487.40989189693937,481.92922402665135 487.1364028871176,482.13972845178796 486.24236077518435,483.0597438553814 485.9462400000193,483.2601223101374 485.69542644621106,483.42966372310184 484.60113544529304,484.08470968468464 484.56270222220337,484.1015424760117 483.49672277341597,484.5708187344135 482.6031030045124,485.02491749980254 482.24546577071305,485.36338889884064 481.69813822576543,485.8068153022614 481.36155989335384,485.97635312809143 481.16575288889,486.01842433714774 480.9553968925029,485.9656837701623 480.7964065565029,485.86464813689236 480.73451144533465,485.7333016867633 480.23975833604345,484.8879525043885 479.8295466666459,484.49671835050685 479.49295377073577,484.2750029398885 479.22638244979316,484.1627305618895 478.7676158862305,484.074060366489 478.4314453334082,483.9971306340303 477.72591388440924,483.9477436194138 477.6207358862157,483.92721284137224 477.2946724409121,483.8635593242361 476.6110008889227,483.0922983044002 475.832651662291,482.35247556626564 475.3743074418162,481.9954853709787 474.8856273351703,481.5071228471061 474.5049505564966,481.28202720943955 474.34919332980644,481.1899599613971 473.749670001911,481.063660395419 471.98263011558447,480.8312688477745 470.45384999830276,480.862712460832 470.4364465493709,480.86327828411595 469.11522622581106,480.8419386608002 468.4732064427226,481.04290683809086 467.42139733338263,481.4863491583674 466.6430481066345,482.05719992963714 466.1834951111232,482.2379785432131 465.8327610027045,482.1447803918272 465.48444444447523,481.9200901025615 465.28540433070157,481.7917098974285 464.9075674453634,481.4021429338027 464.18141400185414,480.6611983664625 462.6247301120311,479.38921874415246 461.6396657778532,478.35352268777206 460.9559942258056,477.5294820960262 460.7877123414073,477.4873675026756 460.5352676693001,477.4772632314998 459.98831877694465,477.6568968388601 459.4458263324341,477.5985144302249 459.2573011057684,477.5777400668594 459.01014300453244,477.5513477284112 458.22207988623995,477.3111084737466 457.37984034139663,476.9490309590183 456.7798946701805,476.6105358970817 456.427544007136,476.2366947818664 456.40124222578015,476.20917045904207 456.02072564628907,475.582131537667 455.7280709974002,475.0999269273889 455.36195777426474,474.4307867731841 455.27944066846976,474.0367095588881 455.21753099380294,473.9951595989405 454.5815987769165,473.90646170359105 453.34815300273476,473.610801580362 448.43213744362583,472.4323169585259 447.9143156622886,472.30265343992505 445.6865140054142,471.7451957236044 445.3762228907435,470.95534501745715 444.907756999135,469.29422253451776 444.8794454471208,469.16229212170583 444.86568288714625,469.09885310492245 444.8482794382726,469.0191248251358 444.67070600541774,468.1927769986505 444.5833246720722,467.7868766193278 444.2903933156049,466.42846255440963 443.85271478048526,464.3948750659474 443.69818089244654,463.6779575572 442.0116337778163,464.0950887844083 441.60466978140175,464.195576792612 441.2118469973793,464.29511481136433 439.9784012231976,464.607653549785 439.52613000542624,464.7558787644084 439.6535465528723,464.2607160982443 439.90679222048493,463.2754373860371 440.53423388453666,461.01179214773583 440.5961435591453,460.5772482350294 440.6090759964427,460.48684269268415 440.58806078584166,460.3914246521017 440.00955266854726,459.9585358410841 440.1179637759924,459.6559291044541 440.35583032894647,459.22756504797144 440.51037878048373,458.94908919133013 440.62640662759077,458.74024198180996 440.9108765582205,458.2282181548071 441.2118469973793,457.77276513708057 441.31379188632127,457.61848796956474 441.6770797795616,456.8678366835229 441.81866666668793,456.7617236141814 442.3825966648874,456.733103387407 443.08084633602994,456.6982780600083 443.6702625564649,456.6876061062794 444.39195955201285,456.6449384937587 444.6023301120731,456.359746246977 444.82280777959386,455.86341715048184 444.87539677869063,455.54618667718023 444.5177741085063,454.319965297851 444.4546702223015,453.8764228671789 444.5072592213983,453.56987959943945 444.67676444450626,453.16841709797154 444.9385006648954,452.7349767724518 445.1856878933031,452.0662579977943 445.35963500093203,451.7097439127392 445.4486328889034,451.5250183456228 445.77510411379626,450.8489959485305 445.86449521780014,450.6637030947895 446.23223955911817,450.1297540762753 446.3058728959877,449.91808192888857 446.34024288714863,449.575023490499 446.45311044272967,449.1466033330653 446.6739958898397,448.7979233813239 447.1367965582758,448.25889250749606 447.46366099914303,447.97479212711914 447.71569789154455,447.8254344969755 448.1469393350999,447.6671018656634 448.52113533153897,447.63453783260775 448.67284388979897,447.6564291109098 448.9988927715458,448.0371103256766 449.3981963378028,448.50201964302687 449.5664782223175,448.8826981825405 449.70321544545004,449.1044788059371 450.00338488887064,449.3582768376509 450.30517088714987,449.6143180017825 450.64215699915076,449.57445752003696 450.7214555591345,449.58793974330183 450.78739933867473,449.65417847037315 450.9131993315532,450.034307609807 451.0814812160097,450.5306405367737 451.2299566649017,450.84450865903636 451.3294840036542,451.05504724991624 451.34929043916054,451.1269245876465 451.3622520036297,451.17466761000105 451.5475149938138,451.0415854040475 451.9545081173419,450.6261068226304 452.25992044096347,450.36444857064635 452.4662423324189,450.0870841384167 452.57708555378485,449.87314803988556 452.6697243306553,449.48180004092865 452.75426577066537,449.0691257244616 452.8659245510935,448.52279902622104 452.8695654400508,448.23586938533117 452.87442966760136,447.82036090258043 452.8339721101802,447.41330026680953 452.7498384498176,446.69460384181 452.74497422232525,446.5502778433147 452.7352748942212,446.27349081868306 452.77085366053507,446.0286612189957 452.7882571092923,445.7888845874986 452.9334994489327,445.46323877671966 453.05000789335463,445.26109940666356 453.22313944186317,444.9612452397123 453.34815300273476,444.7698993223312 453.4670935609611,444.5878515719669 453.64388056186726,444.3166391282575 454.48572689073626,443.31266060692724 454.9982912284904,442.5630722922506 455.45493151288247,441.89599500386976 455.8923187769251,441.25699213685584 456.0367455573869,441.09301097353455 456.6921055573621,440.34787629684433 456.6645950009697,440.319252165762 456.45422444096766,440.10192282430944 456.30292366223875,439.9458440921735 456.22931945242453,439.7346796154743 456.27137900097296,439.6291376679728 456.4242817706545,439.38712463973206 456.61847222049255,439.07939220187836 456.62898710760055,438.8677006138023 456.6597453369177,437.69859921355965 456.60754955379525,436.8703381831583 456.66622611915227,435.98589255535626 456.649623665784,434.4023404091131 456.6569054435822,434.14964291400975 456.70222722849576,432.54190837231 456.57600489241304,431.8236689478508 456.5104543288471,431.6546612995444 456.1973524480127,430.84991073946003 455.93398510932457,430.2484922873846 455.7345517796348,429.8469721802685 454.9084632178419,429.4555388218141 454.6155755519867,429.28877189353807 454.36678633245174,429.08547321378137 453.46911789511796,428.178529681667 453.34815300273476,428.06127204414224 452.9383491128683,427.66413170692977 452.65434521605494,427.3468268758734 452.1179403378046,426.67012275464367 451.79591099737445,426.1961526516243 451.16401288536144,425.3290558656445 450.96255522139836,425.04936937007005 450.8662755555706,424.91573261190206 450.18299721961375,424.000872809469 449.7198033351451,423.45724251744105 449.3937398898415,423.09781317430316 448.7909688889049,422.60642150606145 448.6853976746788,422.48568097906536 448.5304414436687,422.29864614247344 448.0785780054284,421.4281853006687 447.3605073351064,420.2139694491052 446.95029566576704,419.4967886437662 446.13393555913353,417.9051342024177 445.35194544366095,416.53980815885006 444.9097813333501,415.7664575477538 444.7398828942096,415.4704725568299 444.52425489074085,415.1065307268291 443.55052100273315,413.38003634058987 442.8704757760279,412.363445509196 442.4610942293657,411.7512384685979 441.61154377961066,410.3521361389139 441.226017336885,409.69217961333925 441.2118469973793,409.67252583857044 440.2850368854124,408.3840642682335 440.1425179307116,408.20040449511725 439.28744789341,407.0983995270217 438.36953611375066,405.89303717412986 438.0115202276502,405.398744327249 437.55317600717535,404.7668674819288 437.12556088890415,404.4360149645072 436.6461868942715,404.2663824291085 436.31769133510534,404.22090574380127 435.21853610669496,404.12991187983425 434.9915922204964,404.09620369097684 434.71973432891537,404.0052097326843 434.36294178134995,403.70693105473765 433.9600118898088,403.1744519310887 433.6768235520576,402.7880072645203 433.143244003586,402.28753419872373 432.7132113351836,402.014002039301 432.0441033386742,401.7067401780805 430.7180042240652,401.2405175883032 429.70947800180875,400.9225970709813 429.07555555552244,400.79722429139656 428.2130726685282,400.6265755512286 427.45374344539596,400.4670686061727 426.2862268871977,400.08059501918615 425.8238339982345,399.73963903065305 425.5495439929655,399.45485783860204 425.0847481173114,398.85214998209267 424.177744440909,397.57817275688285 424.1720937813516,397.56862798766815 423.27886722853873,396.01039381779265 422.91962800361216,395.42730458368897 422.63604644988663,394.9840909722261 422.51144066854613,394.82514277196606 420.9583976676222,392.8337628667359 420.4664698880515,392.18214314995566 420.1311148942332,391.60522358489106 419.9842851271387,391.34907914712676 419.3487169991131,390.2401652193803 418.9975751111051,389.60313267973834 418.47652022045804,388.6588217918761 418.45346611208515,388.647031509754 418.5101037795539,388.2150372004835 418.61204866849585,387.29316371903406 417.8862884409027,386.09884734859224 417.50157755741384,385.4617928718508 416.939264113782,384.5496261055232 416.67388700449374,384.1191338947683 415.7668978915899,382.65173563719145 415.6774776604725,382.5067867175676 414.9509310008725,381.3315149291884 414.4747901156079,380.5579176728206 414.1232404480688,380.0118460248923 413.2732822186663,378.65790124001796 412.53620610851794,377.5427015515161 411.9581203342532,376.57525911263656 411.78822189511266,375.81285648202174 411.73844366223784,375.30161219622823 411.67210666672327,375.10946775975754 411.14272142230766,374.495372082165 410.5523440071265,373.8105026384874 409.73192066850606,372.8924628177192 409.3949345565052,372.35479068843415 409.3281897813431,371.9901520278363 409.43013467028504,371.4665129579371 409.6057128960383,370.7394945095293 409.6570785564836,370.39677652085084 409.60044088895665,369.95345042145345 409.45439755381085,369.23653619218385 409.45278099906864,368.7359234789328 409.53207955911057,368.394332484575 409.7715772303054,367.87516814109404 409.97422910580644,367.4723070402397 410.2465093404171,367.005971937062 410.25781065953197,366.9812341796933 410.88082500267774,365.60578258967143 411.40227310941555,364.65060311197885 411.5948324408964,364.3887779938523 411.8371554418118,364.06005963435746 412.29794633953134,363.58080603409326 412.4112071112031,363.48978141436237 413.32911889074603,362.7272958099202 413.5617280000006,362.5525474663591 412.94359244807856,361.1568171212275 412.6960120035801,360.58199401633465 412.20690955378814,359.825679836591 410.86949455650756,357.8567606714205 410.72374249249697,357.63932273050887 410.44997677515494,357.23080373829 409.79259244090645,356.1271987721557 409.32776743819704,355.0460784608149 408.85162655299064,353.74861606181366 408.6024295538082,352.9973162612587 408.2169031111989,351.889161220839 408.18291177245555,351.7913912694203 408.114958222257,351.4952487773553 407.98307066311827,350.83161101306905 407.9903670044732,350.4506220079493 408.0805736675975,349.9358914626646 408.09190411376767,349.34470926210633 408.0352664462407,348.8091773677734 408.01260555378394,348.5697935158387 407.74033988267183,347.36384434156935 407.69504722493,346.79512559142313 407.70636310760165,346.5557377289515 407.8083079964854,345.6566077924799 407.9555601067259,345.0080906749354 408.15136711118976,344.69226707474445 408.5223299982026,344.3815003739146 408.78326522314455,344.335980804055 409.91639722668333,344.3134840147395 411.4354488889803,344.3477754321066 413.0900289990823,344.2679846500105 413.31697288539726,344.2567362495174 414.24823944538366,344.12072358239675 414.609095224936,344.0173433322634 414.8360391111928,343.93811879871646 415.0059521137737,343.85828728275374 415.4028090026695,343.5851684162626 415.62542751291767,343.4002362447791 416.58123366406653,342.60622437656275 416.939264113782,342.2955534394423 417.12333289248636,342.13584771045134 417.49955322314054,341.80933441244997 417.7260893298662,341.6952497813327 418.6557393351686,341.50191867139074 420.19704411021667,341.3541281982034 421.2970003342489,341.332763810904 421.68211899732705,341.25127158648684 422.7363602204714,340.78090984994196 423.31444599461975,340.52293743522023 424.10735877690604,340.13572487968486 426.01195144536905,339.02018805235275 426.65800533327274,338.6560147694254 428.8113872213871,337.6202392258565 429.07555555552244,337.5272729016724 429.26488177780993,337.4606486777193 430.25115488714073,337.2217682613118 430.6589344427339,337.2105596657493 431.8830886685173,337.36960427925806 432.03032621508464,337.3926486346754 432.3543798897881,337.49380905373255 432.3932063289103,337.50615061906865 433.2209114453872,337.7680342896492 433.3455172267277,337.79109880069154 435.2788146631792,338.386242582812 436.48517222405644,338.7577406174969 436.8367218915955,338.8263063802442 436.97264355554944,338.8150574704923 437.0745884444914,338.7577406174969 437.1991796622751,337.7332149624708 437.26714777603047,337.2667442581442 437.3581699982751,335.91288452548906 437.42573033244116,334.3414889954147 437.47103755373973,333.5451107570552 437.5390056676697,332.80829280873877 437.6522810027236,332.1445316412719 437.75058500270825,331.9186100224906 438.12073233071715,331.06882044297527 438.49090878583957,330.4449496686575 437.87923945247894,329.8002959868754 436.7452918898198,328.39971370282 436.30353555915644,327.8303386802436 436.01386643917067,327.4329683519318 435.32495200721314,326.48873558911146 435.1016344462987,326.00985826744 434.78283821512014,325.213404591952 434.6368094435893,324.6890154129069 434.46268757333746,323.9201121866936 434.2630212267395,323.03821459857863 434.05872366932454,322.2530119268631 433.8435034453869,321.2058849383611 433.8095266702585,320.9439247108239 433.6622599964612,320.02157572860597 433.6396136676194,319.80516203239677 433.60521454934496,319.25881436181953 433.6278900054167,317.9384841399151 433.6578181120567,317.61918985671946 433.77553533151513,316.3561691858631 433.92237966228276,315.1493301738228 434.20597577956505,313.53269853413804 434.285259775992,313.1111189357762 434.35322788980557,312.82667885313276 434.6250857813866,311.9733748024155 434.8633455502568,311.41519366920693 434.99402433418436,311.19089247559896 435.1987296711304,310.8260682398395 435.46410678047687,310.5725847624126 435.7335325582535,310.3707446702465 435.82617133512395,310.30161628322094 436.65386188804405,309.8552758342994 437.11868689069524,309.62763266282855 437.5450641067,309.4516738487873 437.8820502187009,309.27909432692104 438.12760632892605,309.1380030984874 438.56978500273544,308.7967891028966 438.89341633423464,308.52867002997664 439.2894576640683,308.02440461161314 439.55565033241874,307.64665949408663 440.0360000854125,307.056969186262 440.24619588273345,306.79892437907984 441.1200092160143,306.0754610050062 441.2118469973793,306.00873839497217 442.1940860018367,305.2946199874568 442.4974885546835,305.08943183810334 442.74062711466104,304.9253053513821 444.11244123027427,303.9578247392492 444.71317333332263,303.5137071236095 445.9935574471019,302.5917707839981 446.7355560391443,302.11961845029145 447.3540265528718,301.7260285804514 448.8047168853809,300.8153107552498 449.20359810849186,300.5628990290279 450.11950011737645,299.983859830274 451.34362521604635,299.10686644978705 452.31817466323264,298.16182418714743 452.55767233425286,297.75818292671465 452.77571788802743,297.293257107056 452.85096777958097,297.04587746510515 452.92094566411106,296.3425741381943 452.9541214435594,295.61902757085045 452.85096777958097,295.0416444041766 452.7037011058419,294.63236613958725 452.60175621695817,294.41592695665895 451.97836322139483,293.1065567115438 451.320585671172,291.7515922286548 450.65760893159313,290.35651700902963 450.5952332231682,290.2251794983167 450.5790094222757,290.1914595964772 449.9491793351481,288.88202307591564 448.8961614507134,286.68198781556566 448.39331100450363,285.63228385866387 448.2484910080093,285.3292380995117 447.91998088534456,284.66916163271526 447.31923421873944,283.4277157926408 446.93370777601376,282.40271833882434 446.4122451057774,280.979074891482 445.93975967285223,279.71734911965905 445.8794811164262,279.5559813462023 445.65252266667085,278.90710743903765 444.87053255108185,276.69733514866675 444.32643811556045,275.0689514648402 444.0998874453944,274.4200533234107 443.7062927929219,273.3235621532367 443.24953600001754,272.05106762665673 442.99994578497717,271.35662620689254 442.4897989973542,269.95588890768704 444.2471395555767,269.2378111326834 445.32363389153033,268.5315311368031 445.5728308907128,268.2818452149804 446.547773553757,266.96038790163584 447.4430390045163,265.7300148122886 447.8297742222785,265.1558485380665 448.40665122139035,264.53446967486525 449.4042547768913,263.45195823253016 450.34440510580316,262.3474917485728 451.3420232249191,261.1513663335936 452.4185175609309,259.8641056236229 453.34815300273476,258.60053844127106 453.38212977780495,258.5543385145429 453.9254377813777,257.520160042739 454.1305363342399,257.1304124259914 454.7481184711214,256.4533163177839 455.2523233279935,255.90050553312176 455.33162188797724,255.820615509263 456.04562932625413,255.00065654190257 456.2272805547109,254.72733564223745 456.3858631111216,254.41973753346247 456.9526330027729,253.07561384161818 457.3551405511098,251.62912890370353 457.6444018915645,250.78662701745634 457.7597015609499,250.44974203946185 457.93404188449495,249.70621882964042 458.18770989513723,248.32551663770573 458.3847256746958,247.82494667283027 458.747999004554,246.90594394670916 459.067581667623,246.10392412281362 459.59066089242697,244.6016740000341 459.9102435556124,243.95992072342779 460.2383313351311,243.3957945900038 460.7031417742837,242.7973656547838 461.13883966580033,242.2725964031124 461.73473666852806,241.76189735921798 462.243252337852,241.51385663892142 462.91195255471393,241.3242924385704 463.7695857778308,241.16400698717916 464.91728133690776,241.04701224146993 465.48444444447523,240.98896028922172 466.34127667202847,240.9013457270048 468.6216673279996,241.0290317304607 468.69530066486914,241.03295990539482 471.2139802169404,241.3091264796676 471.75162299739895,241.27986771508586 472.1294744462939,241.2219576133939 472.580129109323,240.97389552969253 473.21930899919244,240.59478537365794 473.5829901084653,240.20050792215625 473.9029951146804,239.72636894401512 474.04073722317116,239.58070082773338 474.16148366226116,239.45301328445203 474.31239122495754,239.25390872987919 474.436574663152,239.15039771940792 474.65866888529854,239.07614592832397 474.95480422402034,239.04467951599509 475.4649364479701,239.0632272863877 475.8589534435887,239.16390356249758 476.37272655649576,239.33994510237244 476.881650005409,239.54413190676132 477.0449948445312,239.58070082773338 477.40430688712513,239.66112811645144 477.6207358862157,239.69798048146185 478.17455877695465,239.79217669504578 480.645105777774,240.21514756104443 482.4760651093675,240.52112167948508 483.8846958933864,240.86983929606504 483.94861533876974,240.88559251258266 484.3507296711323,240.94408997832215 484.62662166758673,240.91485137309064 484.8491236693226,240.8417143325205 485.59023388446076,240.6375499824935 486.14286256360356,240.37543427868513 486.50613589340355,240.06889283147757 486.94095997157274,239.58070082773338 487.00007344351616,239.51432600058615 487.3633613369893,239.20832906861324 487.68294400005834,238.93104398649302 488.13320544711314,238.72687638844945 489.29585777781904,238.4208976989321 489.75704189157113,238.28253781193052 490.41522722132504,238.08509172021877 491.1268171093543,237.74985177113558 491.8970689991256,237.341512212035 493.5969563307008,236.06470810927567 494.26567111117765,235.72946252051042 495.05048655654537,235.39366926564253 496.15489922848064,235.05842180378386 496.887926670257,234.93299737994676 497.641168327129,234.86548601981485 497.99919877690263,234.77322988247033 498.5089232213213,234.5476920826186 498.64930133341113,234.4402486255276 499.00326855119783,234.16858189061168 499.2694757831632,233.8642722989025 499.5166338844574,233.65221900536562 499.90418466133997,233.40977067759377 500.123453553766,233.2084083936934 500.52638344536535,232.7235499563394 501.05188022041693,232.27240548509872 501.69146788981743,231.63062682401505 501.8933333333116,231.3751739463478 502.1413069939008,231.061360024265 502.5050026666722,230.52191892149858 502.83914888533764,230.20073171518743 503.3185374435852,230.01116990749142 503.76919210673077,229.90937219755142 504.3197818880435,230.02973932336317 505.1644681103062,230.40493405837333 506.0775302257971,230.67604230516008 506.67543699906673,230.78460288286442 507.12448967120145,230.83749600697774 507.7551790080033,231.02650976006407 508.41780622221995,231.1957997342397 509.02785900089657,231.2689426491561 509.5217965511838,231.25430191971827 510.26453788450453,231.14744276588317 511.1933868943015,230.97641122192726 512.0894533404498,230.770002594596 512.6129257813445,230.52754844809533 513.0065349973738,230.3121074908704 513.2856746666948,230.15966440312332 513.9190728248795,229.79635578067973 514.0296247751685,229.73295232950477 514.5065812195535,229.45935116970213 514.9078945564688,229.20735647788388 515.1599168853718,228.91992312134244 515.5086266595754,228.68647667058394 515.9447468942963,228.45302976615494 516.7732384426636,228.30676071194466 517.4273896676023,228.1318167760037 517.9646246685297,227.88376815407537 518.7348619946279,227.48999573645415 519.490564892476,227.03771781653631 519.9990659982432,226.70248752925545 520.3190710044582,226.41051200046786 520.6115508907824,225.9948030730302 521.0759681137861,225.19266384327784 521.5517157831346,224.55362174721085 521.675899221329,224.17954279572587 521.675899221329,223.912328366132 521.6334318933659,223.62038655590732 521.4079734898405,222.70569440885447 521.2847221191041,222.20560494231177 521.0359037724556,221.5749918698275 520.8631654400378,221.0529651128454 520.6888251164928,219.75458154905937 520.5581463324488,218.73412387043936 520.4007725511328,218.09670808311785 520.3514166613459,217.89756811768166 520.0783645582269,216.72068529139506 520.0023136711679,215.9308381693263 519.8461486649467,214.59080001103575 519.6859495537938,213.66253037008573 519.4683117795503,212.84566578251543 519.3513955555973,212.1019097220269 519.3659591111937,211.59110260929447 519.4966233315645,210.9345499482588 519.8311773298774,209.94269636453828 520.0201103360741,209.5195986056642 520.1944652231177,209.28615494346013 520.6014437831473,209.0087805071962 521.5747553280671,208.5418097275833 522.3595853368752,208.06023408196052 522.9845948871807,207.62250633270014 523.4494198898901,207.41828549728962 524.089007559116,207.21404406055808 524.8297245582216,207.03906939187436 526.0360675555421,206.8933616192371 526.1659307804657,206.8789002042904 527.0870756694349,206.7763334803749 527.4208286721259,206.79097719458514 527.786941895145,206.84947101704893 528.060401777795,206.8933616192371 529.0050085546682,207.21404406055808 530.0515602204832,207.57861599704484 530.7635578881018,207.79750040508225 531.228382890753,207.84080329700373 531.7368985600187,207.855426627415 532.0856083342806,207.855426627415 532.8995363272261,207.72434319194872 533.539123996452,207.57861599704484 533.8441431040992,207.50547890449525 534.6140017777798,207.22812060863362 535.3551265564165,206.96538511078688 535.718807665864,206.74651943985373 536.0238267733366,206.5276736241358 536.4162563413847,206.36732146691065 536.9538699946715,206.2654834566929 537.5873992249835,206.2294715064054 537.9502793386928,206.17152424532105 538.3022222222644,206.08068411020213 538.5170346667292,206.02526855588076 538.887109176896,205.82833653778653 538.9822528854129,205.77770087469253 539.7962100054137,205.14981687790714 540.1740468906937,204.8144849698292 540.5081931093591,204.53710020313156 541.1036823324393,203.80793675218592 541.6558886685525,203.29709435321274 542.1502339982544,202.94711308943806 542.5709605546435,202.7204014918534 543.3420280035934,202.30517767576384 544.2862124373787,201.765040233935 544.8821094400482,201.5022725261806 545.2745244445396,201.40045064437436 545.5941071076086,201.3858265277231 545.9719585564453,201.44377609851654 546.4663184498204,201.53154098425875 546.8587188906968,201.64857423535432 547.2361625600606,201.691879345075 547.700972999155,201.765040233935 548.0933880036464,201.70595654056524 548.9510212267633,201.37061501387507 549.387112334196,201.1371352521237 549.8373737813672,200.81586943665752 550.4025125546614,200.21382539448678 550.4385136640631,200.19036986114224 550.7091627804912,200.01408862081007 551.0489742222708,199.8891744793509 551.787259107572,199.7963648287987 552.2949592178338,199.58761374632013 552.4895574471448,199.43737999000587 553.1489661155501,198.66149671722087 554.2897731128614,197.1755057281116 554.4875898880418,197.01854404542246 554.7060432214057,196.92455734146642 554.91923911107,196.91442945954623 555.0964338915655,196.96115949985688 555.2732208924135,197.04497779265512 555.455250773346,197.26947197990376 555.6409361067344,197.73478513094597 556.0357832249138,198.69074561240268 556.2465470009483,199.2016278662486 556.5119241101784,199.6877559759887 557.0940585528733,200.43270297415438 557.4638126649079,200.86199030544958 557.8101194524206,201.1630212063319 558.2947508907528,201.41786994991708 558.8946965618525,201.60354743732023 559.3562738915207,201.71889945704606 559.95620499918,201.78867775408435 560.3482122240821,201.90455622397712 560.9020205510897,202.205017374421 561.4558580054436,202.5757822379528 562.0420265528955,202.88468794286018 562.5654989937902,203.22168612622772 562.5748196693021,203.23019310017116 563.1423905564588,203.74717293135473 563.6945823288988,204.26704693352804 564.3370098915766,204.8921201826306 564.7528722205316,205.06766510300804 565.1485203342745,205.1244786515308 565.5639894471387,205.1475686421909 565.8176283306675,205.24039441061905 566.4863431111444,205.7264980704349 566.642974151182,205.82833653778653 567.0878907733713,206.1175062735856 567.6113923413795,206.34200375163346 568.0810524444678,206.6700196567981 568.464976896008,207.04919641977176 568.7744378880016,207.51560589313158 569.0960594488424,208.2081886170199 569.7886293333722,208.74659575757687 570.9800009956234,209.41496826452203 571.5075221049483,209.83300299581606 571.8894222222734,210.17954134280444 572.1713872213732,210.50811386160785 572.571477219637,211.00993307796307 572.99909233785,211.43019012123113 573.2992617814452,211.77733145628008 573.5355117796571,212.1238641917298 573.7268477724865,212.58069448004244 573.8085638827179,212.79954951666878 573.9813167787506,213.14664638679824 574.1451567787444,213.3655003918975 574.3449978879653,213.48420310529764 574.7111111111008,213.57607054011896 574.9995423288783,213.64847482915502 575.4433375573717,213.78238720615627 575.5452824462554,213.8127665813081 575.8361457778374,213.89487186723272 576.0088986738119,214.0225865886896 576.0999063324998,214.2594235194847 576.2180313316057,214.62510822043987 576.3818713315995,216.32296753604896 576.4089886720176,216.81577038293472 576.5635225600563,217.38170232909033 576.8090786702232,217.91164341339027 577.1549485511496,218.349333655613 577.4911336675286,218.57771692291135 577.7824047787581,218.76055283725145 578.7642360035679,219.40805058259866 579.1461215573945,219.70901473838603 579.4191882240702,219.83729032924748 579.9374032213818,219.90985285813804 580.6651877831318,219.94640750644612 581.1833882168867,219.9919742270431 581.8201505565085,220.16579591852496 582.7384701156407,220.39364918408683 583.2837878898135,220.4487745826773 583.6656734435237,220.54889941500733 583.9933534435113,220.7407241035835 584.3206402275246,220.89599413750693 584.8845556621673,221.05126397064305 585.7482618879876,221.2520998455293 586.484944782278,221.43379759675008 586.8474025529576,221.48126740535372 587.1852042240789,221.5254969370144 587.857953109371,221.49793448808487 588.0505124409101,221.4703517811722 588.6856436621747,221.37921944467234 589.2948954453459,221.37022771703778 589.8948411165038,221.43379759675008 590.6768166684778,221.5254969370144 591.1044172231923,221.6256208716659 591.6865516657708,221.8630301024241 592.179688220378,222.12630004744278 592.586652216909,222.34679830793175 592.9321434453595,222.59317749820184 593.0409186417819,222.70569440885447 593.2323128888966,222.90371257482911 593.8233456640155,223.68845102167688 594.6741048889235,225.1707320137648 595.0693306596368,225.815380322485 595.4423470080364,226.33570556063205 595.7331957760034,226.63665235447115 596.0879931165255,226.82846731864265 596.8727939982782,227.1463019338844 597.6960426666774,227.5704513732053 597.8529941049055,227.68857302959077 597.9885225529433,227.8775917388557 598.0884576711687,228.17851441827952 598.1794798934134,228.50758445292013 598.2433993387967,229.19216873848927 598.2886919964803,230.4060478147585 598.352218225773,230.93538467519102 598.5431464390713,231.42812756015337 598.7887171129696,231.766159390565 598.9837085582549,231.96169213505345 599.0439725511824,232.02211768264533 599.161704334314,232.1396882153349 599.5528960000374,232.40459611386177 600.789589447144,233.14371076601674 601.3806222222047,233.5909032964555 601.6990106738522,233.9469511123898 601.8992449991638,234.18433598603588 602.2265172196203,234.6590638270427 602.3810511076008,234.97855841438286 602.6630306702573,235.62653570034308 602.7811411058065,235.56295308386325 603.0355955485138,235.39816460455768 603.8633006649325,234.91444897162728 604.69059800182,234.4858300962951 605.2452218880644,234.16631394866272 605.9365829973831,233.8282686243474 606.5911274382961,233.60046109723044 607.3460147769074,233.38952106659417 607.6643886649399,233.2983977746917 608.0373758862843,233.08861144428374 608.5556054471526,232.75054283678764 608.9192865564837,232.604866259353 609.3740044516162,232.51374237207347 611.1199999999953,232.33143364076386 611.6471278934041,232.27635419619037 612.0472178916098,232.13013029823196 612.4837167787482,231.9203014273662 612.7656817777315,231.8747392326768 613.1973310008761,231.8747392326768 613.2203851094237,231.8747392326768 613.6568985600024,231.92929236512282 613.8818181121023,231.8702437618631 613.9659517724649,231.81961907891673 614.3300406613271,231.4635447060573 614.8575763342669,230.86112780493568 615.2936820053728,230.36838259347132 615.6027352177771,230.08540705323685 615.9029046613723,229.90260863071308 616.0845558898291,229.86660376845975 616.6395875554881,229.802471346542 617.0396775538102,229.56511831178796 617.3851687822025,229.33671543913078 617.7852587804664,229.1910347205412 618.294575445354,229.0267842571775 618.7856876658043,228.99922352985595 619.3767204409232,229.1814765687741 619.6675983360619,229.1910347205412 620.022381112969,229.13591333496151 620.2768355556182,229.04478681553155 620.5223916658433,228.86253356919042 620.9584827733925,228.52447331530857 621.2768566613668,228.29608871389064 621.6769466595724,228.1413750112697 622.041035548551,228.09526461924543 622.5410606649239,228.19595009009936 622.9686757831369,228.47888958171825 623.1049906631233,228.52447331530857 623.256291441794,228.42557015942293 623.3141524480889,228.38776256373967 623.8598780017928,227.82188248445163 624.3052752213553,227.02759247421636 624.5965463324683,226.4797291791765 624.8056935538189,225.9593843142793 624.8623312213458,225.70454715084634 624.896730339562,225.4300457710924 624.8603068871889,224.69987512179068 624.9145270044683,224.18855456417077 624.9602274417994,223.960141465388 625.0597547804355,223.78691255190643 625.2551540053682,223.6822743906232 625.3146170026739,223.6501964070194 625.6236847786349,223.60408429041854 627.824398222263,223.62263444572454 628.1245676658582,223.54051555960905 628.4526554453769,223.34699423381244 628.6296463360777,223.1744124785473 628.7111439929577,223.09498671535403 629.1031512178015,222.80415674493997 629.3347991324263,222.70569440885447 629.4975759929512,222.63649530621478 630.1343383324565,222.39009595339303 630.9062067768537,222.22528939740732 631.9980802276405,222.11617429094622 632.7076457813382,222.12516596275964 633.2351668907795,222.19770685763797 633.7444981191074,222.26184334096615 634.0806686720462,222.23430131250643 634.5988836693577,222.1521612255019 635.3925974472077,221.85705589308054 636.3634914418217,221.495119513158 637.1450737777632,221.20315157462028 637.6725948871463,221.06588569231099 638.4545850027353,220.8470659731247 639.0456323413528,220.5910838613636 639.3639916658867,220.37226327697863 639.6823655537446,220.08031286019832 640.055367338704,219.7422076302173 640.400829440041,219.56893212813884 640.5808641137555,219.51548723774613 640.8009194382466,219.45023542965646 641.3466741191223,219.3591015599959 641.9190801066579,219.303975661227 642.2552506595966,219.23082545824582 642.7281729991664,219.01200239511672 643.3285264498554,218.5647758236155 643.6921929955715,218.3639354542247 644.0562818845501,218.21769461483927 645.0021265636315,218.0078414333111 646.566063104081,217.77943682999467 647.3116443307372,217.65172610423178 647.5288888889481,217.6350382353121 647.9115900018369,217.60561168417917 648.6029511111556,217.7063059505308 649.0301438863389,217.79744107453735 649.2744912214112,217.80139026170946 649.7215049955994,217.81544531637337 649.957769557368,217.83399636595277 650.9853012196254,217.7063059505308 651.8008603307535,217.54937110483297 652.3025020018686,217.37609243844054 652.7887645582668,217.12459895029315 653.1095705600455,216.88047680800082 653.5642593279481,216.43210815926432 653.8624044373864,216.1564311888942 654.077231445408,216.04447521240218 654.4134019982885,215.9347874178202 654.9866381085012,215.9443466240482 655.7051019946812,216.03548308534664 655.9894991075853,216.10355185047956 656.3143537777942,216.18176708734245 656.8236704426818,216.24531946124625 657.0922952248948,216.2667061034881 657.3147826631903,216.15418315923307 657.7055811128812,215.95333875797223 658.3694316658075,215.50610079441685 658.9891983360285,215.03915528260404 659.4604895573575,214.5930278171727 659.6651803306304,214.40289454397862 660.3059767751256,213.80768309970153 660.7424902258208,213.5522733166872 661.160770104907,213.3789888822066 661.5883852231782,213.27829098698567 662.3432579982909,213.23272171869758 663.1616424391977,213.1325907855935 663.7984047787031,212.9677512703056 664.2709193387418,212.73032445195713 665.3983715556096,212.25607700223918 666.3441871075192,211.9179699938977 667.0537672248902,211.88702304873732 667.1900821049348,211.88139264812344 668.0266855538357,212.0186690299306 668.4267755520414,212.10024895938113 668.544915114704,212.1913883383677 668.6266312249354,212.26450232349453 668.66304011381,212.94018685701303 668.6359373369487,213.87125698302407 668.6723316622665,214.3370728783484 668.817967217823,214.67460599762853 668.9972008960322,214.9452231893374 669.0724362240871,215.05831434219726 669.2908895573928,215.4414138814318 669.4272190009942,215.73339582962217 669.5453440001002,216.15361608873354 669.5271541191614,216.4000282388006 669.43611733336,216.64587281487184 669.1177434453857,217.02955460798694 668.6088345600874,217.4402112448297 666.972051114717,218.6907844025991 666.6718816711218,219.05588855181122 666.4174272284145,219.42099159094505 666.3352887751535,219.60382622139878 666.317084330658,219.94134453646257 666.3899021084071,220.43471983604832 666.3899021084071,220.84536482804106 666.3263904426713,221.27403239070554 666.1718711182475,221.87651763821486 666.0990533404984,222.31474021900794 666.0537315555848,222.6708214682876 666.0597608675598,222.70569440885447 666.1261561173596,223.09103770225192 666.2810832214309,223.57427442781045 666.4627198862727,224.0580357396684 666.8446200035978,225.1077108894824 667.0719716693275,225.56392475921893 667.4720616675913,226.1664087351819 667.617697223206,226.41332686025999 667.6359016675851,226.641168271919 667.6027258879622,226.80317416784237 667.4995722241001,227.00624824987608 667.1035163306515,227.67000325175468 666.8721305600484,227.96477029117523 666.5302802205551,228.51548212266061 666.4263255609549,228.95928982712212 666.417820444447,229.37891704880167 666.5266393315396,229.75354681094177 666.7361943324795,230.02749155339552 666.9837747769197,230.14672455185791 666.991464334249,230.14899256973877 667.3672914489289,230.25700687002973 667.806615665846,230.3436166915053 668.5453083306784,230.62037484915345 669.0546395591809,230.85774604830658 669.7460006684996,231.241362186498 670.1825141191948,231.5153035351541 670.5643851093482,231.78924425895093 671.0461912178434,232.44566265825415 671.2432798151276,232.74576390263974 671.3099663360626,232.84729596227407 671.5830330026802,233.3400310029101 671.801486336044,233.72394295531558 671.8374874453875,233.78722280226066 672.0559407787514,234.00658593027038 672.3379203414079,234.2073798906349 672.7015868870658,234.3074932525342 673.5288842240116,234.36263251386117 674.265552554687,234.43575325075653 674.6021454506554,234.51788493644563 674.8565998933627,234.62700902458164 674.9383160035941,234.78226110542892 674.9476075520506,235.82283162945532 674.9023148942506,236.79871772800107 674.8840958862565,237.35556498001097 674.9294176711119,237.638482892944 675.1296665600967,237.95798980334075 675.4294282240444,238.25046372780344 675.8206198897678,238.51483168042614 676.7939459983027,239.0536699203367 677.0848238933831,239.29102445184253 677.2722714169067,239.58070082773338 677.321073891595,239.65606597746955 677.4303005582769,239.89341931851231 677.7304700018722,240.78771195412264 677.7624370061676,240.86927234227187 677.8942954383092,241.20731809723657 678.0925345565192,241.46266906973324 678.5306499982835,241.90079993888503 679.2402301155962,242.43008613889106 679.7313423360465,242.83168605499668 680.0857318969211,243.00488750007935 680.5768295538146,243.23326438030927 681.2406801066827,243.53414858673932 681.8450822257437,243.84118738601683 681.9591585565358,243.89917721622624 682.2399002169841,244.0831084616948 682.5319868871011,244.27376168777118 683.4325097813271,245.12248478704714 683.9377777777845,245.54144811199512 684.1691781120608,245.7332936276507 684.742006442626,246.098315573734 685.0057669974049,246.33565618397552 685.1785198933794,246.53644978057127 685.2695421156241,246.76477945124498 685.3423598933732,247.04767520091264 685.3330392178032,247.88736870972207 685.360549774312,248.72707659527077 685.4151776711224,249.4756473446032 685.5697115592193,249.92275882294052 685.7695526684402,250.1505556399643 686.288175445341,250.3243336874002 687.5980798862292,250.66233258575085 688.2433327787439,250.88956109361607 688.5252977777855,251.0537614140776 688.8614683307242,251.29111247931723 689.2077605547383,251.61673802192672 689.6248607857269,252.14484760773485 690.1677464462118,252.58913490432315 690.9881552213919,252.94401285846834 691.8595364409266,253.21057556156302 692.3263857777929,253.47715791931842 692.6924990009284,253.78141782304738 693.3745685617905,254.7959696155158 693.8163248925121,255.31616931664757 694.1569373297971,255.68397631589323 694.3968427804648,255.79814263436128 694.9272037831834,255.8363870108151 695.2933024426457,255.77283533781883 695.7480057742796,255.62042456227937 696.0740692195832,255.4603201545542 696.3159844409674,255.3414767094655 696.6440722204279,255.11314309592126 697.0607501085033,254.69417266416713 697.4394025529618,254.40287255813018 697.6036503324867,254.30107527360087 697.9701713352115,254.18690753218834 698.3993884444353,254.11096436201478 698.9042632248602,254.16157965007005 699.0528406187077,254.19561335773324 699.3460195555817,254.26281016215216 699.6490143289557,254.3516904814751 699.8889197795652,254.49171228159685 700.0527597796172,254.63118727572146 700.5074631111929,255.3544340924709 700.7093285547453,255.60803409217624 701.012323328061,255.8358201276278 701.3153326648753,255.93704922881443 701.6308812231291,255.94998630176997 702.0350198898232,255.89937176730018 702.5653808924835,255.75935160802328 702.9060078933835,255.75935160802328 702.9788256711327,255.771701570804 703.1333595591714,255.79757575099939 703.3987366684596,255.92467903724173 703.6006021120702,256.1276836404868 703.8060793172917,256.4533163177839 703.8404929991812,256.5078785334481 704.2316846649046,257.37054537286167 704.4084716658108,257.84014045339427 704.4715755520738,258.2461833336274 704.4841147733969,258.7084461764898 704.3959324444295,259.114465876366 704.1685807786998,259.81235900952015 704.1811199999647,260.30611716682324 704.3073423359892,260.59801030845847 704.5472332231002,260.95339097172837 704.8631895609433,261.28295832531876 705.5193359929835,262.01906102357316 705.9360430079978,262.3109297582705 706.2896024462534,262.4627651932533 706.8074096640339,262.4627651932533 707.2617197795771,262.52631332707824 707.5016106666881,262.57692506935564 707.8802631112048,262.7928750116844 708.2103752248804,263.116627118201 708.4106095503084,263.31304008321604 708.9749618915957,264.001353443251 709.3705954417819,264.45405903909705 709.6861439999775,264.6823546537489 710.1028218880529,264.8853647019132 710.3301735537825,264.8600390754291 710.8095621120883,264.7582911409554 711.4786701084813,264.44112288198085 711.8071656675893,264.3905119250412 712.1227142257849,264.3399009468558 712.5139058916247,264.3905119250412 712.9176222151727,264.6188076604449 713.4099577742745,264.9742169176461 713.6753494471777,265.2784274579608 713.711350556463,265.37964860216016 713.8015717830858,265.6338347636338 713.8015717830858,265.9886741825321 713.7133748907363,266.560022557358 713.6126387769473,267.00312288079294 713.6377172195353,267.244369751832 713.7259141120594,267.52326972218 713.8901618916425,267.72627496972564 714.3824828871875,268.0873028000933 715.0770916693727,268.41681009548483 715.4302433280391,268.73396785813384 715.6830957796192,268.9622755830933 715.8724220017903,269.3047161134018 715.9480796729913,269.4953697998717 716.0111835590797,269.9643304257188 715.9100396658177,270.6492452843522 715.8849612231134,271.06813983013853 715.8849612231134,271.47357119235676 715.9986443378148,272.2090648880694 716.0362474382273,272.66566669612075 716.0111835590797,273.0334205793042 715.9534973156406,273.3235621532367 715.8724220017903,273.7312328564585 715.5568880071514,274.8603109330288 715.4432048925082,275.1392337085854 715.4432048925082,275.3292708597728 715.6199918934144,275.46928845340153 715.8218573369086,275.5069800201163 716.0055183360237,275.5423841715383 716.3522037760704,275.6087593365228 716.9076432213187,275.7228864785284 717.349414115597,275.9129227065714 717.5261865530047,276.05182628676994 717.7155127751757,276.28012010551174 717.8922997759655,276.67371236678446 718.0690867768717,277.1865301374637 718.2709522204241,277.93492356536444 718.3720815502456,278.3408985323622 718.5363293298869,278.822759241506 718.7632877795259,279.30461801800993 718.9780856604339,279.64706955407746 719.1678342258092,279.87195592260105 719.4704357830924,280.23070042568725 719.9502175573725,280.5978643868002 720.1520830008667,280.85145158687374 720.3037915590685,281.16855628369376 720.3466666667373,281.36838079744484 720.4045276729157,281.63803810815443 720.4425531164743,281.99339702070574 720.4045276729157,282.3734695816238 720.3466666667373,282.5920760379813 720.3037915590685,282.754148179054 720.1520830008667,283.375412573776 719.2811095608631,285.60080939813633 719.1168472177815,286.2097122410196 719.0788217742811,286.6150925110851 719.0161256676074,287.14752143001533 719.0161256676074,287.7440495189512 719.0541511112242,288.31472771440167 719.1929126685136,288.7836351291917 719.3951858916553,289.27840768446913 719.8803124906262,290.1914595964772 720.0015977813164,290.4197063103493 720.3422102186596,290.90208529826486 720.3466666667373,290.9068821592664 721.4405644516228,292.0810751094832 722.0214755554916,292.6005669226579 722.3495633351267,292.9558529355272 722.438153443567,293.3111783770728 722.4506926649483,293.7041886264051 722.438153443567,294.1736012334295 722.4010163769126,294.3085370322224 722.2864594489802,294.7245763182582 721.9583716694033,295.65051964641316 721.920739441819,295.7292295600928 721.6679015537957,296.2588048718462 721.5416937813279,296.48708053902374 721.5667722240323,296.72824797729845 721.6298761102953,296.93063719623024 721.6929945599986,297.2859508842521 721.8572277759667,297.59009986202 722.0720402204315,298.034219131805 722.2864594489802,298.3507118022826 722.4757856712095,298.80778095842106 722.715676558204,299.53017497158726 722.8673705529072,299.92371131834807 723.1578261049581,300.3037271681533 723.3973237759783,300.51960931229405 723.7383439929108,300.7860867178824 724.4831096604466,301.20376310910797 725.3545054435963,301.4955569084559 725.7837225529365,301.5590641624585 726.3266227768618,301.5590641624585 727.2857931093313,301.60965946514625 727.8268437617808,301.6828607113566 727.9423618845176,301.69850476511056 728.4601982294116,301.88849991493043 728.838850673812,302.11674464982934 729.3691971129156,302.58614463338745 729.8489788871957,303.14382035430754 730.5310484480578,304.34120752086164 730.732913891552,304.84828117940924 730.8591362276347,305.0641551595181 730.9477263359586,305.2417798732349 731.1746847858303,305.4447214032407 731.4400473315618,305.55884044774575 731.8186997759622,305.5965023395256 732.482958108536,305.5039362286625 732.8794072177843,305.4486677099776 733.7245157831348,305.330622487847 733.9267744427198,305.35589911040734 734.103561443626,305.5459087153431 734.1917583359755,305.7741465038562 734.5198461156106,306.6106166863465 734.7176337636192,307.056969186262 734.7221047750791,307.06708778545726 734.9619956622482,307.3717786484631 735.4288449991145,308.29703765857266 735.7067613297841,308.8299573880213 735.883562894247,309.48935475738836 735.9341275591287,309.83167980686994 735.9850854400429,311.84015869454015 735.9721530026873,312.37306271275156 735.9090491164825,312.80419640181935 735.9090491164825,313.19710243373993 736.0227176676271,313.6406176550081 736.1869654472102,314.09760842565447 736.3382662258227,314.46523552772123 736.4620855751564,315.16112766604056 737.1841612231801,319.21947723373887 737.1967004445032,319.6376763827284 737.1210427733022,320.2463865514437 737.0959643307142,320.6775122330291 737.159068216919,320.9051547105191 737.4507616711198,321.5088402380934 737.4746167751146,321.55772742306 738.1688177777687,322.9651680002571 738.2824863289134,323.3327477450948 738.3205263359705,323.6244878213038 738.2835494684987,323.9201121866936 738.2824863289134,323.9285296801827 737.740008448076,325.018954325933 737.4875783395837,325.75468691726564 737.4119206685573,326.09696564177284 737.4119206685573,326.53986671363236 737.4750391182024,327.08504819410155 737.5761684480822,327.5543709032645 737.8160593351931,328.0742759426648 737.9798993351869,328.3659842768102 738.573364224052,328.73356773899286 738.813255111163,328.9741039388464 738.9649491058663,329.39281545212725 739.0406067768927,329.9250751165964 738.9900421120692,330.7417105526256 739.0406067768927,331.09692429436836 739.1919075555634,331.89556461773464 740.1895256747375,334.8113296510419 740.3282581049716,335.5464357996534 740.3662981120287,335.7869785990624 740.3282581049716,336.0533778220706 740.0378025529208,336.636734824162 739.6470186667284,337.3212697917188 739.233573888021,337.9613714047591 739.0410145564238,338.25924672183464 738.8516883342527,338.61441801756155 738.5992582258186,338.893172629294 738.2833018880337,339.0707675877493 738.1951049955678,339.17192659463035 738.1951049955678,339.30456615553703 738.4095242240583,339.9255585166684 738.7254805617849,340.7370681336324 738.7360391396214,340.78090984994196 738.8262021120172,341.1557589065342 738.8516883342527,341.43392091439455 738.7630836622557,342.8534900305385 738.775622883637,343.5761858296755 738.7630836622557,344.0201352071599 738.87717455643,344.7552052756364 738.9783038863097,345.7313399806735 739.0033968924545,346.73218845855445 739.0539615573362,347.1885072135483 739.1296046649804,347.41666594153503 739.3318778880057,347.56896033647354 739.6348726613796,347.6577312099689 740.2408767716261,347.8100252994627 740.5564253298216,347.79709811208886 741.0993401173037,347.74652224811143 742.1345613368903,347.7718304131122 742.740565447195,347.86060113672283 743.0937316693598,347.89881622526445 743.6115388871403,347.86060113672283 744.1038744463003,347.74652224811143 744.619264113775,347.5817054750223 745.8082182258368,347.2014344664349 746.1350826667622,347.14074312642333 746.6921386666945,347.0367787897121 747.2851957760286,347.02330529646133 748.4721255537588,347.1879407611559 749.0150403413572,347.31494742041104 749.1537727715331,347.4160994901904 749.2294304427342,347.7330286040087 749.2294304427342,348.189343560196 749.3305743359961,348.66418764469563 749.4822828943143,349.10811823327094 749.6716091164271,349.48856528132455 749.8229098950978,349.8431571920228 749.8354491164209,350.17300684101065 749.7092267805128,350.7939632923226 749.5199005582253,351.82005670730723 749.4062174436403,352.50450522321626 749.4191644445527,352.74556028985535 749.4948221155792,353.1636225884431 749.5704652231652,353.41762314739753 749.7723452302744,353.7216301194276 749.9133932658588,353.9121903927007 750.1384438897949,354.2161151971086 750.328177891497,354.5330466145824 750.3912817778182,355.05283498726203 750.3912817778182,355.44562317669624 750.3783493404626,355.8001772890275 750.3030848854105,356.218228966085 750.1894163342076,356.58572727275896 749.9875508907135,356.96617088772473 749.6970807751059,357.4095044179994 749.4615152640617,357.63932273050887 749.2553244445007,357.84047660813667 749.0785374436527,358.0748050773982 749.0534590009484,358.2647111364349 749.1291021084762,358.41699179034913 749.3564537742059,358.6322031877935 749.5583192178165,358.7591977578704 749.7982246685424,358.83505459691514 750.0000901120366,358.91091138814227 750.2274417778244,358.9367633717193 750.4798718863167,358.9367633717193 751.1356542293797,358.77155736871646 752.2995007715654,358.8867585910484 752.8848828871269,359.1300664462615 753.8942246685037,359.8998368252651 754.3986916693975,360.2032610158785 754.8424723342177,360.46679441825836 755.5492125582532,360.91294697957346 756.1746298880316,361.17647882647 756.7555555555737,361.3389305084129 757.0427779982565,361.41921566278324 758.1123983360012,361.7630920087395 758.758059008047,362.33058696895023 759.3231977813994,362.61434355858364 760.9174993351335,363.64765851653647 761.3616877796012,363.8707291026076 761.684518115595,363.9314119978226 762.0477914453368,363.89095673768315 762.8552677831613,363.7487968458445 763.2387698915554,363.708341524296 763.6222865636228,363.7487968458445 764.0057886720169,363.9308456242434 764.2578110009781,364.31065917151864 764.3860431076027,364.9832439822494 764.4095049956231,365.1062874956697 764.4095049956231,365.5720838282432 764.328604444454,366.4839697913849 764.2076395520126,367.3554351985513 764.247703893343,368.0240587249864 764.3569159964682,368.97079706477234 764.6190599965048,370.1045835831901 764.8816263396293,370.87489049957367 765.1639845547033,371.7053051160474 765.4265363342129,372.5160339237773 765.6486305564758,373.3262111621152 765.7093023288762,373.5897158039734 765.8909535573912,373.93355734532815 765.8308788907598,374.495372082165 765.830267221434,374.5009948682273 765.7093023288762,375.04822418437107 765.830267221434,375.3516101507703 766.0119184498326,375.31115873283125 766.6575645582634,375.14935292484006 766.8796587805264,375.16957866278244 767.5859912249143,375.4735306422226 768.3327666631085,375.99996362111415 768.8918469973723,376.40963238099357 769.0795566649176,376.54714566472103 769.2409791146638,376.607822162885 769.4832875520224,376.58759666688275 771.0173251128872,376.4454517850827 771.521792113781,376.52635384423775 771.9052942222334,376.6477068310487 772.046080113796,376.7499668528326 772.2685821155901,376.91120419456274 772.8134921102319,377.7421434347052 772.9344570026733,378.1674403647776 772.9748999964795,378.41068898371304 773.0022066631354,378.5611036356422 773.0558151111472,378.8562086671882 773.1565512249363,379.05902596068336 773.4393317832146,379.22082650798257 774.34751510754,379.2618429121503 775.7160961137852,379.43826587565127 776.4054328888888,379.524201947439 777.2735809991718,379.7067931429483 778.2825150009594,379.9298339392117 779.3153186702402,380.1506091331248 780.4601743360399,380.2983519254194 781.0281530026696,380.39522903080797 781.4949877760373,380.4747733682452 782.0601411129464,380.81916151722544 782.5245437725098,381.2646722777572 782.6859807858127,381.528159524838 782.7264237796189,381.8927490396891 782.5650158933713,382.52084274575463 782.3833646648563,383.25005509963376 782.363135886204,383.6146596184408 782.4234144426882,384.1618070146069 782.5043149938574,384.7286502242205 782.7466525582713,385.27583300013794 782.8259511183132,385.61458513411344 782.8271598933497,385.6202074003231 782.7668813369237,386.0050084249524 782.7466525582713,386.47129007888725 782.7061804374098,386.95666115006316 782.7061804374098,387.5442811055109 782.7866877724882,387.848201808898 782.9080604445189,388.0914308469801 783.1904332231497,388.6178085926804 783.5132635592017,389.104303510685 783.8365016747266,389.40822027172544 784.3611828906578,389.6110197699163 784.9465504426043,389.651466378069 785.4105744498083,389.5700068954902 786.3794586738222,389.5907964607759 786.9850404409226,389.7728061207745 787.6711441066582,390.0761549421004 788.2362974435091,390.6839423379861 788.6115128889214,391.34907914712676 788.8419083378394,391.75746202270966 789.104052337876,392.2237011511461 789.4268681102549,393.19609361118637 790.1146028942894,394.4633831649553 790.5515095610172,395.18407015898265 790.873116558243,395.5199834838568 791.0810404409422,395.7705174695293 791.2533855574438,396.0452164952876 791.3468398933765,396.45247120637214 791.3468398933765,396.5777474042552 791.6902922240552,397.2040657704347 791.892958663113,397.50175391620724 791.971048448002,397.64276170474477 792.0802605511853,398.0657234127866 792.0495314489235,398.9577277113858 791.9872285582242,399.6935742069618 791.9091387733934,400.21035661688074 791.9245178879937,400.5552342358278 792.0806828942732,401.0720129434776 792.205681891588,401.5730370421952 792.2991362275789,402.21508170312154 792.3614245547215,402.6537795815675 792.304379107547,403.09920946636703 792.1061545529519,403.64570204055053 791.7343761067023,404.19336494157324 791.4989416675526,404.5286869231786 791.2141367751756,404.7898787037411 791.003372999141,405.03871506176074 790.8176876657526,405.4116653238307 790.6813727858244,405.5981400212331 790.4086993351812,405.84697470709216 789.1206256640726,406.94114562805044 787.8689754453371,407.9364095090132 787.4946192498319,408.20040449511725 786.5586486613611,408.86036920550396 786.0384093297762,409.2585826262075 784.2297176747234,410.5144607468392 783.8951491129119,410.7256562995899 783.6969245583168,411.0615262229403 783.6471754524391,411.17833537922706 783.5978195627104,411.3193069155677 783.5638282240252,411.3721206499904 783.4432856747299,411.5591522564646 783.238580337842,411.7703459750337 782.8793411129154,411.9567905954027 782.486940672039,412.13767455884954 782.2053834524704,412.285944208852 781.788676437398,412.5538320031483 781.3182153387461,412.65327121826704 781.0281530026696,412.666454288119 781.0099339947337,412.66728328479803 780.4755388870835,412.56618608662393 780.3210049992194,412.5751837407297 780.140984888887,412.57856038821046 779.6830484480015,412.74031584794284 779.2740455538151,413.0638261148706 779.0139258879935,413.5361697614717 778.3448033279856,415.20255081995856 777.9851708870847,415.9725689419429 777.4402608924429,417.0419000806287 777.1429167787428,417.626582906174 776.2193397760857,418.73184768357896 774.8584483271115,420.1976736088109 774.7929268906591,420.59417139791185 774.5065054435981,421.49330732779345 774.3625010062824,422.1082750708447 774.2649980018614,422.417162900063 774.0651423289091,422.84452583719394 773.9628042240511,423.39040305494564 773.9166814435739,424.1401512673183 773.8442714453558,424.4422812506382 773.701475783193,424.65007604376297 773.2544474453898,425.0274537606165 773.2284223715542,425.04936937007005 772.8604304497712,425.35938181646634 772.5206190080498,425.61322994183865 771.8749583360623,425.9995810702094 771.4186384498607,426.28318748253514 771.0905506702256,426.571281421202 770.2907638897886,426.76223172529717 769.8809600000968,426.83915762248216 769.4040181191522,426.9733785377175 768.8918469973723,426.9911088688823 768.8198447787436,426.99359556278796 768.7264050062513,426.923968114279 768.6402324480587,426.8133202306635 768.6226979271742,426.59469281413476 768.6187948942534,426.5460100506607 768.5888522241148,426.2107292212022 768.1102792249294,425.454281775601 768.0232911075582,425.36160571922665 767.6251380622853,425.04936937007005 767.2413155555842,424.74835286842426 766.6907403378282,424.36759795947 766.4961566720158,424.27437519386876 765.8096306631342,423.9930081914936 765.1113955556066,423.70547417050693 764.5923795627314,423.45780861075036 763.7205760000506,422.98942615350825 762.7848675556015,422.69853358817636 762.1829121137853,422.526116534078 761.7063488853746,422.3250506025506 761.5627376640914,422.2273176794115 760.7803543324699,421.9437421410985 760.6549475555657,421.8173601569433 760.5655418880633,421.5298007178062 760.5117441137554,421.1883596362313 760.4502422187361,420.7536718735937 760.3179614435649,420.1982397173997 760.2532410027343,419.92867061682045 760.2018607787322,419.75736159595544 760.1225767823053,419.53552686815965 759.7702115555876,419.08566936981515 759.5857349973521,418.9227902130806 759.3786266737734,418.8194742483902 759.1536925582332,418.7425230045046 758.9821484374115,418.7475776069041 757.6552628907375,418.8975374541769 757.1690003342228,418.9536838932836 756.7555555555737,418.96167015098035 756.1782707769307,418.97277003739146 755.5989762276877,418.99133050080854 755.2061534436652,418.93514364250586 754.9630294471281,418.85991103574634 754.4771601067041,418.7852040605212 754.1219841137645,418.8037241160346 753.7481958969147,418.8975374541769 752.8319006720558,419.29179529531393 752.3088214471354,419.4793604823353 752.0470706631895,419.59169322784874 751.1380717795691,419.82869152355124 750.6938833351014,419.99492567486595 750.2812541155727,420.19878560793586 749.7970158933313,420.6239324356429 748.6112948906957,421.4854627638124 748.4959952213685,421.5466624799592 748.3661319964449,421.5466624799592 747.7540694471099,421.3624566991057 746.8054140018066,421.03953485394595 746.2083082240424,420.9777485569357 745.351475996431,421.20857763351523 744.7697493333253,421.2697977084608 744.6471824498731,421.22430723303114 744.619264113775,421.19879212329397 744.3105895537883,420.91709443865693 743.988982556446,420.7632148032426 743.6216605582158,420.5323848720873 743.2219637759845,420.1993517164956 742.1640816640574,419.46925133879995 741.047537550272,418.74870983781875 740.3828860018402,418.4291372410953 739.9710723413737,418.34880926203914 738.4313695573364,418.21627707759035 737.4608687786967,418.2960188091092 737.1817436729325,418.1758400739345 737.0089907768997,418.0157700612617 736.3843744427431,416.841977449978 736.1849411129369,416.6021628609742 735.9591914382181,416.4555766908743 735.4409910044633,416.2151952042186 735.0287550009089,416.14891784545034 734.5368272213382,416.16181746844086 734.1249989973148,416.3219101669092 733.8592286721105,416.2556328670471 733.6864903395763,416.10848014679505 733.446992668556,415.68163918942446 733.2608995555202,415.0419309369754 733.1415512177628,414.49544969867566 733.1236526080756,414.27461622521514 733.1015014400473,414.00175833841786 733.1015014400473,413.6816272105207 733.2608995555202,413.03123249489 733.2742543359636,412.5510417189507 733.2212429938372,411.97757629156695 733.048519224918,411.67092624964425 732.7693795555388,411.35076869890327 732.482958108536,411.21272905240767 732.4372576712049,411.1907098236843 732.0577896676259,411.04581551416777 732.0517166649224,411.04355090728495 731.5998386631836,410.95031781561556 731.267308999144,410.8975241157459 730.7758035626612,410.884057775751 729.2474312249105,411.16430291952565 727.8404169955174,411.5513070447196 727.1624106667005,411.6978789716086 726.8169340018067,411.6978789716086 726.2853642240516,411.6181328660459 725.9795295574004,411.47095425298903 725.3816082204576,411.09745662633213 724.7036018915824,410.7239578399458 724.1453371164971,410.5374910889368 723.0554879999836,410.0173965479189 721.9393516658456,409.44450542054255 721.1687065599835,409.17770258241217 720.7435235555749,409.12436216379865 720.3466666667373,409.15333745858516 720.0125204480719,409.17770258241217 719.4142058951547,409.3641916614142 718.2847002168419,409.670867803914 717.4473103360506,410.0713229466637 716.9024003412924,410.2847434589348 716.6531887787278,410.43809056436294 715.0835578880506,411.4052606498881 714.2728484409163,411.79167763204896 713.5552001137985,411.93883563313284 713.0499321173411,411.978708586219 712.4119610026828,411.975352141395 712.1065341155627,412.05566415705835 711.6947058916558,412.22918807237875 710.7909498880617,412.64259535682504 710.1663481173455,412.8694774264004 709.7144555521081,412.96272924996447 708.2103752248804,413.201580566325 708.119338439079,413.2160373945371 706.3785857707262,413.49627710532513 706.1395104426774,413.5625761449628 705.8207433386706,413.7360978863726 705.3688507734332,414.042762882862 705.0363211093936,414.3763792193786 704.4647015538067,414.84311703091953 703.6827260018326,415.6434456350107 703.4565831111977,415.7771331318363 703.2571352178347,415.8170048126485 702.6325334471185,415.6967831629445 702.3686126933317,415.6535551000852 701.679829333385,415.54067276537535 700.5993008924997,415.3631704884465 699.9746845582267,415.2699609636911 699.7485416675918,415.30983281266526 699.3630152248661,415.5367300704529 698.5794085547677,416.4173833822133 697.8350506667048,417.2704924386926 697.3564776675776,417.72429934851243 696.4794312248705,418.3375880072417 696.1740043378668,418.577945034398 696.0740692195832,418.6979211837461 694.8216034418438,420.2010500423785 694.7617326648906,420.50318991887616 694.5626925511751,420.68796312168706 694.2410855538328,420.85700639526476 693.6901025565458,421.04177905461984 693.1014873316162,421.1187086098071 692.4894247822813,421.1647854472394 692.0759654400172,421.30293498167885 691.7697375574498,421.4416504603287 691.4639028906822,421.7185148363351 691.2037832248607,422.10265451003215 691.0658372266334,422.4873590548814 691.0350789974327,422.85633298548055 691.0658372266334,423.22587187879253 691.2341191111482,423.6869346519816 691.4942387769115,424.1637450908893 691.9384272213792,424.8410293973284 692.0902522880351,425.04936937007005 692.3975870009162,425.47114298757515 692.5812625635881,425.8400875496736 692.6115984498174,426.1938883300172 692.5658834489295,426.5319793834933 692.3822224498144,427.13173840387026 692.3215361138573,427.59337249881355 692.1071168853086,428.2240175275074 691.8162681173999,428.97765765467193 691.4335524409544,429.86941254194244 691.1734473387478,430.2540922512417 690.9436635591555,430.7308766627684 690.4387887787889,431.423286209465 690.2243841138552,431.89218166976934 690.1175749974209,432.4459021179646 690.0718745600316,432.9535274967202 690.1022104462027,433.3533593118773 690.2247773298295,433.8149493187084 690.4521435591159,434.1636929086526 690.5156552248518,434.26082987719565 690.8372622222523,434.83024702905095 691.0973818880157,435.4760158237186 691.21955555561,436.3368737679848 691.4339602204855,437.39761435901164 691.6022566684405,438.5667186839273 691.5868775538402,438.7666254308715 691.4950543360901,438.9816931033274 691.3728806684376,439.1046609399491 691.204598783981,439.19732641062 690.8372622222523,439.30456679305644 690.423817443545,439.64318702282617 690.2712933262228,440.1507820361585 690.1794846720295,440.62750701556797 689.9496863289387,441.27326491023996 689.8683343076264,441.4144235464919 689.781404444424,441.5652445841988 689.6578909297823,441.89599500386976 689.5977434453089,442.05714504397474 689.1689341156161,442.7578985916043 689.0313813333632,443.21890673361486 688.9549372302135,444.203217688686 688.9241790008964,444.9258909409109 688.8169621048728,445.54128469654825 688.6644525511656,446.14096917846473 688.5115497813676,446.58680406125495 688.2663868871168,447.0943697828916 688.0062672213535,447.50931479249266 687.8683066595695,447.6788661510218 687.5624865565333,447.89393810761976 687.2408649956342,448.26226815365953 687.1033267769963,448.53907081700163 687.0572185600759,448.98546278767753 687.2105291093467,449.93886106755235 687.2643268835382,450.3111061966629 687.317338225781,450.6766394438164 687.317338225781,451.1072775806242 687.3788255574182,451.53793438914 687.5928370062029,451.82988915612805 688.0673467734014,452.1993390705902 688.4197120000026,452.55306234859745 688.7255466666538,452.84501465261565 688.9707095610211,453.15214593321434 689.3837319965241,453.72090773980017 689.7053389938665,453.9207893113198 690.0419318897766,454.05944697657833 692.4489526613033,454.5805032674689 693.030693888024,454.7652039316308 693.4133950009127,454.9651039808523 693.7960961138597,455.2727553693694 694.0408366649062,455.3648424463754 694.362050446216,455.42661108708126 694.836574776913,455.39572677065735 695.2192758898018,455.3805473688117 695.6630565547384,455.48779354128055 695.9539198862622,455.73369535428355 696.0740692195832,455.90281066921307 696.1833104498219,456.05656452063704 696.4895383325056,456.59440837884904 696.8568603307358,457.4708401086682 697.2241968925227,458.56284384970786 697.2766111289384,458.74024198180996 697.9280972231063,460.9455394609249 698.0118376675528,461.2240106976824 698.1271373369964,461.6068924374995 698.4026215538615,462.2064968616469 698.6627412196249,462.68313446911634 698.9997273316258,463.0368269321334 699.0151064462261,463.28271331990254 697.0105932230945,470.99406667839503 697.0567014400731,471.20907676022034 698.2351406649104,473.0689110724488 698.3880579982651,473.5303487580968 698.479895779572,474.0529981093714 698.3880579982651,474.5907615448523 698.2658988942858,475.0370568909275 698.1894402275793,475.3289546544838 698.0812184463139,475.582131537667 698.0514942293521,475.6517308365437 697.8370750009199,475.9745061530557 697.5615762204397,476.29732102141134 696.781202659593,476.9978752126044 696.5821771093761,477.32064691901905 696.5732787768939,477.5188119893428 696.566812558216,477.6585741454328 696.6893940053415,478.35014788564877 696.719729891629,478.8267417708121 696.6744081067154,479.2572993967333 696.3681802239735,480.5489226176578 696.3835593387485,480.87168480138644 696.5061262222007,481.51722678000806 696.5364621084882,482.07067851437023 696.5215053369757,482.45519138747477 696.4446388906799,482.8088257497584 696.2917215574416,483.23882352691726 696.0740692195832,483.49572216600063 696.0315873280633,483.54583683703095 695.618142549356,483.96122199244564 695.3734019982512,484.48380584380357 695.1590118969907,485.2062170445861 694.9146499982453,486.32884555024793 694.5012052195962,488.6610608785995 694.4708693334251,489.2756652532844 694.3940174506861,489.73647502961103 694.3636670009582,489.95201741394703 694.2711010418134,490.06541595220915 694.2257064391742,490.1209634153347 693.8583990044426,490.30562975176144 693.3381451093592,490.53632588114124 692.83287711296,490.6744160039525 692.3668433351559,490.705291268765 691.6625206613098,490.78217630146537 691.4177801102633,490.8742160066613 691.2952132266364,491.01285131121404 691.1269167787395,491.59658885607496 690.9760237796581,492.3846270205104 690.9739994453266,492.39640714169946 690.9746402417659,492.4216848934011 690.9893785600434,492.98013797734166 691.1115522275795,493.6873438236944 691.1422813298414,494.3945455153589 691.0197144462145,494.91710427898215 690.866797112918,495.3324501956522 690.6070706630708,495.7926710334141 690.4387887787889,496.2540216136549 690.3926659982535,496.65364317651256 690.4234096640139,497.4988895310671 690.4537455502432,498.4215960505244 690.3619368960499,499.5547694701527 690.3315718826489,500.21589013093035 690.3773014470935,500.892201030656 690.2547200000263,501.75257097760914 690.2243841138552,502.3059498872608 690.0564954453148,503.56592855235795 690.0257372161141,504.24220042832894 690.1632899982505,504.7955476901261 690.4848969956511,505.57957991492003 690.8065185565501,506.11778843271895 690.9133276729262,506.53253000433324 690.836854442663,506.83948391175363 690.6228429938783,507.2699615577003 690.301235996536,507.5617811693519 690.1329541120213,507.7615733492712 689.8420762168826,507.93103985104244 689.3829310009023,508.0999808257329 688.694002005388,508.31490443533403 688.405949440028,508.3929298132716 687.5620787770022,508.6224598978588 686.7048533333582,508.82225031763664 686.4904486684245,508.93001457472565 686.4447336675366,509.08376131361 686.4541999787325,509.25886264955625 686.4597050027223,509.3604443393124 686.6130155520514,509.69826143071987 686.7351892195875,510.22075376976863 686.7966911147232,510.7392840611283 686.8120556657668,511.3695137530158 686.7966911147232,511.876826560474 686.4597050027223,514.2433354894747 686.4143977813656,514.9807400171121 686.4601127822534,515.7186450816516 686.5980587804806,516.4408890720806 686.6745174471289,517.132785499125 686.6745174471289,517.4706211868906 686.4451414471259,518.0856441481446 686.2764517831383,518.5160815855197 685.7408187733963,520.4823532386217 685.6797392213484,521.1124915306864 685.6954387341975,521.4858902948326 685.7100751075777,521.8347031667654 685.5110349938623,523.6976946552459 685.5110349938623,524.5584470650356 685.5098262187093,524.5808899756521 685.4653345565312,525.3417849920806 685.479417514638,526.0936860298389 685.4803058916004,526.1408337166649 685.4653345565312,526.7709625969874 685.373088995635,527.1547671210428 685.1590921102325,528.4767421398137 684.8374851129483,529.7673122104898 684.845975665783,529.808802526095 684.8682142152102,529.9210323441366 685.649010119203,531.1655522085784 686.1384912213543,532.1485988728236 686.3682750009466,532.7944315400673 686.3529104497866,533.1479180687456 685.618645105802,534.6342266710708 685.3815941120265,535.0247323624208 685.2994847858208,535.1599638265616 685.2452646684251,535.2486166039307 685.2359585565282,535.2643111079524 684.7003401102265,536.0475793938094 684.2055870009353,536.6608309936128 683.9377777777845,536.9928755073051 683.9195733334054,537.015437291906 683.7969918862218,537.3228790569992 683.7820351147093,537.6455294681946 683.8455467804451,538.116818890092 683.8584792178008,538.213872005028 683.8584792178008,538.6442172989482 683.9046019982197,539.2742807548784 683.8665911182761,540.0956770539633 683.858901561005,540.2578267714707 683.8892374471179,540.4631797438487 683.9199811129365,540.6724305682292 683.9377777777845,540.7617458190362 684.3026822257671,542.5929160369851 684.3882285511354,542.9261762461683 684.4406282240525,543.1303734095709 684.5474227769882,543.6375726205006 684.6700042240554,544.0678985333943 685.0021261084476,544.6188209076645 685.0219616711256,544.6519242394716 685.0522975574131,544.6878349820618 685.2820813369472,544.9593667071604 685.4022161066532,545.1490184490103 685.5426087822416,545.3700562682352 685.6736807822599,545.63205342117 685.909916216915,546.1066844931629 686.3690759965102,547.0750068671186 686.6902897777618,547.9659276674793 686.9046944426373,548.7036710241518 686.9605165511603,549.3639563825855 686.9657885583001,549.4256768122432 686.9046944426373,549.671407018177 686.8711108835414,549.7937165318581 686.8282357761054,549.9479766033473 686.6291956622154,550.1780131850683 686.307588664873,550.4085744313488 685.3435686684679,551.100295914337 685.165572892467,551.242779948283 684.6704120035865,551.6377355188888 684.0275912248762,552.2525840044254 683.9377777777845,552.3357914811058 683.2318531129276,552.9897356193105 682.8948670009268,553.2354585535359 682.8394526720513,553.264076043648 682.4700917760492,553.4548052813916 682.3592485547415,553.51201995468 681.8543737742584,553.7583073041751 681.8135230009211,553.7762613192608 681.3341344427317,553.9883164126659 681.0125274453894,554.2805883066321 680.6759345493629,554.6648706435517 680.3697066666791,555.2179862461926 680.1557097813347,555.7862660579558 680.039201336971,556.2131961403356 679.9720342187793,556.4583470301295 679.9413051165175,556.8577486427675 679.9720342187793,557.2880071273248 680.094207886199,557.7020070344151 680.247532999143,558.2242911311041 680.6148695609882,559.0847968002781 680.9426223786431,559.7562939145137 682.099536668451,562.1263452756684 682.5433173333877,563.0479912745941 683.5842037760885,564.9686652235396 683.9377777777845,565.42577267054 684.2727395556285,565.858888251707 684.7444385564886,566.3698891295935 685.9467037582654,567.6724721562932 686.2666505102534,567.9841772468935 686.4670595982461,568.2301523000351 686.6191031183116,568.5300226933905 686.8307115805219,568.997879596136 687.2166312391637,569.6016140455904 687.6322314240388,570.0264960548375 688.3076163129299,570.5258885105432 689.3095015537692,571.1743222225341 689.912068664853,571.6122633949853 689.7818122240715,571.7698677108856 688.7364838969661,573.0285342155548 688.3290975574055,573.5193526353978 687.919293667539,573.9781439862272 687.7194525583182,574.2013904461055 687.4767217778135,574.4734210289607 685.5905374435824,576.5840602485114 684.7322925511398,577.5443032396433 683.9377777777845,578.3578061637818 678.1066903324681,584.3279769995133 674.5434688854148,587.975135086861 673.9815632213722,588.5505489452335 672.5725392213208,589.9055064920394 671.801486336044,590.6242975013447 671.1214556728955,591.2582077709085 670.0336308906553,592.2715931634302 668.6963324018288,593.4094964500109"/></g></g></svg>