<svg width="1200" height="800" version="1.1" xmlns:xlink="http://www.w3.org/1999/xlink" xmlns="http://www.w3.org/2000/svg"><g class="geojson-features"><g class="geojson-feature" stroke="#555555" stroke-opacity="0.0" stroke-width="0.0" fill="#111" fill-opacity="1.0" data-properties="{&amp;quot;N03_002&amp;quot;:&amp;quot;上川総合振興局&amp;quot;,&amp;quot;fill-opacity&amp;quot;:1,&amp;quot;description&amp;quot;:&amp;quot;上川郡比布町&amp;quot;,&amp;quot;N03_001&amp;quot;:&amp;quot;北海道&amp;quot;,&amp;quot;stroke-opacity&amp;quot;:0,&amp;quot;N03_007&amp;quot;:&amp;quot;01455&amp;quot;,&amp;quot;fill&amp;quot;:&amp;quot;#111&amp;quot;,&amp;quot;N03_004&amp;quot;:&amp;quot;比布町&amp;quot;,&amp;quot;title&amp;quot;:&amp;quot;上川郡比布町&amp;quot;,&amp;quot;stroke-width&amp;quot;:0,&amp;quot;N03_003&amp;quot;:&amp;quot;上川郡&amp;quot;}"><title>
      上川郡比布町
    </title><desc>
      上川郡比布町
    </desc><polygon points="512.9703606613912,712.1397143136128 510.6507066596532,712.4832033237908 512.9703606613912,708.1253470663796 513.137055118219,707.8123004171648 512.9703606613912,707.6390988648636 512.2421828836668,706.8823653249419 512.1782780018402,706.8162181637017 512.4088773404947,706.3080393665587 512.4970451059053,706.112868378812 512.573095992906,705.9457230598782 512.9703606613912,705.4132317880867 514.004402232822,704.0275213193381 514.2964597760001,703.49244126759 514.3968026738148,703.3634565097746 515.0481140054762,702.5277192190988 515.5481391218491,701.6146037582657 515.7027167006163,701.1681204970228 515.8110695538344,700.8551455758279 516.0262897778302,700.0317974804784 516.1864888890414,699.418161438487 516.3151433387538,698.9324206587626 516.5311791218119,698.1179909330676 516.6986308837077,697.0803533172584 516.7091457708739,696.5889943644288 516.7018931200728,696.5340309147141 516.6258422328392,695.970907236333 516.3483191182604,695.5693213880295 516.2334126648493,695.4974768660031 515.5780526648741,695.0847036243067 515.0585997654125,694.7582322412636 514.6629953422816,694.3858023226494 513.5755929031875,693.332398425322 513.2511460125679,692.892644147505 512.9703606613912,692.6058281322476 512.7252268943703,692.3553181734751 512.1167615432059,691.8370125246583 510.7874584463425,690.7062187084812 510.4314668943407,690.355106148636 509.6077813191805,689.3107310517807 509.10213467036374,688.2124361151946 508.5543702187715,685.9294851371669 508.2380206650123,684.9243062054738 507.03652733168565,681.7517192943487 506.8350551041076,681.3220002808957 506.6190484481631,680.8609400056303 506.27438734227326,679.3609936799039 505.60525021876674,677.1722240980598 505.44912890309934,676.4575599075179 505.375495566288,673.4216977217002 505.54134533705655,671.6580876436783 505.6457077760715,670.9557257092674 505.86497666861396,669.8540351846605 505.9766208854271,669.3974361575674 506.0745462330524,668.9946751119569 506.34557400178164,668.1767514658277 506.75227585434914,667.5125878290273 506.84638555021957,667.3589058217476 507.2226204444887,666.8663553372608 507.3739357867744,666.6430816085776 507.3690424320521,666.4882681363379 507.1805317690596,666.3839416521951 506.34475844271947,666.089945095533 505.43695377081167,665.964333048847 505.0502039892599,665.7444108352647 504.7160577707691,665.4190709938412 504.28806400008034,664.86366983474 503.6254513494205,663.3456906629144 503.2225068943808,662.5928974012495 502.835757112829,662.0588158534956 502.2831284337444,661.1051564444206 501.9061071075266,660.4543830097537 501.1957259946503,659.3638327212539 500.0428166827187,657.8099112029886 498.9246560143074,656.1213552067638 498.5694508943707,655.5973975707311 498.3501820018282,655.1351570941624 498.2320424391655,654.7559205148136 498.1624577707844,654.3396441657096 498.18995376362,653.9536609116476 498.3291522276122,653.0706552459742 498.4650593281258,652.4625544526498 498.42381533863954,651.8690336724394 498.32833666855004,651.3035436145728 498.23125600721687,650.8659341826569 497.85828334942926,650.0973488849122 497.31535399821587,649.4892001928529 496.4285791005241,648.691487416043 495.7805300053442,647.8005858677789 494.5377926826477,646.7941572133568 494.380826680921,646.4474238757975 494.380826680921,645.9761581819621 494.48274244274944,644.860902446846 494.5571913388558,644.0294458434801 494.73518711468205,643.5267896723817 494.90348356275354,643.380928705039 495.45121888723224,643.1699532421771 496.2708266666159,642.6885827262304 496.5734282240737,642.3733101667021 496.8873602276435,641.902036501735 497.0539964302443,641.3668588353321 497.72555110405665,638.7714989064843 497.8485548943281,638.0253343152581 497.93675178673584,637.036800012982 497.8687691092491,636.6732484564418 497.70210377976764,636.4005440341425 496.68830555013847,635.5612620227039 494.912367331679,634.2922145629418 494.5663372516865,633.8523524923366 494.24404576723464,633.4427860126016 493.36863044276834,632.041270829679 493.1340115626808,631.6653911091853 492.98024954320863,631.3826225289376 493.0118524588179,630.8058139914647 493.4187873280607,630.4176116558374 493.72223357169423,630.0708951386623 493.94875511468854,629.7173916257452 494.28613444278017,629.1899832944036 495.03697311284486,627.9736595861032 496.61467221344355,626.1389826099621 497.0880168961594,625.3501605294878 497.26601267198566,624.7733375447569 497.4116482276004,623.3471298163058 497.3461122276494,621.6807526316261 497.17134956095833,620.1950212098891 496.8792337636696,619.4084015263943 496.3881215432193,618.643109245284 496.2416995555395,618.25484690757 496.23118466848973,617.9203938103747 496.3363626667997,617.6162790315575 496.460968448082,617.4513749752077 497.07747288187966,616.7870714548626 497.8607008997351,615.8859119566623 498.1737882171292,615.4662557707052 498.39873689610977,615.0836036709952 499.7612448997097,612.7112844375079 500.4303237689892,611.1492245167028 501.0775864319876,609.8901078069466 501.287155996426,609.3660495905206 501.4740646685241,608.3998193145962 501.55821289261803,607.5536930009257 501.18197799823247,606.2866795426235 500.3154464426916,604.3890152613167 499.7199426559964,603.2881110289018 498.5386926649371,600.8551150247222 498.3768915627152,600.485933548829 498.2459651983809,600.1873720596777 498.11069889436476,599.8787907972583 497.79676689079497,599.4489660937688 497.50468022050336,598.6352907603141 498.23530467553064,596.8733550732723 498.29839399829507,596.6107463253429 497.9642477798043,596.4121331190108 497.66083066316787,596.2336800639168 497.0135971271666,596.4222334690276 491.1120657636784,597.2616518833674 490.38068400358316,597.4289130361867 489.3046120107174,597.5546012317063 489.3151268978836,596.3178766318015 489.70106112002395,587.1656505286228 489.8410168889677,584.0455931153265 490.20268822764046,575.9513075217837 490.2042902186513,575.8593056969694 490.22159172268584,574.9388006545487 490.26417555916123,572.65829102305 490.53497031121515,566.5177252991125 490.5877777636051,565.3201165237115 490.8281055573607,560.6575921264593 491.05302510922775,556.2520137562533 491.2334675627062,552.7241552580963 491.24558444088325,552.1124066877528 491.1493193388451,551.7936211803462 490.7706668943865,551.3277870673337 488.6977777777938,549.4554707422503 482.6878935608547,544.0271096639335 478.93777800537646,540.639378233871 478.2448731592158,540.0136976197246 475.825225784909,537.8285913967411 475.85193534579594,537.6467407838791 477.3972450988367,533.7863027424901 477.76637297775596,532.8433697868022 480.0607737743994,526.9824169256026 480.3949199928902,526.1427130525117 480.3747057779692,525.9395154291415 477.6359417743515,524.5429918803857 477.323670016136,524.2960654997732 477.0461469014408,523.9087421693257 476.4983824498486,523.0634504833724 475.819545998238,522.1406420477433 475.31791889073793,521.6579383545322 474.8268066702876,521.3222598808934 474.2523617850384,520.8709562878357 471.29593088000547,518.9827627154882 470.60660866845865,518.5730008097598 470.55726734234486,518.5336775326869 469.92780134419445,518.0274049220607 469.54673134954646,517.5199592222343 469.5046426738845,517.1820521700429 469.5936551253544,516.8946630816208 470.43994333874434,516.0762226659572 471.1705386666581,515.54638295935 471.4424111217959,515.0737293917337 471.67216577439103,514.4765154295601 471.8396466631675,513.8466848747921 472.01685600716155,513.2797389697516 472.4763944391161,512.5668515018187 473.0014979982516,511.89324587525334 473.5104360107798,511.21292935765814 474.09618221526034,510.28449810581515 474.69089956977405,509.57608794089174 475.28555867029354,508.69481599587016 475.64073466311675,508.0436709605274 476.0064546703361,507.2611710182973 476.73786555731203,505.67817810346605 477.1561600000132,504.9540322670364 477.4693055716343,504.5139742810279 478.59635000897106,502.9398954772041 479.2128544426523,502.0731898591039 479.57857444987167,501.1806948305457 479.86742801079527,499.9984430152108 479.91272066847887,499.43934594094753 479.91076915198937,499.164263075334 479.90948755911086,498.98351495020324 479.7978433424141,498.53665585425915 479.7978433424141,498.07524548313813 479.88117600721307,496.0924965273007 479.99605333339423,495.50529963802546 480.2573817743687,494.5015889730421 480.33101511118,493.69434921914944 480.20477821165696,492.805137464311 479.53648577432614,490.21043920511147 479.23388421710115,489.0259508587769 478.95152600179426,488.02892282785615 478.57613579381723,487.2733177738846 478.4596273493953,486.99708925100276 478.0744795590872,486.08093308942625 477.4263722099131,484.6325213209493 476.96601821877994,483.3312310706242 476.6108130988432,481.49549201584887 476.35999954491854,479.7169750869507 476.33896977081895,478.8557639621431 476.3697280000197,478.3336436175741 476.6650477796793,477.10641179961385 476.861655779765,476.4529177014483 476.9344735572813,475.9499115718645 476.9247451022966,475.30878338305047 476.80908134416677,474.41724007826997 476.79938201606274,473.22143667092314 476.7912555519724,471.98180956661236 476.8300819910364,469.61596228479175 477.00164067570586,467.3691781182424 477.2325312853791,465.4804839636199 477.2370751147391,465.443415721762 477.41425533161964,463.25156891474035 477.62379576894455,462.0444721704698 477.70310889254324,460.61503639200237 477.74921710940544,459.7886026938213 477.8859397689812,459.03173666785005 478.37544999818783,457.02170271315845 478.37544999818783,455.75284573435783 478.3131471076049,455.28011516225524 478.1383844409138,454.4188165917876 477.44579999288544,453.1184948871378 476.6933593316935,451.7259956013295 476.3907577743521,451.1667863832554 475.82685690326616,450.23699155892245 475.450622008997,449.6485912826611 474.84460333525203,448.92427685443545 474.3534911148017,447.99224991875235 473.92549734422937,446.8816151463543 473.81059089070186,446.1652160086669 473.81059089070186,445.53633862390416 473.9667413334828,444.68062451615697 474.38826888543554,443.6227721950854 475.3769886720693,441.73057662928477 475.83655623113737,440.6592489670147 475.8673144605709,440.35491018614266 475.8203324303031,440.06629737612093 475.46032133698463,438.92874151241267 475.23053755727597,438.3414051410509 475.14720489259344,437.7428283416084 475.16741910763085,437.4912849521497 475.2410524444422,437.0084114665515 475.2725971058244,436.3727586317109 475.31468578148633,435.2418964324752 475.38464910222683,431.7919900077395 475.39964956440963,431.05189488834003 475.28151000174694,428.7047279556282 475.1876624498982,427.9702834964846 475.06145467748865,427.3694168313523 474.8324864569586,426.78431631991407 474.3624040107243,425.9757173617836 473.81950378685724,425.5354745166842 473.4012093441561,425.1154863773263 473.12368622934446,424.7021684930078 472.61798132630065,424.1519124362385 472.0961108764168,422.9647943859454 471.698875335278,421.8664563263883 471.1559751111781,420.16609653638443 470.9359197868034,419.1272199556697 470.7651766615454,418.44441744702635 470.53947067749687,417.5425960291177 469.6616086756112,413.92613891744986 469.29585954151116,411.9528450925718 469.1984002275858,410.94025463733124 469.1211260018172,410.13786950014764 469.0248608996626,408.75078208517516 469.01431688538287,405.9215938683483 468.9099544462515,405.0713591357926 468.7950479929568,404.8310221231077 468.5960224426817,404.6210100753815 468.02562622597907,404.33910682285205 467.5935837868601,404.17963644873817 466.88320267386734,404.0223493889789 466.0368853334803,403.73931328987237 465.1800822329242,403.3192466714536 464.4251948943129,402.8342829119647 463.56108088896144,402.27924606739543 462.8717295503011,401.6749187807436 462.0990455467254,400.8561673142249 460.8878528854111,399.3757844850188 460.42831445345655,398.74682524084346 460.01459296711255,398.0987387401401 459.81178089254536,397.7808813524898 459.32063954498153,396.7734069240978 458.9760075662052,396.0073660911876 458.5997726720525,394.8987961630919 458.25030559301376,393.39334711118136 457.0997264498146,388.441404193989 457.0269086720655,387.46753381640883 456.8780108799692,387.1092662764131 456.4006757832831,386.8396756661241 455.80517199635506,386.8104804448667 453.45234221522696,386.8700031086337 452.3795324587263,386.990180615976 451.6942297886126,387.0788984276587 449.3106417779345,387.1990758306347 447.166566001717,387.1990758306347 446.3324237939669,387.0193758155219 446.212653112947,386.8396756661241 446.09372711833566,386.54088949988363 446.1236406614771,386.2117754408973 446.3914644480683,384.1191672250279 446.5694602241274,381.3997602710151 446.59940289426595,379.93502844590694 446.51039044267964,379.06787971098674 446.0629688889021,377.33349198801443 445.9739855644293,376.0473519132356 445.88415755389724,374.1939312975737 445.7352888889145,373.5951948959264 445.6747044977965,373.48435206885915 445.04998621880077,372.3404559639166 445.4965922133997,371.7428876842023 445.8250877725659,370.8161423605634 446.00389910757076,369.470400049584 445.94404289429076,367.19793138833484 446.00389910757076,365.46345808909973 446.0031126756221,364.64571571029956 446.0031126756221,364.4008089902345 446.0031126756221,364.05819798226 446.2709073352162,362.71355020510964 446.5686446650652,360.9689747792436 446.8372840107186,359.83326915377984 447.4627013405552,358.39760468841996 447.82032401068136,357.7403910345165 448.29684354853816,357.4404768041568 449.45872401073575,356.9023611493758 450.6796159999212,355.88569700036896 451.9013235485181,354.6005746317096 452.19909000536427,353.91192707326263 452.37790134060197,353.31427257315954 452.43775755388197,352.50655904313317 452.46688466507476,350.65404900274007 452.55671267560683,348.80039229243994 452.6456959999632,346.67712612007745 452.70558134058956,346.16826743172714 452.79538022412453,345.5402610428282 453.3010559999384,343.5966986818239 453.86661711649504,341.77222872234415 454.4030511218589,338.6535182391526 454.84965711657424,336.5009611713467 455.5058326756116,333.4203629659023 455.93464200536255,331.65421966073336 456.1603771165246,330.7284523691633 456.1635810987791,330.6981582942535 456.36910199478734,328.755608502368 456.3391884516459,327.20068372628884 456.07057823298965,325.97490538220154 455.8043564372929,324.5940468253102 455.8011524551548,324.57948588434374 455.68379932444077,323.97051418881165 455.47507444629446,322.56497121293796 455.2064642275218,321.6088332698564 454.37229289254174,320.2336123374989 453.8957442275714,319.2965565585764 453.80676090321504,318.6089404647937 453.86580155743286,318.33931352343643 454.0745555626927,317.50223845778964 454.1344117760891,316.60456878266996 454.0146702224156,315.3786959872814 453.59797777072527,314.4810183864902 452.8528188870987,313.16529760241974 452.2872577707749,311.46190417459 451.92966422752943,310.1158297577058 451.75085289252456,309.33830837195273 452.01783199294005,308.50124242849415 452.554295125301,307.3349515777081 452.91188866866287,306.22819769283524 453.0308146632742,305.3607023076038 452.7330773334252,304.1337204881711 451.86899245518725,301.89210525661474 451.3625011200784,300.93475249700714 450.2006497849943,299.199841763766 449.2790971165523,297.9492452669074 449.1577535715187,297.78404112905264 448.8381417815108,296.99074416432995 448.5913768960163,296.37838556221686 448.35346665256657,295.2423344657873 448.38259376352653,294.3748803571798 448.7402455608826,293.4770434515085 449.3065931093879,293.08825617597904 450.6173131093383,292.2218865151517 452.017045560875,290.5172525193193 453.1489542259369,288.4833990924526 453.32776556082536,287.9451695927419 453.23875310935546,287.55633292056154 453.08991357160266,287.1371556042577 452.017045560875,286.0898968266556 449.60351487994194,283.9368692644057 448.0250002206303,282.6513219527551 447.1317591042025,282.2928578056162 446.14874823135324,282.05349035322433 444.47956087475177,281.6950657693087 443.10980022058357,281.2163294364582 442.30475599633064,280.7668002494611 441.44064199121203,279.8700857202639 440.2788197832415,278.2844632632914 440.1525828834856,278.02324618172133 439.80227111827116,277.2978484580526 439.41470577789005,276.30107535485877 438.9381571129197,275.91221985482844 437.6865068943007,274.8952537565492 436.889560007141,274.3872950159712 436.7932657778729,274.3266117561143 436.510907562566,274.2479662284604 436.59505578677636,273.28937065415084 436.7357979877852,270.29789678531233 436.8482577635441,267.4771533408202 436.932435114868,266.7152317794389 437.32483555562794,265.27678622835083 437.44702378683724,265.07899170642486 437.9713117867941,264.23274973552907 438.70190711470786,263.3572945763008 438.7960168106947,263.27864546101773 439.71407422597986,262.51108700368786 440.1525828834856,262.1131467084051 441.1752940089209,261.1849269674858 442.04666066507343,259.74535596818896 442.4957133369753,258.39114315237384 442.88892933691386,257.12115712673403 443.3387684408808,256.10637723404216 444.18185267201625,254.78018187382258 444.4626088960795,254.0182200789568 444.51923199999146,253.17197963950457 444.43508377613034,251.20857382687973 444.49092044797726,250.81296147499233 444.7441806792049,250.0790256068576 445.61394534411374,248.64052099036053 446.3728522241581,247.2569930041209 446.48531199991703,246.6646973641473 446.76685465616174,245.08561282185838 446.7943797761109,243.73131743853446 446.879343559267,242.71526720840484 447.01929932797793,242.2073214050033 447.30087111110333,241.69929360668175 447.6657755592605,241.27558562532067 447.9748433352215,240.65515473415144 447.9748433352215,240.09096341673285 447.77823533513583,239.6672121398151 447.41333088709507,239.1030185042764 446.879343559267,238.34100702649448 446.6261124551529,237.635194421513 446.42950445518363,236.61911842942936 446.3728522241581,235.51988866261672 446.3445406720275,234.24986275163246 446.0629688889021,233.14948920428287 446.00794777611736,233.0236509818351 445.2482253370108,231.29832543153316 445.1697568995878,230.92740309878718 444.88154413504526,229.56181969988393 444.85500933695585,229.43593913665973 444.85500933695585,228.1095966595458 444.9674691129476,227.6858647284098 445.4165217850823,226.2764003823977 446.0912804407999,225.03436706145294 447.4125444551464,223.87669478089083 448.4805191111518,223.45408838329604 450.33413933520205,222.60765943286242 451.2621582223801,221.9579651260865 451.85198222240433,221.25210442353273 452.2735097743571,219.95392066723434 452.3018504533684,219.24910616502166 452.1052133262856,218.40161032200558 451.4587953494629,217.66765643743565 450.1375313352328,216.76500096102245 449.5752324551577,216.1456803085166 448.98540845513344,215.52405153232394 447.72079667204525,213.49182974605355 446.65282201603986,212.00806755194208 445.6123142259894,210.9076326660579 444.82588222587947,209.60931211622665 444.1510944426991,208.36832574981963 443.9261457636021,207.38029093720252 443.3921584356576,206.47767776733963 442.5207917796215,205.43338591442443 442.45283822948113,205.29061792430002 441.95927933161147,204.24745399918174 441.84684868273325,203.73938644776354 441.9868044515606,203.28748667315813 442.3241546525387,202.77937662543263 443.70125533873215,201.2269958454999 444.6284586666152,199.78815843176562 445.21828266687226,198.46282595471712 445.52735044260044,197.81306639238028 446.0613668978913,197.1363530526869 447.0592034702422,195.84022437338717 448.64721356797963,193.77744391188025 449.8583771024132,191.9259769404889 450.22412623651326,191.02213212481 451.34790843725204,188.53886837977916 452.0226962205488,187.9745547414641 452.7816322275903,187.69239742547506 453.9620957868174,187.72052413783967 455.8731546738418,188.11506669491064 456.6595866738353,188.08694002882112 459.8910648889141,186.47829159878893 460.79077222419437,185.772326711216 461.57717509707436,184.92580554407323 462.92675066308584,183.37440217466792 463.60072288720403,182.781989595911 463.7115806720685,182.69428909895942 464.4251948943129,182.13174246484414 464.6834358612541,181.92813263548305 465.8208786774194,181.03157551563345 467.25375778146554,179.76126171043143 467.6752853334183,179.22497422841843 467.81605666154064,178.29299431311665 468.0134802205721,177.59825654362794 468.1049102222314,177.27788162813522 468.2093017885927,176.91023510252126 469.1364759892458,175.2733837068081 470.8226444516331,172.90125688386615 472.78954001073726,170.1479722780059 473.7733664426487,168.82138358760858 474.2232346738456,168.2850716962712 474.5039617707953,168.2850716962712 474.8979933299124,168.5391228410299 477.59956201247405,172.22443293512333 479.089064220665,174.36947627196787 479.70719977258705,175.49824705021456 480.01626754854806,176.76858338498278 480.71858045167755,178.9698011741275 481.58997623459436,180.83261894778116 482.12396356265526,181.99053900584113 482.2720166685758,182.64147452492034 482.34885398764163,182.97758546675323 482.54549111484084,185.23605264013167 482.9111819945974,189.13021455466514 483.2170457885368,191.24584759044228 483.41685777076054,192.63083108590217 483.7542662259657,193.47728465031832 484.4007133299019,194.43733162194258 484.6887513316469,194.7790512474603 485.4120940089924,195.63788068678696 485.58272062579636,195.84022437338717 486.34011289617047,196.73842594225425 487.2115086790873,197.2465082902345 488.2511717831949,197.5848650430562 488.6977777777938,197.62581908726133 489.79651066311635,197.72650449437788 490.3871502223192,197.89626938389847 491.286041998188,198.40325664088596 492.38238646055106,198.5448956101318 492.94465621351264,198.5448956101318 492.8039140125038,199.56105159589788 492.8880331092514,200.46373120398493 493.22544156445656,201.47996001428692 494.1809564444702,203.25713607121725 495.1931235555094,204.52736618486233 495.8112591075478,205.14898292953148 496.2611273388611,205.2051513317274 496.9917226667749,204.8657126899925 499.969969777856,202.60852255945792 500.04034087830223,202.54672855552053 500.558191786753,202.09029416000703 502.0218291199999,200.80208342854166 502.58249688183423,200.49068285193061 502.83654354477767,200.3501781320083 503.6521026560804,200.26592382247327 507.3649937636219,200.37830336327897 508.403870435548,200.63232059095753 509.55683800182305,201.02805599215208 511.83280133712105,202.38259194931015 512.9291166720213,202.8907028355752 512.9703606613912,202.90171000437113 513.7721717760433,203.11663296830375 514.0343157760799,203.10651609429624 514.2778475519735,203.03120607044548 514.8685162382899,202.6928569834563 515.5060504463036,202.1476773065515 518.1849291092949,199.66562112787506 518.6558271147078,199.01926414412446 519.0004882204812,198.8573913491564 519.4487253335537,198.71797831711592 520.4261146737263,198.66067528835265 520.8168839964783,198.66067528835265 521.7255042275647,198.82590707798954 524.5354548908072,199.19352008617716 525.2612151182257,199.3193760176655 525.8073484516935,199.52960788505152 526.2499057778623,199.70050460711354 529.0445064535597,200.31197637383593 529.7192651093937,200.37267831730423 531.0599277795991,200.49181595403934 533.2509273316246,200.43451334809652 534.5721913457382,200.74478089658078 534.9653782185633,200.94149525190005 537.0455199858407,202.21169713378185 537.2429726719856,202.4133068700903 538.7874959929613,203.99008180160308 541.1767346630804,206.3888528404641 542.7504142221296,207.3207238331088 544.4365535574034,208.02549237408675 545.5328688926529,209.0135650014272 548.0620924587129,212.17442321509589 548.8493108908879,214.12127364624757 549.6681031112093,215.46448644605698 550.5386833351804,217.35401166102383 551.41007911833,218.28584015090019 552.7871215502964,219.66840184817556 554.5016015645815,220.85421722894534 554.5355637761531,220.87331647682004 555.5129531165585,221.41845368995564 556.4684679965721,221.56007909978507 556.9587646577274,221.54615934885805 558.4920157867018,221.50278151535895 560.6838308979059,221.56007909978507 561.5155555556994,221.69745566759957 561.5276724338764,221.69947888579918 563.9160955449333,222.7717822312261 566.3894824392628,224.46568805759307 569.0036406613654,226.92045859451173 570.7448011094239,228.49962198163848 571.5603602204937,228.72556851228 572.3751328997314,228.64124322019052 573.3306477795122,227.90728013170883 574.5952595628332,226.41239849373233 575.6073975467589,225.67846906470368 576.562941553886,225.34011138626374 577.490174008999,225.4817344857729 578.6148008959135,226.41126551374327 579.4295153210405,227.45546624693088 580.0759915520903,227.7667914344347 581.3155248925323,228.07702371000778 582.9968291273108,228.20743687130744 583.8730600107228,228.27484867325984 585.7881384392967,228.92428313108394 585.8682379948441,228.95147436740808 587.0325360071147,229.56181969988393 587.1611613297137,229.62923112214776 589.5220884480514,231.77262934134342 591.2365393351065,234.22849868005142 592.7819073422579,236.58650617097737 594.1872613263549,238.6174807526986 594.7495893333107,239.83132329309592 595.1144937813515,240.42363576655043 595.3111017813208,240.42363576655043 595.9017122132936,240.14154000172857 597.137226012419,238.871457580477 598.1210524445632,237.57336895813933 599.0207597796107,235.6828697103192 600.1445711076958,232.5627831032616 600.4536680107703,231.43432070221752 600.538602666813,230.05069370236015 600.5794680035906,229.56181969988393 600.6494313245639,228.72443554305937 601.6899391148472,226.15614254173124 601.706133788568,225.5716853425838 601.7174351076828,225.14005849987734 601.408367331489,222.7425670864759 601.099299555528,221.27460265246918 601.1559226595564,220.5417096175952 601.6899391148472,219.4683442421956 602.5329942187527,218.28357411414618 604.1349853296997,217.04149949981365 604.8931057777954,216.2794180950732 605.4869784463663,214.59787751652766 606.160950670368,213.01858234679094 606.4141817742493,212.00248324428685 606.9198866775259,209.99827486166032 607.1731177814072,208.16376694239443 607.1164946774952,206.95089757611277 607.0323173262877,204.9185628485866 607.0323173262877,203.7618458485813 607.3980373332743,202.5489542731084 607.6504820054397,201.19328615465201 607.7912533333292,200.62900222215103 607.3697257813765,199.2744563841261 606.6666264462983,197.94794749229914 606.1892622222658,196.9879954783246 606.1051139982883,196.28198051819345 606.1329595166026,195.84022437338717 606.1601351113059,195.40858461504104 606.9756942222593,192.73876257956726 607.153689998202,192.20137090882054 607.7621262222528,190.3679007893079 608.2678311254131,188.39159818855114 608.2961135503137,186.50079308246495 608.0995055503445,184.69532560685184 607.3689102223143,180.46161874051904 606.4829800107982,177.77362075232668 605.893156010774,176.58985927019967 604.5581440000096,175.26889129448682 604.7547811272088,175.0147663181997 605.6520417849533,174.30091612640535 606.1884466632036,173.51842250087066 606.4133953423006,172.58642045909073 607.198982656002,169.0698083867901 609.5599097742233,162.15441276790807 609.5664925014134,162.113938372524 609.7573333333712,160.94131122721592 609.9134837760357,158.53642010397743 610.0607504497748,158.35517297970364 611.3828008959536,156.72851641935995 612.49126223661,155.4535409049131 613.1668364515062,155.12751036603004 614.1668575574877,154.66426695894916 614.7890417778399,153.55231723561883 615.65394221514,151.70616657484788 616.2753108765464,150.8370610762504 617.2478359894594,149.91395685175667 617.8967297706986,149.61604996980168 618.9509564304026,149.45301055791788 619.6532693332992,149.15388880716637 620.5990848853253,148.12173376372084 621.2212982330238,146.9130543350475 621.410595327965,146.4521022856934 621.5457451236434,145.60989511187654 621.870192014263,144.52376853162423 622.0878297885647,144.09094371797983 623.1493090987206,142.53255745064234 624.4196006685961,140.70992081589065 626.9132017778466,136.90609175839927 628.8169788870728,134.8337786293123 629.6333535574377,134.19732657435816 630.5670231041731,133.56204673077445 631.8097895538667,133.14826791500673 632.3308444444556,133.0571895239409 633.1018973297905,132.9885771131958 634.3333333333721,132.9094400605536 636.6376373476814,132.761447630357 637.2048004551325,132.48821191390743 638.2266668942757,131.84620795591036 639.7436942222994,130.80268474842887 640.5600688924314,130.4147677353467 644.3004851200385,128.41101236676332 644.3625549939461,128.38291919295443 647.3159275520593,127.04480594524648 647.7690288925078,126.81653739511967 648.7561175607843,126.41400051937671 649.6153673387598,126.21495825314196 650.2391535502393,126.22394491173327 650.5280071111629,126.31166601704899 650.6930704497499,126.36113309604116 651.4867842277745,126.74792320252163 652.9325957689434,127.35739465977531 653.9577244444517,127.77345033665188 654.4108257850166,127.84202375606401 655.4537511252565,127.86453073017765 656.0920717653353,127.80830377130769 656.3963044409174,127.72847684950102 657.3219057779061,127.23708731867373 658.6059162169695,126.28029368270654 658.7418524444802,126.17897113476647 659.1034946561558,125.85962064308114 660.3414260053542,124.63848262751708 661.2119771024445,124.12907282426022 661.5518031076062,123.94690917106345 662.3908386704279,123.58258145028958 662.9062429014593,123.41053761239164 663.8447766756872,123.35771000914974 664.8342828942696,123.08555658673868 665.3917466738494,122.9326599057531 665.9945031112293,122.67175973189296 668.2397082169773,121.16832961095497 669.7810275554657,120.07533215370495 670.6321799964644,119.39949290535878 671.2268682242138,119.05321310745785 672.3652431076625,118.38971792260418 672.8636662329081,118.07035707955947 673.6347191181267,117.59246875322424 675.1129200072028,116.5174695570604 676.1509519928368,115.47387978358893 677.4002137886127,114.12674802349648 678.5029953423655,112.77847519534407 678.5531522276578,112.71775112458272 678.9617473423714,112.10261542443186 679.6996244480833,110.80489456269424 681.0087133299094,107.76302008330822 681.999879793846,105.17881951131858 682.3494051271118,104.00364740577061 682.5872571164509,102.94097563240211 682.7466406684835,101.69490410014987 682.878528227564,101.17694387736265 682.9974542224081,100.70979089429602 683.3146193352295,99.90009469148936 684.7556249032496,98.38530770840589 685.7394222081639,96.88848668767605 687.0428895573132,95.14420799573418 687.4653783040121,94.64712430647342 688.2330815716414,93.74408765614498 692.4726782294456,88.98354459786788 693.1523011130048,88.09510242100805 694.6030060090125,88.32340775820194 697.18722156086,88.57418304611929 697.8676600035978,88.68778894265415 700.2706466703676,89.02965896495152 701.3362037761835,89.30294410185888 703.1614833209896,89.73708220687695 704.2715757797705,89.80343972000992 704.7149486650014,89.82927015633322 705.8387599928537,89.7899172019097 706.5661513386294,89.56384002242703 707.1511111110449,89.32747901894618 707.8882017849246,89.02965896495152 710.154436665005,88.18615736870561 710.7434451058507,88.07259172177874 712.6253768819151,87.82177542353747 713.3511371093336,87.68573935556924 713.804209322785,87.52601833827794 716.3431613440625,86.56894510571146 717.6740955591667,86.26755876099924 718.927376896143,86.38561933557503 719.9249513245886,86.61392629699549 721.3983171129366,87.00082087586634 722.4412133264123,87.3877148317988 722.7608251164202,87.49682723596925 723.9938048567856,87.91594796592835 724.6532717796508,88.14008332655067 725.5238520036219,88.43583965604194 727.5190591147402,88.93743022182025 728.3807264427887,88.95994084019912 730.7157304320717,88.77775052335346 731.4236939947587,88.61964970314875 731.5312895430252,88.59556006838102 733.2546824534656,88.1851047105738 733.9795979947085,87.91177781537408 734.9998915699543,90.71325241378509 735.4990720000351,92.10213525331346 736.4125855858438,94.64712430647342 737.1997748907888,96.84010664682137 737.6528762311209,98.13790292968042 738.7410651021637,101.3946702973335 740.3050453333417,105.81421487807529 740.7589622328524,107.11196269240463 740.8795193457045,107.4346982393181 741.8244902115548,109.95814978296403 742.8674155520275,112.80543667764869 743.6384684374789,114.85543158528162 744.8399617706891,117.33832326543052 745.4969820160186,118.65847619902343 745.7866220090073,119.26456771732774 746.7923229014268,121.36397563113132 748.8983586702961,125.76404615183128 750.1580188445514,128.38291919295443 750.1904664463364,128.45035899663344 750.3152178631863,128.71303401805926 751.641171342344,131.50318445730954 752.9567264427897,134.21311342308763 754.2035124339163,136.8318539133179 754.4074022116838,137.2647322791745 754.7019355591619,138.08328880835325 754.9082428871188,139.2380551417009 754.8418913282221,140.68514827638865 754.7019355591619,142.0917549302103 754.5514357760549,142.58651421411196 754.1153446685057,143.5163658534293 753.6363493264653,144.32364837429486 751.6872504320927,146.2137328995741 749.2390002347529,147.96771966054803 747.4071962169837,149.1257980580558 746.6094337707618,149.63062151049962 743.7080531057436,151.45205716090277 742.4711120782886,152.2392369005829 740.9871148942038,153.18354156799614 738.4263466666453,155.02741424721899 737.2248824605485,155.91564947849838 734.4812542293221,157.85061070276424 733.994977109367,158.17886367620667 733.3881720036734,158.58923997491365 731.4236939947587,160.01747678994434 731.2400184320286,160.15092201001244 729.4923917654669,161.59784875815967 729.072000170825,162.113938372524 728.1113006648375,163.29331898817327 727.5789153281366,164.04880922322627 726.7868326684693,165.05734005995328 726.1395700054709,165.59357820579316 725.2552126578521,166.27600619697478 724.7641004374018,166.55818865384208 724.0901282134,166.90334769757465 723.2373737813905,167.2552653256571 722.3077237760881,167.71055166859878 720.6523426702479,168.60323256644187 720.467065116507,168.741489340493 719.9282135609537,169.14516952482518 719.3974593422608,169.65213647967903 718.9880486683687,170.38178495119791 718.7266911005136,170.83038733841386 718.2501715627732,171.94674960483098 717.7064557796111,173.65335770626552 717.570519551984,174.22223787155235 717.4119515591301,175.06539706827607 716.8447593245655,178.29866034764564 716.5510706630303,180.71233837172622 716.3156362241134,183.23837971343892 716.2557800108334,183.87696827983018 716.2104290986899,186.51762872363906 716.2792273352388,187.61032406479353 716.3245199929224,188.04315145721193 716.619053340517,189.88784942164784 716.6870068907738,190.41176987672225 717.1174473386491,192.50602385372622 717.526042453479,194.07642919715727 717.9253751466749,195.84022437338717 718.2736188871786,197.37803082581377 718.5656764302403,198.42680918390397 719.2032688925974,200.01971653488 719.6499040144263,200.9774711782229 721.0277328783413,202.86593670386355 721.6070711183129,203.66067736048717 722.4905837796396,204.79942740564002 724.7584789049579,207.60059197375085 725.9818175716791,208.889899337315 725.2414646614343,210.13764088595053 724.5011700054165,211.83722004498122 724.3045620054472,212.2890632825438 724.0780113353394,213.61658561747754 723.9420751074795,215.09022151411045 723.8514606648823,216.6829779908294 723.7163399965502,219.82576905097812 723.5342955520609,222.53348851628834 723.3983593245503,223.46642992494162 723.1491768889828,225.51548123499379 722.9452871110989,225.63011494098464 722.673443783191,225.6526127604884 721.9703444481129,225.51548123499379 719.5576293263584,224.77248516562395 715.6910344534554,223.5821976013831 715.4418228907743,223.53606857929844 713.7864126578206,223.0123012381373 713.7087597795762,222.9876181074651 713.0606524301693,222.78529726935085 712.7661773370346,222.7392085585161 710.3178688854678,222.42111933149863 709.5023097742815,222.44353652262362 707.5297635556199,222.92129735543858 707.1511111110449,223.0545458033448 706.6227744427742,223.240478451713 702.3160106665455,225.31202953885077 701.0239028907381,226.0403761047055 697.2147175538121,228.27144975936972 695.6288919892395,229.04587487044046 694.4727204409428,229.56181969988393 692.3642379946541,230.50254317297367 691.5940006684978,230.665527621808 689.3940882204333,230.7082563964068 686.3114786703372,231.00383734278148 684.4521786597325,231.39049956266535 683.9991064462811,231.61866882489994 683.2466657849727,232.2716954209027 682.878528227564,232.5911068788846 682.1624673281331,233.2124487531255 680.2508550258353,234.80047248955816 679.805618005339,235.1703368325252 679.0119042275473,235.71657456550747 678.6720782223856,235.87623759743292 678.218190449872,236.03468666452682 677.4964788907673,236.2414471647935 675.6339457707945,236.51347249903483 675.1800579981646,236.53596930002095 671.8708977779606,236.69555086421315 668.8327944533667,236.62696802947903 666.5665304462891,236.67196160811 666.0446599964052,236.7630007478292 665.3027342223795,237.3845341494889 664.9111202134518,238.01618134987075 664.6166159929708,239.31321558495983 664.4127262152033,241.111475457903 664.39009444986,241.59025118284626 664.4806797653437,242.7276886831387 665.0252111075679,245.13958703167737 665.0705328924814,245.61835473554675 665.1838082275353,246.68941852421267 665.161147335195,247.87178292532917 664.9807340089465,248.90124401589856 664.9661413262365,249.6632220261381 665.229916444514,250.9904975547106 665.3658235449111,251.58278253884055 665.4338062223978,251.77832244167803 666.2048591076164,253.99463252251735 666.7032531059813,255.49723212362733 667.6555348763941,258.0921569216298 668.5851848818129,260.25439754431136 669.8999535503099,262.46160747657996 670.4474849849939,263.27864546101773 670.7389891130151,263.713521342841 673.4138191075763,267.651359673182 674.3920240071602,269.1639880326693 674.8871848961571,270.313634242455 676.1234560000012,273.1050949327182 675.6582377814921,273.45459161984036 673.8224142224062,274.97956282872474 673.5958926790627,275.1616120681865 672.6743108836235,276.1201192687149 672.1896648817929,276.77755598770455 671.8045462188311,277.3012062239577 670.7616500053555,279.21156517934287 669.5156213190639,281.96246835938655 669.4930186808342,282.011943874124 668.9484582116129,282.94461408047937 668.5431544606108,283.7503362821881 668.0641591182211,284.78866496915 667.9055619981373,285.47184695786564 667.9087951076217,286.4730723843677 668.2008817779133,287.9069008429069 668.3141571129672,288.79355304170167 668.2114257920766,289.47898901905864 667.8602693405701,290.93302591587417 667.6563795626862,291.9803040556726 667.7898691130104,292.7095813768683 668.4638413370121,293.7849256354384 670.104688014253,295.62100527697476 671.2854428446153,296.99074416432995 672.3442133334465,298.21893551951507 672.4768873244757,298.60322439245647 672.5764437902253,299.6257129640435 672.9162406685064,301.1505182252731 674.0724122170359,303.08540310303215 675.5465644373326,305.3158024800359 677.2464808961377,308.0236920497846 677.9495802312158,309.11583534564124 678.901862001745,310.66302985837683 680.354955320945,313.0135734351352 680.5337957831798,313.3034712743829 682.3477740089875,316.2382677895366 682.878528227564,317.0992522110464 684.0031551148277,318.92358574370155 684.7725768818054,320.1976946971845 686.2240973369917,322.5863274380681 686.0202075591078,324.430074400967 685.9069322241703,325.29406301950803 685.9530404409161,325.3176435837522 686.9951502222102,327.2062653594767 687.6974339982262,328.4803304387606 688.9685702542774,330.6981582942535 689.2622297884664,331.2104471697821 689.932939776103,332.3642862999113 690.9167953352444,333.66752573347185 694.0228813370923,337.6502855439321 694.2720928997733,337.9681819444522 694.8392560072243,338.85460916737793 695.5577344570775,340.0207876355853 697.3441875627032,343.1372559753363 697.355488881818,343.1563455137657 699.1694962346228,345.70429996418534 700.099087985931,346.9097156772041 700.647667996469,347.4792780613061 701.5724537743954,348.1611900383723 703.9074868907919,348.9341372123454 705.4261453370564,349.2531511024572 707.1511111110449,349.5944485827931 708.4189560036175,349.84519414196257 710.4360084481305,350.4810351766064 713.0882066773484,351.413480356161 714.4264226703672,352.02800407860195 715.286488007172,352.57506839744747 716.3536471041152,353.57601452904055 716.9200237796176,354.3489038621774 717.7258835626999,355.4138621094753 718.4394686578307,356.0104194653686 718.9831844409928,356.19240738195367 719.4370722133899,356.2598237596685 721.6353826702107,356.44181148760254 722.292373788543,356.532764858217 723.2511217778083,356.8720299290144 724.1063520143507,357.53373496385757 725.0230404553004,358.797488654498 725.7390722275013,359.7860743482597 727.57489578682,362.19679905404337 729.2850358614232,364.4008089902345 729.5700737708248,364.768128536467 731.4236939947587,367.3450516771409 731.45203467377,367.3843592266785 732.2230875592213,368.70427227782784 733.9221884587314,371.50247693719575 734.7409515520558,372.72689101839205 736.1010420054663,374.76007268117974 738.0485097814817,378.21306145365816 738.4797657884192,378.94094511365984 738.8195626667002,379.53291509550763 739.7038908873219,381.07961631770013 741.2678711182671,383.81026840483537 742.9005913315341,386.9935772875324 743.7210146702128,388.4279388982104 745.1571560108569,390.8563706013374 746.0608828873374,392.5972922849469 746.3707953493576,392.97136195813073 746.5819377778098,393.2128430121229 747.787479779683,394.1956263486063 748.4396066702902,394.9144850348821 749.3659944392275,396.001745618938 750.7325511111412,397.8314652238041 750.9251104427967,398.0987387401401 751.3280257707229,398.65811173128895 752.5918219947489,400.3923053032486 753.2358806756092,401.34024550928734 754.3086904321099,402.69365375174675 754.8766982257366,403.32826341385953 755.6963060054695,404.1225440882845 755.9382357902359,404.357059363334 757.7335726649035,406.17094642756274 758.2311511039734,406.57754378707614 758.8169264356839,406.91107764362823 760.4691035592696,407.693944360537 760.8679702186491,408.49698457476916 761.3947048960254,409.69982147892006 762.0209086576942,411.3093225990888 762.1520097848261,411.64733789570164 762.4044544569915,413.08381674462 762.3138108871644,416.2992858280195 762.299247331568,416.8046808182262 762.3324522383045,419.9717851107125 762.2150991075905,421.7406763663166 762.3194906738354,423.3971984271193 762.2579742152011,425.7354012276046 762.2369444409851,426.1587844037567 761.848563541309,426.77424927946413 761.5427580019459,427.25827533594565 761.4586389048491,427.4693592309486 761.6058473244775,427.891688184347 761.9084488819353,428.2038456486189 762.3291900019394,428.638504331524 762.3842111147242,428.69575259368867 761.0734911147738,430.1860219470691 760.7846375538502,430.5139842737117 759.9098630257649,431.7919900077395 758.9965824569808,433.12614458450116 757.9714537814725,434.6253212138545 756.2877611237345,436.63327825651504 755.9341871219222,437.1757031439338 755.6963060054695,437.53979864466237 755.4462788837263,437.9224904794246 755.1000157867093,438.5221988133271 754.8669988978654,438.9264775534393 754.5765142185846,439.57776917499723 754.5417073210701,440.0573224379914 754.4705497884424,440.5469816373661 754.4899484446505,441.1005556866294 754.4996768996352,441.38920768362004 754.6679442203604,442.82660053361906 754.7488593352027,443.64072180516087 754.7391308801016,444.47173877066234 754.731849102187,445.0455980524421 754.5085315413307,446.13825144892326 754.3394486613106,446.9636000818573 754.1541711075697,447.7462960797711 753.9324846648378,448.17416827683337 753.5198408819269,448.7288971412927 752.9090162346838,449.2522136452608 752.0950299876276,450.083170808095 751.7245040072594,450.3493352200021 751.6985808783211,450.253849175293 751.6589680073084,450.1100944998325 751.4599133298034,449.68901731807273 751.1629624320194,449.06128107354743 750.8263986631064,448.068615219614 750.5747986773495,447.3083569407463 750.442911118269,447.17587948660366 750.2843139983015,447.1489150400739 749.6103417742997,447.22863600356504 749.0067697777413,446.71655367530184 748.4064308909001,446.2089576118742 748.132956444635,445.76539636508096 747.7963926756056,445.00403928605374 746.9977855430916,444.07422065135324 746.3456877795979,443.3128582218196 746.0422706630779,443.2690756652155 745.2938786701998,443.33420373132685 744.4313957830891,443.650868993951 743.9273219982861,443.9495842542383 743.2735931165516,444.5177850149921 742.3479917796794,445.59584676264785 741.9062208854593,446.2932066661306 741.6804857742973,447.150046980998 741.6117457919754,447.83616385777714 741.4644791182363,448.25950815255055 740.7289904356003,449.32740618957905 740.5502082275925,449.697991897061 739.8972657778068,451.0500366912456 739.7192700018641,451.4194878254784 739.3713757866062,452.1325159955886 738.8770013297908,453.46995354490355 738.3535288890125,454.3368341959431 738.0145184427965,455.1397591988789 737.909340444603,455.75284573435783 738.0355482170125,456.639930595702 738.7507935573813,459.09237335436046 738.6456155591877,459.7268343009637 738.2046602241462,460.719492493954 737.7839191040257,461.28987698751735 736.3405251129298,461.37521221255884 735.1616926720599,461.3965561200166 733.7651933297748,461.46620677481405 732.6373333333759,461.5234472283628 732.3541595591232,461.7356733670458 731.6275837726425,463.2369759391295 731.4236939947587,463.54553027416114 730.821753116441,464.4564363096142 730.2528132551815,465.4804839636199 730.0207575609675,465.89817838266026 729.7116606578929,466.4551300959429 729.2359275519848,467.31185820890823 729.0191053370945,467.91707168216817 730.1761215716833,468.7828493042034 730.2181519928854,468.9736853853683 730.1922871182906,469.1544964700588 730.0684677690733,470.02358429547166 728.8135844409699,474.55087477207417 728.3070931057446,476.5214321964886 728.0522600108525,477.5117575288168 725.5902035627514,478.63118404109264 723.6556682240916,479.6248556362116 721.1523386596236,480.9048641694826 717.1417102221167,483.10216865863185 715.5219224463217,484.0531784250634 714.512172885472,484.3922637512442 713.1027411059476,484.75940017949324 712.9199102292769,484.8077022443176 712.0290866631549,484.91994892951334 711.387503786711,485.1389045921969 709.7580166826956,485.4274633570458 708.1381706526736,485.7867567323847 707.7926939874887,485.9888564942521 707.1511111110449,486.4229257890256 706.6227744427742,486.78039878746495 705.739261781564,487.5192312228028 705.255431338679,488.4499329383252 705.0175502222264,489.1662870628061 704.6874235448195,490.16104690532666 704.3249949013116,491.5813746249769 704.2222344534239,491.98330078838626 704.1453388800146,492.28195606777444 704.1202604373684,492.380739786895 703.6065164516913,493.7931323585799 703.4471328997752,494.23098692379426 702.332176213502,496.53370161750354 701.1533437726321,498.5198420371744 700.7974396018544,499.164263075334 698.8191262152977,502.74682296527317 697.5359313352965,504.1198695001658 696.3384866702836,505.21900433988776 694.7461948872078,507.1421852144995 694.2858408961911,507.46996186161414 693.1426017849008,508.2861682312214 692.7954940018244,508.56681810092414 691.9273313280428,509.26735011086566 690.6587000036379,510.1374247612548 689.059126442764,511.2354004859226 687.2888388836291,512.5758641521097 686.6884999964386,513.1326674551237 686.2847691094503,513.8500797565212 685.1949491199339,516.3456685438287 683.7240008817753,519.8639969988726 682.9173546667444,521.791546824621 682.878528227564,521.8817911002552 681.2190693262964,525.7385807768442 680.4197048889473,527.7547091235756 680.1680757761933,528.7594531194773 679.6801966648782,530.5555912876735 679.3889255537651,532.2405017890269 679.2515329706948,532.8433697868022 678.6890884551685,535.3107564182719 678.2529682206223,536.9967651592451 677.9884066702798,538.4965073134517 677.5522864355007,540.0096565332497 676.9786571094301,542.9473065116908 676.4430386631284,544.3919325976167 675.6501695716288,546.0386801902787 675.3798991076183,546.8984791190014 674.5926806756761,548.3745604704018 674.156560440897,549.0109682459733 672.785168668488,550.7273090790841 671.866849109414,551.7375336371479 670.9404322134797,552.6275783693418 670.1548448996618,553.3818872898119 668.2647866597399,555.2788625567337 667.385322666727,555.9736823277199 665.0802322205855,558.0928399401018 660.0655340088997,562.4601999241859 658.6059162169695,563.5116711331066 658.4529988835566,563.6219011899084 657.138230215176,564.6960354986368 655.6333488924429,565.9250836499268 655.2351230294444,566.5177252991125 654.4973915591836,567.6154439307284 651.9528180053458,572.083604522224 651.0352848782204,574.0960720107541 650.0069813476875,576.6830783608602 649.611318670446,577.5854350886657 649.3362131059403,578.610132952861 648.8184204516001,580.5327276760945 648.3418426596327,582.6416086352547 647.5562553459313,586.8828296951251 647.0513660019496,587.706564649241 646.2147771165473,589.2677261664649 646.0108873387799,589.5931688880664 645.0318960071309,591.1486618549679 644.5100255573634,591.9106881323387 643.0755153351929,594.2966660600505 642.8020408889279,596.2404271027772 642.057901454391,600.1873720596777 641.8813037796644,601.1244660462835 641.6248104391852,602.2287334047724 641.4775728924433,603.7920227907598 641.4743397831917,604.7099531476852 641.4711066738237,605.794044552662 641.5406913423212,606.9577587657841 641.5770711041987,607.5716303924564 641.5730224356521,609.2055838032975 641.5617211165372,613.2757339504315 641.5406913423212,613.6764066563919 638.9233000106178,615.9117667611572 637.0332417706959,617.3717103588278 634.3333333333721,617.089934944699 632.71191443922,616.920586752356 632.1957237760071,616.8218137178919 631.934395335149,616.7724473844864 631.1099233280402,616.671452398994 629.7717073351378,616.5087291895179 629.6835104426136,616.4975389348692 628.8841460052645,616.5188286967459 624.8249335468281,618.9370829244144 624.3370544356294,619.4139763872372 623.5619820088614,620.1737317731022 623.4568040106678,621.102870529925 623.5174757832428,626.2837229201687 623.5457873351406,628.6435876917094 623.5652151182294,630.290809529426 623.5700502187246,630.7228413491976 623.3936564337928,631.6530300898012 623.1687368819257,632.2062052923138 622.6537113031372,633.8523524923366 622.3345946739428,634.8722867422621 622.2876708977856,635.0226770938025 621.9672726757126,636.1436336457846 621.588620231254,637.412671350874 621.0408557796618,638.3002181941993 620.0295042276848,639.822879347892 619.406504448154,640.716032071854 618.181534663192,642.4731633525225 617.6702082277043,642.9096570115071 617.0391111113131,643.5021092435927 615.6863024355844,644.224667135335 614.5471119930735,644.7913048242917 613.6805804374162,645.3052280596457 612.238817564561,646.1186649534502 611.5073775503552,646.3598922099336 610.0607504497748,647.0442298407434 609.3560199964559,647.3775922850473 608.8155664497754,647.616556283494 607.8430413368624,648.0452044302365 607.6221413261956,648.1427932722145 606.805795783177,648.5781860554707 606.2540117902681,648.8732541934005 604.1900064427173,650.2690165096428 603.2215299982345,650.8603600497008 601.3865219982108,651.8230270666536 600.6648104393389,652.1529091810808 600.2481471147621,652.3435999830835 599.8808251166483,652.4827504517161 599.4439184496878,652.647670917795 598.6704188871663,652.9416030969005 598.5879017813131,652.977551902819 597.0935062187491,653.6226906845695 595.454319786746,654.1893062661402 590.7947684408864,656.0237695971155 589.2291862186976,656.7160368568148 588.7380739983637,656.9572535009938 588.1943582150852,657.3454130659229 587.691915548523,657.7515864425804 586.7210215539671,658.5358190197148 585.7881384392967,659.2896751223016 585.1756826739293,659.7846241545631 585.0445815467974,659.8811176902382 584.4029986703536,660.3512252419605 583.4903588977177,661.1208279775456 583.2476426810026,661.3261734374682 582.6383908977732,661.8400613965932 581.8114722133614,662.4010030027712 581.2483577742241,662.7835799388122 580.1415275521576,663.5285773068317 574.1988978346344,667.5125878290273 573.4123784534167,668.039912257751 569.4834224357037,670.6741745278123 569.3418355485192,670.7695328116533 566.959907783079,672.3110118008335 566.8692642132519,672.3626285181963 566.5213699983433,672.5623503758688 566.1864082204411,672.8775834261905 563.4241968925344,675.6801304863766 562.5730444516521,676.54281891149 561.6166848853463,678.5846640943782 561.5155555556994,678.8008589284145 561.4241255539237,678.9963751433534 560.3278102186741,681.5710677761817 558.4062364445999,682.7983888274175 557.4515079965349,683.4221235174336 549.4067746702349,688.6746131273103 549.1195231004385,688.9472583782626 548.0078577778768,690.5211718720966 547.2510480498895,691.5917922591907 546.2052099982975,693.0721563911648 545.2553457778413,694.462049136695 545.0401255538454,694.7593630185584 544.7545051021734,695.1542059483472 544.2739368961193,696.125701763609 543.5206806756323,697.8903038838762 543.3653166649165,698.253763065557 543.0667637761217,699.0041833880823 542.2495735466946,701.062718665693 542.2076013797196,701.1681204970228 541.9049124410376,701.9287084366078 541.8499204553664,702.0666591404588 541.1573360072216,703.8109856711235 540.8078106738394,704.6893632202409 540.2632793316152,706.058997443004 539.8441984569654,707.2368459567078 538.9582099911058,709.1000211811042 538.644307114766,709.3883520949748 537.9031677724561,709.7562763777678 537.2429726719856,709.9802774194395 533.6724548836937,711.1921085403301 532.8884695610031,711.1393290587002 531.8900213192683,711.1528167008655 530.5389020162402,711.1719174622558 529.9441846614936,711.1494649814558 529.0728180054575,711.1169573389925 528.4684013228398,711.0933741523186 526.6155966578517,711.023836043838 522.5839384463616,710.7467737292754 521.1275828907965,710.7950304882252 519.7610262187663,710.9587399565498 516.9389586773468,711.4657782455906 514.7568428943632,711.875212096842 512.9703606613912,712.1397143136128"/></g></g></svg>