<svg width="1200" height="800" version="1.1" xmlns:xlink="http://www.w3.org/1999/xlink" xmlns="http://www.w3.org/2000/svg"><g class="geojson-features"><g class="geojson-feature" stroke="#555555" stroke-opacity="0.0" stroke-width="0.0" fill="#111" fill-opacity="1.0" data-properties="{&amp;quot;N03_002&amp;quot;:&amp;quot;上川総合振興局&amp;quot;,&amp;quot;fill-opacity&amp;quot;:1,&amp;quot;description&amp;quot;:&amp;quot;上川郡和寒町&amp;quot;,&amp;quot;N03_001&amp;quot;:&amp;quot;北海道&amp;quot;,&amp;quot;stroke-opacity&amp;quot;:0,&amp;quot;N03_007&amp;quot;:&amp;quot;01464&amp;quot;,&amp;quot;fill&amp;quot;:&amp;quot;#111&amp;quot;,&amp;quot;N03_004&amp;quot;:&amp;quot;和寒町&amp;quot;,&amp;quot;title&amp;quot;:&amp;quot;上川郡和寒町&amp;quot;,&amp;quot;stroke-width&amp;quot;:0,&amp;quot;N03_003&amp;quot;:&amp;quot;上川郡&amp;quot;}"><title>
      上川郡和寒町
    </title><desc>
      上川郡和寒町
    </desc><polygon points="259.083254897967,691.6576821847702 258.7013402171433,691.3598534713965 258.0419606755022,690.5596266346402 257.94083134585526,690.359589739528 257.7142806755146,690.1156933974125 257.28949088719673,689.3705294663669 255.68429579376243,686.5877464033547 253.93419332278427,684.0993704290013 254.52588145784102,679.5768531193607 254.81531756091863,677.3646438727155 254.9374766650144,676.5958910324844 255.2557777352631,675.5618196998839 255.3031675448874,675.4078173044836 255.47632822045125,674.3602666015504 255.58069065958261,673.6431354166125 255.80724132992327,672.577611210465 256.55563332280144,670.2520790247363 256.7118128925795,669.1336936469306 256.799194225925,668.1547025883337 256.83400112355594,667.4207196971402 256.7466197902104,666.4428142069955 256.9205377708422,664.9220695918193 256.81617533171084,664.0318415759248 256.1551646719454,661.7938342482666 255.75466689432506,659.7660659698886 255.39622866502032,658.4891268628999 255.3824806686025,658.1260663751746 255.47309511108324,657.8888951565605 255.76436622231267,657.5202089771628 256.2077391075436,657.0672312423121 258.04032955737785,655.7026276219985 259.86642466136254,653.9501838912838 262.55016755196266,651.5761133527267 265.494452451705,649.5392751183826 268.2170217813691,647.7699518855661 269.15555555559695,646.9208971095504 269.3602317654295,646.735756555805 269.95573555200826,645.9770227733534 270.2761337743141,645.2879322750377 270.89348289428744,644.4369667231804 271.58038755564485,643.701778299117 273.2729931093054,642.6675654673018 274.4396795448847,642.1617076723487 275.4380986596225,641.9042863489594 276.12147894036025,641.8402243733872 276.36128244630527,641.8177237636992 277.41553823288996,641.8301071929745 277.5029195663519,641.0960439238115 277.7840544426581,638.7803649572306 278.417976888828,633.5586437342572 278.62868241081014,632.0468373813201 278.8759133297717,630.2726503242156 279.17365065962076,628.1692995760823 279.8589533297345,624.862996701966 280.81936156458687,617.9692524490529 281.0345817884663,616.5830166561063 281.3856799857458,615.2148239174276 281.73683643736877,614.287338204449 282.2603380054934,613.1192337422399 282.4990346810082,612.6065546614118 282.6033679929096,612.0399230004405 282.6033679929096,611.2821724873502 282.48930622590706,610.3163831714774 282.1462471111445,609.0201179810101 281.9042299450375,608.113938372524 281.5507433245657,606.7906242577592 281.36791244812775,605.2278940322576 281.20771333691664,604.0327486595488 280.88731511472724,603.4346070919419 280.02075443207286,602.6543251723633 279.3573262223508,602.125919311191 278.81873681070283,601.6392829969409 278.4414242133498,601.2983981846482 278.43414243566804,601.2871459825546 278.05307244102005,600.6553218394401 277.66390510927886,599.6209237757721 277.5312019911362,598.7383062247536 277.5457946738461,598.0906897076638 277.5542124089552,598.0464898167411 277.73672288726084,597.0900378054939 278.33706177421845,595.3383000414469 278.38721865962725,594.8986838256242 278.3961315555498,594.8177305631107 278.46490066486876,593.3931510643451 278.3961315555498,592.3486429581535 278.39126732817385,592.2249450495583 278.14613356092013,586.2095312143792 278.1016273351852,581.2936600325629 277.9406126649119,580.837138385803 277.68575044278987,580.6729960140074 276.3814966614591,580.2827779405052 275.5586848995881,580.006184185564 274.5521684481064,579.5238343556412 273.9680533618666,579.2643219748279 273.7576391111361,579.1707339127315 271.5011035591597,578.5084516073111 270.8222671075491,578.2149758868036 269.15555555559695,577.4431937502814 269.0835533371428,577.4098790664575 267.59643955202773,576.5823133112281 266.3617704391945,575.7783444568631 265.92649489082396,575.3409188549267 264.91531810129527,574.3829191929544 264.69101021869574,574.170358199277 263.7071546596708,573.6182492664666 263.06720290135127,573.3191812981968 262.6480055183638,573.195595035213 262.2888391111046,573.0898200405645 260.88424243207555,572.8424043332925 260.4352188872872,572.8604180837283 259.9174262328306,572.8716311366879 259.3599333263701,572.9975654243608 258.5362768783234,573.2966742731514 258.0379120071884,573.5823028383893 256.40597822587006,574.0916648413404 255.68831533531193,574.1366382603883 255.04591689968947,573.9713578678784 254.40270290488843,573.4608621633961 254.04184712539427,572.7805503667332 253.05717600719072,571.5222963584238 252.12266177427955,570.6980702261208 251.6040244337637,570.4372124495567 250.87832246057224,570.0728854720946 249.82138697977643,569.7864835993969 249.52956245350651,569.7074244781397 247.8385588907404,568.9854876023019 246.98819288180675,568.8741648565629 246.98819288180675,568.7179081153008 247.1435568925226,567.9881149225403 247.5068302223226,567.1019807588309 247.81749998929445,566.6331258105347 248.18080244632438,565.9033262863522 249.0627131164074,564.8406438611564 250.09995867032558,563.9028027800377 252.07005821168423,561.2467742284061 252.27721022581682,560.7767338670092 252.48514867201447,560.1514828183572 252.6404835556168,559.0055830833735 252.69227155914996,558.3286309160176 252.74403043556958,557.8068882240914 253.05554488906637,557.0253246205975 255.54509732988663,552.1268312109751 255.90758422750514,551.1372019670671 255.90758422750514,550.0947772934451 255.8557962240884,549.0534006904345 256.0111311074579,547.9074885144946 256.58155645173974,546.0316705100122 256.73770689440425,544.8329109283513 256.8412537742406,543.113342415134 256.99658865784295,541.8628277354292 257.3494344818173,540.6471243064734 257.35986198752653,540.6111324601225 258.0362808890641,539.2728716226411 258.3518148836447,538.7431522802217 258.6722131059505,538.397886705643 259.106702222256,537.7084876835579 259.93035867030267,536.1227976475493 260.42875266843475,535.3929459388019 260.9368751217844,534.7664952058694 261.4174433281878,534.3751094331965 262.30989801255055,533.754324216221 263.59064621513244,533.1110670926282 264.66593177604955,532.7893569109729 265.8577257813886,532.5936827375554 266.4734437832376,532.6274085065234 267.5721766684437,532.6825519505073 269.15555555559695,533.0314290850074 269.37403801619075,533.0795276917052 269.5851804445265,532.4665936328238 269.927453127224,531.3161082551815 270.4994513352867,529.5931230180431 270.6143286614679,528.443717052287 270.52289865969215,527.8915030440548 270.247851349297,527.1098826157977 269.72193223109934,526.1809231261723 269.15555555559695,525.3276327733183 268.6693075627554,524.5951165214647 266.1522300018696,520.984894632129 265.42000355559867,519.8826579684974 264.45962444809265,518.6870880516944 264.0243488997221,518.08877449797 263.795380679192,517.6298653325066 263.42963154485915,516.6176221471396 263.13192334224004,515.7898469899665 262.90374155377503,515.4220359824831 262.8211370666977,515.3060725538526 262.5598668800667,514.9395564886509 261.9652077796636,514.5020201182342 261.25564222584944,514.042051354947 260.7524131272221,513.5369754857384 260.28069956274703,512.7249809976202 260.06626577081624,512.1356010115123 259.9287275519455,511.65198117960244 259.56303667195607,510.27302765956847 259.3340393245453,509.76689110154985 259.0136411023559,509.44523064186797 258.83081022591796,509.3304790594848 258.46427465963643,509.1685148414108 258.0338633386418,509.12915752007393 257.7385144319851,509.08081117179245 257.40195066307206,508.87272740656044 256.234448668547,507.59612004616065 255.72705439303536,506.9066326355678 254.3929744499037,505.0935401651659 253.69310822407715,503.34898705990054 252.9147444338305,501.5245703723049 251.85163400543388,498.8666778798215 251.74805799825117,498.4235242185532 251.77395200007595,497.3009375052061 251.6040244337637,496.00070155924186 251.54740132996812,495.18856681039324 251.36130821704865,494.48892040300416 251.00368554657325,492.99178848735755 250.30221732985228,490.14145385607844 249.94462378672324,487.18535357370274 249.75768598751165,484.25622725870926 249.75768598751165,483.58096772641875 249.75768598751165,483.5070636445307 249.6145262364298,481.2460331948241 249.52874689432792,479.7488187425188 249.5716220018221,478.34048427577363 249.6865284552332,477.55975552106975 249.8297464606585,476.95457661303226 250.07246267737355,476.1266647753655 250.20108800008893,475.4741820599884 250.6302177280886,473.16140165546676 250.74480378313456,472.5437790133292 250.9454313245369,471.8114662715816 251.1736131128855,471.03079729067395 251.3022675627144,470.28268586378545 251.23105177620891,469.53347866778495 250.59511955908965,468.41302482091123 250.16631022945512,467.79206912976224 249.98021711641923,466.995592796884 249.82325111469254,466.27792352437973 249.45109401608352,465.5770589511376 249.30787601077463,464.81321710324846 248.99312844814267,464.1775915940525 248.721285120002,463.5397369710263 248.5068513280712,463.0942501978716 248.12010154663585,462.45639269798994 247.1330420053564,461.3606508060475 246.3320173227694,460.0545908953063 245.70255132450256,458.7012203829363 244.8829726719996,456.6125671773334 244.7154917831067,456.1857380567817 244.1143373370869,454.78398846724303 243.985682887258,453.92335690319305 244.0431506773457,453.2865685612778 244.22921466315165,452.1075559370802 244.21465110743884,451.43929366132943 243.87968932988588,450.6517948087421 243.35056622943375,450.0780579048442 243.24853395926766,450.0079506118782 242.26313466322608,449.3309747459716 240.7323593387846,448.4703641436063 238.94995490147267,447.76385841029696 237.6764302222291,447.1900741061545 237.13352999824565,446.7760672439472 236.58981421531644,446.3620191664086 235.77509979030583,445.5970226600766 234.91666557162534,444.78585153014865 234.52988666319288,444.32344063802157 234.01529799110722,443.83065229514614 233.1423293441767,442.82713007874554 231.55487266147975,440.94708915875526 231.1681228800444,440.45324081915896 230.20311256183777,439.41138881770894 229.71744711103383,438.887119631574 228.08632888901047,437.0070883721928 227.7432697743643,436.4816798445536 227.49973799823783,435.9562701676041 227.800737564452,435.35094592237147 228.0434537815163,434.85704557190184 229.5168195698643,432.6900933717843 229.93103621702176,432.0374926466029 230.63250443374272,430.92144084715983 230.74659532809164,430.1889606838813 230.66084511298686,429.72874943201896 230.08313799102325,427.64729713852284 229.65351310232654,426.2622715802863 229.07018444803543,423.94893623603275 230.34044689079747,423.0274357890012 231.37041066668462,422.16782457986847 231.84293979033828,421.7694908332196 233.10105622757692,420.5104861317086 233.3008682099171,420.28770293836715 233.75883377797436,419.7307035441045 234.1310200035805,419.2525279917172 234.55982933344785,418.74283757648664 235.36405799817294,417.21141045936383 235.59302621870302,416.71751330862753 236.07927421166096,415.61816014378564 236.35114666679874,415.07585393608315 236.97979710588697,413.8178673273069 237.4094219947001,413.13264748035 237.76704466494266,412.67130984313553 238.16757156979293,412.1604712517001 238.62550801073667,411.7463634905871 239.58344044093974,410.87099493452115 240.11340822768398,410.56824062467786 240.38443599641323,410.4399932329543 241.07134065777063,410.1373193952604 242.259115121793,409.7716150043998 244.34653866675217,409.34065183764324 244.8829726719996,409.2137405517278 245.69206556444988,409.02221902058227 246.23493666143622,408.8309403846506 247.45748889620882,408.423591726867 248.41542132629547,407.9296359937289 249.0594800071558,407.3883656368125 249.54572799999733,406.7661584203015 249.9600029013818,405.93796408741036 250.10820164286997,405.65667307557305 250.58946889976505,404.7429611161351 251.03281265776604,403.96207409747876 251.4761855432298,403.4050368349999 251.90583955915645,402.8795547860209 252.54905355372466,402.401345677732 253.1218964480795,402.0378980166861 253.98033066664357,401.4932926229667 254.7238875591429,401.0634083498153 255.31047844991554,400.7280721567222 255.85337867378257,400.3455015185755 256.64059710584115,399.75697997387033 257.37445467035286,399.29788517637644 257.49579821527004,399.25510704063345 258.0282126790844,399.24161734292284 258.19729555910453,399.25960360636236 259.2337255538441,399.63881368300645 259.4554411235731,399.67037061037263 260.01290490315296,399.67037061037263 260.57115511468146,399.63881368300645 261.21518466842826,399.4958959934884 261.6585575537756,399.3361262306571 262.6027419875609,399.2247653469094 263.98954200185835,398.8736683264142 264.66188310750294,398.81063527753577 265.2913491058862,398.6035902299336 265.8067242099205,398.3796524385689 267.13687199295964,398.0612050861819 267.59480843378697,397.79112607589923 267.9241195520153,397.2172628712142 267.98077178315725,395.97380686947145 268.16686489619315,395.3211468682275 268.2817422221415,394.8429227070883 268.7501935502514,393.24612108047586 268.8731973405229,392.830886911368 269.0876020054566,392.22545395052293 269.15555555559695,392.07750850805314 269.38778601260856,391.57164945593104 269.8311588979559,391.06194079469424 270.10300222586375,390.981972098758 270.59006577788386,390.93473627086496 272.12084110220894,390.981972098758 273.4938639929751,390.981972098758 274.1516706702532,390.9336424737121 274.60960711108055,390.74230891722254 274.9388891021954,390.4553285523434 275.3531640036963,389.85106442612596 275.8822871039156,388.942923398281 276.1541595591698,388.32176219369285 276.35400066839065,387.65222858509514 276.34025267197285,386.98265259794425 276.1395960036898,385.9473340670811 276.053845788585,385.3261651128996 276.0967208960792,383.83734626695514 276.2253462187946,383.13737540255534 276.36856422410347,382.32376507873414 276.41146845871117,381.8938464850653 276.8976873245556,380.0313971886062 277.04090532974806,379.40907856688136 277.16955977957696,378.6450031102868 277.31277778488584,377.9438422260573 277.7124600036768,376.9242444213014 278.34192600182723,375.99920087400824 278.98598468268756,375.96772186260205 279.60085799824446,376.0476145321154 280.3589784463402,375.95192158507416 281.40353490493726,375.887829166546 281.87600577424746,375.7606571170036 282.3905944463331,375.48941864067456 282.89143512188457,375.012289363076 283.2206879857695,374.50246452051215 283.64952644275036,373.8486117651337 284.0354606648907,373.30730509146815 284.3785197796533,372.87627647351474 285.30814065784216,372.04800575529225 285.4395330559928,371.8972118842066 285.766106225783,371.52241456357297 286.22404266661033,371.1555574690574 286.82519711297937,370.59848460834473 287.1973542115884,370.4071753611788 287.52748088911176,370.1922054916504 288.74193578667473,369.40330574585823 289.15696799289435,369.0048844597186 289.5429022151511,368.7021583872847 289.7864631182747,368.25540174759226 290.0720835699467,367.6667610281147 290.5235246649245,366.00345526530873 290.79536799294874,365.49361129291356 290.967713109334,364.9522452665842 291.3965515663149,364.20270938781323 291.8544880072586,363.5657641135622 292.25498578487895,363.1830937435152 292.9273268908728,362.57762653555255 293.4281384391943,362.191956417053 293.4856062293984,362.14771309884964 293.89985200366937,361.6851430461393 294.3869155556895,361.1280482111615 295.3011864463333,359.93282220338006 295.7308113351464,359.66160636168206 296.51724333513994,359.3914841544465 297.0034913282143,359.16750978841446 297.4760204516351,358.91318842524197 298.2915795628214,358.56203245342476 299.336106894305,358.2277308428311 300.36607067030855,358.0049303714186 300.8523186631501,357.8777488495107 301.42355956637766,357.7179513910087 302.02468488540035,357.59076971688773 303.2261782186106,357.4793084365665 304.11050643923227,357.3127849440789 304.58222000370733,357.0899431069265 305.18337444984354,356.8029225158389 306.0701202204218,356.3415171536617 306.9431179948151,355.703335514816 307.72876356285997,355.09784944326384 308.17292288015597,354.6521614502417 308.5734497848898,354.0781546131475 309.21666377957445,353.59984829853056 309.91813199652825,353.0742167191347 310.9764073244296,352.3888235006016 311.549250218668,352.0061758325319 312.0638388907537,351.6088196511846 312.6358662258135,351.3218330248492 313.3163046684349,351.09671663399786 313.79445532453246,350.93918365600985 314.89563488715794,350.73205680563115 315.3964464357123,350.5880565386615 315.8827235556673,350.4293076917529 316.5550646613119,350.36520845937775 317.09878044447396,350.47659200709313 317.70075044978876,350.6953882034286 318.4580553385895,350.97070646705106 319.01633467746433,351.14626981009496 319.58833288541064,351.25765299546765 320.6183257885277,351.4490180197754 321.03335799474735,351.6403828918119 321.4192922168877,351.3060716429027 322.448469561059,350.92342224909225 322.96384466497693,350.6363942856551 323.70737243036274,350.3336450512288 324.26568089600187,350.14236017345684 325.0383648995776,349.6639649812714 325.4817086578114,349.1226442953921 325.667830897728,348.4844434665865 325.91133354674093,347.3375739590265 326.09664022759534,346.6206004660344 326.383047111216,345.871007353242 326.58370377949905,345.23397292313166 326.78272932965774,345.0268816691241 327.1694791112095,344.93121687561506 327.6128811236704,344.94697867613286 328.1994720143266,345.1383487310959 329.6015928889392,345.2497347036842 331.57574109872803,345.2497347036842 332.176109113032,345.1383487310959 332.8055751111824,345.12254642439075 334.2506002205191,345.0268816691241 335.46019089082256,345.1507069444633 336.08965688885655,345.34199579956476 336.6908113351092,345.50188253331 337.6487728925422,345.5975470992853 338.7653024427127,345.5817853414337 339.30901822587475,345.53336553950794 339.9239206685452,345.4061774102738 340.3672935538925,345.007756817271 341.2273588908138,343.49619988095947 341.9733333332697,343.83903098583687 342.7136279894039,344.17938994866563 343.47177756449673,344.48328147176653 344.31483266851865,344.75447394227376 345.03004888189025,344.9942640712252 345.86020067567006,345.0415089382441 346.733169322717,345.08879431465175 347.53419400542043,345.0415089382441 348.6782486756565,344.73875264805974 349.1790602240944,344.59580227552215 349.9662786560366,344.4517172902124 350.7527106560301,344.4517172902124 352.34016733872704,344.43599597609136 352.540794880013,344.5001373103587 353.3418195627164,344.5158991392236 354.4785633281572,344.6250973843853 354.9866857813904,344.6746113774716 356.11699245509226,344.5631846191827 357.73351799487136,344.3560522675398 359.2618757688906,344.1174770685029 360.14865066681523,344.0532951129717 361.16326445515733,344.16476262692595 362.26523044973146,344.8501793249161 363.15197622054256,345.5502618229366 363.5953491058899,345.9970607154537 364.6827806720976,346.96841087564826 365.49833978316747,347.84518746618414 365.8705260090064,348.37078997615026 366.24591621698346,348.8740253436263 366.714367544977,349.5018930476508 367.27267601084895,350.011770981655 368.131110229413,350.5542646795511 369.59311644453555,351.243066622701 370.4798622151138,351.5604820998851 370.9127202134114,351.6898549204925 371.6530731236562,351.9104733025888 373.02609601418953,352.1501752488548 374.112653767108,352.27735980512807 374.92256221873686,352.33813609048957 375.1855217778357,352.3573008759413 376.4444537742529,352.101797289215 376.75920133688487,352.02189665089827 377.4032308906317,351.7833290697308 379.7066902187653,351.1136530437507 381.2091831183061,350.61953887791606 382.56682689429726,350.0939412911539 383.35404532623943,349.6639649812714 385.02483467385173,348.8828988082241 385.55395777430385,348.64424707129365 386.1405486650765,348.43719927727943 387.39950978860725,347.9746433253749 388.21506889967714,347.83169487974374 388.82994221523404,347.7359906855854 389.73128066863865,347.81475823838264 390.51852822769433,347.69089381879894 391.04683576896787,347.60770972893806 392.1488308906555,347.56042484851787 393.29367199295666,347.7359906855854 394.60928534774575,347.6718096975819 395.71122221520636,347.5919075847487 396.855276885326,347.30495667498326 398.37151778140105,346.9064987146412 400.20247711299453,346.3808929986553 401.1466615466634,346.0623766714707 402.279414897901,345.8136329946574 402.82065487653017,345.69544015225256 403.39271133881994,345.5210073456983 404.251145557384,345.23397292313166 406.0675704604946,344.72412536042975 406.5966935608303,344.675705385569 407.29734621883836,344.5631846191827 408.85727778146975,344.27614905138034 409.1719962169882,344.3087667466607 409.801462215255,344.2604277257342 410.5312711112201,344.2604277257342 411.33226666681,344.2446658802801 411.7473571271403,344.14896025613416 412.2336051200982,343.95762993150856 412.76191266148817,343.52768315031426 413.3630962347379,343.1607427566778 414.12118755548727,342.49108319683 414.49255822238047,341.902419822698 414.79111111117527,341.7816318195546 415.08806200895924,341.66153258405393 415.167346005328,341.6289145288174 415.3550411093747,341.552414029371 415.59455334418453,341.4555727899424 416.25233089434914,341.2225863849162 417.8551375644747,341.27096653706394 418.6990082275588,341.2225863849162 419.5428788907593,341.2394829717814 421.05911978683434,341.7650999444886 421.702333781519,342.1151459470275 422.50332933699246,342.4662854572525 422.7185495608719,342.7533231889247 423.06157954852097,343.5974973863922 423.16192244621925,343.693162711279 423.7913884444861,343.75730424409267 424.34885222418234,343.6615984257078 426.13772287999745,343.4703082317137 426.99615709879436,343.4218880038243 427.98327489430085,343.53331529180286 428.5698657850735,343.5963628546451 429.1135524408892,343.54907718417235 429.57067332277074,343.5006569720572 430.4857888997067,343.38927018776303 431.34422311815433,343.3093261307222 432.4170620017685,343.2294225661317 432.7164013227448,343.1281249053427 433.3159537779866,342.9266639906564 434.0886377815623,342.59238112642197 434.7318517761305,342.4010495612747 435.70516332099214,342.16239138075616 436.5774037903175,342.11401140817907 437.55071533529554,342.1297733936226 438.5507364409277,342.30534320231527 439.0636939946562,342.6951377025689 439.76679332985077,343.2294225661317 440.2538860089844,343.8192172170384 441.1115046684863,344.26605985010974 441.8841886719456,345.2058529315982 442.17059555556625,345.7798809822998 442.4999066736782,346.47992025053827 442.9004044516478,347.0528107393184 443.75883867032826,348.21994071488734 444.34542956086807,349.03257262858097 444.9028642134508,349.5424110413296 445.9045455644373,350.43493967159884 446.2621391074499,350.8491531886975 446.8770706773503,351.53455080272397 447.4070093370974,352.21998697775416 447.85038222232834,352.8559089000919 448.580191118177,353.65272337634815 449.1376548979897,354.24245190335205 449.70968223304953,354.7365586126689 450.2679324444616,355.3263249945012 450.79708467191085,355.61221287579974 451.2833326649852,355.772011735884 451.91201223118696,355.67185384209733 452.2849848889746,355.61221287579974 452.9007028908236,355.29366827895865 453.7575059911469,354.7996032332885 454.5018784427084,354.59252023050794 455.474403555505,354.5137143843458 456.37329533172306,354.5137143843458 457.4890384499449,354.6724200133467 458.0044135537464,354.9278803471243 459.40009733708575,355.5705614312319 459.52065444993787,355.6257050250424 459.9065886719618,355.80349339550594 460.49317956273444,355.9621981718228 461.3661482098978,355.9937203231966 462.16717289260123,355.85077665228164 462.92447778140195,355.67517623252934 463.3363060053671,355.5760717394878 464.31206422753166,355.34095163614256 464.5701304320246,355.22948931128485 465.28540489973966,354.84684617072344 466.08637132809963,354.3527802055469 466.73043000895996,353.81138905719854 467.2312415573979,352.95043604791863 467.76036465785,351.8676867231261 468.003110001795,351.1507672769949 468.6187988765305,349.6685029939399 468.9610715591116,348.9357749247574 469.5905375573784,347.7720519656432 469.96272378321737,347.32635037240107 470.5493146737572,346.8963691056124 471.13832311471924,346.58798308478436 471.59384200547356,346.34823506628163 472.22330800362397,346.09272508427966 473.6820811093785,345.8541516109253 474.16832910222,345.8541516109253 475.0558904320933,345.7100673808018 475.8997902221745,345.7258696486824 477.5155293298885,345.80577238241676 478.4023042274639,345.8214936068398 479.2469904499594,345.7899701196584 480.1620477726683,345.69430563034257 480.64829576550983,345.5356345847249 480.7915137708187,345.32850307232 481.0350746738259,344.5946677485481 481.16369999654125,343.81358508212725 481.6070728818886,342.69817663833965 481.7648544427939,342.0453717990895 481.9938226630911,341.04138358449563 482.365222456865,340.1330984343076 482.8506548908772,339.08072163834004 483.3377184427809,338.55501774844015 483.4663728926098,338.4278664420708 483.76320728182327,338.13296267495025 483.9954959929455,337.9022421625559 484.73989757173695,337.1210972009576 486.3135480036726,335.9414735371829 486.91388689086307,335.5115529191098 487.608888888848,335.0786735396832 487.75778668094426,334.9859222540399 489.26022132637445,333.8862353198929 489.9600875520846,333.37632313539507 490.6041462329449,332.9936451615649 492.249798883684,332.1809589532204 492.67863734054845,331.9569591995678 492.9601799965603,331.809503386321 493.6802895645378,331.4313207512605 494.85344221862033,331.14431000250624 495.4683737884043,331.0812591694412 496.0266240001656,331.00135153468 497.45626999472734,330.7402332969941 498.6148882204434,330.2303144298494 499.30182200903073,329.8476314409054 500.00250379380304,329.4176188663696 501.6910315520363,328.3651950941421 502.22018377971835,327.9352609072812 503.03574289090466,327.50528542889515 504.5519546595169,326.6441570275347 505.23807288892567,326.19841620576335 505.8958795663202,325.8157267891802 507.4266548907617,324.85891953413375 508.01324578141794,324.5246520313667 508.9291477901861,323.96637685323367 510.6460162275471,323.12213361862814 511.2326071183197,322.81930916011333 511.8814717725618,322.509028170025 512.032787114731,322.43661435635295 512.1379651129246,322.40285905700875 513.3718477938091,321.99990227038506 513.5296002276009,321.7927504492691 513.9584095574683,321.05997781292535 514.3305666559609,320.2315283025964 514.8880304356571,319.2274083273951 515.1169986559544,318.5103913960629 515.4463097741827,317.7776087395032 516.0474642204354,317.18775010248646 516.7335824498441,316.82190410251496 517.234423125512,316.2793746921816 517.4633913458092,316.0092036657734 517.9642028943636,315.1796020574402 518.3064464498311,314.52668185473885 519.3372257848969,313.05995530536165 519.7660059876507,312.3113920672913 520.1810964482138,311.5785904863151 521.1997297777561,310.1849928977317 521.8866635663435,309.4194813434151 522.4586617741734,308.83081791264703 523.8025575538632,307.459695798927 524.5032393386355,306.9655322942999 525.3762371130288,306.53547872632043 527.1642922098981,306.0570371476351 527.9798513210844,305.7857604298624 528.9815035449574,305.5628707551514 530.8124920037808,305.2915934789344 532.5002333297161,304.94145324866986 534.4169428766472,304.57453491789056 534.8368975645863,304.36400443169987 535.1467517726123,304.20866969274357 535.6046882133232,303.87319818662945 536.1540837831562,303.4403427997604 536.7892004408641,302.93997056392254 537.1176960001467,302.61235931160627 537.3329162240261,302.3973692501313 537.7681917725131,301.8311400269158 538.2771006578114,301.170361965138 539.5489942186978,299.86334935354535 540.6363966577919,298.6205237461836 541.9244848925155,297.29667862388305 542.5110757831717,296.73943434044486 543.1688824604498,296.06960473617073 544.5281282276846,294.53970496408874 545.1001264357474,293.94982974499 545.6859308942221,293.5040282054106 546.7733333333163,293.3756777359522 547.6034560002154,293.42410806019325 548.3324493368855,293.53551803238224 549.1771355592646,293.64700900763273 550.1213491201634,293.85414459346794 550.9223155485233,293.96555436606286 551.6092493368778,294.1569650695892 551.9547260018298,294.3393380306079 553.9976724480512,295.41671360249165 555.3286357902689,296.10226950980723 556.6150637796381,296.64261554722907 557.0446595414542,296.8970028915792 557.7599340089364,297.4081273251795 558.475150222308,297.9180753961555 559.8052980054636,299.12937502539717 560.4266666667536,299.47522793139797 560.5496413297951,299.5436770824017 561.2074188800761,299.95789737137966 562.0375706739724,300.53203363507055 562.7956619948382,300.817986781185 563.5820939948317,300.88213977136184 564.2690277831862,300.7234391020611 564.5748333225492,300.5995909071644 565.4138688852545,300.2607101466856 565.9858962205471,300.1008743289858 566.8726711182389,300.09973959147464 567.8735077831661,300.17965751409065 570.3031748837093,300.5624688571552 571.5046682169195,300.785363175557 571.9480411023833,301.0881749068503 572.8064753209474,301.2322859232663 573.1495344355935,301.21534599387087 573.7935931164538,300.96096322638914 574.6236866560066,300.5466636158526 575.3430097921519,300.36543010751484 576.9692346596858,299.95676263317 577.7411322313128,299.5898366823094 578.4709411271615,299.4153298425954 579.7298439964652,299.17553470504936 580.2589670969173,299.0798516369541 580.9459008852718,298.4899875757401 581.6328346739756,297.77286816813285 582.7202371130697,296.43434761313256 583.2064851059113,295.4144440833479 583.4637940053362,294.7288051568903 584.1555628943024,293.4635007517063 584.2559057921171,292.8251519249752 584.3561904355884,291.9808396792505 584.527749120025,291.168055128539 584.6992495503509,290.66056491975905 585.071464903187,289.5593374669552 585.2713060124079,289.17650857393164 585.4856815504609,288.47516737593105 585.9007720106747,287.51938658591826 586.358708451502,287.0409476282657 587.4315473351162,286.1324175899499 587.9323588835541,285.60667878121603 588.6621677796356,284.9840747957933 589.1654260052601,284.6373093709117 590.1201544533251,283.9798884119373 590.7787475627847,283.5024961560848 591.5085564587498,282.9756167680607 593.1420922313118,281.9849182695616 593.7569946738658,281.45803555008024 594.4438702079933,281.0122108068317 596.0029862115625,280.16785700357286 596.4746997760376,279.65787121717585 596.9892884480068,279.1309833889245 597.5621022152482,278.4779651154531 598.005504227709,277.69666727044387 598.2773766827304,276.81963440880645 598.5063157760305,276.2466167989769 599.0929357939167,274.55669729964575 599.2498435415328,273.8553133776295 599.5508431075141,273.0097589978832 600.2345146597363,270.776009024994 600.2980408890871,270.59029458952136 600.5339122347068,269.9001262836391 601.0064122312469,268.1786689441651 601.4068808817538,267.3972970370669 601.9098187092459,266.00457778637065 602.2936557796784,264.94170232402394 602.4506217814051,264.44745126832277 603.4951491128886,261.9457000719849 603.8244311041199,261.2453736801399 604.2103944533737,260.1611162061454 604.839044892462,258.75818109721877 605.2257946737809,257.97681905003265 605.921728739515,256.5124220936559 606.3698202170199,255.56956590310438 606.4143264426384,255.49640228046337 606.727442887146,254.97959489218192 607.9151882241713,252.4765694939997 608.3156860017916,251.8235597560415 608.971861560829,250.4379247650504 609.5309273316525,249.25746964104474 609.6280371200992,249.09869429515675 609.9314251093892,248.60437007294968 610.6069993245183,246.99086764716776 611.4080240071053,245.47642330545932 611.6944308907259,244.8391223582439 612.7672989014536,242.43173741496867 612.9808880070923,241.66605025326135 613.453388003516,240.2788162229117 613.4387953209225,239.97592775407247 613.2381677796366,239.1156608023448 612.8376700017834,238.44680537260137 612.3513928818284,237.61807064060122 611.8743781831581,236.81179055938264 611.4646471111337,236.11925501772203 610.9783699911786,235.43352773663355 609.6619993316708,233.0103198136785 609.1037491201423,232.24460258765612 608.971861560829,231.90980068861973 608.8951698773308,231.71521891257726 608.7461264497833,231.33695959596662 608.4605351253413,230.50820030772593 608.2315377779305,229.31232366187032 608.0883197725052,228.4193444950506 608.1166604516329,227.4149213838391 608.4742831218755,226.07600833883043 608.6603762346786,225.64585033076582 608.9435208818177,224.9094193277997 608.971861560829,224.83843546477146 609.4589251129655,223.61776107706828 609.7598955520662,223.01757666334743 610.0026408961276,222.53333356813528 610.317359331646,221.9286465528421 610.9460388978478,221.16285342210904 611.2664371201536,220.88584570185049 611.2890688853804,220.86671095504425 611.3894117833115,220.77999647980323 612.2478460017592,220.31828900513938 612.8109604408965,219.96133569499943 612.9630622152472,219.8644453807501 612.9776548978407,219.8554860650911 612.9881406578934,219.84644566930365 613.5925573405111,219.36110159486998 614.408116451581,218.67642100184457 614.8086142293178,218.13362913078163 615.3952051200904,217.4320397307165 615.8134704355616,216.99740678427042 616.0246419912437,216.77893461415078 616.4178871182958,216.1809222807642 616.9680691200774,215.34307007590542 617.4826286649331,214.75417583296075 618.0319951076526,213.91854839480948 618.9333335608244,212.5153834327357 619.4203971129609,211.71805969584966 619.7488926720107,211.06380386668025 620.009405553923,210.69552572711837 620.821760682622,209.54909220623085 621.0798268871149,209.13467528950423 621.6947293299017,208.2573918029666 622.0750128924847,208.35084074892802 627.563871345832,209.48827975109452 627.6682046579663,209.51532102475176 627.9579029050656,209.59190416539786 627.9926515484694,209.62571587786078 629.5703797761817,216.89605583017692 629.6043419876369,217.15502770314924 629.5873900089646,217.34422942553647 629.4546868907055,217.83630725822877 629.3640724481083,218.1719395989785 629.0558202312095,219.65388110658387 629.0558202312095,220.25634416443063 629.1925428907853,221.6865037587704 629.6569746774621,223.61322068044683 630.0857548799831,225.42288621200714 631.1141166649759,228.09276657388546 632.3835926756728,230.0904549229308 632.8722582188202,230.71202573966002 633.2444444444263,231.18583406944526 637.6630272001494,236.81179055938264 639.323913329863,238.92647624650272 642.1532917761942,242.14798471494578 643.2512091022218,243.16365568741458 643.7747106703464,243.96873888728442 644.3831177671673,244.9032903141342 645.0692651235731,245.6441999367089 645.6177868800005,246.04055605450412 646.080587548553,246.1610274303821 646.7667057779618,246.31639974488644 647.401006876491,246.2477327339584 648.151059114607,245.988792258373 648.6825997654814,246.11039865296334 649.3169299911242,246.47181249409914 649.7117771093035,246.93683407845674 649.9860671146307,247.6428366213222 650.4318575504003,248.53574425174156 650.5087239964632,248.59877623833017 651.3412933406653,249.2766021239222 652.437579548452,249.89702880382538 653.6552675554994,250.18977105885278 654.9077333335299,250.34518129954813 657.0509935502196,250.41384713805746 657.5170273281401,250.48401274136268 657.6796731164213,250.50845517375274 658.0801708943909,250.56925723369932 659.8075833457988,251.53418386075646 660.0753780053928,251.78748405759688 661.9508144356078,253.56540151883382 663.93958445522,255.44346504146233 665.293179562781,254.82195828383556 665.5585275448393,254.70035630394705 665.8400993280811,254.57085012737662 667.5068400072632,253.80633665481582 670.1477077901363,252.47997438180028 674.3962173440959,251.22227038472192 675.0135082099587,250.68859136482934 675.6138762241462,249.96455979603343 677.9966486755293,246.53820945962798 678.8024793317309,245.64197048230562 679.5573375432286,245.21184754848946 679.6342331165215,245.18027030897792 681.6496544427937,244.36736777448095 681.7896393387346,244.30157824477646 682.0380353423534,244.1849568344187 683.4838760108687,243.50594102521427 684.2161024569068,243.19628712680424 685.0785853441339,242.71321976190666 685.6052908942802,242.12771665205946 685.8164624499623,241.81919598812237 685.9847297708038,241.31135819392512 686.0163035591831,241.21565205254592 686.1594924373785,240.78438616660424 686.5834666666342,237.64956780144712 686.7889875627588,237.01220552955056 686.878291285364,236.81179055938264 687.2347779982956,236.0123180121882 688.1085913316347,235.29051224689465 689.6693384535611,234.36042303632712 697.8443282203516,230.6039512581774 699.6793362203753,229.8291863334016 701.0855348908808,229.46661235322244 703.9658566543367,228.8641318824957 706.0622222222155,228.41508795850677 707.1043320037425,228.1919237204711 708.4069837938296,227.87884482229128 710.3228777814656,227.41715100756846 711.918402673793,226.77866700966842 713.4443428978557,225.74492741090944 716.3084991147043,223.6954342761892 718.4687404374126,221.83402724796906 719.0690793244867,221.21579822420608 719.6726804481586,220.62574274244253 720.9380786630791,219.38927687500836 721.64117799839,219.02778169949306 722.3790842312155,218.88929691689555 723.9729780053021,218.85548651008867 724.3330182258505,218.8036763088312 729.4043686684454,218.51089575974038 730.3348051058128,218.45369364734506 731.6382433280814,218.373505262658 732.7653168925317,218.30365459021414 733.1075604482321,218.272154889768 733.8972255574772,218.20011501875706 734.8576046649832,217.64941671892302 735.7103590968763,217.01090672821738 737.0526820125524,215.66739507764578 737.4313344568945,215.259799560823 743.221134222229,209.0175908264937 744.593341553933,207.0895809737849 745.0901335610542,206.10752895317273 745.2786442240467,205.09060646401485 745.6829576534219,203.02857135667 745.7414448925992,202.73013610969065 746.1014851130312,200.71312413027044 746.4615253333468,199.57564352470217 746.856343324529,198.68028324085753 747.3021628871793,198.16452922608005 747.8806564409751,197.63182685920037 749.4235777705908,196.66664289287291 752.2529853440356,195.30619153741281 754.6074171166401,194.16102243616479 756.0087515593041,193.4794323828537 756.9861117724795,192.8589003457455 757.397153564496,192.4455493002897 758.7005917867646,190.41154364385875 758.7394182258286,190.3293186420342 761.7645891130669,183.9344544519554 762.4304640000919,182.8351698544575 762.7249682204565,182.3497509007575 763.1368255716516,181.78096773655852 763.99441510404,180.91939734230982 765.2631046826718,179.74687165708747 765.8294231040636,178.93707223294768 766.2234546631807,178.31650257878937 766.7210331023671,176.3871106566512 767.1660662330687,175.0772286191932 767.6806549049215,173.769569551514 768.0584626632044,173.14898652920965 769.6183650987223,171.54620839253766 771.6937008923851,169.5987585344119 771.9548545709113,169.24059439549455 772.0197497742483,169.15159054426476 772.2082604373572,168.37553233030485 772.3450122240465,167.37649408279685 772.3280311182607,165.18798647046788 772.3450122240465,164.48056532122428 772.5675142258406,163.63693671883084 773.0650926650269,162.46440765447915 774.3539673315827,159.63269145676168 775.4858759965282,157.62650899327127 777.1752484409371,154.6291663571028 778.8800000001211,151.58401668723673 779.3476648960495,150.74865579791367 779.9997917867731,150.02886434883112 781.0426880000159,149.22233039466664 783.0184673280455,147.91343546658754 783.1098973298213,147.64193934184732 783.1333446542267,147.57093261240516 783.2474355485756,146.61682073323755 783.1495684551774,144.99253466515802 783.2798248960171,144.4259338613483 783.8170744604431,143.6429827809916 784.1592888889136,142.91870918968925 784.3874415503815,142.0986066145124 784.4093160106568,141.15465181821492 784.5614177850075,136.967457626306 784.7475108978106,135.77338561869692 784.7367338667391,135.447817066859 784.7127040000632,134.72234265384031 784.4521911182674,133.98113093781285 784.0929664568976,133.07311608968303 783.8219095609384,132.38932470232248 783.5832128853071,130.88429546525003 783.561367552029,129.96848231658805 783.6641280000331,128.85094383038813 783.9117084443569,128.1829164508381 784.6690133333905,126.47958421171643 785.0816571165342,125.59745613473933 785.2418271005154,125.25386695878115 785.8114660123829,124.41456153726904 786.5339640036691,123.47954061103519 786.953074005316,123.0120490588597 788.8641328924568,121.57339253713144 789.9264568889048,121.0765748588019 791.1239015538013,120.52342292835237 792.6231613440905,120.19896926311776 793.7267293297919,120.21811204153346 795.6264577707043,120.37024029629538 797.1847873423249,120.70033110439545 798.9882215538528,121.35369785880903 799.388748458703,121.20838373078732 800.5522017850308,120.48173065693118 800.921941333334,120.4164343806915 801.8127357724588,120.48173065693118 802.987548672012,120.56848139641806 803.1525828834856,120.52062451728852 803.9657244444825,120.28458451660117 804.5304700018605,119.65258829883533 804.8565480107209,119.02054985868745 805.1777326650918,117.75995589612285 805.2901924408507,117.32055935170501 805.638115783222,115.94611170480493 806.0280986737926,115.05948354664724 806.0507595662493,115.0087865353562 808.9591598650441,110.35544474312337 810.9821251129033,107.11792970530223 811.3470295608277,105.33783143816981 812.01814732817,102.06224412866868 812.1025576960528,101.65031841676682 814.1310862223618,91.74900296435226 815.3382302152459,84.51543145364849 816.085835776059,79.22976021579234 816.0914864355,79.21625251503428 816.4774206578732,78.2697785985074 816.998475548462,77.72557367250556 817.9329897814896,76.98300941311754 819.2582733370364,76.30696808488574 820.492214272148,75.99235225783195 821.8182260053,75.65680485585472 822.9048128853319,75.22069799870951 823.5221620053053,74.77903302293271 823.9695544320857,74.45788431121036 825.0553840071661,73.49784302437911 826.7940977779217,71.40425252448767 827.4251948943129,70.8234828755958 830.6582168464083,67.84805583965499 832.528876430355,66.1262837346294 834.0500106808031,64.31541593308793 835.3469535573386,62.61836401128676 839.4215160035528,56.19980981154367 843.4386397866765,49.89260696351994 844.7784868979361,47.611706113792025 845.4330313388491,48.16952941357158 848.0633551076753,49.45986101281596 850.3660280036274,50.54056822229177 850.9267248925753,50.753512283205055 851.6977777777938,50.844588509819005 852.0343415467069,50.884264467749745 854.1937964373501,50.81103838497074 855.9875604481203,51.320334455231205 858.6793715483509,52.64107522164704 861.5961604552576,54.74160438659601 861.6180057885358,54.759657060494646 862.8219166719355,55.762531669577584 863.8081897814991,57.084383853536565 864.8842617743649,58.193250918528065 865.3632571164053,59.1848740914138 866.3802593281725,61.79579618078424 867.0679795483593,63.32722155278316 867.5170613476075,63.77791333728237 868.4426044302527,64.13854728738079 869.801092892536,64.30641023913631 871.3731704605743,64.40668983908836 872.5293420089874,64.79320402111625 872.6595984499436,66.44853888312355 872.9506947982591,67.84805583965499 873.5269455645466,70.62114413571544 873.6757851022994,71.5823327593971 874.1846939874813,73.47305803123163 875.0520411023172,77.04385547310812 875.8894455466652,79.53512329160003 875.9703606613912,79.7527064147871 876.6370511074783,81.5452852883609 877.4170168889686,82.55709344270872 877.7778726684628,82.87486457411433 878.0424342186889,83.10696622484829 878.4235042133369,83.2906354595907 878.8717413264094,83.50699828687357 880.0894293334568,83.72782283840934 880.8770555449883,83.74485925753834 881.915553564555,83.76724997791462 883.2011951218592,83.70754138554912 884.5466928925598,83.67711920291185 885.0806802205043,83.76161173521541 885.5636951039778,83.9475519892876 886.1915591111174,84.63821492955321 886.9990500125568,85.89906413853168 887.7765691165114,88.41952580411453 888.164920889074,89.50005743000656 888.9424399929121,90.94113726651995 889.3915217919275,92.2616598122404 889.4618928926066,93.15060313412687 889.3235391146736,94.84626271168236 888.9092642134055,96.26589432783658 887.4966284517432,98.82798363716574 887.0135844410397,99.79806356388144 886.8752306631068,100.52473875216674 887.0273324374575,101.19065294071333 887.4852980053984,101.65031841676682 887.5605333335698,101.72580032772385 888.0136055466719,102.77475712733576 888.7377637830796,104.08953618665691 889.0371031039394,104.64832321618451 889.2207786666695,105.23193121608347 889.341335779638,106.07467018050374 889.3591324446024,106.75517020182451 889.2895477761049,107.69025633484125 888.9376048926497,108.73127810459118 888.7038015717408,109.42191022715997 888.3582957796752,111.04878959344933 887.9100586666027,113.19496209395584 887.0144291272154,114.99414523656014 886.3169513245812,116.31339973409194 885.910802887287,116.80572541849688 885.2206651164452,117.40053818072192 884.5401975465938,117.87485426897183 883.7456973370863,118.21618282044074 883.1866024391493,118.50462453521322 882.7027719964972,118.88991593598621 882.1161811057245,119.75511593808187 881.7367422293173,120.41302761808038 881.3766728818882,121.27144918090198 880.8062766648363,121.65900730009889 880.0133784463396,121.83250789582962 878.3579973404994,122.10963002243079 877.1847864320735,122.00600836623926 876.5383684552507,122.08712121250574 876.1500166826881,122.21329219033942 875.9703606613912,122.34554655791726 875.6329813335324,122.59407588030444 875.3036993423011,123.03792395140044 875.9080868979217,123.59107008227147 875.9703606613912,123.64659146161284 876.2503013263922,123.89637667528586 876.7454622151563,124.89113488671137 877.047277340549,125.84869932458969 877.0812395520043,126.74879262136528 877.1508242205018,128.51295595098054 877.1985926827183,129.67668831296032 877.3506653299555,130.61059009522432 877.908915541484,132.1820496728178 878.6702690987149,133.2590181141859 879.3580184463644,133.74007543292828 880.132304440951,134.11856977711432 880.5651624391321,134.32916858955286 882.0134206578368,134.77753702219343 884.2389067093609,135.447817066859 885.117904668441,135.7125544580631 885.8104891164694,136.08767970348708 886.4634315663716,136.54277680825908 886.918921329896,137.21191641164478 887.3250988941872,137.80785462632775 887.6705464320257,139.33084617351415 887.9804588942789,141.47567067248747 888.4634737778688,143.03359551052563 889.7741937778192,145.6300603505806 890.4084948765812,146.19556339673 892.9805935502518,147.94380894961068 894.1893977883738,149.0556217713165 896.1554486614186,151.27132441545837 897.2590457742335,152.75935642205877 898.3974497847958,154.49060384376207 899.4322777884081,156.67024738126202 900.2429726719856,159.02723762439564 900.4492800000589,159.62701444717823 900.3125573404832,160.42560617969139 900.2429726719856,160.60362032457488 899.591661340557,162.26948569872184 899.0430813297862,164.00865270080976 898.6830411093542,165.19808320328593 898.6830411093542,165.78377408446977 898.6490497706691,166.88650237681577 898.5455028908327,168.38680483831558 898.4748696463648,169.24059439549455 898.4257613369264,169.8341417851625 898.2202404410345,170.57528326677857 897.6207171129063,171.29951390303904 897.106157568167,171.8165421182639 896.3002977848519,172.26370514062 895.802690218552,172.78065018204506 895.5624206791399,173.09153031324968 895.3739100161474,173.4530947120511 895.2023513315944,174.07027094683144 895.2541393351275,174.77766381634865 895.3398895502323,175.01867808343377 895.9742489032215,175.53561718791025 896.8148864569375,176.0356875041034 897.7234775610268,176.81062616355484 898.2550182115519,177.29378568893299 899.1417931093602,177.48301884991815 900.2429726719856,177.71596154378494 902.3999808854423,178.1723177236854 903.6176688926062,178.6026014048839 904.4922686577775,179.1206680961186 905.2293593315408,179.98119073803537 906.1209693298442,181.32486169988988 907.167127779685,183.1516323168762 908.1275068873074,184.46155135828303 908.8273731129011,185.1924706674181 908.9851255466929,185.3580594442319 909.928552675643,185.9763403289835 910.5288624356035,186.71633721271064 910.8549404445803,187.78401923150523 911.3007600072306,190.00722990214126 911.9868491094094,193.6956552892807 912.2271477760514,195.8141267145984 912.4496497778455,196.57201362488559 913.0451535645407,197.46624655387131 913.7312426667195,198.46520004508784 914.1082639929373,199.60268591553904 914.4343128748005,200.98115457850508 914.5379180090968,202.10058693471365 914.4163705743849,203.02857135667 914.3663593246602,203.41032143158372 914.0233293370111,204.61650334490696 913.7150771201123,205.47798864054494 913.1317193385912,206.27083293226315 912.9431795484852,206.68416015862022 912.9771708871704,206.90827686985722 913.0799313351745,207.1323933718959 913.3889991111355,207.0625394267263 914.0403104427969,206.59744055726333 914.8639668907272,206.32155120110838 915.7385957831284,206.20097873645136 916.2361742221983,206.23592610796914 917.1439788943389,206.6154412625474 918.0185786595102,207.28665578458458 919.0307457707822,208.44210040010512 919.7168640000746,208.9398317921441 920.7282446791651,209.3531544204452 921.4482959930319,209.5254158921307 922.3407215502812,209.4398730256362 922.8512615538202,209.17521698778728 923.3698988943361,208.90606052486692 924.1409517795546,208.4409652290633 924.5155555556994,208.3824228354497 924.5875577741535,208.37111166497925 925.1871102293953,208.49160195572767 925.65072645701,208.7855704424437 926.199248213321,209.49164470733376 926.7777708943468,211.40277006966062 927.3603131165728,212.36671906139236 927.480841102195,213.07391793647548 927.4638599965256,213.95118381164502 927.3433028837899,214.77890569058945 927.1208300091093,215.24398870032746 926.8635211093351,215.62239500990836 926.0916817920515,216.27777354215505 925.182246001903,217.0356768934871 924.5155555556994,217.86079355690163 924.1239415467717,218.34532986325212 923.4046766648535,219.3960470497841 923.0786277831066,219.9996053315117 922.8901171201142,220.48158331232844 923.0276553386357,221.15385361528024 923.5931873280788,222.34300083247945 924.5155555556994,223.13692449737573 924.7720197689487,223.35762053984217 925.4921293370426,223.64930061489576 926.8287142114714,223.90717064059572 927.2996995982248,224.00762677105376 928.2867008853937,224.21798452874646 928.955838009133,224.54562174034072 929.813427541405,225.1143035297282 930.636297557503,225.85417970840354 931.356377998367,226.92282265640097 932.0942842311924,228.43961371592013 932.7116042240523,230.6602180986083 932.7973544392735,231.79755134572042 932.9713306738995,233.1307977316319 933.0376822329126,233.64201745711034 933.4317137920298,235.74205661099404 933.562028487213,236.81179055938264 933.5870486756321,237.01674567256123 933.7237713352079,237.60226125328336 933.9810802347492,238.18664037500275 934.5304466774687,239.03118243755307 935.3363064604346,239.56488738430198 935.6793364482,239.92752717912663 935.8848282168619,240.37561722146347 935.9706075591967,241.33953089662828 936.0053853298305,242.32249266520375 936.2966564409435,243.25263208633987 936.5709173192736,244.30315913941013 937.1025162240257,245.07893125829287 938.4181004515849,246.22973500174703 939.6357884586323,246.97059999336489 940.3388586667133,247.6428366213222 941.8996057885233,249.83059223287273 941.93435443216,250.1751380081405 941.9683748977259,250.89912840694888 942.0201629013754,251.1570096843061 942.8259935574606,252.27730240294477 944.0436815646244,253.72303895262303 944.6099999858998,254.87712502852082 945.071635569795,255.62003054947127 945.2095524409087,255.84203433373477 946.5477684339276,257.2719818496262 947.8164580125595,258.2537839553552 948.7088544426952,259.0982553960639 948.7881384392967,259.21746368624736 949.3601949013537,260.0777801766526 949.7032248890027,260.95600914611714 949.9694175574696,262.1922608448658 949.9775148942135,262.2305237466935 950.1320342186373,263.6266696295352 950.0292737706332,264.9011700467672 948.7946046577999,268.4837915917742 948.7881384392967,268.5123664213461 948.5373248853721,269.6198107058881 948.121710136882,270.59029458952136 947.8512357831933,271.2218527836958 947.0105982293608,272.9602302192943 946.4280560071347,273.95996379858116 945.4854444374796,275.1995530772838 945.1076366791967,275.68251452222466 944.7305570986355,276.30173808842665 944.5760377742117,276.78473784570815 944.5760377742117,277.0774878336815 944.9021157831885,277.43885504076025 945.7767155485926,277.87001452961704 946.7710859947838,278.4217094858759 947.423212885391,279.1782817512867 947.7832822329365,279.849252802087 948.2630640071584,281.4006457931828 948.452361102216,282.50280232628575 948.5551215503365,283.4496056236094 948.5551215503365,284.27481819008244 948.2290726684732,285.72149679844733 946.99440355564,289.28686678566737 946.8058928925311,289.82050050696125 946.7541340161115,290.18188905576244 946.9426446792204,291.1984510102193 947.3892506739357,293.5242919297889 947.6465304462472,294.33370473445393 947.6562297742348,294.55210630997317 947.681308216881,295.0913616033504 947.2176919894991,297.67268607195 947.1149606684921,298.20630114903906 947.1837297778111,298.65432291675825 947.595558002009,300.0840153723839 947.8180308765732,300.97895685455296 947.732280661352,302.0135071569821 947.5267597654602,303.2191125052632 947.5437699983595,303.787607893988 947.5938686295412,304.36400443169987 947.612568234792,304.5789927317528 948.0243964586407,306.07843452121597 948.7881384392967,307.5695593036944 949.0017566720489,307.9865214426536 949.276017550379,309.38236065750243 949.224258673843,310.07128074823413 949.0017566720489,311.1384545895853 948.7881384392967,312.7300074616214 948.7104855610523,313.3087734481669 948.6425028835656,315.0658922740258 948.7881384392967,316.3964068349451 948.8310135467909,316.78814801358385 948.8480237795739,318.8537444641115 948.7970513351029,320.41951413743664 948.7881384392967,320.49504882242763 948.5737629013602,322.3139119967236 948.3504453403875,323.39902335836086 947.7848550969502,324.6563086655224 947.3900371058844,326.30989201075863 947.1327864604536,326.82650530687533 947.0469779912382,327.84295259974897 947.2533144463087,328.6860446293722 947.7298631111626,329.91518046264537 947.8536533332663,330.2359468835057 948.1109331058105,330.73456033406546 948.299443768803,332.2338387488271 948.1975280072074,332.99137599772075 947.9572002133355,333.62621427857084 946.8423017812893,335.36636843101587 946.6537911184132,335.96850056631956 946.6367808853975,336.5020305174403 946.9110417636111,337.5014994740486 946.7985819876194,338.13296267495025 946.7055791219464,338.65526382339885 946.5849928818643,339.80894158850424 946.396482218639,341.22035781817976 946.2589731273474,341.5996595736942 945.1958044444909,342.83885907009244 943.3956033422146,344.7849035579711 941.9894046720583,345.9543136006687 941.3550744462991,346.62623253511265 940.8404857742134,347.3319419064792 940.6349648782052,348.08943151385756 940.291934890789,350.0353929226403 940.2231657813536,350.98306438012514 939.6746148976963,352.29202715004794 936.4730502257589,357.5434868027223 935.6671904426767,359.0909743611119 935.2213708801428,360.5889817601419 935.1129888996948,361.3160020239884 935.066851555719,361.6221407496487 935.0498704498168,362.3457545551937 935.4268917759182,363.61977143387776 935.8387200001162,364.2049782567774 936.2845395628829,364.6191680172342 937.0563788801664,364.80825352849206 937.6567468941212,365.27304590755375 938.3767982081044,366.2206572200521 938.5823191039963,366.7698397975182 939.1657060125144,368.8541291921283 939.6454877867363,369.8163116159849 939.7830260053743,370.3329123277799 939.7312380019575,371.02165752864676 939.4971725370269,371.8972118842066 939.4917548941448,371.9174689921783 939.1657060125144,372.6579461452784 938.7886264320696,373.2431714529521 938.4108186739031,373.6213287434075 937.227937564603,374.9132333654561 936.3710762099363,375.9632248606067 935.701997340424,376.89389990555355 935.4107262294274,377.7199256794411 935.2901691165753,378.58083038427867 935.3419279929949,380.2159736403846 935.4446884408826,381.12864458106924 935.9762582186377,382.9854541501845 936.2853259948315,384.3459764373838 936.3710762099363,385.2417787023587 936.422077781288,386.5843009930686 936.4908468907233,387.3945344175445 936.765107768937,388.11697674466996 938.1713355664397,390.1301863521221 938.8234333298169,391.1125390084926 939.2983800037764,392.0071817265707 939.5645726721268,392.7026300462312 940.036257109372,393.9359348525759 940.6018182258122,395.4831878756522 940.7563666774658,396.06945132737746 940.7733477831353,396.65457906667143 940.6705873352475,397.2746249473421 940.0014793386217,399.9088906152174 939.7102082276251,401.5090102014947 938.9391553421738,403.74713426688686 938.6988275485346,404.3153916593874 937.9836113352794,405.65667307557305 937.5329566721339,406.50171986519126 937.1259635485476,408.1704567565466 936.8694993351819,410.4602470897371 936.8346924374346,411.52693429152714 936.7319319894304,411.8712480641552 935.428522894159,414.1959202166181 934.2804195557255,416.1053759404458 933.6453028979013,417.39709251764 933.3030302150873,418.6888426532387 932.9600002275547,420.5970879790839 932.4793737671571,422.40522858611075 931.8450726685114,423.7655680553289 931.056193991215,425.2282565331552 930.81592445157,425.9854599345708 930.7042511076434,426.43324331968324 930.6443657671334,426.67404552770313 930.5926068907138,427.22535813436843 930.6613760001492,427.67317971243756 931.6217842347687,430.6153904601233 932.1533248854103,432.7654307296616 933.5433288819622,436.5536542382906 934.5350487610558,439.41138881770894 935.1558640071889,441.2002705882187 935.7901651058346,443.8317863534903 936.5450524444459,446.6725451660459 937.4536726756487,449.5987682392006 939.9181175467093,455.55349172482966 940.244195555686,456.67060356697766 940.5694580053678,458.2545906454907 940.8097275448963,459.76882732857484 940.8793122132774,460.849956266582 940.9302846577484,461.64414453075733 940.9302846577484,463.08975482708775 940.8445344426436,464.38121873216005 940.552476899582,465.7412799738813 940.0904626630945,467.58281565026846 938.8606869048672,471.04088116728235 938.2110358186765,473.16140165546676 938.106585998321,473.5022253252682 937.5232573440298,475.5146788043785 937.1801691022702,477.01191964762984 936.9229184568394,478.4754582879832 936.7513597725192,479.9040804608376 936.5976268801605,483.808511165611 936.4261264498346,485.13472998229554 935.8435842276085,487.8535164084751 935.4487371094292,489.59141948545584 935.2432453404181,490.88156658492517 935.2432453404181,492.2764240433462 935.2084675697843,494.3742021699436 935.2084675697843,495.47542205813807 935.0555211093742,496.21551835373975 934.9948493370321,496.4292011462967 934.7577837795252,497.26834058290115 934.5182715449482,498.17153689899715 933.7618113422068,499.55618836556096 933.1670939875767,500.4796223475132 932.8702013440197,501.1860540332855 932.3564282311127,502.70670131978113 931.7884204374859,504.5255211548647 931.1395266560139,506.8886544314446 931.1338759965729,506.9066326355678 930.6274137884611,508.5183893716312 930.1136406756705,510.25723621511133 929.5472640001681,511.3448998967651 928.897583786631,512.1850804806454 928.1798917689594,512.8273408809328 927.6540017777588,513.5707444201689 927.0593135502422,514.413184670324 926.035029561026,516.5299211968086 924.5730233457871,518.2968097917619 924.5155555556994,518.3586777852033 923.4378524444764,519.5193880310981 921.6813128819922,521.5427119943779 921.3835755520267,522.2749136419734 921.2751644445816,522.9272287687636 921.2484840108082,523.5514025184093 921.3568659911398,524.6108260466717 921.5729309013113,526.0234644605662 921.4653062258149,527.2178642062936 920.8504037831444,528.8103744682157 920.7630224497989,529.0375511708553 920.0332135538338,531.1833907321561 919.8438873316627,532.1607535685762 919.7896817777073,532.9209803962731 919.8438873316627,533.4371494372608 920.0057175609982,534.197453200235 921.0599442204693,535.9349805809325 922.1683764338959,537.0483583305613 923.4030455467291,538.521612325043 924.2493628871161,539.7643306131358 924.5155555556994,540.0832379316562 924.9862787981983,540.6471243064734 926.0067180091282,541.8695888235234 927.492987107602,543.3360117253615 929.0877255679807,544.7192693431862 929.4938740053913,545.1814870262169 929.8717108907877,545.7786400256446 930.1419522275683,546.8110027277726 930.3587744428078,548.3865416002809 930.5747810986359,549.6347956953105 930.9259375502588,550.6401794343838 931.548150897841,551.6443849335192 932.0424671004293,552.1774359922274 934.7642499983776,553.5718566671712 936.737611775985,554.902184097562 938.106585998321,555.6657395687071 938.8250644480577,556.0672519385116 940.1649115593173,556.6598437826033 941.8186906739138,557.2918240878498 942.6560659912648,557.7270559867029 943.355961343972,558.3657536265091 943.680408234708,558.9088699643034 943.8915506631602,559.5150164670194 943.9239108836045,560.1570694002439 943.8915506631602,560.8351904049632 943.6245715628611,562.5579516324797 943.3567477759207,563.9848999484093 943.3567477759207,564.610100541031 943.4918975715991,565.7233454328962 944.0865566721186,567.705880129186 944.9789531022543,569.4431652296335 945.7492195556406,570.8532327016001 946.5267386595951,572.9807256134227 946.7087831040844,573.9229840845801 946.7640663608909,574.3829191929544 947.087435548543,577.0725625723717 947.3034713314846,578.5388111439534 947.654598655994,580.7258211298031 948.1141953421757,581.2688869347912 948.7881384392967,581.8402462120866 948.9790957795922,582.0020400165231 949.5470744463382,582.7070177033893 950.0875279930187,583.8753104627831 950.7089257813059,584.7433294425718 951.4387055503903,585.231335751887 951.530135552166,585.2718140012003 952.7364639858715,585.8013498296496 955.1418973297114,586.3725768970326 956.8717273315415,586.9965858664946 958.0602882276289,587.8927256484167 958.519855786697,588.7619039703277 958.736648874823,589.7389921703725 958.9802097778302,591.5031162917148 959.1695360000012,593.2942255542148 959.2237415539566,593.9463479192345 959.4130677760113,594.0554328295984 960.4673235627124,594.2994266538299 963.5750115555711,594.8424617876881 965.8995006578043,595.0324590320815 966.7102246684954,595.3315809339983 967.1155575467274,595.4394913961878 968.3834024391836,595.4271460532327 969.7345799964387,595.53396360646 971.0582615609746,595.8869590557879 971.4094180123648,596.1444296670379 971.9231619982747,596.7561084664776 972.5453753458569,598.1131539348862 972.6804668870755,599.1992462179041 972.5987362134038,600.774482137931 972.76216843375,602.6745628306526 972.9078039894812,603.9709027200006 972.9240277903154,604.1125655162032 972.9134837760357,604.5364201039774 972.7573333333712,606.9413112272159 972.5664925014134,608.113938372524 972.5599097742233,608.1544127679081 970.198982656002,615.0698083867901 969.4133953423006,618.5864204590907 969.1884466632036,619.5184225008707 968.6520417849533,620.3009161264054 967.7547811272088,621.0147663181997 967.5581440000096,621.2688912944868 968.893156010774,622.5898592701997 969.4829800107982,623.7736207523267 970.3689102223143,626.461618740519 971.0995055503445,630.6953256068518 971.2961135503137,632.500793082465 971.2678311254131,634.3915981885511 970.7621262222528,636.3679007893079 970.153689998202,638.2013709088205 969.9756942222593,638.7387625795673 969.1601351113059,641.408584615041 969.1329595166026,641.8402243733872 969.1051139982883,642.2819805181934 969.1892622222658,642.9879954783246 969.6666264462983,643.9479474922991 970.3697257813765,645.2744563841261 970.7912533333292,646.629002222151 970.6504820054397,647.193286154652 970.3980373332743,648.5489542731084 970.0323173262877,649.7618458485813 970.0323173262877,650.9185628485866 970.1164946774952,652.9508975761128 970.1731177814072,654.1637669423944 969.9198866775259,655.9982748616603 969.4141817742493,658.0024832442869 969.160950670368,659.0185823467909 968.4869784463663,660.5978775165277 967.8931057777954,662.2794180950732 967.1349853296997,663.0414994998137 965.5329942187527,664.2835741141462 964.6899391148472,665.4683442421956 964.1559226595564,666.5417096175952 964.099299555528,667.2746026524692 964.408367331489,668.7425670864759 964.7174351076828,671.1400584998773 964.706133788568,671.5716853425838 964.6899391148472,672.1561425417312 963.6494313245639,674.7244355430594 963.5794680035906,675.5618196998839 963.538602666813,676.0506937023601 963.4536680107703,677.4343207022175 963.1445711076958,678.5627831032616 962.0207597796107,681.6828697103192 961.1210524445632,683.5733689581393 960.137226012419,684.871457580477 958.9017122132936,686.1415400017286 958.3111017813208,686.4236357665504 958.1144937813515,686.4236357665504 957.7495893333107,685.8313232930959 957.1872613263549,684.6174807526986 955.7819073422579,682.5865061709774 954.2365393351065,680.2284986800514 952.5220884480514,677.7726293413434 950.1611613297137,675.6292311221478 950.0325360071147,675.5618196998839 948.8682379948441,674.9514743674081 948.7881384392967,674.9242831310839 946.8730600107228,674.2748486732598 945.9968291273108,674.2074368713074 944.3155248925323,674.0770237100078 943.0759915520903,673.7667914344347 942.4295153210405,673.4554662469309 941.6148008959135,672.4112655137433 940.490174008999,671.4817344857729 939.562941553886,671.3401113862637 938.6073975467589,671.6784690647037 937.5952595628332,672.4123984937323 936.3306477795122,673.9072801317088 935.3751328997314,674.6412432201905 934.5603602204937,674.72556851228 933.7448011094239,674.4996219816385 932.0036406613654,672.9204585945117 929.3894824392628,670.4656880575931 926.9160955449333,668.7717822312261 924.5276724338764,667.6994788857992 924.5155555556994,667.6974556675996 923.6838308979059,667.5600790997851 921.4920157867018,667.502781515359 919.9587646577274,667.546159348858 919.4684679965721,667.5600790997851 918.5129531165585,667.4184536899556 917.5355637761531,666.87331647682 917.5016015645815,666.8542172289453 915.7871215502964,665.6684018481756 914.41007911833,664.2858401509002 913.5386833351804,663.3540116610238 912.6681031112093,661.464486446057 911.8493108908879,660.1212736462476 911.0620924587129,658.1744232150959 908.5328688926529,655.0135650014272 907.4365535574034,654.0254923740868 905.7504142221296,653.3207238331088 904.1767346630804,652.3888528404641 901.7874959929613,649.9900818016031 900.2429726719856,648.4133068700903 900.0455199858407,648.2116971337819 897.9653782185633,646.9414952519 897.5721913457382,646.7447808965808 896.2509273316246,646.4345133480965 894.0599277795991,646.4918159540393 892.7192651093937,646.3726783173042 892.0445064535597,646.3119763738359 889.2499057778623,645.7005046071135 888.8073484516935,645.5296078850515 888.2612151182257,645.3193760176655 887.5354548908072,645.1935200861772 884.7255042275647,644.8259070779895 883.8168839964783,644.6606752883526 883.4261146737263,644.6606752883526 882.4487253335537,644.7179783171159 882.0004882204812,644.8573913491564 881.6558271147078,645.0192641441245 881.1849291092949,645.665621127875 878.5060504463036,648.1476773065515 877.8685162382899,648.6928569834563 877.2778475519735,649.0312060704455 877.0343157760799,649.1065160942962 876.7721717760433,649.1166329683037 875.9703606613912,648.9017100043711 875.9291166720213,648.8907028355752 874.832801337121,648.3825919493102 872.556838001823,647.0280559921521 871.403870435548,646.6323205909575 870.3649937636219,646.378303363279 866.6521026560804,646.2659238224733 865.8365435447777,646.3501781320083 865.5824968818342,646.4906828519306 865.0218291199999,646.8020834285417 863.558191786753,648.090294160007 863.0403408783022,648.5467285555205 862.969969777856,648.6085225594579 859.9917226667749,650.8657126899925 859.2611273388611,651.2051513317274 858.8112591075478,651.1489829295315 858.1931235555094,650.5273661848623 857.1809564444702,649.2571360712172 856.2254415644566,647.4799600142869 855.8880331092514,646.4637312039849 855.8039140125038,645.5610515958979 855.9446562135126,644.5448956101318 855.3823864605511,644.5448956101318 854.286041998188,644.403256640886 853.3871502223192,643.8962693838985 852.7965106631164,643.7265044943779 851.6977777777938,643.6258190872613 851.2511717831949,643.5848650430562 850.2115086790873,643.2465082902345 849.3401128961705,642.7384259422543 848.5827206257964,641.8402243733872 848.4120940089924,641.637880686787 847.6887513316469,640.7790512474603 847.4007133299019,640.4373316219426 846.7542662259657,639.4772846503183 846.4168577707605,638.6308310859022 846.2170457885368,637.2458475904423 845.9111819945974,635.1302145546651 845.5454911148408,631.2360526401317 845.3488539876416,628.9775854667532 845.2720166685758,628.6414745249203 845.1239635626553,627.9905390058411 844.5899762345944,626.8326189477812 843.7185804516776,624.9698011741275 843.0162675485481,622.7685833849828 842.707199772587,621.4982470502146 842.089064220665,620.3694762719679 840.599562012474,618.2244329351233 837.8979933299124,614.5391228410299 837.5039617707953,614.2850716962712 837.2232346738456,614.2850716962712 836.7733664426487,614.8213835876086 835.7895400107373,616.1479722780059 833.8226444516331,618.9012568838662 832.1364759892458,621.2733837068081 831.2093017885927,622.9102351025213 831.1049102222314,623.2778816281352 831.0134802205721,623.5982565436279 830.8160566615406,624.2929943131167 830.6752853334183,625.2249742284184 830.2537577814655,625.7612617104314 828.8208786774194,627.0315755156334 827.6834358612541,627.928132635483 827.4251948943129,628.1317424648441 826.7115806720685,628.6942890989594 826.600722887204,628.781989595911 825.9267506630858,629.3744021746679 824.5771750970744,630.9258055440732 823.7907722241944,631.772326711216 822.8910648889141,632.4782915987889 819.6595866738353,634.0869400288211 818.8731546738418,634.1150666949106 816.9620957868174,633.7205241378397 815.7816322275903,633.6923974254751 815.0226962205488,633.9745547414641 814.347908437252,634.5388683797792 813.2241262365133,637.02213212481 812.8583771024132,637.9259769404889 811.6472135679796,639.7774439118803 810.0592034702422,641.8402243733872 809.0613668978913,643.1363530526869 808.5273504426004,643.8130663923803 808.2182826668723,644.4628259547171 807.6284586666152,645.7881584317656 806.7012553387322,647.2269958454999 805.3241546525387,648.7793766254326 804.9868044515606,649.2874866731581 804.8468486827333,649.7393864477635 804.9592793316115,650.2474539991817 805.4528382294811,651.2906179243 805.5207917796215,651.4333859144244 806.3921584356576,652.4776777673396 806.9261457636021,653.3802909372025 807.1510944426991,654.3683257498196 807.8258822258795,655.6093121162266 808.6123142259894,656.9076326660579 809.6528220160399,658.0080675519421 810.7207966720453,659.4918297460536 811.9854084551334,661.5240515323239 812.5752324551577,662.1456803085166 813.1375313352328,662.7650009610225 814.4587953494629,663.6676564374357 815.1052133262856,664.4016103220056 815.3018504533684,665.2491061650217 815.2735097743571,665.9539206672343 814.8519822224043,667.2521044235327 814.2621582223801,667.9579651260865 813.334139335202,668.6076594328624 811.4805191111518,669.454088383296 810.4125444551464,669.8766947808908 809.0912804407999,671.0343670614529 808.4165217850823,672.2764003823977 807.9674691129476,673.6858647284098 807.8550093369558,674.1095966595458 807.8550093369558,675.4359391366597 807.8815441350453,675.5618196998839 808.1697568995878,676.9274030987872 808.2482253370108,677.2983254315332 809.0079477761174,679.0236509818351 809.0629688889021,679.1494892042829 809.3445406720275,680.2498627516325 809.3728522241581,681.5198886626167 809.4295044551836,682.6191184294294 809.6261124551529,683.635194421513 809.879343559267,684.3410070264945 810.4133308870951,685.1030185042764 810.7782353351358,685.6672121398151 810.9748433352215,686.0909634167328 810.9748433352215,686.6551547341514 810.6657755592605,687.2755856253207 810.3008711111033,687.6992936066817 810.0192993279779,688.2073214050033 809.879343559267,688.7152672084048 809.7943797761109,689.7313174385345 809.7668546561617,691.0856128218584 809.485311999917,692.6646973641473 809.3728522241581,693.2569930041209 808.6139453441137,694.6405209903605 807.7441806792049,696.0790256068576 807.4909204479773,696.8129614749923 807.4350837761303,697.2085738268797 807.5192319999915,699.1719796395046 807.4626088960795,700.0182200789568 807.1818526720162,700.7801818738226 806.3387684408808,702.1063772340422 805.8889293369139,703.121157126734 805.4957133369753,704.3911431523738 805.0466606650734,705.745355968189 804.1752940089209,707.1849269674858 803.1525828834856,708.1131467084051 802.7140742259799,708.5110870036879 801.7960168106947,709.2786454610177 801.7019071147079,709.3572945763008 800.9713117867941,710.2327497355291 800.4470237868372,711.0789917064249 800.3248355556279,711.2767862283508 799.932435114868,712.7152317794389 799.8482577635441,713.4771533408202 799.7357979877852,716.2978967853123 799.5950557867764,719.2893706541508 799.510907562566,720.2479662284604 798.7503695645137,720.3872950159712 797.4396495645633,720.686220530828 796.6054491023533,720.8053213497042 795.7413350970019,720.655878940539 794.4897140052635,720.4468859622721 793.4767313351622,720.5064364384161 792.523604878108,720.8053213497042 790.2590011165012,722.0920838066377 789.5736984461546,722.450516741781 788.9490675486159,723.0494950119755 786.8632459946675,725.1733759490307 785.8502924515633,726.3993928511045 785.1051044408232,727.3859949315665 784.2418059947668,728.6827952492749 783.9141551218927,729.4008545581601 784.0338675485691,730.6852651576046 783.8550562133314,731.6730228094966 783.2288524515461,733.07874095015 782.2457833243534,734.0956959799514 781.3816693192348,735.0823069393518 780.5774697813904,736.3689525526133 780.2198471111478,737.2656279346556 779.9819951218087,738.2533990117372 779.2376226703636,739.0613149057026 778.8800000001211,739.3422968350933 778.8201146596111,739.3893833229085 778.1348119894974,739.7186244076001 776.824091989547,739.65907868871 776.0991764480714,739.7748125756625 775.5133719894802,739.8680954232113 773.9939271112671,740.3467661188915 772.7422768924152,740.37714567699 771.4622859949013,739.9883194041322 770.508402233012,739.1804066244513 769.316608227673,737.3555541858077 768.5422931058565,735.5924595528049 768.3926088818116,735.144119160308 768.1450575644849,734.7002682257444 765.7007977813482,732.7135276800254 762.1254448924446,729.8064863254549 761.9085935503244,729.1974518346251 761.5186106596375,727.1545151775936 760.080051768804,724.0024119123118 756.9400035557337,718.0678081060178 756.0953173333546,717.3261290991795 754.6074171166401,715.8474976057187 753.9083664497593,715.1527816149755 751.5264095575549,712.5882378749666 750.659878002014,711.2183258067816 749.5344646828016,709.6741968466085 749.3406528853811,709.2786454610177 748.8847553422675,708.3481241401169 748.6897784604225,707.6348164232913 748.6371457705973,707.4423188616638 748.4510817849077,706.7612937795348 747.9097835521679,705.4789805795299 746.5675188907189,703.5661991861416 745.5715464534005,702.0006994071882 744.9436824462609,700.8262644431088 743.9040193422697,697.4546477800468 743.5787277654745,696.6724457019009 742.7559160037199,695.410389469238 741.5220333227189,694.9540440355777 740.5470906596165,694.3449212652049 738.6748873386532,693.3019441335346 737.7007311076159,692.8883610575576 737.1376166684786,692.8456351582427 735.8390426738188,692.9535423153429 733.9773251130246,693.0849972006399 732.6779355593026,693.0423522564815 731.3785460053477,692.8894534809515 730.3348051058128,692.961067897093 730.1010017849039,692.9771305626491 728.3250344392145,693.3682177005103 726.4422871040879,693.6076601429377 725.099236010923,693.5199832911021 723.8863831040217,693.1502188653103 723.3791053369641,692.952409432095 722.2188559930073,692.4983251041849 720.4987544463947,692.0195591524825 719.3077760001179,691.824014566082 718.3546495431801,691.8892365728389 717.2292362239677,692.4983251041849 716.4929902364966,692.8894534809515 715.6272451129043,692.9771305626491 714.0681291093351,693.4334392882884 710.6465091129066,694.2381071498385 709.3260897848522,694.3685093758977 708.0274866630789,694.2808328016545 706.1212628765497,693.6941636228585 706.0622222222155,693.6718297058833 703.7175189048285,692.7826791791013 699.2351477760822,691.0428866021684 696.6493302328745,690.1516224028892 693.7042297743028,689.7380743686226 692.1685902221361,689.5930633250973 690.7162833351176,689.4559824925382 688.4864573441446,688.9131205884623 686.2776320000412,688.5871681848075 685.0648082204862,688.1735769987572 683.4409717760282,687.412708162039 682.5744402204873,687.2823021634249 682.0453171200352,687.3474849410704 681.7896393387346,687.4910407416173 680.7677728998242,688.064575250959 679.1439364552498,689.1300308246864 678.1050597832073,689.434619238833 676.3291215645149,689.434619238833 674.0555757796392,689.1952131016296 671.6088984463131,689.1525270066923 670.6776464498835,689.2604358214303 669.7471808854025,689.2604358214303 668.6209228801308,688.7388963323901 668.144403342274,688.1083539840765 667.5165393352509,687.1294806469814 666.5205668979324,686.0875646698405 665.2430226773722,685.0434592594393 663.5221055716975,683.6924881613813 662.8181615502108,682.7596424158546 662.3739731059177,682.1706792562036 661.594822883606,680.8444548562402 661.4864117761608,680.5836761250976 660.901452003629,680.6263637412922 660.6643864463549,680.7354093234753 659.8415455573704,681.6918927392107 657.5170273281401,683.7316955219139 657.2646117832046,683.9532635204378 655.2726377815707,685.2581071477034 653.7143373370636,685.7582906066673 652.371257116436,685.8886569706374 650.7037008783082,685.7796541870339 648.7117268764414,685.3671506290557 647.00135378493,684.8231870331219 645.7674711040454,684.2814475930645 643.8305473424261,683.1282898918143 643.6355413334677,682.9540614437428 643.0942722276086,682.8023296455503 642.5530031217495,682.846190260665 640.8854468836216,683.346338275529 640.0626059946371,683.3890254012076 639.7592180053471,683.346338275529 639.1095086649293,683.0844293283299 637.9185302186524,682.497732829419 636.6418015572708,681.9762595948996 636.3602589014918,681.5626165745198 636.0139375503641,680.4971274659038 635.8408060017973,679.4754544027383 635.6320811235346,679.0179862371879 635.6029540125746,678.9539341504569 634.7145479964092,677.8670691994485 634.064867783105,677.4320952520939 633.2444444444263,677.1776250123512 633.15543199284,677.1499484745436 632.0947391147492,677.0622656209162 630.3835213370621,676.9543917944538 628.3203315485734,676.8487433749251 627.8284328960581,676.8240205859183 625.5338573369663,676.8015232504113 624.4731353316456,676.4317735751974 623.7150440106634,676.1058042501099 623.1519295716425,675.6280981572345 623.0309646792011,675.5618196998839 622.9140193280764,675.4977262295433 622.5022202311084,675.4539047370781 622.0952271076385,675.3650882988586 621.7626828800421,675.408950270561 620.973017770797,675.5618196998839 620.5725199929439,675.6393468800234 618.4915917938342,676.1215443381225 616.9130480071763,676.6037003662786 615.1654213406146,677.2443481142982 614.2131104426226,677.4309622955625 613.6411122346763,677.4309622955625 613.2057784320787,677.3624184220098 612.8166402275674,677.2241167331231 612.5649819875835,676.9251776439487 612.2122526720632,676.3968945548404 611.5949035520898,675.8720091963769 611.2969332053326,675.5618196998839 610.9880693190498,675.2403810624382 610.3917791006388,674.3209363227943 609.4831879964331,672.6619372263667 609.1571099875728,671.8166930164443 608.971861560829,671.3770952551276 608.8440226704115,671.0736978778732 608.4758851130027,670.4105762168765 607.372287999955,668.6930793747888 606.5025233351626,667.6590145151713 605.9078351075295,667.3364323073183 604.6286597689614,666.7856298753177 603.7824006828014,666.5327669491526 602.7985159964301,666.2574054349097 602.203856896027,665.7740147162112 601.9805393351708,665.4795529757976 601.4392702295445,664.1633122753119 601.0379568925127,663.2821051697247 600.6479448747123,662.6031401146902 599.7328875520034,661.6162721767323 599.0920911076246,661.2947744278354 597.9707264569588,660.5596375567256 597.4213308871258,659.9853090474498 597.2765108906897,659.8065316692227 596.804010894266,659.2265361497412 595.2028062151512,657.3426032831194 594.562009770656,656.8131845741882 594.2513400036842,656.7311191070476 594.0345177885611,656.7524852668867 593.5555224461714,656.8829078264534 592.869433344109,657.3426032831194 591.3200166686438,658.3081632108078 589.8943902151659,659.0421739236335 588.9801484515192,659.2490351300221 588.4081211164594,659.2951256601373 587.7220028870506,659.2265361497412 586.9671446757857,659.0197153899353 586.6232700018445,659.0421739236335 586.143488227739,659.1118965293281 585.1134953243891,659.3186767440639 584.6992495503509,659.3792944719899 584.4136582259089,659.4209742093226 583.0568008818664,659.8469973617466 582.0956062151818,660.127990942914 580.5146740053315,660.293252567295 579.6368120036786,660.4337491380866 576.3535166578367,661.1576774595305 575.2790757832117,660.974449748348 572.4189391076798,660.4225401692674 570.4051488996483,660.2381788602797 569.9293866667431,660.293252567295 569.4900624497095,660.4225401692674 569.1922959930962,660.6405686814687 568.7813124550739,661.0890884808614 568.095194225898,661.8927720366628 567.6485591040691,662.4862765158759 567.3856286722003,662.8358555122395 565.4640257706633,664.4892977929558 565.196231111302,664.7646613325342 564.3725746632554,665.1558348293183 563.2479477759916,665.3165609435528 561.719590001856,665.5907905232161 560.8223293441115,665.8909576461883 560.4266666667536,666.0556083392585 559.2211246649968,666.5574907963746 558.2372982329689,667.1318440696341 557.4597500017844,668.0974051458179 556.7048626631731,668.5795772664715 556.2016044373158,668.7403010916314 555.7436679964885,668.7639321787283 555.2630706632044,668.7178434639936 553.6618951112032,668.3727645527688 551.5348004408879,667.7062364352169 548.8802137884777,666.6496285808971 547.5986208996037,666.3506763430778 547.1964920037426,666.2663481135387 547.0129038221203,666.1649842474144 546.478042681003,665.8695922984625 545.6907659948338,665.5379840548267 545.3792806685669,665.4784199630376 545.1381955698598,665.5054099439294 543.7805517938687,665.8470939378603 542.8880971093895,665.9842286965577 542.7966671076138,666.4439472152735 542.3395170987351,668.4199863325921 541.9543984357733,669.9126672751154 541.7594506810419,670.2723109928775 541.5425993386889,670.5004870105768 541.3039026631741,670.6634755283594 541.000514673884,670.6747244836879 540.5134219948668,670.6308616481256 540.4244386702776,670.6207861432922 539.685746005387,670.5331009085639 539.0772806542227,670.4465081672533 537.0546066774987,670.3959687445895 536.1540837831562,670.3561522502569 535.5019568925491,670.327382401214 533.943656448042,669.9823058001348 533.5091673315037,669.9789877535659 532.4330953386379,670.2127480740892 532.0212671147892,670.3048844577861 531.1304726756644,670.4903710364015 526.1189784464659,671.6919434755109 522.4602928925306,672.289874759852 518.6017662293743,672.7754374074284 517.2902015431318,673.0024780721869 517.2792206222657,673.0062007118249 516.5353433316341,673.2554151206859 515.5053795556305,673.6690319700865 512.3483211094281,674.2883634020109 511.8814717725618,674.459158755315 511.2730646756245,674.6817064158386 510.0642604375025,675.2481904402375 509.51506875734776,675.5618196998839 509.1686308978824,675.7596434414736 508.8959720109124,676.0069127735333 508.7867162170587,676.1069372126949 508.4946586738806,676.4879765336518 508.0933453369653,677.2994583885302 507.95257400907576,677.7063514754991 507.5666397867026,678.1952211171738 506.9258433422074,679.0910614333698 506.46872246055864,679.5046682434622 505.4621768819634,680.4004227560363 502.8569606827805,682.8596640457399 500.7864599893801,684.72652452474 498.09791112551466,687.1103425471811 494.87205444276333,689.3154624199378 492.72151244815905,690.3269785310258 491.3258286648197,690.6708930394961 490.8913395485142,690.6484374600695 490.2740486827679,690.419147667475 489.9536504604621,690.2348093592445 488.83222755556926,689.154752348375 488.03609622758813,688.4354399415315 487.608888888848,688.1830448543187 487.2448291272158,687.9678735847701 484.8515126614366,687.2710944463033 483.47851889778394,686.9035457728314 482.44610844459385,686.7607988446834 482.1669833387714,686.7349441623082 481.6677446542308,686.6877664407948 481.0342591146473,686.6416811615927 480.35460710397456,686.422502852336 479.8885733264033,686.145990740566 479.59083599655423,685.9021710465895 479.30524467199575,685.4727953057154 478.9840308908606,684.6073653724743 478.1271986630745,683.2283113683225 477.4637413263554,682.5618244338548 476.74205889424775,682.1684133880772 476.16030310397036,681.9638782332768 475.56485757173505,681.8492494543316 474.93291576905176,681.7974985686014 474.1918055538554,681.7570365705178 473.4603946666466,681.6660375118954 472.86489088006783,681.3895603918354 472.38432267378084,681.0467655465472 471.7961297919974,680.3847234103596 470.4740502187051,678.2312328292755 470.0193760143593,677.622027228761 469.5015251059085,677.1859198803431 468.7466377672972,676.7723090815125 468.38016045524273,676.7037650200073 467.95050643919967,676.6970481864992 467.4950166755589,676.6430707343388 467.4627147093415,676.6337642758153 465.6429984427523,676.1092031380977 464.4233589192154,675.5618196998839 463.3363060053671,675.0738753553596 462.61782755563036,674.7514244858758 462.0919084374327,674.7053369188216 461.56520288717,674.7974715809687 460.9575822222978,674.924485446827 459.917103559128,675.077395647415 459.46240022743586,675.054898148519 457.8312820054125,674.8379347504815 457.3320724481018,674.7514244858758 455.9137568997685,674.2692647430813 454.03744665603153,673.682546732889 451.7000251164427,672.9542051418684 448.93618267029524,672.1797328295652 448.2492488818243,672.041509086499 448.0210962204728,672.0875567006296 447.8050895645283,672.138176694978 447.69664932985324,672.3663509418257 447.15133155556396,673.603805020568 445.74670574930497,675.5618196998839 445.73380243917927,675.5797852908145 443.81141310581006,677.5321190983523 440.65761689608917,679.8531300123432 439.0636939946562,681.1260712907533 438.6437975609442,681.4614614676684 437.17934466851875,682.1965344293858 436.69874733523466,682.3347927960567 436.1954891093774,682.4032947903615 435.60648066853173,682.3797459675116 434.98266532982234,682.4955074262107 434.38797710230574,682.6325922272517 433.97696443728637,682.8855191447656 433.7027035590727,683.2069475612952 433.1047822224209,684.1633806832251 432.3571766614914,686.5787235581665 432.19458912708797,687.2418410881655 432.00928244623356,689.1670928788371 431.9866215537768,689.9257712899125 432.1007124480093,690.7304913507542 432.248765553697,691.2811984690488 432.4672188871773,691.7633240974392 432.4898797797505,691.8004262057948 432.99313800537493,692.6354851225042 433.47291977971327,693.4558946077013 434.7294342259411,696.0768407888245 436.04662044451106,699.1899434663937 436.5774037903175,700.7453468441963 436.78371111815795,701.4960992807173 437.0434375680052,702.714307046961 437.16236356273293,704.3461536376853 437.11217755032703,705.1193895199103 436.4260884480318,707.3939719299087 435.854061112972,708.8178760273149 435.3960955449147,709.2314317050041 435.3588128427509,709.2786454610177 434.16064000001643,710.7935264683911 433.35967357165646,712.1027556214249 432.90333912172355,713.1366698149941 432.76580090331845,713.8491520792013 432.6290199892828,714.5380461023306 432.4914817707613,716.1237328263815 432.3313117866637,717.5936241315794 432.17516134423204,718.6657049866626 431.9421444552718,719.7523855371401 431.3927780125523,721.1626639078604 431.14111977256835,721.7594203459448 429.70582311821636,723.9417295647436 429.3134226774564,724.6373506250675 429.1742242134642,724.8845292436308 428.32793599995784,726.69940316258 428.0309851022903,727.5321159059531 427.7098004480358,727.9164314445225 427.2753113316139,728.1231524960021 426.8392202241812,728.1411141601857 425.0333393352339,727.801784115436 423.63765555189457,727.6635518893017 422.58584644272923,727.6410997643252 422.1279100017855,727.6837790271966 421.69586756266654,727.801784115436 419.19658666674513,728.7929113004939 418.7742435554974,728.8805752919288 418.2645191111369,728.8906483559404 416.84538800350856,728.5827926784405 414.855045119999,728.2613844580483 414.79111111117527,728.254304976901 413.61956044798717,728.1231524960021 411.674510222394,727.9411085266038 410.9196228835499,727.7804242683342 409.8904746668413,727.2050831260858 408.9980782364728,726.6544582758215 408.73672066861764,726.5533221366932 408.4025744497776,726.5398507997161 407.94545356801245,726.6083806561655 406.2067106703762,726.929750631447 403.293183999951,727.2062158480403 401.0503964443924,727.2500683641993 400.21459399117157,727.2511201771558 399.39096667047124,727.1140608110582 399.3804517831886,727.1095299217268 398.70484844082966,726.7915583582362 397.7897911183536,726.1026994377025 396.8746755415341,725.0834855969879 395.31882177433,723.1079121023649 393.0501693440601,720.7547925108811 392.20790067198686,721.3941898850608 390.6520177779021,722.5887519646203 390.51852822769433,722.6866533621214 388.9812575574033,723.8136088511092 388.3639084374299,724.401337284653 387.15190021693707,725.8970284683746 386.602533774334,726.2881025231327 385.8476755627198,726.67804321734 383.94876268098596,727.597247319296 383.1251062330557,727.8501269444241 380.39604155742563,728.350140905648 379.75766266323626,728.545655790891 379.3571648852667,728.850194281491 379.0327179947635,729.1592227833462 378.0715233279625,730.3076693801559 375.8797082169913,732.9203255146858 374.9136784498114,734.2586413959507 374.5940666596871,734.877776335401 374.3359713279642,735.4429858794902 374.2016662186943,735.6295548992348 372.6676286578877,737.7623052081908 372.2380328960717,738.4713569616433 371.94029556633905,739.1601804536185 371.528438215144,740.7220403652755 370.79300778673496,742.9064428083948 370.7512686365517,742.99074416433 370.5882733226754,743.3199803188909 370.3390908871079,743.5245037430432 369.56157178315334,743.9155491334386 368.8010337849846,744.4514910381986 368.45879022951704,744.9290199728566 368.16588800004683,745.477378162439 367.82282888528425,746.6032964810147 366.77020421694033,748.026927984436 366.24591621698346,748.7197691818001 365.39799688523635,749.8404946511146 364.0500524373492,751.5438611574355 363.24745489063207,751.8618808960891 362.4237984427018,752.252872280369 361.9432011094177,752.4596128640114 361.1422055539442,752.7124663473223 360.31857823301107,752.7809887462063 358.9681871077046,752.6203210838139 356.9098615468247,752.1843497311929 355.5853935503401,751.8630135019193 354.9219362133881,751.5416768434225 353.50362066493835,750.2786950286245 352.7940842383541,749.8191367611871 351.69532222580165,749.1988672169973 349.81985666858964,747.8437664562371 349.3845811202191,747.5212918012985 348.915285105817,747.3898262195871 348.53663266135845,747.3898262195871 347.91852623654995,747.4010715858312 347.17092067573685,747.5314045353443 346.20486178132705,747.8437664562371 344.07695155218244,748.7853802659083 342.9563733333489,749.3359948983416 341.9733333332697,749.6437431093655 341.92640955746174,749.6584671202581 341.0800922168419,749.7730635795742 339.72975934576243,749.6809576403466 338.4185441848822,749.3837266393821 337.3995904568583,749.1528343671234 336.1859511183575,748.82696360728 335.687557120109,748.4898470907356 334.6373500019545,747.6628700398142 334.08067265420686,747.1258026633877 333.5216360107297,746.5864688263391 332.59440355573315,745.3402887322591 331.839516216889,744.3762108713854 331.2675180089427,743.9851662299479 329.4710743040778,742.99074416433 328.4073813332943,742.401928509993 326.8053902222309,741.7580968273105 325.89033289952204,741.4367062149686 325.40970643924084,741.1378469443298 324.71875310945325,740.4512944359449 323.69446912012063,739.2871198740322 323.02859423297923,738.33988643263 322.3918173299171,737.775775916467 321.8554124516668,737.4151004749001 321.47026466135867,737.2307981898775 320.88046978844795,737.0408728383482 317.70075044978876,736.3138558148639 316.76221667567734,736.0992534967372 309.94647267565597,734.6519672269351 308.82589445693884,734.4912874526926 307.52164067560807,734.1923386445269 306.33144866127986,733.8496190663427 305.40747844288126,733.4675379410619 305.2392111219233,733.3720681315754 304.6056673282292,733.0113456320832 303.67764844105113,732.4022788042785 301.61932288017124,730.6785093779326 299.20503489428665,728.5704137164867 298.4032237796346,728.1040581128327 296.4476586666424,726.8892962271348 295.21462067204993,726.3387111083721 293.7275068872841,725.3733838844928 293.4281384391943,725.1495481316815 291.66839489422273,723.8338363128714 290.4345122134546,722.6752854746883 288.419906446361,720.4671137072728 287.9384935537819,719.8052205558051 287.1390999893192,718.5656982501969 286.59459777432494,717.7588058065157 286.1091653405456,717.1407191039762 284.9262842311291,715.9428125479608 283.86716421693563,715.097680016188 282.8460842099739,714.3087790893042 280.77805932099,712.9152905339142 279.95361644099467,712.4050493531395 279.379171555629,712.1511016064906 277.00286532274913,711.1014858349808 275.2407042274717,710.4114491652581 272.2786226631142,709.3718996818061 271.78153938485775,709.2786454610177 271.69771155912895,709.262907543336 270.43956599466037,709.1022108037723 269.15555555559695,708.988606397179 268.35700667731,708.9178868180024 266.8011237832252,708.6886144463206 265.86340556805953,708.2975117684109 265.1869866666384,707.8064377006958 264.67324268096127,707.288336884405 263.6432497778442,705.9790815181332 263.23142155376263,704.9676312503871 262.9053435449023,703.9202497853548 261.92798333172686,701.4893426808994 261.73542400007136,700.2339874483296 261.7443077689968,699.3304173093638 261.7685997795779,698.8494397093891 261.97327598929405,697.8143312209286 262.4312415573513,696.5510671965312 262.74354244279675,695.6620891555795 262.83013734407723,694.9653323141392 262.7281633281382,694.4145931739477 261.8474759964738,693.4857136499486 261.7904451128561,693.4255900411517 259.31950489617884,691.8420194023056 259.083254897967,691.6576821847702"/></g></g></svg>