<svg width="1200" height="800" version="1.1" xmlns:xlink="http://www.w3.org/1999/xlink" xmlns="http://www.w3.org/2000/svg"><g class="geojson-features"><g class="geojson-feature" stroke="#555555" stroke-opacity="0.0" stroke-width="0.0" fill="#111" fill-opacity="1.0" data-properties="{&amp;quot;N03_002&amp;quot;:&amp;quot;上川総合振興局&amp;quot;,&amp;quot;fill-opacity&amp;quot;:1,&amp;quot;description&amp;quot;:&amp;quot;空知郡上富良野町&amp;quot;,&amp;quot;N03_001&amp;quot;:&amp;quot;北海道&amp;quot;,&amp;quot;stroke-opacity&amp;quot;:0,&amp;quot;N03_007&amp;quot;:&amp;quot;01460&amp;quot;,&amp;quot;fill&amp;quot;:&amp;quot;#111&amp;quot;,&amp;quot;N03_004&amp;quot;:&amp;quot;上富良野町&amp;quot;,&amp;quot;title&amp;quot;:&amp;quot;空知郡上富良野町&amp;quot;,&amp;quot;stroke-width&amp;quot;:0,&amp;quot;N03_003&amp;quot;:&amp;quot;空知郡&amp;quot;}"><title>
      空知郡上富良野町
    </title><desc>
      空知郡上富良野町
    </desc><polygon points="493.6098348941887,692.7912364334916 489.24481689604,693.0941099897027 486.77547867037356,693.187625531049 486.5513746775687,693.187625531049 483.4744157867972,693.4136580177001 480.5325775644742,693.6385679491214 477.18697932793293,693.8868464662228 476.0607504497748,693.9812034597271 474.2233248995617,694.1351648133714 470.8769111040747,694.3378276699223 467.91322754858993,694.5860653888667 464.7238380089402,694.8132189131575 464.52236578136217,694.8355053600972 461.9171787092928,695.0364841253031 461.0424915626645,695.0994152162457 458.77381000539754,695.2641983971116 456.9104904534761,695.3766324904864 452.62070778314956,692.6253292260226 452.39657466311473,692.443829256692 451.78813843929674,692.0490423052106 450.1731857636478,691.0008034751518 449.2298460161546,690.370599359856 448.82608600193635,690.100030369591 448.03883844264783,689.6023028930649 447.43366445519496,689.2192961557303 446.4230993350502,688.5434310930432 444.9181888854364,687.5724605151336 443.7506868907949,686.8287272169837 441.1017508977093,685.1362184035243 438.4519702186808,683.3780378774973 435.7116042240523,681.5730645899312 432.5844593211077,679.5353383336915 431.63299310940783,678.9162484250846 430.8862031076569,678.429682094371 429.1321393493563,677.2883439009893 428.9071906702593,677.1535732811317 427.8966255503474,676.4542640907457 427.5155555556994,676.2123014394892 425.7638802204747,675.100256274105 424.97744822036475,674.603580407158 422.4846626702929,672.9800565650221 419.9028646685183,671.2875314279809 417.32028023467865,669.6194079061388 415.2270895218244,668.2527743809042 413.27886444097385,666.980300208088 412.1466353777796,666.2353412970551 412.04337976896204,666.1673916943255 410.58379110402893,665.2197833951795 409.4607953351224,664.4981907057227 407.77707355027087,663.4169201360783 406.58612423110753,662.6719102067291 405.1491964587476,661.7019586960087 404.66373489785474,661.3935537939542 404.47522423474584,661.2732865998987 403.9590044445358,660.980355555308 403.2429726719856,660.5098691529711 401.5560177778825,659.4013200486079 399.0187260018429,657.730909959937 397.7088215609547,656.8623258488951 396.3689744499279,655.9725310494541 394.7742651165463,654.9569302349119 392.1924671146553,653.2653218509513 391.0022751004435,652.4980305427453 388.50951867736876,650.8966494114138 386.24165267916396,649.4087955532596 384.19786154665053,648.1003008943517 383.0748657778604,647.3552840721095 381.0100739982445,646.0233247694559 378.97036066139117,644.7069939678768 376.73567044269294,643.264807128231 376.36106666666456,643.0242547258968 376.06897999648936,642.8215490498696 375.86672133707907,642.6634256757097 373.6433615644928,641.2201041139197 372.88360999827273,640.7155810203985 372.5891057777917,640.5206914550508 371.10685622051824,639.5729429934872 369.9611704320414,638.8279000119655 368.47895000188146,637.880185037211 364.4618262187578,635.183880023018 363.8768664463423,634.790764101781 365.1114481779514,632.8261772941332 366.81628711824305,630.1877523008734 368.50079533527605,627.5704686120735 371.07207844988443,623.5943710751017 371.18046043021604,623.4272939246148 372.7671015537344,620.91466746066 373.5082117690472,619.7418643175624 373.99772199825384,618.996720396739 375.2598871041555,617.0787982809707 377.01077600719873,614.3032715573208 378.5820088890614,611.8439602068393 378.97036066139117,611.2366868253448 380.15408645686693,609.385786780389 381.743116003694,606.9275082729873 383.70270065788645,603.8789950359496 386.3743266701931,599.7042188947089 386.56007025775034,599.4123764537508 387.96822044451255,597.200249068148 388.39542778325267,596.545260451152 389.7651884374209,594.4021593527286 391.3809275449021,591.8747161379433 392.62937378138304,589.9064537184313 392.81141822587233,589.6190507013234 392.9627044410445,589.3829364570556 397.0388980054995,583.0078452705056 403.2429726719856,573.343994001043 403.5374768925831,572.8852485640673 403.6879475484602,572.6513237496838 406.7592557796743,567.865580830141 407.9839634204982,565.9940169967595 411.7076315592276,560.3035192885436 414.3533635699423,556.259462667047 414.528126236517,555.9932361346437 403.2429726719856,548.6994059412391 397.8026399858063,545.1831816323102 390.69888711115345,540.5907440827577 386.2570317937061,537.7207273149397 381.2333624319872,534.472920785367 381.0489004374249,534.3537137910607 380.94130488904193,534.2835212200298 378.97036066139117,533.0097030227189 378.2916407183511,532.571056856541 373.0818491164828,529.2040120122256 354.6977777777938,517.3197079540696 352.9792782223085,516.2087800389272 351.7292299947003,515.4009824299719 348.04546599823516,513.018729988893 347.59076266677584,512.725620025245 339.1034428871935,507.23893891921034 333.8387175537646,503.8347170097986 332.17360799293965,502.758306724194 331.2367053369526,502.15324755909387 330.4251948943129,501.6280567458598 329.94864622934256,501.3197292541736 329.2414690988371,500.8628935776069 326.5819599645911,499.14345394290285 319.6788928853348,494.6805241749971 318.87306222936604,494.1601311924751 306.1525828834856,485.93695556145394 297.44599421159364,480.30832972668577 290.9118219946977,476.0824417533586 281.8800000001211,470.24307448760374 279.89326887833886,468.9585288359085 274.87006555031985,465.7112865069648 266.81560376891866,460.5043982419884 266.26463533507194,460.14771125337575 264.19337733695284,458.8080640665139 262.9409115592716,458.01897314481903 259.6406351076439,455.93928679072997 257.60741711664014,454.64086303435033 254.80795221333392,452.85316678421805 240.30107801605482,443.5922841260326 237.6111601778539,441.8695496302098 234.8850082133431,440.1236103004776 233.33480510581285,439.1309808904771 222.62785382405855,432.2745124619687 220.1806813298026,430.70731081685517 216.77039177971892,428.49027460830985 209.0622222222155,423.4818249499658 206.90439844981302,422.0798161214334 206.75226754846517,421.98061821237206 203.66400733869523,420.006483104371 184.78963933873456,407.9357592242304 178.86550533713307,404.14720882248366 170.5555987911066,398.8330896986881 160.5170273281401,392.4132589349756 156.72322110587265,389.9870561308926 157.76696200540755,387.81873197393725 158.56472445162944,386.2802603772725 159.49920955731068,384.8242158317007 160.5170273281401,383.52272238081787 161.83666022401303,381.83528165792814 162.51304999820422,381.2343759003561 164.22913200361654,379.8430397704942 164.65307710587513,379.744948385749 166.74862711469177,379.2577017216827 168.25918822409585,376.50618458457757 171.2026575645432,377.9455022557522 174.8944897708716,377.4538370196824 180.2959668908734,382.0047727736528 183.08407222048845,384.23897007247433 184.78963933873456,383.16519976762356 187.07935067021754,381.7238260336453 190.58267221343704,383.951323391404 191.5099046684336,382.57778270874405 191.9047226596158,381.9935750454315 192.07820373342838,381.5755261590821 192.4144762310898,380.7450451855548 192.652590364567,380.2790723522194 193.1355761210434,379.3603687691502 193.3431359147653,379.13452528906055 194.8125404161401,378.6478794356226 195.10509312013164,377.7432573864935 195.49280409596395,376.7081896684831 197.35070600546896,373.9363345121383 197.5869268765673,373.65200695197564 205.13652844098397,370.07761504472 205.8953770668013,365.38709649798693 205.93833955563605,365.1217442000052 205.90679489425384,364.9489098287886 203.2384311183123,359.8881315853796 203.04907576891128,359.0664069392951 203.04907576891128,358.0696325824247 203.1121942185564,356.99586684192764 203.1089611093048,355.2386795534985 203.09684423112776,348.8596820587409 203.0336966542527,348.4014352784143 202.73354177433066,346.3609501182218 202.54503111110535,345.6818817772437 202.37189956277143,345.0184666600544 201.83628111646976,343.94239521218697 201.0643835448427,342.4649819196784 200.15174377243966,340.37760097091086 199.91552290145773,339.76097717275843 199.91552290145773,338.77973885665415 200.01015688548796,338.06829443824245 200.2617859983584,337.43608943989966 200.38802289788146,336.8662645499571 200.60807822213974,336.2184007258038 200.76585978304502,335.7121994580375 201.80473645532038,333.6871429615421 202.35570488905068,332.73823563562473 202.54503111110535,332.0278975117835 202.54503111110535,331.9364907538984 202.54503111110535,331.664397881832 202.4819126613438,330.9997802528669 201.93819687829819,328.2253954602056 201.9066522170324,327.56080855068285 201.9066522170324,326.7389743673266 201.87510755565017,324.8565974760568 201.8281837796094,323.85968250833685 201.8597284409916,323.06902843288844 201.87510755565017,322.15239639166975 202.01672356994823,321.124237264914 202.03775334416423,320.59343551279744 202.06443377782125,319.922123389435 202.25294444104657,315.77260885189753 202.567662876565,313.32030676252907 202.78777645528316,311.9921333877719 202.9609080037335,311.54939393064706 203.2594608926447,311.1691223261878 203.68503711291123,310.4576370490249 203.95286089961883,309.60338625329314 204.0313293369254,309.0970491322805 204.23603467387147,307.5090579355601 204.20446088549215,306.4328601838788 204.14137156272773,305.626531767135 204.0313293369254,305.13584404223366 203.87354777613655,304.2670810376876 203.2125371164875,302.52733752987115 203.05475555558223,302.0210257814615 202.92936334235128,301.4043044449063 202.81932111654896,299.93329667678336 202.78969884454273,298.4812303369981 202.78777645528316,298.3831060391967 202.83470023109112,297.77524841588456 203.00704534747638,297.03144381119637 203.16479778150097,296.17710556532256 203.24326621857472,295.44995812280104 203.32176378311124,294.9748680109042 203.40104777971283,294.5956946040387 205.14785888732877,291.1951924886671 205.13247977255378,291.00447869626805 205.1640535610495,290.48252439138014 205.03784578840714,289.9605689632008 202.88648823474068,286.4373404328944 202.52237021864858,285.8406550308573 201.88078734232113,284.59259368968196 201.51908687653486,283.83308956958354 201.2982451200951,282.9787851215806 201.07816066849045,282.2827959948336 200.9049999929266,281.3024091682746 200.8419106702786,280.6856351319002 200.92037910758518,280.21047593763797 201.04580044816248,279.57812007825123 201.37671355740167,278.4549806957948 202.18254421337042,276.29786553716986 202.72302688728087,275.1902902875445 203.02239533513784,274.58912022260483 203.17933220986743,274.27239310217556 203.21090599836316,273.73478320246795 203.21090599836316,272.675179469923 203.17933220986743,271.72599320317386 203.1955560108181,270.9976481269114 203.17933220986743,269.62129923544126 203.1477875484852,268.57729743258096 203.3362982115941,267.5176711593522 203.49326421343721,267.2488387923804 203.93421954847872,266.8852018855396 205.41405155567918,265.80886396189453 206.1859200000763,265.09724556922447 206.25410656712484,265.0213935588836 206.98851754667703,264.20492888748413 207.17705733701587,263.6349318801076 207.2247966720024,263.22338477522135 207.25634133338463,262.14807462634053 207.2717204481596,261.3885001929593 207.41330733522773,260.75713927752804 207.58643888367806,260.34558728756383 207.82271800900344,259.9027535142377 208.6568602169864,258.8107238994562 209.0622222222155,258.34515919937985 211.75001378147863,255.25804989470635 212.33742023119703,254.38689955271548 213.42965777078643,253.41643904394004 214.10199887654744,252.537451535929 215.23716977774166,251.1241338145337 215.57294711470604,250.4917020854191 215.69915488711558,249.26915936986916 215.6562797796214,248.1725842281594 215.299472668441,247.24562961456832 214.87873154843692,246.76036547287367 214.58504288713448,246.33871014224133 214.3536571165314,245.45307092898292 214.31156844098587,244.3565186834312 214.58504288713448,243.44958840264007 214.82534155389294,243.1528595466516 214.85773090133443,243.11270133010112 215.6352500055218,242.90191074239556 216.77039177971892,242.52265588741284 217.1061691165669,242.24821378930937 217.4006733369315,241.67820531356847 217.56812509859446,241.06687234406127 217.58918400015682,240.4979453740525 217.48482156102546,239.31663555797422 217.23240601608995,237.82625578239094 216.97996134392451,237.08889350609388 216.60209533164743,236.8356895057368 216.09802154672798,236.8993017646717 215.6562797796214,236.79332148301182 214.56401311291847,235.97113942028955 214.1853315413464,235.4446089162957 214.08018267026637,234.8957485423307 214.29056779376697,234.32684724859428 214.69022088532802,233.54598126298515 214.64816133701243,232.9346277845325 214.41677556640934,232.00649041950237 214.39638658845797,231.5569382935064 214.3746868907474,231.07830934086815 214.50089466315694,230.38333584886277 214.58504288713448,229.20197674102383 214.52110887831077,226.46096529095666 214.5421677796403,225.17468605702743 214.71046422759537,224.4785711222794 215.31971601082478,223.5303206477547 215.6134046720108,223.00934557552682 215.5713159965817,222.77733218751382 215.25659756106324,222.16595154913375 215.08830111299176,221.42741710331757 215.1724493369693,220.7737023991067 215.67649399477523,219.19284371548565 215.29868623649236,217.63209610560443 215.13036066130735,216.66261299408507 215.3423477760516,215.831486682815 215.38766956096515,215.22904483799357 215.17728443746455,213.47974604845513 214.84555576893035,212.04386975546367 214.77276711829472,211.72702074341942 214.64653021865524,210.44070348271634 214.66758912010118,209.19783667300362 214.96127778152004,207.81218026846182 214.96127778152004,207.28446399729 214.8771295574261,206.862739992328 214.30996644985862,206.12415891711134 214.0575509048067,205.5975635747891 213.86898198758718,203.97314770013327 213.97418911289424,203.3193457548623 214.45720399660058,202.28622423112392 214.56241112190764,201.42155090731103 214.45720399660058,201.06231374008348 214.16269977611955,200.641663370654 213.8900408889167,200.09388897917233 213.6586259912001,199.27158242306905 213.5313696428202,198.08782239200082 213.42724022036418,197.119425911922 213.42724022036418,196.022614823014 213.30181888013612,195.64328661176842 213.15461046050768,195.4747898260248 212.31394377967808,194.84221288567642 211.47330622572917,193.85030610463582 211.0954402134521,193.01464308047434 210.864054442849,191.74939437303692 210.84223823645152,189.61829895124538 211.11571268271655,188.33182418113574 211.6407871147385,187.57201840216294 212.41830621857662,186.9817574050394 212.64972111652605,186.7072925812099 212.66993533156347,186.4127436397248 212.39730557170697,185.33713285980048 212.35521689604502,184.32401866168948 212.41830621857662,183.16468819451984 212.75408355565742,182.38478207529988 212.83823177963495,181.75213079940295 212.90132110216655,181.43520201568026 212.690994232893,179.6008630952565 212.66993533156347,178.73614900105167 212.6731975681614,178.70710689382395 212.83823177963495,177.2018934939988 213.30024601600599,175.62079075351357 213.6359650986269,173.6167710874579 213.82532044814434,171.99326560494956 213.7832317724824,170.3273294327082 213.36251977970824,167.79546372854384 213.27918711479288,165.17985494207824 213.2687304818537,164.61412419605767 213.23386532987934,162.72161007579416 213.0534228765173,162.1491649277159 212.84391156642232,161.86237944295863 212.31234178843442,161.4963749505696 210.92557090125047,160.610345322988 210.84060711832717,160.35706141212722 210.9457851165207,159.8292417980265 211.6181262221653,158.5213979408145 213.02592688368168,155.6524002220831 213.34149000549223,154.49188808642793 213.76138643920422,153.6270442181849 214.7484751075972,152.82583159260685 215.48393466311973,152.15176482737297 215.58911266131327,151.64517905836692 215.6522311111912,150.5694139500265 215.63926954672206,149.866375691141 215.3164537741104,148.73484137369087 215.06403822940774,147.89006395899924 214.73959133855533,145.9561200204189 214.73796022043098,145.94716114655603 214.3706382222008,144.03662351705134 214.3706382222008,142.6015409657266 214.53890554315876,142.13727963599376 214.97828801430296,141.29247921926435 215.43715652264655,140.80696271464694 215.53412067564204,140.70435529574752 215.71532043383922,140.30260304146213 216.0939728784142,139.45892113959417 216.0939728784142,139.10067684517708 215.58911266131327,136.80178605671972 214.89492622215766,132.89798884221818 214.74768867564853,132.35673061164562 214.80955465964507,131.13580156012904 214.81077799829654,131.11125354719115 215.73559290310368,128.28435844409978 215.777623324655,127.3982073640218 215.69350422755815,126.02771224896424 215.7566226774361,125.56341916130623 216.6814084551297,123.77104503544979 217.1700739983935,121.92730978078907 217.22751266136765,121.36593784322031 217.15792799298652,120.24539988831384 217.1223346630577,119.67731421458302 217.0802751147421,118.84806504333392 217.01715666486416,117.61035344447009 216.34478643210605,112.42720421619015 216.4289637830807,112.08900992030976 217.20406533696223,111.79545512073673 217.37396377592813,111.73076533467975 218.0414697814267,111.51978008018341 218.58757398766465,111.11910447309492 219.59572155738715,109.9583388378378 221.31905621348415,107.78525843354873 222.51653000549413,106.79412028682418 224.40816110942978,105.10539509047521 225.0594724410912,104.87326879054308 225.2243027627701,104.8457848932594 225.6897539983038,104.76831564580789 226.4187182080932,104.82971243734937 227.1817028837977,104.89335935667623 228.96655399841256,104.99939733732026 231.97151067026425,105.27282965765335 232.4545546809677,105.37886747211451 232.64143422583584,105.33868641871959 233.33480510581285,105.19102098984877 234.13498510222416,105.02061296417378 235.52175598940812,104.47145711723715 236.82035911118146,103.88099365407834 237.9546853263164,103.08520172862336 239.6351740019163,100.95445145806298 241.39331555564422,98.68750514480053 241.48474555741996,98.57033393788151 241.71534489595797,98.42186073953053 241.90464199124835,98.48550934251398 242.0308497636579,98.97103029978462 242.05190866498742,99.96216027048649 242.00821799843106,100.54371291399002 241.988819342223,100.80710481136339 242.07293843931984,101.60848947294289 242.1336102115456,101.77705154311843 242.26543951651547,102.14583842357388 242.36747178668156,102.43108733720146 242.78736822050996,102.98024780926062 243.29144200542942,104.6611524912878 243.84162400721107,105.50495557463728 244.4063695645891,106.36997122794855 244.6369397760136,107.06646570068551 244.67899932456203,107.82656413922086 244.51070287660696,108.86342344369041 244.36428088881075,109.76748238201253 244.51070287660696,111.1804996553692 244.72108800022397,113.28994508861797 245.12079934577923,114.30227147502592 247.13863822224084,118.00989330577431 248.6459662222769,119.99315860279603 249.93242333864328,121.59475371637382 251.1889377849875,123.09472781838849 252.071634887252,124.35921006265562 254.4034348941641,126.15270481049083 256.5256653368706,128.21959270589286 257.3881482240977,129.1905144804623 257.60741711664014,129.5027305332478 257.89222200901713,129.90815680043306 258.0815191040747,129.9293702460127 258.8849613368511,129.16375652950956 259.3000226703007,128.76865454990184 261.7377871077042,126.13149103400065 262.9562906739302,125.28775978600606 263.8179288748652,125.07682651502546 264.7370931202313,124.90719585394254 265.38837532454636,124.65495942172129 265.893264668528,124.06346034270246 266.3762795521179,123.45183061552234 267.30027889774647,120.43624809005996 268.0777980018174,119.08576280408306 268.6506117688259,118.41280753497267 269.5066575645469,117.61481331585674 270.49453266500495,117.10924016893841 271.5633228800725,116.8447007992072 272.7421844480559,116.91947418311611 273.36518422770314,117.10140524350572 274.4647035449743,117.76210956159048 275.43157799821347,117.93066039297264 276.1322597832186,118.05007225787267 276.6274206720991,118.21524785953807 277.0926388906082,118.6081170332036 277.42760066862684,119.08471815584926 278.2472084481269,121.44741962233093 279.9228037688881,124.0411214006017 281.4147526542656,125.72971461567795 281.8800000001211,126.12056272418704 282.1599406650057,126.35584269621177 283.4738937742077,127.45959842123557 284.1672937814146,127.9026742541464 284.67946490319446,128.03658520727186 285.868783104117,128.34574927669019 287.21352356974967,128.59794168936787 288.20058311114553,128.3234107294702 289.12536888883915,127.41604612837546 291.70958444080316,124.73644009476993 291.49681089422666,123.34138112305664 291.3843511182349,121.05788986379048 291.3527773297392,120.41278381389566 291.157014016062,119.4239875121275 291.02754400705453,118.76770739717176 290.93124977778643,118.28114128136076 290.9101908765733,117.52887037501205 290.97333845333196,116.79001697181957 291.078487324412,115.52437020034995 291.37302067212295,114.80668527446687 292.04536177788395,114.02655910758767 293.200746894232,113.45624896761728 294.0624142222805,112.88702234002994 294.419250460458,112.29657938721357 294.71293912187684,111.36802005307982 294.6708504462149,110.60789254528936 294.5955859911628,110.3143761313404 294.4604944498278,109.78532244439702 295.4273689031834,107.80309864180163 296.51960644265637,105.6924803655711 297.4702862222912,104.2403749221121 297.52854044444393,104.15221726766322 297.7130315663526,103.37872690119548 297.7744897706434,100.12959839223186 297.7744897706434,98.96878010127693 297.9851079111686,97.65281231561676 298.04796421702486,97.2599493409507 298.30040888884105,96.3949011588702 298.90966067207046,94.93823951273225 299.624090453377,91.18337054405129 300.02697665430605,88.6886112007196 299.99627667921595,88.371641032747 298.7405486650532,87.42731822124915 296.34970800369047,85.66142468509497 294.7743973261677,84.01611227169633 294.3536853333935,83.42447377729695 293.97179977968335,82.6264044844429 293.6813442277489,81.12617979879724 293.35608177783433,78.860173117253 293.008973994758,75.53367918467848 292.74036377610173,73.77778570191003 292.5599504497368,73.24977743480122 292.06397400191054,72.52304585417733 291.68937022588216,72.19821815472096 290.4878768924391,71.15445053507574 290.0372222295264,70.67220932734199 289.43688334233593,69.65415479801595 288.386676224065,67.77540637372294 288.3656464497326,67.54324430011911 288.386676224065,67.28978269966319 288.70221021876205,67.07883911061799 290.48709046049044,65.55954955681227 291.45390665961895,64.75796525279293 291.936513763736,64.16523483413039 292.02109889429994,64.0613893122063 293.68052866857033,62.520861484401394 295.21453710237984,61.29737005959032 297.1846948978491,60.38979456393281 297.9330868907273,60.226789898995776 299.2219615573995,59.94659523363225 300.7770288924221,59.84053752972977 301.91135510755703,60.09396673680749 303.04649688175414,60.70567607256817 303.50848199112806,60.874266607279424 303.7399260160746,60.874266607279424 304.180852224119,60.70567607256817 306.1525828834856,59.95081503514666 306.21893444261514,59.92537565890234 306.3872308906866,60.05152761109639 308.172868437483,61.4435752791469 309.5806690987665,62.393585549201816 309.7489655467216,62.68828529998427 309.81211312348023,63.363726291805506 309.9383208961226,63.74326165422099 310.47618212981615,64.16523483413039 310.87606823828537,64.47890108817955 311.06778288353235,64.62964560987893 312.11880556086544,65.53720521938521 313.23210200178437,66.52959724445827 313.9885913316393,67.2876125818002 314.1779175538104,67.70957958709914 314.45057644089684,68.25877859059256 314.5978431147523,69.03905215888517 314.70302111294586,69.3985654945136 314.95543665788136,69.54589105991181 316.9093997796299,70.03147002402693 317.2241473423783,70.22127274272498 317.3714140160009,70.70681016601156 317.5396813369589,71.67687742679846 317.54128332808614,74.04787762049818 317.62382956082,76.65108854538994 317.68691888358444,77.1567059471854 317.9167026632931,77.5608133264468 320.90141599299386,80.743296120374 321.32297267206013,81.53249073133338 322.11991955921985,83.02262652647914 322.98161601426546,84.90129688265733 324.55768399639055,88.77568951976718 325.31420245335903,90.27369692054344 326.3012619947549,91.89887519151671 326.532647765358,92.44693440955598 326.67991443909705,92.95368415303528 326.6249224534258,93.50845154892886 326.5116471181391,94.64024381915806 326.40643999294844,96.20182397594908 326.4906173441559,97.57357274479 326.51619094761554,97.65281231561676 326.722003114759,98.29130872327369 327.31019599642605,99.8527849818347 330.0578728960827,104.36091860913439 330.4251948943129,105.37541190185584 330.4777693297947,105.52062617568299 330.64606577786617,106.7450193252298 330.6039771022042,108.36900222854456 330.81433309882414,109.21279239776777 331.04493243736215,109.55095052852994 334.7853486649692,111.59680518868845 336.80240110936575,113.03102671809029 339.7506181690842,115.58841610368108 344.88115490146447,120.04004705540137 347.8278282241663,122.62371935247211 350.93796289432794,125.38599436095683 352.5132444445044,126.98972340958426 352.5205262223026,127.00085256749298 353.92025867372286,128.9729152022628 354.6977777777938,130.4026947702514 355.0964988018386,131.13580156012904 356.2107564373873,133.18480860965792 359.7618464427069,140.56707662541885 363.26601267198566,146.87450326647377 363.9173240036471,147.98599945363821 364.22880932991393,148.43353723129258 364.50551688543055,148.82965166628128 367.8462217672495,152.16184832388535 368.35513065266423,152.64280250435695 369.61085866659414,153.8279093829915 370.6553859983105,154.68716850486817 375.30439332989044,158.5102702305885 377.19118933344726,160.4864551765495 378.53587154485285,161.9427227982669 378.97036066139117,162.3625163967954 380.7835524552502,164.11423291714163 381.35732741688844,164.61412419605767 382.84184888901655,165.90743343584472 384.4389757725876,168.64904944680165 387.1122037760215,173.46388502471382 390.149520668434,178.93474389857147 391.57838023104705,181.5077863757033 392.56543977267575,183.65899698471185 393.04927021521144,185.13629381050123 394.41340933705214,187.32543046807405 394.72975889081135,187.83423119643703 394.8980553387664,188.14886207471136 396.3900042241439,190.93485187680926 396.91507865604945,191.79289493808756 398.2598191219149,193.71197304467205 400.1296048926888,196.64297824329697 401.0777797404444,198.08782239200082 402.44116155744996,200.16530295665143 403.2429726719856,201.4599487662199 403.30282888549846,201.55658602865878 404.77939865598455,203.66524487815332 405.48817777785007,204.67823806614615 409.13797956274357,209.24695704312762 410.02067666489165,210.30233972740825 411.89046243566554,212.0941141229123 412.5838624427561,213.2119783166563 412.7310999893816,214.56189899187302 413.02563333697617,215.42540088109672 413.59279644454364,216.16395361424657 415.10257112188265,217.65667551831575 416.5443339947378,218.68189988762606 419.7701615502592,220.67659085511696 422.47493421519175,222.75725139235146 426.5333311147988,225.36882517975755 427.5155555556994,225.99622200155864 428.64825065259356,226.7198428204283 430.0504006543197,227.61338183120824 433.849100231193,229.904784899496 436.37439163727686,231.5569382935064 439.9091704604216,233.8694281146163 443.3550242133206,235.80941745068412 446.9473873351235,237.7281069328892 448.03965400194284,238.1274488127092 451.78813843929674,239.18889022665098 451.9637166649336,239.23852658469696 454.2542435557116,239.95580295176478 458.0804099984234,240.97205796820344 458.9388733439846,241.19959634455154 461.46075687825214,241.60118137986865 464.21329800540116,242.16898132598726 469.7547308942303,243.66604081023252 473.3891244373517,244.44687419768889 476.0607504497748,245.0457898527966 476.7727335538948,245.20541745144874 480.8480824321741,246.30080128414556 483.32231401244644,247.03930011071498 485.1500111076748,247.545686532103 486.8313153423369,248.22057229460916 488.7641904356424,249.56921378296101 489.22538911306765,249.8090321662603 490.6510155663127,250.38014592061518 492.1105751041323,251.3985257075401 493.12597532442305,252.09910105372546 493.66485600708984,252.41585714305984 494.3023319608765,252.5788128908025 494.70047044265084,252.68024857208366 495.23530245688744,252.67129364225548 496.0443662223406,252.41585714305984 496.6220733440714,252.12584543519188 497.8494315519929,251.26359866309213 498.2094717724249,250.9479253050522 499.21598822413944,250.34669512399705 499.882678670343,250.1235826095217 500.33333333337214,250.15056815132266 500.42150109878276,250.1559090394294 501.38354045152664,250.6311271407758 501.9466548906639,250.81183345831232 503.02354244259186,251.1743700822699 504.13281934231054,251.6673756513046 504.6490100052906,251.8971929248073 505.1668026596308,252.32550459890626 505.34645868092775,252.43930864240974 506.02203289605677,252.84529228578322 507.84571044973563,254.02103475073818 508.3416577706812,254.63113036449067 508.7801955556497,255.2413047554437 508.8845871218946,255.33948667091317 509.0755153351929,255.4298380917753 510.89435778860934,255.9741946507711 512.5820991147775,256.2909456769703 514.784429112915,256.3188139651902 517.9884113351582,256.0600483547314 519.5046522313496,255.916128938552 521.4472266525263,255.65736289857887 521.8671813405817,255.53577007027343 522.8437551219249,255.24018038145732 523.5072707129875,255.1005571957794 524.6059162169695,254.8692973331781 526.172343125334,254.53969442518428 526.2855893333908,254.4259315241361 526.3300955592422,254.3132527914713 526.2402966755908,253.83920644485625 525.5646933334647,252.12134788173717 524.8438264605356,250.5630610594526 524.6059162169695,250.19763221411267 524.2766050988575,249.6918536890298 524.017723335186,248.99693355790805 524.1237168925581,248.61993704759516 524.6059162169695,248.15061813953798 524.8664582259953,247.89710443338845 525.2264984461945,247.6260014899308 527.6804284303216,245.7732089558267 528.6036413441179,245.2756535615772 528.972565333359,245.1318080588244 529.0154404408531,244.82725046447013 528.9507491270779,244.4579979631817 528.4911524408963,243.40051512105856 528.4684915485559,243.1071193375392 528.6489340018015,242.47466669318965 528.8285608961014,242.04517302050954 529.2970122242114,241.6346735417028 529.9248471042374,240.63520761136897 530.4726115557132,240.30498296942096 530.8544971094234,240.1688851477229 531.3496579981875,240.10194057307672 531.7776517689927,240.10194057307672 532.424943559221,239.93797246942995 534.096519338782,239.51405637798598 534.412053333479,239.2876408675802 534.8627079963917,238.81352497905027 534.8845533299027,238.74549573857803 535.3772966684774,238.2033493971103 537.2713744498324,236.41851475648582 538.5578024390852,235.3141306975158 539.1638211129466,234.86229560902575 540.0950731093762,234.58005386957666 541.1889708943199,234.61021375254495 543.6882226631278,235.15236812998774 544.5434528996702,235.15236812998774 545.0167393280426,234.9716501389048 547.4019584569614,233.0517742021475 548.2369162242394,232.49511737469584 548.6649099946953,232.3735129281995 548.878528227564,232.31339340220438 549.0807868872071,232.25636618293356 549.5136448853882,232.2998996389797 550.7038077726029,232.64680156717077 551.635088896146,233.00599192705704 551.9053302329266,233.07406293810345 555.4669059981825,234.4952768686926 555.7897217707941,234.62358690839028 556.1578884552,234.64587549993303 556.4612764444901,234.29781180160353 557.6692359964363,232.55423285625875 558.3830249813618,231.5569382935064 558.817339335219,230.95007774495753 559.8108942222316,229.52884302882012 560.1668857743498,229.02012981817825 561.2712984463433,227.7182416249998 564.0626660125563,224.23760316043627 566.3596591218375,221.7297550397343 570.2764400071464,217.7983283934882 570.7165506560123,217.32304592203582 570.9423148944043,217.0787775189965 571.2457320108078,216.94933364033932 572.1980137815699,216.94933364033932 573.1511111110449,217.10821665392723 573.4569749049842,217.1591828968376 574.3064962275093,217.3019204500597 574.6220593494363,217.39224588684738 576.648781994707,217.8429889935651 577.6617646650411,217.8652389656636 578.5881815609755,217.73029325483367 579.5533957690932,217.7749137051287 579.7548679964384,217.79724400833948 581.0607237690128,217.97797480411828 581.8042806613958,218.02371975511778 584.1004873387283,218.02371975511778 584.4831884517334,218.13637519511394 584.9565040072193,218.40743079653475 585.2267453441164,218.61161590943811 586.637749987538,220.2058523352025 586.6490804337664,220.21697721310193 588.198497109348,221.66168084269157 590.0221746630268,223.5136134782224 591.9186699946877,225.26171534368768 592.5894091093214,225.9344542901963 593.3094895501854,226.33831363136414 594.4131157902302,226.7454654960311 595.1550415644888,226.92618962010602 596.468179114745,227.19506670651026 597.4236939947587,227.4299674446811 597.9471955627669,227.55872299300972 598.8703502221033,227.82980821904493 601.8202857814031,228.82378478738246 602.180326001835,228.9364352078992 603.1932795448229,229.11715769849252 604.1164924587356,229.16181621316355 606.1877213297412,229.27559097093763 606.7282040036516,229.18522980157286 607.3358246684074,229.00450736185303 607.853617322864,228.77804187434958 609.9928579983534,227.69370339310262 611.0058406684548,226.99313783366233 611.6814440108137,226.58482171723153 612.0495524409926,226.433093570231 612.3092788908398,226.433093570231 613.0997595591471,227.08345965930494 614.0010688854381,228.055150092463 615.2527482311707,229.03908559912816 617.107154887286,230.4959855445195 617.2649364481913,230.6767068723566 618.2051595946541,231.5569382935064 620.3645271039568,233.5783099036198 621.6963060054695,234.61186029721284 623.524003100465,236.03029421367683 624.0871466667159,236.35377790982602 624.7150106738554,236.74420669459505 625.348525340436,237.40908273798414 627.5993811058579,240.30052535544382 627.8696224428713,240.6842412938713 628.2531391147058,241.34015118243406 630.0088631183608,244.05083568941336 631.0776533334283,245.49656185728963 632.5534075449686,247.10170496546198 632.7112182329874,247.39513607200934 632.846309774206,247.531189679401 633.6529851165833,248.68792335968465 633.9345568997087,248.70912641123869 635.9977175610838,247.62045975861838 636.6959526684368,247.16864760708995 639.1725726720178,245.4753183670109 639.4330855539301,245.20762613439 639.4662613334367,245.17413446621504 640.0641826703213,244.56176620529732 641.9460853192722,243.17185438075103 643.6298071040073,241.7015775347245 645.9688888889505,239.82789732224774 646.9454626702936,239.04556317755487 647.2690940019675,238.48558691790095 647.4114964480978,235.7357650452177 647.4567891057814,235.3743297981564 647.5021108906949,234.3123094457551 647.5395683557726,231.5569382935064 647.5466171165463,231.03598047205014 647.8394902186701,230.74144523526775 648.1768695467617,230.4703632653691 650.4965526756132,229.06924617127515 651.891391772544,228.27828291914193 653.868802218698,227.1704882606282 654.6835748977028,226.968559367524 655.1568904534215,226.90056696359534 655.6925088994903,226.95185243483866 656.9910537670366,227.3433807056863 657.903722666786,227.8264347158838 658.2411019947613,228.03061189479195 659.5243260019924,228.68547168606892 661.5729231076548,229.81550829618936 661.7784440037794,229.91928280639695 662.2485264498973,230.15462266886607 662.6538884552428,230.28964178368915 663.2388482276583,230.28964178368915 663.5770431148121,230.19928099232493 664.2405004516477,229.5589232192142 665.1280617814045,228.92868421808816 666.0083413333632,228.54932717990596 669.5651111253537,230.5607239556266 670.2414717724314,231.05682362557855 670.9234539520694,231.5569382935064 671.0999059912283,231.68633421167033 671.7496444586432,232.07677051407518 672.9430113281123,232.57093940279447 674.0911437938921,232.93237882986432 675.413980672136,233.26819573447574 676.4002537813503,233.37526187300682 677.2886306704022,233.29381771787303 677.8282686577877,233.0684807143407 679.3048966827337,232.17046388832387 680.6930947982473,231.5569382935064 681.1601188977947,231.35055527556688 682.9166584605118,230.53727033996256 683.1415488852654,230.4469498010003 684.6626540089492,229.62924418377224 684.9425946739502,229.33916505350498 685.0776862151688,229.1138243736932 685.1221924410202,228.70667648717063 685.1157262222841,226.92064741568174 685.3018193350872,226.11738787585637 685.7532604304142,225.56629752065055 688.5494630970061,223.77016479277518 689.130432455102,223.3964624509099 692.5520524515305,221.1362839495414 693.362747335108,220.549438129412 694.5140837831423,219.47478207480162 695.614447786822,218.44759310613154 697.2123902294552,217.31862804788398 698.9907459983369,215.8727739758324 700.2294637796003,214.6288506204146 701.9617113316199,212.79472274507862 703.44800955744,211.57869718858274 705.0435344497673,210.03906681988155 705.5499966578791,209.583891185408 706.5896888888674,209.02159768366255 707.17627977964,208.8887757352786 708.1358433279675,208.94126993406098 709.0695420019329,209.18225310294656 710.5186157796998,209.7935861639562 711.6545731130755,210.51878157252213 713.2193397760857,211.73597718577366 714.8528755486477,212.90071351989172 715.4734577778727,213.14506645989604 716.2129660019418,213.43620921229012 716.7550506668631,213.61136058776174 717.2947177814785,213.79209450469352 718.1054126650561,214.2216382396873 718.5107746704016,214.3566260667867 718.7866666666232,214.37044213304762 719.358694001683,214.39899801154388 720.0779588836012,214.7203016153071 720.7624751218827,215.30603698920459 722.0505342294928,216.5388318229816 723.2229004516266,217.39449498592876 724.2067268835381,217.97126768581802 725.8726520035416,218.58149419835536 726.7861073352396,218.94632811233168 728.0385731129209,219.64245893480256 728.7327595520765,220.18689586332766 729.4301791006001,220.7960324261221 731.4796208925545,223.0774193938123 732.2215466668131,223.9587226069416 734.5411715415539,226.69305547483964 734.8785799964098,227.05558801011648 737.986297116382,230.1278758632252 739.3749321388314,231.5569382935064 739.3868159999838,231.56918713415507 741.2735828764271,233.22357813618146 741.488803100423,233.4187951280037 743.059249550337,234.84715544432402 744.3796980053885,236.0481249836157 745.5730940017384,236.88363965699682 746.6977208890021,237.70577846560627 747.8919324445305,238.7811970366165 748.7705808782484,239.77508854161715 749.4000468763988,240.49569648952456 751.6072411022615,242.32853050215635 752.3863913244568,243.1662322313059 753.8815733190859,244.43016846955288 755.0749984426657,245.03920395718887 757.6187855644384,246.86971463565715 758.2943597796839,247.45645658276044 760.6293637689669,249.4275393151329 761.2434797796886,249.8748095044284 761.5590137743857,250.07784371543676 762.617289102287,250.48499586671824 763.4021191110369,250.89881338452687 764.4863175681094,251.70307504641823 765.0712773406412,252.24631558574038 765.6149639964569,252.85087405424565 765.8811566649238,253.3327528561931 766.2646442098776,254.279802537465 766.3099951217882,254.52857112232596 766.46774755558,254.8899778125342 766.7274740054272,255.22905711078783 766.80189377442,255.35177446622401 767.3318615609314,255.65539524750784 767.362590663135,255.6730237932643 767.7339613299118,255.85147761041299 769.5956788908225,257.30713221780024 771.870855793939,261.46322899492225 773.4736333370674,264.1658984904061 773.9396671146387,264.8418221618631 774.118624085444,265.0213935588836 777.5983526685741,268.5125691727735 782.9941500017885,273.46154087776085 783.4019295573235,274.08945569733623 783.4019295573235,274.5579213347519 783.2473811059026,274.92154673382174 783.0402873458806,275.3364468240761 780.9293873494025,277.82478849124163 778.3192195413867,281.2321834944887 777.4090264462866,282.4210785210598 776.628274232964,283.13156197575154 774.6273873352911,283.7561191790155 773.8878791111056,284.0595036339946 772.4630973441526,284.64507149806013 767.3318615609314,286.47548392188037 765.9256628907751,286.97713047015714 764.0639453298645,287.5648995851516 763.7532464355463,287.92850547784474 763.597911551944,288.65679969568737 763.856822442729,289.64386192173697 765.3560822330182,293.5405985193793 767.3318615609314,298.06994312105235 767.3731055503013,298.1644942755229 767.5049057280412,298.4812303369981 768.5624820054509,301.02289276884403 769.2866111146286,303.2054025710095 769.3383699910482,304.03626954730134 769.2291433245409,304.76672352669993 769.1830351074459,305.0745381177985 768.1498382223072,308.8673663644586 767.9944742117077,309.33576481434284 767.9427153352881,310.01043845753884 768.0462913424708,311.04980556393275 768.5648995555239,312.4605258019292 769.5770666667959,315.0020015670452 771.3044791182037,319.1024713285733 772.990589326364,322.06652594154 773.6880088746548,323.1013852839242 773.9792799858842,323.821785768494 774.3806224499131,324.99268791405484 774.6128237796947,326.39991476747673 774.5513364480576,327.02215259935474 774.3086202312261,328.02359085698845 774.2317246578168,328.6636484830524 774.2843282205286,329.1219727033749 774.4178177708527,329.5367800645763 774.6492035414558,329.83007128274767 775.3175542330137,330.3262890278129 778.1333885724889,331.9364907538984 778.26990734227,332.01452972728293 780.5410064498428,333.5990687176818 781.3112437759992,334.2447316669859 781.4843753245659,334.42537568102125 781.8856886613648,334.8457538525108 782.6607902152464,335.78128535539145 783.3331313210074,337.0803454494453 784.0208806685405,338.5042816985515 786.0217384392163,341.7546722845873 787.361585550243,343.56554629158927 788.5889728853945,344.92032104940154 789.5121566719608,345.99410011078 790.1804782364052,347.08124137320556 791.6044444445288,349.74935912777437 791.6068619947182,349.7539752924931 792.5890864356188,351.9884696744266 793.4167915519793,353.96199434326263 793.6700517832069,354.8974922506022 794.102909781388,356.4517771571409 794.9297993386863,358.84114664886147 795.8092633316992,360.5548776881187 797.8263157760957,364.19078120210906 798.3053111182526,364.9355037205387 798.5953588907141,365.38709649798693 799.4291224463377,366.6848741726135 799.7915802169591,367.04836145730224 800.1014635519823,367.3594284338178 801.7042702223407,369.22919345163973 802.8426742329029,370.68300365959294 805.7383751111338,374.9954958905 807.6445697708987,377.8106054686359 810.5467659947462,382.31802800495643 811.4780471182894,383.5644627503352 812.0468413440976,384.03271696157753 813.9465697848937,385.1988333812915 815.8770273281261,387.1118060288136 816.8042597831227,388.0305605236208 816.8560186595423,388.49876597960247 816.9611966577359,389.7708145562792 817.1715817814693,390.3003813220421 817.6141682347516,390.893438539817 818.9952593351481,391.76967722334666 821.0446720001055,393.06960135907866 823.3198197761085,394.6893797593657 825.6467555556446,396.97362617606996 826.7333715627901,398.38051573751727 827.0729062969331,398.8330896986881 827.3531091058394,399.20656190859154 827.7665684481617,399.36263668182073 828.9049433316104,399.4384065535269 833.8727468942525,399.671454945812 834.4617553352145,399.84085333545227 836.1956340054749,400.97125647595385 837.982087111217,402.10498529695906 839.1625506703276,402.74043296760647 840.1496393386042,402.93226287083235 843.694233998307,403.6210834735539 844.1594522168161,403.6723315840936 844.3140006684698,403.6723315840936 847.6199277795386,401.64346800919157 848.9678431004286,400.8162663048133 851.3465668837307,399.3091402485734 852.1111535503296,398.8330896986881 853.2875684408937,398.1006715418189 853.8388864001026,398.8330896986881 862.5297464320902,410.378717612999 864.4222222222015,410.0038179004914 865.9675902294694,409.6976212807349 866.2855709013529,409.73550460557453 866.6075419876724,409.7722642669687 867.4741026703268,409.96180116559844 870.2249835521216,411.47447929356713 871.3552610987099,412.00512233091285 874.3327217778424,413.40518287866144 875.1612133262679,413.89681538561126 879.5836991148535,417.0592354281107 882.4705162240425,420.1770711627905 885.8994179982692,423.3561027534306 886.3516746524256,423.73399145761505 888.6948051059153,424.6747580191004 889.9302897778107,425.1708219071734 892.9077504569432,428.9929918528069 892.9295666632243,429.00077657820657 898.1166099912953,430.7752862313646 900.4532450987026,431.4931600189884 900.980853589368,432.2745124619687 903.3918793387711,435.84465760202147 904.333646222367,437.0929841816542 905.162137770676,437.84984174050624 907.8377833244158,439.8160071670427 908.1395984498085,440.1191964831669 908.7043440070702,441.32962268491974 909.1566297885729,441.9348335216637 911.7189708799124,444.77259937202325 912.9674171165098,446.001299196796 913.6033784605097,446.627242767252 916.2781793279573,451.73415972909424 916.3469484373927,451.8400060044951 916.768505116459,452.490931496548 918.6512233244721,454.7267266907147 919.1787735607941,455.44557281938614 919.9700406615157,456.731754796172 921.51581644814,459.50944485876244 921.5906439963728,459.6439351263107 922.0429297778755,460.43859775707824 922.7209506704239,461.1953423782252 923.5502577779116,462.70886466285447 924.2663186774589,463.6160186051857 926.0746171164792,465.6220966615947 928.8724217743147,465.27994116127957 928.959977870225,465.7112865069648 930.0779637760716,471.2200901338365 930.1912391111255,471.6358180854004 930.5302495574579,472.1662894480978 933.9971913387999,473.6785798264318 934.8960831147851,477.5668648512801 935.0902735644486,478.40712453925516 935.3159795484971,478.9364978822996 936.2205511111533,480.2225553593016 936.7100322134793,481.36145033250796 937.2399999999907,483.80711976008024 937.2755933298031,483.97140450699953 937.953643349465,487.98096092866035 938.2173602133989,488.6239665550529 938.5944397938438,489.380623289966 939.2635186631233,490.3957936828374 940.2902493298752,491.9525806233287 940.7797595591983,492.93656944442773 940.9682702224236,494.1088620731607 941.1567808854161,494.56354416609975 941.5330157796852,495.01593876455445 943.9449153423775,496.4534303433029 944.2466722134268,496.8691150714876 945.4734187520808,499.14345394290285 946.2054704355542,500.5007299450226 946.8462668800494,501.33308771334123 947.5623277797131,501.9381890385994 949.8973317689961,503.26199335977435 951.0656784498133,503.753363617172 953.2890382222831,504.35958212800324 953.7032839964377,504.47214476857334 955.959033116349,505.8204052677611 957.3967473208904,507.62443910952425 959.1346746596973,509.8497380205663 961.4106671217596,512.1339836856932 961.512582883588,512.4147794704768 961.650936661521,512.7958589444752 962.2496735573513,515.6817744351574 962.5490420053247,516.644487415615 963.208421546733,517.4868581411429 966.14379355032,519.7755245284061 967.3461024427088,521.0880803674809 969.3647860053461,523.5672440058552 973.758115555509,525.9984090748476 975.4919942258857,526.260256254056 976.7557904499117,526.8050884117256 977.047847992857,526.9310378051014 977.6765275591752,527.1660896831308 978.8877202204894,528.3571895144414 980.803643335239,531.7855348944431 981.373253119993,532.5008236597059 981.5021405866137,532.571056856541 982.0644977209158,532.8772188079311 985.7851948944153,534.9027794373105 986.2746759965084,535.1692697597318 990.3977642098907,540.0091628239024 991.2999182222411,540.8670548559749 995.717539783218,544.2283628622536 998.0598255501827,546.1335045410669 998.8907637760276,547.3022113181651 999.5315602205228,548.3695602838416 1000.5388922310667,550.1855106870062 1000.5769322382985,550.2534927527886 1001.1319202133454,550.8618010445498 1008.6985028836643,556.0678742443561 1010.0577777778963,556.933249513153 1012.5149699982721,558.4976309755002 1015.0304164410336,560.0005201774766 1015.1509735537693,560.7825819691643 1015.0910882133758,561.6236765880021 1014.1040286719799,565.4180711746449 1013.9551308801165,565.9940169967595 1011.7544320001034,574.5094417283544 1011.1322477796348,576.4878948411788 1010.8887160036247,577.2632063324563 1013.6363637760514,577.2943663194892 1016.2997759431601,580.5602877468918 1018.133269333397,582.8084580592113 1019.9755882383324,584.4381589868572 1020.5063133297954,584.7522758763516 1021.0686122099869,584.8458732470172 1025.0655217778403,584.7835151056643 1026.251665123622,584.8146741274395 1027.4701104356209,585.0965087018558 1031.8415946525056,586.5067594054271 1033.8084902116098,587.0391853639157 1034.3303606612608,587.1728831654764 1036.475281123654,587.7220298720058 1036.8693126827711,587.8234057310037 1037.1815844409866,587.9481605375186 1038.7487686543027,589.5900978461723 1040.6371957759839,592.1932745600934 1040.874261333258,592.509667141072 1041.13072554674,592.9073026570841 1041.3281782330014,593.2047268602764 1043.0054046721198,594.8309896058054 1041.772366677411,595.1529125485686 1040.8621444551973,595.4591960882535 1038.9955917937914,596.8527051261044 1034.3303606612608,598.6802425539354 1033.2065493334085,599.1205737612327 1032.5723938704468,599.4123764537508 1030.6458102329634,600.2990101868636 1028.6934491022257,601.4763582215528 1027.651339321048,602.3050817431067 1025.1787971128942,604.9215551016969 1024.2240686648292,605.6187846969697 1021.9238424464129,607.1024158897926 1021.7814691272797,607.2311705910834 1021.4901980160503,607.494493991835 1018.5823220054153,611.7236684723757 1016.9625342292711,614.4257272416144 1016.1955008854857,615.704411100247 1015.7618564553559,616.3147607391584 1014.8888295538491,617.2391837098985 1012.4203068872448,618.8441548640258 1011.9825846614549,619.2696540816687 1011.9405251129065,619.6115525075002 1012.7819782259176,622.269017492712 1012.9413617778337,623.1600183594273 1012.9850815717364,624.1201000098954 1012.8547668765532,625.0790151082911 1011.5748051058035,628.658634655003 1011.4736757760402,629.3669423266547 1011.6403411057545,630.7913698233315 1011.5537753315875,631.7937204156187 1011.2493678934406,632.8261772941332 1011.2066966756247,632.9709157624166 1010.815869098762,633.6246835145284 1010.0577777778963,634.6203268021927 1009.6872226701817,635.1070610923343 1009.2098293192685,635.8487877473235 1008.5156720072264,637.2007691914914 1007.9517128819134,638.1162521303631 1007.3441213440383,638.988271077571 1004.8294904604554,641.203385589004 1002.7525526755489,643.6378633407876 1001.9442753422773,644.5833507970674 1000.7371022221632,645.7794074023259 1000.1675215645228,646.4532265280723 998.8656853334978,648.0590870868764 997.5856944356347,649.2829898592317 996.1447179947281,650.4790233203676 995.7426182258641,650.8832991787931 995.1560273353243,651.8098356493283 994.5791648997692,652.6405924006831 993.7975680000382,653.5103141395957 993.0143691092962,654.1450639156974 992.5402671218617,654.3522101551061 991.7893993245671,654.4179581020726 991.3808333370835,654.4524356768234 990.3645884302678,655.023720361176 990.1291539911181,655.2921234731912 989.9859651129227,655.5805712967413 989.8403004301945,656.090555832081 989.7133062258363,656.5371171521838 989.4754251092672,658.7932836071705 989.4414628979284,659.3400634627906 989.6526344534941,660.7609877756913 989.264253553818,661.0115849800059 988.3459631218575,661.4647920335992 988.1202280108118,661.7231256890809 987.9955931022996,662.0438374800724 987.8427048961166,662.7587426267564 987.4753537707729,665.9569682906731 987.4353039930575,666.2353412970551 987.3483304391848,666.8399917033385 987.214840888977,667.3199667184963 987.0732540017925,667.5582501286408 986.8345573263941,667.7297066033934 985.7851948944153,668.022829947935 985.494710215251,668.1038877907558 984.4744748943485,668.3098595761112 983.8012891022954,668.5392825949239 982.445276444545,669.0626693312661 980.0511735465843,669.7452832422568 979.608616220532,669.9501712694182 979.3027815538226,670.2240899759927 978.6554897637106,671.1461029629572 977.5673008925514,672.13822511537 976.5130451058503,672.7874377692351 974.3625322382431,673.5391112097423 972.8214167893166,674.0104542882182 972.0145375573775,674.2573097384884 970.6196693334496,674.9410314819543 968.1017762135016,676.5133115997887 967.5572739982745,676.7527084139874 966.8768646826502,676.8896439269884 965.2101240035845,676.8206550555187 964.32495109702,676.8206550555187 963.9333953424357,676.914176862163 963.6105504427105,676.9921049922123 962.4195719964337,677.5043294973439 961.512582883588,677.9810364477453 958.2188017779263,679.7124384847702 955.437978225993,681.0107413985534 954.3133513388457,681.2913419560646 953.7089346561115,681.5430002948269 953.3278646614635,681.6087007962051 953.0673517796677,681.5530217270134 950.7492997689405,680.034248931217 950.0009369032923,679.726909541525 948.8099293299019,679.5231120848912 946.5914337850409,679.0443236812716 943.2231746561592,678.1212182581075 942.2361151147634,677.9497691184515 941.2498420053162,677.9497691184515 937.2399999999907,678.3849859292968 936.5207351183053,678.4630739324493 935.6363777706865,678.6334002960357 933.9008971094154,679.1812579024117 933.2228762169834,679.4663502136827 929.5116162276827,681.0263347809087 927.0956679963274,681.7445512579288 926.4492208925076,681.9839429164422 925.9386808889685,682.3592245427426 924.4766455467325,683.8634719066322 922.8374591147294,685.0081463592942 922.0615128747886,685.3900774389622 921.0129368747585,685.4502050732262 920.5671755662188,685.3911998214899 919.3049813334364,685.0938884959323 918.8882888817461,685.1907742678886 917.0864566614619,686.0860338510829 915.5079128748039,686.759660998534 915.1907768888632,686.8297694233479 914.7126262331149,686.839830722136 914.592855552095,686.8420754740364 914.0588682241505,686.9745558830327 913.7708302222891,687.1081986791687 913.1737244444666,687.3843026996474 912.9674171165098,687.5641228902969 912.6640000001062,687.8286018322688 911.9835615573684,688.8195735665504 911.5992293262389,690.4029072813573 911.5337224534014,690.5264870457468 911.4350106738275,690.7102331636706 911.2359559965553,690.8750193216256 910.0733182295226,691.3704994803993 909.733492224128,691.4640156852547 908.7504230969353,691.5542048757779 907.7301877760328,691.8626115702209 907.1856855609221,691.8626115702209 905.450204899651,691.0765625418862 904.8466037760954,690.9551876870682 904.7697373297997,690.939554857905 903.6135657813866,691.0420099969488 901.9808164407732,691.588717263774 901.4023228870938,691.6232296469389 899.7008335645078,691.2123676248011 898.9524415715132,691.0765625418862 896.0599446757697,691.008619887929 895.4814219948603,691.0431323535158 894.8349748906912,691.3159450037638 894.290472675697,691.8637339228881 893.8826931200456,691.9661886721151 893.3721531165065,691.9996187335928 892.3170817706268,691.897163998452 891.2620395522099,691.5218971073045 890.8971351040527,691.1901209293865 890.5476097706705,690.8716522497707 890.3437199930195,690.8037496226025 889.5961435593199,690.8382220332278 888.6948051059153,691.0624930027407 887.4795637760544,691.3649277893128 885.574184675701,691.6388624320971 884.3492148906225,692.1510159685859 883.8386748870835,692.6297785388888 883.3287756801583,693.2220575195388 882.9551622258732,693.6552828653948 882.5805293226149,693.8946627861005 882.0303764480632,694.0895095300511 880.7431037724018,694.5438172949944 879.99471177964,694.9201216893271 879.3272057742579,695.3466099872603 878.2389877759852,696.2662829564069 877.4815081246197,696.8095313098165 875.0860071253264,698.527611867059 873.5346389333718,699.6399105329183 870.7751946810167,701.6184668377973 864.4222222222015,706.2033710397664 861.1130620019976,708.5915849366575 856.8359204977751,712.3508579588379 855.8345886720344,713.2309071059572 855.294921557419,713.7185660680989 854.7172144356882,714.4355636473629 853.3005300053628,716.6533168712049 850.8271431111498,718.0694972039782 849.3707875557011,719.2050727586029 848.3295224603498,720.3696203575819 847.4516313316999,721.4940431612195 846.6037120001856,722.8801360974903 844.2541444551898,727.0627750955755 842.1254477938637,730.6063050502562 840.1496393386042,730.6632152841776 836.5200808960944,730.7677377074724 828.0990835485281,731.4980708542862 826.959922232898,731.5448011999251 825.4703617707128,731.6071216724813 824.3101415538695,731.8754401805345 823.2987900018925,732.4131583960843 822.7574917689199,732.8762515750714 822.6211768889334,733.039927049249 822.0147795628291,733.767968970642 819.2832973370096,737.5819576260401 817.3503931164742,739.5546343731694 816.7856475592125,739.8829781161621 816.1602302293759,740.1512874850305 815.8770273281261,740.1420299151796 814.3454364446225,740.0922955177375 811.2522828801302,739.7338548869593 809.4254013440805,739.1193267521448 808.359815111151,738.519304694375 808.0267465956276,738.2542397094076 807.423698887229,737.774525053741 806.0166846578941,736.3584996525897 804.2917480107863,734.3857969554956 803.251240220503,733.0421713742544 803.2500460088486,733.039927049249 802.8345477690455,732.295130612154 802.200246670167,729.5665286812 801.8968295537634,728.2617521316279 801.4664182328852,726.8790564710507 800.7665228800615,725.7212732515181 800.1119784391485,724.7660819103476 799.3037011057604,723.7997048409306 798.5294151110575,723.0047814718564 798.1491315484745,722.5550558507675 797.6434557726607,721.3303999879281 797.3756611129502,720.1658569942228 797.2259768890217,716.6689480457571 796.8691697778413,715.2650240797084 795.9468015502207,712.7555519029847 795.352142449934,711.7702089482336 794.3407617708435,710.7837798126857 793.5883211093023,710.2961550405016 792.5567262151744,709.8274074703804 791.6044444445288,709.5223503145971 791.1795090205269,709.3863149806275 790.8293428907637,709.2740877767792 789.5218851271784,709.0202136180014 784.5548971235985,708.4234439672437 781.5993109049741,707.7443055754411 779.2294708908303,707.1987168661435 777.8621277867351,706.8102066158899 775.8984653371153,706.0029626564938 769.7858206719393,704.3607299730647 767.911986232968,703.5245385984308 767.3318615609314,703.3675770357368 767.1384575432166,703.3152698532213 766.3949589050608,703.225044946943 764.5801651199581,703.1660440127016 763.7767228871817,703.0157759436988 759.4044522382319,701.1352327428176 758.660895345849,700.9559837531415 758.0063509050524,701.164172303339 756.4585362204816,701.8644925862318 756.2222862223862,701.9713922594092 755.2101482382277,702.6283011423657 753.247272220673,704.1826056592981 751.6040079928935,705.9183501874795 751.4786157796625,706.0519424806698 750.1840613263194,707.1108181296731 748.8304662188748,708.2464449091931 747.5067846543388,709.1159274936654 743.059249550337,711.535856738803 742.405491541489,711.8915734037291 738.955589119927,713.8655008442583 736.0995011129417,715.4476292431937 733.4513515520375,716.7624545125873 732.5814412516775,717.4104256835417 732.5289833244169,717.4493832568987 730.8024155591847,719.0046751005575 729.9423502223799,719.6604157027323 728.841199786868,720.3484584740945 726.9673362205504,721.2446706400369 723.219667342375,722.7621437613852 723.2050746596651,722.7676746533252 719.3077215574449,723.8442323359195 718.7866666666232,724.0260695556062 713.6562464425806,725.815858351707 711.0097279999172,726.8912803367712 708.8672833422897,728.0569132796372 704.9116468906868,730.3280057982774 700.2887665778399,733.039927049249 699.1557802098105,733.7044868157245 697.7585235628067,734.5606128139189 697.2520322276978,734.8700870720786 695.2891853369074,735.677195044409 695.0358668516856,735.7462473573396 694.5140837831423,735.8883596006199 693.413719779579,736.1882137563662 692.8789168924559,736.3340127965203 688.8933377707144,736.9317959617474 686.0672215609811,737.1411159058916 683.3899448888842,737.0509035607683 680.7102506668307,736.7539359862567 677.7384697742527,736.4253074780572 675.0183179948945,735.2185557369958 673.1784748942591,734.3435557823977 670.5791132445447,733.039927049249 670.2414717724314,732.8705606040312 651.4779615574516,723.4601573732798 648.2124628765741,721.8213291774155 645.9688888889505,720.6961463823682 634.3245106631657,714.8564064530074 624.066932451562,709.7171444432461 621.6963060054695,708.5300201041973 618.748787996592,707.0539825413725 603.9523029334377,699.6399105329183 603.1479868872557,699.2368381345295 598.7886486755451,697.0545598492608 597.4236939947587,696.3704995131702 589.2818508801283,692.2901875027455 588.6321997937048,691.9650663199136 578.4101566578029,686.909939123725 573.1511111110449,687.2860950047616 570.0021208747057,687.5112110335613 569.2464471040294,687.564684076584 568.4009744499344,687.6259335448849 567.5481908908114,687.6860606256523 566.8661213299492,687.7350441430463 561.5876479999861,688.0969286121544 558.0535682276823,688.3396410329733 548.878528227564,688.970090924413 534.2316108800005,689.9764103039051 525.8316724337637,690.5587548621697 524.6059162169695,690.643733439385 500.33333333337214,692.3253411295591 493.6098348941887,692.7912364334916"/></g></g></svg>