<svg width="1200" height="800" version="1.1" xmlns:xlink="http://www.w3.org/1999/xlink" xmlns="http://www.w3.org/2000/svg"><g class="geojson-features"><g class="geojson-feature" stroke="#555555" stroke-opacity="0.0" stroke-width="0.0" fill="#111" fill-opacity="1.0" data-properties="{&amp;quot;N03_002&amp;quot;:&amp;quot;日高振興局&amp;quot;,&amp;quot;fill-opacity&amp;quot;:1,&amp;quot;description&amp;quot;:&amp;quot;新冠郡新冠町&amp;quot;,&amp;quot;N03_001&amp;quot;:&amp;quot;北海道&amp;quot;,&amp;quot;stroke-opacity&amp;quot;:0,&amp;quot;N03_007&amp;quot;:&amp;quot;01604&amp;quot;,&amp;quot;fill&amp;quot;:&amp;quot;#111&amp;quot;,&amp;quot;N03_004&amp;quot;:&amp;quot;新冠町&amp;quot;,&amp;quot;title&amp;quot;:&amp;quot;新冠郡新冠町&amp;quot;,&amp;quot;stroke-width&amp;quot;:0,&amp;quot;N03_003&amp;quot;:&amp;quot;新冠郡&amp;quot;}"><title>
      新冠郡新冠町
    </title><desc>
      新冠郡新冠町
    </desc><polygon points="209.0098985529621,647.3949819443224 209.00018466135953,647.4130517720478 209.013539441803,647.4557999239187 209.013539441803,647.5423811609799 209.0050488889683,647.6158242543461 208.9678390044719,647.6717104146373 208.89502122666454,647.7248742465163 208.8238200035412,647.7648605346039 208.74938567116624,647.7763810020406 208.70367067027837,647.7539121442533 208.66646078578196,647.6892278504383 208.6474407822243,647.6158242543461 208.61183288891334,647.6136148468358 208.552763107582,647.5933553674258 208.52203400532017,647.5577286602929 208.5135288889287,647.4623689741129 208.5172862862819,647.3949819443224 208.5204028871376,647.3396480120427 208.5390151111642,647.2996418595139 208.58149700268405,647.2530666331586 208.64580966404174,647.2443078847136 208.63246944715502,647.1659525667201 208.61183288891334,647.0124967284501 208.62397889432032,646.936883311253 208.64095999998972,646.8924976417038 208.7020395520958,646.8766174316697 208.78497900086222,646.8634595417243 208.81531488714973,646.8809770919615 208.84607311652508,646.9325039258692 208.87640900263796,646.9302945061936 208.9051137707429,646.9412626964331 208.92736688355217,646.9681308130093 208.9678390044719,647.0683831613278 209.02406889252597,647.2443078847136 209.04429767117836,647.3308695428132 209.0098985529621,647.3949819443224"/></g></g></svg>