<svg width="1200" height="800" version="1.1" xmlns:xlink="http://www.w3.org/1999/xlink" xmlns="http://www.w3.org/2000/svg"><g class="geojson-features"><g class="geojson-feature" stroke="#555555" stroke-opacity="0.0" stroke-width="0.0" fill="#111" fill-opacity="1.0" data-properties="{&amp;quot;N03_002&amp;quot;:&amp;quot;十勝総合振興局&amp;quot;,&amp;quot;fill-opacity&amp;quot;:1,&amp;quot;description&amp;quot;:&amp;quot;河西郡更別村&amp;quot;,&amp;quot;N03_001&amp;quot;:&amp;quot;北海道&amp;quot;,&amp;quot;stroke-opacity&amp;quot;:0,&amp;quot;N03_007&amp;quot;:&amp;quot;01639&amp;quot;,&amp;quot;fill&amp;quot;:&amp;quot;#111&amp;quot;,&amp;quot;N03_004&amp;quot;:&amp;quot;更別村&amp;quot;,&amp;quot;title&amp;quot;:&amp;quot;河西郡更別村&amp;quot;,&amp;quot;stroke-width&amp;quot;:0,&amp;quot;N03_003&amp;quot;:&amp;quot;河西郡&amp;quot;}"><title>
      河西郡更別村
    </title><desc>
      河西郡更別村
    </desc><polygon points="243.32444444450084,655.6669318077038 242.77685475547332,655.3507758452906 241.07519067032263,654.368363703019 238.49013043218292,653.2881963633699 237.32184200535994,651.6585410616244 235.67292711837217,650.3069416061626 235.4244728605263,649.9697724438156 234.74569466314279,649.0486965748132 233.37188534042798,646.764090762008 232.47704223298933,645.2421161620878 232.358116238378,644.9431953227031 232.18009133508895,644.6860503191128 231.73348534049,644.4442942106398 231.05223133869004,644.3080466773245 230.41629912192002,644.3080466773245 229.2050773332594,644.8201218014001 228.52382333145943,644.8959597837529 228.12250999477692,644.8355109400582 227.8102091094479,644.5179169026087 227.3182813297026,643.4717684295028 226.87167533510365,642.7145700108376 226.20256733859424,642.2453748396365 224.31090710766148,641.4519344988512 222.2347848819336,640.3321490998496 221.71049688197672,639.7420096649439 220.60529777780175,638.7112304527545 219.56642110587563,637.7573157195002 219.0518615610199,637.454231802898 218.30504243215546,637.0144607690163 216.75323733338155,636.2572820857167 215.7620999965584,635.8748345573549 219.0518615610199,633.7528670607135 219.91920867562294,633.1933729245211 220.84478088538162,632.8230663917493 222.05518711474724,631.9943848220864 222.42577134934254,631.9361483347602 222.95975867740344,632.0537290546345 223.78825022582896,632.5416963553289 225.13374799664598,633.0164487616858 227.05208866135217,633.1494188342476 227.64109710231423,633.2527168685338 228.32724445860367,633.65166605165 228.71964489948004,633.6670558872866 229.09020000719465,633.5637184639345 229.26569085160736,633.4107299403404 229.66787800192833,633.0604424383491 230.58943067025393,632.3614880152163 232.66068866848946,631.3119646851555 233.04178779025096,631.237230287923 233.40179888356943,631.3119646851555 233.92448489251547,631.4449356769328 234.14293822587933,631.3119646851555 234.3500319859013,630.5129899004824 234.46170532971155,628.9216792029911 234.69070267747156,628.1524088212173 235.1486391184153,627.4875047051464 235.79103755392134,627.0731948673492 236.45612600899767,626.8215305777849 237.1236028871499,626.4325008384185 237.93024910229724,625.7379192142398 238.43187620979734,625.2049147181096 239.4124986595707,624.6279138967511 241.17066934041213,623.589356492972 242.36566732812207,622.9167646027054 242.9579088782193,622.5837518094922 243.32112395390868,622.3826462064753 243.32444444450084,622.3807866810821 244.41266244277358,621.778220608132 245.14328689780086,621.6155314725474 247.2250597832026,621.4825551804388 248.27683976548724,621.5847898605862 248.88693623477593,621.4517739875591 249.32299821509514,621.3045148079982 249.90070533694234,620.7275444247643 250.48971377778798,619.854905312066 250.88211421866436,619.5285352747887 251.8077155557694,618.9075645421981 252.6621302330168,618.5019841516041 252.9898102330044,618.2360677027609 253.50192310055718,617.3040720052668 253.73092044808436,617.171093388286 254.11199044273235,616.9337020457606 254.53759579034522,616.6083964053541 254.77707889780868,616.578722432314 255.289220892475,616.6083964053541 255.75845865241718,616.7270922616008 255.92194912722334,616.7270922616008 256.3790700089885,616.2830903354916 257.61615667212754,615.126869484724 258.34512088191696,614.682904242829 259.14125220978167,614.254250117403 259.41394022409804,614.0322470279061 259.9171984497225,613.0496702698292 260.3419591112761,612.5617039618664 260.73435955215245,612.3836571483407 261.6939522277098,612.2067180543672 262.34771023655776,611.8517316357465 263.36468332097866,611.3439403218799 264.617993784952,610.9889526611078 265.49017600005027,610.8416872332455 266.1155933297705,610.8207962680608 266.3009000106249,610.8944289992214 266.45946800359525,611.035126408271 266.508838456939,611.250524648407 266.508838456939,611.6363339207019 266.5524999964982,611.7912746913498 266.6722706775181,611.8582996013574 266.8526840036502,611.8286250565434 267.0986333297333,611.7319255823386 267.5970273279818,611.3860386909219 268.14397622051183,611.006520051742 268.5970775609603,610.8735380384605 269.21439755382016,610.7845536045497 270.0032471041195,610.7691227746545 270.3665204338031,610.761446925404 271.434524216922,610.9406027640798 272.0680680106161,611.0889759858837 272.7129131236579,611.7857750078547 273.18215088371653,612.0088879686664 273.5316762169823,612.0088879686664 273.8601717760321,611.9198643784039 274.988031772431,611.354939708428 275.1846688996302,611.3252651032526 275.4904744392261,611.414288908185 275.88371956627816,611.8143812738708 276.21137043915223,611.9187565292232 276.63776221871376,611.9484310629778 277.34732777252793,611.8143812738708 277.6750077725155,611.8297329063644 278.14509021874983,611.9913206495112 278.47518776892684,611.8869058589335 278.6062888960587,611.527487575484 278.9120944356546,610.6877745884121 279.2179582294775,610.4053505699849 279.7090704498114,610.2273021994624 280.74066534405574,610.1514931208221 281.9640040106606,610.0173632221995 282.5967031182954,610.0910357596586 283.8968791041989,610.4174182882998 284.75936199119315,610.5361171247205 285.80228733154945,610.4031744240783 287.0306358614471,610.330649402691 287.3104308906477,610.3141106877592 289.5386548907263,610.3284336897777 289.9496675556293,610.2833676668815 290.2555022223387,610.1503852637252 290.9327366827056,609.8975562776322 291.86963933880907,609.7676994112553 292.3195075697731,609.7052240694175 292.9529931093566,609.7052240694175 293.52097177610267,609.8085714915069 294.0889504426159,609.838206712855 294.9409475697903,609.8975562776322 295.46523556974716,610.1053192082909 295.7605262224097,610.1053192082909 296.29128044086974,610.0151475064922 296.78239266143646,610.0744970286614 297.2088135679951,610.297651104338 297.72177112184,610.6240729257697 298.2160873244284,610.9417106179171 298.55186466150917,611.1571089395438 298.9669259947259,611.3198049754719 300.17977890139446,611.1856757123023 300.30353999638464,611.1834600070724 300.9006457743235,611.1713923263596 301.5171793352347,611.3219415472122 302.25992066867184,611.6780365789891 302.52206466859207,611.6484015787137 303.35218733514193,610.9064966935548 304.3789180017775,609.898664136068 305.3514431146905,609.1128351776279 306.3830088818213,608.4555952086812 306.5691019947408,608.1885204928112 306.92914221517276,607.329052310437 307.2131606756011,606.9872346270713 307.5740164552117,606.7212661936064 308.1080037832726,606.4541500321939 308.94945689605083,606.3651640032767 309.3313424498774,606.4091228680918 309.56112622935325,606.6025655205594 309.9365164373303,607.0608685030602 310.37342310417444,607.4016177813755 310.64611111814156,607.5203180697281 310.99563645164017,607.5653450306854 311.46571889787447,607.3872946093325 311.7497082311893,607.371903133695 312.0118522311095,607.3279444403597 312.3508626774419,607.0311933810008 312.63485201075673,606.9718431264046 313.0822444373043,607.0311933810008 313.42128401075024,606.9872346270713 314.1138393316651,606.6421324178809 314.8128899981966,606.5530673231115 315.4900953316828,606.4058388127596 316.1422222221736,606.1510672056465 316.6689277725527,605.9453188604093 317.3356473459862,605.5606481282739 317.6196075519547,605.5155812341254 318.0710777742788,605.468298575026 318.12044822762255,605.3748806756339 318.12365220987704,604.2483237019624 318.2118782293983,604.0878387691337 318.3866408960894,603.9108937218552 318.6520180053776,603.7866918341606 318.91092889616266,603.7646923853899 319.40524509886745,603.8174752324121 319.5962315662764,603.7757316774223 319.6957297779154,603.6668818621547 319.93521288537886,603.1722892213147 320.3761682206532,602.9074245623196 321.30983776715584,602.5249253064394 322.9110424462706,601.7830721048522 323.83582822419703,601.332395887468 324.3552811235422,601.018069511163 324.80756690504495,601.0026776379091 325.96697156270966,601.2873677882017 326.38686799642164,601.2730442609754 326.83996933698654,601.0477453569183 327.75910445523914,600.5509712294443 327.9216919892933,600.4630118351779 328.6062082275748,600.1783603009535 328.92660644988064,600.1332924229791 329.37484356272034,600.1915364217712 330.5124028872233,600.2970640665735 331.1637142186519,600.5520395619678 331.39591554854997,600.6267832596786 331.63863176538143,600.5212557558552 332.0245951147517,599.9068450062186 332.2567964445334,599.8474930367665 332.52135799464304,599.8167487107567 333.1063177671749,599.9816284674453 334.80702065792866,600.1321845205966 335.39847577619366,600.3871601865394 335.7633802240016,600.3564159279922 336.624261119985,599.8474930367665 337.88316398928873,599.1275920757907 338.6364493370056,598.5714618028142 339.5418073317269,598.2109161985572 340.12679623125587,597.8669491862529 340.41480510588735,597.6903162214439 341.0321542258607,597.3118844165001 341.7611184355337,597.0568264336325 342.46180022042245,596.9931212491938 343.10259666491766,597.0832185764448 343.6107191182673,596.9787974726642 344.4383951075142,596.1687509387848 344.9683628943749,595.8697706058738 345.49908798583783,595.8247415090445 346.1172526649898,595.839025784051 346.40450423466973,595.9731238271925 346.7580782363657,596.3182409693836 347.0557864391012,596.3182409693836 347.58898733521346,595.8632022144157 348.0857502153376,595.5938980131759 348.46119867730886,595.6389667208423 349.0137691022828,595.8489575095009 349.3892175644869,595.984123899485 349.64326422766317,595.9390552547993 350.74764777254313,595.8192414693767 351.52598243555985,595.8346336663235 352.57455843559,596.2237512517022 353.2267144534271,596.4336624050629 353.51393689610995,596.6435733799008 353.64582445530687,596.9579053327907 353.65715490141883,597.3327369578183 353.7453226665966,597.5723234311445 354.12071287469007,597.67785219691 354.6401657742681,597.9625461861724 354.6644286578521,597.9977223908645 354.90472732449416,598.3527287555044 355.1701335608959,598.9363198060892 355.3133515663212,598.9363198060892 356.1467073422391,598.2636606664164 356.38377289974596,598.0175065306248 356.7090062223142,597.6789601102937 357.20576910232194,596.9590132494923 357.74706733529456,595.2059269269812 358.310181774199,594.2617756676627 359.205054008984,592.9724994507269 360.6889055573847,591.616106958827 362.18976733868476,590.2224325114512 362.4656593352556,590.1773628135561 362.91873154847417,590.3268564767204 364.6121526614297,591.6744321082369 364.6874171164818,591.7458546775742 366.1915120072663,593.1736290419358 368.6681028836174,595.2147507533664 374.845467989333,600.2827404818963 372.8098324481398,602.8414655418601 375.67235754663125,606.2002885150141 381.6571924481541,613.2244326379732 384.75194800365716,616.7435514157987 388.96000000007916,613.1951934820972 390.5935357725248,611.8176256910083 391.5757602134254,610.9889526611078 396.7004423964536,606.7150937598199 399.9781453369651,603.9812048616586 408.13373644824605,597.1788554487284 413.23258288379293,592.9169840142713 415.1452728889417,591.3183081858442 417.4704901688965,589.4101478789235 421.2020808819216,586.3478724809829 416.9422408819664,582.1171539182542 416.5385391218588,581.7159449461615 413.23258288379293,578.4703188228887 411.9793306738138,577.2399613066809 406.68387623829767,572.3879985414678 406.48482156102546,571.6361219537794 405.90792999835685,564.9834971477394 405.929775331635,561.6075706257834 410.48898377956357,556.9202087399899 411.13112007116433,556.4332394268713 412.737421994796,555.2151985204546 413.23258288379293,554.8397883774596 414.7876502186991,553.660760942963 423.93356310762465,546.2303680042387 435.0730811165413,537.2342468700954 437.50519489415456,535.258068071329 438.8183324445272,534.1911125343759 443.34110287658405,530.5168524654 450.66418289777357,524.5997039215872 452.0709349830868,523.4518793924944 456.3949420090066,519.9237499648589 460.71950244973414,516.4592960488517 461.7777777778683,515.6037828053813 463.91701845335774,513.8743814612972 465.84989354677964,512.2899966224795 468.5360539876856,510.1294410346309 473.23684932256583,506.34493987623136 471.19474756275304,503.8302984992042 470.3565275593428,502.7945175067871 468.8459664497059,500.92747238173615 466.97941378853284,498.47876269568224 466.6169268906815,498.003751128912 464.5545526613714,495.6033849258092 463.1103431112133,493.82649956655223 461.7777777778683,492.09231392177753 460.9379557832144,490.99944095266983 460.52837034664117,490.46614505234174 460.0673755593598,489.86575034289854 457.69756467209663,486.93093249894446 455.20556555397343,483.77277167339344 455.61657821875997,483.4209255318856 457.8237724445062,481.52847713103984 458.77847176545765,480.6157579870778 459.47347376367543,479.6711281168391 461.58684956457,478.01506785833044 461.7777777778683,477.85826153773814 462.4574006614275,477.3002740861848 463.9145717760548,476.1050009355531 466.81435044971295,473.7681980612688 469.7869469013531,471.3763448608224 470.71738333872054,470.61980530869914 473.0160075663589,468.751407907228 475.9683606757317,466.3595851883874 478.72649420797825,464.1348477547872 485.0980788907036,458.9826595870545 486.0503606614657,458.2240232640179 486.98909832537174,457.4759949519066 488.5277962241089,456.24978421337437 489.68559889064636,455.3270736329141 493.9357395626139,451.8628200274543 498.54670688707847,448.13784184126416 501.1357866668841,446.0042406335124 501.8696442312794,444.9748285554815 502.5978220088873,443.9553500242182 505.36652868275996,439.2931883602869 509.1635388871655,433.3870339789428 510.1684242206393,431.7086873909575 510.32297267206013,431.4508842965588 510.6417397761252,430.91896411177004 512.8311373370234,427.2630013412563 514.6057939627208,424.4813876145636 515.9614862223389,422.3564115462359 520.6889619912254,414.78342683793744 524.3387637761189,408.9603171754279 526.3663311075652,405.65269949415233 527.1123055503704,404.4460304788081 528.841349120019,401.6509327630047 528.9343811130384,401.50358179508476 531.9660182187799,396.68993637216045 534.5955555555411,392.506214583409 535.2390316943638,391.4824003459071 535.6635593387764,390.8069570370717 540.826339783147,382.4310843463172 541.4938457885291,381.3376060182345 543.326407111017,378.33876302768476 545.7391222330043,374.4883950104704 547.2334595414577,372.0912212107214 547.895314887166,371.02961840084754 549.1574799928349,369.1615744709852 552.802417550236,363.28566074866103 554.9691542186774,359.9708153709071 555.8459676444763,358.4789916726877 556.4117617778247,357.5163078865153 556.8033757867524,356.9012909475714 558.0970855538035,354.8736411478021 558.8681384391384,353.6330173226306 561.0332731164526,350.14931157353567 562.7153346560663,347.39209711836884 564.5422744463431,344.4940814154688 565.6272593352478,342.7502094003139 567.4185475414852,339.8685771190212 567.8837948872242,339.16443353297655 570.8976353281178,334.60592949175043 572.5473949013976,332.05986582522746 573.0037002241006,331.3314579023863 573.3920811236603,330.5150316263898 574.3119735466316,328.6246563262539 575.7499790223083,325.4711200997699 576.0555515448796,324.8010018178029 575.4398626702605,323.85585346713196 577.6446393457009,319.45001200801926 579.6284868837101,315.36761696863687 580.7749882311327,312.86536563915433 580.9529548800783,312.4758003021707 583.1407504499657,307.7004255162319 583.2281317830784,307.5096795646823 586.3366353351157,300.9093032377423 586.8293786738068,299.8947348614456 587.0672306630295,299.42920464574127 587.6894440108445,298.2099320332054 589.0163295574021,295.52697224210715 589.3957684338093,294.83918251341674 589.5567831039662,294.56740976229776 589.9265517796157,293.94561951892683 590.2429304604884,293.2754154318245 590.5584353281884,292.6558404971729 590.6738951965235,292.4588629612117 591.0010217814706,291.9008911452838 591.2097466596169,291.49596065079095 591.2599035449093,291.27255726838484 591.2979435520247,291.1261702994816 591.3675573475193,291.006208193372 591.5196299947565,290.83343571808655 591.7785408855416,290.63645672419807 591.9492548836861,290.4989041231456 592.1264642275637,290.28318567579845 592.3287228873232,289.9651739486726 592.8149708801648,289.12218534987187 593.8077393351123,287.0510311629623 595.1621500018518,284.1798005712917 595.2600462221308,283.97287194873206 595.673476437456,283.20470288727665 595.9283386594616,282.54770229867427 596.7269166648621,280.8440804714919 598.1687086648308,277.7999958671862 599.1024073387962,275.7540636517224 599.4187568926718,275.1014410183416 600.2909391075373,273.29538840346504 601.7319155484438,270.1995051060221 602.7813362347661,268.0676503696013 603.0580146630527,267.434818063688 603.3371688961051,266.7953277173219 604.5887899876107,264.144000453467 605.8404693333432,261.4463657081942 606.0678064356325,261.00065325014293 606.2830557866255,260.5768908573082 606.5864437761484,259.93084496393567 606.824820053298,259.44217876548646 607.4133333334466,258.23542704293504 607.4319455574732,258.1973098216695 608.747500657686,255.56681106350152 609.417424213374,254.12166517972946 610.1375337814679,252.5950443004258 610.1585635556839,252.55320156813832 611.5145762134343,249.78946543455822 612.9046093369834,246.916690716811 614.3722953386605,243.8721865383559 614.8148817920592,242.99599255202338 615.1684266666416,242.23871149047045 616.0017824427923,240.53481067717075 616.608587548486,239.19636850390816 617.4678664533421,237.4582888194127 618.8465400036657,234.6029644307564 619.5294251237065,233.17528981500072 620.8813891130267,230.4068978279829 621.7277064534137,228.70513425342506 622.811438876437,226.42102599830832 623.0424751219107,225.93558240012499 624.5966977707576,222.77189329720568 625.2537180160871,221.3607149021118 625.3985088854097,221.0612793219043 627.4034444516292,216.90679101482965 628.8694993351819,213.87955096788937 630.4868695610203,210.5946355611086 631.5362611201126,208.3247056173277 631.6317106630886,208.11771321616834 631.6859162169276,208.05584928457392 631.7069751183735,208.0318329173606 631.8145706667565,208.02303484175354 632.1058417777531,208.0912793664029 634.0258135610493,208.62518709670985 636.0994891094742,209.1326995616546 638.1472997831879,209.69965704041533 640.1133797831135,210.25999490107642 640.3091722240206,210.276481235167 640.4483415610157,210.25999490107642 640.5559371093987,210.07943776680622 640.8083817813313,209.04681961709866 641.5470744463382,206.20769183395896 642.4071106560295,203.1637937373598 642.4953366756672,202.75098903413163 643.2914680037647,199.91285868932027 643.3351586703211,199.74771093035815 643.7210928925779,198.29676797258435 643.8101053440478,197.95216280879686 643.8853406721028,197.78043471899582 644.0625208889833,197.6945508128265 644.8214568960248,197.53934936330188 645.6337828977266,197.33563740400132 646.8304120037938,197.0362122238148 647.5537546810228,196.89860730676446 650.0165975609561,196.35365620272933 653.9276986595942,195.3595433816081 655.9585282276385,194.90713213884737 656.3047913245391,194.8300061444752 660.9247006721562,193.75547127687605 662.44123283925,193.39548202318838 664.4215559965232,192.9253906721715 664.9830975716468,192.79103339731228 668.1805844481569,192.08535924943862 672.9218373404583,191.00205334665952 680.2311111111194,189.334142135398 683.6616440037033,188.55133011209546 685.5411582294619,188.12086368788732 688.3438271149062,187.47906661627349 696.8109035519883,185.54906774597475 698.7571771164658,185.09533052280312 702.2441000960534,184.25289428257383 699.6253106631339,172.32673165015876 698.7165447963635,168.46120930556208 697.6438806755468,163.50934535515262 698.176877681748,163.25411522755167 698.6904177778633,163.13357548386557 699.276193109341,162.99706147704273 700.9679831041722,162.64693679247284 702.130649998202,162.4057773743407 702.4737091129646,162.33530043193605 704.5036939947167,162.8391427405877 704.660659996327,162.8781467753579 705.8492208925309,163.2084520367207 707.9981608961243,163.7380176887964 708.4836224569008,163.88670017564436 709.0887964444701,164.04636231419863 709.845285774325,164.23349350207718 713.8163013405865,165.2586099729524 716.8333748907316,166.0260373838246 717.4450442241505,166.1889880640083 720.1093593316618,166.88375686627114 720.64742445515,166.98943068046356 721.0640586526133,167.09736379026435 721.6369015467353,167.2459649721277 722.3310297317803,167.42393746162998 724.9307117797434,168.09052058449015 727.0723700053059,168.63882418035064 728.7763060053112,169.06306200224208 731.0611531094182,169.63193511561258 734.7845591040095,170.5810449734563 736.7336579982657,171.07650700741215 738.1083120071562,171.42554950190242 739.9344071112573,171.8868429227732 740.8794362312183,172.12244390317937 743.2791897885036,172.71921415254474 743.8423042276409,172.87340070458595 744.8334124373505,173.11011056497227 750.0536606719252,174.43571328482358 753.048888889025,175.19332191813737 756.4041864534374,176.04209131828975 756.4381486650091,176.0508905375027 759.1105902363779,176.72359387215693 762.9124646685086,177.68476531392662 763.9505257816054,177.94897780381143 768.4312657919945,179.0852151112049 773.969436444575,180.4911662597442 777.3214717726223,181.3159380471334 777.3837746630888,181.3312372621731 778.2551704463549,181.55913996469462 779.0674964481732,181.77269451436587 781.6824702293379,182.44213212956674 782.3620931128971,182.60067244671518 782.9454217673047,182.76472193235531 785.6040862151422,183.43300743587315 786.1955413334072,183.60585531539982 787.871952213347,184.01762199477525 788.4326491021784,184.15523411502363 792.8057644374203,185.2529178991681 793.893196003628,185.54795797745464 794.5590708908858,185.7208043715218 796.9555622115731,186.32745025958866 797.5462017706595,183.92733381671133 798.1279575609369,181.69128380040638 798.2283004587516,181.15834814938717 798.2283004587516,180.65965631441213 798.2202031218912,180.47907746053534 798.2031928891083,180.12568790698424 799.1765335609671,176.1862874912913 799.6700633316068,174.27827752631856 799.7938535538269,173.88627314852783 800.1579424428055,173.42498347599758 800.238857557415,173.17725494824117 800.3650653298246,172.73023314325837 801.463827342377,168.37785195698962 801.5447424569866,168.06848218699452 801.5940837831004,167.88064044178464 801.8432662185514,166.93219400657108 802.7907128890511,163.07962788449368 803.0763042133767,161.94220679008868 803.4715299841482,160.36550532939145 803.5116380160907,160.20584080234403 804.2316893298412,157.2989611121011 804.8886804481735,154.66627375181997 805.7236673423322,151.38167771161534 806.7091248926008,147.42425621690927 807.4931393422885,144.43683314073132 807.7075148801086,143.6219669841812 808.0384571165778,142.40965235768817 808.3143491129158,141.29968669981463 809.0611099875532,138.51262014266104 809.3702068908606,137.31344160350272 810.2537486791844,133.9207059109467 810.7634439965477,131.9792660648818 811.4617082311306,129.23835807683645 811.9074986666674,127.5666980346432 811.970209336956,127.33105438423809 812.3921446684981,125.74640047375578 813.3120953458128,122.22465970990015 814.7012837830698,116.91993087372975 816.3866075592814,109.94433865568135 816.9861600142904,110.04789600503864 818.9384628906846,101.82545743818628 818.988619775977,101.6106836865074 819.0711368819466,101.26265227614203 819.2224522239994,100.5974739898229 819.8640642275568,97.93329341919161 820.0267100160709,97.31326612696284 820.1707144534448,96.64799786260119 820.758441301412,94.29220658005215 820.8276764444308,94.01466135226656 820.9603504356928,93.43641468900023 821.2958947556326,92.06743487744825 825.8666666666977,93.23896042921115 829.9760942647699,94.29220658005215 833.1142783431569,95.09653088112827 848.0760015075793,98.98509212158388 850.1392495502951,99.52312221331522 862.7576674987795,102.81312881590566 869.4796513279434,104.6745917290682 870.9716002133209,105.08867114852183 874.4118615608895,105.95564271952026 874.5550795663148,105.99176151282154 875.8253420089604,106.32658366276883 878.1959684551693,106.92018316214671 878.5583970987936,107.01930129312677 878.8852906668326,107.10957805218641 879.9508768996457,107.38821862608893 882.0771560106659,107.94327858957695 882.759196444531,108.10737786325626 883.4355862187222,108.30450301169185 886.3612588942051,109.06223602168029 887.0125702258665,109.26047051744536 887.6760275627021,109.46643598965602 889.3451566649601,109.83534965250874 891.2286904322682,110.31662157241954 895.8243077689549,111.5830929123913 897.0371606756235,111.89253371953964 898.0800568888662,112.06432176643284 898.6844444443705,112.21830845752265 899.6666688852711,112.46851680177497 903.1813500019489,113.3363345801481 903.8949350969633,113.50927135854727 904.5147308942396,113.67221718013752 907.9711577886483,114.56647461437387 909.1410773333628,114.893554128299 911.3943797760876,115.45299785025418 912.0788668871392,115.62371297250502 912.8450846720953,115.8142112448113 916.2958317797165,116.6996595505625 916.9592599894386,116.88904691144126 919.5912440035027,117.56746240257053 919.7967648996273,117.62030990759376 919.8566211129073,117.64013267488917 920.0961333477171,117.72160423110472 920.2579344498226,117.77556177735096 920.6632964551682,117.91210087871877 922.9570273280842,118.47982362424955 923.4364013227168,118.59844262432307 925.3220031147357,119.06514757440891 926.9021488925209,119.50235558766872 926.3964439893607,121.80949907831382 926.2953146597138,122.40195116400719 926.0550159929553,123.12542742176447 925.839824896073,123.52960428321967 925.4668522382854,124.00204833166208 924.3988484551664,125.7144868694595 924.1205097815255,126.32564158242894 923.7493721316569,127.33105438423809 923.6916713244282,127.48741015576525 922.9570273280842,129.87233872787328 922.952192227589,129.88807722128695 922.3389209032757,131.9506436570664 922.1430993352551,132.5959552519489 922.1172344605438,132.99127615225734 922.022542222403,133.43067942396738 921.8016713387333,134.04950568883214 921.6179957761196,134.7630766434595 920.7530953388195,137.4731209872989 920.4561444409192,138.24836530117318 920.1907673316309,138.93655313417548 919.8307271111989,139.58957659464795 918.8953973191092,140.6741792038083 918.3007382188225,141.39657104451908 918.0475071147084,142.0330574279651 918.2497657743515,142.6463915280765 918.2627273388207,142.68714298965642 918.2376488960581,142.77728773636045 918.0475071147084,143.46126091555925 916.8735097743338,147.090560298122 915.5077977885958,151.27151786122704 915.179302229546,152.42440821795026 914.5473895538598,153.8349117199541 914.2059324303409,154.7125331214629 913.6759937707102,155.96882645750884 912.5376188871451,158.771114814037 911.9711548301857,160.36550532939145 911.9567077832762,160.40625385649037 911.5643073422834,162.22962461895077 911.4122055680491,162.8318889408838 911.0966424462385,164.15643716912018 911.0076299947686,164.96576528903097 910.8183328995947,166.22093605640111 910.6807655538432,167.08194477757206 910.6298222364858,167.9418406378827 910.705843996373,169.66828238451853 910.6799791218946,170.85081426560646 910.6184626632603,172.16651997016743 910.4898373405449,173.72114755836083 910.3894944426138,175.33743931591744 910.3765328781446,175.93967155535938 910.3514544356149,176.61130502144806 910.3174922241597,176.85788064816734 910.2762482346734,177.16176960751181 909.2017491059378,180.6519274151069 908.9994904461782,181.27178434847156 908.6580333226593,182.372770708811 908.5755453441525,182.76032244280213 908.4743868871592,183.3790246519493 908.3732575573958,184.26533960952656 908.3546453333693,184.91047437721863 908.3352175503969,185.83970803458942 908.323100671987,188.10104659828357 908.2348746525822,188.70328723534476 908.1151622259058,189.34845000243513 908.0010713315569,190.1466374247102 907.7607726650313,191.34337864950066 907.488929337007,192.39255861740094 907.4387433244847,193.07179642142728 907.3892563628033,193.39548202318838 907.167715555639,194.84320396534167 907.1426371129928,195.48831100249663 907.2308048781706,196.0552999160136 907.4266264461912,196.49459058203502 907.7810160070658,197.0703756447765 908.1661346703768,197.71658655710053 908.4695226596668,198.26700393430656 908.5455735466676,198.73161580087617 908.5455735466676,199.35027785645798 908.4064333370188,200.67359909467632 908.3554317653179,201.27576933219098 908.3425284551922,202.56491756328614 908.0779669049662,205.43820999882882 907.9767793208594,206.20333239476895 907.831143765361,208.02636384341167 907.711431338801,209.03362255787943 907.6353804515675,209.78220777929528 907.5973404444521,210.42624526220607 907.578728220542,211.0713114522514 907.5593004374532,211.44891038857168 907.5285713351332,211.65693037793972 907.4962111146888,211.87933600955876 907.3764404339017,212.34388254809892 907.1547539911699,213.091348056274 906.1693255680148,215.15543644828722 905.9864364374662,215.6419713126961 905.852946887142,215.99863876233576 905.7518175573787,216.24743381724693 905.6822328888811,216.77252609096467 905.6005313423229,218.61307464627316 905.513150008861,222.13783492380753 905.6644362241495,223.3938633459038 905.8027900018496,225.74512973596575 905.7918090810999,226.42102599830832 905.7906731235562,226.49037500546547 905.9047057635617,227.62420868925983 906.0180102259619,230.53132773202378 905.954891776084,231.16865354421316 906.0309426632011,234.03939296572935 905.9929317831993,234.81211402459303 905.9298133334378,235.44835883541964 905.816537998151,236.46319285110803 905.6895437939093,237.28876773745287 905.4111759929219,238.88922755088424 905.2979297849815,239.69716078753117 905.1336528782267,240.43685583467595 904.4006400001235,243.22383815882495 903.5551382187987,246.5908565100981 903.3261699982686,247.50444333988708 902.352829326177,251.45918594289105 901.2791748835007,255.67359588149702 900.3169316409621,259.44217876548646 900.2298124515219,259.7833299233462 899.1553424497833,264.04823421279434 898.6844444443705,265.8547905081068 898.1067664497532,268.0709389379481 896.8559026631992,273.04007399990223 894.960222890717,280.5029584983131 894.8348306776024,280.984966481803 893.7465835519833,285.17902209231397 892.8242153244792,288.7050479463651 891.9230516337557,292.4588629612117 891.8128637725022,292.917750649387 890.7513553351164,297.0940528201754 889.689846897847,301.169025731273 888.6153768959921,305.50250027840957 887.5910637796624,309.4045745857293 886.0505600001197,315.35331642458914 884.7633164515719,320.79027587297605 883.5959600926144,325.4711200997699 882.8214993351139,328.57629060477484 878.9807693369221,344.2014498828794 877.5454435558058,349.8027404592722 875.3229575965088,358.4789916726877 875.1893806649605,359.0004537209752 874.4118615608895,362.17253197258106 872.3632353279972,370.5301228936296 869.9319371094462,380.0889968177071 868.927867335151,384.214317645703 867.1581331912894,391.4824003459071 867.1284526649397,391.6044915954699 866.1850546632195,394.7670813652803 865.4414977706037,398.3498301922227 862.9656933263177,407.87796508101746 860.3588460090104,418.1811638723011 860.262522652396,418.59693371295 859.1743337813532,423.3001128852484 859.7657888996182,424.17895204696106 859.8987541620154,424.4813876145636 860.094284458668,424.92577478819294 860.5756682240171,427.0122020408162 860.4009055575589,428.96782796201296 860.230191559298,429.80479468469275 860.0691768890247,430.5966992696631 859.8750155662419,431.5491987321875 861.4955897742184,432.9328029649332 864.4730504533509,436.1619745088974 870.3502315521473,442.1296695712954 874.4118615608895,446.2612762398785 874.6456648819149,446.49914875556715 875.7419802169316,447.61435127747245 882.0965837938711,454.0865597084048 882.4080691200215,454.5121272004326 883.8498319931095,454.7255243358086 888.800654449733,455.45574497175403 898.6844444443705,456.7164829886169 899.6723486720584,456.8425405990565 901.6295157760615,457.1064537166967 903.9071102294838,457.413283043541 904.3742799644824,457.4759949519066 908.070655999938,457.97198857349576 912.4041002098238,458.555912096228 921.2878690988291,459.6853522169404 922.9570273280842,459.89708207262447 926.2742848853813,460.31769073050236 935.981739349314,461.4537343404372 939.4446033352287,461.8584251043503 940.9349211022491,462.0289001969504 947.2296393387951,462.7541900294018 955.6821522205137,463.72794369840994 968.0644366791239,465.4105062232702 969.620290446328,465.6216373165953 971.502222222276,465.94136221311055 977.7055104570463,466.9951924876659 978.3050046578282,467.0963827603846 979.8374402275076,471.6436074410449 981.4386157796253,477.6697454502573 981.8731048961636,479.306053948123 982.20561999653,480.55748572718585 983.0608502328396,484.5095567679964 983.4985433317488,486.2491399143473 983.7178122240584,487.1222521136515 982.8650577919325,490.1098748797667 982.6919844978256,490.46614505234174 982.586689991178,490.68275706557324 981.5470268871868,492.82586774468655 981.0874593281187,494.7149438477354 980.5032859875355,495.7639405017253 978.5704108943464,499.2396897333674 977.9134489031276,500.3040652911295 977.2070873316843,501.44867259135935 976.9222824391909,504.7088109026663 976.1560937813483,509.12341301183915 975.0832257708535,512.9365288299159 975.0614095645724,517.4400017338921 975.0185053299647,521.3640124496305 975.7806453191442,523.4518793924944 975.8284137813607,523.582731658651 974.1002148980042,526.7458443890791 972.8266902187606,528.8193380064913 972.1486984534422,533.7304576647002 972.3096839964855,534.2471557178069 972.5208846791647,534.9244223335991 972.6519275519531,536.9231237388449 972.8275349049363,538.9646320746979 972.4553195519838,542.3914088010788 972.3655206685653,544.6692644360592 971.502222222276,545.7846956121502 970.7675782258157,546.7338608784485 969.322553116479,548.2718388351495 969.8484431075631,549.9725041449419 969.9576989014167,551.576434650342 969.8047524410067,554.563276239729 969.5387345351046,556.4332394268713 969.3654282240896,557.651234740275 968.5773942329688,560.8567692373763 967.6153548801085,564.7988071797299 967.7901175465668,565.6551390361274 968.4455066737719,567.9833541433327 968.7974495573435,569.2354042323423 967.5417215431808,570.1675816477509 966.1630479928572,570.9590353383101 960.1644942222629,569.0485013659345 959.3109242311912,568.7198479824583 954.9102837761166,568.4560147805023 953.4830553316278,575.292199257412 953.4830553316278,575.9065922065638 957.1417700125603,580.659597656806 959.6798773476621,583.9681516856072 960.2065828979248,584.6551347508794 963.9522128782701,589.4101478789235 964.6985951005481,590.3576019860338 961.3012671147007,594.3442372017307 961.8271862330148,598.648382350686 959.8546108872397,602.3095194438356 959.0002253371058,604.890222822025 957.5115095608635,607.8104609004222 957.3359313352266,608.5127293770202 957.5988908943255,613.9135103086592 957.6280180054018,614.809237183712 957.7534393458627,618.6086117797531 953.7257715485757,620.6725891418755 953.1125002240296,620.5406805872917 950.1132233388489,618.1470067956834 948.0767431112472,617.6205932689481 947.2296393387951,617.2659311655443 946.8614726543892,617.1117455740459 944.9787544462597,615.8819369543344 937.3822582329158,615.5302397605265 936.645167559036,615.7961986926384 935.6604964409489,616.2578080774983 932.9015182224102,618.7602642785059 931.4832026738441,619.2339354013675 929.5519004444359,619.8801872014883 926.9256253441563,621.1100154454471 926.2831977815367,622.202390877821 926.1415235128952,622.3826462064753 923.5905419947812,625.6280108693754 922.9570273280842,626.2813673865749 922.8243533369387,626.4181787717971 921.3356375608128,627.3182517826208 915.0959695643978,627.4721144840005 900.7554402987007,626.9463538819109 901.7034695112379,627.9515055768425 902.6466344959335,628.8789508143091 903.4797281280626,629.5267598671489 904.2567229439737,630.0164729465032 905.2861041778233,630.6480581643409 902.5686903466703,635.9598932809895 901.4628504462307,635.436564073374 900.4043129743077,637.4186260449351 898.6844444443705,636.5050992218312 894.7326527715195,634.4059646772803 886.9342474241275,648.7754153176211 882.9015988906613,646.4922311513801 882.6646207147278,646.7380599798635 874.4118615608895,649.8614177365671 870.4712546988158,651.3527446078951 866.6587779982947,653.9512507523177 864.9496573725482,655.3507758452906 863.5207978098188,656.5208119706949 861.4523360143648,657.7762497734511 859.8614714596188,656.9912458662293 857.9773551503895,659.6537376455381 856.9375172836008,660.4364782573539 853.6569307591999,661.8700260202168 852.6185492479708,664.3511725533172 850.1392495502951,666.5883445185609 849.9478261760669,666.7610910881194 843.96197182592,670.0801197860856 842.9383868871955,669.5180973060196 840.0853863537777,668.2069043242373 839.2698854970513,668.0328533847351 838.5310763237067,667.7709064892842 833.9429737813771,664.7651033105794 833.2884875946911,665.0884862311068 825.8666666666977,672.058857519296 818.1674100054661,679.2895427807234 801.6361724587623,688.3144595479243 801.5940837831004,688.3374007469392 777.3214717726223,701.5879203266231 766.0788437903393,707.72515493026 753.048888889025,700.2337071547518 748.9498887964291,697.8769574541366 745.3520497779828,705.2253414759762 743.9369673387846,704.9297760652844 739.6536508871941,704.2848545109155 736.4270077726105,703.5652583371266 732.0733202205738,702.5940730781876 729.2714668943081,701.9524282009224 728.7763060053112,701.816331085749 722.4702864498831,700.0825398153393 715.935269546695,698.1949969711131 714.7507864462677,697.8665156572824 713.3850453334162,697.2765138658579 710.1138959929813,696.219593539834 707.6955593387829,695.710907983128 705.7019542187918,695.4153707249789 705.0749057707144,695.2395591126988 704.5036939947167,695.0799244332593 704.1784606720321,694.9890322927968 698.6799028906971,693.4432279310422 696.3343548871344,693.0169256431982 689.9522844443563,692.6554106003605 680.2311111111194,691.8252688010107 679.3637639965164,691.7512251430308 676.2698240000755,691.5226864040596 673.0812208924908,691.2842591246008 672.7640557796694,691.2600920468103 668.6781628871104,690.6360585140064 666.4669491201639,690.2262056259206 660.7483360142214,690.4228654832696 656.7004540017806,690.7019545046496 655.9585282276385,690.8299493072554 655.2740411165869,690.9480557010975 652.6744464497315,691.0304849122185 649.5198055539513,690.8172922222293 646.5472091023112,690.9161756819813 642.9322433422785,690.9821111510391 640.9078799929703,691.0875999541022 636.5873682204401,691.3117091250606 632.7199577884749,691.9182188746054 631.6859162169276,692.0589491745341 629.8298784426879,692.3115752875456 626.5053391075926,692.5587428122526 615.2930324481567,692.6092916849302 608.6973437725101,692.6312832100666 607.4133333334466,692.6352385201608 605.4917304320261,692.6411714851274 595.1953257814748,692.2324689703528 586.9782182115596,692.018209382717 583.1407504499657,691.8630421331036 580.0767239965498,691.7391218505218 576.4293688890757,691.6534099557903 575.2165451092878,691.6248920552316 573.7181300054071,691.7896708911285 573.2100075520575,691.8380049408879 572.8232868979685,691.8380049408879 571.3539697778178,691.263414525718 568.0294304427225,690.4426422098768 564.403105109348,689.8197141088895 558.8681384391384,689.3471278188517 558.4441933371127,689.3110153542948 552.2223220054293,688.8506501856609 546.9268384426832,688.4902365421876 546.3345677654725,688.3913521098439 546.113522119238,688.3144595479243 545.9114673493896,688.244172447361 544.5853682346642,687.5387688899646 543.4016424391884,686.9080808680155 541.5156911218073,685.908271910972 540.6572277761297,685.5643480845029 540.0649862257997,685.4170876266435 535.4491546738427,685.0215447316295 534.5955555555411,684.9050176737364 532.9231933441479,684.6765912550618 531.207111338852,684.3974954163423 526.4326826666947,683.1119733744417 520.400953116361,681.1935664839693 517.345023999922,680.0563990343362 515.3384864426916,679.1542638215469 514.9153277724981,679.0070786472061 513.4945655467454,679.0147523725755 511.85698110598605,679.0235336456099 510.32297267206013,678.940823534911 507.01055021525826,678.7620335306274 500.50632066861726,678.5158806203981 495.7205615504645,678.5158806203981 488.51567934593186,678.8279722487205 486.0503606614657,679.1140756718814 485.06003888347186,679.2289837002754 481.30264155042823,679.9552961334703 479.87381111481227,680.2310743709677 474.94646510947496,681.4001618232578 473.229596672114,681.8099898216897 471.3800251164939,682.0560603351332 469.6995655678911,682.1549473071937 466.3288888888201,682.0253262560582 464.33368177781813,681.7957105254172 463.7657031113049,681.7957105254172 461.7777777778683,682.4284684655722 461.6013839930529,682.4845966309658 457.1392853333382,684.9787469523144 455.8649742222624,685.5401804461144 451.2685704532778,688.3144595479243 450.67143554857466,688.6748338942998 447.8744464496849,689.6999459248036 444.92127778136637,690.1196485099499 441.48669622046873,689.7933318883879 440.55057999666315,690.1679828868364 438.25035377778113,690.7744954484515 437.50519489415456,690.6008559670881 437.0480740125058,690.4942990128766 435.9168061440578,688.3144595479243 435.0900622222107,686.721346275066 433.37584435218014,688.3144595479243 432.98807512188796,688.6748338942998 432.17854532273486,688.3144595479243 431.86260354856495,688.1738062191289 430.6870333440602,687.649757157662 422.72723467391916,682.6504891045624 421.9909304321045,682.1879359922605 421.31293866666965,681.6935008016299 420.6430151112145,681.2056307387538 419.8533500019694,681.2056307387538 418.10249022580683,680.7397918514325 415.28607334394474,680.9727311825845 414.11128957162146,679.9355185658205 413.23258288379293,678.3221779245068 412.9437293226365,677.7918186110328 411.67268044815864,676.3942008559825 407.31086643214803,674.8569822692662 404.89981155563146,673.9186737650889 403.42242622573394,673.5922961541219 402.08336554665584,673.6395657535177 399.33571777434554,674.1515799820772 397.0257922275923,674.1537951218197 395.2393391218502,673.8746873761411 393.79673156281933,673.083563932043 393.55640376894735,672.8000642283587 393.0070373263443,672.1518150416669 392.07983399834484,670.1937662087148 390.5263977814466,668.7389456389938 388.96000000007916,667.7504554742482 388.0886042169295,667.2006508543273 387.67598956101574,666.2215691705351 387.40088399650995,665.4776923425379 385.7859313209774,664.4909691998619 385.002761557349,664.2766459556296 384.4129375574412,663.8931738170213 382.5487733192276,663.7426171284169 379.8011255466845,664.5810418698238 374.95877245173324,665.4205713701667 372.99350801075343,665.4249226912507 371.37934176728595,665.3315275012283 370.7727114240406,665.3964413155918 370.0751171129523,665.4710862473003 368.5977317831712,666.4500917955884 368.18590355920605,667.288507333491 367.5814868764719,669.9608166977996 367.4253655609209,670.6519510287326 365.948795790202,671.4452974360902 364.6874171164818,671.9100462977076 363.2650528997183,672.4342079129419 359.4178275555605,672.4342079129419 356.6281202347018,674.1131314845406 355.04794532991946,674.5317925797426 352.814886229462,674.8119675926282 349.4409764409065,674.6746292665484 348.5485800107708,674.815290293016 347.5517628871603,675.3745317921857 345.2167588979937,676.4919825387187 344.4545606543543,677.4764821181889 343.4254124374129,679.0609133852413 343.09289733704645,679.3729252134217 342.3964389831526,680.0271282457397 341.6389593316708,680.7386843110435 340.41480510588735,679.3311153349932 339.6122075591702,678.408250450273 339.50295176543295,678.3478098194464 338.68497510405723,677.8950979491929 336.48669377435,677.4292132540722 335.3475033317227,676.3052005042555 333.45831890509,673.5088326547993 332.97769244445954,672.2045832536533 331.9469131093938,670.8530568314018 331.85548310761806,670.7805495851208 330.8757053441368,670.0014810194261 329.77697245881427,669.8146545132622 327.4759306808701,669.3026312817819 326.09478132624645,669.4916338004987 321.87056378333364,670.3311070298078 318.876908430364,671.5958098664996 317.67462866497226,672.3408153770724 316.7474253369728,673.2264410137432 316.1422222221736,673.4048790249508 315.1672795591876,673.6922940911609 314.27485400182195,673.7857256715652 311.57736311480403,673.1154066997115 309.97374088538345,672.7177080373513 308.9777393209515,673.090169823321 308.39362423471175,672.9506153881666 305.5084091165336,670.99257289659 303.44038422754966,670.2849839398987 299.4507564372616,669.7750977501855 298.11175401252694,670.2871200008667 295.6715428978205,671.7793122821022 293.7135602347553,671.1266300794086 291.86963933880907,669.2968955395627 291.4125184569275,668.8432968045236 289.2045086720027,668.329056364717 285.3929057850037,669.3542925119982 283.1598175574327,670.4728385627968 282.3897258666111,670.7492207518662 282.12175644445233,670.8453432954848 281.79244532622397,670.698113606486 281.5028053333517,670.5673393920297 280.2325428907061,669.0762869279133 279.40810001071077,668.6092779804603 275.83676666324027,667.6774726304575 274.41845111490693,668.7949978059041 272.8730831077555,669.3542925119982 270.5372635591775,669.5872425957932 267.5970273279818,670.6079245004803 264.624460003688,671.6397571053822 262.7651891200803,672.3880456599873 261.5944248888409,673.3209012316074 261.0110671076691,673.7868332429207 260.5652766721323,673.7406712431693 259.5684595486382,672.9011700620176 258.36699534230866,671.4112392886309 257.5384746667696,670.561880575784 257.0281968070194,670.2014402081841 255.88955977954902,669.3970930023352 255.20262599131092,668.418099151575 254.5157213297207,667.0665519806207 254.27545179030858,666.7885438180529 253.10710510949139,665.4348120569484 251.45169487665407,663.981071032118 250.93631977238692,663.748115653405 250.0770991219906,663.748115653405 248.87560578854755,662.7229353181319 247.87878866493702,661.5581502824789 247.29141134221572,660.4725158332149 245.19667689257767,657.7243092071149 244.30343577603344,656.2320318897837 243.32444444450084,655.6669318077038"/></g></g></svg>