<svg width="1200" height="800" version="1.1" xmlns:xlink="http://www.w3.org/1999/xlink" xmlns="http://www.w3.org/2000/svg"><g class="geojson-features"><g class="geojson-feature" stroke="#555555" stroke-opacity="0.0" stroke-width="0.0" fill="#111" fill-opacity="1.0" data-properties="{&amp;quot;N03_002&amp;quot;:&amp;quot;根室振興局&amp;quot;,&amp;quot;fill-opacity&amp;quot;:1,&amp;quot;description&amp;quot;:&amp;quot;国後郡留夜別村&amp;quot;,&amp;quot;N03_001&amp;quot;:&amp;quot;北海道&amp;quot;,&amp;quot;stroke-opacity&amp;quot;:0,&amp;quot;N03_007&amp;quot;:&amp;quot;01697&amp;quot;,&amp;quot;fill&amp;quot;:&amp;quot;#111&amp;quot;,&amp;quot;N03_004&amp;quot;:&amp;quot;留夜別村&amp;quot;,&amp;quot;title&amp;quot;:&amp;quot;国後郡留夜別村&amp;quot;,&amp;quot;stroke-width&amp;quot;:0,&amp;quot;N03_003&amp;quot;:&amp;quot;国後郡&amp;quot;}"><title>
      国後郡留夜別村
    </title><desc>
      国後郡留夜別村
    </desc><polygon points="292.84890584181994,622.1385655934282 292.9144054329372,622.0597029204073 292.9689750755788,622.0465473069635 293.05632000003243,622.1122949394048 293.0672208213364,622.1933467620111 293.0279429120419,622.2875540385576 293.10433604271384,622.2437089059822 293.1785737671016,622.2853445527289 293.20477360356017,622.3620075813378 293.20695085515035,622.4233663123887 293.17202016711235,622.4912723339803 293.12179046403617,622.5438234337635 293.18510552181397,622.5372659509012 293.2462360462523,622.5876582117053 293.26152049779193,622.6621215172199 293.2527896462416,622.7322266027622 293.17202016711235,622.7891862910037 293.0694126364251,622.8264330329694 293.15017483380507,622.8549229742493 293.17638923379127,622.8987271194492 293.17638923379127,622.9775785542297 293.1414585458115,623.067396090526 293.0890443093376,623.0717845990439 293.00391304536606,623.0652271739382 293.07815076978295,623.1287439648731 293.0956051911053,623.1813249114348 293.0934206577658,623.2294970450603 293.0388364515384,623.2798887243262 292.9777132089075,623.3039899590367 292.90350461157504,623.2820880383952 292.84456590225454,623.1922809586977 292.82489782047924,623.2798887243262 292.7637745777902,623.3105574931396 292.70701312000165,623.297432559295 292.6393362773524,623.2294970450603 292.6328045226692,623.1637810425018 292.6546352924779,623.0805413449561 292.5803975680319,623.1440783898433 292.51710435558925,623.1484466225666 292.46688193423324,623.1046325246425 292.4472356977931,623.0235819334048 292.50181262221304,622.9644332772295 292.429766712914,622.9425312326493 292.37738160358276,622.8921696753823 292.34462088538567,622.813287722849 292.35991261867457,622.7344158017513 292.4690664675727,622.6643208539608 292.3926660550933,622.5964150282816 292.35991261867457,622.5460227747972 292.35555083380314,622.4803161586751 292.36862890672637,622.4036431460117 292.39485058846185,622.368605624346 292.4472356977931,622.3423046653188 292.547644131555,622.3707644308597 292.4799818524625,622.2853445527289 292.46688193423324,622.2327628207277 292.47342825244414,622.1933467620111 292.5214515769039,622.1429541699326 292.5825821013714,622.1385655934282 292.6568125440099,622.1780019586877 292.64808169248863,622.0881932258635 292.6939350471075,622.0334018259455 292.7485046898073,622.024655062487 292.7768817777978,622.0268442872766 292.8314587022469,622.0706591725029 292.84890584181994,622.1385655934282"/></g></g></svg>