<svg xmlns="http://www.w3.org/2000/svg" width="500" height="500" viewBox="0 0 500 500"><path d="M4.151550236212291,92.29642041982167 4.123198339115701,91.74666064127663 3.907221283360364,87.4773047382532 3.8853879663089077,83.118495065571 3.9508879170168445,81.60657713749627 3.859235108285203,80.34778431884403 3.789494153555324,79.35955184835257 3.7371099003343926,78.64407876515054 3.680327568967691,77.84771245739556 3.609487094701369,76.85947998690408 3.5909523364824567,76.59991483433096 3.4686700544078186,74.9266031426831 3.148003029160925,70.46310350073257 2.2796967275473747,59.672968327396205 2.107386305448518,58.42941170829775 2.068196286888114,57.65935533280191 1.8434230746180202,53.36596707376573 2.740081273551376,50.846182397388375 2.7706322097208513,50.75900620392022 3.0258778212101145,50.04557508561145 3.0258778212101145,48.92642125071021 2.4150161701587125,45.74566824636273 1.841302572718657,42.748220859534335 0.9009777401288205,40.68002457264622 0.8551906041265449,40.57753364250657 0.9729962711051068,36.05945070826222 0.9860334314185902,35.51620950998552 0.787491614345723,35.012315404393064 0.501773603637291,34.28576858848568 0.17890753954072808,33.47212411622786 0,33.016059111419324 8.423105178476028,33.34552229295776 13.490947891153816,33.249628480148374 16.870242712629967,33.186249031395604 20.535255545037767,32.89526903435811 20.66177883113435,32.88521628412728 22.27398865016423,32.91356818127967 24.052068848198143,32.946318156633644 24.44035632605234,32.95283673684619 24.789453785569343,32.95943385423226 26.641515942355074,32.99430433159719 27.40733131377317,33.007420029195806 35.58610753895084,33.138262856487856 37.61055865500895,33.061924784371904 46.116599022652174,32.74337826124759 47.99497111180865,32.69547062340176 56.64497000445414,32.479415030417094 57.535031085945626,32.45766025065077 62.101100195209334,32.33985458378381 62.37817912352684,32.33333600357127 63.46678202209119,32.30498410641888 66.97691967085939,32.21553033676012 71.11967375055693,32.28307225236131 74.12811633308456,32.04094233852646 75.19928399296644,31.95368760794059 80.20170529210982,31.82284478064855 82.55554105253285,31.672289138427626 85.98290058603446,31.455369637259672 88.62261143128974,31.288242664595373 90.71248396088228,31.351622113348142 90.98744238730042,31.36033973268938 92.36616137471897,31.40180732738458 95.0691731316093,31.484585442595357 95.0691731316093,32.601618775485626 97.03479995112843,32.41399361677107 97.88127293591376,32.33545650558224 101.97823987983223,31.944969988599357 102.52148107805311,31.899182852764493 104.31032086037732,31.75082624967226 105.83307690974844,31.622103924391187 109.18401983435122,31.34282595688919 110.29013650854834,31.246853606962084 112.12272146192576,31.09417746273019 113.4752090541471,30.982890376131586 116.1258365578165,30.760394740052096 117.11854564362727,30.579288161605895 119.74506225422202,30.10154691403714 119.48329806246441,29.2463563099664 120.41270623664013,28.125003435992276 121.06275790625193,27.34183136289782 123.96211244114225,27.160803321513534 126.39244334786086,27.012368181303582 128.23586642225567,26.922992948762545 128.4955101118907,27.573044618318548 129.26336744848106,29.501601921455663 129.47714546516352,30.0360469632734 129.8721085974099,31.026478472893565 129.9767985666782,31.290520240785977 130.28215085514202,32.05405803606927 130.6857530697793,33.06632286257348 131.2289942680002,34.054555333064954 131.35551755432,34.28576858848568 131.75699926683473,35.014514443521755 131.95766158580696,35.3809686044361 132.71900034212896,36.079084986073376 132.8651579059809,36.93867366840149 132.9763664555176,37.604040074629 133.62217712110746,40.46404751683508 133.86650607395939,41.54173375698531 135.70773010950452,41.92358119174468 136.07214230558142,43.018702670577376 136.34482315575315,43.825907099684564 137.66683834897853,46.12311760286472 137.8195144930988,46.387080833695215 138.23623240522312,47.109229571345224 138.50451517702587,47.57605416044405 139.8614793847897,49.25808347143314 140.35021582789028,49.86226946803656 140.63821141484513,50.28558449749113 141.06356840913713,50.907362807012454 141.93839329101905,52.19010944455971 141.9624256471434,53.01686961441614 142.00389324172698,54.4131809147526 142.68017630653603,55.521339554066195 144.0414600552721,57.757448184739985 147.78508853587485,63.89425951833837 149.25106225387927,65.52830265436391 148.70782105565837,65.82721489967706 147.8133618957979,66.31799330767092 147.12836121164764,66.69332216221773 146.79677752820984,66.87435020354621 146.0114064159867,67.3063043152801 144.9293220974675,68.5127128807114 148.0403341473641,73.51725468186575 148.36100117238777,74.02994494391716 148.74057103090072,74.64292709697953 149.37546503807647,75.66178904081401 149.8008220323685,76.34678972485267 151.43046709008084,75.64537478455027 154.37780780004633,74.37684336413807 157.37313468486374,73.24677287082271 165.31410053745785,70.24704790774791 174.40477116117845,67.5157627908787 178.93157171448502,66.06714577443903 201.54594020482503,58.83521296200794 216.87803359435046,53.352458690634336 218.77384092196618,52.67444780945873 222.68765932254522,51.214914134549126 236.43377428801477,45.94640910262009 238.22928972473116,45.25920937945274 239.96582379078473,44.59384297316944 255.37865333062769,37.95965611424694 265.1848755744448,33.67278643542331 266.5658721381098,33.06844336458445 280.6785198017788,26.52371027532071 282.3256786353472,25.798341516067484 298.76168966022004,18.56098964296029 314.9097836350884,11.573307246430819 315.2516556802218,11.41191348285769 325.8134049342079,6.422607881312933 327.33828148570154,5.702658182735812 337.0638461163747,1.7626869241888912 338.9880053413102,1.0362971825169423 341.7280080776881,0 342.19711024281014,0.0676989898366258 347.77324513939357,0.8637511491765401 349.2414178966941,1.073366699010571 350.4870950175245,1.2521957012661693 358.2863013844124,2.5633727730835334 365.537947011884,3.8221655916799664 366.22294769581106,3.9421702976198056 372.2768238399074,5.07436129300194 373.6381075888667,5.556500618772268 376.0030170818277,7.349738479242242 377.0370366880982,8.634684155918183 378.55767223556995,10.517454323164632 379.1727748906433,11.41191348285769 379.3168119525959,11.621293421394371 380.39229915367326,14.808565006010204 380.98792460511504,16.575650008456474 381.0729802964048,17.476706285479796 380.9028689138253,18.84450861448423 380.98140602506993,21.503932274612588 380.996563687506,21.99471068260643 381.04242936023536,23.550295244560854 381.30647112823937,25.847427210623284 381.5245686861173,27.754072659702835 382.00662947482573,29.06305069239151 382.3230554958274,31.790094805238773 382.64160201895174,34.543291776165546 382.83574575787884,36.20992781336542 382.735375329806,37.25706311729037 382.7616067250032,38.363179791710714 382.97750524358503,39.63069022964839 383.17816756278046,40.52075131113987 383.2501860937567,40.841496873337064 383.3876260384907,41.45015948525978 384.08574242012793,41.89734979654745 385.11332198330365,42.55187808147855 384.7010021493251,43.452855821384155 384.3541037291042,44.2075974602085 383.43349171144325,45.564640204978446 383.4246955549285,45.57335782431968 381.72311050341335,48.082147305109395 380.1458496986987,50.40990874457063 377.73083352876324,54.341162383776314 376.9890505130231,55.24426062569289 376.4742397490723,55.87035847635388 376.273420355753,56.112566927362245 376.9628976549993,59.62930169351651 377.8923058293983,59.790773994207356 382.4845277964625,60.59358034511297 384.34750661188554,67.00307252882729 385.1765443577652,68.24435157167933 387.59156052770066,69.83040853274132 388.475103029147,70.63533538565791 388.9921913693442,71.108757092087 389.936757205956,71.96842431147704 391.479226070256,74.89825124553072 392.07697202382036,76.0370393582431 392.5023290183356,76.68065098464848 392.6211556674539,76.85947998690408 393.79599231401795,78.62876402847904 395.4583873474191,81.13535447014007 403.2771494548889,90.987442387133 406.4513838790238,95.95051659353634 406.72626376826844,98.7757320954394 406.44918483995093,104.90814535083621 406.3663281875108,106.75816554272869 406.31174489521703,107.94706033235981 405.14028534443577,108.35938016622674 401.826411936494,108.49682011090485 400.111632649872,108.8087695166431 399.2652382024834,108.96364469994788 396.32881415093203,109.50036731806783 395.85759148368743,109.58550154658693 394.3413540145847,110.25730799596505 391.8849487867927,111.34598943170293 391.44199947969435,111.54233220975871 389.16442325426954,112.55019895806134 377.15704139414964,120.34068770549644 376.3672722037808,120.91008176185264 371.50024888419904,124.40930275220671 366.6701380071545,129.44227498763115 362.66694437409024,134.47296964680922 357.3547727081141,139.64550232886694 354.54707098217864,141.91004139375505 353.8997681114079,142.30704649095048 351.5103550397279,143.77309874612843 347.77324513939357,145.52031385941038 345.02444624672415,146.80549514738365 338.2614585254029,149.7266044620961 324.8774781797638,155.49688309766245 324.56332973478527,155.63220254027377 311.7640581823971,161.56175443734645 301.89877603074365,166.18232830178627 292.1754889760937,171.54468518163145 286.24161753804873,175.1289618634427 282.3256786353472,177.13126551403428 280.1702276178732,178.23337679573004 277.8250309398411,179.3350953919488 281.8282245729053,180.9495042501632 282.3256786353472,181.15087340336228 282.5612899690811,181.24621745634764 285.67222348158094,182.5006121967425 288.1897305817119,183.51727510150408 288.5868142160808,183.67646982594854 290.50225582167513,184.1957572053302 293.2619713727587,184.94185976193103 299.5426626940742,186.64344481361357 301.68067847286574,187.22155648931098 310.5793258595586,189.3027899366242 311.6767249146377,189.56023458718636 312.30502180437156,189.70639215114988 312.9442353527428,189.9398044456993 313.86264833110766,190.27798524663478 315.34621436214155,190.82334694692244 317.73499913710305,191.70037086793303 318.8541529720601,192.11049166272707 320.4532470933798,192.69512191863706 321.43276194453,193.05513603645656 322.44934631211805,193.428187314757 323.92851426500624,193.99758137111317 324.8229734246435,194.34008171313252 326.0380996093044,194.80690630223134 331.28257228527656,195.1516842204971 336.3874845146154,195.8410044456754 338.27237518381696,195.8278887480768 338.78946352401414,195.8234906698752 342.3673001627864,195.7995368509244 347.77324513939357,195.76160342619167 349.5010615861059,195.74935163688795 350.4870950175245,195.74291159373732 351.6717488034127,195.73411543727838 352.3043652341188,198.8254146720229 353.1879077353419,200.52927729989602 354.3332929654962,200.42670783263867 354.677992346421,200.39835593554207 354.9877427132538,200.37000403838968 355.8451323564532,200.29586500534663 356.03275751511194,197.14346389815154 357.4856940725797,196.51296796923316 358.3713570759254,197.44009856721829 358.56118127365704,197.64083942347563 358.8120288070005,197.90260361517744 359.316079986661,199.79181382557454 359.4032561802966,200.03834181766675 359.54289516388013,200.44202256936597 359.87887692568694,201.4062226837889 359.9530159587858,201.6178801985162 360.39368768986094,202.88319159738097 360.52892859529874,203.26715953415132 360.7689380071784,203.95647975932962 358.707338837509,206.2668844971703 358.2797828041441,206.7489452858787 357.38336021673126,207.75469153211458 357.17154562782434,207.99250190492137 356.7329943986486,209.00688723343654 356.5104987626249,209.51737845635927 356.35122550106274,209.8860316564023 356.3184755255972,211.9564269823633 356.3163550236978,212.21159405673484 356.3097579062559,212.51482584313186 356.2879245894277,213.98747521564007 356.21606313257524,214.37576269349427 356.16579938147686,214.64412400252633 356.1112946263566,214.94515674985047 355.8451323564532,216.3850561469489 355.27361779808604,217.2008996582796 355.0815945610583,217.47577954758003 354.89177036332666,217.7463398957408 354.52091812415495,218.27646539647466 354.32677438522785,220.40348597962273 354.3027420291035,220.67404632778351 354.2765106339063,220.94672717795524 354.0780473540069,223.132650594481 354.0147464421487,224.1733458552553 353.99079262342104,224.5616333331653 353.63517658385894,230.31227769086468 353.004680654829,236.74792273265848 352.88027787085497,237.5093400259308 352.83668977392557,237.7864189543041 352.6251107965392,239.08228128944998 352.4833513106098,240.80569965807237 352.46583753475386,241.0369129134931 352.2629761764855,243.51303095604655 352.1757214458996,244.5623652990444 351.8592954248979,248.4369151439453 351.7415682953161,249.8680183845848 351.7327721385781,250.00765736833577 351.6477164472883,251.4452791891878 351.601929311286,252.1979788631189 351.54742455616577,253.083641866353 351.5277117412369,253.42841978461874 351.04777145465107,261.45436279149646 350.98235004089344,262.75682224397264 350.9692343434064,263.03170213321727 350.8449100963827,265.4990240193118 350.83179439889574,265.77178340660123 350.81655819928613,266.0466632958458 350.69875253230754,268.4246099493435 350.683516332698,268.6972907995152 350.67040063521097,268.96777261055826 350.5875439829941,270.62804714172523 350.51992353016357,271.96097899336473 350.45803628653584,273.20225803616097 350.4151550237217,274.0683652987016 350.3540531511595,275.00861159422954 349.9897194922562,280.64576982625744 349.9722842535737,280.9272468328881 349.95045093652226,281.2369971994977 349.7825385930156,283.8440366064609 349.7672238562325,284.36764352698225 349.75850623689126,284.6359262988966 349.7475895784771,284.94355616355097 349.65813580859515,287.8494292786539 349.64933965230364,288.10679539209826 349.6407005701359,288.4013880963276 349.5599644195952,290.95816375208085 349.5534458393268,291.2309231393145 349.46611257179063,293.99927777273314 349.45747348962294,294.50544945451617 349.4421587528398,295.5504642564302 349.42464497720704,296.6630995110631 349.38105688027764,299.57329216730557 349.3766588021319,299.81102400299466 349.33958928569405,302.2020078169732 349.33958928569405,309.3009773001013 349.3418668617173,317.3946978339334 349.0865427132777,318.79085206009023 349.0713065136681,320.056163458955 348.9600979641314,329.0093941379975 349.84576096747713,329.6398900669159 350.89729434960367,331.06015518620313 351.8724896595584,332.37557326198663 351.9182767955607,332.4366751345488 352.36986518504995,333.04533774647155 351.5866145747262,333.60381514435784 348.205277788301,336.0123127341366 347.77324513939357,337.1858142499785 347.6968285302715,337.3932307607396 347.6175060479613,338.6498245402632 347.50056428944504,340.5041642732395 347.2561567991964,344.3961493568229 347.30414297427154,345.67669695529725 347.33469391021777,346.5166513597584 347.3826800852929,347.7993979973056 347.1296335128766,348.87276469637203 346.9966701836852,349.43995971359954 346.89842025751165,349.8566776257238 346.87666547785693,349.9461313954384 346.7675774302196,350.04862232557804 344.1605380232564,352.4680365737709 338.7305606907481,356.2530541118953 338.73935684703963,356.34910499894016 338.8178939582843,357.2478836997171 338.8244125385526,357.31110607423443 339.2061814361385,361.62412861113756 339.22801475318994,361.8837723008284 339.5508808172865,365.5291508552018 339.65125124558256,366.641707572717 339.6774041036063,366.9363002768905 339.8300802477266,368.63356578748915 339.8955016614842,369.35351548601045 340.10715917626726,371.7074297834954 340.1747796288746,372.4426156816263 340.2424000817051,373.19955635957933 318.0840965963969,374.84019661293513 320.15221434611146,394.2410621233505 316.55254439051095,394.49410869565526 317.15248938314824,401.6758562940499 317.35566488988746,404.09746958137146 317.64994344559005,407.6054081911226 317.74803629741655,408.7878629376589 315.8545065460472,409.3572569940151 313.95869921820827,409.3572569940151 312.4620960268608,409.7303082723155 311.9559243450778,409.8568315584679 310.1714041037258,410.30190136774456 308.4828562125242,410.21896617829833 307.885110259183,410.188493779135 307.64729988637623,410.17749858360315 305.9959000487859,417.33529236304696 304.2898383817283,421.43665738516705 302.71257757723686,425.786749438508 300.9977982906148,431.5592271131472 300.7731036155182,432.75039947902474 299.6714635566404,438.56214570928626 299.6081626447821,440.2005083864515 298.4715735713658,444.93236933743407 298.5980968574624,446.7626767143977 298.04181849870486,449.88020734428363 298.0396194596319,449.88020734428363 297.3371049996257,453.8266971830431 297.15615549535914,455.67663883781785 296.19619638501393,463.6591508222249 295.26615991389644,469.54503608547367 294.30258809624786,475.6447779025784 293.7550273570547,479.04779093170805 292.85020129854837,478.9943071589507 292.3092376765739,479.00216087010864 290.1476607644759,478.9860607622599 287.67185687022595,478.6939812456302 287.060366922456,482.96160933223126 283.9727589319652,482.0939313274478 282.74852244231863,481.80774209420053 282.3256786353472,481.7104346133838 282.087632651243,481.6556942468546 278.31549519941984,480.4391543940747 277.5737121839029,480.2574980558045 276.64650304880007,479.9512033220397 275.09351021173035,479.405841621752 273.11154767284194,478.7646646457727 272.49723038883417,478.52528353077895 271.2689099692895,478.12348766973753 270.0694912068328,477.84601605583146 270.24753483813447,472.4611975621605 262.78344632481424,471.9746601581328 257.15751889972717,471.91944856895304 256.0189663983121,471.8087112421227 255.3603541837061,471.7903335581392 255.25998375541002,476.3614290424346 255.30467137187586,477.20915862093597 255.2593554586915,478.2394869830086 251.1261829065743,477.48380289888325 250.69415025766688,477.42120882125187 246.5803763720077,476.2817924116535 246.11127420666244,476.126838691231 245.70994956827155,475.9937968248103 239.34616598321858,474.0471759861048 237.27954043868482,474.0471759861048 236.60043003786114,473.8520898018767 235.71492410886248,472.04840650558725 235.2419736251397,470.75670663734564 235.23278478320375,469.54503608547367 235.2230461812764,468.245168357659 227.5253097624442,467.32785489860737 227.12280706734336,465.8952594528429 226.68032898261652,465.2477209708306 222.48817506005975,462.49326740613196 222.1042856603513,462.34710984216844 221.602512056714,462.225141708453 221.00610123420662,462.40860440026336 220.2293692041512,463.3702127900248 219.15215418681888,464.1263680968565 218.4435923693622,463.9799749215398 217.9647516020896,463.12981069255653 217.0558416139083,462.00547340833236 216.87803359435046,461.9529320809318 213.10000585897748,460.8355060625087 208.4889349852235,459.54851842093956 208.10504558551506,462.45855400300246 207.96187243157837,464.04641731760455 208.01292155396553,466.94129523717555 206.37911402940475,467.97405824973004 207.64426835386666,469.54503608547367 207.92700195421344,469.8962540468342 208.06444189894734,470.1209487220424 208.50731266909537,470.8474170008321 209.93409636853937,473.8253086469112 210.2111752970801,474.6040826418041 210.18494390188286,474.8833606092503 209.6264665038292,475.577078912686 209.1290909785609,476.1967367201963 208.7799935192671,476.6308898710031 208.14957612741065,477.41626098322627 207.22888557257616,478.1688035829219 206.54608392772198,478.9367394564626 205.91990753988748,479.6392539163014 205.35491156178867,480.27406938630367 205.3766663416666,480.45949550588955 205.60575909513216,481.20779710156324 205.58612481715357,481.48267699086364 204.851017456252,484.373235369295 205.1018649895955,485.82397288774564 205.4509624488893,486.9475248008485 205.86980086291297,488.3000909302991 206.49150063542817,490.3049863054964 206.72711196916208,492.34695119718725 206.99327423884225,494.6376431201549 206.3257873307712,497.7835256471374 205.9897270317909,499.3695040711375 205.85668516542594,500.00000000000006 203.76885460078248,499.9825647613176 200.92628239725886,499.9563333661762 199.76786000679112,499.9476157468349 198.5330995441516,499.936699088365 194.97497572030827,492.14196933690795 194.93350812550145,492.0524370301315 190.81690690405082,479.52576779057415 189.7216283508711,476.2425238560312 188.6701735059181,473.092321787909 186.94777611971443,469.54503608547367 182.8802605926522,461.1677180429999 180.13585977812858,455.51304603517184 176.8285049504552,449.629281273934 176.81106971177272,449.59880887477067 173.05872361182875,442.9187563428398 170.21615140830514,438.88281273436576 166.11250880999447,434.0265489992417 161.29779120668337,428.68398347138736 160.39681346677776,427.78292719436405 156.81457874985975,424.2072895947763 151.8842545188662,419.4645119853237 151.6987498621068,419.28568298306817 151.43046709008084,419.01402311537095 146.96256937004034,414.49052112045047 142.22858791704678,409.8240815831139 139.98148409061793,407.6621905225451 136.28042272458165,404.09746958137146 132.04491631639283,400.01793787619124 128.2489821199659,396.64288405862544 122.91277809808861,392.0333053898291 117.07055946877533,386.9763793355096 111.34598943187034,381.99571281618836 103.6188015959587,374.2227378445535 102.28155020334695,372.73712984868206 98.26736137469506,368.8473438042274 95.89821087748892,366.0526792385496 93.77331079640763,363.5177368997362 90.1846360363948,358.6178850678502 90.16500175841622,358.5916536727088 88.5309586225581,356.3337902622687 87.05186920706667,353.53260711637836 85.98290058603446,351.3815541771617 84.36417218673623,348.1244631006425 82.95702276504757,344.74296923998185 82.14110071665495,342.7795414594798 81.96871175738256,342.419605878778 80.19518671184147,338.69349117408706 80.32532270524146,338.6498245402632 81.74621612135888,338.17420379470536 85.98290058603446,336.7548811207191 87.39868909011406,336.28067404316863 89.42321874312248,335.40365012221383 92.33348993642691,334.1383387233491 96.88424430890751,332.1618737823661 99.2906213966753,330.7590439017613 105.10888620726098,326.5507113341823 108.05182883885747,323.6099677416587 108.96804277837266,322.55411481844834 110.91183628106356,320.31140907044426 113.13050967299908,316.13150693707956 114.92602510971545,311.539284969848 116.60797588347522,307.5949156330995 117.33664320150518,305.65764071062114 119.25428384617238,302.2587901483399 122.14264318547505,297.77125815037664 124.40718225036315,294.4028799872588 125.5241370462473,292.7579987298811 128.2467045437195,289.62523190044135 129.86331244111835,288.3816752813987 134.33772874142718,283.47530486930015 139.1262934867146,277.20105359102365 140.34141967137552,275.7808670088541 142.5490193307731,273.20225803616097 144.804997850667,270.5668667321011 150.02771574676117,264.7311666828888 151.43046709008084,262.81501824340245 154.4389096726085,258.7055638988271 155.68238775458923,256.2819086465565 157.98399633591515,250.7537599249366 159.61796093482297,244.48602722692846 160.85931851468112,242.67747462973117 162.47804691397937,240.32356033230204 163.2241494706918,239.14330462483863 169.749248282256,231.87642279792487 173.66518718473438,227.7772568149335 175.8424715190366,225.72877334297428 179.69503097292963,222.87088640283497 180.04200793010082,222.63747410828557 185.04435069207068,219.28873022297887 183.26202949023804,217.27723773039557 182.62061690279396,216.55516752986327 182.30866749711151,212.14405214107785 182.30866749711151,207.75469153211458 182.30866749711151,205.62327287076494 182.05994046566738,204.13326679669197 180.42809636888214,203.91281312550572 180.17944787483475,201.05720376155702 179.24572015946356,199.87694805414944 174.89342906710553,198.94322033883404 171.84799550531358,198.52658096382746 170.35579039211194,198.32364106844142 168.80028436727522,198.0880297347633 168.1064875268334,197.981219263484 165.44714240359957,197.57753851184057 161.59670345205234,197.18273245371805 157.4472737177394,196.7594959613812 155.77616106544346,196.58710700222042 155.12610939560844,196.5216855885744 151.43046709008084,196.26596875449044 150.6494940562267,196.21193522196484 146.22738347196525,196.96235731964953 144.80719688973988,197.20668627266886 141.44973538509197,196.95803777850986 137.71914406502594,196.2751575964822 133.8643070351097,195.4068512948128 133.11168589812894,195.04251763590943 132.53797230068886,194.76323966840744 131.93794877087808,194.47320211667096 131.12870237710084,193.0223860611026 130.65960021175562,192.18031115457467 128.242385002524,187.8477328770339 125.42376661795122,185.81660610669522 124.94382633136539,185.4719067255472 123.53235736848124,185.03123499447207 120.50867858656724,184.08447011873162 120.0265392606853,183.9339144765107 118.29220423370461,183.39507135643558 118.24421805885267,183.37975661976407 115.94480851637641,182.88677917264152 115.39936827885943,182.7689735058304 115.06566409329905,184.21311390689496 111.83032779682516,183.24019617313078 111.70160547143247,183.20312665663715 110.7678777560613,182.9216496500065 108.56883864210435,182.26068132198054 107.61767568805071,181.99012097381978 106.32613289404449,181.62138923665904 105.66516456601857,181.4338426150622 105.36413181875025,181.3487083864873 103.91111672410901,180.9342680506094 100.4424466699244,179.9481560821289 99.3865152096521,179.64712333480477 99.38219566845663,179.65584095414602 99.06584818440521,180.43901302724046 98.99382965342892,180.61572152748508 98.5684726591369,181.6694539487403 98.10816665030643,183.05037197528753 97.18535559334936,186.1394721709034 96.0683222605149,186.6674771696263 95.81967376624429,187.7320477122337 95.60589574956184,188.6396225694696 94.61978378119295,190.74268933372264 93.14713440879635,193.2841502528044 92.97922206484326,193.64856244882552 92.50360131945288,194.6869015962915 92.1284295390857,195.50290218185765 91.93868387830437,195.91734251773553 90.7518310535665,198.5025486077589 90.43548356951507,199.18974833098207 90.09298322743994,199.9402489657845 89.13310265426827,202.0279224561925 88.66400048892304,202.71959879473496 87.88302745484566,203.8693035658615 86.43668801481981,203.6729607878057 85.98290058603446,203.87998461297823 84.1329589313713,204.7244156328145 82.85665233697469,205.52510148170913 81.83127181287186,206.1708336101813 81.33216847090216,207.75469153211458 79.5930426801313,213.27184505820262 79.06723672059289,215.96833823482459 78.74444919344663,217.2314505945607 78.58949547307994,217.8401132065392 78.27746753000076,219.05531792842947 75.70765471404562,218.91779944668943 70.99315046446034,218.66043333318922 70.42375640821575,218.62988239696392 69.42468581648367,221.5074036149144 68.78327322903958,223.35954430881785 68.17241157798819,225.12003219393387 67.5287999514712,226.97877000516758 63.250726429162334,225.9927365738048 62.89511038960019,223.3922157471099 62.461035775743724,220.20722173868467 62.70096665044988,219.51554540019802 63.11980506469676,218.3004192153697 61.93522981620531,217.3143857840069 58.51226836084946,216.92170022789534 57.19904932413884,216.60535274389972 53.31358282065641,215.67162502864014 49.68783854420575,215.1174671718935 47.72229026163692,214.8164344245694 42.52352618449357,214.15986417474505 41.62254844458796,213.99179475677974 40.20660286638454,213.72571102393826 38.91945815052411,213.4857016120586 38.20830460857335,213.35258120852012 36.744451392468285,212.04580221496016 36.69426617854346,212.00213558113626 35.29371387407345,210.7499398798143 35.11488487170624,210.59074515536983 37.44256777410556,207.75469153211458 45.31379267196977,198.16444634399699 46.391400374946485,196.88601924753357 53.56670793024631,188.37777984065005 55.0937835208129,186.61289387733248 58.99668526275458,182.10572760155804 61.594928513426275,178.7133956195452 63.72634717477592,176.1565414266742 70.0834551052135,168.5232054387903 68.8879631980847,168.04546419122155 68.78539373093895,168.00619563559923 66.89398448146898,167.2490978834666 64.04701419979959,166.11250880988285 66.74562787832095,163.48151558402463 66.93985015442156,163.0386448138766 67.24080436473957,162.35584316891084 67.30630431544752,162.20960706782958 67.33033667134865,161.9566390325867 67.34777191025432,161.78205103435306 67.4742951961277,160.4316839440311 67.43070709964474,159.90587798443687 67.336855251617,158.81295554467707 66.2832013675911,158.4180709494926 66.4773451065182,157.54976464782325 66.67800742571364,156.6422683277051 66.27880328944534,155.75652678735327 65.16616803453343,153.29140394038745 62.58536002276742,153.48994575751613 59.258449454512196,153.74731187101636 57.4651330568687,153.88475181563868 54.98689451224846,153.48334864018585 52.325428887338454,153.5465710147032 51.38730309382151,153.56848286876075 51.025089936817494,153.57712195098426 50.64332103923165,153.5858395703255 44.000495098085636,153.74511283188767 38.47226783918063,153.74511283188767 36.43030294748974,153.6141914674779 35.96127931931803,152.20492154377825 35.725667985807334,151.50028658192846 35.20206106534181,149.92734531840927 34.918463556532735,149.0765527925401 32.35077124247695,149.01113137889408 30.175685947247615,146.86659701994583 27.677813124872017,144.41011325520353 26.334592911760147,142.30704649095048 24.045393193805968,138.7227698091392 22.51611856416649,138.75764028650414 21.15051527423494,138.78819122278523 20.535255545037767,138.64376147524408 18.912207604544072,138.2623852631352 18.05913750231689,137.86969970707943 17.653414785780225,136.69164303874473 17.400289676413543,135.9608552188712 17.53121104087911,133.06809780131115 15.358324784722654,129.38769169533734 15.142818951562017,128.40801976995166 14.553397931694462,125.73571602363366 13.50186454979115,125.0768681975629 10.803172333873064,126.0629801660434 10.253412555383829,126.72834657232671 9.553254208797497,127.57694005906718 9.319763377186169,126.9814716817492 8.815869271649515,125.68985035068107 8.713221267330232,125.43028519805215 7.9278501551070875,123.41455170150269 7.3169885040556855,121.85464759846441 6.378941247712256,118.34890802784199 6.261214117907216,117.90603725769397 6.051755642197013,116.5818230253957 5.868528561907252,115.41248397645803 5.813866732439914,114.82125660316198 5.687421983293639,113.4621718935546 5.539065380145602,111.86087873288302 5.3579588017552044,110.16141418321146 5.0787593713151225,107.52382383996715 5.462648771023545,106.3807161861709 5.862009981638902,105.18302524008084 5.709176763171573,104.03771854715589 5.659070086197049,103.65155157131267 5.491079205293657,102.39275875266043 5.288217847025325,100.85256746455103 5.161694560928744,99.8992054714245 5.093995570924706,99.39743186784301 4.895532290802145,97.90742579377005 4.6380876402399975,95.96143325200626 4.3915596483151855,94.1114915972315 4.304304917506099,93.4461251909482 4.151550236212291,92.29642041982167Z"/></svg>