<svg xmlns="http://www.w3.org/2000/svg" width="500" height="500" viewBox="0 0 500 500"><path d="M204.8258507259224,441.09991274253895 203.90990511242612,442.161846270885 203.69561810432162,442.4072088072145 208.35638846908748,452.82477672003984 215.96989295458295,469.8590847742197 221.25172675962372,482.2141783552051 225.25734002869052,491.5821088121819 223.56808324133488,491.5821088121819 222.48435213006223,491.57909068530046 220.52514066122316,491.57909068530046 217.43860291557598,491.6039063951085 203.5993733921298,491.7125589624426 200.56883866723982,491.7560423458893 200.05955770366634,491.76230216454456 198.98219819353486,491.7778399288159 189.07704115357092,491.6970211981712 188.47464538677582,491.6908731620019 187.17349735842848,491.68148343389987 183.48165750151125,491.55740488485975 183.09041883321504,490.72507256360007 182.537654486036,489.55582785767143 181.9912617403158,488.3994381365111 181.64652458203003,487.6635740926533 180.23057595025864,484.6609849869387 177.02934938343506,484.80999102835216 176.56969983947764,487.11080974555364 172.6542950291575,487.4400091393298 170.21363643359328,487.19475838548624 166.04660926852668,487.07984599949685 165.57153374262495,487.06743814459287 161.4790654895478,486.9525257586035 160.38303830593645,487.94616019361536 160.26823770219474,488.05168285166155 160.01661534713057,488.27837771427295 158.8987905804338,489.29056804051703 157.53258515084383,490.02341395757287 154.01769695443602,492.94842602449603 153.15440088696064,493.40181574979823 152.6359537606541,493.67188221344986 150.0182317216974,495.04434746193334 145.96622872518552,496.994280984918 144.3918843238192,497.40418732685293 143.93245834467476,497.52222962220964 139.7095399414163,498.6213867152677 130.95317141396765,500 125.43860649279091,499.44723565290036 122.7806427627173,499.02190332918 118.63843130714103,498.3574682878649 115.68558540384608,497.885410888924 115.42792679470135,497.84505741484463 114.67954311385076,497.7239969926065 111.1614132255897,496.8608127077759 110.55286942246642,496.82660726994527 110.03118060398891,496.7956435238885 108.37009300085987,497.1278610445461 105.51650993647931,497.92587614540986 105.205978216183,498.03452871274396 103.03236795762722,498.78593052087314 102.26241025818643,499.0528670751574 100.78118065972404,499.2051148084241 100.55761570663886,499.22680060886483 99.06420181840313,499.3821782514195 95.52740425666224,499.3013595207748 92.94086952897243,499.3013595207748 90.07186048296528,499.11814804153073 89.38562785856467,499.0750000055417 88.93547982503631,499.046830821474 84.83675175306561,498.78280061158523 82.68493907727758,498.6462024250757 80.95845872520988,498.5375498577416 79.85930163231066,498.466120855199 77.36588170752475,498.3077250857629 77.2540992308233,498.29844714014683 77.24783941224749,498.29844714014683 76.11145875463622,498.22701813760415 71.14954639775549,498.08416013236 70.20554338228021,498.059344422552 68.19345880228957,498.00032327491334 63.340310795387715,497.70231119208637 62.998703546707546,497.6805136091598 62.48327454680587,497.649549863103 58.21083650617901,497.38551965321426 52.528486087543605,497.1525649718682 52.093764035641826,497.13400908071543 47.153649261846546,496.92900001854474 45.3308124150217,497.0750997155627 41.781830563189764,497.36070394340624 41.00561304517316,497.4228550004122 40.57089099358909,497.4569486558363 37.49374297580563,489.0049638126735 33.665193150131294,477.6651904672201 32.41691823293554,474.1906557450505 32.336211284935644,473.9639608823597 31.109733950825333,470.56085516273276 29.454682601459144,465.95295790959506 28.45177022075173,462.44410596710895 27.883468109380757,459.2832328743648 26.02676117194476,448.1112450265289 25.141779304266983,442.7766498925841 24.887138822162534,441.2521604758057 23.856280822676894,431.93374965595905 23.042839739948253,424.93191888255706 22.809773275798577,422.9290004656966 22.028637329037128,416.585456697361 21.480903193485968,412.1359552136594 20.499676613298668,402.8548797410107 19.419075411313933,394.1264568330551 19.102395655007133,391.56484959773866 18.47518417840401,385.4943904199361 17.217631315909856,375.3718164629769 16.50345307241331,369.5715355312324 16.087398694309073,366.1870974852442 15.848295976714255,364.17188299588616 14.690117736017536,354.4593271633478 13.35800596153397,344.6316353798482 12.67177333713336,337.83470188621044 12.448208383730465,335.62688618950637 10.858549783302927,324.64749954893716 10.744867004261499,323.4334300698897 10.641021083662878,322.3247714663231 9.74374314364643,312.5065811932526 9.520178190243536,310.04736670661504 8.597972757853725,300.71051177818094 8.237809617941359,298.35067191326135 7.626135905530161,294.3637263179921 7.182024125764646,291.472807906493 6.380990897940019,287.56668104186843 5.477341356464702,283.1512732135909 5.2817220224754475,282.3874635504783 5.247628367051324,282.2632732189523 4.67004831006425,280.02449377627084 4.654510545554621,279.9592128098975 4.123543781778729,277.90375662894604 4.108117799834441,277.79510406161194 4.089338343789264,277.6708019476 2.9933111601779463,269.8646962545996 2.0990513468840706,259.7546419350303 1.819595155289304,251.68450603206168 1.2296072430805136,241.59624929549844 0.9531691785260229,238.5811405523939 0.5215770362298613,233.8366451127467 0.3139969769625495,230.28129165993246 0,224.9126028705636 0.2080271888932664,219.72410743363682 1.2264773341103063,214.28097151492332 1.97474923271327,209.812802357583 3.744712968068822,200.13735830727072 4.018021123653106,197.8861710097647 4.4620211211709835,194.206627225345 6.529996939353501,179.62840374843537 7.694434998943749,173.43051254725356 8.68795765146972,168.13649445236 9.728205379136803,164.61534643737636 10.756045252217579,161.13142198710477 12.50108149551747,150.65460936158956 13.280428922504282,145.81107464768212 14.651888128852839,137.12926503246115 15.975616217607625,128.75183910120833 17.34193342976295,117.39026817282831 17.599480256024627,114.75723193496923 18.59937451000947,109.14016248254829 18.602504419297382,109.14016248254829 19.39425970150591,104.70295707126476 19.21417813170858,102.09786645258103 20.831894133797395,95.36297223346332 20.921990810296435,93.0310779877191 22.489963610203862,84.75917471443304 22.809773275798577,83.06376989082864 25.25043187168052,74.8477578558933 27.495359350372453,68.65623825585263 29.923610091032682,62.81873375939613 32.27406022785024,52.630990618549525 32.6125375672425,52.64664016522737 33.46331399693081,52.690011766188164 35.86663724521767,52.808054061544865 38.406558680331706,52.17458276628649 39.126996742404074,51.994501196409736 41.25712361767199,51.46353443223671 43.955440822063245,51.46353443223671 46.650516334283544,50.65311147638949 46.510900021051505,48.97011450768909 46.092051081037674,43.97723840491042 45.80286981388315,40.53053751943029 44.94896347458922,30.30870072315956 50.072401510035085,29.948537583406043 47.12883355203852,2.33513593751804 78.66691795362448,0 81.08890887570887,0.01251963738992672 82.7066248777977,0.5497462202182005 83.33383635440082,6.837398750203056 89.38562785856467,7.152066422001669 93.6705855366609,7.374737115517245 101.4892108672101,8.72216308930033 106.43256733254094,10.156779394789819 109.12462471835637,11.591283917872818 113.87526819417288,13.56614493315143 118.85271831492783,14.491480274988005 124.51886027461467,14.539211392502352 138.27123481405047,14.068495383233602 138.82724085276507,20.893262713640244 142.19166983536306,20.669921325209177 146.79431331221875,20.510295948586894 146.37915319400184,15.171453080495086 146.31085410090594,12.69670082958615 146.32538582296291,10.895549783122558 146.27989035476975,10.594631355900084 146.68353687796997,10.495256734182075 149.18623474805426,10.4020301486334 150.9209870036031,10.373525617028463 161.6489748538417,10.179471237603739 162.25349448778974,10.21825975695973 162.95459418130795,10.627830751436887 165.45047332030742,12.33966759912055 171.17004730397255,13.168758228527027 170.47442495170822,15.630990842125462 170.03355486379596,17.18666756985307 170.91540682218582,17.88530804899884 171.52719231716236,18.25173100748703 171.6730684489702,18.33858599189454 172.90893551094425,18.62117209293607 180.01014090614368,19.428576921822437 182.2550683851533,19.03107843487097 182.537654486036,19.016211365435684 182.95996868303376,18.99385487007951 183.86663635123165,18.88833221211274 184.03431006612496,19.018670579887534 184.0468297035943,19.245253660092427 184.9093432937477,27.656996811741205 185.58786292685846,33.517752063282344 185.8085215357864,35.308060209565305 185.22702909218947,35.908332109286874 185.9684822600253,43.97723840491042 186.26649434253457,47.222283702559025 193.57282058247,47.69612962111569 194.56455471553906,58.21139541860858 189.5008085226473,59.28651927918062 191.55391727171224,76.35771555069418 192.43599279491508,82.00340131720597 194.90180244766566,82.1095946700088 196.5822284193489,95.57099942251544 196.81697162039015,97.79848883499318 185.84149736651025,98.2320930620358 182.537654486036,98.36802055362979 170.53970591808152,98.86556435729418 172.30340983517894,101.5452138878879 172.34689321846682,101.61351298114263 174.20371193846816,104.44216855322925 181.81732820652897,103.84905073197083 182.537654486036,103.79226523389164 184.54046112041053,103.63487550674937 185.48435235363817,114.18579991423091 185.5215759183502,114.58642831062915 186.19227077824118,122.10692977578604 186.22960612551856,122.51068808147218 186.60530702930515,126.70867899267499 186.79466654503628,128.81074846636105 186.84753965650557,129.39145843263603 186.90644902142,130.06204151019995 187.21396261499376,133.45911097606404 187.22324056060987,133.57089345268608 187.54461518084852,137.12926503246115 187.81322847250095,140.10703842836776 187.8504520368953,140.5137030784494 188.05847922610624,142.8207816143856 188.07703511733845,143.01651273101962 188.4031046018267,146.63077554906602 188.55222242548783,147.94120152302946 188.85962423649622,150.62688730738603 188.85962423649622,150.64868489031264 190.02406229576877,160.81474223071854 190.24136743059583,163.0006485619307 190.58599280599856,166.4752950665862 191.24126168426298,173.13250046442658 192.90860910628552,189.97141274943016 193.02978131085072,192.8372918861494 193.0544852380934,193.3993341788651 193.08869067608288,194.19734927972888 193.3871498888535,196.316856819788 193.68169671501423,198.66149426789397 201.30626766558274,198.78792024897945 207.24538243347553,198.78792024897945 209.9271558312222,199.10392931052962 209.81235522779818,194.73826468435408 216.9009292029629,194.29515894680293 222.18846391407052,193.88402299768183 221.7289261526784,188.1576302830113 227.24628563576474,187.80953965070404 228.6641345698761,193.09305019279526 231.80656355403286,194.0104489787673 232.3428958771327,197.01605621136335 236.40440038407365,197.93334321484946 236.97929766171646,196.25660606488373 242.19014959399942,196.95267554709173 242.6116813133575,196.47804715113367 248.02396526857956,197.5737389874461 247.97701662830778,195.92371784939007 255.76914951183966,196.25850636698542 255.52110419632476,194.965518459395 257.7455754817622,195.0862435341754 258.6988564428536,192.37618916987503 260.0755694253253,192.2265124336255 260.47083226279676,191.4738810182307 264.05871441655,191.8185063937923 263.23655430071426,194.86301392830967 266.2913458229033,195.53370878828008 266.79906183183283,193.8387510946193 271.26656029425766,195.49983869782778 272.55239412322607,195.87900485867775 275.6856569446498,195.67153658205518 275.6897928960726,195.649180086699 276.42107385840507,191.5834278453727 276.70533669649706,191.44526470421928 278.1116720355917,191.5142344923101 279.635043627511,191.79089612207468 282.59828530144,193.06242179419624 284.4354303055089,193.61820426817727 284.7578109682002,193.11764233763145 285.6809106604773,193.23747315260394 286.55001941658486,191.77692331252672 288.3749801305627,191.65239763346352 288.92729734779806,190.72650337927678 290.193457460834,190.61092029837192 299.849451360265,192.95902300322356 301.6180737061073,188.62286895086734 302.95130330529116,188.57815596023443 309.5639074949845,191.97064234457312 312.82795581365014,191.8583009555215 315.3787201487065,190.94939763776418 315.84854189816735,190.98203812095085 316.39292255961766,190.98203812095085 318.1546143918098,191.12020126210427 321.8901611968278,191.4120653086825 326.02287114165733,191.94918010902484 328.5443484681045,191.868584943352 329.14350254272864,191.84991726979274 329.74902821912934,191.82811968678672 331.59645721094927,191.76909853914808 334.07445115347315,191.30341274134838 334.13649042831094,191.29100488644437 339.6852607871594,190.24460912236967 341.12602512905653,190.3377239254324 342.3493725535612,190.41843087359118 347.1342214673672,190.72896259372862 347.30815500115403,190.74137044863264 347.95090424194905,190.78172392271202 351.81365950561286,189.43720429340388 354.6765205156095,189.64210157316808 354.8690099403109,189.70112272080672 354.96525465250267,189.93094749286485 355.01499785468405,191.0487722594822 355.02729392702275,191.27233721280567 355.0490915101082,191.76608041226666 359.27502804040694,191.80643388634604 360.12580447041296,191.8033039769787 360.79348120358134,191.80017406761135 361.33685582257897,191.80017406761135 363.6159887392604,191.79089612207468 368.4411911270663,191.94616198214342 368.84181952354396,190.9977994501146 368.92252647154385,190.80665141500594 369.1244056247443,190.32218616116106 369.2485959560321,190.151382536821 369.8789373422408,189.8191650161634 370.6863421708889,189.6111378271113 374.3471064994223,189.73532815863732 374.539707706689,189.79747921572272 374.7507530226225,191.19163026464693 374.78495846029426,191.40893539931514 374.9526321755053,191.54240367645727 375.98349017530865,191.72259702881993 376.5703481779118,191.82811968678672 377.2907862399842,191.95231001839218 377.9894267189711,192.07661213248355 381.8178647623978,192.13250337075485 383.44810040195597,192.21321031891358 384.0907378601857,192.2473039743377 385.4135716893708,192.31258494071102 386.9723783265452,192.5578356944752 388.0839432743485,192.7316574456967 389.9966532325417,193.03291122029748 390.1053057999552,193.10422844043364 391.7820429498415,194.18795955170629 393.99913659200286,195.82747313695998 395.11371966684635,197.5973250899885 394.8032997291154,198.56614381527177 394.75679821910495,198.6996120924139 394.5083057733287,199.46979335666765 395.11696135869965,199.46979335666765 398.9113057467022,200.12796857924815 400.53528156768454,199.99751842898743 402.10023624118713,199.87332809738197 403.45403381587306,199.12505619862014 403.50064710876654,199.10024048881212 405.4909341056717,198.00108339575405 410.30059872928575,196.23123144272554 415.1973419020408,194.87419217594805 417.58825729542366,194.62894142218389 421.90429050190374,194.50475109057842 422.5099279605521,194.48608341701916 425.9719430454906,194.38670879522175 428.60822097504405,194.30913175643033 424.39771042637193,196.0323704167242 422.65569231011233,196.74654866014131 417.02934491223414,199.05049728671017 416.4736742205801,199.27719214932154 416.1227890262839,199.51014683074703 414.2410428142269,200.76456978387384 412.9027830034151,202.3233764209688 411.0831878484435,203.6211709750564 406.7981183877819,207.37829179826753 405.5717528365547,208.9370984354419 403.71795224327593,209.94001081606987 399.821103324188,213.94562408489838 399.13487069978737,215.40181440842207 395.3902695142839,220.07812253730043 392.11739037962815,223.1086572621904 391.17349914703595,224.15192311689776 389.0899855643438,226.35716781658468 395.1908495759324,230.28129165993246 397.537834455766,231.7910257897615 386.7329402612544,243.47475381586102 382.19993726764324,248.30934593161012 380.6472786667971,249.61340030443242 379.4146532966763,250.64437008672166 376.16971978143414,254.19335193839476 375.7412575481082,254.66540933733563 373.5831850537444,257.0252492022552 368.84181952354396,262.29366911001875 367.3514237620308,263.9496147193517 367.27686485004136,264.0334515767983 366.7209705938921,264.6295875248588 365.81441470794186,265.59840625014203 365.1404781561977,266.3249923484632 342.7809646961751,290.28992573839474 341.5731550358623,291.5878320749683 340.37149341156004,292.87020064727045 339.19464749738347,294.1340133284993 335.71698286568767,297.8600586231677 335.639405826658,297.9438954806938 333.56204028061177,300.1702670684712 332.6087593195204,301.2724422883313 328.46352973753926,306.06042111142517 326.68126992952733,308.3924271395759 325.1378892739795,310.097109908717 324.0325841447521,311.31419751472527 323.41163248704254,312.00356004825494 321.1572034972861,314.49083193655383 320.2134240469415,315.53409779134057 313.08438481521154,323.4334300698897 309.06301021682214,327.88919137224656 305.7126658263374,332.00960524465796 304.75323682923556,333.1863393765075 302.62009182692736,335.81020945123635 297.97798913595904,340.86523661110044 292.8950163570785,346.0599918666825 287.0730496248933,352.31679243309645 286.21277168445823,353.2388860831592 285.7936991793137,353.68914589917347 284.94918256820125,354.7293936269994 284.04866293633154,355.8409585749615 282.45263273444516,357.213423823445 278.28247565977296,361.6878527994406 276.85411917309756,363.21558390807223 275.6897928960726,364.4644177373799 273.9509046891009,366.329843707923 271.92015243531273,368.5096020029658 269.93612525730106,370.6365989689458 269.66594701100473,370.92857479800995 263.7010104911689,377.3248798953289 263.260140402939,377.79693729426975 259.403756740734,381.9328889308731 259.12117063985136,382.23727261484123 257.0128413473512,384.49762607555687 255.58135495107018,386.0347469121317 254.98197731099765,386.67738437052026 250.61016464889104,391.3629704449353 250.11329153990388,391.8970671183962 246.07045470644275,396.2316562161085 245.3874637742131,396.96450213308486 244.47140637783377,397.9705444230802 244.09257556412385,398.3897287106312 241.61480518673062,401.115991534039 240.35099250534296,402.51014258296317 232.26543062066833,411.41238724221967 227.26618291651022,416.585456697361 224.40332190683125,419.5476923289963 219.19302888705732,425.19270740059255 218.94151831424077,425.4627738642442 218.5534095555502,425.8882179704504 212.6413461471837,432.29715448764523 212.12580536471668,432.85293696162626 211.8153854269857,433.1914143009391 209.5207147457947,435.6784626242661 205.45619211181344,440.3733266442178 204.8258507259224,441.09991274253895Z"/></svg>