<svg xmlns="http://www.w3.org/2000/svg" width="500" height="500" viewBox="0 0 500 500"><path d="M33.82258705856937,208.69648847458885 34.023898991982676,206.5794008402141 34.11266952706553,205.64610219413075 34.04993003546687,204.368788498107 34.465569424257104,201.68431763674872 34.690652220918025,198.99330004580486 35.07386971099817,197.77880377847652 35.55022222221926,196.21351191977814 35.9818387486312,194.7998080249688 35.998361447037865,194.74571956899877 37.88833991597154,191.21905871436095 39.13533601921748,188.91990964890434 40.323879180269145,187.31128467563067 42.75287171514731,184.43633515951674 43.80931122626395,183.47731721883466 44.837693325171635,182.22159214280796 46.46790691849772,180.65637822142787 47.74732492045375,178.5823119525768 48.51375990039252,177.01499372526442 49.793255839666834,175.14013508394973 51.077038328124004,173.26098989356296 52.67693432856153,171.44029764548125 54.763938181947175,169.65639178249998 60.204348368710896,166.20119939202007 74.17678383172706,155.3008167668327 86.12713717587455,145.18837980448438 88.53235884728359,142.878475397633 90.37253540948547,141.15084023376158 92.40326856381664,139.36911661392014 94.72408418642244,137.21500878276697 98.02558430724719,134.33351253706746 98.61666046016006,133.81826933464748 98.97166466317317,133.50215582244562 103.07311278421666,129.85212029087506 117.01195728963457,117.44708099254494 121.70767699120388,112.98306875454038 131.99103035703558,102.70836642417117 140.21769746214866,94.42309050211648 146.05652290387442,88.38949985634146 148.18039107956807,86.53420346640983 156.52832855579237,78.20567236704277 163.73316029163874,70.92072113163142 163.9193523972669,70.76289818726381 168.56963467838403,66.82246843814549 170.45548247277142,64.90443255672596 172.3604248950752,62.96675648677125 182.1479414353995,53.722618498504914 190.37039992864803,46.33580326889497 193.974998039711,43.38509873949566 203.57211386254258,35.13458283381668 205.16764537670048,33.79445170904213 213.02418845101533,27.195738016686274 218.13336529779204,23.682092683901327 223.17980265341313,20.726945730848737 227.95564185460282,18.7005770630187 228.86704013158214,18.316969886734796 233.12553182425341,16.524802674550205 242.01684785248034,14.07196133938303 245.50235783579342,13.004610612179688 260.2562701692152,8.86754516503467 270.87093481213066,5.817158884576572 284.40824657207037,1.1777098822832373 286.58176078008074,0.47845681737489393 288.07129762554916,0 289.8312767508124,3.697655195273308 290.0023490288769,4.05484164159236 290.81203918612806,6.003273052997216 292.20844101001245,9.358939566944137 293.81480580277264,12.591153466695404 294.8756098006119,14.725776983783808 296.3434021513359,17.50556510981051 297.964964708978,19.74618329564381 297.9844490232643,19.77221433929414 301.5457140196966,24.634641832316113 303.6543844302868,27.150222658915805 306.00543970868443,29.923541992675222 309.98896876064475,33.783618430384465 311.31600642619276,35.2578795735419 318.98417515173963,42.97148571948557 324.66502177490423,47.91411064939082 330.4626184080424,52.93241265531854 335.75806529798706,57.50678404845836 339.52500671411235,60.856059707400895 343.728162954884,64.90443255672596 347.4009561651737,68.44192669002143 349.63089694709663,70.5873055485046 354.32872095448744,75.21810351533546 358.7624935368664,79.70705567542043 359.02872720501813,79.97664064548945 359.2128150048248,80.15410377844762 364.10548215330624,84.86065675856385 367.6603562947342,88.40898417046161 368.55445250078856,89.30315831377887 373.3323960077998,94.60491812146503 377.4046955948429,99.42409043711925 380.22555665504217,103.42920810913195 383.9492428940766,110.0582393942656 383.9665449650015,110.0884790497805 387.24863870885827,115.9273044916724 389.97207819851224,121.53878695650067 394.00852664749897,129.85212029087506 395.71776861887554,133.3723123531902 396.76119260825004,136.49845364687832 397.84810558689185,139.756620653017 401.9332648210405,152.18761305773455 401.9744156925313,152.27646153008033 405.5053630962966,160.0116562960764 406.730692642338,160.02248957473407 407.88026717503857,160.03114061019656 410.7011282352379,160.0571716538469 412.77301226083836,160.07447372477182 412.9050379732336,159.44879342995367 413.2385314936787,157.87492847305572 413.9009202361129,154.7530737284951 413.6367908742257,152.4798777694259 413.402979104784,150.45350910159587 412.78602778258045,148.46392681881093 412.37038839401174,147.1216913881041 412.02395728914286,146.00672099725338 411.775025691916,144.56706399600122 412.5045184122285,141.69858327215456 412.52400272651477,141.425802874528 412.29665974939576,140.68321669504436 412.27507112928794,140.499206832556 412.8357517522155,139.86923998861036 413.4571454980169,139.1720912296343 414.1347320055546,138.41002073597517 415.048390462992,137.66322594462696 415.673992820658,136.88385338004286 416.0204239255269,136.45301622637075 416.51400057057623,135.83809127294734 417.0682124014026,135.14967148664127 417.0942434451083,134.87252660273506 416.8192808041758,134.09970076768118 415.40339466622663,131.14455381468397 414.963906477092,130.4236341924603 414.8275162781957,130.20065570173165 414.54694215499853,129.85212029087506 413.2914508909267,128.29314134997355 414.91277963683547,127.2682664275643 414.8621204200455,124.39549915459017 415.00420003874626,122.81976370360404 415.38515734836835,119.93195454010768 419.96100954922645,121.209112361661 423.71018127118157,122.31800364650357 423.88663121955585,122.37014367106714 424.7885990885544,123.48589343449153 425.26378254133033,124.32956423565547 425.966932469107,124.47483928169225 427.0359198784991,123.72445937652735 427.806719344939,122.7701956084948 428.39857487037017,122.58813417741293 428.8965160019206,122.70917073668005 429.2774733115426,122.85421197092812 433.4376081865137,125.58762742934779 433.87670668949994,126.23022010883176 434.27613512893515,127.6518736038482 441.91507738294183,128.56218075925761 441.9247416028775,129.85212029087506 441.9338602618066,131.05453628345003 442.40319842014156,132.33637034038995 443.28194098667745,134.12627737217184 443.95586444335703,134.31987351716677 446.00670540963466,134.31987351716677 452.32188336302454,136.25162635569453 452.72014274357156,136.38365206814512 453.1856619764119,136.5374222751186 457.26801546953897,137.6681359918023 457.6967483173896,137.73025198518695 461.7983523128481,138.48016426677444 461.84332210983365,137.4577053993491 461.79897581072987,136.61645065316904 461.8985796246365,132.08026851569585 462.5521614571932,132.0985058336649 463.6820178640957,132.20839736527813 469.26497529302685,132.26318725655892 476.67205420944134,132.74600856032419 476.49537044889075,138.0896986119641 477.685628229394,138.36505093898964 478.904566920431,138.7637779430587 479.5141921404753,139.00133070073213 481.48101674454114,139.63761046241925 483.0221480535113,140.17880677122668 483.94227530327134,140.48276207141225 484.67839269054303,140.66303094561346 488.42171911805724,141.87027904810083 488.65794694237206,141.92460131585958 489.0775611312935,142.02116557662373 490.292447084881,142.30516893911172 493.3564723851845,143.16621974846353 493.9632918637642,138.9311871698775 496.42018593643627,139.2210358266403 498.5652530458678,139.23701296426202 499.1020848682295,139.22921923858073 500,139.28229451024376 498.7833214894211,146.58696387156397 498.06668841621416,149.0160343435389 497.34140430776625,151.47105792190126 496.6486979724435,155.1621663876444 495.836825571831,159.48347550906647 494.3949863274944,169.64774074703752 494.085419544712,172.21320141779805 493.8948629525827,173.78277982551316 492.6608044339821,180.52871699531227 492.13909243940554,183.64402501039808 491.42900609561804,187.43910177621672 491.2839648614807,191.05663747186964 491.5028906148706,194.7998080249688 491.6476201001778,197.2786804037863 491.9485358472763,200.58664931682293 492.14127468232385,202.68885093520126 492.55262752215276,209.72261039303845 492.7474706632434,215.34929062291474 493.37096871486636,222.39824784579997 494.135143514347,227.84084027586962 494.1482369734074,227.9275065050202 494.15899231491295,228.00326151830558 494.52919428280796,229.43637179002755 494.54002756163175,229.481887147798 494.94272936577664,231.042814520106 494.96650022902423,231.12940281199366 495.1028904276991,231.661948085394 495.732935208963,234.7404697153793 496.29143358875075,237.46390920497788 496.60107830862995,239.47952253141315 497.0275509760225,242.25931065743987 497.2786648163891,243.90464407849572 497.92164718207687,250.41450929845044 498.07752169503794,252.12912894046897 498.70312405248245,258.9745919868011 498.7755277635737,259.74757369632545 498.85478995357903,260.594050238677 498.09911031492425,260.594050238677 497.6402157488217,260.594050238677 495.9212316204127,260.59186799548183 493.84942553235203,260.59186799548183 488.65794694237206,260.58711382283235 487.09273302110273,260.5853212659517 485.45168614917435,260.5853212659517 482.0722487718691,260.4122226193839 481.7994683742979,260.3970248543358 481.4704172776722,260.3797227834109 478.0671311000225,260.2065461995802 477.76185086642295,260.1913484345875 477.4739506408451,260.1762286068024 474.3239605469234,260.0138073643664 470.8189662495455,260.4597643458237 468.4245778567388,260.9815542777739 468.12366210941883,261.0464760124016 467.8054442913954,261.1158401706272 467.31178970902783,261.22401708262265 463.8457640397795,261.20016828211214 459.9877919081133,261.17203293252953 458.0047563546924,261.1590174107321 458.2125370806499,262.12247777501204 458.26888571702267,262.388789380316 458.86861290539804,265.1685775063427 458.9313523967752,265.4542954885038 459.5981056257105,268.545832640342 459.13921105982945,268.60420764543954 457.80554872732216,268.77527992333796 457.25788362613673,268.844566144356 455.1903640868158,260.8104819998755 454.92646853666196,259.74757369632545 453.47792668804783,253.9152170467008 450.92111705263903,243.61674385313935 449.5506683353636,238.56157752490364 448.8131480774703,234.35943446854975 448.0086797163354,230.18955743643548 446.31050483529447,224.72818212750107 444.3886500284356,218.08613532056992 439.4277877805059,219.00867862525854 437.99756118728993,227.31133455550108 438.221007301596,229.9313513057537 441.1707765838958,238.97207305467447 423.71018127118157,243.50459214106806 421.9523064517399,243.96091477766095 421.09499663067527,246.84241102330506 420.9001534895846,247.5027733972914 420.03637487619727,252.0511916840438 419.6791104925046,252.82845994269562 419.26565334707567,253.26794813183022 418.4559631898245,253.86970168893035 417.5444869755269,254.41962697046313 417.40373229035094,254.50411095647388 417.1742850074104,254.64268339845466 416.8755515034518,253.9650189535434 414.67164176523454,247.9833345205986 414.54608484516194,247.66948118885483 414.2299713329601,246.89010862427074 413.76234779429825,246.50470889110616 413.3229375424819,246.28601694950498 412.59765343381247,246.17784003750953 412.10399885144494,246.2817304003775 401.4050060970445,248.51595773120644 396.436505997904,249.46203808729854 395.7112218892346,249.60053259201644 392.2495607064874,250.2586347855447 392.0611863577194,250.2954991078527 389.3961998104812,251.52955762656407 388.8138526303491,251.80015578099545 378.69494687562275,256.40702701010827 373.1527506318126,259.05689372961666 371.6554979978151,259.74757369632545 369.97026070164094,260.524764017659 363.1551152479759,263.663842895937 358.7624935368664,265.6569323552757 356.6993384840466,266.5930367426022 350.38852501693634,269.57405886477926 346.6670210212633,271.74991119051066 345.51752442588094,272.5010704682492 340.1138226865671,275.48653501402424 337.71732998793885,276.7660309532432 335.7601696038086,277.8116371858683 332.9587928576741,279.02621139045954 322.86155366037383,283.40153103064415 317.71340818524607,285.5707586895824 309.64682420473713,288.950196066777 307.56636708099245,289.8205214095837 293.81480580277264,295.58008466169184 283.4534372433636,299.91986491292704 275.67927384912724,303.71930616513606 272.8280172589426,305.11142143994834 271.271376435596,305.8734139963446 258.2818856512568,312.21875366793114 253.49957765796597,314.4941318701401 249.06588301268386,316.1286320125383 240.21992646759085,319.8653337733148 232.9090221257367,322.3398416657973 231.4065476958445,322.7901631335896 228.86704013158214,323.55348062334446 226.4509851813493,324.2796220417397 224.91764759778357,324.6952614304192 220.92390876532426,325.7777319852969 206.6960729129801,328.93200862862295 202.25801378141836,329.9170576129554 190.06948418154957,332.9890325134105 186.9887803082029,333.7663007720623 180.62177407935647,335.0263123971611 174.61624084606729,336.8946243089456 173.54031702066436,337.22796195480953 170.1413953292943,338.2585262969124 168.2686409939673,339.0551229951585 163.9193523972669,340.0305077596661 162.8043820066377,340.2805304784074 161.88425475687762,340.5966439905539 161.0313094220926,340.8910130082329 149.31266354156526,344.35703867731513 145.29234810439377,345.5478420187141 135.7104300466656,347.8967929910133 130.72018545322373,349.2151796212096 123.39197904022312,350.6677742070517 120.7291747363463,351.23071501043734 119.41071016872094,351.51004213759416 107.9842510625113,353.9282013936485 107.8175432709479,353.9628834727613 101.49597446255362,355.3657540889684 98.97166466317317,355.98247159927246 95.18742117612297,356.9071192098933 88.90045650957859,358.3467762111455 85.83269022109877,359.35356969005613 84.05533108759232,359.496428681109 83.56167650500326,359.6371054290221 82.7066268643967,359.88175047701066 82.30821160943465,358.9811075414261 82.08733742485981,358.483244347194 82.05709776928953,357.08684252325423 82.03971776104629,356.32477202965043 81.80590599160462,355.57571705784414 81.55915663773912,354.79205794418795 80.9659761787832,352.5491795778966 80.26235862753985,349.8841930306584 80.41176434817831,348.7994622953226 80.59795645380647,347.442107036886 80.7408154450255,346.3120168182502 80.8599035727754,345.3680407680349 80.98117394388662,344.4198561060105 80.35541571180555,343.07762067535907 79.91382321662789,343.2789326087724 79.43536639914224,343.49762455037353 78.92222750270992,343.731358382497 78.31829170246999,342.900079605138 77.6926114077072,342.03630099180606 77.16653492662957,341.3089125773151 76.91970763544577,340.97113250785327 76.7119269097098,340.6854145256921 76.51490152547935,340.41045188492575 75.83941932354173,339.4795692937709 75.1379840154382,338.51392668629575 74.97345846723611,338.2844794032998 74.51659026985827,337.6566168652865 73.1874482982672,335.8229090954073 71.38834467023788,335.0263123971611 69.377095830193,334.40710089461027 67.95910538620079,333.97197719181065 66.06484036808426,334.0368989264383 64.38474693070808,333.82257147122755 62.01420733824571,334.2837262176775 61.09626233162545,335.04361446808605 60.75637795639748,335.32286365797995 60.66550311527159,335.3964364280701 59.95105228520445,335.9875125810384 58.4182602626452,336.94442621578816 57.46352887103522,337.5418932238162 56.98733223400767,337.8407046650377 55.744544742626296,338.6157127432314 54.813662151582214,339.63326156353685 54.577746076319,339.8886619529202 54.036549767456215,340.47973810588843 53.34805204399801,341.46042260388583 53.005907488090436,341.945348213528 52.92586592556683,342.8979752992057 52.82407986874189,343.40238522296806 52.45177359480383,343.4435360944035 53.03193853157463,345.53693080279356 53.09904250945291,345.7837580939773 53.174875460111934,346.0522519424764 53.521306564980854,347.30571683804504 53.40432274305248,348.24096391553485 53.28087012880145,349.2151796212096 52.76562692632609,350.602852472424 51.78283812250716,351.63559905772206 51.172277655308,352.27639918032537 50.45143597045799,352.80465790454286 49.82591155011026,353.2638642195863 48.864477554444285,353.9671700218334 48.7951913334262,354.01907623466366 48.46614023680052,354.2594347335801 47.76252268533566,354.7746779360001 45.28591048708701,356.1732620030797 45.28154600080738,356.175366309012 44.46749135705511,356.6365210554619 43.553910836714465,357.34442515583277 43.439187195465706,357.4310913850387 42.35243009123899,358.27320344105533 40.59665957784035,359.2734501903804 39.32581467402851,359.99647411853636 38.386281047521955,360.53338387827165 36.481104813484855,360.49441525003135 34.023898991982676,360.68084116744825 32.82888703860836,360.771560133993 31.45633401528985,361.2023193504022 30.302472933406378,361.5660525263068 27.27367527305608,362.5164194315264 24.924802238019797,363.2460680264755 24.71694357496554,363.31098976110314 21.768265414235618,364.23103907354493 20.350197033146642,364.23103907354493 18.973357460423774,363.0230115984839 14.95530220393188,359.38599158871085 9.980333312690203,353.4432757839509 7.62273130487316,350.7826537230478 5.139494439443765,347.9811990397611 3.637097946869847,345.7145498102775 3.344755297915597,345.27287937794773 1.8834317392927333,342.4714246946057 0.881080684090757,339.886479709725 0,336.9595460435733 0.08440604858171315,334.2901950099448 0.043255177312376825,332.7899028231924 0.7100084062477259,330.40416546579274 1.309813531941366,329.0900653846685 1.5457296072045765,328.57045769591355 2.1974409456730686,327.6914813175889 3.093641457548965,326.4791672934004 4.659400939824768,324.6952614304192 5.516165200104468,323.71886348154925 8.900045000786154,320.4996651035954 12.734090394789687,317.81729854816945 13.502551743674722,317.2782065452943 15.310306406944989,316.2736732468418 17.174331769712754,315.2367180496791 19.079508003749854,314.2971064858543 20.969486472905043,313.36185940836447 23.84880047552011,312.3595083531071 28.176500451891204,310.8051277103293 30.32624379665399,310.54310265415285 34.023898991982676,309.5990486666747 34.998192634975695,309.35027294408445 37.33841463454951,309.17709636025376 37.935959579785056,309.1315810024833 38.62866591510783,308.94975338313475 41.93024397325084,308.079428040328 44.60824604223109,307.6833509029762 48.87312858990676,306.04869488610757 51.72648948591289,304.95336468384744 54.66433436804053,303.50497870986993 55.98061669252607,302.6281845747405 57.69297615419728,301.3574176082469 58.83608189457524,300.1406611604605 59.760495693296654,299.1535078701958 61.86706179806535,297.00797313724223 62.16143081574435,296.52312546480755 63.884701493114626,293.6762333610134 64.54288162390579,291.90962956890166 65.77249771913,288.79650379701104 65.87217946991191,288.32233352876364 66.21198590826462,286.71604667321094 66.51944838500401,283.55958778674506 66.47393302723354,280.0112603748473 65.5949566487428,274.81105281230816 64.76149562824405,272.9276210727939 64.01462289968832,270.372993680691 63.83926407266244,269.76890200592527 63.538270388245714,269.2147681125279 60.143713183155285,262.95157430923115 59.650136538106004,261.65048974995983 59.30806991951671,260.7499247515828 58.71925394706192,259.74757369632545 57.87706395378241,258.31438548734053 56.68415630645113,256.2857566390524 56.5521305940559,255.82031534347502 56.27716795312338,254.86347964598812 55.79224234353658,254.3936738640757 55.569263852918695,254.17724210287724 53.878415074037,251.1008247788242 52.28077925405757,248.26913044002265 49.122138124230354,242.91530854503583 47.53954419471778,239.60944393793147 46.2428241218368,236.90541082519013 43.00835004157206,230.63364392369382 40.81316927635708,224.44838737687763 40.39963419360989,222.2251491991768 39.97744807517872,219.9432242674376 39.59859507159972,216.84093177420465 39.77613614198692,215.37742597249735 39.04220099785501,212.66910631062856 38.4858848614286,211.03024168189538 37.87314215086812,210.5258317580777 37.04833216605335,209.84606300728947 35.91169521777655,209.44343914046286 34.34437699046416,208.88268058021703 34.023898991982676,208.7683466250059 33.82258705856937,208.69648847458885Z"/></svg>