<svg xmlns="http://www.w3.org/2000/svg" width="500" height="500" viewBox="0 0 500 500"><path d="M0.867663667655288,113.90921099184544 1.932124071744369,114.02297077046353 2.28057206568074,114.05847269689653 5.032824773940252,114.35238768378134 9.546348532924641,114.60380276838237 10.811104661251628,114.67420923301424 11.673733200050558,114.71406355901442 12.488229319293279,114.73906852161063 13.94150409037676,114.78276320030207 16.134260092853715,114.88346577997606 18.656518349946072,115.00908798113059 20.536413626156612,115.10398736130081 23.193852295361562,114.9878380299887 23.608695719007212,114.9711965019429 23.99981429770126,114.95225076237938 26.84927059770937,114.82893277286387 27.842556466215992,114.78387263547279 32.44628584134075,114.5729092651061 32.82793155025304,114.55635307823661 33.207273047465684,114.53732199749679 36.10887280201323,114.40461647937582 36.544966176679495,114.38567073975165 38.778088552457035,114.28368804255433 39.56749436792725,115.25085951359723 39.626721139311854,115.32203404875523 40.04873322128218,115.83886016971947 41.24589914355286,117.3014371282321 42.3458614738324,117.5338211320933 43.57613976984206,117.92971881623605 43.6733433613481,117.96052697833602 45.06491646735855,117.92255015797203 45.35166279597933,117.88704823159965 45.555628190495234,117.49584431178994 45.62432783166161,117.09994662764717 45.669387968870765,116.83683980286233 45.68594415574025,116.74671952814082 45.650442229549796,116.18961237529484 45.76181245523129,116.10666075877673 49.27505236961573,115.997680085668 50.270727791301496,115.71084841581026 51.95621588377228,115.22244090425195 52.21462894428472,115.14665794593722 53.504134011436435,114.77448510686733 54.4879470106464,114.48995764858797 57.79491731881528,115.15613081571898 58.51801304581316,115.30308830919171 62.389173824158284,116.08771501921319 62.20184995774881,116.49786467858644 62.07853196811202,116.77283392590772 61.70166536458781,117.59074369196017 63.74277010956219,117.99841845746306 64.06040994145923,118.0601201228393 64.36618735088048,118.12165110586291 67.93404561349278,117.57410216397501 71.57043283504012,117.57410216397501 71.70791745860981,118.25922107066954 72.31716806599522,118.37059129653295 73.13738204350474,118.51763413112134 73.97184799642667,118.66928538886647 76.03189848096457,118.60058574763946 76.551028813204,118.69062068118467 76.94453694483464,118.75940566358798 78.02077443016258,118.94433997736407 78.57079826592081,120.31449244963744 80.66404646519207,120.21464328160525 82.89238973533898,120.10830818471948 83.92834618884584,119.51091999999178 84.27448997132511,119.31173371098524 84.55654253579476,119.15052424228203 85.38392517138641,118.67406449437583 85.97883846236503,118.32792071189655 90.29343195593242,114.26943606726323 92.82516308256399,112.35164931198628 94.54854265440437,111.04789226942216 97.22492706317284,109.40259986753553 98.79187627163746,107.95896864858642 100.79978330163593,106.10757732295811 100.98702182705102,105.9321158789638 103.46669484062264,103.64446049619534 105.04311691886903,101.24313067592445 107.78837165127776,99.94167784493871 109.73048063974046,98.64995390726367 114.36151918885788,97.53625164856894 118.26869394033002,97.416944693976 119.7265771348128,97.47386725384288 121.51165837172623,97.26768298898556 134.61391740379298,97.33638263021257 136.94654758277622,97.54256689513053 138.9496755073866,97.56159797587037 139.35735027270758,97.56637708131908 144.08200808453253,97.60904766595547 145.56131191226729,98.13056755119213 146.16808762547913,98.34631002706817 146.80345263051018,98.56905047879498 151.78165905622257,99.09884845746637 152.23917306462587,99.14749292395915 152.58523150586822,99.1854697442625 153.02379977446546,99.2328340931713 157.2719124973292,99.68565433718095 157.67975794512407,99.72832492181735 158.0092601994969,99.76382684825036 162.24064605301726,100.21425753950533 163.18417802016359,99.90848013008407 163.53979467266717,99.79472035146598 164.5709720205434,99.46035365040748 168.40185176682488,99.79710990422066 171.56894789873004,100.076772915875 171.84391714611198,97.67774730718249 169.2363177197468,97.67774730718249 169.25765301200437,97.16331073897292 169.27890296326754,96.69632386084848 169.33113175880138,95.4470144842809 169.4022209526618,93.79941787081589 169.44250198472542,92.8796960898581 169.99252582048368,90.34310051635896 173.46539936181009,90.72713577796529 173.82340556676516,90.76750215102332 174.93284076682644,90.89073479942317 180.21452039026042,91.64463868852101 185.31365525267302,92.03336771446038 186.92088549320127,92.1566857039759 189.2535156721845,92.33436601837228 195.09699621261558,92.42448629309379 196.02388665189804,92.2561935073635 196.56443761787452,92.15907525673057 197.16651956693525,92.0523134540239 198.52728451066383,91.8058481572242 199.835820658616,91.21076418407489 201.06149053122638,90.65604658398361 202.30132703801218,90.09185611411056 204.50355591051346,89.24083397437978 204.86386632692563,89.10095979799478 205.2479869297689,88.95400230452206 207.44543669663955,88.10536971754595 209.29930291619883,87.76161548782136 211.15777755891486,86.99354496466935 211.39715953862682,86.89395182010543 213.27714015607432,86.11640842711103 216.99178522980674,84.00660404103091 217.81199920731626,83.54200671566115 219.3149425390082,82.68859502323633 221.4105802909735,81.69053004885653 222.12411780695268,81.3491653718866 222.33508117731935,81.24957222738333 222.89927164725304,81.10824725112238 223.70762320228678,80.90581799765872 224.29084475302093,80.79683732454998 225.23429137893032,80.61659677510696 226.24421877602848,80.42705403817415 236.6723976105413,80.83711835643172 242.93080691609754,80.83711835643172 243.18435552998494,80.83711835643172 245.012192692893,80.83472880367704 246.1785504528818,80.55975955635576 246.4582134646574,80.00504195626446 246.79249482441833,79.33408968368475 247.0722431774309,78.7770678720151 248.10103097261307,77.88806891198097 248.57988027327397,76.03667758635265 248.98525082689528,74.12119504265408 249.12512500340156,73.46696963917518 249.81493767442913,70.20975323260915 250.91490000495122,68.9082150604471 251.1187800582302,67.60445801788299 251.0415463001608,66.31247805667903 250.9835996461176,65.34291703282081 251.1187800582302,62.05250291140013 251.14719866757548,61.367469345881915 251.23023562514862,59.29086267459581 251.25865423473647,58.62460416628849 251.32496432296625,56.998513527494296 253.65767984318643,54.05185363579822 254.14847690756005,53.11787987954932 254.420971261011,52.59627465313637 254.80978562800541,51.856622739269 255.9216103810033,49.734955930652454 256.84141750319804,47.47819405116026 257.09035769368614,46.871332996650814 257.9105716714382,44.86820507210106 257.97218799575944,44.78994721991599 259.8306626384755,42.400394481005236 260.31190149158783,41.371521344586114 261.414253374804,39.949140076778896 264.6454407249613,35.77698099470379 266.1909692999314,34.2668690048691 271.0269973376804,29.53751742877173 276.5836462082538,24.46449696412606 281.4954572042569,20.588642421690444 283.0718792825033,19.765953550189288 284.8498772025715,18.58073539169198 286.727382926088,17.331426015063766 287.40063941024613,16.88338487656348 294.0169695795205,12.476708261401429 296.2453128496674,10.99245464586537 298.37167342267765,9.688612262124957 299.7916651377908,8.742690742223955 300.0240491414094,8.588649931724145 305.36964930062175,5.028131009607206 308.7880751759516,2.8826540148021125 310.8718505054411,1.5764220783070224 311.47162824304473,1.0478188759826506 311.48579487697765,1.033566900752174 312.3985186820846,0.2252153456578009 312.65454218990305,0 314.32108454305285,1.8704224063681387 315.2337230069229,2.8922122256995424 322.09421426129734,7.62147846062061 328.6108659448921,11.803195753714421 337.0525583831435,17.011396630412044 341.19169043277725,20.339702231020404 346.6132442324749,25.96274653142431 352.23850740346285,30.964677802088296 358.41396509244026,35.28379437763613 363.2998323727865,38.408305266020555 365.1345821703084,39.57935679040305 366.5759091779217,40.499163912537135 368.26378682308655,41.57779095068039 368.33248646449545,41.622851088010826 370.61775229456987,42.943249658560084 372.24401361565606,43.88439207301238 374.0787634131779,44.52445084237646 376.7717893500528,45.4608141513194 384.01162210188244,47.893037474866546 385.96260657195336,48.547348219461114 389.5753542895435,50.09765589994058 391.38416037189364,50.875199292934994 397.11140623977565,52.33786159268457 398.9557995895532,52.771736097130685 402.26029500403365,53.551583701703464 405.55079446657,54.326822883119505 407.7719690783922,54.969185864001325 412.8924392333049,56.45079390331443 414.402551223079,57.3422677572189 419.3167517717761,59.29086267459581 423.43685274060937,60.92659686552438 427.59245563587564,62.14979184432504 431.122251736887,63.18805250941026 436.25219476158145,64.78231089204945 439.2841958223684,65.7245627417331 441.3020877693278,66.31247805667903 447.0383798012919,67.98371417397996 455.0652288158977,70.04146044681822 462.8881977772245,71.89293711362284 469.6822936018896,72.98812033857493 474.3475539598561,73.53805883315687 478.65258924240476,73.82728005576926 498.205189869594,74.45539106142061 496.6346563320883,87.74736351259088 495.91377947531055,91.69183235513783 495.4479020324781,94.07327768290583 494.9823659543509,96.56660528359505 494.03584704609443,101.54062999191095 492.20306009556697,110.91791766863983 493.96066147601385,111.9228099365178 495.25264143709654,112.87794830273228 497.73154638026335,114.53996757378039 500,116.3138691176891 498.7080200389173,117.5666774822427 497.0855137291035,117.41784248307314 496.04895988742317,117.51700892175552 493.3597743033001,118.64590190849883 491.14320811463466,119.76933306044359 491.14320811463466,117.92024594639365 489.87725720996065,117.72814297447482 489.56909024784534,117.68069328432907 488.62094985729976,117.53621068484797 487.57543519301674,117.37978032159349 487.16298132206515,117.31568910346257 485.6647317547669,117.08808420511073 485.4230455635978,117.05258227867773 484.72367468155153,116.94590581714736 477.58343507440713,116.01662582523151 471.69489439628177,115.25085951359723 469.97151482468394,115.02572950911573 465.96278408153216,114.51846159910957 462.5775559211782,114.0893662001728 460.2307591080195,113.79067210777865 456.1249101143561,113.21453387419285 455.72662287758,113.15761131432598 454.0339661267845,112.92061888730804 452.57130382691366,112.71443462245071 451.6159947785285,112.58164376309279 451.16803898114387,112.51755254496189 449.9637044005485,112.3492597592316 445.62086298010973,111.61686184474394 442.8614416137681,111.14978962550381 439.81040947218065,110.63543839847055 436.25219476158145,110.18244747210831 434.26092925944687,109.92889885828153 432.8670519422219,109.74874364995416 431.7812562458752,109.61134436750015 430.0744328609043,109.24147574000862 427.8651206715579,108.76032222776938 427.04721090550544,108.58247123108102 425.26690877373755,108.26005229367462 419.8193259173886,107.27623929458593 418.39702999081834,107.01782623413413 416.85841405046204,106.74055277523448 414.5944835126452,106.12174395701228 408.0754422763564,105.02656073212081 407.2528387461528,106.60298281042785 405.88029672094285,113.11502607086588 405.195092473072,114.35008347220298 403.7538508069382,119.97073821991285 401.79808723123665,129.07612893136428 401.2243385505268,131.7502091285544 401.01107096846044,132.74818876169724 396.99380610864824,132.0299574813244 392.846737330285,131.29039090863333 391.4077998756083,131.03436740087557 387.52716622772397,130.24248669147437 387.17632868109354,130.17139749749268 383.9997596791641,129.5242554111015 382.0273545755986,129.12118906875537 380.38453706764295,128.78460349723414 378.4004402238331,128.384012048819 376.52771360594716,128.00236633996732 368.55778715126894,126.37610501882052 367.73987738521646,126.30254093090785 366.89124479836164,126.22675797259312 365.33846222382994,126.08927334896279 365.1345821703084,126.09285767806449 361.2919253427881,126.1579729901898 356.35152505520836,126.49933766715972 352.15316623419,126.02287791931415 349.6949138541129,125.7455191192382 339.26204125496383,126.15088967316272 337.27785907015954,126.22675797259312 328.72001730035345,126.33104488142945 328.3596215427043,126.33582398693879 325.8872025284517,126.36424259628409 323.81998338583173,133.78653476789813 323.73703176925295,134.07814554320458 323.6279657550286,134.47165367459266 322.80391142476714,137.43017598882517 322.13688484581246,139.82450783318464 321.3522581357303,139.93109895359933 320.71211402531117,140.01882967556617 320.11242162918705,140.09939173932963 319.11905041895835,140.23457215144222 314.3424198353104,140.38144430373862 313.9868031828068,140.39100251463606 313.6690780099154,140.4028649371725 312.3960437883962,140.4407564163602 303.6818569964513,140.4407564163602 302.3756250599562,140.46917502570545 302.01292509085,140.47873323666354 301.6668666493651,140.48581655369063 297.4376996663074,140.5806305927452 296.5605631288704,140.44792507456359 296.25478571944916,140.40047538447845 295.17376912849056,140.2369617041969 294.56929762697837,139.46411207547487 294.0169695795205,138.76030345274575 293.93871172733543,138.66045428471355 293.38877323257157,138.79802424952018 293.16116833434097,139.38355001171143 291.6581396616547,143.2428483673382 291.63211060476084,143.3092437970475 291.54207567133693,143.5438466712501 291.39503283674856,143.91849440425096 290.987358071185,144.96622793911794 290.49656100681136,146.93146438448002 290.0864966885538,148.56480902265392 289.9490120649841,149.11952662280584 289.77355062105045,149.81881216355453 289.60286828250486,150.5039310703097 288.6547278922018,153.3509978175025 288.30380500433444,154.40590001051223 288.1639308280707,154.8231329869732 287.3839978821397,157.61336251547542 287.16356164199124,158.40746209527867 286.2106421463001,161.81871931240516 286.1347738468091,162.08430103106036 286.0494326775363,162.39485754599096 285.32394739784434,164.99298410245308 285.2410811225025,165.28459487782015 285.1603483763865,165.5761203119503 284.3922778531738,168.3260688085708 283.1786410852706,167.818630216212 280.78908834635985,166.81834637149078 279.2410848774587,166.1711189439233 274.1751477297795,165.20155792012574 273.4022981011788,165.05221087395896 271.0080515978744,164.59708641837096 266.4019326702981,163.62752539457338 266.08429283840104,163.5611299648641 265.7098157875709,163.48048255992435 264.4889250203486,163.22445905222722 259.0673712206509,162.26445623932707 258.22104284501063,162.3497974085999 256.3268955938728,162.53942548664838 256.2511126356187,165.0996605640441 256.1894109700605,167.12651333360606 255.9571123074363,173.63608170017375 255.91452706391556,174.80243946028384 255.08475487538732,178.87039697469893 254.3356300917382,182.54954012205897 253.11482466575285,186.02958232152815 252.005389465449,189.196593112257 251.8845463697432,189.4716477007546 251.2514855764118,190.91058515537065 249.73437561078697,193.89035742074506 249.1914350918739,194.9548178247735 248.06074994054944,197.19741307021152 246.08843017822093,199.78137299261948 245.18040013726505,200.9666764922931 242.0227768753842,204.9420388381163 240.0860443804831,206.96419784334526 238.80123307748252,208.30123794194031 238.5713239675523,208.5477885799163 232.21332151755345,215.3632196970209 231.86248397068047,215.6381889443422 230.91664779207707,216.34225359060025 230.67487625967107,216.5841104642432 226.9458938692893,220.71129475016417 224.29792806986612,223.6460068781475 222.89927164725304,225.01274570361116 219.51882259228717,228.31613168279964 219.45951047966562,228.3729689014902 215.0361069953421,232.69456037096901 202.73033709583328,246.60995006345757 202.64499592656048,246.7071536552668 200.58972454765322,249.0303109644683 197.64067510320245,252.1072868215913 197.41076599327224,252.20218620182217 195.3980798578857,252.2614129732674 192.75497850508754,252.33728127275845 192.2926000500592,252.35153324798893 188.99749216436612,252.4463472870435 187.17212989538905,252.6335858123373 183.4336746354681,253.66962760702046 179.7617001462508,255.02083433966968 178.24220062793194,255.859994056864 178.20661336026197,255.87893979642755 177.1730464596917,256.45021358332764 175.97827009011505,256.54502762238224 174.73843358332925,256.6446207668855 171.84161293441232,256.1421319623887 171.3769302679269,256.1421319623887 171.56664368727294,255.55413130626644 171.60214561346342,255.45223395018482 171.83913804048134,254.71258203631743 170.98820124192687,253.3613753036682 169.29554449113144,252.10967637434598 168.01542695252454,251.28229373851175 167.93247533594575,251.22784607251523 166.47220258901152,250.99785162140873 165.6235700021567,250.86514610322712 164.43348739697373,250.6779075779333 163.42355999987555,250.6280683350935 162.9329336179758,250.60203927844225 161.68831800580193,250.54042295424233 158.76546830023375,250.49775236966659 158.23208599258194,250.4028529894357 157.68206215682372,250.30803895038113 157.23402101820216,250.2274768866177 156.44700475542598,250.08990692181106 156.31899300139548,249.9880095657294 156.29287860374987,249.82210633269318 156.13175447622297,248.75773126990168 155.98471164163456,248.71028157975593 153.18987368985432,248.615467540762 152.57345442462938,248.7742874567105 152.0922155710319,249.0279214117136 151.99740153221987,249.15832271831684 151.8432753803012,249.52819134580835 151.78165905622257,249.67412474522604 151.47579630556436,250.39815922510266 147.79195939387128,250.27962034103587 146.051938294167,250.28670365806295 145.63709487052137,250.28670365806295 145.12735206658422,250.2890932108176 144.47782042737774,250.2914827635723 141.25149752408797,250.26067460147235 141.23485599598152,249.8837226568931 141.2254684674367,249.71304031840813 141.1874916470727,248.85962862598333 141.11401290051828,248.684167181989 140.9670554071668,248.63910704465857 138.78138272153504,248.4826766814041 135.83233327708427,249.50916026506854 135.3416215539476,249.47835210296859 135.20883069452904,249.4688792331868 131.55580194487527,249.23180146505322 130.62182818874766,249.17018514085328 129.52186585822557,249.0990959468716 125.28561555832275,249.8979746321842 125.23825120917138,249.90744750196598 123.34640816949066,250.2629788130507 121.93597466539619,250.30803895038113 121.47368155136223,250.32468047842693 121.0162528844384,250.3389324536574 119.0912121295392,250.40046343668104 115.93606376134679,249.9903991184841 113.08413256765024,249.76757332558097 111.73915574038632,249.66209164039762 111.32354424609328,249.66209164039762 110.96485531172773,249.63717201897774 109.01745517069784,250.33108106610422 106.52549302870825,250.4168489411979 101.47705082077725,247.82682979575728 100.45918669519213,247.86096626343002 99.10891871536101,251.17143555964557 91.73697783352331,249.37875895846528 90.77031840959889,249.46700172749 90.3486476923338,250.1738826323236 88.95536776328233,250.26895269490709 88.29184017237428,251.3840204122408 87.58709279676641,251.29253467881966 87.34096886467195,251.67469243472914 85.93838674807006,251.2503761412411 83.67607769254238,250.27962034103587 82.51304823812634,250.06840094714025 81.43937098772379,250.0157454457249 81.22234839438505,250.12122713090824 80.66404646519207,253.22525613873754 80.66088884209319,253.24232437260423 78.26877586777196,253.4007175826712 77.2870963980303,253.11124033659053 73.87635122796166,251.84307056163573 73.48873163731427,253.13709871088915 71.15652816427321,252.62505169543428 71.78421246404302,250.30069960982513 69.04501695460633,250.0375927850403 68.74325058016831,250.61219487757384 67.69218873984984,250.72646670318912 66.96439924845826,252.7954780103903 65.26610998063295,252.70330954761934 65.45548203503124,253.6904508522808 59.50651980917426,253.4348540504046 59.54236310031249,254.69457504963265 55.4103143677665,253.8580609086613 55.088492818654885,254.22041951330482 51.110228873079784,253.68900005240488 50.67131923953475,254.9691175910724 47.57053319634448,254.26880795626866 47.16106626626041,251.97415459758878 44.76195531633096,251.27375962160875 43.67948792555709,247.2400239160427 39.46721849407415,247.5057763170505 39.81805604070456,251.87763373519002 35.78124805315531,252.19151855563274 30.369423146707643,252.5298109505588 30.457068527437535,255.8628103154396 28.409648536022836,255.62155082997015 23.87538687271184,255.62155082997015 18.054351059890948,255.52502996757136 17.8294770788171,253.73499894261406 17.6016161568757,252.11684503254935 17.575501758987507,251.50759442534587 17.55664136066093,251.07849902634848 17.464131533306016,248.89052212925958 16.191182652781233,236.03472839405316 15.690912718625837,230.95223505962574 15.427805893962267,228.29949015481446 15.261902660804743,226.63064359020757 14.372903700891893,218.86929095314133 14.372903700891893,218.85264942515616 14.138215485331054,216.80224249287392 14.024370365718577,215.80178796580006 13.7754301749879,213.04245194057413 13.761263540812452,212.89301955323106 13.602443624742651,211.13166316114794 13.57402501563992,210.82119198745428 13.368950185771386,208.5477885799163 13.12359432432432,205.8311231392661 13.116511007236594,205.74578197005394 12.881737450438811,203.15226383668792 12.836762654466595,202.64030216234872 12.796396281408564,202.19695478812082 12.651828340508601,200.5921141004685 12.364996670893431,197.38712648943633 12.3364927203112,197.07887418614473 11.824445704916952,191.33729100161338 11.796027095571667,191.03142825101583 11.075406262262216,182.9762459683017 9.546348532924641,183.09640633459705 8.996410038403347,183.13975964852264 3.1837376600115905,183.5925798925929 1.7661354975924535,181.43302160478868 1.732937782859092,181.38087815037053 0.38642481430036296,179.33507964124502 9.546348532924641,178.9552260969139 12.068692131253945,178.8514512351354 20.44800017477932,178.52041283958903 20.268783719330692,176.81981936006406 18.985849922087585,166.54260905364336 17.103309069714726,166.46153494288274 16.429881903325303,162.15129384894314 14.86242064768156,149.11816116404557 18.72837561445388,148.29734979824124 17.971228760838297,140.26939134846475 12.393159256527879,139.90763013205537 12.165639699534262,137.43017598882517 11.599571723843102,131.26990902801757 12.04351648624449,130.81162694914875 11.87505301816159,129.4448027825088 11.357032121032246,124.97036527899846 10.698539658980561,118.548356952045 10.688981447961854,118.37537040198166 10.56096969417393,118.2758625986547 9.86876747045232,118.35642466241814 9.546348532924641,118.37349289628483 9.330606057169879,118.38484327182407 7.6166993551112565,118.6883164696063 2.1952308964079394,118.07189720419942 1.2516989292616127,117.85615472832339 1.1403287035801197,117.78984463979042 0.6732564841580875,117.51009628702042 0,116.97671397924732 0.336585571460571,115.78902092687967 0.867663667655288,113.90921099184544Z"/></svg>