<svg xmlns="http://www.w3.org/2000/svg" width="500" height="500" viewBox="0 0 500 500"><path d="M476.53247673737764,262.36061250405413 472.56151808570655,263.9588482378152 469.1980505898634,265.1958011189247 465.9713326440331,266.3617191113648 462.008551379038,267.42734096414364 459.0008494629033,268.23640962682043 452.4108610671272,269.6102105805414 447.8814755788439,270.2943524210004 443.3494299772477,270.3627271959368 438.81738437537155,270.22597764606394 435.01066311520003,270.5077526552243 432.46828405516595,270.64469925057443 431.8524184670448,270.74322198101044 428.21259471252574,271.3288410909634 423.614834449376,272.1525896405054 418.4670217821873,273.0448114876525 408.85277965130734,274.68964847293364 403.84181505666015,275.5816732746735 399.52050957555497,276.8296607015991 395.64531501770836,278.1242493799748 393.7378164330203,278.67430178422376 391.7810564829392,279.43509430896376 386.28565562243796,281.59155983357977 384.5094878374884,282.39895360983985 382.6019892528003,283.27196352456485 380.7903532847454,284.240836056063 379.90630882406424,284.8598543716102 378.62551332804617,285.75700235533856 377.93319410091124,286.32340953286945 377.21062839588814,287.0487338745741 376.6030387169716,287.8012504899695 375.75731959860593,289.4871714538277 375.6479593678311,289.71160623386777 375.51662856809264,289.50628486358113 375.02953218864565,288.7399750658981 374.7092347917625,288.0667692485866 374.6244067207355,287.8916943565382 374.55051467306606,287.7356343515046 374.1893303430831,286.4191736268339 372.64577472477947,280.81983128583227 372.0107957266249,278.51282302898574 371.5236993471779,276.73665524403617 371.3758167287503,276.2002974992662 371.3020232036094,275.9347787406491 370.9462576239009,274.6403871076807 370.9024150087823,274.48432710264706 369.59423019380625,271.1291355162885 369.4847714399428,270.850020620861 369.12082847383834,269.9112960449325 368.8772802841148,269.2926718202698 368.6035841387518,268.58665793365583 368.1492958285373,267.42349857768727 366.04475178283724,268.1734536020884 364.98021368011325,268.5510912279519 364.8021831060461,268.6140472527539 356.3128735122578,271.60253723625647 353.7402479737756,270.8335673249105 353.3078317099961,270.7021380024334 349.9609160328421,269.5882400116478 348.7403179250145,268.8985808983858 346.28266841319885,267.5055680121727 345.4972452061123,267.0622157250357 341.39209859521264,264.8072274699137 341.08569290342575,264.6375713280697 332.15559261328474,259.7359669641974 324.49269168249145,255.7978163816888 324.1807687179015,255.63633762645077 323.84953529794086,255.4666814845368 322.1884420619064,254.6127849794952 313.731842014542,250.2860607479756 313.05587756075903,249.9412311913446 312.74119595976754,249.77975243610658 312.3908491300535,249.55807629253806 297.80406626965043,240.36610258468914 296.87351908025784,239.77969529289717 290.42579750701765,236.205487676703 289.897518626325,235.91543675819804 289.61850225349616,235.75947527590307 288.9572176864384,235.39267515030846 288.69071370050506,235.24489105461947 284.6977844801504,233.32921508325543 283.05294749465924,232.5410332394874 281.24673027687874,231.67895934776988 280.3819962715683,231.26289785699225 279.49529169729425,230.8387575023473 277.9489774425891,230.09441827355786 274.42944994164236,228.40849730969967 272.7765340925639,227.6148967157272 271.95554417956345,227.2208057938432 269.42134250620535,229.00790960187027 265.9510763706516,231.1315670572538 265.0671304330591,231.6241807096438 263.17056787116854,232.37413573404496 261.6023815703084,232.82566540778794 260.09449118044745,233.25808167184746 253.75071108798767,234.52794114492804 249.5657610656609,235.39267515030846 249.20763094022539,235.46656719818796 249.17482287099293,235.47208447106104 248.89028922536102,235.5322818593915 246.91165722912496,235.94006744082455 243.78622065048225,236.31228631655358 240.66088259408815,236.90618133585113 235.7511993666285,237.3522922594597 234.91099752106595,237.51091385555756 233.37286065275674,237.798206137591 231.11777387503616,238.84648798984168 230.30230123483872,239.22678572943803 228.07184513967462,240.9373373759927 225.24483391148007,243.53725371048435 223.08826986398546,244.94938000638086 220.33505216093178,245.84160185352795 217.80626923784814,246.066036633568 216.1807427077277,246.1316527720329 215.70172519214805,246.10189890748785 215.26113154141257,246.07411549743532 212.57914577243548,245.90179924185844 210.19262967216778,245.72672434981 208.11823358210728,245.52140297952343 206.91408877016025,245.40090968012382 204.93545677392422,245.38731354331344 202.5435219236621,245.36544149715846 197.90467768207535,244.9548972792539 193.1455371863562,244.50878635571536 189.50019615875405,244.50878635571536 187.43939620536392,244.78799977388147 187.20688256152656,244.8180492066424 186.22165525674652,244.9521386428524 185.11051590250244,245.1026813750129 183.5478468744454,245.62268434643096 181.68960965487034,246.36712209788905 180.82201849034976,247.36594553947947 179.2347187797362,249.19137468968208 177.81983384729816,251.19739600487614 176.35283039053695,252.7354343503067 174.773806589128,254.39396599513685 174.0293688376699,254.91387044381628 173.82956474053637,255.03160510674434 170.97516419310378,256.72560493453983 169.03751765277616,257.9543804290434 167.65002203957616,258.9012823916479 167.15189111424309,259.24335331180737 165.96144096177505,260.05350572453904 163.50388997304802,261.34257713004166 155.63024892148366,265.46673862774617 150.53169761940794,268.1323696234413 148.2574974322139,269.3037063660859 146.62093635592734,270.4941565184139 143.82397456084374,272.74096738685995 143.79934387800722,272.76293795575356 142.00948143357863,274.358415053043 140.22237762527152,276.1427602246686 138.810251329515,277.92720391903276 136.20491624488898,280.82534855870534 133.5994826374543,283.73147353950657 130.3043899167576,287.4071595680855 128.22723519001553,289.48165418095465 125.82712295307746,292.8041362207494 122.01626373830364,297.02879090352246 120.6143838062442,299.17786722337144 119.21319353356519,300.99620273695297 118.08786690607897,302.97650961953565 115.8836178572894,305.9481522161332 114.14094780039262,309.15171732020633 111.07521599645727,312.08799025657714 108.26790931402789,314.44159976487373 107.6674132717324,315.9845642468156 104.39704975640082,315.9295885632123 104.8644415898026,314.8823904610165 106.33243027409006,311.6865101298562 106.53282550779535,309.75792768085216 106.1992275423877,308.5456054823692 106.6663238076436,306.7269744005018 106.59962391912379,305.569923453838 107.06672018409965,304.6883420615525 105.21675887400919,303.77838612285274 103.5963555260173,302.7595625670012 101.86698603792505,302.40734380560326 99.39189800298259,302.4841915353615 99.26155243049037,298.39244401600496 99.29170038612993,297.193816477071 99.2998777728059,296.89548964915144 99.30805515948187,296.5644532748081 99.4010606169048,293.02019656870624 99.409435048918,292.72738701372975 99.46145505071254,290.72136569853564 96.58508393459635,290.8856030901752 96.28675710667682,290.52432023759366 96.22104244540327,289.87574510283866 96.18271710308774,289.5090434999827 96.02399698439126,287.9436158355241 95.69286208723926,287.69189025912465 94.50517057145278,287.5769142326681 94.10004510382267,287.5358302540911 93.66762883976313,287.49484479818267 91.78200230095003,287.31139547405104 88.32286923409103,287.262134108798 86.09783188892135,287.25947399506515 85.93369302023045,286.47395226503 85.4437394812933,286.3098133960591 83.47604350841476,286.14557600434955 82.33485472133977,286.04981191031504 81.3085434381227,285.9568064527521 79.68833713518804,285.8090223570631 78.73335630885619,285.7214356496346 76.97630193366004,285.234240747449 76.1142280419425,285.2315806337161 73.4787450016769,285.7214356496346 73.07371805657539,285.79522917477544 71.69981858004576,286.04981191031504 69.76493067639967,285.67759303458604 68.6374365490837,285.4477395044116 67.94235868554723,285.3081327953285 65.37525042014806,284.78822834657905 63.43760387982044,283.7865477458485 60.65709538061737,282.35245088105836 60.21374309348035,282.12535598728545 57.994223021113726,280.97864992733736 57.34022913629431,280.6419977573123 56.360322058980074,280.13568944537326 52.1185244211561,279.6157849966939 52.058228510156994,278.3732163199027 52.04453385039796,278.0502588094267 52.033696350129105,277.80946925617474 51.97064180272847,276.4958656907142 51.49724008276052,276.4281805748781 49.365208195293796,276.12364681498514 49.34067603554593,274.92226063957963 49.33240012606134,274.612899265914 49.33240012606134,274.5527018775835 49.26954262399794,270.23139639619836 48.23495543129628,270.15760287105746 46.60657174196568,270.04262684460093 46.6176062878518,269.88380820309584 46.757114473986206,267.7847814303388 46.776326406548286,267.5330558540094 46.98696800451069,264.3829885925301 44.07246859141623,263.6139201584456 42.39758217337417,263.1842625307875 42.28812341979067,262.42356852885615 40.45993563304654,261.5176520220901 40.388802221778576,260.9922303004676 40.34781676587016,260.70749960942845 40.20545142024557,259.6757695758669 39.98101664027554,257.81753235643185 37.153906889272356,257.59319609913047 36.94602392799149,257.49467336862443 36.571046415720915,257.0593999454248 36.33567561267339,256.48205674481636 36.28089697447733,255.5050068267123 36.264542201405426,255.2012612486583 36.07015685426632,251.67631499771716 34.10521951750929,251.50114158293013 33.286988240910325,251.4272495350506 23.62624338159889,250.56241700700156 23.237669732657935,250.52685030129757 22.82978562834627,250.4912835955936 11.67770219758299,249.49236163126452 10.834643193090287,249.39659753723004 10.470700226705826,249.3528534449201 4.594903103939577,248.67964762760863 4.148792180401035,248.63038626235561 0,248.1541273832475 1.0399074201674723,240.8743813511907 2.0607014305814975,239.81526199860116 2.827011228194555,239.01890276815718 3.4974584088945,238.73702923625817 5.960526670984614,237.699683407085 8.92990324480375,236.95810281483705 12.614751887304926,235.39267515030846 12.807954961580508,235.31060571582302 15.448856752120555,233.08556837079334 19.586811431972716,228.62751333953528 20.440707937014295,227.47529000664417 23.500429854663476,223.33733532672198 23.59895258516948,223.20600452698352 25.462510031930336,220.6881576269774 25.618570037033926,218.72046165388883 25.12861649865683,210.54031638807896 25.55561401244192,209.55242896956602 26.518969271066993,208.57537905146194 27.974938181942075,207.98700130510744 31.30008033546971,206.55566307671887 33.08442550709527,205.78659464263427 33.801473939315315,205.4801889508474 35.60493252069432,204.5742724441513 36.768091876732925,203.83259332916475 36.937649495978285,203.6437252548287 38.16928214969196,202.26440702816464 40.18072221488045,197.3601425506294 41.193338838898526,194.21569108476186 42.29905944286816,190.78650892785518 43.7166044888991,186.38313401205454 48.749539652509895,170.3950623560939 50.45999277646596,165.2773976442647 51.49724008276052,162.17915333903278 53.451339918968685,156.3418786038493 54.463266883606366,153.2904325956147 57.12948901580329,145.2525541525508 57.353923795773326,144.04023195406782 57.58929459882084,142.75667782143825 58.01885370367022,140.91213526148218 58.7003354305363,137.97014800676106 59.02881021381539,136.5607803473361 58.89462225486677,127.2859490231627 58.27343643927982,120.02531640085934 58.15846041289328,118.95526102519231 57.98870574831067,117.36796131450876 57.323677317605146,111.18565997721701 57.15953844863422,109.58466560698444 56.93244355479128,107.91795657554835 56.4096819469017,103.63221779986716 56.278351147163235,102.42265423785571 56.05115773079168,100.1538728005161 55.79115624490765,97.53750317000393 55.27942918290419,93.85935407316933 53.05990911081757,85.52876459786756 52.26069272116342,83.8538781798255 51.49724008276052,81.68716629123242 50.3916180013195,78.5500055074632 47.75495268847039,71.18819004092093 47.58647881927992,70.71744843468588 43.59620971223813,60.04684558789789 42.29905944286816,56.582096725287215 37.00622131646199,43.18034526700777 36.62296789470682,42.208812621776744 31.90215274158323,31.535549661255853 32.173090250264735,31.524515115439744 33.139105622482695,31.48904693247438 51.49724008276052,30.7840182732467 54.88533826116018,30.65426383718625 54.92918087599874,30.65160372345335 56.817467528404734,30.580371789306746 57.167715835030165,30.566677129827735 59.70053819018749,30.384902692042754 60.81276129476646,30.321454053617607 62.42341089226435,30.194852344983193 62.155133497455765,28.263412736769013 61.96330974110092,25.98339970813603 61.77178155289196,23.76663827245094 61.61818461604402,21.803572867727812 61.5029130215116,19.586811432042722 65.03150461357194,19.523658361833455 72.31016689536385,19.17636573687679 74.70801310994355,19.007793345017696 75.76998962160324,18.79537833811003 75.6163926847553,18.4785292369388 75.46318983886187,16.83211588797965 75.25215415022497,12.715442117780698 81.23741002657471,12.257902557471537 81.60411162936069,12.241449261520996 82.89860178513776,12.178591759457603 86.8997083924484,11.986866525981402 87.34030204290389,11.965093002495053 87.71252091877294,11.948639706544512 99.29170038612993,11.390409915689574 99.54342596252938,11.379375369873461 100.72303861444853,11.308241958465487 105.40828706221815,11.020851153623429 106.98199063616131,10.925087059658958 107.50199360736934,10.892278990356495 108.51175307217727,10.832081602026006 109.05096797594739,10.799273532793547 110.06348607715684,10.736218985322907 111.50300169187136,10.648730800633015 111.96280727516893,10.692474892942958 113.0246852643,10.790997623448964 113.37217493452391,10.821047056209894 114.65297043082198,10.93878171913797 115.53425625482157,11.020851153623429 118.16698065868566,11.264399343346911 119.44285001847241,11.38380889269163 122.42257147879728,11.661248901702455 123.66514015530842,11.776224928229006 126.19658319226498,11.83918095296102 128.87856896124205,11.907555727897465 129.8501016065431,11.943122433601454 133.5994826374543,12.08332027911626 141.3717437993025,12.370119947526558 142.56771122457357,12.238690625049466 145.2908794945163,8.054233216345827 145.67945314373728,7.695807522834422 147.15177682796428,6.330085432980754 148.36971482191893,6.119443835228358 150.50440682325856,6.070083947306733 157.83341422049836,5.903186441864281 158.2575545753533,5.892151896048168 162.85807347462458,5.788210415407734 168.14815296490923,5.544662225684253 168.54490400052615,5.525548815930806 180.86300394625817,4.953525842788227 181.30369611980228,4.931653796633254 181.73059511077875,4.912441864211185 185.87948581398842,4.7209136761422315 194.19096187932672,4.359630823490675 197.6886173341185,4.209088091330141 198.6683273658155,4.165343999020196 201.26538654123695,4.053028086296553 204.70826335755265,3.8834704671211986 205.1160489390557,3.8614998982275996 211.96337870712298,3.522187614469642 213.78604922078404,3.259526015062718 215.33236347576917,3.0377513487555823 215.35413699911552,3.034992712284053 215.70172519214805,2.9846475970461674 217.4943462732582,2.7257298613570287 220.90431649753282,2.2358748454385373 227.46425546075804,1.2918300419741635 228.0281010473647,1.2096620847500756 228.40849730962967,1.1548834466240185 229.04337778497566,1.064538102793974 239.02983879116465,0.5062097892004098 239.84255279496057,0.4597070604189361 242.53823322341665,0.30916432825840234 243.34828711333967,0.26542023587845337 249.43482435659692,0.06019738833048911 249.88911266681143,0.04384261504857093 250.24221813292704,0.03280806923245829 251.19178020926446,0 251.65710306536508,0.6622697942339976 251.65710306536508,1.9239518807086056 252.08400205634155,6.231562702544752 252.11129285277096,6.513436234443751 252.14695808121357,6.863684541279195 252.54922638963353,10.919569786715899 252.5793743452731,11.237108547057511 252.61228093703417,11.559967534794925 252.97346526729714,15.224520494819144 253.0063718590582,15.552896755499615 253.0445986785651,15.925017108490032 253.05001742855953,15.982554383087617 253.5481483538926,20.50642259828784 253.71514438207367,22.011652874485932 253.8164257489812,22.933924154463956 253.98056461795213,24.414425225296917 254.1146540540921,25.082310815212598 254.32539417458315,26.135912894859082 254.39386747225822,26.483402565293 254.45672497432162,26.795424052691555 254.51150361251766,27.07187883438612 255.24490681836966,27.402915208799495 264.4130380251511,27.18133758796961 265.78142022887766,27.145770882265623 271.69002542087634,27.003504059449675 280.58987923284917,26.737985300832595 291.0908259377232,26.420545063229607 291.4410742446286,26.409609040152123 291.88718516816715,26.398673017074636 297.80406626965043,26.21689857935966 304.0109982895687,26.026355618606967 304.4242026210662,26.01551811826811 304.81277627000713,26.00458209519062 316.44663585275157,25.648717992673493 316.87097325294377,25.635023333124476 317.2868376980341,25.624185832785617 317.7849686233672,25.607732536835076 320.3000568869718,25.50645116985754 320.7379904241144,25.48723923743547 321.1046920269004,25.473643100625083 321.33178692046334,25.394233779872526 322.48401025342446,24.99738422151698 323.4144589200084,24.67452523377957 324.1944633773805,24.40624783869096 325.72146717699496,23.87806748059695 326.115558098739,23.741219407985433 326.5836395912411,23.141905638483447 328.24207271340265,21.020908296832836 329.8375498106921,20.024744968975305 332.09539522481424,19.759324733096854 334.2902846143444,19.69085143542178 337.0133543620385,20.024744968975305 337.87808836734894,20.290263727662392 345.5520238440284,22.2907677699134 350.0703747864256,23.437473829931463 351.1786569814595,23.716588725358932 354.9171019892932,24.66900796083651 356.08301998173334,24.964576152284522 357.0846020598653,25.21906036508549 359.5147637299143,25.834827430538013 360.77654433898755,26.157784941084056 364.62434957759615,27.13483485918814 364.6928228752712,27.13483485918814 365.89145041413514,27.145770882265623 367.8920529793348,27.159367019076015 368.3435826531478,27.16488429194907 373.0207522367701,27.200549520391682 375.78204880397107,27.077297584590553 376.66057599156915,27.036312128682134 378.0398942180932,26.976016217613015 379.56423790411475,26.907739965415196 379.90630882406424,26.891779283087786 381.05025624782076,26.839266667740127 383.3217963217019,26.737985300832595 383.4805164403984,26.70793586800166 385.0431854684554,26.415126313025176 385.49471514226843,26.332958355871092 388.0918728404985,25.8457634536155 391.5840110222072,25.19442968245899 396.4991129999413,24.274917038952495 398.1056246428369,24.014915553208468 398.956762511477,23.87530884412542 404.2524577973733,24.57600250327356 404.47127678173166,24.606051936104496 408.30548588366986,25.77472856494615 409.5643108110043,26.157784941084056 410.91909687778053,26.570989272651516 412.459795336874,27.03907076515366 413.25349445344506,27.282618954877144 414.62729540716606,27.70134055938766 415.4402064562992,27.94764738558267 416.2365656867432,28.19119557530615 417.53933175172483,29.10528946867822 419.0308673685139,30.147955525247216 419.27983430851185,30.32312894003425 419.60545193258076,30.550322356545816 419.8381626220354,30.71446122551674 420.5386592355663,31.207074877906763 421.35157028497946,31.77633921457781 421.9153173487774,32.40580093957935 422.56665111972393,33.136445508749794 423.91858002729,34.655370444496896 424.57543107159955,35.3915322866104 426.2749481721981,36.49725289072004 427.17258876954963,37.08011336420148 427.3285502518446,37.181394731109016 427.70352776411517,37.427701557304026 428.75988848016317,38.11460203416452 428.8447165511902,38.17755805896654 430.18846807208024,39.201110705852095 431.57054493528585,40.25205267183568 431.89616255935476,40.49835949803069 433.21262328409546,41.49994157602264 436.7265349891505,43.86172847099522 437.06594579550705,44.09168052390831 437.4572780811296,44.2970018941949 439.5564033765552,45.39976681642576 440.9877416048738,46.149721840826906 442.5832187021633,46.34952593817044 444.74796013633386,46.95159834414395 449.90680734940867,47.408546768091355 451.45302308130516,47.542734726969975 452.63795596069014,47.64677473034904 456.8306892790184,47.64677473034904 457.8433059027564,47.767070984271385 459.60016323261533,47.980569741233936 460.8153425901685,48.125595200451414 462.008551379038,48.269241341468124 463.4727961993977,48.44579407452593 463.6588071145236,48.465006006947995 464.7151678305716,48.56628737385553 467.13725063675327,48.80431829070596 467.45469087414625,48.83436772346688 471.14387451686696,49.19565057611844 472.25767398470396,49.15466512028003 476.2205537727877,49.006881024591024 480.5828447098013,48.845402269283 480.6348647115958,48.845402269283 483.6507440141264,48.80983556357901 485.8182440844185,48.78234772181236 484.3485805140644,51.554777357358105 483.50837866850185,53.14207706804166 483.3196091169744,53.50060128422169 483.0240409257364,54.05883107514663 482.5943832980784,54.866224851336725 481.8471869102188,56.278351147233245 481.32718393873074,57.581117212284894 480.6020566423633,59.389994543868326 480.2654044724083,60.227437752889365 480.1969311747332,60.3999510539435 479.65229752040864,62.756220675973005 479.5537747901827,63.172183644011994 479.52648399375323,63.289918306940066 479.3704239886497,63.96588276072308 479.28017716762827,64.35997368260709 479.20352648327724,64.68293119315314 479.0475650009823,65.36441291980921 478.99002772638465,65.60796110953268 478.6425380558807,67.02826479210516 478.4290392989882,67.8876785700198 477.83790291595216,70.2932095573023 477.61839427277346,71.18819004092093 477.3289344906303,72.36494553369992 477.1154357334577,73.24071408489647 476.96489300143713,73.85106240021456 476.5269594645746,75.84880780599404 476.23966718254115,77.15699262125013 476.0726711543601,77.92330241886319 475.9249855812697,78.5909909633016 475.91395103538355,78.64576960149768 475.4432094292885,79.36281803385774 473.90251097019507,81.71918617862586 472.9637863941265,83.15042588420583 472.8679237772134,83.29820997996484 471.8006270380879,84.92856412385795 469.90692163568747,87.816560922222 468.64789966273577,89.33824449444063 465.7251243407168,92.86594938178332 465.15034273103265,93.55836713158689 465.6566510430417,96.24853028716993 465.7497550232732,96.7493213261659 465.93586446120776,97.73454863094594 466.10818071685463,98.64036661490343 466.4502516368041,100.46855440164755 466.84434255882815,102.56216242420014 466.9374465390597,103.04384005351267 467.10158540831065,103.91960860470923 467.12079734059273,104.02355008534965 467.20838404802123,104.31369952659324 467.8624764556493,106.45105164152577 468.04582725690227,107.0532225701679 468.3085873791878,107.9234738484214 468.8039596681194,109.54358162840741 469.3403174126793,111.05974792768298 469.6523389000779,111.94645250195701 470.5718515435844,114.54627031371001 470.6840689338494,114.86105043758009 470.85096643922185,115.33721079394957 473.3031972004831,122.26670851917093 476.87454765760714,132.3708056656894 477.3342547180961,133.66795593512936 477.6710054108597,134.62037517067694 478.80943556125317,136.55526307446303 479.26658103067786,137.15467536663365 481.39023848613135,139.95153863939865 482.2960564701589,141.24327015863418 482.99665160649835,143.13983272024475 483.20197297699497,144.48634287767635 483.2648304790584,145.93955315214993 483.9655241382065,148.70360835561246 484.110549597144,149.27838996522655 484.6222766594274,150.78362024142464 485.3282905460414,152.19298790084963 485.87745624564275,153.2904325956147 487.2686957224905,156.07103961783642 487.85983210552655,157.31616988555186 488.4564857613656,158.57509333555493 489.06397691747355,159.8586474681845 489.0668340764037,159.86682485479045 489.70999046123427,161.5498886595085 489.7126505748272,161.55806604611445 490.1040813829783,162.97846825135554 490.23807229630967,163.55049122449813 490.2709788883507,163.69827532025712 490.43245764372875,164.38793443358915 491.05640209571726,168.55593854627224 491.0946289152241,168.81594003201627 491.66941052490824,172.67211970277808 491.71325314002684,172.95389471193846 491.7514799592537,173.22207358428844 492.21956145175585,176.35026879961268 492.42478429944384,177.50781235996962 492.99119147683473,180.71531837330778 493.06242341119133,181.11216793166335 493.2785822816768,182.32458865288496 493.41267171781675,183.08804129128785 493.79858525288483,185.26657590760604 493.8479451410864,185.65239092014548 493.8860734377847,185.9234269516356 494.4115936820758,189.93812969575666 494.44991902411135,190.2255205005287 494.65790050820084,191.8073029383392 494.7782952848618,192.7268155818457 494.8849954020438,193.53696799457734 495.38046621350395,195.72900022489728 495.6295316763105,196.82920355606387 496.13574146523086,200.4555296966512 496.4313096567489,201.68962541862052 496.8281592151744,203.34273831324626 496.87742058028743,206.67605785337983 496.89377535363934,207.83645857294692 497.40560093845147,211.33125686831852 498.0596933460795,215.80862235473728 498.12806812094595,216.27098952888912 498.47851347346864,218.45770153174328 498.24304414761247,220.2858893184174 498.15545744018397,220.97830706822097 498.96275269370545,225.98375438999508 499.79753578899357,233.3483284929389 500,235.11907752775406 499.95733965774497,235.39267515030846 499.84945726797946,236.0823342636405 499.6442344202915,237.3795830558191 498.3332909686339,241.5120204627982 498.25132005681706,241.76936183480933 497.73683435841207,243.32375495352179 497.22225013719844,245.2012041054489 495.12322336430145,248.496198303477 494.37336686284897,249.77423516316352 492.07453599253836,252.67799559844772 489.1624996479796,255.17938920250336 486.0508562513445,257.4508307535759 484.4362657443015,258.6467981787769 481.82817202327396,259.9822737903924 478.1910083823478,261.69548555061 476.53247673737764,262.36061250405413Z"/></svg>