<svg xmlns="http://www.w3.org/2000/svg" width="500" height="500" viewBox="0 0 500 500"><path d="M27.918529065215804,192.58654430932145 24.894258593341334,192.1218868114098 24.53651376766496,192.04890938340048 21.518423433012423,191.4331530830214 20.669339199821906,191.25940611323892 20.29309096942361,191.12780989927015 17.58337837677009,190.17799313106627 16.548186899510995,189.82024830531103 13.53727588588341,188.7809860789784 10.323863611587427,187.6821058828307 8.072628379781396,187.03959365930325 5.96938337849137,186.3508969377272 5.168630038336498,186.0887407004577 0,183.9670293013107 0.2590476652655298,183.4807968335644 0.26311841436535777,183.47254431508534 1.1430663265113012,181.81859898582775 1.3692519451101741,181.3939828556077 3.9309373004090022,182.5658774865771 5.478006964243722,183.33787653595124 9.077955361993267,184.64547513669646 9.343183164480726,184.72259732732522 9.717396020329112,184.71127324368084 10.048384922988568,184.64754751803247 10.220022504596363,184.4769091202277 10.326972183512554,184.37821195973797 10.46060377208383,184.02868264564938 10.731974704849357,183.3193731312819 10.893361400345754,182.89586720535465 11.22538649364692,182.06321399549748 11.276788951769007,181.93576254417442 11.325082837965967,181.81445422318203 11.66639664030901,180.96022604349017 11.77534468704161,180.69806980622062 11.833926466188652,180.55518651541985 11.881258175316091,180.44213071293282 12.281116750072673,179.47788128910685 12.33251920819476,179.35453759361712 12.528840331641232,178.8795922027028 13.918631056023246,178.72542183504376 14.08312632344477,178.70795462104243 14.40386433988765,178.67198400239806 14.416187607387645,178.17646282550467 14.420332370059661,178.04183205315667 14.423403935146105,177.8999479462115 14.449086660892986,176.93162777336462 14.45112203533772,176.81546339887356 14.455266798114916,176.66947153609507 14.463482309676401,176.35287828229792 13.883696627967993,176.20792261016115 13.720274557921682,176.16784423565716 11.9634873056601,175.7289064702259 11.788704145183315,175.53872847711006 11.681828479839313,175.4215279119773 11.564590907867862,175.29403945384186 11.155480630802906,174.84792236738565 10.970446584109542,174.23216606700657 10.798771995663063,173.65955970629682 10.184088892738083,173.33989488733434 9.853062983345122,173.16718410819354 9.31032111770889,172.9040286870684 9.075919987443353,172.7426419915983 8.841555864016499,172.40650914249008 8.671916650014754,172.2173303332036 8.1137429449534,171.58925076529823 7.7344231493634785,171.16367245803497 7.763177440196803,170.681547746122 7.844370379899104,169.35651893818783 7.88245038661299,168.72533079830473 15.251949389169962,168.15072606988375 16.272708210912135,168.07156850473137 16.902860160100925,168.00473420707897 19.366884545525437,167.74465035114545 22.81573414072867,167.34172021119724 24.26821439998588,167.07238465290274 26.177173652379345,166.7177483991252 27.918529065215804,166.3309902348499 29.047273756515878,166.0803801220991 29.946724257186773,165.88098743343468 30.518294427228515,165.75349897529924 30.997310567242664,165.64758548699848 32.574207719391104,165.30941726339293 33.49630638735076,165.11202294243978 35.57793941199373,164.4284331605527 39.088442351535626,163.38817175036445 39.97967734064504,163.1342310247616 42.205229846704185,162.56784180800727 44.43078235286852,162.04460253094857 47.615440336331176,161.78244629367904 51.45589598778564,161.95722945412953 53.550925477409,162.08675328676227 58.7575615088872,162.08675328676227 60.79393520568615,162.08675328676227 61.77465265963153,162.1813056846063 63.06267465820072,162.30464938006972 64.85546953610313,162.50104451716726 68.6054805456521,162.91115397814042 69.93258173494856,163.0561096502772 71.22064074035643,163.11879918528388 74.42583750298576,163.27404275039703 77.26300154677826,163.31722969687874 78.27040091037873,163.260683292229 80.36132264416875,163.14248354324064 83.66517956037023,162.8823996872808 89.29435934073246,161.66221117016704 89.59655694561472,161.58560707485913 91.07871666604127,161.2098769397554 92.39260642434041,160.8768156558125 96.23517146402216,159.99690475045264 96.58159220610673,159.91771017848788 99.27694615671035,159.6237280851934 100.54442937611287,159.48595173408157 101.3811903418034,159.39447090142917 105.52695217027562,159.1940420220968 105.91963142411242,159.17553861745375 106.14888860790292,159.14674731978175 108.12257276961631,158.90416768466193 112.63947588885047,158.3469931634299 115.99680764466783,158.26169246792057 119.74989021930324,158.56696163807334 120.43555238255261,158.67046968375288 123.24192676096189,159.09434567777774 124.37574138516482,159.2649840755825 127.1337848707488,159.7440002155178 127.38668940563109,159.7881863458551 131.18192273618538,160.0051202621193 131.81000230409077,160.05341414829 135.677250885506,160.3536133855662 136.8994747771697,160.5283225323919 137.46175623806437,160.5416819905599 139.9176021186609,160.60233615104298 140.4778482050057,160.61569560921097 141.87278287575757,160.74625563251175 145.7574986713582,160.7031056928424 146.64458889769043,160.70621426482012 147.63144948191388,160.71028501384106 148.7683726781471,160.72057290684373 149.7768452391228,160.6887100440064 150.68865601413236,160.57150947887362 151.27458482611883,160.44909095361476 155.08728537075336,159.652482376053 159.05833805232098,159.21665318259946 160.56329396718067,159.0768784637764 164.73170396304684,158.69237771487278 166.83184039230656,158.40971970522267 167.0004064088279,158.3871085447463 170.65072107395264,157.63257670937347 170.7956767461157,157.60274922105975 174.81091555804696,155.81613448035299 175.60759814931237,155.41831128009372 176.1616640985404,155.14076021015887 177.08065419446976,154.68228284939028 177.14745148538864,154.6350251538876 177.77453186938578,154.18372711414395 178.49205689549882,153.66973953939365 178.5013085978072,153.662560218395 179.08623822599063,153.24316204830106 181.79284224661384,151.01964491668664 182.11358026295156,150.71041601795008 183.1343760915324,149.72647897156352 186.58111629850836,146.0648402227155 187.802341006369,144.5588851239739 187.88971408318807,144.4519724518175 188.55583665107383,143.86089969325081 188.67510959749,143.75502321176245 190.33423588008765,142.66535771113703 192.16710913241516,141.70625223381242 193.43251997053426,140.61558754933142 195.29211213925038,138.58639317350483 195.78763331617006,138.0446504917768 196.17409542594623,137.6941219938326 197.3665658428684,136.61063663035026 198.1878949690286,135.8643203066441 198.38118153422732,135.69882585534066 200.88735667546555,133.56168261671598 202.56498636267992,132.13077732726714 204.85385751955636,130.37088150292266 205.9675774462361,129.5145809419211 206.56275796063613,129.18769979512126 207.7130406149059,128.55547546459647 209.45854079041436,127.6837800709033 211.59668321292096,126.85523461687943 212.95257569988945,126.686224518662 213.69171270254432,126.5941145702516 216.1783852552576,126.5941145702516 217.89302175181066,126.50674149343256 222.20017027567408,126.28884540012513 226.78287150191895,125.72138298589041 226.8157335485856,125.71627604622776 231.27094631674757,125.08716028765438 231.9196016705531,124.90516079939285 232.95682852236212,124.61528646193169 233.59005203674252,124.24932612448347 233.9909838090847,124.01803356619565 234.38573544409974,123.25221465399086 236.2894767363408,119.55153372130685 237.89620137680294,115.43656155819157 238.90978087752018,112.84197714946629 239.08145546596666,112.40200319339331 239.29938856616536,110.52697918522578 239.07427614494168,108.48857011387692 239.02698144265293,108.23977333477538 238.3772898981005,104.83103912086224 237.27859473604107,99.53188606608995 236.84972282268558,97.46361249961498 236.02017818485868,93.62826378779688 235.888618977676,89.85149685512582 235.97595504765638,86.3636050760603 236.09829955936937,85.51037608022405 236.23807427811352,84.53280420504248 236.67394047840574,82.61463025717933 237.8088282999839,80.13003008580205 239.6838523082303,77.77595293088687 241.71201049336258,75.82284455504734 243.3927117457686,74.44126934243717 243.67544376906977,74.20894059348134 243.79160814345565,74.14787935808832 246.16311550558606,72.90137899952222 247.60330950418196,72.24654350849477 247.9528018114582,72.13345069919532 249.34773648221005,71.68015429174045 249.9326661103935,71.70380164291112 255.26064746967648,71.91655378971721 255.89179860277346,71.9422735221976 259.42802127479575,72.07179735485666 260.16401269868686,72.04815000368599 260.8249913200975,72.02757421770694 263.6591208055371,71.73666368957778 263.8883409824889,71.81482207087456 266.8407072238081,71.8888356895519 274.6306035802884,72.27193017968995 275.4313939273871,72.31130542481115 278.58618741569734,72.46347742475896 280.61234723311844,72.5600651971003 281.3935979848535,72.64643909009003 282.7022327762667,72.7903585715588 283.7456027583538,72.90548675538186 284.8660949312537,73.01339861136756 287.94276704494814,73.31048927663977 290.82622660733153,73.42561746046283 292.96029828084346,73.42561746046283 294.3244062793734,73.33824438364378 295.2280015428215,73.19432490217501 295.87558369914666,73.09155699266434 297.4442653397336,72.80886197622813 298.23169622858546,72.57856860176963 299.2565998128945,72.23525643163647 300.02959804612425,71.79321009422749 300.47782452064996,71.57938474994101 300.90543820243687,71.41492648930559 300.9835595769475,71.38509900099186 301.44821707480656,71.1075479310307 302.0989078032672,70.7179772492505 303.0148263340049,70.02302637690664 303.2677308690976,69.75372782542453 303.3797504808114,69.63549106962377 303.69020060430427,69.39287442766526 304.45502033260084,68.8614566457523 304.6791335699163,68.69285362244486 305.46959901722624,68.0980801829548 305.7337906289668,67.89927960323605 305.8180921405943,67.83555387758767 306.6456014039764,67.08716517257182 309.5516721268099,64.34455352654443 310.0779829690076,63.71232919599334 310.54367665761356,63.20248638388875 311.16557608829703,62.51993279266967 312.5317564682156,60.909100396295294 312.82677475217804,60.43522820286137 313.07142676866016,60.01372064461905 314.27004031596556,57.95162721531342 314.494153553281,57.36673459388977 314.49826130911435,57.091218898452226 314.5301241718728,56.84556769814079 314.6761160346776,56.08381953495694 314.74905645587455,55.70035497672129 315.02867990714543,53.46247920308326 314.99681704438694,53.1191670329764 314.990636907165,52.95056400966895 315.2044622515304,52.32866457893292 315.6218250469955,49.74947500289926 315.9024476821746,48.00911877386583 316.28691142434474,45.10926519501406 316.86462472466457,41.584329599823775 317.4793448344282,38.97227797709716 317.99784723986926,37.85385818561214 318.38397628841284,37.021204975754955 319.4797849193689,35.293172014247816 319.8961115242975,34.86966608829427 320.39155868753977,34.36596640654662 320.7483043295183,34.08327139011042 321.35887967660994,33.651512945677815 321.69094177664465,33.418185012866374 322.3200575351917,33.09437543125817 323.1290633939571,32.69966080297663 324.09534819228037,32.2781532447606 325.12328633494235,31.854647318807054 325.93232920044125,31.699440760506292 326.7773426846371,31.536980867555798 327.9440563622402,31.395133767396743 328.36863548567413,31.3098330719137 330.98168629225637,31.335515797581696 331.841058418397,31.400277713898078 333.8887932057316,31.288221095266646 335.4934454650155,31.17309291144359 335.94059874206084,31.087792215934254 336.20686273519,31.03638975778587 336.30863146079247,31.032578056425354 337.57196991762817,30.98498729963749 340.18198616585744,30.517221229748124 340.4431062124064,30.354835350422405 340.96220072684565,30.154369464277625 341.37034882694627,30.109147143298582 342.2081089764398,30.115327280441626 344.68756520139465,29.784301371022373 346.0948601464852,29.498571796206935 346.224383979118,29.48621152189455 346.7887378212961,29.47285206372655 347.6398944358752,29.369047963574168 349.16438994609854,29.092459070656236 349.6320820023105,28.895101756515466 351.66338576631176,28.03676582099028 354.16238158652504,26.91523745752755 356.1319209857768,25.93559320100997 357.4251239376597,25.354771328633557 358.0244122078931,24.99088337252135 358.57437040128775,24.65578671405485 359.38752102262,24.033887283318826 361.6778354450481,22.629663903419893 362.93092301566725,21.859700228569373 366.0898242598108,19.490228240988863 367.1476268976252,18.555399230566636 367.5228389373818,18.22381821898784 368.77178174543405,17.12075625338206 370.1605732858027,15.683670826790175 372.8898624804482,12.770457789770408 374.1819922349559,11.682827663668633 376.47952298514247,9.7810847391651 377.2895650345495,9.124250880400112 378.87364150772294,7.838227249489563 379.7993298363003,7.014862748779431 381.84240176564197,5.197421335929621 382.5126690961998,4.537478905186916 383.4697021921095,3.993663842122881 384.8214869232446,3.491999534898855 385.14629568868213,3.3717644113868523 386.34283685470416,3.2555630301096987 388.3206657791947,3.430309183747801 389.40618651709553,3.52693396290152 390.6510955828867,3.52693396290152 391.4354178997082,3.7397601233323923 391.6564225650985,3.799341086361345 392.4798240726473,3.963873360621552 394.76910230432856,4.420278340054147 395.77442928654045,4.692648456701583 397.7851202576977,5.002099396286175 397.9866223344579,5.065529067488033 398.6476379627073,5.2734703290779965 403.3865449310296,6.011571141117473 406.69043885417494,6.3230204484132955 408.74842452762095,6.554350013513504 411.42938282933596,6.748598755676558 412.07803818314153,6.692052351026839 414.1102671173736,6.5163070135331225 414.8730514712255,6.462795167236344 415.7858984368768,6.399106448374059 416.3122092791797,6.399106448374059 416.8837794491162,6.364135013559006 419.51947842309244,6.204783692612523 420.66872488672044,6.1657415087765255 421.4345437989253,6.2037845087569075 424.59351905664107,6.009498759781465 426.3626665833465,5.7884940944963175 428.3270990428567,5.543805071228109 428.82565477812926,5.4988047910708096 431.4489934776616,5.262146245433615 432.63631994810873,5.154234389447904 433.3518095996718,5.053501854460852 434.83822510307607,4.843784265981402 435.5084554267952,4.843784265981402 438.57176808245305,4.532297951899486 441.8756990123319,4.066641270132223 443.5183572647575,3.770586795501725 445.469430266126,3.417985916247804 446.01328233597616,3.3203249464260813 446.1838837269422,3.2884620835887444 448.3384941796208,2.9780119601485375 451.02359724390266,2.6881006159012863 451.21062965830725,2.66759884352072 452.35991312866884,2.27902734559613 455.95060982411,1.57996871739265 458.6788258212751,1.0742336611476806 459.664650214962,0.6572779404610652 459.77977839881135,0.6085769793804173 460.9270264947282,0 461.27448342745447,0.3042699862971617 461.7575703164633,0.7277759122244161 461.9816835536735,0.9231348586539563 463.46502749199135,2.1258561617926928 465.5826681420648,3.223737174084751 466.64146996378736,4.633030486886537 468.1648922765303,6.213036211091576 469.0540918909846,6.831864076662277 470.11289371270715,6.865799320809327 470.4982086113256,7.014862748779431 471.0031295178032,7.210147681584194 472.0187813998038,8.136354105429774 472.5276250280265,8.891922131444288 472.9089801981663,10.67853687215106 472.9089801981663,13.118913906404902 471.4266724505954,14.698882623797553 470.66388809674356,15.282776061365588 470.5467245383443,16.125717164199155 470.40998437795304,17.103326046193114 470.87564105972035,18.37491702148157 471.59523846711676,18.856005542726543 472.86579325160574,19.268224391821807 472.6972272351896,20.77932343706474 471.89229212552397,21.776471914396044 472.06193133942054,22.462097070780448 471.9344428813377,23.149831615313254 472.0187813998038,25.348628198276604 472.35798581402474,25.92841388001131 472.765060716645,26.584248554894387 473.3376300705949,27.20104104594147 473.6840878195182,27.81676033953445 473.77453246152885,28.433552830581533 473.7138783009932,29.35150673594806 473.86497710343434,29.81209348481247 474.25665717346817,30.45764026671917 474.7089543970937,31.134013720795206 475.23526523929144,31.61510224204018 476.4554537564052,32.69862461233492 477.102073735766,33.374998066384656 477.4063067151982,33.970215587597075 477.609881173347,34.42454818571996 477.8422099223291,35.45866646555125 478.03856805261427,36.300608384555495 478.3088657878994,36.39105302653987 478.3222622528798,36.392089217207875 479.0325709511292,36.43013221718826 479.4078199977244,36.450670996354916 479.8487561308143,36.47431834752559 480.41725473576963,36.50518202650731 481.853340978427,36.58741115682503 482.77229406762285,36.82795541744752 485.497475506435,37.33883442022012 486.2252514186594,37.32136720621878 487.2193283308517,36.99037830358562 487.7158116847357,36.720006554649416 488.9205683624243,35.456668097840016 490.0842474816745,34.14288935992546 490.5036456517947,33.77570779777359 491.18312767782214,33.1807493242479 491.67968504538356,33.000822217296076 491.999349864346,33.01007391963074 493.0499361744019,33.0450453544458 493.23082545831807,33.0450453544458 493.8023956283598,33.1652804779315 494.3749649823098,33.421256578058 494.63608502885876,33.710131731663544 495.1181727340645,34.31145537642052 495.4944579713015,34.7935800883335 496.57790632791887,37.10961424324201 496.97191782689646,37.85385818561214 497.245102093285,38.368844944218075 497.8742178518321,39.24368591670137 498.0715751660254,39.66511946131891 498.25760839641663,40.062979668390554 498.80756658981136,42.2740995188539 499.20439060632015,43.01220033089338 499.8900527694644,44.63124823893441 500,45.10926519501406 499.8632968463423,45.697229381603044 499.42128751577195,46.34692092612917 498.8055312153666,46.98939614287054 498.31311861037204,47.550678419935906 497.9841650822625,48.15200206469289 497.06517498633315,49.60659171209849 496.257168311476,51.123870894484476 496.216053746304,51.616283499400126 495.9652585994386,51.576168118083736 495.166503626995,51.550485392415744 493.3932483444562,51.49393898776602 491.2551059220548,51.617282683255745 490.5036456517947,51.72730392736356 489.1981564391453,51.91851811117367 487.9583913199344,52.12205556245748 487.36428400301475,52.220715716134826 486.4391137697583,52.3396556013184 485.55709347632893,52.45304446509065 484.33379638718486,52.6617258628758 483.8537440566342,52.97628374214934 483.62245149829374,53.37410694243489 483.24105932142044,54.13478190813835 482.6767424859758,54.76389766668543 481.964361406443,55.42694866940585 481.4955961526455,56.063280755790274 481.14714003601097,56.94111927981412 480.79860990580426,57.83546284082236 480.6166844311412,58.448147576036106 480.26819130777324,58.812035532148315 479.50030001417986,59.332203244067976 478.4887928948512,59.86265884893771 478.04163961780586,60.259408851742876 477.27989145449055,60.806332486784626 476.56647418431606,61.336751084868276 476.0689546397903,61.51867655953133 475.37300458359084,61.65130896414181 473.7909634848622,61.68520720150277 472.3487341117164,61.56904282701171 471.4194561227318,61.56904282701171 470.8725694945287,61.86716968295192 470.0100887963578,62.39758828103557 469.0818469980149,62.66281608347043 468.1217423368084,62.96090593259826 467.2387228594708,63.367980835218475 467.1060904549129,64.06389388460556 467.1400256989548,65.20599803404734 466.87483490341117,65.47118882966981 466.27754500078385,65.68708655529231 465.365771232613,65.9687453810868 464.88468271142057,66.3326703440114 464.505325908992,66.96382147708209 463.85774375256165,68.59008571293418 463.8425339539583,68.69285362244486 463.6757812711651,69.8164543672436 463.2687063685449,71.29158279381586 463.11860674990675,71.93920195703227 463.1638290708069,72.43568531096886 463.419805170986,72.8427602135628 463.75593802012054,73.07816052768395 464.4148812669813,73.54074564428588 465.394562530285,74.3240687773044 465.8324641050219,74.86684764970043 466.22410716811186,75.39315849195074 466.87172633138084,76.89193426969369 467.35485022712317,78.0216411380107 467.4453318759725,78.45858053573072 467.0084664918773,78.77313841500427 466.5109099404077,78.96945953847703 465.6669696537974,79.4361524109123 465.40936525397836,79.62540523379728 464.9843790557396,79.93781671813632 464.3357237018289,80.34489162073025 463.49174640827476,80.35925026275386 461.7380307210996,80.2708780020792 460.77385531089845,80.30066848360683 460.0347183081384,80.30066848360683 459.664650214962,80.25933187758677 458.2861465675435,80.10538355077577 458.1957019255328,80.16496451380472 457.2273447459261,82.87882186897248 452.59535044968123,82.24559835459208 450.5445070904215,81.77886847534441 448.08769903275544,81.40265725173221 445.5362645636732,80.69027617219942 444.9636952098284,80.4199414300493 444.31503985591775,80.013865711311 443.6365570137985,79.3960740364083 442.9540404293129,78.72684289654482 442.4718787106401,77.97438344250803 441.5981109356109,76.98030653036835 440.7233439766735,76.00066227385076 440.6914811139151,75.95236838768011 440.2987648533448,75.36333100363703 439.99656724835734,74.86581145903243 439.57302431567024,73.9735402793602 439.30165338279954,73.43179759760588 439.01485061050374,72.51280750159763 438.62317054057513,71.59378039877701 438.15340610297454,70.92665864703565 437.31046500016726,70.20809743033351 437.24059614416194,70.06932189536607 437.57465661201303,69.80612946742853 437.6302038328071,69.6951090394388 437.1572938163375,69.40319932748032 436.6433432483733,69.2788194413226 435.8168701757381,69.37544422047633 435.3645359452738,69.45045702298299 434.93074212647537,69.55226275545043 434.14534661206824,69.78969844409521 432.75348350650796,70.41777801197428 432.34540942008476,70.55555436311239 431.59294996602165,70.80945808190287 430.3017823885835,71.22574768001908 429.7302862321139,71.34294824515186 429.3910078042156,71.41285410796957 428.82565477812926,71.59533468476587 427.7061617891376,71.95666917103361 426.1231215066059,72.57960479243764 425.1023626849689,73.06480106951595 423.9438275121938,73.78747004205141 423.4956380444016,74.27266631915602 422.8901696370515,75.21944852895436 422.4882016740676,76.10346719017383 421.9403158619563,77.38634524229427 421.4458678826222,78.52844939173606 420.96170779613306,79.30044844111019 420.3613463284193,80.3243158347512 419.89772502120195,81.21965857961506 419.44442861377337,81.83645107066214 418.6898967784268,82.62280876205989 418.23656336415957,83.00423794577192 417.49542799379344,83.46682306237385 416.8765631213578,83.77520080450435 416.16625442321356,83.99209771395616 415.02929422014165,84.26039708158265 414.2449719033201,84.34266321871276 414.14320317761246,84.35291410490304 412.43367362080096,84.3323383188977 411.70175294590456,84.10618970711121 411.13947148500984,83.83378258365138 410.82080584995555,83.55623151371653 410.5422185893264,83.13376177843098 410.08992136570083,82.67217584568465 409.6160491722669,82.49742969204655 408.99822049057815,82.42545144791912 407.45318620118815,82.2599569965894 406.0695386071894,81.96186714746158 405.18341055792666,81.72750302400843 405.0600668624107,81.69460397050308 403.6178744961035,81.64320151235471 402.9897579214647,81.80769677982882 402.4336565976867,82.31135945476407 401.7818556650122,83.27457268792203 401.1846397760623,84.24189367691332 400.8145716827807,84.96249026813908 400.4640431848628,85.41482449852442 399.5131902260698,86.16214000608619 398.6476379627073,86.76964378798621 397.9866223344579,87.3741130115333 397.92700436466913,87.4285870348733 397.21569648261675,88.07620619808972 396.93196527551254,88.41030367270059 396.2031161658077,89.26553103624806 395.554460811897,90.10954533656202 395.2450468791511,90.50015220901022 394.69923344832324,91.02542686059255 394.6498663646459,91.0603612885952 394.1944605690952,91.3852440676838 393.2497507406855,91.89201531459678 392.71725976126584,92.09966052174022 392.71522438671593,92.10069671238193 391.5278979162688,92.4070390799888 391.1835865623063,92.58382060815053 390.28717061998833,93.05673062454123 389.41033127976755,93.73621265059498 389.3455693635037,93.81022626924603 388.7215975513265,94.51849959294549 388.4327223977473,94.79294209092893 387.21456925518345,94.79605066290665 381.93081103310277,94.79605066290665 381.872192247117,94.8011576025956 380.3703819110211,94.93375300041998 374.11623113478385,95.72222007993985 373.62896247636957,95.77773029392156 372.93382656999006,95.85718391354676 370.15443015541945,96.17555349418082 369.85119635979026,96.25781963131092 369.65894598533845,96.42331408264064 369.1079886081407,97.04110575754335 368.51687884273537,97.63217851611005 367.32851618164653,99.01482692617431 367.1476268976252,99.21629199614841 366.86433977226966,99.53188606608995 366.7230847810299,99.68912799891433 365.85546013638395,100.65130504143059 364.9200020101774,101.29688883012338 364.6167682145483,101.81909191654036 364.4523099539654,102.45231543094707 364.18608296756975,102.9950572965307 363.7183168977856,103.46282336642007 362.8373698017314,103.88940085753894 361.54520304038505,104.57609921140374 359.73904870444613,105.89294951448363 359.61363262764667,105.98443034713601 358.75633288278954,106.59607889170806 357.4744540144984,107.38347277374751 357.1845796771161,107.49138462975952 356.87002179779,107.50374490407191 355.6168972203322,107.44412693423057 352.6648270335121,107.31545425820386 351.06713205443134,107.24573342942179 349.09755564844613,107.24162567358846 347.81978453598833,107.23851710161074 346.62017180487993,107.16864824560541 346.5543736978692,107.21079900141913 346.04760245092996,107.88513708099784 345.6723534043347,108.4464193580369 345.38662382951924,108.8750692304918 343.7603225868548,110.75109242248865 342.60389680230696,112.16763906991388 341.98506893660476,112.8964511728063 341.2531482618135,113.61708477081814 339.61555994229076,114.99247984625897 337.95025352257636,116.36687573787049 336.707490851746,117.10394035921566 336.30863146079247,117.4269357910302 334.96095448559583,118.51845163211726 334.2033510850577,119.20611216305159 333.6646799684161,119.81465213561961 333.25146193551785,120.4057619009987 332.7836958656285,121.10789209434121 332.27074448146726,121.76887071575193 331.98501490675704,122.13790261833917 331.1831883690166,123.56266477743107 330.6475888176718,124.77974472256712 330.42658415228146,125.28140902981744 329.5733921632576,126.61365416558894 328.82603964893605,126.83980277737543 328.390173448749,126.9713989913442 327.589420108489,127.65088101739795 327.06618083137766,128.9060039625407 326.3095766146426,130.2536809377899 326.1716522363601,130.37088150292266 325.05752523477037,131.3176267059349 325.0154114857953,131.35363433141796 323.6523026709632,132.1245971901241 323.00468350779937,133.4311596002276 322.67469378904815,134.0078367099583 321.69604871638614,135.59909250420924 321.1039397670726,136.50575933271747 320.2908631594177,137.6807625356646 318.63891619784505,139.7017413997982 318.3500410442658,140.32778559320627 318.0899571882534,140.69167354929218 318.05705813474805,140.7379320609655 318.00358329534254,140.81194567961657 317.72706841599677,141.22619990323545 317.53796362041396,141.4338451103526 316.79061110598724,142.11643570838407 316.0885179195097,142.81749270427247 315.38642473292697,143.6275717604394 315.13866414451974,144.08086816789427 314.79431578371856,144.50644647515753 314.3368376067793,144.8837308962501 313.45589051083033,145.3915383338311 311.8985329538352,146.4534117206401 311.0720228743612,147.0445214860192 309.8199344876503,147.7322190237659 309.3604579429998,147.99641063553275 308.0128179745367,148.7684096849069 306.9262240390503,149.33172733646958 306.09975096641506,149.63396194824313 305.51792991015674,149.8271744997382 305.46959901722624,149.8433464754374 304.73767834232984,150.0872953625104 303.5514620760966,150.4624703954546 302.72598818726436,150.76470500722814 302.05165010771196,151.10805418417368 301.5150143656203,151.46579900992896 300.79956172100106,151.7268820497444 300.30407755092006,151.7135225915764 300.21770365790405,151.71148721705276 299.57419225057356,151.69912694274038 298.77443809411653,152.67877119925797 298.2512358239491,153.33875063678676 296.8716959857837,154.37186973276243 295.2485403219882,155.48514557774612 294.61942456333594,156.28079197826463 294.42617500508106,156.52340862022314 294.2298168747959,156.7721313856999 293.5277236882132,158.00878793298568 293.4732496648995,158.51763156123465 293.61098900919893,159.02647518948365 293.621276902149,159.14574813592614 293.63770792548235,159.3420692594252 293.5143642300715,159.72753218537207 293.08671354144593,160.35561175325114 292.6325659773587,161.2098769397554 292.5090372478596,161.4422056887112 292.24791720131066,162.25224773806573 292.2592042780638,162.89675832930442 292.3445419804381,163.24118070373035 292.46888485975717,163.89801456246906 292.49767615742917,164.04707799043916 292.5090372478596,164.1077321509222 292.7471760658872,164.81363703883915 292.82437227016703,164.96865856310424 292.93150698317146,165.2374760260516 293.01784386934884,165.409113607712 292.7597953878863,166.44426807821128 292.4534900270655,166.88017128526332 291.94464639884285,167.69121251847344 291.3648977239731,168.3306161700232 289.9884294509993,169.40177826597926 289.8784082068915,169.88390297789223 290.3882880257559,170.2816891713654 291.3782201752761,170.80492844842408 291.9097119707876,171.0752631905742 292.05259526166725,171.14827762536964 292.2592042780638,171.5327413674609 291.95493429179294,172.26876979816436 291.36282534258453,173.56089955261947 290.6463365072184,175.16762419316052 290.45512232340826,175.5952748817598 290.4397274907167,175.62917311909445 290.0285078255296,176.77020407108213 289.69751892287013,177.0734748734974 289.27090442499144,177.12794889683738 289.0879427595815,177.1598117596747 288.90390789690156,177.19274781996614 288.48654510122606,177.2657252479492 288.3077281985933,177.41682405044293 287.9643790217003,177.8855522973755 287.73408564726816,178.20114636731705 287.4637509051443,178.5712144605986 286.76469227691456,179.5261751752775 285.9186796089157,180.8954641271738 285.63602159929184,181.3539414879161 285.1127823221806,182.0693941326405 284.4610554031834,182.66871940968625 283.8144724305561,183.40989178689105 283.26451423716145,184.1941770969528 282.85125919742444,184.8397608856719 282.5192341041233,185.19854190209517 281.4439642523339,186.36011163324952 280.5362982399963,187.29457057554785 280.06853217010695,187.96787246445854 280.02638141418805,188.3112216413778 280.34301167479765,188.47671609270753 282.3300923015966,188.49007555087553 282.56652880641207,188.49111174151724 283.594466949074,188.38419906938714 284.35617810544545,188.38419906938714 284.78075722898456,188.47671609270753 286.7482982604199,188.50447119968524 287.81324321231534,188.49007555087553 290.0696593975403,188.47671609270753 290.60622112595456,188.3800913135538 291.10170529603556,188.10561180875797 291.7626839173411,187.84452876896881 292.15021922459766,187.7879823643191 294.3244062793734,187.60912845484768 296.7329204508425,187.47238829437757 297.52856685136106,187.32025330124213 297.8801315399207,187.25241981973411 297.8986349446426,186.92346629162458 297.96028828898125,185.80397330268548 299.66981784579275,185.69709763734147 302.9860350364381,185.48941542341194 303.913277650978,185.1861816277828 304.6678094862193,184.91481069499096 305.46959901722624,185.1854784984 306.17069301990074,185.42158194190392 306.29507290605846,186.4536648472116 306.6620324273097,186.7086047566701 307.31172397186214,187.5834087223673 307.5409811556527,188.57330386504887 307.5481974834111,188.6052037346723 307.67975669059376,189.21892466055405 307.5461251021277,189.48307926553483 306.8481396713783,190.03203827510018 306.6281341900014,190.15745435189962 306.27349793614496,190.3578832312057 305.46959901722624,190.81469528554828 305.1375739238199,191.00343001311242 304.00579467427207,191.64594223663988 303.32627564130075,191.98000270443836 303.27738964631595,192.04890938340048 302.5368093780042,193.09124317489844 301.7966731914411,193.64634531482076 301.3669871283708,193.96811952190535 300.46035730667495,194.87271396910387 299.3480806455469,196.21728237237537 298.31085379373786,197.203106766036 298.28309868670755,197.22882649851638 297.64676660040203,197.83429490591908 296.7359920160342,198.42229609932045 296.03389882945146,198.74403329959264 295.1858507869026,199.59211834895385 295.21460507773594,200.2058022680232 295.6545790338615,200.34457780299064 295.7707434083526,200.3805484216613 296.0667978829568,200.36308120765997 298.19879717508013,200.23459356566892 298.8135172847386,200.21198240516625 299.8085933808391,200.1760117864956 301.4543972120285,200.00022944218946 304.262769958149,198.86119685793932 304.94536055620677,198.82419004860066 305.1386101145668,198.81290297176866 305.46959901722624,198.7948436487954 306.1038587221432,198.76050132973836 306.1614043107537,198.75739275776064 306.2744971200531,198.79029181126597 307.27986110899855,199.08634628587018 308.070363563042,199.1963305231919 308.51037452590106,199.14392888118792 309.0921585753207,199.48416948612945 309.68941147110934,199.83266260957632 310.3637865575004,200.37647767264036 310.3719650623284,200.99734091270838 310.37610982489525,201.2933953873126 310.3853615273088,202.0356039551854 310.32056260410116,202.81378314170257 310.45833895534446,204.55513855459162 310.4336554134006,205.83805361352447 310.4244037110922,206.3294300277721 310.4151890156225,206.84648916768776 310.40897187166706,207.16722718413064 310.4778785506029,207.99780801265183 310.53646032974996,208.29793323630327 310.6135455136189,208.6947572527069 311.9797258935375,208.5600894735728 312.304534658975,208.52822661073546 312.6849276520453,208.4912198013968 312.851421287178,208.47478877806347 313.0241320663714,208.85207319915605 313.60698931327147,208.89933089465873 313.8424266341787,209.52019413475304 314.1281932158328,210.27679835143556 314.17441472064115,210.39810667240167 314.2464299716073,210.56770887953843 314.4108512254566,210.95628037748932 314.4766493323621,211.1125231264581 314.54448281392274,211.27187444743086 314.69151086736923,211.3191691497459 314.84671742564365,211.36849922658456 315.30726716777457,211.51652646388666 316.2694442102645,212.3378555900732 316.5171677919383,212.54860936919434 316.58296589894894,212.60515577384407 316.6405484941878,212.65344966001473 317.1370318480718,213.07595640211267 317.654127994905,213.51796573270926 317.7342847438604,213.58583622102964 317.7661476067241,213.61359132800735 318.1752948906277,213.96204744464185 319.5877337821933,215.37655871754345 320.22813661759864,215.86279118528978 320.71129752017964,216.2307868972353 321.2581841483827,216.6460773114959 321.9736367931071,217.18989237455995 322.25422242144754,217.47562194937538 323.78796963397923,219.03508889441375 323.8424436572929,219.59533498081112 323.8558401222733,219.7392174554675 323.88873917577865,220.07538731138808 323.72217152696857,221.94112261043486 323.8506591690648,222.41403262682556 323.92367360372873,222.68025961311605 324.1518945968775,222.78713527843374 324.36620102972506,222.8879048202332 324.49524377387564,222.94855898074255 325.0328786997704,222.9814580342216 325.40816475309913,222.8879048202332 325.70514439803935,222.81389120158215 326.6529257916407,221.63174568444876 326.81534867777884,221.42820823316492 327.34269571072343,220.76926498627785 327.7610576900968,220.26249373936486 328.48783441851816,220.08978296022408 328.6440771674343,220.26249373936486 328.9751400837711,220.7250788559405 329.24443863525323,221.68929127295408 329.5017099736293,222.8879048202332 329.5065578656052,222.91051598073585 329.18996461183434,223.78328457190943 329.01829002338786,224.25819295601136 328.6934072443782,225.1515003263516 328.6050719904896,225.39715152666304 328.4004983484326,225.96154237570613 328.336735616077,226.37575959248633 328.0519682182259,226.83427396006732 328.0509690344229,226.83427396006732 327.7888498039657,226.88153165556997 327.4279964061539,226.83427396006732 326.6118112264687,226.33057427831966 325.986803223755,225.78983078042097 325.53143443504297,225.39511615213942 324.9074626229709,224.9880412495455 324.4273732854764,224.96439389837482 323.7067766943821,225.13196073101426 323.5978286476495,225.189543326332 322.795002926106,225.61201306161755 322.40539523756604,225.68295511507696 322.01785993030944,225.7528239711086 321.8780111977827,225.77854370358898 321.66725741871414,225.8073350012347 320.9836676368534,225.4331221453337 320.5416583061779,225.38893601499637 320.2363521292653,225.3930807776421 320.0533534571219,225.39511615213942 319.71722060809253,225.70660246624763 319.5928777286683,226.48988859245375 319.72343775204797,227.2619246486403 319.7265093172396,227.8406371328946 319.7117436002797,228.21625624756118 319.57022956137956,231.82504927270912 319.56305024035464,231.96793256350986 319.3296853007308,236.47147622454975 319.05831436796524,238.62301511201042 318.8363845324493,240.39038631185267 318.7047143048557,241.44271194185418 319.06445749834853,241.8744703862868 319.0799263446123,241.8744703862868 320.0009518150916,241.89811773743116 321.58502828837015,242.1859196935826 323.99154409212804,242.693764137976 324.81390940892993,242.86643791027808 325.0256623720119,242.9116602312834 327.09086437321633,242.79138810098533 327.39306197820383,242.68654781013865 328.0201053554675,242.64543324499294 331.1091747503392,242.76977612433828 331.7516499671332,242.83764661263237 332.1186464952231,242.87672580328075 332.6665323073344,242.77084932179235 333.5567681124304,242.76977612433828 336.10198543755723,242.79445966615066 336.30863146079247,242.81729286750135 336.96653851701154,242.89008526144875 337.0384797544055,243.32184370585506 337.06209009876375,244.71167143694427 337.8197675128741,244.82883499526466 338.7675118997419,244.97582604192505 341.9778526088463,245.30785113519994 342.7560317953898,245.35311046301766 343.83126464034046,245.87938429845556 345.05356254557637,246.26595742866894 345.0710297596566,246.2721005590259 345.34240069242213,246.27517212419122 345.7196851134621,246.28031607069255 346.299433788437,246.2864592010495 346.4310300023532,246.2885315823592 346.94808914224257,246.29471171952855 347.0457131052782,246.2721005590259 347.261610830927,246.2206981008775 348.29780149209427,245.97500989375368 349.2363311833873,245.47230939586166 349.6320820023105,244.96453896506677 349.8232961861206,244.7795049184523 350.26530551669094,244.35289042052102 350.62412353995285,243.82550638081662 350.9376452285321,243.15634925455163 351.3035685592468,242.80374837529772 352.06220815042667,242.0759354562609 352.0807115550434,242.05846824225958 353.1795917511911,241.53315658386487 354.41521210783515,241.0541404439296 358.1775833917228,239.81441233147848 359.2528532435122,239.49467349889122 360.5336959211616,239.31171183358646 361.06004377019804,239.037269335603 361.21932107746716,238.65487797484778 361.10830064955627,237.15813757160214 360.9921732817987,236.75417124098595 360.7413041214664,235.87729489400533 359.6434601159604,235.35198323561062 356.9892947442062,234.71158040020526 354.64343310098394,234.2592461697936 353.9834906703201,234.13179471847056 353.8467875166624,234.1101827418235 353.32661980474273,234.0300259928155 352.9360129321894,233.96833564166445 351.9460437759356,233.8131290833637 350.42876459347076,233.09867562249488 349.79143332325697,232.75432726169373 348.987571411177,232.3205334427638 347.6059591917281,231.44162172125957 347.5463412219394,231.32134959093517 347.5514851683092,230.99857619999497 347.56588081719786,230.03329058552728 347.6378220544866,229.55427444559203 347.75398642897767,228.77198750321523 347.75505962645803,228.76377199154857 347.814677596352,228.65375074741445 347.9123015592824,228.52119235642874 348.1908888199116,228.32686960064092 348.922809494808,227.8149544072266 349.42236441388366,227.4664982905921 349.8274409487926,227.17555075567685 350.1090997746134,226.97404867889037 351.20076364289747,226.18972636201622 351.2069437801194,226.18561860618289 352.4436003273,225.15764345668225 354.0955472888727,223.91484377906582 354.6218581311756,222.99996143889092 354.72395991811584,222.8879048202332 355.1060182175596,222.46850665013926 355.1090897827512,222.46539807816154 356.4968821393168,220.94193875860623 357.4395195864431,219.51717659951433 357.94321926829593,219.05977243622613 358.73268553159255,218.49538158718303 359.27032045748723,218.26412603570762 359.8655009718873,218.00918612624912 362.00160801984396,217.56813897269575 366.46303793196137,216.6995151441679 367.1476268976252,216.59201036306587 367.9350577865822,216.46825959269248 368.2270045052479,216.34387970653475 369.3772871596228,215.8514671016191 369.7206363365158,215.80520858997204 369.7453198783545,215.87511445278977 370.08655966712536,216.834182923302 370.36107617875984,218.1828960892192 370.29220650655753,218.77807660364553 369.9262091623758,219.73821827161188 369.7895060087181,220.19466025785687 370.01876319250863,220.8442777887845 370.2201912556966,221.1300813772247 370.45770095788725,221.4641788518093 371.2543835490475,222.58977796429298 371.34275580977476,222.8879048202332 371.43734521435226,223.20657045536635 371.4147340539022,224.30445146765842 371.07134787017054,225.12785297518093 370.9418610443765,225.51538828246382 370.88838620486575,225.6757387872659 371.00355139544865,226.71400182974293 371.15465019799495,227.31329009997629 371.43427364926583,227.852997407207 371.55450877275155,228.1120450724988 371.5442208796963,228.2024897144832 371.1176433886563,228.81724683103295 369.4008975039811,230.57706864175265 368.70794499929593,231.06803798111662 367.5927077934923,231.85691213552016 367.1476268976252,231.84170233689048 364.3402533353077,231.74589170755672 363.44794514882307,231.74896327272205 362.31512970842317,231.93606970067253 361.7538844382754,232.02858672399293 361.2840829938361,232.1591467472937 360.7032981282195,232.3082101752638 359.7339417647046,232.697780857044 358.95372720371637,233.18708488998195 358.77380009676455,233.36701199693377 358.472638682524,233.94572448118808 359.73087019961815,234.3805914975721 360.9345906865599,234.89868682815575 362.01807605001596,235.44964420540606 362.06844231749636,236.02739451261715 362.2257212571594,237.81500843715324 362.24936860835635,238.11209910245174 362.5464592736023,238.2261910955805 363.3297824066208,238.32181669090488 363.5302112859006,238.68155988437138 363.679274713897,239.60983868952667 364.03391096764824,239.9634387526362 364.31349741208044,240.59155532735397 364.6106250842702,241.07057146726294 365.0814257125125,241.13122562774598 366.23355870724396,240.98482669005753 366.9892377537482,240.70472215025188 367.1476268976252,240.58134144797606 367.66779460954484,240.1762649130671 367.1476268976252,238.94371612164093 367.02013843954234,238.64170355071542 367.1476268976252,238.60428966649306 372.0016990566356,237.1776771669395 372.07774804975764,237.15813757160214 375.4885546450857,236.10758826843752 376.34692758742324,235.843359649832 376.94003572043465,235.6603979845272 378.0615640838711,235.31397724241634 379.06589188227997,235.00452630283175 382.3821090728201,234.04031388581816 383.94664595073505,233.58494509705358 385.66749959124354,233.03698527134384 385.77744682177917,233.03698527134384 385.8782163635786,233.1171790271642 386.8187814294215,235.2800419982693 386.95245002472626,235.5884567471859 387.40267486696325,236.62464740835318 387.51062372978765,236.86104690632993 387.9608485720246,237.84379973482524 388.0708698162376,238.08538018611574 388.138703297693,238.23340742341784 389.098844965633,239.67356441517504 390.1052081384866,242.1416965564329 390.4279815294794,242.76977612433828 390.8628485458634,243.61789818048555 390.8392011946665,243.755637524785 386.99559996444816,244.92135201858505 385.59962910294945,245.28727534922086 385.5276878655555,245.25748486771954 385.0959294212018,245.08070333955783 384.36400874630533,243.41228834786574 384.28795975318326,243.25604559887068 384.1193567298232,243.12037863588097 383.76782904810227,242.83664742877676 383.57865023873694,242.79035191031733 382.54863971479153,243.06486842189923 381.6008213143515,243.34445486635772 381.0282519604016,243.51302088285277 377.9422911374549,244.42586784850405 377.7120347697562,244.50195384849113 377.550648074365,244.55642787183112 376.31809928291256,244.96657433959038 375.7383506080428,245.10638606522582 374.3588107698774,245.5073178374628 373.9188738205905,245.63476928878586 372.9083658851701,245.92875138208035 369.0853404407468,247.0986106385261 368.98564409642773,247.17876738753412 369.0380457385632,247.47892961799795 369.17478589895444,248.25814499518313 369.2169366547682,248.63024846296202 369.2847701362236,249.21721346569538 369.9971512157564,250.63990324345127 370.12771123913603,250.69026951095793 370.2870625600825,250.70980910626898 370.85963191403243,250.65126433390802 371.6573136889957,250.57003438744593 372.49614703607483,250.35002890599011 374.0062098906761,250.150636217352 374.6897996725368,250.161923294184 374.9622438027828,250.16706724068533 375.2726569194369,250.20918098968667 375.51734594265247,250.2431532406724 376.53088843653103,250.38085557815944 377.54139637195146,250.6995582200787 378.30414371906977,250.82908205273776 383.6917430481415,251.4931322392875 386.5566621989643,252.0194800883502 390.6818852482699,252.47895663294813 392.7398709217159,252.4326981213011 393.23328271051344,252.72771640526358 393.4121736267184,252.83466608420605 394.0063549573154,253.19030152183922 394.13587878994815,253.72690025709218 394.22221567612553,254.08464508284746 393.7082281013226,254.16890958768877 393.25796625224694,254.24188701567184 392.90536537304564,255.08175655334006 392.24645913291835,255.52480207460468 390.5184631783288,256.13027048200735 389.7331046707603,256.19710477965975 389.19443355411875,256.08508516781444 388.11712832788464,255.72630415139116 387.5784572113482,255.81571260273384 386.81363748294643,256.38213882627423 386.32022569414886,257.2795539524741 385.68496680521855,258.100920085473 385.6314919657079,258.139962269309 385.5688024308327,258.18518459031435 385.3385090562953,258.240694804296 384.5202885021654,258.14610539966594 380.7188380275505,257.4501923502789 380.4957609809819,257.546854136245 380.22542623885806,257.7637140388844 379.6991153966604,259.0702764489879 379.57469850366397,259.3776550072628 379.5428356408003,259.37043867942543 379.1028986915134,259.26559838860504 378.7441176750902,258.8400200813418 378.2054465585538,258.5480733625709 376.9739709646869,257.8254043900355 375.4793029426721,256.9454564778632 375.0824789262685,256.7090199730741 373.5806685901726,256.12619973298644 372.1671935079653,256.0141431143287 367.1476268976252,255.6291612769166 364.38240409112143,255.40967389078162 363.15189067421886,255.423070355762 362.286375417695,255.3942790581163 361.3653129402719,255.36445156980255 360.33323003493797,255.43128586742867 359.2559248087038,255.72219639555783 356.9820784163425,256.4880153077626 354.80589299396075,257.06987337080704 352.58548443427145,257.27237463144917 350.2972053863932,257.3844312501069 348.67197734120913,257.27341082211717 346.19148492561266,256.97632015684496 344.4912440779482,256.5517780402497 342.531955564913,256.0819765958367 341.3004059572636,255.76845490720487 339.7666957515706,255.6122121582361 339.01630867889605,255.58960099773344 336.79997086820146,255.5679890210864 336.30863146079247,255.6611351601648 334.5600227132537,255.99256814449404 331.88735393688273,256.648365812591 330.34231964749273,257.16342658479545 328.70062357213664,257.6475496644196 327.4311049781842,257.9456765203598 325.32578759561073,258.2591982089654 323.3459603034089,258.34964285094975 322.36217128427194,258.32088856011643 321.82353717446904,258.3044575367831 320.4070275339088,258.221155208985 317.9625057370092,257.6156868015823 316.40407498263886,257.3576753269585 315.7688160937085,257.2517988454701 314.9402706396846,257.23022387563543 312.9480460663055,257.20761271513277 312.3652258262441,257.1850015546301 311.96533024464884,257.1952894476328 311.7515049003887,257.2189367987771 311.42462375366773,257.25387122677984 310.7914002392873,257.32995722676685 310.2332265341208,257.4563724874219 309.6421167688206,257.6424427247307 309.3882130499249,257.7349597480511 308.7951049169135,258.0556607576553 308.4198928771569,258.2591982089654 305.46959901722624,259.39956303838267 305.3534716494687,259.4444522980765 305.0440577167228,259.5318623817079 304.63698281410257,259.6459173680769 304.34607228597343,259.62334321438664 304.3079922792595,259.56061667256756 304.1445702092132,259.2882095491077 303.65115842052086,257.14181460814837 303.39721769489165,256.31841310062583 303.377678099528,255.88772785367365 303.35713932036134,255.42510573028562 303.336563534356,255.30483359996123 303.28619726687566,255.2226044696435 303.0672279760352,254.8854354298673 302.73390764443195,253.72690025709218 302.3487037661192,252.38851199096374 301.9364849171291,251.4263349484738 301.7144440610971,250.90720342722213 301.56541764004453,250.85376559455014 300.8180651256178,250.81779497587948 299.45188474569926,250.86298029007241 298.0620940214224,250.99250412273148 297.830801463082,250.98839636689814 296.9673215811081,250.97503690873015 292.57790692006193,251.07269787852556 292.01766083361196,251.05315828321451 290.86630498186184,251.17650197870424 288.0322125031558,251.51885197176787 286.79248439078356,251.66895159040598 285.291636231652,251.79847542306504 285.13332110134724,251.81179787442068 284.6882402055853,251.85087706506906 283.0250061672595,251.99479654653783 282.56752799021507,252.03383873037382 281.29597402181787,252.25073563982562 280.4879673469607,252.34428885381402 280.3378677283226,252.26409509799362 280.1374018422041,252.02458702803915 279.8177370232416,251.44587454378484 278.38368615502895,247.497433022641 277.91392171742837,246.35640207067962 277.69806099861825,245.7478250912992 277.1820010425319,244.29120006936998 277.0175797886826,243.82861495279434 276.35245640470504,243.81732787593603 275.65343478331397,243.80500460843604 274.6306035802884,243.7876114080595 274.44349715241674,243.784428822457 273.0773167724982,243.62711287600783 271.60018997813586,243.09051414075486 270.4148988822386,242.51383703102417 269.9718903677601,242.25271698442262 269.6542239165089,242.06664674711385 269.4147158465018,241.9258358376228 268.6725072786553,241.38616553720448 268.2612876134682,241.08803868126427 268.2541082924433,241.0818955509336 267.87171693166175,240.80434448097245 267.375196570939,240.4568505413812 267.27346485207005,240.40444889937717 266.25984834461934,240.64706554133568 263.66322856137043,241.4303886743542 263.5162375147626,241.53004801186086 262.7637410538609,242.04303640275555 260.8815377246947,243.32387908037867 260.4292405011743,243.63125763865355 260.2586021033695,243.74742201311832 260.00469838457906,244.1072022133972 259.89467714036607,244.2449415577229 259.80012474252203,244.28912768806026 259.47942373291784,244.31895517637398 259.25016654912736,244.29120006936998 259.1576495258333,244.25315706938957 258.8296951816319,243.95606640411737 258.60765432559987,243.61478960850783 258.4267650416837,243.33416697338134 257.84905174125873,242.44085960301481 257.5499257014629,241.94537543296013 257.3782141061777,241.66164422582963 257.24254714316174,241.43553262085553 257.0657286082402,241.14354889527226 256.3410242612074,239.94186378280153 255.43539362331458,238.7412148609988 254.49068379479968,237.4881272903797 254.38887806235851,237.3524233205776 254.26964212267583,237.27944589259454 254.1360475410484,237.25272697625854 253.59426785248172,237.29794929723758 253.0289148263954,237.12009457162176 252.76575940529654,236.89805371566862 252.4213740376567,236.60614400368385 252.28156231207385,236.48687105721507 251.66069907192693,235.96155939882036 250.87944832029703,235.38388310523405 250.80543470161967,235.39724256340207 250.55970948765716,235.48561482407672 250.5103794108185,235.47743631922245 249.61607285662265,234.43195694893438 249.38781485674036,234.1656929558052 249.04243030529747,233.76172662521532 248.47500489782257,232.70496017806897 248.33622936288143,232.44902108475486 248.3321216070481,232.4397693824202 248.14505218591,232.09538401483292 248.117260072041,232.0799891821413 247.56937426003492,232.2156931519434 243.79160814345565,233.0191479892449 243.01139358246743,233.18504951545833 239.7084988432303,234.284965902274 236.97206733439856,235.77141841251694 234.02691742083778,237.7039880091898 231.31927720967803,239.45766668955255 227.7604433771005,241.62363823266165 225.05280316594076,243.4071444013644 222.94030646223717,244.833978941766 219.78651215783512,247.00194885256002 216.6337170372361,248.90676334225518 213.71839461209424,250.3922166686425 212.95257569988945,250.6882711432467 210.564600307587,251.61136899508827 207.29157006350226,252.71128538190393 203.6803345889996,253.6189513942678 203.25227682546407,253.72690025709218 203.08104631876625,253.77008720357392 199.5993346767912,254.7518038414012 196.89162045195408,255.52480207460468 193.1436818237937,255.96991997720528 189.6177470447215,256.5970003612287 186.97072398715355,257.2014695847758 184.7318120228475,257.6815219153791 184.64236656474503,257.70002532004844 182.7159771053204,258.113243352973 182.11358026295156,258.22037806597746 181.63456412304257,258.30549372742485 179.20543715883463,258.73721516504503 177.24822102718807,259.0096222885049 171.98193001908243,258.8318045696751 165.05036959810113,258.2962050183041 163.79828121139022,258.20576037629337 163.29150996445094,258.168753566981 158.92163489866326,257.85112412251584 158.22157708663048,257.81000955734385 153.86298909770107,257.55303427338805 151.27458482611883,257.4366478580489 147.3004605793596,257.25794197582707 138.82179348759968,256.98557185917963 136.95498499112512,256.8601557823539 134.93197075246786,256.6216839030674 131.98582165520926,256.14677551896546 128.59351846460316,255.3439127906096 125.11280600653629,254.45160460412498 122.62535631084172,253.72690025709218 121.7503303042439,253.4719603476337 120.43555238255261,253.063368165837 118.21103606703,252.37204396081802 116.68039742652861,251.92181911852848 114.87838785315651,251.39140052044482 113.09177311247603,250.68209100607737 110.9608100109944,249.83711452872018 110.30597451996694,249.45054139850683 108.08556596027765,248.80806618176544 107.12238973398466,248.52951592797496 105.69551818679697,248.19334607205437 104.26257752279821,247.85517784842256 103.46278635960768,247.66703522980407 100.9792593857634,247.03277552472935 100.19490006199798,246.69560648495315 98.62829080279964,246.02334078673672 97.78227813480073,245.7396095796325 94.64284247234342,244.6849155137959 93.47505559715475,244.27887680186998 92.67944620347492,244.00132573190882 91.97424444496708,243.59321463864688 90.98327610480511,243.02064528474952 90.9534856232249,243.00110568943848 90.22156494843365,242.5333766263352 89.59655694561472,242.13451723540794 88.8009475519349,241.62670979782698 86.68227071121974,240.2718164947667 84.00438397469635,238.39890187472128 81.56508013784402,236.22989577325924 79.21411155498544,233.79155411352903 77.41924429579961,232.3482885497678 73.75864173761961,230.08983699017702 70.93280177741889,228.27650333313423 67.95786138248828,226.22573398747298 67.56211056356503,225.7826514594223 66.83944159097696,224.97157321939977 64.96782220925996,222.8879048202332 63.037991116467225,220.73943749796413 60.50920481467374,217.76760567495862 58.7575615088872,215.35690810179526 58.69487197380165,215.27068223605508 57.350266563796644,213.3792272045542 56.98019847051509,212.59690325536502 55.327252325034216,209.0987605901355 53.66087270794463,206.42398242558983 51.84546666959214,203.80778604021748 49.96326334042595,201.32115049431658 48.41619367648605,199.8953891513691 47.910421613454986,199.3299621116843 47.31524109894978,198.97325347657076 46.42296991930384,198.3791461596248 44.93655441589958,197.81475531058175 44.453393513318595,197.61947037777696 41.69327764645119,196.5061575259809 38.37191650943599,195.39080929968753 35.12871375355979,194.46974682234327 31.706583074745154,193.48806719132838 28.3759702353164,192.6564131653268 28.126174272359243,192.61840717213252 27.918529065215804,192.58654430932145Z"/></svg>