<svg xmlns="http://www.w3.org/2000/svg" width="500" height="500" viewBox="0 0 500 500"><path d="M9.356124410968496,289.87733545944656 9.433482311089797,289.7185775346043 10.031716738958618,288.52601141975185 10.461506081604789,287.99370543648064 10.972625756867053,287.48063439060246 11.462350049192443,287.0799762212024 12.368343474359486,286.4453626726798 12.993688013298417,286.007489081082 14.275180867510336,285.3221399007552 15.624483844929989,284.70460084373514 16.880887650346853,284.13347652678783 20.768156979252517,282.6080623658421 22.15230585775441,282.0699022712184 23.50160883517406,281.6808129409574 26.242796481107735,280.7650626634537 29.299548606010912,279.882276608224 32.84414334467889,279.2512870334052 39.6449481457746,278.0877823999416 43.286344797281004,277.45665344155697 46.53865211867502,276.87396028547056 49.11334604960579,276.4597122147059 49.54898950350542,276.390020412789 51.34738645277199,276.29314880809335 54.04013829635783,276.09383025453087 57.245961185821834,276.1905624756111 60.451784075087765,276.14219636507096 63.65572528599118,275.6582564923399 68.317270534286,274.6864740060421 70.44482186418381,274.1141649284628 73.24796552187368,273.36037839865884 75.53044172738771,272.5356456144487 77.90965015408102,271.6606650410389 80.7185782313652,270.53012462989886 81.8917700254073,270.0596352749665 84.46458227777748,268.84776453096276 86.30946365877598,267.90309215558653 87.4515729090551,267.0571033718074 89.65264908989774,265.4503588779979 91.71252967990613,263.68095371841156 93.33864849477357,261.62692723970616 93.86907279923658,260.7228851849074 95.35385663975339,258.39211256066096 95.71785692126879,257.0640655828104 96.08178751092697,255.9645380235266 96.13977109018838,255.78250303684027 97.06709020683121,252.85935009612703 97.21225823035833,251.94171813991412 97.28857075341348,251.45387552629788 97.31874730362671,251.26034139228017 97.1755306507155,250.00777063594077 96.5850320128588,244.79830844063605 96.01397738771925,241.25761644285322 96.07593339967352,240.76782245876964 96.24249680633558,239.47462138190224 95.99460306666127,237.927811837772 95.94623695617067,237.6007482112235 95.48355308305815,234.43360427186968 95.12150417196057,231.96149667332213 95.10993533277194,231.14066662999718 95.07508943188779,228.7827838948292 94.79437085360436,227.61342515001311 94.58529544770516,226.7404656388288 94.22721896949852,224.17531948466302 94.05103809406566,223.39707113238293 93.70055802215668,221.84649823093343 93.62508180059598,221.27342254351885 93.53991841860532,220.62298895598292 93.39279902466039,219.5040870757402 93.36568891378836,219.30079608948483 92.99395284226082,216.4609248520531 92.96698211490516,216.26920270493682 92.93206652196571,215.99628960852274 92.65908373389249,214.4552644838878 92.56423319147189,213.91522271065398 92.41132937813072,213.05759539592802 92.36094220516699,212.77687681769413 91.96028403586598,210.50799051359425 91.81511601233886,209.68918153254435 91.4840102612898,207.47639712899672 91.456969842275,207.28669604410598 91.42595699036924,207.08737749054347 91.01937501775947,204.35964036245804 90.99233459854659,204.1757236971121 90.55097641690988,201.2274120158951 90.4367515534313,200.73956940227887 90.41347449153767,200.6350316993293 90.31869364097429,200.23040109723635 90.04180811186735,199.225654388615 90.03992643330676,199.2198699690702 89.58497835000831,198.02932491644324 89.58295728793134,198.02354049689845 89.1532376371424,197.11559570116503 88.73118408450836,196.2250738559232 88.31303327270996,195.34430886296857 87.32891533758631,193.37739713667165 86.94045323359475,192.60110015480936 86.44104178083941,191.60415892800785 86.07906256140097,190.53940757789954 85.97647622916632,190.13282560533926 85.48082813373024,188.17762210179686 85.43636476407528,187.1496680231391 85.29112704869094,186.197190165943 84.79554864511209,184.85562297853548 84.15480221800613,183.94189376325727 82.65259542704723,181.96348288962895 82.3292254660103,181.5394779666266 81.5239366947154,180.170800668248 81.28573011566912,179.49709001881848 80.96054816773074,178.5795277544133 78.43429003894973,171.43221531425004 76.69966108873695,166.53051211629307 76.58160317627994,166.1936916375069 76.50222421368551,165.9710263302926 75.85179062614961,164.13199906059708 75.63107668940263,163.50477284309756 75.25167451972018,162.4322857029771 74.90126413947037,161.28627371176333 74.71539610360756,160.6706860252106 74.5856996603028,160.24472973174093 74.12301578719028,158.73283578035208 74.061059775236,158.52759342362938 74.04746987397041,158.45406857258553 73.93136333173317,157.83457814509813 73.86550457894324,157.49385492537732 73.58673737107765,156.0129041340865 73.34476743491018,154.7197030571696 73.2228764732767,154.07895663011314 73.09122865935603,153.38203861064721 73.02536990656611,153.02779518136947 72.66722373630417,151.12486052930186 73.07380570891395,150.63506654521828 75.14128270522001,148.13968188482664 76.0318742424181,147.06329200377152 77.37142036755057,145.02041621340845 78.12639165793705,143.8671562748365 78.19420178134285,143.76261857188692 78.85822527034243,142.7502057650611 79.94806566909723,141.08338693795702 80.2810530987069,140.57617000343137 80.28885858057626,140.53742136151348 80.39332659176766,140.06512001972922 80.5114541960819,139.52305718422033 80.71467549052956,138.5976894379953 81.02445555010283,137.1845487700113 81.1309446233712,136.75280805694732 81.28196675834985,136.13331762945992 81.48672127246812,135.3009187470454 81.64199460697432,134.66783841819336 82.06014541877272,132.96624338191378 82.2111675535533,132.3583217935655 82.45697053909532,131.3536447767023 82.49767055143103,131.18136664230317 82.6079926738759,130.69930844828124 82.66221289581803,130.4708587214726 82.72605058633289,130.19209151370606 82.836442400635,129.7139360605693 82.85574702983574,129.63065435723826 82.92543883160407,129.33641556944744 83.31069511293612,127.66966643415105 83.35913091528396,127.54763608895166 83.597267802473,126.95525577243535 84.11019946483478,125.67571428869077 84.47803279552669,124.75417959159272 85.0065754214291,123.75528699432384 85.31050136974892,123.18416267742609 85.51957677545003,122.78928892757082 85.65310626793129,122.535680460308 86.24743795496448,121.4128758391801 87.28703056447002,119.45174853247748 88.51047014776138,118.3638595041405 89.28293408044716,117.67662864515405 91.04850619090655,116.65250761557374 91.66214250714047,116.29826418629598 91.84410780196957,116.1937264833959 92.06677310913436,116.06403003994258 93.32310722269399,115.33616886047766 93.5728826409289,115.19093114519235 94.61240555877528,115.1463980837792 97.44070795711743,115.0225557517279 99.05720930321407,114.9528639497615 106.78136078806166,114.9528639497615 108.0841793335513,115.12897513328761 109.03477551208776,114.53666450852947 110.05882684990989,113.89779976013267 111.13326536049766,113.22987353029744 113.8396071053491,114.6605068406303 118.50895783551327,117.15191906832908 120.58228894346895,117.79273518719323 124.35526371723687,118.96014256154199 125.37945443857538,119.27758871941872 125.91176042179706,119.3123649285942 126.28342680146737,119.33759336090564 127.76639865508274,119.43634664426094 127.8050776051434,119.4053337924047 127.899928147564,119.33376031177868 128.52136994546922,118.85825314713684 128.67427375900846,118.74137999526235 128.90467485618538,118.56324774951071 129.8861445031112,115.82010873315922 130.09912264984604,114.7959877035789 130.24617235193375,114.09523663503553 130.25976225319934,114.0293778821961 130.57922947340063,112.44005633887825 131.2625575914029,110.97457712756218 131.35162371442726,110.78292467225363 131.44647425684786,110.5776823154814 133.44432914304477,106.29163649593436 134.83231107052507,104.07508873511698 134.9755974154916,103.8485903787757 135.08403785937588,103.67436087390922 136.1526222585121,101.9649603558098 138.11556155216567,99.73872543451294 138.8047437814214,99.10174236472625 139.40869293722537,98.21519295222681 139.70300141677438,97.78540360963017 137.75936675232157,95.27064462827958 136.38497472610683,93.75101488687861 135.10529385879636,91.99136657957943 134.45290890084263,90.06703654427784 134.20125180404713,89.69920321363546 133.68629907960837,88.95196771316208 135.90479821069502,87.83306583296886 140.19279540075894,86.17781584500386 141.86149590652266,85.8352109466234 143.96583986638407,85.08023965618742 145.61328437233115,84.35035741439792 149.8063613283153,81.84145254439984 151.87585938689642,81.10000146352077 153.14968614295344,81.04780230385369 155.27145305305888,80.88709300859364 157.17431801331878,80.20759793961932 160.37435648318848,79.45450832784296 165.29731568076403,77.92128868502783 166.62849878956547,77.22437066561143 167.55261208335074,76.74043079292987 167.87207930355203,76.47518379472022 167.79270034115567,75.85576305904056 167.65526810783876,74.75999885707601 167.51010008431166,73.61398686586222 167.2874347769488,71.86388633547661 167.2041530737168,70.24362163206072 167.1751612840861,69.69180194426468 167.02992356889985,66.85966649684508 167.01445198887558,66.5692607581317 166.96608587838497,65.64201133329657 167.34158530723178,65.31480832313267 167.3900211095796,65.27222663218686 168.68517355691435,65.67107281468546 171.08556829117094,66.58285065954585 171.48051173293294,65.19668071886795 171.52121174507056,65.04963101673073 171.13205272310094,62.490338973967 169.50788527884941,58.02818197084432 169.23302081201751,56.76982679496012 169.08583172621536,55.65670933431169 168.88839485136202,54.17966128390605 168.95613528271252,51.50809574818059 169.11684457812112,50.244025844509785 169.4575677977429,45.89205158026608 169.43819347688301,45.088714179289966 169.40529894641668,43.824574583811454 169.73431394333346,38.595807759355495 169.786652486715,37.71685475320326 169.84080301660185,36.812812698404514 169.88150302913562,36.11199193805343 169.6704762528186,34.25742339652594 169.51757243927935,32.9681250605437 169.40529894641668,32.031188475179576 171.04688934111027,31.167776740908824 172.0341434076304,30.509607363360782 174.90704855914393,29.84558387441072 176.89911902594457,28.99959509063157 179.5299845492353,28.26978254064979 180.32370448153966,28.0355483943459 181.44253667012325,27.704442643296826 182.9273902022992,27.594190212610147 184.04057735460677,27.9484336418879 184.33871888353036,28.08781724577118 186.59784833509545,29.149780923818653 188.21239831077426,29.90753988636499 190.40957175078125,31.169728111376163 191.12391272068928,31.500694478809812 193.76641677502585,30.314121858875733 194.00260229179707,30.207632785508313 198.3215426419095,28.43244320637717 201.79644557861107,27.08307053714981 203.44967450435053,26.529369170694135 203.83493078548452,25.871199793146094 203.88915100742665,22.35949958499398 203.64829613978642,19.147892275985182 203.56006631865264,17.968916062497332 203.78071056354239,16.21310080427561 204.25886601667915,13.373159875085683 204.5067597561554,11.909632034236962 204.7274040012432,11.305613186773831 205.98959222625436,10.151795713789708 207.91385256964924,9.274863769912518 209.9464836652692,8.341760233724884 211.23006727341533,7.981732384852825 213.0768303331725,7.462876919380354 214.01188523982748,7.2441840448589145 215.15601555238163,7.023470108111943 216.34467892624994,6.806589220491942 216.4123496659413,6.795020381352843 217.63781031130964,6.311010816863571 218.83804252436653,5.76706630269508 219.74982036932596,5.03530238224596 220.7178394983045,4.156419067950948 221.7593137865687,3.074244767351046 223.4629298850738,1.3009368668795327 223.75905035152425,0.774415303202642 224.49081427187434,0 224.9186522441027,0.044602753220861345 226.024033914739,0.15882761660041175 226.05309539622692,0.8654327965458024 226.24858090066243,3.0083860145116157 226.38413145541875,4.508711126761359 225.8885530518399,8.076582927322955 225.50524814112373,11.094586410506329 225.50524814112373,12.850471360486242 225.8885530518399,14.825049184987595 226.6648500335041,16.84220870043476 226.91650713049768,18.327131924467952 227.044043128011,19.147892275985182 227.11011095617454,19.571827507179815 227.8786024563655,21.108949890880098 228.70333524037756,22.26081599339688 229.74676089925765,23.13969930774141 230.79018655793965,23.962411029676463 232.43958243450263,24.622601469499553 234.60971545529674,25.040752281198912 236.34037197301475,25.387259920464533 240.00497599455753,26.111218359044294 241.77828389502906,26.595227923533567 243.64644233792117,26.815941860280535 244.67432672491978,26.668543699203802 244.72659557624604,26.661016984565286 246.62186413020825,25.975737496046175 247.58395945607612,25.633132597715235 250.12199549922127,24.216089188747002 251.8139033750214,23.12032498678247 252.4547194937865,22.777650396643818 253.06640443960262,22.614989730916438 254.7525278958084,22.68475122464103 255.66632680284482,22.89570830915034 257.2672171854008,23.20737004743276 258.9708332839059,23.38745366365174 261.5726373259068,24.221803916533602 263.7292501370945,25.180135885082194 265.4328662355996,26.113169729511636 267.30095498663445,27.321207424388376 268.1914768319753,28.18461915870865 268.7122139760084,28.687933352349148 269.16904373786747,29.13117321269501 270.77432470386356,31.263393893164732 272.27827378966856,31.769844217904616 273.3000252979848,31.781831207840458 273.9278787418032,31.769844217904616 274.74543327046285,31.769844217904616 275.6064754833705,31.83026701018829 276.21976334051635,31.902398025226486 276.5261981937157,31.96282081751016 276.93507999563326,31.974877499204194 277.41678973071566,31.89041103529064 277.73792955410397,31.794096964957625 278.3071721923421,31.73367417267395 279.1100217508128,31.926650772279494 279.5200883133129,32.29002382762455 279.91328945983264,32.77263955605865 280.29248255433953,33.32473801108553 280.3509539762054,33.80693558872289 280.6720937993956,34.156439975472466 281.19673368466044,34.67369252951615 282.4182915889951,35.560311633872814 283.51593746961925,36.35981598577147 284.94657078005116,37.401290274035674 285.3724573816636,37.6374757908069 285.86218167398897,37.74396486417432 286.9656816658666,37.527223360120225 288.49116551871913,37.35487553391337 291.2730531767904,35.7189998668578 293.1411419280234,34.89628814492275 293.3695916547825,34.95245973728271 294.04901703194906,35.11700208166972 295.61324952652143,36.32301871432093 299.62247950891776,39.17459817450719 302.75087480620516,41.58147424643518 302.8205666081716,41.63513693391563 304.0169657722501,42.359165064352624 306.3400026063853,44.252482247748475 306.8472195410101,44.945497526279716 307.21888592087845,45.45459613946501 307.3834282650674,45.679212817146656 307.3292080431252,46.28316197280208 307.19177580980835,46.60646224203131 306.22968048394046,47.43502807531886 306.4503247288302,47.60152179017321 307.205365711272,47.70403843084776 307.63891841103936,47.764112764092886 308.8662607349683,47.93060647894723 309.9368661965776,48.15898651394814 311.28421780357945,48.75136683046446 311.9540257119753,49.16185154390988 314.1416513750687,50.50725178044438 315.0185136270887,51.08799356606341 316.0813136068287,51.54294164916379 317.50225975663255,52.152744916171706 320.21062256375905,54.241617295810805 321.2463124324289,54.25130445629027 323.224792997964,54.08669242009555 323.99328449775885,54.096379580575025 327.3966139541315,54.14091264203769 328.71107103046893,54.2706090854415 329.62675161626396,54.10996948193965 333.33010427972465,54.14091264203769 334.74902936725346,54.31514214690417 335.40726843665874,54.30350361595736 338.1097074408726,54.25130445629027 338.1639276626167,51.45199384757882 338.8725539047876,51.47129847673005 340.18498991904806,51.50809574818059 344.16132537078,51.56621871100789 346.39536577374815,51.583571969691775 348.28094716728043,51.599113241523746 349.34758019619693,51.60677933972817 349.9264403030078,51.61068208061333 351.22535610766175,51.61263345108067 351.8757896951977,51.57200313055268 351.99586866992973,51.368712144297305 352.0790806813045,49.301235147793165 352.3230716799451,48.975983508146115 353.4168148197336,48.89660454570024 355.07394648650677,48.939186236695576 355.6450011116463,48.9527761380602 356.913043447911,48.974032137678776 357.406670481072,48.974032137678776 357.4356622707027,49.79102913187675 357.4724595420047,50.46850313857602 357.51504123309905,50.98345586311381 359.4374198979333,51.029940295043815 360.82735319583145,51.2342069665081 362.7651337490308,51.51778290866006 363.9848099748048,51.55848292099576 364.5946132418623,51.76365558591076 364.67399220425864,52.20696513806433 364.71267115431925,53.18648341437426 364.75330147479775,55.08760607963947 364.79205011671564,59.06380214775602 364.9837025721728,61.44112889569067 365.03206868266335,62.02577342219486 365.52771677809943,65.0941640781934 366.216829315696,66.55567085676708 366.9060115449517,67.57010472586792 367.5371405034849,68.19154652382265 368.4508697188622,69.22340334341509 369.8272828071539,71.26377022889864 370.31324374216,72.64213468775671 372.0167204571487,75.07751470671094 373.8539357397943,76.99403926019271 374.0480971001309,77.22437066561143 374.92252013912855,78.26208159655637 376.1208706736249,79.2415301810586 378.5658681612509,81.4291558441025 379.83384080565827,82.32351073847128 381.3767476089529,83.06301044888302 383.1752142498786,84.20323802050251 383.61266969087774,84.43552079638859 385.7788999706381,85.5834841580202 387.56963082155175,86.40438389310334 388.94214116900775,87.14778634444976 390.6031755766166,87.7187712777816 391.18782010321985,87.89495215311543 393.2088823594531,88.50677648234887 395.86295525297834,89.0468182556322 397.5685227219013,89.45333053638475 398.5519437392449,90.05539801338054 398.79001093457674,90.22962751824703 399.5778767556276,90.81043899562424 400.5497986254418,91.91777203672788 402.41976905523535,93.65037992486369 402.96573463177793,94.3240905742437 402.80314365780873,94.85054244616241 402.43726169753467,95.50104572550602 401.6241674443704,96.35086755841215 399.6688942488717,98.38161697527346 399.5934180275091,98.45911425901018 398.4551418262084,99.83740902606053 398.4551418262084,100.1626606657571 398.6989934411345,100.32336996101714 399.998048629503,100.28273964048915 402.89987587878994,100.36009754065996 404.10951648524406,100.40121570379242 408.60115312050283,100.55181968782576 409.74131100036413,100.6427674893612 411.655884183329,102.01339615815762 413.2801213194378,102.62312973340735 414.0100035612273,102.54186909230185 416.2536614329662,101.7307262095059 418.9038315856558,100.67858907555332 420.43705122832233,100.06976149375431 422.4135804232415,99.17143416669265 424.63214924638345,98.16480577941165 425.37743337634,97.86478257202651 426.2757607033521,97.50468503139626 427.30176341159205,97.09231863929122 428.2154229351121,96.72455500040702 429.0595300401821,96.38376208892801 430.60243684347665,95.65590090941356 430.72432780511014,96.10123152384219 430.6836974846317,96.54837412512272 430.5404808315224,97.55116946327675 430.4881422883389,97.92088447257876 430.3894586967418,98.6120180724999 430.1628906487414,100.21109646810493 430.10100432844627,100.64081611889387 430.07201253901366,100.84598878380888 430.0409996871079,101.23898085495499 429.95583630511726,102.33669642738685 429.9480308232479,102.4276442289223 429.9422464036536,102.91548684253854 429.935346915334,103.61825897335697 429.9248234532115,104.47386522580788 429.90551882401076,106.2006886943989 430.00615378602566,107.739762448517 430.06622811941935,108.67474766341378 430.47462207873247,110.85456784463784 429.36728903767835,111.07137904049966 428.33550190984414,112.19418366162755 426.6182959100734,113.62481697191089 426.29506533255284,114.26946613990201 425.87879619951315,114.63925084101173 425.46266645018784,114.6837142106667 422.0922315244796,113.52989673768258 419.51753759354887,112.5717041527494 418.9038315856558,112.34367257678704 418.8612498945614,112.32778284591652 416.9544125016086,111.89799350331987 416.491728628298,111.79728884954676 416.24397427253626,111.76244294856356 416.03294749621926,111.79728884954676 415.8606693618201,111.91158340473402 415.30501662504565,112.46326370891464 414.61200134641535,112.64718037426059 413.55115273729126,112.55616288091743 411.84175221899375,112.1864478715659 411.01123501538746,112.37036453691185 410.3085325763272,112.94141916205142 410.1072626522974,113.05954676636564 409.7162219515691,113.28987817178437 409.46254379249854,114.05063388181468 409.2534683865993,114.67409674199493 409.23416375759666,115.3806322300831 409.2070536467246,116.28857702581652 409.61942003873065,117.64951853418297 409.667716457364,117.81217919995989 411.14483419952785,119.65894225966753 412.66836668196254,121.18247474195367 413.0748789627151,121.77680642893733 413.2599803887426,122.04456233202647 413.34395900995264,122.16596545100599 413.77953277219314,122.80280913717726 414.34285160732054,123.62363918045268 414.3738644592263,124.45798943333455 414.3913571015256,124.88004298591908 414.42223056971693,125.68149870828508 414.559732494891,125.82088231216835 415.15984860151855,126.09769814946758 415.759964707948,126.51006454157263 416.17623384098766,126.87977955092416 416.4066349383627,127.29597899210665 416.4800900974503,127.86905467952127 416.54399747982234,128.3568972931375 416.68149940519453,129.88042977542364 416.72986551568516,130.58508358485219 416.81886194665424,131.86274338993712 417.3745146836268,132.17050238728487 418.9038315856558,132.4640442570976 418.9484343388271,132.47254665694504 418.9038315856558,133.02157867263074 418.75671219151275,134.83433213304772 418.64192979377054,135.3009187470454 418.25527967668046,136.87288703167934 418.11011165315335,137.4652673482452 418.0172124811505,138.34017822984734 417.8759471986572,141.33887708387948 417.8759471986572,142.56433772929734 417.8741352117557,144.28474955207417 417.8720444578215,146.39926851487098 417.9165775191356,149.0746670997234 417.6842947433981,150.13558540070474 416.34460923455117,151.28933318188115 414.726226209894,152.34823042063695 413.7834355130288,152.7316050231113 412.46319401709707,153.269765117735 411.03256070686325,153.6840131884997 410.062659899126,153.85245827377187 408.9068910557241,154.05191621094977 407.70861021308497,154.05191621094977 406.72135614676296,153.75175361999874 406.62650560414426,153.62400854701275 406.38446597611954,153.30265964825088 405.9295875846783,152.6947380599026 405.4185376012733,152.01336131226864 403.24833488862197,150.35044522609923 402.5108562403367,150.11816245021313 400.9872540662429,150.02519358640265 397.93830742301094,150.02324221598482 395.52808614461,150.13753677117208 393.0888730765783,150.3427094360871 390.73482339053726,151.12667251615377 389.2402826977333,151.7249069440226 389.16675784678847,151.7538987336533 387.44181605680757,152.44510202533263 384.0463617741615,153.63369570749222 383.37069975431416,153.86988122426345 383.0396636951223,153.98605745811037 380.4998156652738,154.52421755273406 378.28131653379097,154.81267192098008 376.5737976944502,155.08948775832883 370.89196446545446,155.08565470920186 369.0799776149223,154.96362436400247 367.42870005960066,154.85142056284843 365.57998562942566,154.90947383386802 364.86947770869415,155.19597683169624 363.5492362125644,155.72633144445058 362.86583840270487,156.16197489844924 362.65871436742157,156.34979430468036 362.3411985176381,156.64208172200384 362.12438732192487,156.8492057573862 362.03727256951635,156.93436913937686 361.7720255712572,157.29063363092965 361.7333466211966,157.6816046398007 361.6965493496965,158.0668609209842 361.7565539912329,158.3998483506434 362.2425149262391,159.09098195056453 362.5502739235373,159.40842810839172 362.8948998841928,159.76469259994454 364.2558413926583,160.90101743062934 364.7049353643072,161.28237097087816 364.81337580819144,161.37527014288096 364.9952714111633,161.53214638906354 365.5450700366843,161.97155320028244 365.77547113386123,162.0606193232078 365.87617578773336,162.07218816229735 366.16651183458947,162.05093216272832 366.7956894227049,162.08187532277682 367.2061044442931,162.132262495592 367.5371405034849,162.23094608713959 367.75200032878035,162.36649664194542 368.2010943006273,162.5948766768968 368.6928396550297,162.81559061364376 369.3123300827151,163.09630919187768 369.459449476462,163.16795236426188 369.6995377342669,163.28607996857613 370.10214727418384,163.4853985221386 370.7274918129247,163.81838595184732 371.859983594433,164.64695178513486 371.97023602521875,164.72633074758073 373.28671416402926,165.6884957652068 373.8983991094492,166.00789329350133 374.88962560866224,166.43761294429027 375.6388124796525,166.68738836247564 376.0337559212164,166.83255638590373 378.2560881016776,167.72307823114554 379.66734709085347,168.01348396985892 380.3739522707493,168.17412357336076 382.1801547018853,168.90003338240786 383.7966560479819,169.6744486856105 385.7692128102082,170.81272488676265 386.78950079071103,171.3993207837342 389.27519829067273,173.27521501663844 390.49863787376603,174.47537753793716 391.75894442001857,175.95444665061785 392.93589957118184,177.60962694677514 393.4083402965815,178.2755321143353 394.7536708413083,180.50566977656683 395.5590293046585,181.80465527302854 397.46586669761126,184.30777572343231 397.84533855915095,184.77819538655694 398.9661918100096,186.1720314254393 400.03484590100305,187.22326256599067 400.9756155353951,187.6762592786237 403.9587731176943,188.4195920381624 404.63060208836515,188.6771032463599 404.86483623471855,188.76609967742803 405.0255455299291,188.88032454080758 405.07384194876056,188.95196771319178 405.1300135411205,189.03329804605548 405.2346209358283,189.275267982421 405.49979824203217,189.94890894004286 405.59660015506864,190.1967329877609 405.7417681783977,190.5665176888706 405.9489619057363,191.11241357350644 406.1753905702204,191.54986901430752 406.41359714926665,191.8615307525899 406.7561323559879,192.22748240457267 408.2839160379502,193.37739713667165 408.4152850848381,193.47608072821922 410.12266454066247,194.7848230769186 414.62942429685745,198.06995523697123 416.3678166045876,199.67286668170323 417.9940051113122,201.2331964354399 418.05010701181493,201.28741665733253 418.3520815895189,201.5778223960459 418.9038315856558,202.39203171818303 419.2272015464946,202.8690721024955 421.7186137741934,206.83955344282543 422.24130228884235,207.61578073287998 422.7930522847812,208.43661077620493 423.426062921875,209.37745010245422 424.562457444417,210.68612275934586 424.73083283798053,210.87972658517128 426.38991587497344,212.20582219255456 426.99386503057934,212.68976206523612 427.04034946250937,212.72655933668665 429.0537456205878,214.4669030148346 429.7138663687517,215.03600626950683 430.3255513143697,215.73292428897275 430.3700843758819,215.7833114617384 431.0844253457899,216.59640571505122 431.3767824549211,216.92737208248485 431.5645321693445,217.2409851912346 432.2362914483562,218.36385950417022 432.6215477294902,219.00843898035362 432.75897996280713,219.23695839892045 433.57402558658725,221.72446788568453 433.6823963386143,222.05167089584845 433.7598936224501,222.28200230126717 434.4218960489765,224.277975508953 436.17582962858813,226.58554076311353 438.4640205618392,228.87373169636464 441.3445918117057,231.7563240083576 444.35883193756985,233.8624799549224 448.7009099658614,237.3955058545008 449.16756627166683,237.92983289999754 452.58044350455685,240.67687465723418 455.74180302436594,242.57980930935133 457.00392155771794,243.60393033888212 459.3754638860583,245.9153286421696 460.24466003992336,247.134935176235 461.12159198380056,248.10483598387316 461.9056247556749,249.1676359635141 462.1205542728276,249.62641709574146 462.8638870323663,251.20800284904718 462.9665430566563,251.42676541532683 462.9788785054821,251.45387552629788 463.88995943246346,253.45751483218814 464.3506919349601,254.47194870128897 465.6960921715441,257.3118896305284 466.2981596485894,258.51602458452 467.08024105004597,260.0821387578015 467.3300164680828,260.5506070505083 467.44800468888064,260.7732723577226 468.5108743602798,262.06640374278226 470.26285656947357,263.82033732229485 472.0612535185421,265.57420121004924 473.0311543260812,266.5886350791501 475.7627245034422,269.8021937585767 476.98037966694113,271.51173366029155 477.1042916908497,271.6858237815426 477.7005050564435,272.526028145777 478.3916386563151,273.77267509895614 478.6219700616348,274.51029313075776 478.65298291354054,275.300110322177 478.71298755507695,276.7713739530378 478.6897801850406,277.18178897467556 478.6200883830742,278.43233866873993 478.75752061658915,278.9376739246554 479.1737200577717,279.21448976195467 480.04486758205456,279.3402834644733 480.7901517120111,279.44677253784073 482.5460366620405,279.4738826488118 484.0230847123471,279.4952083401886 487.49805734110396,279.9771968424523 489.05838709464257,280.47660829520765 489.6681206698428,280.6721634914509 490.28182667793396,281.0535867235074 491.0058548082719,281.5026806952058 491.6059709148994,282.10279680173426 491.9757556160091,282.8868295736086 491.98920613375833,283.053323288463 492.066703417396,284.0870617867151 492.1577209108382,285.5176950970479 492.4344670562307,286.99474314745356 492.93980231209673,288.0556614484349 493.44694955506225,289.2558239697336 493.9832279709768,290.036023692481 494.3820044617172,290.6129324289731 495.10212985121956,291.65837914993017 495.4332356022686,292.1364649112592 496.8173844805724,294.0297124028969 498.0176166938274,296.01411677144364 498.662265861769,297.6750814871952 500.00000000000006,300.9059934253057 499.49083169495754,300.9970806104566 498.9371303284028,301.0899797824594 497.5046153396084,301.13451284392204 496.5453773777081,301.20260173441017 496.3579064303175,301.6397087162222 496.1633966110909,302.0542355541682 495.04679456035404,302.0117932467883 493.00830935348057,301.6736486237547 492.5268783858271,301.39446326514184 491.7380368795673,300.9461359032293 491.07220140386437,301.0392441506552 490.32440836883023,301.1828789544622 489.6996910562102,301.3352252334902 488.6320823422829,301.6614525583957 487.77347934239754,301.96962970658967 487.24249750327476,302.4838158213417 487.1999158121804,303.5004798280912 487.3417386293336,304.49240324518325 487.32243400013283,305.4288519878934 487.5309518715703,305.82121683286914 488.1527421285636,306.04485782529235 489.29561798847993,306.65368540709136 489.96507743798577,307.10333691320193 489.6681206698428,307.4163924875395 489.25882071717797,307.81042993575176 488.47987544672173,308.4313838910525 488.4183375857128,308.524352754863 487.5272582061083,309.34476464734166 487.30542920043797,309.53042360773185 486.76908109266617,309.97909942863345 485.71966193901625,309.91080146277176 485.08630284283436,309.53042360773185 484.90858874792895,309.4237254589413 483.9868449755068,308.6323053560933 483.36010660061174,308.1149134184342 482.3646289016731,307.26251298889036 481.51404045883265,306.62929327642297 480.9607572432232,306.22326883827486 479.7827567149938,305.4621646692555 478.4403532258938,304.5824450533175 477.7233639673918,304.04121851940215 477.1804648303885,303.7198696206402 476.98037966694113,303.8003636518609 476.76043234002947,303.8888025485664 476.2995604538184,304.2611658463138 475.807815099218,304.70092111662075 475.25467126712493,305.2336452506887 474.5887660995648,305.91028295574495 473.5642966111935,306.84924060333464 472.4168210920673,307.8556599151925 471.57696518672293,308.5915356519499 470.3739453015557,309.53042360773185 470.2657139332431,309.6148203798872 468.8828891990382,310.68884073967826 468.28883627923585,311.272509580924 467.74593714223255,311.6701013110324 467.34743941872296,312.0262961107775 466.8239842942387,312.4059770477403 466.3527980212788,312.7780615783559 465.7175572465363,313.1756533084147 465.0570880394823,313.4809730927402 463.6208793850278,314.1474357947621 462.1729625078683,314.84233275195294 461.65954300290207,315.03530935150894 460.43150376099504,315.34982845370945 459.53010999464175,315.48516993304264 458.9564767727654,315.5780691050454 458.38270416737276,315.6627446444316 458.044698927806,315.6627446444316 457.66571490887077,315.74086915438824 455.60632216146684,315.7308335349197 453.35290743744076,315.76783988174384 450.44710775526283,315.816205992284 450.9161335824313,315.8771863189798 449.92079526720715,315.9077810200393 449.0590561361234,316.0407529781579 448.0406498341811,316.3338766971244 447.1557730249182,316.6992011229368 445.90222658346886,317.399394657068 445.30928873239185,317.8333655077807 443.4772306428236,319.2661592639545 442.08820333847524,320.2902802935348 439.92232151760487,321.69373380108885 439.0926406152949,322.1167630388823 437.9349900933324,322.641193848526 436.347341153152,323.33455758604623 433.85774091235464,324.3492005305702 432.33149044986493,324.96673958759027 430.15780314712515,325.8732905472685 429.3911933256928,326.17101392519726 428.33139009343677,326.52469982006284 426.910792402721,327.083418996228 425.73578862197553,327.81016510691813 424.9041563492477,328.3863072335749 424.3857190347206,328.81470274011633 423.8184277669003,329.3894510307675 423.70817533611455,329.5453515917411 422.91717338406335,330.4720434821641 422.40486894802046,331.22492401856687 421.6570759131844,332.112867267171 421.01186921078113,332.6880337085693 420.3532816822878,333.1373367557403 418.95247646317915,333.6603737293288 418.9038315856558,333.67486962414415 418.6144015319532,333.7618449929372 418.0100342256001,334.04932367597434 417.5081138679653,334.24383349520093 416.80959293716955,334.5483866696911 415.55479204308244,334.9891873170147 415.31567947048643,335.0898222789801 414.5475364295816,335.3607143131686 413.389885907421,335.7920368753864 411.6235471873244,336.13080872463985 410.3383606674523,336.55899515580774 409.3688083190013,336.95003585648647 408.46692670984544,337.34086748179163 406.86401526521246,337.8388154066841 405.8397548520167,338.1350055649423 404.5183285953044,338.5663281272095 404.9279770072554,339.3867400196882 404.6658661401946,339.76969647136576 404.49783920552113,339.97040886093396 404.18513209032113,340.40479786249284 403.4936500313614,341.2815904227546 403.3196296019181,341.476169933789 403.05326753493364,341.32396303832684 402.5307184039991,341.0448473715217 401.08405597927936,340.4851525100981 400.3677636387555,340.7213380269189 398.93517895810385,341.11433009806495 398.1271722061597,341.75451899070924 397.3578444046723,342.54844799848627 396.63674332996106,343.2233434084983 396.0569772294024,343.8512665440254 395.56892554066013,344.4376533655738 395.128473352177,344.86061291160905 394.47288257136574,345.53725061666535 393.94008874534154,346.06168142630895 393.5036786818047,346.4773233330793 393.023223399162,347.15626086764144 391.49230358580326,348.06643580102354 390.0019444012638,348.7413312110356 389.1049412183506,349.1996941924167 388.271009116315,349.5749148541317 388.14193989913105,349.64788217076335 387.55799229070396,349.81709386587085 387.41456656222107,349.8339592819503 387.3531680847285,349.91020211324724 385.0355672110994,350.23113286121236 384.609680609487,350.7141667404927 384.14100324140657,351.0541233503783 383.701387354616,351.5309546592676 383.270970785849,351.996286820875 382.2413441040042,353.2511574066708 381.71900404824527,353.99553554322614 381.39131319562546,354.06306689930204 381.124951128641,354.02933606719273 380.5772432570542,353.9589473471987 380.2810530989446,354.32866235655024 379.9500170395547,354.5725836633336 377.6676105258979,356.2626795522818 375.4781031842439,357.4551062835684 373.67775486455946,358.1926546235128 370.76812213340315,358.7908890514311 369.56782022848904,358.83542211284424 368.288278744893,358.78698631049645 368.0633136082223,358.7660787699164 367.65575595040366,359.6009168654027 367.08449224989045,361.22062403440646 366.5132285493773,362.98110864329914 364.51391013516894,364.48352450963165 364.1425225225314,364.6243019495701 364.0567319144199,364.50701064689883 363.88549915688884,363.7322468846577 364.0280885836792,362.4177201164135 364.8280807783804,360.8918878046215 365.39934447889357,358.40347232440666 365.285119615415,356.5491128582528 365.2295752493739,356.11165741745174 364.92760067147196,354.4157771089587 364.677825253237,353.0200593914168 364.42811952685935,350.5401463110494 364.38351677368803,350.11230833892006 364.3196790831732,349.47156191181415 364.2867845527068,349.1559277408388 364.2093569607283,348.38165182120207 363.96926870292333,347.2588472000742 363.4717389289267,346.7671018455728 362.7787236502964,346.07408656704155 362.44573622068674,345.9308002222236 361.4874739437973,345.5203852005859 360.8409430972951,345.3345171648221 360.82735319583145,345.3361200762509 359.5942264523082,345.47201909004576 358.16164177145845,345.56491826204854 357.05430873040433,345.4700677195784 356.4986559936299,345.055749957006 356.31480902004216,344.3627346784748 356.13089235459717,342.6552855308427 356.0225216025701,341.28270549157895 355.99346012128024,340.90330332179747 355.3371724222928,338.80293179477746 354.3228082450987,336.59014739127934 353.0315585385996,334.88269824359776 351.37637824244234,332.66419911231304 350.3135782629004,331.30137592528695 348.87716053307224,330.1263024527338 347.5723209251095,329.10023005268613 345.8785313707488,328.14203746775297 345.0905958578407,327.8574161486339 344.2271144317127,327.8341390867898 341.4162349840107,328.4536992060849 340.18889265988366,328.78466557351857 339.0874137302811,328.9531106587907 338.181420304916,329.092494262674 338.00335775092253,328.9086472891358 336.3597462939539,327.1933926596838 334.64456135626017,324.9555192074897 334.3561069879646,324.8741888745765 333.21392804602635,324.78902549263535 332.5614733960173,324.73870801162786 332.2227015468133,324.7135492711242 331.9033737103265,324.6903419010878 330.87151689083305,324.6128446173015 330.0719428470772,324.7271391724888 328.95687401601094,325.18780198332627 327.766328963384,325.67759596740984 326.3395983939858,326.1325440505102 325.19741945184944,326.3609937772693 324.16556263235606,326.50999484982435 323.1898774050245,326.6532811946423 322.2470867083574,326.78876205759093 320.5319017706637,327.0385374757763 319.8621635541251,327.13526969685654 318.7721837716559,327.2940973135065 318.23409336883986,327.371524905485 317.0569988339621,327.54380303988415 316.89252618143234,327.5670104099205 316.54790022077685,327.46442407748776 315.632289326839,327.19534403015115 315.27212209450005,327.0869035863164 314.4707360638427,326.8507877613529 314.10673578232735,326.74429868798546 313.89961174684595,326.6823426760312 312.1398937478381,325.7763492507651 311.0016175467355,325.07559818222177 309.92132492469614,324.4057205819192 306.73877909712576,322.1542572283109 306.48133758073595,321.94713319292856 306.6013468636108,321.8271239100042 307.6467238929087,320.78955236262516 308.20223724616676,320.2357813044113 309.6174686682336,318.7045130320635 309.0095470797367,318.1586171474277 308.2719290481332,317.4926422880598 307.8867424586584,317.2080906607485 307.284674981613,316.7608783676602 306.1696061505468,315.93621527525784 305.94122611564495,315.7658885112765 303.41489829520475,313.8938970192574 302.75087480620516,313.3827773437971 301.78480704764445,312.6394445842584 301.1963294720628,312.22707819215333 300.1179882206394,311.03451207730086 299.59341802742983,310.45572166214913 299.50435190460354,310.3589894410689 298.92786131895775,309.53042360773185 298.49967488764133,308.9147662293714 298.22669209937004,308.351447394244 297.6768934738491,307.2228583535713 296.0797664488104,304.0286043032464 295.2686932577231,303.0277603355102 294.1941850554762,302.2282559836115 293.7838397253491,302.06371363922455 293.05012443458116,301.7713565300933 291.4046312988539,302.4567057103706 291.4433102489145,304.34800183154096 291.45690015037815,305.05655838190415 291.03686766021724,305.8870755857086 290.48699934283906,306.4562485321885 289.8307813357088,307.13372253888775 289.7435968914431,307.22474003223095 289.24418543868774,307.7416441272361 288.2781873717862,308.74248809497226 287.5164559765965,309.53042360773185 287.16702128175365,309.8924028270217 286.5397950642541,310.54095473594754 285.3433262085165,311.10622494149277 285.22533798771866,311.16232684204505 282.01951509825466,311.08294787964866 280.89085636572474,311.16818095344706 280.4320055417887,311.66564103568555 279.7796902756922,312.37419758604875 278.89495284994564,313.3362929119166 277.78573813013287,314.8385693946337 277.41016900942884,315.9575409666346 276.54480590474026,316.92542071204724 276.0918091922558,317.4327073383806 275.64654826958537,317.93211879113596 273.6118961116903,320.20874088524795 271.6721641882712,322.82991924815826 270.7003817019734,323.9140449192255 270.6384256900192,323.9372522892619 269.1032546767367,324.4850298525574 267.25063750572605,324.92457604739167 264.695248203798,325.52664352438745 262.8929485136957,325.9544118047586 261.7992053739072,326.7636033170872 260.5311630376426,328.0548530235368 260.5253786180483,328.06258881354887 260.1111305472836,328.4826909956661 259.38710241694565,329.2203090274677 258.46556771969904,330.16114835371695 256.6962322521185,331.9634480437697 255.9411912696767,332.73389091427947 255.2288016703846,333.4598704151343 254.164120012084,334.54782913527896 252.84373913223973,336.0577717162005 252.00367415171985,337.0199367338265 251.84101348589343,337.20573507783206 249.1656149012886,338.25501484791613 248.0582818600364,338.4369801427947 246.6528072902568,338.66731154821343 244.67432672491978,338.98928767319524 243.94061143395382,339.1087394217074 242.8991371456896,339.2791358774964 242.26800818735444,339.3817222099292 241.50341942819716,339.50751591244784 240.7754885568255,339.62564351676207 239.51908475140863,340.0863760194072 239.19000006263462,340.2083366727989 238.33237274795817,340.52194978154864 237.24636539818178,340.9226776427069 236.89212196895355,341.0523740861602 234.99685341499134,341.22660359102673 231.3709980353664,341.4356789968269 229.82418849123616,341.5246754279445 228.70716828955403,341.5886525021243 227.76437759288692,341.6428030322092 222.04776815466616,341.80344263571106 212.56773171998722,342.33972105167516 209.10641868455122,342.4520642363951 207.65055694200595,342.50043034693516 207.67968811515306,342.8643609366924 207.78415612614637,344.9899608959743 208.12292797554844,347.5646548270041 208.49849709625246,349.3069498756194 208.23910420944483,349.3244425179187 206.24124932304986,349.3050681969598 199.87420629749127,349.1017772107044 197.27616561261158,349.0147321501036 193.95806923028488,348.90043759486684 193.25536679142272,348.8753485461708 192.19835123127703,348.8365999043025 191.0445337582929,348.79589989196677 188.89767779939243,348.7184723000378 186.59784833509545,348.63484213766816 185.75576229230052,348.6042474366087 183.8701808989663,348.53650700515914 182.51704487237015,348.52681984467966 181.47166784327032,348.52103542508536 181.27227959780106,348.51908405466753 180.56177167706954,348.5132996350732 179.16793563813772,348.5036124746433 179.01886487377496,351.32996350246856 178.9046400102964,352.52636266644805 177.76441243877593,352.52636266644805 171.53863469571073,352.2282211377225 169.65695604321215,352.13922470665443 164.28678455254834,351.9707796213327 163.00522200647922,351.83725012880194 160.84867888734684,351.61458482158764 156.1115180335788,350.87313374070857 154.9441803511863,350.76079055598865 153.8466041622213,350.6524894957693 153.5058809425995,350.6176435947861 153.2870486846112,350.5962482116016 151.54865637688107,350.5904637920569 147.09618653428737,350.818913518816 145.26287399227942,350.9273539626507 144.20585843213374,350.98930997455545 143.92904259488404,351.00666323323935 142.52363771696164,351.08994493657036 141.33309266413661,351.1596367385368 136.36943345442344,351.3880167734882 133.19650509542578,351.64357661121835 132.00596004279882,351.7403785241063 129.20860080470325,352.08298342248673 128.52136994546922,352.1730252305715 124.41533805043247,352.71020963998626 121.13208756898995,353.1923375258159 120.13702802079851,353.3374358574858 118.0172124811109,353.7866692127996 117.84103160567804,353.8233967924424 117.93009772870242,354.04989514873415 119.3374539772407,357.61386420836106 118.17018598650738,357.61776694929574 115.7755059797898,357.36415848203296 114.40292594047652,357.21892076674766 112.49999128855747,357.09507843469635 110.4072858595438,357.04859400281583 107.66602852195098,357.2770437295749 105.61597447588892,357.44744018531446 104.18143842462138,357.61386420836106 103.0509677053881,357.7455120222322 102.46046906753142,357.8132524537313 102.21466608218746,357.8423139351697 101.05701556002685,357.9758434277005 100.79365024032829,358.00490490908936 100.39877649062159,358.0532710196295 96.25594732408479,358.531496164574 94.11494547643775,358.77534777959914 92.81979302910301,358.9244185439619 92.1286594292314,359.0019158276986 91.85567664096011,359.0348103582145 90.51996356500413,359.1799783816921 86.69081719907432,359.5981291933419 86.07906256140097,359.66398794618135 85.16150029704532,359.76462290819626 84.41607678357241,359.84595324105993 83.20622710174472,360.0065928445123 81.76395526046504,360.2001966703377 79.1079309967201,360.5312327295791 77.82441708023313,360.6977264444334 76.80224742116968,360.83125593691466 75.81687503340821,360.95907070170836 75.08518080471728,361.0558726145963 73.85783848078835,361.2145608476308 70.44482186418381,361.7638716305474 66.75694078054931,362.35680948147586 64.73204547513954,362.5387050845963 64.55008018031045,362.5542463564282 63.253046054415115,362.6704225902256 62.174774494650855,362.77496029317524 60.97252121931891,362.89301820568176 60.05300758434735,362.4593958139581 59.015366345259636,361.9715532003419 58.498531942062215,361.7276318935585 57.44346775253242,361.23205348993014 56.65365056106371,360.8603871101608 55.11457680674753,360.13433791749827 53.55808010238542,359.2942032450716 53.23673120342546,359.1199737402051 50.89048699925379,357.85395246606697 48.875278854273965,356.81045711557726 45.96947917209605,355.3082503246679 44.9666838338925,354.4215615285035 43.06374918197344,354.40999268941397 43.009528959833226,354.40999268941397 42.23713471900467,354.4042082698196 41.816962845129304,354.40225689940183 41.63116450112372,354.4003055289345 41.18207052947488,354.2977191964522 40.23349541321347,354.07895663017257 39.08351098920776,353.7633921509555 37.763269493276034,353.42071756081685 35.93385969210372,353.0529539219326 33.87600016437037,352.5960544684144 31.847271809784107,352.46447634630147 31.092230827342327,352.48182960498536 28.831080313304092,352.5302654073332 27.00174020418708,352.828337244251 25.844019990169237,353.244536685483 24.442448161423343,353.80987658283595 22.268482091452743,354.7236057981637 21.370224456297827,355.1978585103658 20.098349070658628,355.87156915979534 17.68234337286141,357.4338502839498 14.755287691064929,359.53624287319536 13.450517775157465,360.4054390270604 12.368343474359486,361.14145414738374 10.39376565005621,362.48455455446185 8.87796895763365,363.4660242012391 6.363279668239333,365.00119521447203 5.358463267760731,366.07173098412517 3.9313842392744767,367.6069019973581 3.7207756139027586,367.83333066189164 1.8312914795348356,369.8467268200691 0.797622673139994,371.02953608263437 0,371.6626164115359 1.0577821697829126,367.6069019973581 1.1324917815083237,367.3203989995794 2.3288212537295845,362.7884805027321 3.4632644056557287,357.12602159479434 4.227992548527458,352.39283317391727 4.47379553387141,350.86539795069643 5.09907038095311,346.09143982572544 5.190087874197233,345.40037591766156 5.602454266401321,342.2507246205575 5.8309039931604225,340.88009595176106 5.981856436083764,339.9160492554259 6.241249323089461,337.9453044800515 6.365161346799924,337.0122009438144 6.372966828669283,336.9464118827826 6.701981825586075,334.4568116419358 6.976915984275185,333.15594446686396 7.457022808027853,328.86216285725527 7.571247671308365,327.6057590517889 7.457022808027853,326.30287081444203 7.369908055619372,318.2070529497755 7.423919201989823,309.53042360773185 7.457022808027853,304.19126496897377 7.412420054658434,303.14198519888976 7.457022808027853,300.01163853098643 7.571247671308365,298.86952928070735 7.571247671308365,297.5685924138278 7.940962680560856,294.73053316324797 8.227535370295815,293.27864385334607 8.701788082398869,291.91386929585263 9.10446731397493,290.6612985395132 9.356124410968496,289.87733545944656Z"/></svg>