<svg xmlns="http://www.w3.org/2000/svg" width="500" height="500" viewBox="0 0 500 500"><path d="M206.76180906455107,349.3822961051535 194.63742721782094,320.60210070584003 191.91269370023642,314.1340413125218 191.600912826446,313.39348893034685 191.61002411700565,313.3821726242917 191.63178304373767,313.3539650672639 191.60274340540147,313.29064367817386 191.56559097406392,313.2086004591853 191.52223953687937,313.2218721563759 191.4117391364439,312.9596417257649 191.91531475637137,312.1489864916748 192.28367716043758,311.5560869412137 194.65502573792196,307.7374161012654 202.26174682500516,295.4900942382177 202.50662835990474,295.48859649182106 202.50675317208473,295.523835136093 202.74027679682973,295.5232942832144 202.74056802528915,295.4883884715013 206.76180906455107,295.4805253029487 232.40364331793404,295.4306004232588 233.41349882212276,295.4283121995941 234.71882640590036,295.425982371889 234.71799432450322,295.4630931991271 235.07200332562164,295.46259395031836 235.07046397512562,295.4283954077338 235.77552808866864,295.4258575596794 235.83851664528856,295.4328054387839 235.89746960733925,295.4514024564728 235.93495487123565,295.4752831905901 235.96786368774337,295.5029498947393 235.99578001634123,295.5475494539309 236.00975898263076,295.61120367555026 236.01591638449662,303.77142526213254 235.96977747477945,303.77196611501114 235.97006870335713,304.0614888132017 241.43185054213964,304.0543329137775 243.4771480512029,304.0516702535136 243.57341986087056,304.05129581691443 250.16525135175578,304.04285019144294 251.05312373317443,300.5601321878027 251.09576790126013,300.38485425598 251.2665941979629,299.74090651603154 251.48584762795892,298.85969078528746 251.52557951133198,298.8678035782297 251.59792898287157,298.5968778977576 251.55640812464247,298.5898468105134 251.6050016740969,298.41985259514865 255.31666685530038,298.41510973156926 256.6712952577496,298.41232225912535 260.37102007176134,298.4065392938882 260.3711864880408,298.4429428519979 260.71275587324743,298.4416947300204 260.71267266516685,298.4061232532487 261.43612577599043,298.4087859134831 262.05269804030826,298.51670686176476 259.7824889482214,307.5655913069748 259.6853850572748,307.95317478968906 259.2646015295638,309.43764948343136 256.410604177605,320.60210070584003 249.87123541446405,346.18327623039687 248.91126318598407,346.28408288332423 245.43981988432915,346.6219495066684 241.43185054213964,342.8341488840117 231.97661918027657,333.89855231165154 225.52474376880247,339.20777203903873 226.06597106890575,339.8679037608313 226.0267800382339,339.8897458957031 226.0804492839153,339.95377455392156 226.11772652743284,339.9330557288473 226.25235728637523,340.10180182220506 235.07221134600047,350.79021931668495 238.75970456447936,355.2721421834286 241.43185054213964,358.5200468362174 242.41021176801837,359.709091054352 241.43185054213964,360.2672928134493 240.9651777291897,360.5335588384817 240.9367621518718,360.49528309740583 240.72691124089485,360.60129025862193 240.75162405632065,360.63686173539355 236.7578417007995,362.86455147157477 228.69917564037243,355.2721421834286 223.97303690372868,350.81946697537046 224.0049056186969,350.8011195821007 223.82005875160522,350.6218892639667 223.7871915391969,350.6441890435773 223.25178880840065,350.138782844783 222.42445034374637,350.82362738203096 217.04063452531335,355.2721421834286 216.8134763225766,355.45981812700455 217.31201785049478,356.0652821055574 217.26920726612965,356.0912846470601 217.468615556548,356.3255571450329 217.51587777588526,356.2957270294286 223.81094746104554,363.91609425021284 233.73559750429177,375.9312238185737 233.06385824801416,376.7666750762588 233.01093787553106,376.73942441274914 232.82754715073654,376.9492753237556 232.87551663929096,376.97906383531966 231.10156085142793,379.1563294430023 230.86117255571818,379.1487158988392 229.55563695156172,377.5957193077181 229.6024415262784,377.5675533547307 229.45936514189407,377.3758418167038 229.4088578052853,377.3999721752403 228.3115505536474,376.0564936625668 228.35615011275033,376.0196324597183 228.1512500857021,375.76921758397117 228.1072329833998,375.79522012547386 227.01591671723008,374.5005015786525 227.06005863183063,374.47254364601434 226.89056366512682,374.26972382225205 226.84916761907772,374.29385418075896 225.74907289502545,372.94962679491675 225.7836458742092,372.9240402940535 225.6287955389126,372.7334936698939 225.5864842033858,372.75533580476565 225.35637211207347,372.47288579785953 223.3044179524243,373.6334312305069 223.29085502677424,373.6604322695975 223.3212259952276,373.72529300915403 223.27155074001598,373.7404368893109 223.34206963260013,373.92961057931296 223.39128724307287,373.9171293593905 223.91957567854436,375.1500242635184 223.8649079351864,375.1643360623667 223.93630051314884,375.36033281923415 223.9955863077584,375.3497237823075 224.67127795052463,376.95676405570913 224.619272867401,376.9700773569696 224.70214816769806,377.17576786131553 224.75236427584736,377.1613312502576 225.40550651458386,378.72206619775136 225.36136460010158,378.74282662689546 225.44099478324537,378.9399050894905 225.49749310532232,378.92996171762235 226.12812754412852,380.46190665113994 226.08028286763587,380.4743878710624 226.16457270624892,380.6883159805897 226.2188660129486,380.6795375225593 226.86372904240434,382.2215506401546 226.81030942108296,382.2378178301384 226.90928549508442,382.4629790375812 226.96216426346808,382.44999856885 227.0992912663654,382.7745102868933 227.4117794092547,383.5110686786872 229.4109380086008,381.07960222522564 229.4862829729336,381.11613059551536 227.45508924233985,383.6151620528672 225.22731629807808,386.33561035164075 225.18388165269468,386.3094829979285 225.0694288660071,386.4523097579528 225.11332115612936,386.47510878634256 224.12767921864642,387.67064323884273 222.80296413991175,387.53538841891157 212.88559480826973,363.94509228450875 209.23920640738052,355.2721421834286 207.38587006085194,350.86360888985274 206.76180906455107,349.3822961051535 M317.3375128223984,181.92189319138635 318.85460510418903,183.6780424388286 321.41683313845095,186.6604715438236 321.7001568307058,187.04718134115956 320.0319585797284,190.03285556333734 318.34449764585565,193.06887070590355 317.3142145451704,194.9076872332936 316.28879912021495,196.73764209454308 314.4629630615266,199.98671166119917 314.3126891737369,199.9379516953766 313.2415924839214,201.85706407093943 312.192878781738,203.7390656192937 310.7719751014162,206.27658083804118 304.99595774898773,216.59193466897491 302.5737690022175,220.91771747446333 302.53133285451065,220.92537262266669 302.5238441225276,220.88663923685195 301.9757105474784,220.93344381156862 301.97862283219104,220.9679751866825 301.92287338319414,220.96963934935854 298.1712682982388,216.59193466897491 296.1764365218031,214.26431196527423 296.16033574821694,214.22682670143698 291.7852521238795,209.1773411606763 287.60516675908775,216.59193466897491 287.2680906129526,217.18986831150443 298.45563209226964,230.17761774451756 293.9300249557825,238.12257989148495 293.8597556876767,238.2458111362029 293.8288022621862,238.25425676167438 293.32031736254766,238.28962021812632 293.1787803285411,238.1245768866607 283.4257470591772,226.76658354729923 281.80318846907863,226.80735553238918 281.8089298301868,227.00509966007235 281.66065293751376,227.00543249260164 281.65224891617123,226.8115159390497 281.55597710638534,226.8140537870745 280.8215821261649,226.83240118037384 280.818170592614,226.90741331211822 279.2010621351642,226.93100281777612 279.1999388254259,227.22614206492443 276.10189201984645,227.2854694636334 270.067097374073,227.40087914386856 270.0660572725335,227.1084025569842 269.2002766504057,227.11926121830047 268.9795254740131,227.1220486907444 268.8703980077942,227.11639053771682 268.81564705635566,227.10445017067295 268.73335421297753,227.0709588971872 268.6360423016521,227.02461196720944 268.5316993030825,226.9398228798468 268.44653577909116,226.84700420768164 268.381342207094,226.7571810283097 268.3784299223814,226.7132471341767 268.32030904160956,224.24338012740014 268.17286423033363,224.21750239807747 268.03324098336316,224.19545224288603 267.94587244387634,224.16329229954707 267.85134800496525,224.11257694258902 267.7721754666786,224.05582899600424 267.7415964778464,223.92119823706187 267.7136801492485,223.90776012362136 267.6967472942652,223.898440812742 267.6925452835348,223.86016507163654 267.68597184102947,223.82421915826575 267.6855141962906,223.80399958197066 267.67777583994757,223.463095861793 267.9939667446107,223.46492644068934 267.9852714948088,219.022569041128 267.57389048611685,219.02660463557896 267.573682465738,218.97297699396742 267.98427299725046,218.97264416143813 267.98889104862025,216.59193466897491 267.9928434348724,214.50665565214902 267.9922609779535,211.0786885999178 267.9474950025712,211.07477781767642 267.9369691736955,210.72368110118194 267.9359706761372,210.56650093826897 267.9502824748673,210.1345259166828 267.99292664307126,203.3490691007051 267.405435621189,203.6029371139843 266.5096584672661,203.9442152707611 262.6041599405913,205.85725345265692 262.8107657345332,205.85679580791805 262.8181712583174,208.89272774234456 263.16082234928126,208.89634729612652 263.15969903954294,208.95446817689833 262.8275737773365,208.95459298910788 262.83726752481505,210.7821764185529 263.16028149646183,210.7765182655253 263.1604895167224,210.8338070649887 262.84292567784263,210.8384251163585 262.83335674254414,211.05222841367626 263.1767983108057,211.04831763143486 263.177921620544,211.34832455434258 262.8390148955717,211.34774209742372 262.8401382054283,212.2515904402781 263.171847426877,212.26161702028594 263.17205544725584,212.31183312843524 262.8385156467334,212.3067158282567 262.84546352577877,214.151148904634 263.19726751140166,214.14653085326415 263.1970594911411,214.19936801760753 262.8534099026189,214.20931138947566 262.85195376020346,215.25294939549127 262.8173807810197,215.26543061541375 262.8071045766223,216.04900160227356 263.192067003113,216.03976549953387 263.1964354301228,216.08806782064715 262.8078118457212,216.09996658362118 262.812180272731,216.59193466897491 262.82050108599293,217.5291910771753 263.1959361814027,217.52453142173562 263.1979747806188,217.5743314892455 262.81979381689405,217.5794487893945 262.8164654916602,218.98171384792792 262.85886003526764,218.98246272109668 262.8609818426825,219.40020915197417 263.1984740294571,219.39858659339757 263.20554672068243,219.44959317881504 262.8542419838978,219.45129894553136 262.8602745734654,222.70739959943165 262.54312677522506,222.70739959943165 262.5381758912964,223.53473806414502 263.42039011968745,223.5418939635692 263.4243425059396,223.83703321071752 263.4265475214351,223.93193208619815 263.4082833363346,223.95032108356733 263.2532249807774,223.95227647467325 263.0081770295984,223.94915616970002 262.94681103167335,224.00856677654872 262.88777486142385,224.05324954388004 262.8539923594195,224.07663102918866 262.81251310528984,224.08054181143004 262.73508793764154,224.1219378575087 262.6117734848726,224.2074342139998 262.5153768630249,224.27633054797775 262.52532023486344,226.16236769075343 262.599001036402,226.20975472241852 262.6076130781234,226.21612014457455 262.7540593919592,226.20942188988923 262.84072066222893,226.20580233610727 262.91564958592227,226.22847655228745 262.97002610070257,226.26849966417905 262.9827569449555,226.37234341396947 262.9780972896045,226.47023778224334 262.9422761885024,226.5498263612877 262.8782891343241,226.61597682689157 262.7981180983609,226.65296284192013 262.6417284125683,226.6668169960592 262.54495735418055,226.66631774725047 262.53351623582716,226.66598491472118 262.57470426161564,231.709479469925 262.120304648298,231.70273961114023 262.13324351292977,231.7383526920113 262.8101832774961,231.74114016445523 262.8076454294417,232.5227141561097 262.1238409939107,232.51888658200804 262.1240906182707,232.5785468132463 262.53330821556654,232.58004455964291 262.5537774161625,238.20270932337831 262.55548318293796,240.47811892375393 263.3506201003017,240.47716203020633 263.36896749360096,240.51760118276695 263.48716464628006,240.524798686261 263.48109045261305,240.47682919767703 265.79115624025303,240.47196152191762 265.78620535632433,238.1943885101164 265.7852484627472,237.46864717556895 269.23975890941875,237.45870380370084 276.10189201984645,237.43790177048686 276.2233758937782,237.43752733388772 276.9011893437228,238.16609774494893 278.9796452937721,240.37764510335586 281.61721829213036,243.17323034608336 282.7520940158635,244.3761703223973 282.7807176135602,248.38796723865892 282.7919507115348,251.25020219576948 282.7919507115348,251.26197614659304 282.8143336992851,257.1327675624404 281.68191261552573,260.45210639726145 280.4135710468062,264.1689720866945 279.74952854265405,269.7795300671066 278.4221091997038,269.7816934785618 278.1081233104179,271.06218343467447 278.0488791197895,271.30461032968896 278.029075584193,271.38494778193166 277.16025786529076,274.933192190187 276.97095936310865,275.78308005890057 276.9552330260625,275.8522260172681 276.66412937324696,277.0466787640406 276.64357696457034,277.1318422880024 276.5563332372635,277.48834753310535 276.4350573835924,277.98672264468496 276.10189201984645,279.35649492732057 274.9568649040142,284.06436947874556 274.90519265344943,284.27076725221997 274.8608427187065,284.365291691131 274.7903238261224,284.40747821447786 274.6887682999672,284.4412191123236 274.5619591055667,284.4482918036081 269.409794728942,282.9041984826973 268.9590562732988,282.7691932871854 265.18939502362184,281.6041546153777 262.6319930611086,281.60477867636644 262.53181046916995,282.2617484891159 262.4963638046079,282.40507449791943 262.490081590562,282.80609609410374 262.5187467922399,283.02614000136793 262.54741199403605,283.47379975598955 262.5553999748574,283.6545694245604 262.56347116375935,283.8560163141357 262.54728718185606,284.1658417967315 262.44643892491797,284.50662070472913 262.1716024622045,284.9139245149298 264.07519652098176,285.82709216866357 264.20820472134756,285.9032692142753 264.23171101883617,285.93205922822193 264.2828840205626,285.99488136853284 264.34121292159506,286.10018126062045 264.36438638664305,286.1912525619994 264.4240050138115,293.02322272423436 264.2290483586018,293.1948394982053 258.51552031371847,293.2071959059182 258.09586009586405,293.2079031750466 256.5939532981819,293.2114811247587 256.0986568875352,293.2124380182767 255.91247869044454,292.83704452702545 255.14118090312837,292.8386670856021 255.14247062926438,293.28869827202817 254.08880604315223,293.29098649566333 254.08710027649502,292.8409969133367 253.33094636930613,292.8425778678435 253.33223609544214,293.2926090542695 252.30553094446896,293.29489727790474 252.30428282243236,292.8449076955781 251.74379283967028,292.846322233835 251.74504096170685,293.2964366283712 250.6307176468868,293.2985168316867 250.62901188011134,292.84848564529017 249.60230672913818,292.85081547299524 249.6040540998948,293.3008050553515 248.55009828544146,293.30313488305654 248.54880855930546,292.85310369666 241.43185054213964,292.8688300337653 230.7781724431229,292.8924195394232 230.15806383331062,291.4043668959688 230.1526137006619,290.5781517410233 229.69696596518943,290.5816464826253 229.69684115300942,290.5497777677457 229.4851180589776,290.5259802417385 229.48532607935644,290.58143846227597 228.71902078006838,290.58385149812074 228.71860473942894,290.4438538146398 229.48478522641875,290.43403525498127 229.4849932467976,290.48737166813333 229.6965915286494,290.5040132946868 229.69696596518943,290.47509846853063 230.1521976599042,290.4739335546633 230.15311294938195,289.0761617353197 230.14732998417435,288.76633625275343 230.1432943897234,287.4702447717155 230.14246230832626,287.1630819493836 230.14104777012847,286.6818477131661 230.2456819971575,285.93205922822193 230.751171404121,282.30876108418187 230.60946795383506,281.6235837144046 231.7973888622313,281.44339650275265 231.7462158605048,281.1963515563683 230.55642276917195,281.3668034164719 230.4862783132461,281.02831273213906 220.81383212060305,282.3178307706421 220.68498432686826,281.65986246030474 221.8581773957767,281.4696486686449 221.80059736782434,281.20234254195475 220.63447699025951,281.3551542778875 220.55339066481852,281.03351324042774 210.8965876012593,282.3339731484164 210.63165290628496,282.0009325967618 214.4798210292492,275.8437387877267 215.99820303717578,273.4195114417995 216.34509774296944,272.8623497843895 217.908328934359,270.3529173104306 219.00018605334816,268.596310418279 219.04137407913663,268.6134512936412 219.06042874153485,268.57151439468396 219.0151219132148,268.5457198735306 219.1098959764859,268.41674726764535 222.8147796948052,262.43616272052054 223.09323571133018,261.98658917883336 223.38022056137774,261.5294436970825 223.41421108376088,261.46965865363467 223.58965543171522,261.1984417446736 223.59057072119293,261.19507181531077 223.56244637233448,261.11490077931796 223.58566144136367,260.51846488318506 223.6569292071461,260.3236330401849 223.9454118037085,259.3196437094618 224.29263934194276,258.1883459354999 224.597264316309,257.1089284323633 225.0203776716955,255.6545334786445 225.56435084011375,253.73171834116002 225.93916187438703,252.41732107092216 226.24216429017665,251.39639888515657 226.28185456945027,251.26197614659304 226.75181410377112,249.6717439159947 227.14310034828884,248.24780313889855 227.60511350588777,246.7043754830464 227.92762822869625,245.54466213173703 228.343876913118,244.08652281202671 228.79353366300404,242.53265253549773 229.2794275547499,240.90214756864773 229.76956506108905,239.20457684671612 229.68019952648555,239.10056668067585 230.1818613592587,237.8866848349059 230.76831227948318,236.44310693843352 231.29373003422324,235.1242164290354 231.97250037774504,233.47224376391284 232.40705485148496,232.3695695876477 233.07575701098818,230.71164754100857 233.1258899110569,230.5775992390442 233.18796317808085,230.59357520053905 233.783775013225,229.06670596310062 233.72024560378566,229.0432412696523 233.80773895545252,228.89600447860744 234.1462712438848,228.0917978748131 234.25111349129267,227.84246470479357 234.50506471253422,227.21095658069774 234.6017525629596,226.96657429457733 234.69939730684388,226.50426990857807 234.87767073143024,225.65654545129019 235.15313125516204,224.3484719991385 235.53243552862511,222.52138781847265 235.5698791884221,222.290235625473 235.62059454540972,221.95295145904774 235.64759558452982,221.74434867004828 235.67509587248824,221.54102959747723 235.73862528180936,220.98578172710327 235.8238304097819,220.25122033048518 235.83219282714327,220.1656823699538 235.9411954811821,219.1107696619233 236.0425845910579,218.07353868213357 236.14164387313994,216.92751306868385 236.16282034295307,216.59193466897491 236.22630814841125,215.58349370316137 236.3340210763141,213.5928639374265 236.79428686303817,212.39192095628835 236.8209134655,212.32356547515943 237.68640285916837,210.103697303461 238.50413078454295,207.91769484184746 239.01540315671403,206.57891758868354 239.43090296793753,205.49246899833236 240.01864361417975,203.99975669943828 239.9876901888075,203.77368020254735 239.92848760227855,203.56982027709773 239.87140682316448,203.43344214739872 239.77297160210074,203.22854212032092 239.6605158105298,203.04922859404724 239.56316229510497,202.8795672112118 239.42145884493723,202.6954276132781 239.33533842736873,202.6033578142817 239.24098040485538,202.50047095803887 239.12199277487855,202.41193750471425 239.04698064310458,202.36559057473647 238.91180903134276,202.32506821403612 238.72188646814237,202.2895799454042 238.50317389108403,202.2481422952557 238.34291502723812,202.21556631124767 238.23869684084855,202.1667231372854 238.14949772240624,202.10281929124687 238.0701171637407,201.9811273969954 238.01245392770775,201.81962041117202 237.99302482865127,201.75143134632253 237.8731219091967,201.65986079613484 237.85440007935733,201.643052753302 237.62911405967546,201.4384439546836 237.55688940043413,201.6460482460952 237.5641701120383,202.22359589605017 237.6518298799846,202.23387210047716 237.59703732444663,202.34237550567772 237.48832589898547,202.31267020225337 237.48770183796717,202.2781804312093 237.48691136066944,202.179162753138 237.48295897441733,201.87578590083794 237.46785669827122,201.86342949309545 237.45695643285552,201.8690876461526 237.37736785381114,202.0549330108026 237.36875581208977,202.06096560045893 237.3582299832141,202.05347686847588 237.3160018558861,201.9966041097111 237.24123934847216,201.88581248084577 237.18499065075522,201.85519188794368 237.07399100159975,201.8209517412892 236.9845422587974,201.8091777904952 236.91839179310486,201.81163243040982 236.83555809690725,201.8549422635541 236.77489936808107,201.86451119882307 236.71781858896702,201.85564953268255 236.390144961851,201.7132388133568 236.243532231854,201.6648948881737 236.1891973210549,201.65337056176924 236.15358424021338,201.65012544458645 236.0970443139188,201.65890390261683 236.07511897090734,201.65291291705995 236.06550843162765,201.64059811338734 236.58747304895385,200.25081427480595 236.3792446964353,199.72514689564676 235.44610709091427,197.32958475148615 234.59621922211204,195.11795418493952 233.84776206740327,193.18170093401451 233.01118749977283,191.00335362060432 232.1041772479936,188.644860699612 231.19071836577083,186.28898883481372 230.38210173095592,184.13951474348985 229.99634882716754,183.11077099327105 206.76180906455107,184.854522228901 196.0860808103429,185.65569173586184 195.97524757746683,185.775677863397 195.81923232845074,185.88676072072175 195.68830433140047,186.0168982404743 195.56486506633323,186.1705836618149 195.44175863382486,186.3198590521054 195.27188923069926,186.39004511213065 195.12581735340348,186.36046462091588 194.91030828939896,186.32543399699324 194.6987100076654,186.35443203128915 194.63314199900995,186.37639897834086 194.59540711075354,186.40007169213848 194.57260808236381,186.4148827397956 191.32961270934518,186.7385623765009 191.31409439267787,186.76194386180953 191.28771741457604,186.78345316415195 191.22847322394765,186.80525369495382 191.12829063200903,186.82351788011343 190.97918165793885,186.84985325414542 190.82591227735597,186.8750653184095 190.68957575163813,186.89561772720432 190.50764116925907,186.91413153675353 190.30602786334524,186.92823531528217 190.15770936669102,186.93422630083904 189.97119833680506,186.94188144907196 189.75494039972048,186.95598522757103 189.59351662191858,186.97216920941517 189.3795885125095,186.9839431602092 189.18929151265084,186.97133712807715 188.97444811376405,186.96971456950055 188.75494505928975,186.96613661978844 188.54692472726828,186.97836821532132 188.3440216953367,187.00557727473162 188.15576329481232,187.03823646687934 187.95735350207056,187.06885705975185 187.7676805632302,187.09743905337874 187.5534612253617,187.1224014932237 187.335331105104,187.14478448097398 186.93539121464724,187.18260257734053 186.73344507629278,187.23161216758226 186.5379475681454,187.2718432997936 186.3396625877019,187.31482030040857 186.1650503209082,187.35758928067426 185.96360343139204,187.39790362102534 185.77796608700262,187.41566855740578 185.59320242810978,187.4154605370565 185.40423675836828,187.3968635193676 185.19700690364454,187.39623945837886 184.98183067208063,187.42644401058237 184.7857091030332,187.4529041968239 184.56050629155015,187.47753380413957 184.34703582676173,187.5043268229104 184.1423438199741,187.53382410601503 183.95953555209846,187.56382063789883 183.76757438968198,187.60417658231972 183.57748541020217,187.6500658675882 183.37695381016374,187.70240378312286 183.24024284790588,187.74217727062492 183.02103102200928,187.78548710376919 182.8125530451307,187.79463999836915 182.62587559920178,187.77683345794838 182.4085359562418,187.74471511867927 182.21004295541945,187.72990407102216 181.99341058155835,187.74184443809563 181.80269754106024,187.76817981212758 181.5943443764799,187.80137985712432 181.37975060195313,187.85217842222207 181.23571732399165,187.8961123163551 181.02981879926685,187.96833697565555 180.84659449087002,188.04043682274644 180.6411536108841,188.1126614820469 180.47128420764022,188.16142144786946 180.26659220085259,188.21529871390015 180.0445929025416,188.2564451355597 179.87077111304563,188.27791283383223 179.6732766097816,188.2964682474513 179.4562697993805,188.30786776164615 179.24450510124925,188.31976652464976 179.06585724012285,188.34160865952148 178.8683627368588,188.3781370298407 178.67236597999138,188.42248696464273 178.49463340822444,188.4526499127764 178.31028578997106,188.46895870683008 178.12373315622216,188.47994218035595 177.9147975346047,188.47270307279206 177.8102049116751,188.45148499890908 177.69878922188016,188.42897719897877 177.54568625745844,188.37501672483793 177.38343039837764,188.29517852140398 177.2317003681725,188.22732228908376 177.03491313400738,188.17947761270938 174.46690213453783,188.4640910310411 172.09172598298133,188.70876454562094 171.0894008148751,188.81194263035277 170.35325846377978,188.86132665716408 169.42644467616753,188.81393962552855 168.75624477038596,188.71121918553558 168.32347927150207,188.64036746045173 166.4122300644623,188.285193545466 163.5767881260635,187.78078584425964 161.04551351729205,187.31515313293787 159.46534947080093,186.93031551859767 155.75023115218363,186.05779503774423 154.10953318904637,185.61491975077192 153.92472792605412,185.93976430134455 152.10920967586256,185.44908594203815 150.08874979452335,184.86479843329843 149.8639630235615,184.7967341806585 149.66667654067632,184.84940492872244 149.45520307112275,184.897624041696 149.28188053046506,185.0102878535571 149.11891740228538,185.11196819189232 148.94488759241057,185.17320937763736 148.74032039792118,185.24614130606625 148.56225499371365,185.3179499246977 148.37095949629665,185.405193651975 148.18465648678952,185.49451758256777 147.99893593431952,185.58579690426643 147.8113848030123,185.6827759830921 147.63514997764196,185.7781325033116 147.5091728645204,185.85314463505603 147.32295306333035,185.95782046615489 147.14363953696795,186.07235646098218 146.99282479624057,186.2116052712944 146.84513036048642,186.35293428489254 146.7614645830099,186.42262109613864 146.63037016968022,186.5133595649883 146.46387069588786,186.6188674774252 146.33822641532512,186.6942124416989 146.1588712849816,186.79372936854938 145.98908508993657,186.9056027031423 145.83448437911824,187.01327402703438 145.67430872347117,187.12131978749608 145.54787396561073,187.2075650171855 145.43104974714822,187.31365538654126 145.3321152772462,187.43326707747727 145.2548981298585,187.54185369081753 145.16062331542574,187.68763433953563 145.050913392288,187.843191943872 144.9347132348438,187.98901419665995 144.82163338225456,188.12967754519948 144.73913251861583,188.23481102103725 144.61465315189085,188.37884429896917 144.47423942774088,188.51276778875354 144.3329104141132,188.6492707306621 144.1979884267114,188.78169647404985 144.06710203376053,188.92002999488435 143.91483115073595,189.0435524680617 143.74824846874475,189.1512653960237 143.5542487071122,189.23355823937226 143.35509004117216,189.28206858083482 143.15010680592508,189.35953535249385 142.97799078320455,189.45497508085305 142.83204371820702,189.56306244538462 142.6636720613598,189.6793042069578 142.52038765671486,189.7764913061032 142.37086264200522,189.9092914860901 142.2560770227588,190.0608134959755 142.197956141987,190.22743778197744 142.14387085566614,190.4042134601672 142.05230030544888,190.54063319393606 141.93747308210305,190.67189402348606 141.81977517826223,190.79670622271078 141.6823985510049,190.90362867340457 141.49343288138166,190.99794509196633 141.3135368981004,191.0498253627917 141.11441983625977,191.12121794075412 140.94821159092683,191.19968321000104 140.7892840571981,191.29237706998617 140.70628394472106,191.41232159345148 140.60019357539485,191.57724011273706 140.533294236504,191.7199836645921 140.4606119325238,191.88627511806473 140.3635496455584,192.01674547034656 140.12707213211962,192.22776129519082 139.99398072367327,192.3417564371691 139.84200106910814,192.45242325382486 139.69230963811907,192.5661271673437 139.56242174272654,192.6906065340391 139.45574891648144,192.8267350393485 139.34911769421754,192.96348760567622 139.25064086893613,193.09811836458906 139.17209239166775,193.2727306313236 139.17034502079287,193.4215899809451 139.2663672061005,193.58671652055043 139.2713180900292,193.67778782192937 139.17533750882097,193.82814491797703 139.05439448782693,193.9646478598856 138.91710106853193,194.0706966251715 138.7441113604331,194.15752431177978 138.59745702633668,194.2253805441 138.41764425125427,194.3080894281176 138.2177367121159,194.39004943896646 138.05606331007223,194.4594866257934 137.91494231682339,194.53932482925694 137.78850755896292,194.63726080160063 137.6502572463273,194.75129754764876 137.5043101812115,194.86084105450706 137.4216845052745,194.9286972868273 137.36876413290966,194.97225674436112 137.24415995388642,195.08167543903943 137.10686653482793,195.19196781909602 136.95492848424396,195.2963108176656 136.85799100945857,195.3592161660867 136.50294190668242,195.06994309231524 135.35188220128254,194.13609821757709 132.96426643369605,192.201509129269 132.9608132962822,192.19926250970363 132.73660898235747,192.01778557200433 120.32382774714554,181.92189319138635 119.24536713752703,181.04471305509324 113.49356335168608,176.30767405312244 103.96390231496794,168.45835965486359 102.75164302780418,167.48282750555776 101.9461466979625,166.83463615080908 99.04076832389843,164.17542903778056 98.22254114968558,163.4265558423141 91.311648073524,156.85194843493076 87.6909709856189,153.30753160080664 85.22131199913252,150.4484169486398 83.49357832918552,148.25958541051244 83.1456851257153,147.81924797156492 82.59538813927003,147.25181010972793 81.6965322844733,146.32499632220436 80.92448562395882,145.46283525391763 79.98032294072381,144.4100443532725 78.74609670644921,143.03132719635667 76.4775101730572,140.9799970977258 75.26287945400027,140.12827865008634 73.6044997626814,139.2869612190243 72.70077623203659,138.8269866607597 70.3085424131985,137.611232631994 68.34275027509902,136.71212715268945 68.08155994611619,136.59264027396304 67.14551005588253,136.1643264101991 64.85146183374816,135.12655457756034 63.45198424771779,134.52329561453257 62.317108524102906,133.94429182225082 61.03661856781286,133.6565580989163 60.071612247441834,133.51206717627508 58.49186424159018,133.12148820076754 55.08836038048387,132.2766760281627 53.37456407260872,131.7947345228168 50.20225400845365,131.1418003044887 47.03913844293883,130.36983685217305 45.108044096321365,130.05664144018488 43.08096916837743,129.76886611281003 39.88444553763484,129.42792078853296 35.61075102329149,128.96915274817596 33.82410599515671,128.77610988000234 33.41151846852762,128.63145254108167 31.95537614402262,128.12088743803903 27.900144582495827,126.52949029363248 24.85838807873275,125.3287969368839 24.86537756187751,122.9827852358436 24.86766578557184,122.01777891535433 24.91850595462121,117.34193949505872 25.155981965736565,112.58176863213934 25.378480513004078,108.12085581895894 25.406230425322512,106.95136551203132 25.455905680652375,104.87116219131411 24.861924424345425,102.01895381418184 23.75825175046282,98.3254280060171 22.810594325714554,95.63851258474003 22.80826449803905,95.63272961950288 21.778563854272655,94.03213797639697 19.570095196769106,91.00544214473969 18.30578922250056,89.03619686913768 17.487562048287714,87.76261318803004 15.509039065817058,83.62184366591275 13.813673359440077,79.76884947117027 12.755349117976934,77.91172715455077 12.659202120489274,77.7429810611635 12.247779507697933,77.35814344685284 11.555529446606666,76.74219524358286 9.11586699215188,75.28022834974128 7.978703044842667,74.47589693376693 6.642796472232833,73.3988508624053 5.822239470344483,72.91112639182224 5.334556603860843,72.57829386051695 4.948554075594187,72.19349785024659 4.538296376640598,71.65489160645562 3.2763202301658043,69.2291665141318 3.139942100466801,68.86167779550303 3.1110272743106147,68.7830461099767 2.7562693998756487,67.82731749629694 2.241959930930154,66.44285897821383 2.0963873025908977,66.04878526113394 1.8374851973023991,65.52756951706515 1.6109926596833437,65.06875987266784 1.483892236823431,64.81218759508441 1.4549358065678262,64.75439954681234 0.580127102079196,62.99205129349346 0.09477406327106085,61.80517048681409 0,61.575183207681775 0.06590084121429285,60.99505610560258 0.07742516764829645,60.892169249359746 0.15023228380851106,60.25770723651099 0.3397388063694601,59.62673996526418 0.6979914221994368,58.43869424474706 0.8540482753149545,57.918643414545585 1.1129087765040344,57.05764726009661 1.090941829511434,55.12888274112509 1.11057894882853,54.49899717560588 1.1325458959393762,53.76863778968861 1.1417819986790483,53.431145602914064 1.1591308944200585,52.86146112151171 1.1856742886830762,52.26739665718329 1.2215369940028489,51.47467277569397 1.5046526659971067,50.56050662437231 2.2362185697037384,49.048864475260004 2.424601782526354,48.65828549975249 3.6680641195406305,45.947073303718625 3.5929687796860845,45.66162780404886 3.5236148009397077,45.39931416529814 3.473897941510427,45.213219176228975 3.4173164112346432,44.99596274140871 3.27860845374189,44.472417169634866 3.705715799598204,43.24164407289234 4.285218840659105,41.571740055139465 5.214362455946852,38.94602421556713 5.265202625114466,38.80273981083352 5.461698630820174,38.24686787947082 6.081099971533563,36.370066839434806 6.598862578129387,34.894287395583156 6.764155533984576,34.192759627682356 6.321488267243298,33.80908692720945 6.0210236996262765,33.55022642599081 5.5252280401412985,33.120331607720125 4.9058266994279105,32.62570086210246 5.628114896413698,30.790503888494392 5.639639222847701,30.763877285973415 5.6963039613223225,30.635611949216628 5.804932178702891,30.391770515974805 6.108849883851997,29.70530342012069 6.269483184237932,29.341309443064297 6.7456417244058136,28.208721943055064 6.910851472180412,27.81348331210786 7.031087224075576,27.52687289860034 7.0553839988619265,27.461013661455908 7.775300764072791,25.480160851309748 7.798432625021389,25.418919665564708 8.085043038528903,24.62960731753761 8.157850154689118,24.43086469226655 8.204072272605142,24.30372266530722 8.39590862272335,23.78134200740068 8.291898456712618,23.285587952015124 8.048057023470797,22.919222543154245 7.63201635930962,22.296326460809357 7.274928657317396,22.096377317601124 7.146621716520312,22.025900029086856 7.019521293660399,21.95425782673483 6.5826785962261285,21.710374789423152 7.027634086543492,20.790508880974496 7.508369073981791,20.862109479286225 7.652818392582715,20.88407642633795 7.814616606806402,20.9083732011243 9.02229944681799,21.0874787070487 9.26730579389756,21.124506326147102 9.733021713270354,21.130247687314395 10.280780851779525,21.136030652551547 10.663330242395853,21.140648703921382 14.765990439775841,21.187994131516614 20.78817905323987,21.379872085822928 21.3960560676375,21.38332522332545 23.3132962602637,21.396014463567642 23.844913020850786,21.399509205169583 26.177070567781584,21.412240049481635 26.198995910793013,21.40991022177657 27.79035145115926,21.206549545135672 28.54850235346482,21.109445654129985 29.414074955213778,20.999652522852543 30.42297356570708,20.732679228662125 30.52007745677189,20.707300748148175 31.162569054452703,20.53738974092315 31.52082167028268,20.486549571755535 31.636397766826835,20.469200676044085 32.05589156840185,20.40912440416636 32.941142893685566,20.28314729104478 33.41151846852762,20.222238937829037 33.58371769944697,20.19993915821846 36.59772429089161,19.807030355005878 37.57192510990289,19.675270276676713 37.70139696465598,19.657921380965263 38.70796574747377,19.52158485533612 39.87287960710142,19.647561968428136 42.90419349018765,20.440327453957757 45.47557441899043,21.4076219981118 46.65779557025967,20.937288027280484 47.28651622191157,20.609031943275173 48.096630603123074,20.439120936050145 48.561181608776366,20.340935339316857 48.811970921063526,20.627545752824375 50.10398520355108,22.86721746014888 50.949920685982946,24.18124029378758 50.91409958476259,24.665428418728403 50.610181879613485,26.188594894215587 50.55584696893261,26.56536131968345 50.75350788847607,26.672824623226266 52.10214530533884,26.71442868965421 53.62643509065304,26.857754698428113 54.21355167587699,26.863537663665262 55.276743593069995,26.875061990069703 56.0140924622207,26.66820657185643 57.71062308243544,26.19325454965528 57.71524113380527,26.192089635817528 58.4236751767998,26.075390229505476 59.55505615878318,25.888171930638862 61.792439642442915,25.86965812108966 62.81868714879547,25.832672106061114 64.05295498705125,25.787573298060792 64.48975608026785,25.77138931621666 65.45359748691938,25.736733128893178 66.59192634818459,25.814158296482354 67.67250876509976,25.88700701677155 68.08155994611619,25.872195969144013 70.28774037992541,25.79219134943063 71.65950965785501,25.79219134943063 71.91491702151201,25.39928254621805 73.0463396075948,23.664600997048336 73.14452520441678,22.660362041935606 73.18267613331264,22.276647737392842 73.3029118852078,21.05165760585791 73.359535019583,20.4703655899114 73.42539425681612,19.808153664803335 73.44964942750305,19.551581387219905 73.48896527023666,19.15983749784508 73.53980543940428,18.63745683993854 75.26633259153236,18.580833705563336 76.03138976878384,18.572762516661417 76.27643772008108,18.570432688956352 76.36655212788288,18.56926777508904 76.47984000073271,18.6570939592852 77.31537446658714,19.301956988740933 77.7903264886996,19.603628074295127 78.02726164699551,19.754983667930656 78.43751934583085,19.819719595248074 78.73919043150329,19.840521628462046 79.12748118334603,19.840521628462046 79.6879711659899,19.73301672084937 81.18222281540957,19.28115495552696 82.84180902466561,18.504531847742058 83.30290689278682,18.2179630383044 85.19239717297634,17.040359938434563 85.70437681436458,16.62315436040607 86.36076417013606,16.089249376124652 87.25641651187897,15.65581821221173 87.87935419832327,15.673208711963476 88.92174408236143,15.703205243847261 90.09356421705324,15.703205243847261 90.56277487805754,15.632769559402847 90.98464011152572,15.56225066684828 91.40646374089448,15.375032367981662 92.06285109666598,14.789080696595459 92.53667980915836,12.885736262178186 92.8880261500424,12.299784590791983 93.30173698640984,11.639902493388986 94.10606840241375,10.355959399773786 94.76249736228468,9.605921290440003 95.1056893061862,9.240720795446439 95.51482369528323,8.805043011968166 95.65269957137883,8.571602595303771 95.75171724936146,8.404021415783811 95.97363333971009,8.026131680548055 96.05105850724014,7.896701429923953 96.52376390987594,7.094658237584803 97.03570194716477,5.9933153914368225 97.0969431329098,5.860390399240341 98.09544072682567,3.713204531581248 98.79925671833212,2.0663491666372544 98.78769078791694,1.9715751033366322 98.73452079107382,1.5173835102795965 98.64091164164051,0.7269062484147463 99.133212559494,0.7500381093337831 99.6024648245977,0.7500381093337831 99.90638252974681,0.7731699702528201 100.2588521803692,0.6795192167496543 100.77428495928952,0.32821447996501796 101.7357965381473,0 102.75164302780418,0.3232219919960298 103.28325978839126,0.4923009178830369 104.50246695471861,0.8667375156162717 105.3253121803013,1.2319380106098345 105.34727912729389,1.2423390272168202 106.42553171653357,1.8513809554522027 106.35501282406769,2.0385992543188203 105.91817012675166,2.889152788120518 105.81644818431701,3.08797862150173 105.41659150194086,3.8657250390545292 106.40934773474856,4.621546113625462 107.84006997461063,6.2382801345056595 108.51151800254705,6.409356055597999 109.03614527998937,6.542239443724623 109.4105818777226,6.355021144858005 110.09476074991196,6.390842246048798 110.85170513428034,6.43015808881197 111.20300987106498,6.687895280233155 112.01071121652039,7.329846025035389 112.40723957354449,7.644788807780213 112.58638668350918,7.788073212513822 113.3712890004566,8.571602595303771 113.92578799763227,9.125144698961408 114.33954043809912,9.54002044922571 114.67349627926099,9.872852980560564 116.10767165665514,11.105955905037712 116.7098073099446,11.626006735209621 118.52187242260406,13.191983795061919 118.80848283611158,13.449637778372951 118.99574273907761,13.618383871730664 121.68378147006347,16.037202689019868 121.99697688205167,16.320318360984565 123.13875888084895,17.347730781086188 123.44737784544849,17.625105091883594 123.75358377417368,17.83312542396418 124.16850112859653,18.113952872264107 125.31956083411467,18.894029117521974 125.41662312108006,18.959929958736264 125.52753956215496,19.340107917636793 125.69745056937998,19.926017984953138 125.82109785470782,20.349006528189218 124.67120306314567,21.895263260555144 124.5822119650822,22.387605782508036 124.48394316017963,22.92617042225871 125.00058245691888,24.290991820995167 125.04676297061724,24.73594731128297 125.02367271376806,25.041029930299388 124.76593552231732,25.462853559697717 124.64811280617825,26.095027348852135 124.31985672226162,26.70402767304722 124.29676646541243,27.03224215298268 124.39037561484575,27.337366376068957 124.64811280617825,27.64011916738031 125.09415000225277,28.061942796749076 125.7043568443259,28.630545572423827 126.36078580431507,29.09971462938783 126.73984045341814,29.563183929254393 126.80919443204627,29.649845199612802 127.11544196498912,30.024281797346035 127.28414645427698,30.23113721555931 127.00215409213929,31.0944215936435 126.90051535790349,33.417343037864185 126.7352224020483,34.52675707285496 126.89930883996632,34.994802820021505 128.56467801442994,35.08841196945482 132.6903868645597,35.29988543906749 137.11194223093665,35.56569381939059 137.4216845052745,35.58441564925952 140.48307812847293,35.76913770414164 140.66447185803253,35.177403067518284 140.7985617640372,34.13035352807 141.69417250179893,34.17195759446839 142.73889221351257,34.21934462613348 143.6149074359384,34.21934462613348 144.3938603713988,34.176575645867786 146.42547014251372,34.06337098112811 148.0966222823032,33.974338279024344 149.43835342422003,33.86109201024438 149.61167596487772,33.75475201646945 149.95029146150887,33.549061512123494 150.26232195954105,33.326022112066084 150.70840075959674,32.747018319784345 150.97649736364374,32.5690361236574 151.4896419187515,31.944975127445197 152.14719418847898,31.16606379602508 152.6730695879579,30.54200279978332 152.73431077370293,30.470360597431295 152.943454415581,30.221901112790075 153.062483649539,30.080904931721236 153.47507117616806,29.590933841543265 153.87958751401348,29.11015725006467 155.3287403552555,27.393947906403863 156.03372126071793,26.864702577532576 156.45670980404267,26.549177337839314 157.71980926037406,25.60151991306149 159.45910886085449,26.60347064450945 160.43913424929102,27.083082322150293 160.4622245061402,27.09468985666489 162.67073476774317,28.608578625372104 165.0248176576854,30.113231291339652 165.6130575526477,30.57782390097411 168.02264026734503,32.48008662966378 168.25142102854016,32.66035704942594 170.52000756193218,34.58683334476225 170.72457475642156,34.755579438149525 171.24000753534187,35.17973289525291 172.09172598298133,36.2336887097358 173.02091120225023,37.383583501357066 173.36293823231404,38.13474492048831 173.87146473605193,39.23725268047404 174.1292019275027,41.004302193302465 174.2540141267865,41.86409182984384 174.48745454333266,42.84757035581245 174.5414150174735,43.24164407289234 174.8064329206467,45.1785629889055 175.35768680066911,48.74265854644613 176.2926133810462,55.82687416335409 176.31108558652556,55.98288941239975 176.3584310141799,56.38619923221931 176.73865057712072,59.61284420708482 177.75686849855254,65.46632833132011 178.2017823847705,69.05580236937469 178.5623232242948,71.21580228948555 179.0997229502077,71.22732661589 180.79042900111546,71.26314771708078 181.13370415309757,71.27471364755509 182.12874860959963,71.30936983487857 182.885692993968,71.33478991943281 183.18848738926053,71.3451909360398 184.5013037050212,71.39024813997027 184.71277717457474,69.10435431487754 184.82144699605473,64.9589667413904 185.13921885531335,62.35297122930443 185.797977642978,57.51416868085871 185.90544094652083,55.676683483585876 185.98981399321445,54.220541159080874 186.45669482654324,50.50617171363231 187.5259193334221,43.24164407289234 187.5811695335807,42.86604256129179 187.86777994708822,41.290871002769684 188.0480503669095,40.30281602950109 190.1236356362273,40.52697873932639 191.9703985403688,40.72692788253462 193.17225681095513,40.91181635366661 193.73740644906823,40.99964253786277 194.34877820509737,41.056265672267536 195.11495869208719,41.1267845648221 195.28482809533102,41.253926591810995 195.24210071916477,41.466564975231854 195.0687365742894,42.371411815703695 194.9670562360724,42.90652331792228 195.01510893282565,43.24164407289234 195.07335462565925,43.648448634284286 195.76098663538068,43.76514804059634 197.12239650071402,43.99397040586133 198.09081435463597,44.15809844787877 199.27769516137445,43.8403265885906 199.40483718833377,43.522471521192266 199.9001335989805,43.24164407289234 200.1894898809212,43.07755763494476 201.0585988282828,42.696173158136624 201.72081075336132,42.443095622125576 201.76815618101568,42.42462341664623 202.20732870612545,42.25704223712627 203.00700046654188,41.950753100172676 203.67037730557638,41.697717168231485 204.45161846473113,41.253926591810995 205.31952089415557,40.760460760060646 205.98173281935232,40.38602416232741 206.76180906455107,40.198889071600505 207.04147159913148,40.131740108379184 208.27107978191802,40.068210698969374 209.1332408502343,40.002309857784645 211.18224112118966,39.844006385074216 211.605188060415,39.81163842138594 211.87099644064944,39.790836388201534 212.55629862269535,39.73766639129929 214.89885718620357,39.55739597153714 215.10804243218104,39.34816912154894 215.7263204631561,38.98762828199507 215.91699189943657,38.87783515071763 215.94357689791724,38.86169277294335 216.21167350196424,38.705635919827834 216.45900967671932,38.56118660122691 217.50951235364056,37.94985644932675 218.3519946986586,37.78344018367411 219.6105593117007,37.38703663888915 220.5893365782189,37.27029562850724 222.03511949024588,36.47981836664239 222.4858163416714,36.268344897059286 222.6660867614927,36.1840134544355 223.22545343439822,35.922781521412375 223.78710833099808,35.6593029688239 224.1187759484656,35.1785679813856 224.31639526390964,34.890792654010774 225.32529387440294,33.423084399031474 226.39426875692178,32.77938628344305 226.91669101886862,32.50546511017773 227.6655642143351,32.11372122080291 227.85390582305828,32.015494019999764 228.21215843888825,31.827110807295394 229.7665279641964,31.31517277003614 231.40639384605475,30.82744829948264 232.31710685984433,30.385987550737656 234.84800703207577,29.16212072902974 236.27061647905472,28.73688556619875 236.99639941767202,28.370520157337875 237.47946423278583,28.127843637963366 238.36355064411356,27.68172323377869 238.64204826473798,27.541891966577165 239.28928272596863,27.295762309641013 239.96530720105721,27.040313341855036 240.39407870958956,26.87739181777477 240.86670090402654,26.678607588463414 241.43185054213964,26.441381201767204 242.4083811890629,26.03145633537247 242.8983938833403,25.824600917159195 245.33917964765166,24.798353410924882 245.99556700354142,24.52326732376269 247.6308564380111,23.83680022793813 249.95377788220225,22.951590506812956 250.7257413345179,22.65803221420098 252.1194775594401,22.12641545355477 253.80211242156415,21.48617047549843 254.7266379853638,21.13370082484648 256.87969002642933,20.204557209588295 259.1216915614589,19.954932811109323 260.5500839736455,19.794257906623972 261.7462008831236,19.617482228404636 262.94115287852753,19.394442828376786 264.1245805478522,19.172526738116833 264.85381662388335,19.090483519128263 265.16347569025885,19.05466241796703 265.63039812768704,19.00269893900196 266.11691608033294,18.947199114394653 266.47516869616294,18.90671835779373 268.44674379946997,18.751909626655678 269.4706614780288,18.5762156541935 269.6232235895128,18.54963065574238 271.1602442191982,18.28498718928659 272.8070995842013,18.14399100821775 273.2439422815173,18.107046597229502 273.85760226112257,18.096603976552657 275.6026432228294,18.064277616963807 276.10189201984645,18.055249534543858 277.00220401694037,18.03885753238 277.15122978292993,18.03536279080762 278.10700000067953,18.018055499166028 280.29928467627985,17.90822076381873 281.37408412810566,17.979904570270172 281.5069675161732,17.989140673009842 282.26045876300947,18.039980842177457 285.17736146338933,17.945206778876834 287.37197596678334,17.789233133901032 288.6004608399498,17.644742211230252 290.3084325783997,17.466011141905 293.67856997837765,17.14133300761178 294.7913539427017,17.080799090965627 295.32763035887626,17.023011042723112 295.82920898356883,16.969841045850433 296.6970698088939,16.877396810284438 297.06227030400566,16.83812257159112 297.5256979998024,16.83812257159112 297.53264587884775,17.01373333591358 297.70484510976706,21.667647413197756 297.7279353666163,25.047977809403854 298.41090772086847,25.640794151754804 298.5438327130354,26.170122688736242 298.65362584437196,27.24949858780294 298.7183201675308,28.40521794873121 298.80851778353144,30.03697103758823 297.9706534900015,30.168731115917396 298.17513747652856,31.64800530137099 298.76687211312236,35.95053143370125 299.2742337030225,36.215174900186604 299.4983964128478,36.26372684568945 299.9768847806912,36.36657209786243 301.3243988878156,36.654347425237255 304.7000696285229,36.791848864763274 304.83178810287086,37.51875511314846 305.7135862905043,37.782275269806796 310.7719751014162,37.684422505602804 311.3243522912952,37.673647052426226 311.3243522912952,37.27724350761171 312.73543741184017,37.2333096134787 312.9758257075499,37.232186303681246 316.99640108181234,37.20905444276221 317.860850373823,37.20443639139237 318.8639660191087,37.19865342615522 319.823147770291,37.194035374785386 321.0111934908672,37.18708749568092 322.25815056939473,37.127011223803194 323.75127890895783,37.05536902142161 324.82836658447803,37.03573190207495 328.5623315451147,36.965213009490824 333.1688169866639,36.879675048959434 335.36692623168943,36.501785313694114 341.3035768846221,36.31340210098975 342.36909862960886,36.32496803143449 343.0289807268936,36.178230489198356 344.98091871100183,35.94358355462635 345.44201657900476,35.94221062043931 347.2090244878225,35.93667727959174 349.50764915722726,35.960932450308235 349.7630565208842,35.96326227804286 353.3190392856305,35.999041775163796 356.3353757047506,36.04068744563204 357.7244522740853,36.059201255181236 357.7406362559886,36.059201255181236 358.82928986192394,36.07422032315806 359.7098815316201,35.92744117685207 362.06978899075114,35.86848821474224 362.99427295068784,35.94129533096158 363.9477133406437,35.86848821474224 365.0040405869902,35.86848821474224 365.3981143040405,35.87422957590953 367.05882382315315,35.89736143682857 376.88566270611744,35.860625046189604 377.4517276338265,35.86037542180003 378.25838887762416,35.839573388586054 379.9343670890441,35.82630169139542 380.1120580567116,35.83075332651539 380.6120141227093,35.84323454643786 383.142248629823,35.80957685670227 385.15193305804473,35.80957685670227 391.65602157290306,35.836120251083535 392.5459325535378,35.87198295631462 394.27940758471124,35.804917201262576 395.8129750767463,35.816483131736874 398.26645008144766,35.836120251083535 405.7309684694066,35.80379389146512 405.7309684694066,36.652017597532186 405.73442160693867,39.09975124097758 405.73442160693867,39.63136800162379 405.735544916677,40.502723568609895 405.735544916677,41.40415887561951 405.736709830633,42.572484268679816 405.736709830633,43.24164407289234 405.736709830633,43.78016710857316 405.73787474447073,44.18351853246258 405.73787474447073,45.80491220878247 405.7390396583085,45.94590838985131 405.7390396583085,47.79728934530351 405.73787474447073,49.44297979640975 405.73787474447073,49.85785554670362 405.736709830633,51.99468200182558 405.736709830633,53.64149576272928 405.735544916677,55.015594868275265 405.735544916677,58.13357002166078 413.31326796940516,58.17750391579379 413.4635418573131,58.17866882963154 414.78214113828136,58.18690643478333 417.1778280946515,58.201759086510286 417.34886241161485,58.201759086510286 417.55804765759234,58.20408891421535 422.7180752028583,58.23416865423885 422.881038331038,58.23529196403631 423.0902235768972,58.236415273833764 424.76133411258724,58.246857894510605 425.3588101104075,58.18328688103094 425.4455129847766,57.7718642682396 425.5321742551646,57.36738953455272 425.5991984061172,57.048452761426795 425.69971383061466,56.57574735882056 427.4228710534095,56.59538447816721 427.58695749132755,56.59771430587228 428.34161365200157,56.60582709884406 428.7795796591742,56.55494532560659 429.1274312584267,56.45788303867076 429.55387293916533,56.23251381090828 429.8508843692503,55.98638415400169 430.2218678295697,55.40509213805518 430.29700477352367,55.31838926362692 430.4263934200779,55.243252319672955 430.7592259513832,55.17851639235553 431.10366601720307,55.2109259600841 431.635241173809,55.333408331603735 432.2442831020444,55.47440451270214 432.8221219805475,55.60732950486906 433.86917151993663,55.98979568743435 435.3033468973308,56.513341259208204 436.1539004311325,56.8461737905135 437.0356570147847,57.20097326890008 437.70019876765696,57.51762181839079 438.1289702760711,57.670183929933934 438.2699248530405,57.719859185234235 438.55304052503476,57.82041621374244 439.11240719794023,58.01920044308336 439.39323464624016,58.11971586752171 441.2527283946346,58.77843305108696 441.99348879709976,59.01191507179165 442.13910302965667,59.05697227572212 442.794408679671,59.26382769393539 443.6703406940162,59.538913781068025 444.4758786279573,59.791991317079074 447.74641589279724,60.876026871585466 447.78914326908176,60.89104593956229 449.4521826158699,61.443090296823314 449.7803554918242,61.55205134676274 450.1733058991362,61.68152320142714 450.4749769846904,61.782038625895055 451.6675991524188,62.17727725684226 451.7161094939109,62.19229632481908 451.81088355718197,62.221211150975265 453.8275574685485,62.84410723332016 453.92811449702714,62.87876342064364 455.0467646347576,63.27167222388577 455.86266198129493,63.60566966905838 455.6442822366772,64.05873795231795 454.95315548532426,65.24903029242999 454.10027212384705,66.83693269529373 454.0910776252068,66.85311667710829 453.9326909444158,67.14779827954729 453.0544291023951,68.73341245874624 452.11950252189973,70.40564630420418 451.3532388267111,71.68035329507971 451.3290252600053,71.91724684924664 451.38215365286726,72.07559192602693 451.5508997462546,72.20618709048878 451.6237068624148,72.26164531102623 452.2558390474993,72.75049309140674 452.6291107313948,73.03826841881113 453.9350207720913,74.09917211236892 454.5544637169041,74.5834018413796 454.8421974402682,74.89310251176586 454.90231531615666,75.22826487080577 454.876895231632,75.92975103460715 454.50441402503424,77.91172715455077 454.16038999985375,79.72033912973728 453.8783976377161,81.19961331519087 453.31095977590866,83.33989290781537 453.24510053867556,83.58951730629433 453.3675829102839,87.17786803458102 453.38954985727645,88.7126004405425 453.42420604465906,89.07892424533352 453.4739229039701,89.61054100597973 453.53861722724724,90.3097389461459 453.57210850079207,91.34289272741482 453.8980347570332,93.33061020852573 454.13613482916685,94.02173695978998 454.3245180418712,94.57182592594509 454.70931405208245,95.68818784004033 454.7589893074123,95.83380207250858 455.04214658338776,96.68323229648325 455.13692064677707,96.95944169341334 455.35305377179986,97.59502701602999 455.6072546175197,98.33699393646185 455.5044093653467,99.63479118421611 455.4697531780823,100.07396370929634 455.43043733534876,100.57550072991904 455.406223768643,100.87022393639833 455.3808036841183,101.19843841633379 455.37847385632455,101.22618832865223 455.31723267057953,101.82478763621076 455.28486470689126,102.14376601340655 455.2455488641576,102.53671642071855 455.1657938688338,103.32369894101102 454.89765566080564,105.97599977900491 454.27359466462303,110.16756786621997 454.0910776252068,111.38677503251776 453.91259618024156,112.58176863213934 453.9049410320974,112.63260880130696 453.90269441250246,112.65686397202344 453.5617490881958,115.9100939453105 453.0809724966581,119.70642340160794 452.7412336904069,121.82939570262039 452.67300302139887,123.71663936333324 452.6464596271358,124.4828614544816 452.6383884382339,124.69088178656219 452.59100140659837,126.00602792999834 452.5690344594875,126.62547087484072 452.5424494611251,127.36623127736496 452.40028836610026,128.3300726839869 452.47654861979254,128.68254233463887 452.64184157564773,129.4441047703771 452.82677165093827,130.29931795958893 453.0243493622829,131.1764564918122 452.8394192871106,131.86641832923868 452.822111995469,131.93344248022086 452.7851675845103,132.07327374745196 452.7516347069843,132.19808594670621 452.5990725955003,132.7701002558432 452.4037415036323,133.4981714180957 452.3621374372044,133.6565580989163 452.3332642151476,133.76402140248868 452.30434938899145,133.87260801582894 452.22580091148654,134.16504299864346 452.0327580434312,134.88733119568838 451.96806372003584,135.292970843213 451.85019940003383,136.02911319436743 451.7473541477426,136.6739762237936 451.72076914938015,136.84272231718086 451.7218924591185,136.86930731560244 451.7519721992307,138.14630253014272 451.75659025060054,138.36010582746047 456.55957169785546,137.61697399316128 457.2575631200549,137.50955229365877 457.4551824354989,137.65167178452506 457.8238360679063,138.5011020085293 458.03647445141587,138.9402745336095 458.07924343168156,139.02926563167298 458.2317639391844,139.34354274935922 458.65246425881486,140.2126516967504 458.9344566209525,141.036620232101 460.842460710839,147.25181010972793 461.3983326421131,149.06275191264905 462.95732021879104,153.82175786170112 463.46929986017926,155.57495322039046 463.74896239464147,156.53184674793752 463.8633735772296,156.9259204650174 463.9350573836515,157.17088520808625 463.9234914532363,157.19634689671037 463.5686919748202,157.9475083158416 463.42648927581416,158.2503443152631 463.4045639328027,158.52651210812334 463.3803087621158,158.81890548689756 463.4115118119663,159.17254005141683 463.61141935098647,159.31008309498316 464.0725172191077,159.31008309498316 464.8249267601868,159.1563560695727 465.19470370256903,159.00379395802955 465.68471639672816,158.73569735407125 465.9331758813398,158.34857151606624 465.96088418955884,158.24223152232088 466.0221669794033,157.99955500291682 466.0545349430916,157.6875245048255 466.0765018902024,157.47139137977314 467.6354894668804,157.27610189203415 469.3378030523027,157.07848257656056 475.11377880086826,155.99794176365612 476.3469233293857,155.75522364018218 484.1222240934585,154.22361153919394 488.16826115646325,153.4265192307539 492.40721627522515,152.67539941569254 499.88554721331246,151.34864573774178 500,151.40531047618683 499.9213683145328,151.60521801529563 499.11932512210495,153.62650997800245 496.77684976667734,160.34669001378415 493.90962232162735,168.44908194805407 493.1260513347971,170.55820009492746 491.8039989162968,174.1106881179535 490.5685661642033,177.316531059605 489.800014245202,179.59547700562283 489.5122389178568,180.5535770510775 489.24651374570294,181.43882837624298 488.8339262190739,181.67226879290737 485.7956228528429,181.38794660303506 484.1222240934585,181.22069825604441 478.8916776557266,180.69798476560857 478.00642633056117,180.60903527161497 473.9049726511183,180.17219257426936 468.2121634314275,179.57242835281394 466.845012204986,179.42793743017273 466.80340813855804,179.83590690543198 466.66703000885906,181.15454779044052 466.6624119574892,181.19844008050367 466.588315115193,181.92189319138635 466.57920382463334,182.01084268537997 466.35266968303307,183.97434659984424 465.97132681023567,187.2888177589059 466.1989842616925,188.08620129580535 466.3203433234442,188.95065058775685 466.3977684909743,189.49957464004464 465.9990351184547,192.0062612455999 465.4674183578676,194.39849506443795 463.87148637023097,202.46618920731453 463.5675270609824,204.11882753752525 464.50128872752174,205.13812716468465 465.4131250511679,205.7633114706943 465.7240322394618,205.85808553399494 465.97710977556153,205.9343457877168 466.3815845091893,206.05799307310375 467.59621522812796,206.427853223537 468.1855784330651,206.54222280211442 468.1728891926751,207.30382684189294 468.1658997095303,207.7001887826376 467.8249959893231,207.92784623406484 467.77182599248,207.94523673381659 467.68861785974235,207.97178012819785 467.42626261692175,208.05731808872926 467.02761245248274,208.18791325322067 466.74329026255134,208.28035748878665 466.34455689015,208.40978773941077 465.40617717200433,208.7160768763348 464.6156999101099,208.97260754984836 462.8672058109892,213.70045205314932 462.7111489578737,214.0899077188594 462.47192557600175,214.6896719403148 461.7125265516596,216.59193466897491 461.3093415440496,217.60199819339465 460.9291219811088,218.40054664416144 460.68182741033485,219.13440077165106 459.75035396748984,220.93839469546774 458.87666857273956,222.988518276191 458.80036671494787,224.29904636825734 458.68716205017864,225.19128717656756 458.421353669826,226.9189792425925 458.3866558784622,227.09579652485215 458.2942116428666,227.56038913451616 458.1786355464407,228.14284606430044 458.0029831779893,229.02576756176083 457.12463812776974,230.74767666254866 456.51676111349036,232.22928067570732 456.3076174716123,233.3872882602708 456.19316468492474,235.6662342062886 456.16895111821896,237.8377584528039 456.16662129054345,238.02497675167052 456.1550969641094,239.0639134981766 456.1192342589079,241.8698581534412 455.3911630965963,241.87792934234315 454.82372523478887,241.87335289504315 453.4218762168653,241.86062205070155 452.9238339379037,241.98659916382314 452.537831409637,242.08366145075897 452.2882070111876,242.28939355917478 451.90682253429077,242.41304084456172 449.5735416776217,243.1723150566352 449.4521826158699,243.20697124395866 448.7564794173648,243.40575547327003 447.9971636012215,243.55831758481315 447.46097039324576,243.7189508852582 444.7035360794141,244.31642688304888 443.9130588175197,244.48862611393866 443.03825011303104,244.88153491715124 442.367925394833,245.04216821756674 440.95684027428797,245.3102648215546 439.60932616716354,245.46166201923043 438.8177255955308,245.5252330327101 436.95939676097413,245.54952980749644 435.50670757400127,245.5691669268431 434.2158582053514,245.5691669268431 432.6002058901988,245.6049880280339 429.25224345759233,245.57844463365262 423.4069137303987,245.6408091292247 418.65131931489753,245.65815802490658 417.2853330022937,245.6766302303859 414.78214113828136,245.66739412764625 414.7786880008675,245.66739412764625 414.3915205587631,245.84887106534558 412.95730357715127,246.77568485286915 411.6306331073994,247.63202135187842 410.09818892510265,248.6224477569515 408.96909616669535,249.31353290417545 408.2814641568557,249.35859010810591 405.2097527253969,249.26959901004244 403.73043693596213,249.22570671997929 400.1421278117453,249.1459517246555 398.4860779479837,249.1101306234647 395.16349399603894,249.01306833652887 393.2948057490043,248.96451639102602 389.97338671077904,248.87902003453493 384.9947528951909,248.75420783531024 383.12489973420026,248.76115571438513 382.73199093098765,248.76115571438513 382.244308064504,247.41010526164803 380.1120580567116,241.50548973978567 379.6494624421938,240.31540541999337 379.49935497056526,240.1836453416642 379.4322060074326,240.0270476356701 379.41206963915903,239.86995068089684 379.4110711416007,239.7113143756571 379.4168541068083,239.5414033684321 379.4225954680347,239.36321315195585 379.4266726664668,239.19600640903505 379.433454129351,239.07144383419993 379.4437719378478,238.8936696583927 379.45600353326245,238.7296664286144 379.4817564504643,238.41580535156763 379.50301612835796,238.20154440954056 379.5206978566578,237.91726382370857 379.52465024290996,237.85494093223593 379.53317907655077,237.71802194965835 379.47472536322005,237.53184375244948 379.45712684311906,237.47634392784215 379.466987006877,237.4035784156927 379.55190090650837,237.3132975915819 379.5923816630797,237.2705286113162 379.6569511740586,237.08738751094083 379.69268906719833,236.9885778532188 379.6881542239091,236.60798385364927 379.7162785728858,236.27781398257835 379.718109151723,236.15936720550965 379.75796584739436,235.9556320922696 379.82627972448296,235.7757777131469 379.8717945730636,235.63424067919948 379.92887535217767,235.5167923997187 380.1120580567116,235.31921468831496 380.13211121666814,235.29758057379252 380.3830669452347,235.05997975049715 380.4826670802545,234.9895856701226 380.542077687044,235.01617066854416 380.63106878522575,235.01363282048982 380.62903018589145,234.96300067167147 381.0821400733096,234.99320522390454 381.08363781970615,235.02390902491678 383.3694484366592,235.1168525092915 383.4067672841579,235.11789261094924 383.5290416353874,235.12355076397682 387.0137982382141,235.2455754907576 387.08019832826665,233.57941583899623 387.4815527569212,226.77973043230986 387.74041325811027,222.07048294666825 387.9121548442908,218.934701252862 387.9376997411137,218.810097073957 387.94843359025,218.73092453558164 387.98275694507373,218.6454697831604 388.04507983657595,218.5845614299151 388.09092751771544,218.52698140199232 388.18890509415854,218.49602797659048 388.2974501034585,218.46807004395234 388.3621444266174,218.45775223548506 388.5263972809331,218.4532589963248 394.8108579291371,218.6933976676745 394.8972279709474,218.71340922362032 394.9944150700928,218.74169998875823 395.0921846261571,218.78991910173175 395.1668639253722,218.85532069413733 395.20626297630463,218.9051207616472 395.2371331935963,218.98300357397525 395.24645250453483,219.05585229426444 395.1824654503566,220.102277772724 394.8952725799302,225.2293965014231 394.6852552525556,229.19979737157652 394.31639359976936,235.5313954270265 395.4515189478625,235.56809021362517 395.47531647381055,235.05498726252816 398.24048914398526,235.25264818204207 398.2030454841883,235.51300642968687 398.14142986178496,235.5146289882635 398.1332338608213,235.6527128847084 403.4060916341982,235.87575228473625 403.4048019080622,235.5041031594765 404.08361385568344,235.53068815789806 404.0720895292494,235.75347793356588 403.86685666964235,235.75614059380024 403.8791298692746,235.88557084442434 406.0809834801735,235.97422910995851 406.1292858012867,235.9764341254836 406.14001965042297,235.62949781564964 406.4944862962803,229.84133207568019 406.2042979330607,229.83866941544585 406.24902230446185,229.02322971370648 406.5432462621324,229.0312176944687 406.5728683573875,228.32519668740764 406.68840284983224,226.4913726479866 407.0151195833711,226.37891685644524 408.92366452607706,226.4727756302977 408.9601096883157,225.88990265981485 407.044700074645,225.80806746117557 406.9219680786766,225.78689099136244 406.84013288003734,225.7499049763339 406.789791959708,225.68450338392833 406.7795989633912,225.64510433302544 406.7966982347722,225.17655933707974 406.3650560456266,225.15209614601395 406.2454027506503,225.13141892500957 406.1946873936627,225.08007950706278 406.1785034118777,225.02091852460367 406.1787946403372,224.97848237686728 406.71032819284363,216.59193466897491 407.0497757707537,211.23678405227895 407.7136934624894,211.2683199346292 407.77231359209947,210.12920059618452 407.7389055268717,210.09733188130497 407.79473818394916,209.9967332487269 407.9060290616824,209.86559723138646 408.03183975840625,209.72393538522948 408.0451946637957,209.7092491498115 408.2219703419855,209.53068449673611 408.4185495557718,209.38323968537154 408.59153926398886,209.26916133525356 408.78424929960363,209.18362337472217 409.0207684171419,209.12945488023206 409.25063088397593,209.10607339492344 409.4665143846387,209.10819520230876 409.5759746834164,209.10906888768707 411.25835992118044,209.2218991158276 411.284362462624,209.0844808844413 414.78214113828136,209.26383601475527 417.889257630321,209.4232211931933 417.89108820927646,209.55818478463542 419.2457998199245,209.62346156486097 419.2539958210064,209.4914102580428 422.14826590927595,209.645761344442 422.14614410186107,209.6922746906992 422.14281577650894,209.7894617898446 422.5224112784315,209.79832345598513 422.72781055443625,209.8139249809104 425.6522435907803,209.97468309353548 425.65686164215015,209.8564443367865 426.47092840973204,209.90304089115386 426.4694306633354,210.01562149487526 430.6427761694607,210.2432789463025 430.70389254302574,210.2607110501241 431.36618767630307,210.31167603147173 432.0308126372559,210.35943749973598 432.1717256101259,210.3324780646857 432.2949152508331,210.33376779076258 432.30955988224036,210.33480789242032 432.4861275400513,210.34683146760392 433.15595300929283,210.3917638593248 433.21657013413784,209.6678531037033 433.46053637955964,206.7332686750827 414.9645333655175,205.7585686071149 414.90695333756514,205.75569792653127 414.78214113828136,205.74908287998565 411.75902325639527,205.58998893000705 411.6389539206613,205.58383152817075 409.9054372853885,205.4925106024022 409.69691770441045,205.4682970357556 409.3285553004625,205.41995311057246 408.9688881463165,205.36599263643163 408.7743475317463,205.33087880436926 408.5911232232312,205.22175133817998 408.4351079742151,205.09086494522913 408.317410070256,204.95494446023943 408.158898577285,204.77338431442996 408.09266490351183,204.60663521621845 408.0436553132997,204.41775275470536 408.03545931221777,204.27979367047004 408.16189407007823,202.40944126072975 408.24726561433016,202.41605630730493 408.2501778990428,202.19925751719398 408.1849011188468,202.19863345620524 408.6851484134222,194.69109646353192 408.74073144613965,193.85460510421856 408.8808123377308,193.85577001805632 408.9673903999199,192.60810567034122 408.97213326346974,192.54029104209087 409.0339569062519,191.64933995982796 409.03832533314346,191.58938850013024 409.1692949341749,189.7135027495424 409.172373635167,189.6674054439542 409.17586837679846,189.61931114319023 409.1797791589512,189.56119026238883 409.45648780471953,185.57876581705182 408.7486362186439,185.49971809085648 408.85701481166444,184.78841336736699 409.53066785509634,184.84503650177174 409.62831259898064,183.36555429599844 409.58729098947157,183.36530467157928 409.6114629520779,183.08701507133372 409.60601281942917,182.97148057891854 409.5877902383099,182.82490945293227 409.5726047539649,182.65870120759936 409.5473926898191,182.49532203878022 409.5250097020688,182.3573213505046 409.52322072721273,182.23924901000552 409.5351610942862,182.11281425217462 409.55954107715314,182.05652395029915 409.6082178349247,181.99782061260848 409.6359677471249,181.97564564520746 409.6376735139003,181.92189319138635 409.6484073630366,181.5919313406647 409.7549969812011,180.06680947404203 409.642874022189,179.97099530908366 409.63850559529743,179.86269992420284 409.65227654120815,179.6158629981678 409.76077994640866,179.33732377350307 409.85297455764425,179.21151307666094 409.9566518910961,179.1099991546347 409.8568853397969,179.01418498967632 409.8726116769613,178.8168152985923 410.0305823171129,178.57609417032373 411.8320799969155,178.63205163964034 411.84880483163823,178.4541526516531 410.1491955105497,178.28220304518246 410.2162196615023,177.87656339762825 412.3503834563308,178.10621784423128 413.6649887469475,178.25886316391413 414.78214113828136,178.37510492545775 415.2341277158429,178.42215912459355 415.1793351603049,178.8254689444131 415.37662164330834,178.99795940376234 417.08534225507475,179.17739774221604 417.4909402985591,179.00994137490565 417.56187523178266,178.6667078269638 422.9868374719048,179.24512916232666 422.9411562070447,179.50627788721008 422.9392840239898,179.50627788721008 422.92542986976207,179.5973907926589 422.89676466808413,179.75952183950056 423.43807517614977,179.80399658648258 423.4374927193491,179.77895093849793 423.442485207259,179.75269877260567 423.47556044004614,179.65954726788166 423.8209573994432,179.69258089662853 423.91423371631765,179.742630588528 424.1379803855035,179.79646625045925 424.293662802079,179.81789234466194 424.4519662747894,179.82621315795345 424.6303645115558,179.82908383853712 424.81700035350354,179.84514300817168 425.96402446457074,179.9693727504775 426.3702465689551,180.02208510264086 426.52409840657515,180.05661647775477 427.168378979112,180.1935770644022 427.4485823663936,180.22744277445753 427.5094075114992,179.83578209322243 427.66005583594716,179.73534987689422 428.10871408815666,179.79014243237307 428.0510924562231,180.2891832090113 430.80607213019925,180.59842623468825 433.49069932775245,180.89843315759597 433.54453498971327,180.35745548200052 434.56370980472224,180.4411212595657 434.6176702788631,180.200982588216 434.74318974712753,180.09451778226105 434.78271361024,180.02241793517015 434.8070519891258,179.9537712255818 434.8167873405855,179.85724979149498 434.80006250598103,179.77150381061432 434.76465744540013,179.68867011438715 434.6727124586428,179.58915318750712 434.7056212752688,178.79880073785182 434.75346595152496,178.3531795824759 434.9068185404249,178.36599363492763 434.92383460348884,178.26497896168055 434.9995956084611,178.16587807546955 435.11263385695094,176.60464387919666 435.30875542599836,175.05572448656682 435.14849656215245,175.00496752553892 434.95491284115934,174.96153288021463 434.7622028055446,174.92641904815227 434.35223633505046,174.86538588272697 433.9258778625107,174.8101356825388 433.40233229070725,174.74602381618055 433.3700059311184,174.8942591048133 431.549869629557,174.69235457049913 431.5713373277113,174.57078748842767 429.6477317130769,174.42251059575463 429.3655313305604,174.3773285796146 429.2198754940223,174.32923427885063 429.01926068578507,174.26258456443804 428.83670204226945,174.22256145254642 428.3976127253585,174.19693334764287 427.1453303263622,174.0777793014162 426.8226907912555,174.06159531960162 426.8122897746781,174.10931518376645 414.78214113828136,172.66968967363488 412.72690025749773,172.423768037048 411.6701153664124,172.2825638356299 411.43900477754175,172.20701085103647 411.19874129389376,172.11107187386855 410.9545670280931,171.96762105288508 410.7652685260293,171.8326574614134 410.5945670415065,171.66915348041425 410.4284836083536,171.4335912563645 410.340199779389,171.21820700454 410.2756302682919,171.00947940333097 410.2306562725307,170.6638328195739 410.23631442555825,170.1735705009365 409.668668543372,170.15081307661663 409.12914701004416,170.1171969909509 408.8905476891905,170.09789270413353 408.7786743546567,170.08424657034374 408.61013628164824,170.0373171834175 408.52106197550415,169.98809957285607 408.4222523176639,169.92719121964035 408.36304973113494,169.83994749236305 408.3300577065466,169.77059351364625 408.2994787177144,169.66233973283528 408.6883103223766,163.5744999024874 409.2654003276814,154.50202595161952 411.3340793220533,154.5928476286089 411.37443526644466,153.5336913058373 411.3836297650849,153.4605513570591 411.4171626426109,153.09372830348892 411.46800281177855,152.63188156222853 411.5185101483873,152.3144841395395 411.67336048356566,151.67998052265045 411.7875636458932,151.29980256374992 411.948529778838,150.8691588723105 412.0290752514595,150.67432702928085 412.19495066423355,150.32252304368748 412.39544066029083,149.99364289866386 412.60171362155563,149.73511522997453 412.6825919266178,149.75591726315892 412.9859687790657,149.3242750741316 413.34359733387737,148.88248149285732 413.70318127982455,148.50667196093707 414.14235380505255,148.1515396500212 414.5721654151244,147.86110166238245 414.78214113828136,147.72493155300316 414.9009623519787,147.64800563419314 415.4392773672511,147.36888395263912 415.6738410937721,147.25181010972793 415.79091493671285,147.19335639642682 416.08792636679783,147.04636922977153 416.34404099967196,146.93216606747353 416.55226935207224,146.85336796569732 416.8298516832189,146.76612423842005 416.51744674852847,145.2531091551207 416.2323756853987,143.7138835099694 416.06213184561483,143.69466243129176 415.8721260743339,143.6662468539147 415.6443854147965,143.63342124551716 415.46632001047067,143.58316353329798 415.2178189217596,143.50386618271304 415.00389081223227,143.4210324864563 414.8106815278975,143.34161032369136 414.78214113828136,143.32496869710835 414.5962957736313,143.2164652919078 414.4255942891086,143.10134684013207 414.25917802339677,142.9782404076237 414.03971657314014,142.72861600911517 413.8220024935219,142.41754240454188 411.4899697588894,141.80063730775385 411.4615125773538,141.76539866348193 408.06262676761736,140.87831675939057 406.51657805557113,140.48848665708135 400.41667304599935,138.95088357053623 399.474257733521,139.83625970791127 399.3979558757293,139.90777709808327 398.18969057891707,140.89196289318036 397.9709363977593,141.1040188197119 397.9906151210576,141.11629201928508 396.94610342972277,142.1714127476353 397.4528825627041,142.5246728755554 393.33291507380073,146.7864270228253 392.7969298862038,146.42913130045423 391.9956771710737,147.25181010972793 390.95170633255833,148.3239469012307 390.80904598881347,148.2347477828475 390.77759331460294,148.26890472139183 390.6830688756919,148.37108430850623 390.7430619394003,148.4261264883451 390.76203339371796,148.5010970160492 390.7641135971517,148.55726250568554 390.740149654806,148.64845861927407 390.6402166873456,148.76353546697993 390.21910032707575,149.1845686191101 390.17886919474614,149.30164246199175 390.14400498710296,149.36991473498097 390.06479084471687,149.43465066232793 389.8671715292728,149.54165632113188 390.36654513846986,149.8550597534398 390.3656298489921,149.85589183477782 390.3184508376172,149.9572393405542 390.27064776534223,149.95436865997056 390.24160812700603,150.04298532143488 390.2814648226773,150.06228960825223 388.81575356287385,153.51089227744754 386.4129107069612,159.19579672454543 386.35499784656827,159.18951451052914 386.28518622308303,159.3516871614111 380.1120580567116,158.62369920726874 372.55380570702107,157.73245689654638 368.26563297754996,157.22688428147273 368.27952873575884,157.13718591428082 368.3273734121333,157.1375187468101 368.3466360949103,157.03987400292584 368.29558790548214,157.03409103768868 368.469201674481,156.06197042184507 368.765006586747,154.40654461922 368.8147234461763,154.128504643364 368.8446367698908,153.94016303469994 368.8535400400716,153.8898637184109 369.1761795751783,152.0641524719321 369.1864973835569,152.00748773348704 369.19369488708054,151.96396987999347 369.20704979247,151.88895774824908 369.3216273913376,151.23610673809026 369.33593919018597,151.15693419968534 369.4468556311426,150.52317945599458 369.4588792064149,150.45453274640622 369.93894852885376,147.72389145134542 368.2326409529616,147.52015633810538 366.93351237503106,147.365306002927 365.9838995591473,147.25181010972793 364.91675525558395,147.12433525023928 363.081225449417,146.90524823649312 363.0196098270137,147.25181010972793 362.0640892337424,152.6265978458001 361.89584238907514,153.57217506726244 361.40766027387144,156.43719749684647 360.18745460998576,156.26786894654032 352.82395089524437,155.3969710242931 349.39161541606245,153.75560739609725 346.81678134960936,152.524335050546 346.67707489467654,152.63188156222853 346.47358940582603,152.74978748644818 346.2434357104143,152.85612748019355 345.91322423524394,153.00244898179022 345.5371650789341,153.22939916405946 345.44201657900476,153.27574609406682 345.05160401986535,153.46575186537737 344.4189309818431,153.78676884181877 343.7452779384112,154.11693871288972 343.9996452005287,154.56572177730874 344.0774864088164,154.5305663412061 344.1069836918915,154.58340350554948 343.9202646418632,154.67089685721635 343.9500531533977,154.72369241748987 343.993279778284,154.70035253622157 344.0185750507469,154.7422894351788 342.06975737173013,159.24405744158884 341.94810708151897,159.5312503120448 340.805742625921,162.2298564759762 337.8455716964372,163.95917110057775 335.9190537970902,165.06276056629108 335.2416147836856,165.48113105815733 335.184034755615,165.4620347916597 335.04283055428556,165.5363812583455 335.04079195495126,165.58547405672692 334.6724295510033,165.80052547602213 334.5204915004193,165.5533557174578 335.60057466861446,164.94094385983004 333.96516042196475,162.48721923082778 333.99199504480544,162.47440517834644 332.9006787786357,160.85762955342597 332.9640417717957,160.81997787330926 334.0130467023203,162.35849624933212 334.2212750548389,162.2735407457196 334.2588435266976,162.32754282390076 337.7212587459917,160.31744235509868 338.1713315365172,159.2532103361888 338.9219521027403,157.47892171579647 338.5464754033493,156.71365651816615 336.0935828555668,157.62220612053008 335.9636949602925,157.39571358297016 335.6487521775477,156.76179242302953 335.5731575888549,156.78712929947363 333.9167748927709,157.39384140000396 333.48018181969667,157.55206166457467 333.45080934891985,157.50155432793636 331.76592786720084,158.0733606167536 331.658339751478,158.09212405069238 331.5507932397364,158.11221881477792 331.44815600794226,158.1211220849883 331.36457343842807,158.12170454190718 331.2615201659945,158.11221881477792 331.14873154198295,158.0887541213 331.0541654989725,158.0680769002956 330.9719142596938,158.04311446045068 330.8759336784855,158.01107932932126 330.79688595226065,157.9681023287063 330.6785639874015,157.91934236288373 330.5720575774359,157.85959892350573 330.4984599838597,157.805055992446 324.7858472284541,159.64200033684025 318.5522267495359,161.6464842567142 317.9931513049716,162.61885449694736 318.0272666394165,162.8089850804675 317.9077381566202,162.96000784154415 316.60024716144653,165.27007362924323 315.794293186866,166.6991733105878 315.0213312368738,168.09844287629846 314.16295613864844,169.66450314429048 313.65834041706324,170.5639830601646 312.4508239934493,172.70958797331693 311.50603724931426,174.37861830566194 310.964809949211,175.36401061869617 316.1584119761024,181.35191748152457 315.7832681092703,181.58082305492925 315.86893088198167,181.67846779881353 315.9424036632596,181.67759411340566 315.9498091870438,181.69893699946866 316.13956533408304,181.6996442685971 317.18270409120123,181.74320372613096 317.2382039158381,181.8067747396402 317.3375128223984,181.92189319138635 M345.44201657900476,312.17590432265524 344.5609256605885,311.6775708151455 345.44201657900476,310.60081597224325 346.08629715154166,309.8133342031716 345.98124688387315,309.6418838454506 345.44201657900476,309.61991689839886 344.8550248060791,309.59611937242124 344.5676239151556,309.6876483185095 344.16352361806787,310.1956339694575 344.11717668809007,310.25458693156736 343.6952282465413,310.72995499440793 343.15104705786246,311.34307412116414 342.3130163480531,312.3434855021752 341.4812262483084,313.3786778826897 341.40654694909335,313.46721133604393 342.3484630126152,314.02657800897896 342.5217023451923,313.8541291536996 342.75867910746933,314.02657800897896 342.9592523116072,313.9815624091184 343.83439384865466,314.49886737091623 343.7523506297548,314.71624861794606 343.6429319350765,314.7612226137368 342.8589449076068,315.7807718652858 342.5490362168713,315.6457666697738 342.4761042884128,315.72077880151824 342.6219681452115,315.83323459303 342.3758384883936,316.1780490954786 342.43050623163333,316.2230230912694 341.1907466565111,317.774771560413 338.9937607213422,320.4135510768267 338.8367885787489,320.60210070584003 337.94546305991645,321.6729061671961 337.7904879124398,321.9052648781329 337.1615176364279,321.50798764794007 337.9128870758493,320.60210070584003 340.1150319153258,317.94717881165207 341.70122855138453,316.0131305762226 340.023877405748,315.083570920325 339.9893460306637,315.1472667459846 339.96796154058995,315.1720627695797 339.69187695583986,315.49832185840927 338.3024259498469,317.2070008660467 336.8693738820728,318.96685287541067 335.50958657543435,320.60210070584003 335.0792757165242,321.1196968960973 335.0383373150957,321.1692889432579 334.61018986758165,321.6841392651411 334.53455367490767,321.7256185193595 331.52603882021117,321.60879430086743 330.1105852726564,321.5496333184379 328.98948049495215,321.5047009266874 327.02264825519495,321.4390081058224 321.8045414332566,321.23494016005304 318.3033096200672,321.1108352299568 318.20391750542626,321.10688284364556 316.7744017833831,321.0421469162986 314.96221185854364,320.9735418107801 313.33291340954213,320.92349211888063 310.7719751014162,320.82963334505774 309.66335154372314,320.7889861721774 309.36733861119654,320.7769625969642 305.49379200757056,320.60210070584003 304.89402778617426,320.57505806265004 305.27840775574606,319.5701118384089 306.14764151540595,317.33073135957335 306.2791935733562,317.00230885928863 306.81933916770237,315.6991862910361 307.3650597068772,314.25910313616566 307.6225056697503,313.58753029610835 308.0372982119931,312.5277915163883 308.0905930210163,312.38550560924256 308.32786101175276,311.77767019894435 308.73903400018406,310.7382342036296 309.2409038533361,309.4051567075631 309.2679464965556,309.3333896930015 309.5122871785175,308.6551185982293 309.83043347443436,307.8685937226757 309.9930221659558,307.43878211254474 310.15390509082,307.0127148683757 310.4720513867369,306.20942355405913 310.56832319640455,305.96911846642996 310.7719751014162,305.4447824174175 312.53781809639617,300.8977075826874 312.7493331700491,300.35157100284357 313.0213405562488,299.67429840568883 313.38920371147674,298.72414473689696 313.49504445644294,298.5078035915544 313.6174436198524,298.152421656249 313.75831498874123,297.7714116160104 313.89989362672895,297.43013345920406 314.3926521893213,296.11960536713775 314.6651588243593,295.44125106425537 314.8440979139451,294.95585642140696 315.1027087907742,294.3285919120522 316.2530612271934,291.36093225061495 318.35997435854176,285.93205922822193 318.60323333486474,285.30500273924605 318.7198495330666,284.9945531956615 320.28195741471785,280.9731873441309 322.23443625152726,275.8967007642797 323.3746372957291,272.9622411478391 323.51575828897796,272.61713541693103 325.90187631016784,266.45952556722693 325.4030435537902,265.8891754207364 321.6964124647143,265.7463070566718 321.391163429448,265.7339506489589 316.34875057994225,265.53891078557996 315.84604864551136,265.5196064987626 314.6462289741411,265.47267711186595 315.3470078687549,263.64858842396376 315.40304854632944,263.48304584371897 315.92530439199686,262.10911315442286 316.02877370518814,261.8369393519437 316.863060049006,259.70044572935103 316.9213889500384,259.54879890725607 318.0925434196125,256.4986799861908 318.06907872622327,256.44064231355867 318.173213704414,256.1020268170162 318.2292127778892,255.94671883706945 319.07498184404164,253.80943473720862 319.6456648230023,252.3334056689674 319.7179726904425,252.13258284038085 320.0303360210335,251.26197614659304 320.06790449301053,251.15742512767417 320.0963616745461,251.0789182543574 320.1285216178555,250.99779032484656 320.24513781593913,250.70344155496642 320.6017262692113,249.81448746787927 320.6885123517793,249.83603837429158 320.9032309384861,249.29655844509273 320.93539088191375,249.21551372369203 322.1957444698119,245.94198096599973 322.3833372052186,245.4566279271916 323.05303786239836,244.85528275122942 328.9767496506992,239.52492815812852 329.15818498424005,239.3625058828274 330.63408924036037,238.03234067141443 331.26518132390544,237.46411233233883 331.2666790701838,237.37487160985623 331.30828313661175,237.27909904899727 331.39232335074655,237.16269087114466 331.53298669937476,237.05880551731394 331.65696681726143,236.930997825296 331.7510336114336,236.8242001868118 331.85691596049924,236.7159464060008 331.9323441327944,236.6399773807088 332.09347668213684,236.52756319326687 332.19411691881436,236.4795937046829 332.2825671639401,236.4419004205259 332.34443241070346,236.41743722946015 332.4147848870081,236.44123475546732 335.3026479490518,233.8366953857081 335.2543456279385,233.72203457867124 335.26096067454324,233.54804637289584 335.2738579350756,233.4653790929481 335.3404244414076,233.43721313999023 335.51283169258755,233.44424422720485 335.70050763619304,233.4790252267379 337.82859723735453,231.5667359180404 338.13875555245005,231.30230047190432 338.3897944892155,231.08050919385394 338.32668112041557,231.0491397277831 339.089325261911,230.36021799201436 339.1639629570266,230.20395311854955 339.30758019434865,229.94638234337825 339.46051674249094,229.69967022955277 339.60841919862395,229.48066642394633 339.67444485190003,229.42874454905112 339.73992965247487,229.40012095135435 339.81252874837446,229.38863822901976 339.9461194056591,229.38980314288708 339.9483244211546,229.34553641622477 340.25769225907067,229.36808582022493 340.25640253293466,229.40885780531488 342.7972876811041,229.4882799680798 344.87495315373735,229.56395776491235 345.44201657900476,229.57989212233736 346.22762616516934,229.60185906941862 346.92657448094593,229.61746059431434 347.2195503165799,229.61795984312306 347.2614872155667,228.84341693865363 354.084720523782,229.0952463526872 358.58786146443816,229.2648661314528 358.58395068216726,229.3196586869021 358.5776684682396,229.38564273625613 358.55491104383105,229.65573633541976 357.898939728699,229.63930272918606 357.76697163010925,229.7322046094909 357.7263244571402,230.35522550404536 357.94162550076584,230.36379594172644 357.9395452975686,230.4076050236499 360.44606548681486,230.49846830470912 361.0962538367393,230.51681569800846 361.4356598105499,230.5215585615583 361.5761983468799,230.53175155784555 362.2514739488884,230.54710345835167 365.2124769596511,230.67204046978594 366.9388376954998,230.7313262644251 367.0105215020399,230.73569469140534 368.52162279824404,230.78990478993575 370.7107039607905,230.87694049689333 371.70433387897657,230.8978673422873 371.74052941673693,230.93647591592202 372.81437197498565,232.65343413278114 373.1112585928906,233.1279285102434 374.01223625522044,234.5723800920941 374.10892410552754,234.7405437285625 375.2030278441116,234.77544954027556 375.36898646496627,234.87937649817616 375.54809197094977,235.092722150755 375.6649577935117,235.35420370816772 375.752742373638,235.58015539287862 375.7851519414257,235.70879516623458 375.82846177451086,236.09305032362636 375.829293855908,236.20592215580717 375.8437304669364,236.94094119716414 375.8340367193396,237.16859864859137 375.82118106290665,237.40091575545833 375.78282211363194,237.92558463700007 375.7724210970545,238.06965951900185 375.73705764069126,238.14284107182033 375.736558391853,238.14400598568764 375.64565350663526,239.80076311845946 375.61490810164184,239.88638428713057 375.55736967778887,239.98922953930355 375.49413149680896,240.03595090588047 375.4308101077484,240.07697251538954 375.3392811616306,240.10792594079135 375.213428860689,240.12248736402933 375.1380838964745,240.12448435923466 374.3771871257357,240.1071354635232 374.3766878770157,240.10825877332064 373.14246164274107,243.29608715420216 372.8540206502781,244.03780445024444 371.9144344143135,246.4545014601483 371.6488756584391,247.13152443291347 371.16730858960364,248.41555073466836 370.8705051798976,249.1303501997598 371.41797308982905,249.2772125542055 371.411649271802,249.29443663770738 371.361017122895,249.42998268606837 371.08851048785704,250.1589691377986 370.5328465768436,250.00124812200704 370.31850242667684,250.5545822053154 370.1657738989134,250.97906849494808 370.379036343323,251.03635729441143 370.6981811367982,251.1188581581093 370.6433885813785,251.26197614659304 370.0970023770859,252.68945326933144 369.56825629699375,252.5590661251893 369.2021405125225,253.51741579506313 369.68753515543006,253.6572886663345 369.4260119940066,254.40986462372263 369.382535744642,254.53492644736647 368.84567687154856,254.3897698596371 368.7606381597372,254.57424229012966 368.2225311647254,255.9443890093644 367.6073734387236,257.56270398475135 367.69328583591323,257.59103635398867 367.10005345292285,259.10446747795703 367.06901681935176,259.0959386443458 366.8783037788536,259.6008871984307 367.2211628901963,259.8299591880853 367.30699207930536,259.9707889529043 367.40351351333305,260.1835521485643 367.4612183534654,260.36195038533066 367.50273921181275,260.63528910167713 367.50427856219056,260.8137705466128 367.4823948232785,261.0879829483375 367.42826793285826,261.26663080952306 367.36303275664346,261.39356481616267 367.2663865104358,261.54342266337204 367.0238764073111,261.8410581545048 366.87102306724944,261.96212598779715 366.3342890064542,262.26346424082203 365.99950108401345,262.3913967450495 365.77750178570244,262.4327927911282 365.7651869819707,262.43508101479296 365.56128545248083,262.9538421189175 365.54476863813693,263.05477358402493 363.70778268967285,267.9692123252038 363.2480161516688,269.15205753743214 363.17916142176074,269.3014993440021 362.99023735611866,269.7865195502809 362.85598103383455,269.7526954442659 362.85236148014127,269.7628468364833 361.527937629866,273.1983858288077 361.49902280370986,273.273855605291 361.4764317955807,273.3323925267318 361.43848888706367,273.43186784954196 361.4303344900812,273.45287790307566 360.6031624415881,275.5914933330537 360.1659869117132,276.710892344012 360.097714638724,276.8858790473457 358.29330467420874,281.5391274595713 358.20660179983963,281.80044260073413 356.59627480515576,285.93205922822193 355.52742473493515,288.6745992862863 355.3890912141007,289.0319782167971 353.3713772010764,294.2359812602068 353.3425039790197,294.3039623047366 353.3040618216644,294.3967393728319 353.28646330156334,294.4406316629246 352.90936404359576,295.39640188064465 352.8083493703782,295.70160931187064 352.3681367436107,296.8405206299956 352.05090573717155,297.6795498373633 351.7641289073846,298.3504154082921 351.6834586225831,298.60636362488685 351.77727579239524,298.83452032509325 352.58023427418254,299.6895670980552 352.83560003374015,299.6945595860242 353.10698335903976,299.1643573636349 354.1535752538083,299.49981095113424 353.18927620241794,301.546481394355 353.1195477871315,301.69326054066096 352.3703417591062,303.2758376230264 351.3027398109222,302.92623865292853 351.26529615112526,303.0448518462767 351.23559084767135,303.14099884376435 352.0617227943884,303.3159439430282 351.9679888327751,303.6422030318577 351.5560669712637,305.0267031540107 351.4573821256035,305.36735724982833 348.61515872443874,304.75128423434876 348.1178653186754,305.3405642310575 346.9802437266273,306.7125831332584 346.464311698987,307.3499158266613 346.28449892390455,307.57191512506097 346.3542689432904,307.8372658606452 347.10285091029743,308.23574960877517 347.4333536139272,308.1876553080112 348.1326347622626,307.3458802322399 348.7893965546924,306.55519495002574 349.9154106121076,307.17992161129655 349.78140391418356,307.34192784592864 348.1324267418838,309.32727389523507 347.7373129231757,309.80676076066635 345.6787853210212,312.30986941650946 345.44201657900476,312.17590432265524 M325.5894713754774,169.84236052820785 325.40100495457415,169.4576477260772 325.36239638093946,169.38380050817054 324.77024570358793,168.0336237408413 323.5905624004913,165.3051042531363 323.4561396618095,164.99640208033793 323.40380174636357,164.90166962113673 322.99920220043754,163.9170261813008 322.5992623099808,162.98717529691416 322.5394356624335,162.8488417760797 322.6037139450712,162.81381115215706 322.8631569031792,163.41478189152008 323.17056934995975,164.12171818805888 323.4419942792406,164.73500373106495 323.6821745546897,165.17209605282966 323.9989063122906,165.95367004448414 324.40849834612646,166.91988288291057 324.75206472656805,167.68901725871245 325.04803605511347,168.39824177888644 325.6227962326245,169.71130771900712 325.7915007219124,170.07696585871 325.8500792474231,170.24937310994906 325.8966341977797,170.3782625076946 325.94551897581186,170.53411134049037 325.99024334721304,170.67885188755074 326.03059929160435,170.8265463233049 326.0714128807346,171.0068167430966 326.1006605394496,171.14248760366718 326.1273287460109,171.34197910213655 326.1507934394001,171.5267427610885 326.1651468423479,171.6879585184229 326.1736756759887,171.90895931923467 326.17263557433097,172.15230150369734 326.16210974545527,172.3706396442452 326.1259558117943,172.59193167348684 326.07682140940216,172.89622381523512 326.0206143156664,173.1299970644288 325.95225883447836,173.40841147688394 325.85278351175685,173.65183686948632 325.7327973842217,173.91127982762384 325.6269150351561,174.15366511856845 325.4877494330427,174.3979225924793 325.3232469544852,174.68885982892678 325.1169323890027,175.06670796009266 324.9614995969055,175.36218003977027 324.58752064391115,176.01386613609134 323.8040744692609,177.3932489580953 323.93109168404027,177.43984551246268 324.7313042975126,176.16014603361816 325.3369346923153,175.10631503134485 325.71856879357216,174.4018333747207 325.978719020779,173.89297403842392 326.0822715420509,173.629037841067 326.1729684068898,173.36892921784136 326.2325870340582,173.19369289011803 326.27885075595543,172.99133071106502 326.32815157462704,172.74561709482745 326.3620588888113,172.5295255738745 326.37591304280255,172.32208769871278 326.39059927830925,171.95975788433242 326.3840258358039,171.7883907347511 326.36596967096403,171.59193633314482 326.3537380754311,171.35454353019873 326.30818162263284,171.13071365287314 326.255760498988,170.88375191462853 326.1933127953058,170.66487292123168 326.1315723608407,170.40355778006884 326.0343852616953,170.13333936872516 325.8835705209679,169.8108246458576 325.6692263706829,169.30878837642615 325.24220223302547,168.32797251072145 324.86801525977046,167.41904847175837 324.4412823504542,166.41385262309805 324.0727951343262,165.5657121251707 323.7545240262293,164.84109410042072 323.78643434506046,164.82977779436555 324.30390572319686,166.01665860104492 324.6318705787723,166.7524681196405 324.92879880077663,167.4631903862111 325.29686997638345,168.30762812224634 325.53006076856957,168.82988396794332 325.6995141310557,169.2292830055215 325.8342697021781,169.54397616387675 325.93782222345,169.78228425630056 326.04033464318235,170.00058079277855 326.1209633237662,170.20860112485914 326.20071831920825,170.43372072823203 326.23025720626447,170.53344567543178 326.2592968447189,170.63054956643748 326.316377623833,170.90085118592086 326.3772027688203,171.1541783463215 326.4084058186709,171.35400267732015 326.43532364971037,171.5976776943121 326.4460574988467,171.7904709380666 326.4573738049018,172.03306424933092 326.4435196507923,172.23563444870368 326.421261475222,172.48550847160178 326.3958829946785,172.69144860036687 326.3412152514388,172.96383042316575 326.2914151839289,173.2096688516129 326.2070837413347,173.47531081568613 326.09371266028603,173.77153176856203 325.9384878885677,174.14201597998402 325.6116463428488,174.73811904355807 323.96853534383723,177.59806577703338 321.0741820473689,176.48744522410544 319.48919192924734,175.87033210696814 319.55721457775826,175.75949887403294 323.681134453032,177.3441561597139 323.88432871342303,176.9971366417402 324.9888750726839,175.10598219881555 325.03696937341834,175.02231642125037 325.12354743560746,174.85889564836137 325.4433994982998,174.2535564820181 325.54403973485904,174.0669206400999 325.55539764501367,174.04254065717384 325.70529709638157,173.7281803313479 325.7399116795465,173.59912451732293 325.80144409375094,173.4501403554919 325.8559870248107,173.26362932575373 325.89343068460767,173.15624923035062 325.91955803834946,173.04549920555516 325.94822324014564,172.90179876015253 325.9836699047077,172.73825317508354 326.00126842480876,172.57691260551002 326.01940779772923,172.40887378128076 326.02161281322475,172.3938131092341 326.04204040983956,172.22918581840793 326.0454103391728,172.04009533657512 326.0456183595516,171.83648503554463 326.03671508937083,171.65792038246926 326.02831106791007,171.4588033206286 325.99328044410566,171.23796893609625 325.9602052112003,171.0614844863659 325.9206813480878,170.8672351002551 325.8772467028226,170.69977873294474 325.8328551639803,170.53440256894982 325.75855030130526,170.30994863063552 325.6651907763502,170.1002225318386 325.5894713754774,169.84236052820785Z"/></svg>