<svg xmlns="http://www.w3.org/2000/svg" width="500" height="500" viewBox="0 0 500 500"><path d="M11.158272835358689,473.7268020809607 11.168559600014945,473.61579777233584 11.441875563831047,473.45264293964493 11.530198399574104,473.39737265913 11.583613689829646,473.36343476758725 12.221266621083778,472.96279901178735 12.865454177450497,472.5580738454739 12.893236873755447,472.5880488030981 13.026248113382167,472.5118255634557 12.992436698464385,472.4757375694687 19.283720773405758,468.4878877562381 19.317405711728558,468.52380711472506 19.432878860681825,468.4389413064308 19.399657669953847,468.402516041444 19.61487870890092,468.2667644752432 19.691776490513053,468.21874552062553 22.366883363189277,466.51434666398285 22.40389885236586,466.5557045168929 22.53509726051824,466.4733682408877 22.526159579741506,466.461563756852 22.49201089382389,466.42593951045984 23.505678799956762,465.7715495071569 23.53531648664099,465.80422263257003 23.5837570299485,465.85612020338624 23.74164200371627,465.75025927705957 23.702729365375294,465.70810040558484 23.669508174527493,465.67167514059804 24.032538216990936,465.4459987015248 24.065759407718915,465.4824239664816 24.194596918992257,465.40055143804125 24.16647695168747,465.3705343215421 25.050295533667317,464.79734230473974 25.079005725161906,464.82731726236386 25.337102336398477,464.65842882318503 25.307970556214006,464.6289597720007 25.689845614205662,464.377018355972 25.71855580570025,464.4065295660312 25.844189242714794,464.32431976662104 25.816406546409844,464.29388106140203 27.35512103810255,463.32431133484323 27.663007276645978,463.12844121789414 27.962208787482815,462.93813607196313 31.091914771649098,460.9479843843439 32.566168348740284,460.01193096063787 34.12655250043506,459.01263922967485 35.28474101801563,458.28168871575957 35.368932284430066,458.22861069656375 37.00423275064289,457.1821431883928 37.05621463920904,457.1490063154148 37.07425863626242,457.13753910234897 38.64244217913944,456.1397650907653 39.96311098741121,455.301267295674 41.90119646874427,454.0695537061801 43.00099494936091,453.37018018701843 46.58614322203755,451.0931373788881 48.58561202030831,449.82015025423414 48.77604364280438,450.060793092697 48.83578276376766,450.1356250895849 49.14973987970903,450.5455357971014 50.67622829867615,452.5001897149235 52.96478047874723,455.45236469110927 53.58763564611172,456.253931314774 53.83510822181202,456.5720200001638 54.641185844680145,457.61157345340723 55.516446175788026,458.7289943422676 56.01682982149184,459.38072833665655 56.525898194782414,460.0297641632864 57.89745276093078,461.80486344742854 58.04817072649123,461.9957588175194 58.542989401177024,462.6224082833924 58.73021694953412,462.49407667855894 58.904586042070896,462.38277725780927 60.34351048486486,461.461268644773 62.207312034654784,460.28971576490227 62.35647012193085,460.436934544139 62.370298231845744,460.4521538967485 56.296258821730646,464.31449674955957 50.75363198666822,467.8324016222755 42.68130422678178,472.96279901178735 40.961896811964394,474.05555696085156 32.53750031615063,479.42891592677046 31.173787299969614,480.29595527788643 29.878455973433706,481.11577669288954 28.25711009361094,482.15288493159386 27.962208787482815,482.3406605452059 26.83766304943993,483.05727704282634 25.257169116027463,484.0528166342158 23.57089857412818,485.12799433385135 20.35206873586383,487.17388004958036 19.68161620245178,487.6018769129654 19.666059578872414,487.6113626590569 15.878084975474199,490.0277405374318 14.425585375955306,490.94975505696783 9.301174546181269,494.2074975337229 1.4766987916602676,499.1731802123195 0.17938599815009731,500 0.16547357054515505,499.98478064739055 0,499.79084983854074 4.20686515068628,497.1288543748449 6.121215187352957,495.91632307187905 7.879619558321193,494.7980590055491 8.263349606572307,494.5495324581241 8.286916415738768,494.5707383704714 8.885909661961714,494.20256494573977 8.988144925309713,494.1396639094825 9.254926264133053,493.9494852401764 9.382541168121856,492.4130473275529 9.638445518099136,489.69586590106195 9.842115026200478,487.5934451386584 9.87348122654918,487.2657863894271 10.044814880446893,485.4868084891164 10.235921044822819,483.36727122487906 10.477870808410042,480.92488132276867 10.618597121409133,479.4682501538912 11.152412752245775,473.79063061240754 11.158272835358689,473.7268020809607 M127.01822949601157,472.96279901178735 115.4118078567052,491.1741245710366 98.22700865934927,482.84871710555683 97.34247337670446,482.4202143357021 96.40844357872787,482.4389328746353 96.39039958179431,482.43927014563513 96.4010236174504,482.2872874138852 96.37496943480993,482.31502795134514 96.33209386252044,482.3455088154091 96.26860260201349,482.36996096089024 96.20123272536789,482.3848430425299 96.13217649384293,482.389986424858 96.06261435593805,482.3850959957498 95.99524447929245,482.3704247084851 95.93204833100023,482.3461833573789 95.87488090120102,482.3131729609958 95.86012529621631,482.3014527947101 95.84035278537863,482.31751532475926 95.80721591246052,482.3369505645072 95.7698631522841,482.35136889855204 95.73027597194346,482.36022226157877 95.68976129641317,482.3632998591827 95.64907798538296,482.3603487381738 95.60953296406707,482.3517061695219 95.57264395148547,482.3372878354771 95.5388746953528,482.3179790723541 95.51897570803997,482.30204301892985 95.46745756706864,482.33589659272263 95.40624288563086,482.36338417693264 95.33988482198477,482.381807603771 95.27129233805464,482.3905766490478 95.20130861134004,482.3891854062933 95.13301123962462,482.3775917166325 95.06804441852336,482.35676523410007 95.00838961548978,482.3267481176009 94.97010936012371,482.2991340567959 94.9480602703367,482.31700941828944 94.90978001497064,482.3395222556713 94.86753682577587,482.35592205669036 94.82187876791747,482.36587155034675 94.77537753267929,482.3694128955455 94.72874982072629,482.3659558680967 94.6830917629877,482.3562593276602 94.64067993817321,482.3399860032661 94.6116324757986,482.3229116603073 94.56234875511132,482.35448865506083 94.49885749460438,482.3820183981459 94.43115034695894,482.3999359185144 94.3601969662696,482.4076931508816 94.28877983798543,482.4055430484374 94.21909122324591,482.3930640224619 94.15315474840953,482.37080413832996 94.09274108544659,482.3392693024514 94.06546429564139,482.31890656751375 94.04341520585437,482.3372035177272 94.0093508376268,482.35697602847495 93.97153432997538,482.3714786802697 93.93148340203992,482.3802477255465 93.89004123132,482.3833253231504 93.84809315422014,482.3804163610165 93.80791574968968,482.3717316334896 93.77005708301351,482.35731329944485 93.73599271490576,482.337625106447 93.72254403489565,482.3262843700361 93.70226561779785,482.34302144199506 93.64480307590374,482.3765377448479 93.58089022670691,482.4013271612689 93.51225558399166,482.4163357195335 93.4417237919922,482.4217320550815 93.37157142977769,482.4165465138784 93.30293678706244,482.4018330677387 93.23881314346076,482.37721228678765 93.18067605968679,482.3438646194347 93.16406546420298,482.3302894628296 93.16031332465931,482.33437887334316 93.13455425423356,482.3561328510353 93.10470577314447,482.3732071939941 93.07110515263155,482.3862342852844 93.03560738283441,482.3943287886214 92.99918211796745,482.3970269563805 92.96229310538585,482.39445526521644 92.92679533558871,482.3864872385043 92.89353198595579,482.37358662383895 92.86359918717666,482.3566387575051 92.83720773365617,482.33492693868794 92.83590080856176,482.3334092193085 92.80828674775674,482.3566387575051 92.74985455188786,482.3905766490478 92.6853093195963,482.4154082243438 92.61667467688106,482.43075405357826 92.54622720257164,482.43577095928146 92.47523166297735,482.43100700679815 92.40651270245223,482.41587197193866 92.34196747016067,482.3912511909876 92.28374606869666,482.3575240937898 92.26536480064344,482.34268417102516 92.26114891350495,482.34770107672836 92.23492609548438,482.3694128955455 92.20503545561019,482.3866137151292 92.17194074147719,482.3994721709196 92.13644297168005,482.40756667425666 92.09959611800339,482.41026484204565 92.06266494651685,482.4076931508816 92.02716717671971,482.3996829652945 91.9940303038016,482.3869509860991 91.9639710284275,482.3698344842653 91.93770605150198,482.34820698319817 91.93488140702813,482.3447921145944 91.89811887116133,482.37181595123957 91.8378316849132,482.40238113305355 91.77189520983717,482.4237135220258 91.70233307193227,482.4356866415315 91.63184343883775,482.4372886786609 91.56177539443311,482.428646110009 91.49448983547755,482.4101383654207 91.43213686456511,482.38214487474085 91.37315660341137,482.34268417102516 91.3459641311764,482.3655342793769 91.31324884694818,482.38425281831013 91.27783539496092,482.3979544515701 91.23917570969009,482.4063862258471 91.19992580034928,482.409421664606 91.16033862000862,482.406512702472 91.12205836476238,482.39816524591504 91.08613900627536,482.38463224815496 91.05376099292715,482.3659558680967 91.03483165958906,482.3505257211423 91.00810293506873,482.37219538108445 90.94920699160505,482.406512702472 90.88386074083866,482.4320188197378 90.81383485521913,482.44736464894225 90.7419118204352,482.4527609844903 90.66998878565128,482.44761760216215 90.60046880665132,482.43252472617763 90.53486960257514,482.40722940328675 90.47538343492165,482.37299639964914 90.4680056324293,482.3670519987563 90.46471724048045,482.3711414092998 90.44034941271933,482.3913776676125 90.41222944541454,482.40731372103676 90.38145346925565,482.4195819526373 90.34831659621771,482.42687543740965 90.31425222810996,482.42919417532386 90.28006138328742,482.4270019140046 90.24688235146438,482.4198770647322 90.21597989859067,482.4076931508816 90.18785993140571,482.39175709745734 90.1633656270496,482.3717316334896 90.14759820906538,482.35276014130653 90.12099596114004,482.3748092311235 90.06336478386584,482.40836769282134 90.00037942985864,482.4327355205525 89.93258796452317,482.4477019199121 89.86302582649846,482.4527609844903 89.79295778209381,482.44799703200704 89.72516631675833,482.4331992681174 89.66205448603634,482.40895791701115 89.60433899107208,482.3756945674082 89.58675874161351,482.36119191561346 89.56740781958554,482.3775917166325 89.53334345147779,482.3970269563805 89.49611716789636,482.4115717670502 89.45610839886582,482.42076240104683 89.41496134024081,482.4234605688059 89.3735191696407,482.42088887764186 89.33393198930005,482.4117825613951 89.29611548152882,482.3974907039753 89.26234622551597,482.3781819408223 89.24624153653191,482.3648175785621 89.20665435631109,482.3952562837811 89.14818000153728,482.4270019140046 89.08414067562565,482.44985202235637 89.01596978050523,482.4633428612415 88.94640764248051,482.4664626177203 88.87684550457563,482.4596750394178 88.80998153442978,482.4430222851788 88.74720697470762,482.4173896913181 88.69138862890776,482.3828194166806 88.64336967429014,482.3407870218308 88.60492078342416,482.2925572728383 88.57722240492907,482.2397322068624 88.56090692165999,482.1834922722828 88.55702830552134,482.1261562070436 88.56524928539346,482.0687779829593 88.56524928539346,482.0680612821446 88.54265213032157,482.0631708530364 88.50572095883504,482.0490897899615 88.4719938616073,482.02978102683846 88.44345230561264,482.006214217672 88.41980117875613,481.978600156837 88.40268467689239,481.94816145161803 88.3920606412363,481.9159520737997 88.38877224928744,481.8824357709768 88.39176552926122,481.84896162699897 88.39918549053868,481.82657526624206 88.33514616474687,481.80726650308907 88.274100118809,481.77809256402963 88.22013676338842,481.7406133272582 88.17494245312483,481.69575628799447 88.13965547773255,481.6452921188377 88.11562492097126,481.5906120625125 88.10344100715061,481.5332338383983 88.10335668934074,481.4748016424995 88.11204141692751,481.43437128474915 88.10702451119437,481.43403401377924 88.06967175101795,481.4246325854376 88.03451125222064,481.409919139298 88.00360879934694,481.39048389952 87.97675359823162,481.3670435669785 87.95558984472932,481.34010404811323 87.9402440155548,481.310466361429 87.9319387178728,481.2788893667054 87.92945134439879,481.24701725985693 87.93451040903686,481.2150186763836 87.94235195912404,481.19406571725614 87.89665174236069,481.18432701794467 87.83252809887884,481.15979055474355 87.77392726751005,481.1260634575458 87.72358957491832,481.08470560460574 87.68294842279306,481.0368131265831 87.65238324091919,480.98365078963735 87.63374901979583,480.92707358408785 87.62767814227806,480.868557070469 87.6335382255108,480.8100827156953 87.64032580369353,480.78984645738257 87.61549422845741,480.7841971686146 87.58315837401415,480.7716759837941 87.5536471639249,480.75506538840017 87.52776161678433,480.7338594760528 87.50735672309156,480.7099553959165 87.49217952929715,480.68293155930127 87.48231435333078,480.6540948911817 87.47953186788168,480.62479447549737 87.48130254045108,480.59941483485653 87.48488604461467,480.5723488393663 87.48901761394328,480.54848691810497 87.47249133638917,480.5473064696954 87.41254142114086,480.5340685840602 87.35625932762635,480.512525400713 87.30550004634475,480.48335146165357 87.26157050227063,480.44730562651165 87.22548250828368,480.4055683437567 87.19963912004806,480.35919358511353 87.18332363677897,480.30978338771143 87.17775866576096,480.2589819475848 87.18311284249394,480.2075481243634 87.20136763383235,480.15708395517674 87.17974013273522,480.1532474978831 87.14609735319753,480.1457010598908 87.11426740525401,480.13368578151017 87.0856836903544,480.11728598049115 87.06072563852331,480.0969232455535 87.04082665121047,480.0733564363871 87.02594456951095,480.04713361833655 87.01671177663933,480.0193509220316 87.01249588950083,479.9927908329812 87.01662745882945,479.9620148567924 87.02712501789055,479.92592686280545 86.9310871086553,479.8784981323776 86.8730343425714,479.84527694161966 86.8231603975745,479.80387692983464 86.7823506099493,479.7563217227819 86.75229133469502,479.7036652923059 86.73382574895174,479.6469616101315 86.72758623593407,479.58920395620237 86.73344631904698,479.5311511901484 86.73896913127987,479.5147513891294 86.71177665916473,479.5091021003614 86.67484548779802,479.49472592519163 86.64111839057028,479.47541716203864 86.61207092807585,479.45151308190225 86.58846196000447,479.4241098154422 86.57134545826054,479.3934181569733 86.56067926369951,479.3607871904651 86.55789677825042,479.3360399328891 86.55696928306078,479.32727088761226 86.56059494600946,479.29341731381953 86.5654853750278,479.2691759627133 86.52547660599727,479.26049123518646 86.46270204639494,479.2408030421886 86.40456496262098,479.20749753371064 86.35422727002926,479.16609752189567 86.313459641309,479.118331520498 86.2834003659349,479.0655486133971 86.26485046238174,479.0089714078476 86.25869526717393,478.95075000632363 86.26455535040667,478.8926972402697 86.26687408826095,478.8705638327627 86.23221949596339,478.86268012377053 86.19950421161535,478.8501589389501 86.17037243143088,478.8335483435861 86.14452904331507,478.8125953844587 86.12420846719253,478.7883118744775 86.10890479680313,478.76137235558224 86.09916609743175,478.7329572762125 86.09634145307771,478.7031931129333 86.0990817797417,478.673597585154 86.10772434842353,478.6359918717876 86.0703715882471,478.62545215391145 86.00666953345512,478.6007470552104 85.94903835618092,478.5674415467325 85.89916441118402,478.5264631236373 85.8584389413687,478.4790343932095 85.82880125468448,478.4265887570785 85.81025135113134,478.3708125700937 85.80405399701858,478.3129705984146 85.80991408025132,478.25491783236066 85.8177556303385,478.23581986358255 85.8016087824495,478.2301705747846 85.7702425821008,478.2233829964821 85.74068921322645,478.21204226007114 85.71400264749123,478.1964434776168 85.69081526822954,478.1775141443087 85.67197025270133,478.15546505452164 85.65801566619145,478.13126586229043 85.64971036850946,478.10533815630487 85.64680140646539,478.0783986374396 85.64958389191447,478.0518385483892 85.65780487190642,478.02561573030874 85.66096678726029,478.0050000421512 85.6226443729893,477.99256317508065 85.55852072950744,477.96836398284944 85.50084739332829,477.93497415662154 85.45101560723633,477.89399573352637 85.41079604380094,477.84652484422355 85.38073676842683,477.7942056847175 85.36210254718364,477.7380079090129 85.35603166966587,477.6802502550538 85.36184959399367,477.62240828337474 85.36821558360634,477.6034367912216 85.34747341879391,477.60191907184213 85.31336689178123,477.5944147926949 85.28103103733795,477.5818936078744 85.25151982736854,477.56524085363543 85.22660393420273,477.544414371133 85.20573529279531,477.52051029099664 85.1909796878106,477.49390804307126 85.18166257724891,477.4653664870766 85.17837418530007,477.4360660713922 85.18153610065394,477.4069342911778 85.19064241693059,477.378687847278 85.19755647182812,477.3589153365602 85.16349210360056,477.3480383477141 85.10021163749846,477.3237548377329 85.04253830131933,477.29078660022486 84.99262219741749,477.24989249487965 84.95248695179197,477.2028010354217 84.92284926522757,477.15035539929073 84.9046787915792,477.09449489455596 84.89810200756168,477.03673724062685 84.90446799717434,476.97935901651266 84.9094849029075,476.9638023929333 84.87023499344686,476.9554549363763 84.83566471895918,476.94225920961605 84.80429851849065,476.9244260069675 84.77702172868545,476.90208180508563 84.7549304799935,476.87632273459997 84.73861499672442,476.84735958988546 84.72887629747285,476.81704736129143 84.7251663167143,476.78542820766285 84.72879197966299,476.75393553065925 84.73840420243938,476.7234968254403 84.70838708585039,476.7170465181076 84.6442212834636,476.69246789603153 84.58659010618939,476.6591623875536 84.53625241359767,476.61784669348856 84.4954847848774,476.5702914864358 84.46538335059836,476.51763505595983 84.44687560595015,476.4609313737854 84.44072041074234,476.4031737198563 84.44658049397508,476.34512095380234 84.45294648346793,476.3260229850243 84.40728842572933,476.31666371555764 84.3773556269502,476.3049435492719 84.35016315483506,476.2893447668176 84.32663850457354,476.27003600369454 84.30766701233051,476.2480290727525 84.29371242594046,476.22332397408144 84.28494338066365,476.1967217261561 84.28216089509472,476.1697822072609 84.28481690394884,476.14242109967574 84.28789450161266,476.09908177979145 84.25661261895401,476.086560594941 84.19333215285191,476.0623192438348 84.13565881667277,476.0293931652017 84.08620646036574,475.98841474210656 84.04560746714542,475.9413232826486 84.01596978058102,475.88896196426754 83.99779930693265,475.8331436184078 83.99168627050994,475.77572323544854 83.9975885125278,475.7180077403645 83.99838953112244,475.69515763201275 83.95096080069463,475.6837747367269 83.91913085275111,475.67175945834623 83.8908422499464,475.65544397507716 83.86601067459047,475.6353341933894 83.84611168727763,475.61176738422296 83.83122960557812,475.58554456614246 83.82199681270647,475.5582677762774 83.81921432725738,475.52930463156287 83.82187033623131,475.5008895521931 83.82865791453386,475.46096510088256 83.80011635841937,475.4492449346268 83.7304277439195,475.42230541573156 83.67317599643025,475.38891558950365 83.62330205143334,475.3484430728783 83.58312464690289,475.30097218357554 83.55302321262384,475.2485265474445 83.5348527390953,475.1927925193347 83.5287397026726,475.13537213637545 83.53464194469045,475.0775301646664 83.53826760763913,475.0558605047243 83.48944763442685,475.04262261908906 83.4575755275784,475.0305651818334 83.428401588489,475.0139545864695 83.40390728413288,474.9934653749369 83.38367102582022,474.9698985657704 83.36878894424052,474.9436757476899 83.35955615136889,474.91593521025993 83.35673150701486,474.88709854214045 83.35947183367884,474.8582197151759 83.37077041121478,474.8239867115382 83.3403317059359,474.8103272371532 83.27629238026391,474.78570645620215 83.21811313758501,474.7523166300042 83.16773328608835,474.7110009359392 83.12713429286802,474.6631927756665 83.09699069980387,474.61036770969065 83.07852511394077,474.554169933986 83.0722856010429,474.49607500905705 83.07814568415583,474.43789576640813 83.08223509469933,474.42503731061777 83.0508267354457,474.41820757341026 83.0158348721483,474.404969687775 82.9844686717996,474.3868413730316 82.95719188187459,474.36432853564975 82.93501631549259,474.33823219419423 82.91891162662836,474.3097749559495 82.90858270306715,474.2789989797607 82.90529431111831,474.2474641438821 82.90845622635236,474.21588714912855 82.91203973051593,474.1816541454909 82.88577475359043,474.1657180920667 82.82262076408331,474.1419404885553 82.76579060528394,474.1089300921722 82.71642256678679,474.0687526876418 82.67658243325617,474.02170338705884 82.64694474657195,473.9700587694626 82.6289429084235,473.9145355357276 82.62270339552563,473.85762105920827 82.63088221649282,473.7884383510883 82.59622762419528,473.7786153340269 82.56174166727783,473.76533528951666 82.52982740164425,473.74716481589826 82.50255061171924,473.7246941373914 82.48041720424217,473.6985977959359 82.46427035647301,473.67009839881615 82.45394143291182,473.63932242262734 82.45065304096296,473.60782974562375 82.45103247074792,473.57465071374077 82.4505687231531,473.5413452052628 82.42561067120218,473.5279386841277 82.36334201797978,473.5041610806163 82.30697560689504,473.47199386167296 82.25802915708778,473.4317321393925 82.21882140653207,473.3854416984993 82.18960530865755,473.33413435190283 82.17151915281906,473.27945429557764 82.16540611639635,473.22287709002813 82.17126619950928,473.16655283772855 82.17164562929422,473.1521766625288 82.13707535480654,473.13973979545824 82.10014418332,473.12570089122835 82.06692299259203,473.10668724020024 82.03821280109744,473.0832047487837 82.0151097395258,473.05588580004365 81.99807755547192,473.0255735714496 81.9874113609109,472.9936171468512 81.98391217455719,472.96279901178735 81.98361706258211,472.96022732065325 81.98720056662586,472.9270904476453 81.9903203230748,472.9035657973538 81.96641624302832,472.89488106982697 81.9036838422111,472.87097698969063 81.84689584231666,472.8380509110575 81.79744348600964,472.7978313476521 81.75772982907401,472.751161476914 81.72859804888954,472.6995590181927 81.7104697341461,472.64437305542765 81.70431453893829,472.5874585789083 81.7101746220512,472.5307970556388 81.71004814545623,472.51254226427045 81.67412878696919,472.505375256123 81.64369008169031,472.49858767782047 81.61557011438553,472.4880479599443 81.5897267261499,472.4732080371797 81.5675511597679,472.45503756356123 81.54950716283435,472.43383165118394 81.53605848282422,472.4101805242975 81.52821693261723,472.3855597433464 81.52539228826319,472.3597163551108 81.52809045614207,472.33378864915517 81.53584768841937,472.3091257093291 81.54368923850654,472.28168028399404 81.50899248730406,472.26587070716477 81.44482668479743,472.24167151493356 81.38723766642816,472.20828168870565 81.33732156252633,472.16730326564044 81.29705984030583,472.1198323763376 81.26704272383665,472.0675132168016 81.24845066137858,472.011315441097 81.24237978398064,471.95347346941793 81.24823986709355,471.8957158154888 81.24857713809338,471.86915572643846 81.23470686939338,471.86645755867943 81.20199158504533,471.85929055050207 81.17104697338651,471.84757038424624 81.14343291258149,471.83163433082206 81.1194023558202,471.81198829669916 81.09992495719725,471.78913818834747 81.08554878199749,471.76409581867654 81.07673757793556,471.73715629981126 81.07395509236665,471.70937360347637 81.0766532601257,471.68163306604634 81.08533798771246,471.6546935471811 81.08575957640234,471.6409919139211 81.05161089048472,471.6292717476653 80.98706565819316,471.6042293779944 80.92884425660932,471.5709660283914 80.8780428165426,471.5296081754514 80.83740166441734,471.4813784264589 80.8073002301383,471.42821608951317 80.7887924856099,471.37168104283865 80.78213138390234,471.3134596413147 80.78841305582496,471.2549009688209 80.7930083727484,471.2401453638062 80.75565561257199,471.23179790724924 80.72159124446424,471.2186021804591 80.69022504411554,471.2007689778105 80.6633698428804,471.1788042057735 80.64161586518829,471.15300297641284 80.62542685851417,471.124883009138 80.61526657057273,471.094486462794 80.61197817850405,471.06328889788534 80.61514009385792,471.0321334918516 80.6204942705909,470.99490720833006 80.59237430328612,470.98238602347965 80.5291781549939,470.95860841996824 80.47234799619451,470.9255980235852 80.42293779879243,470.88542061905474 80.3832241418568,470.8383291595968 80.35358645517258,470.7867267009055 80.33545814042915,470.73120346714063 80.32938726291138,470.6742889906212 80.33524734614411,470.61724803750684 80.33790335499823,470.6012276663327 80.2981896980626,470.58997124764176 80.26463123633478,470.5770706329764 80.2341925310559,470.55961686017275 80.20733733006041,470.53798935910555 80.1860470998433,470.51290483055965 80.17036399966894,470.48524861087964 80.16062530041738,470.4556530830704 80.15725259065866,470.4251722190064 80.16041450601253,470.39439624281755 80.16918355128934,470.36851069570696 80.13406521127715,470.3606269867448 80.06951997910541,470.3360905235437 80.01180448402133,470.3027006973158 79.96142463252467,470.26172227422063 79.92078348051922,470.21391411394796 79.89068204612035,470.1610890479721 79.87208998390192,470.1045540012976 79.86601910638416,470.0463325997736 79.87187918949706,469.9886171046896 79.87782359041985,469.97036231335113 79.8459514835714,469.96323746404875 79.80910462989473,469.94915640097383 79.77533537376206,469.92946820800597 79.7463300702924,469.9056062867446 79.72229951353111,469.87782359040966 79.70509869385751,469.84746920294066 79.6944324994163,469.8148382364025 79.6906382009677,469.78098466260974 79.69430602282131,469.747131088787 79.70294859138332,469.7198121400769 79.6687577466806,469.71222354320963 79.60425467329397,469.68760276225856 79.54603327182996,469.65387566506075 79.49531614933346,469.61255997099573 79.45459067951813,469.56445669862813 79.42402549764427,469.5112943616824 79.40547559421096,469.454590679508 79.39932039900314,469.3961584836391 79.40518048211605,469.3375998111453 79.40926989265957,469.3250786262949 79.38393241080387,469.31980876737174 79.34885622981643,469.3061071341417 79.3174478705628,469.2879366605233 79.29029755735259,469.26592972958133 79.26803767316072,469.2397069115308 79.25189082539154,469.2112075144111 79.24215212602016,469.1806001736922 79.23827350988151,469.14893886121865 79.24194133173513,469.11744618421505 79.24603074227863,469.0908860951647 79.22625823144095,469.08211704988787 79.16205027014922,469.0574962689368 79.10399750418513,469.0241064427089 79.0536176528083,468.98279074867384 79.0128078651831,468.9349825884011 78.98274858980899,468.88215752242525 78.96428300406573,468.8256224757507 78.95804349104804,468.7675275508218 78.96390357416095,468.7093061492979 78.96436732175577,468.6910513579295 78.9311461310278,468.68051164005334 78.89796709920476,468.667653184263 78.8678656649257,468.65053668242916 78.84210659449995,468.6293307700818 78.82077420549773,468.6046256713808 78.8055970117033,468.5773488815157 78.79573183585676,468.5484278956762 78.79290719150272,468.51841077917703 78.79564751804689,468.48843582155286 78.80015851740009,468.46259243331724 78.76971981212121,468.454961677575 78.70559616851953,468.43084680309374 78.64745908486539,468.39745697686584 78.59758513986849,468.3561412828008 78.5569439876234,468.30867039352796 78.52688471236911,468.2558874863971 78.50825049112592,468.19931028087757 78.50217961360815,468.1415526269185 78.50799753793596,468.0833733842696 78.51305660245421,468.0678167606902 78.48763480290847,468.06254690173716 78.45306452830097,468.0488031096321 78.42123458035745,468.03105422473357 78.39395779055226,468.00866786397665 78.37211949505027,467.9825293636461 78.35550889968628,467.95398780765146 78.34585451812477,467.92363342018245 78.34256612617591,467.89214074317886 78.34555940602986,467.86052158955033 78.34745655531408,467.8324016222755 78.31921011141431,467.8229580350589 78.25559237419256,467.7983372541078 78.19791903813324,467.76545333434973 78.1480029342314,467.7244327523796 78.10786768860588,467.6770461808268 78.07772409554173,467.62455838582076 78.05959578067846,467.5688243577109 78.0535249031607,467.5109823860319 78.0593428274885,467.45322473207284 78.06204099524756,467.43648766011387 78.03349943925288,467.4266646430524 77.99884484683551,467.41338459851227 77.96743648770169,467.39525628376884 77.94074992196649,467.37324935285676 77.9184900377746,467.3474481235261 77.90230103122033,467.3189065675015 77.8924780141589,467.28855218003247 77.88876803340034,467.2573967739987 77.89235153756391,467.22581977924517 77.89597720051259,467.19664584018574 77.8549987773875,467.18597964571455 77.7908329750007,467.1614010236085 77.7326537323218,467.12801119741056 77.68273762841996,467.0871592509104 77.64209647629468,467.0392667729177 77.61199504213546,466.9865260246619 77.59348729760708,466.93032824898717 77.58728994337451,466.8721490063083 77.59315002648742,466.8140540814093 77.60002192259985,466.79343839325173 77.59036754103833,466.7912039730576 77.55019013650788,466.77611109707306 77.5137648715211,466.7552846145406 77.48235651226746,466.729356908585 77.45693471284154,466.6993819509608 77.43846912697846,466.66675098442266 77.42674896075263,466.63150616784543 77.42299682120895,466.59495442626366 77.42666464306258,466.5588664322767 77.42666464306258,466.5478629668057 77.39428662971437,466.53685950133473 77.33012082732758,466.51228087925864 77.2715621547439,466.4788910530607 77.221224462272,466.43753320012064 77.18058331014674,466.3893877688781 77.15052403477263,466.33660486177723 77.13184765462451,466.28002765622773 77.12531302963174,466.2214689837339 77.13163686033947,466.16291031121017 77.13526252328816,466.14769095860066 77.09740385673182,466.1417043988628 77.06978979592678,466.13575999797 77.04394640769115,466.12593698090853 77.0203795985247,466.11219318880353 77.00001686349721,466.09545611684456 76.98336410934812,466.07614735369157 76.97143314871744,466.0549414413442 76.96392886951027,466.0320913329925 76.96156797275106,466.00856668270103 76.96384455182022,465.9850420324095 76.97122235431257,465.96219192405783 76.98446023991785,465.9268206308557 76.94752906855113,465.9139621750653 76.88382701375916,465.8893835529892 76.82577424767524,465.85633099773116 76.7758581437734,465.81501530366614 76.73559642155291,465.7675865732383 76.70545282836892,465.7152252548573 76.68698724274549,465.65902747915266 76.6807477297278,465.6013119840985 76.6866078128407,465.54304842366963 76.69162471857385,465.5274918000903 76.66308316257918,465.5210836516326 76.62758539278204,465.5074663361525 76.59571328593358,465.48921154478415 76.56750900093876,465.4661084832125 76.54491184574705,465.439927824007 76.52872283907294,465.4102901373527 76.51797232682186,465.379134731319 76.51468393487302,465.3469253535007 76.5178458503467,465.31496892890226 76.52197741967532,465.28482533580814 76.4863531732832,465.27356891711725 76.42185009989657,465.24903245391613 76.36367085721767,465.2156426276882 76.31329100584084,465.1739475037783 76.27218610612074,465.12601286688067 76.2420846718417,465.07289268880993 76.22357692731332,465.0163154832604 76.21737957320057,464.95822055836146 76.22323965631348,464.89966188586766 76.22686531926217,464.8878574018319 76.22509464669277,464.8878574018319 76.18951255908574,464.87988937511983 76.15637568604782,464.86711523704946 76.12589482198382,464.84970362315073 76.09954552736826,464.8283712341485 76.07871904474597,464.80332886450753 76.06303594457161,464.7760099157675 76.05329724532005,464.74637222911315 76.04988237677621,464.71639727148903 76.05308645103501,464.6859585662701 76.05953675821792,464.6514304505076 76.03913186452515,464.63890926568706 75.97458663223358,464.614288484736 75.91640738955468,464.58056138753824 75.86606969696295,464.5392456934732 75.82492263845775,464.49135321545054 75.79486336308364,464.43814871962985 75.77622914196027,464.3816136729553 75.77015826432269,464.3230550004615 75.77601834755542,464.2649600755625 75.78145684197845,464.24822300357357 75.74684440846602,464.24067656558134 75.71181038626369,464.2270170911963 75.68040202701006,464.2088887764828 75.65270364839516,464.18650241569594 75.63052808201316,464.1602374387705 75.61438123412417,464.1314429295259 75.60409446958774,464.10066695333705 75.60080607763888,464.06913211748844 75.60396799299275,464.03717569289 75.60995455270064,464.00909788446023 75.57340281111888,463.993119672161 75.50932132642214,463.9685832089599 75.45114208374324,463.935193382732 75.40080439127134,463.89387768869693 75.36016323914606,463.8464067993941 75.33001964596208,463.79324446244834 75.31184917243354,463.7370466867437 75.30531454732095,463.6789517618148 75.31163837802869,463.62073036029085 75.31576994747712,463.6074081569057 75.27555038404174,463.5919358510763 75.23541513841623,463.5688749483497 75.20088702271366,463.5404177101049 75.1726405788139,463.5074073137219 75.15181409619159,463.4708555721401 75.13929291137111,463.43173213939434 75.1346132766378,463.39189200583377 75.1381124629915,463.35770116107113 75.10957090699684,463.3512930125835 75.0459531698949,463.32700950260227 74.98819551602571,463.29366183524934 74.93827941212388,463.253147159749 74.89814416649837,463.20571842932117 74.86850647981413,463.1532727931902 74.84991441747589,463.0974122884854 74.84380138105318,463.0396546345263 74.84953498757112,462.98227641044207 74.85189588445014,462.9640216190737 74.81361562908408,462.94888658421416 74.78174352235546,462.93687130583356 74.75315980733603,462.9204293459395 74.72820175550493,462.90002445215686 74.70830276819208,462.8765419607404 74.69342068649257,462.8502769837849 74.68418789362094,462.82253644635495 74.68089950167209,462.7937419371104 74.68406141702596,462.7651160633658 74.68583208959537,462.7252337709602 74.59670823525765,462.68670056240416 74.53954080557827,462.65364800714616 74.49013060817617,462.612669584051 74.44986888583585,462.56557812459306 74.42023119927146,462.51359623605686 74.40218720221807,462.45777789019706 74.39552610051051,462.40035750723786 74.3990252868642,462.328265836984 74.34969940715217,462.3168407828231 74.31601446894919,462.30398232700276 74.28557576367031,462.2865285541991 74.25922646893493,462.2650275297569 74.23755680905269,462.239943001211 74.22174723228335,462.212160304906 74.21247228050679,462.18256477709673 74.20872014096311,462.1522103896277 74.2123458039118,462.1213922545639 74.22010303630893,462.0818050742532 74.18085312696812,462.0689466184329 74.12094537050493,462.04588571573623 74.06689769727447,462.01485678632747 74.02031214422641,461.97653437211636 73.98236915986018,461.9321832393224 73.95416487486536,461.88311031292017 73.93692189640663,461.83079115338415 73.93127260769857,461.77640620915383 73.9367111021216,461.7224006947684 73.93843961578607,461.69466015733843 73.9116265735757,461.6878725790359 73.88165161589163,461.68142227170324 73.8540375550866,461.67041880623225 73.82861575554087,461.65600047218743 73.80694609565862,461.6382515872889 73.78940800510499,461.61738294588145 73.77638091378475,461.5945328375597 73.76807561610275,461.57029148645347 73.76571471934355,461.5447853691877 73.76794913950778,461.5197008406418 73.77617011949972,461.49503790081576 73.778362380759,461.46759247548067 73.69349657246472,461.4347085557226 73.6358653950707,461.4017824770895 73.58594929128867,461.3608040539944 73.54568756906818,461.31337532356656 73.5155439758842,461.26088752856054 73.49758429664068,461.2046897528559 73.49083887724306,461.1469742578018 73.49716270795079,461.0895538748126 73.49952360471,461.08196527794536 73.4681574043613,461.07517769964284 73.43409303625356,461.0618976551326 73.4026846768801,461.044148770234 73.37582947576479,461.022099680447 73.35407549807267,460.99672003980623 73.33788649139856,460.9682628015316 73.32823210995687,460.9382456850324 73.32481724129322,460.9070902789987 73.32793699774216,460.875850555245 73.33067732440614,460.8424607290171 73.30116611431689,460.8272413764076 73.2356933869555,460.80232548336164 73.17654449018204,460.76859838616383 73.12574305011532,460.7269032622539 73.08413224389547,460.6782519245416 73.05403080973625,460.62441504565606 73.03497499980318,460.56703682157183 73.02890412228541,460.5081408780782 73.03598681268286,460.43318240456534 73.01250432132628,460.4210828084647 72.97650064502938,460.4040084655059 72.94235195911176,460.3839830015382 72.91237700154751,460.3597838093069 72.88834644478624,460.3313265710622 72.87076619532768,460.3001290061535 72.85955193548178,460.2666970210506 72.85575763703318,460.23212674644316 72.85381832896385,460.18237927807115 72.80950935498495,460.169099233561 72.74500628171815,460.14452061148484 72.68682703891943,460.111130785257 72.63644718754259,460.06977293231694 72.59580603541733,460.02200693091925 72.56570460113828,459.9688445939735 72.54711253891985,459.91264681826885 72.54053575490232,459.85408814577505 72.54681742682494,459.79590890312613 72.55094899615356,459.78338771827566 72.5348021483844,459.7822915876161 72.50385753672558,459.7755040093135 72.47481007423116,459.76450054384253 72.44905100380541,459.749365508983 72.42636953092365,459.7307734466448 72.40781962749033,459.7091037867026 72.3944974240752,459.6855791364111 72.38606564979821,459.6601573369253 72.3832831642293,459.6338923599698 72.3859391730834,459.6077117007643 72.39428662967033,459.5822899012785 72.3991770588085,459.5545493638186 72.37982613678052,459.5441782814423 72.31612408198855,459.51964181824115 72.25845074580941,459.4867578984531 72.20861895971744,459.445695157638 72.16789348990213,459.39792915624025 72.13783421440819,459.34548352010927 72.11979021747463,459.2892857444046 72.11308695686212,459.2315280904456 72.11300263917208,459.1540400846436 72.07505965480586,459.13586961105517 72.04192278188775,459.12301115523485 72.01190566529874,459.1058946534011 71.9860201181582,459.08468874105375 71.96519363565571,459.0599836423527 71.94951053548137,459.0326646936426 71.94015126601474,459.00344859567815 71.9368628740659,458.97343147917906 71.93998263051482,458.94333004492995 71.94171114429912,458.9125540687411 71.91553048506366,458.9015084444251 71.85321967293632,458.87773084091367 71.7964316731617,458.84518419212543 71.74744306444951,458.8048803109701 71.70815099620376,458.7586320289518 71.67851330951953,458.70702957023053 71.6609330601808,458.65234951390534 71.6546935471631,458.5956036728859 71.65962613520621,458.5253669929813 71.63057867259195,458.51668226545445 71.59685157548405,458.5038238096341 71.56641287020516,458.4864121957354 71.54010573437472,458.4647003768883 71.51889982208729,458.4397844838423 71.50309024519814,458.4120439464123 71.49335154594657,458.38274353072796 71.4900631538779,458.35238914325896 71.49322506935158,458.32195043803995 71.49448983542123,458.2847241545184 71.45937149552887,458.26996854947384 71.39672341252152,458.2457271983676 71.33989325372214,458.2131383907044 71.29052521522499,458.17287666845397 71.25072724047949,458.125911685591 71.22108955391509,458.07426706802465 71.20304555686171,458.0191232641047 71.19680604396385,457.96220878758527 71.20266612695694,457.90516783447094 71.20675553762027,457.88994848186144 71.1846642889283,457.88198045514935 71.14823902394153,457.8679415509494 71.11543942190343,457.8490543765162 71.08685570700383,457.8255297262248 71.06366832762232,457.79859020732954 71.04705773237815,457.76861524970536 71.03639153781712,457.736658825107 71.03310314586827,457.7036484287539 71.03626506122214,457.67046939687094 71.03335609917806,457.6454270272 71.00291739389918,457.63067142218534 70.94343122612587,457.60571337026437 70.88660106744632,457.5731667214762 70.83765461763906,457.5328628403208 70.79798311960836,457.48627728733265 70.76880918051896,457.4346326697663 70.75068086577552,457.37991045456613 70.74359817537807,457.31258273679555 70.5854180895154,457.1100093592639 70.56960851274606,457.06211688127127 70.57045169012584,457.0194942621717 70.5759323434538,457.001998330523 70.55569608514112,456.99592745300527 70.4914881238494,456.97139098980415 70.43385694645536,456.9380854813262 70.38398300145846,456.89710705823103 70.34325753164315,456.84921458023837 70.31311393857898,456.7968532618273 70.29511210043053,456.7406554861227 70.28840883981803,456.68256056122374 70.29835833347445,456.6125346756641 69.71702965451993,455.80249411884745 68.09028743917908,456.8368198720129 67.86203930891176,456.98188854880533 67.84778961030698,456.9667535139458 67.69205473901339,456.8036408401299 69.32478351418197,455.78259513150465 69.58566261086764,455.6195667754387 69.12136695927059,454.97301832225287 69.05635797938422,454.95569102607413 68.98666936488434,454.9219639288764 68.90399581772952,454.85417246351096 68.86276444153427,454.79371664179286 68.83814366058319,454.7228054199485 68.82646565314248,454.652357945699 68.82490577497792,454.5909324699163 68.72604322126881,454.5366740023109 68.68135481750498,454.4914796920773 68.66276275516672,454.44826684878797 68.65711346633884,454.39084646582876 68.65416234538982,454.3491091830439 68.52734845999568,454.28890631454567 68.5176097606243,454.2827932781829 68.46035801313504,454.23616556631976 68.39749913572282,454.1496555620211 68.3733842612715,454.08957917014783 68.36259159011549,454.01390399582027 68.35964046916648,453.9508764829381 68.28670562150286,453.91714938574034 68.2405416571447,453.88451841920215 68.20997647527084,453.8363729879596 68.1979611969501,453.77747704449587 68.20095447680406,453.7079149065311 68.17418359349861,453.70112732822855 68.0953043447924,453.67161611816925 68.08092816971245,453.6643226334269 68.01908110529976,453.6211519490125 67.95622222788755,453.54981913844836 67.92017639268572,453.47005455357726 67.9078660022701,453.3842190912183 67.91558107576229,453.31275980405917 67.88042057684515,453.30213576843306 67.82329530595088,453.2759972681025 67.78910446124816,453.2464860580732 67.75997268094386,453.20011129943 67.74787308493308,453.1484666818337 67.74213947841515,453.07363468494583 67.68910361806438,453.05398865082293 67.6175178542803,453.02144200203475 67.58847039178586,452.9993929122477 67.55524920105789,452.9743083837018 67.53581396133987,452.9535240600743 67.48126038160966,452.8684896162801 67.46026526360727,452.81334581236007 67.44854509726161,452.74610241233944 67.45255019011508,452.6621219403298 67.49799745356863,452.58484472887284 67.5485459405652,452.53880724119955 67.56427119952467,452.5258223087842 67.615789340496,452.48505468006397 67.71659120227443,452.43893287464067 67.79669305814537,452.42168989621194 67.85200549744548,452.4189074107029 67.94698943501592,452.42792940919963 68.2402465450498,452.28492651710144 70.10704137469367,451.37303012672174 70.10704137469367,451.20646042545707 67.93725073564453,450.19958009765674 66.74579886843105,450.2145886558913 66.66603428355995,450.2158534220508 66.433781060559,450.21855158980986 66.42619246366179,450.13916643478365 66.62741675731388,450.0411470585741 68.53788817784191,449.11048997041615 68.54201974717053,448.93409725209006 66.36624254841348,447.93295053077765 64.87474599274375,447.7732105666905 64.66597526121922,447.75073988818366 64.55083938314596,447.80107758074547 64.48287928231056,447.89024359395813 64.38532365357605,447.9546201907198 64.24940345190525,447.9878835403228 64.1562745048339,447.98952773632715 64.08346613376527,447.97793404666635 63.98662720593537,447.94315297768395 63.65192792518157,448.11963001376006 63.0945876440834,447.3442440492709 61.661186013402514,445.3501294277331 60.92479700503426,444.3263855513189 60.25590434990659,443.39593925750586 58.25626691625573,440.59157328477653 57.715916660306505,439.84418081096726 57.60769483725061,439.6941795461916 56.39217025437091,438.01296806887046 56.361478595902064,437.8304201553066 55.269353029992494,431.3319673859102 55.260120237120866,431.2769500586151 55.25818092905154,431.2658201165192 55.24696666920564,431.1993777350632 54.50602450269906,426.7885479641507 54.4933768412836,426.71287278982317 54.10256410251521,424.3887385222349 54.20935252400153,424.3429539878115 58.60327658742517,422.3742611657895 59.689457752531766,421.8874526766608 59.01373536031643,420.83811836526087 58.93359134566038,420.87433283587274 58.15171291493364,419.68414573478884 58.126628386387736,419.6405956205296 58.10301941831634,419.5741110801987 58.09315424234997,419.50488621320375 58.0984241013929,419.4357878228338 58.118112294300886,419.36846010506315 58.151586438338654,419.30484236799117 58.198087673576836,419.24700039628215 58.255971804160836,419.19674702147034 58.32363679290133,419.1556421217802 58.398679584134186,419.12440239799656 58.47928734638505,419.1048406816236 58.56318350070459,419.0971256081314 58.659938110724624,419.09080177742374 58.6375939088427,417.1604735284578 56.896095245333356,417.17948717948593 56.871263669977424,417.1791499085161 56.76106037994727,417.1686945083899 56.65541024793561,417.14306191452914 56.55621042334649,417.1021678091839 56.4675503166036,417.0479515004236 56.39132707699114,416.98155127784264 56.32985944236339,416.9049907672004 55.145658901047284,415.1036265061328 54.783134765083595,414.5518511960526 54.704171198687334,414.43165625343113 54.59552778694155,414.2949771920407 54.668251840200305,414.26715233686076 54.50905994145795,414.0252447322384 54.15960505571944,414.183593453571 54.126257388396475,414.133972461824 54.476133862824874,413.9751599929265 51.66358906897859,409.7029485914738 51.30220322260939,407.5383013347528 51.2666211351222,407.3312591168628 50.58992908869247,403.398806060772 50.53925412522073,403.19361883320136 50.45771886778023,402.69799913995087 50.01888717439421,400.03052302295697 50.00375213962455,399.9388696363302 49.988870057925034,399.8120979097511 49.95826271726606,399.70918810446335 49.54860496296945,397.1114006020292 49.4906365146954,396.7697872663479 49.43207784211174,396.424421791093 49.37503688902733,396.08972251030923 48.905429219482414,393.29273434010224 48.864703749547274,393.09475627955396 48.46044233088859,390.69819307077194 47.04588571573591,382.3446656379874 46.47100734408412,378.94872638049236 45.77011610551301,374.7545510501864 45.74338738099268,374.5971298240434 48.92891171083901,370.0061551952312 49.043626000222375,369.8413561665659 49.219175541018934,369.58793919003267 49.44493629793205,369.2577087496373 50.36555957468363,367.9168458418679 50.60375719860736,367.56562028347014 51.009072589050675,366.9681447566865 51.216915825505396,366.9655730655524 54.291478005751664,366.92935859494054 54.29754888314961,366.9598394590045 61.50684238489338,366.88091805157313 61.505198188799135,366.94672804999425 62.07505965483761,366.95562357186606 62.07670385069221,366.8794846499436 62.34230474113594,366.8836162193621 63.0945876440834,366.87606978136984 69.95923237129712,366.80676059662494 70.2486951828824,366.8043996998358 70.26277624598725,366.87994839753844 71.02150945623742,366.8612298586052 71.02138297964245,366.7875361512219 71.2168736667766,366.78601843187244 71.29107328050986,366.7877891044718 71.29086248610501,366.71261983658405 73.30504473057536,366.6901069992022 73.30512904826541,366.7080666784757 76.4154841102839,366.6726953853035 76.80874206362137,366.66869029250995 76.90465349614182,366.6677627973203 78.12962166617818,366.6561691076595 78.22460560374863,366.65519945362485 79.45459067951813,366.64326849299414 79.5505021121584,366.6423409978045 79.94186291621166,366.63825158729094 82.06165313366891,366.6179731701033 82.06312869414342,366.67876626279127 86.05827199223633,366.63719761550635 87.88383544544531,366.4555350382272 87.605544734801,365.3161915361748 86.25173905349129,359.76846347777905 87.79551260970224,359.28161282977544 88.12671270410235,359.1773117817032 91.3809559944738,358.1514178028447 91.05945244054014,356.85292456092503 90.7454110067889,355.58491218306926 90.65970202111485,355.5951989477255 90.53427937838534,355.5957891719153 90.44389075785814,355.58571320163395 90.34844307293253,355.5641700182868 90.26859417025156,355.5373569760165 90.17723589574962,355.49612559970143 90.112606345768,355.45856204521004 90.03309471408687,355.4012681388458 89.97183787386398,355.3443115034814 89.94620527991339,355.32044958219007 89.92078348048747,355.2924982504152 89.85830403298003,355.21239639457417 89.81112825574218,355.13381225811264 89.77090869230679,355.0467963473442 89.75821887198639,354.9760116021248 89.56445669863653,354.9669052858781 89.3847334294866,354.9584735115712 89.00382802546969,354.9348223846847 87.39356992889783,354.82040320745614 86.49474278874331,354.7454447339433 86.07741211985945,354.69148137843285 85.19110616452541,354.6317422575295 83.40799669479622,354.50210372769146 81.60047723840098,354.3914366900365 78.14193205671363,354.14611421681036 76.70372431470446,354.04737813978613 71.77337077037518,353.7125523824074 71.76936567752172,353.75471125388214 71.7007731937114,354.5112522028131 63.0945876440834,353.9025202573386 57.93379370822752,353.5375087479608 58.01212489140922,352.7889358257719 58.01655157295256,352.74711422523706 55.695747856248076,352.5880909619946 55.30093002474605,352.18779247716463 50.26273408714583,347.1581547905263 58.28510358434531,337.00010118129035 60.5394227606889,334.1397060683563 61.88348974274704,332.43324142698935 63.0945876440834,330.8954965893313 72.63277936568898,318.7852342768424 73.37106552334144,317.84825335794676 76.05666995495895,314.4387389438466 76.09440214504014,314.390762148074 76.14545653841665,314.3260904392174 76.19545696000853,314.26251486099045 76.89284901222594,313.3769677653162 76.9199150077461,313.3427347616785 80.41193433323157,308.9095186300092 80.78925623320472,308.429582036933 80.8192733496739,308.3915547348468 80.87660941497303,308.31845125168326 81.45536640264366,307.58210440221995 81.55557804023229,307.45419438613624 83.40255820025337,305.10400593596745 85.56906044735365,302.36726279310363 86.39077901161102,301.2876584119547 87.88762974389391,299.40855319183527 87.94235195912404,299.340045025685 88.6185380989342,298.49100751271754 89.57153938903399,297.3008204116336 90.52222194115967,296.1135844315586 91.32159630341529,295.0732299597804 93.3755343637262,292.4770023356007 95.74772974468722,289.4771035168922 97.4058381604966,287.37219538107456 98.22700865934927,286.32948001247723 99.87048794676893,284.24227860268314 101.82341335077675,281.7682273880992 103.16904021111927,280.0667374935605 104.93730975805387,277.8318535569349 106.39689204797021,275.97290027740814 104.60868135481783,275.24494304334684 102.17834888996305,274.25994316983355 100.07251325889584,273.397330500261 98.70386765491138,272.84576598452577 98.60137943825359,272.80187859929663 98.53991180362584,272.75980404557185 98.48767696186972,272.71001441832493 98.44003743703705,272.6531421006805 98.39796288322239,272.5943304749668 98.36507896349424,272.52405163618727 98.34648690127582,272.46093980555514 98.33662172530944,272.38387338847303 98.3372962671893,272.3226587070652 98.3469084899657,272.265280482981 98.3610738707606,272.2249766018256 99.7215406537779,269.9587264648213 100.84178618699224,268.0964426344109 100.83204748774067,268.0756161519084 100.82374219005868,268.0440813160298 100.81581632228145,267.9988870057962 100.81143179964305,267.94829636001447 100.82382650774872,267.9049570401002 100.85468680171749,267.8654120186346 100.89427398205814,267.8276798286732 100.93980556332157,267.7964401048895 100.9979004881906,267.7712290997486 101.04941862916193,267.756347018109 101.92805166990871,266.29743927013243 103.23219420062637,264.1460298990766 104.14307877800655,262.66077285642456 104.19552441416752,262.6025514549006 104.2682484675461,262.5522980800888 104.34012934342509,262.5149874788173 104.42714525407374,262.4847595679433 104.51707012712592,262.4682332903293 104.6232261653977,262.45967503942734 104.68633799599986,262.4619094595916 104.7799728496908,262.4780563073907 107.53463351295308,263.1007006804402 110.14030472431939,263.69775461850395 111.3071358105818,263.96183778950837 112.58349564487469,264.2509633302136 117.07577635550767,265.2794290002361 118.61845378114889,265.8755132842652 121.78618706737144,267.08817106382605 125.83470349669514,268.6470796549564 132.76191198910635,271.3086956888374 133.35938751583004,270.2513511918204 134.91454396750663,267.4990514253772 136.1739559355555,267.11355070446683 136.65161594947264,266.26506125684415 137.08753868069473,265.49077142301456 136.6180153289597,264.4736886483079 137.93349859611823,262.16844155515287 138.62009797717963,260.96539599827855 133.35938751583004,258.9202269833643 121.72446647943391,254.39725461429242 121.33365374078534,255.08048128568495 116.32754070431861,253.13425914213985 116.71843776077704,252.4513697417172 114.8378148213381,251.72016627458203 115.02120591234166,251.25363620267098 115.61358021576197,249.74679381782673 116.34638571996665,247.85950977665024 117.15377026792918,245.7993322034714 117.97747029904097,243.71529270903122 118.89666017422299,241.3389235996869 120.0325888077315,238.44889080009858 120.96927461444237,236.0470155734885 121.90161805741978,233.66938169798465 123.06339007916392,230.69553706185673 124.01601193935893,228.25900724288917 124.4929974113962,227.03606269867208 124.88579161713886,226.02926668859172 125.75860673355784,223.7881853978534 126.6961357177683,221.39002015194197 127.49989460278215,219.33536539093615 128.44813194033875,216.90865858903004 129.098769804128,215.26387237666574 129.7162707947595,213.68489616269264 130.59119385486758,211.45224664626124 131.4723985867784,209.19333215287438 132.49251680021402,206.5928886415562 133.25875428967134,204.62828523004777 133.35938751583004,204.37330837529007 133.8503275743772,203.1291579186957 134.53949864672245,201.35709407331248 135.24001045538878,199.5742375568032 135.8036745671947,198.1302962082162 136.4331908363866,196.51666540188563 137.01376065565137,195.03583504074697 137.3374143120592,194.20939468291127 137.68547795513308,193.32064351300815 138.24323982492112,191.90364168331635 138.7671902797914,190.57239099823352 139.7801836439246,187.97000817881604 140.9430517963583,185.0022344201759 143.40584659225135,185.01783320263027 146.37969122840923,185.02837292050646 149.44531572775895,185.04978962722868 150.50729770060434,185.09759778750137 150.50776144819918,185.07335643639513 150.66126189932854,185.07533790333946 150.6613462171384,185.0935926947078 151.49621834919117,185.08773261156495 154.88617104694836,185.104132412584 155.9051509709093,185.11058271991666 162.86157556131485,185.14405686389452 166.58036745671293,185.1631548326726 168.49176637243062,185.17086990613484 169.99005050628307,185.1769407836526 170.60388367518078,185.18216848370076 170.73419674704846,183.85572390997615 170.86391959448667,182.53539237261435 171.2734508721883,177.0683985530944 168.49176637243062,176.93315289336337 166.66337827462795,176.84428199224556 167.10330609870354,172.07320466443858 167.1623706775473,172.07611362657252 167.17767434805654,171.90056408568609 167.13062504741367,171.89984738487135 167.37164731569143,169.2975910420788 158.4743547583839,168.72587458578087 155.9387094326371,168.5530232126535 155.8705806963018,169.23296149206723 153.19758176707498,169.0991070750907 153.0114925083124,172.6658740798639 152.97730166360967,173.26263290583276 152.97464565463574,173.30867039350608 152.90192160137696,174.58490375129387 152.88459430510838,174.84911339892318 152.8796617171851,174.9437179065589 152.8146527372987,175.9868127050011 152.77110262312937,176.72105161089516 152.76848877306037,176.7662459211288 152.68138854460184,178.22393106182085 152.65339505389204,178.7211527921708 152.65031745622824,178.7697619710082 152.6020033895157,179.63026669701154 152.53467567177503,179.62773716472245 152.53416976539512,179.6361267801544 152.52034165548022,179.63650620999925 152.5184023474109,179.80708100405747 152.59492069911823,179.8090203121268 152.59344513864374,179.92714947005402 152.45971719823223,179.92550527407957 152.46966669188865,179.63844551809854 143.27329910033927,179.5010919147683 143.47034966563797,169.51588967865976 143.47178306732738,169.3031138542518 143.49615089496868,168.63831060969758 143.5526016239831,166.29895698949989 141.35528124181897,166.25452153895597 141.32893194720342,166.24621624127397 141.30903295977075,166.2223543200126 141.31674803326294,165.54920361890143 141.44052648001804,160.61391748664886 141.47142893277191,160.5873573975985 143.68982875062846,160.61615190684304 143.7580839635588,157.576370795699 143.77477887673263,156.7712628268356 143.8295432507479,154.13026248111214 143.9055556960753,151.05814551555477 143.9126805453777,150.75683606099892 144.0118382111817,146.75840437101706 144.13165372386845,141.4515721043041 144.19455476006576,138.3023044039147 144.21883827013684,137.19019553285244 144.31179858182807,132.88779837940072 144.35463199521266,127.50933819002869 144.38814829803553,125.84288231772224 144.46829231269157,125.84069005640303 145.25872899429027,125.81379269638279 146.34668083208612,125.88639027310647 150.2463342861088,125.75755276183313 153.82633917645734,125.58773682746464 154.49738193405918,125.6533360314809 155.43187547951075,125.60645536639787 157.05735292878197,125.58773682746464 157.9227902427086,125.61349589792034 158.68632956428706,125.63575578208226 159.7941382304908,125.6099967115966 159.98625620786623,125.58891727584424 161.17956306545898,125.45889931616134 162.05317920047264,125.36408401418068 162.1925564295922,124.76327793657325 164.53469253529892,124.75396082598161 164.96682096807243,124.75278037757205 165.4258889197711,124.75041948075292 165.6812030455586,124.74923903237332 166.3498849062814,124.74692029442917 166.9799070818532,124.8816178888454 167.66616919191478,125.02917393905197 168.49176637243062,124.35754095735018 169.15340770154108,123.81942512162509 169.93338898310344,123.53603318746772 169.94742788718355,123.53135355273442 170.08562466804332,123.48097370129767 171.43820774194867,123.23270010706261 172.364564625338,122.8544507120496 173.74994730140128,122.05343215372969 174.96576699637586,121.63888397035484 176.0674626261569,121.26181502372143 176.58395096084476,121.08613900621006 177.6121636775575,120.72192851539697 177.62620258175744,120.14342448079648 177.64374067231105,119.45598192226545 177.3509894686571,118.09871921347703 179.44375584949913,116.93467061272362 180.70493849023725,116.22028853529737 182.32337540789612,115.51998752097597 183.10335668933865,115.18153610061859 183.73224057543578,114.86652501286264 186.16455450726485,113.65095827113792 186.9257750908692,113.25862781305 188.93300112141728,112.43071189470984 189.65320112311142,112.06177961028847 191.68500577570563,111.14250541741642 192.67578141467172,110.795833017127 193.27418443658505,110.58739955648247 193.68287253678707,110.4445231410092 194.0705233602016,110.30868725705841 195.05071712241653,109.9666944915023 195.61282135605788,109.76998119714351 196.19722763255638,109.56618521235733 196.80498992393632,109.35311427582451 197.58960868132704,109.05914046491598 198.0486344741208,108.94788320304129 198.75251899254587,108.7780672686728 199.51137867939102,108.59539287851393 200.12264015712466,108.20074368248187 201.03259723943503,108.09648479328463 201.67079823609384,108.02274892705633 201.7293569085577,107.67375778885273 201.77269622844202,107.14323054999488 201.89331275972341,106.79896120539956 202.51165692797431,106.45701059871844 203.26115734535287,106.09866019104821 203.62418738769648,105.93643285354698 203.72254403490584,105.89254546834783 204.14527103942763,105.70519144342572 204.76715655281734,105.45105776607775 205.51783741857548,104.89945109149751 206.22281806757027,104.38182446730502 206.728724525507,104.1265103415475 206.8071821852837,104.08671236686192 207.7533958970809,103.60892587625995 208.7265491276835,103.11823877096268 208.7628479160753,103.09952023202943 209.86133947159752,102.51633656269566 210.29110700761183,102.23758210439661 210.32508705802954,102.2153222202347 211.3965969359613,101.51856255111203 211.94116307892918,101.1648917781751 212.7106046425255,100.7292641590479 214.5034949704112,99.75493048000578 214.98048044244845,99.58393409725768 215.83386031926923,99.1084663445699 216.96515147682956,98.47490282379937 217.65250971758067,98.05449455728164 218.52266882514556,97.42797156803358 219.0461133736359,97.22889737685567 219.4747426200557,97.06494152563005 220.0544271031556,96.84360745032018 223.05824669687775,95.69945783690957 223.44589752029225,95.55072133829344 223.84054671629437,95.40080439126774 223.8662636278152,95.39030683226655 224.33123382153173,95.21345036634563 226.29044089746216,92.81157513973554 226.7330668892968,92.40520577744769 227.39706911528629,91.81502373543645 228.32578689531502,91.35827452171186 228.8468705469263,91.10296039595434 229.8352852891332,90.78095093549098 230.16787662631776,90.4120186510696 230.30957259341142,90.18486665149184 230.53672459298917,89.82179445018338 231.20190726735828,88.93527770047444 231.37290365013635,88.66360593257285 231.49352018141775,88.46921137612826 231.9080683648525,87.80638959854831 231.9408679668906,87.75482929873196 232.12826415062779,87.50073778022902 232.39171493859735,87.14588655891251 233.3859897637973,87.35668091634619 233.48556901829122,87.37657990368899 235.06062445716083,88.13075995580083 235.9038018870154,88.59686843902199 236.03263939828875,88.70108516934425 236.2809129925837,88.90252025734128 236.93437550060716,89.43186704775961 237.97544667314023,90.35582087536497 238.55281241826603,90.88162632061452 238.75656624417724,90.70152362161973 239.49316604683054,90.05016905707564 240.01079267111288,90.41905918262204 240.7122741338738,91.12054064535299 242.3752308197966,92.41224630897017 243.6305955362069,93.52009713401893 245.09211713419256,94.65956711269622 245.1061560383925,94.67006467169742 245.47736490182314,94.95931668899766 245.4961255996613,94.9464582332073 246.44351975983813,94.30939552608305 247.05250465862244,93.90070742585107 247.3991348998871,93.66765318425546 247.76216494235055,93.42169832796455 248.41562745049382,92.97903017731487 248.54446496176718,92.89235153751628 248.96837241454872,92.6359412811291 249.3782409632502,92.38762552801909 250.2659381613687,91.84896162697918 250.7226873750933,91.57374851387885 251.07163635445187,91.3617737080356 251.32695048011954,91.2071771262766 252.07177126288457,90.55371461816327 253.55546842725224,89.19177227464152 254.32490999084857,88.48674946668189 255.61775394391046,87.55461681801947 256.61552795546413,86.82619583639328 256.80406242891564,86.70321840823286 257.1066788084161,86.5064629549991 259.05374412943087,85.24051636183762 260.23769171743714,84.53203652642922 261.08436833364544,83.61621936103589 262.79416352580625,81.89474616143437 263.1477921398982,81.56687661782814 263.62330205146094,81.12656936396762 263.7907149300754,80.97197278220861 265.8599988195608,78.9787434969855 266.7839948059513,78.20352616799627 267.5229555054836,77.5020868641403 269.00087690454825,76.28411706675142 270.6193138222071,75.03806946093275 270.77268779662165,74.91981382641056 271.80676059668696,74.07077631344308 273.41229689962057,72.75803337294852 273.88894510077785,72.3745984367324 274.20867798202227,72.1174293206555 275.72517474854783,70.89600249578791 276.7135894906349,70.01652627760146 277.1691582559799,69.65231578678836 277.82493950197744,69.12651034156877 278.6505788412784,68.22941171510867 280.18937765078095,66.75621210971224 281.59234057618295,65.41416875353329 282.51275305864954,64.60492921525139 282.81726658743423,64.33675663367356 283.6791625561022,63.54159815849651 284.6359581446506,62.831937874678545 285.51779525965617,62.31785259571473 286.3024140170469,61.65616910766936 286.91603639153976,61.26388080842647 290.3543031560095,58.769466858904885 291.421217716898,58.21549928750553 293.7633538224849,56.287953524048646 294.5011340736376,55.86282346392263 295.1627754028679,55.42251621006211 296.0832722030245,54.681194613770586 297.6864476091989,53.38948895015341 298.3176923920552,52.9925210161772 299.35998617187283,52.12944459900979 300.31610721842156,51.37408409851834 301.4679297465093,50.4641691751129 302.2408283375544,50.002740326625045 302.8849315761112,49.612812924201265 303.17418359341144,49.35045826692127 303.63207109673056,48.934729635136854 306.8911626573352,46.85258728992097 307.19445357883535,46.687408831440756 307.63480299160085,46.4473562171677 308.476799972956,45.773994721711574 307.92051366364245,45.18840799668368 308.5611177159654,44.77154107536468 309.0213661160437,44.47170718134324 309.2496985641209,44.323055000447106 311.29558427981993,43.177724938656894 311.6703766474142,42.83455172472118 312.4033929460237,42.40710292665102 314.0218720225875,41.46556884964701 315.2807780841366,40.642290407165184 315.79372507356584,40.306199883626924 317.34656278726834,39.43726338331664 318.6745672392474,38.759222253127206 319.3935867924421,38.11866035967922 319.57398460359167,37.957065405272715 322.858793075837,35.982596817827854 323.1012487458042,35.86665992124981 323.670393510938,35.5926272565291 326.71051189305194,33.82895302657784 327.0079848902243,33.51394193879194 327.56777038589155,32.92017639270699 328.3992276495203,32.29369556233391 328.9168542736829,32.00794273138737 329.35248189269026,31.66835302152536 329.7213720182666,31.313501800178884 331.97219200837634,29.606067504777286 332.4897764736339,29.279336250705644 333.0484236798265,28.870648150473656 333.53793033668427,28.379961045206343 337.3298678741508,25.435880572327665 337.7116586143326,25.05872730797425 337.8299142488548,24.94165212183167 338.7948464995852,24.311629946289816 339.62520763252445,23.77060514843078 340.8325533941973,22.981264597491673 341.3384598520142,22.715452912732953 341.5785546252221,22.540957343631153 341.8232868742585,22.36410087774018 342.6571471934315,21.55604178786784 343.77903692274015,20.466951660627295 344.15374497252446,20.122640157157 344.74396917335076,19.58043491091836 344.8400070827058,19.49261798158519 345.1795967925978,19.01478933210824 346.44554338563944,17.97489860789488 347.4491774804259,17.372954240752875 349.0570746802385,16.33066046087537 349.2158871491959,16.24170524200762 349.4915218508663,16.087108660278567 349.85809323858837,15.882174385957793 350.49279504889347,15.644440509598923 351.7821398157215,15.124495147492244 352.1604313695496,14.913700790058554 353.6078719044304,14.310575974477034 354.56226443731464,13.862089899559455 355.2227674769504,13.296402161904314 355.610418300365,13.095009232782266 356.7850066189047,12.482525147764084 358.4128028060302,11.387574937380668 359.2418991728997,10.658015666219905 359.72208871919577,10.372220676398387 360.2115532171486,9.999831364498284 361.4236629313646,9.075877536892925 362.8828236325911,7.969165001378747 363.3477516674027,7.7010345787058405 364.17807064131716,7.122488385230378 365.5950724711587,5.775765394288169 365.6078887680741,5.7628647796228245 366.1993355761849,5.157463385002097 368.76866584037435,2.9897385306771795 371.13542272691234,1.1839475880662345 371.3204580140101,1.0422516210025263 372.69530097210736,0.07027883874958556 372.89205642543095,0 373.284386883459,0.18267439015885834 373.57827637670744,0.42158871489733263 373.64391773956874,0.5422052462386409 373.78089191302416,0.7962967647116218 374.6053508039455,2.322237118333966 375.0269395188728,2.981559709590168 375.3782493949906,3.809475627930323 375.87011694872734,4.651556927125298 376.1359286334561,5.381116198256105 376.90768893490673,6.9140549245559 377.0646042546997,7.224386377608497 377.1770419648941,7.813472288960138 377.5564718083167,8.27603942695262 378.5413452052649,9.999831364498284 378.97697282439213,10.811389640724329 379.2861238290052,11.34727105622528 379.6644153829531,12.003558208752555 380.46307304442394,13.869088272236906 380.75936559333655,14.562348755035828 380.23701717553575,15.184234268395606 379.61285508307685,15.936053423718286 379.33077007398396,16.24170524200762 379.2861238290052,16.2900193087501 378.9254546834208,16.68087420633356 378.6314808724823,17.077842140309766 378.610443595575,17.970218973161572 378.77789863321425,20.069941567806065 378.89501597814194,21.534962352115485 378.89969561287523,21.567761954123625 379.18304538827743,23.512930125884093 379.2029865343754,24.46968355549759 379.06242885687624,24.905353333499782 379.2861238290052,27.34517154444613 379.3166046930692,27.677299134035867 379.7510518638168,28.547416082755714 379.7873506522086,28.765250971741832 379.8154284606085,28.939704381968657 380.1304817072394,29.569726557540466 380.50991155066197,30.134233846816002 381.81451782897443,31.537154613432893 382.4527609845382,31.948203610484004 382.93054747517016,32.08876128801313 383.59922933589297,32.518570982872454 384.6028634305595,33.20597138255846 384.54544304757036,33.94961171679413 383.80062226492515,34.60543512169663 383.4329125878482,34.83958549395184 382.94576682774965,35.148778657469855 381.3636286983628,35.869020818038976 379.93962849605344,36.855032504491845 379.2861238290052,37.30777662542289 379.14674659988566,37.40427828228292 377.5178121231657,38.62570510712055 376.95570788964415,38.90564001382916 376.5961770335344,39.26508655215898 375.9368544422782,40.15278375027748 376.1570502280535,40.24650292159854 377.4944139494991,40.81796642467655 379.2334252396543,41.61898498299646 379.2861238290052,41.65439843504364 379.7112117302862,41.939856153925234 381.374168416209,42.658875707209816 381.8742147910328,42.875572306661354 382.34837561871603,43.08012715113727 383.2666379985886,43.477516673833314 384.22579448389615,43.83822797829271 384.60522432731875,43.880344690922435 385.37812291848365,44.07591969577659 386.1791414767137,44.443629372913435 386.7541041660555,44.70712231972801 390.74751895036417,46.18032192512444 390.64675924749065,47.06565822645377 390.6163205423316,47.33855260160995 390.3364699534029,48.601000008417714 390.2099933388888,49.02140827493544 389.85746085548647,51.09769053700846 389.8064064621099,51.37408409851834 389.3129368713037,54.04649280346547 388.95926609842667,55.591151696051 388.8889872596172,56.2504742873072 388.6501150936938,56.90975471968842 388.4814796077947,57.65339505392409 388.18750579685627,59.04231907518608 387.2764104250712,63.59779593420115 387.09023684849876,64.40353628612935 386.9637602341044,65.31463165794435 386.8513225237902,65.76429818124153 386.2739567787842,66.83353148001426 385.7294327944816,67.40731372100645 385.67437330837146,67.44129377142416 384.4283678614278,68.20251435508843 384.1133567737018,68.39459017358888 383.033583756993,68.92039561883843 380.8167438174208,69.9989460282028 379.2861238290052,70.66459245016674 377.7215659490769,71.34453072958047 375.418089528641,72.45706118936253 374.79738446363086,72.75685292453896 373.7024342532475,73.17490029426752 373.24336630154875,73.4103154326523 372.6414219343768,73.71828598891572 370.43276081589164,74.31205153500068 368.1222438638434,75.2289648310536 366.8070978675649,75.84380981289091 365.520071838711,76.50313240414711 365.35029806321745,76.37429489287376 364.56567930582673,75.77939105725423 363.52342768491405,74.80155819188838 362.27856052744505,73.70774627103954 361.16016998461,74.32023035605772 354.9780352279141,79.68026711859143 352.50233981741565,81.85612863512839 353.1569827738187,82.33741431208405 354.21331545795607,83.19467280498358 355.44646244907943,84.20412482397796 355.6642551791906,84.38211957940352 355.40080439134084,84.64565468509308 354.7180836264181,85.24755689339005 354.5927453013786,85.35881415526475 353.6968692821731,86.14693209891931 353.2705166148225,86.5064629549991 351.80789888614726,87.73965210499745 349.9119722763189,89.45522306258113 348.2805925851497,90.8523680638051 347.3121611480655,91.72834509563786 345.46534962354434,93.30108179662325 344.15374497252446,94.5223821448659 342.98033710236433,95.61514009393011 341.09018625795886,97.16215988330481 339.57014814629446,98.25829054206784 338.40609954548114,99.0803885361401 336.7700823783637,100.21163753488536 335.2359632037143,101.08057403519564 333.8330424370974,101.85583352302989 330.8607998381288,103.3665545240727 329.18848388273943,104.02111316284564 327.8335399118352,104.59616016996739 326.8089106990464,104.93811077664853 325.9118542314613,105.24258214655825 325.1014342448597,105.54823396487754 323.9010868556546,106.04828033961147 323.01575055441515,106.41717046515787 321.79078238425893,106.93711582726455 320.3609220988367,107.68665840351807 319.6570797393166,108.12346647105484 318.1147817434603,109.43970859787315 317.35360331876086,110.32504489920248 316.46472567214295,111.46451487784981 315.40961559540995,112.78316006036222 314.37786153331876,114.15218509431136 313.86491454388954,114.70956753428452 313.7267599221743,114.85948448131022 312.57207059082765,116.3432659634578 310.65266148952287,118.69944097336445 309.837561868188,119.60703715882573 309.4967917099164,119.98528655383875 309.0213661160437,120.42293779878526 308.6723749779,120.7441462406839 307.7167598377312,121.50186763799448 307.53387465322743,121.63888397035484 305.4717999308543,123.18350070403544 304.18477390200036,124.3042521437795 302.070970244251,126.53285440854235 300.55325087056065,128.47679997301827 299.2018482449151,129.92778185312778 298.40900850765223,131.081290736005 296.7261528344166,133.2243526505338 295.9017361022804,134.57579743505434 295.26467339521605,135.5009317110393 294.9110447811242,136.0138787004985 294.5152151367425,136.90393679540617 294.6803514364076,137.20014502650886 295.4719685663859,137.69437347700486 296.56110085244154,138.22135937063402 297.25431917630556,138.64998861708378 297.6173913776739,138.91348156392831 298.6245246586942,139.9733134343295 299.11285086717237,140.5553166552837 300.15160330185114,142.03437634379304 301.1809543081584,143.49707839018825 302.00659364757917,144.84852317473877 303.45989426557287,147.83476251906222 304.1203551463037,149.3840588875061 305.0771507348521,151.85739340127532 305.5057799812719,153.3071948330052 305.83601042169727,154.85657551916907 305.8043912680388,155.48659769474088 305.76927292814645,156.1751785428065 305.5756793901767,156.7712628268356 305.17432693356204,158.00672855587317 304.58060354638206,159.98469632964176 303.88734306361306,161.53521530534022 303.3591767214845,162.6231249841712 302.63311663679724,164.172505670365 301.77708075112236,165.35881415525037 301.4796077538302,165.91855749204265 301.11657771136674,167.13884602737565 300.5591109536736,169.67187750317325 300.58023254839077,169.88031096381778 300.6914476513006,170.95772308364758 300.85658395084596,172.6382178601839 301.2524135953475,174.12081889392192 301.48424522977837,174.81407937672085 302.01127328219263,175.76969451679977 302.77127125851246,176.923203399677 303.66132935351,178.0450931289556 304.45412693198773,178.57207902258477 305.3781229183782,179.06744576261536 306.5000126476868,179.85792460305908 307.6547019789137,180.68238349395048 308.4451808192975,181.0782131383921 309.0213661160437,181.3366470206285 309.1056838590531,181.37450568721482 310.359868126964,181.80313493366458 311.61413671280457,182.13218492568038 313.06511859294403,182.2633411748679 314.7279909611768,181.96940952283435 317.10414927608633,181.27724517069504 318.29159605056617,181.0465518258886 318.71790655901185,182.1895631497646 319.4053491175728,183.5620452111625 320.05763117733653,183.37114984104167 321.59052774470143,182.8266258568589 324.72554574657596,182.03610485754018 329.9591058945955,180.48680848909632 331.3784686210765,180.0254217995134 332.43471698752376,179.89304294301138 333.7335053415084,181.06181333737305 334.1983912174151,181.3416639263317 334.39164748438503,181.4588234301943 335.4045986896133,182.0689466184233 336.49373097578876,182.39917705881868 337.0218973179173,182.0689466184233 338.5068170894497,182.9261629524778 339.0677408747115,183.3887300904703 339.207118103831,183.83725832426285 338.90964510653885,184.2658875707126 338.3487213213969,184.76007386233363 337.795976357342,185.1535847688311 337.4247253350064,185.41939645358983 338.54661506419524,186.30941238965246 339.99877739271426,187.166628723677 341.87952680886804,188.4524743041513 341.4508554035433,188.78152429613715 341.97552255919834,189.1024376259409 342.6383864957132,189.5088069882587 343.99215001811797,190.4702400526055 344.15374497252446,190.57597450230722 345.2697746186003,191.30641910975268 345.673825242974,190.99022757358716 346.23706776609,190.40582129696884 347.2559633723609,189.3846912705637 347.62013170429896,189.5814467238274 348.21503553997843,189.9022757358812 349.03945227199483,190.36366242546413 349.5840184149627,190.70797392893442 350.9214242953133,191.551151358789 351.4365635460018,191.90364168331635 352.05267329396867,192.32523039821368 353.3303400534758,193.2000691405418 354.72272110224645,194.07482356512 356.0952453224894,194.9567028389706 356.60701186353907,195.3700705739359 356.65389252856215,195.40750765183233 357.3705933439026,195.98723429371734 357.139815681496,196.61375728293547 356.60701186353907,197.82814357625062 356.4453747502276,198.24855184276834 356.07884552141047,199.2065278796664 355.72167556217977,200.14224403240252 356.74988827901234,201.86603596994817 357.6521724466156,203.36760849583936 357.66684373391024,203.39193416469553 358.63063769504623,204.8979755309751 359.72790664340374,206.87004106272585 360.2478941643255,206.71198745351808 362.40267624508016,205.83015033854244 364.3068238350203,205.16142631894465 366.12087791628846,204.46934628452533 368.40681624641036,203.64370694525434 368.85884366637686,203.47979325287372 370.27820639297767,202.92000775723645 371.08858422079413,202.6178551252409 373.12624895650123,201.85667670048156 373.4517997621933,201.73487972073067 373.92263003902275,201.5592037032193 375.40750765188983,200.9326807140012 376.65823489235197,200.65160751775804 377.0247641211691,200.56965067159769 378.590544608382,200.37875530147684 379.2861238290052,200.28646953178526 381.5123651970688,199.99114663696724 381.96789180350885,199.93022706768429 382.5557551075759,199.8505889594381 385.08764829377907,199.5063196148428 387.76241789557525,199.13506859247727 389.2110388789555,198.91373451713747 390.993389488995,198.63738311453253 391.55435543304185,198.55070447473392 392.87886069866715,198.2462331048242 393.08965505607085,198.76031838378802 393.2653310735822,199.1866288923236 393.93515122389954,199.0730107336298 395.14957967596985,198.8915167918805 395.9400585164735,198.93717484970892 396.8992150017811,198.9933726253836 401.16189849826725,199.39856153929185 401.93365879983764,199.47233956439516 404.6259664921875,199.73937385643842 405.6881592594378,199.92322869500683 406.1858447372627,199.9489877654925 407.69184394472717,200.02508452853994 410.43099014331506,200.35067749304702 412.43357869803475,200.43263433923732 414.4185448443909,200.66450813245334 414.4489835496698,200.6680073187771 414.4185448443909,200.69646455702178 414.1807688091571,200.9186418098013 413.81423958045974,201.26173070598705 413.0998996618785,201.77703859223539 412.54479380094455,202.37076197944538 411.5540603208834,202.96570797390993 410.7624010320002,203.28189951010538 410.2892941761016,204.10981542844553 409.96842300526265,204.66960092411279 409.904046408471,205.09700756330795 409.871204647528,205.31016281756078 409.8443072875077,205.49287936659462 409.752105835626,206.09621497652108 409.4578369125926,208.00833059299356 409.3746574591777,208.55175844651674 409.26930243938074,209.2332987630599 409.15100464583384,210.59992074131495 408.93902984005047,211.33070261976025 408.4671455914364,211.4255600806159 407.311233652925,211.2838641135222 406.2970598402924,211.26042378098072 404.92807696518827,211.0473106855729 403.6773497247261,210.88453528275684 402.3329876305731,210.85991450180578 401.08344083849056,210.83651632813923 399.47908498381673,210.85991450180578 397.55613453737317,210.91147480165208 396.47054359645637,211.00515181409816 395.6917849222984,211.21708446106643 394.34742282826517,211.5239167277953 393.73725748110127,211.63753488645915 392.3179369135252,211.90102783327373 391.06834796241793,212.13644297168844 390.2193526083554,212.30153711244864 390.05421630869023,212.32725402405933 389.1805580148915,212.46667341208382 385.90856583944174,213.12013592019716 384.5115051560576,213.6084621286753 384.4693462845529,213.6236814812848 381.66223998512964,214.55821718564133 380.5836895758252,215.0254639583671 379.2861238290052,215.46787915579688 379.00037099805866,215.56535046669157 376.5891365019221,216.60755992881911 374.60998827977386,217.65103415710618 373.0946298029626,218.4731321512084 372.95411428424853,218.54922891422586 372.0898574187015,218.76470290642283 370.7594920699633,219.44864627863012 368.3131392339343,220.7790116273983 363.76111940233807,223.4947174933847 362.75048693496404,224.0966197016817 362.1064258551923,224.46087235136977 361.0957512289134,225.0311554060382 358.9726304606024,226.25376267928542 357.75407043896377,227.03606269867208 355.0506328045779,228.77157480247354 354.00602028690605,229.4906365146331 353.9182033575429,229.5644145397364 353.39239791229335,230.0094435872052 351.1287194664832,231.46742383999214 349.19640975045314,232.8246865487806 346.4971036855157,234.58604204081766 344.85404598690576,235.4338569465006 344.15374497252446,235.85148272750934 343.03535442956957,236.51830959788282 342.4135110750848,236.98673681901818 341.6394320356601,237.57110093676152 340.05611345789356,238.72106847444002 338.6168939030047,239.83591767216623 337.4294471285249,240.84309311209145 335.9901432558261,242.02935943810184 334.33422710139587,243.39606573410683 333.7580418046497,244.11508528739142 332.6783109469656,244.90438367945555 330.8022833244501,246.4724829045826 329.9029081188909,247.08378654119122 329.18266595841163,247.65874923059297 327.2386782350607,249.16947023160583 326.41190060616526,249.8885319437654 325.1881128846283,250.71526741372594 323.6399126467542,251.61350432972063 322.5461428847504,252.16038921069259 322.2732906685291,252.29740554305295 320.5108390459223,253.08788438349666 316.8570561302908,254.65012352548084 315.59815006874163,255.2250862148826 313.1142758370363,256.2310812064282 311.67501412324253,256.9149824197605 311.62231553377177,256.9372423038925 309.26496007560536,257.9220735419358 309.0213661160437,257.9707248796182 308.18522921780146,258.1375896930077 307.3935699289182,258.5322810478848 305.8102935100567,259.0358266090024 302.0311722695055,260.3661919577706 299.2346478469532,261.23744719599506 297.47097361694205,261.9927655376415 297.15604684690607,262.16844155515287 296.2472280541902,262.6755284614392 295.2400947731699,263.1790740225568 293.8722501876603,263.7540788708036 292.5724078617712,264.16394741944515 291.2454995404817,264.4743210313727 289.0146628554947,265.3010565013033 287.28728741387533,266.1278762890138 283.1837958161315,267.5062184335546 281.63681818566175,268.08240373021096 279.4773143112689,269.05201561564473 277.966677627976,269.66331925225336 275.24624996844125,270.90118803698505 274.23911668730113,271.47619288526175 274.06107977303054,271.56400981459495 273.88894510077785,271.6484540341694 272.1874130472743,272.483326166312 270.2796819534102,273.4892789989827 269.8768539363211,273.7047529911796 268.73388477132005,274.3172370761978 266.82615367745603,275.5035034022082 265.89047968362485,276.0785082504849 264.77563048592856,276.8690292498336 264.3153820858503,277.138382279791 262.86794155084965,277.98387844752983 261.7882106931656,278.81069823524035 260.1322523798304,279.96184622129846 257.2186527710157,281.86721641834333 254.5403839829856,283.50905150969874 254.41272692009187,283.613268240021 252.5975767080143,285.0911896390257 251.0130776818682,286.385214040587 250.077403688037,286.8887596016747 249.28574439915377,287.5715225254724 247.77620384655046,288.65007293483677 246.37210263155396,289.9452777848076 245.8322582821045,290.4839838447225 244.75248526539568,291.88576632180485 243.31322355160188,293.5393215794459 241.75220701693218,295.5418679752607 240.1337700991535,297.2329024696732 240.0778674356636,297.3008204116336 238.75656624417724,298.90719989206684 238.47785394484305,299.2459885833641 237.31616624090879,300.4627357734984 237.00229344265745,300.7918279243592 235.66374927271238,302.77097614650745 234.52078010783117,304.45964974410083 233.76428131774523,305.64595822898616 232.8285651650091,307.08285904602076 231.2370677661556,309.44257540112613 230.12221856845935,311.2038887343182 228.7906727712217,313.5050885757748 227.96275685285156,315.15978212295045 226.72138888185606,317.8509093668608 226.29507837329055,318.6472904493223 225.40624288569737,320.0806920800332 223.8862047741528,322.262413679713 222.82401200690254,324.1010042243321 222.11671261981382,325.1385762106013 221.66118601337377,325.8389193837977 220.96788337169986,326.947908498381 220.71493014279142,327.35427786069886 219.6996180405643,328.9878919720922 217.59968465163476,332.43324142698935 217.2579026804835,332.9941652121912 216.59503874396867,334.03995817839245 214.56323409137445,337.2487120464653 213.97419033880794,338.1808868540326 213.51512238722907,338.9069890977147 213.07245423660933,339.5627281848972 212.54078870812705,340.3263096653506 211.03478950078238,342.67434801304523 210.02761406085716,344.2131468224879 208.85420619057723,346.05991618816404 208.47009671242137,346.61266115227886 205.11614769096104,351.8005632425299 204.74021703389218,352.3638479245209 204.4907629912176,352.73741768480056 203.62418738769648,354.07693150869045 203.4004924155675,354.42263425491524 200.69060447387892,358.4663445728807 198.05571716463808,362.5053752561128 196.4430981711872,365.0232295382059 195.49570401101036,366.38871322692637 194.70277995593764,367.56562028347014 194.49679170986218,367.8712721017894 192.9989713234847,370.1981888548866 191.5526690781984,372.342431217795 191.04326343390798,373.2418485821993 190.52795554771956,373.9538697628064 187.14474826935995,379.16049039199066 183.96175347177277,384.00758016509513 183.12911575988423,385.2957866423886 182.73446656376228,385.8918709263877 182.31169740045542,386.52889147463696 180.6756802334578,389.0748657240049 179.37933709392237,391.0715520367067 177.16359328491993,394.4196409750541 175.89182876755046,396.34259142152763 173.3388983043202,400.1591075810104 172.38096442641697,401.51873118661797 171.62126156207222,402.69799913995087 169.9919476555673,405.2275314294547 168.49176637243062,407.59028322328896 164.27824012003677,414.2226325685669 162.3564701219728,417.0917967267777 161.6655283770581,418.2347237329038 160.86687071558728,419.47841044190335 160.6455366402175,419.82272194537364 157.99538781937235,424.04678791558376 156.21185676095328,426.8913734517185 155.7551075472287,427.6759500501743 149.28372077335246,437.8304201553066 148.71575645659817,438.72157438090386 146.38297962035807,442.3343788733504 146.32910058262755,442.4280980446714 144.92845639507982,444.83347245760524 141.75372473626967,449.70982048751915 137.83172708036506,455.88377642306807 136.61965952493412,457.84180305061886 135.44743210315363,459.73663352978764 133.35938751583004,463.0299580940898 131.2092850698087,466.4211333991016 130.85211511057798,467.14137555967073 130.5159824281348,467.6496007554917 129.82272194536583,468.55369775462924 127.01822949601157,472.96279901178735Z"/></svg>