<svg xmlns="http://www.w3.org/2000/svg" width="500" height="500" viewBox="0 0 500 500"><path d="M29.463164295502576,135.84022534288465 31.728112786768047,136.47364661948765 32.83393226382488,136.01000413431578 34.14327651832094,135.3427912691144 35.31421662764538,134.74576093410127 35.2078255665523,133.74628691545004 35.098880755090356,132.75825917041485 35.12546711978086,132.04001690214366 35.31421662764538,131.50541664112887 35.511858658757035,131.01140276862748 35.800660454577134,130.49331067911697 36.323814442105515,130.06642395700234 37.05601113151208,129.60282707451793 38.65716695887742,129.2354518546302 39.30951334916154,128.9694514006024 40.26470716197051,128.44374366289958 41.71633178958735,127.59375524143898 42.88681587197225,126.88349344282751 43.204803385442,126.69059409075939 44.00658977029409,125.87097705662833 44.513326791498734,125.31362105644395 45.13908681722196,124.52820603509849 45.685042146542614,123.67698634114095 46.3259878659306,122.91564953677222 46.80609291985447,122.42291253942284 47.09872534116307,122.21008481458162 48.33638217678426,121.5843247888584 49.36239695730892,121.11817415606993 49.92736860578283,120.84200430361052 51.04714250397506,120.33029658979535 51.646316165137385,119.87800917286454 54.18994265644645,118.57459326735112 54.90818492471762,118.2363125596733 55.97478609378805,117.81576461059898 56.421920407552875,117.53330158775437 58.00027489299633,116.75294846429716 59.31896769754945,115.95490149955863 59.63818648354856,115.76241257164536 58.895911600955756,114.40568712891533 58.292952917024806,113.30365267462712 58.59566353139003,112.93883120501107 58.775520515877794,112.82984079099126 59.44437507779579,112.4688499467989 60.095490195550546,112.21803518646823 61.067100974553654,112.01788500770758 61.79797518625032,111.66824923178869 61.924659441486675,111.13374017614885 62.01207978614637,110.76764183138076 62.54918819468054,109.8669432256303 63.05460273817529,109.30452532759006 63.103990444658066,108.80417268201596 62.70369008713676,108.35448461804428 61.96520022731258,107.42218335249973 61.250742981810035,106.30364072670726 61.03545271197489,105.23580828520467 60.9467098896053,104.68219170510143 61.30140756341245,103.80306316874348 61.58136243857567,104.11972820434131 62.789879159396705,105.48279242011164 62.85322128701488,105.55375019595454 63.655007671737366,106.55317861191828 64.7216088408078,107.8110830390925 67.36027132503368,110.95639133924529 69.41239209152273,113.65579659816261 69.92086201478654,114.40568712891533 70.46376196420853,115.20628784392554 71.61527533028966,116.55662891096021 73.90174828835738,119.339669491801 74.5806810432024,120.16557969628488 76.64798750348584,122.57490628419768 76.88110842253514,122.84724551123338 76.9064179119764,122.8649849552022 77.24848364248767,123.09555212397986 77.31939581551347,123.14243168281364 78.20103249961763,123.73777471851987 80.19236488859815,125.86974578416377 80.88903708760641,126.73200132755008 81.9138205956017,128.0003487693131 82.94371160433474,129.15815530574704 84.21552485005407,130.59085481955316 85.16684243465467,131.59160571332401 86.05358661923734,132.53275389952543 87.04539938707359,133.33969338760835 87.67120501538707,133.64244960469344 88.36281531637746,133.838769157998 89.02533110515797,134.09213766863272 90.27311173655566,134.44305031970364 92.48101127062058,134.93834106735707 92.85089463809248,135.0155920135528 93.37787925085014,135.29171626335713 93.94408217172382,135.8250396492199 94.56861092491768,136.80805109905432 96.0823920103432,138.99314929119734 96.6320867597126,139.97616074103178 97.19838088589641,140.43218757804374 97.83426470739614,140.69435740661547 98.73236396015507,140.85652054985428 100.13970838176765,140.81981038948447 101.23928029125635,140.49425283054228 102.37300861071358,140.1180306900301 104.54287550647197,139.04509074795178 105.43851221430178,138.6219890485734 106.34928901320609,138.3698974130907 109.59341832888231,138.52193676055302 111.46946713352261,138.70056247260862 112.65381443199199,138.7790446912365 115.13035937563413,138.95771600597956 115.92963761283724,139.0146737579348 116.62890916467502,139.02356628124673 118.89130390570124,139.05193115048948 119.1522424618408,139.05521454372828 120.8269098153207,139.0463676231038 121.01310557294596,139.05393766857625 121.65154314468495,139.08180090832158 123.67958569413248,139.57458350839084 125.80644925926548,140.0281021977862 126.32704949629537,140.09522934817304 127.82185986541712,140.1509558276637 128.96571198065087,140.10913816671814 129.86508810852942,139.95463627432673 130.9734613358255,139.5961079750959 132.5391382753828,138.8639568882796 133.41954368682798,138.3737280385144 133.9439745493464,137.95062633916842 135.61225752722814,136.60662404514161 136.37742495692336,135.91752189176782 137.22189545375056,135.2324327745352 137.9873821022257,134.61150663329528 138.1736690651611,134.8509207227298 138.46370213351057,135.22458911297034 138.72847131500902,135.56405549042523 140.34098221068024,137.63651505384226 144.04369211360768,135.80351518251484 142.57683618986542,133.45876199474958 142.4070573984343,133.11929561726228 142.21324599268152,132.73290407828608 142.0143726890405,132.3338805959168 141.86361021676262,132.03367812913578 142.83900601840475,131.29646514443124 144.8721560684604,130.11453478830072 145.4117726246436,129.872612551282 145.5295643566328,129.8193942194079 145.8589069384084,129.61044272267785 146.19084887301355,129.3988462703336 146.34535076534016,129.2886701865043 146.83430274005053,128.9390344105854 148.56091155025246,127.80024419323992 149.24622868095486,127.40117510818318 150.16462112798666,126.86538917739131 150.554752086882,126.68931721560736 151.51117717222033,126.2028733886108 152.08495013850163,125.97102934468113 152.42569339117338,125.8329900211065 153.80015827780744,125.50620118969975 154.63236165257933,125.4934780409641 155.7243179138109,125.57962151047177 156.88212445030965,125.78227983684901 156.89352512120578,125.78560883274291 158.18052406058987,126.15471695459257 159.88556280139932,126.28140120992614 161.11305023865373,126.14965505670433 161.99979442310678,126.0102932553226 162.72432986179558,126.04581774594772 164.16719877406567,126.34857396300042 165.3718392665487,126.72347362570551 166.6550531832938,127.10475766413836 167.48853343331493,127.14912907535555 168.1573879949737,127.27832147827331 169.1821715030986,127.47085600887404 171.53075531638476,127.89778833367612 173.69939093974338,128.5222714842473 175.13582987356585,128.5222714842473 176.71929185961744,128.39686410406577 177.88088341888482,128.23346968836242 178.64222022322113,128.1688506855598 179.32115297819578,128.1143554785661 179.9874537896153,128.21445336927394 180.84382658686843,128.56276666738574 181.5949939927084,128.888369828983 182.6869046512201,129.38872247452468 183.8472649380877,130.14622865346973 185.3255215328557,131.11150065933535 186.32499555153933,131.79681778997292 187.09139425376392,132.01849243543862 187.28009815890854,132.01466181001493 189.77429134114456,131.97161287660484 192.35211984527166,131.78414024392475 193.35793263696317,131.76384704968427 194.24089179877723,131.92217956746697 194.68168733953416,132.00330674177386 194.89574633671035,132.09943719902802 195.71914839367483,132.46941177187486 196.8047658817689,132.95334745128724 198.15638382402042,133.0191977265544 199.4724772754848,132.9419011776712 200.07671283453539,132.92543860885442 200.69873344020985,132.90902164272512 200.9583951212298,132.90140599456518 201.43594642491442,133.29281382874214 202.41134222655654,134.09592269140134 202.9243724181788,134.25936270975978 203.92507770926218,134.7571616050298 204.51034255187938,135.3651821868166 205.65674841735236,136.62436348911046 206.18624117775903,137.0486964609534 207.66577464777626,137.4489968184423 208.8945389600207,137.75553805829603 209.5823642383721,137.92782499731135 210.12198079455524,136.32033039690572 210.21701678734246,135.8085770804031 210.94665972650975,135.704694166959 212.1209288317929,136.07585440958294 214.13123193733642,136.5787608054287 213.85250833457295,137.3349901092217 215.39670641004787,137.7618768313363 217.3373742175556,138.27495262561365 218.43183862630656,138.60046458186835 218.9182824533679,139.31109120197962 219.15386591734634,139.79753502897617 219.46040715720008,140.60315203921957 219.68331307516274,141.2543127597914 220.88421414759705,141.50512752012207 221.92172080445758,141.63176617276815 222.85019144467563,141.7179096422758 223.50892221068753,141.98140194868705 225.7865026453785,142.2867119160438 226.6783087278494,142.29555883670068 227.23571033065647,142.21953916296954 227.87916419769346,141.94213803801318 228.5327874630972,141.4620329840245 229.4473948873604,140.39415493983444 230.01870530884221,139.70505278646064 231.14737173041118,138.39776065283604 231.9340180241888,137.47562878572307 232.89801315493477,136.06231041250518 233.29575976221682,135.47918889603721 234.2572011425939,133.96166839056295 234.49155333417258,133.66652782167014 234.82595781370685,133.4093742882992 235.34788052870587,133.09394052513352 235.92931474583455,132.8469107875391 236.10027920707518,132.79624620593668 237.31390342837472,132.4352553617767 238.17146189530774,132.22748953485615 238.9048898572437,132.10335902982666 241.05961666205718,131.67647230771203 241.95899278993576,131.43322759285383 242.97109875191526,131.1266863530325 243.9034456202121,130.74161729186343 245.72121419512249,130.236157145746 246.00240034294467,130.1994469853438 246.2976321172124,130.2424959187539 248.4079875107115,130.73650979128772 249.49105124856635,130.96329193732913 250.20550849406888,131.2483087104454 252.71110234733064,132.03874002702403 253.2975984623476,132.21225823850392 254.28311805976622,132.2224276369679 255.27880705568123,132.61894297172057 256.1110104305827,133.18897651795314 256.73809293414547,133.70196110692032 257.5969282761981,134.48103735522548 258.54067581539107,134.60138283751877 259.3918955093162,134.60138283751877 259.9391277137565,134.52914818652383 260.4369266089941,134.31508918925044 260.77899233937575,134.09719956652097 262.0266817653337,133.1066180712141 262.5638357767174,132.57461716315845 263.3023256365416,131.84365174615164 264.3980213178219,130.89994980967856 265.6901277578141,129.7320194774357 266.44129516365405,129.1847872730278 266.929015865835,128.93520378512932 267.8803334505653,128.29553494089336 268.366777277497,128.1929289025689 269.37382134171787,127.98137805287972 270.20607031920963,127.73941021317353 270.7646575918262,127.64314294788936 270.9002343704393,127.66708435683606 271.6121378657026,127.7926285450476 272.7091560246928,127.73690206555693 274.7118890848287,127.89906520879575 275.43008575038,128.05233582872262 277.3568447394722,128.46275998202043 278.78192860498876,128.76679307425755 279.554620477631,129.35073543900285 280.00180039398606,129.68764806618609 281.48261073899334,130.56805347769608 281.2621673659598,131.23941618713346 281.0974960751368,131.7410457078272 280.8124793020853,132.42508596331274 280.70859638864124,132.6759007236758 280.6946875700961,132.75702789795028 280.6237297942208,133.18642276768148 280.6212216465718,133.2041622116503 280.5375863248104,133.71714680058508 280.3691300112187,134.50256182193053 280.3932082281306,135.7819907158098 280.39571637565,135.89722869752734 280.5236319035454,136.36593308058747 280.8264337232207,136.84220750915244 281.335678892204,137.64153134904302 281.81195332076896,137.98482835192164 282.6568342416862,138.59161766124387 283.3953697041007,139.18700629960517 283.9818658192472,139.6607269778985 285.29038922530395,140.520839195168 286.44062571626546,141.1719087103325 286.8700661887165,141.25937465767964 290.41562924363836,141.0211918407097 291.39102504528046,140.70197305480778 291.66974864804394,140.5778425497783 291.7127975815188,140.55882623068985 292.21821212488396,140.33464343760755 292.24862911493335,140.32068901640736 292.5463234341302,140.06225860785196 293.4494845847774,139.27939733681058 293.55464437347075,139.19457634511002 293.91946584305435,138.89939017352975 294.270332891373,138.61441900310095 294.70483526158273,138.26350635203005 295.1342301313139,137.86320599450875 295.7625895101259,137.276709879427 296.00834237260074,137.09046851921147 296.2730659513793,136.88908706798625 297.0534190748689,136.29880593016827 297.56640366377127,136.0302517258688 299.049767759277,135.25500610298732 301.05373209168306,134.20614437788572 302.6904124097059,132.61894297172057 303.89126787954996,131.40030245522024 304.69059171947293,130.59085481955316 305.69385076079556,129.71683378377094 305.9535124418155,129.87516630155366 306.4475719170044,130.17919939379078 308.38687164408236,131.36860859005122 308.90245558594387,131.757508276644 309.1038826398241,131.9095476240739 309.54978568105963,132.24522897879257 315.1703164471122,135.97958714429876 315.72133367419156,136.21521621096468 316.26733460610245,136.65605735427948 316.8689708121939,137.14117870346894 317.2059290419674,137.36919212197492 322.12851073402175,140.69691115691953 322.6934823823661,141.07824079800744 323.30784173706354,141.39235208333363 323.7474060052911,141.65962941251348 324.28200626643553,142.09919368067625 325.2890503305268,142.68062789783735 326.6723165350978,141.39235208333363 326.96111833104754,141.07441017258375 327.2854446175252,140.7158818733205 328.40266476547816,139.75822551564724 328.79156445197367,139.3618013862371 330.1938469758276,137.9353950427838 331.1147475703788,136.9853543332704 331.1945978696309,136.8612694309284 331.6189308413442,136.1987536421479 330.15207491747236,135.41333862080245 329.42494012595404,135.00674509292833 328.5521503626364,134.33405990565143 327.4082982474026,133.4954721551194 326.8965449309,132.98627258892083 326.25432233639236,132.34660374465247 325.3067897744308,131.24452368770918 324.7062936355586,130.39448966352873 323.95512622958904,129.4938822631532 323.11909222932866,128.80478010977941 322.21214605591285,128.2195152671622 320.95930352662685,127.39989823303114 319.2732811048411,126.40553171495564 317.6037212519693,125.41873524238498 316.93231293981205,125.07543823947398 315.4147924343378,124.3369483796498 314.7320290540043,124.00003575246654 313.76169515025043,123.59968979229016 312.1402461286122,122.95619032259812 310.8570778147166,122.52679545286692 308.90245558594387,121.99981084004446 308.5452953672076,121.90354357476029 308.07276035869137,121.68314580444662 307.4684791970505,120.97502733195196 307.7700497443261,120.22385992604721 308.2222003531297,119.76527933876358 308.90245558594387,119.3165945338515 309.23435191782914,119.09774725478229 309.90065272937824,118.77218969584011 310.6416963395713,118.23886630997735 311.58795202628363,117.11904680903285 311.86412187880785,116.62886356195514 311.8996007667455,115.44697880851209 312.0135618732462,114.70338144811218 312.0262850221115,114.62234547914784 312.0731189782254,114.40568712891533 312.6140124095282,111.90260142330256 313.3031601657191,109.1347921388464 313.41333624945116,108.69522787065122 313.7376169332089,107.54248323210554 314.78141676048705,103.83854205664872 314.85109766124276,102.65414915558908 314.69655016606663,101.99418711711265 314.0808683335297,100.93643286869909 313.546359277825,100.00540847827416 313.2499418337478,99.54048911795024 312.98517265224933,99.0578303136899 311.49423851133594,97.63406892588321 311.06352116376524,97.13750130307774 309.9361316173159,95.81374660063636 308.99999972638005,95.48057339353427 308.90245558594387,94.51999846408953 308.87586922138297,94.25819345695278 308.90245558594387,94.25504687177637 309.8500337504957,94.14163299742813 310.2388878345306,91.81083423086308 310.2452266075385,91.32945230172237 310.2541191307856,90.71258479931109 310.1679300586553,89.95380174524642 310.0526464741855,88.43623563708468 310.1388355464454,86.66534662097568 310.2629660514425,86.0345246973642 310.3694027152555,85.49864756119739 310.6695595793814,84.40801377783772 311.76657773837167,83.16410937455119 312.184617539797,82.86258442993065 313.55142117571324,81.59455620697993 317.2845024660998,79.21564660911653 319.2428641149213,77.64741591935238 320.3741754921693,76.40346591341077 320.4513808356127,76.31859931902275 323.18156790591723,73.27270486936294 325.28777345540715,70.92352822126925 325.53224944263275,70.67526721121025 327.1676072828161,69.01966177947388 327.4082982474026,68.74855382487033 327.4082982474026,68.65862533262644 326.79015386980694,68.13670261769224 326.07058912369627,67.61988740333375 325.582959626955,67.39059710967572 324.6670297248523,67.06508515342102 324.56191553887885,67.02199061732345 323.9387092633949,66.76739083422417 323.3002716916559,66.4494489234743 322.38311051715345,65.9921452113427 320.3803774571472,64.53536748055987 320.21447489379483,63.67397838813835 319.84965342421117,62.74801589563408 318.92747595441074,60.96695748106111 318.7893910281486,60.46405108521535 318.8882120437044,59.536811717559054 318.8983358394809,59.05926041384204 319.51648021707666,56.59922364167176 319.97761455469674,55.170354753289345 320.31708093211927,53.55652137984343 320.9770885732508,50.41376682999471 321.3772977254619,49.3775370482862 321.68766959067455,48.71885188492939 322.0613379809151,48.28434951465487 322.98739167879427,47.6801139556367 324.2224491614563,46.97076421067747 325.9844912568761,45.691335316798224 326.244152937896,43.82541030786962 326.42022489961516,43.47577453195073 326.6077431350799,43.214835975811155 326.7850463691988,43.07930479985311 328.26084041916727,42.680281317483846 330.69547649642413,42.28504285785079 331.5885138514244,42.01904240382297 332.1788405919299,41.727686857666406 332.4081308856203,41.55667679380312 332.55629400493905,41.394513650564306 332.59432664311595,41.195640346955685 332.5449389366332,40.748506033288066 332.49550562756014,40.07203582327496 332.29863884203826,38.40124469787382 332.23584394641057,37.86792131201107 331.7228137549179,34.759323172260494 331.79755655343223,33.34691685272727 331.8038953265697,33.229170723393125 332.1927950130653,31.38727832878616 332.05087946144425,29.740565420394134 332.20798070673004,29.369359575050318 332.2218895252752,25.76930131307 332.25102964020493,25.130863741266204 332.3954989421948,24.886342151288353 332.5106913212249,24.65709746031781 333.2758131483298,23.917330725341596 334.7844867331472,21.703046815613728 335.2760380606871,21.117827575716408 335.6763384182084,20.679540182673264 336.0765931730098,20.519930789738517 337.2762173704541,20.598458611053857 339.4385142208049,21.038022879249034 342.27983503131077,20.95821818274926 343.4794136260352,20.627598725951223 343.7999548898738,19.91820337830453 344.13435936940806,19.009934727049217 344.28256809131705,17.817926177829655 344.2866267302753,17.72740485068103 344.36237278784927,16.02551269501561 344.34207959357633,13.426159724151077 344.4206530177088,13.015735570853264 344.53338285168013,12.739565718361462 346.9047224041683,10.555060361090774 348.31206682578085,9.258576063489983 349.22535177220453,8.639154810807046 350.57318469168746,7.445869386435452 351.70695861373497,6.628806102608454 352.1604317005077,6.267815258416093 352.31876421832277,5.973951564675338 352.88628961703597,5.540726069520448 353.0762703971706,5.396302370250462 353.76920317613013,4.887102804051892 353.97436965005915,4.735063456589587 354.32149727832905,4.480418070835232 355.54387721497534,3.4417257441976057 355.62623566161716,3.33907410318568 356.13041893271213,2.7069753044221705 356.81058296008655,2.1825444418713675 357.34896824386993,1.5504912457953306 357.9380181091262,0.8575584669978321 358.42291144500786,0.3989778797142013 358.82476229370883,0.01897071643338479 359.0970559181543,0 359.55440523287615,0.03671016040221017 360.4702439296687,0.27106235191607786 361.1137433992959,0.3825153108974082 362.1460969529581,0.33312760444702894 363.8157480112696,0.2596616809875384 365.1195743409379,0.3989778797142013 365.3091902997024,0.4192254712672157 366.3036024204977,0.5345090556398375 366.67476266308927,0.5966199108582615 366.9090692519481,0.6827633803659211 367.1447439213662,0.9056692982961791 367.3536954180639,1.1932854243715931 367.5145816861183,1.4124063195656298 367.6627904081569,1.635312237495888 367.83635422222704,1.7088237636104486 368.0098724337069,1.7468107991322883 369.19809596025505,1.5909864289337623 370.3178698585769,1.218549311157791 370.9347829635136,0.9664576756426952 371.70245854098744,0.608020581786801 371.9621202220074,0.44713431370002116 372.05063503103685,0.3989778797142013 372.12300649006175,0.3597139690403292 372.29652470154167,0.3230038086705217 372.8158936661718,0.3230038086705217 373.84446219706535,0.39523845963305015 373.8614719980994,0.3989778797142013 374.8452130908686,0.6194212527153404 376.6148708344158,1.0602167933426732 377.7865861894597,1.2730445181838967 379.92868105097733,2.197775738223601 380.72668241293115,2.7133596801499293 381.76546594491134,3.166832766857834 382.7522168148593,3.512637917353032 384.90694361954326,4.472346395800588 385.4427751530874,4.710985239612879 385.8430755106087,5.5090322043514215 387.4227068713014,6.850480748074153 388.35628501199795,8.712620734266535 388.7553084943996,9.718433525925645 389.2252441499567,10.583607641083393 390.0612781502171,12.174639672672226 390.33110922960384,12.716764376504383 391.10380110224605,12.849787404845829 392.2654382641037,12.865018701198062 393.15469059620574,12.87637376943913 394.19470540071524,12.982764830532206 395.39300712032,13.38183391558895 397.65923248670515,14.553549270568023 398.61182694655497,15.045054995485241 399.7518940390201,15.632827985686625 400.8438046975318,16.19656836156637 401.52916743082443,16.551220432718445 402.39174219305545,16.77923385119203 403.0010852527142,16.70321417749328 404.5997329324305,16.24718734048131 405.64604090722804,16.06349973053745 406.3022179230007,16.01288075162251 406.92036230046676,15.952046771588522 407.2180566196636,16.05086778714435 407.5461679289099,16.310575070819365 407.93506761553505,16.61962445825728 408.1706510795135,16.705767927764942 408.5911990285878,16.73107741720621 408.887616472665,16.6804128356362 411.1120241781046,16.35864029943024 411.71375158963576,16.202861531919183 412.3800524010553,16.159766995821617 412.60806581962606,16.14458130215686 413.67712953362565,16.377656618551093 415.89145904600855,17.126315876839257 417.5926671613295,17.432857116660585 418.5401997232911,17.544310075641913 420.24268471386125,17.46072035640592 421.10658195380216,17.321404157711658 421.92364523762916,16.98189217756927 422.8167281953493,16.368809697894218 422.90916483517736,16.22511564155899 423.5704493515581,15.198325615379703 423.7097199475001,14.361014739967288 423.74145941538904,14.012655839200429 423.8643130452665,13.714961520003577 424.00112109640895,13.45657671416807 424.2240726169619,13.171559941051791 424.61931107659495,12.83838673391729 425.0524909690948,12.41783878484297 425.2754424896477,12.244320573363092 425.4236512116863,11.935179980582632 425.52247222724213,11.514677634195786 425.55033546705226,10.988969896492952 425.52247222724213,9.642413852194494 425.5959381506368,9.123044887564348 425.69471356360236,8.764516588301104 425.7935801818781,8.542887545522879 426.0291636458565,8.431388983886478 426.58524277082404,8.328782945562025 427.84059344775903,8.384509425020287 428.310574706036,8.554288216451418 428.9299959586217,8.727806427931297 429.22641340269894,8.764516588301104 429.5228308467762,8.715174484538197 429.8572353263104,8.554288216451418 430.3272165844578,8.2578707724066 431.0771527180276,7.8259221524037414 431.8295513963969,7.547244152295345 432.6478915553435,7.606755654522232 433.37502634699143,7.882879904326563 435.56263268665384,8.712620734266535 438.04925582348227,9.859026599771939 439.65930417422436,10.807836036820754 439.89871826356165,10.948429110667046 441.1071893816628,11.610944899479954 442.13708039026625,12.096066248669413 443.6457539750836,12.903005736719903 443.8863993370799,13.079077698503847 444.8858733556339,13.807443762551522 445.37733347786366,14.165972061782362 446.3236347674255,14.853751737349064 448.11987887553363,16.07111537872977 449.25866909300873,16.84380725133957 450.4000130605935,17.602635908091713 452.5040752838046,18.99985653396018 453.88734148850523,19.837167409372597 454.9792977497368,20.49963759546563 457.59639016444055,21.93867588231203 457.98775239599485,22.155288629889476 459.0797542598167,22.75573916613903 460.47948303330173,23.742490036054612 460.84302762776576,24.104803358054077 460.9114316532722,24.241611409131746 461.2331585867907,24.885110878823795 461.0419009314068,25.86935360112279 460.9114316532722,26.05988161360433 460.32365866313563,26.91821532619199 459.69912990994175,27.950614482476805 459.33563091806803,28.634654737994758 460.09309149432556,29.0463557664122 460.9050928803939,29.487196909759408 460.2451308418527,30.26367380510543 459.93097395374184,30.707023096036828 458.8339557947516,32.2562830693676 457.77624714892835,34.36668406561898 456.90090363537144,36.351677681688834 456.5513134621724,37.207959273534634 456.08274588704506,38.40124469787382 455.4023538463305,40.13414667849338 456.06997713571917,40.295032946580164 456.8717635205713,40.365990722423064 460.2033131809072,40.65730066589215 460.9114316532722,40.71950272645312 461.5865793854782,40.77887742061759 463.1599175757533,40.844773298572235 468.5270798312036,41.27549064611053 473.95758421414246,41.720071209506486 484.4576021360547,42.5447501415258 484.4918041488727,42.54730389182987 486.3437747366011,42.69291326087694 487.84615515100086,42.81075059555363 490.76345003268005,43.02991709340274 493.4869335084769,43.23512917005164 493.54521373833643,43.23895979547534 493.77701217954626,43.25665363675669 494.0265956675095,43.28702502411861 495.5504549459917,43.469435758910436 495.91527641557536,43.4985758737754 497.2618324599386,43.60496693486848 497.9433189650229,43.62019823122071 498.91365286877675,43.64085624692858 499.7332699029726,43.65818526674255 500,43.66438723172042 499.9714071173199,43.882048841012534 499.9662996167118,43.91953424703698 499.9486513781179,43.95163853636085 499.7132047221695,45.91643016353276 499.57402533153765,46.96579351816417 499.3581422268626,48.59823278654368 498.91365286877675,51.91952184307306 498.5451831845841,54.67355911707891 497.72775507925735,60.58644868825049 497.7552078948478,60.59251384519835 497.71243257756254,60.83306800172248 497.50375469692494,62.38533775216724 496.8757145370225,67.03261604262975 496.04387598362075,73.12440494198178 495.6061358228921,76.40346591341077 495.5958296162361,76.48044324348164 495.4133732787892,77.80451716470294 495.13962036860386,79.83698317451132 495.06729451216916,80.3057787629464 494.9776396360501,80.97390368183244 494.8845189559424,82.1765376563583 494.9204994734098,82.37755428611614 494.70010170309615,82.71414769448707 494.6513068314533,83.3871064978564 494.5949419144028,83.83378478468168 494.42151490836267,84.36555767929997 493.2398125655723,93.22415260408096 493.1652977805278,93.7817366176703 492.63694508708113,97.52393844474139 491.6377446845871,106.45308072121043 491.5798292762274,106.4951719982484 491.3872035402841,107.11372679996656 491.3284216810244,107.59478951029496 490.91950241618633,110.94307535560489 490.45421823442746,110.88671043852202 490.5369415028283,109.94018113565242 490.35754054502087,109.87054583764903 489.9520870843011,109.80378350872961 489.5393827968241,109.79908643230873 488.8264760425012,109.90342537259514 488.39553068159034,110.03567315534676 487.73666310741885,110.24102204002568 487.35765920323007,110.39698321828662 486.9420819467338,110.63525724063153 486.5848305225578,110.89405247062189 486.3412665889521,111.0917857071409 485.8579693470995,111.45181889492873 485.70460752186256,111.59888754987773 485.4889524306572,111.79443185759246 485.4053627113564,111.93849073539506 485.3867568164228,112.09098610966728 485.3463528386269,112.25957923132134 485.1602938891613,112.55636149683353 484.9941633124688,112.80165833246602 484.8983064713719,112.9773198700627 484.7829316815919,113.33315761095946 484.7498697358635,113.50453249632254 484.747954423184,113.76360134240532 484.80577862610403,114.17872257212402 485.5812066597354,114.40568712891533 485.92450366264643,114.50614984109058 485.7385359184909,114.7749776615149 484.44469657656913,114.40568712891533 483.1430135730501,114.03420766747908 480.77112678844185,113.3086689698279 479.4544861047278,114.40568712891533 476.3020637858801,117.03231050465286 474.6116179038955,118.4644627862417 471.16049800679133,121.38850686505124 468.5654316881604,123.54524018795153 468.7273212152744,123.8286152644484 470.7744712891853,124.82872772065944 470.88939005228497,124.9137311230775 470.97297977132655,124.96982242403554 471.8662907425165,125.59567365513371 474.6332791785982,127.49798960565221 475.61802353042697,128.17546307472492 479.76458435388037,131.00624966536427 482.6937815359855,133.02325636541548 486.06058207078934,135.37138415179447 485.3212713626554,136.10321601979848 486.0625885889085,136.2306299180668 487.7726436248863,136.525907295022 487.0085706595608,139.52619906096766 486.55122134470935,141.3550034853716 486.078868746943,143.16059614379603 485.6225226911511,144.94416270598558 485.30061334688276,146.20598896392602 484.98618284284146,147.435710932575 484.68994780951414,148.598716174992 483.8707411995379,151.61305356751282 482.74891518050663,152.40795394710736 480.7683450247328,153.81123972989127 480.4666376692976,154.9097627775357 479.58764594113165,158.18768368187506 478.4151097377781,162.5308376747579 477.30938146616097,166.5461539745193 476.57134763314673,169.283728679676 476.2879725565851,170.33318323968234 475.74051233880465,172.39054831477713 475.2581727532918,174.15281842366662 474.8771167283935,175.51620185824925 474.3405555518498,177.52121505246714 474.02042471236047,177.60735852197482 473.47369413744997,180.76520756011334 472.8806312359554,183.72076309337442 472.96586265174597,183.84124538373013 473.03604518203144,183.9522423158367 473.0406054503899,183.95994916937158 473.0831527542054,184.03263984720883 473.11014954298594,184.0782425308906 473.0906315944325,184.22540239121454 473.0560191575244,184.41748089494055 473.02154352851676,184.60787209939207 472.95988870023785,184.88335791163658 472.8978234477393,185.01715618560027 472.79608386031487,185.22492201252084 472.6867742274827,185.42032951217314 472.56838966065357,185.5767923199639 472.45397252734296,185.7475743704222 472.44799857570524,185.75578285348686 472.3410602823625,185.9052684506451 472.27411554272555,186.06027197253394 472.19303397107376,186.17555555693895 472.1647603073032,186.24665014081188 472.09521621457753,186.38240933020728 472.0381216546571,186.4812303457631 471.9794310007075,186.56855948504784 471.91750255623896,186.75156305474442 471.91750255623896,186.7568985687251 471.80322223082874,186.9770683256338 471.67298096629355,187.1650425878437 471.55860943544354,187.33591584367696 471.4443747128828,187.54363606794246 471.3409934288389,187.7411412910241 471.2591366115973,187.93663999605135 471.2286284162377,188.08457510196513 471.1251559270133,188.22161116648016 471.0122436821625,188.41920759496915 470.8955008118231,188.60937078598332 470.7052464153692,188.95494792307355 470.53779336083716,189.23896143716263 470.35638588504014,189.5590466740293 470.2495387971371,189.76681250098227 470.116196550113,189.91999191550178 470.0367566750806,190.07221367371397 470.0320595986921,190.2029565678762 469.9112580895241,190.4101751626119 469.88448931421334,190.45600585973102 469.7602220011862,190.66669025842305 469.6509123683541,190.860136842676 469.52919880556624,191.0555899450158 469.39453408044335,191.27448282677247 469.3561366207667,191.33668488733343 469.2519344886723,191.53619662850187 469.08616873334995,191.74610578157166 468.1281931568319,193.62717088150995 466.97102505802263,195.90051026662238 466.181460192506,197.44539238231218 465.3927617778893,198.99779894081937 465.36197996634013,199.05949937188294 464.66567258896123,200.43291539686712 464.61601126641847,200.5308243587707 464.2843429478733,201.1858613074213 464.24562626928713,201.28627841694149 464.24726796590653,201.32732083226477 464.24840803312577,201.3685000556505 464.24886405993567,201.39563365242867 464.24886405993567,201.4095424709738 464.2484992384359,201.45072169435952 464.2466295283467,201.4917641096828 464.2437109566077,201.53289773038105 464.23942430430924,201.57394014570437 464.2334503528011,201.6147545476227 464.22610832073366,201.65543214147863 464.2172157973569,201.69620094070947 464.20636235871046,201.73610328894318 464.1944600582845,201.77586882911444 464.1810528692692,201.81540635588075 464.16618639438434,201.85494388267946 464.1503166604399,201.8939341772285 464.1333524621257,201.93269645837256 464.11547621006207,201.9713675341417 464.0966423017883,202.00962818578836 464.0777627906651,202.0474784132478 464.05851845817165,202.08573906486205 464.03859008539854,202.1232700735416 464.0187073152157,202.16098349297098 463.99731965657304,202.20047541704983 463.8196516009544,202.48991565049454 463.72826382277617,202.56771382887513 463.69397060464803,202.59735557330228 463.6595861810801,202.62736213916443 463.62529296295196,202.65704948624665 463.589768472424,202.68628080651897 463.58589224421564,202.6895641997254 463.55447199523627,202.71519290797897 463.5191299153286,202.74392259872147 463.48127968790163,202.77447639676848 463.3098591998511,203.0867179720703 462.8018909061171,204.0885633302757 462.09819589395084,205.45883277008346 461.87465153842834,205.8895045149343 461.873283457869,205.92899643901313 461.87136814518954,205.97003885436882 461.86840397086024,206.01121807772216 461.8649837694618,206.04455363951058 461.8641173185618,206.05239730110787 461.8586449964539,206.0930748949638 461.8513485671063,206.13334206469727 461.84245604372956,206.17360923439833 461.83256026142277,206.21392200678687 461.8217068226467,206.25432598455035 461.8102605490307,206.29418273009657 461.79890548085444,206.3344955024851 461.7875048099583,206.3743978507188 461.77610413906217,206.41471062310734 461.765843535126,206.4549777928084 461.7559021500994,206.49529056519694 461.7464623946026,206.53551213224293 461.73656661216626,206.5759617126615 461.7267164325794,206.61622888239498 461.7159541992431,206.6565416547835 461.70400629609725,206.6963984003297 461.6911007366117,206.73593592709602 461.6777847529065,206.7758382753297 461.6638759343614,206.8152389940336 461.64951108900635,206.85436609664507 461.6340973820014,206.89390362344378 461.61877488017706,206.93293952068026 461.60331557045225,206.97202102060425 461.58698980969785,207.01105691784076 461.57061844622365,207.0496823909548 461.55429268546925,207.08849027478635 461.5374196924652,207.12711574786803 461.5199994673411,207.16574122094968 461.50212321527744,207.20450350209376 461.4837453338136,207.24271855105295 461.46541305494003,207.28047757313743 461.44644233850664,207.3189206355016 461.42669637648345,207.356634054931 461.4073608385503,207.39411946092304 461.3869764389672,207.43165046960254 461.36604480713453,207.46899906756457 461.3456604075515,207.5064844735566 461.324363954219,207.54387867420613 461.3029762955764,207.58099925873077 461.28209026646357,207.61793743253796 461.260246581011,207.65546844121747 461.23885892223876,207.69245221767972 461.21742566100585,207.72943599417434 461.19617481039325,207.766556578699 461.1752887812804,207.8039507793485 461.1538555197883,207.84139058265308 461.133562325645,207.87878478330256 461.1132235287819,207.9163157919821 461.09283912906926,207.95375559528665 461.072956359016,207.99165142543356 461.0530279862429,208.02941044755042 461.03314521606006,208.06730627769733 461.0128520219168,208.10479168368937 460.99150996599406,208.141775460184 460.9695750751017,208.17875923667864 460.94627210365,208.21496776751866 460.9224219000783,208.25085707961117 460.9114316532722,208.26617958130595 460.89697560260703,208.286199159454 460.8711188809161,208.32163244470416 460.844304503015,208.35624488161224 460.8168972900148,208.39081171586523 460.7890340502047,208.42501372865087 460.76117081052416,208.45907893337406 460.7328059413138,208.49328094612727 460.7045778800039,208.5271181374455 460.6756657785439,208.56081852070133 460.6462520476837,208.5941084798023 460.616382289884,208.6266687959685 460.5856460810547,208.6592291121347 460.5542258319457,208.69087737461626 460.52139189968705,208.7222064183179 460.48846676211826,208.75271461370986 460.4804862923614,208.7592814001551 460.4541279412702,208.78276678225947 460.37596494135744,208.82932712231334 460.1176713408969,209.34696318501395 459.6002176889462,210.3405544574348 459.0495652832371,211.4379374379896 458.7982488933442,211.93906532918595 458.6834669385338,212.15139142446495 458.68624870224284,212.2784405012659 458.68802720689223,212.364720778836 458.6566981630934,212.61425866404701 458.6633561550108,212.89138617287853 458.6954148416796,213.125236734895 458.6915386134712,213.20216846227842 458.66536267313,213.27827934138452 458.5215774114198,213.4898301910737 458.19301007536365,213.78916620685757 457.87857957119274,213.97549877248042 457.81195405033577,214.04590931610605 457.65143260365153,214.3141899043131 457.6081556569661,214.35208573446002 457.48210983915993,214.46253543438175 456.3947594490067,216.61525572110844 456.0828370924848,217.22947826787313 454.66764900927495,220.0108771520621 454.4080785335652,220.41382246523003 454.3808993341643,220.45577693423797 454.3773423247359,220.4607020240962 454.34993511186525,220.50315812260155 453.12322292033025,222.40068579135664 449.76084584585493,227.68936582804946 449.2794183140916,228.41239637811645 448.82225140999,229.09899038390606 447.6005099110331,230.99656365531624 446.9240397009876,232.04775111728455 446.07610340017163,233.36548626546553 443.208834662535,237.8229205836938 442.97781146691506,238.18669319156277 437.3584663708016,246.9164605348934 437.1354236448089,247.2723894811651 436.98621166371066,247.48120416983275 436.4371097493108,248.33379194428485 431.24948525969796,256.3719033839052 428.1370564944265,259.5336742528748 425.0854617093834,262.64560138851925 425.03119451576225,262.74715856512904 424.93998914833395,262.9179406155874 423.0743833582501,266.4146631963085 422.90916483517736,266.7243966239937 422.7890017636988,266.94958267610315 418.42683145163033,275.0879288145262 417.6407779926927,276.5532798498411 421.7255015771173,278.26502218519056 422.90916483517736,278.76067775431136 431.3358111399879,282.28932221363885 438.9120585990534,288.57920917097726 441.74941197617045,290.93486140014124 443.3701313548091,292.2842904135237 443.6923599178574,292.54791952796495 443.83714843862714,292.6683562156332 444.94980831822164,293.59267701155045 444.9155150999639,293.61839692514656 444.8905704320224,293.63718523083 444.95810800662883,293.6934589425056 444.98706571080874,293.67909409715054 445.02888337175426,293.65829927338024 449.59964035902067,297.45463148601004 449.6311062107199,297.4801233862012 447.2677471279886,301.3817521954895 446.1358885186206,303.2286608853297 445.418786317439,304.41688441181304 444.9246356368104,305.23558939225944 443.133134207681,308.15995268988127 443.11115371419845,308.19570519391135 443.083974514668,308.2438616278972 442.9810948602835,308.4233537909176 436.58011976543116,305.8046196794648 433.1866416604971,304.41688441181304 429.88473374462075,303.0665433447783 429.5922381313422,303.1965109933183 429.51904582400755,303.229208117547 429.4099642046452,303.713964645269 429.34014649585947,303.71204933255717 429.28578809692823,303.9143428374347 429.34571002327755,303.9361865229196 429.2407326454637,304.41688441181304 429.10556629081105,305.03543921353116 428.7201324083042,306.6722107368642 428.4952655749422,307.51330663501284 428.4952655749422,307.5133522377003 427.34616915107034,312.178825998974 424.8740020650368,322.29135791741066 422.90916483517736,321.4950894573539 415.88206489310204,318.64747547639803 419.37956271951015,304.41688441181304 419.4077907806905,304.30173763547043 420.6341381507257,299.2499635405955 411.6121488103709,295.58834165561404 407.1916982685725,293.7822017650048 404.6289642526704,292.7354833660524 393.20549198583814,288.06973598868626 391.8713854742801,290.2793228219609 391.34025101725405,291.0888616630029 385.24102888042717,288.56083128944863 384.90694361954326,288.42416004640097 384.6707217181346,288.32752795961704 375.23507043383347,284.47879826342285 371.279174430924,282.86569453291173 362.83615676263923,279.4063661528401 361.68354893218833,278.9517529990102 360.4525044856351,278.4495762461316 358.27853334832815,277.5631056776738 349.76474031504756,284.7666880056231 346.9047224041683,287.1865944161547 346.76203160682786,287.30725911722794 340.20577937405903,292.85167900410966 339.22436401805936,293.67325695364 338.85963375391543,294.01719239411085 337.28200891121236,293.57370629511706 334.44365227516533,292.862441237446 334.1530719745662,292.78947694354866 331.95757637058665,292.2012023238175 330.58160659523355,291.8403026850001 322.90973030854093,289.84897029588996 321.81248413595137,290.6507110780222 321.4679102579207,290.9021186732576 320.24233813347536,291.79734495696493 319.71056523888944,292.8903044771913 317.77222316828085,296.8738357064088 315.2526748938837,302.07454816625705 314.85679799669083,302.8388035423972 314.6542764783112,303.2128367541051 313.9852395057729,304.41688441181304 313.90420353684095,304.5706566612373 313.0548535528754,306.1928353258103 313.18878863486907,306.2409917597961 313.37977267432257,305.8746654016555 320.25565411705094,308.33602465163284 320.0705984266449,308.6973347146051 321.9220673849731,309.3545149894049 322.6335604560167,309.60797470541456 322.6941208199259,309.48170087423586 324.07218831857864,309.95104369485585 324.17784973667216,309.74897820338333 325.56198239240246,310.2367901109393 325.3948029539304,310.5832793016817 327.2068711933928,311.22723479821616 328.94488067462044,309.7892453731168 328.6727238583346,309.52625469620295 334.59300106429356,304.51570542740126 334.70650614398437,304.41688441181304 334.7960242120734,304.3389950280575 334.8269884343724,304.3632100530966 334.9150016138721,304.2693141273666 334.89210906664005,304.25412843370185 336.36772070585863,303.0216703040314 336.39567515097895,303.0460221371329 336.49185121085577,302.9652141816059 336.4607957832465,302.9430056746536 336.67626846370194,302.76957866851626 336.9918390348329,303.0247256838328 339.71468407319946,300.74536674446 342.56311890243273,298.3648154499772 346.9047224041683,300.1344275909342 352.81911686392925,302.545167862029 357.3917891637455,304.41688441181304 359.27125816978423,305.186156083154 361.0550983480662,305.9163006518511 361.756741239523,306.20286791621186 366.7255640527217,308.2349691045528 366.6784108778279,309.2710164755439 366.44848214657765,314.32999579445624 365.94999921106034,324.6891470263649 365.7822269377484,328.1714591590435 365.69644828970814,330.02165124209006 365.68276748450313,330.150342015478 362.6083713576678,334.14436186197173 361.83440260977636,335.1550997434891 358.41976485979905,339.61203243218756 358.0320052402635,340.12036554738893 356.2785820520309,342.4191056273176 354.50705459839446,344.74146789741303 347.0240190247469,354.5045920533682 346.9047224041683,354.6602796155043 346.2158938668869,355.5593821273228 345.86292909500935,356.02124610784523 342.7292950819747,360.07327256797646 342.65432426986104,360.1682173554535 340.6381384181195,359.52011201471555 338.8646956518037,358.87661254502353 334.68571132018167,357.44646678152145 328.7459617682595,355.4285480277856 327.5058423878388,355.00672320359166 319.68115150789964,352.3009791716341 316.8487688233608,351.3483847118166 313.8212522552296,350.3198161809879 313.37662608911376,350.14246734405197 311.3231828447852,349.32535845753745 310.38960470408864,348.954243817601 308.90245558594387,348.4420800769435 307.52429688185134,347.96744734499794 306.6349989470294,347.6609061051766 305.58869097223186,347.2998696583292 301.5325602704873,345.8215674608413 296.35920942091934,343.9467955312558 291.75730580073366,342.4191056273176 291.0933307260836,342.1987078570039 289.0716269496439,341.4766805659965 287.7504716001617,341.0700414354349 287.39445144851504,340.9610966240702 287.08540206101236,340.85087493758584 284.45057020227495,339.9147886492727 283.1648025354202,339.45748493714103 282.3338304329185,339.18386883492093 282.32876853503024,339.1825919598013 281.8778035959065,339.03187509014606 279.861207320075,338.36429740347734 278.2067875581481,337.8157883239498 276.4422373150794,337.3850709764115 274.2495234748088,337.1279174430082 272.6572145681004,336.9556761066803 271.53744066977856,336.8606401138607 270.9002343704393,336.2578182380246 270.54936732199104,335.9257850980121 270.2807675150041,335.5964425163337 268.9912604281006,334.01174925775274 268.13621010868695,332.8438189255423 267.9309524294478,332.56390965296936 266.8061166332377,330.5953786057163 265.98782207701095,329.04739550753754 265.5634891050384,328.363355252052 264.7970904028138,327.12957464454195 264.0586005429896,326.8217109268811 264.0104441090362,326.80018646017606 263.1262536748224,326.41384052388736 262.76143220523875,326.25550800607226 261.3540877834966,326.16681078626056 260.30522605845977,326.52529348283633 258.58874104403435,327.8021686264439 256.179460058809,330.1304592453924 255.3788593437664,330.2900686383595 254.43643428241296,330.4788181461916 253.5332275290459,330.8221151490702 252.30067819403283,331.3022202030589 251.31260484624534,331.6657647975229 250.4740170957457,331.97481418496085 249.31370241172758,332.40553153249914 247.64031193336731,333.0984187086416 244.6837987437017,333.6405890151288 243.70963421445933,333.50004154397 243.0674116199517,333.40755930142205 242.472022981558,333.3226471043789 242.24400956311683,333.28972196674533 239.88534755677406,333.20991727027797 238.51977519338715,333.1630377114442 234.63720830584234,333.62284957116 232.89801315493477,333.715103800303 232.01003769795233,333.7622113725741 231.6564800912348,333.77475211059226 231.07896770490476,333.7951821128628 230.6735598467753,333.76727327046234 230.063076720027,333.72422433705225 228.71396692542447,333.76093449742206 226.8214099492799,333.8116446816796 226.2374675845022,333.8280616478089 226.17161730923505,333.82933852296094 226.17161730923505,333.7888433398549 226.16778668387616,333.3188164789552 226.16523293350727,332.9705031808435 226.16413846913755,332.74340181602213 226.14881596731314,330.46490932764647 226.30970223549713,328.45962251733613 224.32343174427527,328.4913163825052 223.60646635112371,328.50399392855337 223.5887269072197,328.50399392855337 223.63811461357287,329.0537798832653 223.67482477391027,329.4489727401785 223.8547273611179,331.43775137901696 223.75846009593096,331.440305129321 223.67231662639088,331.4428132769052 223.52793852984078,331.4466439023289 221.95715408980496,331.4922009833556 221.30097707403235,331.23381617752005 220.8665203064129,331.0614836358173 219.95825165515757,331.0286041008712 219.37175554014064,331.316129021604 218.73076421790316,331.6315627847373 217.9618573681592,330.94747692656426 217.87826764885838,330.4294304397412 217.67050182197022,329.7986085161298 217.44248840352904,329.034717961457 217.4209639368564,328.49637828039346 217.10046827573765,328.4913163825052 216.40625862178814,328.47991571157667 216.2175547166435,328.4773619612726 215.4321852979855,328.46340754007235 214.6506009020962,328.45077559667925 213.73854722807224,328.43682117547905 213.4585923527794,328.4317592775908 211.98535205317978,328.43303615274283 210.39308874906158,328.40644978814953 209.3606895929388,328.3887103441807 209.40629227665295,327.39429822341776 209.475973177279,326.8470660190099 209.52791463400104,326.4366418657121 209.56083977156982,326.17442643445287 209.60899620552325,325.7943736684846 209.63685944533339,325.5803602738987 209.64187574050177,325.5435589081539 209.6976478227123,325.0964245944863 208.24976261527382,324.7810364340081 205.49080025140975,324.3731204283269 205.4008261565108,324.3693354055583 203.7515594977823,324.2945926069791 202.7292841373064,324.14766076009255 199.14947346684667,323.78539304078055 198.46671008651316,323.77394676719695 196.5285960292447,323.7410672322508 195.87241901347207,323.7080964919298 195.6506987654485,323.6979270934658 194.89574633671035,323.65898240157185 193.93936685422148,323.6105523514936 192.8816582083982,323.55610274715497 192.2356049884021,323.52313200683386 191.74409926358206,323.4978225173926 189.72367236226205,323.464897379759 189.51462966025426,323.4610667543353 188.9522117620196,323.45221983367844 188.5177093918099,323.4446497881736 188.04905061150203,323.4370341400137 187.67656789107096,323.43064976428593 187.58536252364266,323.42941849182137 187.2079091106335,323.4104021727329 185.68655797967074,323.3318287487301 185.19632912997034,323.24823902949413 183.42033261328564,323.1760499811867 181.38472001830084,323.09373713713507 180.5600866889366,323.21782203947714 179.56567456814122,323.36863011447485 178.81067653681276,323.36101446628254 178.65995966712515,321.96885573830235 177.73272029943647,321.89283606457116 176.6761973235523,321.8054157199115 176.1935841219794,321.6179886899189 175.4614330351631,321.4431480005995 174.75331456266844,321.1771475466041 173.69815966721401,321.0277075521009 173.49668701074347,320.5931595791389 173.172451929576,319.8964417775728 172.5162749138034,319.84199217323413 171.68525720871136,319.7723112725433 171.18362768798525,319.62665630080875 170.70990700978913,319.48857137454667 170.23481825103363,319.35048644831693 168.9440342888809,318.9426160452908 168.42594219937038,318.7842835275081 167.89011066595586,318.6195666339652 166.21676579018586,317.9887447103537 163.80360857688177,317.176743324415 163.298194033387,316.9994400901665 161.44239282029972,316.3508787225862 159.93750425812135,315.82517098491576 158.58593191871933,315.3526359763995 157.81953321649473,315.0841273747875 156.89352512120578,314.717618605897 156.5616287891909,314.58628287683 155.51404393927373,314.16318117748403 154.02310979848997,313.656489758902 152.37885943492986,313.16626090910444 151.49973089860433,312.8635502947068 150.37357262468433,312.5316083600693 149.3108020809728,312.3719989671345 147.77175710882588,312.2364677911765 147.08894812577248,312.0249169414873 146.5620091156051,311.8627537982485 146.3833834036467,311.7906103526285 145.97929802335676,311.62844720938966 145.26105575508558,311.2446550233727 144.19823960878378,310.29201496090013 143.62437543706272,309.7232582897872 143.24819889930282,309.3394205010827 142.30828198546874,308.02711207225735 141.89913470742016,307.59010155436624 141.20241690582165,307.16695425233274 140.4638814432776,306.8655205130548 139.9141410911883,306.6108751273004 139.19968384568574,306.53107043080064 138.44473141707718,306.49563714558286 137.65297762269145,306.32841210445577 137.11591481674753,306.2473305328364 135.3449801979511,305.4568536135703 134.88261458793122,305.18706813680626 133.797042702557,304.871634373673 133.00533451076154,304.5359530189543 132.67216130362706,304.41688441181304 132.20094877307994,304.2483824955339 131.288895099056,304.2357505521732 130.55004041773202,304.41688441181304 129.98160296539902,304.55624621319475 129.14178394237,304.75001201622763 128.29307239609386,304.9476540474041 127.9750848826241,304.90205136368996 127.18342229354852,304.79059840474105 126.27136861952458,304.57649380474777 125.08182261526655,304.5030278813207 124.13050503053633,304.71713248128157 123.57948780345703,304.8906506927614 122.79667213503832,304.97802543473364 120.76862958559077,305.1997456828868 118.89130390570124,305.71049574032986 117.8956605125061,305.98128447612106 116.07656945975621,306.476620826462 115.34948027082817,306.7388362577536 114.44376536994173,306.9300939132023 113.7812495810316,306.9580027556027 108.9169481188368,307.81934624533676 106.27833123733079,308.23232414890623 105.74760720439477,308.3399920851189 105.53733322998723,308.383041018529 105.17629678304259,308.44004437317176 104.57584624676063,308.53375788818425 103.92473112887626,308.56166673058465 103.77273738419863,308.56800550362493 100.3398585605283,309.0037847490515 97.0222633214574,309.31028038621776 95.77580516789921,309.41544017481385 94.62433740453795,309.5117530427855 93.65272662553485,309.54718632803565 91.99967494403774,309.51549246286663 91.85652812001699,311.36495490297847 89.8727657764441,311.32313724203294 87.74590221131112,311.27881143347076 85.5278788814697,311.27881143347076 84.85902431968131,311.2585638419178 84.68418363036193,309.19381113203565 84.2168017251737,309.11268395772873 81.09766936539455,308.56143871717967 80.88903708760641,308.559249788343 80.51792244760514,308.5553735602318 79.88833179639342,309.0404949094537 79.24355545164654,309.32806543284164 78.5835934131053,308.9594133378343 77.17880274173199,307.7623428906941 76.38704894734626,306.9808040974598 75.61814209747268,306.12192315265486 75.36988108734887,305.4809318305794 75.4065912478159,304.7133018558578 75.44658480139212,304.41688441181304 75.48516467181871,304.13186763869675 75.11272755397793,303.6314693904676 74.49326069867233,303.102022232716 73.52424927275797,302.500294821282 73.00866533089645,301.92264562685716 72.51588273069758,301.35895085363245 71.91675467238474,300.6584936320176 71.61395285257976,300.241685102992 71.45438906223528,299.8338146999983 71.1579260155678,298.60254224010487 70.81595149049629,297.8450360611598 70.29402877549728,297.321882073761 69.82026249458129,297.03308027790854 68.21527604172745,296.1032871599482 67.46155488564824,295.747312610989 67.1462123277279,295.34578098100314 67.06763890372508,295.22922052147845 66.0871812041947,294.7073434091993 65.46648307635974,296.03232938410525 65.18529692866716,296.02854436136903 64.88883388199967,295.93478524366907 63.936285024869704,295.55856310315687 62.76447846451568,294.74022294414544 62.29458841167846,294.37293892963265 61.77266569680906,293.96753107153563 61.41290612498404,293.634403467121 61.198801525087994,293.25184255356857 61.039237734743516,292.36259022143406 60.88469023969702,291.8507913022764 60.42866340268505,291.1642428991742 59.94477332599256,290.87161047786566 58.748979754036775,290.28132934004765 57.64813096955805,289.92786293870506 56.49538633094756,289.65424683648496 55.62893534063778,289.4896211483494 54.73717486088673,289.41994024765853 53.33238418951342,289.47311297684513 52.18465584620091,289.6428917682439 50.64816462429326,289.60107410729836 49.61955049080947,289.5757646178571 47.87146281652515,289.4630347837561 46.024508523965125,289.18180303337607 45.963720146586205,287.8948040939919 45.815511424547594,287.3893439478745 45.9840133408591,286.6495772128983 48.01205589030664,285.6424875460872 47.929743046255076,285.08390027343825 47.85372337249152,284.5759319797042 47.62315620368147,282.7746259735782 47.37617206880691,280.3918857502587 47.29381362203547,279.7192461657017 47.127865456092835,278.35622755258646 47.040445111433144,277.15281833243836 46.996164905558494,276.5510909210044 46.96953293827772,276.18376130380415 46.941669698467585,275.8062622881399 46.82638611412737,274.9752901857678 46.72505695092254,274.63833195592946 46.21836553243777,273.8364999684223 46.173994121123364,273.76681906773143 45.37220773640088,273.06631624342907 44.08644006941653,272.02634704163944 43.86978171915162,271.66526499210454 43.56962485502565,270.9660390429542 43.198464612434115,270.1186043717653 42.92352603243927,269.48016679996147 42.88681587197225,269.38567803932676 42.81968872171506,269.21288947081405 42.413049591056264,268.18427533726543 42.41811148894452,266.61859839780533 42.44474345622529,266.4146631963085 42.55491953995738,265.56973667270375 42.88681587197225,264.28209929575985 42.91344783938264,264.17885481987554 43.314979469303694,262.9906768960797 43.9065374822089,261.4249999566196 44.651366115040965,259.77568769526846 44.99721686832084,258.57729477032115 45.273341118125174,257.8767919459864 45.702781590446634,256.8038976065955 45.95738137357832,256.17179880783203 46.16263905294711,255.663830514098 46.51729112403437,254.78219383012348 47.25327283620956,252.73768871182673 47.904342351503665,250.93633710301327 48.25780875278145,250.14079828585892 48.489607193991255,249.62019804876422 49.43964790360183,249.24652965852368 50.01351207532289,248.8563530967789 50.57592997329833,248.49659352508348 51.052250004583186,248.11909450941926 52.08209541059634,247.0613402610057 52.28219998663712,246.6116977997215 52.63311263767564,246.11129955149232 52.79527578097925,245.48430825330456 52.8839273980387,244.5101437240946 52.83330841915616,242.5112412894796 52.750949972384724,241.70056238134796 52.79527578097925,241.15834647217326 52.783829507363244,239.80928228029063 52.58878682908111,234.30148134840377 52.400037321216594,233.55920646581095 52.268291168091984,232.7409119095194 52.28858436236487,231.74011541306106 52.05040154542731,229.97305702237577 51.93388668855773,229.11417607757082 51.786088390609166,228.41239637811645 51.754029704069964,228.2604026333416 51.533586331036425,227.469971316763 51.56272644583658,227.01649823005508 51.401840177782205,226.10572143121558 51.37402254069194,225.94478956044134 50.947090215889865,223.9408252279381 50.534112312352796,222.93752058386318 50.38462671519455,222.36247074239745 50.370763499369296,221.5213748442488 50.52654226694516,220.62578373907405 50.63804082851675,219.98857743973483 51.20547502179017,218.41022295422655 51.300556617297254,217.89846963772393 51.681795052945425,217.36263810427698 52.444408732530995,215.85391891673973 52.61286504612262,215.4067846030721 52.78136696230451,214.96088156183663 52.881419250389705,214.48583840573622 52.87503487479156,212.12088322907303 52.79021388296139,211.50269324885463 52.678715321389795,210.97064673814393 52.444408732530995,210.5741770060463 52.164453857367775,209.59873560171673 52.056740318435196,208.49163924954027 52.006121339423046,208.35227744815853 51.82029040342719,207.84499319467182 51.55643327554857,207.1248356136888 50.905318157664205,206.06078819492242 49.9400461517986,204.85104020173404 48.92534083673033,203.9820354611526 47.955052535696346,203.41583254034373 47.529397086013894,203.02059408071068 46.74028824730718,202.67095830479178 45.89782426872877,202.33783070034477 44.974415526528574,202.03379760814002 43.88628989065588,201.73610328894318 42.94381922671216,201.49162730162038 42.88681587197225,201.48743185472932 41.416129322741504,201.3814512178235 40.314094868453296,201.28135332708322 39.66799604573731,202.32392188183204 39.613546441366275,202.41257349895628 39.01692653057282,202.7520398764112 38.42286037001862,202.76977932034762 37.35999862099694,202.38087963378726 36.36941712569006,201.8779732379415 35.677806824699665,201.66268296817117 35.214164339560185,201.5080898704372 34.29198686975974,201.51949054136574 32.87451865237066,201.6562985924758 30.437283221895452,202.1807294550266 29.464441170622205,202.38343338405892 28.7347982314549,202.5531209701151 28.52197050654887,202.60255427922056 27.68082900580997,203.00540838704592 27.091824743144024,203.47662091772264 26.419139555867137,203.83004171637776 25.28417996388054,203.9820354611526 23.954132091151152,203.86424372916338 22.5062012809928,203.5285623744447 21.95139903114488,203.25873129499317 21.496603466532665,202.95597507790808 21.210355420951828,202.51896456001697 21.136889497557142,200.8063101709828 21.103918757268485,200.40350166587731 20.682093933074537,200.0171557295562 19.554704386625186,199.48004732095725 18.175223204693143,198.95812460602303 15.146429761442343,198.30199319293789 14.186265256184862,198.1676932894444 13.142465428906705,197.51156187635925 13.47942365880983,194.61953088149866 13.160204872940335,193.76324928968526 12.68894673954373,193.17419942433185 11.913701116662267,192.4508952581724 11.426071619791411,192.24946820425973 9.290315531411288,192.21531179416158 7.690436579165578,192.31659535467895 6.243782644126857,191.91250997442143 4.884594656467703,191.3468998884849 3.2150348035959317,190.6520973996306 2.632962148777811,190.4101751626119 0.7068872000949079,189.6095744475693 0.10137476592469864,189.18902649849497 0,189.02057018490336 0.26859980711656967,187.94507649252097 0.5726328993213039,187.33960966107063 2.3941864970003097,184.67312953975448 3.4189700051252077,183.61282154106928 4.16001361518865,182.3524089662785 4.429799091985099,181.68109185956098 4.491909947203522,181.30988601421717 4.660366260795148,180.2902100067004 4.676828829579538,179.29575228328235 4.845285143171163,178.69790109995952 4.884594656467703,178.6364742850208 5.089806733116609,178.31534018640704 5.457136350349256,177.9175935791898 5.993013486483669,177.53503266563735 6.988611277088534,177.2145370045834 8.316196604888802,176.88642569536955 8.974881768310416,176.5799300582033 9.404322240761488,176.30503708086354 9.940153774176025,175.8464564935799 10.368317371377856,174.91287835288333 10.536773684969482,174.16421909459515 10.736923863730134,171.10505426398242 10.752109557394894,170.46283166941 10.82812923115845,169.7128955359698 10.904148904792393,169.26826936991878 11.134670470882568,168.84010577265215 11.303126784474193,168.61081547902654 11.532462680884487,168.39675648172076 11.854235217122852,168.1991144505767 13.171605543836472,167.708931203499 14.029209613489375,167.1578683736674 14.85511981797325,166.72970477640078 15.591101530148439,166.1026678755255 16.03572769626427,165.56432819446198 16.92493442564645,164.20637147923497 17.446857140645466,163.21451310877606 17.81295548534875,162.23916290982143 16.878100469532537,161.0509393833381 16.296666252274232,160.30985017052237 15.379505077771775,159.14319671343156 15.165491683185868,158.68333925099589 15.19586307051539,158.24003556275196 15.901427792770793,157.00620935258686 17.489906074120366,154.41702578018632 17.657131115182626,153.98626282992814 17.517769313800894,153.37318035028548 17.216837204085092,152.40795394710736 16.667826494995378,150.64718872677486 16.50060145393312,150.11765036364832 16.41696613191244,149.53243112371862 16.486647032668113,148.90794797314743 16.598145594369317,148.47595375045708 16.999677224290377,147.39795191049052 17.002230974529635,147.39038186498567 17.21127367666704,146.62398316272868 17.327788533536623,146.26677734130496 17.392361933684167,146.06790403769634 17.69894877612816,145.58018333551533 17.8876526812728,145.4687303765664 19.250671294420453,144.6656215139396 21.563730616919468,143.70541140596225 22.689888890969065,142.94922770485672 23.47402703722728,142.42224309200185 23.189010264046196,141.72675656290028 23.211766003248204,141.49751187196213 23.865434871371832,140.8210872646365 26.231712525842127,138.6055264797566 27.221017146029375,137.8923461093737 29.463164295502576,135.84022534288465Z"/></svg>