<svg xmlns="http://www.w3.org/2000/svg" width="500" height="500" viewBox="0 0 500 500"><path d="M126.42839211002588,105.02442268842346 131.52821545123996,105.02442268842346 131.52821545123996,96.25533255483191 131.52836022979176,96.2551009092025 131.81875698375896,95.74194792549159 132.92628370044199,93.14960167086309 133.72418707585405,91.28358029172298 133.84965214068475,91.02619304016456 135.6039045028569,87.43003940003909 136.63823120031321,85.30825228874652 137.84716079184693,82.82851476640262 137.8712808931983,82.77622076523642 138.73459520357605,80.89488181874529 138.7346531150297,80.89465017311588 139.5531150401096,79.11092090432709 139.61102644783557,78.98143099667745 139.7952426357295,78.57280810390702 142.95459948329028,71.55026811534533 145.6780571648921,65.49690449048647 149.33493091604402,56.76513825914396 149.33507569459584,56.76490661351454 150.02786986492185,55.110638296648574 153.35299811703862,46.8566411789015 154.8579129133725,43.121384337453904 155.65795901092358,41.23781580176674 155.65819065649129,41.237236687682895 157.91192891027956,35.931509336342764 159.32592279656097,33.351237610212216 159.80757197452638,32.63539469954263 159.8077167529959,32.63516305391321 161.8000429123245,29.67386322078437 165.91175285955327,24.57936772904703 167.0056414397655,23.569942936990266 170.62348290210252,20.23276911214351 173.83273042731366,17.252763894320495 178.74321242110085,12.693833101058997 179.78773152616944,11.723817021957222 179.78805003891762,11.7235853763278 181.97982308643412,9.68805730681355 183.2504862386719,8.505709051353797 183.2508337071469,8.505390538605626 183.98257329918962,7.824439251086425 185.9266592558978,6.4868884229670964 185.9419189118363,6.477999021868565 188.35893837964883,5.0792937472113255 191.27460402349337,3.3926239977267 193.8412376131325,2.325287797985093 196.25822812513593,1.319858893061589 197.75989988278133,0.757654947037547 200.57016676460077,0.14877440640709302 201.33830367637484,0.09891268436011515 202.87782053894063,0 203.91747508577077,0.0023164563148005287 203.91782255424576,0.0023164563148005287 204.66018888963856,0.003995887133258136 205.8674969618692,0.007209970259499559 210.28483436319453,0.29274216596766156 211.45672960958288,0.3764241500955113 219.7444890781012,0.9667730402692838 221.4440441157559,1.0874025025266465 226.36492120716085,1.438113987591652 228.0472186453721,1.5493618018059627 228.0475661138471,1.549419713218462 228.55411719704745,1.5828925068654869 229.81305328922113,1.6657637313006446 233.24349343618252,1.892573759590121 240.6207697526076,2.3791743628510047 251.7084010052453,3.1111166448580456 252.17699116070025,3.1420702922876718 252.17730967344843,3.1421571594064206 257.42390947748237,3.48916231438009 260.25273696554706,3.675752870021887 260.31226989265843,4.249220584830612 260.18996099958264,4.887056829324062 259.8835517413556,6.483645384134605 259.49615337947614,8.505390538605626 259.4960954681048,8.505709051353797 259.21594903336813,9.972807698514695 259.1178181529328,10.238244635731569 258.3480886774178,12.322215597810011 257.6700329602767,14.099719390269486 257.28156323741007,14.833254235996812 257.0161263002138,15.333550887182176 256.08551893402586,17.090177617184494 255.70990554358187,17.797217993894872 259.6084725547806,18.851668905425264 262.36650334680513,19.59727827967111 263.37670994291005,19.80561456889583 265.25402404656165,20.192491728083333 265.83232736396434,20.31152862662041 266.60127503543106,20.526264126411938 271.4569728375203,22.39715006381106 273.87879895219993,23.33013179768515 276.3067347203016,24.265401032147214 276.3070821887766,24.265487899265963 278.48918403118756,25.106100937857416 279.22112631323574,25.330507642713343 281.934912789732,26.1637948882203 282.37651622926666,26.29971296210185 285.2632261692482,26.8732096326374 288.5609333697892,27.39921894885327 294.2668285483744,27.945381434931782 297.4334822332517,28.248605565697684 297.81390227048047,28.28561095521912 300.43647827990293,28.536367350601896 300.43682574837794,28.536367350601896 300.49714047945514,28.542187447064286 300.50999681196015,28.542187447064286 306.361481269553,28.705468661109126 308.43664969765166,28.763380068814545 311.65472871254883,28.85265050379594 314.0830119491255,28.92020416088008 315.49619507571424,29.015120958106937 322.66192101985,29.49370083141563 322.9160941882822,29.51061096246635 324.5662507952311,29.656084418628456 324.56656930789694,29.656084418628456 325.90976649830293,29.774397424571017 327.20313092234755,30.003639731979717 329.79226309387036,30.463716910517405 334.2184898963354,31.248734997697664 335.3332555390459,31.446618277830396 341.21198731393594,32.63516305391321 341.21317449783044,32.63539469954263 341.6826043687049,32.73031149676949 344.23070630782564,33.33033159202824 348.6959943547501,34.38287142713132 348.6963418232251,34.382958294229496 351.81307587472526,35.11834630501277 352.8586952965079,35.30977246318677 358.3506367793703,36.31276908897048 360.1628005493507,36.521887182202214 362.0127225571534,36.735059073979706 363.11946746987053,36.86292746220282 363.7395828236412,36.93450596212647 364.9340345632845,37.21039590845591 365.91852849437953,37.438016696438076 367.65746328924183,37.840182467270346 368.84386534324733,38.16674489533945 369.8757887171878,38.452277091027035 370.56913304591194,38.64370324920103 372.8257379144338,39.26706164178356 372.82608538290873,39.26711955317548 374.0864403044623,39.61534084772934 374.86905506820904,39.55178307777846 374.91248862404467,40.596620695636375 374.9197275499899,40.77194748247292 374.92696647593505,40.936821260217464 374.9535188564468,41.57706082812389 375.29615170012653,42.61144543688982 375.4208349609091,42.98624806757937 376.9903788883251,44.226855199198965 379.57114286137954,46.26710304844099 380.529866216011,46.91298897859288 381.30448920549117,47.43497345196924 383.3908634909826,48.51117009710313 384.07937221719516,48.86587746932197 384.4686816554813,49.811744491407275 384.3576654869787,50.42464987487723 384.1807461364013,51.395476713692275 383.8461050669058,53.23578542782244 384.27563397790135,53.336319631588516 385.83278486411234,53.70229077261261 386.6210459900634,53.888070568541146 386.2840305529434,54.771219536074504 385.4604145125215,54.88544978778563 385.2206902403351,54.91843033446756 384.95768558221687,55.659985910167656 384.8322205173862,56.01228995895294 383.9240827774374,56.6203597398907 383.44469214443603,56.66057921253838 382.9130364659952,56.70482352802557 382.807435014047,56.76490661351454 382.8070006784738,56.76513825914396 380.16948352577873,58.26599925699381 379.20992045581005,59.027708002577114 378.41039556101265,59.66151940423106 378.12246004185033,59.92776710118177 376.90632048001595,61.05058242950957 375.1424258683828,62.08085532833781 373.53379174078054,63.72168819861497 372.82596956008376,64.15802169998253 372.8257379144338,64.15819543422003 372.09084215063615,64.61126533242138 370.191000509374,65.78075725537617 369.9054972693721,66.45394841425828 369.8926119811403,66.97115519649437 369.87972669290855,67.50602495808195 370.2947777520137,68.0312524702908 370.992928727605,68.46636983209875 371.2519085429043,68.62724772271004 372.12622602075163,69.1717886893826 372.47771930976194,69.39135979170632 372.65466761606615,69.50156520057794 372.8257379144338,69.51835950882423 372.82596956008376,69.51835950882423 373.71800792867447,69.6061242472041 373.9005736414562,68.60874502795961 373.94319643759917,68.37872091654388 374.022013863468,67.95000276528218 374.07028302173296,67.68297326434502 374.1386184828858,67.31057395706844 374.3437696446494,66.18532634962142 374.3718856330929,66.03330890438183 374.4217763108256,65.76225456060517 374.4531353381221,65.59092366090188 374.7466882637619,65.6223116438841 375.01293596073316,65.64964582832057 375.25344203696767,65.67538744903675 375.78188363228224,65.73086657762295 378.2310439312749,65.98906458889465 378.17475404301655,66.3614928518569 377.99699497710196,67.54462291132367 378.3323888948365,67.48430818020528 381.75805135065764,66.87140279671473 382.05319684003825,66.8955518537312 383.0441478930303,66.97515108362762 384.1050269708337,67.21003975330237 385.14586870155836,67.44006386471808 385.42170073645474,67.50118935554974 385.61156328663526,67.54303034760339 385.9493605278034,69.39457387483256 386.75288130969295,69.24739203214575 386.9869302639482,70.84557315065601 387.8081719366634,70.71043688078146 388.0156685104892,71.34106315501542 389.4940019707491,71.06757653209895 391.0495892488638,70.49972622382944 392.7354482386763,70.03724572187879 393.8907808224066,69.82940167961915 395.2063253155868,69.85705437680379 395.4331642996237,69.84017320143874 395.80394208747373,69.8136208210093 396.06295085841754,69.7943073665456 396.473948118977,69.76456985867559 396.95551042967963,69.72918598858068 396.9557131196851,69.72909912146193 397.0860427427542,69.71954373920195 397.3530722436091,69.70023028471769 397.2774689008665,70.86407584542701 397.24935291242303,71.29841140322795 396.9557131196851,72.02954292554229 396.95551042967963,72.03020890672431 396.91152671561036,72.13974833441391 396.73055356648723,73.25454293276894 396.50530714627354,74.9355663200081 396.4331784879517,75.52539400751053 396.26323746194265,76.68417232003766 395.8739280236565,78.07245354130916 395.8224447822653,79.30226019538233 395.2293451001418,80.89465017311588 395.22928718877046,80.89482390735337 394.9412068911387,81.6682597129802 394.95055958349604,82.24607078339719 395.037426695085,82.68040634119811 395.199839237963,83.48798092167456 394.8105297995945,84.51909353590175 394.98747810589873,85.2277264763324 395.093658671972,85.65079826532808 394.3681445561763,86.76559286370369 393.45123323791285,88.4682751174276 393.20105595665507,88.93237713878422 395.35344924688167,88.95325420126196 395.8577707409271,90.88205154638706 395.8979612578274,91.03487975131934 395.60921497905474,91.59468037393042 395.68722164523086,91.99441386562287 396.4945356243716,92.98938976145439 396.95551042967963,93.17485104463475 396.95556834113324,93.1749379117535 397.9336630616203,93.56850383852915 397.95937572663024,93.57976760733442 398.5658239881209,93.84595739285206 399.36937372581957,94.68729432403802 400.9041708085341,95.19442452132222 402.8817006033065,95.17441612997025 403.3862537429196,95.17441612997025 404.2570675806194,95.54038727097377 404.68674127008444,96.10855609199145 405.4758131558105,97.84830164662873 405.54658089604146,98.10890298131339 405.6302339245042,98.41858423403804 405.62218423878403,99.29840329564072 405.83700660565313,100.1724891278792 406.21088265388676,101.45722475216098 406.47148398857144,102.44493276632049 406.6701490726289,103.19940258593805 406.95324898927953,104.34958105440857 407.0827388968469,104.87643008602338 407.12669365535385,105.02442268842346 407.38842426247936,105.90676089626412 407.5347663898084,106.54940378760409 407.58465706745875,106.77140716904705 407.6860020310204,107.2153849762267 407.77127657886854,107.59099836662952 407.85892549434107,107.94975953737355 407.91845842153475,108.19507226041345 408.1991839703964,109.34765405231752 408.4983832583228,110.65066072574088 408.55467314658114,111.1477432938 408.62787316597246,111.79603254738545 408.7042583126809,112.52632435428028 408.6512114632757,113.21405127650638 408.60855971148817,113.63553050180235 408.58603217387764,113.86474385352538 408.55145906345484,114.2057841335054 408.52974228561936,114.46959955131632 408.5096180714424,114.70929486781701 408.47825904414583,115.09214718416501 408.4581637856134,115.32943917725272 408.4444966934157,115.49431295499727 408.3069281444014,115.85304517003505 408.12514423558554,115.912578097167 407.7310281504323,116.0404464853901 407.3658967248689,116.15951233963344 407.06991152006873,116.25521094086731 406.35884630051885,116.48685657170957 405.9140866893116,116.69594570923505 405.6534853546269,116.81822564660462 405.056679342515,117.09895119546626 403.986939819381,117.36598069640341 403.21072426615996,117.6491095686986 402.3276042543534,117.97161819822195 401.59806529565645,118.2378658951521 401.363176626064,118.28853837689176 399.80281165672676,118.62714637775257 398.8802539763413,118.89177255527675 398.679185568768,118.94968396298216 398.32366743677414,119.05102892648208 398.28020492529396,119.0639142146933 396.95551042967963,119.44361035932755 396.5517231394208,119.55937526332589 396.02568486753984,119.73791613328866 395.99111175719935,119.74999066180719 394.4693157854593,120.26716848833703 394.3028494439533,120.33796518425366 393.94652055234906,120.489953673787 392.73521659302634,121.00716045602309 393.09473061211224,121.9570523209479 394.8907950107347,121.3747241607469 396.2018513697959,121.06828594685474 396.95551042967963,120.72941734465827 397.271619848739,120.58730275013308 398.1459083708595,120.25911880265802 398.5327855300676,120.11434028338418 399.0644701642352,120.18432621960812 399.29449427567147,120.21406372745756 399.6210277479932,120.25749728325206 399.8695835098656,120.28969602592697 400.1752109640445,120.26716848833703 401.1862572755689,120.67176653828852 401.8128007955097,120.9540556951642 402.0959586235317,121.04819068838404 402.50052771767406,121.18332695827914 403.0008243689006,121.29833901397672 403.71183167699684,121.1688201506414 404.85801425845756,121.3747241607469 406.3475825317547,121.75679467308787 407.575825577855,121.84930814690175 409.60029256844604,121.84930814690175 412.80632601061325,121.90316575608199 412.9591542154838,122.49756844478094 413.6846393755527,122.83380207793502 415.107493707247,123.47320193044251 415.57562057140194,123.68394154308021 416.2255313444551,123.96625965566213 416.9349460888104,123.30268179043192 417.9781332315973,123.14826102177936 419.3624185657767,122.9890046505946 421.08525398928094,122.64669031964246 421.0989210815609,122.64396848346074 421.2429177968277,122.72599999249695 422.40354927445196,123.38471329946813 422.87570098142584,123.65258251580423 423.95186867081236,124.18504895397884 424.3918505909616,124.51242214174063 424.39425391439516,124.51479650946793 424.77713518642884,124.79954690116908 425.0288760757006,124.98694821650356 425.27659212215355,125.17113544871182 426.0616102093338,125.75670664774532 426.25946453378083,125.91434149954469 426.460561897081,126.07278711101618 426.78628460971,126.33260664169384 427.2801530946017,126.72510120744113 427.7844745886472,127.12564545884686 428.2606221827955,127.37903682327205 429.3601571252943,128.13990585343583 430.1427429333142,128.67720789416322 430.5406522157187,129.15416624802478 430.7950570297186,129.45901189819665 431.7731517502056,130.36949505018706 432.3337341767825,130.79178503519628 432.88629587344843,131.09822324906784 433.7300361280474,131.44328837190795 434.50138712303,131.75291171319952 435.0129475429383,131.98218297631448 436.8025548196637,132.78729632198602 438.145809921441,133.30128902109587 439.09648359043456,133.7098540024538 439.37399505608767,134.01388889293295 439.65550240899745,134.50694661815257 439.9289890319139,135.0345774537744 440.06010045894897,135.37399621434847 440.1091514212621,135.52763517899402 440.1887796069059,135.779376068307 440.2531481365289,135.98449827440547 440.44535609868933,136.5909465359167 440.90624403698143,137.64383383945363 440.98668298223566,137.82802107166188 441.001971593901,138.26716327630933 440.9947326679558,138.37012975921522 440.9697728511849,138.72886197425296 440.94808502899394,139.0368927518654 440.83064069415656,139.53962168216998 440.6536634322078,139.8629410714066 440.48395405193105,140.0398893776491 439.9209683019206,140.10182562819404 439.4439520366259,140.06482023867258 439.42064269504954,140.06322767495232 438.9420628217408,140.093775942515 438.3975508107951,140.33590353815552 438.2487474486612,140.40183567581312 437.7243306961656,140.84905652184585 437.3213541655995,141.17240486676812 436.7905092469337,141.13861356037293 436.24359391247214,141.10322969027803 434.3236570127599,140.906157169838 433.70915906554904,140.84262835559335 432.59112142834095,140.71151692853775 432.7608308086177,141.26648194859604 432.9024242005333,142.28719946514374 433.91022747312235,142.35634568594816 435.36927643462485,142.4560980857278 436.2258440660842,142.55260744667493 437.0808480894473,142.64914576332833 437.60607560163555,143.31188391311844 438.31551930171776,143.06576043036526 438.81659775691014,143.06576043036526 439.37961246264746,143.28857457152148 439.47212593644076,143.52022020236373 439.4423884286119,143.8548323160913 438.9412810176927,144.38567723483936 438.17074078248504,145.1562174700881 437.647916593648,145.5181637682727 437.2127992319018,145.81979533531833 436.7937522857045,146.21790730760483 436.6119394211618,146.39002001131513 436.14945891929347,147.02947777521453 435.5164582773734,147.8040428533028 435.70950595495333,148.38156436667788 436.2258440660842,148.92045897108437 436.24840055933925,149.2671166576242 436.1333595479354,149.72881535556786 435.74729314842006,150.7744347774328 435.6966206667215,150.89989984224292 435.5623241122048,151.23610451969074 435.17463619338633,151.93909109785537 435.02258979239934,152.21417028447155 434.99928045082294,152.44500515557996 435.11510326619265,152.63805283318047 435.38534685025604,152.75306488887804 435.88564350148255,152.93001319514113 436.09073675179246,153.01366622356272 436.7547199969719,153.2839098076467 437.16371931386186,153.4504051047972 438.2310555136446,153.8855514223114 438.47474671727855,154.00942392340124 438.63078900535766,154.1847507102378 438.673411801336,154.2330198685645 438.7916958516752,154.36575281502604 439.03376553584144,154.77272523268428 439.06836760199104,154.83144740010295 439.0876521006662,155.20625003079252 439.10696555523276,155.63172514322173 438.9557588696653,156.05966149047643 439.0024065086272,156.33071583425308 439.69088627911293,156.55428282371008 439.93139235534744,156.70873254804832 440.3037916625829,156.68220912332512 440.65044934916386,156.65806006630865 440.96818028752637,156.6355325287187 441.68966956042084,156.58486004697903 443.526706280074,156.72483191940634 444.0704364869716,156.16178825796277 444.3785251760376,156.10546941395708 444.5763795004847,156.14328556319177 445.21499754896456,156.26634730456837 445.63245193142103,156.3467862498843 447.40520698838475,156.5221419924271 447.28854445759555,157.01438895793345 447.7421934698602,157.30313523676784 448.1781505471082,157.581399550804 448.98004980961235,157.940160721548 449.7666894162603,158.27315131586963 450.1254216312981,158.56589348183726 451.10186587667295,159.2680982559949 452.1933221777248,160.01211506652044 453.0837100712033,160.51640760483906 453.6813268430079,160.95155392235327 454.18564833705335,161.31911762707708 454.4824443015462,161.53466388656128 455.25619861996233,161.97707808574748 455.5658509169602,162.1781464933002 455.7018269022336,162.2658243645613 455.67040996356576,162.6173176536539 455.12349462918644,163.2591497852806 453.8197061517972,164.7576074596969 453.5252845550111,165.11471815532872 452.95905576614757,165.80082355814886 452.5222879292068,166.42499271042408 452.253636908802,166.80784502677207 452.209392593356,166.8713738410373 452.8601141260195,167.5212846140287 453.1697953787441,167.83093691104708 452.7161463664795,168.5677147956069 452.54884030963626,168.87334224978576 452.1700128361484,169.56668657857168 452.70085775481414,170.05409794152524 452.94457791417494,170.42325420996931 453.27513622939784,170.92357981686095 453.3290227942226,171.0048005661633 453.79393557533365,171.7085979040412 454.57736109877305,172.53302470415588 455.7798335684098,173.67998908952072 456.3500582444477,174.10870724078245 458.0110153288607,174.34599923384957 458.46078427685825,174.41957567733985 460.64198849247833,174.7754991891183 462.1355816086767,174.95082597595484 462.5007709456115,174.9934487720361 462.75413335435104,174.58485483495133 462.79837766987936,174.20359508230305 462.825711854357,173.9639287215086 462.8538857541718,173.71939780245515 462.9495553996377,172.89175691921423 463.2383306342195,171.54531668999635 463.3131232172694,171.07637906608696 463.5045783311085,169.87390659645024 464.0909023784222,169.83371607950883 464.997389643341,169.97606231964286 468.33934115932806,170.50210059156498 468.9546788219584,170.59942071220482 469.0528097023115,170.22539988554286 469.3447700642104,169.11480386422366 469.376939851282,168.99237914832284 469.57881901846565,168.22667451560628 469.64657536549356,167.9683317258239 469.84425595566194,167.21643896385683 469.88285390898596,167.07003892517704 469.9962734009221,167.08935237964073 473.22966998321147,167.64996376196507 474.5672208113308,167.88079863307348 474.9927248794251,167.96123757838942 475.56057518775634,168.06819994842854 476.65365300819354,168.06819994842854 476.54587987846173,170.28331129324826 476.46546988885206,171.9305723297779 476.30861684108027,173.13223403972194 476.1509530335335,173.4958018572919 475.8855160963372,174.10468239794292 475.48659336439914,174.59771116745628 475.30483841131013,174.82214682801848 475.00239608453063,175.15913330947333 474.9871074729476,175.17604344052404 474.981461110661,175.18889977304957 474.9091008067715,175.37149444153755 475.3796020386332,175.64495210874776 476.39467319297654,176.041471517314 476.6987080834146,176.15972661184406 476.98745436218724,176.27230638844298 477.0815603997214,176.429188391921 476.9327570375875,177.06378159758196 478.19716575785145,177.08387685605268 480.16131801728295,177.1160755987276 481.2592314403964,177.21820236623452 481.94852197065705,177.2881883024379 482.2630098701665,177.31954732971386 482.4376706757799,177.4136823229337 482.6555333915789,177.53112665777107 483.0239078560777,177.88418355485715 483.3215145802632,178.11907222453186 483.7638998237637,178.2139600660525 484.2585501126214,178.25339773471373 484.9116749688007,178.19227224386148 485.67578703775587,178.32978288146333 485.6371601288696,179.03838686618772 485.58327356396256,180.01567082694092 484.9116749688007,180.0236915569137 484.78942398709626,180.2465056980699 484.4853601409314,181.24145263819517 484.38806897599784,182.199394188799 484.2907488553374,183.36489022459995 484.22638032563214,184.12978409760325 484.08805892837876,185.73039749523272 483.9794460832274,186.9778960843842 483.8290212017081,188.12966711657504 484.9124857284934,188.2157813798221 486.73267022846716,188.59779398077114 486.8525178867381,189.0393974202441 486.83077215309345,189.37400953397162 486.709331931164,190.11156922253846 486.94178832167836,190.24907986014028 487.45896614822874,190.55473627002542 488.1916902342428,189.98445368263668 488.71132929559815,189.74559808153495 490.1848271533464,190.17107319396416 490.565276146302,190.34240409366745 491.22401840895884,190.6399818621673 491.1307231311174,190.90382623568448 490.8580472678936,191.3622818948162 491.2159687232387,191.63492880229256 492.5615981927227,192.14567846256992 493.3924821148167,192.24621266635657 493.4745136238118,192.18746154323165 493.8018868116353,191.95265974067564 494.18473912802443,192.14003210032445 494.48315661190264,192.4207576491861 493.89518208947675,193.1189375805042 493.878271958426,193.49374021119374 494.3810008886483,193.62968724078155 495.18211834718664,193.3151703855247 495.49816985479237,193.50578578398543 495.95746522934365,193.78329724972085 496.427213612884,194.01172879743686 497.15513105211323,194.3664361696351 497.54522229444757,194.5562697641094 498.16858068698895,194.86030465456798 498.67930139156005,195.15788242306786 499.3292121646132,195.06539790496024 500,194.97048110773338 498.9181859483269,196.11179913083217 498.65434157487147,196.33302070826812 497.9892001016066,197.36335151850886 497.20739609755265,198.60120785826106 496.48110017779106,199.6419916775732 495.76603907114907,200.59593734104376 494.7879733063065,201.52813727091086 494.7696443457936,201.54342588255562 493.4745136238118,202.6210413571723 493.4463397239969,202.64455338869243 493.03777474259783,202.97511170389478 492.1023317738983,203.73279560663858 491.9358364767478,203.8670921611142 491.9213586248574,203.87919564531836 491.2159687232387,204.62639758326392 490.90871974967445,204.95217820732603 490.6682136734399,205.2055116603387 490.4438069685634,205.44361441313967 488.8094022645799,206.5447129635908 487.4267963612395,207.40130955069472 487.5265487610603,207.77935522021676 487.3222373146339,208.02628946266262 486.8621601361168,208.23057195336216 486.4776863003423,208.2699806662966 485.95648363097297,208.32308542717604 485.8655916764827,208.33272767655478 485.5567211835331,208.35041961161252 485.11196157232587,208.54749213203198 484.91326753254157,208.61102094629717 484.2480971035499,208.61102094629717 483.66015153685083,208.65526526178436 483.09872939477214,208.69710625385858 482.67727912522355,208.75096386301826 482.408628104901,208.7855659291267 482.14156964815476,208.71479818891632 481.63968043335194,208.5820652424342 481.0203179279027,208.34399144536002 480.19751264717337,207.94585051736726 479.0071147059935,207.87105793431738 476.40755848120835,207.70696596057985 474.7731537771425,207.7286827384565 474.5181698490176,207.731925777289 473.9149646262978,207.73994650726178 473.5529893724069,207.74397135010128 473.0285436642668,207.75121027606704 471.85424509444493,207.77773370079024 471.22526929534376,207.8461270732939 470.86413375687243,207.88553578624888 470.63810553261055,207.91046664725178 469.745343271343,208.00775781220594 469.3447700642104,208.17604836299992 468.6112062628591,208.48396331778733 468.32327074369687,208.66088266832358 468.18732371406793,208.86759743814235 468.0216681323369,209.1185565234483 467.91626937031185,209.27943441405958 467.13287280259925,210.32826791905077 466.6993480044293,210.8365853002089 466.3261089817743,211.1494516803535 466.051840554892,211.25563224638563 465.6497037397454,211.28137386710182 465.1638849404915,211.27173161772308 464.6957870319811,211.26208936834436 464.66196676987965,211.93852356605896 464.6145373269519,212.87393757905227 464.5968164362085,213.23269874981688 464.57191453089126,213.72572751933023 464.4818043804492,214.79468523849837 464.3080701573535,216.8473261289865 464.1359574537255,219.22169384501157 464.0957379810161,219.7750663013496 463.89304805405743,221.11264608517516 463.81020578536965,221.657997811561 463.7515125735955,222.04568573046174 463.74103060879725,222.11242862783263 463.6204011465605,222.9054964006919 463.59706284925727,223.06072792905772 463.53029099620073,223.49749576597787 463.42654270928784,224.18035812996555 463.4354031547007,224.79164199402953 463.39066659222783,225.67316944215693 463.3742487080393,225.99651778707923 463.1973004018174,227.6719237677792 463.0428506774792,228.16738481641178 462.9777292995348,228.3757211056365 462.7203420479764,228.79476805181324 461.40045419922916,229.93206123207253 461.3111548084798,230.00928609426222 460.30494409954923,230.97206324739824 459.46042204098444,231.69757736315282 457.7874193837592,233.1421195170175 457.31367511296213,233.55152421381553 457.17211067685565,233.9730034391115 457.0458348523323,234.35104910861295 456.69512336728786,234.81515112999017 456.49003011681333,235.2840597981933 456.0347885408078,236.3803517017979 455.70098718681413,237.18546504744887 455.0945389253235,238.6984295295235 454.65617852472417,239.90730120970645 454.2717336445942,240.7204931967427 453.91137991017104,241.47976966320678 453.25341945148006,242.55755887204037 452.31238803194753,243.91283059092368 451.43485647097395,245.19171716303683 450.94984843141276,246.04032197587424 450.55735386564487,246.7279909867084 450.3031806972127,247.6232144827603 450.06267462106047,248.6302359513835 449.85595985120057,249.49407146445316 449.7612746996237,249.80294195746453 449.51332700752084,250.61208014595502 449.4618437660473,250.7809787665185 449.7095598125002,250.95312042593505 450.0216443886584,251.1702882048458 450.0658887041044,251.90944045711234 450.0699135469234,252.48777273020065 450.0747491495173,253.2751941407939 450.07555990920997,253.36530429117423 450.0763417132581,253.56799421815347 450.08841624179723,255.41551290254316 450.09163032484116,255.86672963570913 449.9862894742697,256.10242906507654 449.5310189426197,256.13456989635955 449.40068931955057,256.14343034173123 448.9317806513474,256.1763819327275 448.5714558725688,256.20134174943666 448.2376545184928,256.22465109103365 447.77355249715674,256.300283389503 447.7035955167008,256.31151820260203 447.1638901525398,256.39919607388373 446.2268546200994,256.37186188942667 445.21499754896456,256.34255871712986 444.14042242315435,256.31151820260203 442.5269816487673,256.37345445314696 441.88268828235624,256.39838531417047 439.6997467244435,256.39838531417047 439.7118212529826,256.764356455174 439.71827837496187,256.9726927443987 439.7270809089211,257.2268659128309 439.74399103997183,257.75527855245974 439.67481586348174,258.9054859766365 439.62174005826733,259.593965747184 439.5959984376129,259.9229604543723 437.1950783411584,259.94708055568253 435.6974314264142,259.932602703751 433.70351270334476,259.91166772986077 433.73408992659313,260.314673216092 432.9056093279327,260.3122409369728 429.7164570611717,260.1738905839514 428.5204417135143,260.2125174928994 426.1878860338572,260.28812083566254 425.96831493157464,260.2953597616283 424.99910961214493,260.2591361761139 423.4202129923716,260.20122476840845 423.3043901770019,260.1964181215619 421.51072910173076,260.1304570281775 421.08525398928094,260.11453139105697 420.3484761047211,260.0870234724036 418.18244467802367,260.09185907493577 418.24597349222717,262.30534890034954 418.28057555837677,263.49334351805476 418.3087494581916,264.49552938414575 418.3360836426692,265.43902203850377 417.748919879936,265.7414354095564 416.9719225226668,266.4492575902738 415.89815815663155,266.4050132747866 415.587695099941,266.63746966532153 415.28687429262925,266.9430971195004 414.64420244552133,267.59219713277855 414.0828092592517,268.3514446435364 413.6565233871092,268.79223732329604 412.81596825990965,269.66252995832446 412.22000196321727,270.1933748770931 411.8323140443165,270.9019788617969 411.7454469328098,271.2607400325409 411.78644820940275,271.7489331995221 411.82105027555235,272.1527204897603 411.7775877640722,273.0141237237108 411.59172110098376,273.93268551706586 411.4606965410469,274.58016401093806 411.3681830672536,275.03462378291596 410.98133486377236,275.0941277543416 410.11425631187024,275.2075472463395 408.847444268255,275.23650295018194 408.6359228516103,275.2413385527347 407.9562745708106,275.1568458088936 407.2942892692184,274.2447411374972 406.34277588488766,274.191665332324 406.1593994124132,275.1987157566535 403.1849826454232,275.2823398293894 402.32517197519303,275.31450961637864 400.78490226438817,275.372421024084 400.8894613109938,276.6609498455759 400.9296807836209,277.1226485435196 400.963443134351,277.51514310926683 401.00125928362684,277.9462645839415 401.10903241335865,278.39507799367397 401.2731243870756,279.0739444705284 401.46214722183663,279.8605840771146 401.59482225688566,280.4114952986477 401.64873777743725,280.4114952986477 402.5342900684042,280.41554909719343 402.56405653195986,280.89088593164905 402.6661832994874,282.5300972825203 402.6887397927424,282.8872079781521 402.8608524964527,284.03020543206935 402.9895606001365,284.3873161277012 403.0973337298683,284.68891873904056 403.2059176193751,284.99214286980646 403.4335384072956,285.2696543355418 403.5927947785009,285.4650763808491 403.92416385341653,285.7972562154574 404.4558195318573,286.33056236903093 404.83467596115435,286.47855497143104 405.4017155096283,286.69971863747503 405.75564107788125,286.9949220382476 406.1111302540659,287.2933105664607 406.5084893780723,287.6255193567753 407.0626436383967,287.9295542472545 408.419565832454,288.67435286176647 409.0332530198898,289.6660857187655 409.11047788210004,289.7915797392819 409.966263709429,289.9290903768837 410.6113388799705,290.0328676194823 410.79711867587844,290.4462682034136 410.82448181600057,290.50739369424525 410.8204859288262,290.55890589140444 410.8108147237206,290.664246742017 410.76173480568065,291.24173929968583 410.5043765099314,291.9013212777622 410.26224891422913,293.1335312552689 410.03060328340746,293.83651783343356 409.7475033668391,294.4196567533272 409.8037932551797,294.83305733725854 409.86008314343803,295.251293523722 410.82448181600057,295.38321571047027 412.00766978687983,295.51189485840666 412.9897024830054,295.4998492855944 412.9776569101931,296.2567224286455 412.3084326828203,296.28889221561417 411.9441120168672,296.30661310637817 411.9400871740483,296.58088153328106 411.9175596365201,298.0624290766672 411.91353479361885,298.3294875333106 411.9891381363615,299.32281295400935 412.01647232083906,299.6759277625079 413.78601329475885,299.57617536272824 414.59593328725634,299.53033848354136 415.19679309791405,299.44428213168624 415.80002727627846,299.34615125131256 416.8440541344848,299.1756311113225 417.177015773059,299.1024021362867 418.2049722156342,298.8755921079972 419.6382506006731,298.63592574720275 419.83129827825303,298.59651703424777 420.7796265351844,298.4042801163605 421.08525398928094,298.3011398992377 421.72227947410227,298.08657813368364 421.8112603521035,298.0624290766672 423.3052009366946,297.6570492227087 425.1583659833503,297.32243710898115 425.8878759862381,297.34015799974514 426.16295517281316,297.55411169550905 426.3085444518208,297.87905260415164 426.3011607473238,298.0624290766672 426.2916343207701,298.2980995503284 426.2908525168042,298.31095588283335 426.00772364442673,298.8426405170009 425.6562303554164,299.0541619336662 425.4672075206554,299.16839218535677 424.8325853592676,299.22870691649575 424.22292301465075,299.25444853721194 422.78640159075877,299.1868948801278 421.37156798905784,298.9383391182348 421.08525398928094,298.9655285241606 420.7450244690348,298.99787204536676 420.55600163427374,299.212636500844 420.5729117653245,299.58098200957477 420.58414657844406,299.67914184563415 420.7739801728977,301.3609470368803 420.9718344973448,301.53230689228985 421.08525398928094,301.53890879275923 422.4172163665673,301.61674172471845 423.1773035927858,301.6609860402056 424.052402874599,301.7896941438483 423.82075724377734,302.9044887422033 423.7017203452814,303.17875716910623 423.6229029194126,303.35889060278924 423.0671271396204,303.79166255259673 422.68424586750444,303.9138845785538 421.9450646595934,304.18013227548397 421.18257410994136,304.568630954098 421.08525398928094,304.64912781080585 420.4337796082961,305.1879355481142 420.1088097439884,305.51771205930953 419.9310506779915,305.69790340438453 419.62860835129436,306.4442945826374 419.45808821124257,306.86415228850683 419.2168003310422,307.41512142145245 418.56286471525243,308.1494959825787 417.3966158310684,309.03021267099285 415.8338185827354,310.26725825105234 415.45418034947244,310.5077643272457 414.8943797268614,310.86247169946455 414.2589468057809,311.2541555054986 412.8779045104546,312.58533607875734 411.8137823938804,313.4065198400601 410.03946372882035,314.65161510577803 408.5530805829226,315.5621561691604 408.3672718312878,315.7938017999821 408.3069281444014,316.024636671111 408.2916684884629,316.1154996698127 408.2007475784104,316.6721151649832 408.2136328665599,317.23431911100727 408.1307905978722,317.5214728261214 407.6787631049929,317.7265660765342 407.30957788088375,317.7595466232161 406.99268665794074,317.7595466232161 406.9106261931366,317.69842113238445 406.81973423881095,317.09197287087324 406.66933831301844,316.8442278686935 406.4594094600323,316.4999735055667 405.50143895372224,316.7348621752414 403.4834290850282,317.251229242058 401.97932504830476,317.77162115171404 401.2795525533281,318.04507881892425 400.75192171770624,318.4601009222615 400.1744291600786,319.0577176940867 399.4103170910412,319.92239292257585 398.48535608713985,321.18037347650505 398.3654794731421,321.34362573482304 397.6351587105616,322.0731646934377 397.469445217377,322.19220159197477 396.95551042967963,322.5614736832233 396.0811929518323,323.189551855513 396.3514365358957,323.49520826539816 396.44719304854203,323.603763199137 396.58392188221916,323.75821292349576 396.95551042967963,323.6638752403322 397.1163593646258,323.62307665362124 397.26921652530547,323.58366794066626 397.6359694702543,323.49037266284535 398.4974016599521,323.5281598563738 400.2886304560629,323.65605720030317 400.6521693179678,323.7960290727305 400.9200385343244,324.03569543352495 400.9457511992521,324.51346454712035 400.63207405943535,324.8432700140014 400.26369959501886,325.07167260601113 398.5625519936233,326.0030907318712 398.6984700675254,326.4736209195009 398.7853371790321,326.7728202074273 398.9188519295007,327.2369222287839 398.99607679171095,327.50235916602134 399.8920820917493,327.4693496636332 400.646551911408,327.44120471948344 401.17337198733713,329.45041205419767 401.5908263697936,331.18694352570867 401.97286792640773,332.77470059083316 402.25518603901025,334.0712501422978 401.53450752572616,334.32061666388347 400.64330887255494,334.6286763971816 400.76075320739227,335.13296893550023 400.9875921913469,336.10941318085446 401.02459758093005,336.2694803117525 401.19671028464035,337.01025408344555 401.23050159101496,337.2926011517337 401.2723136273829,337.6384480785603 401.3004585714709,337.87009370940257 401.3760619142958,338.4982587487905 401.4589331387104,339.1835533918973 401.35197076867126,339.93399836867536 401.29321964552577,340.3498312317259 401.2530001728986,340.6297170651886 401.34950953378404,341.1984070888776 399.79638349055654,340.9804285502536 399.1690292108408,341.22574127331404 399.07970086444686,341.2265520330067 397.59737151709487,341.23778684610573 397.0721150491798,341.13403855919285 396.95551042967963,341.13661561684336 394.6696023889844,341.1871433200723 394.26905813757867,341.00055276443055 393.5749320048063,340.97478218800813 393.86851388617293,342.60113720635377 394.02131313539894,343.1955398950733 394.05189035864737,343.31538755332366 394.24091319340835,344.048922399051 394.3760494633446,344.5757714306658 394.3172983401991,344.5918128906113 394.1339218676424,344.6433250877705 392.41670385061565,344.9706693198261 391.7627682348259,344.6979934566434 391.05494605412906,344.5757714306658 391.01478449287333,344.56850354901434 389.553274296566,344.31673370399517 388.05403481808094,344.15267068596387 388.0813979582854,345.7058256849799 386.5539845799855,345.54254447093507 385.65233291766054,345.36721768409853 383.74606311014594,344.9971927445698 383.255437664025,344.77924316165206 383.1975262563813,344.7414270124174 382.7825041530029,344.4671585855144 382.83555100249043,343.19472913536003 382.78490747643644,342.69365068016765 382.7519269297545,342.3767015457916 382.66505981816556,341.5161090715544 382.1824551020379,339.9331876089827 381.5953202950315,338.2594031477093 381.1304075139205,337.01025408344555 380.7113605677232,335.8946776810835 380.31081631631747,335.057365592737 380.08157400892935,334.5739790726024 378.54289686186536,333.08999925009704 377.79407340449325,332.78677511933114 377.0130512044051,331.89236238299253 376.30847206256135,331.0550213389604 376.00362641243066,330.4839859032503 375.73419358805995,329.41181410095595 376.11223925758196,329.23645835841313 376.473374795971,329.06837049754233 376.5087586661688,329.0522711262049 376.73475793470385,328.6814643826486 376.720309038458,327.7219302683451 376.6679860816473,327.362387293594 376.5344713310964,326.44950081819064 376.2296256809657,325.389374588688 375.9039029683367,325.4094698471587 375.5966250390456,325.42878330164297 375.0649983162494,325.46098204431786 374.61618490649636,325.4891269884676 374.2679057006123,325.5100330066516 373.93491510622897,325.53093902483556 373.7225829298916,324.2721766668994 373.1780709189459,322.7158075847571 373.6590541156058,322.40534452804604 373.98883062686286,322.19220159197477 374.2662841811446,322.0128210065925 374.383728515982,321.87125657046545 374.6057029416981,321.60341630981503 374.83575600886127,321.3243412360656 374.5293177949074,320.77736799027383 374.1577002917201,320.27385725596224 373.45474266926175,319.46552982716446 372.8257379144338,318.8230896257682 372.2474345970311,318.23248013425876 371.889513141686,318.19310037701 371.358668222938,318.4086466365148 371.0401554805273,318.53813654414387 370.1923903831917,318.88239090725017 370.0838064936849,319.03359759277646 369.91409711340816,319.2716713898712 369.7411446942783,319.5146097452044 369.45885553740266,319.9095076343647 365.87237310236213,319.96498676295084 365.8586770544377,319.811376753991 365.84822404536624,319.69879697741266 365.6962355558329,318.012909031935 365.2835878201613,317.6839432804529 364.76640999361086,317.27213526024195 363.5036227928969,316.5972936262271 359.9501209045383,316.7267835338561 359.89542358002086,315.29347619309044 359.877731644922,314.81732859892156 358.959980611239,314.72322256140797 358.8184451308594,313.88834275218073 358.7532658414614,313.1370870156894 358.7307383038509,312.88531717069077 358.6961651934281,312.4904192815305 358.66561692590653,312.13652266902494 360.3723819338619,312.07380461449355 360.66920685408155,312.06251188998203 361.09468196653137,312.0472232783373 361.0890356042447,310.91876158776404 360.76487649962974,306.8899228649498 360.45363163889107,306.8038375573884 360.39085567292665,306.1507416569565 360.2734692495429,304.9313880119753 360.03698801612734,303.22540480802695 359.71925707776484,303.2631920015554 359.33802628084334,303.30824707675583 358.45406655353503,303.4136168830747 358.3985584692426,302.87310075924165 359.0235383812516,302.8176216306555 358.84094371274307,301.7414249855216 358.7460269155162,301.18081360319724 359.70802226464525,300.16895653202124 360.1190484808492,299.7378640130528 360.44960679598984,299.2793793982354 360.64505779700335,298.1147230778334 360.6492274184564,298.0624290766672 360.7102081306745,297.29510292454466 360.63217250885384,296.5149204398966 360.514757129661,295.13628146802444 360.1487859887604,295.229605701531 359.84556185793275,295.30683056372067 359.6581605426394,295.3550707663411 358.006063903557,295.8264117136635 357.29824172286015,294.60624730896905 356.78106389622747,293.3370319419409 356.60573710939093,292.90591046726615 355.45312636184235,291.0607951062895 357.6320430768539,290.2701306568638 358.0623537918153,290.907937945651 358.47899741457906,290.7913333262331 358.8481826386883,290.68677427960694 359.2881356030284,290.56371253823033 359.6283651233569,290.4680139369965 359.83991549564615,290.4084810098851 360.0884712576008,290.21221924915835 360.4648954076552,289.91461252495225 361.0938712067564,289.4175299568931 361.52820676461903,289.1424507702769 362.1909738700948,288.7234038241002 362.4266443438177,288.52957434251323 362.71779394602396,287.7944469330656 362.9816093638349,287.1292475484295 363.23097588539997,286.5187744440787 363.2261113271615,286.0643146721008 363.22289724403527,285.7804039958192 363.2173087932023,285.2382663525596 363.1714429582886,284.70985371293074 363.09986445836495,283.882183873963 363.0363066884346,283.15264491536897 362.9397973274669,282.58401280309243 362.7724912706237,282.08452691162034 362.4789093891748,281.8448026394134 361.69145902291643,281.2029705077867 361.1847631611643,280.7895409681697 360.07396444998363,279.9305410576323 359.4570631793393,279.809071879976 359.0187317343845,279.72220476840755 358.22884908896583,279.63936249967867 357.82509075443386,279.5975504633107 357.3545316111185,279.7020805542306 356.86228464561214,279.81069339938193 356.53734373694897,279.9233021316665 355.8874619196227,280.1485195962563 355.35015987889534,280.33429939216427 351.5400814987533,281.65421619663834 351.2352358485403,281.15470134945997 349.4158621083415,281.6260712524886 349.3040641357085,281.1917356946877 349.20674401513037,279.9989054744297 348.6959943547501,280.1300169014853 348.178816528282,280.2627208922406 347.1910795584162,278.8969672085796 345.9001763692588,277.09369283967715 345.66369513584317,276.3175062421623 346.06988574953556,275.7890646468272 346.2339777232525,275.5758927550703 346.4961426659512,275.2356921904892 346.8275406965114,274.9035123558809 347.41551521901954,274.31475602940685 347.8590297349609,273.93268551706586 347.91497215482656,273.88441635873914 347.5820105161701,273.3575962828306 347.84582593398096,273.024605688509 348.6959943547501,272.6201813727744 348.81986685592227,272.56131442684506 348.6959943547501,272.42997135416005 347.91740443390466,271.60415468024826 348.3083064359316,271.48028217915845 348.6959943547501,271.35716252636934 349.70866218565993,271.0354936122655 350.04084202035057,270.8271573230408 350.21938289023103,270.5553211752571 350.38831046654195,270.2995554431252 350.5330889858569,270.20460969017154 351.2553600627996,269.7300836154292 350.960967421658,269.33035012371613 350.91431978277836,269.2957480576077 350.6119064117257,269.0705305930385 350.21776137084566,268.99654876970186 349.6989909806367,268.99654876970186 349.2324856358671,269.0898150918165 348.9960044024515,269.1373024461362 348.6959943547501,269.1966616390306 348.6952125507843,269.19680641754127 347.93912121174014,269.34804205877384 347.0398728728488,269.6094541531718 346.4125185932153,269.9569225994249 344.5625676296858,270.9808252433926 343.738922633537,271.4344742556572 343.220152243328,271.52692981807917 342.5251863951362,271.5736064126856 341.763535560986,271.3684842065871 340.9302193597316,270.92531715910013 340.6036858874099,270.6872144063197 340.28919798781817,270.457190294904 339.8958637067131,270.03168622676856 337.64696105543646,270.50786277664366 335.7745115100233,270.7845634826658 334.9943000697101,270.9003573423704 332.76071498582564,271.0652600758212 332.2926170773152,273.08975602218015 332.1550485283008,273.6833479511864 329.10905326138715,272.9964607443593 327.1714533823851,272.58705604756125 325.31507425260315,272.1945325261283 324.5662507952311,272.04454198016157 320.4094857727813,271.2116601145216 320.26954285606024,271.50121715304863 320.10304755890974,271.84466075646225 316.5913577069191,271.0451648173505 316.28491949304754,270.4113534156965 315.90284898062424,270.32448630412813 315.3020181256934,270.32448630412813 315.17733486491085,270.3992788871986 315.0647550883119,270.4660507402757 314.6971913835881,270.68562184259946 314.2781154817463,271.00897018754233 314.18079536108587,271.1472915848368 314.0127075001945,271.38860842076406 313.81965982261454,271.6644983670729 313.2373027066662,272.49616409317395 313.0756719678364,272.6578237877922 311.19997938357017,272.5234982776104 309.3041915408538,272.54764733462684 308.23922970877777,272.3859586843023 306.9571580093064,272.18326875732305 305.70641638132236,271.6653091267862 305.2029056469696,271.4561620778482 304.8602728032899,271.27116408592667 304.0559412616254,270.8360467241187 303.3610043691603,270.57544538943404 302.3234635886601,270.3429889988991 302.0387131968972,270.2794312289482 300.43647827990293,270.1468141052911 300.40593001238136,270.14432391475935 299.64665354585554,270.1056970058114 298.7321165953811,270.05983117091824 298.5841239929399,270.05262120065873 298.11602608451176,270.02850109934855 297.8264690459641,270.014023247417 297.663158876213,270.0276903396353 297.16529450414686,270.06790981228295 297.00363480950796,270.256932647044 297.00363480950796,270.4917923610125 297.00363480950796,270.68000443606024 297.00441661347384,270.83682852812575 297.0060381329415,270.9462231772841 297.01168449514586,271.41594260520054 297.01811266148064,271.91542849667263 296.2692602483817,273.07365665082216 295.58587668170213,273.93268551706586 294.9357053073545,274.74990234692103 294.5319180170957,275.2799365059764 294.29225165636296,275.595206209534 293.38579334725324,276.785633106379 293.1629792060353,277.06071229297464 292.78253021307967,277.53202428461134 291.20603691682214,279.47932432448687 290.8956028157762,279.9152524460081 289.4671310776044,281.9228382612958 288.40943712720036,283.4414201499096 288.39976592209484,283.4566798058481 288.00562088129703,284.02212679070465 287.30025993532286,284.8771308140883 286.6913793947541,285.61387974294183 286.14041026174675,285.55437577153674 286.12109680734477,285.5519724481032 285.67471567675216,285.50370328977647 285.64011361060255,285.49967844695755 285.4510907758415,285.4787434730673 285.275763989005,285.46026973400257 285.04249683879794,285.4345570689721 284.6982424756505,285.3975227237444 284.1907358542056,285.3420435951787 282.5989829019273,285.39593016004466 280.67982780626323,285.4256676678941 280.3090500183309,285.3967119640517 280.0291352292442,285.3742133821474 279.6277802181458,285.34285435487146 279.46774204289227,285.3299690666602 278.8918420490055,285.41683617822866 278.1993084798917,285.5206134208272 278.0875394629855,285.6806515960396 277.92747233208746,286.09489189536976 277.71913604292445,286.11982275639326 277.32904480059017,286.16728115500666 277.20195821629176,286.1616347927612 276.5584756095734,286.1350824123112 276.3067347203016,286.12489000455486 273.61061122309513,286.0152637097671 271.38504686920396,285.92437175537975 271.36014496380443,286.14715694082975 271.240268349889,287.2137113365849 271.21455568487903,287.4445462076933 271.189624823835,287.6657098737373 271.1317134161913,288.18534893509263 271.01748316448015,289.2036052168148 271.0375784229303,289.7047126277135 271.07058792525675,290.52027898245643 271.07139868503174,290.54599164748697 271.11642480452593,291.65114399646325 270.8670872386054,291.69782059106967 270.59360061568896,291.7492748768369 269.8568516868559,291.7838769429248 267.8758182520183,291.877201176452 267.79616111072994,291.8811970635852 266.9975048869965,291.9206347322259 263.90804710860266,292.07424474118574 262.3685881575728,292.28657691754375 261.6109042547879,292.4160668251728 261.4251244588799,292.44742585244876 255.98466621749103,292.74662514037516 253.6955730493141,292.8399493738817 252.4931005796774,292.88984005163496 252.17699116070025,292.9026963841399 250.88846233916723,292.9549614295999 250.57799928247675,292.9678467178111 250.57799928247675,293.4737607755357 250.54099389297588,296.6427888281197 247.46763548594004,296.67495861510895 245.2895295306212,296.6975151084051 243.98736257261734,296.67576937480163 241.9210256342047,296.64200702411273 241.8751887550178,296.9162754510156 241.6958081696355,297.986043929897 241.68295183713053,298.0624290766672 241.58644247616283,298.6351149874895 240.70891091518925,298.6463787562947 240.2174747093756,301.2161685176065 239.9118182994699,301.23872501090267 239.34075390809474,301.2805370472706 238.85009950624695,301.31594987309234 237.96616873474773,301.38993169642896 237.22055936050185,301.4518679469739 237.09106945285222,301.46232095606587 236.7154271067637,301.49367998334185 236.73152647812176,301.6609860402056 236.75486477542495,301.9127269295186 237.0049841453114,304.56217383213925 235.83870630548284,304.5107195463926 235.9304379753103,304.98524562113494 236.3551023279851,307.16980869839193 236.43875535644784,307.6025227367869 235.79530170537404,307.6105724224659 233.63245540599368,307.6363140431821 229.83523335835665,307.69020060804803 228.0472186453721,307.69020060804803 227.31290199561718,307.69020060804803 223.459361103995,307.75616170143246 222.50541544050387,307.7529476183062 221.54669208595476,307.7489227754667 220.414176596774,307.74492688833345 217.7269425006249,307.8381932104481 217.38428070121833,307.85026773896664 216.98613977324615,307.86393483118485 216.4134538624033,307.8840590453618 215.99602843567365,307.8985368972933 215.619604285537,307.91220398951157 215.26246463424008,307.921035479177 214.95524461632036,307.929085164856 214.93190631901714,307.99585701793313 214.75333649332754,308.50177107567833 214.5643136586488,309.0414764397981 214.484685473005,309.2682864680876 214.41472849254902,309.46698050793356 214.00694531511581,310.6308260686429 213.6345460078804,311.71585420344223 212.99427748420598,313.5786904551829 212.19640306452078,313.4604353606323 210.88856078858578,313.26579511933204 208.76596291755936,312.85479785883433 208.75469914879525,313.4475790281273 208.79972526828945,315.41254204735435 208.1747453562804,315.5484601212359 207.71145409463705,315.6160427340263 206.32965895098937,315.8163003818863 206.35377905234074,316.1452661333684 206.3746850704836,316.43722649532907 204.9357603231581,316.64877686768 203.91747508577077,316.7446492031308 203.29090261010316,316.80400839604584 202.57986634628008,316.76057484025137 201.22381282336917,316.7050957116857 200.22319056527164,316.58281577429557 200.09610398113784,315.8364245960633 199.86289474221982,315.7921802805761 199.70925577757427,315.7640353364264 198.7183336803091,315.58144066791783 198.6314665688024,315.57501250166536 198.08449332296948,315.5371963524306 196.69545925337664,315.61442121462034 194.2663652571073,315.68035335229854 192.84351092541303,315.6916460767894 190.86169568652718,315.3908252694571 189.9962096983659,315.276595017746 189.00606940506657,315.14629435040365 187.60012520442302,314.77791988598716 185.58851454625466,314.17789979072836 183.9460891123601,313.6366018628883 183.15142877580112,313.3743790087771 181.77441132329372,312.95211797947417 181.77360056360104,311.8976381122375 180.99582140236595,311.8421589836513 180.90973609482512,311.8324877785663 179.78773152616944,311.7086152774765 179.16839797644698,311.6402508606791 177.77047450579678,311.3780569622741 177.5677845787558,311.34024081306 175.11859532403633,310.8367300787278 175.20468063165944,309.52567371964597 175.22961149262122,309.14846776554344 174.82825648152277,309.1564884955162 173.11425254762227,309.1919013213174 171.822509642963,309.17177710714043 171.62381560309643,309.1685630240142 171.39135921258207,309.16534894088795 170.9248828235393,309.1581100149222 172.63567267431358,307.01457717002614 172.29220011513203,307.0258409388314 171.75814111325772,307.08132006741755 171.280371999724,307.29287043976854 170.21303579994125,307.97011539721694 169.8462538992656,307.8478644155331 167.6303317946709,307.18104351149094 165.62598901825686,306.8762268170253 165.33721378367505,306.8320114572444 163.74786415483027,306.64298862248336 163.59182186683347,305.91023558076307 163.58701521996636,305.360887967244 163.58055809798705,304.7117879539453 163.7125092405239,303.4836028192781 162.71188698242634,303.07497992650764 162.18909174931613,302.8618369904364 162.22126153630538,300.1577217189428 160.7099185736367,300.03544178155266 160.5996552533732,298.0624290766672 160.57562201920229,297.6321183616852 160.58123942567977,296.88410566404696 160.58607502827368,296.1666412339508 160.5731897400419,295.0285372939783 160.5731897400419,295.00922383951456 160.56916489722298,294.65932311414224 158.9911079928691,294.6890895776979 157.80392413489773,294.81377283850105 157.58110999376208,293.53005066383514 156.27407847743748,293.51959765474317 155.65795901092358,293.51438562805026 154.57293087604194,293.50511980281163 153.35276647130632,293.53167218326166 152.35700877152954,293.8855687957467 152.55329948796253,295.64624932429473 152.73505444105157,297.28224659201913 151.8414524644468,297.1286076273736 150.07275120594653,296.82379093290797 148.3241452058964,296.220556754523 147.44580288514783,296.0500076588267 145.6360713943278,296.33794317794786 144.29605933140354,296.4384773817345 143.5922909492525,296.4915821425934 142.35040976659906,296.78035737713407 142.18391446944855,297.2693613038079 142.1040256825925,298.0624290766672 142.0833802657442,298.2675223270594 140.8229963882992,298.3343231358428 140.48517019148656,298.3519861151943 139.35914078001193,298.41151904232623 138.92642674161695,298.4340465799162 138.05210926376964,298.4742660525844 137.51880311021665,298.49838615389467 137.48422999979388,298.4412565501757 137.2564644332393,298.0624290766672 137.23573214929283,298.027855966265 137.18662327552605,297.94660626125636 136.8981375980479,298.0624290766672 135.56270053634077,298.59892035766075 134.87341000608004,298.9769370714765 134.94577031005187,300.01213243995574 134.8018315061564,301.2733270770111 134.49698585602567,302.3164852640506 134.09082419806015,303.2012557510105 133.6090012858984,304.0932651639361 132.73870865087,305.2096812817177 132.01322349080112,305.91990678584807 131.52821545123996,306.2432261750641 130.92498127287553,306.64539194589634 128.3535410364516,307.8816267662426 128.17013560825035,307.4971818861743 128.16857200023634,307.4955603667478 128.0655765615625,307.2792033475503 127.20979073423356,305.4895671151598 126.63953710246878,305.8394388848259 127.41488398462579,307.5663570626644 127.51463638436427,307.78995300782765 127.51541818841244,307.7907348118347 127.69479877379473,308.19130801894664 126.13359408912025,308.9256536243872 123.00718883259687,310.4401817144553 122.17311978302116,310.8464591952253 121.030962044544,311.3387061607522 118.78121967793014,312.4100672033333 117.63906193945296,313.0760483919765 117.1645069089632,313.31012630193794 116.8178202667377,313.481428245935 115.71107535402054,313.9744859711546 114.53275194137971,314.40882152895557 113.64077148416033,314.9300241983249 112.78414594141188,315.71263896209217 112.39165137564402,316.0601074083247 111.60579357304424,316.7550443008309 110.59717954068017,317.59797379571654 110.42747016040342,317.7395382318436 109.28531242192625,318.98544425727476 108.4649104646305,319.96993818830805 108.07160513916995,320.5208783655268 107.85443736023862,320.87396421831914 107.53673537760294,321.3895494811493 107.39847189163862,321.3609412457407 107.39838502454045,321.3608543786219 107.2576313481267,321.33163807344386 107.18364952476949,321.3155676577921 106.68013879041673,321.21097965548023 106.28680450931165,321.1289481464646 105.85808635809109,321.6220058716842 105.10848109667083,321.8826072063689 104.71595757525843,321.79574009480046 104.5727716196843,321.94051861407434 104.46027871018356,322.19220159197477 104.46027871018356,322.1922595033873 104.28807913937509,322.5775440988545 104.2349743785162,322.60409647928395 103.82394816231222,322.80918972969675 103.32368046681253,322.78029193724626 102.68263013917226,322.4618081505624 102.13907366647105,322.19234637048544 102.13875515372288,322.19220159197477 102.02226635713002,322.13443496278 101.57426370715201,321.91164977733007 101.07477781561819,321.3606516886988 100.96700468588637,320.7526108634673 100.8962369456554,320.26033494225464 100.57448116439167,319.79629083228997 99.96722214320833,318.49328415886663 100.1819865987061,317.9133593220786 100.50290266455032,316.9578210949083 101.10935092604097,315.6837701253479 101.09246975071707,315.37087478949707 101.07399601165231,315.0169781769915 100.82381873031224,314.5536869153481 100.57367040478128,314.0614399498212 99.85942005774967,312.7865782205476 99.3977503154917,311.64601304574956 99.03823629648807,310.7588681910829 98.46714294938607,309.4840064617887 98.14622688354186,308.4416011230706 98.00223016827503,308.01050860408156 96.96790347090104,304.9074126891757 96.61079277524865,304.38621001982693 96.07508329826213,302.9955254751219 95.57481560284474,301.69251880169855 94.18253849439883,301.05549331691833 93.57525051748866,300.79489198223365 93.27683303361043,300.55279334232 92.79020347466387,300.1570557377402 92.19968085017031,299.30063288485326 92.14677877923458,298.06260281088413 92.1466919121364,298.0624290766672 92.12648083086127,297.58868480591127 92.0736366712969,295.9572046279709 92.01919994807398,294.9050701727348 91.94327809258321,293.6948665301672 91.32475530255346,293.5728471941333 90.82608017079463,293.49484052795714 90.18340832376897,293.43692912025176 87.82673254276051,293.4658848240942 86.93394132593073,293.37901771252575 86.47065006420507,292.85781504317697 86.00654804286903,292.3937130217998 84.98667024174085,292.30203926340545 84.45498560749097,292.25377010507873 84.40031723870034,292.24893450252597 83.26869937639276,292.7780999904556 83.26864146493911,292.7780999904556 83.22199382605952,292.79990363545096 81.61492330647131,293.40797341638876 80.24919857845485,293.618713029047 80.11568382798627,293.63961904721043 79.33066574080601,293.7554418626418 78.68799389378036,293.66857475107344 77.88528387158351,293.4015452501363 77.28042817375142,293.1996660828703 76.68842880850659,293.00259356243026 74.86746250448465,292.4226687256422 74.08241546165986,292.21033654928425 73.47518539612103,292.0462445755467 72.90328128924405,291.6987761293142 72.58236522348213,291.4092190907665 72.26060944230069,291.003839236808 72.15364707226156,290.6845157347252 71.93969337645647,289.64211039598655 71.68957400657004,288.59889429753457 71.4619532185673,287.92005677638645 71.368628984999,287.6433560703643 71.12893366853946,287.468840043241 70.6543786380497,287.12215340099493 70.19994782181921,286.92994543881395 69.45917405016728,286.6162393432498 69.10930228046007,286.46824674084974 69.01195320407284,286.42721650848875 67.61967609570924,286.13687766595467 66.0850237914642,285.9920991466808 65.01415499580702,286.0495183074211 62.97743974239826,286.0174353875507 59.13895581670913,285.3122771316025 59.13886894961095,285.3122771316025 53.33849130937207,284.2466203626793 49.001563897491806,283.51276700420385 45.32667969865741,284.0905780746002 44.48479260909384,284.13821020745115 43.482606742982256,284.13821020745115 40.961752121240956,284.0765056025357 35.334413767147765,283.89738561848907 35.00921225710779,283.84830570046967 35.009067478638265,283.84830570046967 34.52562304709113,283.7754531495739 33.95296609197509,283.6749189457872 31.631674181164406,283.18345378426733 28.152906964402085,282.4842604033128 26.082661005995522,281.9017005974824 25.780218679216063,281.665711611073 25.73519255972186,281.6182532124596 25.45605957460108,281.32950693362517 25.326569666951436,280.0458137146861 25.320720614823944,279.8552562276173 20.671969228162315,279.01223986561286 18.02973229578059,278.7805942347912 17.46350350691704,278.6293875492649 15.208983449162906,278.02774593457957 14.197126378028068,277.7976928674576 14.056401657341139,277.76552308048895 13.406490884288017,277.6175594337951 12.531391602392524,277.41886539394915 12.281243276779268,276.752884205306 10.879439741861933,276.3660939132372 10.879294963310112,276.36600704611845 10.389451321237312,276.23087077624393 8.151001679114385,275.6260150784324 7.199488294783616,275.3686567825802 7.179393036333475,275.3630104203347 7.069216583085806,275.3332439567585 3.963688389143024,274.14524933905324 3.4945480752898836,273.9329171626953 3.4939689611648914,273.93268551706586 0.8927622611852595,272.75537555406146 0.08362407273592475,272.30899442346885 0,272.2631285885551 1.4284717381717793,270.14855144752204 4.007932704589063,266.2121972428155 4.712511846515113,265.1376510727938 5.86995819657533,263.6496174517633 7.032211193584942,262.1544028161589 9.603622474364359,259.1992995036531 10.879294963310112,257.83354581997156 10.879439741861933,257.83345895287334 13.851250495495261,254.65166143488253 16.81530112051207,251.63864671467135 18.421531924598465,250.62519707979564 19.712000778265036,249.80317360309394 19.712406158111385,249.80294195746453 23.241064052606358,247.5550817115923 27.50557324906116,244.67077509500317 28.59624774614712,243.93399721044335 33.665899243959146,240.48667588811688 35.00912539009192,239.56924336722324 35.00921225710779,239.56918545581073 39.30661513322865,236.63394575614626 42.87621639286295,234.11398876117525 46.8391229780401,230.78249025425964 49.195016955000405,228.52316354965896 50.773913574691484,226.80913066003163 51.30154441039561,226.2356629452229 51.790490425595245,225.67340108778637 51.790635204147065,225.67316944215693 53.871334171707346,223.28055963271714 57.01383879950646,219.54365231615733 59.13886894961095,216.88890651972505 59.13895581670913,216.88881965260632 59.2627414507831,216.73416723832435 61.26230653605688,214.24235518748247 63.653555427405834,210.33252440751968 65.58151305711144,207.3195096873085 67.36553188292157,204.52369170169374 68.68701229540969,202.45335887614783 68.79962102773544,202.24664410634966 69.18368948358132,201.54365752818504 69.18383426213315,201.54342588255562 70.0792894038556,199.90444617731384 71.14992655386277,197.81882474012318 75.11286209468444,190.22924520300526 79.9283693797911,180.5121742809368 80.46726398425935,179.42393206299062 81.43253132788594,177.4139139685837 81.4325892392573,177.4136823229337 82.03889272227843,176.15112676780802 83.26869937639276,173.45118111766462 84.21621687354912,171.37100335279627 85.75086917779416,168.1850941248883 86.12086516167834,167.18287930309106 86.50047443921441,166.1573840954031 87.25013761200601,164.7377438468556 90.10627032865689,159.61096274532463 91.94979312593387,156.32932596045598 92.49832997978083,155.3520999110947 93.79739867748343,153.2841414532761 93.79757241167978,153.2839098076467 94.39009297959596,152.34070671031003 97.53181580342921,147.27021549705793 98.28706742705378,146.0717968259464 100.06630856180594,143.24459085736999 102.42217358303941,139.65246206008402 104.95660842996249,135.71286481654496 106.67064131958983,133.13499641384797 106.74861903003914,133.01196362817763 107.39847189163862,131.98843740835002 107.39852980309226,131.98835054125186 109.09889560052194,129.3104401817333 109.21616620108067,129.15439789365422 109.2163109796325,129.15416624802478 112.66846790442942,124.55927247058455 114.29803700598362,122.27020825813445 116.27504559800235,119.49046068815089 118.84489327068545,115.98519900243333 120.98680459619612,113.17487420920139 122.99922601405717,110.50935689092896 124.63843736490779,107.85747770918908 126.42821837582954,105.02465433405288 126.42839211002588,105.02442268842346Z"/></svg>