<svg xmlns="http://www.w3.org/2000/svg" width="500" height="500" viewBox="0 0 500 500"><path d="M30.114311917170077,221.66589197496128 27.44845376971193,222.48025789090192 24.79136571674622,223.3903431236798 24.01696637418542,223.65657813464412 21.951233263197455,224.36445004615453 19.229998233326974,225.2976507422363 19.005483814783418,225.29245132909583 18.55125556433326,220.39585700734895 18.406736936042076,218.85062900371284 17.538434938955106,209.49062038395857 17.326887731494168,207.03881518527035 17.326887731494168,207.03862725470333 17.02162580007408,203.50471768439596 17.279153360172177,202.7999153059401 18.610391058620056,203.8231347575102 20.50022113163985,204.77481529554544 23.05300770388744,205.74748141679868 25.84064487764494,206.80897606642293 26.01635998486805,206.8767563680388 26.441333705816174,207.03862725470333 26.825526487490183,207.18483725836475 26.763822608490752,207.03862725470333 26.53492314261195,206.49751242535658 20.75079525969007,192.84986725835526 19.825111787357223,190.6644850012429 17.696797787938394,186.848491606401 16.57623028752001,184.5202194528305 15.384186517371031,180.75290008232375 14.909097970777253,178.91186932057988 15.180595038374738,178.21583703661645 17.047810796566072,177.38061082453217 17.284415416760815,176.76808236872495 17.11565374158558,175.927594099963 15.826199279184674,172.6962527891997 12.532151792738098,164.73357079409445 11.830920095545169,163.0404414113822 8.751113488791622,155.45293152935434 8.75098820162825,155.45255566817582 8.580409864008448,155.03246814263778 8.495339947556408,154.83589273922652 8.495339947556408,154.83570480865953 4.666943133421972,145.9996466904902 4.666943133421972,145.57329481172422 4.826997357686452,145.37671940835747 7.505070993959156,144.55715407927633 7.424949916543406,144.19513710789312 7.064812251186435,143.048447254787 5.06541864032576,138.70869128892718 3.897868491031492,136.11587549971804 3.5950496575167508,135.44421154971303 3.026058456396805,134.17743404576677 0.7447689519247414,128.98672834132688 0.3828146239451602,127.62078612622132 0.17753176966767498,126.4479112767122 0,125.44041535168242 1.4512627055282654,125.76578585684453 2.5178941248448483,120.05827101347911 3.1878666995241653,115.63319455701856 4.3607415489887575,110.49291689582118 4.9958216764433745,106.50640780689666 5.49872395122865,103.40035356011396 5.6399851159427765,102.63290764964553 5.6399851159427765,102.63278236257118 6.267798593441086,99.22234319384434 6.577570859181744,97.68406862225609 7.038689898098087,95.3993337234174 8.009664644025623,90.70106882394464 8.745788788443255,86.93550347234526 8.75098820162825,86.90537193345631 8.751113488791622,86.90399377572746 9.387634417378727,83.22757017014047 9.549505303909731,82.28791719026371 9.704360115167262,81.48739549492613 10.386422891319718,77.97240427128796 11.32269312058957,73.40813388679558 12.227453653197104,68.26961024446108 13.033174761675165,64.18393644437725 13.612627432568743,64.2448259574824 16.447247255202125,64.53887469663825 22.54628417364602,65.52901836333919 25.65760047706188,65.83528259126507 29.012474832898402,66.34513829814273 29.57802063969623,66.43039614516178 31.048389622683285,66.87059224448635 31.152816390564773,66.90191401049263 31.30071776941834,66.94714264059465 31.78626778614184,67.26562235724607 32.751980475302695,67.90076512810433 33.99438964524603,69.08228478503152 35.57783020344363,70.52653141510827 36.174948350307425,71.11644555590901 37.7966641066482,72.61625699887608 38.043792840376305,72.61625699887608 38.45442119251297,72.33085306709383 38.52401815657339,72.27697962957372 38.73111767347349,72.11861678072397 38.93815454661385,71.9584999129223 40.410340192045474,70.82396290500454 40.64349941791809,70.68821437120579 40.869705211920895,70.55766525050302 41.10630983247172,70.46031720178827 41.31340934919377,70.39930240165326 41.649241324085004,70.42899543578199 44.837108023787216,71.58959215302838 48.18333757211662,72.92252122675745 48.85500152225518,73.112205841658 49.098622218257525,73.12266731147615 49.345688308225895,73.05476172278593 51.287637800080965,72.55887552354119 56.70981135537936,70.70212123530153 57.198806766068884,70.56812672036567 59.194692338847716,70.02181247783392 59.38431431016657,69.76077688005458 59.4225895081317,69.49798726332332 59.42440617057627,69.48758843699785 59.44526646671989,69.3361163766588 59.44871186104201,69.31701009937805 59.17903145588909,68.16336681422405 58.709142322302256,66.01425516215426 60.953910647850115,65.88433247677874 60.95409857823909,65.88433247677874 61.20273075685941,65.86986182089291 66.74317530037531,66.3205820335728 68.15271741379438,66.61983018591363 68.80872048079625,66.75908675752714 72.50118083056493,67.5456389452318 76.85666032296506,68.49744477034142 80.65705547834098,69.14643176180276 82.71383056426947,69.92258512318193 83.47250638028997,70.20974307382707 85.04561075552122,71.27631184951746 85.16908115727982,71.4312919476713 86.12978236382268,72.63016386297184 87.76202223334074,73.8602322571598 89.38035523894109,75.41767574956596 90.82466451259954,77.37522348079797 92.24278878976598,79.97493005851781 93.25723814684363,81.51320463010606 93.28680589389802,81.56012463557829 94.09077298351319,82.77822811518942 95.33149077817534,84.52704759782183 96.09010395061414,85.89649785069767 98.31921139302533,87.8941374424284 99.10225554309324,88.80766806948387 99.2867407448088,88.85985013163376 99.60860321202259,88.95212405423787 100.03846312860337,88.88941787873266 100.48041324683531,88.53798766424192 102.47805283865507,86.70560170991617 103.03664521340502,86.00956942595273 103.74307632360491,85.13255997804403 104.1954879116105,84.25204249236506 105.2500291292759,83.3316210767989 106.64560173501752,82.1518554387791 108.27082552890602,80.2533179146705 111.51789036629867,76.36246549909053 112.45228128954227,75.53074732482102 113.05434827544235,74.99652328398496 113.15702102428291,74.92536023162867 113.63730898406169,74.59284836380716 114.27589714924206,74.36833394517458 115.570551025006,74.30919845097681 117.86399337488898,74.44319296591267 119.24215107863105,74.20126364532504 120.21832523756555,73.79583470628437 121.19456204025977,73.29988586350245 122.16027472942062,72.63342132663792 122.79372612499769,71.66595461852516 123.12780408102604,71.15440753627729 123.20786251503814,71.03262851006696 123.73676185557035,70.69497987264214 123.85866616885504,70.61842947653383 124.1422534381037,70.55234055028818 124.77395081481788,70.40613054662678 126.90383090253258,70.6027685935307 127.79299319558513,70.74027114628133 128.07138105182685,70.72454761974102 128.21934507444016,70.5732008464318 128.7308921565545,69.61437894578165 131.0939314704979,66.9903666776406 133.86246236697465,64.22534381902312 135.61128184960705,62.97071916026523 136.9772240645346,61.862241861676075 137.77943713528688,61.69523420536372 138.17265058560204,61.669111852542436 138.5259601060745,61.77003058256464 140.83506333891611,62.854139547239896 142.16097633683756,63.3796561371207 144.0402822966801,64.12611646437114 146.243267386359,64.93002091040464 147.1011079134943,65.14751925349668 147.44740135833723,65.11444346862753 147.69102205433958,64.94743581231516 148.45489728336702,63.78683909506877 149.4607018331156,62.06934137844264 150.10968882448793,60.95911006094609 150.41426167704358,60.48759219561524 150.71877188601758,60.404088367503576 153.74132230468862,61.69867959964132 154.28425379647993,61.99974441438221 154.30511409262357,62.1824129536977 153.91008397986386,62.93764337539608 153.6212346538485,63.64758252345525 153.43161268252965,64.11214695673821 152.90609609273787,65.40680083241314 152.90089667955286,65.41901632113867 152.23092410487357,66.77111431568567 151.7558982016834,67.73162759175055 150.81969061599526,68.64340419989863 148.41662208522385,70.7280556575558 147.9589484406296,71.1039168494976 147.75015754844833,71.5563284375477 147.75541960503696,72.06449276905515 147.75886499935908,72.36900297807364 147.7623103936812,72.69092808900265 147.7676350938515,73.06848065631466 147.78498735226938,74.7372417050685 147.78849538999515,74.9912612273073 147.36909694336603,76.75405021757264 146.26938973926931,78.98829442963165 146.11102689028604,79.90533309445738 144.95017959906897,86.83809278009333 144.58665918279354,92.17131251981283 144.16726073616445,95.392192360758 144.16726073616445,95.42702216453455 144.17603083065688,96.6694313345669 145.11042175390048,97.43512322608342 145.91088080561187,97.76393912552314 152.0586543917945,97.91014912918453 154.37126566236188,97.81098441806972 156.23140270134198,97.73261735951685 159.64547519504697,97.58646999939263 162.25213520463663,98.08241884217455 163.9644335081668,98.81152691105164 165.3599434705048,99.40676575202271 166.03686947723196,99.69542714747104 167.88660768984207,100.31497167886333 168.68005066610192,100.34278540705483 169.18295294088722,99.97556902253112 169.3865444198835,99.64149106641375 169.74674472882216,99.05163956915018 170.2896135770318,97.55690225229375 170.71947349361258,95.27730412305837 171.05530546868184,92.82380754904445 171.2171763553909,91.64748730530225 171.2414820456786,91.36734543024215 171.565161175515,87.76183430286275 171.91314599581713,83.46899834247519 172.21070277274325,79.70524965327587 172.5500427855383,75.70821645095153 172.61093229868797,75.00172269712544 173.08251280737792,71.57374333941371 173.24958310727197,68.2136695703922 173.33139556014697,68.00826142899585 173.69153322550392,67.94041848384282 174.68687630530084,68.25883555695705 182.35375554238738,69.8510462096471 187.5009866355881,70.73851712737394 188.76945551503812,71.01690498357115 190.0762622358569,71.30406293421629 193.06060009996642,71.9843716916394 194.98864272754773,72.6073616173093 195.25481509497487,72.69431083969857 195.66375207200838,72.82661397930873 197.10286193230377,73.62011959906125 198.49492650031965,74.82945298417994 199.56506595736198,75.75870713773121 200.92060934609756,77.64152113529948 202.1682805728076,79.37110905362131 202.85905080004883,80.52656900121988 203.57769739906328,82.0056454351177 203.79870378005913,82.7765367398192 203.77095269527126,84.09205091163776 203.6908316178555,84.288626315049 203.6873862235334,84.29908778491165 203.49419357108513,84.77242231264255 202.90083403591777,85.11696173857807 202.7181028530651,85.23523272697362 202.58761637603303,85.43888684950709 202.4692827440558,85.98870912980911 202.719856871928,88.1447115703896 203.617789259651,91.12197071542144 204.18295920513677,93.43251474944005 203.58302209941164,100.53071600304798 203.17408512237813,101.68962134492416 202.6622874661151,102.63278236257118 202.420546076139,103.07817787508074 202.01693379945385,103.42447131992365 200.78141541815475,103.51674524252776 199.5876802723685,103.42622533883105 199.44153291219976,103.47151661242573 199.29356888976452,103.63683289336788 198.96644436560598,104.37283175075567 196.3963681785222,107.6146971749188 195.7195048153767,108.38026377940548 195.34702637421984,108.56994839426152 194.21079799084285,108.66391369223584 193.93760954796417,108.8762126221874 193.68872679519512,110.41968660696064 193.5251645332049,111.71960253931321 193.4259998220901,112.49563061366256 193.2937593260171,114.60809579951123 193.40338550690555,115.38249514198301 193.68872679519512,115.77921663011294 194.05588053618166,115.87142790917987 194.24211975693814,115.9184105581893 199.559866544177,116.12551007495586 201.70020810184337,116.22642880502255 201.79761879391725,116.24033566911831 201.83069457887544,116.28381028031293 201.8550629127448,117.3157371828383 201.90373693725797,117.57326474284739 202.31442793297632,117.67236681046951 203.37592258251155,117.6915983747801 204.05447732111628,117.63240023704515 204.34338929071333,117.49320630896881 205.14560236146562,116.57792166300595 205.99122739978637,115.60694691712293 206.64553909150706,115.46775298904657 209.0694679184221,115.58602397744212 209.6959032383696,115.59304005302718 213.83388438749964,115.64522211517708 214.55773039969907,115.96363918829131 214.78224481842068,116.75889882695122 214.8239654107079,118.86265656184464 217.56292855995224,118.91414954513012 218.35987957411592,118.92874548809029 218.11970427243568,120.40957594089548 222.9676245696694,120.67236555758221 224.1700671663664,120.50704927664007 224.53202149416794,120.24425965995334 225.15670279525258,118.47808791894758 225.73790948500903,116.60579803473462 225.93799292627958,115.96363918829131 226.164261363686,114.76821266726837 227.47977553559357,112.67485375870044 227.78766849548603,112.35468266667881 228.15663889891712,112.26942481961525 230.94947548568157,112.44000315723505 232.97492880551476,112.62091767764315 237.21727407912266,112.99853288849233 242.83959371909523,113.33436486351711 247.80935568620998,113.72582429492486 247.86667451787417,117.68633631810245 247.86849118031873,117.75944131993315 248.49310983782166,121.30919970381069 249.4815621291524,124.46580728095478 250.415953052396,126.68263659110325 251.3503439756396,127.91984634795061 251.71060692815993,129.10831943692568 253.73956828571892,132.87219341315483 256.45936251427884,137.56168821813517 256.7255975252877,138.61453806034132 257.04570597381667,141.11677130222753 256.6733528194671,143.088288541137 261.2428226172335,142.75421058501962 262.09208098044337,142.69332107191445 263.02822592254984,142.62541548322423 263.7973005647623,142.56803400793385 266.16560193547235,142.39570165140665 269.40220530291333,141.84412535219724 269.76585100599607,141.78254676027217 271.0465980176643,141.56573749604456 271.7669359919599,141.44220445092682 275.5516702643772,140.79829158557612 277.02730130395287,138.84938866176222 278.0331058537015,137.5182762504777 279.8462602436276,136.87962544180465 279.5260265081133,135.81293137903992 280.06375858689773,135.67899950764124 280.4187594826514,135.5919249981331 282.51036437240094,135.07342448383736 283.3472819596329,134.86463359170057 285.97661892816683,134.21376729430202 287.35302261304605,133.48985863860992 291.0055163893903,131.56714071115445 291.8607258882313,131.11886359620186 292.6968917531952,130.67791577452022 293.09010520351035,130.4708789012908 293.87139533453734,130.06018790552795 295.2043244082664,129.90007103777083 295.0825453821451,128.5740953960896 294.2334123059206,119.29771589152139 294.18292161914087,118.00130799693908 294.7014847768848,114.41152039609999 294.73975997502794,114.20442087933343 295.1678658725678,111.94749970873075 295.50532657951464,109.45917333089575 295.5714781492529,108.8762126221874 296.2863034928112,102.63278236257118 296.3250171954921,102.29519636868353 296.8052425118672,101.28419240583897 296.9113606550299,100.21749834307424 296.8052425118672,99.20474036136679 297.3273137075149,96.93397497016102 297.60219352585284,96.52152995553529 297.87193657458744,96.1143469975427 297.44909273363623,95.80977414503155 297.3794331259941,95.75934610174453 296.5372534819955,95.15552509689255 296.0239523808402,94.94498018584838 295.63061364353973,94.78317194272103 295.4357922590359,94.40211133759422 295.11875334351697,93.04412485108683 294.84412409932776,90.1808142907415 294.82689712807326,88.03333137050475 294.9471727094804,86.86828696251948 295.5019438287742,87.01881936988991 296.06573561670916,87.11980074344929 298.5644608206916,87.56350488054412 300.2697430487702,87.6174409616014 301.8689071333301,88.14991098353008 302.73720913041706,88.08375941374726 302.85729678125716,88.07329794392912 303.7308608349328,88.00727166122064 303.950050553306,87.98979411577294 307.541592173097,82.63903418706856 308.2498399457414,82.65989448325669 308.6953607452809,82.67229790259375 317.7559959256644,82.92788351312842 318.7931222413303,82.95745126022732 318.63300537348414,75.65947978307923 318.45904428512387,74.54066630165725 318.2588982004497,73.2616106654483 315.4173249457684,73.21638203534627 314.81876599759414,73.20592056548362 315.78097064885117,71.96006600121817 316.8737870644817,70.54357045579575 320.5941237860236,65.84881359413777 321.96877345221793,64.21813981287106 322.4438619986337,63.65453595550312 323.1451563394083,62.92542788667054 326.5626742272574,59.36520803293034 325.9988824393224,59.20164577089559 324.4449469847755,58.75098820170837 323.29130369957704,58.41509358319094 324.9982773027588,56.49582105001308 325.7987363546482,54.36418694334648 325.6926182114856,52.606660009758805 325.74480027354645,51.8062009579584 321.96877345221793,51.545541221313094 316.52054018759094,51.16936681172993 316.19692370133623,50.6717265935778 316.0388740700833,50.429797273034694 315.8262619226239,50.10442676782807 314.5472689298186,49.99649196222083 314.0130448891161,49.464021940292156 314.53160804685996,40.30597606765665 314.80824188423884,37.03629691530201 314.95789728213333,35.24394017793779 315.04321777273407,34.61581348266458 315.1180767933831,34.07288199087325 319.17073745209046,33.91282776665328 321.96877345221793,33.63318703980158 327.70416466722304,33.06018665270298 329.27019032359914,32.94536105854052 330.1994444770614,32.87745546985031 330.77545175381084,32.833918215118494 331.71861277136884,32.764321251058064 332.08576651253344,32.73819889823678 333.2045799939109,32.656449088988 335.79733313958286,32.46507309876175 339.85005644187186,32.57112859843176 340.1493045940792,31.71504209020386 341.0229312913365,29.21456286718052 342.8691614660428,29.404247482036553 343.59469885370146,29.479043859237464 344.11677004934916,29.532979940294755 344.7031761522906,28.201804885473074 344.25947201519574,27.909447521642942 344.155107890896,27.83991320111969 343.8296747421967,27.625797608768075 343.474673846443,27.390947007347194 342.75602724725053,26.917612479616295 342.1974348726786,26.548704719722373 341.9295084862105,22.179318363226503 343.6364820893923,21.8069025655178 343.80530640814925,21.377167936055887 344.11677004934916,20.581908297395973 343.8818568044356,19.79360209078393 343.8975176873942,16.44223577271768 344.8580309633701,16.44223577271768 345.3905009852097,11.592561456443038 346.7773661400406,11.540379394293137 346.7773661400406,8.82233918468509 347.95199500854613,8.662222316883433 348.27041208161586,7.809581202933133 349.7112133175485,7.809581202933133 350.2436206958065,6.158235056089823 349.73902704574004,5.758005530189623 348.9646903467609,5.147231093245256 349.49716036860053,2.855542762358691 350.30626422781904,1.8880134107532707 351.26339475305446,0.7448315954174062 352.45011382321115,0.7743993425162935 352.5527239286481,0.777907380286563 352.9738763943181,0.788306206612042 353.35838239354445,0.7987676764746967 353.4715166123367,0.8004590518004002 353.72735279697554,0.8074751273854502 354.7296493089984,0 357.5573156995839,0.3758611919863078 358.3855884794868,0.6977863028708142 359.00500772380474,0.9378989610138683 360.70164514437624,1.5974100658305308 361.87445735025915,1.811525658182143 363.0943148489557,1.7384206563514444 363.7450558591909,1.696637420527023 364.5403154977173,1.6496547715176069 369.2698395197482,2.3595939195767794 370.7106407555028,2.571892849528336 372.84402888112135,3.5846508312357828 374.1717585416654,3.345853687284399 374.5284508128783,3.2818946411246848 375.709970469672,3.6229260292899346 376.99767091338805,3.9952791834614616 378.28361733824124,4.3659409622627745 378.3966889134518,4.397262728224542 381.3949336416571,5.263810706315101 382.13444053681513,5.476109636222147 383.03581831868223,5.737145234045999 383.66920707067766,5.919813773316983 385.6946603905108,6.24875495983105 387.82804851612934,6.782916357129938 388.842497873207,6.675044195015357 394.33426839238774,7.525931290102778 395.34696373060257,7.473749227952878 397.56385568437724,7.785212869019241 399.1334520218827,8.006219249881552 405.11064727044555,9.629751668533364 405.3003945289278,9.681933730683264 407.14662470381217,10.18308198660566 407.34670814490465,12.321669525320129 406.7515945910524,16.356915282161445 409.836788541558,16.125510074973658 411.0931672193568,15.822753884862559 411.7891995031867,15.961947812938906 412.69233130409475,16.141170957976794 412.6783617964173,16.26125860881691 412.58439649830945,17.05820962280253 412.37391423084694,18.857457148721963 412.40166531563483,19.283809027443446 412.6940226793759,23.653195383939313 413.2264927013936,24.399655711145247 416.69280990056313,24.345719630132468 417.11909913583645,24.932125733118433 416.0524050729382,25.518594479597063 416.2142133162436,29.353756795256867 416.1812001748671,29.747032889109192 415.98280810905584,32.13437789334029 415.94797830523476,32.55026830224363 416.0124384996919,33.58044118586161 416.0715739939787,34.507941320549996 415.0588160120042,34.45394259600004 414.76645864826304,34.913370259635194 414.630772758046,35.12742320844963 414.3123556849763,35.62681744546463 412.2329036404596,35.41451851555759 412.0189133350933,38.66502874713882 412.28508570252046,39.35755299328746 412.1493998123034,40.27809969592798 412.0189133350933,41.16901600793243 412.0727867726134,42.552373124948524 412.7775265075321,42.571542045721934 416.0193292881581,42.658553911648376 418.2049621194191,43.244960014634344 418.8452416598807,44.043665047571864 418.739123516718,45.5905844265782 422.0453238482194,45.00424096712941 421.8451777635452,50.429797273034694 421.83308756189405,50.758675815967074 421.93920570505674,51.61137957345455 421.93920570505674,52.73025569836919 421.61897196954243,54.16754889639806 421.6067564807279,57.252680203544486 421.35624499625936,58.418601620961205 422.10452198590986,58.4725377020185 424.227385997995,58.62745515663516 425.63686546783237,58.65006947168617 426.3746809877092,58.662159673381865 434.78457515767957,58.80141624499539 434.7358384897627,59.45397391776417 434.5497245563477,61.904025097500494 434.52184818457454,62.28339432725707 434.07281934730935,68.21016153262192 433.9232892364002,76.58697991772311 433.7892320778827,87.21721143570122 433.7718171760611,88.6754275734554 433.89710424008626,95.8167902206166 435.7816722565174,95.94383130346007 443.63122003269683,96.10388552772456 444.6300085068159,96.09693209567668 445.4200060889317,96.08997866362881 448.7698063187466,96.06385631076301 454.04570722653483,95.90549346191327 454.81835255023276,96.01167424861312 454.8131531370478,96.19785082569888 454.76441646913094,98.30167120417397 453.6977224064107,98.46003405302373 453.2174970902136,99.36661124803132 453.53760553856455,100.21925236198163 452.36479333268164,100.21925236198163 452.0404251239808,102.63278236257118 451.99237753492844,102.98947463373958 451.8932128238136,103.17389719196245 451.50864418082756,103.89254379097689 451.1919811266207,104.4825205752703 449.11077506324114,106.07993064110083 448.0980797252044,107.30667892808555 448.0441436441026,108.21156474772292 451.05974063072574,108.26894622305781 451.740112031597,108.28109906824616 452.5457704966714,108.29675995124931 452.7405918811753,108.30026798901957 456.5253887969962,108.37155632845023 456.57757085923515,111.19402330589524 455.56487552084235,112.2067812876472 455.0845875612416,114.44453353747647 458.3385431869224,115.61734574344841 458.4673382888513,116.56570617428042 458.6048408415129,117.58886298231334 458.75098820168165,127.94772271967929 458.6639763357997,132.76607526994766 458.61004025469794,133.09489116938735 458.56124094319944,133.3854945143101 458.45167740571463,134.04500561912675 458.5455800602408,136.6203438628882 458.6117316299791,138.46488266240232 458.65696026017014,141.03151345520848 458.7387727128671,145.54873854719878 458.8710132089401,152.81200550760016 458.9238843500434,154.83570480865953 458.9510089993705,155.87627651855846 458.82753859778995,158.91104242595503 458.19408720221287,159.53396970808777 457.81478061599347,159.9080768811667 457.3344926562147,162.3598820798104 457.27711118096886,168.15096339486917 457.405843639138,169.38811050817935 457.53990079765555,170.6845184028062 457.6546637483254,171.78948766362507 464.7281834502445,171.92692757279403 466.3551612631739,171.9582493388003 468.7165092016581,171.72333609384225 473.2024751712683,171.8347162937271 473.4286809652711,171.83991570686757 475.2766651590183,171.88696099936965 476.108445976647,171.9078212955578 477.34390171472046,171.9373890426567 478.36361312838676,171.9634487519408 478.57760343375304,171.96871080861845 479.6669118114798,171.99477051794707 480.95981166838084,172.02784630281622 483.1557806824302,172.0817823838735 484.5601233826643,172.11661218765005 490.06053870935216,172.2541147404007 492.54015763605383,172.26106817244857 499.192524872481,172.27842043082194 499.1856340840148,172.63868338329777 499.1751726142412,173.12235409381697 499.16815653861164,173.5121847933917 499.0899147672221,177.48309564289474 499.0812073161333,177.90249408956836 499.07256250880425,178.3948722510428 499.03247064821653,180.37685095977042 498.9785345671147,181.81420680133647 499.29876830280705,183.51948902923706 498.924598486191,184.6905472163016 497.9119031479762,185.80942334121625 497.5829619615511,186.83433416815654 497.4855512692992,188.81111346369914 497.2123001826608,189.28093995365978 496.82428614553066,189.9491585094317 496.164775040803,191.0819414984421 495.38348490977603,193.17003835037687 495.2825661796203,193.44153541801887 495.37828549659105,194.52908977692724 495.4792042265687,195.68624109989602 495.9177089506566,196.90778997378476 497.71000304443913,197.28540518463393 498.1171860024317,197.3724170505604 498.9489668202384,197.51154833509958 499.3456883082793,197.57945392378977 500,197.68908010476724 499.3161205612249,200.40016688237193 498.72796043924257,202.31774804017957 497.939654232586,205.48819983788223 497.7970149103211,206.98995323032372 497.7846741345212,207.03862725470333 497.50647420902453,208.13664308347435 497.1862404735102,209.61052010418717 496.66423192126615,209.54092314012675 495.0180851876524,209.32336215354204 494.5934873276602,209.26767205357734 494.2037192718452,209.23635028757107 491.63702583532387,209.0241140012012 489.75427448133723,208.8535356635814 487.9689338196026,208.7787392863805 484.9864126179376,208.43770789821525 484.51138671474746,208.80486163920176 484.4156673979548,208.94230154841523 483.8501842345606,209.7583588396816 483.5003827518139,211.41678370564713 483.26371548803746,212.54261326260965 481.9430019029449,219.56382561543808 481.9378024897599,219.6021634570294 481.10946706627533,224.95116936678187 480.42565027108196,229.78869083786816 480.4203882144933,229.80604309624152 480.13153888847796,230.84492343081476 478.88042226744585,230.75095813279592 478.57760343375304,230.72803060010355 476.9036429717697,230.60130273490142 476.8792746379003,231.55317120350372 476.8322919888464,233.435985201072 476.7818639456484,235.52057401519198 476.4146475610802,238.76933022786582 475.9500831278417,242.41487057220678 475.6542803697785,244.75003351428796 477.09677298099234,244.98670077815342 478.29915293410767,245.18327618152017 478.57760343375304,245.22906860341226 479.475535821298,245.37646883419097 480.126339475293,245.48264962093535 481.2381995246226,245.53658570199264 482.58159006812525,245.51221736803421 484.02414532292084,245.51221736803421 484.3304095507577,245.5661534490915 487.0450043661326,246.04117935219264 487.9358580346444,246.19603416327212 488.9869538579877,246.2448334746816 490.4398452953935,246.4431628969557 494.0070812247188,246.4431628969557 495.2617058834767,246.54232760811502 495.67408825465424,246.5754033930287 496.47630132540655,246.63804692499673 496.8695147757217,248.10497051366167 496.82077810780487,249.25347702921238 497.55339421449673,252.1837535252348 497.7587397123559,252.9790131638947 497.99540697613236,253.90118859836826 498.0980170815693,255.4150948360426 498.2164133571282,257.12563912062086 497.5708091163183,257.48408541069665 497.0679694849366,257.76253591038653 495.855065418644,258.4376452546692 495.4304675586519,258.6725584996272 494.30357306164643,259.24161234428436 493.15619412963133,259.82100237168527 490.66085167621134,261.2775271340247 489.78215085311047,261.8464556916075 486.97014534548356,263.66493478179297 486.5229331704849,264.50191501274014 486.1331024709102,265.22920641917267 486.00092461841894,265.4711357397603 485.7172747055886,265.9931442918263 485.47189999072333,267.14158816388436 485.98695511074146,269.0975071632833 486.0565520748019,269.3272209951009 486.2166689426481,269.861445035937 486.86747259646495,272.02953767816865 489.0199043557825,276.2371157915371 489.3888747592136,276.9783767056026 489.5576364343888,277.31947073730504 489.2166050461346,278.1494975362043 487.8384473423925,279.5067949438918 487.2868083996904,280.04790977323853 486.38367659896045,280.9371347098728 484.58969112971863,282.209111627004 483.72658854599473,282.82164008281126 481.6819036617174,282.6320181114924 481.9099261181648,283.57862452341703 484.3216394564433,287.44855399931623 484.8367572198651,288.7693302278569 485.11345370064754,290.72512394022607 485.07336184023785,291.82840182567475 484.7863291766671,292.8898338317618 484.3495158280384,294.2819610432258 483.53345853677206,295.60267462822935 482.94529841496774,296.71635134000354 482.12911583671604,297.5324086312699 480.8466774495886,298.38686640762023 479.3310798365886,299.9372311809042 478.57760343375304,300.9429104435339 478.40019695124874,301.1797029944737 477.584014372819,301.80093890123624 476.2041652936177,303.22081719739907 474.90255798580586,304.5589456842686 474.23433942998946,305.5455813131548 473.5348617520155,307.7207526745532 472.29069856303124,310.24384621262755 471.912895421526,311.4445347903282 471.86259266531334,311.6046516580853 471.35969039052804,313.0802200541683 470.86900360455735,313.2455363351105 470.38351623159355,313.4073445782378 467.002456879265,313.912000871975 465.6817432941725,314.416594522175 464.00953685123005,314.88297561785805 461.24971340566407,315.192685240017 457.5607610937992,315.3492940700039 456.50972791403757,315.2709896550327 454.9557924593127,315.0378304289375 453.82820888344276,315.1544726855 451.0127579816718,315.70429496580203 449.30221369700456,316.4420478420972 448.01977531023323,316.71354490973926 446.27095582742277,316.6735156928222 444.3533746696151,316.8144636398059 443.492026104754,316.8788611906814 440.35289607314667,317.11026639786917 436.234083844523,317.41308523151747 434.29213435284595,317.6462444576126 432.5259626117957,317.75931603282316 431.2434615812646,317.2929975806773 430.7388679310201,316.9049835435027 429.8844101548033,316.51690686283536 427.5144800523937,316.3620520517558 426.8932441456312,316.12889282566067 426.3746809877092,315.5360344388797 425.9222693997036,315.0187241517013 425.6820940980234,314.7455357086891 425.475057224883,314.5088058012864 425.2610042759351,314.2652477488658 425.07138230461624,314.0790711718245 423.8602322570085,312.89579749598994 423.3938511613254,311.8464556915986 423.4968997716561,311.4445347903282 423.78192784203725,310.33254945392423 424.75465660682767,310.13772806942035 425.2296825098398,309.0467283162344 425.68560213574915,308.00264856852067 426.0354036184959,307.41962521627516 426.0753701917422,303.6401530005355 425.4541969285614,303.4835441705486 425.0643662291647,303.8333456532063 424.481468163949,305.23236365318104 423.4722182198783,307.5223606087419 421.55112902416687,308.86568850879644 420.17647935832855,309.8280184472614 418.6977161419831,311.4445347903282 418.439812720929,311.7264306842956 415.36683425906,314.1086389189234 411.43764400175513,317.3956703296069 410.4266400388216,317.3556411126899 409.0120237995589,318.3248618396655 408.3872798548926,318.8295181334027 406.09039211086554,320.6809477214275 404.6808499974465,321.5023297129532 403.6664632839505,322.09393522907965 403.0173510054148,322.5655157379032 401.7278965428359,323.50692273668733 399.6258928267163,325.0015974100511 400.3932760938256,326.01090999752546 400.63689678964994,326.57645580432325 399.6659220439004,327.78754320834935 397.6856347104985,330.8152930401609 395.6584900152061,334.9515201705616 395.2947816683636,336.2444200273736 395.08768215164156,336.65680239846216 394.56918163747935,337.6973741084056 395.1765106799681,339.28263132900327 395.3382562796918,339.84642311693824 395.29828970626744,340.2918812729405 394.5709356561642,341.341097790302 393.3580315898716,344.00695593776015 392.90912803959174,344.90839636316446 392.7490111717456,345.7975586562615 392.58720292861824,347.16870028450757 392.58720292861824,348.2997918981477 393.0344151036169,349.3247653686252 393.76176915354205,351.9904982290535 394.29079378123765,352.65527139054785 395.7820230603683,354.53457735034584 397.2367311602187,355.7457273978646 398.1850915909617,356.2451216349241 400.05569009989347,357.2316946202731 400.5794526708224,357.5083911011001 401.3834197604375,357.9312349420513 402.8798484527532,358.4967807488491 404.01094006634884,359.224197442356 404.7452475483219,359.8766924715876 406.23303143313046,361.20085145086875 408.051510523405,363.38122222540767 408.2042354543095,363.64745723637196 408.98414742778573,365.00650866296684 409.75153069471696,367.1468502205442 410.56063455375744,368.7720740145662 410.76253465747254,369.78126131496623 410.76253465747254,371.3804880431968 410.76253465747254,371.6397069785761 411.0635994723024,372.83168810536597 411.2254077152517,373.4755383271795 411.9354095069371,376.292805891484 412.15810726321416,377.98938066842936 412.2102266818714,378.38265676228167 412.27819491405427,378.89940325767003 412.4208342363192,379.98006682811223 412.6644549323215,383.3715250066327 412.26071736865106,384.66436221990756 411.93710088239635,384.946258113875 410.7137979895557,385.4683293095227 410.33273738447343,385.6300749091129 409.1894929256449,386.11737894447674 406.9899532302881,386.79079691338916 404.6495908751109,387.5042440992631 403.9013138854604,387.8261065666549 403.53935955748085,387.9827153966418 402.2482137196207,388.53786237715866 402.0237619444808,388.63533571290327 402.4274368645696,389.8464231169293 402.5074952984036,390.2100688201456 402.3073492137295,390.57377716689905 400.48899541079635,391.2593479810443 399.8834830303961,391.66308554471476 399.84339116998643,392.108543700717 400.367216384497,392.95598540152685 400.89267033070706,393.7633352418379 400.3932760938256,394.003447899981 399.8834830303961,394.24882261480167 397.86667451789197,394.8874734234747 396.88179290786866,395.1989370645411 394.6179183052181,395.9663203314278 392.6376936153979,396.53180349473297 390.73921873487103,396.6119245721487 387.49221654106003,397.21919097127835 385.02644183487246,397.74470756115915 383.1680588147552,398.4686162168957 381.3844095283018,400.6576317988082 380.21341398468536,402.11058587988475 378.7586432412533,404.3326772467109 376.2546559805042,407.11862304500914 374.3143978641084,408.20793142282486 374.1717585416654,408.2731433396391 369.6961913984252,410.3186425898107 364.1609462680943,413.42820487440815 362.41732619864683,414.3260746184605 360.0334892321415,415.7790913430297 359.8885320991346,415.850442325953 357.9662526762613,416.7970487378776 353.4802240632475,418.3318152716956 349.3527043838911,419.5881313058237 349.23092535776976,418.3387687037435 348.18164619687104,418.0551187909131 347.17064223393743,417.8932479042486 347.22821163992836,415.850442325953 347.2507006677715,415.0551826872931 345.99601336561,414.9229421912646 344.5430592846225,414.77153277441823 344.5518293791149,414.55754246914097 344.61791830527153,412.7443254356331 342.7176894057037,412.98619211263906 340.38597185803366,412.9217945617636 337.16860005485876,413.3464550651594 335.94178912429237,413.51346272142723 334.78814583909383,413.6718255703215 332.0491826898495,414.044178724493 330.895539404651,414.2025415733428 330.8989221553914,414.11377568850895 330.96156568740395,412.337142477685 330.5875211577732,411.40795096762645 329.53473395914875,408.78732145022576 329.55214886097025,407.90862062699136 329.57476317615476,406.7114400870611 328.957035307118,403.5740640742721 328.60378843022727,401.7869693935855 327.6345677031626,399.4847569493436 329.24933002727744,398.74875809195584 328.4018883266902,396.6501997702029 327.47100544117234,397.01384547341917 327.2378462151217,396.55974250999884 326.99078012497523,396.0794545502201 326.36434480502777,394.85615165746844 325.8961470469002,393.9443124057832 325.3637396684642,392.52437146608315 324.7181354276542,392.6444591169233 323.7002406764325,392.7784536318592 323.25647389575596,392.83589775068674 322.85968976413335,392.8880798128366 321.96877345221793,391.050369158296 320.9160488969971,388.8806477841868 319.41780354223687,385.67712020161497 319.80237218522296,385.5274648037205 320.34705769587714,385.3134744983987 321.47984068493207,384.8697077177667 320.34705769587714,382.0437953460441 320.7107033991379,381.88192445937955 321.96877345221793,381.7069610745135 322.44906141181866,381.64012042591077 323.29819448804324,381.39649972999746 322.60391622289814,379.7207226056586 322.5291198458308,379.54156210415783 321.96877345221793,379.64730438614197 321.88357824860253,379.66334113032366 320.9543240951403,379.9052078073741 319.1341536294065,380.30712870864454 317.51588326756587,376.82001385673505 320.10168298119,375.9725721559252 318.64697488116155,372.8229806544107 318.4642436983089,372.3584162211277 317.86386808769,370.84106458922025 315.9759173205184,366.0714487068242 317.7142126897955,365.46587368306484 320.141712198018,364.7298121821399 319.6260932862988,363.64745723637196 317.3523210053976,358.8743959596983 319.8180330681816,358.06003004380216 318.1614248646161,354.10302605843935 321.96877345221793,352.7338890232049 323.13294085059374,352.3159313777528 323.3974218427397,353.2626004332146 324.9913865142926,352.5874284453948 324.39621031685874,351.75038557091045 324.4588538488713,351.18659378297554 324.5267594374725,350.58101875921614 324.6015558147179,349.9059094149335 324.66764474087455,349.3195033119475 323.66716489147433,347.1600554770895 322.17762698780285,343.4727945404613 321.96877345221793,343.4463589699541 320.76470212364336,343.2935087518862 319.55706011393943,343.67814003832046 319.0680020596682,342.7036572546671 320.1834954338869,342.35216439663924 320.8673122290803,342.1381114478248 321.09878007984975,341.54650593169833 320.2757067129539,339.79593243015853 319.9154437604335,339.0999001461951 318.9897602882787,339.3052456440543 316.8303124533316,339.92121949413917 316.12726409387216,340.1126581279026 313.25092367877346,340.89745629669983 308.18895043259175,342.520926071859 304.74011077882545,343.6259579761705 302.9286477641805,344.078306920728 302.15255704616044,344.2697455544914 301.95241096148624,344.3201735977339 301.64439271478653,343.9112992644156 301.3991432869066,343.40319757644534 300.69258688972144,341.9345826124102 297.93977951978496,336.13999325953665 296.9392370268031,334.03272748682843 294.21248936619526,328.21734048134846 296.26926445212376,327.4725715295127 296.382398670916,326.5485794325946 294.5691816374081,322.8403955562856 293.27459040522587,320.09285024311583 292.95617333215614,319.4176156117589 289.68480280429776,320.6095967385042 289.0757197427681,320.44434310109926 287.7393452747169,320.0806347543458 286.32460374829094,319.8596283734835 285.1744685008182,319.4837671815417 284.86463359167385,319.26276080067936 284.34437905847074,318.1561001644903 284.1129112078793,317.66535073484886 284.81076015415374,317.54181768977566 286.1019059921919,317.31216650149526 286.38900129916635,316.38466636680687 284.44185239430436,314.81331601030496 282.33458662159615,315.02918562151945 281.20700304572625,313.0419448561142 278.8195953979135,313.3725147744613 278.24878753434893,311.4445347903282 278.1792532138702,311.2095589018329 277.29529033400263,309.037958221742 273.48787910281914,310.0281018884429 273.40268389938177,309.9793652205261 272.2942066007926,309.34246843076045 272.151504634946,308.5158870261388 272.0071112938182,307.68767688963953 271.62949608287994,306.4452677196517 271.2240671439283,305.1419063930215 271.2171137117024,304.3640616562721 271.2118516551137,303.8837736964488 271.2066522417507,303.3357054350542 271.18748332106634,301.55731820532293 270.3470576959306,299.3056590913534 269.76585100599607,297.71883578245985 268.55476360196997,294.4124475203469 265.76368103406844,288.16550922300496 265.56353494939424,286.9735280962151 265.65223819073543,285.38307146247695 265.7566649584389,284.71660692561244 265.8958588865597,283.8309526702856 266.11686526755557,282.285724666605 265.826324566081,282.19000534972326 263.1830807336293,281.3112418829517 262.25908863675573,281.0049776550258 259.32355008414464,280.0288034960023 252.61373872888993,277.8815711498697 251.35736005126915,277.6761630084734 248.84460269584957,276.6234384533416 247.81975451240191,275.78301282811685 247.68926803536985,275.46102507369517 247.43687724487506,274.836343772655 247.41257155440934,274.65712062761713 247.00883399073888,271.71807403710227 246.5825447556436,269.9309793564157 246.01875296770862,268.1909299682757 245.03731675200746,266.7535741267097 243.88536484209013,265.8435515374245 242.60461783042194,264.9665420895603 242.43410213656188,264.5106224636954 242.67258606278287,262.3320057080639 242.716060673933,261.9300221632563 242.989186473408,259.429542940233 242.92378662611583,259.24161234428436 242.73341293235086,258.69517281467824 242.2201118311956,258.2027320097111 241.57626160924852,257.5866955160891 238.54675775870766,255.97544122969998 237.56707556169133,255.77704916388868 237.12155476232996,255.68828327905484 235.7730274490459,255.4150948360426 232.87050203781132,255.30897669283544 231.5045598225277,255.37857365689587 230.35267055637013,255.7996634789397 228.72393872457783,256.720147538043 227.7842857447456,257.49103884274456 227.18741817185247,257.5954656105815 224.32667599630878,257.5258686465211 223.46006537468105,257.28744736374824 222.9207045643752,257.1395459847166 222.75012622657735,256.2642905557153 223.37136213351792,254.36230763737365 223.62362763667127,253.59498701397956 223.7646382272367,253.16518974098048 218.34597270984213,251.97320861423515 218.68875811695926,249.76671548683046 218.38944732117028,249.0307166294872 218.0048786781842,248.53996719984576 217.56292855995224,248.26176727426008 215.44520131747043,246.92865026991947 212.37216021201968,245.45652726806955 211.67788194687463,245.15721647223606 212.1685687330234,242.31213517974 212.95862895854282,237.72869587442972 206.81260939122305,236.18703855205652 205.18387755943075,235.2926142022818 203.7187079896287,234.86632496705298 203.1357472808313,234.6957466294332 200.5168717824271,234.38252896950394 199.87308420423977,234.30597857339563 197.6997295051969,234.04669699447916 194.04548170998973,233.6117003083396 193.61737581227183,232.24569544969685 192.76473469832152,227.12809474708766 192.75608989081442,226.53122717423906 192.70910724193854,223.5712576440879 188.01604175560627,222.87008859047666 183.7684970688134,222.52028710781897 174.4207039378737,221.74945844665461 173.6446132200317,221.6850608957792 172.32389963493912,221.4623004960095 172.28029973662564,220.11377318281444 168.68355870382769,219.5238590420137 167.72304542785182,219.36549619316395 167.34887561123574,219.30460668005878 165.3599434705048,218.91621678170557 163.1969875978319,218.49374880193292 162.9881967056506,218.45371958497137 162.47138756659155,218.0482280023935 162.4609887403996,218.03952055143824 161.3612815363029,217.17472659229958 161.4847519377054,214.5141305015191 158.32651562881728,213.63887507251778 158.38395974764484,213.20901515598152 159.05906909210552,208.21319347953815 159.10429772211853,207.8721620913729 159.21724401034373,207.03862725470333 159.22263135409577,206.99866068127898 155.08120481046555,205.17673619681585 152.22221665378476,204.23012978484672 149.90615998907333,203.62975417422786 147.33082174540093,202.72493099812763 143.71666581060342,201.4581534941814 137.61587487329663,199.6014618494344 133.90944501585054,198.5191069036665 130.00111505486737,197.37937048260827 125.26639161982953,196.4136577934029 124.49550031499449,196.25704896341603 123.71590155942673,198.3747135624497 123.20786251503814,199.75807067942128 122.72406651735557,201.07183083237695 122.54315199694746,201.56602565629598 122.43346317247735,201.86878184640707 122.14812188436579,202.64493520778623 121.967144720376,203.1356219938905 121.79662902615985,203.59843240826606 121.59128352830068,204.15702478301603 117.53686885073046,203.28001533515183 117.3297693340084,203.69765976291805 116.51189538029747,205.3472518908985 114.57865333935315,204.92616206885467 113.15702102428291,204.43315747205295 111.54745811335304,203.87512888904857 110.35196894870391,206.7480865533178 109.43944061819874,207.03862725470333 109.02950134492652,207.1691137318244 108.59450465874242,208.33503514928566 106.76042732909096,208.174918281484 105.27959687633027,208.04443180436292 104.59227204341114,207.98523366662798 100.57268716948394,207.63374080860007 95.99833117626292,207.03862725470333 92.76128930410624,206.617537432615 88.30495372531011,206.12165123337027 88.16695002417305,207.03862725470333 87.62451968067913,210.64238436317535 80.2830735922919,209.66101079096686 73.94567803479038,208.81870585980485 71.73924755096739,208.5264111395119 71.47645793428066,208.3994327001611 71.46430508904778,208.39417064348342 69.76591364961337,207.57460531440228 68.9796120359684,207.03862725470333 67.74396836750593,206.1964476105712 67.23229599822821,205.8466461279135 65.84236131020926,207.03862725470333 63.81133271605702,208.78049330528788 63.36762857896218,209.16161655390732 63.496361037131365,210.14818953925632 63.69819849726478,210.68936701214025 63.887945755747005,211.20266811329552 64.27069773611048,212.2293956026804 65.42960307807569,214.44973295059916 60.95409857823909,220.23636657491906 58.11252532355783,223.91066030042012 57.773122667359154,224.35091904323733 55.02382333514847,222.72907799995573 49.30240162764279,217.95601672332657 48.14525030471851,216.24371841984092 47.78674137106105,215.71475643568252 47.37091360573939,215.09878258559766 39.78922957226829,215.4189536776193 37.367054764216135,215.52156378301171 36.15070530342337,215.55814760569564 36.108984711136124,218.16831565323363 36.4952447294034,219.82486121326193 35.67743341927416,220.06152847712738 35.20409889154326,220.19727701092611 32.78017006462822,220.89681733270433 32.407816910456695,221.00462685128173 30.114311917170077,221.66589197496128Z"/></svg>