<svg xmlns="http://www.w3.org/2000/svg" width="500" height="500" viewBox="0 0 500 500"><path d="M18.28823699117639,464.32048624296146 18.267863546242676,464.1194357214625 18.80558422701054,461.6761269666792 19.155755351797286,460.49906237422204 19.442691533025258,459.95914575325486 20.268405699573282,458.81485760101964 20.96874794891561,457.3203576584647 21.478206066603736,456.2709829198961 22.146910511486848,454.77538500728474 22.719603572618162,452.86747899644206 23.10673969010027,451.6757748029355 23.293475935074113,451.100804470481 23.327350345294562,450.4366139025667 23.357849514251118,449.82890779548114 23.039316194039166,448.33440785295505 22.625869460218418,446.9359599597138 21.702964608709543,444.55023363584445 21.065897968401224,443.0558150244133 19.664074833867172,440.1753515151447 18.867680534951074,438.8717763700081 17.87479025724006,437.4608848158589 16.872831559942814,436.03421502501317 16.401802395179242,435.47282698911374 15.430342866838547,434.4505355125603 15.080131076460988,434.19637577155424 14.411467297168691,433.78292903770455 13.360913257448805,433.27460955575026 12.597336064432131,432.7978872127799 12.438049071530747,432.51217099835185 12.819858000776703,431.65363972610663 13.160960705977208,431.15886187511654 13.775457961296974,430.26649685815505 14.570672959004021,428.96292171304736 16.193920059855223,426.8957693748941 16.958676554080952,425.7831190272048 18.262211033626727,424.3835324983453 19.726171141692127,422.50844359325754 21.76510158224089,420.35878083681257 23.006539753846138,419.27772762810724 24.995573553990763,417.7878228937027 25.17198074698768,417.6556598283784 26.093746962878317,416.9247777444309 26.430376456556345,416.6149468537768 26.888961960469782,416.1927976903982 27.217661670295392,415.827946299029 28.003889579366675,414.9524981544112 29.855311129409557,412.6797814177612 30.96910011280379,411.24855708432693 31.102361148039932,411.1039503580947 31.59713899900111,410.5663110084218 32.59234721365499,409.24577832537955 33.61008414759103,407.97384098481774 34.467476784304665,406.87473226815047 35.20169344398302,406.02075553843605 36.689361572770785,404.7511361347304 37.36827307285838,404.3298002825036 38.74748615681305,403.6068073169044 39.92906462635459,403.10527898321317 40.78304135598235,402.74945534583935 41.94087113932627,402.267121155815 42.72258517139984,401.97229585626764 43.58786692637508,401.6786091923674 44.576202661613145,401.34877084689464 45.88315304812921,400.79409262819223 47.49623375936675,400.1627191660329 50.36319630317526,398.7055095406687 51.71642409528667,397.9577105843775 53.196203105581674,397.11955275695044 54.77427077098053,396.0283738241645 55.897087508370184,395.2353954323053 57.36328422219682,394.1780909098265 59.18648387451962,392.6858682385658 60.318328365789114,391.63181696075173 61.583474558116734,390.45377639489516 63.36487001625108,388.93674773291355 64.2989985619258,388.09179875722344 65.87259301580218,386.744142146633 67.70136384967488,385.0893385722731 69.1121740727291,383.899830318908 69.52342486637943,383.55303443552964 70.38756798573644,382.79283248386355 70.50846669141966,382.6855160748221 71.16700474668912,382.10493389528466 71.42112382201766,381.8507334887456 71.21104554652322,381.6790435005271 70.02157795872009,380.7053473664252 69.00266172345941,379.87845389872587 68.3712069302918,379.4142158822254 70.75921052536873,377.31542573952623 76.7223673667296,372.1452472901112 77.80114330405398,371.5544580553982 79.0019159172046,372.60952597217357 80.00724985576574,373.5527229373479 80.76407656613904,374.1265546341552 80.92783677044733,374.2508285811023 82.16927494205257,373.6148599108214 83.43783704135048,373.02179340481416 85.66651297805079,372.1373581717629 87.79694092523806,371.56462444504075 88.37756377033737,371.26756253976106 88.82037103749644,371.040486060799 89.87653692435704,370.637246382125 90.47525594303801,370.34807359522244 92.69714073138856,369.27495017045624 94.20628027502188,368.6190960420425 95.68268404405299,367.97702753799337 97.82100110961746,366.93668055342016 98.86252739545749,366.4294997070841 99.16638044894249,366.2442274223106 100.36825103212053,365.5099700969836 100.42136025154088,365.4771936567906 100.94659660598337,364.92373540483027 101.50351143036032,363.8923755086906 101.61196647507782,363.4586366611466 101.73396315067289,362.5798132751494 101.91354225732636,361.8026131200157 102.79236564329473,357.4084961900872 103.07592658314323,356.0687693634359 103.2385888173085,355.3514695760434 103.46899987214584,354.7155415713244 103.53678935829313,354.07957290104355 103.87793272896887,352.5896275010482 104.35392309188241,350.01187840967526 104.4031690832958,349.7452750077613 104.74321448394412,347.7425369143758 104.86521115965476,347.3370199644364 105.1351491373285,346.11928981343794 105.16450967055123,345.85606165290346 105.26170035551208,345.002084923189 101.40973665225418,343.5810676449592 100.85513976470452,343.32690790398203 100.08249415221718,342.9722229022554 99.33697246707578,342.78357537610236 98.97098244005943,342.74295048309403 98.04580031731408,342.39501596409747 97.16006378645466,342.0117024091182 96.70269824934108,341.8143931189981 96.22036405923004,341.60537214802696 94.61631110198792,340.91182104683213 94.20628027502188,340.6364745498273 94.15544832683801,340.6023154806445 92.4780347018987,339.8296698680705 91.18804185334605,339.2784482218136 90.97564564102433,339.18804868514474 91.61161431130522,338.33179468416495 91.9584101947125,337.9850801319104 92.50060408688725,337.71506082308395 94.07183993846111,336.53689826057047 94.20628027502188,336.443814797017 94.83663709827765,336.00710736368393 96.21019766961638,335.0560212801325 97.73629475121312,334.3612908777286 98.20618528035845,334.06304967126874 98.56087028202734,333.8371931590488 99.2793087050669,333.2045997301474 99.3346951958393,332.487299942755 98.36661090887809,331.8242480104589 97.72161448460176,331.40966264096215 97.26075170945185,331.2740836687542 96.64511581839827,330.8775944728102 95.38672010882959,329.5243666806988 95.02073008181324,328.97985485161007 94.71683636273742,328.37214874452445 94.68975310075116,328.20387466321847 94.6547400547969,327.9937557221621 94.23568147383544,327.15445925908796 94.20628027502188,326.8340959887918 93.99050882132067,324.4806987839632 94.12608779349969,324.06046090182156 94.10685298441537,323.13759671593243 93.83353976524658,321.26132850963563 93.82902588824888,321.2296907050897 93.71605696664923,319.8165625452371 93.55453336798661,317.79121440127227 93.5748254817387,316.93044652329473 93.8583864215872,316.5475396239058 94.20628027502188,316.1705292305332 94.24934510160102,316.1239265004136 94.52143835385436,315.82910120089514 95.12349194832399,315.1039122951255 95.6273382188714,314.5040546408552 95.34154067326168,313.8353501959432 94.57117233201082,312.0358992297891 94.20628027502188,311.40285847970654 93.90807973415284,310.88595856490906 93.48788251757313,310.10314656266354 92.53789440407799,308.4404132043645 92.17190437706165,307.99423069588374 92.06344933245971,307.42601084615933 91.91209212341076,307.12667166961427 91.16766840852792,305.6480312949086 90.91127206184731,304.94431380410015 90.43682699011346,304.13205993745026 90.09796089067419,303.3334696985082 89.69130530508762,302.69750102822735 88.89604964190535,301.2256111362517 88.76392724217186,300.9805198148319 88.70061096754704,300.864175651795 88.41713135876459,300.6337239314535 88.0386976708981,300.45752006623735 87.84891150904016,300.52530955232686 86.52276697903059,301.4628540048852 86.34428584240456,301.59953094717827 84.06136205066566,303.3413588168854 81.58304024992812,305.4323005067693 81.01254312896722,306.0162579276573 81.00018079918314,306.02870158856524 79.6333707103722,307.3277221911422 78.83246253468955,307.88577565122404 78.38400275491453,308.144408603637 76.97652710764896,309.2119201813203 75.8073516335979,310.10314656266354 75.33522449880691,310.46234544141686 74.8720437868297,310.7380172628593 74.07231491212495,311.44173475369666 72.5021770306941,312.49790064055725 71.36919390380636,313.08868987527023 70.99527409282202,313.28294924850616 70.35816678692288,313.8285997132131 69.4375798722413,314.26119992513884 68.0414092503232,314.84296140588526 67.67651719344984,315.0462891986497 66.43284241608336,315.5478175323409 65.82062243200006,315.77713061706413 65.46703540024303,315.97480589721255 65.20116397853035,316.1239265004136 65.04797681939715,316.2097308289898 63.49703308157538,317.21510543319954 62.52894879449858,317.79572827826996 61.30784340223623,318.7987849456524 60.980282328028856,319.25968838633537 60.88764618554096,319.3443947448264 60.318328365789114,319.867394493421 59.95689288136129,320.19951011015905 58.874741702541854,321.2500234843748 58.07041761988891,322.02946024524084 57.83435405243562,322.2000522633741 57.60276369638923,322.368367010242 57.114776993777824,322.6247633569515 56.26307753538653,322.84163278073794 55.776229468277776,322.9964058966127 54.53137538981782,323.4098119649004 53.34642167889682,323.83346575395456 52.52070751246437,324.12825038794 51.49162488759004,324.38578537026774 48.88675186866891,325.2013738127062 47.557272762755105,325.7085546590423 44.17519958864253,327.2052912073007 41.60314367550524,328.2829285090647 40.67234970561918,328.7234585049006 40.552589635669776,328.77994296575815 40.06350496291536,328.9008010057928 39.74265370587612,328.97985485161007 39.545019091231815,328.27499872515443 39.8251641242256,327.5814476239596 39.829678001223314,327.57128123431704 40.06012972153589,327.1126550648995 40.36508074516389,326.0553505424207 40.42611974855224,325.75601136587557 40.53339549206069,325.23524822298447 39.21745801714002,324.92009014415197 37.773790022711125,324.4682551230264 37.43264665203538,324.4083954208471 36.03306012314699,324.1644020694836 35.47960187121557,324.2197478946941 34.8684798571597,324.3598407439286 34.48439365656169,324.1373188074973 33.98624056433662,323.80634182640637 32.86114655571049,323.34547905125646 32.113347599332606,323.5352245474947 31.42203310387012,323.95432379398915 30.338783955138837,324.61737572625634 29.064610008815798,325.2703019344718 28.5054179130868,325.4996150191661 28.018569845978046,325.94693616329397 27.003069517687663,326.54219860947165 26.430376456556345,325.8917936658931 26.311755022225178,325.7571500015227 26.430376456556345,325.6796414468851 27.1849258955776,325.18669354606595 26.89461447308573,324.60269545961603 26.45408447716314,323.44372704074055 26.430376456556345,323.408795325939 26.107288593755868,322.933130287492 25.899446924022666,322.53550245592976 24.917821005952735,320.6569976439295 24.938194450886446,320.2481054526395 24.785657940744013,319.88321339570837 24.609413409994783,319.46411414921386 24.22650651049025,319.0450555682813 22.85554853488337,316.1239265004136 22.808864473726594,316.02453987531123 22.11754997814853,315.4721389278742 21.398013585081543,314.9954572504658 19.905790913820827,314.0081788198088 18.85637550971918,313.37448742082216 15.204405023408107,311.16834020351956 14.187562731776561,310.55388361370393 11.632627018734805,309.0108289942594 9.263858232742193,307.579645326387 8.896770235698423,307.3107646532076 7.8382864118949565,306.6929328220414 7.6338606491320435,304.5681167218793 6.685011171255141,304.42127338991475 6.489572496896833,303.9412164711557 6.473753594551647,303.83841393911194 6.414991862399773,303.44643862019456 6.285106068427525,301.32617706256315 6.38225608779756,300.8325378472491 6.393520447554218,299.9254518980565 6.480504077310594,299.2962743760676 6.7064419206254575,297.7035671096193 6.552238122530904,297.4055698965021 6.286244704045762,296.8913945740933 6.383354057940559,296.3424095335688 6.716567644763878,295.5358488451546 6.846494104326943,295.018501609176 7.062265558028148,294.31474345280554 7.406784170083364,293.51838981956695 7.5242669687962955,293.336492776144 7.832633899394587,292.8552972217379 8.882049303496236,291.6681069052001 9.34518934988262,291.1665379059759 9.743915151501184,290.61755286545133 9.75522017673308,289.6382042187046 9.895313026025383,288.83054556020517 9.903202144402567,288.60916225942105 9.938255855832072,287.55637161391104 9.916784440986516,286.8040587806221 9.408424293441389,285.74561562246726 9.367758734871176,285.24969913588785 9.518017973777138,284.52678750141246 9.615167993147173,283.7948074473798 9.765386566462317,283.12833960817125 9.26951074535814,282.34780487722 9.18887094279928,282.23593392564777 8.910311866691556,281.8496111193463 8.967894297518797,281.46556558431024 9.795885735303294,279.8468730259609 10.002588769533839,278.9228295388627 9.71227734692639,276.2276383143387 9.351939832641568,273.76960862735325 9.152027946760787,272.9608113332067 9.032308542402198,272.47286529607055 8.930603980443635,272.0605165323061 8.891077057491659,271.90236817508077 8.342092016967134,271.3748952150215 8.083459064525295,270.8801173640603 7.717469037508946,270.514127337044 6.907533107715293,269.7787313760988 4.98043295326351,267.97025265594925 4.361421820830454,267.48226595325116 3.76156416653124,267.10387293085995 2.1937035564524385,265.86918524195585 2.0140837843237374,265.72799442263613 0.9036700423089773,264.7384793862757 0,263.98840315869023 2.195940162098096,261.9031546469842 1.8085193858270083,261.32822498009165 1.5611507930262496,260.96109631742814 2.2377443562865476,260.65952053517964 2.0378324705213453,260.23358947486014 1.4413907230768432,258.96169279986026 1.8446304018086952,258.84986251382105 2.4828763433260703,258.74929658750966 3.3221321407516466,258.52563601543125 4.08351339371348,258.30197544338176 4.883242268302658,257.9608727382101 5.312507904353014,257.7665726994123 6.039974081503581,257.43673435396846 7.029529783425935,256.9894132098117 7.463268630998764,256.7228098079266 9.446812580775129,255.50060644549234 10.012755159147497,255.1142836391909 10.472519964154408,254.71214193060203 10.774136411993751,254.33147163697433 11.732013643750498,253.5305634611761 12.450411401314826,252.85059465653632 12.748652607774696,252.5670337167167 13.665904946667622,251.54136699878376 15.219125955610293,249.6255718695928 15.905885908599828,248.471117327715 15.990388939281226,248.34798201638614 16.52261976968083,247.57196116246155 16.903330728899366,246.90097944625526 17.346137996058435,246.4457691837502 18.08035465573679,245.68890180790166 18.62938036185213,245.16366545357474 19.256280612546792,244.66888760261355 20.19833894207393,244.10070841845106 20.64456211620329,243.80364651317134 21.262475278493348,243.29528636565513 21.69958936744565,243.08179218321928 22.521928292498618,242.4989327324165 23.10478774335917,242.12729019275534 24.632064126049393,241.5737912752331 25.037540410426903,241.45403120528368 25.577497696956005,241.2936462423549 26.013513815765307,241.10951259319958 26.430376456556345,240.95307218943046 27.21428642891592,240.6588162076922 29.066887280052274,239.90987861575388 28.92679443087555,239.66474662877215 28.707647735794872,239.35751833387877 28.568693522236384,239.16098168937748 28.076192942511682,238.2098549402641 29.605665265372323,237.68909179737298 30.128665013938,237.48011149196375 30.599734844407966,237.3795455656523 31.38254684662454,237.16723068442553 31.956337877783273,237.08134502475437 32.91539441086465,236.74024231955386 33.10290330137054,236.64309230018384 33.31749545386269,236.53126201414463 33.883438032235055,236.16636995721348 34.679832331151154,235.65353659823256 35.32820399669137,235.24464440694257 35.71566543855328,234.9825548820552 36.584322435023566,234.5454407931029 37.076823014632694,234.2347559257351 37.90823035938748,233.6541737461977 38.85935710850086,233.0464269735791 39.4377026823637,232.63525751099482 41.55458899855784,231.24583737177787 42.550854517648325,230.61214597276236 42.86715123209904,230.39865179035542 43.60026992174998,229.9061512106596 45.05064773323142,229.04424469703494 45.335306643107344,228.79012562161972 45.766849550509754,228.4467049795919 46.276267002607064,228.0457425722121 47.23418489995463,227.6300185670971 48.01813553790501,227.1691557919472 48.66540923341781,226.7184187409068 49.17596532101778,226.2971235542708 49.685423438705904,225.9853407167889 50.14628621385581,225.7695692630877 50.8737523908908,225.25559726848854 51.521026086403594,224.61848996256052 51.79437997104762,224.33269241703746 52.541040291691694,223.55101905043912 53.04374792662087,222.87666209288227 53.19957834696115,222.68122341846617 53.39615565705327,222.52421369685905 53.720341489881164,222.35817622128542 53.934933642373316,222.21133288932083 54.102150419242705,222.07351731138058 54.60258078281983,221.43754864109968 54.768618258364576,221.26020614023636 55.337936078232,220.83887028800953 55.70055086386888,220.6818605664313 58.59118076280893,218.96825459438645 59.116457782611086,218.6779431718368 60.05851611213822,218.02387832800315 60.318328365789114,217.88260617758846 61.90090990818568,217.02196029626782 62.333510120140275,216.76889852537587 62.54818360381406,216.6423879726964 63.05422581441631,216.34983994444332 63.644974383538475,216.03016798861313 65.2456520995167,215.0451668292504 65.68390482408724,214.7413137757076 66.15904121028709,214.46003010715336 66.78305420634534,214.09066483878644 67.76350082320621,213.58344332688844 69.03543816365244,212.924905271619 69.83069382683472,212.2652285807024 70.9060538573044,211.4145864268055 71.12406191676685,211.18307740194075 71.67081035153014,210.60127525566128 72.58688338921401,209.31811422093364 73.16189438717261,209.781213601787 73.63633945890646,210.1618838954436 74.14352030524255,210.57081675229554 74.80205836051199,209.87157247289394 76.54388623010355,207.8485016002523 77.67349411584297,206.31000152333843 78.62799610622024,207.333390970006 78.86292103805529,207.64627177754423 79.12956510553119,207.98741514827773 79.53504138979312,208.39520936948256 80.1506772808467,209.10234276723241 81.29610406870015,210.4160843019827 81.78864531401567,211.19999427428445 82.98596135460517,210.9209878770245 83.87385316015978,210.89500258512342 86.01668410272195,210.83062900591753 87.47954624075993,210.9096828517637 87.8862018262309,210.93115426666705 87.92349214353723,210.48155585127378 87.93361786756007,209.67052195139493 87.96635364227787,206.9967614762702 87.97090818475081,206.6816033974377 87.97546272733933,206.27718441758347 87.9788379687188,206.03546833751426 87.99803211232789,203.71415625838384 88.0985573730774,203.37866540029515 88.0985573730774,202.84208335514552 87.95399131249378,202.33831841572194 87.99803211232789,199.70290556231123 87.76306651501761,198.0491999580076 87.68515130473189,197.5047694600427 87.69527702887031,197.09132272619306 87.84098172518775,196.4282707939259 88.0872523478455,196.14808509545688 88.3267318221535,196.04869847035448 88.64754241360193,195.91425813376483 89.162653043906,195.68949959160122 90.1058906746422,196.29378979177432 91.87817704771507,196.28024816075228 93.11058746532488,196.2373459964786 94.20628027502188,196.24267318465698 95.41721927778615,196.24861035620637 99.6475760034353,196.03174093241998 100.5320112364288,196.0859481219833 101.20075634690274,196.12661368052463 102.31909987276991,196.05886485996814 103.40352832282584,196.03515683933247 103.59103721333172,196.03060229677283 104.0869130344359,196.10741953688665 104.33765686838497,196.14694645980973 105.07642807076743,196.584141879857 106.0953036404373,197.12064259391167 106.73582685330672,197.3003030316312 108.36919967829634,198.25480502206625 109.78911898641205,199.08393509549788 110.93564374429292,199.75491681170416 112.01441968173289,200.3852329693402 113.01296247217542,200.96809242014297 113.58345959313633,201.34762407815245 115.34448160645253,202.35751255935992 116.00415829734023,202.6579497059902 116.698888699773,203.02735563991905 117.28060951501531,203.43059531856423 118.30513759730113,203.99881516828864 121.02525680917395,205.50795471192197 121.52902174853973,205.89879139522114 123.73630760146054,207.14470277829108 124.15081163983348,207.50284435249216 124.81280626754845,207.76375457619935 125.48264934816538,208.02808070681905 125.62046492610564,208.12295345495264 125.62270153186687,208.12409209057085 125.88588902678165,208.30708710407905 126.32190514570654,208.60980152200358 127.70795004348622,209.36097571967426 128.09427284984545,209.570891332921 128.4771797492344,209.77897699608354 129.62488380832434,210.40022473416226 130.74997781695046,211.0102081125132 131.3316986321928,211.4575292566411 131.123856962344,212.216633238222 130.76124217670713,213.5382638913494 130.52627657928127,214.02966650096002 130.47780323351552,214.46003010715336 130.43705634387922,214.82150625717202 129.94341712853628,216.6096521980653 129.89482178611365,216.98804522042767 129.89372381597065,216.99483636871963 130.39301554392955,217.14956881903248 131.41416838495147,217.464767563398 132.46468175908052,218.4305339135897 133.8201868224284,219.84028683209175 134.27088320796466,220.20855413037347 135.36096417063652,219.43249261088695 135.95061476973126,219.0654046137854 136.46572540003535,218.68473432012877 137.65291571648643,217.81156344677635 137.7320102278656,217.75280171465337 138.04940491245932,217.51897475296133 141.34669039698593,215.12987318771252 140.71165703448477,214.46003010715336 140.25437282855285,213.97765525156709 138.4967260566161,212.19857773023114 139.2445250128784,211.53999900939976 139.7517058592145,210.9978051171383 140.2215963883598,210.68374500841995 141.20667887887527,210.13589860354256 142.31363604832893,209.606107706656 143.83745585857363,208.8820574365335 145.34208152520924,208.1297446032157 146.1723502342302,207.5988150707109 145.57818575813775,206.69404705834563 145.6719605362439,206.6737142790894 146.10456074819848,206.5810781366882 146.61857340835957,206.47038648629612 148.94777460580937,205.7101438690681 149.13081028490836,205.58249468074152 149.01100954936814,205.42210971781273 145.67761304885985,200.9330793742176 145.13993303368278,200.19544680754007 141.33766264299052,194.9767136812065 140.8440640932384,195.17890283835266 139.4896163343271,195.804705118991 138.37590868211453,196.39093981117324 137.8325354887307,196.67787599234342 136.9593646152627,197.11389211118163 135.67839952070548,197.96449359954548 134.996112779354,197.84249692386373 133.84275620753255,196.23055484821555 133.96930742571612,196.12661368052463 134.6967329372759,195.80242784772562 135.35758892937264,195.27605285775158 135.78567526421392,195.04336453167778 136.78877259712942,194.33619046836597 137.19542818271597,194.0492949527577 139.54614146071776,192.8891878982351 139.27839942321444,192.1459028189127 137.4970039650801,189.8821731707251 137.44844928813268,189.43940656912795 137.44060083534632,189.37051911295325 137.41795011917614,189.16828929024518 137.63823544987505,188.33915921681356 136.78202211448604,187.2615219150496 136.05679254309672,186.12402491107747 135.81397849300006,185.74221598177374 135.90657396989715,184.348322631121 136.11783154648506,183.72589559183322 135.41293475455421,183.08317643885118 134.99721074938142,182.94759746661438 133.7207595318219,182.53419139832664 130.91483599140176,181.52767815846977 128.82295899356475,180.57203753235868 128.67713230059044,180.50542734744934 128.9234029232482,180.21511592489966 129.54127541994745,179.9722612092122 130.3794332473456,179.64352083382468 132.02073585630322,178.87538909824838 131.843393355411,178.54555075277563 131.66609152022517,178.21457377168466 131.459307154813,177.82825096538318 131.26504778166372,177.46677481536454 131.40400199522222,176.15982442890626 131.459307154813,175.63117216766685 131.5068045273238,175.18385102351007 131.52599867093286,175.00764715829388 131.66039834190283,173.73794642346442 132.04672114826207,173.3482890413743 132.94591797904857,172.43778718526923 135.1519838651695,172.56092249656922 136.14149890161661,172.47959137945767 136.916421785456,172.39598299108076 138.0403771584639,172.2412505407679 137.8562435093375,171.5680322188293 137.6631227716909,171.04275519896936 136.58882004577342,171.16361323900398 135.94951679970384,171.24270775038318 135.20171784332595,171.24949889867514 134.6526921373262,171.1489329723637 133.89135154995517,170.89249596009228 134.27881299193265,170.16279317732497 134.45054364568418,169.83860734452597 134.24156334033273,169.57879509090395 133.94446076949112,169.21052779259335 133.30625549344896,168.96543647117355 132.79565874025818,168.52942035233534 132.48159863145312,168.19958200686258 131.66263494766406,167.3410507346174 131.0877052808871,166.38654874415346 131.47061218016046,166.1764298030682 132.2963670121837,165.72573341758974 132.63299650597733,165.8488280633567 134.39068394350488,165.8364250679818 134.63805253619006,165.83418846224944 136.28049378076594,165.82174480134154 136.81479855467907,165.78107924280022 137.34117354462424,165.5122392351539 137.4439760767258,165.0084336301973 137.3513399342379,164.71019242373742 137.34117354462424,164.67408140772685 137.29257820208602,164.51821032179575 137.17285879772743,164.1318875154943 137.0757087783574,162.81704801065885 137.0158490761781,161.9958070556044 137.61904130626598,161.42876650706015 137.7760510278153,161.2807438739154 139.01862783515438,161.2807438739154 141.06544739396475,161.17009288908525 142.20294439796575,161.1530946856177 143.44210529833452,161.0469575777853 144.65304430098323,160.96790373193912 145.25286128969162,160.9272381733978 145.0518107681926,159.79421438086146 145.37937184239996,159.2644234839749 146.31130444790426,157.93604234814632 147.20253082924754,156.6641050075845 148.59308960414052,157.29779640660004 149.15337966989694,157.45480612817826 150.42865158624738,158.03542897324868 151.81811239099736,158.57310898851242 152.0168856412599,158.13030172138224 152.1999213203589,157.72140953009225 153.1205082349249,156.44947218953044 153.66497939845172,155.69829799185976 153.92251438075056,155.33344660049053 152.5376487841799,154.61838341880156 153.6006058192747,153.20976913594663 154.11567578398797,152.48571886582414 154.66014694751476,151.71868510033306 154.03776057381782,151.28950079529096 153.5328163331274,150.9878436819186 151.89041575414237,150.27505777152388 151.55830013734646,149.16919857212653 151.55037035349403,149.14207464457834 151.34704256064296,148.46544041572724 149.54759159451777,147.5956854493162 149.23471078703736,147.44432824035394 149.70407266384882,146.68408562312592 149.91472025715237,146.3429422523924 150.0920627580446,146.054908101137 150.49424513222425,145.40312052856868 150.0796597626697,145.14558554624097 149.172573813506,144.7220130883107 148.84724934505988,144.0758373628253 148.6653929672855,143.71212460707432 148.36719242630087,143.1201967367142 147.07715891215742,140.55379333616398 143.63412806583813,139.03558537300222 142.65140417774077,138.60290382995268 140.81584219551831,137.7071635716117 141.33656467284752,136.89722764181803 141.78726105838376,136.19578742227492 141.52069832208952,135.36551871319617 140.99769857340826,135.1282758445916 139.07734890171542,134.25624360688633 138.72152526419714,133.71291107897775 138.67410922309915,133.6394690802434 138.18270661340188,132.88833554813465 138.46736552327778,132.38111403623665 138.8322169146759,131.7304650993155 139.36314644720957,130.78271359158157 139.81010160128017,129.98660395171453 140.23066480794606,129.23628373075752 140.403493431725,129.0024974346274 140.82482928392292,128.42976370790527 139.8646747809297,128.3270018414234 137.46089294898283,128.05246865559923 136.65774816753893,127.94177700520716 135.7800634171888,127.55545419890571 137.091527680587,125.57186958359631 137.28241181247236,124.88962350769117 137.31970212977868,124.82634789857049 137.77491239219705,124.05032704461699 137.99857296427547,123.7035311612675 138.4120196980962,123.43806639500067 139.24790025425787,123.49792609717997 139.97085255429516,123.54879871095466 140.6395976647691,123.59621475222603 141.08915541457154,123.62785255677193 141.6076819517303,123.66510220842964 142.36113342072414,123.71825209344081 143.54604646593876,123.80291778636989 144.58529548042674,123.82101395992265 145.02240956937905,123.82890307829985 145.64597524440063,123.87184590813543 146.5326877486306,123.76566813474108 147.61374095730704,123.68092111068815 148.55466065121595,123.66058833140303 148.99523131272935,123.66737947969501 150.55630077457397,123.69222613597782 151.40242905153096,123.5871869982306 151.91973562188986,123.5871869982306 152.24733736157248,123.73403033016628 152.34221010970603,123.91365010232387 152.33204372009237,124.31465317526559 152.38743021086478,124.71789285391077 152.44728991304407,125.16521399803865 152.4608315440372,125.26012741170523 152.50942688645983,125.61704901916424 153.8480150775507,126.08132770122666 155.0611500203698,126.08132770122666 155.25886596608018,128.32021069316033 155.3288920579887,129.17983993549072 155.38765379014058,129.90726544696378 157.31133803762208,129.84289186775788 160.23132846978487,129.57856573713818 161.98222475907824,129.40947834465155 163.50604456932294,129.2623096882494 164.2561207969373,129.06121850118845 165.97424064592204,128.00053873733015 166.06569748708532,127.9666643270519 167.06314230750044,127.58932860918395 168.26729016191493,127.29340533958026 168.79484445306915,127.15668773169632 169.40710510274326,126.91383301600885 170.64289076161697,126.3547222514037 171.10822674828935,126.13329828505765 171.81084626898374,125.8464027694205 172.5439649586347,125.60127078243876 173.90178795892544,124.96981598915558 174.12878310679247,124.97660713744754 174.65178285535816,124.99128740408781 175.42333049793365,124.72809990911524 175.9203449545405,124.54848013695764 176.86354191980143,124.08985396754008 179.02674630729732,123.19407304363718 179.82647518177092,122.86313672810812 180.6183556036893,122.64508800311265 181.3740436782132,122.61235222848154 181.57964874230078,122.6032838089242 182.3296843043243,122.67672580768745 184.8023942580367,122.72979436160365 185.89585046208805,122.58636693658049 186.4968060864147,122.5072724251724 187.14403911645226,122.53895089528022 188.54586225098632,122.6236165882093 189.0530430973224,122.6236165882093 189.8132857145504,122.78176494543466 190.47633764681757,122.97720361985075 190.93720042196747,123.11160329090741 190.9971414553284,123.12965879889825 191.9019094676648,123.30931923658888 192.05216870645518,123.33977773995461 192.934367333803,123.55217395230524 193.46301959510023,123.563438312033 194.31813496034624,123.7950286680216 195.0466991075242,124.05935479864131 195.870176668311,124.25015759937392 196.58751712120758,124.41631707163334 197.1376407974659,124.47503813819439 197.53746456922747,124.46035787155414 198.28302691972854,124.59817344952327 201.06747904530314,125.39115184138241 202.1225062965455,125.72099018682626 202.6692547313088,125.86783351879082 203.25439145340582,126.1107289000402 204.31734848850058,126.87089018617327 204.6050573152606,126.83998436165528 206.9910682981212,126.5828967004509 212.4018648574625,126.03614826565872 213.25693955734883,125.94237348763927 212.82885322227636,123.37820669279249 212.7509380122218,122.90827549811412 212.60856789169304,122.04754828566962 212.52841607564608,121.56631206570158 214.4193238830501,121.2783185800081 215.13101182333074,121.00150812291855 216.9688510767897,120.07299142438454 218.42150615962316,119.335358857707 219.30484342258927,118.88689907793199 222.10739172174553,117.49186709163213 223.3341089611486,116.89205010289483 223.64703043421983,116.28320536019102 224.08532382438116,115.43146523620891 223.22565391654663,114.18551318757706 223.0505886868909,113.91557520987443 222.4677292361459,113.0186556503244 222.32267518870367,112.79613371389314 222.26895598588337,112.71366396113447 220.5022407943604,109.99696065617415 220.33274674625454,109.73605043246694 219.3059820582075,108.12634496252218 219.22465094118266,107.93887673757823 219.10940474811537,107.67113470004601 218.96370005179793,107.33336657066306 221.81708029913807,107.08034546530415 222.75694268849477,106.94932103565587 223.7068901363991,106.86457401160294 225.96606524205598,106.70646631993951 227.14199119886598,106.4737779938657 227.966607395271,106.24104900225886 228.70537859765346,106.13600986451164 229.1707552496855,106.04113711637808 229.75816924313457,105.96838643210971 237.12424718905692,105.05723392710057 237.95902977519117,104.90929262505078 238.72716151068082,104.88782121014744 239.3744352063092,104.79290779648086 241.0270428404987,104.70820143798984 242.6107223529227,104.6347594392266 243.47262886651845,104.60426027032784 244.4542547845884,104.5703858600496 244.82589732422068,104.66188336680368 245.85042540650647,104.91490447213371 246.08087712681905,104.97142959852435 246.40847886661726,105.12953729021667 246.48525544116916,105.0538586857211 247.40027117430083,104.14905000782277 247.75267890473324,103.83385126345726 248.38860690942332,103.3459052263211 249.00200619471568,102.83644710871965 249.34652480677087,102.63649455727695 249.83227490373665,102.50998400462638 250.5631163221511,102.42413901051714 251.26911108434052,102.42527764613537 251.33348466340195,102.41624989213996 252.13886605072267,102.30889281756544 252.75112670039678,102.31909987274102 253.01996670792752,101.9429027905491 253.03692424589093,101.91809679982819 252.91269096453462,101.55771861989477 252.1886000288791,99.46458098981155 252.08579749677756,98.92803961022385 251.47243887707603,97.57477115255051 250.80035919081345,95.75275080137898 250.55518653829867,94.74965346846349 250.4151343545972,94.17919701300673 250.21404316750736,93.6302119724822 249.8243451198842,92.54240828107571 249.6029618190423,91.57546262970382 249.48206311347465,91.04457376273207 248.84841238002105,90.69667990926848 248.23497242925347,90.73730480227678 248.15144537194263,90.33744036498219 248.37278800707813,89.9579087069727 249.16580706461477,88.31660609804398 249.48206311347465,87.94720016411513 248.2677895350373,87.53489206588372 247.126876624066,87.1022511883961 247.30421912495822,86.84813211298086 247.335856929533,86.80405064749816 246.9348538565624,84.92550516993597 246.62644626048888,84.31552179158503 246.1949440185617,83.46268369751772 246.06843346596892,81.62598307973481 246.02549063616223,80.58901133651219 245.93061788802868,79.91351574330821 245.85132004881098,78.90814113909845 245.77364883195457,77.92427861535397 245.69569295619362,77.58992639291242 245.6154598091962,77.24878302217888 246.2909554023135,77.26911580143509 246.74616566484747,77.43970781959726 248.7625267202921,78.19877113561623 249.17597345422843,77.17534102341564 249.36913485735025,76.69865934600722 249.65379376722618,76.37105760626683 249.73850012574607,75.99152594825735 250.4998407130015,74.31744689913559 251.0070622249284,73.30422384211057 251.19794635681376,72.70326821775504 251.59894942978437,71.6651985044472 250.0558948102242,70.88010923096527 249.43354910211806,70.64742090489146 248.8834254259753,70.34015194443617 248.12204417312907,69.91771812212413 246.30112179192716,69.06146412114431 245.92947925241043,68.95300907648459 245.61436183916877,68.8604135996453 245.18058232588956,68.66948880222691 245.16927730065765,68.28995714421742 245.64482034253453,67.77256924267688 245.78601116173866,67.32410946290186 245.9871023488285,66.6892794282681 245.55332283578042,66.16969558658602 244.2915925503075,64.65600150039306 243.6397643122062,63.875466769441864 243.5629877376543,62.95935306628275 243.54489156407263,62.43525534760297 243.48503186189333,60.74873263754439 243.4680743240455,60.25846866358093 243.42631079544788,59.07241698269029 243.14165188545635,58.455642456047364 242.99366991790245,58.07611079803788 243.07727830627937,57.2209954327052 243.27832882777838,56.713814586369125 243.4037007447529,56.28117370888151 243.58445915261544,56.02136145525951 243.95382442101126,55.775090832630646 244.58865445555836,55.42044649646591 245.14666725019387,55.04652668551045 245.24044202818442,54.983251076418654 245.8029686997021,54.60713532532167 246.56430928695752,54.33260213949749 247.32906578118326,53.97002801939364 248.92409098454553,53.24142320671152 248.99749231771796,52.50265200441574 249.21777764841687,52.18525731987982 249.54761599386072,51.710812248174854 250.90535766296983,51.31542102231605 252.15021174154538,50.81051744727424 253.57797950244745,50.12371682880947 254.59124322509217,49.510358209079044 256.79055862845416,48.475623071588764 257.0153578362664,48.369445298194414 257.6807277053608,48.211296940969056 258.2511434952557,48.17969980198508 259.2440744385575,48.09385480784694 261.10566237821405,48.24630998689443 262.8509061547759,48.47448443597053 263.6461211522518,48.636821345727114 263.78056148892813,48.66427059774178 264.5159167843403,48.681228135676314 264.6887454082348,48.68574201267402 264.87174042174297,48.60441089556249 265.14281703503497,48.48469149114611 265.79464527313627,48.12659058250694 266.5604997373894,47.70525473028012 266.82933974515134,47.59793832126753 266.8790737231922,47.57760554198242 267.99843388813633,47.13142303347277 268.112582110945,47.108812982922295 268.5372932045224,47.02634323016363 269.2206779161325,46.74054568464058 269.2455245723575,46.73041996055995 269.2715098643164,46.723628812267975 270.8236329032316,46.33389009905402 272.4208540467643,46.063952121351385 273.15848661341295,46.0006765122307 273.34262026253936,45.971315978950166 273.9401599800113,45.87416595958013 274.6800291524212,45.82109740566392 275.12173844943726,45.8640402354995 275.3453583559248,45.8561104515604 275.67637600257774,45.84366679065247 275.67857194274814,45.3884565281474 275.6806458862617,45.020189229865686 275.6876403623344,43.77195990993957 277.0363949430389,43.59010353207853 278.60539418873594,43.558506393094554 278.4721331533842,43.22862738205989 278.425815082198,42.90444154923199 278.9160790561615,42.872844410248014 279.43001038525654,42.84006797005498 279.42435787252504,42.2639996675153 279.4085389702954,40.833913969728144 279.3238326118911,40.19225212126937 279.4412747448976,39.144016018347884 279.502313748286,37.5569205989536 279.60958949179445,34.734080186131955 279.5757150814584,32.9165330464251 281.20233742380464,32.95264406243568 281.20233742380464,31.795952914825577 281.19335033540005,31.44582245562965 285.3716958115407,31.3045909707769 286.71931175662695,31.248106509948183 287.4140014934689,31.21988461228589 287.8466830364896,31.795952914825577 288.00930460517964,32.12355465456597 288.8553922165458,33.01258509573882 289.35805918588414,33.431643676671385 290.4718481691628,31.795952914825577 290.85475506855175,31.218745976667655 290.9688219602944,31.047055988420272 291.9278784932602,31.058361013709956 292.1402340401067,31.060638284975326 292.69601022886536,31.067388767705378 293.6753995411741,29.90614307753564 296.20678989585673,27.110385926729148 296.5174340976915,26.733090874452007 297.20537335177454,26.355836487707894 297.5340730616001,26.2414849370318 297.5951120649885,26.220298181033012 297.78262095549434,26.15588393626519 300.19091666432337,25.373071934048617 301.3656633199243,24.30560102192723 303.46563276386144,22.39659704099932 303.71637659792606,21.858876360202558 303.99086911818836,21.272641668049218 304.4427041393428,20.66265828966937 305.9157326669945,18.262251699159755 307.6089651941634,15.504923501191135 308.3421245494051,14.218305893989069 308.47538558475685,13.88619027725096 308.45281619976834,13.75288857630842 305.34413757589056,12.399620118635086 304.54550667132884,11.755762329977001 304.5206600151038,11.527587880929795 304.95570016054256,11.132237320632917 306.7414468334269,9.50899021969503 307.91847076037993,8.421186528288537 308.0732845417588,7.733247274176631 307.9399421752255,7.401131657438522 306.4048173396333,6.195885832909911 305.28130928789324,5.500464116040042 304.8820954995316,5.25606410908622 304.53985415871284,5.0436678967644895 306.7493359518041,2.9776541942583528 309.16442280898286,0.2869361811990793 309.43326281662917,0.012484326498739267 309.8376817964545,0 310.3324596474157,0.04294282983558331 311.01133048191247,0.01809617355276537 311.80768411523775,0.07344199876324396 312.66393811621754,0.25643701227141863 314.48262389154263,1.2301738119352716 314.9186400104675,1.578108330931883 315.1852027467618,1.7915618478057964 315.4845419232491,1.9327526671255197 315.8821697548402,2.0604018554232155 316.4164745287534,1.7632992846104776 316.69657889604076,1.7791588524597957 316.7858397971492,1.8898505028518584 317.1630941839222,3.0217356597121734 317.5246109994161,4.295909606006316 317.6217610187861,4.679955141013509 317.74375769449676,4.887796810804502 318.4531276979501,4.7658001351227535 320.1012214551419,4.265369771516734 320.3339097812157,4.496960127505335 320.33956229383165,4.548890045774417 320.39149221215854,5.052736316321833 320.2808005617954,9.267233474063877 320.2808005617954,9.821871027233243 320.4356143431743,10.220596828880701 320.9687398158784,10.597932546748657 321.75891228413826,11.132237320632917 324.6771947628737,13.105655546299756 324.9878796302993,13.260387996612613 325.2363461931275,13.308983339093038 326.1197241216843,12.528407942579914 326.6269049680204,12.320566272788922 326.6450011414865,12.312677154440632 327.1860970637494,12.351065441716582 327.5859208353954,12.438008405911036 327.99147845095456,12.527269306932782 327.99257642098195,12.527269306932782 328.37438535022795,12.574726013766076 329.1899737927531,12.67752854580985 329.97054918920844,12.774678565208779 330.0021463281924,12.77919244220649 331.4220656363081,12.995736541526423 332.19471124891106,13.113544664648046 333.7083240040668,13.359774621714989 335.5880487827803,13.66252970517257 336.7425033246291,13.5958788547013 337.586272999168,13.706570505093364 338.37359887838227,14.065769383846632 340.482555410724,14.576366137095206 342.43677949275286,14.797749437879332 343.7505210275031,14.717556956386035 345.36697698023573,14.753708637958539 347.6103331835474,14.665627038116952 348.2315809216261,14.643016987566476 349.25277442812325,14.73113925294109 349.874022166202,14.776318688509015 350.5461425180554,14.75822251495625 350.7404425567955,14.753708637958539 351.353801176497,14.640739716272213 351.9389785641848,14.53228467161249 354.8002072643113,14.068046655112003 355.88016250284477,13.743860822284104 358.1065611683086,13.332650694166803 360.7453085975658,12.844704657030627 362.83169574491893,12.190680478758884 364.9485820611131,11.223694161825083 365.1157175068008,11.132237320632917 365.3100175455409,11.025937550552799 365.9787626561304,10.660069520222216 366.9976788912755,9.912270563902121 367.2156462851471,9.752942905496605 367.5872888247794,9.375688518752492 367.8380733244349,9.289843524643247 368.2469655156671,9.314690180897172 368.84564386887286,9.515740702425084 371.26300799728807,10.395743389602508 372.6637331617947,10.923257015194793 373.2003965380104,11.12532417568407 373.2186960394306,11.132237320632917 373.3957132158274,11.198847505542265 374.1965807260348,11.536615634925218 374.69810905963936,11.748971181713921 376.21741499288635,12.285553226863549 377.5560031839772,12.758859662921383 377.58084984031785,12.767887416916803 379.89764804239275,13.426425472186258 380.5031175437171,13.597017490348433 380.6996948538092,13.847761324413087 380.761831827225,14.05901890111658 380.78440121232916,14.134697505583272 380.73808314114297,14.565061111805521 380.1427800294323,16.1001859473399 380.18458422362073,16.216570775938727 381.15376648060936,16.617573848880447 381.22269460237493,16.77002902789904 381.00582517864626,17.176684613456707 381.00127063605777,17.420677964820204 381.0701580922325,17.558534208322374 381.63837794207245,17.752793581558315 381.83267798081255,17.904191456053617 381.8462196118057,18.001300809890626 381.3853568366558,18.34016690935879 380.4748956461126,19.45395589266634 379.5711849383284,20.223266929480594 378.8787724727229,20.666033531048843 378.56023915262654,20.790307477995963 375.73621943862474,21.081716870601934 375.45831101139214,21.137103361374336 375.2685248496498,21.260238672674323 375.07654274762143,21.385569924144725 374.94665695353365,21.469178312550522 374.4631434623291,21.95261047268899 374.00569659414947,22.340071914608682 373.8994781551932,22.453081501828034 373.4702531846181,22.90825109877118 373.1064997632474,23.29457390507264 372.9878783290318,23.397417102649438 372.66255386058566,23.682076012554255 372.36890786230515,23.831155950222268 370.2553967872593,24.522470445713644 369.72788316169596,24.67045241329645 368.994764472045,24.70546545922182 368.52487394289966,24.682896074204372 367.8504763198098,24.57334305945944 365.99230428712355,24.270547310439937 365.75168617708175,24.281893001291547 365.5223730923874,24.487457399788273 365.3619881294586,24.77439358095846 365.3100175455409,24.876952119659595 364.89205693472246,25.701771643874228 363.90819441100683,27.158981269209573 363.59531360352645,27.62098267997772 361.1881158647248,31.228912366310208 360.810820812361,31.794854944740365 360.5159955128714,32.12241601891884 360.6029791426278,32.62626228943736 361.34398695054034,32.59344518368241 361.8523470980855,32.719996401923794 362.6882276543627,33.02612672673195 363.63028598388985,33.28024580217608 364.39618111373386,33.577348372988816 365.05248256324205,33.55701559370371 365.3100175455409,33.49512261357279 366.7728796835789,33.14356885985407 366.970554963814,33.108555813928696 367.1953135059198,33.09050030593785 367.378308519428,33.10066669558041 367.61892662935423,33.13344313577343 367.78833934627846,33.152637279411415 368.06510913789276,33.20798310462189 368.2119524698284,33.24978729881034 368.30117270523044,33.29045285735166 368.4469180671387,33.36950670319783 368.58473364519455,33.45535169730707 368.6253992036492,33.50390637422557 368.6287744450286,33.55815422935084 368.60848233127655,33.62931895681982 368.57228998411324,33.672221121093486 368.5339016968951,33.72309373483928 368.41979413956165,33.81003669906263 368.05380411254527,34.05403005039723 366.8778781557353,34.55108517265267 366.0951068191095,35.02097570176911 365.6387172554821,35.5846410089339 365.3100175455409,36.0073594901216 365.09766199881,36.28046938139409 364.4831647434902,37.48575587148463 364.9394729760516,37.7003886895387 365.3100175455409,37.875047263546335 365.72797815647493,38.07203122919989 366.16627154663627,38.27877492890567 366.79317179733096,37.36827307280059 367.24842272534016,36.80688503693006 368.1182183573131,36.044365148407785 370.78067380729266,34.25394193624912 371.19859375252025,34.80634288371504 371.64591489656146,35.41746489771312 372.035653609891,35.96982517958822 373.9198109344205,38.25949945414385 374.3637568373134,37.936452256963086 375.5882374709552,37.0847527985429 374.2937307454049,35.20624798654265 374.61226406561684,34.948672338653 374.62133248508746,34.94192185592294 375.2256633509092,34.45279651760661 375.9983089635121,33.93431064600975 376.51789280510746,33.81796648297284 377.77177463767845,33.25657844707342 378.067697907311,33.21363561723784 379.3283302225253,33.52989166615553 379.9948387273536,33.52989166615553 380.73580586990647,33.55136308105887 381.97838267712996,33.3717839744632 383.01990896285446,33.24409412060358 383.5756444861379,32.895061631521756 384.07375691288775,32.504224948222586 385.22259960771146,32.52565569756401 386.15453221321576,32.78998182818372 386.82100005233764,32.86346449250888 388.0386895377453,32.70531613528353 388.8226401756957,32.531348875770774 389.8426543809838,32.33367359562234 391.3439048062399,31.792618339008026 391.5935100046863,31.44582245562965 391.9041948719963,31.27860567884695 393.4562365799611,29.938919517757565 394.1193291777035,29.323283626732877 394.55648393224664,28.80817299648659 395.14499589560756,28.087497967743577 397.24264740271735,25.524429143010895 398.0424169428974,24.344029974765103 398.57672171681054,23.653813449358935 398.7902158991597,23.527302896679476 399.14148499397385,23.46402728758768 399.19796945488923,23.466426555538813 399.3030492581117,23.47081843585076 399.6430539932848,23.486637338138156 400.30049407841125,23.96897152819141 402.2931064477738,25.422765246614254 402.52465613822943,25.54931646482674 403.819203529255,26.25754783266183 406.04222695345493,27.58820623978469 406.4409934206643,28.00844412192631 407.58072703031104,29.2080780993431 407.6168787118835,29.375213545030853 409.17912747493716,31.791479703389786 409.52592335834447,32.47486441494206 409.86255285213804,33.085986428940146 410.5504921062211,33.69710844293822 411.8517899800056,35.6682493973108 412.2030590748198,36.20369280684219 413.1247846251196,36.37196688814818 414.5435652976171,36.63068117171386 415.15582594717563,37.762525663012255 416.3836818223125,40.10758642834029 416.38705706369194,40.11205963980497 416.8434466273194,40.672349705590285 418.32887815034593,43.354039964654135 418.58982903961504,43.784403570876385 419.3379126547819,45.020189229865686 419.64713356209387,45.53078598311426 420.1057190658917,46.29550181177807 420.9619730669871,48.007969148175775 421.55386027172756,49.230213176200834 421.88260064702837,49.91026331193556 422.23386974195813,50.735977478454686 423.17483010134225,53.050498409293134 423.33411709424365,53.54755353154857 423.56684608590825,54.166564663894945 423.67412182930116,54.515597153005665 423.8006323820095,54.929043886855304 424.0277088609426,55.673426936234 424.3044379869661,56.57713764404711 424.5812077785804,57.115915629396056 425.39114370837405,58.687232812035965 425.706301787091,59.383061184525054 426.56816763521147,61.530406004142726 427.64804154267887,64.07879456223515 427.6932616438376,64.1849723356295 427.84234158141896,64.53738006609079 428.19027610056,65.35862102114524 428.7121778789827,66.86666259469335 428.9007847396316,67.18291864361103 429.50849084671717,69.5257021376448 429.67794422911663,70.23734941239239 429.7988429347999,70.77055621619144 430.2438868077202,72.73718329359521 430.437048210842,73.59567390027847 430.83577401246055,75.36011182053608 431.34185688865364,78.0903160909565 431.52708850792305,78.6608132119463 431.5817836841139,78.90814113909845 431.8693705143326,80.20830037729365 432.04899028646133,81.0182363070873 432.29184500214876,82.1173856893165 432.47597865127517,82.95212760983107 432.5482820144202,83.27635410822089 432.6318904027971,83.65474713058323 432.7504305059466,84.19466375155041 432.8295250173258,84.55276466021847 432.9210225240799,84.96283615268864 432.9684792309999,85.17970557647506 433.0859620295972,85.71083843678944 433.1593633627697,86.04271006018493 433.2655411362507,86.63345862933598 433.3638704568298,87.17797045842471 433.40225874416353,87.39483988221113 433.4609391451338,87.71902571503902 433.5299079324901,88.10420988569335 433.6767512644258,88.92093696375008 433.7128622804075,89.41904939052881 433.739986207869,89.81444061638761 433.77837449520274,90.3453701488924 433.79647066878437,90.59160010595934 433.8009845457821,90.66048756216296 433.9207446157315,91.65004326408531 434.0280610247152,92.08943462430298 434.2471670542051,92.99200669649785 434.3274002013181,93.31846980059112 434.39063514487685,93.58051865991656 435.07857439895986,95.60363019814903 435.1542530034843,95.93460717924002 435.2547782641183,96.3695253280219 435.2694585308452,96.75243222741085 435.7981107920268,98.72019794043285 436.14267006978844,99.65550578725883 436.21383479719964,99.85655630875785 436.4374547036872,100.48349722504332 436.5809227942434,101.12397977232195 436.64643500903867,101.41766643622218 436.7187383721837,101.74412954031544 437.09151954754975,103.16067360708057 437.35129113560987,103.64073052586846 437.6540462190674,104.1987433203884 438.71025277140325,104.37950172816424 439.3630976485815,104.3501005293218 440.67797781895,104.49129134864151 440.90391566226486,104.53423417847709 441.31846036622863,104.61442665997039 441.2258648894471,105.57685843434456 441.1354653527205,105.98806856246186 441.00553889304183,106.48052847659575 440.70168583955683,107.9862927788496 440.5514672662417,108.25627142211415 440.38201388372664,108.56354038256944 440.4803432043057,109.05490232661812 440.85080644284454,109.27628562740225 441.2450590330562,109.44797561564963 441.44159567755753,109.64569156133109 441.95894291350726,110.77753605265838 442.20631150619243,111.41797793437507 442.2797535049557,112.08220916785129 442.20313959265144,112.79613371389314 442.1690211890017,113.11466703407619 442.1283556304315,113.49533732773281 441.8166134585693,113.94038120059533 441.7047831724723,114.27363545295167 441.5929528864909,114.65202847534292 441.52630203596186,115.05307221381767 441.6596444024952,115.65398717264017 441.9047357239439,116.40971591287047 442.0165660100409,116.9869228510284 442.2661712083717,117.70536127403906 442.49780222989335,118.37073114316242 442.96313821645015,119.25402774059548 442.991400779761,119.30709629451168 443.3359193918163,119.73412532491639 444.88458585828596,121.33703964656917 445.90350209354665,121.8950524410891 446.8738229862691,122.43728699888358 447.3934881590461,122.68014171459994 448.0260409224723,122.6066997158367 448.7297584133097,122.56147961473575 448.99408454384275,122.37848460122757 449.00311229795375,122.37173411849751 449.1646765620916,122.04982555696388 449.316033771025,121.59685190019115 449.33636655036787,121.14497621350364 449.27536821245474,120.66154405336518 449.04377785652395,120.07299142438454 448.94325259565886,119.81208120067734 448.87208786824766,119.44946641501157 448.87208786824766,118.62371158295942 450.0016957538715,118.61244722323165 450.35414414989475,118.70280609433861 450.71671826994077,118.9750213433355 451.25102304385393,119.61887913196469 451.73449586946765,120.12268473692129 452.00671111849346,120.59375456724678 452.2191073308152,120.96653574255511 452.57155572695393,121.3189434730164 453.0165995997587,121.64430860702446 453.31931401762546,121.8464977641706 453.7124279722189,122.18873910498935 454.1439708796213,122.55135389065512 454.6579022087163,122.70161312953218 454.8894925646471,122.73207163286902 455.39102089825167,122.72076660760824 456.36813293932386,122.95687084059455 456.6775978399496,122.94666378539007 456.981491559141,122.85748421546327 458.0285890264154,122.20569664292387 458.20031968016684,122.17971135099393 458.9989099191378,122.51406357346437 459.9003840211608,122.84955443155306 460.3216792077679,123.1466570023658 460.44367588347853,123.26751504240042 460.3973984778832,123.51036975811678 460.2618195055886,123.78258500708478 460.1703219989501,124.04129929062157 460.2618195055886,124.66140839308204 460.83796913928103,125.35841606675129 461.21750079729054,125.61595104907903 461.5970324553,125.934525034824 462.8542488636596,126.87430609308578 462.99096647157245,127.20756034547102 463.1276027483036,128.13266113709253 463.1129631471675,128.42073595390983 463.35130398585727,128.93356931286186 463.79862513001405,129.4791791120358 464.20755798683706,129.7502963909186 464.64015819879165,130.03833054220289 465.0084254971601,129.8790435493304 465.98663550814416,129.46787408674612 466.97391393883004,129.055362660734 467.01120425602073,129.0397470862562 467.55002290693164,128.8228776624698 469.3291410938295,128.15413255199587 469.9086253033106,127.9429156408543 470.4530558012466,127.74186511935528 469.95717998014237,129.18097857113787 469.6465357783076,129.8779455792452 469.09189822528276,131.50904113296943 468.81179385787976,132.12581565961236 468.26846132997116,133.72417543870552 467.74428228019644,135.21639810996624 467.5036641702702,135.86025589859543 467.261948090201,136.71309399266272 467.0959106145407,137.1231654851618 467.03942615374086,137.26207903318726 467.0846055891932,137.4394621996125 467.24389258221015,137.52079331672405 468.9676242783356,138.12061030546133 470.18421579360023,138.55097391168357 470.7016036951408,138.72042729416972 471.10370473813884,138.85259035949403 472.1011495584384,139.22081699221383 473.19574439810793,139.61734685371977 473.2364099566782,139.6997759409165 473.1822027671148,139.87711844177983 472.86704468828236,140.51873962470557 472.1011495584384,142.0233652913123 472.0333600722911,142.15780562790198 471.39064091936683,143.60590616814693 470.7016036951408,144.88125941562126 470.45870831386253,145.35005197465247 470.28819762691086,145.68098829021042 470.32768388415644,145.7713878268793 470.3785158323403,145.87419035889417 472.0198184414135,146.48189646597976 472.1621885618267,146.58469899802353 472.13616260439267,146.66261420822258 472.1237596090177,146.68408562312592 471.9938738150455,146.9077461952043 471.7103128750814,147.56632491603568 471.52955446745005,148.14690709554418 471.0381925233436,149.01222951611024 470.1662009512002,150.53377205508954 469.766295848257,151.2713639561763 469.24325543410055,151.8960682667583 469.1201607884781,152.00334401020896 468.7100892959212,152.35693104187933 467.6742561882879,153.06406443962922 466.97391393883004,153.46022831110673 466.23855864341783,153.87623697512632 465.6454921374684,154.07956476791958 465.22984946347725,154.1439383471255 464.99821844184004,154.1439383471255 464.9056229650585,154.10668869546777 464.62775520341677,153.92934619460445 464.59046488634164,153.783641498287 464.6853376343596,153.0991181511165 464.6740732747185,152.9239715903947 464.5114110404377,152.84365711224453 464.32609809010216,152.7522816021762 463.3411375962436,152.2676701408287 462.71196007431246,151.76841907843172 462.212668346238,151.34256934923607 459.63829449627343,149.01670272754603 458.44659030270907,147.6442401262347 457.8840229656006,147.1155878649953 457.4607758321368,146.68408562312592 456.95550626718216,146.1689749928796 456.2110825521837,145.65732093510778 455.45425584181044,145.03375526020176 455.4339230625831,145.01793635791435 454.8894925646471,144.59208662871873 454.5573769478512,144.43279963584624 454.2602743770096,144.7389299606544 454.20383058180056,144.79765102721544 454.0388910762832,144.92078633851543 453.764398556021,145.126391402603 453.7338587214736,145.5239785686033 453.70340021822346,145.94084120936546 453.69209519287597,146.08089339303805 453.6469970884897,146.68408562312592 453.62886024943276,146.9280789744894 453.6299582194602,147.06247864551716 453.63109685507845,147.405939953078 453.63561073207615,148.18984992537975 453.63670870221915,148.4756474709317 453.6005976861219,150.1158114442133 452.5783062095973,150.1327283165859 452.04627870692065,150.15871360851585 451.31202138165145,150.21861397625707 450.69414888495226,150.2683072888227 450.6771913469888,151.256683689536 449.30021486879536,151.33463956529698 448.7918547212502,151.36062485722692 447.2714914834511,151.54589714200046 447.2047999673312,152.0643423480643 447.19577221345133,153.22558803820513 447.11102518934064,153.30126664270074 446.71453599336775,152.8200710882946 446.28307441714696,152.16153303299626 445.692285182434,151.6475610383971 445.3602102312289,151.25444708383256 444.6349806598396,150.40949810811355 443.7707968750073,149.40530280511285 441.3423310490831,150.56390523395993 441.03494009197095,150.21747534060995 440.3888050320764,150.2671686531756 439.46590018056753,150.11918668559278 438.45438507705654,150.2571242602188 437.93012469610017,151.0096404213173 435.77192217234506,150.03301636698816 434.99171276586037,151.1005686102623 433.0859620295972,150.05200718284541 432.08514196803384,149.50131418886465 430.8674524825106,148.82923450260205 429.40572898020645,148.06220073708207 428.7895237714593,148.80442851188116 426.52319152736646,147.61353762952632 425.2120932539389,149.36414925985736 423.7645213660278,148.61537433013783 422.0933702371044,150.8268894011518 416.9653619718484,148.10498090466996 414.67800563417785,146.91901055490317 414.76576190958184,146.68408562312592 415.5444260247713,144.60107371715222 413.8044687707392,145.87699628243564 408.851525735139,143.2003892182075 411.25982144408357,139.98105960944184 407.8439145252258,138.12170827554655 404.80644129435007,141.98383836838923 404.63023742919165,142.20294439790797 403.29844038633496,141.5127685380637 402.0185732619208,140.79323214496785 401.4436029294374,140.84406409315173 401.41428306180546,140.9593102861034 401.00193429801215,142.54071252729094 400.6913307617682,143.67032041288587 400.42131145291285,144.35374579000006 400.2440096176114,144.99532630736388 400.1762201314641,145.6109621983597 400.0767928408576,146.21757033536005 399.94576841115156,146.68408562312592 399.41032500162015,148.58971436267436 399.19796945488923,149.35874074055516 399.1867050951326,149.399650292468 399.0432370045764,150.2603775048836 398.3869355549526,153.2877250117076 398.34854726773443,154.03214872664822 399.19796945488923,154.52566594530538 399.66676201389157,154.79800319095915 400.8031203821588,155.31758703264123 401.2154284804769,155.50513658870904 401.5283499535481,155.6485640137322 403.5717536055038,156.97361057377213 404.30491296062996,157.52824812694152 404.76915097727493,158.08963616281204 404.8550366368883,158.19471596612118 405.77115034004737,158.81824097549415 405.9146184306036,158.99895871770806 406.6759183523838,159.4688899124153 408.8583168834888,160.41664142014923 410.09971438950316,160.82101973444153 411.28466810030864,161.0672903570704 412.7983621865305,161.5756098390247 413.24568333068726,161.85461623628467 413.64444979789664,162.116665095639 413.98896840995184,162.343741574601 414.4283597701406,162.5041265375587 415.5026218305829,163.08357008144895 416.0719396504503,162.6916354280646 416.52714991286865,162.08279068536078 418.3322533917254,163.02712628618218 418.58189925564704,163.15815071583046 419.5511221783421,163.66537222772845 420.13735687046653,163.9726005226218 420.5665818410416,164.2007749716979 420.9664869439848,164.45042083567736 422.6405253274291,165.3687711445688 423.4075590930069,165.74269095549536 424.0548327886353,166.05784903432786 424.23892577217083,166.14706926981657 425.4510034104378,166.85761857447895 427.85254863662345,168.00300469679937 427.9067558261868,168.29782999634674 427.86267436076184,168.77788691510574 427.8367297343938,169.0524201009299 427.80395329420077,169.4116189796543 427.77569073100545,169.71099882176128 427.74974610463744,169.98886658337412 427.6932616438376,170.60783705018747 427.65597132664686,171.00550554731166 427.64576427144243,171.12180904478663 427.58366796350185,171.7882768839952 427.2165393008673,173.67361350982043 427.5034754819797,173.97860519901036 428.5924178090333,174.12317125968067 429.4576995640085,174.23841745263235 429.7446357452365,174.47106511314425 429.77171900722277,175.9406777338256 431.46722880574373,178.26316911416507 431.710124187022,178.38630442546506 432.0207277231504,178.5444121171285 432.9967011286044,179.03918996811856 433.0859620295972,179.08461339702913 433.4982294623245,179.29448834474286 433.83827486297287,179.46731696860846 434.99496601058297,179.45824854905112 435.41069001575573,179.62318805453955 436.1076570237186,180.1088974859723 436.5290742070982,180.57203753235868 436.7018214999266,180.76182369415883 437.8833593037618,182.04165015306893 438.41201156505895,182.79396298638673 439.2377257314914,184.49065208605896 439.5246619126038,185.21018847918373 439.7031430492299,185.40676578924698 440.9761783598191,186.25732661202002 441.3500575052126,186.34768548315586 442.6423682905926,186.96332137415166 443.0885507991311,187.17685622212053 444.5208731026217,187.84779727276486 444.6790214597893,187.95055913924674 445.47086121600125,188.46566976949302 445.99048572330304,188.725482023115 446.4491118928073,189.32985355438302 445.8571840223605,190.04825131186067 445.2121875980842,190.70227549013242 444.5254276450946,191.39814452818342 443.5957723109424,192.47464319430026 442.3893471852914,193.6448759729035 442.1803668798244,193.84706513004963 441.9713865743574,193.8922852311506 441.35351407765813,193.55114186041706 440.61018833280275,194.3452588879233 439.0050374054176,196.05435098297045 438.8152512436752,196.28813727912947 438.7328221565074,196.38866253987896 438.67178315311907,196.4338826410088 438.62436711178987,196.44291039500425 438.5645074096106,196.42371625136627 438.47866241547246,196.39207844679146 438.32726454094825,196.3288028376708 438.1883509929806,196.246333084941 438.06070180453844,196.149223731104 437.99518958985874,196.11986319782346 437.93195464629997,196.11079477826613 437.8584719819459,196.13002958746603 437.8178064233757,196.15487624374884 437.7602239924329,196.21473594592814 437.6879612948787,196.32319099061675 437.6653512444149,196.41806373872143 437.6653512444149,196.47454819955013 437.67551763402855,196.66770960270085 437.6619760030354,196.82244205301373 437.63712934669485,196.89592471730998 437.6213104444652,196.9162574965951 437.56706258931104,196.98400631715157 437.0801738567271,197.53978250596808 436.9220661650347,197.76795695501528 436.80572200205563,198.3214152070045 436.72101564353574,198.88959439116698 436.1719899374204,199.46005084659487 434.9463706680447,200.68457214588528 434.8729693348723,200.71055743778635 434.7701668028863,200.70714153087386 433.69480677241665,200.32195736021953 433.57167146108776,200.30276321658155 433.38188529922985,200.3242346314849 433.2644431661077,200.35924767741025 433.20568143407144,200.44281540025412 433.1356146766876,200.59079736783693 433.0859620295972,200.73414346176514 433.0577401319928,200.81559657553356 432.9808822263748,201.13640716701087 432.9729524424068,201.23014127946843 432.98767337460896,201.35665183214786 433.0441578354088,201.7226418591642 433.0859620295972,201.95390689068634 433.1288641939287,202.19143441822433 433.46659165774975,202.7607522380051 433.9523824201907,203.2894044992734 434.787165006325,203.91073356844706 435.2841387974566,204.28119680692808 436.3053323039537,205.01655210231138 435.90994107812384,205.4763575729091 435.10342105530043,206.41499999552374 435.02432654380567,206.50763613792495 434.61994822957115,206.97756733260331 434.0280610247152,207.55030105932545 434.2437918129412,207.81910040140983 433.0859620295972,209.037033880189 432.50196394323405,209.65132780775696 430.6561949058071,211.5094998404721 429.81913504855197,212.4143085183704 430.5511151025846,212.77127079139134 431.5835729687229,213.2739377607297 431.87388439121474,213.41061470302282 432.661210270429,213.77997997141864 433.0859620295972,214.096520679212 433.20230619269194,214.18326031562574 433.4237301590091,214.36511669348678 433.51746427152443,214.46003010715336 433.76031898721186,214.70630072978224 433.9286337341087,214.90056010301817 433.9806043179108,215.04854207060097 434.01106282127654,215.2258845714643 434.0223678465084,215.41453209761733 434.0178946351015,215.53201489630135 433.9975211902834,215.6031389582084 433.9523824201907,215.6619006903314 433.82473323197974,215.79634102692106 433.6778492344532,215.93639321059365 433.4892423739199,216.10019408046387 433.0859620295972,216.47330058020978 431.82756632002855,217.63755552170167 431.1735421418724,218.24640026443439 430.5736844875732,218.85532633826207 429.9728101943126,219.4822265889856 429.08605702437626,220.33848058996543 432.25569332057626,222.51181070151304 431.47060404712323,223.4821315942355 429.7039701866663,225.26913889948167 428.2015404602011,226.7093909869114 427.87849326299147,227.018896553099 422.629260967788,232.10774388540253 421.94246034932326,232.75953145794193 419.27321375110955,235.35305878606925 417.87139061657547,236.5617611830723 416.15888261461583,238.16012096216545 415.100480121994,239.26264558574522 414.4724005700903,239.93700254330207 413.3100569098643,241.04058447143404 412.6797407521993,241.638164854439 411.89465147874625,242.44919875431785 411.32533365887883,243.0354741120331 411.0723125535777,243.33143804719873 410.45895393387616,243.8589516728199 410.81815281265835,244.1752483872706 411.35924873480565,244.6632350899687 411.3502209806947,245.1026671157194 410.87463727334256,245.76458041236833 410.41828837530596,246.40054908264923 412.65717136721076,247.74141454494767 413.5480724240586,248.34798201638614 415.5387735121554,249.7034870797918 418.07016386672245,251.47243887701825 418.82251736568884,252.04517260374038 420.18705018303217,252.92513462538477 421.69216383629526,253.9358770833059 417.0664158849318,260.98842357278596 412.43200616942795,257.60199918392334 405.90892525239684,253.28953869560175 404.8765080517338,254.34842917487995 404.06429485070373,255.13006187591637 402.63197254721314,256.5296890703378 399.19796945488923,260.00521169800334 396.19615991884297,263.0433762433739 398.29657668381674,264.4969666339872 396.64010582162024,265.9810968591189 392.05868332899547,270.2539897589555 388.74635158777124,273.3421729413582 391.4867629133962,275.4048520680468 390.271350699225,276.5163637801179 393.79217475905756,279.21293763360273 391.2668435726679,281.7290784037782 391.9757662550845,282.20665472346224 392.0180177704252,282.23593392564777 392.99691909599085,282.91317813784104 394.29406908286387,284.71340174961387 396.11543878510247,287.4479165692513 395.2324268465162,287.85811005840725 397.2110095981426,290.7836310065869 397.59956901026305,291.5494854708978 397.92944802118217,292.47239032234893 398.2355783460192,294.0628609830938 398.0548199381567,295.525682455512 397.78825720186245,296.5682660458176 397.779229447867,296.60218112162886 397.0065838352641,297.12518087025234 396.2802562939629,297.6154448442158 395.837408361213,298.0164479171575 395.07610843943286,298.92463183640643 395.0105555590468,299.1765549716801 395.2907005920406,299.51090719412167 395.80808849346556,300.1254451150323 396.48020884531894,300.61790502916614 396.93765571349854,301.1736812179826 397.1274012097657,301.448133072683 397.0426948513614,302.71445856616185 396.916184298653,303.559407541852 397.3171873716236,304.572630598877 397.5284449483271,304.7827495399334 397.7250222583037,304.88103819497945 398.20507917706266,305.1205176693163 398.77887020833697,305.61415688463035 399.19796945488923,306.07241706401953 399.45440646716065,306.3528874213931 399.78648141825016,307.08035359842813 399.8983117043471,307.3243469497627 400.2665790026,307.5897710504676 400.8347988523244,307.6304366090378 402.12479170087704,307.72421138705727 404.4698524661473,307.8925667994871 405.42317515543107,307.7129063617965 406.0761013636754,307.7027806377159 407.21701427453115,307.6395050285952 407.6575442703382,307.631575244685 407.9083287701092,307.5242995012054 408.31160911420073,307.04985442950044 408.5691440966151,306.79569468852327 408.6685307216308,306.6985446691244 409.3598452170933,306.02870158856524 409.9675919897697,305.32722070346017 411.61564508148626,303.4272038109947 412.1544637323971,302.88842582567463 412.5656738604566,302.47725636309036 413.4219278614365,302.4331748976076 414.4114428978836,303.1821124895749 416.1758808180545,304.1964741822181 416.61303557259765,304.39414946236656 417.68270242486057,304.8798995593323 418.46217985128845,305.39045564701894 418.9558190666314,305.7124048741145 419.62676011727575,306.0444798252907 419.74310428025484,306.0829494436905 419.8933635191608,306.1122693114091 420.04358209247596,306.12243570105164 420.19949384399786,306.1077554344114 420.40847414934933,306.0885612907734 421.00601386682126,306.01060541501244 421.5131947131573,305.9450932001883 422.5162920460728,305.8829562267148 425.3233542222268,305.6288371512706 427.34309051905086,305.42550935850625 428.38229886794807,305.3531653298282 430.10607122966434,305.12275427504864 433.0859620295972,304.8542395918688 433.41580037515666,304.8245130685888 434.15453091183275,304.72964032045525 437.0779779165566,304.5319650403068 437.41684401599593,304.5342423116011 437.8799433967915,304.5850742597849 438.077618676911,304.6359062079977 438.1521993114081,304.68673815618155 438.17139345501715,304.7443205870955 437.77266765339857,305.19050309560515 436.7187383721837,306.3686656581186 435.67725275205004,307.4892457897181 435.1327815884076,308.15119975192897 433.0859620295972,310.2288844697243 432.80581699671905,310.5132180551626 431.84903773498974,311.51855199381043 431.2379157209338,312.16131181238336 428.93469981544285,314.71868745890924 428.6522775113282,314.9276677643474 428.2365535060398,315.2348960592407 427.72489944841243,315.7726167400375 427.38928659358015,316.1239265004136 426.8799504726645,316.6570519731177 426.7116357257677,317.06940073688213 426.53990507201615,317.4918345591653 425.0917638661804,317.77990937601146 424.4117543959498,318.003569948061 423.5702213271722,318.18314905465667 423.2381463760827,318.4430019738406 423.292353565646,320.22777267335437 424.09431904588087,320.1859684791659 424.87603307807,320.45932236378104 425.6238320343323,321.12692883860785 426.6720681373405,322.06333465551904 428.3597294829595,323.6154170289591 429.2001645817097,324.30445425315617 429.67005511085506,324.72241486403243 431.5971552653068,326.43378423034494 431.9710344107003,326.8652458066235 431.5813363629616,327.13184920853746 431.1610984809067,327.42102199544 428.21288615102384,329.5096457484966 427.55430743027915,329.9242311179934 426.73875965334474,330.58728305026057 427.43796326718444,331.240209258476 426.9872262161729,331.772236761066 426.3106326527971,332.56976969548475 425.76278624800636,333.54004992267414 425.67807988948647,333.9207202163308 426.1400406346638,334.06870218391356 427.797162145851,334.6007703520944 428.6985955825144,334.88315199070496 429.17076338289615,334.57929893716215 429.85642536574267,334.40756828338175 430.6392780334345,334.21103163888046 431.05040683042796,334.55217500961396 431.93374409350963,335.0808272708534 432.41046643647996,335.3666248164053 433.0859620295972,335.65795287788745 433.3401217706322,335.76766855488006 434.13651606943273,336.1618804795298 435.81165242301995,336.9921085230467 436.79669424794463,337.55239858886085 438.98246802042905,338.7949753961133 439.44784467257665,338.91920867752737 440.3548899561495,339.585676516707 440.3628197401176,339.5913696949138 441.05185696434353,339.9844429839164 443.1292163577013,341.18407696136205 443.50313616857005,341.4958597988151 443.1721185219172,341.97136217504334 443.03092770259747,342.1758286034549 442.1362854142839,343.46358484630406 441.31057124785144,344.4734326619496 440.3368751137495,345.5431808453652 439.5834236448713,346.3734495544151 439.0479802353399,347.25227294041235 439.0423277226083,347.26016205876067 437.781695407394,348.8992280619859 436.90177405128264,349.80175946859 436.7526534481105,350.01187840967526 436.06581216405493,350.97992203113233 435.17007190571394,352.1976928476638 434.22004312662796,353.4063139135719 433.9952439190469,353.80731698648475 433.0859620295972,354.8501852356948 432.9718544722638,354.9810063375624 432.1495155472108,356.01570080951967 431.3892729299828,356.52178368574164 430.0360451378714,357.87273420658767 429.50849084671717,358.35848430355344 429.149291967935,358.61150540888343 428.57887617804016,358.78095879139846 427.61530576807667,359.0983534759344 427.3600073914235,359.18310049998735 426.8245639818921,359.28704166764936 425.40126943239693,359.7603074381453 424.9528503182127,359.9749402561993 423.74077267983023,360.46406559454454 423.55440242494257,360.5386055633641 422.7908252319259,360.8379447399092 422.0407490043115,361.0943817521806 421.10771842877983,361.54284153192674 420.1825363060345,362.1866993205848 419.07781574234207,362.71986545882197 418.3695437089161,363.14120131101987 417.7516712122169,363.6709922079064 416.828766360708,364.37247309304036 416.03127409188005,365.1112036297742 415.41226295944705,365.76750507934025 414.2081151050325,366.96038857405586 413.76079396087573,367.2292285816733 413.31457078686196,367.61669002362186 412.5295221788841,368.5576503830638 411.2519323257064,369.64769068020263 410.20479419284123,370.62931659821476 409.5959087846622,371.2472297605048 409.0910052095626,371.9159342054168 407.7309862691014,374.0215154963791 407.21363903315165,374.9522688006454 406.82845486252626,375.5306550400124 406.8001922993309,375.5724592342009 406.2184714842042,376.5879595624912 406.1100164394867,376.7777457242914 405.04254552739417,378.22365032436596 404.24952646997315,379.11934991714503 403.7186782685055,379.9710900411271 403.2837194542484,380.6691956848816 403.2509836795306,380.7019721250746 402.2490249822333,381.7027515211628 401.6266386085364,382.3466499753539 401.2493435562881,382.73638868856784 400.156538001112,383.899830318908 399.6622481368939,384.4273439445003 399.19796945488923,384.9211051565001 399.14603953656234,384.97632898502485 399.1041946767831,385.0283402344178 397.76792442263513,386.6639496651686 396.4575581292643,387.9042492011556 395.0670400199622,389.33888944150243 394.722521407907,389.73200339606694 394.34294908430667,390.1657422436398 392.8948078784709,392.0600659579274 392.1594525830587,393.173854941235 391.75844951020366,393.7826996839677 391.17221481796366,394.60959315166696 390.06859222429864,396.6078173680547 389.3094882426889,398.0887756795877 388.53005148173617,399.4431421073462 388.17650511568553,400.34115963698144 387.9618316321273,401.072001055367 387.8364597150372,401.4707675225764 387.7551285980124,401.7271638692859 387.58229997411786,402.45011616932317 387.5134125178276,403.0013784811131 387.61731301995655,404.0349343173943 387.8929441759526,405.2752338534102 388.23746278800786,406.5844615111627 388.58202206565386,408.13422594777546 388.9626923593972,409.30454005750255 389.0711474039991,409.6207961063913 389.3760984276271,410.5109651832113 389.85847328321336,411.4089420472846 390.1352024091213,411.92291404188376 390.8954450264649,413.05256259304065 391.89626508814393,414.43063704143486 392.46106903089805,415.4789138099183 392.68586823859465,415.78955801175306 392.99870838059985,416.2221988892407 393.62003744974464,417.56530095727146 393.69774933219185,417.7878228937027 394.2966310130049,419.503665471451 394.46950030249025,420.44462583092184 394.9122669040585,421.8645451390664 395.82838060721764,424.6840509760705 396.5852073175909,427.51705777853476 396.9116704216553,428.34167397496867 397.23813352571966,429.62825091657993 397.55329160455216,431.02218493282345 397.82892276043265,432.64091815676363 397.89781021660735,433.5705328253828 397.79386904900315,434.9837016507974 397.64706638254273,435.4840913488415 397.2686326946762,436.76733371466406 396.3152693398016,438.43462161552276 395.48158472381033,439.90309560058586 394.84565671912026,441.2134212284236 394.17012046041214,442.3645005289508 392.8586968624892,444.4689025187329 390.74518578755897,447.8283656422661 390.5870780958666,448.2643817611043 390.26850411017944,448.89925246129997 389.35466767825676,449.931669661963 387.5665217373635,451.4397112355111 387.28466875105795,451.6757748029355 386.0969091166821,452.67094235194077 385.69814264947274,452.93640711820757 383.71341939848736,454.25803777130614 382.0743940608818,455.47914316368406 380.53813058967137,456.56243297809283 380.3145106831838,456.86628603163564 380.0546984295329,457.21869376209696 379.45825668220397,457.65588918214416 378.43934044694333,458.3844533292355 376.12030563910713,459.9975340405308 375.3250499760404,460.67868214637963 374.8641465352997,461.0729347365913 374.72974686432974,461.1881402639811 374.28466232581866,461.55750553234805 371.9622522767186,463.48684229256105 371.9102816928009,463.5297851223966 370.6789692453341,464.6017699115157 368.88748872853654,465.8974152727132 367.37265600669645,466.9705386974794 365.3100175455409,468.76624843225454 364.7361451833161,469.26590615024185 363.62463347115835,470.0995501006712 361.4784272872167,471.9249456931933 360.883124175506,472.40166803616364 360.6074930196255,472.6253286082131 359.41241358468164,473.59223359405195 358.881484052148,473.9548483796888 357.78351397109896,474.70374530609416 356.39295519620595,475.6955782793108 354.6048092554283,476.5924978388319 352.9770482774638,477.4023931030636 351.7062495725202,477.9581286263182 349.7588573044319,478.75224565382445 348.44849101094553,479.30802184261205 347.29627307485794,479.78360554993526 345.3895463652243,480.6172495003646 340.61585711166657,482.94758933349044 339.489665133013,483.45139493847597 338.42105558530227,483.96422829742795 338.16352060288784,484.08736360875685 337.9025290481435,484.23083169934193 337.0937724194433,484.6770142078227 336.8678752417193,484.8012881547698 335.9144712213694,485.2384022436932 335.40501310368126,485.56372671216826 334.9204016423338,485.8732322783559 333.8484168532436,486.4685760556285 331.62425479354096,487.50099325629145 331.4220656363081,487.60188450706937 329.8756357755996,488.3730661595298 327.2538458841903,489.2462370328822 322.5818205272315,490.93609431872943 321.3381050842742,491.1620321620732 320.3960467547471,491.33262418023537 316.26397868408617,491.7302113462357 313.95958347738616,492.0476466963336 310.02742729260603,492.6033822195881 306.09421380350494,493.0405776396354 304.2269733511169,493.19872599686073 300.0949052805716,493.6753670087072 297.97240711723674,493.9295674152463 297.5340730616001,493.98174132688695 296.5976672446889,494.0933682851165 294.4310469503383,494.3531398731766 291.4116698930443,494.59148071189526 288.0736781843566,494.71014281175945 285.2937399358953,494.6705752232744 282.2743222130104,494.7508083703008 281.3604857810878,494.7508083703008 279.016604316911,494.79033529322385 278.1027678849884,494.67167319335965 277.78980574632635,494.65247904972165 276.60261542987524,494.5813549878146 274.18752857269646,494.43560962593523 273.7097082595831,494.382541072019 270.97043556969203,494.0775493828291 269.2794396481688,494.02667676908334 265.76638270994096,493.9193603600418 265.2309799660004,493.9126098773407 263.6461211522518,493.8923584291794 262.6667725055339,493.8798334371476 259.88679359148176,493.8798334371476 253.34980505337137,494.27180875606507 251.7446541261018,494.46614946042484 250.7280151621932,494.5892441061629 248.9793961441363,494.6694772531892 248.5320750000951,494.71689329448947 245.96115772246046,494.986871937754 244.4124099248091,495.1449796294175 242.1475823065363,495.34379354518416 241.46309962489883,495.3935275233117 238.29338199751714,495.6217019723878 233.2192555975603,495.9650819488248 230.00895374279006,496.1819513726112 229.75816924313457,496.2042360987241 226.86977594995577,496.45981913425294 225.08386661470814,496.6982006385046 221.8656756416763,496.8168220728069 221.66682106034767,495.46692885651305 221.62729413728013,493.40429039535746 221.62843277301394,493.36813871381383 221.6555160350002,492.76039194116635 221.6905697465453,491.94033028729206 221.69736089477948,491.7742928117184 221.7063886487749,491.57547889592286 221.54710165587352,490.1883360279713 221.40591083666936,488.91749665749467 221.30876081718375,488.04546441978937 221.06818337273276,486.80854012515294 220.93935488319713,486.15337731123407 220.82480000482698,485.56372671216826 220.82419002142706,485.5603921363507 220.66600099866866,484.29069140152126 220.46722774840612,483.37799360527464 220.3869946012931,481.5514187115435 220.32485762787735,479.76327277067907 220.2751643153117,478.3049245096966 220.3858966312657,477.38881080650856 220.36893909341785,476.8680883291794 220.31017736126597,476.36655999548816 220.2582474429391,475.9203774870074 220.10009908577155,475.1793290134174 220.10009908577155,474.6111498292548 219.94874187683817,473.4375011437391 219.01225472874535,471.3398496366582 218.7355256028374,470.71852056745564 218.4102011342757,469.9899564203643 218.36278509306212,469.74710170464795 218.27352419206926,469.28847553523036 218.20687334154022,468.94281828749916 218.04421110725934,468.1035218244539 218.0216417222708,467.98831629703517 217.8307169249102,467.00441310775767 217.7674413157606,466.6745747622849 217.62063864941575,465.9211232933489 217.58786220922272,465.41166517574743 217.62063864941575,463.7895973760186 217.2783566430062,459.82242814539984 216.97787883090066,458.5561839830448 216.88638132414658,458.1698611767433 216.78471742766325,457.89874389783165 216.48537825117597,457.10576550597256 215.86071460612698,455.4452687534058 215.67658095700057,454.9561434150606 214.6269215594696,451.6757748029355 214.50293227154262,451.2883133609869 214.4351427853953,451.07599847976013 214.37865832447991,449.26971569978105 214.34364527864122,448.13108006016176 214.34364527864122,446.4818476673228 214.4374200566318,445.55223299870363 214.78649321127554,444.69370172642954 215.48565615952438,443.48166475363786 216.12390210115734,442.27751689919444 216.5057110304033,441.76805878159297 216.9936977331303,441.03042621491545 217.61950001368194,440.08271537274345 218.0656825222205,439.0016621640381 218.19333171054708,438.58939473139753 218.350341432212,437.83817986816496 218.48587973880018,437.19318344388864 218.7660247716784,436.6487122803618 219.11623656194038,436.35840085781217 219.63354313241487,435.9280372516188 220.6196829274825,435.45021693856324 221.03312966130326,435.2604307767631 221.797886155529,435.0051730657007 223.30360979219202,433.9986598258728 224.14066964956277,433.22263897191925 224.7902206164276,432.6205853774785 225.5222006704603,432.2071793091908 226.75001588000637,431.3305925289259 227.54978542007078,430.1908182536595 227.7181408325584,429.7581773761719 228.00499568260474,429.21708145402454 228.41730378080726,428.61275058828954 229.24533588418257,427.97796121921766 229.7547940017551,427.5012388762473 229.75816924313457,427.4970503237161 230.1998378746754,426.960183619633 230.42235981102,425.78421699729 230.83694518057456,424.83313091373856 231.0063578974988,423.91473993928514 231.0255927066987,423.79388189925055 231.19728269485938,422.7072168434912 231.35656968776075,421.46691730750416 231.57909162422092,420.86258644176917 231.76997575610628,420.289893380609 231.57909162422092,419.0507324802402 231.6434245378071,418.0962304898051 231.88314800554443,417.7878228937027 232.10884185542997,417.4975114711531 232.06142581421636,416.98577608225736 232.02523346705306,416.60173054725016 232.72561638221737,415.93416473798527 234.1579386855924,414.4713026000051 235.14973099327597,413.27394589382476 236.23188217209542,412.3838174825667 237.2869094232222,411.55354877351687 237.88790571325524,411.01586875825313 237.11408079944326,410.775291313831 235.61738491677565,410.60018541870005 234.49119293800652,410.44203706147465 233.48472036371157,410.47363420045866 232.91198663698944,410.50531267056647 232.24438016213372,410.3053601191527 230.68444933590735,409.8388448313868 230.56920314295567,409.8252625348317 230.18174170109376,409.77784649353146 229.8869570670794,409.75979098554063 229.75816924313457,409.76698878942295 229.56610581004017,409.77784649353146 229.27241914605324,409.9743831380617 229.040828790238,410.3912051132619 228.95164922031123,410.5787140037678 228.54157772775437,411.04974316853134 228.3630965912439,411.12993565002466 228.2388633098876,411.08589485010384 228.19368387431967,410.87240066766805 228.26480793625564,410.4104399224618 228.4343019842459,409.89419065656836 228.71212908029682,409.3192203241428 229.3277649713504,408.5002159747918 229.75816924313457,407.6443686294023 230.33427821123618,406.4986165170535 230.87533346779273,405.03579504460635 232.30879440690157,401.9994197838158 232.72220047524706,401.07769423357377 233.20006145383564,400.0282381638813 231.91344384666246,399.5899854393108 231.799336289329,399.55159715203484 231.7462270697931,399.52898710145547 231.73610134577024,399.5244732244577 229.89033230834332,398.72470368430663 229.75816924313457,398.6781416197778 227.6311165372112,397.92944802118217 223.98138265666137,396.78178462756745 223.85145619709832,397.0495266650997 223.3069850335715,398.1666908897867 223.08226715694093,398.6535389568377 221.66116854761617,398.0220841635545 219.94195072860398,397.3533797186425 217.23655244881775,396.1458159572866 216.76328667829296,395.96395957942553 215.99511427709692,395.66803630979297 215.04622413386036,395.3912665182653 214.2261624799283,396.88007328258465 213.55631939942694,398.28417368847073 212.94072417396418,399.8351174262925 212.46286319526,400.78848078110934 211.70266124362283,402.2140526018988 211.30844931900197,403.12561176249824 210.92546108854697,403.82371740625274 210.46350034336965,404.8200235909051 210.0986082863807,405.60511286441596 209.3993640069502,407.131169280393 209.0808713523291,407.735500146128 208.57702508178167,408.7024457974999 207.95687531384596,410.05343698387895 207.4892620559371,411.0746304903761 206.69742229984067,412.57697888571744 205.9416935594948,414.1730613935452 205.8230721252792,414.40579038515205 205.3463904477841,415.3490280158883 204.81208567387097,416.40405526710174 204.5737448351812,416.8739864617801 204.09795780010617,417.7878228937027 203.7344483721648,418.4858878718953 203.32100163834406,419.17159052027483 203.15951870527226,419.5997175207647 203.07700828692276,419.81882355028347 202.09656167017746,420.22889504278254 201.39617875512874,420.52144307103566 200.3027225510774,420.83773978548635 199.99886949747682,421.0116663794372 199.52446509144937,421.2827836583489 198.84669222698002,421.79451904721566 198.27399916573313,422.44740458986917 197.26411068446788,423.5001952353503 196.37398227326761,424.4524606200819 195.870176668311,424.8910386691189 195.6928748330096,425.04548646052723 195.03429611214932,425.6712887411656 194.71462415631913,425.9909606969958 194.07979412165648,426.6246520959824 192.74348320191766,427.7384410793189 191.33145301217914,428.6398745158666 190.34421524708407,429.3074403251315 188.46680840519792,430.29362078570324 188.2216764181584,430.415617461385 187.12935884984088,430.9611865949681 185.7930479301021,431.5011438814972 185.03849849096525,431.84680112925736 183.08764965031585,432.74144341751315 180.5268174313444,433.8687740318427 179.19054717708084,434.4731048975488 178.26764232557196,434.93396767266984 177.34363950415124,435.3960097489999 176.81047336585632,435.66594772670254 175.33862413941375,436.41378734858455 173.81024978658053,437.2722372897348 172.87494193981235,437.73875257750063 172.53835311160955,437.90710798993047 171.3285527445791,438.70232298752194 169.91993846169527,439.84209726275947 169.32349671436634,440.3244314528127 168.52710241556582,440.92880298408073 167.0823364511095,442.14311722816666 166.82370349866767,442.3599866519531 166.3515356982859,442.7564758478682 166.01490620449226,443.0174267371373 165.87143811393605,443.1292163576146 165.53932249714018,443.3867920055043 164.6322772135673,444.0916481319888 162.21377444953382,445.71375659727954 161.98222475907824,445.89394568724623 161.35414520717453,446.38246104219155 160.62216515314182,446.8275049150541 160.2652435457117,446.99809693318736 158.8453242374804,447.6792450390362 158.23534085915836,447.93682068692584 157.01647207254166,448.4519313171721 156.07103850163506,448.89469791874035 155.45763921634273,449.2245362642131 155.70390983900046,449.60296995213736 156.15802213139145,450.3044101717094 156.9532371289829,451.1957178841476 157.10679027808672,451.6757748029355 157.1328569011116,451.7572279167328 157.1769383666521,451.89492149798724 157.33618469396268,452.5308901682682 157.49433305113024,453.23127308331686 157.6535793784408,453.83556328346106 158.0037911687028,454.2806478218855 158.57762286556792,454.6940538901732 159.3728785287502,455.36166036500003 160.00998583464934,455.965991230735 160.53973606597398,456.51160102988007 161.18700976148676,457.0470444394115 161.4445447439012,457.8320930473604 161.47614188276958,458.65898651505967 160.87181101706346,460.18508359659864 160.55327769696711,461.011936398736 159.8845325863776,462.3798851230496 159.6202471213198,462.7379453661557 159.10965036812902,463.2496400894895 158.19695257182462,463.8709284931302 156.76686687409526,464.5102724047616 156.7555618487478,464.5147862817593 155.58642704028753,464.9316082569596 154.7889347714596,465.14286583366305 153.07081492235926,465.59921473181527 151.9886637436554,466.04425860464886 151.6136052970528,466.2069208389008 150.52470363559,466.6802272749298 150.06949337305605,467.2168093201083 149.44255245677056,468.0165381946975 149.02800775292238,468.8219602474645 148.963593508039,469.2986419248729 149.12288050105596,469.6488130496308 149.6040760553176,469.84087648269633 150.23553084871637,470.0938975880263 149.88645769395706,470.66659064918656 148.39090044702326,472.14409238824504 148.14239321860424,472.39036301087395 148.076881003809,472.45473659007985 148.0249104200069,472.50670717391085 147.97298050168004,472.55753912209474 146.85573494584025,473.6611617157886 146.31467968916817,473.6927995203634 145.60303241447835,473.6837717663391 144.05326797786563,473.6634389870829 143.8318440115485,473.6611617157886 142.87734202105563,473.40700197481146 141.53423995296706,472.8907933744799 141.43367402674232,472.5507479738316 141.10159907553725,471.8752930461896 141.03608686062643,471.7148267521369 140.93438229866786,471.46636018933765 140.86325823684749,471.29125429417775 140.83950955064986,471.23476983334905 140.5672943016241,470.70046505946476 141.53989246569859,468.7011022074299 142.26959524837923,466.9694407273942 141.31509325800198,466.61922893710334 140.82369064842027,466.4260675339526 139.6918461570352,465.98326026682247 137.9093120632826,465.37892940111635 137.05086212201678,465.0287582763585 136.7639259409044,464.9654826672378 136.35047920708365,465.85679037970493 135.52248776929915,467.47776020934856 134.9813918471518,468.527134947946 134.76342445316462,468.8513207807451 134.74423030955552,468.8795833439404 134.31496467350516,468.7756421762784 133.09951179374318,468.4819148468162 132.77081208391758,468.40286100097006 132.67817594154525,468.39045800562405 132.03883202988487,468.30684961721823 130.98831865575582,468.1476032899077 128.21850613120176,467.67088094693736 128.09427284984545,467.6591286005243 126.53316272241004,467.51163461962676 125.76840622806873,467.4167618715221 125.0951879061879,467.4167618715221 124.35865330968225,467.4178598416073 123.08220209212274,467.4178598416073 122.94328854403949,467.63928380795335 122.44513545169885,468.43563744119194 121.9198990974875,469.46923394303514 121.14046233653482,470.7253117157476 120.68293413717358,471.50137323526303 120.46834198468143,471.86394735536686 120.13736500361934,472.4253760567993 119.67650222846943,473.2059107877505 119.48561809658408,473.5629137263045 119.16704411089688,474.1604534437475 118.47235437405493,475.36008742119316 118.11762870679523,475.97116876962934 117.3834120470013,477.2374942631082 117.1439325726933,477.6486637256925 116.99818721078505,477.9005461954043 116.626585336628,478.54777922538403 116.21879111553878,479.24702350478566 115.92506378596103,479.62317992144455 115.40661857998388,480.2851338836265 114.9603954059701,480.730177756489 114.02850346605662,481.34357704175244 113.06493305597753,482.92388131285475 111.6958456960457,484.9322719188851 111.45978212859241,485.27906780226346 111.44737913321752,485.2971639758162 111.33331224147487,485.45754893877387 111.25840628259802,485.56372671216826 109.795869469171,487.6365315629375 109.49429368692248,488.19796026439883 109.20625953566707,488.7017658693554 108.7499106373993,489.46534306240096 108.5228341584662,489.8449153859724 107.5999293070729,491.18008767006404 107.31754766843345,491.6816566693172 106.0399578152557,491.97534333321744 105.49886189310837,492.05895172162326 103.7796440739806,492.3255144579464 102.38233481632868,492.53900864038224 99.80230845363258,492.8971095490503 97.3600976689923,493.2291845002265 96.79305712047693,493.3060017403403 96.35366576028815,493.3647634724344 94.20628027502188,493.6496257101488 93.53533922449311,493.7386426178279 92.02502037965074,493.92277626698325 91.67147401348451,494.0018301128005 90.46504888783353,494.2729473917122 89.03276724981818,494.8772782574183 88.57861429183639,495.04673163993334 88.26459484862215,495.16421443861736 86.2991064069522,495.8984310983535 85.51743304035388,496.1898811565503 84.14834568030646,496.7298384430505 83.71232956161273,496.88794613474283 81.50736164540363,497.6843404335145 79.75756332636884,498.35190624280824 77.92086270841257,498.9969433326465 75.8424053450274,499.84754482098145 75.34083634583205,500.00000000000006 74.28243385321021,498.0977871673641 73.35277851905796,496.64509141902647 73.3386269046649,496.6216273917334 72.46830262047365,495.1732421926128 71.47651031279005,493.5105088343137 71.82102892484528,492.60793676214774 72.1745752910115,491.68389327504957 72.3304870425334,491.2783763251101 72.84441837162842,490.10700491085976 73.06702163903906,489.50267404515364 72.37570714357656,488.9434819494246 72.3304870425334,488.90737093341403 71.83684782719047,488.50864513176657 70.51293990282655,487.6580029778697 69.16987850032879,486.81423330335974 67.93746808260339,485.9703822977259 67.34318160985407,485.56372671216826 66.84628914990411,485.2237219770818 65.55625563576065,484.4104108059087 65.03097861595849,484.0782951891706 64.23576361836703,483.633251316337 63.661931921501896,483.32378641571125 63.31066282668773,483.13400025391115 62.327857607408745,484.1189607477408 61.78456574509099,484.6826667204675 61.39482703187703,484.9876584096286 60.318328365789114,484.2830869420775 60.162457279858025,484.18109772121437 58.85664552907577,483.2537196583275 58.21726095182458,482.86174433938123 57.71117807563151,482.5521981076317 58.124665475043074,482.23480342309574 56.31053424219093,480.99450388710875 54.9098090776843,480.16765108497134 53.82765789898044,479.3091604782592 54.18575880761961,479.0527641315497 54.718924945798946,478.6731918079783 55.259980202355464,478.1965101305699 55.546916383583444,477.78306339672025 55.412476047022665,477.3504225192326 54.87142079035056,476.9042400107519 53.43909848697554,476.0773872085856 52.92964036928741,476.39592052876867 51.879086329451944,476.0773872085856 50.90201495408612,475.488875245138 50.715604033607654,475.37586565791867 50.26718491942346,475.10592768021604 49.014401056995496,473.9785564003245 47.995566152800876,474.10624625421303 46.626478792869044,474.5512901270467 41.57829701916463,476.0457087384778 38.55432475369122,476.8082286269712 37.07572504460527,477.3334649812981 36.446547522558554,477.5175986304534 35.78345492470057,476.1937313716225 35.37224479664106,475.09120674801386 34.22685867426285,475.3137286844451 31.93486646293772,475.98137582483383 30.33089483676165,476.2648960990915 28.93130830787326,476.13838554644093 27.721467275136412,475.8209908618761 26.511707573696775,475.4075441280265 26.430376456556345,475.37102645645444 25.87460026768206,475.1217465825034 25.112121044808383,474.73993765319966 23.99833206152973,473.94468199004626 22.916180882710286,473.1822027671148 22.024913835891784,472.70438245405927 21.260198007141295,472.196062972105 20.401666734809424,471.1139117933144 19.668588710749304,470.0012614456251 19.16022856331976,469.07949522982113 18.936608656716608,468.4107907849091 18.55479972735507,466.980705087122 18.395512734569266,465.3597352574495 18.28823699117639,464.32048624296146Z"/></svg>