<svg xmlns="http://www.w3.org/2000/svg" width="500" height="500" viewBox="0 0 500 500"><path d="M86.97882691182838,473.3803618502616 86.8443573613958,473.23120648557534 86.92074000422402,472.4506841743474 86.97882691182838,471.8520936679249 87.02325355100892,471.39433109519405 86.97882691182838,471.37156398096005 86.27120038803855,471.0080695677686 84.56424112524307,470.135207122906 83.44639632675698,469.7705640985379 82.69549177493417,469.57456180688337 82.4311060969158,469.50617842049036 80.45976115610196,468.93757486995077 80.07575582908241,468.75871970219765 78.51692638537654,468.03054124280715 77.5893818444923,467.79240953435465 76.7153707884822,467.6089599219239 75.33547855601628,467.64883313822844 74.84096042592235,467.6624934067689 74.5264460747291,467.79011231203043 73.90426801760107,468.3143302452495 73.31966595427849,468.85327501452394 73.16813132360623,468.92165840091695 72.89127501005501,468.92961663543383 72.77272192859795,468.91821256738683 72.39782344738862,468.88063657343565 71.67198323221155,468.79059366215444 71.2948285504505,468.7142520412154 70.97461216526288,468.612846083718 70.6680970703591,468.4897806013033 70.62137320888344,468.45560941902227 70.54273436562012,468.2880762756545 70.3615819755719,467.8504964420465 70.26017601807455,467.5417251467076 70.22936862557442,467.30470102760097 70.22366659158006,466.6893736155566 70.22255900229251,466.6119244053008 70.15877006046058,466.49566854625544 70.00378959634565,466.37600787554 69.82940580783593,466.25638822662626 69.79527564735658,466.23928212458486 69.3109719522438,465.98974634808536 68.58509071520672,465.78348859958965 68.42215201654574,465.71510521319664 68.25691609547303,465.588593897281 68.11789312219364,465.481526927591 67.95950784626287,465.3424629324807 67.7908671136075,465.19322552413274 67.48545960810786,464.91517957757395 67.00008934545096,464.58926115833367 66.43944402948658,464.3853006321622 65.32270682028803,464.0787855373167 63.940517365643586,463.82465531613957 61.75380783058215,463.6708644849739 60.42404427129113,463.7460574947071 59.84633387520366,463.53528734519546 58.755809613681826,463.1387293390396 58.500571803217085,463.04638920540503 57.77128575448076,462.7808959380408 57.018083980362825,462.6715317459974 56.8847630410778,462.4287645710655 55.062737552244535,459.096930722268 55.04218561658559,459.0604623176335 54.53285860680368,458.1294719432483 52.93071011320481,457.7101878446893 52.793984362220534,457.74636909650775 52.30283002196584,457.87649033324783 51.174770788498584,458.10325899548417 39.1644411640466,460.5155885815761 24.171004246218885,463.4064788069264 22.90162481706053,463.6526097717558 18.762932643836635,464.5163653709247 18.60910079086926,464.4802661627388 18.321947998616857,464.41266219107393 18.159009299839273,464.1858935288376 18.073560833294042,463.4440958227084 17.835388102952393,461.41006952952506 17.526575785753494,458.8883757514189 17.02873488756374,454.8147031746613 16.586478565732964,451.19563448994967 16.385963873033358,447.35439158765024 16.499922509667005,443.3616140546785 16.499922509667005,441.9361465719719 16.699329613079065,440.99485971888555 16.70503164707343,440.9584323360819 17.156271749134383,438.29316216182036 17.463894433325713,435.9788337215557 17.64964126819735,433.7568043930657 17.662193947333634,433.61207938576274 17.697554762680564,432.96828282548995 17.561895579240414,430.3862049173094 17.386445223186552,429.01993193166965 17.377338377376347,428.36013685867215 17.225762724960664,426.02082612545263 17.087888362828828,423.63470948709573 17.01614118656744,422.0257103483258 16.95354187785968,420.6298196032226 16.913545596062516,419.7353386552736 16.75056587554151,418.0294869818531 16.656010563186076,417.34241239357647 16.656010563186076,416.40912479683783 16.6024360565685,415.7345618659541 16.480560207132214,415.08736049398203 16.156897988385325,413.1672928375198 16.129536429561053,412.78898954461124 16.20477046100853,412.1781745336119 16.301622995775674,410.2194232938235 16.20136564942587,408.74148889378694 16.177449923927682,408.39510058263687 15.99851271257114,406.31090459447694 15.720507787755771,403.5465256850423 15.57689036976956,402.17799649887996 15.434462584907505,400.6943600648199 15.235055481612036,399.24038241202487 15.03454078891243,398.01313239966447 14.430576423055058,396.2241294819647 13.899589888326648,394.9194302593195 13.736610167805646,394.3929971474379 13.27856044234619,393.4209849455714 12.900257149321009,392.5982511738546 12.261014011953318,391.2616369694508 11.050829079803469,388.02887083399554 10.688483277730418,386.79710842061917 10.608244583209203,386.44497705361476 10.440096112407604,385.7065841591848 10.127878983626045,384.3392035841992 9.631022609260397,382.4339858292558 8.972376147381315,380.2791912760112 8.602072110878794,378.85364174964286 8.342280877567251,378.21669583454116 7.87048883984735,377.1638296107488 7.6460173999061345,376.5700796799892 7.023880364521539,374.91899214619383 6.064420841966219,372.47704480066767 4.382525915699898,368.61529098462756 3.0208063528777878,365.65720700589185 1.9257696904857446,363.30066710516746 1.3582737292628488,361.9982651048756 1.1269926659231309,361.2142559382867 0.45238871320850965,358.67319985761657 0.2985978821011444,357.15309501895115 0.11285104734610062,354.6074855154051 0,354.24969313620795 0.021659524829903833,352.75124782245985 0.06785010259178575,352.2601345040069 0.17553239965728945,351.1138205572341 0.22225626113293961,350.62041001645684 0.27349252371197896,350.00278538208823 0.3749395030693492,348.7823860148989 1.1531645918564237,345.59179031807247 1.5713821229587526,343.95661925336924 1.8505356588050865,342.6837939906808 2.2197321060200603,341.32211544968953 2.488671207001822,340.36150731587 3.1746382059617546,338.9063810519275 3.8025182970841342,337.85121760578176 4.515846854984927,336.8530334780111 6.339020954965744,334.34495894658534 7.260863461855622,332.55825325120986 7.76908288234999,331.02333953282726 8.26479064545149,329.35395626401214 9.045353978510278,326.3867244177519 9.293741143833092,325.52641465208393 9.47833936744058,324.88257706995114 9.649277322507642,323.92086134678584 9.790556496338729,323.12438154466406 10.159752943553704,321.09265247383416 10.351160790559693,320.25055639955343 10.607588234031995,319.1247533665213 10.739104212875668,318.07525093256817 11.19444649778968,314.4391581894477 11.285555976585858,313.70642630721045 11.579600435840193,309.90961004406233 11.729986455364898,306.425051931585 11.718582387259577,305.58180724615676 11.668453714201267,301.91835294409543 11.729986455364898,300.0222830566765 11.735688489359264,298.5101364525571 11.735688489359264,298.362006633555 11.868968406900873,296.1399773050941 11.949904472342714,295.6534174094879 12.005735179628573,294.4934021723438 12.031948127305284,292.6440151245988 12.131056862507531,289.26197055896466 12.090035035026245,288.55208783462314 12.02965090501017,287.5231373362416 11.834838246421521,287.0388746629888 10.822952828279593,284.04538884713355 10.774834224612917,283.89040838296035 10.167711178099763,281.93502093304033 9.332506770762683,278.66927324828237 9.209441288435418,277.75879378763784 9.186633152341367,276.2922224338174 9.276676063710006,275.0889291686695 9.26752819603979,273.3956711962744 9.495445469540265,271.1713446454601 9.603661050319538,270.5617192674684 9.763194937397868,269.9088158614728 9.95009038330047,269.14761483097794 9.963791673700905,269.0906765344337 10.198518570483293,268.43883969598227 10.403627707773127,267.8303629291381 10.421841399276952,267.7768294442931 10.821845238875456,267.15350277590096 10.89814583798365,267.0361393275098 11.164787716437116,266.6304744756894 11.524877318075065,266.2020014877751 11.59666551607987,266.1404687465823 12.030840538017738,265.7735695216916 12.24505652111778,265.5593535386499 12.673488487201272,265.19926393715764 13.345754195760769,264.76172512538056 14.10580661502062,264.34350759433653 15.721615377159909,263.48775125151536 16.20021703816172,263.23362103033816 16.7938849254345,262.8837868857163 17.5004038598202,262.5373985745662 17.68385347228013,262.3653530301533 17.988112366632222,262.0804564383943 18.60910079086926,261.7430519074744 20.22831436459121,260.86350290470597 20.538275292937666,260.7335867771202 21.065857016083413,260.51366876005494 21.631055754894604,260.13532444531546 22.220170219203986,259.7775730879784 22.45608674899394,259.6385090928681 24.46956110657661,258.4545781302842 25.268338131022634,258.0067838616659 25.822132801845093,257.66605656270843 26.691549413264955,257.1088570802159 28.39625247550874,255.90211798156702 29.136942592233797,255.4542826910887 29.334052473350745,255.3210027736637 29.740824914487742,255.04521302756916 29.887847144173204,254.8777209060322 30.04623241998739,254.69767610527154 31.877405776374278,253.0625050405683 32.533755015841656,252.62607381813703 32.549712506677196,252.61581836126672 32.590734334158476,252.57709375613885 32.96788901591951,252.21585554344077 33.48406667095994,251.73955110470493 35.08621516444221,250.28327622958568 35.256004508478306,250.1579545466776 35.4622622569157,250.00523028299776 35.86792710876515,249.70556583335247 36.02061035058497,249.59271478597722 36.54704346246657,249.03781252580893 36.883176316746315,248.64695655370576 36.96640960471645,248.55125263023191 37.36296761087229,248.14218296671234 38.538899316962755,246.92974183403996 38.8032439732377,246.54688511828456 39.22261011548758,245.9361111291161 40.05096387756615,244.7339254533432 40.24241274631556,244.44677266106163 40.97510360675114,243.34262915291768 41.24859613046312,242.98364714074216 42.18528853890099,241.0579184720873 42.414313401689014,240.60782698108645 42.945340958277434,239.55947315831006 43.11053585737353,239.16065895166082 43.32479286233358,238.56699106453377 43.48088091585265,237.92430209360683 43.84322671780911,236.98309728418215 43.846631529508365,236.9625863704415 43.97884487950584,236.25721604711592 44.023271518569786,236.10227660477355 44.15888968014993,235.62478253303016 44.23637991226569,235.14732948314673 44.20331631933047,234.70638585967038 44.096208327838745,234.13208027513642 43.65518266075895,233.12930170265898 43.32360322932601,232.459292194622 43.11968372492716,232.12886137436578 42.71057303963504,231.56362161369458 42.34026900301592,231.07710273991927 41.85251947446048,230.32841336678814 40.89876198578293,228.90749930692837 40.652631021011814,228.5872829217116 40.359776194648454,228.13944763126247 39.892619623495385,227.58565296044 38.78277408129877,225.73626591266589 38.570773277007,225.4354528518439 37.91216783698793,224.5044624774587 37.59995070820637,223.92105004720196 37.22045778229021,223.08354841762807 36.79206683795014,222.08076984515063 36.4216807577276,221.0597775812859 36.069631434355735,220.01142375850952 35.97729130080857,219.20128368784734 35.962482421004,219.06677311558389 35.87473673204706,218.04582187355007 35.89409903469844,217.31538721363702 35.88499218900483,216.46073846016174 35.88499218900483,215.65400320116964 35.910959005754655,215.52068226191375 36.02171793987252,214.95322732255087 36.21657162043777,214.38007034916447 36.61542684888872,213.4650784874748 36.72249381863702,213.23145918003826 37.083732031305935,212.6719624751923 37.31964856109589,212.35289470115222 37.53156732166764,212.06803913122408 38.100170872178076,211.3353072489868 38.203874052087144,211.2020273315326 38.3201299111325,211.06866537044587 38.65170934256543,210.68580865466132 39.05052354927297,210.25963288910037 39.08469473149574,210.22205689514922 39.58155110586138,209.65796574562557 40.048748698757876,209.14178809058515 40.54552302952009,208.56863111719875 41.07199716314511,207.97496323010085 41.19391403444141,207.8359402567923 41.508387363774666,207.4758916771018 42.38129083049721,206.47877411684615 42.82908509911549,205.8565960596307 43.18006785494323,205.26296919433452 43.46266722446541,204.5518968369854 43.88195132287869,203.602692771213 44.15433625730312,202.6785940638297 44.387914542937956,201.98803262022125 44.55315046401065,201.37615104170698 44.67166252349111,200.76537705253853 44.700131671836104,200.67418553008062 45.39294931593796,198.4294301091874 45.48750462817681,198.12513019303358 45.95810703300573,196.60395878685316 45.96955212285447,196.57659722794145 46.29087609744624,195.84505497868258 46.73641416551283,194.83202094936394 46.98939577542587,194.4046965726263 47.07824905378694,194.27137563334128 47.703872944590806,193.32672499041564 48.09243169434057,192.83105824911584 48.55048141980003,192.27615598894755 49.07695555354164,191.7895550715105 49.991947415173,191.17652488184868 50.86936328288235,190.70932728880646 51.001576632879825,190.64434871408355 51.368475857683094,190.46204771282947 52.12852827705954,190.14072373826687 52.793984362220534,189.90049991661527 52.829304155707455,189.88774212826638 53.608718877618685,189.61539821570196 54.242301002852024,189.43994785961894 55.371549869443434,189.25534963601146 56.1213058101187,189.1573484901842 57.71771124774659,189.07075141240398 57.75422067424108,189.0684541900797 57.859031443437694,189.0753048352508 59.41900949840771,189.17100875872464 61.056436763633485,189.27241471625115 61.746998207183644,189.3430953249684 63.5405545477885,189.52539632622248 64.79857093070154,189.57437638822068 64.96150962947912,189.58007842224418 66.29812383379549,189.6313557065958 66.35284695167721,189.63365292892004 66.41093385939817,189.63024811724995 67.98001876006181,189.52654493739917 68.5041956715083,189.47982107592352 69.8397022865371,189.36016040520806 71.34951064647223,189.19492448416452 71.55232256146694,189.17100875872464 72.20415939994751,189.09466713781472 73.00178781324598,188.8804101329421 73.89856598349012,188.64687286916728 74.38512587903799,188.4622746455598 74.83636598121554,188.26282652040433 75.2602445245688,188.00644009873375 75.65450530831293,187.77856384715156 76.00893389769993,187.57345470980343 76.91481891363769,187.25894035861018 77.23729149937701,187.2236205651524 77.62355302683166,187.18030151534686 78.13636689191625,186.98319163437566 79.1185935288222,186.26301243133292 80.59878412938136,184.99699679201382 83.22647830977917,182.16763930788545 84.13088653980586,181.3358397123059 86.42158640756325,179.22891763171364 86.97882691182838,178.64136199686044 87.1748292035412,178.43469403008527 87.46538680749285,178.12698930226136 87.83573186585538,177.8523891891744 88.9216616825538,176.31636788144598 90.0440599038867,175.56882711949157 93.7485360335459,172.9616848747527 97.40407312280459,170.4148857382282 98.6050691655408,169.52955265780366 98.97315802346823,169.22869857515082 99.03924418747867,169.17516509030582 99.33439623613714,168.7615009821086 99.65686882187646,168.15753661628037 99.66938047926934,168.13251330152377 100.00440574426153,167.38386495025267 100.51373275404345,166.01988918690802 100.71432949046307,165.21881494010856 100.68122487566784,164.73451124502495 100.83165191693597,163.2201494622139 101.14616626812922,160.09223511775693 102.18992564619882,156.595124326085 103.25423695992734,154.29215893200737 105.70533217300715,150.20712330906275 107.16267361561223,148.2984597206184 108.1953981220834,147.15099716269805 108.91639776174337,146.34992291589862 110.55042021526988,145.3266744515114 113.14964524720611,144.34100198110445 115.19724976538473,144.00827393852396 115.76359711534347,143.79516554482805 116.90080421648095,143.36784116809042 117.8021768314319,143.03060072446482 118.55537860554982,142.75025755555262 120.71583417095795,141.94237368538384 120.95745273474226,141.85233077410265 121.16366946155283,141.7544116719371 123.38225295642533,140.70142238265217 123.66940574867773,140.56469663169705 124.06940958839283,140.37554498524275 127.44571109808516,138.1831744380178 128.92249688694505,137.23852379509216 129.4740353573324,136.86473290319952 132.97910438346295,133.65711314796428 133.18080870917012,133.47251492435677 133.22638395949824,133.4348568867439 133.80749916740155,132.94714837996102 135.4791796585701,131.54559662269435 135.89391033425315,131.19687006738914 136.11497696249512,131.01227184378166 136.60953611444907,130.75022440991842 137.21120325801132,130.4323052470259 137.49265401615278,130.2841754280529 138.21849423144644,129.99702263577134 138.4874333323116,129.88991464425047 141.38287698045042,128.7424110644701 142.60442495884558,128.3721070279093 145.73574411503094,127.42401055148268 145.7870624212134,127.406945471243 148.59020695754847,126.45203937144706 149.4129407292361,126.2993561295981 150.11141938547232,125.8993933118013 150.56495671006158,125.56436804686739 151.8332285498158,124.97414599324132 152.7277094978814,124.55933327389654 153.19146125733522,124.34400970150895 153.4284853764127,124.1639238789174 154.98501759794007,122.98458736104024 155.3485530329041,122.67893372455542 155.7074530014179,122.37717716171106 156.2726927620891,121.90091374480608 156.78316838313515,121.54308034380726 157.37339043673208,121.02460546641342 157.56939272844488,120.85255992202967 157.76203123020187,120.4845120859914 157.95569527764295,120.11416702759972 159.06898665328225,118.33882437841125 159.79716511273102,117.10021131983471 159.94984835455085,116.32079659795262 160.52866634015905,115.14256766942131 161.5325525018949,113.95519087333636 161.89608793697553,113.43671599597167 161.99749389447288,113.29084237749205 162.42994599957282,112.96611359125934 163.1461050635991,112.42831743313242 164.16143631530028,111.66481918031332 167.06483819798515,109.56245052256786 167.8362536634903,109.00406140706772 173.24092045428992,104.5270212008141 174.698302918755,103.32598413621788 177.02173820468414,100.72680012599594 177.7305133397381,99.86193693748118 178.60111958404894,97.82905925547456 178.78456919650887,97.39037183252074 179.02951052827243,96.80236495758635 179.370237827259,95.98877905339405 179.62777286013545,95.4144734688601 179.86024355636613,94.49833299599374 180.61910634273502,93.46478805293445 182.32495801624293,91.56412372086703 185.2603159024589,87.98722547475508 187.8594999126517,84.66105263815021 189.53339558251196,82.60860754442534 190.9178822595681,80.91096023647779 193.76844802853265,78.78127104165148 195.5556049639893,77.44576442659353 195.6832648910234,77.35006050309053 197.48363085502675,75.68642029012975 199.19748178482416,74.15150657174718 201.65760179987757,72.30211952400221 202.32539612931026,71.83721915328424 203.76456490227153,71.14091465385056 205.3712257969738,70.06298409347076 206.93575727479063,69.01463027069435 208.95727191063938,67.92529564226753 210.25741771032125,67.51167255590117 211.5575224883763,67.27579704797122 212.67996173145264,67.11856038327545 214.6091362337542,67.07868716697087 216.0266865037456,67.1971582047079 217.95581998395397,67.03992154001213 222.82945921816514,66.40863663710306 223.7182381321198,66.21501361146368 225.90039424433442,65.73973471841194 228.687581289834,64.63103778742118 229.3279730384658,64.33243990529088 229.8304904249658,64.09886161968521 230.44922264853457,63.493789664511134 231.41208698302233,62.58564844802169 231.97958294412862,61.83810768606727 232.21205364047592,61.226226107552996 232.4422271142949,60.41830121558249 232.3578862370372,59.9704659251042 232.26218231353423,59.64688575001903 232.20179818351815,59.31296807443097 232.40579973152043,58.84010946922523 232.5493351057866,58.359251607642584 232.9253821982601,56.88016859642928 233.12023587882535,56.11671136541188 233.78913779742902,54.38579535540394 234.97758116102895,52.031593698834705 235.5245662084529,51.248774165253366 235.70571859861772,50.98898293188353 236.19798052815997,50.496721002282996 236.80760590615168,49.92582022939 237.96991836567832,49.08031934343917 240.1554382677322,47.80064343557964 240.7377431086431,47.50668101992873 242.1450379217933,46.79675727378548 244.92882015559357,44.97928520779903 245.3584007328246,44.59642849201448 246.76114212312802,43.34641136542007 248.08065022546128,42.10660867383596 248.96832155001178,41.208681892385975 249.28853793519943,40.73352606482683 249.63607485758448,40.21730738795554 252.7548823562604,37.150966806551374 254.23166814512027,35.734565147707556 256.5163378041198,33.23563848383541 257.1464740959105,32.507501046275785 257.75728910690975,32.05396372177398 257.90312170358766,31.9924309805812 259.6921246213457,31.23812161708828 260.00659795067895,31.03071525741589 260.7951605400272,30.509984179528654 261.20878362642276,29.97780801179268 261.5734266507909,29.25541363005828 261.5836821077487,28.975070461146082 261.7409187722987,28.246933023586454 261.8195576156786,27.833309937220093 261.82640826082053,27.819649668679666 262.03602979909715,27.360410310183497 262.0599865463388,27.111982123029822 262.0668371915973,27.03678911326747 262.0953063398257,26.731422629598683 262.15458288055424,26.338269435142102 262.13522057801947,25.531493154319158 261.9164511720726,24.22224050885622 261.1472508852591,21.15245409392194 260.9409931367051,20.521128169182003 260.81337423153104,20.129205629534702 260.0601724572965,19.03527655645935 259.94740345367046,18.957786324372737 259.1941606576925,18.44386486985486 259.14284235151007,18.408504054566222 258.18912588469254,17.75674925974737 257.9327394630802,17.32487146016291 257.90312170358766,17.258908361586762 257.7560994740188,16.93171826570633 257.6968639550337,16.577371720039345 257.7560994740188,16.282219671410022 257.80171574609034,16.127280229067654 257.8119712029315,16.094216636103283 257.8541006197003,15.454973498677296 257.8085253693722,15.189439209482229 257.775461776437,15.002584785352195 257.12596318211155,13.644311056060198 257.0473243389648,13.270561185998416 257.0667276633596,12.858045688977896 257.1453665066229,12.582255942912507 257.30256214942955,12.287185937915758 257.5658402381604,11.911138845529715 257.8176732370424,11.552197855185062 257.90312170358766,11.441767095626663 258.7002988767758,10.411544920604916 260.57860631288867,7.984447476597588 262.5886758588887,6.130465984174944 263.0217432914224,5.461605087314698 264.7378093999115,4.144353185474839 264.9577274170059,3.975671430930324 267.3050784283166,2.3074777950935865 268.62118171906724,1.5189562274887372 268.986973354583,1.3001868216001828 269.1795298126199,1.1839309625548309 269.99200812746636,0.8785234570551835 271.7605001314255,0 271.71837071465666,0.17315313375874639 271.5850497754882,0.7247326258895228 271.18619454692066,2.3599036905927497 271.169129466681,2.3929262617262603 270.2860115649773,4.136353929127065 270.244989737496,4.3528671344930725 270.3566511518345,4.508955188012142 270.5606116779768,4.650275383644945 270.86712677288057,4.743723106596246 271.89722588240977,5.275858252530507 272.05905699178317,5.310029434811574 273.1905620589263,5.589182970745352 273.8606125886775,5.319177302336054 275.0046293132135,4.555679049487792 275.160758388476,4.529466101752785 275.32369708725355,4.54772081497088 275.45586941527444,4.586445420098756 275.5516143606375,4.670786297385588 275.5937847992663,4.78704215643094 275.5937847992663,4.913471428684888 275.54250751494385,5.016025997358953 275.308929229309,5.263305573335924 274.7516887250439,5.727098354678903 274.49189749161576,6.042720295218009 274.3801950554172,6.28433885900233 273.91640227410335,6.748090618543594 273.75920663129676,6.98396612647354 273.7307374829518,7.026095543300666 273.7307374829518,7.267714107084988 273.97227400313267,7.508143037861741 277.92632693100563,10.179115246146788 278.2805914329526,10.411544920604916 280.9357292158947,12.153823976829015 281.6331002828434,12.726980950215415 281.96582832542384,13.046089746086349 282.5218791966814,13.397031480083227 283.2409097885766,13.824355856820876 285.13931792012147,15.168928295741585 286.0680110722698,15.827574757562372 290.79122326509633,18.377778705786124 292.08796425319554,19.05369535697175 292.34775548662367,19.189067387625013 292.8138044683726,19.43290113010102 293.3744497844536,19.725796978236946 293.7881138925925,19.94116157242625 294.1777802317464,20.108653693992345 294.50255003978083,20.270484803336643 294.660935315595,20.3490826247691 295.36630563894977,20.442530347749546 295.6591604653131,20.33997577907548 295.73779930845984,20.31265524199463 296.0898486318317,20.071036678210312 296.17989154320037,20.027717628404766 297.22139472071825,19.5332405200834 297.9085103308257,19.23579124912981 298.4360920538549,19.009022586864333 298.5956259409332,18.93957263295636 299.63598050730354,18.697954069172038 299.78981236038754,18.68429380063161 300.4894396277713,18.62390967058639 300.69684598747284,18.605654957368294 300.86093329739793,18.590887099482025 301.52983521600163,18.531569536980932 302.2533782090002,18.40169443119687 303.8133972858302,17.862708640091537 304.53812991160316,17.641642011878723 305.148862878999,17.313467392115886 305.78244500423233,17.061634393292106 306.21313317086754,17.013802942470612 306.9219083058049,16.93401548803059 307.3196149231083,16.601287445450094 307.3868086765229,16.54430812710412 307.64889713224613,16.292516150082058 308.03975310429104,15.916469057696013 308.12068916996606,15.840127436786103 308.3337155199419,15.635018299437974 309.6715193573824,14.636793149807325 310.1717805433307,14.263084301576406 313.2165026217067,12.031907105591014 315.4259792708856,10.411544920604916 316.6395690147347,9.521617395502707 316.8811055349156,9.39170126788778 317.0942139286115,9.503403704086326 318.0176562867593,10.411544920604916 318.9606660566253,11.33908946148916 319.466588254708,11.652455201505719 319.8004649085526,11.63309289894178 319.98850896560276,11.570411546572295 320.13434156228067,11.52253907391994 321.40318770772524,10.411544920604916 321.4903590911084,10.335203299665858 321.67610592586345,10.335203299665858 321.7569189259584,10.411544920604916 324.73904169562667,13.228390747340427 325.91731164598883,14.15823251057808 326.27280680280336,14.15823251057808 326.30701900688615,14.15823251057808 333.10179246513286,13.378817788666845 335.6736969601048,13.0711540826738 338.3867985851878,12.747491863956057 338.96110416969265,12.803363592956186 339.03518959010916,12.913876396147163 339.79634959877313,14.25049060055096 339.6117923970256,14.572963186290284 339.2960884128248,15.055010680851359 338.9257843763223,15.258971207022782 338.1645833456817,15.462931733194207 337.6449598571986,15.94604579529941 336.98180099433273,16.376816005538025 336.74477687525524,16.599031244927545 336.73452141841403,16.7437562522596 336.7903521255833,16.965930469818257 337.66210698104175,17.6997699414014 338.4426292922405,18.35726779204548 344.0341505071993,22.629239882781835 345.63740659020226,23.843896194116766 345.8254506472524,24.02627923903257 345.95073130838796,24.149303699616414 346.4692472075835,24.652969697263973 346.8805730715673,25.197616500561956 347.60530569745686,25.75485700488538 348.55225356273587,26.236863477644743 348.73000114120146,26.279033916273583 351.6903823422032,26.978702205575654 356.691640481705,28.115868284823975 357.19300925705744,28.209357029635285 357.7308874587878,28.191061294586326 358.71541131798887,28.191061294586326 359.1506529074708,28.20365499561177 359.3648688905709,28.209357029635285 359.8480239744195,28.265187736804553 360.45769037427124,28.378777177077026 362.57031448879957,28.7722175243205 363.66649976245577,29.083327063843658 364.25335802621345,29.19498847821134 364.445914484367,29.23145688281667 364.98375166423733,29.23145688281667 365.6708672743448,29.19498847821134 366.0970430399932,29.12090305779483 366.39445128908676,29.12090305779483 366.6542425223983,29.176733764993244 366.8582030486572,29.417203717600863 366.92088440096836,29.60976017572526 367.0895251337403,30.135085698290165 367.2171850607744,30.434750147964586 367.76983112044934,30.484673711985177 368.05013326755983,30.509984179528654 368.733803044108,30.790286326609987 368.9378045921103,30.994246852781412 369.10529671361815,31.328164528369477 369.12355142686533,31.995876814082166 369.12355142686533,32.886993972191945 369.07338173194705,34.49365486680675 368.9822312312908,35.44056171025493 368.9719757743331,35.552264146453474 368.96286892863947,35.64226603590381 368.92073951187064,35.911164114967264 368.8899321194871,36.10261298374582 368.8512075144175,36.34759533739853 368.92525191297403,36.92304953313834 368.9811236420033,37.29339459150087 368.9070382215868,37.98051020160836 368.8774204620942,38.15715019066979 368.7395050781024,38.96388544966187 367.90315205973434,44.22723204482866 367.8726318201377,44.59642849201448 367.70374495643887,46.63381857506619 367.57042401715387,48.22686022297144 367.52599737797334,48.86835956091998 367.0496519174066,48.62222859611971 366.3124076342408,48.49120487918809 363.30645118279443,48.29405397635687 361.3237021739919,48.34307506018593 360.6194804617847,48.3271175692921 360.45769037427124,48.29417704184946 359.4891240059057,48.096944095385666 358.45668665222144,47.91689929462498 358.45557906281726,47.91689929462498 357.57360977226114,47.66736351812547 356.1458040454286,47.26284727745272 355.6717968289004,47.1808036225193 354.7909761496084,47.32438001867465 353.71530178975115,47.498681763580954 352.5028606570496,47.71179015727686 351.8476600288464,48.08779622786118 351.61863516605837,48.41482223641817 351.1764608877144,49.594240797957056 350.8950101294564,50.783873794535396 350.78909177085563,51.11660183714504 350.5338129386475,51.91427127227437 349.6165238546044,53.469654882537576 348.4371463148381,55.45121425842002 348.17505785923146,56.20445705436881 348.1739092479673,56.803785953688504 348.2889754741217,57.44192150179779 348.6661711776261,58.50512522612219 348.83025848743466,58.94721746074611 348.8462159783868,59.68446174399935 348.76187510112914,60.913967956882274 348.731108730489,61.35384501281451 348.68212866846164,61.92700198620091 348.2889754741217,63.94617837783624 348.2889754741217,65.20759957250684 348.2228893099946,65.86280020082665 347.91186181422063,66.2388472932127 347.53011268775276,66.36646619847421 347.3751322235213,66.41889209397337 346.95921191483063,66.55791506725276 346.7620610119703,66.6729812933197 346.39975623175724,66.8860896870156 346.2800955611292,67.04787977455818 345.71489682231805,67.96857367024221 345.6442162134842,68.26032090720143 345.6991854622928,68.85751667149117 345.805267908217,69.24570622482146 345.9136065544597,69.59742737351729 346.0335953998512,69.90427064298052 346.22996688795433,70.2931575673772 346.2458833569298,70.32732874965825 346.47720544212956,70.81733447876539 346.7620610119703,71.23210617630846 346.9261483218954,71.72321949476144 346.9751694056662,72.11637268921801 346.8817216827149,72.71574261036857 346.860103179745,72.85361697247126 346.8441046669328,73.54069156074789 346.9911268966183,75.37531075060659 347.0241904895535,75.63625059512398 346.9261483218954,75.81633641771553 346.72903844089507,75.91544515288862 346.41792890140107,75.89838007264895 345.81174935696856,75.84935898881989 345.10752764476143,75.71829425005741 344.58909378928587,75.67501622208273 343.94525620709476,75.6202931042593 343.5019743394633,75.6202931042593 341.5124567291222,75.98378751745076 338.3343726896012,77.08116242405623 337.17095264078705,77.60529831361356 336.4166022555215,78.2434338616937 336.12263983987066,78.53854488852132 335.8434452821643,78.60352346321507 335.64514576815634,78.65365213638997 335.58135682644104,78.66956860545294 334.91815694171515,78.6867157293252 332.0956501028453,78.58186393832686 331.6740277600437,78.56701403677887 330.05251696391,78.50662990673365 329.75855454825916,78.49067241586897 329.4144224375733,78.60467207439177 329.1388788224931,78.78127104165148 329.0748437498509,78.82229286910362 327.58780250414986,79.77830655824542 326.27280680280336,80.57257118170465 326.09735644674953,80.67848954021795 323.44230070752747,82.31485023792874 322.7381200171803,82.77289996344649 320.83856327437127,83.9192139102193 320.69724307879676,84.23947131726693 320.65851847361057,84.32836561737142 320.5251975343255,84.89352333441005 320.50809143234244,85.71166266144915 320.3120891407462,86.49792802853146 320.11497925962925,87.12006506391606 318.9549640226309,89.45494543975221 318.76810959847177,89.8321001214841 317.981844231302,91.1744163599114 316.9848087147081,92.47571077085743 316.58029247412276,92.87226877698413 314.15770743113137,95.24468412496974 311.9949546434282,97.42224579244841 311.1915831741587,98.40566206236193 309.24308739129896,100.27215521214829 308.2391602075865,101.64064337650889 307.30476502156034,103.3761538311945 306.5014345742675,105.3417557161831 306.125428503654,106.24083110878065 305.33571730315816,108.09936602407925 304.5825565507837,109.42572477161272 304.10395488966526,110.30884267334558 303.9102498204808,110.66663505251353 302.66400670194673,112.96611359125934 302.41746551880874,113.42075850507784 302.0403108370477,114.1158733715331 300.26726541024175,117.12072223357535 299.81713289746835,117.80668923250613 299.56648953159385,118.1907355812691 299.22703390933486,118.70884126218517 298.54894310131755,119.7427143798622 298.27200474404634,120.16429570077462 298.0862579091747,120.44915127070277 297.7842962372343,120.90953924037564 297.2988439310906,121.65137796830655 296.9570090426999,122.1721090461938 296.7188363124748,122.64045525041273 295.21587859768164,125.60424126314282 294.16752477490525,127.27928554417979 293.70947504944576,128.01086881524037 293.5123241464688,128.51793962455804 293.4861111987921,128.68317554560159 293.2661931816977,130.04144927492274 293.1169147515771,130.68754305754894 292.62354523263076,132.81952947472865 292.2144345473386,134.47295525264997 292.08796425319554,134.7398022403452 291.4771902640562,136.0283798847732 291.11599307313077,136.76562416802642 290.37870776810496,137.84585195075965 289.6733784666102,138.5945003020599 289.2266917872795,139.0673999290965 287.572158419954,140.68206008008823 287.112919061487,141.12989537056652 285.68745157880954,142.32523040113924 284.3291368276867,143.32456314011574 283.16575780073254,143.962657666365 281.0268797164343,144.6771348353842 279.5352850478864,145.31522936166263 279.2241755083924,145.57731781735674 278.74906070269327,145.97047101181332 278.15309559324197,146.2792423071522 277.89670917151307,146.4126042682681 276.7003075734837,147.15099716269805 276.3071133571671,147.39368229399736 275.7760858005787,147.56917367191122 275.6199567251996,147.68768573145 275.57553008601906,147.86317710936385 275.8854499926221,148.42382242538653 276.66945915912356,149.94843966506792 277.4887470973685,151.27139360090214 278.48926946926514,152.88490514071717 278.67271908172506,153.1823544116999 279.9500977672895,155.21974449472245 281.36079739202233,157.16262028727874 281.82225192929764,157.98756923765805 281.8507620993861,158.0377389326638 283.1018868152972,160.2734285296943 283.9200261423946,161.7797910561576 284.0351333901758,161.9928994498535 284.7233976114308,163.26457610136526 285.02880511693047,163.82751863971222 286.3791206117639,165.26098537876655 286.6035920517051,165.8318861516304 287.9242897870459,167.18671404742145 288.08148542985253,167.32233220903072 287.8650132463174,167.51263246666173 287.20866400685,167.89889399411638 287.20747437384244,167.89889399411638 286.44213013872195,168.48074759491692 283.8835987595035,170.42403360575267 282.32706653809277,171.6068159571308 280.4503179313778,173.01525938142856 279.2846006602685,173.89037802681364 278.93136170400567,174.15587129417784 277.54002438169096,175.2007792834533 277.3235111762958,175.36371798217257 277.0716781775303,175.55516685095114 275.01262856950297,177.11629351709786 274.76764621587944,177.21429466289598 274.18078795212176,177.22680632028883 273.1620929105813,177.24731723402948 273.0959657247109,177.29633831785853 273.031069193708,177.41025593271962 273.0629431536356,177.67238541024457 273.4560553262322,179.440836392402 273.5973755219233,179.85450050059922 273.9449124441918,180.87323656394133 274.0087424077671,181.06119857738807 274.08545322512566,181.3358397123059 274.20474469936335,181.7631230672127 274.30274584516144,182.31236431518835 274.4349181732989,182.7522413711206 274.58075076986023,183.31969631048347 275.3613141030356,186.365567000007 275.67582845422885,187.36834557248446 276.03362083345513,188.51121368572714 276.16468557218843,189.01828449507394 276.16468557218843,189.50939781352693 276.1475384482288,189.93561460091874 276.06323859283106,190.08259580874417 276.0165147313554,190.16463946367762 275.9185546074173,190.27974671154627 275.6666805866752,190.3093644709805 274.7813475062799,189.96523236035299 273.9141870954117,189.78518755959232 273.4400978352801,189.7168041731993 273.1278807064985,189.6712699447021 272.5706812239768,189.60514275883165 271.98156675966743,189.4410554489648 271.29330253852896,189.16300950237687 270.8500616927575,189.03198578544524 270.3920119671815,189.04909188751577 268.7374375781126,189.19607309531207 267.92500028500956,189.24505315731028 265.7462489844942,188.769938351582 264.33784658217303,188.39274264801924 263.5834961967909,188.22980394929996 263.2564701882048,188.11129188976122 259.1930530682884,186.64131572424154 258.9628795943528,186.64131572424154 258.7497712006569,186.75642297213932 258.5480668750663,187.12221460765505 257.90312170358766,188.57996626856874 257.79482407908836,188.8246204476037 257.6478838931229,189.16871153640037 257.679757852934,189.44675748298832 257.73103513737306,189.70999454982996 257.745885038921,190.01995547820556 257.6148203001877,190.13502170424334 257.45073299026257,190.1999592571354 257.139664472512,190.16689566417102 256.7955323619428,190.10199913313897 256.2223343667255,190.16689566417102 255.97620340195436,190.24668311861103 255.7266676253674,190.39251571525978 255.23440569582516,190.97826638967163 254.8891659958518,191.35882588310275 254.46865124245437,191.82376727562246 254.13707181102143,192.18951788933646 253.56391483766416,192.63165114579124 253.51604236492437,192.6578640935554 252.98956823129936,192.94271966348353 249.89016405690165,194.40244037210374 245.49057306096208,196.5720027832638 243.98872293545645,197.31154428884128 242.49827687805612,198.04768098277785 242.13703866538722,198.1992156134501 241.38043207957003,198.51828338749016 240.14292661033934,199.21680306561555 238.9589956477262,199.77285393696056 237.34548410799863,200.84742070747197 236.10797863876792,201.51057957033782 233.61590262006686,202.6045086434132 231.56370365729802,203.4192431587822 230.4435616365168,203.73031167647449 229.9341936047583,203.8704832609306 229.7518515815859,203.92176054525305 228.87332812458902,204.10065673483703 228.64885668476438,204.16104086488224 227.36339669919047,204.5103417257612 226.16699510104448,204.83564481759686 225.72830767811982,204.90743301565996 225.38987760154495,205.20024682013417 225.1426390473697,205.58314455772043 225.12893775696926,205.6583375674828 225.07425566094756,205.96714988465254 225.07425566094756,206.3500476222388 225.08451111778874,206.4058783294372 225.16770338389884,206.84456575236186 225.2098328006677,207.07018580345064 226.92253511931753,209.00846715132926 228.0950209920819,210.17988645652036 228.1599995666882,210.2437164200374 231.68447191733017,213.7692963599669 232.55273991748587,214.7173107927609 232.73278471836315,215.13667693498166 232.73278471836315,215.52068226191375 232.73278471836315,215.8249411562367 232.78521061383316,215.97532717573225 232.87410491393766,216.2317546192337 233.17602556413462,216.47558836170973 233.40509144866607,216.69095295592817 233.6956490526177,216.9109119948243 234.22671763106615,217.31538721363702 234.31442229816307,217.4840689682107 234.40216798712,217.7404143680504 234.55140539538056,218.29535765004957 234.58561759957993,218.7887681908268 234.45570147199416,219.23771107065096 234.1343774974024,219.6969504291471 233.60449855207813,220.49572745359313 233.4301557853118,220.76011313164065 233.12819411325484,221.21590665663587 232.7601462771874,221.72867950000617 232.56073917389196,222.00553581358653 232.50490846672267,222.11953547210936 232.5185687352631,222.21864420728244 232.71797583855857,222.40324243088995 234.76340619978893,223.19631742131244 236.8645852245851,223.84926184913886 236.9922451516192,224.02019980420593 237.00705403142376,224.2663307690062 237.00705403142376,224.27543761469983 237.04467104720578,224.6913579234196 237.07880120756855,225.0833214848686 237.21331177986116,226.59091466614117 237.24067333880203,226.8951325386624 237.14127745081288,227.4494194713969 236.89994603981543,228.07336146719373 236.6184542596974,228.43119486819253 236.11253206149814,228.67732583302194 234.79753636026828,229.01005387560244 234.24829511229262,229.18780145403886 234.09905770391546,229.23567392669122 233.12593791270314,229.5501472560536 233.1213434681129,229.55129586723032 232.621123303908,229.7632556497495 231.98188016654032,230.03445095113725 230.99846389662682,230.45033023802614 230.5700319305433,230.63271328294195 230.01964207142012,230.86514295737092 229.3428229400138,231.1522957496525 229.02601136640882,231.36651173269422 228.47110910629883,231.74030262458686 228.35710944768857,231.81775183484262 228.22382953026357,231.9077537243221 227.52190504046808,232.55729334044926 226.3493371241003,233.69105460802749 225.53349501953116,234.71774890588654 223.7182381321198,236.74287346250142 223.54278777606595,236.93862962319992 223.4744043896438,237.01267402178556 222.8955453822922,237.64629716884974 222.6607774636498,237.84455566099766 222.41353890959113,238.05192099886833 222.41243132018698,238.05306961001588 222.1411539751667,238.21945414223615 221.8996174549858,238.32430593323448 221.59880439419297,238.40060653234266 221.19084231993182,238.4154154120598 218.4765510618412,238.44507419332493 217.12172316613763,238.54077811679878 216.82316630577992,238.61145872551603 216.461969114971,238.7322269855773 216.13490208452487,238.98746479610034 215.78847275154394,239.31219358233307 215.5286815182324,239.57317444868133 215.3327202483796,239.83981632722225 215.01705728603878,240.5633593201042 214.80284130293873,241.05332402740962 213.85704204892383,242.36495593885854 213.3408643938834,243.08168930840029 213.3408643938834,243.24688420761296 213.46167367577556,243.42807761955035 217.38151439944917,245.35610351055865 217.71879586499307,245.52133943157307 217.71879586499307,245.71615209022 217.50917432648325,245.94066455196293 216.5621854394608,247.226042493846 216.06996453166198,247.89490339073538 215.30310248900363,248.9341093459873 215.16633571615932,249.10845211272448 214.69926118860968,249.70556583335247 213.55282417643176,251.17094755416534 213.25541592722158,251.55039945825064 212.19340183590475,252.90863216574093 211.98033446406885,253.1798684889595 211.30798671178934,253.91826138338945 211.06074815773067,254.18945668477716 210.47278230456885,254.62703651838513 209.0096567842494,255.63658369237194 208.2119873492075,256.09926888436905 207.6160222396396,256.44450858434243 207.554530520336,256.47416736560757 206.89247924675766,256.7909379173234 206.39447426136104,256.88093980680287 206.27715183477156,256.9048965540153 204.78096272151686,257.2125602600375 201.4035126005604,258.02614616422983 199.89144804007358,258.39304538909136 198.7849662878328,258.660835878809 197.59192847952605,258.88645592989775 197.35260713803686,258.9320311801967 197.32073317822577,258.93662562487435 196.49344598357476,259.067649341806 196.42617018655673,259.0722027646528 195.8439473893659,259.1132245921341 195.48496537713208,259.1223314378277 195.25598153620405,259.1280334718512 195.11466134051295,259.12458763835025 194.6827835409868,259.1132245921341 193.34161591370705,259.1884176018673 193.1250616864519,259.1907148242207 189.53339558251196,259.23764379485067 187.981416783948,259.257949599437 187.42081248972704,259.26480024463723 183.19896907225302,259.1291820830279 182.38878797970168,259.15994845360973 182.14835904892493,259.15994845360973 181.93525065522903,259.15765123128546 181.7973352712372,259.1633942871107 181.8850809601941,259.6123371669348 181.95346434661627,259.96438649027755 182.0149970877799,260.277793252125 182.17908439758844,261.1175921040523 182.09363593104322,261.7431749729379 181.136473630783,261.70215314548574 180.66357400377555,261.68164223174506 180.54961536690874,261.67708880889825 180.01522402048107,261.6303649474226 179.81011488319123,261.61211023417536 177.8501740104827,261.44236191211587 171.69000822315348,260.8532064260339 170.77731358381723,260.74494982333636 169.79508694702787,260.62758637494517 169.1888663806188,260.5546905875362 166.4267026497884,260.22766457895005 164.98753387682714,260.05557801273545 160.003381839425,259.5109312094375 157.7562881743475,259.40607941843916 156.82074437705717,259.35935555693436 155.80664378034015,259.6009330988878 155.3485530329041,259.7626411427687 155.2482546646943,259.798084001719 155.05680579594488,259.8664263662812 154.5725431226921,260.15583535905614 154.35492232800942,260.42247723759704 154.2830931081446,260.7358839994736 154.3070498553862,261.050357328836 154.5007549245707,261.4127441526816 155.3485530329041,262.5900706010214 155.37132014713814,262.6217394518239 156.91763793356773,263.877458612471 157.32896379766814,264.0221836197739 157.76424640889354,264.0950794071828 158.24740149285876,264.0950794071828 158.75562091323653,263.99822687253226 159.43248106650285,263.9492468105341 159.79597547972347,264.04609934518464 160.08542549438758,264.04609934518464 160.3030873109303,263.877458612471 160.46598498773128,263.5583908384309 160.59594213717705,263.3054502502613 160.78279656133623,263.5014115200558 161.05284325148895,263.8831196246636 162.9159315896635,266.24532053758065 163.4161517538684,267.0988206798792 163.74547498474965,267.65942497407104 164.09986255216003,268.15398412602497 164.92940594724618,268.8194402112151 165.22000457305785,269.1088902258501 165.22000457305785,269.3994068079709 165.0752795657841,269.6888568225767 164.78357335056828,270.16745848366594 164.76646724858517,270.19482004257765 164.54540062034323,270.5560172334449 164.11811726540728,271.0095545579175 162.70622800766685,272.30974137951773 162.29490214356645,272.6880036506246 162.9352938921983,273.17005114518565 163.53696103576056,273.57112155235745 164.0987549628725,273.94491244425006 166.18172029628144,275.33280393297633 166.70130276290453,275.9298766317735 166.58393931457164,276.589671704771 165.47634997292673,278.95978983040317 165.30089961687287,279.2617925242327 165.1493649862006,280.87075064120097 164.77216928257954,281.48492944203946 164.45207596285536,282.0047580397352 164.29356762146114,282.2608983304498 164.01084518659212,283.89040838296035 163.96654161299162,284.1456872152851 163.8901999920234,285.2395752665587 163.86513565549424,285.96886131529504 163.61330265661218,286.44061233118407 163.13810580719303,289.06715790031774 163.0218909700077,289.4933336658787 162.88401660787585,289.9935538300253 162.98427395422564,290.63509418980465 163.03099781570128,290.93250243895653 163.11423110355483,291.4589355508673 163.16206255443464,291.76430203453606 163.31363820696689,293.0952552267472 163.3637668801418,293.674114234128 163.99275456066832,294.19488633384606 164.00186140636194,294.20284456839215 164.54650820974737,294.65408467054056 164.67187091448633,295.6591194435114 164.89753198731853,296.3633411556603 165.12651582824654,296.87151955432375 165.436517778453,297.31254522143274 165.5515840044908,297.44471754954105 165.75328833019796,298.02242794577427 166.1304840337024,298.7015853213357 166.43240468389936,299.37959408574955 166.82096343364913,300.1179869801795 167.17420239002857,301.0705548358203 166.9178159682997,301.873926304944 166.70019517361698,302.5541912698513 166.40848895851778,302.7661510523705 165.86839557797916,303.1604528580038 165.5720538964297,303.3757764303914 165.49690190846908,303.46918313154094 165.19604782581624,303.8463788351037 165.29290036046677,304.2851072798884 165.34877208949607,304.4332370988614 165.5720538964297,305.0200953626191 166.15550734848816,305.81317035307075 166.90641190019437,306.27696313441373 167.73484770599296,306.68488418675656 168.2966416332215,307.1076141188165 168.83903223605523,307.58966161340675 169.62185176954912,308.8920636136986 170.52548058505175,310.1831025677743 171.39034377350822,311.62116375150634 171.73447588419404,312.0393812825504 172.29512120015843,312.7230510591278 173.13947347493254,312.33904573219564 173.58160673141646,312.1464482522404 174.08071930621722,311.763591536485 174.75298501477673,311.2257543565272 176.4428791973325,310.3437850659711 176.9602464853805,310.1523772189942 177.34421079042346,309.94041743647506 178.13162476874075,309.6726269467574 178.69793109683948,309.27151551778394 179.1286602853347,309.0287893646538 179.7816047131028,308.7826583998535 180.37412398899485,308.6345696026822 180.51544418468595,308.696102343875 181.0429848859717,308.9273834071564 181.44528594798192,309.1028747850703 181.76660992245706,309.2441949806739 182.67934558365334,309.01057567326654 183.39378173084168,309.01057567326654 183.98519341744617,309.423091170287 184.24387706147016,309.6030949492169 185.13725042013164,310.3585939456882 185.55538590751394,312.05533877344425 185.62606651623122,312.4940261963689 185.66823695486005,312.7515612292162 185.7559826437004,312.95322453306335 185.89385700594883,313.27339989644923 185.95309252470074,313.40446463521175 186.44650306550713,314.4995423194638 186.56727132565587,314.8049088031326 186.784933142082,315.3530014399607 187.2703854484589,316.1347133841962 187.8788622151865,317.1078741972102 188.5124033186764,317.806311831703 188.80546325410663,318.07525093256817 189.4957785667299,318.7087920359998 189.53339558251196,318.7400506685228 191.46712350754376,320.3428555113572 191.97989635088493,320.9490760776788 192.21121843608466,321.06754711541583 192.61688328781753,321.27495347508824 193.5603853195373,320.506942821224 194.34205624200024,320.00897885759997 194.62695283381754,319.59305854890937 195.98863137477963,318.5082773433293 196.3122525716665,318.3065730176513 196.9731552339807,318.6301942145673 197.11562404081934,318.8159410493515 197.37086185128408,319.14981770310874 197.63295030700735,319.49165259138283 195.63883825195947,320.8248619841165 193.62876870607604,322.6742490318615 194.70784787751595,323.52664158484345 195.88037477202377,324.4154204987689 194.40929101727482,325.48313662410925 193.87030522614035,325.6985012182986 192.93931485181344,326.1428906752759 191.14690712235614,326.93826288805184 190.57719598244154,327.3484811627481 190.0108486324828,327.62997294283696 189.53339558251196,327.99490311999205 188.0030352870345,329.16484563938866 187.61447653716814,329.20246265517073 186.99344709118768,329.2639953963635 185.13495319771994,329.44514778647005 184.5708620481963,329.4998298824917 183.61944280379046,329.593277605443 183.27301347080953,329.93970693842397 180.96094123100912,331.9304141818017 180.3923787022421,332.46369793888357 179.82717996343092,332.87391621357983 179.50130256599235,333.02319464372954 179.3246625769309,333.1052382986629 178.1543918829748,334.1364449975671 177.05705799817105,335.1050113659326 175.23158667577852,336.2969415848352 172.95032182847825,337.9993474247839 172.69848882959616,338.2785009606885 173.00619355750752,338.3765021065158 173.69097092345987,338.44258827055535 173.77990624530779,338.42892800201497 174.20829718964788,338.3650980384688 175.67486854341,337.97428308819644 176.14091752539213,337.9127503469745 176.39615533585686,337.9879433567369 176.4053032032939,337.99019955723026 176.83599136992908,338.12241290716946 177.22684734197395,338.3434795354114 178.02681399954415,338.79697583805324 178.57256839210052,339.1057881552521 179.2027457057512,339.3257061722882 180.39578351394135,339.65843421489785 181.1558359333178,339.88864871063515 182.19389327739302,339.98775744580826 182.81266652293837,339.9000117568513 183.16135205635442,339.69830743120247 183.27760791551634,339.6504349585501 183.58523059959109,339.5251542974437 184.3794542011903,339.3599183764002 184.9537597858117,339.19127764368653 185.48819215409938,338.9838712840141 186.27101168759327,338.40956569945104 186.62084583227346,338.1098602279749 187.76145774499358,337.131038402739 188.440615120555,336.90771557400365 188.65487212551506,336.8461828328109 188.8269176698697,336.7972027708127 189.22458326531304,336.6319668497691 189.53339558251196,336.6559646188416 190.85294470670522,336.75843714385394 190.94294659609727,336.7663953783709 191.6198067493636,336.83137395309376 192.68296945194456,337.0626960381769 193.6173236161107,337.2643593420241 193.9626453596875,337.3395523517573 194.11077517877712,337.37146733354496 194.24979815205648,337.39427546960985 195.47926334313772,337.59253396175774 196.03190940269602,337.72470628986605 196.71562020122084,337.8796867540393 197.01302845031444,338.01071047097093 197.44831106153984,338.20215933977863 198.14338490619338,338.5656537529701 199.0356506754507,339.02604172264296 200.1967735019698,339.6242630326168 200.74146132698206,339.91256443607506 202.18637315603087,340.5495513729785 203.3680068962323,340.9745785273919 204.01980271285288,341.10670983366936 203.9377590578903,341.659396915146 203.90358787566754,341.88727316672816 203.85912021462698,342.1972340950746 205.44416260624274,342.4479184827508 206.8913306356101,342.44676987157413 208.05819651798353,342.4456622822283 209.26829940652996,342.253064802273 209.32072530188339,341.9636558094689 209.36749018521905,341.7015673537748 210.07507568726547,341.64573664660554 210.2220568950909,341.63433257855854 211.20202733144518,341.5397362444305 211.77633291594998,341.4850541484088 212.13182807288112,341.4258186295403 213.44231137324078,341.20475200129835 213.8798912067613,340.85036443380045 214.3174300185384,340.49712547747936 216.48473622908844,340.5643602526956 217.7974347081398,340.6452552964815 219.33800943871503,340.74095921995536 223.7182381321198,341.25783424606215 223.79917419767824,341.26743335369696 226.95330148995765,341.76650490666685 227.14015591411683,341.65599210347585 227.71790733218089,339.42711212981476 228.5314932363149,339.63792330115723 229.30409833482764,339.847626883183 231.29361594516868,340.30112318585395 234.19591023856603,341.24921966228055 235.3832460128784,341.548884111955 237.4924653158241,342.0114872602904 238.43141392469704,342.2974914414244 238.43252151410118,342.2974914414244 241.06936356181944,343.2136729360925 243.91008409219313,344.1241113749062 242.7523660774899,345.64647241409415 242.51878779185506,346.02251950650935 242.27946645036587,346.3564371820974 242.82534390850228,346.65380440941846 243.1478164942416,346.8292547654723 243.89872104606442,347.01615021143317 244.29753525265534,347.1597266075594 244.6234126500939,347.2759824666048 245.37210202322507,347.54492156749905 246.502458479104,347.9494378081718 246.95369858128157,348.11122789568526 247.74792218288079,348.42004021288415 248.20031089620588,348.6741704340322 248.27324770535824,348.7334059529007 248.51023080269232,348.9271110222018 248.85206569096644,349.25869045363476 249.0731323192084,349.6221848668262 249.89246127919677,350.3024498317335 250.17165583701973,350.53381293867665 250.41548957949573,350.73662485367134 250.92030418829083,351.15599099586296 251.33622449698146,351.45335822318395 251.64503681418037,351.6744248514259 251.97091421161895,351.90689554768574 252.30934428819378,352.14843206780836 253.4191898302738,351.6174455330508 254.86635785975776,350.661431843909 255.5523248587177,350.7536899338819 256.5813163789593,351.2265895609476 257.90312170358766,352.17763960896315 258.0177777113751,352.2601345040069 259.0836478545015,353.0269965466944 260.1239613990119,353.82921940467054 260.613967128119,354.07190453596985 261.7078551793635,354.8296597329637 260.3894956882944,356.41470212452117 260.73703261056284,356.6494700431053 262.21607459997443,357.64765417090507 262.96476397310556,358.1570222025762 263.06727751989047,358.2254055889692 264.0370335212636,358.8851596401358 264.58057273524486,359.39908109465364 265.5707986285569,360.00870647267453 266.38323592154336,360.3129243451666 267.065757086944,360.8598683707889 267.6526153507017,360.4029672564478 268.0035570846694,360.4348412164046 268.5050079036253,360.4986711799508 268.82399363406194,360.9670173841406 269.0587615525877,361.2222551946636 269.6182582574046,361.67464390798875 270.01822107525965,361.9823076139818 270.58341981418744,362.30133436622015 271.14857753113864,362.4825277781284 272.1262917670578,362.54065570765107 273.5198852898076,362.6226583407536 273.54839545989597,362.6375082423016 274.51581321711393,363.1457276628251 274.97956497656776,363.3895614053011 274.5386213530914,363.38160317075506 273.490267530315,363.363348457537 272.2949735215731,363.27794101273514 271.5349211021967,363.2243254842576 271.01185178015436,363.18674949027724 270.5583554775417,363.1548345085187 269.88375152482706,363.1070030576972 269.15446547609076,363.0556847515148 268.3112618124642,362.9953006214987 267.894192892626,363.2630911112163 267.66857284153724,363.6129252558382 267.2093745049302,364.39574478941955 267.1717574890316,364.4595747529657 266.9792010308781,365.1477979523899 265.6562470951021,367.148760652638 266.54162119735753,367.5384680135936 267.35180228979226,367.6501294279613 269.77664353333535,367.9270677852034 270.7452099015843,368.0307299432233 270.3201827472,368.6084813612874 270.1458399805503,368.84431584738644 269.72159224080673,369.60120958601965 269.2707213351361,370.40429390235647 268.7351403557009,371.3603486133291 268.36709251963345,372.01669785282564 268.07993972738103,372.5283631068501 268.5756474905991,373.28607728201314 268.62347894124576,373.36016270240054 268.98241993173616,373.9082553392286 270.9195936902106,374.78792740746053 271.4471754133564,375.0272487488914 271.71607349236155,375.8647914003253 271.26142857848475,376.57237690231347 270.7361440777507,377.3894086400067 272.5877873260765,378.29299643364936 273.57912080867607,378.7294686779115 277.05231587487896,380.2609775845948 278.35365130768497,382.84986511611555 278.6544643685944,383.4469788367436 278.83791398093774,383.8138780616343 279.16608860067146,384.46571490011485 280.0811214841628,384.89299825502167 280.49933901526515,385.1527894883623 280.0936331415557,385.8102873390356 279.9147369519426,386.10084494298724 279.70224388568045,386.44497705361476 279.22876995309923,387.21188011813314 279.54439189358004,387.36456335998207 281.3596077590148,388.24193820586055 281.5647168964212,388.92450039312126 281.5727161527107,388.95186195203297 281.9077414177029,390.0674095281948 283.5645309854635,390.7864401200608 284.07389901722195,391.0907400362146 284.7017380866009,391.52368440334317 284.15249683862527,392.2974381130326 283.6329143718856,393.0278317511148 282.5606448237276,394.44878683277625 283.95764315806,395.17011464699567 283.6978519247485,395.53816248303394 283.1486106767728,396.29591768002786 282.21995854660105,397.5789983995866 282.03531930113354,397.9914728747763 281.83480460843396,398.4381595540779 280.4331708075347,397.8957689512733 279.1467262981366,397.3100592986923 278.5815275593255,397.15167402284897 277.1787861690221,396.5124308853939 276.27975179822624,397.79551160495265 275.3396545780891,399.13553062102653 275.00922375780374,399.66996298928507 275.21203567279844,400.81291314621865 274.6069637176535,400.8539349736708 273.385415739375,400.9336814062799 272.1353986127514,401.04074837596994 270.9879360547728,401.0578954998422 268.9231844128676,401.169515892379 267.66972145268477,401.169515892379 267.5113361768706,401.31883534435957 266.90285941002645,401.89084370659845 266.9632435400425,402.7192795123096 267.0612446858406,404.04563825984303 267.18201294587277,404.43534562079867 267.2310340297601,404.5925822854653 267.2412894866013,404.6290096682689 267.3347372096692,404.92986375092175 267.2310340297601,405.4380831714161 266.7000474950317,405.709278472833 266.16106170389725,405.7503003002851 264.50423111427665,405.7628529794797 264.2546953378063,405.76510918000224 262.4816088891404,405.7776208373951 262.14203020130134,405.65344776563455 261.30904097277255,406.1080926794531 260.9227794454345,406.3200524620014 261.5027460420737,407.28291679634344 262.32888462546055,408.1489696178366 262.6456961990655,408.48169766044623 263.1607662647018,408.92153369454763 263.80456282503286,409.1687722486937 264.1042682965382,409.5402659182621 264.3150794678224,409.80235437395623 264.1418442904602,410.1293803825132 263.7509883182987,410.86547605461885 264.5189989722212,411.12415969864287 265.0728346647871,411.2256066779711 265.8271850501692,411.2187560327709 266.47208919978783,411.13896857836 267.55580383779454,411.017051707122 267.7506164964998,411.54693065250456 267.9363633312548,412.2260470062643 266.8025610418166,412.38213505978337 266.02084909761027,412.466475937041 265.0226649697522,412.54851959197447 262.7972718514812,412.4243054984122 261.8901972025359,413.3427842154337 261.500489841522,413.7358553662285 261.3649127018018,415.0166798852648 261.34555039926704,415.19442746367207 261.29763690466723,415.6456675658496 261.24184721935796,416.1789513229314 261.10167563493104,417.49735183591883 261.29763690466723,417.861994860287 261.5062328974929,418.2517022212426 261.68508806512943,418.58557887499984 261.86398425474255,418.91830691760947 260.20830227626954,419.6931682166447 259.3628013903479,420.02478866990856 258.73951574381573,420.2697710235321 258.4910875566329,420.56262584983716 258.6381918299218,420.6298196032226 260.74839565680816,421.5938325487413 263.5789017520841,422.60916380041334 264.8665358944897,423.02619169844985 265.28590203673957,423.1629584712358 265.9969743939721,423.8113084543554 265.7838660003928,424.4391885455944 265.6904592991849,425.8452937257079 265.93540063094844,426.2304476638167 266.6669839020965,427.3779102217662 267.5306984794054,428.4649886496705 267.3084832400159,429.30138268992766 267.33133239796996,429.50538423792995 267.339249610656,429.57487521363964 267.38822967268334,430.02152087113956 269.18523184673086,432.3050829407932 269.4553195587436,433.0548799032702 267.0840118000747,434.2251505972846 266.6737935253784,434.51455959005955 265.66190810723646,435.22792916973293 265.2300713295703,435.4626560665153 264.5634256114018,435.9936426012729 263.82962716156203,436.32066860982985 263.70196723452796,436.4255204008573 264.86542830520216,438.0515846198669 265.5536925263406,438.17465010228165 266.845880091593,437.3165965371071 267.7267007711182,436.8767605030057 268.27483442968975,436.5873104883999 269.39829921856676,435.9959398235971 270.76461322609566,435.36465492068805 271.26253616788887,435.1606943945166 275.0981180580248,440.4251485790001 275.64050866074194,441.1692435074536 279.0031088801504,445.6976020198605 279.1239591839026,445.85939210737394 278.9393199384351,445.9881596238122 276.5897127265727,446.7550626883305 276.07119682737715,446.8667241026982 275.6348066267476,446.96017182567863 275.54021029253215,446.98068273939015 276.1395802136827,447.89337737875553 275.3020375623071,448.42895835816165 273.7842299459659,449.1878621663322 272.24706002708996,449.9182558044144 271.1304048616114,450.45268817267294 270.1366921129967,451.00533423231866 269.6626848965851,451.3221458058362 269.1510606643915,451.8690898314876 268.396710279126,452.5334383273319 270.16975570593195,454.3281022572534 270.6310461557672,454.8147031746613 271.2716430135825,455.4904147167218 267.94547017694845,457.9004470804894 267.62529481350424,458.1363225884194 267.5455073590934,458.19559912911876 266.3479161280564,459.07641980852736 265.8282926394567,459.46042513545945 265.233476141153,459.83072917202026 264.1338450340541,460.61358972740334 263.6792001201773,460.2420960578641 262.3118195452209,458.8199923650259 261.25210267631576,457.84576498446773 260.22200356666997,457.5278047997735 259.7183375690224,457.37171674625444 259.71944515842654,457.3648661010542 259.76846624219735,456.9831579964755 260.2664302058505,455.1793461990295 260.3075340769352,454.8147031746613 260.35643209524255,454.38056917458346 260.5934562144366,453.8848614114528 260.95924784995236,452.5516520187191 261.1689104102056,451.78589756537747 260.58209316819136,451.33465746322906 259.44714226760556,450.71933005121383 258.28938323104234,450.09263959298244 257.90312170358766,449.8827309018023 257.51341434257375,449.67097622843744 256.11522637523376,448.9132210314435 255.67539034104496,448.6078545477456 255.40989707373905,448.4232563241381 255.40764087318735,448.42210771299057 255.26861789990795,448.3264037894876 254.5929063577892,448.05976191094663 253.92511202847308,447.7965658659067 253.50697654109078,447.43528663140694 251.2803527679522,446.17845988144313 250.77217436931784,445.78419909764074 248.02822432999125,444.2618380584527 246.99472040876284,443.6886400632355 246.40790316674858,443.28186762206934 245.70708626624065,442.9092253413534 245.04163018107965,442.6061560800089 243.2651799425745,441.5874200166667 242.6896847250621,441.20456330091133 241.68239375151043,440.6165974478078 240.5941667124003,439.98075912205195 239.4375973088446,439.30389896881474 238.00523815916526,438.46750492855756 236.3575554370983,437.5046405942447 235.7114206326121,437.32340616047645 234.68361874537806,436.7822051906794 233.9383752056896,436.3411795235705 233.68543461763656,436.3013063072659 233.18521445343166,436.2238160751793 232.99606280697736,436.22841051985694 231.9021337338729,436.2523262452677 230.7739924566856,436.32066860982985 230.09938850397097,436.2796467823777 229.20720477843366,436.224964686356 224.93978611051497,436.44373409224454 223.7182381321198,436.43774490543416 222.6129460128866,436.4323710460284 221.36973850966152,436.47564907400306 219.58192522491106,436.48930934257265 218.6304239367852,435.87972498638266 218.1108004481855,436.10645262681726 217.78717925129862,436.24207078842653 217.54560170937432,436.34232813474716 217.29717352219149,436.6249685260128 217.15019231436605,437.29382942287305 217.1399778792683,437.7108983427404 217.2185757007882,438.26009856888516 217.45559981986568,439.9282922047219 217.41117318080174,442.58679377744494 217.55700577736306,443.0949721761376 217.55700577736306,443.6362551895672 217.45559981986568,443.9746852661712 217.4362375173309,446.31633424354584 217.43283270563165,446.56016798602184 217.42823826092481,446.96813006019556 217.4236438163346,447.28604922308807 217.3906212451428,449.9832343791081 217.38040681016162,450.8013737061472 217.342789794263,451.2549110306199 216.93257151968334,451.2332515057317 215.456893320111,451.1535050731225 213.29528914355532,451.21844262601456 212.39961856259873,451.2446555737496 211.191812896464,451.5261063320076 210.69495652209835,450.7353285639094 209.53949470783024,449.4100774057217 208.9184652617332,448.69674884787923 208.5094366201611,448.28538196203544 208.2404564974359,447.9412498514079 208.00347340010183,447.6256279108688 207.04060906584724,446.59327260078794 205.90110474229806,448.1452513994102 204.14401680644428,450.1860462941029 203.47970933243084,450.89141661742843 202.96808510023723,450.4789011204079 202.48948343911883,450.0948957934758 201.90943479875963,449.62773922226444 200.98533609131806,450.9221419662085 200.4337976210473,451.5090412517971 200.2138796039529,451.7425785155719 199.12909839840202,452.60067310254817 198.32687554039674,453.26612918773833 197.04379482095453,453.93043666175174 196.05475856065007,454.4421019157762 195.42527861815321,454.8147031746613 194.9459795859976,455.09845115527276 194.50388735137366,455.40496625011826 192.88918617852192,456.3985969550421 192.29326209093065,456.7210695407814 191.78278647000118,457.01618056757985 191.566232242746,457.1437994728414 191.12984204211645,457.39907830516614 189.53339558251196,458.2672642617184 189.2713071267887,458.4097740903296 188.32099547167041,459.0695691633271 187.79111652634614,459.3624239896322 184.8751619644084,461.09104277731586 184.50937032889266,461.2494280531592 183.93506474427127,461.6744552075726 183.76757262276348,461.8533513971566 183.26275801396835,462.49489175693594 183.0940762593364,462.63391473021534 182.87760407580126,462.7820445492175 182.55057806721513,462.94953667075447 182.35227855320719,463.10792194662696 182.19508291040057,463.305072849429 181.68797107919377,463.9853378143363 180.93476930507583,464.7738593819411 180.65902058081215,465.0621607853702 180.00607615304403,465.7048497563263 179.2722366814609,466.22332463369105 178.80733631074293,466.44098645023377 178.2934148561376,466.75550080145615 177.7783858123613,467.18048693400954 177.1254413845932,467.6351728696589 176.33462259457664,468.10007324037684 175.3683124267628,468.51943938256846 174.8544319940175,468.92391460141033 174.41910836093206,469.2703439343913 174.13195556867967,469.526689334231 172.6688710702202,470.3961469674234 171.9293295646427,470.89296231989994 171.61026179060264,471.1083269140892 170.60526803946263,471.74757005154436 168.46983578884024,473.1491628306419 167.88642335852524,473.563934528185 166.92696383585331,474.17700573967767 166.08827257321354,474.7626743704569 165.5914572208245,475.07608113230435 164.71518996414613,475.5170247557807 164.32433399210126,475.78141043379907 163.67028197504558,476.1938849089887 162.86691050577616,476.71121117520585 162.2960097329706,477.07930003307496 162.07953754943546,477.1921100586194 161.89038590298117,477.2901112044175 160.92292712390318,477.6342022932433 160.34410913841157,477.72084039285437 159.55443895965917,477.9350153540653 159.07924211012343,478.0364623333935 158.55166038709427,478.247273504736 157.00878843422393,478.7725990273009 157.50560378672955,479.7320585499728 157.6457753711565,479.9303170421207 157.86684199939847,480.2402369486363 158.00816219497298,480.4875165246133 156.13933080106065,481.2430155210846 155.3485530329041,481.5398494646627 154.92803827950667,481.6976604349323 154.48820224543442,481.88340726971643 153.9435144203056,482.0451973572299 153.5344857786169,482.16600663912203 151.99382900443825,482.7243547327913 151.40586315127644,483.09925321402983 150.57631975630687,483.68721906713336 150.13537613283052,483.9025836613518 149.51204946443835,484.4153975265238 149.06191695154837,484.7150619761982 148.11160529643007,485.28821894958463 147.4792128042043,485.78733152438537 146.92537711152184,486.31716944796625 146.18472801665678,487.08066770078534 145.73804133732605,487.53986603747984 145.35399498856307,488.216726190717 144.81710131065685,488.9995457242692 144.7318579531785,489.12375981786056 144.03908133082007,490.28832847785145 142.4722526308247,492.22090779170657 141.54696429037557,493.2555603241117 141.24611020772272,493.5416055270474 140.52141860357662,494.22753150414735 139.5551494576228,495.03545639614697 139.2508905632707,495.41946172304995 138.78709778195687,495.8251265748994 138.21619700915133,496.214833935855 136.21527533070494,497.44774496040804 135.77773651892784,497.7166840612732 134.77951136932631,498.1679241634507 134.0456718976266,498.50065220603125 133.61264548695289,498.69665449768576 132.8059102279608,499.0407455864824 132.03785855217828,499.26636563754204 131.19125007696906,499.4919856886308 130.54741249489456,499.593432667959 130.14064005364096,499.7062426935034 129.6663867063025,499.77975380831697 128.23529923323414,500 127.66517787518582,499.32904698994065 127.1315659433988,498.66818534939904 126.71917351187088,498.2275288787387 125.99148731439243,497.3062606774809 125.19098737310848,496.0644068945286 125.021239051049,494.92289250155864 121.16366946155283,495.5099148526397 118.83559870905688,495.864179354645 118.0473232723789,494.28188542555125 115.46385062209477,494.1817511446941 115.00301141236984,494.5623106381252 114.15394162730888,495.3834855803858 113.25105120482006,496.1863647875974 109.982965275907,493.8606322792566 109.5522360875284,493.49828647724183 108.94716413238348,493.05500460961036 108.23498418563024,492.5319763093989 106.98381844785912,491.63179332742635 106.88126387909762,491.55655929586226 103.44338860638165,489.046269585774 103.37968170826974,488.9995457242692 101.53357640673144,487.6446768066473 100.66756460712742,487.00768986974384 100.26989901156745,486.71598365461546 100.22887718408616,486.6863658951812 99.78223152661543,486.48355398015735 96.73176639250167,485.21532316214655 96.2668249999237,485.0215770710146 95.63554009710207,484.765190649344 94.4094797177201,484.26722668571995 92.29119459082423,483.3408307560124 89.67601206793589,482.196773009733 88.15020519518863,481.52221007884924 88.14450316119427,481.51991285649586 88.19122702266992,480.99688455628433 88.20837414651302,480.80203087580657 88.30748288171527,479.69214431183735 88.85557551854336,478.92068782447217 90.0941885771782,477.03027894924594 90.21614647021792,476.8445731362926 89.6873751141812,476.1141384764087 88.93080955010743,475.2880409148527 87.57589961068382,474.0425361892451 86.97882691182838,473.3803618502616Z"/></svg>