<svg xmlns="http://www.w3.org/2000/svg" width="500" height="500" viewBox="0 0 500 500"><path d="M442.079479207355,156.67678632866924 442.0758163062464,157.3272026424891 442.0719379404027,158.13117351455128 441.48731020248005,158.15315092089693 441.09236328225927,158.16715613087112 440.3122371779713,158.09131253243874 439.0055151799196,158.18503970663798 437.9501687448372,158.3566214837358 437.6249605879528,158.4084766713053 436.32218877739115,158.52023106446214 433.5012522093634,158.9969827750716 430.7599657843225,159.68532088813316 430.7140717886072,159.69731509359013 430.67018879756233,159.715198669357 429.46322698715943,160.21996079981278 428.71312230718405,160.36561498317687 428.5115191057737,160.40554778688477 426.5345580350603,161.1935742661019 426.44672023132404,161.2294850608264 425.9719077033813,161.41902223528643 424.61929170981847,162.16316572335657 423.4680634529309,162.79562663981423 422.98930073790626,163.00706939912664 422.66610358548803,163.1507125779735 422.360861830381,163.142740381551 421.06211202875176,163.1127907787318 420.8246698539572,163.06431120588948 419.4201986729269,162.77759942090765 416.3378315195989,162.37460848261796 413.0499827988127,162.1053493438308 411.29631504978,162.2569647191512 410.288873614879,162.31277009410874 409.11372876872383,162.59208425537997 408.71669902218633,162.77961042537385 404.8323720014155,164.60711076832172 403.0427934575562,165.6903958016551 400.52113745288324,166.90339062545655 398.3225349573357,167.79512747976162 395.9245557295791,168.49344879376292 395.3420108177691,169.3313912776277 394.9529532678582,169.89195878309204 394.82331529898556,171.19674159817086 392.00625709680145,172.48356901593849 390.6555802860584,173.1239303072743 389.3109364889181,173.608797857497 388.3174284423959,174.27307573810032 388.1518078572544,174.38483013120614 387.1662720069506,175.0452296460168 386.04506517457963,175.67158572737839 385.39270967778685,176.1065372729535 385.07346271265465,176.56540540779608 384.8520367525556,177.32951529769466 384.49695081444736,178.22527416103418 384.349285626617,179.73553854346912 384.610644390475,180.40584943757307 385.1133955166177,181.49516748440712 385.18715628888646,183.58991596162494 385.21710589155254,184.45579704374063 385.3228272711577,187.43445382203177 385.3547878784941,188.36009046654408 385.49038703932314,189.9780872331014 386.6416152962107,191.35663082055106 388.8700237515398,194.03004584378618 389.6361446458025,194.947710291876 389.28098688604786,196.06891712440006 389.03162232774895,196.86096561260064 388.1917406608092,197.77475169489776 388.2117070625866,198.44506258900174 388.9778279572576,198.7822649513431 389.53437345368746,198.94580271047408 390.1907509592085,199.13735088945137 393.40677809074987,200.64962627640352 394.7514937095366,201.39570894739552 395.72309617125745,201.938392877093 396.82225377573843,202.34935601180518 399.54752398669615,203.73594361722166 398.8392912932995,205.5693333305305 398.5021607525024,206.63071277906255 397.60633006751647,208.42021950122438 396.2616862703762,211.37689887311882 396.1120818995219,212.0472097672228 395.6093307735834,212.62580449164474 395.26817822385397,213.46769716289757 394.5379681240095,215.27523110396595 390.9767664340105,213.93460931575802 390.17279556189726,213.6333177480901 388.9797671400774,213.59740695341665 389.12147113595137,214.1999182671061 389.25915312289294,214.79043537533863 389.396332358718,216.52808690993098 389.5363844581537,218.30373206530936 389.7039442263191,219.49676048728236 389.7797878247004,221.32821101766933 390.0032247892657,224.57210492566213 390.76532367480013,226.07834729911366 391.3100186089638,227.1556711404907 392.0182513023605,230.47346946404508 391.96237410575657,230.55132406699468 391.64916015422705,231.0001371793022 393.66418666732187,231.76424706920076 395.80877932743886,232.4924461644259 395.25022282654277,233.144873482763 393.849630010948,236.0436646535873 393.4587050998637,236.71397554769126 393.60622664460533,237.42019723651973 394.6896553209763,237.34844746866614 395.80877932743886,237.9628811662172 396.0223049127618,238.90051201618647 396.41330164569655,240.60828576955498 397.1015679371117,242.5295132867021 397.4567256968664,243.4991047439568 397.70407925090325,244.50661800045316 398.13709161350545,246.27824114679711 399.3240870219268,249.4962074610562 400.4073720552091,251.88628631398564 400.5889370333998,252.83390036484363 401.8677922546939,256.5307012158248 402.0872072103267,257.1671841413169 402.0572576074565,257.2109953108685 401.58244507992197,257.87541683461154 400.50109922945944,257.85738961570496 399.0786726507097,258.0469986117604 398.9649790748862,258.06294300460536 397.71808446072436,258.0609320001392 396.42730685551766,258.2125473754086 395.5693979698245,258.4359843400759 394.96092546428076,258.7891310953133 393.877568609352,259.6889119676363 392.7544225939571,260.55069921917317 392.13201670003457,261.1073883587938 390.51595911629704,262.70541872352266 390.38035995546807,262.83907870148084 389.801765230944,262.5598363617539 389.39475228372197,262.46000435245867 387.58527915973167,262.01313042307305 386.92890165400655,261.85153184686396 385.1952003067512,261.9113592308559 383.67294171891035,261.9652254228916 380.8759217403542,262.0949352134107 377.9571641677015,262.2445395842139 376.81397992867863,262.41217117392364 375.45734192618346,262.4500929731143 373.9829883383199,262.711379915479 360.9733692728996,264.3206144481158 359.935906413482,264.4491032716157 359.1139801442617,264.6166630397811 357.80919732902976,264.80217820525775 356.3527991386816,265.21321316151426 354.2759342372306,265.62417629622644 350.28588583665044,265.9034186359023 348.60813350764545,266.05309482830086 346.948192932863,266.28450398939066 341.9086874675103,266.7313779188274 342.16602422243585,267.32792804061154 342.3695666070742,267.80080138537727 342.51320978576797,268.13189891262266 344.32663309724836,270.9748847084894 344.6259854820455,271.4356920262539 347.74627443466625,276.23380512942396 347.8411507542383,276.3794593127881 348.09733836384214,276.772467050138 349.12675720498675,278.3565640265391 349.43594914758387,278.8333157371486 350.9542575479346,281.03385741556696 350.18016445704524,282.5381606060966 349.6274973264591,283.61347344295643 347.4609272598944,284.6728418870223 342.5111987813018,287.13668151227154 340.9510902158146,287.92873000047206 338.3854793982462,289.23150181108474 335.1395744856851,290.87140416244335 333.8826248491924,291.3602937216495 330.542992762381,291.868934217949 330.6845531153705,292.7188709072197 330.9360004999861,294.23904666904997 331.0736106650772,295.0690169564412 331.82967653721306,299.5977272777355 330.31948397616935,299.763347862928 320.76319057358813,300.7289891327436 316.5491306354756,301.18304522110475 316.0409928903437,301.2376296290941 314.1636483643946,299.89506865791327 313.13020751411347,299.4660783042945 312.1645662443489,299.2067305448517 310.3012269282209,298.6241856330417 305.38345905696474,297.2236646392464 304.06668203658205,296.9802612726486 303.3605321692979,297.0061888664333 302.38892970737294,296.90247849129435 301.1219968699915,296.60901547690924 299.66760968410944,296.27202857935396 298.38085408783513,295.8051882480889 296.8705897055533,295.39616429629854 295.93690904292106,295.3762697160144 294.3788114819001,295.00114555443133 294.1134307091097,294.94735118394 292.5154721659762,294.63004340188274 292.4096071430782,294.5981546161927 291.5956530700763,294.3607842630955 290.4246020545,294.01560970433167 289.0818974401795,293.7362955430604 288.18613857683994,293.7362955430604 285.7103047462358,293.5867629938526 284.5671923288594,293.53081397570435 283.50581288037836,293.67050696716313 281.5746021622915,293.9238217130543 277.20741859550895,293.830094538855 275.88274120014603,293.7003847483359 275.5196112439689,293.71640096277633 274.18495064792137,293.77421734225106 272.78636883679275,294.1593247047739 271.37392545934,294.74380879950576 267.553376009745,296.32589477138964 265.88754606444854,297.13589865695246 265.00974259862437,297.45313461746537 263.64707158232227,297.9179639442133 262.72337412078286,297.8920363504285 262.3224660086058,297.8800421449716 259.9243431375564,298.99528778559034 258.6295435234173,299.4282283266482 257.3886101014159,299.93492964007686 256.5667556534338,300.32599819450496 254.38416937258182,301.3134732275265 253.30282352211927,301.7423917595499 252.37108204251092,301.9838559432258 250.24437295805873,302.50650164944847 248.4827330123994,303.17293417775977 248.32120625783668,303.2327615617518 245.28674410469006,305.10608407876845 243.96199488768073,305.46124183847206 241.27069628872977,305.7211641705758 238.17834593430888,306.0197983394192 233.0211967056425,306.4866386706843 229.62367641796513,306.600332246763 229.51989422117975,305.315587655108 229.39621744405926,303.79735107625055 229.04702087626092,299.8431416487995 226.90443922061013,299.8431416487995 224.54028796136336,299.02315456229695 224.4544611620933,298.39277647190085 224.4305445728258,298.2251448821911 224.32482319322062,297.4351073985078 224.22700218839157,296.72292451777406 224.24495758570276,296.0146918244284 224.07739781753733,295.6974558639154 223.49880309321745,295.4381081045237 222.58516065421313,295.4381081045237 221.09076884292577,295.6236232700003 218.33368166812855,295.5797402788533 217.55556656810268,295.56774607339634 215.89375863194272,295.6036568681208 213.9844534986572,295.75333306051937 212.4183837414178,295.94085923051324 211.31707148897374,295.8650156320809 210.50512842064217,295.4381081045237 208.81135987714578,294.5483104330894 208.76144387249815,294.5223110177093 206.32152083651644,294.37873966045777 204.60972507406245,294.2769684682407 203.62023903667676,293.95973250777877 202.63068117744055,293.4011760067806 201.93042068046637,292.8625140861176 200.950846022323,292.070465597917 200.5398110661685,291.62359166848034 199.9813263867147,290.80360458202887 199.1033792775977,290.691850188872 198.4889455800977,290.63604481386346 197.46146592177286,291.43599367689114 196.26649831692905,290.4783964250934 194.84407173838343,289.945767517931 193.11037039112813,288.8784268774427 192.15873433118463,287.97864600511974 190.46087195710945,286.8235393823884 190.28138980523553,286.70381279280906 188.97057397660504,285.8120041169086 186.3810465697691,284.06436938137654 185.77257406422538,283.65333442512 188.08077630501768,280.8782200312631 186.16558180142223,279.55153163138294 185.30767291572906,279.12663510834295 183.4862774080303,277.72209210551324 181.62013704993805,276.3794593127881 181.41939570746803,276.23502609644316 179.10516045307304,274.56991436720244 177.30358770385888,273.7419550842774 176.10258708541232,273.5804283296637 173.56886505353395,275.25423047122956 171.6257319517386,276.18388912477633 171.03320383903988,275.76100360625355 170.4626531325848,275.3539906589805 169.9219802073535,274.9669441135358 169.1937811121794,274.44630941177934 168.3099446327525,273.7120773031046 167.88303710519529,273.35699136499636 167.39421936743142,272.9519176005941 165.95972676188455,271.7609001831383 165.57268021643986,271.1244890792416 164.97419091178486,270.5439551718978 164.55927758958254,270.2048136266345 164.43157880373377,270.10110325149554 163.63953031553322,269.65616850503176 162.24899252267767,269.1154955798005 161.4589550389433,268.8322312311412 159.4799111423214,268.1239985377955 158.16909531369092,267.65313619749594 157.5985446072358,267.4495938130617 156.9002951149319,267.19821825009245 155.5856009204577,266.8709990886398 155.0210114059589,266.56381815071296 154.06528151543662,266.0431834489565 154.48428866821774,265.4585557110339 154.89324079846372,264.8001672007405 156.92018969506293,262.1347961955232 151.94661644884923,260.5407878398288 147.32999650232546,258.9367244615993 147.3280573193015,258.9367244615993 145.6841329590105,258.4359843400759 141.9912822954684,257.6260522761595 139.91247821099353,257.1013955653686 134.83110075906208,255.44145499058612 131.34782549355694,254.64746731946371 129.9951376783477,254.28031535430316 128.57070009533592,253.91122420627175 127.55916482985613,257.8135784461533 127.23201748994778,258.00706580805246 121.7097273004339,257.13328435110964 121.56802330455992,257.1164780991712 113.89905762881646,256.21152607239 111.20179783790917,256.0439663042756 108.90350697615506,255.9023341298949 105.10895694214432,255.7846185448328 104.34290786932388,256.4030742513673 103.57678697506117,257.02354096241896 101.28237447915076,257.4105875078637 100.6599685850241,257.51429788300265 99.65446633314701,257.6100360617191 97.93872038340702,257.7756566469116 97.68138362848143,257.79562304879113 96.44253303238855,257.8933722319738 96.3606564204045,258.3522403668164 96.26886842938227,258.85894168024504 94.15020336279487,259.1961440425864 92.10723825150014,259.19808322550824 89.57351621982588,259.2000942300255 86.79840182586692,258.76119249701134 86.8762564289186,258.21850856731385 86.93608381280852,257.81953963805864 87.07972699170642,256.8518873637258 85.93855375735393,256.6205500241803 83.8697328739719,255.87640653611018 81.3399610293795,254.76116089554245 80.38631396517395,254.25639876503564 78.35340387641433,253.20902452642673 76.79121248481455,252.402970828303 75.57426747352298,251.7665597244063 74.81216858819266,251.4313683665311 74.2914620649429,251.2019702099075 73.09441163378234,250.93062824505876 72.126831181198,250.6992190839179 69.97426632445438,250.35210534223216 69.7308629579076,250.31217253852427 69.47151519831169,250.25629534192032 68.8669210586117,250.12464636853042 67.23104071638957,249.77157143488836 65.36964058308135,249.3665694921325 64.1845843574798,249.2528040944584 64.02700779040721,249.23887070613063 61.7167227232982,249.05946037575 61.17604979806692,249.0174447459295 60.47981131022924,249.3067421081405 60.17859156425874,249.39249708591723 59.80346740252256,249.5002294700396 58.61438916798863,249.89122620287236 56.61738987405554,251.6049611481972 56.004895359375304,252.1296896805324 54.63432396850126,253.13519193251156 53.6986323014028,253.4983218886377 52.69313004932159,253.79358044275395 51.30259225646602,254.08287780496494 50.76400215755146,254.30222093910447 50.56045977291309,254.38603673395934 49.949976262903185,254.73918348914574 48.866619407974426,254.89280986893235 47.04917408756166,254.71928890886164 45.71846367859602,254.3162261490276 43.629676393436576,253.7336812371666 42.52635313652629,253.34864569629016 41.57083871094323,252.8079727710589 40.17024589534843,252.0139850999875 39.485929791423374,251.62693855454285 38.731874923957825,251.39545757180665 38.71585870967054,251.3915073844186 38.26898478033594,251.25985841097764 37.45301970266374,251.36759079515107 34.885326059186866,252.0518350775828 34.13529320065371,252.16358947073968 33.97958399495864,252.1875060600072 32.78066620262468,252.07180147946227 32.24193246021319,251.90021970231342 32.682845197795615,251.41147378629805 36.676915607308196,248.43087782508505 39.87297633686804,246.3440297227454 41.7942038540662,244.64825017478282 43.84313015711311,242.84279905977598 44.152393921152516,242.6991558809291 44.722944627607625,242.4377971170201 45.71250248663971,241.7195812227347 46.70794971618582,240.78590056020448 50.75595813948255,237.30054246853572 51.36249146220648,236.6940091458118 53.02824958565243,236.5303995651365 54.01586826186472,236.43466138642003 57.269745370848305,236.11749724750246 58.357052413063045,236.00976486338004 59.037346508259844,235.9439044658874 61.7167227232982,233.89555273545034 62.5526542027478,233.25662787591986 63.54422306624607,232.76378812927464 64.54168130025839,232.04557223498924 67.6798538287481,230.65302343761644 69.30984480066031,229.87498015933903 70.25350866418128,229.49791681488514 72.82910268243425,227.62854448530751 70.77622619189722,226.07245792880374 68.88695928223963,224.58007712208465 72.40621716401357,221.34214440599712 75.89753644758761,219.00794274962058 75.43866831269398,218.40945344496555 74.99179438335938,217.82489752863833 74.7423580032099,217.49968937170289 73.5852403760124,216.93308885268684 73.0186398570474,217.28623560792428 70.63459401766964,219.18548571872574 70.13579307901709,219.91368481389983 68.76723269240512,220.78552708792083 67.11533613569156,222.1301708851632 66.4050924380328,221.76704092903708 66.00009049507278,221.55962017875913 65.10232062726706,220.49824073022705 61.7167227232982,217.69202758817818 61.650862325805555,217.6372995370491 60.44224861896438,216.52808690993098 59.929155184109256,216.05722456968246 58.81994255688906,214.834390188081 57.75461292112204,213.13056662215155 56.90467623164722,211.76193441404627 56.52359087836299,210.80232615768028 56.31214811894852,210.2676862460007 55.44827804129901,208.35040891629265 55.34456766636416,208.12093893807366 55.103175304079464,207.56037143260934 54.94954892449699,207.20729649896728 54.87571633058184,206.75640056054718 54.75196773201906,205.98834048326054 54.01989027100124,203.01765590139192 52.455759696377534,201.69491768895085 52.002852753440216,201.37976455455052 50.967400898692894,200.65752665128167 49.71655609724512,200.65752665128167 48.118525732465194,201.06655060302097 47.55594722263672,200.8191252274908 46.85159289508373,200.51187246791758 45.92796725498657,200.10694234670603 45.680541879303284,199.99920996258365 44.643150841736166,200.25848590043108 43.49996660291748,200.6894154369717 42.74583991380554,201.11438378160705 41.75434287195367,201.8166552829964 40.37572746280659,202.28550661877873 39.70347738588283,202.65660877132737 38.7976635000082,202.9917283076072 35.83897312359653,204.53589248024937 34.661960916063904,205.4775453392531 33.7881076375257,206.14785623335706 33.014014546636346,206.48505859569846 31.535710771486816,207.15738049431965 30.55412510887724,205.96040188495857 29.95161379508571,205.22818078075002 28.43739922531376,202.71040314181872 26.85531325337885,200.45003407940837 25.484741862504812,198.16977043671392 24.535116807027535,197.3257949393485 23.551520139747637,196.5856734603128 22.10108314115161,195.87147957506184 20.786388946881512,195.05946468503288 19.764870480513007,193.6709378966435 19.37394556922462,192.6434582383187 19.276124564395552,192.3841104789269 19.106553791763936,191.61597857999385 19.633293328616396,190.95557906523425 19.764870480513007,190.7920413061033 20.283709642385237,190.41504978319372 21.229312688930126,189.7247006656149 21.740036011291178,189.3535985130663 22.12104954313314,188.1625810956105 22.569934477138066,186.75602708831454 21.95147877050152,185.0882579602493 21.27118467550885,183.79546935057638 20.742577777278864,182.60840212050866 20.082178262621323,181.41932388597473 19.72903150733287,180.4078604420903 19.527571949011225,180.17645128094946 18.98481619766735,179.40429737303302 18.58390808549026,178.51457152324517 18.18881752218081,177.28161029756424 17.969330744901562,175.52198135662624 17.015755501934166,174.7319438729429 16.999811109089155,174.7180104845641 15.898570678495593,173.8062354067842 15.810804696201629,172.79276095843358 15.545423923207139,170.4625094894961 15.461679949845562,169.92786957781652 15.315953945039189,169.00618312069224 15.234149154701536,168.4854765973404 15.058617190113605,167.36225876029914 15.300009552194178,166.48646629883908 15.503480114982013,165.74031180630274 16.335461406941498,161.14171907853242 16.776374144523917,160.31577080012462 16.820257135568834,159.03892658329673 16.953917113578044,157.12373207965027 17.031484430044102,156.67678632866924 17.526478824295218,153.8238173319138 17.803997445937405,153.3753633275321 18.36442130821101,152.4652401462926 19.02482082307268,151.38992730943272 19.29012977442077,148.57294092894608 19.597310712347586,148.0441903875764 21.53649362685694,143.89455441530433 21.74197519411097,142.73937597097765 20.832282942596752,141.69401273688595 17.185398096212186,139.26407290184397 16.20180142913642,138.60963457898964 15.148394176873765,137.90743489914462 14.027187344298675,137.06345940183024 14.747342421608002,136.40119252569312 17.219297886368405,134.1248072488424 17.967391561877637,133.33074775617564 18.354438107322313,132.69835866126235 18.384387709988413,132.65045366113193 18.895111032553594,131.81251117726717 19.14849759998906,131.3057380422942 19.14849759998906,130.7970975459947 18.6397134604478,130.29032441097067 17.18733727903198,129.12523458729962 16.566870568133368,128.25935350518392 15.990286848279675,127.27783966406766 15.114494386717547,125.78351967447774 11.852573259665057,121.64774526898911 11.379771736596743,120.97944537935133 11.0526243966884,120.63635364670004 10.825093601340244,121.07920556710225 10.539890069861155,121.63783388964474 10.158804716372792,121.933092443761 9.652031581297729,121.933092443761 9.015620477349978,121.76352167112938 7.83056425174844,121.84927664890611 6.940766580569351,122.01884742153774 6.094851900231051,122.01884742153774 5.332753014900727,121.89122045713124 4.612597937591399,121.63783388964474 1.9052831241490085,119.43930321569258 1.8654221420364794,119.38385694866085 0.3810853532842329,117.3225773321291 0.04194380822512454,116.68810541115424 0,116.13752110662962 0.12575960302897263,115.58880416338047 0.5067731348709337,115.12196383211537 1.3546269980290275,114.61526251873774 1.689818355802148,114.49560775075375 1.8654221420364794,114.43355389745842 2.667453831329862,114.15043319193883 4.44295534331338,113.72747585182071 6.080918511852233,113.8092806422094 10.015161537474885,113.99285662476417 18.741484652766985,114.94643186757847 21.26120147441602,115.24772343519537 26.097236376980916,115.82028514611667 27.158615825666075,115.94791211052318 28.878311962692052,116.15339367787927 30.476270505825575,116.34293085239035 41.26157494690382,117.37443251969859 44.6930668463838,117.6716302567367 45.052174793424435,117.70359086407312 45.987794638876494,117.78539565441078 46.187315014582474,117.79336785083328 47.01527429740544,117.82927864555776 48.6910874433865,117.90110023495568 48.84069181403659,116.80582099621637 48.5534054564449,115.33548941748934 48.44567307237354,114.78677247429121 48.32594648274315,114.1703995938183 48.17232010295654,113.3843841191184 48.413784286683516,113.37432909663433 48.78689744374937,113.37835110561774 49.20784377935026,113.37835110561774 50.626320170609866,113.32448491358207 58.01798268944621,113.56192708822356 58.99949653061351,113.54993288276658 61.7167227232982,113.51438119601896 68.00506198542838,113.43221729770445 68.38420815609696,113.42819528867001 70.73234320085231,113.2965463152801 71.48848089422631,113.31644089556418 71.7359062699096,113.32247390906484 72.1368143820867,113.3124907081251 72.76532511125833,113.2965463152801 73.78468892986784,113.22472472583114 73.90247633647431,113.21675252940864 75.35090233060414,112.98735437278502 75.40670770535756,112.97931035476715 75.82571485813865,112.89951656894672 77.91450214350223,112.50449782707953 79.85174587498766,112.03564649129721 82.49908966124733,111.39327419549521 88.41237658349186,109.96883661238137 91.03192541464028,109.4301746916673 91.23733516045205,109.38823088349322 92.10924925596633,109.23065431626752 93.26837788783415,108.67604800270846 93.37603845025912,108.6241209935436 94.41946250163308,108.01967049693228 95.81603330788722,107.20959478982515 98.37769393796552,105.44206547406 99.40711277931425,104.6759445796442 99.83998149862364,104.20113205195659 101.01713734944907,102.90834344228368 101.39017868486853,102.4334590930007 103.24956781350642,100.05544626707257 103.7702743369603,99.39109656487388 105.77747229651716,96.82548574740753 106.59523291371636,95.78005069172048 106.83468609297714,95.47480893666449 108.17731888565127,93.65535261173449 109.03910613718818,92.48430159610714 110.6971075289467,90.23384391304116 111.0641158511717,89.84076435409582 111.0641158511717,89.49968362591073 110.47359874273506,89.21038626375079 103.61068676521738,85.83477156072165 103.39917218436064,85.5175356002087 103.39917218436064,85.2283100595931 104.30290324412267,83.97344324911087 105.95882180976861,81.67701974883633 106.33387414985839,80.81918268468748 106.88654128044456,79.55239349039468 107.22963301319791,79.08555315912959 107.68447913895503,78.62862420720884 108.29101246167895,78.060084505322 108.86364599424665,77.61321057588533 109.49603508905788,77.40176781662396 110.01875261697796,77.27801921806117 112.3908042507967,77.11045944994679 117.14302335835362,77.05853244078193 117.85728906535303,77.03260484699719 118.3839567805591,76.89901669063437 118.80684229918391,76.7154407080796 119.28179847001122,76.4241323413514 119.28373765303515,76.42212133688521 119.71660637234453,76.05906320230342 120.12764132870312,75.71194946061767 121.14111577700271,74.60259319035984 121.26084236663311,74.47295522143612 121.56802330455992,74.1302225966596 124.74620045845496,70.58460619147768 126.17458822875274,68.787055451349 128.22753654093617,66.8020503627708 129.45647575758264,65.66482731580636 129.6898241015943,65.50725074858067 129.88941629874253,65.37165158775167 130.86094693881702,64.71721326489735 131.41562507407352,64.34216092490963 132.60060947802864,63.83940979892006 133.56423974332702,63.43246867324232 134.31434442330243,63.113149886667806 136.03612338664513,62.38502261303804 137.1553192145499,61.910210085350435 138.03111167611203,61.539107932801805 138.03915569397682,61.537096928284576 139.74290743836193,60.986512623759964 140.00419438077762,60.902696828905086 140.9658136416098,60.59149388189279 143.26812651209218,60.008948970082784 144.153902174543,59.57801943349112 144.64674192123925,58.95151970893877 145.06926833183618,57.85911333375904 145.24329204307446,56.888660017462 145.19538704289303,56.3560311102486 144.95988405112237,53.71651587727174 144.90012848887883,53.03026059032276 144.8342680913862,52.30206149509762 144.8342680913862,52.28611710225261 144.80834049744834,51.85518756571199 144.58483171123672,51.55590700256128 140.90605807916214,50.412722763640524 137.32488998718154,49.024195975302185 136.9757652410296,48.70099882288396 136.95184865176208,48.52747786281326 137.04959783494473,48.3278856658181 137.39872258109668,47.84316175878613 138.04310588146694,46.94539189092938 138.57178460134332,46.147382210823544 138.87702635645033,45.6844920669465 139.80474582692216,44.28598207766842 140.36732433695477,43.48193938406194 140.5947833106565,42.69592390936204 140.53488410491607,41.83205383176356 140.2735971627045,40.86045136999166 140.11997078291787,40.41163825768417 139.96641622477767,40.11630788192151 139.03661392798912,39.40814701022224 138.52790161009426,39.02303964769942 138.12684985482852,38.64597630319448 137.59824295659854,38.219068775637275 137.4426055723457,37.770112020139045 137.35081758111937,37.506814073308185 137.35081758111937,36.97411334455044 137.35081758111937,36.30179144592925 137.03559262491953,35.56755933720346 135.51541686319126,33.90776240556072 129.34472136437475,27.7351277239244 129.2309559669048,27.62337333081858 127.17815129781003,25.572436023152374 124.17952811763944,22.178865922761002 124.1057673453707,21.783847180893822 123.96011316200659,21.015787103607188 123.94215776469538,20.918037920373493 123.94215776469538,20.247655204674153 124.03789594341185,19.706982279493904 124.06188435432577,19.575333306052958 124.49475307383929,18.904950590353618 125.087281186538,18.39228808501968 125.85534126382463,18.266600303535043 127.95001791949811,17.69705509936406 130.20061924580588,17.08549426542362 130.59362698300274,16.979772885767417 132.1317581420422,16.666558934288926 132.45100510717444,16.576781947528765 133.34281378322797,16.33136757646477 135.30397410398092,15.786744463845439 138.89699275822775,14.36029587621436 143.2601543158738,12.445029551023556 145.4267962040849,11.283961736335936 148.25175478084097,9.40259520135238 150.3245976733595,8.429053556658618 152.49123956157064,7.206075531917441 153.81591695693356,6.647447209374954 154.4483778733912,6.382138258026864 157.0578716820045,5.093299835742013 159.68733189259936,3.798500221602915 167.39019735849905,0 168.495459798025,0.6583885102934111 170.26112175261673,1.7117239408076004 174.4925625152775,3.770633444896313 177.14802214104836,5.063422054569217 177.17789992227216,5.073405255508949 181.39942930569063,6.449937838441365 181.41939570746803,6.457550926887026 187.55216940699182,8.760222905499349 188.28431868965606,9.03551505778717 191.22505366875652,10.060983711594758 194.94979311778448,11.361816339285538 201.03868382626334,12.596644926292935 202.65660877117426,12.804137498115225 203.51049564793507,13.15534507043079 203.5464064425575,13.199156239982404 204.01123576940742,13.743851174197106 204.18683955543764,14.214641692901292 204.00326357298493,15.307981748718747 203.32498048245844,18.589797455953267 203.12538828551433,19.559388913207947 202.89405094576472,23.45772114405509 203.05062201080835,25.86992104652093 203.1114548971355,26.815380449773016 203.16137090178313,27.54559054946435 203.20123188389567,28.610920185384465 203.24913688387298,29.8657869958667 203.07360491948918,31.072820627762862 202.73446337422592,31.88476369619648 202.32938960982366,32.21995505407167 201.19022737993737,32.425436621427764 198.64063277686037,32.55708559481768 198.46696817364995,32.81643335426049 198.49296758903006,33.24140169889583 198.5349113972552,33.89375719563756 198.87003093358604,34.12121616933932 199.77778400228047,34.04142238351889 200.56581048154862,33.98360600404412 200.70550347295642,33.97362280310439 201.87662631017915,33.839962825146216 203.19527069193936,33.811952405299905 204.36639352916208,33.89375719563756 205.6950929334574,34.19907077228892 206.45518081432152,34.336680937635144 207.1055971282945,34.707711268588405 208.07719959001537,35.26238940374284 208.08718279090405,35.268350595699154 210.94201914888396,36.620966589313014 211.58604334143047,36.97411334455044 213.35407540831216,37.94370480180512 214.32567787003302,38.7078146917037 215.61846647970592,40.28990066358758 215.91365321227784,40.649008610730284 218.73868361088444,44.1483719123222 220.77360470390613,47.84115075426891 221.48988141537174,49.139972377442454 222.43146245278012,50.22720759816389 223.1636835568866,51.02119526928631 224.31275716621934,52.54948687067884 225.13676626155217,53.285586340731115 226.26802811666238,53.92996964105034 226.37166667015495,53.989797025042336 227.57870030200007,54.46065936529086 228.81360071060286,54.93152170559041 230.10847214659248,55.28459663923247 230.96228720150276,55.60779379165069 231.9917060428515,56.13654433296935 233.08109591117883,56.6951008339675 234.9224578208591,57.325622567503274 238.59735308709,58.32710281049901 241.27069628872977,58.86978674019648 242.56750690733506,59.13308468702735 245.24882230539734,59.61788041565469 246.10069817769195,60.054842965695954 246.20440855283093,60.340118318923516 246.34209053956837,60.713159654394 246.28822434763478,62.00393725954968 246.14055915980447,63.45638526250983 245.70366843115443,64.15858494235486 245.40840987714026,64.63138646552524 245.30671050646745,64.79506786784695 244.29524706263408,65.62697733816003 241.86918559338477,67.57011044010846 241.27069628872977,67.84267337197642 240.32301041627642,68.27439294601506 239.23577519550395,68.47987451337116 238.4397765200174,68.62552869668423 237.91102597849462,68.77312206297019 237.35246947759853,69.03843101431828 233.83917278778088,70.84998696442113 230.6031792544621,72.49786151220229 229.5917158106287,73.58121836713104 228.4366091878974,75.00565595019386 227.42313473939367,76.4241323413514 227.38320193563476,77.08244903004945 227.39117413205724,77.26803601712145 227.4270849268838,78.22958345635824 227.4311069358162,78.23963847889334 227.65655490505173,78.71445100658096 228.82559491616186,78.85012198900532 229.4260952252831,78.84013878806559 230.67902285284345,78.82218339070334 230.76678883513742,78.82017238623716 232.23712041386446,78.87798876571192 233.51590381371625,78.61871282786448 234.53347209259465,78.05606249628754 235.2137661875873,77.71490994655811 236.53449339566424,77.61522158040255 238.09259095668526,77.70291574110115 239.68257730339627,77.73286534386932 240.94757095795794,77.64308835710915 241.27069628872977,77.64308835710915 241.94905120090263,77.64308835710915 242.890632238311,77.76087576376665 243.83235691880805,77.85058092898248 245.55406406050434,78.02611289351938 250.50178153463074,77.07253765070507 255.6210089640044,76.83710648058081 257.42459271768473,76.70545750713987 258.68139871108883,76.3084277608065 259.3597536230576,75.77773803651495 259.888432342934,75.01362814661637 260.5069598712169,73.54329656788934 260.81816281807613,72.98660742826871 260.9178511840786,72.80906445921458 261.5064291094913,71.98512718527297 263.50946141702707,70.0060832886511 264.481063878748,68.82899925957412 265.48053311722646,67.82945819950025 265.86355765353466,67.24088027413856 265.92345685927506,66.77016157708078 266.0472054578379,66.08785647751985 265.57433211312315,65.61103294531502 265.3588673447763,65.34163016338815 265.84165206893744,63.266776266454414 266.1968098286921,62.554593385669655 266.3383701814774,62.27326821993222 266.6256565390691,61.69869550449369 266.653595137269,61.64080730342355 267.1923288796805,61.45134195050784 267.782845987913,61.53106391478393 268.7244988469678,61.59096312037129 270.637682346097,61.85627207171938 272.9300120156907,62.38904462207249 273.86577550443553,62.60845957775637 279.1326681216395,63.53819005289852 280.505250517388,63.711711012918194 281.8918381227534,63.88530379458427 282.60603200810647,63.98305297776693 284.2758839621312,64.21051195151972 285.06391044139934,64.19650674154553 287.6913596473239,64.14666255849328 290.7358050013592,64.30021711668451 293.4151093951594,64.38805492057384 296.7369297275441,64.83097866257143 297.2216536347292,64.96061663144411 299.0332095846279,65.44742336458867 299.4940887239877,65.55113373972766 300.47560256515504,65.7706205170069 301.1219968699915,66.035929468355 302.1235489345826,66.44696442466255 302.81583723493014,66.85986674224557 304.31812942119774,67.75763661010232 304.9884403150976,68.02301738299475 305.5829794324666,68.25643754865283 306.68824187219667,68.96862042938655 308.84080672873614,70.70835479004046 309.7685261994121,71.45644846554968 310.74810085755547,72.13674256059339 314.78806526278333,74.94582856620187 315.54226377333754,75.49648469232184 315.53615893829254,75.61211745132242 315.51425335349126,76.08096878710474 315.49033676422374,76.58371991309431 315.3028105942809,77.22415302597446 315.07736262504534,78.00025712133 315.21899479927293,79.88550202215727 315.4764033758449,80.23469858995561 316.07295349768015,80.59380653709832 316.80309177567403,81.03464745298331 320.06494108128425,83.77988406561636 322.9896598456892,85.19828863517853 323.0575312478521,85.23032106411033 323.7977245483811,85.59136819412386 324.41811943783745,85.89057693567919 324.7633658181457,86.0581367037936 326.5928053441175,87.47065190304585 327.0655350457435,87.79384905546408 328.39832828061765,88.0891794311757 328.88901337955485,88.3624605789463 329.20373558443407,88.38400705577077 329.72099467151435,88.41833777555024 330.38534437386613,88.25070618578944 330.5928369455864,88.1469958107015 330.77239091910667,88.05721882389031 330.8422015040895,87.96543083261292 331.0496222543674,87.6981108767476 331.0656384688588,87.65623889011785 331.2711918577592,87.08762736663563 331.3549358311208,86.47915486104088 331.3269972327168,86.12004691389818 329.83073806025607,84.18086399938882 329.5254244835026,83.65419628413173 329.47163011301126,83.29508833698902 329.5254244835026,82.93389756378475 329.7468504438058,82.62872763032414 330.4411497486196,82.04812190138496 330.80025769586433,81.77089056617528 332.74152343648626,81.2720896276248 333.7110430720945,81.24422285091819 334.4512363728277,81.51549299417155 334.9620315168351,81.83869014658978 335.26317944115925,82.18580388832656 335.4846772231088,83.51651429719013 335.5146268257749,84.11105341445709 335.95546774171095,84.5679105448335 336.3705247070019,84.7893365050346 337.174495578911,84.90109089814042 337.84085628572893,84.98282386693374 338.69869334977574,85.01083428678005 339.40491503870624,84.80326989336238 341.6474005252987,83.19726733221098 342.06432485196717,83.0317185685628 342.5071767723694,83.14146195720242 343.6423888147656,83.47464231056037 344.6957242453818,83.44670371225841 346.2199938376889,83.30902172536784 347.97962277867794,82.52501725518516 349.3801437724222,81.71896355706146 350.3776738280809,80.84317109560139 350.73678177512153,80.34444197859524 351.2375218965939,78.26750525559994 351.431009258493,77.40966819145109 351.9677319964383,76.87696746269334 352.74376427014744,76.43411554229114 353.46406299034135,76.29442255088334 353.9907307057515,76.40617694398917 354.9323117429558,77.12640384279179 355.57080567301614,77.29202442798433 356.2072167769639,77.26401400813802 356.72591229574743,77.1642538203871 356.92737185406907,77.12640384279179 357.5379271859295,76.8211620877358 358.00871770453165,76.46205414059311 360.25113136947766,73.7467671307282 360.9733692728996,72.9741104716952 363.3833427060111,70.39514083856196 363.8302884569921,70.08587707452256 367.0262773649055,67.86737999874195 368.0238792420065,67.34071228348486 368.94154369014734,67.15713630087906 370.07474472807735,67.01155393911031 370.17852692486275,67.01952613553283 371.00440338177725,67.08531471148113 372.4249625989453,67.32275688612262 373.7456898068181,67.85136378430157 374.93663540272956,67.95320679806302 376.7202527544284,68.6135344912783 376.94763990668787,68.69735028613317 377.4923348408515,68.88688746064426 377.5022462200938,68.89090946962769 377.94315895767625,68.91877624633429 378.33221650758713,68.83697145599663 378.69132445462776,68.61554549579552 379.1621867950804,67.92325719529487 379.3576851614457,66.8618777467628 379.5153335503689,66.00202967814775 379.5153335503689,64.54369230482665 379.2759521927545,62.67029796626559 379.2499527773744,62.468766586348586 378.579570061624,60.5476108907458 377.52027343905144,57.85229028276037 377.3866134612464,57.102113781240604 377.9737549547517,55.62941209001951 378.241074910566,54.96728885712415 378.7194066963246,54.71167582033432 381.71723983899716,51.49306311181896 384.22201777023844,48.495948185049045 389.0202745165993,43.871571506684724 389.7203195486342,42.783905356391074 390.4977882540466,42.04751860000836 391.141381517123,42.37452229667493 393.54661472524634,40.17477065575459 394.5515424045646,39.370225210980536 396.66762189392284,37.773918564387394 397.54154699390335,38.73316771277653 399.0172651920279,36.97411334455044 400.56796512918515,35.12571291908537 400.1083069567935,34.95836861570606 400.88462651708824,34.16646377069624 402.0720528547756,32.620288593536834 404.86418896545905,34.46057317938866 405.9869758730302,30.228270557685537 405.82796287405023,29.624394633786125 405.0897805777833,28.582981587133528 405.80397446313634,28.335628033147675 406.65987234436335,28.19794604620608 407.87286716816476,27.86677669736535 409.67077701606615,27.295005023942068 409.6923234930437,27.288181972943395 410.4903331732006,27.288181972943395 411.0429284821404,27.39792536158302 411.1865716610383,27.541568540429896 413.34524135282686,29.706199424174812 414.3567047968644,30.48223169788395 415.65947660742603,31.96455748206794 416.5413020823867,32.40554204114366 417.28544557040584,32.433408817850264 417.97572286649137,32.40554204114366 418.6919995777528,32.2677882326067 418.99523032839363,32.239849634355764 419.6456466421625,32.648873586146095 420.3517965092425,33.08971450203108 420.8246698539572,33.386050379975806 423.43416366277467,35.0209970417133 423.7913324269955,35.38010498880497 423.8191992037531,35.76514052973242 422.7648582709038,36.97411334455044 422.28106804450954,37.52879147970488 420.8246698539572,39.20115718946546 420.371762911224,39.72128914010536 418.6919995777528,42.17126719862217 418.5263789924072,43.05302085198751 418.4984403942073,43.76922574175569 418.80174296649454,46.16526578659041 418.5523065861409,47.56980878942017 418.03167188453756,48.60518882257212 417.2056517845344,50.50644993783977 416.4495140911604,51.4601688238448 416.3497539033074,52.07065233395678 416.43953089006754,52.37783327193463 416.8046000292686,52.69313004952571 417.327389378631,52.81673500494879 418.0555884738051,52.717046638793235 419.04708551586106,52.30400067801948 420.04461557131566,52.07661352591309 420.7888308809812,52.048674927611124 420.8246698539572,52.048674927611124 421.2575385736748,52.048674927611124 421.45109775701627,52.24216228951026 421.6147073376915,52.73694121907733 421.64264593609556,53.37141314005219 421.5329025473539,53.950007864474145 421.31147658725484,54.444714972445844 420.8246698539572,54.68933930606285 420.52933947850073,54.83779453139117 417.1099136058179,56.27817650735003 414.95325491849553,58.11767105570383 412.4814430968238,61.427353539644955 411.4819020366989,62.584471166893486 411.3242536479799,63.84537099087637 411.3522640678262,64.24240073720973 411.7871437918059,64.7890348543463 412.1242743326029,65.06037681919504 412.74675204817186,65.31771357406959 413.42898532618847,65.31771357406959 414.2190228099228,65.2578861900776 414.9432717176068,65.4414621726834 416.3736704925749,66.26338844205675 418.00366146448715,67.31471286810475 418.70988315341765,67.91327399435512 419.0550577122836,68.20659336560055 419.5278592353519,68.83697145599663 418.7458657696865,75.3747470982763 418.4126135947331,76.41012713142824 418.4784739924299,76.7553735117875 419.4301818738156,77.05853244078193 420.41169571498295,77.25209162427643 420.8246698539572,77.38000587501337 422.7140085854653,77.96628550952738 423.63375585971875,78.33544847915415 423.9648533869131,78.55680261781093 424.89458386205524,79.1752583243454 425.55685073829443,79.61818206634298 426.46273644561137,80.61169011286519 426.9494713572626,81.7548743517349 428.7330887089614,84.45414514715942 428.87464906174677,84.66767073253338 429.15791341061015,85.09658926455678 430.43080743994796,86.57690404422354 431.5859858843256,87.9216196630613 434.4288280367465,91.30714574543481 437.20803626128424,95.29324395857591 438.5248851035175,96.82548574740753 439.07539758634465,97.46584703874333 439.64997030173214,98.1361579328473 440.17261600800583,98.54518188463764 443.6639352915799,99.63054974403259 449.302001883234,100.49635900455291 452.19669922332645,100.6459633753561 453.8366733963315,100.82350634441023 457.4636636623809,100.90933314378233 462.09730532583336,100.56638505427075 463.879701710564,100.43444879449936 468.1750636878976,99.54070093567705 472.70779601817526,98.2160235402631 476.5788360449767,96.82548574740753 477.02305257543577,96.66582635412027 480.67597043542304,94.67083806460235 483.13787087764837,93.32612244581561 488.02770015070456,90.27169389068749 491.26168267935304,87.70213288578206 493.049250218542,86.07214191376778 493.6537007151533,86.44726607529982 494.3587732585579,86.87891382779414 496.34306013108034,88.10713482853794 499.0543251320129,90.235783095963 499.28982812378354,90.82235001680746 499.01640333292426,92.03735584512613 496.9375992484494,93.95858336227326 493.7836977920539,96.82548574740753 493.0153504283858,97.52373523981348 493.05923341943065,97.92672617805212 494.4697376142678,99.06387740347222 499.9601390178875,101.45395625640167 500.00000000000006,101.68938742652593 499.7646406515222,102.27595434737039 498.4697692157367,104.5483176152377 495.4792618752814,109.41818048626138 492.87766844144414,113.65766526688898 492.0796587612873,114.7349891083171 491.59486303266,115.77036914146905 491.15201111225775,116.72006601843962 487.44314423422423,120.09165871248534 485.36836215888593,121.97697543490798 481.11494398998155,123.35954103134104 480.78377464114084,123.47330642901512 480.67597043542304,123.51072547708924 480.09543652807923,123.71268778657847 478.8804306998116,124.37897667169902 478.3317855781578,125.0453373783639 473.8609634578827,129.98307165139744 472.1312122981175,132.03400895906364 471.1496266355079,132.02208657520205 470.7745742954181,132.01806456621864 469.0807339304794,131.99809816433918 468.8792743721578,132.30132891492897 468.2030022860975,133.3207645552359 466.23588077338826,136.20964434671583 465.34809410647125,135.46952286768015 463.85377411683027,133.89935927965786 463.56655958068086,133.3207645552359 462.80237786923794,132.30333991939517 461.5754496570577,132.35318410249846 459.1953540049659,132.45294429019836 451.81575751313085,132.70238067024576 451.8316300843295,133.3207645552359 451.8316300843295,135.36365784488424 448.9587665071879,135.29988027345317 449.0185938912819,138.5099462128341 448.82912853831516,143.4955136644537 448.7213243325974,146.29856665661256 448.5139035825236,148.1499117672326 448.6635079531737,149.28318462675796 448.6914465513736,151.80893446211178 448.7014297524664,152.82635909795252 447.79374850521424,152.88424729902263 446.9278674230986,152.94005267398018 447.0096722134362,153.5126143849015 447.24503156191406,154.0952311183579 444.47393917729573,154.15103649331544 442.0918325207378,154.47222264121643 442.079479207355,156.67678632866924Z"/></svg>