<svg xmlns="http://www.w3.org/2000/svg" width="500" height="500" viewBox="0 0 500 500"><path d="M6.520147679157117,150.44386251272897 6.177223639805141,149.1573777834863 5.222495816999686,146.5060522758329 4.408225710139657,143.44024001891412 3.5388333944334733,140.2598405705693 2.977002530651775,137.8161927149308 2.6116511660879125,135.21226548245014 2.526967074973764,134.53755351693295 2.526874015547318,134.53724331879337 2.330766753947103,132.97536468442982 1.853402842500294,130.0035114428863 1.179590451585689,124.88524219959606 0.8779848040117165,122.90772908287933 0.729772134686937,121.93327265858157 0.22399407401585317,118.40650597162136 0,115.47770823136257 0.13955814134283978,112.08795606106233 0.3144788702013343,110.57657768322326 0.4764643368442241,109.18412927072032 0.609911574910026,108.68781225318529 0.6100356541746753,108.68737797580309 1.0658407951739794,106.9929206581381 2.0481452322775304,104.63972657895707 3.3389106958199872,102.15125509266687 4.995027523926307,99.41192637385649 5.670577024369675,98.25473222766652 6.736448839381858,97.17335050589563 8.617459315930288,95.39833473231343 10.667341657824744,93.69224498455738 13.16530520708919,91.52516978694372 15.636560696819922,89.35980067908675 17.247016359238167,88.03612319332913 17.247233497929262,88.0359370744542 18.026792433435087,87.39522282462968 18.16290737547044,87.28317925790854 19.904359710764194,85.8062949127987 22.347170031432448,84.00888283382078 23.948133630854407,82.8378848705847 23.948660967663045,82.83754365262897 24.422922897758113,82.49061805736675 27.34219755527059,80.25287972439818 30.065923307829692,78.77689495386889 32.760335336650094,77.09317049171443 34.95932992238375,75.74467715507676 35.17473150800591,75.61287396711327 35.69431338574515,75.29318376819342 36.97214358698383,74.50993347489488 39.373573476374006,73.17263829098813 39.92507474223324,72.86501479954153 43.096850682412295,70.12125024737259 43.09709884094159,70.12106412849765 44.17131498573001,69.1917725527853 51.5144183195673,61.65135218469379 55.73776594063178,56.98801952759442 55.73807613874933,56.98770932945484 56.600892253869915,56.03505983411185 57.21868286151211,55.204411265640566 59.04798330886,52.74609103819156 60.769613983235004,50.2007292137764 63.06418061474028,45.85708675559689 65.09082911615855,41.326487880857705 66.42986140968222,38.34771722088305 68.94677806501286,32.13429345859199 68.94693316402756,32.13376612176131 69.2207760785387,31.457844383523998 69.36619696471745,31.138185204420292 69.36629002405573,31.137843986464546 70.16427472890727,29.384697181469434 70.25820272440025,29.177081569086877 74.26921972144427,20.34933893673836 75.79955120534953,17.277508835991032 77.59355110485818,13.949703233431439 78.743827832617,11.81535393915801 81.53561105623787,6.323109823160196 82.12439813808258,5.288257821797678 82.12461527677367,5.2880096632904205 82.87203768538023,3.9742274980730743 83.14178598442244,3.4994382311693704 83.2313712060935,3.548573615914972 84.09818887716843,4.0267750622879595 86.88482281170307,5.2880096632904205 86.88544320802632,5.288257821797678 87.38802622791921,5.5157261148930985 90.71493225578806,6.788407027089659 90.83296264660976,6.820295395481664 90.85449039721905,6.826344259126378 91.87383249177878,7.1020483623648145 94.27185020161151,7.750021248576209 94.79661238818699,7.894790718615543 94.79676748728984,7.894883778064029 96.29849870302978,8.309246448064762 96.56647887270502,9.02270216077277 97.503959679223,9.235560121667982 98.20019939543765,9.394071369143141 98.35095568946734,9.42853438203417 99.43494307553138,9.674986801056031 101.85017678190152,10.31951648795994 102.45676923676872,10.481501954558748 105.28735824721272,10.72966046331525 110.2674962606154,11.632771316346608 110.27376226290713,11.836912709627557 110.4124828693238,13.212114105754864 110.71151387235466,13.52144368693611 110.75974968249767,13.572285161416353 111.08375163553349,13.82509664222251 113.30157524815687,14.449184271950552 117.028326673429,15.198219710843269 119.51509206991844,15.724719007013638 120.1285709234006,15.832419799824716 120.64647773119933,15.91046565083115 120.646632830214,15.91046565083115 120.99501635676974,15.963044234862195 127.02349999044147,16.154932801772908 129.72405394220078,16.221036024548685 130.79768071059232,16.221036024548685 131.69958179090355,16.170008431171468 135.63643041352063,15.55100805087527 140.28251605433252,16.337174206650605 146.4963740939617,17.478796406405454 146.49646715338812,17.478796406405454 150.6085777229076,18.23422192689863 152.79048039145664,18.26859188036321 153.93768615770193,18.207079590004764 155.58173627826886,18.362178657988597 157.073261975351,18.673214328904486 157.17755058869278,18.717169404769756 157.55236299641473,18.87571167206108 158.34594288759163,19.21178033257016 158.83276784210835,19.41768985521808 159.34115156716075,19.789090083404613 159.597933584061,19.97604649994225 159.69791044333093,20.272471838657932 159.94175719801555,20.999700348595884 160.2097063478526,22.11728219283065 160.4389117505429,23.233995482278996 160.55349894196894,23.576081986594588 160.89819111059973,24.01035937694051 161.24198370462793,24.320557512908177 161.85465604302212,24.692795276042933 162.50517255396045,24.86858455968785 163.34618174010424,25.09605285278327 165.2969557775813,25.71731767948299 165.93115586649662,25.9284385308274 166.57912875273007,26.144708671213937 167.43906002519,26.430773392190996 168.12754478793715,26.523832832985704 168.9685229543309,26.399753578585415 169.1115553148194,26.377357273189688 170.57463584292722,26.15159506982891 172.29626651730223,25.50017898431003 172.34623943697403,25.476821064679395 172.34630147665044,25.476821064679395 173.55858681178222,24.909933971215892 173.61715221975953,24.915114280096223 174.18673803709692,24.966824309362888 175.27931791155464,25.065033039199726 175.77650348383204,25.562218611521196 176.2728205014332,26.120575256223326 177.22925441392923,26.213634697018037 179.75392602272737,26.182614883434493 180.44241078547452,26.24465451062362 180.97663401520808,26.328221888444087 181.63924825343585,26.458939382930055 181.72058220466894,27.75541249216148 181.77889945420512,28.88254843898077 181.83551061405075,30.63032881622062 181.8571624439247,31.137843986464546 181.85725550335113,31.138030105339478 181.913928702785,32.46431325543432 182.54654678136257,33.38178628215863 183.06786576863058,33.80573407458209 183.38755596750636,34.06509073604747 184.03813451803293,34.34426905840956 185.52966021520322,35.02670495751198 186.06558953462735,36.422596569322415 186.63948710594843,37.912416176713975 187.02205446704974,38.470772821416105 188.13011322851614,41.79507318503589 188.2843747615297,42.256896169863744 188.62816735564607,43.373609459290044 189.2399711391877,44.73934981230335 189.62511314474395,45.68973486124282 190.1196930527282,46.9116053187753 190.88485879476897,48.27734567176657 191.15283896435608,48.8046825029072 191.4208501538695,49.300999520420206 191.44064079495004,49.68012368219197 191.45872534625187,50.01532378791463 190.80904637032788,51.38019558611948 190.4652537762115,52.403849434773115 190.23517981875682,53.02511426147284 190.8857273494452,54.421005873283264 191.23041951816415,54.91812940597241 191.30623194260525,55.44549725690716 191.42168768879569,56.09688232260988 191.9567794733818,56.687158355520175 192.43671802928355,56.92582480132448 192.5615107393674,56.98770932945484 192.56185195732314,56.9878644285136 193.14415589809687,57.276534813849935 193.83090355131526,57.61772174358498 194.36683287082755,57.64867951755824 194.80715912481818,57.42896617784218 194.86404946294314,57.4005210087797 195.04852429438614,56.98777136908716 195.04852429438614,56.98770932945484 195.16903627023635,56.718085109677276 195.32242924848555,56.56298604169344 195.74293384155743,56.656045482488146 196.54597477598057,56.37686716012606 197.00525413603742,55.84866177422105 197.42662728387367,55.93654090613543 197.96603082253165,56.048584472834534 198.04528644628027,56.06580046939401 198.19607376014815,56.09709946130097 198.1961668195746,56.09719252074946 198.3442864295611,56.127840096583135 198.6846358242818,55.575501295687516 198.9172844262796,55.19724568870217 199.33862655436582,54.6070316954242 200.21751093298013,53.55235803316498 201.4410874802252,52.21763749375725 201.62289460769867,52.06598162510294 202.70340777470517,51.162963831520074 203.54528551570152,50.41848830520648 203.96575908902338,50.046250542071725 204.88344925437264,49.20784702019905 205.83901461219244,48.649490375474876 207.1013349066724,48.18419317154541 208.2869742219469,47.6559877856404 208.6583744501114,47.47247456841025 209.16675817516378,47.22171039529448 210.39033472240888,46.508254682586475 212.800450159531,45.360521579554586 214.0240267067761,44.833184748413956 214.9175524374729,44.39794574385517 218.26682375105355,42.77545439373574 219.93931904068296,41.98876090112972 219.74715129544882,41.559632799847975 219.74631376043448,41.558795264877716 219.63945050263774,41.31926026428699 218.8088329539165,39.46923858143982 219.41973716294373,39.09442617376196 220.3365277536904,41.011636772862424 220.44686523072102,41.243416820051756 220.44854030066153,41.2451539296246 220.6450197999675,41.65700399473659 223.39976536613221,40.332644073067485 224.0460011427487,39.901809882029056 224.56558302048796,39.55544264343571 225.34278445014178,38.79458865555495 226.27511596757353,37.59858872256388 226.79128566584347,36.642992344927926 227.22640059115966,35.695150920693365 227.55297718865043,34.57763111609092 227.70717668207575,33.22653211511602 227.62965816785592,32.11754275925291 228.3680848305248,31.71257909275589 229.79871863352764,31.137843986464546 230.10776903636344,31.013764732086294 230.16037864025472,31.100806329030412 230.18258882677551,31.137843986464546 230.42659068056298,31.543676207725948 230.46362833801916,31.604878299966856 231.03495126479714,31.5790387952416 231.97159453630078,31.535952274140715 232.43515463067945,31.511818859172145 233.64145314179885,31.448042122410175 234.00336130696707,31.42912003611606 235.35359175326573,31.35755732615857 235.3757088803601,31.137843986464546 235.46129254598867,30.288242311882982 235.63965647415463,29.764379699888043 236.97006525953458,29.455019098890634 237.72400182896217,29.39812876076568 239.15953676252192,29.2904279679546 241.09827511220965,28.981966941559776 242.03923013787332,29.16467364363583 243.91248566113055,29.810909420274378 245.8072689349971,30.137454997993057 246.76457140234567,30.302046128929092 246.56986003240664,28.5494266607867 246.35957671603248,26.663235875269773 247.42631708572088,26.284111713520048 248.73346101087458,26.255666544435527 249.895835466011,26.26559288479196 250.5558750596075,26.27117645123832 251.95607842557797,26.2823746039472 252.1947758911764,27.65760701991271 253.46658824856448,27.52403570256022 255.15713706974566,27.492147334190253 255.16144882381755,27.866990761684278 255.16144882381755,27.887680977345358 255.1752526408857,29.10691475072445 255.17007233196128,29.87552369200661 255.16405448819884,30.67685853660695 255.18980093345357,31.137843986464546 255.30792438361357,33.25150306505485 256.9270035542637,33.38249973788628 256.8925405413506,36.27937808995895 257.4526032758535,36.507714937840795 258.5245549743045,36.94546654728832 258.38319768366836,38.26120296076961 258.39011510212157,38.95657412215376 258.3952643912078,39.54508202569709 258.56243016659874,40.33006942854642 260.26507671506937,40.53256677170302 260.57443731611085,40.57993402705961 262.72165983296753,40.90647960477829 265.0955441278978,41.62083489206684 265.4884721066716,41.751800545082105 266.63189345565365,41.02627812487879 267.1437203799254,40.79964736675363 267.7158498218795,40.740213403901734 268.08380685082466,40.72814669640643 266.2510632041693,43.02448145727867 266.7507924011516,43.03223641068006 266.9998194646725,43.03567960998755 267.21267742558973,43.03912280929504 268.5965023299489,43.06068157974254 270.4326891759118,43.02274434772786 270.8626548121418,43.014151859356204 270.8359467526962,43.4182469710668 270.74372484680566,44.82276209104301 273.367504759933,45.36216562967895 273.5846434551721,45.40267750621469 275.08221801594306,45.68356191833345 275.74570080893517,45.75679969823146 276.94768756598273,45.88950246079754 277.0399094717851,45.89986307853616 277.8731326847995,45.959297041388055 277.8740012395639,47.088945593096085 279.3491794949611,47.54130753476586 280.20048725927734,47.82222296670079 281.95999312594654,48.402107362056306 284.11500161610894,49.04489993938737 285.62116866527356,49.43953400793989 286.68189119119955,49.57912316912093 287.6090734195451,49.701496333764545 289.7321625214994,50.02376117720548 291.256445141804,50.01166344991605 293.85869730432205,49.941031334355266 295.34674878234665,49.85830149148302 295.93271306120715,49.898813368040805 296.0257725019357,49.90569976665578 297.0873325627879,50.10131071119739 297.25192369372394,50.13146197001655 297.5017572725091,50.17886024518931 297.63790323429447,50.97845798023885 298.7098549327455,51.10945465307028 300.16257484309267,51.16888861590014 300.9242973857378,51.21541833630851 301.5955351321093,51.15182771842147 302.6864089167883,51.0491211156158 304.2279075336304,50.822490357490636 304.2055112282567,50.5097175770019 304.17967172348733,50.15730147474181 305.6599682481326,49.942768443906076 306.1562852656456,49.870368198978326 306.82581692232657,49.72476119396873 306.77758111218355,47.619725623544205 306.78964781963475,46.984687999614536 309.0635552552951,47.42498323378901 310.46462717594176,47.63349842077415 311.31937813956546,47.76018333951167 312.00528825785767,45.764554651632864 312.40423408048207,44.602180196584605 312.8410861154152,43.35536980890742 312.9160299850037,43.142511848012205 313.0013344724411,42.899533648113994 313.20383181550955,42.32135534251516 313.3951310059793,41.77937715935816 313.4201329757343,41.707845469216835 313.7492531980181,41.69922196102902 314.13185157886943,41.68976091789298 314.53510915565386,41.675119565876614 314.98229078842127,41.659609659073816 315.59580066174163,41.63805088862632 316.0223230986641,41.62340953660995 316.3894115727567,41.61047427432822 319.26820537350557,41.5105594547347 320.48145232291637,41.514840189012446 321.50851835101724,41.51915194310635 322.53046610995824,41.52259514241384 326.65870698247153,41.451932007036895 327.4453694552834,41.451932007036895 329.3608429448331,41.451932007036895 333.4287502799139,41.39420413394168 335.7457752564693,41.36662751966563 336.43509755423077,41.3580040114778 336.3454813127215,40.894443917099146 335.8905447265747,38.55415408036164 335.7922739570835,38.04580137516949 337.0416900090979,38.10092358392748 336.7737408592609,35.26261063992029 336.7487388895059,34.9929243805104 336.73149187313027,34.813691897558 337.13391191490035,34.78009743943135 337.272632521317,34.768899286722466 338.0713927214183,34.70254790543943 339.0183345710062,34.62329228171288 339.54396531243424,34.58535504967615 340.1557380761377,34.540562438840624 340.483183228481,34.516398004055894 341.00965150483523,31.763420567258176 341.9497379756463,31.751353859762872 342.05312701438555,31.137843986464546 342.0668998116155,31.056013718194883 342.25906755684963,29.909986704897637 342.30817192175704,29.616167030519183 344.5218078595732,29.652336133166894 345.916799896781,29.675632013187244 348.2501723151094,29.651467578402514 351.54261533015335,29.61700456548944 351.5822586519027,26.22207208630888 351.5822586519027,25.680093903173923 351.91485309324406,25.666290086127812 353.2952347982958,25.6102993225834 353.6338781033259,25.596526525353454 354.92206892232525,25.543079386513945 357.3743402861516,25.44310252731014 363.20262204284234,25.12257479342001 363.4016451668532,25.088980335293364 364.2133406292583,24.950259728898743 365.8625400388233,24.722791435803323 369.17223007024285,24.55823132466141 370.0278185688809,24.51598233855282 370.1131540760683,24.511701604275075 372.2354056430083,24.41172474504923 373.0246737801133,24.374656067820975 373.31765591954354,24.319533859040945 373.5847675344544,24.26952991953096 373.5365317243114,23.0855966940352 373.5356631694588,23.058051099553268 373.50030058203134,22.184347029819296 373.478772831422,21.647518135726468 373.60114599606567,20.556675370819537 373.66318562318867,19.999993796035884 373.68989368272236,19.763064459782385 373.7174392771823,19.515774505812306 373.8458613054265,18.373190691822547 373.87253834521016,18.134524246018245 376.25675223797475,18.231895440884824 379.1450691214699,18.34933645515536 379.4147553808357,18.36025542954082 380.1041086983472,18.38870059862534 380.24025466030895,18.394749462270052 380.65815358908765,18.34390798778981 380.88134114783924,18.317199928278136 381.05281867739023,17.873430474980015 381.1725551579025,17.70198396522313 381.91445603971704,17.590808953310443 382.53140911225677,17.497749512515732 382.7028556220577,17.511553329561842 383.13282125828766,17.54514778768849 383.43268979624474,17.569250182862937 383.8298985094285,17.600269996446478 385.88586073467366,17.56841264789268 387.59108192768736,17.51068477479746 388.134766200579,17.57011873762732 388.50356076445036,17.609793079214842 388.75345638273564,17.637338673696775 388.9412813540597,17.657129314777315 389.14377869721625,17.679556640011242 389.1808473745107,17.68386839408311 389.65904882088364,17.735578423349775 389.6797390364786,17.73815306789288 390.2699840496609,17.801898784816647 390.922268689878,17.01263064768957 391.6779113491725,16.096677591847012 392.1001530517732,15.490922671950084 392.1105136695338,15.474575230177033 393.24360542059344,13.847741106147533 394.7739058846605,11.697044370123093 395.1064693062518,11.230041076436947 396.7953430574043,9.143927592306536 397.2029123882606,8.639018086399833 397.44160985394717,8.344329857256998 398.4126851185257,7.06904328070117 398.6694361155877,6.731299550273607 399.102007416199,6.1634818623913565 399.798526310693,5.2880096632904205 400.53062493139373,4.367744853331913 401.3328593506408,3.1269523095053176 401.3259729519376,2.591860524985333 401.31992408833696,2.0886571088353136 401.31818697872006,1.9714642530720354 401.3173494437939,1.8034609426446766 401.3173494437939,1.601832154274508 401.3173494437939,1.3502304461884775 401.4905330631236,1.1477331030318865 402.0238877380928,1.104646581953039 402.1988394867895,1.0900052299366698 402.50903762275715,1.1055151367394616 403.0105039292682,1.1313546414647133 403.16904619660363,1.1390785750499468 404.14877598916405,1.1882139597735073 404.96217754134784,1.229594391117713 404.994903444644,1.232262095087264 406.7113538100946,1.3743328413629252 407.01640265706425,1.442421332196764 408.1279046178381,1.6914483957396893 408.87238014410764,1.9706267181017754 409.7340485261845,2.4367614570014986 410.10110598043894,2.6349470460641804 410.6405095190969,2.8590031596682763 411.98041036738493,3.4138855852687997 413.35387465389533,3.63102428044176 414.4947523781725,3.8042389195656128 416.5256816139126,3.7783683950241986 418.5350830990434,3.922269310299151 418.70823569844674,3.7490856909914605 419.3321061895278,2.858134604881854 419.5389152867562,2.562577820952595 419.71898530470094,2.3040586944354287 419.8232428982045,2.155877044904771 420.2721926603389,1.8094787864732276 420.665958174127,1.5742555399764113 420.7865632094037,1.5027238498350857 420.92013452673416,1.4225996713000633 421.5637956588075,1.4225996713000633 421.97310209928077,1.5156591120947722 422.3013847865502,2.194651811889709 426.0634057398234,3.0511398850862452 426.2417696679894,2.6832138760233595 426.3916884270929,2.373015740077731 430.84476878765634,3.26526965833391 431.64697218706516,3.4259522927641046 433.6356834565128,3.8464568858580375 435.7114053030003,4.285046030297868 438.97453459421735,5.020898048423639 439.12190972861595,4.38499186970755 439.6233760352152,2.2161795625210514 442.01618241637345,2.039521724089712 442.85201129368096,1.915473489527623 444.8579385596661,1.6190481508119412 447.2671544222738,1.108927316230786 447.68852757011007,1.5647634770242114 448.02543376561147,1.81118487622991 448.37524420349024,2.0662608034175487 449.2679634190109,2.54101905050509 450.08390859581147,2.7607634100152767 450.82841514191915,2.7107594705052938 451.38416612226206,2.6117132056761556 452.266524720022,2.12572578608561 454.24834959085473,1.0288341575339668 454.9204248721524,0.6565963943771718 455.88377620318977,0.37654951722866326 456.69376557581614,0.2145330308136929 456.6946031107423,0.21437793175492217 457.015999399485,0.1507873138899255 457.2693382171659,0.09991481959351999 457.76909843398636,0 458.32484941432926,0 458.74709111701804,0.07925562372655905 459.0710620502157,0.3205277338680884 459.1210349698875,0.3575964111183849 459.43641341477957,0.7858249378195924 458.6626551844332,1.2941776430117404 458.5075561164053,1.39589161181043 458.326586523858,1.6698896252921844 458.13531835331463,1.961103635333413 457.7794590516589,2.1842911941510867 456.6946031107423,2.5288903033774606 456.2792788265948,2.660786550789432 455.8605113430517,2.7934893133555017 456.6946031107423,3.678174397107259 456.82730587339654,3.818880271581982 456.6946031107423,3.881943552616301 455.7838303638462,4.3151972891170285 455.50120884217665,4.6719251454710315 455.8579056787585,5.236299634023754 455.7979753988701,5.2880096632904205 455.32284491401066,5.697316103675471 454.692956579079,6.32804197353327 454.33793481252576,6.68390127510085 454.0570814202232,7.048353065040087 453.8812921366003,7.276720932716051 453.4461461914459,7.842832530841619 453.6994850091268,8.674349654099327 455.0824103387953,10.606170585400001 456.14055822017815,12.069282133257847 456.6946031107423,11.92711832755574 457.24176160286777,11.786660611588275 457.34601919628324,13.064521832665166 457.4657866966337,13.52981903659463 459.41485464424386,13.024847491077644 459.7414312418228,13.559970295413791 463.8231113741336,12.145963112463342 464.3987150352334,11.94693998845244 465.0949237316098,11.705667878288871 465.44302807979807,11.585031823218106 465.97036491091666,11.468676502425089 466.4744679016472,11.356694975336264 466.90700818242027,11.401487586171793 467.75319767748846,11.490235272872594 468.22277561571775,11.583294713667302 468.88365274441674,11.713422831690266 470.07363483351315,12.633656621832612 470.6164505516404,13.07655752034431 471.46003438232725,13.764142708510903 471.774544272455,14.020955745271385 471.9537767553853,14.55604752979137 472.05716579412456,15.165214629179623 472.1252542849364,15.946758832721468 472.20193526414187,16.833429184553328 472.25107064888743,17.399509762862735 472.2570574728998,17.980293732820833 472.26050067220734,18.284443005121748 472.26571200088176,18.771298979498717 471.99856936622086,19.42528970953866 471.7159478445513,20.13790788727641 471.40404361889307,20.925438914852684 471.15157335597655,21.1330855470514 470.4415608426201,21.582004289413693 469.9762636386245,21.87669251857857 469.3024512477099,22.409209658577492 468.8991936710136,22.72803130271094 468.63291959102895,22.938283599268924 468.40628883296995,23.002060336008853 468.04180602317047,23.1045808199396 467.57049097541244,23.236415027719246 467.1749883520955,23.348427574624235 466.7286442542543,23.473344363972746 466.2676588044188,22.79007092990006 463.933417831326,23.637097959938522 465.1681925312579,25.613742521890888 465.35601750258195,26.075596526512864 465.9100623933224,27.43528801585942 466.66834173666007,28.742431940969052 468.4382082211781,28.237491415268227 468.63896845471777,28.185812405817725 468.9638079427679,28.103082562945474 469.35586736668915,28.00310570374167 469.4816527108902,29.480021068645627 469.56525110846076,30.31581892618108 469.4999233811331,31.137843986464546 469.4954565278702,31.19386576982512 469.28607278609866,32.44154471226669 468.931950594148,32.93271244073757 468.4916243401574,33.39453542554338 467.4610530730726,34.4785228116515 467.56273602203305,35.07909742269014 467.7583469665747,36.232010834602356 467.08881530989373,36.291444797454254 467.1482802925618,36.87049165783951 468.09525316207606,36.75761055617014 468.50366002785853,36.70934372621096 468.84404044241745,36.66886286946934 469.09737926009836,38.49645722708259 469.22313358437304,39.80273259740579 469.2903845402587,40.502384493067694 469.6238165166144,40.59460639889214 469.97108332978826,44.91064122297943 469.9771321934771,46.11954539841402 469.5213270524778,46.13592386000323 469.2033429432925,46.1480215873147 467.37491105070904,46.215210503545954 467.40763695400517,46.594334665317724 467.4446746114613,47.0173828831386 467.46880802645194,47.287100162342604 467.53863362688065,48.09190922608864 467.69025847567474,48.98630351150573 468.67343146763085,49.0871179056798 468.6923845737852,49.597207720444786 468.7509810016007,51.13268849343626 472.5577945657094,50.99396788704164 473.91059965637487,51.71691566270185 474.4646445470272,52.15807945166274 474.90670791063474,52.51049555392284 475.0695309122038,54.31656216090474 475.08072906489065,54.43716719615934 475.0954014367232,54.60172730730125 478.93754656850933,54.542293344449355 479.2399587312595,54.11924512662848 479.42524007787864,53.85898889056051 479.6070472053521,53.60394398316699 479.7233715063951,53.441958516568185 480.63156960874807,53.07316395274092 480.97278755832133,52.9344433463463 481.54147380096794,52.70353185392135 481.9249097168336,52.74571880041965 482.5444374340046,53.378429938335515 483.2182808447574,54.06666654257539 483.97134885942063,54.932615658930004 484.36945714703063,55.4720191975439 484.6977398343883,56.05798347636029 484.4512874153223,56.35695243980292 484.2134895243265,56.6438857155664 484.0876731603754,56.7955415842207 483.7904413065497,56.98770932945484 483.4371566494371,57.21604617733668 482.9218865258579,57.54864061870007 483.50521412049886,59.215955599471194 483.7326824135722,60.56444893610887 484.08941026999236,60.5420526306911 484.4625165878474,60.51965632527334 484.9433236986017,60.48950506645417 485.51284747626266,60.455011033746985 485.8420297381347,60.43432081806386 486.19097162124916,60.41279306743252 486.5175482187399,61.5484904828073 486.6605805793166,62.52645214604486 486.71663338242723,62.911625171461345 486.7321122694359,63.939559754392725 486.4900026243682,64.33679948730452 486.45209641205946,64.35404650365811 486.0652172969744,64.53411652158077 485.66022261066126,64.721972512721 485.94886197618143,65.8705741705393 486.2754385736722,66.48231591447066 487.03024369786414,67.3793468840191 487.86694113002426,68.33751790617613 488.669144529433,68.66235739416017 490.3175064040718,70.25212284093936 490.56309026828524,70.76996760910575 490.99218734975085,71.66696755886008 491.44110609213516,72.86206791724855 491.9391602192651,74.20026267577992 492.56814897950596,75.99336300068599 493.0851562127021,77.68912315051958 493.17821565351886,78.61106303039656 493.2135472211963,78.95060591000725 493.2678008751899,79.48740378428393 493.2109725766532,80.85053847293797 492.5129957509098,82.82460839036928 492.50654362967697,82.83754365262897 491.9132896946576,84.02402050285167 491.49452221111443,84.33254356887882 490.1486035189758,85.4414708851096 488.3658327919922,86.22301508865145 487.31804552836996,86.67280238580015 486.9277232139775,86.9838690765322 486.56494649395677,87.28888690361954 485.5826730766914,89.16127387206832 485.0285971661127,92.2710101850362 485.0096440600465,92.37439922375337 484.87349809817294,93.14043352051446 484.17300866756284,93.42392359694843 482.7650503483012,93.99521550395433 482.5444374340046,94.15614629689178 481.60435096319344,94.84221151417663 481.08998041412866,95.16618244737424 477.820833279061,97.22214467268549 474.5663274960758,99.29442331995362 473.12905545289914,100.13022117746704 472.31825956509664,100.76957055549062 471.24894455086513,101.61312336640542 471.08435341992913,101.8518208320259 470.8844617411538,102.14046019754605 470.12103310873,102.75831284473242 469.5213270524778,103.48467279990598 469.4187755487529,103.62339340630061 469.2119664515244,103.90257172866269 468.9577590790791,104.66603138088068 468.93967452768914,105.32002211092062 469.1973250994419,106.62027963741528 469.634177134375,107.40179282114096 470.28128146566775,108.00667918625147 470.72505091905407,108.49179805107764 470.8230114903395,108.68737797580309 471.0343805002573,109.1095886586537 471.3101156232238,110.26681382465983 471.3385297725362,110.46673652327331 471.4936288405641,111.55156144435169 471.5100073020872,111.66528008099132 471.58063941769205,112.24606405094943 471.43506343241046,112.5726096286681 471.235140733797,112.90005478098936 470.12618239772803,113.9176597659983 469.74361503671486,114.5716815158544 469.71777553194556,114.82154611436758 469.6893303628831,115.09901834697298 469.5092293251883,115.52637831888777 469.3799697619297,115.98910087829617 469.5807299954694,116.71636040805029 470.2028633769335,117.76585376142917 470.2510991871647,117.92700169305772 470.63971541186663,119.21860469154839 470.8758382329219,120.52748572623088 471.22136793656705,121.05482255734947 471.1127675691534,121.32708346128041 471.20325236542703,121.78118251252303 472.03991877774894,122.6006329282634 472.1131875774851,122.67216461842676 472.47680183243205,123.50796247594018 472.05803434888895,123.50796247594018 471.640104400272,124.06545056589997 471.58585074636653,124.35669559573532 473.38670602465197,125.62763939838108 475.02300119175135,126.70042863178031 475.91140865320017,127.63787841846009 476.1259106642197,127.8645401964014 476.1733089393484,127.91538167088166 476.460273234928,128.21866238841818 476.6231272563353,128.39013991796918 476.9488042793117,129.1656352578663 477.09614839387206,129.51718280533998 477.3520618560079,129.9505916408995 478.0526133262944,131.1336563116309 478.7574455308146,131.822141074378 479.1219283405259,132.49421635576385 480.55833182885004,133.92975128934563 480.77286485970785,133.81687018765425 481.12010065313166,133.63335697042407 481.8390778926758,134.53724331879337 482.0783026950828,134.8379493917868 482.37900876805423,135.2153674638019 481.84993482740686,135.70994737178614 482.5444374340046,136.4220382126932 483.286338315731,137.18251996280205 484.3057114301289,137.70898823915627 487.28187642576637,139.5943414896809 487.8867317711048,139.97690885076014 490.34077126420993,141.63042001448517 491.2325598852898,142.3757640955631 493.578898585672,144.02930627908225 494.0243431089106,144.29036903030433 494.9239177032081,144.8168683264747 495.93724195400534,145.43379037926434 497.31508003426404,146.04041385394768 497.3900239038526,146.07317077710408 498.39903640057804,146.51777776537247 498.7514214829999,146.88654130938357 499.1624650329137,147.31740652023817 500,147.83695737816123 499.9095152038145,147.99984241934058 498.13533696513645,147.46127641569694 497.0363049694459,147.51798063494698 497.233963221722,149.48206217238953 496.7014771015172,149.51789005710353 496.2125738194278,149.69693642115897 494.79825643835983,150.62824428474553 494.7224129940805,150.74326575357583 494.1347426255295,151.07232393618324 492.7473194228481,149.6299026039865 493.0124457696127,149.43097253940203 492.28844332033526,148.27455388855 492.16814848317614,148.18540294428317 491.8532353355926,147.77305656215665 491.30530134821737,148.038710245774 491.21748425591323,148.08350285660956 490.0531245328069,147.06174121658754 488.2407919234672,145.55045589819696 487.2864053185293,144.72439826214298 487.1991465829602,144.57159466037885 486.3611773384036,145.1876171385659 484.3499456843176,146.62532345910273 484.3895269664787,146.746455831188 485.6611532050139,146.76007352935918 485.6417658215655,147.0335442060323 485.53676375247403,148.45695039248648 485.5018354424287,149.39312836681378 485.6281791431003,149.56513323319547 485.79894321698976,149.5474829592538 486.2265823672941,149.22518709599672 486.6980214942286,149.02467502092023 486.94236456597184,149.38993332601356 487.71053922984976,149.03184059785863 490.12105792460403,151.47319298727746 491.3714976303975,152.6497124773496 491.53444471123123,152.84554056058232 491.77112588902156,153.2861149730802 491.93484846510506,153.72212947297692 491.71681019535157,155.68413268291292 491.5315908884088,156.42085325580308 491.33424283433845,157.3747125238662 491.32825601023785,157.39022243066898 490.24054624658703,160.3870776419675 489.33262732233703,162.89022150009023 489.14821453057044,163.25123009069995 488.7622039702498,164.00780334430297 488.49164915603143,164.53855235493492 488.0918347785545,167.13646174356495 487.6006670501277,168.59094978325703 487.05524566761915,168.73913143280973 486.6002780616342,168.86324170700414 485.90921865434393,168.91752638079188 485.6972912878675,169.07436255834855 485.05276160094155,169.55256400472155 484.70806943231077,169.80847746690148 484.18160115595657,169.5172324370441 483.66719958714174,169.73868288631095 482.99940503998954,170.02645369702267 482.6719909074844,170.3900989718078 482.5444374340046,170.3900989718078 481.7810088015807,170.3900989718078 481.7353476359808,170.18673307388684 481.6810939819872,169.95064127260358 481.6534863478509,169.82656201822533 481.4673674663056,169.75074959378424 481.2536719704621,169.66287046186986 480.6453734258162,169.6102918778388 477.5890532319158,169.55600720405107 476.08887300676355,169.53274234384688 469.3506870578529,169.42935330512972 469.14735217977017,169.47070271665777 468.8578442594856,169.5292991445394 468.36838262074934,169.6292449839491 467.498121750367,169.9756432423586 465.0294409050912,169.92135856857084 463.9325492765616,169.73955144109738 460.2765230263207,169.81192066620898 460.2231069073415,171.63867748885195 460.28257189000954,173.4515994746547 460.3092799495433,174.27964237876674 460.33254480968134,174.98276849355227 460.5436346412316,177.5307049624885 460.6056742684428,178.28206688739502 460.65307254357145,178.85850808344304 460.6754688490333,179.12130794423797 460.6910097756302,179.31347568947209 460.64100583603204,180.17511305171075 460.60483673342844,180.80416385162803 460.65307254357145,182.35856671089158 460.92620200224474,183.59420996567604 459.5070765500463,183.4123718183644 457.7734101880583,184.0534583059608 457.41581377687373,184.1853235335566 456.6946031107423,184.45224902954845 455.87087196081234,184.75745297551072 455.89109687918693,186.23691196514162 455.9036288839467,187.15457111074087 455.904466418961,187.24505590701452 455.9062035284898,187.34847596554783 455.91048426272346,187.64744492896844 455.9122213723404,187.78101624632092 456.6946031107423,187.79531638038154 457.08923717938296,187.80254399695227 457.14352185312663,189.52845540560503 456.6946031107423,189.52156900699003 455.9613257372478,189.51037085428118 456.0526790882858,190.01962313407589 454.159601904198,190.11783186393478 450.795689238623,190.29191505782302 449.68496277318707,190.34101942275245 449.66172893279906,188.4910287596994 449.2395182498603,187.7784416017778 449.25158495739964,187.74311003410037 449.2937719038539,187.62334253381601 449.32569129206206,187.53115164780775 449.4092586698825,187.28814242809335 449.4497705464844,187.1726866818809 449.17490397819415,186.99348521874464 447.8927310030454,187.0899568390307 446.71912737538395,187.17873554554765 446.4813294843881,186.9409066347136 446.5986774392101,186.23691196514162 446.69241931593837,185.67427458613972 446.71912737538395,185.14693775502113 446.52184136099,184.62906196703858 446.51405538777243,184.61094639589854 446.39776210656765,184.30509103384097 444.6546036815833,184.01725818349692 444.23670475280454,183.80098804311038 442.9717787940314,183.55109242478105 442.918331655214,183.54076282685858 441.9653719616873,183.35293785553452 441.93000937425984,183.3486261014406 441.5801989362929,183.30985133443363 441.4302801771894,183.29260431808004 439.9628568751715,183.12804420696017 439.3769236161492,183.06256138046356 439.3743489716943,183.06256138046356 437.7139514093543,182.98327473689878 436.43177843420557,183.2710765674487 435.81910609589954,183.48132886400668 435.2840453311516,183.64247679563522 434.5654093095633,184.13448205907636 433.3944113462831,184.5971735986686 432.64819871048485,183.95006926724363 432.16481695518746,184.17583147058238 432.1320910518031,184.1904728226208 431.9476782600365,184.2766458647785 431.7236531661825,184.38090345828206 431.69437046219383,184.39467625551202 431.2712602047406,184.59199328978826 431.9709741400128,184.82464189176403 432.1631108654087,184.9435718570781 432.5198387218289,185.16331621661033 433.2034843936073,186.23691196514162 433.9639661436941,187.4311747885819 434.1492474904015,188.01195875853998 433.9880995586847,188.11879099656466 433.6735896686452,188.32814371852004 433.4624998371831,189.06746995576947 433.68478782133207,189.86449304629795 433.72703680755086,190.01704848955484 433.83216295573067,190.54525387545985 433.8838419652693,190.69343552501255 433.88899125426735,190.70981398657972 434.06996084681464,191.2311019540536 433.990674203316,191.57405701317765 433.6537680078146,191.40946588224162 433.61759890512286,191.39224988568213 433.3797699942888,191.27592558470528 433.1212818876098,191.15014024057035 433.03424029064365,191.10789125446178 431.70038830604443,190.4573437237293 430.84476878765634,190.28896817553004 428.21494001084017,189.77143360550323 427.2645549618566,189.50776518994394 427.02675707086075,189.21738871487298 425.7058093286389,189.26996729890402 424.5701429331244,189.00629888334473 423.8609989745323,189.1200485398005 423.25009476559325,189.21738871487298 422.69515030033836,189.08558552690948 421.033884183234,187.9792018353836 420.8563888098324,187.86030288986365 420.49190600003294,187.6181622249357 420.3979469847018,187.55525404296014 418.6289800746981,186.3161986087064 418.42973981199617,186.23691196514162 415.776894333483,185.18136974811802 414.0862834727136,184.68849592989048 413.8751936411633,184.62732485748776 413.05661178023144,184.36365644190644 412.72314878403756,184.41710358074593 412.3965721865468,184.46878259019644 411.7891111769152,184.653164362213 410.99894346520756,184.3619503521718 408.7284792288547,184.04573437237556 408.0943101596894,183.64933217443405 407.1438940909558,183.59681563001328 406.2658782671059,183.61313205197015 405.5549971989851,183.62696688883244 405.559308953057,183.70966571186648 405.5713756605082,183.97333412744783 405.5868545474287,184.3007482599529 405.6014958995112,184.60148535276252 405.6480566397137,185.5915447432895 405.59032876666254,185.65963323412333 405.4903829272308,185.77766362485687 404.994903444644,185.7873107868899 404.02727137937296,185.80607777412524 403.48709234537705,186.23691196514162 401.96702841971785,187.44925933990575 402.1832985601044,188.15154791972103 402.2445006523894,188.48156771656335 402.26432231321996,188.58582531006695 402.32118163159487,188.89515489122616 402.5116122673003,189.9179401851154 402.5340085725858,190.26775062303827 402.5745204491876,190.88473471546024 402.8166300943435,191.31814355101974 402.77872388212296,191.5352822461927 402.7115039459874,191.92476702568106 402.2780951104499,192.03848566234274 401.7076717582745,192.18843544126238 400.2032107988886,192.32023862922588 399.16749024271763,192.8975793998765 398.9615807200918,193.1121124306902 398.69788128473834,193.90398623217652 399.12009196758896,194.7216995383661 399.1511117811946,194.94659318694045 399.23985946785126,195.58678009991223 399.3312128188893,196.25116246750696 399.30537331411995,196.7526287741062 397.9827194822957,196.6638810874054 397.8818740682614,196.65696366897424 397.09434304068515,196.70954225302734 396.35501680341366,196.89395504483804 396.11721891241785,197.31616572768866 395.39340258199326,198.27346819508128 395.1840498600599,198.38979249605813 394.9290049526884,198.5302502120256 393.4762230026649,198.95242987506006 391.78734925151235,199.11100316216755 389.83310099497777,199.53321384501817 389.1989319258125,199.69091857733923 388.8439411790093,199.5590533497434 387.4825125801119,199.4797977259948 386.2942676004561,200.36299385870302 385.94960645166356,200.61890732086093 385.90822602029726,200.6499271344665 385.86603907384307,200.68094694805006 385.7953759384882,200.73352553210313 385.21114876915647,200.64133464609486 379.1450691214699,198.5079469660343 378.9391285790058,198.4354536616801 378.6358478614913,198.2674503512307 377.3200804281939,197.8900322792156 377.0650045009842,197.83919080473538 376.8435540517614,197.8900322792156 376.230044178441,198.09510426689326 375.82163731265854,198.2131346576268 374.8074755269351,198.36823372561065 374.3059782004977,198.42081230966372 370.9256560535614,198.50009895320645 366.88535635252873,198.50009895320645 366.1934283904741,198.40530240286094 365.5385691056257,198.31484862640346 364.32364708636254,197.99860162681313 362.5012330376296,197.3385930529226 361.498269404593,197.20672782532677 358.9123957036862,198.1899008172388 357.6216302401437,198.68016897112912 357.46138188302956,198.7413400435318 357.35709326977593,198.78101438511933 356.87972935832914,198.9627904927987 356.06716534124786,199.27128253900966 354.99874990153074,199.67885186984392 353.5054870948317,200.24753811249056 353.2952347982958,200.40331961636383 352.6869052338998,200.8541615871739 351.5745036985233,201.39958296961635 351.2341232838763,201.56674874509548 349.20061940368123,202.38446205128506 348.54057980999653,202.5162962590647 347.77454551319136,202.83338079364734 347.5014160545181,203.0953120996558 347.2093024698522,203.3744904220179 347.1412449988786,203.43997324851452 345.95303103906105,204.36371227757465 345.3980865738943,204.57480210910288 344.97587589095554,204.44293688150708 342.41413560503935,204.57480210910288 341.3327538832684,204.4869229771885 338.19634053051686,204.42662045955018 337.84649907288804,204.42057159590547 337.633672131809,204.41625984181155 336.7633802415002,204.67992825737085 335.1176240311546,205.55536943667767 334.7600276200582,205.88020892463967 334.0991504914474,206.21106625645226 334.02073240262496,206.24987204327542 333.5984906999362,206.46096187478162 331.237572687236,207.38727554838482 329.9821077715328,207.8801493666124 329.9011460580937,207.9120067151662 327.4453694552834,208.5184440709746 325.25332330775296,208.86158524895157 323.77470185304827,209.2579254072828 323.3499165256545,209.49916649760817 322.53133466472264,209.96365718638353 322.2193994192262,210.14112153996896 321.02082484164794,211.09327471829744 320.565857235663,211.62148010420245 319.94083901153823,212.08677730813193 319.3250646917923,212.54515709365228 317.4992074437519,213.82301831472918 317.12696968066126,214.0315335017143 316.82800071721863,214.19866825735525 316.5789426338595,214.3382574185363 316.02406020828107,214.60192583411762 313.35722479375875,215.42053871490978 312.72302470475523,215.49895680366606 310.5499316633792,215.77121770759703 309.97693366666067,215.84271837794424 306.41222974770784,216.13312587283136 303.7393764893349,216.15210999873577 303.3903725665441,216.1546536234627 302.884563486123,216.15809682277018 302.7734505137545,216.1589653775566 301.69116921746917,216.370086228879 301.5955351321093,216.3676666834167 300.03164020989357,216.32786826256452 299.60421819836847,216.31753866464206 297.63790323429447,216.33649177075233 297.2277902788215,216.33993497005983 296.94774340160683,216.3433781693673 296.4583127827088,216.34768992346122 296.0222982828782,216.35200167755514 296.0068193958695,216.35200167755514 293.4778360329995,216.50192043665862 292.73940937033063,216.50883785508975 290.5731717077313,216.5286284961703 290.01825826231465,216.60788411989685 288.30698820561213,216.64064104305325 285.8995094526213,216.68717076346164 284.99649165910455,216.67770972030354 283.5807783863754,216.6906139627691 283.2610881874996,216.69321962710634 282.44340590108214,217.11626784492722 281.9944561389478,217.53847852777784 280.82088353121264,217.98141044610568 280.59428379281553,218.06668391368285 277.691325557326,219.37382783879247 277.3070210866078,219.54704247791634 275.74570080893517,220.34279375609233 275.65692210244026,220.3879896244939 274.81163218197463,220.96877359445202 272.31887996138465,220.48709792893334 271.63039519863753,220.353557631397 271.1676726392732,220.33544206025698 270.28705115104196,220.39664415247586 270.2060584177646,220.40263097651027 269.95017597546695,220.41987799286386 269.73992367884284,220.4345503646964 268.01398125039594,220.55518641976715 267.41343765921755,220.5965358312952 267.10066487870677,220.61893213671297 266.37855463797274,220.6689050564068 265.96152426404655,220.7662762512954 264.4897892079568,221.10836275563304 262.87074105714487,221.48491227286172 262.2822331536677,221.55641294320893 261.72217041916474,221.67189970921552 261.2646281686367,221.76582770479664 260.7863646825873,221.8649049894199 258.8226864027328,222.26986865591692 257.71282849206125,222.50682901196453 255.12527972112574,223.00829531856377 254.5436582162635,223.1668686056492 253.98012126261492,223.20564337265617 253.38298985099397,223.2461242293978 251.03240143612814,223.45727610053632 249.895835466011,223.40733420065868 247.48128419555235,223.30146357684688 246.78104292338335,223.31188623421784 240.57481575778073,224.18630375965742 240.22454002268157,224.47574964033168 239.9479673647008,224.6067152933249 239.5921080631332,224.77561817835485 239.0742322750845,225.02030246800973 238.5193498495942,225.54850785391474 236.35481827659729,225.33738700257035 235.48368885136233,225.09958911155246 234.8227807029133,225.07285003222464 234.4557542684971,225.00997287006524 232.8159848821638,224.7298949731226 232.57818699116797,224.0707549540185 232.7367292584152,223.62183621165622 232.3558369673426,223.4546704361991 232.0766586449805,223.33145973658523 230.6506467941671,223.04192079648453 230.12504707257727,222.88855883807355 229.7717624155528,222.78600733432663 228.10702207930274,224.85831700141094 227.90709938068926,225.01772782346663 227.66843293492903,225.20902701391435 227.314279723052,225.49161751576776 226.78607433716903,225.70273836711215 226.15190526800376,225.78202501065488 225.7029555057812,226.33606990128516 225.3488333137424,227.14258505478787 225.1980459999627,227.48724620364655 225.08860809753466,227.73453615761665 225.01450176287227,227.90427657761686 224.72412528782334,229.0123663588994 224.55007311372924,229.32774480372538 224.46479964613005,229.48371242647357 224.380332693707,229.6362058301202 224.2054119648485,229.95505849406982 224.0460011427487,230.24385295864874 223.97189480808632,230.37810671189067 223.50917224872202,230.41086363504706 222.8491326549492,230.33244554626873 222.75179247998693,230.39792837276534 221.33778529703648,231.35181866064462 221.0258810712901,231.56203993738643 220.40204160013545,231.981675975716 219.4602490394574,232.61671359964566 218.53396638571445,233.715311317954 218.352159258241,233.9316124781567 216.79254507025888,235.78247169597412 216.50213757537176,236.25722994306165 215.2329308822768,236.78456677418023 214.92443883608786,237.21710705495332 214.57890913244273,237.52128734709245 214.1067565496704,237.93661163130605 213.756046537189,238.24507265770086 213.53459608796624,238.41915585161115 213.30709677496648,238.59835731474737 213.20370773622727,239.16446891287296 213.15804657062736,239.41092133189483 212.5591780493895,240.5802132053742 212.24035640527808,241.76411541107584 212.18436564166754,242.45343770879325 212.37997658620915,243.88897264239708 212.40925929028597,244.18797262563382 212.33257831108048,244.4705941473034 212.0835512475596,244.63602281320968 212.05854927780462,244.64722096591856 211.8939891666186,244.71875265608193 211.55965761566034,244.88504987675262 211.58894031973716,245.35456577534953 211.25163086669178,245.34094807717835 210.90610116313482,245.55157261148622 211.03768721231907,245.89803290955007 209.9105512655218,246.13576876093563 209.7721408572227,245.87275176147168 209.42729358957723,246.024997006589 210.39523585296578,247.4090390495952 210.18619332914997,247.83366927790811 210.1026259513295,247.99134299041302 209.93887235531963,248.29896648185962 209.64160948165573,248.77716792825464 209.67520393971625,249.06754440330357 210.4645030966595,250.4057081420188 209.95695690662146,250.31438581079692 209.081546747241,250.2411480308989 208.7213756915134,250.11275702242676 207.8191954329228,249.79049217898583 205.82704096416765,249.37513687493401 203.5531025086691,249.32780063937153 202.51310121826447,249.4622094916943 202.2761408621948,249.60778547688773 202.2020035076942,249.86372995888382 202.20374061731113,249.97403641603213 202.20721483636865,250.25578938291528 202.20888990639736,250.4108884508991 202.24682713836793,251.11742674515395 202.36057679477966,252.29791677136427 202.37264350231905,252.42460169007973 202.48639315873075,253.12769678504912 202.46139118897577,253.64470401824525 202.34934762234278,253.84288960730794 201.97453521462083,253.99712012050534 201.26365414641185,254.1513816535189 198.1961668195746,254.51515100754668 197.93594160336687,254.5459847022773 196.39013123245294,254.61494174789757 195.90929310186044,254.47708969626734 195.86881224518493,254.4374153546798 195.57499257074036,254.14790743439528 195.3655778091306,253.51286981046562 195.05196749369364,252.99930577657696 194.75985390911595,252.77614923757545 194.42555337799587,252.74168622466237 193.64574628396073,252.81061225046648 190.51184553625222,252.99930577657696 189.27626432105598,252.96484276366388 188.503343625724,253.01742134771698 187.9664837118591,253.0734121112614 187.26124824970674,253.14485074195423 186.52092937849443,253.23083766525903 185.9026424538818,253.59798817896194 185.40375079182567,254.1174149576424 185.03498724779254,255.17422898701847 184.78549488705127,256.06977100552336 184.4275882777492,256.6518888274662 183.79850645799374,257.02803508712884 183.23441114778646,257.2788302800608 182.83304577972183,257.323560851264 182.16062928029208,257.2161392367763 181.02176784399936,256.6070962166307 181.35172560120935,255.50186025821466 181.09646355514678,255.50942909274113 180.25973510323666,255.52096846340575 178.7728313582558,255.31958783354284 176.30877246534573,254.84042477291288 176.6314405663086,254.2731034020672 176.59775304882166,254.04107519637063 176.51849742507304,253.86268024838847 176.32546112507453,253.7929166876141 174.85546317851356,253.26297419213626 172.34630147665044,252.4762186598979 172.0740095529033,252.39097621213693 170.85477577948015,251.9463692238906 168.25084854702155,250.99682170989934 164.8334887426291,249.6026361878456 162.03134490124756,248.48766000794805 157.46798910341812,246.8487591764453 156.61323813979442,246.44723870925577 154.98299183620747,245.68036687754645 152.44712207481064,244.5998226907458 152.16102633399538,244.47748054591835 149.5881189150542,243.4822718663272 148.29477880696865,242.8558267307692 146.49646715338812,241.76780676889058 145.70285624237303,241.2876200544375 142.4992229536622,239.54533018419554 142.16659749248265,239.28771063228095 141.75732207184765,238.97146363269061 141.1541728163761,238.24507265770086 140.897638957917,237.93661163130605 140.72504471507233,237.72893397929116 140.4803604254615,237.43424575012628 139.2680130506533,235.79028868900784 138.63886919130957,234.88984553994604 138.52775621902921,234.64602980507755 138.45191277483806,234.35304766566935 138.61476679615717,233.89376830556844 139.74705203204064,232.7347439903792 140.4743115617727,231.79295142978935 140.9034086432383,231.44915883571707 141.0585077112662,231.40433520506537 141.25669330035095,231.36816610241766 141.53245944315557,231.36816610241766 141.86331677496815,231.26822026300798 143.5021865866107,230.28160407178848 143.88304785802143,230.0523986691202 145.4676640157585,229.30618603327787 146.49646715338812,228.96853536227675 146.82735550503892,228.8598729552528 147.91388651589602,228.58326927741177 149.2934306859334,228.31873230706606 149.47436925855433,228.26016689900058 149.50107731808805,228.22052357722922 149.46748286002753,228.1507289966387 149.00044854650318,227.95254340757603 147.47272272689105,227.08656327142728 147.00053912436866,226.7763961552758 146.90577359386134,226.685880339208 149.5536248823911,225.97329318128644 151.88786585539572,225.3391241121432 154.75980427736778,224.28358189509754 155.67485775867385,223.94754425442667 157.10440586822122,223.47275498752296 157.95227043322996,223.07638380939758 158.6975834945138,222.38191222261602 159.47739058846076,221.37634292528625 160.3787022923751,220.083840352193 160.80007544021137,219.48069109663328 161.14386803432774,218.92838331555382 162.32432704067782,217.03099437735005 162.69054696000606,216.1003999694691 162.74396307898533,215.96512256238196 162.87235408747952,215.6385459648471 163.0688025669473,215.14136039254768 163.1179379516929,214.8587388708561 163.28423517240768,213.89107578574686 163.4755033430392,212.78041135994323 163.46964059829148,212.08677730813193 163.4617305457211,211.14839692705544 163.19117573159093,208.53928938569447 162.52766191876057,205.3011620642544 162.3527722097403,204.54291374073293 162.09167843868002,203.4063787903879 161.69701335037746,201.97344952114332 160.69147507279772,199.40054210226825 159.89097776316763,197.25843785459344 159.45759994746837,195.92799804946344 159.3197168759779,194.77945843127748 159.0689837226783,193.24397765828598 159.0233225570784,192.49171615877688 159.0000266771021,191.82997047533556 158.95262840188528,190.459049813486 158.9621204647934,189.86278695654127 158.9681693284822,189.41817996827288 158.9707439730253,189.2777222523054 159.0879368287445,189.23463573122658 159.73848435952104,189.26652409959652 160.18482845736224,189.31736557407677 161.81076300678916,190.1428028138736 162.19854169656492,190.3349705590857 163.04814337110238,190.7563437069881 163.19030717682654,190.74601410904359 162.77672000220784,189.62582660049364 162.02191487792768,188.16876391625846 161.8530119929198,187.37257836070026 161.79097236570863,186.71430689638257 161.79097236570863,186.23691196514162 161.79097236570863,185.839703252046 162.0985958571332,184.8547931505832 162.57679730350617,183.85443518192787 162.97831777076183,183.02893590252074 163.54874112284907,182.0561545481635 164.30441480198175,181.1953237010569 165.09197684930805,180.5731903195928 166.18542527853018,179.96749743930616 168.16120128567408,178.99207940079555 169.1616212940058,178.41045789586718 170.25506972322793,177.88051540041135 171.78366409760443,176.78796654574776 171.04778105964044,176.2916495282127 170.8625617526977,176.16670171904804 170.78498119888962,176.1313701513706 169.66051295606192,175.62211787157585 169.30809685380183,175.37827111689123 169.07284258751088,175.2162856502924 167.93115834805758,174.77335373196453 167.62700907577872,174.7440710279318 167.29438361459916,174.81386560852232 167.01089353816522,174.95345476970337 166.61452235999576,174.96465292241226 165.26692859800477,174.89057760754397 164.68440751845176,174.99480418123142 164.63015386454632,175.00429624418362 164.00802048308222,175.51441707876478 163.83049408975427,175.67724008033383 163.71420080863766,175.69793029599492 163.5806294913072,175.69793029599492 163.41346371582804,175.62211787157585 163.20494852882086,175.3282981971974 162.82321870273393,174.84662253167872 162.67848025246667,174.75787484497792 162.43550205263458,174.73892173886765 162.16752188295933,174.71736296842013 162.00032508764198,174.78200825994648 161.63587329768072,175.2024818332463 161.40061903138977,175.46788735837845 161.17401929308076,175.62987282497724 161.04649683943913,175.66173017353105 160.95774915269425,175.74275392664663 160.8888231268681,175.88752339668594 160.81040503813384,175.9193807452618 160.70270424532276,175.9357281870128 160.4958951480943,175.95989262181956 160.12105172053415,175.97797717314344 159.93409530406265,176.082234766625 159.5592828963407,176.32347585697238 159.041376088542,176.48031203450702 158.56233710715466,176.54322021648258 157.07853534370184,176.44501148664574 156.9122381229871,176.4337823141207 156.24186893137997,176.22700423668635 155.7291734522557,176.0701680591517 155.5275446638635,176.0081284319626 153.77923694988115,175.61436291817446 151.64749331985678,175.17233057442715 150.9572714475809,174.87333059119038 149.70704888039032,174.32102281011095 148.47999811399956,173.9746245516794 147.90442547273796,173.78590000577478 146.75411772514093,173.31374742302447 146.49646715338812,173.23505015594475 145.8683159281616,173.04316158903404 144.04590187934053,172.68125342382174 143.75639395905597,172.6062785343509 143.00676914370027,172.41330427396267 141.48847334749618,171.84458701149987 141.33942314315706,171.79632018156272 141.06368802010246,171.70757249486192 140.81295486680287,171.62657976156254 140.29076732477048,171.458545431319 139.8771801500636,171.32500513378267 138.87939682595137,171.16829303549065 138.8336115810868,171.16398128139673 138.26579389320457,171.1053848535151 137.34466052845963,171.05798657834234 136.90349673954282,171.24668010445282 136.36669886526616,171.90758825292392 135.32496046524457,173.6257136883591 134.49949220560956,174.75880543939667 134.15396250196443,175.075052438987 133.96868115543344,175.13364886686864 133.9049044186935,175.15347052776534 133.3293317774319,175.106940807379 131.66031070686,174.77605245575026 130.37122031325808,174.2719804848138 129.98607830761367,174.04966148078256 129.90592310935065,173.7687770686638 129.85166945535704,173.5774778782161 129.54491451869686,173.32584515033594 129.00808562467014,173.20009082601717 128.32564972552365,173.0510096018619 127.75265172871698,172.92606179271925 126.99353485045316,172.75976457202654 125.99314586204778,172.6486826195403 124.72651381340778,172.53840718220815 123.41930784875399,172.50651881381614 122.73519687966696,172.52444826608124 122.72306813253932,172.52460336516205 122.91861703749271,170.45660545217166 123.284867976571,168.00777728767486 123.3546315373233,167.5924530034392 123.56497689337387,166.34908581506951 124.32409377163769,164.36294919016493 124.94191539902994,163.05065597599113 126.43260356118587,160.88004451964355 126.74968809576852,160.38717070141598 126.74975013535676,160.3870776419675 128.25846080922628,158.04173157563636 128.90900834000283,156.79575872292943 130.11189467156478,154.49340611822865 132.15315350522732,150.79947365581134 132.63482917083417,150.9554102587434 132.9493390608737,151.05709320770387 133.45598567630918,151.22168433866196 133.90319832891478,150.39534752428457 134.15911179105063,149.92055825738086 133.64036744832575,149.66808799453045 133.3913714045549,149.5474829592538 132.92781131017625,149.32255829088533 134.0953350543107,146.63248903604114 134.45550610995016,145.33651224382422 134.5546144144557,144.15862788197316 134.41502525327465,142.36980829134487 134.29609528793853,139.97526480063578 133.87645924963104,137.3851103653851 133.78861113748874,136.3295681483615 133.65764548445142,134.745851565227 133.6322092374024,134.5373053584257 133.6322092374024,134.53724331879337 133.43790112500736,132.94239062258234 133.53787798418912,130.72878570458235 133.57057286773522,130.17560936871647 133.3974202682437,130.1282110935437 132.52539126840617,129.89125073749608 130.1877381158441,129.62327056784287 127.42005728737564,129.44831881916824 124.43958053766633,129.48377446611033 123.86915718549093,129.57509679733218 123.65372458003058,129.86547327240316 123.57704360082508,130.54704061671916 123.36164201520293,131.1303992311983 123.16171931658944,131.25621559514943 122.63860118011628,131.25621559514943 122.13111702966647,131.33289657435492 121.9001745174474,131.48368388824483 121.6080609328697,131.7490583935608 121.20824655539278,132.4676944151271 120.646632830214,133.342360099096 120.64647773119933,133.3426392774194 120.10276243846948,134.18929406968596 119.87904754282113,134.53724331879337 119.87889244371827,134.5373984178742 119.74259138283003,134.7493568041668 119.08853861315775,136.07632239015112 118.92571561158869,136.5666215638576 118.81714626401323,137.23525364591393 118.63620769130415,137.39813868709328 118.18294617509791,137.44206274316443 117.042130490409,137.42742139114804 115.88316821491819,137.21974373911112 114.7001035441868,136.8035819199052 114.42182479633914,139.55829646627578 114.97586968699144,139.82022777228428 115.16803743222557,139.94260093692787 115.18956518283487,140.18818480116332 114.95257380701517,141.15926006576387 114.82418279852098,141.21183864981697 114.43820325795039,141.0636259804481 114.34771846167675,141.16962068352453 114.26241397432752,141.47895026468373 114.17540339719956,141.79603479926638 114.30463194061994,141.94682211315632 114.90691264141526,142.16740400763675 115.11198462911496,142.43194097798246 115.14387299748492,142.6085988164138 115.10857244955751,142.79384914319476 114.89658304340463,143.91915492101478 114.78885123084352,144.4422110178556 114.68115043803245,144.51287415323256 113.3679886691163,144.40687945017817 111.77992931207174,144.25184242182664 111.61828506338459,145.13075782025712 107.81029274639396,144.72836879828117 106.3962235237671,144.5103615483438 101.30549987498085,144.02697979306845 100.55844970416824,144.007995667142 99.84930574557619,143.99077967060458 99.78810365337937,144.04419578962793 99.70627338508766,144.21396722942225 99.53392730077228,145.43577564734446 98.44134742622637,145.3306805188706 96.81711896657818,145.18935424813876 96.74558727645889,145.13590710929924 96.63013153026846,145.04889653217128 96.5560251955179,144.80849297679413 96.61201595904028,144.389725493251 96.87571539448186,142.9653887123781 96.92913151346113,142.67330614757248 97.02219095427787,142.17097128618684 94.79676748728984,141.95966431598956 94.79655034859874,141.95966431598956 94.45359528940857,141.9270935117081 93.73151606860091,141.7625334005882 92.66651280844127,141.52039273566027 91.2593920241058,141.13953146431567 90.35293103119339,140.7905895811792 89.66274017866753,140.5243155012827 89.53434917026149,140.48122898020384 87.53701439258192,139.8151715426686 84.65992668161184,138.80445295627464 81.4485384394335,137.54383875155136 80.0569275619449,137.00269810338665 79.23059074754549,136.72783153511847 79.07117992553387,136.67441541609512 77.9312017758593,136.2943916797428 76.94114238528822,135.92218493640218 73.67804411390935,134.6934591000709 73.28511613504739,134.53749147730062 73.28443369922407,134.53724331879337 72.2149635858897,134.1126751301128 71.01809509809017,133.63704832823882 68.94693316402756,132.84604308156094 68.94668500558642,132.84585696266396 67.20783833467398,132.18178479320883 67.45081653450606,131.47006619007365 67.27418971595701,131.12540504121498 67.2009209162208,131.11851864259998 66.52112170129381,131.0521362415008 64.94426049693608,131.12540504121498 64.6125346103591,130.761790786246 64.35057228453446,130.65405897361873 64.0368999294211,130.5256679651466 63.48285503885696,130.5256679651466 63.18214896579741,130.41194932850695 62.855572368306646,130.2878700741287 62.50749903995663,129.97850947313128 61.86982473189561,129.91907551027938 61.6957725578015,130.0380054756155 61.4932752146449,130.57306624031935 61.13915302260609,131.9482676364687 61.028877585251905,132.05168769500202 60.5411530561326,132.09046246198696 58.77649790028902,131.9086553345135 58.61879316796796,131.831974355308 58.587773354362376,131.70271479204942 58.823896175417694,130.44811843115465 58.918630686174964,129.73726838280592 58.886773337643206,129.6209130620129 58.21209239196422,129.58992426822348 57.48656997176091,129.55632981009686 56.63095045328467,129.56318518889566 56.47498283058054,129.4994394719719 56.3103916996445,129.16684503058644 56.1027450674017,128.74894610182974 55.79341548619841,128.3293100635002 55.405667816260866,127.88467205541565 54.98603177795336,127.55037152429557 54.51555426512152,127.30134446075265 53.97875639084485,127.01698582953227 52.63972409740934,126.62148320617129 52.37776177158469,126.59220050213855 52.16496585034384,126.66370117248576 52.05897114722332,126.97389930843138 52.019327825474,127.43662186783979 51.99261976594028,127.74939464832852 51.92626838465725,127.91829753335846 51.82716008023987,127.97773149621035 51.42821425761548,128.00533913032461 51.108555078489736,128.04495143227982 51.042234717044906,128.16471893256417 50.96465416323682,128.25517270902165 50.907794844861904,128.41632064065018 50.815603958897704,128.676545856902 50.63634045612913,129.47530605698128 49.447257941547164,129.27798902270501 48.815663516924985,129.1875042264534 48.74586893633446,129.11339789176898 48.62610143607216,128.69549896301228 48.59166944299729,128.5473173134596 48.53220446024107,128.491295530099 48.125472664399126,128.46803066991686 47.95315759992194,128.45853860694262 47.573164883363745,128.43614230152485 47.181974014118715,128.41374599610708 46.25569136028758,128.3611984318922 44.9830104481351,128.22418391523223 44.20407190886436,128.09492435197365 44.03175684438717,128.09148115266615 43.09709884094159,128.07485453259173 43.096850682412295,128.07485453259173 41.949955114372706,128.05444349523202 39.234015334943,127.74595144902104 36.14149501851255,127.45470641918568 35.82872223808994,128.46458747060936 32.88698923552737,128.2931099410363 32.19078053915092,132.211936052028 28.99403364905508,131.93192019469564 28.957802506775046,132.24295586563358 28.687806049203534,134.53724331879337 28.687806049203534,134.53755351693295 28.600268135266944,135.28119150825424 28.236622860481805,137.6257620792695 28.133233821742593,138.29011342704806 28.03325696256083,139.52488812704613 29.59200259577853,139.63516356437825 31.74269933178093,139.78681943303255 33.07397667183709,139.86868072111838 32.361389513937546,140.57351292563857 30.787133973961136,142.1512426847607 30.522597003593376,142.63459342019783 30.467443774997182,142.73457027942368 30.245993325774396,143.4204493778336 29.852227811986257,144.31226901870758 29.287853323499657,144.9972795623531 28.52613078076635,145.76331385909216 27.268990795210783,146.6336057493348 26.925198201094428,146.75421078458942 26.303902354644666,146.82226825562913 26.18757805360169,146.83523453770496 25.549097230364534,146.75421078458942 25.006250492399072,146.49141092381655 24.515082763972277,146.0683316861795 24.441876003912473,145.62546180748396 22.901214921996587,145.8606540341646 22.499694454829093,146.06141426774838 22.132605980736468,146.4621282197838 21.488076293898683,147.07129531917204 21.310611940247124,147.2384921144453 20.891813436865792,147.6580971329587 20.595419117966273,147.95449145185822 20.41531808027153,148.0113817900052 19.17967482548706,148.39912945994277 17.247233497929262,148.7088933185062 17.247016359238167,148.7088933185062 16.072544176900486,148.89718358705065 13.887353408146813,149.2478625797379 9.524757843857028,149.97422253491146 6.520147679157117,150.44386251272897Z"/></svg>