<svg xmlns="http://www.w3.org/2000/svg" width="500" height="500" viewBox="0 0 500 500"><path d="M168.1018044176181,355.9627145939405 167.96198364184025,355.96970814840563 167.81667871164328,355.9627145939405 167.39460009048202,355.56579264342963 167.02424358429803,355.00676110683173 165.98446807033486,353.6147418895242 165.45476921171382,353.0249689013086 164.35904526217277,351.8034615981225 163.5442206977199,350.8964126788881 162.02229243289366,348.9970840399957 162.8705753693401,348.38356315462755 162.14943424658364,347.30041754034016 163.02936427486839,346.8028689069776 164.07256109604575,346.213095918762 164.69861000342922,345.8594434418484 165.64756993614444,345.3242101157486 169.39455541219039,343.21527609646404 172.27217666188216,341.71005186097966 173.04368143932066,341.3060860426581 176.65366368679884,339.2097303587344 177.14703631283487,338.5025763449439 177.77172675992318,337.6080554477249 179.7241862873979,335.44458176632446 180.85341892245688,334.1923833248663 183.43474490438217,331.3105357545739 182.43547163022328,330.4663785121084 182.07210867846865,330.1016571000943 180.808690361909,328.96678937082964 180.57116107707347,328.76412723155704 178.77240880761562,327.2323878651628 175.71023822174112,328.9038473807152 174.0625266032341,329.83192727669046 172.93188519464158,330.4677872856419 171.24497948324415,331.64179879452286 171.05071967204165,331.6781250270364 170.8578686343727,331.65996191077966 170.69852628207866,331.5425808852405 170.34492411843914,331.15541972295193 170.11433807465164,330.95975113814444 170.0513960845014,330.9457640292142 169.93265659877432,330.9177898113895 169.8041060115508,330.93600324099185 169.54826267035025,331.0463907120659 165.6028916888349,332.98627190417966 165.02152102876093,333.27139761004725 164.3492341605333,333.6026103366507 164.15497434933081,333.7381544784466 165.61964603166533,335.374746848436 165.93133718182406,335.72130514419337 158.71413992069643,339.6485633226546 157.95244624475436,340.0636987027678 157.61982474468888,340.25529190694 152.4627575615911,343.2250368847221 152.20837330744845,343.0894927428905 151.72481178290886,342.83093248131405 151.37120961941233,342.64079836405676 151.24542626573154,342.5737306799256 151.0329530249267,342.45916720148927 150.78138631770815,342.3249815199171 150.12036963817786,341.9713793563491 150.39845147619897,341.0364065325998 150.52705237680382,340.6003911157825 150.77162552945003,339.7771642233667 151.02877701756444,338.9092590837129 151.32230505150216,337.9155705905213 151.3237138250357,337.9127530434185 151.34046816772315,337.85549646085525 151.35022895598124,337.53127728868117 151.36004005747768,337.2195861385582 151.39213996931906,336.20909298933356 151.01066421458177,334.96801379632143 149.98482549638197,333.9044903852057 149.9568009651402,333.8751577071573 149.64239289453408,333.54947944810414 148.88210799212555,333.574636118826 147.926154505124,334.2482814472058 147.49567355585685,334.55016149576085 146.43215014463385,333.4027657445166 145.48454867235685,331.9674267402662 145.3978587849468,331.3650754166897 144.78856422025075,330.46919605921124 144.25328058087692,329.7816139352825 143.97097242211217,329.4182006701466 143.63412460130309,328.9863612606557 142.93250505506285,328.66068300160254 142.1847984881225,328.3127159322759 141.15196621535034,327.83333041517005 141.8074987407475,327.0926174026591 140.68797658056528,326.37006750640484 140.03953823621717,325.9870823514786 138.60983432631545,325.50497991388966 136.18216528902568,325.14438419589226 135.16332012511222,325.1667233194755 133.1144602354937,325.2128606535927 132.02849707421075,325.14438419589226 129.42759920238788,324.9374957359475 128.57785717902658,324.28206383716997 127.49194433098197,323.5762682836032 126.85462523504415,323.04375187795085 126.22570846721223,322.4008983145343 125.68765759400964,321.85026910593507 124.16844624963079,319.97192113040217 123.91270353519295,319.7258888908411 123.38999823100127,319.22557302368557 122.98049794516521,318.8328270805012 122.44385584549616,318.3199328779847 122.19228913842059,318.07812695906 120.94985148514901,317.2619439344192 119.5759953840625,316.46110647893227 118.99734164429294,316.00969517965115 117.97014446579794,315.59737734664077 117.86670023570043,315.55546633323144 116.27488673967594,314.91678877714145 115.69205699254411,314.6833851862511 115.17216923556252,314.47513826608264 114.63265927544505,314.2459106825546 112.7361481836912,313.6100003602576 108.97099959128124,312.34663235700776 108.12130788130128,312.04193476131417 107.23941563271725,311.7260676038289 106.46514362145001,311.43118110970323 103.35965324856116,310.38582081488 102.8845443655088,310.2069065727599 100.8663756141981,309.5640026959978 98.19418373750047,308.70585834460206 93.6031416456087,306.61644590179793 91.82954604694422,305.81007397872503 89.77615795658002,304.8751011549758 89.47302007452822,304.7365885260046 90.31189441609993,303.3935241899528 87.3663501556522,301.8189681699644 87.44473834157603,301.6912729094372 86.50357697681964,301.1890451352922 88.30187642598843,298.9079388616247 89.81756583653342,296.9828497919348 89.94043101638444,296.8270293735461 90.81633597730793,295.7195824153762 91.58341318062044,294.7498430726838 91.90109161843971,294.3475879079693 92.29499476850116,294.555683888101 92.65674769333988,294.7471261522364 92.8489446576234,294.84875910192835 92.92582344325102,294.7464720788152 93.09366875027064,294.52343303625855 92.55239782323625,294.2317162826549 92.16020532685339,294.0204002486556 93.94748615437454,291.7536332773374 94.32478590174955,291.95141502248106 94.87491197689292,292.23945890214264 95.79131917762068,291.08290612275164 95.2683623068083,290.80849715860114 94.85901296097325,290.59305543062095 96.66173998441101,288.32045211164325 95.28003500198434,286.0451318722897 93.46779875719518,283.3064257583339 90.77004770322547,282.90391902692716 88.16311223036074,282.5255123860207 73.76428924054234,280.4355464964865 57.54437485782581,278.08128462437185 56.342389131120164,277.90684826965185 56.16634274937701,278.7278110617305 52.81265666324541,278.24047603666486 52.99745756633485,277.38132541842884 52.68692362294597,277.33775406475803 52.802191488220544,276.68242279267173 52.81924771091005,276.5854186703809 47.66550120854974,275.91846501642834 47.55370496387068,276.5587525994343 47.523215078945206,276.6585239554824 47.48970639357029,276.6976677351345 47.361357059586126,276.7065731965533 47.238391253115424,276.6936929811546 39.53089047978253,275.58976795689 31.83647117530222,274.48725170615893 24.583249561734622,273.44797932565166 23.76273958962327,273.3806097614827 23.096892829202268,273.28934136012435 22.544703906996936,273.1978213920739 22.358242663610252,273.1560110053557 22.321765491167234,273.15032559776876 22.263402015144006,273.1250179870101 22.25223245335237,273.09689282914866 22.258823501017,272.9481665919162 18.27783067396939,272.3524063160401 14.612302497535051,271.798959560338 12.716847985931352,271.4907903441204 12.3958488676606,271.4385147823774 9.4411978923402,271.07469901051246 3.359975253937186,270.2798991559602 1.929063823741295,267.76186735753276 0,264.29120275248374 0.9298911763450659,262.94728308962846 14.01357373462656,244.03630932722652 13.699668797404849,243.99359330035927 11.215145684388077,243.6543807524504 13.623192518398964,240.12183073747283 15.291633233430364,237.68550780552795 19.010392925138177,232.39928627505955 21.002499365649385,229.49187952731634 24.40015931218077,224.74255166324494 27.035320569526636,221.01951533762667 30.949698532589142,215.48922378789646 31.83647117530222,214.2364215863627 39.26256942987651,203.74553645190744 39.49179701351179,203.42156884646133 40.550741910464794,203.93285302206192 43.611503722948754,199.62024496157466 47.31929510610429,194.19827803596377 48.75111217644932,192.07062745365667 48.24214241463866,190.86366070613082 48.24184053449362,190.80690725702348 50.42418171898906,187.64511625503036 52.471683148312394,184.7005279479701 51.55567845434937,184.24061369396338 51.77514524958356,183.92348870294563 54.97180339724679,179.3227864494512 55.133258909984136,179.0917475856249 57.30131110533282,175.9878169262706 59.58875686008002,172.71060711900188 61.46906705591216,170.0086297443243 63.69417458051322,166.86122835795462 65.74182694998058,163.90818740955012 67.83083688602,160.91434234123207 70.28507136749366,157.42591712669105 71.91456955639835,155.13016967067213 73.76428924054234,152.47402775003818 74.20216625100356,151.84526192220727 77.05473145666465,147.72404581250984 77.32355563981208,147.33950094397753 78.84045257065127,145.17552412915694 80.00887929860065,145.7568947893739 83.4147906330939,140.89677694746374 85.9010747131706,137.31849210513369 85.97402905819963,137.22893435738249 86.1055984460156,137.16392952027752 88.97054073361952,135.74745801905067 91.887104509581,134.32162823633044 98.58687936741073,134.28897487775907 104.58050647839757,134.28268571006072 108.93145330500745,134.24756699773417 114.41173339329598,134.25893781290816 115.69205699254411,134.26155410666436 123.56971748672231,134.27775500262183 128.34113290757753,134.27453494875428 131.75710691047394,134.27453494875428 134.35171561463417,134.2607490932064 143.0662882297988,134.25315177862998 149.29955778606444,134.2204984200586 151.81215574370435,134.20681319120192 151.81240731032506,134.31156556803455 152.12515504063393,134.31091149461335 152.11655145928864,134.2191902731805 157.61982474468888,134.2159702193487 163.29350931726913,134.21264953878995 168.5705235062452,134.19765616305517 173.927837788206,134.19795804309297 173.92723402805893,134.05949572750308 173.92441648099185,133.24507366981493 177.21692154403314,133.23757698192966 177.21953783786086,134.05431345333622 177.2200912846266,134.1985618032043 187.45538464460927,134.2115426452942 187.4187062186409,127.87689170617176 187.46615169963619,127.36304155016056 187.45915814520683,126.92083759237178 187.6091422158645,126.91651064500847 187.64476406168274,118.014822712893 179.7723864685413,116.03504304105051 176.90689073417167,116.06070284519252 176.90442538048796,116.94234352701285 166.96064752061937,116.96493421732407 166.93604429673476,116.05466524422214 158.16995081983225,116.09506685737098 158.17301993352004,116.9558778158685 157.61982474468888,116.95849410962471 151.916656553809,116.98551237395468 149.23978553650767,116.97992759305886 147.08994677061833,116.97544970569453 147.07203522101804,116.10834957949868 143.83301323987092,116.11000991979593 137.8012989295252,109.3320984426988 136.92136890124044,108.3433406569461 137.31320920438293,107.3266589667143 141.9732308873238,95.23616176827574 143.79054877976736,90.52079540965383 145.21315850862004,86.80923052586498 145.92856391033663,86.99488675572222 146.11266042665932,87.04263411675531 146.81448122628194,85.22405839085071 146.83475750280323,85.17143063572433 148.19799748886388,81.63903156074777 148.20046284254755,81.63183675293604 148.8355681514224,79.98618798152674 148.96482312555568,79.65115144094443 148.98343906177973,79.60370595998488 149.1088199086958,79.28386404851972 149.1677871448661,79.13322590429787 149.29185984486833,78.81766062685041 149.24184838342666,78.80493135148846 149.1069583150162,78.77041639923749 148.3959804874256,78.59029463693048 148.40035774802723,78.57882319510105 149.09996476058683,76.77478802485668 153.4663577829703,65.51647349363402 154.4869639139437,62.86204222657141 156.0700228886219,58.71285189904929 157.61982474468888,54.693520305771806 158.1539511771499,53.30839401623821 158.6979390247747,51.89750729594292 158.70775012627115,51.87265250525886 159.24187655887516,50.480230781258115 159.85207676372033,48.91503304279886 159.91174838665742,48.92982516515128 160.75308808191284,49.1496944672217 160.7845842337501,49.15819742191153 160.7879049142016,49.15039885398847 160.92400250290623,48.79357663658863 161.69661417373322,47.17157513564071 162.2073449026038,45.75424830761031 163.41179598299314,42.584709051039724 163.44922910910964,42.48629615517954 163.54552884449078,42.23286785442436 163.5921693120996,42.109298287878076 163.60922553478912,42.06567662086167 163.63699849926718,41.99176632230217 163.66708587757094,41.91227124284684 163.69656949558458,41.8355433971845 163.758354278822,41.672980991022904 163.85123270713194,41.428407838340945 163.49239795597998,41.32486298169526 163.567717028216,41.0802898290133 163.1481540739768,40.97558776549052 163.07253312188172,40.956569322430234 162.96531539118666,40.92975231144688 164.001568971316,38.27849078490624 164.8749079517931,36.044075292121654 166.56120990304345,31.72507743728063 166.56875690438156,31.72588245073858 167.5649610645667,31.837427128689693 167.58508640108698,31.78500062690992 168.49495286753142,29.412475011883075 168.50748088961828,29.379368833237134 168.7476264681385,28.753521179200252 168.77434285246642,28.68373657465743 168.8318006884835,28.529576496494485 169.35878262651414,27.151745641499545 169.49709400213877,26.80845771295536 169.5343258747299,26.71190641073903 170.3243962751541,24.657159860186884 170.8997796478535,23.160488892737927 170.93192987293324,23.077019059302685 170.86843443601725,23.072138665173636 170.7943731974567,23.057749049550193 170.7139221646139,23.034856479165416 170.63533272516472,22.99697053308161 170.5679631610315,22.955864533130246 170.5154360326678,22.90962657235763 170.4694496384444,22.861225137903364 170.4579781966507,22.847137402317713 170.423463244507,22.80381761533911 170.3928224194375,22.74807043303635 170.37063423599824,22.692725757462565 170.36771606216845,22.680700868867383 170.35559054684634,22.6296831406569 170.350961719481,22.572627811476032 170.34854667903565,22.509635508015958 170.35050889933495,22.45247955214391 170.35372895330974,22.424756901047175 170.36238284789334,22.3593495571775 170.4195388037654,22.167907293042084 170.9251878851246,20.465907579218676 170.96976550567143,20.465756639181905 171.0674740147291,20.4655050724897 171.18631412721888,20.383192445931545 171.33005934359528,20.33484132478712 171.50550196519137,20.32487928321816 171.82609857669738,20.33413693802035 172.2923523117838,17.623455355270572 172.48042358208636,16.678319236534268 172.53315196383244,16.41271510714714 172.66155161119792,16.06826997172587 172.77601446294307,15.845734062589392 172.93384741494089,15.668127967347422 165.7294800560451,11.380575950926593 160.78820679434665,8.356240997683056 161.26336599078033,8.356240997683056 163.52464880796538,8.347838669684407 169.54549543652152,8.498778693944047 173.56221073615004,8.602172610588713 175.82208477965852,8.660888280031076 179.8402088526776,8.77826930557021 181.84293140835769,8.821589092548814 186.1824067931739,8.918039768073962 187.97139827423064,8.971120343274915 191.68613289843418,9.0787405805917 192.5177118057175,9.02425123182146 193.88316557869814,8.188496317354618 195.73640719681896,6.990736911321092 197.34079902816865,5.955137404720187 199.07525084732404,4.834307097731363 199.54346680270973,4.614840302425671 199.54764280992902,4.614840302425671 202.57484562365673,4.626009864217309 204.22678356276435,4.6036707406340325 209.97790036788095,4.582690077274455 217.04687452512488,4.507270378454476 221.09568973659475,4.53937029029585 223.04955803760302,4.496050503317247 224.61063008208134,4.496050503317247 226.36742102467704,4.472302606164679 228.6147670462417,4.4429196147707035 229.57207899353844,4.366040829071593 231.2016778090628,4.182950579624986 232.9081554102148,3.858731407450929 233.71880396744837,3.6644715962126844 234.77674259763253,3.189312399778986 235.7326960847771,2.981065479610523 239.0673637279199,2.258515583356287 239.71580207226802,2.0642557720822925 240.6340708666754,1.879756749066396 241.4754105619308,1.639359603746717 241.62217457889966,1.5974485903374027 244.44389770610888,0.6792301092756319 244.90512010706522,0.5296988585495315 245.2070001555845,0.28089938519545327 245.67380733743664,0.16351835965631867 246.27610834756032,0.011169561791638423 247.97141638706364,0.026565444291146607 248.65764005076863,0.03209991184137513 249.53812352581912,0.022339123583276846 251.2906881476712,0 253.39132046564833,0.0768787856991102 255.870661304534,0.1746879214479571 257.31711955726615,0.2306363570973306 257.48486423752314,0.23757959821684904 259.76707740475786,0.5198877569815923 262.74678442410897,0.9950469534152904 263.2219436205427,1.0705169655451106 264.07027687037044,1.2675943239219352 265.519602983551,1.6030333712332219 270.37765797843497,2.661022314762995 270.60965279575595,2.6232369953703687 274.548030222699,3.6784083917973116 276.4878611014672,3.9495973020802575 277.34182944542914,3.900692734205834 280.6429380898157,4.046047977605405 283.4031783139326,4.1595045625102145 285.06216012085093,4.227729453482722 287.96357958089783,4.377260704208822 289.79860776955934,4.47089383259539 291.1374960982131,4.490465722421427 291.20038777498195,4.491824182645127 291.8530524400737,4.501635284213066 291.87820911086703,4.501635284213066 292.0752361557553,4.505861604920936 292.19261718133015,4.507270378454476 292.2402136023265,4.507270378454476 292.89846304817104,4.5169808533669835 293.98014957561503,4.533735196054441 295.68380962969997,4.111706888167286 299.0981736056804,3.591819131185694 303.86953871329735,2.764416231407661 304.2217321032603,2.711335656206708 307.1203340162402,2.2710436053716245 307.6318194452588,2.3381616028483863 307.76746421367443,2.967078370680305 307.9225802452248,3.688219493365251 309.2139224664066,6.55331272097018 309.3592777096989,6.877531893108487 310.08882116041826,8.6301468284134 310.99169407243335,10.71815049768401 311.27128531075067,11.380575950926593 311.85119688405274,12.754432051941615 313.1495326595209,15.623701286873073 313.47797815236703,16.376992634744983 314.0188968861611,17.72146574436603 315.40110500182914,20.8883887071804 315.8287180905049,21.828996625171037 316.85878312973426,24.088870668751024 317.5743897848333,25.43762041238978 317.7909384062377,26.13496332461232 318.79026199363494,28.42985545379194 318.81265143059954,28.488520809888712 318.85169458363197,28.58351239853473 319.60367778455424,30.488476131668573 321.0613055990781,33.70435397570296 322.0745659820957,36.21020994549844 322.4644943781772,37.06835429689415 323.0892854520282,38.43939285080634 323.26251428656127,38.90197371187911 323.88730536041226,39.53229925328032 324.1863678618645,39.60213417120448 325.01794676900477,39.22760165762246 325.13110147383605,39.12838374830432 324.8683652048258,38.53161720562362 324.7844928647689,38.28286804561513 324.8879370947234,38.26188738225555 325.3309963793157,38.17061898089725 325.76283578873506,38.08161467991178 328.8626910674897,36.72733046868704 329.54896504457605,36.426859193701304 329.63419584492823,36.38912418761852 330.0240739276284,36.21720349996355 330.7732395816266,35.89016678068666 331.63274239310306,35.55191018627254 331.76411052767963,35.35905914856784 331.7515321923545,35.05300309265053 331.67465340658384,34.78327326928247 331.0708933094023,31.860923459114307 330.82772893028965,30.414414893072294 330.90460771606024,30.248078986313143 331.5153613676712,30.158672178598696 332.0548210144073,30.05522794860844 333.0722574047872,29.858150590231617 334.2867711534367,29.545100979884946 334.9519638404723,29.03915001848798 335.2651140775459,28.835129418991638 335.8353151759712,28.460546592064027 337.3893936660201,28.100001187412225 338.229324587742,27.919728485068447 338.84012855259124,27.772964468099588 339.59341990057044,27.59269176579156 341.03716123285517,27.246083156688634 341.30824951630393,27.190185034349103 341.4661830950645,27.300522192113288 342.2083551944903,28.923177766482386 342.50877615623773,29.697449777713878 343.0077335630266,31.090827455245094 343.3236007206906,31.929349603469177 343.3571094060655,32.017448264305514 343.4857606200517,31.98388926558501 344.814837847209,31.641506977154204 345.68973654122067,31.41650571429828 345.39339096021587,30.802934515584532 345.23409892130314,30.474489022738354 344.76734205283236,29.507365973802163 344.2515799898317,28.11675553009968 343.74150333463257,26.945611881667144 343.3291855015864,26.28872089601054 342.75053176181683,25.445972427078587 342.71566461614674,25.406828647462262 342.494789047236,25.162205181434715 342.59405726997124,24.98480033953936 344.77151806019464,24.48579261926191 345.61567530280314,24.230100218133906 347.87695811984514,23.629107354781084 348.63165824135785,23.408282099251693 350.2570307361386,22.928896582145875 350.90828662755376,22.73745431801046 351.45901646270124,23.981300744779826 352.4638242045176,26.555633172275773 352.804848032546,26.478754386576664 355.85856597721926,25.793939496405212 356.46660270838277,25.65698658104004 356.84390245575776,25.80515937154244 357.1387889498477,25.919722849978747 357.4015252188579,26.095819544960243 359.36238707429555,25.069980826581688 361.71312701257636,23.936572184267682 362.9975259924241,23.297894628177666 364.3601622183376,22.696851451479255 364.59215703565866,23.0379255929962 365.12603190149895,23.8205496189165 365.2043194608031,23.95750253428167 365.7018680942014,24.836577235727116 366.5362142350275,26.305475238697998 366.56418845288795,26.35161257277943 367.2587641313175,27.47209068638487 367.398534593857,27.697494455969764 367.97713802024515,28.632517593064584 368.26085495254347,29.089463359931695 367.9729620128829,29.229233822399696 367.3188885744006,29.549276987211474 367.2587641313175,29.57850903860443 365.91569979530146,30.2299158700564 365.4376727382763,30.44651480491367 365.2671608241907,30.523393590612777 365.35249225130553,30.67433361487242 366.4984289156706,32.68968481911604 367.2587641313175,33.79044010285867 367.31607102719056,33.87345711621934 367.63888142575956,34.474399666226574 367.739508108647,34.79590191795324 367.76607355297386,35.13264911214263 367.34957971256546,35.36746147660224 367.2587641313175,35.392467207287325 367.035121328721,35.4541010505237 366.6270801296568,35.56453883494331 366.2147622967537,35.67769353984608 365.97300669117453,35.74345307706339 364.88145874885276,35.9376625749918 363.2281120362116,36.0495091329807 362.5614602622611,36.09423769349284 360.5992399466713,36.10817448907748 359.8193831545082,36.1557205967282 359.5328989883812,36.17247493941566 359.1946423938956,36.30107584012777 358.0263162927089,36.7440848113745 357.80966704454175,36.83218347224659 357.36102297905364,37.01381463477831 357.0032448080518,37.15922019152348 356.55183350873494,37.340851354055204 356.0947871152839,37.52675915064039 355.15699674436036,37.90692675846382 354.565814982504,38.14727359047366 354.159132243878,38.331772613489555 353.67134439873774,38.553956329242645 353.1332935255352,38.798529481924604 352.3409087112853,39.11022063204757 352.8076655797561,39.92781243025767 352.95161204965785,40.259025156861085 353.16267651692914,40.74822177557059 353.3023966659443,41.07103217417536 353.861428202578,41.444206227533684 354.1074101289007,41.651044374168606 354.64128499474106,42.04102308355998 355.095513841125,42.249219690382844 355.3429045409813,42.507779951995026 355.44629845755446,42.794314431431886 355.4980205725317,43.26107129983119 355.4980205725317,43.729236941835524 355.44629845755446,44.26034457395435 355.83627716701733,44.36937358480467 357.75935370309804,44.910191691836005 359.73269326709817,45.42172743412878 360.48045014756286,45.61462878514333 362.37837001270725,45.705494679772656 363.012871561578,44.92699634786905 363.5719030980687,44.394530255526526 363.8444504687183,44.21284877961346 364.02613194459565,44.21284877961346 364.5278565852132,44.61535551105592 364.93036331661995,44.88785256821698 364.9429919653264,45.14641282982915 364.6703942815815,45.66630058681074 364.16454394683996,46.54960160889256 364.0708605051435,46.87382078106662 363.8751919202645,47.55305089034225 364.0834388404687,47.86474204046522 364.34340787565014,48.17643319062394 365.12321435443187,48.86542408812192 365.3259268071216,49.09882767901224 365.6165869804679,49.43567549989282 365.2518655684181,50.70186105024546 364.94017441825935,51.99883836556137 366.3433128839772,52.24622906538191 367.1888789001192,52.337044646665646 367.2587641313175,52.339811880422886 367.5005197368966,52.349622982026574 367.69482986148046,52.20703497242 367.7437344293906,51.98761849042414 367.83178277680986,51.59492286058538 367.8765113373577,51.450926077409505 367.9449877950225,51.230151135225704 367.9883578954182,51.089022212534 368.2999484188142,50.89335362772647 368.6773487929519,50.647371701475215 368.9107523838065,50.5439777848663 369.58575617233845,50.3874026663295 370.0539218143428,50.426546445945824 370.1056942427014,50.58166247756775 370.14478770897216,51.089022212534 370.1713028399177,51.45238516432438 370.39217840882844,51.737460556846365 370.7946851402351,52.01000792738876 371.0671821973604,51.94570747701483 371.2363356511509,51.68573844186911 371.84708930290486,51.037300097556745 372.4061208393955,50.686515481127294 372.84772103721593,50.114905609168446 373.44594666674004,49.441209967443044 374.204822795472,48.785727755319975 374.8281547824081,48.38322102387752 375.3228858687393,48.18896121263928 375.62058990989635,48.358064353191416 375.7505492707964,48.57893992203065 375.7505492707964,49.020540119743835 375.6066028008946,49.59074121816914 374.8784681238518,50.296536771700175 374.2942799165678,50.880724979019945 373.5395797951981,51.64664497556263 372.916247808119,52.46423677377272 372.7219879969165,52.9701374218241 372.54126247456963,53.30839401623821 372.5374889738291,53.31533725735773 372.4843580853183,53.62702840751645 372.4326862837224,54.12035072020689 372.66603956119565,54.668263008358764 372.684252990941,54.71158279533737 373.98676477362835,56.02672322691003 374.118132908205,56.158041048033795 376.40598116957386,58.46968751993662 377.76308292797296,59.839317300279525 377.958751512709,59.99448364524704 378.40321957097785,60.34803549546948 379.32697251951834,61.08180526682519 379.75604469525194,61.31515854436992 380.31366745820907,61.78196572615056 380.78188341359476,62.52267873866155 381.2737969527159,63.22012227750377 381.36466284734524,63.34731440464659 381.7056866755166,63.83364316290768 381.96142938995445,64.19700611469806 381.99357961517717,64.2417346752102 382.55819593270667,65.25222782443484 383.305902499647,66.59111615319581 383.71258523841595,67.39054483511342 384.2703086281358,67.94957637171133 384.6867521551629,68.67630227532784 384.699330490488,68.92369297511263 384.59593657391486,69.36393471260213 384.3751113183855,70.00120349512285 384.2703086281358,70.50715445651981 384.3485458740586,70.68883593243288 384.94667087696297,71.29823112378436 386.00053412654756,72.37991765115686 386.32616207218365,72.78247469590916 386.92292861493587,73.31489047490608 388.0689155925393,74.87883037983282 388.27716251274353,75.11922752518825 389.5880766236798,76.63003654156844 389.916522116526,77.22398553714632 390.07163814807643,77.46996746336181 390.11083224110985,77.87247419480427 390.05911012613257,78.46919042413938 389.9025853209056,79.01569393872197 389.63003795039896,79.56073836638967 389.33092513556545,79.96324509783213 388.82079816684194,80.52791172867146 388.1583727136351,81.20291551727496 387.6384849566535,81.60542224868168 387.19683444559473,82.12531000566327 386.885143295436,82.34613526119266 386.4295056755185,82.5404453857765 385.9361833627208,82.82692955186776 385.70283008524757,82.9429521171832 385.48200482971816,83.15114872404182 384.96206675935525,83.81362449059425 384.8181202895965,84.15047231147481 384.84468573392337,84.7611756497044 384.88382951343243,85.1371672502013 385.09207643363663,85.42224264272329 385.48200482971816,85.61791122753083 386.0535643882957,85.70877712216014 386.5720936851251,85.68221167790475 387.46933150286304,85.64306789825268 388.2492386082644,85.61791122753083 389.0933958507299,85.64306789825268 390.0674621408571,85.63048956289175 390.8543628006879,85.76462493115409 393.51669326236475,86.30971967216738 394.3022354620433,86.7289807462973 394.3930510432913,87.05325023178119 394.41679894055113,87.4306002925018 394.4447228450302,87.8848291389215 394.53558873965954,88.42851510636551 395.3014584228209,88.61014626893298 396.36779938096794,88.86870653054515 397.71926604508985,89.20696312495927 398.23920411545276,89.41515973178214 398.66686751765286,89.64856332267247 398.8625361023889,89.88196691356279 398.8918687804015,90.60310803621198 398.8261595565655,91.49898739369047 397.93033051236114,91.49898739369047 395.07087237917636,91.627537981057 394.40004459786365,91.55211828223702 392.998264592298,91.62894675459054 392.02409767555116,91.73379975815008 388.73692582678495,92.23970040620146 387.8453231033242,92.45076487347275 386.7537751610024,92.55420910346301 385.9879054778411,92.56814589904764 383.3100785070093,92.82811493419335 383.0893035648612,93.22921289206653 383.2192629256183,93.6191412881123 384.3764697785377,94.04821346381016 385.1814832413511,94.29414507671581 386.0396275928183,94.33333916967773 386.2618113084999,94.48146164683455 386.26739608939573,94.73021080687877 386.28002473810227,95.23616176827574 386.3149421970107,96.6491113355615 386.40575777840166,98.33742582052822 386.4309647624334,98.89087257623032 386.860036938167,101.26676918512575 386.9117087397629,101.92783617814463 388.0298221262686,101.91389938256 388.78723916822867,102.08717853043868 391.2819758895066,102.76218231904218 391.5154297937425,102.97047955255624 391.62023248399225,103.41207975026943 391.5154297937425,104.47706224826432 391.4916315832444,104.95916468581753 391.4902228097108,104.97596934185057 391.3728417841359,105.65102344379967 391.216316978909,105.79356114006067 390.4616168575393,105.84347197477541 388.85158993176947,105.95008594525189 387.9501257934309,105.93891638346024 387.35195047728814,106.0423103001049 386.9746004165318,106.31631675749068 386.6378029089611,106.84737407626392 385.92219625386207,107.89977823893362 385.6496991967368,108.23657574643285 385.403717270557,108.61392580715345 385.1814832413511,109.28892959572121 385.15632657070074,109.67749953157904 384.8824207400419,110.98564640872235 385.4414522765326,111.69003318868408 386.02699894411177,112.59844056817792 387.2219911163881,114.700431346343 387.3910942569402,115.51243836365727 387.57418450635106,115.92747311707932 387.6384849566535,116.68086509160666 387.7293005379015,117.34329054484924 387.8593102121829,118.04345100417461 388.5356724610101,119.20765141145188 388.9382295057982,119.87012717804005 389.6928793139295,120.72268674853994 389.6943384007014,120.72268674853994 389.8354673233931,120.88333724771209 390.2379740547998,121.46757576837746 390.48395598112256,121.94696128548327 391.06955296194013,122.84284064296178 392.1932511294846,124.08246074905902 394.70046555946806,126.13272941224685 394.96184336818305,126.43460946080187 395.66341260104195,126.97965388850533 396.28256858061576,127.53873573844884 397.12249950248065,128.29902064075011 399.7080518051496,130.01249179640294 401.90926049263277,131.39047359143464 402.3495525433964,131.66583850907986 402.94209276540494,132.0375534755233 403.48155241214107,132.3296224225104 403.9371900320586,132.4861975410472 404.5605220191377,132.66787901696028 406.0657462545148,132.91386094317576 406.7085998179671,133.01866363338974 407.3165862357493,133.06057464679904 408.12019092517215,133.11652308244842 408.59258288777716,133.1486733076354 409.1865318833193,133.25991610551296 411.5680635863846,133.706296070664 413.43383322659224,133.8907950936799 413.4729770062443,134.35760227546055 413.46457467828145,134.41350039776432 413.4534051164898,134.49037918346343 413.3555959806695,135.1626157383097 413.3052826392257,135.28839909184748 413.2773084215083,135.35682523620235 413.07047027483765,135.87671299318396 412.84964501930824,136.29184837329717 412.52401707352914,136.42180773419724 410.757415029294,136.74607721971688 409.80146154229243,136.78657945955692 409.1865318833193,136.89123120973412 408.6526570173359,136.98229835771005 408.1746802738352,137.06330283742585 407.98670963029525,137.16392952027752 407.0831826450377,137.6474910447456 406.65974556343826,137.94237753883553 405.733074441068,138.59363343028647 405.1027992129409,138.82985456827964 404.34251431067537,139.3511510988305 402.94073430510974,140.23022580024022 401.86176469825614,141.06039593381124 400.51724127532526,142.1449503215964 399.9064876237143,142.92480711375947 398.5536624992973,145.10085913048508 398.22939301381336,145.60681009188204 397.7877928161359,146.4509170210377 397.69134214061074,146.66620780898108 397.3195768607502,147.48938438808702 397.05684059188303,148.12529471038403 396.4600740492738,149.5717529631162 396.7325711063991,150.02739058306946 398.39572892067974,151.20693655950066 400.19161332954616,152.5668055516212 399.2049183908554,153.52698535943787 398.30773088649886,154.12370158873725 397.07364524795184,155.05872472583206 396.23789033344923,155.68623272013045 395.3923243174502,156.59469041296987 394.145660343578,157.95873541241693 393.81721485073183,158.5610867359577 392.1037436950075,160.79444564862789 391.17717319939993,162.22978465287827 390.95217193636523,162.75807473785852 390.69079412765024,163.37023716300297 390.566419547789,163.66230610999006 390.2561371711638,164.38762324000155 389.6580121682594,166.27019753620652 389.1254957625713,167.9319465768821 388.26463449079966,170.4601919836422 388.2115036021459,170.59855367257666 388.08566993522675,170.93117517274936 387.8606686723351,171.52099847431055 387.65523929934096,172.06604290197825 387.34218968903,172.8878107075149 386.52178034368137,174.6487776575086 385.7810673311704,176.1679890019232 384.855855295715,177.57676256188242 383.59761925328644,179.0917475856249 382.32202510802335,180.62771327272694 381.3563108326207,182.04061252670286 380.16272743387793,184.11749694749167 379.68198345654844,185.00074765626366 379.0712298050805,186.45424977677075 378.70082298537216,187.21453467907205 378.6282208337265,187.36270746957445 378.1334394341569,188.380093546573 377.577175131352,189.52195483030275 377.5310881105089,189.6169967322586 376.6352087530662,191.4562009281394 376.05771222020945,192.24778072882407 375.6456962673084,192.81189391289766 375.34381621864605,193.83773263127622 375.32847064963516,194.21090668463455 375.7127639514395,195.0103353665879 376.22153245986783,195.6462456888849 377.0838528186973,196.4945789387127 377.9168404993712,197.04098182660408 378.0090648541527,197.10110626961574 378.66172951924443,197.5301784453136 379.66658757415615,198.18842789122965 379.842734582519,198.30445045654508 380.6491065056276,198.8341493150946 381.58267055580757,199.96338195011782 383.01101600555705,201.51610197990735 383.3842403721895,202.18838884806345 385.53090939762836,205.98835427272644 386.3974057636771,207.1721265698655 387.23180221788454,207.9352290192696 388.19329017268655,208.69833146870943 389.74882774950737,209.65851127652613 390.5259173078417,210.35026940781708 392.9842774832963,212.09589078865687 395.256729862273,213.6905218318557 395.75010248830904,214.03713044095863 397.1630520556663,215.01547336503205 397.7891512764311,215.4375519862648 399.43973075524354,216.54862150499554 400.27971199034675,217.0294157957064 401.11828445191645,217.40253953571911 401.4760123095369,217.5730514498048 401.801640255173,217.47941832141822 402.43895935111084,217.15379037571063 403.31526681879905,217.1342184858846 403.8533176920016,217.12304892409296 404.705877262573,217.41788510487302 406.77290026826955,219.652652791041 407.27462490903014,220.3277068929901 407.8504611017326,220.9957674404741 407.86273755705577,221.01951533762667 408.30046362737295,221.86925736098797 408.6582921117561,222.56247457919383 409.1865318833193,223.78956666327574 409.4660224950169,224.86008362882086 409.61001927815704,226.14448260877583 409.5317820322342,226.87402605949518 409.1865318833193,227.86238133848315 409.1739535479941,227.89845600430445 408.47520186220225,228.92429472268302 407.97765322880394,229.42043458247628 407.5541155207278,229.8802482097918 406.48359855507545,230.57905020889348 405.6282717508183,231.18421907957284 404.6960661609336,231.77394175444283 404.3704382151545,232.00739565867875 404.27680508683943,232.45739818442632 404.18317195838137,233.4035908833128 404.2307180659963,234.6292741938254 404.3858340976897,235.6676912475649 404.4864607804342,236.00026243439203 404.5870874633216,236.3343430214796 405.2090106767241,236.5830921814881 406.4682529860645,237.0024035689636 406.63871458676886,237.11138226646833 406.42070687830653,238.19729511451294 406.50452890526816,238.83184697658626 406.60797313522266,239.61029499518006 405.4731557192679,239.99886493100212 404.87498040298215,240.19589197603335 404.3383383033131,240.37198867105062 402.05466604930643,240.97715754172995 402.94209276540494,242.92398197492753 403.2048793476535,243.50117662781793 403.6241404218907,244.29225329508247 404.712820503621,246.30896295951405 405.08322732318635,246.5815103300207 405.50807317817635,246.89450962705752 406.19147929481426,247.34461277946053 406.7198196931401,247.79461530520814 407.7302625290906,248.33825095930655 408.7086054531998,249.93710832321324 409.1865318833193,250.68843745075011 409.66174139313426,251.4353390042325 410.1592900263896,251.99437054086616 411.0132080572562,252.75465544316745 412.63022853745537,253.65611958154176 414.27517292199065,254.51003761222958 415.79020825915023,255.2605617263085 416.97116300904344,255.773455928825 418.4162628016234,256.3016957004954 419.00744456333683,256.4708491543574 419.97039160491073,256.57982785189785 420.82571840916785,256.702894285024 421.8040110198957,256.79647710010073 423.80960143588123,256.84261443418217 424.2442080791293,257.1221553591539 424.3532370901226,257.38625008831633 424.80323961576295,258.22482254988597 425.3385232551368,258.8201803189974 426.146303951779,257.62387999987874 426.5474522230335,257.80837902289466 429.7703236214972,259.28698750074227 432.4382891773082,260.51267081129066 431.81636596404866,261.50640961782784 431.55222092150495,262.20098529622163 433.01452787677545,262.94728308962846 433.64445091151913,263.26873502800953 434.03297053392413,263.68804641544926 434.4522819213997,264.26242352120113 434.8254056614124,264.6509934570589 435.1817750587377,264.7753680370632 435.74221536890485,264.75997215459944 437.6527135696604,264.6509934570589 438.53878182546373,264.6048058096319 439.7659242229627,264.5111726812096 440.60580483130326,264.5727058977905 441.8175010330287,265.02134996331444 442.34166542399225,265.4112280460146 442.9160425296368,265.9702595826125 443.505865831341,266.6271505683049 443.75461499134946,267.2015779874023 444.17387606544366,268.2106120497121 444.33598565156643,268.6704256770276 444.4072796562982,268.87032058250725 444.4813912082401,269.3384862245116 444.48410812868747,269.3524733334418 444.2521636247478,270.37690327825106 444.11244347558966,271.16792963217006 443.81609789444184,271.89752339619923 443.5519528520411,272.55018806121944 442.910457748741,273.567574138218 442.4590464495671,274.2510305681658 441.76024445039394,274.73182485884087 440.84343474304444,275.4459221137509 438.12369675873185,276.92045521096315 437.73100112882156,277.2544854847052 436.7666956270955,277.70307923688347 435.874992277015,277.9085589232589 435.8190941546755,277.9210869452743 434.9959175754981,278.26211077348137 434.2649653513882,278.85188376169697 433.1007649440394,279.9238095008114 432.17696168211756,280.44238911091486 431.4781596829444,280.6743839282359 430.68572455545615,281.00142064751276 427.78007877466564,281.9783044846713 427.112068540563,282.1655707414802 427.42235091718817,283.3144255796393 427.8276751956619,283.88321790445957 428.3559149673681,284.6127613551789 428.46353520454187,284.86996315653164 428.51948364026276,285.00409852479396 426.8185908200066,285.96281924569575 426.8101884919007,285.9670455663679 425.97025757017883,286.26193206049356 425.52025504439547,286.41704809211546 425.02265609775884,286.572214437083 422.9025022032655,287.0459648599474 421.82363322303155,287.28636200530286 420.0361008287467,287.76715629597794 417.2548296279604,288.8852193691738 416.44282261071766,289.1898666515218 415.4114494247173,289.57561904024107 414.4485023831434,290.0103263101803 413.9858712087966,290.110952993032 413.29828908479635,290.25907547022456 411.1068914989526,290.25907547022456 410.63867554356693,290.0564133309519 410.3940520776824,289.95020186720444 409.58903861472595,289.6021844845322 409.1865318833193,289.42759718977544 409.13486008172333,289.40515743950095 408.37457517931483,289.0487377288301 407.2005636704696,288.37645086067397 405.19502356772244,287.522583143296 403.90780704066464,286.98729950385064 401.97361125617357,286.18369481457074 401.5920348748166,286.0271700093796 399.3153561752393,285.09637319295683 398.7689029740738,284.8559257342916 398.57741039641405,284.77069493390366 396.55788318495115,283.8818091308903 393.62295503938634,282.5625430053367 393.1659589591736,282.36682410718356 392.93255536846203,282.2676061978654 392.1568745835183,281.9350350110383 390.8500861667059,281.37736193466407 390.4518560692812,281.20267401321615 387.88159902252784,280.0733910648831 387.1884321176318,279.82600036506255 386.7440143727443,279.6667083261141 385.7768913238081,279.32145817723483 384.92855807398035,278.8337206454402 384.2395671765896,278.43684900823916 382.53027202822756,277.9406588351003 382.0229626065711,277.7548013518607 380.39753979840907,277.160802042973 378.96220079408715,276.63532950509557 378.1306218870899,276.3320406829713 376.95666069148297,275.90296850727344 376.4549360508654,275.7199285711724 375.96015465115283,275.54654879660256 375.20409606948795,275.2796365203373 374.81557644708295,276.24258356191126 372.9204238154813,279.44170706325815 371.718488402157,281.34380293590783 371.2992273280628,282.06917037930066 370.977775389646,282.62261713500277 370.71498880739745,283.07679566807684 370.64233634237047,283.2012205614267 369.98549567005944,284.3374467508793 369.1412881140696,285.7965336522822 368.33350741757044,287.1899616431233 367.2587641313175,288.893772637245 366.98209106682987,289.3324043477828 366.77520260692086,289.8984797521914 365.8528081183896,289.81742495916575 363.0533738013823,289.68600651135085 362.7725247296754,289.6734784893355 362.40357699688195,289.46799880296004 362.3210631169772,289.16053397347343 362.30053527369216,288.498209146922 362.25958021374186,287.17174821352097 362.24418433120655,286.3653259771025 361.9437130562208,286.3122957152471 361.3762791916243,286.2256058279801 360.49021093567796,286.20744271172333 359.8879099255543,286.24236017066755 359.2156230573267,286.4380790688207 358.06400098544606,286.7553046865296 357.0730797260117,287.1270196530088 355.56096256268194,287.8915308759822 354.83418634579135,288.35270296352144 354.19545847631997,288.7776494452026 352.4930562557676,289.5646004184862 350.9425500130768,291.919516364022 349.4111125266132,292.45686285045787 350.88514249044107,294.35367582228525 352.18679894650364,295.0491571408282 354.1585787971122,295.85517687051765 353.947967149844,297.5147624375116 352.55036315178364,297.0083083426945 349.31526561123513,302.17659540082224 346.405695389846,300.99091119676524 339.48247898265913,299.45761211672925 339.61002330325687,298.60409659277036 338.53794662406995,297.51355491732465 337.6190740695155,297.8296736415021 335.9401178662209,296.7271070774612 335.13047557589914,295.60104418296 329.6650379232371,291.9863324814252 328.6259667960407,291.89476220002916 325.61929182574096,291.1740738974188 325.3309963793157,291.96298709100165 323.5543316668204,296.82411119971636 325.3309963793157,297.259170663039 326.82434666613443,297.624948655239 326.7272922306052,298.2541169897989 326.7900832807544,299.3097412063004 326.89765320468985,299.8269623561444 327.0067325289215,300.1078617413399 327.2037595739527,300.6138127027368 329.09886189217303,303.45234048608637 329.78372709558283,304.5298510060966 330.0379100966291,304.8751011549758 332.195949937099,307.805802979797 333.3922502562891,309.0874347259948 334.3692347201031,310.20972411986276 335.9331243116485,311.78055695259917 336.35520293295275,312.27674712573804 336.6319263108217,314.4304097055705 336.6989939948099,314.6708068508902 336.8275948955577,315.1390228062401 336.8485755589888,315.21308404480067 336.99805649626205,315.7553109253655 337.03302426855186,316.09638506691823 337.06094817303097,316.37310844478714 337.0986831791495,316.7350626230082 336.940749600389,317.6826137821184 336.8988889004325,317.9314132554725 336.8037966850596,318.12708184027997 336.21679093070844,319.34295404922466 335.37127522794776,320.7377405002894 334.8429851428603,321.6266263033028 334.5900096622512,322.0542897054314 334.4195480614038,322.3407738715227 334.22382916328644,322.67203691147165 333.46495303455447,323.950800797221 332.5928718876099,325.41829002662257 332.46985576775785,325.73415718410786 332.28535674481344,326.2120836143345 331.91087454450553,327.175080969254 331.7291930686282,327.6432969245682 332.2602503874014,328.3168919396382 333.2916235734017,329.746646162957 333.4468402315718,329.95071707579893 333.8395358614821,330.4636112783154 334.420906521699,331.5788568044084 334.44888073955946,332.4216555866502 334.27137527090144,333.07713779877326 333.95133210616115,334.1518810850262 333.6857782900839,334.6536057257511 332.6515875570165,336.39500078588304 332.60962623029735,336.46488601715276 332.11630391764265,337.2824778153271 331.8843091001786,337.76463056622595 331.8087887747032,337.99803415711625 331.8172414161904,338.2467833171247 331.89547866211325,338.71082326511237 331.9318048945552,338.7960540655003 331.9416159961947,338.8253867435487 332.04923623351146,339.12726679213944 332.47549086203503,339.67090244623785 332.8877583816998,340.07205071745665 333.30143467489813,340.4270113412126 333.3489304692748,340.664641252775 333.33640244733095,340.818398824209 333.24976287330225,341.0000803000863 332.8947519361292,341.34387136205066 332.60268298924933,341.62477074724615 332.5928718876099,341.6359403090378 332.28681583172835,341.93087711650907 331.95837033888216,342.248102734218 331.04015185785613,343.1328125298691 330.59432533943504,344.7246763393107 330.35951297490396,345.7239496133981 330.1569011491199,346.3514576076965 330.1054809141447,346.8028689069776 330.07302880877694,347.08658583927587 330.0297090219056,347.470879141116 329.977936593547,347.9223910670883 329.923447244884,348.73711500481426 330.28409327619124,349.6637358139104 330.889211833525,350.87543201549283 331.0932827463669,352.4868677147604 329.8452099989612,355.2331711432569 329.20094766197536,356.82780218645576 329.02902697421314,357.2582328223773 328.7061662622628,359.0527587710558 328.4643603434453,360.9954575102724 328.4839322331998,361.83538843206577 328.5216672393184,362.6026668888322 328.609765900119,363.75006264011216 328.66561370907715,364.6962553389986 328.56081101897047,365.44537067950824 328.4350276652897,366.1595685610736 328.3874815576747,366.72836088592965 328.3874815576747,367.568291807723 328.3190554133913,368.68776365448815 328.1876872789577,369.6003973546541 327.7376847531744,371.33620763389024 327.6663404350613,373.520661978686 327.56571375217385,374.86649354853074 327.4665461562013,375.4395625073687 327.6132095465505,376.91399497792554 328.9647265239107,381.38629758409024 328.96195929022497,382.215058944092 328.88925651181665,383.19616910192264 328.7299141593796,383.8223186359973 328.80538417161665,384.3477911738747 328.92563305763997,385.1751940736528 329.1408232188922,386.6691984339999 329.26519779889645,387.5343363398607 329.33508303009467,388.01648909075953 329.2703800730275,388.7306366589794 329.12260978928987,390.3616945613829 328.8472951849545,392.79348929261783 328.87949572355853,393.7242861090405 328.9674937577394,394.1784646420789 329.0485485507293,394.6355110356372 329.1659295763042,394.88008418831913 329.3882139187485,395.2727798181579 329.5475059576612,395.5788358740395 329.5964608389527,395.7619764368674 329.5684363077109,396.119754607762 329.53633639586957,396.3950692120259 329.44129449387793,397.21542824402894 329.0597684259023,399.329997357555 328.9535569621191,399.99800759169335 328.9004260736083,400.86037826376116 329.38539637153843,403.37463656159105 329.6705220773702,404.11957589473843 329.80189021194684,404.46195818316926 329.95564778334506,404.86446491457593 330.0897831516074,405.21248229724813 330.25053427743495,405.6345106051353 330.85565283476876,407.2124376189923 331.2455812308503,408.04955099368283 331.42867148026113,408.3765877129597 331.7305515287804,408.91468889954365 332.06181456883667,409.5031034275355 332.6222548790039,410.50237670162295 332.6222548790039,410.651907952349 333.430035575646,411.9377157058733 333.430035575646,412.5666324737052 333.430035575646,413.28354727571804 333.430035575646,413.679110766041 333.1001813092663,415.2038565780058 332.5928718876099,416.7593941549339 331.72496674802755,418.25204005505736 331.2749139088629,418.7453623677478 330.3762673177344,419.7236549784756 329.30293280501496,420.62094310948765 327.48048295182167,422.2141653791529 326.89765320468985,422.87804991927464 326.289717100146,423.56568235658466 325.5503625479302,424.3441303751427 325.3309963793157,424.6918458777414 324.1304194261436,426.5942436304646 323.6874104547896,427.6676284564939 323.501552971693,428.2280184533155 323.3659585165158,428.48657871492765 323.1940881422779,428.73256064114315 322.9956020101888,428.8681550963204 322.8600075551546,429.0539622662144 322.8264485563983,429.29581849844897 322.81115330062573,429.39921241509364 322.78594631659405,429.74441225062725 322.61266716867965,430.0281291829255 322.29262400393935,430.28663913119215 321.84845782567254,430.65845472432676 321.45269308207446,430.9897177642757 320.81673244643184,431.3781870734424 320.7245584048887,431.43413550912754 320.20462033466873,431.8394094743272 319.6707454686854,432.4739613364005 319.05994150383617,433.1978696928785 318.94537802532835,433.33200506110506 318.3485611693378,434.042026935344 318.1180254389317,434.31452399250503 317.4918759047855,435.0580545521546 317.23054840945184,435.5024722969706 316.9719881479469,435.9441228080294 316.74416933784516,436.3326424305416 317.4024187838327,438.54507099312633 318.12501899336104,439.5778529526244 318.3919312695905,439.96083810755067 318.4297165890904,440.0139186827874 318.5582671763139,440.19836739245767 318.92857336925954,440.7280662510072 319.6399537037579,440.88041504883614 320.1528982195485,440.99085283325576 320.1864069049234,440.99784638772087 321.53374787506436,441.02722937911483 323.926398826683,440.96710493610317 325.3309963793157,441.0969133570022 327.5266202859031,441.29972643631163 330.3399410851494,441.4171074618508 331.65649029036285,440.99925516129014 332.8248667049309,440.4737826234127 333.48311615077546,440.17884581597724 333.69141338436106,440.0852126875907 334.5369290869787,439.70786262687005 334.67946678320396,439.64361248987746 335.17424818291653,439.4213281474332 335.9484698808024,439.07471953833027 336.1805150115048,438.9699168481521 336.9938804888998,438.6051451227924 337.32368444204116,438.51568800173237 337.53339044916027,438.63452811418637 337.69268248807293,439.052380414747 337.8576096212628,439.48703737134065 338.01131687927966,439.8895441027474 338.52003507446966,440.905571719558 339.02880358304094,441.77352717252165 339.3879905274333,442.37165217542605 339.6884114891807,442.8496289189626 340.0476487469544,443.2088158634264 340.9518801191217,443.81816074146803 341.2803256118249,444.05855788678775 341.4899813057056,444.8355971318122 341.78904380715784,445.91174919159874 342.05877363045437,446.48059182980035 342.38581034976704,447.89354139712185 342.7449972943024,448.92219766260325 343.02031189849475,449.51197065081885 343.22297403780317,449.6169242810338 343.82950136867044,449.9312820382586 344.517133805909,450.3491343388192 345.2955818245385,451.0674579144013 346.07402984316803,451.5454346579736 347.38917027470495,452.11427729613945 349.254990228151,452.75436362579876 349.4841674984049,452.93186909434957 350.0627709247931,453.3818716200614 350.35483987181595,453.59716240804056 351.55964314558867,454.48876513150134 352.12843547048044,455.0869907610612 353.6238486043611,456.8814663964298 354.37291363159665,457.8067287452665 355.1877381960495,458.97087883923393 355.36524366456456,459.2252127801383 355.4505247782981,459.33288333080066 355.71190258701307,459.66550483097336 356.10459821678035,460.16305346437167 357.01159682277637,461.67662971454484 358.23868890675107,463.5004883412717 358.5978758512864,464.3082690379139 358.8969383527386,464.96656879713976 359.0171872387619,466.04267054361645 359.0171872387619,467.29773684552305 358.9962065754738,467.37038931055 358.8074812316428,468.04549372580897 358.5657256260637,468.26767744156206 356.26107270862593,468.26767744156206 355.4532920119838,468.3570842492765 354.6762527670308,468.50525703977894 353.9257286528804,468.7470629587036 350.4639191960476,469.64570954993934 349.0453345344132,470.0146572826256 348.04747003393084,470.273217544202 345.95247281023086,470.8406010954887 343.2271500450224,471.73089567207137 342.93085477739896,471.8273463475965 341.96654927567283,472.33465576918144 341.487817831881,472.58622247632854 341.0930090418134,472.79306062292767 341.03716123285517,472.8336131761491 340.55078216110553,473.19556735437016 340.2852283451712,473.3912359391777 339.5962374476375,474.0788683764877 339.1182103907554,474.70778514431964 338.8778635587098,475.24583601755796 338.5312046362613,475.71405197287214 337.8911686200191,476.22553740181934 336.4837535203193,477.0696946443206 335.3475273308309,477.308683016071 334.72419534375183,477.31285902343325 332.71442892040403,477.3394244676887 332.15403892376116,477.42329680785286 331.48461991598197,477.52251471713527 330.7844091432753,477.6259589471255 330.4587811976392,477.67486351499997 329.26102179167714,478.0033090078461 326.07588539904594,479.5113004771235 325.3309963793157,479.8748143689149 324.26324664749205,480.3960102727746 323.4567740977638,480.8795214838971 323.3142867149199,480.9648025976306 322.37508757046277,481.52801014155506 321.319865860726,482.4238894990335 320.52048749204675,483.1534329497171 319.8062896104813,483.8060976147374 319.5323334664411,484.05484677474584 319.13546182931157,484.41826003988183 318.53869528655935,484.99127868540995 318.22700413640064,485.2917499603957 317.84406929474846,485.6578801459791 317.63999838190654,485.85359904413224 317.4541912120483,486.03246297290667 316.68127766107625,486.78016953984707 316.2298663619024,487.1323629298458 315.74207851661913,487.5125305376692 315.4541855769586,487.7375318005609 314.1851824795031,487.8758934894596 312.70093890741407,488.2755826737635 313.21242433628976,490.2531988719243 313.5381025954502,491.51525872829603 313.5381025954502,492.0239266101404 312.6450407850745,492.64730891042205 311.74357664673596,493.278992912047 311.5423232809611,493.6102056386861 311.4891923924503,494.6262835688066 311.6106487986248,495.0275324666808 311.77295963813,495.5640739396944 312.5220246653655,496.102124812897 312.6114817863183,496.9392885009331 312.6604366676098,497.71356051216463 312.8882051641872,498.5814656517827 313.0908673034956,499.3585048968072 313.72536885208035,499.8421167345851 312.1908622520719,499.9203539805079 311.30197644905854,499.9846544308461 311.07833364631904,500 309.7646019883157,499.9217124407316 309.2810404637761,499.5248408035663 308.9581797519687,499.097177401402 308.6269670252938,498.46262553932866 308.42707211981417,498.1580285703262 308.21882519960997,497.8183632023428 307.78280978282834,497.4186740180389 307.4012837147097,496.87503836390476 306.9708027655856,495.72054843150426 306.6368228050819,494.82894570807923 306.57523927522686,493.8603635722639 306.5584849325394,493.603212084221 306.5011780366663,492.6962134782965 306.3628666610417,490.6710511724849 306.265007211983,490.11061086231774 306.1951219807848,489.8716728038772 306.0889105170015,489.5068507652077 305.9002354865519,488.86258842822184 305.6948061135577,488.156792874655 305.5284702068343,487.58800054983476 305.36636062071153,487.2232288244751 305.10920913274015,486.64598385827486 304.93728844512094,486.2588730093319 304.7164631894486,485.76414192307215 304.5907301492921,485.4930033260991 304.021887511162,484.27154633625855 303.97298294325185,484.16810210630405 303.1428128096451,482.3847960327271 302.5614421494281,481.2904305433382 302.34338412772746,480.8809302574664 302.2818509111108,480.7649580054608 300.78502900369654,479.39809545891086 300.25256291124674,478.86557905322275 299.2141961709601,477.80205564214276 298.3769821696857,476.5861331198525 298.18272235834013,476.26749872857425 297.93226254479606,475.8610675565332 297.0534897234242,474.42688575912416 296.6747308891343,473.8077297795146 296.43297528355515,473.41498383633024 295.9591242340353,472.64076213844436 295.91600570040333,472.58622247632854 294.8005589208207,471.1760401428 294.4540006251349,470.7624141629115 294.41762407931157,470.71763528905376 294.19961637084924,470.4577165672179 293.795700865909,469.9741550427855 293.4532682642041,469.5632459833444 292.36036186158714,468.1334917599899 291.432382592303,468.1334917599899 290.2416167407703,468.41303268496165 289.7818031134905,468.52065292227843 289.7496528882678,468.50525703977894 289.32898304064014,468.30817968140207 289.0648379980964,468.18521387496713 288.34651442255,467.50316621858866 288.0767342858721,467.24742350407934 287.2857582452987,466.6212739700404 286.3730742317872,465.6443901328819 284.4443626015723,463.15669727930737 283.6338146711014,461.915618086331 283.5848597898099,461.82756973880447 283.4031783139326,461.5040046400874 283.00484758988813,460.79473746599655 282.31444791882086,459.1539690886806 282.0894466559292,458.551617765104 281.9525440539811,458.18267003241783 281.6100611388949,457.26440123801046 281.46334743530736,456.8688880610689 281.3752487743638,456.6327172363856 280.6135550985647,456.55583845068645 280.18730046989816,456.68162180426 279.6674127129166,456.8339706021247 278.8903734679636,457.0631478723071 277.2677682068686,457.89895310011957 276.3719391628072,458.31257908000805 275.48441181994605,458.2371090678425 274.6220914612595,458.362892421416 274.00303610830537,458.4831413074393 270.6934748225746,459.1232276370629 270.16100873026784,458.03449724191546 272.94217930429147,455.5020255144832 273.1658221068879,455.3021809223492 273.61864217973834,454.8982654173732 273.94708767272755,454.6047876968168 274.59834356414274,454.0234170366356 274.9715176175368,453.82357244446575 275.3921874651645,453.59716240804056 275.6535652738795,453.457341632227 276.08817191712757,453.22398835468226 276.58431177699237,452.95843453860493 276.90163802128524,452.7879226245193 278.16641479814007,451.80963001379143 278.6206436445241,451.4867693018411 279.36271511733025,450.95847921686084 278.454358051039,447.5874853412045 278.4501317304384,447.57349823227435 278.31876359600477,447.157054705283 278.19157146879047,446.7587239812028 278.1454844480904,446.610601504046 277.4592607843854,446.58680329354786 276.77721312804266,446.56305539639527 276.76745233978454,446.43591358259806 276.6947495613762,445.4421747760609 275.82266841443163,445.6798046876233 274.2671308374678,446.10465054264904 273.77239975113656,446.18288778857186 272.63753202194346,446.36175171734635 272.0030304732157,446.462378400198 271.759866094103,446.5015724931599 269.49158972263166,446.8593506640545 268.9213886242063,446.9501662453382 268.2686736458763,446.99071879852386 267.62159376168034,446.5616969361716 266.8542649916041,446.0543372012053 265.9891773990889,445.3192089696259 265.50979188191155,444.91106714394203 265.0695501443863,444.5379434039293 264.4714251414819,444.0292252087394 263.22752840143846,444.05438187946123 260.64343518568444,443.3960821202353 259.61477892027455,443.40030844090745 259.29050943479064,443.33882553767205 259.0040252686636,443.0131472786189 258.77902400577193,442.6651298959467 258.3708821800881,441.78887274167556 257.77829164484115,440.8902261504041 257.12421820621586,439.7651695227431 255.18720487465777,437.1572277831811 254.7679438004206,436.56468756120825 252.63662034427864,436.03498870262297 252.24810072173062,436.05456059244904 250.38223045490327,436.43050187960034 249.32846783208137,436.80644316675165 247.5423945247114,437.07058820925965 245.4334101920097,437.1572277831811 244.63815751745437,437.1572277831811 244.63815751745437,437.89099755457255 244.59765527765012,438.64428890240873 244.34885580426027,438.8832772741949 243.64170179050555,439.0258149704558 242.44675993161061,439.21313154061033 241.4754105619308,439.3310660129152 241.28396829779538,439.354260463302 240.7025473243401,439.54298580699003 240.32519726358373,439.80989808329105 240.02613476213153,440.3437729491671 239.7438266033668,441.0033808552711 239.57049714221404,441.4590184752601 239.429317906141,441.6155432804513 239.131613864841,441.8196141932575 238.8325513633888,441.8671099875626 238.58098465631323,441.78887274167556 238.03035544778547,441.3178895525684 237.3231511205064,440.3437729491671 237.16662631542243,439.9831772311697 236.91505960820388,439.66876916056356 236.63275144958212,439.48004381687554 235.95633888737356,439.32351901168437 235.58039760029376,439.32492778525364 235.20299722615607,439.40316503117646 234.63561367494083,439.5555138290054 234.63415458802595,439.5569226025747 231.56785830802752,441.27039375826325 230.94452632109142,441.5833930552643 230.00955349737794,441.7902815152091 229.471452310794,441.30807845096473 229.3610648396485,440.9391307182785 229.471452310794,440.49471297346247 230.43721689943501,439.40739135184856 230.96973330512313,438.4192876395528 231.2995372582645,437.73583120960507 231.55804720653109,436.96996152640793 231.53711685633834,436.41515631048213 231.23669589473394,435.4549765026655 231.01023554492738,434.94625830747555 230.58116336919377,434.40398111356507 230.00532717663432,433.9735504776793 229.23945749347297,433.8169753591425 227.9006194780576,434.51436858467486 226.66930107319632,434.7380617006527 225.58057067822762,434.62621514266374 225.10682025518446,434.4864949935056 224.5044186182981,433.8212016798146 224.5044186182981,433.44103407199117 225.2143901792629,432.40261701825165 225.69518446983076,431.7695745564031 225.58057067822762,431.1587705914823 225.27622527588164,430.65845472432676 223.76647283961586,428.17629633833826 226.07816962486427,426.3804119294003 225.6686693390282,425.5865680283785 225.10400270811738,424.4908943920758 224.26125423918543,422.29104416485205 224.04042898365603,421.1604027562953 223.81542772076438,419.43017725791924 223.69940515548467,418.32610129361785 223.10268892625683,416.5986933423804 222.62189463554597,415.21085013243516 221.45628545466366,411.6693946560388 221.3752809749121,411.39820574575583 220.6191217664845,408.8587907772041 220.58838031493835,408.8042511150883 219.61703094540152,407.0656736020592 219.5206305832577,406.9273119131247 219.24531597892235,406.5374338304245 210.67383450660571,407.5129088940138 209.8535257880197,402.79321558802854 209.73468567552996,402.1070422376334 203.98080163658463,402.76524137020385 203.37281521865944,399.06721077527067 212.57316314542663,397.87649523704783 212.44597101835532,397.1246126627452 211.76397367525095,393.072979904244 211.69972353832986,392.69844739066195 211.0143048880113,388.7306366589794 210.83876163979556,387.71460904220453 210.64173459476433,386.5783828527162 210.07570950370132,383.7146983986805 209.91078237051144,382.88176103135226 209.79757735229884,382.30733361225487 208.7340036278375,376.0013612777596 207.82559624845092,370.493459164994 206.7578465166273,363.41467390614645 206.65857829389208,362.7550156866968 199.54764280992902,363.5996760625825 190.4465127925157,364.6794506829655 190.13069594823304,362.5173857751344 189.5841924336862,359.52515073373223 188.97620601590404,358.0059897026632 188.39201780862,356.63771838254405 186.1810483328787,354.7048810582409 185.92384653152595,354.48123825560873 185.35092851265327,354.15561030990114 184.16287958156798,352.98859235548525 183.79121492847014,352.6238709434712 186.30124690552066,350.5721935067141 183.0532691496449,347.7140938335743 184.1122140465979,346.8028689069776 184.98751524751728,346.04957755910567 184.77091631258853,345.49889803719657 184.70938309611483,345.3409644584361 183.13714148984488,343.947536467595 178.95816566423554,346.8028689069776 178.0847763703771,347.3996354496583 177.63195629752667,347.89159930212503 176.94432386014515,348.6393058691011 176.01911182468976,349.278033738501 175.58450518144167,349.67495568904764 173.69916365147947,350.8935951317496 172.473430027514,351.6133777942108 171.57060742902326,352.4477742484539 170.91235798317868,353.5141152066725 170.76005949855235,353.983739935556 170.59930837272478,354.4756534747129 170.46089637048047,354.5875000327018 170.06402473320793,354.90890165773726 169.43088164477538,355.28066693756205 168.96271600277103,355.53781842560494 168.50989592992062,355.78802667249255 168.46240013568698,355.8131833432144 168.1018044176181,355.9627145939405Z"/></svg>