<svg xmlns="http://www.w3.org/2000/svg" width="500" height="500" viewBox="0 0 500 500"><path d="M7.279138083544339,421.93459683208437 4.87982574733285,416.41384173717915 3.2036870128775816,410.6728923605806 0.8055013103484089,400.81601655735426 0.0381803615701278,395.93856925876133 0.06743110844584482,393.18687096289676 0.06743110844584482,393.1865371455303 0.08570760940194506,391.45519336372496 1.0014521055151115,386.0399662844571 1.2239831088628113,385.10807337305096 3.1075058835316307,377.22973311301223 4.347679134802575,373.7258191043586 5.650526596920888,370.04915460752414 9.984769582655574,358.41424231803245 9.984894764149477,358.41390850066597 10.157061071916784,357.9517800811051 13.474329444401905,348.86452022098865 13.797756747371269,347.97781783584895 14.46655984514923,344.75209887669416 14.99273947234617,339.1062039957889 14.918548562162213,338.18929113881893 14.705322717990633,335.56744779931904 13.45930766276166,324.9270191778207 13.246123545794244,323.64161367316814 13.246123545794244,323.64127985580166 11.96868793085185,315.9371505349333 11.12024936157203,311.53493398760264 10.915076861518946,310.46972276467307 7.654557441633427,293.1680102815923 6.808664229791616,288.8689433011293 6.808539048416309,288.86860948376284 4.162243586546852,275.42019261263107 1.645844808305567,266.1358970507215 0.379007894801081,260.7345651194412 0.19006726424169865,259.5592358920332 0,256.2059986981088 0.1566438002700458,254.09643983775894 0.1566438002700458,254.09598083889853 0.18885717626964577,253.66180962395163 0.7174152520879284,247.74230968238865 1.1706140570729648,242.748986029738 1.0975915077754919,238.16826064461745 1.0941281525574023,237.90863418623707 1.3584280540686267,231.58696776994316 1.7744896767575191,226.68519353062283 2.1895081201724276,221.3823377230497 2.49874818499189,219.32381119289462 2.49874818499189,219.3233521940046 2.944060554437904,216.3588870528881 3.736751623306534,210.5645686244997 4.415986513824334,206.55992856308856 4.792657686971046,201.66161767898632 4.900438969943319,200.6995560228948 4.95030293931091,200.255620649941 5.358311217999902,196.6068299033714 5.925091382592479,194.64448450253263 7.586083153913599,191.4894930983437 9.964531904645408,188.6995309865896 11.853854756068092,186.9597583162434 12.60953382413448,186.3153238863081 14.675988516706584,184.5511408208558 14.676572697090526,184.55068182199543 16.551583128869407,182.9498606312582 16.552083854963612,182.94952681389168 16.650142706955297,182.86586383589284 20.010473519984327,179.95305693255924 26.658988867202236,175.17416921202258 31.827358002454343,171.26454191913018 32.9249912373154,170.4346302138239 36.318787241520255,167.30392402315823 39.38114432596001,164.6043846911411 41.72249762159984,161.84459132410205 44.8578355282515,158.70929514462492 47.16326172956724,156.258950478189 49.38986530471305,152.69361407374566 50.487540266778275,150.48670572331164 50.55117420260989,149.7785121759915 50.55117420260989,149.77805317710147 50.751798441085334,147.54610852403255 51.09141588646283,143.79183148900017 51.32442040963594,141.57428270992406 51.32471249982791,141.57052726454367 51.4692971475816,140.19515797907383 51.410128019037884,138.82629813229502 51.39393787662976,138.45425867507498 51.32471249982791,138.13905162486287 51.32442040963594,138.13734081085593 51.05427870416669,136.90684826333177 50.0726052776531,134.76716238547098 48.563416954595226,132.19860464341193 46.558217749114796,128.5961727838766 45.991395857318054,126.77065077695394 45.61355632340346,123.20180929014764 45.198579607074116,119.35477275384254 45.1974529735104,116.13022215545563 45.08003271408447,115.00588353112721 45.079865805504994,115.00542453223717 44.74421244143979,111.78942800394437 45.008512342951015,109.24407056898968 45.34812978820992,105.1536394438572 45.79440188275878,102.14577804483031 45.913783319238775,101.33789828586056 46.06558676750201,98.35553218835862 45.76306477733509,94.73574182564728 45.19628461274251,90.70673309633419 44.78018126284945,88.81282025604075 44.44056381759055,86.26746282108607 44.10094637221306,83.47754243653613 43.909585565828166,80.2332131590884 43.90946038421566,80.23275416019835 43.87374192579381,79.62700081786807 44.0997362843596,76.68177190260297 44.02441874061192,74.79478577271607 44.06155592278947,70.94891759717885 43.94910119674565,68.83940046400353 43.44954350481528,64.6585882863679 43.38232103227167,64.09527147699342 42.43878624012405,58.54438936457727 41.87204780273564,54.015822943274515 41.418807270665035,50.53740423614587 40.66308647539448,47.34990736567642 40.294510373451836,45.46058451422409 40.294343464753766,45.46012551533405 39.87027022515054,43.286139902866424 38.92556707235363,39.19337205616851 38.28351109109895,36.52053811361872 37.490694840855014,34.324103283099056 36.894872565288956,32.08473119355904 40.93660808179209,31.45298182366889 46.80507569316027,30.475898385996413 49.744546258816364,30.00417271712677 51.32442040963594,29.750888788739328 51.32471249982791,29.750888788739328 53.9241900756248,29.334201258491976 55.5863502078324,28.812611620195444 55.82861816297747,28.736083988446065 56.227321282490344,28.33738086893319 56.79067981906899,27.772937425935687 57.02940096482482,27.548027973907345 57.89640812513412,26.728589788545086 58.3902074675148,26.1895581927235 58.930323969755236,25.91949994160328 61.00278737510203,25.603124530593647 61.101263498779595,26.198863351869967 61.76197152535349,26.767980238027967 62.49219701903979,27.121492831274445 63.35106738105945,27.230484202100175 63.50754427263143,27.21304224460477 64.34329778180677,27.121492831274445 64.80576001876376,26.95925759018242 66.49683708045094,25.78856007879007 67.5214894932187,24.7581075893574 68.28067364347015,23.836646470720808 68.81035835297075,22.636990302615065 69.1082486271517,21.714360823210587 69.18243953733565,21.579874150859904 69.53828885220685,20.929681371345232 71.65594278373109,18.807353996630845 72.61449935740036,17.859229215701415 70.8236943568594,17.749111211252664 67.93062440547142,17.545107071937817 65.83383405942685,17.396766978803722 65.96832073171824,15.735775207393656 66.10739739291003,14.842104384702573 66.59656501930472,11.688239614107012 66.7143190960082,10.687914142185269 66.7143190960082,10.687496870469746 67.07751239300146,7.601271844192615 67.12624972880532,7.182873499908651 71.42644334286165,7.559544673114661 72.36296797028335,2.288025970994854 76.32012251106686,2.5186937726618392 76.7408575768273,1.1602239914779935 80.90084789612811,1.5520004005843364 84.55427035877264,1.9669771168247276 86.09704905450025,1.9944335954037464 86.09738287189639,1.9944335954037464 87.35466426323694,2.016799359077099 87.586458698438,2.0214310750630755 88.63426969113564,2.195308196896642 90.34625206550666,2.3796171114996967 91.59226712073564,2.450302939261396 92.11848847501814,2.4804299567723262 92.62964632057484,2.510556974283256 92.8614407557759,2.523325488647816 93.40856742274225,2.5546208669266326 93.48855840979867,2.6299801378784746 93.53487556965842,2.8293108340624773 93.69598417709778,3.3914592826394285 93.78987031199354,3.491145494318688 94.63947724204124,3.612863652304812 96.23900489048704,3.8782901874390547 96.48014621206839,2.8038155325375236 96.60415936441576,2.453766294479486 96.68064526904992,2.236993640800079 96.78500492388967,2.1153172099588233 96.87421761559528,1.9542086024898169 97.30421611344627,1.9009230050490047 97.84086926046862,1.86378582278251 97.97418757199212,1.7838365630192086 98.0634419909019,1.556632116570313 98.09936908522599,1.1358970507209267 98.15269640981167,0.5134528399475984 98.29527815342571,0.09618112931630189 98.58152654689476,0 98.93391250654787,0.03939044948288281 100.73514929982868,0.5714118805785531 101.45723799510674,0.9539248577129431 102.0901139986792,1.288910587015516 102.65459916882158,1.7386043095782964 103.17618880711811,2.336721579624207 103.59229215701117,2.9012067497962293 103.87161384016264,3.463355198373181 104.09301820982803,3.910753926545056 104.30282242586709,3.9965032630622206 105.45378298543243,3.987281558264785 106.42973978948189,4.03247208453118 107.33730576010124,4.0741575284346165 107.38015956474293,4.230676147092164 107.25272478426302,5.186895999196012 106.93509755816612,6.874551432928568 106.97682472924407,7.048428554762134 107.1889656669375,7.151578121629835 109.56274097447917,7.396141071225101 110.21881728506709,7.343982107407307 110.36715737823083,7.204863719070647 110.84351476314575,5.354973044246067 111.11590973586104,4.635221070563067 111.35004089271646,4.47523909668743 112.20782634825798,4.555188356450731 112.67604693476466,4.971333433488658 113.11535059167318,5.138242117741177 113.51985378805851,5.291213926861248 114.26514279035203,5.291213926861248 114.68708794420311,5.463922687897279 115.03947390385623,5.608841153017451 115.48570427120092,6.097967052237632 117.60686328514743,5.99940747418139 118.5213142389988,6.088703620265679 118.61987381708468,6.097967052237632 118.8574683290396,6.5615976499328585 118.53061939817492,7.518985862834243 120.86967769936454,8.41228114098432 120.87001151664208,8.412531504031422 123.65609300158118,9.476574366163465 125.26609416997098,10.116377080112814 126.70472184676107,10.687496870469746 126.70563984442256,10.687830687836234 127.23419792035943,10.897634903964242 131.62364595332554,12.550489876995726 132.9554520722462,13.051174202608413 134.48892560891628,13.562373775309975 134.7033615409413,13.634227963898859 135.81493165096447,14.003972426698338 137.68689599921112,14.73190292590479 142.00678483809784,16.427653430811763 145.87697995430318,17.78724984561863 148.56375077207437,18.683215662730266 148.73645953302147,18.74117470333157 149.6648890892391,19.099360739738543 150.88424048211593,19.568749687042764 152.77706841596088,20.081075893396992 154.20968738009486,20.406798190727613 155.18101246803974,20.62816083321848 155.64234807143302,20.671974362844402 155.642640161625,20.671974362844402 158.63623086815295,20.956219852114522 158.51104935491907,21.631949660358313 158.43919516638948,22.02485270308767 158.08447248508202,23.940839216862493 158.00915494133434,24.50415602623698 158.10884115310253,24.827541602002178 158.26414968378805,24.944586316827806 158.36037254021954,25.01648223259121 160.5452489442874,25.206591223948127 162.01496336363198,25.347962879530822 162.2467995260372,23.704413065616162 162.35687580334107,23.47604025839938 162.43920351181467,23.404186069810496 163.39312836949796,23.427344649740377 164.39804383023116,23.452881678439848 171.24597332795247,24.103116185158683 173.14814814817768,24.3963747433833 178.27057566805172,24.937659606450925 178.4880159565234,23.75536194149155 180.62423847919572,23.96391434247299 182.39067481183477,24.106496085998092 182.53555154978042,24.011441590304806 182.68047001481165,23.307838031825774 182.96563350192113,21.7941014471013 183.01311902266738,21.54490678152006 182.97022349082155,21.307270542301676 182.69436516288818,20.951421227460123 181.8841904094682,20.654699314017417 181.7103550148388,20.451863535470455 181.82739972966445,20.025328392837558 181.94214945003986,19.609225043003796 182.06386760805563,19.466643299449046 182.58307879761222,19.66601572280757 182.75578755867792,19.5952881678417 183.0745831455427,18.289019077679814 183.04562448885895,17.95866506436322 182.78712466410158,17.794051374501606 182.04183566168948,17.441707142023013 182.416170113419,13.73612571561999 184.00760269066075,14.29593744263152 185.56661325588206,14.575300852927857 187.10121342623444,14.594996077669299 187.71093084975843,14.535910403415325 187.9543254385858,14.316801028170495 188.10037053729937,13.417371855870417 188.3193964582248,12.75783219000511 189.19921386013246,10.972827266218015 189.38256304972163,10.687705506342333 189.38277168562385,10.687496870469746 189.68370804333702,10.219443192631479 190.4151018977912,9.080541785612153 190.41531053357485,9.080166241071147 191.170780965739,7.903585198546249 191.70860247364783,6.936891826498395 192.10154724349243,6.579915878033828 192.4122060320676,6.377080099486867 193.0948625507179,6.273930532619166 193.79854956354598,6.273930532619166 194.06748118104318,6.104685126771576 194.35723465693448,5.319963947731706 194.46038422380218,4.40313454511074 194.75017942689766,4.012526496772284 195.51750037555735,3.8896817051631416 199.52677215295446,3.8419875486332558 203.24979553688254,4.077328793431086 206.394355148302,4.437809824258612 207.56738938131906,4.756563684008184 207.80031045020243,4.820322801393002 207.75633001187845,5.564443443007586 207.62184333958706,8.542136097349028 207.88322233917856,10.687496870469746 207.88322233917856,10.68758032481878 207.9174386193178,10.968112095883006 208.09361073560157,13.098492814597293 208.2117820841095,14.518384991570887 208.77626725425188,18.002603775483045 208.93624922812754,21.223691018651863 209.12402149791902,23.6299717924444 208.99070318627693,25.21443593210509 208.50620900307237,26.957755412018397 206.9356817385145,30.576377413932203 207.55925258291083,30.878941131303293 207.89419658509817,31.041176372424967 208.59200006676406,31.380793817713517 208.24775090551918,32.019469898039844 207.64617028028482,33.13104000803335 206.96464039531682,32.90963563833832 206.541568607902,32.77285397159673 205.89362909548512,32.56309148267289 203.14777260357857,37.53208819456648 201.5296763641033,40.62916228532862 200.65457413247134,42.305217565494154 198.6250897133787,45.46012551533405 198.62500625908896,45.4602506968576 198.19847111645606,46.123253717911346 196.19323018377148,49.04311251314538 195.36215011766768,50.80838048504617 194.34100278744077,53.48008779397295 194.05805084037314,55.15263799177552 193.96420643268155,55.71132308516403 193.4715337239832,59.00543287768962 193.2084856375296,61.78725819106515 193.22480096143164,61.78704955519257 194.1450519921555,61.762931250308085 195.90347670788017,61.80582678218357 197.60732228408014,61.95416687531767 198.95302355084013,62.10359187490027 199.97417088106704,62.327291238986206 200.74495518506342,62.49536828400661 201.6629529485412,62.69590906816266 202.38508337090485,62.86507101966122 202.79772336557983,63.20356183132675 202.87070418779172,63.460893295286574 202.97852719773098,63.83873282929012 203.49661175372384,64.13779146429826 205.2306678016652,64.81585799410746 207.4757982408735,65.26096172785878 208.25004589996936,65.32355248444607 208.33583696366105,65.29688882212358 208.58507335632788,65.2180661959833 209.04987231482065,64.79265768700307 210.1602740640759,63.26844758233459 211.56159764999038,60.95726303140985 212.28368634526845,60.068223924704746 212.87713017209455,59.81439754310788 214.11621851688736,59.87815666049269 214.88003438324338,59.95697928663298 214.9416236877312,59.96277936341649 216.28381987218754,60.17358503164397 216.84016824404026,60.353220503086526 217.5426034416921,60.579256588737884 217.87988416541523,60.6882062323891 218.25079698901226,60.8075876688098 218.4512960459938,60.872515146962506 220.49367416085593,61.637541101260936 221.50205297680722,61.8971258324668 221.89149266434814,61.99798040494359 224.34296396449602,62.48481130974322 225.18793917843917,62.74293558995957 225.5345250613384,62.8487974229337 227.08189374596643,63.48392669372256 227.8561414050623,63.73779480246429 229.50674311084774,64.2037621217546 231.18851501347737,64.94671440257164 232.1169862967806,65.34892260444747 234.98456094682152,65.94353479213042 237.3363460350826,66.47321950163102 237.60757264703,66.55667384375728 238.29723933040626,66.76764642065318 239.19900522427173,67.04579974297747 239.42270458838732,67.06090497890744 241.41868208898137,67.19301320248854 242.06307479177184,67.10839049956475 242.75975163987397,66.89741792266885 243.26394104790893,66.57290571328063 243.51543070782176,66.4326606913506 244.01966184306087,66.40833375062319 244.29785689253004,66.37582828434267 244.4427336304757,66.35383806521033 244.54821991887917,66.31098426050934 244.64093769300703,66.11624355316646 244.76031912948702,66.00725218234072 244.9318595296662,65.9643983776694 245.23667651428335,65.74649909036698 245.55313537961237,65.38948141472788 246.0433879124852,64.82386961093285 246.26829736457285,64.73691018644364 246.62877839543003,64.76591057033154 246.95562732629472,64.7914058718565 247.1503263065224,64.9107873082772 247.66382087361487,65.55872682057547 247.9443109175342,65.95396658489992 248.1691786424177,66.05594779097008 248.34885584100513,66.05594779097008 248.50529100525435,66.0281157678797 248.7440956054185,65.80908984695425 249.58097574827616,65.12288651879611 249.65395657036947,65.1101180044612 250.43755111584562,64.96991470967603 252.2503046083444,65.06955919418078 252.78349440026727,65.05449568542532 253.16483901660413,64.86672341563381 253.61227947192086,64.77283728073807 254.02141438417357,64.81222773022095 255.55718291529385,65.4080500058463 255.87364178062288,65.62594929314874 256.34770417108757,65.95396658489992 257.8603141221594,66.63900155226052 257.9646737769992,66.68652880009233 258.21382671537623,66.85460584514239 259.2037203945878,67.52224058218212 257.14748885885325,68.99191327426321 255.67660607885944,69.7047802647142 254.33086308477667,70.48716472218865 251.67309265101198,71.79927561630856 250.20220987101814,72.61404035853998 249.14279872493137,73.45092050139765 248.12628311045324,74.60889122562959 247.35896216191216,75.91745531021203 246.81884565955312,77.02789878658253 246.17557959044498,78.37355832625694 245.76177123500213,79.69843773471177 245.76177123500213,80.23275416019835 245.76177123500213,80.87493532288764 245.84522557715803,81.76042762005527 246.07243002357728,82.83143891976836 247.08777727716893,84.79144759904169 247.64412564890307,86.2982992005045 247.45289002389347,86.31219434849207 246.3100245356508,85.74537245672498 245.7883931701501,85.48687263199727 243.60122177163205,84.37651260994616 243.0008095071656,84.30812177657536 242.1257072755336,84.26522624472953 241.96806202331237,84.32318528533084 241.96459866809428,84.51212591591987 241.95646186968605,85.11020145879125 241.94369335541043,85.91228114100714 242.00745247285454,87.75641346619308 242.03878957827823,88.64657920652121 242.10021197406797,89.65850483200998 242.4374926977911,91.72399979971642 242.62296997325097,93.2689900355452 243.2059402801331,95.05866840252244 244.28275165660006,97.94017992757722 245.63537963391482,101.40119840435534 246.16627443126887,103.32874334452266 246.5174920301541,104.85758516517711 246.75274982057326,105.87756413466579 247.64529400967095,110.23342179493251 248.00923839562762,113.74313588036962 248.0198788243883,115.00542453223717 248.02776525969014,115.93848580441113 247.77047552290483,117.43252716439416 247.54677615878924,118.73420626574459 247.48068031980935,119.1143825213432 247.2164221455023,119.78318561915081 247.04371338443661,120.22248927611862 246.97185919590703,120.40446146912662 246.47922821429424,121.6562766010798 244.89130071947474,124.20860247358587 244.42883848251776,124.95155475440292 243.8620165908396,125.76289786859077 242.64959190828037,127.50154390534358 241.60061255493343,128.8542136097439 240.59803381573602,129.7884015155409 239.4575050490291,130.32159130740445 237.53450837052836,130.9602673877308 236.30359855122938,131.41229783185898 232.44033014534162,132.83219000886223 229.3003605228226,133.68526029409838 225.7385292007422,134.64381686779728 225.86600570830765,134.76557675295794 226.50117670621174,135.18280673644438 228.55623988117836,136.3477041710532 229.18448416876484,136.61429906698498 229.22967469494228,136.70818520188072 229.1937476006182,136.76151252649606 228.9503530119094,136.84029342546182 227.09462053315644,137.19614274030337 225.63304291222013,137.56822392469792 225.18793917843917,137.71439420493502 223.80401582302346,138.16859446198987 221.67242501633712,139.17238328910005 221.16009880989395,139.48070535610978 218.9555271811143,140.80787975898517 218.5104651745375,140.94232470416134 218.1395106238549,140.94232470416134 217.87291572789348,140.99097858561618 217.66427987250373,141.05127434781255 217.0870679151713,141.51373658471024 216.10877438958607,142.7806152254189 214.5856491913661,144.33970924507818 214.36658154335507,144.95752173986554 214.46860447654046,145.35163487056695 214.61807120326793,145.6796104351436 215.4643816867956,146.89086675681637 217.09520471357953,149.1022816417128 217.42434863889443,149.4986897668348 217.6565186186958,149.77805317710147 218.001602323431,150.19298816616734 218.81294543750025,151.17011333101433 219.36349373259912,151.59552183999457 219.81093418791588,151.94206599568963 224.12039123394416,154.2857560128949 225.18793917843917,154.9316926209646 227.6069884665666,156.39527314607022 229.34676113697208,157.23795336571138 232.80777961383913,158.57668619497926 233.19262931259826,158.74125815766638 236.6038255470647,160.1947824345435 238.79679702245522,161.22636155759918 239.94658922113408,161.76647805986929 246.08511508356318,163.97109141588274 249.85449735455518,165.47093285264927 254.45145460922873,167.34636055614368 257.95420025705516,168.62367098962181 259.594286715811,169.22174653246358 259.9605678234221,169.33641279854925 263.3358369635644,170.39473903827647 265.3132458732476,171.10760602875712 265.5729140587728,171.20145043647835 265.6795269808586,171.44142339726216 265.72484268853,171.7535426368268 265.29079665519555,172.5166908684202 268.60539448863017,173.16125047987907 270.60554470655734,173.43214327443036 271.73109341882815,173.41662076678483 272.0744663094971,173.40643933703282 271.63061439089233,174.8931784420683 273.1625857492798,175.71244971876214 274.06710563660414,175.85695091216678 274.6070135029424,175.79678033149398 275.3658221087121,175.4594161534218 276.21204913795003,174.95343247709016 276.693497237741,174.17038038488275 277.029108874602,172.96571695625002 277.5251614842287,171.54411396526945 278.1962595764569,170.8453924857642 279.0279655501488,170.35150968906416 280.0238262146937,170.23584197084935 280.9724934489215,170.13974429591173 281.6946655984893,170.0644267521344 282.73438151986426,169.99369919716852 284.3964581977821,170.04005808423247 288.6121125632044,169.7862317026356 289.66109191666993,169.69351392853739 290.1107856392327,169.7398728156013 290.5037304090773,170.04005808423247 290.92559210852005,170.73089312837658 291.20729224041145,171.58513177441026 291.60253200482487,171.9745714619512 291.65698596297426,172.02794051374104 292.3037988417088,172.2133760619671 294.3831889573732,172.12061656069437 294.73323819537194,172.07913975263386 298.8595546875947,171.58980521757076 299.81581626693236,171.3822959958633 300.3200056749673,171.17482850133038 300.4707242167524,170.90823360539858 300.5043563166263,170.2127668452685 300.35134278039095,169.26697878590448 300.33511091077867,169.09656501928902 300.1820973745434,167.5085957972357 300.13106504440793,166.5581760219154 300.12881177704327,166.3495401665849 300.12413833397176,165.97053227181348 300.12180161231737,165.82215045150485 300.22152955117116,165.47785956302616 300.54028341095034,165.28203394923477 301.93927027521045,165.10123011699469 304.99812227734657,165.1649057800601 307.6779246574774,165.72363260062312 308.89151770068594,166.15713618080744 309.3760118840091,166.32984494184345 310.55359437848523,166.42836279272518 311.2363343514253,166.55120758433432 310.17458648368415,164.75113915176212 310.1293959575067,164.3605311034533 310.52926743778744,163.71726503431552 310.7495451738891,163.30345667884302 310.86195817272875,163.0913574683241 311.143157578526,162.52015422361814 309.84110293269384,160.6583713050642 310.3049838932879,160.45357434949284 310.49117053062565,160.8073790329313 312.00736901840946,160.48758199390772 311.8303623588725,160.0215312202684 312.2951613172467,159.73820372874872 312.7489025754115,159.75652195684967 312.7095121258693,159.12493949559828 313.15924757563624,158.901240131542 313.3806102182161,158.8050172750512 313.41424231809,158.78995376629572 313.7492280473629,158.56742276300733 313.8523776142306,158.18724650743835 313.8129871646884,157.78503830556252 313.54985562394506,155.8539882830026 313.62517316781134,154.92672708761214 314.05404503198,153.3341678767474 314.8596297964996,151.7612621634792 314.9210521922893,151.42973978936507 315.0601288534811,150.66821891742958 315.36615592618887,150.4271610501973 315.66404620036985,150.19298816616734 316.1358135963843,149.77805317710147 316.77094286720285,149.2193680837426 317.2357418256956,148.81019144425608 317.6507185419064,148.2283477709377 319.3580274732058,147.51898586284966 319.7486772487188,146.88035150969785 321.84663595553127,144.39061639377906 322.09119890512653,144.09965282994534 323.3372139602369,142.6218433395153 324.60409260106417,141.76760469348162 325.44326773825344,141.2031195233096 325.8628344433646,140.92033448499933 327.7649258091815,139.63718224759282 327.8958656718464,139.5490961894806 328.7837364178726,139.65458247794336 329.40618062858664,139.61051858529999 329.50586684023625,139.42992338893248 329.72030277237985,139.0414434263165 329.9556022900032,138.61252983494364 330.06922537681487,138.40739906197615 330.18393337010474,138.19759484587777 330.41806452696017,137.77335469766544 330.808672575269,136.28277669287084 330.9083587869186,136.05444561279893 331.0555722465186,135.72179660509144 331.25840802491734,135.2581660073962 331.7347654098322,134.17325955969554 332.33868275672097,133.42797055731307 333.1917530419868,133.3213159080824 333.9022833108427,133.0373207818001 334.37868242296173,132.65718625340565 334.6997312770726,132.3998547894458 334.9686628945698,132.18541885736147 337.2080349841098,129.39779346720243 337.6832657353424,129.53574349474155 338.3902909218947,129.74204262847698 340.3085307029155,130.1315240431924 340.6840752424985,130.29726436667704 341.19644317590866,130.52213209153086 340.98317560465154,131.12600771118576 341.30305609799444,132.01266836915093 343.50883781486476,132.38942299667633 344.0025537028371,132.4740039724256 344.89159280951253,132.50997279389458 346.06341695455757,132.82985328726716 348.9750972244164,133.11384841354948 349.72151286027366,132.4033181446639 350.41814798129025,132.07417421928972 350.89684208774094,131.84696977284082 351.26888154490166,131.67079765661634 351.7400647605322,131.28144142339482 360.08854505704613,130.10519419826605 361.03049421674,130.09117386878458 364.27849548521914,130.23358870364126 365.8073790329888,130.30076944904 368.96933887478843,130.0167325956128 369.7725869176536,129.96227863737445 370.53064443445993,129.91011967352702 371.3130288918454,129.6968103750657 374.79374259342427,129.02224892761944 376.2866990469885,128.70349506786988 378.9281958840553,128.1587468496138 379.57154540757176,128.02547026523519 380.187021180764,127.89912039123344 380.9404052543802,127.74377013337342 380.37016173456954,130.2091783085648 380.25537028687137,130.55225910904178 379.81606662996285,131.87129671356823 379.65958973850945,132.1297965383256 379.46952247426776,132.4450453157122 379.15652696415685,132.9631715988203 379.04761904773943,133.22859813395453 378.7195600286655,134.0330145377655 378.4622702919988,134.6623854589157 378.2246340527211,135.29058801929804 377.88969005065235,136.17499541001717 377.0412514813725,138.81536561349063 376.7294243319109,139.6742777026848 376.7202026271431,139.97679969288137 376.7108974680856,140.31295378298148 376.6992973144593,140.67222472586658 376.68886552171944,141.02348405189667 376.67847545606514,141.39552350908707 376.6448016291057,142.52683057099654 376.6205164154935,143.32770016524037 377.55820940368307,143.38223757782777 377.9870395406476,143.4076911521782 378.7033281591718,143.44941832325614 379.527481514958,143.4981139318855 379.75351760060937,143.5108407190459 380.5717874251148,143.5583679668777 384.43505583100256,143.78440405255873 385.43533957574977,143.84236309316003 386.6407958206687,143.91304892095138 386.8923272079043,143.92811242970683 387.2493448834248,143.94897601521618 387.5414350809705,143.96524961194368 388.52899203852763,144.02316692537048 388.86047268537834,144.04173551651854 388.6773321315728,144.8322150451674 388.6286365229731,145.03968253970035 388.59621451107125,145.18226428322544 387.87404236138485,148.30020195952656 387.4915711114843,149.4488675245824 387.1883397593209,149.77805317710147 386.10067931842826,150.9591407540888 385.4330445812996,151.49700398911284 385.2626308146841,151.49233054595234 385.18727154373227,151.49120391235897 384.93115016783344,151.48423547477793 384.65061839670994,151.4773087643714 384.58226929048396,151.47497204280597 383.7917897617758,151.45527681806453 383.1542403151318,152.2167559628255 382.61529217365927,152.86123211990568 382.26061121967456,154.38773721896507 382.7764007812172,154.79457713685653 383.1125131440539,155.0611720327883 382.7578739172733,156.1611419892148 381.7981489827176,156.1611419892148 381.5860497722283,156.72909051457523 380.80362358752,156.83574516383555 380.80362358752,158.6462453891476 379.87982574728835,158.6810041226445 379.52514479330364,161.9113965249598 378.8853420794136,161.9113965249598 378.87491028667375,164.14375844974424 379.03138717812715,164.66885317043338 378.82391968350527,165.1985796071085 378.71146495746143,165.48482800060722 377.5744412731768,165.73289603259508 377.7529083839108,168.64336621436325 378.12498956815705,168.88909752475607 378.60368367472637,169.2043880293172 378.84015155311755,169.36082319362572 379.05692420679696,169.50344666432534 379.1264416737908,169.54976382421475 379.42199522643597,169.7445045315873 379.03138717812715,170.63120691669732 378.68363293446004,170.5952798224029 378.2003488391089,170.5454575801505 376.97056565361083,170.4191077061784 376.3886385258841,172.08468946639994 376.1893078297891,172.65493298618097 373.48976849774226,172.58428888556412 371.7627226145268,172.71176539315925 371.0174753393189,172.76621935139758 370.772912389605,172.78361958171848 370.1446681021371,172.8299784687824 369.76098676414585,172.8589788526703 369.14200590864994,172.90421110611123 368.09886835914244,172.9806970106861 364.27849548521914,173.36237544438944 362.41470966234766,173.54864553604656 359.715212057505,173.6552584581027 359.6653480881374,174.01690784972774 359.6085156811295,174.43530619398206 359.5088294694799,175.62920401247882 359.32456228199203,177.80715370619944 358.9791447599793,183.9073740256831 359.33499407473187,184.26205497972714 360.186937726434,184.33395089546087 360.32855974494515,184.55068182199543 360.433837397565,184.71183215663893 360.64939996327234,185.04331280357854 364.27849548521914,185.29388446580026 366.79372590257395,185.46751122461637 366.7589671691363,186.00070101647995 366.829652996898,187.1713985278723 366.29646320497517,188.59129070487552 365.1594395206905,189.86972777194705 365.9278871030325,190.09346886317786 366.9629713084215,190.39365413183864 367.33851584800453,190.50260377548986 365.06209003057666,192.87408408861097 364.59495435042953,193.35974663261305 364.27849548521914,193.73516599070214 363.3628344432771,194.8213659806646 360.8846994808957,197.9485670889377 360.1567689816596,198.89210188105565 359.5158396342058,199.7219718591874 359.9145427537187,199.72894029676846 361.8073289603594,199.75906731427938 361.94064727188294,200.61105269306702 362.0565236259407,201.35629996830463 362.1631782752307,206.21751539734453 361.47234323108654,206.1978201726031 355.4370086626107,206.02757331465605 355.14024502199345,206.01931133478357 354.66847762597894,206.00541618679597 352.2761337272892,209.56958423047143 352.13013035577984,209.58122611121297 351.5482449552573,209.6252065495073 351.46825396831946,209.6321749870587 350.8898736501006,209.67623887970208 349.8246624272599,209.32155792565808 348.6887653764204,209.28563083136365 347.02435197708536,208.99007727871847 346.6488074375024,208.92281307897068 346.2792716105755,208.8225426869075 346.19915544214376,209.59858461435934 346.2106304141576,211.02903376562597 346.39356233206087,212.9362993006679 346.60474354488866,213.8408609149889 346.73451504690433,214.09468729658576 346.99651995396533,214.20246857943943 347.33843239367445,214.3427136013991 347.89941248139456,214.74492180327493 347.9458130956627,214.77851217600397 348.2274715003499,214.9813896816958 348.04779430176245,215.2526162936432 347.8646954751611,215.52734798792392 347.516941231494,217.03991621185085 347.5876270592557,217.71451938644196 347.516941231494,218.42504965532754 347.19706073803246,219.09848446915078 347.17127334637485,219.3233521940046 346.69512459736217,223.482132425363 346.65106070474843,223.8704454792809 346.42627643415466,225.52793216832802 346.1411129471638,227.03127868742786 346.1156176455795,227.16922871496698 345.7702001235668,229.56040425282953 345.8038322234406,230.4239480580097 346.36944402726533,236.60299100363363 346.4505616477669,237.48623003355524 345.5626909018593,237.5928846827859 345.0422696243307,237.86644801629873 344.78034817155935,238.00435631666332 344.22337389223713,238.29807387377798 343.6537145528104,238.59667350992572 341.220770116725,239.8774055714178 340.3039407141337,240.35960476023143 338.5525261628977,240.79315006759026 337.9950511575999,240.9322267287524 336.6018226428895,241.27760252364993 336.36535476449825,241.3356032914554 336.0071687279727,241.42481598319068 336.220478026434,242.13534625207623 335.0127267871835,242.56075476108612 334.34275532851905,243.44741541902164 333.35983008694785,244.7455894380091 330.8387995927206,245.17450302938195 330.3589788527062,245.2567890107403 329.50586684023625,245.40120674979593 329.2636406122953,245.44222455893674 327.10772286491124,245.8096323001708 325.5301854355088,245.92442374778003 325.0179009563884,245.96264583646538 324.3943301119921,246.00787808990628 323.82863485387765,246.04843690018672 320.7848880876715,246.2709679034751 321.03291439260346,244.95773037570254 320.8196885484319,243.29098025471313 320.64234807138024,242.58967169062498 318.830679485241,239.46597566471488 317.4791781417272,236.95884031847518 317.2392051809137,236.1671924290288 316.6168026972852,235.34308080050604 315.9944002136568,233.86643967087355 315.3359871814145,231.7638075209006 314.9199255587256,229.39929564536052 314.9187154707535,229.35060003673118 314.880535109302,226.71248310050376 311.5701517200489,226.45173000853003 307.82509638975466,226.2280306444441 304.9992489109103,225.97649925726776 303.6500842889322,225.85599118722405 301.7897618213974,225.74236810041234 301.5439887838301,225.79915878024576 301.33889973794817,226.01242635156223 300.4626291455483,227.40682322701085 300.31191060376324,228.20310283244322 300.1786340193253,228.63084806301853 299.79148932623457,229.8779897518112 299.37538597634153,231.05444561281257 299.13428638196433,231.22949109541403 298.33333333331217,231.33960909986277 295.1041092918834,231.1645636172613 295.264091265759,230.17817502044238 294.73323819537194,230.16845258958037 292.9088010949571,230.1341528549735 292.88101079904123,228.73282926911835 292.73146061790544,228.20310283244322 292.24930315623664,227.9910036219243 289.4929731445047,227.95624488842742 289.07570143384373,227.95157144526692 287.4611102766721,227.87279054630116 287.0252699748631,227.96550832039935 286.46199489269276,228.6122794719001 285.927636740002,229.22195516833852 285.7351910270204,229.31467294243674 285.28320231000737,229.35410511909413 284.5761353963696,229.34129487758472 284.3025720628864,229.27528249295386 284.27015005086594,229.10374209271535 284.2539181813723,228.4163704037597 284.2318862350061,228.3874117470463 284.16700048411684,228.37814831507433 282.74130823030043,228.31092584247142 279.1991304058463,228.1729758149323 279.07507552617614,228.14168043662383 278.8305125765809,228.08025804083408 278.6404453123392,227.81599986646773 278.5674227630417,227.3001685777802 278.6555088211836,225.8930449151415 278.72156293295933,225.37612871997584 278.8305125765809,224.51024819323024 278.99629462732895,223.482132425363 279.17826682024804,223.3407190426058 279.9351142490823,223.2781282860185 280.1832240081854,223.1517784120464 280.63408609151605,222.64183065446176 282.3460267388015,220.48240782468505 282.56392602616324,219.99215529184184 282.66248560413055,219.8820372873931 282.75983509424435,219.8518685427373 283.55498806614264,219.91216430490402 284.3779730609238,219.85070018193977 284.64682122413126,219.62003238030243 284.8078463772809,219.3233521940046 285.14875736480155,218.6951079064774 285.4211523376355,217.92315524177243 285.82077345480985,213.19500776126822 285.44431091756536,211.65594278371685 284.8461936474305,209.67277552451364 284.67928496323725,208.23665147798707 284.7581075894072,207.87041209755054 284.84502528666263,207.73475706440232 284.9667434446784,207.65597616543656 285.36198320909176,207.42647672459674 285.4906698045107,207.11118622003562 285.4929647989609,207.10421778245458 285.5463338507507,206.97327791964136 285.56481898760904,206.09700732730082 285.41760552800906,205.5835127601787 284.9389114215584,204.5982925241573 284.4787859062557,203.8286348538729 283.64770584015196,202.67654766077348 282.74477158551855,201.42239580725487 282.03194632221243,200.80341495169964 281.10468512676266,199.9978719142953 280.14608682600783,199.46931383841772 279.87369185317397,199.38118605310132 279.69639310332644,199.32326873967452 278.4121142323562,198.90829202343414 276.42423180284766,198.45513494568291 275.55376128732024,198.26385759352846 274.7088278003441,198.0784220453024 271.2802313354975,197.48727321283752 266.1732845960351,196.42669370586427 265.510281575011,196.21459449534535 265.2703920686059,196.25978502161175 265.2158963831337,196.39660841552785 265.1046100178578,198.63477041709584 264.79048787418316,200.9181646721047 264.7499290638731,201.38876370738097 264.52389297822174,204.0512075843358 264.32568891569036,206.5582594762561 264.09389448037075,209.4177390549744 263.8782901874592,211.81938811278093 263.86210004516965,212.00599202177492 263.75427703511184,212.78954484001724 263.53057767099625,214.4238312219303 263.24424582311883,215.9422829769898 262.88263815869794,216.93793500575103 262.64270692508865,217.33083804851003 262.507093619115,217.55336905179843 262.17210788984204,217.79797372856822 261.64359154110934,217.7794468646243 260.41147163395686,217.36676514280447 259.9605678234221,217.17448633852092 259.0310116335221,216.77799475907955 257.890441139611,216.29233221504782 256.1541318245422,215.96197820173123 253.880001001446,216.0593276918154 252.64095438385738,216.11152838283738 251.10051240966555,216.1775824946131 247.00544956857675,216.08019127735437 246.4722597767725,215.86116535642896 245.84985729314403,215.3511341445249 245.844015489186,214.52355916078406 245.844015489186,214.50035885367967 246.12337889942305,212.35491462620993 246.3655216731928,208.8024301904505 247.13876788010023,204.18448416871445 247.24425416862232,203.57364011150813 247.97677465664023,202.08539882830863 248.25613806687727,200.9111962345533 248.2538013453415,200.74199255588024 248.24224291891935,199.63042244588672 248.2386961094115,199.37893278588493 248.2364011149613,199.16449685377094 248.2341061205111,198.961661075224 248.23060103820745,198.62317026355845 248.36967769939923,198.32181663412976 248.67453641110194,198.07145360775098 250.2752324203156,196.6828568090562 250.89884499191612,196.07551783421286 251.21526213015957,195.43571512026352 251.66153422470845,194.5350758599914 251.66499757992653,194.52693906164245 252.01504681792525,193.66456361725983 252.14135496472284,193.3551149166271 252.3337589505003,192.8822208869599 252.59689049124367,192.37915811260729 252.58299534328572,192.25748168176602 252.22134595166065,192.0569408976396 250.208009947772,191.19460718043152 250.0051741692547,191.25022949943775 249.8022966635332,191.5643099160565 249.37000317135062,192.30384056882997 248.70003171268618,193.4478744178998 248.19121058878386,194.2209537162278 248.02893362045802,194.33219835429955 247.79826581882068,194.35423030060642 247.22685393824213,194.20935356266077 245.75943451334777,193.6738687764063 244.50761938136492,193.17664780598207 243.6244220787661,192.82659856792404 242.08631682611005,192.10446814547143 241.85097558128257,192.03724567289817 241.5890541285113,192.05464590321907 241.05469597582055,192.16589054129082 240.14483501086957,192.90425283326678 238.97993757626074,193.73996461535654 237.13580525101548,195.58176021897705 235.56177290403534,197.32962796055696 235.22102882521273,197.96830404085364 235.12246924712684,198.0691168861559 234.93703369887112,198.07959040609992 234.3447582328129,197.98799926559508 232.92603441663684,197.857017675637 232.50525762355363,197.9544088928957 232.3163587201984,197.99843105836456 232.23515764528852,198.04942166141447 231.88285514004374,198.27433111344283 231.82952781533947,198.35544873400366 231.60699681211037,198.69619281291523 231.18505165825928,199.34062724285056 230.54178558915115,199.78456261580433 229.8915093551985,200.11491662912093 229.24127484856862,200.38497488024115 228.3232770852094,200.54612521491433 226.79560362529318,200.45687079600455 225.93322818085127,200.49626124548743 225.50786139898625,200.64581142656394 225.18793917843917,200.86729925057836 225.11954834512767,200.91470131691628 224.718508504079,201.27055063175783 224.09610602045055,201.82456228198583 221.9332198354261,204.4162786039748 220.85065010940946,205.6809039774374 219.92105219242393,206.4667517901003 219.21861699465347,207.07984911455264 218.91726336525443,207.66636623103153 218.44670605721197,208.250546625945 218.07462487284707,208.7141772236402 216.7439871146943,209.93473870445945 216.44960192281704,210.16882813414037 216.16327007493965,210.21059703236318 215.94887587011877,210.14913290939893 215.8259893513351,210.11437417590201 215.30439971291997,209.50586684026112 213.81958005776403,208.17522908216768 213.31426401616537,207.26303139553266 212.48781566604754,206.09813396092383 211.95228915258892,205.28674911956148 211.93259392787712,205.25549546842754 211.256864119663,204.23084305577837 210.3122444211558,202.49916545657695 209.3501827650643,201.19523308798048 208.27220302771084,200.15781216096678 207.18495985850404,199.33845742995354 206.5450319631201,198.53988283010062 206.46278770881764,198.43664980888389 205.41493498915304,197.72620299434735 204.9095772203502,197.5349256421929 203.53954901277385,197.01792599270783 201.00808672580675,196.58563250046592 198.10687997601053,195.9516298633001 195.64731360477717,195.42770350340848 195.21034666940443,195.33494400213576 194.2714435932428,195.13561330595175 190.58092567562488,194.83538631014608 190.41531053357485,194.84502528665905 190.41518535219956,194.84502528665905 188.91993390418517,194.93156743946238 189.23292941441468,196.36310149717752 189.41256488579796,197.13154907948987 189.41026989134775,197.14427586667992 189.39637474338983,197.2451721663016 189.39516465541777,197.25209887670812 189.3696693539521,197.42714435933922 189.24336120715452,197.60102148114314 187.91389180988824,197.96492414001423 187.58816951258729,198.054178558924 183.97643249381653,199.2909719092666 182.68289019075576,199.62128419540866 182.51831822821688,199.6665164488496 182.35604125989104,199.6595480112982 181.90864253165986,199.53319813729644 179.6797022349783,198.64532739138886 177.5562482265816,197.8722480930609 177.3325488625846,197.85246941400007 177.1945988350751,197.89311167859987 177.03699530982084,197.9579557024332 176.88631849512132,198.04491512695205 176.7310099645544,198.1353379066297 175.75037971731481,198.89105870178167 175.61247141700952,198.99771335104197 175.47452138938144,199.1031996394751 175.42816250231752,199.13908500659502 175.1546408960385,199.3291939979816 174.99002720617688,199.3291939979816 173.9097942015774,198.33016206835129 173.51205080704878,197.93721729841775 172.45731310403357,196.9751973695304 171.62973812035202,196.18818119607 170.98647205124388,195.76510940865518 170.66304474815593,195.55296847096173 170.5645268973928,195.5228414534508 170.49496770319482,195.50197786791182 169.51554754392725,195.20876103683207 169.1388346435764,195.15197035702832 166.90413599722652,194.81235291173977 164.8316725919983,194.60834877239526 160.7690734898969,193.94880910652995 158.8809189992421,193.75294176556403 158.4949426669193,193.71238295528363 157.95824779269276,196.43387077928827 157.35558226098027,199.85666716741068 156.73192796217558,202.89695057833939 156.27760252374543,205.23830387394958 156.17445295675913,205.77153539298766 156.0666299468199,206.39744295894943 155.642640161625,208.84632717439584 155.64255670721664,208.84724517217592 155.63909335199855,208.86731594145834 155.14875736483597,211.37557792132105 154.50198621330557,214.5051157511892 154.19483250715268,216.0269891342626 153.9884916462131,217.05164154691178 153.5703019378907,219.3233521940046 153.5703019378907,219.3234356483536 153.4762071670927,219.83463522108482 153.14122143781978,221.90359354397972 152.71819137749054,224.55902725617898 151.93693355366875,227.9829920050693 151.4906614591199,230.93055764192945 150.78017291734955,234.73236192479365 149.81347954539066,234.51563099828874 149.93173434818834,235.1867290905169 150.06847428772576,235.96798691436834 150.3095738822215,236.87784787943792 151.8291522708151,240.33540300102757 152.20816016561616,241.17920985429177 152.40986931045117,241.626608582434 153.18758032476512,243.35369619282395 154.51938644380436,246.24442942267618 154.75927595020949,247.00824528900256 154.81264500199933,247.24938661058388 153.02876671177594,247.7953031896375 152.92215378969016,247.92624305242106 152.92215378969016,248.21023817870338 155.47226812209507,254.09598083889853 155.47226812209507,254.09610602039245 155.52893362040496,254.22704588320565 155.64255670721664,254.50686829236238 155.642640161625,254.50711865537983 157.694114799761,259.56119706908726 158.16120875270397,260.6889990486338 160.35539031606655,265.9929814898299 161.21430240517176,268.1453941548511 161.32671540401142,268.70524760903714 161.16911187899433,269.1132558876965 159.92535009101138,269.66960425951953 159.74450453165608,270.1332348572148 160.0609633969851,271.359554687643 160.85498973508248,273.86898502830326 161.60140537117692,275.4198587952646 163.019086008079,277.96171114782663 163.6356884149536,279.41740523760075 167.48852502798292,288.50817018010986 167.64099611103842,288.86860948376284 167.68209737452827,288.9660007010215 167.4261846344131,288.86860948376284 167.14310750597014,288.76078647373464 167.0260627911445,288.7156376746428 165.16920367870924,288.00857076094564 163.46877973064178,287.3606729758219 162.2099544340516,286.72675379300506 161.32321032170776,286.0451821808329 161.15166992140996,286.5146545824862 161.3550064260215,288.86860948376284 161.3550064260215,288.86873466525674 161.49591908265486,290.50189441357645 162.07429940087374,296.7366431325556 162.17056398450944,297.76592726119077 162.47312770188051,301.02757331464005 162.62267788289773,301.0310366698285 164.4353061940212,300.4094270024862 165.8113013870495,299.9379099694595 166.32713267579632,299.76056949243747 168.09703236365345,299.15435715121714 169.87277385546858,298.611903927352 171.40048904247038,298.1714319096163 171.64851534728373,298.0996194482019 173.26310650445535,297.63365212891165 173.57839700901647,297.54322934923397 174.1231452272429,297.3855840969534 173.8658554904576,296.28215078530883 173.89364578637344,294.543504748556 174.70386226699756,294.51913608065405 176.3172850634013,294.4507869744578 181.36748285014545,294.23751940314133 181.64446781164256,294.64782267622127 181.88327241168813,295.00016690869984 182.6540567155659,296.14073740258124 186.4651244304317,299.32009747467214 188.29644651419716,300.4004139335317 188.52252432693408,300.10715537530706 190.41531053357485,297.65968988367564 193.39646654322334,293.8051841837249 192.62451387845908,292.326206332527 192.36956086332813,291.6422979987598 192.24316926212222,291.30038555905065 192.1087243169164,290.93990452822317 192.0229749804289,290.28274331112743 192.31852853307407,290.0288752023857 193.67140687325804,288.86860948376284 194.5972493449521,288.07462487272136 194.93807687818304,288.30762939595377 195.76114532737253,288.86860948376284 196.28490477862536,289.22562715937227 197.41621184056447,289.77154373842586 197.42430691176853,289.7750488207888 197.59935239437,289.8596297965381 199.06906681359595,290.05432877673616 203.29043780148234,290.61539231886456 208.18061188726531,291.26909018077185 208.54192746149423,288.86860948376284 208.6338524194545,288.2578071537014 211.60223991459017,288.58811943984347 213.75844975216626,288.86860948376284 216.80545123768823,289.26501760885515 219.48291689628329,289.4991487657106 219.94074741713573,289.53858094236796 220.927136013925,289.6254986396827 222.14882412833762,289.732153288943 222.43857760422893,288.9555271810775 222.7116402116179,288.86860948376284 223.31947991249615,288.6750788643624 224.11580124516234,286.76138734497846 225.18793917843917,287.133092984832 226.1348955986007,287.46148582112414 227.42263782490764,287.74197586501384 227.96742777033822,286.64317426935526 228.1053777978477,286.3649792198861 230.8060437634582,286.94915961476994 230.9428254301998,286.57707843040504 231.05640678992594,286.2687980905698 231.17695658717383,285.9419491596162 231.36702385129692,285.4249495101311 231.44008812779856,285.2232820923817 231.56059619784227,284.894096439833 231.88285514004374,284.0189942082603 232.2212624973306,283.0975330896534 232.74055714117694,281.68694607179657 233.254051708388,281.7912639994618 236.4078747517794,282.4345300685996 239.01123295448025,283.19371421894 241.48010448488972,283.9146762805951 245.54387194775902,285.1514279037928 247.95127935517456,285.995234757057 249.66672508476367,286.5979420159143 251.20946205328713,286.99785522339926 253.11384841355422,287.62839450537666 255.872473419855,288.8419875486149 255.868884883143,288.86860948376284 255.79365079368506,289.42383122193326 255.76352377623343,289.6509939412076 255.31383005355204,292.9787358336368 255.27556623769217,293.2650676814845 257.37928329405435,293.8480797156004 257.2970390399891,295.6203161250526 258.029559528007,296.1963597215875 258.0364862383246,296.202159798371 258.38073539968804,296.47225977666574 258.5198120608798,296.49892343898824 259.9605678234221,296.78033148065805 261.28540550470234,297.0390399412583 261.53464189748775,297.07959875153875 262.1744446113778,297.18508503997185 264.57025186516705,297.5780298099054 264.5992939762591,298.47629062140794 265.4790279238771,298.62467244171654 265.99598584618764,298.66756797356237 272.2225977667586,299.18102081351 275.0519086008211,299.4140253367424 278.1779830755008,299.8810775624812 278.2092784537203,301.85272812243676 278.2150368033886,302.25030460835626 278.7829853287491,305.65916412131656 279.0681488158586,306.56906681356065 281.50226161271183,306.85882028942234 282.9499440856902,307.03152905045835 283.3787742226547,307.08251965350826 285.12322033613174,307.2911555088091 285.511533390109,307.40477859562077 286.4874901941584,307.6887319947286 287.5723966418294,308.28451254317946 291.66629112215037,309.3114182231043 291.1400280406637,312.3644701483976 290.8131791096804,314.2595930766334 291.27564134663737,314.4589654999623 293.3226094503999,315.43955401999773 294.73323819537194,316.32754994742885 295.0276233872492,316.51286031413133 295.2837864904708,316.83975097225954 295.48315891377,317.3300035050731 295.25482783366846,318.79975965150317 298.86422813078485,319.59374426251503 298.77030026868493,319.8800343831882 298.602264950928,320.3911505015704 298.1884565953665,321.6580708694239 298.30207968229684,322.24108290353985 298.66135062506333,322.33960075442155 299.2386043095999,322.49841436749966 301.1441590306349,322.5447732545636 301.5417355165841,322.4752140603953 302.1676430825162,321.96171949327316 303.2525495301872,321.34858044164633 304.0198287516427,321.0680903977566 304.92968971683086,321.0217315106927 306.8630764608673,321.09241733848404 307.76133727242916,321.274389531492 308.0581009129278,321.33351693289086 308.71067214133063,321.46566688364646 310.72863986108666,322.53893145060556 311.1575117253739,322.94927645086 311.49942416508304,323.27729374258155 311.6262330379748,323.64127985580166 311.66979620449433,323.7664613689762 311.4878657386609,325.4320431291977 311.45890708197715,325.69980638592705 311.3000517417838,327.1509939412091 311.41363310127275,327.45468429223286 312.26674511374273,328.0388646871167 313.034066062521,328.64503530119214 313.68780565157317,329.6024652412681 314.06335019115613,330.76152087191883 314.347303590175,331.9519136080527 314.61623520767216,333.90962729290544 314.6324253500803,334.0290087293261 314.8005441223642,334.4451120791895 314.8874618196196,334.6595897384484 315.57011833826994,335.2194014654599 317.24387862410384,335.92062657519904 318.0807587669615,336.0574499691151 322.5501977868654,337.4877322117133 324.50557475006383,338.13796671840254 325.1210505232561,338.341970857747 326.88172850634544,338.9273196134284 327.07525912580525,338.9910787308132 326.9280456662052,340.020362859478 326.8353278920773,340.6103016040004 326.76576869799794,341.0542369769542 326.70668302374395,342.1136481231003 326.84000133526746,342.90763273414177 328.69915544203434,347.06874968703596 329.50586684023625,349.2711515030075 329.89301153344553,350.32814247323915 330.4528232603978,351.8279839100057 330.4655917746734,353.012576569356 330.4690551300101,353.37764758899493 330.47256021231374,353.6975698095717 330.4771919284183,354.2156960926798 330.74725017947924,355.08387161384593 330.99878156671485,355.91144659755713 331.0949626959422,356.4631215262197 331.1900171916058,357.01371154840416 331.92837948358175,357.4379516966165 331.98512843618136,357.4704154357225 334.52126416645723,356.8108757698572 335.11007627729737,358.2573898820084 335.15639343715713,358.41390850066597 335.53661141993024,359.698145644521 337.1268756364041,359.477951362798 337.8779647155701,360.80166241048494 339.2816250230203,360.6578705790174 340.5786306811806,361.7045549380031 340.3873950562896,362.3223674327905 339.52735633338347,362.47533924191055 339.0625156478051,362.55762522323926 339.2166975448083,362.8845158813674 339.5632417005034,363.6216680854009 339.7696242885285,363.768881544912 340.53573514933476,364.0192445712908 341.4781015805959,364.1664580308019 342.3682673209537,364.40872598600623 342.7739806051925,364.51880226328046 344.95305693262503,363.72481765226865 345.1651561431143,364.1745948291805 346.0274898603521,366.0047485520594 347.2352828268067,368.4747884432368 347.1599235558549,369.0902642164587 345.78989534827855,369.5863585532303 347.6061956504038,373.4600170246834 348.27266202664595,374.86367733213365 350.1063208319472,378.7234823828033 350.5769615942794,379.70173418124364 350.74032346908336,380.04018326573464 350.94549596913646,380.3125365112754 351.07881428065997,380.2789461385761 351.5957722030891,380.15142790380645 352.8023968087759,379.8501160015226 355.0996862116834,379.1140487039672 358.4714919967263,378.0326473386295 360.3874367834155,377.50988933953545 360.8557408242119,377.3823711047658 362.2941598652184,376.97206783168593 362.91076227197436,376.8352861649443 363.15073523278784,377.2989167626396 363.6989885334365,378.4649825580459 363.5448066363147,378.85905396157284 363.0893128369981,379.0016357050979 362.346277101832,379.2357668619533 362.67204112633715,379.88487473501954 363.4764575300888,379.62866990468274 364.27849548521914,379.7304842020845 364.41761387349646,379.7480930682779 365.40980254703965,382.20419608432286 366.07622719607764,383.64261512526997 366.0322050306681,384.03322317360846 365.9823827883861,384.4829168961712 365.9371505350045,384.8862934588446 365.8954233639265,385.26183799842755 366.2918732161934,385.81939645819307 365.2301253484522,386.2691319079304 365.05395323216845,385.6385508988081 364.27849548521914,385.91695458414983 361.74240148214744,386.8289436349419 362.84587652096656,389.4647238495742 361.2034533406749,390.00717707340976 362.71802446891934,393.1865371455303 363.06148081387806,393.9074992071853 361.4445112079665,394.39779346720303 360.2866239380836,394.8011700298764 361.5441974196161,397.9782351075764 361.94411062710105,398.9889506450931 362.0658287851168,399.29839934572584 363.0348171516445,401.3963580525086 361.31240298441503,401.96084322268064 362.39034099444575,404.2836279271724 363.602765677005,404.0159063976176 364.2217465325009,403.85479779011894 364.27849548521914,403.844115634332 364.6517450303519,403.77368016958775 364.7015672725153,403.89301987883397 365.1640295094723,405.00926343198796 364.59841770564765,405.1715404002545 364.27849548521914,405.21606329175825 363.44048870867914,405.332607280549 363.19826248061963,405.4404302905772 363.9528149150037,407.3227847044781 363.19826248061963,407.6183799842978 362.8354447282267,407.760920000678 362.57928162500514,407.86060621232764 363.5772703754207,409.9944920134049 364.27849548521914,411.4397543104095 364.87193931204524,412.66386260076627 365.13623921355645,412.62910386726935 365.4318344934058,412.5908400514095 366.10985929595154,412.5015856324997 366.5398995210067,412.42159464556187 366.89453874790587,413.3674244321004 367.20640762445305,413.9748051341183 367.623679335114,414.78965333066907 367.78825129777147,415.1095755512162 367.94355982845696,415.4120558142679 368.56362559054963,415.16982958623805 369.1281107605734,416.56768981690476 368.0525094720785,417.057942349748 368.698112262841,418.5914576135333 368.9334117804643,419.7818503496671 369.3448834143714,421.87167225810094 369.329819905527,422.66912022433087 369.3182197520193,423.2544272528377 370.01948658890325,425.00004172717155 370.26863952739893,425.6189808555819 370.22691235632095,426.80240515413465 370.2246590890749,426.8615325555335 370.9931066714169,426.7560462671004 372.81754377183177,426.508019962287 373.58599135417376,426.4025336738242 374.4031762723196,426.29128903578214 376.546283778224,426.00842054312284 378.09945253948723,426.05131607496867 379.3652045466322,425.8902074674997 379.3211823812226,427.0980004339543 379.3153405772646,427.24054045030493 380.2831605829058,427.34139502278174 381.1189140920812,427.42948108089394 381.1039340377637,427.9592075175691 381.06558676749546,429.31993056599896 381.73902158137804,429.42775357602716 382.4379516967262,429.61669420658654 382.5190693172277,430.4489009063134 385.26843089143796,429.6120624906006 388.25659706569377,428.58974679951683 389.5370370370828,427.9592075175691 389.6335937109105,427.91168026973725 391.22147947864437,426.94381853689185 392.3829135580351,426.3457429940205 396.06996812043496,424.2744479495305 399.051165857169,422.91193063274466 399.14617862574704,422.8684926476597 400.43859429512554,422.1428988700187 402.1065127768828,420.2871663912657 403.0755428704961,418.8070201792703 403.85554887926025,417.83920017356974 405.0436466210032,416.3810859079108 406.28152487782387,415.8988867190675 407.9239897852011,415.54883748100946 410.08683424302137,415.14433428471307 411.35141788927984,415.0909652329232 412.6704554938063,414.71429405971725 414.1784337288921,414.2031362141902 414.83446831239445,413.99566871965726 416.17787458482286,413.57026021064735 416.51745030299617,413.4068148815833 416.8500993106147,413.2468746348822 417.8828885216721,413.97943685010426 418.93762622468734,414.58907081936815 420.5823861265148,415.12927077595765 420.71453607738897,415.1721663078035 420.96836245895616,415.59052292491293 421.3102748986653,416.1561764558528 421.26391601148276,416.7554620866963 421.1051441256978,418.8325154807656 420.80838048508053,421.06959257591467 420.8350441473141,421.3697361173713 420.94399379105425,422.56709729105654 420.79214861546825,423.4248410194828 419.9927394723029,427.9592075175691 419.87415085210904,428.63143224342025 419.8080967403333,431.2023267070448 419.7397059069032,431.83749770500816 420.625239931275,433.67349323184516 421.1711982374735,434.4523726069566 423.3781065879075,434.54746882979475 426.64325772366044,434.4929314172074 427.3839150100866,434.7120407924819 427.1370153389555,435.6717657269783 422.47166725085185,435.34258007442963 423.83940046397805,439.4689382938565 423.926318161352,439.7320281074254 424.449076160535,441.36635621651294 424.50937192264246,441.4266102515348 424.6959758316661,441.6132558877033 425.29985145123203,441.9690634753703 426.31524043202785,442.3260811510094 426.3708627510637,442.8198387662156 426.53543471372114,443.58836980287697 426.5076444176867,444.3556490244214 426.533139719271,444.5735483117238 426.61776242219474,445.28871029659535 426.610793984673,446.31453107004205 426.89821073890994,448.07863068114534 427.259860130535,449.40234172883225 427.4163787491926,449.9772169645993 427.5345918249047,451.0470599035148 427.5508236943984,451.18964164703993 427.320155892761,452.09140754093505 426.91798941803006,452.7822425850792 426.3036402785201,453.5680903977421 425.17120658289866,454.1059119055916 424.5568991704743,454.3736751623209 424.3076627776889,454.5846060120423 424.2879675529771,454.91145494299593 424.19178642363113,456.84133660472867 424.21148164846153,457.66661659404895 424.09669020088194,458.29828250964937 424.0190359354799,458.77814497686796 423.28997880256145,459.6602573731962 420.8060437635448,461.28411196233975 420.4224458799619,461.6677933002717 420.03555154985895,462.73183616243335 419.7316108358178,463.56754794452314 419.6307562632817,463.74372006074765 419.43255220075037,464.0926009380378 419.14509371919064,464.59566371239043 418.58177690981614,465.5831789428027 417.9246156927501,466.73647622384453 417.73446497421867,467.3878790913609 417.5826615259554,467.9094687296574 416.43170096639005,467.69040108155747 414.8565002587606,467.39138417372385 414.2189925392022,467.2151703302952 412.27980571829335,466.6762221888523 411.21809957775633,466.370236843408 410.529601255148,466.17315941447004 408.1384257173447,466.7040542119427 407.979612104237,466.71444427753767 407.3189040775445,466.7585081701811 407.11727838699926,466.7411079398305 406.61187889111085,466.6982541351592 406.3777477342554,466.5463672324876 406.208544055612,466.4362909552134 406.05665715294043,466.021314238973 405.9245489292704,465.6642965633339 405.8295361608109,465.40354347136014 405.76456695539474,465.2273296279612 405.26271426913274,462.8349857293011 405.2416003205467,462.73183616243335 405.2325455243584,462.68777226979 405.13865938946265,462.2427102632132 404.77588336427385,460.641972526825 404.3493482216409,460.6547827683344 404.083921686566,460.83904995576296 403.68288184539875,461.11837163888475 403.4394872565714,461.02682222555444 402.8761287199927,460.81584964865857 402.4287299918801,460.458873700194 402.2572313187865,460.3232186670754 401.75416854443387,459.9233889139099 401.6846093502359,459.8677248677291 401.74603174602566,459.6660574499797 402.2699163787724,459.12243586534663 402.0439220203252,458.20906981791416 401.95120424619734,457.83352527833114 401.9453624422393,457.80919833757406 401.4817735717186,457.2041543571513 399.6631365480576,456.2919566705163 399.051165857169,455.9322684559157 398.87612037456756,455.82945270641443 398.65012601612034,455.69033431810743 397.86657319784837,455.2047135012502 396.87788960660885,454.720219318016 394.85061672755813,454.21135646687986 394.41252315862164,454.2623887970746 393.7321199072174,454.34233805683795 392.55215896388273,454.479161450754 392.12445546048195,454.5289419658615 391.0360856575928,454.65646020063116 390.4368000266901,454.50115166991606 390.03692854640934,454.4883831555811 389.57096122714864,454.6437334134411 389.2951028992153,455.0401415385631 389.2070168410734,455.647522240581 388.87895782223666,456.25598784904736 388.75264967532047,456.49128736667063 388.7236910186367,456.5446564184605 388.51505516336556,457.3594211606919 388.68776392443124,457.9633802346662 389.1884899771295,458.9300318795692 389.5848563751066,460.7926910687287 389.6834159531925,461.10097140853424 390.2034616861208,462.73183616243335 390.41710480197827,463.40180762103853 390.4333366715906,463.4505032296679 390.5179593743958,463.7170563984548 390.7775858328355,464.6373908834387 390.8459349390614,464.87844875070067 390.91090414435894,465.5368617829133 390.9154941331408,465.58551566436813 390.8366715070894,465.94365997363025 390.7602273296594,466.2867825012818 390.69066813546146,466.6031996394659 389.9986647305495,467.72286482066346 389.89551516368175,467.88860514411846 389.88045165495595,467.91414217281795 389.70540617235446,468.21895915743505 389.63818369969226,468.3348355114928 389.6857109475241,468.4403217999556 390.1389097525091,469.4383522774568 390.44956854108426,470.0595864002877 389.0389397959937,470.96481564934163 387.8427887103695,471.6104184400745 387.3489893678702,471.9894680620204 387.69090180757934,472.3302538681065 387.7905880193475,472.4032764174633 388.336546325546,472.80431625857125 389.05750838714175,473.070911154503 389.7981656735679,473.0894797456214 390.42407323950005,473.0129521139017 390.93752607950694,472.99438352278327 391.27831188565233,473.14622869828037 391.41972526837986,473.33170597365125 391.88798758197214,473.94488675245265 392.7039624121459,474.41890741574286 393.14092934763727,474.4942666866947 393.5964648741581,474.4374760068613 393.9754727689592,474.2485353763019 394.27920484709813,474.21027156041237 395.3049421662255,474.7225977667666 396.5787892444559,475.21865037636366 398.3058351276713,475.87126333182243 399.051165857169,476.3434479995821 400.66926209676285,477.3665147797479 401.2128419541028,477.71072221387755 405.8700532439168,478.7967970223461 406.59452038793484,479.045991687957 408.74810141378316,479.7889856959189 410.3452923405746,480.34070235172635 411.2737636239964,480.661792933071 412.88142807073183,481.21697294409654 418.1088828802379,482.96488241282134 417.8909835928762,483.50149383272844 417.5154390532932,484.42182831771237 415.88344766586,486.4734281374609 414.9793450503401,487.63832557206973 413.75999365746327,489.21006292457 413.116685861151,490.0005424532189 412.5707692821567,490.6728089062446 411.53685343753557,490.2358419708422 411.1427820340087,490.1697878590665 408.20564818988834,489.89159280956767 406.8263148231359,489.8614657920568 404.7457563467036,489.9599836429385 402.1899671190387,490.10719710244956 400.3840986096534,490.47109976132066 399.2366014054247,490.7817585498958 399.051165857169,490.8507335636506 396.9439437183846,491.6337022015089 395.82194181574016,492.2120825196389 393.2336888488507,493.79888338089467 387.6422479261838,497.04663428638594 386.74824328612624,497.50446480729767 384.24498856676087,498.7864486839363 383.2353996628375,499.1723832890846 382.09599752981296,499.60709695724097 380.73523275420854,499.90144042194373 379.7047802648055,500 378.70453824714383,499.91888237943914 377.98937626230196,499.90611386510426 377.7494450285741,499.90144042194373 376.0305359437669,499.58965499974556 374.7670789311907,499.3613239196737 372.8291021982539,498.70528933620096 371.4498105587056,498.131540734057 370.4784854706421,497.60302438535393 370.2973060938907,497.50446480729767 367.85893712553315,496.1785004923647 364.82211706976324,494.35289503112267 364.27849548521914,493.9397960375873 362.7751906932048,492.7974312753499 360.03509255096657,490.35171832489993 359.1657486688843,489.4487840702369 358.49118722155663,488.4149099527607 357.910470181802,487.5688081050759 356.85222739636447,486.02486104852113 355.77082603111575,484.0602206532915 354.5572329877886,484.2213292607605 354.18632016419156,484.27002486938983 353.53959073986533,484.35464757231364 352.04780264718767,484.4206599569445 351.9005891877062,484.32214210606276 351.4729274115096,483.2534675279151 351.5308864520813,482.8350274564863 351.6282359420765,482.1407707842986 351.35813596381143,481.03963246707457 351.21096423153415,479.3867774940431 350.86550498231725,476.08686762473394 350.49930732899594,474.85474771752223 350.3717890942263,474.42358085890334 350.15847979576495,473.7084188740318 350.3381569943524,472.50296262914253 350.60358352942734,471.7657686979345 350.84351476303664,471.09813396089476 350.95363276754466,470.686662327047 351.36744112298754,469.12998848330216 351.60157227984297,468.73474871897776 351.7510807337746,468.27574983726845 352.5219067648565,465.9216280272937 353.8189124230168,463.0018944135536 353.92022599444294,462.73183616243335 354.8435231084618,460.269933069605 355.83917513734167,457.6144576302312 356.0165156143933,457.125331731011 355.7499207184319,456.7949777176944 355.48219918890675,456.46120207633425 354.82382788375,455.6451855189859 355.11474972040924,453.97029859964755 355.18314055383934,453.6329761487499 355.9202927578432,450.02128085724263 355.9469981472809,449.8427720194231 356.0988433228669,448.8529200674157 356.06871630541525,448.2640662293714 356.0501477142672,447.88626842254234 356.04434763739476,447.77498205732576 356.02465241268294,447.38554236975517 356.00842054318923,447.0736734932376 355.93773471542755,445.6816550664993 356.0199789694928,445.3350691836593 356.14403384916295,444.81815298849364 355.57258024138025,444.5422529334154 355.30949042784107,444.44373508253364 352.60648774057614,443.4376512610029 352.2100796155135,443.27191093751827 352.1857526748157,443.2626057783718 351.02202360097476,442.7757748735722 350.6371739022157,442.6749620282699 350.3219251247401,442.59150768614364 350.1561848013148,442.5300852903242 349.494308413973,442.280890624743 348.96696042600814,442.082686562182 348.39550681822544,441.868250630068 348.0605628160381,441.7430691168935 347.96784504202884,441.79635471433426 347.7812411330052,441.90534608516003 347.4763824211839,442.082686562182 346.9107288902737,442.7595847311937 345.1582294326781,445.9146178625571 345.1222606112685,445.97837697994197 344.98664730529475,446.18350775290946 344.7849798875454,446.48949309832415 343.51576452530094,448.41244804968 341.0295344917154,448.33596214510516 340.2390132358031,448.46811209586076 339.5980421611452,449.20175921753133 333.6554253667972,455.48286682354484 333.2242585081783,455.66947073256847 332.4858544889982,455.0992272127874 331.98166508108187,454.7086608916235 330.6255737486676,453.12761837997675 329.50586684023625,452.07784621034364 329.4548762373049,452.0299851451157 329.3030310617189,451.80278069866677 328.68409193330854,450.87551950327634 328.38966501434567,450.0131857860682 327.6698713133992,449.3872782200768 327.4345717957759,449.1820639927899 327.08222756332697,449.0279238228723 326.47947857732476,447.7807821340796 325.63220836881277,445.44748218249896 325.29254919634974,444.84823827883 323.9828167509994,443.3240699013657 323.1784003471291,442.7352160632918 322.20824361995216,442.1348455259998 320.64113798340816,441.34432427017646 320.56002036290664,441.30376545992567 319.7092450719725,440.85290337656534 319.2722781367183,440.70685827782216 318.60001168360367,440.48311718659136 317.25084706162556,439.9464640395097 314.8213659807583,439.311293041576 314.7379116386024,439.3344933486804 314.34500859584335,439.44110627076617 314.34500859584335,440.8749353228722 314.1861949827356,441.18438402350495 314.0679401799379,441.2168477625813 313.7503546809266,441.13568841487563 312.34210438469455,440.8586617261743 310.6162268623656,440.74508036653714 309.961318912427,440.82623971424283 309.2195349924371,441.0174753392524 308.2563049755777,441.26554337121064 307.1852936758646,441.08699280624626 305.4200257039935,441.07080266386777 304.7848129788852,441.2493115016873 303.4959441190146,441.6886151586551 303.2768347436808,441.9656001201819 303.16788510005927,442.37711348120416 302.8340677315542,443.6311818804034 302.89319513289377,444.1527715186999 303.3893311969288,444.3324904444619 304.4034683624298,444.54692637657587 305.3133710547035,444.7392886351788 305.7897701668226,445.0001251815016 305.8094653915344,445.3582694907637 305.6703887303426,445.63525445229044 304.8497821841828,445.8404686795774 304.1032830937986,446.02590422780344 302.159506284108,446.2704671773987 300.97374526401944,448.0323135212856 300.84743711722183,448.21891743027953 294.7772603609001,447.5512826932398 294.73323819537194,447.5484869727843 291.5758683424727,447.35186854270677 290.46659322689976,447.2151286031397 289.84999082002514,447.1397693321878 289.0769115216972,447.7262864486964 288.362876170419,447.107347320286 287.9270358687286,446.6355381970377 287.768263982825,446.5208302038071 287.3718558576437,446.45590272562475 287.1388930615562,446.49996661826816 286.8490978585793,446.55558893730404 286.6926626942115,446.6494750721998 285.87781449772,447.1421060537829 283.5758516516224,447.8097407908226 282.5651361140167,448.0380718708649 282.10847395393216,448.23281257823743 281.3503747100403,448.83902491945776 280.0429372590215,450.6309565536811 279.586275098937,450.7619381436391 278.6682773354592,450.7990335987311 278.45037804821607,450.9276784670941 277.1406038756616,452.67095621986255 276.9400630914759,453.2134094436981 276.76159598086053,453.47420426284634 276.563350191125,453.8161167025554 276.64450953883073,454.3307796304751 276.6630364027746,454.45132942766367 276.7975230751846,455.15255453740275 276.8218082886782,455.2823677665929 277.1382671540072,456.08098409359076 277.49757982409653,456.59214193914744 277.78733329998784,456.9711498339189 278.7574900272834,458.2415335569905 279.1643299450859,458.774723348854 281.1510440138266,461.1137816500437 282.30200457327334,462.5313371054815 282.464531904587,462.73183616243335 282.53964081255106,462.82459566370613 282.51994558772066,463.0691168861565 282.1431909602842,463.6057700332085 281.2553619414622,464.66864453457265 280.97370353677496,465.0047986246728 280.67814998424836,465.35714285715136 280.47531420561245,465.6005374459491 279.68128786739646,466.38179526980053 277.6181713485486,463.97205114081953 276.7453641113668,463.23836229197445 276.1679852453363,462.73183616243335 274.8282092368241,461.55650693505504 274.16174286046333,460.9723265401416 272.82993674166124,459.8746933052805 273.9206015390006,458.71789094187574 271.04263682342395,456.2826515113698 270.78530535943446,454.94738203729037 270.24982057318005,454.1974613189219 266.6357885600777,451.175746499082 265.2669287133878,450.81639210187745 263.38219585074694,450.5578922771201 262.2115400664698,451.56748118104343 261.77574149186495,451.6161767896728 259.9605678234221,449.5056164772235 258.4363577187239,447.7343815198708 257.39205180856715,446.0536945237193 257.38395673736306,445.95868175520053 257.3120608215107,445.1356967603008 257.6110777294926,444.0542953949927 256.57954033349284,443.88271326757973 254.85708443917778,443.5952965132835 253.58098409370135,443.46201992890485 252.9816984627986,443.3994291722879 245.94950177758946,442.36083988450633 245.37112145948916,442.36083988450633 245.1914859881059,442.45939946256254 245.2111812128177,442.5903393253461 245.3514262346588,442.7874167542841 245.81042511639768,443.24641563599334 247.44708994713963,444.21310900807083 247.506175621275,444.3765126099604 247.08656718907827,446.1058952147116 246.44797456316027,448.024176722907 246.2485604125383,448.33479378430764 245.70957054398016,448.61415719460393 244.6131056700056,449.13804182732105 243.94659756644066,449.4046367232528 242.94055547214373,449.80801328592617 242.30767946868986,450.0606713067255 242.21262497290763,450.09889339541087 241.9101029827407,450.1568941631867 241.71189892009076,450.1951579790762 241.44876737934743,450.24493849415404 241.15208719313856,450.30293926192985 240.40558810275436,450.44552100545496 239.96282109062776,450.49534324770735 239.04023333836815,450.42928913590197 238.11293041583284,450.1684525895792 237.2227229482709,449.9169629295774 236.4183482717234,449.69092684392604 235.6997229315448,449.4880910653791 235.49108707627366,449.4459048954407 233.913591374194,449.126441673754 230.31925458580346,448.4008896232875 228.48672241418453,447.93721729841775 226.72024435434136,447.69035935440195 225.50669303833698,451.7158630013521 225.41163854255475,452.0322801395362 225.18793917843917,452.00194448618237 223.58494817489387,451.78425383472285 222.93120858584172,451.6439670856183 222.3226595230856,451.51302722280514 217.9922971642549,450.5799242234566 215.76686194987698,450.1012301170059 213.7535676730739,449.6028407858138 214.4154023334487,447.6092000066666 213.95289836928754,447.471291706302 212.80886452027696,447.1305059002159 209.03489226050314,446.42231235289574 209.91466793520667,442.3736083988412 207.84103616921055,441.90534608516003 209.2875502813025,437.13918515181336 208.75903393256976,437.03136214178517 207.8016039924642,436.8354948007896 206.2554036687227,436.703344850034 205.19136080653135,436.6048269991523 203.825964314941,436.3405688247859 202.42113564672286,435.9789194331905 201.3698612989257,435.7633568674535 200.56657152873777,435.35184350640156 200.1852269124009,435.00529935073615 199.68337422602033,434.0988600136805 199.3217248343953,433.7523158579854 199.06093001518772,433.5378799259011 198.27737719703433,433.3396758633401 197.07308931288333,433.29098025471075 196.069342212918,433.3396758633401 195.54658421385358,433.22492614290536 194.979804049261,433.00005841805154 194.07336471220535,432.6407457479919 192.768263982841,432.2281057533466 192.06582878507058,432.079723933038 191.38313053933467,432.0635337906595 190.5601872716391,432.2118738837936 190.41531053357485,432.2467995259886 189.39528983691167,432.4923639276833 188.19100195287925,432.9873316308615 187.11999065316616,433.45096222855676 186.7583412615411,433.54948007943847 186.0756847428908,433.41733012868286 185.0000417271917,433.11827149367474 184.65116084996086,433.0220903643584 183.86643967080238,432.8830137031963 183.44570460504195,432.8076544322444 183.23936374410238,432.7832857643425 182.59726603576212,432.70563149899976 182.0072855640355,432.6349873983829 181.65373124373312,432.5920918665371 177.6780498388871,432.3950144375991 177.6178375310694,433.56571194899146 179.92672708760324,433.9771835828689 180.0832039791752,435.6879975965017 182.07563467026142,436.0438051841687 182.1486572196775,437.14844858378535 182.27617545444713,437.89144259174725 182.95891542738718,437.95628661558055 182.9472735466753,438.2368183866448 182.8244287550958,439.03543471367226 182.8418289853574,439.64515213725554 183.44570460504195,439.682205865173 183.5221905095575,439.7517233321668 183.52340059752956,440.25128102415647 182.80239680872964,440.9143257723551 182.05940280076774,440.99314839849535 180.11216263585897,440.997780114511 178.8615158647626,441.0661292207073 178.09886835917447,441.31423897984 177.8982858479032,442.15454075074126 176.6534391534421,442.07225476941255 173.6977367182923,441.6271927628357 173.52156460200854,442.0316542319576 172.37869911376586,441.82998681420816 171.7910553636936,441.7268372473405 171.60332482110627,441.44981055863923 171.4097524744423,441.165857159561 171.16402116407917,440.25712282808485 169.562156793979,440.23392252098046 168.7276133727757,440.2211957338201 168.2523826215431,439.6138150318022 167.7957204614586,439.6149833925701 167.1477809490417,439.6149833925701 166.5902224893355,441.319997329449 166.36539649165618,442.0061589304623 163.7145527682091,441.7442374776614 162.10922504300942,449.0546292123693 165.77541601992957,449.5993357034212 166.7617628895147,449.6388096072531 167.3227847045576,447.2661192061896 168.9698396007166,447.4967870078269 169.38827967226402,448.1307896449928 169.52735633345583,449.54951346116883 169.44043863596323,450.50226995811386 169.16925375133857,451.154882913543 167.57548445244248,451.90826698712954 163.15006759806673,454.10820690001214 159.13036402781114,454.01782584747934 158.75940947712857,454.0212474754933 158.24933653793144,454.0259209186538 158.12878674080213,454.4860881611606 158.94835010768796,455.9059386109893 157.75787391720513,456.22598601306 157.27801144998654,456.35463088145264 157.21195733821082,456.37207283894804 156.3194131491131,454.6704805301127 155.642640161625,453.54188573430963 155.64255670721664,453.54180227996056 154.90769949766297,452.31640044731245 154.6329678032933,451.89099193830253 154.42086859280406,451.5618062857835 154.21456945906863,451.24071570443886 154.02909218372736,450.9544673109402 153.3927528250554,449.9657837197303 152.97201775917637,449.31433912506907 152.84449952440673,449.1161350625081 152.60456829079743,448.6374409560574 152.3878373642036,448.6374409560574 151.12901206761344,449.1532722447449 148.19196167778284,449.7791380835618 147.9322934922576,449.83480212974257 145.8296613423736,449.8950561647644 145.37767262536062,449.90778295195446 144.94416904508736,449.9193831054919 143.98557074433253,449.9599836429468 142.38024301901427,450.0272061155201 141.3660641263091,450.0701016473955 140.50252032109933,450.10715537528336 139.672608615882,450.14191410878027 139.76186303479176,450.5233004523213 140.58597466325523,454.05037304090473 142.63077295418006,462.73183616243335 142.63077295418006,462.7319613439569 143.9728439571425,468.4300569158545 144.47469664352306,468.92381453106066 145.0102231569817,469.45237260693824 145.54224458801806,470.24744212439856 145.5469180312082,470.25557892277715 145.7555538864794,470.5673643449753 146.28640695674787,471.3625173167847 146.4057466660237,473.0177090114112 146.7627643416628,474.75748168175744 146.8809774172563,475.3312302839014 148.72640328488194,480.55747500543544 148.18854004976893,480.8437651261086 147.96600904642122,480.96310483535484 147.73997296088845,481.0825279989204 147.44208268658892,481.241299884824 146.43140887630602,481.7791213926735 146.0848229934068,481.96343030727655 145.75446898000123,482.13960242350106 143.94167376029827,483.104000801158 139.71099761323578,485.35493131706085 129.02070502231055,491.14223958072336 128.61044347637554,491.43316141738256 123.81974696645855,486.04584981555405 120.87001151664208,482.7062991337446 120.86988633514818,482.70617395222104 120.60099644485516,482.4016907849704 111.81625857496492,474.5222238913086 110.53777978074854,473.37472668702065 100.81872882347848,464.3779730609309 100.28207567645613,463.97693321982297 99.40459499608423,463.816951245977 94.91662911223641,463.57706173951254 91.40462003243805,463.6164521889954 90.03922354084767,463.3764792282116 87.28706624609303,462.7320447982763 87.28614824831294,462.73183616243335 86.09738287189639,462.4533072955681 86.09713250890857,462.4533072955681 81.63236693207621,461.4072488441409 72.24141672096565,459.0229582895103 70.9026838917274,458.6845092050193 68.55319379767934,457.9554520721602 67.94698145645901,457.69582561380946 65.98113097331661,456.85201876054526 62.11560930018281,455.19453207149814 56.07906464373493,453.2066913691641 53.44215779544992,452.3037571144714 51.32471249982791,451.57828851835393 51.32450386392568,451.5781633368304 44.01415385645156,449.07336471215615 41.96831238637133,448.37213960241706 40.29809891016382,448.01512192677797 40.187939178451614,447.9919633468481 39.804299567783154,447.9919633468481 38.5536527965682,447.9919633468481 38.45396658491859,448.017458648373 37.99263098164392,448.13216664163326 37.530210471891095,448.49268939963525 36.932093201874835,448.58770216815407 30.754135162699384,447.8459182481345 27.946856275003068,447.50859579723686 22.365847145075993,446.5952297498044 19.954934655356777,442.4063225009647 16.552083854963612,436.49863134878206 16.551875219061376,436.498172349892 16.36172450052994,436.168110426797 11.124088261271828,427.959416153412 11.123796171198453,427.9592075175691 9.888254635913485,426.0226077812727 7.8911087744329595,422.8919015906367 7.279138083544339,421.93459683208437Z"/></svg>