<svg xmlns="http://www.w3.org/2000/svg" width="500" height="500" viewBox="0 0 500 500"><path d="M2.059500062747416,421.0582766493172 4.180990274853182,420.27007636273527 4.696645742043352,420.07802954277344 6.9961346466551495,418.8221715572871 7.675963665299663,418.30038397099514 9.966254391298449,416.544368055579 10.514410089672426,415.94041007376734 12.005574207805214,414.30051419489894 12.80313991266458,413.04465620945217 13.997007748911413,410.93097051265687 14.579280327898609,409.6132338710934 15.00819418347388,408.54005728737064 15.376734539595533,407.3461894510446 16.296552399945988,405.263443082268 17.278304663073573,403.3339439437409 17.546222519947424,402.7269756489199 17.589593325754873,402.6309243656484 18.6084727823465,401.06227256109497 19.520541874245016,399.65935521104205 24.915580231744123,391.17188920666894 26.600853791680233,388.7515975563706 26.99213873487737,388.1894494773201 28.108630377865975,386.5883531882037 28.997453163774914,385.02588924925396 29.141502215411386,384.67435158693695 29.335054191719394,384.19894511942215 29.39548343791267,383.9388317778191 29.550291571168785,383.27912725899245 29.683470048023175,382.73671345400817 30.820086190829652,378.1071307959759 31.114316413125124,376.90858025055076 32.40267462975567,371.5119252434638 33.26362414707792,368.5559093726198 33.5082956979622,367.9565783533656 33.58884944381491,367.75683851133505 34.154063582574715,366.3662411459084 35.38048739642813,363.21037393995067 37.68003204762115,358.0321338648284 40.93501659636169,352.1633056893627 43.694414431148715,347.29161582120173 45.49536205537895,343.99643801928784 46.4195281457373,342.29616864084704 46.99282553227792,341.2416114004771 48.69766612669503,338.4512184910901 51.04526429271539,334.2237356044162 52.00527540627881,332.49559295750754 52.35218610599874,331.87000531933376 52.64953813430748,331.2970424120824 52.683599268497915,331.23360285295905 53.22088439208981,330.20073101549286 54.90571197969304,326.1621731427279 55.68454684815595,324.21723221344246 56.37519069500132,322.57733633457406 57.06895634785997,320.64477113649605 57.435991547556206,319.46483993442376 57.83084426909948,318.1919235086308 58.40224627330459,315.9296175441831 58.45492675072905,315.7220731869609 58.62829848079641,314.54983500699694 58.97520918051634,312.6513866895322 59.116136425981104,310.75132172251915 59.25544702201646,307.643508031468 59.46449653570367,306.4387138738975 59.783478220414125,304.7616908014066 59.84546836961404,304.4365212510924 60.43075126145205,301.9123738023706 60.95265034082719,300.60545198900803 61.311881025331836,299.32328163810007 61.576732822615206,299.1545368705902 62.10164221499961,298.6543231941188 62.406687265337496,298.36170962141114 63.097331112341315,297.8428766015869 64.72791731951347,297.0996080238191 67.05795532639233,295.84068397878184 67.49355876632701,295.6053220995938 68.07733650173961,295.29096737748046 71.87897159227028,293.56594653662466 73.48475059060466,292.7529390410465 74.73754251646092,292.16297344003016 74.79947691907961,292.13353926847645 76.13889896354677,291.6326008870037 76.1822697693542,291.61637864474204 77.46137406079053,291.2029065798459 78.56855603200368,290.89167366378547 79.04084069354485,290.7104416720245 79.46663274310686,290.5478847701184 79.87854390487752,290.3279646816887 80.34469644739616,290.07710526520066 80.43450411844309,290.0291074968357 81.29851969535582,289.54751316371716 82.40419651014356,288.7190638773807 83.58111739932545,287.6149479656392 86.24451969730335,285.3712055980423 87.27588637826491,284.5690686771671 87.33001626585045,284.5272587744059 89.54287505185134,282.83629906770085 91.27101769883924,281.35277222513486 92.17071105937183,280.66218412479145 93.03472663628456,280.0411677026336 94.83411335750816,278.7296189267135 96.80542239879648,277.5930027838674 98.81068108111282,276.4889426186279 101.093278784924,275.48857101222666 101.5841270432764,275.22377496148493 101.82879859416067,275.0937182906834 103.32001845871625,274.29464742935903 104.2878340876297,273.7774868056246 105.32377198460716,273.24789470414106 105.70624897494294,273.052781824668 107.29658618247933,272.46744318620915 109.82067788458032,271.536754751037 111.6540699932547,270.7779328894276 113.17784583557528,270.13840861700004 113.38070748381719,270.053227908471 113.4984441698736,270.0223443269543 115.07478899661466,269.60580620250727 116.5969481893474,269.1226509663821 117.91011361481571,268.6410008867219 118.70606267008722,268.2957068365502 119.77762260426175,268.0541570917188 120.11522363236467,268.0773476511272 120.77955511362998,268.12384026298747 122.57732518526574,268.60850065565694 122.59438362565157,268.6111207428749 123.946237147749,268.8206719754366 124.48664407735416,269.00028731764934 125.45914241528752,269.3239517114589 126.74443457232758,269.75286556711336 126.88993303396668,269.8318584100387 128.00330287078359,270.44345366745677 128.50658260676627,270.7207369424496 130.3725864397869,271.68849682474223 131.09879657724812,272.4147627087451 132.1858540486434,273.1983360327695 133.3100387138196,273.7975555589405 134.62325988586915,274.0406662067785 135.55701438059216,273.7991164619867 137.25109589338962,273.0403503469189 138.39384415521863,272.4689483427138 139.98105955658332,271.6265624221236 140.88075291727435,270.90185744116695 141.86869304584724,270.69280792744013 142.15216418652307,270.73461783016177 142.80250328715147,270.8322300164399 144.42690162871986,271.6606235562348 146.25878858096885,272.90561096697866 148.02099236198876,273.94316551358355 148.99343495334088,273.1766506298658 149.33410204103427,272.9071718700249 150.26785653559887,271.9409171442765 151.06380559087037,271.11246785794003 151.79007147491282,270.49150718232374 152.86163140908735,269.5949356278044 153.86356391861403,269.04209722041054 154.90106271859813,268.4211365447942 156.28536072529812,267.59424816150397 157.39103754008588,266.8339211433899 157.4232032919408,266.8030933084544 158.2210477293894,266.0410381477089 158.4455947804558,265.84436436514994 158.7753912933671,265.5579386580857 159.55433765483403,264.91841438565814 160.3827869411309,264.6428035067155 162.07686845392837,264.36864203777554 163.08030611988045,264.4724420896574 164.98031534035186,264.68149160342386 166.1556195799459,265.0267856535559 167.26280155115904,265.3040131820468 167.84970109258492,265.4077017408851 168.88719989272744,265.33963521920424 169.0498125410167,265.297490837233 169.8210101340317,265.09802972783126 170.61534253971536,264.9261074077665 171.99819113641274,264.1673970392007 172.72133521428347,263.68580270608214 173.4506671579164,263.2010865669107 174.7994546205818,262.16665382639826 175.62940906330408,261.5101268601661 176.28760842570532,260.8891661845498 176.87445222054995,259.8547334440374 177.24918044227536,259.1687723062911 177.42416882193058,258.84979062158067 177.53103493336334,258.6561828986122 178.01575107253478,258.3356960573971 178.776022344028,257.7146796352392 179.15699417793837,257.5428130616765 180.0907486726614,257.4390687563362 181.5339150223896,257.46382021875115 182.74333614259686,257.39575369707035 184.22992904471377,257.29351454823467 185.7861493714785,257.1557091087832 187.20305910236632,257.0194088258363 187.7899586437922,257.1231531311766 188.17862349989016,257.2811388170272 189.65746763323824,257.8834801492907 191.31587136241586,258.29851311723303 192.59497565385217,258.61130693630014 193.68353828183132,259.0820306947158 194.42535744967572,259.5775616620881 196.3950498413762,260.8226048193736 197.29318229890217,261.54887070337645 198.50254767252818,262.34320310906014 199.36667474260335,262.72417494289124 200.54197898203896,263.13920791083365 202.27012162886842,263.5897514228502 203.99664762626847,263.90104008545234 205.13175861264952,264.1549655614516 206.34112398627556,264.1209044273404 207.0674456167408,263.94898210727564 208.06926663310503,263.70743236244425 208.96895999379603,263.32807717820094 209.52179840103148,262.9486662473764 210.03282690578297,262.4345716831929 210.81327842367529,261.65261500871674 211.97776783506845,260.94647362457135 213.43024385657213,259.4970636626582 214.4336815225242,258.3588866168055 215.50524145669874,257.5985595986914 216.9918343586572,256.9435377889639 219.22019068219572,256.19870830814983 220.39700007821517,255.68305284092003 221.4686157588125,255.30369765663713 222.81740322147786,254.78648128640071 224.23264055635505,254.33738718434714 225.51180059421415,253.95959290311046 226.86047656387555,253.85584859777018 228.4508137712535,253.82329262016358 230.14489528405096,253.7194925682817 231.3543164042582,253.51362060714936 231.75229093181477,253.32157378718756 232.35775407021032,253.03046537098456 233.35963083299734,252.40950469536824 235.1233955171823,251.06383903879535 236.09277204894394,249.99378426112546 236.52140717193,249.38525506325826 236.74929901517612,249.06164641599028 237.23407090092877,248.0953359437003 238.7221132130483,245.7137323900707 239.1727124716065,245.23057715394552 240.48743880008146,243.64180084949496 240.71666856032618,243.25001418750256 241.12384126649573,242.55011641550257 241.1517702815052,242.367379267237 241.27859365317065,241.58893462460495 241.29581933298323,241.4801173843743 241.29581933298323,240.7554124034177 241.36544675778953,238.75316403407103 241.54199604045138,233.12426895384888 241.7386698229311,230.72716786295894 241.47543467523556,229.5751099293941 241.40731240701314,228.8844103360071 240.95821830503877,227.84852818549206 240.95821830503877,226.8806568101558 240.95972346146416,226.4672404918013 240.78635173155527,226.08632440447215 240.57886312071625,225.74097460779845 240.2675744581934,225.56905228769412 239.40344738827665,225.36161942351555 238.1600208804602,225.18813620040459 236.811289164376,225.29188050574487 235.15282968877563,225.39411965458052 234.18495831328096,225.32443648335146 233.70029792069073,225.1510090067425 232.80216546300633,224.87378147825163 231.41931686630895,224.35505995151058 228.43074501801686,223.40736882253384 227.4629293891034,223.1301970405846 226.66854123699696,222.81890837802212 226.55855331939247,222.5432974990795 226.46099687957673,222.30018685124145 226.53068005096424,221.81703161507664 227.11914049539672,220.7114105468305 228.362622749636,219.090134011315 228.8829051795817,218.12231838252038 229.67885423485322,216.8447192476283 230.12789259024638,215.60285364293728 230.13564135901518,215.58429004612606 230.9997126823507,213.61298100479812 231.27688446426032,212.57709885432266 231.48593397794752,211.68047155326173 231.75073002880814,210.84427349831486 232.10845555672893,209.71228431802626 232.59311594931913,208.0213246113213 232.76810432897435,206.5007263216348 233.04533185746521,205.39655466331206 233.66779768966538,204.08344498434576 234.08188296636075,202.92982614773467 234.1880801192942,202.63403502243256 234.19738979106967,202.53491767964977 234.2577632905233,201.83964687020728 234.25932419368834,200.81457954793268 234.12151875423683,199.67322494944588 233.9496521805949,198.56916478420638 233.5702412498496,197.05012739756611 233.60580754046546,196.0838169252365 233.5036798846338,194.7366461121986 233.36581869860106,193.66503043148245 233.296135527372,193.18187519531764 233.1242689538885,192.76689797391688 232.8827192090175,192.24968160364088 232.70923598594612,191.6968989427886 232.67517485191414,191.04031623005446 232.81610209737892,189.74420924485312 233.09332962586976,188.46672160300466 233.3364402737474,187.22474450527005 233.819539763331,185.35879641890986 234.1663947164697,184.28874164123997 234.82297742928307,182.94313173120867 235.55080421633215,181.5277829033671 236.45668544246848,180.12330465026798 236.69829093392073,179.3629218856123 236.69979609034613,178.63821690465574 236.49225173308434,177.94762880431233 236.28013615980666,177.4334784935872 235.42225270191645,175.2872368192249 235.14664182301343,174.2513546687098 235.11258068898144,173.00781666792895 235.11408584540686,172.04005678567594 235.42537450808814,170.93588512735323 236.46287330807223,168.89812621397192 237.7404166965019,167.12505185820953 237.77910479313104,167.07081047773883 239.4406303283219,165.11661562329874 240.2009573465548,164.01255545805924 240.36050393541203,163.80657200384368 241.03252843886494,162.94250068038934 241.6890554050971,161.90656278337227 242.502062900596,159.78044560882782 242.55318247517226,159.07586512772872 242.83191516008856,156.9342504158843 242.86502860303202,156.47434148566947 242.9356594653496,155.49565528213236 242.90472013733088,155.14573426940316 242.83342031651395,154.355973079775 242.66155374287203,153.35409631686917 242.2465207750881,151.76688091546487 241.3128220269463,150.41190558723534 240.5896779489171,149.27835550394013 240.2783892862358,148.69156745547863 240.17464498097473,148.00086786209167 240.59118310550096,146.92930792791714 241.4568153318431,145.44583683189273 242.08240297021496,143.8663701991384 242.42775276692828,142.62288794489916 242.49743593815734,141.72469974079198 242.6026853998438,140.96442846921954 242.7761686230736,139.86031255743842 243.36457332108333,137.75281472628646 243.67736714019003,136.6843208516628 244.50743307607476,134.78587253419803 245.34050932496876,132.35002760009775 245.89485288878805,130.968739906407 246.24020268550134,129.83061860705627 246.517374467411,128.72499753881013 246.43531556497445,127.47688832197377 246.8425440177252,126.69799770704847 247.03771264377949,125.61707235467571 247.76392278124072,123.096102458588 248.42513245649278,121.37576432683132 248.632676813913,120.47913702577038 248.66824310437042,119.78843743238339 248.66824310437042,119.0637324514268 248.46081024027106,118.61474984241683 247.94353812349306,118.09597256913418 247.21732798603182,117.26596237979105 246.38882295315372,116.64344080112849 245.1438355423306,115.88316952955606 241.88271887456756,113.94592162237895 240.97215493925287,113.81742585458406 240.14058384694275,113.47831967005573 239.12008774060482,112.52906763807233 237.97884463520123,111.940607193521 236.72610845576776,111.27164874953975 235.90540793823968,110.83498612523526 235.09396134558898,110.52219230616817 234.38475390193236,110.24808658373017 233.74740374442953,110.01891257014587 232.55442785269003,109.58994296794977 230.75660203447305,109.20902688066023 228.85497616441378,108.82811079333109 226.7474783332618,108.54937810837521 224.43093098842263,108.41001176587746 221.75348056290971,108.11734244662823 221.40512045318715,107.90673202985518 221.26725926731288,107.3539493690029 221.49180631822082,105.98659830952629 221.4995550868312,104.8376064354727 221.64973625749022,104.03859132068992 222.13601329982671,101.00185446428921 222.27537964228486,98.9640955509079 222.31094593290072,97.90647225098711 222.3481288731044,96.76210733953064 222.62535640159527,95.86391913542347 222.86690614646628,95.4148807799115 224.35500420500858,94.75985897018397 225.14939235727348,94.45013121062814 226.63598525923192,93.89729280323427 227.91503380424547,93.44975960422693 228.3006326005945,93.31814203037916 229.33350443813993,92.96666011460373 229.74692075633598,92.794793541041 230.49336688677752,92.48506578148516 231.73835429760064,92.31319920792244 231.77860329723637,92.31938707352619 232.7743479411593,92.4866266844918 233.7065415328757,92.79785960055227 234.94996804053372,93.45444231332604 236.02152797470825,94.76755199229235 236.50462746429184,95.32039039968623 237.19688796072506,95.32039039968623 237.54374291386378,95.21201913178844 238.30250902909003,94.97665725256078 239.4251327909427,94.37113836770284 240.72129552276488,93.6697354391982 241.6225497864625,93.18345839698053 243.26082901566383,92.25895782741213 244.94253479725378,91.21683206479132 245.56500062945395,90.62998826982783 246.35169575953122,89.96404013885584 246.46469398998653,89.86966125171378 246.98809822594552,89.22233246409463 247.7794203186199,87.72960744291561 248.31051757644963,85.88066205032042 248.38287658151754,85.6748458357297 248.75961167858244,84.60311866196996 248.83860452158694,84.31663720832447 249.0724054975307,83.46499736261923 249.13127384071734,83.38594877319193 249.66081019569887,82.67055346389196 250.0758431634828,82.46312059971338 250.87023131574767,82.46462575621801 252.80591831999737,82.84559759004917 254.77561071169785,83.01902506665813 255.98659273491174,83.0886524913852 258.1637179907116,83.02058596970437 259.5465665875674,82.95240795494033 259.9615438089285,82.71085821014853 260.20314930038074,82.33144727932401 260.51594311932905,81.19176507696666 260.51594311932905,80.36331579063017 260.0684099203613,78.70480056844856 259.2848923428785,75.68060668288017 258.9054814119748,74.50524669682375 258.00734895444884,72.433315156248 257.1448385341199,70.87865573248989 256.6957444319871,69.87672322300283 256.35819915046545,69.20001601041119 255.21076817961654,68.14858057609415 254.8824210765494,67.91628475645697 254.62225198844436,67.73360335469339 253.65449210611214,67.31862613329263 252.5488710379056,67.04295950784801 251.09784442640458,66.45455480983829 250.23382884949183,65.90171640244442 248.1169656001416,64.0140271666389 247.72038473584806,63.56348365462229 247.35663858190873,63.14995584318456 245.94134550060878,61.42181319627587 244.89303187242382,60.119574092012414 243.66036444638544,58.58961038412769 241.47543467523556,55.98039371996005 239.95478063908666,54.14845102116947 239.33381996347038,53.491924054937314 238.7453595188794,53.35411861548581 238.08883255264726,53.11256887065441 237.36251092218203,52.90346361038598 236.91347256663045,52.49004729203146 236.50000050169473,51.72972027391741 236.43962700208266,51.36887293994374 236.29251189101416,50.48623801963855 236.2832579658199,50.427425423112346 235.9441517812916,48.33536938267912 235.73816832719487,46.88439851771969 235.42687966451356,45.43342765276026 235.15126878561054,44.29374545040291 234.9453410779366,43.11994636739273 234.91127994390462,41.427425757601895 234.77497966087853,40.28774355524454 234.87872396629803,39.493355403019265 235.05220718936937,39.01025591339607 235.98590593751118,38.353617454120304 238.13683032105183,37.88601550179709 238.8289793243226,37.817837487033046 239.1061511063907,37.50660457097257 239.62492837959414,36.50779386757799 239.86647812446515,35.71340571539233 240.8358546562268,34.263995753439524 241.56212054026923,33.22805785642246 241.73554801691782,32.813080635021706 241.87491435937596,32.12243678817633 242.08240297021496,31.363670673108516 242.18464211889219,31.03069660760271 242.2837037152918,30.733344579254364 242.49743593815734,30.558411946180378 242.73435872027278,30.48716787190507 243.53493473814143,30.32767702954984 245.1252719455194,29.534849780370806 246.21539547650514,29.06563117845974 247.175518083231,28.653720016609856 248.1448946151511,28.032759340993547 249.631487517268,27.170248920545838 250.15639690949394,26.69172064697815 250.4273808259583,26.445543939589243 251.5330018941648,25.618655556298993 252.6742449995684,24.582661912740317 253.74736583674957,23.546724015723253 254.88860894215316,22.304858411032246 255.44300825255365,21.33854793874225 255.96178552591553,20.716082106621307 256.85991798344145,20.09506568446339 257.5861838674839,19.81945480556038 258.3820771761742,19.785393671449164 258.6313756896556,19.84420626797537 259.416454170145,20.028560065828806 261.6974352245268,20.85851450866993 261.96072611864514,20.95021756201277 262.4933842796399,21.13568629061918 263.7368665340376,21.41291381911004 264.6303162823852,21.383479647556328 265.25908147335156,21.033502888285526 265.88154730523485,20.37692017555137 266.5179497716491,19.285235741519358 267.00272165740176,18.38860844045843 267.4176431323401,17.282987372172688 267.442729074084,17.107998992557093 267.59112635541146,16.07668805809753 267.7645538320601,14.695456110908777 268.0417256139697,13.727640482114149 268.3545194330764,13.036940888727163 269.39207397964174,12.00250814821473 270.49763930142547,11.449725487322857 271.98272704711695,10.968186900745906 273.1239701523621,10.656898238143825 274.12740781831417,10.31310934447677 274.7839347845463,10.071559599684978 275.3027120579082,9.622521244173003 276.1683442844088,8.310916721711317 276.79081011645053,7.274923078152642 277.84692825998553,5.382662626291614 278.6088161810666,4.450413288112835 280.44070313331554,3.2085476834218287 281.5137682239155,2.5520207171896696 282.7588113813198,1.8969431609601435 283.90005448656495,1.0003716064012147 285.14353674096265,0.379355184282907 286.2150966751372,0.13780543945150503 286.9057405219826,0 288.1399131046048,0.0976121862781494 288.6695052060091,0.13936634249774676 291.12385799045825,0.4522159081460685 292.6445120266071,0.521843332833527 294.44696480726276,0.47384556446857284 296.23085399126563,0.5234042358797687 297.6694491249779,0.47696737056105637 298.48552268006733,0.47696737056105637 298.96555611021887,0.9089472857268124 299.34803310055463,1.7235156843511783 299.34803310055463,2.5380283364339347 299.0569804308536,5.796078944685739 298.38328353123165,9.244671216394726 297.75769589301825,12.790764181338256 297.4681483799011,14.117866241099918 297.3257159778525,15.21261673464319 297.77319343039744,16.714651427518447 298.06915179528477,17.107998992557093 298.2346632635793,17.327863334484768 299.1451714524712,18.766458468236706 300.3422168413125,20.491535055594515 302.5472711122802,23.080627219904667 306.05623688352205,27.224434554514538 307.82925549274285,28.94945539537035 308.4161550341687,29.51505975972337 310.08855114414166,31.12669214433262 311.80743986593535,32.785207366514236 313.4828462889176,34.38942546168354 313.8344396976574,34.72546558670061 314.3423463962372,35.11106438312887 314.97874886265146,35.5957247757983 316.0379330656185,36.48923027076675 316.27953855691226,36.692091918889815 317.3185425134802,37.091571603030204 318.4071608878821,37.508109727477205 320.5626564875971,37.88445459875085 321.2301097750341,38.30561968575535 321.4717152663279,38.46511052811058 321.92387542789277,38.762406809917316 322.5618387973137,39.14181774070222 323.5652764632658,40.442551688461045 324.09330766166346,41.48785500371595 324.76382700869095,43.30887138126206 325.30111213228287,44.473416539117615 325.923689457487,45.24143657934005 327.12218425633097,46.535982661495126 327.7942645063651,47.20499685197839 328.6087771584479,48.21300573398599 328.8473165903096,48.83552731264854 329.0872496854343,49.69803773305664 329.6602125928045,52.525669329149316 330.330731939832,57.17431730282771 330.71326467659054,58.5153002503015 330.8711388694372,59.071204717246246 331.3837282770368,60.864347826284884 332.29440370551396,63.56348365462229 333.35035460930527,66.69298274857721 334.9236891230371,71.3416864687576 335.36029600079996,72.63467164786644 335.9348198110183,73.30669615139858 335.9518225048229,73.31293976354394 336.6548420828758,73.54668499314413 338.1894327533973,73.69073404474099 340.7305828958841,73.74029271615218 342.9852515846858,73.55136770228285 343.1477527401295,73.49718206831415 344.27974192033884,73.12089294358212 345.4659167345565,72.83597239298288 345.47985336877065,72.83285058689039 346.486412840736,72.83441148993664 348.02100351125745,73.31444492004857 349.31554959333334,73.93847165517614 350.3220533188759,74.80103782212585 351.3766105592458,75.80910245067506 351.9371419888273,76.02595647959346 352.8632034613627,76.38518716397928 354.87158394985073,76.60616643665993 355.93232905582437,76.72278819204259 356.3844892173892,76.79860348237341 356.4371139482325,76.80791315403002 356.86920535656066,76.99995997399184 357.2532432499031,77.33600009900891 357.63572024023887,78.62892953157613 358.3541816090897,80.20995706737669 359.3127433126505,81.93659455778074 360.2232515015424,82.99115179815065 361.0377641536251,84.23770011194078 361.1818132052616,84.47768895372594 361.46979981537214,84.5257424686325 361.9018912235419,84.09521196339016 362.9563927173306,83.42469261640227 364.49254429085863,82.70623124755141 365.691039089861,81.7012326785927 367.65766542197105,80.74423187795932 369.2882516291432,80.26575935089363 370.3923675409243,79.8352845921929 371.5429203181033,79.164765245205 372.3140621642202,78.68467606859107 373.0790161450502,78.20776444457162 373.847091931735,77.48924732921878 374.59353806217655,76.8945990190637 375.79359376402715,76.17608190371085 377.3297453375552,74.93109449296698 378.5778545543916,73.78366352192002 379.9683961732766,72.87471623619321 381.35893779200313,72.49218349931581 383.2775106094442,72.39774886563215 384.42811913304604,72.2537555605769 384.9561503314437,72.39774886563215 385.7226652151219,73.06826821265966 385.76140905849064,73.10851721237462 386.58517563560923,73.97877640143271 386.9212157607055,74.07482768466463 387.7372335692137,74.07633284116925 387.93702915770666,74.07633284116925 389.51186882786385,74.07783799767388 391.03101770758735,74.03140113235517 391.09445726678985,74.02984022930893 392.38900334902416,74.60586919611116 393.53961187246756,75.13395614109004 394.7861044398745,75.90203192781448 396.46474416187397,77.14858024164421 397.66323896071793,77.86860251350168 399.82035120986234,79.35519541557898 400.9228504720556,80.5057481926788 401.3270686117971,81.01476982201156 402.2174523008711,82.13633439985094 403.2239560262552,83.28532627390452 404.3250058784459,85.29844521795405 405.7821646091279,88.39388317779776 406.69267279786135,90.45650504667726 406.8986005055353,92.26364053651125 407.26563570507307,93.71461140147068 407.55206141217695,94.86516417857051 407.8881015371148,95.53412262255176 408.60661865254684,96.15814935767933 409.99721601801303,97.07021844949864 411.3397598684935,97.83673333321643 412.32307303446925,98.84173190221476 414.8394159681183,101.19395703079263 415.5718697177645,101.90160357144262 416.7208058451972,103.00571948322373 417.96740990544976,104.25226779701386 418.77880075151927,104.97385097187797 419.6971134554443,105.7914854300532 420.0764686397668,106.31332876284712 420.5069433983487,107.12784141492988 421.25645558838073,108.00272756658508 421.4716372212489,108.2535869830731 421.933162801012,108.80949144997824 422.0895318372747,108.99691130738255 423.0000957725894,109.62093804251012 424.3906373914744,109.81292911593033 426.02122359864654,109.95848332403182 427.41332612053816,110.00648109239677 427.89492045353785,110.00648109239677 429.1399636109422,110.00804199544301 429.94210053165904,109.95697816752718 430.6140692888476,109.91516826480559 431.2040906362867,109.69374301983167 431.8064319685106,109.71386751968916 432.0434104973657,109.80523609382195 432.78589862355096,110.01891257014587 432.7913060376514,110.02047347319211 433.5206937277071,110.3905747323204 434.44669945381975,110.77149081960994 435.555442328198,111.24377548103227 436.27239854046496,111.49000793496279 437.26652653480005,111.70518956779135 437.69700129354044,111.70518956779135 438.83049563017516,111.86941886578731 440.1343513840265,111.82911411953073 441.24158910182086,111.9731631711276 442.41070547581114,112.3107084526493 443.5194483501894,112.50582133212238 444.2782144652572,112.63899980901637 444.71955979862116,112.68855848038795 445.7709952328194,112.8944861880619 446.66293982490004,113.21196271626772 447.5455747452052,113.56037857249228 447.7824975273207,113.67543942486832 448.6016371420006,114.0729122336692 449.23815110141885,114.44301349279748 449.71043576296,115.30240210715272 449.8899953584727,115.79180095542326 450.1161033125457,116.40345195938295 450.4753897436316,116.83387097154207 451.01429151665286,117.0429762318105 451.77456278830454,117.32014801375975 452.58444847779015,117.52457056492906 454.1267321703408,117.84043044354704 456.90636599810813,118.53113003693402 457.6372588447477,118.73237503550885 458.76607047236257,119.00185379534972 460.0235451073972,119.41220405419297 463.2444127755245,120.34751945192262 464.0821717334384,120.55812986869567 464.98035993754553,120.9297362843286 465.59658215756076,121.51970188534496 466.3151550194156,122.18553852327334 467.08473596268425,123.1084781897955 467.6886381980732,124.00661064736106 468.4917228098785,125.51042922936978 469.58870316496734,127.56362993354905 469.96187048368614,128.43383337606554 470.1848566315875,129.30102650557276 470.6323340841324,130.09541465779802 471.5274004820679,132.50489147989546 471.9036896067999,133.31321626633488 472.2521054631037,134.00848707577737 472.4767082605929,134.85399480242046 474.06704546812927,137.21235205010007 474.539330129512,137.88287139708797 474.93880981365237,138.43877586403272 475.1106763871359,138.67725954931325 476.1032434784643,140.01985914633528 475.76263213735217,140.55870517297342 475.49939698981507,140.97368239437415 475.40184054999935,141.03255073744197 474.864443933245,141.3546542282053 474.3085952130003,141.7835680838598 473.78357432745344,142.1799817084493 473.76813253681394,142.95892806991623 473.746447133831,143.9871171982833 473.7170129622377,145.41021479477487 473.89200134189286,145.96611926168 474.20323425799296,146.03736333595532 474.96049521663537,146.0528608732553 476.8806846833474,145.95067747096124 477.0076195481753,145.99711433627996 477.0850514881732,146.49883316925602 477.1826079278305,147.14142350119482 477.1717930996296,148.07055103332073 477.15317375623715,149.58195114439422 477.0679930477873,150.23229024502263 476.96112693635456,150.44446156484193 476.6762621322573,150.639574444315 475.5953925264658,150.66125984721873 474.4200882870302,150.72475515284404 470.87550047843285,150.70920186904206 469.99593161771816,150.54976677322844 468.94761798953317,150.5017690048635 467.18691936509714,150.67201892883836 467.1311728280822,150.67056951887534 465.88925147669113,150.6488283694696 464.61795170044644,150.6767016379771 463.633077631464,150.6767016379771 462.6002057939186,150.78819471196738 461.615387471359,150.97862488234134 459.89805965257193,151.8195056463873 458.8823020019936,152.32741234496712 457.77818609021244,152.98706111729174 457.4855167709236,153.1682931090527 456.8568073266969,153.55851886803848 455.96636789120015,154.08186735737664 453.0737915795587,155.60714835616224 452.27940342729386,156.22660387527392 451.98383528815816,156.47434148566947 451.48495952860617,156.8924405131627 451.13347761287037,157.50258636057816 451.02198453884046,158.43940691481242 451.00654274820096,159.75725504945908 450.975547673601,160.3286013071226 450.7200055479346,160.83650800570237 450.1269738873278,161.1787917428648 449.5230159055161,161.46365654692244 448.6171904258025,161.63864492657765 448.2362185920506,161.55970783015434 447.7824975273207,161.4080772495323 447.56882105103637,161.3367216821738 446.8549308982014,161.0827404596329 446.1240380517203,160.7498221406687 445.1066637513956,160.43234561246288 444.39126844213524,160.4169038217441 442.6677527579029,160.38434784413752 441.6860004947753,160.43546741855536 441.4599482872835,160.44784314976286 440.53695287433857,160.46334068706284 439.75962316245955,160.52683599268815 438.5828137662817,160.70182437230375 437.6459374655454,160.92324961727766 436.7709955672693,161.09818225039126 436.35757924907324,161.22522860818353 435.6111888650545,161.4961567779874 434.8136789069348,161.91275064897602 433.55938182449466,162.51670863078772 432.9229793580804,162.86662964355654 432.4243823311176,163.0570598139305 431.6221896638196,163.45196828201537 431.20565153929334,163.68270319864592 430.1603482241177,163.95831407754892 429.2607106100079,164.23398070299353 428.05134523638185,164.61333588727643 426.87604099694624,165.02680795217256 425.7982374505867,165.59202209081354 424.76068290402145,166.10923846104996 424.7328653821744,166.13555082651118 424.23265170562377,166.61402335357687 423.93072846129917,166.90357086673362 423.62256160463113,167.27523302890816 423.1007182718372,167.90394247313483 422.6423144980874,168.44903211191834 421.85411421158466,169.3889744722055 420.6804266215785,170.90656244888274 420.22977161643905,171.77063377233708 419.918538700339,172.1840500907312 419.7451112238488,172.59902731213194 419.39976142713556,173.42747659842883 419.3641393899385,173.91063183459363 419.5360617101616,175.36160269955306 419.74198941767713,177.81445032745796 419.9138559913191,179.62933458594193 419.91547264090696,179.64789818275318 419.9293535285398,179.85075983087623 419.9820340061228,180.5614724310375 419.9464119689257,181.01056653309107 419.80860652947416,181.56340494052455 419.5654958815965,182.42591536093266 419.0452134518092,183.71115177139148 418.76949107990225,184.3941025961681 417.93797573401486,186.15468972760016 417.2117098499724,187.7435217785527 416.3816996606689,188.88325972745167 415.65543377662647,189.53822579063757 414.40119244076755,191.00469419289698 413.73067309374005,191.80683111373264 413.19182706714156,192.45404840830818 412.77679409919915,192.86913712275253 412.5336277047403,193.31811973176252 412.4640002800925,193.83539184854055 412.32619484064094,194.8713297455576 412.1170895803725,196.8038949436356 411.90653491010147,198.5490402843489 411.90653491010147,199.30786214595832 411.7779833958442,199.45648241357108 411.6989905528397,199.54941189075012 411.4574408081271,199.65315619613 410.97272466895566,199.6872173302016 410.5577474474361,199.47967297297944 409.62555385587814,198.92689031212717 408.4161884822521,198.23624646524217 407.44831710675743,197.9250135491817 406.4805572245836,197.71752493850113 406.0314631224508,197.71752493850113 405.720174459928,197.85533037795264 405.5126858492474,198.09688012274444 405.2695752013698,198.61409649302047 405.0620865906892,199.78783982948903 405.0078452102581,200.3731784679875 404.8530370768435,202.0316936901691 404.7429376663935,202.92982614773467 404.6393048541364,203.77371722478992 404.4302553404492,205.0527657696846 404.08496129015873,205.70784332591415 403.67148922522296,206.39848717279912 403.0134013559842,207.50260308454062 401.9759025560001,209.47073457323447 401.55936443163233,210.40292816491126 401.3518758207933,211.30106062247683 401.3270686117971,211.53580928974677 401.20782676931526,212.66528987586096 401.10096065772404,213.46436073718536 401.06840468027593,213.70128351941963 400.86710393504063,214.37642982900465 400.5837442875273,215.3241209579418 400.41031681087867,216.22225341550734 400.23688933438854,217.190069044302 400.06346185774,218.5357347009145 399.92253461211675,220.50386618956873 399.61130169617513,221.74584328734295 399.33412991410705,223.16269727164956 399.19470782506767,223.81771908137708 398.91597514015143,224.69884884517765 398.638859104823,225.45755921370386 398.397309359952,225.80290901037753 398.01633752620006,226.14825880709083 397.3598105599679,226.32012538065356 394.73347970887284,226.25044220942448 393.7656083335366,226.24888130637825 392.8334704884014,226.24888130637825 392.6817284147358,226.29219636560447 391.8640939564813,226.52449218528125 390.1235198318631,226.8419687134871 388.39387202844983,227.28950191249442 387.2882509602433,227.73859601454802 386.25069641351956,228.25575663828243 384.76410351156113,228.77291726197723 384.45292634204225,228.94483958208156 384.2097599475834,229.15238393934337 383.86441015087007,229.63548342896655 383.62135524957364,230.53361588653212 383.3813106612865,231.6036706641624 383.20788318479634,232.63960856121906 383.0344557081478,233.01896374546237 382.65348387423745,233.46805784751595 381.8932126027442,234.02089625490981 381.1313246816631,234.43431257330394 379.99158673268494,234.60623489340827 378.88440476131336,234.60467399036204 376.98439554084194,234.56910769974618 376.3154370968211,234.6572987212845 375.51948804154955,234.79359900423137 375.243877162805,234.9329653467291 375.1741939915759,235.07082653272224 375.2423162596399,235.38049854573646 375.3816826022565,235.54768241020005 375.5876103099304,235.79553151367884 376.86665885478556,236.90115258196457 377.4892361799897,237.31612980336533 378.07613572141554,238.18020112681967 378.97270727593485,239.6311719917791 379.52554568332874,240.63304875468495 380.493305565661,241.94621418019287 380.9764608018258,242.36119140159363 381.32175485195785,242.8799129283743 381.8389712223131,244.08933404854193 381.8730323563451,245.09121081144778 382.21832640647716,245.81591579240435 382.66742050861,246.78217051819237 383.6693530179782,248.267202517263 384.333684499402,249.33413548884042 384.34985099512204,249.38525506325826 384.57523424411454,250.09446250695447 384.57523424411454,251.02665609863126 384.2640013281729,251.88916651903935 383.53617454112384,253.16670990738982 383.08708043899105,254.2026478044069 381.9102152963904,256.06709073430204 380.97802170483243,257.41275639087496 380.14801151552894,258.3805720196696 379.42018472847985,259.06965496350836 377.6487270222657,260.54075032832526 376.6112282222816,261.26545530928183 375.15869645419673,262.30144895284053 374.2249977060549,263.19802050735984 373.3934266137448,264.3036415756456 372.9783936458024,265.16615199605366 372.8405882061925,266.0983455877305 372.8049104225726,266.9624169111848 373.01089387666934,268.0324716888547 373.6675323360639,269.1040873695312 374.63529221839616,269.86435864110365 376.25194179119575,270.82135944173706 377.1222009802934,271.4531349455146 378.159699780436,271.6963013399338 378.7125381876714,271.72874582445723 379.8878424272654,271.7999898987325 381.3048079047345,271.835667682392 382.54979531555756,272.18246688906834 383.89696612847666,272.5974998570107 385.0722703680707,273.1162771302933 385.7412288120916,273.4537666652734 385.9332756319742,273.6458692317768 385.9487174227722,273.6613110225352 385.9487174227722,274.0406662067785 385.82328771452813,274.36745240668057 385.77528994612356,274.4897603088321 385.08314094285276,275.5938762206132 384.25313075339085,276.5601309464012 383.2852593780546,277.69981314875855 382.41973864471646,278.52826243509503 381.97064454258367,279.25296741605166 381.41630097876435,280.0814724488901 381.1390734502735,280.9796049064557 381.035329144854,281.84061017039875 381.06782937587934,283.4990138994972 381.0337682418474,284.3630852229515 380.72091867615944,285.5368843060013 380.4824907374601,285.90079769948625 380.05820384432354,286.54963164361 379.4016211316686,287.65525271189574 379.3148795200537,288.58750205007453 378.94433228859253,290.41442756055596 378.84571666468423,290.9009275889401 378.7419723594232,291.822306352416 378.81009462748716,293.031671726042 378.81009462748716,293.79049358765144 378.67072828502904,294.34171534545743 378.22012902647083,295.0664203264537 377.52948517962545,295.5851975997363 377.1253227864651,295.84068397878184 376.76759725854436,296.06679193285487 375.6279150561474,296.51583028836683 374.59041625600486,296.8255580479227 373.76040606670136,297.06710779271447 373.0000790486269,297.1352858074785 372.3171839703919,297.070229598807 371.6234740641145,296.92004842814794 370.9498329109153,296.5840083031309 370.70984406920934,296.4213399081416 370.4419262123355,296.13647510408396 370.28460948498423,296.2959659464392 368.9445184821762,297.6540073342592 367.0088872245077,299.48126732395065 365.69577754546214,300.7123738469824 364.1597374650965,302.1537005610355 363.75390267560874,302.5333902245285 362.4747983843308,303.67151152387925 361.7826493809016,304.3622111172662 360.67546740968845,305.6738156397279 358.9457081131127,307.6063250913039 357.1014454296562,309.6225100948647 354.9397062179147,311.75013242591376 354.87158394985073,311.81719550992483 354.5417316903582,312.14186334136457 354.0570712976095,312.5909574434181 353.91926585831646,312.93630724013144 353.60803294221637,313.76319562342167 353.192999974274,315.2141664883811 352.39242395640537,317.7506339217292 352.3552967627829,317.87450272696657 352.2112477111464,318.36072402264267 352.01145212265345,319.02812156357766 351.110253605537,320.96068676165567 351.0931951651512,320.98237216455937 350.4196097585332,321.82475808511 349.2071225788939,323.93080650633857 348.9315117001494,324.2125495043037 347.94357157141803,324.7731366803476 346.96644627088756,325.11848647706086 345.2723647580901,325.87881349517494 344.594152388875,326.42228648437055 344.23336080152217,326.6932704007161 343.35997980641116,327.7865714842963 342.8675148984709,328.9030073807433 342.42304775909366,330.1728577469854 342.35492549087127,331.1871102411384 342.31004952847996,331.8684444162875 342.0158193063429,333.02050234989196 341.5419737417951,333.6089627944433 340.9071321785459,334.15249153014094 339.29349291859717,334.82301087716843 339.1913652627655,334.88650618279377 339.0117499206716,335.0010653163349 338.81351523502684,335.29685644163703 338.85064242864934,335.7815168342668 338.8646348094447,335.97205849772405 338.89864019705385,336.4071602190219 338.53166074393886,337.19842656515465 338.1879275968134,337.57315478684046 338.1491837536031,337.61502043614325 337.862702299918,337.929319411715 336.3683606291907,338.3861622824186 336.3203628609446,338.4109137448336 335.40522770961405,338.8770105406521 335.7102727599519,339.5800301187446 335.88063417701,340.035312086402 336.1841183244997,340.3775400770228 336.56503441182883,340.6237725309533 337.28661758669296,341.0232522150541 339.3276655457916,342.0793703584702 339.5640866091514,342.29616864084704 340.9426984690033,343.5597196484418 341.1904918260593,344.12961649614226 341.24774351949964,344.85119967104595 341.1331843860377,345.23211575837513 340.7336489553161,345.80045170302935 339.821579863576,346.8642628685539 337.78532610665974,349.45803774196315 336.45666314381225,352.3801039717395 335.44859851526303,355.3996708947504 335.2968564415974,356.31023483006504 335.35410813503773,357.0318180049688 335.46560120906764,357.4576658010724 336.2831799207409,360.0777530399429 336.30336016714,360.24655355395475 336.3591067041549,360.70490158116297 336.2073646304893,361.35061371919426 335.69477522273115,361.881766723724 335.17298763636,362.54141549600905 332.037189183837,365.02832425798556 331.69652209614355,365.4464232854788 331.3930379488123,366.37711172065093 330.8588188848109,368.1919959791349 329.6432098989999,372.0648193973993 329.56728311558584,372.6919121920777 329.4016601542873,373.69847166408266 329.24986233388205,374.62603829320193 329.30404796789037,374.79327790416755 329.7392611822318,376.1156972548301 329.9095111062859,378.39205134657516 329.9591255241199,379.81046623392797 329.9591255241199,381.0105776823994 329.83369581587584,381.72134602914184 329.4140358853364,383.0607680735694 329.0145562013544,383.7065359581423 328.5391497338,384.1633788288459 327.78032787215096,384.80753006383094 326.3448545444519,385.9425853036308 325.86019415186166,386.4040551368919 325.8710089800625,386.63635095656866 325.8818795546862,386.89027643256793 326.2999228356378,388.06563641862436 326.34022758201326,388.7515975563706 326.35566937265276,389.01488845060777 326.2798540824012,389.86965010240544 325.99487778529993,391.40267986984105 325.823011211658,392.33024649892076 325.5953981010011,393.5457997381505 325.46221962430513,394.19000671967717 325.2531143640367,394.6653574406504 323.9988730280194,395.91814936658585 323.8115089171567,396.1643260739748 322.6702100651719,397.66636076685 320.61845877103485,400.1347616785569 320.5085266000116,400.6704858991026 320.3459139515639,401.47881068554193 320.06868642323144,402.83997387941486 320.1538671316813,403.488807823499 320.6137760618565,404.84066134571526 321.06437532057316,405.88278710833606 321.4747813259184,406.8289730807686 322.4070306640576,408.6066743990885 323.7820747457218,410.45249798559115 324.0608074306381,411.24688613781643 324.61208493502534,412.0613987898596 325.3182263190915,414.29739238884605 325.9066310171012,416.3105113328956 326.3820374846556,417.31701505835895 327.3699776132285,419.3301340024085 328.0698753852681,420.042407505616 328.2108026308913,420.18645655721286 328.2448637649233,420.2220785943703 328.3548516823694,420.3893182053755 328.75745317268144,421.0009692092956 328.7775776724993,421.08146720872554 329.1553719538152,422.5510016704962 329.00368562657235,423.97409926698776 328.70014573265985,428.23870934724454 328.6583915764403,428.7931086576846 328.58553085245825,429.7779269802839 328.49115196539543,430.4995659017292 328.1674875716651,431.52463322404344 327.7276473947265,433.2822100424662 327.1268669655093,434.84155217536306 326.98950749839065,435.20702647193383 326.72114366918396,435.92091662468954 326.34022758201326,436.6796269932158 324.75607824008057,438.64474816893994 324.2125495043037,439.31989447848537 323.3004804124052,441.0278568790346 322.7213296395897,443.4172649477765 322.60671475954655,444.8992308873359 322.45502843246214,445.71524869588364 322.15148853854964,446.62581263119836 321.54290359398243,447.7081873935341 320.7470102854506,448.8649280362377 320.60145607738866,448.9872916849308 318.8872500646149,450.4320189377845 317.6003970045682,451.51601034966853 315.6714553314176,452.7077598176115 315.167729623102,453.01960594559 314.29585378441647,453.2937116679884 312.55689630938616,453.49501241306524 311.5968294492415,453.90842873145937 310.57014547729983,454.99085924033676 309.75256676562657,455.84567663863646 308.4161550341687,456.8007820570135 306.75613465556165,457.98723560393927 304.9134328751118,459.44907704360156 302.7919426631645,460.66150847677847 300.2399776924768,462.581697943649 296.8766218757197,463.96755685339525 295.7059445988812,464.3748967992292 292.83806400307355,465.0949190710867 291.96317785137876,465.32258792816634 291.1656678931006,465.6075084787656 290.4998312552514,466.1200421399425 289.45458368649855,467.01354763491094 288.4852071547369,468.09592239724674 288.1786569476567,469.62583035858984 287.9138051503733,471.4112804455597 288.02529822440323,471.8449327568549 288.10735712699824,472.78950207973924 288.1414740076114,473.72788353701975 287.89368065055544,474.4309031150726 287.666067540057,474.79169470254425 287.3811469893785,474.94349252279113 287.0961706922773,475.05654649978806 286.6037615310767,475.13241753666045 286.6022006280701,475.13241753666045 286.10979146671104,475.2082885734933 285.6158214023454,475.26554026701285 285.25502981499255,475.3042841102232 284.7981869442494,475.3042841102232 284.39870726010895,475.2469766702016 283.8861735989321,475.09523459649637 282.3547047345823,474.3101003694257 280.12785356762765,473.4166506209593 279.2080914537,473.19985233858245 278.1844735415072,473.17504512962586 277.16715498776375,473.2479058534494 276.4826990065221,473.1518545702175 275.74717919728545,472.94431021299533 275.7424964882656,472.9427493099491 275.3492046697289,472.73994340832803 275.1525308872492,472.6392651625386 275.01160364178446,472.5649550287124 274.96973799240243,472.5432696258087 274.1940249301112,472.13604117305795 273.2726461665957,471.6513250338469 271.77055572725806,471.6141420936828 271.29514925970363,471.6141420936828 270.57512698784615,471.71632549601645 269.7079338583389,471.8386891447096 269.3192690023994,471.866562413217 268.9398580714957,471.8232473539512 268.65493752097564,471.59557849687155 268.56050288733155,471.51976320654074 268.3498924706377,471.3478408864364 267.46725755033253,469.8086232534367 267.0166025451931,469.02504992937264 266.2377119303074,468.2275957176361 265.9713549764402,467.9612387638877 265.686490172343,467.8853677270153 265.02522475050966,467.9039313238265 263.5633833108078,468.15010803121544 262.69005806227807,468.3979571346942 261.96072611864514,468.44556467730746 261.53019561348196,468.473772425025 261.38620230842673,468.4567139847184 258.2814546769264,468.074236994343 256.79948873740665,467.52457613958325 255.62106269179935,467.1822924024208 254.89947951677678,466.82150081494916 254.15771609567201,466.47927282432835 253.58787499431511,466.2702790571431 252.08121333896156,464.9741163254002 251.19077390346476,464.0202930774009 250.76960881649987,463.5680771692548 250.4010684603782,463.5138915352861 248.632676813913,463.9319905627794 247.9296572357017,463.989298002801 247.5502463049564,463.989298002801 245.40244372758747,463.4953279384749 245.21195781055306,463.46739892346545 244.37732065865242,463.34358586476964 243.71148402080325,463.3234613649122 242.3255693645154,463.5897625721586 239.0643412035899,464.52045100733073 236.3281339282112,465.39377625593966 235.87285196047466,465.45108369596124 235.24575916583584,465.39377625593966 234.35219792432576,465.10885570534043 233.7251051295285,464.8611180949053 232.8129802912072,464.3299093438735 230.01946557580695,462.5027051007237 229.5456757578404,462.1914721846632 228.52824571109295,461.5953187180035 227.24144839762747,460.7745624537754 224.9387819404212,460.06998197267626 223.30512967365857,458.9117361735077 222.62072943899815,457.6589442475722 222.44880711893344,457.3925872937842 222.23975760524624,457.3167162569118 221.99352515119688,457.3925872937842 221.91765411436407,457.8293056646303 221.97496155438563,458.70263091319964 222.31718954508568,463.4070811704346 222.48442915613052,464.12247647969497 223.17195119680417,467.07079932843055 223.52348885912122,468.12998353135794 223.83778783465334,469.0730476977376 225.0719604172756,472.2645369408528 224.9759648806249,474.0933578335509 222.58354649879445,477.0556730630818 221.75197540648432,477.76638566324306 221.27194197633278,478.17366986253546 220.08582290869631,478.8054453663526 216.41887145144545,480.7411323704835 216.17113384112915,480.76125687034096 215.8289058504291,480.07680088909933 215.77165415698875,479.96380265860444 215.71116916437268,479.9529320839016 215.56254889672033,479.9250588153941 215.50524145669874,479.93960866152634 214.50955255935705,480.1913600226405 212.01952199128806,480.89443534723495 211.77334528397836,480.9316182873991 211.60147871033644,480.7039494303194 210.8798397888911,478.8255698661705 210.61353858176352,478.42765108511594 210.49892370172037,478.3889072419056 210.28987418787474,478.42765108511594 204.21963377432823,480.1774791349284 203.3741817940683,480.36484324575144 197.5311642652686,481.6625111339594 197.03607927022915,481.77244330494307 196.48485751242313,481.7910069017543 196.34549116996502,481.704265290179 196.277703380913,481.6625111339594 196.08688298470815,481.5448301943654 195.93820697063302,481.185543763438 195.55422482387183,480.25335017176116 194.64209998555054,478.0126738636756 194.31074256963257,477.8051295064534 189.29355423987212,479.6463261303986 185.7722684838456,481.2072291663417 184.74569600506638,481.6625111339594 184.6479723256654,481.7058261932252 181.17624524105005,484.02086838163905 178.6630241135727,486.07886328796104 178.04669040055353,486.71682665738194 177.12681679362186,486.15936128739094 172.80188896029463,483.5284592203592 171.6048993178761,483.48971537714885 169.1148687498071,486.6037726803454 169.0498125410167,486.6970366367345 168.1733654864737,487.9525601429712 167.08318620890674,489.5087804698152 166.66820898754557,489.8091985576748 166.29504166898525,490.0802382205619 161.62002558318517,488.0314972393945 159.8903220333491,489.30285276214124 160.00337601022716,489.9052498409463 161.37228797286886,495.1454243186873 161.35216347289256,495.31572998920376 161.16323845918166,495.4101646228874 159.93530948858594,495.0726750879073 158.54777818271023,494.69014235103 154.6517084585355,493.2097373145168 154.23210427457724,493.1137417777869 153.9425010148789,493.2097373145168 152.4605350753591,494.75363765665526 151.5856489236643,495.74007262880275 151.5515877896323,495.7802658819761 150.5187716986681,496.94787709942216 147.9869312277983,499.80644802353356 147.69738371468117,500 147.3101682687443,499.8714484857031 146.82706877900225,499.5819009725068 138.02692044868482,492.0374991345529 137.2757916092234,491.38716003392443 137.40746492965238,491.068178349214 137.47558719771638,490.9737437155699 137.68931942074036,490.6732698811291 138.02692044868482,490.2227263691125 138.12442114191936,489.3988482988315 137.92468129984917,488.97149534622326 137.89836893442757,488.91569306270634 137.51120923491342,488.53015001281966 136.9970589243071,488.2730469841863 136.38546366688905,488.07955075426145 135.70875645425778,488.11205098532645 134.9360537048174,488.24060249966294 134.13079497792887,488.53015001281966 133.6801957195291,488.56265024388466 133.39059245983074,488.4651495506897 132.19984642943874,487.46784400379977 132.2602199290508,486.59607965823704 132.44139617430974,484.43121864048226 132.6709046671437,481.6625111339594 132.71238009061565,481.160792301023 133.84894048684092,474.00817712502186 134.03636034428482,472.91186572843236 134.076609344079,472.6718211401452 134.17728758990805,471.7380666454222 134.101360806494,471.2347869094395 134.0007383072462,470.4527744884217 134.05336303808943,470.11985616945753 134.09522868731304,469.85968708131287 134.1524803807534,469.4942685312837 134.1648561119609,469.37196062913216 134.17879274633344,469.22016280888533 134.30266155157082,467.93336549538026 134.37083956621603,465.7499966273558 134.37083956621603,464.5390146041419 134.34603235721983,463.63162822142175 134.1184192467214,463.17785141026906 133.84119171823053,462.90067962831984 132.91211993268584,462.5197635410303 132.53120384535669,462.48536792770904 131.78018649889927,462.41752439219465 131.6067032758279,462.0102959394043 131.3775292621644,461.2964057866089 131.29234855371456,461.0347315419596 131.01517677164648,460.70794534209716 130.66213395290401,460.63207430522476 130.25797155974374,460.63207430522476 129.67882078676982,460.7327525510538 128.7450662920468,460.7823112224254 128.01417344556566,460.7823112224254 127.75249920087678,460.7327525510538 126.95498924259863,460.5810104773485 125.46533028089125,460.15822874075616 122.59438362565157,459.6235637044219 121.76587859277348,459.46920154345906 121.10929588011854,459.3933305066262 120.81818746383632,459.3855817379762 120.22671670623612,459.36846755112805 118.88879981835281,459.36846755112805 118.15785122529047,459.3933305066262 117.4765170500621,459.2662841487944 110.68006649889593,457.7209343966929 106.65706191005178,456.7701214616633 106.41551216518077,456.7128140216417 105.12865910513408,456.05779221191415 104.14378503599323,455.300531253351 103.58481450957683,454.560384481636 102.88017828193611,453.87592850039437 102.70992835788202,453.70874463593077 102.4543862323741,453.460895532452 100.27564432682797,451.810240571964 92.67705685478654,446.004851955582 91.6163674953941,445.11134646061356 90.43169783776028,444.11409666026526 90.35582680092746,443.812173415901 90.36976343514159,443.61549963334204 90.69186692586531,443.31352064243623 91.59306544298174,442.72812625743575 92.29920682704788,442.0715992912036 93.33363956775837,441.7944275092544 93.83686355715982,441.5172557273051 94.26588890589753,440.8621781710756 94.51669257580433,440.42395464372487 93.4823155818335,438.60756522873623 93.38163733600449,438.45738405807725 92.60118581811217,438.3814572747028 88.91422135420586,438.82129745160177 85.41913647059695,439.2393964790554 76.18539157536748,440.2985806820224 76.13889896354677,440.2985806820224 75.65579947396319,440.2985806820224 74.05459169180314,439.0349739278861 70.00204143820324,435.20702647193383 69.89222076034241,435.1032821665539 69.63980044084776,435.1032821665539 69.52133904971082,435.20702647193383 67.79704291381671,436.7168099334195 67.59886397475314,436.781866142091 67.34332184924523,436.86704685062006 66.88960078451531,436.8933592160813 66.20207874384164,436.46751141997765 64.92057735131415,435.20702647193383 63.66566705695595,433.97290963585317 63.376063797257586,433.82111181560634 63.0478281873529,433.9976610983078 61.398622636788296,435.20702647193383 58.39605840770085,437.40901468331106 54.25843893865511,440.44106883057304 53.5786099200106,440.94891978261126 51.760603855394535,442.30545601392663 51.47111208885862,442.5841886989221 51.36112417125415,442.6879330042624 50.829971166843215,443.1989615088951 50.47380654192906,443.54113375301387 50.38249371429826,443.61856569289296 49.842031038111884,444.0707258544578 48.878842371953986,444.1791528689368 48.29355947995752,444.24415333106674 47.43255421605406,444.58638132168755 46.602599773173324,445.0323536176883 45.61772570419092,445.3327717055479 43.497740648669,446.06522545515446 42.514483228957566,446.2417189913143 41.605480196807974,446.3223284837878 41.3824940487482,446.34239723710374 41.10063955766022,446.3672044460603 40.149882369291035,446.4492633485365 39.94083285544539,446.4678269453477 38.52704493072927,446.79617404825643 38.31024664827325,446.8905529353985 37.59329043600625,447.19871979194767 36.65953594128323,447.6029379316892 35.24418711356048,448.2749066886797 35.12182346474851,448.3337750317475 34.643406684184825,448.6621221346562 34.536540572910496,448.6992493282787 34.13856604519552,448.83861567077645 33.180004341476284,448.7116250594862 32.96476696218534,448.60481469459506 32.523421628821346,448.38489460616535 31.993885273839833,448.1572814955877 31.43173719482895,447.8646121763781 30.669849273589435,447.4665819022007 30.036512866924074,447.13522448628277 29.683470048023175,446.951260914181 27.921266267003272,446.0327252240895 21.502665743734205,442.5671302585759 20.240619892525274,441.6720638605612 17.66078165340935,439.8448596174114 16.683656352878884,439.26414794151003 15.928012043982774,438.78723631749057 15.475851882417926,438.3535840061954 14.52816075348078,437.57469339127005 10.919966146254122,435.20702647193383 10.43853905283961,434.89116659327624 5.065186098165007,431.2614538228499 4.736950488260317,430.9347233695291 4.736950488260317,430.6063762666204 4.775638585047871,430.5491245731008 4.989259314750972,430.2285819853837 5.6195296619842905,429.5983673846128 5.771327482231141,429.2700202817041 6.124370301132038,428.8411064260496 6.881631259615999,428.21083607877665 7.199052041319827,427.8747959537596 7.268735212548895,427.73542961126185 7.268735212548895,427.56361878424076 7.211427772527321,427.4056330983901 7.081315355104974,427.2910182183074 6.901700013011093,427.23839348738494 6.680274767957953,427.21358627842835 6.4681034482574855,427.2492083155462 4.913444024340936,428.2867628621511 4.002880089184713,428.6536865686849 2.4652233590727723,428.274331384402 2.2453032706034852,428.2278945190833 0.8454519801014911,427.5047504411333 0.42891385557527195,427.3777598298827 0.15174207366563044,427.18571300992085 0,426.97359743664316 0.05574653701494283,426.6793672143873 1.2558579854467422,424.3101393920048 1.2790485448550986,424.26526342969277 1.8210721242065488,422.04315071845804 2.0022483693070616,421.2935827820032 2.059500062747416,421.0582766493172Z"/></svg>