<svg xmlns="http://www.w3.org/2000/svg" width="500" height="500" viewBox="0 0 500 500"><path d="M41.021256087777374,229.06660917209575 40.98041801964098,229.0271408279545 39.79667207796826,227.89133522730052 38.53125000002276,226.72453327923859 35.2506594968745,224.3331980519633 34.00781250012734,223.38052962664744 33.91218547074428,223.30869521106706 32.80007102288166,222.47164163962503 32.55073051951465,222.2052556818522 32.377333603929685,221.97838879874433 32.21251014616142,221.6599533279674 32.06168831163062,221.26258116887186 31.95601663964069,220.99340503251304 31.885551947983316,220.81300730523725 31.692522321501233,220.3226461039178 31.616375811768663,220.14650974027052 31.57548701307255,220.0873072240406 31.540330763011355,220.03515625002515 31.423346185142393,219.95200892860177 31.25284090915475,219.88722605523586 30.7637987014149,219.69977678574557 28.592278814996952,219.15868506496557 27.9074675325685,218.82893668834564 27.129565746868785,218.06371753248402 26.313666801926093,217.04910714287593 26.0374391233888,216.70667613638182 24.649401379914682,214.8845880682209 24.063159496737974,213.93902191560716 23.083857548690002,212.31564529221978 22.739955357117392,211.83091517859606 21.8832183441825,210.6260653409477 20.9658076299752,209.54941152599997 20.075233360522645,208.675781250014 18.26582792219981,207.3102678571785 17.52313311697683,206.8832690747062 16.087256493603405,206.0546875000335 14.910562094253322,205.49096996756754 13.595779220770268,204.96256087666168 13.081422483769737,204.8456270292443 12.054129464431657,204.63423295456053 10.436434659191555,203.98599837664 10.14894480533495,203.88032670457798 9.603591720854357,203.69850852274735 8.88205154216674,203.38570413963006 8.43678977286451,203.1532061688625 7.478490259816914,202.45282061692654 7.39823457791875,202.39503855521542 6.57386363642299,201.79190340913183 6.118658685200799,201.54951298704012 5.825588474100077,201.40442370132445 5.650821834411852,201.31843547079137 5.543729707903128,201.26628449677594 5.092786120093149,201.0619419643067 4.734831574723353,200.90127840911956 4.407924107104972,200.73503449679646 4.251521915618422,200.6363636363892 4.010551948117587,200.5645292208088 3.71179991894167,200.5278510552175 3.2538047889532358,200.5053267045789 3.0424614448292018,200.520799513003 2.9691558441342285,200.5123782467934 2.801440746768642,200.44754464286774 2.401227678599473,200.127688717572 2.2688210228300685,200.01349431821697 2.1898843344754395,199.94587053574136 1.862976867001244,199.66827313313686 0.8723112825145122,198.84111201301906 0.6214488636534395,198.5817775974247 0.39742288969129536,198.35070008121198 0.0436789773181716,197.84760551949472 0,197.60521509743904 0.026785714339204278,197.32477678572485 0.05494115263748316,197.04017857146556 0.24802150982347507,196.7808441558712 0.31143465915821156,196.71885146105527 0.469257305163561,196.56808035715628 0.7003855520080687,196.3553165584774 0.8511566558349637,196.21859780848374 1.3486201298565277,195.90148133117822 2.309659090966458,195.51542207796174 2.826856737004587,195.30686891235163 4.172585227263792,195.26461038962435 5.374594155874559,195.34628652600526 6.693587662354284,195.435115665612 10.829545454622545,195.43790584419799 12.072493912344964,195.23640422080237 13.687398539107193,195.02643060067348 15.536221590903434,194.6346895292376 15.777191558404269,194.55012175325936 16.26902394476618,194.37819602275292 18.740665584463304,193.51298701301263 19.996296672168015,193.00984172080774 20.049817370142517,192.98873782468792 21.137733360481644,192.55326704548227 22.851308847470882,191.98259943184914 24.62687702927606,191.833248782505 26.38134131496141,191.75005073055794 28.600750811694205,191.75147118507672 29.709821428568695,191.819145698076 30.24665178579231,191.9882305195088 31.826400162493346,193.1987114448168 32.198407061660326,193.6947037337959 32.52952516241956,194.13722605521605 32.7057122564824,194.37114448053842 32.77475649362098,194.46413352276232 33.49340503256709,194.68262987014822 34.36566558452188,194.68262987014822 35.20698051955633,194.5374391233852 35.912997159224055,194.41482345782055 36.954393263063224,194.11328125002257 37.915432224028976,193.7215401785867 38.60171469168013,193.4424715909397 39.77977881498929,192.67167207794213 40.75497159101585,191.83182832795015 40.92405641234051,191.0595576299101 40.89163961048584,189.11206371756242 40.893161525979906,187.57284902599991 40.89448051952344,186.32051542211798 40.89448051952344,185.42846996755085 40.99731128247576,183.24563717536202 41.06493506495136,182.60876623380813 41.170606737085464,182.17755681819494 41.452059659092996,181.03327922080769 41.535612824633716,180.6936383928996 41.64270495143081,179.3740868506594 41.67517248384521,178.97443181821467 41.64270495143081,178.9682426948306 40.529474431831005,178.75456574676156 40.124999999961254,178.53053977276338 40.06021712666744,177.60049715909744 40.02501014619071,177.08756087665176 39.92491883115653,175.97854099030096 39.878398944800765,175.6234273539327 39.82492897738599,175.20627029222484 39.65721387987622,174.90330762990808 39.354200486999716,174.63418222403686 38.91735998383501,174.33400974027006 38.48051948052613,174.1325081169105 38.38042816563614,174.03104707795327 38.35795454555724,173.44764610392232 38.3452211851594,173.140422077941 38.322646103961056,172.53307629871657 37.912591314991374,171.93557224029263 37.59552556817351,171.47199675327636 37.53439529229614,171.3836241883467 37.39965503250964,171.18871753248854 37.10374391237132,170.75608766235655 35.99472402591237,169.64706777600574 34.91949066555554,168.30275974030138 34.884334415638534,168.18435470780548 34.58416193194382,167.19368912339084 34.60389610396038,166.53277191559613 34.617948457757564,166.01846590911927 34.770140016247446,165.56463068185616 34.95479910715172,165.01085633120198 35.239448051970726,164.84319196432403 35.38595779224123,164.75720373379096 35.89747362020416,164.34151785716162 36.50202922073445,164.20764001624158 37.74634740270431,164.4767654221128 38.51856737018465,164.54301948055723 39.02303165596913,164.4091416396372 39.42750608769469,164.00755884743688 39.552911931845365,163.9243607954898 39.70652394485404,163.89899553574148 39.88687094149802,163.9243607954898 40.22367086047663,163.9976663961127 41.61170860395075,164.31052150975364 41.64270495143081,164.32208806821504 42.08943790595575,164.48807832795578 43.9636262175724,165.18557224029445 46.41705560074702,166.0254667208101 46.719967532504064,165.99310064937097 47.022980925380566,165.72392451301212 47.25826907480621,165.2546672078125 48.50826907470708,164.2132711039373 49.25933441565205,163.39595170458395 50.065391639650045,163.23812905847046 50.74178165594096,163.08872767860262 51.901532061752356,162.8308644480868 52.48635349026608,162.3235592532647 53.130377435117865,161.45129870130992 53.98995535709036,160.9298904220949 54.37469561694355,160.79180194807006 55.492136769540025,160.39153814937723 55.5259740259135,160.37890625002674 57.22549715910555,159.66441761366175 58.300629058487125,159.17400568185468 59.467431006621155,158.86820211042823 59.85496144495221,158.63575487014833 59.88879870132568,158.61596996757203 60.30032467537389,158.3693689123755 60.84983766243562,158.04104099027435 63.12286931826236,156.99964488639915 63.73726663959316,156.7544642857214 64.5334314123751,156.72346793834947 65.66502637988822,156.90949675328494 65.68897118518981,156.90949675328494 66.38367491897851,156.93202110392355 66.65285105533735,156.94044237016922 67.0826400163236,156.87850040587696 67.64772727282075,156.53464894482804 68.04799107154965,156.22884537340155 68.2311789773754,156.13722605520883 68.4467329546403,156.13722605520883 68.90756899366632,156.2908380682175 70.31818181833879,156.96585836040518 71.14813311693447,157.2730316558628 72.03733766228378,157.67329545455564 72.92233157463639,157.91279423705004 73.17314326308193,157.9804180194896 74.43156452926452,158.13403003249826 75.740665584384,158.37505073055883 75.93516639608879,158.4116274351028 76.33395900973916,158.44267451299837 76.5622463474019,158.46946022730154 76.64113230519679,158.0128855519761 76.79616477286845,156.75588474027626 77.13433441566197,154.9154829545815 77.31899350656624,154.05727475653202 77.47255478901519,153.87271712663906 78.17994115264199,153.87271712663906 78.30260754873034,153.934709821455 78.39417613650754,154.33350243510537 78.3011363636518,154.97752637988506 77.78962053568888,156.47828733767176 77.23579545465522,157.95089285716014 77.17380275969509,158.53287337663627 77.17380275969509,159.02323457795572 77.35699066566504,159.29941152600537 77.75583400987513,159.5460633117256 78.43222402602187,159.6996753246982 79.10724431820952,159.76166801951416 79.53703327919577,159.63905235391346 79.90625000002906,159.302252435079 80.27404626634356,158.84146712664875 80.64326298703267,158.07487824679203 81.13499391241932,157.15467735392662 81.68881899345297,156.48112824678142 82.5174512987935,155.6228693182083 83.0783279221498,154.74076704548904 82.9542918019582,153.99807224026605 83.01065340925867,152.98493303573647 83.06138392861111,152.06757305198076 83.07264610393042,151.8491274350825 83.25725446441916,151.63494318184877 83.59547483777239,151.51232751624806 83.91817167210573,151.48051948053333 84.8228997566191,151.3911323052022 86.35886769488252,151.33056006494112 87.30585430205107,151.43202110393437 87.55103490269276,151.49401379871426 87.64260349032578,151.6786221591309 87.67359983766165,152.50578327924873 87.61160714284573,153.4259841721141 87.4875710227983,154.53074269483645 87.21281452919536,155.32837865262482 86.50542816556856,156.21758319808225 85.73741883122908,156.73899147729728 84.78622159106385,156.95175527601222 83.92664366894716,156.98275162338413 83.91817167210573,156.98275162338413 83.43481128258526,156.98275162338413 82.94302962663889,157.10394683443 82.14539366877842,157.90158279221836 81.52962662348855,158.7907873376758 81.06884131502224,159.58832183445287 81.06884131502224,160.04773741885197 81.2224025974712,160.4775263799103 81.69302962659383,160.94957386365988 82.4342532467383,161.33994521106456 83.47712053580017,162.07695819806818 83.91817167210573,162.42207792210093 84.18303571434845,162.62936282469119 84.52125608770167,163.2747564935381 84.70449472408716,163.82574066560625 84.70449472408716,164.34851866885245 84.67344764619156,164.86997767859114 84.7961140422799,165.11515827923284 85.01029829558571,165.26871956171783 85.41046063319516,165.3293425325026 86.60688920456181,165.33076298702142 87.46646712667848,165.33076298702142 89.03069196435963,165.45474837665327 90.07482751626114,165.57878449677278 90.41304788961436,165.54773741884114 90.62855113646371,165.30509334416706 90.65827922081579,165.27156047079148 90.78231534086319,164.87276785717717 90.78231534086319,164.19774756495346 90.69069602281463,162.20520495132854 90.81468141230233,161.19201501623922 91.06128246760701,160.7635957792481 91.55169439945011,160.24360795455186 92.16609172078091,159.72219967533684 93.1497057630892,159.04859983766798 93.8867187500928,158.74137581172272 94.53774350641913,158.1467633928961 94.5926846592008,158.09745332795433 95.3311181007232,157.6380377435192 96.14138595786204,157.08000202923654 97.18699269484208,156.0682325487381 97.95500202918156,155.5158279221151 98.81463068185795,155.08740868508795 100.13362418833768,154.53642451301977 100.96220576311848,154.22920048703847 102.00639204543553,153.73883928571905 103.02100243507968,153.21885146105885 104.06518871754092,152.75943587665975 104.83182832792131,152.42268668834902 105.04743303574594,152.3606432630094 105.13905235393867,152.33106737015626 105.14747362022038,152.33243709418744 105.29261363638763,152.3606432630094 105.784395292334,152.4846286526052 106.52140827919341,152.4536323052333 107.50365259754261,152.14782873377078 109.47646103897073,151.32913961042232 109.72727272727208,151.2290990259839 111.7170758929428,150.44135551951973 113.19105113639027,149.73670860391923 113.86607142857794,149.30691964289693 114.23528814941123,149.09278612015083 115.18643465916092,148.7559354707927 117.09172077937708,148.2669439935405 117.49051339288326,148.14437905846347 117.61307832799633,147.93019480522975 117.58350243517926,147.25517451300604 117.46088676950646,146.6731939935299 117.21007508120512,145.9192877435113 117.03393871755782,145.39224837663662 116.90853287340714,145.0160308441846 116.90285105518775,145.0047179383416 116.57168222415717,144.27196631496648 116.17573051954439,143.39823457793318 116.09253246763336,143.2165178571499 116.01932832805784,143.0530133928891 115.86713676956796,142.010196834423 115.89813311690384,141.9256290584808 116.07563920465441,141.43810876627109 116.19967532470181,140.70251623378627 116.23067167218187,140.27272727276397 115.98549107154018,139.65827922080138 115.61632508126661,139.04530235391726 115.3662743507844,138.7578125000246 114.78911323058908,138.0940543831202 114.51288555205178,137.66426542209794 114.3592735390431,137.29509943182435 114.23670860393003,136.68207183445264 114.11409293840141,135.85491071429877 113.96190137991154,135.0263291396261 113.74771712660572,134.53591720781904 113.47148944806843,134.045505276012 112.97970779226624,133.6763392857384 112.39625608771159,133.33811891234913 112.30468750007857,133.12388392859174 112.30468750007857,132.69409496756944 112.21306818188583,132.54053368508445 111.9058948864282,132.32634943185073 111.32391436695208,131.8965097402687 110.58690137994849,131.40472808443047 109.97250405847349,130.85232345780747 108.56194196436076,129.6545251623736 108.0236404222028,129.14437905847788 107.45713271104266,129.28672889613122 106.53556209425423,129.83771306819938 105.3391335227434,130.5423092532762 103.52693790594269,131.67664366885165 102.57426948055475,132.38129058445216 102.20510349028118,132.44186282471324 101.65269886362213,132.13463879873194 101.13134131500287,131.5822849026326 100.57888595792828,130.93831168834055 100.4563210228152,130.75370332795995 100.54936079552674,130.57046469157447 100.82548701308878,130.42674512988998 102.05433238645428,129.75314529222112 103.03789569805865,129.14016842533704 103.55935470794155,128.5567167207824 104.54012784092386,127.4237520292381 104.64864042209557,127.28429383118211 105.3095068993666,126.43029626623745 106.03804788967294,125.44526176951851 106.13950892866619,125.30864448053616 106.66233766236398,124.41943993507873 107.15411931831035,123.28500405845593 107.32467532471352,122.84816355521913 107.79951298697702,121.62926136366545 108.05463676953867,120.86546266235868 108.13773336047444,120.61739042208362 108.16872970781031,119.89737215910634 108.07995129879936,119.621144480533 107.94049310070731,119.39006696432031 107.77135754867875,119.13073254872594 107.3711952110693,118.79256290586034 106.75816761369758,118.54591112014013 104.94739245141567,117.9935572240408 104.5175527597255,117.77795251625224 104.5175527597255,117.37910917211424 104.70216112021424,116.8887479707948 104.82477678574287,116.58157467533717 105.03475040590783,116.04043222403348 105.05448457792438,115.75715300328169 105.00091314939016,115.63879870130947 104.81209415590476,115.49507913962498 104.21174918837114,115.29494724029658 103.26055194806172,115.01877029221087 101.17354910724252,114.3113331980604 98.82589285717727,113.55179586041817 96.03150365273126,112.63017451299793 94.92669439941317,112.2610085227604 93.3920454545491,111.9537844967791 93.02429991879434,111.7691761363985 92.95241477276235,111.65082183442628 92.83969155859397,111.46195211041719 92.81711647739561,111.26471185068611 92.7790685877371,110.94059456168979 92.78612012991556,110.87012987014054 92.87068790592984,110.02039366886044 92.91857751624468,109.50324675327388 92.96372767864138,109.00857345780229 93.33289366891495,108.27298092535354 93.64011769478812,107.81219561688722 94.37713068193591,107.01603084417738 94.43207183442921,106.97088068185278 94.81534090905969,106.65949675325429 95.05352069808265,106.46499594158554 95.75948660719064,105.79144683444035 96.4048802760015,105.27008928574901 97.20388595782104,104.81067370131386 98.3270089286369,104.58801745131079 99.95322646113398,104.55844155845767 101.18060064942097,104.6824269480535 102.31640625007495,104.71337256493779 102.8688108765898,104.62180397730478 104.06665990261943,103.91725852275162 104.74304991891036,103.33522727275181 105.38844358772123,102.53764204548712 105.86333198054444,101.90630073054554 106.1254058441651,101.55686891236063 106.95545860402443,100.20824878246805 107.6938413149871,98.92030235391998 108.03069196423706,98.09167004872363 108.09968547081593,97.82959618506693 108.2843445617202,97.1348417207906 108.4336952110283,96.56838474026227 108.45408887988872,96.48239650976524 108.71129261366885,95.40300324675519 108.86485389611781,94.91117086039328 109.0185166396862,94.69693587663588 109.47930194815251,94.23752029223678 110.09369926962749,93.59496753249957 110.49391233779667,92.9509943182075 111.19992897732021,92.0307934253421 111.78475040583393,90.98802759743572 111.93831168828288,90.466568587697 112.18354301962849,89.60841112013517 112.2469054384035,88.62763798704472 112.12434050329041,87.6453936688397 111.72412743512125,85.74863027598866 111.266132305277,83.2022625811859 111.2675527597958,81.58309659093938 111.2675527597958,80.01329139612226 111.72975852278091,78.86901379873498 112.23706371760298,78.41385957792833 112.25537743510075,78.39696631494937 112.4540888799464,78.22504058444292 112.47803368510382,78.20530641235426 113.22630884742674,77.5613331980622 114.72985998383547,76.69749391235308 117.69627637990736,75.07553774352053 119.66203327930121,74.74436891234575 120.2750101462574,74.64711850649336 121.2868303572795,74.58654626623226 121.65178571426802,74.48366477275626 122.48457792218967,74.2496956169102 123.86703530856387,73.75933441559077 124.23483157473417,73.54515016235705 124.55610795454871,73.39858969156288 125.4706777598626,73.26471185067889 126.1935876623651,73.15848214285643 126.6698965098513,73.08857548703159 127.76055194810858,72.889864042222 128.4722504058515,72.73488230521819 129.22899756501585,72.35719358768765 130.07452313319115,71.84709821431561 130.7184963474832,71.44688514611039 131.23001217544615,70.84659090910046 131.63727678579377,70.05600649352658 132.1037439123353,68.97377232144288 132.2741984577632,68.68912337662388 132.4376521915724,68.51440746753143 132.8068689124057,68.2889103084547 133.61855722406332,67.923954951322 134.13149350654507,67.52516233767163 134.6881594967605,66.9698660714513 135.04327313323688,66.43587662340947 135.5336343345203,65.76927759743143 135.77176339283932,65.46773538963346 136.063463879981,65.293019480541 136.44115259736733,65.15914163962098 137.40219155847726,65.32959618508495 138.75218141243707,65.93978287338302 139.88661728898776,66.76841517857937 141.23944805198516,68.86246956172121 141.80590503258557,69.34298904224013 142.89661120140258,69.69242086038899 143.5518973214295,69.77982954547693 144.96251014610195,69.68678977272934 146.4759030033112,69.38945819807222 146.82538555198374,69.21474228897976 147.27353896117168,68.59050324677636 147.6117593345249,67.99436891234755 148.31072443186997,67.2968750000089 149.0829443994945,67.1164772727331 150.6950588474905,67.57021103898492 152.33532873378476,68.14940137987503 153.15406858776504,68.73985389612051 155.37915990271722,70.31107954545642 156.9785917208751,71.55823863639179 157.97630884754028,72.28535917210725 158.9796063313054,72.4614955357185 159.72225040582447,72.54885349028275 160.37753652613975,72.41781655847242 160.81290584422592,72.069703733795 160.9439935064518,71.41588879870243 160.91091720775327,70.84400365260916 160.88058035726124,70.32234172081178 160.73823051957189,69.15127840912135 160.72696834410837,69.06113027600713 160.7918019481061,68.73564326301569 160.85805600647845,68.40589488639576 161.17933238643715,66.92902800327887 161.20890827925425,66.79378043832769 161.90787337659933,65.57203733766431 162.51948051959644,64.6574675324946 163.26207386369998,64.26567573053507 164.48386769488704,64.13463879872472 164.9643871753699,64.09238027599744 165.70698051961762,63.78657670457098 165.96915584421353,63.26379870132479 166.10019277602387,62.13078327922078 166.19602272735747,60.09593141234491 166.45809659097813,59.485744724046825 166.89498782470255,58.658532873405335 168.46900365262448,57.606584821434154 168.58172686693703,57.53125000000834 170.73635349037602,56.000862418844854 171.46494521109793,55.430144074688044 171.95956777608188,55.04119318183818 172.96920657476605,54.20698051950587 173.22498985402737,53.99558644482211 174.59334415590047,52.897828733790604 175.72914975655445,51.808543019492404 176.77612621763774,50.80661525975845 177.43141233766465,50.15269886365457 178.08669845783575,49.149401379889454 178.8292918019393,47.88539975649879 179.2661830358079,47.27663352275556 179.8777394481011,45.750456574696884 180.7514711851344,44.48645495130623 181.71251014624434,43.70150162339201 182.67354910721008,43.39711850652039 183.8952922078374,43.39853896103919 186.64326298704708,43.35622970778823 188.03977272736265,43.66203327925074 189.1318486202829,43.92557832794993 190.4846793831361,44.01298701300181 191.30899959421632,44.07919034092256 192.71119115260709,43.4915280032631 194.5882203734055,42.576958198057355 196.44409496766858,41.94850852274914 197.75324675334778,41.73143262988204 198.38595779232054,41.62439123378886 198.84816355516145,41.54545454547028 199.59075689940917,41.24107142859866 199.84161931827026,40.98036728897312 200.77029220779687,40.020748782490124 200.81255073059623,39.871347402622305 200.82523336043434,39.830458603926196 201.11972402605386,38.80037540585792 201.6735491072317,38.029575892860336 201.93004261360826,37.522219967550626 202.37672483771766,36.63727678572168 202.64869115269855,36.09760551949652 203.4350649350955,34.81802962663438 203.96063311699982,33.96124188313976 204.9217228085253,32.385805600662984 205.3050426137155,31.758725649349888 205.80950689949998,31.29367897729114 206.405590503333,31.128754058439473 208.26004464293308,30.975192775990518 208.53206168832952,30.907568993514925 208.85191761362526,30.827211850677543 209.37053571432637,30.69759537338601 209.7214387176619,30.52140827925108 209.90599634744672,30.429839691582018 210.7444703734436,30.01136363636667 210.9459719967671,29.909902597409463 211.05585430204206,29.859121347425205 213.0413961040122,28.95160308443396 214.04474431819287,28.603540990280216 214.31386972413617,28.55565137989328 214.54083806825534,28.54859983767878 214.6126724838718,28.547179383123932 214.83532873387486,28.551390016228744 215.04814326307743,28.60212053572537 215.3370028410373,28.740259740273878 215.87672483771405,29.21514813313314 217.14214691565954,30.088778409119097 219.14316152594566,31.054078733785424 220.3113839285985,31.557224025990323 221.6021712663644,31.50791396104854 222.93100649364465,31.2091112013129 223.80331777601498,30.861049107159158 224.54596185067822,30.42562905844116 225.90721387995734,29.429281655843187 227.20510349031724,28.476714691574696 227.9069094968441,27.724228896110926 228.11257102289295,27.102780032493534 228.17040381498356,26.023336038959798 228.34654017863085,24.454951298697523 228.65234374998522,23.713676948065434 229.04976663967653,23.20358157469339 229.18922483776856,23.023183847417602 229.717684659126,22.62018060066242 230.66040990259398,22.101562499997353 231.0098924514107,21.84090909093154 232.45145089285933,20.052607548728528 233.09968547085197,19.353693181835027 233.6516842533216,18.728135146124135 234.6357041396751,17.611911525987786 235.8250811688633,16.056209415599668 236.43668831171624,15.31498579545521 237.31600040599366,14.166497564963128 237.53581574681496,13.880428165589276 237.54423701309668,13.869165990269964 237.44982751628186,12.348670860394625 237.59917816573414,12.121753246763067 237.72209821433273,11.931513798722811 237.8697747564676,11.706067370133729 238.01212459415697,11.54403409091543 238.7970271916196,10.651988636384353 239.58335024360102,9.954443993522021 240.98407061691324,8.858056006521686 242.20723417205937,7.375659496756448 243.212002840903,6.242694805212167 244.43516639619332,5.588778409108282 245.70058847399466,5.153409090913966 247.0534192371362,4.719358766227138 247.3197544643133,4.630529626620411 247.83832183445466,4.4572341720828 249.2799310066072,3.935825892867768 250.326958198106,3.6300730519649824 251.2006392045796,3.6751217532422285 251.76714691559556,3.8935673701404876 252.5520495130582,4.678469967531025 253.01988636370297,5.617390422083616 253.54829545464486,6.678064123370437 254.38397930201967,8.080204951309604 254.64610389620003,8.429687500018192 255.62687702932652,8.225344967548935 255.69308035728332,8.21129261364361 256.6104910714906,8.081625405864449 257.1332690747729,8.69181209416253 258.2662337662451,10.612520292207039 258.83416193192403,10.437804383114583 260.7098214286192,9.916396103899551 261.82305194821896,9.526024756494849 262.71362621767156,9.22874391236141 263.18009334421305,9.619013798718756 263.9495231332155,9.468242694819768 265.4460227273016,9.266741071424155 266.44937094162646,9.223062094178076 267.452769886511,9.04976663960442 269.15640219172445,8.832690746773373 270.99426745141557,8.516335227286998 271.33360389607344,8.45789366884015 272.778003246848,8.312753652600819 273.78135146117285,8.138037743508363 274.91715706182686,7.964691558447074 277.14229910719456,7.747666396103661 277.53540990262553,7.747666396103661 278.6712155032795,7.6179991883244975 279.67451298704464,7.2699370941707535 281.55154220784306,6.878246753258562 284.4812804383597,5.669135551945664 285.42116477279006,5.087104301945861 286.94871144491594,4.608005275981787 288.3861099839276,3.93861607145378 289.8305093344138,2.953632305222474 293.1054687500466,0.949776785718526 293.891791802028,0.5566152597638581 294.6217532468532,0.3395900974204442 294.7852069806624,0.2902800324786631 295.2953023539623,0.12246347402967447 295.66735998383325,0 296.68476055195526,0.035206980512779644 297.9304991884439,0.07467532469009426 298.12494926958897,0.08030641234975003 298.8661728895893,0.16766436687795463 299.08456777603595,0.5171469155865435 299.17055600656903,1.9996448863630911 299.30022321442027,4.181057224033139 299.4312601460864,5.40137987014167 299.51719764620395,5.750862418850259 299.691964285748,5.9255783279427146 300.25989245142694,5.9255783279427146 301.21951095787387,5.838271103902142 301.7789671267114,5.839640827933309 301.96215503253717,5.839640827933309 302.2679586040357,5.970677759743639 302.3116375812097,6.317370129866215 301.873376623382,7.320667613631334 300.17248376623087,11.745535714311044 300.10262784100183,11.931513798722811 299.51719764620395,13.490107548708252 299.2988027597573,14.143922483764781 299.12403612021325,14.710430194816784 298.64493709424914,15.276887175345108 297.73178774359826,15.736302759744202 297.3627232143,15.935014204553804 296.15635146115756,16.5846692370292 296.0182629871688,16.897473620146485 295.67436079545195,17.673954951327403 295.2953023539623,18.706574675327253 295.281250000021,18.744926948055745 294.88666801965564,19.759537337663854 295.2797788150866,20.462713068185842 295.2953023539623,20.47270698052134 296.1535105519757,21.03064123379269 297.5049208604543,22.07903814935873 298.07705965912993,22.800527597414533 298.55615868509403,23.978591720795784 298.99162946429965,24.763545048709997 299.21007508130606,25.72321428571667 298.7731331170219,26.07264610390158 297.7247362012756,26.68141233768086 297.6613737825006,26.727932224036632 296.719967532432,27.422686688312954 296.5016233766892,27.85805600650727 296.54530235386324,28.38230519483199 296.68476055195526,28.603540990280216 296.75096387991204,28.707842938311064 297.5753855521117,30.01552353898385 298.63788555192656,31.60937500000575 298.9564224838229,32.37449269481999 299.2918019481385,33.17918019482287 299.79626623377885,33.58502435065169 300.6332690746972,33.73158482144587 300.6530032468579,33.735795454550676 301.82685673717043,33.89924918832382 302.1496043020635,34.02323457791965 304.834060470819,35.0576298701401 307.4072138799249,36.237063717552516 308.5148640422806,36.65564123377917 308.82061688321943,36.82893668831678 309.3871245942354,37.3094561688357 310.08466923706163,38.05215097402264 310.91467126621706,38.70454545456037 311.5685876624291,39.27242288960749 312.6155641235124,39.840351055214335 313.7062702923294,40.27719155845113 314.97174310069045,40.84364853897946 315.9750913150153,41.10719358767864 317.4166497566081,41.23828125001265 319.68547077929395,41.37073863637782 321.34400365267044,41.41583806817874 322.74051339298603,41.24249188311746 323.874898538977,41.15513392858925 324.7034801137578,41.2001826298665 325.66314935076446,42.1599025974329 326.14366883124734,42.85034496755705 326.85110592543384,43.10962865262774 327.2344257306241,43.2506087662499 327.83751014622,43.47747564935777 328.2814021915632,43.64371956171693 329.63423295456056,43.950943587662195 330.9870129871424,44.08198051950857 332.2539062500222,44.08340097402737 335.6782163149631,44.1567065746863 336.3560267857728,44.17075892859162 337.5707690747814,44.217735389624444 338.8376116072457,44.26658887988917 340.9753449677058,44.31168831169009 342.5465706170056,44.40046672080919 343.2455357143507,44.618912337671404 343.8585125811627,44.797889610392346 344.29256290584954,44.92471590909786 345.4269480521289,45.49259334418103 347.1292106332391,46.364853896099774 347.24477475658927,46.44094967534472 349.44029017872435,47.89382102274446 350.4450588474238,48.460328733796466 352.10222199684125,48.85491071430598 354.76557426947693,49.51014610391735 355.72524350662775,49.72859172077956 357.8178774352508,50.688210227298605 358.7493405033995,51.13920454545203 359.75268871758016,51.40269886366358 361.5423599838864,51.44632711038598 362.76410308451375,51.57883522727484 364.81584821429647,51.75497159092213 366.9972605519305,51.92968750001459 368.48117897729793,52.19323254871377 369.89174107155486,52.65543831169888 371.0571225650259,53.110643262993165 372.09851866900925,53.348721590932726 373.324523133193,53.634841720794206 375.98645495130984,54.204139610396176 376.05199878256695,54.20698051950587 377.2321428572388,54.25771103896645 379.28393871758124,54.302810470803415 379.84618506489664,54.33406047079373 380.06884131504387,54.34643871756187 381.33568384750816,54.609983766261045 382.8195515423159,55.001724837660866 383.95398741886663,55.13276176950725 385.2630884741303,55.13418222402604 386.5285105519316,55.00456574677056 389.0594054383823,54.52541599028281 390.10785308454416,54.30844155846307 391.0274959416491,54.20698051950587 391.679078733844,54.13504464287811 393.0319094968414,54.049157873392375 394.69049310063343,53.78840300324316 395.86997767860555,53.57142857145947 397.13539975655107,53.57142857145947 399.05615868508323,53.57284902597827 401.0684354708328,53.481229707821576 401.89285714303253,53.444602272753954 403.79667207802595,53.22331574678205 404.8873275162832,53.0937500000142 406.28383725659876,52.8766741071471 407.3759638799346,52.745637175336775 408.11718750007907,52.61596996755761 409.0782264610448,52.267907873403864 410.25771103901695,51.65772118506974 410.99893465916136,51.309709821439675 411.6105418020143,51.178622159105664 412.74497767870923,51.0489549513265 414.7093141234401,51.31107954547084 416.2495941559638,51.57883522727484 417.338879870262,51.92831777598342 418.5606229708893,52.452516233784465 419.1285004060085,52.84567775973913 419.2581676137156,53.1952110389714 419.38920454552596,53.7179890422176 419.60765016253237,54.067420860402514 419.7668932630565,54.20698051950587 420.2121550325029,54.59730113638689 421.4832589286678,55.15675730522439 421.83274147734033,55.68100649351307 422.1216010553002,56.34664163961332 422.2681615259862,56.684303977278184 422.29936079556103,56.78267045454336 422.5725446428218,57.643922483797226 422.66274350649576,57.763697240288245 422.7458908279912,57.87363027597875 423.2278307631371,58.516233766239644 424.3185369319541,59.171519886374696 425.05976055209857,59.433644480519035 425.58400974031514,59.433644480519035 426.064529220798,59.302556818185025 426.84943181826065,58.82345779222095 427.72311282473424,57.73417207792275 428.90259740256215,56.034699675326465 429.29717938321585,55.380783279222584 429.77627840917995,54.85800527597638 430.5626014610172,54.683289366883926 431.3489245129986,54.683289366883926 433.179484578001,55.252536525998266 434.57599431831653,55.47098214286048 436.40934456179684,56.082589285713404 437.43942775990115,56.3489245129986 438.4864549514,56.30524553571647 439.40381493504754,56.04454139612698 440.5382000811827,56.0896408279279 441.3667816559635,56.56879058441566 442.5012175325142,57.92157061688936 443.1550324676068,58.53312702921861 444.5078632306042,59.18699269483486 445.6422991071549,59.62383319807166 446.34121347408444,59.84222808444624 446.3707893670457,59.84506899351988 447.2571530033574,59.929636769498124 448.6522930195697,59.931057224052964 450.22351866901374,59.887378246770844 451.6214488637039,59.932477678571765 453.8901684254146,60.06493506493694 454.76390016244784,59.93389813312661 455.27404626630755,59.7394480519455 455.3205154221036,59.72250405844285 456.2477171266959,59.36876014610578 457.90356128256974,58.93897118508348 459.26055194814825,58.89108157469655 460.26395089288866,58.80367288960862 461.13758116894667,58.772727272724325 462.13955965916824,58.23863636363514 463.5572240260192,57.58898133119579 464.39706777597513,57.275010146106 464.8465909092663,57.10704139612202 465.80762987023206,56.888646509747446 466.8983867694646,56.5405844155937 468.6274350650582,56.36586850650124 469.93653612017766,56.426390016238656 470.2141335228182,56.43952922078987 471.4655032468223,56.49827516234274 473.12408685075854,56.76039975652313 474.4332893669975,56.93653612013438 476.04677353909676,56.93653612013438 477.3403510551963,56.791396103895046 478.3606432630599,56.677252435063686 479.45129870131717,56.677252435063686 480.45469764620174,56.89569805196194 480.93521712668456,57.0266842532486 482.1132305195782,57.682021103907324 483.42238230525743,58.55428165586211 485.0795961850904,59.42659293834058 486.21540178574435,59.77744521104429 487.000304383207,60.083248782470754 488.091010552024,60.78079342533309 489.05067978903065,61.958857548714334 489.92299107154514,63.2680093344296 490.40209009750924,63.921875000009805 491.8845880682137,64.88291396104763 492.93156452929696,65.79890422080824 493.9349127436218,66.67116477272697 494.6085125812907,67.65335836040832 494.91289569812625,68.43831168832253 495.0439326299366,69.2668932629952 495.08619115259177,70.0095373376945 494.8677962662893,70.83669845781232 494.54651988647475,71.43699269482225 494.28434456173466,71.7583198051965 493.95885754877924,72.0133928571624 493.9094967532417,72.0513900162612 493.5079646916732,72.26562500001859 493.2500000000739,72.42623782468205 493.1570616884818,72.67567978898828 493.1852171267801,73.11957183443957 493.1570616884818,73.69313108767003 492.98934659097205,74.80499188313053 493.0330255682902,76.28738839285971 493.2500000000739,77.02866274352786 493.72914975659774,77.85724431820051 494.2096692370806,78.81828327923836 494.60146103896807,80.08096590912152 495.03688108775816,81.3900669643131 495.4793526785825,82.1650771104155 496.13463879889775,83.12479707794584 496.39529220785545,83.56158685065895 496.43902191573335,84.43389813313743 496.56868912344044,85.43582589287138 496.74340503256894,86.17846996753464 496.83076298706106,86.52648133120074 497.09146712672265,86.78860592534508 497.7467532468938,87.18181818182343 498.31321022735,87.57492897729047 498.44424715916034,87.83568384740364 498.44424715916034,88.0103997564961 498.1384943183657,88.5317573052235 497.61429586042044,89.18567370132737 497.39585024355824,89.49147727275384 497.30844155850633,89.83953936690759 497.3070718345473,90.36373782470864 497.2633928572291,91.19237012990497 497.13230519485904,91.80250608767938 496.8702313312384,92.54372970782383 496.2149452110673,93.06655844159371 495.47230113640404,93.50197849027566 495.29758522741975,93.67674512989178 495.1228185877315,93.93739853899365 494.99178165592116,94.19952313313799 494.99178165592116,94.50532670456445 495.2539062501015,94.98442573052853 496.03880884756416,96.03145292209945 496.40564123382063,96.48239650976524 496.99705763005204,97.2095170454807 497.82705965920746,98.3748985389878 498.3061586851715,99.15838068182349 498.5739143670116,100.0518465909094 498.69937094172195,100.46758319806243 499.047382305316,102.03738839287955 499.4814326300028,104.21880073054959 499.74213676952024,106.3987926136648 499.9154322241299,108.88316761365161 499.8703835228527,112.57244318184652 500,113.70682832794564 499.9492694805034,114.28596793834814 499.9126420455079,114.71012581171077 499.7379261363794,115.32031250000885 499.1700487014043,116.19262378248732 498.48376623389737,117.03109780844812 497.81721793840694,117.84841720780148 497.5550933442266,118.11049107145818 496.5940036527011,118.85029423704779 496.02612621758186,119.28576501625342 495.06508725661615,119.8959517045515 494.54083806825537,120.4187297077977 494.278713474075,121.07122564938278 494.10399756509065,122.16193181819979 494.0011160714344,122.81437702922514 493.9926948052969,122.97498985392465 493.96022727273834,123.62038352273551 492.31995738644406,123.66406250001764 490.9361302761108,123.60070008120658 488.7026176948769,123.31600040586389 488.22067775987523,123.2780032467651 487.09755478905936,123.18917410715838 486.4690543832275,123.31457995130904 485.49391233776066,123.53439529223847 484.36231737010337,124.09953327922327 483.32376217544595,124.91543222405781 482.1907467532699,125.51156655845057 481.21423498384394,126.10901988638686 479.54717938321045,127.23914366885751 478.853845373525,128.08751014610647 477.89275568185536,129.8095068993774 477.32629870139914,130.7522828734051 476.53855519489895,131.94587053573417 476.0664569805536,132.354504870149 475.4690036526173,132.5743202110424 474.5558543019664,132.88717532468334 473.517299107309,133.1704545454712 472.16583806827066,133.60866477273913 471.1597504058835,134.11170860393273 470.215553977337,135.0530641234056 469.930905032518,135.68161525976117 469.67867288969785,136.56234780844926 469.5208502435483,137.8192978896254 469.385805600836,138.7578125000246 469.3629768669833,138.9170556006569 468.98538961042794,139.92319399353173 468.54423701300294,140.7391436688539 467.9650974025644,141.73259943185454 467.39864042225236,142.33010349027847 466.82645089287286,142.6485896915791 466.0133928572561,142.67537540588225 464.88179788959883,142.42309253250238 464.39706777597513,142.25431209417562 464.1574675325775,142.17086038964618 462.0817268669335,141.4155844155964 461.3672889611282,141.2478185876711 461.1404220779843,141.1942978896245 460.4161424513785,141.22529423703247 459.7552252435478,141.47610592533383 458.93790584423044,142.04124391235464 458.4658076298851,142.60770089288297 457.9612926136851,143.4870637175399 456.9227374188835,144.61718750001054 455.9461749188979,145.55991274351456 454.9076197240963,146.50268871754227 453.9014813312936,147.25517451300604 453.6548802759889,147.4792004870403 453.17720170468783,147.9146712662459 451.82437094169046,148.6995738636725 450.9422179383754,149.26466112016965 450.0684862013421,149.6395089285905 449.0764508928963,150.06650771106283 447.6292106332283,150.78799715911862 446.90066964292197,150.93313717535796 446.68506493524154,150.99797077924754 446.4905641235367,151.15716314935614 446.4004159902783,151.42775974026983 446.30737621771095,151.73077313314633 446.11855722408137,152.42126623379417 445.9917309254119,153.04976663962606 445.83390827926235,153.42740462663292 445.1729910714316,154.37012987013694 444.29083806826077,155.68912337665273 444.0710227272953,156.41203327922733 443.5989245130941,157.3209719967734 443.3466923701298,157.60420048703756 442.71682224033884,157.66624391237718 440.759435876667,158.09177150977098 439.90975040591053,158.68932629871858 439.75187702934545,159.1289569805414 439.6574675325307,159.85186688315204 439.7815036527223,160.88900162339877 439.81250000005815,162.42923092536276 439.99989853902474,163.49741274354116 440.2507102273261,164.5345474837879 440.53398944818605,165.85496144482246 440.7214387175682,167.175375405857 441.03003246754463,169.07919034092257 441.0384537338263,169.13271103896915 441.1723315746743,169.93592735392954 441.22727272731174,170.26430600651832 441.6035409903235,170.95621956172099 442.0121753247744,171.332437094173 442.6731432630207,171.52272727273694 443.270596590957,171.7425426136664 443.80610795463707,171.86794845781705 444.3711952111342,172.46540178575333 445.75502232146744,174.1325081169105 447.74335430205963,176.5069500812068 448.86510754877224,177.89924918834546 449.8190949675595,179.08431412341753 451.1070413961437,180.6569602273083 451.43805803578346,181.03327922080769 451.7989549514545,181.44328327925368 453.72534496764627,183.16112012990746 454.511617289068,183.66421469158868 455.83208198062624,184.19967532470903 456.83822037342895,184.45053774353406 457.71890219166545,184.82817573054092 457.95566152602544,184.99441964290008 458.25446428590527,185.20581371754778 459.2986505682223,186.16264204548082 459.6058238636799,186.77845982143856 460.01450892869053,187.69023944809433 460.799411526009,189.10501217534792 461.6167309253263,190.99051339287965 461.9620028410022,192.0601156656129 462.6750202922886,194.81219561691606 463.0822849026362,196.32147930195973 463.0822849026362,197.07538555197834 462.7976359579614,198.11252029222507 462.5777698864362,198.45779220782885 462.2001318994654,198.67760754872222 460.94171063313865,198.73965097406185 458.9604809254288,198.8015929383541 457.85846185073274,198.738230519507 456.0660004059486,198.5804078733935 454.3044845779406,198.23371550327093 453.58157467529395,198.23234577923978 453.2038859579076,198.42111404223755 452.72199675332143,199.0721387987441 452.668425324643,199.14407467533582 452.4556615261444,199.91908482143822 452.3837763799682,200.17978896106376 452.0409395292847,201.1550831980656 451.9750913149576,201.34238027598485 451.4917816559969,203.02495941560215 450.77166193197223,204.3833705357355 450.295353084486,204.97245332794984 450.1925223215337,205.05834009743555 449.47661323064995,205.6643668831525 448.9101562500495,206.198407061718 447.379768668886,207.1467633928817 445.88890016245955,207.9880783279522 445.0687398539605,208.4306006493723 443.88920454542864,209.06889204548105 442.8675933443099,209.61992694807287 442.1771002435179,209.83411120134264 441.86145495136304,209.93273133119015 441.2314833604526,209.93273133119015 440.79185267866586,209.42963676950893 439.816710633199,208.23467938314872 438.6851663962456,207.63717532468874 437.83685064944825,207.3539468344246 436.93070211041606,207.2017552760068 436.89407467542054,207.19612418834714 435.76110998380415,207.35252637990578 435.0818283279159,207.63438514613878 434.7056107956081,207.79078733769742 433.765675730618,208.11064326302923 433.4147727274266,208.23041801952024 432.2508116883302,208.6376826299039 430.897980925477,209.14077719158513 430.1750710228303,209.42263595781813 428.82087053587384,210.01871956172326 428.6010551949084,210.42735389613807 428.34877232152854,211.24472402601512 428.31493506501084,212.28612012989032 428.2825689935717,213.248579545483 428.15574269490224,215.10298295455942 427.713220373374,217.86647727275295 427.576552353904,218.59359780846842 427.56950081172556,219.6392045454845 427.36515827936444,220.88352272731015 427.49061485393065,221.3865665584677 427.8076298701888,221.5782264610628 427.57234172090733,222.2743506493703 427.2442674514246,223.30869521106706 426.8465909090788,224.56290584418088 425.91233766245233,226.73863636366758 425.53464894492174,226.99086850652378 424.7314326299614,227.14306006497762 423.81544237012866,227.14169034094644 423.1728896104996,227.40797483770797 422.2484780845294,229.20190746757063 422.1216010553002,229.4462256493819 421.674918831335,230.30666599029294 420.9491680195065,231.1845576299074 420.01349431836115,231.6806513798978 418.9622564935773,232.06113027601435 418.4281655845602,232.40351055198477 418.0983664773445,232.8981838474203 417.8927049512957,233.50837053575444 417.5868506493816,234.61454951303162 417.31346387988185,236.1984577922417 417.0090807630463,237.30468750004255 416.5891842534203,238.06701501627077 415.88742897730896,238.7011465097623 414.95033482150063,239.2465503246945 414.3415685876853,239.5960328734031 413.8779423701814,239.98914366887013 413.4946225649912,240.54438920456678 412.91543222413713,241.75771103898447 412.4602780033305,242.4284699675797 412.1432122566568,242.81315949676502 411.86840503249414,243.03723620132294 410.4747362013604,243.55722402601916 408.2411728897109,244.60425121755404 405.84983766247166,246.02191558444102 403.48523741886777,247.37748579550072 401.9393770292441,248.2624797078173 400.7175324676415,248.9868100649828 400.1313413150245,249.18268060068272 399.8607954547066,249.3799208604138 399.44789975655516,249.6153104708147 399.07442167216544,249.73224431819602 398.81655844168563,249.71535105521704 398.62215909095613,249.68572443184024 397.98513595786727,249.3291903409532 397.7483766235073,249.22635957796484 397.48351258126456,249.12626826300274 397.2439123377228,249.12347808445278 396.9366883118496,249.17562905846822 396.0588474026507,249.5180600649623 395.3866172890851,249.74776785717987 392.4837155033232,250.89062500004835 391.3000202923544,251.27110389612886 389.048143263063,251.65016233769057 387.2908887987556,251.91644683445207 385.611150568284,251.9911728896298 384.08360389615814,252.06726866887473 381.94445008117935,252.10389610394236 381.0848214286471,252.01790787340929 379.84618506489664,251.89559659095065 379.61510754875604,251.87281858769364 377.3237621754315,251.68110795457486 375.3762175325602,251.33588676949475 373.96428571434416,250.8778916396505 372.1506696428805,249.83370535718927 370.1270292208363,248.26811079547696 369.21108969156336,247.46773538962626 368.6009030033734,246.97164163963586 367.76105925341744,245.78794642859495 366.8831168830991,244.98609983770177 366.3870738637405,244.68029626627532 365.77693790582197,244.56620332796763 365.0511870941377,244.68029626627532 364.20992288966295,244.90858360393804 363.67583198064585,244.87058644483923 363.0656452921675,244.71697443183055 362.6456980519818,244.3731229708177 362.0721895293471,243.6473721591334 361.3859577922557,242.84699675328267 360.8518668832386,242.57924107144265 360.2402597403856,242.5017248376789 358.8282264610502,242.65391639613273 357.6445312500814,242.61449878251514 356.57640016246273,242.61449878251514 355.01080560067834,242.2311789772889 354.13286323064835,242.1930803571788 353.9228896103392,242.2128652597551 352.80818790594924,242.3213271104031 351.38215300323213,242.45804586043283 349.2444196429163,242.72443181820566 348.2664874189716,242.76384943185928 346.4345068994504,242.83710430199454 343.03556209418576,242.98787540585747 341.0894379059774,243.44445008118294 340.1890219157243,243.8151379870587 339.1419947240813,244.244926948081 337.9568790585937,244.85369318186028 337.5707690747814,245.1615767045773 337.1085125812366,245.5300831980791 337.00147118514343,245.6160206980885 335.89382102278773,246.30225243510785 335.0919744319306,247.026633522761 333.9844257305502,247.8651075487218 333.0669642857832,248.28358360393713 331.90163352272765,248.63169642861456 330.99406452932084,248.90929383118302 330.23878855523503,249.1390016234006 329.56234780852856,249.3460836039322 328.16025771111305,249.77455357144697 326.78490259747707,250.38331980522625 325.7153510551954,251.03150365262314 324.3794135553212,251.4500811688498 323.0040584416852,251.6022727273036 321.8203632305722,251.7924614448202 319.26126217540764,251.90523538965644 318.256493506564,251.8897118506726 317.08127029229246,252.1376826299003 316.1455458604432,252.37444196433236 315.8313210228071,252.50410917211153 315.4043222402987,252.68024553575884 315.02105316566826,253.100142045493 314.9435369319766,255.16040990264085 314.7899249188238,256.4949269480684 314.8660206981408,257.792715097417 315.056260146145,259.2808441558892 315.36064326298055,259.9671266233962 315.78059050331046,261.52988027599883 316.2259030033166,263.47037337665563 316.72174310072467,265.58411120132644 317.13905235396754,267.3625202922413 317.44480519490634,268.3165584415883 317.42233157468326,268.6181006493863 317.32929180197175,268.8210227273007 317.06574675327255,268.9605316558804 316.56549310062894,269.1550324675491 314.6179991883173,269.7257000812183 311.79124391243215,270.52475649352544 309.6421976462373,271.16867897729384 309.3490767045769,271.36312905847495 309.11373782473567,271.58162540586085 309.0292207792811,271.9085328734071 309.0277495942026,272.3214285714505 308.97985998388776,272.60328733768347 308.86292613643434,272.7385349026346 308.6205357142705,272.8878855519788 307.51151582795575,273.1669034091382 306.6265219156031,273.3910308441837 305.375152191599,273.3825588474504 302.7625811688755,273.162743506521 302.6259131494055,273.151430600678 299.83852475657824,272.9597706980829 296.18166599027404,272.0254667208245 295.2953023539623,271.759182224063 292.74472402605477,270.9925426136826 290.9902597402252,270.64874188315736 290.36317978905635,270.45708198056224 290.11236810075496,270.3809862013173 289.48670860396066,269.6510247565282 289.0427658280578,269.42557832793915 288.1648741884434,269.0055803571576 286.4470880681691,268.73787540587733 285.84958400981725,268.7195616883435 285.14919845795333,268.6984577922237 284.72930194818315,268.69135551952155 284.6179484578297,268.7054586039145 284.38403003250727,268.7336140422488 284.04164975657295,268.9267451298864 283.7654220780356,269.2733867695213 283.0100953733901,269.2240259740559 282.05605722404306,269.1930296266479 280.10861404229115,268.9253246753676 277.16898336055846,268.6941964285952 274.6875000000608,268.6166801948314 272.9682426948522,268.57721185069016 271.0207995131003,268.49969561692643 270.0287134740948,268.9196428571843 269.4171063312419,269.3762175325097 268.88164569812153,270.0244521104303 267.49497767860646,272.26222605522054 266.5790381494777,273.6362114448254 265.9674310064806,275.198965097428 265.27835836049576,277.1450892857445 264.7689224837513,277.9712357954969 264.3652090098448,278.62469561692376 264.36094764614427,278.63174715913823 263.5323660715076,279.4321225649529 263.21535105524947,279.7379261363794 262.14574878255235,280.76663961041646 261.83994521105376,281.60090300327244 261.6807021103854,281.95459618508585 261.4947240260818,282.36891233768404 260.6928774350805,282.9030032467732 259.9600750812177,283.35389610391536 258.3437500000809,284.5263798701606 257.30382508132027,285.4381087662567 255.78612012999486,286.7739955357514 254.63484172088073,287.58426339289025 253.45535714290858,288.41284496756293 253.01988636370297,288.6159192370484 252.30965909089437,288.9469358766521 251.66005478908684,289.25131899352374 250.36079545462368,289.47960633118646 249.40675730527667,289.4781858766677 248.37525365265356,289.4401379870452 245.87814529216075,289.2682629870624 244.73391842536927,289.30626014612517 244.54367897736503,289.0004565746987 243.9334922890309,287.39965503250966 243.59106128253683,285.45358157471685 243.285308441598,284.99558644483653 242.96114042204195,284.3670860390046 242.6962763799434,283.8499391234181 241.95074066568284,282.39985795456835 241.6463575487031,282.017958603933 241.3025060878344,281.8658177760028 240.61485389607995,281.94186282472407 240.04134537344527,282.05605722404306 238.47575081180506,282.168729707832 237.1398640422022,282.20682832794205 236.85374391244883,282.1997767857636 236.62266639616405,282.05747767859793 236.5028409091133,281.8094561688465 236.45211038961668,281.4430296266713 236.59872159100664,281.0386059253613 236.56767451311103,280.67928165588825 236.33943790586383,280.4509943182255 235.3163047891069,280.02683644482687 235.26704545454461,280.00710227277426 234.2946428572843,279.63930600653185 233.77044439933906,279.62804383121255 233.25755884741704,279.8070211039335 232.44439935068087,280.18044845783555 231.01273336044832,280.7201704545844 230.34471388002356,280.637023133161 228.60440340911066,280.6552861201711 227.39960430202203,280.77790178573576 226.88661728898057,280.8892552760172 226.56249999998425,281.12317370133957 226.3624188313237,281.434557629902 226.31731939948673,281.822088068197 226.39904626631923,282.2800831980773 226.6386465097168,283.0762987013469 226.76826298715253,283.8245738636698 226.79083806820668,283.95419034092527 226.866883116964,284.87018060068584 227.0571225649682,286.244115259767 227.04449066554562,286.61754261366906 227.04164975650804,286.72042410718115 226.90356128251926,287.0445413961414 226.63580560067922,287.3122970779454 224.98001217536506,287.9816355519858 223.89351663968893,288.47204748379284 222.19125405843454,289.2386363636856 220.54951298706175,289.9234983766738 219.62231128246947,290.1954646915826 218.3343141234698,290.5717329545943 217.60861404220105,290.72392451301215 215.8527293019969,290.68445616887084 214.37170251622678,290.61404220780923 213.40924310074223,290.60557021107593 213.10622970786574,290.62104301950006 212.7440645293551,290.7422382305459 212.56792816556361,290.9493709416012 212.4862012987311,291.3228490259909 212.49188311695048,291.63565340910816 212.59050324676195,291.87804383119993 212.96108969155432,292.07249391238105 213.44587053573778,292.1697443182334 214.6676136363651,292.2853084415836 215.8893567371366,292.3628246753473 216.9589590098338,292.6686282467738 217.1872463474965,292.81939935067277 217.22524350645114,293.0110085227442 217.03505478900664,293.31539163965186 216.1937398539722,294.1932832792663 215.50608766250613,294.7640523539468 214.5125811688376,295.3361404220987 213.80519480521082,295.65462662339934 213.33309659100968,295.93085430197266 212.76242897741258,296.55088271107127 211.94647930205434,297.8360389610694 210.87834821429152,299.24665178574185 210.7444703734436,299.3527293019933 210.03003246763834,299.9188311688559 209.66081574680504,300.21190137992056 209.38742897730535,300.4275568182328 208.62363027596254,301.07716112014845 208.35592532482642,301.3054484578112 206.89174107147554,301.9198457792501 205.70662540584374,302.94855925328727 204.36931818186625,304.0547889610881 202.28231534090284,305.66969358770615 201.46778612020762,306.3418222402965 201.02247362020148,306.4898538961331 200.59973620139368,306.45175527602305 200.4165482955679,306.40528612015487 200.16857751630417,306.340503246789 199.44424715913868,305.9966010552164 199.11023741892632,305.7006899351141 198.45216112013316,305.1187094156019 198.2267146916522,304.9073153409542 197.3403510553405,304.0745231331407 196.5497666396585,303.39245129873854 195.98325892864256,302.90488027600514 195.46332183454209,302.4553571428942 195.14204545458335,302.1763392857348 194.32330560060308,301.4703226461392 193.72159090911038,300.92354910717586 193.5637175324011,300.70094358769643 193.22128652605122,300.22037337665387 192.9055905033366,299.77506087664773 189.08816964296474,296.6819196428816 188.77247362010596,295.99705762989345 187.7536525974651,295.43476055198227 186.4557629871052,294.151024756539 185.75689935073538,293.5197341721211 185.081828327988,293.29428774353204 184.04611404222402,293.1138900162562 182.74969561694266,293.0363737824925 182.4100547890706,293.0166396104399 182.13103693191127,292.9996956169012 181.13895089290574,293.0899452110628 179.96793831163086,292.8856026785935 178.9096489449569,292.25568181820677 177.0988737825308,291.235440340939 174.0676745130209,289.6374289772999 174.05925324688337,289.63179788964027 173.72387378256775,289.4330864448307 171.62702922080385,288.1732954545809 169.03409090912163,287.07411728899456 168.46900365262448,286.81924715912334 166.2594358766922,285.82279829547804 164.73188920456633,284.88849431821967 163.05073051957595,283.62444196430533 162.13052962674658,282.54220779225767 160.54662134746442,281.23026582795643 159.95900974032864,280.6130275974438 159.3629261364956,279.98873782471674 159.32629870135588,279.95074066561796 158.7160612826062,279.24898538965084 158.50608766244125,279.1798904220967 158.3228997566155,279.14468344158394 158.15665584418426,279.1756797889919 158.10171469154676,279.219358766274 158.01993709415453,279.28556209419474 157.9410004059441,279.44343547079586 157.94805194812255,279.67451298704464 158.02840909099598,279.8393871753726 158.16649756498475,280.10151176951695 158.74568790583882,280.862469561714 159.9054383117944,282.266030844172 161.08492288976655,283.78089488638767 161.15112621757916,283.8921976461454 161.8148843344475,285.0012175324962 162.29398336041157,285.77627840912226 162.3221895292696,286.0947646104229 162.25735592541605,286.2089082792543 162.0572240260516,286.5556006493768 161.50908076309315,287.22630884744837 160.50152191562745,287.8054991883385 160.0435267857832,287.89569805197635 159.37271712673638,287.98726663964544 159.0063413149407,287.92806412341554 157.11525974034507,287.61952110392673 156.19926948051238,287.5884740259951 155.49751420468942,287.77171266238054 153.33020495126817,289.1723823052412 152.13945819812088,290.0560064935266 151.28546063310415,290.78591720782805 151.22767857142907,290.859222808487 150.8570921266367,291.3340604708226 150.2159090909667,292.24720982147346 149.4239549513256,292.7348315746945 148.78277191565562,292.9785917208174 147.68501420466015,293.09978693186326 147.04383116884597,293.09841720783214 146.67745535719445,293.09841720783214 145.12175324677028,293.1589894480932 144.69470373384638,293.2506087662499 144.32832792205068,293.584517045487 143.8083400973905,294.3778916396469 143.15868506502323,295.9815848214693 142.12012987022166,297.7796773539131 141.3253855521027,298.93800730524174 140.62363027599136,299.85257711041146 139.98102678580256,300.70515422080126 139.43141233776558,301.55910105522224 139.06503652596987,302.6258624188818 139.00025365267607,302.94429788965874 138.8480620941862,303.70109577923864 138.3900162337822,304.46205357147176 137.99269480535455,304.7664366883434 137.16827313315488,305.2849533279611 134.69658076304222,306.0149147727502 131.56534090920206,306.7463474026178 130.50000000006128,306.97321428576174 129.0020799513122,307.29307021105745 127.46225649353762,307.8595779221095 127.26313920464675,307.9328327922447 126.77977881498208,308.0723417208244 126.1935876623651,308.24244115262263 124.21225649353583,308.81498579548764 122.04494724025874,309.6675121753538 120.97681615264008,309.94094967537717 120.4596692370175,308.99538352276346 119.8290381494074,307.8595779221095 118.32614650969833,305.15249594159593 118.05139001623957,304.81716720784 117.39889407469052,304.65650365261683 116.45332792204076,304.41274350653 115.17238230521956,303.8335024351162 113.5560572240827,303.131747159113 112.85283076303705,302.82594358768654 111.63392857144731,302.54976663963686 108.58446631499937,301.23782467537166 107.53601866883757,300.827769886402 107.46981534088077,300.80240462665364 106.47493912339736,300.4134537338038 105.8957487825433,300.5036525974417 105.1629971590961,300.7474127435285 103.36201298705497,301.5393668831336 102.38545048706933,301.72118506496423 101.4399350649793,301.6901887175562 100.67476663967742,301.58162540586085 99.70099431831383,299.2297585227629 99.23173701315028,298.0206980519737 98.35805600653251,296.5761972402959 97.35049715921099,295.1980519480739 97.10947646115044,294.85004058444383 96.58527800334939,294.08903206172306 96.29499797087072,293.6690848214653 95.90462662350207,293.10115665589444 95.53546063308431,292.2275263799085 95.16761363635428,291.45525568186844 94.96616274359049,290.38007305199926 94.89990868507397,289.338676948088 94.84349634750214,288.5861911526242 94.83370535726135,288.46499594157837 94.56452922090251,287.89427759742154 94.12768871759363,287.45743709418474 93.60064935075499,287.1305296266745 93.15391639608586,286.8528814935463 92.71007508115825,286.71053165589296 91.57426948064847,286.3469967532791 89.04474431815682,285.99614448053933 87.9695616883597,285.9806209415915 86.69140625001637,285.96088676950285 86.14889407471756,285.8833705357391 85.51476258122601,285.7918019480701 85.21179991890924,285.5903003247105 85.11175933443478,285.22245332794444 85.1624898539314,284.3121448864032 85.17938311691037,284.01339285719126 85.1357041395922,282.94242086042686 85.11312905839385,282.36749188316526 84.94546469158799,281.83056006496633 84.44237012990678,280.9230925324988 84.00837053577966,280.31148538964584 83.91817167210573,280.1847605519877 83.03180803579403,278.94034090911464 81.04342532464212,276.60110592536716 80.33740868511858,275.86267248380875 79.02830762999908,274.58598823054393 77.75299310069335,273.30925324679146 76.97930194813449,272.36794845784226 76.89341517857666,272.20586444810033 76.71159699685417,271.864853896125 76.14229910721616,270.7248376623662 75.70403814938847,269.848315746783 74.72468547078077,267.78104707794427 74.38930600660933,267.04261363638585 73.7261059253212,265.58411120132644 73.71712662345927,265.5643770292378 73.64240056824549,265.4051339286055 73.10130884746548,264.2538555195274 72.9448559254192,263.9198965097666 72.37413758126239,263.1462560876954 71.73579545462998,262.44023944809976 71.10308441565724,261.55245535716114 69.37677556827016,259.8699269480675 68.45804586037514,259.1244419643306 66.1568080356904,257.7392451298941 63.672483766299344,255.73960024353096 63.33279220786759,255.3506493506811 60.17207792218562,252.77886566560636 57.97793222415378,251.24573863638054 55.88108766238988,249.14742288964626 54.215452516275214,247.48178774353158 52.938717532450674,245.80204951302395 52.456828328008726,244.34912743510054 52.40041599029272,244.18146306822257 52.32153003249782,243.94328327923566 51.728236607142655,242.13255884744137 51.62819602281239,241.9662134740709 51.347757711134236,241.497006899395 50.858766233809924,240.67963676951797 50.72209821433994,240.45134943185522 50.50928368513738,240.21043019484202 49.98929586047719,239.61855722404172 49.956879058478336,239.58187905848646 49.51161728903192,239.07457386366437 49.031097808404866,238.66030844158988 47.565493100679376,237.39346590912558 47.53165584416172,237.36668019482244 47.09202516237496,237.01440746756387 45.884334415689,236.04910714289755 45.76176948057592,235.90817775976302 44.93455762989838,234.95556006497085 44.47377232143207,234.2706980519827 44.0721387987441,233.67319399352272 43.691659902591496,233.10815746754923 41.87809456168753,230.21793831173358 41.64270495143081,229.8706879058866 41.24107142859866,229.27800324677952 41.021256087777374,229.06660917209575Z"/></svg>