<svg xmlns="http://www.w3.org/2000/svg" width="500" height="500" viewBox="0 0 500 500"><path d="M0.231804178655667,256.02305108446905 2.7432148358147783,255.91202354597567 10.349197389549685,255.51841233568402 14.629543958114489,255.2963572586972 14.422989251349625,254.14491120743466 16.080967761589708,254.17023081665323 17.09599652781251,254.1858013242528 16.973256040030314,250.28342532090278 16.080967761589708,250.26708330165107 14.311961712906065,250.23474995028488 14.308034017167861,249.93273821262616 14.298355053075948,249.2567537427688 14.294427357537087,249.0229155789661 14.292533647045605,248.81832471997066 14.264198128546072,246.7434493752179 14.218468529831485,243.39831518690937 16.080967761589708,242.70823309527952 17.711662815090946,242.10470058195432 18.52020701202618,241.80654640250668 22.440117370645485,240.3570163091741 25.648834273864395,240.76816187493438 25.031274276293818,237.9743078207821 24.92221058561969,234.45972162179308 25.003990819156293,233.03740484807088 25.117052343045916,231.0891976868385 25.08191349483067,230.6546963596789 25.031274276293818,230.06049212340798 24.92410429611117,228.75712841683387 24.783829452760656,227.0582597895763 24.306544298341255,221.29724211242998 24.253941232234318,219.7074371757967 24.193552912128265,217.8351888422201 24.05909947480809,213.7360773711019 24.179876114820853,209.60568460997953 32.446342768340706,209.44205400527954 34.92647213534613,209.85312943356254 40.50828870034241,209.9758699214444 42.47599406471319,209.19264533387727 43.58269244099639,208.96666256130177 44.23728499727369,208.83417297180088 44.69703579612477,208.74067978872628 59.9324268024712,208.97444781510157 63.32441278853294,209.027050881358 70.2349126690229,209.14979136923986 71.61030750771391,209.26867429891067 72.0934842054416,209.4673736144483 72.51430873529381,209.6387894729979 72.57673104064659,209.91933915959928 72.69940139115083,210.45315507581398 72.80264367579461,210.91297601214234 74.52879576013987,210.91297601214234 74.81720083791863,210.91297601214234 75.55750132347075,210.09075501809903 77.06741973695921,209.44009015746028 78.23050860013296,208.93937910426394 79.42088092044425,209.59789935617977 80.20024794975048,209.0192656275084 81.65756329693266,207.93802713534853 82.13674216164421,207.58341233143338 83.69926364123963,207.46067184355152 84.72796920457048,207.1800520195227 85.96119548961885,206.84500555627307 87.0717514239636,203.55633199238224 87.97575265174285,197.6823229289731 88.58749124348243,196.48227164447025 89.46028131838594,194.7716199303469 89.87724828997723,193.95536061718886 91.93010048460187,188.29562137686708 94.389469174675,181.51957493354777 94.40300569722717,181.48450622271014 94.84921997372543,179.32778050689365 95.26801051833091,177.66201674265446 95.7610064551051,173.22582482308974 95.39082114378974,172.23997322434644 94.85567261645336,171.24381142461428 94.48724074047556,170.80103388171253 91.65993113636698,168.14086175322825 86.20962223703673,162.62083625688715 84.47273912723755,163.43050265246234 83.92026665676474,162.60463451249032 82.85431812269394,163.05800280604092 81.88740362761956,163.78673061700962 81.50129712131819,163.82663880994306 81.2156274031604,163.4377268068923 81.29460213979809,161.32097942138682 81.53201731225157,158.10258355402618 81.57585320067402,157.48425204470374 78.70063973745019,157.4534617165921 78.61114438739176,157.17957508505089 83.15864439506002,153.9288458662742 85.05333670377803,152.5359868096915 85.2506332707167,152.88148374873506 87.40855132279997,154.74924328735315 91.50633018289616,158.16633847030127 94.1390084420104,160.47659500211128 94.33756748274295,160.37531656523694 95.57647489886706,159.77465968623807 96.28851000339694,160.7069964322677 96.56050292464602,160.90857138208185 98.19751034592062,163.5232944613122 97.59804580313867,163.97308574636153 100.73508226137795,167.2344758532145 102.06383571454826,166.49045808435605 102.23532171057518,166.23038852482765 105.43316731338558,164.12465271453578 106.53860321607424,163.71981951679803 107.74258219621562,163.63881079476408 107.29566654534314,159.1979196679585 109.7806353944942,159.06970846118358 113.79214522609529,160.28743437591032 113.99673608489138,159.91914277483727 112.10302570025743,158.744411099553 111.17363472603148,157.77020231277072 110.37687361611152,156.93640864419385 108.09544356439454,155.93112897963994 107.9259915538137,155.85706386237598 104.81062755891413,154.4854564445184 102.51944840562795,153.09056340268899 100.48546317764348,151.90012094495026 99.47828980269774,151.3098444043179 94.17309522886364,147.5710990057177 92.15671449372545,145.88583703824042 86.60800279209637,142.14716177701789 85.24039320720514,141.28215695576466 78.51112842411196,137.01927460514136 76.2062724737177,135.8289022848301 74.52879576013987,134.10941325559483 72.95848902674469,132.49933860412114 74.15475289036425,131.38106755325452 73.4748407249182,130.52770554401215 72.93394092922811,129.84779337851626 71.30829577010503,127.80405904896257 70.52317747204641,128.21899203545667 70.03810706382724,128.47422211288927 66.79032361685422,125.22840251363584 65.96620891251878,123.70880513605545 64.37254641772428,122.15210506249038 62.788562887021676,119.47713393805871 62.209929158449974,118.49717388272337 61.876776405642005,117.70230648314539 61.14040361562875,115.94887094181212 60.77218215188348,115.56115127492843 60.123340864159225,114.8754177034022 60.01617088397658,114.7604624693201 59.53117061323469,114.24796832930784 57.522434856941686,112.12834530952586 53.82268586491736,109.702712719069 49.75085785088685,106.82904227909971 49.87352820119175,106.17052202723372 50.81848968321659,104.91001228524718 51.765344875533565,104.91001228524718 50.94319401896756,103.02022959625175 50.777529428971,102.85849270189372 48.88578289210648,101.00567243412775 48.681192033111046,99.97893071851647 48.92674314635207,99.3633345686655 48.145482406554365,98.17099840058478 47.61159635301187,95.21154989391323 46.732914734600726,92.29116793114528 46.62385104372725,91.92680402566093 45.217174915081905,89.55384463888798 44.76324552226117,87.90947278822884 45.05550815830084,86.86323286942931 45.46272602832293,85.89694961130171 45.527042043967846,85.26957037463481 45.58546651630447,84.704613443221 46.45047133740821,83.22583604508114 48.95788416155116,80.92497792775288 49.40991984407976,80.18460730477331 49.73907476407092,79.44627066704045 49.57937185485994,78.13308772141986 49.54233929635256,77.87596393364527 49.19165218797627,75.42311802357803 49.1274063096093,74.97108234104942 48.50395476873043,72.35453568885472 48.02603837741409,71.39989524273797 47.80454439994662,70.95767879920604 46.80115844558516,69.86079966196934 45.33802169277131,68.49311993975031 44.35027638348669,66.72607773863676 43.76771495917677,63.78612743520329 43.80860507614442,62.30742017449087 44.38338124665455,60.581197952768 44.850987436782695,59.949961157890016 45.08286175271631,59.63630660827029 46.43882852554687,57.993968742808036 48.16498060989212,56.59697157835427 48.61694615494342,55.944342869846395 48.989095314227555,55.404635410223726 51.4068725133575,53.49731836580949 53.24012444060745,52.05171596811544 56.489871735549244,50.16193327912002 63.848479603028935,45.47640282558051 71.2401923336765,40.82776465584297 72.4032110595723,40.09524942409063 74.52879576013987,38.54402006941863 75.0276131029444,38.18014712587662 78.21108053427251,36.88842623126354 79.79492379002052,36.247440334816346 80.10275693365973,34.51539670706313 80.14561089819748,34.28162868068787 81.39840552406086,27.250352159985805 83.61937711799516,23.016787251597265 84.43963426426903,22.32712598448233 85.32217344074175,21.623787920159657 87.69127526930362,20.60679530616742 91.72221316656582,18.839682967626413 94.76540575474276,16.332340280960747 95.71226094705973,15.634753485191125 97.05363913617545,12.952067244387148 97.06822771989027,12.922819939579862 98.64638984456253,8.459344562977302 99.65166950921613,9.12368622087365 99.79194435236731,9.21528569355642 100.98035282490915,9.743210066363162 105.59777984202013,10.639496177620583 107.78178901492433,11.064178265733704 111.48153800714799,11.459683186466995 111.4152581435343,7.6975820264176775 115.0467634245742,8.094980657492943 118.58687964506417,8.704825538790871 118.68416024892238,8.722430031587306 120.39866952120694,9.018480088410598 121.9826530517102,9.678964188095868 126.14215284278494,8.886060636337147 126.58633313423582,8.761286163208556 126.72864196283305,8.722430031587306 126.40131061585609,7.4462796446236 125.94345352729715,5.669488341891007 125.86938841008302,5.379189553670604 125.49927323604561,3.939408561957058 124.78814991792316,0 126.46948418976191,0.06242230525310501 127.43969514347822,0.5143878504040812 132.97669389576865,0.3919980496096598 133.25913729296116,0.38575581906441503 134.53143012176363,0.6370582008584919 138.1219751483586,0.6098448812480928 138.33834909416993,0.607881033478662 139.85794647175032,0.013676797207737871 143.61997749417284,0.5416713074419364 145.72024258557167,1.2449392343371537 146.29494861880386,1.437817143894279 146.5930326606745,2.5639435859382633 146.93011310922068,3.8322385816747393 147.23401855732104,5.8584385558096 147.37429340047223,6.3805415225859985 148.1672670898079,9.312706572219698 148.7127258179338,12.646197948567197 148.80046773245533,12.952067244387148 149.0517701142494,13.828785015028865 149.21154316073833,14.383992844873463 149.3907442730877,15.003516690313141 149.85252905738486,16.61288996756211 150.0492645251032,17.331728402106712 150.25778307943818,18.08773967006345 150.29088794260605,18.212373868337124 150.81888245284023,20.13722526822001 149.21547085647651,20.215218081072663 147.48146338085422,20.487912376446797 146.50157346284666,20.505516869293068 144.92530504866588,20.532730188903468 143.60251327628114,20.443094564039964 143.19143784799815,19.073450994001675 139.56175613997246,19.3969247826679 139.0844709857524,19.4397787473053 137.57848026800212,19.66772536765022 138.20971706288012,22.299842527444476 138.21357462114102,24.162341759451877 138.21750231667988,25.63915530977248 136.8497524570334,26.961947082157213 132.97669389576865,27.173972507815137 131.00891839392057,27.281493175184902 126.9740528011195,27.801772569046783 126.06226631973982,28.302413484765832 126.16943629992247,29.04664166595648 126.38181241271768,30.537132013484822 126.24350141713659,31.76832431318678 123.73405460794625,31.631977165474797 122.91393773642763,32.13268821867114 122.4190480893613,33.24513786350739 121.49751250621307,35.321977056079426 121.44687328787556,36.73447459075511 121.37280817046211,38.71978444807184 121.36116535840142,39.060652317301965 121.4176259829686,39.73088551860627 121.49751250621307,40.65634879734319 117.29901630866216,40.39333346611081 116.8528721696412,40.366050009122795 116.56060953340219,40.34851565370398 115.60596908728544,40.2880571962203 119.0212406972692,46.206954209513576 119.76161132029861,47.48696215468836 120.07919356550704,48.03824228889442 120.78056778206027,49.29103691445881 122.07614623478477,51.61335708279458 122.87879888821237,53.05117422668886 123.59188605410425,54.32725447622511 124.68883532881824,56.20925191147059 127.25460248782053,60.608481409805854 128.63988670283598,62.89966056294253 129.16584722782346,63.77245063799555 130.13416447124763,65.5862744993352 130.50238593479355,66.1299096545964 131.2757912833142,67.27350031463175 132.17986264857072,69.05029161736434 132.7350704782658,69.90365362660674 132.97669389576865,70.27418962520889 133.7106118760701,71.39989524273797 133.8261282096715,71.57720264469555 134.43400924295082,72.69743754333156 136.66087238039276,76.8024405578079 138.98705010693962,80.85680435389688 139.1078267471517,81.82897915543245 139.25981453984087,83.03681569373508 134.83533556966464,84.7240415089818 136.02178019443704,86.6839616197023 136.5965563649472,87.39704878564402 137.28621763196244,88.25433849047512 138.13957964120485,89.51288438464239 141.02103533492408,93.75430468425816 141.2158770923503,93.9744660508033 141.70487519610833,94.52188862679829 145.6851738748337,100.33550937020105 146.80926633173064,101.9778472356633 152.12806756519552,101.50056208129374 158.65477547473932,100.86154003261598 163.65592432571785,100.3510798778006 164.80933422479967,100.23416079594908 167.3206046070042,99.91657855069082 168.39994938887193,100.1095265976754 170.88007875587735,100.55370688897676 177.040529049246,100.18934298349241 183.7464380711392,100.05299583578042 183.83410984818343,99.34376622804979 184.05427121457907,97.55343840291454 184.2355063121752,96.09801676622382 184.3523552566491,95.13755491407672 184.38931767787852,94.84529227808689 184.46338279509266,94.24912419399669 184.65822455251887,92.6671746486405 184.71279146659458,91.5975088310142 184.75564543113234,90.79289232981716 184.81406990346895,89.65708692353176 184.84135336040714,89.10959421010932 185.71028587744843,86.20471261751348 187.35465772785838,84.19997469443597 187.60792395762124,83.78307786012262 187.69938315544908,83.63298377777544 188.4708947936776,82.36279507164716 188.58781387542945,82.17181087248184 189.2677961783528,81.05550366943451 191.42452189411947,81.02197798190124 192.27984775133064,81.00872200920841 192.9188698000084,82.01210796337052 193.74095051929643,85.56765441665499 194.74433647345856,91.21953826569973 196.8192819554893,96.09408907058528 196.95752281359307,97.14229283720407 197.3667045313846,97.96444369381992 198.28431241899395,98.61321484411671 199.07139456482201,99.17038652173075 200.52681620151273,100.75822761049491 206.31118964005836,105.89586388404031 210.82726808301703,110.13525019840935 215.11729361567376,113.91881340946618 219.7502911403843,118.06470654081049 224.7242266719019,122.66838662328627 231.885958796908,129.13470621257454 232.67570616468035,129.84779337851626 234.11485591939729,131.14729952692912 243.0437705204715,139.1954985241461 244.452340359409,140.4658275051293 248.78718370477156,144.37206106669038 249.217757336193,144.82213290144955 249.13394311740964,147.57306285348716 246.72402130935743,147.6666261739892 246.59931697360645,149.2933233943746 243.5814439947976,149.3499242936472 239.05561645046907,149.43556208549455 231.53337797804022,149.14133560168546 231.69315102472848,149.54862360918483 231.98148596502995,150.2752472975292 232.23664590508494,150.92408858525346 232.41395330694283,151.37409028258517 232.4023104950815,151.85923082813213 232.29710436246893,155.89409642098303 232.3379944794366,155.98562575623833 233.17774982884887,157.83262461807365 233.6901036940062,160.50948945289713 234.2356325596094,163.35005502979823 234.2356325596094,164.34951328837164 234.00768593921464,164.9866416266576 233.98040248227645,165.06449416470517 233.179643539141,167.3147832010237 233.3803768398755,171.1489856305177 233.41537541333554,171.8366830498134 233.56925691651617,172.94723898430766 234.34469625028353,182.5833492077661 234.6310673430149,186.56946929257165 234.74027130844428,188.06381719831106 234.75682373992854,188.29562137686708 234.82008769421145,189.17816055353913 234.87079705002625,189.88935400908903 234.91757871030217,190.52830592033933 234.97986074070036,191.4108450970114 235.06171111171426,192.53500769128595 235.0032165020997,193.88522319551362 235.02271470543744,197.77785009724457 235.2155926148949,201.59059047573106 235.24091222406366,202.08155242730837 235.37732950915327,203.1082941428698 235.45525218482763,203.70249837914074 235.67541355122327,205.3545853461722 235.90532401938745,207.09245037985607 236.0825612839674,208.42309754346803 236.14301974155075,208.87120553040793 236.25601112776374,209.7226036918809 236.43717608788256,211.0980686678997 236.5872000328023,212.22223126217426 236.6319477078315,212.56709696442053 236.7684351303984,213.58991098439327 236.41178634123654,214.6595066645921 236.0689546241373,215.6803568367456 236.31829315816194,218.03585200557703 236.4800300524203,219.55355567271576 236.61251964197103,220.98358756281027 236.72544089090607,222.19731564447102 236.77425653642874,222.72531015470523 236.93788714097923,223.7695862256855 237.12494364460568,224.952173292197 237.23007963974095,225.34767821288045 238.0678010039065,228.47847244062433 238.6133298695097,229.8715419094894 239.31470408606293,231.6716889736213 239.40637369612332,231.90349315222713 239.8563753934052,233.05697318868658 240.0648939479395,233.58875511970442 240.69016906203188,232.8309202787335 241.18113101355937,232.23671604246255 243.59119309656617,231.3560705761823 244.53026303488403,231.94445340647272 245.0566443845359,234.3309493155985 245.2491014695283,235.2058435133257 247.1895935144382,238.49262336682472 247.072674432487,241.0759950185736 247.29872734239026,241.72862372703165 247.6610572626279,242.7806850518615 248.4228899367645,243.1313721600883 249.87234989266963,243.47195947965844 250.42180645381166,243.60094219808553 251.6413559415526,243.5736587410477 253.00707181595237,243.5425177258486 255.05143738240298,246.7434493752179 256.25099770486383,248.62158925225228 258.48171840056665,250.81534752672567 260.424174293246,252.73051996236714 262.7172471566249,252.7889444346041 262.9705133863878,253.5487431233943 263.43811957651593,254.95345540427022 263.6485318413424,255.58272835132894 264.06739252342516,256.84127424544636 265.89096548638383,256.9581933273477 270.827938596672,256.9581933273477 276.76030199489065,256.8159546362278 277.1012400014984,256.808169382428 277.42471379021447,256.8004542660557 278.26250529185734,256.7808859253901 280.6393222367417,256.7244253009725 282.8525085770755,257.08289766304887 284.4540264631471,256.960157175167 287.42511778168,256.7303168443804 289.729903594597,256.55300944247267 290.7235404473892,258.7544828333184 291.0800489615965,259.54549267473516 290.9008478492471,260.3559305819127 290.72746814292805,261.13136991572986 291.6684317917374,261.48402087177595 291.75224601072006,262.4600532315226 291.7911722795196,262.92962326946997 291.67818089350595,264.13556609738083 291.66261038570707,264.2914815857085 291.64114833479925,264.51739422085654 291.5826537251847,264.6479900999656 291.3138871252996,265.2577648438361 291.14043728150324,265.65326976451956 288.73044533617303,268.0028733898932 291.272926871054,269.01790215606616 292.9620463966925,269.69402690077845 293.05364586927556,269.72909561161606 294.1212777018047,270.1557415475484 288.444074243641,276.97267810768585 286.5406147574378,279.2560720070228 284.220258436722,282.2855877978923 280.73477926778503,286.31070428912415 279.3710272411547,287.8868324284999 272.9631321240536,295.4850998658624 272.0007765616143,296.6267968155558 264.9713937512044,305.19134751099614 262.8926608481907,307.7240799443079 263.0523637574017,307.86624849800035 264.30312439781903,308.98451954886696 264.3479422101262,309.0235159552933 265.65523361238866,310.1905325141554 266.29032796532823,310.30941544387605 267.4398101688712,310.5237554044407 268.7043177438739,310.76138098902703 269.5089342450709,310.91147507132433 274.15168087135066,311.497823916368 275.9070101231256,311.7666606535809 279.1449743310521,312.26155030074693 282.61488299258883,313.09541410675126 283.78765082005384,313.3779276411719 286.8445202053389,313.7286147494485 287.9024029360994,314.6091900783013 287.5283600663238,315.6943562661495 287.3140902432364,316.31205653862486 287.7017397728422,319.1564095363594 288.0193220180506,321.4787998421226 291.839847650287,322.3593751709754 292.41462382079715,320.69943281271674 292.96015268640036,319.12723236892975 293.53296500914104,317.473181554079 294.425183149905,314.9034165621602 294.9336794568015,314.9307000191483 299.14395874136767,315.1605403499348 301.4389253150388,315.28335097524416 301.71758129144763,314.1981146500183 301.8559624243067,313.65454963218457 302.1442272273302,312.5265294797488 302.6137972652278,310.11843124471073 304.16692033024174,305.19134751099614 304.612643644997,303.77688612855104 305.52835782211486,303.20021624769896 306.6681610613666,302.48516523393795 308.3202480282984,301.7310476763232 308.7255020507504,301.5461654328482 310.0171528077367,301.7215089869865 310.7145993287511,300.69476727142506 311.13353014831114,300.0770669988999 311.9907497156151,298.21267405655055 312.2966190114849,297.54244085524624 312.57913254595536,296.9287384157372 313.6390492619626,294.62002490718174 313.8085012727428,294.2499097331443 314.14354773604225,293.52118192217563 314.5682999614333,292.59389507047433 314.7182537690751,292.2684574340387 316.0334005624153,289.998810469337 316.91404602859586,288.1206705923026 317.1049600902839,287.3101625476976 317.32701516737035,286.35944979716953 318.3245797155021,285.88791591140284 319.1486944200369,283.12920070551564 319.5597698483199,281.8959744206168 319.9396341239265,280.9549406342803 320.00395013957143,280.79713143556086 320.2864636740419,280.09772106682686 320.2903212323028,280.08993581302707 321.2333188663589,280.35877255023996 324.33100823113426,281.23941801652023 325.62862066910543,281.6095331905576 325.89745740626853,281.68556215564087 326.4877339469009,281.85305031855194 327.64114384598275,282.1823455131987 328.49057815968627,282.42396893080115 330.45442596579613,283.0142454714336 331.2882897719001,283.2656179906551 331.4032450060819,283.29872285367344 334.29255609087886,284.16758523308795 334.5905699954716,282.87789832377143 335.07767438893745,282.98310445623446 337.13115782025966,283.4233570519471 337.1740117847974,283.4370338491549 338.7228564670854,283.9182466991131 339.15343009870617,284.0527001364333 341.8537208323066,284.8982067544485 343.1142305742931,285.2917478273625 343.5428403579451,285.5995809710017 346.0600022836573,287.4134749697688 348.21869184739273,291.282675972673 348.6376226669528,292.0346894076634 349.36031865945927,293.33033799786523 349.8961685609705,293.5893554960316 350.4085224261279,293.83876416743385 351.0806493379735,294.1641316664421 354.52320440489547,294.93957100025926 357.8548020708512,295.54941588150734 360.8531768465216,295.77147095849415 362.1214718423079,295.55327343971845 366.0706295058342,294.88311037584157 366.7680760266492,294.9313649219446 370.06846253992853,295.1597323668044 370.648989979191,295.21815683904134 372.1413740369118,295.3721084795996 375.84701457264316,295.75007904486426 379.28564194382693,296.10265986353266 381.66056517861847,296.463166210806 382.2801591614358,296.55855310427233 383.6693009347121,296.7689653692483 385.00191194614337,296.95020046679457 387.7216307456042,297.32227948865125 391.608436241255,298.15614329470543 392.44230004735897,299.2101684673047 392.66435512424613,301.76036511860775 394.121670471229,301.95724086118105 394.3437956857927,303.287888024793 394.3437956857927,305.19134751099614 394.3437956857927,309.111257869765 394.622381524525,313.0505962943444 395.19519384726567,313.6954397490027 396.78689249409143,315.4917993924008 392.31955955937747,318.48238891427144 392.00969243069085,318.69083733142816 388.56917134881627,321.2430679679281 386.62475160836755,323.0724623369171 383.12762962736986,326.7332149226646 377.3004022240871,333.2228902733522 376.63409671827185,334.27691544600134 375.1884943206276,336.37907424774215 374.0799022340523,337.994198793594 372.62069317657796,343.5915858660403 370.56524589768566,348.5284888387515 369.45476010061884,350.69292967099017 366.7680760266492,354.3628702589869 365.5153515386618,356.0740830724302 360.85121299875215,361.28564418838465 358.8365155616736,363.639175509347 356.86502277631985,365.9419974744945 355.7798565886211,367.21029247023097 351.50343771559517,372.81350094870766 347.50756852927026,377.1951259541966 346.0638598419182,378.30568188864106 343.6324759829581,381.1033935009546 342.6349815721043,382.57235166004796 340.61263915618053,385.58047553733746 338.03319520007017,389.5880576731505 336.320649775555,392.62339487005033 335.6699147773393,394.3534746499843 334.1678517553272,397.875986377628 332.56437002148624,401.97706169651565 330.58298785980804,405.70991555175766 328.84708667389356,407.7127597644932 328.0288635128664,408.65568726117164 325.4006740487107,411.28191287755794 320.204683440306,415.0401564793962 318.0556728408618,416.2929511049606 313.99163008063107,418.0580294583047 311.392617783905,419.18801345855974 309.58461532854585,419.97123804612687 308.3202480282984,420.39472779807295 304.5366848172914,421.6622512822071 303.2677585848075,422.0870035077476 303.1515408770312,422.125999914174 301.8110744743229,422.5565735456951 299.85508205929074,423.1858464927538 287.6725626054125,427.36098692890533 278.1201964634594,430.1060954750123 264.84283185739184,433.829130091158 261.70614608614034,434.7896620807325 253.70465861172198,436.9970270149862 249.87234989266963,438.6098370258815 249.05216288387305,438.95505341526507 244.75428195973993,440.77862637822375 240.2128839076125,443.43802699505585 235.61502523131657,446.6000323754263 228.54475230413834,452.5383574545302 227.10889900806333,453.74437041986846 218.47224704302877,461.1691880134846 215.22839129159462,463.8245907972507 207.82882316986934,470.4721454840852 199.02082548376245,478.7911450663842 197.30652662371043,480.5349016434761 195.6094114320396,482.2609835903939 191.42452189411947,485.80706149171925 191.25696359383076,485.9490897706067 184.77317978650132,492.504974847331 177.26069041584097,499.99999999999994 175.29102120370078,498.5679341247086 174.5642572405015,498.4121589112358 173.91744993802394,498.2718840678853 172.76796773448098,498.10039807195807 168.89876673167646,498.32638084453356 161.7953188040524,499.40572562635145 160.1276613295211,497.8899858069821 157.6163909471172,496.36253303822434 155.10701427520482,495.4214992519377 158.86911543530397,490.5275203812415 159.04635269968458,489.3351842131608 157.5131486624734,488.54803192995513 156.72017497333707,488.14284804503023 155.7616068314821,487.7590560737353 153.9692450211998,487.04596890779356 153.13734506286525,486.7127460175581 152.61706566915288,486.28420637123395 152.12028231159508,485.8769885011122 153.37504078482922,482.41689907872154 154.29454238273073,480.5349016434761 155.94284192907824,477.1663415563408 156.06158458384428,476.09281818055325 156.00323024898495,474.66082244263947 155.2862153875542,472.9912011201892 155.0465558178208,471.5592755197029 155.3485675554297,469.6752440992605 156.00119626393757,467.3567814891358 157.37869522515325,462.45691107503166 156.95001530382464,460.496990964361 156.79613380084334,459.79758059562704 156.54286757127983,458.6403131383341 156.4785515556349,457.60571603154546 156.5720447387095,456.56347394576204 157.14289321348141,455.0457702786233 157.7936983489751,454.45345975279406 157.1390356552205,453.59434647494874 156.4143056774673,452.4993610481039 155.05630491939002,450.90380484291757 153.01067687934486,448.50152801386 152.29366201791413,447.60734602522695 151.69553008600468,446.29612692742563 153.0691013516815,444.86413118951185 154.144518437811,443.9698790634513 156.2350344276406,444.0283736731157 157.42737059572133,444.0283736731157 161.96491108958784,445.8188417730561 161.97851774941796,445.81687792528663 162.7422441338467,445.7583833156222 163.237133780913,445.12125497733626 163.4105134874314,444.89919990034946 163.1591409679607,441.10595772510106 162.8182029615523,440.11035702473873 162.38370163439268,438.83820447079114 160.94988232336505,437.1081246908572 160.51923855446634,436.88010793308484 158.22420184311858,435.66055844539375 158.14235147210468,435.61770448075634 154.740756659229,431.91991933635194 152.15731487010248,428.6448524322912 151.99361412807468,428.3331617304409 151.82023442175563,428.00393667322163 151.49297321225595,427.17393042537856 150.74481733542677,424.2456930713834 150.74481733542677,422.0870035077476 150.74481733542677,421.8590568873529 150.8538810261009,421.4401962052203 151.10328969760283,420.4875196069228 152.0579301437196,419.0574877168283 153.1743074840947,418.2274814689852 154.3880355658053,417.32740793694416 153.60880881125433,415.9577643669059 153.45099961253482,415.679178528074 153.24640875353938,415.32070616599754 152.4924314708792,413.9939165605967 152.1592787178719,413.41142527376405 151.84751787869382,412.8619687125722 151.4013737394735,412.0768504145634 150.32792050111343,410.4656535643501 150.32792050111343,409.6902142305329 149.79017688950938,408.73557378441615 147.9393204692138,406.4697843779255 146.33401516255796,406.7990094351946 143.337534097379,407.40885431644267 141.19055748318155,408.1394057003758 140.05664578723812,407.84139179578307 138.38898831270677,407.6581928504175 136.83228823894237,407.48481314409844 136.01406507791523,407.01917080173973 134.5177533244562,406.37818490524273 132.97669389576865,405.85180355574033 132.94941043883045,405.8424051412586 131.4667754824795,404.9851855738051 130.3912882588727,404.50790041943554 129.49507228509256,403.9117323353952 127.58579139285906,402.5401249175875 123.94257316248054,400.33275998328395 119.31743102884774,396.73814698614575 118.96281622513193,396.4634888429523 116.95611445408565,394.90489505899546 113.61483782403805,392.81634291703494 110.1508207060089,390.49009505306066 108.72464637422514,389.19837415844756 105.83351171621466,386.57804008551904 105.16524236262994,385.9896572552785 104.92951048863476,385.28239149531726 104.90026318352847,385.17718536285423 104.63921170036453,384.2205810689182 104.47747480590682,383.6303045282858 104.7346687310092,382.8490437884881 105.40104437430176,381.4365462538124 107.46217278446917,379.31488924883354 110.54050422086137,376.2930885743363 114.53833725495569,372.0926986663438 115.51436961470233,370.6489899790415 116.01704451556844,369.71384773616285 116.23327818662456,369.3085937138604 116.50611275680377,368.8020612546835 116.74766603702864,367.9759827024291 116.74766603702864,366.30832522779815 115.50083309234951,364.72630554496465 114.3501585526893,363.639175509347 112.95631757202253,362.32213500556514 111.35676353391973,360.4069625699237 110.57943048986023,359.2127326914013 108.31167723545066,355.4544890895631 106.50956632339981,353.04842483977177 106.14716626588422,352.3236948618192 105.32494527164158,350.68318056937113 105.19252581976747,349.8883131697433 105.2801975968117,348.83428799714403 105.54321292794442,348.22261954293157 107.03363313809514,346.4067616963452 108.6428661404892,344.1546490870623 109.95794279635211,342.51609864238367 112.0699208372889,339.7066740806817 111.84975947069393,336.9304946568031 111.31201585889052,335.31922766916233 110.53657652512315,334.24570429332493 108.05448331034829,329.9887836235371 107.2654373167508,329.2855156966419 106.19002023042195,329.22702108697746 106.16077292571434,329.23284249295796 103.63975344174126,329.7179830385548 102.78639143229952,329.88168378068224 99.7821952507981,330.5537405549509 98.0093316436542,330.94924547563437 97.7111774641069,331.01552533909853 95.92653077014708,331.2045456904446 94.67584026740637,331.3389289903373 93.21845478274689,331.49288063089557 92.09829002158816,331.61169342318874 87.80033896017709,331.43438602123115 85.78781578310046,331.4869890874876 85.02212555110164,331.50648729067586 83.45771036101475,331.54737740749397 82.99017430836389,331.5590903569323 80.9327631815028,331.61169342318874 79.75789123151313,331.6487259817958 78.80717848093525,331.6779031492255 77.99863428419935,331.70132904805223 76.96607116260756,331.7344339110706 74.52879576013987,331.80962122707416 73.11826207323361,331.8532467033139 71.20119592720033,331.91174131297834 70.1744542116389,331.9760573286731 66.71233080410124,332.19032715181027 61.58851160261849,332.50987324483793 57.05097110875197,332.74756896685176 56.80549013298824,332.7689608804318 56.17039577984934,332.82156394668823 55.609296406646614,332.8702393173062 55.27410966859192,332.8975929117715 53.52852951838621,333.0455828714445 52.677131357112586,333.1468613083188 45.945832588772674,333.9417988453243 45.79973633939181,333.8638761698492 45.42569346981554,333.6612491587229 45.0496166147932,333.4586922849742 44.393130348024414,333.1060413288783 42.848143223997326,332.9638026378082 41.825329203974746,332.8683456069144 33.46137153436416,333.2716357814474 28.356910261463923,333.51711675721117 23.386972562962463,333.6242867374935 22.459545436505945,333.6728919706839 21.021798430138794,333.7449932401785 16.080967761589708,333.9993115310541 11.597994181998244,334.2302039231529 8.640579660573412,334.1191062472819 1.9073871817420192,334.7114167731111 1.4183189407060337,330.81878987138015 1.1689804066813876,328.82373091244443 0.8474704657347605,325.7085071923001 0.6740907596150588,324.03488803683365 0.5630632209721566,321.27028128753847 0.3760067175450457,317.7030920222432 0.3506871081769501,317.23352198429575 0.231804178655667,314.9833030854047 0,312.3005467071733 0.7150510136613093,310.15349995554834 2.3866361839308508,310.03475730068266 2.3301054220857096,308.9670553308756 2.267823391687517,307.76882761933706 3.3432404780163743,307.4688498669251 3.282852157910321,306.4557849485714 3.2031760468983905,305.19134751099614 2.8113182720439718,298.9841856947292 2.8113182720439718,298.96075979590245 2.5094468093896807,294.1680593620806 2.421704894868151,292.7925943860618 2.326177726546848,291.2671054650734 1.9775246034172778,284.31571546761586 1.5703067333951866,276.156418794478 1.4339595855835312,273.436559720212 1.0374727410153601,268.45939786743014 0.777333044059502,265.2052319150071 0.39354107291402474,259.30976080054063 0.358542499454016,258.76037437672636 0.231804178655667,256.02305108446905Z"/></svg>