<svg xmlns="http://www.w3.org/2000/svg" width="500" height="500" viewBox="0 0 500 500"><path d="M238.1342044473658,303.2079814968116 236.93762088180912,305.4094411873231 234.60580590605446,309.6759422464871 231.03301727597335,315.9836656022207 226.81855728031002,323.58245484270793 223.84117327262112,330.28709055380153 222.2532351353375,334.3732162763587 221.52141219082975,336.173721587185 221.41711352694563,336.43233896652214 221.100319868531,337.20833546266044 219.98558729616155,341.035699447856 218.31745828271522,348.0231325054306 217.93649748772185,349.57498113968273 216.46483972942724,355.56923107135856 216.2924040835489,356.271532802126 216.09196298318676,357.1256991620336 216.01372094030268,357.46248640514 215.76311543080882,358.0780289704023 215.5766048786251,358.53318978380076 214.42578280301902,360.55622297083016 212.9801816659296,362.6292762092233 212.4735572210769,363.35712930816163 210.29151368331324,366.4908530433379 203.3061738169391,377.4801789231869 202.12525309564887,379.2966357943286 200.80603739864344,381.32768085104743 200.7498821317541,381.45204527884067 200.4029898276553,382.23793029883217 199.13184534858115,384.736190062964 197.94089174566972,387.432869915321 197.46371633533997,388.9786555130598 196.90837106139477,390.3681735622721 196.1544613410974,392.07434091192596 194.60867574346125,394.81108011273 193.5760107010593,396.43712876538723 191.6452944630142,398.5604185921294 190.93555829450125,399.34240594576886 187.97015600191727,401.6160446424973 187.08993302080452,402.2916401409496 184.11262119217912,403.9176887936581 183.44496538445526,404.16634547018106 180.69812112260752,405.18688443945365 177.58641198441381,406.7326700371924 176.15683458670318,407.2700427386854 175.8180263315624,407.47459804238486 175.17440613290677,407.8595286826912 172.85868707538927,409.24695354075436 168.7284599801625,412.1821850087445 168.34150832761665,412.4789850824161 165.3220439593438,414.79672515196796 165.52854809611674,413.68791125803625 165.53858097814822,413.4995240516887 165.56456542028988,413.0303605110997 165.39018094133806,412.61323803401126 164.45589588433128,411.7130214681555 163.93454692221712,410.9972944421926 163.7982007795754,410.8128049022484 163.34917518165125,410.22533997043075 163.03028833203618,408.6855452301932 162.7876946920266,405.4655675825973 162.82176318292116,404.8419409686334 163.23289480266223,403.9638111786185 165.07338728271827,400.04810008985413 166.25228699187159,395.44271859638326 166.28635548276614,394.5083613605181 166.18212899774036,394.0572425714961 166.00976553072036,393.88480692556647 163.54961628201337,391.21822571884235 163.20272397791453,390.6287397748365 163.0283394987576,390.2478511588553 163.0283394987576,389.4177925870794 162.96013033790496,388.9325331280481 162.78574585895316,388.4473458480802 161.73510824389382,387.9540745194107 156.34976040897175,387.0378342141248 156.3156919180772,387.0324207886701 156.29966817869837,387.02982234443544 155.4816635008858,386.7631930953577 154.2886888858374,386.1877098785937 153.5609079658087,385.70252259857455 153.07564850672603,385.14912615770277 151.8967487977779,382.10165633504874 151.8626803066782,381.44396123013905 152.13927025872394,380.99284244111703 152.8931799790213,380.62797756451465 155.60386255836377,379.31273171271965 156.3156919180772,378.8421245919888 160.21335825532586,376.2651175320412 163.1586226049885,373.46016917033324 163.7862190644705,372.62411974100485 164.36365111441046,371.2046474041841 164.37166298409986,370.69131031175937 164.33752231414178,369.89532023087804 163.28897789048804,366.6612676770793 162.6313549643854,365.89941826615603 161.68696484689903,365.105449197463 160.8750232057024,364.88090030902043 160.20527420657297,364.75660806029066 159.0624640006563,364.61824090530683 158.30061458973302,364.7224673903326 156.3156919180772,365.604855741658 155.78835209841057,365.83929315395375 155.0585501662449,365.99368404831637 154.45304048296285,366.03778542113986 153.80545043889168,365.67891140208997 153.21798550712538,365.35208486179766 152.99740646404706,365.2297414461927 149.88172748043786,363.7741074272769 149.2219391842764,363.35712930816163 148.84112274741003,363.11655668039157 148.59852910740045,362.70145521544015 148.5644606165059,362.04383228954265 148.59852910740045,361.38628154265734 148.84112274741003,360.7266376045716 149.25615203329798,359.8965790327444 149.25615203329798,359.41131957376433 148.90933190826263,358.7878373178249 148.56041859202688,358.3928737956409 146.69177629936007,356.5943173180418 146.62363931757096,356.07506154712814 146.90030144826994,355.3813491180965 146.94642383333294,355.2931463724496 147.45167687700476,354.34276539720565 147.73036002025097,353.9277361113177 148.7008067591476,353.1999551913403 150.7900280948927,351.8746042786554 151.65004095443092,351.19900878020303 153.6771883447977,349.6090496306286 153.70122395386593,349.5889116879124 154.0821125697958,348.86322395908417 153.97788608477006,348.30780650607545 152.0670912524558,345.41660423189654 151.51181815736896,343.85674372790373 151.51181815736896,343.5119446151079 151.61597246333122,343.09482213801954 151.61597246333122,342.5414978761087 151.40751949327972,342.2327160874347 151.38745372962703,342.19056354778724 150.50730292757777,340.3279842915826 150.50730292757777,339.4618362166726 150.67973857345615,338.52755115981967 151.3393103324271,337.31458295987443 152.16936890420297,336.19775719625324 152.99740646404706,335.0869944691455 153.20600379202045,334.32507287921 153.06763663703663,333.0780361883189 152.7207443329378,332.14375113146593 151.5077761330951,331.175325404655 150.36489374811492,330.79436460971283 149.29022052419253,330.5156814666205 145.43066470231744,330.4455234725406 143.86683435296038,330.5517709697033 141.3746376252906,330.72218560349603 140.44028038942548,330.617886939458 139.81672595462766,330.5136604544323 138.81430391583174,329.92619552261465 132.79529658501687,326.5036835834562 129.79589798039672,324.7954952216655 124.40058944271179,321.9584272021877 123.80107061677704,321.64365455596123 123.38394813968866,321.33292393406 121.82213880267366,318.4417938389446 120.19212030460092,314.5280315833049 120.08984265264861,313.2809948923625 120.26227829852698,311.5185279178975 120.01961247965905,310.2714912270063 119.5184014602611,309.2789577121149 116.5049279495407,306.19734721950283 114.8768582845414,303.94579529866667 114.41938774295713,303.2079814968116 112.45084970579246,300.0341262342274 111.82736744964787,299.2381361533461 109.09055607003675,298.0030811774573 107.84351937909433,297.43957967569565 105.55573359699707,297.1027924325893 103.13376704252202,296.9504225504149 100.55740959368435,296.7760380713092 99.8516432705869,296.68776314665 98.97950433802191,296.42712475512474 97.73037445587906,296.05619684200894 96.77400262328779,295.77152284141545 96.16647192766362,295.5024395061274 95.24821061024079,295.09578298493864 95.06978410680995,294.59861398991717 94.94541967906801,293.7124001512519 94.52042969041722,292.81824662185824 93.72840945474627,292.35298074762125 92.78214268283969,292.1244620138144 92.1906357267995,291.98010400132944 91.26032051520824,291.7475432431975 88.69796579340728,291.56103269106507 87.56518846952211,291.73548934918296 87.48499759356457,291.7475432431975 80.33523395079631,294.1715308099634 78.28614414256174,294.9634788664682 77.35380791903869,295.42867256174435 76.74837041461497,295.5229383439047 74.69928060617526,294.86928526332014 73.90726037070945,294.40416374710753 73.03894692563811,294.2214786822636 73.02111871110773,294.2176531949238 72.41560902782567,294.4983573502557 70.13590729448131,295.7313913139049 69.56049625667828,296.40503797923253 68.73447970917627,297.3153596059782 67.47134709999669,297.7203560100398 66.22221721764869,297.78849299193143 65.34408742773637,297.38349658786984 64.77062522321192,296.7078289104053 64.44986171938174,296.0681785570626 64.17919044603008,295.25825792800293 63.96864428477813,294.14749520089515 63.92656392419417,291.04986096885295 63.587755668848246,290.6788608767763 63.16666334654948,290.49242250360476 62.60128519057279,290.4583540126589 60.382574717474746,289.98753035494275 56.82386099369901,289.6978760028652 53.417733688929175,289.33532085449997 52.684034090411494,284.7798872333293 52.948137074318105,281.3391861846307 50.16036731608187,276.2509271393778 50.60051489617,272.0833834978093 51.09934400831864,269.92681914920433 52.302568042383875,269.224228702388 52.55230740414139,267.7820921576286 52.742787801535506,266.0502290817794 52.00295298733836,264.65435928000477 53.329891838394595,260.9134657443168 53.15182622987099,258.95618763198104 52.919265471687766,256.4309329194852 55.530918454678975,253.15985253544488 56.73428684687122,252.67524268752348 57.76146628475493,252.09376861320706 59.72755023581191,250.08257278320684 54.97333563140632,246.64187173450821 50.527253204769885,248.88721626075528 49.44067044480606,249.4366428563141 48.78492417312362,250.06813698194296 48.09128392305297,250.99238915691825 47.43568200929239,252.0691555720924 46.74196958036338,253.3763173751858 46.11040327567102,253.99590196477322 45.1178697607796,254.83599341847804 43.028504066907495,255.77713548092746 42.090176985831974,256.328077835589 41.08992031730002,257.22591249424676 39.893769825714074,255.44828792844694 37.17536409252593,256.6154224594294 36.01732411631357,257.19566949064074 35.240028398109224,257.5850030503333 33.69655252845372,258.39405753134895 31.535585260616365,258.8014358426086 30.95721488346628,258.86516990511404 29.251119712773377,259.2391293364352 27.215310841761074,259.43523969642325 25.625784766106083,257.5943863211523 22.02058776236013,259.83244076778084 21.63565712195122,259.946627955672 21.058225072011247,260.29352025966824 20.903834177648623,260.3316307749906 20.635183916433895,260.02284898626533 19.672749047226656,258.48507525821594 18.596126990025674,257.1757480849099 16.63329109415947,254.98237244315126 16.274344896097354,254.40891023852424 14.363622242641457,251.36533808217095 12.88402479372096,249.6832063416366 12.069917782260376,248.65061347829817 10.999286582817001,247.33341879332713 10.834934985486392,246.87024611023926 10.61435594240809,246.25672455716523 10.441920296324573,245.5308924703638 10.546218960413832,243.7966474873166 10.585051265807015,243.05876150644931 10.812776030428113,238.7460658833127 10.96319707958036,233.55119844583604 10.96319707958036,232.99780200496426 10.87297332179647,232.420369954973 9.17676667500805,230.0164481520137 8.094081581396246,227.63656195807133 6.608348916796278,224.37645278301622 6.369797301060588,223.84918514236182 6.203352512734679,223.48424808679852 6.111179921672209,223.08127269492516 5.98681549393026,222.5298250872294 5.896591736146371,222.3674945021896 5.629962487068588,221.89031909185985 5.028494828060404,221.3529463903669 4.681602523961573,220.8878248741543 4.430997014467742,220.60112986132125 4.234525759316012,220.29227589363506 4.182340337842204,220.08382292358357 4.240516616868476,219.8511899864394 4.380832605130874,219.6366739798745 4.623498423998805,219.5464502220906 5.108685704017947,219.42814883086206 5.367303083406327,219.3098474396335 5.553741456526567,219.22366570617478 5.652049263063363,219.0632839542597 5.621878438520826,218.82271132643837 5.46755972301656,218.5840153528321 4.080134865158533,217.3249247678751 3.6451119944762587,216.97608363070285 3.496711957460953,216.6833255813564 3.775395100707167,216.3705739472669 4.601411648209174,215.76311543070625 4.7297459213666455,215.396157363006 4.46910752963618,214.9189819526763 3.384329244823931,214.00671149275462 1.6481354286519954,212.57316424973104 0.6937124289290132,211.79327008724073 0.04215253964746428,211.44435677105625 0,211.05538410642475 0.47717541032973926,210.6243310811067 1.5494667270028264,209.74598475410644 2.648536455105812,208.84591254622381 5.515630941152984,206.76679627131728 7.731165537918607,205.20686358836352 10.000762210167972,203.7954031212321 10.255409744345974,203.5507884690856 11.129641867906267,202.71271802756903 12.304499552580543,201.23903925703493 14.259323578757343,198.63662518688952 15.394194094048101,196.91833176420892 17.473310368903345,193.78460802908396 18.299399095468857,192.52544526511474 19.03721289711877,191.0958678674041 19.38612621335454,189.8808786552706 20.3444468792244,186.68695762893114 20.779469749906674,185.21327885844832 20.88181958071735,184.54771624182234 20.99809995970639,183.78175262756167 20.95594742026407,183.17429411100102 20.784161385341797,182.90961369509927 19.913393853957647,181.56823904303556 18.944968127197942,180.49161698588586 18.742506014698893,180.26706809744334 18.22317806472169,178.83554186660797 17.87635793968636,177.77487136982487 17.922480324749348,176.47362824522043 18.052763430980256,175.77998799520105 18.768490457045687,174.60700696474186 19.74702124469524,173.13534920639597 20.39858113397679,172.44163677736438 21.96248366239736,170.96600917370554 23.32789392352926,169.5143450001027 23.796985285106093,168.98108650194715 24.222119631883885,168.4978480551553 24.396504110835693,168.3013768001574 24.727372675555717,167.29491273703636 24.440605483556595,166.567059638098 24.22406846495732,166.00160930316036 24.22406846495732,165.13553340721134 24.398452944114275,164.87489501568604 24.96390327894932,164.57210408446196 25.050157191317687,164.31146569293665 24.789518799997513,163.18273039327406 23.143404383482455,160.90100764784404 22.664207960810632,160.23537285225714 21.379060754904923,158.39682920517194 20.695309028533607,157.42039160867157 19.325928922191327,155.4615977371818 18.882822002756146,154.65752360759885 18.23523195889012,153.48461475615187 17.627701263060825,152.57241647519115 16.631197902959027,151.31520254444922 16.492975106102218,151.03854041349382 15.981586846750915,150.01201058666877 15.71495759767313,149.27217577267677 15.829289143588735,148.48224872830883 15.875339349588218,148.15744320020477 15.999703777330167,147.4035334799587 16.113963144182268,146.7178329206678 16.374601535707587,144.33195586922426 16.50690565428058,141.74953538377062 16.50690565428058,140.9695690422681 16.49088191469663,140.72098454475733 16.454864590728633,140.18967487977778 16.420796099834078,139.66832591771492 16.11800516866129,138.28097323866396 16.09591839266652,138.20879423239583 15.512495485174082,136.32809804566318 14.991146523059939,134.24493974643147 14.495998540277954,132.94571763401527 14.06292450287426,131.80687727346285 13.397217528223837,130.05458753884858 13.194683236661286,129.52320569490809 12.821806490420807,128.54272607408254 12.458890446943167,127.29366837100318 12.282484955649272,126.69220071194371 12.158192706970826,126.26114768662568 11.901451981797525,125.38294571764986 11.713064775603849,124.73535567362997 11.57866746583041,124.27016197835387 11.42434875053129,123.74686418311501 11.306047359200162,123.33789793374045 11.243901234963513,123.12136091498732 11.141046150913455,122.76046588374919 10.612262751207647,120.90784733046121 10.465955905392784,120.45275869607497 10.307522986756279,119.95140331870385 9.954712004168488,118.85074565248595 9.65596309747473,117.91646059563303 9.565739339690843,117.63171441597599 9.477536594043896,117.35700111824787 9.268939265865376,116.71540193172916 9.088563929361102,116.15406580012892 8.5692359793839,114.55205275653992 7.961777462823252,112.16617570509636 9.377279954228516,112.71957214596813 9.471473557427927,112.7556616491022 10.96319707958036,113.33908455659463 15.301949323922127,115.2057058370732 17.036194307020626,115.59864834706894 18.03673969160145,116.03374339671214 20.336435009534995,117.03219559014381 22.1589549171388,117.85633548343074 23.50429941461801,118.20315560841478 24.432665792930695,118.43174652123378 24.823587290686923,118.9088497525 26.961890350842054,122.76046588374919 27.85914757740209,124.37648165458008 28.59494036712021,125.72182615200799 30.114669343551228,125.33278130831299 33.19830084840282,124.1198131083677 36.01732411631357,123.30520084387288 36.85135253350498,123.06318463596105 37.53907410508668,122.86469236877495 37.82237670449936,122.76046588374919 40.01322608103553,121.95444292099023 42.14445559850623,121.49935428665526 43.66021472972687,121.17656977068815 48.115319532121184,120.13589285864809 51.632025074376465,119.09730913780848 52.80500610504081,118.35956751496563 53.37031208174884,117.92649347751065 54.0220163291574,116.84380838379627 54.23855334796182,115.76704196867342 54.33072593881914,115.3139743464754 54.85200272207493,113.79619420311782 55.633990075714394,112.5812049909843 56.54828154772171,111.3681646120268 57.546733741307236,110.06692148747365 58.677490053055465,108.41885823783386 60.155138668902524,105.86054554051194 61.07946302273618,103.57882279508193 61.81929783672818,102.45001531640713 62.34057461998397,101.97493309727784 62.94817749446648,101.84457781203471 65.16161890003166,101.758396078576 65.6828956830823,101.758396078576 66.59516614315781,101.760344911752 68.1570476592363,101.58790926582235 69.06931811910667,101.24108914078701 70.19610458564452,100.5473045327945 71.10837504551489,99.24808242037828 71.635642686118,98.57248692192594 71.71785457421248,98.46818825788797 72.93291596546078,97.42967671600928 74.62710159990712,96.17246278526737 77.71073310496385,94.17960042283178 78.70918529813909,93.91888985224296 80.01244943503434,93.96306340407865 82.7030662507241,94.40205612007388 83.22434303397989,94.4862890203566 84.17876603349774,94.35600591407439 84.83039810184279,94.22767164096821 86.26394534496895,93.40360392669349 87.04383950740797,92.44932528509752 87.328585687065,91.95605395642805 87.42083045698583,91.79365119237602 87.38069892947532,91.34051139116578 86.69904039450958,90.23776053374742 85.75465027681808,88.65985527823884 85.66045667382382,88.50149453851198 83.98229477855115,86.34615723301215 82.33221051662058,84.34918066723917 81.50814280239715,83.26649557357608 81.31167154745056,82.89354664832338 81.19734000153495,82.65896487800322 81.18730711970862,82.33018950453491 81.29961765328213,82.10556843713145 81.41597021133468,82.01137483398333 81.49414007515529,81.94922870959282 81.73067067875404,81.90512733676934 81.99130907027936,81.95521956709399 82.29005797717825,82.05352737363079 83.15829924318608,83.05197956701117 83.21041248580154,83.10604164270006 84.05851580909317,83.9942764935535 84.89456523842152,84.87247846252932 87.14813817149722,86.73909974305917 88.45739316573979,88.27889448324545 90.84933325359417,90.07737878188362 93.02271531071233,91.40669953988144 96.16647192766362,92.82443958056288 96.97047387823436,93.18706690794036 100.65968724543153,94.75096943625836 103.64306211067289,96.54339069833185 104.12023752100262,96.82611586580066 104.1322192359024,96.83412773549006 108.44498703810252,99.10776643221845 111.02134448714534,100.55935842680907 112.52707073612935,101.45560514735192 114.19317873743873,101.74634218451014 115.60471138363361,101.61793573239173 116.00169591800581,101.64204352052344 116.48493436474638,101.67012115391682 118.32946886928146,101.78041067545598 119.80307546085463,102.03707922166835 120.76356149698843,102.35784272544724 121.75789948703142,103.2560382791661 123.60452718276694,105.08252803218542 125.05409816506678,105.88256013739192 125.50326812111793,106.8569767217041 130.9346661620395,111.25787509048766 131.3838361178855,111.89146240731696 131.87104440983643,112.57521413348313 132.09566547739374,112.89193561288556 132.9517806703748,113.66988094219987 134.11667765228623,114.67439617209364 134.57378729896328,115.07138070646583 135.31354993389178,115.71095888079631 136.11957289659944,116.4046713098279 137.24441053006387,117.37511804877583 138.5055221271065,118.56000861532773 138.82628563073155,118.8607785343123 139.76259169987526,119.68881609400253 140.23781827692642,120.10983623739165 141.26839012812792,120.59913772074817 141.6212011107157,120.69131031170808 141.88183950224104,120.75742628146283 142.48330716124923,120.81163271512486 143.1168944780785,120.60101437491197 144.27580060223235,119.64471472117906 147.24517274023182,117.34704041538245 149.14788352379318,115.77310500518682 150.83405728875525,114.30945911653035 152.91728776715303,113.43529917187969 153.29817638287778,113.11049364377564 154.3849035009686,112.18624146885163 154.7738761656514,111.8794085133024 155.29919497318107,111.46243039418715 156.3156919180772,110.65698486352592 156.5061723154713,110.50605856144202 158.02590129210748,108.49904911379141 159.18682842860338,106.67053834858385 159.99877006980003,105.7883665342438 160.67046790179776,105.39535184523584 161.67693196486755,104.9422120440256 163.09048562340453,104.12824939064073 164.06887205292708,103.31616339136838 165.26588869245447,102.06710568828902 165.53648778674264,101.63403165078276 165.48242571125888,101.3614115442038 165.15762018315485,101.1468955376389 163.63579801552336,100.71180048799569 161.89751100794584,100.60151096645653 160.15922400057346,100.43708719026756 159.46948141685485,100.29872003528375 158.94221377625172,100.02205790432834 158.80189778819448,99.67718661246901 158.79381373944156,99.2321308599604 158.9100941184306,98.70074901601991 159.16069962833473,98.40604213349746 159.6759855538329,98.2336064875678 160.10711075816317,98.21159189068781 161.47649086450545,98.22364578470238 163.58368477290793,98.32383024540297 166.0819445369885,98.37998551224102 167.11446522146858,98.16344849353918 168.94701801089872,97.62809680418316 170.2662337081093,97.24114515173989 172.60209070813784,96.26672856742772 175.02405726281802,95.17603160402393 176.5699150395177,94.47827715066718 178.92576562434058,93.52594734224722 179.30672641933396,93.14498654730512 179.50319767428056,92.68383487640547 179.50723969855443,92.53745585173225 179.5252122712118,92.0061461867527 179.25454099786015,90.05132216062718 179.14634466741887,88.7480580238345 179.1142250098029,88.56364066290249 178.92980764861446,87.49900032080643 178.58890620227322,86.36615081775518 178.4726258232842,85.71451874935885 178.53679295986294,85.16314332067532 178.8214669602513,84.72010858035492 179.28261863120224,84.38729118256147 180.01249274243142,84.22885826382239 181.72667196167208,84.05440160575579 184.20277277110466,84.02841716351156 185.15322592520698,84.14671855474012 187.19018966041475,83.37880610730345 188.34714695149515,82.8474964423239 189.07687670459728,82.59284890829976 189.8227023763469,82.60887264767857 191.20622956785292,83.13217044296871 191.27631538312573,83.1602480763621 192.7320215808999,83.7637367476098 193.0567549301456,84.08854227571385 193.10092848193,84.59978617693814 192.89233115375148,85.17519721474117 192.9645101600196,85.69654617680403 193.13499697282455,86.04942933835275 193.46377234634414,86.25189145090309 193.87086194140102,86.26192433272944 195.7715517130306,86.2077178990674 197.999068024696,86.04740832616453 198.8150516901665,85.88493338315156 199.79343812009935,85.77673705276158 200.28266742418722,85.9932018925025 200.71574146179606,86.53656545149663 201.7764841375401,88.59973016603657 202.15333072899097,89.3355229557034 202.6145545790054,90.22974866405802 203.04957744968766,90.88138073245436 203.53678574184374,93.65023959102824 204.40495482899323,95.92784813306957 204.6756261023449,96.36294318271278 206.30362358807554,96.30888110707518 209.85649081263097,96.55342358020948 211.32410654665168,96.60755783491058 212.68150493809418,96.60957884704753 214.5300814671083,96.28477331894346 215.45433364187843,95.8516992814885 216.46483972942724,95.38073126574787 217.0844243190147,95.09179870374123 218.76258621428735,93.91289899474178 220.4006165820495,92.76005590699879 222.5599959119258,90.85936613552309 224.03959336084628,89.5621650352951 226.33928867877984,87.89396384293912 227.3819144239446,87.25243683543263 228.52277579678784,86.49253625768536 228.78738403352355,85.90305031367953 229.0139539341543,85.39981828214464 229.44904898390007,84.21283452444358 230.97087115153155,82.7491886357871 231.42191776159262,82.3140935861439 232.6008174705408,81.17532540465497 232.60688050715675,81.16529252277735 233.18128103868617,80.2355547433351 233.90610261957298,79.06011962661438 234.88651006123246,76.29118858902828 235.75670016072402,74.06771430163676 237.05989211835063,72.11281809649903 239.03283307510668,68.9289299520372 239.79468248602996,68.00662661023792 240.66487258531635,67.3570155540298 242.07640523151125,66.75951774033456 244.84721292315857,66.86980726187372 247.29335944482884,66.92596252871176 250.82399553546762,67.03625205025091 255.00648023123168,67.36509960273142 257.777287922879,67.74598821866131 259.1346863143215,67.79008959148477 260.20935953844906,67.86031976457691 260.60237422740573,67.36712061486836 261.0895103404983,67.09233513812802 261.42232773829176,67.05227578962972 261.5807606571334,67.03221002592575 262.1781862918677,67.0423150867643 263.1746896519695,67.07234155338499 264.0248139873981,67.09839817464142 266.4688673180731,67.47928679057131 267.71792502115244,68.07685678327876 268.34956350470316,68.39762028705765 269.2397471887839,69.43620400789726 269.5966001956455,69.54447251729947 270.4888048916581,69.81716480289064 272.9850436438069,70.30632192822274 276.6139875407773,71.39709107058745 277.87509913782,71.77595867438039 283.0780506241008,73.10527943237823 287.0439261222021,73.3779717179694 287.23837636501173,73.39406763636043 290.95552300762915,73.70681927044991 292.735962554649,73.71887316446448 293.9951253186182,73.39998631490067 295.57303057407546,73.00300178052848 295.91790186603737,72.79050678615181 296.0842744755049,72.5980775554791 296.152411457294,72.19705099678174 296.1545046484945,71.60958606496413 296.27475487289905,71.14446454870026 296.60959328282945,70.83358956882584 297.0266435810595,70.55692743787043 300.08429064356426,69.64075931159675 304.1061770504279,68.50386778427162 306.8770569211387,67.69192614297242 307.5888141017886,67.41519183305607 307.96378403922955,67.21669956586997 308.0961603366609,66.92798354089999 308.12813563656016,66.49895152777017 307.69311276587786,65.14155313632767 307.09936826051023,62.611245893386915 306.39389065346165,59.60383541917992 305.7603033366323,56.84291625128323 305.1628055228345,54.6194419638917 304.7297314854308,53.64300436744259 304.4590602120792,51.52570539820155 304.3507917025744,49.67922206043918 304.5693497337209,47.78048112219078 304.6796392551575,44.84914732055265 305.2249516472763,44.25172168586964 305.83248234290045,44.00111617617066 306.27955910754605,43.81662663622643 307.61090087778337,43.47976721405652 309.2829997364401,43.12695623152001 310.7125771341507,43.149043007463504 314.35364710414797,42.9885890765362 316.0377998569731,42.71798998214547 317.99464489528685,42.50145296339233 319.8954068455696,41.905903982873106 321.4171568343427,40.983672820086035 323.37400187265644,40.11752474512479 325.3688852472803,39.50790085840277 326.3313201164875,39.21326615489254 327.40592116155153,38.886439614600256 328.69720358313674,38.49147609246757 330.3552275356932,37.99618375160986 331.6605848635837,37.400779129063785 333.23639692804574,36.20780451386155 334.3772583006838,35.17716048369912 335.9532147230677,34.20079506621094 336.10551242622984,34.07852382961815 336.76320753119086,33.554215528259526 337.31256194778877,33.11616113937184 338.9987357125457,32.250013064410595 340.4884382225612,31.638512523524778 341.7695434043981,31.111100524845956 344.5384744418304,30.461489468637843 349.37446786035974,30.246973462124224 351.9809961339451,30.14274697709847 353.37239083721863,30.086663889221352 356.4139419812811,29.70765192745526 358.44289384700465,29.513129505582114 360.02888315100967,29.358810790231708 360.32763205811375,29.33066097782611 361.5767619400514,29.384867411488145 363.80427825192197,29.93025198272179 365.324007228353,29.93025198272179 367.008159980973,29.986335070547618 369.0171904409657,29.769798051794485 369.88738054025214,29.880087573333633 370.6472811178968,30.26104836832702 371.6236465354876,31.39981654986723 372.43963020095805,32.43240941320567 373.0371280145507,32.921638717498695 373.9052971019054,33.140196748440054 374.66519767955003,33.19425882412894 375.86214214001393,32.86945329602488 376.89473500335237,32.707122710985075 377.7628319116435,32.86945329602488 378.4685982345358,33.30454834566809 379.7177281168838,34.44540971835745 380.91265156521075,36.129562471080014 381.7808206521551,36.83540097313839 383.0840126099868,37.97416915467859 385.9632331690608,40.20168546644657 388.5436326423775,41.68734595198303 390.5525187442432,42.338978020328085 393.3234707940175,42.83015615784841 396.58357996902134,43.102920622451805 396.9123553423358,43.13532899627051 398.67467795898153,43.309352580315085 399.8977512197141,43.431695995920094 402.94132337611865,43.37958275340722 405.1147054332368,43.271314244005005 407.50462450895424,43.16499456783009 410.0048331063134,42.78612696403715 413.20878701463306,42.24680542936819 414.89293976725304,41.70546288256229 419.02316686268495,40.07941422985378 419.9796108743397,39.752587689561494 421.22859639856074,39.26537939740541 421.6657124602383,39.19117937900033 422.00661390678465,39.19514922431328 422.3834604984407,39.337558403673555 422.720319920508,39.483865249334556 423.6266717018894,39.991139305194615 423.9032616539352,40.03329184484208 424.2701475426232,40.05732745391029 424.8015293865637,39.89095484454531 425.38899431853514,39.556044255551406 425.7739249587389,39.275412279283046 426.6079533759303,38.99672913619069 428.3463847412246,37.96615728498919 430.5458234195479,36.70699452107127 433.91015907978266,34.77829929516313 437.3125330761223,32.76125696563489 440.4904303630317,31.27155445577326 442.47333202255055,30.53171964172997 442.86432569957543,30.212904971127095 443.3154444884949,29.665571566820013 443.96303453256604,28.711220746211822 444.78710224678946,26.984915453841797 445.3324868179718,26.194916230512927 445.9921307560063,25.63560111110092 446.8582788310188,25.138359937067207 448.1915694343296,24.36236344092892 449.19002162791514,23.46012586288489 449.7874472624443,22.37549193604579 450.220521299848,20.801556525850163 450.60949396453077,18.54798359287703 451.0446611931349,16.974120361693622 451.33727488455946,16.10595127454415 451.80651060426334,15.402133784674001 452.566411181908,14.914997671530134 454.062104549476,14.373655124672945 455.3933741404447,13.667816622614572 456.42596700398826,12.418758919535216 457.061503153891,11.194530794607177 457.24202284852225,10.846916700540032 458.5572687003173,8.294522681707067 459.4714879932611,7.915655077914124 460.77475213015634,7.917603911090134 461.91756233607305,7.701066892337001 462.454935037566,7.342192873287102 463.78418361639774,4.246579653433157 464.3499948465503,2.4620980820368583 464.8167764799413,0.9904403236909759 465.1515427108082,0 468.61822820185364,0.3789397828051607 471.6176268062687,0.5593872984242236 474.346354137332,0.920282329611063 476.8085243983811,1.4134814793196104 479.1362973498619,1.9066806289768714 480.6809280835077,2.4620980820368583 481.5061506619266,2.7588259766962486 482.42441197934943,3.1137301504331973 483.4750495944088,3.5187265544435107 484.53766892416274,4.084104710368911 486.1596755525461,4.950252785330156 487.63732416839315,5.712174375265645 488.95863305680416,6.941238493601956 490.0353272928635,7.380303388558112 491.2142991808752,7.5466759979743765 495.43669886716435,10.054968643983868 497.04867261372135,11.039345931161447 498.1213970045703,11.84536889392041 499.06167291892444,12.920042117894099 499.73142191784876,13.591739949994412 499.99999999999994,14.17306966633769 499.99999999999994,15.111396747515789 499.95394979420564,16.00569463488263 499.68522735372227,17.166621771327254 498.8291121607412,19.394065904083014 497.8888362463871,22.65814492450238 497.6361375454877,24.057695855592343 497.10886990488456,25.066180930850354 497.21511740204727,26.682196701681228 496.85624338304865,28.113722932516588 496.4090944393396,29.58732952403848 495.6913464013424,31.375780940747727 494.61270333200446,34.52964261864016 493.53795792901855,36.987698676351854 493.13296152495695,38.371153689050786 492.3711121140337,41.09988102011415 492.14649104647634,42.52945841782478 492.0102170828981,43.513835705002364 491.91999332511426,44.676783853635214 491.4728443814052,46.28680876691363 490.6628515730768,48.33185655087431 489.5420559642966,50.252612086053986 489.00273442952505,51.640036944117156 489.13705956002985,52.534334831483996 489.540107131018,53.29409105125811 490.47641320016174,54.76177896423976 491.68533937573056,56.51616189000316 492.22271207701834,58.57124255584148 492.4452399533753,59.86844365606948 492.5375569023596,60.89100363753029 492.5776162508066,61.34407125972831 492.4861654499689,62.611245893386915 492.4432911203018,63.20672269489393 492.08239608916625,65.97962357784427 492.01620794024547,66.89189403776592 490.9635493132543,69.64472915696099 490.1134971566841,70.98603163001246 489.2433792364612,72.10480622680961 489.0368029206248,72.37150765489962 488.0523534542811,73.80101287359804 485.9010581731577,76.33124793752658 485.85096594288433,76.40147811056742 484.1968396566799,78.69720358323931 482.85351617154276,81.33563497750656 482.4504686005546,82.76528455422941 482.4485197674812,84.01831210262172 482.49262114020206,85.62840919491235 482.84947414706375,86.96963948900289 483.9602368742228,89.74853122940311 484.23487799299,90.41423820400225 484.5036004332682,91.30839173339594 484.50165160019475,92.24671881457404 484.1888277869905,93.23124045977606 483.0159189355948,95.04971834310598 482.07354983004024,96.88227113269 481.2234254944065,98.62452798542661 480.77432771762403,100.01000401031376 480.14882444954765,102.42597970733893 479.8340518032699,104.03405578744133 479.4751056052078,105.68810989458228 479.29263707750306,107.36627178980366 479.33673845022395,108.21639612533481 479.56135951757614,108.93212315124639 479.87411115171693,109.60179997120976 480.09663902786866,110.13910049369049 480.1868627856526,110.7646759408304 480.3653614681469,112.15217297790578 480.4975934076564,113.89645084277934 480.4515432016569,115.14760173705915 480.9427935180869,117.11440747823829 481.16532139444377,118.54391269693672 481.3437478978746,120.0217056708082 481.3417268855325,121.34893323760559 481.26355702191705,122.24914980351268 481.2515031277486,122.37748407661887 481.1140021209114,122.76046588374919 480.5778564626774,124.25413823897506 479.7719056788281,125.95431473107644 479.412959480766,127.38396430779929 479.18638958013526,129.35279106116667 478.5588652999219,131.54219685756107 478.095692616834,133.00786375840576 477.7528423370091,134.09054885206885 477.4821710636574,135.25147598851348 477.1232970446588,136.59270628255274 476.0045224480155,139.145100301437 475.994489565984,139.1691359105052 475.41308767083365,140.77706763263444 474.38251581963215,142.43126609774856 473.7088691541507,143.68436582515307 472.09884424087227,145.78354786381487 471.3369226510906,147.21507409465022 471.2466988931016,147.84064954179013 471.37301215412214,148.15542218801656 471.515421333585,148.51227519492952 472.5439721724444,148.91532276576382 473.7970719000028,149.2741967848137 477.66658842464074,150.50123989101309 479.4570608534869,151.17286554410117 480.6199368232614,151.53181174216328 481.24746110347473,151.75636063060583 482.50063301009664,151.84658438838972 484.6479584458045,151.71420809095838 486.3942573228663,151.579882960351 488.0042100572863,151.8045040277545 489.12305683299314,152.07308211000827 489.5261044037761,152.2956821652748 489.794754665196,152.74283110893256 490.01923137442117,153.2360302586411 490.01728254134775,153.77130976893363 490.01728254134775,155.02448167535036 490.59875661556157,156.36571196944092 490.68695936120855,157.26000985680776 491.0277886286914,158.7516611998454 490.77314109471854,161.85535846840096 490.54455018195085,169.14348926599916 490.4543986030253,171.73594263333044 490.4543986030253,172.67426971450854 490.43209529025034,172.81516313471482 490.2678880510467,173.82307077792638 490.23172636895174,174.0596735603835 489.7045309074121,174.96588098379175 489.40773083358664,175.4731550396518 487.7054611503874,177.53025671767836 487.122038242895,178.15583216476696 485.19536402912377,181.23946366961857 484.5676953907834,182.49061456384706 484.2726276132512,182.90961369509927 483.7176432342132,183.69751972727897 482.46252249472303,185.0829957521661 480.17885091596315,186.82532478391497 478.88164981588903,187.6293267344857 478.09771362897095,188.00624550510264 477.5824277034728,188.2549021816256 476.0165041629153,188.52145925169117 473.8230563421444,188.65585656131074 471.7639336520835,188.69800910095822 470.01770695388007,188.83233423156557 468.36148747668034,189.32149135689767 466.5290790449669,189.90296543121408 464.7827079888416,190.57264225112618 463.3952109519201,191.0638203886465 461.87151213007354,191.73147619642165 458.986300713242,192.69585989885618 457.061503153891,193.5439632222504 455.6740782958278,194.5284126884402 454.3748561834116,196.00209145892302 452.49423217563987,197.8787456212792 450.98648491410864,198.7930370933891 449.97597882676496,199.80549201401135 449.31431387638844,200.47112680959825 448.59851467166976,200.9623771261308 447.43361768975836,201.45355526359984 446.13648876854256,201.7663068976893 445.1960684962666,201.98890695290456 443.6302171347726,202.03300832572802 442.16050820955144,201.70423295231103 439.925052207055,201.30118538142543 437.68750301356323,200.7178346529452 436.1657530249953,200.18046195145226 435.04690624908335,199.6871906227828 433.4810548875893,198.65871196278172 432.31817891801995,197.7183638694154 429.76787809038746,196.10631794394877 428.8073920542536,195.46471875743006 427.3979525992592,194.85523922868117 425.7418053009178,194.45024282467088 423.5945520440683,193.91287012317792 421.6797873665437,193.13297596068762 421.17655533480365,192.92842065698812 420.41665475715894,192.79409552638074 418.5820809553867,192.97057319663557 416.5671318171102,193.1489997000664 414.64233425755407,193.28137599749778 413.0764107169966,193.3695065641325 411.20784060339327,193.3374590853749 409.9988422487609,193.47178421598224 409.5055709199889,193.69431209223657 408.5211936329139,194.49838622181952 407.89359717363703,194.91334332874652 407.7552300186532,195.16402101740644 407.52866011802246,195.57702929115743 407.0434728380033,196.46519196299866 406.2836444394221,197.80454560287413 405.43142691258794,198.60854755344485 404.35682586772907,199.45859971001508 402.6104548116038,200.79795334989055 401.66613687277066,201.4255498091674 400.72983080383204,202.04910424411906 398.9393583749859,203.0314605191597 397.9108797149848,203.25406057437493 396.9123553423358,203.51231705875352 396.701809181289,203.56688438747665 395.3584856959467,203.65501495411138 394.598585118302,203.52076200246495 393.165037875381,203.16181580440283 391.6432878866079,202.71473903975726 389.18321081675924,202.44406776630302 387.88398870434304,202.30967045668345 385.69054088357217,202.66464680938134 384.6178886717867,203.0214998162943 383.6093314175165,203.84953737593324 383.1823204165236,204.22039310998548 382.8915833793141,204.47504064406093 381.85855744200495,205.4617276594243 381.8169101553917,205.5016426498469 380.38531174554413,206.4860921160367 378.5929626624829,207.55672331568522 377.2496391773458,208.36072526625594 375.952365898003,209.07652447117974 374.5649410399398,210.23737942861214 373.62459294652217,211.04138137918287 372.59402109532067,212.11403359101962 371.38502274089353,213.36511230623591 370.9439368335953,213.7140256224204 369.68484624868955,214.70648695829962 367.40319568227176,213.3630912940477 365.0313213580701,211.75111754759328 362.92809729508315,210.67853751476875 362.0860570082023,210.55215207483857 361.7190267613873,210.49801782018875 360.4398704128289,210.7686890935917 359.27497343091744,211.7070161747698 357.21989276513045,212.79771313817358 355.74029531620994,213.53754795216557 353.54684749543907,214.51997640616716 352.3378491408067,214.83272804020535 350.63752829068096,214.51795539397892 349.1819664506235,213.74210325586506 347.77447582890767,212.72755514409366 346.83419991455355,211.78720705072735 344.41815203836234,210.53417950228373 343.76651997001727,210.1751611252607 342.32496085740684,209.38328524771674 342.136573651008,209.281007595867 340.47241448297723,208.72566232181924 339.213251719008,208.30659101155484 338.51354843252653,208.0740302534229 336.76320753119086,207.80270936896127 336.7411207551961,207.7993169556948 334.4134199827788,207.17179267537887 333.55326276552387,207.11159538416436 333.11614670364116,207.0815689175437 331.728721845578,207.39432055163317 330.6981499943765,207.84139731633002 328.9979013233142,208.4650239302939 327.0270535577586,209.09059937738252 324.9860477980718,209.6299209120515 324.83360573698775,209.66990808153759 324.57094633312033,209.78019760307674 322.5980053763643,210.6082351627157 320.2241822190892,211.59073579572947 316.9560611743959,212.79576430499756 314.89693848412986,213.5536438705566 314.40171832228435,213.80627039239252 313.0604158492842,214.49197095173471 311.8073161217258,215.16157559268586 309.87652770482237,216.19618946821254 309.5597340464077,216.36458308976572 308.9241978962998,216.7074333694368 305.9687563066839,218.00268563648882 303.37240527305187,219.43219085518723 300.82001125421885,220.9038486135331 298.49021729060115,222.60200409344625 297.3715148728162,223.4060782230292 296.20661789110994,224.3002317524229 293.96906869741304,226.22105946661478 291.10392304464443,228.41046526300917 291.0338372293716,228.4645995177103 289.69845343486037,229.5031832386012 286.24995705366285,232.40831606095844 284.7261138736893,233.8378934586178 283.2945154638417,234.91054567045452 282.17581304605676,235.5341001054062 282.05953266706774,235.59624622979672 281.45597181665397,235.92105175790078 280.92264113964006,236.20579793750653 280.37133788996874,236.41627191974626 279.75983734892907,236.65092586902736 278.32629010600806,237.05390126090074 276.67014280766665,237.58925295020546 276.6139875407773,237.61025704101698 274.8797425576788,238.2588575911566 274.79955168172125,238.29696810647891 273.1774728744796,239.06083852953913 271.09835659941916,240.11349715663283 266.1761092685215,242.347004325902 265.42025071515064,242.75402174210052 264.85624396056,243.05876150644931 261.8393780365218,244.68878000452204 259.7281421038454,245.65114269476837 258.83391639528566,246.3229127058809 258.4389528732556,246.70178030967384 257.75931535042673,247.34944253270595 257.41639289174344,247.56792838463508 256.951271375377,249.22804552823814 256.2755315189002,250.92021015065012 255.51772413245598,254.18840337445815 255.43746107743493,254.60942351789856 255.02445280368394,256.7807845627772 254.75378153033228,258.34071724573096 254.57340619362284,262.36462466488535 254.39093766591813,264.82477391374624 253.94176771007213,267.28282997145794 253.7172910006418,268.8006101147642 253.6490818397892,269.06933255499115 252.90924702579719,271.9985009864679 252.3980031245729,273.6466364150686 251.9227765473166,275.17437726124035 251.0245088146881,277.6766068707364 250.13028310633345,279.79989669747863 249.1218702099851,282.31815004635354 246.94040410431919,287.5471581537883 246.24474284211158,288.8844907814755 246.20064146918554,288.9666304906091 245.81563864991827,289.7084863167893 245.36646869407227,290.5184791248612 244.12347402760886,292.75602831845555 241.08387171661983,298.22965107808807 238.87649334767062,301.8425712356797 238.1342044473658,303.2079814968116Z"/></svg>