<svg xmlns="http://www.w3.org/2000/svg" width="500" height="500" viewBox="0 0 500 500"><path d="M26.76501759113244,406.20270885273186 24.6064643547051,404.9809784720878 22.66081799919802,403.37008624070086 19.683542509927232,400.8994216161013 19.217330196729215,400.6143511939587 16.16756537144098,398.754551759797 13.108841190790866,396.89491522291706 12.366680708556979,396.437825163173 10.158443769457655,395.0893606176334 9.117692382818744,394.4560155881823 8.99519355002864,384.32005165762223 8.982161759148678,383.2475352807713 6.258028805105313,371.0574353367164 3.547579231069224,358.6954786524576 3.547579231069224,349.60922546494 4.552167398919053,343.51425694161134 5.000135204977723,340.80397026497286 5.226399671341604,339.42813895895574 9.737679826826183,330.28340561057036 11.543071534480784,327.1929164394767 17.8599062946703,318.6904874765987 33.00024076242931,297.4778272222692 38.44378264679661,290.5183622815456 47.69733144784908,278.6721387152962 53.11350657127586,271.9752643577019 51.964265526880766,270.6176775587084 50.49362794334623,268.8802140599392 36.94154297067911,252.88450542858644 33.28905782436883,248.57228587684875 25.864520852346008,239.80759212552093 9.375721839278915,220.35015118490722 5.737734560079535,216.05161501329258 4.778268967769615,214.80724189623766 3.8598535164074894,212.86143264321726 3.036244342331293,211.1194080176632 0.2399478468341398,205.9654976822233 0,205.1555718885016 3.172100760565017,196.15549141724023 7.122199427589344,188.19160120618014 8.289684979586776,185.1915200833324 9.791924655241296,175.84772613154735 10.850920549482538,166.5806568476537 12.303150728827381,161.42218538554468 12.95946428913722,159.06473444288378 17.592917482385264,159.12793862793396 43.814835195146465,159.49005951276305 44.67460758847472,156.30004004008532 47.30360847020552,146.55763618942396 47.80598400311859,140.99664529112837 47.95975913346502,139.29078388494213 48.710878971523776,128.29521045845132 49.21781563110593,123.26787139039365 51.81358544650951,112.82452009607526 52.19948934953249,111.27243382035118 54.09561490034389,105.05969048841484 59.82862543624101,103.55272678811494 65.14087202904368,102.15474143776393 68.48482952958116,100.62969612783799 69.36724465920454,99.80624985127511 70.43503701222032,98.8153450637798 71.76085882123328,97.57993130278125 72.48477479632781,95.97799842768208 73.9418918969054,89.87407054818134 75.53910074782216,88.05955658672558 98.26344872674977,73.27661898007622 102.85617757407667,69.87385552364432 102.86057580323244,69.86929439685949 109.99645861082905,64.57969054058343 110.76566005851384,63.9035034991585 113.35849772145555,61.62489489044168 115.30870520363173,59.059261090927166 116.2725690255604,58.76506841521493 124.17765328084181,56.366893126517105 128.83374921038498,56.29456668801298 130.80203830265015,54.95066326925824 139.23197792962642,48.30347261387294 141.734407543975,46.88724275649833 146.72085936848248,44.06814062730848 156.53542676001888,39.5115749993494 156.856660401645,39.33059600569151 158.51723633477803,38.39377314967671 170.35010231581526,31.737786035632627 177.54006705523966,28.37558402784005 181.50401199978458,26.145030147356493 185.58084483124145,23.859905643315443 190.11020659588908,21.312353453426955 210.61735827989253,13.466075153692739 216.34580768912053,13.135882156126016 218.70325863189723,13.004586864561384 220.79828188859497,12.882413826450684 235.14237394229232,7.561044980194084 246.51358873680064,3.341188245241707 254.93440610997575,0.21714221302569656 259.1516564872614,0 266.41867168890934,2.135747602850388 267.07482235216884,2.3256859527961233 280.9663854731385,12.348436201417629 284.29665959366866,13.606329801429473 285.96635778060283,14.239837728162358 300.1428284264332,23.393856227399247 301.5411395710006,22.98661276714599 306.61360121448246,21.50685293004178 310.32407782969926,21.50685293004178 315.06162245108476,21.058885123751622 315.0751429340417,21.058885123751622 316.18838365716107,20.950395465995435 316.4190463526807,20.927752729584565 319.2335873553172,20.6651621464553 323.6000517362802,20.24895933002994 325.6590746712392,20.05445985341511 328.4960955126575,20.199275627936682 335.30162242482686,21.764882386501952 342.0213024164611,23.32136689149755 358.73164187170966,29.674527768568193 360.9126749473818,30.981942173391467 361.49649917213713,33.95954345722591 361.4240098361197,37.303500957994885 363.6728082236269,41.07278352852741 366.8043475353211,46.312540785428375 369.93099992578254,48.63838963550633 372.69113320202763,50.09094560953057 373.85845585604875,51.54333868615724 378.14819556935186,59.53899388708212 379.54634381686895,62.710931750133824 380.97625705448235,64.55704780417256 381.1798787845511,64.70170068118081 382.26135451757415,65.478884100768 382.9627906534239,65.9823999150011 385.65515861783393,66.43932707734761 390.59632496928816,66.48933657423602 391.73660665832136,66.91449874683349 393.3926214652483,67.53904731739426 396.41518242710936,68.67020675251057 398.4515626257732,70.48928184075118 400.41545348795665,74.14095250007358 402.21644696691845,77.48034887405771 403.23895384688103,79.3807097568588 404.7683973859627,82.21789349567469 406.66419714221047,85.74266709270397 410.06256236913936,84.82864987061336 415.6054716579247,83.34465470140373 421.6417971228722,82.76995273033377 425.77320057823385,82.17260802285294 427.3795316824888,81.94178242958849 428.69623123816353,81.75168118236091 431.5106093437497,81.46677365761593 434.35235420935044,81.1815403380758 436.1759904236814,81.81960939159353 437.6373428568274,82.72010613084294 442.4066524683092,88.10028093276247 445.91806848012635,94.18612720252143 447.56968505697154,96.3085172199282 458.1806577596199,93.04144728456394 461.9634608133409,100.23613604793924 467.23498306022236,99.46693460025446 469.1444661964774,99.0732116228424 470.4929307417855,98.24064309270985 473.0585645413,96.37188430237597 475.52026980972744,95.38537774426793 479.07664549957116,95.1726337606295 479.4884500863778,96.74736277276443 479.9137751561413,98.29488792158793 481.0359752350855,101.49859077462018 482.5743781309181,104.97824179634105 485.7736827544473,112.7476325307863 485.7821534181952,112.82452009607526 486.2079671804987,116.74301667051662 482.64686746647254,119.79734262224245 482.6921529395258,123.19554495188952 482.70567342248273,124.54857062421394 482.72375503164574,125.87439243334263 476.8640103313161,127.00115363918742 476.8640103313161,129.36316570851744 474.96348655088593,128.17303742034062 472.8414223282743,126.84705271381435 469.836780078526,124.1594087735867 463.678281575352,118.64793868010254 462.27573509867915,117.39460620687554 458.32531063709115,115.26341973069424 456.2936544621467,114.16826061743242 454.7598126939092,114.10961755916706 453.01762517095756,114.313076391954 452.01759812977684,115.14124669269928 451.22575394579695,115.99645795912696 450.9905301231452,116.77022053359659 451.16694798978676,117.7611253210919 451.7732520537869,118.85628443435371 452.0492002223598,119.29952821646147 454.6060375630998,121.7069886560108 464.5427779928627,126.86529722083796 463.23959892014483,129.6707159696733 462.27573509867915,131.7386982608044 455.7189524911925,136.35863097121126 454.75069044010803,137.03726147325256 454.5470687100393,139.24093728533555 454.0629376847286,142.5666502790809 452.28018871336906,143.91527772201806 451.5380282311352,144.19562411997822 442.8683036548381,147.45829582607095 442.67803951021295,147.53078516197266 439.97231396035926,148.04651828009784 437.61030189091355,148.49448608627227 433.2708784758644,157.7841981065768 432.0128219786865,161.01494192529142 432.06266857794583,162.89282296919498 438.92260321743254,172.21869820863583 460.0538147795725,193.67586743658435 465.1626025393568,193.37727653148485 465.8457941685302,193.33638928805036 469.27120036137296,196.15988964662748 470.48836961511637,197.48587435315378 472.6105967352413,199.06956272134508 476.05408453771014,201.63063539407474 478.1127816776425,203.46323096515655 479.9771422388206,206.39098564950015 480.30733523627157,207.4089314027936 480.031549965212,209.12847618921865 479.82336710801115,210.4316552620522 478.24407696920713,212.68517767362604 480.112835759541,221.27785178723659 483.59264967877516,235.63546432412238 485.4342046056818,244.30975002720433 485.2532256123712,246.03825416980146 485.04960388183946,247.96581891591399 484.07857257580645,248.57228587684875 482.687754709907,249.44101762623336 480.5202421171918,250.7849210449881 480.1670805888821,253.02019894953833 480.46143616164466,255.3688534334247 481.16727052665016,256.72171620835155 482.8731319332994,257.30993866237844 487.4660236776766,258.34612892257974 496.6514813718674,257.7579064686686 498.941167003272,257.7579064686686 499.94103114647646,258.05209914426507 499.99999999999994,258.9343513766066 497.828089177666,260.1697651376052 497.1808978702314,261.34604714814566 497.592702457501,262.52265495348126 499.5292265596699,264.87554476935736 499.00453408548833,267.228597482631 493.6470020200954,273.51822837985634 491.104010956876,274.15173630670495 487.86870601114504,274.9616621004266 483.0405904441161,275.72646531872414 480.112835759541,276.7807371885515 478.8052584576674,277.2557459606398 477.3890286000613,278.78518949983726 476.42956300775137,280.1970211278246 475.50642353220684,281.5453227759666 473.1489725894302,289.5771411962593 471.465753919539,296.4053108454182 469.7328515474389,303.4550209368744 470.20329919274235,303.8668255239125 476.45220574404647,302.4867588857899 485.91833563145553,300.3962967557613 488.33019430062365,304.27863011083485 468.4023057142435,321.13850936478735 458.6195033123404,329.4236332173578 448.04925495607614,338.56396833635597 443.0492826486117,342.8038614495895 430.6871630671868,353.28353886055754 429.44278995001616,354.3514941107394 411.60096526450894,369.6185627429309 409.180147239516,368.6230968287665 405.69593509112605,367.1887853617659 401.14832881933904,365.3154654446472 400.92678837715755,362.4284351063405 398.25706314904266,364.42865208563654 393.52847788301904,362.7136684258806 393.36101937266534,362.650138446151 393.24796858777705,362.75879100130476 388.72740328190395,366.98500073429955 387.94012022459316,367.9760684191925 386.56445181585786,369.69561320561746 385.60091378895584,370.9036602061385 383.1256880375715,374.01239388425574 382.26135451757415,375.09517279622787 381.4786325869324,376.0758150484863 379.89950534564167,380.2929025280271 379.501221241329,382.5327415593622 379.8387446213236,384.32005165762223 379.89950534564167,384.64128529901683 381.08490960975183,386.8767261009646 381.05330751716883,388.74548489141426 380.5282892479607,390.9851610253517 377.08480144549185,393.451427420564 374.4605245879435,395.33370669373903 368.6232597263956,399.4786306320576 359.31546609646506,392.5328490715728 358.73164187170966,392.0984017482396 355.1162973292684,392.72734854818765 349.16142055616314,393.75897768171984 344.2792230577694,394.6052295920912 339.7451372684764,395.39251264940197 335.5866928472009,398.71855143782676 334.4690538949258,399.60992592362226 330.3830988101307,403.82261517377583 326.42371499179194,406.8542983892065 324.70873133226746,408.30669146571745 322.8399725414706,410.6414996719675 321.01633632713964,412.9131036931674 318.51423250689174,418.4470536257806 315.60928345658806,421.211748028579 313.23814913380414,422.7955992941679 311.92584780728515,427.82277546471227 311.12504426701736,430.87710141655384 310.7855661187149,432.18484161605653 310.07077239742154,434.91777102899016 307.43721038855864,438.73690019912925 305.1068004116959,440.39307790322226 304.14749771689924,440.89985166517533 297.59087800692595,444.34773769691566 295.2153454549862,445.0038883600594 292.79892565914906,444.3795026868962 292.27863141412325,444.2438091659443 288.09314602739687,443.1623334329213 285.8533069957146,441.709777458897 283.21534675769595,441.44734977316534 280.047807124263,442.3704892488256 272.26945703387713,447.28445173743137 270.8125028303499,448.19846895963775 268.5770620282863,449.6103005876251 264.0566596194636,451.9814349105248 258.02945640785424,455.1442505201225 252.97067814484262,455.9406558308873 252.00225319624488,455.8953703581813 249.21947718416763,455.7596768372294 248.2148890163178,455.70983023762284 246.51358873680064,455.62838154566475 243.9658736498618,455.50620850755405 235.4725669402063,455.09440392051596 234.13338754528672,455.0310368381839 232.59482175240385,454.954149272895 231.02481676491428,454.8772617074903 229.3233535878838,454.7958130155322 228.61295809620918,454.7594868988826 225.67168292867714,454.6193951485434 214.34591650473538,455.515330761008 211.18293799797152,455.7686361932858 207.34572721785915,456.0717882251701 206.47683257119272,456.4112663735883 204.91594983657836,457.02669269069514 203.62173012014838,457.53786468203555 202.12861269736905,458.12608713594665 200.93832151202616,458.59669767864773 200.87967845352932,458.6193404149428 195.12842341049284,460.8863833094736 193.58089826178508,461.49268737301077 193.04708353426537,461.7054313566492 188.92040410262317,463.3298440708774 186.9700337229337,464.0990455185622 184.26854350518545,465.1624396419592 176.79350834385,470.14449323719515 175.8342056490534,470.7869605199844 169.94725708483352,474.71441645059787 165.76633282477624,475.2485569730285 165.29116115529035,475.3117611580787 158.60764438337117,476.1671353219039 154.1237309888271,475.9001465093874 151.22301727016588,469.63755657784446 151.30006773285243,468.13075577494214 151.54441380884234,463.5245064448898 151.61690314485978,462.1261952998594 151.7480355389111,461.356830954777 151.75243376852984,461.3434733692177 151.7933210119643,461.10368841989686 152.49475714781406,457.0447743003212 152.93800092969033,454.4880998569788 155.96512301822045,442.89518172300717 155.47203263708485,440.6735871986957 155.34090024257057,440.06728313504277 155.01950370343113,438.6238494145882 154.82044310049446,437.7142304217691 154.32262869471344,435.46526913698017 154.02859891605155,434.1441713519181 153.72072286033205,432.75042133367253 152.7524608092476,431.4607627437959 151.4087202881219,429.6690544161486 150.55790725061854,428.5330080594523 149.66653276517027,427.5647460083678 148.22309904459996,425.9947410204153 147.52622403541932,425.2390600555717 127.72523251144804,410.9356923476798 122.22288467153356,408.0488249067706 117.87890012981534,405.7728226561835 117.17746399396559,405.40157951778474 110.76566005851384,406.4582948484599 106.30406360570124,407.19361364022717 98.9103142386948,408.4151811235894 73.7293108105488,411.04874313222075 54.73808218313313,415.795572904805 48.801287019653934,417.63712783194313 42.647512540662355,415.5059413558776 36.932420717340925,411.97188260788107 35.647486151299454,411.24340550623316 34.285501123034436,410.46964293176353 31.140604225896617,408.6867310628908 28.063635537644167,406.94030820794944 27.317076826254507,406.5148202406726 27.0952105890464,406.3926472026776 26.76501759113244,406.20270885273186Z"/></svg>