<svg xmlns="http://www.w3.org/2000/svg" width="500" height="500" viewBox="0 0 500 500"><path d="M1.574957499719731,431.26763800315865 0.8802525339064527,427.8386412104835 0.7628911621091614,424.08569661456113 0,420.7505720205287 0.05872293228599269,415.35228689915823 1.211128798350948,405.8656182722261 1.7462256784230137,402.9177270592219 2.025560951663809,400.43683102330886 2.171058635005387,399.167232772677 2.8165039323024184,396.99617413761155 4.419513250311452,394.0400025686287 5.104923938864951,392.77614987110286 5.410029707707597,391.3561533184344 5.748003420219547,389.7977565304918 5.806641859250556,389.52087156662856 5.931016185380028,387.31931080401637 6.337007107677893,384.8009841794794 7.759369476228738,380.4143388727172 8.275793308766406,378.82062383190794 9.451519360755503,378.609390261648 10.172079315425615,377.72694089854923 10.389396412712003,377.4617160277681 11.035855630989996,376.673138863252 11.092212747573697,372.8029173890875 10.019568677751856,371.23032570525015 9.331876666510903,370.22350201602194 7.6584843230136626,367.22161950243645 7.043541153203353,366.12083912113036 6.592937701259276,364.24086034588305 6.5694485283448785,362.5861410499802 7.606858838314834,360.7203571706276 9.158158178370057,359.4646158422102 9.552489007465706,358.76526373776704 9.69798669056714,358.5070518214982 9.798956337037199,358.32632037878506 10.329406078719519,357.3828667606528 10.359908206206242,357.1339491214636 10.456146221031572,356.3336273704904 10.472622439373644,356.19049550327134 17.73905725597911,343.3992044099135 18.661303023824388,342.047309560286 20.38648983877057,339.66738317096315 21.12580733471035,338.6463645857801 22.651420672418705,338.1770035926864 26.796245787879105,338.1957611337159 30.138383336483844,338.45870468192965 33.7786136993589,338.5783473761743 37.71228973787439,338.7098191502511 42.76786951496811,338.46090151106193 44.694742142849314,338.46090151106193 49.189370050773995,338.45870468192965 50.4402952536313,338.45870468192965 51.944700741112705,338.3905184854537 52.845992138495994,338.1066205670781 55.72121900356469,334.8817598967155 56.98143848368178,332.35397000822866 57.258407940980135,331.8023969095744 57.59638165325194,331.12408366878816 59.797942415984195,326.7117523599192 60.29087707560747,325.72123590228296 62.58859135942978,321.118709886751 65.61151273631195,322.16549896747586 68.33887610209663,323.1113184016706 71.07781506734827,317.9337301144499 71.11304882696,317.86807872084654 71.50264802393063,317.13340836347663 72.03774490400271,316.1171214102985 72.9249258992265,314.6455838664864 74.4997989054511,311.26812806501493 64.15408559513962,307.39959645937216 63.949358018781425,307.0505541078837 63.74564436364434,306.7032016249771 63.424146869714605,306.41212176515904 62.03769420801609,304.9293465954403 73.44946110081258,281.88697483108945 74.83075966339072,279.39610857067606 78.3747520116806,273.0044342151163 78.98961068799578,271.807415819225 78.55311763845133,271.6430761015389 76.74360638212727,270.96476286075267 75.86343834171595,270.6362524123107 75.52538013594902,270.5095122701187 74.83075966339072,270.24994845900846 69.88552830352197,268.3971765676394 74.83075966339072,261.9598757608521 78.69160236698043,256.9342066573796 80.62320662674651,254.40405095289032 84.41839793697304,249.2921985528281 85.66932314007049,247.6046958067511 87.35691037946249,244.26720539677626 91.21893599102343,236.63939218805947 95.08569323470938,229.00203122201776 96.27561418259324,226.94140549749233 96.74497517580699,225.81713594315175 97.0548125765345,225.07308681532712 97.62995934159831,223.2095842585419 98.26357555894302,220.27107181605246 99.04049263043697,219.06712495902394 108.1141573809192,211.3077554827952 108.77590990956803,210.55669340039822 109.67246967530659,209.54277226316256 111.93976632489716,208.21664790913687 114.20697848123275,206.17951135758585 115.04963143958503,204.0600782070992 115.82646401758386,202.10735059024108 120.84207840294083,195.93459870693428 125.33662181737037,190.90960555088245 129.91101152153817,185.95262960449645 137.66100222725214,177.37654665220737 138.0435039761553,176.9541640051226 139.21238606056235,175.57641416651816 141.5242107467843,172.84921978766369 141.7260655464694,172.45488895874814 141.9396649328519,171.1029941091206 142.27527282918126,168.98829259057885 143.33431345709397,167.65287395947348 143.47947316645502,166.22814577480008 143.59404625507437,165.10370723364937 143.1995464392286,163.33306295434585 145.241921583215,161.0996481693455 148.2656034013132,157.7933358343381 152.15863810109147,154.3052781354565 153.3884399469768,151.9253517461336 154.42356893473962,151.0240603485702 156.73530912770656,149.01260979918595 158.0027105491461,148.04566700801922 158.19991821020133,147.89307187685034 160.64558048656264,146.02483768812021 161.4740385492603,145.39122147077552 166.69623936642742,141.40355413155874 169.26391015297577,139.1174999408786 170.49844363098612,138.0167195595725 175.12445881937245,135.40452073639278 177.85165319840704,133.92825156057575 180.7010250741386,133.76154602694717 183.01521557654314,133.6277929302429 192.06539115387082,135.37165279284355 194.64007489499147,135.68546138478027 203.09879647542323,136.7165346878988 204.98823851474052,133.42129099198792 205.41771860971264,132.67715737066814 206.4856310476496,130.81610512332048 207.67555199553345,129.3514960406456 207.88205393384848,129.09564994031922 210.16337649258372,126.29097508796912 213.48447517747147,121.62262869196364 215.65308350303928,118.5757956746314 219.58675954179492,113.04891155567702 224.70807520574698,106.31292648057376 227.10430882684193,103.73122978494081 229.5358607008036,104.84367025932904 230.5967601839281,105.33187328688733 231.62234141418585,105.8013187734161 235.65690260615656,107.64606378917179 236.41506213638087,107.99341627207842 237.80683788419,108.62948279880067 239.3934554768718,109.54006847344372 239.94502857576623,109.85463750629626 241.19595377862353,110.572831645144 245.53562073919673,112.14998597405607 250.73906401557448,107.28933253569035 256.7732466766169,102.69846661324053 260.7397061655467,99.98293232752823 265.45021478230115,98.00671553763566 269.00367039436077,96.9998918484074 273.3409715392317,96.29580811201933 274.27986251216913,96.19247264948676 277.74983861756203,95.8169838549758 278.8776568957562,95.69497534478877 281.60256995210335,94.87817737535336 285.36717464110785,93.7539078210128 286.0643299163587,93.4624054940793 290.82181687894195,91.47258526233762 294.9129041742465,89.09502468895717 296.4759481007589,88.10231140218859 301.35780938947164,85.0068101703257 306.39927876392557,81.18812968724482 307.30758311612135,81.15289592775315 308.2957337578152,81.64109895531145 310.696699010795,82.83101990325534 312.0134445942459,83.11500231512602 314.0201635116252,83.54684822616065 314.9190890930661,83.73940874876611 319.58025354780915,84.74158529948454 323.65004849915147,85.58880090303163 326.3584853369164,86.15211858820314 327.5061595708563,86.39858591795473 328.1539706840958,86.53935196917129 329.2453722949471,86.77170889646322 332.15802974833963,87.39814317242545 336.19030961762286,88.2618349944947 344.73352462642276,89.65132941961639 356.475491836183,91.56020494726383 359.04079680678893,91.97726450835805 365.22292746061044,93.34546658957755 366.1265001806812,93.54267425081291 366.9386510117869,93.72112437095869 367.6027693566183,93.86890337668754 369.9475464797646,94.3876085317926 374.24496672639384,94.82182025882969 378.79122011877723,93.21179798636841 379.5351847531067,92.91133935603558 380.13838333645987,93.10144956926352 380.4668937849619,93.20706635436346 381.4690703355603,93.26333897751208 381.99022580022296,93.29392559843389 383.04656263821266,93.62513983661876 391.1523551697422,92.04595766538455 396.72976635873914,90.43517495206747 397.692062011336,90.26618809587154 398.4853708079171,90.12542204465498 398.88646111109966,94.97204957399612 398.87142128097406,95.8169838549758 398.82080971725617,98.67328419196468 410.4667923926765,97.84246031344466 411.8046613333395,97.74858811480192 414.9566886687163,97.52569445145984 418.4913867397464,97.29798466273776 426.88665375600726,96.75528337404772 428.04142543777454,96.68067567704506 437.7910376130405,96.13146839439325 443.3845025533842,95.8169838549758 445.5550542278991,95.69497534478877 445.65593938087403,91.63929079596618 452.971718359731,91.39282346615454 455.0183181751118,90.95861173917747 456.1592329347247,88.86275225510033 456.4455811625378,86.88670445213798 456.7295635744085,84.91521929425033 456.4924750151116,82.68087508152402 456.6499707651556,76.5643958213058 456.69458329528214,74.8158888201353 458.1030042481834,70.67833013949246 458.3705949349671,66.10394043550478 459.9478337573742,64.68867551478124 462.93552137512495,63.026943264366146 464.56911731387567,61.81589895939025 465.2145626111727,61.33944051828916 469.77746120912855,57.961984716817696 474.00686424597194,54.36873269995154 476.7246798542516,50.2851653198299 476.7387902568914,50.13257018866101 476.959402597606,47.588388575147135 476.08388169558447,47.231572828230604 475.2037981484281,46.87019443623935 474.4057577199622,46.543880816929615 473.1689429195045,46.0369202483418 472.6644326604143,41.000266999207824 471.85980174461156,28.176276949171008 472.2633423572317,25.674257556226 472.4767727566239,25.4066668694424 472.47770218434994,25.405821935151515 474.1738232600258,23.277939441876065 476.05152071264575,21.534079579275414 478.76933632092545,19.38422879467708 481.2854661162701,18.18484458278333 480.14472034364746,16.73443039600322 479.9265583123704,16.45509512270239 478.7905441713925,15.011693890434566 476.36837106794565,13.357059087906814 478.02309036390847,11.139022106832488 478.6755486157778,9.01730763377844 479.94523135990477,8.735691037910227 479.9851122579063,5.70803802878297 480.6471182670405,4.459394148312937 480.8864036555297,4.008790696248786 481.6398315538691,2.586512821012962 481.92144814979736,0 483.1958625258092,2.5020193929450105 483.84840527093354,3.7154295138633393 486.6108334093397,8.864796996104682 487.0098113768251,11.21650258038815 487.35023539877466,13.216208543315197 487.69995369750364,15.279200083783072 487.77498386162176,15.455284387986428 488.3030677873616,16.685170727426936 488.65963005391285,17.520388264211533 488.9013657515995,18.08607176532549 497.2979001693267,18.275928498248145 497.2990830772979,18.275928498248145 498.4373785407231,18.302036967530327 498.47024648415226,18.414666707202603 498.6532592495529,19.031975692895312 498.85283272655056,19.707923117739103 498.9419732933084,20.015310209149128 499.63904407506413,22.378760380009865 499.57567400390815,25.405821935151515 499.57567400390815,25.406497882572218 499.4885612795925,29.553773307470184 499.4885612795925,39.899233137656495 499.8380260983164,43.56058685756355 499.93899574502655,44.60965726085579 499.94837451530117,45.7762580226354 500,51.48894318998823 499.6080349868468,55.46714726525516 498.79833446565897,57.44336405514774 498.3169754055026,58.882118148845706 497.8358698260718,64.80578340615318 497.68564051084536,66.66700464037102 497.29832263632204,70.90291367135627 497.2979001693267,70.90722283618575 497.1434461827059,72.59793633249606 496.4837214960189,76.20774906125945 495.129460830509,77.55018064693714 491.5079035151683,81.04727914259317 491.30148607034846,81.24448680382852 490.52685032154193,81.99318307022303 490.4987140099976,85.09130359839365 490.4094889499848,85.72703215143555 489.65851136108296,86.0673716798299 486.2294300749126,86.26212903156765 481.6574061869274,86.3842220351898 478.7706037223918,86.36335215846307 475.3111048022299,86.70360719342233 471.0418208671449,88.14455811625258 469.71806232912166,89.0222758473464 468.3355808585723,90.38819660605857 467.23691281290337,92.63436989867718 467.0577022519018,95.8169838549758 466.6596537121424,102.88629550390108 466.5493052949174,104.84840189127395 466.441322693875,106.737674943661 466.356829265747,108.22813901531279 466.0634680833616,113.49486786917132 464.93218557450876,115.47345047500633 463.3056870835853,117.27121714475312 456.84422115652296,122.18366505450773 456.7786542561746,122.2281930911391 453.7625768466344,124.23964364052335 449.2116763156211,127.28140705217032 445.8672574445691,130.03209060399922 445.64191347196953,131.09535590318623 445.83193919170236,132.6326293340968 445.8672574445691,132.9260750098573 449.4816328185873,138.3523274559619 449.8008489900697,142.8163687428447 449.8688661996155,143.77401725693176 449.9792146166003,145.31602231978724 450.9720123969241,147.51521726639695 455.08405406221027,148.50336790803075 455.40081992425513,155.54209293603424 454.89842200062196,158.8778934774273 453.3190708425176,160.72956695426018 452.39200894953245,161.6232539433257 451.06351877938425,162.68880056508007 447.1346588660086,164.77773158801998 445.84528915336625,166.22814577480008 444.91898770111686,167.27028771701512 444.09517677704906,169.09855651424866 443.5647270353668,170.27673287573535 443.3394675562624,171.30476441543067 443.50862339926846,174.54931205448875 442.93837725307975,181.25395006775437 442.16450194500896,184.16635404096164 441.62374400508594,185.5982641670175 439.4996637161495,187.90772303729702 435.90632720584824,193.27542153768562 434.9347372762317,194.72592021790084 431.63704327076323,200.14989134143806 431.4164309300486,200.6428260010013 429.2900693184247,204.55014009010944 427.92854221809716,207.50107306653683 427.7081833573876,209.545138079165 426.88665375600726,209.62075969732877 426.2553188611099,209.6788911758693 426.1685441105346,210.39480399214966 426.07509437912734,212.72183749548748 426.88665375600726,215.1632751004544 427.40468296375167,216.7214184080917 428.3545580824106,222.65006877764935 428.3387578113091,229.41993571740286 427.5155383414671,234.79152091550554 428.2385486055748,235.94223691280862 428.4122670939558,236.63702637211702 428.41184462672027,236.63939218805947 427.3161338509794,241.73003673771464 426.88665375600726,244.07481386098095 426.3703144167246,246.89359911585075 425.8914901597411,248.36277084366037 424.8354068019966,249.5363000665772 423.0750707209338,250.4165526005437 421.4321805049233,250.88591359363738 419.6718444238605,251.587631514023 419.6953335967749,252.13219165816497 419.73056735638664,252.9958834801742 418.615761066116,253.3478831016507 417.78012106209593,253.64834173198352 419.1837258896172,257.6688770147495 419.58980130517006,259.1170098789623 419.77053274788324,261.3302307346566 419.1837258896172,263.226601234931 418.96776068753246,263.7641484245607 418.7212933577208,264.37199414630356 418.42091922076304,265.1206904126981 417.10417363731216,266.9794613374783 416.1537070646676,268.019321957126 414.8416931131016,269.28672337868556 413.1424457805074,271.5116888208371 408.4882942805767,276.28083587656255 402.7427411695546,280.33888624144765 398.75034219827285,283.1271693687707 397.4595360971739,284.02609495033164 396.0958966611492,284.7982803897606 395.24623074798444,284.9977693735033 395.05383921230924,285.03528445556236 394.661789705901,285.1080332971731 394.30269263641713,285.17850081621646 391.2562820863804,285.75821022641503 388.8294618443036,287.3870745333409 387.4939587198232,288.28126848295693 386.4801220760226,288.96186304631055 385.3863546492288,289.6918862651106 384.7174201790174,290.1048901416206 384.5601779092186,290.2034939722683 381.736745515839,291.94270669629907 381.49729114059966,292.36044220481403 380.99970934258664,293.4893588976644 379.9529202618618,296.714219568027 379.7792017734808,297.1976909635803 379.10097302624973,298.05673564707973 377.98143510409426,298.9767000922976 377.472193212879,299.1410398099237 376.7022890959574,299.3217712526369 373.1700413341247,299.68086832206075 372.3133624666278,300.0915908760634 370.90984213236146,300.81451664691605 369.3560924831088,301.7932040246 366.45746093862084,303.1450143807925 365.844799091498,303.42908128603824 363.1950851862592,304.665896086616 361.1086044726368,305.792531456899 360.12045383118306,306.32526252108863 358.7737130804958,307.0505541078837 356.84633349212413,308.0902457407213 356.89094602201044,316.22510401140096 356.8204785032673,316.6147877018067 356.6820782679932,316.76729833954045 356.475491836183,316.85812877476 356.4308793060565,316.8775622632103 355.9497737266257,316.73443039599124 355.87465906901247,316.7109412230168 355.04383519037236,316.5044392847018 353.43600974722347,316.10782713321885 352.79538057530647,315.9481345541026 351.26976723735794,316.1242188582459 347.75154538466995,322.8085784487704 343.1185172417113,330.8142462679406 342.90491785556895,331.1851724173168 342.4448511393748,331.9784812137177 341.2479172369186,334.0509360181955 340.8723439490927,334.69874713143497 333.41579891925926,347.5909233780078 332.9346933395883,348.44295510693485 329.54557744491467,354.4396226861584 329.0409826923293,355.33145081977193 327.23603408114,355.5356714354595 324.1426451850344,355.8877555503711 323.0043497216092,356.01686150850554 313.7312804808794,354.37861843106487 312.3840327697016,357.7794789121357 301.71428716276785,355.88065810242375 298.31114535894955,355.17657436603565 299.1912289061059,357.8169939941948 298.11402219138944,357.7794789121357 287.2213829208134,357.40627144019214 286.0643299163587,357.132428239752 285.5855056591351,357.01903805922393 283.3886765285278,356.5003329041189 282.65172484877064,356.3266989093531 276.4602154241942,356.3430906344402 274.19536908404115,356.3501035889525 271.4492481774671,355.2493232076464 265.6192016385571,351.2335195568853 264.3354929852855,350.3487043777841 261.2255433771025,349.5507484428133 263.86596300532165,341.98858662775984 263.86596300532165,338.8224488899234 265.9525282124392,332.91965350934265 268.5483353102917,325.58275117363377 266.846722161755,325.05466724801397 266.7482028247225,324.0994690433044 266.6707223511669,323.3530540994773 269.3392782906901,316.35420996953536 269.719498717146,315.7744160659017 270.13022127132876,315.1501786191318 272.0079187239487,315.1501786191318 276.2912285681783,311.8619478776732 276.4437392058521,311.3761951595525 276.5469901750096,311.05224735618515 276.64331268308996,310.7470570939074 276.2691757834804,307.0505541078837 275.9861227993357,304.25289221004596 275.05897641261527,299.72539635869214 274.2305183501578,299.8404764077419 269.95422146050043,300.42956458845526 269.5434989065579,298.2608717693923 264.96682787994274,298.2608717693923 263.55857591379157,298.7890401884472 260.50743373187,301.1923712573695 260.21635387193186,306.0600376503075 258.0665030873935,306.14224975580805 256.4868984490439,306.2008881948991 256.09729925183314,306.2149985974188 254.79229825483944,306.2643427594302 253.85357626889223,307.0505541078837 253.29025858378074,307.5222809169799 251.6472838742751,309.8693393628136 251.57926666472935,312.5896052805308 250.40573744169242,314.3498568681585 247.0306474561634,317.16855762959324 243.24027227155702,319.722202507117 240.6655040369412,321.26893920191736 238.54142374800477,322.86730138129656 230.44416505275922,326.32680030145843 230.5426843897917,328.5611445141847 230.73279460301964,329.4201891976841 230.89012136631354,330.1453962911042 231.35948235928714,332.2835869826204 231.7960599023267,334.2644509110228 230.57082070157614,333.5416096336052 229.25187828893291,333.02290447850015 227.81312419505483,332.4549396548188 225.80877109385813,333.31863147682805 224.91922428245175,333.8514470344528 222.86552701924364,333.79272410192664 222.1050861663319,334.339565568576 220.91989685033292,335.8111876058232 219.0398335815304,336.88847881415484 216.5473619460904,338.49385394804625 215.65308350303928,339.069845647401 211.01295791201318,342.05896965336814 208.49699710341866,344.10793528481145 206.02319851551306,347.58855756200535 204.49995099374715,351.10449809212594 202.56361510185604,356.5003329041189 205.38011903415847,357.495496500265 205.70161652808818,358.8942852025264 206.02556433145548,360.3119159391924 205.6734802165439,361.4244409070157 204.25593397337306,362.98047187889574 199.91390119661727,362.5697493248931 197.09739726431485,366.7310506588757 197.15603570334588,368.3716595523189 196.9213974537267,370.366633883241 195.74550241474734,370.3079954441499 195.76671026521444,372.4719566312079 195.80414085377836,376.2294638723251 204.24647070936317,376.46190529299207 205.58433965002618,376.4970545591087 207.92430064779242,376.5605091236398 208.65660518915988,376.58154798723666 208.62001953482678,377.4617160277681 208.57439308371934,378.5390072360397 208.10503209050557,388.62186149163256 209.63064542821394,390.5581973834036 208.64714192514998,392.48042287271494 207.40796130874986,394.89794883753194 207.0582430097807,395.5831905394554 201.5333022397134,406.38905505933604 187.1576748760611,400.40641338919716 184.34125543701367,405.3915256471274 170.25898925574683,400.2303290849938 169.0573237211656,401.7395506977352 165.81615581927107,407.17290059178714 161.9551441286911,413.6413794735419 158.9063677624718,412.41149313410136 158.38774710098195,413.3432866591515 156.03122539113838,417.57032388023254 155.09250340495103,418.09840780585233 153.12566538557323,421.70103859323325 152.58110524149126,422.70093382138435 152.33235658923232,423.1562689053934 151.57892869065276,424.5363000665652 151.5719157363206,424.54804465308246 150.4570249525548,427.24482139782526 150.57447081760708,428.9464345463619 151.25743119696318,431.45301658438166 151.1399853319109,432.8589027345304 150.0627786169543,433.3588503486059 148.7342884470462,433.97379351835616 145.241921583215,434.06242712444345 141.81284029704472,434.14970883568935 140.2286730138005,433.6827981519732 139.0551437910037,433.9174364018325 137.41216908149806,435.5556794792732 135.47583318960696,436.3184016547523 134.41974983162234,436.7291242087549 132.60077531176867,437.55065381013526 131.89424126600306,438.7241830330521 131.6596030159036,439.77798506834927 132.68053710777164,441.41850946835734 132.83313223894052,441.67672138462615 132.603056634216,441.8808575069387 132.0350918104746,441.9067969893507 128.52633322155634,441.96543542844176 122.52729982639039,441.3693342932161 115.1505165928001,440.4399065841084 113.3315420727063,439.7357383542853 110.79445790689967,439.7756192523468 109.63258877706497,439.79446128681144 108.45914404776332,439.6770999151942 107.69870319485157,439.8225975983557 107.28561482496654,440.23323565892326 107.10953052064312,440.6159063948167 108.0600815867828,441.8034615267581 109.27121038513374,444.0425373714293 109.57395033803395,444.6034892405984 109.34869085868941,445.1245602117059 108.57878674200792,446.89892220185334 108.0946393989138,447.8729624409674 107.03914749491477,449.9945924206464 106.60966739994265,451.1235936069319 106.48757439650063,451.4474569168041 106.75981222167397,452.28537824327145 107.1588746826545,452.8181938008962 107.64006475558043,453.45645715675073 108.12581747388126,454.10663408599265 108.69614811356506,454.864709122962 110.51512263365886,458.8500106461763 110.5057438631441,459.42507291786507 110.49163346050433,460.15501164323 110.47997336754226,460.9178183120842 110.45876551707516,462.0466505115595 110.45648419462786,462.1922326881561 109.28287047809582,462.3683169922994 108.05078730976317,463.24840053939573 107.52270338402327,464.5392066404946 105.46900612081518,464.94992919449726 105.11700649915858,466.41453827723217 103.23922455304351,467.41198319594565 92.75747682340035,468.7662438615757 86.91796702048049,469.61590977456035 86.31012129873763,469.70276901863076 82.66279348779511,470.23313426681796 81.89998681894095,466.71263109156257 77.74814874890822,464.96640541301946 75.60057928681722,463.6168763793944 75.20388264201928,463.36812772701535 74.83075966339072,463.1348413720575 74.75327918983506,463.0864266377721 74.34965408371977,462.8306650308808 73.45300982472624,462.26734734576934 70.63422456973636,460.4999983101342 69.93242215609578,460.5117428966514 68.39050158679547,460.54224502419817 67.43521888853077,460.55863674922523 55.78923621311046,464.0158543468798 53.26617795668862,465.60010612373924 47.738786877183735,475.20422061572367 44.9223674381363,480.247971312805 42.427529986513726,480.1658437006795 41.34314133047483,480.1306099411878 39.81997830196389,479.6494198681418 41.1718731515314,477.3893051598737 43.17157911433838,474.29591626364794 44.474129802134655,472.04044869388963 47.32350167786623,467.1092432431055 49.61885014574611,463.9032246072075 48.445320922949335,463.31641774906154 49.70097775793166,461.21117949446966 50.4402952536313,459.97428020051683 44.12441150316551,457.60373258170875 41.73975348201779,456.636789790482 34.82312145739631,453.8344807540743 30.8589432913941,452.2291056201829 26.75864621232493,450.56737336970775 23.749750744347267,449.3750021123263 19.96182586893831,447.8729624409674 14.629192141291243,445.7582609224857 14.579932472774997,445.7394188880211 12.218763624541674,444.8029782243411 7.512902146417101,442.8619951940002 4.419513250311452,441.5844545611301 1.1758950387392078,440.24734606144295 1.3496135268800553,435.10972316571883 1.7603360808226487,432.1782236778017 1.574957499719731,431.26763800315865Z"/></svg>