<svg xmlns="http://www.w3.org/2000/svg" width="500" height="500" viewBox="0 0 500 500"><path d="M309.93188990476597,306.21037017919883 309.8964049111954,306.21068036269116 309.7911286275255,306.2138442344983 309.68566623395407,306.2163877392767 309.5449049567136,306.2201719781126 309.3927289263903,306.23295153875574 309.2730601278641,306.2472199802856 309.1494209806005,306.2593171371927 309.01672447469014,306.25311346699294 308.8780104086579,306.2534236504853 308.72980472707195,306.260743981328 308.62961545313505,306.24641350313493 308.49493377276787,306.2198617946202 308.39015378293254,306.1877888195978 308.2668868556482,306.1702324328903 308.1478384241067,306.1645250563048 308.0092484315772,306.1815851493981 307.88213522888185,306.19603970100576 307.75837200811554,306.20714427068435 307.6625253032479,306.20001004991946 307.53541210055255,306.1919452786334 307.4013507871701,306.18574160843366 307.23608501271127,306.1900221408838 307.097370946679,306.18710641586176 307.02658706943936,306.17401667172624 306.9598355780411,306.1478371834112 306.91473489559047,306.0982078216812 306.89885349975935,306.0501293775453 306.89829516952597,305.93381056099224 309.93188990476597,305.9250013492628 320.5029439516962,305.8942931817125 320.527262339013,302.57849348829956 320.51814294379125,302.0411315742589 320.5146688885358,301.8454057789467 320.5000282268504,300.9836539493486 334.8494896550809,300.9487893227187 334.86071829826227,302.62105066597184 338.1030665362867,302.6341404101514 338.0965526826828,300.96293369083395 338.3551216571427,300.9650429387054 349.1010571675881,300.933652367375 349.10273215846445,302.6168942069363 352.44843354227703,302.6072785181003 352.452900184849,300.9391115971754 353.6999619714909,300.9164061642039 353.7067239721003,300.7485348481713 356.76960003088743,300.7542422247568 359.7388006693416,300.7597014545572 359.74357749531777,300.9146691365321 361.62918305738606,300.9142969163325 362.0339725387987,300.91417284291794 366.5057641401825,300.88724891420355 366.60986172645806,300.8869387306671 367.46590617955883,300.88172764769587 411.7033479347364,300.84922041576647 413.32641417307843,300.85226021415906 416.8042537327443,300.8588361046025 422.211993059514,300.8469870944805 429.02864792870395,300.81838817480167 435.4031672219566,300.81007525668645 440.4226808665282,300.802816962551 443.5160789828319,300.79921883383696 444.24513430638746,300.798350319979 444.2475537377512,300.58587461510996 449.94426002317095,300.582958890132 454.70594913377005,311.89603393155903 461.6306099015743,328.2831528788988 463.97417039865974,333.87030234824255 465.02364528912346,336.34333344290025 467.4015741193128,341.94698467505987 469.58936045749306,347.0472080691994 470.14372042796384,348.38428511075296 470.8768081373608,350.15202093863 471.27799949019163,351.1256249422093 474.59404733030146,358.9884667566854 475.61920383344835,361.452316419414 480.9424491718582,374.07386958271576 484.2129620726104,381.8713867497967 488.43735130578796,391.9943496971545 491.8321237209649,400.08157826332894 492.6434397119469,402.01451782900165 493.18905250735145,403.31331822533303 500,419.54025840768253 498.0710928200365,420.0879184142953 496.3422540043662,420.42974064314564 494.573339479227,420.7795656065748 493.26002249449255,421.0247966902023 486.6761913683984,422.25448820030266 482.0706486372126,423.1059419373728 480.82098130895287,420.0408325573437 478.94058682994404,420.4004593197307 478.9755755300326,419.4579977406087 478.9636644832915,419.2025306011164 478.12610696746344,417.0735550566392 478.18479368770784,416.7685826288315 477.4263329671024,416.67620997935154 477.43824401401986,416.9278308432565 477.352633365017,417.2462652354434 475.44779642536486,420.9946468529735 475.05535224760024,421.1465126998486 474.8440552399493,421.18007455571365 473.90643252368704,421.35377732170224 472.91061938066235,421.53765410689243 467.88409558865226,422.50716368814335 467.77671005719907,422.53142003870886 465.02364528912346,423.0468829968846 460.49118179303844,423.8953589722695 458.55085985963944,424.2345136229269 458.44415673209863,424.25331074369194 450.0516455546242,425.8815880650934 450.2117002461999,426.45989420259326 449.32234208406317,426.626462747861 449.1405745467885,425.9607468970674 438.85433099934056,427.94654173298443 433.1378350059273,429.0445913611102 432.75804631539125,429.11779466966954 432.51070598393636,429.16488052662106 428.3518275081877,429.94703926733825 419.0468805154054,431.69560575425066 418.64537897917035,431.76285353939534 419.2762302034222,434.03265239777625 419.15662344164735,434.06491148292054 419.1670456075899,434.0972946414353 419.20923056501846,434.09313818239974 419.75825537910333,436.1474835742264 413.32641417307843,437.35353910079 409.8440459346182,437.9974180324259 409.85781808231343,438.0795546260852 407.34359461763194,438.54371323161064 404.7990352053354,439.01444772753536 392.6304740411731,441.26054856571636 379.9398740282594,443.609444219364 375.9325512160256,444.3505967000029 373.7736119443092,444.74856214431935 372.6777956376018,444.9524147475808 370.98928067822965,445.2652037998454 369.4052975622163,445.5562179696596 368.50396631658714,441.71862757441255 367.3580863911987,441.9508309506119 367.147285677206,441.97322620004695 367.13307927242755,441.9587096117761 367.1317144649554,441.9609429330621 367.0738962585248,441.9695660346256 366.90621105270225,442.0152250474418 366.60123862489456,442.0664053267216 366.45923661368465,442.090413530458 366.2676052407008,442.11448377085753 365.99619466875816,442.1023245772432 365.80164757092854,442.0419628660343 365.6245327861273,441.9697521447474 365.56454329516214,441.9340810410109 365.53110551262347,441.9130505989599 365.48817611470747,441.89685901972456 365.45473833234513,441.8774415319307 365.42154869681195,441.85963699843813 365.2360589572764,441.8953081021746 361.62918305738606,442.5870173311614 360.68808628569207,442.76742006105206 357.3791106294195,443.3799084214017 351.54319398448547,444.4598433324984 350.97332483851545,444.60035646286565 346.3555608770081,445.4753841467652 345.0125283119958,445.7064088255701 340.5861475766432,446.54086450625425 338.98020346810176,446.83795827285365 334.88621538279716,447.61819387586536 332.0254548996879,445.74418917717804 325.5663795815003,441.5268721280582 325.5517389198149,438.77486198383014 325.5627194161671,433.1836801288213 325.5415649007015,426.23625189133827 325.49981420017986,418.1868036767718 325.48802722676515,404.7606965232737 325.4831883640376,400.08157826332894 325.4736967484839,390.8020663184625 325.4357923235496,382.0552635349869 324.31993816184314,382.0552635349869 321.0420428934968,382.0557598286011 320.8802511742934,382.04781913072964 320.790918323206,382.0267886887226 320.6947614347578,381.95097983867765 320.64482188957965,381.87237933702517 320.63495805387043,381.7934686519244 320.6035674827163,361.8920946010034 320.59786010599856,358.5562570527678 320.59723973901384,357.3118628442748 320.59587493154174,355.1068303029234 320.5866934997449,349.2695488504732 320.58446017845887,348.38428511075296 320.56963340651936,342.3646777906625 320.55033999218415,332.14865979008863 320.5022615479601,317.9201699309288 320.5021374746337,306.0101157046514 309.93188990476597,306.21037017919883 M320.7455074571748,296.68705399488425 320.74563153050127,296.7892284433221 320.5021374746337,296.78935251673664 320.5020134013073,296.68705399488425 320.4979189788908,291.12881362871167 320.74209543849446,291.1292478856186 320.7455074571748,296.68705399488425 M329.91527647593165,296.68705399488425 329.91527647593165,296.78190811247936 329.6562112076371,296.78209422255713 329.6562112076371,296.68705399488425 329.652799189133,291.1276969680687 329.9119264940026,291.1275108579468 329.91527647593165,296.68705399488425 M339.07176964029884,296.68705399488425 339.071521493646,296.79599044384327 338.8171710147526,296.80120152681457 338.81729508807905,296.68705399488425 338.81872193230254,291.154620896783 339.08256402657327,291.1493477771044 339.07176964029884,296.68705399488425 M348.40903775497674,296.68705399488425 348.4092238650545,296.7855682779007 348.13526978842174,296.794811746493 348.13495960484124,296.68705399488425 348.1210633836432,291.1191359031684 348.39991835975496,291.11832942601774 348.40903775497674,296.68705399488425 M358.02075623994574,296.68705399488425 358.0208803132722,296.74933884384274 357.76255948546503,296.75852027572773 357.7621872653095,296.68705399488425 357.7430799610521,291.1035646909177 358.00692205532283,291.098911938268 358.02075623994574,296.68705399488425 M387.831438835873,89.898067494658 406.3403991070132,104.95226585952385 406.67471489494307,105.2228699543158 406.6798639410748,105.22621993620072 410.24008824114094,108.11092658638316 411.95645767948406,109.50340240291531 412.48587889565323,109.93474359297495 412.4289292032129,109.9717174674763 411.64503343482386,110.24294192929703 410.503372005002,111.51909892927607 409.1249785199219,112.96567075011015 409.057048330953,113.01021310223928 408.9960662528475,113.03484167300442 408.91182041131685,113.05909802356992 408.80983207300085,113.07510349272748 407.39173509825474,114.63656728593526 407.3968841445628,114.73390287160144 407.3790175744511,114.83855878811035 407.310777202078,114.93936842912011 407.1684650072876,115.07888897225894 406.7052369522833,115.57189464429236 406.04833031326325,116.29797220629486 405.5950901672946,116.88812735387259 405.43671046677156,117.09371698480584 404.93849371167875,117.86470911918119 404.62371948491324,118.3582731215361 403.88430403199015,118.06341267617864 403.78498327186713,118.22638309273233 403.5949648531845,118.65083820890025 402.57098704743197,121.39459747172036 402.2885339423858,121.83214233202378 401.84993445827894,122.71628941110103 401.1585974494036,123.7998844876191 400.75740609657277,123.99393529196678 400.2488912492164,124.06868951807606 399.7364060525937,124.00925835738828 399.2793816677891,123.73648297801762 399.05263752156657,123.5289702093348 397.38087247183944,121.32083583288359 397.31368672335793,121.23156501845939 397.22404368869,121.28417214191867 394.1127169656996,122.94508076866406 391.0013282057814,124.60598939540945 391.2012104601733,124.87950921522346 391.2976775320256,125.01015850996966 391.26703140118263,125.02703249294107 393.2713131742842,127.64082486479515 393.9011718113958,128.44941124065656 394.3058992562334,128.9241160855391 394.95734666536487,129.6485806932844 395.29470225181956,129.98599831631412 395.60265244122434,130.26410885207065 395.9843642696422,130.57689790433523 396.33846976556555,130.84433812732001 396.4176906341146,130.8966350671988 396.5773731055347,130.7087879330949 396.84475129181226,130.3932072292228 396.95039979563774,130.2704365956849 397.0235410674898,130.20201011318994 397.0982332568918,130.15374555893214 397.1755309877353,130.1149105833885 397.26114163673816,130.08724221423083 397.3515911484686,130.0685691668803 397.4597211202329,130.06211734985146 397.568595532661,130.06906546049453 397.67207275177554,130.09617549933074 397.77362683318455,130.13891878712488 398.06215953492773,130.3265798111069 398.55609575752635,130.6601511585934 399.0752809176544,131.01103074600235 399.3563071784771,131.20092509127036 402.10831732283737,133.06041320164275 402.553120477144,133.36054676667874 402.6425153649827,133.42128069808732 403.2175955940122,133.8093823067386 403.4113362147794,133.94027974826983 403.459786879159,133.97315920044292 403.78715455657806,134.1841460244693 404.82471839994804,134.8803218960281 405.0921586229769,135.0657495987682 405.2361458086437,135.16209259720597 405.2948945656395,135.21668489507803 405.33720359639443,135.2591179993798 405.36462381881114,135.29875945203 405.3947116192445,135.3473341898242 405.41332263001993,135.39646725793992 405.4264123741554,135.44560032605563 405.4328021544329,135.49597412818483 405.4336706682468,135.55075253617875 405.4250475666833,135.60894296280895 405.40631248275776,135.67048337136816 405.3873912885781,135.71471554000493 405.3833589027367,135.72538585277664 405.3461989182898,135.77917167354212 404.7386114574632,136.39718130039944 403.6079925605686,137.519363205632 402.65194494378505,138.46722197784717 402.765534145438,139.4041622904615 402.9562970044317,141.0919948459653 403.0107652289332,141.5952986105267 403.42051764675256,145.38158465307933 403.7457140392843,148.16566777232978 404.216386498634,152.50687211567467 404.58873078500096,155.19182058487985 404.8637394855254,157.5240904023411 404.8637394855254,157.52458669595532 404.8885541665005,157.9131845982649 404.8816680925648,158.2376985872369 404.8637394855254,158.49893513997793 404.8184526931733,158.71488490019053 404.74450494408245,158.94888734072484 404.64077957813873,159.16496117430793 404.5170163571961,159.37228783291297 404.288349073268,159.65914554364755 404.1101176278238,159.8291261075516 403.89578082182436,159.97627716506958 403.6996828064448,160.07460533800827 403.4457045478833,160.1704520428318 403.1242923940111,160.25972285721193 402.8666539697638,160.31543181577106 402.5765083138956,160.36363433332156 402.3080134669751,160.4013526482222 401.96315143977625,160.42412011794505 401.33267243568,160.43106822854404 401.3319279951926,160.43106822854404 398.481837824855,160.322131779585 394.699398058066,160.05661469434975 389.12335315813635,159.65591963513313 388.86521844058336,162.31127659743103 388.69374899592486,162.30904327614505 388.92185794961955,159.6412789734477 387.4814277623661,159.54474986488808 387.14500272665293,159.2845058993755 387.1458712402905,159.3449916839549 386.03752351968086,159.28041147700313 386.05061326381633,159.1690555966362 386.08541585382716,158.87270627048022 385.95203694418075,158.86302854493692 385.9448406866644,158.92339025614584 385.8986233435708,158.92183933855185 385.90302794939146,158.84801566300777 385.76418981003275,158.83839997417178 385.712823420631,159.24554685041727 384.0429815087857,159.11396700514996 383.18693705568495,159.3506990605404 383.0256416301399,159.40063860580676 382.8642841678434,159.4507022244436 381.4522667901469,159.8192622719305 381.1637961251551,159.80220217883723 381.070492925154,159.7403515867857 380.05768172565513,165.8926554127865 387.14401013933633,166.61836075458933 390.35608446684967,165.0399609416588 390.4327618305322,165.14542333531833 387.17639329780707,166.7458461774843 380.0392568251338,166.01393716548174 380.0001737028051,166.25352290918698 379.65103114311205,168.46339431330998 379.43098696057115,169.8599025155072 379.83639680914484,169.9012809958292 379.7986784942883,170.03168214379033 379.73800659958704,170.2365893709875 379.72113261643926,170.27021326355984 379.7014669819485,170.290375191753 379.69873736700424,170.41221527476975 379.6862059532784,170.49838425409408 379.64067101392084,170.68188881904055 379.62100537925375,170.8631600627451 379.59569440479663,171.14182892882312 379.57150009098245,171.2346978719173 379.53502251009536,171.42998941032255 379.5028254617024,171.714117506201 379.40784727064863,172.09409230685893 379.3801168648277,172.29000421229296 379.32757177803165,172.56693605069918 379.2718628195607,172.76334424970335 379.1985354376308,173.1047322216468 379.1585217647369,173.29555711748003 379.11646088063475,173.49804491331344 379.0781842355449,173.76722216397002 379.05119827003506,173.9561859587169 378.9743968326735,174.31376550993977 378.96155523536714,174.4900738174581 378.93723684822663,174.68536535581927 378.887731559779,174.88276614209596 378.8512539790682,175.2750242097828 378.8332633352775,175.3750894103933 378.7751349454427,175.57776331630444 378.7392156947889,175.78080944245934 378.63207831016484,176.51371104169033 378.5817665448311,176.8181871758838 378.5050891809723,177.20988691329322 378.4572588835773,177.48334469635586 378.2467063164138,178.99170507253422 378.23721470103646,179.15659862688156 378.2563840418689,179.34959480724945 378.26879138244465,179.5352086201114 378.24726464682345,179.85910224205463 378.24310818765565,179.92126301759853 378.20352877166863,180.20712814114876 378.1436633542062,180.6792274445016 378.11642924186725,180.83866176904849 378.12039959078095,180.9913340930742 378.11053575524807,181.21956712027165 378.1014783967776,181.32459525702427 378.0947163961682,181.33756092778927 378.07443039451647,181.53161173209287 378.06196101736566,181.94328728761764 378.0480647961677,182.37456644097 377.9591662019872,182.89536455557567 377.9034572433399,183.06888121148648 377.8755407274412,183.2249655541044 377.8612102493363,183.3933952004585 377.83416224707514,183.57410811384153 377.78391251849274,183.75147104529557 377.77181536149754,183.92883397674962 377.743030331785,184.20861950347063 377.70047315402456,184.7528674914471 377.6902991347348,185.09735729849038 377.6690825826941,185.37081508159713 377.62516059763783,185.6282673955463 377.58862097999935,185.80283867539282 377.44475786783534,186.22654935111737 377.40368957087344,186.5001932443019 377.3520750346426,186.6647766151128 377.3094558203071,186.8851930178533 377.2822217079682,187.03066908440678 377.2551737060597,187.2505271568699 377.2258923825125,187.38477458033014 377.2234729511487,187.44805201651707 377.2327784564483,187.54762092346925 377.22676089632637,187.5665421176489 377.1840176086645,187.60761041443448 377.0693737829436,187.6950821644796 377.0328341654814,187.74390504910295 376.9740854084856,187.85910720496898 376.9238356797269,187.9873370683514 376.8750748319431,188.22636448173515 376.83735651691023,188.61688552179427 376.8414509391503,188.80026601337025 376.82953989240923,188.88742757987893 376.70497019458037,189.82802805795868 376.67978329344965,189.98411240057658 376.6139623524403,190.18052059958075 376.55676451299445,190.3137133991053 376.4847399017854,190.5042281114021 376.4318225950101,190.68221140988493 376.35098877198345,191.17453467818228 376.3172408060406,191.42230926658814 376.2491245071702,191.85985412689158 376.21215063262474,192.10713242168325 376.19434609908814,192.2827583254655 376.19813033792406,192.37333191061046 376.2249922299311,192.61552319580136 376.1509204075138,193.25481141149479 376.1450269208946,193.2925297264395 376.1131400560822,193.50109711905804 376.09006240273476,193.67783968348328 376.0231868378338,193.96047889851909 375.9880740644188,194.13784182997313 375.93341972983944,194.4237069534793 375.9001680575549,194.5937495540906 375.90953559942955,194.85877034571163 375.90934948952804,195.144015102189 375.8831079643294,195.55686935501998 375.85605996224456,195.75265718703946 375.8221258860476,196.08560816749718 375.79768342558066,196.3970944489969 375.790425131313,196.61806918205892 375.77249652444993,196.72712970447662 375.732482851556,196.92118050878022 375.7173458962123,197.19085405305103 375.67274150741997,197.41641950209964 375.62999821958175,197.59154911226767 375.6146131175852,197.68541064263437 375.5955678499028,197.8153775336445 375.56870595789576,198.05198551566443 375.554685663195,198.2863601763984 375.55691898448106,198.51670245146727 375.5220543578952,198.79090467501737 375.489361015844,199.08557901025296 375.4758990515529,199.30047414648575 375.4290613412983,199.60805211577906 375.3942587514638,199.75867722859653 375.3842708424281,199.97115293346556 375.3628681801334,200.213468292071 375.3188841583257,200.44058465866954 375.31361103869125,200.64251412418142 375.29500002791576,200.88085913387317 375.2562270891676,201.03129813656878 375.20157275458826,201.1679029547296 375.1212972619713,201.29234857923203 375.0618661012394,201.42448675482083 374.97067214902154,201.72455828314958 374.9382269537995,201.92425442737547 374.9264399805611,202.0416278678643 374.9183131724796,202.052298180636 374.9163900347741,202.08983038541479 374.8893420326892,202.2565230041412 374.88121522460773,202.45572285475288 374.9015632628346,202.5925137829915 374.93946768794524,202.71714551761573 374.9589472123582,202.82794306766115 374.9465398719588,202.94370355389276 374.91967797995176,203.169641223141 374.92172519115996,203.3156135833087 374.9251992464154,203.51537176424188 374.9444306239992,203.57666402597192 374.97532490167134,203.63324149830083 375.1394119789121,203.83002191754875 375.1675146050649,203.87934109574223 375.1912126252207,203.9959700957877 375.1873043130584,204.0614188165974 375.1484693375588,204.18288667941454 375.08146969915515,204.27873338423808 374.9961692337328,204.3551005645605 374.8775550590982,204.4844470885859 374.6505007292951,204.81398605040732 374.5843075681302,204.91324477386718 374.49640156109,205.06777819893514 374.4209649313769,205.22361439472388 374.37989663441505,205.33769988999103 374.3017303897576,205.50792860068012 374.18621805039925,205.70353032257773 374.118908228415,205.98213715194845 374.06319926994405,206.1870443791897 374.02634946890134,206.29511231433492 374.02256523006537,206.38277017445782 374.0342281301537,206.41695239735165 374.0651224078258,206.45380219843844 374.176292178115,206.5484081692044 374.2444705137367,206.58575426390541 374.38610030461473,206.64971410382842 374.56433175005895,206.80796973102503 374.8790439400731,207.19067414662723 374.91998816353225,207.26766169397843 374.95814073529573,207.4141923844676 375.01992929064,207.55272034037802 375.1137287842994,207.69385383777404 375.3351377741361,207.96110795068108 375.38185141106436,208.047649150161 375.41218735832683,208.13710607466297 375.4293715248788,208.21924266832224 375.5010859525073,208.57756665998846 375.5255284131506,208.75641847228513 375.54637274521207,208.83960968988012 375.6218714115002,208.9954458856689 375.7282023192381,209.23118535387496 375.8450794660686,209.517236587503 375.86865341272176,209.61438606304733 375.93788637241147,210.07780022817346 375.95358165798854,210.25113077396242 375.98844628457437,210.4226002187091 376.06698474956363,210.6769506975584 376.14366211342247,210.81876659869053 376.46935479978885,211.26301142280786 376.88431830049126,211.75452821395456 377.0073370807702,211.87717477412195 377.2086461792092,212.06055526569793 377.35008986018573,212.19895914819375 377.76765890250607,212.67744823191222 377.94136166845055,212.8821693490316 377.96549394551334,212.9688346219261 377.9594763855677,213.15171881988786 378.0091057471654,213.30767908909118 378.03764263022515,213.31543367684083 378.13138008713315,213.28869585820425 378.1600410435193,213.28143756406882 378.21519167175694,213.29254213374747 378.32425219408645,213.36810283696332 378.39596662171505,213.43448210829416 378.44590616706955,213.51271038970293 378.46451717766865,213.57028044930433 378.45384686489695,213.61215522324053 378.4124683845309,213.66159847489268 378.3813259600296,213.68399372432773 378.3645760505609,213.71867224083582 378.36321124308876,213.73380919617952 378.36321124308876,213.74274248127946 378.36407975690264,213.75347483075845 380.12002861140905,213.74001286637923 382.3613526235257,213.74032304991567 382.3611665134479,213.7022945514786 382.3467119618403,213.6564494285846 382.2950974256094,213.5648832562112 382.2736327267396,213.44366354022324 382.28585395706125,213.27802554543254 382.2775410389019,213.09464505390065 382.3194158129263,212.86461296228003 382.352295264879,212.77621066171378 382.3759932852111,212.737561796292 382.41054772839277,212.70381383030508 382.4614178239599,212.68191487444017 382.5920050820869,212.6669640292183 382.78438089538196,212.63848918295403 382.91137002475085,212.60058475793153 383.1097013615928,212.51168616375105 383.230486820762,212.4476022504135 383.2956873946103,212.42173294563486 383.37112402449975,212.40467285254158 383.4567346735026,212.4022534211337 383.5548146994799,212.41484687169907 383.76040433041317,212.46292531583498 383.83795020826216,212.47775208768635 383.90395725917296,212.48097799620078 384.0147548093065,212.4734715552362 384.07058784128026,212.49171034563568 384.20347045726834,212.55287853399525 384.2954708865487,212.56478958078046 384.3905731509289,212.55163779993768 384.5584444670056,212.50424175949377 384.6323922159201,212.4871816664005 384.70392053347086,212.48209465684377 384.81881250584456,212.4984103094937 384.95634787448245,212.51100376001497 385.0338937523315,212.50616489724334 385.18743459012694,212.4739678488504 385.4206305535547,212.43742823125598 385.4966875504288,212.434512506278 385.5756602721487,212.44325968125605 385.759537057383,212.49239274937176 386.0733186968319,212.5764524807806 386.2927425123881,212.66367608404067 386.40943354914083,212.73501829151365 386.5444874498399,212.82565391336593 386.59430292151535,212.85239173195842 386.6492674396752,212.86337222826654 386.6969736635674,212.85543153039507 386.7328929142212,212.8206289404724 386.78885001952136,212.71988133616995 386.88761244941105,212.5832144813459 386.9763249333374,212.495122364272 387.1404120105782,212.37501930888294 387.30530556488145,212.28835403598845 387.4948276899058,212.22408401257312 387.6287028933868,212.2002619189586 387.7612753257944,212.2010063593579 387.83280364334513,212.19734619393654 387.9122106221483,212.18258145883655 388.07797269026537,212.1233984449779 388.1691046057319,212.12035864658534 388.36650539200855,212.15894547529984 388.54876922294153,212.17302780670784 388.7917669853271,212.21422017690796 388.8891025709933,212.22737195779482 389.07490249393305,212.22737195779482 389.31355768707306,212.23729783012317 389.5327333558001,212.27644298920325 389.65736509038027,212.31248631313937 389.70916573668893,212.34592409558988 389.8061911389509,212.45411610414962 389.9690995187973,212.6538742850828 390.06941286606065,212.727946107456 390.25750814703775,212.86548147613797 390.69598355781824,213.08794509004264 390.7925747031733,213.14135869060848 390.8185680813665,213.16927520659536 390.8201810354915,213.20569075073112 390.47383012749407,213.6757428429639 390.47190698961225,213.69416774348525 390.47414031089824,213.7193546445719 390.4735199439136,213.7377795451373 391.6881365353334,213.7288462599933 391.79967852577806,213.72847403979367 392.3179951724449,213.72692312224373 395.17950009586536,213.71947871798645 395.31194845494656,213.72071945204402 395.3750397810116,213.65731794244255 395.56946280569116,213.48516609395978 395.72455456103654,213.32244382419117 395.7686626563469,213.29210787684053 396.00899284036325,213.21046757679548 396.1401384287237,213.14687995711623 396.2471517400213,213.06257207887822 396.3360503342018,212.867714797424 396.3750093832041,212.7093350968128 396.4225915335935,212.56274236961633 396.4658931518414,212.5034352823431 396.5261928262108,212.45293740679935 396.59548782247555,212.4134820642269 396.7368074301257,212.36949804241928 396.80207004072537,212.36987026261895 396.9342082164024,212.41038022912707 397.0139253786097,212.42626162487005 397.1117572579342,212.4248347807347 397.22391961536357,212.39654604454822 397.4174120893016,212.32780937856086 397.5788936251008,212.2552884737376 397.69180042301764,212.2191210763869 398.115014805128,212.1154577471064 398.44604264788023,212.05038124654044 398.62867869896877,211.9910741592672 398.8242804208664,211.91117088689396 398.926827089592,211.88064882942146 399.0316070794273,211.87202572785796 399.1417222258248,211.88238585709325 399.38006723538433,211.9380327789451 399.64539821062993,211.94957160553065 399.8807654585923,211.9730214789455 400.0857347223645,212.0210999231255 400.1714694446938,212.05435159545414 400.28754011463815,212.12228178433492 400.34262870612446,212.13394468433506 400.4502003476554,212.13642615240613 400.4958593603394,212.15361031891396 400.53134435408623,212.18431848646426 400.5792987248076,212.27700131948066 400.62439940725824,212.3333306450686 400.7399117466166,212.43587731370607 400.83482790091904,212.54127767065833 400.9818548851106,212.72881462126986 401.0414721557439,212.8409769787874 401.0821061957989,212.9757206958619 401.0914117010984,213.06300633578516 401.07273865374793,213.17132241775948 400.9940761154322,213.37244540612073 400.9501541301997,213.4541477428731 400.90610807164063,213.51587426151008 400.82688720309164,213.60049232324042 400.79574477859035,213.61910333388363 400.69313607311335,213.63883100516983 400.6054161763272,213.6620947685069 400.505847269375,213.72729534244337 401.2709459170871,213.72121574565824 401.2588487600919,213.9516200574344 404.55541707596507,213.8413188010032 404.6477897254009,193.87896267188862 404.6474795418204,193.2925297264395 404.64233049568867,183.46039483877405 405.87506180422565,183.98702440337982 411.3341675202207,186.2393289117605 411.3812533771282,186.25980102344602 413.32641417307843,187.1108205036092 413.346389991326,187.11956767863134 413.74255637135155,186.53226621932433 414.95351279726185,187.0690077663362 414.5438844529453,187.66753786873645 416.1962940515858,188.3640859604949 416.69662005446196,187.62119645222825 417.92165881182433,188.1350464561468 417.4282188830603,188.88916460755073 422.01322746576517,190.81230237430964 422.2476021264109,190.44814693268742 424.4800548901349,191.42113056923787 424.2462385597225,191.78367305664693 425.40061751352425,192.28976847281584 425.5782906283825,192.3676865706882 425.947595116401,192.4884720298133 426.325150485651,192.53158753780707 426.73688807775085,192.55844942981415 426.9270926065112,192.5243292436276 427.48077017342223,192.3381571004882 427.90230956447994,192.27847779301536 428.1981625970658,192.28877588558743 428.4328474412921,192.29361474835906 428.6472462838666,192.32668031056582 429.0279034882165,192.4222788686043 429.1048910356559,192.46173421117675 429.2465828634616,192.50106548033457 429.3859793330536,192.50069326013494 429.6748222183773,192.42711773137597 429.7800364651195,192.4212862813759 429.9026209886678,192.4517463021411 430.179552827074,192.60206123146622 430.6420364417672,192.95132786457387 430.8154290243075,193.07335405771246 430.88553049763476,193.1160973455066 431.13783376531995,193.2925297264395 431.77029794369673,193.73509955959236 431.9033046331876,193.80222327132248 432.0641037650744,193.8834913511238 432.3091487386682,193.9292744373105 432.46976176047724,193.9344234836186 432.6580431515321,193.90532827028144 432.82920241278646,193.86246090911683 432.9170463830753,193.87555065325233 433.35099311470873,194.04652380438478 433.7050986106321,194.14057144487333 433.79492775520146,194.1645176119024 433.9521907952578,194.2058960922244 434.4418464851859,194.3309620837556 434.8059398901449,194.39318489605085 435.1271038971879,194.426994898701 435.4703529702618,194.51210925404555 435.87985724125195,194.66577416529967 436.09313942318346,194.80051788237415 436.333283497122,194.42625045825764 436.37112588565765,194.4033589151643 436.5071103367456,194.37116186677136 436.59141821485133,194.3679979949642 436.686148259076,194.43369486251493 436.728023032924,194.5258814019171 436.72150917932015,194.59753379292653 436.2146693228401,195.38626842408718 436.06491272370425,195.3402371911154 436.02582960137556,195.42708857413174 435.99859548903663,195.60494779919998 436.05616554881436,196.02425386905983 436.2253396356118,196.3342512697169 436.53465463248875,196.79301268214917 436.7296359872253,196.88364830400144 436.64582440277786,197.00524024023315 437.469547733983,197.35357632281963 437.7133519734311,196.925150857738 437.6322700037516,196.88792883645158 438.28377944963444,196.03424177809546 438.13042472191677,195.96320975411484 438.3542531432936,195.63875780185012 438.5383160386056,195.72486474446717 438.3658540066305,195.9752448743587 438.58261024399377,196.0759304419539 437.8565947186104,197.03421138011163 437.8007616866367,197.00772170830422 437.57172218237673,197.37057437920564 438.32751532478926,197.73597055488543 438.74061772436124,197.7806990171364 439.09701857814565,197.7857239900299 439.3764939214184,197.7620880064932 439.56055681655414,197.68559675271214 439.7600668507904,197.59893147981768 440.1078446030113,197.31666448502557 441.218611755161,195.68714642956655 442.1052403021771,196.0969608839609 441.73091084152964,196.68630955443206 441.878123935799,196.7781859103419 441.9446272805444,196.8987852593011 441.9875566784604,197.23186031317337 442.0236000022643,197.3985529318557 442.09332925561233,197.51294861065927 442.24066642320804,197.598559259618 442.4006590780324,197.62114061917495 442.5270898769916,197.6151230590971 442.7074926067942,197.50004497660154 442.84726129671805,197.3962575739065 443.01389187882535,197.2402973046591 443.1679910468541,197.17106434505754 443.3773649166233,197.14190709505718 443.6011933381765,197.1469320679507 443.75336936849976,196.91051019600852 443.961192320719,197.00108378115348 443.2629692379079,198.08523718799307 443.8727900201968,198.35075427322832 443.2988884885617,199.24048465552056 443.5967266954281,199.37038950982338 443.28306912948193,199.8566952179988 448.1626279740518,201.98182448697688 449.41713416503916,202.52793357603971 450.2067373099696,202.87260949320486 450.5780269724449,203.03421510233048 450.67492830120415,203.0764000598031 451.0612928822718,203.24482970611314 451.11129446420136,203.1619486720546 450.9013622640225,203.07695839012462 451.2330725105108,202.5206752819043 451.91237439896594,202.79450528521065 452.00301002095046,202.6790549824714 452.1285102693445,202.60442482982077 452.28862699767154,202.50051335371114 452.53993767804013,202.4136619706948 452.7426736205263,202.4069620068368 453.00819070584976,202.48115790262457 453.6489057656345,202.81659035115337 453.79258276789704,203.01920222040133 453.84556211160003,203.13880898213208 453.926333897699,203.31182934447278 453.9762734430535,203.55277989560608 453.9773280669451,203.78808510690524 453.9992270227219,203.9721480021732 454.0342157228105,204.06433454157542 454.09023486486194,204.13846840065588 454.20289351594965,204.24715670282987 454.30823183619464,204.36781808854042 454.3432205361069,204.45932222420655 454.30928646008624,204.6094510434098 455.9042500724518,205.29731399689746 457.19411718368326,205.8491304625458 462.4589239486778,208.09082669486205 463.61578437041845,208.58333607328123 463.92993823002297,208.71776960681927 465.02364528912346,209.18459579053763 465.1107448189249,209.22181781182405 465.11632812213986,210.28487873994933 466.72158982694526,210.2794195101489 466.7232648179979,210.58339935068406 466.7453498838525,214.64128207530115 465.13202340771693,214.64748574550086 465.1346289491585,215.1172276541972 466.7276073870672,215.11121009407526 466.84429842381996,237.16488548951781 465.02364528912346,240.17782200303859 462.11604709575954,244.98982287897144 446.7641966339728,270.3955894385922 446.4821157494348,277.647121590069 446.50469710894765,283.32881499351555 446.50308415464633,284.1151301933124 446.4994860258882,284.3963425641688 444.8849808525346,284.39137962798253 444.883305861482,285.60711288008946 446.56840880217374,285.60252216414693 446.568284728671,286.0801427340075 446.5746124723734,287.11975378871796 446.56946342606534,287.5436505745203 445.324386813704,287.54712462986384 444.87486886999625,287.54836536387734 444.8725735119589,291.1609486403973 444.8570643364596,295.13712902826205 434.7453920689464,295.1502808091048 425.41860815696236,295.176274187298 413.32641417307843,295.2152332362562 411.68175916236385,295.22056839264206 370.83989629960195,295.4049414714465 367.41354720284056,295.5155529114141 367.4245897357678,295.31070772088015 366.58951368823125,295.3265270799159 366.51544186581395,295.3279539240953 364.71203493406813,295.36219818365237 364.6931137400648,292.33846728398936 364.66668610496464,289.04289155547684 364.63529553363423,286.93643533384926 361.62918305738606,286.9509519221642 359.0596848907879,286.96317315248587 356.7107272003889,286.9665851711221 351.8123712351421,286.9734712450579 342.4288237407955,286.98550636525766 338.29475994602194,286.98693320939304 335.47593627351205,286.9717962540934 334.51821366567583,286.9667712811999 334.51926828956744,286.87613565934765 334.65270923596523,286.875763439148 334.649545364114,286.47804614166074 333.5539772040594,286.4840637017386 333.3466505454984,286.48474610547464 333.34962830709554,286.8509487583051 333.4827590699128,286.8505765380614 333.48263499658634,286.97589067642167 328.90035602882585,286.9634833359782 328.8227481144018,286.9638555562219 325.07504890051956,286.9708657035282 324.9934086004304,286.97105181365004 322.4547426749294,286.97626289662134 322.30511014929624,286.97675919023555 315.40321685125895,286.98420359449284 311.2337921362413,286.9886702370648 309.93188990476597,286.99003504453697 308.6646041530473,286.9912137418432 308.7137992580907,295.4344089049833 308.422661014906,295.4358357491186 308.3728455428779,286.9915859620869 303.24929634878214,287.0067849540938 300.11817991779816,287.134518523818 299.61320116209595,287.1551767456694 299.6166131807763,285.38427704598513 299.61828817182897,285.27403782626124 299.6458945041472,272.9562783934169 299.68212393820517,258.1484277728215 299.84255085011273,244.98982287897144 299.9888333936405,232.98398398457778 297.2643675451997,231.68468729467625 291.8102868018337,229.0842948504941 289.4270228152585,227.94691395321055 288.77569947945346,227.6367304424316 283.0096981977689,224.9915474992912 282.4910093309465,224.75202379229324 281.26752149113406,224.191956445237 276.78363273275505,222.13271015397552 274.7760630144758,221.14874602111695 268.4397583299143,218.0416998304444 258.2346587888972,213.15413825125162 242.53422409765076,205.63442143639074 232.78751374891038,200.96094851632424 229.74082926953494,199.50134898806195 222.9495474112008,195.63274024177227 219.3197179314657,193.2925297264395 206.5374276730285,185.0518223591328 202.5601306244767,182.48784545913054 197.08197964079926,178.4347395605778 195.0450665622215,176.92693751476506 192.12592954244832,174.6194823781467 187.40425410491946,170.88871918403137 180.27350741252368,165.069304301781 174.59020105481994,160.43032378814476 160.5733804234667,148.939761741805 157.42849184443486,146.23769114279924 154.84013452040844,144.01200037964054 153.1720916729422,142.5775257157576 152.20047284373166,141.5952986105267 148.4659254109126,137.8196828807458 144.09748695531695,132.34494391570465 142.26566721419047,129.6704796491493 137.71111865207456,123.0274034724011 136.90985260705585,122.10367697733686 130.99738267158943,115.2865258144004 126.23606578132222,111.10252247431643 119.3361576577418,105.9189837891673 115.14874229910968,103.56853721796976 109.00878377675694,101.10425329833424 104.07345393678837,99.95657430847861 103.14290340453971,99.81494451746835 93.60134842982565,98.36260328334149 91.99869226628552,98.11966755770725 79.43458508925876,96.36880571280159 71.37148880023526,95.24352197246917 59.207146131992154,93.41002724029002 51.44567228867099,91.41312783465027 51.40429380830492,91.40239548521535 47.50051025193705,89.898067494658 46.93250220692114,89.67920200946739 46.64297691803771,89.56716372536441 38.92629357376298,85.52962903910641 35.13858068716317,83.00851950026876 31.638718098570443,79.6844068887847 22.28668524888069,69.8309313756199 16.12265648621654,63.12234444139878 7.428895083019003,53.024134138220674 5.684919312005044,50.99931821663814 5.53156458428736,50.821769175062244 0,44.21486039566474 0.3239556587386685,44.05120757541906 2.886443677898312,42.7673580243536 3.3757891844222048,42.50550110453972 3.9478916516782347,42.19866757568978 4.401131797646867,42.214238787940424 5.08353552137817,42.23663403741956 9.327900572626987,42.99484661115177 10.918459579171897,43.03281307283747 12.858843548969629,42.979337435608414 16.303617546252404,42.886282382348284 22.6089659165667,42.74669980250217 31.755905428805182,42.46579761518223 35.06283387386955,42.10226254054473 36.01751668318098,42.01603152455717 40.6133816889116,41.597283785018824 49.848227208190295,40.137746293419745 51.44567228867099,39.8858152459783 57.67347478113627,38.903898324283844 59.360500859533516,38.574731582662054 61.280350681202954,38.200774342081985 67.597548061507,36.97040042828966 71.0475331416729,36.0123056002097 72.06766467183812,35.72792935754618 75.51243866894458,34.38378013197909 76.21202655922782,33.99263872489116 78.62289687829748,32.648489499324064 84.00799280880295,27.547707774862992 86.00011538833427,25.2179194254728 86.5291643843479,23.8789192461697 87.12018804560725,22.390038394492493 87.84911929601269,20.029169657352387 87.84911929601269,19.103830207986846 87.73714304866108,18.180165749629882 87.20461999739204,17.032486759774248 86.86168110789868,16.14672672643978 85.55028726104601,12.769200514389867 84.12176812053363,10.080964099962962 83.30840491869603,9.074542680917943 81.40077632734824,5.8676173998008565 79.21571960411224,2.7037455899261804 78.87278071461887,2.1436782429140098 77.89743968332377,0.5531192363691003 77.55964984013849,0 85.12465344757187,0.532461014561749 89.68788714782633,0.8960581259065394 92.26749729678654,1.1028264541459918 97.77846569601792,1.54223241553577 103.14290340453971,1.8505548252283508 105.42101518094768,1.981700413588755 106.24473851215281,2.0281659035115336 109.9496944381968,2.241944379101343 116.59798169800446,2.779554439971168 117.93524484972393,2.886381641102866 118.82789095703826,2.9587164358042783 121.34893845890414,3.2413556507960055 122.10715103268043,3.406807535464835 122.31571842538712,3.48267842217303 122.69823673086748,3.620461937684151 123.17213509864347,3.927233429826804 124.50077514862312,5.087009576589507 125.96893574187385,6.744754331527752 128.5314237610335,9.052147431438804 131.5901433606528,12.562432186106335 132.44321005198015,13.46196436735645 133.89244945105125,17.47369178549902 134.6076085534088,18.76436537383706 135.02288223769173,20.061925036066803 136.14810394127278,23.591130984913978 136.90637855180043,26.632666418069523 137.06668139020528,27.116924915080784 137.54746583191704,28.573050388043576 138.7071799419284,32.62262019454543 139.8962374120619,37.18579185813668 139.93190851571026,38.200774342081985 139.94276493873608,38.510957852860926 139.87210513482285,39.36396250748098 139.68252097304716,39.76720107147597 139.25688715974934,39.93259091943751 138.56933438970998,40.09804280406226 137.7403999754454,40.31175924298886 137.50261329611922,40.52373865424368 137.47159494512067,40.735718065498496 137.45614780619647,40.832185137350834 137.5267455733583,41.49560563019521 137.57327309985615,41.94543375748347 137.7403999754454,42.46579761518223 138.07124170811986,42.512325141768216 139.61186116931026,42.13321885492415 146.03265984223157,40.832185137350834 150.47175810156415,39.765526080511464 151.80381017022415,39.43294732025338 154.62641808157,38.72808631042382 154.84013452040844,38.674486599736106 156.63063781809655,38.226581610197414 156.71122349411772,38.200774342081985 161.21787972208733,36.75500899839855 163.895818043854,35.712482218710115 165.87236941113468,34.621628848056616 167.2199306554703,33.87718842219597 173.7596536864304,29.615577167732013 177.2198748224611,27.366808751358093 178.3210883223058,26.603385094654598 179.8857780239839,26.627517371805524 181.42459842097153,25.56253330593066 181.66071010942136,25.338518774476068 181.97089362011215,25.042107411568693 182.47059925600357,23.970237271758045 182.61359385453005,23.75658286953873 182.9927621780814,23.40160885980151 183.96462915394477,22.927710492069604 186.59777697684132,21.788592567114254 187.0716753446173,21.716257772412842 187.49730915809144,21.764522326670615 187.75929015123174,21.859252370851166 188.09013188390617,21.788592567114254 189.8202734702972,20.93564994920149 191.52969479812953,19.937851631764044 193.78199930642205,18.65400208069858 196.10496361862783,17.139313960905945 201.988028157397,13.13106059806287 206.5374276730285,9.717366988618172 207.60061267443615,8.919450925528473 207.86947974168854,8.717831643553016 208.98266632520205,7.509852979195748 209.5014172285995,6.78954483048603 210.19064498951525,5.829712974778363 210.37340511393018,5.410903198532729 211.73293944158198,2.2866728413523343 211.8122223470587,2.105773817891516 212.1844425599229,1.2527691632714664 212.5635488468992,0.06892277606512423 214.50740687212868,0.49455658953925513 215.0105865632755,0.5359350699053241 215.92047887371683,0.6116818831989455 218.16930932675393,0.49455658953925513 224.42980516144675,0.32215659427143484 228.36919778488792,0.6771926406718609 230.82994561256072,1.0476758259524352 233.392371594969,1.4354672511113589 234.55214774173172,1.6473846256588873 239.0790899711768,2.5710490840158484 240.86090813055006,2.9777617033544157 242.80302912815182,4.208135617190823 244.41424635650407,5.15593235269871 245.48090541334344,5.51090636239185 250.01653278127972,7.301285586577221 256.0633742135328,9.674251480624395 258.2346587888972,10.435565889456461 258.84987676414704,10.651267502839918 261.5139809014671,10.939117800847008 267.88657705683795,11.623196515498732 272.65298095666185,12.13158728966092 275.6755951957259,12.560695158434548 278.55509076276076,13.027707452274747 283.2716791909092,14.178798460722593 288.0019777301779,15.152402464345906 290.5574556020753,15.871035622091123 295.6324920950401,17.13075289600566 297.98808771254573,17.713153455833762 299.4270290188243,17.928606922388074 301.3363946379761,18.357652754498492 303.0286317992565,19.22101753835382 305.1154223862611,20.120549719603936 308.53612614305615,21.66799321811099 309.93188990476597,22.30666106681973 310.32135632093343,22.48483047538033 313.2525904977019,23.825505645647933 316.81970087152746,25.63834215597565 318.16726211568675,26.32421993496237 320.6401071001785,27.5787261259497 322.45126861967395,28.84874149243631 325.834005914607,31.907523128806996 327.67438672072194,33.96335740147624 329.08224763942695,35.53319614950651 330.2334627213775,36.81878272819968 331.57376567126914,38.200774342081985 332.3943251306231,39.04689292276625 332.9130760341969,39.70348937838212 335.48933620105174,42.967302315364556 339.1718968776607,47.23058856079302 344.5707649560377,52.51574336405849 354.8757435874112,62.319279332001 356.0958194087196,63.43593997076993 360.42809046700864,67.40113986232652 361.62918305738606,68.36767168189219 363.4368084846984,69.82230827401233 377.6466873332591,81.52658675923462 386.2233234426206,88.5900856664416 387.831438835873,89.898067494658 M413.32641417307843,115.14632286752551 409.2552555942922,119.53746675604857 408.89507050167185,119.96638851474442 408.40349167386194,119.68759557529592 408.8525133239114,119.23106748410557 413.32641417307843,114.35430029109908 414.58991568596116,112.97708550332521 415.06468256755096,113.27157372843894 413.32641417307843,115.14632286752551Z"/></svg>