<svg xmlns="http://www.w3.org/2000/svg" width="500" height="500" viewBox="0 0 500 500"><path d="M397.088712381476,24.453741786892735 405.089533043199,26.806623239303107 409.73289087911945,27.889526480143907 411.3008708241333,28.175888616646926 411.4995152737924,28.043435610820733 411.5151516000977,27.893453091247874 411.56963332877905,27.402626706490587 411.80537022964387,26.19302014030819 412.05463991509066,24.90950914415668 412.07427297031154,24.453741786892735 412.0994453522831,23.87330452789994 418.2133891547351,24.383623731906056 418.6261040262261,24.453741786892735 420.5058288437972,24.77319964528729 421.2381418098541,24.77319964528729 421.6380951953817,24.453741786892735 422.11854410789294,24.070055790117628 422.70283785987914,23.602578717702194 423.62993878270134,22.467086935571565 424.6545038019172,21.214638237798482 426.3762526414863,16.17981130110521 427.10660230204104,15.203978330136003 428.31228225701983,14.446492982356649 428.81481835702823,14.130751380883764 431.2553473780723,13.303007741996199 434.5742452737418,12.91153864112375 436.26093508591725,12.90368541896564 439.0636939790851,13.205613763663345 441.6502789084984,13.400401720378873 443.2493211521896,13.454953567121043 449.9709781370304,13.686693738771305 455.28824059912273,13.830856459798806 460.0212093092289,13.830856459798806 460.5081792010426,13.836676258344166 461.73131855180696,13.853013765157458 469.1365564545078,13.951669868484455 470.6772604764246,13.973055875274325 470.88761464118534,15.529326105186506 472.3152182404032,21.111424460920272 473.35296545384733,24.453741786892735 473.4352139323999,24.718647798545117 475.164815994177,29.835372623487142 475.4978066371037,30.663116262324888 475.60102041398187,32.42188743498917 475.6711384689686,33.63528037615401 475.501733248108,39.4161634177182 475.4569278111148,42.57729568966767 475.36149713813467,44.56009404794564 475.2231542159514,45.39176429788735 474.99534065520584,49.18984898112376 474.99534065520584,49.443045277624655 474.98559424560636,52.02773701969623 474.88041716322596,55.268663638220936 474.96610142620807,61.53055653683233 474.98559424560636,62.97190327466499 474.72854145606226,68.9280113355853 474.22593523814254,75.41785803086452 474.0702030380851,76.6703067286376 473.29189262795217,82.88543088455435 473.0670941437697,84.67933120277274 472.62878618224147,86.60365110320457 472.3016153377107,88.04303453553507 471.6705528430299,91.51584156178174 471.4290662616805,92.87725371696746 471.13688432663207,94.52110139755221 470.82135307929167,95.62160427025027 470.39678825647786,97.09212011897014 469.0625819066274,102.16396938870874 468.21527533048004,105.01742363547591 467.34658274754287,107.64103089808403 465.77088981634296,110.69502278205131 462.6545629815362,114.98204066260361 461.43528012366556,116.68822329402788 460.3620531745628,118.49179990383483 459.18953905938685,120.9790275495128 458.72984509086945,122.62098204260634 458.09878259618864,124.94848075911193 457.62162923228425,127.12410376855345 456.90677566181364,129.91907955747448 455.5765660412774,135.37272163649695 455.4031640913019,137.45873377170295 455.31558664052966,138.51443120725835 455.23572217594347,139.35781117235155 455.051662281728,141.31719010027672 454.9727093517823,142.15664345431577 454.9356870188865,144.71791576603457 455.12858178806096,145.32948544146655 455.4460763409035,149.6806613422888 455.70894892884354,152.2789559870529 456.86204034273175,156.62234878372803 457.2573659367471,157.96244505023444 458.2273791091709,160.1886231773032 460.0991104683129,164.21662496275943 462.4266793028793,169.2728379062426 465.30151955653594,175.87368148254717 466.94151074392806,180.04766905846137 468.00492116552,182.86985065276744 468.38860716234495,183.88473938029506 469.1950349125034,185.68438937899805 469.6390925545162,186.77311241843404 470.2720482365886,189.20978494653457 471.3978637271805,192.89294613769144 472.2471336090293,196.1495090824716 472.7808021252278,198.48675420857668 473.06821603254264,199.74887919793835 473.2053669480416,200.35077258178177 473.82471972762073,202.45620741817584 475.89327246714083,207.98193085768716 476.98592211753135,210.26658744260206 477.6325508206061,211.67287515299122 478.4154890222514,213.33432246538342 478.6940680546072,214.23414746471 479.6016761580312,216.46425220288273 480.63402428134435,219.52217069790416 480.9767613340698,221.61989254826165 481.3176051992044,224.10515688843745 481.5610550858567,226.64111658236203 481.806538396321,228.98032501401912 482.2817284549225,233.70544050196716 482.5875834105747,237.2679285205101 482.62846223676286,237.86000537664344 482.7998307631256,240.38621866091873 482.6342820351588,243.7342856674256 482.50568552257505,244.77834350584044 482.5524542650704,245.42497220871596 483.1056857187778,248.70691788935108 483.3140064601251,249.81317044253373 483.4055806398129,250.9661917383612 483.4055806398129,252.56144760687067 483.56720275657614,253.73585490948804 483.845781788932,256.6516441070947 483.914146892549,258.1805682955999 484.02114704440964,260.5665454699517 484.1437835225756,263.3167859397908 484.3794503053298,267.3953428429241 484.63853651828737,271.3938950453497 484.65410272668134,272.5216738413939 484.95399764771645,274.8570257800078 485.1858780554883,279.2705366317194 485.1254362919905,280.37096938630685 485.10398016728936,280.6183458842126 484.78648561424745,284.4164305674988 484.2606703200576,288.3722808744054 483.4893717156027,292.92799114154275 483.47962530600324,292.9902559743713 483.13878144066933,294.59918486358424 483.13878144066933,297.03571715556325 482.94399348410326,303.8605177994208 483.2867305368287,310.426302348232 484.0426732872214,316.61232751132235 484.8936260023293,323.5754009596012 485.4214747201319,327.88569803433495 485.82858014735945,331.3624316716856 485.9746360557287,332.63037645964243 486.25314497017325,333.01798906747166 486.1516140263549,334.07985689187626 486.1284750683946,334.3210630009328 482.93614026189533,333.6451950691093 470.6339275183587,327.0137099027909 470.6421313309203,327.1165730894649 470.64255203898597,327.43350669787117 470.6275467752774,327.87251584000705 470.58295169241666,328.42988425895084 470.51073009590596,329.0358444899201 470.4177535550028,329.6090595892519 470.37049398593257,329.9006104618032 470.08939070358844,331.4864705109174 469.90063289955077,332.7330292920843 469.87083272626614,332.9297104362911 469.49324700027944,335.41616678335043 468.9382625952024,338.2208889819208 468.45136282149923,340.5069479279514 467.7188395013099,343.91531646173485 467.2963782202194,345.67191397466485 466.71187411410074,347.9144296085469 466.5075501018684,348.5771854640534 466.3242615060722,349.17199692435736 465.86344564878186,350.50192607284987 465.4045229790824,351.70290811830534 465.04537830163235,352.64249005479803 464.44916448021274,354.21032976378996 463.910096873684,355.4830425794803 463.29011303170745,356.8466283943505 462.65323073843143,358.1732619942859 462.1255923747613,359.17938596496515 461.6251598164762,359.9633759375219 461.59963684454954,360.0034834649918 461.05601156441975,360.7654563682616 460.70584199795064,361.23349438516317 460.636705595715,361.20698976038574 460.4382715001884,361.4754016747775 460.3823172923804,361.44903728612167 460.25968081421445,361.61781144443535 460.1342396138172,361.58695950023923 459.9168035252678,362.03319080203613 459.9294948935192,362.19958094643323 459.99302185109275,362.3134526677009 460.0477139339066,362.3921952434643 460.08087977410804,362.37641868108733 460.02709922593465,362.2990784664396 459.9672885250336,362.19172772432495 459.95564892784324,362.03851977420595 460.1568176274906,361.62559454853266 460.27714020980073,361.65497401355236 460.2859049666491,361.6430539442186 460.97909205808685,362.31527573713134 461.6323819760874,363.1809532437546 462.7902414179085,364.71562711274436 463.2121417545128,365.33126363535206 463.4511742039845,365.8340100894431 463.60950077214085,366.35330440447996 463.73746622232716,366.96641667709935 463.75092888899775,367.54369862360676 463.752471486235,367.6075761716835 463.6652446258164,368.259113138414 462.97086552749516,370.6696316319912 462.96799068715325,370.6795883958228 462.1627549440776,373.8884710631682 461.8471535786266,375.04401660898395 461.6609901426878,375.72633540184984 460.6850169356469,379.3019354967098 460.0327787883087,381.89595294011593 458.79140874333945,386.2225875217128 458.71077297993537,386.5139280400818 457.84544606371566,389.64042199290253 457.5259180872603,390.7948456498457 456.47716233902327,394.720545193114 456.1970407096295,395.71194437227786 454.9499209839764,399.81202751827277 454.08725855376684,402.8265429372672 453.32121880322177,405.4847885190539 452.7645515648856,407.41612022496446 452.4164855401398,408.61184341631093 451.8694244751819,410.49065669904223 451.59049485247243,411.4487498020825 450.1149305038756,416.52368426624565 449.0806891931709,419.94600629297565 448.81304857729805,420.2507393598549 448.56819632943046,420.48128752457177 448.2961382761778,420.68617248114083 447.9400787932022,420.8507395561573 447.5298881715002,420.9632089163093 447.06928266834234,421.0488230614299 446.44186631262204,420.9727449717763 445.8047736652136,420.7980107788456 445.1180374347685,420.53696126018656 443.96277236124564,420.0085515979975 441.0819720731712,419.0152592313424 436.8305040464379,417.5178180495303 436.8202668104629,417.4938376747412 437.037282190548,417.10860908077876 436.98027621187833,417.08953696979484 436.75407536648055,417.49096283449893 436.88014762927526,417.79169917221344 436.87993727514277,417.837836852411 436.85013710185814,417.88222158118907 436.7860491995991,417.91111021983323 436.7219612973401,417.88285264368614 436.54708686823795,417.48878917476463 436.67189700603853,417.26265844752726 436.8752393655198,416.89495936731146 436.8182333868501,416.8760976105099 436.61559220787683,417.24267480185307 435.59635616088065,416.8780609160618 434.84847698682836,416.6045303836328 434.24637324890233,416.3192200179914 433.79705675258117,416.1080244364018 433.3896007351992,415.90916963256046 432.83805211475095,415.5566861702355 432.145075377645,415.08261800060626 431.548230493828,414.6093211295956 431.2357844407627,414.31854155566293 431.04281955347767,414.1496271612775 430.9968922275122,414.1095196338076 430.94437380453223,414.0004860583342 430.97929259570475,413.88394985100655 430.4642754819761,413.5295030831794 430.25300978237556,413.33548642508254 429.8546691121957,412.95860187965366 429.76582953662864,413.02794863602173 429.72165516183355,412.9877709904911 429.45170065030425,413.1629258917864 429.4969267957617,413.2115878219723 429.3106932417123,413.358695501253 429.14584569465205,413.44122445194904 429.0042773415739,413.49227039595183 428.85885249560215,413.5111321527534 428.65193411547017,413.52108891658503 428.48778774871863,413.5166714791055 428.31228225701983,413.4821733960485 428.30085301416125,413.47985950024247 428.10333045327513,413.43288040341537 427.4512325421581,413.2252608426757 427.0655131219197,413.10430719786854 426.8935836510708,413.0760496217215 426.70931340272284,413.07913481614605 426.5229396124523,413.11755951025725 426.3762526414863,413.2078715650506 426.2679202467202,413.30077798784316 426.2077589554655,413.3773469038723 426.2574025383028,413.39123027875803 426.08133610231715,413.71181002607506 425.9995784503394,413.6804672555034 425.9730738254624,413.72660493565115 425.9383653882231,413.7130020330084 425.9216071731448,413.74196078971335 425.9562454922736,413.7556338104168 425.92861897862355,413.80352444198405 425.9905332212479,413.82939800426436 425.58805558573204,414.46670100580536 425.5628832039597,414.5920019700313 425.57592516216613,414.7184248231298 425.61841670350276,414.7806896559584 425.7052929735677,414.8374151624348 426.48276196697145,415.169143680467 426.6468382156124,414.8960338563527 428.31228225701983,415.6418094889805 428.67752720550743,415.8052546750746 428.4596704086931,416.1509366860533 431.05018194931006,417.292668975044 431.3466410857164,417.4233690295005 434.8293347577837,418.9433181069751 435.2021524560369,418.9471044819077 435.6446675010118,419.1630680912308 435.8333551867396,418.8154227747001 435.86182311711883,418.79221369852957 435.91195752633166,418.7901101568561 435.9658783107262,418.81402041363424 435.9979923798667,418.8703252117461 435.83244365209913,419.23781393782946 436.2591821345476,419.4834374843655 436.64833733961405,419.7538127043092 437.0984952524651,420.15061077735146 437.19932501557616,420.2570499847758 437.25640111235646,420.22696933919826 437.40385938194106,420.4477710942658 437.4687185826194,420.60960356516154 437.4887723465038,420.7576928972432 437.48218124929,420.9415424373262 437.34180490329476,423.45660695083643 437.2891462438944,424.4725474492258 437.18593246701613,426.4625679671648 437.1284356619709,427.59869081179244 437.0916938013181,428.33002212504846 437.03202333623966,428.3247632709394 436.9368030175913,430.29143447658635 436.89143663611196,430.29234601127666 436.8828822335953,430.3698965800569 436.7509901720061,430.3621134759595 436.4168075221959,430.35783627460154 436.07147610137156,430.3533487191111 436.02814314350496,430.3517360038629 436.02155204629116,430.47794850277916 435.94477277617943,430.4752138986086 435.93397459571827,430.6785562580401 436.0106136296088,430.6815713344039 436.0038121784618,430.8077838333201 436.04693478219593,430.8092563124966 436.39086384180496,430.8244719303874 436.7184553946007,430.83870589557705 436.8706115738082,430.8441751038684 436.8721541710454,430.92733511706143 436.9192735040937,430.92635346426056 436.94192163587775,431.32834027340095 436.85714890733686,432.03541073962475 436.75547772769585,432.0328864896863 436.7494475749682,432.14654785677163 436.680241054622,432.1440236067834 436.6746316101593,432.2499018697714 436.74355765826243,432.25242611975966 436.7375275055348,432.36587713271257 436.8103801646422,432.36980374376674 436.79137817181874,432.6882098313494 437.750032219096,432.69732517850167 438.7393278567857,431.0076202899624 440.2458142676394,431.0233968523394 445.9988604414709,432.11597638481857 445.57660951431365,433.47570570669535 445.01040622051045,435.29919584406593 444.019708222004,438.76421976626506 442.67351168460954,443.4267198311305 442.6721093235935,443.43092691442774 441.7855366366058,446.55454602695636 441.3092246892313,448.2322607281011 440.40708579404895,451.39556665978483 439.6560513072124,454.06376900530347 439.50403536422607,454.63985894492737 439.40236418458505,454.91857821340477 439.26261890098726,455.22380210665955 439.1017680828426,455.5171059305805 438.93222262596015,455.8092878656289 438.7030067041985,456.0827482799474 438.42681168580907,456.3421850833583 438.18644699343196,456.5595510537472 437.9122152803454,456.7738318297116 437.5929677761331,456.9742292307902 437.2401337234545,457.1746967499295 436.8071547341459,457.34101677631566 436.3780322377311,457.48020111542735 435.73287601398215,457.59091752420966 435.10658154703486,457.66159652358283 435.39399545434975,463.42747430138866 433.8463497452641,468.26015088563366 433.85883075898437,468.29009129508967 433.961273237244,468.5345929527531 434.0512347017833,469.21564962062484 434.0255714938347,469.74216609537257 433.9562247374667,470.45779096431227 433.7404013642651,472.2584226158162 433.74587057250665,472.7442005005969 433.50017690790986,474.72798051167575 433.1930598270642,476.3523353729619 432.89078089226194,478.1901997116436 432.58345345728384,480.2659044927639 432.64284344972066,480.35509465868466 432.49720824961634,481.3679499626494 432.3600573341174,482.32386940595535 432.17929298850885,482.2095769763729 432.122427245861,482.17199369889124 432.0722227185376,482.5425676193992 432.1292286972073,482.57706570245625 432.3080297373137,482.6851176251287 432.24534419627,483.12111169090076 432.0824599545126,484.49577615847517 431.892580261702,486.0983944227672 431.59948679181383,488.38515454930587 431.2848670793132,490.45230492771026 431.2211998853191,490.8335367925579 431.0937953794197,491.5958602861315 431.0854513310355,491.6460648135047 431.05081301190677,491.9074649223679 430.76367957663564,494.0676619597363 429.98263456258127,500 429.5725140589899,499.99046394453296 428.31228225701983,499.963819083634 426.8203102834991,499.9320556047476 425.77246607030116,499.90863617439476 423.70202014319017,499.7450507521294 423.141075703496,499.70024531503657 420.7980107788456,499.4197730951895 420.41425466391007,499.3730744705556 420.05784459058077,499.3458686652204 419.9682337161958,499.3399787486142 415.7806432377884,499.0244475012738 411.29505102553816,498.6874601291326 408.98501170486793,498.5062750751096 406.1374473747069,498.28238812561744 406.08485883341706,498.2784615145135 389.9401766777663,497.0104466085457 381.5903083385464,496.3268656906857 373.3378339774102,495.6646006615547 370.918690963156,495.5632800721179 369.8805931593582,495.47198636457347 368.79180000206077,495.3763453376103 363.6692553786232,494.92843120250444 362.43643973617066,494.8193275089703 361.40991141145264,494.5719510110646 362.45607279139153,491.9074649223679 363.17653580632486,490.0726857781607 363.7140608156164,488.7560790600678 365.0599768805685,485.7039803635917 366.6862950475561,482.4590570159521 368.3730549776428,480.07693633464356 368.8560982584522,479.39524860427474 369.870846749958,478.20134848240855 368.6223246630896,477.5235172450331 367.45766377012154,476.8904914448501 368.01657478640226,475.83872062034885 368.9768415490273,474.25131797399746 369.8805931593582,472.9315559434691 370.08120091471875,472.6386027098519 370.3752760371587,471.12524472954135 369.8805931593582,470.13580885592944 369.7754160769778,469.92545469106904 369.21643494278584,469.3683667443683 367.06423136369716,467.85115227101454 365.3851844195971,466.9279078413352 364.7834312718254,466.5948470802481 360.7594262156834,464.38220173776125 359.08044938949473,463.3635967533119 356.9535584282002,462.0761591461063 353.7183814902099,459.9278120600608 351.96346681063864,458.7610476254691 350.2124787418724,457.57296730214824 347.450598675092,455.7011658248458 345.9955789163566,454.64364531985996 345.2399166380077,454.0923771717544 343.7031392274938,452.97245159786826 343.3331262512727,452.7017257876207 341.0134106389143,451.46098680504895 339.42986448570576,450.7150709363494 337.571736029057,449.69639583378944 337.20361624062605,449.4802218703339 334.728028191989,448.02134561875454 330.9046308908089,446.25864783503613 327.5409976762568,444.9828498249212 326.42296528976226,444.55828500210737 325.16469679349365,444.46678094038066 324.00781900462295,444.89527237429843 322.85472759053545,445.5594305909206 322.13209091616676,446.01519794818455 321.6179152191673,446.2625744460903 321.1621478618535,446.33844218156156 320.7063805045397,446.2819971473282 319.7539669641226,446.01519794818455 319.03133028955466,445.75414842952557 317.10112047241705,445.668464166394 316.24610091028296,445.8262297900642 315.88387103835845,445.9976684344379 315.7318550951729,446.33844218156156 315.5799793880091,446.88971032971693 315.4670192015314,447.6882848576675 315.50986133322175,449.7587307846788 315.4670192015314,450.5670517223285 315.3150733764564,451.2136103071432 315.08718969779954,451.68894060171675 314.74438252716277,451.9557398008604 314.07833112299954,452.6023685037359 313.47061794061074,453.1146510133438 313.12781076997396,453.55288885686105 312.91745660501397,453.9501777562789 312.72855856495437,454.4079084190948 312.679756398647,454.9435402409449 312.4656158589038,456.2309778481506 311.4488339437853,457.80975597372526 311.30670464642037,458.03069796491434 309.9335126577733,458.97336509588143 308.67720746700684,459.49539401508883 307.3488910338621,459.70960467299244 304.7311736878601,459.8381310677645 303.27426074173314,459.66676254140174 300.6585067014326,459.1954289759431 297.25378430655985,458.04430086760686 295.61000674398605,457.68592748867576 295.25941646905267,457.7092768009678 294.23492156814666,457.7755383629113 293.30971383271606,458.0150616386589 289.8894953477592,458.5098146345201 289.43372799044545,458.5877157935543 288.7870992875699,458.5488002730676 288.42486941564545,458.4163472672414 287.82690264285617,457.9411572087396 287.3224032373456,457.541834885709 286.86467257452966,457.389889060634 285.9142223396147,457.4834265459237 284.90529364670414,457.5612575869469 283.2965049936127,457.843693112346 280.8384464588718,458.54487366201346 279.9015290083395,458.66176045959514 278.57524599860824,458.31117018481126 277.52144175059385,457.7658620713227 275.84253504251575,456.89906267587673 274.08958366844666,455.9953110654462 272.6248876182223,455.2395786690365 269.140370876874,453.4379653647815 267.2978787465305,452.82436226578665 265.698766384928,452.66077684352126 264.33146431318596,452.64331744783533 262.54534709911474,452.6198980174825 261.3572667757441,452.4153636511675 260.9423782446185,451.5818002137346 259.65690394296485,449.1354513940953 258.9343373865075,447.805171655299 258.32080440552346,446.25864783503613 256.88534758429694,443.39544717861963 254.45652827835454,441.3328544737664 253.84103199186842,440.10578851189814 253.0171448459244,439.7388607302511 249.7040667490494,438.2632262635437 248.1868522756458,437.7315210527477 246.58963310163415,437.03426711418416 245.36263725797608,436.24151238472916 242.0689818619902,434.81965846619516 240.2673685576356,434.4924175036535 237.54636731684408,433.81465638438857 236.03378063515214,433.47570570669535 236.00762660062875,433.46995602616096 234.4261138708337,433.35888902712463 233.62753934288315,433.35888902712463 233.36074014373955,433.415334061358 233.24946279052094,433.47570570669535 233.11336364588365,433.5497503727362 232.71411144086403,433.79712687064193 231.53374410348016,434.348254782626 230.58518705615606,434.735867390505 228.8634382163876,435.3085215454005 227.03644217612822,435.54811493920886 226.7696429769846,435.48970659942347 226.50277365992972,435.3766762948352 226.27488998127285,435.03393924215953 226.02751348341695,434.69702198802923 225.70623255559195,434.25478741539706 225.3438624474463,433.91205036272146 224.983595881024,433.77959735689524 224.41290503173033,433.6840965660038 222.8839107251145,433.5068381230848 222.59235985266284,433.47570570669535 220.5876145431587,433.26149504874195 218.0203821967232,433.3744552353193 216.43304966833296,433.45039308885134 215.4436137948207,433.27902456248864 214.0354328968905,432.9186878780554 213.33221892380953,432.86224284377215 212.9135440175022,432.89141195465936 212.66034772105115,432.1590989886025 212.66034772105115,431.24560096852264 212.6778071166374,430.09643616573834 212.21425665542557,428.9141756409629 211.8481001722975,428.0843985785124 211.4916900989682,427.2682945367654 211.35334717638642,426.4580804116743 210.45737867015288,423.2190469806408 210.118568228631,422.35617419624896 210.0172476391444,421.96856158841973 209.9665522854454,420.91882418753124 210.0172476391444,419.6975079061475 209.8829014458768,419.24174054888357 209.67836707951193,418.8016095178751 209.35694591566505,418.3107831331178 207.86504406005565,417.06233116450943 206.2775712956435,417.1401622054829 205.10898379167116,417.223953281173 204.6687826425521,417.1888942536797 204.34736147870518,417.05447794235135 203.7202255950287,416.66497214698103 201.6401033764288,414.9742856056907 201.4141830032741,414.3412598055077 201.22325153980105,412.7013387359771 201.20382883851335,412.55135621640426 200.8551317511708,409.9588813701855 200.15787781250762,407.75016263885243 199.38075940945757,406.1939625269512 198.98732700303313,405.70502932968515 198.23348779396522,405.04872433522104 196.42998130221903,403.6561096455852 196.16114867966198,403.5567523617004 195.41712599850342,403.50612712601236 195.3352982282158,403.50416382046035 194.58545574846207,403.49308516775613 194.5445068043626,403.49252422331983 192.5598152585436,402.9899881234111 190.46994663034423,402.3589256287302 187.55023082158374,401.4745967195376 187.27761182384498,401.39283906741036 183.91587179668443,400.61572066426066 183.42504541197698,399.79765331696166 185.52466044977587,392.8540025699704 187.23476969235392,387.19386281908095 179.1185347122755,385.3591537928846 178.6628374730723,384.81377556138517 178.74459512505007,383.0141255626324 178.5108215296874,378.8771603197635 178.3531260241278,376.0938241279332 178.31224719813892,375.379040675623 177.7609790499337,375.2621538779915 177.12213345115552,375.1278076846741 176.31773912460983,375.05768962973724 176.16677495228586,375.04401660898395 176.0158808980725,375.03034358828046 175.41398751427892,375.03034358828046 175.02251841335664,374.9310564224564 174.51801900784608,374.6934263342 173.97264077634662,374.33112634416494 173.4682816070572,374.0370512216752 173.00851752062854,373.8402999594077 172.73589852288976,373.7254465853889 172.37163522735253,373.5988133781081 171.88080884264505,373.47414347642905 171.06863141200202,373.3611832898517 169.7402448607467,373.2773922141615 167.83541777951388,373.3066314431095 165.96172311467043,373.2910652349148 164.4619680370524,373.2304832353952 158.2506302561181,372.9794605986286 158.2506302561181,372.54900585920865 158.89536577140274,371.25182184235365 159.154381866449,370.72782961759424 160.91322315722388,367.35052338218924 161.4448582500089,366.2442007109458 161.85203379534704,365.5878255984708 162.45974697753655,364.7853945774272 162.87652869625302,364.2321631237697 163.32829932445188,363.6361596565822 162.2064104450636,362.88049737823326 160.77691365845413,361.9182673099566 160.22178901735515,362.44611602770937 159.13096243624565,363.3129154232052 158.30321879720864,363.87575305039053 157.6176745740457,364.5476943711101 157.36447827759463,364.7288794251331 157.16969032082926,364.76975825117177 156.9028210035751,364.7288794251331 156.56001383293832,364.66850777979573 156.3691524873766,364.71723982799256 156.1315223989209,365.0249178531748 155.192711760997,366.2559104261471 154.55582946792032,367.16940844622695 154.28117704656879,367.5608074290387 153.31116387414494,368.7411747663229 152.86324973903908,369.3703440735125 152.68402799066772,369.74814015363165 152.61201674809018,369.9020492843085 152.26142647335607,370.30712128782363 152.02379638490038,370.3909123635138 151.4102634041157,370.3772393428103 150.79476711762956,370.30712128782363 150.36038576710567,370.15335239326834 149.78969491781203,369.9448212978384 149.10029420135677,369.6916951193983 147.7407752337121,369.1190409645028 146.6908975967021,368.67105671133623 145.2047454215773,368.02246470290874 143.22594379246405,366.7330637902009 143.05450514819003,366.59675429133154 140.20504763043812,364.3139908939078 139.17662611832856,363.3673971518866 138.6994026363136,362.9330859194235 138.04106421813717,362.1773535230138 137.40803841795417,361.4800995844503 136.15369653268988,360.4384257599022 134.85847582143668,359.3628849147941 134.38517895042608,358.95781291127895 133.9645407386166,358.6363917473324 133.2925292998363,358.242959340908 132.29916681512043,357.68397820676586 131.41687132969,357.23599395359923 129.87034750917803,356.33616895422284 129.74567760759865,356.264087593734 128.57905340912845,355.7440920980895 127.86426995676842,355.5629070440665 126.82799522245092,355.39350182325575 125.35944267933286,354.80717464765684 123.7486206024294,354.03783934860445 122.57224999435971,353.61713101883385 122.05029119326288,353.39121064572896 121.23804364450923,353.06978948178244 119.99155498145286,352.70748949174737 119.09558647502001,352.45429319529626 118.34181738426197,352.10566622601453 117.92110905454119,351.6849578961941 117.61336091109884,351.3070916980142 117.43028266963444,350.8045555980556 117.13228093619016,350.0702793264965 116.85762851483862,348.3913726184184 115.65980178186848,348.04274564913663 114.56126221477223,346.9442762000514 113.4627226474767,346.1475948595422 112.88817530528931,345.8145340984551 112.27464232430533,345.0665848061926 111.11573111182192,343.65251399170614 111.0572526540256,343.61941826976476 110.81036698234595,343.48135581952573 110.40284084705274,343.25326178673635 110.03479117653309,343.0448709273781 108.81740150605407,342.35729328040316 108.61679375089282,342.380712710756 108.27202327475389,342.4235548423466 107.40340080972798,342.5287319247768 106.89504491132368,342.58910357011416 106.34770337432207,342.6553651320577 104.6473405413435,342.83066026947455 104.07082989345467,342.8909617967511 101.02069450263023,343.20649304409153 99.08852137979117,343.40513749380045 97.3842319358083,343.40513749380045 96.5837642204662,343.35843886916655 96.16494907813698,343.24547868263903 95.84163472669923,343.1052425727155 95.5904718538609,342.9942456916901 95.31974604351369,342.7683253185852 94.33416666289516,341.94436805472986 93.82384745898868,341.5158766208121 93.6309526898142,341.3562178097005 92.87332710596313,340.48948853226545 92.73119780839892,340.4076607621273 91.86054191995954,339.90316135666654 91.81180987176273,339.8758854332705 91.49824192992449,339.69280719175634 91.31516368846009,339.58763010932614 90.83990351194731,339.58763010932614 90.43483150833252,339.6441452616203 89.95767814442817,340.1758504724163 89.71997793806119,340.1758504724163 89.50969389121174,339.95189340486337 89.28755989303946,339.66363808086913 89.24086126845539,339.6032664355816 89.22915155335373,339.58763010932614 88.95260594441133,339.25653265379106 88.52993430918839,338.7521033663412 87.98259277218678,338.09376494831423 87.48987319988845,337.5035812796721 86.74970701162364,336.6193224884904 86.91918235059481,336.40896832363 88.02746832729056,335.4701576857061 88.34874925511556,335.0923616055371 88.8064799179315,334.41838686120485 88.92336671561283,333.89839136561017 89.04992980478306,332.9323048042903 88.93696961830535,332.2466904628673 88.8259727371305,331.64486719708464 88.67213372466391,331.2397250755087 88.20661995775063,330.41583792966435 87.561884442466,329.5899874783178 87.47423687378246,329.4770272917903 85.52656766085931,326.9800532364132 84.99282902655023,326.2963320824814 82.3907480068535,323.4955364949652 82.33423285455936,323.42541844002835 80.66114594487715,321.3900315405104 80.36314421123359,321.0258383630339 78.69202060745211,318.9924147690679 77.72200743502826,317.8857415075705 76.60692000678695,316.61232751132235 76.32546613428845,316.2909764654366 75.80974784005174,316.61232751132235 74.02524334132832,317.7244699811111 73.37658121484006,318.0107619995534 72.91113756583809,318.2172596714204 72.60338942259501,318.2035866507169 72.21185020356216,318.06335054079335 71.7210238188547,317.78484162644844 71.27303956583756,317.4615272750107 70.39081419831841,317.18294824265485 68.79555832980893,317.01157971629215 68.55603505396168,316.9882304040001 67.81586886569687,316.93171525170595 67.36599142508888,316.8070453499771 66.729670076299,316.61232751132235 66.72321921530639,316.6103642058202 66.2343561359018,316.34545819411795 65.84288703517882,316.121501126565 63.51531820061246,314.56523089665285 61.24033790733593,312.94080591730597 61.20142238684922,312.91360011197077 60.8119165914291,312.6350210796149 58.636223464026465,311.9611164533434 56.620399501818085,311.6398355254686 55.0933685009037,311.52680522088025 52.55355231378645,310.7379771025292 51.908816798501796,310.4439019799896 51.5036746769757,310.2062017736725 50.99917527146513,309.80112977015733 50.594173385960914,309.4232635719276 49.978606981364194,308.59937642613306 49.421589152873665,307.88262966827085 49.06321577384293,306.64581729675325 48.95214877475678,305.9193241292417 48.68527945770188,305.38761891844575 48.404807237755165,304.65916244543206 48.11073211531521,304.3241383788428 47.59459311261427,304.0163902355998 46.431825407237106,303.02499105643585 45.85531475934828,302.53220136612657 45.475555373527676,301.7823588863729 45.37030817303671,299.9787121585052 45.475555373527676,299.21723008161086 45.38391107572924,297.89080683585775 44.04977484398935,295.90211856092384 41.67158077363531,293.39546821400796 40.6158833380301,292.50531950622013 40.029696398652355,292.072971579309 39.37325116806676,291.6425168398891 36.484737893806255,290.4524732110661 35.14478186347118,289.9791062219947 34.13774635795219,289.6597184816111 33.12503129005919,289.4746769345449 32.47833246927238,289.4161984767486 31.434344748768833,289.25261305448316 30.774113143400086,289.22540724914796 29.61520193091666,289.22540724914796 29.233409121483305,289.1376895624037 28.826373812565635,288.9721408346361 28.49520623891995,288.76767658638187 28.253789775681128,288.48916767203696 28.088170929802992,288.2086954521899 27.9733175559337,287.8132296222025 27.93426179922581,287.35556907744734 28.023872673411493,286.8472131789434 28.40566548264556,285.6727357582653 28.705560403879986,284.97344839613885 29.079570109016707,284.40275754674553 29.287960968275296,284.0872262994549 29.739801714584743,283.6665179696345 30.04951316332997,283.51267895706826 31.10324729343302,283.3763694581989 31.30778165959859,283.32378091695887 32.229062783825626,282.56608521504705 33.37037436450162,281.4909650782538 33.73267435453668,281.0936060607752 33.909932797405894,280.49570940609647 33.90600618640157,280.2190936792428 33.683942306339866,279.7224474959402 33.173693220344695,279.08942169570736 33.00421788137354,278.88103083639896 32.71596255752877,278.6356176439954 32.68286683543795,278.60637841509725 32.15698142333679,278.29281047325895 31.712923781323973,278.2031995990235 31.00192670394638,278.1876333908288 30.15279705831877,278.2187658072182 27.94604163243806,278.3882411460897 27.644043169679588,278.4641789996217 27.48249117102695,278.5596096724026 27.287633096350298,278.72123178911596 27.100698361792883,279.0075939255692 26.750108087058777,280.07885756931927 26.02550810698866,281.8298456378862 25.121826614569056,282.19600212091467 23.964808589676487,282.19600212091467 23.816789375605786,281.26890119819205 23.797296556406778,281.12284528972316 23.731105112424423,280.6183458842126 23.65124064783824,280.0203791114731 23.58112259285156,279.49253039372036 23.405827455484506,278.1602873494218 23.26362804000899,277.08327402513737 22.897541674991498,274.97580576513053 22.759198752609,273.4643409723112 22.48454633125747,271.4952857527975 21.52245649915214,270.340301151418 21.1640130022101,269.60013496325286 20.901070295960235,269.05475673170355 20.879614171259064,269.01184448210194 20.38296798795642,268.2464357941037 19.45783037063636,267.13625662981707 19.36625619094851,266.3103360604098 19.642801799691615,265.303440791112 20.09471266391236,264.42885829156864 20.227095551677788,264.1698421965224 20.375184883859077,263.88355017808016 21.017957093641563,262.7850106109839 21.201035335105956,262.00592890223237 21.052946003123957,261.4605506707329 20.11027887210705,260.38157404094625 19.29031833736665,259.64624599852556 18.9027057295374,259.2985305639839 17.663930052467787,258.2136640175413 17.644296997047604,258.1805682955999 17.18285007735983,257.40730638544363 17.147861167877434,256.9983077708743 17.28417066684647,255.61550960889875 17.35428872163386,254.90065603852776 17.81391257204065,253.99494112254524 17.942509084823644,253.36191532236225 18.172285950872098,251.30121580500025 18.6611490300774,249.56972055573198 18.768289418159224,248.41669925985468 18.698171363172545,248.30563226081836 18.310558755343298,247.68235287023487 18.067108868491726,247.507057732818 17.757397419746496,247.28310066526507 15.018936783169446,245.3139052096298 14.052920339860506,244.61861457661826 11.816855567070695,242.93381795193403 11.41760336205108,242.8461703832505 10.22952303868044,242.58708417014347 9.912028485837869,242.38843972043458 9.588714134400115,241.93856227977676 9.314061713247872,241.30749978509593 9.072505013787874,240.7445920398498 8.636230475673115,240.04930140678843 8.307026207728878,239.49214334207673 7.0683206487698556,238.6332672867998 5.258854122207311,238.2223053666287 3.1163969527180972,237.7334422874234 2.2321381617854894,237.05946754314095 1.949702636336614,235.97656430225032 1.6322782016046307,234.76702785412868 1.564053334009525,233.68798110628126 1.4393834324301422,232.5212867897005 0.3954658300371811,231.77144430994676 0.16926498463939424,231.02370537176694 0,230.46451388344246 0.07404466599100056,229.04847976345383 0.3545168859377152,228.5868926075947 1.6108220767041734,227.70656042751693 2.8554175523689667,226.83779772651897 2.8554175523689667,226.1289041908149 2.4015433824467722,224.37006290008983 1.6887232357881956,221.61400263165552 3.7572058571977096,221.05698480301552 5.5257234394615,220.8641601519018 5.926938949983276,220.55059221006357 6.606733493060193,220.0207801867588 7.2358326820395655,219.5299538020015 8.31298624234595,218.48792938719942 8.571932219281619,218.23865970180248 8.856331050232654,217.965900467992 9.389999566630445,217.4556513819968 9.824380917154343,217.03690635777818 10.656051167195695,216.23833182977782 11.209142384681906,215.7318691187651 11.590935193915973,215.3852054550353 12.586260984134013,214.4756340460096 13.700296641513653,213.45892224905148 15.170882608244469,212.21040016233255 16.47977634030076,211.4254986550855 16.678350671849252,211.30664855190201 17.802272974850286,210.63281404369127 19.29031833736665,209.9064611123013 20.32841614096514,209.39985816521684 24.76730972883063,207.29827982181615 26.436540145220526,206.84054915900023 26.890344196832846,206.77239440956552 27.866177167851877,206.62823168853802 28.79909788926928,206.48995888416647 29.580072785213087,206.37307208653496 32.380938490790065,206.33604975353947 33.24963107392656,206.3302299549443 34.83310710922379,205.99716919390704 36.79451946066207,204.82072846767693 37.68649123778072,204.1079083209187 38.16960463650143,203.45538970143707 38.50455858512955,202.70554722163354 39.170750225314656,201.829071534599 40.13094687002841,200.87076807737645 40.50102996396152,200.59807896162673 41.17886120153628,200.09364967422673 41.256692242509715,200.03713452188276 41.80690861965398,199.74887919793835 42.47408191278946,199.3982889231046 43.81796455412885,198.69128857494155 44.230889779752296,198.55687226356338 48.02897446313817,197.31613328094178 50.94862015378804,196.52541197509953 52.339271537822086,196.1650752906663 54.31625009765434,195.65089959361697 59.14072286933776,194.39852101390466 60.18667389534347,194.06153364171362 61.269577136134444,193.8550359698466 62.39532250861575,193.7304361861785 65.607150134314,193.7304361861785 67.24714132190539,194.49780817972874 67.99509061426754,194.4706023743935 68.49762671427595,194.45300274258605 68.91244512729097,194.18038374489709 69.3448631723127,193.81023053275376 70.60698816167435,192.2930160594 70.78031999353924,191.66195356471917 73.0883960087073,190.25566585437986 75.37312271178261,188.86312128275495 76.35477548119755,187.86583218703475 76.93906923338301,187.38867882298095 77.72200743502826,186.76105211297872 78.50887224767784,186.13034020860172 79.53343726709296,185.34354551381364 80.83055116573772,184.34429311254144 80.89288611662705,184.12229935054052 81.55515114580783,181.72461246103728 81.63305230489185,181.4441402411404 81.59743233281274,179.2413114264135 81.56482743729674,177.12409675675733 81.59995658280103,176.71117153103424 81.65836492268605,176.00809779392534 82.31481015327165,175.12573219023486 83.34119824176847,173.92208565871934 84.86037602067421,172.04832087591478 86.066055975653,170.75310016461177 87.90861822430637,168.8209971600826 88.68769993285859,167.80035875202054 88.91558361151549,167.5043203239788 89.38109737842875,166.89464383603803 90.80877109555794,165.06575460838704 92.48774792174663,161.84425069110023 95.00617810187474,156.7373423938683 96.38315646530495,154.37275122630643 97.25577565924648,153.12626256320024 98.86267112494633,151.02854071284276 100.02347552482134,150.13642869955277 101.32844264567402,149.3476706992625 102.66846879431897,148.20432569497376 103.56247399505037,147.00067916345824 104.187716691136,145.43851901693995 104.90250014349603,142.58127839519034 105.12449390544714,141.8235826932287 105.97376378709664,141.3775617456141 107.85131494483383,141.35224912777005 110.03668436392466,141.42040387720476 111.67281905862232,141.39894775235413 114.53587947886746,141.3638887249106 114.99872875977054,141.31719010027672 118.3904793143482,140.9743128115294 120.66735279521558,140.47381013518353 125.1451619033685,139.48830087262576 128.46602310454014,138.54949023470186 129.25485122289118,138.32742635464018 131.2649255044157,137.2814753287341 133.23019434894698,135.92006317354839 134.82930671054947,134.45529700536295 135.4953581147127,132.79391981103151 135.62199132199353,131.7246194728334 135.57129596829455,131.0117993260752 135.1505876383745,129.4925514291585 134.48060962320696,128.13499576696617 132.81726912332354,125.75869488420301 131.5317247035593,123.31627267566772 130.73911021022582,121.44068482338287 130.522796010848,120.3830240823253 130.37092030368427,119.38966159765926 130.41579585878807,118.71000729085334 131.30973094160817,117.68347896618515 133.0509726005756,116.83624250804876 134.6657212882841,116.67069378028121 136.15369653268988,116.7413727797042 137.20546735729076,116.79143707095592 138.9175399051717,117.32903219835804 141.5879159105741,118.27758924593124 142.85586069833164,118.82871715791529 144.36536218574847,119.36049248677205 145.03534020071672,119.38187849356191 145.57293532831812,119.11311598886633 147.8050734901036,117.14981044983719 148.84120798819993,116.24998545051061 151.4297562233147,113.33812286395808 151.6537132909673,112.17731846398343 151.27977370374185,111.23261790945341 151.34014534912902,110.83918550307881 154.19934927648043,109.40954848039763 155.223914295497,108.1610263936787 155.58221755641713,106.77626492620095 155.44794148106084,105.88415291291095 154.78174984087573,104.39225105740121 154.24611801897578,103.41059828788664 154.2305518109804,103.19631751192229 154.1117718257082,101.44729274890732 154.2013125817833,99.79559184616446 154.5577226553119,99.08270158134546 158.0423095147708,97.02985528614158 158.42788869898732,96.9635937241981 159.30050789312813,96.91878828710526 161.47024098591368,97.00643585578878 162.5765636571073,96.98694303649013 163.80362961907522,96.87594615551457 164.58663793883107,96.94213759939728 166.5070312280593,97.20900691660165 167.8996459177948,97.46031002556151 169.17930042105257,97.70768652346723 170.41618291053132,98.06991639544152 171.24581973676064,98.28805366444908 171.84378650954991,98.56459927319219 173.2519674074801,99.44107496027655 175.87171817709483,100.97013938485351 176.5651156224657,101.1882065358003 177.27800588743415,101.50766439424467 178.00639224228743,101.75497077408963 178.06879731128734,101.76864379479309 178.93748989422457,101.97121485560596 179.23738481545897,101.93811913366461 179.34641839073308,101.89913349511713 180.2346037928693,100.27274521021826 180.55399153330274,99.63396972945104 180.830677378267,98.76142065347064 181.07020065391498,98.04264047204552 181.2220763610787,96.5564882970702 181.16563132689512,95.98979417684164 181.0195754183266,93.08957118742966 181.0350715084107,89.96735443596691 181.22410978469145,89.60512456404244 182.61083455772118,89.10847838068997 185.04154705105515,88.90590731992692 186.74394330764648,88.8181896331328 188.9155695878236,88.8181896331328 190.2536324307671,88.94867933345684 191.1282149302108,89.1239744708737 192.36895391298185,89.22725836581269 193.60765947194088,89.49020107191309 194.58545574846207,89.80068381932675 195.08013862606327,89.95767814437835 195.90984557060247,90.23422375317128 198.05244297611355,90.91787478904229 199.04377203721668,91.15164838430529 201.41607619086494,91.69113669919862 202.22832373941932,91.83719260771734 203.9676020928846,92.15076054950576 206.4256606278248,92.19556598664843 206.96129244952547,91.61512872760582 207.34694175185254,89.43950571821412 207.40149359864455,89.1356841860252 207.90003296953805,86.30564936961083 208.5252756656237,85.17015758753003 209.1952536807912,83.78532600199152 209.54584395572462,83.24380426348544 209.91571669552525,82.88543088455435 210.04452356264002,82.76083110088626 211.83057065860066,82.49403190174266 213.84064494032444,82.22519927903613 215.1806710887701,82.27000471612898 218.09835347371853,81.84340646975225 219.3877543865758,81.47914317421503 220.36940715599073,81.13640612153938 221.34524012700976,80.79752556190695 223.14685343116508,80.65532614643143 224.29791142144057,81.0039531157132 226.31387561987015,81.42073483442965 227.35001011796646,80.44300867596922 229.81977836800834,77.77459597626827 231.52981749247584,75.62049920968833 233.67038147457347,72.61313583229416 234.31336403848843,71.71078658292947 234.99680472012733,70.75108076464107 234.45731640533364,70.13172798511175 233.24574653364908,69.12672590335497 231.90579050311473,68.50155332528027 230.69814724263378,68.45674788813761 228.78546693919301,68.16260264758706 227.67921438611,67.83935841416026 227.03644217612822,67.6523535615919 227.01309286403549,67.036787157045 226.99941984323237,66.71354292366802 226.97417734354877,66.05317108202827 226.94690142005314,65.37933657381753 229.9911468943711,63.49778868691561 232.53481957438208,61.55593927268728 232.7199312394592,61.41570316276375 233.11729025688797,61.05929308938464 233.777521862456,60.27824807513096 234.09501641529857,59.67060501085275 234.5371808699198,58.48827436801653 234.7163325003799,56.569774266130054 235.12336780949684,54.810932975405 237.04390133494624,51.01677490322274 238.00402786154942,49.46639458991668 238.67996591153332,48.79059677615396 238.8435513335994,48.59384551393627 239.07732492896207,48.31526648158042 239.33437771830688,47.91601427661063 241.6093580117827,42.96098168644277 242.77408902266203,40.64322937958651 244.69455243020013,38.50266539763833 247.6492571482437,36.25888763876212 248.5666116614664,35.38823175027293 251.12003075087762,33.736600965590824 252.87690873615034,32.59914587795803 253.0171448459244,32.21293563119463 253.2333188094796,31.617493108443462 253.3521689128624,30.88896651736902 253.62675121590405,29.18867380255087 254.46234807694972,28.035652506673568 254.9025492260688,27.425976018782617 256.2328289647157,25.585377075980166 257.3199392889533,24.453741786892735 257.32554873341604,24.44785187028661 258.57400070197457,23.232495623569793 259.325876605341,22.798184391106663 259.6725402690708,22.68522420457912 260.2217749936633,22.48068983826409 260.53344974810994,22.525495275356935 260.6678660592888,22.550807893200947 260.9599778764259,23.140991561843066 261.04180564651426,23.73496160546762 261.04797603526384,24.453741786892735 261.049518632501,24.644603132504297 261.080721167001,25.001013205883407 261.20728425617125,25.45096076460199 261.3086048456579,25.71783008180636 261.3670131855429,25.846356476528584 261.3670131855429,25.972989683809416 261.33391746345205,26.08587975227619 261.154765832992,26.304087139344514 260.8353780927579,26.70144615682309 258.6908874996559,28.216767442685626 257.216445039832,30.49167761795121 257.2533972548166,32.22709947832347 257.26125047702453,32.544594031166035 255.51804551255495,33.9527749290464 253.0171448459244,36.451852525997374 252.8379932156636,36.63093403839668 252.4795497187216,37.43336505939041 252.52442527382536,38.325406954669475 252.8379932156636,39.17460671835785 253.0171448459244,39.30257216864377 255.712833469121,41.22759324963344 256.4646392545762,41.76511825902461 257.68006561935374,42.5150308568391 261.0515520561138,44.5114321178096 263.37316085606307,46.20204854103918 263.97505423985666,46.64028638455646 267.8782458875123,49.049612871200225 268.96907246862185,49.78192583725709 269.49299457522085,50.01955592551348 270.26429317987504,50.368253012856016 270.8232041959564,50.62144930935691 272.87808391467337,51.4433731496493 275.38291119210896,46.84671393836271 276.0216866729758,45.9605619597396 276.70730101444866,45.10350897389311 277.5078388481006,44.31853734858529 279.20427506967627,42.75651743813869 281.46558234234897,41.48071942807358 283.7873313783202,39.75707740091357 286.58420035478224,37.491773399175784 288.16381989698647,36.16345696593143 289.38892255325294,34.42999841111116 291.4008900223683,32.367335588247 292.57740086665916,31.38371951318045 294.41989299700265,30.152726940258006 297.23436160527217,28.886745457853163 300.9837142402619,27.246754270311598 304.3922230101171,25.480199993500147 305.24142277385533,24.697191673744307 305.50773114662337,24.453741786892735 306.67498640769026,23.386334636185854 311.4488339437853,20.664632214687046 312.5473735108815,20.038267629678973 313.68293541107295,19.389675621251484 314.46391030721605,18.723554099077326 314.74634583266493,18.260003637716036 314.83981319994365,16.806947184682066 314.5516279940102,12.981656696110427 314.5340283622027,12.736243503756697 314.51257223750156,12.463554387957148 314.46391030721605,11.816925685081639 314.417211682632,11.18586319040082 316.90254614086854,10.48271933523116 318.6378978831302,9.7795754800615 323.2248106848671,6.082811386212086 324.5453440139145,5.810122270462359 325.0030746767304,5.714621479620723 326.2515967633995,5.457568690076626 329.4944866873766,3.38326627007193 332.1628993870775,1.6770836386476524 335.7038611628087,0.05069535374879218 335.8128947382821,0 336.86466556288303,0.23573690076517131 339.66749457396213,0.8609795969006311 340.46803240741485,1.0693704562588624 342.8110973320653,1.6770836386476524 345.2457364366029,2.204932356400438 346.7844771528182,2.4873678817994915 349.06331393918776,3.379339659017786 350.7267245569825,4.158491485780251 352.9295533718589,5.773099937417037 354.34944398489074,7.093633266564047 354.56561794824665,7.278744931691014 355.6193520783497,8.178569931067418 356.5016475639794,8.903169911037892 357.4851935209852,9.705600932081444 358.72789580905913,10.552767272157071 360.710624049376,11.493611333643885 362.9389057178692,11.908429746808366 365.4475894885971,12.438241770113134 367.6659845114689,12.905648724517622 368.17826702107675,13.11207627832387 369.8805931593582,13.7918708212015 370.6421453544129,14.097655658942406 372.0191938357544,14.648923807047987 373.3748563105053,15.260493482430157 373.4020621158904,15.274096385122682 376.3294909106376,16.594629714269693 378.3706976087508,17.45750249866154 381.76945996880715,18.894992743500822 383.31984028241214,19.603886279155077 384.08924569947544,19.954476553988826 389.9694159067641,22.030742279545507 396.6715099544946,24.330965072655104 397.088712381476,24.453741786892735 M446.1158173570635,431.4627565847293 445.98062974706676,431.44536730710416 446.7089459840087,428.88030862040296 446.82106475395653,428.9160688284541 446.1158173570635,431.4627565847293Z"/></svg>