<svg xmlns="http://www.w3.org/2000/svg" width="500" height="500" viewBox="0 0 500 500"><path d="M353.258604893007,369.7854375725426 352.99948696729786,375.9613787927744 352.3889319926775,375.9451746310198 352.6447793535736,369.75838108233995 353.258604893007,369.7854375725426 M356.78932820681797,367.7159877246466 356.18286143800265,367.75315323322303 355.7549377722106,362.55384724705254 356.36935795983027,362.5141544838959 356.78932820681797,367.7159877246466 M446.40599869141613,334.5453253445987 445.00218310205975,347.79193023822995 443.8136301381634,359.0022369176014 428.48322951025233,359.54277207415504 407.55369635511863,360.28073041221893 402.0469572819629,360.4770386284857 396.5254263367062,360.68107727048687 392.5072402126851,360.80498707604755 391.21246822534255,360.865343861933 387.27099171121927,361.0079850838285 385.5146984383088,361.0788225431513 382.980308078355,361.1813993467737 382.211205044125,361.2099424573891 382.0713884006916,361.2152942905899 375.76105670167306,361.4502546357402 375.21085851288535,361.46244492255454 374.9902440539604,361.46742510069174 373.88672577372415,361.492177329384 373.8394512467211,361.4929949705873 366.54074001286097,361.75523479901005 357.9406413309561,362.06415450619687 357.9894024782135,363.25025454653627 357.79733112990397,363.2732228308283 357.80498722461516,363.96836650302185 357.40568100072596,363.98018513477257 357.2542687187173,362.04133488395144 357.39743025782855,362.01227145627865 356.43112703526367,351.21732650061 356.25087431854644,351.2260232295943 356.1372965244822,351.2638577173274 356.14346599872783,351.4363800080989 355.58100319231374,351.46678139408505 355.54160775325016,350.9892046090204 355.74103787217774,350.9741154125623 355.7877177507833,350.8731738912936 355.7561270685831,350.6526337634976 355.70037880566565,350.5568210824126 355.50317861733083,350.56782207296015 355.46400617128427,350.0981987066998 356.0356860239512,350.0596952398628 356.0638574796087,350.23199453756445 356.1595958295647,350.26484884710754 356.36378313355965,350.2477527131793 356.1622717461915,347.9651215081581 355.894754415644,344.9339026296419 352.98610738416386,344.94795119187984 351.5676485844361,344.9547153144173 350.71834238268946,346.6552603243046 350.11358522714545,347.86938315809647 350.36259413474494,347.97671714683906 351.0150718031147,348.25791138461364 352.03979920522386,348.6640560622221 352.12877343274806,348.695423751458 352.17961584844596,348.71199956827616 352.2202005836707,348.74329292648883 352.23826302100724,348.77889748368204 352.23826302100724,348.8290709202233 352.22109255595007,348.8660134357827 352.17255440170976,348.89195496074177 352.0771133756356,348.88913038206846 350.6774603231603,348.3215387353122 350.6215633983019,348.3027329879541 350.58350591755175,348.3027329879541 350.5455227678777,348.33023546429644 350.23660306069087,348.6698538815625 349.7392542249655,349.20771312148935 349.3948786225793,349.5329113214539 349.0670045061991,349.88204410890756 348.98702433169956,349.9461174456401 348.7172027394832,350.1548389417382 348.33484398742286,350.507242293952 348.1046408272871,350.78806487666304 347.93360515703404,350.975750694916 347.7540214193679,351.1708696149159 347.5771135987511,351.4434414547295 347.43045850202105,351.707316565506 347.8029312287774,351.8291451026261 347.78018593744963,351.8731490647633 347.7245120056083,351.9569201210276 347.6814743467737,351.98412527332965 347.3360581101672,351.94086462137244 347.15045356040764,352.31705389902874 347.12510668352917,352.3609835301426 347.12770826929113,352.3902699508852 347.1607855719569,352.41323823517723 347.3007508771199,352.4799131575661 347.3414842744969,352.5133621152955 347.3593980496812,352.5551361468927 347.8805328107434,352.7466871780393 347.9340511430681,352.77374366829474 347.9594723508114,352.80726695699457 347.9646755221241,352.8490409886446 347.9622969295904,352.88256427734444 347.9394029763217,352.9098437606698 347.8885605604125,352.93080510749166 347.84544857050184,352.93310936900207 347.7870243909576,352.9102154157334 347.72362003354016,352.9125196772438 347.67530487252816,352.9333323620719 347.61710368600086,352.9922025275974 347.556375244999,353.08221738934185 347.4680699967372,353.1997347274287 347.31992827954156,353.3727773353103 347.25659825277774,353.43759398227564 347.23638021613584,353.48382787489993 347.2338529616612,353.5275345129968 347.1074902326492,353.66207365398856 347.0313009400728,353.73112716891114 346.9857360265524,353.7417565043422 346.92998776363487,353.77126591815465 346.87052294987035,353.8329606623535 346.76147934785644,353.9149477742704 346.6373465492259,353.99871883058756 346.5460680602442,354.08256421787513 346.45508689514423,354.21271782886316 346.35384804978247,354.3091251580815 346.30575588178743,354.3573659882287 346.3666329847302,354.38442247843136 346.3490908647151,354.4348189080424 346.3264942355395,354.518441302313 346.3012216897371,354.56266825752004 346.14363993348286,354.5294422928605 346.00456660038793,354.74106269865524 345.797183062656,355.0303590173335 345.66985403028855,355.28694968846247 345.586603290976,355.52993778344035 345.5489917964711,355.7142043748865 345.5065487856115,355.89215282988204 345.4423267867796,356.07552744915444 345.42493332891667,356.2156414164697 345.43050815497605,356.4188624172676 345.49762906345177,356.7388574460252 345.507961075001,356.84358984916423 345.6225795032855,357.3403440366505 345.6306072531659,357.5204480911627 345.5955230131357,357.68375333578695 345.51992836853424,357.9016175469562 345.49621677427353,358.03452140559426 345.494581491867,358.2899227804563 345.51769843815276,358.4049871949862 346.3259739184293,358.61906052428503 346.44022069175594,358.6584559634014 346.4791701447854,358.5639069096066 346.4365041409088,358.5519396158621 346.4827380336916,358.4394024559125 346.617128512584,358.47679095750595 346.56963099256393,358.59267301323905 346.525850023391,358.58048272642475 346.4885358529792,358.67086924323274 346.6713901550359,358.6830595300471 346.9965883550005,358.7495857903894 348.69876864718873,359.1862061850073 348.6969847028413,359.192301328388 348.77525526385824,359.22091877002674 348.84705902632527,359.2481982532992 348.8928469328627,359.32743511756604 348.8830352386349,359.43647871968557 348.82230679784425,359.51185037105876 348.67015120570846,359.5539960577724 348.3702998826223,359.50032906340107 347.4419798097315,359.2485699083628 345.4311028033735,358.70364922180545 345.22855078157386,359.1943825968814 345.00035455901383,359.74718237127263 346.1268411235949,360.00288107022783 346.30478957864324,360.04866897676527 346.40179155583655,360.1104380519874 346.4878668737169,360.16529434262554 347.3416329366491,360.3478513206947 347.4535754483068,360.4147492361006 348.5873464526411,360.7808294954887 348.62822851195904,360.82260352708596 348.62822851195904,360.86445188975927 348.59782712592005,360.8897244355617 348.5470590412982,360.90228637749243 347.40317901864296,360.49844596139445 347.301642849188,360.5237928382729 346.9916825077809,360.45748957094764 346.19180643255396,363.0671029203337 345.66182628040815,364.7995359365671 345.33001261995264,365.88454579359126 344.0855627311979,370.08789048123225 344.72339718898513,370.2646496400138 344.7691850955226,370.2770629198451 344.79460630347717,370.31051187757447 344.81311472684774,371.44896573590006 344.7995121506967,371.9764929644889 344.7598937186161,372.32406480055926 344.75037934827014,372.52081900291284 344.76881344056466,372.74054148955844 344.7698540747849,373.0586782428397 344.75075100343935,373.5612302496664 344.73714842728833,374.06363359444657 344.73179659403473,374.81080897865775 344.7167073976294,374.8736186881001 344.70146953907187,374.90290510884273 344.7382633925847,375.5868991284951 344.7764695354871,376.2989159415471 353.1251807172588,376.56293971442295 353.6581341101245,378.11445103494094 353.68526493135045,378.23063041471437 353.69195472291744,378.3310516188729 353.69195472291744,378.43734497334236 353.68452162122327,378.5440843139515 354.21152853264914,378.57649263740774 354.25820841146594,378.3708930440233 354.2906167348694,378.2860070224626 354.33023516694993,378.2008980078849 354.33253942840753,378.2008980078849 355.26829260320375,376.61608639163126 366.54074001286097,376.9214382100176 373.5077862484178,377.11009033146746 373.5071916002315,377.0781279941509 375.9919288408599,377.1522360181811 376.3059773882833,377.02899519182995 377.6193321298612,377.0339010389439 378.5038712337903,376.8059278094009 380.088831511932,376.85513494274505 380.45439145431567,376.97428756318556 380.55912385729624,377.1958683252547 380.46197321795074,378.34457986400065 380.4164083044303,378.6064480373071 380.2661109879293,378.86987716204953 379.83261249586667,379.15174037898083 378.79666111014023,388.125575414985 377.83124985964344,396.48781484199003 377.45074938300667,399.7848414377824 376.85290501225796,404.9427450474192 376.7857841037822,405.52230398797275 376.19671079304106,410.7647219640539 375.69014491127416,414.8969318683317 375.37185949589355,417.68724392031055 373.71227087650584,417.89366115489827 373.67503103695896,418.2740129695413 375.2524838823304,418.7272835120005 375.2255017232567,418.9506482184699 375.2114531610716,419.0651923158896 375.1891538557778,419.24878992817906 375.00146803757775,420.7973280080299 374.65783574531866,423.85917126565494 374.59487737393533,424.4567183123105 374.5784502190053,424.53290760488693 377.0657890451844,424.57713456009395 385.69874203673794,424.74125744592146 397.909692868683,424.97354187444495 404.1039195191627,425.100499251696 407.7389292499202,425.17193135915227 409.3050094497334,425.20270440025485 415.7072142861312,425.3272831849722 420.8397710188367,425.41328417177647 426.8394733973971,425.5250036905228 428.48322951025233,425.5571890209092 431.71313519762174,425.6204447164913 437.4349882340854,425.726589408967 442.47091464476676,425.81905719426845 446.93203929969786,425.8981453964887 450.7070143356184,425.96192140918095 451.0391996512431,425.9509204186862 463.518336792998,426.1960641131808 463.518336792998,427.16259032886836 451.00411541100164,426.91276378032967 450.70805496983866,426.3542405176213 449.9234910840341,426.33937431418013 443.1876143117572,426.20595013843194 436.62656409186786,426.0948995988423 431.57748109128073,425.9918768090802 428.48322951025233,425.9388044628952 423.2451970642278,425.8491612562143 413.5266395676223,425.6674962503717 407.73996988414046,425.5542901112654 403.77418712714774,425.47691152242214 397.899137864328,425.3416290712504 385.69970834009337,425.10711471223976 376.97005069522834,424.9394239375589 375.9879892967845,424.91942889398683 375.8544164590954,425.18850717597036 375.70389614957736,425.34995414517107 375.43191895784435,425.5739134997739 375.04524900675074,425.78850714623576 374.4270379372079,425.8313961431294 374.21043735322314,427.64923549803365 374.2348179269575,427.6531007109273 374.1811509326918,428.13402239177543 374.120868477724,428.26105410004976 374.11217174858126,428.3405139573336 373.9901202186026,429.4800827809555 374.0219338938198,429.5201471991758 373.9065721554081,430.36313526441904 373.81633430043536,430.3667031532724 373.55781102291246,432.85181204896435 373.6236683041509,432.8535959933646 373.57535314292755,433.4790915025022 373.531646505042,433.479314495572 373.3800855608811,434.79140560991266 374.17453547198966,434.84470094922034 377.3540447296952,435.2805780336582 377.91539257123543,435.41556316073684 378.0283757171134,435.56400220197276 377.9730734404412,435.7128872292955 377.05649766806664,435.80438871134714 374.0566464788921,435.66747097782167 373.72111626737825,435.8937345939349 373.6105117140339,436.18184161634633 373.21715197137326,436.20369493539476 372.71474862669874,440.55867489795577 372.4658883812515,442.68952216601036 372.3333561777826,443.8393486699998 372.8260221593054,443.8963605601018 372.98999638303354,444.03469058301675 372.8626673508773,445.1562713004839 371.3706208439126,458.3128613323179 371.3582075641341,458.4303043394342 370.28984785479287,468.55359422425863 369.25768735098956,478.3331031549358 369.25768735098956,478.3351844234292 369.16298963525384,478.36989700839587 366.54074001286097,478.54450056766075 364.5720086932694,478.6756204818457 364.54785111255217,478.3981427949182 364.023445786677,478.41523892884646 363.9838273545964,478.33904963632284 357.4969594897077,478.8569138326248 352.59705884053653,479.2672210471671 350.8199528830092,479.38615067459057 349.02827804618664,479.5713835692865 346.66418004635875,479.72368782336326 346.6105130518818,479.79036274575213 346.4269897707741,480.0148424174651 346.253278183683,480.24705251496533 346.06232180066985,480.4694509182377 345.86170238558105,480.6819632962062 345.66115730114586,480.8962596185749 345.4383872429155,481.098811640269 345.23271331845496,481.3113240182374 345.0002802279377,481.5057739590806 344.78486894032545,481.7122655246388 344.5745121618736,481.9206153656733 344.3834814477844,482.14115549346934 344.178104847417,482.3512892789041 343.9748838467775,482.5637273258493 343.7498095268783,482.76627934754333 343.4586549327236,482.95894534393346 343.1867520720667,483.1135538595734 342.9172278039435,483.26987198859035 342.90600382032613,483.2761157940177 342.6404934271431,483.41831102977346 342.3511227775472,483.5467550273845 342.0570692737487,483.6673942681849 341.77528038778786,483.80958950394074 341.510736297749,483.9702931630143 341.2487937934721,484.1324834423949 340.9915341431865,484.3009918582262 340.6440366381394,484.4660067162274 340.6200277195743,484.4701692532142 340.5986203865599,484.46786499165097 340.58063228051077,484.4604318899568 340.57528044725717,484.4541880845295 340.5593736094373,484.4395448741582 340.558332975217,484.4243070156007 340.6349682540387,484.25683923404245 340.64425963115644,484.22034270462274 340.63519124705573,483.98322675995576 340.6181694441508,483.7117698854385 340.5574410031489,483.4484894227426 340.54116251037107,483.419203002 340.51745091589913,483.398687641265 340.4825896688859,483.3797332319132 340.43241623223906,483.3607788225614 340.1928473641207,483.31179468223417 339.870399411859,483.2674190650334 339.56237167695156,483.1684844812348 339.36621212262577,483.1642476132248 339.20632610470267,483.16067972442426 339.2015689196353,483.1827560364897 339.1128176853394,483.3659076626923 339.11222303694194,483.4095399697659 339.1203994489745,483.46172034377724 339.1411378027266,483.5669730640264 339.1896016258908,483.7993318235732 339.18893264683976,483.83151715401243 339.18543908900966,483.8432614547399 329.6106377794904,483.1000256144457 325.8073426259714,482.80879668932056 321.50231310704027,482.478469649225 320.4658414042036,482.3999760951382 319.61720418150804,482.33397015190604 318.61789798735344,482.34430216329685 316.00806164473914,482.4888016606158 315.28325989679223,482.52804843763283 314.7465156222146,482.6023794547857 314.1002817591665,482.8253725061387 313.4147267883422,483.3229443348282 313.2144790280001,483.6574339119105 311.75461785163304,486.0938559913684 307.3175021150558,487.7229688937995 304.5982505154696,488.18709176475966 304.00360237845786,488.28870226513226 303.2582109386998,488.4167002766564 303.0022149156515,489.56058029925885 302.1205003905014,491.7884295446652 297.66272063124813,492.63498549876175 298.0487959341556,493.8841182416134 298.1066254655136,494.7885037270152 298.16036679085533,495.63714094955236 296.11217561387434,496.7727702292574 294.25390018568623,497.87115966941553 292.1684691691583,498.47822108631146 289.99629385548775,499.25252729174855 288.4911650896934,499.76660060618013 287.63212152458374,500 286.9302137299055,499.92358771435374 286.28182426755205,499.5519326287478 285.9906696733974,499.386694777624 284.23355875949494,498.00547581733747 283.8908184395152,497.6130823779267 283.45315741078275,497.1113480123032 282.8894309767088,496.7458624010485 282.2162892856631,496.4630328809202 281.1880683255126,496.52086241222537 278.13432714905537,496.86152146371177 276.7633658691364,496.86152146371177 274.9153481212102,496.7294352462769 273.79213212123085,496.634365875372 272.7019190930525,496.1946235780405 271.41153263581936,494.90624405811906 270.4493176190595,493.8572847444278 268.67986775624337,491.2887764475351 267.89114133355764,489.75666552245576 267.0362603055404,488.3279490422021 264.7258292999781,485.63961914565937 264.8043228540121,485.22054087110945 265.0293228430465,484.93756268888177 265.34939220277454,484.743484403155 265.3865577112453,484.71873217446273 265.82421874018905,484.61548639168365 266.42302941408195,484.801313934513 266.937177059484,484.96038231118 268.834699265006,485.79445065436914 270.8065524872584,486.8558232479446 271.7150261786765,488.0285437052028 273.60013510420873,489.8889004019371 274.11420841853464,490.0808974191705 274.7130190924275,489.96731962500064 276.34213199512266,489.65758227661064 277.36626474904557,489.5832512594577 279.07171560604684,489.31692322512424 279.52803372009083,489.01342968216153 279.4887869429682,488.0285437052028 279.22454017723373,486.51508986543496 278.4770674690351,484.51640314583847 277.6697582919027,483.1040394893859 277.36418348060505,482.9534448486861 277.0626968749011,482.9162050090864 274.97734018944936,483.1804517749793 273.49688932127117,483.1040394893859 272.825828898666,482.8542872718177 272.4541738129016,482.51771642624203 271.81410942452163,481.29534284955275 271.46720656766075,480.28362337540835 271.40945136716755,479.682880094963 271.46720656766075,479.11090291815015 271.7790251844914,477.624282575568 271.774862647399,477.0317157070496 271.50645334457215,476.2924937416956 271.1265475159103,475.7763391587178 269.18569032788315,473.7322361877003 268.3990451734267,473.16850975378486 268.0170580765356,473.04876248515814 267.5627468996448,473.05701322805555 267.0300908310835,473.08800926222796 265.2874001343241,473.65582390205407 264.08167670558186,473.7962351934096 262.6032327749794,474.08523418804754 260.2453785804732,474.2235642109097 259.07050252380395,474.6407098790128 257.93279197560554,475.2477712959087 256.5659189014916,476.30691395899703 255.0876236330414,477.2547087584026 252.71720749660446,479.2368939922042 250.56985874291348,480.6635292039646 249.81629089112283,480.96709707789773 248.99248022840686,481.0806748721204 248.2430005826325,481.0393468265572 247.11762898334777,480.9195995579833 246.11832278898197,480.62227548947743 242.65568668700217,479.32534790256545 242.1766976127065,479.14598715823325 241.4188928929586,478.65250353550715 241.3053894297592,478.3861011701504 241.26614265284783,478.0475977181279 241.80496819607728,476.85830144405156 241.86487899587587,476.451413456316 241.76988395583578,476.0446741305742 241.63571646996039,475.84241943297326 240.13051337308997,475.24360875897474 239.81468088131916,475.57809833605705 239.3954539446699,475.85275144436406 237.83665818460992,475.2807742675512 237.51242628778948,475.69992687312435 236.73812008224678,476.88506061021394 236.14763448232742,477.51687425585493 235.81931437970195,477.82044212978815 235.1007564370767,478.1920972154469 234.99342244833414,478.21060563871185 234.10561277980327,478.37168095279617 233.77104887164487,478.37168095279617 233.3581400713934,478.309688884557 231.90043449454302,477.2547087584026 230.77922543213944,476.1789159475257 229.9595773063046,475.56360378773235 228.94785783216022,474.9689556506678 228.37387371782444,474.6303035366515 226.58160423281566,473.4059230224921 225.13631193574383,472.5635296053295 224.48383426737405,472.43144338789466 222.77838341037278,472.3550311023012 217.5937949655969,472.6771073995522 216.02875540000397,472.50577440504753 213.56334422394946,472.39219661087765 211.10008864720032,472.07628978808356 209.10563879556108,472.18154250833277 206.373899584909,472.59861384541256 204.36904339106692,473.27591807349785 203.0063328540454,473.6909081421371 201.71379079729562,474.3413045420135 200.68965804316144,475.17544721627877 199.7791774143789,476.1603331932375 197.76807741500386,477.40337079265555 196.78319143799231,477.7357791012973 195.78381091255042,478.0702686783796 195.60831538111182,478.13010514715495 194.92491600980418,478.5843419928112 193.21939082172685,478.5079297072177 190.77062979340806,478.24576420981816 188.19171515394288,478.3964331815412 186.2571017712374,478.9643221523906 183.18678477769797,479.9119682897496 180.71319718961084,480.67475318752906 179.1026670415736,481.1715073750153 175.34902500759134,481.87765203775643 173.0013541624822,482.07998106638064 172.84027884839787,482.09447561470535 171.10175068873085,482.06756778649645 168.112008517666,481.72490179754 167.59384699732377,481.662909729248 164.01555183262792,481.233425112284 161.8083666100032,480.859763089208 159.69610209634246,480.28570464390174 157.00360966302426,479.33798417551947 154.34843139990656,478.46667599273064 152.05866441744277,477.18862848419997 151.7695167606526,477.02755317006284 150.7454583378058,475.8939308278279 149.55616206378227,475.7680884158204 148.07987373248525,475.61318257614016 147.41907099014193,475.3055264962435 145.73420982474056,474.4775532964351 145.19746555016295,473.87056621056246 144.8051464417226,472.8072610105402 144.17541406468058,471.1037427599329 144.17541406468058,469.40037317142503 143.38453204247818,466.8462850918338 143.21528031657257,466.64180046369296 142.91594931038534,466.7182127493392 142.1147352766337,466.88962007481433 139.61230725404928,466.9557003490698 138.8524955971482,466.8462850918338 137.83661358591144,466.33421871481954 136.83931432912135,465.79732577808977 135.69751557490665,464.88060134382704 134.1964750151286,463.8812951495669 133.11243146119583,463.16065593850107 132.82127686725244,463.11732095552054 132.62519164400274,463.15240519560365 131.6753899072327,463.47864402978854 128.89830877607722,464.690685595087 126.45155468512293,465.59298981199544 124.20096014849443,465.98939712634643 120.04258572650456,466.3423951266937 118.77070769221949,466.3837231722569 117.30883957827673,466.43122069217134 114.04860683615571,466.738876772068 111.80001923689169,466.6067162236099 108.61211057413655,466.6294615148849 106.76000462040527,466.47671127466845 103.93758156895765,466.10089365207574 101.60024273539774,466.21239017775224 99.682056507411,466.58612653190437 98.95524782188834,466.89378261180104 97.39845899919283,468.3369936403795 95.3213530564272,469.3632076628486 94.09072873684049,469.9661065428106 92.90143246281698,470.97990728539554 91.9412987144977,471.4506456168994 90.74174476021231,471.727379993647 89.21996584647096,471.90488246255563 87.10361312679395,471.83880218835304 83.43864799624275,470.7795851942414 81.96852913940258,468.9543870686662 80.33540236197847,466.9309481203247 79.82534292238148,466.44155270356214 79.23901985934324,465.54132975509424 78.3966264421806,465.12425841801445 75.82180000873169,464.6327817327585 74.77499629476834,464.46561127524063 74.17001614620735,464.1001256639859 73.77561576932642,463.6500513552636 72.81964455788827,461.9920980182296 72.13007571212377,460.62931315018477 71.72118078681248,459.64650844166664 71.3646892287408,458.4303043394342 71.27318774653075,458.1185600535741 70.84994693515254,456.128124076875 70.92628488966989,454.87899133402334 71.28961490146077,453.379957711557 71.33101727788879,453.2086247171052 71.55185472983077,452.2215831406298 71.52925810065516,451.95116690033285 70.6598825242075,450.8692046149991 70.36255845580726,450.3530500320213 69.90423340418755,449.553991597892 69.56149308420781,448.95726219238685 68.73560115284,447.51813936971905 68.29994706147198,446.7582533816362 67.69295997554653,445.3191305589685 66.78649322170415,444.3364001815264 64.5524001708705,443.05002759907507 62.39271246826583,441.575820536377 61.48208317733107,440.590860228395 61.19925365714993,439.47589497141877 61.027920662803744,437.97901694846905 60.96392165677759,437.4277037944378 61.00517537147595,437.0477979658816 61.19925365714993,436.775226126068 61.55440725690821,436.4841458629894 62.47321295987556,435.881172652057 64.17866381666556,434.78278321195165 65.5393674163226,433.72349188681676 66.44367857064832,432.5362768812338 67.06107199898787,431.64846721265013 67.0630789365636,431.64638594415675 67.44305909609024,430.6119955098135 67.68047236469188,430.01318483581497 67.73830189604992,429.6126149844772 67.48022460456104,428.99730282468386 67.0176626849841,428.6689827220056 64.82080947369737,427.19276872183747 64.66389669649419,427.06677764783626 64.29016034228924,426.7652910423436 63.646007747892966,426.24705519092527 63.369273371303855,425.75572716766305 63.00594335951298,424.50235755685424 62.65279669711917,423.22431004832356 62.54754397681718,422.84024168283344 62.623956262410616,421.3660346200826 62.186146571525946,420.2076600491554 61.78973925728056,419.6996818781046 60.53027450298531,418.3907126664248 59.80755402347893,417.89722904369876 57.877103177654575,416.5758465522404 56.828143863963305,415.897501689882 55.94650366967803,415.32656514734225 55.28993779550321,414.80624802743057 54.12747501840126,413.4352867475116 53.406910138411554,412.37606975340003 53.066176755796285,411.4675960620347 52.68210839046461,410.0449747252146 52.49836211612862,409.3656635596592 51.660056904771004,408.31677857693836 50.99107775060637,407.3793901199469 50.718580241974486,406.9788202686091 50.623585201934375,406.68149620010325 50.687584207749275,406.1611790801916 51.13357031045527,405.3558768406349 52.00495282447866,403.99316630361335 52.42202416140001,402.66762127511544 52.345537544941735,401.5712387724802 51.587881487346046,400.47277500135164 51.20381312159186,399.05431620146544 50.93956635585739,398.25934597324675 50.15901634499298,396.48781484199003 50.10527501965123,396.3659863049227 49.915359270858374,395.42034710503384 49.991771556451816,394.62537687681515 50.749501945123605,393.303994385304 51.51139487067651,392.38110047663724 51.47430369307054,391.47463372274206 51.32356039032422,390.56608570035354 51.47430369307054,389.4676962602482 51.587881487346046,389.0897973691621 53.066176755796285,388.0306547060738 54.12331248152014,387.1964377008381 54.753044858562134,386.6162841121511 54.85629064149966,386.2528054384193 54.73661770384339,385.41873709517733 54.579630595775384,384.6898471412141 54.23272773870326,383.59554590701947 54.265805041369035,382.9719830043287 54.618877372686754,382.15226054741777 55.075195486942,381.6216114161681 55.793679098491154,381.2066213475288 56.828143863963305,380.71559064835975 57.70368891465656,380.30015459363364 58.259090274545684,380.03590782774074 59.062236914796955,379.67867295943626 59.91295540572185,379.5527562164055 60.38369373712011,379.5010961595043 61.135254651546305,378.93536278811877 62.877871016807106,378.1033013823997 64.24266282248045,377.989723588177 65.80985798759004,377.4508237140299 66.48292534777096,377.11217159996085 66.69142385079921,376.77768202287854 66.7389957016841,376.0922013829191 67.09831183853477,375.1031528690264 67.15398577037615,372.6729745949959 67.06107199898787,371.94824717796655 67.04248924475246,371.79750387522023 66.4540849130624,370.7919538754799 65.16354979367709,368.8305069954832 64.48223169059875,366.6356607217193 64.21582932513637,364.51722673349616 64.29224161094106,363.49725651645434 64.36865389653451,362.81586408245835 65.42995215913949,360.6953488257946 65.61786097035662,360.0532031688156 65.19662709634288,359.31197426599147 64.8188025363329,358.36633506604977 64.85589371393887,357.2307057863447 65.19662709634288,355.83082974074676 65.89860922209718,354.2698783810645 66.54900562202641,353.0351658555143 66.89382721044672,351.8954483698986 66.78649322170415,351.17689042727335 67.05073998764988,349.7770143816754 67.84563588479247,348.4143038446539 68.22561604431911,347.4685903137417 68.07487274157279,346.0128916742558 67.7713048676396,345.29240112523655 66.25584409029604,343.3638085547829 66.21867858182522,342.20766391439565 66.33842585055758,341.1525351261947 66.48292534777096,339.7690862354211 66.68109183946123,339.2364301666485 66.99291045629185,338.7801120524989 67.46164185032563,338.1813757095237 68.04186976998311,337.79931428150365 69.87331170103843,336.8619258244594 70.22422843283948,336.6328376296728 70.5938765812394,336.3416087045477 70.93869816944844,335.8357861330135 71.30827198677225,335.1378922131699 71.46934730085657,334.5453253445987 71.58493203249654,334.1199289335982 71.63867335783829,332.5322184077008 71.51892608931718,331.96641070529193 71.2648626727685,331.4626694022512 70.31714220422776,330.02347224856015 69.63582410136068,327.717129449067 68.22353477587855,324.698546843452 67.38931777053723,322.80518717512797 65.95026927899836,317.6226056678222 65.45671132519622,315.9955740338845 65.13047249122259,315.38234314258455 64.81255873079995,314.7856137370794 64.0940007881747,314.10429563405387 63.10918914223925,313.6108120113278 62.57846567996629,313.11940965709516 62.46496221676688,312.3636862059463 62.54137450236032,312.241857668879 62.811865073839,311.8000341030541 63.53659249092111,310.62307677783866 63.74509099394937,310.28650593226297 64.85388677636314,308.453651711871 64.95297002220828,308.28990048115986 65.9296052563224,307.3215903210193 67.30881727913876,305.09574801308304 67.65371319842389,303.8734487674171 67.78163687897758,303.4233001276715 67.79613142740796,303.1073933048774 67.87670624988252,301.27803264231545 67.60822261597957,298.0363826542714 67.4038123189676,296.5291726199309 67.27172610153278,295.10030747768343 67.15190450193559,293.81601616372546 66.80500164486347,291.16901431269315 66.62125537073872,290.049960849859 66.30126034187552,288.11319186753127 66.1092633246421,286.9548916275745 65.6033664221375,284.1468144624579 65.50844571317349,282.5383655828084 65.16154285631264,281.7186431258975 64.12291555374809,279.7076174574929 62.05814856010742,275.3116811044851 61.537831440248546,273.90979812141705 61.05326753947098,272.6027615161841 59.9107998062052,269.5221868422771 57.327871292011054,260.459972226935 56.828143863963305,258.5963449654933 55.06694474404458,252.02756431971105 54.587955669537635,250.02062685721714 53.56590418405529,246.05008691526265 53.080671304226655,244.61713356699894 52.5086941274666,242.16421000174623 56.05591892686115,241.37957178491834 55.779258881136876,239.7629464933947 53.98713805806903,239.6906967447352 52.31045330470023,239.73611299620907 50.966325521914115,233.70080606040264 50.11560703098922,228.87345248393123 49.783198722347464,227.8369807810946 49.56644947642179,226.35861118140983 49.56853074486235,225.50172321597526 48.924303819389976,221.53319021143807 48.61664773944049,220.58554407402625 48.41848124796147,218.96884445147933 47.976583351060505,215.5207028978771 47.69159823136271,213.93499930944975 47.404606174300454,213.104944841148 47.39226722538674,213.07186753853506 47.21669736287207,211.4861639501077 47.11107298761212,210.66027201879274 47.000022448022484,209.790970773474 46.55396201424038,206.97263592798984 46.36196499700697,206.14473705920477 46.13696500818387,205.18036644298107 47.11144464257007,204.96361719705538 48.91196487068753,204.5547966028202 50.359338436199906,203.8713972313541 51.95738097338251,202.77501472866606 52.61402117884469,202.25469760875438 53.72690516706349,201.816962248893 55.29818853818937,201.28631311759048 56.57839164623669,200.92499004332254 56.828143863963305,200.83765109820487 58.556414343157186,200.23333992895903 60.14412486900181,199.80586224946515 61.04226654908193,199.80586224946515 62.799451793849194,199.90085728934682 65.0850562396431,200.1961744203826 66.48292534777096,200.31376608949267 67.70529892446024,200.2952576662277 69.82373291257781,199.92977205502584 71.413524706863,199.88851834048592 72.41290523230491,199.8286075406873 75.21681986038195,199.09971758672407 77.20316763127597,198.63514872967704 79.05111104812612,198.11074340380188 80.21766203082184,197.91874638656847 80.97338548191789,197.7927553125144 83.13723572182622,197.28068893555294 85.46008000695575,197.05353334716037 86.29006014412859,196.9090338498942 87.1531919150433,196.76037181564126 89.01347428080716,196.45687827267852 90.30809760620876,196.31230444438907 91.78237899993006,195.95514390705506 92.76927191430607,195.55249278727672 93.93180902227284,194.88351363311207 95.28411321688029,193.97920247873355 96.89873157093383,192.95915793066848 99.22573839315575,191.59020358816684 101.31733888414051,190.10982705101196 102.70286904356591,188.9659470284095 104.65606518071806,187.47724541738674 106.51225934025437,186.79585298333794 107.39806207142078,186.4717697486697 110.01607482585642,185.63339020644725 112.00859207099604,185.1482316576419 113.51595076717186,184.78274604644 117.17467209240135,184.07660138369891 118.1595580694129,183.93210188637994 118.77070769221949,183.842012693665 120.8085668578625,183.54186404648578 124.14528621665306,182.87704742925507 124.07496907465165,182.59823178401413 123.92229316540569,181.9994954410389 123.78597008001366,181.4626768353324 123.63522677726733,180.86594742982726 123.46597505136171,180.199049544156 120.71974129249051,180.48187906433714 119.55527157802409,180.60370760140444 118.77070769221949,180.68383643784495 117.71773450358802,180.79369768116774 117.34808635539937,180.83086318974418 116.10921129291525,180.95886120121554 115.97920634392099,179.78606641298686 115.90896353278441,179.14392075600787 115.84697146454525,178.59268193294707 115.77880992163796,177.96703776176292 115.47947891587324,175.2601251109848 115.50631241300607,174.4775681626503 115.75405769315697,171.80782102039583 116.98059380672737,171.57040775168855 116.98059380672737,169.18772699762525 116.37345805886098,166.85038816401251 115.69630249266376,164.3665428956107 115.10366129322773,163.32791559325742 112.7044790533696,163.00992750196994 112.72506874518072,160.21842615367143 112.58889432172961,159.3677076626409 112.60123327043206,156.98710817701817 112.093329430563,154.3669398232243 111.77326007083495,152.50658312654278 111.48009853931583,150.79696973255477 111.45527197954749,150.65455150372915 110.9824523794974,148.8664445556543 110.94201630621356,148.71778252140138 110.3299747111276,146.4754387276703 110.23505400237487,145.1333178824071 109.34508873411606,144.26416529908212 107.3423138085033,141.35076108269303 106.64642682634101,139.78564718602402 106.04560921466114,138.20618740307683 105.95269544327286,137.51646989510732 105.68822568452137,136.60732722458533 104.71597598051666,133.46334819310252 104.19766579802226,131.25824423891837 103.16528230099065,127.83894311997187 102.78745774098068,126.79637627370167 101.29674919254063,124.73153494887927 99.43014869016773,122.13411188630758 97.39429646210044,119.67494451562756 95.66617464505875,118.10366114450167 94.4252183139228,116.53245210445189 93.40316682844046,115.12640658439709 93.20700727411464,114.67625794465151 92.61644734311919,113.49721935099552 92.4037863032098,112.06842853971854 92.58344437152951,109.54325522580635 92.0279686805643,108.19080236915234 92.94892998283704,107.0428341405864 94.36330057675974,106.42135250638901 96.37841445107495,105.52321082641453 98.1912736276836,104.76332483827889 97.65452935310597,103.41510884958211 97.58220527331757,103.32011380970046 96.83473256511894,102.32073328441699 95.63510427975744,101.08185822188005 93.64682390257505,99.26699210769567 92.41211137697206,97.95995550246272 91.65846919431657,97.40663541096134 90.65291919462906,96.73765625679671 89.0114673434427,95.71768603975492 87.49377663571764,94.45614001701911 86.70096200680435,93.6819081426053 85.97623458993351,93.08101620011341 84.47519403015548,91.42090726356273 83.53780557295272,90.68384089772536 81.79927741349695,89.54412341205683 80.68431215641506,88.8978152181439 79.21010509376985,87.86543172121794 78.02898523156767,87.20269637248063 77.54791488862017,87.16553086395702 77.0648376083082,87.2377806125637 76.29461960878177,87.64868247529226 75.30980796284632,88.11317700131602 74.59741949467794,88.1255902812002 73.60220150632841,87.6445199383055 72.79288539183155,87.27494612114013 72.25495182088144,86.99137329077902 71.8905811748703,86.8000452527023 71.82858910663114,86.77521869298675 70.73012533555534,86.33547639565526 69.54707286685353,85.90599177869129 68.32670622773998,85.84608097889269 67.37697882183478,86.21773606449862 66.28684012452125,86.57088272689245 64.93230599932104,86.50896498962375 63.46010587404031,85.93282527587694 62.811865073839,85.2825032070238 61.81664708548948,84.47303843048037 60.645859234625284,84.00846957338052 59.34514076584293,83.68840021365249 58.14967501736256,83.56872727604903 56.95205366936554,83.44689873898173 56.828143863963305,83.39717128852737 55.92792091523137,83.03599687630597 55.25277228682114,82.45376201912558 54.68703891559404,81.8838661108061 54.60237588689191,81.75995630524541 54.25963556691218,81.26238447655588 53.61957117832094,79.94501585998495 53.33666732727497,78.84662641987961 53.04558706419641,78.28498125445755 51.686964732979924,76.94702294612829 50.57816895056615,75.54915383800042 50.0846853278401,75.17958002083505 49.38887267654265,74.85542245514354 48.28215816235817,74.85542245514354 46.659289065618474,74.92767220375022 44.48510681458343,75.13007556339771 42.661915626214274,75.3984105352541 42.321256574675104,75.08874751788733 41.821603477703455,73.11696862649978 40.93996328362944,70.39147322143346 40.44856092913269,68.60752881034539 39.24477010689007,65.8655319194314 38.64595943278593,64.43257857122049 38.152475810059876,62.871701542508696 37.64048376417452,61.814491485867194 37.05609330742465,60.89360451467054 35.57363550188203,59.15708329252642 34.603169742224765,58.20319334968728 33.892936873573035,56.40690998973831 33.031960702174985,54.47021533843382 32.412486005394875,52.89060689344006 31.797248176571987,51.048907282017225 31.29335821143186,48.56089947668146 31.097272988182144,47.59459625395814 31.3058458222865,47.061865854215085 33.7525255821647,45.818828254744204 36.095959559105374,44.64818906597938 37.8344877187724,43.65297107762986 37.679656210009796,43.42172728337944 37.382332141609545,42.979829386531286 37.264666141529005,42.82083534088755 36.54826379842042,41.85036958123028 35.90604381031252,41.83394242645872 34.81999331922654,41.88136561540268 33.59353153652096,42.075443901129475 32.33198551378514,42.31709403779398 30.23414121726744,42.83532988921229 29.499156119923448,42.33976499804567 28.836346440215674,42.1352803699048 27.801956006030874,42.39350632338741 26.78815526323468,42.50693545556355 25.807357492239436,41.46228734079997 25.030970018256152,40.68389292945222 22.988948315732017,38.69338262172989 22.041227847402546,37.89231725013044 21.21949845312713,37.19226773082295 19.470638281910855,35.21640063347192 19.049404407897114,34.80549877079616 18.297917824758283,33.95069207380216 17.96550951611653,33.38287743392323 17.43686732228414,32.10683686286267 16.920712739306392,30.936123343074566 16.549057653753266,29.8439033774261 16.49739759685209,29.20376465786439 16.328071539659106,28.697942086330254 15.41342837399541,28.571951012276198 13.782234203070935,28.340781548996244 12.324528626220571,28.119869766083806 11.27973184941043,28.196207720706784 9.881937072358665,28.031044200659004 8.512982729804193,27.67997880675857 8.225990672530669,26.44325934373829 7.756664630521903,24.832729195595412 7.532259289885039,24.06258552714508 7.0966051985170235,23.12103453316684 6.446208798587797,22.026733298972175 4.695341690007052,20.37911197327614 3.5534686049275037,19.354904888277133 2.20317134768453,17.723785048375937 1.8747769141942383,17.03830440841647 1.2967045938421589,14.41813605456979 0.7557977821721487,11.531639666389632 0.5637264338626357,10.501337438009863 0.6483894625647576,8.89496982680093 0.607135747866395,6.94786883308236 0.5203171198588764,5.7585725590588535 0.3675668797480907,4.767517107643271 0.08466302849086045,3.9622148680866007 0.1693260569817209,2.636669839588703 0,0 3.0104805248169297,0.4583993826429926 5.859811404473464,0.6421456569789906 7.5364218267661665,0.6833993714660918 10.040856786926307,0.7515609141621117 11.911619825969085,0.4748265374145536 14.201386808644111,0.3881565714535939 15.65492984861335,0.5017343656234725 17.067219174095484,0.7700693374270514 18.946158625170852,1.2160554402386818 20.74050937862019,1.7921951539854952 22.68961730975604,2.7543358397220596 23.47834373244178,3.2313179766532714 24.221653903759286,4.3503714395401945 24.473561720791302,5.1845884447758825 24.73364594985591,6.634043278781642 25.082630075157333,7.257606181472414 25.669027469482927,7.8005942615829875 26.519745960407825,8.461397003873477 27.285652760900934,9.060059015825429 29.195662577066344,10.393929118244026 30.74828886288072,11.007160009543998 31.231514805133624,11.159984580783695 31.689839856753338,11.166154055187736 32.7015593308977,9.00646635247743 34.2996761991564,9.857110512537494 34.42774854165102,10.047100592300813 34.94174752532337,10.701585198140702 36.170290576258246,11.281813117850993 38.78637072419426,12.79734822611221 39.55859566108516,13.268086557563285 40.40931415222132,14.120811986063913 40.966722449686166,15.355524511614094 41.449948391939074,17.362461974107983 41.71003262100368,18.027278591285857 42.20359057480582,18.706664087864564 43.180151477632585,19.848388510950368 43.983372448959955,20.767194213706453 44.82375892854687,21.7087452076847 46.40321871149407,22.689542978732764 47.412931248062705,23.55252608760091 48.019992665064265,24.36816033854838 47.95710862454575,24.832729195595412 47.891920322569646,25.315880806930668 47.83208385363588,26.567094818275688 48.23674191098995,27.611891595033015 49.490037190828346,29.011841971654253 50.78057231021365,30.285726943198156 53.070339292888676,32.236916142880204 54.14605777284793,32.837808085319274 55.197024023903666,32.3690766913383 56.22323804647841,31.578343331076837 56.828143863963305,31.584661467527436 57.16820826710498,31.588229356380772 62.25230117685749,32.48674269141884 63.014119771334315,32.61897757090022 63.29910489103211,35.98446303348169 64.38931791921047,36.01746600507137 68.00462993043621,36.01746600507137 71.4713542384323,36.089715753730864 74.7048278144966,36.15787729642689 74.93815287708195,33.14330856575211 77.63257791711104,33.19496862265329 79.21627456822672,33.13721342231853 81.09313275065026,32.98022631414489 83.12482244183641,32.80881898866979 88.53240393785966,32.30924022251016 94.12789424552255,31.598933022835155 94.37563952546219,31.588601011444357 95.43693778806717,31.543110429000034 96.41565429062186,31.390360188783617 97.00413295338801,31.29744641734252 97.34687327315649,31.2272779371764 98.21193765057083,31.051782405737825 102.51280463262087,30.37864071463925 110.4414712367513,28.974676463077813 111.52135225380295,28.92918588063349 112.99764058488871,28.61744159477334 114.1827743220311,28.190038246249927 117.14783859526852,27.38265473819988 118.77070769221949,26.941277158514684 121.83069267442094,26.108769766655975 125.13634166812146,25.74737236136474 126.41230790821156,25.604954132539124 127.3104495880804,25.32212461235799 128.86106893653033,24.973140486950932 130.7999935182691,25.092887755524853 132.28661386090414,25.441871880984724 133.5770003183485,25.623536886827342 134.0953105008429,25.69786790398022 135.47868506054039,25.375717275705988 136.84756507201877,25.05988478393517 137.77410120056214,24.832729195595412 138.97841234012617,24.537486395582917 140.46503268276118,24.55807608728842 141.2330950825597,24.832729195595412 141.77615749374635,25.026807481322212 143.0666182822668,25.573958098419542 144.83606814487172,26.088105743874376 145.5897103275272,26.52784804120587 148.47628104673063,27.81630189215061 149.35167743548297,27.948462440608708 150.64221255486825,28.221034280422323 151.87276254337885,28.278789480704265 153.03730658871012,28.4088687607218 153.93336700034968,28.823933160331496 155.13715782280354,29.315261183593705 156.2727871025614,30.0049786915104 156.93968498807422,30.71729282865551 158.47172158228872,32.856316508584214 159.0848781424598,33.48196067976837 160.0202596620868,34.40901712542187 161.75261834729696,35.961792073229994 162.92333186708507,36.587361913390865 163.58197900991172,36.851683010307056 163.8731336038551,36.96927467941713 164.73202850681258,37.23359577633333 165.84498682631875,37.57841736480644 168.35358432336002,37.79932914771888 170.08586867770535,38.059487707648316 171.9214731456418,38.60054318131207 173.3544264937999,39.093952473014845 176.03450564755082,39.89301090719701 178.4646839214229,40.718902838512 180.17221604686472,41.40854601540541 180.71319718961084,41.622619344757105 182.22256282357364,42.220017729418934 183.47176989739575,42.657678758257056 185.6747925829281,43.42789675778348 188.12771614833923,44.284784723218046 191.15261689029919,45.34192044883627 191.97642755322642,45.63091944347426 195.90980198660446,46.95445753444925 198.63730432929933,47.98267849438845 199.51069378047592,48.251162128291405 200.35516846607914,48.509239419727464 202.4591079059776,49.174056036958156 203.23348844238515,49.399130356804534 204.00563904819995,49.62420467670373 204.82328023667034,49.861617945411005 206.17781436187053,49.97519573958088 207.24736336737294,50.06394697403522 207.7758568992644,51.19957625374026 208.1042513327547,51.907876515945176 209.82412240711022,52.15145925910931 210.9783344411035,52.58503208198395 212.17171892114328,52.87001720168174 212.95836407538846,53.17551768206176 214.6804650801255,53.318010241910656 216.19183765145274,53.441920047471335 216.4375016631631,55.711097338388036 217.66812598274979,55.723510618272215 219.28898814233628,55.477697944620964 220.63311592512238,55.27544324702002 223.95110386773663,55.4096107328954 226.84592532983748,55.52727673302876 227.6449837638612,55.663525487450336 230.12474082640517,55.791597829944955 230.73997865522807,55.82259386406454 230.88864068953382,55.824600801534636 231.49577643740022,55.835007143948715 232.25967630031758,55.84742042378008 232.9679022313936,55.85975937264098 233.88462666592036,55.87417958999525 234.22536004832438,55.880423395422575 237.51859576224635,55.93409038979385 238.31973546471062,55.97534410428096 239.3727829844182,56.02908542967551 241.0968165958661,56.117836664129854 242.65568668700217,56.19677620430353 243.88623667572404,56.260254892955466 244.24763408080403,56.27683070977359 245.31718308630641,56.330572035168146 248.47625131435302,56.384164698516145 249.5891353027831,56.40282178377483 255.4241201474882,56.99330738385264 257.0903985584429,57.232801921053294 259.77865412401513,57.354630458120596 259.92530922074513,57.36079993257745 264.422335757121,58.025690880778605 266.78234555093263,58.539764195262975 266.6914387169088,59.26857981820292 266.6832623050875,59.3285649490248 266.637846053508,59.6774004123853 266.559352499474,60.29687510916541 266.50568550520836,60.724278457636004 266.4210224767175,61.393257611800635 266.3074446826532,62.28522981737108 266.23311366550035,63.906091976904754 267.91589356203866,63.935006742583774 270.5112353562226,63.978341725564256 272.9125731955974,63.97626045707088 273.36889130985264,63.984511199968296 274.8555116524877,64.00725649119046 276.12947095500203,64.02784618294878 277.4095997319733,64.05059147417094 277.71718148084665,64.0547540111577 278.8487225545882,64.07333676544592 279.3711209430989,64.08158750834333 279.40620518312915,64.95906516553622 279.7778602686823,66.20418403350048 280.11651238264574,67.23240499343969 280.2527611371729,68.07680534801962 281.50605641680005,69.19184493596634 282.55085319382147,68.6776972905115 283.50682440504835,68.20904022750099 284.98727527322654,68.26263289084899 285.69542687343767,68.5435298045833 286.7649758789401,68.96468934762659 289.3253077639586,68.89043266149699 289.56063976411974,68.88418885606967 289.70105105552807,68.88010065015901 289.85796383251994,68.87593811317224 289.5647279699248,65.63428812512818 289.5048915012022,64.9901355307319 289.4243910098038,64.0940007881747 289.45330577537715,64.0940007881747 290.6219380267247,64.07333676544592 293.8594998088053,64.02167670854473 293.597259980224,67.2902345247449 293.62223520214457,71.0041094646 293.624019146492,71.37427792989881 293.6281816835844,71.94201823875446 293.6344254889061,72.70814803231741 293.6344254889061,72.77415397549677 293.74175947764866,72.77207270700339 294.69356815199444,72.74531354084102 297.778379693753,72.66265744982027 299.97738850455636,72.60282098104494 300.97245783096497,72.67298946121106 301.6332605733083,72.71848004365539 302.57458857416384,72.6851797480254 303.15087694995725,72.66473871831364 304.5982505154696,72.58795477760381 307.4330868466958,72.43758312992108 313.76155531412695,71.68810348425234 315.98739762206316,71.76451576984579 319.83194649006924,71.8945950498105 320.2036015756224,71.94826204418177 321.17406733527963,72.0866663980672 322.2208710494542,72.23740970081352 323.808730237451,72.46649789560009 328.62775874005456,71.58277643297988 331.3553354136143,70.45339095870216 333.24661381339206,69.75133450192457 334.6134868872947,69.247593198831 336.2240170355432,68.6550263302598 338.23303576647766,67.8724693819253 339.70523589175843,67.3129054849966 341.24136069177797,67.00524940509993 342.54631602851754,66.74509084511767 346.4733723254978,62.95004643460177 349.27119181019407,60.868777954955 350.9808052040765,60.284461829281234 353.2747347238439,60.42903565762351 353.86938286085564,60.68711294911238 355.31058695191115,61.31684532620719 355.3890805059452,61.35192956629025 356.5927969973229,61.85373826293701 357.842004071145,63.86476393139438 358.53365418577266,64.97972918831782 359.8674499570095,67.50289556475992 361.70089882564054,70.7115425811615 362.0354627335877,71.16778636434064 363.42916930483443,73.07147804400265 365.5310274760811,75.65448088927289 365.9688371669657,76.19129949497942 366.54074001286097,76.73250363068973 367.57936731521426,77.71508534613805 369.40456544094786,77.86999118581831 371.9999815659967,78.15073943750606 375.57403986252405,78.56989204313206 378.4502042393134,79.27194849990966 381.14685920972397,80.16600197392066 384.433851118113,81.25413373365846 385.1689105465331,81.49979774531597 385.1771612894305,81.50187901375654 386.53162108376586,81.94786511656817 388.6273841116317,82.69325655632623 392.9220816192249,84.21904934495498 393.4258229224241,84.3987074133275 394.0061251731577,84.57628421325946 396.1595690704407,85.23909389302004 399.4548860528032,86.41597688721218 400.5371456621773,86.77521869298675 408.038111593744,89.26530776681591 416.47051950086234,92.3211302120306 423.0818918195508,94.73071879430282 424.787342676552,95.31919745691053 426.23687184158103,95.81885055404062 428.48322951025233,96.59248778032102 430.90723830987884,97.42729943374295 432.42894289254406,98.0322052511222 435.7759942628839,99.3640684160179 436.500721679966,99.65314174167916 441.43548357615043,101.32967783300141 446.0521830499713,102.88237844983907 458.806196293103,107.29266068917785 460.8275539727399,107.98022259757789 470.5091689538916,111.2693701055892 477.3207890327109,113.6004651337746 480.2114479577193,114.64935011649541 483.4977708870573,115.70574253193365 481.4591684112871,118.36902287563815 477.688355912459,123.29404740861801 477.72329149054826,123.3114408666394 477.4395699980878,123.68406225549515 475.9704917754679,125.60083619419802 474.8397683429296,125.21907209021832 471.91588345310316,124.17241703803745 469.55304908051255,123.32667872514412 462.1788918644144,120.70636170930369 451.6354830706614,116.94476625646433 450.90785674393544,118.34441930899246 449.84863974977105,117.96741239013292 435.24155424976385,112.76758608685232 428.48322951025233,110.35881514573053 417.95572755431914,106.6067340630787 418.6890773692566,105.20871629290428 418.3004748116633,105.0685279946186 417.54973153865166,104.8009363329422 417.2883836823498,104.70765090643752 416.54656013149787,106.11250713017267 409.8668776081725,103.71585214489477 410.55027697969143,102.42174913665613 410.6083295040665,102.31188789333333 410.5580817365548,102.29404844922509 410.5383096859469,102.32779473099475 408.17279939672954,101.49112480220211 406.812913438487,101.01250738291719 400.30225964805027,98.72169976602189 390.47406390103333,95.21082283394769 388.30523348346316,97.68128851926834 386.6334545771026,99.55621409529788 386.6549362411931,100.66723980835721 386.8067201779485,102.93976199505742 387.0843465270282,104.25177877837476 387.0523098585827,104.5116400142639 386.923568537037,104.52219501872453 387.02844960216976,106.67177370306106 387.1595695164604,109.35579240057045 387.65654669680526,117.95403280699892 388.97859816752594,117.90029148165718 388.9722057002633,117.81547979111976 389.4638310475658,117.79050456935767 389.49185384085985,118.16728849514736 389.3035733744735,118.17680286533489 389.34713135062947,118.90584148134468 389.6258726647943,118.89156992608979 389.65419278218144,119.26820518988573 389.36965364872896,119.28269973821048 389.39797376611614,119.75343806971438 389.5785981377913,119.74749158832735 389.58536226043435,119.90931021259163 389.407413805386,119.91510803193209 389.43617990901845,120.39394844428685 389.6007487809328,120.38547470831959 389.62899456745515,120.76203564109225 389.458925200135,120.77073237012935 389.49415810231744,121.363150576654 389.6589499674601,121.3577987434004 389.66549109687486,121.51961736771749 389.5038211346043,121.52482053887171 389.5298369905339,121.9602516372227 389.8040441128597,121.94642606805466 389.8323642302468,122.32298700082734 389.5524336199208,122.33725855613505 389.6137567088976,123.35997902082691 388.01080832449543,123.42501866080927 388.2211651031585,127.17947833599479 388.8731224542069,138.23725776821968 389.19215117971464,143.58210388592943 389.3661600908989,146.65479947200254 389.32832560316575,146.6562860923625 389.29182907374604,146.65650908537953 389.29242372193227,146.81817904765006 389.3260213417082,146.8179560545802 389.3275079619625,146.87244069015475 389.3292175754451,146.9265536706129 389.8050847468687,147.074026408599 389.77148712730406,147.1479114396122 389.86856343557344,147.17808983258132 389.9050599649932,147.09810965813455 394.60642246751615,148.65296587448887 396.6071904555532,147.4149084531552 397.4973043857529,146.8566081835166 398.2586026631196,146.37918006049853 402.1745836384234,143.91808008331887 405.24906316905526,144.91448736793524 406.9400938087023,145.4695170728664 408.21710068301263,145.8885953474163 411.0906634742513,146.83014634139457 411.5318180608138,146.97472016973683 416.4389288186622,148.57804020920256 416.8709406902592,148.71778252140138 421.0687848826,150.07633052148896 422.6577590356819,150.5808151347097 422.6456430799965,150.61091919665557 425.42465681744034,151.5089122146363 428.48322951025233,152.5328219755422 433.03786258475793,154.05281694483045 435.9570646205931,155.00202403357272 439.9019603616816,156.3102499350725 444.1840959275553,157.7240258808618 443.3069155942443,159.50239546567926 444.74767369926576,160.3972665808935 448.51662792288164,162.6957302925528 449.9095911837899,163.56889675076522 449.9761174440794,163.6111910995254 452.7824849959775,165.32392639622708 452.6451956074413,180.5498176139633 452.61011136719975,180.5551694472169 452.610483022369,180.38606638325223 452.15669216279963,180.3578205967299 451.79351081294965,180.32764220376075 451.39747515387353,180.30861346338568 451.09056238405117,180.27679978806285 450.7454434715378,180.28408422771045 450.3786942329929,180.28943606096405 450.0225743298792,180.29776113488475 449.57844650259676,180.28534785500057 448.7754485244977,180.2669137627589 448.3578568702549,180.25450048292754 447.98070128950724,180.27679978806285 447.70768346355396,180.31032307676267 447.50706404825394,180.34704259925223 447.2262414654372,180.34771157840893 446.9571631835593,180.3381972082214 446.77245060586785,180.3138166345927 446.4952702430335,180.25806837172806 446.2946508279447,180.25182456630074 445.58389764197153,180.25308819359086 444.7093188946337,180.3524687634763 444.1835756102339,180.42278590568898 443.8547351904983,180.5458780700464 443.6544130995026,180.66213178084308 443.4100127150296,180.83785030535148 442.7254983782143,181.5355212321253 442.30121693261583,181.94642309480105 441.7653646301063,182.6702585396038 441.44559259447135,183.1505855723185 441.2976738702928,183.43854393268342 441.2103349251751,183.80098197219493 441.1235162971676,184.28413358353018 441.0960138209837,184.48601662606754 441.1137046029398,185.09634860772368 441.1395717969284,185.72801359126532 441.1166035125836,186.09691842927398 441.0852358234004,186.40130394441044 441.06271352508963,186.92080342311888 441.0540911272343,186.9780383063435 441.0272576298902,187.1591086640527 440.999755153495,187.43532272369012 441.0206421693993,189.15058527497203 441.0352853797706,190.0517745266369 441.09705445499276,190.5810113686027 441.1178671398209,190.87543652746476 441.1064944942626,191.10028785429412 441.06293651831794,191.34015404655835 440.9399186847725,191.780416661 440.91226754643645,191.9425326093574 440.91263920160566,192.1013036619841 440.9343438585019,192.6885186973017 440.91880867585127,192.88029272146528 440.9031991623358,193.01594682775342 440.92438350233317,193.41302312126115 440.9169504004277,193.6361648346607 440.8974013430481,193.85462369401617 440.86595932278885,194.08958403916648 440.8626887581871,194.3375523122816 440.85525565649294,194.5230082000474 440.81972543000614,194.78770095202717 440.788209078882,194.93829559272692 440.8046362336008,195.08710628902642 440.88186616039746,195.49384561476825 440.95129133054206,195.8541280547631 440.97210401515895,196.13539662361381 440.9645222515239,196.30903387962883 440.90580074809776,196.86480689468718 440.8827581326768,197.1989248167059 440.8913061996674,197.4388653399934 440.9078820165383,197.62409823468937 440.9165787454698,197.82902884891712 440.91301085656363,198.03737868989882 440.90557775486946,198.2228345776646 440.91011194713104,198.38822109078222 440.8909345444982,198.71074337406722 440.8913061996674,198.82655109877703 440.8515391054346,198.94570371921753 440.8279761731148,199.1176313618556 440.81682652057356,199.43547079109652 440.81102870107463,200.31190781406912 440.79638549070336,200.72883048915517 440.79846675935516,201.51941518731726 440.7792893567223,201.82045580672303 440.7478473366743,202.08841912346304 440.7578076928431,202.75829024980138 440.75468579018224,203.1057877549013 440.73521106366746,203.3041772396086 440.7637541742829,203.47952410905344 440.8209890574547,203.79149138793062 440.9075103613691,204.07090168130497 440.98801085297885,204.35663011112993 441.0509692243622,204.68309193838465 441.0586253192846,204.93559440355008 441.04479974990534,205.20534166474317 440.9968562440625,205.5337360983919 441.0146213570946,205.84875094901227 441.01610797734895,206.12169444388948 441.0316431599996,206.4029630127402 440.9551565433301,206.71292335414728 440.8961377158108,206.95464782183504 440.86826358424645,207.22803730285193 440.8449236449437,207.50744759622629 440.8319157169789,207.79377067423746 440.8169751825145,208.07206600236827 440.8140762728707,208.36820077460732 440.80300095119424,208.67689748872425 440.7932635880425,208.98745247831758 440.77319421355276,209.31183303707894 440.7623418848934,209.63346334819022 440.7545371282413,209.9336863263399 440.7536451559619,210.22253665893135 440.74621205426774,210.5272938291842 440.74665804030184,210.66027201879274 440.74702969547104,210.7922095742338 440.70822890438245,211.10261590172775 440.66957677544605,211.42357723368232 440.64259461637226,211.75539089419064 440.6442298985676,212.01577244718993 440.6712120578526,212.34595082523893 440.65352127589654,212.66282395128283 440.6156867881634,212.9828933110637 440.5880356498273,213.28831946042044 440.5826838165737,213.61656523207543 440.5903399112849,213.8868328103258 440.53667291701925,214.16066827742955 440.50589987581105,214.4814809473904 440.51600889413197,214.79344822626757 440.5042645934045,215.12384959743923 440.4883577557959,215.39225890026609 440.4763904620514,215.649592881575 440.45669274251964,215.98088622492034 440.4451714348092,216.3048951285653 440.448070344453,216.57040552174834 440.4650178164932,216.83011809564374 440.47966102665316,217.13717952735416 440.48746578351654,217.40231826547364 440.4943042372357,217.67615373257738 440.50240631798096,217.93252141068925 440.502629310998,218.2346026642625 440.4881347627789,218.54144110300874 440.45401682589284,218.83192671795388 440.4203448750408,219.13252135121996 440.42264913670965,219.4569019099285 440.4430901663686,219.7538543233708 440.9556025295754,219.77838355904603 440.9645222515239,220.30390385016477 440.9132338497919,220.59215953456996 440.8370445572155,220.89624772566611 440.7297105684729,221.20724870129348 440.4816679642289,221.5557125095904 440.2901169332408,221.74012776313592 440.093957378915,221.88031606142158 439.80651933560745,221.99136660101124 439.52309516745134,222.07484033323524 438.7700476327708,222.23398304092555 438.3477731245368,222.2663913643818 437.61026077250693,222.24290276297967 437.61962648070073,221.94966690038444 437.2421735756487,221.94208513664373 436.8725254276713,221.935246683083 436.51967608915936,221.94141615748703 435.8203698800318,221.93480069699612 435.4747306504083,221.93710495850652 435.1177187752264,221.94498404634035 434.74606368946206,221.95360644430136 434.38102406439987,221.9538294373712 434.0391013856234,221.9478829559842 433.6920498666103,221.9484776041176 433.32775355167524,221.94535570140394 432.9629369194188,221.93933488899364 432.6007962042117,221.93896323393005 432.32495379969066,221.9425311227306 431.94103409608863,221.95033587954114 431.5535465037917,221.95628236092816 431.17728289511217,221.96126253906536 430.79024128884936,221.95940426364183 430.3892254514775,221.95464707852165 429.9960887020452,221.9484776041176 429.6097904059095,221.94312577091682 429.2115248160293,221.94141615748703 428.82039500396144,221.9375509445934 428.48322951025233,221.94535570140394 428.4516388280521,221.9461733426072 428.0793890941015,221.95033587954114 427.79529594668304,221.95531605767835 427.4265397707738,221.96393845569216 427.16846247928487,221.97367581894954 426.81739708533166,221.9907719528778 426.0883584694275,222.02050435970727 425.73967166800793,222.02853210958767 425.00453790851174,222.03581654923528 424.6322881747724,222.0403507412856 424.27133675572645,222.042432009779 423.90243191766496,222.0420603547154 423.5249790126129,222.03559355621823 423.1603110425087,222.02734281332081 422.7986163133356,222.02816045447128 422.4265152415371,222.03559355621823 422.14071248063607,222.042432009779 421.7770108138873,222.0523180350301 421.4232695033072,222.06079177099735 421.0545133273979,222.06911684491806 420.6844935240401,222.07543498136866 420.33595538477266,222.07543498136866 419.9947016850473,222.07238740967827 419.6407373814502,222.06986015509804 419.2800089554213,222.06859652780793 418.95094554266865,222.07090078931833 418.64841830295575,222.08056382155243 418.3461883873359,222.09156481209993 417.98991982207,222.11178284874185 417.66293767775795,222.13698106357378 417.343537297081,222.12129721892939 417.15748676128743,222.0533586693032 417.05379499231583,221.9319017872995 417.0118722987777,221.6841565072014 407.15803235078914,221.7474122027835 406.963210754988,221.74860149905035 406.7540432729087,222.0103953413863 406.50042584239407,222.24349741111308 406.26895905502096,222.44404249533704 406.0231463813697,222.6150038347253 405.7710155713207,222.76983534338225 405.4918282709105,222.944141578554 405.18744275577404,223.12290767475278 404.86752205798695,223.2807124241297 404.5432901613778,223.39733778998993 404.19348839466187,223.5137401628332 403.856545894181,223.6361633480339 403.21670449881805,223.86294728131008 402.9274825109518,223.9950334987449 402.51754695163146,224.11336847803494 402.69311681393486,227.257198847524 403.05377090909894,233.72251071740453 403.04143196018526,233.8152014957758 402.9779532716918,233.91948791277514 402.8692069935597,233.98475054582735 402.7412089821412,234.0169358762666 402.61068371603676,234.00742150607906 402.4762932371444,233.9516732432144 402.41370652050773,233.87533528864424 402.3872446785441,233.80390318113518 402.4339245573609,233.70288732889603 402.52379075695313,233.56968614616483 402.59329025817385,233.56002311398356 402.6040682555459,233.56336800971422 402.2460157459325,227.25801648867446 402.0699255663077,224.15529117167875 401.9657134804372,222.31827441435283 402.02428632192243,222.02897809567452 402.00079772046746,221.57622787032543 401.71068376074436,215.81906760060326 401.7042169621944,215.69642142238553 401.43974720323166,210.66027201879274 401.4354360041983,210.5788795550621 401.29130816194294,207.60712549020485 401.2632853684376,207.11639211512886 401.2527303640826,206.9327945028394 401.192596571267,205.89007899452267 401.1026560403874,203.8680523355706 401.02222988006497,203.86827532864044 400.5331317872371,193.63698247586396 397.22666515233334,191.5394355034922 393.83902904676876,189.39208674964277 391.39413323123796,187.8631720583004 391.31957922106807,187.8871066458422 391.3641778314443,188.38386083327566 385.0163089685745,188.8018241426348 383.74116036968763,188.89719083758004 382.90716635736334,188.94364772327418 382.30902466252155,188.9796239355838 381.71006532647647,189.01775574735723 381.3179692112644,189.04808280237293 380.14680970544225,189.03715614284872 378.82000104965425,189.08651193823948 378.8491388082447,190.31089245234605 378.86668092825977,190.94872691034453 378.8851150205542,191.62038198113598 378.92057091575373,192.76218073524507 380.6529296009639,193.06039677597747 381.08427249329856,193.05950480380375 381.09728042147464,193.41094185276776 381.3358829862375,193.450783277971 381.36918328213153,194.26545122566864 381.44306831303913,195.56550071529432 381.53717138079986,197.63517355620735 383.0133110499447,197.47209130465293 383.0531524750423,197.79126869220727 383.10325158061306,198.12285935959295 384.6207192953211,197.90313687294733 384.54438134080374,197.4486027032508 385.04106119726674,197.3630477025334 389.046388055264,196.70752246247324 395.0745592133637,195.7292519460054 395.15840460065135,196.14855321362515 395.5459665240243,196.09823111503738 395.62483173322755,196.536784116102 387.38665077372406,197.95405361972135 387.2167300685561,197.98334004046396 385.04396010691056,198.33618937876466 381.58058069459236,198.88809718092935 376.464971433927,199.68960853866847 376.3893767893256,199.67266106673395 375.6268892157977,199.78601586788682 375.7546642341992,201.52231409701392 375.8622955470349,203.05829023493408 375.93357899239174,203.91740813096138 376.3515423018037,210.66027201879274 376.50020433589816,213.05581203882707 380.3433409145147,212.94572780248726 380.52180968667324,212.93041561295925 382.0249315151031,212.8986019376364 382.6521366376705,224.09478572374672 383.1087520758076,224.0861633257329 383.2930929983298,227.2951819972509 383.804118741071,236.1871785833847 383.70340021281936,236.19067214116197 383.7002039790824,236.14384360040424 383.5475280700477,236.14919543360503 383.5515419449879,236.19602397441557 383.37463412415985,236.2024907729127 383.5433655331666,239.62000794745893 385.1633357204737,239.56470567073396 392.38481702753717,239.23958180179264 392.7969825174502,239.21884344798775 393.13139776345645,239.3132438397888 393.2110806138629,239.33100895287376 393.2897971611252,239.60930428100457 393.2986425519976,239.7286798945149 393.52289923069355,239.72005749650108 393.52000032104974,239.8997898959497 393.92406373021754,239.9463211126671 394.2846434943055,239.9556124897848 394.6374928326062,239.96423488779863 395.00684365670173,239.97664816763 395.26908348528303,240.07037958022153 406.46749720188046,239.6437938729542 406.462665685737,239.57793659176858 406.54547043880433,239.48911102629097 406.6142266296866,239.44748565668746 406.71130293795596,239.44763431873403 406.82547538020646,239.48851637815756 406.9753267108847,239.6348741509001 406.98513840511254,239.73016651482203 406.96031184555545,239.83973043410455 406.91749717952666,239.87407136400762 406.94024247064317,240.2233528135078 406.7131612133795,240.43958174232333 406.20146649158727,240.50915557435604 405.97215530351957,240.5316035415379 405.7569670091356,240.58445289470592 405.61350814593123,240.6627234557229 405.557313897191,240.7515490212005 405.61700170376133,240.95016149897765 405.5874922900017,241.07957179978567 405.2403664401238,241.1407462269272 405.06754682510075,241.18408120990767 405.07579756820945,241.3408453250115 405.1916052926552,241.33794641536767 405.3469571187392,241.33400687145073 405.8203713667643,241.32218823969998 407.2124426553932,240.73088499847174 407.77943965428017,240.48990384091113 408.4698261412479,240.47139541764616 408.6176705343504,243.8616331089199 408.77577260771477,243.89404143237616 408.871659619823,243.962202975125 408.93811154924765,244.05823864922695 408.94472700973853,244.0676786883912 408.9651680393975,244.1345766037971 409.82450892838904,260.1325440964833 409.8373681944129,260.2983022646645 409.8267388589818,260.3999127650899 409.769949961844,260.5110376357028 409.70349803263065,260.5714687526115 409.61058426124237,260.608634261188 409.50674383032987,260.63242018668325 409.28233848948173,260.6326431797531 408.8875664574316,260.64520512163097 408.89492522826095,260.78851532263036 409.0873682315284,264.5455022524489 407.2805298672244,264.6076429827346 406.29549522827193,264.6415379265508 406.4602870932033,267.4551155869676 406.4746329794815,267.703158191106 406.5035477450549,268.1318251668667 406.53476677229713,268.923004513215 406.5636815378705,269.33241975558366 406.42215528137706,269.7042978342594 406.37948927750045,269.8341541212071 406.75835447194197,270.0342532192914 406.7630373259332,270.2373998891189 406.6437360434462,270.834129294624 406.5465110730246,271.2053383941959 406.4828837223789,271.459996458878 406.3348906673355,271.8136634383819 406.2510452798366,271.9868547082573 406.1237162476804,272.09716193766695 405.9776557989254,272.1386386452239 405.8186617532817,272.1718646098834 405.62235353722616,272.16978334144284 405.55642192491166,272.3736733213975 405.4784486879878,272.6027615161841 404.00520792848675,276.9234748798653 403.10602561418636,279.6656947638491 402.883032562939,280.3208483487929 402.52379075695313,281.4083111294268 402.26422684521,282.15808809918866 402.16016342106917,282.40516440013 402.104043503405,282.6445102752841 401.5589741546426,284.2779343766957 400.9291674465245,286.16549622567925 399.53627851648105,290.3362839278174 399.02004960263844,291.8947823639427 411.43593104870564,297.9538008942211 412.3159359605844,298.3805352635878 418.9554054036429,301.6243408510957 426.7829818245637,305.4448808005367 428.48322951025233,306.2742662896817 431.22730766960683,307.6128192461444 439.79693063439663,311.7926010013599 448.37376370786353,315.9769912795963 446.40599869141613,334.5453253445987Z"/></svg>